;TYPE=PLATED
;Layer: PTH_Through_Via
;EasyEDA Pro Client v2.2.32.3, 2025-07-30 17:15:16
;Gerber Generator version 0.3
M48
METRIC,LZ,0000.00
;Hole size 1 = 0.30 METRIC
T01C0.30
%
G05
G90
T01
X80.18Y-0.59
X80.18Y-2.5
X80.18Y-3.45
X80.18Y-1.55
X77.02Y-1.55
X77.02Y-2.5
X77.02Y-3.45
X77.02Y-0.59
X78.5Y-3.45
X78.5Y-1.55
X78.5Y-0.59
X78.5Y-2.5
X75.28Y-0.71
X75.28Y-2.61
X75.28Y-3.56
X75.28Y-1.66
X72.12Y-1.66
X72.12Y-2.61
X72.12Y-3.56
X72.12Y-0.71
X73.6Y-3.56
X73.6Y-1.66
X73.6Y-0.71
X73.6Y-2.61
X69.96Y-0.78
X69.96Y-2.69
X69.96Y-3.64
X69.96Y-1.73
X66.8Y-1.73
X66.8Y-2.69
X66.8Y-3.64
X66.8Y-0.78
X68.28Y-3.64
X68.28Y-1.73
X68.28Y-0.78
X68.28Y-2.69
X60.0Y-1.1
X60.0Y-3.01
X60.0Y-3.96
X60.0Y-2.06
X56.84Y-2.06
X56.84Y-3.01
X56.84Y-3.96
X56.84Y-1.1
X58.32Y-3.96
X58.32Y-2.06
X58.32Y-1.1
X58.32Y-3.01
X54.27Y6.06
X54.27Y4.16
X54.27Y3.2
X54.27Y5.11
X51.11Y5.11
X51.11Y4.16
X51.11Y3.2
X51.11Y6.06
X52.59Y3.2
X52.59Y5.11
X52.59Y6.06
X52.59Y4.16
X67.02Y5.89
X67.02Y3.98
X67.02Y3.03
X67.02Y4.94
X63.86Y4.94
X63.86Y3.98
X63.86Y3.03
X63.86Y5.89
X65.34Y3.03
X65.34Y4.94
X65.34Y5.89
X65.34Y3.98
X51.11Y-0.54
X51.11Y-2.45
X51.11Y-3.4
X51.11Y-1.49
X47.95Y-1.49
X47.95Y-2.45
X47.95Y-3.4
X47.95Y-0.54
X49.43Y-3.4
X49.43Y-1.49
X49.43Y-0.54
X49.43Y-2.45
X50.86Y28.15
X50.86Y26.24
X50.86Y25.29
X50.86Y27.19
X47.69Y27.19
X47.69Y26.24
X47.69Y25.29
X47.69Y28.15
X49.17Y25.29
X49.17Y27.19
X49.17Y28.15
X49.17Y26.24
X70.99Y27.76
X70.99Y25.86
X70.99Y24.91
X70.99Y26.81
X67.83Y26.81
X67.83Y25.86
X67.83Y24.91
X67.83Y27.76
X69.31Y24.91
X69.31Y26.81
X69.31Y27.76
X69.31Y25.86
X79.87Y27.69
X79.87Y25.78
X79.87Y24.83
X79.87Y26.73
X76.71Y26.73
X76.71Y25.78
X76.71Y24.83
X76.71Y27.69
X78.19Y24.83
X78.19Y26.73
X78.19Y27.69
X78.19Y25.78
X92.73Y22.59
X92.73Y20.69
X92.73Y19.74
X92.73Y21.64
X89.57Y21.64
X89.57Y20.69
X89.57Y19.74
X89.57Y22.59
X91.05Y19.74
X91.05Y21.64
X91.05Y22.59
X91.05Y20.69
X82.97Y21.52
X82.97Y19.62
X82.97Y18.67
X82.97Y20.57
X79.81Y20.57
X79.81Y19.62
X79.81Y18.67
X79.81Y21.52
X81.29Y18.67
X81.29Y20.57
X81.29Y21.52
X81.29Y19.62
X67.58Y21.41
X67.58Y19.51
X67.58Y18.55
X67.58Y20.46
X64.42Y20.46
X64.42Y19.51
X64.42Y18.55
X64.42Y21.41
X65.9Y18.55
X65.9Y20.46
X65.9Y21.41
X65.9Y19.51
X60.35Y27.99
X60.35Y26.09
X60.35Y25.14
X60.35Y27.04
X57.19Y27.04
X57.19Y26.09
X57.19Y25.14
X57.19Y27.99
X58.66Y25.14
X58.66Y27.04
X58.66Y27.99
X58.66Y26.09
X50.01Y22.75
X50.01Y20.84
X50.01Y19.89
X50.01Y21.8
X46.85Y21.8
X46.85Y20.84
X46.85Y19.89
X46.85Y22.75
X48.33Y19.89
X48.33Y21.8
X48.33Y22.75
X48.33Y20.84
X49.06Y13.99
X49.06Y12.08
X49.06Y11.13
X49.06Y13.03
X37.25Y13.88
X37.25Y12.92
X37.25Y11.97
X37.25Y14.83
X38.72Y11.97
X38.72Y13.88
X38.72Y14.83
X38.72Y12.92
X40.37Y21.79
X40.37Y19.89
X40.37Y18.93
X40.37Y20.84
X37.21Y20.84
X37.21Y19.89
X37.21Y18.93
X37.21Y21.79
X38.69Y18.93
X38.69Y20.84
X38.69Y21.79
X38.69Y19.89
X26.02Y19.46
X26.02Y17.55
X26.02Y16.6
X26.02Y18.5
X22.85Y18.5
X22.85Y17.55
X22.85Y16.6
X22.85Y19.46
X24.33Y16.6
X24.33Y18.5
X24.33Y19.46
X24.33Y17.55
X25.6Y13.41
X25.6Y11.51
X25.6Y10.55
X25.6Y12.46
X22.43Y12.46
X22.43Y11.51
X22.43Y10.55
X22.43Y13.41
X23.91Y10.55
X23.91Y12.46
X23.91Y13.41
X23.91Y11.51
X26.7Y5.27
X26.7Y3.36
X26.7Y2.41
X26.7Y4.31
X23.54Y4.31
X23.54Y3.36
X23.54Y2.41
X23.54Y5.27
X25.02Y2.41
X25.02Y4.31
X25.02Y5.27
X25.02Y3.36
X26.13Y0.01
X26.13Y-1.89
X26.13Y-2.84
X26.13Y-0.94
X22.97Y-0.94
X22.97Y-1.89
X22.97Y-2.84
X22.97Y0.01
X24.45Y-2.84
X24.45Y-0.94
X24.45Y0.01
X24.45Y-1.89
X15.34Y2.12
X15.34Y0.21
X15.34Y-0.74
X15.34Y1.17
X12.17Y1.17
X12.17Y0.21
X12.17Y-0.74
X12.17Y2.12
X13.65Y-0.74
X13.65Y1.17
X13.65Y2.12
X13.65Y0.21
X8.68Y10.5
X8.68Y8.6
X8.68Y7.64
X8.68Y9.55
X5.51Y9.55
X5.51Y8.6
X5.51Y7.64
X5.51Y10.5
X6.99Y7.64
X6.99Y9.55
X6.99Y10.5
X6.99Y8.6
X7.68Y17.47
X7.68Y15.56
X7.68Y14.61
X7.68Y16.52
X4.52Y16.52
X4.52Y15.56
X4.52Y14.61
X4.52Y17.47
X6.0Y14.61
X6.0Y16.52
X6.0Y17.47
X6.0Y15.56
X15.49Y27.89
X15.49Y25.98
X15.49Y25.03
X15.49Y26.94
X12.33Y26.94
X12.33Y25.98
X12.33Y25.03
X12.33Y27.89
X13.81Y25.03
X13.81Y26.94
X13.81Y27.89
X13.81Y25.98
X27.89Y27.08
X27.89Y25.18
X27.89Y24.23
X27.89Y26.13
X24.73Y26.13
X24.73Y25.18
X24.73Y24.23
X24.73Y27.08
X26.21Y24.23
X26.21Y26.13
X26.21Y27.08
X26.21Y25.18
X38.46Y0.52
X38.46Y-1.39
X38.46Y-2.34
X38.46Y-0.44
X35.3Y-0.44
X35.3Y-1.39
X35.3Y-2.34
X35.3Y0.52
X36.78Y-2.34
X36.78Y-0.44
X36.78Y0.52
X36.78Y-1.39
X76.2Y6.13
X76.2Y4.22
X76.2Y3.27
X76.2Y5.18
X73.04Y5.18
X73.04Y4.22
X73.04Y3.27
X73.04Y6.13
X74.52Y3.27
X74.52Y5.18
X74.52Y6.13
X74.52Y4.22
X83.09Y10.87
X83.09Y8.96
X83.09Y8.01
X83.09Y9.91
X79.93Y9.91
X79.93Y8.96
X79.93Y8.01
X79.93Y10.87
X81.41Y8.01
X81.41Y9.91
X81.41Y10.87
X81.41Y8.96
X95.15Y16.38
X95.15Y14.47
X95.15Y13.52
X95.15Y15.42
X91.99Y15.42
X91.99Y14.47
X91.99Y13.52
X91.99Y16.38
X93.47Y13.52
X93.47Y15.42
X93.47Y16.38
X93.47Y14.47
X96.78Y11.04
X96.78Y9.13
X96.78Y8.18
X96.78Y10.08
X93.62Y10.08
X93.62Y9.13
X93.62Y8.18
X93.62Y11.04
X95.1Y8.18
X95.1Y10.08
X95.1Y11.04
X95.1Y9.13
M30