G04 Layer: DrillDrawingLayer*
G04 EasyEDA Pro v2.2.32.3, 2025-07-30 17:15:16*
G04 Gerber Generator version 0.3*
G04 Scale: 100 percent, Rotated: No, Reflected: No*
G04 Dimensions in millimeters*
G04 Leading zeros omitted, absolute positions, 4 integers and 2 decimals*
%FSLAX42Y42*%
%MOMM*%
%AMIconRect*4,1,4,0.2,-0.2,-0.2,-0.2,-0.2,0.2,0.2,0.2,0.2,-0.2,0*4,0,4,0.166667,-0.166667,0.166667,0.166667,-0.166667,0.166667,-0.166667,-0.166667,0.166667,-0.166667,0*%
%AMIconTriangle*4,1,3,-0.242567,0.171767,0.242567,0.171767,0,-0.2706,-0.242567,0.171767,0*4,0,3,-0.189767,0.1386,0,-0.1953,0.190167,0.1386,-0.189767,0.1386,0*%
%AMIconStar6*4,1,12,0.0862,0.1492,0.213233,0.123367,0.172367,0,0.213233,-0.1229,0.0862,-0.148733,0,-0.245767,-0.085767,-0.148733,-0.213267,-0.1229,-0.171933,0,-0.213267,0.1229,-0.085767,0.1492,0,0.245767,0.0862,0.1492,0*4,0,12,-0.000333,0.195333,-0.064333,0.122667,-0.169667,0.097667,-0.138333,-0.005333,-0.169667,-0.098,-0.064333,-0.122667,-0.000333,-0.195667,0.064333,-0.122667,0.169667,-0.098,0.138667,0.005,0.169667,0.098,0.064333,0.122333,-0.000333,0.195333,0*%
%AMIconStar4*4,1,8,-0.222667,0.222667,0,0.144667,0.222667,0.222667,0.144667,0,0.222667,-0.222667,0,-0.144667,-0.217433,-0.222667,-0.144667,0,-0.222667,0.222667,0*4,0,8,0.166667,-0.166667,0.108,0,0.166667,0.166667,0,0.108,-0.166667,0.166667,-0.108,0,-0.166667,-0.166667,0,-0.108,0.166667,-0.166667,0*%
%AMIconPlus*4,1,12,0.124,-0.2,-0.124,-0.2,-0.124,-0.124,-0.2,-0.124,-0.2,0.124,-0.124,0.124,-0.124,0.2,0.124,0.2,0.124,0.124,0.2,0.124,0.2,-0.124,0.124,-0.124,0.124,-0.2,0*4,0,12,0.090667,-0.166667,0.090667,-0.090667,0.166667,-0.090667,0.166667,0.090667,0.090667,0.090667,0.090667,0.166667,-0.090667,0.166667,-0.090667,0.090667,-0.166667,0.090667,-0.166667,-0.090667,-0.090667,-0.090667,-0.090667,-0.166667,0.090667,-0.166667,0*%
%AMIconX*4,1,16,0.2,-0.2,0.054533,-0.2,0,-0.145467,-0.054533,-0.2,-0.2,-0.2,-0.2,-0.054533,-0.145467,0,-0.2,0.054533,-0.2,0.2,-0.054533,0.2,0,0.145467,0.054533,0.2,0.2,0.2,0.2,0.054533,0.145467,0,0.2,-0.054533,0.2,-0.2,0*4,0,16,0.1668,-0.1664,0.1668,-0.068467,0.097933,0.000067,0.1668,0.068467,0.1668,0.1665,0.068467,0.1665,0,0.097933,-0.068467,0.1665,-0.1668,0.1665,-0.1668,0.068467,-0.097933,0.000067,-0.1668,-0.068467,-0.1668,-0.1664,-0.068467,-0.1664,0,-0.097933,0.068467,-0.1664,0.1668,-0.1664,0*%
%AMIconDiamond*4,1,4,0,-0.26,-0.26,0,0,0.26,0.26,0,0,-0.26,0*4,0,4,0,-0.203433,0.203433,0,0,0.2036,-0.203433,0,0,-0.203433,0*%
%AMIconRect2*4,1,6,0.2,-0.2,-0.2,-0.2,-0.2,0.2,-0.1668,0.1665,-0.166667,-0.166667,0.1668,-0.166667,0.2,-0.2,0*4,1,6,0.2,-0.2,0.1668,-0.166667,0.1668,0.1665,-0.1668,0.1665,-0.2,0.2,0.2,0.2,0.2,-0.2,0*4,1,6,0.133467,-0.133333,-0.133333,-0.133333,-0.133333,0.133467,-0.1,0.100133,-0.1,-0.1,0.100133,-0.1,0.133467,-0.133333,0*4,1,6,0.133467,-0.133333,0.100133,-0.1,0.100133,0.100133,-0.1,0.100133,-0.133333,0.133467,0.133467,0.133467,0.133467,-0.133333,0*%
%AMCharA*4,1,8,-0.122067,-0.1864,-0.1532,-0.174533,-0.015133,0.1864,0.016,0.1864,0.1532,-0.174533,0.122067,-0.1864,0.0764,-0.0662,-0.076133,-0.0662,-0.122067,-0.1864,0*4,0,3,-0.063333,-0.032867,0.063667,-0.032867,0.000333,0.1338,-0.063333,-0.032867,0*%
%ADD10IconRect*%
%ADD11C,0.44X0.373333*%
%ADD12IconTriangle*%
%ADD13IconStar6*%
%ADD14IconStar4*%
%ADD15IconPlus*%
%ADD16IconX*%
%ADD17IconDiamond*%
%ADD18IconRect2*%
%ADD19CharA*%
G75*


G04 Drill Drawing Start*
G54D10*
G01X8257Y-202D03*
G01X9507Y-202D03*
G54D11*
G01X8653Y2619D03*
G01X8907Y2619D03*
G54D12*
G01X742Y2202D03*
G01X2056Y2202D03*
G54D13*
G01X772Y432D03*
G01X1976Y432D03*
G54D14*
G01X3297Y636D03*
G01X3315Y2645D03*
G01X4077Y2391D03*
G54D15*
G01X8582Y-202D03*
G01X8882Y-202D03*
G01X9182Y-202D03*
G54D16*
G01X1051Y1931D03*
G01X1301Y1931D03*
G01X1501Y1931D03*
G01X1751Y1931D03*
G54D17*
G01X4059Y382D03*
G01X5610Y2288D03*
G01X5614Y48D03*
G01X5864Y2288D03*
G01X5868Y48D03*
G01X6118Y2288D03*
G01X6122Y48D03*
G54D18*
G01X1249Y703D03*
G01X1249Y903D03*
G01X1499Y703D03*
G01X1499Y903D03*
G01X3297Y382D03*
G01X3315Y2391D03*
G01X3551Y382D03*
G01X3551Y636D03*
G01X3569Y2391D03*
G01X3569Y2645D03*
G01X3805Y382D03*
G01X3805Y636D03*
G01X3823Y2391D03*
G01X3823Y2645D03*
G01X4059Y636D03*
G01X4077Y2645D03*
G54D19*
G01X452Y1461D03*
G01X452Y1556D03*
G01X452Y1652D03*
G01X452Y1747D03*
G01X551Y764D03*
G01X551Y860D03*
G01X551Y955D03*
G01X551Y1050D03*
G01X600Y1461D03*
G01X600Y1556D03*
G01X600Y1652D03*
G01X600Y1747D03*
G01X699Y764D03*
G01X699Y860D03*
G01X699Y955D03*
G01X699Y1050D03*
G01X768Y1461D03*
G01X768Y1556D03*
G01X768Y1652D03*
G01X768Y1747D03*
G01X868Y764D03*
G01X868Y860D03*
G01X868Y955D03*
G01X868Y1050D03*
G01X1217Y-74D03*
G01X1217Y21D03*
G01X1217Y117D03*
G01X1217Y212D03*
G01X1233Y2503D03*
G01X1233Y2598D03*
G01X1233Y2694D03*
G01X1233Y2789D03*
G01X1365Y-74D03*
G01X1365Y21D03*
G01X1365Y117D03*
G01X1365Y212D03*
G01X1381Y2503D03*
G01X1381Y2598D03*
G01X1381Y2694D03*
G01X1381Y2789D03*
G01X1534Y-74D03*
G01X1534Y21D03*
G01X1534Y117D03*
G01X1534Y212D03*
G01X1549Y2503D03*
G01X1549Y2598D03*
G01X1549Y2694D03*
G01X1549Y2789D03*
G01X2243Y1055D03*
G01X2243Y1151D03*
G01X2243Y1246D03*
G01X2243Y1341D03*
G01X2285Y1660D03*
G01X2285Y1755D03*
G01X2285Y1850D03*
G01X2285Y1946D03*
G01X2297Y-284D03*
G01X2297Y-189D03*
G01X2297Y-94D03*
G01X2297Y1D03*
G01X2354Y241D03*
G01X2354Y336D03*
G01X2354Y431D03*
G01X2354Y527D03*
G01X2391Y1055D03*
G01X2391Y1151D03*
G01X2391Y1246D03*
G01X2391Y1341D03*
G01X2433Y1660D03*
G01X2433Y1755D03*
G01X2433Y1850D03*
G01X2433Y1946D03*
G01X2445Y-284D03*
G01X2445Y-189D03*
G01X2445Y-94D03*
G01X2445Y1D03*
G01X2473Y2423D03*
G01X2473Y2518D03*
G01X2473Y2613D03*
G01X2473Y2708D03*
G01X2502Y241D03*
G01X2502Y336D03*
G01X2502Y431D03*
G01X2502Y527D03*
G01X2560Y1055D03*
G01X2560Y1151D03*
G01X2560Y1246D03*
G01X2560Y1341D03*
G01X2602Y1660D03*
G01X2602Y1755D03*
G01X2602Y1850D03*
G01X2602Y1946D03*
G01X2613Y-284D03*
G01X2613Y-189D03*
G01X2613Y-94D03*
G01X2613Y1D03*
G01X2621Y2423D03*
G01X2621Y2518D03*
G01X2621Y2613D03*
G01X2621Y2708D03*
G01X2670Y241D03*
G01X2670Y336D03*
G01X2670Y431D03*
G01X2670Y527D03*
G01X2789Y2423D03*
G01X2789Y2518D03*
G01X2789Y2613D03*
G01X2789Y2708D03*
G01X3530Y-234D03*
G01X3530Y-139D03*
G01X3530Y-44D03*
G01X3530Y52D03*
G01X3678Y-234D03*
G01X3678Y-139D03*
G01X3678Y-44D03*
G01X3678Y52D03*
G01X3721Y1893D03*
G01X3721Y1989D03*
G01X3721Y2084D03*
G01X3721Y2179D03*
G01X3725Y1197D03*
G01X3725Y1292D03*
G01X3725Y1388D03*
G01X3725Y1483D03*
G01X3846Y-234D03*
G01X3846Y-139D03*
G01X3846Y-44D03*
G01X3846Y52D03*
G01X3869Y1893D03*
G01X3869Y1989D03*
G01X3869Y2084D03*
G01X3869Y2179D03*
G01X3872Y1197D03*
G01X3872Y1292D03*
G01X3872Y1388D03*
G01X3872Y1483D03*
G01X4037Y1893D03*
G01X4037Y1989D03*
G01X4037Y2084D03*
G01X4037Y2179D03*
G01X4685Y1989D03*
G01X4685Y2084D03*
G01X4685Y2180D03*
G01X4685Y2275D03*
G01X4769Y2529D03*
G01X4769Y2624D03*
G01X4769Y2719D03*
G01X4769Y2815D03*
G01X4795Y-340D03*
G01X4795Y-245D03*
G01X4795Y-149D03*
G01X4795Y-54D03*
G01X4833Y1989D03*
G01X4833Y2084D03*
G01X4833Y2180D03*
G01X4833Y2275D03*
G01X4906Y1113D03*
G01X4906Y1208D03*
G01X4906Y1303D03*
G01X4906Y1399D03*
G01X4917Y2529D03*
G01X4917Y2624D03*
G01X4917Y2719D03*
G01X4917Y2815D03*
G01X4943Y-340D03*
G01X4943Y-245D03*
G01X4943Y-149D03*
G01X4943Y-54D03*
G01X5001Y1989D03*
G01X5001Y2084D03*
G01X5001Y2180D03*
G01X5001Y2275D03*
G01X5086Y2529D03*
G01X5086Y2624D03*
G01X5086Y2719D03*
G01X5086Y2815D03*
G01X5111Y320D03*
G01X5111Y416D03*
G01X5111Y511D03*
G01X5111Y606D03*
G01X5111Y-340D03*
G01X5111Y-245D03*
G01X5111Y-149D03*
G01X5111Y-54D03*
G01X5259Y320D03*
G01X5259Y416D03*
G01X5259Y511D03*
G01X5259Y606D03*
G01X5427Y320D03*
G01X5427Y416D03*
G01X5427Y511D03*
G01X5427Y606D03*
G01X5684Y-396D03*
G01X5684Y-301D03*
G01X5684Y-206D03*
G01X5684Y-110D03*
G01X5719Y2514D03*
G01X5719Y2609D03*
G01X5719Y2704D03*
G01X5719Y2799D03*
G01X5832Y-396D03*
G01X5832Y-301D03*
G01X5832Y-206D03*
G01X5832Y-110D03*
G01X5866Y2514D03*
G01X5866Y2609D03*
G01X5866Y2704D03*
G01X5866Y2799D03*
G01X6000Y-396D03*
G01X6000Y-301D03*
G01X6000Y-206D03*
G01X6000Y-110D03*
G01X6035Y2514D03*
G01X6035Y2609D03*
G01X6035Y2704D03*
G01X6035Y2799D03*
G01X6386Y303D03*
G01X6386Y398D03*
G01X6386Y494D03*
G01X6386Y589D03*
G01X6442Y1855D03*
G01X6442Y1951D03*
G01X6442Y2046D03*
G01X6442Y2141D03*
G01X6534Y303D03*
G01X6534Y398D03*
G01X6534Y494D03*
G01X6534Y589D03*
G01X6590Y1855D03*
G01X6590Y1951D03*
G01X6590Y2046D03*
G01X6590Y2141D03*
G01X6680Y-364D03*
G01X6680Y-269D03*
G01X6680Y-173D03*
G01X6680Y-78D03*
G01X6702Y303D03*
G01X6702Y398D03*
G01X6702Y494D03*
G01X6702Y589D03*
G01X6758Y1855D03*
G01X6758Y1951D03*
G01X6758Y2046D03*
G01X6758Y2141D03*
G01X6783Y2491D03*
G01X6783Y2586D03*
G01X6783Y2681D03*
G01X6783Y2776D03*
G01X6828Y-364D03*
G01X6828Y-269D03*
G01X6828Y-173D03*
G01X6828Y-78D03*
G01X6931Y2491D03*
G01X6931Y2586D03*
G01X6931Y2681D03*
G01X6931Y2776D03*
G01X6996Y-364D03*
G01X6996Y-269D03*
G01X6996Y-173D03*
G01X6996Y-78D03*
G01X7099Y2491D03*
G01X7099Y2586D03*
G01X7099Y2681D03*
G01X7099Y2776D03*
G01X7212Y-356D03*
G01X7212Y-261D03*
G01X7212Y-166D03*
G01X7212Y-71D03*
G01X7304Y327D03*
G01X7304Y422D03*
G01X7304Y518D03*
G01X7304Y613D03*
G01X7360Y-356D03*
G01X7360Y-261D03*
G01X7360Y-166D03*
G01X7360Y-71D03*
G01X7452Y327D03*
G01X7452Y422D03*
G01X7452Y518D03*
G01X7452Y613D03*
G01X7528Y-356D03*
G01X7528Y-261D03*
G01X7528Y-166D03*
G01X7528Y-71D03*
G01X7620Y327D03*
G01X7620Y422D03*
G01X7620Y518D03*
G01X7620Y613D03*
G01X7671Y2483D03*
G01X7671Y2578D03*
G01X7671Y2673D03*
G01X7671Y2769D03*
G01X7702Y-345D03*
G01X7702Y-250D03*
G01X7702Y-155D03*
G01X7702Y-59D03*
G01X7819Y2483D03*
G01X7819Y2578D03*
G01X7819Y2673D03*
G01X7819Y2769D03*
G01X7850Y-345D03*
G01X7850Y-250D03*
G01X7850Y-155D03*
G01X7850Y-59D03*
G01X7981Y1867D03*
G01X7981Y1962D03*
G01X7981Y2057D03*
G01X7981Y2152D03*
G01X7987Y2483D03*
G01X7987Y2578D03*
G01X7987Y2673D03*
G01X7987Y2769D03*
G01X7993Y801D03*
G01X7993Y896D03*
G01X7993Y991D03*
G01X7993Y1087D03*
G01X8018Y-345D03*
G01X8018Y-250D03*
G01X8018Y-155D03*
G01X8018Y-59D03*
G01X8129Y1867D03*
G01X8129Y1962D03*
G01X8129Y2057D03*
G01X8129Y2152D03*
G01X8141Y801D03*
G01X8141Y896D03*
G01X8141Y991D03*
G01X8141Y1087D03*
G01X8297Y1867D03*
G01X8297Y1962D03*
G01X8297Y2057D03*
G01X8297Y2152D03*
G01X8309Y801D03*
G01X8309Y896D03*
G01X8309Y991D03*
G01X8309Y1087D03*
G01X8957Y1974D03*
G01X8957Y2069D03*
G01X8957Y2164D03*
G01X8957Y2259D03*
G01X9105Y1974D03*
G01X9105Y2069D03*
G01X9105Y2164D03*
G01X9105Y2259D03*
G01X9199Y1352D03*
G01X9199Y1447D03*
G01X9199Y1542D03*
G01X9199Y1638D03*
G01X9273Y1974D03*
G01X9273Y2069D03*
G01X9273Y2164D03*
G01X9273Y2259D03*
G01X9347Y1352D03*
G01X9347Y1447D03*
G01X9347Y1542D03*
G01X9347Y1638D03*
G01X9362Y818D03*
G01X9362Y913D03*
G01X9362Y1008D03*
G01X9362Y1104D03*
G01X9510Y818D03*
G01X9510Y913D03*
G01X9510Y1008D03*
G01X9510Y1104D03*
G01X9515Y1352D03*
G01X9515Y1447D03*
G01X9515Y1542D03*
G01X9515Y1638D03*
G01X9678Y818D03*
G01X9678Y913D03*
G01X9678Y1008D03*
G01X9678Y1104D03*
G04 Drill Drawing End*

M02*

