G04 Layer: TopLayer*
G04 EasyEDA Pro v2.2.32.3, 2025-07-30 17:15:16*
G04 Gerber Generator version 0.3*
G04 Scale: 100 percent, Rotated: No, Reflected: No*
G04 Dimensions in millimeters*
G04 Leading zeros omitted, absolute positions, 4 integers and 2 decimals*
%FSLAX42Y42*%
%MOMM*%
%ADD10C,0.2*%
%ADD11R,0.89X0.89*%
%ADD12R,2.5X1.1*%
%ADD13C,3.5*%
%ADD14C,1.6*%
%ADD15C,1.4004*%
%ADD16C,1.4*%
%ADD17R,1.4X1.4*%
%ADD18C,1.5*%
%ADD19R,1.5X1.5*%
%ADD20R,1.5X1.5*%
%ADD21R,1.6X2.0*%
%ADD22O,1.6X2.0*%
%ADD23R,1.1X1.0*%
%ADD24O,1.4X2.4*%
%ADD25C,1.9*%
%ADD26C,1.7*%
%ADD27C,3.2*%
%ADD28C,0.6*%
%ADD29C,0.8*%
%ADD30C,0.4*%
G75*


G04 Copper Start*
G36*
G01X-464Y212D02*
G01X-464Y2288D01*
G03X361Y2139I464J212D01*
G03X212Y2964I-361J361D01*
G01X9788Y2964D01*
G03X9639Y2139I212J-464D01*
G03X10464Y2288I361J361D01*
G01X10464Y212D01*
G03X9639Y361I-464J-212D01*
G03X9788Y-464I361J-361D01*
G01X212Y-464D01*
G03X361Y361I-212J464D01*
G03X-464Y212I-361J-361D01*
G37*
%LPC*%
G36*
G01X1088Y1008D02*
G03X1072Y968I39J-39D01*
G01X1072Y825D01*
G03X1088Y785I56J0D01*
G01X1138Y735D01*
G03X1292Y595I111J-32D01*
G03X1308Y803I-43J108D01*
G03X1365Y904I-58J100D01*
G03X1305Y1004I-116J-1D01*
G01X1305Y1656D01*
G01X1465Y1816D01*
G03X1615Y1970I36J115D01*
G03X1401Y1999I-114J-40D01*
G03X1218Y2019I-100J-68D01*
G03X1228Y1835I83J-88D01*
G01X1148Y1756D01*
G03X1132Y1716I39J-39D01*
G01X1132Y1051D01*
G01X1088Y1008D01*
G37*
G36*
G01X1520Y1017D02*
G03X1417Y821I-21J-114D01*
G03X1613Y924I82J82D01*
G01X1797Y1108D01*
G03X1816Y1154I-47J47D01*
G01X1816Y1550D01*
G03X1831Y1578I-21J29D01*
G01X1831Y1667D01*
G03X1817Y1695I-36J0D01*
G01X1817Y1829D01*
G03X1751Y2052I-66J101D01*
G03X1686Y1829I0J-121D01*
G01X1686Y1697D01*
G03X1670Y1667I20J-30D01*
G01X1670Y1578D01*
G03X1684Y1550I36J0D01*
G01X1684Y1181D01*
G01X1520Y1017D01*
G37*
G36*
G01X3194Y406D02*
G03X3372Y308I103J-24D01*
G03X3273Y485I-75J75D01*
G01X3221Y537D01*
G01X3221Y562D01*
G03X3402Y636I75J74D01*
G03X3221Y711I-106J0D01*
G01X3221Y2218D01*
G01X3291Y2288D01*
G03X3388Y2314I24J103D01*
G01X3388Y851D01*
G03X3404Y812I56J0D01*
G01X3492Y724D01*
G03X3464Y576I59J-88D01*
G03X3612Y550I87J60D01*
G01X3612Y522D01*
G01X3575Y485D01*
G03X3476Y308I-24J-103D01*
G03X3654Y406I75J75D01*
G01X3707Y460D01*
G03X3723Y499I-39J39D01*
G01X3723Y797D01*
G03X3707Y837I-56J0D01*
G01X3625Y918D01*
G01X3625Y2301D01*
G03X3654Y2454I-56J90D01*
G03X3500Y2470I-85J-63D01*
G01X3500Y2496D01*
G01X3545Y2542D01*
G03X3644Y2720I24J103D01*
G03X3466Y2621I-75J-75D01*
G01X3404Y2559D01*
G03X3388Y2519I39J-39D01*
G01X3388Y2468D01*
G03X3212Y2367I-72J-77D01*
G01X3126Y2281D01*
G03X3110Y2241I39J-39D01*
G01X3110Y513D01*
G03X3126Y474I56J0D01*
G01X3194Y406D01*
G37*
G36*
G01X3421Y2645D02*
G03X3210Y2645I-106J0D01*
G03X3421Y2645I106J0D01*
G37*
G36*
G01X3983Y742D02*
G03X3953Y706I6J-35D01*
G01X3953Y566D01*
G03X3983Y531I36J0D01*
G01X3983Y456D01*
G03X4059Y277I76J-74D01*
G03X4134Y456I0J106D01*
G01X4134Y531D01*
G03X4164Y566I-6J35D01*
G01X4164Y706D01*
G03X4134Y742I-36J0D01*
G01X4134Y1327D01*
G01X4280Y1472D01*
G03X4302Y1526I-54J54D01*
G01X4302Y1570D01*
G01X4351Y1570D01*
G03X4387Y1606I0J36D01*
G01X4387Y1716D01*
G03X4351Y1751I-36J0D01*
G01X4302Y1751D01*
G01X4302Y2243D01*
G03X4280Y2296I-76J0D01*
G01X4183Y2392D01*
G03X4153Y2465I-106J-1D01*
G01X4153Y2540D01*
G03X4183Y2575I-6J35D01*
G01X4183Y2715D01*
G03X4147Y2751I-36J0D01*
G01X4007Y2751D01*
G03X3972Y2715I0J-36D01*
G01X3972Y2575D01*
G03X4002Y2540I36J0D01*
G01X4002Y2465D01*
G03X4076Y2285I76J-74D01*
G01X4150Y2211D01*
G01X4150Y1751D01*
G01X4101Y1751D01*
G03X4065Y1716I0J-36D01*
G01X4065Y1606D01*
G03X4101Y1570I36J0D01*
G01X4150Y1570D01*
G01X4150Y1557D01*
G01X4005Y1412D01*
G03X3983Y1358I54J-54D01*
G01X3983Y742D01*
G37*
G36*
G01X5535Y2399D02*
G03X5500Y2363I0J-36D01*
G01X5500Y2213D01*
G03X5535Y2177I36J0D01*
G01X5685Y2177D01*
G03X5721Y2213I0J36D01*
G01X5721Y2363D01*
G03X5685Y2399I-36J0D01*
G01X5535Y2399D01*
G37*
G36*
G01X5568Y491D02*
G03X5548Y445I47J-47D01*
G01X5548Y137D01*
G03X5614Y-63I66J-89D01*
G03X5680Y137I0J111D01*
G01X5680Y417D01*
G01X6165Y902D01*
G03X6184Y949I-47J47D01*
G01X6184Y2199D01*
G03X6118Y2399I-66J89D01*
G03X6053Y2199I0J-111D01*
G01X6053Y976D01*
G01X5568Y491D01*
G37*
G36*
G01X6233Y-27D02*
G01X6233Y123D01*
G03X6197Y159I-36J0D01*
G01X6047Y159D01*
G03X6011Y123I0J-36D01*
G01X6011Y-27D01*
G03X6047Y-63I36J0D01*
G01X6197Y-63D01*
G03X6233Y-27I0J36D01*
G37*
G36*
G01X8525Y-85D02*
G03X8572Y-333I57J-118D01*
G03X8656Y-94I10J130D01*
G01X8656Y341D01*
G03X8681Y375I-11J34D01*
G01X8681Y475D01*
G03X8646Y511I-36J0D01*
G01X8536Y511D01*
G03X8500Y475I0J-36D01*
G01X8500Y375D01*
G03X8525Y341I36J0D01*
G01X8525Y-85D01*
G37*
G36*
G01X8587Y1487D02*
G03X8607Y1440I66J0D01*
G01X9076Y970D01*
G01X9076Y669D01*
G03X9051Y635I11J-34D01*
G01X9051Y535D01*
G03X9068Y505I36J0D01*
G01X9068Y505D01*
G03X9051Y475I20J-30D01*
G01X9051Y375D01*
G03X9076Y341I36J0D01*
G01X9076Y-125D01*
G03X9230Y-324I106J-77D01*
G03X9208Y-74I-47J122D01*
G01X9208Y341D01*
G03X9233Y375I-11J34D01*
G01X9233Y475D01*
G03X9217Y505I-36J0D01*
G03X9233Y535I-20J30D01*
G01X9233Y635D01*
G03X9208Y669I-36J0D01*
G01X9208Y997D01*
G03X9189Y1044I-66J0D01*
G01X8719Y1514D01*
G01X8719Y2484D01*
G01X8733Y2484D01*
G03X8769Y2519I0J36D01*
G01X8769Y2719D01*
G03X8733Y2755I-36J0D01*
G01X8573Y2755D01*
G03X8537Y2719I0J-36D01*
G01X8537Y2519D01*
G03X8573Y2484I36J0D01*
G01X8587Y2484D01*
G01X8587Y1487D01*
G37*
G36*
G01X8801Y-100D02*
G03X8901Y-332I82J-102D01*
G03X8932Y-81I-18J130D01*
G01X8932Y341D01*
G03X8957Y375I-11J34D01*
G01X8957Y475D01*
G03X8921Y511I-36J0D01*
G01X8811Y511D01*
G03X8776Y475I0J-36D01*
G01X8776Y375D01*
G03X8801Y341I36J0D01*
G01X8801Y-100D01*
G37*
%LPD*%
G54D10*
G01X-464Y212D02*
G01X-464Y2288D01*
G03X361Y2139I464J212D01*
G03X212Y2964I-361J361D01*
G01X9788Y2964D01*
G03X9639Y2139I212J-464D01*
G03X10464Y2288I361J361D01*
G01X10464Y212D01*
G03X9639Y361I-464J-212D01*
G03X9788Y-464I361J-361D01*
G01X212Y-464D01*
G03X361Y361I-212J464D01*
G03X-464Y212I-361J-361D01*
G01X1088Y1008D02*
G03X1072Y968I39J-39D01*
G01X1072Y825D01*
G03X1088Y785I56J0D01*
G01X1138Y735D01*
G03X1292Y595I111J-32D01*
G03X1308Y803I-43J108D01*
G03X1365Y904I-58J100D01*
G03X1305Y1004I-116J-1D01*
G01X1305Y1656D01*
G01X1465Y1816D01*
G03X1615Y1970I36J115D01*
G03X1401Y1999I-114J-40D01*
G03X1218Y2019I-100J-68D01*
G03X1228Y1835I83J-88D01*
G01X1148Y1756D01*
G03X1132Y1716I39J-39D01*
G01X1132Y1051D01*
G01X1088Y1008D01*
G01X1520Y1017D02*
G03X1417Y821I-21J-114D01*
G03X1613Y924I82J82D01*
G01X1797Y1108D01*
G03X1816Y1154I-47J47D01*
G01X1816Y1550D01*
G03X1831Y1578I-21J29D01*
G01X1831Y1667D01*
G03X1817Y1695I-36J0D01*
G01X1817Y1829D01*
G03X1751Y2052I-66J101D01*
G03X1686Y1829I0J-121D01*
G01X1686Y1697D01*
G03X1670Y1667I20J-30D01*
G01X1670Y1578D01*
G03X1684Y1550I36J0D01*
G01X1684Y1181D01*
G01X1520Y1017D01*
G01X3194Y406D02*
G03X3372Y308I103J-24D01*
G03X3273Y485I-75J75D01*
G01X3221Y537D01*
G01X3221Y562D01*
G03X3402Y636I75J74D01*
G03X3221Y711I-106J0D01*
G01X3221Y2218D01*
G01X3291Y2288D01*
G03X3388Y2314I24J103D01*
G01X3388Y851D01*
G03X3404Y812I56J0D01*
G01X3492Y724D01*
G03X3464Y576I59J-88D01*
G03X3612Y550I87J60D01*
G01X3612Y522D01*
G01X3575Y485D01*
G03X3476Y308I-24J-103D01*
G03X3654Y406I75J75D01*
G01X3707Y460D01*
G03X3723Y499I-39J39D01*
G01X3723Y797D01*
G03X3707Y837I-56J0D01*
G01X3625Y918D01*
G01X3625Y2301D01*
G03X3654Y2454I-56J90D01*
G03X3500Y2470I-85J-63D01*
G01X3500Y2496D01*
G01X3545Y2542D01*
G03X3644Y2720I24J103D01*
G03X3466Y2621I-75J-75D01*
G01X3404Y2559D01*
G03X3388Y2519I39J-39D01*
G01X3388Y2468D01*
G03X3212Y2367I-72J-77D01*
G01X3126Y2281D01*
G03X3110Y2241I39J-39D01*
G01X3110Y513D01*
G03X3126Y474I56J0D01*
G01X3194Y406D01*
G01X3421Y2645D02*
G03X3210Y2645I-106J0D01*
G03X3421Y2645I106J0D01*
G01X3983Y742D02*
G03X3953Y706I6J-35D01*
G01X3953Y566D01*
G03X3983Y531I36J0D01*
G01X3983Y456D01*
G03X4059Y277I76J-74D01*
G03X4134Y456I0J106D01*
G01X4134Y531D01*
G03X4164Y566I-6J35D01*
G01X4164Y706D01*
G03X4134Y742I-36J0D01*
G01X4134Y1327D01*
G01X4280Y1472D01*
G03X4302Y1526I-54J54D01*
G01X4302Y1570D01*
G01X4351Y1570D01*
G03X4387Y1606I0J36D01*
G01X4387Y1716D01*
G03X4351Y1751I-36J0D01*
G01X4302Y1751D01*
G01X4302Y2243D01*
G03X4280Y2296I-76J0D01*
G01X4183Y2392D01*
G03X4153Y2465I-106J-1D01*
G01X4153Y2540D01*
G03X4183Y2575I-6J35D01*
G01X4183Y2715D01*
G03X4147Y2751I-36J0D01*
G01X4007Y2751D01*
G03X3972Y2715I0J-36D01*
G01X3972Y2575D01*
G03X4002Y2540I36J0D01*
G01X4002Y2465D01*
G03X4076Y2285I76J-74D01*
G01X4150Y2211D01*
G01X4150Y1751D01*
G01X4101Y1751D01*
G03X4065Y1716I0J-36D01*
G01X4065Y1606D01*
G03X4101Y1570I36J0D01*
G01X4150Y1570D01*
G01X4150Y1557D01*
G01X4005Y1412D01*
G03X3983Y1358I54J-54D01*
G01X3983Y742D01*
G01X5535Y2399D02*
G03X5500Y2363I0J-36D01*
G01X5500Y2213D01*
G03X5535Y2177I36J0D01*
G01X5685Y2177D01*
G03X5721Y2213I0J36D01*
G01X5721Y2363D01*
G03X5685Y2399I-36J0D01*
G01X5535Y2399D01*
G01X5568Y491D02*
G03X5548Y445I47J-47D01*
G01X5548Y137D01*
G03X5614Y-63I66J-89D01*
G03X5680Y137I0J111D01*
G01X5680Y417D01*
G01X6165Y902D01*
G03X6184Y949I-47J47D01*
G01X6184Y2199D01*
G03X6118Y2399I-66J89D01*
G03X6053Y2199I0J-111D01*
G01X6053Y976D01*
G01X5568Y491D01*
G01X6233Y-27D02*
G01X6233Y123D01*
G03X6197Y159I-36J0D01*
G01X6047Y159D01*
G03X6011Y123I0J-36D01*
G01X6011Y-27D01*
G03X6047Y-63I36J0D01*
G01X6197Y-63D01*
G03X6233Y-27I0J36D01*
G01X8525Y-85D02*
G03X8572Y-333I57J-118D01*
G03X8656Y-94I10J130D01*
G01X8656Y341D01*
G03X8681Y375I-11J34D01*
G01X8681Y475D01*
G03X8646Y511I-36J0D01*
G01X8536Y511D01*
G03X8500Y475I0J-36D01*
G01X8500Y375D01*
G03X8525Y341I36J0D01*
G01X8525Y-85D01*
G01X8587Y1487D02*
G03X8607Y1440I66J0D01*
G01X9076Y970D01*
G01X9076Y669D01*
G03X9051Y635I11J-34D01*
G01X9051Y535D01*
G03X9068Y505I36J0D01*
G01X9068Y505D01*
G03X9051Y475I20J-30D01*
G01X9051Y375D01*
G03X9076Y341I36J0D01*
G01X9076Y-125D01*
G03X9230Y-324I106J-77D01*
G03X9208Y-74I-47J122D01*
G01X9208Y341D01*
G03X9233Y375I-11J34D01*
G01X9233Y475D01*
G03X9217Y505I-36J0D01*
G03X9233Y535I-20J30D01*
G01X9233Y635D01*
G03X9208Y669I-36J0D01*
G01X9208Y997D01*
G03X9189Y1044I-66J0D01*
G01X8719Y1514D01*
G01X8719Y2484D01*
G01X8733Y2484D01*
G03X8769Y2519I0J36D01*
G01X8769Y2719D01*
G03X8733Y2755I-36J0D01*
G01X8573Y2755D01*
G03X8537Y2719I0J-36D01*
G01X8537Y2519D01*
G03X8573Y2484I36J0D01*
G01X8587Y2484D01*
G01X8587Y1487D01*
G01X8801Y-100D02*
G03X8901Y-332I82J-102D01*
G03X8932Y-81I-18J130D01*
G01X8932Y341D01*
G03X8957Y375I-11J34D01*
G01X8957Y475D01*
G03X8921Y511I-36J0D01*
G01X8811Y511D01*
G03X8776Y475I0J-36D01*
G01X8776Y375D01*
G03X8801Y341I36J0D01*
G01X8801Y-100D01*
G04 Copper End*

G04 Pad Start*
G54D11*
G01X1905Y1623D03*
G01X1750Y1623D03*
G54D12*
G01X4226Y1661D03*
G01X3796Y1661D03*
G54D13*
G01X1976Y432D03*
G01X772Y432D03*
G54D14*
G01X1499Y703D03*
G01X1249Y703D03*
G01X1249Y903D03*
G01X1499Y903D03*
G54D16*
G01X3315Y2645D03*
G01X3823Y2645D03*
G01X3823Y2391D03*
G01X3569Y2645D03*
G01X3315Y2391D03*
G01X3569Y2391D03*
G54D17*
G01X4077Y2645D03*
G54D16*
G01X4077Y2391D03*
G54D18*
G01X6118Y2288D03*
G01X5864Y2288D03*
G54D19*
G01X5610Y2288D03*
G54D18*
G01X5614Y48D03*
G01X5868Y48D03*
G54D20*
G01X6122Y48D03*
G54D21*
G01X8653Y2619D03*
G54D22*
G01X8907Y2619D03*
G54D23*
G01X9142Y585D03*
G01X9142Y425D03*
G01X8866Y585D03*
G01X8866Y425D03*
G01X8591Y585D03*
G01X8591Y425D03*
G54D24*
G01X8257Y-202D03*
G01X9507Y-202D03*
G54D25*
G01X8582Y-202D03*
G01X9182Y-202D03*
G01X8882Y-202D03*
G54D26*
G01X1051Y1931D03*
G01X1301Y1931D03*
G01X1501Y1931D03*
G01X1751Y1931D03*
G54D27*
G01X2056Y2202D03*
G01X742Y2202D03*
G54D16*
G01X3297Y636D03*
G01X3805Y636D03*
G01X3805Y382D03*
G01X3551Y636D03*
G01X3297Y382D03*
G01X3551Y382D03*
G54D17*
G01X4059Y636D03*
G54D16*
G01X4059Y382D03*
G04 Pad End*

G04 Via Start*
G54D28*
G01X8018Y-59D03*
G01X8018Y-250D03*
G01X8018Y-345D03*
G01X8018Y-155D03*
G01X7702Y-155D03*
G01X7702Y-250D03*
G01X7702Y-345D03*
G01X7702Y-59D03*
G01X7850Y-345D03*
G01X7850Y-155D03*
G01X7850Y-59D03*
G01X7850Y-250D03*
G01X7528Y-71D03*
G01X7528Y-261D03*
G01X7528Y-356D03*
G01X7528Y-166D03*
G01X7212Y-166D03*
G01X7212Y-261D03*
G01X7212Y-356D03*
G01X7212Y-71D03*
G01X7360Y-356D03*
G01X7360Y-166D03*
G01X7360Y-71D03*
G01X7360Y-261D03*
G01X6996Y-78D03*
G01X6996Y-269D03*
G01X6996Y-364D03*
G01X6996Y-173D03*
G01X6680Y-173D03*
G01X6680Y-269D03*
G01X6680Y-364D03*
G01X6680Y-78D03*
G01X6828Y-364D03*
G01X6828Y-173D03*
G01X6828Y-78D03*
G01X6828Y-269D03*
G01X6000Y-110D03*
G01X6000Y-301D03*
G01X6000Y-396D03*
G01X6000Y-206D03*
G01X5684Y-206D03*
G01X5684Y-301D03*
G01X5684Y-396D03*
G01X5684Y-110D03*
G01X5832Y-396D03*
G01X5832Y-206D03*
G01X5832Y-110D03*
G01X5832Y-301D03*
G01X5427Y606D03*
G01X5427Y416D03*
G01X5427Y320D03*
G01X5427Y511D03*
G01X5111Y511D03*
G01X5111Y416D03*
G01X5111Y320D03*
G01X5111Y606D03*
G01X5259Y320D03*
G01X5259Y511D03*
G01X5259Y606D03*
G01X5259Y416D03*
G01X6702Y589D03*
G01X6702Y398D03*
G01X6702Y303D03*
G01X6702Y494D03*
G01X6386Y494D03*
G01X6386Y398D03*
G01X6386Y303D03*
G01X6386Y589D03*
G01X6534Y303D03*
G01X6534Y494D03*
G01X6534Y589D03*
G01X6534Y398D03*
G01X5111Y-54D03*
G01X5111Y-245D03*
G01X5111Y-340D03*
G01X5111Y-149D03*
G01X4795Y-149D03*
G01X4795Y-245D03*
G01X4795Y-340D03*
G01X4795Y-54D03*
G01X4943Y-340D03*
G01X4943Y-149D03*
G01X4943Y-54D03*
G01X4943Y-245D03*
G01X5086Y2815D03*
G01X5086Y2624D03*
G01X5086Y2529D03*
G01X5086Y2719D03*
G01X4769Y2719D03*
G01X4769Y2624D03*
G01X4769Y2529D03*
G01X4769Y2815D03*
G01X4917Y2529D03*
G01X4917Y2719D03*
G01X4917Y2815D03*
G01X4917Y2624D03*
G01X7099Y2776D03*
G01X7099Y2586D03*
G01X7099Y2491D03*
G01X7099Y2681D03*
G01X6783Y2681D03*
G01X6783Y2586D03*
G01X6783Y2491D03*
G01X6783Y2776D03*
G01X6931Y2491D03*
G01X6931Y2681D03*
G01X6931Y2776D03*
G01X6931Y2586D03*
G01X7987Y2769D03*
G01X7987Y2578D03*
G01X7987Y2483D03*
G01X7987Y2673D03*
G01X7671Y2673D03*
G01X7671Y2578D03*
G01X7671Y2483D03*
G01X7671Y2769D03*
G01X7819Y2483D03*
G01X7819Y2673D03*
G01X7819Y2769D03*
G01X7819Y2578D03*
G01X9273Y2259D03*
G01X9273Y2069D03*
G01X9273Y1974D03*
G01X9273Y2164D03*
G01X8957Y2164D03*
G01X8957Y2069D03*
G01X8957Y1974D03*
G01X8957Y2259D03*
G01X9105Y1974D03*
G01X9105Y2164D03*
G01X9105Y2259D03*
G01X9105Y2069D03*
G01X8297Y2152D03*
G01X8297Y1962D03*
G01X8297Y1867D03*
G01X8297Y2057D03*
G01X7981Y2057D03*
G01X7981Y1962D03*
G01X7981Y1867D03*
G01X7981Y2152D03*
G01X8129Y1867D03*
G01X8129Y2057D03*
G01X8129Y2152D03*
G01X8129Y1962D03*
G01X6758Y2141D03*
G01X6758Y1951D03*
G01X6758Y1855D03*
G01X6758Y2046D03*
G01X6442Y2046D03*
G01X6442Y1951D03*
G01X6442Y1855D03*
G01X6442Y2141D03*
G01X6590Y1855D03*
G01X6590Y2046D03*
G01X6590Y2141D03*
G01X6590Y1951D03*
G01X6035Y2799D03*
G01X6035Y2609D03*
G01X6035Y2514D03*
G01X6035Y2704D03*
G01X5719Y2704D03*
G01X5719Y2609D03*
G01X5719Y2514D03*
G01X5719Y2799D03*
G01X5866Y2514D03*
G01X5866Y2704D03*
G01X5866Y2799D03*
G01X5866Y2609D03*
G01X5001Y2275D03*
G01X5001Y2084D03*
G01X5001Y1989D03*
G01X5001Y2180D03*
G01X4685Y2180D03*
G01X4685Y2084D03*
G01X4685Y1989D03*
G01X4685Y2275D03*
G01X4833Y1989D03*
G01X4833Y2180D03*
G01X4833Y2275D03*
G01X4833Y2084D03*
G01X4906Y1399D03*
G01X4906Y1208D03*
G01X4906Y1113D03*
G01X4906Y1303D03*
G01X3725Y1388D03*
G01X3725Y1292D03*
G01X3725Y1197D03*
G01X3725Y1483D03*
G01X3872Y1197D03*
G01X3872Y1388D03*
G01X3872Y1483D03*
G01X3872Y1292D03*
G01X4037Y2179D03*
G01X4037Y1989D03*
G01X4037Y1893D03*
G01X4037Y2084D03*
G01X3721Y2084D03*
G01X3721Y1989D03*
G01X3721Y1893D03*
G01X3721Y2179D03*
G01X3869Y1893D03*
G01X3869Y2084D03*
G01X3869Y2179D03*
G01X3869Y1989D03*
G01X2602Y1946D03*
G01X2602Y1755D03*
G01X2602Y1660D03*
G01X2602Y1850D03*
G01X2285Y1850D03*
G01X2285Y1755D03*
G01X2285Y1660D03*
G01X2285Y1946D03*
G01X2433Y1660D03*
G01X2433Y1850D03*
G01X2433Y1946D03*
G01X2433Y1755D03*
G01X2560Y1341D03*
G01X2560Y1151D03*
G01X2560Y1055D03*
G01X2560Y1246D03*
G01X2243Y1246D03*
G01X2243Y1151D03*
G01X2243Y1055D03*
G01X2243Y1341D03*
G01X2391Y1055D03*
G01X2391Y1246D03*
G01X2391Y1341D03*
G01X2391Y1151D03*
G01X2670Y527D03*
G01X2670Y336D03*
G01X2670Y241D03*
G01X2670Y431D03*
G01X2354Y431D03*
G01X2354Y336D03*
G01X2354Y241D03*
G01X2354Y527D03*
G01X2502Y241D03*
G01X2502Y431D03*
G01X2502Y527D03*
G01X2502Y336D03*
G01X2613Y1D03*
G01X2613Y-189D03*
G01X2613Y-284D03*
G01X2613Y-94D03*
G01X2297Y-94D03*
G01X2297Y-189D03*
G01X2297Y-284D03*
G01X2297Y1D03*
G01X2445Y-284D03*
G01X2445Y-94D03*
G01X2445Y1D03*
G01X2445Y-189D03*
G01X1534Y212D03*
G01X1534Y21D03*
G01X1534Y-74D03*
G01X1534Y117D03*
G01X1217Y117D03*
G01X1217Y21D03*
G01X1217Y-74D03*
G01X1217Y212D03*
G01X1365Y-74D03*
G01X1365Y117D03*
G01X1365Y212D03*
G01X1365Y21D03*
G01X868Y1050D03*
G01X868Y860D03*
G01X868Y764D03*
G01X868Y955D03*
G01X551Y955D03*
G01X551Y860D03*
G01X551Y764D03*
G01X551Y1050D03*
G01X699Y764D03*
G01X699Y955D03*
G01X699Y1050D03*
G01X699Y860D03*
G01X768Y1747D03*
G01X768Y1556D03*
G01X768Y1461D03*
G01X768Y1652D03*
G01X452Y1652D03*
G01X452Y1556D03*
G01X452Y1461D03*
G01X452Y1747D03*
G01X600Y1461D03*
G01X600Y1652D03*
G01X600Y1747D03*
G01X600Y1556D03*
G01X1549Y2789D03*
G01X1549Y2598D03*
G01X1549Y2503D03*
G01X1549Y2694D03*
G01X1233Y2694D03*
G01X1233Y2598D03*
G01X1233Y2503D03*
G01X1233Y2789D03*
G01X1381Y2503D03*
G01X1381Y2694D03*
G01X1381Y2789D03*
G01X1381Y2598D03*
G01X2789Y2708D03*
G01X2789Y2518D03*
G01X2789Y2423D03*
G01X2789Y2613D03*
G01X2473Y2613D03*
G01X2473Y2518D03*
G01X2473Y2423D03*
G01X2473Y2708D03*
G01X2621Y2423D03*
G01X2621Y2613D03*
G01X2621Y2708D03*
G01X2621Y2518D03*
G01X3846Y52D03*
G01X3846Y-139D03*
G01X3846Y-234D03*
G01X3846Y-44D03*
G01X3530Y-44D03*
G01X3530Y-139D03*
G01X3530Y-234D03*
G01X3530Y52D03*
G01X3678Y-234D03*
G01X3678Y-44D03*
G01X3678Y52D03*
G01X3678Y-139D03*
G01X7620Y613D03*
G01X7620Y422D03*
G01X7620Y327D03*
G01X7620Y518D03*
G01X7304Y518D03*
G01X7304Y422D03*
G01X7304Y327D03*
G01X7304Y613D03*
G01X7452Y327D03*
G01X7452Y518D03*
G01X7452Y613D03*
G01X7452Y422D03*
G01X8309Y1087D03*
G01X8309Y896D03*
G01X8309Y801D03*
G01X8309Y991D03*
G01X7993Y991D03*
G01X7993Y896D03*
G01X7993Y801D03*
G01X7993Y1087D03*
G01X8141Y801D03*
G01X8141Y991D03*
G01X8141Y1087D03*
G01X8141Y896D03*
G01X9515Y1638D03*
G01X9515Y1447D03*
G01X9515Y1352D03*
G01X9515Y1542D03*
G01X9199Y1542D03*
G01X9199Y1447D03*
G01X9199Y1352D03*
G01X9199Y1638D03*
G01X9347Y1352D03*
G01X9347Y1542D03*
G01X9347Y1638D03*
G01X9347Y1447D03*
G01X9678Y1104D03*
G01X9678Y913D03*
G01X9678Y818D03*
G01X9678Y1008D03*
G01X9362Y1008D03*
G01X9362Y913D03*
G01X9362Y818D03*
G01X9362Y1104D03*
G01X9510Y818D03*
G01X9510Y1008D03*
G01X9510Y1104D03*
G01X9510Y913D03*
G04 Via End*

G04 Track Start*
G01X8653Y2619D02*
G01X8653Y1487D01*
G01X9142Y997D02*
G01X9142Y585D01*
G01X8653Y1487D02*
G01X9142Y997D01*
G01X9142Y425D02*
G01X9142Y-162D01*
G01X9182Y-202D01*
G01X8866Y425D02*
G01X8866Y-186D01*
G01X8882Y-202D01*
G01X8591Y425D02*
G01X8591Y-194D01*
G01X8582Y-202D01*
G01X6118Y2288D02*
G01X6118Y949D01*
G01X5614Y445D02*
G01X5614Y48D01*
G01X6118Y949D02*
G01X5614Y445D01*
G54D29*
G01X4077Y2645D02*
G01X4077Y2391D01*
G01X4226Y2243D01*
G01X4226Y1661D01*
G01X4059Y382D02*
G01X4059Y636D01*
G01X4059Y1358D01*
G01X4226Y1526D01*
G01X4226Y1661D01*
G54D30*
G01X3569Y2391D02*
G01X3569Y895D01*
G01X3667Y797D01*
G01X3667Y499D01*
G01X3551Y382D01*
G01X3551Y636D02*
G01X3551Y744D01*
G01X3444Y2519D02*
G01X3569Y2645D01*
G01X3551Y744D02*
G01X3444Y851D01*
G01X3444Y2519D01*
G01X3315Y2391D02*
G01X3166Y2241D01*
G01X3166Y513D01*
G01X3297Y382D01*
G01X1501Y1931D02*
G01X1249Y1679D01*
G01X1249Y903D01*
G01X1301Y1931D02*
G01X1301Y1830D01*
G01X1128Y825D02*
G01X1249Y703D01*
G01X1301Y1830D02*
G01X1188Y1716D01*
G01X1188Y1028D02*
G01X1188Y1716D01*
G01X1188Y1028D02*
G01X1128Y968D01*
G01X1128Y825D01*
G54D28*
G01X1499Y903D02*
G01X1750Y1154D01*
G01X1750Y1623D01*
G01X1751Y1624D01*
G01X1751Y1931D01*
G04 Track End*

M02*

