;TYPE=PLATED
;Layer: PTH_Through_Via
;EasyEDA Pro Client v2.2.32.3, 2026-04-03 18:11:16
;Gerber Generator version 0.3
M48
METRIC,LZ,000.00000
;Hole size 1 = 0.24999 METRIC
T01C0.24999
;Hole size 2 = 0.30000 METRIC
T02C0.30000
%
G05
G90
T01
X54.38335Y61.98765
X54.38335Y60.58761
X55.7834Y60.58761
X55.7834Y61.98765
X55.08337Y62.68768
X55.08337Y61.28763
X55.08337Y59.88758
X52.9833Y60.58761
X52.9833Y61.98765
X53.68332Y62.68768
X53.68332Y61.28763
X53.68332Y59.88758
T02
X69.8709Y54.68769
X64.51583Y48.24662
X62.88381Y54.0607
X62.37381Y53.34669
X66.50486Y63.13882
X67.37187Y69.5649
X65.94385Y61.95571
X67.42287Y70.68691
X69.05489Y64.26083
X62.27181Y57.78375
X67.88188Y65.58685
X60.69079Y57.01874
X41.36154Y49.36864
X48.75663Y58.44676
X32.89543Y59.05876
X33.76244Y59.67077
X48.96063Y59.36477
X48.34863Y62.8177
X40.44352Y60.94579
X37.28148Y57.63075
X28.91737Y50.38865
X26.97935Y37.43448
X42.68755Y37.48549
X50.94966Y60.23178
X54.1627Y37.33248
X57.78375Y22.9503
X59.46677Y22.9503
X56.96774Y25.19433
X56.10073Y25.34733
X55.26503Y25.64048
X54.77471Y26.36734
X54.57071Y27.08135
X55.43772Y26.87735
X61.14979Y20.80827
X61.20079Y25.34733
X66.09686Y23.5623
X75.48098Y29.12138
X76.39899Y30.03939
X59.82377Y50.18465
X40.95353Y45.59459
X51.30666Y47.53262
X46.4616Y47.53262
X42.43255Y45.03358
X45.28859Y58.44676
X50.84766Y57.12074
X59.21177Y57.12074
X61.4558Y62.37381
X65.89285Y60.94579
X29.13174Y43.292
X29.12138Y42.17755
X25.80633Y42.53455
X26.62234Y43.19756
X25.65333Y43.55456
X25.70433Y41.31053
X29.12138Y41.05553
X26.87735Y42.22855
X26.52034Y41.15753
X26.46934Y35.75146
X106.15412Y49.57772
X106.15412Y50.72955
X106.15412Y51.78034
X107.31256Y49.57772
X107.31256Y50.72955
X107.31256Y51.78034
X116.45625Y56.61581
X116.45625Y57.76764
X116.45625Y58.81843
X117.61469Y56.61581
X117.61469Y57.76764
X117.61469Y58.81843
X118.46946Y54.28645
X117.31763Y54.28645
X116.26684Y54.28645
X118.46946Y55.44489
X117.31763Y55.44489
X116.26684Y55.44489
X117.36947Y48.43199
X117.36947Y49.58382
X117.36947Y50.63461
X118.52791Y48.43199
X118.52791Y49.58382
X118.52791Y50.63461
X117.36947Y45.06752
X117.36947Y46.21935
X117.36947Y47.27014
X118.52791Y45.06752
X118.52791Y46.21935
X118.52791Y47.27014
X117.36947Y41.96437
X117.36947Y43.1162
X117.36947Y44.16699
X118.52791Y41.96437
X118.52791Y43.1162
X118.52791Y44.16699
X117.36947Y38.59989
X117.36947Y39.75172
X117.36947Y40.80251
X118.52791Y38.59989
X118.52791Y39.75172
X118.52791Y40.80251
X113.17284Y49.91101
X113.17284Y51.06284
X113.17284Y52.11363
X113.17284Y47.69837
X113.17284Y48.74916
X111.64282Y35.01881
X111.64282Y36.17064
X111.64282Y37.22143
X111.64282Y32.80617
X111.64282Y33.85696
X110.49598Y34.82195
X110.49598Y35.97378
X110.49598Y37.02457
X110.49598Y32.60931
X110.49598Y33.6601
X109.14379Y32.97879
X109.14379Y34.13062
X109.14379Y35.18141
X109.14379Y30.76615
X109.14379Y31.81694
X108.02178Y32.62178
X108.02178Y33.77361
X108.02178Y34.8244
X108.02178Y30.40914
X108.02178Y31.45993
X107.61377Y27.26671
X107.61377Y28.41854
X107.61377Y29.46933
X107.61377Y25.05407
X107.61377Y26.10486
X104.21299Y25.40071
X103.06116Y25.40071
X102.01037Y25.40071
X106.42563Y25.40071
X105.37484Y25.40071
X100.57568Y28.38873
X100.57568Y29.54056
X100.57568Y30.59135
X100.57568Y26.17609
X100.57568Y27.22688
X98.99466Y32.00978
X98.99466Y33.16161
X98.99466Y34.2124
X98.99466Y29.79713
X98.99466Y30.84792
X96.85263Y32.77479
X96.85263Y33.92661
X96.85263Y34.97741
X96.85263Y30.56214
X96.85263Y31.61293
X34.47883Y40.93489
X34.47883Y42.08672
X34.47883Y43.13751
X34.47883Y38.72225
X34.47883Y39.77304
X33.40781Y40.73089
X33.40781Y41.88272
X33.40781Y42.93351
X33.40781Y38.51825
X33.40781Y39.56904
X31.97979Y40.83289
X31.97979Y41.98472
X31.97979Y43.03551
X31.97979Y38.62025
X31.97979Y39.67104
X47.46983Y42.61791
X47.46983Y43.76974
X47.46983Y44.82053
X48.55501Y43.76974
X48.55501Y44.82053
X51.1723Y64.97722
X50.02047Y64.97722
X48.96968Y64.97722
X53.38494Y64.97722
X52.33415Y64.97722
X92.63584Y32.1838
X91.48401Y32.1838
X90.43322Y32.1838
X94.84848Y32.1838
X93.79769Y32.1838
X60.25042Y64.51821
X59.09859Y64.51821
X58.0478Y64.51821
X62.46306Y64.51821
X61.41227Y64.51821
X57.75139Y65.38523
X56.59956Y65.38523
X55.54877Y65.38523
X59.96403Y65.38523
X58.91324Y65.38523
X50.66229Y66.25224
X49.51046Y66.25224
X48.45967Y66.25224
X52.87494Y66.25224
X51.82415Y66.25224
X60.45442Y66.40524
X59.30259Y66.40524
X58.2518Y66.40524
X62.66706Y66.40524
X61.61627Y66.40524
X55.71136Y66.35424
X54.55953Y66.35424
X54.32475Y65.48723
X49.9679Y63.90621
X56.87321Y66.35424
X42.60419Y70.17929
X44.25582Y66.71124
X44.02104Y67.88426
X43.08281Y68.85327
X39.88999Y68.03726
X43.03181Y67.78226
X22.23867Y35.52882
X22.23867Y36.68065
X22.23867Y37.73144
X22.23867Y33.31618
X22.23867Y34.36697
X37.71236Y70.84177
X36.56053Y70.84177
X35.50974Y70.84177
X39.925Y70.84177
X38.87421Y70.84177
X18.58711Y67.52672
X17.43528Y67.52672
X16.38449Y67.52672
X20.79975Y67.52672
X19.74896Y67.52672
X28.43024Y71.96378
X27.27841Y71.96378
X26.22762Y71.96378
X30.64288Y71.96378
X29.59209Y71.96378
X20.93314Y70.22976
X19.78131Y70.22976
X18.73052Y70.22976
X23.14578Y70.22976
X22.09499Y70.22976
X14.45606Y69.00574
X13.30423Y69.00574
X12.25344Y69.00574
X16.6687Y69.00574
X15.61791Y69.00574
X23.46268Y22.62565
X23.46268Y23.77748
X23.46268Y24.82827
X23.46268Y20.41301
X23.46268Y21.4638
X26.01272Y22.52365
X26.01272Y23.67548
X26.01272Y24.72627
X26.01272Y20.31101
X26.01272Y21.3618
X28.25675Y22.42165
X28.25675Y23.57348
X28.25675Y24.62427
X28.25675Y20.20901
X28.25675Y21.2598
X31.06178Y22.31965
X31.06178Y23.47148
X31.06178Y24.52227
X31.06178Y20.10701
X31.06178Y21.1578
X33.10181Y22.31965
X33.10181Y23.47148
X33.10181Y24.52227
X33.10181Y20.10701
X33.10181Y21.1578
X35.34584Y21.19764
X35.34584Y22.34947
X35.34584Y23.40026
X35.34584Y18.98499
X35.34584Y20.03578
X37.33486Y18.0866
X37.33486Y19.23842
X37.33486Y20.28922
X37.33486Y15.87395
X37.33486Y16.92474
X36.62245Y13.78088
X37.78089Y13.78088
X38.93933Y13.78088
X40.09778Y13.78088
X41.25622Y13.78088
X42.41466Y13.78088
X43.57311Y13.78088
X44.73155Y13.78088
X47.68959Y13.57688
X48.84803Y13.57688
X50.00648Y13.57688
X51.16492Y13.57688
X52.32336Y13.57688
X53.48181Y13.57688
X54.64025Y13.57688
X55.79869Y13.57688
X57.88972Y12.04686
X59.04816Y12.04686
X60.20661Y12.04686
X61.36505Y12.04686
X62.5235Y12.04686
X63.68194Y12.04686
X64.84038Y12.04686
X65.99883Y12.04686
X68.95686Y11.84286
X70.11531Y11.84286
X71.27375Y11.84286
X72.43219Y11.84286
X73.59064Y11.84286
X74.74908Y11.84286
X75.90753Y11.84286
X77.06597Y11.84286
X74.05693Y14.54589
X75.21537Y14.54589
X76.37382Y14.54589
X77.53226Y14.54589
X78.69071Y14.54589
X79.84915Y14.54589
X81.00759Y14.54589
X82.16604Y14.54589
X85.12407Y14.34189
X86.28252Y14.34189
X87.44096Y14.34189
X88.5994Y14.34189
X89.75785Y14.34189
X90.91629Y14.34189
X92.07474Y14.34189
X93.23318Y14.34189
X79.055Y18.77895
X80.21344Y18.77895
X81.37188Y18.77895
X82.53033Y18.77895
X83.68877Y18.77895
X84.84721Y18.77895
X86.00566Y18.77895
X87.1641Y18.77895
X90.12214Y18.57494
X91.28058Y18.57494
X92.43903Y18.57494
X93.59747Y18.57494
X94.75591Y18.57494
X95.91436Y18.57494
X97.0728Y18.57494
X98.23124Y18.57494
X81.65603Y23.98101
X82.81447Y23.98101
X83.97292Y23.98101
X85.13136Y23.98101
X86.2898Y23.98101
X87.44825Y23.98101
X88.60669Y23.98101
X89.76513Y23.98101
X92.72317Y23.77701
X93.88162Y23.77701
X95.04006Y23.77701
X96.1985Y23.77701
X97.35695Y23.77701
X98.51539Y23.77701
X99.67383Y23.77701
X100.83228Y23.77701
X98.33325Y21.83899
X99.49169Y21.83899
X100.65013Y21.83899
X101.80857Y21.83899
X102.96702Y21.83899
X104.12546Y21.83899
X105.28391Y21.83899
X106.44235Y21.83899
X109.40039Y21.63498
X110.55883Y21.63498
X111.71727Y21.63498
X112.87572Y21.63498
X114.03416Y21.63498
X115.19261Y21.63498
X116.35105Y21.63498
X117.50949Y21.63498
X72.62128Y64.60027
X71.24426Y63.81504
X72.40271Y62.76425
X72.40271Y63.81504
X76.06373Y62.00069
X76.06373Y63.05148
X77.22217Y62.00069
X77.22217Y63.05148
X59.7468Y53.04458
X60.71581Y53.07536
X49.4738Y50.57655
X49.4738Y51.62734
X50.63224Y50.57655
X50.63224Y51.62734
X45.2258Y44.61653
X46.31098Y44.61653
X43.69578Y43.74952
X44.78096Y43.74952
X43.47465Y42.93148
X44.55983Y42.93148
X43.10758Y42.22221
X44.19276Y42.22221
X42.93077Y41.19949
X44.01595Y41.19949
X42.74745Y40.28147
X43.83263Y40.28147
X45.51307Y48.69757
X46.59825Y48.69757
X41.65576Y47.01356
X42.74093Y47.01356
X34.51566Y50.0736
X35.60084Y50.0736
X31.65963Y48.79858
X32.7448Y48.79858
X34.48549Y46.90882
X34.48549Y47.994
X33.82249Y46.29682
X33.82249Y47.38199
X63.99405Y38.19045
X65.07922Y38.19045
X66.59508Y38.13945
X67.68026Y38.13945
X69.50212Y38.08845
X70.58729Y38.08845
X45.23997Y56.55068
X40.3439Y29.05174
X37.99787Y29.33656
X37.69187Y30.37775
X38.86488Y29.69356
X70.58729Y32.57078
X70.58729Y33.72261
X70.58729Y34.7734
X68.34326Y32.67278
X68.34326Y33.82461
X68.34326Y34.8754
X66.71124Y32.31578
X66.71124Y33.46761
X66.71124Y34.5184
X64.46721Y32.41778
X64.46721Y33.56961
X64.46721Y34.6204
X60.05662Y32.09873
X60.36263Y34.67858
X61.07663Y36.18838
X61.22964Y32.71074
X61.22964Y33.86257
X61.22964Y34.91336
X51.4783Y37.28386
X49.8149Y36.97786
X48.76411Y36.97786
X49.38752Y36.21082
X51.60016Y36.21082
X50.54937Y36.21082
X47.55125Y34.93783
X49.7639Y34.93783
X48.71311Y34.93783
X70.66386Y25.25701
X72.8765Y25.25701
X71.82571Y25.25701
X63.25946Y20.19864
X65.4721Y20.19864
X64.42131Y20.19864
X59.9582Y18.25287
X62.17084Y18.25287
X61.12005Y18.25287
X54.73183Y17.47954
X56.94448Y17.47954
X55.89369Y17.47954
X40.66616Y21.47366
X42.87881Y21.47366
X41.82802Y21.47366
X41.43117Y20.50465
X43.64382Y20.50465
X42.59303Y20.50465
X42.09418Y19.38263
X44.30683Y19.38263
X43.25603Y19.38263
X43.1142Y18.20962
X45.32684Y18.20962
X44.27605Y18.20962
X107.37503Y38.15087
X109.58767Y38.15087
X108.53688Y38.15087
X106.71202Y39.11989
X108.92466Y39.11989
X107.87387Y39.11989
X94.44047Y42.94494
X93.38968Y42.94494
X94.33847Y41.97592
X93.28768Y41.97592
X94.33847Y40.2929
X93.28768Y40.2929
X94.44047Y38.76288
X93.38968Y38.76288
X81.37155Y41.33603
X82.51907Y44.82958
X63.85283Y45.08458
X59.87477Y45.08458
X80.47904Y50.84766
X79.56103Y50.74566
X78.66852Y50.77116
X66.60686Y54.0607
X66.65786Y52.73468
X64.00583Y46.0026
X57.98775Y46.0026
X77.011Y50.79666
X76.44999Y52.02067
X77.266Y43.40156
X77.266Y34.62945
X75.2483Y43.14656
X75.2993Y35.49646
X90.67917Y37.84249
X89.40416Y37.79149
X87.26213Y37.53649
X91.24776Y49.57264
X90.06717Y51.05166
X83.33508Y49.57264
X73.84896Y49.52164
X84.24752Y46.6656
X76.65399Y44.26857
X59.97678Y43.96257
X75.93998Y43.65656
X60.63978Y43.35056
X78.08201Y45.95159
X79.45903Y44.88058
X73.79796Y51.00066
X72.47194Y52.12267
X70.17691Y55.89672
X68.64689Y61.09879
X74.51196Y45.79859
X73.44095Y45.74759
X73.28795Y55.38672
X35.33167Y50.83861
X29.17238Y44.93158
X29.17238Y45.79859
X29.17238Y46.92061
X28.30537Y49.41964
X71.85993Y55.89672
X84.45709Y50.38865
X27.38735Y47.63462
X75.22597Y51.20466
X69.2079Y45.64559
X73.95096Y44.98258
X67.77988Y45.59459
X68.03488Y47.83862
X69.6159Y48.39963
X66.24986Y45.59459
X66.91287Y47.94062
X58.13269Y44.88058
X56.95967Y44.82958
X57.56709Y61.88526
X57.46968Y60.74179
X58.8467Y61.25179
X58.48969Y62.32281
X79.80797Y54.67271
X80.82798Y53.65269
X81.74599Y52.73468
X87.96807Y54.3157
X87.15206Y54.92771
X86.43805Y55.89672
X85.52004Y56.71273
X94.34694Y48.15173
X93.68015Y49.01163
X92.91514Y50.23565
X89.14109Y45.90059
X88.58008Y44.82958
X87.81507Y43.70757
X87.25406Y42.84055
X72.28341Y58.40071
X73.29522Y59.67071
X73.41257Y57.07971
X74.97494Y21.78799
X74.00593Y20.92097
X73.03692Y19.84996
X72.0169Y18.62594
X70.69089Y17.35093
X58.89398Y40.99548
X60.06699Y40.79148
X9.23112Y56.71273
X9.28212Y55.59072
X32.84443Y63.13882
X41.46354Y55.02971
X18.10523Y59.61977
X22.9503Y57.83475
X25.95934Y59.82377
X18.46224Y61.20079
X53.49969Y44.72758
X40.03552Y52.68368
X42.48355Y64.0877
X40.49452Y64.05683
X28.10136Y68.13688
X28.56037Y66.45386
X28.56037Y64.41383
X10.55714Y58.29664
X10.55714Y53.49969
X18.46224Y43.96257
X16.06521Y43.96257
X20.65527Y48.09362
X20.65527Y47.12461
X52.65818Y44.85508
X14.68819Y23.3073
X51.89317Y45.16108
X20.19626Y26.41834
X19.32925Y23.5113
X19.22725Y21.98128
X23.4348Y27.25985
X19.32925Y27.18335
X17.74823Y27.18335
X26.77535Y33.91544
X38.5055Y35.49646
X8.77449Y22.53482
X8.77449Y21.48403
X8.77449Y23.69667
X8.77449Y24.8485
X8.77449Y25.89929
X6.37746Y22.73882
X6.37746Y21.68803
X6.37746Y23.90067
X6.37746Y25.0525
X6.37746Y26.10329
X5.51045Y28.9099
X5.51045Y27.85911
X5.51045Y30.07175
X5.51045Y31.22358
X5.51045Y32.27437
X6.42846Y35.89699
X6.42846Y34.8462
X6.42846Y37.05884
X6.42846Y38.21067
X6.42846Y39.26146
X6.37746Y43.44509
X6.37746Y42.3943
X6.37746Y44.60694
X6.37746Y45.75877
X6.37746Y46.80956
X4.66466Y21.92281
X4.66466Y20.87202
X4.66466Y23.08466
X4.66466Y24.23649
X4.66466Y25.28728
X5.10245Y15.39472
X5.10245Y14.34393
X5.10245Y16.55658
X5.10245Y17.70841
X5.10245Y18.7592
X7.75448Y15.80273
X7.75448Y14.75194
X7.75448Y16.96458
X7.75448Y18.11641
X7.75448Y19.1672
X11.57953Y31.96994
X11.57953Y30.91915
X11.57953Y33.13179
X11.57953Y34.28362
X11.57953Y35.33441
X14.02756Y34.31597
X14.02756Y33.26518
X14.02756Y35.47782
X14.02756Y36.62965
X14.02756Y37.68044
X15.60858Y32.78595
X15.60858Y31.73516
X15.60858Y33.9478
X15.60858Y35.09963
X15.60858Y36.15042
X19.43363Y37.07
X19.43363Y36.01921
X19.43363Y38.23186
X19.43363Y39.38369
X19.43363Y40.43448
X14.84357Y14.17071
X14.84357Y13.11992
X14.84357Y15.33256
X14.84357Y16.48439
X14.84357Y17.53518
X19.38263Y14.11971
X19.38263Y13.06892
X19.38263Y15.28156
X19.38263Y16.43339
X19.38263Y17.48418
X52.88768Y47.17561
X55.74372Y46.0026
X91.49518Y64.05683
X85.93611Y63.69982
X97.05426Y54.81275
X99.75729Y55.18271
X92.9232Y57.37574
X102.05232Y61.6598
X93.0762Y54.87671
X91.95419Y66.50486
X106.43838Y62.93481
X22.46204Y17.09989
X22.46204Y16.0491
X22.46204Y14.89727
X23.62048Y14.89727
X23.62048Y16.0491
X23.62048Y17.09989
X25.01207Y14.94827
X25.01207Y16.1001
X25.01207Y17.15089
X26.17051Y14.94827
X26.17051Y16.1001
X26.17051Y17.15089
X93.68821Y58.03875
X99.93579Y62.60331
X4.79644Y52.25704
X4.79644Y53.40887
X4.79644Y54.45966
X3.04095Y54.88283
X3.04095Y56.03466
X3.04095Y57.08545
X4.89844Y59.09113
X4.89844Y60.24296
X4.89844Y61.29375
X23.66669Y44.45394
X23.66669Y45.60577
X23.66669Y46.65656
X26.4458Y47.86088
X26.4458Y49.01271
X26.4458Y50.0635
X35.6171Y35.44784
X34.46527Y35.44784
X33.41448Y35.44784
X45.69897Y29.51074
X45.69897Y30.66257
X45.69897Y31.71336
X44.62796Y29.61274
X44.62796Y30.76457
X44.62796Y31.81536
X43.30194Y29.56174
X43.30194Y30.71357
X43.30194Y31.76436
X53.04307Y39.76188
X53.04307Y40.91371
X53.04307Y41.9645
X55.3381Y39.86388
X55.3381Y41.01571
X55.3381Y42.0665
X57.27612Y39.81288
X57.27612Y40.96471
X57.27612Y42.0155
X69.68554Y39.52789
X68.53371Y39.52789
X67.48292Y39.52789
X85.82843Y42.41391
X85.82843Y43.56574
X85.82843Y44.61653
X84.96948Y39.86388
X84.96948Y41.01571
X84.96948Y42.0665
X83.59246Y38.43586
X83.59246Y39.58769
X83.59246Y40.63848
X104.09473Y59.09113
X104.09473Y60.24296
X104.09473Y61.29375
X103.12571Y56.54109
X103.12571Y57.69292
X103.12571Y58.74371
X105.34476Y56.57412
X105.34476Y57.72595
X105.34476Y58.77674
X104.29873Y54.34807
X104.29873Y55.49989
X104.29873Y56.55068
X103.17672Y52.76704
X103.17672Y53.91887
X103.17672Y54.96966
X105.47174Y52.76704
X105.47174Y53.91887
X105.47174Y54.96966
X108.78679Y63.98719
X108.78679Y65.13902
X108.78679Y66.18981
X110.16381Y62.61017
X110.16381Y63.762
X110.16381Y64.81279
X111.54082Y61.79416
X111.54082Y62.94599
X111.54082Y63.99678
X115.62088Y59.70313
X115.62088Y60.85496
X115.62088Y61.90575
X112.95084Y61.47911
X112.95084Y62.63094
X112.95084Y63.68173
X105.69191Y71.56463
X106.85036Y71.56463
X103.37503Y71.56463
X104.53347Y71.56463
X99.82686Y71.46246
X100.9853Y71.46246
X97.50998Y71.46246
X98.66842Y71.46246
X102.68287Y72.43164
X103.84132Y72.43164
X100.36599Y72.43164
X101.52443Y72.43164
X83.81265Y71.19917
X84.9711Y71.19917
X81.49577Y71.19917
X82.65421Y71.19917
X89.1167Y71.25863
X90.27514Y71.25863
X86.79981Y71.25863
X87.95825Y71.25863
X86.92367Y72.53364
X88.08211Y72.53364
X84.60678Y72.53364
X85.76523Y72.53364
X73.8707Y62.6637
X75.02914Y62.6637
X78.73655Y68.78621
X79.89499Y68.78621
X79.17477Y67.81477
X80.33321Y67.81477
X79.48077Y66.79476
X80.63922Y66.79476
X79.93978Y65.87674
X81.09822Y65.87674
X92.33294Y68.52878
X93.49138Y68.52878
X93.04695Y67.66177
X94.20539Y67.66177
X94.93397Y68.52878
X96.09242Y68.52878
X95.45393Y67.26279
X96.61238Y67.26279
X95.59698Y66.23375
X96.75542Y66.23375
X95.49498Y65.00973
X96.65342Y65.00973
X95.44398Y63.88772
X96.60242Y63.88772
X85.65185Y57.81864
X86.8103Y57.81864
X86.77387Y56.84963
X87.93231Y56.84963
X99.98304Y52.66757
X101.14148Y52.66757
X98.35102Y48.74052
X99.50946Y48.74052
X98.12765Y39.00803
X98.12765Y37.95724
X98.12765Y42.3725
X98.12765Y41.32171
X98.12765Y40.16988
X98.17865Y44.3121
X98.17865Y43.26131
X98.17865Y47.67657
X98.17865Y46.62578
X98.17865Y45.47395
X55.49619Y50.59503
X56.54698Y50.59503
X52.13172Y50.59503
X53.18251Y50.59503
X54.33434Y50.59503
X53.66017Y52.73706
X54.71096Y52.73706
X50.2957Y52.73706
X51.34649Y52.73706
X52.49832Y52.73706
X55.26888Y51.58736
X56.31967Y51.58736
X51.90441Y51.58736
X52.9552Y51.58736
X54.10703Y51.58736
X28.92485Y53.40007
X29.97564Y53.40007
X25.56038Y53.40007
X26.61117Y53.40007
X27.763Y53.40007
X38.86998Y53.70607
X39.92077Y53.70607
X35.50551Y53.70607
X36.5563Y53.70607
X37.70813Y53.70607
X39.94069Y55.93162
X38.78225Y55.93162
X40.04269Y57.30863
X38.88425Y57.30863
X43.96974Y57.41063
X42.8113Y57.41063
X44.17374Y55.77861
X43.0153Y55.77861
X44.27575Y53.94259
X43.1173Y53.94259
X44.58175Y61.59269
X43.42331Y61.59269
X38.46167Y61.43969
X37.30323Y61.43969
X35.45263Y65.21374
X34.29419Y65.21374
X33.73437Y64.29412
X34.61595Y62.6111
X25.81351Y70.61981
X24.65506Y70.61981
X22.90647Y66.64175
X21.74803Y66.64175
X17.04139Y65.87674
X15.88295Y65.87674
X15.81738Y64.34672
X14.65893Y64.34672
X26.83352Y63.58171
X25.67508Y63.58171
X23.87045Y63.78572
X22.712Y63.78572
X29.38355Y56.49262
X28.22511Y56.49262
X13.67535Y54.35059
X12.51691Y54.35059
X14.13436Y52.92258
X12.97591Y52.92258
X13.72635Y48.94452
X12.56791Y48.94452
X13.31835Y47.66951
X12.1599Y47.66951
X12.91034Y45.68048
X11.7519Y45.68048
X14.95037Y42.21244
X13.79192Y42.21244
X16.88839Y39.1524
X15.72995Y39.1524
X8.77489Y40.27443
X7.61644Y40.27443
M30