G04 Layer: DrillDrawingLayer*
G04 EasyEDA Pro v2.2.32.3, 2026-04-03 18:11:15*
G04 Gerber Generator version 0.3*
G04 Scale: 100 percent, Rotated: No, Reflected: No*
G04 Dimensions in millimeters*
G04 Leading zeros omitted, absolute positions, 3 integers and 5 decimals*
%FSLAX35Y35*%
%MOMM*%
%AMIconRect*4,1,4,0.2,-0.2,-0.2,-0.2,-0.2,0.2,0.2,0.2,0.2,-0.2,0*4,0,4,0.166667,-0.166667,0.166667,0.166667,-0.166667,0.166667,-0.166667,-0.166667,0.166667,-0.166667,0*%
%AMIconTriangle*4,1,3,-0.242567,0.171767,0.242567,0.171767,0,-0.2706,-0.242567,0.171767,0*4,0,3,-0.189767,0.1386,0,-0.1953,0.190167,0.1386,-0.189767,0.1386,0*%
%AMIconStar6*4,1,12,0.0862,0.1492,0.213233,0.123367,0.172367,0,0.213233,-0.1229,0.0862,-0.148733,0,-0.245767,-0.085767,-0.148733,-0.213267,-0.1229,-0.171933,0,-0.213267,0.1229,-0.085767,0.1492,0,0.245767,0.0862,0.1492,0*4,0,12,-0.000333,0.195333,-0.064333,0.122667,-0.169667,0.097667,-0.138333,-0.005333,-0.169667,-0.098,-0.064333,-0.122667,-0.000333,-0.195667,0.064333,-0.122667,0.169667,-0.098,0.138667,0.005,0.169667,0.098,0.064333,0.122333,-0.000333,0.195333,0*%
%AMIconStar4*4,1,8,-0.222667,0.222667,0,0.144667,0.222667,0.222667,0.144667,0,0.222667,-0.222667,0,-0.144667,-0.217433,-0.222667,-0.144667,0,-0.222667,0.222667,0*4,0,8,0.166667,-0.166667,0.108,0,0.166667,0.166667,0,0.108,-0.166667,0.166667,-0.108,0,-0.166667,-0.166667,0,-0.108,0.166667,-0.166667,0*%
%AMIconPlus*4,1,12,0.124,-0.2,-0.124,-0.2,-0.124,-0.124,-0.2,-0.124,-0.2,0.124,-0.124,0.124,-0.124,0.2,0.124,0.2,0.124,0.124,0.2,0.124,0.2,-0.124,0.124,-0.124,0.124,-0.2,0*4,0,12,0.090667,-0.166667,0.090667,-0.090667,0.166667,-0.090667,0.166667,0.090667,0.090667,0.090667,0.090667,0.166667,-0.090667,0.166667,-0.090667,0.090667,-0.166667,0.090667,-0.166667,-0.090667,-0.090667,-0.090667,-0.090667,-0.166667,0.090667,-0.166667,0*%
%ADD10IconRect*%
%ADD11C,0.44X0.373333*%
%ADD12IconTriangle*%
%ADD13IconStar6*%
%ADD14IconStar4*%
%ADD15IconPlus*%
G75*


G04 Drill Drawing Start*
G54D10*
G01X298004Y5157174D03*
G01X298004Y6022171D03*
G54D11*
G01X718008Y5157164D03*
G01X718011Y6022166D03*
G54D12*
G01X11505759Y2964126D03*
G01X11505759Y3472126D03*
G54D13*
G01X7456296Y6473489D03*
G01X7456296Y6727489D03*
G01X7456296Y6981489D03*
G01X7456296Y7235489D03*
G54D14*
G01X5298330Y6058761D03*
G01X5298330Y6198765D03*
G01X5368332Y5988758D03*
G01X5368332Y6128763D03*
G01X5368332Y6268768D03*
G01X5438335Y6058761D03*
G01X5438335Y6198765D03*
G01X5508337Y5988758D03*
G01X5508337Y6128763D03*
G01X5508337Y6268768D03*
G01X5578340Y6058761D03*
G01X5578340Y6198765D03*
G54D15*
G01X304095Y5488283D03*
G01X304095Y5603466D03*
G01X304095Y5708545D03*
G01X466466Y2087202D03*
G01X466466Y2192281D03*
G01X466466Y2308466D03*
G01X466466Y2423649D03*
G01X466466Y2528728D03*
G01X479644Y5225704D03*
G01X479644Y5340887D03*
G01X479644Y5445966D03*
G01X489844Y5909113D03*
G01X489844Y6024296D03*
G01X489844Y6129375D03*
G01X510245Y1434393D03*
G01X510245Y1539472D03*
G01X510245Y1655658D03*
G01X510245Y1770841D03*
G01X510245Y1875920D03*
G01X551045Y2785911D03*
G01X551045Y2890990D03*
G01X551045Y3007175D03*
G01X551045Y3122358D03*
G01X551045Y3227437D03*
G01X637746Y2168803D03*
G01X637746Y2273882D03*
G01X637746Y2390067D03*
G01X637746Y2505250D03*
G01X637746Y2610329D03*
G01X637746Y4239430D03*
G01X637746Y4344509D03*
G01X637746Y4460694D03*
G01X637746Y4575877D03*
G01X637746Y4680956D03*
G01X642846Y3484620D03*
G01X642846Y3589699D03*
G01X642846Y3705884D03*
G01X642846Y3821067D03*
G01X642846Y3926146D03*
G01X761644Y4027443D03*
G01X775448Y1475194D03*
G01X775448Y1580273D03*
G01X775448Y1696458D03*
G01X775448Y1811641D03*
G01X775448Y1916720D03*
G01X877449Y2148403D03*
G01X877449Y2253482D03*
G01X877449Y2369667D03*
G01X877449Y2484850D03*
G01X877449Y2589929D03*
G01X877489Y4027443D03*
G01X923112Y5671273D03*
G01X928212Y5559072D03*
G01X1055714Y5349969D03*
G01X1055714Y5829664D03*
G01X1157953Y3091915D03*
G01X1157953Y3196994D03*
G01X1157953Y3313179D03*
G01X1157953Y3428362D03*
G01X1157953Y3533441D03*
G01X1175190Y4568048D03*
G01X1215990Y4766951D03*
G01X1225344Y6900574D03*
G01X1251691Y5435059D03*
G01X1256791Y4894452D03*
G01X1291034Y4568048D03*
G01X1297591Y5292258D03*
G01X1330423Y6900574D03*
G01X1331835Y4766951D03*
G01X1367535Y5435059D03*
G01X1372635Y4894452D03*
G01X1379192Y4221244D03*
G01X1402756Y3326518D03*
G01X1402756Y3431597D03*
G01X1402756Y3547782D03*
G01X1402756Y3662965D03*
G01X1402756Y3768044D03*
G01X1413436Y5292258D03*
G01X1445606Y6900574D03*
G01X1465893Y6434672D03*
G01X1468819Y2330730D03*
G01X1484357Y1311992D03*
G01X1484357Y1417071D03*
G01X1484357Y1533256D03*
G01X1484357Y1648439D03*
G01X1484357Y1753518D03*
G01X1495037Y4221244D03*
G01X1560858Y3173516D03*
G01X1560858Y3278595D03*
G01X1560858Y3394780D03*
G01X1560858Y3509963D03*
G01X1560858Y3615042D03*
G01X1561791Y6900574D03*
G01X1572995Y3915240D03*
G01X1581738Y6434672D03*
G01X1588295Y6587674D03*
G01X1606521Y4396257D03*
G01X1638449Y6752672D03*
G01X1666870Y6900574D03*
G01X1688839Y3915240D03*
G01X1704139Y6587674D03*
G01X1743528Y6752672D03*
G01X1774823Y2718335D03*
G01X1810523Y5961977D03*
G01X1846224Y4396257D03*
G01X1846224Y6120079D03*
G01X1858711Y6752672D03*
G01X1873052Y7022976D03*
G01X1922725Y2198128D03*
G01X1932925Y2351130D03*
G01X1932925Y2718335D03*
G01X1938263Y1306892D03*
G01X1938263Y1411971D03*
G01X1938263Y1528156D03*
G01X1938263Y1643339D03*
G01X1938263Y1748418D03*
G01X1943363Y3601921D03*
G01X1943363Y3707000D03*
G01X1943363Y3823186D03*
G01X1943363Y3938369D03*
G01X1943363Y4043448D03*
G01X1974896Y6752672D03*
G01X1978131Y7022976D03*
G01X2019626Y2641834D03*
G01X2065527Y4712461D03*
G01X2065527Y4809362D03*
G01X2079975Y6752672D03*
G01X2093314Y7022976D03*
G01X2174803Y6664175D03*
G01X2209499Y7022976D03*
G01X2223867Y3331618D03*
G01X2223867Y3436697D03*
G01X2223867Y3552882D03*
G01X2223867Y3668065D03*
G01X2223867Y3773144D03*
G01X2246204Y1489727D03*
G01X2246204Y1604910D03*
G01X2246204Y1709989D03*
G01X2271200Y6378572D03*
G01X2290647Y6664175D03*
G01X2295030Y5783475D03*
G01X2314578Y7022976D03*
G01X2343480Y2725985D03*
G01X2346268Y2041301D03*
G01X2346268Y2146380D03*
G01X2346268Y2262565D03*
G01X2346268Y2377748D03*
G01X2346268Y2482827D03*
G01X2362048Y1489727D03*
G01X2362048Y1604910D03*
G01X2362048Y1709989D03*
G01X2366669Y4445394D03*
G01X2366669Y4560577D03*
G01X2366669Y4665656D03*
G01X2387045Y6378572D03*
G01X2465506Y7061981D03*
G01X2501207Y1494827D03*
G01X2501207Y1610010D03*
G01X2501207Y1715089D03*
G01X2556038Y5340007D03*
G01X2565333Y4355456D03*
G01X2567508Y6358171D03*
G01X2570433Y4131053D03*
G01X2580633Y4253455D03*
G01X2581351Y7061981D03*
G01X2595934Y5982377D03*
G01X2601272Y2031101D03*
G01X2601272Y2136180D03*
G01X2601272Y2252365D03*
G01X2601272Y2367548D03*
G01X2601272Y2472627D03*
G01X2617051Y1494827D03*
G01X2617051Y1610010D03*
G01X2617051Y1715089D03*
G01X2622762Y7196378D03*
G01X2644580Y4786088D03*
G01X2644580Y4901271D03*
G01X2644580Y5006350D03*
G01X2646934Y3575146D03*
G01X2652034Y4115753D03*
G01X2661117Y5340007D03*
G01X2662234Y4319756D03*
G01X2677535Y3391544D03*
G01X2683352Y6358171D03*
G01X2687735Y4222855D03*
G01X2697935Y3743448D03*
G01X2727841Y7196378D03*
G01X2738735Y4763462D03*
G01X2776300Y5340007D03*
G01X2810136Y6813688D03*
G01X2822511Y5649262D03*
G01X2825675Y2020901D03*
G01X2825675Y2125980D03*
G01X2825675Y2242165D03*
G01X2825675Y2357348D03*
G01X2825675Y2462427D03*
G01X2830537Y4941964D03*
G01X2843024Y7196378D03*
G01X2856037Y6441383D03*
G01X2856037Y6645386D03*
G01X2891737Y5038865D03*
G01X2892485Y5340007D03*
G01X2912138Y4105553D03*
G01X2912138Y4217755D03*
G01X2913174Y4329200D03*
G01X2917238Y4493158D03*
G01X2917238Y4579859D03*
G01X2917238Y4692061D03*
G01X2938355Y5649262D03*
G01X2959209Y7196378D03*
G01X2997564Y5340007D03*
G01X3064288Y7196378D03*
G01X3106178Y2010701D03*
G01X3106178Y2115780D03*
G01X3106178Y2231965D03*
G01X3106178Y2347148D03*
G01X3106178Y2452227D03*
G01X3165963Y4879858D03*
G01X3197979Y3862025D03*
G01X3197979Y3967104D03*
G01X3197979Y4083289D03*
G01X3197979Y4198472D03*
G01X3197979Y4303551D03*
G01X3274480Y4879858D03*
G01X3284443Y6313882D03*
G01X3289543Y5905876D03*
G01X3310181Y2010701D03*
G01X3310181Y2115780D03*
G01X3310181Y2231965D03*
G01X3310181Y2347148D03*
G01X3310181Y2452227D03*
G01X3340781Y3851825D03*
G01X3340781Y3956904D03*
G01X3340781Y4073089D03*
G01X3340781Y4188272D03*
G01X3340781Y4293351D03*
G01X3341448Y3544784D03*
G01X3373437Y6429412D03*
G01X3376244Y5967077D03*
G01X3382249Y4629682D03*
G01X3382249Y4738199D03*
G01X3429419Y6521374D03*
G01X3446527Y3544784D03*
G01X3447883Y3872225D03*
G01X3447883Y3977304D03*
G01X3447883Y4093489D03*
G01X3447883Y4208672D03*
G01X3447883Y4313751D03*
G01X3448549Y4690882D03*
G01X3448549Y4799400D03*
G01X3451566Y5007360D03*
G01X3461595Y6261110D03*
G01X3533167Y5083861D03*
G01X3534584Y1898499D03*
G01X3534584Y2003578D03*
G01X3534584Y2119764D03*
G01X3534584Y2234947D03*
G01X3534584Y2340026D03*
G01X3545263Y6521374D03*
G01X3550551Y5370607D03*
G01X3550974Y7084177D03*
G01X3560084Y5007360D03*
G01X3561710Y3544784D03*
G01X3655630Y5370607D03*
G01X3656053Y7084177D03*
G01X3662245Y1378088D03*
G01X3728148Y5763075D03*
G01X3730323Y6143969D03*
G01X3733486Y1587395D03*
G01X3733486Y1692474D03*
G01X3733486Y1808660D03*
G01X3733486Y1923842D03*
G01X3733486Y2028922D03*
G01X3769187Y3037775D03*
G01X3770813Y5370607D03*
G01X3771236Y7084177D03*
G01X3778089Y1378088D03*
G01X3799787Y2933656D03*
G01X3846167Y6143969D03*
G01X3850550Y3549646D03*
G01X3878225Y5593162D03*
G01X3886488Y2969356D03*
G01X3886998Y5370607D03*
G01X3887421Y7084177D03*
G01X3888425Y5730863D03*
G01X3893933Y1378088D03*
G01X3988999Y6803726D03*
G01X3992077Y5370607D03*
G01X3992500Y7084177D03*
G01X3994069Y5593162D03*
G01X4003552Y5268368D03*
G01X4004269Y5730863D03*
G01X4009778Y1378088D03*
G01X4034390Y2905174D03*
G01X4044352Y6094579D03*
G01X4049452Y6405683D03*
G01X4066616Y2147366D03*
G01X4095353Y4559459D03*
G01X4125622Y1378088D03*
G01X4136154Y4936864D03*
G01X4143117Y2050465D03*
G01X4146354Y5502971D03*
G01X4165576Y4701356D03*
G01X4182802Y2147366D03*
G01X4209418Y1938263D03*
G01X4241466Y1378088D03*
G01X4243255Y4503358D03*
G01X4248355Y6408770D03*
G01X4259303Y2050465D03*
G01X4260419Y7017929D03*
G01X4268755Y3748549D03*
G01X4274093Y4701356D03*
G01X4274745Y4028147D03*
G01X4281130Y5741063D03*
G01X4287881Y2147366D03*
G01X4293077Y4119949D03*
G01X4301530Y5577861D03*
G01X4303181Y6778226D03*
G01X4308281Y6885327D03*
G01X4310758Y4222221D03*
G01X4311420Y1820962D03*
G01X4311730Y5394259D03*
G01X4325603Y1938263D03*
G01X4330194Y2956174D03*
G01X4330194Y3071357D03*
G01X4330194Y3176436D03*
G01X4342331Y6159269D03*
G01X4347465Y4293148D03*
G01X4357311Y1378088D03*
G01X4364382Y2050465D03*
G01X4369578Y4374952D03*
G01X4383263Y4028147D03*
G01X4396974Y5741063D03*
G01X4401595Y4119949D03*
G01X4402104Y6788426D03*
G01X4417374Y5577861D03*
G01X4419276Y4222221D03*
G01X4425582Y6671124D03*
G01X4427575Y5394259D03*
G01X4427605Y1820962D03*
G01X4430683Y1938263D03*
G01X4455983Y4293148D03*
G01X4458175Y6159269D03*
G01X4462796Y2961274D03*
G01X4462796Y3076457D03*
G01X4462796Y3181536D03*
G01X4473155Y1378088D03*
G01X4478096Y4374952D03*
G01X4522580Y4461653D03*
G01X4523997Y5655068D03*
G01X4528859Y5844676D03*
G01X4532684Y1820962D03*
G01X4551307Y4869757D03*
G01X4569897Y2951074D03*
G01X4569897Y3066257D03*
G01X4569897Y3171336D03*
G01X4631098Y4461653D03*
G01X4646160Y4753262D03*
G01X4659825Y4869757D03*
G01X4746983Y4261791D03*
G01X4746983Y4376974D03*
G01X4746983Y4482053D03*
G01X4755125Y3493783D03*
G01X4768959Y1357688D03*
G01X4834863Y6281770D03*
G01X4845967Y6625224D03*
G01X4855501Y4376974D03*
G01X4855501Y4482053D03*
G01X4871311Y3493783D03*
G01X4875663Y5844676D03*
G01X4876411Y3697786D03*
G01X4884803Y1357688D03*
G01X4896063Y5936477D03*
G01X4896968Y6497722D03*
G01X4938752Y3621082D03*
G01X4947380Y5057655D03*
G01X4947380Y5162734D03*
G01X4951046Y6625224D03*
G01X4976390Y3493783D03*
G01X4981490Y3697786D03*
G01X4996790Y6390621D03*
G01X5000648Y1357688D03*
G01X5002047Y6497722D03*
G01X5029570Y5273706D03*
G01X5054937Y3621082D03*
G01X5063224Y5057655D03*
G01X5063224Y5162734D03*
G01X5066229Y6625224D03*
G01X5084766Y5712074D03*
G01X5094966Y6023178D03*
G01X5116492Y1357688D03*
G01X5117230Y6497722D03*
G01X5130666Y4753262D03*
G01X5134649Y5273706D03*
G01X5147830Y3728386D03*
G01X5160016Y3621082D03*
G01X5182415Y6625224D03*
G01X5189317Y4516108D03*
G01X5190441Y5158736D03*
G01X5213172Y5059503D03*
G01X5232337Y1357688D03*
G01X5233415Y6497722D03*
G01X5249832Y5273706D03*
G01X5265818Y4485508D03*
G01X5287494Y6625224D03*
G01X5288768Y4717561D03*
G01X5295520Y5158736D03*
G01X5304307Y3976188D03*
G01X5304307Y4091371D03*
G01X5304307Y4196450D03*
G01X5318251Y5059503D03*
G01X5338494Y6497722D03*
G01X5348181Y1357688D03*
G01X5349969Y4472758D03*
G01X5366017Y5273706D03*
G01X5410703Y5158736D03*
G01X5416270Y3733248D03*
G01X5432475Y6548723D03*
G01X5433434Y5059503D03*
G01X5455953Y6635424D03*
G01X5457071Y2708135D03*
G01X5464025Y1357688D03*
G01X5471096Y5273706D03*
G01X5473183Y1747954D03*
G01X5477471Y2636734D03*
G01X5526503Y2564048D03*
G01X5526888Y5158736D03*
G01X5533810Y3986388D03*
G01X5533810Y4101571D03*
G01X5533810Y4206650D03*
G01X5543772Y2687735D03*
G01X5549619Y5059503D03*
G01X5554877Y6538523D03*
G01X5571136Y6635424D03*
G01X5574372Y4600260D03*
G01X5579869Y1357688D03*
G01X5589369Y1747954D03*
G01X5610073Y2534733D03*
G01X5631967Y5158736D03*
G01X5654698Y5059503D03*
G01X5659956Y6538523D03*
G01X5687321Y6635424D03*
G01X5694448Y1747954D03*
G01X5695967Y4482958D03*
G01X5696774Y2519433D03*
G01X5727612Y3981288D03*
G01X5727612Y4096471D03*
G01X5727612Y4201550D03*
G01X5746968Y6074179D03*
G01X5756709Y6188526D03*
G01X5775139Y6538523D03*
G01X5778375Y2295030D03*
G01X5788972Y1204686D03*
G01X5798775Y4600260D03*
G01X5804780Y6451821D03*
G01X5813269Y4488058D03*
G01X5825180Y6640524D03*
G01X5848969Y6232281D03*
G01X5884670Y6125179D03*
G01X5889398Y4099548D03*
G01X5891324Y6538523D03*
G01X5904816Y1204686D03*
G01X5909859Y6451821D03*
G01X5921177Y5712074D03*
G01X5930259Y6640524D03*
G01X5946677Y2295030D03*
G01X5974680Y5304458D03*
G01X5982377Y5018465D03*
G01X5987477Y4508458D03*
G01X5995820Y1825287D03*
G01X5996403Y6538523D03*
G01X5997678Y4396257D03*
G01X6005662Y3209873D03*
G01X6006699Y4079148D03*
G01X6020661Y1204686D03*
G01X6025042Y6451821D03*
G01X6036263Y3467858D03*
G01X6045442Y6640524D03*
G01X6063978Y4335056D03*
G01X6069079Y5701874D03*
G01X6071581Y5307536D03*
G01X6107663Y3618838D03*
G01X6112005Y1825287D03*
G01X6114979Y2080827D03*
G01X6120079Y2534733D03*
G01X6122964Y3271074D03*
G01X6122964Y3386257D03*
G01X6122964Y3491336D03*
G01X6136505Y1204686D03*
G01X6141227Y6451821D03*
G01X6145580Y6237381D03*
G01X6161627Y6640524D03*
G01X6217084Y1825287D03*
G01X6227181Y5778375D03*
G01X6237381Y5334669D03*
G01X6246306Y6451821D03*
G01X6252350Y1204686D03*
G01X6266706Y6640524D03*
G01X6288381Y5406070D03*
G01X6325946Y2019864D03*
G01X6368194Y1204686D03*
G01X6385283Y4508458D03*
G01X6399405Y3819045D03*
G01X6400583Y4600260D03*
G01X6442131Y2019864D03*
G01X6446721Y3241778D03*
G01X6446721Y3356961D03*
G01X6446721Y3462040D03*
G01X6451583Y4824662D03*
G01X6484038Y1204686D03*
G01X6507922Y3819045D03*
G01X6547210Y2019864D03*
G01X6589285Y6094579D03*
G01X6594385Y6195571D03*
G01X6599883Y1204686D03*
G01X6609686Y2356230D03*
G01X6624986Y4559459D03*
G01X6650486Y6313882D03*
G01X6659508Y3813945D03*
G01X6660686Y5406070D03*
G01X6665786Y5273468D03*
G01X6671124Y3231578D03*
G01X6671124Y3346761D03*
G01X6671124Y3451840D03*
G01X6691287Y4794062D03*
G01X6737187Y6956490D03*
G01X6742287Y7068691D03*
G01X6748292Y3952789D03*
G01X6768026Y3813945D03*
G01X6777988Y4559459D03*
G01X6788188Y6558685D03*
G01X6803488Y4783862D03*
G01X6834326Y3267278D03*
G01X6834326Y3382461D03*
G01X6834326Y3487540D03*
G01X6853371Y3952789D03*
G01X6864689Y6109879D03*
G01X6895686Y1184286D03*
G01X6905489Y6426083D03*
G01X6920790Y4564559D03*
G01X6950212Y3808845D03*
G01X6961590Y4839963D03*
G01X6968554Y3952789D03*
G01X6987090Y5468769D03*
G01X7011531Y1184286D03*
G01X7017691Y5589672D03*
G01X7058729Y3257078D03*
G01X7058729Y3372261D03*
G01X7058729Y3477340D03*
G01X7058729Y3808845D03*
G01X7066386Y2525701D03*
G01X7069089Y1735093D03*
G01X7124426Y6381504D03*
G01X7127375Y1184286D03*
G01X7182571Y2525701D03*
G01X7185993Y5589672D03*
G01X7201690Y1862594D03*
G01X7228341Y5840071D03*
G01X7240271Y6276425D03*
G01X7240271Y6381504D03*
G01X7243219Y1184286D03*
G01X7247194Y5212267D03*
G01X7262128Y6460027D03*
G01X7287650Y2525701D03*
G01X7303692Y1984996D03*
G01X7328795Y5538672D03*
G01X7329522Y5967071D03*
G01X7341257Y5707971D03*
G01X7344095Y4574759D03*
G01X7359064Y1184286D03*
G01X7379796Y5100066D03*
G01X7384896Y4952164D03*
G01X7387070Y6266370D03*
G01X7395096Y4498258D03*
G01X7400593Y2092097D03*
G01X7405693Y1454589D03*
G01X7451196Y4579859D03*
G01X7474908Y1184286D03*
G01X7497494Y2178799D03*
G01X7502914Y6266370D03*
G01X7521537Y1454589D03*
G01X7522597Y5120466D03*
G01X7524830Y4314656D03*
G01X7529930Y3549646D03*
G01X7548098Y2912138D03*
G01X7590753Y1184286D03*
G01X7593998Y4365656D03*
G01X7606373Y6200069D03*
G01X7606373Y6305148D03*
G01X7637382Y1454589D03*
G01X7639899Y3003939D03*
G01X7644999Y5202067D03*
G01X7665399Y4426857D03*
G01X7701100Y5079666D03*
G01X7706597Y1184286D03*
G01X7722217Y6200069D03*
G01X7722217Y6305148D03*
G01X7726600Y3462945D03*
G01X7726600Y4340156D03*
G01X7753226Y1454589D03*
G01X7808201Y4595159D03*
G01X7866852Y5077116D03*
G01X7869071Y1454589D03*
G01X7873655Y6878621D03*
G01X7905500Y1877895D03*
G01X7917477Y6781477D03*
G01X7945903Y4488058D03*
G01X7948077Y6679476D03*
G01X7956103Y5074566D03*
G01X7980797Y5467271D03*
G01X7984915Y1454589D03*
G01X7989499Y6878621D03*
G01X7993978Y6587674D03*
G01X8021344Y1877895D03*
G01X8033321Y6781477D03*
G01X8047904Y5084766D03*
G01X8063922Y6679476D03*
G01X8082798Y5365269D03*
G01X8100759Y1454589D03*
G01X8109822Y6587674D03*
G01X8137155Y4133603D03*
G01X8137188Y1877895D03*
G01X8149577Y7119917D03*
G01X8165603Y2398101D03*
G01X8174599Y5273468D03*
G01X8216604Y1454589D03*
G01X8251907Y4482958D03*
G01X8253033Y1877895D03*
G01X8265421Y7119917D03*
G01X8281447Y2398101D03*
G01X8333508Y4957264D03*
G01X8359246Y3843586D03*
G01X8359246Y3958769D03*
G01X8359246Y4063848D03*
G01X8368877Y1877895D03*
G01X8381265Y7119917D03*
G01X8397292Y2398101D03*
G01X8424752Y4666560D03*
G01X8445709Y5038865D03*
G01X8460678Y7253364D03*
G01X8484721Y1877895D03*
G01X8496948Y3986388D03*
G01X8496948Y4101571D03*
G01X8496948Y4206650D03*
G01X8497110Y7119917D03*
G01X8512407Y1434189D03*
G01X8513136Y2398101D03*
G01X8552004Y5671273D03*
G01X8565185Y5781864D03*
G01X8576523Y7253364D03*
G01X8582843Y4241391D03*
G01X8582843Y4356574D03*
G01X8582843Y4461653D03*
G01X8593611Y6369982D03*
G01X8600566Y1877895D03*
G01X8628252Y1434189D03*
G01X8628980Y2398101D03*
G01X8643805Y5589672D03*
G01X8677387Y5684963D03*
G01X8679981Y7125863D03*
G01X8681030Y5781864D03*
G01X8692367Y7253364D03*
G01X8715206Y5492771D03*
G01X8716410Y1877895D03*
G01X8725406Y4284055D03*
G01X8726213Y3753649D03*
G01X8744096Y1434189D03*
G01X8744825Y2398101D03*
G01X8781507Y4370757D03*
G01X8793231Y5684963D03*
G01X8795825Y7125863D03*
G01X8796807Y5431570D03*
G01X8808211Y7253364D03*
G01X8858008Y4482958D03*
G01X8859940Y1434189D03*
G01X8860669Y2398101D03*
G01X8911670Y7125863D03*
G01X8914109Y4590059D03*
G01X8940416Y3779149D03*
G01X8975785Y1434189D03*
G01X8976513Y2398101D03*
G01X9006717Y5105166D03*
G01X9012214Y1857494D03*
G01X9027514Y7125863D03*
G01X9043322Y3218380D03*
G01X9067917Y3784249D03*
G01X9091629Y1434189D03*
G01X9124776Y4957264D03*
G01X9128058Y1857494D03*
G01X9148401Y3218380D03*
G01X9149518Y6405683D03*
G01X9195419Y6650486D03*
G01X9207474Y1434189D03*
G01X9233294Y6852878D03*
G01X9243903Y1857494D03*
G01X9263584Y3218380D03*
G01X9272317Y2377701D03*
G01X9291514Y5023565D03*
G01X9292320Y5737574D03*
G01X9304695Y6766177D03*
G01X9307620Y5487671D03*
G01X9323318Y1434189D03*
G01X9328768Y4029290D03*
G01X9328768Y4197592D03*
G01X9338968Y3876288D03*
G01X9338968Y4294494D03*
G01X9349138Y6852878D03*
G01X9359747Y1857494D03*
G01X9368015Y4901163D03*
G01X9368821Y5803875D03*
G01X9379769Y3218380D03*
G01X9388162Y2377701D03*
G01X9420539Y6766177D03*
G01X9433847Y4029290D03*
G01X9433847Y4197592D03*
G01X9434694Y4815173D03*
G01X9444047Y3876288D03*
G01X9444047Y4294494D03*
G01X9475591Y1857494D03*
G01X9484848Y3218380D03*
G01X9493397Y6852878D03*
G01X9504006Y2377701D03*
G01X9544398Y6388772D03*
G01X9545393Y6726279D03*
G01X9549498Y6500973D03*
G01X9559698Y6623375D03*
G01X9591436Y1857494D03*
G01X9609242Y6852878D03*
G01X9619850Y2377701D03*
G01X9660242Y6388772D03*
G01X9661238Y6726279D03*
G01X9665342Y6500973D03*
G01X9675542Y6623375D03*
G01X9685263Y3056214D03*
G01X9685263Y3161293D03*
G01X9685263Y3277479D03*
G01X9685263Y3392661D03*
G01X9685263Y3497741D03*
G01X9705426Y5481275D03*
G01X9707280Y1857494D03*
G01X9735695Y2377701D03*
G01X9750998Y7146246D03*
G01X9812765Y3795724D03*
G01X9812765Y3900803D03*
G01X9812765Y4016988D03*
G01X9812765Y4132171D03*
G01X9812765Y4237250D03*
G01X9817865Y4326131D03*
G01X9817865Y4431210D03*
G01X9817865Y4547395D03*
G01X9817865Y4662578D03*
G01X9817865Y4767657D03*
G01X9823124Y1857494D03*
G01X9833325Y2183899D03*
G01X9835102Y4874052D03*
G01X9851539Y2377701D03*
G01X9866842Y7146246D03*
G01X9899466Y2979713D03*
G01X9899466Y3084792D03*
G01X9899466Y3200978D03*
G01X9899466Y3316161D03*
G01X9899466Y3421240D03*
G01X9949169Y2183899D03*
G01X9950946Y4874052D03*
G01X9967383Y2377701D03*
G01X9975729Y5518271D03*
G01X9982686Y7146246D03*
G01X9993579Y6260331D03*
G01X9998304Y5266757D03*
G01X10036599Y7243164D03*
G01X10057568Y2617609D03*
G01X10057568Y2722688D03*
G01X10057568Y2838873D03*
G01X10057568Y2954056D03*
G01X10057568Y3059135D03*
G01X10065013Y2183899D03*
G01X10083228Y2377701D03*
G01X10098530Y7146246D03*
G01X10114148Y5266757D03*
G01X10152443Y7243164D03*
G01X10180857Y2183899D03*
G01X10201037Y2540071D03*
G01X10205232Y6165980D03*
G01X10268287Y7243164D03*
G01X10296702Y2183899D03*
G01X10306116Y2540071D03*
G01X10312571Y5654109D03*
G01X10312571Y5769292D03*
G01X10312571Y5874371D03*
G01X10317672Y5276704D03*
G01X10317672Y5391887D03*
G01X10317672Y5496966D03*
G01X10337503Y7156463D03*
G01X10384132Y7243164D03*
G01X10409473Y5909113D03*
G01X10409473Y6024296D03*
G01X10409473Y6129375D03*
G01X10412546Y2183899D03*
G01X10421299Y2540071D03*
G01X10429873Y5434807D03*
G01X10429873Y5549989D03*
G01X10429873Y5655068D03*
G01X10453347Y7156463D03*
G01X10528391Y2183899D03*
G01X10534476Y5657412D03*
G01X10534476Y5772595D03*
G01X10534476Y5877674D03*
G01X10537484Y2540071D03*
G01X10547174Y5276704D03*
G01X10547174Y5391887D03*
G01X10547174Y5496966D03*
G01X10569191Y7156463D03*
G01X10615412Y4957772D03*
G01X10615412Y5072955D03*
G01X10615412Y5178034D03*
G01X10642563Y2540071D03*
G01X10643838Y6293481D03*
G01X10644235Y2183899D03*
G01X10671202Y3911989D03*
G01X10685036Y7156463D03*
G01X10731256Y4957772D03*
G01X10731256Y5072955D03*
G01X10731256Y5178034D03*
G01X10737503Y3815087D03*
G01X10761377Y2505407D03*
G01X10761377Y2610486D03*
G01X10761377Y2726671D03*
G01X10761377Y2841854D03*
G01X10761377Y2946933D03*
G01X10787387Y3911989D03*
G01X10802178Y3040914D03*
G01X10802178Y3145993D03*
G01X10802178Y3262178D03*
G01X10802178Y3377361D03*
G01X10802178Y3482440D03*
G01X10853688Y3815087D03*
G01X10878679Y6398719D03*
G01X10878679Y6513902D03*
G01X10878679Y6618981D03*
G01X10892466Y3911989D03*
G01X10914379Y3076615D03*
G01X10914379Y3181694D03*
G01X10914379Y3297879D03*
G01X10914379Y3413062D03*
G01X10914379Y3518141D03*
G01X10940039Y2163498D03*
G01X10958767Y3815087D03*
G01X11016381Y6261017D03*
G01X11016381Y6376200D03*
G01X11016381Y6481279D03*
G01X11049598Y3260931D03*
G01X11049598Y3366010D03*
G01X11049598Y3482195D03*
G01X11049598Y3597378D03*
G01X11049598Y3702457D03*
G01X11055883Y2163498D03*
G01X11154082Y6179416D03*
G01X11154082Y6294599D03*
G01X11154082Y6399678D03*
G01X11164282Y3280617D03*
G01X11164282Y3385696D03*
G01X11164282Y3501881D03*
G01X11164282Y3617064D03*
G01X11164282Y3722143D03*
G01X11171727Y2163498D03*
G01X11287572Y2163498D03*
G01X11295084Y6147911D03*
G01X11295084Y6263094D03*
G01X11295084Y6368173D03*
G01X11317284Y4769837D03*
G01X11317284Y4874916D03*
G01X11317284Y4991101D03*
G01X11317284Y5106284D03*
G01X11317284Y5211363D03*
G01X11403416Y2163498D03*
G01X11519261Y2163498D03*
G01X11562088Y5970313D03*
G01X11562088Y6085496D03*
G01X11562088Y6190575D03*
G01X11626684Y5428645D03*
G01X11626684Y5544489D03*
G01X11635105Y2163498D03*
G01X11645625Y5661581D03*
G01X11645625Y5776764D03*
G01X11645625Y5881843D03*
G01X11731763Y5428645D03*
G01X11731763Y5544489D03*
G01X11736947Y3859989D03*
G01X11736947Y3975172D03*
G01X11736947Y4080251D03*
G01X11736947Y4196437D03*
G01X11736947Y4311620D03*
G01X11736947Y4416699D03*
G01X11736947Y4506752D03*
G01X11736947Y4621935D03*
G01X11736947Y4727014D03*
G01X11736947Y4843199D03*
G01X11736947Y4958382D03*
G01X11736947Y5063461D03*
G01X11750949Y2163498D03*
G01X11761469Y5661581D03*
G01X11761469Y5776764D03*
G01X11761469Y5881843D03*
G01X11846946Y5428645D03*
G01X11846946Y5544489D03*
G01X11852791Y3859989D03*
G01X11852791Y3975172D03*
G01X11852791Y4080251D03*
G01X11852791Y4196437D03*
G01X11852791Y4311620D03*
G01X11852791Y4416699D03*
G01X11852791Y4506752D03*
G01X11852791Y4621935D03*
G01X11852791Y4727014D03*
G01X11852791Y4843199D03*
G01X11852791Y4958382D03*
G01X11852791Y5063461D03*
G04 Drill Drawing End*

M02*

