;TYPE=PLATED
;Layer: PTH_Through_Via
;EasyEDA Pro Client v2.2.32.3, 2026-04-03 18:26:49
;Gerber Generator version 0.3
M48
METRIC,LZ,000.00000
;Hole size 1 = 0.30000 METRIC
T01C0.30000
%
G05
G90
T01
X110.36543Y1.27
X3.36604Y2.65203
X66.75986Y5.45707
X33.76493Y5.40607
X99.76479Y3.46804
X111.08341Y6.18178
X112.24185Y6.18178
X113.4003Y6.18178
X114.55874Y6.18178
X115.71719Y6.18178
X116.87563Y6.18178
X118.03407Y6.18178
X119.19251Y6.18178
X110.5734Y7.3548
X111.73185Y7.3548
X112.89029Y7.3548
X114.04873Y7.3548
X115.20718Y7.3548
X116.36562Y7.3548
X117.52407Y7.3548
X118.68251Y7.3548
X108.73738Y8.17081
X109.89582Y8.17081
X111.05427Y8.17081
X112.21271Y8.17081
X113.37116Y8.17081
X114.5296Y8.17081
X115.68804Y8.17081
X116.84648Y8.17081
X98.07824Y8.06881
X99.23668Y8.06881
X100.39513Y8.06881
X101.55357Y8.06881
X102.71202Y8.06881
X103.87046Y8.06881
X105.0289Y8.06881
X106.18735Y8.06881
X112.00142Y-2.08032
X111.83385Y-2.84533
X112.99229Y-2.84533
X114.15073Y-2.84533
X115.30918Y-2.84533
X116.46762Y-2.84533
X117.62607Y-2.84533
X118.78451Y-2.84533
X110.98141Y-6.16038
X112.13985Y-6.16038
X113.2983Y-6.16038
X114.45674Y-6.16038
X115.61518Y-6.16038
X116.77363Y-6.16038
X117.93207Y-6.16038
X119.09051Y-6.16038
X110.3184Y-6.97639
X111.47684Y-6.97639
X112.63529Y-6.97639
X113.79373Y-6.97639
X114.95218Y-6.97639
X116.11062Y-6.97639
X117.26906Y-6.97639
X118.42751Y-6.97639
X109.65539Y-7.7414
X110.81383Y-7.7414
X111.97228Y-7.7414
X113.13072Y-7.7414
X114.28917Y-7.7414
X115.44761Y-7.7414
X116.60605Y-7.7414
X117.7645Y-7.7414
X100.94554Y-6.81268
X102.10398Y-6.81268
X103.26242Y-6.81268
X104.42087Y-6.81268
X105.57931Y-6.81268
X106.73775Y-6.81268
X107.8962Y-6.81268
X109.05464Y-6.81268
X90.53014Y-7.38439
X91.68859Y-7.38439
X92.84703Y-7.38439
X94.00547Y-7.38439
X95.16392Y-7.38439
X96.32236Y-7.38439
X97.48081Y-7.38439
X98.63925Y-7.38439
X79.31Y-7.6394
X80.46844Y-7.6394
X81.62689Y-7.6394
X82.78533Y-7.6394
X83.94377Y-7.6394
X85.10222Y-7.6394
X86.26066Y-7.6394
X87.4191Y-7.6394
X68.14085Y-7.38439
X69.2993Y-7.38439
X70.45774Y-7.38439
X71.61618Y-7.38439
X72.77463Y-7.38439
X73.93307Y-7.38439
X75.09152Y-7.38439
X76.24996Y-7.38439
X57.27771Y-7.38439
X58.43616Y-7.38439
X59.5946Y-7.38439
X60.75304Y-7.38439
X61.91149Y-7.38439
X63.06993Y-7.38439
X64.22838Y-7.38439
X65.38682Y-7.38439
X44.27255Y-7.18039
X45.43099Y-7.18039
X46.58943Y-7.18039
X47.74788Y-7.18039
X48.90632Y-7.18039
X50.06476Y-7.18039
X51.22321Y-7.18039
X52.38165Y-7.18039
X29.48235Y-7.33339
X30.6408Y-7.33339
X31.79924Y-7.33339
X32.95768Y-7.33339
X34.11613Y-7.33339
X35.27457Y-7.33339
X36.43302Y-7.33339
X37.59146Y-7.33339
X17.19119Y-7.48639
X18.34964Y-7.48639
X19.50808Y-7.48639
X20.66652Y-7.48639
X21.82497Y-7.48639
X22.98341Y-7.48639
X24.14186Y-7.48639
X25.3003Y-7.48639
X1.17699Y-7.07839
X2.33543Y-7.07839
X3.49387Y-7.07839
X4.65232Y-7.07839
X5.81076Y-7.07839
X6.96921Y-7.07839
X8.12765Y-7.07839
X9.28609Y-7.07839
X-1.93405Y7.2018
X0.65241Y8.42581
X1.81085Y8.42581
X2.9693Y8.42581
X4.12774Y8.42581
X5.28618Y8.42581
X6.44463Y8.42581
X-2.08705Y5.16177
X-1.57705Y-3.86535
X-0.4186Y-3.86535
X0.73984Y-3.86535
X1.89828Y-3.86535
X3.05673Y-3.86535
X4.21517Y-3.86535
X5.37361Y-3.86535
X6.53206Y-3.86535
X28.25834Y-3.81435
X29.41678Y-3.81435
X30.57522Y-3.81435
X31.73367Y-3.81435
X32.89211Y-3.81435
X34.05056Y-3.81435
X35.209Y-3.81435
X36.36744Y-3.81435
X61.25577Y-3.71234
X62.41421Y-3.71234
X63.57265Y-3.71234
X64.73109Y-3.71234
X65.88954Y-3.71234
X67.04798Y-3.71234
X68.20643Y-3.71234
X69.36487Y-3.71234
X60.18475Y8.42581
X61.34319Y8.42581
X62.50164Y8.42581
X63.66008Y8.42581
X64.81853Y8.42581
X65.97697Y8.42581
X67.13541Y8.42581
X68.29386Y8.42581
X28.25834Y8.37481
X29.41678Y8.37481
X30.57522Y8.37481
X31.73367Y8.37481
X32.89211Y8.37481
X34.05056Y8.37481
X35.209Y8.37481
X36.36744Y8.37481
X95.88521Y6.94679
X97.04366Y6.94679
X98.2021Y6.94679
X99.36054Y6.94679
X100.51899Y6.94679
X101.67743Y6.94679
X102.83588Y6.94679
X103.99432Y6.94679
X89.56113Y-5.19136
X90.71957Y-5.19136
X91.87802Y-5.19136
X93.03646Y-5.19136
X94.19491Y-5.19136
X95.35335Y-5.19136
X96.51179Y-5.19136
X97.67024Y-5.19136
M30