G04 Layer: TopLayer*
G04 EasyEDA Pro v2.2.32.3, 2026-04-03 18:26:48*
G04 Gerber Generator version 0.3*
G04 Scale: 100 percent, Rotated: No, Reflected: No*
G04 Dimensions in millimeters*
G04 Leading zeros omitted, absolute positions, 3 integers and 5 decimals*
%FSLAX35Y35*%
%MOMM*%
%ADD10C,0.2032*%
%ADD11R,6.24X1.4*%
%ADD12R,3.09999X1.8*%
%ADD13R,1.98001X2.1*%
%ADD14R,1.11999X2.1*%
%ADD15C,0.6008*%
%ADD16C,0.6*%
%ADD17C,1.2*%
%ADD18C,1.5*%
%ADD19C,1.0*%
%ADD20C,0.8*%
G75*


G04 Copper Start*
G36*
G01X-414185Y749999D02*
G02X-249999Y914184I164186J0D01*
G01X11849976Y914184D01*
G02X12014162Y749999I0J-164186D01*
G01X12014162Y-749998D01*
G02X11849976Y-914184I-164186J0D01*
G01X-249999Y-914184D01*
G02X-414185Y-749998I0J164186D01*
G01X-414185Y749999D01*
G37*
%LPC*%
G36*
G01X-214316Y124842D02*
G03X-220315Y105000I29815J-19843D01*
G01X-220315Y-105000D01*
G03X-184501Y-140814I35814J0D01*
G01X-72502Y-140814D01*
G03X-47502Y-130644I0J35814D01*
G03X-22501Y-140814I25001J25644D01*
G01X175500Y-140814D01*
G03X211314Y-105000I0J35814D01*
G01X211314Y13455D01*
G01X397284Y199425D01*
G03X422418Y260105I-60680J60680D01*
G01X422418Y265203D01*
G03X261071Y305931I-85814J0D01*
G01X95954Y140814D01*
G01X-22501Y140814D01*
G03X-42688Y134583I0J-35814D01*
G01X-42688Y249058D01*
G01X331349Y623095D01*
G01X3095678Y623095D01*
G01X3095678Y134833D01*
G03X3079678Y105000I19815J-29833D01*
G01X3079678Y-105000D01*
G03X3115492Y-140814I35814J0D01*
G01X3227491Y-140814D01*
G03X3252492Y-130644I0J35814D01*
G03X3277492Y-140814I25001J25644D01*
G01X3475493Y-140814D01*
G03X3511307Y-105000I0J35814D01*
G01X3511307Y105000D01*
G03X3475493Y140814I-35814J0D01*
G01X3452307Y140814D01*
G01X3452307Y540607D01*
G03X3300679Y540607I-75814J0D01*
G01X3300679Y140814D01*
G01X3277492Y140814D01*
G03X3252492Y130644I0J-35814D01*
G03X3247306Y134833I-25001J-25644D01*
G01X3247306Y623095D01*
G01X6395671Y623095D01*
G01X6395671Y134833D01*
G03X6379672Y105000I19815J-29833D01*
G01X6379672Y-105000D01*
G03X6415486Y-140814I35814J0D01*
G01X6527485Y-140814D01*
G03X6552485Y-130644I0J35814D01*
G03X6577486Y-140814I25001J25644D01*
G01X6775486Y-140814D01*
G03X6811300Y-105000I0J35814D01*
G01X6811300Y105000D01*
G03X6775486Y140814I-35814J0D01*
G01X6752300Y140814D01*
G01X6752300Y545207D01*
G03X6730095Y598816I-75814J0D01*
G01X6729595Y599316D01*
G03X6600672Y537018I-53609J-53609D01*
G01X6600672Y140814D01*
G01X6577486Y140814D01*
G03X6552485Y130644I0J-35814D01*
G03X6547299Y134833I-25001J-25644D01*
G01X6547299Y623095D01*
G01X9076024Y623095D01*
G01X9678017Y21102D01*
G03X9675665Y0I93461J-21102D01*
G01X9675665Y-254755D01*
G03X9703728Y-322506I95814J0D01*
G01X9805977Y-424755D01*
G03X9873728Y-452819I67751J67751D01*
G01X10761139Y-452819D01*
G03X10828890Y-424755I0J95814D01*
G01X11269831Y16186D01*
G01X11560520Y16186D01*
G03X11593431Y21186I0J110814D01*
G01X11872520Y21186D01*
G03X11908334Y57000I0J35814D01*
G01X11908334Y197000D01*
G03X11872520Y232814I-35814J0D01*
G01X11593431Y232814D01*
G03X11560520Y237814I-32911J-105814D01*
G01X11036543Y237814D01*
G03X11003782Y21139I0J-110814D01*
G01X10721452Y-261191D01*
G01X9913415Y-261191D01*
G01X9867293Y-215068D01*
G01X9867293Y-139335D01*
G03X9877479Y-140814I10187J34335D01*
G01X10075480Y-140814D01*
G03X10111294Y-105000I0J35814D01*
G01X10111294Y105000D01*
G03X10075480Y140814I-35814J0D01*
G01X10052293Y140814D01*
G01X10052293Y346804D01*
G03X9900665Y346804I-75814J0D01*
G01X9900665Y140814D01*
G01X9877479Y140814D01*
G03X9852479Y130644I0J-35814D01*
G03X9827478Y140814I-25001J-25644D01*
G01X9801025Y140814D01*
G01X9172249Y769589D01*
G03X9111570Y794723I-60680J-60680D01*
G01X295804Y794723D01*
G03X235124Y769589I0J-85814D01*
G01X-189181Y345283D01*
G03X-214316Y284604I60680J-60680D01*
G01X-214316Y124842D01*
G37*
G36*
G01X2130414Y0D02*
G03X1169586Y0I-480414J0D01*
G03X2130414Y0I480414J0D01*
G37*
G36*
G01X5430404Y0D02*
G03X4469576Y0I-480414J0D01*
G03X5430404Y0I480414J0D01*
G37*
G36*
G01X8730398Y0D02*
G03X7769569Y0I-480414J0D01*
G03X8730398Y0I480414J0D01*
G37*
%LPD*%
G54D10*
G01X-414185Y749999D02*
G02X-249999Y914184I164186J0D01*
G01X11849976Y914184D01*
G02X12014162Y749999I0J-164186D01*
G01X12014162Y-749998D01*
G02X11849976Y-914184I-164186J0D01*
G01X-249999Y-914184D01*
G02X-414185Y-749998I0J164186D01*
G01X-414185Y749999D01*
G01X-214316Y124842D02*
G03X-220315Y105000I29815J-19843D01*
G01X-220315Y-105000D01*
G03X-184501Y-140814I35814J0D01*
G01X-72502Y-140814D01*
G03X-47502Y-130644I0J35814D01*
G03X-22501Y-140814I25001J25644D01*
G01X175500Y-140814D01*
G03X211314Y-105000I0J35814D01*
G01X211314Y13455D01*
G01X397284Y199425D01*
G03X422418Y260105I-60680J60680D01*
G01X422418Y265203D01*
G03X261071Y305931I-85814J0D01*
G01X95954Y140814D01*
G01X-22501Y140814D01*
G03X-42688Y134583I0J-35814D01*
G01X-42688Y249058D01*
G01X331349Y623095D01*
G01X3095678Y623095D01*
G01X3095678Y134833D01*
G03X3079678Y105000I19815J-29833D01*
G01X3079678Y-105000D01*
G03X3115492Y-140814I35814J0D01*
G01X3227491Y-140814D01*
G03X3252492Y-130644I0J35814D01*
G03X3277492Y-140814I25001J25644D01*
G01X3475493Y-140814D01*
G03X3511307Y-105000I0J35814D01*
G01X3511307Y105000D01*
G03X3475493Y140814I-35814J0D01*
G01X3452307Y140814D01*
G01X3452307Y540607D01*
G03X3300679Y540607I-75814J0D01*
G01X3300679Y140814D01*
G01X3277492Y140814D01*
G03X3252492Y130644I0J-35814D01*
G03X3247306Y134833I-25001J-25644D01*
G01X3247306Y623095D01*
G01X6395671Y623095D01*
G01X6395671Y134833D01*
G03X6379672Y105000I19815J-29833D01*
G01X6379672Y-105000D01*
G03X6415486Y-140814I35814J0D01*
G01X6527485Y-140814D01*
G03X6552485Y-130644I0J35814D01*
G03X6577486Y-140814I25001J25644D01*
G01X6775486Y-140814D01*
G03X6811300Y-105000I0J35814D01*
G01X6811300Y105000D01*
G03X6775486Y140814I-35814J0D01*
G01X6752300Y140814D01*
G01X6752300Y545207D01*
G03X6730095Y598816I-75814J0D01*
G01X6729595Y599316D01*
G03X6600672Y537018I-53609J-53609D01*
G01X6600672Y140814D01*
G01X6577486Y140814D01*
G03X6552485Y130644I0J-35814D01*
G03X6547299Y134833I-25001J-25644D01*
G01X6547299Y623095D01*
G01X9076024Y623095D01*
G01X9678017Y21102D01*
G03X9675665Y0I93461J-21102D01*
G01X9675665Y-254755D01*
G03X9703728Y-322506I95814J0D01*
G01X9805977Y-424755D01*
G03X9873728Y-452819I67751J67751D01*
G01X10761139Y-452819D01*
G03X10828890Y-424755I0J95814D01*
G01X11269831Y16186D01*
G01X11560520Y16186D01*
G03X11593431Y21186I0J110814D01*
G01X11872520Y21186D01*
G03X11908334Y57000I0J35814D01*
G01X11908334Y197000D01*
G03X11872520Y232814I-35814J0D01*
G01X11593431Y232814D01*
G03X11560520Y237814I-32911J-105814D01*
G01X11036543Y237814D01*
G03X11003782Y21139I0J-110814D01*
G01X10721452Y-261191D01*
G01X9913415Y-261191D01*
G01X9867293Y-215068D01*
G01X9867293Y-139335D01*
G03X9877479Y-140814I10187J34335D01*
G01X10075480Y-140814D01*
G03X10111294Y-105000I0J35814D01*
G01X10111294Y105000D01*
G03X10075480Y140814I-35814J0D01*
G01X10052293Y140814D01*
G01X10052293Y346804D01*
G03X9900665Y346804I-75814J0D01*
G01X9900665Y140814D01*
G01X9877479Y140814D01*
G03X9852479Y130644I0J-35814D01*
G03X9827478Y140814I-25001J-25644D01*
G01X9801025Y140814D01*
G01X9172249Y769589D01*
G03X9111570Y794723I-60680J-60680D01*
G01X295804Y794723D01*
G03X235124Y769589I0J-85814D01*
G01X-189181Y345283D01*
G03X-214316Y284604I60680J-60680D01*
G01X-214316Y124842D01*
G01X2130414Y0D02*
G03X1169586Y0I-480414J0D01*
G03X2130414Y0I480414J0D01*
G01X5430404Y0D02*
G03X4469576Y0I-480414J0D01*
G03X5430404Y0I480414J0D01*
G01X8730398Y0D02*
G03X7769569Y0I-480414J0D01*
G03X8730398Y0I480414J0D01*
G04 Copper End*

G04 Pad Start*
G54D11*
G01X11560520Y-127000D03*
G01X11560520Y127000D03*
G54D12*
G01X11820507Y446989D03*
G01X11820507Y-447015D03*
G54D13*
G01X76499Y0D03*
G54D14*
G01X-128502Y0D03*
G54D13*
G01X6676486Y0D03*
G54D14*
G01X6471485Y0D03*
G54D13*
G01X3376493Y0D03*
G54D14*
G01X3171492Y0D03*
G54D13*
G01X9976479Y0D03*
G54D14*
G01X9771479Y0D03*
G04 Pad End*

G04 Via Start*
G54D16*
G01X11036543Y127000D03*
G01X336604Y265203D03*
G01X6675986Y545707D03*
G01X3376493Y540607D03*
G01X9976479Y346804D03*
G01X11108341Y618178D03*
G01X11224185Y618178D03*
G01X11340030Y618178D03*
G01X11455874Y618178D03*
G01X11571719Y618178D03*
G01X11687563Y618178D03*
G01X11803407Y618178D03*
G01X11919251Y618178D03*
G01X11057340Y735480D03*
G01X11173185Y735480D03*
G01X11289029Y735480D03*
G01X11404873Y735480D03*
G01X11520718Y735480D03*
G01X11636562Y735480D03*
G01X11752407Y735480D03*
G01X11868251Y735480D03*
G01X10873738Y817081D03*
G01X10989582Y817081D03*
G01X11105427Y817081D03*
G01X11221271Y817081D03*
G01X11337116Y817081D03*
G01X11452960Y817081D03*
G01X11568804Y817081D03*
G01X11684648Y817081D03*
G01X9807824Y806881D03*
G01X9923668Y806881D03*
G01X10039513Y806881D03*
G01X10155357Y806881D03*
G01X10271202Y806881D03*
G01X10387046Y806881D03*
G01X10502890Y806881D03*
G01X10618735Y806881D03*
G01X11200142Y-208032D03*
G01X11183385Y-284533D03*
G01X11299229Y-284533D03*
G01X11415073Y-284533D03*
G01X11530918Y-284533D03*
G01X11646762Y-284533D03*
G01X11762607Y-284533D03*
G01X11878451Y-284533D03*
G01X11098141Y-616038D03*
G01X11213985Y-616038D03*
G01X11329830Y-616038D03*
G01X11445674Y-616038D03*
G01X11561518Y-616038D03*
G01X11677363Y-616038D03*
G01X11793207Y-616038D03*
G01X11909051Y-616038D03*
G01X11031840Y-697639D03*
G01X11147684Y-697639D03*
G01X11263529Y-697639D03*
G01X11379373Y-697639D03*
G01X11495218Y-697639D03*
G01X11611062Y-697639D03*
G01X11726906Y-697639D03*
G01X11842751Y-697639D03*
G01X10965539Y-774140D03*
G01X11081383Y-774140D03*
G01X11197228Y-774140D03*
G01X11313072Y-774140D03*
G01X11428917Y-774140D03*
G01X11544761Y-774140D03*
G01X11660605Y-774140D03*
G01X11776450Y-774140D03*
G01X10094554Y-681268D03*
G01X10210398Y-681268D03*
G01X10326242Y-681268D03*
G01X10442087Y-681268D03*
G01X10557931Y-681268D03*
G01X10673775Y-681268D03*
G01X10789620Y-681268D03*
G01X10905464Y-681268D03*
G01X9053014Y-738439D03*
G01X9168859Y-738439D03*
G01X9284703Y-738439D03*
G01X9400547Y-738439D03*
G01X9516392Y-738439D03*
G01X9632236Y-738439D03*
G01X9748081Y-738439D03*
G01X9863925Y-738439D03*
G01X7931000Y-763940D03*
G01X8046844Y-763940D03*
G01X8162689Y-763940D03*
G01X8278533Y-763940D03*
G01X8394377Y-763940D03*
G01X8510222Y-763940D03*
G01X8626066Y-763940D03*
G01X8741910Y-763940D03*
G01X6814085Y-738439D03*
G01X6929930Y-738439D03*
G01X7045774Y-738439D03*
G01X7161618Y-738439D03*
G01X7277463Y-738439D03*
G01X7393307Y-738439D03*
G01X7509152Y-738439D03*
G01X7624996Y-738439D03*
G01X5727771Y-738439D03*
G01X5843616Y-738439D03*
G01X5959460Y-738439D03*
G01X6075304Y-738439D03*
G01X6191149Y-738439D03*
G01X6306993Y-738439D03*
G01X6422838Y-738439D03*
G01X6538682Y-738439D03*
G01X4427255Y-718039D03*
G01X4543099Y-718039D03*
G01X4658943Y-718039D03*
G01X4774788Y-718039D03*
G01X4890632Y-718039D03*
G01X5006476Y-718039D03*
G01X5122321Y-718039D03*
G01X5238165Y-718039D03*
G01X2948235Y-733339D03*
G01X3064080Y-733339D03*
G01X3179924Y-733339D03*
G01X3295768Y-733339D03*
G01X3411613Y-733339D03*
G01X3527457Y-733339D03*
G01X3643302Y-733339D03*
G01X3759146Y-733339D03*
G01X1719119Y-748639D03*
G01X1834964Y-748639D03*
G01X1950808Y-748639D03*
G01X2066652Y-748639D03*
G01X2182497Y-748639D03*
G01X2298341Y-748639D03*
G01X2414186Y-748639D03*
G01X2530030Y-748639D03*
G01X117699Y-707839D03*
G01X233543Y-707839D03*
G01X349387Y-707839D03*
G01X465232Y-707839D03*
G01X581076Y-707839D03*
G01X696921Y-707839D03*
G01X812765Y-707839D03*
G01X928609Y-707839D03*
G01X-193405Y720180D03*
G01X65241Y842581D03*
G01X181085Y842581D03*
G01X296930Y842581D03*
G01X412774Y842581D03*
G01X528618Y842581D03*
G01X644463Y842581D03*
G01X-208705Y516177D03*
G01X-157705Y-386535D03*
G01X-41860Y-386535D03*
G01X73984Y-386535D03*
G01X189828Y-386535D03*
G01X305673Y-386535D03*
G01X421517Y-386535D03*
G01X537361Y-386535D03*
G01X653206Y-386535D03*
G01X2825834Y-381435D03*
G01X2941678Y-381435D03*
G01X3057522Y-381435D03*
G01X3173367Y-381435D03*
G01X3289211Y-381435D03*
G01X3405056Y-381435D03*
G01X3520900Y-381435D03*
G01X3636744Y-381435D03*
G01X6125577Y-371234D03*
G01X6241421Y-371234D03*
G01X6357265Y-371234D03*
G01X6473109Y-371234D03*
G01X6588954Y-371234D03*
G01X6704798Y-371234D03*
G01X6820643Y-371234D03*
G01X6936487Y-371234D03*
G01X6018475Y842581D03*
G01X6134319Y842581D03*
G01X6250164Y842581D03*
G01X6366008Y842581D03*
G01X6481853Y842581D03*
G01X6597697Y842581D03*
G01X6713541Y842581D03*
G01X6829386Y842581D03*
G01X2825834Y837481D03*
G01X2941678Y837481D03*
G01X3057522Y837481D03*
G01X3173367Y837481D03*
G01X3289211Y837481D03*
G01X3405056Y837481D03*
G01X3520900Y837481D03*
G01X3636744Y837481D03*
G01X9588521Y694679D03*
G01X9704366Y694679D03*
G01X9820210Y694679D03*
G01X9936054Y694679D03*
G01X10051899Y694679D03*
G01X10167743Y694679D03*
G01X10283588Y694679D03*
G01X10399432Y694679D03*
G01X8956113Y-519136D03*
G01X9071957Y-519136D03*
G01X9187802Y-519136D03*
G01X9303646Y-519136D03*
G01X9419491Y-519136D03*
G01X9535335Y-519136D03*
G01X9651179Y-519136D03*
G01X9767024Y-519136D03*
G04 Via End*

G04 Track Start*
G54D17*
G01X9771479Y0D02*
G01X9771479Y-254755D01*
G01X9873728Y-357005D01*
G01X10761139Y-357005D01*
G54D18*
G01X11560520Y127000D02*
G01X11245144Y127000D01*
G01X11036543Y127000D01*
G54D17*
G01X10761139Y-357005D02*
G01X11245144Y127000D01*
G54D19*
G01X9771479Y0D02*
G01X9771479Y49000D01*
G01X9111570Y708909D01*
G01X-128502Y284604D02*
G01X-128502Y0D01*
G01X295804Y708909D02*
G01X-128502Y284604D01*
G54D20*
G01X3171492Y700163D02*
G01X3162746Y708909D01*
G54D19*
G01X3162746Y708909D02*
G01X295804Y708909D01*
G54D20*
G01X3171492Y0D02*
G01X3171492Y700163D01*
G01X6471485Y0D02*
G01X6471485Y707536D01*
G01X6472859Y708909D01*
G54D19*
G01X9111570Y708909D02*
G01X6472859Y708909D01*
G01X3162746Y708909D01*
G54D20*
G01X6676486Y0D02*
G01X6676486Y545207D01*
G01X6675986Y545707D01*
G01X3376493Y0D02*
G01X3376493Y540607D01*
G54D19*
G01X336604Y265203D02*
G01X336604Y260105D01*
G01X76499Y0D01*
G54D20*
G01X9976479Y0D02*
G01X9976479Y346804D01*
G04 Track End*

M02*

