G04 Layer: BottomLayer*
G04 EasyEDA Pro v2.2.32.3, 2026-04-03 18:26:48*
G04 Gerber Generator version 0.3*
G04 Scale: 100 percent, Rotated: No, Reflected: No*
G04 Dimensions in millimeters*
G04 Leading zeros omitted, absolute positions, 3 integers and 5 decimals*
%FSLAX35Y35*%
%MOMM*%
%ADD10C,0.2032*%
%ADD11R,0.889X0.889*%
%ADD12R,1.4X1.0*%
%ADD13R,0.67201X1.575*%
%ADD14C,0.6*%
%ADD15C,0.8*%
%ADD16C,1.5010*%
%ADD17C,1.5*%
%ADD18C,1.0*%
%ADD19C,1.2*%
G75*


G04 Copper Start*
G36*
G01X-414185Y749999D02*
G02X-249999Y914184I164186J0D01*
G01X11849976Y914184D01*
G02X12014162Y749999I0J-164186D01*
G01X12014162Y-749998D01*
G02X11849976Y-914184I-164186J0D01*
G01X-249999Y-914184D01*
G02X-414185Y-749998I0J164186D01*
G01X-414185Y749999D01*
G37*
%LPC*%
G36*
G01X275925Y325883D02*
G03X397284Y204524I60680J-60680D01*
G01X652653Y459893D01*
G01X1511090Y459893D01*
G03X1650000Y-480414I138910J-459893D01*
G03X1788910Y459893I0J480414D01*
G01X4811080Y459893D01*
G03X4949990Y-480414I138910J-459893D01*
G03X5088900Y459893I0J480414D01*
G01X8111073Y459893D01*
G03X8249984Y-480414I138910J-459893D01*
G03X8388894Y459893I0J480414D01*
G01X9073173Y459893D01*
G01X9254119Y278946D01*
G03X9314799Y253812I60680J60680D01*
G01X10175224Y253812D01*
G03X10210334Y225062I35110J7064D01*
G01X10277535Y225062D01*
G03X10313349Y260876I0J35814D01*
G01X10313349Y289171D01*
G03X10313349Y390081I-69414J50455D01*
G01X10313349Y418376D01*
G03X10277535Y454190I-35814J0D01*
G01X10210334Y454190D01*
G03X10175224Y425440I0J-35814D01*
G01X9350344Y425440D01*
G01X9169398Y606387D01*
G03X9108718Y631521I-60680J-60680D01*
G01X617108Y631521D01*
G03X556428Y606387I0J-85814D01*
G01X275925Y325883D01*
G37*
G36*
G01X10474520Y309140D02*
G01X10474520Y260876D01*
G03X10510334Y225062I35814J0D01*
G01X10577535Y225062D01*
G03X10613349Y260876I0J35814D01*
G01X10613349Y268292D01*
G01X10839028Y268292D01*
G01X10839028Y213701D01*
G03X10871484Y135344I110814J0D01*
G01X10958186Y48643D01*
G03X11114900Y205357I78357J78357D01*
G01X11060656Y259602D01*
G01X11060656Y364106D01*
G03X11055656Y397017I-110814J0D01*
G01X11055656Y414106D01*
G03X11019954Y449920I-35814J0D01*
G03X10894169Y459920I-70112J-85814D01*
G01X10568414Y459920D01*
G03X10535777Y454190I0J-95814D01*
G01X10510334Y454190D01*
G03X10474520Y418376I0J-35814D01*
G01X10474520Y383189D01*
G03X10472608Y365323I93894J-19083D01*
G03X10474520Y309140I71326J-25697D01*
G37*
%LPD*%
G54D10*
G01X-414185Y749999D02*
G02X-249999Y914184I164186J0D01*
G01X11849976Y914184D01*
G02X12014162Y749999I0J-164186D01*
G01X12014162Y-749998D01*
G02X11849976Y-914184I-164186J0D01*
G01X-249999Y-914184D01*
G02X-414185Y-749998I0J164186D01*
G01X-414185Y749999D01*
G01X275925Y325883D02*
G03X397284Y204524I60680J-60680D01*
G01X652653Y459893D01*
G01X1511090Y459893D01*
G03X1650000Y-480414I138910J-459893D01*
G03X1788910Y459893I0J480414D01*
G01X4811080Y459893D01*
G03X4949990Y-480414I138910J-459893D01*
G03X5088900Y459893I0J480414D01*
G01X8111073Y459893D01*
G03X8249984Y-480414I138910J-459893D01*
G03X8388894Y459893I0J480414D01*
G01X9073173Y459893D01*
G01X9254119Y278946D01*
G03X9314799Y253812I60680J60680D01*
G01X10175224Y253812D01*
G03X10210334Y225062I35110J7064D01*
G01X10277535Y225062D01*
G03X10313349Y260876I0J35814D01*
G01X10313349Y289171D01*
G03X10313349Y390081I-69414J50455D01*
G01X10313349Y418376D01*
G03X10277535Y454190I-35814J0D01*
G01X10210334Y454190D01*
G03X10175224Y425440I0J-35814D01*
G01X9350344Y425440D01*
G01X9169398Y606387D01*
G03X9108718Y631521I-60680J-60680D01*
G01X617108Y631521D01*
G03X556428Y606387I0J-85814D01*
G01X275925Y325883D01*
G01X10474520Y309140D02*
G01X10474520Y260876D01*
G03X10510334Y225062I35814J0D01*
G01X10577535Y225062D01*
G03X10613349Y260876I0J35814D01*
G01X10613349Y268292D01*
G01X10839028Y268292D01*
G01X10839028Y213701D01*
G03X10871484Y135344I110814J0D01*
G01X10958186Y48643D01*
G03X11114900Y205357I78357J78357D01*
G01X11060656Y259602D01*
G01X11060656Y364106D01*
G03X11055656Y397017I-110814J0D01*
G01X11055656Y414106D01*
G03X11019954Y449920I-35814J0D01*
G03X10894169Y459920I-70112J-85814D01*
G01X10568414Y459920D01*
G03X10535777Y454190I0J-95814D01*
G01X10510334Y454190D01*
G03X10474520Y418376I0J-35814D01*
G01X10474520Y383189D01*
G03X10472608Y365323I93894J-19083D01*
G03X10474520Y309140I71326J-25697D01*
G04 Copper End*

G04 Pad Start*
G54D11*
G01X10756039Y521176D03*
G01X10756039Y366236D03*
G54D12*
G01X10949842Y364106D03*
G01X10949842Y564106D03*
G54D13*
G01X10243935Y339626D03*
G01X10543934Y339626D03*
G36*
G01X10488918Y-24318D02*
G01X10488811Y-28771D01*
G01X10488499Y-33213D01*
G01X10487978Y-37638D01*
G01X10487252Y-42032D01*
G01X10486317Y-46388D01*
G01X10485181Y-50693D01*
G01X10483845Y-54943D01*
G01X10482311Y-59124D01*
G01X10480582Y-63228D01*
G01X10478664Y-67249D01*
G01X10476558Y-71173D01*
G01X10474270Y-74996D01*
G01X10471806Y-78707D01*
G01X10469172Y-82299D01*
G01X10466373Y-85761D01*
G01X10463411Y-89090D01*
G01X10460300Y-92276D01*
G01X10457041Y-95313D01*
G01X10453645Y-98194D01*
G01X10450117Y-100912D01*
G01X10446464Y-103462D01*
G01X10442697Y-105837D01*
G01X10438821Y-108034D01*
G01X10434849Y-110048D01*
G01X10430785Y-111872D01*
G01X10426642Y-113505D01*
G01X10422426Y-114940D01*
G01X10418146Y-116177D01*
G01X10413813Y-117211D01*
G01X10409439Y-118041D01*
G01X10405027Y-118666D01*
G01X10400592Y-119083D01*
G01X10396144Y-119291D01*
G01X10391689Y-119291D01*
G01X10387242Y-119083D01*
G01X10382807Y-118666D01*
G01X10378395Y-118041D01*
G01X10374021Y-117211D01*
G01X10369688Y-116177D01*
G01X10365408Y-114940D01*
G01X10361191Y-113505D01*
G01X10357049Y-111872D01*
G01X10352985Y-110048D01*
G01X10349012Y-108034D01*
G01X10345136Y-105837D01*
G01X10341369Y-103462D01*
G01X10337717Y-100912D01*
G01X10334189Y-98194D01*
G01X10330793Y-95313D01*
G01X10327534Y-92276D01*
G01X10324422Y-89090D01*
G01X10321461Y-85761D01*
G01X10318662Y-82299D01*
G01X10316028Y-78707D01*
G01X10313564Y-74996D01*
G01X10311275Y-71173D01*
G01X10309170Y-67249D01*
G01X10307252Y-63228D01*
G01X10305522Y-59124D01*
G01X10303988Y-54943D01*
G01X10302652Y-50693D01*
G01X10301517Y-46388D01*
G01X10300582Y-42032D01*
G01X10299855Y-37638D01*
G01X10299335Y-33213D01*
G01X10299022Y-28771D01*
G01X10298916Y-24318D01*
G01X10298916Y161102D01*
G01X10299022Y165555D01*
G01X10299335Y169997D01*
G01X10299855Y174422D01*
G01X10300582Y178816D01*
G01X10301517Y183172D01*
G01X10302652Y187477D01*
G01X10303988Y191727D01*
G01X10305522Y195908D01*
G01X10307252Y200012D01*
G01X10309170Y204033D01*
G01X10311275Y207957D01*
G01X10313564Y211780D01*
G01X10316028Y215491D01*
G01X10318662Y219083D01*
G01X10321461Y222545D01*
G01X10324422Y225875D01*
G01X10327534Y229060D01*
G01X10330793Y232098D01*
G01X10334189Y234978D01*
G01X10337717Y237696D01*
G01X10341369Y240246D01*
G01X10345136Y242621D01*
G01X10349012Y244818D01*
G01X10352985Y246832D01*
G01X10360920Y248656D01*
G01X10360920Y418389D01*
G01X10426919Y418389D01*
G01X10426919Y248656D01*
G01X10434849Y246832D01*
G01X10438821Y244818D01*
G01X10442697Y242621D01*
G01X10446464Y240246D01*
G01X10450117Y237696D01*
G01X10453645Y234978D01*
G01X10457041Y232098D01*
G01X10460300Y229060D01*
G01X10463411Y225875D01*
G01X10466373Y222545D01*
G01X10469172Y219083D01*
G01X10471806Y215491D01*
G01X10474270Y211780D01*
G01X10476558Y207957D01*
G01X10478664Y204033D01*
G01X10480582Y200012D01*
G01X10482311Y195908D01*
G01X10483845Y191727D01*
G01X10485181Y187477D01*
G01X10486317Y183172D01*
G01X10487252Y178816D01*
G01X10487978Y174422D01*
G01X10488499Y169997D01*
G01X10488811Y165555D01*
G01X10488918Y161102D01*
G01X10488918Y-24318D01*
G37*
G04 Pad End*

G04 Via Start*
G54D14*
G01X11036543Y127000D03*
G01X336604Y265203D03*
G01X6675986Y545707D03*
G01X3376493Y540607D03*
G01X9976479Y346804D03*
G01X11108341Y618178D03*
G01X11224185Y618178D03*
G01X11340030Y618178D03*
G01X11455874Y618178D03*
G01X11571719Y618178D03*
G01X11687563Y618178D03*
G01X11803407Y618178D03*
G01X11919251Y618178D03*
G01X11057340Y735480D03*
G01X11173185Y735480D03*
G01X11289029Y735480D03*
G01X11404873Y735480D03*
G01X11520718Y735480D03*
G01X11636562Y735480D03*
G01X11752407Y735480D03*
G01X11868251Y735480D03*
G01X10873738Y817081D03*
G01X10989582Y817081D03*
G01X11105427Y817081D03*
G01X11221271Y817081D03*
G01X11337116Y817081D03*
G01X11452960Y817081D03*
G01X11568804Y817081D03*
G01X11684648Y817081D03*
G01X9807824Y806881D03*
G01X9923668Y806881D03*
G01X10039513Y806881D03*
G01X10155357Y806881D03*
G01X10271202Y806881D03*
G01X10387046Y806881D03*
G01X10502890Y806881D03*
G01X10618735Y806881D03*
G01X11200142Y-208032D03*
G01X11183385Y-284533D03*
G01X11299229Y-284533D03*
G01X11415073Y-284533D03*
G01X11530918Y-284533D03*
G01X11646762Y-284533D03*
G01X11762607Y-284533D03*
G01X11878451Y-284533D03*
G01X11098141Y-616038D03*
G01X11213985Y-616038D03*
G01X11329830Y-616038D03*
G01X11445674Y-616038D03*
G01X11561518Y-616038D03*
G01X11677363Y-616038D03*
G01X11793207Y-616038D03*
G01X11909051Y-616038D03*
G01X11031840Y-697639D03*
G01X11147684Y-697639D03*
G01X11263529Y-697639D03*
G01X11379373Y-697639D03*
G01X11495218Y-697639D03*
G01X11611062Y-697639D03*
G01X11726906Y-697639D03*
G01X11842751Y-697639D03*
G01X10965539Y-774140D03*
G01X11081383Y-774140D03*
G01X11197228Y-774140D03*
G01X11313072Y-774140D03*
G01X11428917Y-774140D03*
G01X11544761Y-774140D03*
G01X11660605Y-774140D03*
G01X11776450Y-774140D03*
G01X10094554Y-681268D03*
G01X10210398Y-681268D03*
G01X10326242Y-681268D03*
G01X10442087Y-681268D03*
G01X10557931Y-681268D03*
G01X10673775Y-681268D03*
G01X10789620Y-681268D03*
G01X10905464Y-681268D03*
G01X9053014Y-738439D03*
G01X9168859Y-738439D03*
G01X9284703Y-738439D03*
G01X9400547Y-738439D03*
G01X9516392Y-738439D03*
G01X9632236Y-738439D03*
G01X9748081Y-738439D03*
G01X9863925Y-738439D03*
G01X7931000Y-763940D03*
G01X8046844Y-763940D03*
G01X8162689Y-763940D03*
G01X8278533Y-763940D03*
G01X8394377Y-763940D03*
G01X8510222Y-763940D03*
G01X8626066Y-763940D03*
G01X8741910Y-763940D03*
G01X6814085Y-738439D03*
G01X6929930Y-738439D03*
G01X7045774Y-738439D03*
G01X7161618Y-738439D03*
G01X7277463Y-738439D03*
G01X7393307Y-738439D03*
G01X7509152Y-738439D03*
G01X7624996Y-738439D03*
G01X5727771Y-738439D03*
G01X5843616Y-738439D03*
G01X5959460Y-738439D03*
G01X6075304Y-738439D03*
G01X6191149Y-738439D03*
G01X6306993Y-738439D03*
G01X6422838Y-738439D03*
G01X6538682Y-738439D03*
G01X4427255Y-718039D03*
G01X4543099Y-718039D03*
G01X4658943Y-718039D03*
G01X4774788Y-718039D03*
G01X4890632Y-718039D03*
G01X5006476Y-718039D03*
G01X5122321Y-718039D03*
G01X5238165Y-718039D03*
G01X2948235Y-733339D03*
G01X3064080Y-733339D03*
G01X3179924Y-733339D03*
G01X3295768Y-733339D03*
G01X3411613Y-733339D03*
G01X3527457Y-733339D03*
G01X3643302Y-733339D03*
G01X3759146Y-733339D03*
G01X1719119Y-748639D03*
G01X1834964Y-748639D03*
G01X1950808Y-748639D03*
G01X2066652Y-748639D03*
G01X2182497Y-748639D03*
G01X2298341Y-748639D03*
G01X2414186Y-748639D03*
G01X2530030Y-748639D03*
G01X117699Y-707839D03*
G01X233543Y-707839D03*
G01X349387Y-707839D03*
G01X465232Y-707839D03*
G01X581076Y-707839D03*
G01X696921Y-707839D03*
G01X812765Y-707839D03*
G01X928609Y-707839D03*
G01X-193405Y720180D03*
G01X65241Y842581D03*
G01X181085Y842581D03*
G01X296930Y842581D03*
G01X412774Y842581D03*
G01X528618Y842581D03*
G01X644463Y842581D03*
G01X-208705Y516177D03*
G01X-157705Y-386535D03*
G01X-41860Y-386535D03*
G01X73984Y-386535D03*
G01X189828Y-386535D03*
G01X305673Y-386535D03*
G01X421517Y-386535D03*
G01X537361Y-386535D03*
G01X653206Y-386535D03*
G01X2825834Y-381435D03*
G01X2941678Y-381435D03*
G01X3057522Y-381435D03*
G01X3173367Y-381435D03*
G01X3289211Y-381435D03*
G01X3405056Y-381435D03*
G01X3520900Y-381435D03*
G01X3636744Y-381435D03*
G01X6125577Y-371234D03*
G01X6241421Y-371234D03*
G01X6357265Y-371234D03*
G01X6473109Y-371234D03*
G01X6588954Y-371234D03*
G01X6704798Y-371234D03*
G01X6820643Y-371234D03*
G01X6936487Y-371234D03*
G01X6018475Y842581D03*
G01X6134319Y842581D03*
G01X6250164Y842581D03*
G01X6366008Y842581D03*
G01X6481853Y842581D03*
G01X6597697Y842581D03*
G01X6713541Y842581D03*
G01X6829386Y842581D03*
G01X2825834Y837481D03*
G01X2941678Y837481D03*
G01X3057522Y837481D03*
G01X3173367Y837481D03*
G01X3289211Y837481D03*
G01X3405056Y837481D03*
G01X3520900Y837481D03*
G01X3636744Y837481D03*
G01X9588521Y694679D03*
G01X9704366Y694679D03*
G01X9820210Y694679D03*
G01X9936054Y694679D03*
G01X10051899Y694679D03*
G01X10167743Y694679D03*
G01X10283588Y694679D03*
G01X10399432Y694679D03*
G01X8956113Y-519136D03*
G01X9071957Y-519136D03*
G01X9187802Y-519136D03*
G01X9303646Y-519136D03*
G01X9419491Y-519136D03*
G01X9535335Y-519136D03*
G01X9651179Y-519136D03*
G01X9767024Y-519136D03*
G04 Via End*

G04 Track Start*
G54D15*
G01X10568414Y364106D02*
G01X10543934Y339626D01*
G54D17*
G01X11036543Y127000D02*
G01X10949842Y213701D01*
G01X10949842Y364106D01*
G54D18*
G01X9314799Y339626D02*
G01X9108718Y545707D01*
G54D19*
G01X10949842Y364106D02*
G01X10568414Y364106D01*
G54D18*
G01X9108718Y545707D02*
G01X6675986Y545707D01*
G01X617108Y545707D02*
G01X336604Y265203D01*
G01X10243935Y339626D02*
G01X9314799Y339626D01*
G01X6675986Y545707D02*
G01X617108Y545707D01*
G04 Track End*

M02*

