G04 Layer: DrillDrawingLayer*
G04 EasyEDA Pro v2.2.32.3, 2026-04-03 18:26:48*
G04 Gerber Generator version 0.3*
G04 Scale: 100 percent, Rotated: No, Reflected: No*
G04 Dimensions in millimeters*
G04 Leading zeros omitted, absolute positions, 3 integers and 5 decimals*
%FSLAX35Y35*%
%MOMM*%
%AMIconRect*4,1,4,0.2,-0.2,-0.2,-0.2,-0.2,0.2,0.2,0.2,0.2,-0.2,0*4,0,4,0.166667,-0.166667,0.166667,0.166667,-0.166667,0.166667,-0.166667,-0.166667,0.166667,-0.166667,0*%
%ADD10IconRect*%
G75*


G04 Drill Drawing Start*
G54D10*
G01X-208705Y516177D03*
G01X-193405Y720180D03*
G01X-157705Y-386535D03*
G01X-41860Y-386535D03*
G01X65241Y842581D03*
G01X73984Y-386535D03*
G01X117699Y-707839D03*
G01X181085Y842581D03*
G01X189828Y-386535D03*
G01X233543Y-707839D03*
G01X296930Y842581D03*
G01X305673Y-386535D03*
G01X336604Y265203D03*
G01X349387Y-707839D03*
G01X412774Y842581D03*
G01X421517Y-386535D03*
G01X465232Y-707839D03*
G01X528618Y842581D03*
G01X537361Y-386535D03*
G01X581076Y-707839D03*
G01X644463Y842581D03*
G01X653206Y-386535D03*
G01X696921Y-707839D03*
G01X812765Y-707839D03*
G01X928609Y-707839D03*
G01X1719119Y-748639D03*
G01X1834964Y-748639D03*
G01X1950808Y-748639D03*
G01X2066652Y-748639D03*
G01X2182497Y-748639D03*
G01X2298341Y-748639D03*
G01X2414186Y-748639D03*
G01X2530030Y-748639D03*
G01X2825834Y-381435D03*
G01X2825834Y837481D03*
G01X2941678Y-381435D03*
G01X2941678Y837481D03*
G01X2948235Y-733339D03*
G01X3057522Y-381435D03*
G01X3057522Y837481D03*
G01X3064080Y-733339D03*
G01X3173367Y-381435D03*
G01X3173367Y837481D03*
G01X3179924Y-733339D03*
G01X3289211Y-381435D03*
G01X3289211Y837481D03*
G01X3295768Y-733339D03*
G01X3376493Y540607D03*
G01X3405056Y-381435D03*
G01X3405056Y837481D03*
G01X3411613Y-733339D03*
G01X3520900Y-381435D03*
G01X3520900Y837481D03*
G01X3527457Y-733339D03*
G01X3636744Y-381435D03*
G01X3636744Y837481D03*
G01X3643302Y-733339D03*
G01X3759146Y-733339D03*
G01X4427255Y-718039D03*
G01X4543099Y-718039D03*
G01X4658943Y-718039D03*
G01X4774788Y-718039D03*
G01X4890632Y-718039D03*
G01X5006476Y-718039D03*
G01X5122321Y-718039D03*
G01X5238165Y-718039D03*
G01X5727771Y-738439D03*
G01X5843616Y-738439D03*
G01X5959460Y-738439D03*
G01X6018475Y842581D03*
G01X6075304Y-738439D03*
G01X6125577Y-371234D03*
G01X6134319Y842581D03*
G01X6191149Y-738439D03*
G01X6241421Y-371234D03*
G01X6250164Y842581D03*
G01X6306993Y-738439D03*
G01X6357265Y-371234D03*
G01X6366008Y842581D03*
G01X6422838Y-738439D03*
G01X6473109Y-371234D03*
G01X6481853Y842581D03*
G01X6538682Y-738439D03*
G01X6588954Y-371234D03*
G01X6597697Y842581D03*
G01X6675986Y545707D03*
G01X6704798Y-371234D03*
G01X6713541Y842581D03*
G01X6814085Y-738439D03*
G01X6820643Y-371234D03*
G01X6829386Y842581D03*
G01X6929930Y-738439D03*
G01X6936487Y-371234D03*
G01X7045774Y-738439D03*
G01X7161618Y-738439D03*
G01X7277463Y-738439D03*
G01X7393307Y-738439D03*
G01X7509152Y-738439D03*
G01X7624996Y-738439D03*
G01X7931000Y-763940D03*
G01X8046844Y-763940D03*
G01X8162689Y-763940D03*
G01X8278533Y-763940D03*
G01X8394377Y-763940D03*
G01X8510222Y-763940D03*
G01X8626066Y-763940D03*
G01X8741910Y-763940D03*
G01X8956113Y-519136D03*
G01X9053014Y-738439D03*
G01X9071957Y-519136D03*
G01X9168859Y-738439D03*
G01X9187802Y-519136D03*
G01X9284703Y-738439D03*
G01X9303646Y-519136D03*
G01X9400547Y-738439D03*
G01X9419491Y-519136D03*
G01X9516392Y-738439D03*
G01X9535335Y-519136D03*
G01X9588521Y694679D03*
G01X9632236Y-738439D03*
G01X9651179Y-519136D03*
G01X9704366Y694679D03*
G01X9748081Y-738439D03*
G01X9767024Y-519136D03*
G01X9807824Y806881D03*
G01X9820210Y694679D03*
G01X9863925Y-738439D03*
G01X9923668Y806881D03*
G01X9936054Y694679D03*
G01X9976479Y346804D03*
G01X10039513Y806881D03*
G01X10051899Y694679D03*
G01X10094554Y-681268D03*
G01X10155357Y806881D03*
G01X10167743Y694679D03*
G01X10210398Y-681268D03*
G01X10271202Y806881D03*
G01X10283588Y694679D03*
G01X10326242Y-681268D03*
G01X10387046Y806881D03*
G01X10399432Y694679D03*
G01X10442087Y-681268D03*
G01X10502890Y806881D03*
G01X10557931Y-681268D03*
G01X10618735Y806881D03*
G01X10673775Y-681268D03*
G01X10789620Y-681268D03*
G01X10873738Y817081D03*
G01X10905464Y-681268D03*
G01X10965539Y-774140D03*
G01X10989582Y817081D03*
G01X11031840Y-697639D03*
G01X11036543Y127000D03*
G01X11057340Y735480D03*
G01X11081383Y-774140D03*
G01X11098141Y-616038D03*
G01X11105427Y817081D03*
G01X11108341Y618178D03*
G01X11147684Y-697639D03*
G01X11173185Y735480D03*
G01X11183385Y-284533D03*
G01X11197228Y-774140D03*
G01X11200142Y-208032D03*
G01X11213985Y-616038D03*
G01X11221271Y817081D03*
G01X11224185Y618178D03*
G01X11263529Y-697639D03*
G01X11289029Y735480D03*
G01X11299229Y-284533D03*
G01X11313072Y-774140D03*
G01X11329830Y-616038D03*
G01X11337116Y817081D03*
G01X11340030Y618178D03*
G01X11379373Y-697639D03*
G01X11404873Y735480D03*
G01X11415073Y-284533D03*
G01X11428917Y-774140D03*
G01X11445674Y-616038D03*
G01X11452960Y817081D03*
G01X11455874Y618178D03*
G01X11495218Y-697639D03*
G01X11520718Y735480D03*
G01X11530918Y-284533D03*
G01X11544761Y-774140D03*
G01X11561518Y-616038D03*
G01X11568804Y817081D03*
G01X11571719Y618178D03*
G01X11611062Y-697639D03*
G01X11636562Y735480D03*
G01X11646762Y-284533D03*
G01X11660605Y-774140D03*
G01X11677363Y-616038D03*
G01X11684648Y817081D03*
G01X11687563Y618178D03*
G01X11726906Y-697639D03*
G01X11752407Y735480D03*
G01X11762607Y-284533D03*
G01X11776450Y-774140D03*
G01X11793207Y-616038D03*
G01X11803407Y618178D03*
G01X11842751Y-697639D03*
G01X11868251Y735480D03*
G01X11878451Y-284533D03*
G01X11909051Y-616038D03*
G01X11919251Y618178D03*
G04 Drill Drawing End*

M02*

