G04 Layer: TopSilkscreenLayer*
G04 EasyEDA Pro v2.2.32.3, 2026-04-03 18:26:48*
G04 Gerber Generator version 0.3*
G04 Scale: 100 percent, Rotated: No, Reflected: No*
G04 Dimensions in millimeters*
G04 Leading zeros omitted, absolute positions, 3 integers and 5 decimals*
%FSLAX35Y35*%
%MOMM*%
%ADD10C,0.12*%
%ADD11C,0.01*%
%ADD12C,0.254*%
G75*


G04 Text Start*
G54D10*
G01X11904423Y-127488D02*
G01X11897057Y-131044D01*
G01X11889691Y-138410D01*
G01X11886135Y-145776D01*
G01X11886135Y-160508D01*
G01X11889691Y-167874D01*
G01X11897057Y-175240D01*
G01X11904423Y-179050D01*
G01X11915599Y-182606D01*
G01X11934141Y-182606D01*
G01X11945063Y-179050D01*
G01X11952429Y-175240D01*
G01X11959795Y-167874D01*
G01X11963605Y-160508D01*
G01X11963605Y-145776D01*
G01X11959795Y-138410D01*
G01X11952429Y-131044D01*
G01X11945063Y-127488D01*
G01X11886135Y-97770D02*
G01X11963605Y-97770D01*
G01X11886135Y-97770D02*
G01X11963605Y-46208D01*
G01X11886135Y-46208D02*
G01X11963605Y-46208D01*
G01X11900867Y-16490D02*
G01X11897057Y-9124D01*
G01X11886135Y2052D01*
G01X11963605Y2052D01*
G01X-345161Y347172D02*
G01X-345161Y269702D01*
G01X-345161Y269702D02*
G01X-300965Y269702D01*
G01X-271247Y347172D02*
G01X-271247Y269702D01*
G01X-271247Y347172D02*
G01X-223241Y347172D01*
G01X-271247Y310342D02*
G01X-241783Y310342D01*
G01X-271247Y269702D02*
G01X-223241Y269702D01*
G01X-193523Y347172D02*
G01X-193523Y269702D01*
G01X-193523Y347172D02*
G01X-167615Y347172D01*
G01X-156693Y343616D01*
G01X-149327Y336250D01*
G01X-145517Y328884D01*
G01X-141961Y317708D01*
G01X-141961Y299166D01*
G01X-145517Y288244D01*
G01X-149327Y280878D01*
G01X-156693Y273512D01*
G01X-167615Y269702D01*
G01X-193523Y269702D01*
G01X-112243Y332440D02*
G01X-104877Y336250D01*
G01X-93701Y347172D01*
G01X-93701Y269702D01*
G01X6254826Y347172D02*
G01X6254826Y269702D01*
G01X6254826Y269702D02*
G01X6299022Y269702D01*
G01X6328740Y347172D02*
G01X6328740Y269702D01*
G01X6328740Y347172D02*
G01X6376746Y347172D01*
G01X6328740Y310342D02*
G01X6358204Y310342D01*
G01X6328740Y269702D02*
G01X6376746Y269702D01*
G01X6406464Y347172D02*
G01X6406464Y269702D01*
G01X6406464Y347172D02*
G01X6432372Y347172D01*
G01X6443294Y343616D01*
G01X6450660Y336250D01*
G01X6454470Y328884D01*
G01X6458026Y317708D01*
G01X6458026Y299166D01*
G01X6454470Y288244D01*
G01X6450660Y280878D01*
G01X6443294Y273512D01*
G01X6432372Y269702D01*
G01X6406464Y269702D01*
G01X6491300Y328884D02*
G01X6491300Y332440D01*
G01X6495110Y339806D01*
G01X6498666Y343616D01*
G01X6506286Y347172D01*
G01X6521018Y347172D01*
G01X6528384Y343616D01*
G01X6531940Y339806D01*
G01X6535750Y332440D01*
G01X6535750Y325074D01*
G01X6531940Y317708D01*
G01X6524574Y306532D01*
G01X6487744Y269702D01*
G01X6539306Y269702D01*
G01X2954832Y347172D02*
G01X2954832Y269702D01*
G01X2954832Y269702D02*
G01X2999028Y269702D01*
G01X3028746Y347172D02*
G01X3028746Y269702D01*
G01X3028746Y347172D02*
G01X3076752Y347172D01*
G01X3028746Y310342D02*
G01X3058210Y310342D01*
G01X3028746Y269702D02*
G01X3076752Y269702D01*
G01X3106470Y347172D02*
G01X3106470Y269702D01*
G01X3106470Y347172D02*
G01X3132378Y347172D01*
G01X3143300Y343616D01*
G01X3150666Y336250D01*
G01X3154476Y328884D01*
G01X3158032Y317708D01*
G01X3158032Y299166D01*
G01X3154476Y288244D01*
G01X3150666Y280878D01*
G01X3143300Y273512D01*
G01X3132378Y269702D01*
G01X3106470Y269702D01*
G01X3195116Y347172D02*
G01X3235756Y347172D01*
G01X3213658Y317708D01*
G01X3224580Y317708D01*
G01X3231946Y313898D01*
G01X3235756Y310342D01*
G01X3239312Y299166D01*
G01X3239312Y291800D01*
G01X3235756Y280878D01*
G01X3228390Y273512D01*
G01X3217214Y269702D01*
G01X3206292Y269702D01*
G01X3195116Y273512D01*
G01X3191306Y277068D01*
G01X3187750Y284434D01*
G01X9425918Y374423D02*
G01X9425918Y296953D01*
G01X9425918Y296953D02*
G01X9470114Y296953D01*
G01X9499832Y374423D02*
G01X9499832Y296953D01*
G01X9499832Y374423D02*
G01X9547838Y374423D01*
G01X9499832Y337593D02*
G01X9529296Y337593D01*
G01X9499832Y296953D02*
G01X9547838Y296953D01*
G01X9577556Y374423D02*
G01X9577556Y296953D01*
G01X9577556Y374423D02*
G01X9603464Y374423D01*
G01X9614386Y370867D01*
G01X9621752Y363501D01*
G01X9625562Y356135D01*
G01X9629118Y344959D01*
G01X9629118Y326417D01*
G01X9625562Y315495D01*
G01X9621752Y308129D01*
G01X9614386Y300763D01*
G01X9603464Y296953D01*
G01X9577556Y296953D01*
G01X9695666Y374423D02*
G01X9658836Y322861D01*
G01X9714208Y322861D01*
G01X9695666Y374423D02*
G01X9695666Y296953D01*
G04 Text End*

G04 PolygonModel Start*
G54D11*
G01X11249978Y-499999D02*
G01X12049976Y-499999D01*
G01X12049976Y499999D02*
G01X11249978Y499999D01*
G01X11249978Y499999D02*
G01X11249978Y-499999D01*
G54D12*
G01X11998625Y-492013D02*
G01X12031213Y-492013D01*
G01X11435510Y-33896D02*
G01X11435510Y33871D01*
G01X11435510Y-492013D02*
G01X11435510Y-220129D01*
G01X11435510Y-492013D02*
G01X11642400Y-492013D01*
G01X11435510Y492001D02*
G01X11642400Y492001D01*
G01X11435510Y492001D02*
G01X11435510Y220104D01*
G01X12035511Y-492013D02*
G01X12035511Y492001D01*
G01X12035511Y492001D02*
G01X11998625Y492001D01*
G01X170500Y-128110D02*
G01X170500Y-139997D01*
G01X170500Y139997D02*
G01X170500Y128110D01*
G01X170500Y139997D02*
G01X-179500Y139997D01*
G01X-179500Y128110D02*
G01X-179500Y139997D01*
G01X-179500Y-139997D02*
G01X-179500Y-128110D01*
G01X170500Y-139997D02*
G01X-179500Y-139997D01*
G36*
G01X-351003Y174998D02*
G01X-201003Y174998D01*
G01X-201003Y124998D01*
G01X-351003Y124998D01*
G01X-351003Y174998D01*
G37*
G36*
G01X-301003Y74999D02*
G01X-301003Y224998D01*
G01X-251003Y224998D01*
G01X-251003Y74999D01*
G01X-301003Y74999D01*
G37*
G01X6770486Y-128110D02*
G01X6770486Y-139997D01*
G01X6770486Y139997D02*
G01X6770486Y128110D01*
G01X6770486Y139997D02*
G01X6420487Y139997D01*
G01X6420487Y128110D02*
G01X6420487Y139997D01*
G01X6420487Y-139997D02*
G01X6420487Y-128110D01*
G01X6770486Y-139997D02*
G01X6420487Y-139997D01*
G36*
G01X6248984Y174998D02*
G01X6398983Y174998D01*
G01X6398983Y124998D01*
G01X6248984Y124998D01*
G01X6248984Y174998D01*
G37*
G36*
G01X6298984Y74999D02*
G01X6298984Y224998D01*
G01X6348983Y224998D01*
G01X6348983Y74999D01*
G01X6298984Y74999D01*
G37*
G01X3470493Y-128110D02*
G01X3470493Y-139997D01*
G01X3470493Y139997D02*
G01X3470493Y128110D01*
G01X3470493Y139997D02*
G01X3120494Y139997D01*
G01X3120494Y128110D02*
G01X3120494Y139997D01*
G01X3120494Y-139997D02*
G01X3120494Y-128110D01*
G01X3470493Y-139997D02*
G01X3120494Y-139997D01*
G36*
G01X2948990Y174998D02*
G01X3098990Y174998D01*
G01X3098990Y124998D01*
G01X2948990Y124998D01*
G01X2948990Y174998D01*
G37*
G36*
G01X2998990Y74999D02*
G01X2998990Y224998D01*
G01X3048990Y224998D01*
G01X3048990Y74999D01*
G01X2998990Y74999D01*
G37*
G01X10070480Y-128110D02*
G01X10070480Y-139997D01*
G01X10070480Y139997D02*
G01X10070480Y128110D01*
G01X10070480Y139997D02*
G01X9720480Y139997D01*
G01X9720480Y128110D02*
G01X9720480Y139997D01*
G01X9720480Y-139997D02*
G01X9720480Y-128110D01*
G01X10070480Y-139997D02*
G01X9720480Y-139997D01*
G36*
G01X9548977Y174998D02*
G01X9698977Y174998D01*
G01X9698977Y124998D01*
G01X9548977Y124998D01*
G01X9548977Y174998D01*
G37*
G36*
G01X9598977Y74999D02*
G01X9598977Y224998D01*
G01X9648977Y224998D01*
G01X9648977Y74999D01*
G01X9598977Y74999D01*
G37*

G04 Circle Start*
G54D11*
G01X3049994Y0D02*
G03X3549993Y0I250000J0D01*
G03X3049994Y0I-249999J0D01*
G01X6349987Y0D02*
G03X6849986Y0I250000J0D01*
G03X6349987Y0I-249999J0D01*
G01X-249999Y0D02*
G03X250000Y0I250000J0D01*
G03X-249999Y0I-249999J0D01*
G01X9649981Y0D02*
G03X10149980Y0I250000J0D01*
G03X9649981Y0I-249999J0D01*
G04 Circle End*

M02*

