G04 Layer: BottomSilkscreenLayer*
G04 EasyEDA Pro v2.2.32.3, 2026-04-03 18:26:48*
G04 Gerber Generator version 0.3*
G04 Scale: 100 percent, Rotated: No, Reflected: No*
G04 Dimensions in millimeters*
G04 Leading zeros omitted, absolute positions, 3 integers and 5 decimals*
%FSLAX35Y35*%
%MOMM*%
%ADD10C,0.12*%
%ADD11C,0.2*%
%ADD12C,0.1524*%
G75*


G04 Text Start*
G36*
G01X8844159Y-714710D02*
G01X8844841Y-716073D01*
G01X8840182Y-716755D01*
G01X8826204Y-716983D01*
G01X8807568Y-716983D01*
G01X8807568Y-715846D01*
G01X8807966Y-714937D01*
G01X8809159Y-714482D01*
G01X8812341Y-714255D01*
G01X8814613Y-714028D01*
G01X8816204Y-713346D01*
G01X8817795Y-712210D01*
G01X8818932Y-710619D01*
G01X8819614Y-708119D01*
G01X8819841Y-661301D01*
G01X8819841Y-616073D01*
G01X8821432Y-616073D01*
G01X8823704Y-616528D01*
G01X8830977Y-620164D01*
G01X8834159Y-621528D01*
G01X8845068Y-626982D01*
G01X8845977Y-627664D01*
G01X8845977Y-628801D01*
G01X8845579Y-629426D01*
G01X8844841Y-629482D01*
G01X8843022Y-628801D01*
G01X8840523Y-628119D01*
G01X8838250Y-627664D01*
G01X8836204Y-627892D01*
G01X8834386Y-629028D01*
G01X8833477Y-630392D01*
G01X8832795Y-632664D01*
G01X8832341Y-635846D01*
G01X8832113Y-672664D01*
G01X8832341Y-708573D01*
G01X8832795Y-710164D01*
G01X8833704Y-711755D01*
G01X8835523Y-713119D01*
G01X8838704Y-714028D01*
G01X8842113Y-714255D01*
G01X8844159Y-714710D01*
G37*
G36*
G01X8925977Y-717664D02*
G01X8922341Y-718573D01*
G01X8915750Y-718801D01*
G01X8909159Y-718573D01*
G01X8905522Y-718119D01*
G01X8903704Y-717664D01*
G01X8901204Y-716983D01*
G01X8898477Y-716073D01*
G01X8896432Y-715164D01*
G01X8894613Y-714255D01*
G01X8892568Y-713119D01*
G01X8890522Y-711755D01*
G01X8888932Y-710392D01*
G01X8884386Y-705846D01*
G01X8883023Y-704028D01*
G01X8881432Y-701755D01*
G01X8880295Y-699482D01*
G01X8879386Y-697437D01*
G01X8878477Y-695164D01*
G01X8877795Y-692664D01*
G01X8877341Y-690392D01*
G01X8876886Y-687210D01*
G01X8876659Y-682891D01*
G01X8876886Y-679937D01*
G01X8877341Y-677664D01*
G01X8878023Y-675164D01*
G01X8878932Y-672891D01*
G01X8880068Y-670619D01*
G01X8881204Y-668801D01*
G01X8883477Y-666073D01*
G01X8884613Y-664937D01*
G01X8885750Y-664028D01*
G01X8887341Y-662664D01*
G01X8889613Y-661301D01*
G01X8891659Y-660164D01*
G01X8893704Y-659255D01*
G01X8894500Y-658744D01*
G01X8894613Y-658119D01*
G01X8893704Y-656982D01*
G01X8889159Y-652437D01*
G01X8886432Y-649028D01*
G01X8885522Y-647437D01*
G01X8884386Y-645392D01*
G01X8883477Y-643573D01*
G01X8882795Y-641755D01*
G01X8881886Y-638119D01*
G01X8881659Y-634710D01*
G01X8882113Y-631528D01*
G01X8882795Y-629710D01*
G01X8883477Y-628119D01*
G01X8884386Y-626528D01*
G01X8885750Y-624482D01*
G01X8887113Y-622664D01*
G01X8888704Y-621301D01*
G01X8891886Y-619028D01*
G01X8894159Y-617892D01*
G01X8896886Y-616983D01*
G01X8900068Y-616301D01*
G01X8905522Y-616073D01*
G01X8910068Y-616301D01*
G01X8912341Y-616983D01*
G01X8915068Y-617892D01*
G01X8916886Y-618801D01*
G01X8918704Y-619937D01*
G01X8920977Y-621528D01*
G01X8923704Y-624255D01*
G01X8924841Y-625619D01*
G01X8925750Y-626982D01*
G01X8926886Y-628573D01*
G01X8929159Y-632210D01*
G01X8930295Y-634482D01*
G01X8930977Y-636301D01*
G01X8930920Y-636869D01*
G01X8930295Y-637210D01*
G01X8929159Y-637437D01*
G01X8928250Y-636301D01*
G01X8927113Y-634710D01*
G01X8926204Y-633573D01*
G01X8923932Y-631301D01*
G01X8922568Y-630164D01*
G01X8921204Y-629255D01*
G01X8919613Y-628346D01*
G01X8917795Y-627437D01*
G01X8915977Y-626755D01*
G01X8914159Y-626301D01*
G01X8910522Y-625846D01*
G01X8908250Y-625846D01*
G01X8905295Y-626301D01*
G01X8903250Y-626982D01*
G01X8901659Y-627892D01*
G01X8899613Y-629255D01*
G01X8896886Y-631982D01*
G01X8895977Y-633346D01*
G01X8895295Y-634937D01*
G01X8894613Y-636755D01*
G01X8894159Y-638573D01*
G01X8893704Y-642210D01*
G01X8893704Y-644483D01*
G01X8894159Y-647664D01*
G01X8894841Y-650164D01*
G01X8895522Y-651982D01*
G01X8896432Y-653801D01*
G01X8897568Y-655392D01*
G01X8898932Y-657210D01*
G01X8900750Y-658801D01*
G01X8902114Y-659710D01*
G01X8903704Y-660846D01*
G01X8905522Y-661982D01*
G01X8909159Y-663801D01*
G01X8910977Y-664483D01*
G01X8914613Y-665392D01*
G01X8915977Y-666301D01*
G01X8915977Y-667437D01*
G01X8913023Y-667891D01*
G01X8909613Y-668119D01*
G01X8907568Y-668573D01*
G01X8905295Y-669255D01*
G01X8901659Y-670619D01*
G01X8899841Y-671528D01*
G01X8898250Y-672437D01*
G01X8896432Y-673573D01*
G01X8894841Y-674937D01*
G01X8893704Y-676073D01*
G01X8892341Y-677664D01*
G01X8891204Y-679483D01*
G01X8890295Y-681301D01*
G01X8889386Y-683346D01*
G01X8888477Y-685846D01*
G01X8887795Y-689482D01*
G01X8887568Y-694255D01*
G01X8887795Y-697664D01*
G01X8888477Y-699710D01*
G01X8889613Y-702210D01*
G01X8890977Y-704482D01*
G01X8892341Y-706073D01*
G01X8895295Y-709028D01*
G01X8896659Y-709937D01*
G01X8899841Y-711528D01*
G01X8902341Y-712210D01*
G01X8906659Y-712437D01*
G01X8910522Y-712210D01*
G01X8912113Y-711755D01*
G01X8913932Y-711073D01*
G01X8915977Y-710164D01*
G01X8921431Y-707437D01*
G01X8923477Y-706528D01*
G01X8927113Y-706073D01*
G01X8929102Y-706301D01*
G01X8930522Y-706982D01*
G01X8932113Y-708801D01*
G01X8932795Y-710846D01*
G01X8932568Y-713119D01*
G01X8931431Y-714710D01*
G01X8929841Y-715846D01*
G01X8927795Y-716983D01*
G01X8925977Y-717664D01*
G37*
G36*
G01X9058477Y-717892D02*
G01X9056659Y-718573D01*
G01X9052568Y-718801D01*
G01X9048250Y-718573D01*
G01X9045977Y-717892D01*
G01X9043477Y-716983D01*
G01X9041431Y-716073D01*
G01X9039841Y-715164D01*
G01X9036659Y-712892D01*
G01X9035522Y-711982D01*
G01X9032113Y-708573D01*
G01X9030750Y-706755D01*
G01X9029159Y-704482D01*
G01X9027795Y-702210D01*
G01X9024841Y-696301D01*
G01X9023932Y-693801D01*
G01X9023022Y-691073D01*
G01X9022113Y-688119D01*
G01X9021432Y-684937D01*
G01X9020977Y-682664D01*
G01X9020522Y-679483D01*
G01X9020068Y-675846D01*
G01X9019613Y-667664D01*
G01X9019437Y-666073D01*
G01X9033932Y-666073D01*
G01X9034159Y-677664D01*
G01X9034613Y-684028D01*
G01X9035068Y-688573D01*
G01X9035522Y-691755D01*
G01X9036432Y-696755D01*
G01X9037113Y-699028D01*
G01X9038023Y-701982D01*
G01X9038932Y-704482D01*
G01X9040068Y-706528D01*
G01X9041204Y-708346D01*
G01X9042341Y-709710D01*
G01X9044613Y-711528D01*
G01X9045977Y-712437D01*
G01X9047795Y-713346D01*
G01X9050068Y-714028D01*
G01X9052795Y-714255D01*
G01X9052795Y-714255D01*
G01X9054613Y-714028D01*
G01X9055977Y-713573D01*
G01X9058250Y-712437D01*
G01X9060295Y-710392D01*
G01X9061886Y-708346D01*
G01X9063023Y-706301D01*
G01X9063932Y-704482D01*
G01X9064613Y-702664D01*
G01X9065977Y-698573D01*
G01X9066431Y-696755D01*
G01X9067341Y-692664D01*
G01X9067795Y-690392D01*
G01X9068704Y-684028D01*
G01X9068932Y-680619D01*
G01X9069159Y-678119D01*
G01X9069386Y-669255D01*
G01X9069159Y-660392D01*
G01X9068704Y-654028D01*
G01X9068250Y-649028D01*
G01X9067795Y-645846D01*
G01X9067341Y-642210D01*
G01X9066431Y-637664D01*
G01X9064841Y-632892D01*
G01X9063932Y-630619D01*
G01X9063023Y-628801D01*
G01X9061886Y-626982D01*
G01X9060750Y-625391D01*
G01X9059613Y-624255D01*
G01X9058477Y-623346D01*
G01X9056886Y-622210D01*
G01X9054159Y-621073D01*
G01X9050977Y-620619D01*
G01X9048704Y-620846D01*
G01X9046659Y-621528D01*
G01X9044841Y-622437D01*
G01X9043704Y-623346D01*
G01X9042568Y-624710D01*
G01X9041659Y-626073D01*
G01X9040522Y-627664D01*
G01X9039386Y-629937D01*
G01X9038477Y-631982D01*
G01X9037795Y-634028D01*
G01X9037341Y-635846D01*
G01X9036659Y-638119D01*
G01X9035977Y-640846D01*
G01X9035068Y-646301D01*
G01X9034613Y-649483D01*
G01X9034386Y-652664D01*
G01X9034159Y-654483D01*
G01X9033932Y-666073D01*
G01X9019437Y-666073D01*
G01X9019386Y-665619D01*
G01X9019613Y-663573D01*
G01X9020068Y-656301D01*
G01X9020522Y-652664D01*
G01X9021432Y-647664D01*
G01X9022113Y-645392D01*
G01X9023022Y-642437D01*
G01X9023932Y-639937D01*
G01X9024841Y-637664D01*
G01X9026659Y-634028D01*
G01X9027795Y-631982D01*
G01X9029159Y-629937D01*
G01X9030295Y-628346D01*
G01X9033023Y-624937D01*
G01X9035295Y-622664D01*
G01X9037568Y-620846D01*
G01X9038932Y-619937D01*
G01X9040295Y-619255D01*
G01X9041886Y-618346D01*
G01X9043932Y-617437D01*
G01X9046204Y-616755D01*
G01X9048250Y-616301D01*
G01X9052113Y-616073D01*
G01X9055977Y-616301D01*
G01X9058023Y-616983D01*
G01X9060295Y-617892D01*
G01X9062341Y-619028D01*
G01X9064613Y-620391D01*
G01X9066204Y-621755D01*
G01X9068932Y-624028D01*
G01X9070295Y-625846D01*
G01X9071886Y-627437D01*
G01X9072795Y-628573D01*
G01X9073704Y-630164D01*
G01X9075068Y-632210D01*
G01X9078022Y-638119D01*
G01X9078932Y-640619D01*
G01X9079841Y-642892D01*
G01X9080522Y-645164D01*
G01X9080977Y-647210D01*
G01X9081659Y-649483D01*
G01X9082341Y-653119D01*
G01X9082795Y-656301D01*
G01X9083022Y-658346D01*
G01X9083250Y-659937D01*
G01X9083477Y-669028D01*
G01X9083250Y-678119D01*
G01X9082795Y-681301D01*
G01X9081886Y-686301D01*
G01X9081204Y-688573D01*
G01X9080522Y-691301D01*
G01X9079841Y-693346D01*
G01X9078932Y-695619D01*
G01X9078022Y-697664D01*
G01X9075750Y-702210D01*
G01X9074841Y-703801D01*
G01X9073022Y-706528D01*
G01X9072113Y-707664D01*
G01X9070750Y-709482D01*
G01X9068023Y-712210D01*
G01X9066431Y-713573D01*
G01X9063250Y-715846D01*
G01X9060977Y-716983D01*
G01X9058477Y-717892D01*
G37*
G36*
G01X9000977Y-717664D02*
G01X8997341Y-718573D01*
G01X8990750Y-718801D01*
G01X8984159Y-718573D01*
G01X8980523Y-718119D01*
G01X8978704Y-717664D01*
G01X8976204Y-716983D01*
G01X8973477Y-716073D01*
G01X8971432Y-715164D01*
G01X8969614Y-714255D01*
G01X8967568Y-713119D01*
G01X8965523Y-711755D01*
G01X8963932Y-710392D01*
G01X8959386Y-705846D01*
G01X8958022Y-704028D01*
G01X8956432Y-701755D01*
G01X8955295Y-699482D01*
G01X8954386Y-697437D01*
G01X8953477Y-695164D01*
G01X8952795Y-692664D01*
G01X8952341Y-690392D01*
G01X8951886Y-687210D01*
G01X8951659Y-682891D01*
G01X8951886Y-679937D01*
G01X8952341Y-677664D01*
G01X8953022Y-675164D01*
G01X8953932Y-672891D01*
G01X8955068Y-670619D01*
G01X8956204Y-668801D01*
G01X8958477Y-666073D01*
G01X8959613Y-664937D01*
G01X8960750Y-664028D01*
G01X8962341Y-662664D01*
G01X8964613Y-661301D01*
G01X8966659Y-660164D01*
G01X8968704Y-659255D01*
G01X8969500Y-658744D01*
G01X8969614Y-658119D01*
G01X8968704Y-656982D01*
G01X8964159Y-652437D01*
G01X8961432Y-649028D01*
G01X8960523Y-647437D01*
G01X8959386Y-645392D01*
G01X8958477Y-643573D01*
G01X8957795Y-641755D01*
G01X8956886Y-638119D01*
G01X8956659Y-634710D01*
G01X8957113Y-631528D01*
G01X8957795Y-629710D01*
G01X8958477Y-628119D01*
G01X8959386Y-626528D01*
G01X8960750Y-624482D01*
G01X8962113Y-622664D01*
G01X8963704Y-621301D01*
G01X8966886Y-619028D01*
G01X8969159Y-617892D01*
G01X8971886Y-616983D01*
G01X8975068Y-616301D01*
G01X8980523Y-616073D01*
G01X8985068Y-616301D01*
G01X8987341Y-616983D01*
G01X8990068Y-617892D01*
G01X8991886Y-618801D01*
G01X8993704Y-619937D01*
G01X8995977Y-621528D01*
G01X8998704Y-624255D01*
G01X8999841Y-625619D01*
G01X9000750Y-626982D01*
G01X9001886Y-628573D01*
G01X9004159Y-632210D01*
G01X9005295Y-634482D01*
G01X9005977Y-636301D01*
G01X9005920Y-636869D01*
G01X9005295Y-637210D01*
G01X9004159Y-637437D01*
G01X9003250Y-636301D01*
G01X9002113Y-634710D01*
G01X9001204Y-633573D01*
G01X8998931Y-631301D01*
G01X8997568Y-630164D01*
G01X8996204Y-629255D01*
G01X8994613Y-628346D01*
G01X8992795Y-627437D01*
G01X8990977Y-626755D01*
G01X8989159Y-626301D01*
G01X8985523Y-625846D01*
G01X8983250Y-625846D01*
G01X8980295Y-626301D01*
G01X8978250Y-626982D01*
G01X8976659Y-627892D01*
G01X8974613Y-629255D01*
G01X8971886Y-631982D01*
G01X8970977Y-633346D01*
G01X8970295Y-634937D01*
G01X8969614Y-636755D01*
G01X8969159Y-638573D01*
G01X8968704Y-642210D01*
G01X8968704Y-644483D01*
G01X8969159Y-647664D01*
G01X8969841Y-650164D01*
G01X8970523Y-651982D01*
G01X8971432Y-653801D01*
G01X8972568Y-655392D01*
G01X8973932Y-657210D01*
G01X8975750Y-658801D01*
G01X8977113Y-659710D01*
G01X8978704Y-660846D01*
G01X8980523Y-661982D01*
G01X8984159Y-663801D01*
G01X8985977Y-664483D01*
G01X8989613Y-665392D01*
G01X8990977Y-666301D01*
G01X8990977Y-667437D01*
G01X8988022Y-667891D01*
G01X8984613Y-668119D01*
G01X8982568Y-668573D01*
G01X8980295Y-669255D01*
G01X8976659Y-670619D01*
G01X8974841Y-671528D01*
G01X8973250Y-672437D01*
G01X8971432Y-673573D01*
G01X8969841Y-674937D01*
G01X8968704Y-676073D01*
G01X8967341Y-677664D01*
G01X8966204Y-679483D01*
G01X8965295Y-681301D01*
G01X8964386Y-683346D01*
G01X8963477Y-685846D01*
G01X8962795Y-689482D01*
G01X8962568Y-694255D01*
G01X8962795Y-697664D01*
G01X8963477Y-699710D01*
G01X8964613Y-702210D01*
G01X8965977Y-704482D01*
G01X8967341Y-706073D01*
G01X8970295Y-709028D01*
G01X8971659Y-709937D01*
G01X8974841Y-711528D01*
G01X8977341Y-712210D01*
G01X8981659Y-712437D01*
G01X8985523Y-712210D01*
G01X8987113Y-711755D01*
G01X8988931Y-711073D01*
G01X8990977Y-710164D01*
G01X8996432Y-707437D01*
G01X8998477Y-706528D01*
G01X9002113Y-706073D01*
G01X9004102Y-706301D01*
G01X9005523Y-706982D01*
G01X9007113Y-708801D01*
G01X9007795Y-710846D01*
G01X9007568Y-713119D01*
G01X9006432Y-714710D01*
G01X9004841Y-715846D01*
G01X9002795Y-716983D01*
G01X9000977Y-717664D01*
G37*
G36*
G01X9132795Y-718119D02*
G01X9130977Y-718573D01*
G01X9126432Y-718801D01*
G01X9121432Y-718573D01*
G01X9119386Y-718119D01*
G01X9117113Y-717437D01*
G01X9115295Y-716755D01*
G01X9113704Y-716073D01*
G01X9112113Y-715164D01*
G01X9110295Y-714028D01*
G01X9108704Y-712892D01*
G01X9104159Y-708346D01*
G01X9103022Y-706982D01*
G01X9101659Y-704937D01*
G01X9100295Y-702664D01*
G01X9099386Y-701073D01*
G01X9098477Y-699255D01*
G01X9097568Y-697210D01*
G01X9096886Y-695164D01*
G01X9096204Y-692891D01*
G01X9096034Y-692210D01*
G01X9108022Y-692210D01*
G01X9108250Y-697664D01*
G01X9108704Y-700164D01*
G01X9109386Y-702664D01*
G01X9110068Y-704255D01*
G01X9110977Y-706073D01*
G01X9112341Y-708119D01*
G01X9113704Y-709710D01*
G01X9114841Y-710846D01*
G01X9116204Y-711982D01*
G01X9118022Y-713119D01*
G01X9120068Y-714028D01*
G01X9121886Y-714482D01*
G01X9125068Y-714710D01*
G01X9125068Y-714710D01*
G01X9127795Y-714482D01*
G01X9129159Y-714028D01*
G01X9130977Y-713346D01*
G01X9132341Y-712437D01*
G01X9133704Y-711301D01*
G01X9134841Y-709937D01*
G01X9135977Y-708801D01*
G01X9136886Y-707664D01*
G01X9137795Y-706073D01*
G01X9138931Y-704028D01*
G01X9139840Y-701982D01*
G01X9140750Y-699710D01*
G01X9141659Y-696755D01*
G01X9142341Y-694028D01*
G01X9143250Y-689482D01*
G01X9143477Y-687210D01*
G01X9143704Y-685392D01*
G01X9143931Y-681755D01*
G01X9143704Y-678119D01*
G01X9143250Y-672664D01*
G01X9142795Y-668573D01*
G01X9142341Y-667210D01*
G01X9141432Y-666301D01*
G01X9140068Y-665619D01*
G01X9138250Y-664483D01*
G01X9134159Y-662437D01*
G01X9132113Y-661755D01*
G01X9130068Y-661301D01*
G01X9126432Y-661073D01*
G01X9122795Y-661301D01*
G01X9120977Y-661982D01*
G01X9118931Y-663119D01*
G01X9117341Y-664255D01*
G01X9116204Y-665392D01*
G01X9114841Y-667210D01*
G01X9113477Y-669255D01*
G01X9112568Y-671073D01*
G01X9110750Y-675164D01*
G01X9109386Y-679710D01*
G01X9108931Y-681755D01*
G01X9108704Y-683573D01*
G01X9108250Y-686755D01*
G01X9108022Y-692210D01*
G01X9096034Y-692210D01*
G01X9095750Y-691073D01*
G01X9095522Y-689482D01*
G01X9095068Y-685392D01*
G01X9094841Y-683119D01*
G01X9095068Y-680846D01*
G01X9095522Y-676755D01*
G01X9095977Y-674937D01*
G01X9096659Y-672891D01*
G01X9097341Y-671073D01*
G01X9098022Y-669483D01*
G01X9098932Y-667664D01*
G01X9099841Y-666073D01*
G01X9100750Y-664937D01*
G01X9102113Y-663119D01*
G01X9103704Y-661528D01*
G01X9105977Y-659710D01*
G01X9107568Y-658573D01*
G01X9109613Y-657210D01*
G01X9111659Y-656301D01*
G01X9113250Y-655846D01*
G01X9115523Y-655164D01*
G01X9120750Y-654710D01*
G01X9125068Y-654937D01*
G01X9129159Y-655846D01*
G01X9131204Y-656528D01*
G01X9133250Y-657437D01*
G01X9134841Y-658119D01*
G01X9136659Y-659028D01*
G01X9138477Y-660164D01*
G01X9139840Y-660846D01*
G01X9140238Y-660732D01*
G01X9140522Y-659937D01*
G01X9140295Y-657891D01*
G01X9138931Y-653801D01*
G01X9137568Y-650164D01*
G01X9136659Y-648119D01*
G01X9134841Y-644483D01*
G01X9133704Y-642437D01*
G01X9131432Y-638801D01*
G01X9130295Y-637210D01*
G01X9128477Y-634937D01*
G01X9126204Y-632664D01*
G01X9125068Y-631301D01*
G01X9123704Y-630164D01*
G01X9122568Y-629028D01*
G01X9119386Y-626301D01*
G01X9118250Y-625391D01*
G01X9116659Y-624482D01*
G01X9114613Y-623346D01*
G01X9112795Y-622437D01*
G01X9110750Y-621528D01*
G01X9108022Y-620619D01*
G01X9105295Y-619937D01*
G01X9103250Y-619482D01*
G01X9097795Y-618573D01*
G01X9097284Y-618119D01*
G01X9097113Y-617210D01*
G01X9097113Y-616073D01*
G01X9101886Y-616073D01*
G01X9107341Y-616301D01*
G01X9112341Y-617210D01*
G01X9117113Y-618801D01*
G01X9119613Y-619710D01*
G01X9121659Y-620619D01*
G01X9125750Y-622892D01*
G01X9127568Y-624028D01*
G01X9129159Y-625164D01*
G01X9132795Y-627892D01*
G01X9133931Y-629028D01*
G01X9136659Y-631301D01*
G01X9140068Y-634710D01*
G01X9142795Y-637892D01*
G01X9145522Y-641301D01*
G01X9146432Y-642892D01*
G01X9147795Y-644937D01*
G01X9148931Y-646755D01*
G01X9152568Y-654028D01*
G01X9153931Y-657664D01*
G01X9154613Y-659710D01*
G01X9155295Y-661982D01*
G01X9155977Y-664483D01*
G01X9156432Y-666755D01*
G01X9156886Y-669937D01*
G01X9157341Y-672664D01*
G01X9157568Y-679483D01*
G01X9157341Y-684937D01*
G01X9156886Y-688119D01*
G01X9155977Y-692210D01*
G01X9154386Y-696982D01*
G01X9153477Y-699028D01*
G01X9152568Y-700846D01*
G01X9151659Y-702437D01*
G01X9149386Y-705846D01*
G01X9148022Y-707664D01*
G01X9146886Y-708801D01*
G01X9145522Y-710392D01*
G01X9143704Y-712210D01*
G01X9142113Y-713573D01*
G01X9140977Y-714482D01*
G01X9139386Y-715392D01*
G01X9137341Y-716528D01*
G01X9135295Y-717437D01*
G01X9132795Y-718119D01*
G37*
G36*
G01X9235579Y-714482D02*
G01X9235750Y-715619D01*
G01X9235750Y-716983D01*
G01X9177113Y-716983D01*
G01X9176886Y-715619D01*
G01X9176204Y-713573D01*
G01X9175522Y-711755D01*
G01X9174841Y-709710D01*
G01X9173932Y-707437D01*
G01X9173022Y-704710D01*
G01X9172113Y-702437D01*
G01X9171431Y-700392D01*
G01X9170750Y-698801D01*
G01X9170806Y-698460D01*
G01X9171886Y-698346D01*
G01X9173136Y-698517D01*
G01X9173704Y-699028D01*
G01X9174841Y-700846D01*
G01X9176431Y-702437D01*
G01X9177795Y-703346D01*
G01X9179613Y-704255D01*
G01X9181431Y-704937D01*
G01X9183250Y-705392D01*
G01X9185522Y-705846D01*
G01X9203250Y-706073D01*
G01X9215636Y-705903D01*
G01X9219613Y-705392D01*
G01X9218704Y-704255D01*
G01X9210750Y-696301D01*
G01X9209386Y-694482D01*
G01X9204386Y-689482D01*
G01X9203022Y-687664D01*
G01X9199159Y-683801D01*
G01X9197341Y-681528D01*
G01X9196204Y-680392D01*
G01X9194841Y-678573D01*
G01X9193250Y-676982D01*
G01X9192113Y-675619D01*
G01X9191204Y-674255D01*
G01X9190295Y-673119D01*
G01X9187568Y-669483D01*
G01X9186431Y-667891D01*
G01X9184159Y-664255D01*
G01X9183023Y-662210D01*
G01X9181204Y-659028D01*
G01X9180295Y-657210D01*
G01X9178932Y-654028D01*
G01X9178250Y-651982D01*
G01X9177568Y-649710D01*
G01X9177113Y-647664D01*
G01X9176886Y-645846D01*
G01X9176659Y-641528D01*
G01X9176886Y-637210D01*
G01X9177341Y-635392D01*
G01X9178023Y-633346D01*
G01X9178932Y-631301D01*
G01X9180068Y-629255D01*
G01X9181204Y-627664D01*
G01X9182568Y-625846D01*
G01X9185295Y-623119D01*
G01X9186659Y-621982D01*
G01X9188023Y-621073D01*
G01X9189613Y-619937D01*
G01X9191886Y-618801D01*
G01X9193932Y-617892D01*
G01X9196204Y-617210D01*
G01X9198250Y-616755D01*
G01X9200522Y-616301D01*
G01X9205977Y-616073D01*
G01X9210522Y-616301D01*
G01X9212340Y-616755D01*
G01X9214386Y-617437D01*
G01X9216204Y-618119D01*
G01X9218022Y-619028D01*
G01X9219841Y-620164D01*
G01X9221204Y-621073D01*
G01X9222340Y-621982D01*
G01X9224613Y-624255D01*
G01X9225750Y-625619D01*
G01X9226659Y-626982D01*
G01X9227795Y-628573D01*
G01X9229841Y-632664D01*
G01X9230522Y-634255D01*
G01X9230977Y-635846D01*
G01X9231659Y-637892D01*
G01X9232341Y-640846D01*
G01X9232795Y-643119D01*
G01X9232625Y-643630D01*
G01X9231659Y-643801D01*
G01X9230579Y-643573D01*
G01X9230068Y-642892D01*
G01X9229386Y-641073D01*
G01X9228477Y-639028D01*
G01X9227568Y-637437D01*
G01X9226431Y-635846D01*
G01X9225068Y-634255D01*
G01X9222795Y-631982D01*
G01X9221204Y-630846D01*
G01X9219159Y-629710D01*
G01X9217340Y-628801D01*
G01X9215295Y-628119D01*
G01X9213250Y-627664D01*
G01X9210977Y-627210D01*
G01X9208022Y-626982D01*
G01X9205977Y-627210D01*
G01X9203932Y-627664D01*
G01X9201659Y-628346D01*
G01X9199613Y-629255D01*
G01X9198022Y-630164D01*
G01X9196886Y-631073D01*
G01X9194613Y-633346D01*
G01X9193477Y-634710D01*
G01X9192568Y-636073D01*
G01X9191659Y-637664D01*
G01X9190750Y-639482D01*
G01X9190068Y-641528D01*
G01X9189613Y-643573D01*
G01X9189159Y-646755D01*
G01X9188932Y-649937D01*
G01X9189159Y-653119D01*
G01X9189613Y-656301D01*
G01X9191204Y-661073D01*
G01X9192113Y-663346D01*
G01X9193023Y-665392D01*
G01X9194841Y-669028D01*
G01X9195750Y-670619D01*
G01X9196659Y-671982D01*
G01X9197795Y-673801D01*
G01X9201204Y-678573D01*
G01X9202568Y-680392D01*
G01X9203932Y-681982D01*
G01X9206659Y-685392D01*
G01X9207795Y-686528D01*
G01X9210522Y-689710D01*
G01X9215068Y-694255D01*
G01X9217340Y-696982D01*
G01X9223022Y-702664D01*
G01X9226204Y-705392D01*
G01X9230750Y-709937D01*
G01X9233931Y-712664D01*
G01X9235068Y-713801D01*
G01X9235579Y-714482D01*
G37*
G36*
G01X9283477Y-717892D02*
G01X9281659Y-718573D01*
G01X9277568Y-718801D01*
G01X9273250Y-718573D01*
G01X9270977Y-717892D01*
G01X9268477Y-716983D01*
G01X9266432Y-716073D01*
G01X9264841Y-715164D01*
G01X9261659Y-712892D01*
G01X9260523Y-711982D01*
G01X9257113Y-708573D01*
G01X9255750Y-706755D01*
G01X9254159Y-704482D01*
G01X9252795Y-702210D01*
G01X9249841Y-696301D01*
G01X9248931Y-693801D01*
G01X9248022Y-691073D01*
G01X9247113Y-688119D01*
G01X9246432Y-684937D01*
G01X9245977Y-682664D01*
G01X9245522Y-679483D01*
G01X9245068Y-675846D01*
G01X9244613Y-667664D01*
G01X9244437Y-666073D01*
G01X9258931Y-666073D01*
G01X9259159Y-677664D01*
G01X9259613Y-684028D01*
G01X9260068Y-688573D01*
G01X9260523Y-691755D01*
G01X9261432Y-696755D01*
G01X9262113Y-699028D01*
G01X9263022Y-701982D01*
G01X9263931Y-704482D01*
G01X9265068Y-706528D01*
G01X9266204Y-708346D01*
G01X9267341Y-709710D01*
G01X9269613Y-711528D01*
G01X9270977Y-712437D01*
G01X9272795Y-713346D01*
G01X9275068Y-714028D01*
G01X9277795Y-714255D01*
G01X9277795Y-714255D01*
G01X9279613Y-714028D01*
G01X9280977Y-713573D01*
G01X9283250Y-712437D01*
G01X9285295Y-710392D01*
G01X9286886Y-708346D01*
G01X9288022Y-706301D01*
G01X9288931Y-704482D01*
G01X9289613Y-702664D01*
G01X9290977Y-698573D01*
G01X9291432Y-696755D01*
G01X9292341Y-692664D01*
G01X9292795Y-690392D01*
G01X9293704Y-684028D01*
G01X9293931Y-680619D01*
G01X9294159Y-678119D01*
G01X9294386Y-669255D01*
G01X9294159Y-660392D01*
G01X9293704Y-654028D01*
G01X9293250Y-649028D01*
G01X9292795Y-645846D01*
G01X9292341Y-642210D01*
G01X9291432Y-637664D01*
G01X9289840Y-632892D01*
G01X9288931Y-630619D01*
G01X9288022Y-628801D01*
G01X9286886Y-626982D01*
G01X9285750Y-625391D01*
G01X9284613Y-624255D01*
G01X9283477Y-623346D01*
G01X9281886Y-622210D01*
G01X9279159Y-621073D01*
G01X9275977Y-620619D01*
G01X9273704Y-620846D01*
G01X9271659Y-621528D01*
G01X9269840Y-622437D01*
G01X9268704Y-623346D01*
G01X9267568Y-624710D01*
G01X9266659Y-626073D01*
G01X9265522Y-627664D01*
G01X9264386Y-629937D01*
G01X9263477Y-631982D01*
G01X9262795Y-634028D01*
G01X9262341Y-635846D01*
G01X9261659Y-638119D01*
G01X9260977Y-640846D01*
G01X9260068Y-646301D01*
G01X9259613Y-649483D01*
G01X9259386Y-652664D01*
G01X9259159Y-654483D01*
G01X9258931Y-666073D01*
G01X9244437Y-666073D01*
G01X9244386Y-665619D01*
G01X9244613Y-663573D01*
G01X9245068Y-656301D01*
G01X9245522Y-652664D01*
G01X9246432Y-647664D01*
G01X9247113Y-645392D01*
G01X9248022Y-642437D01*
G01X9248931Y-639937D01*
G01X9249841Y-637664D01*
G01X9251659Y-634028D01*
G01X9252795Y-631982D01*
G01X9254159Y-629937D01*
G01X9255295Y-628346D01*
G01X9258022Y-624937D01*
G01X9260295Y-622664D01*
G01X9262568Y-620846D01*
G01X9263931Y-619937D01*
G01X9265295Y-619255D01*
G01X9266886Y-618346D01*
G01X9268931Y-617437D01*
G01X9271204Y-616755D01*
G01X9273250Y-616301D01*
G01X9277113Y-616073D01*
G01X9280977Y-616301D01*
G01X9283022Y-616983D01*
G01X9285295Y-617892D01*
G01X9287341Y-619028D01*
G01X9289613Y-620391D01*
G01X9291204Y-621755D01*
G01X9293931Y-624028D01*
G01X9295295Y-625846D01*
G01X9296886Y-627437D01*
G01X9297795Y-628573D01*
G01X9298704Y-630164D01*
G01X9300068Y-632210D01*
G01X9303022Y-638119D01*
G01X9303931Y-640619D01*
G01X9304841Y-642892D01*
G01X9305522Y-645164D01*
G01X9305977Y-647210D01*
G01X9306659Y-649483D01*
G01X9307341Y-653119D01*
G01X9307795Y-656301D01*
G01X9308022Y-658346D01*
G01X9308250Y-659937D01*
G01X9308477Y-669028D01*
G01X9308250Y-678119D01*
G01X9307795Y-681301D01*
G01X9306886Y-686301D01*
G01X9306204Y-688573D01*
G01X9305522Y-691301D01*
G01X9304841Y-693346D01*
G01X9303931Y-695619D01*
G01X9303022Y-697664D01*
G01X9300750Y-702210D01*
G01X9299840Y-703801D01*
G01X9298022Y-706528D01*
G01X9297113Y-707664D01*
G01X9295750Y-709482D01*
G01X9293022Y-712210D01*
G01X9291432Y-713573D01*
G01X9288250Y-715846D01*
G01X9285977Y-716983D01*
G01X9283477Y-717892D01*
G37*
G36*
G01X9385579Y-714482D02*
G01X9385750Y-715619D01*
G01X9385750Y-716983D01*
G01X9327113Y-716983D01*
G01X9326886Y-715619D01*
G01X9326204Y-713573D01*
G01X9325522Y-711755D01*
G01X9324841Y-709710D01*
G01X9323932Y-707437D01*
G01X9323022Y-704710D01*
G01X9322113Y-702437D01*
G01X9321431Y-700392D01*
G01X9320750Y-698801D01*
G01X9320806Y-698460D01*
G01X9321886Y-698346D01*
G01X9323136Y-698517D01*
G01X9323704Y-699028D01*
G01X9324841Y-700846D01*
G01X9326431Y-702437D01*
G01X9327795Y-703346D01*
G01X9329613Y-704255D01*
G01X9331431Y-704937D01*
G01X9333250Y-705392D01*
G01X9335522Y-705846D01*
G01X9353250Y-706073D01*
G01X9365636Y-705903D01*
G01X9369613Y-705392D01*
G01X9368704Y-704255D01*
G01X9360750Y-696301D01*
G01X9359386Y-694482D01*
G01X9354386Y-689482D01*
G01X9353022Y-687664D01*
G01X9349159Y-683801D01*
G01X9347340Y-681528D01*
G01X9346204Y-680392D01*
G01X9344841Y-678573D01*
G01X9343250Y-676982D01*
G01X9342113Y-675619D01*
G01X9341204Y-674255D01*
G01X9340295Y-673119D01*
G01X9337568Y-669483D01*
G01X9336431Y-667891D01*
G01X9334159Y-664255D01*
G01X9333022Y-662210D01*
G01X9331204Y-659028D01*
G01X9330295Y-657210D01*
G01X9328932Y-654028D01*
G01X9328250Y-651982D01*
G01X9327568Y-649710D01*
G01X9327113Y-647664D01*
G01X9326886Y-645846D01*
G01X9326659Y-641528D01*
G01X9326886Y-637210D01*
G01X9327341Y-635392D01*
G01X9328022Y-633346D01*
G01X9328932Y-631301D01*
G01X9330068Y-629255D01*
G01X9331204Y-627664D01*
G01X9332568Y-625846D01*
G01X9335295Y-623119D01*
G01X9336659Y-621982D01*
G01X9338022Y-621073D01*
G01X9339613Y-619937D01*
G01X9341886Y-618801D01*
G01X9343932Y-617892D01*
G01X9346204Y-617210D01*
G01X9348250Y-616755D01*
G01X9350522Y-616301D01*
G01X9355977Y-616073D01*
G01X9360522Y-616301D01*
G01X9362340Y-616755D01*
G01X9364386Y-617437D01*
G01X9366204Y-618119D01*
G01X9368022Y-619028D01*
G01X9369841Y-620164D01*
G01X9371204Y-621073D01*
G01X9372340Y-621982D01*
G01X9374613Y-624255D01*
G01X9375750Y-625619D01*
G01X9376659Y-626982D01*
G01X9377795Y-628573D01*
G01X9379841Y-632664D01*
G01X9380522Y-634255D01*
G01X9380977Y-635846D01*
G01X9381659Y-637892D01*
G01X9382341Y-640846D01*
G01X9382795Y-643119D01*
G01X9382625Y-643630D01*
G01X9381659Y-643801D01*
G01X9380579Y-643573D01*
G01X9380068Y-642892D01*
G01X9379386Y-641073D01*
G01X9378477Y-639028D01*
G01X9377568Y-637437D01*
G01X9376431Y-635846D01*
G01X9375068Y-634255D01*
G01X9372795Y-631982D01*
G01X9371204Y-630846D01*
G01X9369159Y-629710D01*
G01X9367340Y-628801D01*
G01X9365295Y-628119D01*
G01X9363250Y-627664D01*
G01X9360977Y-627210D01*
G01X9358022Y-626982D01*
G01X9355977Y-627210D01*
G01X9353932Y-627664D01*
G01X9351659Y-628346D01*
G01X9349613Y-629255D01*
G01X9348022Y-630164D01*
G01X9346886Y-631073D01*
G01X9344613Y-633346D01*
G01X9343477Y-634710D01*
G01X9342568Y-636073D01*
G01X9341659Y-637664D01*
G01X9340750Y-639482D01*
G01X9340068Y-641528D01*
G01X9339613Y-643573D01*
G01X9339159Y-646755D01*
G01X9338932Y-649937D01*
G01X9339159Y-653119D01*
G01X9339613Y-656301D01*
G01X9341204Y-661073D01*
G01X9342113Y-663346D01*
G01X9343022Y-665392D01*
G01X9344841Y-669028D01*
G01X9345750Y-670619D01*
G01X9346659Y-671982D01*
G01X9347795Y-673801D01*
G01X9351204Y-678573D01*
G01X9352568Y-680392D01*
G01X9353932Y-681982D01*
G01X9356659Y-685392D01*
G01X9357795Y-686528D01*
G01X9360522Y-689710D01*
G01X9365068Y-694255D01*
G01X9367340Y-696982D01*
G01X9373022Y-702664D01*
G01X9376204Y-705392D01*
G01X9380750Y-709937D01*
G01X9383931Y-712664D01*
G01X9385068Y-713801D01*
G01X9385579Y-714482D01*
G37*
G36*
G01X9492795Y-735391D02*
G01X9492113Y-736528D01*
G01X9490977Y-736528D01*
G01X9489159Y-734255D01*
G01X9488022Y-733119D01*
G01X9486659Y-731301D01*
G01X9484841Y-729028D01*
G01X9483250Y-726755D01*
G01X9481886Y-724710D01*
G01X9480750Y-722664D01*
G01X9478022Y-717892D01*
G01X9477340Y-716528D01*
G01X9476659Y-714937D01*
G01X9475750Y-712892D01*
G01X9473932Y-708346D01*
G01X9472113Y-702437D01*
G01X9471431Y-699937D01*
G01X9470977Y-697437D01*
G01X9469613Y-691301D01*
G01X9469159Y-686755D01*
G01X9468704Y-683573D01*
G01X9468250Y-672664D01*
G01X9468022Y-660392D01*
G01X9468022Y-648801D01*
G01X9466886Y-648573D01*
G01X9462568Y-648346D01*
G01X9459386Y-648346D01*
G01X9459159Y-649937D01*
G01X9458704Y-652210D01*
G01X9458250Y-655392D01*
G01X9457340Y-659937D01*
G01X9456886Y-661755D01*
G01X9455522Y-666755D01*
G01X9455068Y-668573D01*
G01X9452568Y-676073D01*
G01X9451659Y-678573D01*
G01X9449840Y-682664D01*
G01X9446204Y-689937D01*
G01X9445068Y-691982D01*
G01X9442341Y-696073D01*
G01X9440068Y-699255D01*
G01X9438931Y-701073D01*
G01X9438704Y-702437D01*
G01X9440068Y-703801D01*
G01X9441659Y-705164D01*
G01X9442795Y-706073D01*
G01X9445068Y-708346D01*
G01X9446659Y-709482D01*
G01X9448704Y-710846D01*
G01X9450977Y-712437D01*
G01X9452795Y-713801D01*
G01X9455522Y-715619D01*
G01X9457113Y-716528D01*
G01X9458931Y-717664D01*
G01X9460522Y-718573D01*
G01X9461886Y-719255D01*
G01X9463704Y-720391D01*
G01X9465750Y-721528D01*
G01X9467568Y-722437D01*
G01X9469613Y-723346D01*
G01X9475068Y-726073D01*
G01X9475977Y-727210D01*
G01X9475977Y-727835D01*
G01X9475522Y-728346D01*
G01X9473704Y-730619D01*
G01X9472568Y-731983D01*
G01X9471659Y-733346D01*
G01X9470522Y-734937D01*
G01X9469386Y-736301D01*
G01X9468022Y-736301D01*
G01X9466659Y-735619D01*
G01X9465295Y-734710D01*
G01X9463250Y-733573D01*
G01X9461431Y-732437D01*
G01X9458250Y-730619D01*
G01X9456431Y-729482D01*
G01X9454159Y-727892D01*
G01X9452113Y-726528D01*
G01X9450522Y-725619D01*
G01X9448704Y-724482D01*
G01X9447113Y-723346D01*
G01X9443704Y-720619D01*
G01X9441886Y-719255D01*
G01X9439613Y-717437D01*
G01X9437795Y-716073D01*
G01X9435522Y-713801D01*
G01X9433250Y-711982D01*
G01X9432113Y-710846D01*
G01X9431545Y-710392D01*
G01X9430749Y-710392D01*
G01X9429386Y-711301D01*
G01X9428250Y-712437D01*
G01X9427113Y-713346D01*
G01X9425522Y-714710D01*
G01X9421659Y-718573D01*
G01X9413477Y-725391D01*
G01X9407795Y-729937D01*
G01X9405977Y-731073D01*
G01X9404159Y-732437D01*
G01X9402568Y-733573D01*
G01X9400750Y-734710D01*
G01X9399954Y-734823D01*
G01X9399386Y-734255D01*
G01X9398477Y-732892D01*
G01X9397568Y-731755D01*
G01X9396432Y-730619D01*
G01X9394159Y-727892D01*
G01X9393022Y-726755D01*
G01X9392113Y-725619D01*
G01X9391659Y-724482D01*
G01X9391886Y-723914D01*
G01X9392568Y-723573D01*
G01X9394159Y-722892D01*
G01X9395977Y-721983D01*
G01X9400068Y-719710D01*
G01X9401659Y-718801D01*
G01X9403250Y-717664D01*
G01X9407795Y-714937D01*
G01X9410068Y-713346D01*
G01X9413704Y-710619D01*
G01X9417795Y-707437D01*
G01X9419386Y-705846D01*
G01X9422568Y-703119D01*
G01X9423250Y-701755D01*
G01X9423022Y-700619D01*
G01X9422113Y-699482D01*
G01X9420750Y-697664D01*
G01X9419159Y-695392D01*
G01X9416432Y-691301D01*
G01X9415068Y-689028D01*
G01X9413931Y-686755D01*
G01X9412113Y-683573D01*
G01X9409613Y-678573D01*
G01X9408704Y-676528D01*
G01X9408022Y-674710D01*
G01X9407113Y-672437D01*
G01X9406432Y-670392D01*
G01X9405750Y-668573D01*
G01X9405068Y-666528D01*
G01X9404613Y-664937D01*
G01X9403931Y-663119D01*
G01X9403250Y-660846D01*
G01X9402795Y-659028D01*
G01X9401886Y-655846D01*
G01X9400977Y-651755D01*
G01X9400352Y-649255D01*
G01X9411659Y-649255D01*
G01X9412113Y-651073D01*
G01X9413477Y-657210D01*
G01X9413931Y-659028D01*
G01X9414386Y-660619D01*
G01X9414840Y-662437D01*
G01X9415522Y-664483D01*
G01X9415977Y-666301D01*
G01X9416659Y-668119D01*
G01X9417341Y-670164D01*
G01X9418022Y-671982D01*
G01X9418931Y-674255D01*
G01X9419840Y-676301D01*
G01X9423022Y-682664D01*
G01X9424159Y-684710D01*
G01X9426431Y-688346D01*
G01X9427795Y-690392D01*
G01X9429386Y-692664D01*
G01X9430238Y-693460D01*
G01X9430238Y-693460D01*
G01X9430977Y-693573D01*
G01X9432341Y-692210D01*
G01X9433704Y-690619D01*
G01X9434613Y-689255D01*
G01X9435295Y-687891D01*
G01X9436204Y-686528D01*
G01X9437341Y-684710D01*
G01X9438477Y-682664D01*
G01X9439386Y-680846D01*
G01X9440295Y-679255D01*
G01X9443022Y-673119D01*
G01X9444840Y-668119D01*
G01X9445522Y-665846D01*
G01X9445977Y-664028D01*
G01X9446659Y-661982D01*
G01X9447341Y-659255D01*
G01X9447795Y-657210D01*
G01X9448704Y-652210D01*
G01X9448931Y-650619D01*
G01X9449159Y-649255D01*
G01X9449045Y-648857D01*
G01X9448250Y-648573D01*
G01X9429386Y-648346D01*
G01X9416091Y-648573D01*
G01X9411659Y-649255D01*
G01X9400352Y-649255D01*
G01X9400068Y-648119D01*
G01X9399840Y-643346D01*
G01X9399840Y-639255D01*
G01X9400977Y-638801D01*
G01X9434159Y-638346D01*
G01X9466886Y-638573D01*
G01X9467454Y-638460D01*
G01X9467795Y-637664D01*
G01X9468022Y-625846D01*
G01X9468022Y-615164D01*
G01X9463704Y-615164D01*
G01X9458704Y-614937D01*
G01X9452795Y-614482D01*
G01X9441431Y-614028D01*
G01X9437795Y-613573D01*
G01X9427795Y-613119D01*
G01X9425068Y-612664D01*
G01X9419840Y-612437D01*
G01X9415977Y-612210D01*
G01X9413250Y-611755D01*
G01X9408704Y-611528D01*
G01X9405522Y-611301D01*
G01X9402795Y-610846D01*
G01X9398704Y-610619D01*
G01X9395977Y-610391D01*
G01X9394386Y-609937D01*
G01X9393761Y-609482D01*
G01X9393704Y-608573D01*
G01X9394159Y-606755D01*
G01X9394840Y-604937D01*
G01X9396659Y-599937D01*
G01X9397625Y-599085D01*
G01X9399613Y-598801D01*
G01X9402795Y-599028D01*
G01X9404613Y-599482D01*
G01X9407113Y-599710D01*
G01X9409159Y-599937D01*
G01X9411886Y-600391D01*
G01X9415522Y-600619D01*
G01X9417795Y-600846D01*
G01X9420522Y-601301D01*
G01X9423931Y-601528D01*
G01X9425977Y-601755D01*
G01X9428704Y-602210D01*
G01X9432568Y-602437D01*
G01X9435068Y-602664D01*
G01X9438250Y-603119D01*
G01X9446431Y-603573D01*
G01X9451431Y-604028D01*
G01X9463250Y-604482D01*
G01X9470977Y-604710D01*
G01X9476374Y-604880D01*
G01X9478477Y-605391D01*
G01X9478704Y-606755D01*
G01X9478477Y-639255D01*
G01X9478704Y-671755D01*
G01X9479159Y-680392D01*
G01X9479613Y-685846D01*
G01X9480068Y-688573D01*
G01X9481204Y-694255D01*
G01X9482113Y-697891D01*
G01X9482568Y-699482D01*
G01X9483250Y-701301D01*
G01X9483704Y-703119D01*
G01X9484386Y-704937D01*
G01X9485295Y-707210D01*
G01X9486204Y-709255D01*
G01X9487113Y-711073D01*
G01X9489386Y-715164D01*
G01X9490522Y-716983D01*
G01X9493249Y-721073D01*
G01X9494386Y-722664D01*
G01X9496659Y-724937D01*
G01X9498022Y-726755D01*
G01X9498591Y-727778D01*
G01X9498477Y-728573D01*
G01X9497113Y-730391D01*
G01X9495522Y-731983D01*
G01X9492795Y-735391D01*
G37*
G36*
G01X9514386Y-699028D02*
G01X9514159Y-736073D01*
G01X9509159Y-736528D01*
G01X9504386Y-736528D01*
G01X9504159Y-735391D01*
G01X9503931Y-696755D01*
G01X9503761Y-668687D01*
G01X9503249Y-659483D01*
G01X9502113Y-660392D01*
G01X9495522Y-666982D01*
G01X9494386Y-668573D01*
G01X9492795Y-670164D01*
G01X9490068Y-673346D01*
G01X9489159Y-674028D01*
G01X9488250Y-674028D01*
G01X9487113Y-673119D01*
G01X9486204Y-671982D01*
G01X9484841Y-670392D01*
G01X9482113Y-667664D01*
G01X9481431Y-666528D01*
G01X9481886Y-665619D01*
G01X9491204Y-656301D01*
G01X9493249Y-654710D01*
G01X9497113Y-650846D01*
G01X9498249Y-649937D01*
G01X9498875Y-649937D01*
G01X9499386Y-650392D01*
G01X9501659Y-652664D01*
G01X9503022Y-653573D01*
G01X9503931Y-653801D01*
G01X9503931Y-632437D01*
G01X9494386Y-632437D01*
G01X9487113Y-632266D01*
G01X9484386Y-631755D01*
G01X9483932Y-626755D01*
G01X9483932Y-622437D01*
G01X9493477Y-622437D01*
G01X9500750Y-622266D01*
G01X9503477Y-621755D01*
G01X9503931Y-607437D01*
G01X9503931Y-593801D01*
G01X9505068Y-593573D01*
G01X9509841Y-593346D01*
G01X9513477Y-593346D01*
G01X9513931Y-594482D01*
G01X9514386Y-608801D01*
G01X9514386Y-621982D01*
G01X9515522Y-622210D01*
G01X9526431Y-622437D01*
G01X9536204Y-622437D01*
G01X9536431Y-624028D01*
G01X9536659Y-628346D01*
G01X9536431Y-630562D01*
G01X9535750Y-631755D01*
G01X9532795Y-632266D01*
G01X9525750Y-632437D01*
G01X9516204Y-632210D01*
G01X9515522Y-632664D01*
G01X9515522Y-634028D01*
G01X9516204Y-636073D01*
G01X9516886Y-638801D01*
G01X9517340Y-640846D01*
G01X9518022Y-642892D01*
G01X9518704Y-645392D01*
G01X9520068Y-649483D01*
G01X9521431Y-653119D01*
G01X9522113Y-655164D01*
G01X9523022Y-657437D01*
G01X9523931Y-659937D01*
G01X9527568Y-667210D01*
G01X9528477Y-669483D01*
G01X9529386Y-671301D01*
G01X9530522Y-673119D01*
G01X9531659Y-675164D01*
G01X9532795Y-676982D01*
G01X9533931Y-679028D01*
G01X9534840Y-680619D01*
G01X9535977Y-682210D01*
G01X9536886Y-684483D01*
G01X9536659Y-686755D01*
G01X9535750Y-689028D01*
G01X9534840Y-691528D01*
G01X9533931Y-694255D01*
G01X9532568Y-696073D01*
G01X9531772Y-696187D01*
G01X9531204Y-695619D01*
G01X9530068Y-693801D01*
G01X9528704Y-691755D01*
G01X9527568Y-689937D01*
G01X9525750Y-686301D01*
G01X9524840Y-684710D01*
G01X9523704Y-682664D01*
G01X9522795Y-680846D01*
G01X9522113Y-679255D01*
G01X9520295Y-674710D01*
G01X9519386Y-672664D01*
G01X9518704Y-670846D01*
G01X9518022Y-669255D01*
G01X9517340Y-667437D01*
G01X9516886Y-665846D01*
G01X9516204Y-664028D01*
G01X9515522Y-662437D01*
G01X9514841Y-662210D01*
G01X9514386Y-699028D01*
G37*
G36*
G01X10130749Y-732664D02*
G01X10128704Y-735164D01*
G01X10127681Y-736130D01*
G01X10126886Y-736301D01*
G01X10124613Y-734482D01*
G01X10123477Y-733801D01*
G01X10117795Y-729255D01*
G01X10116658Y-728119D01*
G01X10113931Y-725846D01*
G01X10104840Y-716755D01*
G01X10103931Y-715619D01*
G01X10101204Y-712437D01*
G01X10100295Y-711301D01*
G01X10098931Y-709482D01*
G01X10097113Y-707210D01*
G01X10095522Y-704937D01*
G01X10092795Y-700846D01*
G01X10090522Y-696755D01*
G01X10089386Y-694482D01*
G01X10088477Y-692891D01*
G01X10087795Y-691528D01*
G01X10085977Y-687437D01*
G01X10085295Y-685619D01*
G01X10084386Y-683573D01*
G01X10083477Y-681073D01*
G01X10082568Y-678346D01*
G01X10081886Y-675846D01*
G01X10081431Y-674028D01*
G01X10080749Y-671755D01*
G01X10080067Y-668573D01*
G01X10079386Y-666073D01*
G01X10078022Y-658573D01*
G01X10077795Y-656301D01*
G01X10077340Y-654483D01*
G01X10077113Y-651982D01*
G01X10076886Y-649937D01*
G01X10076431Y-646755D01*
G01X10075977Y-642210D01*
G01X10075522Y-635846D01*
G01X10075067Y-631301D01*
G01X10074613Y-618573D01*
G01X10074158Y-617437D01*
G01X10045750Y-616983D01*
G01X10017568Y-616983D01*
G01X10017568Y-618346D01*
G01X10017795Y-620391D01*
G01X10018249Y-648573D01*
G01X10018704Y-669483D01*
G01X10019159Y-679937D01*
G01X10019613Y-696301D01*
G01X10020068Y-701301D01*
G01X10020295Y-704028D01*
G01X10020749Y-706982D01*
G01X10021431Y-709255D01*
G01X10022113Y-711073D01*
G01X10022795Y-712210D01*
G01X10023931Y-714028D01*
G01X10025295Y-715846D01*
G01X10026431Y-716755D01*
G01X10027568Y-717437D01*
G01X10029159Y-718346D01*
G01X10031659Y-719255D01*
G01X10034158Y-719710D01*
G01X10035977Y-719937D01*
G01X10043704Y-720164D01*
G01X10051431Y-719937D01*
G01X10058249Y-719482D01*
G01X10061431Y-719028D01*
G01X10063931Y-718801D01*
G01X10065749Y-718801D01*
G01X10065749Y-720164D01*
G01X10065522Y-722210D01*
G01X10065068Y-724482D01*
G01X10064613Y-727210D01*
G01X10064386Y-729482D01*
G01X10064158Y-731301D01*
G01X10063249Y-732437D01*
G01X10056659Y-732892D01*
G01X10050068Y-733119D01*
G01X10041431Y-733346D01*
G01X10032795Y-733119D01*
G01X10030749Y-732892D01*
G01X10028477Y-732437D01*
G01X10024840Y-731528D01*
G01X10023249Y-730846D01*
G01X10021431Y-729937D01*
G01X10019386Y-728801D01*
G01X10018022Y-727892D01*
G01X10016886Y-726983D01*
G01X10014613Y-724710D01*
G01X10012795Y-722437D01*
G01X10011886Y-721073D01*
G01X10011204Y-719255D01*
G01X10009386Y-715164D01*
G01X10008477Y-711528D01*
G01X10008022Y-709482D01*
G01X10007795Y-707664D01*
G01X10007340Y-705392D01*
G01X10007113Y-699937D01*
G01X10006886Y-695392D01*
G01X10006431Y-689028D01*
G01X10005977Y-667664D01*
G01X10005522Y-656301D01*
G01X10005068Y-635846D01*
G01X10004613Y-614937D01*
G01X10004386Y-609710D01*
G01X10004386Y-605164D01*
G01X10005522Y-604937D01*
G01X10067568Y-604710D01*
G01X10128477Y-604710D01*
G01X10128477Y-616528D01*
G01X10127340Y-616755D01*
G01X10106886Y-616983D01*
G01X10087568Y-616983D01*
G01X10087795Y-619028D01*
G01X10088022Y-627892D01*
G01X10088249Y-635392D01*
G01X10088704Y-641301D01*
G01X10089158Y-644937D01*
G01X10089613Y-649937D01*
G01X10090068Y-651755D01*
G01X10090295Y-654255D01*
G01X10090749Y-656528D01*
G01X10091204Y-659028D01*
G01X10091431Y-661301D01*
G01X10091886Y-663119D01*
G01X10092340Y-665392D01*
G01X10093704Y-669937D01*
G01X10094158Y-671755D01*
G01X10094613Y-673346D01*
G01X10096658Y-678801D01*
G01X10097568Y-681073D01*
G01X10098477Y-683119D01*
G01X10099159Y-684710D01*
G01X10100068Y-686528D01*
G01X10100977Y-688119D01*
G01X10101658Y-689482D01*
G01X10103477Y-692664D01*
G01X10104613Y-694482D01*
G01X10105977Y-696528D01*
G01X10107113Y-698119D01*
G01X10108477Y-699937D01*
G01X10110295Y-702210D01*
G01X10111658Y-704028D01*
G01X10113931Y-706301D01*
G01X10115749Y-708573D01*
G01X10119159Y-711982D01*
G01X10120295Y-712892D01*
G01X10121886Y-714255D01*
G01X10123477Y-715846D01*
G01X10126658Y-718573D01*
G01X10128022Y-719710D01*
G01X10129386Y-720619D01*
G01X10132795Y-723346D01*
G01X10134613Y-724710D01*
G01X10135749Y-726301D01*
G01X10135068Y-727437D01*
G01X10133931Y-728573D01*
G01X10132567Y-730391D01*
G01X10130749Y-732664D01*
G37*
G36*
G01X9638704Y-732892D02*
G01X9634841Y-736755D01*
G01X9634329Y-737210D01*
G01X9633704Y-737210D01*
G01X9632568Y-736301D01*
G01X9629159Y-732892D01*
G01X9626431Y-729710D01*
G01X9624159Y-726983D01*
G01X9622795Y-725391D01*
G01X9621659Y-723801D01*
G01X9619841Y-721528D01*
G01X9618704Y-719937D01*
G01X9617340Y-717892D01*
G01X9615068Y-714255D01*
G01X9614159Y-712664D01*
G01X9611431Y-707210D01*
G01X9610522Y-705164D01*
G01X9609841Y-703346D01*
G01X9608931Y-701073D01*
G01X9608022Y-698346D01*
G01X9607340Y-696073D01*
G01X9606886Y-694482D01*
G01X9605977Y-690392D01*
G01X9605750Y-688801D01*
G01X9605465Y-688062D01*
G01X9604613Y-687664D01*
G01X9582795Y-687437D01*
G01X9562113Y-687437D01*
G01X9561886Y-688573D01*
G01X9561659Y-702664D01*
G01X9561886Y-716301D01*
G01X9562113Y-718119D01*
G01X9562568Y-719710D01*
G01X9563477Y-721301D01*
G01X9564045Y-722210D01*
G01X9564840Y-722664D01*
G01X9566659Y-723346D01*
G01X9568704Y-723801D01*
G01X9570295Y-724028D01*
G01X9571431Y-724028D01*
G01X9590522Y-723573D01*
G01X9592568Y-723346D01*
G01X9593931Y-723346D01*
G01X9593931Y-724710D01*
G01X9593704Y-726755D01*
G01X9593250Y-728573D01*
G01X9592795Y-731301D01*
G01X9592340Y-733573D01*
G01X9591659Y-734710D01*
G01X9589613Y-735391D01*
G01X9585749Y-735619D01*
G01X9582795Y-735846D01*
G01X9573250Y-736073D01*
G01X9563704Y-735846D01*
G01X9561886Y-735391D01*
G01X9559613Y-734710D01*
G01X9557341Y-733573D01*
G01X9555068Y-731983D01*
G01X9553250Y-729937D01*
G01X9552113Y-727664D01*
G01X9550750Y-724028D01*
G01X9550310Y-663573D01*
G01X9561659Y-663573D01*
G01X9561659Y-676073D01*
G01X9562795Y-676301D01*
G01X9583704Y-676528D01*
G01X9583704Y-676528D01*
G01X9603704Y-676301D01*
G01X9603931Y-674483D01*
G01X9603704Y-672210D01*
G01X9603250Y-669028D01*
G01X9603022Y-659028D01*
G01X9602852Y-651926D01*
G01X9602340Y-649255D01*
G01X9581886Y-648801D01*
G01X9562113Y-648801D01*
G01X9561886Y-649937D01*
G01X9561659Y-663573D01*
G01X9550310Y-663573D01*
G01X9550295Y-661528D01*
G01X9550563Y-625164D01*
G01X9561659Y-625164D01*
G01X9561659Y-637437D01*
G01X9562795Y-637664D01*
G01X9583022Y-637892D01*
G01X9583022Y-637892D01*
G01X9602340Y-637664D01*
G01X9602795Y-636755D01*
G01X9603022Y-623801D01*
G01X9602852Y-614482D01*
G01X9602340Y-611073D01*
G01X9581886Y-610619D01*
G01X9562113Y-610619D01*
G01X9561886Y-611755D01*
G01X9561659Y-625164D01*
G01X9550563Y-625164D01*
G01X9550750Y-599937D01*
G01X9582795Y-599710D01*
G01X9614386Y-599710D01*
G01X9614386Y-629482D01*
G01X9614613Y-659937D01*
G01X9615068Y-669483D01*
G01X9615522Y-674937D01*
G01X9615977Y-679937D01*
G01X9616431Y-681755D01*
G01X9616659Y-684028D01*
G01X9617113Y-686073D01*
G01X9617568Y-688346D01*
G01X9618022Y-690392D01*
G01X9618931Y-694028D01*
G01X9619613Y-695846D01*
G01X9620295Y-697891D01*
G01X9621204Y-699937D01*
G01X9623704Y-704937D01*
G01X9625068Y-707210D01*
G01X9627795Y-711301D01*
G01X9628931Y-713119D01*
G01X9630068Y-714255D01*
G01X9631886Y-716528D01*
G01X9634613Y-719710D01*
G01X9642795Y-727892D01*
G01X9643136Y-728687D01*
G01X9642795Y-729255D01*
G01X9640522Y-731528D01*
G01X9638704Y-732892D01*
G37*
G36*
G01X9678022Y-659710D02*
G01X9677795Y-714482D01*
G01X9672568Y-714710D01*
G01X9667568Y-714710D01*
G01X9667340Y-713573D01*
G01X9667113Y-708346D01*
G01X9667113Y-704255D01*
G01X9632568Y-704255D01*
G01X9632340Y-703119D01*
G01X9632140Y-659255D01*
G01X9643022Y-659255D01*
G01X9643022Y-693346D01*
G01X9654840Y-693346D01*
G01X9654840Y-693346D01*
G01X9666886Y-693119D01*
G01X9667113Y-676073D01*
G01X9667113Y-659255D01*
G01X9643022Y-659255D01*
G01X9632140Y-659255D01*
G01X9632113Y-653346D01*
G01X9632113Y-615164D01*
G01X9643022Y-615164D01*
G01X9643022Y-648346D01*
G01X9654840Y-648346D01*
G01X9654840Y-648346D01*
G01X9666886Y-648119D01*
G01X9667113Y-631528D01*
G01X9667113Y-615164D01*
G01X9643022Y-615164D01*
G01X9632113Y-615164D01*
G01X9632113Y-604710D01*
G01X9633704Y-604255D01*
G01X9655977Y-603801D01*
G01X9671659Y-603971D01*
G01X9677341Y-604482D01*
G01X9677852Y-618630D01*
G01X9678022Y-659710D01*
G37*
G36*
G01X9705977Y-729482D02*
G01X9704613Y-731755D01*
G01X9703874Y-732551D01*
G01X9703022Y-732664D01*
G01X9701204Y-731755D01*
G01X9699159Y-730391D01*
G01X9697113Y-729255D01*
G01X9695295Y-728119D01*
G01X9694159Y-726755D01*
G01X9694386Y-725619D01*
G01X9695295Y-724255D01*
G01X9696204Y-722664D01*
G01X9698477Y-719028D01*
G01X9699386Y-717437D01*
G01X9700522Y-715619D01*
G01X9701886Y-713573D01*
G01X9703022Y-711755D01*
G01X9704159Y-710164D01*
G01X9705522Y-708119D01*
G01X9707795Y-704937D01*
G01X9710522Y-700846D01*
G01X9711659Y-699482D01*
G01X9713022Y-699482D01*
G01X9714386Y-700164D01*
G01X9715522Y-700846D01*
G01X9717113Y-701755D01*
G01X9719159Y-702892D01*
G01X9720749Y-704255D01*
G01X9720749Y-705619D01*
G01X9719613Y-707210D01*
G01X9716886Y-711301D01*
G01X9715749Y-713119D01*
G01X9713931Y-715846D01*
G01X9712795Y-717664D01*
G01X9710068Y-722210D01*
G01X9708931Y-724255D01*
G01X9707113Y-727437D01*
G01X9705977Y-729482D01*
G37*
G36*
G01X9765295Y-674710D02*
G01X9765068Y-696755D01*
G01X9759841Y-696982D01*
G01X9754841Y-696982D01*
G01X9754613Y-695846D01*
G01X9754386Y-693573D01*
G01X9754386Y-692437D01*
G01X9711204Y-692437D01*
G01X9710977Y-693573D01*
G01X9710749Y-695846D01*
G01X9710749Y-696982D01*
G01X9700295Y-696982D01*
G01X9700068Y-695846D01*
G01X9699840Y-673346D01*
G01X9699840Y-672437D01*
G01X9710749Y-672437D01*
G01X9710749Y-682437D01*
G01X9711886Y-682664D01*
G01X9711886Y-682664D01*
G01X9733704Y-682891D01*
G01X9754386Y-682891D01*
G01X9754386Y-661073D01*
G01X9733022Y-661073D01*
G01X9716886Y-661244D01*
G01X9711204Y-661755D01*
G01X9710749Y-672437D01*
G01X9699840Y-672437D01*
G01X9699840Y-651982D01*
G01X9701431Y-651755D01*
G01X9733022Y-651528D01*
G01X9763477Y-651755D01*
G01X9764159Y-651301D01*
G01X9764159Y-650733D01*
G01X9763704Y-650392D01*
G01X9761886Y-649255D01*
G01X9759613Y-647437D01*
G01X9757795Y-646073D01*
G01X9754386Y-642664D01*
G01X9753249Y-641301D01*
G01X9751886Y-639482D01*
G01X9750522Y-637892D01*
G01X9749613Y-636755D01*
G01X9748704Y-635164D01*
G01X9747568Y-633119D01*
G01X9745750Y-629482D01*
G01X9744386Y-625846D01*
G01X9743704Y-623801D01*
G01X9743250Y-622210D01*
G01X9742340Y-618119D01*
G01X9741886Y-614028D01*
G01X9741659Y-612437D01*
G01X9741431Y-611073D01*
G01X9741431Y-610164D01*
G01X9741374Y-609767D01*
G01X9740750Y-609482D01*
G01X9739159Y-609482D01*
G01X9725522Y-609710D01*
G01X9712113Y-609482D01*
G01X9711204Y-609937D01*
G01X9710749Y-613573D01*
G01X9710977Y-617210D01*
G01X9711431Y-620846D01*
G01X9711886Y-627210D01*
G01X9712568Y-629028D01*
G01X9713477Y-630619D01*
G01X9714840Y-631755D01*
G01X9716431Y-632664D01*
G01X9717795Y-633119D01*
G01X9725522Y-633346D01*
G01X9733250Y-633119D01*
G01X9738022Y-632437D01*
G01X9738761Y-632608D01*
G01X9739159Y-633119D01*
G01X9738931Y-634710D01*
G01X9738477Y-636755D01*
G01X9738250Y-638573D01*
G01X9737795Y-640392D01*
G01X9737568Y-642437D01*
G01X9737284Y-643232D01*
G01X9736431Y-643801D01*
G01X9733477Y-644255D01*
G01X9730977Y-644483D01*
G01X9724159Y-644710D01*
G01X9717340Y-644483D01*
G01X9715068Y-644028D01*
G01X9712568Y-643573D01*
G01X9710522Y-642664D01*
G01X9708250Y-641301D01*
G01X9706659Y-639937D01*
G01X9705522Y-638801D01*
G01X9704159Y-637210D01*
G01X9703022Y-634937D01*
G01X9702113Y-632892D01*
G01X9701431Y-630392D01*
G01X9700977Y-627210D01*
G01X9700522Y-623573D01*
G01X9700295Y-619028D01*
G01X9700068Y-615846D01*
G01X9699613Y-609028D01*
G01X9699386Y-604028D01*
G01X9699386Y-599710D01*
G01X9700522Y-599482D01*
G01X9735522Y-599255D01*
G01X9761034Y-599482D01*
G01X9769841Y-600164D01*
G01X9770295Y-604937D01*
G01X9770295Y-608801D01*
G01X9769159Y-609255D01*
G01X9760977Y-609710D01*
G01X9753249Y-609482D01*
G01X9752738Y-610107D01*
G01X9752568Y-612437D01*
G01X9753022Y-616528D01*
G01X9753931Y-620619D01*
G01X9755295Y-624255D01*
G01X9756204Y-626301D01*
G01X9757113Y-627892D01*
G01X9758931Y-630619D01*
G01X9761659Y-634028D01*
G01X9763931Y-636301D01*
G01X9766659Y-638573D01*
G01X9770068Y-641301D01*
G01X9773249Y-643119D01*
G01X9774613Y-643801D01*
G01X9775750Y-644710D01*
G01X9775920Y-645164D01*
G01X9775522Y-645619D01*
G01X9774386Y-646755D01*
G01X9773022Y-648573D01*
G01X9771431Y-650164D01*
G01X9769613Y-652437D01*
G01X9768477Y-653119D01*
G01X9767340Y-652892D01*
G01X9765977Y-652664D01*
G01X9765465Y-658289D01*
G01X9765295Y-674710D01*
G37*
G36*
G01X9743931Y-731983D02*
G01X9743477Y-732664D01*
G01X9742795Y-732437D01*
G01X9737795Y-729937D01*
G01X9736204Y-729255D01*
G01X9734386Y-728346D01*
G01X9733761Y-727721D01*
G01X9733704Y-726755D01*
G01X9734386Y-724937D01*
G01X9739840Y-714028D01*
G01X9740977Y-712210D01*
G01X9742113Y-710164D01*
G01X9743931Y-706982D01*
G01X9745068Y-704937D01*
G01X9746204Y-702664D01*
G01X9746772Y-701812D01*
G01X9747568Y-701528D01*
G01X9749159Y-701982D01*
G01X9750977Y-702892D01*
G01X9755068Y-704710D01*
G01X9756431Y-705846D01*
G01X9756204Y-707210D01*
G01X9755295Y-708801D01*
G01X9754159Y-710846D01*
G01X9747795Y-723573D01*
G01X9747113Y-725164D01*
G01X9746204Y-727210D01*
G01X9745295Y-729028D01*
G01X9744613Y-730619D01*
G01X9743931Y-731983D01*
G37*
G36*
G01X9783022Y-731528D02*
G01X9782340Y-733119D01*
G01X9781943Y-733630D01*
G01X9781204Y-733801D01*
G01X9779840Y-733346D01*
G01X9778477Y-732664D01*
G01X9772340Y-729937D01*
G01X9771602Y-729142D01*
G01X9771659Y-728119D01*
G01X9772568Y-726301D01*
G01X9773931Y-723119D01*
G01X9780750Y-709482D01*
G01X9781659Y-707892D01*
G01X9782795Y-705846D01*
G01X9783931Y-703573D01*
G01X9784500Y-702721D01*
G01X9785295Y-702437D01*
G01X9786886Y-702892D01*
G01X9788704Y-703801D01*
G01X9792795Y-705619D01*
G01X9794158Y-706755D01*
G01X9793931Y-708119D01*
G01X9787568Y-720846D01*
G01X9786659Y-722892D01*
G01X9785750Y-725164D01*
G01X9783931Y-729255D01*
G01X9783022Y-731528D01*
G37*
G36*
G01X9828022Y-649483D02*
G01X9827795Y-696301D01*
G01X9826318Y-696812D01*
G01X9822340Y-696982D01*
G01X9817113Y-696982D01*
G01X9816886Y-695392D01*
G01X9816659Y-691982D01*
G01X9816659Y-690164D01*
G01X9791659Y-690164D01*
G01X9791659Y-692437D01*
G01X9791488Y-694312D01*
G01X9790977Y-695392D01*
G01X9789329Y-695903D01*
G01X9785750Y-696073D01*
G01X9782284Y-695903D01*
G01X9780977Y-695392D01*
G01X9780760Y-649710D01*
G01X9791659Y-649710D01*
G01X9791659Y-679710D01*
G01X9792795Y-679937D01*
G01X9804840Y-680164D01*
G01X9804840Y-680164D01*
G01X9815977Y-679937D01*
G01X9816431Y-679028D01*
G01X9816659Y-664028D01*
G01X9816659Y-649710D01*
G01X9791659Y-649710D01*
G01X9780760Y-649710D01*
G01X9780750Y-647437D01*
G01X9780750Y-639255D01*
G01X9791659Y-639255D01*
G01X9803931Y-639255D01*
G01X9813193Y-639085D01*
G01X9816431Y-638573D01*
G01X9816659Y-624255D01*
G01X9816431Y-613971D01*
G01X9815749Y-610391D01*
G01X9814159Y-610391D01*
G01X9803477Y-610619D01*
G01X9792795Y-610391D01*
G01X9792227Y-610505D01*
G01X9791886Y-611301D01*
G01X9791659Y-625846D01*
G01X9791659Y-639255D01*
G01X9791659Y-639255D01*
G01X9780750Y-639255D01*
G01X9780750Y-600164D01*
G01X9827568Y-600164D01*
G01X9827795Y-601755D01*
G01X9828022Y-649483D01*
G37*
G36*
G01X9827795Y-734710D02*
G01X9826204Y-735619D01*
G01X9824613Y-735619D01*
G01X9823704Y-734255D01*
G01X9823022Y-732664D01*
G01X9822113Y-731073D01*
G01X9820977Y-729028D01*
G01X9817113Y-721301D01*
G01X9816204Y-719710D01*
G01X9815295Y-717664D01*
G01X9813477Y-714028D01*
G01X9811659Y-709937D01*
G01X9810749Y-708119D01*
G01X9810068Y-706528D01*
G01X9809613Y-704937D01*
G01X9809613Y-704312D01*
G01X9810068Y-703801D01*
G01X9811659Y-703119D01*
G01X9813477Y-702437D01*
G01X9815749Y-701528D01*
G01X9817795Y-700846D01*
G01X9819159Y-700619D01*
G01X9819727Y-700846D01*
G01X9820068Y-701528D01*
G01X9820522Y-703119D01*
G01X9821204Y-704710D01*
G01X9823931Y-710846D01*
G01X9826659Y-716301D01*
G01X9827568Y-717892D01*
G01X9828704Y-719937D01*
G01X9829613Y-721755D01*
G01X9832341Y-726528D01*
G01X9833477Y-728573D01*
G01X9834386Y-730164D01*
G01X9834613Y-731301D01*
G01X9833477Y-732210D01*
G01X9831659Y-732892D01*
G01X9829613Y-733801D01*
G01X9827795Y-734710D01*
G37*
G36*
G01X9944613Y-732210D02*
G01X9941659Y-732892D01*
G01X9907340Y-733346D01*
G01X9873931Y-732892D01*
G01X9869840Y-731983D01*
G01X9867795Y-731301D01*
G01X9865977Y-730619D01*
G01X9864159Y-729710D01*
G01X9862568Y-728801D01*
G01X9861431Y-727892D01*
G01X9860295Y-726755D01*
G01X9857568Y-723346D01*
G01X9856658Y-721755D01*
G01X9855749Y-719937D01*
G01X9855068Y-718119D01*
G01X9853704Y-712664D01*
G01X9851886Y-704482D01*
G01X9851658Y-702437D01*
G01X9851204Y-700164D01*
G01X9850749Y-697664D01*
G01X9850522Y-695392D01*
G01X9850636Y-694766D01*
G01X9851431Y-694255D01*
G01X9853477Y-693573D01*
G01X9855068Y-693119D01*
G01X9856658Y-692437D01*
G01X9858704Y-691528D01*
G01X9860522Y-690846D01*
G01X9861147Y-690846D01*
G01X9861658Y-691301D01*
G01X9862340Y-694028D01*
G01X9862568Y-697437D01*
G01X9862795Y-699482D01*
G01X9863250Y-701301D01*
G01X9863477Y-703573D01*
G01X9863704Y-705392D01*
G01X9864159Y-707210D01*
G01X9864613Y-709710D01*
G01X9865068Y-711755D01*
G01X9865522Y-713346D01*
G01X9866431Y-715392D01*
G01X9867568Y-717210D01*
G01X9869159Y-718573D01*
G01X9873249Y-720619D01*
G01X9875977Y-721301D01*
G01X9879613Y-721755D01*
G01X9909158Y-721983D01*
G01X9937795Y-721755D01*
G01X9939840Y-721073D01*
G01X9941886Y-720164D01*
G01X9943249Y-719255D01*
G01X9944613Y-717664D01*
G01X9945749Y-715164D01*
G01X9946431Y-713119D01*
G01X9946659Y-685392D01*
G01X9946659Y-658346D01*
G01X9916204Y-658346D01*
G01X9893363Y-658573D01*
G01X9885749Y-659255D01*
G01X9885977Y-660846D01*
G01X9886431Y-672210D01*
G01X9886886Y-674937D01*
G01X9887113Y-678573D01*
G01X9887340Y-680846D01*
G01X9888022Y-683119D01*
G01X9888931Y-685392D01*
G01X9889840Y-686755D01*
G01X9891431Y-687891D01*
G01X9893704Y-688801D01*
G01X9896431Y-689255D01*
G01X9898704Y-689482D01*
G01X9901886Y-689710D01*
G01X9905068Y-689482D01*
G01X9915522Y-689028D01*
G01X9917795Y-688573D01*
G01X9919386Y-688346D01*
G01X9919386Y-690164D01*
G01X9918931Y-692891D01*
G01X9918477Y-695392D01*
G01X9918249Y-697664D01*
G01X9917568Y-699482D01*
G01X9916943Y-700392D01*
G01X9915977Y-700846D01*
G01X9903477Y-701073D01*
G01X9891431Y-700846D01*
G01X9889613Y-700392D01*
G01X9887340Y-699710D01*
G01X9885068Y-698573D01*
G01X9883022Y-697437D01*
G01X9881659Y-696301D01*
G01X9880522Y-695164D01*
G01X9879613Y-694028D01*
G01X9878931Y-692437D01*
G01X9878022Y-690392D01*
G01X9877340Y-688573D01*
G01X9876431Y-684937D01*
G01X9875977Y-681755D01*
G01X9875522Y-679483D01*
G01X9875295Y-675846D01*
G01X9875068Y-673119D01*
G01X9874613Y-669028D01*
G01X9874159Y-658573D01*
G01X9873477Y-649710D01*
G01X9873477Y-647437D01*
G01X9874613Y-647210D01*
G01X9917113Y-646982D01*
G01X9948136Y-646812D01*
G01X9958477Y-646301D01*
G01X9957340Y-644937D01*
G01X9953249Y-642210D01*
G01X9950977Y-640619D01*
G01X9941886Y-633801D01*
G01X9940749Y-632664D01*
G01X9938477Y-630846D01*
G01X9933022Y-626301D01*
G01X9930750Y-624028D01*
G01X9927568Y-621301D01*
G01X9925295Y-619028D01*
G01X9924386Y-617892D01*
G01X9923022Y-616301D01*
G01X9919158Y-612437D01*
G01X9917340Y-610164D01*
G01X9916204Y-608801D01*
G01X9914840Y-607437D01*
G01X9913477Y-607210D01*
G01X9911431Y-609255D01*
G01X9908704Y-612437D01*
G01X9906431Y-615164D01*
G01X9895068Y-626528D01*
G01X9893249Y-627892D01*
G01X9891659Y-629255D01*
G01X9890522Y-630164D01*
G01X9889386Y-631301D01*
G01X9886659Y-633573D01*
G01X9885522Y-634482D01*
G01X9884386Y-635164D01*
G01X9883249Y-636073D01*
G01X9877795Y-640164D01*
G01X9875522Y-641755D01*
G01X9869386Y-645846D01*
G01X9867340Y-646982D01*
G01X9865749Y-647892D01*
G01X9864386Y-648801D01*
G01X9862340Y-649937D01*
G01X9860522Y-651073D01*
G01X9858931Y-651982D01*
G01X9856886Y-653119D01*
G01X9852795Y-655164D01*
G01X9851204Y-656073D01*
G01X9849386Y-656755D01*
G01X9848647Y-656698D01*
G01X9848250Y-656073D01*
G01X9847568Y-654710D01*
G01X9846431Y-653119D01*
G01X9845295Y-651301D01*
G01X9844386Y-649937D01*
G01X9843250Y-648346D01*
G01X9842113Y-646528D01*
G01X9841943Y-645733D01*
G01X9842340Y-645164D01*
G01X9850522Y-641528D01*
G01X9859613Y-636982D01*
G01X9861658Y-635846D01*
G01X9863477Y-634710D01*
G01X9865068Y-633801D01*
G01X9866886Y-632892D01*
G01X9868477Y-631982D01*
G01X9871658Y-629710D01*
G01X9874386Y-627892D01*
G01X9875977Y-626755D01*
G01X9878249Y-625164D01*
G01X9880068Y-623801D01*
G01X9886886Y-618346D01*
G01X9889159Y-616073D01*
G01X9891886Y-613801D01*
G01X9897340Y-608346D01*
G01X9898477Y-606755D01*
G01X9900068Y-605164D01*
G01X9904159Y-600391D01*
G01X9905295Y-598801D01*
G01X9905522Y-597437D01*
G01X9904386Y-595391D01*
G01X9903477Y-593801D01*
G01X9911204Y-593346D01*
G01X9917113Y-593516D01*
G01X9919386Y-594028D01*
G01X9920750Y-595846D01*
G01X9922340Y-597892D01*
G01X9923704Y-599937D01*
G01X9927795Y-604710D01*
G01X9928931Y-605846D01*
G01X9930750Y-608119D01*
G01X9934158Y-611528D01*
G01X9935522Y-612664D01*
G01X9936886Y-614028D01*
G01X9938704Y-615619D01*
G01X9940295Y-617210D01*
G01X9942568Y-619028D01*
G01X9945749Y-621755D01*
G01X9949159Y-624482D01*
G01X9950749Y-625391D01*
G01X9952340Y-626528D01*
G01X9953477Y-627437D01*
G01X9956659Y-629710D01*
G01X9958022Y-630619D01*
G01X9959840Y-631755D01*
G01X9963931Y-634482D01*
G01X9965749Y-635619D01*
G01X9967340Y-636528D01*
G01X9969159Y-637437D01*
G01X9975522Y-641073D01*
G01X9984613Y-645619D01*
G01X9986204Y-646528D01*
G01X9986886Y-647096D01*
G01X9987113Y-647892D01*
G01X9986431Y-649255D01*
G01X9984159Y-652437D01*
G01X9983250Y-653801D01*
G01X9982568Y-655164D01*
G01X9981658Y-656528D01*
G01X9980522Y-658119D01*
G01X9979840Y-658517D01*
G01X9979159Y-658346D01*
G01X9969613Y-652892D01*
G01X9967795Y-651755D01*
G01X9965522Y-650392D01*
G01X9961431Y-647664D01*
G01X9959613Y-646755D01*
G01X9959045Y-646869D01*
G01X9958704Y-647664D01*
G01X9958477Y-683119D01*
G01X9958022Y-718346D01*
G01X9956659Y-722437D01*
G01X9955749Y-724255D01*
G01X9954386Y-726301D01*
G01X9951659Y-729028D01*
G01X9950295Y-729937D01*
G01X9948704Y-730619D01*
G01X9946886Y-731528D01*
G01X9944613Y-732210D01*
G37*
G54D10*
G01X10741608Y734396D02*
G01X10734242Y737952D01*
G01X10726876Y745318D01*
G01X10723320Y752684D01*
G01X10723320Y767416D01*
G01X10726876Y774782D01*
G01X10734242Y782148D01*
G01X10741608Y785958D01*
G01X10752784Y789514D01*
G01X10771326Y789514D01*
G01X10782248Y785958D01*
G01X10789614Y782148D01*
G01X10796980Y774782D01*
G01X10800790Y767416D01*
G01X10800790Y752684D01*
G01X10796980Y745318D01*
G01X10789614Y737952D01*
G01X10782248Y734396D01*
G01X10738052Y704678D02*
G01X10734242Y697312D01*
G01X10723320Y686136D01*
G01X10800790Y686136D01*
G01X10966011Y785397D02*
G01X10958645Y788953D01*
G01X10951279Y796319D01*
G01X10947723Y803685D01*
G01X10947723Y818417D01*
G01X10951279Y825783D01*
G01X10958645Y833149D01*
G01X10966011Y836959D01*
G01X10977187Y840515D01*
G01X10995729Y840515D01*
G01X11006651Y836959D01*
G01X11014017Y833149D01*
G01X11021383Y825783D01*
G01X11025193Y818417D01*
G01X11025193Y803685D01*
G01X11021383Y796319D01*
G01X11014017Y788953D01*
G01X11006651Y785397D01*
G01X10966011Y752123D02*
G01X10962455Y752123D01*
G01X10955089Y748313D01*
G01X10951279Y744757D01*
G01X10947723Y737137D01*
G01X10947723Y722405D01*
G01X10951279Y715039D01*
G01X10955089Y711483D01*
G01X10962455Y707673D01*
G01X10969821Y707673D01*
G01X10977187Y711483D01*
G01X10988363Y718849D01*
G01X11025193Y755679D01*
G01X11025193Y704117D01*
G01X10412216Y667113D02*
G01X10467588Y667113D01*
G01X10478510Y663557D01*
G01X10485876Y656191D01*
G01X10489686Y645015D01*
G01X10489686Y637649D01*
G01X10485876Y626727D01*
G01X10478510Y619361D01*
G01X10467588Y615551D01*
G01X10412216Y615551D01*
G01X10426948Y585833D02*
G01X10423138Y578467D01*
G01X10412216Y567291D01*
G01X10489686Y567291D01*
G04 Text End*

G04 PolygonModel Start*
G54D11*
G01X10834779Y333216D02*
G02X10794958Y290430I-46990J3810D01*
G01X10709049Y291306D02*
G02X10676616Y333130I19050J48260D01*
G01X10803029Y596106D02*
G02X10835462Y554281I-19050J-48260D01*
G01X10677299Y554195D02*
G02X10717121Y596982I46990J-3810D01*
G01X10677299Y397986D02*
G01X10677299Y333216D01*
G01X10834779Y397986D02*
G01X10834779Y333216D01*
G01X10709049Y291306D02*
G01X10796679Y291306D01*
G01X10715399Y596106D02*
G01X10803029Y596106D01*
G01X10677299Y554196D02*
G01X10677299Y489426D01*
G01X10834779Y554196D02*
G01X10834779Y489426D01*
G01X10849842Y604106D02*
G02X10899842Y654106I50000J-0D01*
G01X10999842Y654106D02*
G02X11049842Y604106I-0J-50000D01*
G01X10899842Y274106D02*
G02X10849842Y324106I0J50000D01*
G01X11049842Y324106D02*
G02X10999842Y274106I-50000J0D01*
G01X10849842Y514106D02*
G01X10849842Y604106D01*
G01X11049842Y514106D02*
G01X11049842Y604106D01*
G01X10999842Y654106D02*
G01X10899842Y654106D01*
G01X10999842Y274106D02*
G01X10899842Y274106D01*
G01X10999842Y274106D02*
G01X10999842Y274106D01*
G01X10849842Y324106D02*
G01X10849842Y414106D01*
G01X11049842Y324106D02*
G01X11049842Y414106D01*
G54D12*
G01X10626565Y274251D02*
G01X10626565Y9014D01*
G01X10626565Y9014D02*
G01X10511684Y9014D01*
G01X10161329Y274251D02*
G01X10161329Y9014D01*
G01X10161329Y9014D02*
G01X10276211Y9014D01*

M02*

