;TYPE=PLATED
;Layer: PTH_Through_Via
;EasyEDA Pro Client v2.2.32.3, 2026-01-09 15:51:16
;Gerber Generator version 0.3
M48
METRIC,LZ,000.00000
;Hole size 1 = 0.30000 METRIC
T01C0.30000
%
G05
G90
T01
X-36.9025Y38.85543
X-37.71851Y39.72244
X-10.84116Y50.43258
X-34.04646Y26.10527
X-3.59907Y51.40159
X-28.18139Y25.34026
X-20.88829Y41.35446
X-31.08843Y27.38028
X-13.9522Y51.45259
X-15.38022Y48.39255
X-14.76822Y56.85866
X-15.99223Y52.93161
X-12.52419Y52.1156
X-15.89023Y51.5036
X-21.88281Y41.27796
X-28.7424Y34.46937
X-24.76434Y29.87932
X-21.3473Y27.48228
X-33.12845Y32.93935
X-33.94446Y37.32541
X-33.84246Y38.29442
X-25.83536Y38.75343
X-24.25434Y41.35446
X-15.89023Y40.64045
X-38.07552Y41.35446
X-4.97609Y47.67855
X-10.28016Y37.83542
X-17.29714Y51.6566
X-14.66621Y30.49132
X-32.51645Y39.00843
X-34.70947Y41.20146
X-24.76434Y31.15433
X-25.52935Y27.53329
X-34.91348Y30.03232
X-23.74433Y57.71953
X-17.06325Y57.98068
X-10.12716Y74.35189
X-9.71915Y75.88191
X-25.01935Y88.58108
X-20.83729Y88.83608
X-8.59714Y76.34092
X-7.67912Y76.69792
X-16.45124Y90.1621
X-31.54743Y50.73859
X-25.88636Y72.82187
X-25.42735Y71.34285
X-28.6914Y71.52548
X-28.6914Y64.45776
X-25.32535Y67.2628
X-28.64039Y73.43388
X-30.22142Y73.43388
X-34.63297Y50.50908
X-50.92768Y61.80573
X-50.67269Y58.43969
X-47.15363Y39.41644
X-47.86764Y40.13045
X-52.2027Y61.70373
X-51.9477Y58.33768
X-9.56615Y59.2557
X-11.50417Y44.66951
X-19.25627Y34.41837
X-23.74433Y34.16337
X-13.5442Y48.18855
X-5.9451Y47.93355
X-20.02128Y70.22084
X-30.01741Y30.28732
X-28.23239Y29.98132
X-13.3912Y38.70243
X-17.26725Y34.97938
X-20.78629Y31.10333
X-29.81341Y33.95937
X-32.15944Y30.54232
X-37.0555Y28.7573
X-44.90961Y28.9103
X-16.79045Y68.25757
X-16.12745Y69.48159
X-15.83844Y68.25757
X-15.17543Y69.48159
X-14.88643Y68.25757
X-14.22342Y69.48159
X-13.93442Y68.25757
X-13.27141Y69.48159
X-16.99446Y65.91154
X-16.33145Y67.13556
X-16.04244Y65.91154
X-15.37944Y67.13556
X-15.09043Y65.91154
X-14.42742Y67.13556
X-14.13842Y65.91154
X-13.47541Y67.13556
X-16.84145Y63.51451
X-16.17845Y64.73852
X-15.88944Y63.51451
X-15.22643Y64.73852
X-14.93743Y63.51451
X-14.27442Y64.73852
X-13.98542Y63.51451
X-13.32241Y64.73852
X-16.43345Y60.86247
X-15.77044Y62.08649
X-15.48144Y60.86247
X-14.81843Y62.08649
X-14.52942Y60.86247
X-13.86642Y62.08649
X-13.57741Y60.86247
X-12.9144Y62.08649
X-11.89439Y65.65654
X-11.23138Y66.88055
X-10.94238Y65.65654
X-10.27937Y66.88055
X-9.99037Y65.65654
X-9.32736Y66.88055
X-9.03835Y65.65654
X-8.37535Y66.88055
X-10.92538Y63.46351
X-10.26237Y64.68752
X-9.97337Y63.46351
X-9.31036Y64.68752
X-9.02135Y63.46351
X-8.35834Y64.68752
X-8.06934Y63.46351
X-7.40633Y64.68752
X-5.1623Y59.79146
X-4.4993Y61.01548
X-4.21029Y59.79146
X-3.54728Y61.01548
X-3.25828Y59.79146
X-2.59527Y61.01548
X-2.30627Y59.79146
X-1.64326Y61.01548
X-6.74332Y57.19043
X-6.08032Y58.41444
X-5.79131Y57.19043
X-5.1283Y58.41444
X-4.8393Y57.19043
X-4.17629Y58.41444
X-3.88729Y57.19043
X-3.22428Y58.41444
X-58.764Y44.23626
X-58.25399Y43.47125
X-57.81198Y44.23626
X-57.30198Y43.47125
X-56.85997Y44.23626
X-56.34997Y43.47125
X-55.90796Y44.23626
X-55.39795Y43.47125
X-65.95509Y43.01224
X-62.48705Y43.67525
X-65.36008Y43.62425
X-69.38913Y43.93026
X-64.40807Y43.62425
X-68.28412Y43.98126
X-63.45606Y43.62425
X-67.0261Y43.87925
X-26.99133Y44.5525
X-32.77145Y41.09946
X-30.47642Y41.20146
X-25.40123Y41.27859
X-25.88636Y46.76053
X-29.71141Y45.58752
X-19.97028Y38.80443
X-24.25434Y32.32735
X-23.64233Y32.83735
X-23.13232Y35.28539
X-23.23432Y36.81541
X-65.02962Y48.86935
X-65.02962Y49.82136
X-64.41762Y49.26035
X-65.02962Y50.77337
X-64.41762Y50.21237
X-65.02962Y51.72539
X-64.41762Y51.16438
X-42.17336Y46.68378
X-43.27837Y46.63277
X-44.43439Y46.47977
X-41.96935Y45.81676
X-30.14517Y69.37161
X-22.54607Y67.53559
X-30.14517Y70.32363
X-31.36919Y70.98663
X-30.14517Y71.27564
X-31.36919Y71.93865
X-30.14517Y72.22765
X-31.36919Y72.89066
X-30.29577Y63.64718
X-31.51978Y64.31019
X-30.29577Y64.59919
X-31.51978Y65.2622
X-30.29577Y65.5512
X-31.51978Y66.21421
X-30.29577Y66.50321
X-31.51978Y67.16622
X-14.12142Y91.30987
X-14.01942Y92.17688
X-15.60044Y92.38088
X-69.46473Y38.54111
X-68.82779Y38.54111
X-68.19084Y38.54111
X-67.5539Y38.54111
X-69.46473Y37.92079
X-68.82779Y37.92079
X-68.19084Y37.92079
X-67.5539Y37.92079
X-69.46473Y37.30046
X-68.82779Y37.30046
X-68.19084Y37.30046
X-67.5539Y37.30046
X-69.46473Y36.68013
X-68.82779Y36.68013
X-68.19084Y36.68013
X-67.5539Y36.68013
X-69.46473Y36.05981
X-68.82779Y36.05981
X-68.19084Y36.05981
X-67.5539Y36.05981
X-72.48317Y39.9012
X-71.53116Y39.9012
X-70.57915Y39.9012
X-71.66716Y40.97222
X-68.11412Y40.10521
X-69.25313Y40.15621
X-71.71816Y43.36925
X-70.61315Y44.18526
X-64.96908Y42.70624
X-72.57772Y36.93519
X-72.57772Y37.88721
X-72.57772Y38.83922
X-72.67972Y34.13016
X-72.67972Y35.08217
X-72.67972Y36.03418
X-71.84636Y34.40073
X-70.89435Y34.40073
X-69.94234Y34.40073
X-74.6252Y35.92315
X-72.19417Y32.81211
X-71.24216Y32.81211
X-70.38543Y33.43091
X-69.43342Y33.43091
X-68.48141Y33.43091
X-73.65619Y34.95414
X-73.36719Y41.22722
X-68.74313Y34.24013
X-75.2022Y36.93772
X-75.2022Y37.88973
X-75.2022Y38.84174
X-74.43553Y37.4016
X-74.43553Y38.35362
X-74.43553Y39.30563
X-73.5249Y36.78651
X-73.5249Y37.73852
X-73.5249Y38.69053
X-72.27917Y26.48803
X-71.32716Y26.48803
X-70.37515Y26.48803
X-72.29539Y25.69778
X-71.34337Y25.69778
X-70.39136Y25.69778
X-73.18602Y39.91433
X-71.19699Y41.88636
X-70.48298Y42.63437
X-53.86048Y105.51408
X-57.31715Y105.51408
X-56.16492Y105.51408
X-55.0127Y105.51408
X-58.46937Y105.51408
X-59.62159Y105.51408
X-60.77382Y105.51408
X-61.92604Y105.51408
X-47.01501Y105.51408
X-48.16724Y105.51408
X-49.31946Y105.51408
X-50.47168Y105.51408
X-51.6239Y105.51408
X-48.40341Y104.29007
X-51.86008Y104.29007
X-50.70785Y104.29007
X-49.55563Y104.29007
X-53.0123Y104.29007
X-54.16452Y104.29007
X-55.31674Y104.29007
X-56.46897Y104.29007
X-32.26445Y107.55411
X-33.41667Y107.55411
X-1.79973Y96.5626
X-4.18538Y97.48061
X-3.03316Y97.48061
X-2.69695Y88.09649
X-5.33761Y97.48061
X-6.48983Y97.48061
X-7.64205Y97.48061
X-1.47449Y87.02547
X-4.93116Y87.02547
X-3.77894Y87.02547
X-2.62672Y87.02547
X-6.08338Y87.02547
X-7.23561Y87.02547
X-3.28776Y85.64846
X-4.33798Y88.24949
X-0.81979Y39.41723
X-4.27646Y39.41723
X-7.8163Y37.88721
X-8.8571Y37.83621
X-5.42868Y39.41723
X-6.58091Y39.41723
X-5.7951Y38.34621
X-7.04933Y38.55022
X-8.50952Y32.58314
X-9.50874Y31.10412
X-18.04664Y33.60315
X-17.71984Y32.53214
X-7.34592Y30.33911
X-8.49814Y30.33911
X-9.65036Y30.33911
X-0.71779Y29.16609
X-4.53146Y20.49598
X-3.02224Y29.16609
X-1.87001Y29.16609
X-17.15884Y31.00212
X-18.31106Y31.00212
X-7.63113Y29.16609
X-6.99833Y28.35008
X-6.62249Y18.86396
X-7.40829Y18.45595
X-1.55263Y19.01696
X-2.70486Y19.01696
X-3.85708Y19.01696
X-5.0093Y19.01696
X-10.50992Y17.02794
X-11.66214Y17.02794
X-9.35573Y17.94595
X-9.70077Y19.11655
X-8.48872Y19.57797
X-63.21464Y28.05547
X-62.55163Y29.27948
X-62.26263Y28.05547
X-61.59962Y29.27948
X-61.31061Y28.05547
X-60.64761Y29.27948
X-60.3586Y28.05547
X-59.69559Y29.27948
X-63.11264Y30.04449
X-63.11264Y26.62745
X-58.08057Y29.84049
X-62.16062Y26.62745
X-73.8626Y36.07412
X-56.51655Y30.04449
X-59.933Y106.61481
X-57.14497Y106.71681
X-61.14002Y106.61481
X-54.76856Y102.50347
X-52.46411Y102.50347
X-51.31189Y102.50347
X-50.15967Y102.50347
X-49.00745Y102.50347
X-53.61634Y102.50347
X-57.073Y102.50347
X-55.92078Y102.50347
X-0.84582Y93.59497
X-0.84582Y91.29052
X-0.84582Y90.1383
X-0.84582Y88.98608
X-0.84582Y87.83385
X-0.84582Y92.44274
X-0.84582Y95.89941
X-0.84582Y94.74719
X-0.79482Y83.39483
X-0.79482Y81.09039
X-0.79482Y79.93817
X-0.79482Y78.78594
X-0.79482Y77.63372
X-0.79482Y82.24261
X-1.71283Y85.69928
X-0.79482Y84.54706
X-55.72096Y34.75014
X-54.76895Y34.75014
X-53.81693Y34.75014
X-55.96445Y36.03497
X-55.01244Y36.03497
X-54.06042Y36.03497
X-55.82296Y37.14717
X-54.87095Y37.14717
X-53.91893Y37.14717
X-51.49544Y35.86493
X-51.51244Y38.15996
X-50.56043Y38.15996
X-52.35491Y35.31114
X-50.79089Y37.04517
X-53.15392Y35.46415
X-54.95595Y33.98513
X-54.00394Y33.98513
X-53.05192Y33.98513
X-47.25485Y34.69914
X-46.45584Y35.31114
X-47.20385Y33.52612
X-46.45584Y34.13813
X-45.60583Y34.49513
X-45.59837Y44.00729
X-45.59837Y44.9593
X-45.39437Y45.86031
X-36.49371Y46.73529
X-35.5417Y46.73529
X-34.58968Y46.73529
X-25.91212Y48.08734
X-25.91212Y49.03935
X-25.91212Y49.99136
X-20.35305Y50.38237
X-20.35305Y51.33438
X-20.35305Y52.28639
X-14.15542Y59.38346
X-13.20341Y59.38346
X-12.2514Y59.38346
X-11.75839Y60.96448
X-10.80638Y60.96448
X-9.85436Y60.96448
X-11.91139Y67.84956
X-10.95938Y67.84956
X-10.00737Y67.84956
X-11.29938Y68.92058
X-10.34737Y68.92058
X-9.39536Y68.92058
X-8.23934Y68.20657
X-7.28733Y68.20657
X-6.33532Y68.20657
X-0.64025Y76.57068
X-2.44227Y76.62168
X-1.49026Y76.62168
X-2.27227Y73.61264
X-1.32025Y73.61264
X-0.72525Y75.14266
X-25.27356Y64.02452
X-32.07365Y69.43059
X-31.12164Y69.43059
X-26.60059Y69.49729
X-24.98557Y62.40819
X-24.03356Y62.40819
X-20.81973Y69.82905
X-19.00071Y69.82905
X-22.58775Y66.71801
X-25.06034Y68.24803
X-25.57979Y62.89296
X-25.03578Y69.31904
X-27.56859Y69.48159
X-23.76054Y73.51064
X-22.70653Y73.51064
X-22.57053Y69.77882
X-24.37255Y66.05577
X-22.60453Y68.70781
X-16.96046Y69.17558
X-24.16855Y71.31761
X-20.97251Y68.97158
X-21.4493Y58.64369
X-23.76983Y52.95712
X-115.57873Y56.52742
X-114.62672Y56.52742
X-113.67471Y56.52742
X-112.7227Y56.52742
X-31.77341Y57.36545
X-54.90573Y59.81348
X-10.90609Y92.89055
X-11.42446Y91.41034
X-11.11845Y92.17535
X-10.86345Y94.41938
X-9.87084Y94.41275
X-34.92969Y69.99159
X-32.88966Y69.88959
X-34.98069Y63.41251
X-34.11368Y63.0045
X-28.64039Y67.6198
X-33.96068Y70.04259
X-34.26668Y69.27758
X-30.33963Y74.58165
X-31.14161Y73.90865
X-28.60561Y66.47255
X-13.4422Y85.41903
X-6.86311Y88.73408
X-112.51181Y90.02395
X-113.58282Y90.12595
X-115.06184Y89.61594
X-116.18385Y89.36094
X-118.88689Y89.30994
X-102.52853Y79.02664
X-102.27353Y79.89366
X-101.50852Y79.12865
X-13.31844Y46.81361
X-15.59549Y46.67362
X-15.71548Y45.53859
X-13.24079Y45.3331
X-2.0473Y50.99566
X-2.96531Y50.43465
X-1.28134Y50.20862
X-2.2513Y52.37268
X-1.12929Y52.57668
X-1.07829Y51.45467
X-2.0983Y56.55473
X-2.71031Y57.37074
X-1.53729Y57.57475
X-1.99043Y58.68147
X-7.65737Y57.98275
X-8.11638Y57.01374
X-3.11831Y62.36881
X-1.69029Y62.31781
X-2.0473Y63.54182
X-1.8943Y69.6619
X-1.8943Y68.38689
X-1.8943Y67.11187
X-1.9453Y65.83685
X-1.8433Y64.66384
X-6.68836Y66.95887
X-6.73936Y65.88785
X-12.50928Y63.74261
X-11.63542Y62.11381
X-7.75937Y69.3049
X-6.63736Y69.3049
X-6.43336Y64.81684
X-10.36041Y62.0118
X-20.01353Y71.62864
X-22.62153Y71.00284
X-24.80759Y55.28472
X-60.04904Y54.87671
X-67.13814Y69.3609
X-100.74757Y67.52487
X-61.37506Y78.89802
X-61.12006Y76.60299
X-45.30985Y60.28278
X-60.20205Y80.93805
X-60.30405Y82.97807
X-21.6533Y71.29892
X-58.36602Y85.93611
X-51.53193Y86.65012
X-63.31309Y87.16982
X-56.377Y90.06717
X-12.72819Y96.54425
X-37.91476Y47.73662
X-36.33374Y90.01616
X-21.13554Y76.14399
X-17.41249Y73.18595
X-99.16655Y66.19886
X-70.50418Y84.55909
X-67.01064Y83.05458
X-68.10715Y87.82314
X-66.01612Y80.47904
X-128.4309Y39.9522
X-127.92089Y39.18719
X-127.47889Y39.9522
X-126.96888Y39.18719
X-130.40292Y39.9012
X-129.89292Y39.13619
X-129.45091Y39.9012
X-128.94091Y39.13619
X-47.98585Y70.25613
X-47.47585Y69.49112
X-47.03384Y70.25613
X-46.52383Y69.49112
X-46.08183Y70.25613
X-45.57182Y69.49112
X-45.12982Y70.25613
X-44.61981Y69.49112
X-73.51981Y71.5561
X-73.00981Y70.79109
X-72.5678Y71.5561
X-72.05779Y70.79109
X-71.61579Y71.5561
X-71.10578Y70.79109
X-70.66378Y71.5561
X-70.15377Y70.79109
X-46.11583Y81.56874
X-45.60583Y80.80373
X-45.16382Y81.56874
X-44.65381Y80.80373
X-44.21181Y81.56874
X-43.7018Y80.80373
X-43.2598Y81.56874
X-42.74979Y80.80373
X-47.08485Y84.62878
X-46.57484Y83.86377
X-46.13283Y84.62878
X-45.62283Y83.86377
X-45.18082Y84.62878
X-44.67081Y83.86377
X-44.22881Y84.62878
X-43.7188Y83.86377
X-46.11583Y93.8089
X-45.60583Y93.04389
X-45.16382Y93.8089
X-44.65381Y93.04389
X-44.21181Y93.8089
X-43.7018Y93.04389
X-43.2598Y93.8089
X-42.74979Y93.04389
X-130.21592Y48.72432
X-130.11392Y47.2963
X-129.55291Y49.94833
X-133.02687Y50.2539
X-132.92487Y49.18289
X-132.82287Y47.75487
X-132.53386Y46.53085
X-132.26186Y50.4069
X-131.97286Y49.18289
X-131.87086Y47.75487
X-131.58185Y46.53085
X-131.30985Y50.4069
X-131.16793Y48.72432
X-131.06593Y47.2963
X-130.77693Y46.07228
X-130.50493Y49.94833
X-125.93187Y48.72432
X-125.82987Y47.2963
X-125.26886Y49.94833
X-129.34891Y46.07228
X-128.7879Y48.72432
X-128.6859Y47.2963
X-128.3969Y46.07228
X-128.12489Y49.94833
X-127.83589Y48.72432
X-127.73389Y47.2963
X-127.44489Y46.07228
X-127.17288Y49.94833
X-126.88388Y48.72432
X-126.78188Y47.2963
X-126.49287Y46.07228
X-126.22087Y49.94833
X-130.47093Y43.52225
X-130.36892Y42.09423
X-129.80792Y44.74627
X-124.75885Y37.60617
X-133.17987Y43.98082
X-133.07787Y42.5528
X-132.78887Y41.32879
X-132.51686Y45.20484
X-132.22786Y43.98082
X-132.12586Y42.5528
X-131.83686Y41.32879
X-131.56485Y45.20484
X-131.27585Y43.98082
X-131.17385Y42.5528
X-131.03193Y40.87022
X-130.75993Y44.74627
X-125.93187Y43.72625
X-125.82987Y42.29823
X-125.26886Y44.95027
X-129.34891Y41.07422
X-128.7879Y43.72625
X-128.6859Y42.29823
X-128.3969Y41.07422
X-128.12489Y44.95027
X-127.83589Y43.72625
X-127.73389Y42.29823
X-127.44489Y41.07422
X-127.17288Y44.95027
X-126.88388Y43.72625
X-126.78188Y42.29823
X-126.49287Y41.07422
X-126.22087Y44.95027
X-128.12489Y37.09617
X-46.06483Y99.31697
X-127.46189Y38.32018
X-124.96285Y43.62425
X-124.40185Y46.27629
X-124.29985Y44.84827
X-124.01084Y43.62425
X-130.31792Y38.32018
X-130.02892Y37.09617
X-47.96886Y99.31697
X-47.67985Y98.09296
X-129.36591Y38.32018
X-129.07691Y37.09617
X-47.01685Y99.31697
X-46.72784Y98.09296
X-128.4139Y38.32018
X-58.968Y70.3996
X-58.45799Y69.63459
X-58.01599Y70.3996
X-57.50598Y69.63459
X-57.06398Y70.3996
X-56.55397Y69.63459
X-56.11196Y70.3996
X-55.60196Y69.63459
X-102.09756Y60.40347
X-101.65555Y61.16848
X-101.14555Y60.40347
X-103.72958Y58.77145
X-103.28757Y59.53646
X-102.77757Y58.77145
X-105.5146Y56.83342
X-105.0726Y57.59843
X-104.56259Y56.83342
X-105.7186Y49.99933
X-105.2766Y50.76434
X-104.76659Y49.99933
X-125.3669Y33.36899
X-124.9249Y34.134
X-124.41489Y33.36899
X-132.25595Y94.16591
X-131.74594Y93.4009
X-131.30394Y94.16591
X-130.79393Y93.4009
X-130.35192Y94.16591
X-129.05612Y93.16848
X-128.54612Y92.40347
X-128.10411Y93.16848
X-127.5941Y92.40347
X-127.1521Y93.16848
X-112.46769Y106.96707
X-111.95769Y106.20206
X-111.51568Y106.96707
X-111.00567Y106.20206
X-110.56367Y106.96707
X-117.00675Y105.74305
X-116.49674Y104.97805
X-116.05474Y105.74305
X-115.54473Y104.97805
X-115.10273Y105.74305
X-93.42747Y106.33504
X-92.91746Y105.57003
X-92.47546Y106.33504
X-91.96545Y105.57003
X-91.52344Y106.33504
X-100.22753Y99.36797
X-99.71753Y98.60296
X-99.27552Y99.36797
X-98.76551Y98.60296
X-98.32351Y99.36797
X-101.85955Y96.76694
X-101.34955Y96.00193
X-100.90754Y96.76694
X-100.39754Y96.00193
X-99.95553Y96.76694
X-92.37343Y99.16397
X-91.86343Y98.39896
X-91.42142Y99.16397
X-90.91141Y98.39896
X-90.46941Y99.16397
X-126.39087Y37.86118
X-50.19589Y98.95997
X-49.75388Y99.72498
X-49.24387Y98.95997
X-48.80187Y99.72498
X-49.88988Y96.97094
X-49.37988Y96.20593
X-48.93787Y96.97094
X-48.42786Y96.20593
X-47.98586Y96.97094
X-132.96996Y39.5952
X-132.45995Y38.83019
X-132.01795Y39.5952
X-131.50794Y38.83019
X-132.08595Y37.81018
X-120.16879Y11.64684
X-119.65879Y10.88183
X-119.21678Y11.64684
X-118.70677Y10.88183
X-118.26477Y11.64684
X-46.31984Y97.27695
X-45.80983Y96.51194
X-129.31491Y35.31114
X-128.03989Y35.41314
X-130.55593Y35.36214
X-98.59551Y50.40734
X-98.08551Y49.64233
X-97.6435Y50.40734
X-97.13349Y49.64233
X-96.69149Y50.40734
X-99.61553Y46.22528
X-99.10552Y45.46027
X-98.66351Y46.22528
X-98.15351Y45.46027
X-97.7115Y46.22528
X-122.56582Y20.36795
X-122.05582Y19.60294
X-121.61381Y20.36795
X-121.1038Y19.60294
X-120.6618Y20.36795
X-74.6082Y41.12522
X-6.43336Y50.12865
X-7.22012Y49.31057
X-10.6294Y47.53262
X-11.44542Y46.5126
X-133.017Y51.67822
X-132.06499Y51.67822
X-131.02798Y51.67822
X-130.07596Y51.67822
X-129.03895Y51.67822
X-128.08694Y51.67822
X-127.15193Y51.67822
X-130.17796Y50.70921
X-128.88595Y50.60721
X-124.9759Y48.82219
X-125.1629Y47.80217
X-125.4349Y46.11915
X-124.70389Y42.5491
X-123.75188Y42.5491
X-125.3159Y41.27409
X-124.36389Y41.27409
X-125.07489Y52.68368
X-121.50484Y46.3086
X-125.68689Y52.7764
X-125.07489Y53.3313
X-127.81493Y50.81121
X-126.79492Y50.76021
X-125.74625Y50.74239
X-124.8569Y46.98616
X-125.82591Y39.84607
X-123.58584Y27.81405
X-123.07583Y27.04904
X-122.63382Y27.81405
X-122.12382Y27.04904
X-121.68181Y27.81405
X-132.20495Y28.37505
X-131.69494Y27.61004
X-131.25294Y28.37505
X-130.74293Y27.61004
X-130.30092Y28.37505
X-132.20495Y20.67395
X-131.69494Y19.90894
X-131.25294Y20.67395
X-130.74293Y19.90894
X-130.30092Y20.67395
X-127.61489Y20.62295
X-127.10488Y19.85794
X-126.66288Y20.62295
X-126.15287Y19.85794
X-125.71086Y20.62295
X-119.81179Y14.85988
X-119.30178Y14.09487
X-118.85977Y14.85988
X-118.34977Y14.09487
X-117.90776Y14.85988
X-105.78661Y7.82179
X-109.96866Y10.57582
X-109.52665Y11.34083
X-109.01665Y10.57582
X-104.64759Y7.82179
X-54.23497Y45.54359
X-51.78694Y45.69659
X-26.3113Y96.44225
X-22.07825Y96.44225
X-17.80049Y96.44225
X-93.34244Y86.66881
X-92.83244Y85.9038
X-92.39043Y86.66881
X-92.98544Y89.42284
X-92.47543Y88.65783
X-92.03343Y89.42284
X-103.30462Y90.90186
X-102.79462Y90.13685
X-102.35261Y90.90186
X-105.3276Y90.23885
X-104.81759Y89.47384
X-104.37559Y90.23885
X-62.03807Y9.89413
X-64.0271Y11.98516
X-51.99094Y22.28729
X-50.81792Y22.7973
X-74.63523Y11.16914
X-74.78823Y10.55714
X-68.98034Y21.36272
X-68.96413Y22.15297
X-68.02833Y21.36272
X-68.01212Y22.15297
X-67.07632Y21.36272
X-67.0601Y22.15297
X-70.74978Y23.26112
X-70.73357Y24.05137
X-69.79777Y23.26112
X-69.78156Y24.05137
X-68.84576Y23.26112
X-68.82954Y24.05137
X-74.35975Y21.57631
X-73.72281Y21.57631
X-73.08586Y21.57631
X-72.44892Y21.57631
X-72.44892Y20.95598
X-72.44892Y20.33566
X-72.44892Y19.71533
X-73.08586Y20.33566
X-73.08586Y20.95598
X-73.72281Y20.95598
X-73.72281Y20.33566
X-74.35975Y20.95598
X-74.35975Y20.33566
X-74.35975Y19.71533
X-74.35975Y19.09501
X-73.72281Y19.71533
X-73.08586Y19.71533
X-73.72281Y19.09501
X-73.08586Y19.09501
X-72.44892Y19.09501
X-68.36215Y13.29501
X-73.46222Y13.77018
X-100.49257Y15.5042
X-55.61199Y24.07231
X-58.11102Y23.86831
X-60.61005Y17.95223
X-69.13334Y19.6797
X-68.18133Y19.6797
X-68.16512Y20.46995
X-69.11713Y20.46995
X-67.19532Y19.8327
X-66.24331Y19.8327
X-66.22709Y20.62295
X-67.17911Y20.62295
X-66.0223Y21.51572
X-65.07029Y21.51572
X-65.05408Y22.30598
X-66.00609Y22.30598
X-68.11333Y23.14774
X-67.16132Y23.14774
X-67.14511Y23.938
X-68.09712Y23.938
X-64.77182Y24.4868
X-63.81981Y24.4868
X-63.8036Y25.27706
X-64.75561Y25.27706
X-68.87834Y25.03477
X-67.92633Y25.03477
X-67.91012Y25.82502
X-68.86213Y25.82502
X-71.17337Y16.16065
X-70.22136Y16.16065
X-70.20515Y16.95091
X-71.15716Y16.95091
X-69.33735Y16.26265
X-70.27236Y14.27363
X-68.72613Y18.78693
X-69.32113Y17.05291
X-84.43354Y12.2846
X-83.48153Y12.2846
X-83.46532Y13.07486
X-84.41733Y13.07486
X-84.53554Y10.55058
X-83.58353Y10.55058
X-83.56732Y11.34083
X-84.51933Y11.34083
X-83.56653Y8.76556
X-82.61452Y8.76556
X-82.59831Y10.88183
X-81.40829Y5.98576
X-83.36253Y6.67453
X-82.41052Y6.67453
X-82.3943Y7.46478
X-83.34632Y7.46478
X-83.1066Y4.40533
X-82.15459Y4.40533
X-82.13837Y5.19558
X-83.09039Y5.19558
X-83.10659Y2.51757
X-82.15458Y2.51757
X-82.13837Y3.30783
X-83.09038Y3.30783
X-85.81056Y1.52346
X-84.85855Y1.52346
X-84.84233Y2.31372
X-85.79435Y2.31372
X-77.19145Y1.67647
X-76.23944Y1.67647
X-76.22322Y2.46672
X-77.17524Y2.46672
X-74.64142Y2.03347
X-73.6894Y2.03347
X-73.67319Y2.82372
X-74.6252Y2.82372
X-72.39739Y2.18647
X-71.44537Y2.18647
X-71.42916Y2.97673
X-72.38117Y2.97673
X-69.89835Y2.18647
X-68.94634Y2.18647
X-68.93013Y2.97673
X-69.88214Y2.97673
X-65.4103Y5.14451
X-64.45828Y5.14451
X-64.44207Y5.93476
X-65.39408Y5.93476
X-65.6143Y7.23554
X-64.66229Y7.23554
X-64.64607Y8.02579
X-65.59809Y8.02579
X-68.10423Y7.00675
X-67.15221Y7.00675
X-67.136Y7.797
X-68.08801Y7.797
X-49.44709Y6.26653
X-48.49508Y6.26653
X-48.47886Y7.05678
X-49.43088Y7.05678
X-53.11914Y6.36853
X-52.16712Y6.36853
X-52.15091Y7.15878
X-53.10292Y7.15878
X-55.10816Y2.69648
X-54.15615Y2.69648
X-54.13994Y3.48673
X-55.09195Y3.48673
X-58.78021Y2.74748
X-57.8282Y2.74748
X-57.81198Y3.53773
X-58.764Y3.53773
X-47.81507Y3.86949
X-46.86306Y3.86949
X-46.84684Y4.65975
X-47.79886Y4.65975
X-47.10106Y1.82947
X-46.14905Y1.82947
X-46.13283Y2.61972
X-47.08485Y2.61972
X-40.57297Y7.79655
X-39.62096Y7.79655
X-39.60475Y8.5868
X-40.55676Y8.5868
X-37.76794Y9.63257
X-36.81593Y9.63257
X-36.79971Y10.42282
X-37.75173Y10.42282
X-38.94095Y2.90048
X-37.98894Y2.90048
X-37.97273Y3.69073
X-38.92474Y3.69073
X-42.205Y2.08447
X-41.25298Y2.08447
X-41.23677Y2.87472
X-42.18878Y2.87472
X-37.41093Y6.47053
X-36.45892Y6.47053
X-36.44271Y7.26078
X-37.39472Y7.26078
X-31.03585Y10.75458
X-30.08384Y10.75458
X-30.06763Y11.54484
X-31.01964Y11.54484
X-25.47678Y10.80558
X-24.52477Y10.80558
X-24.50855Y11.59584
X-25.46057Y11.59584
X-31.08685Y7.69454
X-30.13484Y7.69454
X-30.11863Y8.4848
X-31.07064Y8.4848
X-25.93579Y7.64354
X-24.98377Y7.64354
X-24.96756Y8.4338
X-25.91957Y8.4338
X-30.52584Y4.99151
X-29.57383Y4.99151
X-29.55762Y5.78176
X-30.50963Y5.78176
X-26.08879Y5.34851
X-25.13677Y5.34851
X-25.12056Y6.13877
X-26.07257Y6.13877
X-19.81571Y10.80558
X-18.86369Y10.80558
X-18.84748Y11.59584
X-19.79949Y11.59584
X-20.12171Y7.74554
X-19.1697Y7.74554
X-19.15348Y8.5358
X-20.1055Y8.5358
X-14.25663Y1.82947
X-13.30462Y1.82947
X-13.28841Y2.61972
X-14.24042Y2.61972
X-14.40964Y17.99668
X-13.45762Y17.99668
X-13.44141Y18.78693
X-14.39342Y18.78693
X-24.96677Y17.79267
X-24.01476Y17.79267
X-23.99855Y18.58293
X-24.95056Y18.58293
X-20.88672Y17.94568
X-19.93471Y17.94568
X-19.91849Y18.73593
X-20.87051Y18.73593
X-24.20176Y21.51572
X-23.24975Y21.51572
X-23.23354Y22.30598
X-24.18555Y22.30598
X-36.79893Y21.71973
X-35.84691Y21.71973
X-35.8307Y22.50998
X-36.78271Y22.50998
X-37.00293Y16.26265
X-36.05092Y16.26265
X-36.0347Y17.05291
X-36.98672Y17.05291
X-31.29085Y23.35175
X-31.27464Y24.142
X-31.34186Y20.59771
X-31.32564Y21.38796
X-31.39286Y17.53767
X-31.37664Y18.32792
X-33.48388Y23.30075
X-33.46767Y24.091
X-33.53488Y20.85271
X-33.51867Y21.64297
X-33.48388Y18.04768
X-33.46767Y18.83793
X-65.81212Y60.96749
X-21.0923Y44.92451
X-64.7411Y11.98516
X-65.50611Y11.88315
X-65.60812Y11.06714
X-64.7411Y11.22015
X-50.05291Y22.69529
X-49.1859Y22.64429
X-50.46092Y22.13429
X-51.27693Y22.18529
X-43.57583Y29.27438
X-44.64865Y31.68479
X-45.30985Y33.04843
X-75.04324Y12.34216
X-75.14977Y11.63269
X-75.24724Y42.99356
X-73.36022Y44.01357
X-81.06132Y41.31053
X-82.08133Y44.37057
X-85.34537Y41.61654
X-87.6914Y38.9645
X-84.78436Y37.84249
X-87.4364Y35.85346
X-97.99354Y22.23629
X-97.94253Y23.66431
X-99.16655Y22.7973
X-96.36151Y24.78632
X-98.80955Y28.05036
X-102.6856Y20.14526
X-105.89864Y18.87024
X-112.17172Y18.36024
M30