G04 Layer: DrillDrawingLayer*
G04 EasyEDA Pro v2.2.32.3, 2026-01-09 15:51:15*
G04 Gerber Generator version 0.3*
G04 Scale: 100 percent, Rotated: No, Reflected: No*
G04 Dimensions in millimeters*
G04 Leading zeros omitted, absolute positions, 3 integers and 5 decimals*
%FSLAX35Y35*%
%MOMM*%
%AMIconRect*4,1,4,0.2,-0.2,-0.2,-0.2,-0.2,0.2,0.2,0.2,0.2,-0.2,0*4,0,4,0.166667,-0.166667,0.166667,0.166667,-0.166667,0.166667,-0.166667,-0.166667,0.166667,-0.166667,0*%
%AMIconTriangle*4,1,3,-0.242567,0.171767,0.242567,0.171767,0,-0.2706,-0.242567,0.171767,0*4,0,3,-0.189767,0.1386,0,-0.1953,0.190167,0.1386,-0.189767,0.1386,0*%
%AMIconStar6*4,1,12,0.0862,0.1492,0.213233,0.123367,0.172367,0,0.213233,-0.1229,0.0862,-0.148733,0,-0.245767,-0.085767,-0.148733,-0.213267,-0.1229,-0.171933,0,-0.213267,0.1229,-0.085767,0.1492,0,0.245767,0.0862,0.1492,0*4,0,12,-0.000333,0.195333,-0.064333,0.122667,-0.169667,0.097667,-0.138333,-0.005333,-0.169667,-0.098,-0.064333,-0.122667,-0.000333,-0.195667,0.064333,-0.122667,0.169667,-0.098,0.138667,0.005,0.169667,0.098,0.064333,0.122333,-0.000333,0.195333,0*%
%AMIconStar4*4,1,8,-0.222667,0.222667,0,0.144667,0.222667,0.222667,0.144667,0,0.222667,-0.222667,0,-0.144667,-0.217433,-0.222667,-0.144667,0,-0.222667,0.222667,0*4,0,8,0.166667,-0.166667,0.108,0,0.166667,0.166667,0,0.108,-0.166667,0.166667,-0.108,0,-0.166667,-0.166667,0,-0.108,0.166667,-0.166667,0*%
%AMIconPlus*4,1,12,0.124,-0.2,-0.124,-0.2,-0.124,-0.124,-0.2,-0.124,-0.2,0.124,-0.124,0.124,-0.124,0.2,0.124,0.2,0.124,0.124,0.2,0.124,0.2,-0.124,0.124,-0.124,0.124,-0.2,0*4,0,12,0.090667,-0.166667,0.090667,-0.090667,0.166667,-0.090667,0.166667,0.090667,0.090667,0.090667,0.090667,0.166667,-0.090667,0.166667,-0.090667,0.090667,-0.166667,0.090667,-0.166667,-0.090667,-0.090667,-0.090667,-0.090667,-0.166667,0.090667,-0.166667,0*%
%AMIconX*4,1,16,0.2,-0.2,0.054533,-0.2,0,-0.145467,-0.054533,-0.2,-0.2,-0.2,-0.2,-0.054533,-0.145467,0,-0.2,0.054533,-0.2,0.2,-0.054533,0.2,0,0.145467,0.054533,0.2,0.2,0.2,0.2,0.054533,0.145467,0,0.2,-0.054533,0.2,-0.2,0*4,0,16,0.1668,-0.1664,0.1668,-0.068467,0.097933,0.000067,0.1668,0.068467,0.1668,0.1665,0.068467,0.1665,0,0.097933,-0.068467,0.1665,-0.1668,0.1665,-0.1668,0.068467,-0.097933,0.000067,-0.1668,-0.068467,-0.1668,-0.1664,-0.068467,-0.1664,0,-0.097933,0.068467,-0.1664,0.1668,-0.1664,0*%
%AMIconDiamond*4,1,4,0,-0.26,-0.26,0,0,0.26,0.26,0,0,-0.26,0*4,0,4,0,-0.203433,0.203433,0,0,0.2036,-0.203433,0,0,-0.203433,0*%
%AMIconRect2*4,1,6,0.2,-0.2,-0.2,-0.2,-0.2,0.2,-0.1668,0.1665,-0.166667,-0.166667,0.1668,-0.166667,0.2,-0.2,0*4,1,6,0.2,-0.2,0.1668,-0.166667,0.1668,0.1665,-0.1668,0.1665,-0.2,0.2,0.2,0.2,0.2,-0.2,0*4,1,6,0.133467,-0.133333,-0.133333,-0.133333,-0.133333,0.133467,-0.1,0.100133,-0.1,-0.1,0.100133,-0.1,0.133467,-0.133333,0*4,1,6,0.133467,-0.133333,0.100133,-0.1,0.100133,0.100133,-0.1,0.100133,-0.133333,0.133467,0.133467,0.133467,0.133467,-0.133333,0*%
%ADD10IconRect*%
%ADD11C,0.44X0.373333*%
%ADD12IconTriangle*%
%ADD13IconStar6*%
%ADD14IconStar4*%
%ADD15IconPlus*%
%ADD16IconX*%
%ADD17IconDiamond*%
%ADD18IconRect2*%
G75*


G04 Drill Drawing Start*
G54D10*
G01X-7977720Y339113D03*
G01X-6663723Y339113D03*
G54D11*
G01X-9048656Y484496D03*
G01X-8540656Y484496D03*
G54D12*
G01X-6311106Y254103D03*
G01X-5107105Y254103D03*
G54D13*
G01X-4317413Y3748682D03*
G01X-4063413Y3748682D03*
G01X-3974577Y10490836D03*
G01X-3720577Y10490836D03*
G54D14*
G01X-7670733Y589112D03*
G01X-7420797Y589112D03*
G01X-7220645Y589112D03*
G01X-6970709Y589112D03*
G54D15*
G01X-11038168Y1433537D03*
G01X-11038168Y1687537D03*
G01X-11038168Y1941537D03*
G01X-11038168Y2195537D03*
G01X-11038168Y2449537D03*
G01X-11038168Y2703537D03*
G01X-11038168Y2957537D03*
G01X-11038168Y3211537D03*
G01X-11038168Y3465537D03*
G01X-11038168Y3719537D03*
G01X-11038168Y3973537D03*
G01X-11038168Y4227537D03*
G01X-10784168Y1433537D03*
G01X-10784168Y1687537D03*
G01X-10784168Y1941537D03*
G01X-10784168Y2195537D03*
G01X-10784168Y2449537D03*
G01X-10784168Y2703537D03*
G01X-10784168Y2957537D03*
G01X-10784168Y3211537D03*
G01X-10784168Y3465537D03*
G01X-10784168Y3719537D03*
G01X-10784168Y3973537D03*
G01X-10784168Y4227537D03*
G01X-4534580Y6273081D03*
G01X-4280580Y6273081D03*
G01X-4026580Y6273081D03*
G01X-3772580Y6273081D03*
G01X-2743647Y10263833D03*
G01X-2743647Y10513835D03*
G01X-2493647Y10263833D03*
G01X-2493647Y10513835D03*
G01X-2243648Y10263833D03*
G01X-2243648Y10513835D03*
G01X-1993648Y10263833D03*
G01X-1993648Y10513835D03*
G01X-1743649Y10263833D03*
G01X-1743649Y10513835D03*
G01X-1493649Y10263828D03*
G01X-1493649Y10513828D03*
G54D16*
G01X-11984546Y5333962D03*
G01X-11984546Y6629462D03*
G01X-11984546Y7025662D03*
G01X-11984546Y8305662D03*
G01X-11984546Y8717362D03*
G01X-11984546Y9997362D03*
G01X-11730546Y5333962D03*
G01X-11730546Y6629462D03*
G01X-11730546Y7025662D03*
G01X-11730546Y8305662D03*
G01X-11730546Y8717362D03*
G01X-11730546Y9997362D03*
G01X-11476546Y5333962D03*
G01X-11476546Y6629462D03*
G01X-11476546Y7025662D03*
G01X-11476546Y8305662D03*
G01X-11476546Y8717362D03*
G01X-11476546Y9997362D03*
G01X-11222546Y5333962D03*
G01X-11222546Y6629462D03*
G01X-11222546Y7025662D03*
G01X-11222546Y8305662D03*
G01X-11222546Y8717362D03*
G01X-11222546Y9997362D03*
G01X-10968546Y5333962D03*
G01X-10968546Y6629462D03*
G01X-10968546Y7025662D03*
G01X-10968546Y8305662D03*
G01X-10968546Y8717362D03*
G01X-10968546Y9997362D03*
G01X-10714546Y5333962D03*
G01X-10714546Y6629462D03*
G01X-10714546Y7025662D03*
G01X-10714546Y8305662D03*
G01X-10714546Y8717362D03*
G01X-10714546Y9997362D03*
G01X-10460546Y5333962D03*
G01X-10460546Y6629462D03*
G01X-10460546Y7025662D03*
G01X-10460546Y8305662D03*
G01X-10460546Y8717362D03*
G01X-10460546Y9997362D03*
G01X-10206546Y5333962D03*
G01X-10206546Y6629462D03*
G01X-10206546Y7025662D03*
G01X-10206546Y8305662D03*
G01X-10206546Y8717362D03*
G01X-10206546Y9997362D03*
G01X-5834107Y525110D03*
G01X-5834107Y725110D03*
G01X-5584107Y525110D03*
G01X-5584107Y725110D03*
G54D17*
G01X-13139897Y2295531D03*
G01X-13139897Y2549531D03*
G01X-13139897Y3121742D03*
G01X-13139897Y3375742D03*
G01X-13120272Y8121496D03*
G01X-13120272Y8375496D03*
G01X-13120272Y8629496D03*
G01X-13120272Y5484874D03*
G01X-13120272Y5738874D03*
G01X-13120272Y5992874D03*
G01X-13120272Y6246874D03*
G01X-13120272Y6803185D03*
G01X-13120272Y7057185D03*
G01X-13120272Y7311185D03*
G01X-13120272Y7565185D03*
G01X-13120272Y8883496D03*
G01X-11221269Y245542D03*
G01X-10967269Y245542D03*
G01X-10713269Y245542D03*
G01X-10444052Y10608137D03*
G01X-10190052Y10608137D03*
G01X-10167438Y245542D03*
G01X-9936052Y10608137D03*
G01X-9913438Y245542D03*
G01X-9682052Y10608137D03*
G01X-9659438Y245542D03*
G01X-9478049Y9009726D03*
G01X-9478049Y9263726D03*
G01X-9478049Y9517726D03*
G01X-9478049Y9771726D03*
G01X-9437249Y5936978D03*
G01X-9437249Y6190978D03*
G01X-8221912Y10462904D03*
G01X-7967912Y10462904D03*
G01X-7713912Y10462904D03*
G01X-7053512Y10551804D03*
G01X-6799512Y10551804D03*
G01X-6545512Y10551804D03*
G01X-2358357Y8022198D03*
G01X-2358357Y8276198D03*
G01X-1363844Y8022198D03*
G01X-1363844Y8276198D03*
G01X-276121Y8022198D03*
G01X-276121Y8276198D03*
G01X-276121Y8968482D03*
G01X-276121Y9222482D03*
G01X-276121Y9476482D03*
G01X-252030Y4146354D03*
G01X-252030Y4400354D03*
G01X-252030Y4654354D03*
G01X-252030Y4908354D03*
G01X-249903Y2055623D03*
G01X-249903Y2309623D03*
G01X-249903Y2563623D03*
G01X-249903Y3103338D03*
G01X-249903Y3357338D03*
G01X-249903Y3611338D03*
G54D18*
G01X-13317987Y4398082D03*
G01X-13307787Y4255280D03*
G01X-13302687Y5025390D03*
G01X-13301700Y5167822D03*
G01X-13296996Y3959520D03*
G01X-13292487Y4918289D03*
G01X-13282287Y4775487D03*
G01X-13278887Y4132879D03*
G01X-13253386Y4653085D03*
G01X-13251686Y4520484D03*
G01X-13245995Y3883019D03*
G01X-13226186Y5040690D03*
G01X-13225595Y9416591D03*
G01X-13222786Y4398082D03*
G01X-13220495Y2067395D03*
G01X-13220495Y2837505D03*
G01X-13212586Y4255280D03*
G01X-13208595Y3781018D03*
G01X-13206499Y5167822D03*
G01X-13201795Y3959520D03*
G01X-13197286Y4918289D03*
G01X-13187086Y4775487D03*
G01X-13183686Y4132879D03*
G01X-13174594Y9340090D03*
G01X-13169494Y1990894D03*
G01X-13169494Y2761004D03*
G01X-13158185Y4653085D03*
G01X-13156485Y4520484D03*
G01X-13150794Y3883019D03*
G01X-13130985Y5040690D03*
G01X-13130394Y9416591D03*
G01X-13127585Y4398082D03*
G01X-13125294Y2067395D03*
G01X-13125294Y2837505D03*
G01X-13117385Y4255280D03*
G01X-13116793Y4872432D03*
G01X-13106593Y4729630D03*
G01X-13103193Y4087022D03*
G01X-13102798Y5167822D03*
G01X-13079393Y9340090D03*
G01X-13077693Y4607228D03*
G01X-13075993Y4474627D03*
G01X-13074293Y1990894D03*
G01X-13074293Y2761004D03*
G01X-13055593Y3536214D03*
G01X-13050493Y4994833D03*
G01X-13047093Y4352225D03*
G01X-13040292Y3990120D03*
G01X-13036892Y4209423D03*
G01X-13035192Y9416591D03*
G01X-13031792Y3832018D03*
G01X-13030092Y2067395D03*
G01X-13030092Y2837505D03*
G01X-13021592Y4872432D03*
G01X-13017796Y5070921D03*
G01X-13011392Y4729630D03*
G01X-13007596Y5167822D03*
G01X-13002892Y3709617D03*
G01X-12989292Y3913619D03*
G01X-12980792Y4474627D03*
G01X-12955291Y4994833D03*
G01X-12945091Y3990120D03*
G01X-12936591Y3832018D03*
G01X-12934891Y4107422D03*
G01X-12934891Y4607228D03*
G01X-12931491Y3531114D03*
G01X-12907691Y3709617D03*
G01X-12905612Y9316848D03*
G01X-12903895Y5167822D03*
G01X-12894091Y3913619D03*
G01X-12888595Y5060721D03*
G01X-12878790Y4372625D03*
G01X-12878790Y4872432D03*
G01X-12868590Y4229823D03*
G01X-12868590Y4729630D03*
G01X-12854612Y9240347D03*
G01X-12843090Y3995220D03*
G01X-12841390Y3832018D03*
G01X-12839690Y4107422D03*
G01X-12839690Y4607228D03*
G01X-12812489Y3709617D03*
G01X-12812489Y4495027D03*
G01X-12812489Y4994833D03*
G01X-12810411Y9316848D03*
G01X-12808694Y5167822D03*
G01X-12803989Y3541314D03*
G01X-12792089Y3918719D03*
G01X-12783589Y4372625D03*
G01X-12783589Y4872432D03*
G01X-12781493Y5081121D03*
G01X-12773389Y4229823D03*
G01X-12773389Y4729630D03*
G01X-12761489Y2062295D03*
G01X-12759410Y9240347D03*
G01X-12747889Y3995220D03*
G01X-12746189Y3832018D03*
G01X-12744489Y4107422D03*
G01X-12744489Y4607228D03*
G01X-12717288Y4495027D03*
G01X-12717288Y4994833D03*
G01X-12715210Y9316848D03*
G01X-12715193Y5167822D03*
G01X-12710488Y1985794D03*
G01X-12696888Y3918719D03*
G01X-12688388Y4372625D03*
G01X-12688388Y4872432D03*
G01X-12679492Y5076021D03*
G01X-12678188Y4229823D03*
G01X-12678188Y4729630D03*
G01X-12666288Y2062295D03*
G01X-12649287Y4107422D03*
G01X-12649287Y4607228D03*
G01X-12639087Y3786118D03*
G01X-12622087Y4495027D03*
G01X-12622087Y4994833D03*
G01X-12615287Y1985794D03*
G01X-12593187Y4372625D03*
G01X-12593187Y4872432D03*
G01X-12582987Y4229823D03*
G01X-12582987Y4729630D03*
G01X-12582591Y3984607D03*
G01X-12574625Y5074239D03*
G01X-12571086Y2062295D03*
G01X-12568689Y5277640D03*
G01X-12543490Y4611915D03*
G01X-12536690Y3336899D03*
G01X-12531590Y4127409D03*
G01X-12526886Y4495027D03*
G01X-12526886Y4994833D03*
G01X-12516290Y4780217D03*
G01X-12507489Y5268368D03*
G01X-12507489Y5333130D03*
G01X-12497590Y4882219D03*
G01X-12496285Y4362425D03*
G01X-12492490Y3413400D03*
G01X-12485690Y4698616D03*
G01X-12475885Y3760617D03*
G01X-12470389Y4254910D03*
G01X-12441489Y3336899D03*
G01X-12440185Y4627629D03*
G01X-12436389Y4127409D03*
G01X-12429985Y4484827D03*
G01X-12401084Y4362425D03*
G01X-12375188Y4254910D03*
G01X-12358584Y2781405D03*
G01X-12307583Y2704904D03*
G01X-12263382Y2781405D03*
G01X-12256582Y2036795D03*
G01X-12212382Y2704904D03*
G01X-12205582Y1960294D03*
G01X-12168181Y2781405D03*
G01X-12161381Y2036795D03*
G01X-12150484Y4630860D03*
G01X-12110380Y1960294D03*
G01X-12066180Y2036795D03*
G01X-12016879Y1164684D03*
G01X-11981179Y1485988D03*
G01X-11965879Y1088183D03*
G01X-11930178Y1409487D03*
G01X-11921678Y1164684D03*
G01X-11888689Y8930994D03*
G01X-11885977Y1485988D03*
G01X-11870677Y1088183D03*
G01X-11834977Y1409487D03*
G01X-11826477Y1164684D03*
G01X-11790776Y1485988D03*
G01X-11700675Y10574305D03*
G01X-11649674Y10497805D03*
G01X-11618385Y8936094D03*
G01X-11605474Y10574305D03*
G01X-11557873Y5652742D03*
G01X-11554473Y10497805D03*
G01X-11510273Y10574305D03*
G01X-11506184Y8961594D03*
G01X-11462672Y5652742D03*
G01X-11367471Y5652742D03*
G01X-11358282Y9012595D03*
G01X-11272270Y5652742D03*
G01X-11251181Y9002395D03*
G01X-11246769Y10696707D03*
G01X-11217172Y1836024D03*
G01X-11195769Y10620206D03*
G01X-11151568Y10696707D03*
G01X-11100567Y10620206D03*
G01X-11056367Y10696707D03*
G01X-10996866Y1057582D03*
G01X-10952665Y1134083D03*
G01X-10901665Y1057582D03*
G01X-10589864Y1887024D03*
G01X-10578661Y782179D03*
G01X-10571860Y4999933D03*
G01X-10551460Y5683342D03*
G01X-10532760Y9023885D03*
G01X-10527660Y5076434D03*
G01X-10507260Y5759843D03*
G01X-10481759Y8947384D03*
G01X-10476659Y4999933D03*
G01X-10464759Y782179D03*
G01X-10456259Y5683342D03*
G01X-10437559Y9023885D03*
G01X-10372958Y5877145D03*
G01X-10330462Y9090186D03*
G01X-10328757Y5953646D03*
G01X-10279462Y9013685D03*
G01X-10277757Y5877145D03*
G01X-10268560Y2014526D03*
G01X-10252853Y7902664D03*
G01X-10235261Y9090186D03*
G01X-10227353Y7989366D03*
G01X-10209756Y6040347D03*
G01X-10185955Y9676694D03*
G01X-10165555Y6116848D03*
G01X-10150852Y7912865D03*
G01X-10134955Y9600193D03*
G01X-10114555Y6040347D03*
G01X-10090754Y9676694D03*
G01X-10074757Y6752487D03*
G01X-10049257Y1550420D03*
G01X-10039754Y9600193D03*
G01X-10022753Y9936797D03*
G01X-9995553Y9676694D03*
G01X-9971753Y9860296D03*
G01X-9961553Y4622528D03*
G01X-9927552Y9936797D03*
G01X-9916655Y2279730D03*
G01X-9916655Y6619886D03*
G01X-9910552Y4546027D03*
G01X-9880955Y2805036D03*
G01X-9876551Y9860296D03*
G01X-9866351Y4622528D03*
G01X-9859551Y5040734D03*
G01X-9832351Y9936797D03*
G01X-9815351Y4546027D03*
G01X-9808551Y4964233D03*
G01X-9799354Y2223629D03*
G01X-9794253Y2366431D03*
G01X-9771150Y4622528D03*
G01X-9764350Y5040734D03*
G01X-9713349Y4964233D03*
G01X-9669149Y5040734D03*
G01X-9636151Y2478632D03*
G01X-9342747Y10633504D03*
G01X-9334244Y8666881D03*
G01X-9298544Y8942284D03*
G01X-9291746Y10557003D03*
G01X-9283244Y8590380D03*
G01X-9247546Y10633504D03*
G01X-9247543Y8865783D03*
G01X-9239043Y8666881D03*
G01X-9237343Y9916397D03*
G01X-9203343Y8942284D03*
G01X-9196545Y10557003D03*
G01X-9186343Y9839896D03*
G01X-9152344Y10633504D03*
G01X-9142142Y9916397D03*
G01X-9091141Y9839896D03*
G01X-9046941Y9916397D03*
G01X-8769140Y3896450D03*
G01X-8743640Y3585346D03*
G01X-8581056Y152346D03*
G01X-8579435Y231372D03*
G01X-8534537Y4161654D03*
G01X-8485855Y152346D03*
G01X-8484233Y231372D03*
G01X-8478436Y3784249D03*
G01X-8453554Y1055058D03*
G01X-8451933Y1134083D03*
G01X-8443354Y1228460D03*
G01X-8441733Y1307486D03*
G01X-8358353Y1055058D03*
G01X-8356732Y1134083D03*
G01X-8356653Y876556D03*
G01X-8348153Y1228460D03*
G01X-8346532Y1307486D03*
G01X-8336253Y667453D03*
G01X-8334632Y746478D03*
G01X-8310660Y440533D03*
G01X-8310659Y251757D03*
G01X-8309039Y519558D03*
G01X-8309038Y330783D03*
G01X-8261452Y876556D03*
G01X-8259831Y1088183D03*
G01X-8241052Y667453D03*
G01X-8239430Y746478D03*
G01X-8215459Y440533D03*
G01X-8215458Y251757D03*
G01X-8213837Y519558D03*
G01X-8213837Y330783D03*
G01X-8208133Y4437057D03*
G01X-8140829Y598576D03*
G01X-8106132Y4131053D03*
G01X-7719145Y167647D03*
G01X-7717524Y246672D03*
G01X-7623944Y167647D03*
G01X-7622322Y246672D03*
G01X-7524724Y4299356D03*
G01X-7520220Y3693772D03*
G01X-7520220Y3788973D03*
G01X-7520220Y3884174D03*
G01X-7514977Y1163269D03*
G01X-7504324Y1234216D03*
G01X-7478823Y1055714D03*
G01X-7464142Y203347D03*
G01X-7463523Y1116914D03*
G01X-7462520Y282372D03*
G01X-7462520Y3592315D03*
G01X-7460820Y4112522D03*
G01X-7443553Y3740160D03*
G01X-7443553Y3835362D03*
G01X-7443553Y3930563D03*
G01X-7435975Y1909501D03*
G01X-7435975Y1971533D03*
G01X-7435975Y2033566D03*
G01X-7435975Y2095598D03*
G01X-7435975Y2157631D03*
G01X-7386260Y3607412D03*
G01X-7372281Y1909501D03*
G01X-7372281Y1971533D03*
G01X-7372281Y2033566D03*
G01X-7372281Y2095598D03*
G01X-7372281Y2157631D03*
G01X-7368940Y203347D03*
G01X-7367319Y282372D03*
G01X-7365619Y3495414D03*
G01X-7352490Y3678651D03*
G01X-7352490Y3773852D03*
G01X-7352490Y3869053D03*
G01X-7351981Y7155610D03*
G01X-7346222Y1377018D03*
G01X-7336719Y4122722D03*
G01X-7336022Y4401357D03*
G01X-7318602Y3991433D03*
G01X-7308586Y1909501D03*
G01X-7308586Y1971533D03*
G01X-7308586Y2033566D03*
G01X-7308586Y2095598D03*
G01X-7308586Y2157631D03*
G01X-7300981Y7079109D03*
G01X-7267972Y3413016D03*
G01X-7267972Y3508217D03*
G01X-7267972Y3603418D03*
G01X-7257772Y3693519D03*
G01X-7257772Y3788721D03*
G01X-7257772Y3883922D03*
G01X-7256780Y7155610D03*
G01X-7248317Y3990120D03*
G01X-7244892Y1909501D03*
G01X-7244892Y1971533D03*
G01X-7244892Y2033566D03*
G01X-7244892Y2095598D03*
G01X-7244892Y2157631D03*
G01X-7239739Y218647D03*
G01X-7238117Y297673D03*
G01X-7229538Y2569778D03*
G01X-7227917Y2648803D03*
G01X-7219417Y3281211D03*
G01X-7205779Y7079109D03*
G01X-7184636Y3440073D03*
G01X-7171816Y4336925D03*
G01X-7166716Y4097222D03*
G01X-7161579Y7155610D03*
G01X-7153116Y3990120D03*
G01X-7144537Y218647D03*
G01X-7142916Y297673D03*
G01X-7134337Y2569778D03*
G01X-7132716Y2648803D03*
G01X-7124216Y3281211D03*
G01X-7119699Y4188636D03*
G01X-7117337Y1616065D03*
G01X-7115716Y1695091D03*
G01X-7110578Y7079109D03*
G01X-7089435Y3440073D03*
G01X-7074978Y2326112D03*
G01X-7073357Y2405137D03*
G01X-7066378Y7155610D03*
G01X-7061315Y4418526D03*
G01X-7057915Y3990120D03*
G01X-7050418Y8455909D03*
G01X-7048298Y4263437D03*
G01X-7039136Y2569778D03*
G01X-7038543Y3343091D03*
G01X-7037515Y2648803D03*
G01X-7027236Y1427363D03*
G01X-7022136Y1616065D03*
G01X-7020515Y1695091D03*
G01X-7015377Y7079109D03*
G01X-6994234Y3440073D03*
G01X-6989835Y218647D03*
G01X-6988214Y297673D03*
G01X-6979777Y2326112D03*
G01X-6978156Y2405137D03*
G01X-6946473Y3605981D03*
G01X-6946473Y3668013D03*
G01X-6946473Y3730046D03*
G01X-6946473Y3792079D03*
G01X-6946473Y3854111D03*
G01X-6943342Y3343091D03*
G01X-6938913Y4393026D03*
G01X-6933735Y1626265D03*
G01X-6932113Y1705291D03*
G01X-6925313Y4015621D03*
G01X-6913334Y1967970D03*
G01X-6911713Y2046995D03*
G01X-6898034Y2136272D03*
G01X-6896413Y2215297D03*
G01X-6894634Y218647D03*
G01X-6893013Y297673D03*
G01X-6887834Y2503477D03*
G01X-6886213Y2582502D03*
G01X-6884576Y2326112D03*
G01X-6882954Y2405137D03*
G01X-6882779Y3605981D03*
G01X-6882779Y3668013D03*
G01X-6882779Y3730046D03*
G01X-6882779Y3792079D03*
G01X-6882779Y3854111D03*
G01X-6874313Y3424013D03*
G01X-6872613Y1878693D03*
G01X-6848141Y3343091D03*
G01X-6836215Y1329501D03*
G01X-6828412Y4398126D03*
G01X-6819084Y3605981D03*
G01X-6819084Y3668013D03*
G01X-6819084Y3730046D03*
G01X-6819084Y3792079D03*
G01X-6819084Y3854111D03*
G01X-6818133Y1967970D03*
G01X-6816512Y2046995D03*
G01X-6811412Y4010521D03*
G01X-6811333Y2314774D03*
G01X-6810715Y8782314D03*
G01X-6810423Y700675D03*
G01X-6809712Y2393800D03*
G01X-6808801Y779700D03*
G01X-6802833Y2136272D03*
G01X-6801212Y2215297D03*
G01X-6792633Y2503477D03*
G01X-6791012Y2582502D03*
G01X-6755390Y3605981D03*
G01X-6755390Y3668013D03*
G01X-6755390Y3730046D03*
G01X-6755390Y3792079D03*
G01X-6755390Y3854111D03*
G01X-6719532Y1983270D03*
G01X-6717911Y2062295D03*
G01X-6716132Y2314774D03*
G01X-6715221Y700675D03*
G01X-6714511Y2393800D03*
G01X-6713814Y6936090D03*
G01X-6713600Y779700D03*
G01X-6707632Y2136272D03*
G01X-6706010Y2215297D03*
G01X-6702610Y4387925D03*
G01X-6701064Y8305458D03*
G01X-6624331Y1983270D03*
G01X-6622709Y2062295D03*
G01X-6602230Y2151572D03*
G01X-6601612Y8047904D03*
G01X-6600609Y2230598D03*
G01X-6595509Y4301224D03*
G01X-6581212Y6096749D03*
G01X-6561430Y723554D03*
G01X-6560812Y1106714D03*
G01X-6559809Y802579D03*
G01X-6550611Y1188315D03*
G01X-6541030Y514451D03*
G01X-6539408Y593476D03*
G01X-6536008Y4362425D03*
G01X-6507029Y2151572D03*
G01X-6505408Y2230598D03*
G01X-6502962Y4886935D03*
G01X-6502962Y4982136D03*
G01X-6502962Y5077337D03*
G01X-6502962Y5172539D03*
G01X-6496908Y4270624D03*
G01X-6477182Y2448680D03*
G01X-6475561Y2527706D03*
G01X-6474110Y1122015D03*
G01X-6474110Y1198516D03*
G01X-6466229Y723554D03*
G01X-6464607Y802579D03*
G01X-6445828Y514451D03*
G01X-6444207Y593476D03*
G01X-6441762Y4926035D03*
G01X-6441762Y5021237D03*
G01X-6441762Y5116438D03*
G01X-6440807Y4362425D03*
G01X-6402710Y1198516D03*
G01X-6381981Y2448680D03*
G01X-6380360Y2527706D03*
G01X-6345606Y4362425D03*
G01X-6331309Y8716982D03*
G01X-6321464Y2805547D03*
G01X-6311264Y2662745D03*
G01X-6311264Y3004449D03*
G01X-6255163Y2927948D03*
G01X-6248705Y4367525D03*
G01X-6226263Y2805547D03*
G01X-6216062Y2662745D03*
G01X-6203807Y989413D03*
G01X-6192604Y10551408D03*
G01X-6159962Y2927948D03*
G01X-6137506Y7889802D03*
G01X-6131061Y2805547D03*
G01X-6114002Y10661481D03*
G01X-6112006Y7660299D03*
G01X-6077382Y10551408D03*
G01X-6064761Y2927948D03*
G01X-6061005Y1795223D03*
G01X-6035860Y2805547D03*
G01X-6030405Y8297807D03*
G01X-6020205Y8093805D03*
G01X-6004904Y5487671D03*
G01X-5993300Y10661481D03*
G01X-5969559Y2927948D03*
G01X-5962159Y10551408D03*
G01X-5896800Y7039960D03*
G01X-5878021Y274748D03*
G01X-5876400Y353773D03*
G01X-5876400Y4423626D03*
G01X-5846937Y10551408D03*
G01X-5845799Y6963459D03*
G01X-5836602Y8593611D03*
G01X-5825399Y4347125D03*
G01X-5811102Y2386831D03*
G01X-5808057Y2984049D03*
G01X-5801599Y7039960D03*
G01X-5782820Y274748D03*
G01X-5781198Y4423626D03*
G01X-5781198Y353773D03*
G01X-5750598Y6963459D03*
G01X-5731715Y10551408D03*
G01X-5730198Y4347125D03*
G01X-5714497Y10671681D03*
G01X-5707300Y10250347D03*
G01X-5706398Y7039960D03*
G01X-5685997Y4423626D03*
G01X-5655397Y6963459D03*
G01X-5651655Y3004449D03*
G01X-5646897Y10429007D03*
G01X-5637700Y9006717D03*
G01X-5634997Y4347125D03*
G01X-5616492Y10551408D03*
G01X-5611196Y7039960D03*
G01X-5596445Y3603497D03*
G01X-5592078Y10250347D03*
G01X-5590796Y4423626D03*
G01X-5582296Y3714717D03*
G01X-5572096Y3475014D03*
G01X-5561199Y2407231D03*
G01X-5560196Y6963459D03*
G01X-5539795Y4347125D03*
G01X-5531674Y10429007D03*
G01X-5510816Y269648D03*
G01X-5509195Y348673D03*
G01X-5501270Y10551408D03*
G01X-5501244Y3603497D03*
G01X-5495595Y3398513D03*
G01X-5490573Y5981348D03*
G01X-5487095Y3714717D03*
G01X-5476895Y3475014D03*
G01X-5476856Y10250347D03*
G01X-5423497Y4554359D03*
G01X-5416452Y10429007D03*
G01X-5415615Y269648D03*
G01X-5413994Y348673D03*
G01X-5406042Y3603497D03*
G01X-5400394Y3398513D03*
G01X-5391893Y3714717D03*
G01X-5386048Y10551408D03*
G01X-5381693Y3475014D03*
G01X-5361634Y10250347D03*
G01X-5315392Y3546415D03*
G01X-5311914Y636853D03*
G01X-5310292Y715878D03*
G01X-5305192Y3398513D03*
G01X-5301230Y10429007D03*
G01X-5246411Y10250347D03*
G01X-5235491Y3531114D03*
G01X-5220270Y6170373D03*
G01X-5216712Y636853D03*
G01X-5215091Y715878D03*
G01X-5199094Y2228729D03*
G01X-5194770Y5833768D03*
G01X-5186008Y10429007D03*
G01X-5178694Y4569659D03*
G01X-5162390Y10551408D03*
G01X-5153193Y8665012D03*
G01X-5151244Y3815996D03*
G01X-5149544Y3586493D03*
G01X-5131189Y10250347D03*
G01X-5127693Y2218529D03*
G01X-5092768Y6180573D03*
G01X-5081792Y2279730D03*
G01X-5079089Y3704517D03*
G01X-5070785Y10429007D03*
G01X-5067269Y5843969D03*
G01X-5056043Y3815996D03*
G01X-5047168Y10551408D03*
G01X-5046092Y2213429D03*
G01X-5019589Y9895997D03*
G01X-5015967Y10250347D03*
G01X-5005291Y2269529D03*
G01X-4988988Y9697094D03*
G01X-4975388Y9972498D03*
G01X-4955563Y10429007D03*
G01X-4944709Y626653D03*
G01X-4943088Y705678D03*
G01X-4937988Y9620593D03*
G01X-4931946Y10551408D03*
G01X-4924387Y9895997D03*
G01X-4918590Y2264429D03*
G01X-4900745Y10250347D03*
G01X-4893787Y9697094D03*
G01X-4880187Y9972498D03*
G01X-4849508Y626653D03*
G01X-4847886Y705678D03*
G01X-4842786Y9620593D03*
G01X-4840341Y10429007D03*
G01X-4816724Y10551408D03*
G01X-4798586Y9697094D03*
G01X-4798585Y7025613D03*
G01X-4796886Y9931697D03*
G01X-4786764Y4013045D03*
G01X-4781507Y386949D03*
G01X-4779886Y465975D03*
G01X-4767985Y9809296D03*
G01X-4747585Y6949112D03*
G01X-4725485Y3469914D03*
G01X-4720385Y3352612D03*
G01X-4715363Y3941644D03*
G01X-4710106Y182947D03*
G01X-4708485Y261972D03*
G01X-4708485Y8462878D03*
G01X-4703384Y7025613D03*
G01X-4701685Y9931697D03*
G01X-4701501Y10551408D03*
G01X-4686306Y386949D03*
G01X-4684684Y465975D03*
G01X-4672784Y9809296D03*
G01X-4657484Y8386377D03*
G01X-4652383Y6949112D03*
G01X-4645584Y3413813D03*
G01X-4645584Y3531114D03*
G01X-4631984Y9727695D03*
G01X-4614905Y182947D03*
G01X-4613283Y261972D03*
G01X-4613283Y8462878D03*
G01X-4611583Y8156874D03*
G01X-4611583Y9380890D03*
G01X-4608183Y7025613D03*
G01X-4606483Y9931697D03*
G01X-4580983Y9651194D03*
G01X-4562283Y8386377D03*
G01X-4560583Y3449513D03*
G01X-4560583Y8080373D03*
G01X-4560583Y9304389D03*
G01X-4559837Y4400729D03*
G01X-4559837Y4495930D03*
G01X-4557182Y6949112D03*
G01X-4539437Y4586031D03*
G01X-4530985Y3304843D03*
G01X-4530985Y6028278D03*
G01X-4518082Y8462878D03*
G01X-4516382Y8156874D03*
G01X-4516382Y9380890D03*
G01X-4512982Y7025613D03*
G01X-4490961Y2891030D03*
G01X-4467081Y8386377D03*
G01X-4465381Y8080373D03*
G01X-4465381Y9304389D03*
G01X-4464865Y3168479D03*
G01X-4461981Y6949112D03*
G01X-4443439Y4647977D03*
G01X-4422881Y8462878D03*
G01X-4421181Y8156874D03*
G01X-4421181Y9380890D03*
G01X-4371880Y8386377D03*
G01X-4370180Y8080373D03*
G01X-4370180Y9304389D03*
G01X-4357583Y2927438D03*
G01X-4327837Y4663277D03*
G01X-4325980Y8156874D03*
G01X-4325980Y9380890D03*
G01X-4274979Y8080373D03*
G01X-4274979Y9304389D03*
G01X-4220500Y208447D03*
G01X-4218878Y287472D03*
G01X-4217336Y4668378D03*
G01X-4196935Y4581676D03*
G01X-4125298Y208447D03*
G01X-4123677Y287472D03*
G01X-4057297Y779655D03*
G01X-4055676Y858680D03*
G01X-3962096Y779655D03*
G01X-3960475Y858680D03*
G01X-3894095Y290048D03*
G01X-3892474Y369073D03*
G01X-3807552Y4135446D03*
G01X-3798894Y290048D03*
G01X-3797273Y369073D03*
G01X-3791476Y4773662D03*
G01X-3776794Y963257D03*
G01X-3775173Y1042282D03*
G01X-3771851Y3972244D03*
G01X-3741093Y647053D03*
G01X-3739472Y726078D03*
G01X-3705550Y2875730D03*
G01X-3700293Y1626265D03*
G01X-3698672Y1705291D03*
G01X-3690250Y3885543D03*
G01X-3681593Y963257D03*
G01X-3679971Y1042282D03*
G01X-3679893Y2171973D03*
G01X-3678271Y2250998D03*
G01X-3649371Y4673529D03*
G01X-3645892Y647053D03*
G01X-3644271Y726078D03*
G01X-3633374Y9001616D03*
G01X-3605092Y1626265D03*
G01X-3603470Y1705291D03*
G01X-3584691Y2171973D03*
G01X-3583070Y2250998D03*
G01X-3554170Y4673529D03*
G01X-3498069Y6341251D03*
G01X-3492969Y6999159D03*
G01X-3491348Y3003232D03*
G01X-3470947Y4120146D03*
G01X-3463297Y5050908D03*
G01X-3458968Y4673529D03*
G01X-3426668Y6927758D03*
G01X-3411368Y6300450D03*
G01X-3404646Y2610527D03*
G01X-3396068Y7004259D03*
G01X-3394446Y3732541D03*
G01X-3384246Y3829442D03*
G01X-3353488Y2085271D03*
G01X-3351867Y2164297D03*
G01X-3348388Y1804768D03*
G01X-3348388Y2330075D03*
G01X-3346767Y1883793D03*
G01X-3346767Y2409100D03*
G01X-3341667Y10755411D03*
G01X-3312845Y3293936D03*
G01X-3288966Y6988959D03*
G01X-3277145Y4109946D03*
G01X-3251644Y3900843D03*
G01X-3226445Y10755411D03*
G01X-3215944Y3054232D03*
G01X-3207365Y6943059D03*
G01X-3177341Y5736545D03*
G01X-3154743Y5073859D03*
G01X-3151978Y6431019D03*
G01X-3151978Y6526220D03*
G01X-3151978Y6621421D03*
G01X-3151978Y6716622D03*
G01X-3139286Y1753767D03*
G01X-3137664Y1832792D03*
G01X-3136919Y7098663D03*
G01X-3136919Y7193865D03*
G01X-3136919Y7289066D03*
G01X-3134186Y2059771D03*
G01X-3132564Y2138796D03*
G01X-3129085Y2335175D03*
G01X-3127464Y2414200D03*
G01X-3114161Y7390865D03*
G01X-3112164Y6943059D03*
G01X-3108843Y2738028D03*
G01X-3108685Y769454D03*
G01X-3107064Y848480D03*
G01X-3103585Y1075458D03*
G01X-3101964Y1154484D03*
G01X-3052584Y499151D03*
G01X-3050963Y578176D03*
G01X-3047642Y4120146D03*
G01X-3033963Y7458165D03*
G01X-3029577Y6364718D03*
G01X-3029577Y6459919D03*
G01X-3029577Y6555120D03*
G01X-3029577Y6650321D03*
G01X-3022142Y7343388D03*
G01X-3014517Y6937161D03*
G01X-3014517Y7032363D03*
G01X-3014517Y7127564D03*
G01X-3014517Y7222765D03*
G01X-3013484Y769454D03*
G01X-3011863Y848480D03*
G01X-3008384Y1075458D03*
G01X-3006763Y1154484D03*
G01X-3001741Y3028732D03*
G01X-2981341Y3395937D03*
G01X-2971141Y4558752D03*
G01X-2957383Y499151D03*
G01X-2955762Y578176D03*
G01X-2874240Y3446937D03*
G01X-2869140Y6445776D03*
G01X-2869140Y7152548D03*
G01X-2864039Y6761980D03*
G01X-2864039Y7343388D03*
G01X-2860561Y6647255D03*
G01X-2823239Y2998132D03*
G01X-2818139Y2534026D03*
G01X-2756859Y6948159D03*
G01X-2699133Y4455250D03*
G01X-2660059Y6949729D03*
G01X-2631130Y9644225D03*
G01X-2608879Y534851D03*
G01X-2607257Y613877D03*
G01X-2593579Y764354D03*
G01X-2591957Y843380D03*
G01X-2591212Y4808734D03*
G01X-2591212Y4903935D03*
G01X-2591212Y4999136D03*
G01X-2588636Y4676053D03*
G01X-2588636Y7282187D03*
G01X-2583536Y3875343D03*
G01X-2557979Y6289296D03*
G01X-2552935Y2753329D03*
G01X-2547678Y1080558D03*
G01X-2546057Y1159584D03*
G01X-2542735Y7134285D03*
G01X-2540123Y4127859D03*
G01X-2532535Y6726280D03*
G01X-2527356Y6402452D03*
G01X-2513677Y534851D03*
G01X-2512056Y613877D03*
G01X-2506034Y6824803D03*
G01X-2503578Y6931904D03*
G01X-2501935Y8858108D03*
G01X-2498557Y6240819D03*
G01X-2498377Y764354D03*
G01X-2496756Y843380D03*
G01X-2496677Y1779267D03*
G01X-2495056Y1858293D03*
G01X-2480759Y5528472D03*
G01X-2476434Y2987932D03*
G01X-2476434Y3115433D03*
G01X-2452477Y1080558D03*
G01X-2450855Y1159584D03*
G01X-2437255Y6605577D03*
G01X-2425434Y3232735D03*
G01X-2425434Y4135446D03*
G01X-2420176Y2151572D03*
G01X-2418555Y2230598D03*
G01X-2416855Y7131761D03*
G01X-2403356Y6240819D03*
G01X-2401476Y1779267D03*
G01X-2399855Y1858293D03*
G01X-2376983Y5295712D03*
G01X-2376054Y7351064D03*
G01X-2374433Y3416337D03*
G01X-2374433Y5771953D03*
G01X-2364233Y3283735D03*
G01X-2324975Y2151572D03*
G01X-2323432Y3681541D03*
G01X-2323354Y2230598D03*
G01X-2313232Y3528539D03*
G01X-2270653Y7351064D03*
G01X-2262153Y7100284D03*
G01X-2260453Y6870781D03*
G01X-2258775Y6671801D03*
G01X-2257053Y6977882D03*
G01X-2254607Y6753559D03*
G01X-2207825Y9644225D03*
G01X-2188281Y4127796D03*
G01X-2165330Y7129892D03*
G01X-2144930Y5864369D03*
G01X-2134730Y2748228D03*
G01X-2113554Y7614399D03*
G01X-2109230Y4492451D03*
G01X-2097251Y6897158D03*
G01X-2088829Y4135446D03*
G01X-2088672Y1794568D03*
G01X-2087051Y1873593D03*
G01X-2083729Y8883608D03*
G01X-2081973Y6982905D03*
G01X-2078629Y3110333D03*
G01X-2035305Y5038237D03*
G01X-2035305Y5133438D03*
G01X-2035305Y5228639D03*
G01X-2012171Y774554D03*
G01X-2010550Y853580D03*
G01X-2002128Y7022084D03*
G01X-2001353Y7162864D03*
G01X-1997028Y3880443D03*
G01X-1993471Y1794568D03*
G01X-1991849Y1873593D03*
G01X-1981571Y1080558D03*
G01X-1979949Y1159584D03*
G01X-1925627Y3441837D03*
G01X-1916970Y774554D03*
G01X-1915348Y853580D03*
G01X-1900071Y6982905D03*
G01X-1886369Y1080558D03*
G01X-1884748Y1159584D03*
G01X-1831106Y3100212D03*
G01X-1804664Y3360315D03*
G01X-1780049Y9644225D03*
G01X-1771984Y3253214D03*
G01X-1741249Y7318595D03*
G01X-1729714Y5165660D03*
G01X-1726725Y3497938D03*
G01X-1715884Y3100212D03*
G01X-1706325Y5798068D03*
G01X-1699446Y6591154D03*
G01X-1696046Y6917558D03*
G01X-1684145Y6351451D03*
G01X-1679045Y6825757D03*
G01X-1645124Y9016210D03*
G01X-1643345Y6086247D03*
G01X-1633145Y6713556D03*
G01X-1617845Y6473852D03*
G01X-1612745Y6948159D03*
G01X-1604244Y6591154D03*
G01X-1599223Y5293161D03*
G01X-1589023Y4064045D03*
G01X-1589023Y5150360D03*
G01X-1588944Y6351451D03*
G01X-1583844Y6825757D03*
G01X-1577044Y6208649D03*
G01X-1571548Y4553859D03*
G01X-1560044Y9238088D03*
G01X-1559549Y4667362D03*
G01X-1548144Y6086247D03*
G01X-1538022Y4839255D03*
G01X-1537944Y6713556D03*
G01X-1522643Y6473852D03*
G01X-1517543Y6948159D03*
G01X-1509043Y6591154D03*
G01X-1493743Y6351451D03*
G01X-1488643Y6825757D03*
G01X-1481843Y6208649D03*
G01X-1476822Y5685866D03*
G01X-1466621Y3049132D03*
G01X-1452942Y6086247D03*
G01X-1442742Y6713556D03*
G01X-1440964Y1799668D03*
G01X-1439342Y1878693D03*
G01X-1427442Y6473852D03*
G01X-1425663Y182947D03*
G01X-1424042Y261972D03*
G01X-1422342Y6948159D03*
G01X-1415542Y5938346D03*
G01X-1413842Y6591154D03*
G01X-1412142Y9130987D03*
G01X-1401942Y9217688D03*
G01X-1398542Y6351451D03*
G01X-1395220Y5145259D03*
G01X-1393442Y6825757D03*
G01X-1386642Y6208649D03*
G01X-1357741Y6086247D03*
G01X-1354420Y4818855D03*
G01X-1347541Y6713556D03*
G01X-1345762Y1799668D03*
G01X-1344220Y8541903D03*
G01X-1344141Y1878693D03*
G01X-1339120Y3870243D03*
G01X-1332241Y6473852D03*
G01X-1331844Y4681361D03*
G01X-1330462Y182947D03*
G01X-1328841Y261972D03*
G01X-1327141Y6948159D03*
G01X-1324079Y4533310D03*
G01X-1320341Y5938346D03*
G01X-1291440Y6208649D03*
G01X-1272819Y9654425D03*
G01X-1252419Y5211560D03*
G01X-1250928Y6374261D03*
G01X-1225140Y5938346D03*
G01X-1191139Y6784956D03*
G01X-1189439Y6565654D03*
G01X-1175839Y6096448D03*
G01X-1166214Y1702794D03*
G01X-1163542Y6211381D03*
G01X-1150417Y4466951D03*
G01X-1144542Y4651260D03*
G01X-1142446Y9141034D03*
G01X-1129938Y6892058D03*
G01X-1123138Y6688055D03*
G01X-1111845Y9217535D03*
G01X-1095938Y6784956D03*
G01X-1094238Y6565654D03*
G01X-1092538Y6346351D03*
G01X-1090609Y9289055D03*
G01X-1086345Y9441938D03*
G01X-1084116Y5043258D03*
G01X-1080638Y6096448D03*
G01X-1062940Y4753262D03*
G01X-1050992Y1702794D03*
G01X-1036041Y6201180D03*
G01X-1034737Y6892058D03*
G01X-1028016Y3783542D03*
G01X-1027937Y6688055D03*
G01X-1026237Y6468752D03*
G01X-1012716Y7435189D03*
G01X-1000737Y6784956D03*
G01X-999037Y6565654D03*
G01X-997337Y6346351D03*
G01X-987084Y9441275D03*
G01X-985436Y6096448D03*
G01X-971915Y7588191D03*
G01X-970077Y1911655D03*
G01X-965036Y3033911D03*
G01X-956615Y5925570D03*
G01X-950874Y3110412D03*
G01X-939536Y6892058D03*
G01X-935573Y1794595D03*
G01X-932736Y6688055D03*
G01X-931036Y6468752D03*
G01X-903835Y6565654D03*
G01X-902135Y6346351D03*
G01X-885710Y3783621D03*
G01X-859714Y7634092D03*
G01X-850952Y3258314D03*
G01X-849814Y3033911D03*
G01X-848872Y1957797D03*
G01X-837535Y6688055D03*
G01X-835834Y6468752D03*
G01X-823934Y6820657D03*
G01X-811638Y5701374D03*
G01X-806934Y6346351D03*
G01X-781630Y3788721D03*
G01X-775937Y6930490D03*
G01X-767912Y7669792D03*
G01X-765737Y5798275D03*
G01X-764205Y9748061D03*
G01X-763113Y2916609D03*
G01X-740829Y1845595D03*
G01X-740633Y6468752D03*
G01X-734592Y3033911D03*
G01X-728733Y6820657D03*
G01X-723561Y8702547D03*
G01X-722012Y4931057D03*
G01X-704933Y3855022D03*
G01X-699833Y2835008D03*
G01X-686311Y8873408D03*
G01X-674332Y5719043D03*
G01X-673936Y6588785D03*
G01X-668836Y6695887D03*
G01X-663736Y6930490D03*
G01X-662249Y1886396D03*
G01X-658091Y3941723D03*
G01X-648983Y9748061D03*
G01X-643336Y5012865D03*
G01X-643336Y6481684D03*
G01X-633532Y6820657D03*
G01X-608338Y8702547D03*
G01X-608032Y5841444D03*
G01X-594510Y4793355D03*
G01X-579510Y3834621D03*
G01X-579131Y5719043D03*
G01X-542868Y3941723D03*
G01X-533761Y9748061D03*
G01X-516230Y5979146D03*
G01X-512830Y5841444D03*
G01X-500930Y1901696D03*
G01X-497609Y4767855D03*
G01X-493116Y8702547D03*
G01X-483930Y5719043D03*
G01X-453146Y2049598D03*
G01X-449930Y6101548D03*
G01X-433798Y8824949D03*
G01X-427646Y3941723D03*
G01X-421029Y5979146D03*
G01X-418538Y9748061D03*
G01X-417629Y5841444D03*
G01X-388729Y5719043D03*
G01X-385708Y1901696D03*
G01X-377894Y8702547D03*
G01X-359907Y5140159D03*
G01X-354728Y6101548D03*
G01X-328776Y8564846D03*
G01X-325828Y5979146D03*
G01X-322428Y5841444D03*
G01X-311831Y6236881D03*
G01X-303316Y9748061D03*
G01X-302224Y2916609D03*
G01X-296531Y5043465D03*
G01X-271031Y5737074D03*
G01X-270486Y1901696D03*
G01X-269695Y8809649D03*
G01X-262672Y8702547D03*
G01X-259527Y6101548D03*
G01X-244227Y7662168D03*
G01X-230627Y5979146D03*
G01X-227227Y7361264D03*
G01X-225130Y5237268D03*
G01X-209830Y5655473D03*
G01X-204730Y5099566D03*
G01X-204730Y6354182D03*
G01X-199043Y5868147D03*
G01X-194530Y6583685D03*
G01X-189430Y6711187D03*
G01X-189430Y6838689D03*
G01X-189430Y6966190D03*
G01X-187001Y2916609D03*
G01X-184330Y6466384D03*
G01X-179973Y9656260D03*
G01X-171283Y8569928D03*
G01X-169029Y6231781D03*
G01X-164326Y6101548D03*
G01X-155263Y1901696D03*
G01X-153729Y5757475D03*
G01X-149026Y7662168D03*
G01X-147449Y8702547D03*
G01X-132025Y7361264D03*
G01X-128134Y5020862D03*
G01X-112929Y5257668D03*
G01X-107829Y5145467D03*
G01X-84582Y8783385D03*
G01X-84582Y8898608D03*
G01X-84582Y9013830D03*
G01X-84582Y9129052D03*
G01X-84582Y9244274D03*
G01X-84582Y9359497D03*
G01X-84582Y9474719D03*
G01X-84582Y9589941D03*
G01X-81979Y3941723D03*
G01X-79482Y7763372D03*
G01X-79482Y7878594D03*
G01X-79482Y7993817D03*
G01X-79482Y8109039D03*
G01X-79482Y8224261D03*
G01X-79482Y8339483D03*
G01X-79482Y8454706D03*
G01X-72525Y7514266D03*
G01X-71779Y2916609D03*
G01X-64025Y7657068D03*
G04 Drill Drawing End*

M02*

