G04 Layer: BottomLayer*
G04 EasyEDA Pro v2.2.32.3, 2026-01-09 15:51:15*
G04 Gerber Generator version 0.3*
G04 Scale: 100 percent, Rotated: No, Reflected: No*
G04 Dimensions in millimeters*
G04 Leading zeros omitted, absolute positions, 3 integers and 5 decimals*
%FSLAX35Y35*%
%MOMM*%
%ADD10R,1.2X1.2*%
%ADD11C,1.2*%
%ADD12O,1.5X2.0*%
%ADD13R,1.5X2.0*%
%ADD14R,1.5X2.0*%
%ADD15O,2.0X1.5*%
%ADD16R,2.0X1.5*%
%ADD17C,2.79999*%
%ADD18R,1.5X1.5*%
%ADD19C,1.5017*%
%ADD20C,1.5*%
%ADD21R,2.0X1.5*%
%ADD22R,2.0X1.6*%
%ADD23O,2.0X1.6*%
%ADD24C,1.6*%
%ADD25R,1.6X1.6*%
%ADD26C,1.524*%
%ADD27R,1.2X1.2*%
%ADD28R,1.7X1.7*%
%ADD29C,1.7*%
%ADD30R,2.0X1.6*%
%ADD31C,3.49999*%
%ADD32O,2.0X3.19999*%
%ADD33C,0.6*%
%ADD34C,0.5*%
%ADD35C,0.4*%
%ADD36C,1.0*%
%ADD37C,0.8*%
%ADD38C,0.3*%
G75*


G04 Copper Start*
G36*
G01X-13374346Y745300D02*
G01X-13374346Y10159544D01*
G03X-13263261Y10111204I253684J431159D01*
G03X-12429378Y9964004I463260J188796D01*
G03X-12657402Y10779499I-370622J335996D01*
G03X-12708593Y10874346I-463260J-188796D01*
G01X-696887Y10874346D01*
G03X-771052Y10770101I367190J-339743D01*
G03X-977801Y9972097I171052J-470101D01*
G03X-158645Y10064502I377801J327903D01*
G03X-25654Y10137347I-171052J470101D01*
G01X-25654Y750135D01*
G03X-154548Y827655I-319343J-385064D01*
G03X-967918Y938955I-445452J-227655D01*
G03X-790449Y137417I367918J-338955D01*
G03X-712488Y25654I445452J227655D01*
G01X-12689428Y25654D01*
G03X-12621680Y132607I-385334J319017D01*
G03X-12433546Y940537I-178320J467393D01*
G03X-13253082Y812064I-366454J-340537D01*
G03X-13374346Y745300I178320J-467393D01*
G37*
%LPC*%
G36*
G01X-13119897Y3227396D02*
G01X-13159897Y3227396D01*
G03X-13159897Y3016088I0J-105654D01*
G01X-13119897Y3016088D01*
G03X-13119897Y3227396I0J105654D01*
G37*
G36*
G01X-13119897Y2401185D02*
G01X-13159897Y2401185D01*
G03X-13159897Y2189877I0J-105654D01*
G01X-13119897Y2189877D01*
G03X-13119897Y2401185I0J105654D01*
G37*
G36*
G01X-11883731Y9042557D02*
G01X-11550157Y9042557D01*
G03X-11496662Y9064715I0J75654D01*
G01X-10661051Y9900327D01*
G03X-10644607Y9924976I-53495J53495D01*
G03X-10690659Y10095140I-69939J72386D01*
G03X-10809983Y9965377I-23887J-97778D01*
G01X-10894515Y9880844D01*
G03X-10892892Y9896431I-74031J15587D01*
G01X-10892892Y9930937D01*
G01X-10892716Y9931172D01*
G03X-10968546Y10098016I-75830J66190D01*
G03X-11044376Y9931172I0J-100654D01*
G01X-11044200Y9930937D01*
G01X-11044200Y9927768D01*
G01X-11635301Y9336667D01*
G01X-11672880Y9336667D01*
G03X-11662670Y9345219I-43285J62048D01*
G01X-11169051Y9838839D01*
G03X-11146892Y9892334I-53495J53495D01*
G01X-11146892Y9930937D01*
G01X-11146715Y9931174D01*
G03X-11222546Y10098016I-75831J66188D01*
G03X-11298377Y9931174I0J-100654D01*
G01X-11298200Y9930937D01*
G01X-11298200Y9923671D01*
G01X-11747502Y9474369D01*
G01X-11795282Y9474369D01*
G01X-11795282Y9474369D01*
G03X-11785072Y9482921I-43285J62048D01*
G01X-11423051Y9844942D01*
G03X-11400892Y9898437I-53495J53495D01*
G01X-11400892Y9930972D01*
G03X-11476546Y10098016I-75654J66390D01*
G03X-11552200Y9930972I0J-100654D01*
G01X-11552200Y9929774D01*
G01X-11869904Y9612070D01*
G01X-12159871Y9612070D01*
G03X-12213367Y9589912I0J-75654D01*
G01X-12844129Y8959150D01*
G01X-12870272Y8959150D01*
G02X-13011952Y8982763I0J436847D01*
G03X-13020272Y8984150I-8320J-24267D01*
G01X-13220272Y8984150D01*
G03X-13245926Y8958496I0J-25654D01*
G01X-13245926Y8808496D01*
G03X-13220272Y8782842I25654J0D01*
G01X-13020272Y8782842D01*
G03X-13011952Y8784229I0J25654D01*
G02X-12870272Y8807842I141680J-413234D01*
G01X-12812792Y8807842D01*
G03X-12759296Y8830000I0J75654D01*
G01X-12128534Y9460762D01*
G01X-12116455Y9460762D01*
G03X-12126666Y9452210I43285J-62048D01*
G01X-12873726Y8705150D01*
G01X-12945015Y8705150D01*
G01X-12958298Y8705416D01*
G01X-12971255Y8706158D01*
G01X-12984052Y8707318D01*
G01X-12996428Y8708812D01*
G01X-13020422Y8712650D01*
G01X-13041862Y8717039D01*
G01X-13048563Y8718655D01*
G03X-13095272Y8730150I-46709J-89160D01*
G01X-13145272Y8730150D01*
G03X-13145272Y8528842I0J-100654D01*
G01X-13095272Y8528842D01*
G03X-13048563Y8540336I0J100654D01*
G01X-13041862Y8541953D01*
G01X-13020422Y8546341D01*
G01X-12996428Y8550180D01*
G01X-12984052Y8551674D01*
G01X-12971255Y8552834D01*
G01X-12958298Y8553576D01*
G01X-12945015Y8553842D01*
G01X-12842389Y8553842D01*
G03X-12788893Y8576000I0J75654D01*
G01X-12041833Y9323060D01*
G01X-12029754Y9323060D01*
G03X-12039965Y9314508I43285J-62048D01*
G01X-12903323Y8451150D01*
G01X-12945015Y8451150D01*
G01X-12958298Y8451416D01*
G01X-12971255Y8452158D01*
G01X-12984052Y8453318D01*
G01X-12996428Y8454812D01*
G01X-13020422Y8458650D01*
G01X-13041862Y8463039D01*
G01X-13048563Y8464655D01*
G03X-13095272Y8476150I-46709J-89160D01*
G01X-13145272Y8476150D01*
G03X-13145272Y8274842I0J-100654D01*
G01X-13095272Y8274842D01*
G03X-13048563Y8286336I0J100654D01*
G01X-13041862Y8287953D01*
G01X-13020422Y8292341D01*
G01X-12996428Y8296180D01*
G01X-12984052Y8297674D01*
G01X-12971255Y8298834D01*
G01X-12958298Y8299576D01*
G01X-12945015Y8299842D01*
G01X-12871986Y8299842D01*
G03X-12818490Y8322000I0J75654D01*
G01X-11955132Y9185359D01*
G01X-11949921Y9185359D01*
G03X-11968564Y9171706I34853J-67148D01*
G01X-12943120Y8197150D01*
G01X-12945015Y8197150D01*
G01X-12958298Y8197416D01*
G01X-12971255Y8198158D01*
G01X-12984052Y8199318D01*
G01X-12996428Y8200812D01*
G01X-13020422Y8204650D01*
G01X-13041862Y8209039D01*
G01X-13048563Y8210655D01*
G03X-13095272Y8222150I-46709J-89160D01*
G01X-13145272Y8222150D01*
G03X-13145272Y8020842I0J-100654D01*
G01X-13095272Y8020842D01*
G03X-13048563Y8032336I0J100654D01*
G01X-13041862Y8033953D01*
G01X-13020422Y8038341D01*
G01X-12996428Y8042180D01*
G01X-12984052Y8043674D01*
G01X-12971255Y8044834D01*
G01X-12958298Y8045576D01*
G01X-12945015Y8045842D01*
G01X-12911783Y8045842D01*
G03X-12858288Y8068000I0J75654D01*
G01X-11883731Y9042557D01*
G37*
G36*
G01X-11405373Y8376835D02*
G03X-11576969Y8312480I-71173J-71173D01*
G01X-11577011Y8312188D01*
G01X-11924450Y7964749D01*
G01X-12511776Y7964749D01*
G03X-12565271Y7942590I0J-75654D01*
G01X-12867023Y7640839D01*
G01X-12870272Y7640839D01*
G02X-13011952Y7664452I0J436847D01*
G03X-13020272Y7665839I-8320J-24267D01*
G01X-13220272Y7665839D01*
G03X-13245926Y7640185I0J-25654D01*
G01X-13245926Y7490185D01*
G03X-13220272Y7464531I25654J0D01*
G01X-13020272Y7464531D01*
G03X-13011952Y7465917I0J25654D01*
G02X-12870272Y7489531I141680J-413234D01*
G01X-12835686Y7489531D01*
G03X-12782191Y7511689I0J75654D01*
G01X-12480439Y7813441D01*
G01X-11893113Y7813441D01*
G03X-11839617Y7835599I0J75654D01*
G01X-11470020Y8205197D01*
G01X-11469727Y8205239D01*
G03X-11405373Y8376835I-6819J100423D01*
G37*
G36*
G01X-11151373Y8376835D02*
G03X-11322969Y8312480I-71173J-71173D01*
G01X-11323011Y8312188D01*
G01X-11828552Y7806647D01*
G01X-12363874Y7806647D01*
G03X-12417369Y7784488I0J-75654D01*
G01X-12815019Y7386839D01*
G01X-12945015Y7386839D01*
G01X-12958298Y7387105D01*
G01X-12971255Y7387847D01*
G01X-12984052Y7389007D01*
G01X-12996428Y7390501D01*
G01X-13020422Y7394339D01*
G01X-13041862Y7398728D01*
G01X-13048563Y7400344D01*
G03X-13095272Y7411839I-46709J-89160D01*
G01X-13145272Y7411839D01*
G03X-13145272Y7210531I0J-100654D01*
G01X-13095272Y7210531D01*
G03X-13048563Y7222025I0J100654D01*
G01X-13041862Y7223641D01*
G01X-13020422Y7228030D01*
G01X-12996428Y7231869D01*
G01X-12984052Y7233363D01*
G01X-12971255Y7234523D01*
G01X-12958298Y7235265D01*
G01X-12945015Y7235531D01*
G01X-12783682Y7235531D01*
G03X-12730187Y7257689I0J75654D01*
G01X-12332537Y7655339D01*
G01X-11797215Y7655339D01*
G03X-11743719Y7677497I0J75654D01*
G01X-11216020Y8205197D01*
G01X-11215727Y8205239D01*
G03X-11151373Y8376835I-6819J100423D01*
G37*
G36*
G01X-11044200Y8239237D02*
G01X-11044200Y8158045D01*
G01X-11589400Y7612844D01*
G01X-12175171Y7612844D01*
G03X-12228667Y7590686I0J-75654D01*
G01X-12686514Y7132839D01*
G01X-12945015Y7132839D01*
G01X-12958298Y7133105D01*
G01X-12971255Y7133847D01*
G01X-12984052Y7135007D01*
G01X-12996428Y7136501D01*
G01X-13020422Y7140339D01*
G01X-13041862Y7144728D01*
G01X-13048563Y7146344D01*
G03X-13095272Y7157839I-46709J-89160D01*
G01X-13145272Y7157839D01*
G03X-13145272Y6956531I0J-100654D01*
G01X-13095272Y6956531D01*
G03X-13048563Y6968025I0J100654D01*
G01X-13041862Y6969641D01*
G01X-13020422Y6974030D01*
G01X-12996428Y6977869D01*
G01X-12984052Y6979363D01*
G01X-12971255Y6980523D01*
G01X-12958298Y6981265D01*
G01X-12945015Y6981531D01*
G01X-12655177Y6981531D01*
G03X-12601682Y7003689I0J75654D01*
G01X-12143835Y7461536D01*
G01X-11558063Y7461536D01*
G03X-11504568Y7483695I0J75654D01*
G01X-10915051Y8073212D01*
G03X-10892892Y8126708I-53495J53495D01*
G01X-10892892Y8239237D01*
G01X-10892715Y8239474D01*
G03X-10968546Y8406316I-75831J66188D01*
G03X-11044377Y8239474I0J-100654D01*
G01X-11044200Y8239237D01*
G37*
G36*
G01X-10790200Y8239237D02*
G01X-10790200Y8126441D01*
G01X-11507799Y7408842D01*
G01X-12006869Y7408842D01*
G03X-12060365Y7386683I0J-75654D01*
G01X-12568209Y6878839D01*
G01X-12945015Y6878839D01*
G01X-12958298Y6879105D01*
G01X-12971255Y6879847D01*
G01X-12984052Y6881007D01*
G01X-12996428Y6882501D01*
G01X-13020422Y6886339D01*
G01X-13041862Y6890728D01*
G01X-13048563Y6892344D01*
G03X-13095272Y6903839I-46709J-89160D01*
G01X-13145272Y6903839D01*
G03X-13145272Y6702531I0J-100654D01*
G01X-13095272Y6702531D01*
G03X-13048563Y6714025I0J100654D01*
G01X-13041862Y6715641D01*
G01X-13020422Y6720030D01*
G01X-12996428Y6723869D01*
G01X-12984052Y6725363D01*
G01X-12971255Y6726523D01*
G01X-12958298Y6727265D01*
G01X-12945015Y6727531D01*
G01X-12536872Y6727531D01*
G03X-12483377Y6749689I0J75654D01*
G01X-11975532Y7257534D01*
G01X-11476462Y7257534D01*
G03X-11422967Y7279692I0J75654D01*
G01X-10661051Y8041609D01*
G03X-10638892Y8095104I-53495J53495D01*
G01X-10638892Y8239237D01*
G01X-10638715Y8239474D01*
G03X-10714546Y8406316I-75831J66188D01*
G03X-10790377Y8239474I0J-100654D01*
G01X-10790200Y8239237D01*
G37*
G36*
G01X-10023510Y6863649D02*
G01X-10078846Y6807991D01*
G03X-10106586Y6798141I4089J-55504D01*
G01X-11692461Y6798141D01*
G01X-11879397Y6985077D01*
G01X-11881462Y6987327D01*
G01X-11882590Y6988816D01*
G01X-11883302Y6989989D01*
G01X-11883763Y6990974D01*
G01X-11884099Y6991953D01*
G01X-11884265Y6992662D01*
G01X-11884707Y6996877D01*
G01X-11884662Y7002472D01*
G01X-11884257Y7010029D01*
G01X-11884242Y7010341D01*
G01X-11883877Y7019149D01*
G01X-11883858Y7020620D01*
G01X-11883909Y7023817D01*
G03X-12055719Y7096835I-100637J1845D01*
G03X-11982701Y6925025I71173J-71173D01*
G01X-11979505Y6924974D01*
G01X-11978033Y6924993D01*
G01X-11969225Y6925358D01*
G01X-11968913Y6925373D01*
G01X-11961356Y6925778D01*
G01X-11955761Y6925823D01*
G01X-11951546Y6925381D01*
G01X-11950837Y6925215D01*
G01X-11949858Y6924879D01*
G01X-11948874Y6924418D01*
G01X-11947701Y6923706D01*
G01X-11946211Y6922577D01*
G01X-11943961Y6920513D01*
G01X-11743654Y6720205D01*
G03X-11711372Y6706833I32282J32282D01*
G01X-11540927Y6706833D01*
G03X-11552377Y6563274I64381J-77371D01*
G01X-11552200Y6563037D01*
G01X-11552200Y6538230D01*
G01X-11594500Y6495930D01*
G01X-11869168Y6495930D01*
G03X-11922663Y6473771I0J-75654D01*
G01X-12073907Y6322528D01*
G01X-12870272Y6322528D01*
G02X-13011952Y6346141I0J436847D01*
G03X-13020272Y6347528I-8320J-24267D01*
G01X-13220272Y6347528D01*
G03X-13245926Y6321874I0J-25654D01*
G01X-13245926Y6171874D01*
G03X-13220272Y6146220I25654J0D01*
G01X-13020272Y6146220D01*
G03X-13011952Y6147606I0J25654D01*
G02X-12870272Y6171220I141680J-413234D01*
G01X-12042570Y6171220D01*
G03X-11989074Y6193378I0J75654D01*
G01X-11837831Y6344622D01*
G01X-11794711Y6344622D01*
G03X-11825762Y6325870I22445J-72248D01*
G01X-12083104Y6068528D01*
G01X-12945015Y6068528D01*
G01X-12958298Y6068794D01*
G01X-12971255Y6069536D01*
G01X-12984052Y6070696D01*
G01X-12996428Y6072190D01*
G01X-13020422Y6076028D01*
G01X-13041862Y6080417D01*
G01X-13048563Y6082033D01*
G03X-13095272Y6093528I-46709J-89160D01*
G01X-13145272Y6093528D01*
G03X-13145272Y5892220I0J-100654D01*
G01X-13095272Y5892220D01*
G03X-13048563Y5903714I0J100654D01*
G01X-13041862Y5905330D01*
G01X-13020422Y5909719D01*
G01X-12996428Y5913558D01*
G01X-12984052Y5915052D01*
G01X-12971255Y5916212D01*
G01X-12958298Y5916954D01*
G01X-12945015Y5917220D01*
G01X-12051767Y5917220D01*
G03X-11998271Y5939378I0J75654D01*
G01X-11740929Y6196720D01*
G01X-11684717Y6196720D01*
G03X-11703360Y6183068I34853J-67148D01*
G01X-12071900Y5814528D01*
G01X-12945015Y5814528D01*
G01X-12958298Y5814794D01*
G01X-12971255Y5815536D01*
G01X-12984052Y5816696D01*
G01X-12996428Y5818190D01*
G01X-13020422Y5822028D01*
G01X-13041862Y5826417D01*
G01X-13048563Y5828033D01*
G03X-13095272Y5839528I-46709J-89160D01*
G01X-13145272Y5839528D01*
G03X-13145272Y5638220I0J-100654D01*
G01X-13095272Y5638220D01*
G03X-13048563Y5649714I0J100654D01*
G01X-13041862Y5651330D01*
G01X-13020422Y5655719D01*
G01X-12996428Y5659558D01*
G01X-12984052Y5661052D01*
G01X-12971255Y5662212D01*
G01X-12958298Y5662954D01*
G01X-12945015Y5663220D01*
G01X-12040563Y5663220D01*
G03X-12014617Y5667808I0J75654D01*
G01X-12121897Y5560528D01*
G01X-12945015Y5560528D01*
G01X-12958298Y5560794D01*
G01X-12971255Y5561536D01*
G01X-12984052Y5562696D01*
G01X-12996428Y5564190D01*
G01X-13020422Y5568028D01*
G01X-13041862Y5572417D01*
G01X-13048563Y5574033D01*
G03X-13095272Y5585528I-46709J-89160D01*
G01X-13145272Y5585528D01*
G03X-13145272Y5384220I0J-100654D01*
G01X-13095272Y5384220D01*
G03X-13048563Y5395714I0J100654D01*
G01X-13041862Y5397330D01*
G01X-13020422Y5401719D01*
G01X-12996428Y5405558D01*
G01X-12984052Y5407052D01*
G01X-12971255Y5408212D01*
G01X-12958298Y5408954D01*
G01X-12945015Y5409220D01*
G01X-12090561Y5409220D01*
G03X-12037065Y5431378I0J75654D01*
G01X-11557327Y5911116D01*
G01X-11088857Y5911116D01*
G03X-11035362Y5933275I0J75654D01*
G01X-10661051Y6307586D01*
G03X-10638892Y6361082I-53495J53495D01*
G01X-10638892Y6563037D01*
G01X-10638715Y6563274D01*
G03X-10650165Y6706833I-75831J66188D01*
G01X-10524927Y6706833D01*
G03X-10460546Y6528808I64381J-77371D01*
G03X-10396165Y6706833I0J100654D01*
G01X-10106586Y6706833D01*
G03X-10021819Y6735313I31829J45654D01*
G02X-9844472Y6803735I177348J-195629D01*
G01X-6800515Y6803735D01*
G03X-6768232Y6817106I0J45654D01*
G01X-6704038Y6881301D01*
G03X-6674460Y6975443I-9776J54789D01*
G03X-6768602Y6945866I-39353J-39353D01*
G01X-6819425Y6895043D01*
G01X-9837856Y6895043D01*
G02X-9932202Y6989388I0J94346D01*
G01X-9932202Y8374308D01*
G03X-9945574Y8406591I-45654J0D01*
G01X-10088375Y8549392D01*
G03X-10120658Y8562764I-32282J-32282D01*
G01X-11765384Y8562764D01*
G01X-11879397Y8676777D01*
G01X-11881462Y8679027D01*
G01X-11882590Y8680516D01*
G01X-11883302Y8681689D01*
G01X-11883763Y8682674D01*
G01X-11884099Y8683653D01*
G01X-11884265Y8684362D01*
G01X-11884707Y8688577D01*
G01X-11884662Y8694171D01*
G01X-11884257Y8701729D01*
G01X-11884242Y8702041D01*
G01X-11883877Y8710849D01*
G01X-11883858Y8712320D01*
G01X-11883909Y8715517D01*
G03X-12055719Y8788535I-100637J1845D01*
G03X-11982701Y8616725I71173J-71173D01*
G01X-11979505Y8616674D01*
G01X-11978033Y8616693D01*
G01X-11969225Y8617058D01*
G01X-11968913Y8617072D01*
G01X-11961356Y8617478D01*
G01X-11955761Y8617523D01*
G01X-11951546Y8617081D01*
G01X-11950837Y8616915D01*
G01X-11949858Y8616579D01*
G01X-11948874Y8616118D01*
G01X-11947701Y8615406D01*
G01X-11946211Y8614277D01*
G01X-11943961Y8612213D01*
G01X-11816577Y8484828D01*
G03X-11784294Y8471456I32282J32282D01*
G01X-10139568Y8471456D01*
G01X-10023510Y8355398D01*
G01X-10023510Y6863649D01*
G37*
G36*
G01X-12623715Y5285976D02*
G03X-12601646Y5232793I55026J-8336D01*
G03X-12578662Y5197195I94158J35575D01*
G01X-12251138Y4869671D01*
G01X-12251138Y4630860D01*
G03X-12049830Y4630860I100654J0D01*
G01X-12049830Y4911364D01*
G03X-12079311Y4982537I-100654J0D01*
G01X-12436315Y5339541D01*
G03X-12456335Y5355055I-71173J-71173D01*
G03X-12558642Y5355055I-51154J-21924D01*
G03X-12586884Y5330236I51154J-86686D01*
G03X-12623715Y5285976I18195J-52596D01*
G37*
G36*
G01X-11883892Y9997362D02*
G03X-12085200Y9997362I-100654J0D01*
G03X-11883892Y9997362I100654J0D01*
G37*
G36*
G01X-11883892Y6629462D02*
G03X-12085200Y6629462I-100654J0D01*
G03X-11883892Y6629462I100654J0D01*
G37*
G36*
G01X-11883892Y8305662D02*
G03X-12085200Y8305662I-100654J0D01*
G03X-11883892Y8305662I100654J0D01*
G37*
G36*
G01X-11883892Y5333962D02*
G03X-12085200Y5333962I-100654J0D01*
G03X-11883892Y5333962I100654J0D01*
G37*
G36*
G01X-11542734Y7101493D02*
G01X-11542971Y7101316D01*
G01X-11664121Y7101316D01*
G01X-11664358Y7101493D01*
G03X-11831200Y7025662I-66188J-75831D01*
G03X-11664358Y6949831I100654J0D01*
G01X-11664121Y6950008D01*
G01X-11542971Y6950008D01*
G01X-11542734Y6949831D01*
G03X-11410358Y6949831I66188J75831D01*
G01X-11410121Y6950008D01*
G01X-11288971Y6950008D01*
G01X-11288734Y6949831D01*
G03X-11121892Y7025662I66188J75831D01*
G03X-11288734Y7101493I-100654J0D01*
G01X-11288971Y7101316D01*
G01X-11410121Y7101316D01*
G01X-11410358Y7101493D01*
G03X-11542734Y7101493I-66188J-75831D01*
G37*
G36*
G01X-11229365Y8817784D02*
G03X-11288734Y8793193I6819J-100423D01*
G01X-11288971Y8793016D01*
G01X-11410121Y8793016D01*
G01X-11410358Y8793193D01*
G03X-11542734Y8793193I-66188J-75831D01*
G01X-11542971Y8793016D01*
G01X-11664121Y8793016D01*
G01X-11664358Y8793193D01*
G03X-11831200Y8717362I-66188J-75831D01*
G03X-11664358Y8641531I100654J0D01*
G01X-11664121Y8641708D01*
G01X-11542971Y8641708D01*
G01X-11542734Y8641531D01*
G03X-11410358Y8641531I66188J75831D01*
G01X-11410121Y8641708D01*
G01X-11288971Y8641708D01*
G01X-11288734Y8641531D01*
G03X-11122123Y8710543I66188J75831D01*
G01X-11122081Y8710836D01*
G01X-10407051Y9425866D01*
G03X-10384892Y9479362I-53495J53495D01*
G01X-10384892Y9930937D01*
G01X-10384715Y9931174D01*
G03X-10460546Y10098016I-75831J66188D01*
G03X-10536377Y9931174I0J-100654D01*
G01X-10536200Y9930937D01*
G01X-10536200Y9510699D01*
G01X-11229072Y8817827D01*
G01X-11229365Y8817784D01*
G37*
G36*
G01X-11229365Y5434385D02*
G03X-11288734Y5409793I6819J-100423D01*
G01X-11288971Y5409616D01*
G01X-11410121Y5409616D01*
G01X-11410358Y5409793D01*
G03X-11542734Y5409793I-66188J-75831D01*
G01X-11542971Y5409616D01*
G01X-11664121Y5409616D01*
G01X-11664358Y5409793D01*
G03X-11831200Y5333962I-66188J-75831D01*
G03X-11664358Y5258131I100654J0D01*
G01X-11664121Y5258308D01*
G01X-11542971Y5258308D01*
G01X-11542734Y5258131D01*
G03X-11410358Y5258131I66188J75831D01*
G01X-11410121Y5258308D01*
G01X-11288971Y5258308D01*
G01X-11288734Y5258131D01*
G03X-11122123Y5327143I66188J75831D01*
G01X-11122081Y5327436D01*
G01X-9895085Y6554432D01*
G01X-6701709Y6554432D01*
G02X-6427363Y6467046I0J-474346D01*
G01X-6427363Y5834476D01*
G03X-6405204Y5780980I75654J0D01*
G01X-6058400Y5434176D01*
G03X-5951409Y5541166I53495J53495D01*
G01X-6276055Y5865812D01*
G01X-6276055Y8669376D01*
G01X-6014368Y8931063D01*
G01X-3638474Y8931063D01*
G03X-3584978Y8953221I0J75654D01*
G01X-2964529Y9573671D01*
G01X-874975Y9573671D01*
G01X-724290Y9422986D01*
G03X-670795Y9400828I53495J53495D01*
G01X-455481Y9400828D01*
G01X-725665Y9130645D01*
G03X-741965Y9091291I39353J-39353D01*
G01X-741965Y8873408D01*
G03X-630657Y8873408I55654J0D01*
G01X-630657Y9068239D01*
G01X-363105Y9335794D01*
G01X-345824Y9352703D01*
G01X-337924Y9359651D01*
G01X-330253Y9365488D01*
G01X-322505Y9370238D01*
G01X-319274Y9371822D01*
G01X-315754Y9373240D01*
G01X-312244Y9374342D01*
G01X-308685Y9375139D01*
G01X-305006Y9375632D01*
G01X-300555Y9375828D01*
G01X-251121Y9375828D01*
G03X-251121Y9577136I0J100654D01*
G01X-301121Y9577136D01*
G03X-347830Y9565642I0J-100654D01*
G01X-354530Y9564025D01*
G01X-375971Y9559636D01*
G01X-399965Y9555798D01*
G01X-412341Y9554304D01*
G01X-425138Y9553144D01*
G01X-438095Y9552402D01*
G01X-451378Y9552136D01*
G01X-639458Y9552136D01*
G01X-790142Y9702820D01*
G03X-843638Y9724979I-53495J-53495D01*
G01X-2995865Y9724979D01*
G03X-3049361Y9702820I0J-75654D01*
G01X-3669811Y9082371D01*
G01X-6045705Y9082371D01*
G03X-6099200Y9060212I0J-75654D01*
G01X-6405204Y8754208D01*
G03X-6427363Y8700713I53495J-53495D01*
G01X-6427363Y6793125D01*
G02X-6701709Y6705740I-274346J386961D01*
G01X-9926422Y6705740D01*
G03X-9979918Y6683581I0J-75654D01*
G01X-11229072Y5434427D01*
G01X-11229365Y5434385D01*
G37*
G36*
G01X-11146269Y119888D02*
G03X-11120615Y145542I0J25654D01*
G01X-11120615Y345542D01*
G03X-11146269Y371196I-25654J0D01*
G01X-11296269Y371196D01*
G03X-11321923Y345542I0J-25654D01*
G01X-11321923Y145542D01*
G03X-11296269Y119888I25654J0D01*
G01X-11146269Y119888D01*
G37*
G36*
G01X-11038168Y4329391D02*
G03X-11038168Y4125683I0J-101854D01*
G03X-11038168Y4329391I0J101854D01*
G37*
G36*
G01X-11038168Y3059391D02*
G03X-11038168Y2855683I0J-101854D01*
G03X-11038168Y3059391I0J101854D01*
G37*
G36*
G01X-11038168Y3313391D02*
G03X-11038168Y3109683I0J-101854D01*
G03X-11038168Y3313391I0J101854D01*
G37*
G36*
G01X-11038168Y4075391D02*
G03X-11038168Y3871683I0J-101854D01*
G03X-11038168Y4075391I0J101854D01*
G37*
G36*
G01X-11038168Y3567391D02*
G03X-11038168Y3363683I0J-101854D01*
G03X-11038168Y3567391I0J101854D01*
G37*
G36*
G01X-11038168Y3821391D02*
G03X-11038168Y3617683I0J-101854D01*
G03X-11038168Y3821391I0J101854D01*
G37*
G36*
G01X-11038168Y1535391D02*
G03X-11038168Y1331683I0J-101854D01*
G03X-11038168Y1535391I0J101854D01*
G37*
G36*
G01X-11038168Y2805391D02*
G03X-11038168Y2601683I0J-101854D01*
G03X-11038168Y2805391I0J101854D01*
G37*
G36*
G01X-11038168Y2297391D02*
G03X-11038168Y2093683I0J-101854D01*
G03X-11038168Y2297391I0J101854D01*
G37*
G36*
G01X-11038168Y2551391D02*
G03X-11038168Y2347683I0J-101854D01*
G03X-11038168Y2551391I0J101854D01*
G37*
G36*
G01X-10867892Y7025662D02*
G03X-11069200Y7025662I-100654J0D01*
G03X-10867892Y7025662I100654J0D01*
G37*
G36*
G01X-10867892Y8717362D02*
G03X-11069200Y8717362I-100654J0D01*
G03X-10867892Y8717362I100654J0D01*
G37*
G36*
G01X-10867892Y5333962D02*
G03X-11069200Y5333962I-100654J0D01*
G03X-10867892Y5333962I100654J0D01*
G37*
G36*
G01X-10048875Y1493013D02*
G01X-10046989Y1494111D01*
G01X-10045419Y1494747D01*
G01X-10044110Y1495005D01*
G03X-10009903Y1589773I-5146J55415D01*
G03X-10104672Y1555567I-39353J-39353D01*
G01X-10104930Y1554258D01*
G01X-10105565Y1552688D01*
G01X-10106663Y1550802D01*
G01X-10107935Y1549235D01*
G01X-10996015Y661155D01*
G03X-11007923Y632408I28747J-28747D01*
G01X-11007923Y381317D01*
G01X-11008174Y377410D01*
G01X-11008839Y373729D01*
G01X-11009987Y369797D01*
G01X-11011540Y365994D01*
G01X-11013347Y362663D01*
G01X-11015179Y360103D01*
G01X-11016704Y358521D01*
G01X-11018810Y356999D01*
G03X-11067923Y270542I51541J-86456D01*
G01X-11067923Y220542D01*
G03X-10866615Y220542I100654J0D01*
G01X-10866615Y270542D01*
G03X-10915727Y356999I-100654J0D01*
G01X-10917833Y358521D01*
G01X-10919359Y360103D01*
G01X-10921190Y362663D01*
G01X-10922998Y365994D01*
G01X-10924550Y369797D01*
G01X-10925698Y373729D01*
G01X-10926364Y377410D01*
G01X-10926615Y381317D01*
G01X-10926615Y615569D01*
G01X-10050442Y1491742D01*
G01X-10048875Y1493013D01*
G37*
G36*
G01X-10784168Y4329391D02*
G03X-10784168Y4125683I0J-101854D01*
G03X-10784168Y4329391I0J101854D01*
G37*
G36*
G01X-10784168Y3059391D02*
G03X-10784168Y2855683I0J-101854D01*
G03X-10784168Y3059391I0J101854D01*
G37*
G36*
G01X-10784168Y3313391D02*
G03X-10784168Y3109683I0J-101854D01*
G03X-10784168Y3313391I0J101854D01*
G37*
G36*
G01X-10784168Y4075391D02*
G03X-10784168Y3871683I0J-101854D01*
G03X-10784168Y4075391I0J101854D01*
G37*
G36*
G01X-10784168Y3567391D02*
G03X-10784168Y3363683I0J-101854D01*
G03X-10784168Y3567391I0J101854D01*
G37*
G36*
G01X-10784168Y3821391D02*
G03X-10784168Y3617683I0J-101854D01*
G03X-10784168Y3821391I0J101854D01*
G37*
G36*
G01X-10784168Y1535391D02*
G03X-10784168Y1331683I0J-101854D01*
G03X-10784168Y1535391I0J101854D01*
G37*
G36*
G01X-10784168Y2805391D02*
G03X-10784168Y2601683I0J-101854D01*
G03X-10784168Y2805391I0J101854D01*
G37*
G36*
G01X-10784168Y2297391D02*
G03X-10784168Y2093683I0J-101854D01*
G03X-10784168Y2297391I0J101854D01*
G37*
G36*
G01X-10784168Y2551391D02*
G03X-10784168Y2347683I0J-101854D01*
G03X-10784168Y2551391I0J101854D01*
G37*
G36*
G01X-10784168Y1789391D02*
G03X-10784168Y1585683I0J-101854D01*
G03X-10784168Y1789391I0J101854D01*
G37*
G36*
G01X-10613892Y7025662D02*
G03X-10815200Y7025662I-100654J0D01*
G03X-10613892Y7025662I100654J0D01*
G37*
G36*
G01X-10613892Y8717362D02*
G03X-10815200Y8717362I-100654J0D01*
G03X-10613892Y8717362I100654J0D01*
G37*
G36*
G01X-10613892Y5333962D02*
G03X-10815200Y5333962I-100654J0D01*
G03X-10613892Y5333962I100654J0D01*
G37*
G36*
G01X-10359892Y7025662D02*
G03X-10561200Y7025662I-100654J0D01*
G03X-10359892Y7025662I100654J0D01*
G37*
G36*
G01X-10359892Y8305662D02*
G03X-10561200Y8305662I-100654J0D01*
G03X-10359892Y8305662I100654J0D01*
G37*
G36*
G01X-10359892Y8717362D02*
G03X-10561200Y8717362I-100654J0D01*
G03X-10359892Y8717362I100654J0D01*
G37*
G36*
G01X-10359892Y5333962D02*
G03X-10561200Y5333962I-100654J0D01*
G03X-10359892Y5333962I100654J0D01*
G37*
G36*
G01X-10281546Y7126316D02*
G03X-10307200Y7100662I0J-25654D01*
G01X-10307200Y6950662D01*
G03X-10281546Y6925008I25654J0D01*
G01X-10131546Y6925008D01*
G03X-10105892Y6950662I0J25654D01*
G01X-10105892Y7100662D01*
G03X-10131546Y7126316I-25654J0D01*
G01X-10281546Y7126316D01*
G37*
G36*
G01X-10281546Y8818016D02*
G03X-10307200Y8792362I0J-25654D01*
G01X-10307200Y8642362D01*
G03X-10281546Y8616708I25654J0D01*
G01X-10131546Y8616708D01*
G03X-10105892Y8642362I0J25654D01*
G01X-10105892Y8792362D01*
G03X-10131546Y8818016I-25654J0D01*
G01X-10281546Y8818016D01*
G37*
G36*
G01X-10281546Y5434616D02*
G03X-10307200Y5408962I0J-25654D01*
G01X-10307200Y5258962D01*
G03X-10281546Y5233308I25654J0D01*
G01X-10131546Y5233308D01*
G03X-10105892Y5258962I0J25654D01*
G01X-10105892Y5408962D01*
G03X-10131546Y5434616I-25654J0D01*
G01X-10281546Y5434616D01*
G37*
G36*
G01X-6601612Y7992250D02*
G03X-6555958Y8079733I0J55654D01*
G01X-6555958Y8573211D01*
G03X-6569330Y8605493I-45654J0D01*
G01X-6755926Y8792089D01*
G03X-6850068Y8821667I-54789J-9776D01*
G03X-6820491Y8727525I39353J-39353D01*
G01X-6647266Y8554300D01*
G01X-6647266Y8319712D01*
G03X-6661710Y8344811I-53797J-14255D01*
G01X-8648186Y10331286D01*
G03X-8687539Y10347587I-39353J-39353D01*
G01X-9725300Y10347587D01*
G01X-9878366Y10500653D01*
G03X-9836195Y10570494I-57686J82484D01*
G01X-9836024Y10571929D01*
G03X-9835398Y10583137I-100028J11208D01*
G01X-9835398Y10633137D01*
G03X-10036706Y10633137I-100654J0D01*
G01X-10036706Y10583137D01*
G03X-10036080Y10571929I100654J0D01*
G01X-10035909Y10570494D01*
G03X-9992270Y10499646I99857J12643D01*
G01X-9992071Y10498602D01*
G01X-9991706Y10492261D01*
G01X-9991706Y10479632D01*
G03X-9988079Y10459871I55654J0D01*
G01X-10049364Y10521153D01*
G01X-10066273Y10538433D01*
G01X-10073221Y10546334D01*
G01X-10079058Y10554005D01*
G01X-10083808Y10561753D01*
G01X-10085392Y10564984D01*
G01X-10086810Y10568503D01*
G01X-10087913Y10572014D01*
G01X-10088709Y10575573D01*
G01X-10089202Y10579252D01*
G01X-10089398Y10583703D01*
G01X-10089398Y10633137D01*
G03X-10290706Y10633137I-100654J0D01*
G01X-10290706Y10583137D01*
G03X-10252857Y10504482I100654J0D01*
G01X-10251722Y10503588D01*
G03X-10170767Y10484348I61670J79549D01*
G01X-10169888Y10483750D01*
G01X-10165146Y10479524D01*
G01X-9815800Y10130178D01*
G03X-9776447Y10113878I39353J39353D01*
G01X-8787093Y10113878D01*
G01X-7089771Y8416556D01*
G03X-7011065Y8416556I39353J39353D01*
G03X-7011065Y8495263I-39353J39353D01*
G01X-8724687Y10208885D01*
G03X-8764040Y10225186I-39353J-39353D01*
G01X-9753394Y10225186D01*
G01X-9768114Y10239906D01*
G03X-9748353Y10236279I19761J52027D01*
G01X-8710592Y10236279D01*
G01X-6740417Y8266104D01*
G03X-6647266Y8291203I39353J39353D01*
G01X-6647266Y8079733D01*
G03X-6601612Y7992250I45654J-31829D01*
G37*
G36*
G01X-10092438Y119888D02*
G03X-10066784Y145542I0J25654D01*
G01X-10066784Y345542D01*
G03X-10092438Y371196I-25654J0D01*
G01X-10242438Y371196D01*
G03X-10268092Y345542I0J-25654D01*
G01X-10268092Y145542D01*
G03X-10242438Y119888I25654J0D01*
G01X-10092438Y119888D01*
G37*
G36*
G01X-7193220Y1851077D02*
G03X-7225502Y1837706I0J-45654D01*
G01X-8053641Y1009566D01*
G01X-9529050Y1009566D01*
G03X-9561332Y996195I0J-45654D01*
G01X-9945720Y611807D01*
G03X-9959092Y579524I32282J-32282D01*
G01X-9959092Y387549D01*
G01X-9959513Y382673D01*
G01X-9960671Y377701D01*
G01X-9962736Y371901D01*
G01X-9965602Y365759D01*
G01X-9969083Y359696D01*
G01X-9972941Y354086D01*
G01X-9976878Y349292D01*
G01X-9981118Y345045D01*
G03X-10014092Y270542I67680J-74502D01*
G01X-10014092Y220542D01*
G03X-9812784Y220542I100654J0D01*
G01X-9812784Y270542D01*
G03X-9845758Y345045I-100654J0D01*
G01X-9849999Y349292D01*
G01X-9853935Y354086D01*
G01X-9857793Y359696D01*
G01X-9861274Y365759D01*
G01X-9864140Y371901D01*
G01X-9866205Y377701D01*
G01X-9867363Y382673D01*
G01X-9867784Y387549D01*
G01X-9867784Y560614D01*
G01X-9510140Y918259D01*
G01X-8034731Y918259D01*
G03X-8002448Y931630I0J45654D01*
G01X-7174309Y1759769D01*
G01X-6627112Y1759769D01*
G03X-6594830Y1773141I0J45654D01*
G01X-3431015Y4936956D01*
G03X-3417643Y4969238I-32282J32282D01*
G01X-3417643Y5019079D01*
G03X-3463297Y5106562I-45654J31829D01*
G03X-3508951Y5019079I0J-55654D01*
G01X-3508951Y4988149D01*
G01X-3737673Y4759427D01*
G03X-3830829Y4813015I-53803J14234D01*
G03X-3777241Y4719859I39353J-39353D01*
G01X-6646023Y1851077D01*
G01X-7193220Y1851077D01*
G37*
G36*
G01X-9757052Y10733791D02*
G03X-9782706Y10708137I0J-25654D01*
G01X-9782706Y10508137D01*
G03X-9757052Y10482483I25654J0D01*
G01X-9607052Y10482483D01*
G03X-9581398Y10508137I0J25654D01*
G01X-9581398Y10708137D01*
G03X-9607052Y10733791I-25654J0D01*
G01X-9757052Y10733791D01*
G37*
G36*
G01X-9453049Y9364380D02*
G01X-9503049Y9364380D01*
G03X-9503049Y9163072I0J-100654D01*
G01X-9453049Y9163072D01*
G03X-9453049Y9364380I0J100654D01*
G37*
G36*
G01X-9453049Y9618380D02*
G01X-9503049Y9618380D01*
G03X-9503049Y9417072I0J-100654D01*
G01X-9453049Y9417072D01*
G03X-9453049Y9618380I0J100654D01*
G37*
G36*
G01X-9603703Y9696726D02*
G03X-9578049Y9671072I25654J0D01*
G01X-9378049Y9671072D01*
G03X-9352395Y9696726I0J25654D01*
G01X-9352395Y9846726D01*
G03X-9378049Y9872380I-25654J0D01*
G01X-9578049Y9872380D01*
G03X-9603703Y9846726I0J-25654D01*
G01X-9603703Y9696726D01*
G37*
G36*
G01X-9257479Y6142402D02*
G03X-9289761Y6129031I0J-45654D01*
G01X-9362144Y6056648D01*
G01X-9365746Y6053632D01*
G01X-9370183Y6050869D01*
G01X-9375971Y6048079D01*
G01X-9382553Y6045612D01*
G01X-9389390Y6043686D01*
G01X-9395924Y6042440D01*
G01X-9401523Y6041932D01*
G01X-9406676Y6042102D01*
G03X-9417249Y6042632I-10572J-105124D01*
G01X-9457249Y6042632D01*
G03X-9457249Y5831325I0J-105654D01*
G01X-9417249Y5831325D01*
G03X-9312125Y5947551I0J105654D01*
G01X-9312295Y5952704D01*
G01X-9311787Y5958303D01*
G01X-9310541Y5964837D01*
G01X-9308616Y5971674D01*
G01X-9306149Y5978256D01*
G01X-9303358Y5984044D01*
G01X-9300595Y5988481D01*
G01X-9297578Y5992084D01*
G01X-9238568Y6051095D01*
G01X-6613041Y6051095D01*
G03X-6525558Y6096749I31829J45654D01*
G03X-6613041Y6142402I-55654J0D01*
G01X-9257479Y6142402D01*
G37*
G36*
G01X-8882987Y484506D02*
G03X-9214294Y484506I-165654J0D01*
G03X-8882987Y484506I165654J0D01*
G37*
G36*
G01X-7943258Y8557204D02*
G03X-8943766Y8557204I-500254J0D01*
G03X-7943258Y8557204I500254J0D01*
G37*
G36*
G01X-7867258Y10437904D02*
G01X-7867258Y10487904D01*
G03X-8068566Y10487904I-100654J0D01*
G01X-8068566Y10437904D01*
G03X-7867258Y10437904I100654J0D01*
G37*
G36*
G01X-7788912Y10588558D02*
G03X-7814566Y10562904I0J-25654D01*
G01X-7814566Y10362904D01*
G03X-7788912Y10337250I25654J0D01*
G01X-7638912Y10337250D01*
G03X-7613258Y10362904I0J25654D01*
G01X-7613258Y10562904D01*
G03X-7638912Y10588558I-25654J0D01*
G01X-7788912Y10588558D01*
G37*
G36*
G01X-7568879Y589112D02*
G03X-7772587Y589112I-101854J0D01*
G03X-7568879Y589112I101854J0D01*
G37*
G36*
G01X-7118791Y589112D02*
G03X-7320721Y608060I-101854J0D01*
G03X-7522651Y589112I-100076J-18948D01*
G03X-7320721Y570164I101854J0D01*
G03X-7118791Y589112I100076J18948D01*
G37*
G36*
G01X-7471416Y1873310D02*
G03X-7404128Y1870111I35441J36191D01*
G03X-7340433Y1870111I31847J39390D01*
G03X-7276739Y1870111I31847J39390D01*
G03X-7209451Y1873310I31847J39390D01*
G03X-7204844Y1940517I-35441J36191D01*
G03X-7204844Y2002549I-40048J31016D01*
G03X-7204844Y2064582I-40048J31016D01*
G03X-7204844Y2126614I-40048J31016D01*
G03X-7209451Y2193821I-40048J31016D01*
G03X-7276739Y2197021I-35441J-36190D01*
G03X-7340433Y2197021I-31847J-39390D01*
G03X-7404128Y2197021I-31847J-39390D01*
G03X-7471416Y2193821I-31847J-39390D01*
G03X-7476023Y2126614I35441J-36190D01*
G03X-7476023Y2064582I40048J-31016D01*
G03X-7476023Y2002549I40048J-31016D01*
G03X-7476023Y1940517I40048J-31016D01*
G03X-7471416Y1873310I40048J-31016D01*
G37*
G36*
G01X-7291433Y1386794D02*
G03X-7385575Y1416371I-54789J-9776D01*
G03X-7355998Y1322229I39353J-39353D01*
G01X-7330987Y1297219D01*
G03X-7298705Y1283847I32282J32282D01*
G01X-6868044Y1283847D01*
G03X-6780561Y1329501I31829J45654D01*
G03X-6868044Y1375155I-55654J0D01*
G01X-7279794Y1375155D01*
G01X-7291433Y1386794D01*
G37*
G36*
G01X-6952858Y10526804D02*
G01X-6952858Y10576804D01*
G03X-7154166Y10576804I-100654J0D01*
G01X-7154166Y10526804D01*
G03X-6952858Y10526804I100654J0D01*
G37*
G36*
G01X-6986521Y3699030D02*
G03X-6986521Y3636997I40048J-31016D01*
G03X-6981914Y3569791I40048J-31016D01*
G03X-6914626Y3566591I35441J36191D01*
G03X-6850932Y3566591I31847J39390D01*
G03X-6787237Y3566591I31847J39390D01*
G03X-6719949Y3569791I31847J39390D01*
G03X-6715342Y3636997I-35441J36191D01*
G03X-6715342Y3699030I-40048J31016D01*
G03X-6715342Y3761062I-40048J31016D01*
G03X-6715342Y3823095I-40048J31016D01*
G03X-6719949Y3890302I-40048J31016D01*
G03X-6787237Y3893501I-35441J-36190D01*
G03X-6850932Y3893501I-31847J-39390D01*
G03X-6914626Y3893501I-31847J-39390D01*
G03X-6981914Y3890302I-31847J-39390D01*
G03X-6986521Y3823095I35441J-36190D01*
G03X-6986521Y3761062I40048J-31016D01*
G03X-6986521Y3699030I40048J-31016D01*
G37*
G36*
G01X-6620512Y10677458D02*
G03X-6646166Y10651804I0J-25654D01*
G01X-6646166Y10451804D01*
G03X-6620512Y10426150I25654J0D01*
G01X-6470512Y10426150D01*
G03X-6444858Y10451804I0J25654D01*
G01X-6444858Y10651804D01*
G03X-6470512Y10677458I-25654J0D01*
G01X-6620512Y10677458D01*
G37*
G36*
G01X-3113160Y5901023D02*
G01X-2951808Y5739671D01*
G03X-2919526Y5726299I32282J32282D01*
G01X-2406262Y5726299D01*
G03X-2353462Y5720401I31829J45654D01*
G01X-2490618Y5583245D01*
G03X-2520052Y5489058I9859J-54774D01*
G03X-2425955Y5518779I39293J39413D01*
G01X-2135154Y5809580D01*
G03X-2105577Y5903722I-9776J54789D01*
G03X-2199719Y5874145I-39353J-39353D01*
G01X-2322881Y5750982D01*
G03X-2339692Y5815432I-51552J20971D01*
G03X-2406262Y5817607I-34741J-43479D01*
G01X-2900615Y5817607D01*
G01X-3061967Y5978959D01*
G03X-3066105Y5982624I-32282J-32282D01*
G01X-1843244Y5982624D01*
G01X-1714341Y5853722D01*
G01X-1874627Y5853722D01*
G03X-1913980Y5837421I0J-55654D01*
G01X-2416337Y5335065D01*
G03X-2416337Y5256358I39353J-39353D01*
G03X-2337630Y5256358I39353J39353D01*
G01X-1851574Y5742414D01*
G01X-1706325Y5742414D01*
G03X-1651179Y5790560I0J55654D01*
G01X-1644877Y5784257D01*
G01X-1644877Y5324990D01*
G03X-1638576Y5253808I45654J-31829D01*
G03X-1567394Y5247507I39353J39353D01*
G01X-1555966Y5247507D01*
G03X-1560104Y5243843I28144J-35947D01*
G01X-1598799Y5205148D01*
G03X-1628376Y5111006I9776J-54789D01*
G03X-1534234Y5140584I39353J39353D01*
G01X-1508912Y5165906D01*
G01X-1446903Y5165906D01*
G03X-1450009Y5155035I51682J-20647D01*
G01X-1570305Y5034740D01*
G03X-1583676Y5002458I32282J-32282D01*
G01X-1583676Y4871084D01*
G03X-1538022Y4783602I45654J-31829D01*
G03X-1492368Y4871084I0J55654D01*
G01X-1492368Y4983547D01*
G01X-1385445Y5090471D01*
G03X-1343538Y5165906I-9776J54789D01*
G01X-1284247Y5165906D01*
G03X-1211272Y5174087I31829J45654D01*
G03X-1209931Y5247507I-41147J37474D01*
G01X-1101544Y5247507D01*
G01X-1021893Y5167857D01*
G01X-1021893Y5016975D01*
G01X-1176824Y4862045D01*
G03X-1186364Y4848069I32282J-32282D01*
G01X-1186364Y4876446D01*
G01X-1074341Y4988470D01*
G03X-1044763Y5082611I-9776J54789D01*
G03X-1138905Y5053034I-39353J-39353D01*
G01X-1264301Y4927638D01*
G03X-1277672Y4895356I32282J-32282D01*
G01X-1277672Y2940541D01*
G01X-1562033Y2656181D01*
G01X-3372818Y2656181D01*
G03X-3460300Y2610527I-31829J-45654D01*
G03X-3372818Y2564873I55654J0D01*
G01X-2864462Y2564873D01*
G03X-2857070Y2494255I46323J-30847D01*
G03X-2786310Y2488372I38931J39771D01*
G01X-1502322Y2488372D01*
G03X-1470040Y2501743I0J45654D01*
G01X-1082435Y2889348D01*
G03X-1069063Y2921631I-32282J32282D01*
G01X-1069063Y3745959D01*
G03X-993233Y3740096I41047J37583D01*
G03X-982362Y3815371I-34782J43446D01*
G01X-982362Y4218537D01*
G01X-487833Y4713066D01*
G03X-458256Y4807208I-9776J54789D01*
G03X-552397Y4777630I-39353J-39353D01*
G01X-1060298Y4269730D01*
G03X-1069063Y4257433I32282J-32282D01*
G01X-1069063Y4366439D01*
G01X-350131Y5085371D01*
G03X-320554Y5179513I-9776J54789D01*
G03X-414696Y5149935I-39353J-39353D01*
G01X-804521Y4760110D01*
G03X-803859Y4767855I-44992J7745D01*
G01X-803859Y5522664D01*
G03X-817231Y5554947I-45654J0D01*
G01X-910961Y5648676D01*
G01X-910961Y5893741D01*
G03X-956615Y5981223I-45654J31829D01*
G03X-1002269Y5893741I0J-55654D01*
G01X-1002269Y5629766D01*
G03X-988897Y5597484I45654J0D01*
G01X-895167Y5503754D01*
G01X-895167Y5501764D01*
G01X-1111552Y5718149D01*
G03X-1143834Y5731520I-32282J-32282D01*
G01X-1431168Y5731520D01*
G01X-1431168Y5758831D01*
G03X-1444539Y5791113I-45654J0D01*
G01X-1769186Y6115760D01*
G03X-1801469Y6129132I-32282J-32282D01*
G01X-1855523Y6129132D01*
G01X-1866622Y6140231D01*
G03X-1898904Y6153603I-32282J-32282D01*
G01X-4203598Y6153603D01*
G02X-4217852Y6180729I146613J94346D01*
G01X-4213968Y6183949D01*
G01X-4213119Y6184685D01*
G01X-4205513Y6191576D01*
G01X-4203836Y6193242D01*
G01X-4202756Y6194420D01*
G03X-4284092Y6383679I-77825J78661D01*
G03X-4353259Y6189642I3511J-110598D01*
G01X-4350762Y6187293D01*
G01X-4349524Y6186201D01*
G01X-4341485Y6179558D01*
G01X-4341157Y6179291D01*
G01X-4337876Y6176670D01*
G02X-4350372Y6153603I-159109J71279D01*
G01X-5044086Y6153603D01*
G03X-5049522Y6215603I-48683J26970D01*
G03X-5060486Y6233255I-43246J-14630D01*
G01X-5322518Y6495287D01*
G01X-5322518Y7431572D01*
G03X-5335890Y7463854I-45654J0D01*
G01X-5877649Y8005614D01*
G01X-5877649Y8190706D01*
G03X-5891021Y8222988I-45654J0D01*
G01X-5975616Y8307583D01*
G03X-6069758Y8337161I-54789J-9776D01*
G03X-6040181Y8243019I39353J-39353D01*
G01X-5968957Y8171796D01*
G01X-5968957Y8115509D01*
G03X-6047117Y8142519I-51247J-21704D01*
G03X-6065859Y8061976I26912J-48714D01*
G01X-6065859Y7905102D01*
G03X-6052487Y7872820I45654J0D01*
G01X-5495427Y7315760D01*
G01X-5495427Y6399876D01*
G03X-5493039Y6385305I45654J0D01*
G01X-5954150Y6846416D01*
G01X-5954150Y7752100D01*
G03X-5967522Y7784383I-45654J0D01*
G01X-6082718Y7899578D01*
G03X-6176859Y7929155I-54789J-9776D01*
G03X-6147282Y7835013I39353J-39353D01*
G01X-6045458Y7733190D01*
G01X-6045458Y6843403D01*
G01X-6066352Y6864297D01*
G01X-6066352Y7628470D01*
G03X-6112006Y7715953I-45654J31829D01*
G03X-6157660Y7628470I0J-55654D01*
G01X-6157660Y6845386D01*
G03X-6144288Y6813104I45654J0D01*
G01X-5327180Y5995996D01*
G03X-5323042Y5992331I32282J32282D01*
G01X-5436014Y5992331D01*
G03X-5530359Y6020265I-54560J-10983D01*
G03X-5500349Y5926560I39785J-38917D01*
G01X-5488184Y5914395D01*
G03X-5455902Y5901023I32282J32282D01*
G01X-4324333Y5901023D01*
G03X-4093512Y4956950I230821J-443819D01*
G03X-3862690Y5901023I0J500254D01*
G01X-3113160Y5901023D01*
G37*
G36*
G01X-5765448Y2355002D02*
G03X-5811102Y2442485I-45654J31829D01*
G03X-5856756Y2355002I0J-55654D01*
G01X-5856756Y2064037D01*
G01X-6070781Y1850012D01*
G03X-6100358Y1755870I9776J-54789D01*
G03X-6006217Y1785447I39353J39353D01*
G01X-5778820Y2012844D01*
G03X-5765448Y2045126I-32282J32282D01*
G01X-5765448Y2355002D01*
G37*
G36*
G01X-5834107Y419449D02*
G03X-5800007Y625103I0J105654D01*
G03X-5834107Y830756I-34099J100000D01*
G03X-5868206Y625103I0J-105654D01*
G03X-5834107Y419449I34099J-100000D01*
G37*
G36*
G01X-4986573Y7679018D02*
G03X-4954291Y7665646I32282J32282D01*
G01X-2963775Y7665646D01*
G01X-2788445Y7490315D01*
G03X-2756162Y7476943I32282J32282D01*
G01X-2336467Y7476943D01*
G01X-2210984Y7351461D01*
G01X-2210984Y7161721D01*
G03X-2165330Y7074238I45654J-31829D01*
G03X-2119676Y7161721I0J55654D01*
G01X-2119676Y7341754D01*
G01X-2047007Y7269084D01*
G01X-2047007Y7194692D01*
G03X-2001353Y7107210I45654J-31829D01*
G03X-1955699Y7194692I0J55654D01*
G01X-1955699Y7287994D01*
G03X-1969070Y7320277I-45654J0D01*
G01X-2264874Y7616080D01*
G03X-2297156Y7629452I-32282J-32282D01*
G01X-2676051Y7629452D01*
G01X-2866682Y7820083D01*
G03X-2898964Y7833455I-32282J-32282D01*
G01X-4777278Y7833455D01*
G01X-5107539Y8163716D01*
G01X-5107539Y8633183D01*
G03X-5153193Y8720666I-45654J31829D01*
G03X-5198847Y8633183I0J-55654D01*
G01X-5198847Y8144805D01*
G03X-5185476Y8112523I45654J0D01*
G01X-4829906Y7756954D01*
G01X-4935380Y7756954D01*
G01X-5781814Y8603387D01*
G03X-5875956Y8632964I-54789J-9776D01*
G03X-5846378Y8538823I39353J-39353D01*
G01X-4986573Y7679018D01*
G37*
G36*
G01X-5561199Y2462885D02*
G03X-5606853Y2375402I0J-55654D01*
G01X-5606853Y849955D01*
G01X-5606998Y847226D01*
G01X-5607298Y845396D01*
G01X-5607777Y843667D01*
G01X-5608457Y841937D01*
G01X-5609380Y840135D01*
G01X-5610337Y838620D01*
G01X-5614083Y834004D01*
G01X-5618814Y829486D01*
G01X-5624782Y824769D01*
G01X-5631757Y819957D01*
G01X-5639540Y815039D01*
G03X-5603888Y621319I55446J-89936D01*
G03X-5499440Y788319I19794J103783D01*
G01X-5507683Y800480D01*
G01X-5511492Y806629D01*
G01X-5514104Y811653D01*
G01X-5515495Y815449D01*
G01X-5515545Y816107D01*
G01X-5515545Y2375402D01*
G03X-5561199Y2462885I-45654J31829D01*
G37*
G36*
G01X-5147847Y4615982D02*
G03X-5225341Y4600013I-30847J-46323D01*
G01X-5391668Y4600013D01*
G03X-5479151Y4554359I-31829J-45654D01*
G03X-5391668Y4508705I55654J0D01*
G01X-5196108Y4508705D01*
G03X-5171867Y4514425I1972J45865D01*
G03X-5147847Y4523336I-6827J55234D01*
G01X-5147847Y4328473D01*
G03X-5134475Y4296191I45654J0D01*
G01X-4841553Y4003269D01*
G03X-4767622Y3960787I54789J9776D01*
G03X-4708212Y3886451I52258J-19143D01*
G03X-4669709Y3973473I-7151J55193D01*
G01X-4669709Y4065528D01*
G03X-4683081Y4097811I-45654J0D01*
G01X-4981615Y4396344D01*
G01X-4981615Y5803969D01*
G03X-4994987Y5836252I-45654J0D01*
G01X-5012480Y5853745D01*
G03X-5083277Y5897271I-54789J-9776D01*
G03X-5118378Y5821941I16008J-53302D01*
G01X-5139981Y5843544D01*
G03X-5234123Y5873122I-54789J-9776D01*
G03X-5204545Y5778980I39353J-39353D01*
G01X-5147847Y5722281D01*
G01X-5147847Y4615982D01*
G37*
G36*
G01X-4449581Y6162427D02*
G03X-4423927Y6188081I0J25654D01*
G01X-4423927Y6358081D01*
G03X-4449581Y6383735I-25654J0D01*
G01X-4619580Y6383735D01*
G03X-4645234Y6358081I0J-25654D01*
G01X-4645234Y6188081D01*
G03X-4619580Y6162427I25654J0D01*
G01X-4449581Y6162427D01*
G37*
G36*
G01X-4290946Y3839713D02*
G01X-4293417Y3837628D01*
G01X-4294866Y3836789D01*
G01X-4296700Y3836103D01*
G01X-4299458Y3835488D01*
G01X-4303406Y3835017D01*
G01X-4308634Y3834716D01*
G01X-4319325Y3834314D01*
G03X-4377980Y3688115I1912J-85633D01*
G03X-4231780Y3746770I60567J60567D01*
G01X-4231379Y3757461D01*
G01X-4231077Y3762688D01*
G01X-4230606Y3766636D01*
G01X-4229991Y3769394D01*
G01X-4229305Y3771229D01*
G01X-4228467Y3772678D01*
G01X-4226382Y3775148D01*
G01X-4074940Y3926590D01*
G01X-3946537Y3926590D01*
G03X-3958834Y3917825I19985J-41047D01*
G01X-4027245Y3849414D01*
G02X-4074124Y3834336I-46878J65334D01*
G01X-4123413Y3834336D01*
G03X-4149067Y3808682I0J-25654D01*
G01X-4149067Y3688682D01*
G03X-4123413Y3663028I25654J0D01*
G01X-4003413Y3663028D01*
G03X-3977759Y3688682I0J25654D01*
G01X-3977759Y3737971D01*
G02X-3962681Y3784849I80412J0D01*
G01X-3907641Y3839889D01*
G01X-3722079Y3839889D01*
G03X-3634596Y3885543I31829J45654D01*
G03X-3722079Y3931197I-55654J0D01*
G01X-3734268Y3931197D01*
G03X-3728405Y4007027I-37583J41047D01*
G03X-3803680Y4017898I-43446J-34782D01*
G01X-4093850Y4017898D01*
G03X-4126133Y4004527I0J-45654D01*
G01X-4290946Y3839713D01*
G37*
G36*
G01X-3914576Y10405182D02*
G03X-3888922Y10430836I0J25654D01*
G01X-3888922Y10550836D01*
G03X-3914576Y10576490I-25654J0D01*
G01X-4034577Y10576490D01*
G03X-4060231Y10550836I0J-25654D01*
G01X-4060231Y10430836D01*
G03X-4034577Y10405182I25654J0D01*
G01X-3914576Y10405182D01*
G37*
G36*
G01X-3200397Y5105687D02*
G03X-3164519Y5019070I45654J-31829D01*
G01X-3011695Y4866246D01*
G01X-3011695Y4711754D01*
G03X-2998323Y4679472I45654J0D01*
G01X-2862937Y4544086D01*
G03X-2830655Y4530714I32282J32282D01*
G01X-2354859Y4530714D01*
G01X-2354490Y4530345D01*
G02X-2493449Y4333302I-235000J18206D01*
G01X-3695350Y4333302D01*
G03X-3755917Y4308214I0J-85654D01*
G01X-3868118Y4196013D01*
G03X-3746985Y4074880I60567J-60567D01*
G01X-3659871Y4161994D01*
G01X-3507637Y4161994D01*
G03X-3524561Y4105214I36690J-41848D01*
G03X-3480723Y4065358I53613J14932D01*
G01X-3306433Y3891068D01*
G03X-3300985Y3875096I54789J9776D01*
G01X-3352417Y3875096D01*
G03X-3429890Y3861286I-31829J-45654D01*
G03X-3416104Y3783808I45644J-31843D01*
G03X-3404222Y3677753I21657J-51267D01*
G01X-3358499Y3632030D01*
G01X-3358499Y3325764D01*
G03X-3358499Y3262107I45654J-31829D01*
G01X-3358499Y3200645D01*
G01X-3501123Y3058020D01*
G03X-3530701Y2963878I9776J-54789D01*
G03X-3436559Y2993456I39353J39353D01*
G01X-3280563Y3149452D01*
G03X-3267191Y3181734I-32282J32282D01*
G01X-3267191Y3262107D01*
G03X-3267191Y3325764I-45654J31829D01*
G01X-3267191Y3650940D01*
G03X-3280563Y3683222I-45654J0D01*
G01X-3339658Y3742317D01*
G03X-3362589Y3778175I-54789J-9776D01*
G03X-3352417Y3783788I-21657J51267D01*
G01X-2629436Y3783788D01*
G03X-2597154Y3797160I0J45654D01*
G01X-2573760Y3820554D01*
G03X-2548708Y3831934I-9776J54789D01*
G01X-2878190Y3502451D01*
G03X-2929306Y3455005I3951J-55514D01*
G03X-2893950Y3394891I55066J-8068D01*
G01X-3141125Y3147715D01*
G03X-3154497Y3115433I32282J-32282D01*
G01X-3154497Y2769857D01*
G03X-3108843Y2682374I45654J-31829D01*
G03X-3063189Y2769857I0J55654D01*
G01X-3063189Y3096523D01*
G01X-2079054Y4080658D01*
G03X-2039915Y4161994I-9776J54789D01*
G01X-1808104Y4161994D01*
G01X-1649590Y4003479D01*
G03X-1512275Y4026014I60567J60567D01*
G01X-1512275Y3080961D01*
G03X-1466621Y2993478I45654J-31829D01*
G03X-1420967Y3080961I0J55654D01*
G01X-1420967Y4288448D01*
G03X-1434339Y4320731I-45654J0D01*
G01X-1684060Y4570452D01*
G01X-1684060Y5133831D01*
G03X-1729714Y5221314I-45654J31829D01*
G03X-1775368Y5133831I0J-55654D01*
G01X-1775368Y4551541D01*
G03X-1761996Y4519259I45654J0D01*
G01X-1512275Y4269538D01*
G01X-1512275Y4102077D01*
G03X-1528456Y4124612I-76748J-38032D01*
G01X-1712059Y4308214D01*
G03X-1772625Y4333302I-60567J-60567D01*
G01X-2122816Y4333302D01*
G02X-2262478Y4548552I96042J215250D01*
G03X-2275850Y4580834I-45654J0D01*
G01X-2303667Y4608651D01*
G03X-2335949Y4622022I-32282J-32282D01*
G01X-2811745Y4622022D01*
G01X-2920387Y4730664D01*
G01X-2920387Y4885156D01*
G03X-2933759Y4917438I-45654J0D01*
G01X-3099955Y5083634D01*
G03X-3109089Y5105687I-54789J-9776D01*
G01X-3109089Y5713947D01*
G03X-3122507Y5746275I-45654J0D01*
G03X-3211468Y5780507I-54825J-9767D01*
G03X-3200397Y5685892I34127J-43962D01*
G01X-3200397Y5105687D01*
G37*
G36*
G01X-2796938Y6181620D02*
G03X-2764656Y6194992I0J45654D01*
G01X-2617554Y6342093D01*
G03X-2604183Y6374375I-32282J32282D01*
G01X-2604183Y6651493D01*
G03X-2617554Y6683775I-45654J0D01*
G01X-2728042Y6794263D01*
G03X-2760324Y6807634I-32282J-32282D01*
G01X-2832211Y6807634D01*
G03X-2893128Y6809427I-31829J-45654D01*
G01X-2893128Y7063995D01*
G01X-2859364Y7097759D01*
G03X-2829786Y7191901I-9776J54789D01*
G03X-2923928Y7162324I-39353J-39353D01*
G01X-2971065Y7115188D01*
G03X-2984436Y7082905I32282J-32282D01*
G01X-2984436Y6515419D01*
G03X-2971065Y6483137I45654J0D01*
G01X-2923928Y6436000D01*
G03X-2829786Y6406423I54789J9776D01*
G03X-2859364Y6500565I-39353J39353D01*
G01X-2893128Y6534330D01*
G01X-2893128Y6714534D01*
G03X-2832211Y6716326I29089J47447D01*
G01X-2779235Y6716326D01*
G01X-2695491Y6632582D01*
G01X-2695491Y6393286D01*
G01X-2815849Y6272928D01*
G01X-3630452Y6272928D01*
G01X-3633043Y6273080D01*
G01X-3635152Y6273440D01*
G01X-3637538Y6274097D01*
G01X-3640143Y6275079D01*
G01X-3642899Y6276392D01*
G01X-3645349Y6277801D01*
G01X-3651372Y6282188D01*
G01X-3656556Y6287160D01*
G01X-3661182Y6292970D01*
G01X-3662693Y6295345D01*
G01X-3664118Y6298010D01*
G01X-3665204Y6300513D01*
G01X-3666170Y6303432D01*
G03X-3867568Y6329840I-106410J-30351D01*
G03X-3748894Y6164992I94988J-56759D01*
G01X-3743345Y6166059D01*
G01X-3742328Y6166276D01*
G01X-3730992Y6168936D01*
G01X-3730519Y6169052D01*
G01X-3707145Y6175008D01*
G01X-3695898Y6177671D01*
G01X-3685324Y6179779D01*
G01X-3675715Y6181125D01*
G01X-3666578Y6181620D01*
G01X-2796938Y6181620D01*
G37*
G36*
G01X-3221597Y337810D02*
G03X-3372905Y337810I-75654J0D01*
G03X-3221597Y337810I75654J0D01*
G37*
G36*
G01X-2782018Y2960739D02*
G03X-2813463Y3052920I-41221J37392D01*
G01X-2821557Y3061014D01*
G03X-2853839Y3074386I-32282J-32282D01*
G01X-2969912Y3074386D01*
G03X-3057395Y3028732I-31829J-45654D01*
G03X-2969912Y2983078I55654J0D01*
G01X-2876818Y2983078D01*
G03X-2782018Y2960739I53579J15054D01*
G37*
G36*
G01X-2637993Y10263841D02*
G03X-2849300Y10263841I-105654J0D01*
G03X-2637993Y10263841I105654J0D01*
G37*
G36*
G01X-2542982Y7250358D02*
G03X-2588636Y7337841I-45654J31829D01*
G03X-2634290Y7250358I0J-55654D01*
G01X-2634290Y7180186D01*
G03X-2620918Y7147904I45654J0D01*
G01X-2597524Y7124509D01*
G03X-2503382Y7094932I54789J9776D01*
G03X-2532960Y7189074I-39353J39353D01*
G01X-2542982Y7199096D01*
G01X-2542982Y7250358D01*
G37*
G36*
G01X-2484272Y3043031D02*
G01X-2466659Y3060645D01*
G03X-2437081Y3154786I-9776J54789D01*
G03X-2531223Y3125209I-39353J-39353D01*
G01X-2585218Y3071214D01*
G03X-2598589Y3038932I32282J-32282D01*
G01X-2598589Y2785157D01*
G03X-2552935Y2697675I45654J-31829D01*
G03X-2507281Y2785157I0J55654D01*
G01X-2507281Y2941609D01*
G03X-2486210Y2933143I30847J46323D01*
G01X-2269014Y2715946D01*
G03X-2236731Y2702574I32282J32282D01*
G01X-2166559Y2702574D01*
G03X-2079076Y2748228I31829J45654D01*
G03X-2166559Y2793882I-55654J0D01*
G01X-2217821Y2793882D01*
G01X-2421646Y2997707D01*
G03X-2484272Y3043031I-54789J-9776D01*
G37*
G36*
G01X-2388006Y10263841D02*
G03X-2599314Y10263841I-105654J0D01*
G03X-2388006Y10263841I105654J0D01*
G37*
G36*
G01X-2421598Y337810D02*
G03X-2572906Y337810I-75654J0D01*
G03X-2421598Y337810I75654J0D01*
G37*
G36*
G01X-1449639Y9048492D02*
G03X-1481922Y9061864I-32282J-32282D01*
G01X-1613295Y9061864D01*
G03X-1700778Y9016210I-31829J-45654D01*
G03X-1613295Y8970556I55654J0D01*
G01X-1500832Y8970556D01*
G01X-1459538Y8929262D01*
G01X-2051901Y8929262D01*
G03X-2139383Y8883608I-31829J-45654D01*
G03X-2051901Y8837954I55654J0D01*
G01X-1475332Y8837954D01*
G01X-1463977Y8826599D01*
G03X-1471721Y8827260I-7745J-44992D01*
G01X-2406523Y8827260D01*
G01X-2447146Y8867883D01*
G03X-2541288Y8897461I-54789J-9776D01*
G03X-2511711Y8803319I39353J-39353D01*
G01X-2457716Y8749324D01*
G03X-2425434Y8735953I32282J32282D01*
G01X-1490632Y8735953D01*
G01X-1351728Y8597049D01*
G03X-1399862Y8543051I7508J-55145D01*
G03X-1353996Y8487115I55642J-1148D01*
G01X-1267472Y8400591D01*
G01X-1267472Y8127852D01*
G01X-1463844Y8127852D01*
G03X-1489498Y8102198I0J-25654D01*
G01X-1489498Y7942198D01*
G03X-1463844Y7916544I25654J0D01*
G01X-1267472Y7916544D01*
G01X-1267472Y7644292D01*
G03X-1254100Y7612010I45654J0D01*
G01X-1067504Y7425413D01*
G03X-973362Y7395836I54789J9776D01*
G03X-1002940Y7489978I-39353J39353D01*
G01X-1176164Y7663202D01*
G01X-1176164Y7727876D01*
G01X-1026704Y7578415D01*
G03X-932562Y7548838I54789J9776D01*
G03X-962139Y7642980I-39353J39353D01*
G01X-1099663Y7780504D01*
G01X-1099663Y7809477D01*
G01X-914502Y7624316D01*
G03X-857961Y7578465I54789J9776D01*
G03X-804418Y7627784I-1752J55626D01*
G03X-717703Y7645785I36506J42008D01*
G03X-758137Y7724581I-50210J24007D01*
G01X-946661Y7913106D01*
G01X-946661Y8526603D01*
G03X-960033Y8558885I-45654J0D01*
G01X-1449639Y9048492D01*
G37*
G36*
G01X-2232703Y8102198D02*
G03X-2258357Y8127852I-25654J0D01*
G01X-2458357Y8127852D01*
G03X-2484011Y8102198I0J-25654D01*
G01X-2484011Y7942198D01*
G03X-2458357Y7916544I25654J0D01*
G01X-2258357Y7916544D01*
G03X-2232703Y7942198I0J25654D01*
G01X-2232703Y8102198D01*
G37*
G36*
G01X-1951128Y3370683D02*
G03X-1918845Y3384055I0J45654D01*
G01X-1915852Y3387049D01*
G03X-1882648Y3477195I-9776J54789D01*
G03X-1977504Y3461991I-42979J-35358D01*
G01X-2342604Y3461991D01*
G03X-2430087Y3416337I-31829J-45654D01*
G03X-2342604Y3370683I55654J0D01*
G01X-1951128Y3370683D01*
G37*
G36*
G01X-2137994Y10263841D02*
G03X-2349301Y10263841I-105654J0D01*
G03X-2137994Y10263841I105654J0D01*
G37*
G36*
G01X-1850032Y7286312D02*
G03X-1817750Y7272941I32282J32282D01*
G01X-1773078Y7272941D01*
G03X-1685595Y7318595I31829J45654D01*
G03X-1773078Y7364249I-55654J0D01*
G01X-1798840Y7364249D01*
G01X-2058765Y7624174D01*
G03X-2152907Y7653752I-54789J-9776D01*
G03X-2123330Y7559610I39353J-39353D01*
G01X-1850032Y7286312D01*
G37*
G36*
G01X-1888007Y10263841D02*
G03X-2099315Y10263841I-105654J0D01*
G03X-1888007Y10263841I105654J0D01*
G37*
G36*
G01X-1637995Y10263841D02*
G03X-1849302Y10263841I-105654J0D01*
G03X-1637995Y10263841I105654J0D01*
G37*
G36*
G01X-1388008Y10263841D02*
G03X-1599316Y10263841I-105654J0D01*
G03X-1388008Y10263841I105654J0D01*
G37*
G36*
G01X-399894Y2610570D02*
G01X-395201Y2604619D01*
G01X-391819Y2599404D01*
G01X-389407Y2594729D01*
G01X-387650Y2590299D01*
G01X-386383Y2586032D01*
G01X-384138Y2574763D01*
G01X-381981Y2562055D01*
G01X-381736Y2560802D01*
G01X-380220Y2553954D01*
G01X-379819Y2552380D01*
G01X-377748Y2545212D01*
G01X-377125Y2543329D01*
G01X-374287Y2535758D01*
G01X-373450Y2533780D01*
G01X-369634Y2525722D01*
G01X-368637Y2523825D01*
G01X-363630Y2515197D01*
G01X-362549Y2513494D01*
G01X-359465Y2509028D01*
G03X-274903Y2462969I84562J54594D01*
G01X-224903Y2462969D01*
G03X-224903Y2664277I0J100654D01*
G01X-242624Y2664277D01*
G01X-253455Y2668600D01*
G01X-254159Y2668869D01*
G01X-265377Y2672969D01*
G01X-270283Y2675018D01*
G01X-275159Y2677397D01*
G01X-280174Y2680304D01*
G01X-285553Y2684003D01*
G01X-291467Y2688780D01*
G01X-298335Y2695203D01*
G01X-420166Y2817035D01*
G01X-420166Y3486044D01*
G01X-355357Y3550853D01*
G03X-274903Y3510684I80453J60485D01*
G01X-224903Y3510684D01*
G03X-224903Y3711992I0J100654D01*
G01X-274903Y3711992D01*
G03X-291615Y3710595I0J-100654D01*
G01X-295061Y3710317D01*
G01X-296843Y3710110D01*
G01X-311556Y3707879D01*
G01X-312333Y3707748D01*
G01X-341229Y3702453D01*
G01X-354182Y3700612D01*
G01X-359622Y3700145D01*
G01X-365203Y3699967D01*
G03X-411168Y3680739I459J-65652D01*
G01X-532245Y3559663D01*
G03X-551474Y3513238I46424J-46424D01*
G01X-551474Y2789840D01*
G03X-532245Y2743415I65654J0D01*
G01X-406508Y2617678D01*
G01X-399894Y2610570D01*
G37*
G36*
G01X-301121Y9121828D02*
G01X-251121Y9121828D01*
G03X-251121Y9323136I0J100654D01*
G01X-301121Y9323136D01*
G03X-301121Y9121828I0J-100654D01*
G37*
G36*
G01X-150467Y8102198D02*
G03X-176121Y8127852I-25654J0D01*
G01X-376121Y8127852D01*
G03X-401775Y8102198I0J-25654D01*
G01X-401775Y7942198D01*
G03X-376121Y7916544I25654J0D01*
G01X-176121Y7916544D01*
G03X-150467Y7942198I0J25654D01*
G01X-150467Y8102198D01*
G37*
G36*
G01X-126376Y4221354D02*
G03X-152030Y4247008I-25654J0D01*
G01X-352030Y4247008D01*
G03X-377684Y4221354I0J-25654D01*
G01X-377684Y4071354D01*
G03X-352030Y4045700I25654J0D01*
G01X-152030Y4045700D01*
G03X-126376Y4071354I0J25654D01*
G01X-126376Y4221354D01*
G37*
G36*
G01X-277030Y4299700D02*
G01X-227030Y4299700D01*
G03X-227030Y4501008I0J100654D01*
G01X-277030Y4501008D01*
G03X-277030Y4299700I0J-100654D01*
G37*
G36*
G01X-277030Y4553700D02*
G01X-227030Y4553700D01*
G03X-227030Y4755008I0J100654D01*
G01X-277030Y4755008D01*
G03X-277030Y4553700I0J-100654D01*
G37*
G36*
G01X-274903Y3256684D02*
G01X-224903Y3256684D01*
G03X-224903Y3457992I0J100654D01*
G01X-274903Y3457992D01*
G03X-274903Y3256684I0J-100654D01*
G37*
G36*
G01X-274903Y2208969D02*
G01X-224903Y2208969D01*
G03X-224903Y2410277I0J100654D01*
G01X-274903Y2410277D01*
G03X-274903Y2208969I0J-100654D01*
G37*
%LPD*%
G36*
G01X-2474348Y4161994D02*
G03X-2480222Y4145222I48914J-26547D01*
G01X-2615818Y4009627D01*
G03X-2629190Y3977344I32282J-32282D01*
G01X-2629190Y3907172D01*
G03X-2638324Y3885119I45654J-31829D01*
G01X-2648347Y3875096D01*
G01X-3202304Y3875096D01*
G03X-3241869Y3955632I-49340J25747D01*
G01X-3416159Y4129922D01*
G03X-3434258Y4161994I-54789J-9776D01*
G01X-2474348Y4161994D01*
G37*
G04 Copper End*

G04 TearDrop Start*
G36*
G01X-4010484Y3829895D02*
G01X-3982200Y3801611D01*
G03X-4003413Y3737971I84853J-63639D01*
G01X-4074124Y3808682D01*
G03X-4010484Y3829895I0J106066D01*
G37*
G36*
G01X-4273572Y3820806D02*
G01X-4245288Y3792522D01*
G01X-4249535Y3787490D01*
G01X-4252583Y3782223D01*
G01X-4254643Y3776714D01*
G01X-4255927Y3770958D01*
G01X-4256644Y3764949D01*
G01X-4257005Y3758681D01*
G01X-4257506Y3745343D01*
G01X-4320752Y3808589D01*
G01X-4307414Y3809089D01*
G01X-4301145Y3809451D01*
G01X-4295136Y3810168D01*
G01X-4289380Y3811451D01*
G01X-4283872Y3813512D01*
G01X-4278604Y3816560D01*
G01X-4273572Y3820806D01*
G37*
G36*
G01X-9933438Y386444D02*
G01X-9893438Y386444D01*
G01X-9892764Y378638D01*
G01X-9890860Y370466D01*
G01X-9887901Y362153D01*
G01X-9884063Y353929D01*
G01X-9879522Y346018D01*
G01X-9874454Y338649D01*
G01X-9869034Y332049D01*
G01X-9863438Y326444D01*
G01X-9963438Y326444D01*
G01X-9957842Y332049D01*
G01X-9952422Y338649D01*
G01X-9947354Y346018D01*
G01X-9942813Y353929D01*
G01X-9938975Y362153D01*
G01X-9936016Y370466D01*
G01X-9934112Y378638D01*
G01X-9933438Y386444D01*
G37*
G36*
G01X-381047Y9354129D02*
G01X-386071Y9433958D01*
G01X-380241Y9440501D01*
G01X-375946Y9446812D01*
G01X-372967Y9452924D01*
G01X-371084Y9458870D01*
G01X-370079Y9464684D01*
G01X-369732Y9470398D01*
G01X-370136Y9481663D01*
G01X-370544Y9492931D01*
G01X-370201Y9498649D01*
G01X-369201Y9504468D01*
G01X-367325Y9510421D01*
G01X-364355Y9516542D01*
G01X-360070Y9522863D01*
G01X-354251Y9529417D01*
G01X-301121Y9401482D01*
G01X-307276Y9401210D01*
G01X-313197Y9400418D01*
G01X-318901Y9399141D01*
G01X-324405Y9397413D01*
G01X-329726Y9395268D01*
G01X-334881Y9392742D01*
G01X-344761Y9386684D01*
G01X-354182Y9379517D01*
G01X-363279Y9371517D01*
G01X-381047Y9354129D01*
G37*
G36*
G01X-451121Y9426482D02*
G01X-451121Y9526482D01*
G01X-437104Y9526763D01*
G01X-423246Y9527556D01*
G01X-409645Y9528789D01*
G01X-396400Y9530388D01*
G01X-371371Y9534392D01*
G01X-348948Y9538982D01*
G01X-329922Y9543572D01*
G01X-315083Y9547576D01*
G01X-301121Y9551482D01*
G01X-301121Y9401482D01*
G01X-315083Y9405388D01*
G01X-329922Y9409392D01*
G01X-348948Y9413982D01*
G01X-371371Y9418572D01*
G01X-396400Y9422576D01*
G01X-409645Y9424175D01*
G01X-423246Y9425408D01*
G01X-437104Y9426201D01*
G01X-451121Y9426482D01*
G37*
G36*
G01X-364744Y3594315D02*
G01X-364744Y3674315D01*
G01X-358115Y3674526D01*
G01X-351278Y3675113D01*
G01X-337110Y3677127D01*
G01X-307709Y3682515D01*
G01X-292996Y3684746D01*
G01X-278621Y3685907D01*
G01X-271642Y3685908D01*
G01X-264845Y3685426D01*
G01X-258262Y3684392D01*
G01X-251927Y3682732D01*
G01X-297880Y3539944D01*
G01X-304917Y3542730D01*
G01X-310762Y3546071D01*
G01X-315589Y3549864D01*
G01X-319572Y3554009D01*
G01X-322884Y3558404D01*
G01X-325700Y3562948D01*
G01X-330535Y3572080D01*
G01X-335467Y3580592D01*
G01X-338404Y3584363D01*
G01X-341886Y3587676D01*
G01X-346087Y3590428D01*
G01X-351182Y3592520D01*
G01X-357343Y3593849D01*
G01X-364744Y3594315D01*
G37*
G36*
G01X-11325046Y8667362D02*
G01X-11325046Y8767362D01*
G01X-11316902Y8766988D01*
G01X-11309566Y8766132D01*
G01X-11302859Y8765195D01*
G01X-11296604Y8764575D01*
G01X-11290623Y8764672D01*
G01X-11284738Y8765886D01*
G01X-11281776Y8767037D01*
G01X-11278772Y8768617D01*
G01X-11272546Y8773263D01*
G01X-11272546Y8661460D01*
G01X-11278772Y8666107D01*
G01X-11281776Y8667687D01*
G01X-11284738Y8668837D01*
G01X-11290623Y8670051D01*
G01X-11296604Y8670149D01*
G01X-11302859Y8669529D01*
G01X-11309566Y8668591D01*
G01X-11316902Y8667736D01*
G01X-11325046Y8667362D01*
G37*
G36*
G01X-11185423Y8825195D02*
G01X-11114712Y8754485D01*
G01X-11120735Y8748991D01*
G01X-11126528Y8744408D01*
G01X-11131933Y8740329D01*
G01X-11136794Y8736344D01*
G01X-11140955Y8732046D01*
G01X-11144257Y8727026D01*
G01X-11145538Y8724118D01*
G01X-11146546Y8720877D01*
G01X-11147662Y8713189D01*
G01X-11226719Y8792245D01*
G01X-11219031Y8793362D01*
G01X-11215789Y8794370D01*
G01X-11212881Y8795650D01*
G01X-11207862Y8798953D01*
G01X-11203564Y8803114D01*
G01X-11199579Y8807975D01*
G01X-11195500Y8813380D01*
G01X-11190917Y8819173D01*
G01X-11185423Y8825195D01*
G37*
G36*
G01X-11579046Y8667362D02*
G01X-11579046Y8767362D01*
G01X-11570902Y8766988D01*
G01X-11563566Y8766132D01*
G01X-11556859Y8765195D01*
G01X-11550604Y8764575D01*
G01X-11544623Y8764672D01*
G01X-11538738Y8765886D01*
G01X-11535776Y8767037D01*
G01X-11532772Y8768617D01*
G01X-11526546Y8773263D01*
G01X-11526546Y8661460D01*
G01X-11532772Y8666107D01*
G01X-11535776Y8667687D01*
G01X-11538738Y8668837D01*
G01X-11544623Y8670051D01*
G01X-11550604Y8670149D01*
G01X-11556859Y8669529D01*
G01X-11563566Y8668591D01*
G01X-11570902Y8667736D01*
G01X-11579046Y8667362D01*
G37*
G36*
G01X-11374046Y8767362D02*
G01X-11374046Y8667362D01*
G01X-11382190Y8667736D01*
G01X-11389526Y8668591D01*
G01X-11396233Y8669529D01*
G01X-11402488Y8670149D01*
G01X-11408469Y8670051D01*
G01X-11414354Y8668837D01*
G01X-11417316Y8667687D01*
G01X-11420320Y8666107D01*
G01X-11426546Y8661460D01*
G01X-11426546Y8773263D01*
G01X-11420320Y8768617D01*
G01X-11417316Y8767037D01*
G01X-11414354Y8765886D01*
G01X-11408469Y8764672D01*
G01X-11402488Y8764575D01*
G01X-11396233Y8765195D01*
G01X-11389526Y8766132D01*
G01X-11382190Y8766988D01*
G01X-11374046Y8767362D01*
G37*
G36*
G01X-11628046Y8767362D02*
G01X-11628046Y8667362D01*
G01X-11636190Y8667736D01*
G01X-11643526Y8668591D01*
G01X-11650233Y8669529D01*
G01X-11656488Y8670149D01*
G01X-11662469Y8670051D01*
G01X-11668354Y8668837D01*
G01X-11671316Y8667687D01*
G01X-11674320Y8666107D01*
G01X-11680546Y8661460D01*
G01X-11680546Y8773263D01*
G01X-11674320Y8768617D01*
G01X-11671316Y8767037D01*
G01X-11668354Y8765886D01*
G01X-11662469Y8764672D01*
G01X-11656488Y8764575D01*
G01X-11650233Y8765195D01*
G01X-11643526Y8766132D01*
G01X-11636190Y8766988D01*
G01X-11628046Y8767362D01*
G37*
G36*
G01X-11897926Y8659026D02*
G01X-11926210Y8630741D01*
G01X-11929754Y8633994D01*
G01X-11933260Y8636651D01*
G01X-11936745Y8638766D01*
G01X-11940229Y8640397D01*
G01X-11943730Y8641599D01*
G01X-11947267Y8642427D01*
G01X-11954523Y8643188D01*
G01X-11962147Y8643126D01*
G01X-11970288Y8642690D01*
G01X-11979095Y8642325D01*
G01X-11988719Y8642478D01*
G01X-11909662Y8721535D01*
G01X-11909509Y8711911D01*
G01X-11909874Y8703103D01*
G01X-11910311Y8694962D01*
G01X-11910372Y8687338D01*
G01X-11909611Y8680082D01*
G01X-11908783Y8676545D01*
G01X-11907581Y8673044D01*
G01X-11905951Y8669561D01*
G01X-11903835Y8666075D01*
G01X-11901179Y8662570D01*
G01X-11897926Y8659026D01*
G37*
G36*
G01X-10410546Y9894862D02*
G01X-10510546Y9894862D01*
G01X-10510172Y9903006D01*
G01X-10509317Y9910342D01*
G01X-10508379Y9917049D01*
G01X-10507759Y9923304D01*
G01X-10507856Y9929285D01*
G01X-10509071Y9935170D01*
G01X-10510221Y9938132D01*
G01X-10511801Y9941136D01*
G01X-10516448Y9947362D01*
G01X-10404644Y9947362D01*
G01X-10409291Y9941136D01*
G01X-10410871Y9938132D01*
G01X-10412021Y9935170D01*
G01X-10413236Y9929285D01*
G01X-10413333Y9923304D01*
G01X-10412713Y9917049D01*
G01X-10411776Y9910342D01*
G01X-10410920Y9903006D01*
G01X-10410546Y9894862D01*
G37*
G36*
G01X-10716314Y9881344D02*
G01X-10815207Y9923871D01*
G01X-10808238Y9929828D01*
G01X-10801036Y9934645D01*
G01X-10794126Y9938780D01*
G01X-10788032Y9942690D01*
G01X-10783279Y9946832D01*
G01X-10781569Y9949133D01*
G01X-10780391Y9951663D01*
G01X-10779811Y9954480D01*
G01X-10779893Y9957640D01*
G01X-10780704Y9961201D01*
G01X-10782309Y9965219D01*
G01X-10679536Y9931035D01*
G01X-10683077Y9928909D01*
G01X-10686216Y9926519D01*
G01X-10691487Y9921060D01*
G01X-10695757Y9914888D01*
G01X-10699432Y9908232D01*
G01X-10706623Y9894383D01*
G01X-10710953Y9887648D01*
G01X-10716314Y9881344D01*
G37*
G36*
G01X-10918546Y9896431D02*
G01X-11018546Y9896431D01*
G01X-11018194Y9904306D01*
G01X-11017390Y9911417D01*
G01X-11016517Y9917931D01*
G01X-11015955Y9924013D01*
G01X-11016086Y9929831D01*
G01X-11017291Y9935551D01*
G01X-11019951Y9941339D01*
G01X-11024448Y9947362D01*
G01X-10912644Y9947362D01*
G01X-10917141Y9941339D01*
G01X-10919801Y9935551D01*
G01X-10921006Y9929831D01*
G01X-10921137Y9924013D01*
G01X-10920575Y9917931D01*
G01X-10919702Y9911417D01*
G01X-10918899Y9904306D01*
G01X-10918546Y9896431D01*
G37*
G36*
G01X-11172546Y9894862D02*
G01X-11272546Y9894862D01*
G01X-11272172Y9903006D01*
G01X-11271317Y9910342D01*
G01X-11270379Y9917049D01*
G01X-11269759Y9923304D01*
G01X-11269856Y9929285D01*
G01X-11271071Y9935170D01*
G01X-11272221Y9938132D01*
G01X-11273801Y9941136D01*
G01X-11278448Y9947362D01*
G01X-11166644Y9947362D01*
G01X-11171291Y9941136D01*
G01X-11172871Y9938132D01*
G01X-11174021Y9935170D01*
G01X-11175236Y9929285D01*
G01X-11175333Y9923304D01*
G01X-11174713Y9917049D01*
G01X-11173776Y9910342D01*
G01X-11172920Y9903006D01*
G01X-11172546Y9894862D01*
G37*
G36*
G01X-12870272Y8933496D02*
G01X-12870272Y8833496D01*
G03X-13020272Y8808496I0J-462501D01*
G01X-13020272Y8958496D01*
G03X-12870272Y8933496I150000J437501D01*
G37*
G36*
G01X-12945272Y8679496D02*
G01X-12945272Y8579496D01*
G01X-12959288Y8579215D01*
G01X-12973146Y8578422D01*
G01X-12986748Y8577189D01*
G01X-12999993Y8575590D01*
G01X-13025022Y8571586D01*
G01X-13047445Y8566996D01*
G01X-13066470Y8562406D01*
G01X-13081310Y8558402D01*
G01X-13095272Y8554496D01*
G01X-13095272Y8704496D01*
G01X-13081310Y8700590D01*
G01X-13066470Y8696586D01*
G01X-13047445Y8691996D01*
G01X-13025022Y8687406D01*
G01X-12999993Y8683402D01*
G01X-12986748Y8681803D01*
G01X-12973146Y8680570D01*
G01X-12959288Y8679777D01*
G01X-12945272Y8679496D01*
G37*
G36*
G01X-12945272Y8425496D02*
G01X-12945272Y8325496D01*
G01X-12959288Y8325215D01*
G01X-12973146Y8324422D01*
G01X-12986748Y8323189D01*
G01X-12999993Y8321590D01*
G01X-13025022Y8317586D01*
G01X-13047445Y8312996D01*
G01X-13066470Y8308406D01*
G01X-13081310Y8304402D01*
G01X-13095272Y8300496D01*
G01X-13095272Y8450496D01*
G01X-13081310Y8446590D01*
G01X-13066470Y8442586D01*
G01X-13047445Y8437996D01*
G01X-13025022Y8433406D01*
G01X-12999993Y8429402D01*
G01X-12986748Y8427803D01*
G01X-12973146Y8426570D01*
G01X-12959288Y8425777D01*
G01X-12945272Y8425496D01*
G37*
G36*
G01X-12945272Y8171496D02*
G01X-12945272Y8071496D01*
G01X-12959288Y8071215D01*
G01X-12973146Y8070422D01*
G01X-12986748Y8069189D01*
G01X-12999993Y8067590D01*
G01X-13025022Y8063586D01*
G01X-13047445Y8058996D01*
G01X-13066470Y8054406D01*
G01X-13081310Y8050402D01*
G01X-13095272Y8046496D01*
G01X-13095272Y8196496D01*
G01X-13081310Y8192590D01*
G01X-13066470Y8188586D01*
G01X-13047445Y8183996D01*
G01X-13025022Y8179406D01*
G01X-12999993Y8175402D01*
G01X-12986748Y8173803D01*
G01X-12973146Y8172570D01*
G01X-12959288Y8171777D01*
G01X-12945272Y8171496D01*
G37*
G36*
G01X-11325046Y6975662D02*
G01X-11325046Y7075662D01*
G01X-11316902Y7075288D01*
G01X-11309566Y7074432D01*
G01X-11302859Y7073495D01*
G01X-11296604Y7072875D01*
G01X-11290623Y7072972D01*
G01X-11284738Y7074186D01*
G01X-11281776Y7075337D01*
G01X-11278772Y7076917D01*
G01X-11272546Y7081563D01*
G01X-11272546Y6969760D01*
G01X-11278772Y6974407D01*
G01X-11281776Y6975987D01*
G01X-11284738Y6977137D01*
G01X-11290623Y6978351D01*
G01X-11296604Y6978449D01*
G01X-11302859Y6977829D01*
G01X-11309566Y6976891D01*
G01X-11316902Y6976036D01*
G01X-11325046Y6975662D01*
G37*
G36*
G01X-11579046Y6975662D02*
G01X-11579046Y7075662D01*
G01X-11570902Y7075288D01*
G01X-11563566Y7074432D01*
G01X-11556859Y7073495D01*
G01X-11550604Y7072875D01*
G01X-11544623Y7072972D01*
G01X-11538738Y7074186D01*
G01X-11535776Y7075337D01*
G01X-11532772Y7076917D01*
G01X-11526546Y7081563D01*
G01X-11526546Y6969760D01*
G01X-11532772Y6974407D01*
G01X-11535776Y6975987D01*
G01X-11538738Y6977137D01*
G01X-11544623Y6978351D01*
G01X-11550604Y6978449D01*
G01X-11556859Y6977829D01*
G01X-11563566Y6976891D01*
G01X-11570902Y6976036D01*
G01X-11579046Y6975662D01*
G37*
G36*
G01X-11374046Y7075662D02*
G01X-11374046Y6975662D01*
G01X-11382190Y6976036D01*
G01X-11389526Y6976891D01*
G01X-11396233Y6977829D01*
G01X-11402488Y6978449D01*
G01X-11408469Y6978351D01*
G01X-11414354Y6977137D01*
G01X-11417316Y6975987D01*
G01X-11420320Y6974407D01*
G01X-11426546Y6969760D01*
G01X-11426546Y7081563D01*
G01X-11420320Y7076917D01*
G01X-11417316Y7075337D01*
G01X-11414354Y7074186D01*
G01X-11408469Y7072972D01*
G01X-11402488Y7072875D01*
G01X-11396233Y7073495D01*
G01X-11389526Y7074432D01*
G01X-11382190Y7075288D01*
G01X-11374046Y7075662D01*
G37*
G36*
G01X-11628046Y7075662D02*
G01X-11628046Y6975662D01*
G01X-11636190Y6976036D01*
G01X-11643526Y6976891D01*
G01X-11650233Y6977829D01*
G01X-11656488Y6978449D01*
G01X-11662469Y6978351D01*
G01X-11668354Y6977137D01*
G01X-11671316Y6975987D01*
G01X-11674320Y6974407D01*
G01X-11680546Y6969760D01*
G01X-11680546Y7081563D01*
G01X-11674320Y7076917D01*
G01X-11671316Y7075337D01*
G01X-11668354Y7074186D01*
G01X-11662469Y7072972D01*
G01X-11656488Y7072875D01*
G01X-11650233Y7073495D01*
G01X-11643526Y7074432D01*
G01X-11636190Y7075288D01*
G01X-11628046Y7075662D01*
G37*
G36*
G01X-11897926Y6967326D02*
G01X-11926210Y6939041D01*
G01X-11929754Y6942294D01*
G01X-11933260Y6944951D01*
G01X-11936745Y6947066D01*
G01X-11940229Y6948697D01*
G01X-11943730Y6949899D01*
G01X-11947267Y6950727D01*
G01X-11954523Y6951488D01*
G01X-11962147Y6951426D01*
G01X-11970288Y6950990D01*
G01X-11979095Y6950625D01*
G01X-11988719Y6950778D01*
G01X-11909662Y7029835D01*
G01X-11909509Y7020211D01*
G01X-11909874Y7011403D01*
G01X-11910311Y7003262D01*
G01X-11910372Y6995639D01*
G01X-11909611Y6988382D01*
G01X-11908783Y6984845D01*
G01X-11907581Y6981344D01*
G01X-11905951Y6977861D01*
G01X-11903835Y6974375D01*
G01X-11901179Y6970870D01*
G01X-11897926Y6967326D01*
G37*
G36*
G01X-10664546Y8203162D02*
G01X-10764546Y8203162D01*
G01X-10764172Y8211306D01*
G01X-10763317Y8218642D01*
G01X-10762379Y8225349D01*
G01X-10761759Y8231604D01*
G01X-10761856Y8237585D01*
G01X-10763071Y8243469D01*
G01X-10764221Y8246431D01*
G01X-10765801Y8249436D01*
G01X-10770448Y8255662D01*
G01X-10658644Y8255662D01*
G01X-10663291Y8249436D01*
G01X-10664871Y8246431D01*
G01X-10666021Y8243469D01*
G01X-10667236Y8237585D01*
G01X-10667333Y8231604D01*
G01X-10666713Y8225349D01*
G01X-10665776Y8218642D01*
G01X-10664920Y8211306D01*
G01X-10664546Y8203162D01*
G37*
G36*
G01X-10918546Y8203162D02*
G01X-11018546Y8203162D01*
G01X-11018172Y8211306D01*
G01X-11017317Y8218642D01*
G01X-11016379Y8225349D01*
G01X-11015759Y8231604D01*
G01X-11015856Y8237585D01*
G01X-11017071Y8243469D01*
G01X-11018221Y8246431D01*
G01X-11019801Y8249436D01*
G01X-11024448Y8255662D01*
G01X-10912644Y8255662D01*
G01X-10917291Y8249436D01*
G01X-10918871Y8246431D01*
G01X-10920021Y8243469D01*
G01X-10921236Y8237585D01*
G01X-10921333Y8231604D01*
G01X-10920713Y8225349D01*
G01X-10919776Y8218642D01*
G01X-10918920Y8211306D01*
G01X-10918546Y8203162D01*
G37*
G36*
G01X-11259669Y8197828D02*
G01X-11330380Y8268539D01*
G01X-11324357Y8274033D01*
G01X-11318564Y8278615D01*
G01X-11313159Y8282695D01*
G01X-11308298Y8286679D01*
G01X-11304137Y8290977D01*
G01X-11300835Y8295997D01*
G01X-11299554Y8298905D01*
G01X-11298547Y8302147D01*
G01X-11297430Y8309835D01*
G01X-11218373Y8230778D01*
G01X-11226061Y8229661D01*
G01X-11229303Y8228654D01*
G01X-11232211Y8227373D01*
G01X-11237230Y8224070D01*
G01X-11241528Y8219910D01*
G01X-11245513Y8215049D01*
G01X-11249592Y8209644D01*
G01X-11254175Y8203851D01*
G01X-11259669Y8197828D01*
G37*
G36*
G01X-11513669Y8197828D02*
G01X-11584380Y8268539D01*
G01X-11578357Y8274033D01*
G01X-11572564Y8278615D01*
G01X-11567159Y8282695D01*
G01X-11562298Y8286679D01*
G01X-11558137Y8290977D01*
G01X-11554835Y8295997D01*
G01X-11553554Y8298905D01*
G01X-11552547Y8302147D01*
G01X-11551430Y8309835D01*
G01X-11472373Y8230778D01*
G01X-11480061Y8229661D01*
G01X-11483303Y8228654D01*
G01X-11486211Y8227373D01*
G01X-11491230Y8224070D01*
G01X-11495528Y8219910D01*
G01X-11499513Y8215049D01*
G01X-11503592Y8209644D01*
G01X-11508175Y8203851D01*
G01X-11513669Y8197828D01*
G37*
G36*
G01X-11325046Y5283962D02*
G01X-11325046Y5383962D01*
G01X-11316902Y5383588D01*
G01X-11309566Y5382732D01*
G01X-11302859Y5381795D01*
G01X-11296604Y5381175D01*
G01X-11290623Y5381272D01*
G01X-11284738Y5382486D01*
G01X-11281776Y5383637D01*
G01X-11278772Y5385217D01*
G01X-11272546Y5389863D01*
G01X-11272546Y5278060D01*
G01X-11278772Y5282707D01*
G01X-11281776Y5284287D01*
G01X-11284738Y5285437D01*
G01X-11290623Y5286651D01*
G01X-11296604Y5286749D01*
G01X-11302859Y5286129D01*
G01X-11309566Y5285191D01*
G01X-11316902Y5284336D01*
G01X-11325046Y5283962D01*
G37*
G36*
G01X-11185423Y5441796D02*
G01X-11114712Y5371085D01*
G01X-11120735Y5365591D01*
G01X-11126528Y5361008D01*
G01X-11131933Y5356929D01*
G01X-11136794Y5352944D01*
G01X-11140955Y5348646D01*
G01X-11144257Y5343627D01*
G01X-11145538Y5340718D01*
G01X-11146546Y5337477D01*
G01X-11147662Y5329789D01*
G01X-11226719Y5408846D01*
G01X-11219031Y5409962D01*
G01X-11215789Y5410970D01*
G01X-11212881Y5412251D01*
G01X-11207862Y5415553D01*
G01X-11203564Y5419714D01*
G01X-11199579Y5424575D01*
G01X-11195500Y5429980D01*
G01X-11190917Y5435773D01*
G01X-11185423Y5441796D01*
G37*
G36*
G01X-11579046Y5283962D02*
G01X-11579046Y5383962D01*
G01X-11570902Y5383588D01*
G01X-11563566Y5382732D01*
G01X-11556859Y5381795D01*
G01X-11550604Y5381175D01*
G01X-11544623Y5381272D01*
G01X-11538738Y5382486D01*
G01X-11535776Y5383637D01*
G01X-11532772Y5385217D01*
G01X-11526546Y5389863D01*
G01X-11526546Y5278060D01*
G01X-11532772Y5282707D01*
G01X-11535776Y5284287D01*
G01X-11538738Y5285437D01*
G01X-11544623Y5286651D01*
G01X-11550604Y5286749D01*
G01X-11556859Y5286129D01*
G01X-11563566Y5285191D01*
G01X-11570902Y5284336D01*
G01X-11579046Y5283962D01*
G37*
G36*
G01X-11374046Y5383962D02*
G01X-11374046Y5283962D01*
G01X-11382190Y5284336D01*
G01X-11389526Y5285191D01*
G01X-11396233Y5286129D01*
G01X-11402488Y5286749D01*
G01X-11408469Y5286651D01*
G01X-11414354Y5285437D01*
G01X-11417316Y5284287D01*
G01X-11420320Y5282707D01*
G01X-11426546Y5278060D01*
G01X-11426546Y5389863D01*
G01X-11420320Y5385217D01*
G01X-11417316Y5383637D01*
G01X-11414354Y5382486D01*
G01X-11408469Y5381272D01*
G01X-11402488Y5381175D01*
G01X-11396233Y5381795D01*
G01X-11389526Y5382732D01*
G01X-11382190Y5383588D01*
G01X-11374046Y5383962D01*
G37*
G36*
G01X-11628046Y5383962D02*
G01X-11628046Y5283962D01*
G01X-11636190Y5284336D01*
G01X-11643526Y5285191D01*
G01X-11650233Y5286129D01*
G01X-11656488Y5286749D01*
G01X-11662469Y5286651D01*
G01X-11668354Y5285437D01*
G01X-11671316Y5284287D01*
G01X-11674320Y5282707D01*
G01X-11680546Y5278060D01*
G01X-11680546Y5389863D01*
G01X-11674320Y5385217D01*
G01X-11671316Y5383637D01*
G01X-11668354Y5382486D01*
G01X-11662469Y5381272D01*
G01X-11656488Y5381175D01*
G01X-11650233Y5381795D01*
G01X-11643526Y5382732D01*
G01X-11636190Y5383588D01*
G01X-11628046Y5383962D01*
G37*
G36*
G01X-10664546Y6526962D02*
G01X-10764546Y6526962D01*
G01X-10764172Y6535106D01*
G01X-10763317Y6542442D01*
G01X-10762379Y6549149D01*
G01X-10761759Y6555404D01*
G01X-10761856Y6561385D01*
G01X-10763071Y6567270D01*
G01X-10764221Y6570232D01*
G01X-10765801Y6573236D01*
G01X-10770448Y6579462D01*
G01X-10658644Y6579462D01*
G01X-10663291Y6573236D01*
G01X-10664871Y6570232D01*
G01X-10666021Y6567270D01*
G01X-10667236Y6561385D01*
G01X-10667333Y6555404D01*
G01X-10666713Y6549149D01*
G01X-10665776Y6542442D01*
G01X-10664920Y6535106D01*
G01X-10664546Y6526962D01*
G37*
G36*
G01X-10918546Y6526962D02*
G01X-11018546Y6526962D01*
G01X-11018172Y6535106D01*
G01X-11017317Y6542442D01*
G01X-11016379Y6549149D01*
G01X-11015759Y6555404D01*
G01X-11015856Y6561385D01*
G01X-11017071Y6567270D01*
G01X-11018221Y6570232D01*
G01X-11019801Y6573236D01*
G01X-11024448Y6579462D01*
G01X-10912644Y6579462D01*
G01X-10917291Y6573236D01*
G01X-10918871Y6570232D01*
G01X-10920021Y6567270D01*
G01X-10921236Y6561385D01*
G01X-10921333Y6555404D01*
G01X-10920713Y6549149D01*
G01X-10919776Y6542442D01*
G01X-10918920Y6535106D01*
G01X-10918546Y6526962D01*
G37*
G36*
G01X-11172546Y6526962D02*
G01X-11272546Y6526962D01*
G01X-11272172Y6535106D01*
G01X-11271317Y6542442D01*
G01X-11270379Y6549149D01*
G01X-11269759Y6555404D01*
G01X-11269856Y6561385D01*
G01X-11271071Y6567270D01*
G01X-11272221Y6570232D01*
G01X-11273801Y6573236D01*
G01X-11278448Y6579462D01*
G01X-11166644Y6579462D01*
G01X-11171291Y6573236D01*
G01X-11172871Y6570232D01*
G01X-11174021Y6567270D01*
G01X-11175236Y6561385D01*
G01X-11175333Y6555404D01*
G01X-11174713Y6549149D01*
G01X-11173776Y6542442D01*
G01X-11172920Y6535106D01*
G01X-11172546Y6526962D01*
G37*
G36*
G01X-11426546Y6526962D02*
G01X-11526546Y6526962D01*
G01X-11526172Y6535106D01*
G01X-11525317Y6542442D01*
G01X-11524379Y6549149D01*
G01X-11523759Y6555404D01*
G01X-11523856Y6561385D01*
G01X-11525071Y6567270D01*
G01X-11526221Y6570232D01*
G01X-11527801Y6573236D01*
G01X-11532448Y6579462D01*
G01X-11420644Y6579462D01*
G01X-11425291Y6573236D01*
G01X-11426871Y6570232D01*
G01X-11428021Y6567270D01*
G01X-11429236Y6561385D01*
G01X-11429333Y6555404D01*
G01X-11428713Y6549149D01*
G01X-11427776Y6542442D01*
G01X-11426920Y6535106D01*
G01X-11426546Y6526962D01*
G37*
G36*
G01X-12870272Y7615185D02*
G01X-12870272Y7515185D01*
G03X-13020272Y7490185I0J-462501D01*
G01X-13020272Y7640185D01*
G03X-12870272Y7615185I150000J437501D01*
G37*
G36*
G01X-12945272Y7361185D02*
G01X-12945272Y7261185D01*
G01X-12959288Y7260904D01*
G01X-12973146Y7260111D01*
G01X-12986748Y7258878D01*
G01X-12999993Y7257278D01*
G01X-13025022Y7253275D01*
G01X-13047445Y7248685D01*
G01X-13066470Y7244095D01*
G01X-13081310Y7240091D01*
G01X-13095272Y7236185D01*
G01X-13095272Y7386185D01*
G01X-13081310Y7382279D01*
G01X-13066470Y7378275D01*
G01X-13047445Y7373685D01*
G01X-13025022Y7369095D01*
G01X-12999993Y7365091D01*
G01X-12986748Y7363492D01*
G01X-12973146Y7362259D01*
G01X-12959288Y7361466D01*
G01X-12945272Y7361185D01*
G37*
G36*
G01X-12945272Y7107185D02*
G01X-12945272Y7007185D01*
G01X-12959288Y7006904D01*
G01X-12973146Y7006111D01*
G01X-12986748Y7004878D01*
G01X-12999993Y7003278D01*
G01X-13025022Y6999275D01*
G01X-13047445Y6994685D01*
G01X-13066470Y6990095D01*
G01X-13081310Y6986091D01*
G01X-13095272Y6982185D01*
G01X-13095272Y7132185D01*
G01X-13081310Y7128279D01*
G01X-13066470Y7124275D01*
G01X-13047445Y7119685D01*
G01X-13025022Y7115095D01*
G01X-12999993Y7111091D01*
G01X-12986748Y7109492D01*
G01X-12973146Y7108259D01*
G01X-12959288Y7107466D01*
G01X-12945272Y7107185D01*
G37*
G36*
G01X-12945272Y6853185D02*
G01X-12945272Y6753185D01*
G01X-12959288Y6752904D01*
G01X-12973146Y6752111D01*
G01X-12986748Y6750878D01*
G01X-12999993Y6749278D01*
G01X-13025022Y6745275D01*
G01X-13047445Y6740685D01*
G01X-13066470Y6736095D01*
G01X-13081310Y6732091D01*
G01X-13095272Y6728185D01*
G01X-13095272Y6878185D01*
G01X-13081310Y6874279D01*
G01X-13066470Y6870275D01*
G01X-13047445Y6865685D01*
G01X-13025022Y6861095D01*
G01X-12999993Y6857091D01*
G01X-12986748Y6855492D01*
G01X-12973146Y6854259D01*
G01X-12959288Y6853466D01*
G01X-12945272Y6853185D01*
G37*
G36*
G01X-12870272Y6296874D02*
G01X-12870272Y6196874D01*
G03X-13020272Y6171874I0J-462501D01*
G01X-13020272Y6321874D01*
G03X-12870272Y6296874I150000J437501D01*
G37*
G36*
G01X-12945272Y6042874D02*
G01X-12945272Y5942874D01*
G01X-12959288Y5942593D01*
G01X-12973146Y5941799D01*
G01X-12986748Y5940567D01*
G01X-12999993Y5938967D01*
G01X-13025022Y5934964D01*
G01X-13047445Y5930374D01*
G01X-13066470Y5925784D01*
G01X-13081310Y5921780D01*
G01X-13095272Y5917874D01*
G01X-13095272Y6067874D01*
G01X-13081310Y6063967D01*
G01X-13066470Y6059964D01*
G01X-13047445Y6055374D01*
G01X-13025022Y6050784D01*
G01X-12999993Y6046780D01*
G01X-12986748Y6045181D01*
G01X-12973146Y6043948D01*
G01X-12959288Y6043155D01*
G01X-12945272Y6042874D01*
G37*
G36*
G01X-12945272Y5788874D02*
G01X-12945272Y5688874D01*
G01X-12959288Y5688593D01*
G01X-12973146Y5687799D01*
G01X-12986748Y5686567D01*
G01X-12999993Y5684967D01*
G01X-13025022Y5680964D01*
G01X-13047445Y5676374D01*
G01X-13066470Y5671784D01*
G01X-13081310Y5667780D01*
G01X-13095272Y5663874D01*
G01X-13095272Y5813874D01*
G01X-13081310Y5809967D01*
G01X-13066470Y5805964D01*
G01X-13047445Y5801374D01*
G01X-13025022Y5796784D01*
G01X-12999993Y5792780D01*
G01X-12986748Y5791181D01*
G01X-12973146Y5789948D01*
G01X-12959288Y5789155D01*
G01X-12945272Y5788874D01*
G37*
G36*
G01X-12945272Y5534874D02*
G01X-12945272Y5434874D01*
G01X-12959288Y5434593D01*
G01X-12973146Y5433799D01*
G01X-12986748Y5432567D01*
G01X-12999993Y5430967D01*
G01X-13025022Y5426964D01*
G01X-13047445Y5422374D01*
G01X-13066470Y5417784D01*
G01X-13081310Y5413780D01*
G01X-13095272Y5409874D01*
G01X-13095272Y5559874D01*
G01X-13081310Y5555967D01*
G01X-13066470Y5551964D01*
G01X-13047445Y5547374D01*
G01X-13025022Y5542784D01*
G01X-12999993Y5538780D01*
G01X-12986748Y5537181D01*
G01X-12973146Y5535948D01*
G01X-12959288Y5535155D01*
G01X-12945272Y5534874D01*
G37*
G36*
G01X-388041Y2635491D02*
G01X-316172Y2676760D01*
G01X-308311Y2669408D01*
G01X-300903Y2663425D01*
G01X-293894Y2658605D01*
G01X-287231Y2654743D01*
G01X-280860Y2651634D01*
G01X-274728Y2649073D01*
G01X-262966Y2644774D01*
G01X-251517Y2640204D01*
G01X-245777Y2637304D01*
G01X-239954Y2633721D01*
G01X-233996Y2629250D01*
G01X-227849Y2623684D01*
G01X-221460Y2616820D01*
G01X-214775Y2608451D01*
G01X-335032Y2518794D01*
G01X-341442Y2528074D01*
G01X-346448Y2536701D01*
G01X-350264Y2544759D01*
G01X-353102Y2552331D01*
G01X-355172Y2559500D01*
G01X-356689Y2566348D01*
G01X-358907Y2579417D01*
G01X-361454Y2592201D01*
G01X-363381Y2598694D01*
G01X-366027Y2605365D01*
G01X-369604Y2612297D01*
G01X-374323Y2619574D01*
G01X-380398Y2627278D01*
G01X-388041Y2635491D01*
G37*
G36*
G01X-10982269Y380494D02*
G01X-10952269Y380494D01*
G01X-10951870Y374294D01*
G01X-10950702Y367836D01*
G01X-10948804Y361333D01*
G01X-10946216Y354993D01*
G01X-10942979Y349029D01*
G01X-10939132Y343651D01*
G01X-10934715Y339069D01*
G01X-10929769Y335494D01*
G01X-11004769Y335494D01*
G01X-10999822Y339069D01*
G01X-10995406Y343651D01*
G01X-10991558Y349029D01*
G01X-10988321Y354993D01*
G01X-10985733Y361333D01*
G01X-10983835Y367836D01*
G01X-10982667Y374294D01*
G01X-10982269Y380494D01*
G37*
G36*
G01X-9906052Y10492999D02*
G01X-9966052Y10492999D01*
G01X-9966556Y10501748D01*
G01X-9967982Y10509248D01*
G01X-9970197Y10515676D01*
G01X-9973070Y10521212D01*
G01X-9976470Y10526034D01*
G01X-9980266Y10530320D01*
G01X-9988517Y10537999D01*
G01X-9996773Y10545679D01*
G01X-10000574Y10549965D01*
G01X-10003982Y10554787D01*
G01X-10006865Y10560322D01*
G01X-10009092Y10566751D01*
G01X-10010531Y10574250D01*
G01X-10011052Y10582999D01*
G01X-9861052Y10582999D01*
G01X-9861573Y10574250D01*
G01X-9863012Y10566751D01*
G01X-9865239Y10560322D01*
G01X-9868122Y10554787D01*
G01X-9871530Y10549965D01*
G01X-9875331Y10545679D01*
G01X-9883587Y10537999D01*
G01X-9891838Y10530320D01*
G01X-9895634Y10526034D01*
G01X-9899034Y10521212D01*
G01X-9901907Y10515676D01*
G01X-9904122Y10509248D01*
G01X-9905548Y10501748D01*
G01X-9906052Y10492999D01*
G37*
G36*
G01X-10067699Y10503211D02*
G01X-10147528Y10498187D01*
G01X-10154071Y10504017D01*
G01X-10160382Y10508312D01*
G01X-10166494Y10511291D01*
G01X-10172440Y10513174D01*
G01X-10178254Y10514179D01*
G01X-10183968Y10514526D01*
G01X-10195233Y10514121D01*
G01X-10206501Y10513714D01*
G01X-10212220Y10514057D01*
G01X-10218039Y10515057D01*
G01X-10223992Y10516933D01*
G01X-10230112Y10519903D01*
G01X-10236433Y10524188D01*
G01X-10242987Y10530007D01*
G01X-10115052Y10583137D01*
G01X-10114780Y10576982D01*
G01X-10113988Y10571061D01*
G01X-10112711Y10565356D01*
G01X-10110983Y10559852D01*
G01X-10108838Y10554531D01*
G01X-10106312Y10549376D01*
G01X-10100254Y10539496D01*
G01X-10093087Y10530076D01*
G01X-10085087Y10520979D01*
G01X-10067699Y10503211D01*
G37*
G36*
G01X-4256985Y6159645D02*
G01X-4296985Y6154286D01*
G01X-4297241Y6159959D01*
G01X-4297985Y6165062D01*
G01X-4299185Y6169662D01*
G01X-4300809Y6173824D01*
G01X-4302824Y6177616D01*
G01X-4305198Y6181102D01*
G01X-4310891Y6187426D01*
G01X-4317626Y6193327D01*
G01X-4325143Y6199333D01*
G01X-4333182Y6205976D01*
G01X-4341482Y6213786D01*
G01X-4214885Y6219145D01*
G01X-4222738Y6210588D01*
G01X-4230344Y6203697D01*
G01X-4237457Y6197798D01*
G01X-4243829Y6192220D01*
G01X-4249215Y6186289D01*
G01X-4251461Y6182981D01*
G01X-4253367Y6179331D01*
G01X-4254904Y6175257D01*
G01X-4256040Y6170675D01*
G01X-4256744Y6165498D01*
G01X-4256985Y6159645D01*
G37*
G36*
G01X-3631204Y6247274D02*
G01X-3667273Y6207274D01*
G01X-3678193Y6206682D01*
G01X-3689614Y6205082D01*
G01X-3701363Y6202740D01*
G01X-3713268Y6199921D01*
G01X-3736853Y6193912D01*
G01X-3748189Y6191252D01*
G01X-3758989Y6189175D01*
G01X-3690704Y6295911D01*
G01X-3689196Y6291357D01*
G01X-3687236Y6286839D01*
G01X-3684858Y6282392D01*
G01X-3682097Y6278052D01*
G01X-3675555Y6269835D01*
G01X-3667879Y6262473D01*
G01X-3659337Y6256251D01*
G01X-3654825Y6253656D01*
G01X-3650198Y6251454D01*
G01X-3645489Y6249679D01*
G01X-3640731Y6248366D01*
G01X-3635958Y6247553D01*
G01X-3631204Y6247274D01*
G37*
G36*
G01X-9344806Y6037706D02*
G01X-9316521Y6009421D01*
G01X-9321421Y6003569D01*
G01X-9325866Y5996431D01*
G01X-9329762Y5988350D01*
G01X-9333016Y5979668D01*
G01X-9335534Y5970728D01*
G01X-9337223Y5961872D01*
G01X-9337988Y5953443D01*
G01X-9337735Y5945782D01*
G01X-9408445Y6016493D01*
G01X-9400784Y6016240D01*
G01X-9392355Y6017004D01*
G01X-9383499Y6018693D01*
G01X-9374559Y6021211D01*
G01X-9365877Y6024465D01*
G01X-9357796Y6028362D01*
G01X-9350658Y6032806D01*
G01X-9344806Y6037706D01*
G37*
G36*
G01X-5581199Y849270D02*
G01X-5541199Y815139D01*
G01X-5540948Y811826D01*
G01X-5540234Y808399D01*
G01X-5537626Y801282D01*
G01X-5533809Y793939D01*
G01X-5529213Y786521D01*
G01X-5519418Y772070D01*
G01X-5515082Y765339D01*
G01X-5511696Y759139D01*
G01X-5625965Y793270D01*
G01X-5617615Y798546D01*
G01X-5609527Y804126D01*
G01X-5601964Y810105D01*
G01X-5595188Y816575D01*
G01X-5589461Y823633D01*
G01X-5587073Y827411D01*
G01X-5585046Y831372D01*
G01X-5583412Y835526D01*
G01X-5582204Y839886D01*
G01X-5581455Y844463D01*
G01X-5581199Y849270D01*
G37*
G36*
G01X-3731250Y3865543D02*
G01X-3731250Y3905543D01*
G01X-3725058Y3905051D01*
G01X-3719873Y3904428D01*
G01X-3717481Y3904467D01*
G01X-3715127Y3904953D01*
G01X-3712741Y3906045D01*
G01X-3710250Y3907904D01*
G01X-3710250Y3863183D01*
G01X-3712741Y3865041D01*
G01X-3715127Y3866133D01*
G01X-3717481Y3866619D01*
G01X-3719873Y3866658D01*
G01X-3725058Y3866035D01*
G01X-3731250Y3865543D01*
G37*
G36*
G01X-3812851Y3952244D02*
G01X-3812851Y3992244D01*
G01X-3806659Y3991752D01*
G01X-3801475Y3991129D01*
G01X-3799082Y3991168D01*
G01X-3796728Y3991654D01*
G01X-3794342Y3992746D01*
G01X-3791851Y3994605D01*
G01X-3791851Y3949884D01*
G01X-3794342Y3951742D01*
G01X-3796728Y3952834D01*
G01X-3799082Y3953320D01*
G01X-3801475Y3953359D01*
G01X-3806659Y3952736D01*
G01X-3812851Y3952244D01*
G37*
G36*
G01X-1098966Y5000125D02*
G01X-1127250Y5028409D01*
G01X-1122524Y5032440D01*
G01X-1118417Y5035665D01*
G01X-1116753Y5037384D01*
G01X-1115432Y5039392D01*
G01X-1114517Y5041852D01*
G01X-1114070Y5044927D01*
G01X-1082447Y5013305D01*
G01X-1085522Y5012858D01*
G01X-1087982Y5011943D01*
G01X-1089990Y5010622D01*
G01X-1091709Y5008957D01*
G01X-1094935Y5004851D01*
G01X-1098966Y5000125D01*
G37*
G36*
G01X-3363647Y2630527D02*
G01X-3363647Y2590527D01*
G01X-3369839Y2591018D01*
G01X-3375023Y2591641D01*
G01X-3377416Y2591603D01*
G01X-3379770Y2591117D01*
G01X-3382156Y2590025D01*
G01X-3384647Y2588166D01*
G01X-3384647Y2632887D01*
G01X-3382156Y2631029D01*
G01X-3379770Y2629936D01*
G01X-3377416Y2629451D01*
G01X-3375023Y2629412D01*
G01X-3369839Y2630035D01*
G01X-3363647Y2630527D01*
G37*
G36*
G01X-374756Y5097026D02*
G01X-403041Y5125310D01*
G01X-398314Y5129341D01*
G01X-394208Y5132566D01*
G01X-392544Y5134286D01*
G01X-391223Y5136294D01*
G01X-390307Y5138753D01*
G01X-389861Y5141829D01*
G01X-358238Y5110206D01*
G01X-361313Y5109759D01*
G01X-363773Y5108844D01*
G01X-365781Y5107523D01*
G01X-367500Y5105859D01*
G01X-370726Y5101752D01*
G01X-374756Y5097026D01*
G37*
G36*
G01X-2777139Y2554026D02*
G01X-2777139Y2514026D01*
G01X-2783331Y2514518D01*
G01X-2788516Y2515140D01*
G01X-2790908Y2515102D01*
G01X-2793262Y2514616D01*
G01X-2795649Y2513524D01*
G01X-2798139Y2511665D01*
G01X-2798139Y2556386D01*
G01X-2795649Y2554528D01*
G01X-2793262Y2553435D01*
G01X-2790908Y2552950D01*
G01X-2788516Y2552911D01*
G01X-2783331Y2553534D01*
G01X-2777139Y2554026D01*
G37*
G36*
G01X-2103679Y4092313D02*
G01X-2131963Y4120597D01*
G01X-2127237Y4124628D01*
G01X-2123130Y4127853D01*
G01X-2121466Y4129573D01*
G01X-2120145Y4131581D01*
G01X-2119230Y4134040D01*
G01X-2118783Y4137116D01*
G01X-2087160Y4105493D01*
G01X-2090235Y4105046D01*
G01X-2092695Y4104131D01*
G01X-2094703Y4102810D01*
G01X-2096422Y4101146D01*
G01X-2099648Y4097039D01*
G01X-2103679Y4092313D01*
G37*
G36*
G01X-3128843Y2779028D02*
G01X-3088843Y2779028D01*
G01X-3089334Y2772836D01*
G01X-3089957Y2767652D01*
G01X-3089918Y2765259D01*
G01X-3089433Y2762905D01*
G01X-3088341Y2760519D01*
G01X-3086482Y2758028D01*
G01X-3131203Y2758028D01*
G01X-3129345Y2760519D01*
G01X-3128252Y2762905D01*
G01X-3127767Y2765259D01*
G01X-3127728Y2767652D01*
G01X-3128351Y2772836D01*
G01X-3128843Y2779028D01*
G37*
G36*
G01X-1410070Y5102126D02*
G01X-1438354Y5130410D01*
G01X-1433628Y5134441D01*
G01X-1429521Y5137666D01*
G01X-1427857Y5139386D01*
G01X-1426536Y5141394D01*
G01X-1425621Y5143854D01*
G01X-1425174Y5146929D01*
G01X-1393551Y5115306D01*
G01X-1396626Y5114859D01*
G01X-1399086Y5113944D01*
G01X-1401094Y5112623D01*
G01X-1402813Y5110959D01*
G01X-1406039Y5106852D01*
G01X-1410070Y5102126D01*
G37*
G36*
G01X-1558022Y4880255D02*
G01X-1518022Y4880255D01*
G01X-1518514Y4874063D01*
G01X-1519137Y4868879D01*
G01X-1519098Y4866486D01*
G01X-1518613Y4864132D01*
G01X-1517520Y4861746D01*
G01X-1515662Y4859255D01*
G01X-1560383Y4859255D01*
G01X-1558524Y4861746D01*
G01X-1557432Y4864132D01*
G01X-1556946Y4866486D01*
G01X-1556908Y4868879D01*
G01X-1557530Y4874063D01*
G01X-1558022Y4880255D01*
G37*
G36*
G01X-1496821Y5726866D02*
G01X-1456822Y5726866D01*
G01X-1457313Y5720674D01*
G01X-1457936Y5715490D01*
G01X-1457897Y5713097D01*
G01X-1457412Y5710743D01*
G01X-1456320Y5708357D01*
G01X-1454461Y5705866D01*
G01X-1499182Y5705866D01*
G01X-1497324Y5708357D01*
G01X-1496231Y5710743D01*
G01X-1495746Y5713097D01*
G01X-1495707Y5715490D01*
G01X-1496330Y5720674D01*
G01X-1496821Y5726866D01*
G37*
G36*
G01X-1435822Y5705866D02*
G01X-1435822Y5665866D01*
G01X-1442014Y5666358D01*
G01X-1447198Y5666981D01*
G01X-1449591Y5666942D01*
G01X-1451945Y5666457D01*
G01X-1454331Y5665364D01*
G01X-1456822Y5663506D01*
G01X-1456822Y5708227D01*
G01X-1454331Y5706368D01*
G01X-1451945Y5705276D01*
G01X-1449591Y5704791D01*
G01X-1447198Y5704752D01*
G01X-1442014Y5705375D01*
G01X-1435822Y5705866D01*
G37*
G36*
G01X-1619223Y5334161D02*
G01X-1579223Y5334161D01*
G01X-1579715Y5327969D01*
G01X-1580338Y5322785D01*
G01X-1580299Y5320392D01*
G01X-1579813Y5318038D01*
G01X-1578721Y5315652D01*
G01X-1576862Y5313161D01*
G01X-1621584Y5313161D01*
G01X-1619725Y5315652D01*
G01X-1618633Y5318038D01*
G01X-1618147Y5320392D01*
G01X-1618108Y5322785D01*
G01X-1618731Y5327969D01*
G01X-1619223Y5334161D01*
G37*
G36*
G01X-1558223Y5313161D02*
G01X-1558223Y5273161D01*
G01X-1564415Y5273653D01*
G01X-1569600Y5274276D01*
G01X-1571992Y5274237D01*
G01X-1574346Y5273752D01*
G01X-1576733Y5272659D01*
G01X-1579223Y5270801D01*
G01X-1579223Y5315522D01*
G01X-1576733Y5313663D01*
G01X-1574346Y5312571D01*
G01X-1571992Y5312086D01*
G01X-1569600Y5312047D01*
G01X-1564415Y5312670D01*
G01X-1558223Y5313161D01*
G37*
G36*
G01X-1293419Y5191560D02*
G01X-1293419Y5231560D01*
G01X-1287227Y5231068D01*
G01X-1282042Y5230446D01*
G01X-1279650Y5230484D01*
G01X-1277296Y5230970D01*
G01X-1274909Y5232062D01*
G01X-1272419Y5233921D01*
G01X-1272419Y5189200D01*
G01X-1274909Y5191058D01*
G01X-1277296Y5192151D01*
G01X-1279650Y5192636D01*
G01X-1282042Y5192675D01*
G01X-1287227Y5192052D01*
G01X-1293419Y5191560D01*
G37*
G36*
G01X-1574174Y5193493D02*
G01X-1545890Y5165209D01*
G01X-1550616Y5161178D01*
G01X-1554722Y5157952D01*
G01X-1556386Y5156233D01*
G01X-1557708Y5154225D01*
G01X-1558623Y5151765D01*
G01X-1559070Y5148690D01*
G01X-1590692Y5180313D01*
G01X-1587617Y5180760D01*
G01X-1585157Y5181675D01*
G01X-1583149Y5182996D01*
G01X-1581430Y5184660D01*
G01X-1578204Y5188767D01*
G01X-1574174Y5193493D01*
G37*
G36*
G01X-2203130Y4084663D02*
G01X-2231414Y4112947D01*
G01X-2226688Y4116978D01*
G01X-2222581Y4120203D01*
G01X-2220917Y4121923D01*
G01X-2219596Y4123931D01*
G01X-2218681Y4126390D01*
G01X-2218234Y4129466D01*
G01X-2186611Y4097843D01*
G01X-2189687Y4097396D01*
G01X-2192146Y4096481D01*
G01X-2194154Y4095160D01*
G01X-2195874Y4093496D01*
G01X-2199099Y4089389D01*
G01X-2203130Y4084663D01*
G37*
G36*
G01X-2855042Y3489319D02*
G01X-2830559Y3457233D01*
G01X-2835448Y3453239D01*
G01X-2839583Y3450475D01*
G01X-2841299Y3449010D01*
G01X-2842743Y3447201D01*
G01X-2843888Y3444830D01*
G01X-2844704Y3441680D01*
G01X-2872296Y3476874D01*
G01X-2869235Y3476980D01*
G01X-2866704Y3477677D01*
G01X-2864566Y3478876D01*
G01X-2862687Y3480490D01*
G01X-2859161Y3484606D01*
G01X-2855042Y3489319D01*
G37*
G36*
G01X-2433301Y2973082D02*
G01X-2461585Y2944798D01*
G01X-2465616Y2949524D01*
G01X-2468841Y2953631D01*
G01X-2470561Y2955295D01*
G01X-2472569Y2956616D01*
G01X-2475029Y2957531D01*
G01X-2478104Y2957978D01*
G01X-2446481Y2989601D01*
G01X-2446034Y2986526D01*
G01X-2445119Y2984066D01*
G01X-2443798Y2982058D01*
G01X-2442134Y2980339D01*
G01X-2438027Y2977113D01*
G01X-2433301Y2973082D01*
G37*
G36*
G01X-2175730Y2728228D02*
G01X-2175730Y2768228D01*
G01X-2169538Y2767737D01*
G01X-2164353Y2767114D01*
G01X-2161961Y2767153D01*
G01X-2159607Y2767638D01*
G01X-2157220Y2768730D01*
G01X-2154730Y2770589D01*
G01X-2154730Y2725868D01*
G01X-2157220Y2727726D01*
G01X-2159607Y2728819D01*
G01X-2161961Y2729304D01*
G01X-2164353Y2729343D01*
G01X-2169538Y2728720D01*
G01X-2175730Y2728228D01*
G37*
G36*
G01X-3292845Y3252936D02*
G01X-3332845Y3252936D01*
G01X-3332353Y3259128D01*
G01X-3331731Y3264312D01*
G01X-3331769Y3266705D01*
G01X-3332255Y3269059D01*
G01X-3333347Y3271445D01*
G01X-3335206Y3273936D01*
G01X-3290485Y3273936D01*
G01X-3292343Y3271445D01*
G01X-3293435Y3269059D01*
G01X-3293921Y3266705D01*
G01X-3293960Y3264312D01*
G01X-3293337Y3259128D01*
G01X-3292845Y3252936D01*
G37*
G36*
G01X-3332845Y3334935D02*
G01X-3292845Y3334935D01*
G01X-3293337Y3328743D01*
G01X-3293960Y3323559D01*
G01X-3293921Y3321166D01*
G01X-3293435Y3318812D01*
G01X-3292343Y3316426D01*
G01X-3290485Y3313935D01*
G01X-3335206Y3313935D01*
G01X-3333347Y3316426D01*
G01X-3332255Y3318812D01*
G01X-3331769Y3321166D01*
G01X-3331731Y3323559D01*
G01X-3332353Y3328743D01*
G01X-3332845Y3334935D01*
G37*
G36*
G01X-3351313Y3717692D02*
G01X-3379597Y3689408D01*
G01X-3383628Y3694134D01*
G01X-3386853Y3698240D01*
G01X-3388573Y3699905D01*
G01X-3390581Y3701226D01*
G01X-3393040Y3702141D01*
G01X-3396116Y3702588D01*
G01X-3364493Y3734210D01*
G01X-3364046Y3731135D01*
G01X-3363131Y3728675D01*
G01X-3361810Y3726667D01*
G01X-3360146Y3724948D01*
G01X-3356039Y3721723D01*
G01X-3351313Y3717692D01*
G37*
G36*
G01X-3343246Y3849442D02*
G01X-3343246Y3809442D01*
G01X-3349438Y3809934D01*
G01X-3354623Y3810557D01*
G01X-3357015Y3810518D01*
G01X-3359369Y3810033D01*
G01X-3361756Y3808940D01*
G01X-3364246Y3807082D01*
G01X-3364246Y3851803D01*
G01X-3361756Y3849944D01*
G01X-3359369Y3848852D01*
G01X-3357015Y3848367D01*
G01X-3354623Y3848328D01*
G01X-3349438Y3848951D01*
G01X-3343246Y3849442D01*
G37*
G36*
G01X-2598385Y3832210D02*
G01X-2626669Y3860494D01*
G01X-2621943Y3864524D01*
G01X-2617837Y3867750D01*
G01X-2616172Y3869469D01*
G01X-2614851Y3871477D01*
G01X-2613936Y3873937D01*
G01X-2613489Y3877012D01*
G01X-2581867Y3845390D01*
G01X-2584942Y3844943D01*
G01X-2587402Y3844028D01*
G01X-2589410Y3842706D01*
G01X-2591129Y3841042D01*
G01X-2594354Y3836936D01*
G01X-2598385Y3832210D01*
G37*
G36*
G01X-2603536Y3916343D02*
G01X-2563536Y3916343D01*
G01X-2564028Y3910151D01*
G01X-2564651Y3904966D01*
G01X-2564612Y3902574D01*
G01X-2564126Y3900220D01*
G01X-2563034Y3897833D01*
G01X-2561175Y3895343D01*
G01X-2605896Y3895343D01*
G01X-2604038Y3897833D01*
G01X-2602946Y3900220D01*
G01X-2602460Y3902574D01*
G01X-2602421Y3904966D01*
G01X-2603044Y3910151D01*
G01X-2603536Y3916343D01*
G37*
G36*
G01X-2440283Y4092313D02*
G01X-2468567Y4120597D01*
G01X-2463841Y4124628D01*
G01X-2459735Y4127853D01*
G01X-2458070Y4129573D01*
G01X-2456749Y4131581D01*
G01X-2455834Y4134040D01*
G01X-2455387Y4137116D01*
G01X-2423765Y4105493D01*
G01X-2426840Y4105046D01*
G01X-2429300Y4104131D01*
G01X-2431308Y4102810D01*
G01X-2433027Y4101146D01*
G01X-2436252Y4097039D01*
G01X-2440283Y4092313D01*
G37*
G36*
G01X-512458Y4724721D02*
G01X-540742Y4753005D01*
G01X-536016Y4757036D01*
G01X-531910Y4760262D01*
G01X-530245Y4761981D01*
G01X-528924Y4763989D01*
G01X-528009Y4766449D01*
G01X-527562Y4769524D01*
G01X-495940Y4737901D01*
G01X-499015Y4737454D01*
G01X-501475Y4736539D01*
G01X-503483Y4735218D01*
G01X-505202Y4733554D01*
G01X-508427Y4729447D01*
G01X-512458Y4724721D01*
G37*
G36*
G01X-1048016Y3824542D02*
G01X-1008016Y3824542D01*
G01X-1008508Y3818350D01*
G01X-1009131Y3813165D01*
G01X-1009092Y3810773D01*
G01X-1008606Y3808419D01*
G01X-1007514Y3806032D01*
G01X-1005655Y3803542D01*
G01X-1050376Y3803542D01*
G01X-1048518Y3806032D01*
G01X-1047426Y3808419D01*
G01X-1046940Y3810773D01*
G01X-1046901Y3813165D01*
G01X-1047524Y3818350D01*
G01X-1048016Y3824542D01*
G37*
G36*
G01X-1709714Y5124660D02*
G01X-1749714Y5124660D01*
G01X-1749222Y5130852D01*
G01X-1748599Y5136036D01*
G01X-1748638Y5138429D01*
G01X-1749124Y5140783D01*
G01X-1750216Y5143169D01*
G01X-1752075Y5145660D01*
G01X-1707353Y5145660D01*
G01X-1709212Y5143169D01*
G01X-1710304Y5140783D01*
G01X-1710790Y5138429D01*
G01X-1710829Y5136036D01*
G01X-1710206Y5130852D01*
G01X-1709714Y5124660D01*
G37*
G36*
G01X-1486621Y3090132D02*
G01X-1446621Y3090132D01*
G01X-1447113Y3083940D01*
G01X-1447736Y3078756D01*
G01X-1447697Y3076363D01*
G01X-1447212Y3074009D01*
G01X-1446119Y3071623D01*
G01X-1444261Y3069132D01*
G01X-1488982Y3069132D01*
G01X-1487123Y3071623D01*
G01X-1486031Y3074009D01*
G01X-1485546Y3076363D01*
G01X-1485507Y3078756D01*
G01X-1486130Y3083940D01*
G01X-1486621Y3090132D01*
G37*
G36*
G01X-3294778Y3915693D02*
G01X-3266494Y3943977D01*
G01X-3262463Y3939251D01*
G01X-3259237Y3935144D01*
G01X-3257518Y3933480D01*
G01X-3255510Y3932159D01*
G01X-3253050Y3931244D01*
G01X-3249975Y3930797D01*
G01X-3281598Y3899174D01*
G01X-3282045Y3902249D01*
G01X-3282960Y3904709D01*
G01X-3284281Y3906717D01*
G01X-3285945Y3908436D01*
G01X-3290052Y3911662D01*
G01X-3294778Y3915693D01*
G37*
G36*
G01X-3427814Y4105297D02*
G01X-3456098Y4077013D01*
G01X-3460129Y4081739D01*
G01X-3463354Y4085845D01*
G01X-3465074Y4087510D01*
G01X-3467081Y4088831D01*
G01X-3469541Y4089746D01*
G01X-3472617Y4090193D01*
G01X-3440994Y4121815D01*
G01X-3440547Y4118740D01*
G01X-3439632Y4116280D01*
G01X-3438311Y4114272D01*
G01X-3436647Y4112553D01*
G01X-3432540Y4109328D01*
G01X-3427814Y4105297D01*
G37*
G36*
G01X-2491284Y3072300D02*
G01X-2519568Y3100584D01*
G01X-2514842Y3104615D01*
G01X-2510735Y3107840D01*
G01X-2509071Y3109559D01*
G01X-2507750Y3111567D01*
G01X-2506835Y3114027D01*
G01X-2506388Y3117102D01*
G01X-2474765Y3085480D01*
G01X-2477840Y3085033D01*
G01X-2480300Y3084118D01*
G01X-2482308Y3082797D01*
G01X-2484027Y3081132D01*
G01X-2487253Y3077026D01*
G01X-2491284Y3072300D01*
G37*
G36*
G01X-2572935Y2794328D02*
G01X-2532935Y2794328D01*
G01X-2533427Y2788136D01*
G01X-2534050Y2782952D01*
G01X-2534011Y2780559D01*
G01X-2533526Y2778205D01*
G01X-2532433Y2775819D01*
G01X-2530575Y2773328D01*
G01X-2575296Y2773328D01*
G01X-2573437Y2775819D01*
G01X-2572345Y2778205D01*
G01X-2571860Y2780559D01*
G01X-2571821Y2782952D01*
G01X-2572444Y2788136D01*
G01X-2572935Y2794328D01*
G37*
G36*
G01X-3476498Y3046365D02*
G01X-3448214Y3018081D01*
G01X-3452940Y3014050D01*
G01X-3457047Y3010825D01*
G01X-3458711Y3009105D01*
G01X-3460032Y3007098D01*
G01X-3460947Y3004638D01*
G01X-3461394Y3001562D01*
G01X-3493017Y3033185D01*
G01X-3489942Y3033632D01*
G01X-3487482Y3034547D01*
G01X-3485474Y3035868D01*
G01X-3483755Y3037532D01*
G01X-3480529Y3041639D01*
G01X-3476498Y3046365D01*
G37*
G36*
G01X-2415433Y5751953D02*
G01X-2415433Y5791953D01*
G01X-2409241Y5791461D01*
G01X-2404056Y5790838D01*
G01X-2401664Y5790877D01*
G01X-2399310Y5791363D01*
G01X-2396923Y5792455D01*
G01X-2394433Y5794314D01*
G01X-2394433Y5749592D01*
G01X-2396923Y5751451D01*
G01X-2399310Y5752543D01*
G01X-2401664Y5753029D01*
G01X-2404056Y5753068D01*
G01X-2409241Y5752445D01*
G01X-2415433Y5751953D01*
G37*
G36*
G01X-1055849Y7450038D02*
G01X-1027565Y7478323D01*
G01X-1023534Y7473596D01*
G01X-1020308Y7469490D01*
G01X-1018589Y7467826D01*
G01X-1016581Y7466505D01*
G01X-1014121Y7465589D01*
G01X-1011046Y7465143D01*
G01X-1042669Y7433520D01*
G01X-1043116Y7436595D01*
G01X-1044031Y7439055D01*
G01X-1045352Y7441063D01*
G01X-1047016Y7442782D01*
G01X-1051123Y7446008D01*
G01X-1055849Y7450038D01*
G37*
G36*
G01X-1015048Y7603040D02*
G01X-986764Y7631324D01*
G01X-982734Y7626598D01*
G01X-979508Y7622492D01*
G01X-977789Y7620828D01*
G01X-975781Y7619507D01*
G01X-973321Y7618591D01*
G01X-970246Y7618145D01*
G01X-1001868Y7586522D01*
G01X-1002315Y7589597D01*
G01X-1003230Y7592057D01*
G01X-1004552Y7594065D01*
G01X-1006216Y7595784D01*
G01X-1010322Y7599010D01*
G01X-1015048Y7603040D01*
G37*
G36*
G01X-2458801Y8843258D02*
G01X-2487086Y8814974D01*
G01X-2491116Y8819700D01*
G01X-2494342Y8823807D01*
G01X-2496061Y8825471D01*
G01X-2498069Y8826792D01*
G01X-2500529Y8827707D01*
G01X-2503604Y8828154D01*
G01X-2471981Y8859777D01*
G01X-2471535Y8856702D01*
G01X-2470619Y8854242D01*
G01X-2469298Y8852234D01*
G01X-2467634Y8850515D01*
G01X-2463527Y8847289D01*
G01X-2458801Y8843258D01*
G37*
G36*
G01X-2042729Y8903608D02*
G01X-2042729Y8863608D01*
G01X-2048921Y8864100D01*
G01X-2054106Y8864723D01*
G01X-2056498Y8864684D01*
G01X-2058852Y8864198D01*
G01X-2061239Y8863106D01*
G01X-2063729Y8861247D01*
G01X-2063729Y8905968D01*
G01X-2061239Y8904110D01*
G01X-2058852Y8903018D01*
G01X-2056498Y8902532D01*
G01X-2054106Y8902493D01*
G01X-2048921Y8903116D01*
G01X-2042729Y8903608D01*
G37*
G36*
G01X-902847Y7648941D02*
G01X-874563Y7677225D01*
G01X-870532Y7672499D01*
G01X-867307Y7668392D01*
G01X-865587Y7666728D01*
G01X-863579Y7665407D01*
G01X-861119Y7664492D01*
G01X-858044Y7664045D01*
G01X-889667Y7632422D01*
G01X-890114Y7635498D01*
G01X-891029Y7637958D01*
G01X-892350Y7639965D01*
G01X-894014Y7641685D01*
G01X-898121Y7644910D01*
G01X-902847Y7648941D01*
G37*
G36*
G01X-811046Y7684641D02*
G01X-782762Y7712926D01*
G01X-778731Y7708199D01*
G01X-775505Y7704093D01*
G01X-773786Y7702429D01*
G01X-771778Y7701108D01*
G01X-769318Y7700192D01*
G01X-766243Y7699746D01*
G01X-797866Y7668123D01*
G01X-798313Y7671198D01*
G01X-799228Y7673658D01*
G01X-800549Y7675666D01*
G01X-802213Y7677385D01*
G01X-806320Y7680611D01*
G01X-811046Y7684641D01*
G37*
G36*
G01X-1604124Y9036210D02*
G01X-1604124Y8996210D01*
G01X-1610316Y8996701D01*
G01X-1615500Y8997324D01*
G01X-1617893Y8997285D01*
G01X-1620247Y8996800D01*
G01X-1622633Y8995708D01*
G01X-1625124Y8993849D01*
G01X-1625124Y9038570D01*
G01X-1622633Y9036712D01*
G01X-1620247Y9035619D01*
G01X-1617893Y9035134D01*
G01X-1615500Y9035095D01*
G01X-1610316Y9035718D01*
G01X-1604124Y9036210D01*
G37*
G36*
G01X-3174743Y5114858D02*
G01X-3134743Y5114858D01*
G01X-3135235Y5108667D01*
G01X-3135858Y5103482D01*
G01X-3135819Y5101089D01*
G01X-3135333Y5098735D01*
G01X-3134241Y5096349D01*
G01X-3132383Y5093858D01*
G01X-3177104Y5093858D01*
G01X-3175245Y5096349D01*
G01X-3174153Y5098735D01*
G01X-3173667Y5101089D01*
G01X-3173628Y5103482D01*
G01X-3174251Y5108667D01*
G01X-3174743Y5114858D01*
G37*
G36*
G01X-3111610Y5059009D02*
G01X-3139894Y5030725D01*
G01X-3143925Y5035451D01*
G01X-3147150Y5039558D01*
G01X-3148869Y5041222D01*
G01X-3150877Y5042543D01*
G01X-3153337Y5043458D01*
G01X-3156412Y5043905D01*
G01X-3124790Y5075528D01*
G01X-3124343Y5072453D01*
G01X-3123428Y5069993D01*
G01X-3122107Y5067985D01*
G01X-3120443Y5066266D01*
G01X-3116336Y5063040D01*
G01X-3111610Y5059009D01*
G37*
G36*
G01X-2568636Y7241187D02*
G01X-2608636Y7241187D01*
G01X-2608144Y7247379D01*
G01X-2607521Y7252564D01*
G01X-2607560Y7254956D01*
G01X-2608046Y7257310D01*
G01X-2609138Y7259697D01*
G01X-2610997Y7262187D01*
G01X-2566275Y7262187D01*
G01X-2568134Y7259697D01*
G01X-2569226Y7257310D01*
G01X-2569712Y7254956D01*
G01X-2569751Y7252564D01*
G01X-2569128Y7247379D01*
G01X-2568636Y7241187D01*
G37*
G36*
G01X-2585869Y7149134D02*
G01X-2557585Y7177419D01*
G01X-2553554Y7172693D01*
G01X-2550328Y7168586D01*
G01X-2548609Y7166922D01*
G01X-2546601Y7165601D01*
G01X-2544141Y7164685D01*
G01X-2541066Y7164239D01*
G01X-2572689Y7132616D01*
G01X-2573136Y7135691D01*
G01X-2574051Y7138151D01*
G01X-2575372Y7140159D01*
G01X-2577036Y7141878D01*
G01X-2581143Y7145104D01*
G01X-2585869Y7149134D01*
G37*
G36*
G01X-2883989Y7109415D02*
G01X-2912273Y7137699D01*
G01X-2907547Y7141729D01*
G01X-2903440Y7144955D01*
G01X-2901776Y7146674D01*
G01X-2900455Y7148682D01*
G01X-2899540Y7151142D01*
G01X-2899093Y7154217D01*
G01X-2867470Y7122595D01*
G01X-2870545Y7122148D01*
G01X-2873005Y7121233D01*
G01X-2875013Y7119912D01*
G01X-2876733Y7118247D01*
G01X-2879958Y7114141D01*
G01X-2883989Y7109415D01*
G37*
G36*
G01X-2912273Y6460626D02*
G01X-2883989Y6488910D01*
G01X-2879958Y6484184D01*
G01X-2876733Y6480077D01*
G01X-2875013Y6478413D01*
G01X-2873005Y6477092D01*
G01X-2870545Y6476176D01*
G01X-2867470Y6475730D01*
G01X-2899093Y6444107D01*
G01X-2899540Y6447182D01*
G01X-2900455Y6449642D01*
G01X-2901776Y6451650D01*
G01X-2903440Y6453369D01*
G01X-2907547Y6456595D01*
G01X-2912273Y6460626D01*
G37*
G36*
G01X-2491535Y6746280D02*
G01X-2491535Y6706280D01*
G01X-2497727Y6706772D01*
G01X-2502912Y6707395D01*
G01X-2505304Y6707356D01*
G01X-2507658Y6706870D01*
G01X-2510045Y6705778D01*
G01X-2512535Y6703919D01*
G01X-2512535Y6748641D01*
G01X-2510045Y6746782D01*
G01X-2507658Y6745690D01*
G01X-2505304Y6745204D01*
G01X-2502912Y6745165D01*
G01X-2497727Y6745788D01*
G01X-2491535Y6746280D01*
G37*
G36*
G01X-2905039Y7323388D02*
G01X-2905039Y7363388D01*
G01X-2898847Y7362896D01*
G01X-2893663Y7362273D01*
G01X-2891270Y7362312D01*
G01X-2888916Y7362798D01*
G01X-2886530Y7363890D01*
G01X-2884039Y7365749D01*
G01X-2884039Y7321027D01*
G01X-2886530Y7322886D01*
G01X-2888916Y7323978D01*
G01X-2891270Y7324464D01*
G01X-2893663Y7324503D01*
G01X-2898847Y7323880D01*
G01X-2905039Y7323388D01*
G37*
G36*
G01X-2981142Y7363388D02*
G01X-2981142Y7323388D01*
G01X-2987334Y7323880D01*
G01X-2992518Y7324503D01*
G01X-2994911Y7324464D01*
G01X-2997265Y7323978D01*
G01X-2999651Y7322886D01*
G01X-3002142Y7321027D01*
G01X-3002142Y7365749D01*
G01X-2999651Y7363890D01*
G01X-2997265Y7362798D01*
G01X-2994911Y7362312D01*
G01X-2992518Y7362273D01*
G01X-2987334Y7362896D01*
G01X-2981142Y7363388D01*
G37*
G36*
G01X-3443297Y5009908D02*
G01X-3483297Y5009908D01*
G01X-3482806Y5016100D01*
G01X-3482183Y5021285D01*
G01X-3482222Y5023677D01*
G01X-3482707Y5026031D01*
G01X-3483799Y5028418D01*
G01X-3485658Y5030908D01*
G01X-3440937Y5030908D01*
G01X-3442795Y5028418D01*
G01X-3443888Y5026031D01*
G01X-3444373Y5023677D01*
G01X-3444412Y5021285D01*
G01X-3443789Y5016100D01*
G01X-3443297Y5009908D01*
G37*
G36*
G01X-5132002Y6211923D02*
G01X-5093475Y6229964D01*
G01X-5090576Y6226587D01*
G01X-5088535Y6223320D01*
G01X-5085769Y6217107D01*
G01X-5084418Y6214158D01*
G01X-5082669Y6211312D01*
G01X-5080209Y6208567D01*
G01X-5076724Y6205922D01*
G01X-5118876Y6195350D01*
G01X-5117708Y6198307D01*
G01X-5117805Y6200660D01*
G01X-5118935Y6202586D01*
G01X-5120867Y6204258D01*
G01X-5126216Y6207545D01*
G01X-5129170Y6209510D01*
G01X-5132002Y6211923D01*
G37*
G36*
G01X-5024136Y5829120D02*
G01X-5052420Y5800836D01*
G01X-5056450Y5805562D01*
G01X-5059676Y5809669D01*
G01X-5061395Y5811333D01*
G01X-5063403Y5812654D01*
G01X-5065863Y5813569D01*
G01X-5068938Y5814016D01*
G01X-5037316Y5845639D01*
G01X-5036869Y5842563D01*
G01X-5035954Y5840103D01*
G01X-5034632Y5838096D01*
G01X-5032968Y5836376D01*
G01X-5028862Y5833151D01*
G01X-5024136Y5829120D01*
G37*
G36*
G01X-4735363Y3982644D02*
G01X-4695363Y3982644D01*
G01X-4695855Y3976452D01*
G01X-4696478Y3971267D01*
G01X-4696439Y3968875D01*
G01X-4695954Y3966521D01*
G01X-4694861Y3964134D01*
G01X-4693003Y3961644D01*
G01X-4737724Y3961644D01*
G01X-4735865Y3964134D01*
G01X-4734773Y3966521D01*
G01X-4734288Y3968875D01*
G01X-4734249Y3971267D01*
G01X-4734872Y3976452D01*
G01X-4735363Y3982644D01*
G37*
G36*
G01X-4829898Y4027894D02*
G01X-4801614Y4056178D01*
G01X-4797583Y4051452D01*
G01X-4794357Y4047346D01*
G01X-4792638Y4045681D01*
G01X-4790630Y4044360D01*
G01X-4788170Y4043445D01*
G01X-4785095Y4042998D01*
G01X-4816718Y4011376D01*
G01X-4817165Y4014451D01*
G01X-4818080Y4016911D01*
G01X-4819401Y4018919D01*
G01X-4821065Y4020638D01*
G01X-4825172Y4023863D01*
G01X-4829898Y4027894D01*
G37*
G36*
G01X-5263403Y6185222D02*
G01X-5235119Y6213506D01*
G01X-5231089Y6208780D01*
G01X-5227863Y6204673D01*
G01X-5226144Y6203009D01*
G01X-5224136Y6201688D01*
G01X-5221676Y6200773D01*
G01X-5218601Y6200326D01*
G01X-5250223Y6168703D01*
G01X-5250670Y6171779D01*
G01X-5251585Y6174239D01*
G01X-5252907Y6176246D01*
G01X-5254571Y6177966D01*
G01X-5258677Y6181191D01*
G01X-5263403Y6185222D01*
G37*
G36*
G01X-5151636Y5818919D02*
G01X-5179920Y5790635D01*
G01X-5183951Y5795361D01*
G01X-5187177Y5799468D01*
G01X-5188896Y5801132D01*
G01X-5190904Y5802453D01*
G01X-5193364Y5803368D01*
G01X-5196439Y5803815D01*
G01X-5164816Y5835438D01*
G01X-5164369Y5832362D01*
G01X-5163454Y5829903D01*
G01X-5162133Y5827895D01*
G01X-5160469Y5826175D01*
G01X-5156362Y5822950D01*
G01X-5151636Y5818919D01*
G37*
G36*
G01X-936615Y5884570D02*
G01X-976615Y5884570D01*
G01X-976123Y5890762D01*
G01X-975500Y5895946D01*
G01X-975539Y5898339D01*
G01X-976025Y5900693D01*
G01X-977117Y5903079D01*
G01X-978975Y5905570D01*
G01X-934254Y5905570D01*
G01X-936113Y5903079D01*
G01X-937205Y5900693D01*
G01X-937691Y5898339D01*
G01X-937730Y5895946D01*
G01X-937107Y5890762D01*
G01X-936615Y5884570D01*
G37*
G36*
G01X-1135568Y4510084D02*
G01X-1107284Y4481800D01*
G01X-1112010Y4477769D01*
G01X-1116117Y4474544D01*
G01X-1117781Y4472824D01*
G01X-1119102Y4470817D01*
G01X-1120017Y4468357D01*
G01X-1120464Y4465281D01*
G01X-1152087Y4496904D01*
G01X-1149011Y4497351D01*
G01X-1146551Y4498266D01*
G01X-1144544Y4499587D01*
G01X-1142824Y4501251D01*
G01X-1139599Y4505358D01*
G01X-1135568Y4510084D01*
G37*
G36*
G01X-2333433Y3436337D02*
G01X-2333433Y3396337D01*
G01X-2339625Y3396829D01*
G01X-2344810Y3397452D01*
G01X-2347202Y3397413D01*
G01X-2349556Y3396927D01*
G01X-2351943Y3395835D01*
G01X-2354433Y3393976D01*
G01X-2354433Y3438698D01*
G01X-2351943Y3436839D01*
G01X-2349556Y3435747D01*
G01X-2347202Y3435261D01*
G01X-2344810Y3435222D01*
G01X-2339625Y3435845D01*
G01X-2333433Y3436337D01*
G37*
G36*
G01X-2016978Y6978950D02*
G01X-2045262Y7007235D01*
G01X-2040536Y7011265D01*
G01X-2036429Y7014491D01*
G01X-2034765Y7016210D01*
G01X-2033444Y7018218D01*
G01X-2032529Y7020678D01*
G01X-2032082Y7023753D01*
G01X-2000459Y6992130D01*
G01X-2003534Y6991684D01*
G01X-2005994Y6990768D01*
G01X-2008002Y6989447D01*
G01X-2009721Y6987783D01*
G01X-2012947Y6983676D01*
G01X-2016978Y6978950D01*
G37*
G36*
G01X-2960741Y3048732D02*
G01X-2960741Y3008732D01*
G01X-2966933Y3009224D01*
G01X-2972118Y3009847D01*
G01X-2974510Y3009808D01*
G01X-2976864Y3009322D01*
G01X-2979251Y3008230D01*
G01X-2981741Y3006371D01*
G01X-2981741Y3051093D01*
G01X-2979251Y3049234D01*
G01X-2976864Y3048142D01*
G01X-2974510Y3047656D01*
G01X-2972118Y3047617D01*
G01X-2966933Y3048240D01*
G01X-2960741Y3048732D01*
G37*
G36*
G01X-2866372Y3012981D02*
G01X-2838088Y3041265D01*
G01X-2834058Y3036539D01*
G01X-2830832Y3032432D01*
G01X-2829113Y3030768D01*
G01X-2827105Y3029447D01*
G01X-2824645Y3028532D01*
G01X-2821570Y3028085D01*
G01X-2853192Y2996462D01*
G01X-2853639Y2999538D01*
G01X-2854554Y3001998D01*
G01X-2855876Y3004005D01*
G01X-2857540Y3005725D01*
G01X-2861646Y3008950D01*
G01X-2866372Y3012981D01*
G37*
G36*
G01X-2254951Y6797545D02*
G01X-2213908Y6782020D01*
G01X-2216675Y6779650D01*
G01X-2219522Y6777740D01*
G01X-2224655Y6774551D01*
G01X-2226542Y6772901D01*
G01X-2227709Y6770966D01*
G01X-2227957Y6768561D01*
G01X-2227086Y6765499D01*
G01X-2267670Y6780566D01*
G01X-2265422Y6782007D01*
G01X-2263604Y6783843D01*
G01X-2260774Y6788300D01*
G01X-2258212Y6793134D01*
G01X-2256729Y6795443D01*
G01X-2254951Y6797545D01*
G37*
G36*
G01X-2283068Y6712860D02*
G01X-2298593Y6753903D01*
G01X-2296491Y6755681D01*
G01X-2294183Y6757163D01*
G01X-2289348Y6759725D01*
G01X-2284892Y6762556D01*
G01X-2283055Y6764374D01*
G01X-2281614Y6766622D01*
G01X-2266548Y6726038D01*
G01X-2269609Y6726909D01*
G01X-2272014Y6726661D01*
G01X-2273949Y6725494D01*
G01X-2275599Y6723607D01*
G01X-2278788Y6718473D01*
G01X-2280699Y6715627D01*
G01X-2283068Y6712860D01*
G37*
G36*
G01X-2040198Y7012298D02*
G01X-2038840Y6957088D01*
G01X-2040717Y6955464D01*
G01X-2042509Y6954392D01*
G01X-2044233Y6953799D01*
G01X-2045905Y6953612D01*
G01X-2049159Y6954165D01*
G01X-2052401Y6955465D01*
G01X-2055762Y6956926D01*
G01X-2059374Y6957963D01*
G01X-2063368Y6957991D01*
G01X-2065548Y6957444D01*
G01X-2067874Y6956424D01*
G01X-2056760Y6999161D01*
G01X-2054710Y6996869D01*
G01X-2053745Y6996435D01*
G01X-2052807Y6996415D01*
G01X-2050973Y6997444D01*
G01X-2049134Y6999596D01*
G01X-2045133Y7005843D01*
G01X-2042821Y7009224D01*
G01X-2040198Y7012298D01*
G37*
G36*
G01X-2056157Y6939771D02*
G01X-2111367Y6941130D01*
G01X-2108292Y6943752D01*
G01X-2104912Y6946065D01*
G01X-2098664Y6950065D01*
G01X-2096512Y6951905D01*
G01X-2095484Y6953738D01*
G01X-2095503Y6954677D01*
G01X-2095937Y6955642D01*
G01X-2098230Y6957691D01*
G01X-2055493Y6968806D01*
G01X-2056512Y6966480D01*
G01X-2057059Y6964299D01*
G01X-2057031Y6960306D01*
G01X-2055994Y6956694D01*
G01X-2054533Y6953332D01*
G01X-2053234Y6950091D01*
G01X-2052681Y6946837D01*
G01X-2052867Y6945165D01*
G01X-2053460Y6943441D01*
G01X-2054532Y6941649D01*
G01X-2056157Y6939771D01*
G37*
G36*
G01X-2112205Y6940291D02*
G01X-2061972Y6933956D01*
G01X-2064942Y6931439D01*
G01X-2068118Y6929331D01*
G01X-2073914Y6925775D01*
G01X-2075946Y6924044D01*
G01X-2077009Y6922155D01*
G01X-2076809Y6919967D01*
G01X-2075052Y6917337D01*
G01X-2119210Y6917598D01*
G01X-2116930Y6920724D01*
G01X-2115883Y6923630D01*
G01X-2115652Y6926384D01*
G01X-2115822Y6929055D01*
G01X-2115978Y6931713D01*
G01X-2115704Y6934425D01*
G01X-2114585Y6937262D01*
G01X-2112205Y6940291D01*
G37*
G36*
G01X-2134049Y6861879D02*
G01X-2140384Y6912112D01*
G01X-2137355Y6914492D01*
G01X-2134518Y6915611D01*
G01X-2131806Y6915885D01*
G01X-2129148Y6915729D01*
G01X-2126477Y6915559D01*
G01X-2123723Y6915790D01*
G01X-2120817Y6916837D01*
G01X-2117691Y6919117D01*
G01X-2117430Y6874959D01*
G01X-2120060Y6876716D01*
G01X-2122248Y6876916D01*
G01X-2124137Y6875853D01*
G01X-2125868Y6873821D01*
G01X-2129424Y6868025D01*
G01X-2131532Y6864849D01*
G01X-2134049Y6861879D01*
G37*
G36*
G01X-2159779Y5821235D02*
G01X-2188064Y5849520D01*
G01X-2183337Y5853550D01*
G01X-2179231Y5856776D01*
G01X-2177567Y5858495D01*
G01X-2176246Y5860503D01*
G01X-2175330Y5862963D01*
G01X-2174884Y5866038D01*
G01X-2143261Y5834415D01*
G01X-2146336Y5833969D01*
G01X-2148796Y5833053D01*
G01X-2150804Y5831732D01*
G01X-2152523Y5830068D01*
G01X-2155749Y5825961D01*
G01X-2159779Y5821235D01*
G37*
G36*
G01X-5447440Y5966499D02*
G01X-5475724Y5938215D01*
G01X-5479755Y5942941D01*
G01X-5482981Y5947048D01*
G01X-5484700Y5948712D01*
G01X-5486708Y5950033D01*
G01X-5489168Y5950948D01*
G01X-5492243Y5951395D01*
G01X-5460620Y5983017D01*
G01X-5460173Y5979942D01*
G01X-5459258Y5977482D01*
G01X-5457937Y5975474D01*
G01X-5456273Y5973755D01*
G01X-5452166Y5970530D01*
G01X-5447440Y5966499D01*
G37*
G36*
G01X-2823040Y6781980D02*
G01X-2823040Y6741980D01*
G01X-2829232Y6742472D01*
G01X-2834416Y6743095D01*
G01X-2836809Y6743056D01*
G01X-2839163Y6742571D01*
G01X-2841549Y6741478D01*
G01X-2844040Y6739620D01*
G01X-2844040Y6784341D01*
G01X-2841549Y6782482D01*
G01X-2839163Y6781390D01*
G01X-2836809Y6780905D01*
G01X-2834416Y6780866D01*
G01X-2829232Y6781489D01*
G01X-2823040Y6781980D01*
G37*
G36*
G01X-1301086Y8527054D02*
G01X-1329371Y8498770D01*
G01X-1333401Y8503496D01*
G01X-1336627Y8507603D01*
G01X-1338346Y8509267D01*
G01X-1340354Y8510588D01*
G01X-1342814Y8511503D01*
G01X-1345889Y8511950D01*
G01X-1314266Y8543573D01*
G01X-1313820Y8540497D01*
G01X-1312904Y8538038D01*
G01X-1311583Y8536030D01*
G01X-1309919Y8534310D01*
G01X-1305813Y8531085D01*
G01X-1301086Y8527054D01*
G37*
G36*
G01X-2021353Y7203863D02*
G01X-1981353Y7203863D01*
G01X-1981844Y7197671D01*
G01X-1982467Y7192487D01*
G01X-1982428Y7190094D01*
G01X-1981943Y7187740D01*
G01X-1980851Y7185354D01*
G01X-1978992Y7182863D01*
G01X-2023713Y7182863D01*
G01X-2021855Y7185354D01*
G01X-2020762Y7187740D01*
G01X-2020277Y7190094D01*
G01X-2020238Y7192487D01*
G01X-2020861Y7197671D01*
G01X-2021353Y7203863D01*
G37*
G36*
G01X-2465969Y5571614D02*
G01X-2437634Y5543381D01*
G01X-2442359Y5539349D01*
G01X-2446466Y5536118D01*
G01X-2448129Y5534396D01*
G01X-2449448Y5532386D01*
G01X-2450361Y5529925D01*
G01X-2450803Y5526851D01*
G01X-2482476Y5558422D01*
G01X-2479401Y5558874D01*
G01X-2476942Y5559792D01*
G01X-2474936Y5561115D01*
G01X-2473220Y5562780D01*
G01X-2469999Y5566886D01*
G01X-2465969Y5571614D01*
G37*
G36*
G01X-6728663Y6892956D02*
G01X-6756947Y6921241D01*
G01X-6752221Y6925271D01*
G01X-6748114Y6928497D01*
G01X-6746450Y6930216D01*
G01X-6745129Y6932224D01*
G01X-6744214Y6934684D01*
G01X-6743767Y6937759D01*
G01X-6712144Y6906136D01*
G01X-6715220Y6905690D01*
G01X-6717679Y6904774D01*
G01X-6719687Y6903453D01*
G01X-6721407Y6901789D01*
G01X-6724632Y6897682D01*
G01X-6728663Y6892956D01*
G37*
G36*
G01X-10115757Y6732487D02*
G01X-10115757Y6772487D01*
G01X-10109565Y6771996D01*
G01X-10104380Y6771373D01*
G01X-10101988Y6771412D01*
G01X-10099634Y6771897D01*
G01X-10097247Y6772989D01*
G01X-10094757Y6774848D01*
G01X-10094757Y6730127D01*
G01X-10097247Y6731985D01*
G01X-10099634Y6733078D01*
G01X-10101988Y6733563D01*
G01X-10104380Y6733602D01*
G01X-10109565Y6732979D01*
G01X-10115757Y6732487D01*
G37*
G36*
G01X-10055560Y6794869D02*
G01X-10031077Y6762783D01*
G01X-10035965Y6758789D01*
G01X-10040101Y6756024D01*
G01X-10041817Y6754560D01*
G01X-10043261Y6752751D01*
G01X-10044405Y6750380D01*
G01X-10045221Y6747230D01*
G01X-10072814Y6782424D01*
G01X-10069753Y6782530D01*
G01X-10067221Y6783227D01*
G01X-10065084Y6784426D01*
G01X-10063204Y6786039D01*
G01X-10059679Y6790156D01*
G01X-10055560Y6794869D01*
G37*
G36*
G01X-6094373Y7874953D02*
G01X-6122657Y7846669D01*
G01X-6126688Y7851395D01*
G01X-6129913Y7855501D01*
G01X-6131632Y7857166D01*
G01X-6133640Y7858487D01*
G01X-6136100Y7859402D01*
G01X-6139175Y7859849D01*
G01X-6107553Y7891471D01*
G01X-6107106Y7888396D01*
G01X-6106191Y7885936D01*
G01X-6104870Y7883928D01*
G01X-6103205Y7882209D01*
G01X-6099099Y7878984D01*
G01X-6094373Y7874953D01*
G37*
G36*
G01X-6092006Y7619299D02*
G01X-6132006Y7619299D01*
G01X-6131514Y7625491D01*
G01X-6130891Y7630676D01*
G01X-6130930Y7633068D01*
G01X-6131416Y7635422D01*
G01X-6132508Y7637809D01*
G01X-6134366Y7640299D01*
G01X-6089645Y7640299D01*
G01X-6091504Y7637809D01*
G01X-6092596Y7635422D01*
G01X-6093082Y7633068D01*
G01X-6093121Y7630676D01*
G01X-6092498Y7625491D01*
G01X-6092006Y7619299D01*
G37*
G36*
G01X-4571985Y6008278D02*
G01X-4571985Y6048278D01*
G01X-4565793Y6047786D01*
G01X-4560609Y6047163D01*
G01X-4558216Y6047202D01*
G01X-4555862Y6047688D01*
G01X-4553476Y6048780D01*
G01X-4550985Y6050639D01*
G01X-4550985Y6005917D01*
G01X-4553476Y6007776D01*
G01X-4555862Y6008868D01*
G01X-4558216Y6009354D01*
G01X-4560609Y6009393D01*
G01X-4565793Y6008770D01*
G01X-4571985Y6008278D01*
G37*
G36*
G01X-4489985Y6048278D02*
G01X-4489985Y6008278D01*
G01X-4496177Y6008770D01*
G01X-4501362Y6009393D01*
G01X-4503754Y6009354D01*
G01X-4506108Y6008868D01*
G01X-4508495Y6007776D01*
G01X-4510985Y6005917D01*
G01X-4510985Y6050639D01*
G01X-4508495Y6048780D01*
G01X-4506108Y6047688D01*
G01X-4503754Y6047202D01*
G01X-4501362Y6047163D01*
G01X-4496177Y6047786D01*
G01X-4489985Y6048278D01*
G37*
G36*
G01X-6000205Y8052805D02*
G01X-6040205Y8052805D01*
G01X-6039713Y8058997D01*
G01X-6039090Y8064181D01*
G01X-6039129Y8066574D01*
G01X-6039614Y8068928D01*
G01X-6040707Y8071314D01*
G01X-6042565Y8073805D01*
G01X-5997844Y8073805D01*
G01X-5999703Y8071314D01*
G01X-6000795Y8068928D01*
G01X-6001280Y8066574D01*
G01X-6001319Y8064181D01*
G01X-6000696Y8058997D01*
G01X-6000205Y8052805D01*
G37*
G36*
G01X-5987271Y8282958D02*
G01X-6015556Y8254674D01*
G01X-6019586Y8259400D01*
G01X-6022812Y8263507D01*
G01X-6024531Y8265171D01*
G01X-6026539Y8266492D01*
G01X-6028999Y8267407D01*
G01X-6032074Y8267854D01*
G01X-6000451Y8299477D01*
G01X-6000005Y8296401D01*
G01X-5999089Y8293942D01*
G01X-5997768Y8291934D01*
G01X-5996104Y8290214D01*
G01X-5991997Y8286989D01*
G01X-5987271Y8282958D01*
G37*
G36*
G01X-2185330Y7170892D02*
G01X-2145330Y7170892D01*
G01X-2145822Y7164700D01*
G01X-2146445Y7159516D01*
G01X-2146406Y7157123D01*
G01X-2145921Y7154769D01*
G01X-2144828Y7152383D01*
G01X-2142970Y7149892D01*
G01X-2187691Y7149892D01*
G01X-2185832Y7152383D01*
G01X-2184740Y7154769D01*
G01X-2184255Y7157123D01*
G01X-2184216Y7159516D01*
G01X-2184839Y7164700D01*
G01X-2185330Y7170892D01*
G37*
G36*
G01X-5793469Y8578762D02*
G01X-5821753Y8550478D01*
G01X-5825784Y8555204D01*
G01X-5829009Y8559311D01*
G01X-5830728Y8560975D01*
G01X-5832736Y8562296D01*
G01X-5835196Y8563211D01*
G01X-5838271Y8563658D01*
G01X-5806649Y8595280D01*
G01X-5806202Y8592205D01*
G01X-5805287Y8589745D01*
G01X-5803966Y8587737D01*
G01X-5802302Y8586018D01*
G01X-5798195Y8582793D01*
G01X-5793469Y8578762D01*
G37*
G36*
G01X-5133193Y8624012D02*
G01X-5173193Y8624012D01*
G01X-5172702Y8630204D01*
G01X-5172079Y8635389D01*
G01X-5172118Y8637781D01*
G01X-5172603Y8640135D01*
G01X-5173695Y8642522D01*
G01X-5175554Y8645012D01*
G01X-5130833Y8645012D01*
G01X-5132691Y8642522D01*
G01X-5133784Y8640135D01*
G01X-5134269Y8637781D01*
G01X-5134308Y8635389D01*
G01X-5133685Y8630204D01*
G01X-5133193Y8624012D01*
G37*
G36*
G01X-2070421Y7599549D02*
G01X-2098705Y7571265D01*
G01X-2102735Y7575991D01*
G01X-2105961Y7580098D01*
G01X-2107680Y7581762D01*
G01X-2109688Y7583083D01*
G01X-2112148Y7583998D01*
G01X-2115223Y7584445D01*
G01X-2083601Y7616068D01*
G01X-2083154Y7612993D01*
G01X-2082239Y7610533D01*
G01X-2080918Y7608525D01*
G01X-2079253Y7606806D01*
G01X-2075147Y7603580D01*
G01X-2070421Y7599549D01*
G37*
G36*
G01X-1782249Y7298595D02*
G01X-1782249Y7338595D01*
G01X-1776057Y7338103D01*
G01X-1770873Y7337480D01*
G01X-1768480Y7337519D01*
G01X-1766126Y7338005D01*
G01X-1763740Y7339097D01*
G01X-1761249Y7340955D01*
G01X-1761249Y7296234D01*
G01X-1763740Y7298093D01*
G01X-1766126Y7299185D01*
G01X-1768480Y7299671D01*
G01X-1770873Y7299709D01*
G01X-1776057Y7299087D01*
G01X-1782249Y7298595D01*
G37*
G36*
G01X-6767581Y8767464D02*
G01X-6795866Y8739180D01*
G01X-6799896Y8743906D01*
G01X-6803122Y8748013D01*
G01X-6804841Y8749677D01*
G01X-6806849Y8750998D01*
G01X-6809309Y8751913D01*
G01X-6812384Y8752360D01*
G01X-6780761Y8783983D01*
G01X-6780315Y8780908D01*
G01X-6779399Y8778448D01*
G01X-6778078Y8776440D01*
G01X-6776414Y8774721D01*
G01X-6772308Y8771495D01*
G01X-6767581Y8767464D01*
G37*
G36*
G01X-6621612Y8088904D02*
G01X-6581612Y8088904D01*
G01X-6582104Y8082712D01*
G01X-6582727Y8077527D01*
G01X-6582688Y8075135D01*
G01X-6582202Y8072781D01*
G01X-6581110Y8070394D01*
G01X-6579252Y8067904D01*
G01X-6623973Y8067904D01*
G01X-6622114Y8070394D01*
G01X-6621022Y8072781D01*
G01X-6620536Y8075135D01*
G01X-6620497Y8077527D01*
G01X-6621120Y8082712D01*
G01X-6621612Y8088904D01*
G37*
G36*
G01X-1048091Y4796395D02*
G01X-1019807Y4768111D01*
G01X-1024533Y4764080D01*
G01X-1028640Y4760854D01*
G01X-1030304Y4759135D01*
G01X-1031625Y4757127D01*
G01X-1032540Y4754667D01*
G01X-1032987Y4751592D01*
G01X-1064610Y4783215D01*
G01X-1061535Y4783662D01*
G01X-1059075Y4784577D01*
G01X-1057067Y4785898D01*
G01X-1055348Y4787562D01*
G01X-1052122Y4791669D01*
G01X-1048091Y4796395D01*
G37*
G36*
G01X-1164541Y4692260D02*
G01X-1124542Y4692260D01*
G01X-1125033Y4686068D01*
G01X-1125656Y4680883D01*
G01X-1125617Y4678491D01*
G01X-1125132Y4676137D01*
G01X-1124039Y4673751D01*
G01X-1122181Y4671260D01*
G01X-1166902Y4671260D01*
G01X-1165044Y4673751D01*
G01X-1163951Y4676137D01*
G01X-1163466Y4678491D01*
G01X-1163427Y4680883D01*
G01X-1164050Y4686068D01*
G01X-1164541Y4692260D01*
G37*
G36*
G01X-5382497Y4574359D02*
G01X-5382497Y4534359D01*
G01X-5388689Y4534851D01*
G01X-5393874Y4535474D01*
G01X-5396266Y4535435D01*
G01X-5398620Y4534949D01*
G01X-5401007Y4533857D01*
G01X-5403497Y4531998D01*
G01X-5403497Y4576720D01*
G01X-5401007Y4574861D01*
G01X-5398620Y4573769D01*
G01X-5396266Y4573283D01*
G01X-5393874Y4573244D01*
G01X-5388689Y4573867D01*
G01X-5382497Y4574359D01*
G37*
G36*
G01X-5214994Y4534359D02*
G01X-5228829Y4574359D01*
G01X-5225098Y4574058D01*
G01X-5221587Y4573349D01*
G01X-5215416Y4571871D01*
G01X-5212852Y4571683D01*
G01X-5210701Y4572250D01*
G01X-5209011Y4573863D01*
G01X-5207829Y4576812D01*
G01X-5184287Y4540185D01*
G01X-5189307Y4540757D01*
G01X-5193289Y4540482D01*
G01X-5196583Y4539600D01*
G01X-5199540Y4538345D01*
G01X-5205840Y4535672D01*
G01X-5209885Y4534727D01*
G01X-5214994Y4534359D01*
G37*
G36*
G01X-5158094Y2243729D02*
G01X-5158094Y2213729D01*
G01X-5163400Y2213177D01*
G01X-5169204Y2211645D01*
G01X-5174703Y2209314D01*
G01X-5179094Y2206368D01*
G01X-5179094Y2251089D01*
G01X-5174703Y2248144D01*
G01X-5169204Y2245813D01*
G01X-5163400Y2244280D01*
G01X-5158094Y2243729D01*
G37*
G36*
G01X-5100177Y2240132D02*
G01X-5121390Y2261345D01*
G01X-5118029Y2265486D01*
G01X-5115008Y2270674D01*
G01X-5112768Y2276211D01*
G01X-5111746Y2281399D01*
G01X-5080123Y2249776D01*
G01X-5085311Y2248754D01*
G01X-5090848Y2246514D01*
G01X-5096036Y2243493D01*
G01X-5100177Y2240132D01*
G37*
G36*
G01X-7463824Y1066794D02*
G01X-7493823Y1080614D01*
G01X-7493465Y1087899D01*
G01X-7492798Y1096025D01*
G01X-7492437Y1104123D01*
G01X-7492997Y1111321D01*
G01X-7456314Y1087794D01*
G01X-7459304Y1086623D01*
G01X-7461407Y1084888D01*
G01X-7462773Y1082662D01*
G01X-7463553Y1080020D01*
G01X-7463957Y1073789D01*
G01X-7463824Y1066794D01*
G37*
G36*
G01X-7493823Y1096714D02*
G01X-7463824Y1096714D01*
G01X-7463272Y1091408D01*
G01X-7461740Y1085604D01*
G01X-7459409Y1080105D01*
G01X-7456463Y1075714D01*
G01X-7501184Y1075714D01*
G01X-7498238Y1080105D01*
G01X-7495907Y1085604D01*
G01X-7494375Y1091408D01*
G01X-7493823Y1096714D01*
G37*
G36*
G01X-6877215Y1309501D02*
G01X-6877215Y1349501D01*
G01X-6871023Y1349009D01*
G01X-6865838Y1348386D01*
G01X-6863446Y1348425D01*
G01X-6861092Y1348911D01*
G01X-6858706Y1350003D01*
G01X-6856215Y1351861D01*
G01X-6856215Y1307140D01*
G01X-6858706Y1308999D01*
G01X-6861092Y1310091D01*
G01X-6863446Y1310577D01*
G01X-6865838Y1310616D01*
G01X-6871023Y1309993D01*
G01X-6877215Y1309501D01*
G37*
G36*
G01X-7303088Y1362169D02*
G01X-7331373Y1333884D01*
G01X-7335403Y1338611D01*
G01X-7338629Y1342717D01*
G01X-7340348Y1344381D01*
G01X-7342356Y1345702D01*
G01X-7344816Y1346618D01*
G01X-7347891Y1347064D01*
G01X-7316268Y1378687D01*
G01X-7315822Y1375612D01*
G01X-7314906Y1373152D01*
G01X-7313585Y1371144D01*
G01X-7311921Y1369425D01*
G01X-7307814Y1366199D01*
G01X-7303088Y1362169D01*
G37*
G36*
G01X-10067642Y1510822D02*
G01X-10088855Y1532035D01*
G01X-10085493Y1536177D01*
G01X-10082473Y1541365D01*
G01X-10080232Y1546901D01*
G01X-10079210Y1552089D01*
G01X-10047588Y1520467D01*
G01X-10052776Y1519445D01*
G01X-10058312Y1517204D01*
G01X-10063500Y1514184D01*
G01X-10067642Y1510822D01*
G37*
G36*
G01X-5541199Y2366231D02*
G01X-5581199Y2366231D01*
G01X-5580707Y2372423D01*
G01X-5580084Y2377608D01*
G01X-5580123Y2380000D01*
G01X-5580608Y2382354D01*
G01X-5581701Y2384741D01*
G01X-5583559Y2387231D01*
G01X-5538838Y2387231D01*
G01X-5540697Y2384741D01*
G01X-5541789Y2382354D01*
G01X-5542275Y2380000D01*
G01X-5542313Y2377608D01*
G01X-5541691Y2372423D01*
G01X-5541199Y2366231D01*
G37*
G36*
G01X-5791102Y2345831D02*
G01X-5831102Y2345831D01*
G01X-5830610Y2352023D01*
G01X-5829987Y2357208D01*
G01X-5830026Y2359600D01*
G01X-5830512Y2361954D01*
G01X-5831604Y2364341D01*
G01X-5833463Y2366831D01*
G01X-5788741Y2366831D01*
G01X-5790600Y2364341D01*
G01X-5791692Y2361954D01*
G01X-5792178Y2359600D01*
G01X-5792217Y2357208D01*
G01X-5791594Y2352023D01*
G01X-5791102Y2345831D01*
G37*
G36*
G01X-6046156Y1838357D02*
G01X-6017872Y1810072D01*
G01X-6022598Y1806042D01*
G01X-6026704Y1802816D01*
G01X-6028369Y1801097D01*
G01X-6029690Y1799089D01*
G01X-6030605Y1796629D01*
G01X-6031052Y1793554D01*
G01X-6062674Y1825177D01*
G01X-6059599Y1825623D01*
G01X-6057139Y1826539D01*
G01X-6055131Y1827860D01*
G01X-6053412Y1829524D01*
G01X-6050187Y1833631D01*
G01X-6046156Y1838357D01*
G37*
G36*
G01X-6622212Y6076749D02*
G01X-6622212Y6116748D01*
G01X-6616020Y6116257D01*
G01X-6610835Y6115634D01*
G01X-6608443Y6115673D01*
G01X-6606089Y6116158D01*
G01X-6603702Y6117251D01*
G01X-6601212Y6119109D01*
G01X-6601212Y6074388D01*
G01X-6603702Y6076247D01*
G01X-6606089Y6077339D01*
G01X-6608443Y6077824D01*
G01X-6610835Y6077863D01*
G01X-6616020Y6077240D01*
G01X-6622212Y6076749D01*
G37*
G36*
G01X-2328132Y4548552D02*
G02X-2488132Y4307648I-261358J0D01*
G01X-2488132Y4307648D01*
G01X-2302387Y4247648D01*
G01X-2128132Y4307648D01*
G01X-2128132Y4307648D01*
G02X-2288132Y4548552I101358J240904D01*
G01X-2288132Y4548552D01*
G01X-2328132Y4548552D01*
G37*
G36*
G01X-9837856Y6869389D02*
G02X-9957856Y6989388I0J120000D01*
G01X-9997808Y6853114D01*
G01X-10082624Y6767804D01*
G01X-10049324Y6744536D01*
G01X-10049324Y6744536D01*
G02X-9844472Y6829389I204852J-204852D01*
G01X-9844472Y6829389D01*
G01X-9837856Y6869389D01*
G37*
G36*
G01X-4296985Y6247949D02*
G02X-4336985Y6127949I-200000J0D01*
G01X-4277035Y6107949D01*
G01X-4216985Y6127949D01*
G01X-4216985Y6127949D01*
G02X-4256985Y6247949I160000J120000D01*
G01X-4256985Y6247949D01*
G01X-4296985Y6247949D01*
G37*
G36*
G01X-6701709Y6680086D02*
G03X-6401709Y6780086I0J500000D01*
G01X-6351709Y6634599D01*
G01X-6401709Y6480086D01*
G01X-6401709Y6480086D01*
G03X-6701709Y6580086I-300000J-400000D01*
G01X-6701709Y6680086D01*
G37*
G04 TearDrop End*

G04 Pad Start*
G54D10*
G01X-4063413Y3748682D03*
G54D11*
G01X-4317413Y3748682D03*
G54D12*
G01X-9659438Y245542D03*
G01X-9913438Y245542D03*
G54D13*
G01X-10167438Y245542D03*
G54D12*
G01X-8221912Y10462904D03*
G01X-7967912Y10462904D03*
G54D14*
G01X-7713912Y10462904D03*
G54D15*
G01X-276121Y9476482D03*
G01X-276121Y9222482D03*
G54D16*
G01X-276121Y8968482D03*
G54D15*
G01X-249903Y3611338D03*
G01X-249903Y3357338D03*
G54D16*
G01X-249903Y3103338D03*
G54D17*
G01X-8540641Y484506D03*
G01X-9048641Y484506D03*
G54D18*
G01X-10206546Y8717362D03*
G54D20*
G01X-10460546Y8717362D03*
G01X-10714546Y8717362D03*
G01X-10968546Y8717362D03*
G01X-11222546Y8717362D03*
G01X-11476546Y8717362D03*
G01X-11730546Y8717362D03*
G01X-11984546Y8717362D03*
G54D18*
G01X-10206546Y9997362D03*
G54D20*
G01X-10460546Y9997362D03*
G01X-10714546Y9997362D03*
G01X-10968546Y9997362D03*
G01X-11222546Y9997362D03*
G01X-11476546Y9997362D03*
G01X-11730546Y9997362D03*
G01X-11984546Y9997362D03*
G54D21*
G01X-13120272Y8883496D03*
G54D15*
G01X-13120272Y8629496D03*
G01X-13120272Y8375496D03*
G01X-13120272Y8121496D03*
G54D22*
G01X-276121Y8022198D03*
G54D23*
G01X-276121Y8276198D03*
G54D18*
G01X-10206546Y7025662D03*
G54D20*
G01X-10460546Y7025662D03*
G01X-10714546Y7025662D03*
G01X-10968546Y7025662D03*
G01X-11222546Y7025662D03*
G01X-11476546Y7025662D03*
G01X-11730546Y7025662D03*
G01X-11984546Y7025662D03*
G54D18*
G01X-10206546Y8305662D03*
G54D20*
G01X-10460546Y8305662D03*
G01X-10714546Y8305662D03*
G01X-10968546Y8305662D03*
G01X-11222546Y8305662D03*
G01X-11476546Y8305662D03*
G01X-11730546Y8305662D03*
G01X-11984546Y8305662D03*
G54D18*
G01X-10206546Y5333962D03*
G54D20*
G01X-10460546Y5333962D03*
G01X-10714546Y5333962D03*
G01X-10968546Y5333962D03*
G01X-11222546Y5333962D03*
G01X-11476546Y5333962D03*
G01X-11730546Y5333962D03*
G01X-11984546Y5333962D03*
G54D18*
G01X-10206546Y6629462D03*
G54D20*
G01X-10460546Y6629462D03*
G01X-10714546Y6629462D03*
G01X-10968546Y6629462D03*
G01X-11222546Y6629462D03*
G01X-11476546Y6629462D03*
G01X-11730546Y6629462D03*
G01X-11984546Y6629462D03*
G54D21*
G01X-13120272Y7565185D03*
G54D15*
G01X-13120272Y7311185D03*
G01X-13120272Y7057185D03*
G01X-13120272Y6803185D03*
G54D21*
G01X-13120272Y6246874D03*
G54D15*
G01X-13120272Y5992874D03*
G01X-13120272Y5738874D03*
G01X-13120272Y5484874D03*
G01X-249903Y2563623D03*
G01X-249903Y2309623D03*
G54D16*
G01X-249903Y2055623D03*
G54D12*
G01X-7053512Y10551804D03*
G01X-6799512Y10551804D03*
G54D14*
G01X-6545512Y10551804D03*
G54D12*
G01X-10713269Y245542D03*
G01X-10967269Y245542D03*
G54D13*
G01X-11221269Y245542D03*
G54D24*
G01X-1743649Y10263841D03*
G01X-1743649Y10513828D03*
G01X-1993661Y10263841D03*
G01X-1993661Y10513828D03*
G01X-2243648Y10263841D03*
G01X-2243648Y10513828D03*
G01X-2493660Y10263841D03*
G01X-2493660Y10513828D03*
G01X-2743647Y10263841D03*
G54D25*
G01X-2743647Y10513828D03*
G54D24*
G01X-1493662Y10513828D03*
G01X-1493662Y10263841D03*
G54D26*
G01X-11038168Y4227537D03*
G01X-10784168Y4227537D03*
G01X-11038168Y3973537D03*
G01X-10784168Y3973537D03*
G01X-11038168Y3719537D03*
G01X-10784168Y3719537D03*
G01X-11038168Y3465537D03*
G01X-10784168Y3465537D03*
G01X-11038168Y3211537D03*
G01X-10784168Y3211537D03*
G01X-11038168Y2957537D03*
G01X-10784168Y2957537D03*
G01X-11038168Y2703537D03*
G01X-10784168Y2703537D03*
G01X-11038168Y2449537D03*
G01X-10784168Y2449537D03*
G01X-11038168Y2195537D03*
G01X-10784168Y2195537D03*
G01X-11038168Y1941537D03*
G01X-10784168Y1941537D03*
G01X-11038168Y1687537D03*
G01X-10784168Y1687537D03*
G01X-11038168Y1433537D03*
G01X-10784168Y1433537D03*
G54D14*
G01X-9682052Y10608137D03*
G54D12*
G01X-9936052Y10608137D03*
G01X-10190052Y10608137D03*
G01X-10444052Y10608137D03*
G54D22*
G01X-2358357Y8022198D03*
G54D23*
G01X-2358357Y8276198D03*
G54D22*
G01X-1363844Y8022198D03*
G54D23*
G01X-1363844Y8276198D03*
G54D27*
G01X-3974577Y10490836D03*
G54D11*
G01X-3720577Y10490836D03*
G54D28*
G01X-4534580Y6273081D03*
G54D29*
G01X-4280580Y6273081D03*
G01X-4026580Y6273081D03*
G01X-3772580Y6273081D03*
G54D16*
G01X-252030Y4146354D03*
G54D15*
G01X-252030Y4400354D03*
G01X-252030Y4654354D03*
G01X-252030Y4908354D03*
G54D30*
G01X-13139897Y3375742D03*
G54D23*
G01X-13139897Y3121742D03*
G54D30*
G01X-13139897Y2549531D03*
G54D23*
G01X-13139897Y2295531D03*
G54D30*
G01X-9437249Y6190978D03*
G54D23*
G01X-9437249Y5936978D03*
G54D21*
G01X-9478049Y9771726D03*
G54D15*
G01X-9478049Y9517726D03*
G01X-9478049Y9263726D03*
G01X-9478049Y9009726D03*
G54D31*
G01X-5107108Y254110D03*
G01X-6311093Y254110D03*
G54D24*
G01X-5584094Y525103D03*
G01X-5834107Y525103D03*
G01X-5834107Y725102D03*
G01X-5584094Y725102D03*
G54D32*
G01X-6663725Y339100D03*
G01X-7977718Y339100D03*
G54D26*
G01X-7670733Y589112D03*
G01X-7420797Y589112D03*
G01X-7220645Y589112D03*
G01X-6970709Y589112D03*
G04 Pad End*

G04 Via Start*
G54D33*
G01X-3690250Y3885543D03*
G01X-3771851Y3972244D03*
G01X-1084116Y5043258D03*
G01X-3404646Y2610527D03*
G01X-359907Y5140159D03*
G01X-2818139Y2534026D03*
G01X-2088829Y4135446D03*
G01X-3108843Y2738028D03*
G01X-1395220Y5145259D03*
G01X-1538022Y4839255D03*
G01X-1476822Y5685866D03*
G01X-1599223Y5293161D03*
G01X-1252419Y5211560D03*
G01X-1589023Y5150360D03*
G01X-2188281Y4127796D03*
G01X-2874240Y3446937D03*
G01X-2476434Y2987932D03*
G01X-2134730Y2748228D03*
G01X-3312845Y3293936D03*
G01X-3394446Y3732541D03*
G01X-3384246Y3829442D03*
G01X-2583536Y3875343D03*
G01X-2425434Y4135446D03*
G01X-1589023Y4064045D03*
G01X-3807552Y4135446D03*
G01X-497609Y4767855D03*
G01X-1028016Y3783542D03*
G01X-1729714Y5165660D03*
G01X-1466621Y3049132D03*
G01X-3251644Y3900843D03*
G01X-3470947Y4120146D03*
G01X-2476434Y3115433D03*
G01X-2552935Y2753329D03*
G01X-3491348Y3003232D03*
G01X-2374433Y5771953D03*
G01X-1706325Y5798068D03*
G01X-1012716Y7435189D03*
G01X-971915Y7588191D03*
G01X-2501935Y8858108D03*
G01X-2083729Y8883608D03*
G01X-859714Y7634092D03*
G01X-767912Y7669792D03*
G01X-1645124Y9016210D03*
G01X-3154743Y5073859D03*
G01X-2588636Y7282187D03*
G01X-2542735Y7134285D03*
G01X-2869140Y7152548D03*
G01X-2869140Y6445776D03*
G01X-2532535Y6726280D03*
G01X-2864039Y7343388D03*
G01X-3022142Y7343388D03*
G01X-3463297Y5050908D03*
G01X-5092768Y6180573D03*
G01X-5067269Y5843969D03*
G01X-4715363Y3941644D03*
G01X-4786764Y4013045D03*
G01X-5220270Y6170373D03*
G01X-5194770Y5833768D03*
G01X-956615Y5925570D03*
G01X-1150417Y4466951D03*
G01X-1925627Y3441837D03*
G01X-2374433Y3416337D03*
G01X-1354420Y4818855D03*
G01X-594510Y4793355D03*
G01X-2002128Y7022084D03*
G01X-3001741Y3028732D03*
G01X-2823239Y2998132D03*
G01X-1339120Y3870243D03*
G01X-1726725Y3497938D03*
G01X-2078629Y3110333D03*
G01X-2981341Y3395937D03*
G01X-3215944Y3054232D03*
G01X-3705550Y2875730D03*
G01X-4490961Y2891030D03*
G01X-1679045Y6825757D03*
G01X-1612745Y6948159D03*
G01X-1583844Y6825757D03*
G01X-1517543Y6948159D03*
G01X-1488643Y6825757D03*
G01X-1422342Y6948159D03*
G01X-1393442Y6825757D03*
G01X-1327141Y6948159D03*
G01X-1699446Y6591154D03*
G01X-1633145Y6713556D03*
G01X-1604244Y6591154D03*
G01X-1537944Y6713556D03*
G01X-1509043Y6591154D03*
G01X-1442742Y6713556D03*
G01X-1413842Y6591154D03*
G01X-1347541Y6713556D03*
G01X-1684145Y6351451D03*
G01X-1617845Y6473852D03*
G01X-1588944Y6351451D03*
G01X-1522643Y6473852D03*
G01X-1493743Y6351451D03*
G01X-1427442Y6473852D03*
G01X-1398542Y6351451D03*
G01X-1332241Y6473852D03*
G01X-1643345Y6086247D03*
G01X-1577044Y6208649D03*
G01X-1548144Y6086247D03*
G01X-1481843Y6208649D03*
G01X-1452942Y6086247D03*
G01X-1386642Y6208649D03*
G01X-1357741Y6086247D03*
G01X-1291440Y6208649D03*
G01X-1189439Y6565654D03*
G01X-1123138Y6688055D03*
G01X-1094238Y6565654D03*
G01X-1027937Y6688055D03*
G01X-999037Y6565654D03*
G01X-932736Y6688055D03*
G01X-903835Y6565654D03*
G01X-837535Y6688055D03*
G01X-1092538Y6346351D03*
G01X-1026237Y6468752D03*
G01X-997337Y6346351D03*
G01X-931036Y6468752D03*
G01X-902135Y6346351D03*
G01X-835834Y6468752D03*
G01X-806934Y6346351D03*
G01X-740633Y6468752D03*
G01X-516230Y5979146D03*
G01X-449930Y6101548D03*
G01X-421029Y5979146D03*
G01X-354728Y6101548D03*
G01X-325828Y5979146D03*
G01X-259527Y6101548D03*
G01X-230627Y5979146D03*
G01X-164326Y6101548D03*
G01X-674332Y5719043D03*
G01X-608032Y5841444D03*
G01X-579131Y5719043D03*
G01X-512830Y5841444D03*
G01X-483930Y5719043D03*
G01X-417629Y5841444D03*
G01X-388729Y5719043D03*
G01X-322428Y5841444D03*
G01X-5876400Y4423626D03*
G01X-5825399Y4347125D03*
G01X-5781198Y4423626D03*
G01X-5730198Y4347125D03*
G01X-5685997Y4423626D03*
G01X-5634997Y4347125D03*
G01X-5590796Y4423626D03*
G01X-5539795Y4347125D03*
G01X-6595509Y4301224D03*
G01X-6248705Y4367525D03*
G01X-6536008Y4362425D03*
G01X-6938913Y4393026D03*
G01X-6440807Y4362425D03*
G01X-6828412Y4398126D03*
G01X-6345606Y4362425D03*
G01X-6702610Y4387925D03*
G01X-2699133Y4455250D03*
G01X-3277145Y4109946D03*
G01X-3047642Y4120146D03*
G01X-2540123Y4127859D03*
G01X-2588636Y4676053D03*
G01X-2971141Y4558752D03*
G01X-1997028Y3880443D03*
G01X-2425434Y3232735D03*
G01X-2364233Y3283735D03*
G01X-2313232Y3528539D03*
G01X-2323432Y3681541D03*
G01X-6502962Y4886935D03*
G01X-6502962Y4982136D03*
G01X-6441762Y4926035D03*
G01X-6502962Y5077337D03*
G01X-6441762Y5021237D03*
G01X-6502962Y5172539D03*
G01X-6441762Y5116438D03*
G01X-4217336Y4668378D03*
G01X-4327837Y4663277D03*
G01X-4443439Y4647977D03*
G01X-4196935Y4581676D03*
G01X-3014517Y6937161D03*
G01X-2254607Y6753559D03*
G01X-3014517Y7032363D03*
G01X-3136919Y7098663D03*
G01X-3014517Y7127564D03*
G01X-3136919Y7193865D03*
G01X-3014517Y7222765D03*
G01X-3136919Y7289066D03*
G01X-3029577Y6364718D03*
G01X-3151978Y6431019D03*
G01X-3029577Y6459919D03*
G01X-3151978Y6526220D03*
G01X-3029577Y6555120D03*
G01X-3151978Y6621421D03*
G01X-3029577Y6650321D03*
G01X-3151978Y6716622D03*
G01X-1412142Y9130987D03*
G01X-1401942Y9217688D03*
G01X-1560044Y9238088D03*
G54D34*
G01X-6946473Y3854111D03*
G01X-6882779Y3854111D03*
G01X-6819084Y3854111D03*
G01X-6755390Y3854111D03*
G01X-6946473Y3792079D03*
G01X-6882779Y3792079D03*
G01X-6819084Y3792079D03*
G01X-6755390Y3792079D03*
G01X-6946473Y3730046D03*
G01X-6882779Y3730046D03*
G01X-6819084Y3730046D03*
G01X-6755390Y3730046D03*
G01X-6946473Y3668013D03*
G01X-6882779Y3668013D03*
G01X-6819084Y3668013D03*
G01X-6755390Y3668013D03*
G01X-6946473Y3605981D03*
G01X-6882779Y3605981D03*
G01X-6819084Y3605981D03*
G01X-6755390Y3605981D03*
G54D33*
G01X-7248317Y3990120D03*
G01X-7153116Y3990120D03*
G01X-7057915Y3990120D03*
G01X-7166716Y4097222D03*
G01X-6811412Y4010521D03*
G01X-6925313Y4015621D03*
G01X-7171816Y4336925D03*
G01X-7061315Y4418526D03*
G01X-6496908Y4270624D03*
G01X-7257772Y3693519D03*
G01X-7257772Y3788721D03*
G01X-7257772Y3883922D03*
G01X-7267972Y3413016D03*
G01X-7267972Y3508217D03*
G01X-7267972Y3603418D03*
G01X-7184636Y3440073D03*
G01X-7089435Y3440073D03*
G01X-6994234Y3440073D03*
G01X-7462520Y3592315D03*
G01X-7219417Y3281211D03*
G01X-7124216Y3281211D03*
G01X-7038543Y3343091D03*
G01X-6943342Y3343091D03*
G01X-6848141Y3343091D03*
G01X-7365619Y3495414D03*
G01X-7336719Y4122722D03*
G01X-6874313Y3424013D03*
G01X-7520220Y3693772D03*
G01X-7520220Y3788973D03*
G01X-7520220Y3884174D03*
G01X-7443553Y3740160D03*
G01X-7443553Y3835362D03*
G01X-7443553Y3930563D03*
G01X-7352490Y3678651D03*
G01X-7352490Y3773852D03*
G01X-7352490Y3869053D03*
G01X-7227917Y2648803D03*
G01X-7132716Y2648803D03*
G01X-7037515Y2648803D03*
G01X-7229538Y2569778D03*
G01X-7134337Y2569778D03*
G01X-7039136Y2569778D03*
G01X-7318602Y3991433D03*
G01X-7119699Y4188636D03*
G01X-7048298Y4263437D03*
G01X-5386048Y10551408D03*
G01X-5731715Y10551408D03*
G01X-5616492Y10551408D03*
G01X-5501270Y10551408D03*
G01X-5846937Y10551408D03*
G01X-5962159Y10551408D03*
G01X-6077382Y10551408D03*
G01X-6192604Y10551408D03*
G01X-4701501Y10551408D03*
G01X-4816724Y10551408D03*
G01X-4931946Y10551408D03*
G01X-5047168Y10551408D03*
G01X-5162390Y10551408D03*
G01X-4840341Y10429007D03*
G01X-5186008Y10429007D03*
G01X-5070785Y10429007D03*
G01X-4955563Y10429007D03*
G01X-5301230Y10429007D03*
G01X-5416452Y10429007D03*
G01X-5531674Y10429007D03*
G01X-5646897Y10429007D03*
G01X-3226445Y10755411D03*
G01X-3341667Y10755411D03*
G01X-179973Y9656260D03*
G01X-418538Y9748061D03*
G01X-303316Y9748061D03*
G01X-269695Y8809649D03*
G01X-533761Y9748061D03*
G01X-648983Y9748061D03*
G01X-764205Y9748061D03*
G01X-147449Y8702547D03*
G01X-493116Y8702547D03*
G01X-377894Y8702547D03*
G01X-262672Y8702547D03*
G01X-608338Y8702547D03*
G01X-723561Y8702547D03*
G01X-328776Y8564846D03*
G01X-433798Y8824949D03*
G01X-81979Y3941723D03*
G01X-427646Y3941723D03*
G01X-781630Y3788721D03*
G01X-885710Y3783621D03*
G01X-542868Y3941723D03*
G01X-658091Y3941723D03*
G01X-579510Y3834621D03*
G01X-704933Y3855022D03*
G01X-850952Y3258314D03*
G01X-950874Y3110412D03*
G01X-1804664Y3360315D03*
G01X-1771984Y3253214D03*
G01X-734592Y3033911D03*
G01X-849814Y3033911D03*
G01X-965036Y3033911D03*
G01X-71779Y2916609D03*
G01X-453146Y2049598D03*
G01X-302224Y2916609D03*
G01X-187001Y2916609D03*
G01X-1715884Y3100212D03*
G01X-1831106Y3100212D03*
G01X-763113Y2916609D03*
G01X-699833Y2835008D03*
G01X-662249Y1886396D03*
G01X-740829Y1845595D03*
G01X-155263Y1901696D03*
G01X-270486Y1901696D03*
G01X-385708Y1901696D03*
G01X-500930Y1901696D03*
G01X-1050992Y1702794D03*
G01X-1166214Y1702794D03*
G01X-935573Y1794595D03*
G01X-970077Y1911655D03*
G01X-848872Y1957797D03*
G01X-6321464Y2805547D03*
G01X-6255163Y2927948D03*
G01X-6226263Y2805547D03*
G01X-6159962Y2927948D03*
G01X-6131061Y2805547D03*
G01X-6064761Y2927948D03*
G01X-6035860Y2805547D03*
G01X-5969559Y2927948D03*
G01X-6311264Y3004449D03*
G01X-6311264Y2662745D03*
G01X-5808057Y2984049D03*
G01X-6216062Y2662745D03*
G01X-7386260Y3607412D03*
G01X-5651655Y3004449D03*
G01X-5993300Y10661481D03*
G01X-5714497Y10671681D03*
G01X-6114002Y10661481D03*
G01X-5476856Y10250347D03*
G01X-5246411Y10250347D03*
G01X-5131189Y10250347D03*
G01X-5015967Y10250347D03*
G01X-4900745Y10250347D03*
G01X-5361634Y10250347D03*
G01X-5707300Y10250347D03*
G01X-5592078Y10250347D03*
G01X-84582Y9359497D03*
G01X-84582Y9129052D03*
G01X-84582Y9013830D03*
G01X-84582Y8898608D03*
G01X-84582Y8783385D03*
G01X-84582Y9244274D03*
G01X-84582Y9589941D03*
G01X-84582Y9474719D03*
G01X-79482Y8339483D03*
G01X-79482Y8109039D03*
G01X-79482Y7993817D03*
G01X-79482Y7878594D03*
G01X-79482Y7763372D03*
G01X-79482Y8224261D03*
G01X-171283Y8569928D03*
G01X-79482Y8454706D03*
G01X-5572096Y3475014D03*
G01X-5476895Y3475014D03*
G01X-5381693Y3475014D03*
G01X-5596445Y3603497D03*
G01X-5501244Y3603497D03*
G01X-5406042Y3603497D03*
G01X-5582296Y3714717D03*
G01X-5487095Y3714717D03*
G01X-5391893Y3714717D03*
G01X-5149544Y3586493D03*
G01X-5151244Y3815996D03*
G01X-5056043Y3815996D03*
G01X-5235491Y3531114D03*
G01X-5079089Y3704517D03*
G01X-5315392Y3546415D03*
G01X-5495595Y3398513D03*
G01X-5400394Y3398513D03*
G01X-5305192Y3398513D03*
G01X-4725485Y3469914D03*
G01X-4645584Y3531114D03*
G01X-4720385Y3352612D03*
G01X-4645584Y3413813D03*
G01X-4560583Y3449513D03*
G01X-4559837Y4400729D03*
G01X-4559837Y4495930D03*
G01X-4539437Y4586031D03*
G01X-3649371Y4673529D03*
G01X-3554170Y4673529D03*
G01X-3458968Y4673529D03*
G01X-2591212Y4808734D03*
G01X-2591212Y4903935D03*
G01X-2591212Y4999136D03*
G01X-2035305Y5038237D03*
G01X-2035305Y5133438D03*
G01X-2035305Y5228639D03*
G01X-1415542Y5938346D03*
G01X-1320341Y5938346D03*
G01X-1225140Y5938346D03*
G01X-1175839Y6096448D03*
G01X-1080638Y6096448D03*
G01X-985436Y6096448D03*
G01X-1191139Y6784956D03*
G01X-1095938Y6784956D03*
G01X-1000737Y6784956D03*
G01X-1129938Y6892058D03*
G01X-1034737Y6892058D03*
G01X-939536Y6892058D03*
G01X-823934Y6820657D03*
G01X-728733Y6820657D03*
G01X-633532Y6820657D03*
G01X-64025Y7657068D03*
G01X-244227Y7662168D03*
G01X-149026Y7662168D03*
G01X-227227Y7361264D03*
G01X-132025Y7361264D03*
G01X-72525Y7514266D03*
G01X-2527356Y6402452D03*
G01X-3207365Y6943059D03*
G01X-3112164Y6943059D03*
G01X-2660059Y6949729D03*
G01X-2498557Y6240819D03*
G01X-2403356Y6240819D03*
G01X-2081973Y6982905D03*
G01X-1900071Y6982905D03*
G01X-2258775Y6671801D03*
G01X-2506034Y6824803D03*
G01X-2557979Y6289296D03*
G01X-2503578Y6931904D03*
G01X-2756859Y6948159D03*
G01X-2376054Y7351064D03*
G01X-2270653Y7351064D03*
G01X-2257053Y6977882D03*
G01X-2437255Y6605577D03*
G01X-2260453Y6870781D03*
G01X-1696046Y6917558D03*
G01X-2416855Y7131761D03*
G01X-2097251Y6897158D03*
G01X-2144930Y5864369D03*
G01X-2376983Y5295712D03*
G01X-11557873Y5652742D03*
G01X-11462672Y5652742D03*
G01X-11367471Y5652742D03*
G01X-11272270Y5652742D03*
G01X-3177341Y5736545D03*
G01X-5490573Y5981348D03*
G01X-1090609Y9289055D03*
G01X-1142446Y9141034D03*
G01X-1111845Y9217535D03*
G01X-1086345Y9441938D03*
G01X-987084Y9441275D03*
G01X-3492969Y6999159D03*
G01X-3288966Y6988959D03*
G01X-3498069Y6341251D03*
G01X-3411368Y6300450D03*
G01X-2864039Y6761980D03*
G01X-3396068Y7004259D03*
G01X-3426668Y6927758D03*
G01X-3033963Y7458165D03*
G01X-3114161Y7390865D03*
G01X-2860561Y6647255D03*
G01X-1344220Y8541903D03*
G01X-686311Y8873408D03*
G01X-11251181Y9002395D03*
G01X-11358282Y9012595D03*
G01X-11506184Y8961594D03*
G01X-11618385Y8936094D03*
G01X-11888689Y8930994D03*
G01X-10252853Y7902664D03*
G01X-10227353Y7989366D03*
G01X-10150852Y7912865D03*
G01X-1331844Y4681361D03*
G01X-1559549Y4667362D03*
G01X-1571548Y4553859D03*
G01X-1324079Y4533310D03*
G01X-204730Y5099566D03*
G01X-296531Y5043465D03*
G01X-128134Y5020862D03*
G01X-225130Y5237268D03*
G01X-112929Y5257668D03*
G01X-107829Y5145467D03*
G01X-209830Y5655473D03*
G01X-271031Y5737074D03*
G01X-153729Y5757475D03*
G01X-199043Y5868147D03*
G01X-765737Y5798275D03*
G01X-811638Y5701374D03*
G01X-311831Y6236881D03*
G01X-169029Y6231781D03*
G01X-204730Y6354182D03*
G01X-189430Y6966190D03*
G01X-189430Y6838689D03*
G01X-189430Y6711187D03*
G01X-194530Y6583685D03*
G01X-184330Y6466384D03*
G01X-668836Y6695887D03*
G01X-673936Y6588785D03*
G01X-1250928Y6374261D03*
G01X-1163542Y6211381D03*
G01X-775937Y6930490D03*
G01X-663736Y6930490D03*
G01X-643336Y6481684D03*
G01X-1036041Y6201180D03*
G01X-2001353Y7162864D03*
G01X-2262153Y7100284D03*
G01X-2480759Y5528472D03*
G01X-6004904Y5487671D03*
G01X-6713814Y6936090D03*
G01X-10074757Y6752487D03*
G01X-6137506Y7889802D03*
G01X-6112006Y7660299D03*
G01X-4530985Y6028278D03*
G01X-6020205Y8093805D03*
G01X-6030405Y8297807D03*
G01X-2165330Y7129892D03*
G01X-5836602Y8593611D03*
G01X-5153193Y8665012D03*
G01X-6331309Y8716982D03*
G01X-5637700Y9006717D03*
G01X-1272819Y9654425D03*
G01X-3791476Y4773662D03*
G01X-3633374Y9001616D03*
G01X-2113554Y7614399D03*
G01X-1741249Y7318595D03*
G01X-9916655Y6619886D03*
G01X-7050418Y8455909D03*
G01X-6701064Y8305458D03*
G01X-6810715Y8782314D03*
G01X-6601612Y8047904D03*
G01X-12843090Y3995220D03*
G01X-12792089Y3918719D03*
G01X-12747889Y3995220D03*
G01X-12696888Y3918719D03*
G01X-13040292Y3990120D03*
G01X-12989292Y3913619D03*
G01X-12945091Y3990120D03*
G01X-12894091Y3913619D03*
G01X-4798585Y7025613D03*
G01X-4747585Y6949112D03*
G01X-4703384Y7025613D03*
G01X-4652383Y6949112D03*
G01X-4608183Y7025613D03*
G01X-4557182Y6949112D03*
G01X-4512982Y7025613D03*
G01X-4461981Y6949112D03*
G01X-7351981Y7155610D03*
G01X-7300981Y7079109D03*
G01X-7256780Y7155610D03*
G01X-7205779Y7079109D03*
G01X-7161579Y7155610D03*
G01X-7110578Y7079109D03*
G01X-7066378Y7155610D03*
G01X-7015377Y7079109D03*
G01X-4611583Y8156874D03*
G01X-4560583Y8080373D03*
G01X-4516382Y8156874D03*
G01X-4465381Y8080373D03*
G01X-4421181Y8156874D03*
G01X-4370180Y8080373D03*
G01X-4325980Y8156874D03*
G01X-4274979Y8080373D03*
G01X-4708485Y8462878D03*
G01X-4657484Y8386377D03*
G01X-4613283Y8462878D03*
G01X-4562283Y8386377D03*
G01X-4518082Y8462878D03*
G01X-4467081Y8386377D03*
G01X-4422881Y8462878D03*
G01X-4371880Y8386377D03*
G01X-4611583Y9380890D03*
G01X-4560583Y9304389D03*
G01X-4516382Y9380890D03*
G01X-4465381Y9304389D03*
G01X-4421181Y9380890D03*
G01X-4370180Y9304389D03*
G01X-4325980Y9380890D03*
G01X-4274979Y9304389D03*
G01X-13021592Y4872432D03*
G01X-13011392Y4729630D03*
G01X-12955291Y4994833D03*
G01X-13302687Y5025390D03*
G01X-13292487Y4918289D03*
G01X-13282287Y4775487D03*
G01X-13253386Y4653085D03*
G01X-13226186Y5040690D03*
G01X-13197286Y4918289D03*
G01X-13187086Y4775487D03*
G01X-13158185Y4653085D03*
G01X-13130985Y5040690D03*
G01X-13116793Y4872432D03*
G01X-13106593Y4729630D03*
G01X-13077693Y4607228D03*
G01X-13050493Y4994833D03*
G01X-12593187Y4872432D03*
G01X-12582987Y4729630D03*
G01X-12526886Y4994833D03*
G01X-12934891Y4607228D03*
G01X-12878790Y4872432D03*
G01X-12868590Y4729630D03*
G01X-12839690Y4607228D03*
G01X-12812489Y4994833D03*
G01X-12783589Y4872432D03*
G01X-12773389Y4729630D03*
G01X-12744489Y4607228D03*
G01X-12717288Y4994833D03*
G01X-12688388Y4872432D03*
G01X-12678188Y4729630D03*
G01X-12649287Y4607228D03*
G01X-12622087Y4994833D03*
G01X-13047093Y4352225D03*
G01X-13036892Y4209423D03*
G01X-12980792Y4474627D03*
G01X-12475885Y3760617D03*
G01X-13317987Y4398082D03*
G01X-13307787Y4255280D03*
G01X-13278887Y4132879D03*
G01X-13251686Y4520484D03*
G01X-13222786Y4398082D03*
G01X-13212586Y4255280D03*
G01X-13183686Y4132879D03*
G01X-13156485Y4520484D03*
G01X-13127585Y4398082D03*
G01X-13117385Y4255280D03*
G01X-13103193Y4087022D03*
G01X-13075993Y4474627D03*
G01X-12593187Y4372625D03*
G01X-12582987Y4229823D03*
G01X-12526886Y4495027D03*
G01X-12934891Y4107422D03*
G01X-12878790Y4372625D03*
G01X-12868590Y4229823D03*
G01X-12839690Y4107422D03*
G01X-12812489Y4495027D03*
G01X-12783589Y4372625D03*
G01X-12773389Y4229823D03*
G01X-12744489Y4107422D03*
G01X-12717288Y4495027D03*
G01X-12688388Y4372625D03*
G01X-12678188Y4229823D03*
G01X-12649287Y4107422D03*
G01X-12622087Y4495027D03*
G01X-12812489Y3709617D03*
G01X-4606483Y9931697D03*
G01X-12746189Y3832018D03*
G01X-12496285Y4362425D03*
G01X-12440185Y4627629D03*
G01X-12429985Y4484827D03*
G01X-12401084Y4362425D03*
G01X-13031792Y3832018D03*
G01X-13002892Y3709617D03*
G01X-4796886Y9931697D03*
G01X-4767985Y9809296D03*
G01X-12936591Y3832018D03*
G01X-12907691Y3709617D03*
G01X-4701685Y9931697D03*
G01X-4672784Y9809296D03*
G01X-12841390Y3832018D03*
G01X-5896800Y7039960D03*
G01X-5845799Y6963459D03*
G01X-5801599Y7039960D03*
G01X-5750598Y6963459D03*
G01X-5706398Y7039960D03*
G01X-5655397Y6963459D03*
G01X-5611196Y7039960D03*
G01X-5560196Y6963459D03*
G01X-10209756Y6040347D03*
G01X-10165555Y6116848D03*
G01X-10114555Y6040347D03*
G01X-10372958Y5877145D03*
G01X-10328757Y5953646D03*
G01X-10277757Y5877145D03*
G01X-10551460Y5683342D03*
G01X-10507260Y5759843D03*
G01X-10456259Y5683342D03*
G01X-10571860Y4999933D03*
G01X-10527660Y5076434D03*
G01X-10476659Y4999933D03*
G01X-12536690Y3336899D03*
G01X-12492490Y3413400D03*
G01X-12441489Y3336899D03*
G01X-13225595Y9416591D03*
G01X-13174594Y9340090D03*
G01X-13130394Y9416591D03*
G01X-13079393Y9340090D03*
G01X-13035192Y9416591D03*
G01X-12905612Y9316848D03*
G01X-12854612Y9240347D03*
G01X-12810411Y9316848D03*
G01X-12759410Y9240347D03*
G01X-12715210Y9316848D03*
G01X-11246769Y10696707D03*
G01X-11195769Y10620206D03*
G01X-11151568Y10696707D03*
G01X-11100567Y10620206D03*
G01X-11056367Y10696707D03*
G01X-11700675Y10574305D03*
G01X-11649674Y10497805D03*
G01X-11605474Y10574305D03*
G01X-11554473Y10497805D03*
G01X-11510273Y10574305D03*
G01X-9342747Y10633504D03*
G01X-9291746Y10557003D03*
G01X-9247546Y10633504D03*
G01X-9196545Y10557003D03*
G01X-9152344Y10633504D03*
G01X-10022753Y9936797D03*
G01X-9971753Y9860296D03*
G01X-9927552Y9936797D03*
G01X-9876551Y9860296D03*
G01X-9832351Y9936797D03*
G01X-10185955Y9676694D03*
G01X-10134955Y9600193D03*
G01X-10090754Y9676694D03*
G01X-10039754Y9600193D03*
G01X-9995553Y9676694D03*
G01X-9237343Y9916397D03*
G01X-9186343Y9839896D03*
G01X-9142142Y9916397D03*
G01X-9091141Y9839896D03*
G01X-9046941Y9916397D03*
G01X-12639087Y3786118D03*
G01X-5019589Y9895997D03*
G01X-4975388Y9972498D03*
G01X-4924387Y9895997D03*
G01X-4880187Y9972498D03*
G01X-4988988Y9697094D03*
G01X-4937988Y9620593D03*
G01X-4893787Y9697094D03*
G01X-4842786Y9620593D03*
G01X-4798586Y9697094D03*
G01X-13296996Y3959520D03*
G01X-13245995Y3883019D03*
G01X-13201795Y3959520D03*
G01X-13150794Y3883019D03*
G01X-13208595Y3781018D03*
G01X-12016879Y1164684D03*
G01X-11965879Y1088183D03*
G01X-11921678Y1164684D03*
G01X-11870677Y1088183D03*
G01X-11826477Y1164684D03*
G01X-4631984Y9727695D03*
G01X-4580983Y9651194D03*
G01X-12931491Y3531114D03*
G01X-12803989Y3541314D03*
G01X-13055593Y3536214D03*
G01X-9859551Y5040734D03*
G01X-9808551Y4964233D03*
G01X-9764350Y5040734D03*
G01X-9713349Y4964233D03*
G01X-9669149Y5040734D03*
G01X-9961553Y4622528D03*
G01X-9910552Y4546027D03*
G01X-9866351Y4622528D03*
G01X-9815351Y4546027D03*
G01X-9771150Y4622528D03*
G01X-12256582Y2036795D03*
G01X-12205582Y1960294D03*
G01X-12161381Y2036795D03*
G01X-12110380Y1960294D03*
G01X-12066180Y2036795D03*
G01X-7460820Y4112522D03*
G01X-643336Y5012865D03*
G01X-722012Y4931057D03*
G01X-1062940Y4753262D03*
G01X-1144542Y4651260D03*
G01X-13301700Y5167822D03*
G01X-13206499Y5167822D03*
G01X-13102798Y5167822D03*
G01X-13007596Y5167822D03*
G01X-12903895Y5167822D03*
G01X-12808694Y5167822D03*
G01X-12715193Y5167822D03*
G01X-13017796Y5070921D03*
G01X-12888595Y5060721D03*
G01X-12497590Y4882219D03*
G01X-12516290Y4780217D03*
G01X-12543490Y4611915D03*
G01X-12470389Y4254910D03*
G01X-12375188Y4254910D03*
G01X-12531590Y4127409D03*
G01X-12436389Y4127409D03*
G01X-12507489Y5268368D03*
G01X-12150484Y4630860D03*
G01X-12568689Y5277640D03*
G01X-12507489Y5333130D03*
G01X-12781493Y5081121D03*
G01X-12679492Y5076021D03*
G01X-12574625Y5074239D03*
G01X-12485690Y4698616D03*
G01X-12582591Y3984607D03*
G01X-12358584Y2781405D03*
G01X-12307583Y2704904D03*
G01X-12263382Y2781405D03*
G01X-12212382Y2704904D03*
G01X-12168181Y2781405D03*
G01X-13220495Y2837505D03*
G01X-13169494Y2761004D03*
G01X-13125294Y2837505D03*
G01X-13074293Y2761004D03*
G01X-13030092Y2837505D03*
G01X-13220495Y2067395D03*
G01X-13169494Y1990894D03*
G01X-13125294Y2067395D03*
G01X-13074293Y1990894D03*
G01X-13030092Y2067395D03*
G01X-12761489Y2062295D03*
G01X-12710488Y1985794D03*
G01X-12666288Y2062295D03*
G01X-12615287Y1985794D03*
G01X-12571086Y2062295D03*
G01X-11981179Y1485988D03*
G01X-11930178Y1409487D03*
G01X-11885977Y1485988D03*
G01X-11834977Y1409487D03*
G01X-11790776Y1485988D03*
G01X-10578661Y782179D03*
G01X-10996866Y1057582D03*
G01X-10952665Y1134083D03*
G01X-10901665Y1057582D03*
G01X-10464759Y782179D03*
G01X-5423497Y4554359D03*
G01X-5178694Y4569659D03*
G01X-2631130Y9644225D03*
G01X-2207825Y9644225D03*
G01X-1780049Y9644225D03*
G01X-9334244Y8666881D03*
G01X-9283244Y8590380D03*
G01X-9239043Y8666881D03*
G01X-9298544Y8942284D03*
G01X-9247543Y8865783D03*
G01X-9203343Y8942284D03*
G01X-10330462Y9090186D03*
G01X-10279462Y9013685D03*
G01X-10235261Y9090186D03*
G01X-10532760Y9023885D03*
G01X-10481759Y8947384D03*
G01X-10437559Y9023885D03*
G01X-6203807Y989413D03*
G01X-6402710Y1198516D03*
G01X-5199094Y2228729D03*
G01X-5081792Y2279730D03*
G01X-7463523Y1116914D03*
G01X-7478823Y1055714D03*
G01X-6898034Y2136272D03*
G01X-6896413Y2215297D03*
G01X-6802833Y2136272D03*
G01X-6801212Y2215297D03*
G01X-6707632Y2136272D03*
G01X-6706010Y2215297D03*
G01X-7074978Y2326112D03*
G01X-7073357Y2405137D03*
G01X-6979777Y2326112D03*
G01X-6978156Y2405137D03*
G01X-6884576Y2326112D03*
G01X-6882954Y2405137D03*
G54D34*
G01X-7435975Y2157631D03*
G01X-7372281Y2157631D03*
G01X-7308586Y2157631D03*
G01X-7244892Y2157631D03*
G01X-7244892Y2095598D03*
G01X-7244892Y2033566D03*
G01X-7244892Y1971533D03*
G01X-7308586Y2033566D03*
G01X-7308586Y2095598D03*
G01X-7372281Y2095598D03*
G01X-7372281Y2033566D03*
G01X-7435975Y2095598D03*
G01X-7435975Y2033566D03*
G01X-7435975Y1971533D03*
G01X-7435975Y1909501D03*
G01X-7372281Y1971533D03*
G01X-7308586Y1971533D03*
G01X-7372281Y1909501D03*
G01X-7308586Y1909501D03*
G01X-7244892Y1909501D03*
G54D33*
G01X-6836215Y1329501D03*
G01X-7346222Y1377018D03*
G01X-10049257Y1550420D03*
G01X-5561199Y2407231D03*
G01X-5811102Y2386831D03*
G01X-6061005Y1795223D03*
G01X-6913334Y1967970D03*
G01X-6818133Y1967970D03*
G01X-6816512Y2046995D03*
G01X-6911713Y2046995D03*
G01X-6719532Y1983270D03*
G01X-6624331Y1983270D03*
G01X-6622709Y2062295D03*
G01X-6717911Y2062295D03*
G01X-6602230Y2151572D03*
G01X-6507029Y2151572D03*
G01X-6505408Y2230598D03*
G01X-6600609Y2230598D03*
G01X-6811333Y2314774D03*
G01X-6716132Y2314774D03*
G01X-6714511Y2393800D03*
G01X-6809712Y2393800D03*
G01X-6477182Y2448680D03*
G01X-6381981Y2448680D03*
G01X-6380360Y2527706D03*
G01X-6475561Y2527706D03*
G01X-6887834Y2503477D03*
G01X-6792633Y2503477D03*
G01X-6791012Y2582502D03*
G01X-6886213Y2582502D03*
G01X-7117337Y1616065D03*
G01X-7022136Y1616065D03*
G01X-7020515Y1695091D03*
G01X-7115716Y1695091D03*
G01X-6933735Y1626265D03*
G01X-7027236Y1427363D03*
G01X-6872613Y1878693D03*
G01X-6932113Y1705291D03*
G01X-8443354Y1228460D03*
G01X-8348153Y1228460D03*
G01X-8346532Y1307486D03*
G01X-8441733Y1307486D03*
G01X-8453554Y1055058D03*
G01X-8358353Y1055058D03*
G01X-8356732Y1134083D03*
G01X-8451933Y1134083D03*
G01X-8356653Y876556D03*
G01X-8261452Y876556D03*
G01X-8259831Y1088183D03*
G01X-8140829Y598576D03*
G01X-8336253Y667453D03*
G01X-8241052Y667453D03*
G01X-8239430Y746478D03*
G01X-8334632Y746478D03*
G01X-8310660Y440533D03*
G01X-8215459Y440533D03*
G01X-8213837Y519558D03*
G01X-8309039Y519558D03*
G01X-8310659Y251757D03*
G01X-8215458Y251757D03*
G01X-8213837Y330783D03*
G01X-8309038Y330783D03*
G01X-8581056Y152346D03*
G01X-8485855Y152346D03*
G01X-8484233Y231372D03*
G01X-8579435Y231372D03*
G01X-7719145Y167647D03*
G01X-7623944Y167647D03*
G01X-7622322Y246672D03*
G01X-7717524Y246672D03*
G01X-7464142Y203347D03*
G01X-7368940Y203347D03*
G01X-7367319Y282372D03*
G01X-7462520Y282372D03*
G01X-7239739Y218647D03*
G01X-7144537Y218647D03*
G01X-7142916Y297673D03*
G01X-7238117Y297673D03*
G01X-6989835Y218647D03*
G01X-6894634Y218647D03*
G01X-6893013Y297673D03*
G01X-6988214Y297673D03*
G01X-6541030Y514451D03*
G01X-6445828Y514451D03*
G01X-6444207Y593476D03*
G01X-6539408Y593476D03*
G01X-6561430Y723554D03*
G01X-6466229Y723554D03*
G01X-6464607Y802579D03*
G01X-6559809Y802579D03*
G01X-6810423Y700675D03*
G01X-6715221Y700675D03*
G01X-6713600Y779700D03*
G01X-6808801Y779700D03*
G01X-4944709Y626653D03*
G01X-4849508Y626653D03*
G01X-4847886Y705678D03*
G01X-4943088Y705678D03*
G01X-5311914Y636853D03*
G01X-5216712Y636853D03*
G01X-5215091Y715878D03*
G01X-5310292Y715878D03*
G01X-5510816Y269648D03*
G01X-5415615Y269648D03*
G01X-5413994Y348673D03*
G01X-5509195Y348673D03*
G01X-5878021Y274748D03*
G01X-5782820Y274748D03*
G01X-5781198Y353773D03*
G01X-5876400Y353773D03*
G01X-4781507Y386949D03*
G01X-4686306Y386949D03*
G01X-4684684Y465975D03*
G01X-4779886Y465975D03*
G01X-4710106Y182947D03*
G01X-4614905Y182947D03*
G01X-4613283Y261972D03*
G01X-4708485Y261972D03*
G01X-4057297Y779655D03*
G01X-3962096Y779655D03*
G01X-3960475Y858680D03*
G01X-4055676Y858680D03*
G01X-3776794Y963257D03*
G01X-3681593Y963257D03*
G01X-3679971Y1042282D03*
G01X-3775173Y1042282D03*
G01X-3894095Y290048D03*
G01X-3798894Y290048D03*
G01X-3797273Y369073D03*
G01X-3892474Y369073D03*
G01X-4220500Y208447D03*
G01X-4125298Y208447D03*
G01X-4123677Y287472D03*
G01X-4218878Y287472D03*
G01X-3741093Y647053D03*
G01X-3645892Y647053D03*
G01X-3644271Y726078D03*
G01X-3739472Y726078D03*
G01X-3103585Y1075458D03*
G01X-3008384Y1075458D03*
G01X-3006763Y1154484D03*
G01X-3101964Y1154484D03*
G01X-2547678Y1080558D03*
G01X-2452477Y1080558D03*
G01X-2450855Y1159584D03*
G01X-2546057Y1159584D03*
G01X-3108685Y769454D03*
G01X-3013484Y769454D03*
G01X-3011863Y848480D03*
G01X-3107064Y848480D03*
G01X-2593579Y764354D03*
G01X-2498377Y764354D03*
G01X-2496756Y843380D03*
G01X-2591957Y843380D03*
G01X-3052584Y499151D03*
G01X-2957383Y499151D03*
G01X-2955762Y578176D03*
G01X-3050963Y578176D03*
G01X-2608879Y534851D03*
G01X-2513677Y534851D03*
G01X-2512056Y613877D03*
G01X-2607257Y613877D03*
G01X-1981571Y1080558D03*
G01X-1886369Y1080558D03*
G01X-1884748Y1159584D03*
G01X-1979949Y1159584D03*
G01X-2012171Y774554D03*
G01X-1916970Y774554D03*
G01X-1915348Y853580D03*
G01X-2010550Y853580D03*
G01X-1425663Y182947D03*
G01X-1330462Y182947D03*
G01X-1328841Y261972D03*
G01X-1424042Y261972D03*
G01X-1440964Y1799668D03*
G01X-1345762Y1799668D03*
G01X-1344141Y1878693D03*
G01X-1439342Y1878693D03*
G01X-2496677Y1779267D03*
G01X-2401476Y1779267D03*
G01X-2399855Y1858293D03*
G01X-2495056Y1858293D03*
G01X-2088672Y1794568D03*
G01X-1993471Y1794568D03*
G01X-1991849Y1873593D03*
G01X-2087051Y1873593D03*
G01X-2420176Y2151572D03*
G01X-2324975Y2151572D03*
G01X-2323354Y2230598D03*
G01X-2418555Y2230598D03*
G01X-3679893Y2171973D03*
G01X-3584691Y2171973D03*
G01X-3583070Y2250998D03*
G01X-3678271Y2250998D03*
G01X-3700293Y1626265D03*
G01X-3605092Y1626265D03*
G01X-3603470Y1705291D03*
G01X-3698672Y1705291D03*
G01X-3129085Y2335175D03*
G01X-3127464Y2414200D03*
G01X-3134186Y2059771D03*
G01X-3132564Y2138796D03*
G01X-3139286Y1753767D03*
G01X-3137664Y1832792D03*
G01X-3348388Y2330075D03*
G01X-3346767Y2409100D03*
G01X-3353488Y2085271D03*
G01X-3351867Y2164297D03*
G01X-3348388Y1804768D03*
G01X-3346767Y1883793D03*
G01X-6581212Y6096749D03*
G01X-2109230Y4492451D03*
G01X-6474110Y1198516D03*
G01X-6550611Y1188315D03*
G01X-6560812Y1106714D03*
G01X-6474110Y1122015D03*
G01X-5005291Y2269529D03*
G01X-4918590Y2264429D03*
G01X-5046092Y2213429D03*
G01X-5127693Y2218529D03*
G01X-4357583Y2927438D03*
G01X-4464865Y3168479D03*
G01X-4530985Y3304843D03*
G01X-7504324Y1234216D03*
G01X-7514977Y1163269D03*
G01X-7524724Y4299356D03*
G01X-7336022Y4401357D03*
G01X-8106132Y4131053D03*
G01X-8208133Y4437057D03*
G01X-8534537Y4161654D03*
G01X-8769140Y3896450D03*
G01X-8478436Y3784249D03*
G01X-8743640Y3585346D03*
G01X-9799354Y2223629D03*
G01X-9794253Y2366431D03*
G01X-9916655Y2279730D03*
G01X-9636151Y2478632D03*
G01X-9880955Y2805036D03*
G01X-10268560Y2014526D03*
G01X-10589864Y1887024D03*
G01X-11217172Y1836024D03*
G04 Via End*

G04 Track Start*
G54D35*
G01X-3690250Y3885543D02*
G01X-3926551Y3885543D01*
G01X-4063413Y3748682D01*
G01X-4317413Y3748682D02*
G01X-4093850Y3972244D01*
G01X-3771851Y3972244D01*
G01X-1543122Y2610527D02*
G01X-3404646Y2610527D01*
G01X-1502322Y2534026D02*
G01X-2818139Y2534026D01*
G01X-1114717Y2921631D02*
G01X-1502322Y2534026D01*
G01X-1395220Y5145259D02*
G01X-1538022Y5002458D01*
G01X-1538022Y4839255D01*
G01X-359907Y5140159D02*
G01X-1114717Y4385350D01*
G01X-1114717Y2921631D01*
G01X-1252419Y5211560D02*
G01X-1527822Y5211560D01*
G01X-1589023Y5150360D01*
G01X-2188281Y4127796D02*
G01X-2869140Y3446937D01*
G01X-2874240Y3446937D01*
G01X-3312845Y3293936D02*
G01X-3312845Y3650940D01*
G01X-3394446Y3732541D01*
G01X-2425434Y4135446D02*
G01X-2583536Y3977344D01*
G01X-2583536Y3875343D01*
G54D11*
G01X-1589023Y4064045D02*
G01X-1772625Y4247648D01*
G01X-3695350Y4247648D02*
G01X-3807552Y4135446D01*
G54D35*
G01X-1729714Y5165660D02*
G01X-1729714Y4551541D01*
G01X-1466621Y4288448D01*
G01X-3384246Y3829442D02*
G01X-2629436Y3829442D01*
G01X-2583536Y3875343D01*
G01X-3251644Y3900843D02*
G01X-3470947Y4120146D01*
G01X-2476434Y3115433D02*
G01X-2552935Y3038932D01*
G01X-2552935Y2753329D01*
G01X-3491348Y3003232D02*
G01X-3312845Y3181734D01*
G01X-3312845Y3293936D01*
G01X-2308132Y4548552D02*
G01X-2308132Y4253393D01*
G01X-2302387Y4247648D01*
G54D11*
G01X-1772625Y4247648D02*
G01X-2302387Y4247648D01*
G01X-3695350Y4247648D01*
G54D35*
G01X-2425434Y8781607D02*
G01X-1471721Y8781607D01*
G01X-2501935Y8858108D02*
G01X-2425434Y8781607D01*
G01X-3154743Y5073859D02*
G01X-2966041Y4885156D01*
G01X-2335949Y4576368D02*
G01X-2308132Y4548552D01*
G01X-2966041Y4885156D02*
G01X-2966041Y4711754D01*
G01X-2830655Y4576368D01*
G01X-2335949Y4576368D01*
G01X-2588636Y7180186D02*
G01X-2588636Y7282187D01*
G01X-2542735Y7134285D02*
G01X-2588636Y7180186D01*
G01X-1599223Y5803168D02*
G01X-1599223Y5293161D01*
G01X-956615Y5629766D02*
G01X-956615Y5925570D01*
G01X-849513Y5522664D02*
G01X-956615Y5629766D01*
G01X-849513Y4767855D02*
G01X-849513Y5522664D01*
G01X-1232018Y2921631D02*
G01X-1543122Y2610527D01*
G01X-1925627Y3441837D02*
G01X-1951128Y3416337D01*
G01X-2374433Y3416337D01*
G01X-1150417Y4466951D02*
G01X-849513Y4767855D01*
G01X-2002128Y7022084D02*
G01X-2297932Y6726280D01*
G01X-2532535Y6726280D01*
G01X-2864039Y7343388D02*
G01X-3022142Y7343388D01*
G01X-2088829Y4135446D02*
G01X-3108843Y3115433D01*
G01X-3108843Y2738028D01*
G01X-3001741Y3028732D02*
G01X-2853839Y3028732D01*
G01X-2823239Y2998132D01*
G01X-2374433Y5771953D02*
G01X-2919526Y5771953D01*
G01X-3177341Y5736545D02*
G01X-3154743Y5713947D01*
G01X-3154743Y5073859D01*
G01X-2869140Y7152548D02*
G01X-2938782Y7082905D01*
G01X-2938782Y6515419D01*
G01X-2869140Y6445776D01*
G01X-2760324Y6761980D02*
G01X-2864039Y6761980D01*
G01X-2649837Y6651493D02*
G01X-2760324Y6761980D01*
G01X-2649837Y6374375D02*
G01X-2649837Y6651493D01*
G01X-2796938Y6227274D02*
G01X-2649837Y6374375D01*
G01X-1471721Y8781607D02*
G01X-1145317Y8455202D01*
G01X-1012716Y7435189D02*
G01X-1221818Y7644292D01*
G01X-1145317Y8455202D02*
G01X-1145317Y7761593D01*
G01X-971915Y7588191D01*
G01X-1645124Y9016210D02*
G01X-1481922Y9016210D01*
G01X-1456421Y8883608D02*
G01X-2083729Y8883608D01*
G01X-1481922Y9016210D02*
G01X-992315Y8526603D01*
G01X-992315Y7894195D01*
G01X-767912Y7669792D01*
G01X-859714Y7634092D02*
G01X-1079016Y7853395D01*
G01X-1079016Y8506203D01*
G01X-1456421Y8883608D01*
G54D33*
G01X-686311Y8873408D02*
G01X-686311Y9091291D01*
G01X-301121Y9476482D01*
G54D35*
G01X-1221818Y7644292D02*
G01X-1221818Y8419502D01*
G01X-1344220Y8541903D01*
G54D36*
G01X-10714546Y9953822D02*
G01X-10714546Y9997362D01*
G01X-10968546Y9896431D02*
G01X-10968546Y9997362D01*
G01X-11476546Y9898437D02*
G01X-11476546Y9997362D01*
G01X-11222546Y9997362D02*
G01X-11222546Y9892334D01*
G01X-11716166Y9398715D02*
G01X-12073170Y9398715D01*
G01X-11222546Y9892334D02*
G01X-11716166Y9398715D01*
G01X-11838567Y9536416D02*
G01X-11476546Y9898437D01*
G01X-12159871Y9536416D02*
G01X-11838567Y9536416D01*
G01X-11476546Y8305662D02*
G01X-11893113Y7889095D01*
G01X-12511776Y7889095D01*
G01X-10714546Y8095104D02*
G01X-10714546Y8305662D01*
G01X-12006869Y7333188D02*
G01X-11476462Y7333188D01*
G01X-10714546Y8095104D01*
G01X-10968546Y8305662D02*
G01X-10968546Y8126708D01*
G01X-11558063Y7537190D01*
G01X-12175171Y7537190D01*
G01X-11088857Y5986770D02*
G01X-10714546Y6361082D01*
G01X-10714546Y6629462D01*
G01X-10968546Y6321285D02*
G01X-10968546Y6629462D01*
G01X-11160258Y6129572D02*
G01X-10968546Y6321285D01*
G01X-11222546Y6434489D02*
G01X-11222546Y6629462D01*
G01X-11772266Y6272374D02*
G01X-11384661Y6272374D01*
G01X-11222546Y6434489D01*
G01X-11476546Y6506894D02*
G01X-11476546Y6629462D01*
G01X-11563164Y6420276D02*
G01X-11476546Y6506894D01*
G01X-11649865Y6129572D02*
G01X-11160258Y6129572D01*
G01X-11588664Y5986770D02*
G01X-11088857Y5986770D01*
G01X-11869168Y6420276D02*
G01X-11563164Y6420276D01*
G01X-10460546Y9997362D02*
G01X-10460546Y9479362D01*
G01X-11222546Y8717362D01*
G01X-11730546Y8717362D02*
G01X-11476546Y8717362D01*
G01X-11222546Y8717362D01*
G01X-11915068Y9118211D02*
G01X-11550157Y9118211D01*
G01X-10714546Y9953822D01*
G01X-11603964Y9261013D02*
G01X-10968546Y9896431D01*
G01X-11986469Y9261013D02*
G01X-11603964Y9261013D01*
G01X-11730546Y7025662D02*
G01X-11476546Y7025662D01*
G01X-11222546Y7025662D01*
G54D37*
G01X-249903Y3634315D02*
G01X-364744Y3634315D01*
G01X-485820Y3513238D01*
G01X-485820Y2789840D01*
G01X-274903Y2578923D01*
G01X-249903Y2578923D01*
G54D36*
G01X-11797215Y7730993D02*
G01X-11222546Y8305662D01*
G01X-12363874Y7730993D02*
G01X-11797215Y7730993D01*
G01X-13120272Y7311185D02*
G01X-12783682Y7311185D01*
G01X-12363874Y7730993D01*
G01X-12835686Y7565185D02*
G01X-13120272Y7565185D01*
G01X-12511776Y7889095D02*
G01X-12835686Y7565185D01*
G01X-12655177Y7057185D02*
G01X-13120272Y7057185D01*
G01X-12175171Y7537190D02*
G01X-12655177Y7057185D01*
G01X-13120272Y6803185D02*
G01X-12536872Y6803185D01*
G01X-12006869Y7333188D01*
G01X-13120272Y6246874D02*
G01X-12042570Y6246874D01*
G01X-11869168Y6420276D01*
G01X-13120272Y5992874D02*
G01X-12051767Y5992874D01*
G01X-11772266Y6272374D01*
G01X-13120272Y5738874D02*
G01X-12040563Y5738874D01*
G01X-11649865Y6129572D01*
G01X-13122362Y5497164D02*
G01X-13112162Y5486964D01*
G01X-13120272Y5484874D02*
G01X-12090561Y5484874D01*
G01X-11588664Y5986770D01*
G01X-13120272Y8121496D02*
G01X-12911783Y8121496D01*
G01X-13135572Y8136908D02*
G01X-13120272Y8136908D01*
G01X-12911783Y8121496D02*
G01X-11915068Y9118211D01*
G01X-13120272Y8375496D02*
G01X-12871986Y8375496D01*
G01X-11986469Y9261013D01*
G01X-12842389Y8629496D02*
G01X-13120272Y8629496D01*
G01X-12073170Y9398715D02*
G01X-12842389Y8629496D01*
G01X-13120272Y8883496D02*
G01X-12812792Y8883496D01*
G01X-12159871Y9536416D01*
G54D35*
G01X-2001353Y7162864D02*
G01X-2001353Y7287994D01*
G01X-2297156Y7583798D01*
G01X-2694962Y7583798D01*
G01X-2898964Y7787801D01*
G01X-4796189Y7787801D01*
G01X-3463297Y5050908D02*
G01X-3463297Y4969238D01*
G01X-2144930Y5864369D02*
G01X-2480759Y5528540D01*
G01X-4715363Y3941644D02*
G01X-4715363Y4065528D01*
G54D36*
G01X-11222546Y5333962D02*
G01X-9926422Y6630086D01*
G54D35*
G01X-6713814Y6936090D02*
G01X-6800515Y6849389D01*
G01X-11984546Y8717362D02*
G01X-11784294Y8517110D01*
G01X-6800515Y6849389D02*
G01X-9972756Y6849389D01*
G01X-11784294Y8517110D02*
G01X-10120658Y8517110D01*
G01X-9977856Y8374308D01*
G01X-9977856Y6854489D01*
G01X-9972756Y6849389D01*
G01X-2919526Y5771953D02*
G01X-3094250Y5946677D01*
G01X-5455902Y5946677D01*
G01X-5490573Y5981348D01*
G01X-1824333Y6028278D02*
G01X-1599223Y5803168D01*
G01X-5999804Y7752100D02*
G01X-6137506Y7889802D01*
G01X-5280248Y6107949D02*
G01X-5999804Y6827506D01*
G01X-5999804Y7752100D01*
G01X-6112006Y7660299D02*
G01X-6112006Y6845386D01*
G01X-5294898Y6028278D01*
G01X-4276985Y6273081D02*
G01X-4276985Y6107999D01*
G01X-4277035Y6107949D02*
G01X-5280248Y6107949D01*
G01X-5294898Y6028278D02*
G01X-4530985Y6028278D01*
G01X-1824333Y6028278D01*
G01X-5449773Y6399876D02*
G01X-5449773Y7334671D01*
G01X-5220270Y6170373D02*
G01X-5449773Y6399876D01*
G01X-5368172Y6476377D02*
G01X-5368172Y7431572D01*
G01X-5092768Y6200973D02*
G01X-5368172Y6476377D01*
G01X-5092768Y6180573D02*
G01X-5092768Y6200973D01*
G01X-6020205Y7905102D02*
G01X-6020205Y8093805D01*
G01X-5449773Y7334671D02*
G01X-6020205Y7905102D01*
G01X-5368172Y7431572D02*
G01X-5923303Y7986703D01*
G01X-5923303Y8190706D01*
G01X-6030405Y8297807D01*
G01X-2165330Y7129892D02*
G01X-2165330Y7370371D01*
G01X-2317557Y7522597D01*
G01X-2756162Y7522597D01*
G01X-2944865Y7711300D01*
G01X-4954291Y7711300D01*
G01X-5836602Y8593611D01*
G01X-4796189Y7787801D02*
G01X-5153193Y8144805D01*
G01X-5153193Y8665012D01*
G54D36*
G01X-6004904Y5487671D02*
G01X-6351709Y5834476D01*
G01X-6351709Y8700713D02*
G01X-6045705Y9006717D01*
G01X-301121Y9476482D02*
G01X-276121Y9476482D01*
G01X-3638474Y9006717D02*
G01X-2995865Y9649325D01*
G01X-843638Y9649325D02*
G01X-670795Y9476482D01*
G01X-301121Y9476482D01*
G01X-6356222Y6630086D02*
G01X-6351709Y6634599D01*
G01X-6351709Y5834476D02*
G01X-6351709Y6634599D01*
G01X-6351709Y8700713D01*
G01X-9926422Y6630086D02*
G01X-6356222Y6630086D01*
G01X-6045705Y9006717D02*
G01X-5637700Y9006717D01*
G01X-3638474Y9006717D01*
G54D35*
G01X-2113554Y7614399D02*
G01X-1817750Y7318595D01*
G01X-1741249Y7318595D01*
G01X-2476434Y2987932D02*
G01X-2236731Y2748228D01*
G01X-2134730Y2748228D01*
G01X-10069657Y6752487D02*
G01X-11711372Y6752487D01*
G01X-11984546Y7025662D01*
G01X-9972756Y6849389D02*
G01X-10069657Y6752487D01*
G54D33*
G01X-7050418Y8455909D02*
G01X-8764040Y10169532D01*
G01X-9776447Y10169532D02*
G01X-10190052Y10583137D01*
G01X-10190052Y10608137D01*
G01X-8764040Y10169532D02*
G01X-9776447Y10169532D01*
G01X-9936052Y10608137D02*
G01X-9936052Y10479632D01*
G01X-9748353Y10291933D01*
G01X-8687539Y10291933D01*
G01X-6701064Y8305458D01*
G54D35*
G01X-6810715Y8782314D02*
G01X-6601612Y8573211D01*
G01X-6601612Y8047904D01*
G54D33*
G01X-1874627Y5798068D02*
G01X-1706325Y5798068D01*
G01X-2376983Y5295712D02*
G01X-1874627Y5798068D01*
G54D35*
G01X-3772580Y6273081D02*
G01X-3726773Y6227274D01*
G01X-2796938Y6227274D01*
G01X-1084116Y5043258D02*
G01X-1232018Y4895356D01*
G01X-1232018Y2921631D01*
G01X-1062940Y4753262D02*
G01X-909938Y4906263D01*
G01X-909938Y5451971D01*
G01X-1898904Y6107949D02*
G01X-4277035Y6107949D01*
G01X-909938Y5451971D02*
G01X-1143834Y5685866D01*
G01X-1476822Y5685866D01*
G01X-1801469Y6083478D02*
G01X-1874433Y6083478D01*
G01X-1898904Y6107949D01*
G01X-1476822Y5685866D02*
G01X-1476822Y5758831D01*
G01X-1801469Y6083478D01*
G01X-1599223Y5293161D02*
G01X-1082634Y5293161D01*
G01X-1144542Y4829763D02*
G01X-1144542Y4651260D01*
G01X-1082634Y5293161D02*
G01X-976239Y5186767D01*
G01X-976239Y4998065D01*
G01X-1144542Y4829763D01*
G01X-497609Y4767855D02*
G01X-1028016Y4237448D01*
G01X-1028016Y3783542D01*
G54D20*
G01X-12150484Y4630860D02*
G01X-12150484Y4911364D01*
G01X-12507489Y5268368D01*
G54D36*
G01X-11222546Y5333962D02*
G01X-11476546Y5333962D01*
G01X-11730546Y5333962D01*
G54D35*
G01X-1466621Y4288448D02*
G01X-1466621Y3049132D01*
G01X-5194770Y5833768D02*
G01X-5102193Y5741191D01*
G01X-5102193Y4328473D01*
G01X-4786764Y4013045D01*
G01X-4715363Y4065528D02*
G01X-5027269Y4377434D01*
G01X-5027269Y5803969D01*
G01X-5067269Y5843969D01*
G54D38*
G01X-5132793Y2228729D02*
G01X-5199094Y2228729D01*
G01X-5081792Y2279730D02*
G01X-5132793Y2228729D01*
G54D35*
G01X-6627112Y1805423D02*
G01X-7193220Y1805423D01*
G01X-3463297Y4969238D02*
G01X-6627112Y1805423D01*
G54D38*
G01X-7463523Y1116914D02*
G01X-7478823Y1101614D01*
G01X-7478823Y1055714D01*
G54D35*
G01X-6836215Y1329501D02*
G01X-7298705Y1329501D01*
G01X-7346222Y1377018D01*
G54D38*
G01X-10049257Y1550420D02*
G01X-10967269Y632408D01*
G01X-10967269Y245542D01*
G54D35*
G01X-5423497Y4554359D02*
G01X-5193994Y4554359D01*
G01X-5178694Y4569659D01*
G01X-5561199Y2407231D02*
G01X-5561199Y747998D01*
G01X-5584094Y725102D01*
G01X-5811102Y2386831D02*
G01X-5811102Y2045126D01*
G01X-6061005Y1795223D01*
G54D36*
G01X-843638Y9649325D02*
G01X-2995865Y9649325D01*
G54D35*
G01X-9913438Y579524D02*
G01X-9913438Y245542D01*
G01X-7193220Y1805423D02*
G01X-8034731Y963912D01*
G01X-9529050Y963912D01*
G01X-9913438Y579524D01*
G01X-6581212Y6096749D02*
G01X-9257479Y6096749D01*
G01X-9417249Y5936978D02*
G01X-9437249Y5936978D01*
G01X-9257479Y6096749D02*
G01X-9417249Y5936978D01*
G04 Track End*

M02*

