G04 Layer: CustomLayer1*
G04 EasyEDA Pro v2.2.32.3, 2026-01-09 15:51:15*
G04 Gerber Generator version 0.3*
G04 Scale: 100 percent, Rotated: No, Reflected: No*
G04 Dimensions in millimeters*
G04 Leading zeros omitted, absolute positions, 3 integers and 5 decimals*
%FSLAX35Y35*%
%MOMM*%
%ADD10C,0.15*%
G75*


G04 PolygonModel Start*
G54D10*
G01X-5644693Y3308904D02*
G01X-6076693Y3308904D01*
G01X-5644693Y3048904D02*
G01X-6076693Y3048904D01*
G01X-5644693Y3048904D02*
G01X-5644693Y3308904D01*
G01X-6076693Y3048904D02*
G01X-6076693Y3308904D01*
G01X-9388850Y1242619D02*
G01X-9388850Y1674619D01*
G01X-9648850Y1242619D02*
G01X-9648850Y1674619D01*
G01X-9648850Y1242619D02*
G01X-9388850Y1242619D01*
G01X-9648850Y1674619D02*
G01X-9388850Y1674619D01*
G01X-1184120Y3305937D02*
G01X-1494119Y3305937D01*
G01X-1184120Y3485937D02*
G01X-1494119Y3485937D01*
G01X-1494119Y3305937D02*
G01X-1494119Y3485937D01*
G01X-1184120Y3305937D02*
G01X-1184120Y3485937D01*
G01X-6068255Y9218876D02*
G01X-5758255Y9218876D01*
G01X-6068255Y9038876D02*
G01X-5758255Y9038876D01*
G01X-5758255Y9218876D02*
G01X-5758255Y9038876D01*
G01X-6068255Y9218876D02*
G01X-6068255Y9038876D01*
G01X-3111944Y5228662D02*
G01X-3421944Y5228662D01*
G01X-3111944Y5408662D02*
G01X-3421944Y5408662D01*
G01X-3421944Y5228662D02*
G01X-3421944Y5408662D01*
G01X-3111944Y5228662D02*
G01X-3111944Y5408662D01*
G01X-5953487Y5846748D02*
G01X-5953487Y6156748D01*
G01X-5773487Y5846748D02*
G01X-5773487Y6156748D01*
G01X-5953487Y6156748D02*
G01X-5773487Y6156748D01*
G01X-5953487Y5846748D02*
G01X-5773487Y5846748D01*
G01X-5308194Y9290519D02*
G01X-4998194Y9290519D01*
G01X-5308194Y9110519D02*
G01X-4998194Y9110519D01*
G01X-4998194Y9290519D02*
G01X-4998194Y9110519D01*
G01X-5308194Y9290519D02*
G01X-5308194Y9110519D01*
G01X-8618740Y1742426D02*
G01X-8618740Y2174426D01*
G01X-8878740Y1742426D02*
G01X-8878740Y2174426D01*
G01X-8878740Y1742426D02*
G01X-8618740Y1742426D01*
G01X-8878740Y2174426D02*
G01X-8618740Y2174426D01*
G01X-9052246Y1242619D02*
G01X-9052246Y1674619D01*
G01X-9312246Y1242619D02*
G01X-9312246Y1674619D01*
G01X-9312246Y1242619D02*
G01X-9052246Y1242619D01*
G01X-9312246Y1674619D02*
G01X-9052246Y1674619D01*

M02*

