G04 Layer: TopPasteMaskLayer*
G04 EasyEDA Pro v2.2.32.3, 2026-01-09 15:51:15*
G04 Gerber Generator version 0.3*
G04 Scale: 100 percent, Rotated: No, Reflected: No*
G04 Dimensions in millimeters*
G04 Leading zeros omitted, absolute positions, 3 integers and 5 decimals*
%FSLAX35Y35*%
%MOMM*%
%ADD10R,0.889X0.889*%
%ADD11R,0.889X0.889*%
%ADD12R,0.889X0.889*%
%ADD13R,0.762X0.8128*%
%ADD14R,0.8128X0.762*%
%ADD15R,2.0X2.0*%
%ADD16R,0.49022X0.98552*%
%ADD17R,2.0X2.0*%
%ADD18R,1.0X0.89992*%
%ADD19R,1.3005X1.9*%
%ADD20R,1.3X1.9*%
%ADD21R,2.2X2.0*%
%ADD22R,1.25001X0.7*%
%ADD23R,0.7X1.25001*%
%ADD24R,0.9652X1.016*%
%ADD25R,1.0X1.10002*%
%ADD26R,1.10002X1.0*%
%ADD27R,1.0X1.10002*%
%ADD28R,1.016X0.9652*%
%ADD29R,1.10002X1.0*%
%ADD30R,2.0X3.6*%
%ADD31R,1.6X1.1*%
%ADD32R,1.6X1.1*%
%ADD33R,1.2X0.6*%
%ADD34R,2.4X3.29999*%
%ADD35R,0.9X2.0*%
%ADD36R,2.0X0.9*%
%ADD37R,0.9X2.0*%
%ADD38R,3.69999X3.69999*%
%ADD39R,1.1X0.6*%
%ADD40O,1.97099X0.60201*%
%ADD41R,0.7X1.6*%
%ADD42R,1.2X2.2*%
%ADD43R,1.6X1.5*%
%ADD44R,1.2X1.8*%
%ADD45R,0.6X1.1*%
%ADD46R,2.50002X1.0*%
%ADD47R,2.49999X1.0*%
%ADD48R,1.0X2.99999*%
%ADD49R,0.762X0.8128*%
%ADD50R,0.89992X1.0*%
%ADD51R,0.889X0.889*%
%ADD52O,1.73149X0.343*%
%ADD53R,0.6X1.1*%
%ADD54O,1.55001X0.7*%
%ADD55R,1.35999X1.23*%
%ADD56R,1.15001X0.95001*%
%ADD57R,1.15001X0.95001*%
%ADD58R,0.95001X1.15001*%
%ADD59R,0.95001X1.15001*%
%ADD60R,1.1X0.6*%
%ADD61R,1.1X2.49999*%
%ADD62R,1.1X2.49999*%
%ADD63R,0.98552X0.49022*%
%ADD64R,0.49022X0.98552*%
%ADD65R,0.98552X0.49022*%
%ADD66R,2.99999X1.0*%
%ADD67R,3.49999X1.5*%
%ADD68R,9.00001X10.4*%
%ADD69R,0.9652X1.016*%
%ADD70R,0.532X1.07201*%
%ADD71O,0.55999X1.74501*%
%ADD72R,1.0X2.50002*%
%ADD73R,1.0X2.49999*%
%ADD74R,1.0X2.99999*%
%ADD75R,2.49999X1.1*%
%ADD76R,2.2X2.0*%
%ADD77R,1.2X0.6*%
%ADD78R,2.4X3.29999*%
G75*


G04 PolygonModel Start*
G36*
G01X-3238044Y4783255D02*
G01X-3238044Y4820281D01*
G01X-3228044Y4830281D01*
G01X-3197554Y4830281D01*
G01X-3187554Y4840281D01*
G01X-3187554Y4879031D01*
G01X-3197554Y4889031D01*
G01X-3228044Y4889031D01*
G01X-3238044Y4899031D01*
G01X-3238044Y4936056D01*
G01X-3228044Y4946056D01*
G01X-3099546Y4946056D01*
G01X-3089546Y4936056D01*
G01X-3089546Y4783255D01*
G01X-3099546Y4773255D01*
G01X-3228044Y4773255D01*
G01X-3238044Y4783255D01*
G37*
G36*
G01X-3408047Y4783255D02*
G01X-3408047Y4820281D01*
G01X-3418047Y4830281D01*
G01X-3448537Y4830281D01*
G01X-3458537Y4840281D01*
G01X-3458537Y4879031D01*
G01X-3448537Y4889031D01*
G01X-3418047Y4889031D01*
G01X-3408047Y4899031D01*
G01X-3408047Y4936056D01*
G01X-3418047Y4946056D01*
G01X-3546545Y4946056D01*
G01X-3556545Y4936056D01*
G01X-3556545Y4783255D01*
G01X-3546545Y4773255D01*
G01X-3418047Y4773255D01*
G01X-3408047Y4783255D01*
G37*
G36*
G01X-2241932Y2874030D02*
G01X-2278957Y2874030D01*
G01X-2288957Y2884030D01*
G01X-2288957Y2914520D01*
G01X-2298957Y2924520D01*
G01X-2337708Y2924520D01*
G01X-2347708Y2914520D01*
G01X-2347708Y2884030D01*
G01X-2357708Y2874030D01*
G01X-2394733Y2874030D01*
G01X-2404733Y2884030D01*
G01X-2404733Y3012529D01*
G01X-2394733Y3022529D01*
G01X-2241932Y3022529D01*
G01X-2231932Y3012529D01*
G01X-2231932Y2884030D01*
G01X-2241932Y2874030D01*
G37*
G36*
G01X-2241932Y2704028D02*
G01X-2278957Y2704028D01*
G01X-2288957Y2694028D01*
G01X-2288957Y2663538D01*
G01X-2298957Y2653538D01*
G01X-2337708Y2653538D01*
G01X-2347708Y2663538D01*
G01X-2347708Y2694028D01*
G01X-2357708Y2704028D01*
G01X-2394733Y2704028D01*
G01X-2404733Y2694028D01*
G01X-2404733Y2565529D01*
G01X-2394733Y2555529D01*
G01X-2241932Y2555529D01*
G01X-2231932Y2565529D01*
G01X-2231932Y2694028D01*
G01X-2241932Y2704028D01*
G37*
G36*
G01X-4289256Y4413928D02*
G01X-4326281Y4413928D01*
G01X-4336281Y4423928D01*
G01X-4336281Y4454418D01*
G01X-4346281Y4464418D01*
G01X-4385032Y4464418D01*
G01X-4395032Y4454418D01*
G01X-4395032Y4423928D01*
G01X-4405032Y4413928D01*
G01X-4442057Y4413928D01*
G01X-4452057Y4423928D01*
G01X-4452057Y4552427D01*
G01X-4442057Y4562426D01*
G01X-4289256Y4562426D01*
G01X-4279256Y4552427D01*
G01X-4279256Y4423928D01*
G01X-4289256Y4413928D01*
G37*
G36*
G01X-4289256Y4243926D02*
G01X-4326281Y4243926D01*
G01X-4336281Y4233926D01*
G01X-4336281Y4203436D01*
G01X-4346281Y4193436D01*
G01X-4385032Y4193436D01*
G01X-4395032Y4203436D01*
G01X-4395032Y4233926D01*
G01X-4405032Y4243926D01*
G01X-4442057Y4243926D01*
G01X-4452057Y4233926D01*
G01X-4452057Y4105427D01*
G01X-4442057Y4095427D01*
G01X-4289256Y4095427D01*
G01X-4279256Y4105427D01*
G01X-4279256Y4233926D01*
G01X-4289256Y4243926D01*
G37*
G36*
G01X-2975339Y6254174D02*
G01X-2975339Y6174174D01*
G01X-2970338Y6169173D01*
G01X-2947541Y6169173D01*
G01X-2947541Y6206173D01*
G01X-2914542Y6206173D01*
G01X-2914542Y6169173D01*
G01X-2890338Y6169173D01*
G01X-2885339Y6174174D01*
G01X-2885339Y6254174D01*
G01X-2890338Y6259173D01*
G01X-2970338Y6259173D01*
G01X-2975339Y6254174D01*
G37*
G36*
G01X-2970338Y6099173D02*
G01X-2947541Y6099173D01*
G01X-2947541Y6061175D01*
G01X-2914542Y6061175D01*
G01X-2914542Y6099173D01*
G01X-2890338Y6099173D01*
G01X-2885339Y6094175D01*
G01X-2885339Y6015175D01*
G01X-2890338Y6010174D01*
G01X-2970338Y6010174D01*
G01X-2975339Y6015175D01*
G01X-2975339Y6094175D01*
G01X-2970338Y6099173D01*
G37*
G36*
G01X-5658000Y1139015D02*
G01X-5620974Y1139015D01*
G01X-5610974Y1129015D01*
G01X-5610974Y1098525D01*
G01X-5600974Y1088525D01*
G01X-5562224Y1088525D01*
G01X-5552224Y1098525D01*
G01X-5552224Y1129015D01*
G01X-5542224Y1139015D01*
G01X-5505198Y1139015D01*
G01X-5495198Y1129015D01*
G01X-5495198Y1000516D01*
G01X-5505198Y990516D01*
G01X-5658000Y990516D01*
G01X-5668000Y1000516D01*
G01X-5668000Y1129015D01*
G01X-5658000Y1139015D01*
G37*
G36*
G01X-5658000Y1309017D02*
G01X-5620974Y1309017D01*
G01X-5610974Y1319017D01*
G01X-5610974Y1349507D01*
G01X-5600974Y1359507D01*
G01X-5562224Y1359507D01*
G01X-5552224Y1349507D01*
G01X-5552224Y1319017D01*
G01X-5542224Y1309017D01*
G01X-5505198Y1309017D01*
G01X-5495198Y1319017D01*
G01X-5495198Y1447516D01*
G01X-5505198Y1457516D01*
G01X-5658000Y1457516D01*
G01X-5668000Y1447516D01*
G01X-5668000Y1319017D01*
G01X-5658000Y1309017D01*
G37*
G36*
G01X-5902803Y1133915D02*
G01X-5865777Y1133915D01*
G01X-5855777Y1123915D01*
G01X-5855777Y1093425D01*
G01X-5845777Y1083425D01*
G01X-5807027Y1083425D01*
G01X-5797027Y1093425D01*
G01X-5797027Y1123915D01*
G01X-5787027Y1133915D01*
G01X-5750001Y1133915D01*
G01X-5740001Y1123915D01*
G01X-5740001Y995416D01*
G01X-5750001Y985416D01*
G01X-5902803Y985416D01*
G01X-5912803Y995416D01*
G01X-5912803Y1123915D01*
G01X-5902803Y1133915D01*
G37*
G36*
G01X-5902803Y1303917D02*
G01X-5865777Y1303917D01*
G01X-5855777Y1313917D01*
G01X-5855777Y1344407D01*
G01X-5845777Y1354407D01*
G01X-5807027Y1354407D01*
G01X-5797027Y1344407D01*
G01X-5797027Y1313917D01*
G01X-5787027Y1303917D01*
G01X-5750001Y1303917D01*
G01X-5740001Y1313917D01*
G01X-5740001Y1442415D01*
G01X-5750001Y1452415D01*
G01X-5902803Y1452415D01*
G01X-5912803Y1442415D01*
G01X-5912803Y1313917D01*
G01X-5902803Y1303917D01*
G37*
G36*
G01X-7256121Y1361818D02*
G01X-7256121Y1398844D01*
G01X-7246121Y1408844D01*
G01X-7215630Y1408844D01*
G01X-7205630Y1418843D01*
G01X-7205630Y1457594D01*
G01X-7215630Y1467594D01*
G01X-7246121Y1467594D01*
G01X-7256121Y1477594D01*
G01X-7256121Y1514619D01*
G01X-7246121Y1524619D01*
G01X-7117622Y1524619D01*
G01X-7107622Y1514619D01*
G01X-7107622Y1361818D01*
G01X-7117622Y1351818D01*
G01X-7246121Y1351818D01*
G01X-7256121Y1361818D01*
G37*
G36*
G01X-7426123Y1361818D02*
G01X-7426123Y1398844D01*
G01X-7436123Y1408844D01*
G01X-7466613Y1408844D01*
G01X-7476613Y1418843D01*
G01X-7476613Y1457594D01*
G01X-7466613Y1467594D01*
G01X-7436123Y1467594D01*
G01X-7426123Y1477594D01*
G01X-7426123Y1514619D01*
G01X-7436123Y1524619D01*
G01X-7564621Y1524619D01*
G01X-7574621Y1514619D01*
G01X-7574621Y1361818D01*
G01X-7564621Y1351818D01*
G01X-7436123Y1351818D01*
G01X-7426123Y1361818D01*
G37*

G04 Pad Start*
G54D10*
G01X-3113943Y4185478D03*
G01X-3113943Y4340418D03*
G54D11*
G01X-6590443Y3279342D03*
G01X-6745383Y3279342D03*
G01X-4601229Y3059010D03*
G01X-4446289Y3059010D03*
G54D12*
G01X-3915882Y1182186D03*
G01X-4070822Y1182186D03*
G54D11*
G01X-4422726Y1182186D03*
G01X-4267786Y1182186D03*
G01X-3874822Y3023632D03*
G01X-3719882Y3023632D03*
G54D13*
G01X-2983101Y3120813D03*
G01X-2982570Y3277447D03*
G54D14*
G01X-2789134Y8780847D03*
G01X-2632500Y8780316D03*
G01X-2360756Y8791047D03*
G01X-2204122Y8790516D03*
G01X-1942523Y8806347D03*
G01X-1785889Y8805816D03*
G54D15*
G01X-5650693Y3178904D03*
G01X-6070693Y3178904D03*
G54D16*
G01X-869138Y3907092D03*
G01X-869138Y4130612D03*
G54D17*
G01X-9518850Y1248619D03*
G01X-9518850Y1668619D03*
G54D18*
G01X-9818052Y1701726D03*
G01X-9818052Y1871725D03*
G54D20*
G01X-1174552Y1317601D03*
G01X-1174552Y477623D03*
G01X-1624538Y1317601D03*
G01X-1624538Y477623D03*
G54D21*
G01X-6048678Y3489116D03*
G01X-6048678Y4169125D03*
G54D22*
G01X-3170240Y3684413D03*
G01X-3170240Y3494421D03*
G01X-2970240Y3589417D03*
G54D23*
G01X-3629342Y3586319D03*
G01X-3439350Y3586319D03*
G01X-3534346Y3786318D03*
G54D24*
G01X-2631130Y9180530D03*
G01X-2789880Y9180530D03*
G54D25*
G01X-6770111Y4137716D03*
G01X-6930090Y4137716D03*
G54D26*
G01X-9819754Y1348034D03*
G01X-9819754Y1508013D03*
G54D27*
G01X-829954Y4656360D03*
G01X-989933Y4656360D03*
G01X-824854Y4411557D03*
G01X-984833Y4411557D03*
G54D28*
G01X-2658575Y2896312D03*
G01X-2658575Y2737562D03*
G01X-2860380Y2891534D03*
G01X-2860380Y2732784D03*
G01X-3209382Y2896312D03*
G01X-3209382Y2737562D03*
G01X-3408285Y2896312D03*
G01X-3408285Y2737562D03*
G54D26*
G01X-2022529Y2749845D03*
G01X-2022529Y2909824D03*
G54D24*
G01X-2631130Y9380053D03*
G01X-2789880Y9380053D03*
G01X-2207825Y9380053D03*
G01X-2366575Y9380053D03*
G01X-2207825Y9180530D03*
G01X-2366575Y9180530D03*
G01X-1780049Y9380053D03*
G01X-1938799Y9380053D03*
G01X-1784519Y9180530D03*
G01X-1943269Y9180530D03*
G54D29*
G01X-3631247Y3383798D03*
G01X-3631247Y3223819D03*
G01X-3432344Y3383798D03*
G01X-3432344Y3223819D03*
G54D30*
G01X-3478748Y4374827D03*
G54D31*
G01X-4028749Y4144827D03*
G54D32*
G01X-4028749Y4374828D03*
G54D31*
G01X-4028749Y4604827D03*
G54D33*
G01X-6559276Y3529011D03*
G01X-6559276Y3656011D03*
G01X-6559276Y3783011D03*
G01X-6559276Y3910011D03*
G01X-7140936Y3910011D03*
G01X-7140936Y3783011D03*
G01X-7140936Y3656011D03*
G01X-7140936Y3529011D03*
G54D34*
G01X-6850106Y3719511D03*
G54D35*
G01X-205714Y5462842D03*
G01X-332714Y5462842D03*
G01X-459714Y5462842D03*
G01X-586714Y5462842D03*
G01X-713714Y5462842D03*
G01X-840714Y5462842D03*
G01X-967714Y5462842D03*
G01X-1094714Y5462842D03*
G01X-1221714Y5462842D03*
G01X-1348714Y5462842D03*
G01X-1475714Y5462842D03*
G01X-1602714Y5462842D03*
G01X-1729714Y5462842D03*
G01X-1856714Y5462842D03*
G54D36*
G01X-1956714Y5741353D03*
G01X-1956714Y5868353D03*
G01X-1956714Y5995353D03*
G01X-1956714Y6122353D03*
G01X-1956714Y6249353D03*
G01X-1956714Y6376353D03*
G01X-1956714Y6503353D03*
G01X-1956714Y6630353D03*
G01X-1956714Y6757353D03*
G01X-1956714Y6884353D03*
G54D37*
G01X-1856714Y7162864D03*
G01X-1729714Y7162864D03*
G01X-1602714Y7162864D03*
G01X-1475714Y7162864D03*
G01X-1348714Y7162864D03*
G01X-1221714Y7162864D03*
G01X-1094714Y7162864D03*
G01X-967714Y7162864D03*
G01X-840714Y7162864D03*
G01X-713714Y7162864D03*
G01X-586714Y7162864D03*
G01X-459714Y7162864D03*
G01X-332714Y7162864D03*
G01X-205714Y7162864D03*
G54D38*
G01X-955700Y6462840D03*
G54D39*
G01X-5196292Y2568532D03*
G01X-5196292Y2473532D03*
G01X-5196292Y2378532D03*
G01X-4916292Y2378532D03*
G01X-4916292Y2473532D03*
G01X-4916292Y2568532D03*
G54D40*
G01X-4419912Y2794601D03*
G01X-4419912Y2667601D03*
G01X-4419912Y2540601D03*
G01X-4419912Y2413601D03*
G01X-4419912Y2286601D03*
G01X-4419912Y2159601D03*
G01X-4419912Y2032601D03*
G01X-4419912Y1905601D03*
G01X-3872796Y2794601D03*
G01X-3872796Y2667601D03*
G01X-3872796Y2540601D03*
G01X-3872796Y2413601D03*
G01X-3872796Y2286601D03*
G01X-3872796Y2159601D03*
G01X-3872796Y2032601D03*
G01X-3872796Y1905601D03*
G54D41*
G01X-2587270Y1437808D03*
G01X-2697252Y1437808D03*
G01X-3247264Y1437808D03*
G01X-2807259Y1437808D03*
G01X-3027274Y1437808D03*
G01X-3467253Y1437808D03*
G01X-2917267Y1437808D03*
G01X-3137256Y1437808D03*
G54D42*
G01X-2037284Y377815D03*
G01X-3587243Y377815D03*
G54D43*
G01X-2102257Y1332805D03*
G54D44*
G01X-3587243Y1307811D03*
G54D41*
G01X-3357271Y1437808D03*
G54D45*
G01X-1244120Y3255937D03*
G01X-1434120Y3255937D03*
G01X-1434120Y3535937D03*
G01X-1339120Y3535937D03*
G01X-1244120Y3535937D03*
G54D46*
G01X-3886734Y1518790D03*
G54D47*
G01X-4446772Y1518790D03*
G54D48*
G01X-6606712Y2433236D03*
G01X-6606712Y2993235D03*
G54D14*
G01X-1623346Y1590783D03*
G01X-1466712Y1590252D03*
G54D26*
G01X-2733635Y3249309D03*
G01X-2733635Y3409309D03*
G54D49*
G01X-773450Y8021095D03*
G01X-773981Y7864461D03*
G54D18*
G01X-2668535Y4159250D03*
G01X-2668535Y4329250D03*
G54D50*
G01X-5257189Y3160205D03*
G01X-5427188Y3160205D03*
G54D26*
G01X-987215Y8263016D03*
G01X-987215Y8422996D03*
G54D29*
G01X-977015Y8035401D03*
G01X-977015Y7875401D03*
G01X-2884440Y4332733D03*
G01X-2884440Y4172753D03*
G54D27*
G01X-4877997Y3163604D03*
G01X-5037976Y3163604D03*
G54D11*
G01X-330276Y7511690D03*
G01X-175336Y7511690D03*
G54D12*
G01X-2582567Y6063271D03*
G01X-2737507Y6063271D03*
G01X-2929371Y7710593D03*
G01X-3084311Y7710593D03*
G54D51*
G01X-3124143Y6207042D03*
G01X-3124143Y6052102D03*
G54D26*
G01X-2344189Y6351332D03*
G01X-2344189Y6511311D03*
G54D52*
G01X-3301432Y7542565D03*
G01X-3301432Y7477566D03*
G01X-3301432Y7412568D03*
G01X-3301432Y7347544D03*
G01X-3301432Y7282545D03*
G01X-3301432Y7217547D03*
G01X-3301432Y7152548D03*
G01X-3301432Y7087549D03*
G01X-2728281Y7542565D03*
G01X-2728281Y7477566D03*
G01X-2728281Y7412568D03*
G01X-2728281Y7347544D03*
G01X-2728281Y7282545D03*
G01X-2728281Y7217547D03*
G01X-2728281Y7152548D03*
G01X-2728281Y7087549D03*
G01X-3303973Y6837326D03*
G01X-3303973Y6772328D03*
G01X-3303973Y6707329D03*
G01X-3303973Y6642305D03*
G01X-3303973Y6577307D03*
G01X-3303973Y6512308D03*
G01X-3303973Y6447309D03*
G01X-3303973Y6382311D03*
G01X-2730822Y6837326D03*
G01X-2730822Y6772328D03*
G01X-2730822Y6707329D03*
G01X-2730822Y6642305D03*
G01X-2730822Y6577307D03*
G01X-2730822Y6512308D03*
G01X-2730822Y6447309D03*
G01X-2730822Y6382311D03*
G54D10*
G01X-6219107Y9247389D03*
G01X-6219107Y9092449D03*
G54D25*
G01X-6084909Y8787414D03*
G01X-5924910Y8787414D03*
G54D53*
G01X-6008254Y9268876D03*
G01X-5818254Y9268876D03*
G01X-5818254Y8988876D03*
G01X-5913254Y8988876D03*
G01X-6008254Y8988876D03*
G54D45*
G01X-3171945Y5178662D03*
G01X-3361945Y5178662D03*
G01X-3361945Y5458662D03*
G01X-3266945Y5458662D03*
G01X-3171945Y5458662D03*
G54D10*
G01X-6576112Y8562042D03*
G01X-6576112Y8716982D03*
G54D51*
G01X-7708326Y7946872D03*
G01X-7708326Y7791932D03*
G01X-7708326Y8711882D03*
G01X-7708326Y8556942D03*
G54D12*
G01X-7115750Y8930216D03*
G01X-7270690Y8930216D03*
G54D10*
G01X-7708326Y8164237D03*
G01X-7708326Y8319177D03*
G54D26*
G01X-1272819Y9390131D03*
G01X-1272819Y9550110D03*
G54D25*
G01X-1342603Y8694905D03*
G01X-1182624Y8694905D03*
G54D54*
G01X-1565122Y8891479D03*
G01X-1565122Y9145479D03*
G01X-925144Y9145479D03*
G01X-925144Y8891479D03*
G54D40*
G01X-7420835Y8683309D03*
G01X-7420835Y8556309D03*
G01X-7420835Y8429309D03*
G01X-7420835Y8302309D03*
G01X-7420835Y8175309D03*
G01X-7420835Y8048309D03*
G01X-7420835Y7921309D03*
G01X-7420835Y7794309D03*
G01X-6873719Y8683309D03*
G01X-6873719Y8556309D03*
G01X-6873719Y8429309D03*
G01X-6873719Y8302309D03*
G01X-6873719Y8175309D03*
G01X-6873719Y8048309D03*
G01X-6873719Y7921309D03*
G01X-6873719Y7794309D03*
G54D25*
G01X-1490526Y3732541D03*
G01X-1330526Y3732541D03*
G54D13*
G01X-3057668Y8237044D03*
G01X-3057137Y8393679D03*
G54D26*
G01X-2832663Y8243323D03*
G01X-2832663Y8403302D03*
G54D25*
G01X-2407762Y7614399D03*
G01X-2247762Y7614399D03*
G54D27*
G01X-4996687Y8853715D03*
G01X-5156687Y8853715D03*
G54D10*
G01X-2522335Y3257266D03*
G01X-2522335Y3412206D03*
G54D55*
G01X-2073529Y3248847D03*
G01X-2073529Y3685829D03*
G54D27*
G01X-2916657Y3880443D03*
G01X-3076636Y3880443D03*
G54D56*
G01X-4128080Y3201903D03*
G01X-4128080Y3540384D03*
G54D57*
G01X-4326983Y3545484D03*
G01X-4326983Y3207003D03*
G54D58*
G01X-6505649Y8124405D03*
G01X-6167169Y8124405D03*
G54D59*
G01X-6162068Y8323308D03*
G01X-6500549Y8323308D03*
G54D60*
G01X-6003487Y5906749D03*
G01X-6003487Y6096749D03*
G01X-5723487Y6096749D03*
G01X-5723487Y6001749D03*
G01X-5723487Y5906749D03*
G54D48*
G01X-11767166Y9062614D03*
G01X-11767166Y9622613D03*
G54D26*
G01X-10707676Y6266375D03*
G01X-10707676Y6106395D03*
G01X-11273273Y9561017D03*
G01X-11273273Y9401038D03*
G01X-11082870Y9561017D03*
G01X-11082870Y9401038D03*
G54D61*
G01X-5287170Y4161433D03*
G01X-5287170Y3731411D03*
G54D62*
G01X-1441131Y4104038D03*
G01X-1441131Y4534060D03*
G54D12*
G01X-5856033Y5727374D03*
G01X-6010973Y5727374D03*
G54D63*
G01X-1083675Y9357914D03*
G01X-860155Y9357914D03*
G54D16*
G01X-1043316Y3171975D03*
G01X-1043316Y3395495D03*
G54D64*
G01X-788313Y8419060D03*
G01X-788313Y8195540D03*
G54D48*
G01X-11767166Y7389793D03*
G01X-11767166Y7949792D03*
G01X-11767166Y5706771D03*
G01X-11767166Y6266770D03*
G54D26*
G01X-11303873Y6266375D03*
G01X-11303873Y6106395D03*
G01X-11105141Y6266375D03*
G01X-11105141Y6106395D03*
G01X-10906408Y6266375D03*
G01X-10906408Y6106395D03*
G01X-10892468Y9561017D03*
G01X-10892468Y9401038D03*
G01X-10702065Y9561017D03*
G01X-10702065Y9401038D03*
G54D65*
G01X-10707607Y805810D03*
G01X-10931127Y805810D03*
G54D29*
G01X-4791089Y4491542D03*
G01X-4791089Y4331562D03*
G01X-7800128Y3950935D03*
G01X-7800128Y3790955D03*
G54D26*
G01X-3934278Y3291159D03*
G01X-3934278Y3451138D03*
G54D54*
G01X-7362837Y4553857D03*
G01X-7362837Y4299857D03*
G01X-8002815Y4299857D03*
G01X-8002815Y4553857D03*
G54D25*
G01X-6880499Y8950616D03*
G01X-6720520Y8950616D03*
G54D10*
G01X-5464297Y9133249D03*
G01X-5464297Y9288189D03*
G54D53*
G01X-5248193Y9340519D03*
G01X-5058193Y9340519D03*
G01X-5058193Y9060519D03*
G01X-5153193Y9060519D03*
G01X-5248193Y9060519D03*
G54D27*
G01X-6281924Y7915302D03*
G01X-6441904Y7915302D03*
G01X-6281924Y7711300D03*
G01X-6441904Y7711300D03*
G54D26*
G01X-11283473Y7910404D03*
G01X-11283473Y7750424D03*
G01X-11096470Y7910404D03*
G01X-11096470Y7750424D03*
G01X-10909468Y7910404D03*
G01X-10909468Y7750424D03*
G01X-10722465Y7910404D03*
G01X-10722465Y7750424D03*
G54D49*
G01X-2032391Y7904500D03*
G01X-2032922Y7747866D03*
G54D26*
G01X-2011553Y8335124D03*
G01X-2011553Y8495104D03*
G54D29*
G01X-1838151Y7913706D03*
G01X-1838151Y7753707D03*
G54D64*
G01X-1833050Y8506469D03*
G01X-1833050Y8282949D03*
G54D66*
G01X-12466184Y3559846D03*
G01X-11906185Y3559846D03*
G54D67*
G01X-11857217Y4330959D03*
G01X-11857217Y4838959D03*
G54D68*
G01X-12902757Y4584959D03*
G54D24*
G01X-2633257Y8977557D03*
G01X-2792007Y8977557D03*
G01X-2209952Y8987757D03*
G01X-2368702Y8987757D03*
G01X-1786646Y8992857D03*
G01X-1945396Y8992857D03*
G54D14*
G01X-1225541Y2891300D03*
G01X-1068906Y2890769D03*
G54D16*
G01X-930339Y2096569D03*
G01X-930339Y2320089D03*
G54D69*
G01X-3011669Y8036263D03*
G01X-2852919Y8036263D03*
G01X-2012056Y8117864D03*
G01X-1853306Y8117864D03*
G54D26*
G01X-925239Y2490449D03*
G01X-925239Y2650428D03*
G54D27*
G01X-1396041Y2504132D03*
G01X-1556041Y2504132D03*
G54D24*
G01X-1230739Y2699376D03*
G01X-1389489Y2699376D03*
G54D10*
G01X-4714588Y1860555D03*
G01X-4714588Y2015495D03*
G54D51*
G01X-4714588Y1602390D03*
G01X-4714588Y1447450D03*
G54D49*
G01X-6469448Y1585519D03*
G01X-6469979Y1428884D03*
G54D12*
G01X-7508455Y867011D03*
G01X-7663395Y867011D03*
G54D70*
G01X-6309003Y1093806D03*
G01X-6214007Y1093806D03*
G01X-6119011Y1093806D03*
G01X-6119011Y1323625D03*
G01X-6214007Y1323625D03*
G01X-6309003Y1323625D03*
G01X-7405517Y1007105D03*
G01X-7310521Y1007105D03*
G01X-7215525Y1007105D03*
G01X-7215525Y1236924D03*
G01X-7310521Y1236924D03*
G01X-7405517Y1236924D03*
G54D71*
G01X-5371702Y2204873D03*
G01X-5498702Y2204873D03*
G01X-5625702Y2204873D03*
G01X-5752702Y2204873D03*
G01X-5879702Y2204873D03*
G01X-6006702Y2204873D03*
G01X-6133702Y2204873D03*
G01X-6260702Y2204873D03*
G01X-5371702Y1630376D03*
G01X-5498702Y1630376D03*
G01X-5625702Y1630376D03*
G01X-5752702Y1630376D03*
G01X-5879702Y1630376D03*
G01X-6006702Y1630376D03*
G01X-6133702Y1630376D03*
G01X-6260702Y1630376D03*
G54D72*
G01X-5040992Y2014042D03*
G54D73*
G01X-5040992Y1454004D03*
G54D12*
G01X-7597094Y2473532D03*
G01X-7442154Y2473532D03*
G54D74*
G01X-7856228Y3197237D03*
G01X-7856228Y2637238D03*
G54D75*
G01X-7733019Y1208705D03*
G01X-8163041Y1208705D03*
G54D17*
G01X-8748740Y1748425D03*
G01X-8748740Y2168425D03*
G54D63*
G01X-8156691Y836411D03*
G01X-7933171Y836411D03*
G54D17*
G01X-9182246Y1248619D03*
G01X-9182246Y1668619D03*
G54D50*
G01X-6727417Y970714D03*
G01X-6897417Y970714D03*
G54D76*
G01X-8182633Y2288230D03*
G01X-8182633Y1608221D03*
G54D27*
G01X-7421116Y1657521D03*
G01X-7261137Y1657521D03*
G54D29*
G01X-6724014Y1329501D03*
G01X-6724014Y1169521D03*
G54D77*
G01X-7626852Y2215226D03*
G01X-7626852Y2088226D03*
G01X-7626852Y1961226D03*
G01X-7626852Y1834226D03*
G01X-7045192Y1834226D03*
G01X-7045192Y1961226D03*
G01X-7045192Y2088226D03*
G01X-7045192Y2215226D03*
G54D78*
G01X-7336022Y2024726D03*
G54D29*
G01X-5561199Y2701419D03*
G01X-5561199Y2541439D03*
G01X-5765201Y2701419D03*
G01X-5765201Y2541439D03*
G54D65*
G01X-9651893Y861911D03*
G01X-9875413Y861911D03*
G04 Pad End*

M02*

