;TYPE=PLATED
;Layer: PTH_Through
;EasyEDA Pro Client v3.2.135, 2026-05-22 17:44:58
;Gerber Generator version 0.3
M48
METRIC,LZ,0000.00000
;Hole size 1 = 0.30000 METRIC
T01C0.30000
;Hole size 2 = 0.80000 METRIC
T02C0.80000
;Hole size 3 = 0.90000 METRIC
T03C0.90000
;Hole size 4 = 0.91440 METRIC
T04C0.91440
;Hole size 5 = 1.00000 METRIC
T05C1.00000
;Hole size 6 = 1.10002 METRIC
T06C1.10002
;Hole size 7 = 1.80000 METRIC
T07C1.80000
;Hole size 8 = 2.50002 METRIC
T08C2.50002
%
G05
G90
T01
X-101.89415Y-99.89864
X-101.84315Y-89.0355
X-101.43126Y-88.40241
X-101.43514Y-89.67239
X-101.89415Y-99.20951
X-102.55716Y-99.71952
X-101.23114Y-99.71952
X-44.0594Y-72.46028
X-41.61136Y-35.3828
X-122.57492Y-69.14524
X-113.06329Y-67.46222
X-106.12718Y-58.43508
X-26.20917Y-39.30985
X-26.15817Y-40.83987
X-27.07618Y-46.80695
X-27.12718Y-48.84698
X-25.85217Y-49.45898
X-26.10717Y-46.95995
X-26.92318Y-53.59004
X-26.92318Y-55.78307
X-44.0594Y-58.28215
X-28.1982Y-46.89009
X-31.20724Y-46.89009
X-28.09619Y-53.77518
X-31.15623Y-53.79404
X-31.00323Y-38.67898
X-27.84119Y-38.67898
X-29.88122Y-99.89262
X-24.37315Y-101.47966
X-13.01389Y-68.16233
X-42.17238Y-74.80631
X-47.22144Y-91.68753
X-39.67334Y-91.48353
X-46.55843Y-90.92252
X-45.01967Y-92.58783
X-45.84442Y-85.97546
X-45.84442Y-90.00451
X-50.43448Y-87.57553
X-46.66043Y-87.60748
X-43.75338Y-81.5384
X-4.58489Y-41.50288
X-20.03809Y-55.93607
X-19.27308Y-105.99421
X-31.61524Y-102.24467
X-18.30407Y-101.27565
X-16.16204Y-103.41768
X-6.52292Y-63.58617
X-7.64493Y-82.04841
X-11.01097Y-84.25743
X-12.03099Y-86.43446
X-2.05197Y-58.2821
X-2.05197Y-59.60812
X-21.21109Y-71.28726
X-20.44608Y-71.54225
X-67.97878Y-50.73399
X-52.11751Y-55.93607
X-69.9678Y-51.14195
X-21.61909Y-58.94512
X-31.00323Y-37.16783
X-84.09492Y-42.21689
X-85.72694Y-30.4357
X-60.22661Y-46.69526
X-66.7547Y-42.8799
X-24.11814Y-41.34988
X-41.66237Y-41.70688
X-57.52358Y-44.02687
X-51.04649Y-44.00191
X-32.27825Y-33.90378
X-31.46224Y-33.08777
X-20.65012Y-30.43574
X-33.91027Y-30.84872
X-21.46611Y-40.48287
X-20.5991Y-40.12586
X-20.5991Y-37.77983
X-111.63528Y-103.72369
X-106.12719Y-83.01741
X-106.38221Y-81.6914
X-108.88124Y-96.9916
X-108.49873Y-82.22691
X-112.96129Y-101.58166
X-46.20138Y-56.49705
X-47.58163Y-75.92833
X-52.6817Y-75.92833
X-0.70806Y-37.36112
X-1.91948Y-34.91309
X-0.76104Y-34.91309
X-1.91948Y-33.97389
X-0.76104Y-33.97389
X-1.91948Y-33.04518
X-0.76104Y-33.04518
X-2.78131Y-40.7232
X-1.62287Y-40.7232
X-2.78131Y-41.77399
X-1.62287Y-41.77399
X-2.78131Y-42.92582
X-1.62287Y-42.92582
X-1.52087Y-44.29325
X-1.52087Y-45.34404
X-1.52087Y-46.49587
X-2.67931Y-44.29325
X-2.67931Y-45.34404
X-2.67931Y-46.49587
X-1.52087Y-47.81229
X-1.52087Y-48.86308
X-1.52087Y-50.01491
X-2.67931Y-47.81229
X-2.67931Y-48.86308
X-2.67931Y-50.01491
X-1.62287Y-51.48434
X-1.62287Y-52.53513
X-1.62287Y-53.68696
X-2.78131Y-51.48434
X-2.78131Y-52.53513
X-2.78131Y-53.68696
X-3.51697Y-48.91964
X-3.51697Y-49.97043
X-3.51697Y-51.12226
X-4.67541Y-48.91964
X-4.67541Y-49.97043
X-4.67541Y-51.12226
X-6.64277Y-52.46085
X-5.59198Y-52.46085
X-4.44015Y-52.46085
X-6.64277Y-53.61929
X-5.59198Y-53.61929
X-4.44015Y-53.61929
X-16.20906Y-49.08731
X-16.20906Y-50.1381
X-16.20906Y-51.28993
X-17.3675Y-49.08731
X-17.3675Y-50.1381
X-17.3675Y-51.28993
X-16.00505Y-45.10926
X-16.00505Y-46.16005
X-16.00505Y-47.31188
X-17.1635Y-45.10926
X-17.1635Y-46.16005
X-17.1635Y-47.31188
X-15.85205Y-41.33521
X-15.85205Y-42.386
X-15.85205Y-43.53783
X-19.69546Y-40.54027
X-17.544Y-41.565
X-17.01049Y-43.53783
X-13.30202Y-41.13121
X-13.30202Y-42.182
X-13.30202Y-43.33383
X-14.46046Y-41.13121
X-14.46046Y-42.182
X-14.46046Y-43.33383
X-10.24198Y-40.7742
X-10.24198Y-41.82499
X-10.24198Y-42.97682
X-11.40042Y-40.7742
X-11.40042Y-41.82499
X-11.40042Y-42.97682
X-7.28394Y-40.8762
X-7.28394Y-41.927
X-7.28394Y-43.07882
X-8.44238Y-40.8762
X-8.44238Y-41.927
X-8.44238Y-43.07882
X-13.55Y-44.80326
X-13.55Y-45.85405
X-13.55Y-47.00587
X-14.70845Y-44.80326
X-14.70845Y-45.85405
X-14.70845Y-47.00587
X-13.94405Y-48.3733
X-13.94405Y-49.42409
X-12.61803Y-48.33189
X-15.10249Y-48.3733
X-15.10249Y-49.42409
X-15.10249Y-50.57592
X-11.28383Y-48.7378
X-10.23304Y-48.7378
X-9.08121Y-48.7378
X-11.28383Y-49.89625
X-10.23304Y-49.89625
X-9.08121Y-49.89625
X-22.38014Y-43.93624
X-22.38014Y-44.98703
X-22.38014Y-46.13886
X-23.53858Y-43.93624
X-23.53858Y-44.98703
X-23.53858Y-46.13886
X-1.33546Y-32.32927
X-1.28446Y-30.28927
X-1.28446Y-31.20728
X-40.94438Y-25.98401
X-38.44534Y-25.83101
X-39.50179Y-25.83101
X-80.77589Y-35.82714
X-80.77589Y-36.87793
X-80.77589Y-38.02976
X-81.93433Y-35.82714
X-81.93433Y-36.87793
X-81.93433Y-38.02976
X-87.49058Y-36.53832
X-91.02702Y-39.37696
X-89.293Y-39.96778
X-87.49058Y-37.69677
X-86.43979Y-37.69677
X-89.22743Y-39.25377
X-83.84493Y-44.91822
X-83.84493Y-45.96901
X-83.84493Y-47.12084
X-85.00337Y-44.91822
X-85.00337Y-45.96901
X-85.00337Y-47.12084
X-94.89486Y-46.80325
X-94.89486Y-47.85404
X-94.89486Y-49.00587
X-96.05331Y-46.80325
X-96.05331Y-47.85404
X-96.05331Y-49.00587
X-94.95407Y-43.47724
X-94.95407Y-44.52803
X-94.95407Y-45.67986
X-96.11252Y-43.47724
X-96.11252Y-44.52803
X-96.11252Y-45.67986
X-89.038Y-34.75613
X-89.038Y-35.80692
X-89.038Y-36.95874
X-90.19644Y-34.75613
X-90.19644Y-35.80692
X-90.19644Y-36.95874
X-92.45504Y-38.53017
X-91.53703Y-37.64294
X-93.78106Y-40.01878
X-98.71355Y-41.23321
X-98.71355Y-42.284
X-98.71355Y-43.43583
X-95.82109Y-40.4172
X-95.82109Y-41.46799
X-95.82109Y-42.61982
X-94.12349Y-42.20222
X-94.6845Y-40.24397
X-96.97953Y-42.61982
X-66.85271Y-47.9653
X-66.85271Y-49.01609
X-65.178Y-49.47
X-68.01115Y-47.9653
X-68.01115Y-49.01609
X-63.495Y-48.705
X-59.86562Y-40.7742
X-59.86562Y-41.82499
X-59.86562Y-42.97682
X-61.02406Y-40.7742
X-61.02406Y-41.82499
X-61.02406Y-42.97682
X-16.20966Y-2.32005
X-16.20966Y-3.37084
X-16.20966Y-4.52267
X-17.36811Y-2.32005
X-17.36811Y-3.37084
X-17.36811Y-4.52267
X-68.94374Y-33.32811
X-68.94374Y-34.3789
X-68.94374Y-35.53073
X-70.10218Y-33.32811
X-70.10218Y-34.3789
X-70.10218Y-35.53073
X-73.5848Y-28.99305
X-73.5848Y-30.04384
X-73.5848Y-31.19567
X-74.74324Y-28.99305
X-74.74324Y-30.04384
X-74.74324Y-31.19567
X-101.78816Y-22.31196
X-101.78816Y-23.36275
X-101.78816Y-24.51458
X-102.94661Y-22.31196
X-102.94661Y-23.36275
X-102.94661Y-24.51458
X-98.62612Y-14.15186
X-98.62612Y-15.20265
X-98.62612Y-16.35448
X-99.78457Y-14.15186
X-99.78457Y-15.20265
X-99.78457Y-16.35448
X-98.328Y-17.544
X-100.674Y-15.708
X-116.025Y-17.85
X-96.696Y-17.646
X-101.031Y-14.688
X-97.002Y-16.371
X-113.118Y-1.03762
X-112.047Y-1.03762
X-110.925Y-1.03762
X-108.49099Y-1.03762
X-107.4402Y-1.03762
X-106.28837Y-1.03762
X-86.56081Y-80.30721
X-85.51002Y-80.30721
X-84.35819Y-80.30721
X-86.56081Y-81.46565
X-85.51002Y-81.46565
X-84.35819Y-81.46565
X-78.96171Y-79.5422
X-77.91092Y-79.5422
X-76.75909Y-79.5422
X-78.96171Y-80.70064
X-77.91092Y-80.70064
X-76.75909Y-80.70064
X-88.95784Y-82.39824
X-87.90705Y-82.39824
X-86.75522Y-82.39824
X-88.95784Y-83.55668
X-87.90705Y-83.55668
X-86.75522Y-83.55668
X-88.85584Y-84.54027
X-87.80505Y-84.54027
X-86.65322Y-84.54027
X-85.48979Y-87.94274
X-83.46999Y-89.88076
X-83.54218Y-88.70775
X-82.15805Y-90.84608
X-82.15805Y-89.79529
X-82.15805Y-88.64346
X-80.9996Y-90.84608
X-80.9996Y-89.79529
X-80.9996Y-88.64346
X-92.37488Y-83.82626
X-91.32409Y-83.82626
X-90.17226Y-83.82626
X-92.37488Y-84.9847
X-91.32409Y-84.9847
X-90.17226Y-84.9847
X-89.21284Y-85.61128
X-88.16205Y-85.61128
X-87.01022Y-85.61128
X-89.21284Y-86.76972
X-88.16205Y-86.76972
X-87.01022Y-86.76972
X-67.81154Y-88.19504
X-66.76075Y-88.19504
X-65.60892Y-88.19504
X-67.81154Y-89.35348
X-66.76075Y-89.35348
X-65.60892Y-89.35348
X-63.50851Y-86.73329
X-62.45772Y-86.73329
X-61.30589Y-86.73329
X-63.50851Y-87.89174
X-62.45772Y-87.89174
X-61.30589Y-87.89174
X-74.47365Y-96.93343
X-73.42286Y-96.93343
X-72.27103Y-96.93343
X-74.47365Y-98.09187
X-73.42286Y-98.09187
X-72.27103Y-98.09187
X-75.08566Y-92.13936
X-74.03487Y-92.13936
X-72.88304Y-92.13936
X-75.08566Y-93.29781
X-74.03487Y-93.29781
X-72.88304Y-93.29781
X-75.85067Y-98.87145
X-74.79988Y-98.87145
X-73.64805Y-98.87145
X-75.85067Y-100.02989
X-74.79988Y-100.02989
X-73.64805Y-100.02989
X-86.56081Y-109.98959
X-85.51002Y-109.98959
X-84.35819Y-109.98959
X-87.516Y-110.262
X-88.383Y-109.752
X-90.04125Y-110.86856
X-90.04125Y-112.027
X-92.37488Y-93.77138
X-91.32409Y-93.77138
X-90.17226Y-93.77138
X-92.37488Y-94.92983
X-91.32409Y-94.92983
X-90.17226Y-94.92983
X-95.84323Y-93.82444
X-94.79244Y-93.82444
X-93.64061Y-93.82444
X-95.84323Y-94.98288
X-94.79244Y-94.98288
X-93.64061Y-94.98288
X-99.31845Y-103.05565
X-97.99243Y-94.91577
X-97.99243Y-93.76394
X-95.60997Y-103.56566
X-96.83399Y-94.91577
X-96.83399Y-93.76394
X-99.61698Y-95.96441
X-99.22919Y-97.85144
X-99.30138Y-98.76945
X-99.61698Y-97.12286
X-98.56619Y-97.12286
X-97.41436Y-97.12286
X-99.36197Y-99.84046
X-98.31118Y-95.86241
X-97.15935Y-95.86241
X-99.20897Y-95.18483
X-99.4332Y-100.89691
X-99.25038Y-101.81492
X-99.5615Y-103.88903
X-98.379Y-103.428
X-97.35888Y-103.88903
X-98.991Y-104.397
X-98.073Y-104.499
X-97.35888Y-105.04747
X-114.71317Y-96.83142
X-113.66238Y-96.83142
X-112.51055Y-96.83142
X-114.71317Y-97.98987
X-113.66238Y-97.98987
X-112.51055Y-97.98987
X-117.67121Y-96.16842
X-116.62042Y-96.16842
X-115.46859Y-96.16842
X-117.67121Y-97.32686
X-116.62042Y-97.32686
X-115.46859Y-97.32686
X-120.83325Y-95.70941
X-119.78246Y-95.70941
X-118.63063Y-95.70941
X-120.83325Y-96.86785
X-119.78246Y-96.86785
X-118.63063Y-96.86785
X-135.26644Y-107.69456
X-134.21565Y-107.69456
X-133.06382Y-107.69456
X-135.26644Y-108.85301
X-134.21565Y-108.85301
X-133.06382Y-108.85301
X-138.73448Y-106.11354
X-137.68369Y-106.11354
X-136.53186Y-106.11354
X-138.73448Y-107.27199
X-137.68369Y-107.27199
X-136.53186Y-107.27199
X-142.81454Y-105.90954
X-141.76374Y-105.90954
X-140.61192Y-105.90954
X-142.81454Y-107.06798
X-141.76374Y-107.06798
X-140.61192Y-107.06798
X-150.66864Y-104.22652
X-149.61785Y-104.22652
X-150.66864Y-105.38496
X-149.61785Y-105.38496
X-144.64097Y-105.80754
X-144.64097Y-106.96598
X-134.49393Y-112.66347
X-134.49393Y-111.61268
X-134.49393Y-110.46085
X-134.39193Y-116.59052
X-134.39193Y-115.53973
X-134.39193Y-114.3879
X-135.36844Y-118.0987
X-136.629Y-119.289
X-135.915Y-118.728
X-134.079Y-117.759
X-58.18977Y-90.71852
X-55.74174Y-88.47449
X-45.798Y-105.417
X-44.472Y-109.395
X-43.401Y-109.497
X-45.35227Y-107.38856
X-44.30148Y-107.38856
X-43.14965Y-107.38856
X-45.35227Y-108.547
X-44.30148Y-108.547
X-43.14965Y-108.547
X-45.14827Y-104.88953
X-44.09748Y-104.88953
X-42.94565Y-104.88953
X-45.14827Y-106.04797
X-44.09748Y-106.04797
X-42.94565Y-106.04797
X-45.35227Y-102.28849
X-44.30148Y-102.28849
X-43.14965Y-102.28849
X-45.35227Y-103.44694
X-44.30148Y-103.44694
X-43.14965Y-103.44694
X-43.45649Y-98.00748
X-43.45649Y-96.95669
X-42.29805Y-98.00748
X-42.29805Y-96.95669
X-34.69314Y-94.7404
X-33.64235Y-94.7404
X-32.49052Y-94.7404
X-34.69314Y-95.89884
X-33.64235Y-95.89884
X-32.49052Y-95.89884
X-34.89714Y-105.04253
X-33.84635Y-105.04253
X-34.89714Y-106.20097
X-33.84635Y-106.20097
X-27.948Y-109.242
X-31.3706Y-106.61462
X-31.3706Y-105.46279
X-26.724Y-109.089
X-30.21215Y-106.61462
X-30.21215Y-105.46279
X-28.72606Y-107.13356
X-27.67527Y-107.13356
X-26.52344Y-107.13356
X-28.72606Y-108.292
X-27.67527Y-108.292
X-26.52344Y-108.292
X-24.79901Y-107.08256
X-23.74822Y-107.08256
X-22.59639Y-107.08256
X-24.79901Y-108.241
X-23.74822Y-108.241
X-29.27748Y-106.20097
X-15.92489Y-105.85854
X-14.8741Y-105.85854
X-13.72227Y-105.85854
X-15.92489Y-107.01698
X-14.8741Y-107.01698
X-13.72227Y-107.01698
X-13.57886Y-94.33239
X-12.52807Y-94.33239
X-11.37624Y-94.33239
X-13.57886Y-95.49084
X-12.52807Y-95.49084
X-11.37624Y-95.49084
X-14.28946Y-92.25428
X-12.96346Y-92.66227
X-15.15029Y-93.05738
X-13.98346Y-93.37628
X-11.07646Y-92.86627
X-15.15029Y-94.21582
X-17.60791Y-90.15034
X-16.55712Y-90.15034
X-15.4053Y-90.15034
X-17.60791Y-91.30878
X-16.55712Y-91.30878
X-15.4053Y-91.30878
X-23.47299Y-85.71328
X-24.276Y-84.15
X-23.256Y-84.813
X-23.47299Y-86.87172
X-22.593Y-86.445
X-21.675Y-86.496
X-25.53324Y-82.29624
X-24.38141Y-82.29624
X-25.296Y-83.742
X-24.48341Y-84.94827
X-24.48341Y-86.10671
X-10.31482Y-87.0393
X-9.26403Y-87.0393
X-8.1122Y-87.0393
X-10.31482Y-88.19774
X-9.26403Y-88.19774
X-8.1122Y-88.19774
X-6.13277Y-86.83529
X-5.08198Y-86.83529
X-3.93015Y-86.83529
X-6.13277Y-87.99374
X-5.08198Y-87.99374
X-3.93015Y-87.99374
X-8.6318Y-83.97926
X-7.58101Y-83.97926
X-6.42918Y-83.97926
X-8.6318Y-85.1377
X-7.58101Y-85.1377
X-6.42918Y-85.1377
X-9.13431Y-79.56404
X-9.13431Y-78.51325
X-9.13431Y-77.36142
X-7.97587Y-79.56404
X-7.97587Y-78.51325
X-7.97587Y-77.36142
X-3.86215Y-76.80801
X-2.81136Y-76.80801
X-1.65953Y-76.80801
X-3.86215Y-77.96645
X-2.81136Y-77.96645
X-1.65953Y-77.96645
X-4.18543Y-79.95812
X-3.13464Y-79.95812
X-1.98282Y-79.95812
X-4.18543Y-81.11656
X-3.13464Y-81.11656
X-1.98282Y-81.11656
X-4.19474Y-83.52025
X-3.14395Y-83.52025
X-1.99212Y-83.52025
X-4.19474Y-84.6787
X-3.14395Y-84.6787
X-1.99212Y-84.6787
X-20.61695Y-106.82755
X-19.56616Y-106.82755
X-18.41433Y-106.82755
X-21.58597Y-107.27199
X-12.37507Y-106.09897
X-17.08832Y-106.65998
X-35.751Y-106.794
X-36.465Y-109.242
X-34.89714Y-108.95501
X-33.84635Y-108.95501
X-40.94644Y-104.82756
X-40.94644Y-103.77677
X-40.94644Y-102.62494
X-39.788Y-104.82756
X-39.788Y-103.77677
X-39.788Y-102.62494
X-41.83323Y-106.21555
X-40.78244Y-106.21555
X-39.63061Y-106.21555
X-41.83323Y-107.37399
X-40.78244Y-107.37399
X-39.63061Y-107.37399
X-35.61115Y-110.3466
X-34.56036Y-110.3466
X-33.40853Y-110.3466
X-35.61115Y-111.50504
X-34.56036Y-111.50504
X-33.40853Y-111.50504
X-26.42936Y-103.11043
X-24.22674Y-103.11043
X-26.42936Y-104.26887
X-24.22674Y-104.26887
X-26.42936Y-97.53593
X-25.37856Y-97.53593
X-26.06276Y-96.66892
X-24.64433Y-98.18437
X-25.37856Y-98.69437
X-24.37974Y-99.45939
X-32.75521Y-62.35501
X-31.70442Y-62.35501
X-30.55259Y-62.35501
X-33.57121Y-63.30946
X-32.52042Y-63.30946
X-31.36859Y-63.30946
X-61.0063Y-74.24713
X-59.95551Y-74.24713
X-58.80368Y-74.24713
X-61.0063Y-75.40557
X-59.95551Y-75.40557
X-58.80368Y-75.40557
X-64.47752Y-77.85918
X-63.42673Y-77.85918
X-62.2749Y-77.85918
X-64.47752Y-79.01762
X-63.42673Y-79.01762
X-62.2749Y-79.01762
X-84.06177Y-56.3369
X-83.01098Y-56.3369
X-81.85916Y-56.3369
X-98.39296Y-81.12322
X-97.34217Y-81.12322
X-96.19034Y-81.12322
X-98.39296Y-82.28166
X-97.34217Y-82.28166
X-96.19034Y-82.28166
X-98.90297Y-84.54027
X-97.85218Y-84.54027
X-96.70035Y-84.54027
X-98.90297Y-85.69871
X-97.85218Y-85.69871
X-96.70035Y-85.69871
X-107.31808Y-64.293
X-106.26729Y-64.293
X-105.11546Y-64.293
X-107.31808Y-65.45145
X-106.26729Y-65.45145
X-105.11546Y-65.45145
X-151.79481Y-65.82885
X-150.74402Y-65.82885
X-149.5922Y-65.82885
X-151.79481Y-66.9873
X-150.74402Y-66.9873
X-149.5922Y-66.9873
X-151.72771Y-63.67965
X-150.67691Y-63.67965
X-149.52509Y-63.67965
X-151.72771Y-64.83809
X-150.67691Y-64.83809
X-149.52509Y-64.83809
X-148.22333Y-65.71556
X-148.22333Y-66.874
X-148.15622Y-63.56635
X-148.15622Y-64.7248
X-151.47Y-68.187
X-150.246Y-68.289
X-148.971Y-67.932
X-106.14187Y-61.50893
X-97.614Y-59.568
X-97.87025Y-61.55993
X-106.14187Y-62.66738
X-97.614Y-60.435
X-97.87025Y-62.71838
X-115.58018Y-55.9799
X-114.52939Y-55.9799
X-113.37756Y-55.9799
X-115.58018Y-57.13834
X-114.52939Y-57.13834
X-113.37756Y-57.13834
X-115.58018Y-58.58093
X-114.52939Y-58.58093
X-113.37756Y-58.58093
X-115.58018Y-59.73937
X-114.52939Y-59.73937
X-113.37756Y-59.73937
X-118.53822Y-62.15098
X-117.48743Y-62.15098
X-116.3356Y-62.15098
X-118.53822Y-63.30942
X-117.48743Y-63.30942
X-116.3356Y-63.30942
X-111.75513Y-54.85788
X-110.70434Y-54.85788
X-109.55251Y-54.85788
X-111.75513Y-56.01632
X-110.70434Y-56.01632
X-109.55251Y-56.01632
X-107.42008Y-51.13483
X-106.36929Y-51.13483
X-105.21746Y-51.13483
X-107.42008Y-52.29328
X-106.36929Y-52.29328
X-105.21746Y-52.29328
X-114.81517Y-40.6287
X-113.76438Y-40.6287
X-112.61255Y-40.6287
X-114.81517Y-41.78714
X-113.76438Y-41.78714
X-112.61255Y-41.78714
X-117.87521Y-45.01475
X-116.82442Y-45.01475
X-115.67259Y-45.01475
X-117.87521Y-46.1732
X-116.82442Y-46.1732
X-115.67259Y-46.1732
X-114.25098Y-44.61731
X-113.20019Y-44.61731
X-112.04836Y-44.61731
X-114.25098Y-45.77575
X-113.20019Y-45.77575
X-112.04836Y-45.77575
X-115.41969Y-27.44137
X-115.41969Y-26.39058
X-115.41969Y-25.23875
X-114.26124Y-27.44137
X-114.26124Y-26.39058
X-114.26124Y-25.23875
X-115.63118Y-22.47246
X-114.58039Y-22.47246
X-113.42856Y-22.47246
X-115.63118Y-23.63091
X-114.58039Y-23.63091
X-113.42856Y-23.63091
X-131.23739Y-18.07183
X-130.1866Y-18.07183
X-129.03477Y-18.07183
X-118.68804Y-71.34359
X-117.63725Y-71.34359
X-118.68804Y-72.50203
X-117.63725Y-72.50203
X-131.76289Y-68.49423
X-130.7121Y-68.49423
X-131.76289Y-69.65267
X-130.7121Y-69.65267
X-135.2116Y-68.49423
X-134.16081Y-68.49423
X-135.2116Y-69.65267
X-134.16081Y-69.65267
X-34.272Y-23.409
X-17.544Y-36.924
X-30.498Y-32.42476
X-57.12Y-23.766
X-72.471Y-23.409
X-64.8975Y-22.8735
X-22.491Y-42.483
X-26.877Y-23.307
X-31.92102Y-14.586
X-34.578Y-10.914
X-42.483Y-11.373
X-3.468Y-30.43574
X-32.436Y-107.1
X-22.644Y-58.599
X-52.479Y-54.927
X-25.347Y-59.976
X-60.282Y-106.743
X-18.921Y-70.635
X-27.06874Y-79.44574
X-93.279Y-11.322
X-41.2335Y-15.7845
X-94.146Y-10.506
X-94.146Y-12.138
X-54.366Y-12.699
X-121.839Y-110.772
X-136.119Y-7.65
X-132.447Y-12.903
X-33.354Y-34.782
X-38.301Y-34.425
X-57.273Y-28.54842
X-63.189Y-31.722
X-41.871Y-80.886
X-21.522Y-62.373
X-18.768Y-65.025
X-17.85Y-63.546
X-12.954Y-66.606
X-10.94197Y-58.548
X-12.138Y-58.854
X-11.781Y-78.04441
X-27.285Y-78.336
X-26.979Y-77.05034
X-24.4545Y-71.3235
X-52.326Y-100.317
X-49.266Y-101.49
X-30.957Y-79.458
X-27.081Y-72.063
X-27.081Y-74.409
X-41.91434Y-71.196
X-45.135Y-80.835
X-51.51Y-94.605
X-55.182Y-112.098
X-51.051Y-111.231
X-59.415Y-100.776
X-54.519Y-97.308
X-58.293Y-84.558
X-45.39Y-57.222
X-59.058Y-83.997
X-12.75Y-59.823
X-16.116Y-80.937
X-30.88279Y-22.97501
X-30.88279Y-21.95501
X-31.54579Y-21.03701
X-7.57579Y-24.55601
X-7.67779Y-25.47401
X-110.823Y-84.201
X-84.609Y-76.0396
X-99.858Y-79.866
X-107.202Y-86.292
X-133.11Y-124.44
X-51.51Y-109.803
X-46.614Y-109.803
X-52.02Y-110.568
X-49.725Y-111.078
X-69.06562Y-108.62639
X-42.993Y-117.453
X-64.362Y-116.637
X-57.426Y-117.504
X-49.98Y-117.504
X-31.926Y-52.785
X-42.534Y-65.739
X-57.17489Y-93.90974
X-59.211Y-92.871
X-56.15489Y-94.62374
X-22.389Y-120.36
X-24.429Y-120.411
X-5.15427Y-132.26198
X-6.3061Y-132.26198
X-5.15427Y-131.10354
X-6.3061Y-131.10354
X-7.35689Y-132.26198
X-7.35689Y-131.10354
X-5.15427Y-129.30398
X-6.3061Y-129.30398
X-5.15427Y-128.14554
X-6.3061Y-128.14554
X-7.35689Y-129.30398
X-7.35689Y-128.14554
X-5.15427Y-125.42798
X-6.3061Y-125.42798
X-5.15427Y-124.26954
X-6.3061Y-124.26954
X-7.35689Y-125.42798
X-7.35689Y-124.26954
X-8.62227Y-122.92898
X-9.7741Y-122.92898
X-8.62227Y-121.77054
X-9.7741Y-121.77054
X-10.82489Y-122.92898
X-10.82489Y-121.77054
X-12.76927Y-122.78334
X-13.9211Y-122.78334
X-12.76927Y-121.62489
X-13.9211Y-121.62489
X-14.97189Y-122.78334
X-14.97189Y-121.62489
X-24.57417Y-126.27724
X-25.726Y-126.27724
X-24.57417Y-125.11879
X-25.726Y-125.11879
X-26.77679Y-126.27724
X-26.77679Y-125.11879
X-31.39702Y-124.44327
X-31.39702Y-125.5951
X-32.55546Y-124.44327
X-32.55546Y-125.5951
X-31.39702Y-126.64589
X-32.55546Y-126.64589
X-27.49227Y-123.43898
X-28.6441Y-123.43898
X-27.49227Y-122.28054
X-28.6441Y-122.28054
X-29.69489Y-123.43898
X-29.69489Y-122.28054
X-32.00902Y-129.39027
X-32.00902Y-130.5421
X-33.16746Y-129.39027
X-33.16746Y-130.5421
X-32.00902Y-131.59289
X-33.16746Y-131.59289
X-32.28627Y-115.32998
X-33.4381Y-115.32998
X-32.28627Y-114.17154
X-33.4381Y-114.17154
X-34.48889Y-115.32998
X-34.48889Y-114.17154
X-32.18427Y-117.93098
X-33.3361Y-117.93098
X-32.18427Y-116.77254
X-33.3361Y-116.77254
X-34.38689Y-117.93098
X-34.38689Y-116.77254
X-32.28627Y-121.50098
X-33.4381Y-121.50098
X-32.28627Y-120.34254
X-33.4381Y-120.34254
X-34.48889Y-121.50098
X-34.48889Y-120.34254
X-27.18627Y-112.93298
X-28.3381Y-112.93298
X-27.18627Y-111.77454
X-28.3381Y-111.77454
X-29.38889Y-112.93298
X-29.38889Y-111.77454
X-52.02389Y-82.55129
X-51.46289Y-81.53129
X-50.59589Y-80.71529
X-55.23689Y-84.84629
X-56.40989Y-81.37829
X-55.33889Y-83.87729
X-54.21689Y-84.89729
X-52.34338Y-83.73172
X-49.93289Y-79.95029
X-48.70889Y-79.23629
X-48.91289Y-80.46029
X-49.266Y-98.379
X-50.28989Y-101.01329
X-49.21889Y-102.59429
X-49.26989Y-97.69829
X-29.12489Y-84.1416
X-30.03851Y-84.11899
X-31.36889Y-72.24929
X-30.85889Y-71.53529
X-30.24689Y-70.82129
X-29.43089Y-70.20929
X-34.73489Y-75.87029
X-35.60189Y-76.73729
X-46.36289Y-23.85029
X-37.77052Y-22.24556
X-45.54689Y-22.26929
X-46.51589Y-20.73929
X-38.26712Y-20.83736
X-39.93689Y-22.32029
X-61.94946Y-20.64078
X-54.49219Y-20.64077
X-69.61889Y-20.84129
X-77.49596Y-20.64078
X-15.91589Y-26.04329
X-14.89589Y-27.16529
X-13.72289Y-28.54229
X-16.68089Y-27.52229
X-15.45689Y-28.59329
X-13.82489Y-25.83929
X-13.00889Y-27.36929
X-10.20389Y-31.95929
X-8.87789Y-31.95929
X-7.60289Y-31.95929
X-9.48989Y-32.82629
X-8.21489Y-32.82629
X-8.77589Y-33.59129
X-7.85789Y-34.71329
X-7.50089Y-33.69329
X-7.19489Y-35.52929
X-142.29Y-124.389
X-23.09517Y-122.31379
X-22.76992Y-121.70779
X-22.07557Y-121.69903
X-27.48419Y-36.74098
X-26.31119Y-36.28198
X-26.928Y-34.68
X-25.18919Y-36.17998
X-26.00519Y-37.14898
X-23.91419Y-35.56798
X-34.97292Y-43.30889
X-36.81719Y-43.31998
X-39.11219Y-43.42198
X-40.73222Y-43.44297
X-33.08155Y-44.65974
X-29.06519Y-42.91198
X-31.41119Y-47.85898
X-31.46219Y-48.77698
X-31.46219Y-49.84798
X-33.85919Y-50.91898
X-31.62392Y-55.35972
X-31.62392Y-56.48432
X-25.44419Y-56.83498
X-25.03619Y-55.86598
X-24.27119Y-55.04998
X-34.28639Y-60.18589
T02
X-143.70967Y-103.92769
X-141.16967Y-103.92769
X-29.835Y-78.28
X-29.835Y-75.74
X-40.596Y-63.184
X-40.596Y-60.644
T03
X-3.12046Y-5.54928
X-3.12046Y-3.00928
X-122.242Y-131.172
X-119.702Y-131.172
X-33.15Y-2.59941
X-33.15Y-5.13941
X-33.15Y-7.67941
X-148.665Y-96.58861
X-148.665Y-99.12861
X-26.11201Y-2.59941
X-26.11201Y-5.13941
X-26.11201Y-7.67941
X-147.946Y-131.172
X-145.406Y-131.172
X-139.378Y-131.172
X-136.838Y-131.172
X-2.39186Y-65.02422
X-2.39186Y-67.56422
X-2.39186Y-70.10422
X-87.91997Y-2.59941
X-87.91997Y-5.13941
X-87.91997Y-7.67941
X-81.05188Y-2.59941
X-81.05188Y-5.13941
X-81.05188Y-7.67941
X-74.18379Y-2.59941
X-74.18379Y-5.13941
X-74.18379Y-7.67941
X-67.3157Y-2.59941
X-67.3157Y-5.13941
X-67.3157Y-7.67941
X-60.44761Y-2.59941
X-60.44761Y-5.13941
X-60.44761Y-7.67941
X-53.57952Y-2.59941
X-53.57952Y-5.13941
X-53.57952Y-7.67941
X-46.71144Y-2.59941
X-46.71144Y-5.13941
X-46.71144Y-7.67941
X-107.049Y-22.185
X-107.049Y-19.645
X-107.049Y-17.105
X-107.049Y-14.565
X-106.43321Y-2.59941
X-106.43321Y-5.13941
X-106.43321Y-7.67941
X-95.21912Y-15.15986
X-92.67912Y-15.15986
X-90.13912Y-15.15986
X-148.665Y-76.964
X-148.665Y-79.504
X-148.665Y-85.92947
X-148.665Y-88.46947
X-142.9277Y-25.95587
X-142.9277Y-28.49587
X-142.9277Y-31.03587
X-142.9277Y-33.57587
X-130.81Y-131.172
X-128.27Y-131.172
X-142.9277Y-39.13898
X-142.9277Y-41.67898
X-142.9277Y-44.21898
X-142.9277Y-46.75898
X-142.9277Y-52.32209
X-142.9277Y-54.86209
X-142.9277Y-57.40209
X-142.9277Y-59.94209
X-39.92835Y-2.59941
X-39.92835Y-5.13941
X-39.92835Y-7.67941
X-90.673Y-130.968
X-88.133Y-130.968
X-3.12046Y-13.81128
X-3.12046Y-11.27128
X-60.435Y-131.06
X-60.435Y-128.52
X-60.435Y-125.98
X-52.938Y-131.06
X-52.938Y-128.52
X-52.938Y-125.98
X-46.563Y-131.162
X-46.563Y-128.622
X-46.563Y-126.082
X-39.372Y-131.06
X-39.372Y-128.52
X-39.372Y-125.98
X-113.674Y-131.172
X-111.134Y-131.172
X-78.97917Y-125.04581
X-76.43917Y-125.04581
X-78.97917Y-131.54581
X-76.43917Y-131.54581
X-70.67917Y-125.04581
X-68.13917Y-125.04581
X-70.67917Y-131.54581
X-68.13917Y-131.54581
X-119.187Y-10.17241
X-119.187Y-7.63241
X-119.187Y-5.09241
X-119.187Y-2.55241
X-126.684Y-10.17241
X-126.684Y-7.63241
X-126.684Y-5.09241
X-126.684Y-2.55241
T04
X-37.60727Y-100.22357
X-37.60727Y-102.72293
X-37.60727Y-104.72445
X-37.60727Y-107.22381
T05
X-39.40727Y-110.29368G85X-40.80727Y-110.29368
X-40.80727Y-97.1537G85X-39.40727Y-97.1537
X-115.06546Y-32.61528
X-117.60546Y-32.61528
X-120.14546Y-32.61528
X-122.68546Y-32.61528
X-125.22546Y-32.61528
X-127.76546Y-32.61528
X-130.30546Y-32.61528
X-132.84546Y-32.61528
X-115.06546Y-19.81527
X-117.60546Y-19.81527
X-120.14546Y-19.81527
X-122.68546Y-19.81527
X-125.22546Y-19.81527
X-127.76546Y-19.81527
X-130.30546Y-19.81527
X-132.84546Y-19.81527
X-115.06546Y-49.53228
X-117.60546Y-49.53228
X-120.14546Y-49.53228
X-122.68546Y-49.53228
X-125.22546Y-49.53228
X-127.76546Y-49.53228
X-130.30546Y-49.53228
X-132.84546Y-49.53228
X-115.06546Y-36.73228
X-117.60546Y-36.73228
X-120.14546Y-36.73228
X-122.68546Y-36.73228
X-125.22546Y-36.73228
X-127.76546Y-36.73228
X-130.30546Y-36.73228
X-132.84546Y-36.73228
X-115.06546Y-66.44928
X-117.60546Y-66.44928
X-120.14546Y-66.44928
X-122.68546Y-66.44928
X-125.22546Y-66.44928
X-127.76546Y-66.44928
X-130.30546Y-66.44928
X-132.84546Y-66.44928
X-115.06546Y-53.49427
X-117.60546Y-53.49427
X-120.14546Y-53.49427
X-122.68546Y-53.49427
X-125.22546Y-53.49427
X-127.76546Y-53.49427
X-130.30546Y-53.49427
X-132.84546Y-53.49427
X-9.14795Y-99.88307
X-9.14795Y-102.38306
X-5.94795Y-102.38306
X-5.94795Y-99.88307
T06
X-132.08654Y-73.04341
X-132.08654Y-75.5434
X-132.08654Y-78.0434
X-132.08654Y-80.54339
X-132.08654Y-83.04339
X-132.08654Y-85.54338
X-132.08654Y-88.04338
X-132.08654Y-90.54337
X-122.57492Y-73.04341
X-122.57492Y-75.5434
X-122.57492Y-78.0434
X-122.57492Y-80.54339
X-122.57492Y-83.04339
X-122.57492Y-85.54338
X-122.57492Y-88.04338
X-122.57492Y-90.54337
X-113.06329Y-73.04341
X-113.06329Y-75.5434
X-113.06329Y-78.0434
X-113.06329Y-80.54339
X-113.06329Y-83.04339
X-113.06329Y-85.54338
X-113.06329Y-88.04338
X-113.06329Y-90.54337
X-80.995Y-14.27089
X-83.535Y-14.27089
X-86.075Y-14.27089
T07
X-29.1209Y-125.47015
X-29.1209Y-130.55015
X-10.3529Y-125.52115
X-10.3529Y-130.60115
X-99.05215Y-129.1831
X-104.13215Y-129.1831
T08
X-6.64795Y-107.15305
X-6.64795Y-95.11305
M30