G04 Layer: CustomLayer2*
G04 EasyEDA Pro v3.2.135, 2026-05-22 17:44:57*
G04 Gerber Generator version 0.3*
G04 Scale: 100 percent, Rotated: No, Reflected: No*
G04 Dimensions in millimeters*
G04 Leading zeros omitted, absolute positions, 4 integers and 5 decimals*
G04 Generated by one-click*
G04 Object Configs: Pad,Via,Track,Text,Image,Dimension,BoardOutline,BoardCutout,CopperFilled,SolidRegion,FPCStiffener,Line,PlaneZone,ComponentProperty,ComponentSilkscreen,TearDrop*
G04 Layer Configs: 1,2,3,4,5,6,7,8,9,10,11,13,14,71,72,73,56*
G04 Copper Areas: 0*
%FSLAX45Y45*%
%MOMM*%
%ADD10C,0.0127*%
%ADD11C,0.15*%
%ADD12C,0.9837*%
G75*


G04 PolygonModel Start*
G54D10*
G01X-7662342Y-9422936D02*
G01X-7667422Y-9428016D01*
G01X-1118014Y-2317930D02*
G01X-1112934Y-2323010D01*
G01X-721630Y-2681486D02*
G01X-726710Y-2686566D01*
G01X-11224278Y-12084440D02*
G01X-11229358Y-12079360D01*
G01X-13926943Y-9742500D02*
G01X-13932023Y-9737420D01*
G01X-12677454Y-10708756D02*
G01X-12682534Y-10713836D01*
G01X-12707573Y-10717686D02*
G01X-12712653Y-10722766D01*
G01X-972482Y-6876294D02*
G01X-977562Y-6871214D01*
G01X-3385286Y-1991570D02*
G01X-3390366Y-1986490D01*
G01X-9749696Y-7779006D02*
G01X-9754776Y-7773926D01*
G01X-4536012Y-7634746D02*
G01X-4530932Y-7629666D01*
G01X-12298313Y-10801887D02*
G01X-12293233Y-10796807D01*
G01X-6688240Y-7400143D02*
G01X-6683160Y-7395063D01*
G01X-11448018Y-10084235D02*
G01X-11453098Y-10079155D01*
G01X-5665307Y-9195082D02*
G01X-5670387Y-9200162D01*
G01X-5695426Y-9204013D02*
G01X-5700506Y-9209093D01*
G01X-4254051Y-7692264D02*
G01X-4248971Y-7697344D01*
G01X-5332030Y-9204386D02*
G01X-5337110Y-9209466D01*
G01X-5347370Y-7396114D02*
G01X-5342290Y-7391034D01*
G01X-3582730Y-3400586D02*
G01X-3587810Y-3405666D01*
G01X-4866059Y-9339585D02*
G01X-4860979Y-9344665D01*
G01X-7433270Y-1373014D02*
G01X-7428190Y-1367934D01*
G01X-7205186Y-1991570D02*
G01X-7210266Y-1986490D01*
G54D11*
G01X-10527720Y-11413576D02*
G01X-10527720Y-11313576D01*
G01X-10577720Y-11363576D02*
G01X-10477720Y-11363576D01*
G01X-10577719Y-10503576D02*
G01X-10477719Y-10503576D01*
G54D10*
G01X-3460371Y-1373014D02*
G01X-3455291Y-1367934D01*
G01X-2650886Y-1991570D02*
G01X-2655966Y-1986490D01*
G54D11*
G01X-10862624Y-11413576D02*
G01X-10862624Y-11313576D01*
G01X-10912624Y-11363576D02*
G01X-10812624Y-11363576D01*
G01X-10912624Y-10503576D02*
G01X-10812624Y-10503576D01*
G54D10*
G01X-3016630Y-1289697D02*
G01X-3021710Y-1294777D01*
G01X-5102570Y-1373014D02*
G01X-5097490Y-1367934D01*
G01X-4843886Y-1991570D02*
G01X-4848966Y-1986490D01*
G01X-6668270Y-1373014D02*
G01X-6663190Y-1367934D01*
G01X-6461756Y-1991570D02*
G01X-6466836Y-1986490D01*
G01X-5883816Y-1373014D02*
G01X-5878736Y-1367934D01*
G01X-2639270Y-12088114D02*
G01X-2634190Y-12083034D01*
G01X-3026870Y-12088114D02*
G01X-3021790Y-12083034D01*
G01X-5670086Y-1991570D02*
G01X-5675166Y-1986490D01*
G01X-7692912Y-4781583D02*
G01X-7697992Y-4786663D01*
G01X-7692912Y-4970285D02*
G01X-7697992Y-4975365D01*
G01X-2399044Y-4781583D02*
G01X-2404124Y-4786663D01*
G54D11*
G01X-7042675Y-9868256D02*
G01X-7042675Y-9768256D01*
G01X-7092674Y-9818256D02*
G01X-6992675Y-9818256D01*
G01X-7092674Y-8958256D02*
G01X-6992674Y-8958256D01*
G01X-10192815Y-11413576D02*
G01X-10192815Y-11313576D01*
G01X-10242815Y-11363576D02*
G01X-10142815Y-11363576D01*
G01X-10242815Y-10503576D02*
G01X-10142815Y-10503576D01*
G54D10*
G01X-11504439Y-10530254D02*
G01X-11509519Y-10535334D01*
G01X-11534558Y-10539184D02*
G01X-11539638Y-10544264D01*
G01X-420770Y-3372214D02*
G01X-415690Y-3367134D01*
G01X-11187915Y-10665643D02*
G01X-11192995Y-10660563D01*
G01X-4847116Y-8991364D02*
G01X-4842036Y-8986284D01*
G01X-4857316Y-8792461D02*
G01X-4852236Y-8787381D01*
G01X-12994945Y-2638816D02*
G01X-13000025Y-2633736D01*
G01X-9163481Y-11017517D02*
G01X-9168561Y-11012437D01*
G54D11*
G01X-8996793Y-10785474D02*
G01X-8896793Y-10785474D01*
G01X-8946793Y-10735474D02*
G01X-8946793Y-10835474D01*
G01X-8086794Y-10735474D02*
G01X-8086794Y-10835474D01*
G01X-9857911Y-11413576D02*
G01X-9857911Y-11313576D01*
G01X-9907911Y-11363576D02*
G01X-9807911Y-11363576D01*
G01X-9907911Y-10503576D02*
G01X-9807911Y-10503576D01*
G54D10*
G01X-10413555Y-8537161D02*
G01X-10418635Y-8532081D01*
G01X-10422486Y-8507043D02*
G01X-10427566Y-8501963D01*
G01X-12994945Y-4311637D02*
G01X-13000025Y-4306557D01*
G01X-12994945Y-5994659D02*
G01X-13000025Y-5989579D01*
G01X-10417759Y-8875544D02*
G01X-10422839Y-8870464D01*
G01X-4585556Y-9936293D02*
G01X-4580476Y-9941373D01*
G01X-4327370Y-1373014D02*
G01X-4322290Y-1367934D01*
G01X-4114586Y-1991570D02*
G01X-4119666Y-1986490D01*
G01X-7739230Y-7516286D02*
G01X-7744310Y-7521366D01*
G01X-8886729Y-7500986D02*
G01X-8891809Y-7506066D01*

M02*

