G04 Layer: CustomLayer3*
G04 EasyEDA Pro v3.2.135, 2026-05-22 17:44:57*
G04 Gerber Generator version 0.3*
G04 Scale: 100 percent, Rotated: No, Reflected: No*
G04 Dimensions in millimeters*
G04 Leading zeros omitted, absolute positions, 4 integers and 5 decimals*
G04 Generated by one-click*
G04 Object Configs: Pad,Via,Track,Text,Image,Dimension,BoardOutline,BoardCutout,CopperFilled,SolidRegion,FPCStiffener,Line,PlaneZone,ComponentProperty,ComponentSilkscreen,TearDrop*
G04 Layer Configs: 1,2,3,4,5,6,7,8,9,10,11,13,14,71,72,73,56*
G04 Copper Areas: 0*
%FSLAX45Y45*%
%MOMM*%
%ADD10C,0.0508*%
%ADD11C,0.0127*%
%ADD12C,0.15*%
%ADD13C,0.8828*%
G75*


G04 PolygonModel Start*
G54D10*
G01X-8979500Y-7304000D02*
G01X-8979500Y-7384000D01*
G01X-8979500Y-7304000D02*
G01X-8819500Y-7304000D01*
G01X-8819500Y-7304000D02*
G01X-8819500Y-7384000D01*
G01X-8979500Y-7384000D02*
G01X-8819500Y-7384000D01*
G36*
G01X-8979500Y-7384000D02*
G01X-8979500Y-7304000D01*
G01X-8949500Y-7304000D01*
G01X-8949500Y-7384000D01*
G01X-8979500Y-7384000D01*
G37*
G36*
G01X-8819500Y-7384000D02*
G01X-8849500Y-7384000D01*
G01X-8849500Y-7304000D01*
G01X-8819500Y-7304000D01*
G01X-8819500Y-7384000D01*
G37*
G36*
G01X-8973513Y-7384005D02*
G01X-8973598Y-7386426D01*
G01X-8979507Y-7390287D01*
G01X-8985421Y-7386418D01*
G01X-8985500Y-7383992D01*
G01X-8985416Y-7381571D01*
G01X-8979507Y-7377710D01*
G01X-8973592Y-7381580D01*
G01X-8973513Y-7384005D01*
G37*
G01X-14381199Y-12422000D02*
G01X-14301199Y-12422000D01*
G01X-14381199Y-12422000D02*
G01X-14381199Y-12262000D01*
G01X-14381199Y-12262000D02*
G01X-14301199Y-12262000D01*
G01X-14301199Y-12422000D02*
G01X-14301199Y-12262000D01*
G36*
G01X-14301199Y-12422000D02*
G01X-14381199Y-12422000D01*
G01X-14381199Y-12392000D01*
G01X-14301199Y-12392000D01*
G01X-14301199Y-12422000D01*
G37*
G36*
G01X-14301199Y-12262000D02*
G01X-14301199Y-12292000D01*
G01X-14381199Y-12292000D01*
G01X-14381199Y-12262000D01*
G01X-14301199Y-12262000D01*
G37*
G36*
G01X-14301194Y-12416013D02*
G01X-14298773Y-12416098D01*
G01X-14294912Y-12422006D01*
G01X-14298782Y-12427921D01*
G01X-14301207Y-12428000D01*
G01X-14303628Y-12427915D01*
G01X-14307489Y-12422007D01*
G01X-14303620Y-12416092D01*
G01X-14301194Y-12416013D01*
G37*
G54D11*
G01X-8202980Y-8154973D02*
G01X-8208060Y-8160053D01*
G01X-9483415Y-9679893D02*
G01X-9488495Y-9684973D01*
G54D10*
G01X-13509099Y-12422000D02*
G01X-13429100Y-12422000D01*
G01X-13509099Y-12422000D02*
G01X-13509099Y-12262000D01*
G01X-13509099Y-12262000D02*
G01X-13429100Y-12262000D01*
G01X-13429100Y-12422000D02*
G01X-13429100Y-12262000D01*
G36*
G01X-13429100Y-12422000D02*
G01X-13509099Y-12422000D01*
G01X-13509099Y-12392000D01*
G01X-13429100Y-12392000D01*
G01X-13429100Y-12422000D01*
G37*
G36*
G01X-13429100Y-12262000D02*
G01X-13429100Y-12292000D01*
G01X-13509099Y-12292000D01*
G01X-13509099Y-12262000D01*
G01X-13429100Y-12262000D01*
G37*
G36*
G01X-13429095Y-12416013D02*
G01X-13426673Y-12416098D01*
G01X-13422813Y-12422006D01*
G01X-13426682Y-12427921D01*
G01X-13429107Y-12428000D01*
G01X-13431529Y-12427915D01*
G01X-13435389Y-12422007D01*
G01X-13431520Y-12416092D01*
G01X-13429095Y-12416013D01*
G37*
G01X-7806500Y-7334600D02*
G01X-7806500Y-7414600D01*
G01X-7806500Y-7334600D02*
G01X-7646500Y-7334600D01*
G01X-7646500Y-7334600D02*
G01X-7646500Y-7414600D01*
G01X-7806500Y-7414600D02*
G01X-7646500Y-7414600D01*
G36*
G01X-7806500Y-7414600D02*
G01X-7806500Y-7334600D01*
G01X-7776500Y-7334600D01*
G01X-7776500Y-7414600D01*
G01X-7806500Y-7414600D01*
G37*
G36*
G01X-7646500Y-7414600D02*
G01X-7676500Y-7414600D01*
G01X-7676500Y-7334600D01*
G01X-7646500Y-7334600D01*
G01X-7646500Y-7414600D01*
G37*
G36*
G01X-7800513Y-7414605D02*
G01X-7800598Y-7417026D01*
G01X-7806506Y-7420887D01*
G01X-7812421Y-7417018D01*
G01X-7812500Y-7414592D01*
G01X-7812415Y-7412171D01*
G01X-7806507Y-7408310D01*
G01X-7800592Y-7412179D01*
G01X-7800513Y-7414605D01*
G37*
G01X-6477800Y-10181200D02*
G01X-6557800Y-10181200D01*
G01X-6477800Y-10181200D02*
G01X-6477800Y-10341200D01*
G01X-6477800Y-10341200D02*
G01X-6557800Y-10341200D01*
G01X-6557800Y-10181200D02*
G01X-6557800Y-10341200D01*
G36*
G01X-6557800Y-10181200D02*
G01X-6477800Y-10181200D01*
G01X-6477800Y-10211200D01*
G01X-6557800Y-10211200D01*
G01X-6557800Y-10181200D01*
G37*
G36*
G01X-6557800Y-10341200D02*
G01X-6557800Y-10311200D01*
G01X-6477800Y-10311200D01*
G01X-6477800Y-10341200D01*
G01X-6557800Y-10341200D01*
G37*
G36*
G01X-6557805Y-10187187D02*
G01X-6560226Y-10187102D01*
G01X-6564087Y-10181194D01*
G01X-6560218Y-10175279D01*
G01X-6557792Y-10175200D01*
G01X-6555371Y-10175284D01*
G01X-6551510Y-10181193D01*
G01X-6555380Y-10187108D01*
G01X-6557805Y-10187187D01*
G37*
G01X-6314600Y-10186300D02*
G01X-6394600Y-10186300D01*
G01X-6314600Y-10186300D02*
G01X-6314600Y-10346300D01*
G01X-6314600Y-10346300D02*
G01X-6394600Y-10346300D01*
G01X-6394600Y-10186300D02*
G01X-6394600Y-10346300D01*
G36*
G01X-6394600Y-10186300D02*
G01X-6314600Y-10186300D01*
G01X-6314600Y-10216300D01*
G01X-6394600Y-10216300D01*
G01X-6394600Y-10186300D01*
G37*
G36*
G01X-6394600Y-10346300D02*
G01X-6394600Y-10316300D01*
G01X-6314600Y-10316300D01*
G01X-6314600Y-10346300D01*
G01X-6394600Y-10346300D01*
G37*
G36*
G01X-6394605Y-10192287D02*
G01X-6397026Y-10192202D01*
G01X-6400887Y-10186294D01*
G01X-6397018Y-10180379D01*
G01X-6394592Y-10180300D01*
G01X-6392171Y-10180384D01*
G01X-6388310Y-10186293D01*
G01X-6392180Y-10192208D01*
G01X-6394605Y-10192287D01*
G37*
G54D11*
G01X-5908370Y-11251714D02*
G01X-5903290Y-11246634D01*
G01X-5037686Y-9672170D02*
G01X-5042766Y-9667090D01*
G01X-5372830Y-9591986D02*
G01X-5377910Y-9597066D01*
G01X-5536070Y-9869614D02*
G01X-5530990Y-9864534D01*
G01X-5954230Y-9913286D02*
G01X-5959310Y-9918366D01*
G01X-5265770Y-11251714D02*
G01X-5260690Y-11246634D01*
G01X-6307586Y-11829470D02*
G01X-6312666Y-11824390D01*
G01X-5573186Y-11829470D02*
G01X-5578266Y-11824390D01*
G01X-4806770Y-11251714D02*
G01X-4801690Y-11246634D01*
G01X-4327329Y-11168397D02*
G01X-4332409Y-11173477D01*
G01X-4833686Y-11829470D02*
G01X-4838766Y-11824390D01*
G01X-4094186Y-11829470D02*
G01X-4099266Y-11824390D01*
G54D12*
G01X-10178800Y-11622900D02*
G01X-10278800Y-11622900D01*
G01X-10228800Y-11672900D02*
G01X-10228800Y-11572900D01*
G01X-11088800Y-11672900D02*
G01X-11088800Y-11572900D01*
G54D11*
G01X-13328870Y-806914D02*
G01X-13323790Y-801834D01*
G01X-13202786Y-1063370D02*
G01X-13207866Y-1058290D01*
G01X-7549114Y-4077430D02*
G01X-7544034Y-4082510D01*
G01X-7753114Y-4072330D02*
G01X-7748034Y-4077410D01*
G01X-3990770Y-6620914D02*
G01X-3985690Y-6615834D01*

M02*

