;TYPE=PLATED
;Layer: PTH_Through
;EasyEDA Pro Client v2.2.32.3, 2026-03-27 17:47:45
;Gerber Generator version 0.3
M48
METRIC,LZ,000.00000
;Hole size 1 = 0.30000 METRIC
T01C0.30000
%
G05
G90
T01
X110.87543Y1.27
X98.12527Y3.00904
X98.56777Y-2.28389
X99.75536Y-2.28389
X100.94294Y-2.28389
X100.39651Y1.89816
X103.76984Y-2.33489
X104.95743Y-2.33489
X106.14501Y-2.33489
X107.3326Y-2.33489
X105.50386Y-1.41688
X106.69145Y-1.41688
X107.87903Y-1.41688
X109.06662Y-1.41688
X106.11587Y-0.54987
X107.30346Y-0.54987
X108.49104Y-0.54987
X109.67863Y-0.54987
X105.70786Y0.41914
X106.89545Y0.41914
X108.08304Y0.41914
X109.27062Y0.41914
X105.55486Y1.23515
X106.74245Y1.23515
X107.93003Y1.23515
X109.11762Y1.23515
X99.49115Y1.87052
X101.37818Y-0.76694
X101.37818Y0.42064
X101.37818Y1.60823
X102.14319Y-2.20953
X102.14319Y-1.02195
X102.14319Y0.16564
X102.14319Y1.35323
X106.37087Y7.13122
X108.42547Y8.10023
X111.24508Y5.19319
X111.05565Y6.36621
X101.83181Y7.61023
X103.0194Y7.61023
X104.20698Y7.61023
X105.39457Y7.61023
X114.27597Y6.33522
X115.46356Y6.33522
X116.65115Y6.33522
X117.83873Y6.33522
X111.82794Y7.30423
X113.01553Y7.30423
X114.20311Y7.30423
X115.3907Y7.30423
X111.07557Y8.27687
X112.26316Y8.27687
X113.45074Y8.27687
X114.63833Y8.27687
X112.23595Y5.51921
X113.42353Y5.51921
X114.61112Y5.51921
X115.79871Y5.51921
X115.55099Y-6.46595
X116.73858Y-6.46595
X117.92616Y-6.46595
X119.11375Y-6.46595
X111.77694Y-5.80294
X112.96453Y-5.80294
X114.15211Y-5.80294
X115.3397Y-5.80294
X111.57294Y-4.57892
X112.76053Y-4.57892
X113.94811Y-4.57892
X115.1357Y-4.57892
X108.10489Y-3.81391
X109.29248Y-3.81391
X110.48007Y-3.81391
X111.66765Y-3.81391
X108.2069Y-2.6409
X109.39448Y-2.6409
X110.58207Y-2.6409
X111.76965Y-2.6409
X66.94736Y2.25516
X68.13495Y2.25516
X69.32253Y2.25516
X70.51012Y2.25516
X66.23335Y-2.4369
X67.42094Y-2.4369
X68.60852Y-2.4369
X69.79611Y-2.4369
X69.7014Y0.26614
X70.88898Y0.26614
X72.07657Y0.26614
X73.26416Y0.26614
X69.19139Y-1.00888
X70.37898Y-1.00888
X71.56656Y-1.00888
X72.75415Y-1.00888
X69.7014Y1.28615
X70.88898Y1.28615
X72.07657Y1.28615
X73.26416Y1.28615
X66.19499Y3.74532
X67.38258Y3.74532
X68.57016Y3.74532
X69.75775Y3.74532
X60.72528Y-2.28389
X61.91287Y-2.28389
X63.10045Y-2.28389
X64.28804Y-2.28389
X63.68332Y-3.91592
X64.87091Y-3.91592
X66.05849Y-3.91592
X67.24608Y-3.91592
X68.98739Y-3.86491
X70.17498Y-3.86491
X71.36256Y-3.86491
X72.55015Y-3.86491
X70.77241Y3.02017
X71.96Y3.02017
X73.14758Y3.02017
X74.33517Y3.02017
X33.43993Y2.05116
X34.62752Y2.05116
X35.8151Y2.05116
X37.00269Y2.05116
X33.59293Y2.96917
X34.78052Y2.96917
X35.9681Y2.96917
X37.15569Y2.96917
X35.73496Y0.77615
X36.92254Y0.77615
X38.11013Y0.77615
X39.29772Y0.77615
X35.83696Y-0.54987
X37.02455Y-0.54987
X38.21213Y-0.54987
X39.39972Y-0.54987
X35.68396Y-1.77389
X36.87154Y-1.77389
X38.05913Y-1.77389
X39.24672Y-1.77389
X33.33793Y-2.7939
X34.52551Y-2.7939
X35.7131Y-2.7939
X36.90069Y-2.7939
X28.44186Y-2.28389
X29.62945Y-2.28389
X30.81704Y-2.28389
X32.00462Y-2.28389
X28.39086Y-3.50791
X29.57845Y-3.50791
X30.76603Y-3.50791
X31.95362Y-3.50791
X34.05194Y-3.81391
X35.23952Y-3.81391
X36.42711Y-3.81391
X37.61469Y-3.81391
X1.30951Y2.40817
X2.4971Y2.40817
X3.68468Y2.40817
X4.87227Y2.40817
X2.68653Y3.27518
X3.87412Y3.27518
X5.0617Y3.27518
X6.24929Y3.27518
X2.78853Y1.43915
X3.97612Y1.43915
X5.1637Y1.43915
X6.35129Y1.43915
X2.73753Y0.31714
X3.92512Y0.31714
X5.1127Y0.31714
X6.30029Y0.31714
X2.94153Y-0.75387
X4.12912Y-0.75387
X5.31671Y-0.75387
X6.50429Y-0.75387
X2.53353Y-1.92689
X3.72112Y-1.92689
X4.9087Y-1.92689
X6.09629Y-1.92689
X0.1365Y-2.9979
X1.32408Y-2.9979
X2.51167Y-2.9979
X3.69926Y-2.9979
X-2.46454Y-2.13089
X-1.27695Y-2.13089
X-0.08936Y-2.13089
X1.09822Y-2.13089
X2.43153Y-3.86491
X3.61911Y-3.86491
X4.8067Y-3.86491
X5.99429Y-3.86491
X100.8628Y-3.66091
X102.05039Y-3.66091
X103.23797Y-3.66091
X104.42556Y-3.66091
X103.05583Y-5.03793
X104.24342Y-5.03793
X105.431Y-5.03793
X106.61859Y-5.03793
X96.56903Y5.28422
X97.75662Y5.28422
X98.94421Y5.28422
X100.13179Y5.28422
X101.8731Y5.33522
X103.06069Y5.33522
X104.24827Y5.33522
X105.43586Y5.33522
X96.11974Y6.48822
X97.30733Y6.48822
X98.49491Y6.48822
X99.6825Y6.48822
X101.42381Y6.53922
X102.61139Y6.53922
X103.79898Y6.53922
X104.98657Y6.53922
X84.44059Y6.74322
X85.62818Y6.74322
X86.81576Y6.74322
X88.00335Y6.74322
X89.74466Y6.79422
X90.93224Y6.79422
X92.11983Y6.79422
X93.30742Y6.79422
X90.40767Y-3.55891
X91.59525Y-3.55891
X92.78284Y-3.55891
X93.97042Y-3.55891
X95.71173Y-3.50791
X96.89932Y-3.50791
X98.08691Y-3.50791
X99.27449Y-3.50791
X72.02468Y6.59022
X73.21227Y6.59022
X74.39985Y6.59022
X75.58744Y6.59022
X77.32875Y6.64122
X78.51633Y6.64122
X79.70392Y6.64122
X80.89151Y6.64122
X56.65778Y6.59022
X57.84536Y6.59022
X59.03295Y6.59022
X60.22054Y6.59022
X61.96185Y6.64122
X63.14943Y6.64122
X64.33702Y6.64122
X65.5246Y6.64122
X38.24951Y6.59022
X39.4371Y6.59022
X40.62468Y6.59022
X41.81227Y6.59022
X43.55358Y6.64122
X44.74117Y6.64122
X45.92875Y6.64122
X47.11634Y6.64122
X22.16229Y6.59022
X23.34987Y6.59022
X24.53746Y6.59022
X25.72504Y6.59022
X27.46635Y6.64122
X28.65394Y6.64122
X29.84153Y6.64122
X31.02911Y6.64122
X4.71445Y6.59022
X5.90204Y6.59022
X7.08962Y6.59022
X8.27721Y6.59022
X10.01852Y6.64122
X11.20611Y6.64122
X12.39369Y6.64122
X13.58128Y6.64122
M30