G04 Layer: BottomLayer*
G04 EasyEDA Pro v2.2.32.3, 2026-03-27 17:47:45*
G04 Gerber Generator version 0.3*
G04 Scale: 100 percent, Rotated: No, Reflected: No*
G04 Dimensions in millimeters*
G04 Leading zeros omitted, absolute positions, 3 integers and 5 decimals*
%FSLAX35Y35*%
%MOMM*%
%ADD10C,0.2032*%
%ADD11R,0.889X0.889*%
%ADD12R,1.4X1.0*%
%ADD13R,0.67201X1.575*%
%ADD14C,0.6*%
%ADD15C,0.8086*%
%ADD16C,0.8*%
G75*


G04 Copper Start*
G36*
G01X-249999Y914184D02*
G01X11849976Y914184D01*
G02X12014162Y749999I0J-164186D01*
G01X12014162Y-749998D01*
G02X11849976Y-914184I-164186J0D01*
G01X-249999Y-914184D01*
G02X-414185Y-749998I0J164186D01*
G01X-414185Y749999D01*
G02X-249999Y914184I164186J0D01*
G37*
%LPC*%
G36*
G01X2130414Y0D02*
G03X1169586Y0I-480414J0D01*
G03X2130414Y0I480414J0D01*
G37*
G36*
G01X5430404Y0D02*
G03X4469576Y0I-480414J0D01*
G03X5430404Y0I480414J0D01*
G37*
G36*
G01X8730398Y0D02*
G03X7769569Y0I-480414J0D01*
G03X8730398Y0I480414J0D01*
G37*
G36*
G01X9758918Y354513D02*
G03X9866136Y247295I53609J-53609D01*
G01X9882652Y263812D01*
G01X10090334Y263812D01*
G02X10189389Y231826I0J-169367D01*
G03X10210334Y225062I20946J29050D01*
G01X10277535Y225062D01*
G03X10313349Y260876I0J35814D01*
G01X10313349Y309140D01*
G03X10313349Y370112I-69414J30486D01*
G01X10313349Y418376D01*
G03X10277535Y454190I-35814J0D01*
G01X10210334Y454190D01*
G03X10189389Y447426I0J-35814D01*
G02X10090334Y415440I-99054J137381D01*
G01X9851249Y415440D01*
G03X9797640Y393235I0J-75814D01*
G01X9758918Y354513D01*
G37*
G36*
G01X11055656Y314166D02*
G01X11055656Y414106D01*
G03X11019842Y449920I-35814J0D01*
G01X10879842Y449920D01*
G03X10873890Y449422I0J-35814D01*
G02X10831502Y443656I-114049J679687D01*
G02X10804405Y446285I88987J1058010D01*
G03X10800489Y446500I-3916J-35599D01*
G01X10711589Y446500D01*
G03X10707654Y446283I0J-35814D01*
G02X10655064Y441819I-116065J1055383D01*
G02X10585934Y453191I42471J473975D01*
G03X10577535Y454190I-8399J-34815D01*
G01X10510334Y454190D01*
G03X10474520Y418376I0J-35814D01*
G01X10474520Y370112D01*
G03X10474520Y309140I69414J-30486D01*
G01X10474520Y260876D01*
G03X10510334Y225062I35814J0D01*
G01X10577535Y225062D01*
G03X10611309Y248963I0J35814D01*
G02X10680442Y287005I86225J-74858D01*
G02X10710205Y285999I-88852J-3067297D01*
G01X10711589Y285972D01*
G01X10800489Y285972D01*
G01X10801874Y285999D01*
G01X10811476Y286355D01*
G02X10866930Y279921I-51635J-687252D01*
G02X10874028Y264731I-12784J-15227D01*
G03X10896233Y211093I75814J-29D01*
G01X11033935Y73391D01*
G03X11141152Y180609I53609J53609D01*
G01X11038329Y283432D01*
G03X11055656Y314166I-18487J30674D01*
G37*
%LPD*%
G54D10*
G01X-249999Y914184D02*
G01X11849976Y914184D01*
G02X12014162Y749999I0J-164186D01*
G01X12014162Y-749998D01*
G02X11849976Y-914184I-164186J0D01*
G01X-249999Y-914184D01*
G02X-414185Y-749998I0J164186D01*
G01X-414185Y749999D01*
G02X-249999Y914184I164186J0D01*
G01X2130414Y0D02*
G03X1169586Y0I-480414J0D01*
G03X2130414Y0I480414J0D01*
G01X5430404Y0D02*
G03X4469576Y0I-480414J0D01*
G03X5430404Y0I480414J0D01*
G01X8730398Y0D02*
G03X7769569Y0I-480414J0D01*
G03X8730398Y0I480414J0D01*
G01X9758918Y354513D02*
G03X9866136Y247295I53609J-53609D01*
G01X9882652Y263812D01*
G01X10090334Y263812D01*
G02X10189389Y231826I0J-169367D01*
G03X10210334Y225062I20946J29050D01*
G01X10277535Y225062D01*
G03X10313349Y260876I0J35814D01*
G01X10313349Y309140D01*
G03X10313349Y370112I-69414J30486D01*
G01X10313349Y418376D01*
G03X10277535Y454190I-35814J0D01*
G01X10210334Y454190D01*
G03X10189389Y447426I0J-35814D01*
G02X10090334Y415440I-99054J137381D01*
G01X9851249Y415440D01*
G03X9797640Y393235I0J-75814D01*
G01X9758918Y354513D01*
G01X11055656Y314166D02*
G01X11055656Y414106D01*
G03X11019842Y449920I-35814J0D01*
G01X10879842Y449920D01*
G03X10873890Y449422I0J-35814D01*
G02X10831502Y443656I-114049J679687D01*
G02X10804405Y446285I88987J1058010D01*
G03X10800489Y446500I-3916J-35599D01*
G01X10711589Y446500D01*
G03X10707654Y446283I0J-35814D01*
G02X10655064Y441819I-116065J1055383D01*
G02X10585934Y453191I42471J473975D01*
G03X10577535Y454190I-8399J-34815D01*
G01X10510334Y454190D01*
G03X10474520Y418376I0J-35814D01*
G01X10474520Y370112D01*
G03X10474520Y309140I69414J-30486D01*
G01X10474520Y260876D01*
G03X10510334Y225062I35814J0D01*
G01X10577535Y225062D01*
G03X10611309Y248963I0J35814D01*
G02X10680442Y287005I86225J-74858D01*
G02X10710205Y285999I-88852J-3067297D01*
G01X10711589Y285972D01*
G01X10800489Y285972D01*
G01X10801874Y285999D01*
G01X10811476Y286355D01*
G02X10866930Y279921I-51635J-687252D01*
G02X10874028Y264731I-12784J-15227D01*
G03X10896233Y211093I75814J-29D01*
G01X11033935Y73391D01*
G03X11141152Y180609I53609J53609D01*
G01X11038329Y283432D01*
G03X11055656Y314166I-18487J30674D01*
G04 Copper End*

G04 TearDrop Start*
G36*
G01X10920489Y404106D02*
G01X10920489Y324106D01*
G01X10920489Y324106D01*
G03X10800489Y321786I0J-3104398D01*
G01X10800489Y321786D01*
G01X10800489Y410686D01*
G01X10800489Y410686D01*
G03X10920489Y404106I120000J1090980D01*
G37*
G36*
G01X10591589Y324106D02*
G01X10591589Y404106D01*
G01X10591589Y404106D01*
G03X10711589Y410686I0J1097560D01*
G01X10711589Y410686D01*
G01X10711589Y321786D01*
G01X10711589Y321786D01*
G03X10591589Y324106I-120000J-3102077D01*
G37*
G36*
G01X10759842Y324106D02*
G01X10759842Y404106D01*
G03X10879842Y414106I0J725003D01*
G01X10879842Y314106D01*
G01X10879842Y314106D01*
G03X10759842Y324106I-120000J-715003D01*
G37*
G36*
G01X10989842Y264702D02*
G01X10909842Y264702D01*
G03X10879842Y314106I-55680J0D01*
G01X11019842Y314106D01*
G03X10989842Y264702I25680J-49404D01*
G37*
G36*
G01X10090334Y299626D02*
G01X10090334Y379626D01*
G03X10210334Y418376I0J205181D01*
G01X10210334Y260876D01*
G03X10090334Y299626I-120000J-166431D01*
G37*
G36*
G01X10697535Y404106D02*
G01X10697535Y324106D01*
G01X10697535Y324106D01*
G03X10577535Y264106I0J-150000D01*
G01X10577535Y264106D01*
G01X10577535Y418376D01*
G03X10697535Y404106I120000J497418D01*
G37*
G04 TearDrop End*

G04 Pad Start*
G54D11*
G01X10756039Y521176D03*
G01X10756039Y366236D03*
G54D12*
G01X10949842Y364106D03*
G01X10949842Y564106D03*
G54D13*
G01X10243935Y339626D03*
G01X10543934Y339626D03*
G36*
G01X10488918Y-24318D02*
G01X10488811Y-28771D01*
G01X10488499Y-33213D01*
G01X10487978Y-37638D01*
G01X10487252Y-42032D01*
G01X10486317Y-46388D01*
G01X10485182Y-50693D01*
G01X10483845Y-54943D01*
G01X10482311Y-59124D01*
G01X10480582Y-63228D01*
G01X10478664Y-67249D01*
G01X10476558Y-71173D01*
G01X10474270Y-74996D01*
G01X10471806Y-78707D01*
G01X10469172Y-82299D01*
G01X10466373Y-85761D01*
G01X10463411Y-89090D01*
G01X10460300Y-92276D01*
G01X10457041Y-95313D01*
G01X10453645Y-98194D01*
G01X10450117Y-100912D01*
G01X10446464Y-103462D01*
G01X10442697Y-105837D01*
G01X10438821Y-108034D01*
G01X10434849Y-110048D01*
G01X10430785Y-111872D01*
G01X10426642Y-113505D01*
G01X10422426Y-114940D01*
G01X10418146Y-116177D01*
G01X10413813Y-117211D01*
G01X10409439Y-118041D01*
G01X10405027Y-118666D01*
G01X10400592Y-119083D01*
G01X10396144Y-119291D01*
G01X10391689Y-119291D01*
G01X10387242Y-119083D01*
G01X10382807Y-118666D01*
G01X10378395Y-118041D01*
G01X10374021Y-117211D01*
G01X10369688Y-116177D01*
G01X10365408Y-114940D01*
G01X10361191Y-113505D01*
G01X10357049Y-111872D01*
G01X10352985Y-110048D01*
G01X10349012Y-108034D01*
G01X10345136Y-105837D01*
G01X10341369Y-103462D01*
G01X10337717Y-100912D01*
G01X10334189Y-98194D01*
G01X10330793Y-95313D01*
G01X10327534Y-92276D01*
G01X10324422Y-89090D01*
G01X10321461Y-85761D01*
G01X10318662Y-82299D01*
G01X10316028Y-78707D01*
G01X10313564Y-74996D01*
G01X10311275Y-71173D01*
G01X10309170Y-67249D01*
G01X10307252Y-63228D01*
G01X10305522Y-59124D01*
G01X10303988Y-54943D01*
G01X10302652Y-50693D01*
G01X10301517Y-46388D01*
G01X10300582Y-42032D01*
G01X10299855Y-37638D01*
G01X10299335Y-33213D01*
G01X10299022Y-28771D01*
G01X10298916Y-24318D01*
G01X10298916Y161102D01*
G01X10299022Y165555D01*
G01X10299335Y169997D01*
G01X10299855Y174422D01*
G01X10300582Y178816D01*
G01X10301517Y183172D01*
G01X10302652Y187477D01*
G01X10303988Y191727D01*
G01X10305522Y195908D01*
G01X10307252Y200012D01*
G01X10309170Y204033D01*
G01X10311275Y207957D01*
G01X10313564Y211780D01*
G01X10316028Y215491D01*
G01X10318662Y219083D01*
G01X10321461Y222545D01*
G01X10324422Y225875D01*
G01X10327534Y229060D01*
G01X10330793Y232098D01*
G01X10334189Y234978D01*
G01X10337717Y237696D01*
G01X10341369Y240246D01*
G01X10345136Y242621D01*
G01X10349012Y244818D01*
G01X10352985Y246832D01*
G01X10360920Y248656D01*
G01X10360920Y418389D01*
G01X10426919Y418389D01*
G01X10426919Y248656D01*
G01X10434849Y246832D01*
G01X10438821Y244818D01*
G01X10442697Y242621D01*
G01X10446464Y240246D01*
G01X10450117Y237696D01*
G01X10453645Y234978D01*
G01X10457041Y232098D01*
G01X10460300Y229060D01*
G01X10463411Y225875D01*
G01X10466373Y222545D01*
G01X10469172Y219083D01*
G01X10471806Y215491D01*
G01X10474270Y211780D01*
G01X10476558Y207957D01*
G01X10478664Y204033D01*
G01X10480582Y200012D01*
G01X10482311Y195908D01*
G01X10483845Y191727D01*
G01X10485182Y187477D01*
G01X10486317Y183172D01*
G01X10487252Y178816D01*
G01X10487978Y174422D01*
G01X10488499Y169997D01*
G01X10488811Y165555D01*
G01X10488918Y161102D01*
G01X10488918Y-24318D01*
G37*
G04 Pad End*

G04 Via Start*
G54D14*
G01X11087543Y127000D03*
G01X9812527Y300904D03*
G01X9856777Y-228389D03*
G01X9975536Y-228389D03*
G01X10094294Y-228389D03*
G01X10039651Y189816D03*
G01X10376984Y-233489D03*
G01X10495743Y-233489D03*
G01X10614501Y-233489D03*
G01X10733260Y-233489D03*
G01X10550386Y-141688D03*
G01X10669145Y-141688D03*
G01X10787903Y-141688D03*
G01X10906662Y-141688D03*
G01X10611587Y-54987D03*
G01X10730346Y-54987D03*
G01X10849104Y-54987D03*
G01X10967863Y-54987D03*
G01X10570786Y41914D03*
G01X10689545Y41914D03*
G01X10808304Y41914D03*
G01X10927062Y41914D03*
G01X10555486Y123515D03*
G01X10674245Y123515D03*
G01X10793003Y123515D03*
G01X10911762Y123515D03*
G01X9949115Y187052D03*
G01X10137818Y-76694D03*
G01X10137818Y42064D03*
G01X10137818Y160823D03*
G01X10214319Y-220953D03*
G01X10214319Y-102195D03*
G01X10214319Y16564D03*
G01X10214319Y135323D03*
G01X10637087Y713122D03*
G01X10842547Y810023D03*
G01X11124508Y519319D03*
G01X11105565Y636621D03*
G01X10183181Y761023D03*
G01X10301940Y761023D03*
G01X10420698Y761023D03*
G01X10539457Y761023D03*
G01X11427597Y633522D03*
G01X11546356Y633522D03*
G01X11665115Y633522D03*
G01X11783873Y633522D03*
G01X11182794Y730423D03*
G01X11301553Y730423D03*
G01X11420311Y730423D03*
G01X11539070Y730423D03*
G01X11107557Y827687D03*
G01X11226316Y827687D03*
G01X11345074Y827687D03*
G01X11463833Y827687D03*
G01X11223595Y551921D03*
G01X11342353Y551921D03*
G01X11461112Y551921D03*
G01X11579871Y551921D03*
G01X11555099Y-646595D03*
G01X11673858Y-646595D03*
G01X11792616Y-646595D03*
G01X11911375Y-646595D03*
G01X11177694Y-580294D03*
G01X11296453Y-580294D03*
G01X11415211Y-580294D03*
G01X11533970Y-580294D03*
G01X11157294Y-457892D03*
G01X11276053Y-457892D03*
G01X11394811Y-457892D03*
G01X11513570Y-457892D03*
G01X10810489Y-381391D03*
G01X10929248Y-381391D03*
G01X11048007Y-381391D03*
G01X11166765Y-381391D03*
G01X10820690Y-264090D03*
G01X10939448Y-264090D03*
G01X11058207Y-264090D03*
G01X11176965Y-264090D03*
G01X6694736Y225516D03*
G01X6813495Y225516D03*
G01X6932253Y225516D03*
G01X7051012Y225516D03*
G01X6623335Y-243690D03*
G01X6742094Y-243690D03*
G01X6860852Y-243690D03*
G01X6979611Y-243690D03*
G01X6970140Y26614D03*
G01X7088898Y26614D03*
G01X7207657Y26614D03*
G01X7326416Y26614D03*
G01X6919139Y-100888D03*
G01X7037898Y-100888D03*
G01X7156656Y-100888D03*
G01X7275415Y-100888D03*
G01X6970140Y128615D03*
G01X7088898Y128615D03*
G01X7207657Y128615D03*
G01X7326416Y128615D03*
G01X6619499Y374532D03*
G01X6738258Y374532D03*
G01X6857016Y374532D03*
G01X6975775Y374532D03*
G01X6072528Y-228389D03*
G01X6191287Y-228389D03*
G01X6310045Y-228389D03*
G01X6428804Y-228389D03*
G01X6368332Y-391592D03*
G01X6487091Y-391592D03*
G01X6605849Y-391592D03*
G01X6724608Y-391592D03*
G01X6898739Y-386491D03*
G01X7017498Y-386491D03*
G01X7136256Y-386491D03*
G01X7255015Y-386491D03*
G01X7077241Y302017D03*
G01X7196000Y302017D03*
G01X7314758Y302017D03*
G01X7433517Y302017D03*
G01X3343993Y205116D03*
G01X3462752Y205116D03*
G01X3581510Y205116D03*
G01X3700269Y205116D03*
G01X3359293Y296917D03*
G01X3478052Y296917D03*
G01X3596810Y296917D03*
G01X3715569Y296917D03*
G01X3573496Y77615D03*
G01X3692254Y77615D03*
G01X3811013Y77615D03*
G01X3929772Y77615D03*
G01X3583696Y-54987D03*
G01X3702455Y-54987D03*
G01X3821213Y-54987D03*
G01X3939972Y-54987D03*
G01X3568396Y-177389D03*
G01X3687154Y-177389D03*
G01X3805913Y-177389D03*
G01X3924672Y-177389D03*
G01X3333793Y-279390D03*
G01X3452551Y-279390D03*
G01X3571310Y-279390D03*
G01X3690069Y-279390D03*
G01X2844186Y-228389D03*
G01X2962945Y-228389D03*
G01X3081704Y-228389D03*
G01X3200462Y-228389D03*
G01X2839086Y-350791D03*
G01X2957845Y-350791D03*
G01X3076603Y-350791D03*
G01X3195362Y-350791D03*
G01X3405194Y-381391D03*
G01X3523952Y-381391D03*
G01X3642711Y-381391D03*
G01X3761469Y-381391D03*
G01X130951Y240817D03*
G01X249710Y240817D03*
G01X368468Y240817D03*
G01X487227Y240817D03*
G01X268653Y327518D03*
G01X387412Y327518D03*
G01X506170Y327518D03*
G01X624929Y327518D03*
G01X278853Y143915D03*
G01X397612Y143915D03*
G01X516370Y143915D03*
G01X635129Y143915D03*
G01X273753Y31714D03*
G01X392512Y31714D03*
G01X511270Y31714D03*
G01X630029Y31714D03*
G01X294153Y-75387D03*
G01X412912Y-75387D03*
G01X531671Y-75387D03*
G01X650429Y-75387D03*
G01X253353Y-192689D03*
G01X372112Y-192689D03*
G01X490870Y-192689D03*
G01X609629Y-192689D03*
G01X13650Y-299790D03*
G01X132408Y-299790D03*
G01X251167Y-299790D03*
G01X369926Y-299790D03*
G01X-246454Y-213089D03*
G01X-127695Y-213089D03*
G01X-8936Y-213089D03*
G01X109822Y-213089D03*
G01X243153Y-386491D03*
G01X361911Y-386491D03*
G01X480670Y-386491D03*
G01X599429Y-386491D03*
G01X10086280Y-366091D03*
G01X10205039Y-366091D03*
G01X10323797Y-366091D03*
G01X10442556Y-366091D03*
G01X10305583Y-503793D03*
G01X10424342Y-503793D03*
G01X10543100Y-503793D03*
G01X10661859Y-503793D03*
G01X9656903Y528422D03*
G01X9775662Y528422D03*
G01X9894421Y528422D03*
G01X10013179Y528422D03*
G01X10187310Y533522D03*
G01X10306069Y533522D03*
G01X10424827Y533522D03*
G01X10543586Y533522D03*
G01X9611974Y648822D03*
G01X9730733Y648822D03*
G01X9849491Y648822D03*
G01X9968250Y648822D03*
G01X10142381Y653922D03*
G01X10261139Y653922D03*
G01X10379898Y653922D03*
G01X10498657Y653922D03*
G01X8444059Y674322D03*
G01X8562818Y674322D03*
G01X8681576Y674322D03*
G01X8800335Y674322D03*
G01X8974466Y679422D03*
G01X9093224Y679422D03*
G01X9211983Y679422D03*
G01X9330742Y679422D03*
G01X9040767Y-355891D03*
G01X9159525Y-355891D03*
G01X9278284Y-355891D03*
G01X9397042Y-355891D03*
G01X9571173Y-350791D03*
G01X9689932Y-350791D03*
G01X9808691Y-350791D03*
G01X9927449Y-350791D03*
G01X7202468Y659022D03*
G01X7321227Y659022D03*
G01X7439985Y659022D03*
G01X7558744Y659022D03*
G01X7732875Y664122D03*
G01X7851633Y664122D03*
G01X7970392Y664122D03*
G01X8089151Y664122D03*
G01X5665778Y659022D03*
G01X5784536Y659022D03*
G01X5903295Y659022D03*
G01X6022054Y659022D03*
G01X6196185Y664122D03*
G01X6314943Y664122D03*
G01X6433702Y664122D03*
G01X6552460Y664122D03*
G01X3824951Y659022D03*
G01X3943710Y659022D03*
G01X4062468Y659022D03*
G01X4181227Y659022D03*
G01X4355358Y664122D03*
G01X4474117Y664122D03*
G01X4592875Y664122D03*
G01X4711634Y664122D03*
G01X2216229Y659022D03*
G01X2334987Y659022D03*
G01X2453746Y659022D03*
G01X2572504Y659022D03*
G01X2746635Y664122D03*
G01X2865394Y664122D03*
G01X2984153Y664122D03*
G01X3102911Y664122D03*
G01X471445Y659022D03*
G01X590204Y659022D03*
G01X708962Y659022D03*
G01X827721Y659022D03*
G01X1001852Y664122D03*
G01X1120611Y664122D03*
G01X1239369Y664122D03*
G01X1358128Y664122D03*
G04 Via End*

G04 Track Start*
G54D16*
G01X11087543Y127000D02*
G01X10949842Y264702D01*
G01X10949842Y364106D01*
G01X10568414Y364106D02*
G01X10543934Y339626D01*
G01X10949842Y364106D02*
G01X10568414Y364106D01*
G01X10243935Y339626D02*
G01X9851249Y339626D01*
G01X9812527Y300904D01*
G04 Track End*

M02*

