G04 Layer: DrillDrawingLayer*
G04 EasyEDA Pro v2.2.32.3, 2026-03-27 17:47:45*
G04 Gerber Generator version 0.3*
G04 Scale: 100 percent, Rotated: No, Reflected: No*
G04 Dimensions in millimeters*
G04 Leading zeros omitted, absolute positions, 3 integers and 5 decimals*
%FSLAX35Y35*%
%MOMM*%
%AMIconRect*4,1,4,0.2,-0.2,-0.2,-0.2,-0.2,0.2,0.2,0.2,0.2,-0.2,0*4,0,4,0.166667,-0.166667,0.166667,0.166667,-0.166667,0.166667,-0.166667,-0.166667,0.166667,-0.166667,0*%
%ADD10IconRect*%
G75*


G04 Drill Drawing Start*
G54D10*
G01X-246454Y-213089D03*
G01X-127695Y-213089D03*
G01X-8936Y-213089D03*
G01X13650Y-299790D03*
G01X109822Y-213089D03*
G01X130951Y240817D03*
G01X132408Y-299790D03*
G01X243153Y-386491D03*
G01X249710Y240817D03*
G01X251167Y-299790D03*
G01X253353Y-192689D03*
G01X268653Y327518D03*
G01X273753Y31714D03*
G01X278853Y143915D03*
G01X294153Y-75387D03*
G01X361911Y-386491D03*
G01X368468Y240817D03*
G01X369926Y-299790D03*
G01X372112Y-192689D03*
G01X387412Y327518D03*
G01X392512Y31714D03*
G01X397612Y143915D03*
G01X412912Y-75387D03*
G01X471445Y659022D03*
G01X480670Y-386491D03*
G01X487227Y240817D03*
G01X490870Y-192689D03*
G01X506170Y327518D03*
G01X511270Y31714D03*
G01X516370Y143915D03*
G01X531671Y-75387D03*
G01X590204Y659022D03*
G01X599429Y-386491D03*
G01X609629Y-192689D03*
G01X624929Y327518D03*
G01X630029Y31714D03*
G01X635129Y143915D03*
G01X650429Y-75387D03*
G01X708962Y659022D03*
G01X827721Y659022D03*
G01X1001852Y664122D03*
G01X1120611Y664122D03*
G01X1239369Y664122D03*
G01X1358128Y664122D03*
G01X2216229Y659022D03*
G01X2334987Y659022D03*
G01X2453746Y659022D03*
G01X2572504Y659022D03*
G01X2746635Y664122D03*
G01X2839086Y-350791D03*
G01X2844186Y-228389D03*
G01X2865394Y664122D03*
G01X2957845Y-350791D03*
G01X2962945Y-228389D03*
G01X2984153Y664122D03*
G01X3076603Y-350791D03*
G01X3081704Y-228389D03*
G01X3102911Y664122D03*
G01X3195362Y-350791D03*
G01X3200462Y-228389D03*
G01X3333793Y-279390D03*
G01X3343993Y205116D03*
G01X3359293Y296917D03*
G01X3405194Y-381391D03*
G01X3452551Y-279390D03*
G01X3462752Y205116D03*
G01X3478052Y296917D03*
G01X3523952Y-381391D03*
G01X3568396Y-177389D03*
G01X3571310Y-279390D03*
G01X3573496Y77615D03*
G01X3581510Y205116D03*
G01X3583696Y-54987D03*
G01X3596810Y296917D03*
G01X3642711Y-381391D03*
G01X3687154Y-177389D03*
G01X3690069Y-279390D03*
G01X3692254Y77615D03*
G01X3700269Y205116D03*
G01X3702455Y-54987D03*
G01X3715569Y296917D03*
G01X3761469Y-381391D03*
G01X3805913Y-177389D03*
G01X3811013Y77615D03*
G01X3821213Y-54987D03*
G01X3824951Y659022D03*
G01X3924672Y-177389D03*
G01X3929772Y77615D03*
G01X3939972Y-54987D03*
G01X3943710Y659022D03*
G01X4062468Y659022D03*
G01X4181227Y659022D03*
G01X4355358Y664122D03*
G01X4474117Y664122D03*
G01X4592875Y664122D03*
G01X4711634Y664122D03*
G01X5665778Y659022D03*
G01X5784536Y659022D03*
G01X5903295Y659022D03*
G01X6022054Y659022D03*
G01X6072528Y-228389D03*
G01X6191287Y-228389D03*
G01X6196185Y664122D03*
G01X6310045Y-228389D03*
G01X6314943Y664122D03*
G01X6368332Y-391592D03*
G01X6428804Y-228389D03*
G01X6433702Y664122D03*
G01X6487091Y-391592D03*
G01X6552460Y664122D03*
G01X6605849Y-391592D03*
G01X6619499Y374532D03*
G01X6623335Y-243690D03*
G01X6694736Y225516D03*
G01X6724608Y-391592D03*
G01X6738258Y374532D03*
G01X6742094Y-243690D03*
G01X6813495Y225516D03*
G01X6857016Y374532D03*
G01X6860852Y-243690D03*
G01X6898739Y-386491D03*
G01X6919139Y-100888D03*
G01X6932253Y225516D03*
G01X6970140Y26614D03*
G01X6970140Y128615D03*
G01X6975775Y374532D03*
G01X6979611Y-243690D03*
G01X7017498Y-386491D03*
G01X7037898Y-100888D03*
G01X7051012Y225516D03*
G01X7077241Y302017D03*
G01X7088898Y26614D03*
G01X7088898Y128615D03*
G01X7136256Y-386491D03*
G01X7156656Y-100888D03*
G01X7196000Y302017D03*
G01X7202468Y659022D03*
G01X7207657Y26614D03*
G01X7207657Y128615D03*
G01X7255015Y-386491D03*
G01X7275415Y-100888D03*
G01X7314758Y302017D03*
G01X7321227Y659022D03*
G01X7326416Y26614D03*
G01X7326416Y128615D03*
G01X7433517Y302017D03*
G01X7439985Y659022D03*
G01X7558744Y659022D03*
G01X7732875Y664122D03*
G01X7851633Y664122D03*
G01X7970392Y664122D03*
G01X8089151Y664122D03*
G01X8444059Y674322D03*
G01X8562818Y674322D03*
G01X8681576Y674322D03*
G01X8800335Y674322D03*
G01X8974466Y679422D03*
G01X9040767Y-355891D03*
G01X9093224Y679422D03*
G01X9159525Y-355891D03*
G01X9211983Y679422D03*
G01X9278284Y-355891D03*
G01X9330742Y679422D03*
G01X9397042Y-355891D03*
G01X9571173Y-350791D03*
G01X9611974Y648822D03*
G01X9656903Y528422D03*
G01X9689932Y-350791D03*
G01X9730733Y648822D03*
G01X9775662Y528422D03*
G01X9808691Y-350791D03*
G01X9812527Y300904D03*
G01X9849491Y648822D03*
G01X9856777Y-228389D03*
G01X9894421Y528422D03*
G01X9927449Y-350791D03*
G01X9949115Y187052D03*
G01X9968250Y648822D03*
G01X9975536Y-228389D03*
G01X10013179Y528422D03*
G01X10039651Y189816D03*
G01X10086280Y-366091D03*
G01X10094294Y-228389D03*
G01X10137818Y-76694D03*
G01X10137818Y42064D03*
G01X10137818Y160823D03*
G01X10142381Y653922D03*
G01X10183181Y761023D03*
G01X10187310Y533522D03*
G01X10205039Y-366091D03*
G01X10214319Y-220953D03*
G01X10214319Y-102195D03*
G01X10214319Y16564D03*
G01X10214319Y135323D03*
G01X10261139Y653922D03*
G01X10301940Y761023D03*
G01X10305583Y-503793D03*
G01X10306069Y533522D03*
G01X10323797Y-366091D03*
G01X10376984Y-233489D03*
G01X10379898Y653922D03*
G01X10420698Y761023D03*
G01X10424342Y-503793D03*
G01X10424827Y533522D03*
G01X10442556Y-366091D03*
G01X10495743Y-233489D03*
G01X10498657Y653922D03*
G01X10539457Y761023D03*
G01X10543100Y-503793D03*
G01X10543586Y533522D03*
G01X10550386Y-141688D03*
G01X10555486Y123515D03*
G01X10570786Y41914D03*
G01X10611587Y-54987D03*
G01X10614501Y-233489D03*
G01X10637087Y713122D03*
G01X10661859Y-503793D03*
G01X10669145Y-141688D03*
G01X10674245Y123515D03*
G01X10689545Y41914D03*
G01X10730346Y-54987D03*
G01X10733260Y-233489D03*
G01X10787903Y-141688D03*
G01X10793003Y123515D03*
G01X10808304Y41914D03*
G01X10810489Y-381391D03*
G01X10820690Y-264090D03*
G01X10842547Y810023D03*
G01X10849104Y-54987D03*
G01X10906662Y-141688D03*
G01X10911762Y123515D03*
G01X10927062Y41914D03*
G01X10929248Y-381391D03*
G01X10939448Y-264090D03*
G01X10967863Y-54987D03*
G01X11048007Y-381391D03*
G01X11058207Y-264090D03*
G01X11087543Y127000D03*
G01X11105565Y636621D03*
G01X11107557Y827687D03*
G01X11124508Y519319D03*
G01X11157294Y-457892D03*
G01X11166765Y-381391D03*
G01X11176965Y-264090D03*
G01X11177694Y-580294D03*
G01X11182794Y730423D03*
G01X11223595Y551921D03*
G01X11226316Y827687D03*
G01X11276053Y-457892D03*
G01X11296453Y-580294D03*
G01X11301553Y730423D03*
G01X11342353Y551921D03*
G01X11345074Y827687D03*
G01X11394811Y-457892D03*
G01X11415211Y-580294D03*
G01X11420311Y730423D03*
G01X11427597Y633522D03*
G01X11461112Y551921D03*
G01X11463833Y827687D03*
G01X11513570Y-457892D03*
G01X11533970Y-580294D03*
G01X11539070Y730423D03*
G01X11546356Y633522D03*
G01X11555099Y-646595D03*
G01X11579871Y551921D03*
G01X11665115Y633522D03*
G01X11673858Y-646595D03*
G01X11783873Y633522D03*
G01X11792616Y-646595D03*
G01X11911375Y-646595D03*
G04 Drill Drawing End*

M02*

