;TYPE=PLATED
;Layer: PTH_Through
;EasyEDA Pro Client v2.2.32.3, 2026-01-21 13:37:31
;Gerber Generator version 0.3
M48
METRIC,LZ,000.00000
;Hole size 1 = 0.30000 METRIC
T01C0.30000
;Hole size 2 = 0.40000 METRIC
T02C0.40000
;Hole size 3 = 0.70002 METRIC
T03C0.70002
;Hole size 4 = 0.80000 METRIC
T04C0.80000
;Hole size 5 = 0.89002 METRIC
T05C0.89002
;Hole size 6 = 0.90000 METRIC
T06C0.90000
;Hole size 7 = 1.00000 METRIC
T07C1.00000
;Hole size 8 = 1.00000 METRIC
T08C1.00000
;Hole size 9 = 1.10002 METRIC
T09C1.10002
;Hole size 10 = 1.19888 METRIC
T10C1.19888
;Hole size 11 = 1.20000 METRIC
T11C1.20000
;Hole size 12 = 1.60000 METRIC
T12C1.60000
;Hole size 13 = 1.60000 METRIC
T13C1.60000
;Hole size 14 = 1.70002 METRIC
T14C1.70002
;Hole size 15 = 2.50002 METRIC
T15C2.50002
%
G05
G90
T01
X48.9712Y69.5452
X74.2188Y72.644
X73.1012Y74.1172
X75.35276Y74.1172
X72.9996Y71.4756
X75.38445Y71.4756
X74.9808Y21.9456
X79.6544Y61.5188
X81.1784Y60.706
X81.6864Y60.0456
X82.1436Y59.3344
X84.2772Y58.1152
X85.2424Y59.2836
X87.376Y58.0136
X88.7984Y59.6392
X77.3176Y59.1312
X77.7748Y64.1096
X77.3684Y62.2808
X133.5024Y62.0776
X136.8044Y60.452
X137.7188Y59.436
X138.3792Y58.7248
X85.852Y58.674
X84.3788Y53.848
X93.1672Y62.8396
X90.5764Y62.8396
X91.2876Y62.1284
X96.2152Y58.7756
X95.6056Y59.6392
X95.1992Y60.4012
X98.5012Y59.1312
X97.3328Y58.166
X99.2124Y58.5724
X98.41662Y53.97699
X100.0252Y58.928
X101.7016Y59.1312
X107.0356Y62.8396
X104.2416Y62.7888
X110.3884Y59.182
X109.982Y59.944
X109.5248Y60.706
X113.1316Y58.928
X111.4552Y57.9628
X113.8428Y58.3184
X112.4204Y53.7972
X114.6556Y58.8772
X116.078Y59.3852
X104.902Y62.0776
X121.412Y62.992
X118.4148Y63.1444
X119.3292Y62.0776
X124.4092Y59.1312
X124.0028Y59.8424
X123.5964Y60.6044
X127.0508Y58.674
X125.5268Y57.8612
X127.9652Y58.8264
X126.492Y53.6956
X128.6764Y58.3184
X129.9464Y59.2836
X135.5344Y62.484
X132.7912Y62.8904
X141.7828Y58.166
X139.5476Y57.7088
X142.5448Y58.42
X140.0556Y54.0512
X143.2052Y57.8612
X144.78Y59.7916
X146.6596Y64.0588
X84.1248Y19.304
X110.7948Y6.604
X66.9544Y20.2692
X82.296Y53.6448
X96.52Y53.4416
X110.5408Y53.7464
X101.08535Y54.2606
X86.8172Y54.2544
X137.5664Y53.7972
X123.25526Y53.11592
X148.4884Y59.33352
X148.4884Y54.74861
X146.78455Y65.40619
X144.29098Y66.62581
X128.016Y77.216
X94.0308Y77.0128
X92.1004Y76.962
X78.1304Y77.47
X80.0608Y77.47
X70.40321Y76.91589
X39.37Y21.336
X41.1988Y21.082
X40.5892Y22.4028
X45.8724Y21.1836
X48.0568Y21.2852
X43.7388Y22.352
X46.0756Y19.9644
X48.0568Y22.9616
X47.8536Y18.1864
X43.688Y21.2344
X37.4904Y25.146
X39.7764Y34.0868
X37.4396Y28.956
X37.3888Y30.48
X37.1348Y45.6184
X48.1076Y42.5704
X48.1076Y46.736
X42.2148Y41.656
X40.3352Y42.164
X38.1508Y42.164
X37.6936Y47.3964
X48.0568Y45.2628
X43.476Y61.99693
X46.5836Y60.706
X41.1988Y61.468
X36.322Y76.454
X37.9476Y76.454
X36.322Y78.0796
X47.752Y69.5452
X54.2036Y63.0936
X48.3108Y61.0616
X67.7164Y61.214
X67.44668Y59.77856
X61.3156Y58.3184
X54.1528Y56.7944
X18.2372Y21.7932
X18.288Y25.4
X47.9552Y19.5072
X132.41538Y44.41602
X134.7216Y44.6532
X137.6172Y44.704
X142.33511Y44.704
X144.9832Y44.5516
X144.9832Y42.70108
X144.9832Y39.41805
X144.9832Y36.6268
X144.9832Y33.6954
X144.9832Y31.3944
X120.8024Y2.1844
X112.9792Y2.4384
X105.156Y2.3876
X98.1964Y2.1844
X98.1964Y4.26135
X98.1456Y6.7056
X77.5716Y24.384
X22.22099Y81.64897
X27.7876Y82.68896
X22.18975Y82.42733
X29.8436Y82.83576
X1.5896Y25.6077
X1.6256Y21.90057
X1.3208Y16.3068
X1.3208Y11.7348
X12.31473Y8.33492
X17.8308Y16.8148
X14.8336Y12.446
X13.208Y11.7348
X11.5824Y10.5156
X148.4884Y44.3484
X149.5044Y40.7416
X149.4536Y37.2872
X148.2852Y34.26251
X140.29076Y0.68062
X147.0152Y46.0756
X147.3708Y57.0992
X147.3708Y61.46637
X149.4028Y64.4652
X145.61021Y65.73429
X147.84287Y64.94347
X149.87213Y62.71056
X149.92521Y60.6607
X150.05987Y71.33052
X129.9464Y84.7344
X127.4064Y85.1408
X120.46152Y85.01181
X118.7704Y84.8868
X114.05027Y84.86589
X106.9848Y85.0392
X91.5416Y84.8868
X79.3496Y84.7852
X76.454Y82.4484
X73.7616Y85.25658
X69.6976Y79.1972
X72.2884Y79.1972
X62.6872Y79.75511
X63.5508Y76.5048
X57.404Y81.4324
X51.6636Y79.1972
X52.9844Y79.1464
X63.246Y79.0448
X31.6992Y82.7024
X44.25671Y80.84735
X34.67958Y81.81624
X35.3568Y81.3816
X29.77245Y84.74837
X25.58376Y84.74837
X25.0952Y82.296
X118.32095Y56.97131
X121.86248Y53.80105
X87.87533Y56.03442
X88.0872Y65.8368
X90.6272Y66.9036
X90.7796Y68.9356
X89.7128Y65.4812
X102.8192Y64.8716
X104.2924Y69.9008
X102.9716Y67.056
X117.2464Y65.3288
X115.7732Y66.04
X117.856Y66.7512
X117.4496Y68.6816
X117.58153Y56.53531
X122.69308Y53.84206
X95.28097Y53.19445
X94.0816Y52.6288
X94.64203Y53.60939
X95.4717Y54.0004
X103.2764Y56.642
X109.5291Y53.67506
X108.5088Y53.7464
X110.04643Y54.2604
X116.69125Y56.57581
X122.39983Y53.15213
X131.1656Y56.7944
X129.44231Y55.20696
X130.18084Y56.79838
X134.31161Y53.12474
X115.9764Y66.9544
X130.6068Y65.1764
X131.6736Y64.008
X130.5052Y67.8688
X132.1308Y70.5612
X132.1308Y68.41732
X132.2832Y66.8528
X136.6653Y53.8092
X144.7292Y56.7436
X147.3708Y52.8828
X89.2556Y63.6524
X90.5764Y58.674
X89.0524Y56.0332
X91.186Y56.4896
X106.3244Y76.9112
X105.99217Y75.01589
X119.634Y77.4192
X118.5164Y70.9676
X134.0612Y77.3176
X134.03316Y74.83689
X88.19908Y76.81789
X88.19908Y75.80522
X88.19908Y74.59767
X88.19908Y73.51589
X102.1588Y77.0636
X102.1588Y76.0984
X102.1588Y75.0316
X102.108Y73.9648
X128.0668Y73.8124
X128.016Y75.438
X129.3368Y73.8632
X97.536Y0.6
X105.4608Y0.6
X107.95Y0.6
X113.538Y0.6
X119.60915Y0.64499
X121.666Y0.6096
X129.1844Y0.6
X92.7608Y1.524
X82.3468Y1.6256
X65.4812Y1.6256
X57.15Y1.5748
X55.2196Y1.5748
X50.8508Y1.524
X46.1772Y1.524
X40.5892Y1.4224
X36.4236Y1.3208
X34.2392Y1.6256
X20.574Y1.6256
X18.5928Y1.6764
X12.5476Y3.1496
X9.906Y1.016
X26.7208Y1.6256
X127.8724Y24.41878
X127.8724Y26.07212
X136.652Y43.5356
X138.5316Y40.8432
X128.6256Y5.1308
X123.9012Y6.7056
X121.3104Y7.0104
X114.6556Y6.4008
X104.7496Y5.8928
X100.9904Y6.5024
X96.4692Y6.35
X96.6216Y2.032
X96.4692Y4.99983
X61.13907Y64.90564
X61.40657Y72.65045
X62.11901Y64.6669
X58.3692Y63.8048
X89.4348Y43.69263
X101.45878Y45.0596
X107.95Y45.3136
X113.4364Y43.0276
X120.0404Y42.5704
X92.34442Y55.25521
X94.4372Y44.0436
X92.47739Y44.17781
X91.59996Y43.68604
X76.0476Y20.2692
X136.8044Y7.366
X102.7176Y12.4968
X110.6932Y13.9192
X105.4608Y14.6812
X101.5492Y12.5984
X105.3084Y15.7988
X105.41Y18.796
X84.4296Y22.1996
X106.0704Y18.1356
X84.2772Y16.6624
X106.9848Y18.288
X101.346Y33.274
X106.7816Y33.3756
X97.79Y28.702
X97.3836Y27.94
X96.9772Y27.0764
X111.68288Y26.59288
X116.8908Y29.1084
X113.8936Y30.226
X114.1984Y32.8676
X112.78718Y32.8168
X117.78665Y34.26483
X101.7524Y25.5524
X116.586Y19.812
X101.4984Y24.638
X116.7892Y18.034
X116.9924Y14.16138
X98.7552Y32.3088
X94.2848Y32.3088
X103.5304Y25.3492
X119.1768Y10.2616
X113.0808Y10.2616
X106.8832Y10.2108
X86.29269Y12.192
X105.8164Y7.6708
X101.2952Y27.3812
X123.32965Y13.2588
X94.8944Y29.6672
X87.60652Y31.66715
X90.6272Y29.5656
X95.9104Y36.34359
X101.7524Y36.4236
X131.6228Y35.052
X32.8676Y15.24
X30.3276Y35.3568
X32.30372Y35.18744
X30.48Y37.2364
X30.98195Y15.66052
X32.3596Y16.5608
X34.55518Y16.42642
X68.63093Y11.33348
X68.58013Y17.02308
X68.58013Y22.66188
X60.6552Y20.1168
X61.1124Y14.6304
X61.2648Y9.0424
X97.4344Y24.2824
X100.5332Y19.4056
X94.742Y10.2616
X107.442Y13.1572
X66.5988Y14.6304
X67.0052Y8.89
X65.9384Y24.2824
X66.15432Y27.7368
X66.15432Y31.75462
X64.4144Y38.0492
X64.4144Y40.69773
X74.4728Y42.418
X76.8096Y40.5384
X78.73459Y36.34619
X79.23831Y35.80924
X87.04701Y34.91532
X90.932Y33.5788
X90.75202Y30.96063
X81.19223Y33.91601
X83.05041Y31.39623
X107.0356Y32.1564
X93.5228Y30.3784
X114.4524Y17.6276
X114.808Y15.5448
X111.4552Y12.3444
X113.4085Y12.3444
X116.078Y11.8872
X117.7167Y11.8872
X101.01205Y14.74002
X91.8464Y10.5664
X89.4588Y10.668
X123.5456Y19.1516
X122.428Y20.32
X123.8504Y22.7584
X86.2584Y24.0792
X86.5632Y18.7452
X76.3524Y23.2664
X79.756Y25.4508
X75.438Y15.3416
X75.438Y13.02931
X75.438Y9.55402
X87.8332Y8.382
X89.916Y13.1064
X66.6496Y17.78
X66.7004Y12.1412
X70.4088Y13.0048
X71.628Y20.6248
X79.4512Y32.9692
X101.8032Y23.114
X36.5252Y15.1892
X56.3596Y64.7192
X75.7428Y68.1736
X87.4776Y40.81475
X130.2512Y42.6212
X128.9812Y40.7924
X131.2164Y43.6372
X133.9088Y43.434
X21.2852Y46.228
X21.3868Y42.5196
X21.336Y40.7924
X21.336Y39.0144
X16.764Y40.64
X15.5956Y38.1
X17.526Y44.8564
X23.77446Y48.0568
X26.3163Y48.0568
X17.48449Y48.0568
X21.336Y44.3992
X18.3388Y27.6352
X21.844Y27.7368
X25.908Y27.7876
X10.5664Y83.8708
X13.9192Y83.82
X18.13384Y83.80109
X97.0788Y21.4376
X108.4072Y29.718
X110.31944Y33.3756
X113.6396Y23.7744
X125.3236Y31.1404
X112.9792Y23.2664
X112.2172Y22.86
X105.664Y23.5204
X128.524Y30.5308
X102.5144Y26.2636
X127.6604Y29.5148
X127.1524Y30.5816
X105.7656Y25.5524
X97.79Y25.0952
X126.2888Y32.0548
X126.238Y29.7688
X104.7496Y26.7716
X106.4768Y26.5684
X57.912Y8.9916
X56.5404Y7.7724
X57.84063Y7.7724
X32.4612Y7.5184
X34.798Y7.8232
X32.9184Y6.1468
X110.6932Y18.1864
X112.71159Y18.06144
X93.472Y25.2476
X94.234Y19.6088
X95.0976Y13.1064
X93.8784Y14.8844
X97.3836Y14.3764
X80.82619Y43.50586
X78.04955Y43.7566
X79.5588Y43.34303
X78.75135Y43.40531
X59.08329Y46.12125
X59.4724Y47.80645
X81.67772Y43.44932
X88.19929Y40.8102
X58.66756Y47.06656
X71.34776Y56.14759
X53.4924Y21.8948
X50.8508Y11.8364
X53.2384Y20.2184
X53.1876Y25.2476
X61.3664Y24.384
X63.96836Y24.384
X58.166Y21.9964
X58.166Y20.90779
X122.0724Y13.5128
X121.5644Y16.6624
X136.0932Y6.096
X132.7912Y5.7912
X130.52731Y5.7912
X121.5744Y4.50565
X113.7004Y4.0536
X63.35121Y10.32645
X63.8556Y7.5184
X63.50122Y13.12367
X62.69209Y15.91445
X63.27307Y18.65399
X62.5392Y21.45165
X132.6896Y30.226
X132.6896Y27.5844
X130.048Y29.6672
X12.446Y49.4792
X11.5316Y47.0408
X9.66967Y47.0408
X7.1987Y47.0154
X9.66967Y44.56252
X11.15225Y44.56252
X7.81644Y42.06244
X9.5873Y42.06244
X11.2758Y42.06244
X12.88434Y51.59658
X9.29695Y61.26996
X7.874Y61.2648
X7.874Y58.48783
X9.90304Y58.48783
X7.9756Y65.8368
X9.13429Y65.8368
X10.39723Y65.8368
X7.503Y55.4736
X7.503Y53.34914
X7.7216Y51.3588
X9.4488Y52.07
X12.43508Y76.35915
X13.74341Y76.262
X13.74341Y74.87657
X13.74341Y73.152
X13.92036Y70.042
X12.2042Y70.042
X10.2616Y70.0024
X7.68803Y70.0024
X7.04982Y68.56862
X9.7536Y68.072
X11.94359Y68.072
X4.8768Y66.802
X2.5908Y64.9732
X1.1684Y62.8904
X1.1684Y59.6664
X5.1308Y63.4492
X5.1308Y60.73716
X3.302Y61.5188
X1.9304Y57.4548
X5.16216Y57.4548
X1.95567Y54.8132
X1.88056Y51.83133
X4.45961Y51.92404
X1.6256Y48.7172
X4.75033Y48.7172
X1.6256Y46.228
X3.37757Y46.228
X2.2352Y44.196
X2.6416Y41.7576
X2.6416Y39.92613
X4.5212Y40.386
X1.37334Y40.386
X4.17377Y42.06244
X3.6068Y38.2016
X9.3472Y39.8272
X9.3472Y38.38864
X7.9756Y37.6936
X5.65635Y37.6936
X0.9144Y42.5704
X56.3372Y50.41496
X56.3372Y51.78086
X119.6848Y75.1332
X22.91732Y46.228
X22.96812Y44.3992
X23.01892Y42.5196
X22.96812Y40.7924
X22.96812Y39.0144
X24.9428Y46.3296
X24.9936Y44.5008
X25.0444Y42.6212
X24.9936Y40.894
X24.9936Y39.116
X22.0898Y25.04437
X22.1406Y23.21557
X22.1914Y21.33597
X22.1406Y19.60877
X22.1406Y17.83077
X23.77272Y17.83077
X23.77272Y19.60877
X23.82352Y21.33597
X23.77272Y23.21557
X23.72192Y25.04437
X25.7474Y25.14597
X25.7982Y23.31717
X25.849Y21.43757
X25.7982Y19.71037
X25.7982Y17.93237
X136.144Y4.8768
X149.4028Y31.40623
X149.4536Y34.86063
X149.606Y23.50857
X149.5552Y20.05417
X149.5552Y17.6276
X149.5044Y14.1732
X114.04207Y77.216
X114.04207Y75.438
X114.09287Y73.8124
X115.36287Y73.8632
X64.30575Y67.14084
X83.81574Y32.3132
X60.54565Y72.59346
X62.78045Y72.19149
X63.02043Y71.31257
X60.15568Y75.00225
X60.65892Y78.71778
X54.02232Y70.46089
X41.63384Y59.30801
X40.18796Y59.51199
X45.5515Y60.50191
X42.70475Y60.17194
X41.05489Y58.48308
X45.92047Y59.23902
X18.74582Y46.15115
X18.79982Y44.52829
X18.71882Y42.93543
X18.63483Y41.17458
X15.41911Y40.51464
X2.56522Y27.87674
X2.8682Y32.9613
X149.47753Y68.45667
X149.47753Y67.43804
X149.9312Y74.2622
X105.68384Y58.42894
X78.58719Y41.63339
X136.98438Y52.96875
X138.32658Y47.46227
X137.34867Y47.37528
X134.27094Y50.01505
X134.27094Y48.84515
X125.58669Y47.1653
X123.99683Y47.0783
X120.25615Y49.85906
X120.30715Y48.65317
X119.08325Y47.65725
X115.93952Y47.53426
X105.44343Y50.09304
X106.52634Y49.64008
X105.58603Y46.10049
X99.56994Y48.06822
X95.34331Y47.1323
X94.2724Y47.85524
X90.79792Y47.58607
X89.83279Y47.1443
X83.59333Y47.76824
X84.30427Y47.02431
T02
X121.62319Y66.8344
X128.18026Y66.79147
X124.8732Y65.63427
X125.97319Y65.63427
X123.7732Y65.63427
X124.8732Y64.53428
X125.97319Y64.53428
X123.7732Y64.53428
X124.8732Y63.43428
X125.97319Y63.43428
X123.7732Y63.43428
X107.54319Y66.8344
X114.10027Y66.79147
X110.7932Y65.63427
X111.8932Y65.63427
X109.6932Y65.63427
X110.7932Y64.53428
X111.8932Y64.53428
X109.6932Y64.53428
X110.7932Y63.43428
X111.8932Y63.43428
X109.6932Y63.43428
X93.6752Y66.802
X100.076Y66.802
X96.7132Y65.63427
X97.8132Y65.63427
X95.6132Y65.63427
X96.7132Y64.53428
X97.8132Y64.53428
X95.6132Y64.53428
X96.7132Y63.43428
X97.8132Y63.43428
X95.6132Y63.43428
X81.53321Y63.43428
X83.7332Y63.43428
X82.63321Y63.43428
X81.53321Y64.53428
X83.7332Y64.53428
X82.63321Y64.53428
X81.53321Y65.63427
X83.7332Y65.63427
X82.63321Y65.63427
X85.94027Y66.79147
X79.3832Y66.8344
X137.95192Y65.51607
X139.05192Y65.51607
X140.15191Y65.51607
X140.15191Y64.41607
X140.15191Y63.31608
X139.05192Y63.31608
X139.05192Y64.41607
X137.95192Y64.41607
X137.95192Y63.31608
X82.1436Y69.1896
X83.02213Y70.6628
X96.4184Y68.6816
X96.52Y70.1548
X110.49Y68.1736
X111.3536Y69.088
X124.46Y68.6308
X125.476Y69.4436
X138.3284Y69.7992
X139.3444Y68.5292
X142.3924Y66.5988
X135.636Y66.6496
T03
X35.95689Y84.25686G85X35.95689Y83.35689
X44.2571Y84.25686G85X44.2571Y83.35689
T04
X45.9232Y52.7812
X32.1564Y36.8808
X73.22861Y62.45908
X75.76861Y62.45908
X73.22861Y59.91908
X75.76861Y59.91908
X73.22861Y57.37908
X75.76861Y57.37908
X88.7476Y15.5956
X88.7476Y18.1356
X88.7476Y20.6756
X88.7476Y23.2156
T05
X129.7432Y37.4396
X129.7432Y34.8996
X127.2032Y37.4396
X127.2032Y34.8996
X124.6632Y37.4396
X124.6632Y34.8996
X122.1232Y37.4396
X122.1232Y34.8996
T06
X140.3096Y81.8896
X137.7696Y81.8896
X135.2296Y81.8896
X132.6896Y81.8896
X63.8048Y3.3528
X61.2648Y3.3528
X58.7248Y3.3528
X74.3204Y3.3528
X71.7804Y3.3528
X69.2404Y3.3528
X84.7852Y3.353
X82.2452Y3.353
X79.7052Y3.353
X95.25Y3.3528
X92.71Y3.3528
X90.17Y3.3528
X124.1044Y3.353
X126.6444Y3.353
X30.0228Y3.353
X32.5628Y3.353
X22.1996Y3.353
X24.7396Y3.353
X42.8752Y3.3528
X40.3352Y3.3528
X37.7952Y3.3528
X53.2892Y3.3528
X50.7492Y3.3528
X48.2092Y3.3528
X88.81333Y81.96669
X86.27333Y81.96669
X83.73333Y81.96669
X81.19333Y81.96669
X101.69492Y81.96669
X99.15492Y81.96669
X96.61492Y81.96669
X94.07492Y81.96669
X114.554Y81.9404
X112.014Y81.9404
X109.474Y81.9404
X106.934Y81.9404
X127.4572Y81.8896
X124.9172Y81.8896
X122.3772Y81.8896
X119.8372Y81.8896
X14.3764Y3.353
X16.9164Y3.353
X75.0316Y81.9404
X72.4916Y81.9404
X116.2304Y3.353
X118.7704Y3.353
X108.3564Y3.353
X110.8964Y3.353
X100.4824Y3.3528
X103.0224Y3.3528
X131.9784Y3.353
X134.5184Y3.353
X14.4272Y9.4996
X16.9672Y9.4996
X41.17554Y78.84517
X38.63554Y78.84517
X145.046Y49.59
X142.506Y49.59
X139.966Y49.59
X137.426Y49.59
X131.15164Y49.59022
X128.61164Y49.59022
X126.07164Y49.59022
X123.53164Y49.59022
X117.25717Y49.59022
X114.71717Y49.59022
X112.17717Y49.59022
X109.63717Y49.59022
X103.36272Y49.59022
X100.82272Y49.59022
X98.28272Y49.59022
X95.74272Y49.59022
X89.46826Y49.59022
X86.92826Y49.59022
X84.38826Y49.59022
X81.84826Y49.59022
T07
X140.15776Y38.23233
X140.15776Y35.73234
X138.15776Y35.73234
X138.15776Y38.23233
X58.0644Y41.8592
X60.6044Y41.8592
X65.6844Y41.8592
X70.7644Y41.8592
X42.10697Y83.80695
X38.107Y83.80688
X40.107Y83.80688
T08
X3.0536Y17.8492G85X3.0536Y20.1492
X1.9036Y14.1992G85X3.2036Y14.1992
X6.6036Y14.1992G85X7.9036Y14.1992
X1.9036Y23.7992G85X3.2036Y23.7992
X6.6036Y23.7992G85X7.9036Y23.7992
T09
X140.00475Y22.80925
X142.54475Y22.80925
X140.00475Y20.26925
X142.54475Y20.26925
X140.00475Y17.72925
X142.54475Y17.72925
X140.00475Y15.18925
X142.54475Y15.18925
T10
X66.64268Y81.63501
X64.10141Y81.63501
X61.56268Y81.63501
X55.07322Y81.55917
X52.53195Y81.55917
X49.99322Y81.55917
T11
X4.45961Y55.47373
X9.4596Y55.47373
T12
X11.02121Y30.5001
X7.06123Y30.5001
X3.10121Y30.5001
T13
X9.0536Y18.9992
T14
X7.03481Y39.56238
X7.03481Y44.56237
X17.43522Y78.994
X12.43523Y78.994
X30.59242Y78.994
X25.59243Y78.994
T15
X142.86784Y43.00235
X142.86784Y30.96235
M30