G04 Layer: DrillDrawingLayer*
G04 EasyEDA Pro v2.2.32.3, 2026-01-21 13:37:31*
G04 Gerber Generator version 0.3*
G04 Scale: 100 percent, Rotated: No, Reflected: No*
G04 Dimensions in millimeters*
G04 Leading zeros omitted, absolute positions, 3 integers and 5 decimals*
%FSLAX35Y35*%
%MOMM*%
%AMIconRect*4,1,4,0.2,-0.2,-0.2,-0.2,-0.2,0.2,0.2,0.2,0.2,-0.2,0*4,0,4,0.166667,-0.166667,0.166667,0.166667,-0.166667,0.166667,-0.166667,-0.166667,0.166667,-0.166667,0*%
%AMIconTriangle*4,1,3,-0.242567,0.171767,0.242567,0.171767,0,-0.2706,-0.242567,0.171767,0*4,0,3,-0.189767,0.1386,0,-0.1953,0.190167,0.1386,-0.189767,0.1386,0*%
%AMIconStar6*4,1,12,0.0862,0.1492,0.213233,0.123367,0.172367,0,0.213233,-0.1229,0.0862,-0.148733,0,-0.245767,-0.085767,-0.148733,-0.213267,-0.1229,-0.171933,0,-0.213267,0.1229,-0.085767,0.1492,0,0.245767,0.0862,0.1492,0*4,0,12,-0.000333,0.195333,-0.064333,0.122667,-0.169667,0.097667,-0.138333,-0.005333,-0.169667,-0.098,-0.064333,-0.122667,-0.000333,-0.195667,0.064333,-0.122667,0.169667,-0.098,0.138667,0.005,0.169667,0.098,0.064333,0.122333,-0.000333,0.195333,0*%
%AMIconStar4*4,1,8,-0.222667,0.222667,0,0.144667,0.222667,0.222667,0.144667,0,0.222667,-0.222667,0,-0.144667,-0.217433,-0.222667,-0.144667,0,-0.222667,0.222667,0*4,0,8,0.166667,-0.166667,0.108,0,0.166667,0.166667,0,0.108,-0.166667,0.166667,-0.108,0,-0.166667,-0.166667,0,-0.108,0.166667,-0.166667,0*%
%AMIconPlus*4,1,12,0.124,-0.2,-0.124,-0.2,-0.124,-0.124,-0.2,-0.124,-0.2,0.124,-0.124,0.124,-0.124,0.2,0.124,0.2,0.124,0.124,0.2,0.124,0.2,-0.124,0.124,-0.124,0.124,-0.2,0*4,0,12,0.090667,-0.166667,0.090667,-0.090667,0.166667,-0.090667,0.166667,0.090667,0.090667,0.090667,0.090667,0.166667,-0.090667,0.166667,-0.090667,0.090667,-0.166667,0.090667,-0.166667,-0.090667,-0.090667,-0.090667,-0.090667,-0.166667,0.090667,-0.166667,0*%
%AMIconX*4,1,16,0.2,-0.2,0.054533,-0.2,0,-0.145467,-0.054533,-0.2,-0.2,-0.2,-0.2,-0.054533,-0.145467,0,-0.2,0.054533,-0.2,0.2,-0.054533,0.2,0,0.145467,0.054533,0.2,0.2,0.2,0.2,0.054533,0.145467,0,0.2,-0.054533,0.2,-0.2,0*4,0,16,0.1668,-0.1664,0.1668,-0.068467,0.097933,0.000067,0.1668,0.068467,0.1668,0.1665,0.068467,0.1665,0,0.097933,-0.068467,0.1665,-0.1668,0.1665,-0.1668,0.068467,-0.097933,0.000067,-0.1668,-0.068467,-0.1668,-0.1664,-0.068467,-0.1664,0,-0.097933,0.068467,-0.1664,0.1668,-0.1664,0*%
%AMIconDiamond*4,1,4,0,-0.26,-0.26,0,0,0.26,0.26,0,0,-0.26,0*4,0,4,0,-0.203433,0.203433,0,0,0.2036,-0.203433,0,0,-0.203433,0*%
%AMIconRect2*4,1,6,0.2,-0.2,-0.2,-0.2,-0.2,0.2,-0.1668,0.1665,-0.166667,-0.166667,0.1668,-0.166667,0.2,-0.2,0*4,1,6,0.2,-0.2,0.1668,-0.166667,0.1668,0.1665,-0.1668,0.1665,-0.2,0.2,0.2,0.2,0.2,-0.2,0*4,1,6,0.133467,-0.133333,-0.133333,-0.133333,-0.133333,0.133467,-0.1,0.100133,-0.1,-0.1,0.100133,-0.1,0.133467,-0.133333,0*4,1,6,0.133467,-0.133333,0.100133,-0.1,0.100133,0.100133,-0.1,0.100133,-0.133333,0.133467,0.133467,0.133467,0.133467,-0.133333,0*%
%AMCharA*4,1,8,-0.122067,-0.1864,-0.1532,-0.174533,-0.015133,0.1864,0.016,0.1864,0.1532,-0.174533,0.122067,-0.1864,0.0764,-0.0662,-0.076133,-0.0662,-0.122067,-0.1864,0*4,0,3,-0.063333,-0.032867,0.063667,-0.032867,0.000333,0.1338,-0.063333,-0.032867,0*%
%AMCharB*4,1,17,-0.131133,-0.1894,-0.131133,0.1894,0.033533,0.1894,0.088067,0.172467,0.1114,0.151733,0.131133,0.114133,0.131,0.066467,0.114333,0.0338,0.094733,0.0128,0.086467,0.0084,0.094733,0.003867,0.114333,-0.017133,0.131,-0.0498,0.131133,-0.114133,0.1114,-0.151733,0.088067,-0.1726,0.033533,-0.1894,-0.131133,-0.1894,0*4,0,10,-0.0978,-0.156067,0.030867,-0.156067,0.073867,-0.142,0.085867,-0.130133,0.099533,-0.1028,0.099533,-0.0614,0.085867,-0.034533,0.073867,-0.0226,0.030867,-0.008667,-0.0978,-0.008667,-0.0978,-0.156067,0*4,0,10,-0.0978,0.024667,0.0308,0.024667,0.073867,0.039267,0.085867,0.051267,0.099533,0.078067,0.099533,0.102667,0.085867,0.130133,0.073867,0.142,0.030867,0.156067,-0.0978,0.156067,-0.0978,0.024667,0*%
%AMCharC*4,1,36,-0.027533,-0.1894,-0.071933,-0.1684,-0.1084,-0.130667,-0.125333,-0.096,-0.1428,-0.041333,-0.1428,0.041333,-0.1244,0.098,-0.105267,0.135067,-0.067533,0.171667,-0.027533,0.1894,0.038533,0.1894,0.083067,0.1684,0.119467,0.130667,0.1428,0.083,0.112867,0.0684,0.090867,0.113467,0.0614,0.142933,0.034733,0.156067,-0.0236,0.156067,-0.050333,0.142933,-0.079733,0.113467,-0.094067,0.084333,-0.109467,0.0386,-0.109467,-0.0386,-0.094067,-0.084333,-0.079733,-0.113467,-0.050333,-0.142867,-0.0236,-0.156067,0.034733,-0.156067,0.0614,-0.142867,0.090867,-0.113467,0.112867,-0.0684,0.1428,-0.083,0.119467,-0.130667,0.083067,-0.1684,0.038533,-0.1894,-0.027533,-0.1894,0*%
%AMCharD*4,1,12,-0.132,-0.1894,-0.132,0.1894,-0.000067,0.1894,0.054533,0.172467,0.0968,0.130933,0.1144,0.096067,0.132,0.041333,0.132,-0.041333,0.113467,-0.098267,0.093933,-0.134933,0.054533,-0.1726,-0.000067,-0.1894,-0.132,-0.1894,0*4,0,12,-0.098667,-0.156067,-0.002667,-0.156067,0.040333,-0.142133,0.068333,-0.113467,0.083267,-0.0842,0.098667,-0.0386,0.098667,0.0386,0.083267,0.0842,0.068333,0.113467,0.040333,0.142133,-0.002667,0.156067,-0.098667,0.156067,-0.098667,-0.156067,0*%
%AMCharE*4,1,12,-0.123667,-0.1894,-0.123667,0.1894,0.123667,0.1894,0.123667,0.156067,-0.090333,0.156067,-0.090333,0.024667,0.0416,0.024667,0.0416,-0.008667,-0.090333,-0.008667,-0.090333,-0.156067,0.123667,-0.156067,0.123667,-0.1894,-0.123667,-0.1894,0*%
%AMCharF*4,1,11,-0.123667,-0.1894,-0.123667,0.1894,-0.090333,0.1894,0.123667,0.1894,0.123667,0.156067,-0.090333,0.156067,-0.090333,0.024667,0.0416,0.024667,0.0416,-0.008667,-0.090333,-0.008667,-0.090333,-0.1894,-0.123667,-0.1894,0*%
%AMCharG*4,1,40,-0.027933,-0.1894,-0.072333,-0.1684,-0.1088,-0.130667,-0.125733,-0.096,-0.1424,-0.046667,-0.1424,0.046667,-0.1248,0.098,-0.105667,0.135067,-0.067933,0.171667,-0.027933,0.1894,0.038133,0.1894,0.082667,0.1684,0.119067,0.130667,0.1424,0.083,0.112467,0.0684,0.090467,0.113467,0.061,0.142933,0.034333,0.156067,-0.024,0.156067,-0.050733,0.142933,-0.080133,0.113467,-0.094467,0.084333,-0.1098,0.0386,-0.1098,-0.0386,-0.094467,-0.084333,-0.080133,-0.113467,-0.050733,-0.142867,-0.024,-0.156067,0.034333,-0.156067,0.061,-0.142867,0.090467,-0.113467,0.103467,-0.0868,0.103467,-0.058,0.021467,-0.058,0.021467,-0.024667,0.1368,-0.024667,0.1368,-0.090667,0.116,-0.135067,0.078067,-0.171667,0.038133,-0.1894,-0.027933,-0.1894,0*%
%ADD10IconRect*%
%ADD11C,0.44X0.373333*%
%ADD12IconTriangle*%
%ADD13IconStar6*%
%ADD14IconStar4*%
%ADD15IconPlus*%
%ADD16IconX*%
%ADD17IconDiamond*%
%ADD18IconRect2*%
%ADD19CharA*%
%ADD20CharB*%
%ADD21CharC*%
%ADD22CharD*%
%ADD23CharE*%
%ADD24CharF*%
%ADD25CharG*%
G75*


G04 Drill Drawing Start*
G54D10*
G01X305360Y1899920D03*
G54D11*
G01X3595689Y8380688D03*
G01X4425710Y8380688D03*
G54D12*
G01X445961Y5547373D03*
G01X945960Y5547373D03*
G54D13*
G01X14286784Y3096235D03*
G01X14286784Y4300235D03*
G54D14*
G01X255360Y1419920D03*
G01X255360Y2379920D03*
G01X725360Y2379920D03*
G01X725360Y1419920D03*
G54D15*
G01X310121Y3050010D03*
G01X706123Y3050010D03*
G01X905360Y1899920D03*
G01X1102121Y3050010D03*
G54D16*
G01X4999322Y8155917D03*
G01X5253195Y8155917D03*
G01X5507322Y8155917D03*
G01X6156268Y8163501D03*
G01X6410141Y8163501D03*
G01X6664268Y8163501D03*
G54D17*
G01X703481Y3956238D03*
G01X703481Y4456237D03*
G01X1243523Y7899400D03*
G01X1743522Y7899400D03*
G01X2559243Y7899400D03*
G01X3059242Y7899400D03*
G54D18*
G01X12212320Y3489960D03*
G01X12212320Y3743960D03*
G01X12466320Y3489960D03*
G01X12466320Y3743960D03*
G01X12720320Y3489960D03*
G01X12720320Y3743960D03*
G01X12974320Y3489960D03*
G01X12974320Y3743960D03*
G54D19*
G01X14000475Y1518925D03*
G01X14000475Y1772925D03*
G01X14000475Y2026925D03*
G01X14000475Y2280925D03*
G01X14254475Y1518925D03*
G01X14254475Y1772925D03*
G01X14254475Y2026925D03*
G01X14254475Y2280925D03*
G54D20*
G01X3810700Y8380688D03*
G01X4010700Y8380688D03*
G01X4210697Y8380695D03*
G01X5806440Y4185920D03*
G01X6060440Y4185920D03*
G01X6568440Y4185920D03*
G01X7076440Y4185920D03*
G01X13815776Y3573234D03*
G01X13815776Y3823233D03*
G01X14015776Y3573234D03*
G01X14015776Y3823233D03*
G54D21*
G01X8214360Y6918960D03*
G01X8302213Y7066280D03*
G01X9641840Y6868160D03*
G01X9652000Y7015480D03*
G01X11049000Y6817360D03*
G01X11135360Y6908800D03*
G01X12446000Y6863080D03*
G01X12547600Y6944360D03*
G01X13563600Y6664960D03*
G01X13832840Y6979920D03*
G01X13934440Y6852920D03*
G01X14239240Y6659880D03*
G54D22*
G01X3215640Y3688080D03*
G01X4592320Y5278120D03*
G01X7322861Y5737908D03*
G01X7322861Y5991908D03*
G01X7322861Y6245908D03*
G01X7576861Y5737908D03*
G01X7576861Y5991908D03*
G01X7576861Y6245908D03*
G01X8874760Y1559560D03*
G01X8874760Y1813560D03*
G01X8874760Y2067560D03*
G01X8874760Y2321560D03*
G54D23*
G01X7938320Y6683440D03*
G01X8153321Y6343428D03*
G01X8153321Y6453428D03*
G01X8153321Y6563427D03*
G01X8263321Y6343428D03*
G01X8263321Y6453428D03*
G01X8263321Y6563427D03*
G01X8373320Y6343428D03*
G01X8373320Y6453428D03*
G01X8373320Y6563427D03*
G01X8594027Y6679147D03*
G01X9367520Y6680200D03*
G01X9561320Y6343428D03*
G01X9561320Y6453428D03*
G01X9561320Y6563427D03*
G01X9671320Y6343428D03*
G01X9671320Y6453428D03*
G01X9671320Y6563427D03*
G01X9781320Y6343428D03*
G01X9781320Y6453428D03*
G01X9781320Y6563427D03*
G01X10007600Y6680200D03*
G01X10754319Y6683440D03*
G01X10969320Y6343428D03*
G01X10969320Y6453428D03*
G01X10969320Y6563427D03*
G01X11079320Y6343428D03*
G01X11079320Y6453428D03*
G01X11079320Y6563427D03*
G01X11189320Y6343428D03*
G01X11189320Y6453428D03*
G01X11189320Y6563427D03*
G01X11410027Y6679147D03*
G01X12162319Y6683440D03*
G01X12377320Y6343428D03*
G01X12377320Y6453428D03*
G01X12377320Y6563427D03*
G01X12487320Y6343428D03*
G01X12487320Y6453428D03*
G01X12487320Y6563427D03*
G01X12597319Y6343428D03*
G01X12597319Y6453428D03*
G01X12597319Y6563427D03*
G01X12818026Y6679147D03*
G01X13795192Y6331608D03*
G01X13795192Y6441607D03*
G01X13795192Y6551607D03*
G01X13905192Y6331608D03*
G01X13905192Y6441607D03*
G01X13905192Y6551607D03*
G01X14015191Y6331608D03*
G01X14015191Y6441607D03*
G01X14015191Y6551607D03*
G54D24*
G01X1437640Y335300D03*
G01X1442720Y949960D03*
G01X1691640Y335300D03*
G01X1696720Y949960D03*
G01X2219960Y335300D03*
G01X2473960Y335300D03*
G01X3002280Y335300D03*
G01X3256280Y335300D03*
G01X3779520Y335280D03*
G01X3863554Y7884517D03*
G01X4033520Y335280D03*
G01X4117554Y7884517D03*
G01X4287520Y335280D03*
G01X4820920Y335280D03*
G01X5074920Y335280D03*
G01X5328920Y335280D03*
G01X5872480Y335280D03*
G01X6126480Y335280D03*
G01X6380480Y335280D03*
G01X6924040Y335280D03*
G01X7178040Y335280D03*
G01X7249160Y8194040D03*
G01X7432040Y335280D03*
G01X7503160Y8194040D03*
G01X7970520Y335300D03*
G01X8119333Y8196669D03*
G01X8184826Y4959022D03*
G01X8224520Y335300D03*
G01X8373333Y8196669D03*
G01X8438826Y4959022D03*
G01X8478520Y335300D03*
G01X8627333Y8196669D03*
G01X8692826Y4959022D03*
G01X8881333Y8196669D03*
G01X8946826Y4959022D03*
G01X9017000Y335280D03*
G01X9271000Y335280D03*
G01X9407492Y8196669D03*
G01X9525000Y335280D03*
G01X9574272Y4959022D03*
G01X9661492Y8196669D03*
G01X9828272Y4959022D03*
G01X9915492Y8196669D03*
G01X10048240Y335280D03*
G01X10082272Y4959022D03*
G01X10169492Y8196669D03*
G01X10302240Y335280D03*
G01X10336272Y4959022D03*
G01X10693400Y8194040D03*
G01X10835640Y335300D03*
G01X10947400Y8194040D03*
G01X10963717Y4959022D03*
G01X11089640Y335300D03*
G01X11201400Y8194040D03*
G01X11217717Y4959022D03*
G01X11455400Y8194040D03*
G01X11471717Y4959022D03*
G01X11623040Y335300D03*
G01X11725717Y4959022D03*
G01X11877040Y335300D03*
G01X11983720Y8188960D03*
G01X12237720Y8188960D03*
G01X12353164Y4959022D03*
G01X12410440Y335300D03*
G01X12491720Y8188960D03*
G01X12607164Y4959022D03*
G01X12664440Y335300D03*
G01X12745720Y8188960D03*
G01X12861164Y4959022D03*
G01X13115164Y4959022D03*
G01X13197840Y335300D03*
G01X13268960Y8188960D03*
G01X13451840Y335300D03*
G01X13522960Y8188960D03*
G01X13742600Y4959000D03*
G01X13776960Y8188960D03*
G01X13996600Y4959000D03*
G01X14030960Y8188960D03*
G01X14250600Y4959000D03*
G01X14504600Y4959000D03*
G54D25*
G01X91440Y4257040D03*
G01X116840Y5966640D03*
G01X116840Y6289040D03*
G01X132080Y1173480D03*
G01X132080Y1630680D03*
G01X137334Y4038600D03*
G01X158960Y2560770D03*
G01X162560Y2190057D03*
G01X162560Y4622800D03*
G01X162560Y4871720D03*
G01X188056Y5183133D03*
G01X193040Y5745480D03*
G01X195567Y5481320D03*
G01X223520Y4419600D03*
G01X256522Y2787674D03*
G01X259080Y6497320D03*
G01X264160Y3992613D03*
G01X264160Y4175760D03*
G01X286820Y3296130D03*
G01X330200Y6151880D03*
G01X337757Y4622800D03*
G01X360680Y3820160D03*
G01X417377Y4206244D03*
G01X445961Y5192404D03*
G01X452120Y4038600D03*
G01X475033Y4871720D03*
G01X487680Y6680200D03*
G01X513080Y6073716D03*
G01X513080Y6344920D03*
G01X516216Y5745480D03*
G01X565635Y3769360D03*
G01X704982Y6856862D03*
G01X719870Y4701540D03*
G01X750300Y5334914D03*
G01X750300Y5547360D03*
G01X768803Y7000240D03*
G01X772160Y5135880D03*
G01X781644Y4206244D03*
G01X787400Y5848783D03*
G01X787400Y6126480D03*
G01X797560Y3769360D03*
G01X797560Y6583680D03*
G01X913429Y6583680D03*
G01X929695Y6126996D03*
G01X934720Y3838864D03*
G01X934720Y3982720D03*
G01X944880Y5207000D03*
G01X958730Y4206244D03*
G01X966967Y4456252D03*
G01X966967Y4704080D03*
G01X975360Y6807200D03*
G01X990304Y5848783D03*
G01X990600Y101600D03*
G01X1026160Y7000240D03*
G01X1039723Y6583680D03*
G01X1056640Y8387080D03*
G01X1115225Y4456252D03*
G01X1127580Y4206244D03*
G01X1153160Y4704080D03*
G01X1158240Y1051560D03*
G01X1194359Y6807200D03*
G01X1220420Y7004200D03*
G01X1231473Y833492D03*
G01X1243508Y7635915D03*
G01X1244600Y4947920D03*
G01X1254760Y314960D03*
G01X1288434Y5159658D03*
G01X1320800Y1173480D03*
G01X1374341Y7315200D03*
G01X1374341Y7487657D03*
G01X1374341Y7626200D03*
G01X1391920Y8382000D03*
G01X1392036Y7004200D03*
G01X1483360Y1244600D03*
G01X1541911Y4051464D03*
G01X1559560Y3810000D03*
G01X1676400Y4064000D03*
G01X1748449Y4805680D03*
G01X1752600Y4485640D03*
G01X1783080Y1681480D03*
G01X1813384Y8380109D03*
G01X1823720Y2179320D03*
G01X1828800Y2540000D03*
G01X1833880Y2763520D03*
G01X1859280Y167640D03*
G01X1863483Y4117458D03*
G01X1871882Y4293543D03*
G01X1874582Y4615115D03*
G01X1879982Y4452829D03*
G01X2057400Y162560D03*
G01X2128520Y4622800D03*
G01X2133600Y3901440D03*
G01X2133600Y4079240D03*
G01X2133600Y4439920D03*
G01X2138680Y4251960D03*
G01X2184400Y2773680D03*
G01X2208980Y2504437D03*
G01X2214060Y1783077D03*
G01X2214060Y1960877D03*
G01X2214060Y2321557D03*
G01X2218975Y8242733D03*
G01X2219140Y2133597D03*
G01X2222099Y8164897D03*
G01X2291732Y4622800D03*
G01X2296812Y3901440D03*
G01X2296812Y4079240D03*
G01X2296812Y4439920D03*
G01X2301892Y4251960D03*
G01X2372192Y2504437D03*
G01X2377272Y1783077D03*
G01X2377272Y1960877D03*
G01X2377272Y2321557D03*
G01X2377446Y4805680D03*
G01X2382352Y2133597D03*
G01X2494280Y4632960D03*
G01X2499360Y3911600D03*
G01X2499360Y4089400D03*
G01X2499360Y4450080D03*
G01X2504440Y4262120D03*
G01X2509520Y8229600D03*
G01X2558376Y8474837D03*
G01X2574740Y2514597D03*
G01X2579820Y1793237D03*
G01X2579820Y1971037D03*
G01X2579820Y2331717D03*
G01X2584900Y2143757D03*
G01X2590800Y2778760D03*
G01X2631630Y4805680D03*
G01X2672080Y162560D03*
G01X2778760Y8268896D03*
G01X2977245Y8474837D03*
G01X2984360Y8283576D03*
G01X3032760Y3535680D03*
G01X3048000Y3723640D03*
G01X3098195Y1566052D03*
G01X3169920Y8270240D03*
G01X3230372Y3518744D03*
G01X3235960Y1656080D03*
G01X3246120Y751840D03*
G01X3286760Y1524000D03*
G01X3291840Y614680D03*
G01X3423920Y162560D03*
G01X3455518Y1642642D03*
G01X3467958Y8181624D03*
G01X3479800Y782320D03*
G01X3535680Y8138160D03*
G01X3632200Y7645400D03*
G01X3632200Y7807960D03*
G01X3642360Y132080D03*
G01X3652520Y1518920D03*
G01X3713480Y4561840D03*
G01X3738880Y3048000D03*
G01X3743960Y2895600D03*
G01X3749040Y2514600D03*
G01X3769360Y4739640D03*
G01X3794760Y7645400D03*
G01X3815080Y4216400D03*
G01X3937000Y2133600D03*
G01X3977640Y3408680D03*
G01X4018796Y5951199D03*
G01X4033520Y4216400D03*
G01X4058920Y142240D03*
G01X4058920Y2240280D03*
G01X4105489Y5848308D03*
G01X4119880Y2108200D03*
G01X4119880Y6146800D03*
G01X4163384Y5930801D03*
G01X4221480Y4165600D03*
G01X4270475Y6017194D03*
G01X4347600Y6199693D03*
G01X4368800Y2123440D03*
G01X4373880Y2235200D03*
G01X4425671Y8084735D03*
G01X4555150Y6050191D03*
G01X4587240Y2118360D03*
G01X4592047Y5923902D03*
G01X4607560Y1996440D03*
G01X4617720Y152400D03*
G01X4658360Y6070600D03*
G01X4775200Y6954520D03*
G01X4785360Y1818640D03*
G01X4795520Y1950720D03*
G01X4805680Y2128520D03*
G01X4805680Y2296160D03*
G01X4805680Y4526280D03*
G01X4810760Y4257040D03*
G01X4810760Y4673600D03*
G01X4831080Y6106160D03*
G01X4897120Y6954520D03*
G01X5085080Y152400D03*
G01X5085080Y1183640D03*
G01X5166360Y7919720D03*
G01X5298440Y7914640D03*
G01X5318760Y2524760D03*
G01X5323840Y2021840D03*
G01X5349240Y2189480D03*
G01X5402232Y7046089D03*
G01X5415280Y5679440D03*
G01X5420360Y6309360D03*
G01X5521960Y157480D03*
G01X5633720Y5041496D03*
G01X5633720Y5178086D03*
G01X5635960Y6471920D03*
G01X5654040Y777240D03*
G01X5715000Y157480D03*
G01X5740400Y8143240D03*
G01X5784063Y777240D03*
G01X5791200Y899160D03*
G01X5816600Y2090779D03*
G01X5816600Y2199640D03*
G01X5836920Y6380480D03*
G01X5866756Y4706656D03*
G01X5908329Y4612125D03*
G01X5947240Y4780645D03*
G01X6015568Y7500225D03*
G01X6054565Y7259346D03*
G01X6065520Y2011680D03*
G01X6065892Y7871778D03*
G01X6111240Y1463040D03*
G01X6113907Y6490564D03*
G01X6126480Y904240D03*
G01X6131560Y5831840D03*
G01X6136640Y2438400D03*
G01X6140657Y7265045D03*
G01X6211901Y6466690D03*
G01X6253920Y2145165D03*
G01X6268720Y7975511D03*
G01X6269209Y1591445D03*
G01X6278045Y7219149D03*
G01X6302043Y7131257D03*
G01X6324600Y7904480D03*
G01X6327307Y1865399D03*
G01X6335121Y1032645D03*
G01X6350122Y1312367D03*
G01X6355080Y7650480D03*
G01X6385560Y751840D03*
G01X6396836Y2438400D03*
G01X6430575Y6714084D03*
G01X6441440Y3804920D03*
G01X6441440Y4069773D03*
G01X6548120Y162560D03*
G01X6593840Y2428240D03*
G01X6615432Y2773680D03*
G01X6615432Y3175462D03*
G01X6659880Y1463040D03*
G01X6664960Y1778000D03*
G01X6670040Y1214120D03*
G01X6695440Y2026920D03*
G01X6700520Y889000D03*
G01X6744668Y5977856D03*
G01X6771640Y6121400D03*
G01X6858013Y1702308D03*
G01X6858013Y2266188D03*
G01X6863093Y1133348D03*
G01X6969760Y7919720D03*
G01X7040321Y7691589D03*
G01X7040880Y1300480D03*
G01X7134776Y5614759D03*
G01X7162800Y2062480D03*
G01X7228840Y7919720D03*
G01X7299960Y7147560D03*
G01X7310120Y7411720D03*
G01X7376160Y8525658D03*
G01X7421880Y7264400D03*
G01X7447280Y4241800D03*
G01X7498080Y2194560D03*
G01X7535276Y7411720D03*
G01X7538445Y7147560D03*
G01X7543800Y955402D03*
G01X7543800Y1302931D03*
G01X7543800Y1534160D03*
G01X7574280Y6817360D03*
G01X7604760Y2026920D03*
G01X7635240Y2326640D03*
G01X7645400Y8244840D03*
G01X7680960Y4053840D03*
G01X7731760Y5913120D03*
G01X7736840Y6228080D03*
G01X7757160Y2438400D03*
G01X7777480Y6410960D03*
G01X7804955Y4375660D03*
G01X7813040Y7747000D03*
G01X7858719Y4163339D03*
G01X7873459Y3634619D03*
G01X7875135Y4340531D03*
G01X7923831Y3580924D03*
G01X7934960Y8478520D03*
G01X7945120Y3296920D03*
G01X7955880Y4334303D03*
G01X7965440Y6151880D03*
G01X7975600Y2545080D03*
G01X8006080Y7747000D03*
G01X8082619Y4350586D03*
G01X8117840Y6070600D03*
G01X8119223Y3391601D03*
G01X8167772Y4344932D03*
G01X8168640Y6004560D03*
G01X8214360Y5933440D03*
G01X8229600Y5364480D03*
G01X8234680Y162560D03*
G01X8305041Y3139623D03*
G01X8359333Y4776824D03*
G01X8381574Y3231320D03*
G01X8412480Y1930400D03*
G01X8427720Y1666240D03*
G01X8427720Y5811520D03*
G01X8430427Y4702431D03*
G01X8437880Y5384800D03*
G01X8442960Y2219960D03*
G01X8524240Y5928360D03*
G01X8585200Y5867400D03*
G01X8625840Y2407920D03*
G01X8629269Y1219200D03*
G01X8656320Y1874520D03*
G01X8681720Y5425440D03*
G01X8704701Y3491532D03*
G01X8737600Y5801360D03*
G01X8747760Y4081475D03*
G01X8760652Y3166715D03*
G01X8783320Y838200D03*
G01X8787533Y5603442D03*
G01X8808720Y6583680D03*
G01X8819908Y7351589D03*
G01X8819908Y7459767D03*
G01X8819908Y7580522D03*
G01X8819908Y7681789D03*
G01X8819929Y4081020D03*
G01X8879840Y5963920D03*
G01X8905240Y5603320D03*
G01X8925560Y6365240D03*
G01X8943480Y4369263D03*
G01X8945880Y1066800D03*
G01X8971280Y6548120D03*
G01X8983279Y4714430D03*
G01X8991600Y1310640D03*
G01X9057640Y5867400D03*
G01X9057640Y6283960D03*
G01X9062720Y2956560D03*
G01X9062720Y6690360D03*
G01X9075202Y3096063D03*
G01X9077960Y6893560D03*
G01X9079792Y4758607D03*
G01X9093200Y3357880D03*
G01X9118600Y5648960D03*
G01X9128760Y6212840D03*
G01X9154160Y8488680D03*
G01X9159996Y4368604D03*
G01X9184640Y1056640D03*
G01X9210040Y7696200D03*
G01X9234442Y5525521D03*
G01X9247739Y4417781D03*
G01X9276080Y152400D03*
G01X9316720Y6283960D03*
G01X9347200Y2524760D03*
G01X9352280Y3037840D03*
G01X9387840Y1488440D03*
G01X9403080Y7701280D03*
G01X9408160Y5262880D03*
G01X9423400Y1960880D03*
G01X9427240Y4785524D03*
G01X9428480Y3230880D03*
G01X9443720Y4404360D03*
G01X9464203Y5360939D03*
G01X9474200Y1026160D03*
G01X9489440Y2966720D03*
G01X9509760Y1310640D03*
G01X9519920Y6040120D03*
G01X9528097Y5319445D03*
G01X9534331Y4713230D03*
G01X9547170Y5400040D03*
G01X9560560Y5963920D03*
G01X9591040Y3634359D03*
G01X9621520Y5877560D03*
G01X9646920Y499983D03*
G01X9646920Y635000D03*
G01X9652000Y5344160D03*
G01X9662160Y203200D03*
G01X9697720Y2707640D03*
G01X9707880Y2143760D03*
G01X9733280Y5816600D03*
G01X9738360Y1437640D03*
G01X9738360Y2794000D03*
G01X9743440Y2428240D03*
G01X9753600Y60000D03*
G01X9779000Y2509520D03*
G01X9779000Y2870200D03*
G01X9814560Y670560D03*
G01X9819640Y218440D03*
G01X9819640Y426135D03*
G01X9841662Y5397699D03*
G01X9850120Y5913120D03*
G01X9875520Y3230880D03*
G01X9921240Y5857240D03*
G01X9956994Y4806822D03*
G01X10002520Y5892800D03*
G01X10053320Y1940560D03*
G01X10099040Y650240D03*
G01X10101205Y1474002D03*
G01X10108535Y5426060D03*
G01X10129520Y2738120D03*
G01X10134600Y3327400D03*
G01X10145878Y4505960D03*
G01X10149840Y2463800D03*
G01X10154920Y1259840D03*
G01X10170160Y5913120D03*
G01X10175240Y2555240D03*
G01X10175240Y3642360D03*
G01X10180320Y2311400D03*
G01X10210800Y7396480D03*
G01X10215880Y7503160D03*
G01X10215880Y7609840D03*
G01X10215880Y7706360D03*
G01X10251440Y2626360D03*
G01X10271760Y1249680D03*
G01X10281920Y6487160D03*
G01X10297160Y6705600D03*
G01X10327640Y5664200D03*
G01X10353040Y2534920D03*
G01X10424160Y6278880D03*
G01X10429240Y6990080D03*
G01X10474960Y589280D03*
G01X10474960Y2677160D03*
G01X10490200Y6207760D03*
G01X10515600Y238760D03*
G01X10530840Y1579880D03*
G01X10541000Y1879600D03*
G01X10544343Y5009304D03*
G01X10546080Y60000D03*
G01X10546080Y1468120D03*
G01X10558603Y4610049D03*
G01X10566400Y2352040D03*
G01X10568384Y5842894D03*
G01X10576560Y2555240D03*
G01X10581640Y767080D03*
G01X10599217Y7501589D03*
G01X10607040Y1813560D03*
G01X10632440Y7691120D03*
G01X10647680Y2656840D03*
G01X10652634Y4964008D03*
G01X10678160Y3337560D03*
G01X10688320Y1021080D03*
G01X10698480Y1828800D03*
G01X10698480Y8503920D03*
G01X10703560Y3215640D03*
G01X10703560Y6283960D03*
G01X10744200Y1315720D03*
G01X10795000Y60000D03*
G01X10795000Y4531360D03*
G01X10840720Y2971800D03*
G01X10850880Y5374640D03*
G01X10952480Y6070600D03*
G01X10952910Y5367506D03*
G01X10998200Y5994400D03*
G01X11004643Y5426040D03*
G01X11031944Y3337560D03*
G01X11038840Y5918200D03*
G01X11054080Y5374640D03*
G01X11069320Y1391920D03*
G01X11069320Y1818640D03*
G01X11079480Y660400D03*
G01X11145520Y1234440D03*
G01X11145520Y5796280D03*
G01X11168288Y2659288D03*
G01X11221720Y2286000D03*
G01X11242040Y5379720D03*
G01X11271159Y1806144D03*
G01X11278718Y3281680D03*
G01X11297920Y243840D03*
G01X11297920Y2326640D03*
G01X11308080Y1026160D03*
G01X11313160Y5892800D03*
G01X11340850Y1234440D03*
G01X11343640Y4302760D03*
G01X11353800Y60000D03*
G01X11363960Y2377440D03*
G01X11370040Y405360D03*
G01X11384280Y5831840D03*
G01X11389360Y3022600D03*
G01X11404207Y7543800D03*
G01X11404207Y7721600D03*
G01X11405027Y8486589D03*
G01X11409287Y7381240D03*
G01X11419840Y3286760D03*
G01X11445240Y1762760D03*
G01X11465560Y640080D03*
G01X11465560Y5887720D03*
G01X11480800Y1554480D03*
G01X11536287Y7386320D03*
G01X11577320Y6604000D03*
G01X11593952Y4753426D03*
G01X11597640Y6695440D03*
G01X11607800Y1188720D03*
G01X11607800Y5938520D03*
G01X11658600Y1981200D03*
G01X11669125Y5657581D03*
G01X11678920Y1803400D03*
G01X11689080Y2910840D03*
G01X11699240Y1416138D03*
G01X11724640Y6532880D03*
G01X11744960Y6868160D03*
G01X11758153Y5653531D03*
G01X11771670Y1188720D03*
G01X11778665Y3426483D03*
G01X11785600Y6675120D03*
G01X11832095Y5697131D03*
G01X11841480Y6314440D03*
G01X11851640Y7096760D03*
G01X11877040Y8488680D03*
G01X11908325Y4765725D03*
G01X11917680Y1026160D03*
G01X11932920Y6207760D03*
G01X11960915Y64499D03*
G01X11963400Y7741920D03*
G01X11968480Y7513320D03*
G01X12004040Y4257040D03*
G01X12025615Y4985906D03*
G01X12030715Y4865317D03*
G01X12046152Y8501181D03*
G01X12080240Y218440D03*
G01X12131040Y701040D03*
G01X12141200Y6299200D03*
G01X12156440Y1666240D03*
G01X12157440Y450565D03*
G01X12166600Y60960D03*
G01X12186248Y5380105D03*
G01X12207240Y1351280D03*
G01X12239983Y5315213D03*
G01X12242800Y2032000D03*
G01X12269308Y5384206D03*
G01X12325526Y5311592D03*
G01X12332965Y1325880D03*
G01X12354560Y1915160D03*
G01X12359640Y6060440D03*
G01X12385040Y2275840D03*
G01X12390120Y670560D03*
G01X12399683Y4707830D03*
G01X12400280Y5984240D03*
G01X12440920Y5913120D03*
G01X12532360Y3114040D03*
G01X12552680Y5786120D03*
G01X12558669Y4716530D03*
G01X12623800Y2976880D03*
G01X12628880Y3205480D03*
G01X12649200Y5369560D03*
G01X12705080Y5867400D03*
G01X12715240Y3058160D03*
G01X12740640Y8514080D03*
G01X12766040Y2951480D03*
G01X12787240Y2441878D03*
G01X12787240Y2607212D03*
G01X12796520Y5882640D03*
G01X12801600Y7543800D03*
G01X12801600Y7721600D03*
G01X12806680Y7381240D03*
G01X12852400Y3053080D03*
G01X12862560Y513080D03*
G01X12867640Y5831840D03*
G01X12898120Y4079240D03*
G01X12918440Y60000D03*
G01X12933680Y7386320D03*
G01X12944231Y5520696D03*
G01X12994640Y5928360D03*
G01X12994640Y8473440D03*
G01X13004800Y2966720D03*
G01X13018084Y5679838D03*
G01X13025120Y4262120D03*
G01X13050520Y6786880D03*
G01X13052731Y579120D03*
G01X13060680Y6517640D03*
G01X13116560Y5679440D03*
G01X13121640Y4363720D03*
G01X13162280Y3505200D03*
G01X13167360Y6400800D03*
G01X13213080Y6841732D03*
G01X13213080Y7056120D03*
G01X13228320Y6685280D03*
G01X13241538Y4441602D03*
G01X13268960Y2758440D03*
G01X13268960Y3022600D03*
G01X13279120Y579120D03*
G01X13279120Y6289040D03*
G01X13350240Y6207760D03*
G01X13390880Y4343400D03*
G01X13403316Y7483689D03*
G01X13406120Y7731760D03*
G01X13427094Y4884515D03*
G01X13427094Y5001505D03*
G01X13431161Y5312474D03*
G01X13472160Y4465320D03*
G01X13553440Y6248400D03*
G01X13609320Y609600D03*
G01X13614400Y487680D03*
G01X13665200Y4353560D03*
G01X13666530Y5380920D03*
G01X13680440Y736600D03*
G01X13680440Y6045200D03*
G01X13698438Y5296875D03*
G01X13734867Y4737528D03*
G01X13756640Y5379720D03*
G01X13761720Y4470400D03*
G01X13771880Y5943600D03*
G01X13832658Y4746227D03*
G01X13837920Y5872480D03*
G01X13853160Y4084320D03*
G01X13954760Y5770880D03*
G01X14005560Y5405120D03*
G01X14029076Y68062D03*
G01X14178280Y5816600D03*
G01X14233511Y4470400D03*
G01X14254480Y5842000D03*
G01X14320520Y5786120D03*
G01X14429098Y6662581D03*
G01X14472920Y5674360D03*
G01X14478000Y5979160D03*
G01X14498320Y3139440D03*
G01X14498320Y3369540D03*
G01X14498320Y3662680D03*
G01X14498320Y3941805D03*
G01X14498320Y4270108D03*
G01X14498320Y4455160D03*
G01X14561021Y6573429D03*
G01X14665960Y6405880D03*
G01X14678455Y6540619D03*
G01X14701520Y4607560D03*
G01X14737080Y5288280D03*
G01X14737080Y5709920D03*
G01X14737080Y6146637D03*
G01X14784287Y6494347D03*
G01X14828520Y3426251D03*
G01X14848840Y4434840D03*
G01X14848840Y5474861D03*
G01X14848840Y5933352D03*
G01X14940280Y3140623D03*
G01X14940280Y6446520D03*
G01X14945360Y3486063D03*
G01X14945360Y3728720D03*
G01X14947753Y6743804D03*
G01X14947753Y6845667D03*
G01X14950440Y1417320D03*
G01X14950440Y4074160D03*
G01X14955520Y1762760D03*
G01X14955520Y2005417D03*
G01X14960600Y2350857D03*
G01X14987213Y6271056D03*
G01X14992521Y6066070D03*
G01X14993120Y7426220D03*
G01X15005987Y7133052D03*
G04 Drill Drawing End*

M02*

