G04 Layer: TopPasteMaskLayer*
G04 EasyEDA Pro v2.2.32.3, 2026-01-21 13:37:31*
G04 Gerber Generator version 0.3*
G04 Scale: 100 percent, Rotated: No, Reflected: No*
G04 Dimensions in millimeters*
G04 Leading zeros omitted, absolute positions, 3 integers and 5 decimals*
%FSLAX35Y35*%
%MOMM*%
%ADD10R,3.50002X3.50002*%
%ADD11O,0.28001X0.89574*%
%ADD12O,0.89572X0.28001*%
%ADD13O,0.89574X0.28001*%
%ADD14R,0.9X0.8*%
%ADD15R,0.9X0.8*%
%ADD16R,1.10002X1.0*%
%ADD17R,1.6013X1.4*%
%ADD18R,1.6X1.4*%
%ADD19R,1.2X1.4*%
%ADD20R,1.0X1.10002*%
%ADD21R,1.4X1.0*%
%ADD22R,1.4X1.0*%
%ADD23R,2.99999X1.0*%
%ADD24R,0.532X1.07201*%
%ADD25R,9.00001X11.0*%
%ADD26R,3.35854X1.01999*%
%ADD27R,5.99999X2.99999*%
%ADD28R,3.49999X1.01999*%
%ADD29R,8.70501X10.5872*%
%ADD30R,1.0X1.4*%
%ADD31R,2.99999X1.0*%
%ADD32R,1.0X1.4*%
%ADD33R,1.0X2.99999*%
%ADD34R,2.0X2.0*%
%ADD35R,1.0X1.10002*%
%ADD36O,0.58801X2.045*%
%ADD37R,0.8X0.9*%
%ADD38R,0.8X0.9*%
%ADD39R,1.10002X1.0*%
%ADD40R,1.0X0.89992*%
%ADD41R,3.03002X3.82001*%
%ADD42R,3.02999X3.82001*%
%ADD43R,2.0X1.2*%
%ADD44R,5.8X5.8*%
%ADD45R,2.0X2.0*%
%ADD46R,1.1X0.6*%
%ADD47R,3.6X2.0*%
%ADD48R,1.1X1.6*%
%ADD49R,1.1X1.6*%
%ADD50O,0.6X2.0*%
%ADD51R,2.50002X1.0*%
%ADD52R,2.49999X1.0*%
%ADD53R,1.0X0.8*%
%ADD54R,2.0X2.0*%
%ADD55R,1.5X3.0*%
%ADD56R,10.1X10.0*%
%ADD57R,0.889X0.889*%
%ADD58R,1.9X1.3*%
%ADD59R,1.0X0.8*%
%ADD60R,1.03749X0.532*%
%ADD61R,1.5X3.0*%
%ADD62R,0.89992X1.0*%
%ADD63O,0.3X1.8*%
%ADD64O,1.8X0.3*%
%ADD65R,0.889X0.889*%
%ADD66R,0.7X1.25001*%
%ADD67O,1.55001X0.7*%
%ADD68R,2.1924X2.04749*%
%ADD69O,0.7X1.55001*%
%ADD70R,0.4X0.6*%
%ADD71R,0.4X0.6*%
%ADD72R,2.2X2.0*%
G75*


G04 PolygonModel Start*
G36*
G01X12785760Y2244639D02*
G01X12705760Y2244639D01*
G01X12700758Y2239637D01*
G01X12700758Y2216841D01*
G01X12737759Y2216841D01*
G01X12737759Y2183841D01*
G01X12700758Y2183841D01*
G01X12700758Y2159638D01*
G01X12705760Y2154639D01*
G01X12785760Y2154639D01*
G01X12790758Y2159638D01*
G01X12790758Y2239637D01*
G01X12785760Y2244639D01*
G37*
G36*
G01X12630759Y2239637D02*
G01X12630759Y2216841D01*
G01X12592760Y2216841D01*
G01X12592760Y2183841D01*
G01X12630759Y2183841D01*
G01X12630759Y2159638D01*
G01X12625760Y2154639D01*
G01X12546761Y2154639D01*
G01X12541760Y2159638D01*
G01X12541760Y2239637D01*
G01X12546761Y2244639D01*
G01X12625760Y2244639D01*
G01X12630759Y2239637D01*
G37*
G36*
G01X11501841Y2649342D02*
G01X11501841Y2569342D01*
G01X11506843Y2564341D01*
G01X11529639Y2564341D01*
G01X11529639Y2601341D01*
G01X11562639Y2601341D01*
G01X11562639Y2564341D01*
G01X11586842Y2564341D01*
G01X11591841Y2569342D01*
G01X11591841Y2649342D01*
G01X11586842Y2654341D01*
G01X11506843Y2654341D01*
G01X11501841Y2649342D01*
G37*
G36*
G01X11506843Y2494341D02*
G01X11529639Y2494341D01*
G01X11529639Y2456343D01*
G01X11562639Y2456343D01*
G01X11562639Y2494341D01*
G01X11586842Y2494341D01*
G01X11591841Y2489342D01*
G01X11591841Y2410343D01*
G01X11586842Y2405342D01*
G01X11506843Y2405342D01*
G01X11501841Y2410343D01*
G01X11501841Y2489342D01*
G01X11506843Y2494341D01*
G37*
G36*
G01X1352560Y4438241D02*
G01X1352560Y4365577D01*
G01X1342560Y4355577D01*
G01X1318953Y4355577D01*
G01X1308953Y4345577D01*
G01X1308953Y4270103D01*
G01X1318953Y4260103D01*
G01X1342560Y4260103D01*
G01X1352560Y4250103D01*
G01X1352560Y4177439D01*
G01X1342560Y4167439D01*
G01X1234308Y4167439D01*
G01X1224308Y4177439D01*
G01X1224308Y4438241D01*
G01X1234308Y4448241D01*
G01X1342560Y4448241D01*
G01X1352560Y4438241D01*
G37*
G36*
G01X1512560Y4438241D02*
G01X1512560Y4365577D01*
G01X1522560Y4355577D01*
G01X1546167Y4355577D01*
G01X1556167Y4345577D01*
G01X1556167Y4270103D01*
G01X1546167Y4260103D01*
G01X1522560Y4260103D01*
G01X1512560Y4250103D01*
G01X1512560Y4177439D01*
G01X1522560Y4167439D01*
G01X1630812Y4167439D01*
G01X1640812Y4177439D01*
G01X1640812Y4438241D01*
G01X1630812Y4448241D01*
G01X1522560Y4448241D01*
G01X1512560Y4438241D01*
G37*
G36*
G01X1352560Y4778601D02*
G01X1352560Y4705937D01*
G01X1342560Y4695937D01*
G01X1318953Y4695937D01*
G01X1308953Y4685937D01*
G01X1308953Y4610463D01*
G01X1318953Y4600463D01*
G01X1342560Y4600463D01*
G01X1352560Y4590463D01*
G01X1352560Y4517799D01*
G01X1342560Y4507799D01*
G01X1234308Y4507799D01*
G01X1224308Y4517799D01*
G01X1224308Y4778601D01*
G01X1234308Y4788601D01*
G01X1342560Y4788601D01*
G01X1352560Y4778601D01*
G37*
G36*
G01X1512560Y4778601D02*
G01X1512560Y4705937D01*
G01X1522560Y4695937D01*
G01X1546167Y4695937D01*
G01X1556167Y4685937D01*
G01X1556167Y4610463D01*
G01X1546167Y4600463D01*
G01X1522560Y4600463D01*
G01X1512560Y4590463D01*
G01X1512560Y4517799D01*
G01X1522560Y4507799D01*
G01X1630812Y4507799D01*
G01X1640812Y4517799D01*
G01X1640812Y4778601D01*
G01X1630812Y4788601D01*
G01X1522560Y4788601D01*
G01X1512560Y4778601D01*
G37*
G36*
G01X6167463Y6757027D02*
G01X6167463Y6677027D01*
G01X6172464Y6672026D01*
G01X6195261Y6672026D01*
G01X6195261Y6709026D01*
G01X6228260Y6709026D01*
G01X6228260Y6672026D01*
G01X6252464Y6672026D01*
G01X6257463Y6677027D01*
G01X6257463Y6757027D01*
G01X6252464Y6762025D01*
G01X6172464Y6762025D01*
G01X6167463Y6757027D01*
G37*
G36*
G01X6172464Y6602026D02*
G01X6195261Y6602026D01*
G01X6195261Y6564027D01*
G01X6228260Y6564027D01*
G01X6228260Y6602026D01*
G01X6252464Y6602026D01*
G01X6257463Y6597027D01*
G01X6257463Y6518028D01*
G01X6252464Y6513027D01*
G01X6172464Y6513027D01*
G01X6167463Y6518028D01*
G01X6167463Y6597027D01*
G01X6172464Y6602026D01*
G37*
G36*
G01X6098959Y6945595D02*
G01X6178959Y6945595D01*
G01X6183960Y6950597D01*
G01X6183960Y6973393D01*
G01X6146960Y6973393D01*
G01X6146960Y7006393D01*
G01X6183960Y7006393D01*
G01X6183960Y7030597D01*
G01X6178959Y7035595D01*
G01X6098959Y7035595D01*
G01X6093960Y7030597D01*
G01X6093960Y6950597D01*
G01X6098959Y6945595D01*
G37*
G36*
G01X6253960Y6950597D02*
G01X6253960Y6973393D01*
G01X6291958Y6973393D01*
G01X6291958Y7006393D01*
G01X6253960Y7006393D01*
G01X6253960Y7030597D01*
G01X6258959Y7035595D01*
G01X6337958Y7035595D01*
G01X6342959Y7030597D01*
G01X6342959Y6950597D01*
G01X6337958Y6945595D01*
G01X6258959Y6945595D01*
G01X6253960Y6950597D01*
G37*
G36*
G01X3311439Y5605658D02*
G01X3311439Y5685658D01*
G01X3306437Y5690659D01*
G01X3283641Y5690659D01*
G01X3283641Y5653659D01*
G01X3250641Y5653659D01*
G01X3250641Y5690659D01*
G01X3226438Y5690659D01*
G01X3221439Y5685658D01*
G01X3221439Y5605658D01*
G01X3226438Y5600659D01*
G01X3306437Y5600659D01*
G01X3311439Y5605658D01*
G37*
G36*
G01X3306437Y5760659D02*
G01X3283641Y5760659D01*
G01X3283641Y5798657D01*
G01X3250641Y5798657D01*
G01X3250641Y5760659D01*
G01X3226438Y5760659D01*
G01X3221439Y5765658D01*
G01X3221439Y5844657D01*
G01X3226438Y5849658D01*
G01X3306437Y5849658D01*
G01X3311439Y5844657D01*
G01X3311439Y5765658D01*
G01X3306437Y5760659D01*
G37*
G36*
G01X3221441Y5356982D02*
G01X3221441Y5276982D01*
G01X3226443Y5271981D01*
G01X3249239Y5271981D01*
G01X3249239Y5308981D01*
G01X3282239Y5308981D01*
G01X3282239Y5271981D01*
G01X3306442Y5271981D01*
G01X3311441Y5276982D01*
G01X3311441Y5356982D01*
G01X3306442Y5361981D01*
G01X3226443Y5361981D01*
G01X3221441Y5356982D01*
G37*
G36*
G01X3226443Y5201981D02*
G01X3249239Y5201981D01*
G01X3249239Y5163983D01*
G01X3282239Y5163983D01*
G01X3282239Y5201981D01*
G01X3306442Y5201981D01*
G01X3311441Y5196982D01*
G01X3311441Y5117983D01*
G01X3306442Y5112982D01*
G01X3226443Y5112982D01*
G01X3221441Y5117983D01*
G01X3221441Y5196982D01*
G01X3226443Y5201981D01*
G37*
G36*
G01X2691679Y5605658D02*
G01X2691679Y5685658D01*
G01X2686677Y5690659D01*
G01X2663881Y5690659D01*
G01X2663881Y5653659D01*
G01X2630881Y5653659D01*
G01X2630881Y5690659D01*
G01X2606678Y5690659D01*
G01X2601679Y5685658D01*
G01X2601679Y5605658D01*
G01X2606678Y5600659D01*
G01X2686677Y5600659D01*
G01X2691679Y5605658D01*
G37*
G36*
G01X2686677Y5760659D02*
G01X2663881Y5760659D01*
G01X2663881Y5798657D01*
G01X2630881Y5798657D01*
G01X2630881Y5760659D01*
G01X2606678Y5760659D01*
G01X2601679Y5765658D01*
G01X2601679Y5844657D01*
G01X2606678Y5849658D01*
G01X2686677Y5849658D01*
G01X2691679Y5844657D01*
G01X2691679Y5765658D01*
G01X2686677Y5760659D01*
G37*
G36*
G01X6144578Y3604760D02*
G01X6144578Y3476762D01*
G01X6139576Y3471761D01*
G01X6024575Y3471761D01*
G01X6019576Y3476762D01*
G01X6019074Y3517765D01*
G01X6064075Y3517765D01*
G01X6064075Y3562764D01*
G01X6020074Y3562764D01*
G01X6019576Y3604760D01*
G01X6024575Y3609762D01*
G01X6139576Y3609762D01*
G01X6144578Y3604760D01*
G37*
G36*
G01X5803583Y3476760D02*
G01X5803583Y3604758D01*
G01X5808584Y3609759D01*
G01X5923585Y3609759D01*
G01X5928584Y3604758D01*
G01X5929086Y3563755D01*
G01X5884085Y3563755D01*
G01X5884085Y3518756D01*
G01X5928086Y3518756D01*
G01X5928584Y3476760D01*
G01X5923585Y3471758D01*
G01X5808584Y3471758D01*
G01X5803583Y3476760D01*
G37*
G36*
G01X6144578Y3401560D02*
G01X6144578Y3273562D01*
G01X6139576Y3268561D01*
G01X6024575Y3268561D01*
G01X6019576Y3273562D01*
G01X6019074Y3314565D01*
G01X6064075Y3314565D01*
G01X6064075Y3359564D01*
G01X6020074Y3359564D01*
G01X6019576Y3401560D01*
G01X6024575Y3406562D01*
G01X6139576Y3406562D01*
G01X6144578Y3401560D01*
G37*
G36*
G01X5803583Y3273560D02*
G01X5803583Y3401558D01*
G01X5808584Y3406559D01*
G01X5923585Y3406559D01*
G01X5928584Y3401558D01*
G01X5929086Y3360555D01*
G01X5884085Y3360555D01*
G01X5884085Y3315556D01*
G01X5928086Y3315556D01*
G01X5928584Y3273560D01*
G01X5923585Y3268558D01*
G01X5808584Y3268558D01*
G01X5803583Y3273560D01*
G37*
G36*
G01X6677343Y3486920D02*
G01X6677343Y3614918D01*
G01X6682344Y3619919D01*
G01X6797345Y3619919D01*
G01X6802344Y3614918D01*
G01X6802846Y3573915D01*
G01X6757845Y3573915D01*
G01X6757845Y3528916D01*
G01X6801846Y3528916D01*
G01X6802344Y3486920D01*
G01X6797345Y3481918D01*
G01X6682344Y3481918D01*
G01X6677343Y3486920D01*
G37*
G36*
G01X7018338Y3614920D02*
G01X7018338Y3486922D01*
G01X7013336Y3481921D01*
G01X6898335Y3481921D01*
G01X6893336Y3486922D01*
G01X6892834Y3527925D01*
G01X6937835Y3527925D01*
G01X6937835Y3572924D01*
G01X6893834Y3572924D01*
G01X6893336Y3614920D01*
G01X6898335Y3619922D01*
G01X7013336Y3619922D01*
G01X7018338Y3614920D01*
G37*
G36*
G01X8029440Y2882583D02*
G01X7901442Y2882583D01*
G01X7896441Y2887584D01*
G01X7896441Y3002585D01*
G01X7901442Y3007584D01*
G01X7942445Y3008086D01*
G01X7942445Y2963085D01*
G01X7987444Y2963085D01*
G01X7987444Y3007086D01*
G01X8029440Y3007584D01*
G01X8034442Y3002585D01*
G01X8034442Y2887584D01*
G01X8029440Y2882583D01*
G37*
G36*
G01X7901440Y3223578D02*
G01X8029438Y3223578D01*
G01X8034439Y3218576D01*
G01X8034439Y3103575D01*
G01X8029438Y3098576D01*
G01X7988435Y3098074D01*
G01X7988435Y3143075D01*
G01X7943436Y3143075D01*
G01X7943436Y3099074D01*
G01X7901440Y3098576D01*
G01X7896438Y3103575D01*
G01X7896438Y3218576D01*
G01X7901440Y3223578D01*
G37*

G04 Pad Start*
G54D10*
G01X13905192Y6441607D03*
G54D11*
G01X13755069Y6691602D03*
G01X13805107Y6691602D03*
G01X13855145Y6691602D03*
G01X13905183Y6691602D03*
G01X13955221Y6691602D03*
G01X14005259Y6691602D03*
G01X14055297Y6691602D03*
G54D12*
G01X14155212Y6591729D03*
G01X14155212Y6541691D03*
G01X14155212Y6491653D03*
G01X14155212Y6441615D03*
G01X14155212Y6391577D03*
G01X14155212Y6341539D03*
G01X14155212Y6291501D03*
G54D11*
G01X14055297Y6191603D03*
G01X14005259Y6191603D03*
G01X13955221Y6191603D03*
G01X13905183Y6191603D03*
G01X13855145Y6191603D03*
G01X13805107Y6191603D03*
G01X13755069Y6191603D03*
G54D13*
G01X13655214Y6291501D03*
G01X13655214Y6341539D03*
G01X13655214Y6391577D03*
G01X13655214Y6441615D03*
G01X13655214Y6491653D03*
G01X13655214Y6541691D03*
G01X13655214Y6591729D03*
G54D14*
G01X13631916Y5661392D03*
G01X13631916Y5521387D03*
G01X13390616Y7185392D03*
G01X13390616Y7045387D03*
G54D15*
G01X13809716Y5521387D03*
G01X13809716Y5661392D03*
G54D16*
G01X14012916Y5684094D03*
G01X14012916Y5524094D03*
G54D18*
G01X14483080Y5849520D03*
G54D19*
G01X14383080Y5509520D03*
G01X14583080Y5509520D03*
G54D20*
G01X14403075Y5323840D03*
G01X14563075Y5323840D03*
G54D21*
G01X13873216Y7568289D03*
G01X13873216Y7348289D03*
G54D22*
G01X13644616Y7348289D03*
G01X13644616Y7568289D03*
G01X13403316Y7383689D03*
G01X13403316Y7583689D03*
G54D23*
G01X14991324Y7269570D03*
G01X14431325Y7269570D03*
G54D16*
G01X14203416Y5684094D03*
G01X14203416Y5524094D03*
G54D24*
G01X13582396Y3061310D03*
G01X13487400Y3061310D03*
G01X13392404Y3061310D03*
G01X13392404Y2831490D03*
G01X13487400Y2831490D03*
G01X13582396Y2831490D03*
G54D25*
G01X2382352Y2133597D03*
G54D26*
G01X3419003Y2473602D03*
G01X3419003Y2303600D03*
G01X3419003Y2133597D03*
G01X3419003Y1963595D03*
G01X3419003Y1793593D03*
G54D27*
G01X4358640Y2652319D03*
G01X4358640Y1452321D03*
G54D28*
G01X3443808Y3881476D03*
G01X3443808Y4051478D03*
G01X3443808Y4221480D03*
G01X3443808Y4391482D03*
G01X3443808Y4561484D03*
G54D29*
G01X2418512Y4221480D03*
G54D30*
G01X3732200Y3556000D03*
G01X3532200Y3556000D03*
G54D31*
G01X2620681Y3337560D03*
G01X3180679Y3337560D03*
G54D32*
G01X3532200Y3332480D03*
G01X3732200Y3332480D03*
G54D33*
G01X4383559Y5932278D03*
G01X4383559Y5372279D03*
G54D15*
G01X4810760Y5812638D03*
G01X4810760Y5952642D03*
G54D34*
G01X5176520Y4182560D03*
G01X5176520Y3762560D03*
G54D27*
G01X4373880Y4973879D03*
G01X4373880Y3773881D03*
G54D35*
G01X7354565Y1691640D03*
G01X7194565Y1691640D03*
G54D20*
G01X5949955Y1717040D03*
G01X6109955Y1717040D03*
G54D35*
G01X7349485Y1148080D03*
G01X7189485Y1148080D03*
G54D20*
G01X5955035Y1137920D03*
G01X6115035Y1137920D03*
G54D36*
G01X9720580Y3634359D03*
G01X9847580Y3634359D03*
G01X9974580Y3634359D03*
G01X10101580Y3634359D03*
G01X9720580Y4188841D03*
G01X9847580Y4188841D03*
G01X9974580Y4188841D03*
G01X10101580Y4188841D03*
G54D37*
G01X9561678Y3413760D03*
G01X9701682Y3413760D03*
G54D38*
G01X9701682Y4399280D03*
G01X9561678Y4399280D03*
G54D36*
G01X10284460Y3634359D03*
G01X10411460Y3634359D03*
G01X10538460Y3634359D03*
G01X10665460Y3634359D03*
G01X10284460Y4188841D03*
G01X10411460Y4188841D03*
G01X10538460Y4188841D03*
G01X10665460Y4188841D03*
G54D37*
G01X10135718Y3423920D03*
G01X10275722Y3423920D03*
G54D38*
G01X10285882Y4404360D03*
G01X10145878Y4404360D03*
G54D36*
G01X10868660Y3634359D03*
G01X10995660Y3634359D03*
G01X11122660Y3634359D03*
G01X11249660Y3634359D03*
G01X10868660Y4188841D03*
G01X10995660Y4188841D03*
G01X11122660Y4188841D03*
G01X11249660Y4188841D03*
G54D37*
G01X10694518Y3418840D03*
G01X10834522Y3418840D03*
G54D38*
G01X10854842Y4419600D03*
G01X10714838Y4419600D03*
G54D36*
G01X11452860Y3634359D03*
G01X11579860Y3634359D03*
G01X11706860Y3634359D03*
G01X11833860Y3634359D03*
G01X11452860Y4188841D03*
G01X11579860Y4188841D03*
G01X11706860Y4188841D03*
G01X11833860Y4188841D03*
G54D37*
G01X11278718Y3408680D03*
G01X11418722Y3408680D03*
G54D38*
G01X11433962Y4414520D03*
G01X11293958Y4414520D03*
G54D10*
G01X8273216Y6441589D03*
G54D11*
G01X8123094Y6691584D03*
G01X8173132Y6691584D03*
G01X8223170Y6691584D03*
G01X8273208Y6691584D03*
G01X8323246Y6691584D03*
G01X8373284Y6691584D03*
G01X8423322Y6691584D03*
G54D12*
G01X8523236Y6591711D03*
G01X8523236Y6541673D03*
G01X8523236Y6491635D03*
G01X8523236Y6441597D03*
G01X8523236Y6391559D03*
G01X8523236Y6341521D03*
G01X8523236Y6291483D03*
G54D11*
G01X8423322Y6191585D03*
G01X8373284Y6191585D03*
G01X8323246Y6191585D03*
G01X8273208Y6191585D03*
G01X8223170Y6191585D03*
G01X8173132Y6191585D03*
G01X8123094Y6191585D03*
G54D13*
G01X8023239Y6291483D03*
G01X8023239Y6341521D03*
G01X8023239Y6391559D03*
G01X8023239Y6441597D03*
G01X8023239Y6491635D03*
G01X8023239Y6541673D03*
G01X8023239Y6591711D03*
G54D14*
G01X8033216Y5671592D03*
G01X8033216Y5531587D03*
G01X7783218Y7191592D03*
G01X7783218Y7051587D03*
G54D15*
G01X8233216Y5531587D03*
G01X8233216Y5671592D03*
G54D16*
G01X7193280Y6729725D03*
G01X7193280Y6569725D03*
G01X8433216Y5681594D03*
G01X8433216Y5521594D03*
G54D18*
G01X8905240Y5813960D03*
G54D19*
G01X8805240Y5473960D03*
G01X9005240Y5473960D03*
G54D20*
G01X8830315Y5298440D03*
G01X8990315Y5298440D03*
G54D21*
G01X8244514Y7611589D03*
G01X8244514Y7391589D03*
G54D22*
G01X8013217Y7391589D03*
G01X8013217Y7611589D03*
G01X7783218Y7401589D03*
G01X7783218Y7601589D03*
G54D33*
G01X8712557Y7631588D03*
G01X8712557Y7071590D03*
G54D10*
G01X9681216Y6441589D03*
G54D11*
G01X9531093Y6691584D03*
G01X9581131Y6691584D03*
G01X9631169Y6691584D03*
G01X9681207Y6691584D03*
G01X9731245Y6691584D03*
G01X9781283Y6691584D03*
G01X9831321Y6691584D03*
G54D12*
G01X9931236Y6591711D03*
G01X9931236Y6541673D03*
G01X9931236Y6491635D03*
G01X9931236Y6441597D03*
G01X9931236Y6391559D03*
G01X9931236Y6341521D03*
G01X9931236Y6291483D03*
G54D11*
G01X9831321Y6191585D03*
G01X9781283Y6191585D03*
G01X9731245Y6191585D03*
G01X9681207Y6191585D03*
G01X9631169Y6191585D03*
G01X9581131Y6191585D03*
G01X9531093Y6191585D03*
G54D13*
G01X9431238Y6291483D03*
G01X9431238Y6341521D03*
G01X9431238Y6391559D03*
G01X9431238Y6441597D03*
G01X9431238Y6491635D03*
G01X9431238Y6541673D03*
G01X9431238Y6591711D03*
G54D14*
G01X9441216Y5671592D03*
G01X9441216Y5531587D03*
G01X9183216Y7191591D03*
G01X9183216Y7051587D03*
G54D15*
G01X9641216Y5531587D03*
G01X9641216Y5671592D03*
G54D16*
G01X7386320Y6724645D03*
G01X7386320Y6564645D03*
G01X9843216Y5681594D03*
G01X9843216Y5521594D03*
G54D18*
G01X10322560Y5834280D03*
G54D19*
G01X10222560Y5494280D03*
G01X10422560Y5494280D03*
G54D20*
G01X10242555Y5313680D03*
G01X10402555Y5313680D03*
G54D21*
G01X9652513Y7611589D03*
G01X9652513Y7391589D03*
G54D22*
G01X9421217Y7391589D03*
G01X9421217Y7611589D03*
G01X9191217Y7401589D03*
G01X9191217Y7601589D03*
G54D33*
G01X10120557Y7631588D03*
G01X10120557Y7071590D03*
G54D10*
G01X11089216Y6441589D03*
G54D11*
G01X10939093Y6691584D03*
G01X10989131Y6691584D03*
G01X11039169Y6691584D03*
G01X11089207Y6691584D03*
G01X11139245Y6691584D03*
G01X11189283Y6691584D03*
G01X11239321Y6691584D03*
G54D12*
G01X11339236Y6591711D03*
G01X11339236Y6541673D03*
G01X11339236Y6491635D03*
G01X11339236Y6441597D03*
G01X11339236Y6391559D03*
G01X11339236Y6341521D03*
G01X11339236Y6291483D03*
G54D11*
G01X11239321Y6191585D03*
G01X11189283Y6191585D03*
G01X11139245Y6191585D03*
G01X11089207Y6191585D03*
G01X11039169Y6191585D03*
G01X10989131Y6191585D03*
G01X10939093Y6191585D03*
G54D13*
G01X10839238Y6291483D03*
G01X10839238Y6341521D03*
G01X10839238Y6391559D03*
G01X10839238Y6441597D03*
G01X10839238Y6491635D03*
G01X10839238Y6541673D03*
G01X10839238Y6591711D03*
G54D14*
G01X10849216Y5671592D03*
G01X10849216Y5531587D03*
G01X10593216Y7191591D03*
G01X10593216Y7051587D03*
G54D15*
G01X11049216Y5531587D03*
G01X11049216Y5671592D03*
G54D16*
G01X7574280Y6724645D03*
G01X7574280Y6564645D03*
G01X11243216Y5681594D03*
G01X11243216Y5521594D03*
G54D18*
G01X11729720Y5834280D03*
G54D19*
G01X11629720Y5494280D03*
G01X11829720Y5494280D03*
G54D20*
G01X11644635Y5313680D03*
G01X11804635Y5313680D03*
G54D21*
G01X11060513Y7611589D03*
G01X11060513Y7391589D03*
G54D22*
G01X10829217Y7391589D03*
G01X10829217Y7611589D03*
G01X10599217Y7401589D03*
G01X10599217Y7601589D03*
G54D33*
G01X11528557Y7631588D03*
G01X11528557Y7071590D03*
G54D10*
G01X12497215Y6441589D03*
G54D11*
G01X12347093Y6691584D03*
G01X12397131Y6691584D03*
G01X12447169Y6691584D03*
G01X12497207Y6691584D03*
G01X12547245Y6691584D03*
G01X12597283Y6691584D03*
G01X12647321Y6691584D03*
G54D12*
G01X12747236Y6591711D03*
G01X12747236Y6541673D03*
G01X12747236Y6491635D03*
G01X12747236Y6441597D03*
G01X12747236Y6391559D03*
G01X12747236Y6341521D03*
G01X12747236Y6291483D03*
G54D11*
G01X12647321Y6191585D03*
G01X12597283Y6191585D03*
G01X12547245Y6191585D03*
G01X12497207Y6191585D03*
G01X12447169Y6191585D03*
G01X12397131Y6191585D03*
G01X12347093Y6191585D03*
G54D13*
G01X12247238Y6291483D03*
G01X12247238Y6341521D03*
G01X12247238Y6391559D03*
G01X12247238Y6441597D03*
G01X12247238Y6491635D03*
G01X12247238Y6541673D03*
G01X12247238Y6591711D03*
G54D14*
G01X12257215Y5671592D03*
G01X12257215Y5531587D03*
G01X12003216Y7191591D03*
G01X12003216Y7051587D03*
G54D15*
G01X12457216Y5531587D03*
G01X12457216Y5671592D03*
G54D16*
G01X7331700Y5448305D03*
G01X7331700Y5288305D03*
G01X12653216Y5681594D03*
G01X12653216Y5521594D03*
G54D18*
G01X13141960Y5854600D03*
G54D19*
G01X13041960Y5514600D03*
G01X13241960Y5514600D03*
G54D20*
G01X13041635Y5328920D03*
G01X13201635Y5328920D03*
G54D21*
G01X12468513Y7611589D03*
G01X12468513Y7391589D03*
G54D22*
G01X12237216Y7391589D03*
G01X12237216Y7611589D03*
G01X12007217Y7401589D03*
G01X12007217Y7601589D03*
G54D33*
G01X12926556Y7631588D03*
G01X12926556Y7071590D03*
G54D39*
G01X3418840Y7783835D03*
G01X3418840Y7943835D03*
G54D40*
G01X3427298Y7606798D03*
G01X3427298Y7436798D03*
G54D41*
G01X1150021Y7315200D03*
G54D42*
G01X1837018Y7315200D03*
G54D43*
G01X4527200Y6918584D03*
G01X4527200Y7378584D03*
G54D44*
G01X3857200Y7148584D03*
G54D39*
G01X5207000Y6711955D03*
G01X5207000Y6871955D03*
G01X4373880Y6361435D03*
G01X4373880Y6521435D03*
G54D45*
G01X4114800Y6150160D03*
G01X4114800Y6570160D03*
G54D39*
G01X2155313Y7793113D03*
G01X2155313Y7953112D03*
G54D40*
G01X2149412Y7488156D03*
G01X2149412Y7318157D03*
G54D20*
G01X5289555Y7264400D03*
G01X5449555Y7264400D03*
G54D34*
G01X13929360Y2943040D03*
G01X13929360Y2523040D03*
G54D15*
G01X13507720Y4004158D03*
G01X13507720Y4144162D03*
G54D38*
G01X13755522Y2280920D03*
G01X13615518Y2280920D03*
G54D39*
G01X13319760Y3318515D03*
G01X13319760Y3478515D03*
G01X13319760Y3653795D03*
G01X13319760Y3813795D03*
G54D40*
G01X14171498Y2785878D03*
G01X14171498Y2615878D03*
G54D39*
G01X14351000Y2617475D03*
G01X14351000Y2777475D03*
G54D46*
G01X5635960Y6610600D03*
G01X5635960Y6800600D03*
G01X5915960Y6800600D03*
G01X5915960Y6705600D03*
G01X5915960Y6610600D03*
G54D35*
G01X9706605Y3220720D03*
G01X9546605Y3220720D03*
G54D40*
G01X6871538Y2973838D03*
G01X6871538Y2803838D03*
G54D16*
G01X7061200Y2965445D03*
G01X7061200Y2805445D03*
G54D47*
G01X7519408Y2886705D03*
G54D48*
G01X7289408Y3436705D03*
G54D49*
G01X7519409Y3436705D03*
G54D48*
G01X7749408Y3436705D03*
G54D15*
G01X8153400Y2993238D03*
G01X8153400Y3133242D03*
G54D46*
G01X5635960Y7057640D03*
G01X5635960Y7247640D03*
G01X5915960Y7247640D03*
G01X5915960Y7152640D03*
G01X5915960Y7057640D03*
G54D16*
G01X8625840Y5683245D03*
G01X8625840Y5523245D03*
G01X10053216Y5681594D03*
G01X10053216Y5521594D03*
G01X11443216Y5681594D03*
G01X11443216Y5521594D03*
G01X12853216Y5681594D03*
G01X12853216Y5521594D03*
G54D50*
G01X12556680Y1303020D03*
G01X12549680Y1887220D03*
G01X13441680Y1887220D03*
G01X13314680Y1887220D03*
G01X13187680Y1887220D03*
G01X13060680Y1887220D03*
G01X12933680Y1887220D03*
G01X12806680Y1887220D03*
G01X12679680Y1887220D03*
G01X12679680Y1303020D03*
G01X12806680Y1303020D03*
G01X12933680Y1303020D03*
G01X13060680Y1303020D03*
G01X13187680Y1303020D03*
G01X13314680Y1303020D03*
G01X13441680Y1303020D03*
G54D38*
G01X13613282Y2098040D03*
G01X13473278Y2098040D03*
G54D51*
G01X13092639Y2505378D03*
G54D52*
G01X12532639Y2505378D03*
G54D37*
G01X12910277Y2820338D03*
G01X13050282Y2820338D03*
G54D38*
G01X12674362Y2820338D03*
G01X12534357Y2820338D03*
G54D53*
G01X4777120Y6797040D03*
G01X5017120Y6897040D03*
G01X5017120Y6697040D03*
G54D39*
G01X4566920Y6361435D03*
G01X4566920Y6521435D03*
G54D35*
G01X5378445Y6522720D03*
G01X5218445Y6522720D03*
G54D41*
G01X2475901Y7269480D03*
G54D42*
G01X3162898Y7269480D03*
G54D54*
G01X882200Y6400800D03*
G01X1302200Y6400800D03*
G54D39*
G01X4942840Y6361435D03*
G01X4942840Y6521435D03*
G01X4754880Y6361435D03*
G01X4754880Y6521435D03*
G54D23*
G01X6045799Y7675880D03*
G01X5485801Y7675880D03*
G54D39*
G01X13324840Y3994155D03*
G01X13324840Y4154155D03*
G54D37*
G01X3455518Y1417320D03*
G01X3595522Y1417320D03*
G54D31*
G01X2402241Y1219200D03*
G01X2962239Y1219200D03*
G54D38*
G01X3595522Y1244600D03*
G01X3455518Y1244600D03*
G54D31*
G01X4149761Y3190240D03*
G01X4709759Y3190240D03*
G54D37*
G01X5898998Y3149600D03*
G01X6039002Y3149600D03*
G54D34*
G01X5186680Y1850840D03*
G01X5186680Y1430840D03*
G54D35*
G01X7349485Y2255520D03*
G01X7189485Y2255520D03*
G54D20*
G01X5939795Y2265680D03*
G01X6099795Y2265680D03*
G54D55*
G01X1757680Y5298440D03*
G01X2265680Y5298440D03*
G54D56*
G01X2011680Y6298440D03*
G54D38*
G01X6912762Y3362960D03*
G01X6772758Y3362960D03*
G54D20*
G01X8129275Y1656080D03*
G01X8289275Y1656080D03*
G54D16*
G01X7924800Y1832605D03*
G01X7924800Y1672605D03*
G54D57*
G01X8281670Y1838960D03*
G01X8126730Y1838960D03*
G54D20*
G01X8129275Y2214880D03*
G01X8289275Y2214880D03*
G54D39*
G01X7929880Y2043435D03*
G01X7929880Y2203435D03*
G54D57*
G01X8281670Y2021840D03*
G01X8126730Y2021840D03*
G54D58*
G01X8629269Y953567D03*
G01X7789291Y953567D03*
G01X8629269Y1403553D03*
G01X7789291Y1403553D03*
G54D59*
G01X12576160Y944880D03*
G01X12336160Y844880D03*
G01X12336160Y1044880D03*
G54D20*
G01X13000995Y1051560D03*
G01X13160995Y1051560D03*
G54D39*
G01X12141200Y864875D03*
G01X12141200Y1024875D03*
G54D35*
G01X12332965Y1209040D03*
G01X12172965Y1209040D03*
G54D60*
G01X13346786Y1044956D03*
G01X13346786Y854964D03*
G01X13567054Y949960D03*
G54D35*
G01X13161005Y858520D03*
G01X13001005Y858520D03*
G01X11987525Y1604098D03*
G01X11827525Y1604098D03*
G01X11987525Y1416138D03*
G01X11827525Y1416138D03*
G54D61*
G01X11894600Y3229818D03*
G01X11894600Y2229818D03*
G54D20*
G01X11827515Y1793240D03*
G01X11987515Y1793240D03*
G01X11827515Y1981200D03*
G01X11987515Y1981200D03*
G54D14*
G01X11196320Y2924962D03*
G01X11196320Y2784958D03*
G54D39*
G01X9526876Y2669787D03*
G01X9526876Y2829787D03*
G54D62*
G01X9522962Y1837258D03*
G01X9692962Y1837258D03*
G54D20*
G01X9190995Y1833880D03*
G01X9350995Y1833880D03*
G54D15*
G01X9535160Y2271878D03*
G01X9535160Y2411882D03*
G01X12250200Y3061136D03*
G01X12250200Y3201141D03*
G54D39*
G01X11074400Y1525275D03*
G01X11074400Y1685275D03*
G54D63*
G01X10663600Y2104920D03*
G01X10613600Y2104920D03*
G01X10563600Y2104920D03*
G01X10513600Y2104920D03*
G01X10463600Y2104920D03*
G01X10413600Y2104920D03*
G01X10363600Y2104920D03*
G01X10313600Y2104920D03*
G01X10263600Y2104920D03*
G01X10213600Y2104920D03*
G01X10163600Y2104920D03*
G01X10113600Y2104920D03*
G54D64*
G01X9958600Y2259920D03*
G01X9958600Y2309920D03*
G01X9958600Y2359920D03*
G01X9958600Y2409920D03*
G01X9958600Y2459920D03*
G01X9958600Y2509920D03*
G01X9958600Y2559920D03*
G01X9958600Y2609920D03*
G01X9958600Y2659920D03*
G01X9958600Y2709920D03*
G01X9958600Y2759920D03*
G01X9958600Y2809920D03*
G54D63*
G01X10113600Y2964920D03*
G01X10163600Y2964920D03*
G01X10213600Y2964920D03*
G01X10263600Y2964920D03*
G01X10313600Y2964920D03*
G01X10363600Y2964920D03*
G01X10413600Y2964920D03*
G01X10463600Y2964920D03*
G01X10513600Y2964920D03*
G01X10563600Y2964920D03*
G01X10613600Y2964920D03*
G01X10663600Y2964920D03*
G54D64*
G01X10818600Y2809920D03*
G01X10818600Y2759920D03*
G01X10818600Y2709920D03*
G01X10818600Y2659920D03*
G01X10818600Y2609920D03*
G01X10818600Y2559920D03*
G01X10818600Y2509920D03*
G01X10818600Y2459920D03*
G01X10818600Y2409920D03*
G01X10818600Y2359920D03*
G01X10818600Y2309920D03*
G01X10818600Y2259920D03*
G54D14*
G01X10866120Y1665122D03*
G01X10866120Y1525118D03*
G54D15*
G01X11252200Y1525118D03*
G01X11252200Y1665122D03*
G54D16*
G01X10678160Y1690365D03*
G01X10678160Y1530365D03*
G54D14*
G01X12234960Y2362941D03*
G01X12234960Y2222936D03*
G54D15*
G01X11562080Y2769718D03*
G01X11562080Y2909722D03*
G54D39*
G01X11379200Y2764795D03*
G01X11379200Y2924795D03*
G54D35*
G01X13989045Y721360D03*
G01X13829045Y721360D03*
G54D65*
G01X11469370Y838200D03*
G01X11624310Y838200D03*
G54D35*
G01X11626845Y1021080D03*
G01X11466845Y1021080D03*
G54D16*
G01X11816080Y1024885D03*
G01X11816080Y864885D03*
G54D20*
G01X9866380Y1026190D03*
G01X10026379Y1026190D03*
G54D39*
G01X9677400Y869955D03*
G01X9677400Y1029955D03*
G54D57*
G01X10019030Y843280D03*
G01X9864090Y843280D03*
G54D65*
G01X10859770Y838200D03*
G01X11014710Y838200D03*
G54D35*
G01X11017245Y1021080D03*
G01X10857245Y1021080D03*
G54D16*
G01X11201400Y1024885D03*
G01X11201400Y864885D03*
G54D65*
G01X10234930Y848360D03*
G01X10389870Y848360D03*
G54D16*
G01X10581640Y1019805D03*
G01X10581640Y859805D03*
G54D35*
G01X10392405Y1031240D03*
G01X10232405Y1031240D03*
G54D36*
G01X9126220Y3634359D03*
G01X9253220Y3634359D03*
G01X9380220Y3634359D03*
G01X9507220Y3634359D03*
G01X9126220Y4188841D03*
G01X9253220Y4188841D03*
G01X9380220Y4188841D03*
G01X9507220Y4188841D03*
G54D37*
G01X8769198Y3627120D03*
G01X8909202Y3627120D03*
G54D14*
G01X8944762Y4221480D03*
G01X8944762Y4081475D03*
G54D66*
G01X13998956Y369240D03*
G01X13808964Y369240D03*
G01X13903960Y169240D03*
G54D20*
G01X13834115Y533400D03*
G01X13994115Y533400D03*
G54D67*
G01X6984949Y2265680D03*
G01X6984949Y2011680D03*
G01X6344971Y2011680D03*
G01X6344971Y2265680D03*
G01X6990029Y1711960D03*
G01X6990029Y1457960D03*
G01X6350051Y1457960D03*
G01X6350051Y1711960D03*
G01X6995109Y1153160D03*
G01X6995109Y899160D03*
G01X6355131Y899160D03*
G01X6355131Y1153160D03*
G54D68*
G01X1325880Y1440332D03*
G01X1325880Y1912468D03*
G54D69*
G01X3063240Y5161331D03*
G01X2809240Y5161331D03*
G01X2809240Y5801309D03*
G01X3063240Y5801309D03*
G54D70*
G01X6202680Y2005394D03*
G54D71*
G01X6202680Y1855407D03*
G54D70*
G01X6207760Y1456754D03*
G54D71*
G01X6207760Y1306767D03*
G54D70*
G01X6212840Y903034D03*
G54D71*
G01X6212840Y753047D03*
G54D72*
G01X4170680Y2488844D03*
G01X4170680Y1808836D03*
G54D31*
G01X6278281Y7447280D03*
G01X6838279Y7447280D03*
G54D69*
G01X8338188Y3569474D03*
G01X8084188Y3569474D03*
G01X8084188Y4209452D03*
G01X8338188Y4209452D03*
G54D35*
G01X8703357Y4268030D03*
G01X8543358Y4268030D03*
G01X8525473Y3354309D03*
G01X8365473Y3354309D03*
G04 Pad End*

M02*

