G04 Layer: CustomLayer2*
G04 EasyEDA Pro v2.2.32.3, 2026-01-21 13:37:31*
G04 Gerber Generator version 0.3*
G04 Scale: 100 percent, Rotated: No, Reflected: No*
G04 Dimensions in millimeters*
G04 Leading zeros omitted, absolute positions, 3 integers and 5 decimals*
%FSLAX35Y35*%
%MOMM*%
%ADD10C,0.0127*%
%ADD11C,0.15*%
G75*


G04 PolygonModel Start*
G54D10*
G01X13931805Y6444142D02*
G01X13936885Y6439062D01*
G01X13971002Y5606660D02*
G01X13976082Y5601580D01*
G01X14480510Y5281926D02*
G01X14485590Y5287006D01*
G01X14713865Y7341792D02*
G01X14708785Y7336712D01*
G01X14161502Y5606660D02*
G01X14166582Y5601580D01*
G01X2898140Y3265338D02*
G01X2903220Y3270418D01*
G01X4311338Y5654818D02*
G01X4316418Y5649738D01*
G54D11*
G01X5176520Y4442560D02*
G01X5176520Y4342560D01*
G01X5226520Y4392560D02*
G01X5126520Y4392560D01*
G01X5226520Y3532560D02*
G01X5126520Y3532560D01*
G54D10*
G01X7277130Y1733554D02*
G01X7272050Y1728474D01*
G01X6027390Y1675126D02*
G01X6032470Y1680206D01*
G01X7272050Y1189994D02*
G01X7266970Y1184914D01*
G01X6032470Y1096006D02*
G01X6037550Y1101086D01*
G01X8299830Y6444124D02*
G01X8304910Y6439044D01*
G01X7151366Y6652290D02*
G01X7156446Y6647210D01*
G01X8391302Y5604159D02*
G01X8396382Y5599079D01*
G01X8907750Y5256526D02*
G01X8912830Y5261606D01*
G01X8640336Y7354129D02*
G01X8645416Y7349049D01*
G01X9707829Y6444124D02*
G01X9712909Y6439044D01*
G01X7344406Y6647210D02*
G01X7349486Y6642130D01*
G01X9801302Y5604159D02*
G01X9806382Y5599079D01*
G01X10319990Y5271766D02*
G01X10325070Y5276846D01*
G01X10048335Y7354129D02*
G01X10053415Y7349049D01*
G01X11115829Y6444124D02*
G01X11120909Y6439044D01*
G01X7532366Y6647210D02*
G01X7537446Y6642130D01*
G01X11201302Y5604159D02*
G01X11206382Y5599079D01*
G01X11722070Y5271766D02*
G01X11727150Y5276846D01*
G01X11456335Y7354129D02*
G01X11461415Y7349049D01*
G01X12523829Y6444124D02*
G01X12528909Y6439044D01*
G01X7289786Y5370870D02*
G01X7294866Y5365790D01*
G01X12611302Y5604159D02*
G01X12616382Y5599079D01*
G01X13119070Y5287006D02*
G01X13124150Y5292086D01*
G01X12854335Y7354129D02*
G01X12859415Y7349049D01*
G01X3460754Y7861270D02*
G01X3455674Y7866350D01*
G01X3377782Y7539593D02*
G01X3382862Y7534513D01*
G01X3386713Y7509474D02*
G01X3391793Y7504394D01*
G01X1490979Y7357185D02*
G01X1496059Y7362265D01*
G01X5248914Y6789390D02*
G01X5243834Y6794470D01*
G01X4415794Y6438870D02*
G01X4410714Y6443950D01*
G54D11*
G01X4114800Y5890160D02*
G01X4114800Y5990160D01*
G01X4064800Y5940160D02*
G01X4164800Y5940160D01*
G01X4064800Y6800160D02*
G01X4164800Y6800160D01*
G54D10*
G01X2197227Y7870547D02*
G01X2192147Y7875627D01*
G01X2099896Y7420952D02*
G01X2104976Y7415872D01*
G01X2108826Y7390833D02*
G01X2113906Y7385753D01*
G01X5366990Y7222486D02*
G01X5372070Y7227566D01*
G54D11*
G01X13929360Y3203040D02*
G01X13929360Y3103040D01*
G01X13979360Y3153040D02*
G01X13879360Y3153040D01*
G01X13979360Y2293040D02*
G01X13879360Y2293040D01*
G54D10*
G01X13361674Y3395950D02*
G01X13356594Y3401030D01*
G01X13361674Y3731230D02*
G01X13356594Y3736310D01*
G01X14121982Y2718673D02*
G01X14127062Y2713593D01*
G01X14130913Y2688554D02*
G01X14135993Y2683474D01*
G01X14392914Y2694910D02*
G01X14387834Y2699990D01*
G01X9629170Y3262634D02*
G01X9624090Y3257554D01*
G01X6822022Y2906633D02*
G01X6827102Y2901553D01*
G01X6830953Y2876514D02*
G01X6836033Y2871434D01*
G01X7019286Y2888010D02*
G01X7024366Y2882930D01*
G01X8583926Y5605810D02*
G01X8589006Y5600730D01*
G01X10011302Y5604159D02*
G01X10016382Y5599079D01*
G01X11401302Y5604159D02*
G01X11406382Y5599079D01*
G01X12811302Y5604159D02*
G01X12816382Y5599079D01*
G01X4608834Y6438870D02*
G01X4603754Y6443950D01*
G01X5301010Y6564634D02*
G01X5295930Y6559554D01*
G01X2816859Y7311465D02*
G01X2821939Y7316545D01*
G54D11*
G01X622200Y6400800D02*
G01X722200Y6400800D01*
G01X672200Y6450800D02*
G01X672200Y6350800D01*
G01X1532200Y6450800D02*
G01X1532200Y6350800D01*
G54D10*
G01X4984754Y6438870D02*
G01X4979674Y6443950D01*
G01X4796794Y6438870D02*
G01X4791714Y6443950D01*
G01X5768340Y7748102D02*
G01X5763260Y7743022D01*
G01X13366754Y4071590D02*
G01X13361674Y4076670D01*
G01X2679700Y1146978D02*
G01X2684780Y1152058D01*
G01X4427220Y3118018D02*
G01X4432300Y3123098D01*
G54D11*
G01X5186680Y2110840D02*
G01X5186680Y2010840D01*
G01X5236680Y2060840D02*
G01X5136680Y2060840D01*
G01X5236680Y1200840D02*
G01X5136680Y1200840D01*
G54D10*
G01X7272050Y2297434D02*
G01X7266970Y2292354D01*
G01X6017230Y2223766D02*
G01X6022310Y2228846D01*
G01X8206710Y1614166D02*
G01X8211790Y1619246D01*
G01X7882886Y1755170D02*
G01X7887966Y1750090D01*
G01X8206710Y2172966D02*
G01X8211790Y2178046D01*
G01X7971794Y2120870D02*
G01X7966714Y2125950D01*
G01X13078430Y1009646D02*
G01X13083510Y1014726D01*
G01X12183114Y942310D02*
G01X12178034Y947390D01*
G01X12255530Y1250954D02*
G01X12250450Y1245874D01*
G01X13083570Y900434D02*
G01X13078490Y895354D01*
G01X11910090Y1646012D02*
G01X11905010Y1640932D01*
G01X11910090Y1458052D02*
G01X11905010Y1452972D01*
G01X11904950Y1751326D02*
G01X11910030Y1756406D01*
G01X11904950Y1939286D02*
G01X11910030Y1944366D01*
G01X9568790Y2747222D02*
G01X9563710Y2752302D01*
G01X9590167Y1787742D02*
G01X9595247Y1792822D01*
G01X9620286Y1796673D02*
G01X9625366Y1801753D01*
G01X9268430Y1791966D02*
G01X9273510Y1797046D01*
G01X11116314Y1602710D02*
G01X11111234Y1607790D01*
G01X10636246Y1612930D02*
G01X10641326Y1607850D01*
G01X11421114Y2842230D02*
G01X11416034Y2847310D01*
G01X13911610Y763274D02*
G01X13906530Y758194D01*
G01X11549410Y1062994D02*
G01X11544330Y1057914D01*
G01X11774166Y947450D02*
G01X11779246Y942370D01*
G01X9943814Y984277D02*
G01X9948894Y989357D01*
G01X9719314Y947390D02*
G01X9714234Y952470D01*
G01X10939810Y1062994D02*
G01X10934730Y1057914D01*
G01X11159486Y947450D02*
G01X11164566Y942370D01*
G01X10539726Y942370D02*
G01X10544806Y937290D01*
G01X10314970Y1073154D02*
G01X10309890Y1068074D01*
G01X13911550Y491486D02*
G01X13916630Y496566D01*
G01X6555740Y7375058D02*
G01X6560820Y7380138D01*
G01X8625923Y4309944D02*
G01X8620843Y4304864D01*
G01X8448038Y3396223D02*
G01X8442958Y3391143D01*

M02*

