G04 Layer: CustomLayer1*
G04 EasyEDA Pro v2.2.32.3, 2026-01-21 13:37:31*
G04 Gerber Generator version 0.3*
G04 Scale: 100 percent, Rotated: No, Reflected: No*
G04 Dimensions in millimeters*
G04 Leading zeros omitted, absolute positions, 3 integers and 5 decimals*
%FSLAX35Y35*%
%MOMM*%
%ADD10C,0.15*%
G75*


G04 PolygonModel Start*
G54D10*
G01X5046520Y4188560D02*
G01X5046520Y3756560D01*
G01X5306520Y4188560D02*
G01X5306520Y3756560D01*
G01X5306520Y4188560D02*
G01X5046520Y4188560D01*
G01X5306520Y3756560D02*
G01X5046520Y3756560D01*
G01X4244800Y6144160D02*
G01X4244800Y6576160D01*
G01X3984800Y6144160D02*
G01X3984800Y6576160D01*
G01X3984800Y6144160D02*
G01X4244800Y6144160D01*
G01X3984800Y6576160D02*
G01X4244800Y6576160D01*
G01X13799360Y2949040D02*
G01X13799360Y2517040D01*
G01X14059360Y2949040D02*
G01X14059360Y2517040D01*
G01X14059360Y2949040D02*
G01X13799360Y2949040D01*
G01X14059360Y2517040D02*
G01X13799360Y2517040D01*
G01X5685960Y6550600D02*
G01X5685960Y6860600D01*
G01X5865960Y6550600D02*
G01X5865960Y6860600D01*
G01X5685960Y6860600D02*
G01X5865960Y6860600D01*
G01X5685960Y6550600D02*
G01X5865960Y6550600D01*
G01X5685960Y6997640D02*
G01X5685960Y7307640D01*
G01X5865960Y6997640D02*
G01X5865960Y7307640D01*
G01X5685960Y7307640D02*
G01X5865960Y7307640D01*
G01X5685960Y6997640D02*
G01X5865960Y6997640D01*
G01X876200Y6270800D02*
G01X1308200Y6270800D01*
G01X876200Y6530800D02*
G01X1308200Y6530800D01*
G01X876200Y6530800D02*
G01X876200Y6270800D01*
G01X1308200Y6530800D02*
G01X1308200Y6270800D01*
G01X5056680Y1856840D02*
G01X5056680Y1424840D01*
G01X5316680Y1856840D02*
G01X5316680Y1424840D01*
G01X5316680Y1856840D02*
G01X5056680Y1856840D01*
G01X5316680Y1424840D02*
G01X5056680Y1424840D01*

M02*

