;TYPE=PLATED
;Layer: PTH_Through
;EasyEDA Pro Client v2.2.32.3, 2025-12-15 17:31:23
;Gerber Generator version 0.3
M48
METRIC,LZ,000.00000
;Hole size 1 = 0.30000 METRIC
T01C0.30000
;Hole size 2 = 0.80000 METRIC
T02C0.80000
;Hole size 3 = 0.90000 METRIC
T03C0.90000
;Hole size 4 = 1.00000 METRIC
T04C1.00000
;Hole size 5 = 1.10002 METRIC
T05C1.10002
;Hole size 6 = 1.52400 METRIC
T06C1.52400
;Hole size 7 = 1.80000 METRIC
T07C1.80000
;Hole size 8 = 2.50002 METRIC
T08C2.50002
;Hole size 9 = 3.25003 METRIC
T09C3.25003
%
G05
G90
T01
X78.99227Y18.76117
X97.0975Y30.13432
X96.28149Y31.00133
X123.26084Y41.81347
X99.95354Y17.38415
X130.40093Y42.68048
X105.81861Y16.61914
X113.11171Y32.63335
X102.91157Y18.65917
X120.0478Y42.73148
X118.61978Y39.67144
X123.41384Y39.05943
X124.62992Y39.16144
X120.2008Y47.98455
X118.00777Y44.2105
X121.47581Y43.39449
X118.10977Y42.78248
X112.1172Y32.55685
X105.25761Y25.74826
X109.23566Y21.1582
X114.74373Y18.76117
X100.87155Y24.21824
X100.05554Y28.6043
X100.15754Y29.57331
X108.16464Y30.03232
X109.74566Y32.63335
X118.10977Y31.91934
X95.92448Y32.63335
X128.71791Y38.70243
X123.71984Y29.11431
X116.70286Y42.93548
X120.4048Y20.7502
X101.48356Y30.28732
X99.29053Y32.48035
X116.51928Y14.37511
X116.51928Y11.31508
X109.23566Y22.43322
X108.47065Y18.81217
X99.08653Y21.3112
X110.91868Y36.7644
X110.25567Y48.99842
X116.93676Y49.25957
X123.87285Y65.63078
X124.28085Y67.1608
X108.98065Y79.85996
X113.16271Y80.11497
X125.40287Y67.6198
X126.32088Y67.97681
X117.54876Y81.44098
X103.77859Y45.33252
X102.45257Y42.01747
X108.11364Y64.10076
X108.57265Y62.62174
X105.30861Y62.80437
X105.30861Y55.73665
X108.67465Y58.54169
X105.35961Y64.71277
X103.77859Y64.71277
X105.35961Y66.05455
X99.36703Y41.78797
X81.8483Y16.51714
X84.44934Y18.55717
X58.94901Y35.69339
X83.07232Y53.08462
X83.12332Y50.27958
X87.15237Y30.69533
X86.33636Y31.40934
X81.7973Y52.98261
X82.0523Y49.61657
X73.9432Y69.65983
X82.93448Y77.81994
X82.0013Y77.10593
X124.43385Y50.53458
X122.49583Y35.94839
X114.74373Y25.69726
X110.25567Y25.44226
X120.4558Y39.46744
X126.77988Y40.58945
X128.46291Y39.67144
X113.97872Y61.49972
X103.98259Y21.56621
X105.76761Y21.2602
X120.6088Y29.98132
X116.73275Y26.25827
X113.21371Y22.38222
X104.18659Y25.23826
X101.84056Y21.82121
X96.9445Y20.03619
X89.0904Y20.18919
X117.20955Y59.53646
X117.87256Y60.76047
X118.16156Y59.53646
X118.82457Y60.76047
X119.11357Y59.53646
X119.77658Y60.76047
X120.06558Y59.53646
X120.72859Y60.76047
X117.00554Y57.19043
X117.66855Y58.41444
X117.95756Y57.19043
X118.62057Y58.41444
X118.90957Y57.19043
X119.57258Y58.41444
X119.86158Y57.19043
X120.52459Y58.41444
X117.15855Y54.7934
X117.82156Y56.01741
X118.11056Y54.7934
X118.77357Y56.01741
X119.06257Y54.7934
X119.72558Y56.01741
X120.01458Y54.7934
X120.67759Y56.01741
X117.56655Y52.14136
X118.22956Y53.36538
X118.51856Y52.14136
X119.18157Y53.36538
X119.47058Y52.14136
X120.13358Y53.36538
X120.42259Y52.14136
X121.0856Y53.36538
X122.10561Y56.93542
X122.76862Y58.15944
X123.05762Y56.93542
X123.72063Y58.15944
X124.00964Y56.93542
X124.67264Y58.15944
X124.96165Y56.93542
X125.62466Y58.15944
X123.07462Y54.74239
X123.73763Y55.96641
X124.02664Y54.74239
X124.68964Y55.96641
X124.97865Y54.74239
X125.64166Y55.96641
X125.93066Y54.74239
X126.59367Y55.96641
X128.8377Y51.07035
X129.50071Y52.29436
X129.78971Y51.07035
X130.45272Y52.29436
X130.74172Y51.07035
X131.40473Y52.29436
X131.69373Y51.07035
X132.35674Y52.29436
X127.25668Y48.46931
X127.91969Y49.69333
X128.20869Y48.46931
X128.8717Y49.69333
X129.1607Y48.46931
X129.82371Y49.69333
X130.11271Y48.46931
X130.77572Y49.69333
X84.50112Y40.20721
X75.236Y35.51515
X75.74601Y34.75014
X76.18802Y35.51515
X76.69802Y34.75014
X77.14003Y35.51515
X77.65004Y34.75014
X78.09204Y35.51515
X78.60205Y34.75014
X68.04491Y34.29113
X71.51296Y34.95414
X68.63992Y34.90314
X69.30293Y36.12715
X69.59193Y34.90314
X70.25494Y36.12715
X70.54394Y34.90314
X71.20695Y36.12715
X51.6737Y10.57582
X52.62571Y10.57582
X53.57772Y10.57582
X54.52974Y10.57582
X65.34188Y1.3957
X66.00488Y2.61972
X66.29389Y1.3957
X66.9569Y2.61972
X67.2459Y1.3957
X67.90891Y2.61972
X68.19791Y1.3957
X68.86092Y2.61972
X60.54781Y1.3447
X66.8209Y7.36278
X61.49983Y1.3447
X70.27194Y7.15878
X62.45184Y1.3447
X68.36792Y7.51578
X63.40385Y1.3447
X70.13594Y5.11875
X44.3806Y8.33179
X45.04361Y9.55581
X45.33262Y8.33179
X45.99563Y9.55581
X46.28463Y8.33179
X46.94764Y9.55581
X47.23664Y8.33179
X47.89965Y9.55581
X107.00867Y35.83139
X101.22855Y32.37835
X103.52358Y32.48035
X108.59877Y32.55747
X108.11364Y38.03942
X104.28859Y36.86641
X114.02972Y30.08332
X109.74566Y23.60623
X110.35767Y24.11624
X110.86768Y26.56427
X110.76568Y28.09429
X68.97038Y40.14824
X85.29059Y41.01525
X68.97038Y41.10025
X69.58239Y40.53924
X68.97038Y42.05226
X69.58239Y41.49125
X68.97038Y43.00427
X69.58239Y42.44327
X84.62758Y35.71118
X83.40356Y36.37419
X84.62758Y36.66319
X85.29059Y38.14221
X84.62758Y37.6152
X83.55657Y35.47318
X84.62758Y38.56722
X85.23959Y39.58723
X91.52064Y38.16666
X90.56863Y38.16666
X89.61662Y38.16666
X88.6646Y38.16666
X99.47674Y47.14278
X98.50773Y48.8258
X104.84881Y50.55983
X99.39174Y49.69281
X98.03172Y49.99882
X100.63276Y48.2648
X102.38378Y50.35582
X99.68075Y48.2648
X103.85483Y60.6505
X111.45393Y58.81448
X103.85483Y61.60251
X102.63081Y62.26552
X103.85483Y62.55453
X102.63081Y63.21753
X103.85483Y63.50654
X102.63081Y64.16955
X103.70423Y54.92606
X102.48022Y55.58907
X103.70423Y55.87808
X102.48022Y56.54109
X103.70423Y56.83009
X102.48022Y57.4931
X103.70423Y57.7821
X102.48022Y58.44511
X107.58742Y79.32471
X109.11744Y87.12781
X119.87858Y82.58876
X119.98058Y83.45577
X118.39956Y83.65977
X111.97378Y80.25107
X107.57192Y80.13027
X85.40214Y71.36861
X64.53527Y29.82
X65.17221Y29.82
X65.80916Y29.82
X66.4461Y29.82
X64.53527Y29.19967
X65.17221Y29.19967
X65.80916Y29.19967
X66.4461Y29.19967
X64.53527Y28.57935
X65.17221Y28.57935
X65.80916Y28.57935
X66.4461Y28.57935
X64.53527Y27.95902
X65.17221Y27.95902
X65.80916Y27.95902
X66.4461Y27.95902
X64.53527Y27.3387
X65.17221Y27.3387
X65.80916Y27.3387
X66.4461Y27.3387
X61.51683Y31.18009
X62.46884Y31.18009
X63.42085Y31.18009
X62.33284Y32.2511
X65.88588Y31.38409
X64.74687Y31.43509
X62.28184Y34.64813
X63.38685Y35.46415
X69.03092Y33.98513
X61.42228Y28.21408
X61.42228Y29.16609
X61.42228Y30.11811
X61.32028Y25.40904
X61.32028Y26.36106
X61.32028Y27.31307
X62.15364Y25.67962
X63.10565Y25.67962
X64.05766Y25.67962
X60.85382Y24.091
X61.80583Y24.091
X62.75784Y24.091
X63.61457Y24.7098
X64.56658Y24.7098
X65.51859Y24.7098
X61.97583Y22.96898
X62.92784Y22.96898
X63.87986Y22.96898
X61.56783Y21.89797
X62.51984Y21.89797
X63.47185Y21.89797
X62.03171Y21.13129
X62.98372Y21.13129
X63.93574Y21.13129
X61.41661Y20.22067
X62.36863Y20.22067
X63.32064Y20.22067
X61.72083Y17.76692
X62.67284Y17.76692
X63.62485Y17.76692
X61.70462Y16.97666
X62.65663Y16.97666
X63.60864Y16.97666
X61.6884Y16.10774
X62.64042Y16.10774
X63.59243Y16.10774
X56.55119Y75.60115
X56.55119Y72.14448
X56.55119Y73.2967
X56.55119Y74.44893
X37.27294Y85.52745
X62.67127Y67.90201
X38.39495Y86.13004
X38.39495Y84.97782
X56.44919Y77.96993
X56.44919Y76.81771
X14.90968Y96.76171
X11.45301Y96.76171
X12.60523Y96.76171
X13.75746Y96.76171
X10.30079Y96.76171
X29.03882Y96.20071
X27.8866Y96.20071
X26.73438Y96.20071
X13.90458Y95.21376
X10.44791Y95.21376
X11.60013Y95.21376
X12.75236Y95.21376
X29.18595Y94.65275
X28.03372Y94.65275
X26.8815Y94.65275
X25.72928Y94.65275
X12.81865Y93.83493
X29.25224Y93.27392
X10.51421Y93.83493
X11.66643Y93.83493
X28.10002Y93.27392
X26.94779Y93.27392
X25.79557Y93.27392
X24.64335Y93.27392
X43.62305Y88.02086
X40.16638Y88.02086
X43.25663Y86.03183
X42.47083Y88.02086
X39.01416Y88.02086
X36.99492Y88.02086
X42.88079Y87.00084
X35.45549Y88.42886
X80.13952Y96.79297
X76.68285Y96.79297
X77.83508Y96.79297
X78.9873Y96.79297
X75.53063Y96.79297
X74.37841Y96.79297
X73.22619Y96.79297
X72.07396Y96.79297
X112.01493Y94.44694
X86.98499Y96.79297
X109.71049Y94.44694
X110.86271Y94.44694
X85.83276Y96.79297
X84.68054Y96.79297
X83.52832Y96.79297
X82.3761Y96.79297
X98.85676Y95.67095
X95.4001Y95.67095
X96.55232Y95.67095
X97.70454Y95.67095
X94.24787Y95.67095
X93.09565Y95.67095
X91.94343Y95.67095
X90.79121Y95.67095
X91.20667Y82.20678
X93.56407Y86.49084
X94.7163Y86.49084
X92.14547Y82.66579
X92.41185Y86.49084
X91.25963Y86.49084
X90.1074Y86.49084
X88.95518Y86.49084
X91.92067Y81.39077
X92.95206Y85.36882
X94.10429Y85.36882
X95.25651Y85.36882
X91.79984Y85.36882
X90.64762Y85.36882
X89.4954Y85.36882
X88.34317Y85.36882
X91.97168Y80.06475
X92.85006Y84.29781
X94.00229Y84.29781
X95.15451Y84.29781
X91.69784Y84.29781
X90.54562Y84.29781
X89.3934Y84.29781
X88.24117Y84.29781
X108.64889Y98.833
X105.19222Y98.833
X106.34445Y98.833
X107.49667Y98.833
X104.04Y98.833
X102.88778Y98.833
X101.73555Y98.833
X100.58333Y98.833
X122.31707Y98.78199
X118.8604Y98.78199
X120.01262Y98.78199
X121.16485Y98.78199
X117.70818Y98.78199
X116.55595Y98.78199
X115.40373Y98.78199
X114.25151Y98.78199
X132.20027Y87.84149
X129.81462Y88.7595
X130.96684Y88.7595
X131.30305Y79.37538
X128.66239Y88.7595
X127.51017Y88.7595
X126.35795Y88.7595
X117.96363Y94.72657
X132.52551Y78.30436
X129.06884Y78.30436
X130.22106Y78.30436
X131.37329Y78.30436
X127.91662Y78.30436
X126.76439Y78.30436
X130.71224Y76.92734
X129.66202Y79.52838
X133.18021Y30.69611
X129.72354Y30.69611
X126.1837Y29.16609
X125.1429Y29.11509
X128.57132Y30.69611
X127.41909Y30.69611
X128.2049Y29.6251
X126.95067Y29.8291
X125.49049Y23.86202
X124.49126Y22.38301
X111.65989Y11.41786
X112.6497Y11.51987
X114.09851Y11.62187
X115.95336Y24.88204
X116.28016Y23.81102
X126.65409Y21.618
X125.50186Y21.618
X124.34964Y21.618
X133.28221Y20.44498
X129.46854Y11.77487
X130.97776Y20.44498
X132.12999Y20.44498
X116.84117Y22.281
X115.68894Y22.281
X126.36887Y20.44498
X127.00167Y19.62897
X127.37751Y10.14285
X126.59171Y9.73484
X132.44737Y10.29585
X131.29515Y10.29585
X130.14292Y10.29585
X128.9907Y10.29585
X123.49008Y8.30682
X122.33786Y8.30682
X124.64427Y9.22484
X124.29923Y10.39544
X125.51128Y10.85686
X100.22633Y10.88183
X100.88934Y12.10584
X101.17834Y10.88183
X101.84135Y12.10584
X102.13035Y10.88183
X102.79336Y12.10584
X103.08236Y10.88183
X103.74537Y12.10584
X99.66532Y8.22979
X100.32833Y9.45381
X100.61733Y8.22979
X101.28034Y9.45381
X101.56934Y8.22979
X102.23235Y9.45381
X102.52136Y8.22979
X103.18437Y9.45381
X107.26442Y10.77983
X107.92743Y12.00384
X108.21643Y10.77983
X108.87944Y12.00384
X109.16844Y10.77983
X109.83145Y12.00384
X110.12046Y10.77983
X110.78346Y12.00384
X106.70341Y8.12779
X107.36642Y9.35181
X107.65542Y8.12779
X108.31843Y9.35181
X108.60744Y8.12779
X109.27044Y9.35181
X109.55945Y8.12779
X110.22246Y9.35181
X103.89837Y4.91475
X104.56138Y6.13877
X104.85039Y4.91475
X105.5134Y6.13877
X105.8024Y4.91475
X106.46541Y6.13877
X106.75441Y4.91475
X107.41742Y6.13877
X103.33737Y2.26272
X104.00038Y3.48673
X104.28938Y2.26272
X104.95239Y3.48673
X105.24139Y2.26272
X105.9044Y3.48673
X106.1934Y2.26272
X106.85641Y3.48673
X110.98747Y8.6888
X111.65048Y9.91281
X111.93948Y8.6888
X112.60249Y9.91281
X112.89149Y8.6888
X113.5545Y9.91281
X113.8435Y8.6888
X114.50651Y9.91281
X110.42646Y6.03676
X111.08947Y7.26078
X111.37847Y6.03676
X112.04148Y7.26078
X112.33048Y6.03676
X112.99349Y7.26078
X113.2825Y6.03676
X113.9455Y7.26078
X70.78536Y19.33435
X71.44837Y20.55837
X71.73737Y19.33435
X72.40038Y20.55837
X72.68939Y19.33435
X73.3524Y20.55837
X73.6414Y19.33435
X74.30441Y20.55837
X70.22436Y16.68232
X70.88736Y17.90633
X71.17637Y16.68232
X71.83938Y17.90633
X72.12838Y16.68232
X72.79139Y17.90633
X76.54844Y15.86631
X77.56845Y17.19233
X70.39094Y10.42282
X73.43398Y13.17686
X74.09699Y14.40087
X74.38599Y13.17686
X75.049Y14.40087
X75.33801Y13.17686
X76.00101Y14.40087
X71.92096Y10.52482
X72.58397Y11.74884
X72.87297Y10.52482
X73.53598Y11.74884
X73.82499Y10.52482
X74.48799Y11.74884
X74.777Y10.52482
X75.44001Y11.74884
X54.32974Y4.61349
X55.28176Y4.61349
X56.23377Y4.61349
X52.85072Y1.14544
X53.80274Y1.14544
X54.75475Y1.14544
X56.52277Y0.94144
X57.47478Y0.94144
X58.4268Y0.94144
X55.52525Y1.81698
X55.52525Y2.76899
X55.52525Y3.721
X59.63252Y1.59575
X59.63252Y2.54776
X59.63252Y3.49977
X58.20579Y12.26358
X59.15781Y12.26358
X60.10982Y12.26358
X50.9127Y9.71355
X51.86471Y9.71355
X52.81672Y9.71355
X81.9551Y86.26554
X75.32605Y81.16548
X74.458Y80.70647
X75.41002Y80.09446
X84.86214Y70.86334
X83.87613Y73.51538
X84.52954Y76.61642
X84.85254Y71.87336
X85.48155Y70.44534
X67.84492Y68.10931
X72.11197Y68.51731
X72.34998Y67.8033
X68.37193Y69.07832
X73.19999Y67.8033
X74.61101Y67.8033
X68.88193Y68.10931
X25.31037Y97.74069
X26.26238Y97.74069
X27.21439Y97.74069
X18.22128Y94.62965
X19.17329Y94.62965
X20.1253Y94.62965
X74.067Y97.89369
X76.85504Y97.99569
X72.85998Y97.89369
X31.22932Y85.9439
X32.86134Y85.7909
X24.65024Y60.13756
X24.03823Y59.42355
X92.49161Y69.71004
X94.79606Y69.71004
X95.94828Y69.71004
X97.1005Y69.71004
X98.25273Y69.71004
X93.64384Y69.71004
X90.18717Y69.71004
X91.33939Y69.71004
X90.96853Y78.59267
X90.96853Y76.28823
X90.96853Y75.136
X93.11056Y74.08578
X90.96853Y72.83156
X90.96853Y77.44045
X90.96853Y80.89712
X90.96853Y79.7449
X92.49161Y93.88436
X94.79606Y93.88436
X95.94828Y93.88436
X97.1005Y93.88436
X98.25273Y93.88436
X93.64384Y93.88436
X90.18717Y93.88436
X91.33939Y93.88436
X79.41548Y86.18734
X74.32679Y81.75028
X76.80503Y85.26933
X133.15418Y84.87385
X133.15418Y82.56941
X133.15418Y81.41719
X133.15418Y80.26496
X133.15418Y79.11274
X133.15418Y83.72163
X133.15418Y87.1783
X133.15418Y86.02608
X133.20518Y74.67372
X133.20518Y72.36928
X133.20518Y71.21705
X133.20518Y70.06483
X133.20518Y68.91261
X133.20518Y73.5215
X132.28717Y76.97817
X133.20518Y75.82594
X78.27904Y26.02902
X79.23106Y26.02902
X80.18307Y26.02902
X78.03555Y27.31386
X78.98757Y27.31386
X79.93958Y27.31386
X78.17704Y28.42605
X79.12905Y28.42605
X80.08107Y28.42605
X82.50456Y27.14382
X82.48756Y29.43885
X83.43957Y29.43885
X81.64509Y26.59003
X83.20911Y28.32405
X84.16112Y28.32405
X79.04405Y25.26401
X79.99607Y25.26401
X80.94808Y25.26401
X86.74515Y25.97802
X87.54416Y26.59003
X86.79615Y24.80501
X87.54416Y25.41702
X88.39417Y25.77402
X88.40163Y35.28617
X88.40163Y36.23819
X88.40163Y37.1902
X83.07311Y34.75014
X84.02512Y34.75014
X84.97713Y34.75014
X97.50629Y38.01418
X98.4583Y38.01418
X99.41032Y38.01418
X108.08788Y39.36623
X108.08788Y40.31824
X108.08788Y41.27025
X113.64696Y41.66126
X113.64696Y42.61327
X113.64696Y43.56528
X119.84458Y50.66234
X120.79659Y50.66234
X121.74861Y50.66234
X122.24161Y52.24336
X123.19362Y52.24336
X124.14564Y52.24336
X122.08861Y59.12845
X123.04062Y59.12845
X123.99263Y59.12845
X122.70062Y60.19947
X123.65263Y60.19947
X124.60464Y60.19947
X125.76066Y59.48546
X126.71267Y59.48546
X127.66468Y59.48546
X130.60572Y67.90057
X131.55773Y67.90057
X132.50975Y67.90057
X131.72774Y64.89153
X132.67975Y64.89153
X133.27476Y66.42155
X110.61346Y67.33956
X112.02448Y66.47255
X108.69244Y67.59456
X108.72644Y55.3034
X101.92635Y60.70947
X102.87836Y60.70947
X107.39941Y60.77617
X109.01443Y53.68708
X109.96644Y53.68708
X113.18027Y61.10793
X114.9993Y61.10793
X111.41225Y57.99689
X108.93966Y59.52691
X108.42021Y54.17184
X108.96422Y60.59793
X106.43141Y60.76047
X110.23946Y64.78952
X111.29347Y64.78952
X111.42947Y61.05771
X109.62745Y57.33466
X111.39547Y59.98669
X117.03954Y60.45447
X109.83145Y62.5965
X113.02749Y60.25047
X78.63526Y67.4158
X76.23823Y67.5688
X80.31828Y67.6198
X82.71531Y67.5688
X112.5507Y49.92257
X110.23017Y44.236
X110.20467Y42.88448
X78.16049Y82.15499
X59.89604Y10.54684
X48.42089Y12.38287
X67.29114Y15.54491
X39.1006Y21.48738
X41.59187Y20.96906
X43.12189Y21.78507
X46.69194Y15.97099
X41.64287Y16.889
X35.65009Y21.75851
X46.11463Y21.23496
X18.62527Y22.30598
X47.06664Y21.23496
X19.57728Y22.30598
X48.01865Y21.23496
X45.67262Y22.35698
X20.5293Y22.30598
X48.97066Y21.23496
X21.48131Y22.30598
X50.04247Y21.29258
X47.33864Y18.12392
X48.00165Y19.34794
X48.29066Y18.12392
X48.95366Y19.34794
X49.24267Y18.12392
X46.89664Y19.24594
X49.90568Y19.34794
X50.19468Y18.12392
X50.85769Y19.34794
X51.26648Y18.18154
X38.41353Y79.27371
X39.07654Y80.49773
X39.36554Y79.27371
X40.02855Y80.49773
X40.31755Y79.27371
X37.97152Y80.39573
X40.98056Y80.49773
X41.26956Y79.27371
X41.93257Y80.49773
X42.34137Y79.33133
X38.31153Y82.33375
X38.97453Y83.55777
X39.26354Y82.33375
X39.92655Y83.55777
X40.21555Y82.33375
X37.86952Y83.45577
X40.87856Y83.55777
X41.16756Y82.33375
X41.83057Y83.55777
X42.23936Y82.39137
X50.29668Y30.67008
X50.95969Y31.8941
X51.24869Y30.67008
X51.9117Y31.8941
X52.20071Y30.67008
X49.85468Y31.7921
X52.86371Y31.8941
X53.15272Y30.67008
X53.81573Y31.8941
X54.22452Y30.7277
X53.09287Y35.38182
X52.42986Y34.15781
X52.14086Y35.38182
X51.47785Y34.15781
X51.18885Y35.38182
X53.53487Y34.25981
X50.52584Y34.15781
X50.23683Y35.38182
X49.57383Y34.15781
X49.16503Y35.32421
X67.52191Y69.18032
X66.89291Y68.26231
X66.1789Y69.02732
X33.98048Y85.04153
X34.18448Y86.26554
X34.93249Y85.04153
X35.1365Y86.26554
X35.88451Y85.04153
X36.08851Y86.26554
X102.22659Y48.64434
X90.7062Y87.48482
X93.64724Y87.38282
X91.14821Y83.09876
X90.33299Y83.46238
X79.19627Y51.04137
X55.73596Y42.11947
X123.09391Y84.16944
X122.57555Y82.68923
X122.88155Y83.45424
X123.13655Y85.69827
X124.12916Y85.69163
X68.94514Y72.46487
X57.03129Y86.69286
X57.01019Y86.03745
X58.61231Y86.83825
X65.27309Y91.08011
X59.05101Y84.90903
X95.15336Y78.14801
X57.87799Y38.29442
X59.51001Y35.33639
X59.35701Y36.2034
X58.388Y36.1014
X55.12396Y69.96583
X5.29631Y79.55396
X5.34731Y70.78184
X5.29631Y66.24279
X98.71331Y61.67848
X97.18329Y61.52548
X99.01931Y54.69139
X99.88632Y54.28339
X105.35961Y58.89869
X85.64014Y85.16482
X85.23213Y85.92983
X80.59853Y86.43983
X100.03932Y61.32148
X95.75527Y61.37248
X103.66037Y65.86054
X102.85839Y65.18754
X105.39439Y57.75143
X77.84727Y47.72955
X120.5578Y76.69792
X127.13689Y80.01296
X33.41356Y41.50747
X32.62305Y23.78474
X28.31349Y28.54826
X58.86289Y28.44626
X60.39291Y54.25259
X48.76476Y59.7147
X51.6208Y60.63271
X26.38426Y61.61658
X27.65927Y61.36158
X23.01821Y58.55654
X9.85126Y32.48035
X32.70689Y61.31987
X32.65734Y60.29057
X22.40621Y57.58753
X21.53919Y56.77152
X20.62118Y55.90451
X19.14216Y55.3945
X18.02015Y55.1395
X15.31711Y55.0885
X44.03049Y39.32929
X43.41848Y38.61528
X42.39846Y37.74827
X41.78646Y36.77926
X40.91945Y35.96325
X40.00143Y35.09624
X38.52241Y34.58623
X37.4004Y34.33123
X34.69737Y34.28023
X21.28419Y38.87029
X22.35521Y39.4823
X23.17122Y40.34931
X24.39523Y40.40031
X23.79201Y41.22629
X23.63022Y39.6353
X27.30227Y44.48036
X28.24039Y44.6012
X29.38044Y44.6012
X28.76844Y45.46821
X27.90143Y45.41721
X28.46243Y46.28422
X29.63545Y45.46821
X30.40046Y44.7032
X34.23594Y46.78799
X34.23594Y45.83598
X34.23594Y43.93195
X34.23594Y44.88396
X34.28773Y51.71793
X34.79137Y54.18139
X34.95074Y52.94195
X35.23974Y51.71793
X35.30696Y50.99848
X35.30696Y49.09445
X35.30696Y50.04646
X35.30696Y48.14244
X35.71496Y44.88396
X35.71496Y45.83598
X35.71496Y43.93195
X35.71496Y46.78799
X35.74338Y54.18139
X35.90275Y52.94195
X36.17397Y50.43747
X36.19176Y51.71793
X36.69539Y54.18139
X36.85477Y52.94195
X36.98998Y50.04646
X36.98998Y48.14244
X36.98998Y50.99848
X36.98998Y49.09445
X37.26356Y51.77555
X37.39798Y43.93195
X37.39798Y46.78799
X37.39798Y44.88396
X37.39798Y45.83598
X37.75778Y53.21726
X37.80599Y48.04044
X37.80599Y49.94446
X37.80599Y48.99245
X38.04678Y51.99325
X38.07241Y54.38539
X38.16299Y50.89647
X38.622Y45.76241
X38.622Y44.8104
X38.622Y46.71442
X38.622Y43.85838
X38.70979Y53.21726
X38.9988Y51.99325
X39.02442Y54.38539
X39.28501Y50.89647
X39.28501Y48.99245
X39.28501Y49.94446
X39.28501Y48.04044
X39.66181Y53.21726
X39.95081Y51.99325
X39.97643Y54.38539
X40.10102Y43.85838
X40.10102Y46.71442
X40.10102Y44.8104
X40.10102Y45.76241
X40.61382Y53.21726
X40.92844Y54.38539
X40.96803Y48.99245
X40.96803Y50.89647
X40.96803Y48.04044
X40.96803Y49.94446
X41.02261Y52.05086
X41.78404Y43.85838
X41.78404Y46.71442
X41.78404Y44.8104
X41.78404Y45.76241
X42.03904Y50.84547
X42.03904Y49.89346
X42.03904Y48.94145
X42.03904Y47.98944
X42.10146Y53.05937
X42.2755Y54.3988
X42.39046Y51.83536
X43.05347Y53.05937
X43.22751Y54.3988
X43.34248Y51.83536
X43.46706Y44.36839
X43.46706Y45.4734
X43.46706Y46.61242
X43.51806Y48.94145
X43.51806Y50.84547
X43.51806Y47.98944
X43.51806Y49.89346
X44.00548Y53.05937
X44.17952Y54.3988
X44.29449Y51.83536
X44.44749Y46.48029
X44.49849Y43.77725
X44.53872Y50.72316
X44.65149Y48.41831
X44.73649Y45.25627
X44.82773Y49.49915
X44.9405Y47.1943
X44.9575Y53.05937
X45.13153Y54.3988
X45.36629Y51.89297
X46.07108Y44.22829
X46.07108Y47.08433
X46.07108Y45.1803
X46.07108Y46.13231
X46.68309Y45.57131
X46.68309Y44.61929
X46.68309Y46.52332
X51.68115Y45.1463
X47.90711Y46.77832
X47.90711Y44.8743
X47.90711Y45.82631
X48.51911Y45.2653
X48.51911Y44.31329
X48.51911Y46.21731
X51.12015Y46.47232
X50.66114Y50.34837
X50.66114Y48.44434
X50.66114Y49.39636
X51.27315Y48.83535
X50.76314Y47.32233
X51.27315Y49.78736
X52.39516Y47.69633
X52.39516Y50.55237
X52.39516Y48.64835
X52.39516Y49.60036
X53.00717Y49.03935
X53.00717Y48.08734
X53.00717Y49.99136
X53.97618Y48.81835
X53.97618Y51.67438
X53.97618Y49.77036
X53.97618Y50.72237
X54.58819Y50.16137
X54.58819Y49.20935
X54.58819Y51.11338
X52.24216Y46.01331
X49.64113Y46.57432
X49.64113Y44.67029
X49.64113Y45.62231
X50.25314Y45.0613
X50.25314Y44.10929
X50.25314Y46.01331
X33.67792Y47.64533
X33.67792Y50.50137
X33.67792Y48.59735
X33.67792Y49.54936
X34.28993Y48.98835
X34.28993Y48.03634
X34.28993Y49.94036
X37.78183Y55.185
X34.92579Y55.185
X36.82982Y55.185
X35.8778Y55.185
X36.43881Y55.79701
X37.39082Y55.79701
X35.4868Y55.79701
X41.51572Y55.22108
X42.62074Y55.32308
X42.17873Y56.4451
X39.6117Y55.22108
X38.65968Y55.22108
X40.56371Y55.22108
X38.25089Y56.38748
X39.32269Y56.4451
X41.22672Y56.4451
X40.2747Y56.4451
X46.30978Y55.37408
X36.14365Y56.5981
X37.28267Y56.5981
X44.40576Y55.37408
X43.45375Y55.37408
X45.35777Y55.37408
X43.04495Y56.54048
X44.11675Y56.5981
X46.02078Y56.5981
X45.06877Y56.5981
X37.28266Y64.5032
X38.38768Y64.6052
X37.94567Y65.72722
X35.37864Y64.5032
X34.42663Y64.5032
X36.33065Y64.5032
X34.01783Y65.6696
X35.08964Y65.72722
X36.99366Y65.72722
X36.04165Y65.72722
X49.82883Y61.29016
X50.93384Y61.39216
X50.49183Y62.51418
X47.9248Y61.29016
X46.97279Y61.29016
X48.87682Y61.29016
X46.564Y62.45656
X47.6358Y62.51418
X49.53982Y62.51418
X48.58781Y62.51418
X54.52089Y56.3431
X55.6259Y56.4451
X55.1839Y57.56711
X52.61686Y56.3431
X51.66485Y56.3431
X53.56888Y56.3431
X51.25606Y57.50949
X52.32786Y57.56711
X54.23189Y57.56711
X53.27987Y57.56711
X38.76168Y38.33986
X39.8667Y38.44186
X39.42469Y39.56388
X36.85766Y38.33986
X35.90565Y38.33986
X37.80967Y38.33986
X35.49686Y39.50626
X36.56865Y39.56388
X38.47268Y39.56388
X37.52067Y39.56388
X41.26072Y24.36568
X42.36573Y24.46768
X41.92372Y25.5897
X39.35669Y24.36568
X38.40468Y24.36568
X40.30871Y24.36568
X37.99589Y25.53208
X39.06769Y25.5897
X40.97171Y25.5897
X40.0197Y25.5897
X50.59384Y24.00867
X51.69885Y24.11068
X51.25684Y25.23269
X48.68981Y24.00867
X47.7378Y24.00867
X49.64183Y24.00867
X47.32901Y25.17507
X48.40081Y25.23269
X50.30483Y25.23269
X49.35282Y25.23269
X120.68156Y38.09249
X118.40451Y37.95251
X118.28453Y36.81748
X120.75921Y36.61198
X127.56665Y41.40754
X131.9527Y42.27455
X131.03469Y41.71354
X132.71867Y41.48751
X131.7487Y43.65157
X132.87071Y43.85557
X132.92172Y42.73355
X131.9017Y47.83362
X131.28969Y48.64963
X132.46271Y48.85363
X132.00957Y49.96035
X126.34263Y49.26164
X125.88362Y48.29263
X130.88169Y53.6477
X132.30971Y53.59669
X131.9527Y54.82071
X132.1057Y60.94079
X132.1057Y59.66577
X132.1057Y58.39076
X132.0547Y57.11574
X132.15671Y55.94273
X127.31164Y58.23776
X127.26064Y57.16674
X121.49072Y55.02149
X122.36458Y53.39269
X126.24063Y60.58379
X127.36264Y60.58379
X127.56665Y56.09573
X123.6396Y53.29069
X1.27367Y97.93473
X1.42079Y96.38677
X2.42589Y97.93473
X2.57302Y96.38677
X3.57812Y97.93473
X3.72524Y96.38677
X4.73034Y97.93473
X4.87746Y96.38677
X5.88256Y97.93473
X11.4228Y86.81659
X11.56993Y85.26863
X12.57502Y86.81659
X12.72215Y85.26863
X13.72725Y86.81659
X13.87437Y85.26863
X14.87947Y86.81659
X15.02659Y85.26863
X16.03169Y86.81659
X19.0219Y84.67456
X19.16902Y83.1266
X20.17412Y84.67456
X20.32125Y83.1266
X21.32635Y84.67456
X21.47347Y83.1266
X22.47857Y84.67456
X22.62569Y83.1266
X23.63079Y84.67456
X10.5772Y49.16231
X106.33638Y73.95096
X109.79745Y72.13362
X107.80843Y72.74563
X108.77744Y72.18462
X119.64058Y69.58359
X120.40559Y68.92058
X118.77357Y70.3486
X113.98648Y62.90752
X72.77794Y71.80893
X111.88848Y62.38373
T02
X93.36587Y28.7657
X90.82587Y28.7657
X106.02999Y38.85944
X106.02999Y41.39944
X109.75068Y35.28539
X112.29068Y35.28539
X95.25144Y53.95163
X92.71144Y53.95163
X90.17144Y53.95163
X70.73792Y52.26564
X70.73792Y49.72564
X70.73792Y47.18564
T03
X107.07165Y97.13593
X107.07165Y94.59593
X107.07165Y92.05593
X117.85622Y2.55136
X120.39622Y2.55136
X113.67624Y97.13593
X113.67624Y94.59593
X113.67624Y92.05593
X120.28082Y97.13593
X120.28082Y94.59593
X120.28082Y92.05593
X3.00128Y67.79662
X3.00128Y65.25662
X3.00128Y62.71662
X3.00128Y60.17662
X3.00128Y80.97973
X3.00128Y78.43973
X3.00128Y75.89973
X3.00128Y73.35973
X3.00128Y94.16284
X3.00128Y91.62284
X3.00128Y89.08284
X3.00128Y86.54284
X53.50376Y2.71866
X50.96376Y2.71866
X48.42376Y2.71866
X51.78088Y95.90792
X54.32088Y95.90792
X56.86088Y95.90792
X13.65433Y80.91746
X13.65433Y78.37746
X13.65433Y75.83746
X13.65433Y73.29746
X131.2388Y86.04371
X131.2388Y83.50371
X131.2388Y80.96371
X131.50097Y27.62203
X131.50097Y25.08203
X131.50097Y22.54203
X3.00128Y54.61352
X3.00128Y52.07352
X3.00128Y49.53352
X3.00128Y46.99352
X46.75985Y84.46005
X46.75985Y87.00005
X46.75985Y89.54005
X131.2388Y71.50087
X131.2388Y74.04087
X3.00128Y41.4304
X3.00128Y38.8904
X3.00128Y36.3504
X3.00128Y33.8104
X3.00128Y28.24729
X3.00128Y25.70729
X3.00128Y23.16729
X3.00128Y20.62729
X131.50097Y17.06812
X131.50097Y14.52812
X131.50097Y11.98812
X63.46488Y96.79692
X66.00488Y96.79692
X68.54488Y96.79692
X116.84251Y75.01194
X116.84251Y72.47194
X116.84251Y69.93194
T04
X80.83223Y7.50573
X78.33224Y7.50573
X78.33224Y4.30574
X80.83223Y4.30574
X32.13854Y52.95218
X29.59854Y52.95218
X27.05854Y52.95218
X24.51854Y52.95218
X21.97854Y52.95218
X19.43854Y52.95218
X16.89854Y52.95218
X14.35854Y52.95218
X32.13854Y65.75218
X29.59854Y65.75218
X27.05854Y65.75218
X24.51854Y65.75218
X21.97854Y65.75218
X19.43854Y65.75218
X16.89854Y65.75218
X14.35854Y65.75218
X32.13854Y36.03518
X29.59854Y36.03518
X27.05854Y36.03518
X24.51854Y36.03518
X21.97854Y36.03518
X19.43854Y36.03518
X16.89854Y36.03518
X14.35854Y36.03518
X32.13854Y48.83518
X29.59854Y48.83518
X27.05854Y48.83518
X24.51854Y48.83518
X21.97854Y48.83518
X19.43854Y48.83518
X16.89854Y48.83518
X14.35854Y48.83518
X32.13854Y19.11818
X29.59854Y19.11818
X27.05854Y19.11818
X24.51854Y19.11818
X21.97854Y19.11818
X19.43854Y19.11818
X16.89854Y19.11818
X14.35854Y19.11818
X32.13854Y32.07318
X29.59854Y32.07318
X27.05854Y32.07318
X24.51854Y32.07318
X21.97854Y32.07318
X19.43854Y32.07318
X16.89854Y32.07318
X14.35854Y32.07318
T05
X82.40716Y91.45178
X85.17728Y91.45178
X87.94715Y91.45178
X90.71728Y91.45178
X81.0221Y88.6118
X83.79222Y88.6118
X89.33221Y88.6118
X92.10208Y88.6118
X86.56209Y88.6118
X131.9018Y32.5691
X131.9018Y35.1091
X131.9018Y37.6491
X131.9018Y40.1891
T06
X14.42206Y14.46559
X28.62237Y8.46611
X26.6224Y2.46612
X26.6224Y14.4661
T07
X67.68896Y4.93667
X62.60896Y4.93667
X4.89596Y3.42723
X4.89596Y8.50723
T08
X73.56224Y5.00574
X85.60225Y5.00574
T09
X99.06219Y90.03166
X74.06224Y90.03166
M30