G04 Layer: CustomLayer2*
G04 EasyEDA Pro v2.2.32.3, 2025-12-15 17:31:23*
G04 Gerber Generator version 0.3*
G04 Scale: 100 percent, Rotated: No, Reflected: No*
G04 Dimensions in millimeters*
G04 Leading zeros omitted, absolute positions, 3 integers and 5 decimals*
%FSLAX35Y35*%
%MOMM*%
%ADD10C,0.15*%
%ADD11C,0.0127*%
G75*


G04 PolygonModel Start*
G54D10*
G01X8009307Y2306792D02*
G01X7909307Y2306792D01*
G01X7959307Y2256792D02*
G01X7959307Y2356792D01*
G01X7099307Y2256793D02*
G01X7099307Y2356792D01*
G01X6028894Y1353080D02*
G01X6128894Y1353080D01*
G01X6078894Y1403080D02*
G01X6078894Y1303080D01*
G01X6938894Y1403080D02*
G01X6938894Y1303080D01*
G54D11*
G01X5736225Y357930D02*
G01X5741305Y352850D01*
G01X5745156Y327812D02*
G01X5750236Y322732D01*
G01X5750629Y696313D02*
G01X5755709Y691233D01*
G01X12560857Y3820356D02*
G01X12555777Y3815276D01*
G01X12558157Y3529652D02*
G01X12553077Y3524572D01*
G01X11419385Y1955148D02*
G01X11414305Y1960228D01*
G01X9726839Y2434273D02*
G01X9731919Y2429193D01*
G01X9925742Y2434273D02*
G01X9930822Y2429193D01*
G54D10*
G01X8364777Y1807555D02*
G01X8544777Y1807555D01*
G01X8364777Y1497555D02*
G01X8544777Y1497555D01*
G01X8364777Y1497555D02*
G01X8364777Y1807555D01*
G01X8544777Y1497555D02*
G01X8544777Y1807555D01*
G54D11*
G01X6562655Y1836766D02*
G01X6567735Y1841846D01*
G01X10708279Y2454632D02*
G01X10703199Y2459712D01*
G01X10780981Y3354344D02*
G01X10775901Y3359424D01*
G01X10772050Y3384462D02*
G01X10766970Y3389542D01*
G01X8075607Y2337610D02*
G01X8070527Y2332530D01*
G01X8045488Y2328679D02*
G01X8040408Y2323599D01*
G01X12454699Y7468319D02*
G01X12449619Y7473399D01*
G01X12381071Y7085855D02*
G01X12386151Y7080775D01*
G01X12302373Y1312258D02*
G01X12307453Y1307178D01*
G01X12382941Y1706085D02*
G01X12377861Y1711165D01*
G01X10473647Y3383207D02*
G01X10478727Y3378127D01*
G01X8444589Y2333406D02*
G01X8439509Y2328326D01*
G01X11097725Y5556635D02*
G01X11092645Y5561715D01*
G01X6054116Y8682135D02*
G01X6049036Y8687215D01*
G01X5703669Y8451216D02*
G01X5698589Y8446136D01*
G01X8328745Y4367479D02*
G01X8323665Y4372559D01*
G01X5698528Y8153185D02*
G01X5703608Y8158265D01*
G01X5462508Y8274130D02*
G01X5457428Y8279210D01*
G01X12169095Y8595434D02*
G01X12164015Y8600514D01*
G01X12134811Y7780880D02*
G01X12139891Y7785960D01*
G01X11986909Y2818516D02*
G01X11991989Y2823596D01*
G01X10818637Y4522778D02*
G01X10823717Y4527858D01*
G01X10823738Y4736981D02*
G01X10828818Y4742061D01*
G01X7229364Y7462510D02*
G01X7224284Y7457430D01*
G01X10405929Y3050246D02*
G01X10400849Y3045166D01*
G54D10*
G01X3644350Y1922928D02*
G01X3644350Y1822928D01*
G01X3694350Y1872928D02*
G01X3594350Y1872928D01*
G01X3694350Y1012928D02*
G01X3594350Y1012928D01*
G54D11*
G01X4543715Y1196373D02*
G01X4548795Y1201453D01*
G01X5445787Y1542159D02*
G01X5440707Y1547239D01*
G01X4371089Y1864804D02*
G01X4376169Y1869884D01*
G01X4033068Y1440158D02*
G01X4027988Y1445238D01*
G01X3979841Y2011406D02*
G01X3984921Y2006326D01*
G01X4984398Y5142719D02*
G01X4979318Y5147799D01*
G01X1725456Y5917929D02*
G01X1720376Y5923009D01*
G01X1725456Y4245108D02*
G01X1720376Y4250188D01*
G01X1725456Y2562086D02*
G01X1720376Y2567166D01*
G01X1201635Y4240452D02*
G01X1196555Y4245532D01*
G01X1102507Y5780712D02*
G01X1107587Y5775632D01*
G01X10937112Y6998404D02*
G01X10932032Y6993324D01*
G01X10058443Y7637328D02*
G01X10053363Y7642408D01*
G01X8642082Y2908151D02*
G01X8637002Y2903071D01*
G01X9507636Y2496462D02*
G01X9502556Y2501542D01*
G01X8827101Y7397666D02*
G01X8832181Y7392586D01*

M02*

