G04 Layer: CustomLayer1*
G04 EasyEDA Pro v2.2.32.3, 2025-12-15 17:31:23*
G04 Gerber Generator version 0.3*
G04 Scale: 100 percent, Rotated: No, Reflected: No*
G04 Dimensions in millimeters*
G04 Leading zeros omitted, absolute positions, 3 integers and 5 decimals*
%FSLAX35Y35*%
%MOMM*%
%ADD10C,0.15*%
G75*


G04 PolygonModel Start*
G54D10*
G01X7755307Y2436792D02*
G01X7323307Y2436792D01*
G01X7755307Y2176792D02*
G01X7323307Y2176792D01*
G01X7755307Y2176792D02*
G01X7755307Y2436792D01*
G01X7323307Y2176792D02*
G01X7323307Y2436792D01*
G01X6282894Y1223080D02*
G01X6714894Y1223080D01*
G01X6282894Y1483080D02*
G01X6714894Y1483080D01*
G01X6282894Y1483080D02*
G01X6282894Y1223080D01*
G01X6714894Y1483080D02*
G01X6714894Y1223080D01*
G01X12215881Y2433825D02*
G01X11905881Y2433825D01*
G01X12215881Y2613826D02*
G01X11905881Y2613826D01*
G01X11905881Y2433825D02*
G01X11905881Y2613826D01*
G01X12215881Y2433825D02*
G01X12215881Y2613826D01*
G01X7834727Y4317051D02*
G01X7834727Y4627050D01*
G01X8014727Y4317051D02*
G01X8014727Y4627050D01*
G01X7834727Y4627050D02*
G01X8014727Y4627050D01*
G01X7834727Y4317051D02*
G01X8014727Y4317051D01*
G01X10288056Y4356550D02*
G01X9978056Y4356550D01*
G01X10288056Y4536550D02*
G01X9978056Y4536550D01*
G01X9978056Y4356550D02*
G01X9978056Y4536550D01*
G01X10288056Y4356550D02*
G01X10288056Y4536550D01*
G01X11190411Y3842284D02*
G01X10880411Y3842284D01*
G01X11190411Y4022284D02*
G01X10880411Y4022284D01*
G01X10880411Y3842284D02*
G01X10880411Y4022284D01*
G01X11190411Y3842284D02*
G01X11190411Y4022284D01*
G01X3514350Y1668928D02*
G01X3514350Y1236928D01*
G01X3774350Y1668928D02*
G01X3774350Y1236928D01*
G01X3774350Y1668928D02*
G01X3514350Y1668928D01*
G01X3774350Y1236928D02*
G01X3514350Y1236928D01*
G01X7446513Y4974637D02*
G01X7446513Y5284637D01*
G01X7626513Y4974637D02*
G01X7626513Y5284637D01*
G01X7446513Y5284637D02*
G01X7626513Y5284637D01*
G01X7446513Y4974637D02*
G01X7626513Y4974637D01*
G01X6928991Y7867601D02*
G01X7238991Y7867601D01*
G01X6928991Y7687601D02*
G01X7238991Y7687601D01*
G01X7238991Y7867601D02*
G01X7238991Y7687601D01*
G01X6928991Y7867601D02*
G01X6928991Y7687601D01*

M02*

