  0
SECTION
  2
HEADER
  9
$ACADVER
  1
AC1009
  9
$INSBASE
 10
0.0
 20
0.0
 30
0.0
  9
$EXTMIN
 10
-0.0002499999999998
 20
-0.0002499999999998
 30
0.0
  9
$EXTMAX
 10
105.0002499999999941
 20
74.2502499999999941
 30
0.0
  9
$LIMMIN
 10
0.0
 20
0.0
  9
$LIMMAX
 10
105.0
 20
74.25
  9
$ORTHOMODE
 70
     0
  9
$REGENMODE
 70
     1
  9
$FILLMODE
 70
     1
  9
$QTEXTMODE
 70
     0
  9
$MIRRTEXT
 70
     1
  9
$DRAGMODE
 70
     2
  9
$LTSCALE
 40
0.25
  9
$OSMODE
 70
    39
  9
$ATTMODE
 70
     1
  9
$TEXTSIZE
 40
0.875
  9
$TRACEWID
 40
1.0
  9
$TEXTSTYLE
  7
STANDARD
  9
$CLAYER
  8
0
  9
$CELTYPE
  6
BYLAYER
  9
$CECOLOR
 62
   256
  9
$DIMSCALE
 40
1.0
  9
$DIMASZ
 40
1.02
  9
$DIMEXO
 40
0.0
  9
$DIMDLI
 40
3.75
  9
$DIMRND
 40
0.0
  9
$DIMDLE
 40
0.0
  9
$DIMEXE
 40
0.5
  9
$DIMTP
 40
0.0
  9
$DIMTM
 40
0.0
  9
$DIMTXT
 40
0.875
  9
$DIMCEN
 40
2.5
  9
$DIMTSZ
 40
0.0
  9
$DIMTOL
 70
     0
  9
$DIMLIM
 70
     0
  9
$DIMTIH
 70
     1
  9
$DIMTOH
 70
     1
  9
$DIMSE1
 70
     0
  9
$DIMSE2
 70
     0
  9
$DIMTAD
 70
     1
  9
$DIMZIN
 70
     0
  9
$DIMBLK
  1

  9
$DIMASO
 70
     1
  9
$DIMSHO
 70
     1
  9
$DIMPOST
  1

  9
$DIMAPOST
  1

  9
$DIMALT
 70
     0
  9
$DIMALTD
 70
     3
  9
$DIMALTF
 40
0.0393700787401575
  9
$DIMLFAC
 40
1.0
  9
$DIMTOFL
 70
     1
  9
$DIMTVP
 40
0.0
  9
$DIMTIX
 70
     0
  9
$DIMSOXD
 70
     0
  9
$DIMSAH
 70
     0
  9
$DIMBLK1
  1

  9
$DIMBLK2
  1

  9
$DIMSTYLE
  2
ISO-25
  9
$DIMCLRD
 70
     0
  9
$DIMCLRE
 70
     0
  9
$DIMCLRT
 70
     0
  9
$DIMTFAC
 40
1.0
  9
$DIMGAP
 40
0.381
  9
$LUNITS
 70
     2
  9
$LUPREC
 70
     4
  9
$SKETCHINC
 40
1.0
  9
$FILLETRAD
 40
0.0
  9
$AUNITS
 70
     0
  9
$AUPREC
 70
     2
  9
$MENU
  1
.
  9
$ELEVATION
 40
0.0
  9
$PELEVATION
 40
0.0
  9
$THICKNESS
 40
0.0
  9
$LIMCHECK
 70
     0
  9
$BLIPMODE
 70
     0
  9
$CHAMFERA
 40
0.0
  9
$CHAMFERB
 40
0.0
  9
$SKPOLY
 70
     0
  9
$TDCREATE
 40
2460878.6562268519774079
  9
$TDUPDATE
 40
2460885.7234490741975605
  9
$TDINDWG
 40
0.0001273264
  9
$TDUSRTIMER
 40
0.0001273264
  9
$USRTIMER
 70
     1
  9
$ANGBASE
 50
0.0
  9
$ANGDIR
 70
     0
  9
$PDMODE
 70
     0
  9
$PDSIZE
 40
-1.0
  9
$PLINEWID
 40
0.0
  9
$COORDS
 70
     1
  9
$SPLFRAME
 70
     0
  9
$SPLINETYPE
 70
     6
  9
$SPLINESEGS
 70
     8
  9
$ATTDIA
 70
     1
  9
$ATTREQ
 70
     1
  9
$HANDLING
 70
     1
  9
$HANDSEED
  5
3A8
  9
$SURFTAB1
 70
     6
  9
$SURFTAB2
 70
     6
  9
$SURFTYPE
 70
     6
  9
$SURFU
 70
     6
  9
$SURFV
 70
     6
  9
$UCSNAME
  2

  9
$UCSORG
 10
0.0
 20
0.0
 30
0.0
  9
$UCSXDIR
 10
1.0
 20
0.0
 30
0.0
  9
$UCSYDIR
 10
0.0
 20
1.0
 30
0.0
  9
$PUCSNAME
  2

  9
$PUCSORG
 10
0.0
 20
0.0
 30
0.0
  9
$PUCSXDIR
 10
1.0
 20
0.0
 30
0.0
  9
$PUCSYDIR
 10
0.0
 20
1.0
 30
0.0
  9
$USERI1
 70
     0
  9
$USERI2
 70
     0
  9
$USERI3
 70
     0
  9
$USERI4
 70
     0
  9
$USERI5
 70
     0
  9
$USERR1
 40
0.0
  9
$USERR2
 40
0.0
  9
$USERR3
 40
0.0
  9
$USERR4
 40
0.0
  9
$USERR5
 40
0.0
  9
$WORLDVIEW
 70
     1
  9
$SHADEDGE
 70
     3
  9
$SHADEDIF
 70
    70
  9
$TILEMODE
 70
     1
  9
$MAXACTVP
 70
    64
  9
$PLIMCHECK
 70
     0
  9
$PEXTMIN
 10
1.0000000000000000E+20
 20
1.0000000000000000E+20
 30
1.0000000000000000E+20
  9
$PEXTMAX
 10
-1.0000000000000000E+20
 20
-1.0000000000000000E+20
 30
-1.0000000000000000E+20
  9
$PLIMMIN
 10
0.0
 20
0.0
  9
$PLIMMAX
 10
420.0
 20
297.0
  9
$UNITMODE
 70
     0
  9
$VISRETAIN
 70
     1
  9
$PLINEGEN
 70
     0
  9
$PSLTSCALE
 70
     1
  0
ENDSEC
  0
SECTION
  2
TABLES
  0
TABLE
  2
VPORT
 70
     1
  0
VPORT
  2
*ACTIVE
 70
     0
 10
0.0
 20
0.0
 11
1.0
 21
1.0
 12
89.0806138713292341
 22
30.6889080521482995
 13
0.0
 23
0.0
 14
10.0
 24
10.0
 15
10.0
 25
10.0
 16
0.0
 26
0.0
 36
1.0
 17
0.0
 27
0.0
 37
0.0
 40
118.7616278140196044
 41
2.0208877284595301
 42
50.0
 43
0.0
 44
0.0
 50
0.0
 51
0.0
 71
     0
 72
  2000
 73
     1
 74
     3
 75
     0
 76
     0
 77
     0
 78
     0
  0
ENDTAB
  0
TABLE
  2
LTYPE
 70
     8
  0
LTYPE
  2
CONTINUOUS
 70
     0
  3
Solid line
 72
    65
 73
     0
 40
0.0
  0
LTYPE
  2
SLD-实线
 70
     0
  3
SolidWorks Line Style
 72
    65
 73
     0
 40
0.0
  0
LTYPE
  2
SLD-虚线
 70
     0
  3
SolidWorks Line Style
 72
    65
 73
     2
 40
1.905
 49
1.27
 49
-0.635
  0
LTYPE
  2
SLD-双点画线
 70
     0
  3
SolidWorks Line Style
 72
    65
 73
     6
 40
12.6999999999999993
 49
6.3499999999999988
 49
-1.27
 49
1.27
 49
-1.27
 49
1.27
 49
-1.27
  0
LTYPE
  2
SLD-点画线
 70
     0
  3
SolidWorks Line Style
 72
    65
 73
     4
 40
10.1600000000000001
 49
6.3499999999999988
 49
-1.27
 49
1.27
 49
-1.27
  0
LTYPE
  2
SLD-中心线
 70
     0
  3
SolidWorks Line Style
 72
    65
 73
     4
 40
34.2900000000000134
 49
30.4800000000000004
 49
-1.27
 49
1.27
 49
-1.27
  0
LTYPE
  2
SLD-裁剪线
 70
     0
  3
SolidWorks Line Style
 72
    65
 73
     2
 40
0.635
 49
0.0
 49
-0.635
  0
LTYPE
  2
SLD-细-粗_点画线
 70
     0
  3
SolidWorks Line Style
 72
    65
 73
     5
 40
15.2400000000000002
 49
6.3499999999999988
 49
-1.27
 49
1.27
 49
-1.27
 49
5.0800000000000001
  0
ENDTAB
  0
TABLE
  2
LAYER
 70
     9
  0
LAYER
  2
0
 70
     0
 62
     7
  6
CONTINUOUS
  0
LAYER
  2
轮廓粗实线
 70
     0
 62
     7
  6
CONTINUOUS
  0
LAYER
  2
切边
 70
     0
 62
     5
  6
SLD-双点画线
  0
LAYER
  2
虚线
 70
     0
 62
     1
  6
SLD-虚线
  0
LAYER
  2
局部视图边界
 70
     0
 62
     1
  6
SLD-虚线
  0
LAYER
  2
细实线
 70
     0
 62
     2
  6
SLD-实线
  0
LAYER
  2
剖面线
 70
     0
 62
     6
  6
CONTINUOUS
  0
LAYER
  2
折断线
 70
     0
 62
     9
  6
SLD-虚线
  0
LAYER
  2
文字
 70
     0
 62
     7
  6
CONTINUOUS
  0
ENDTAB
  0
TABLE
  2
STYLE
 70
     9
  0
STYLE
  2
STANDARD
 70
     0
 40
0.0
 41
1.0
 50
0.0
 71
     0
 42
0.875
  3
txt
  4

  0
STYLE
  2
SLDTEXTSTYLE0
 70
     0
 40
0.0
 41
1.0
 50
0.0
 71
     0
 42
0.875
  3
txt
  4
bigfont
  0
STYLE
  2
SLDTEXTSTYLE1
 70
     0
 40
0.0
 41
0.8
 50
0.0
 71
     0
 42
0.875
  3
txt
  4

  0
STYLE
  2
SLDTEXTSTYLE2
 70
     0
 40
0.0
 41
0.8
 50
0.0
 71
     0
 42
0.875
  3
txt
  4
bigfont
  0
STYLE
  2
SLDTEXTSTYLE3
 70
     0
 40
0.0
 41
1.0
 50
0.0
 71
     0
 42
0.875
  3
txt
  4
bigfont
  0
STYLE
  2
SLDTEXTSTYLE4
 70
     0
 40
0.0
 41
1.0
 50
0.0
 71
     0
 42
0.875
  3
txt
  4

  0
STYLE
  2
SLDTEXTSTYLE5
 70
     0
 40
0.0
 41
1.0
 50
0.0
 71
     0
 42
0.875
  3
txt
  4
bigfont
  0
STYLE
  2
SLDTEXTSTYLE6
 70
     0
 40
0.0
 41
0.913
 50
0.0
 71
     0
 42
0.875
  3
txt
  4

  0
STYLE
  2
SLDTEXTSTYLE7
 70
     0
 40
0.0
 41
1.0
 50
0.0
 71
     0
 42
0.875
  3
txt
  4

  0
ENDTAB
  0
TABLE
  2
VIEW
 70
     0
  0
ENDTAB
  0
TABLE
  2
UCS
 70
     0
  0
ENDTAB
  0
TABLE
  2
APPID
 70
     3
  0
APPID
  2
ACAD
 70
     0
  0
APPID
  2
ACAD_MLEADERVER
 70
     0
  0
APPID
  2
ACAD_NAV_VCDISPLAY
 70
     0
  0
ENDTAB
  0
TABLE
  2
DIMSTYLE
 70
     6
  0
DIMSTYLE
  2
ISO-25
 70
     0
  3

  4

  5

  6

  7

 40
1.0
 41
2.5
 42
0.625
 43
3.75
 44
1.25
 45
0.0
 46
0.0
 47
0.0
 48
0.0
140
2.5
141
2.5
142
0.0
143
0.03937007874016
144
1.0
145
0.0
146
1.0
147
0.625
 71
     0
 72
     0
 73
     0
 74
     0
 75
     0
 76
     0
 77
     1
 78
     8
170
     0
171
     3
172
     1
173
     0
174
     0
175
     0
176
     0
177
     0
178
     0
  0
DIMSTYLE
  2
SLDDIMSTYLE0
 70
     0
  3

  4

  5

  6

  7

 40
1.0
 41
1.02
 42
0.0625
 43
0.38
 44
0.0
 45
0.000000001
 46
0.0
 47
0.0
 48
0.0
140
0.875
141
0.09
142
0.0
143
25.3999999999999986
144
1.0
145
0.0
146
1.0
147
0.21875
 71
     0
 72
     0
 73
     0
 74
     0
 75
     0
 76
     0
 77
     2
 78
    12
170
     0
171
     2
172
     0
173
     1
174
     0
175
     0
176
     0
177
     0
178
     0
  0
DIMSTYLE
  2
SLDDIMSTYLE1
 70
     0
  3

  4

  5

  6
NONE
  7

 40
1.0
 41
1.02
 42
0.0625
 43
0.38
 44
0.0
 45
0.000000001
 46
0.0
 47
0.0
 48
0.0
140
0.875
141
0.0
142
0.0
143
25.3999999999999986
144
1.0
145
0.0
146
1.0
147
0.21875
 71
     0
 72
     0
 73
     0
 74
     0
 75
     0
 76
     0
 77
     2
 78
     4
170
     0
171
     2
172
     1
173
     1
174
     0
175
     0
176
     0
177
     0
178
     0
  0
DIMSTYLE
  2
SLDDIMSTYLE2
 70
     0
  3

  4

  5

  6

  7

 40
1.0
 41
1.02
 42
0.0625
 43
0.38
 44
0.0
 45
0.000000001
 46
0.0
 47
0.0
 48
0.0
140
0.875
141
0.0
142
0.0
143
25.3999999999999986
144
1.0
145
0.0
146
1.0
147
0.21875
 71
     0
 72
     0
 73
     0
 74
     0
 75
     0
 76
     0
 77
     2
 78
    12
170
     0
171
     2
172
     0
173
     1
174
     0
175
     0
176
     0
177
     0
178
     0
  0
DIMSTYLE
  2
SLDDIMSTYLE3
 70
     0
  3

  4

  5

  6

  7

 40
1.0
 41
1.02
 42
0.0625
 43
0.38
 44
0.0
 45
0.000000001
 46
0.0
 47
0.0
 48
0.0
140
0.875
141
0.09
142
0.0
143
25.3999999999999986
144
1.0
145
0.0
146
1.0
147
0.21875
 71
     0
 72
     0
 73
     0
 74
     0
 75
     0
 76
     0
 77
     2
 78
     4
170
     0
171
     2
172
     1
173
     1
174
     0
175
     0
176
     0
177
     0
178
     0
  0
DIMSTYLE
  2
SLDDIMSTYLE4
 70
     0
  3

  4

  5

  6

  7

 40
1.0
 41
1.02
 42
0.0625
 43
0.38
 44
0.0
 45
0.000000001
 46
0.0
 47
0.0
 48
0.0
140
0.875
141
0.09
142
0.0
143
25.3999999999999986
144
1.0
145
0.0
146
1.0
147
0.21875
 71
     0
 72
     0
 73
     0
 74
     0
 75
     0
 76
     0
 77
     2
 78
     4
170
     0
171
     2
172
     0
173
     1
174
     0
175
     0
176
     0
177
     0
178
     0
  0
ENDTAB
  0
ENDSEC
  0
SECTION
  2
BLOCKS
  0
BLOCK
  8
0
  2
$MODEL_SPACE
 70
     0
 10
0.0
 20
0.0
 30
0.0
  3
$MODEL_SPACE
  1

  0
ENDBLK
  5
21
  8
0
  0
BLOCK
 67
     1
  8
0
  2
$PAPER_SPACE
 70
     0
 10
0.0
 20
0.0
 30
0.0
  3
$PAPER_SPACE
  1

  0
ENDBLK
  5
1D
 67
     1
  8
0
  0
BLOCK
  8
0
  2
SW_TABLEANNOTATION_0
 70
     0
 10
0.0
 20
0.0
 30
0.0
  3
SW_TABLEANNOTATION_0
  1

  0
LINE
  5
E8
  8
0
  6
SLD-实线
 62
     0
 10
0.0
 20
0.0
 30
0.0
 11
0.0
 21
-1.510901339559902
 31
0.0
  0
LINE
  5
E9
  8
0
  6
SLD-实线
 62
     0
 10
4.3205267102040521
 20
0.0
 30
0.0
 11
4.3205267102040521
 21
-1.510901339559902
 31
0.0
  0
LINE
  5
EA
  8
0
  6
SLD-实线
 62
     0
 10
16.2729579940952505
 20
0.0
 30
0.0
 11
16.2729579940952505
 21
-1.510901339559902
 31
0.0
  0
LINE
  5
EB
  8
0
  6
SLD-实线
 62
     0
 10
28.7311181416019288
 20
0.0
 30
0.0
 11
28.7311181416019288
 21
-1.510901339559902
 31
0.0
  0
LINE
  5
EC
  8
0
  6
SLD-实线
 62
     0
 10
32.3082743764695834
 20
0.0
 30
0.0
 11
32.3082743764695834
 21
-1.510901339559902
 31
0.0
  0
LINE
  5
ED
  8
0
  6
SLD-实线
 62
     0
 10
0.0
 20
0.0
 30
0.0
 11
4.3205267102040521
 21
0.0
 31
0.0
  0
LINE
  5
EE
  8
0
  6
SLD-实线
 62
     0
 10
0.0
 20
-1.510901339559902
 30
0.0
 11
4.3205267102040521
 21
-1.510901339559902
 31
0.0
  0
LINE
  5
EF
  8
0
  6
SLD-实线
 62
     0
 10
4.3205267102040521
 20
0.0
 30
0.0
 11
16.2729579940952505
 21
0.0
 31
0.0
  0
LINE
  5
F0
  8
0
  6
SLD-实线
 62
     0
 10
4.3205267102040521
 20
-1.510901339559902
 30
0.0
 11
16.2729579940952505
 21
-1.510901339559902
 31
0.0
  0
LINE
  5
F1
  8
0
  6
SLD-实线
 62
     0
 10
16.2729579940952505
 20
0.0
 30
0.0
 11
28.7311181416019288
 21
0.0
 31
0.0
  0
LINE
  5
F2
  8
0
  6
SLD-实线
 62
     0
 10
16.2729579940952505
 20
-1.510901339559902
 30
0.0
 11
28.7311181416019288
 21
-1.510901339559902
 31
0.0
  0
LINE
  5
F3
  8
0
  6
SLD-实线
 62
     0
 10
28.7311181416019288
 20
0.0
 30
0.0
 11
32.3082743764695834
 21
0.0
 31
0.0
  0
LINE
  5
F4
  8
0
  6
SLD-实线
 62
     0
 10
28.7311181416019288
 20
-1.510901339559902
 30
0.0
 11
32.3082743764695834
 21
-1.510901339559902
 31
0.0
  0
LINE
  5
F5
  8
0
  6
SLD-实线
 62
     0
 10
0.0
 20
-1.510901339559902
 30
0.0
 11
0.0
 21
-3.0218026791198049
 31
0.0
  0
LINE
  5
F6
  8
0
  6
SLD-实线
 62
     0
 10
4.3205267102040521
 20
-1.510901339559902
 30
0.0
 11
4.3205267102040521
 21
-3.0218026791198049
 31
0.0
  0
LINE
  5
F7
  8
0
  6
SLD-实线
 62
     0
 10
0.0
 20
-3.0218026791198049
 30
0.0
 11
0.0
 21
-4.5327040186797092
 31
0.0
  0
LINE
  5
F8
  8
0
  6
SLD-实线
 62
     0
 10
4.3205267102040521
 20
-3.0218026791198049
 30
0.0
 11
4.3205267102040521
 21
-4.5327040186797092
 31
0.0
  0
LINE
  5
F9
  8
0
  6
SLD-实线
 62
     0
 10
16.2729579940952505
 20
-1.510901339559902
 30
0.0
 11
16.2729579940952505
 21
-3.0218026791198049
 31
0.0
  0
LINE
  5
FA
  8
0
  6
SLD-实线
 62
     0
 10
16.2729579940952505
 20
-3.0218026791198049
 30
0.0
 11
16.2729579940952505
 21
-4.5327040186797092
 31
0.0
  0
LINE
  5
FB
  8
0
  6
SLD-实线
 62
     0
 10
28.7311181416019288
 20
-1.510901339559902
 30
0.0
 11
28.7311181416019288
 21
-3.0218026791198049
 31
0.0
  0
LINE
  5
FC
  8
0
  6
SLD-实线
 62
     0
 10
28.7311181416019288
 20
-3.0218026791198049
 30
0.0
 11
28.7311181416019288
 21
-4.5327040186797092
 31
0.0
  0
LINE
  5
FD
  8
0
  6
SLD-实线
 62
     0
 10
32.3082743764695834
 20
-1.510901339559902
 30
0.0
 11
32.3082743764695834
 21
-3.0218026791198049
 31
0.0
  0
LINE
  5
FE
  8
0
  6
SLD-实线
 62
     0
 10
32.3082743764695834
 20
-3.0218026791198049
 30
0.0
 11
32.3082743764695834
 21
-4.5327040186797092
 31
0.0
  0
LINE
  5
FF
  8
0
  6
SLD-实线
 62
     0
 10
0.0
 20
-3.0218026791198049
 30
0.0
 11
4.3205267102040521
 21
-3.0218026791198049
 31
0.0
  0
LINE
  5
100
  8
0
  6
SLD-实线
 62
     0
 10
4.3205267102040521
 20
-3.0218026791198049
 30
0.0
 11
16.2729579940952505
 21
-3.0218026791198049
 31
0.0
  0
LINE
  5
101
  8
0
  6
SLD-实线
 62
     0
 10
16.2729579940952505
 20
-3.0218026791198049
 30
0.0
 11
28.7311181416019288
 21
-3.0218026791198049
 31
0.0
  0
LINE
  5
102
  8
0
  6
SLD-实线
 62
     0
 10
28.7311181416019288
 20
-3.0218026791198049
 30
0.0
 11
32.3082743764695834
 21
-3.0218026791198049
 31
0.0
  0
LINE
  5
103
  8
0
  6
SLD-实线
 62
     0
 10
0.0
 20
-4.5327040186797092
 30
0.0
 11
4.3205267102040521
 21
-4.5327040186797092
 31
0.0
  0
LINE
  5
104
  8
0
  6
SLD-实线
 62
     0
 10
4.3205267102040521
 20
-4.5327040186797092
 30
0.0
 11
16.2729579940952505
 21
-4.5327040186797092
 31
0.0
  0
LINE
  5
105
  8
0
  6
SLD-实线
 62
     0
 10
16.2729579940952505
 20
-4.5327040186797092
 30
0.0
 11
28.7311181416019288
 21
-4.5327040186797092
 31
0.0
  0
LINE
  5
106
  8
0
  6
SLD-实线
 62
     0
 10
28.7311181416019288
 20
-4.5327040186797092
 30
0.0
 11
32.3082743764695834
 21
-4.5327040186797092
 31
0.0
  0
INSERT
  5
107
  8
0
  2
*U64
 10
0.0
 20
0.0
 30
0.0
  0
INSERT
  5
108
  8
0
  2
*U65
 10
0.0
 20
0.0
 30
0.0
  0
INSERT
  5
109
  8
0
  2
*U66
 10
0.0
 20
0.0
 30
0.0
  0
INSERT
  5
10A
  8
0
  2
*U67
 10
0.0
 20
0.0
 30
0.0
  0
INSERT
  5
10C
  8
0
  2
*U68
 10
0.0
 20
0.0
 30
0.0
  0
INSERT
  5
10D
  8
0
  2
*U69
 10
0.0
 20
0.0
 30
0.0
  0
INSERT
  5
10E
  8
0
  2
*U70
 10
0.0
 20
0.0
 30
0.0
  0
INSERT
  5
10F
  8
0
  2
*U71
 10
0.0
 20
0.0
 30
0.0
  0
INSERT
  5
110
  8
0
  2
*U72
 10
0.0
 20
0.0
 30
0.0
  0
INSERT
  5
111
  8
0
  2
*U73
 10
0.0
 20
0.0
 30
0.0
  0
ENDBLK
  5
E7
  8
0
  0
BLOCK
  8
0
  2
_D
 70
     0
 10
0.0
 20
0.0
 30
0.0
  3
_D
  1

  0
SOLID
  5
13A
  8
0
  6
SLD-实线
 62
     5
 10
24.4768453020823102
 20
42.2238224119657701
 30
0.0
 11
24.3498453020823113
 21
41.203822411965767
 31
0.0
 12
24.6038453020823091
 22
41.203822411965767
 32
0.0
 13
24.6038453020823091
 23
41.203822411965767
 33
0.0
  0
SOLID
  5
13B
  8
0
  6
SLD-实线
 62
     5
 10
24.4768453020823102
 20
17.2238224119657701
 30
0.0
 11
24.6038453020823091
 21
18.2438224119657697
 31
0.0
 12
24.3498453020823113
 22
18.2438224119657697
 32
0.0
 13
24.3498453020823113
 23
18.2438224119657697
 33
0.0
  0
LINE
  5
13C
  8
0
  6
SLD-实线
 62
     5
 10
30.9768453020823387
 20
42.2238224119657701
 30
0.0
 11
23.9768453020823102
 21
42.2238224119657701
 31
0.0
  0
LINE
  5
13D
  8
0
  6
SLD-实线
 62
     5
 10
30.9768453020823387
 20
17.2238224119657701
 30
0.0
 11
23.9768453020823102
 21
17.2238224119657701
 31
0.0
  0
LINE
  5
13E
  8
0
  6
SLD-实线
 62
     5
 10
24.4768453020823102
 20
42.2238224119657701
 30
0.0
 11
24.4768453020823102
 21
17.2238224119657701
 31
0.0
  0
INSERT
  5
13F
  8
0
  2
*U74
 10
0.0
 20
0.0
 30
0.0
  0
ENDBLK
  5
139
  8
0
  0
BLOCK
  8
0
  2
_D_1
 70
     0
 10
0.0
 20
0.0
 30
0.0
  3
_D_1
  1

  0
SOLID
  5
144
  8
0
  6
SLD-实线
 62
     5
 10
47.9768453020823387
 20
47.723822411965763
 30
0.0
 11
46.9568453020823284
 21
47.8508224119657726
 31
0.0
 12
46.9568453020823284
 22
47.5968224119657677
 32
0.0
 13
46.9568453020823284
 23
47.5968224119657677
 33
0.0
  0
SOLID
  5
145
  8
0
  6
SLD-实线
 62
     5
 10
29.9768453020823316
 20
47.723822411965763
 30
0.0
 11
30.9968453020823311
 21
47.5968224119657677
 31
0.0
 12
30.9968453020823311
 22
47.8508224119657726
 32
0.0
 13
30.9968453020823311
 23
47.8508224119657726
 33
0.0
  0
LINE
  5
146
  8
0
  6
SLD-实线
 62
     5
 10
47.9768453020823387
 20
42.2238224119657701
 30
0.0
 11
47.9768453020823387
 21
48.2238224119657701
 31
0.0
  0
LINE
  5
147
  8
0
  6
SLD-实线
 62
     5
 10
29.9768453020823316
 20
41.2238224119657772
 30
0.0
 11
29.9768453020823316
 21
48.2238224119657701
 31
0.0
  0
LINE
  5
148
  8
0
  6
SLD-实线
 62
     5
 10
47.9768453020823387
 20
47.723822411965763
 30
0.0
 11
29.9768453020823316
 21
47.723822411965763
 31
0.0
  0
INSERT
  5
149
  8
0
  2
*U75
 10
0.0
 20
0.0
 30
0.0
  0
ENDBLK
  5
143
  8
0
  0
BLOCK
  8
0
  2
_D_2
 70
     0
 10
0.0
 20
0.0
 30
0.0
  3
_D_2
  1

  0
SOLID
  5
14E
  8
0
  6
SLD-实线
 62
     5
 10
53.4768453020823316
 20
45.2238224119657701
 30
0.0
 11
53.3498453020823433
 21
44.203822411965767
 31
0.0
 12
53.6038453020823411
 22
44.203822411965767
 32
0.0
 13
53.6038453020823411
 23
44.203822411965767
 33
0.0
  0
SOLID
  5
14F
  8
0
  6
SLD-实线
 62
     5
 10
53.4768453020823316
 20
14.2238224119657701
 30
0.0
 11
53.6038453020823411
 21
15.2438224119657697
 31
0.0
 12
53.3498453020823433
 22
15.2438224119657697
 32
0.0
 13
53.3498453020823433
 23
15.2438224119657697
 33
0.0
  0
LINE
  5
150
  8
0
  6
SLD-实线
 62
     5
 10
44.9768453020823316
 20
45.2238224119657701
 30
0.0
 11
53.9768453020823387
 21
45.2238224119657701
 31
0.0
  0
LINE
  5
151
  8
0
  6
SLD-实线
 62
     5
 10
44.9768453020823316
 20
14.2238224119657701
 30
0.0
 11
53.9768453020823387
 21
14.2238224119657701
 31
0.0
  0
LINE
  5
152
  8
0
  6
SLD-实线
 62
     5
 10
53.4768453020823316
 20
45.2238224119657701
 30
0.0
 11
53.4768453020823316
 21
14.2238224119657701
 31
0.0
  0
INSERT
  5
153
  8
0
  2
*U76
 10
0.0
 20
0.0
 30
0.0
  0
ENDBLK
  5
14D
  8
0
  0
BLOCK
  8
0
  2
_NONE
 70
     0
 10
0.0
 20
0.0
 30
0.0
  3
_NONE
  1

  0
ENDBLK
  5
158
  8
0
  0
BLOCK
  8
0
  2
_D_3
 70
     0
 10
0.0
 20
0.0
 30
0.0
  3
_D_3
  1

  0
SOLID
  5
15C
  8
0
  6
SLD-实线
 62
     5
 10
46.1082161519807912
 20
43.3551932618642368
 30
0.0
 11
46.9192676300017624
 21
43.9866396174638297
 31
0.0
 12
46.7396625075803769
 22
44.166244739885208
 32
0.0
 13
46.7396625075803769
 23
44.166244739885208
 33
0.0
  0
LINE
  5
15D
  8
0
  6
SLD-实线
 62
     5
 10
46.1082161519807912
 20
43.3551932618642368
 30
0.0
 11
53.3101093173926373
 21
50.5570864272761327
 31
0.0
  0
LINE
  5
15E
  8
0
  6
SLD-实线
 62
     5
 10
46.1082161519807912
 20
43.3551932618642368
 30
0.0
 11
43.845474452183872
 21
41.0924515620673034
 31
0.0
  0
INSERT
  5
15F
  8
0
  2
*U77
 10
0.0
 20
0.0
 30
0.0
  0
INSERT
  5
160
  8
0
  2
*U78
 10
0.0
 20
0.0
 30
0.0
  0
ENDBLK
  5
15B
  8
0
  0
BLOCK
  8
0
  2
_D_4
 70
     0
 10
0.0
 20
0.0
 30
0.0
  3
_D_4
  1

  0
SOLID
  5
165
  8
0
  6
SLD-实线
 62
     5
 10
50.47684530208236
 20
17.2238224119657701
 30
0.0
 11
50.6038453020823695
 21
18.2438224119657697
 31
0.0
 12
50.3498453020823575
 22
18.2438224119657697
 32
0.0
 13
50.3498453020823575
 23
18.2438224119657697
 33
0.0
  0
SOLID
  5
166
  8
0
  6
SLD-实线
 62
     5
 10
50.47684530208236
 20
42.2238224119657701
 30
0.0
 11
50.3498453020823575
 21
41.203822411965767
 31
0.0
 12
50.6038453020823695
 22
41.203822411965767
 32
0.0
 13
50.6038453020823695
 23
41.203822411965767
 33
0.0
  0
LINE
  5
167
  8
0
  6
SLD-实线
 62
     5
 10
44.9768453020823316
 20
17.2238224119657701
 30
0.0
 11
50.9768453020823671
 21
17.2238224119657701
 31
0.0
  0
LINE
  5
168
  8
0
  6
SLD-实线
 62
     5
 10
44.9768453020823316
 20
42.2238224119657701
 30
0.0
 11
50.9768453020823671
 21
42.2238224119657701
 31
0.0
  0
LINE
  5
169
  8
0
  6
SLD-实线
 62
     5
 10
50.47684530208236
 20
17.2238224119657701
 30
0.0
 11
50.47684530208236
 21
42.2238224119657701
 31
0.0
  0
INSERT
  5
16A
  8
0
  2
*U79
 10
0.0
 20
0.0
 30
0.0
  0
ENDBLK
  5
164
  8
0
  0
BLOCK
  8
0
  2
_D_5
 70
     0
 10
0.0
 20
0.0
 30
0.0
  3
_D_5
  1

  0
SOLID
  5
170
  8
0
  6
SLD-实线
 62
     5
 10
43.536992357171961
 20
14.5919364917494399
 30
0.0
 11
42.9360258519466171
 21
13.7580490535437594
 31
0.0
 12
43.1588588598582703
 22
13.6361415042080107
 32
0.0
 13
43.1588588598582703
 23
13.6361415042080107
 33
0.0
  0
LINE
  5
171
  8
0
  6
SLD-实线
 62
     5
 10
43.536992357171961
 20
14.5919364917494399
 30
0.0
 11
41.2480747848089493
 21
10.4080578862762998
 31
0.0
  0
LINE
  5
172
  8
0
  6
SLD-实线
 62
     5
 10
43.536992357171961
 20
14.5919364917494399
 30
0.0
 11
44.9768453020823316
 21
17.2238224119657701
 31
0.0
  0
INSERT
  5
173
  8
0
  2
*U80
 10
0.0
 20
0.0
 30
0.0
  0
ENDBLK
  5
16F
  8
0
  0
BLOCK
  8
0
  2
_D_6
 70
     0
 10
0.0
 20
0.0
 30
0.0
  3
_D_6
  1

  0
SOLID
  5
178
  8
0
  6
SLD-实线
 62
     5
 10
25.9768453020823493
 20
30.7238224119657488
 30
0.0
 11
26.1038453020823518
 21
31.7438224119657484
 31
0.0
 12
25.8498453020823504
 22
31.7438224119657484
 32
0.0
 13
25.8498453020823504
 23
31.7438224119657484
 33
0.0
  0
SOLID
  5
179
  8
0
  6
SLD-实线
 62
     5
 10
25.9768453020823316
 20
42.0838224119657767
 30
0.0
 11
25.8498453020823291
 21
41.0638224119657806
 31
0.0
 12
26.1038453020823304
 22
41.0638224119657806
 32
0.0
 13
26.1038453020823304
 23
41.0638224119657806
 33
0.0
  0
LINE
  5
17A
  8
0
  6
SLD-实线
 62
     5
 10
28.4768453020823387
 20
30.7238224119657595
 30
0.0
 11
25.4768453020823493
 21
30.7238224119657488
 31
0.0
  0
LINE
  5
17B
  8
0
  6
SLD-实线
 62
     5
 10
28.4768453020823209
 20
42.0838224119657909
 30
0.0
 11
25.4768453020823316
 21
42.0838224119657767
 31
0.0
  0
LINE
  5
17C
  8
0
  6
SLD-实线
 62
     5
 10
25.9768453020823493
 20
30.7238224119657488
 30
0.0
 11
25.9768453020823316
 21
42.0838224119657767
 31
0.0
  0
INSERT
  5
17D
  8
0
  2
*U81
 10
0.0
 20
0.0
 30
0.0
  0
ENDBLK
  5
177
  8
0
  0
BLOCK
  8
0
  2
_D_7
 70
     0
 10
0.0
 20
0.0
 30
0.0
  3
_D_7
  1

  0
SOLID
  5
197
  8
0
  6
SLD-实线
 62
     5
 10
53.120342655912971
 20
59.6634677419355199
 30
0.0
 11
53.2473426559129592
 21
60.6834677419355231
 31
0.0
 12
52.9933426559129614
 22
60.6834677419355231
 32
0.0
 13
52.9933426559129614
 23
60.6834677419355231
 33
0.0
  0
SOLID
  5
198
  8
0
  6
SLD-实线
 62
     5
 10
53.120342655912971
 20
58.1634677419355199
 30
0.0
 11
52.9933426559129614
 21
57.1434677419355097
 31
0.0
 12
53.2473426559129592
 22
57.1434677419355097
 32
0.0
 13
53.2473426559129592
 23
57.1434677419355097
 33
0.0
  0
LINE
  5
199
  8
0
  6
SLD-实线
 62
     5
 10
47.9768453020823387
 20
59.6634677419355199
 30
0.0
 11
53.6203426559129568
 21
59.6634677419355199
 31
0.0
  0
LINE
  5
19A
  8
0
  6
SLD-实线
 62
     5
 10
47.9768453020823387
 20
58.1634677419355199
 30
0.0
 11
53.6203426559129568
 21
58.1634677419355199
 31
0.0
  0
LINE
  5
19B
  8
0
  6
SLD-实线
 62
     5
 10
53.120342655912971
 20
59.6634677419355199
 30
0.0
 11
53.120342655912971
 21
61.2509677419355185
 31
0.0
  0
LINE
  5
19C
  8
0
  6
SLD-实线
 62
     5
 10
53.120342655912971
 20
59.6634677419355199
 30
0.0
 11
53.120342655912971
 21
58.1634677419355199
 31
0.0
  0
LINE
  5
19D
  8
0
  6
SLD-实线
 62
     5
 10
53.120342655912971
 20
58.1634677419355199
 30
0.0
 11
53.120342655912971
 21
54.6394493537933315
 31
0.0
  0
INSERT
  5
19E
  8
0
  2
*U82
 10
0.0
 20
0.0
 30
0.0
  0
ENDBLK
  5
196
  8
0
  0
BLOCK
  8
0
  2
_D_8
 70
     0
 10
0.0
 20
0.0
 30
0.0
  3
_D_8
  1

  0
SOLID
  5
1A3
  8
0
  6
SLD-实线
 62
     5
 10
28.4768453020823316
 20
53.3592554548475491
 30
0.0
 11
27.4568453020823284
 21
53.4862554548475586
 31
0.0
 12
27.4568453020823284
 22
53.2322554548475466
 32
0.0
 13
27.4568453020823284
 23
53.2322554548475466
 33
0.0
  0
SOLID
  5
1A4
  8
0
  6
SLD-实线
 62
     5
 10
29.9768453020823316
 20
53.3592554548475491
 30
0.0
 11
30.9968453020823311
 21
53.2322554548475466
 31
0.0
 12
30.9968453020823311
 22
53.4862554548475586
 32
0.0
 13
30.9968453020823311
 23
53.4862554548475586
 33
0.0
  0
LINE
  5
1A5
  8
0
  6
SLD-实线
 62
     5
 10
28.4768453020823387
 20
59.6634677419354986
 30
0.0
 11
28.4768453020823316
 21
52.8592554548475491
 31
0.0
  0
LINE
  5
1A6
  8
0
  6
SLD-实线
 62
     5
 10
29.9768453020823316
 20
58.1634677419355199
 30
0.0
 11
29.9768453020823316
 21
52.8592554548475491
 31
0.0
  0
LINE
  5
1A7
  8
0
  6
SLD-实线
 62
     5
 10
28.4768453020823316
 20
53.3592554548475491
 30
0.0
 11
23.0383954197407483
 21
53.3592554548475491
 31
0.0
  0
LINE
  5
1A8
  8
0
  6
SLD-实线
 62
     5
 10
28.4768453020823316
 20
53.3592554548475491
 30
0.0
 11
29.9768453020823316
 21
53.3592554548475491
 31
0.0
  0
LINE
  5
1A9
  8
0
  6
SLD-实线
 62
     5
 10
29.9768453020823316
 20
53.3592554548475491
 30
0.0
 11
31.5643453020823408
 21
53.3592554548475491
 31
0.0
  0
INSERT
  5
1AA
  8
0
  2
*U83
 10
0.0
 20
0.0
 30
0.0
  0
ENDBLK
  5
1A2
  8
0
  0
BLOCK
  8
0
  2
_D_9
 70
     0
 10
0.0
 20
0.0
 30
0.0
  3
_D_9
  1

  0
SOLID
  5
1B0
  8
0
  6
SLD-实线
 62
     5
 10
23.5065253360889201
 20
68.1634677419355057
 30
0.0
 11
23.3795253360889213
 21
67.1434677419354955
 31
0.0
 12
23.633525336088919
 22
67.1434677419354955
 32
0.0
 13
23.633525336088919
 23
67.1434677419354955
 33
0.0
  0
SOLID
  5
1B1
  8
0
  6
SLD-实线
 62
     5
 10
23.5065253360889308
 20
59.6634677419354915
 30
0.0
 11
23.633525336088919
 21
60.6834677419355017
 31
0.0
 12
23.3795253360889284
 22
60.6834677419355017
 32
0.0
 13
23.3795253360889284
 23
60.6834677419355017
 33
0.0
  0
LINE
  5
1B2
  8
0
  6
SLD-实线
 62
     5
 10
30.0768453020823188
 20
68.1634677419355199
 30
0.0
 11
23.0065253360889201
 21
68.1634677419355057
 31
0.0
  0
LINE
  5
1B3
  8
0
  6
SLD-实线
 62
     5
 10
28.4768453020823387
 20
59.6634677419354986
 30
0.0
 11
23.0065253360889308
 21
59.6634677419354915
 31
0.0
  0
LINE
  5
1B4
  8
0
  6
SLD-实线
 62
     5
 10
23.5065253360889201
 20
68.1634677419355057
 30
0.0
 11
23.5065253360889308
 21
59.6634677419354915
 31
0.0
  0
INSERT
  5
1B5
  8
0
  2
*U84
 10
0.0
 20
0.0
 30
0.0
  0
ENDBLK
  5
1AF
  8
0
  0
BLOCK
  8
0
  2
_D_10
 70
     0
 10
0.0
 20
0.0
 30
0.0
  3
_D_10
  1

  0
SOLID
  5
1BA
  8
0
  6
SLD-实线
 62
     5
 10
28.4768453020823387
 20
70.2368292050610989
 30
0.0
 11
29.4968453020823382
 21
70.1098292050611036
 31
0.0
 12
29.4968453020823382
 22
70.3638292050610943
 32
0.0
 13
29.4968453020823382
 23
70.3638292050610943
 33
0.0
  0
SOLID
  5
1BB
  8
0
  6
SLD-实线
 62
     5
 10
40.4768453020823529
 20
70.2368292050610989
 30
0.0
 11
39.4568453020823569
 21
70.3638292050610943
 31
0.0
 12
39.4568453020823569
 22
70.1098292050611036
 32
0.0
 13
39.4568453020823569
 23
70.1098292050611036
 33
0.0
  0
LINE
  5
1BC
  8
0
  6
SLD-实线
 62
     5
 10
28.4768453020823387
 20
67.3634677419355228
 30
0.0
 11
28.4768453020823387
 21
70.7368292050610989
 31
0.0
  0
LINE
  5
1BD
  8
0
  6
SLD-实线
 62
     5
 10
40.4768453020823529
 20
67.3634677419355228
 30
0.0
 11
40.4768453020823529
 21
70.7368292050610989
 31
0.0
  0
LINE
  5
1BE
  8
0
  6
SLD-实线
 62
     5
 10
28.4768453020823387
 20
70.2368292050610989
 30
0.0
 11
40.4768453020823529
 21
70.2368292050610989
 31
0.0
  0
INSERT
  5
1BF
  8
0
  2
*U85
 10
0.0
 20
0.0
 30
0.0
  0
ENDBLK
  5
1B9
  8
0
  0
BLOCK
  8
0
  2
*U14
 70
     1
 10
0.0
 20
0.0
 30
0.0
  3
*U14
  1

  0
TEXT
  5
281
  8
0
 62
     7
 10
3.46642098272706
 20
10.8195506027479098
 30
0.0
 40
0.79375
  1
技术要求：
  7
SLDTEXTSTYLE0
  0
TEXT
  5
282
  8
0
 62
     7
 10
3.421063839869916
 20
9.3333482217955321
 30
0.0
 40
0.79375
  1
1、去锐角，去毛刺。
  7
SLDTEXTSTYLE0
  0
TEXT
  5
283
  8
0
 62
     7
 10
3.493635268441345
 20
7.8471458408431518
 30
0.0
 40
0.79375
  1
2、未注倒角C0.5，未注圆角R0.5。
  7
SLDTEXTSTYLE0
  0
TEXT
  5
284
  8
0
 62
     7
 10
3.4845638398699168
 20
6.3609434598907706
 30
0.0
 40
0.79375
  1
3、未注尺寸公差按照GB/T1804-92m级。
  7
SLDTEXTSTYLE0
  0
TEXT
  5
285
  8
0
 62
     7
 10
3.5117781255842022
 20
4.8747410789383903
 30
0.0
 40
0.79375
  1
4、表面阳极氧化。
  7
SLDTEXTSTYLE0
  0
ENDBLK
  5
287
  8
0
  0
BLOCK
  8
0
  2
*U15
 70
     1
 10
0.0
 20
0.0
 30
0.0
  3
*U15
  1

  0
TEXT
  5
289
  8
0
 62
     7
 10
56.1430188286240011
 20
4.1782014168313948
 30
0.0
 40
0.5953125
  1
A1
 41
0.8
  7
SLDTEXTSTYLE1
  0
ENDBLK
  5
28B
  8
0
  0
BLOCK
  8
0
  2
*U16
 70
     1
 10
0.0
 20
0.0
 30
0.0
  3
*U16
  1

  0
TEXT
  5
28D
  8
0
 62
     7
 10
64.3095551315167739
 20
4.1284055267559339
 30
0.0
 40
0.5953125
  1
审核
 41
0.8
  7
SLDTEXTSTYLE2
  0
ENDBLK
  5
28F
  8
0
  0
BLOCK
  8
0
  2
*U17
 70
     1
 10
0.0
 20
0.0
 30
0.0
  3
*U17
  1

  0
TEXT
  5
291
  8
0
 62
     7
 10
57.4775163635108584
 20
2.7724937909892242
 30
0.0
 40
0.5953125
  1
变更内容
 41
0.8
  7
SLDTEXTSTYLE2
  0
ENDBLK
  5
293
  8
0
  0
BLOCK
  8
0
  2
*U18
 70
     1
 10
0.0
 20
0.0
 30
0.0
  3
*U18
  1

  0
TEXT
  5
295
  8
0
 62
     7
 10
64.3162066678296043
 20
5.4787221006748261
 30
0.0
 40
0.5953125
  1
设计
 41
0.8
  7
SLDTEXTSTYLE2
  0
ENDBLK
  5
297
  8
0
  0
BLOCK
  8
0
  2
*U19
 70
     1
 10
0.0
 20
0.0
 30
0.0
  3
*U19
  1

  0
TEXT
  5
299
  8
0
 62
     7
 10
61.0814725536723913
 20
2.7849583240518041
 30
0.0
 40
0.5953125
  1
日   期
 41
0.8
  7
SLDTEXTSTYLE2
  0
ENDBLK
  5
29B
  8
0
  0
BLOCK
  8
0
  2
*U20
 70
     1
 10
0.0
 20
0.0
 30
0.0
  3
*U20
  1

  0
TEXT
  5
29D
  8
0
 62
     7
 10
57.477516363510837
 20
4.0751026039822342
 30
0.0
 40
0.5953125
  1
加工发行
 41
0.8
  7
SLDTEXTSTYLE2
  0
ENDBLK
  5
29F
  8
0
  0
BLOCK
  8
0
  2
*U21
 70
     1
 10
0.0
 20
0.0
 30
0.0
  3
*U21
  1

  0
TEXT
  5
2A1
  8
0
 62
     7
 10
64.3241885114051541
 20
2.84565465433288
 30
0.0
 40
0.5953125
  1
批准
 41
0.8
  7
SLDTEXTSTYLE2
  0
ENDBLK
  5
2A3
  8
0
  0
BLOCK
  8
0
  2
*U22
 70
     1
 10
0.0
 20
0.0
 30
0.0
  3
*U22
  1

  0
TEXT
  5
2A5
  8
0
 62
     7
 10
55.7853704722784016
 20
2.7749810195825289
 30
0.0
 40
0.5953125
  1
版本
 41
0.8
  7
SLDTEXTSTYLE2
  0
ENDBLK
  5
2A7
  8
0
  0
BLOCK
  8
0
  2
*U23
 70
     1
 10
0.0
 20
0.0
 30
0.0
  3
*U23
  1

  0
TEXT
  5
2A9
  8
0
 62
     7
 10
60.7960137435889294
 20
4.1116860464269456
 30
0.0
 40
0.5953125
  1
2025/7/21
 41
0.8
  7
SLDTEXTSTYLE1
  0
ENDBLK
  5
2AB
  8
0
  0
BLOCK
  8
0
  2
*U24
 70
     1
 10
0.0
 20
0.0
 30
0.0
  3
*U24
  1

  0
TEXT
  5
2AD
  8
0
 62
     7
 10
90.3233625623271337
 20
4.4113290325140957
 30
0.0
 40
0.875
  1
第  张
  7
SLDTEXTSTYLE3
  0
ENDBLK
  5
2AF
  8
0
  0
BLOCK
  8
0
  2
*U25
 70
     1
 10
0.0
 20
0.0
 30
0.0
  3
*U25
  1

  0
TEXT
  5
2B1
  8
0
 62
     7
 10
86.3415335148290666
 20
4.4211055688269383
 30
0.0
 40
0.875
  1
共  张
  7
SLDTEXTSTYLE3
  0
ENDBLK
  5
2B3
  8
0
  0
BLOCK
  8
0
  2
*U26
 70
     1
 10
0.0
 20
0.0
 30
0.0
  3
*U26
  1

  0
TEXT
  5
2B5
  8
0
 62
     7
 10
99.5718227755581893
 20
6.1545235192124856
 30
0.0
 40
0.875
  1
4:1
  7
SLDTEXTSTYLE0
  0
ENDBLK
  5
2B7
  8
0
  0
BLOCK
  8
0
  2
*U27
 70
     1
 10
0.0
 20
0.0
 30
0.0
  3
*U27
  1

  0
TEXT
  5
2B9
  8
0
 62
     7
 10
99.3625519344328012
 20
7.4422772155273771
 30
0.0
 40
0.875
  1
比例
  7
SLDTEXTSTYLE0
  0
ENDBLK
  5
2BB
  8
0
  0
BLOCK
  8
0
  2
*U28
 70
     1
 10
0.0
 20
0.0
 30
0.0
  3
*U28
  1

  0
TEXT
  5
2BD
  8
0
 62
     7
 10
73.1284153293844668
 20
8.4512804390174416
 30
0.0
 40
0.875
  1
零件名称：
  7
SLDTEXTSTYLE3
  0
ENDBLK
  5
2BF
  8
0
  0
BLOCK
  8
0
  2
*U29
 70
     1
 10
0.0
 20
0.0
 30
0.0
  3
*U29
  1

  0
TEXT
  5
2C1
  8
0
 62
     7
 10
73.158254074924784
 20
6.5585013252070183
 30
0.0
 40
0.875
  1
材    质：
  7
SLDTEXTSTYLE3
  0
ENDBLK
  5
2C3
  8
0
  0
BLOCK
  8
0
  2
*U30
 70
     1
 10
0.0
 20
0.0
 30
0.0
  3
*U30
  1

  0
TEXT
  5
2C5
  8
0
 62
     7
 10
93.731638531059005
 20
7.4501843127228637
 30
0.0
 40
0.875
  1
重量(Kg)
  7
SLDTEXTSTYLE3
  0
ENDBLK
  5
2C7
  8
0
  0
BLOCK
  8
0
  2
*U31
 70
     1
 10
0.0
 20
0.0
 30
0.0
  3
*U31
  1

  0
TEXT
  5
2C9
  8
0
 62
     7
 10
86.295469989725774
 20
7.430631240097167
 30
0.0
 40
0.875
  1
图样标记
  7
SLDTEXTSTYLE3
  0
ENDBLK
  5
2CB
  8
0
  0
BLOCK
  8
0
  2
*U32
 70
     1
 10
0.0
 20
0.0
 30
0.0
  3
*U32
  1

  0
TEXT
  5
2CD
  8
0
 62
     7
 10
94.2769281068379144
 20
4.4113290325141037
 30
0.0
 40
0.875
  1
表面积
  7
SLDTEXTSTYLE3
  0
ENDBLK
  5
2CF
  8
0
  0
BLOCK
  8
0
  2
*U33
 70
     1
 10
0.0
 20
0.0
 30
0.0
  3
*U33
  1

  0
TEXT
  5
2D1
  8
0
 62
     7
 10
73.1260395030824242
 20
4.739248091401393
 30
0.0
 40
0.875
  1
表面处理：
  7
SLDTEXTSTYLE3
  0
ENDBLK
  5
2D3
  8
0
  0
BLOCK
  8
0
  2
*U34
 70
     1
 10
0.0
 20
0.0
 30
0.0
  3
*U34
  1

  0
TEXT
  5
2D5
  8
0
 62
     7
 10
91.4679438492713786
 20
7.4355195082535914
 30
0.0
 40
0.875
  1
数量
  7
SLDTEXTSTYLE3
  0
ENDBLK
  5
2D7
  8
0
  0
BLOCK
  8
0
  2
*U35
 70
     1
 10
0.0
 20
0.0
 30
0.0
  3
*U35
  1

  0
TEXT
  5
2D9
  8
0
 62
     7
 10
73.117700464103109
 20
2.7460041147582119
 30
0.0
 40
0.875
  1
主轴转接板
  7
SLDTEXTSTYLE3
  0
ENDBLK
  5
2DB
  8
0
  0
BLOCK
  8
0
  2
*U36
 70
     1
 10
0.0
 20
0.0
 30
0.0
  3
*U36
  1

  0
TEXT
  5
2DD
  8
0
 62
     7
 10
0.9107346728020587
 20
6.9487186263998337
 30
0.0
 40
0.9921874999999998
  1
F
 41
0.913
  7
SLDTEXTSTYLE6
  0
ENDBLK
  5
2DF
  8
0
  0
BLOCK
  8
0
  2
*U37
 70
     1
 10
0.0
 20
0.0
 30
0.0
  3
*U37
  1

  0
TEXT
  5
2E1
  8
0
 62
     7
 10
103.4107346728019934
 20
6.948718626399832
 30
0.0
 40
0.9921874999999998
  1
F
 41
0.913
  7
SLDTEXTSTYLE6
  0
ENDBLK
  5
2E3
  8
0
  0
BLOCK
  8
0
  2
*U38
 70
     1
 10
0.0
 20
0.0
 30
0.0
  3
*U38
  1

  0
TEXT
  5
2E5
  8
0
 62
     7
 10
0.9284282307380012
 20
18.0112186263998311
 30
0.0
 40
0.9921874999999998
  1
E
 41
0.913
  7
SLDTEXTSTYLE6
  0
ENDBLK
  5
2E7
  8
0
  0
BLOCK
  8
0
  2
*U39
 70
     1
 10
0.0
 20
0.0
 30
0.0
  3
*U39
  1

  0
TEXT
  5
2E9
  8
0
 62
     7
 10
103.4284282307380067
 20
18.0112186263998311
 30
0.0
 40
0.9921874999999998
  1
E
 41
0.913
  7
SLDTEXTSTYLE6
  0
ENDBLK
  5
2EB
  8
0
  0
BLOCK
  8
0
  2
*U40
 70
     1
 10
0.0
 20
0.0
 30
0.0
  3
*U40
  1

  0
TEXT
  5
2ED
  8
0
 62
     7
 10
0.9224124008859481
 20
30.5112186263998417
 30
0.0
 40
0.9921874999999998
  1
D
 41
0.913
  7
SLDTEXTSTYLE6
  0
ENDBLK
  5
2EF
  8
0
  0
BLOCK
  8
0
  2
*U41
 70
     1
 10
0.0
 20
0.0
 30
0.0
  3
*U41
  1

  0
TEXT
  5
2F1
  8
0
 62
     7
 10
103.4224124008859036
 20
30.5112186263998311
 30
0.0
 40
0.9921874999999998
  1
D
 41
0.913
  7
SLDTEXTSTYLE6
  0
ENDBLK
  5
2F3
  8
0
  0
BLOCK
  8
0
  2
*U42
 70
     1
 10
0.0
 20
0.0
 30
0.0
  3
*U42
  1

  0
TEXT
  5
2F5
  8
0
 62
     7
 10
0.9161407299579254
 20
43.0112186263998311
 30
0.0
 40
0.9921874999999998
  1
C
 41
0.913
  7
SLDTEXTSTYLE6
  0
ENDBLK
  5
2F7
  8
0
  0
BLOCK
  8
0
  2
*U43
 70
     1
 10
0.0
 20
0.0
 30
0.0
  3
*U43
  1

  0
TEXT
  5
2F9
  8
0
 62
     7
 10
103.4161407299579025
 20
43.0112186263998311
 30
0.0
 40
0.9921874999999998
  1
C
 41
0.913
  7
SLDTEXTSTYLE6
  0
ENDBLK
  5
2FB
  8
0
  0
BLOCK
  8
0
  2
*U44
 70
     1
 10
0.0
 20
0.0
 30
0.0
  3
*U44
  1

  0
TEXT
  5
2FD
  8
0
 62
     7
 10
0.9294792283494878
 20
55.5112186263998382
 30
0.0
 40
0.9921874999999998
  1
B
 41
0.913
  7
SLDTEXTSTYLE6
  0
ENDBLK
  5
2FF
  8
0
  0
BLOCK
  8
0
  2
*U45
 70
     1
 10
0.0
 20
0.0
 30
0.0
  3
*U45
  1

  0
TEXT
  5
301
  8
0
 62
     7
 10
103.429479228349507
 20
55.5112186263998169
 30
0.0
 40
0.9921874999999998
  1
B
 41
0.913
  7
SLDTEXTSTYLE6
  0
ENDBLK
  5
303
  8
0
  0
BLOCK
  8
0
  2
*U46
 70
     1
 10
0.0
 20
0.0
 30
0.0
  3
*U46
  1

  0
TEXT
  5
305
  8
0
 62
     7
 10
0.8915744240832539
 20
66.573718626399824
 30
0.0
 40
0.9921874999999998
  1
A
 41
0.913
  7
SLDTEXTSTYLE6
  0
ENDBLK
  5
307
  8
0
  0
BLOCK
  8
0
  2
*U47
 70
     1
 10
0.0
 20
0.0
 30
0.0
  3
*U47
  1

  0
TEXT
  5
309
  8
0
 62
     7
 10
103.3915744240832026
 20
66.573718626399824
 30
0.0
 40
0.9921874999999998
  1
A
 41
0.913
  7
SLDTEXTSTYLE6
  0
ENDBLK
  5
30B
  8
0
  0
BLOCK
  8
0
  2
*U48
 70
     1
 10
0.0
 20
0.0
 30
0.0
  3
*U48
  1

  0
TEXT
  5
30D
  8
0
 62
     7
 10
8.4061324732222911
 20
0.886218626399835
 30
0.0
 40
0.9921874999999998
  1
1
 41
0.913
  7
SLDTEXTSTYLE6
  0
ENDBLK
  5
30F
  8
0
  0
BLOCK
  8
0
  2
*U49
 70
     1
 10
0.0
 20
0.0
 30
0.0
  3
*U49
  1

  0
TEXT
  5
311
  8
0
 62
     7
 10
8.4061324732222911
 20
72.636218626399824
 30
0.0
 40
0.9921874999999998
  1
1
 41
0.913
  7
SLDTEXTSTYLE6
  0
ENDBLK
  5
313
  8
0
  0
BLOCK
  8
0
  2
*U50
 70
     1
 10
0.0
 20
0.0
 30
0.0
  3
*U50
  1

  0
TEXT
  5
315
  8
0
 62
     7
 10
20.9216616250079994
 20
0.8862186263998346
 30
0.0
 40
0.9921874999999998
  1
2
 41
0.913
  7
SLDTEXTSTYLE6
  0
ENDBLK
  5
317
  8
0
  0
BLOCK
  8
0
  2
*U51
 70
     1
 10
0.0
 20
0.0
 30
0.0
  3
*U51
  1

  0
TEXT
  5
319
  8
0
 62
     7
 10
20.9216616250080101
 20
72.636218626399824
 30
0.0
 40
0.9921874999999998
  1
2
 41
0.913
  7
SLDTEXTSTYLE6
  0
ENDBLK
  5
31B
  8
0
  0
BLOCK
  8
0
  2
*U52
 70
     1
 10
0.0
 20
0.0
 30
0.0
  3
*U52
  1

  0
TEXT
  5
31D
  8
0
 62
     7
 10
33.4164852410794424
 20
0.8862186263998347
 30
0.0
 40
0.9921874999999998
  1
3
 41
0.913
  7
SLDTEXTSTYLE6
  0
ENDBLK
  5
31F
  8
0
  0
BLOCK
  8
0
  2
*U53
 70
     1
 10
0.0
 20
0.0
 30
0.0
  3
*U53
  1

  0
TEXT
  5
321
  8
0
 62
     7
 10
33.4164852410794424
 20
72.636218626399824
 30
0.0
 40
0.9921874999999998
  1
3
 41
0.913
  7
SLDTEXTSTYLE6
  0
ENDBLK
  5
323
  8
0
  0
BLOCK
  8
0
  2
*U54
 70
     1
 10
0.0
 20
0.0
 30
0.0
  3
*U54
  1

  0
TEXT
  5
325
  8
0
 62
     7
 10
45.9138970491151497
 20
0.8862186263998346
 30
0.0
 40
0.9921874999999998
  1
4
 41
0.913
  7
SLDTEXTSTYLE6
  0
ENDBLK
  5
327
  8
0
  0
BLOCK
  8
0
  2
*U55
 70
     1
 10
0.0
 20
0.0
 30
0.0
  3
*U55
  1

  0
TEXT
  5
329
  8
0
 62
     7
 10
45.9138970491151497
 20
72.636218626399824
 30
0.0
 40
0.9921874999999998
  1
4
 41
0.913
  7
SLDTEXTSTYLE6
  0
ENDBLK
  5
32B
  8
0
  0
BLOCK
  8
0
  2
*U56
 70
     1
 10
0.0
 20
0.0
 30
0.0
  3
*U56
  1

  0
TEXT
  5
32D
  8
0
 62
     7
 10
58.4164852410794282
 20
0.8862186263998346
 30
0.0
 40
0.9921874999999998
  1
5
 41
0.913
  7
SLDTEXTSTYLE6
  0
ENDBLK
  5
32F
  8
0
  0
BLOCK
  8
0
  2
*U57
 70
     1
 10
0.0
 20
0.0
 30
0.0
  3
*U57
  1

  0
TEXT
  5
331
  8
0
 62
     7
 10
58.4164852410794211
 20
72.636218626399824
 30
0.0
 40
0.9921874999999998
  1
5
 41
0.913
  7
SLDTEXTSTYLE6
  0
ENDBLK
  5
333
  8
0
  0
BLOCK
  8
0
  2
*U58
 70
     1
 10
0.0
 20
0.0
 30
0.0
  3
*U58
  1

  0
TEXT
  5
335
  8
0
 62
     7
 10
70.9164852410794566
 20
0.8862186263998347
 30
0.0
 40
0.9921874999999998
  1
6
 41
0.913
  7
SLDTEXTSTYLE6
  0
ENDBLK
  5
337
  8
0
  0
BLOCK
  8
0
  2
*U59
 70
     1
 10
0.0
 20
0.0
 30
0.0
  3
*U59
  1

  0
TEXT
  5
339
  8
0
 62
     7
 10
70.9164852410794566
 20
72.636218626399824
 30
0.0
 40
0.9921874999999998
  1
6
 41
0.913
  7
SLDTEXTSTYLE6
  0
ENDBLK
  5
33B
  8
0
  0
BLOCK
  8
0
  2
*U60
 70
     1
 10
0.0
 20
0.0
 30
0.0
  3
*U60
  1

  0
TEXT
  5
33D
  8
0
 62
     7
 10
83.411308857150857
 20
0.8862186263998346
 30
0.0
 40
0.9921874999999998
  1
7
 41
0.913
  7
SLDTEXTSTYLE6
  0
ENDBLK
  5
33F
  8
0
  0
BLOCK
  8
0
  2
*U61
 70
     1
 10
0.0
 20
0.0
 30
0.0
  3
*U61
  1

  0
TEXT
  5
341
  8
0
 62
     7
 10
83.411308857150857
 20
72.636218626399824
 30
0.0
 40
0.9921874999999998
  1
7
 41
0.913
  7
SLDTEXTSTYLE6
  0
ENDBLK
  5
343
  8
0
  0
BLOCK
  8
0
  2
*U62
 70
     1
 10
0.0
 20
0.0
 30
0.0
  3
*U62
  1

  0
TEXT
  5
345
  8
0
 62
     7
 10
95.9242498169723063
 20
0.8862186263998346
 30
0.0
 40
0.9921874999999998
  1
8
 41
0.913
  7
SLDTEXTSTYLE6
  0
ENDBLK
  5
347
  8
0
  0
BLOCK
  8
0
  2
*U63
 70
     1
 10
0.0
 20
0.0
 30
0.0
  3
*U63
  1

  0
TEXT
  5
349
  8
0
 62
     7
 10
95.9242498169723063
 20
72.6362186263998098
 30
0.0
 40
0.9921874999999998
  1
8
 41
0.913
  7
SLDTEXTSTYLE6
  0
ENDBLK
  5
34B
  8
0
  0
BLOCK
  8
0
  2
*U64
 70
     1
 10
0.0
 20
0.0
 30
0.0
  3
*U64
  1

  0
TEXT
  5
34D
  8
0
 62
     0
 10
0.5642234195925936
 20
-1.3270516899261939
 30
0.0
 40
0.875
  1
项目号
  7
SLDTEXTSTYLE3
  0
ENDBLK
  5
34F
  8
0
  0
BLOCK
  8
0
  2
*U65
 70
     1
 10
0.0
 20
0.0
 30
0.0
  3
*U65
  1

  0
TEXT
  5
351
  8
0
 62
     0
 10
8.7153672211094957
 20
-1.336828226239043
 30
0.0
 40
0.875
  1
零件号
  7
SLDTEXTSTYLE3
  0
ENDBLK
  5
353
  8
0
  0
BLOCK
  8
0
  2
*U66
 70
     1
 10
0.0
 20
0.0
 30
0.0
  3
*U66
  1

  0
TEXT
  5
355
  8
0
 62
     0
 10
21.4200878330738504
 20
-1.336828226239043
 30
0.0
 40
0.875
  1
说明
  7
SLDTEXTSTYLE3
  0
ENDBLK
  5
357
  8
0
  0
BLOCK
  8
0
  2
*U67
 70
     1
 10
0.0
 20
0.0
 30
0.0
  3
*U67
  1

  0
TEXT
  5
359
  8
0
 62
     0
 10
29.4426342924174307
 20
-1.336828226239043
 30
0.0
 40
0.875
  1
数量
  7
SLDTEXTSTYLE3
  0
ENDBLK
  5
35B
  8
0
  0
BLOCK
  8
0
  2
*U68
 70
     1
 10
0.0
 20
0.0
 30
0.0
  3
*U68
  1

  0
TEXT
  5
35D
  8
0
 62
     0
 10
1.7639028913803969
 20
-2.6961932529497838
 30
0.0
 40
0.875
  1
1
  7
SLDTEXTSTYLE7
  0
ENDBLK
  5
35F
  8
0
  0
BLOCK
  8
0
  2
*U69
 70
     1
 10
0.0
 20
0.0
 30
0.0
  3
*U69
  1

  0
TEXT
  5
361
  8
0
 62
     0
 10
4.3819792241705189
 20
-2.8477295657989461
 30
0.0
 40
0.875
  1
2EDGVC-5.08封口直角-2P
  7
SLDTEXTSTYLE3
  0
ENDBLK
  5
363
  8
0
  0
BLOCK
  8
0
  2
*U70
 70
     1
 10
0.0
 20
0.0
 30
0.0
  3
*U70
  1

  0
TEXT
  5
365
  8
0
 62
     0
 10
30.2015480858169205
 20
-2.6961932529497838
 30
0.0
 40
0.875
  1
2
  7
SLDTEXTSTYLE7
  0
ENDBLK
  5
367
  8
0
  0
BLOCK
  8
0
  2
*U71
 70
     1
 10
0.0
 20
0.0
 30
0.0
  3
*U71
  1

  0
TEXT
  5
369
  8
0
 62
     0
 10
1.84211518188319
 20
-4.2070945925096881
 30
0.0
 40
0.875
  1
2
  7
SLDTEXTSTYLE7
  0
ENDBLK
  5
36B
  8
0
  0
BLOCK
  8
0
  2
*U72
 70
     1
 10
0.0
 20
0.0
 30
0.0
  3
*U72
  1

  0
TEXT
  5
36D
  8
0
 62
     0
 10
4.4161971012654924
 20
-4.3635191735152752
 30
0.0
 40
0.875
  1
PCB输出转接板_1
  7
SLDTEXTSTYLE3
  0
ENDBLK
  5
36F
  8
0
  0
BLOCK
  8
0
  2
*U73
 70
     1
 10
0.0
 20
0.0
 30
0.0
  3
*U73
  1

  0
TEXT
  5
371
  8
0
 62
     0
 10
30.1233357953141301
 20
-4.2070945925096881
 30
0.0
 40
0.875
  1
1
  7
SLDTEXTSTYLE7
  0
ENDBLK
  5
373
  8
0
  0
BLOCK
  8
0
  2
*U74
 70
     1
 10
0.0
 20
0.0
 30
0.0
  3
*U74
  1

  0
TEXT
  5
375
  8
0
 62
     5
 10
24.3336635421081695
 20
29.151073551561641
 30
0.0
 40
0.875
  1
25
 50
90.0000000000003979
  7
SLDTEXTSTYLE7
  0
ENDBLK
  5
377
  8
0
  0
BLOCK
  8
0
  2
*U75
 70
     1
 10
0.0
 20
0.0
 30
0.0
  3
*U75
  1

  0
TEXT
  5
379
  8
0
 62
     5
 10
38.3258841511754014
 20
47.867004171939918
 30
0.0
 40
0.875
  1
18
 50
359.9999999999996021
  7
SLDTEXTSTYLE7
  0
ENDBLK
  5
37B
  8
0
  0
BLOCK
  8
0
  2
*U76
 70
     1
 10
0.0
 20
0.0
 30
0.0
  3
*U76
  1

  0
TEXT
  5
37D
  8
0
 62
     5
 10
53.3336635421081624
 20
29.1412970152487993
 30
0.0
 40
0.875
  1
31
 50
90.0000000000003979
  7
SLDTEXTSTYLE7
  0
ENDBLK
  5
37F
  8
0
  0
BLOCK
  8
0
  2
*U77
 70
     1
 10
0.0
 20
0.0
 30
0.0
  3
*U77
  1

  0
TEXT
  5
381
  8
0
 62
     5
 10
51.057299417993427
 20
48.5058869545891014
 30
0.0
 40
0.875
  1
\U+00D8
 50
45.0000000000000995
  7
SLDTEXTSTYLE7
  0
ENDBLK
  5
383
  8
0
  0
BLOCK
  8
0
  2
*U78
 70
     1
 10
0.0
 20
0.0
 30
0.0
  3
*U78
  1

  0
TEXT
  5
385
  8
0
 62
     5
 10
51.7172172525427101
 20
49.1658047891383774
 30
0.0
 40
0.875
  1
3.20
 50
45.0000000000000995
  7
SLDTEXTSTYLE7
  0
ENDBLK
  5
387
  8
0
  0
BLOCK
  8
0
  2
*U79
 70
     1
 10
0.0
 20
0.0
 30
0.0
  3
*U79
  1

  0
TEXT
  5
389
  8
0
 62
     5
 10
50.3336635421081908
 20
29.151073551561641
 30
0.0
 40
0.875
  1
25
 50
90.0
  7
SLDTEXTSTYLE7
  0
ENDBLK
  5
38B
  8
0
  0
BLOCK
  8
0
  2
*U80
 70
     1
 10
0.0
 20
0.0
 30
0.0
  3
*U80
  1

  0
TEXT
  5
38D
  8
0
 62
     5
 10
41.1047825368190018
 20
10.4418744467941202
 30
0.0
 40
0.875
  1
R3
 50
61.3177994030525326
  7
SLDTEXTSTYLE7
  0
ENDBLK
  5
38F
  8
0
  0
BLOCK
  8
0
  2
*U81
 70
     1
 10
0.0
 20
0.0
 30
0.0
  3
*U81
  1

  0
TEXT
  5
391
  8
0
 62
     5
 10
25.8336635421081802
 20
34.9890592286067701
 30
0.0
 40
0.875
  1
11.36
 50
90.0000000000000711
  7
SLDTEXTSTYLE7
  0
ENDBLK
  5
393
  8
0
  0
BLOCK
  8
0
  2
*U82
 70
     1
 10
0.0
 20
0.0
 30
0.0
  3
*U82
  1

  0
TEXT
  5
395
  8
0
 62
     5
 10
52.9771608959388018
 20
54.4976895772570202
 30
0.0
 40
0.875
  1
1.50
 50
90.0000000000003979
  7
SLDTEXTSTYLE7
  0
ENDBLK
  5
397
  8
0
  0
BLOCK
  8
0
  2
*U83
 70
     1
 10
0.0
 20
0.0
 30
0.0
  3
*U83
  1

  0
TEXT
  5
399
  8
0
 62
     5
 10
22.8966356432044513
 20
53.5024372148217111
 30
0.0
 40
0.875
  1
1.50
 50
0.0000000000007493
  7
SLDTEXTSTYLE7
  0
ENDBLK
  5
39B
  8
0
  0
BLOCK
  8
0
  2
*U84
 70
     1
 10
0.0
 20
0.0
 30
0.0
  3
*U84
  1

  0
TEXT
  5
39D
  8
0
 62
     5
 10
23.3633435761147901
 20
62.0103487437315479
 30
0.0
 40
0.875
  1
8.50
 50
90.0000000000004832
  7
SLDTEXTSTYLE7
  0
ENDBLK
  5
39F
  8
0
  0
BLOCK
  8
0
  2
*U85
 70
     1
 10
0.0
 20
0.0
 30
0.0
  3
*U85
  1

  0
TEXT
  5
3A1
  8
0
 62
     5
 10
34.0742766453488173
 20
70.3800109650352539
 30
0.0
 40
0.875
  1
12
 50
0.0000000000007493
  7
SLDTEXTSTYLE7
  0
ENDBLK
  5
3A3
  8
0
  0
ENDSEC
  0
SECTION
  2
ENTITIES
  0
LINE
  5
6D
  8
0
  6
SLD-实线
 62
     7
 10
55.7725059649967108
 20
5.1500031316618671
 30
0.0
 11
64.2792926095138881
 21
5.1500031316618671
 31
0.0
  0
LINE
  5
6E
  8
0
  6
SLD-实线
 62
     7
 10
90.088879577542869
 20
5.6234567018072541
 30
0.0
 11
90.088879577542869
 21
4.1092405187717658
 31
0.0
  0
LINE
  5
6F
  8
0
  6
SLD-实线
 62
     7
 10
57.3243980757251066
 20
5.1500031316618671
 30
0.0
 11
57.3243980757251066
 21
2.498894275957813
 31
0.0
  0
LINE
  5
70
  8
0
  6
SLD-实线
 62
     7
 10
60.7643985255557268
 20
5.1500031316618671
 30
0.0
 11
60.7643985255557268
 21
2.4988942759573871
 31
0.0
  0
LINE
  5
71
  8
0
  6
SLD-实线
 62
     7
 10
69.2711851700728971
 20
6.4750031316618673
 30
0.0
 11
69.2711851700728971
 21
2.5000031316621918
 31
0.0
  0
LINE
  5
72
  8
0
  6
SLD-实线
 62
     7
 10
64.2792926095138881
 20
6.4750031316618673
 30
0.0
 11
64.2792926095138881
 21
2.500003131662619
 31
0.0
  0
LINE
  5
73
  8
0
  6
SLD-实线
 62
     7
 10
72.7860792540310939
 20
5.1500031316618671
 30
0.0
 11
64.2792926095138881
 21
5.1500031316618671
 31
0.0
  0
LINE
  5
74
  8
0
  6
SLD-实线
 62
     7
 10
65.8311847202422769
 20
6.4750031316618673
 30
0.0
 11
65.8311847202422769
 21
2.500003131662619
 31
0.0
  0
LINE
  5
75
  8
0
  6
SLD-实线
 62
     7
 10
55.7725059649967108
 20
5.1500031316618671
 30
0.0
 11
55.7725059649967108
 21
2.500003131662615
 31
0.0
  0
LINE
  5
76
  8
0
  6
SLD-实线
 62
     7
 10
72.7860792540310655
 20
3.825003131661866
 30
0.0
 11
55.7499905417444879
 21
3.825003131661866
 31
0.0
  0
LINE
  5
77
  8
0
  6
SLD-实线
 62
     7
 10
64.2792926095138881
 20
6.4750031316618673
 30
0.0
 11
72.7860792540310939
 21
6.4750031316618673
 31
0.0
  0
LINE
  5
78
  8
0
  6
SLD-实线
 62
     7
 10
72.7860792540310655
 20
10.2738175360987203
 30
0.0
 11
72.7860792540310655
 21
2.5011119873674259
 31
0.0
  0
LINE
  5
79
  8
0
  6
SLD-实线
 62
     7
 10
98.2838984618736333
 20
8.649695061783202
 30
0.0
 11
98.2838984618736333
 21
4.1092405187717658
 31
0.0
  0
LINE
  5
7A
  8
0
  6
SLD-实线
 62
     7
 10
72.7860792540310655
 20
10.2738175360987203
 30
0.0
 11
102.4999905417443955
 21
10.2738175360987203
 31
0.0
  0
LINE
  5
7B
  8
0
  6
SLD-实线
 62
     7
 10
86.2499905417444097
 20
5.6234567018072541
 30
0.0
 11
102.4999905417443955
 21
5.6234567018072541
 31
0.0
  0
LINE
  5
7C
  8
0
  6
SLD-实线
 62
     7
 10
91.1502919797227804
 20
6.5150061155819561
 30
0.0
 11
86.5280809319765467
 21
6.5150061155819561
 31
0.0
  0
LINE
  5
7D
  8
0
  6
SLD-实线
 62
     7
 10
89.4538256844158894
 20
5.8195779615640202
 30
0.0
 11
90.7365390726355514
 21
6.0819152307103241
 31
0.0
  0
LINE
  5
7E
  8
0
  6
SLD-实线
 62
     7
 10
90.7365390726355514
 20
6.948097000453572
 30
0.0
 11
89.4538256844158894
 21
7.2104342695998911
 31
0.0
  0
LINE
  5
7F
  8
0
  6
SLD-实线
 62
     7
 10
93.9701428952201354
 20
8.649695061783202
 30
0.0
 11
93.9701428952201354
 21
4.1092405187717658
 31
0.0
  0
LINE
  5
80
  8
0
  6
SLD-实线
 62
     7
 10
91.3676718956083249
 20
8.649695061783202
 30
0.0
 11
91.3676718956083249
 21
5.6234567018072541
 31
0.0
  0
LINE
  5
81
  8
0
  6
SLD-实线
 62
     7
 10
72.7860792540310655
 20
10.2738175360987203
 30
0.0
 11
102.4999905417443955
 21
10.2738175360987203
 31
0.0
  0
LINE
  5
82
  8
0
  6
SLD-实线
 62
     7
 10
72.7860792540310655
 20
4.1092405187717658
 30
0.0
 11
102.5
 21
4.1092405187717658
 31
0.0
  0
LINE
  5
83
  8
0
  6
SLD-实线
 62
     7
 10
89.4538256844158894
 20
7.2104342695998911
 30
0.0
 11
89.4538256844158894
 21
5.8195779615640202
 31
0.0
  0
LINE
  5
84
  8
0
  6
SLD-实线
 62
     7
 10
90.7365390726355514
 20
6.0819152307103241
 30
0.0
 11
90.7365390726355514
 21
6.948097000453572
 31
0.0
  0
LINE
  5
85
  8
0
  6
SLD-实线
 62
     7
 10
102.499990541744495
 20
11.5245405932232892
 30
0.0
 11
102.5448728671373004
 21
11.5245405932232892
 31
0.0
  0
LINE
  5
86
  8
0
  6
SLD-实线
 62
     7
 10
86.2499905417444097
 20
7.3996950617832056
 30
0.0
 11
102.4999905417443955
 21
7.3996950617832056
 31
0.0
  0
LINE
  5
87
  8
0
  6
SLD-实线
 62
     7
 10
86.2860792540311081
 20
10.2738175360987203
 30
0.0
 11
86.2860792540311081
 21
2.4999999999999991
 31
0.0
  0
LINE
  5
88
  8
0
  6
SLD-实线
 62
     7
 10
88.8493478975609179
 20
7.3996950617832056
 30
0.0
 11
88.8493478975609179
 21
5.6234567018072541
 31
0.0
  0
LINE
  5
89
  8
0
  6
SLD-实线
 62
     7
 10
86.2499905417444097
 20
8.649695061783202
 30
0.0
 11
102.4999905417443955
 21
8.649695061783202
 31
0.0
  0
LINE
  5
8A
  8
0
  6
SLD-实线
 62
     7
 10
2.5
 20
12.1249999999999893
 30
0.0
 11
0.0
 21
12.1249999999999893
 31
0.0
  0
LINE
  5
8B
  8
0
  6
SLD-实线
 62
     7
 10
102.5
 20
12.1249999999999893
 30
0.0
 11
105.0
 21
12.1249999999999893
 31
0.0
  0
LINE
  5
8C
  8
0
  6
SLD-实线
 62
     7
 10
2.5
 20
24.625
 30
0.0
 11
0.0
 21
24.625
 31
0.0
  0
LINE
  5
8D
  8
0
  6
SLD-实线
 62
     7
 10
102.5
 20
24.625
 30
0.0
 11
105.0
 21
24.625
 31
0.0
  0
LINE
  5
8E
  8
0
  6
SLD-实线
 62
     7
 10
2.5
 20
37.125
 30
0.0
 11
0.0
 21
37.125
 31
0.0
  0
LINE
  5
8F
  8
0
  6
SLD-实线
 62
     7
 10
102.5
 20
37.125
 30
0.0
 11
105.0
 21
37.125
 31
0.0
  0
LINE
  5
90
  8
0
  6
SLD-实线
 62
     7
 10
2.5
 20
49.625
 30
0.0
 11
0.0
 21
49.625
 31
0.0
  0
LINE
  5
91
  8
0
  6
SLD-实线
 62
     7
 10
102.5
 20
49.625
 30
0.0
 11
105.0
 21
49.625
 31
0.0
  0
LINE
  5
92
  8
0
  6
SLD-实线
 62
     7
 10
2.5
 20
62.125
 30
0.0
 11
0.0
 21
62.125
 31
0.0
  0
LINE
  5
93
  8
0
  6
SLD-实线
 62
     7
 10
102.5
 20
62.125
 30
0.0
 11
105.0
 21
62.125
 31
0.0
  0
LINE
  5
94
  8
0
  6
SLD-实线
 62
     7
 10
14.9999999999999893
 20
71.75
 30
0.0
 11
14.9999999999999893
 21
74.25
 31
0.0
  0
LINE
  5
95
  8
0
  6
SLD-实线
 62
     7
 10
14.9999999999999893
 20
2.5
 30
0.0
 11
14.9999999999999893
 21
0.0
 31
0.0
  0
LINE
  5
96
  8
0
  6
SLD-实线
 62
     7
 10
27.5
 20
71.75
 30
0.0
 11
27.5
 21
74.25
 31
0.0
  0
LINE
  5
97
  8
0
  6
SLD-实线
 62
     7
 10
27.5
 20
2.5
 30
0.0
 11
27.5
 21
0.0
 31
0.0
  0
LINE
  5
98
  8
0
  6
SLD-实线
 62
     7
 10
40.0
 20
71.75
 30
0.0
 11
40.0
 21
74.25
 31
0.0
  0
LINE
  5
99
  8
0
  6
SLD-实线
 62
     7
 10
40.0
 20
2.5
 30
0.0
 11
40.0
 21
0.0
 31
0.0
  0
LINE
  5
9A
  8
0
  6
SLD-实线
 62
     7
 10
52.5
 20
71.75
 30
0.0
 11
52.5
 21
74.25
 31
0.0
  0
LINE
  5
9B
  8
0
  6
SLD-实线
 62
     7
 10
52.5
 20
2.5
 30
0.0
 11
52.5
 21
0.0
 31
0.0
  0
LINE
  5
9C
  8
0
  6
SLD-实线
 62
     7
 10
65.0
 20
71.75
 30
0.0
 11
65.0
 21
74.25
 31
0.0
  0
LINE
  5
9D
  8
0
  6
SLD-实线
 62
     7
 10
65.0
 20
2.5
 30
0.0
 11
65.0
 21
0.0
 31
0.0
  0
LINE
  5
9E
  8
0
  6
SLD-实线
 62
     7
 10
77.5
 20
71.75
 30
0.0
 11
77.5
 21
74.25
 31
0.0
  0
LINE
  5
9F
  8
0
  6
SLD-实线
 62
     7
 10
77.5
 20
2.5
 30
0.0
 11
77.5
 21
0.0
 31
0.0
  0
LINE
  5
A0
  8
0
  6
SLD-实线
 62
     7
 10
90.0
 20
71.75
 30
0.0
 11
90.0
 21
74.25
 31
0.0
  0
LINE
  5
A1
  8
0
  6
SLD-实线
 62
     7
 10
90.0
 20
2.5
 30
0.0
 11
90.0
 21
0.0
 31
0.0
  0
LINE
  5
A2
  8
0
  6
SLD-实线
 62
     7
 10
2.5
 20
2.5
 30
0.0
 11
2.5
 21
71.75
 31
0.0
  0
LINE
  5
A3
  8
0
  6
SLD-实线
 62
     7
 10
2.5
 20
71.75
 30
0.0
 11
102.5
 21
71.75
 31
0.0
  0
LINE
  5
A4
  8
0
  6
SLD-实线
 62
     7
 10
102.5
 20
71.75
 30
0.0
 11
102.5
 21
2.5
 31
0.0
  0
LINE
  5
A5
  8
0
  6
SLD-实线
 62
     7
 10
102.5
 20
2.5
 30
0.0
 11
2.5
 21
2.5
 31
0.0
  0
LINE
  5
A6
  8
0
  6
SLD-实线
 62
     7
 10
-0.0002499999999998
 20
37.125
 30
0.0
 11
3.7502499999999999
 21
37.125
 31
0.0
  0
LINE
  5
A7
  8
0
  6
SLD-实线
 62
     7
 10
52.5
 20
74.2502499999999941
 30
0.0
 11
52.5
 21
70.4997500000000059
 31
0.0
  0
LINE
  5
A8
  8
0
  6
SLD-实线
 62
     7
 10
105.0002499999999941
 20
37.125
 30
0.0
 11
101.2497500000000059
 21
37.125
 31
0.0
  0
LINE
  5
A9
  8
0
  6
SLD-实线
 62
     7
 10
52.5
 20
-0.0002499999999998
 30
0.0
 11
52.5
 21
3.7502499999999999
 31
0.0
  0
CIRCLE
  5
AA
  8
0
  6
SLD-实线
 62
     7
 10
87.6069509147288557
 20
6.5150061155819561
 30
0.0
 40
0.6954281540179162
  0
CIRCLE
  5
AB
  8
0
  6
SLD-实线
 62
     7
 10
87.6069509147288557
 20
6.5150061155819561
 30
0.0
 40
0.4330908848716095
  0
INSERT
  5
AD
  8
0
  2
*U14
 10
0.0
 20
0.0
 30
0.0
  0
INSERT
  5
AF
  8
0
  2
*U15
 10
0.0
 20
0.0
 30
0.0
  0
INSERT
  5
B1
  8
0
  2
*U16
 10
0.0
 20
0.0
 30
0.0
  0
INSERT
  5
B2
  8
0
  2
*U17
 10
0.0
 20
0.0
 30
0.0
  0
INSERT
  5
B3
  8
0
  2
*U18
 10
0.0
 20
0.0
 30
0.0
  0
INSERT
  5
B4
  8
0
  2
*U19
 10
0.0
 20
0.0
 30
0.0
  0
INSERT
  5
B5
  8
0
  2
*U20
 10
0.0
 20
0.0
 30
0.0
  0
INSERT
  5
B6
  8
0
  2
*U21
 10
0.0
 20
0.0
 30
0.0
  0
INSERT
  5
B7
  8
0
  2
*U22
 10
0.0
 20
0.0
 30
0.0
  0
INSERT
  5
B8
  8
0
  2
*U23
 10
0.0
 20
0.0
 30
0.0
  0
INSERT
  5
BA
  8
0
  2
*U24
 10
0.0
 20
0.0
 30
0.0
  0
INSERT
  5
BB
  8
0
  2
*U25
 10
0.0
 20
0.0
 30
0.0
  0
INSERT
  5
BD
  8
0
  2
*U26
 10
0.0
 20
0.0
 30
0.0
  0
INSERT
  5
BF
  8
0
  2
*U27
 10
0.0
 20
0.0
 30
0.0
  0
INSERT
  5
C0
  8
0
  2
*U28
 10
0.0
 20
0.0
 30
0.0
  0
INSERT
  5
C1
  8
0
  2
*U29
 10
0.0
 20
0.0
 30
0.0
  0
INSERT
  5
C2
  8
0
  2
*U30
 10
0.0
 20
0.0
 30
0.0
  0
INSERT
  5
C3
  8
0
  2
*U31
 10
0.0
 20
0.0
 30
0.0
  0
INSERT
  5
C4
  8
0
  2
*U32
 10
0.0
 20
0.0
 30
0.0
  0
INSERT
  5
C5
  8
0
  2
*U33
 10
0.0
 20
0.0
 30
0.0
  0
INSERT
  5
C6
  8
0
  2
*U34
 10
0.0
 20
0.0
 30
0.0
  0
INSERT
  5
C7
  8
0
  2
*U35
 10
0.0
 20
0.0
 30
0.0
  0
INSERT
  5
C9
  8
0
  2
*U36
 10
0.0
 20
0.0
 30
0.0
  0
INSERT
  5
CA
  8
0
  2
*U37
 10
0.0
 20
0.0
 30
0.0
  0
INSERT
  5
CB
  8
0
  2
*U38
 10
0.0
 20
0.0
 30
0.0
  0
INSERT
  5
CC
  8
0
  2
*U39
 10
0.0
 20
0.0
 30
0.0
  0
INSERT
  5
CD
  8
0
  2
*U40
 10
0.0
 20
0.0
 30
0.0
  0
INSERT
  5
CE
  8
0
  2
*U41
 10
0.0
 20
0.0
 30
0.0
  0
INSERT
  5
CF
  8
0
  2
*U42
 10
0.0
 20
0.0
 30
0.0
  0
INSERT
  5
D0
  8
0
  2
*U43
 10
0.0
 20
0.0
 30
0.0
  0
INSERT
  5
D1
  8
0
  2
*U44
 10
0.0
 20
0.0
 30
0.0
  0
INSERT
  5
D2
  8
0
  2
*U45
 10
0.0
 20
0.0
 30
0.0
  0
INSERT
  5
D3
  8
0
  2
*U46
 10
0.0
 20
0.0
 30
0.0
  0
INSERT
  5
D4
  8
0
  2
*U47
 10
0.0
 20
0.0
 30
0.0
  0
INSERT
  5
D5
  8
0
  2
*U48
 10
0.0
 20
0.0
 30
0.0
  0
INSERT
  5
D6
  8
0
  2
*U49
 10
0.0
 20
0.0
 30
0.0
  0
INSERT
  5
D7
  8
0
  2
*U50
 10
0.0
 20
0.0
 30
0.0
  0
INSERT
  5
D8
  8
0
  2
*U51
 10
0.0
 20
0.0
 30
0.0
  0
INSERT
  5
D9
  8
0
  2
*U52
 10
0.0
 20
0.0
 30
0.0
  0
INSERT
  5
DA
  8
0
  2
*U53
 10
0.0
 20
0.0
 30
0.0
  0
INSERT
  5
DB
  8
0
  2
*U54
 10
0.0
 20
0.0
 30
0.0
  0
INSERT
  5
DC
  8
0
  2
*U55
 10
0.0
 20
0.0
 30
0.0
  0
INSERT
  5
DD
  8
0
  2
*U56
 10
0.0
 20
0.0
 30
0.0
  0
INSERT
  5
DE
  8
0
  2
*U57
 10
0.0
 20
0.0
 30
0.0
  0
INSERT
  5
DF
  8
0
  2
*U58
 10
0.0
 20
0.0
 30
0.0
  0
INSERT
  5
E0
  8
0
  2
*U59
 10
0.0
 20
0.0
 30
0.0
  0
INSERT
  5
E1
  8
0
  2
*U60
 10
0.0
 20
0.0
 30
0.0
  0
INSERT
  5
E2
  8
0
  2
*U61
 10
0.0
 20
0.0
 30
0.0
  0
INSERT
  5
E3
  8
0
  2
*U62
 10
0.0
 20
0.0
 30
0.0
  0
INSERT
  5
E4
  8
0
  2
*U63
 10
0.0
 20
0.0
 30
0.0
  0
INSERT
  5
112
  8
0
  6
SLD-实线
 62
     5
  2
SW_TABLEANNOTATION_0
 10
70.1917256235304166
 20
71.75
 30
0.0
  0
CIRCLE
  5
113
  8
轮廓粗实线
 10
44.9768453020823316
 20
35.7238224119657701
 30
0.0
 40
0.75
  0
CIRCLE
  5
114
  8
轮廓粗实线
 10
44.9768453020823316
 20
31.7238224119657808
 30
0.0
 40
0.7499999999999895
  0
CIRCLE
  5
115
  8
轮廓粗实线
 10
44.9768453020823316
 20
27.7238224119657808
 30
0.0
 40
0.7500000000000036
  0
CIRCLE
  5
116
  8
轮廓粗实线
 10
44.9768453020823316
 20
23.7238224119657701
 30
0.0
 40
0.75
  0
LINE
  5
117
  8
轮廓粗实线
 10
30.8368453020823488
 20
17.3638224119657494
 30
0.0
 11
30.9768453020823387
 21
17.2238224119657701
 31
0.0
  0
LINE
  5
118
  8
轮廓粗实线
 10
29.9768453020823316
 20
30.7238224119657595
 30
0.0
 11
29.9768453020823316
 21
28.7238224119657701
 31
0.0
  0
LINE
  5
119
  8
轮廓粗实线
 10
30.9768453020823387
 20
42.2238224119657701
 30
0.0
 11
30.8368453020823416
 21
42.0838224119657696
 31
0.0
  0
LINE
  5
11A
  8
轮廓粗实线
 10
41.9768453020823316
 20
42.2238224119657701
 30
0.0
 11
30.9768453020823387
 21
42.2238224119657701
 31
0.0
  0
ARC
  5
11B
  8
轮廓粗实线
 10
44.9768453020823316
 20
42.2238224119657701
 30
0.0
 40
3.0000000000000071
 50
0.0
 51
180.0
  0
LINE
  5
11C
  8
轮廓粗实线
 10
47.9768453020823387
 20
17.2238224119657701
 30
0.0
 11
47.9768453020823387
 21
42.2238224119657701
 31
0.0
  0
ARC
  5
11D
  8
轮廓粗实线
 10
44.9768453020823316
 20
17.2238224119657701
 30
0.0
 40
3.0000000000000071
 50
180.0
 51
0.0
  0
LINE
  5
11E
  8
轮廓粗实线
 10
30.9768453020823387
 20
17.2238224119657701
 30
0.0
 11
41.9768453020823316
 21
17.2238224119657701
 31
0.0
  0
CIRCLE
  5
11F
  8
轮廓粗实线
 10
44.9768453020823316
 20
17.2238224119657701
 30
0.0
 40
1.599999999999987
  0
CIRCLE
  5
120
  8
轮廓粗实线
 10
44.9768453020823316
 20
42.2238224119657701
 30
0.0
 40
1.5999999999999941
  0
LINE
  5
121
  8
轮廓粗实线
 10
30.0768453020823188
 20
30.7238224119657595
 30
0.0
 11
30.0768453020823188
 21
42.0838224119657696
 31
0.0
  0
LINE
  5
122
  8
轮廓粗实线
 10
30.0768453020823188
 20
30.7238224119657595
 30
0.0
 11
28.4768453020823387
 21
30.7238224119657595
 31
0.0
  0
LINE
  5
123
  8
轮廓粗实线
 10
28.4768453020823387
 20
30.7238224119657595
 30
0.0
 11
28.4768453020823209
 21
42.0838224119657696
 31
0.0
  0
LINE
  5
124
  8
轮廓粗实线
 10
30.0768453020823188
 20
42.0838224119657696
 30
0.0
 11
28.4768453020823209
 21
42.0838224119657696
 31
0.0
  0
LINE
  5
125
  8
轮廓粗实线
 10
30.0768453020823188
 20
30.7238224119657595
 30
0.0
 11
31.5768453020823294
 21
30.7238224119657595
 31
0.0
  0
LINE
  5
126
  8
轮廓粗实线
 10
31.5768453020823294
 20
30.7238224119657595
 30
0.0
 11
31.5768453020823294
 21
42.0838224119657696
 31
0.0
  0
LINE
  5
127
  8
轮廓粗实线
 10
30.0768453020823188
 20
42.0838224119657696
 30
0.0
 11
31.5768453020823294
 21
42.0838224119657696
 31
0.0
  0
LINE
  5
128
  8
轮廓粗实线
 10
40.4768453020823387
 20
30.7238224119657595
 30
0.0
 11
40.4768453020823387
 21
42.0838224119657696
 31
0.0
  0
LINE
  5
129
  8
轮廓粗实线
 10
40.4768453020823387
 20
30.7238224119657595
 30
0.0
 11
31.5768453020823401
 21
30.7238224119657595
 31
0.0
  0
LINE
  5
12A
  8
轮廓粗实线
 10
40.4768453020823387
 20
42.0838224119657696
 30
0.0
 11
31.5768453020823294
 21
42.0838224119657696
 31
0.0
  0
LINE
  5
12B
  8
轮廓粗实线
 10
30.0768453020823294
 20
17.3638224119657494
 30
0.0
 11
30.0768453020823294
 21
28.7238224119657808
 31
0.0
  0
LINE
  5
12C
  8
轮廓粗实线
 10
30.0768453020823294
 20
17.3638224119657494
 30
0.0
 11
28.4768453020823387
 21
17.3638224119657494
 31
0.0
  0
LINE
  5
12D
  8
轮廓粗实线
 10
28.4768453020823387
 20
17.3638224119657494
 30
0.0
 11
28.4768453020823316
 21
28.7238224119657808
 31
0.0
  0
LINE
  5
12E
  8
轮廓粗实线
 10
30.0768453020823294
 20
28.7238224119657808
 30
0.0
 11
28.4768453020823316
 21
28.7238224119657808
 31
0.0
  0
LINE
  5
12F
  8
轮廓粗实线
 10
30.0768453020823294
 20
17.3638224119657494
 30
0.0
 11
31.5768453020823294
 21
17.3638224119657494
 31
0.0
  0
LINE
  5
130
  8
轮廓粗实线
 10
30.0768453020823294
 20
28.7238224119657808
 30
0.0
 11
31.5768453020823294
 21
28.7238224119657808
 31
0.0
  0
LINE
  5
131
  8
轮廓粗实线
 10
31.5768453020823294
 20
17.3638224119657494
 30
0.0
 11
31.5768453020823294
 21
28.7238224119657808
 31
0.0
  0
LINE
  5
132
  8
轮廓粗实线
 10
40.4768453020823529
 20
17.3638224119657494
 30
0.0
 11
40.4768453020823387
 21
28.7238224119657808
 31
0.0
  0
LINE
  5
133
  8
轮廓粗实线
 10
40.4768453020823529
 20
17.3638224119657494
 30
0.0
 11
31.5768453020823401
 21
17.3638224119657494
 31
0.0
  0
LINE
  5
134
  8
轮廓粗实线
 10
40.4768453020823387
 20
28.7238224119657808
 30
0.0
 11
31.5768453020823401
 21
28.7238224119657808
 31
0.0
  0
DIMENSION
  5
135
  8
0
  6
SLD-实线
 62
     5
  2
_D
 10
24.4768453020823316
 20
17.2238224119657701
 30
0.0
 11
24.4768453020823316
 21
29.7238224119657701
 31
0.0
 70
   128
  1
<>
 13
30.9768453020823387
 23
42.2238224119657701
 33
0.0
 14
30.9768453020823387
 24
17.2238224119657701
 34
0.0
 50
90.0000000000001847
  0
DIMENSION
  5
140
  8
0
  6
SLD-实线
 62
     5
  2
_D_1
 10
29.9768453020823316
 20
47.7238224119657701
 30
0.0
 11
38.9768453020823316
 21
47.7238224119657701
 31
0.0
 70
   128
  1
<>
 13
47.9768453020823387
 23
42.2238224119657701
 33
0.0
 14
29.9768453020823316
 24
41.2238224119657772
 34
0.0
  0
DIMENSION
  5
14A
  8
0
  6
SLD-实线
 62
     5
  2
_D_2
 10
53.4768453020823316
 20
14.2238224119657701
 30
0.0
 11
53.4768453020823316
 21
29.7238224119657701
 31
0.0
 70
   128
  1
<>
 13
44.9768453020823316
 23
45.2238224119657701
 33
0.0
 14
44.9768453020823316
 24
14.2238224119657701
 34
0.0
 50
90.0000000000001847
  0
DIMENSION
  5
154
  8
0
  6
SLD-实线
 62
     5
  2
_D_3
 10
43.845474452183872
 20
41.0924515620673105
 30
0.0
 11
52.2568233655183718
 21
49.5038004754018317
 31
0.0
 70
   131
  1
<>
 15
46.1082161519807912
 25
43.3551932618642368
 35
0.0
 40
0.0
  0
DIMENSION
  5
161
  8
0
  6
SLD-实线
 62
     5
  2
_D_4
 10
50.4768453020823529
 20
42.2238224119657701
 30
0.0
 11
50.4768453020823529
 21
29.7238224119657701
 31
0.0
 70
   128
  1
<>
 13
44.9768453020823316
 23
17.2238224119657701
 33
0.0
 14
44.9768453020823316
 24
42.2238224119657701
 34
0.0
 50
90.0000000000001847
  0
DIMENSION
  5
16B
  8
0
  6
SLD-实线
 62
     5
  2
_D_5
 10
44.9768453020823316
 20
17.2238224119657701
 30
0.0
 11
41.483950426650317
 21
10.8392094165740396
 31
0.0
 70
   132
  1
<>
 15
43.536992357171961
 25
14.5919364917494399
 35
0.0
 40
0.0
  0
DIMENSION
  5
174
  8
0
  6
SLD-实线
 62
     5
  2
_D_6
 10
25.9768453020823209
 20
42.0838224119657767
 30
0.0
 11
25.9768453020823316
 21
36.403822411965777
 31
0.0
 70
   128
  1
<>
 13
28.4768453020823387
 23
30.7238224119657595
 33
0.0
 14
28.4768453020823209
 24
42.0838224119657909
 34
0.0
 50
90.0000000000001847
  0
LINE
  5
17E
  8
轮廓粗实线
 10
47.9768453020823387
 20
58.1634677419355199
 30
0.0
 11
41.9768453020823316
 21
58.1634677419355199
 31
0.0
  0
LINE
  5
17F
  8
轮廓粗实线
 10
41.9768453020823316
 20
59.663467741935527
 30
0.0
 11
41.9768453020823316
 21
58.1634677419355199
 31
0.0
  0
LINE
  5
180
  8
轮廓粗实线
 10
47.9768453020823387
 20
59.663467741935527
 30
0.0
 11
41.9768453020823316
 21
59.663467741935527
 31
0.0
  0
LINE
  5
181
  8
轮廓粗实线
 10
47.9768453020823387
 20
59.663467741935527
 30
0.0
 11
47.9768453020823387
 21
58.1634677419355199
 31
0.0
  0
LINE
  5
182
  8
轮廓粗实线
 10
30.9768453020823387
 20
59.663467741935527
 30
0.0
 11
30.9768453020823387
 21
58.1634677419355199
 31
0.0
  0
LINE
  5
183
  8
轮廓粗实线
 10
29.9768453020823316
 20
58.1634677419355199
 30
0.0
 11
29.9768453020823316
 21
59.663467741935527
 31
0.0
  0
LINE
  5
184
  8
轮廓粗实线
 10
30.8368453020823203
 20
59.663467741935527
 30
0.0
 11
30.9768453020823387
 21
59.663467741935527
 31
0.0
  0
LINE
  5
185
  8
轮廓粗实线
 10
30.9768453020823387
 20
58.1634677419355199
 30
0.0
 11
29.9768453020823316
 21
58.1634677419355199
 31
0.0
  0
LINE
  5
186
  8
轮廓粗实线
 10
30.9768453020823387
 20
59.663467741935527
 30
0.0
 11
41.9768453020823316
 21
59.663467741935527
 31
0.0
  0
LINE
  5
187
  8
轮廓粗实线
 10
30.9768453020823387
 20
58.1634677419355199
 30
0.0
 11
41.9768453020823316
 21
58.1634677419355199
 31
0.0
  0
LINE
  5
188
  8
轮廓粗实线
 10
40.4768453020823387
 20
67.3634677419355228
 30
0.0
 11
31.5768453020823401
 21
67.3634677419355228
 31
0.0
  0
LINE
  5
189
  8
轮廓粗实线
 10
40.4768453020823387
 20
67.3634677419355228
 30
0.0
 11
40.4768453020823387
 21
59.663467741935527
 31
0.0
  0
LINE
  5
18A
  8
轮廓粗实线
 10
28.4768453020823387
 20
59.6634677419355199
 30
0.0
 11
28.4768453020823387
 21
67.3634677419355228
 31
0.0
  0
LINE
  5
18B
  8
轮廓粗实线
 10
30.0768453020823294
 20
68.1634677419355199
 30
0.0
 11
28.4768453020823387
 21
67.3634677419355228
 31
0.0
  0
LINE
  5
18C
  8
轮廓粗实线
 10
30.0768453020823294
 20
68.1634677419355199
 30
0.0
 11
31.5768453020823294
 21
68.1634677419355199
 31
0.0
  0
LINE
  5
18D
  8
轮廓粗实线
 10
31.5768453020823401
 20
67.3634677419355228
 30
0.0
 11
31.5768453020823294
 21
68.1634677419355199
 31
0.0
  0
LINE
  5
18E
  8
轮廓粗实线
 10
30.8368453020823203
 20
59.663467741935527
 30
0.0
 11
28.4768453020823387
 21
59.6634677419355199
 31
0.0
  0
LINE
  5
18F
  8
轮廓粗实线
 10
39.6768453020823273
 20
58.163467741935527
 30
0.0
 11
39.6768453020823415
 21
55.6634677419355199
 31
0.0
  0
LINE
  5
190
  8
轮廓粗实线
 10
39.6768453020823415
 20
55.6634677419355199
 30
0.0
 11
38.6768453020823273
 21
55.6634677419355199
 31
0.0
  0
LINE
  5
191
  8
轮廓粗实线
 10
38.6768453020823273
 20
58.163467741935527
 30
0.0
 11
38.6768453020823273
 21
55.6634677419355199
 31
0.0
  0
DIMENSION
  5
192
  8
0
  6
SLD-实线
 62
     5
  2
_D_7
 10
53.120342655912971
 20
58.1634677419355199
 30
0.0
 11
53.120342655912971
 21
55.657852102534541
 31
0.0
 70
   128
  1
<>
 13
47.9768453020823387
 23
59.6634677419355199
 33
0.0
 14
47.9768453020823387
 24
58.1634677419355199
 34
0.0
 50
90.0000000000001847
  0
DIMENSION
  5
19F
  8
0
  6
SLD-实线
 62
     5
  2
_D_8
 10
29.9768453020823316
 20
53.359255454848082
 30
0.0
 11
24.0567981684812402
 21
53.359255454848082
 31
0.0
 70
   128
  1
<>
 13
28.4768453020823387
 23
59.6634677419354986
 33
0.0
 14
29.9768453020823316
 24
58.1634677419355199
 34
0.0
  0
DIMENSION
  5
1AB
  8
0
  6
SLD-实线
 62
     5
  2
_D_9
 10
23.5065253360889308
 20
59.6634677419354915
 30
0.0
 11
23.5065253360889201
 21
63.0825224421934223
 31
0.0
 70
   128
  1
<>
 13
30.0768453020823188
 23
68.1634677419355199
 33
0.0
 14
28.4768453020823387
 24
59.6634677419354986
 34
0.0
 50
90.0000000000001847
  0
DIMENSION
  5
1B6
  8
0
  6
SLD-实线
 62
     5
  2
_D_10
 10
40.4768453020823529
 20
70.2368292050617526
 30
0.0
 11
34.7252377962547811
 21
70.2368292050617526
 31
0.0
 70
   128
  1
<>
 13
28.4768453020823387
 23
67.3634677419355228
 33
0.0
 14
40.4768453020823529
 24
67.3634677419355228
 34
0.0
  0
LINE
  5
1C0
  8
轮廓粗实线
 10
64.8451960198686947
 20
14.2238224119657701
 30
0.0
 11
66.3451960198686947
 21
14.2238224119657701
 31
0.0
  0
LINE
  5
1C1
  8
轮廓粗实线
 10
66.3451960198686947
 20
45.2238224119657701
 30
0.0
 11
64.8451960198686947
 21
45.2238224119657701
 31
0.0
  0
LINE
  5
1C2
  8
轮廓粗实线
 10
66.3451960198686947
 20
41.2238224119657772
 30
0.0
 11
64.8451960198686947
 21
41.2238224119657772
 31
0.0
  0
LINE
  5
1C3
  8
轮廓粗实线
 10
66.3451960198686947
 20
30.7238224119657595
 30
0.0
 11
66.3451960198686947
 21
28.7238224119657808
 31
0.0
  0
LINE
  5
1C4
  8
轮廓粗实线
 10
64.8451960198686947
 20
18.2238224119657808
 30
0.0
 11
66.3451960198686947
 21
18.2238224119657808
 31
0.0
  0
LINE
  5
1C5
  8
轮廓粗实线
 10
64.8451960198686947
 20
41.2238224119657772
 30
0.0
 11
64.8451960198686947
 21
18.2238224119657808
 31
0.0
  0
LINE
  5
1C6
  8
轮廓粗实线
 10
66.3451960198686947
 20
17.2238224119657701
 30
0.0
 11
64.8451960198686947
 21
17.2238224119657701
 31
0.0
  0
LINE
  5
1C7
  8
轮廓粗实线
 10
64.8451960198686947
 20
17.2238224119657701
 30
0.0
 11
64.8451960198686947
 21
18.2238224119657808
 31
0.0
  0
LINE
  5
1C8
  8
轮廓粗实线
 10
66.3451960198686947
 20
17.3638224119657494
 30
0.0
 11
66.3451960198686947
 21
17.2238224119657701
 31
0.0
  0
LINE
  5
1C9
  8
轮廓粗实线
 10
64.8451960198686947
 20
41.2238224119657772
 30
0.0
 11
64.8451960198686947
 21
42.2238224119657701
 31
0.0
  0
LINE
  5
1CA
  8
轮廓粗实线
 10
64.8451960198686947
 20
42.2238224119657701
 30
0.0
 11
66.3451960198686947
 21
42.2238224119657701
 31
0.0
  0
LINE
  5
1CB
  8
轮廓粗实线
 10
66.3451960198686947
 20
42.2238224119657701
 30
0.0
 11
66.3451960198686947
 21
42.0838224119657696
 31
0.0
  0
LINE
  5
1CC
  8
轮廓粗实线
 10
66.3451960198686947
 20
14.2238224119657701
 30
0.0
 11
66.3451960198686947
 21
17.2238224119657701
 31
0.0
  0
LINE
  5
1CD
  8
轮廓粗实线
 10
64.8451960198686947
 20
14.2238224119657701
 30
0.0
 11
64.8451960198686947
 21
17.2238224119657701
 31
0.0
  0
LINE
  5
1CE
  8
轮廓粗实线
 10
66.3451960198686947
 20
42.2238224119657701
 30
0.0
 11
66.3451960198686947
 21
45.2238224119657701
 31
0.0
  0
LINE
  5
1CF
  8
轮廓粗实线
 10
64.8451960198686947
 20
42.2238224119657701
 30
0.0
 11
64.8451960198686947
 21
45.2238224119657701
 31
0.0
  0
LINE
  5
1D0
  8
轮廓粗实线
 10
66.3451960198686947
 20
42.0838224119657696
 30
0.0
 11
66.3451960198686805
 21
30.7238224119657595
 31
0.0
  0
LINE
  5
1D1
  8
轮廓粗实线
 10
74.0451960198686834
 20
30.7238224119657595
 30
0.0
 11
74.0451960198686834
 21
42.0838224119657767
 31
0.0
  0
LINE
  5
1D2
  8
轮廓粗实线
 10
66.3451960198686805
 20
30.7238224119657595
 30
0.0
 11
74.0451960198686834
 21
30.7238224119657595
 31
0.0
  0
LINE
  5
1D3
  8
轮廓粗实线
 10
73.4451960198686891
 20
31.3238224119657502
 30
0.0
 11
73.4451960198687033
 21
41.4838224119657824
 31
0.0
  0
LINE
  5
1D4
  8
轮廓粗实线
 10
73.4451960198687033
 20
41.4838224119657824
 30
0.0
 11
66.9451960198687033
 21
41.4838224119657824
 31
0.0
  0
LINE
  5
1D5
  8
轮廓粗实线
 10
66.9451960198687033
 20
41.4838224119657824
 30
0.0
 11
66.9451960198686749
 21
31.3238224119657502
 31
0.0
  0
LINE
  5
1D6
  8
轮廓粗实线
 10
66.9451960198686749
 20
31.3238224119657502
 30
0.0
 11
73.4451960198686891
 21
31.3238224119657502
 31
0.0
  0
LINE
  5
1D7
  8
轮廓粗实线
 10
66.3451960198686947
 20
42.0838224119657696
 30
0.0
 11
74.0451960198686834
 21
42.0838224119657767
 31
0.0
  0
LINE
  5
1D8
  8
轮廓粗实线
 10
74.845196019868709
 20
30.7238224119657595
 30
0.0
 11
74.8451960198687232
 21
42.0838224119657909
 31
0.0
  0
LINE
  5
1D9
  8
轮廓粗实线
 10
74.845196019868709
 20
30.7238224119657595
 30
0.0
 11
74.0451960198686834
 21
30.7238224119657595
 31
0.0
  0
LINE
  5
1DA
  8
轮廓粗实线
 10
74.8451960198687232
 20
42.0838224119657909
 30
0.0
 11
74.0451960198686834
 21
42.0838224119657767
 31
0.0
  0
LINE
  5
1DB
  8
轮廓粗实线
 10
70.6951960198687033
 20
38.4438224119657619
 30
0.0
 11
70.6951960198687033
 21
39.443822411965769
 31
0.0
  0
LINE
  5
1DC
  8
轮廓粗实线
 10
69.6951960198687033
 20
39.443822411965769
 30
0.0
 11
69.6951960198687033
 21
38.4438224119657619
 31
0.0
  0
LINE
  5
1DD
  8
轮廓粗实线
 10
69.6951960198687033
 20
38.4438224119657619
 30
0.0
 11
70.6951960198687033
 21
38.4438224119657619
 31
0.0
  0
LINE
  5
1DE
  8
轮廓粗实线
 10
70.6951960198687033
 20
39.443822411965769
 30
0.0
 11
69.6951960198687033
 21
39.443822411965769
 31
0.0
  0
LINE
  5
1DF
  8
轮廓粗实线
 10
70.6951960198687033
 20
33.3638224119657565
 30
0.0
 11
70.6951960198687033
 21
34.3638224119657565
 31
0.0
  0
LINE
  5
1E0
  8
轮廓粗实线
 10
69.6951960198687033
 20
33.3638224119657565
 30
0.0
 11
70.6951960198687033
 21
33.3638224119657565
 31
0.0
  0
LINE
  5
1E1
  8
轮廓粗实线
 10
69.6951960198687033
 20
34.3638224119657565
 30
0.0
 11
69.6951960198687033
 21
33.3638224119657565
 31
0.0
  0
LINE
  5
1E2
  8
轮廓粗实线
 10
70.6951960198687033
 20
34.3638224119657565
 30
0.0
 11
69.6951960198687033
 21
34.3638224119657565
 31
0.0
  0
LINE
  5
1E3
  8
轮廓粗实线
 10
62.3451960198686876
 20
38.4438224119657619
 30
0.0
 11
62.345196019868709
 21
39.4438224119657832
 31
0.0
  0
LINE
  5
1E4
  8
轮廓粗实线
 10
64.8451960198687374
 20
39.4438224119657832
 30
0.0
 11
62.345196019868709
 21
39.4438224119657832
 31
0.0
  0
LINE
  5
1E5
  8
轮廓粗实线
 10
64.8451960198687374
 20
38.443822411965769
 30
0.0
 11
62.3451960198686876
 21
38.4438224119657619
 31
0.0
  0
LINE
  5
1E6
  8
轮廓粗实线
 10
62.3451960198686876
 20
33.3638224119657565
 30
0.0
 11
62.3451960198686876
 21
34.3638224119657565
 31
0.0
  0
LINE
  5
1E7
  8
轮廓粗实线
 10
64.8451960198687232
 20
34.3638224119657565
 30
0.0
 11
62.3451960198686876
 21
34.3638224119657565
 31
0.0
  0
LINE
  5
1E8
  8
轮廓粗实线
 10
64.8451960198687232
 20
33.3638224119657565
 30
0.0
 11
62.3451960198686876
 21
33.3638224119657565
 31
0.0
  0
LINE
  5
1E9
  8
轮廓粗实线
 10
66.3451960198686947
 20
28.7238224119657808
 30
0.0
 11
66.3451960198686805
 21
17.3638224119657494
 31
0.0
  0
LINE
  5
1EA
  8
轮廓粗实线
 10
66.3451960198686947
 20
28.7238224119657808
 30
0.0
 11
74.0451960198687118
 21
28.7238224119657914
 31
0.0
  0
LINE
  5
1EB
  8
轮廓粗实线
 10
74.0451960198686834
 20
17.3638224119657494
 30
0.0
 11
74.0451960198687118
 21
28.7238224119657914
 31
0.0
  0
LINE
  5
1EC
  8
轮廓粗实线
 10
66.3451960198686805
 20
17.3638224119657494
 30
0.0
 11
74.0451960198686834
 21
17.3638224119657494
 31
0.0
  0
LINE
  5
1ED
  8
轮廓粗实线
 10
73.4451960198687033
 20
17.9638224119657508
 30
0.0
 11
73.4451960198687033
 21
28.1238224119657794
 31
0.0
  0
LINE
  5
1EE
  8
轮廓粗实线
 10
73.4451960198687033
 20
28.1238224119657794
 30
0.0
 11
66.9451960198687033
 21
28.1238224119657794
 31
0.0
  0
LINE
  5
1EF
  8
轮廓粗实线
 10
66.9451960198687033
 20
28.1238224119657794
 30
0.0
 11
66.9451960198686749
 21
17.9638224119657508
 31
0.0
  0
LINE
  5
1F0
  8
轮廓粗实线
 10
66.9451960198686749
 20
17.9638224119657508
 30
0.0
 11
73.4451960198687033
 21
17.9638224119657508
 31
0.0
  0
LINE
  5
1F1
  8
轮廓粗实线
 10
74.845196019868709
 20
17.3638224119657494
 30
0.0
 11
74.8451960198687232
 21
28.7238224119657914
 31
0.0
  0
LINE
  5
1F2
  8
轮廓粗实线
 10
74.845196019868709
 20
17.3638224119657494
 30
0.0
 11
74.0451960198686834
 21
17.3638224119657494
 31
0.0
  0
LINE
  5
1F3
  8
轮廓粗实线
 10
74.8451960198687232
 20
28.7238224119657914
 30
0.0
 11
74.0451960198687118
 21
28.7238224119657914
 31
0.0
  0
LINE
  5
1F4
  8
轮廓粗实线
 10
70.6951960198687033
 20
25.0838224119657696
 30
0.0
 11
70.6951960198687033
 21
26.0838224119657802
 31
0.0
  0
LINE
  5
1F5
  8
轮廓粗实线
 10
69.6951960198687033
 20
26.0838224119657802
 30
0.0
 11
69.6951960198687033
 21
25.0838224119657696
 31
0.0
  0
LINE
  5
1F6
  8
轮廓粗实线
 10
69.6951960198687033
 20
25.0838224119657696
 30
0.0
 11
70.6951960198687033
 21
25.0838224119657696
 31
0.0
  0
LINE
  5
1F7
  8
轮廓粗实线
 10
70.6951960198687033
 20
26.0838224119657802
 30
0.0
 11
69.6951960198687033
 21
26.0838224119657802
 31
0.0
  0
LINE
  5
1F8
  8
轮廓粗实线
 10
70.6951960198687033
 20
20.00382241196575
 30
0.0
 11
70.6951960198687033
 21
21.0038224119657606
 31
0.0
  0
LINE
  5
1F9
  8
轮廓粗实线
 10
70.6951960198687033
 20
21.0038224119657606
 30
0.0
 11
69.6951960198687033
 21
21.0038224119657606
 31
0.0
  0
LINE
  5
1FA
  8
轮廓粗实线
 10
69.6951960198687033
 20
20.00382241196575
 30
0.0
 11
70.6951960198687033
 21
20.00382241196575
 31
0.0
  0
LINE
  5
1FB
  8
轮廓粗实线
 10
69.6951960198687033
 20
21.0038224119657606
 30
0.0
 11
69.6951960198687033
 21
20.00382241196575
 31
0.0
  0
LINE
  5
1FC
  8
轮廓粗实线
 10
62.3451960198687019
 20
25.0838224119657696
 30
0.0
 11
62.345196019868709
 21
26.0838224119657802
 31
0.0
  0
LINE
  5
1FD
  8
轮廓粗实线
 10
64.8451960198687374
 20
26.0838224119657802
 30
0.0
 11
62.345196019868709
 21
26.0838224119657802
 31
0.0
  0
LINE
  5
1FE
  8
轮廓粗实线
 10
64.8451960198687232
 20
25.0838224119657696
 30
0.0
 11
62.3451960198687019
 21
25.0838224119657696
 31
0.0
  0
LINE
  5
1FF
  8
轮廓粗实线
 10
64.8451960198687232
 20
20.00382241196575
 30
0.0
 11
62.3451960198687019
 21
20.00382241196575
 31
0.0
  0
LINE
  5
200
  8
轮廓粗实线
 10
62.3451960198687019
 20
20.00382241196575
 30
0.0
 11
62.3451960198687019
 21
21.0038224119657606
 31
0.0
  0
LINE
  5
201
  8
轮廓粗实线
 10
64.8451960198687232
 20
21.0038224119657606
 30
0.0
 11
62.3451960198687019
 21
21.0038224119657606
 31
0.0
  0
ENDSEC
  0
EOF
