  0
SECTION
  2
HEADER
  9
$ACADVER
  1
AC1009
  9
$INSBASE
 10
0.0
 20
0.0
 30
0.0
  9
$EXTMIN
 10
-0.0002499999999998
 20
-0.0002499999999998
 30
0.0
  9
$EXTMAX
 10
105.0002499999999941
 20
74.2502499999999941
 30
0.0
  9
$LIMMIN
 10
0.0
 20
0.0
  9
$LIMMAX
 10
105.0
 20
74.25
  9
$ORTHOMODE
 70
     0
  9
$REGENMODE
 70
     1
  9
$FILLMODE
 70
     1
  9
$QTEXTMODE
 70
     0
  9
$MIRRTEXT
 70
     1
  9
$DRAGMODE
 70
     2
  9
$LTSCALE
 40
0.25
  9
$OSMODE
 70
    39
  9
$ATTMODE
 70
     1
  9
$TEXTSIZE
 40
0.875
  9
$TRACEWID
 40
1.0
  9
$TEXTSTYLE
  7
STANDARD
  9
$CLAYER
  8
0
  9
$CELTYPE
  6
BYLAYER
  9
$CECOLOR
 62
   256
  9
$DIMSCALE
 40
1.0
  9
$DIMASZ
 40
1.02
  9
$DIMEXO
 40
0.0
  9
$DIMDLI
 40
3.75
  9
$DIMRND
 40
0.0
  9
$DIMDLE
 40
0.0
  9
$DIMEXE
 40
0.5
  9
$DIMTP
 40
0.0
  9
$DIMTM
 40
0.0
  9
$DIMTXT
 40
0.875
  9
$DIMCEN
 40
2.5
  9
$DIMTSZ
 40
0.0
  9
$DIMTOL
 70
     0
  9
$DIMLIM
 70
     0
  9
$DIMTIH
 70
     1
  9
$DIMTOH
 70
     1
  9
$DIMSE1
 70
     0
  9
$DIMSE2
 70
     0
  9
$DIMTAD
 70
     1
  9
$DIMZIN
 70
     0
  9
$DIMBLK
  1

  9
$DIMASO
 70
     1
  9
$DIMSHO
 70
     1
  9
$DIMPOST
  1

  9
$DIMAPOST
  1

  9
$DIMALT
 70
     0
  9
$DIMALTD
 70
     3
  9
$DIMALTF
 40
0.0393700787401575
  9
$DIMLFAC
 40
1.0
  9
$DIMTOFL
 70
     1
  9
$DIMTVP
 40
0.0
  9
$DIMTIX
 70
     0
  9
$DIMSOXD
 70
     0
  9
$DIMSAH
 70
     0
  9
$DIMBLK1
  1

  9
$DIMBLK2
  1

  9
$DIMSTYLE
  2
ISO-25
  9
$DIMCLRD
 70
     0
  9
$DIMCLRE
 70
     0
  9
$DIMCLRT
 70
     0
  9
$DIMTFAC
 40
1.0
  9
$DIMGAP
 40
0.381
  9
$LUNITS
 70
     2
  9
$LUPREC
 70
     4
  9
$SKETCHINC
 40
1.0
  9
$FILLETRAD
 40
0.0
  9
$AUNITS
 70
     0
  9
$AUPREC
 70
     2
  9
$MENU
  1
.
  9
$ELEVATION
 40
0.0
  9
$PELEVATION
 40
0.0
  9
$THICKNESS
 40
0.0
  9
$LIMCHECK
 70
     0
  9
$BLIPMODE
 70
     0
  9
$CHAMFERA
 40
0.0
  9
$CHAMFERB
 40
0.0
  9
$SKPOLY
 70
     0
  9
$TDCREATE
 40
2460878.655578704085201
  9
$TDUPDATE
 40
2460885.7232523150742054
  9
$TDINDWG
 40
0.0001504745
  9
$TDUSRTIMER
 40
0.0001504745
  9
$USRTIMER
 70
     1
  9
$ANGBASE
 50
0.0
  9
$ANGDIR
 70
     0
  9
$PDMODE
 70
     0
  9
$PDSIZE
 40
-1.0
  9
$PLINEWID
 40
0.0
  9
$COORDS
 70
     1
  9
$SPLFRAME
 70
     0
  9
$SPLINETYPE
 70
     6
  9
$SPLINESEGS
 70
     8
  9
$ATTDIA
 70
     1
  9
$ATTREQ
 70
     1
  9
$HANDLING
 70
     1
  9
$HANDSEED
  5
33D
  9
$SURFTAB1
 70
     6
  9
$SURFTAB2
 70
     6
  9
$SURFTYPE
 70
     6
  9
$SURFU
 70
     6
  9
$SURFV
 70
     6
  9
$UCSNAME
  2

  9
$UCSORG
 10
0.0
 20
0.0
 30
0.0
  9
$UCSXDIR
 10
1.0
 20
0.0
 30
0.0
  9
$UCSYDIR
 10
0.0
 20
1.0
 30
0.0
  9
$PUCSNAME
  2

  9
$PUCSORG
 10
0.0
 20
0.0
 30
0.0
  9
$PUCSXDIR
 10
1.0
 20
0.0
 30
0.0
  9
$PUCSYDIR
 10
0.0
 20
1.0
 30
0.0
  9
$USERI1
 70
     0
  9
$USERI2
 70
     0
  9
$USERI3
 70
     0
  9
$USERI4
 70
     0
  9
$USERI5
 70
     0
  9
$USERR1
 40
0.0
  9
$USERR2
 40
0.0
  9
$USERR3
 40
0.0
  9
$USERR4
 40
0.0
  9
$USERR5
 40
0.0
  9
$WORLDVIEW
 70
     1
  9
$SHADEDGE
 70
     3
  9
$SHADEDIF
 70
    70
  9
$TILEMODE
 70
     1
  9
$MAXACTVP
 70
    64
  9
$PLIMCHECK
 70
     0
  9
$PEXTMIN
 10
1.0000000000000000E+20
 20
1.0000000000000000E+20
 30
1.0000000000000000E+20
  9
$PEXTMAX
 10
-1.0000000000000000E+20
 20
-1.0000000000000000E+20
 30
-1.0000000000000000E+20
  9
$PLIMMIN
 10
0.0
 20
0.0
  9
$PLIMMAX
 10
420.0
 20
297.0
  9
$UNITMODE
 70
     0
  9
$VISRETAIN
 70
     1
  9
$PLINEGEN
 70
     0
  9
$PSLTSCALE
 70
     1
  0
ENDSEC
  0
SECTION
  2
TABLES
  0
TABLE
  2
VPORT
 70
     1
  0
VPORT
  2
*ACTIVE
 70
     0
 10
0.0
 20
0.0
 11
1.0
 21
1.0
 12
69.2167939413930924
 22
27.4513252744550513
 13
0.0
 23
0.0
 14
10.0
 24
10.0
 15
10.0
 25
10.0
 16
0.0
 26
0.0
 36
1.0
 17
0.0
 27
0.0
 37
0.0
 40
118.7616278140196044
 41
2.0208877284595301
 42
50.0
 43
0.0
 44
0.0
 50
0.0
 51
0.0
 71
     0
 72
  2000
 73
     1
 74
     3
 75
     0
 76
     0
 77
     0
 78
     0
  0
ENDTAB
  0
TABLE
  2
LTYPE
 70
     8
  0
LTYPE
  2
CONTINUOUS
 70
     0
  3
Solid line
 72
    65
 73
     0
 40
0.0
  0
LTYPE
  2
SLD-实线
 70
     0
  3
SolidWorks Line Style
 72
    65
 73
     0
 40
0.0
  0
LTYPE
  2
SLD-虚线
 70
     0
  3
SolidWorks Line Style
 72
    65
 73
     2
 40
1.905
 49
1.27
 49
-0.635
  0
LTYPE
  2
SLD-双点画线
 70
     0
  3
SolidWorks Line Style
 72
    65
 73
     6
 40
12.6999999999999993
 49
6.3499999999999988
 49
-1.27
 49
1.27
 49
-1.27
 49
1.27
 49
-1.27
  0
LTYPE
  2
SLD-点画线
 70
     0
  3
SolidWorks Line Style
 72
    65
 73
     4
 40
10.1600000000000001
 49
6.3499999999999988
 49
-1.27
 49
1.27
 49
-1.27
  0
LTYPE
  2
SLD-中心线
 70
     0
  3
SolidWorks Line Style
 72
    65
 73
     4
 40
34.2900000000000134
 49
30.4800000000000004
 49
-1.27
 49
1.27
 49
-1.27
  0
LTYPE
  2
SLD-裁剪线
 70
     0
  3
SolidWorks Line Style
 72
    65
 73
     2
 40
0.635
 49
0.0
 49
-0.635
  0
LTYPE
  2
SLD-细-粗_点画线
 70
     0
  3
SolidWorks Line Style
 72
    65
 73
     5
 40
15.2400000000000002
 49
6.3499999999999988
 49
-1.27
 49
1.27
 49
-1.27
 49
5.0800000000000001
  0
ENDTAB
  0
TABLE
  2
LAYER
 70
     9
  0
LAYER
  2
0
 70
     0
 62
     7
  6
CONTINUOUS
  0
LAYER
  2
轮廓粗实线
 70
     0
 62
     7
  6
CONTINUOUS
  0
LAYER
  2
切边
 70
     0
 62
     5
  6
SLD-双点画线
  0
LAYER
  2
虚线
 70
     0
 62
     1
  6
SLD-虚线
  0
LAYER
  2
局部视图边界
 70
     0
 62
     1
  6
SLD-虚线
  0
LAYER
  2
细实线
 70
     0
 62
     2
  6
SLD-实线
  0
LAYER
  2
剖面线
 70
     0
 62
     6
  6
CONTINUOUS
  0
LAYER
  2
折断线
 70
     0
 62
     9
  6
SLD-虚线
  0
LAYER
  2
文字
 70
     0
 62
     7
  6
CONTINUOUS
  0
ENDTAB
  0
TABLE
  2
STYLE
 70
     9
  0
STYLE
  2
STANDARD
 70
     0
 40
0.0
 41
1.0
 50
0.0
 71
     0
 42
0.875
  3
txt
  4

  0
STYLE
  2
SLDTEXTSTYLE0
 70
     0
 40
0.0
 41
1.0
 50
0.0
 71
     0
 42
0.875
  3
txt
  4
bigfont
  0
STYLE
  2
SLDTEXTSTYLE1
 70
     0
 40
0.0
 41
0.8
 50
0.0
 71
     0
 42
0.875
  3
txt
  4

  0
STYLE
  2
SLDTEXTSTYLE2
 70
     0
 40
0.0
 41
0.8
 50
0.0
 71
     0
 42
0.875
  3
txt
  4
bigfont
  0
STYLE
  2
SLDTEXTSTYLE3
 70
     0
 40
0.0
 41
1.0
 50
0.0
 71
     0
 42
0.875
  3
txt
  4
bigfont
  0
STYLE
  2
SLDTEXTSTYLE4
 70
     0
 40
0.0
 41
1.0
 50
0.0
 71
     0
 42
0.875
  3
txt
  4

  0
STYLE
  2
SLDTEXTSTYLE5
 70
     0
 40
0.0
 41
1.0
 50
0.0
 71
     0
 42
0.875
  3
txt
  4
bigfont
  0
STYLE
  2
SLDTEXTSTYLE6
 70
     0
 40
0.0
 41
0.913
 50
0.0
 71
     0
 42
0.875
  3
txt
  4

  0
STYLE
  2
SLDTEXTSTYLE7
 70
     0
 40
0.0
 41
1.0
 50
0.0
 71
     0
 42
0.875
  3
txt
  4

  0
ENDTAB
  0
TABLE
  2
VIEW
 70
     0
  0
ENDTAB
  0
TABLE
  2
UCS
 70
     0
  0
ENDTAB
  0
TABLE
  2
APPID
 70
     3
  0
APPID
  2
ACAD
 70
     0
  0
APPID
  2
ACAD_MLEADERVER
 70
     0
  0
APPID
  2
ACAD_NAV_VCDISPLAY
 70
     0
  0
ENDTAB
  0
TABLE
  2
DIMSTYLE
 70
     5
  0
DIMSTYLE
  2
ISO-25
 70
     0
  3

  4

  5

  6

  7

 40
1.0
 41
2.5
 42
0.625
 43
3.75
 44
1.25
 45
0.0
 46
0.0
 47
0.0
 48
0.0
140
2.5
141
2.5
142
0.0
143
0.03937007874016
144
1.0
145
0.0
146
1.0
147
0.625
 71
     0
 72
     0
 73
     0
 74
     0
 75
     0
 76
     0
 77
     1
 78
     8
170
     0
171
     3
172
     1
173
     0
174
     0
175
     0
176
     0
177
     0
178
     0
  0
DIMSTYLE
  2
SLDDIMSTYLE0
 70
     0
  3

  4

  5

  6

  7

 40
1.0
 41
1.02
 42
0.0625
 43
0.38
 44
0.0
 45
0.000000001
 46
0.0
 47
0.0
 48
0.0
140
0.875
141
0.09
142
0.0
143
25.3999999999999986
144
1.0
145
0.0
146
1.0
147
0.21875
 71
     0
 72
     0
 73
     0
 74
     0
 75
     0
 76
     0
 77
     2
 78
    12
170
     0
171
     2
172
     0
173
     1
174
     0
175
     0
176
     0
177
     0
178
     0
  0
DIMSTYLE
  2
SLDDIMSTYLE1
 70
     0
  3

  4

  5

  6

  7

 40
1.0
 41
1.02
 42
0.0625
 43
0.38
 44
0.0
 45
0.000000001
 46
0.0
 47
0.0
 48
0.0
140
0.875
141
0.0
142
0.0
143
25.3999999999999986
144
1.0
145
0.0
146
1.0
147
0.21875
 71
     0
 72
     0
 73
     0
 74
     0
 75
     0
 76
     0
 77
     2
 78
    12
170
     0
171
     2
172
     0
173
     1
174
     0
175
     0
176
     0
177
     0
178
     0
  0
DIMSTYLE
  2
SLDDIMSTYLE2
 70
     0
  3

  4

  5

  6

  7

 40
1.0
 41
1.02
 42
0.0625
 43
0.38
 44
0.0
 45
0.000000001
 46
0.0
 47
0.0
 48
0.0
140
0.18
141
0.09
142
0.0
143
25.3999999999999986
144
1.0
145
0.0
146
1.02
147
0.0
 71
     0
 72
     0
 73
     1
 74
     1
 75
     0
 76
     0
 77
     0
 78
     0
170
     0
171
     2
172
     0
173
     1
174
     0
175
     0
176
     0
177
     0
178
     0
  0
DIMSTYLE
  2
SLDDIMSTYLE3
 70
     0
  3

  4

  5

  6

  7

 40
1.0
 41
1.02
 42
0.0625
 43
0.38
 44
0.0
 45
0.000000001
 46
0.0
 47
0.0
 48
0.0
140
0.875
141
0.09
142
0.0
143
25.3999999999999986
144
1.0
145
0.0
146
1.0
147
0.21875
 71
     0
 72
     0
 73
     0
 74
     0
 75
     0
 76
     0
 77
     2
 78
     4
170
     0
171
     2
172
     1
173
     1
174
     0
175
     0
176
     0
177
     0
178
     0
  0
ENDTAB
  0
ENDSEC
  0
SECTION
  2
BLOCKS
  0
BLOCK
  8
0
  2
$MODEL_SPACE
 70
     0
 10
0.0
 20
0.0
 30
0.0
  3
$MODEL_SPACE
  1

  0
ENDBLK
  5
21
  8
0
  0
BLOCK
 67
     1
  8
0
  2
$PAPER_SPACE
 70
     0
 10
0.0
 20
0.0
 30
0.0
  3
$PAPER_SPACE
  1

  0
ENDBLK
  5
1D
 67
     1
  8
0
  0
BLOCK
  8
0
  2
SW_TABLEANNOTATION_0
 70
     0
 10
0.0
 20
0.0
 30
0.0
  3
SW_TABLEANNOTATION_0
  1

  0
LINE
  5
E8
  8
0
  6
SLD-实线
 62
     0
 10
0.0
 20
0.0
 30
0.0
 11
0.0
 21
-1.9522076817809899
 31
0.0
  0
LINE
  5
E9
  8
0
  6
SLD-实线
 62
     0
 10
4.6684675215835911
 20
0.0
 30
0.0
 11
4.6684675215835911
 21
-1.9522076817809899
 31
0.0
  0
LINE
  5
EA
  8
0
  6
SLD-实线
 62
     0
 10
13.1150839532886501
 20
0.0
 30
0.0
 11
13.1150839532886501
 21
-1.9522076817809899
 31
0.0
  0
LINE
  5
EB
  8
0
  6
SLD-实线
 62
     0
 10
26.5765250988695101
 20
0.0
 30
0.0
 11
26.5765250988695101
 21
-1.9522076817809899
 31
0.0
  0
LINE
  5
EC
  8
0
  6
SLD-实线
 62
     0
 10
30.4417570074395485
 20
0.0
 30
0.0
 11
30.4417570074395485
 21
-1.9522076817809899
 31
0.0
  0
LINE
  5
ED
  8
0
  6
SLD-实线
 62
     0
 10
0.0
 20
0.0
 30
0.0
 11
4.6684675215835911
 21
0.0
 31
0.0
  0
LINE
  5
EE
  8
0
  6
SLD-实线
 62
     0
 10
0.0
 20
-1.9522076817809899
 30
0.0
 11
4.6684675215835911
 21
-1.9522076817809899
 31
0.0
  0
LINE
  5
EF
  8
0
  6
SLD-实线
 62
     0
 10
4.6684675215835911
 20
0.0
 30
0.0
 11
13.1150839532886501
 21
0.0
 31
0.0
  0
LINE
  5
F0
  8
0
  6
SLD-实线
 62
     0
 10
4.6684675215835911
 20
-1.9522076817809899
 30
0.0
 11
13.1150839532886501
 21
-1.9522076817809899
 31
0.0
  0
LINE
  5
F1
  8
0
  6
SLD-实线
 62
     0
 10
13.1150839532886501
 20
0.0
 30
0.0
 11
26.5765250988695101
 21
0.0
 31
0.0
  0
LINE
  5
F2
  8
0
  6
SLD-实线
 62
     0
 10
13.1150839532886501
 20
-1.9522076817809899
 30
0.0
 11
26.5765250988695101
 21
-1.9522076817809899
 31
0.0
  0
LINE
  5
F3
  8
0
  6
SLD-实线
 62
     0
 10
26.5765250988695101
 20
0.0
 30
0.0
 11
30.4417570074395485
 21
0.0
 31
0.0
  0
LINE
  5
F4
  8
0
  6
SLD-实线
 62
     0
 10
26.5765250988695101
 20
-1.9522076817809899
 30
0.0
 11
30.4417570074395485
 21
-1.9522076817809899
 31
0.0
  0
LINE
  5
F5
  8
0
  6
SLD-实线
 62
     0
 10
0.0
 20
-1.9522076817809759
 30
0.0
 11
0.0
 21
-3.9044153635619661
 31
0.0
  0
LINE
  5
F6
  8
0
  6
SLD-实线
 62
     0
 10
4.6684675215835911
 20
-1.9522076817809759
 30
0.0
 11
4.6684675215835911
 21
-3.9044153635619661
 31
0.0
  0
LINE
  5
F7
  8
0
  6
SLD-实线
 62
     0
 10
0.0
 20
-3.9044153635619661
 30
0.0
 11
0.0
 21
-5.856623045342956
 31
0.0
  0
LINE
  5
F8
  8
0
  6
SLD-实线
 62
     0
 10
4.6684675215835911
 20
-3.9044153635619661
 30
0.0
 11
4.6684675215835911
 21
-5.856623045342956
 31
0.0
  0
LINE
  5
F9
  8
0
  6
SLD-实线
 62
     0
 10
13.1150839532886501
 20
-1.9522076817809759
 30
0.0
 11
13.1150839532886501
 21
-3.9044153635619661
 31
0.0
  0
LINE
  5
FA
  8
0
  6
SLD-实线
 62
     0
 10
13.1150839532886501
 20
-3.9044153635619661
 30
0.0
 11
13.1150839532886501
 21
-5.856623045342956
 31
0.0
  0
LINE
  5
FB
  8
0
  6
SLD-实线
 62
     0
 10
26.5765250988695101
 20
-1.9522076817809759
 30
0.0
 11
26.5765250988695101
 21
-3.9044153635619661
 31
0.0
  0
LINE
  5
FC
  8
0
  6
SLD-实线
 62
     0
 10
26.5765250988695101
 20
-3.9044153635619661
 30
0.0
 11
26.5765250988695101
 21
-5.856623045342956
 31
0.0
  0
LINE
  5
FD
  8
0
  6
SLD-实线
 62
     0
 10
30.4417570074395485
 20
-1.9522076817809759
 30
0.0
 11
30.4417570074395485
 21
-3.9044153635619661
 31
0.0
  0
LINE
  5
FE
  8
0
  6
SLD-实线
 62
     0
 10
30.4417570074395485
 20
-3.9044153635619661
 30
0.0
 11
30.4417570074395485
 21
-5.856623045342956
 31
0.0
  0
LINE
  5
FF
  8
0
  6
SLD-实线
 62
     0
 10
0.0
 20
-3.9044153635619661
 30
0.0
 11
4.6684675215835911
 21
-3.9044153635619661
 31
0.0
  0
LINE
  5
100
  8
0
  6
SLD-实线
 62
     0
 10
4.6684675215835911
 20
-3.9044153635619661
 30
0.0
 11
13.1150839532886501
 21
-3.9044153635619661
 31
0.0
  0
LINE
  5
101
  8
0
  6
SLD-实线
 62
     0
 10
13.1150839532886501
 20
-3.9044153635619661
 30
0.0
 11
26.5765250988695101
 21
-3.9044153635619661
 31
0.0
  0
LINE
  5
102
  8
0
  6
SLD-实线
 62
     0
 10
26.5765250988695101
 20
-3.9044153635619661
 30
0.0
 11
30.4417570074395485
 21
-3.9044153635619661
 31
0.0
  0
LINE
  5
103
  8
0
  6
SLD-实线
 62
     0
 10
0.0
 20
-5.856623045342956
 30
0.0
 11
4.6684675215835911
 21
-5.856623045342956
 31
0.0
  0
LINE
  5
104
  8
0
  6
SLD-实线
 62
     0
 10
4.6684675215835911
 20
-5.856623045342956
 30
0.0
 11
13.1150839532886501
 21
-5.856623045342956
 31
0.0
  0
LINE
  5
105
  8
0
  6
SLD-实线
 62
     0
 10
13.1150839532886501
 20
-5.856623045342956
 30
0.0
 11
26.5765250988695101
 21
-5.856623045342956
 31
0.0
  0
LINE
  5
106
  8
0
  6
SLD-实线
 62
     0
 10
26.5765250988695101
 20
-5.856623045342956
 30
0.0
 11
30.4417570074395485
 21
-5.856623045342956
 31
0.0
  0
INSERT
  5
107
  8
0
  2
*U60
 10
0.0
 20
0.0
 30
0.0
  0
INSERT
  5
108
  8
0
  2
*U61
 10
0.0
 20
0.0
 30
0.0
  0
INSERT
  5
109
  8
0
  2
*U62
 10
0.0
 20
0.0
 30
0.0
  0
INSERT
  5
10A
  8
0
  2
*U63
 10
0.0
 20
0.0
 30
0.0
  0
INSERT
  5
10C
  8
0
  2
*U64
 10
0.0
 20
0.0
 30
0.0
  0
INSERT
  5
10D
  8
0
  2
*U65
 10
0.0
 20
0.0
 30
0.0
  0
INSERT
  5
10E
  8
0
  2
*U66
 10
0.0
 20
0.0
 30
0.0
  0
INSERT
  5
10F
  8
0
  2
*U67
 10
0.0
 20
0.0
 30
0.0
  0
INSERT
  5
110
  8
0
  2
*U68
 10
0.0
 20
0.0
 30
0.0
  0
INSERT
  5
111
  8
0
  2
*U69
 10
0.0
 20
0.0
 30
0.0
  0
ENDBLK
  5
E7
  8
0
  0
BLOCK
  8
0
  2
_D
 70
     0
 10
0.0
 20
0.0
 30
0.0
  3
_D
  1

  0
SOLID
  5
138
  8
0
  6
SLD-实线
 62
     5
 10
64.3303843652444982
 20
42.9760702207522129
 30
0.0
 11
64.2033843652445029
 21
41.9560702207522098
 31
0.0
 12
64.4573843652444936
 22
41.9560702207522098
 32
0.0
 13
64.4573843652444936
 23
41.9560702207522098
 33
0.0
  0
SOLID
  5
139
  8
0
  6
SLD-实线
 62
     5
 10
64.3303843652444982
 20
17.9760702207522094
 30
0.0
 11
64.4573843652444936
 21
18.996070220752209
 31
0.0
 12
64.2033843652445029
 22
18.996070220752209
 32
0.0
 13
64.2033843652445029
 23
18.996070220752209
 33
0.0
  0
LINE
  5
13A
  8
0
  6
SLD-实线
 62
     5
 10
59.3303843652444627
 20
42.9760702207522129
 30
0.0
 11
64.830384365244484
 21
42.9760702207522129
 31
0.0
  0
LINE
  5
13B
  8
0
  6
SLD-实线
 62
     5
 10
59.3303843652444627
 20
17.9760702207522094
 30
0.0
 11
64.830384365244484
 21
17.9760702207522094
 31
0.0
  0
LINE
  5
13C
  8
0
  6
SLD-实线
 62
     5
 10
64.3303843652444982
 20
42.9760702207522129
 30
0.0
 11
64.3303843652444982
 21
17.9760702207522094
 31
0.0
  0
INSERT
  5
13D
  8
0
  2
*U70
 10
0.0
 20
0.0
 30
0.0
  0
ENDBLK
  5
137
  8
0
  0
BLOCK
  8
0
  2
_D_1
 70
     0
 10
0.0
 20
0.0
 30
0.0
  3
_D_1
  1

  0
SOLID
  5
142
  8
0
  6
SLD-实线
 62
     5
 10
60.3303843652444698
 20
48.4760702207521987
 30
0.0
 11
59.3103843652444596
 21
48.6030702207522083
 31
0.0
 12
59.3103843652444596
 22
48.3490702207522105
 32
0.0
 13
59.3103843652444596
 23
48.3490702207522105
 33
0.0
  0
SOLID
  5
143
  8
0
  6
SLD-实线
 62
     5
 10
42.3303843652444627
 20
48.4760702207521987
 30
0.0
 11
43.3503843652444587
 21
48.3490702207522105
 31
0.0
 12
43.3503843652444587
 22
48.6030702207522083
 32
0.0
 13
43.3503843652444587
 23
48.6030702207522083
 33
0.0
  0
LINE
  5
144
  8
0
  6
SLD-实线
 62
     5
 10
60.3303843652444698
 20
41.9760702207521987
 30
0.0
 11
60.3303843652444698
 21
48.9760702207521987
 31
0.0
  0
LINE
  5
145
  8
0
  6
SLD-实线
 62
     5
 10
42.3303843652444627
 20
42.9760702207522129
 30
0.0
 11
42.3303843652444627
 21
48.9760702207521987
 31
0.0
  0
LINE
  5
146
  8
0
  6
SLD-实线
 62
     5
 10
60.3303843652444698
 20
48.4760702207521987
 30
0.0
 11
42.3303843652444627
 21
48.4760702207521987
 31
0.0
  0
INSERT
  5
147
  8
0
  2
*U71
 10
0.0
 20
0.0
 30
0.0
  0
ENDBLK
  5
141
  8
0
  0
BLOCK
  8
0
  2
_D_2
 70
     0
 10
0.0
 20
0.0
 30
0.0
  3
_D_2
  1

  0
SOLID
  5
14C
  8
0
  6
SLD-实线
 62
     5
 10
66.6111510188636657
 20
45.9760702207521987
 30
0.0
 11
66.4841510188636704
 21
44.9560702207522027
 31
0.0
 12
66.7381510188636611
 22
44.9560702207522027
 32
0.0
 13
66.7381510188636611
 23
44.9560702207522027
 33
0.0
  0
SOLID
  5
14D
  8
0
  6
SLD-实线
 62
     5
 10
66.6111510188636657
 20
14.9760702207522005
 30
0.0
 11
66.7381510188636611
 21
15.9960702207522001
 31
0.0
 12
66.4841510188636704
 22
15.9960702207522001
 32
0.0
 13
66.4841510188636704
 23
15.9960702207522001
 33
0.0
  0
LINE
  5
14E
  8
0
  6
SLD-实线
 62
     5
 10
45.3303843652444627
 20
45.9760702207521987
 30
0.0
 11
67.1111510188636657
 21
45.9760702207521987
 31
0.0
  0
LINE
  5
14F
  8
0
  6
SLD-实线
 62
     5
 10
45.3303843652444627
 20
14.9760702207522005
 30
0.0
 11
67.1111510188636657
 21
14.9760702207522005
 31
0.0
  0
LINE
  5
150
  8
0
  6
SLD-实线
 62
     5
 10
66.6111510188636657
 20
45.9760702207521987
 30
0.0
 11
66.6111510188636657
 21
14.9760702207522005
 31
0.0
  0
INSERT
  5
151
  8
0
  2
*U72
 10
0.0
 20
0.0
 30
0.0
  0
ENDBLK
  5
14B
  8
0
  0
BLOCK
  8
0
  2
_D_3
 70
     0
 10
0.0
 20
0.0
 30
0.0
  3
_D_3
  1

  0
SOLID
  5
157
  8
0
  6
SLD-实线
 62
     5
 10
42.9498348783957127
 20
44.8017164462472124
 30
0.0
 11
42.2177337430797479
 21
45.5232127578587722
 31
0.0
 12
42.0631623626545093
 22
45.3216595679722403
 32
0.0
 13
42.0631623626545093
 23
45.3216595679722403
 33
0.0
  0
LINE
  5
158
  8
0
  6
SLD-实线
 62
     5
 10
42.9498348783957127
 20
44.8017164462472124
 30
0.0
 11
37.7659609020525622
 21
48.7772355483014408
 31
0.0
  0
LINE
  5
159
  8
0
  6
SLD-实线
 62
     5
 10
42.9498348783957127
 20
44.8017164462472124
 30
0.0
 11
45.3303843652444627
 21
42.9760702207522129
 31
0.0
  0
INSERT
  5
15A
  8
0
  2
*U73
 10
0.0
 20
0.0
 30
0.0
  0
ENDBLK
  5
156
  8
0
  0
BLOCK
  8
0
  2
_D_4
 70
     0
 10
0.0
 20
0.0
 30
0.0
  3
_D_4
  1

  0
SOLID
  5
15F
  8
0
  6
SLD-实线
 62
     5
 10
38.9673716263925698
 20
42.9760702207522129
 30
0.0
 11
38.8403716263925674
 21
41.9560702207522098
 31
0.0
 12
39.0943716263925722
 22
41.9560702207522098
 32
0.0
 13
39.0943716263925722
 23
41.9560702207522098
 33
0.0
  0
SOLID
  5
160
  8
0
  6
SLD-实线
 62
     5
 10
38.9673716263925698
 20
17.9760702207522094
 30
0.0
 11
39.0943716263925722
 21
18.996070220752209
 31
0.0
 12
38.8403716263925674
 22
18.996070220752209
 32
0.0
 13
38.8403716263925674
 23
18.996070220752209
 33
0.0
  0
LINE
  5
161
  8
0
  6
SLD-实线
 62
     5
 10
45.3303843652444627
 20
42.9760702207522129
 30
0.0
 11
38.4673716263925698
 21
42.9760702207522129
 31
0.0
  0
LINE
  5
162
  8
0
  6
SLD-实线
 62
     5
 10
45.3303843652444627
 20
17.9760702207522094
 30
0.0
 11
38.4673716263925698
 21
17.9760702207522094
 31
0.0
  0
LINE
  5
163
  8
0
  6
SLD-实线
 62
     5
 10
38.9673716263925698
 20
42.9760702207522129
 30
0.0
 11
38.9673716263925698
 21
17.9760702207522094
 31
0.0
  0
INSERT
  5
164
  8
0
  2
*U74
 10
0.0
 20
0.0
 30
0.0
  0
ENDBLK
  5
15E
  8
0
  0
BLOCK
  8
0
  2
SW_NOTE_0
 70
     0
 10
0.0
 20
0.0
 30
0.0
  3
SW_NOTE_0
  1

  0
LINE
  5
168
  8
0
  6
SLD-实线
 62
     0
 10
0.0
 20
-0.0000000000000278
 30
0.0
 11
1.011235955056172
 21
-0.0000000000000278
 31
0.0
  0
LINE
  5
169
  8
0
  6
SLD-实线
 62
     0
 10
1.011235955056172
 20
-0.0000000000000278
 30
0.0
 11
0.0
 21
-0.0000000000000278
 31
0.0
  0
LINE
  5
16A
  8
0
  6
SLD-实线
 62
     0
 10
0.0
 20
-0.0000000000000278
 30
0.0
 11
1.011235955056172
 21
-0.0000000000000278
 31
0.0
  0
LINE
  5
16B
  8
0
  6
SLD-实线
 62
     0
 10
1.011235955056172
 20
-0.0000000000000278
 30
0.0
 11
0.0
 21
-0.0000000000000278
 31
0.0
  0
LINE
  5
16C
  8
0
  6
SLD-实线
 62
     0
 10
0.0
 20
-0.0000000000000278
 30
0.0
 11
1.011235955056172
 21
-0.0000000000000278
 31
0.0
  0
LINE
  5
16D
  8
0
  6
SLD-实线
 62
     0
 10
1.011235955056172
 20
-0.0000000000000278
 30
0.0
 11
0.0
 21
-0.0000000000000278
 31
0.0
  0
INSERT
  5
16E
  8
0
  2
*U75
 10
0.0
 20
0.0
 30
0.0
  0
ENDBLK
  5
167
  8
0
  0
BLOCK
  8
0
  2
SW_NOTE_0_1
 70
     0
 10
0.0
 20
0.0
 30
0.0
  3
SW_NOTE_0_1
  1

  0
LINE
  5
175
  8
0
  6
SLD-实线
 62
     0
 10
-1.0112359550561789
 20
0.0000000000000104
 30
0.0
 11
0.0
 21
0.0000000000000104
 31
0.0
  0
LINE
  5
176
  8
0
  6
SLD-实线
 62
     0
 10
0.0
 20
0.0000000000000104
 30
0.0
 11
-1.0112359550561789
 21
0.0000000000000104
 31
0.0
  0
LINE
  5
177
  8
0
  6
SLD-实线
 62
     0
 10
-1.0112359550561789
 20
0.0000000000000104
 30
0.0
 11
0.0
 21
0.0000000000000104
 31
0.0
  0
LINE
  5
178
  8
0
  6
SLD-实线
 62
     0
 10
0.0
 20
0.0000000000000104
 30
0.0
 11
-1.0112359550561789
 21
0.0000000000000104
 31
0.0
  0
LINE
  5
179
  8
0
  6
SLD-实线
 62
     0
 10
-1.0112359550561789
 20
0.0000000000000104
 30
0.0
 11
0.0
 21
0.0000000000000104
 31
0.0
  0
LINE
  5
17A
  8
0
  6
SLD-实线
 62
     0
 10
0.0
 20
0.0000000000000104
 30
0.0
 11
-1.0112359550561789
 21
0.0000000000000104
 31
0.0
  0
INSERT
  5
17B
  8
0
  2
*U76
 10
0.0
 20
0.0
 30
0.0
  0
ENDBLK
  5
174
  8
0
  0
BLOCK
  8
0
  2
_D_5
 70
     0
 10
0.0
 20
0.0
 30
0.0
  3
_D_5
  1

  0
SOLID
  5
197
  8
0
  6
SLD-实线
 62
     5
 10
38.6567395889850118
 20
55.6420925849190908
 30
0.0
 11
38.5297395889850023
 21
54.6220925849190877
 31
0.0
 12
38.7837395889850072
 22
54.6220925849190877
 32
0.0
 13
38.7837395889850072
 23
54.6220925849190877
 33
0.0
  0
SOLID
  5
198
  8
0
  6
SLD-实线
 62
     5
 10
38.6567395889850118
 20
57.1420925849190908
 30
0.0
 11
38.7837395889850072
 21
58.1620925849190868
 31
0.0
 12
38.5297395889850023
 22
58.1620925849190868
 32
0.0
 13
38.5297395889850023
 23
58.1620925849190868
 33
0.0
  0
LINE
  5
199
  8
0
  6
SLD-实线
 62
     5
 10
42.3303843652444698
 20
55.6420925849190908
 30
0.0
 11
38.1567395889849976
 21
55.6420925849190908
 31
0.0
  0
LINE
  5
19A
  8
0
  6
SLD-实线
 62
     5
 10
42.3303843652444698
 20
57.1420925849190908
 30
0.0
 11
38.1567395889849976
 21
57.1420925849190908
 31
0.0
  0
LINE
  5
19B
  8
0
  6
SLD-实线
 62
     5
 10
38.6567395889850118
 20
55.6420925849190908
 30
0.0
 11
38.6567395889850118
 21
51.6327314698772568
 31
0.0
  0
LINE
  5
19C
  8
0
  6
SLD-实线
 62
     5
 10
38.6567395889850118
 20
55.6420925849190908
 30
0.0
 11
38.6567395889850118
 21
57.1420925849190908
 31
0.0
  0
LINE
  5
19D
  8
0
  6
SLD-实线
 62
     5
 10
38.6567395889850118
 20
57.1420925849190908
 30
0.0
 11
38.6567395889850118
 21
58.7295925849190894
 31
0.0
  0
INSERT
  5
19E
  8
0
  2
*U78
 10
0.0
 20
0.0
 30
0.0
  0
ENDBLK
  5
196
  8
0
  0
BLOCK
  8
0
  2
*U10
 70
     1
 10
0.0
 20
0.0
 30
0.0
  3
*U10
  1

  0
TEXT
  5
21E
  8
0
 62
     7
 10
3.46642098272706
 20
10.8195506027479098
 30
0.0
 40
0.79375
  1
技术要求：
  7
SLDTEXTSTYLE0
  0
TEXT
  5
21F
  8
0
 62
     7
 10
3.421063839869916
 20
9.3333482217955321
 30
0.0
 40
0.79375
  1
1、去锐角，去毛刺。
  7
SLDTEXTSTYLE0
  0
TEXT
  5
220
  8
0
 62
     7
 10
3.493635268441345
 20
7.8471458408431518
 30
0.0
 40
0.79375
  1
2、未注倒角C0.5，未注圆角R0.5。
  7
SLDTEXTSTYLE0
  0
TEXT
  5
221
  8
0
 62
     7
 10
3.4845638398699168
 20
6.3609434598907706
 30
0.0
 40
0.79375
  1
3、未注尺寸公差按照GB/T1804-92m级。
  7
SLDTEXTSTYLE0
  0
TEXT
  5
222
  8
0
 62
     7
 10
3.5117781255842022
 20
4.8747410789383903
 30
0.0
 40
0.79375
  1
4、表面阳极氧化。
  7
SLDTEXTSTYLE0
  0
ENDBLK
  5
224
  8
0
  0
BLOCK
  8
0
  2
*U11
 70
     1
 10
0.0
 20
0.0
 30
0.0
  3
*U11
  1

  0
TEXT
  5
226
  8
0
 62
     7
 10
56.1430188286240011
 20
4.1782014168313948
 30
0.0
 40
0.5953125
  1
A1
 41
0.8
  7
SLDTEXTSTYLE1
  0
ENDBLK
  5
228
  8
0
  0
BLOCK
  8
0
  2
*U12
 70
     1
 10
0.0
 20
0.0
 30
0.0
  3
*U12
  1

  0
TEXT
  5
22A
  8
0
 62
     7
 10
64.3095551315167739
 20
4.1284055267559339
 30
0.0
 40
0.5953125
  1
审核
 41
0.8
  7
SLDTEXTSTYLE2
  0
ENDBLK
  5
22C
  8
0
  0
BLOCK
  8
0
  2
*U13
 70
     1
 10
0.0
 20
0.0
 30
0.0
  3
*U13
  1

  0
TEXT
  5
22E
  8
0
 62
     7
 10
57.4775163635108584
 20
2.7724937909892242
 30
0.0
 40
0.5953125
  1
变更内容
 41
0.8
  7
SLDTEXTSTYLE2
  0
ENDBLK
  5
230
  8
0
  0
BLOCK
  8
0
  2
*U14
 70
     1
 10
0.0
 20
0.0
 30
0.0
  3
*U14
  1

  0
TEXT
  5
232
  8
0
 62
     7
 10
64.3162066678296043
 20
5.4787221006748261
 30
0.0
 40
0.5953125
  1
设计
 41
0.8
  7
SLDTEXTSTYLE2
  0
ENDBLK
  5
234
  8
0
  0
BLOCK
  8
0
  2
*U15
 70
     1
 10
0.0
 20
0.0
 30
0.0
  3
*U15
  1

  0
TEXT
  5
236
  8
0
 62
     7
 10
61.0814725536723913
 20
2.7849583240518041
 30
0.0
 40
0.5953125
  1
日   期
 41
0.8
  7
SLDTEXTSTYLE2
  0
ENDBLK
  5
238
  8
0
  0
BLOCK
  8
0
  2
*U16
 70
     1
 10
0.0
 20
0.0
 30
0.0
  3
*U16
  1

  0
TEXT
  5
23A
  8
0
 62
     7
 10
57.477516363510837
 20
4.0751026039822342
 30
0.0
 40
0.5953125
  1
加工发行
 41
0.8
  7
SLDTEXTSTYLE2
  0
ENDBLK
  5
23C
  8
0
  0
BLOCK
  8
0
  2
*U17
 70
     1
 10
0.0
 20
0.0
 30
0.0
  3
*U17
  1

  0
TEXT
  5
23E
  8
0
 62
     7
 10
64.3241885114051541
 20
2.84565465433288
 30
0.0
 40
0.5953125
  1
批准
 41
0.8
  7
SLDTEXTSTYLE2
  0
ENDBLK
  5
240
  8
0
  0
BLOCK
  8
0
  2
*U18
 70
     1
 10
0.0
 20
0.0
 30
0.0
  3
*U18
  1

  0
TEXT
  5
242
  8
0
 62
     7
 10
55.7853704722784016
 20
2.7749810195825289
 30
0.0
 40
0.5953125
  1
版本
 41
0.8
  7
SLDTEXTSTYLE2
  0
ENDBLK
  5
244
  8
0
  0
BLOCK
  8
0
  2
*U19
 70
     1
 10
0.0
 20
0.0
 30
0.0
  3
*U19
  1

  0
TEXT
  5
246
  8
0
 62
     7
 10
60.7960137435889294
 20
4.1116860464269456
 30
0.0
 40
0.5953125
  1
2025/7/21
 41
0.8
  7
SLDTEXTSTYLE1
  0
ENDBLK
  5
248
  8
0
  0
BLOCK
  8
0
  2
*U20
 70
     1
 10
0.0
 20
0.0
 30
0.0
  3
*U20
  1

  0
TEXT
  5
24A
  8
0
 62
     7
 10
90.3233625623271337
 20
4.4113290325140957
 30
0.0
 40
0.875
  1
第  张
  7
SLDTEXTSTYLE3
  0
ENDBLK
  5
24C
  8
0
  0
BLOCK
  8
0
  2
*U21
 70
     1
 10
0.0
 20
0.0
 30
0.0
  3
*U21
  1

  0
TEXT
  5
24E
  8
0
 62
     7
 10
86.3415335148290666
 20
4.4211055688269383
 30
0.0
 40
0.875
  1
共  张
  7
SLDTEXTSTYLE3
  0
ENDBLK
  5
250
  8
0
  0
BLOCK
  8
0
  2
*U22
 70
     1
 10
0.0
 20
0.0
 30
0.0
  3
*U22
  1

  0
TEXT
  5
252
  8
0
 62
     7
 10
99.5718227755581893
 20
6.1545235192124856
 30
0.0
 40
0.875
  1
4:1
  7
SLDTEXTSTYLE0
  0
ENDBLK
  5
254
  8
0
  0
BLOCK
  8
0
  2
*U23
 70
     1
 10
0.0
 20
0.0
 30
0.0
  3
*U23
  1

  0
TEXT
  5
256
  8
0
 62
     7
 10
99.3625519344328012
 20
7.4422772155273771
 30
0.0
 40
0.875
  1
比例
  7
SLDTEXTSTYLE0
  0
ENDBLK
  5
258
  8
0
  0
BLOCK
  8
0
  2
*U24
 70
     1
 10
0.0
 20
0.0
 30
0.0
  3
*U24
  1

  0
TEXT
  5
25A
  8
0
 62
     7
 10
73.1284153293844668
 20
8.4512804390174416
 30
0.0
 40
0.875
  1
零件名称：
  7
SLDTEXTSTYLE3
  0
ENDBLK
  5
25C
  8
0
  0
BLOCK
  8
0
  2
*U25
 70
     1
 10
0.0
 20
0.0
 30
0.0
  3
*U25
  1

  0
TEXT
  5
25E
  8
0
 62
     7
 10
73.158254074924784
 20
6.5585013252070183
 30
0.0
 40
0.875
  1
材    质：
  7
SLDTEXTSTYLE3
  0
ENDBLK
  5
260
  8
0
  0
BLOCK
  8
0
  2
*U26
 70
     1
 10
0.0
 20
0.0
 30
0.0
  3
*U26
  1

  0
TEXT
  5
262
  8
0
 62
     7
 10
93.731638531059005
 20
7.4501843127228664
 30
0.0
 40
0.875
  1
重量(Kg)
  7
SLDTEXTSTYLE3
  0
ENDBLK
  5
264
  8
0
  0
BLOCK
  8
0
  2
*U27
 70
     1
 10
0.0
 20
0.0
 30
0.0
  3
*U27
  1

  0
TEXT
  5
266
  8
0
 62
     7
 10
86.295469989725774
 20
7.4306312400971679
 30
0.0
 40
0.875
  1
图样标记
  7
SLDTEXTSTYLE3
  0
ENDBLK
  5
268
  8
0
  0
BLOCK
  8
0
  2
*U28
 70
     1
 10
0.0
 20
0.0
 30
0.0
  3
*U28
  1

  0
TEXT
  5
26A
  8
0
 62
     7
 10
94.2769281068379144
 20
4.4113290325141046
 30
0.0
 40
0.875
  1
表面积
  7
SLDTEXTSTYLE3
  0
ENDBLK
  5
26C
  8
0
  0
BLOCK
  8
0
  2
*U29
 70
     1
 10
0.0
 20
0.0
 30
0.0
  3
*U29
  1

  0
TEXT
  5
26E
  8
0
 62
     7
 10
73.1260395030824242
 20
4.739248091401393
 30
0.0
 40
0.875
  1
表面处理：
  7
SLDTEXTSTYLE3
  0
ENDBLK
  5
270
  8
0
  0
BLOCK
  8
0
  2
*U30
 70
     1
 10
0.0
 20
0.0
 30
0.0
  3
*U30
  1

  0
TEXT
  5
272
  8
0
 62
     7
 10
91.4679438492713786
 20
7.4355195082535932
 30
0.0
 40
0.875
  1
数量
  7
SLDTEXTSTYLE3
  0
ENDBLK
  5
274
  8
0
  0
BLOCK
  8
0
  2
*U31
 70
     1
 10
0.0
 20
0.0
 30
0.0
  3
*U31
  1

  0
TEXT
  5
276
  8
0
 62
     7
 10
73.1323652685723857
 20
2.7460041147582119
 30
0.0
 40
0.875
  1
激光转接板
  7
SLDTEXTSTYLE3
  0
ENDBLK
  5
278
  8
0
  0
BLOCK
  8
0
  2
*U32
 70
     1
 10
0.0
 20
0.0
 30
0.0
  3
*U32
  1

  0
TEXT
  5
27A
  8
0
 62
     7
 10
0.9107346728020587
 20
6.9487186263998337
 30
0.0
 40
0.9921874999999998
  1
F
 41
0.913
  7
SLDTEXTSTYLE6
  0
ENDBLK
  5
27C
  8
0
  0
BLOCK
  8
0
  2
*U33
 70
     1
 10
0.0
 20
0.0
 30
0.0
  3
*U33
  1

  0
TEXT
  5
27E
  8
0
 62
     7
 10
103.4107346728019934
 20
6.948718626399832
 30
0.0
 40
0.9921874999999998
  1
F
 41
0.913
  7
SLDTEXTSTYLE6
  0
ENDBLK
  5
280
  8
0
  0
BLOCK
  8
0
  2
*U34
 70
     1
 10
0.0
 20
0.0
 30
0.0
  3
*U34
  1

  0
TEXT
  5
282
  8
0
 62
     7
 10
0.9284282307380012
 20
18.0112186263998311
 30
0.0
 40
0.9921874999999998
  1
E
 41
0.913
  7
SLDTEXTSTYLE6
  0
ENDBLK
  5
284
  8
0
  0
BLOCK
  8
0
  2
*U35
 70
     1
 10
0.0
 20
0.0
 30
0.0
  3
*U35
  1

  0
TEXT
  5
286
  8
0
 62
     7
 10
103.4284282307380067
 20
18.0112186263998311
 30
0.0
 40
0.9921874999999998
  1
E
 41
0.913
  7
SLDTEXTSTYLE6
  0
ENDBLK
  5
288
  8
0
  0
BLOCK
  8
0
  2
*U36
 70
     1
 10
0.0
 20
0.0
 30
0.0
  3
*U36
  1

  0
TEXT
  5
28A
  8
0
 62
     7
 10
0.9224124008859481
 20
30.5112186263998417
 30
0.0
 40
0.9921874999999998
  1
D
 41
0.913
  7
SLDTEXTSTYLE6
  0
ENDBLK
  5
28C
  8
0
  0
BLOCK
  8
0
  2
*U37
 70
     1
 10
0.0
 20
0.0
 30
0.0
  3
*U37
  1

  0
TEXT
  5
28E
  8
0
 62
     7
 10
103.4224124008859036
 20
30.5112186263998311
 30
0.0
 40
0.9921874999999998
  1
D
 41
0.913
  7
SLDTEXTSTYLE6
  0
ENDBLK
  5
290
  8
0
  0
BLOCK
  8
0
  2
*U38
 70
     1
 10
0.0
 20
0.0
 30
0.0
  3
*U38
  1

  0
TEXT
  5
292
  8
0
 62
     7
 10
0.9161407299579254
 20
43.0112186263998311
 30
0.0
 40
0.9921874999999998
  1
C
 41
0.913
  7
SLDTEXTSTYLE6
  0
ENDBLK
  5
294
  8
0
  0
BLOCK
  8
0
  2
*U39
 70
     1
 10
0.0
 20
0.0
 30
0.0
  3
*U39
  1

  0
TEXT
  5
296
  8
0
 62
     7
 10
103.4161407299579025
 20
43.0112186263998311
 30
0.0
 40
0.9921874999999998
  1
C
 41
0.913
  7
SLDTEXTSTYLE6
  0
ENDBLK
  5
298
  8
0
  0
BLOCK
  8
0
  2
*U40
 70
     1
 10
0.0
 20
0.0
 30
0.0
  3
*U40
  1

  0
TEXT
  5
29A
  8
0
 62
     7
 10
0.9294792283494878
 20
55.5112186263998382
 30
0.0
 40
0.9921874999999998
  1
B
 41
0.913
  7
SLDTEXTSTYLE6
  0
ENDBLK
  5
29C
  8
0
  0
BLOCK
  8
0
  2
*U41
 70
     1
 10
0.0
 20
0.0
 30
0.0
  3
*U41
  1

  0
TEXT
  5
29E
  8
0
 62
     7
 10
103.429479228349507
 20
55.5112186263998169
 30
0.0
 40
0.9921874999999998
  1
B
 41
0.913
  7
SLDTEXTSTYLE6
  0
ENDBLK
  5
2A0
  8
0
  0
BLOCK
  8
0
  2
*U42
 70
     1
 10
0.0
 20
0.0
 30
0.0
  3
*U42
  1

  0
TEXT
  5
2A2
  8
0
 62
     7
 10
0.8915744240832539
 20
66.573718626399824
 30
0.0
 40
0.9921874999999998
  1
A
 41
0.913
  7
SLDTEXTSTYLE6
  0
ENDBLK
  5
2A4
  8
0
  0
BLOCK
  8
0
  2
*U43
 70
     1
 10
0.0
 20
0.0
 30
0.0
  3
*U43
  1

  0
TEXT
  5
2A6
  8
0
 62
     7
 10
103.3915744240832026
 20
66.573718626399824
 30
0.0
 40
0.9921874999999998
  1
A
 41
0.913
  7
SLDTEXTSTYLE6
  0
ENDBLK
  5
2A8
  8
0
  0
BLOCK
  8
0
  2
*U44
 70
     1
 10
0.0
 20
0.0
 30
0.0
  3
*U44
  1

  0
TEXT
  5
2AA
  8
0
 62
     7
 10
8.4061324732222911
 20
0.886218626399835
 30
0.0
 40
0.9921874999999998
  1
1
 41
0.913
  7
SLDTEXTSTYLE6
  0
ENDBLK
  5
2AC
  8
0
  0
BLOCK
  8
0
  2
*U45
 70
     1
 10
0.0
 20
0.0
 30
0.0
  3
*U45
  1

  0
TEXT
  5
2AE
  8
0
 62
     7
 10
8.4061324732222911
 20
72.636218626399824
 30
0.0
 40
0.9921874999999998
  1
1
 41
0.913
  7
SLDTEXTSTYLE6
  0
ENDBLK
  5
2B0
  8
0
  0
BLOCK
  8
0
  2
*U46
 70
     1
 10
0.0
 20
0.0
 30
0.0
  3
*U46
  1

  0
TEXT
  5
2B2
  8
0
 62
     7
 10
20.9216616250079994
 20
0.8862186263998346
 30
0.0
 40
0.9921874999999998
  1
2
 41
0.913
  7
SLDTEXTSTYLE6
  0
ENDBLK
  5
2B4
  8
0
  0
BLOCK
  8
0
  2
*U47
 70
     1
 10
0.0
 20
0.0
 30
0.0
  3
*U47
  1

  0
TEXT
  5
2B6
  8
0
 62
     7
 10
20.9216616250080101
 20
72.636218626399824
 30
0.0
 40
0.9921874999999998
  1
2
 41
0.913
  7
SLDTEXTSTYLE6
  0
ENDBLK
  5
2B8
  8
0
  0
BLOCK
  8
0
  2
*U48
 70
     1
 10
0.0
 20
0.0
 30
0.0
  3
*U48
  1

  0
TEXT
  5
2BA
  8
0
 62
     7
 10
33.4164852410794424
 20
0.8862186263998347
 30
0.0
 40
0.9921874999999998
  1
3
 41
0.913
  7
SLDTEXTSTYLE6
  0
ENDBLK
  5
2BC
  8
0
  0
BLOCK
  8
0
  2
*U49
 70
     1
 10
0.0
 20
0.0
 30
0.0
  3
*U49
  1

  0
TEXT
  5
2BE
  8
0
 62
     7
 10
33.4164852410794424
 20
72.636218626399824
 30
0.0
 40
0.9921874999999998
  1
3
 41
0.913
  7
SLDTEXTSTYLE6
  0
ENDBLK
  5
2C0
  8
0
  0
BLOCK
  8
0
  2
*U50
 70
     1
 10
0.0
 20
0.0
 30
0.0
  3
*U50
  1

  0
TEXT
  5
2C2
  8
0
 62
     7
 10
45.9138970491151497
 20
0.8862186263998346
 30
0.0
 40
0.9921874999999998
  1
4
 41
0.913
  7
SLDTEXTSTYLE6
  0
ENDBLK
  5
2C4
  8
0
  0
BLOCK
  8
0
  2
*U51
 70
     1
 10
0.0
 20
0.0
 30
0.0
  3
*U51
  1

  0
TEXT
  5
2C6
  8
0
 62
     7
 10
45.9138970491151497
 20
72.636218626399824
 30
0.0
 40
0.9921874999999998
  1
4
 41
0.913
  7
SLDTEXTSTYLE6
  0
ENDBLK
  5
2C8
  8
0
  0
BLOCK
  8
0
  2
*U52
 70
     1
 10
0.0
 20
0.0
 30
0.0
  3
*U52
  1

  0
TEXT
  5
2CA
  8
0
 62
     7
 10
58.4164852410794282
 20
0.8862186263998346
 30
0.0
 40
0.9921874999999998
  1
5
 41
0.913
  7
SLDTEXTSTYLE6
  0
ENDBLK
  5
2CC
  8
0
  0
BLOCK
  8
0
  2
*U53
 70
     1
 10
0.0
 20
0.0
 30
0.0
  3
*U53
  1

  0
TEXT
  5
2CE
  8
0
 62
     7
 10
58.4164852410794211
 20
72.636218626399824
 30
0.0
 40
0.9921874999999998
  1
5
 41
0.913
  7
SLDTEXTSTYLE6
  0
ENDBLK
  5
2D0
  8
0
  0
BLOCK
  8
0
  2
*U54
 70
     1
 10
0.0
 20
0.0
 30
0.0
  3
*U54
  1

  0
TEXT
  5
2D2
  8
0
 62
     7
 10
70.9164852410794566
 20
0.8862186263998347
 30
0.0
 40
0.9921874999999998
  1
6
 41
0.913
  7
SLDTEXTSTYLE6
  0
ENDBLK
  5
2D4
  8
0
  0
BLOCK
  8
0
  2
*U55
 70
     1
 10
0.0
 20
0.0
 30
0.0
  3
*U55
  1

  0
TEXT
  5
2D6
  8
0
 62
     7
 10
70.9164852410794566
 20
72.636218626399824
 30
0.0
 40
0.9921874999999998
  1
6
 41
0.913
  7
SLDTEXTSTYLE6
  0
ENDBLK
  5
2D8
  8
0
  0
BLOCK
  8
0
  2
*U56
 70
     1
 10
0.0
 20
0.0
 30
0.0
  3
*U56
  1

  0
TEXT
  5
2DA
  8
0
 62
     7
 10
83.411308857150857
 20
0.8862186263998346
 30
0.0
 40
0.9921874999999998
  1
7
 41
0.913
  7
SLDTEXTSTYLE6
  0
ENDBLK
  5
2DC
  8
0
  0
BLOCK
  8
0
  2
*U57
 70
     1
 10
0.0
 20
0.0
 30
0.0
  3
*U57
  1

  0
TEXT
  5
2DE
  8
0
 62
     7
 10
83.411308857150857
 20
72.636218626399824
 30
0.0
 40
0.9921874999999998
  1
7
 41
0.913
  7
SLDTEXTSTYLE6
  0
ENDBLK
  5
2E0
  8
0
  0
BLOCK
  8
0
  2
*U58
 70
     1
 10
0.0
 20
0.0
 30
0.0
  3
*U58
  1

  0
TEXT
  5
2E2
  8
0
 62
     7
 10
95.9242498169723063
 20
0.8862186263998346
 30
0.0
 40
0.9921874999999998
  1
8
 41
0.913
  7
SLDTEXTSTYLE6
  0
ENDBLK
  5
2E4
  8
0
  0
BLOCK
  8
0
  2
*U59
 70
     1
 10
0.0
 20
0.0
 30
0.0
  3
*U59
  1

  0
TEXT
  5
2E6
  8
0
 62
     7
 10
95.9242498169723063
 20
72.6362186263998098
 30
0.0
 40
0.9921874999999998
  1
8
 41
0.913
  7
SLDTEXTSTYLE6
  0
ENDBLK
  5
2E8
  8
0
  0
BLOCK
  8
0
  2
*U60
 70
     1
 10
0.0
 20
0.0
 30
0.0
  3
*U60
  1

  0
TEXT
  5
2EA
  8
0
 62
     0
 10
0.7381938252823764
 20
-1.5477048610367381
 30
0.0
 40
0.875
  1
项目号
  7
SLDTEXTSTYLE3
  0
ENDBLK
  5
2EC
  8
0
  0
BLOCK
  8
0
  2
*U61
 70
     1
 10
0.0
 20
0.0
 30
0.0
  3
*U61
  1

  0
TEXT
  5
2EE
  8
0
 62
     0
 10
7.3104006063959712
 20
-1.5574813973495869
 30
0.0
 40
0.875
  1
零件号
  7
SLDTEXTSTYLE3
  0
ENDBLK
  5
2F0
  8
0
  0
BLOCK
  8
0
  2
*U62
 70
     1
 10
0.0
 20
0.0
 30
0.0
  3
*U62
  1

  0
TEXT
  5
2F2
  8
0
 62
     0
 10
18.7638542913043516
 20
-1.5574813973495869
 30
0.0
 40
0.875
  1
说明
  7
SLDTEXTSTYLE3
  0
ENDBLK
  5
2F4
  8
0
  0
BLOCK
  8
0
  2
*U63
 70
     1
 10
0.0
 20
0.0
 30
0.0
  3
*U63
  1

  0
TEXT
  5
2F6
  8
0
 62
     0
 10
27.4320790865362305
 20
-1.5574813973495869
 30
0.0
 40
0.875
  1
数量
  7
SLDTEXTSTYLE3
  0
ENDBLK
  5
2F8
  8
0
  0
BLOCK
  8
0
  2
*U64
 70
     1
 10
0.0
 20
0.0
 30
0.0
  3
*U64
  1

  0
TEXT
  5
2FA
  8
0
 62
     0
 10
1.93787329707018
 20
-3.3581527662814148
 30
0.0
 40
0.875
  1
1
  7
SLDTEXTSTYLE7
  0
ENDBLK
  5
2FC
  8
0
  0
BLOCK
  8
0
  2
*U65
 70
     1
 10
0.0
 20
0.0
 30
0.0
  3
*U65
  1

  0
TEXT
  5
2FE
  8
0
 62
     0
 10
4.7641379126450429
 20
-3.5145773472870019
 30
0.0
 40
0.875
  1
PCB输出转接板_2
  7
SLDTEXTSTYLE3
  0
ENDBLK
  5
300
  8
0
  0
BLOCK
  8
0
  2
*U66
 70
     1
 10
0.0
 20
0.0
 30
0.0
  3
*U66
  1

  0
TEXT
  5
302
  8
0
 62
     0
 10
28.1127805894329192
 20
-3.3581527662814148
 30
0.0
 40
0.875
  1
1
  7
SLDTEXTSTYLE7
  0
ENDBLK
  5
304
  8
0
  0
BLOCK
  8
0
  2
*U67
 70
     1
 10
0.0
 20
0.0
 30
0.0
  3
*U67
  1

  0
TEXT
  5
306
  8
0
 62
     0
 10
2.0160855875729728
 20
-5.310360448062406
 30
0.0
 40
0.875
  1
2
  7
SLDTEXTSTYLE7
  0
ENDBLK
  5
308
  8
0
  0
BLOCK
  8
0
  2
*U68
 70
     1
 10
0.0
 20
0.0
 30
0.0
  3
*U68
  1

  0
TEXT
  5
30A
  8
0
 62
     0
 10
4.7201434992372224
 20
-5.461896760911567
 30
0.0
 40
0.875
  1
3P端子
  7
SLDTEXTSTYLE3
  0
ENDBLK
  5
30C
  8
0
  0
BLOCK
  8
0
  2
*U69
 70
     1
 10
0.0
 20
0.0
 30
0.0
  3
*U69
  1

  0
TEXT
  5
30E
  8
0
 62
     0
 10
28.1909928799357203
 20
-5.310360448062406
 30
0.0
 40
0.875
  1
2
  7
SLDTEXTSTYLE7
  0
ENDBLK
  5
310
  8
0
  0
BLOCK
  8
0
  2
*U70
 70
     1
 10
0.0
 20
0.0
 30
0.0
  3
*U70
  1

  0
TEXT
  5
312
  8
0
 62
     5
 10
64.1872026052703291
 20
29.9033213603480696
 30
0.0
 40
0.875
  1
25
 50
90.0000000000003979
  7
SLDTEXTSTYLE7
  0
ENDBLK
  5
314
  8
0
  0
BLOCK
  8
0
  2
*U71
 70
     1
 10
0.0
 20
0.0
 30
0.0
  3
*U71
  1

  0
TEXT
  5
316
  8
0
 62
     5
 10
50.7969618939460332
 20
48.6192519807263608
 30
0.0
 40
0.875
  1
18
 50
0.0000000000004071
  7
SLDTEXTSTYLE7
  0
ENDBLK
  5
318
  8
0
  0
BLOCK
  8
0
  2
*U72
 70
     1
 10
0.0
 20
0.0
 30
0.0
  3
*U72
  1

  0
TEXT
  5
31A
  8
0
 62
     5
 10
66.4679692588895392
 20
29.8935448240352208
 30
0.0
 40
0.875
  1
31
 50
90.0000000000003979
  7
SLDTEXTSTYLE7
  0
ENDBLK
  5
31C
  8
0
  0
BLOCK
  8
0
  2
*U73
 70
     1
 10
0.0
 20
0.0
 30
0.0
  3
*U73
  1

  0
TEXT
  5
31E
  8
0
 62
     5
 10
37.8215719660194196
 20
48.9140108567136522
 30
0.0
 40
0.875
  1
R3
 50
322.515358635286475
  7
SLDTEXTSTYLE7
  0
ENDBLK
  5
320
  8
0
  0
BLOCK
  8
0
  2
*U74
 70
     1
 10
0.0
 20
0.0
 30
0.0
  3
*U74
  1

  0
TEXT
  5
322
  8
0
 62
     5
 10
38.8241898664184077
 20
29.9033213603480696
 30
0.0
 40
0.875
  1
25
 50
90.0000000000003979
  7
SLDTEXTSTYLE7
  0
ENDBLK
  5
324
  8
0
  0
BLOCK
  8
0
  2
*U75
 70
     1
 10
0.0
 20
0.0
 30
0.0
  3
*U75
  1

  0
TEXT
  5
326
  8
0
 62
     0
 10
0.1915942805662429
 20
0.1291368440935825
 30
0.0
 40
0.875
  1
2
  7
SLDTEXTSTYLE7
  0
ENDBLK
  5
328
  8
0
  0
BLOCK
  8
0
  2
*U76
 70
     1
 10
0.0
 20
0.0
 30
0.0
  3
*U76
  1

  0
TEXT
  5
32A
  8
0
 62
     0
 10
-0.8343064789591961
 20
0.1291368440936222
 30
0.0
 40
0.875
  1
1
  7
SLDTEXTSTYLE7
  0
ENDBLK
  5
32C
  8
0
  0
BLOCK
  8
0
  2
*U77
 70
     1
 10
0.0
 20
0.0
 30
0.0
  3
*U77
  1

  0
SOLID
  5
32E
  8
0
  6
SLD-实线
 62
     5
 10
44.3299736001229476
 20
15.5893438919910494
 30
0.0
 11
44.4979266898959693
 21
16.6096829335040717
 31
0.0
 12
44.6699729157365297
 22
15.5900260813356493
 32
0.0
 13
44.6699729157365297
 23
15.5900260813356493
 33
0.0
  0
POLYLINE
  5
32F
  8
0
  6
SLD-实线
 62
     5
 66
     1
 10
0.0
 20
0.0
 30
0.0
  0
VERTEX
  5
330
  8
0
  6
SLD-实线
 62
     5
 10
44.4999732579297387
 20
15.5896849866633502
 30
0.0
  0
VERTEX
  5
331
  8
0
  6
SLD-实线
 62
     5
 10
44.5084269662921272
 20
11.37640449438201
 30
0.0
  0
SEQEND
  5
332
  8
0
  6
SLD-实线
 62
     5
  0
ENDBLK
  5
334
  8
0
  0
BLOCK
  8
0
  2
*U78
 70
     1
 10
0.0
 20
0.0
 30
0.0
  3
*U78
  1

  0
TEXT
  5
336
  8
0
 62
     5
 10
38.5135578290108285
 20
51.4909716933409527
 30
0.0
 40
0.875
  1
1.50
 50
90.0
  7
SLDTEXTSTYLE7
  0
ENDBLK
  5
338
  8
0
  0
ENDSEC
  0
SECTION
  2
ENTITIES
  0
LINE
  5
6D
  8
0
  6
SLD-实线
 62
     7
 10
55.7725059649967108
 20
5.1500031316618671
 30
0.0
 11
64.2792926095138881
 21
5.1500031316618671
 31
0.0
  0
LINE
  5
6E
  8
0
  6
SLD-实线
 62
     7
 10
90.088879577542869
 20
5.6234567018072541
 30
0.0
 11
90.088879577542869
 21
4.1092405187717658
 31
0.0
  0
LINE
  5
6F
  8
0
  6
SLD-实线
 62
     7
 10
57.3243980757251066
 20
5.1500031316618671
 30
0.0
 11
57.3243980757251066
 21
2.498894275957813
 31
0.0
  0
LINE
  5
70
  8
0
  6
SLD-实线
 62
     7
 10
60.7643985255557268
 20
5.1500031316618671
 30
0.0
 11
60.7643985255557268
 21
2.4988942759573871
 31
0.0
  0
LINE
  5
71
  8
0
  6
SLD-实线
 62
     7
 10
69.2711851700728971
 20
6.4750031316618673
 30
0.0
 11
69.2711851700728971
 21
2.5000031316621918
 31
0.0
  0
LINE
  5
72
  8
0
  6
SLD-实线
 62
     7
 10
64.2792926095138881
 20
6.4750031316618673
 30
0.0
 11
64.2792926095138881
 21
2.500003131662619
 31
0.0
  0
LINE
  5
73
  8
0
  6
SLD-实线
 62
     7
 10
72.7860792540310939
 20
5.1500031316618671
 30
0.0
 11
64.2792926095138881
 21
5.1500031316618671
 31
0.0
  0
LINE
  5
74
  8
0
  6
SLD-实线
 62
     7
 10
65.8311847202422769
 20
6.4750031316618673
 30
0.0
 11
65.8311847202422769
 21
2.500003131662619
 31
0.0
  0
LINE
  5
75
  8
0
  6
SLD-实线
 62
     7
 10
55.7725059649967108
 20
5.1500031316618671
 30
0.0
 11
55.7725059649967108
 21
2.500003131662615
 31
0.0
  0
LINE
  5
76
  8
0
  6
SLD-实线
 62
     7
 10
72.7860792540310655
 20
3.825003131661866
 30
0.0
 11
55.7499905417444879
 21
3.825003131661866
 31
0.0
  0
LINE
  5
77
  8
0
  6
SLD-实线
 62
     7
 10
64.2792926095138881
 20
6.4750031316618673
 30
0.0
 11
72.7860792540310939
 21
6.4750031316618673
 31
0.0
  0
LINE
  5
78
  8
0
  6
SLD-实线
 62
     7
 10
72.7860792540310655
 20
10.2738175360987203
 30
0.0
 11
72.7860792540310655
 21
2.5011119873674259
 31
0.0
  0
LINE
  5
79
  8
0
  6
SLD-实线
 62
     7
 10
98.2838984618736333
 20
8.649695061783202
 30
0.0
 11
98.2838984618736333
 21
4.1092405187717658
 31
0.0
  0
LINE
  5
7A
  8
0
  6
SLD-实线
 62
     7
 10
72.7860792540310655
 20
10.2738175360987203
 30
0.0
 11
102.4999905417443955
 21
10.2738175360987203
 31
0.0
  0
LINE
  5
7B
  8
0
  6
SLD-实线
 62
     7
 10
86.2499905417444097
 20
5.6234567018072541
 30
0.0
 11
102.4999905417443955
 21
5.6234567018072541
 31
0.0
  0
LINE
  5
7C
  8
0
  6
SLD-实线
 62
     7
 10
91.1502919797227804
 20
6.5150061155819561
 30
0.0
 11
86.5280809319765467
 21
6.5150061155819561
 31
0.0
  0
LINE
  5
7D
  8
0
  6
SLD-实线
 62
     7
 10
89.4538256844158894
 20
5.8195779615640202
 30
0.0
 11
90.7365390726355514
 21
6.0819152307103241
 31
0.0
  0
LINE
  5
7E
  8
0
  6
SLD-实线
 62
     7
 10
90.7365390726355514
 20
6.948097000453572
 30
0.0
 11
89.4538256844158894
 21
7.2104342695998911
 31
0.0
  0
LINE
  5
7F
  8
0
  6
SLD-实线
 62
     7
 10
93.9701428952201354
 20
8.649695061783202
 30
0.0
 11
93.9701428952201354
 21
4.1092405187717658
 31
0.0
  0
LINE
  5
80
  8
0
  6
SLD-实线
 62
     7
 10
91.3676718956083249
 20
8.649695061783202
 30
0.0
 11
91.3676718956083249
 21
5.6234567018072541
 31
0.0
  0
LINE
  5
81
  8
0
  6
SLD-实线
 62
     7
 10
72.7860792540310655
 20
10.2738175360987203
 30
0.0
 11
102.4999905417443955
 21
10.2738175360987203
 31
0.0
  0
LINE
  5
82
  8
0
  6
SLD-实线
 62
     7
 10
72.7860792540310655
 20
4.1092405187717658
 30
0.0
 11
102.5
 21
4.1092405187717658
 31
0.0
  0
LINE
  5
83
  8
0
  6
SLD-实线
 62
     7
 10
89.4538256844158894
 20
7.2104342695998911
 30
0.0
 11
89.4538256844158894
 21
5.8195779615640202
 31
0.0
  0
LINE
  5
84
  8
0
  6
SLD-实线
 62
     7
 10
90.7365390726355514
 20
6.0819152307103241
 30
0.0
 11
90.7365390726355514
 21
6.948097000453572
 31
0.0
  0
LINE
  5
85
  8
0
  6
SLD-实线
 62
     7
 10
102.499990541744495
 20
11.5245405932232892
 30
0.0
 11
102.5448728671373004
 21
11.5245405932232892
 31
0.0
  0
LINE
  5
86
  8
0
  6
SLD-实线
 62
     7
 10
86.2499905417444097
 20
7.3996950617832056
 30
0.0
 11
102.4999905417443955
 21
7.3996950617832056
 31
0.0
  0
LINE
  5
87
  8
0
  6
SLD-实线
 62
     7
 10
86.2860792540311081
 20
10.2738175360987203
 30
0.0
 11
86.2860792540311081
 21
2.4999999999999991
 31
0.0
  0
LINE
  5
88
  8
0
  6
SLD-实线
 62
     7
 10
88.8493478975609179
 20
7.3996950617832056
 30
0.0
 11
88.8493478975609179
 21
5.6234567018072541
 31
0.0
  0
LINE
  5
89
  8
0
  6
SLD-实线
 62
     7
 10
86.2499905417444097
 20
8.649695061783202
 30
0.0
 11
102.4999905417443955
 21
8.649695061783202
 31
0.0
  0
LINE
  5
8A
  8
0
  6
SLD-实线
 62
     7
 10
2.5
 20
12.1249999999999893
 30
0.0
 11
0.0
 21
12.1249999999999893
 31
0.0
  0
LINE
  5
8B
  8
0
  6
SLD-实线
 62
     7
 10
102.5
 20
12.1249999999999893
 30
0.0
 11
105.0
 21
12.1249999999999893
 31
0.0
  0
LINE
  5
8C
  8
0
  6
SLD-实线
 62
     7
 10
2.5
 20
24.625
 30
0.0
 11
0.0
 21
24.625
 31
0.0
  0
LINE
  5
8D
  8
0
  6
SLD-实线
 62
     7
 10
102.5
 20
24.625
 30
0.0
 11
105.0
 21
24.625
 31
0.0
  0
LINE
  5
8E
  8
0
  6
SLD-实线
 62
     7
 10
2.5
 20
37.125
 30
0.0
 11
0.0
 21
37.125
 31
0.0
  0
LINE
  5
8F
  8
0
  6
SLD-实线
 62
     7
 10
102.5
 20
37.125
 30
0.0
 11
105.0
 21
37.125
 31
0.0
  0
LINE
  5
90
  8
0
  6
SLD-实线
 62
     7
 10
2.5
 20
49.625
 30
0.0
 11
0.0
 21
49.625
 31
0.0
  0
LINE
  5
91
  8
0
  6
SLD-实线
 62
     7
 10
102.5
 20
49.625
 30
0.0
 11
105.0
 21
49.625
 31
0.0
  0
LINE
  5
92
  8
0
  6
SLD-实线
 62
     7
 10
2.5
 20
62.125
 30
0.0
 11
0.0
 21
62.125
 31
0.0
  0
LINE
  5
93
  8
0
  6
SLD-实线
 62
     7
 10
102.5
 20
62.125
 30
0.0
 11
105.0
 21
62.125
 31
0.0
  0
LINE
  5
94
  8
0
  6
SLD-实线
 62
     7
 10
14.9999999999999893
 20
71.75
 30
0.0
 11
14.9999999999999893
 21
74.25
 31
0.0
  0
LINE
  5
95
  8
0
  6
SLD-实线
 62
     7
 10
14.9999999999999893
 20
2.5
 30
0.0
 11
14.9999999999999893
 21
0.0
 31
0.0
  0
LINE
  5
96
  8
0
  6
SLD-实线
 62
     7
 10
27.5
 20
71.75
 30
0.0
 11
27.5
 21
74.25
 31
0.0
  0
LINE
  5
97
  8
0
  6
SLD-实线
 62
     7
 10
27.5
 20
2.5
 30
0.0
 11
27.5
 21
0.0
 31
0.0
  0
LINE
  5
98
  8
0
  6
SLD-实线
 62
     7
 10
40.0
 20
71.75
 30
0.0
 11
40.0
 21
74.25
 31
0.0
  0
LINE
  5
99
  8
0
  6
SLD-实线
 62
     7
 10
40.0
 20
2.5
 30
0.0
 11
40.0
 21
0.0
 31
0.0
  0
LINE
  5
9A
  8
0
  6
SLD-实线
 62
     7
 10
52.5
 20
71.75
 30
0.0
 11
52.5
 21
74.25
 31
0.0
  0
LINE
  5
9B
  8
0
  6
SLD-实线
 62
     7
 10
52.5
 20
2.5
 30
0.0
 11
52.5
 21
0.0
 31
0.0
  0
LINE
  5
9C
  8
0
  6
SLD-实线
 62
     7
 10
65.0
 20
71.75
 30
0.0
 11
65.0
 21
74.25
 31
0.0
  0
LINE
  5
9D
  8
0
  6
SLD-实线
 62
     7
 10
65.0
 20
2.5
 30
0.0
 11
65.0
 21
0.0
 31
0.0
  0
LINE
  5
9E
  8
0
  6
SLD-实线
 62
     7
 10
77.5
 20
71.75
 30
0.0
 11
77.5
 21
74.25
 31
0.0
  0
LINE
  5
9F
  8
0
  6
SLD-实线
 62
     7
 10
77.5
 20
2.5
 30
0.0
 11
77.5
 21
0.0
 31
0.0
  0
LINE
  5
A0
  8
0
  6
SLD-实线
 62
     7
 10
90.0
 20
71.75
 30
0.0
 11
90.0
 21
74.25
 31
0.0
  0
LINE
  5
A1
  8
0
  6
SLD-实线
 62
     7
 10
90.0
 20
2.5
 30
0.0
 11
90.0
 21
0.0
 31
0.0
  0
LINE
  5
A2
  8
0
  6
SLD-实线
 62
     7
 10
2.5
 20
2.5
 30
0.0
 11
2.5
 21
71.75
 31
0.0
  0
LINE
  5
A3
  8
0
  6
SLD-实线
 62
     7
 10
2.5
 20
71.75
 30
0.0
 11
102.5
 21
71.75
 31
0.0
  0
LINE
  5
A4
  8
0
  6
SLD-实线
 62
     7
 10
102.5
 20
71.75
 30
0.0
 11
102.5
 21
2.5
 31
0.0
  0
LINE
  5
A5
  8
0
  6
SLD-实线
 62
     7
 10
102.5
 20
2.5
 30
0.0
 11
2.5
 21
2.5
 31
0.0
  0
LINE
  5
A6
  8
0
  6
SLD-实线
 62
     7
 10
-0.0002499999999998
 20
37.125
 30
0.0
 11
3.7502499999999999
 21
37.125
 31
0.0
  0
LINE
  5
A7
  8
0
  6
SLD-实线
 62
     7
 10
52.5
 20
74.2502499999999941
 30
0.0
 11
52.5
 21
70.4997500000000059
 31
0.0
  0
LINE
  5
A8
  8
0
  6
SLD-实线
 62
     7
 10
105.0002499999999941
 20
37.125
 30
0.0
 11
101.2497500000000059
 21
37.125
 31
0.0
  0
LINE
  5
A9
  8
0
  6
SLD-实线
 62
     7
 10
52.5
 20
-0.0002499999999998
 30
0.0
 11
52.5
 21
3.7502499999999999
 31
0.0
  0
CIRCLE
  5
AA
  8
0
  6
SLD-实线
 62
     7
 10
87.6069509147288557
 20
6.5150061155819561
 30
0.0
 40
0.6954281540179162
  0
CIRCLE
  5
AB
  8
0
  6
SLD-实线
 62
     7
 10
87.6069509147288557
 20
6.5150061155819561
 30
0.0
 40
0.4330908848716095
  0
INSERT
  5
AD
  8
0
  2
*U10
 10
0.0
 20
0.0
 30
0.0
  0
INSERT
  5
AF
  8
0
  2
*U11
 10
0.0
 20
0.0
 30
0.0
  0
INSERT
  5
B1
  8
0
  2
*U12
 10
0.0
 20
0.0
 30
0.0
  0
INSERT
  5
B2
  8
0
  2
*U13
 10
0.0
 20
0.0
 30
0.0
  0
INSERT
  5
B3
  8
0
  2
*U14
 10
0.0
 20
0.0
 30
0.0
  0
INSERT
  5
B4
  8
0
  2
*U15
 10
0.0
 20
0.0
 30
0.0
  0
INSERT
  5
B5
  8
0
  2
*U16
 10
0.0
 20
0.0
 30
0.0
  0
INSERT
  5
B6
  8
0
  2
*U17
 10
0.0
 20
0.0
 30
0.0
  0
INSERT
  5
B7
  8
0
  2
*U18
 10
0.0
 20
0.0
 30
0.0
  0
INSERT
  5
B8
  8
0
  2
*U19
 10
0.0
 20
0.0
 30
0.0
  0
INSERT
  5
BA
  8
0
  2
*U20
 10
0.0
 20
0.0
 30
0.0
  0
INSERT
  5
BB
  8
0
  2
*U21
 10
0.0
 20
0.0
 30
0.0
  0
INSERT
  5
BD
  8
0
  2
*U22
 10
0.0
 20
0.0
 30
0.0
  0
INSERT
  5
BF
  8
0
  2
*U23
 10
0.0
 20
0.0
 30
0.0
  0
INSERT
  5
C0
  8
0
  2
*U24
 10
0.0
 20
0.0
 30
0.0
  0
INSERT
  5
C1
  8
0
  2
*U25
 10
0.0
 20
0.0
 30
0.0
  0
INSERT
  5
C2
  8
0
  2
*U26
 10
0.0
 20
0.0
 30
0.0
  0
INSERT
  5
C3
  8
0
  2
*U27
 10
0.0
 20
0.0
 30
0.0
  0
INSERT
  5
C4
  8
0
  2
*U28
 10
0.0
 20
0.0
 30
0.0
  0
INSERT
  5
C5
  8
0
  2
*U29
 10
0.0
 20
0.0
 30
0.0
  0
INSERT
  5
C6
  8
0
  2
*U30
 10
0.0
 20
0.0
 30
0.0
  0
INSERT
  5
C7
  8
0
  2
*U31
 10
0.0
 20
0.0
 30
0.0
  0
INSERT
  5
C9
  8
0
  2
*U32
 10
0.0
 20
0.0
 30
0.0
  0
INSERT
  5
CA
  8
0
  2
*U33
 10
0.0
 20
0.0
 30
0.0
  0
INSERT
  5
CB
  8
0
  2
*U34
 10
0.0
 20
0.0
 30
0.0
  0
INSERT
  5
CC
  8
0
  2
*U35
 10
0.0
 20
0.0
 30
0.0
  0
INSERT
  5
CD
  8
0
  2
*U36
 10
0.0
 20
0.0
 30
0.0
  0
INSERT
  5
CE
  8
0
  2
*U37
 10
0.0
 20
0.0
 30
0.0
  0
INSERT
  5
CF
  8
0
  2
*U38
 10
0.0
 20
0.0
 30
0.0
  0
INSERT
  5
D0
  8
0
  2
*U39
 10
0.0
 20
0.0
 30
0.0
  0
INSERT
  5
D1
  8
0
  2
*U40
 10
0.0
 20
0.0
 30
0.0
  0
INSERT
  5
D2
  8
0
  2
*U41
 10
0.0
 20
0.0
 30
0.0
  0
INSERT
  5
D3
  8
0
  2
*U42
 10
0.0
 20
0.0
 30
0.0
  0
INSERT
  5
D4
  8
0
  2
*U43
 10
0.0
 20
0.0
 30
0.0
  0
INSERT
  5
D5
  8
0
  2
*U44
 10
0.0
 20
0.0
 30
0.0
  0
INSERT
  5
D6
  8
0
  2
*U45
 10
0.0
 20
0.0
 30
0.0
  0
INSERT
  5
D7
  8
0
  2
*U46
 10
0.0
 20
0.0
 30
0.0
  0
INSERT
  5
D8
  8
0
  2
*U47
 10
0.0
 20
0.0
 30
0.0
  0
INSERT
  5
D9
  8
0
  2
*U48
 10
0.0
 20
0.0
 30
0.0
  0
INSERT
  5
DA
  8
0
  2
*U49
 10
0.0
 20
0.0
 30
0.0
  0
INSERT
  5
DB
  8
0
  2
*U50
 10
0.0
 20
0.0
 30
0.0
  0
INSERT
  5
DC
  8
0
  2
*U51
 10
0.0
 20
0.0
 30
0.0
  0
INSERT
  5
DD
  8
0
  2
*U52
 10
0.0
 20
0.0
 30
0.0
  0
INSERT
  5
DE
  8
0
  2
*U53
 10
0.0
 20
0.0
 30
0.0
  0
INSERT
  5
DF
  8
0
  2
*U54
 10
0.0
 20
0.0
 30
0.0
  0
INSERT
  5
E0
  8
0
  2
*U55
 10
0.0
 20
0.0
 30
0.0
  0
INSERT
  5
E1
  8
0
  2
*U56
 10
0.0
 20
0.0
 30
0.0
  0
INSERT
  5
E2
  8
0
  2
*U57
 10
0.0
 20
0.0
 30
0.0
  0
INSERT
  5
E3
  8
0
  2
*U58
 10
0.0
 20
0.0
 30
0.0
  0
INSERT
  5
E4
  8
0
  2
*U59
 10
0.0
 20
0.0
 30
0.0
  0
INSERT
  5
112
  8
0
  6
SLD-实线
 62
     5
  2
SW_TABLEANNOTATION_0
 10
72.0582429925604799
 20
71.75
 30
0.0
  0
LINE
  5
113
  8
轮廓粗实线
 10
61.8303843652444769
 20
29.4760702207522307
 30
0.0
 11
54.8303843652444698
 21
29.4760702207522307
 31
0.0
  0
LINE
  5
114
  8
轮廓粗实线
 10
54.8303843652444698
 20
29.4760702207522307
 30
0.0
 11
54.8303843652444769
 21
19.4760702207522201
 31
0.0
  0
LINE
  5
115
  8
轮廓粗实线
 10
61.8303843652444769
 20
19.4760702207522201
 30
0.0
 11
54.8303843652444769
 21
19.4760702207522201
 31
0.0
  0
LINE
  5
116
  8
轮廓粗实线
 10
61.8303843652444769
 20
29.4760702207522307
 30
0.0
 11
61.8303843652444769
 21
19.4760702207522201
 31
0.0
  0
LINE
  5
117
  8
轮廓粗实线
 10
61.8303843652444698
 20
41.4760702207522272
 30
0.0
 11
54.8303843652444485
 21
41.4760702207522272
 31
0.0
  0
LINE
  5
118
  8
轮廓粗实线
 10
61.8303843652444698
 20
41.4760702207522272
 30
0.0
 11
61.8303843652444698
 21
31.4760702207522201
 31
0.0
  0
LINE
  5
119
  8
轮廓粗实线
 10
61.8303843652444698
 20
31.4760702207522201
 30
0.0
 11
54.8303843652444627
 21
31.4760702207522094
 31
0.0
  0
LINE
  5
11A
  8
轮廓粗实线
 10
54.8303843652444485
 20
41.4760702207522272
 30
0.0
 11
54.8303843652444627
 21
31.4760702207522094
 31
0.0
  0
CIRCLE
  5
11B
  8
轮廓粗实线
 10
54.5803843652444627
 20
33.9360702207522067
 30
0.0
 40
0.25
  0
CIRCLE
  5
11C
  8
轮廓粗实线
 10
54.5803843652444769
 20
21.9360702207522102
 30
0.0
 40
0.25
  0
CIRCLE
  5
11D
  8
轮廓粗实线
 10
54.5803843652444627
 20
36.4760702207522129
 30
0.0
 40
0.25
  0
CIRCLE
  5
11E
  8
轮廓粗实线
 10
54.5803843652444769
 20
24.4760702207522094
 30
0.0
 40
0.25
  0
CIRCLE
  5
11F
  8
轮廓粗实线
 10
54.5803843652444627
 20
39.0160702207522121
 30
0.0
 40
0.25
  0
CIRCLE
  5
120
  8
轮廓粗实线
 10
54.5803843652444698
 20
27.0160702207522085
 30
0.0
 40
0.2500000000000071
  0
CIRCLE
  5
121
  8
轮廓粗实线
 10
45.3303843652444627
 20
24.1260702207522186
 30
0.0
 40
0.75
  0
CIRCLE
  5
122
  8
轮廓粗实线
 10
45.3303843652444627
 20
26.6660702207522213
 30
0.0
 40
0.75
  0
CIRCLE
  5
123
  8
轮廓粗实线
 10
45.3303843652444627
 20
29.2060702207522205
 30
0.0
 40
0.7500000000000036
  0
CIRCLE
  5
124
  8
轮廓粗实线
 10
45.3303843652444627
 20
31.7460702207522196
 30
0.0
 40
0.7500000000000036
  0
CIRCLE
  5
125
  8
轮廓粗实线
 10
45.3303843652444627
 20
34.2860702207522223
 30
0.0
 40
0.75
  0
CIRCLE
  5
126
  8
轮廓粗实线
 10
45.3303843652444627
 20
36.8260702207522073
 30
0.0
 40
0.75
  0
LINE
  5
127
  8
轮廓粗实线
 10
42.3303843652444627
 20
42.9760702207522129
 30
0.0
 11
42.3303843652444627
 21
17.9760702207522094
 31
0.0
  0
ARC
  5
128
  8
轮廓粗实线
 10
45.3303843652444627
 20
42.9760702207522129
 30
0.0
 40
3.0
 50
0.0
 51
180.0
  0
LINE
  5
129
  8
轮廓粗实线
 10
59.3303843652444627
 20
42.9760702207522129
 30
0.0
 11
48.3303843652444627
 21
42.9760702207522129
 31
0.0
  0
LINE
  5
12A
  8
轮廓粗实线
 10
60.3303843652444627
 20
41.9760702207521987
 30
0.0
 11
59.3303843652444627
 21
42.9760702207522129
 31
0.0
  0
LINE
  5
12B
  8
轮廓粗实线
 10
60.3303843652444627
 20
18.9760702207522201
 30
0.0
 11
60.3303843652444627
 21
19.4760702207522201
 31
0.0
  0
LINE
  5
12C
  8
轮廓粗实线
 10
60.3303843652444627
 20
29.4760702207522307
 30
0.0
 11
60.3303843652444627
 21
31.4760702207522094
 31
0.0
  0
LINE
  5
12D
  8
轮廓粗实线
 10
60.3303843652444627
 20
41.4760702207522201
 30
0.0
 11
60.3303843652444627
 21
41.9760702207521987
 31
0.0
  0
LINE
  5
12E
  8
轮廓粗实线
 10
59.3303843652444627
 20
17.9760702207522201
 30
0.0
 11
60.3303843652444627
 21
18.9760702207522201
 31
0.0
  0
LINE
  5
12F
  8
轮廓粗实线
 10
48.3303843652444627
 20
17.9760702207522094
 30
0.0
 11
59.3303843652444627
 21
17.9760702207522201
 31
0.0
  0
ARC
  5
130
  8
轮廓粗实线
 10
45.3303843652444627
 20
17.9760702207522201
 30
0.0
 40
3.0
 50
180.0000000000009095
 51
0.0000000000006616
  0
CIRCLE
  5
131
  8
轮廓粗实线
 10
45.3303843652444627
 20
17.9760702207522201
 30
0.0
 40
1.599999999999987
  0
CIRCLE
  5
132
  8
轮廓粗实线
 10
45.3303843652444627
 20
42.9760702207522129
 30
0.0
 40
1.5999999999999801
  0
DIMENSION
  5
133
  8
0
  6
SLD-实线
 62
     5
  2
_D
 10
64.330384365244484
 20
17.9760702207522094
 30
0.0
 11
64.330384365244484
 21
30.4760702207521987
 31
0.0
 70
   128
  1
<>
 13
59.3303843652444627
 23
42.9760702207522129
 33
0.0
 14
59.3303843652444627
 24
17.9760702207522094
 34
0.0
 50
90.0000000000001847
  0
DIMENSION
  5
13E
  8
0
  6
SLD-实线
 62
     5
  2
_D_1
 10
42.3303843652444627
 20
48.4760702207521987
 30
0.0
 11
51.4479230448529279
 21
48.4760702207521987
 31
0.0
 70
   128
  1
<>
 13
60.3303843652444698
 23
41.9760702207521987
 33
0.0
 14
42.3303843652444627
 24
42.9760702207522129
 34
0.0
  0
DIMENSION
  5
148
  8
0
  6
SLD-实线
 62
     5
  2
_D_2
 10
66.6111510188636657
 20
14.9760702207522005
 30
0.0
 11
66.6111510188636657
 21
30.4760702207521987
 31
0.0
 70
   128
  1
<>
 13
45.3303843652444627
 23
45.9760702207521987
 33
0.0
 14
45.3303843652444627
 24
14.9760702207522005
 34
0.0
 50
90.0000000000001847
  0
DIMENSION
  5
152
  8
0
  6
SLD-实线
 62
     5
  2
_D_3
 10
45.3303843652444627
 20
42.9760702207522129
 30
0.0
 11
38.1586676160136378
 21
48.4760727207522066
 31
0.0
 70
   132
  1
<>
 15
42.9498348783957127
 25
44.8017164462472124
 35
0.0
 40
0.0
  0
DIMENSION
  5
15B
  8
0
  6
SLD-实线
 62
     5
  2
_D_4
 10
38.9673716263925627
 20
17.9760702207522094
 30
0.0
 11
38.9673716263925627
 21
30.4760702207521987
 31
0.0
 70
   128
  1
<>
 13
45.3303843652444627
 23
42.9760702207522129
 33
0.0
 14
45.3303843652444627
 24
17.9760702207522094
 34
0.0
 50
90.0000000000001847
  0
INSERT
  5
16F
  8
0
  6
SLD-实线
 62
     5
  2
SW_NOTE_0
 10
62.7949438202247308
 20
35.3089887640449831
 30
0.0
  0
LINE
  5
170
  8
0
  6
SLD-实线
 62
     5
 10
62.7949438202247308
 20
35.3089887640449831
 30
0.0
 11
61.8303843652444769
 21
36.4760702207522627
 31
0.0
  0
SOLID
  5
171
  8
0
 10
61.8303843652444769
 20
36.4760702207522627
 30
0.0
 11
62.3822894266245029
 21
35.608931360348052
 31
0.0
 12
62.5780767476384199
 22
35.7707439832493179
 32
0.0
 13
62.5780767476384199
 23
35.7707439832493179
 33
0.0
  0
INSERT
  5
17C
  8
0
  6
SLD-实线
 62
     5
  2
SW_NOTE_0_1
 10
44.5084269662921272
 20
11.37640449438201
 30
0.0
  0
INSERT
  5
17E
  8
0
  2
*U77
 10
0.0
 20
0.0
 30
0.0
  0
LINE
  5
17F
  8
轮廓粗实线
 10
54.8303843652444911
 20
54.1420925849190979
 30
0.0
 11
54.8303843652444911
 21
55.6420925849191192
 31
0.0
  0
LINE
  5
180
  8
轮廓粗实线
 10
54.3303843652444769
 20
60.1420925849190908
 30
0.0
 11
54.3303843652444769
 21
57.1420925849191121
 31
0.0
  0
LINE
  5
181
  8
轮廓粗实线
 10
54.3303843652444769
 20
55.6420925849191121
 30
0.0
 11
54.3303843652444769
 21
54.1420925849190979
 31
0.0
  0
LINE
  5
182
  8
轮廓粗实线
 10
61.8303843652444769
 20
62.9420925849191022
 30
0.0
 11
54.8303843652444769
 21
62.9420925849191022
 31
0.0
  0
LINE
  5
183
  8
轮廓粗实线
 10
61.8303843652444769
 20
62.9420925849191022
 30
0.0
 11
61.8303843652444911
 21
57.1420925849190908
 31
0.0
  0
LINE
  5
184
  8
轮廓粗实线
 10
61.8303843652444911
 20
57.1420925849190908
 30
0.0
 11
60.3303843652444627
 21
57.1420925849190908
 31
0.0
  0
LINE
  5
185
  8
轮廓粗实线
 10
54.8303843652444769
 20
62.9420925849191022
 30
0.0
 11
54.8303843652444911
 21
57.1420925849190908
 31
0.0
  0
LINE
  5
186
  8
轮廓粗实线
 10
54.3303843652444769
 20
54.1420925849190979
 30
0.0
 11
54.8303843652444911
 21
54.1420925849190979
 31
0.0
  0
LINE
  5
187
  8
轮廓粗实线
 10
54.3303843652444769
 20
60.1420925849190908
 30
0.0
 11
54.8303843652444911
 21
60.1420925849190908
 31
0.0
  0
LINE
  5
188
  8
轮廓粗实线
 10
42.3303843652444627
 20
55.6420925849190979
 30
0.0
 11
42.3303843652444627
 21
57.1420925849190908
 31
0.0
  0
LINE
  5
189
  8
轮廓粗实线
 10
42.3303843652444627
 20
57.1420925849190908
 30
0.0
 11
48.3303843652444627
 21
57.1420925849190908
 31
0.0
  0
LINE
  5
18A
  8
轮廓粗实线
 10
48.3303843652444627
 20
55.6420925849190979
 30
0.0
 11
48.3303843652444627
 21
57.1420925849190908
 31
0.0
  0
LINE
  5
18B
  8
轮廓粗实线
 10
48.3303843652444627
 20
55.6420925849190979
 30
0.0
 11
42.3303843652444627
 21
55.6420925849190979
 31
0.0
  0
LINE
  5
18C
  8
轮廓粗实线
 10
59.3303843652444627
 20
55.6420925849190979
 30
0.0
 11
59.3303843652444627
 21
57.1420925849190908
 31
0.0
  0
LINE
  5
18D
  8
轮廓粗实线
 10
48.3303843652444627
 20
57.1420925849190908
 30
0.0
 11
59.3303843652444627
 21
57.1420925849190908
 31
0.0
  0
LINE
  5
18E
  8
轮廓粗实线
 10
48.3303843652444627
 20
55.6420925849190979
 30
0.0
 11
59.3303843652444627
 21
55.6420925849190979
 31
0.0
  0
LINE
  5
18F
  8
轮廓粗实线
 10
60.3303843652444627
 20
57.1420925849190908
 30
0.0
 11
60.3303843652444627
 21
55.6420925849190979
 31
0.0
  0
LINE
  5
190
  8
轮廓粗实线
 10
59.3303843652444627
 20
57.1420925849190908
 30
0.0
 11
60.3303843652444627
 21
57.1420925849190908
 31
0.0
  0
LINE
  5
191
  8
轮廓粗实线
 10
60.3303843652444627
 20
55.6420925849190979
 30
0.0
 11
59.3303843652444627
 21
55.6420925849190979
 31
0.0
  0
DIMENSION
  5
192
  8
0
  6
SLD-实线
 62
     5
  2
_D_5
 10
38.6567395889849905
 20
57.1420925849190908
 30
0.0
 11
38.6567395889849905
 21
52.6511342186184734
 31
0.0
 70
   128
  1
<>
 13
42.3303843652444698
 23
55.6420925849190908
 33
0.0
 14
42.3303843652444698
 24
57.1420925849190908
 34
0.0
 50
90.0000000000001847
  0
ENDSEC
  0
EOF
