;TYPE=PLATED
;Layer: PTH_Through_Via
;EasyEDA Pro Client v3.2.135, 2026-06-16 18:57:09
;Gerber Generator version 0.3
M48
METRIC,LZ,0000.00000
;Hole size 1 = 0.30000 METRIC
T01C0.30000
;Hole size 2 = 0.80000 METRIC
T02C0.80000
%
G05
G90
T01
X30.804Y100.011
X92.922Y84.711
X33.762Y83.64
X67.0905Y95.1405
X53.805Y109.65
X42.126Y48.246
X42.075Y44.37
X47.175Y44.268
X42.891Y47.685
X42.228Y41.31
X38.70081Y37.47681
X48.603Y43.707
X37.944Y41.31
X49.317Y43.044
X37.95815Y40.10015
X23.001Y35.356
X26.673Y36.057
X23.103Y34.137
X26.673Y34.629
X17.544Y52.326
X52.581Y41.565
X57.936Y41.31
X61.03071Y46.13871
X70.431Y62.271
X56.1Y42.84
X48.246Y40.851
X44.013Y40.137
X72.114Y52.632
X60.69Y42.585
X58.14Y51.051
X51.306Y45.743
X47.175Y45.743
X51.969Y44.88
X52.683Y44.115
X43.299Y55.794
X43.248Y56.763
X28.305Y68.544
X35.4195Y65.5095
X36.057Y66.606
X28.611Y109.446
X63.036Y59.67
X32.589Y85.119
X39.066Y83.589
X22.695Y95.27964
X24.021Y94.146
X24.888Y95.07798
X21.726Y97.461
X22.287Y90.321
X21.165Y89.26164
X25.296Y90.78
X26.52Y94.248
X20.094Y98.634
X27.336Y93.636
X28.866Y91.29
X57.222Y55.437
X64.413Y62.832
X58.803Y54.723
X54.978Y54.723
X51.816Y51.765
X51.918Y62.883
X56.355Y59.619
X58.14Y62.883
X50.337Y49.164
X44.013Y46.104
X48.705Y44.931
X46.0785Y37.5615
X41.47661Y46.93361
X43.656Y50.796
X42.84Y37.587
X54.111Y23.817
X46.41Y17.544
X38.046Y42.483
X50.133Y40.239
X51.02698Y41.13298
X56.1Y44.778
X62.883Y49.164
X60.996Y49.674
X60.435Y47.57136
X72.522Y59.976
X70.635Y38.76
X71.604Y38.25
X72.165Y36.261
X52.887Y43.248
X61.506Y40.902
X83.487Y58.752
X75.327Y72.828
X77.928Y72.318
X53.295Y74.307
X59.211Y74.29536
X65.433Y74.29536
X57.375Y22.338
X19.737Y43.095
X9.333Y30.6
X9.945Y31.773
X10.965Y33.813
X10.965Y29.376
X18.564Y39.117
X21.267Y46.002
X22.797Y31.722
X22.95Y29.325
X32.13Y79.39536
X32.487Y81.396
X73.491Y48.807
X84.762Y92.616
X72.012Y96.747
X59.823Y95.574
X57.426Y96.645
X60.435Y90.678
X79.05Y99.093
X85.68Y118.524
X82.518Y107.559
X33.51864Y45.186
X37.281Y45.186
X36.261Y42.33
X43.26342Y41.07598
X43.96856Y41.07598
X47.41759Y51.8896
X46.64098Y52.45498
X45.92698Y53.16898
X45.16198Y53.93398
X44.39698Y54.54598
X47.71198Y64.08298
X46.33498Y63.06298
X46.58998Y65.51098
X48.68098Y62.90998
X49.75198Y62.55298
X48.42598Y64.84798
X47.25298Y62.50198
X44.75398Y59.33998
X45.36598Y58.77898
X46.02898Y58.21798
X46.58998Y57.60598
X47.25298Y56.99398
X47.91598Y56.27998
X48.62998Y55.56598
X49.29298Y54.85198
X36.46419Y57.15235
X34.425Y59.415
X38.63398Y50.46598
X39.09298Y49.44598
X10.99198Y43.37698
X15.68398Y45.51898
X18.43798Y37.81798
X17.646Y38.301
X17.26498Y39.14398
X20.29902Y39.74502
X62.29798Y32.25898
X63.21598Y32.15698
X64.64398Y32.97298
X64.13398Y32.20798
X58.72798Y30.21898
X57.936Y28.305
X56.58598Y28.07698
X37.00198Y66.88798
X38.02198Y67.04098
X39.29698Y64.79698
X41.69398Y72.75298
X41.71506Y71.78798
X41.08198Y72.29398
X40.82698Y73.16098
X41.08198Y71.22298
X41.99998Y70.76398
X37.66498Y70.96798
X36.74698Y70.61098
X36.84898Y71.52898
X34.40098Y74.48698
X35.26798Y74.28298
X34.91098Y73.46698
X32.66698Y72.19198
X33.68698Y72.24298
X34.80898Y72.49798
X17.67298Y65.51098
X21.34498Y66.07198
X18.84598Y70.66198
X18.46495Y71.60412
X17.82598Y71.01898
X18.79498Y72.54898
X17.51998Y72.29398
X13.03198Y65.81698
X11.50198Y66.53098
X11.19598Y68.16298
X11.19598Y70.55998
X12.67498Y71.78398
X14.71498Y72.24298
X15.17398Y65.35798
X22.46698Y76.27198
X19.53341Y75.73671
X18.69298Y74.48698
X71.094Y19.691
X72.318Y19.589
X71.247Y15.509
X67.83Y15.407
X69.564Y18.518
X73.593Y20.303
X69.972Y32.288
X68.748Y32.135
X67.677Y32.033
X70.482Y33.053
X71.4Y55.085
X69.615Y48.965
X71.757Y48.914
X68.595Y50.036
X69.156Y46.313
X68.646Y45.14
X70.074Y53.759
X69.462Y55.799
X70.839Y72.318
X69.921Y71.961
X71.808Y71.91
X71.502Y70.788
X68.544Y90.117
X67.626Y90.173
X67.524Y89.153
X68.391Y89.357
X61.455Y89.76
X60.588Y89.403
X62.29052Y89.47695
X67.48676Y87.98
X64.668Y87.47
X60.639Y92.57
X60.69Y94.197
X58.446Y94.355
X57.79213Y93.99807
X56.355Y93.284
X57.069Y92.672
X57.834Y91.851
X58.191Y92.672
X58.956Y92.162
X56.1Y95.885
X58.98298Y31.23898
X53.93398Y39.09298
X54.85198Y38.37898
X56.43298Y38.07298
X63.01198Y44.19298
X62.14498Y43.58098
X53.93398Y47.04898
X53.82349Y48.78298
X55.20898Y48.78298
X55.92298Y47.81398
X61.07398Y51.07798
X63.16498Y51.23098
X55.76998Y51.12898
X56.304Y45.543
X56.712Y46.155
X50.82298Y42.10198
X51.94498Y40.62298
X31.79998Y38.27698
X30.83098Y38.22598
X26.90398Y38.02198
X27.999Y37.995
X26.49598Y38.73598
X28.101Y43.044
X23.511Y49.98
X22.491Y49.98
X17.16298Y50.56798
X16.14298Y50.56798
X15.27598Y50.46598
X15.22498Y54.03598
X16.19398Y53.78098
X17.11198Y54.34198
X11.65498Y55.92298
X12.06298Y54.39298
X12.16498Y52.19998
X12.06298Y50.56798
X11.96098Y48.62998
X13.28698Y47.30398
X15.53098Y48.57898
X22.389Y49.164
X27.183Y50.133
X31.79998Y72.24298
X29.40298Y29.04598
X29.40298Y28.28098
X29.55598Y27.31198
X19.81498Y20.63098
X19.76398Y19.66198
X18.84598Y19.20298
X20.83498Y18.99898
X14.56198Y25.47598
X10.02298Y26.44498
X78.285Y22.19
X77.775Y23.465
X79.458Y23.771
X81.345Y24.434
X89.25Y26.882
X92.157Y26.882
X93.687Y26.831
X87.873Y26.882
X88.128Y43.763
X86.598Y43.763
X93.024Y43.661
X93.942Y43.661
X81.396Y58.808
X83.64Y57.635
X84.966Y59.012
X82.569Y56.564
X81.447Y55.595
X79.05Y55.391
X78.693Y54.32
X78.54Y52.943
X94.146Y77.729
X93.636Y80.33
X91.953Y80.381
X89.811Y80.534
X85.935Y75.383
X84.864Y75.434
X83.844Y75.383
X82.926Y75.383
X90.831Y82.319
X87.924Y80.835
X87.363Y81.707
X81.957Y80.942
X80.835Y80.993
X79.305Y81.044
X68.493Y124.241
X69.513Y124.139
X70.329Y123.374
X70.533Y121.793
X71.11018Y124.76161
X72.318Y124.853
X73.287Y124.445
X62.118Y123.782
X64.107Y125.057
X65.382Y125.159
X66.657Y125.159
X61.914Y122.813
X60.945Y122.507
X59.823Y123.476
X60.996Y123.833
X58.37049Y124.942
X58.956Y124.037
X55.62348Y124.942
X54.825Y124.389
X54.19735Y123.73628
X53.244Y122.405
X53.05554Y123.91988
X49.827Y125.21
X49.419Y124.241
X49.47Y123.272
X58.395Y115.673
X58.548Y114.602
X59.262Y115.367
X59.415Y116.489
X60.66401Y116.16073
X60.282Y115.316
X59.517Y114.551
X55.057Y114.721
X54.672Y113.786
X49.929Y108.533
X49.521Y107.36
X48.195Y107.207
X48.144Y109.145
X42.66851Y102.69488
X40.851Y102.617
X34.221Y104.759
X33.303Y103.382
X35.955Y102.056
X19.227Y112.307
X14.86109Y112.069
X18.87Y113.276
X15.15681Y113.269
X20.298Y104.657
X20.196Y106.544
X20.298Y103.841
X14.9021Y98.17605
X16.218Y98.18
X17.238Y97.466
X13.719Y97.874
X17.34Y96.293
X17.41989Y90.581
X20.706Y91.754
X16.83Y88.745
X7.905Y77.525
X9.078Y77.882
X6.6575Y77.63872
X5.559Y78.647
X13.77Y77.831
X15.3Y77.678
X17.187Y77.78
X46.33498Y46.89598
X44.19298Y48.22198
X43.78498Y49.03798
X44.80498Y48.78298
X43.98898Y52.19998
X41.18398Y50.61898
X57.24898Y58.82998
X59.69698Y59.74798
X30.753Y53.96411
X21.981Y41.004
X22.593Y40.29
X39.117Y58.599
X28.458Y55.26408
X22.491Y52.173
X36.97419Y57.91735
X35.39319Y59.49835
X36.56619Y59.54935
X37.33119Y58.78435
X34.62819Y54.60235
X35.445Y54.57
X27.94719Y50.77735
X39.26919Y56.33635
X30.47208Y51.67516
X30.59919Y52.61335
X27.28419Y53.99035
X32.89419Y56.69335
X29.9641Y56.59555
X21.72519Y55.52035
X43.656Y35.649
X42.84Y34.986
X51.63975Y43.809
X59.18775Y39.984
T02
X44.88Y36.618
X39.168Y35.802
X38.25Y34.425
M30