G04 Layer: CustomLayer2*
G04 EasyEDA Pro v3.2.135, 2026-06-16 18:57:08*
G04 Gerber Generator version 0.3*
G04 Scale: 100 percent, Rotated: No, Reflected: No*
G04 Dimensions in millimeters*
G04 Leading zeros omitted, absolute positions, 4 integers and 5 decimals*
G04 Generated by one-click*
G04 Object Configs: Pad,Via,Track,Text,Image,Dimension,BoardOutline,BoardCutout,CopperFilled,SolidRegion,FPCStiffener,Line,PlaneZone,ComponentProperty,ComponentSilkscreen,TearDrop*
G04 Layer Configs: 1,2,3,4,5,6,7,8,9,10,11,13,14,71,72,73,74,56*
G04 Copper Areas: 0*
%FSLAX45Y45*%
%MOMM*%
%ADD10C,0.0127*%
%ADD11C,0.15*%
%ADD12C,0.5848*%
G75*


G04 PolygonModel Start*
G54D10*
G01X3547060Y11147778D02*
G01X3552140Y11152858D01*
G01X1595478Y10982840D02*
G01X1600558Y10977760D01*
G01X5359307Y5737282D02*
G01X5364387Y5742362D01*
G01X5389426Y5746213D02*
G01X5394506Y5751293D01*
G54D11*
G01X5681400Y11715500D02*
G01X5681400Y11615500D01*
G01X5731400Y11665500D02*
G01X5631400Y11665500D01*
G01X5731400Y10805500D02*
G01X5631400Y10805500D01*
G01X4573900Y11582100D02*
G01X4673900Y11582100D01*
G01X4623900Y11632100D02*
G01X4623900Y11532100D01*
G01X5483900Y11632100D02*
G01X5483900Y11532100D01*
G54D10*
G01X5598978Y12109940D02*
G01X5604058Y12104860D01*
G54D11*
G01X4573900Y11250600D02*
G01X4673900Y11250600D01*
G01X4623900Y11300600D02*
G01X4623900Y11200600D01*
G01X5483900Y11300600D02*
G01X5483900Y11200600D01*
G54D10*
G01X9017171Y3899381D02*
G01X9022251Y3894301D01*
G01X9017171Y5550081D02*
G01X9022251Y5545001D01*
G01X9017171Y7258603D02*
G01X9022251Y7253523D01*
G01X9017171Y2232854D02*
G01X9022251Y2227774D01*
G01X7674720Y10355241D02*
G01X7679800Y10350161D01*
G01X8188359Y12121920D02*
G01X8193439Y12127000D01*

M02*

