;TYPE=PLATED
;Layer: PTH_Through_Via
;EasyEDA Pro Client v2.2.32.3, 2025-07-18 16:49:07
;Gerber Generator version 0.3
M48
METRIC,LZ,0000.00
;Hole size 1 = 0.30 METRIC
T01C0.30
%
G05
G90
T01
X8.45Y16.27
X8.45Y15.35
X8.46Y14.62
X8.43Y12.36
X14.79Y25.86
X13.84Y25.86
X16.18Y25.57
X16.18Y26.52
X12.69Y25.74
X12.69Y26.69
X11.41Y25.69
X11.41Y26.64
X17.28Y26.25
X17.28Y27.2
X18.76Y26.5
X18.76Y27.46
X14.29Y26.81
X14.29Y27.76
X10.54Y25.02
X10.54Y25.98
X19.78Y26.2
X19.78Y27.15
X20.64Y24.67
X20.64Y25.62
X21.26Y22.83
X21.26Y23.78
X22.02Y21.1
X22.02Y22.05
X22.99Y19.98
X22.99Y20.93
X23.91Y18.55
X23.91Y19.5
X24.21Y16.46
X24.21Y17.41
X24.32Y14.21
X24.32Y15.16
X24.26Y12.12
X24.26Y13.07
X23.7Y10.29
X23.7Y11.24
X22.94Y8.96
X22.94Y9.91
X22.07Y7.94
X22.07Y8.89
X21.1Y7.02
X21.1Y7.97
X20.08Y6.05
X20.08Y7.0
X19.22Y5.44
X19.22Y6.39
X18.25Y4.83
X18.25Y5.78
X17.28Y4.93
X17.28Y5.88
X16.26Y4.88
X16.26Y5.83
X15.08Y4.78
X15.08Y5.73
X13.86Y4.78
X13.86Y5.73
X12.58Y5.13
X12.58Y6.09
X11.56Y5.59
X11.56Y6.55
X10.49Y6.15
X10.49Y7.11
X9.42Y6.66
X9.42Y7.62
X8.4Y7.38
X8.4Y8.33
X7.54Y8.3
X7.54Y9.25
X6.67Y9.88
X6.67Y10.83
X6.11Y11.92
X6.11Y12.87
X5.85Y14.06
X5.85Y15.01
X5.9Y16.2
X5.9Y17.15
X6.61Y18.11
X6.61Y19.06
X7.43Y19.67
X7.43Y20.62
X8.4Y21.05
X8.4Y22.0
X9.58Y22.37
X9.58Y23.32
X10.54Y23.34
X10.54Y24.29
X11.04Y3.44
X11.04Y2.48
X12.52Y3.44
X12.52Y2.48
X14.92Y3.33
X14.92Y2.38
X16.4Y3.33
X16.4Y2.38
X18.18Y3.39
X18.18Y2.43
X19.66Y3.39
X19.66Y2.43
X26.7Y10.74
X27.66Y10.74
X26.7Y12.21
X27.66Y12.21
X26.81Y14.61
X27.76Y14.61
X26.81Y16.09
X27.76Y16.09
X26.76Y17.88
X27.71Y17.88
X26.76Y19.36
X27.71Y19.36
X2.22Y11.09
X3.18Y11.09
X2.22Y12.57
X3.18Y12.57
X2.33Y14.97
X3.28Y14.97
X2.33Y16.45
X3.28Y16.45
X2.28Y18.23
X3.23Y18.23
X2.28Y19.71
X3.23Y19.71
M30