G04 Layer: BottomLayer*
G04 EasyEDA Pro v2.2.32.3, 2025-07-18 16:49:07*
G04 Gerber Generator version 0.3*
G04 Scale: 100 percent, Rotated: No, Reflected: No*
G04 Dimensions in millimeters*
G04 Leading zeros omitted, absolute positions, 4 integers and 2 decimals*
%FSLAX42Y42*%
%MOMM*%
%ADD10C,0.2*%
%ADD11R,1.6X1.8*%
%ADD12C,1.8*%
%ADD13C,5.0*%
%ADD14C,15.0*%
%ADD15C,0.6*%
G75*


G04 Copper Start*
G36*
G01X2434Y36D02*
G01X566Y36D01*
G03X683Y683I-166J364D01*
G03X36Y566I-283J-283D01*
G01X36Y2434D01*
G03X683Y2317I364J166D01*
G03X566Y2964I-283J283D01*
G01X2434Y2964D01*
G03X2317Y2317I166J-364D01*
G03X2964Y2434I283J283D01*
G01X2964Y566D01*
G03X2317Y683I-364J-166D01*
G03X2434Y36I283J-283D01*
G37*
%LPC*%
G36*
G01X1500Y714D02*
G03X1545Y2285I0J786D01*
G03X1500Y2528I-45J118D01*
G03X1455Y2285I0J-126D01*
G03X1500Y714I45J-785D01*
G37*
G36*
G01X1830Y2276D02*
G03X1866Y2312I0J36D01*
G01X1866Y2492D01*
G03X1830Y2528I-36J0D01*
G01X1670Y2528D01*
G03X1634Y2492I0J-36D01*
G01X1634Y2312D01*
G03X1670Y2276I36J0D01*
G01X1830Y2276D01*
G37*
%LPD*%
G54D10*
G01X2434Y36D02*
G01X566Y36D01*
G03X683Y683I-166J364D01*
G03X36Y566I-283J-283D01*
G01X36Y2434D01*
G03X683Y2317I364J166D01*
G03X566Y2964I-283J283D01*
G01X2434Y2964D01*
G03X2317Y2317I166J-364D01*
G03X2964Y2434I283J283D01*
G01X2964Y566D01*
G03X2317Y683I-364J-166D01*
G03X2434Y36I283J-283D01*
G01X1500Y714D02*
G03X1545Y2285I0J786D01*
G03X1500Y2528I-45J118D01*
G03X1455Y2285I0J-126D01*
G03X1500Y714I45J-785D01*
G01X1830Y2276D02*
G03X1866Y2312I0J36D01*
G01X1866Y2492D01*
G03X1830Y2528I-36J0D01*
G01X1670Y2528D01*
G03X1634Y2492I0J-36D01*
G01X1634Y2312D01*
G03X1670Y2276I36J0D01*
G01X1830Y2276D01*
G04 Copper End*

G04 Pad Start*
G54D11*
G01X1750Y2402D03*
G54D12*
G01X1500Y2402D03*
G01X1250Y2402D03*
G54D13*
G01X2600Y2600D03*
G01X2600Y400D03*
G01X400Y2600D03*
G01X400Y400D03*
G54D14*
G01X1500Y1500D03*
G04 Pad End*

G04 Via Start*
G54D15*
G01X845Y1627D03*
G01X845Y1535D03*
G01X846Y1462D03*
G01X843Y1236D03*
G01X1479Y2586D03*
G01X1384Y2586D03*
G01X1618Y2557D03*
G01X1618Y2652D03*
G01X1269Y2574D03*
G01X1269Y2669D03*
G01X1141Y2569D03*
G01X1141Y2664D03*
G01X1728Y2625D03*
G01X1728Y2720D03*
G01X1876Y2650D03*
G01X1876Y2746D03*
G01X1429Y2681D03*
G01X1429Y2776D03*
G01X1054Y2502D03*
G01X1054Y2598D03*
G01X1978Y2620D03*
G01X1978Y2715D03*
G01X2064Y2467D03*
G01X2064Y2562D03*
G01X2126Y2283D03*
G01X2126Y2378D03*
G01X2202Y2110D03*
G01X2202Y2205D03*
G01X2299Y1998D03*
G01X2299Y2093D03*
G01X2391Y1855D03*
G01X2391Y1950D03*
G01X2421Y1646D03*
G01X2421Y1741D03*
G01X2432Y1421D03*
G01X2432Y1516D03*
G01X2426Y1212D03*
G01X2426Y1307D03*
G01X2370Y1029D03*
G01X2370Y1124D03*
G01X2294Y896D03*
G01X2294Y991D03*
G01X2207Y794D03*
G01X2207Y889D03*
G01X2110Y702D03*
G01X2110Y797D03*
G01X2008Y605D03*
G01X2008Y700D03*
G01X1922Y544D03*
G01X1922Y639D03*
G01X1825Y483D03*
G01X1825Y578D03*
G01X1728Y493D03*
G01X1728Y588D03*
G01X1626Y488D03*
G01X1626Y583D03*
G01X1508Y478D03*
G01X1508Y573D03*
G01X1386Y478D03*
G01X1386Y573D03*
G01X1258Y513D03*
G01X1258Y609D03*
G01X1156Y559D03*
G01X1156Y655D03*
G01X1049Y615D03*
G01X1049Y711D03*
G01X942Y666D03*
G01X942Y762D03*
G01X840Y738D03*
G01X840Y833D03*
G01X754Y830D03*
G01X754Y925D03*
G01X667Y988D03*
G01X667Y1083D03*
G01X611Y1192D03*
G01X611Y1287D03*
G01X585Y1406D03*
G01X585Y1501D03*
G01X590Y1620D03*
G01X590Y1715D03*
G01X661Y1811D03*
G01X661Y1906D03*
G01X743Y1967D03*
G01X743Y2062D03*
G01X840Y2105D03*
G01X840Y2200D03*
G01X958Y2237D03*
G01X958Y2332D03*
G01X1054Y2334D03*
G01X1054Y2429D03*
G01X1104Y344D03*
G01X1104Y248D03*
G01X1252Y344D03*
G01X1252Y248D03*
G01X1492Y333D03*
G01X1492Y238D03*
G01X1640Y333D03*
G01X1640Y238D03*
G01X1818Y339D03*
G01X1818Y243D03*
G01X1966Y339D03*
G01X1966Y243D03*
G01X2670Y1074D03*
G01X2766Y1074D03*
G01X2670Y1221D03*
G01X2766Y1221D03*
G01X2681Y1461D03*
G01X2776Y1461D03*
G01X2681Y1609D03*
G01X2776Y1609D03*
G01X2676Y1788D03*
G01X2771Y1788D03*
G01X2676Y1936D03*
G01X2771Y1936D03*
G01X222Y1109D03*
G01X318Y1109D03*
G01X222Y1257D03*
G01X318Y1257D03*
G01X233Y1497D03*
G01X328Y1497D03*
G01X233Y1645D03*
G01X328Y1645D03*
G01X228Y1823D03*
G01X323Y1823D03*
G01X228Y1971D03*
G01X323Y1971D03*
G04 Via End*

M02*

