G04 Layer: TopLayer*
G04 EasyEDA Pro v2.2.32.3, 2025-07-18 16:49:07*
G04 Gerber Generator version 0.3*
G04 Scale: 100 percent, Rotated: No, Reflected: No*
G04 Dimensions in millimeters*
G04 Leading zeros omitted, absolute positions, 4 integers and 2 decimals*
%FSLAX42Y42*%
%MOMM*%
%ADD10C,0.2*%
%ADD11R,1.49X1.73*%
%ADD12R,0.89X0.89*%
%ADD13R,1.6X1.8*%
%ADD14C,1.8*%
%ADD15R,0.9X1.0*%
%ADD16R,1.1X1.0*%
%ADD17R,1.1X1.0*%
%ADD18R,1.1003X0.6*%
%ADD19R,1.1X0.6*%
%ADD20R,1.0X1.1*%
%ADD21C,5.0*%
%ADD22C,0.6*%
%ADD23C,0.5*%
%ADD24C,1.0*%
%ADD25C,0.4*%
G75*


G04 Copper Start*
G36*
G01X2434Y36D02*
G01X566Y36D01*
G03X683Y683I-166J364D01*
G03X36Y566I-283J-283D01*
G01X36Y2434D01*
G03X683Y2317I364J166D01*
G03X566Y2964I-283J283D01*
G01X2434Y2964D01*
G03X2317Y2317I166J-364D01*
G03X2964Y2434I283J283D01*
G01X2964Y566D01*
G03X2317Y683I-364J-166D01*
G03X2434Y36I283J-283D01*
G37*
%LPC*%
G36*
G01X783Y1500D02*
G01X782Y1491D01*
G01X782Y1490D01*
G01X781Y1480D01*
G03X780Y1476I36J-4D01*
G01X780Y1470D01*
G01X780Y1468D01*
G01X780Y1462D01*
G01X780Y1459D01*
G03X780Y1456I36J-1D01*
G01X781Y1451D01*
G03X781Y1449I36J2D01*
G02X766Y1418I-86J23D01*
G03X759Y1396I29J-21D01*
G01X759Y1286D01*
G03X766Y1265I36J0D01*
G02X778Y1243I-72J-54D01*
G03X778Y1230I65J-7D01*
G01X778Y1224D01*
G01X778Y1222D01*
G01X779Y1219D01*
G02X768Y1195I-102J32D01*
G03X764Y1186I30J-19D01*
G03X762Y1176I34J-10D01*
G01X762Y1087D01*
G03X768Y1068I36J0D01*
G02X782Y1031I-91J-56D01*
G02X777Y997I-331J34D01*
G03X776Y990I35J-7D01*
G01X776Y890D01*
G03X812Y854I36J0D01*
G01X902Y854D01*
G03X938Y890I0J36D01*
G01X938Y990D01*
G03X926Y1016I-36J0D01*
G02X909Y1043I46J49D01*
G02X919Y1071I130J-31D01*
G03X923Y1087I-32J16D01*
G01X923Y1176D01*
G03X919Y1192I-36J0D01*
G02X909Y1221I119J59D01*
G01X909Y1227D01*
G01X909Y1230D01*
G01X909Y1236D01*
G01X909Y1237D01*
G02X923Y1265I86J-25D01*
G01X925Y1267D01*
G03X955Y1251I30J20D01*
G01X1055Y1251D01*
G03X1077Y1259I0J36D01*
G02X1129Y1277I52J-64D01*
G02X1198Y1273I-2J-529D01*
G03X1202Y1272I5J35D01*
G01X1312Y1272D01*
G03X1348Y1308I0J36D01*
G01X1348Y1368D01*
G03X1312Y1404I-36J0D01*
G01X1202Y1404D01*
G03X1198Y1404I0J-36D01*
G02X1129Y1399I-70J525D01*
G02X1081Y1420I1J66D01*
G03X1055Y1432I-27J-24D01*
G01X955Y1432D01*
G03X925Y1416I0J-36D01*
G01X923Y1418D01*
G02X910Y1443I71J54D01*
G01X911Y1448D01*
G03X911Y1451I-35J7D01*
G01X912Y1454D01*
G03X912Y1469I-65J8D01*
G01X911Y1475D01*
G01X911Y1477D01*
G01X910Y1484D01*
G01X910Y1487D01*
G01X907Y1496D01*
G01X906Y1505D01*
G01X906Y1506D01*
G01X906Y1508D01*
G01X907Y1514D01*
G03X907Y1556I-62J21D01*
G01X906Y1563D01*
G01X905Y1567D01*
G01X905Y1572D01*
G01X905Y1590D01*
G01X905Y1595D01*
G01X906Y1599D01*
G01X907Y1606D01*
G03X845Y1693I-62J21D01*
G03X782Y1606I0J-66D01*
G01X783Y1599D01*
G01X784Y1595D01*
G01X784Y1590D01*
G01X784Y1572D01*
G01X784Y1567D01*
G01X783Y1563D01*
G01X782Y1556D01*
G03X782Y1514I62J-21D01*
G01X783Y1508D01*
G01X783Y1504D01*
G01X783Y1500D01*
G37*
G36*
G01X1437Y1463D02*
G01X1437Y1403D01*
G03X1441Y1386I36J0D01*
G03X1437Y1368I31J-17D01*
G01X1437Y1308D01*
G03X1446Y1283I36J0D01*
G02X1467Y1233I-53J-50D01*
G01X1467Y1227D01*
G03X1484Y1184I61J0D01*
G01X1557Y1111D01*
G03X1600Y1093I43J43D01*
G01X1691Y1093D01*
G02X1744Y1076I0J-89D01*
G03X1766Y1068I21J29D01*
G01X1876Y1068D01*
G03X1912Y1104I0J36D01*
G01X1912Y1204D01*
G03X1895Y1234I-36J0D01*
G03X1902Y1240I-20J30D01*
G01X1923Y1219D01*
G01X1923Y1086D01*
G01X1830Y993D01*
G01X1536Y993D01*
G02X1486Y1013I0J73D01*
G03X1461Y1023I-25J-26D01*
G01X1361Y1023D01*
G03X1331Y1006I0J-36D01*
G03X1301Y1023I-30J-20D01*
G01X1201Y1023D01*
G03X1167Y997I0J-36D01*
G02X1141Y988I-26J30D01*
G01X1132Y988D01*
G02X1107Y997I0J39D01*
G03X1072Y1026I-35J-6D01*
G01X982Y1026D01*
G03X946Y990I0J-36D01*
G01X946Y890D01*
G03X982Y854I36J0D01*
G01X1072Y854D01*
G03X1095Y863I0J36D01*
G02X1132Y876I37J-44D01*
G01X1141Y876D01*
G02X1167Y866I0J-39D01*
G03X1201Y841I34J10D01*
G01X1301Y841D01*
G03X1331Y857I0J36D01*
G03X1361Y841I30J20D01*
G01X1461Y841D01*
G03X1486Y851I0J36D01*
G02X1536Y871I50J-53D01*
G01X1855Y871D01*
G03X1898Y889I0J61D01*
G01X2027Y1018D01*
G03X2045Y1061I-43J43D01*
G01X2045Y1244D01*
G03X2027Y1287I-61J0D01*
G01X1961Y1353D01*
G03X1918Y1371I-43J-43D01*
G02X1909Y1377I-0J10D01*
G03X1876Y1400I-33J-13D01*
G01X1859Y1400D01*
G02X1804Y1417I0J97D01*
G01X1732Y1489D01*
G01X1732Y1640D01*
G02X1748Y1698I117J0D01*
G03X1752Y1715I-31J18D01*
G01X1752Y1804D01*
G03X1748Y1822I-36J0D01*
G02X1739Y1840I102J57D01*
G02X1748Y1852I51J-27D01*
G03X1782Y1887I-2J36D01*
G01X1782Y2060D01*
G03X1776Y2080I-36J0D01*
G02X1763Y2106I87J57D01*
G01X1811Y2153D01*
G03X1836Y2214I-61J61D01*
G02X1860Y2292I139J0D01*
G03X1866Y2312I-30J20D01*
G01X1866Y2492D01*
G03X1830Y2528I-36J0D01*
G01X1670Y2528D01*
G03X1634Y2492I0J-36D01*
G01X1634Y2312D01*
G03X1640Y2292I36J0D01*
G01X1640Y2292D01*
G02X1660Y2246I-115J-78D01*
G01X1612Y2198D01*
G03X1587Y2137I61J-61D01*
G02X1569Y2081I-93J0D01*
G03X1562Y2060I29J-21D01*
G01X1562Y1887D01*
G03X1596Y1852I36J0D01*
G02X1604Y1839I-43J-39D01*
G02X1596Y1821I-113J40D01*
G03X1592Y1804I31J-17D01*
G01X1592Y1715D01*
G03X1596Y1698I36J0D01*
G02X1611Y1640I-105J-58D01*
G01X1611Y1638D01*
G02X1608Y1584I-452J0D01*
G02X1588Y1631I49J48D01*
G03X1570Y1674I-61J0D01*
G01X1557Y1687D01*
G02X1539Y1744I79J56D01*
G01X1539Y1760D01*
G03X1503Y1796I-36J0D01*
G01X1393Y1796D01*
G03X1358Y1760I0J-36D01*
G01X1358Y1660D01*
G03X1393Y1624I36J0D01*
G01X1410Y1624D01*
G02X1463Y1609I0J-97D01*
G02X1447Y1583I-64J22D01*
G03X1437Y1558I25J-25D01*
G01X1437Y1498D01*
G03X1441Y1481I36J0D01*
G03X1437Y1463I31J-17D01*
G37*
G36*
G01X1217Y2124D02*
G03X1199Y2081I43J-43D01*
G01X1199Y1995D01*
G02X1179Y1945I-73J0D01*
G03X1169Y1920I26J-25D01*
G01X1169Y1820D01*
G03X1185Y1790I36J0D01*
G03X1169Y1760I20J-30D01*
G01X1169Y1660D01*
G03X1177Y1637I36J0D01*
G02X1193Y1610I-61J-52D01*
G02X1176Y1583I-69J23D01*
G03X1167Y1558I26J-25D01*
G01X1167Y1498D01*
G03X1202Y1462I36J0D01*
G01X1312Y1462D01*
G03X1348Y1498I0J36D01*
G01X1348Y1558D01*
G03X1338Y1583I-36J0D01*
G02X1322Y1609I53J50D01*
G02X1339Y1634I63J-23D01*
G03X1351Y1660I-25J26D01*
G01X1351Y1760D01*
G03X1334Y1790I-36J0D01*
G03X1351Y1820I-20J30D01*
G01X1351Y1920D01*
G03X1341Y1945I-36J0D01*
G02X1321Y1995I53J50D01*
G01X1321Y2056D01*
G01X1498Y2233D01*
G01X1512Y2246D01*
G01X1522Y2256D01*
G01X1531Y2263D01*
G01X1539Y2270D01*
G01X1558Y2285D01*
G01X1559Y2286D01*
G01X1571Y2296D01*
G01X1571Y2297D01*
G01X1584Y2308D01*
G03X1512Y2527I-84J94D01*
G03X1400Y2326I-12J-125D01*
G01X1401Y2324D01*
G01X1401Y2324D01*
G01X1402Y2323D01*
G01X1402Y2322D01*
G01X1402Y2321D01*
G01X1402Y2320D01*
G01X1402Y2318D01*
G01X1401Y2316D01*
G01X1401Y2314D01*
G01X1400Y2312D01*
G01X1397Y2307D01*
G01X1394Y2302D01*
G01X1389Y2296D01*
G01X1217Y2124D01*
G37*
%LPD*%
G54D10*
G01X2434Y36D02*
G01X566Y36D01*
G03X683Y683I-166J364D01*
G03X36Y566I-283J-283D01*
G01X36Y2434D01*
G03X683Y2317I364J166D01*
G03X566Y2964I-283J283D01*
G01X2434Y2964D01*
G03X2317Y2317I166J-364D01*
G03X2964Y2434I283J283D01*
G01X2964Y566D01*
G03X2317Y683I-364J-166D01*
G03X2434Y36I283J-283D01*
G01X783Y1500D02*
G01X782Y1491D01*
G01X782Y1490D01*
G01X781Y1480D01*
G03X780Y1476I36J-4D01*
G01X780Y1470D01*
G01X780Y1468D01*
G01X780Y1462D01*
G01X780Y1459D01*
G03X780Y1456I36J-1D01*
G01X781Y1451D01*
G03X781Y1449I36J2D01*
G02X766Y1418I-86J23D01*
G03X759Y1396I29J-21D01*
G01X759Y1286D01*
G03X766Y1265I36J0D01*
G02X778Y1243I-72J-54D01*
G03X778Y1230I65J-7D01*
G01X778Y1224D01*
G01X778Y1222D01*
G01X779Y1219D01*
G02X768Y1195I-102J32D01*
G03X764Y1186I30J-19D01*
G03X762Y1176I34J-10D01*
G01X762Y1087D01*
G03X768Y1068I36J0D01*
G02X782Y1031I-91J-56D01*
G02X777Y997I-331J34D01*
G03X776Y990I35J-7D01*
G01X776Y890D01*
G03X812Y854I36J0D01*
G01X902Y854D01*
G03X938Y890I0J36D01*
G01X938Y990D01*
G03X926Y1016I-36J0D01*
G02X909Y1043I46J49D01*
G02X919Y1071I130J-31D01*
G03X923Y1087I-32J16D01*
G01X923Y1176D01*
G03X919Y1192I-36J0D01*
G02X909Y1221I119J59D01*
G01X909Y1227D01*
G01X909Y1230D01*
G01X909Y1236D01*
G01X909Y1237D01*
G02X923Y1265I86J-25D01*
G01X925Y1267D01*
G03X955Y1251I30J20D01*
G01X1055Y1251D01*
G03X1077Y1259I0J36D01*
G02X1129Y1277I52J-64D01*
G02X1198Y1273I-2J-529D01*
G03X1202Y1272I5J35D01*
G01X1312Y1272D01*
G03X1348Y1308I0J36D01*
G01X1348Y1368D01*
G03X1312Y1404I-36J0D01*
G01X1202Y1404D01*
G03X1198Y1404I0J-36D01*
G02X1129Y1399I-70J525D01*
G02X1081Y1420I1J66D01*
G03X1055Y1432I-27J-24D01*
G01X955Y1432D01*
G03X925Y1416I0J-36D01*
G01X923Y1418D01*
G02X910Y1443I71J54D01*
G01X911Y1448D01*
G03X911Y1451I-35J7D01*
G01X912Y1454D01*
G03X912Y1469I-65J8D01*
G01X911Y1475D01*
G01X911Y1477D01*
G01X910Y1484D01*
G01X910Y1487D01*
G01X907Y1496D01*
G01X906Y1505D01*
G01X906Y1506D01*
G01X906Y1508D01*
G01X907Y1514D01*
G03X907Y1556I-62J21D01*
G01X906Y1563D01*
G01X905Y1567D01*
G01X905Y1572D01*
G01X905Y1590D01*
G01X905Y1595D01*
G01X906Y1599D01*
G01X907Y1606D01*
G03X845Y1693I-62J21D01*
G03X782Y1606I0J-66D01*
G01X783Y1599D01*
G01X784Y1595D01*
G01X784Y1590D01*
G01X784Y1572D01*
G01X784Y1567D01*
G01X783Y1563D01*
G01X782Y1556D01*
G03X782Y1514I62J-21D01*
G01X783Y1508D01*
G01X783Y1504D01*
G01X783Y1500D01*
G01X1437Y1463D02*
G01X1437Y1403D01*
G03X1441Y1386I36J0D01*
G03X1437Y1368I31J-17D01*
G01X1437Y1308D01*
G03X1446Y1283I36J0D01*
G02X1467Y1233I-53J-50D01*
G01X1467Y1227D01*
G03X1484Y1184I61J0D01*
G01X1557Y1111D01*
G03X1600Y1093I43J43D01*
G01X1691Y1093D01*
G02X1744Y1076I0J-89D01*
G03X1766Y1068I21J29D01*
G01X1876Y1068D01*
G03X1912Y1104I0J36D01*
G01X1912Y1204D01*
G03X1895Y1234I-36J0D01*
G03X1902Y1240I-20J30D01*
G01X1923Y1219D01*
G01X1923Y1086D01*
G01X1830Y993D01*
G01X1536Y993D01*
G02X1486Y1013I0J73D01*
G03X1461Y1023I-25J-26D01*
G01X1361Y1023D01*
G03X1331Y1006I0J-36D01*
G03X1301Y1023I-30J-20D01*
G01X1201Y1023D01*
G03X1167Y997I0J-36D01*
G02X1141Y988I-26J30D01*
G01X1132Y988D01*
G02X1107Y997I0J39D01*
G03X1072Y1026I-35J-6D01*
G01X982Y1026D01*
G03X946Y990I0J-36D01*
G01X946Y890D01*
G03X982Y854I36J0D01*
G01X1072Y854D01*
G03X1095Y863I0J36D01*
G02X1132Y876I37J-44D01*
G01X1141Y876D01*
G02X1167Y866I0J-39D01*
G03X1201Y841I34J10D01*
G01X1301Y841D01*
G03X1331Y857I0J36D01*
G03X1361Y841I30J20D01*
G01X1461Y841D01*
G03X1486Y851I0J36D01*
G02X1536Y871I50J-53D01*
G01X1855Y871D01*
G03X1898Y889I0J61D01*
G01X2027Y1018D01*
G03X2045Y1061I-43J43D01*
G01X2045Y1244D01*
G03X2027Y1287I-61J0D01*
G01X1961Y1353D01*
G03X1918Y1371I-43J-43D01*
G02X1909Y1377I-0J10D01*
G03X1876Y1400I-33J-13D01*
G01X1859Y1400D01*
G02X1804Y1417I0J97D01*
G01X1732Y1489D01*
G01X1732Y1640D01*
G02X1748Y1698I117J0D01*
G03X1752Y1715I-31J18D01*
G01X1752Y1804D01*
G03X1748Y1822I-36J0D01*
G02X1739Y1840I102J57D01*
G02X1748Y1852I51J-27D01*
G03X1782Y1887I-2J36D01*
G01X1782Y2060D01*
G03X1776Y2080I-36J0D01*
G02X1763Y2106I87J57D01*
G01X1811Y2153D01*
G03X1836Y2214I-61J61D01*
G02X1860Y2292I139J0D01*
G03X1866Y2312I-30J20D01*
G01X1866Y2492D01*
G03X1830Y2528I-36J0D01*
G01X1670Y2528D01*
G03X1634Y2492I0J-36D01*
G01X1634Y2312D01*
G03X1640Y2292I36J0D01*
G01X1640Y2292D01*
G02X1660Y2246I-115J-78D01*
G01X1612Y2198D01*
G03X1587Y2137I61J-61D01*
G02X1569Y2081I-93J0D01*
G03X1562Y2060I29J-21D01*
G01X1562Y1887D01*
G03X1596Y1852I36J0D01*
G02X1604Y1839I-43J-39D01*
G02X1596Y1821I-113J40D01*
G03X1592Y1804I31J-17D01*
G01X1592Y1715D01*
G03X1596Y1698I36J0D01*
G02X1611Y1640I-105J-58D01*
G01X1611Y1638D01*
G02X1608Y1584I-452J0D01*
G02X1588Y1631I49J48D01*
G03X1570Y1674I-61J0D01*
G01X1557Y1687D01*
G02X1539Y1744I79J56D01*
G01X1539Y1760D01*
G03X1503Y1796I-36J0D01*
G01X1393Y1796D01*
G03X1358Y1760I0J-36D01*
G01X1358Y1660D01*
G03X1393Y1624I36J0D01*
G01X1410Y1624D01*
G02X1463Y1609I0J-97D01*
G02X1447Y1583I-64J22D01*
G03X1437Y1558I25J-25D01*
G01X1437Y1498D01*
G03X1441Y1481I36J0D01*
G03X1437Y1463I31J-17D01*
G01X1217Y2124D02*
G03X1199Y2081I43J-43D01*
G01X1199Y1995D01*
G02X1179Y1945I-73J0D01*
G03X1169Y1920I26J-25D01*
G01X1169Y1820D01*
G03X1185Y1790I36J0D01*
G03X1169Y1760I20J-30D01*
G01X1169Y1660D01*
G03X1177Y1637I36J0D01*
G02X1193Y1610I-61J-52D01*
G02X1176Y1583I-69J23D01*
G03X1167Y1558I26J-25D01*
G01X1167Y1498D01*
G03X1202Y1462I36J0D01*
G01X1312Y1462D01*
G03X1348Y1498I0J36D01*
G01X1348Y1558D01*
G03X1338Y1583I-36J0D01*
G02X1322Y1609I53J50D01*
G02X1339Y1634I63J-23D01*
G03X1351Y1660I-25J26D01*
G01X1351Y1760D01*
G03X1334Y1790I-36J0D01*
G03X1351Y1820I-20J30D01*
G01X1351Y1920D01*
G03X1341Y1945I-36J0D01*
G02X1321Y1995I53J50D01*
G01X1321Y2056D01*
G01X1498Y2233D01*
G01X1512Y2246D01*
G01X1522Y2256D01*
G01X1531Y2263D01*
G01X1539Y2270D01*
G01X1558Y2285D01*
G01X1559Y2286D01*
G01X1571Y2296D01*
G01X1571Y2297D01*
G01X1584Y2308D01*
G03X1512Y2527I-84J94D01*
G03X1400Y2326I-12J-125D01*
G01X1401Y2324D01*
G01X1401Y2324D01*
G01X1402Y2323D01*
G01X1402Y2322D01*
G01X1402Y2321D01*
G01X1402Y2320D01*
G01X1402Y2318D01*
G01X1401Y2316D01*
G01X1401Y2314D01*
G01X1400Y2312D01*
G01X1397Y2307D01*
G01X1394Y2302D01*
G01X1389Y2296D01*
G01X1217Y2124D01*
G04 Copper End*

G04 TearDrop Start*
G36*
G01X1697Y1812D02*
G01X1647Y1812D01*
G01X1647Y1812D01*
G03X1609Y1887I-94J0D01*
G01X1609Y1887D01*
G01X1734Y1887D01*
G01X1734Y1887D01*
G03X1697Y1812I56J-75D01*
G37*
G36*
G01X1623Y2137D02*
G01X1723Y2137D01*
G03X1746Y2060I140J0D01*
G01X1597Y2060D01*
G03X1623Y2137I-103J77D01*
G37*
G36*
G01X1102Y1152D02*
G01X1102Y1112D01*
G03X1042Y1087I0J-86D01*
G01X1042Y1087D01*
G01X1042Y1176D01*
G03X1102Y1152I60J61D01*
G37*
G36*
G01X820Y1251D02*
G01X870Y1251D01*
G01X870Y1251D01*
G03X887Y1176I169J0D01*
G01X887Y1176D01*
G01X798Y1176D01*
G03X820Y1251I-121J75D01*
G37*
G36*
G01X870Y1012D02*
G01X820Y1012D01*
G03X798Y1087I-142J0D01*
G01X887Y1087D01*
G01X887Y1087D01*
G03X870Y1012I151J-75D01*
G37*
G36*
G01X1800Y2214D02*
G01X1700Y2214D01*
G03X1670Y2312I-175J0D01*
G01X1830Y2312D01*
G03X1800Y2214I145J-98D01*
G37*
G36*
G01X1473Y2259D02*
G01X1415Y2272D01*
G01X1422Y2280D01*
G01X1428Y2289D01*
G01X1433Y2298D01*
G01X1435Y2303D01*
G01X1436Y2308D01*
G01X1437Y2313D01*
G01X1438Y2318D01*
G01X1438Y2323D01*
G01X1437Y2328D01*
G01X1436Y2333D01*
G01X1434Y2338D01*
G01X1432Y2343D01*
G01X1429Y2347D01*
G01X1562Y2336D01*
G01X1547Y2323D01*
G01X1536Y2313D01*
G01X1517Y2298D01*
G01X1508Y2291D01*
G01X1498Y2283D01*
G01X1487Y2272D01*
G01X1473Y2259D01*
G37*
G36*
G01X1177Y2301D02*
G01X1149Y2329D01*
G01X1153Y2334D01*
G01X1156Y2338D01*
G01X1159Y2343D01*
G01X1161Y2347D01*
G01X1162Y2351D01*
G01X1163Y2356D01*
G01X1163Y2360D01*
G01X1163Y2364D01*
G01X1162Y2374D01*
G01X1161Y2384D01*
G01X1160Y2395D01*
G01X1160Y2407D01*
G01X1255Y2312D01*
G01X1243Y2312D01*
G01X1232Y2313D01*
G01X1222Y2314D01*
G01X1212Y2315D01*
G01X1208Y2315D01*
G01X1204Y2315D01*
G01X1199Y2314D01*
G01X1195Y2313D01*
G01X1191Y2311D01*
G01X1186Y2309D01*
G01X1182Y2305D01*
G01X1177Y2301D01*
G37*
G36*
G01X1323Y2503D02*
G01X1351Y2475D01*
G01X1347Y2470D01*
G01X1344Y2466D01*
G01X1341Y2462D01*
G01X1339Y2457D01*
G01X1338Y2453D01*
G01X1337Y2449D01*
G01X1337Y2444D01*
G01X1337Y2440D01*
G01X1338Y2431D01*
G01X1339Y2421D01*
G01X1340Y2410D01*
G01X1340Y2397D01*
G01X1245Y2492D01*
G01X1258Y2492D01*
G01X1269Y2491D01*
G01X1279Y2490D01*
G01X1288Y2489D01*
G01X1292Y2489D01*
G01X1297Y2489D01*
G01X1301Y2490D01*
G01X1305Y2491D01*
G01X1309Y2493D01*
G01X1314Y2496D01*
G01X1318Y2499D01*
G01X1323Y2503D01*
G37*
G36*
G01X1132Y952D02*
G01X1132Y912D01*
G03X1072Y890I0J-93D01*
G01X1072Y982D01*
G03X1132Y952I60J45D01*
G37*
G36*
G01X820Y1065D02*
G01X870Y1065D01*
G03X902Y990I103J0D01*
G01X902Y990D01*
G01X812Y990D01*
G03X820Y1065I-361J75D01*
G37*
G36*
G01X1530Y1664D02*
G01X1490Y1634D01*
G01X1490Y1634D01*
G03X1410Y1660I-80J-106D01*
G01X1503Y1744D01*
G03X1530Y1664I133J0D01*
G37*
G36*
G01X1428Y1980D02*
G01X1468Y1980D01*
G01X1468Y1980D01*
G03X1498Y1920I75J0D01*
G01X1398Y1920D01*
G01X1398Y1920D01*
G03X1428Y1980I-45J60D01*
G37*
G36*
G01X1739Y1360D02*
G01X1780Y1391D01*
G01X1780Y1391D01*
G03X1859Y1364I80J106D01*
G01X1859Y1364D01*
G01X1766Y1281D01*
G01X1766Y1281D01*
G03X1739Y1360I-133J0D01*
G37*
G36*
G01X1918Y1335D02*
G01X1918Y1285D01*
G03X1876Y1264I0J-53D01*
G01X1876Y1364D01*
G01X1876Y1364D01*
G03X1918Y1335I42J17D01*
G37*
G36*
G01X1691Y1129D02*
G01X1691Y1179D01*
G03X1766Y1204I0J125D01*
G01X1766Y1204D01*
G01X1766Y1104D01*
G03X1691Y1129I-75J-100D01*
G37*
G36*
G01X1282Y1585D02*
G01X1232Y1585D01*
G03X1205Y1660I-116J0D01*
G01X1315Y1660D01*
G01X1315Y1660D01*
G03X1282Y1585I71J-75D01*
G37*
G36*
G01X1235Y1995D02*
G01X1285Y1995D01*
G03X1315Y1920I109J0D01*
G01X1205Y1920D01*
G03X1235Y1995I-79J75D01*
G37*
G36*
G01X1127Y1313D02*
G01X1127Y1363D01*
G03X1202Y1368I0J565D01*
G01X1202Y1308D01*
G03X1127Y1313I-75J-560D01*
G37*
G36*
G01X1153Y1413D02*
G01X1153Y1453D01*
G03X1202Y1463I0J129D01*
G01X1202Y1463D01*
G01X1202Y1403D01*
G01X1202Y1403D01*
G03X1153Y1413I-50J-119D01*
G37*
G36*
G01X1362Y1453D02*
G01X1362Y1413D01*
G01X1362Y1413D01*
G03X1312Y1403I0J-127D01*
G01X1312Y1403D01*
G01X1312Y1463D01*
G03X1362Y1453I49J117D01*
G37*
G36*
G01X1232Y1633D02*
G01X1282Y1633D01*
G03X1312Y1558I109J0D01*
G01X1202Y1558D01*
G01X1202Y1558D01*
G03X1232Y1633I-79J75D01*
G37*
G36*
G01X1502Y1631D02*
G01X1552Y1631D01*
G03X1582Y1558I104J0D01*
G01X1472Y1558D01*
G03X1502Y1631I-74J73D01*
G37*
G36*
G01X1627Y1458D02*
G01X1627Y1408D01*
G03X1582Y1403I0J-201D01*
G01X1582Y1463D01*
G03X1627Y1458I45J196D01*
G37*
G36*
G01X1552Y1233D02*
G01X1502Y1233D01*
G03X1472Y1308I-109J0D01*
G01X1472Y1308D01*
G01X1582Y1308D01*
G01X1582Y1308D01*
G03X1552Y1233I79J-75D01*
G37*
G36*
G01X1130Y1363D02*
G01X1130Y1313D01*
G01X1130Y1313D01*
G03X1055Y1286I0J-118D01*
G01X1055Y1286D01*
G01X1055Y1396D01*
G01X1055Y1396D01*
G03X1130Y1363I75J68D01*
G37*
G36*
G01X870Y1211D02*
G01X820Y1211D01*
G03X795Y1286I-125J0D01*
G01X895Y1286D01*
G03X870Y1211I100J-75D01*
G37*
G36*
G01X820Y1471D02*
G01X870Y1471D01*
G03X895Y1396I125J0D01*
G01X795Y1396D01*
G01X795Y1396D01*
G03X820Y1471I-100J75D01*
G37*
G36*
G01X1536Y957D02*
G01X1536Y907D01*
G03X1461Y877I0J-109D01*
G01X1461Y987D01*
G03X1536Y957I75J79D01*
G37*
G36*
G01X1141Y912D02*
G01X1141Y952D01*
G03X1201Y982I0J75D01*
G01X1201Y882D01*
G03X1141Y912I-60J-45D01*
G37*
G36*
G01X1647Y1879D02*
G01X1697Y1879D01*
G03X1716Y1804I153J0D01*
G01X1627Y1804D01*
G01X1627Y1804D01*
G03X1647Y1879I-136J75D01*
G37*
G36*
G01X1697Y1640D02*
G01X1647Y1640D01*
G03X1627Y1715I-156J0D01*
G01X1627Y1715D01*
G01X1716Y1715D01*
G03X1697Y1640I133J-75D01*
G37*
G36*
G01X870Y1591D02*
G01X820Y1591D01*
G01X819Y1598D01*
G01X819Y1604D01*
G01X817Y1615D01*
G01X815Y1623D01*
G01X815Y1627D01*
G01X875Y1627D01*
G01X874Y1623D01*
G01X872Y1615D01*
G01X870Y1604D01*
G01X870Y1598D01*
G01X870Y1591D01*
G37*
G36*
G01X870Y1499D02*
G01X820Y1499D01*
G01X819Y1506D01*
G01X819Y1512D01*
G01X817Y1523D01*
G01X815Y1531D01*
G01X815Y1535D01*
G01X875Y1535D01*
G01X874Y1531D01*
G01X872Y1523D01*
G01X870Y1512D01*
G01X870Y1506D01*
G01X870Y1499D01*
G37*
G36*
G01X820Y1571D02*
G01X870Y1571D01*
G01X870Y1565D01*
G01X870Y1558D01*
G01X872Y1547D01*
G01X874Y1539D01*
G01X875Y1535D01*
G01X815Y1535D01*
G01X815Y1539D01*
G01X817Y1547D01*
G01X819Y1558D01*
G01X819Y1565D01*
G01X820Y1571D01*
G37*
G36*
G01X870Y1424D02*
G01X820Y1428D01*
G01X819Y1434D01*
G01X819Y1439D01*
G01X818Y1446D01*
G01X816Y1453D01*
G01X816Y1458D01*
G01X816Y1464D01*
G01X876Y1460D01*
G01X876Y1454D01*
G01X875Y1450D01*
G01X872Y1442D01*
G01X870Y1435D01*
G01X870Y1430D01*
G01X870Y1424D01*
G37*
G36*
G01X820Y1511D02*
G01X870Y1515D01*
G01X870Y1506D01*
G01X870Y1500D01*
G01X872Y1489D01*
G01X875Y1479D01*
G01X875Y1472D01*
G01X876Y1464D01*
G01X816Y1460D01*
G01X816Y1469D01*
G01X816Y1476D01*
G01X817Y1486D01*
G01X819Y1496D01*
G01X819Y1503D01*
G01X820Y1511D01*
G37*
G36*
G01X820Y1273D02*
G01X870Y1271D01*
G01X870Y1265D01*
G01X870Y1260D01*
G01X872Y1253D01*
G01X873Y1245D01*
G01X873Y1241D01*
G01X873Y1235D01*
G01X813Y1237D01*
G01X814Y1243D01*
G01X815Y1248D01*
G01X817Y1255D01*
G01X819Y1263D01*
G01X819Y1267D01*
G01X820Y1273D01*
G37*
G36*
G01X870Y1186D02*
G01X820Y1184D01*
G01X819Y1192D01*
G01X819Y1199D01*
G01X817Y1209D01*
G01X815Y1220D01*
G01X814Y1226D01*
G01X813Y1235D01*
G01X873Y1237D01*
G01X873Y1229D01*
G01X873Y1222D01*
G01X872Y1212D01*
G01X870Y1201D01*
G01X870Y1195D01*
G01X870Y1186D01*
G37*
G36*
G01X1529Y2590D02*
G01X1506Y2550D01*
G01X1502Y2551D01*
G01X1499Y2552D01*
G01X1495Y2554D01*
G01X1493Y2555D01*
G01X1491Y2556D01*
G01X1488Y2557D01*
G01X1485Y2556D01*
G01X1508Y2593D01*
G01X1510Y2590D01*
G01X1511Y2588D01*
G01X1513Y2588D01*
G01X1516Y2588D01*
G01X1522Y2589D01*
G01X1526Y2590D01*
G01X1529Y2590D01*
G37*
G36*
G01X1453Y2550D02*
G01X1429Y2590D01*
G01X1433Y2590D01*
G01X1436Y2589D01*
G01X1442Y2588D01*
G01X1445Y2588D01*
G01X1447Y2588D01*
G01X1449Y2590D01*
G01X1450Y2593D01*
G01X1474Y2556D01*
G01X1470Y2557D01*
G01X1468Y2556D01*
G01X1465Y2555D01*
G01X1464Y2554D01*
G01X1459Y2552D01*
G01X1457Y2551D01*
G01X1453Y2550D01*
G37*
G36*
G01X1645Y1415D02*
G02X1770Y1329I-168J-381D01*
G01X1802Y1368D01*
G01X1696Y1475D01*
G01X1647Y1638D01*
G01X1647Y1638D01*
G02X1609Y1451I-488J0D01*
G01X1609Y1451D01*
G01X1645Y1415D01*
G37*
G04 TearDrop End*

G04 Pad Start*
G54D11*
G01X1672Y1974D03*
G01X1990Y1974D03*
G54D12*
G01X998Y1132D03*
G01X843Y1132D03*
G54D13*
G01X1750Y2402D03*
G54D14*
G01X1500Y2402D03*
G01X1250Y2402D03*
G54D15*
G01X1027Y940D03*
G01X857Y940D03*
G54D16*
G01X1448Y1710D03*
G01X1448Y1870D03*
G54D17*
G01X1821Y1314D03*
G01X1821Y1154D03*
G54D16*
G01X1260Y1710D03*
G01X1260Y1870D03*
G54D19*
G01X1257Y1338D03*
G01X1257Y1433D03*
G01X1257Y1528D03*
G01X1527Y1528D03*
G01X1527Y1433D03*
G01X1527Y1338D03*
G54D20*
G01X1005Y1341D03*
G01X845Y1341D03*
G54D21*
G01X2600Y2600D03*
G01X2600Y400D03*
G01X400Y2600D03*
G01X400Y400D03*
G54D20*
G01X1411Y932D03*
G01X1251Y932D03*
G54D12*
G01X1827Y1760D03*
G01X1672Y1760D03*
G04 Pad End*

G04 Via Start*
G54D22*
G01X845Y1627D03*
G01X845Y1535D03*
G01X846Y1462D03*
G01X843Y1236D03*
G01X1479Y2586D03*
G01X1384Y2586D03*
G01X1618Y2557D03*
G01X1618Y2652D03*
G01X1269Y2574D03*
G01X1269Y2669D03*
G01X1141Y2569D03*
G01X1141Y2664D03*
G01X1728Y2625D03*
G01X1728Y2720D03*
G01X1876Y2650D03*
G01X1876Y2746D03*
G01X1429Y2681D03*
G01X1429Y2776D03*
G01X1054Y2502D03*
G01X1054Y2598D03*
G01X1978Y2620D03*
G01X1978Y2715D03*
G01X2064Y2467D03*
G01X2064Y2562D03*
G01X2126Y2283D03*
G01X2126Y2378D03*
G01X2202Y2110D03*
G01X2202Y2205D03*
G01X2299Y1998D03*
G01X2299Y2093D03*
G01X2391Y1855D03*
G01X2391Y1950D03*
G01X2421Y1646D03*
G01X2421Y1741D03*
G01X2432Y1421D03*
G01X2432Y1516D03*
G01X2426Y1212D03*
G01X2426Y1307D03*
G01X2370Y1029D03*
G01X2370Y1124D03*
G01X2294Y896D03*
G01X2294Y991D03*
G01X2207Y794D03*
G01X2207Y889D03*
G01X2110Y702D03*
G01X2110Y797D03*
G01X2008Y605D03*
G01X2008Y700D03*
G01X1922Y544D03*
G01X1922Y639D03*
G01X1825Y483D03*
G01X1825Y578D03*
G01X1728Y493D03*
G01X1728Y588D03*
G01X1626Y488D03*
G01X1626Y583D03*
G01X1508Y478D03*
G01X1508Y573D03*
G01X1386Y478D03*
G01X1386Y573D03*
G01X1258Y513D03*
G01X1258Y609D03*
G01X1156Y559D03*
G01X1156Y655D03*
G01X1049Y615D03*
G01X1049Y711D03*
G01X942Y666D03*
G01X942Y762D03*
G01X840Y738D03*
G01X840Y833D03*
G01X754Y830D03*
G01X754Y925D03*
G01X667Y988D03*
G01X667Y1083D03*
G01X611Y1192D03*
G01X611Y1287D03*
G01X585Y1406D03*
G01X585Y1501D03*
G01X590Y1620D03*
G01X590Y1715D03*
G01X661Y1811D03*
G01X661Y1906D03*
G01X743Y1967D03*
G01X743Y2062D03*
G01X840Y2105D03*
G01X840Y2200D03*
G01X958Y2237D03*
G01X958Y2332D03*
G01X1054Y2334D03*
G01X1054Y2429D03*
G01X1104Y344D03*
G01X1104Y248D03*
G01X1252Y344D03*
G01X1252Y248D03*
G01X1492Y333D03*
G01X1492Y238D03*
G01X1640Y333D03*
G01X1640Y238D03*
G01X1818Y339D03*
G01X1818Y243D03*
G01X1966Y339D03*
G01X1966Y243D03*
G01X2670Y1074D03*
G01X2766Y1074D03*
G01X2670Y1221D03*
G01X2766Y1221D03*
G01X2681Y1461D03*
G01X2776Y1461D03*
G01X2681Y1609D03*
G01X2776Y1609D03*
G01X2676Y1788D03*
G01X2771Y1788D03*
G01X2676Y1936D03*
G01X2771Y1936D03*
G01X222Y1109D03*
G01X318Y1109D03*
G01X222Y1257D03*
G01X318Y1257D03*
G01X233Y1497D03*
G01X328Y1497D03*
G01X233Y1645D03*
G01X328Y1645D03*
G01X228Y1823D03*
G01X323Y1823D03*
G01X228Y1971D03*
G01X323Y1971D03*
G04 Via End*

G04 Track Start*
G54D23*
G01X1527Y1433D02*
G01X1627Y1433D01*
G01X1672Y1478D01*
G01X1821Y1314D02*
G01X1672Y1463D01*
G01X1672Y1478D01*
G01X1527Y1338D02*
G01X1527Y1227D01*
G01X1600Y1154D01*
G01X1821Y1154D01*
G01X1825Y1310D02*
G01X1821Y1314D01*
G01X1918Y1310D02*
G01X1825Y1310D01*
G01X1984Y1244D02*
G01X1918Y1310D01*
G01X1411Y932D02*
G01X1855Y932D01*
G01X1984Y1061D01*
G01X1984Y1244D01*
G54D24*
G01X1673Y1975D02*
G01X1672Y1974D01*
G54D23*
G01X1257Y1338D02*
G01X1008Y1338D01*
G01X1005Y1341D01*
G01X845Y952D02*
G01X857Y940D01*
G01X1257Y1528D02*
G01X1257Y1708D01*
G01X1260Y1710D01*
G01X1527Y1528D02*
G01X1527Y1631D01*
G01X1448Y1710D01*
G01X1260Y2081D02*
G01X1260Y1870D01*
G01X845Y1341D02*
G01X845Y952D01*
G01X1672Y1948D02*
G01X1672Y1760D01*
G01X1672Y1478D01*
G01X1500Y2321D02*
G01X1260Y2081D01*
G01X1500Y2402D02*
G01X1500Y2321D01*
G01X845Y1535D02*
G01X845Y1627D01*
G01X845Y1341D02*
G01X845Y1535D01*
G54D24*
G01X1750Y2377D02*
G01X1750Y2214D01*
G01X1673Y2137D01*
G01X1673Y1975D01*
G54D25*
G01X1448Y1870D02*
G01X1448Y2117D01*
G01X1545Y2570D02*
G01X1418Y2570D01*
G01X1250Y2402D01*
G01X1448Y2117D02*
G01X1627Y2295D01*
G01X1627Y2489D01*
G01X1545Y2570D01*
G01X1257Y1433D02*
G01X1362Y1433D01*
G01X1403Y1392D01*
G01X1403Y1275D01*
G01X1259Y1132D01*
G01X998Y1132D01*
G01X1257Y1433D02*
G01X1153Y1433D01*
G01X1051Y2203D02*
G01X1250Y2402D01*
G01X1153Y1433D02*
G01X1051Y1535D01*
G01X1051Y2203D01*
G01X1251Y932D02*
G01X1035Y932D01*
G01X1027Y940D01*
G04 Track End*

M02*

