G04 Layer: TopSilkscreenLayer*
G04 EasyEDA Pro v2.2.32.3, 2025-07-18 16:49:07*
G04 Gerber Generator version 0.3*
G04 Scale: 100 percent, Rotated: No, Reflected: No*
G04 Dimensions in millimeters*
G04 Leading zeros omitted, absolute positions, 4 integers and 2 decimals*
%FSLAX42Y42*%
%MOMM*%
%ADD10C,0.12*%
%ADD11C,0.15*%
%ADD12C,0.2*%
%ADD13C,0.25*%
G75*


G04 Text Start*
G54D10*
G01X2208Y1937D02*
G01X2205Y1945D01*
G01X2197Y1952D01*
G01X2190Y1955D01*
G01X2175Y1955D01*
G01X2168Y1952D01*
G01X2161Y1945D01*
G01X2157Y1937D01*
G01X2153Y1926D01*
G01X2153Y1907D01*
G01X2157Y1897D01*
G01X2161Y1889D01*
G01X2168Y1882D01*
G01X2175Y1878D01*
G01X2190Y1878D01*
G01X2197Y1882D01*
G01X2205Y1889D01*
G01X2208Y1897D01*
G01X2242Y1937D02*
G01X2242Y1941D01*
G01X2245Y1948D01*
G01X2249Y1952D01*
G01X2257Y1955D01*
G01X2271Y1955D01*
G01X2279Y1952D01*
G01X2282Y1948D01*
G01X2286Y1941D01*
G01X2286Y1933D01*
G01X2282Y1926D01*
G01X2275Y1915D01*
G01X2238Y1878D01*
G01X2290Y1878D01*
G01X1185Y1146D02*
G01X1182Y1154D01*
G01X1174Y1161D01*
G01X1167Y1164D01*
G01X1152Y1164D01*
G01X1145Y1161D01*
G01X1138Y1154D01*
G01X1134Y1146D01*
G01X1130Y1135D01*
G01X1130Y1116D01*
G01X1134Y1106D01*
G01X1138Y1098D01*
G01X1145Y1091D01*
G01X1152Y1087D01*
G01X1167Y1087D01*
G01X1174Y1091D01*
G01X1182Y1098D01*
G01X1185Y1106D01*
G01X1215Y1150D02*
G01X1222Y1154D01*
G01X1234Y1164D01*
G01X1234Y1087D01*
G01X1459Y2921D02*
G01X1455Y2929D01*
G01X1448Y2936D01*
G01X1440Y2940D01*
G01X1426Y2940D01*
G01X1418Y2936D01*
G01X1411Y2929D01*
G01X1407Y2921D01*
G01X1404Y2910D01*
G01X1404Y2892D01*
G01X1407Y2881D01*
G01X1411Y2873D01*
G01X1418Y2866D01*
G01X1426Y2862D01*
G01X1440Y2862D01*
G01X1448Y2866D01*
G01X1455Y2873D01*
G01X1459Y2881D01*
G01X1488Y2940D02*
G01X1488Y2862D01*
G01X1488Y2940D02*
G01X1540Y2862D01*
G01X1540Y2940D02*
G01X1540Y2862D01*
G01X1570Y2925D02*
G01X1577Y2929D01*
G01X1588Y2940D01*
G01X1588Y2862D01*
G01X990Y828D02*
G01X990Y751D01*
G01X990Y828D02*
G01X1016Y828D01*
G01X1027Y825D01*
G01X1035Y817D01*
G01X1038Y810D01*
G01X1042Y799D01*
G01X1042Y780D01*
G01X1038Y769D01*
G01X1035Y762D01*
G01X1027Y755D01*
G01X1016Y751D01*
G01X990Y751D01*
G01X1072Y814D02*
G01X1079Y817D01*
G01X1090Y828D01*
G01X1090Y751D01*
G01X1022Y1891D02*
G01X945Y1891D01*
G01X1022Y1891D02*
G01X1022Y1858D01*
G01X1019Y1847D01*
G01X1015Y1843D01*
G01X1007Y1840D01*
G01X1000Y1840D01*
G01X993Y1843D01*
G01X989Y1847D01*
G01X985Y1858D01*
G01X985Y1891D01*
G01X985Y1865D02*
G01X945Y1840D01*
G01X1004Y1806D02*
G01X1007Y1806D01*
G01X1015Y1802D01*
G01X1019Y1799D01*
G01X1022Y1791D01*
G01X1022Y1777D01*
G01X1019Y1769D01*
G01X1015Y1766D01*
G01X1007Y1762D01*
G01X1000Y1762D01*
G01X993Y1766D01*
G01X981Y1773D01*
G01X945Y1810D01*
G01X945Y1758D01*
G01X1949Y1252D02*
G01X1949Y1174D01*
G01X1949Y1252D02*
G01X1982Y1252D01*
G01X1993Y1248D01*
G01X1997Y1244D01*
G01X2001Y1237D01*
G01X2001Y1230D01*
G01X1997Y1222D01*
G01X1993Y1218D01*
G01X1982Y1215D01*
G01X1949Y1215D01*
G01X1975Y1215D02*
G01X2001Y1174D01*
G01X2075Y1252D02*
G01X2038Y1252D01*
G01X2034Y1218D01*
G01X2038Y1222D01*
G01X2049Y1226D01*
G01X2060Y1226D01*
G01X2071Y1222D01*
G01X2079Y1215D01*
G01X2082Y1204D01*
G01X2082Y1196D01*
G01X2079Y1185D01*
G01X2071Y1178D01*
G01X2060Y1174D01*
G01X2049Y1174D01*
G01X2038Y1178D01*
G01X2034Y1182D01*
G01X2031Y1189D01*
G01X1150Y1891D02*
G01X1072Y1891D01*
G01X1150Y1891D02*
G01X1150Y1858D01*
G01X1146Y1847D01*
G01X1142Y1843D01*
G01X1135Y1840D01*
G01X1128Y1840D01*
G01X1120Y1843D01*
G01X1116Y1847D01*
G01X1113Y1858D01*
G01X1113Y1891D01*
G01X1113Y1865D02*
G01X1072Y1840D01*
G01X1150Y1802D02*
G01X1150Y1762D01*
G01X1120Y1784D01*
G01X1120Y1773D01*
G01X1116Y1766D01*
G01X1113Y1762D01*
G01X1102Y1758D01*
G01X1094Y1758D01*
G01X1083Y1762D01*
G01X1076Y1769D01*
G01X1072Y1780D01*
G01X1072Y1791D01*
G01X1076Y1802D01*
G01X1080Y1806D01*
G01X1087Y1810D01*
G01X1659Y1563D02*
G01X1659Y1507D01*
G01X1662Y1496D01*
G01X1669Y1489D01*
G01X1681Y1485D01*
G01X1688Y1485D01*
G01X1699Y1489D01*
G01X1706Y1496D01*
G01X1710Y1507D01*
G01X1710Y1563D01*
G01X1740Y1548D02*
G01X1747Y1552D01*
G01X1758Y1563D01*
G01X1758Y1485D01*
G01X603Y1384D02*
G01X603Y1307D01*
G01X603Y1384D02*
G01X636Y1384D01*
G01X647Y1381D01*
G01X651Y1377D01*
G01X654Y1370D01*
G01X654Y1362D01*
G01X651Y1355D01*
G01X647Y1351D01*
G01X636Y1347D01*
G01X603Y1347D01*
G01X628Y1347D02*
G01X654Y1307D01*
G01X721Y1384D02*
G01X684Y1333D01*
G01X739Y1333D01*
G01X721Y1384D02*
G01X721Y1307D01*
G01X1200Y813D02*
G01X1200Y736D01*
G01X1200Y813D02*
G01X1233Y813D01*
G01X1244Y809D01*
G01X1247Y806D01*
G01X1251Y798D01*
G01X1251Y791D01*
G01X1247Y784D01*
G01X1244Y780D01*
G01X1233Y776D01*
G01X1200Y776D01*
G01X1225Y776D02*
G01X1251Y736D01*
G01X1281Y798D02*
G01X1288Y802D01*
G01X1299Y813D01*
G01X1299Y736D01*
G01X2015Y1789D02*
G01X2011Y1797D01*
G01X2004Y1804D01*
G01X1996Y1808D01*
G01X1982Y1808D01*
G01X1974Y1804D01*
G01X1967Y1797D01*
G01X1963Y1789D01*
G01X1959Y1778D01*
G01X1959Y1760D01*
G01X1963Y1749D01*
G01X1967Y1741D01*
G01X1974Y1734D01*
G01X1982Y1730D01*
G01X1996Y1730D01*
G01X2004Y1734D01*
G01X2011Y1741D01*
G01X2015Y1749D01*
G01X2052Y1808D02*
G01X2092Y1808D01*
G01X2070Y1778D01*
G01X2081Y1778D01*
G01X2088Y1774D01*
G01X2092Y1771D01*
G01X2096Y1760D01*
G01X2096Y1752D01*
G01X2092Y1741D01*
G01X2085Y1734D01*
G01X2074Y1730D01*
G01X2063Y1730D01*
G01X2052Y1734D01*
G01X2048Y1737D01*
G01X2044Y1745D01*
G36*
G01X927Y2310D02*
G01X925Y2310D01*
G01X921Y2311D01*
G01X919Y2311D01*
G01X917Y2312D01*
G01X915Y2313D01*
G01X911Y2315D01*
G01X909Y2316D01*
G01X908Y2317D01*
G01X905Y2319D01*
G01X901Y2323D01*
G01X900Y2325D01*
G01X899Y2326D01*
G01X898Y2327D01*
G01X897Y2329D01*
G01X896Y2330D01*
G01X895Y2332D01*
G01X895Y2333D01*
G01X894Y2335D01*
G01X893Y2339D01*
G01X892Y2342D01*
G01X892Y2346D01*
G01X891Y2348D01*
G01X892Y2350D01*
G01X892Y2352D01*
G01X892Y2354D01*
G01X892Y2357D01*
G01X893Y2359D01*
G01X893Y2361D01*
G01X894Y2364D01*
G01X897Y2369D01*
G01X897Y2371D01*
G01X899Y2374D01*
G01X900Y2375D01*
G01X901Y2376D01*
G01X903Y2379D01*
G01X907Y2383D01*
G01X909Y2384D01*
G01X910Y2385D01*
G01X912Y2386D01*
G01X913Y2387D01*
G01X915Y2388D01*
G01X917Y2389D01*
G01X918Y2390D01*
G01X922Y2391D01*
G01X926Y2392D01*
G01X929Y2392D01*
G01X932Y2392D01*
G01X936Y2392D01*
G01X939Y2392D01*
G01X941Y2391D01*
G01X943Y2391D01*
G01X945Y2390D01*
G01X946Y2390D01*
G01X950Y2389D01*
G01X953Y2388D01*
G01X955Y2387D01*
G01X957Y2387D01*
G01X958Y2388D01*
G01X959Y2389D01*
G01X959Y2391D01*
G01X959Y2392D01*
G01X960Y2392D01*
G01X961Y2392D01*
G01X961Y2391D01*
G01X961Y2390D01*
G01X962Y2381D01*
G01X962Y2377D01*
G01X963Y2372D01*
G01X963Y2370D01*
G01X963Y2368D01*
G01X963Y2367D01*
G01X962Y2367D01*
G01X961Y2367D01*
G01X960Y2369D01*
G01X959Y2371D01*
G01X957Y2376D01*
G01X956Y2377D01*
G01X955Y2378D01*
G01X955Y2379D01*
G01X952Y2382D01*
G01X950Y2384D01*
G01X949Y2384D01*
G01X947Y2385D01*
G01X945Y2386D01*
G01X944Y2387D01*
G01X942Y2387D01*
G01X941Y2388D01*
G01X938Y2388D01*
G01X935Y2388D01*
G01X933Y2388D01*
G01X932Y2388D01*
G01X929Y2388D01*
G01X927Y2387D01*
G01X924Y2386D01*
G01X923Y2386D01*
G01X921Y2385D01*
G01X919Y2384D01*
G01X918Y2383D01*
G01X917Y2382D01*
G01X916Y2382D01*
G01X915Y2380D01*
G01X914Y2379D01*
G01X913Y2378D01*
G01X913Y2378D01*
G01X912Y2376D01*
G01X911Y2374D01*
G01X910Y2373D01*
G01X909Y2372D01*
G01X908Y2370D01*
G01X907Y2368D01*
G01X906Y2364D01*
G01X905Y2360D01*
G01X905Y2356D01*
G01X905Y2353D01*
G01X905Y2349D01*
G01X905Y2345D01*
G01X906Y2341D01*
G01X907Y2337D01*
G01X908Y2335D01*
G01X909Y2331D01*
G01X911Y2329D01*
G01X912Y2327D01*
G01X914Y2323D01*
G01X915Y2322D01*
G01X917Y2320D01*
G01X920Y2318D01*
G01X922Y2316D01*
G01X924Y2316D01*
G01X925Y2315D01*
G01X927Y2314D01*
G01X929Y2314D01*
G01X931Y2313D01*
G01X932Y2313D01*
G01X934Y2313D01*
G01X936Y2313D01*
G01X938Y2313D01*
G01X940Y2313D01*
G01X944Y2314D01*
G01X946Y2315D01*
G01X948Y2315D01*
G01X949Y2316D01*
G01X951Y2317D01*
G01X952Y2317D01*
G01X952Y2331D01*
G01X952Y2345D01*
G01X951Y2347D01*
G01X951Y2348D01*
G01X950Y2350D01*
G01X948Y2351D01*
G01X947Y2352D01*
G01X944Y2352D01*
G01X943Y2352D01*
G01X942Y2352D01*
G01X942Y2354D01*
G01X972Y2354D01*
G01X972Y2353D01*
G01X972Y2353D01*
G01X972Y2352D01*
G01X970Y2352D01*
G01X968Y2352D01*
G01X967Y2351D01*
G01X965Y2350D01*
G01X964Y2348D01*
G01X964Y2346D01*
G01X963Y2331D01*
G01X963Y2316D01*
G01X962Y2315D01*
G01X959Y2314D01*
G01X957Y2313D01*
G01X955Y2312D01*
G01X953Y2312D01*
G01X951Y2311D01*
G01X949Y2310D01*
G01X945Y2310D01*
G01X942Y2309D01*
G01X935Y2309D01*
G01X928Y2309D01*
G01X927Y2310D01*
G37*
G36*
G01X1063Y2313D02*
G01X1064Y2313D01*
G01X1066Y2313D01*
G01X1068Y2313D01*
G01X1071Y2314D01*
G01X1072Y2315D01*
G01X1073Y2316D01*
G01X1073Y2318D01*
G01X1074Y2319D01*
G01X1074Y2349D01*
G01X1074Y2381D01*
G01X1073Y2383D01*
G01X1073Y2384D01*
G01X1085Y2384D01*
G01X1085Y2351D01*
G01X1085Y2317D01*
G01X1086Y2316D01*
G01X1090Y2316D01*
G01X1092Y2315D01*
G01X1093Y2315D01*
G01X1097Y2315D01*
G01X1097Y2315D01*
G01X1102Y2315D01*
G01X1103Y2315D01*
G01X1105Y2316D01*
G01X1107Y2316D01*
G01X1109Y2317D01*
G01X1111Y2318D01*
G01X1113Y2318D01*
G01X1115Y2320D01*
G01X1116Y2320D01*
G01X1117Y2321D01*
G01X1118Y2322D01*
G01X1122Y2326D01*
G01X1122Y2327D01*
G01X1124Y2329D01*
G01X1125Y2330D01*
G01X1126Y2332D01*
G01X1127Y2334D01*
G01X1127Y2336D01*
G01X1128Y2338D01*
G01X1128Y2340D01*
G01X1129Y2342D01*
G01X1129Y2345D01*
G01X1129Y2350D01*
G01X1129Y2355D01*
G01X1129Y2358D01*
G01X1128Y2362D01*
G01X1128Y2363D01*
G01X1127Y2365D01*
G01X1126Y2367D01*
G01X1126Y2369D01*
G01X1125Y2370D01*
G01X1124Y2372D01*
G01X1123Y2373D01*
G01X1122Y2374D01*
G01X1120Y2377D01*
G01X1118Y2379D01*
G01X1117Y2380D01*
G01X1115Y2381D01*
G01X1114Y2382D01*
G01X1112Y2383D01*
G01X1109Y2384D01*
G01X1107Y2385D01*
G01X1104Y2385D01*
G01X1101Y2386D01*
G01X1098Y2386D01*
G01X1095Y2386D01*
G01X1093Y2386D01*
G01X1092Y2385D01*
G01X1085Y2384D01*
G01X1073Y2384D01*
G01X1073Y2384D01*
G01X1072Y2386D01*
G01X1071Y2386D01*
G01X1070Y2387D01*
G01X1069Y2388D01*
G01X1065Y2388D01*
G01X1063Y2388D01*
G01X1063Y2390D01*
G01X1081Y2390D01*
G01X1101Y2390D01*
G01X1103Y2390D01*
G01X1106Y2390D01*
G01X1109Y2389D01*
G01X1112Y2389D01*
G01X1115Y2388D01*
G01X1118Y2388D01*
G01X1120Y2387D01*
G01X1122Y2386D01*
G01X1123Y2386D01*
G01X1125Y2385D01*
G01X1126Y2384D01*
G01X1127Y2383D01*
G01X1128Y2383D01*
G01X1131Y2381D01*
G01X1133Y2378D01*
G01X1134Y2377D01*
G01X1135Y2375D01*
G01X1136Y2374D01*
G01X1137Y2372D01*
G01X1138Y2371D01*
G01X1139Y2370D01*
G01X1139Y2368D01*
G01X1140Y2366D01*
G01X1141Y2364D01*
G01X1141Y2362D01*
G01X1142Y2358D01*
G01X1143Y2355D01*
G01X1143Y2352D01*
G01X1143Y2349D01*
G01X1142Y2347D01*
G01X1142Y2345D01*
G01X1142Y2343D01*
G01X1141Y2341D01*
G01X1141Y2339D01*
G01X1141Y2338D01*
G01X1140Y2336D01*
G01X1139Y2334D01*
G01X1139Y2333D01*
G01X1138Y2332D01*
G01X1138Y2331D01*
G01X1137Y2329D01*
G01X1136Y2328D01*
G01X1134Y2325D01*
G01X1133Y2324D01*
G01X1129Y2320D01*
G01X1128Y2319D01*
G01X1127Y2318D01*
G01X1126Y2318D01*
G01X1124Y2317D01*
G01X1123Y2316D01*
G01X1121Y2315D01*
G01X1119Y2314D01*
G01X1114Y2313D01*
G01X1113Y2312D01*
G01X1109Y2312D01*
G01X1105Y2311D01*
G01X1084Y2311D01*
G01X1063Y2311D01*
G01X1063Y2312D01*
G01X1063Y2313D01*
G37*
G36*
G01X1044Y2311D02*
G01X1043Y2312D01*
G01X1042Y2314D01*
G01X1040Y2316D01*
G01X1039Y2318D01*
G01X1037Y2320D01*
G01X1035Y2322D01*
G01X1032Y2327D01*
G01X1030Y2328D01*
G01X1028Y2331D01*
G01X1027Y2332D01*
G01X1025Y2335D01*
G01X1024Y2336D01*
G01X1022Y2339D01*
G01X1020Y2340D01*
G01X1019Y2343D01*
G01X1017Y2344D01*
G01X1015Y2347D01*
G01X1014Y2348D01*
G01X1012Y2351D01*
G01X1011Y2352D01*
G01X1009Y2355D01*
G01X1007Y2356D01*
G01X1005Y2359D01*
G01X1004Y2360D01*
G01X1002Y2363D01*
G01X1001Y2364D01*
G01X999Y2367D01*
G01X997Y2368D01*
G01X995Y2372D01*
G01X994Y2373D01*
G01X993Y2366D01*
G01X993Y2347D01*
G01X993Y2320D01*
G01X994Y2318D01*
G01X994Y2316D01*
G01X995Y2315D01*
G01X996Y2314D01*
G01X998Y2314D01*
G01X999Y2313D01*
G01X1000Y2313D01*
G01X1003Y2313D01*
G01X1005Y2313D01*
G01X1005Y2311D01*
G01X977Y2311D01*
G01X977Y2312D01*
G01X977Y2313D01*
G01X978Y2313D01*
G01X980Y2313D01*
G01X981Y2313D01*
G01X983Y2313D01*
G01X984Y2314D01*
G01X985Y2315D01*
G01X986Y2315D01*
G01X987Y2317D01*
G01X988Y2318D01*
G01X988Y2323D01*
G01X988Y2351D01*
G01X988Y2380D01*
G01X987Y2381D01*
G01X986Y2382D01*
G01X985Y2383D01*
G01X984Y2384D01*
G01X983Y2385D01*
G01X981Y2386D01*
G01X979Y2387D01*
G01X978Y2388D01*
G01X977Y2388D01*
G01X974Y2388D01*
G01X973Y2388D01*
G01X973Y2390D01*
G01X983Y2390D01*
G01X993Y2390D01*
G01X994Y2390D01*
G01X996Y2388D01*
G01X997Y2386D01*
G01X999Y2384D01*
G01X1000Y2382D01*
G01X1002Y2380D01*
G01X1005Y2376D01*
G01X1007Y2374D01*
G01X1008Y2372D01*
G01X1010Y2370D01*
G01X1013Y2367D01*
G01X1015Y2364D01*
G01X1016Y2363D01*
G01X1018Y2360D01*
G01X1021Y2357D01*
G01X1023Y2355D01*
G01X1024Y2353D01*
G01X1026Y2351D01*
G01X1029Y2347D01*
G01X1031Y2345D01*
G01X1032Y2343D01*
G01X1034Y2341D01*
G01X1036Y2339D01*
G01X1037Y2337D01*
G01X1041Y2332D01*
G01X1042Y2332D01*
G01X1042Y2338D01*
G01X1042Y2356D01*
G01X1042Y2381D01*
G01X1042Y2383D01*
G01X1041Y2385D01*
G01X1040Y2386D01*
G01X1039Y2387D01*
G01X1037Y2388D01*
G01X1035Y2388D01*
G01X1032Y2388D01*
G01X1031Y2389D01*
G01X1031Y2389D01*
G01X1031Y2390D01*
G01X1059Y2390D01*
G01X1059Y2388D01*
G01X1057Y2388D01*
G01X1054Y2388D01*
G01X1052Y2387D01*
G01X1051Y2387D01*
G01X1049Y2386D01*
G01X1049Y2385D01*
G01X1048Y2383D01*
G01X1048Y2378D01*
G01X1047Y2344D01*
G01X1047Y2310D01*
G01X1047Y2310D01*
G01X1045Y2310D01*
G01X1044Y2311D01*
G37*
G36*
G01X1364Y2200D02*
G01X1364Y2201D01*
G01X1367Y2201D01*
G01X1369Y2201D01*
G01X1371Y2202D01*
G01X1372Y2202D01*
G01X1373Y2203D01*
G01X1374Y2205D01*
G01X1375Y2206D01*
G01X1375Y2237D01*
G01X1375Y2269D01*
G01X1374Y2271D01*
G01X1374Y2272D01*
G01X1374Y2272D01*
G01X1386Y2272D01*
G01X1386Y2239D01*
G01X1387Y2239D01*
G01X1388Y2239D01*
G01X1390Y2238D01*
G01X1392Y2238D01*
G01X1395Y2238D01*
G01X1395Y2238D01*
G01X1398Y2238D01*
G01X1400Y2239D01*
G01X1402Y2240D01*
G01X1403Y2240D01*
G01X1405Y2241D01*
G01X1407Y2244D01*
G01X1408Y2245D01*
G01X1409Y2246D01*
G01X1410Y2248D01*
G01X1410Y2250D01*
G01X1411Y2253D01*
G01X1411Y2254D01*
G01X1411Y2256D01*
G01X1410Y2259D01*
G01X1410Y2261D01*
G01X1409Y2263D01*
G01X1409Y2264D01*
G01X1408Y2266D01*
G01X1407Y2267D01*
G01X1406Y2269D01*
G01X1405Y2270D01*
G01X1404Y2271D01*
G01X1402Y2272D01*
G01X1400Y2272D01*
G01X1399Y2273D01*
G01X1397Y2273D01*
G01X1395Y2273D01*
G01X1391Y2273D01*
G01X1389Y2273D01*
G01X1387Y2272D01*
G01X1386Y2272D01*
G01X1374Y2272D01*
G01X1373Y2273D01*
G01X1372Y2274D01*
G01X1371Y2275D01*
G01X1370Y2276D01*
G01X1366Y2276D01*
G01X1364Y2276D01*
G01X1364Y2278D01*
G01X1380Y2278D01*
G01X1397Y2278D01*
G01X1401Y2278D01*
G01X1406Y2277D01*
G01X1407Y2276D01*
G01X1409Y2276D01*
G01X1412Y2274D01*
G01X1414Y2274D01*
G01X1415Y2273D01*
G01X1416Y2272D01*
G01X1417Y2271D01*
G01X1420Y2269D01*
G01X1421Y2267D01*
G01X1422Y2266D01*
G01X1422Y2264D01*
G01X1423Y2262D01*
G01X1424Y2260D01*
G01X1424Y2256D01*
G01X1424Y2253D01*
G01X1423Y2251D01*
G01X1423Y2249D01*
G01X1422Y2247D01*
G01X1421Y2246D01*
G01X1420Y2244D01*
G01X1420Y2243D01*
G01X1418Y2241D01*
G01X1416Y2239D01*
G01X1415Y2238D01*
G01X1414Y2237D01*
G01X1412Y2237D01*
G01X1410Y2236D01*
G01X1409Y2235D01*
G01X1406Y2235D01*
G01X1401Y2234D01*
G01X1400Y2234D01*
G01X1399Y2234D01*
G01X1396Y2234D01*
G01X1394Y2235D01*
G01X1391Y2235D01*
G01X1389Y2235D01*
G01X1387Y2236D01*
G01X1386Y2236D01*
G01X1386Y2223D01*
G01X1386Y2209D01*
G01X1387Y2207D01*
G01X1387Y2204D01*
G01X1388Y2203D01*
G01X1389Y2202D01*
G01X1390Y2201D01*
G01X1392Y2201D01*
G01X1393Y2201D01*
G01X1396Y2201D01*
G01X1398Y2201D01*
G01X1398Y2199D01*
G01X1364Y2199D01*
G01X1364Y2200D01*
G01X1364Y2200D01*
G37*
G36*
G01X1493Y2198D02*
G01X1491Y2198D01*
G01X1489Y2198D01*
G01X1488Y2199D01*
G01X1486Y2200D01*
G01X1485Y2201D01*
G01X1484Y2201D01*
G01X1482Y2203D01*
G01X1479Y2206D01*
G01X1478Y2207D01*
G01X1476Y2210D01*
G01X1476Y2211D01*
G01X1475Y2212D01*
G01X1474Y2214D01*
G01X1474Y2216D01*
G01X1473Y2217D01*
G01X1473Y2219D01*
G01X1472Y2222D01*
G01X1472Y2223D01*
G01X1472Y2226D01*
G01X1473Y2229D01*
G01X1473Y2231D01*
G01X1483Y2231D01*
G01X1483Y2226D01*
G01X1484Y2223D01*
G01X1484Y2221D01*
G01X1484Y2219D01*
G01X1485Y2217D01*
G01X1486Y2214D01*
G01X1486Y2213D01*
G01X1487Y2211D01*
G01X1488Y2209D01*
G01X1489Y2208D01*
G01X1490Y2207D01*
G01X1491Y2205D01*
G01X1493Y2203D01*
G01X1494Y2202D01*
G01X1496Y2202D01*
G01X1498Y2201D01*
G01X1499Y2201D01*
G01X1500Y2201D01*
G01X1500Y2201D01*
G01X1503Y2202D01*
G01X1504Y2202D01*
G01X1506Y2202D01*
G01X1507Y2203D01*
G01X1508Y2204D01*
G01X1510Y2206D01*
G01X1510Y2207D01*
G01X1511Y2208D01*
G01X1512Y2210D01*
G01X1512Y2212D01*
G01X1513Y2215D01*
G01X1513Y2220D01*
G01X1513Y2221D01*
G01X1513Y2222D01*
G01X1513Y2228D01*
G01X1512Y2231D01*
G01X1512Y2232D01*
G01X1512Y2235D01*
G01X1510Y2238D01*
G01X1510Y2240D01*
G01X1509Y2241D01*
G01X1508Y2243D01*
G01X1507Y2244D01*
G01X1506Y2246D01*
G01X1504Y2248D01*
G01X1503Y2248D01*
G01X1501Y2249D01*
G01X1499Y2250D01*
G01X1497Y2250D01*
G01X1495Y2250D01*
G01X1493Y2250D01*
G01X1492Y2249D01*
G01X1489Y2248D01*
G01X1488Y2247D01*
G01X1487Y2245D01*
G01X1486Y2243D01*
G01X1485Y2242D01*
G01X1485Y2241D01*
G01X1484Y2239D01*
G01X1484Y2238D01*
G01X1483Y2235D01*
G01X1483Y2231D01*
G01X1473Y2231D01*
G01X1473Y2231D01*
G01X1474Y2233D01*
G01X1474Y2236D01*
G01X1475Y2237D01*
G01X1476Y2239D01*
G01X1477Y2241D01*
G01X1478Y2243D01*
G01X1479Y2244D01*
G01X1480Y2246D01*
G01X1482Y2248D01*
G01X1483Y2249D01*
G01X1485Y2250D01*
G01X1486Y2251D01*
G01X1488Y2252D01*
G01X1491Y2253D01*
G01X1492Y2253D01*
G01X1494Y2254D01*
G01X1497Y2254D01*
G01X1502Y2254D01*
G01X1504Y2253D01*
G01X1506Y2253D01*
G01X1508Y2252D01*
G01X1510Y2251D01*
G01X1511Y2250D01*
G01X1513Y2249D01*
G01X1514Y2249D01*
G01X1515Y2248D01*
G01X1517Y2246D01*
G01X1518Y2244D01*
G01X1519Y2243D01*
G01X1520Y2241D01*
G01X1521Y2240D01*
G01X1522Y2238D01*
G01X1522Y2236D01*
G01X1523Y2235D01*
G01X1524Y2231D01*
G01X1524Y2228D01*
G01X1524Y2223D01*
G01X1523Y2221D01*
G01X1523Y2219D01*
G01X1523Y2218D01*
G01X1522Y2216D01*
G01X1521Y2214D01*
G01X1521Y2212D01*
G01X1519Y2209D01*
G01X1518Y2208D01*
G01X1517Y2206D01*
G01X1516Y2204D01*
G01X1514Y2203D01*
G01X1513Y2202D01*
G01X1512Y2201D01*
G01X1510Y2200D01*
G01X1509Y2200D01*
G01X1508Y2199D01*
G01X1506Y2198D01*
G01X1504Y2198D01*
G01X1503Y2198D01*
G01X1500Y2197D01*
G01X1497Y2197D01*
G01X1494Y2197D01*
G01X1493Y2198D01*
G37*
G36*
G01X1430Y2200D02*
G01X1430Y2200D01*
G01X1431Y2201D01*
G01X1433Y2201D01*
G01X1434Y2201D01*
G01X1436Y2202D01*
G01X1437Y2203D01*
G01X1438Y2205D01*
G01X1438Y2222D01*
G01X1438Y2240D01*
G01X1438Y2243D01*
G01X1437Y2245D01*
G01X1436Y2246D01*
G01X1434Y2246D01*
G01X1431Y2246D01*
G01X1430Y2246D01*
G01X1429Y2246D01*
G01X1429Y2246D01*
G01X1430Y2247D01*
G01X1431Y2248D01*
G01X1436Y2250D01*
G01X1438Y2251D01*
G01X1441Y2252D01*
G01X1443Y2253D01*
G01X1444Y2253D01*
G01X1446Y2254D01*
G01X1448Y2254D01*
G01X1448Y2248D01*
G01X1448Y2244D01*
G01X1448Y2242D01*
G01X1449Y2243D01*
G01X1450Y2245D01*
G01X1450Y2246D01*
G01X1451Y2247D01*
G01X1452Y2248D01*
G01X1453Y2249D01*
G01X1454Y2250D01*
G01X1456Y2252D01*
G01X1457Y2253D01*
G01X1459Y2253D01*
G01X1461Y2254D01*
G01X1464Y2253D01*
G01X1466Y2253D01*
G01X1467Y2252D01*
G01X1468Y2251D01*
G01X1469Y2249D01*
G01X1469Y2248D01*
G01X1469Y2246D01*
G01X1468Y2244D01*
G01X1467Y2243D01*
G01X1466Y2242D01*
G01X1465Y2242D01*
G01X1463Y2242D01*
G01X1461Y2243D01*
G01X1460Y2244D01*
G01X1458Y2245D01*
G01X1457Y2246D01*
G01X1455Y2246D01*
G01X1454Y2245D01*
G01X1453Y2245D01*
G01X1452Y2244D01*
G01X1451Y2243D01*
G01X1449Y2240D01*
G01X1449Y2239D01*
G01X1448Y2238D01*
G01X1448Y2224D01*
G01X1448Y2211D01*
G01X1448Y2207D01*
G01X1448Y2206D01*
G01X1449Y2204D01*
G01X1451Y2202D01*
G01X1453Y2201D01*
G01X1455Y2201D01*
G01X1456Y2201D01*
G01X1457Y2200D01*
G01X1457Y2200D01*
G01X1457Y2199D01*
G01X1443Y2199D01*
G01X1433Y2199D01*
G01X1430Y2200D01*
G01X1430Y2200D01*
G37*
G36*
G01X1550Y2198D02*
G01X1549Y2198D01*
G01X1547Y2199D01*
G01X1545Y2199D01*
G01X1544Y2200D01*
G01X1541Y2202D01*
G01X1538Y2203D01*
G01X1537Y2204D01*
G01X1537Y2224D01*
G01X1547Y2224D01*
G01X1547Y2207D01*
G01X1548Y2206D01*
G01X1549Y2205D01*
G01X1550Y2204D01*
G01X1551Y2204D01*
G01X1552Y2203D01*
G01X1554Y2202D01*
G01X1556Y2202D01*
G01X1556Y2202D01*
G01X1559Y2201D01*
G01X1559Y2201D01*
G01X1561Y2202D01*
G01X1563Y2202D01*
G01X1564Y2203D01*
G01X1566Y2204D01*
G01X1567Y2204D01*
G01X1568Y2205D01*
G01X1569Y2207D01*
G01X1571Y2209D01*
G01X1572Y2210D01*
G01X1572Y2212D01*
G01X1573Y2213D01*
G01X1573Y2215D01*
G01X1574Y2217D01*
G01X1574Y2221D01*
G01X1574Y2223D01*
G01X1574Y2226D01*
G01X1574Y2228D01*
G01X1574Y2230D01*
G01X1573Y2231D01*
G01X1572Y2234D01*
G01X1572Y2236D01*
G01X1571Y2237D01*
G01X1570Y2238D01*
G01X1570Y2240D01*
G01X1568Y2241D01*
G01X1568Y2242D01*
G01X1566Y2243D01*
G01X1565Y2244D01*
G01X1564Y2244D01*
G01X1563Y2245D01*
G01X1561Y2245D01*
G01X1560Y2246D01*
G01X1558Y2246D01*
G01X1556Y2245D01*
G01X1554Y2245D01*
G01X1552Y2244D01*
G01X1550Y2243D01*
G01X1549Y2242D01*
G01X1548Y2241D01*
G01X1547Y2240D01*
G01X1547Y2236D01*
G01X1547Y2224D01*
G01X1537Y2224D01*
G01X1537Y2236D01*
G01X1537Y2268D01*
G01X1536Y2271D01*
G01X1536Y2272D01*
G01X1535Y2274D01*
G01X1534Y2274D01*
G01X1533Y2274D01*
G01X1531Y2274D01*
G01X1530Y2274D01*
G01X1529Y2274D01*
G01X1528Y2275D01*
G01X1528Y2275D01*
G01X1529Y2276D01*
G01X1535Y2278D01*
G01X1536Y2279D01*
G01X1540Y2280D01*
G01X1541Y2281D01*
G01X1543Y2281D01*
G01X1544Y2282D01*
G01X1546Y2282D01*
G01X1547Y2282D01*
G01X1547Y2263D01*
G01X1547Y2249D01*
G01X1547Y2244D01*
G01X1548Y2245D01*
G01X1550Y2247D01*
G01X1552Y2249D01*
G01X1554Y2250D01*
G01X1556Y2252D01*
G01X1557Y2252D01*
G01X1558Y2253D01*
G01X1560Y2254D01*
G01X1563Y2254D01*
G01X1566Y2254D01*
G01X1567Y2253D01*
G01X1569Y2253D01*
G01X1570Y2252D01*
G01X1571Y2252D01*
G01X1573Y2251D01*
G01X1574Y2250D01*
G01X1575Y2250D01*
G01X1576Y2248D01*
G01X1577Y2248D01*
G01X1579Y2246D01*
G01X1580Y2245D01*
G01X1580Y2244D01*
G01X1581Y2242D01*
G01X1582Y2241D01*
G01X1583Y2237D01*
G01X1583Y2235D01*
G01X1584Y2233D01*
G01X1584Y2228D01*
G01X1584Y2223D01*
G01X1583Y2221D01*
G01X1583Y2219D01*
G01X1582Y2217D01*
G01X1582Y2215D01*
G01X1581Y2214D01*
G01X1580Y2212D01*
G01X1579Y2210D01*
G01X1579Y2209D01*
G01X1576Y2206D01*
G01X1574Y2204D01*
G01X1572Y2203D01*
G01X1571Y2202D01*
G01X1570Y2201D01*
G01X1567Y2200D01*
G01X1566Y2199D01*
G01X1562Y2198D01*
G01X1559Y2197D01*
G01X1556Y2197D01*
G01X1553Y2197D01*
G01X1550Y2198D01*
G37*
G36*
G01X1612Y2198D02*
G01X1609Y2198D01*
G01X1608Y2199D01*
G01X1606Y2200D01*
G01X1605Y2200D01*
G01X1603Y2202D01*
G01X1602Y2203D01*
G01X1599Y2205D01*
G01X1598Y2207D01*
G01X1597Y2208D01*
G01X1596Y2210D01*
G01X1595Y2212D01*
G01X1594Y2213D01*
G01X1594Y2215D01*
G01X1593Y2218D01*
G01X1593Y2222D01*
G01X1593Y2224D01*
G01X1593Y2227D01*
G01X1593Y2228D01*
G01X1593Y2231D01*
G01X1594Y2233D01*
G01X1594Y2235D01*
G01X1594Y2237D01*
G01X1595Y2238D01*
G01X1601Y2238D01*
G01X1601Y2236D01*
G01X1614Y2236D01*
G01X1614Y2236D01*
G01X1626Y2236D01*
G01X1626Y2236D01*
G01X1626Y2239D01*
G01X1625Y2241D01*
G01X1625Y2243D01*
G01X1624Y2244D01*
G01X1623Y2246D01*
G01X1622Y2247D01*
G01X1620Y2248D01*
G01X1619Y2249D01*
G01X1617Y2249D01*
G01X1615Y2250D01*
G01X1612Y2250D01*
G01X1610Y2249D01*
G01X1608Y2248D01*
G01X1607Y2247D01*
G01X1606Y2246D01*
G01X1605Y2245D01*
G01X1604Y2244D01*
G01X1603Y2243D01*
G01X1602Y2241D01*
G01X1602Y2240D01*
G01X1601Y2238D01*
G01X1595Y2238D01*
G01X1595Y2238D01*
G01X1596Y2239D01*
G01X1598Y2243D01*
G01X1600Y2246D01*
G01X1602Y2248D01*
G01X1603Y2249D01*
G01X1604Y2250D01*
G01X1606Y2251D01*
G01X1607Y2252D01*
G01X1610Y2253D01*
G01X1611Y2253D01*
G01X1613Y2254D01*
G01X1617Y2254D01*
G01X1621Y2254D01*
G01X1623Y2253D01*
G01X1625Y2253D01*
G01X1627Y2252D01*
G01X1629Y2251D01*
G01X1630Y2250D01*
G01X1633Y2248D01*
G01X1633Y2247D01*
G01X1634Y2246D01*
G01X1635Y2244D01*
G01X1636Y2242D01*
G01X1638Y2238D01*
G01X1638Y2236D01*
G01X1638Y2234D01*
G01X1638Y2232D01*
G01X1601Y2232D01*
G01X1601Y2231D01*
G01X1601Y2228D01*
G01X1602Y2226D01*
G01X1602Y2224D01*
G01X1602Y2222D01*
G01X1603Y2220D01*
G01X1604Y2218D01*
G01X1605Y2216D01*
G01X1606Y2215D01*
G01X1606Y2214D01*
G01X1607Y2213D01*
G01X1609Y2211D01*
G01X1610Y2210D01*
G01X1612Y2209D01*
G01X1613Y2208D01*
G01X1615Y2208D01*
G01X1616Y2207D01*
G01X1618Y2207D01*
G01X1620Y2206D01*
G01X1622Y2207D01*
G01X1624Y2207D01*
G01X1626Y2207D01*
G01X1627Y2208D01*
G01X1628Y2208D01*
G01X1630Y2209D01*
G01X1631Y2210D01*
G01X1632Y2211D01*
G01X1633Y2212D01*
G01X1634Y2214D01*
G01X1634Y2215D01*
G01X1635Y2216D01*
G01X1636Y2218D01*
G01X1636Y2219D01*
G01X1637Y2219D01*
G01X1638Y2219D01*
G01X1638Y2218D01*
G01X1638Y2217D01*
G01X1637Y2215D01*
G01X1637Y2213D01*
G01X1636Y2212D01*
G01X1636Y2211D01*
G01X1634Y2208D01*
G01X1634Y2207D01*
G01X1631Y2204D01*
G01X1629Y2202D01*
G01X1627Y2200D01*
G01X1626Y2200D01*
G01X1624Y2199D01*
G01X1623Y2198D01*
G01X1621Y2198D01*
G01X1619Y2197D01*
G01X1616Y2197D01*
G01X1613Y2197D01*
G01X1612Y2198D01*
G37*
G36*
G01X1970Y2315D02*
G01X1970Y2315D01*
G01X1971Y2314D01*
G01X1972Y2314D01*
G01X1972Y2315D01*
G01X1973Y2316D01*
G01X1974Y2318D01*
G01X1974Y2320D01*
G01X1975Y2321D01*
G01X1975Y2323D01*
G01X1977Y2326D01*
G01X1978Y2328D01*
G01X1980Y2335D01*
G01X1981Y2337D01*
G01X1983Y2340D01*
G01X1983Y2342D01*
G01X1986Y2349D01*
G01X1987Y2351D01*
G01X1989Y2356D01*
G01X1990Y2358D01*
G01X1990Y2359D01*
G01X1991Y2361D01*
G01X1992Y2363D01*
G01X1992Y2364D01*
G01X1993Y2366D01*
G01X1994Y2367D01*
G01X1995Y2371D01*
G01X1996Y2372D01*
G01X1998Y2378D01*
G01X1999Y2379D01*
G01X1999Y2381D01*
G01X2000Y2383D01*
G01X2001Y2384D01*
G01X2001Y2386D01*
G01X2002Y2387D01*
G01X2003Y2389D01*
G01X2006Y2391D01*
G01X2007Y2392D01*
G01X2008Y2392D01*
G01X2011Y2393D01*
G01X2012Y2394D01*
G01X2012Y2395D01*
G01X1987Y2395D01*
G01X1987Y2394D01*
G01X1987Y2394D01*
G01X1988Y2393D01*
G01X1990Y2393D01*
G01X1992Y2392D01*
G01X1993Y2391D01*
G01X1994Y2390D01*
G01X1995Y2390D01*
G01X1996Y2388D01*
G01X1996Y2386D01*
G01X1995Y2384D01*
G01X1995Y2383D01*
G01X1994Y2381D01*
G01X1994Y2380D01*
G01X1993Y2378D01*
G01X1992Y2377D01*
G01X1992Y2375D01*
G01X1991Y2373D01*
G01X1990Y2372D01*
G01X1990Y2371D01*
G01X1988Y2365D01*
G01X1987Y2364D01*
G01X1986Y2362D01*
G01X1986Y2361D01*
G01X1984Y2355D01*
G01X1983Y2354D01*
G01X1982Y2352D01*
G01X1982Y2351D01*
G01X1980Y2346D01*
G01X1979Y2344D01*
G01X1978Y2343D01*
G01X1978Y2341D01*
G01X1976Y2336D01*
G01X1975Y2334D01*
G01X1974Y2333D01*
G01X1974Y2333D01*
G01X1973Y2334D01*
G01X1973Y2335D01*
G01X1971Y2338D01*
G01X1969Y2344D01*
G01X1968Y2347D01*
G01X1964Y2354D01*
G01X1963Y2358D01*
G01X1961Y2363D01*
G01X1959Y2366D01*
G01X1956Y2374D01*
G01X1955Y2377D01*
G01X1953Y2381D01*
G01X1952Y2382D01*
G01X1952Y2384D01*
G01X1952Y2386D01*
G01X1951Y2387D01*
G01X1951Y2388D01*
G01X1951Y2389D01*
G01X1952Y2390D01*
G01X1953Y2391D01*
G01X1954Y2392D01*
G01X1956Y2393D01*
G01X1958Y2393D01*
G01X1960Y2393D01*
G01X1960Y2394D01*
G01X1960Y2394D01*
G01X1960Y2395D01*
G01X1927Y2395D01*
G01X1927Y2394D01*
G01X1928Y2394D01*
G01X1928Y2393D01*
G01X1930Y2393D01*
G01X1932Y2392D01*
G01X1934Y2392D01*
G01X1936Y2390D01*
G01X1937Y2389D01*
G01X1939Y2384D01*
G01X1942Y2378D01*
G01X1944Y2373D01*
G01X1946Y2369D01*
G01X1948Y2364D01*
G01X1950Y2361D01*
G01X1953Y2353D01*
G01X1954Y2350D01*
G01X1956Y2345D01*
G01X1958Y2342D01*
G01X1960Y2337D01*
G01X1962Y2333D01*
G01X1964Y2328D01*
G01X1965Y2325D01*
G01X1967Y2320D01*
G01X1969Y2317D01*
G01X1970Y2315D01*
G37*
G36*
G01X1881Y2315D02*
G01X1886Y2315D01*
G01X1890Y2315D01*
G01X1894Y2316D01*
G01X1895Y2316D01*
G01X1897Y2317D01*
G01X1899Y2318D01*
G01X1901Y2318D01*
G01X1902Y2319D01*
G01X1903Y2320D01*
G01X1905Y2321D01*
G01X1906Y2322D01*
G01X1910Y2326D01*
G01X1911Y2327D01*
G01X1912Y2328D01*
G01X1913Y2329D01*
G01X1914Y2331D01*
G01X1914Y2332D01*
G01X1915Y2334D01*
G01X1916Y2336D01*
G01X1916Y2338D01*
G01X1917Y2340D01*
G01X1917Y2342D01*
G01X1917Y2346D01*
G01X1917Y2348D01*
G01X1917Y2350D01*
G01X1916Y2352D01*
G01X1916Y2354D01*
G01X1915Y2355D01*
G01X1914Y2357D01*
G01X1914Y2358D01*
G01X1912Y2360D01*
G01X1911Y2361D01*
G01X1908Y2365D01*
G01X1906Y2366D01*
G01X1904Y2368D01*
G01X1902Y2369D01*
G01X1901Y2370D01*
G01X1898Y2371D01*
G01X1896Y2372D01*
G01X1894Y2372D01*
G01X1892Y2373D01*
G01X1889Y2374D01*
G01X1886Y2374D01*
G01X1885Y2375D01*
G01X1885Y2375D01*
G01X1886Y2377D01*
G01X1889Y2384D01*
G01X1890Y2385D01*
G01X1902Y2386D01*
G01X1914Y2386D01*
G01X1914Y2386D01*
G01X1915Y2388D01*
G01X1916Y2390D01*
G01X1917Y2392D01*
G01X1918Y2394D01*
G01X1918Y2395D01*
G01X1915Y2395D01*
G01X1904Y2395D01*
G01X1890Y2395D01*
G01X1890Y2394D01*
G01X1878Y2371D01*
G01X1877Y2368D01*
G01X1876Y2366D01*
G01X1875Y2365D01*
G01X1875Y2364D01*
G01X1877Y2364D01*
G01X1879Y2364D01*
G01X1882Y2364D01*
G01X1885Y2364D01*
G01X1887Y2363D01*
G01X1889Y2363D01*
G01X1891Y2362D01*
G01X1893Y2361D01*
G01X1896Y2360D01*
G01X1897Y2359D01*
G01X1898Y2358D01*
G01X1900Y2357D01*
G01X1904Y2353D01*
G01X1905Y2352D01*
G01X1906Y2351D01*
G01X1907Y2349D01*
G01X1908Y2347D01*
G01X1908Y2346D01*
G01X1909Y2344D01*
G01X1909Y2343D01*
G01X1909Y2341D01*
G01X1910Y2338D01*
G01X1909Y2334D01*
G01X1909Y2332D01*
G01X1908Y2331D01*
G01X1907Y2329D01*
G01X1906Y2328D01*
G01X1905Y2327D01*
G01X1904Y2325D01*
G01X1902Y2324D01*
G01X1900Y2323D01*
G01X1899Y2322D01*
G01X1897Y2321D01*
G01X1896Y2321D01*
G01X1893Y2321D01*
G01X1892Y2320D01*
G01X1890Y2321D01*
G01X1889Y2321D01*
G01X1887Y2322D01*
G01X1885Y2322D01*
G01X1884Y2323D01*
G01X1883Y2324D01*
G01X1881Y2325D01*
G01X1880Y2326D01*
G01X1878Y2326D01*
G01X1876Y2326D01*
G01X1875Y2326D01*
G01X1874Y2325D01*
G01X1873Y2324D01*
G01X1872Y2322D01*
G01X1873Y2320D01*
G01X1874Y2319D01*
G01X1874Y2318D01*
G01X1875Y2317D01*
G01X1876Y2316D01*
G01X1878Y2316D01*
G01X1880Y2315D01*
G01X1881Y2315D01*
G37*
G04 Text End*

G04 PolygonModel Start*
G54D11*
G01X1590Y1864D02*
G01X1738Y1864D01*
G01X1738Y2083D02*
G01X1590Y2083D01*
G01X1575Y2068D02*
G01X1575Y1880D01*
G01X2072Y1864D02*
G01X1924Y1864D01*
G01X1924Y2083D02*
G01X2072Y2083D01*
G01X2087Y2068D02*
G01X2087Y1880D01*
G01X1590Y2083D02*
G03X1575Y2068I0J-15D01*
G01X1575Y1880D02*
G03X1590Y1864I15J0D01*
G01X2072Y2083D02*
G02X2087Y2068I0J-15D01*
G01X2087Y1880D02*
G02X2072Y1864I-15J0D01*
G54D12*
G01X810Y1211D02*
G03X767Y1171I4J-47D01*
G01X768Y1085D02*
G03X810Y1052I48J19D01*
G01X1072Y1179D02*
G03X1031Y1211I-48J-19D01*
G01X1031Y1053D02*
G03X1073Y1093I-4J47D01*
G01X874Y1053D02*
G01X810Y1053D01*
G01X874Y1211D02*
G01X810Y1211D01*
G01X768Y1085D02*
G01X768Y1172D01*
G01X1072Y1091D02*
G01X1072Y1179D01*
G01X1031Y1053D02*
G01X966Y1053D01*
G01X1031Y1211D02*
G01X966Y1211D01*
G54D13*
G01X1300Y3162D02*
G01X1300Y2912D01*
G01X1700Y2912D02*
G01X1800Y2912D01*
G01X1200Y2912D02*
G01X1300Y2912D01*
G01X1800Y3162D02*
G01X1800Y2912D01*
G01X1700Y3162D02*
G01X1700Y2912D01*
G01X1200Y3162D02*
G01X1200Y2912D01*
G01X2000Y3162D02*
G01X1000Y3162D01*
G01X1865Y2462D02*
G01X2000Y2462D01*
G01X1595Y2462D02*
G01X1635Y2462D01*
G01X1345Y2462D02*
G01X1405Y2462D01*
G01X1000Y2462D02*
G01X1150Y2462D01*
G01X2000Y2462D02*
G01X2000Y3162D01*
G01X1000Y2462D02*
G01X1000Y3162D01*
G54D12*
G01X959Y975D02*
G01X959Y907D01*
G01X797Y1015D02*
G01X767Y985D01*
G01X767Y985D02*
G01X767Y895D01*
G01X1097Y1015D02*
G01X1097Y867D01*
G01X902Y865D02*
G01X797Y865D01*
G01X902Y1015D02*
G01X797Y1015D01*
G01X1097Y865D02*
G01X982Y865D01*
G01X1097Y1015D02*
G01X982Y1015D01*
G01X797Y865D02*
G01X767Y895D01*
G01X959Y908D02*
G01X959Y907D01*
G01X959Y908D02*
G01X928Y938D01*
G01X928Y945D02*
G01X928Y938D01*
G01X959Y975D02*
G01X928Y945D01*
G54D13*
G01X1528Y1945D02*
G01X1368Y1945D01*
G01X1369Y1760D02*
G01X1369Y1635D01*
G01X1529Y1760D02*
G01X1529Y1635D01*
G01X1368Y1945D02*
G01X1368Y1820D01*
G01X1528Y1945D02*
G01X1528Y1820D01*
G01X1529Y1635D02*
G01X1369Y1635D01*
G01X1741Y1079D02*
G01X1901Y1079D01*
G01X1900Y1264D02*
G01X1900Y1389D01*
G01X1740Y1264D02*
G01X1740Y1389D01*
G01X1901Y1079D02*
G01X1901Y1204D01*
G01X1741Y1079D02*
G01X1741Y1204D01*
G01X1740Y1389D02*
G01X1900Y1389D01*
G01X1340Y1945D02*
G01X1180Y1945D01*
G01X1180Y1760D02*
G01X1180Y1635D01*
G01X1340Y1760D02*
G01X1340Y1635D01*
G01X1180Y1945D02*
G01X1180Y1820D01*
G01X1340Y1945D02*
G01X1340Y1820D01*
G01X1340Y1635D02*
G01X1180Y1635D01*
G01X1482Y1278D02*
G01X1302Y1278D01*
G01X1482Y1588D02*
G01X1302Y1588D01*
G01X770Y1421D02*
G01X770Y1261D01*
G01X955Y1262D02*
G01X1080Y1262D01*
G01X955Y1422D02*
G01X1080Y1422D01*
G01X770Y1261D02*
G01X895Y1261D01*
G01X770Y1421D02*
G01X895Y1421D01*
G01X1080Y1422D02*
G01X1080Y1262D01*
G01X1176Y1012D02*
G01X1176Y852D01*
G01X1361Y852D02*
G01X1486Y852D01*
G01X1361Y1012D02*
G01X1486Y1012D01*
G01X1176Y852D02*
G01X1301Y852D01*
G01X1176Y1012D02*
G01X1301Y1012D01*
G01X1486Y1012D02*
G01X1486Y852D01*
G54D12*
G01X1639Y1838D02*
G03X1596Y1798I4J-47D01*
G01X1597Y1713D02*
G03X1639Y1680I48J19D01*
G01X1902Y1807D02*
G03X1860Y1839I-48J-19D01*
G01X1860Y1681D02*
G03X1903Y1721I-4J47D01*
G01X1704Y1681D02*
G01X1639Y1681D01*
G01X1704Y1838D02*
G01X1639Y1838D01*
G01X1597Y1713D02*
G01X1597Y1800D01*
G01X1902Y1719D02*
G01X1902Y1807D01*
G01X1860Y1681D02*
G01X1795Y1681D01*
G01X1860Y1838D02*
G01X1795Y1838D01*

G04 Circle Start*
G54D13*
G01X1240Y1598D02*
G03X1265Y1598I13J0D01*
G03X1240Y1598I-13J0D01*
G04 Circle End*

M02*

