G04 Layer: BottomSilkscreenLayer*
G04 EasyEDA Pro v2.2.32.3, 2025-04-03 17:46:38*
G04 Gerber Generator version 0.3*
G04 Scale: 100 percent, Rotated: No, Reflected: No*
G04 Dimensions in millimeters*
G04 Leading zeros omitted, absolute positions, 3 integers and 5 decimals*
%FSLAX35Y35*%
%MOMM*%
%ADD10C,0.12*%
G75*


G04 Text Start*
G54D10*
G01X17768617Y4125084D02*
G01X17772173Y4132450D01*
G01X17779539Y4139816D01*
G01X17786905Y4143372D01*
G01X17801637Y4143372D01*
G01X17809003Y4139816D01*
G01X17816369Y4132450D01*
G01X17820179Y4125084D01*
G01X17823735Y4113908D01*
G01X17823735Y4095366D01*
G01X17820179Y4084444D01*
G01X17816369Y4077078D01*
G01X17809003Y4069712D01*
G01X17801637Y4065902D01*
G01X17786905Y4065902D01*
G01X17779539Y4069712D01*
G01X17772173Y4077078D01*
G01X17768617Y4084444D01*
G01X17768617Y4095366D01*
G01X17786905Y4095366D02*
G01X17768617Y4095366D01*
G01X17738899Y4143372D02*
G01X17738899Y4065902D01*
G01X17738899Y4143372D02*
G01X17687337Y4065902D01*
G01X17687337Y4143372D02*
G01X17687337Y4065902D01*
G01X17657619Y4143372D02*
G01X17657619Y4065902D01*
G01X17657619Y4143372D02*
G01X17631711Y4143372D01*
G01X17620789Y4139816D01*
G01X17613423Y4132450D01*
G01X17609613Y4125084D01*
G01X17606057Y4113908D01*
G01X17606057Y4095366D01*
G01X17609613Y4084444D01*
G01X17613423Y4077078D01*
G01X17620789Y4069712D01*
G01X17631711Y4065902D01*
G01X17657619Y4065902D01*
G01X17777834Y3893469D02*
G01X17777834Y3815999D01*
G01X17777834Y3893469D02*
G01X17752180Y3893469D01*
G01X17741004Y3889913D01*
G01X17733638Y3882547D01*
G01X17730082Y3875181D01*
G01X17726272Y3864005D01*
G01X17726272Y3845463D01*
G01X17730082Y3834541D01*
G01X17733638Y3827175D01*
G01X17741004Y3819809D01*
G01X17752180Y3815999D01*
G01X17777834Y3815999D01*
G01X17696554Y3893469D02*
G01X17696554Y3815999D01*
G01X17696554Y3893469D02*
G01X17663280Y3893469D01*
G01X17652358Y3889913D01*
G01X17648548Y3886103D01*
G01X17644992Y3878737D01*
G01X17644992Y3867561D01*
G01X17648548Y3860195D01*
G01X17652358Y3856639D01*
G01X17663280Y3852829D01*
G01X17696554Y3852829D01*
G01X17793134Y3633366D02*
G01X17793134Y3555896D01*
G01X17793134Y3633366D02*
G01X17767480Y3633366D01*
G01X17756304Y3629810D01*
G01X17748938Y3622444D01*
G01X17745382Y3615078D01*
G01X17741572Y3603902D01*
G01X17741572Y3585360D01*
G01X17745382Y3574438D01*
G01X17748938Y3567072D01*
G01X17756304Y3559706D01*
G01X17767480Y3555896D01*
G01X17793134Y3555896D01*
G01X17711854Y3633366D02*
G01X17711854Y3555896D01*
G01X17711854Y3633366D02*
G01X17682390Y3555896D01*
G01X17652926Y3633366D02*
G01X17682390Y3555896D01*
G01X17652926Y3633366D02*
G01X17652926Y3555896D01*
G01X18095021Y1881055D02*
G01X18098577Y1888421D01*
G01X18105943Y1895787D01*
G01X18113309Y1899343D01*
G01X18128041Y1899343D01*
G01X18135407Y1895787D01*
G01X18142773Y1888421D01*
G01X18146583Y1881055D01*
G01X18150139Y1869879D01*
G01X18150139Y1851337D01*
G01X18146583Y1840415D01*
G01X18142773Y1833049D01*
G01X18135407Y1825683D01*
G01X18128041Y1821873D01*
G01X18113309Y1821873D01*
G01X18105943Y1825683D01*
G01X18098577Y1833049D01*
G01X18095021Y1840415D01*
G01X18095021Y1851337D01*
G01X18113309Y1851337D02*
G01X18095021Y1851337D01*
G01X18065303Y1899343D02*
G01X18065303Y1821873D01*
G01X18065303Y1899343D02*
G01X18013741Y1821873D01*
G01X18013741Y1899343D02*
G01X18013741Y1821873D01*
G01X17984023Y1899343D02*
G01X17984023Y1821873D01*
G01X17984023Y1899343D02*
G01X17958115Y1899343D01*
G01X17947193Y1895787D01*
G01X17939827Y1888421D01*
G01X17936017Y1881055D01*
G01X17932461Y1869879D01*
G01X17932461Y1851337D01*
G01X17936017Y1840415D01*
G01X17939827Y1833049D01*
G01X17947193Y1825683D01*
G01X17958115Y1821873D01*
G01X17984023Y1821873D01*
G01X18145039Y2144146D02*
G01X18145039Y2066676D01*
G01X18145039Y2144146D02*
G01X18112019Y2144146D01*
G01X18100843Y2140590D01*
G01X18097287Y2136780D01*
G01X18093477Y2129414D01*
G01X18093477Y2122048D01*
G01X18097287Y2114682D01*
G01X18100843Y2110872D01*
G01X18112019Y2107316D01*
G01X18145039Y2107316D01*
G01X18119385Y2107316D02*
G01X18093477Y2066676D01*
G01X18012197Y2133224D02*
G01X18019563Y2140590D01*
G01X18030485Y2144146D01*
G01X18045217Y2144146D01*
G01X18056393Y2140590D01*
G01X18063759Y2133224D01*
G01X18063759Y2125858D01*
G01X18060203Y2118238D01*
G01X18056393Y2114682D01*
G01X18049027Y2110872D01*
G01X18026929Y2103506D01*
G01X18019563Y2099950D01*
G01X18015753Y2096140D01*
G01X18012197Y2088774D01*
G01X18012197Y2077852D01*
G01X18019563Y2070486D01*
G01X18030485Y2066676D01*
G01X18045217Y2066676D01*
G01X18056393Y2070486D01*
G01X18063759Y2077852D01*
G01X17956571Y2144146D02*
G01X17956571Y2066676D01*
G01X17982479Y2144146D02*
G01X17930917Y2144146D01*
G01X18065142Y1644340D02*
G01X18101972Y1644340D01*
G01X18105782Y1611066D01*
G01X18101972Y1614876D01*
G01X18091050Y1618432D01*
G01X18079874Y1618432D01*
G01X18068952Y1614876D01*
G01X18061586Y1607510D01*
G01X18057776Y1596334D01*
G01X18057776Y1588968D01*
G01X18061586Y1578046D01*
G01X18068952Y1570680D01*
G01X18079874Y1566870D01*
G01X18091050Y1566870D01*
G01X18101972Y1570680D01*
G01X18105782Y1574236D01*
G01X18109338Y1581602D01*
G01X18028058Y1644340D02*
G01X17998594Y1566870D01*
G01X17969130Y1644340D02*
G01X17998594Y1566870D01*
G01X17461630Y2409350D02*
G01X17461630Y2331880D01*
G01X17461630Y2409350D02*
G01X17428610Y2409350D01*
G01X17417434Y2405794D01*
G01X17413878Y2401984D01*
G01X17410068Y2394618D01*
G01X17410068Y2387252D01*
G01X17413878Y2379886D01*
G01X17417434Y2376076D01*
G01X17428610Y2372520D01*
G01X17461630Y2372520D01*
G01X17435976Y2372520D02*
G01X17410068Y2331880D01*
G01X17380350Y2409350D02*
G01X17328788Y2331880D01*
G01X17328788Y2409350D02*
G01X17380350Y2331880D01*
G01X17435976Y2144146D02*
G01X17435976Y2066676D01*
G01X17461630Y2144146D02*
G01X17410068Y2144146D01*
G01X17380350Y2144146D02*
G01X17328788Y2066676D01*
G01X17328788Y2144146D02*
G01X17380350Y2066676D01*
G01X17191327Y3470163D02*
G01X17191327Y3392693D01*
G01X17191327Y3470163D02*
G01X17165673Y3470163D01*
G01X17154497Y3466607D01*
G01X17147131Y3459241D01*
G01X17143575Y3451875D01*
G01X17139765Y3440699D01*
G01X17139765Y3422157D01*
G01X17143575Y3411235D01*
G01X17147131Y3403869D01*
G01X17154497Y3396503D01*
G01X17165673Y3392693D01*
G01X17191327Y3392693D01*
G01X17110047Y3470163D02*
G01X17110047Y3392693D01*
G01X17110047Y3470163D02*
G01X17076773Y3470163D01*
G01X17065851Y3466607D01*
G01X17062041Y3462797D01*
G01X17058485Y3455431D01*
G01X17058485Y3444255D01*
G01X17062041Y3436889D01*
G01X17065851Y3433333D01*
G01X17076773Y3429523D01*
G01X17110047Y3429523D01*
G01X16859822Y3475264D02*
G01X16859822Y3397794D01*
G01X16859822Y3475264D02*
G01X16834168Y3475264D01*
G01X16822992Y3471708D01*
G01X16815626Y3464342D01*
G01X16812070Y3456976D01*
G01X16808260Y3445800D01*
G01X16808260Y3427258D01*
G01X16812070Y3416336D01*
G01X16815626Y3408970D01*
G01X16822992Y3401604D01*
G01X16834168Y3397794D01*
G01X16859822Y3397794D01*
G01X16778542Y3475264D02*
G01X16778542Y3397794D01*
G01X16778542Y3475264D02*
G01X16749078Y3397794D01*
G01X16719614Y3475264D02*
G01X16749078Y3397794D01*
G01X16719614Y3475264D02*
G01X16719614Y3397794D01*
G01X17193610Y4046877D02*
G01X17197166Y4054243D01*
G01X17204532Y4061609D01*
G01X17211898Y4065165D01*
G01X17226630Y4065165D01*
G01X17233996Y4061609D01*
G01X17241362Y4054243D01*
G01X17245172Y4046877D01*
G01X17248728Y4035701D01*
G01X17248728Y4017159D01*
G01X17245172Y4006237D01*
G01X17241362Y3998871D01*
G01X17233996Y3991505D01*
G01X17226630Y3987695D01*
G01X17211898Y3987695D01*
G01X17204532Y3991505D01*
G01X17197166Y3998871D01*
G01X17193610Y4006237D01*
G01X17193610Y4017159D01*
G01X17211898Y4017159D02*
G01X17193610Y4017159D01*
G01X17163892Y4065165D02*
G01X17163892Y3987695D01*
G01X17163892Y4065165D02*
G01X17112330Y3987695D01*
G01X17112330Y4065165D02*
G01X17112330Y3987695D01*
G01X17082612Y4065165D02*
G01X17082612Y3987695D01*
G01X17082612Y4065165D02*
G01X17056704Y4065165D01*
G01X17045782Y4061609D01*
G01X17038416Y4054243D01*
G01X17034606Y4046877D01*
G01X17031050Y4035701D01*
G01X17031050Y4017159D01*
G01X17034606Y4006237D01*
G01X17038416Y3998871D01*
G01X17045782Y3991505D01*
G01X17056704Y3987695D01*
G01X17082612Y3987695D01*
G04 Text End*

M02*

