;TYPE=PLATED
;Layer: PTH_Through
;EasyEDA Pro Client v2.2.32.3, 2025-11-28 17:47:02
;Gerber Generator version 0.3
M48
METRIC,LZ,000.00000
;Hole size 1 = 0.30000 METRIC
T01C0.30000
;Hole size 2 = 0.80000 METRIC
T02C0.80000
;Hole size 3 = 0.80000 METRIC
T03C0.80000
;Hole size 4 = 0.90000 METRIC
T04C0.90000
;Hole size 5 = 1.00000 METRIC
T05C1.00000
;Hole size 6 = 1.10002 METRIC
T06C1.10002
;Hole size 7 = 1.52400 METRIC
T07C1.52400
;Hole size 8 = 1.60000 METRIC
T08C1.60000
;Hole size 9 = 2.50002 METRIC
T09C2.50002
;Hole size 10 = 3.25003 METRIC
T10C3.25003
%
G05
G90
T01
X-55.00774Y-81.13883
X-36.9025Y-69.76568
X-37.71851Y-68.89867
X-10.73916Y-58.08653
X-34.04646Y-82.51585
X-3.59907Y-57.21952
X-28.18139Y-83.28086
X-20.88829Y-67.26665
X-31.08843Y-81.24083
X-13.9522Y-57.16852
X-15.38022Y-60.22856
X-10.58616Y-60.84057
X-9.37008Y-60.73857
X-13.7992Y-51.91545
X-15.99223Y-55.6895
X-12.52419Y-56.50551
X-15.89023Y-57.11752
X-21.88281Y-67.34315
X-28.7424Y-74.15174
X-24.76434Y-78.7418
X-19.25627Y-81.13883
X-33.12845Y-75.68176
X-33.94446Y-71.2957
X-33.84246Y-70.32669
X-25.83536Y-69.86768
X-24.25434Y-67.26665
X-15.89023Y-67.98066
X-38.07552Y-67.26665
X-5.28209Y-61.19757
X-9.92315Y-70.73469
X-17.29714Y-56.96452
X-13.5952Y-79.1498
X-32.51645Y-69.61268
X-34.70947Y-67.41965
X-17.48072Y-85.52489
X-17.48072Y-88.58493
X-24.76434Y-77.46678
X-25.52935Y-81.08783
X-34.91348Y-78.5888
X-23.08132Y-63.1356
X-23.74433Y-50.90158
X-21.75531Y-37.99227
X-21.70431Y-31.20918
X-22.77532Y-37.22726
X-25.17235Y-28.86315
X-17.06325Y-50.64043
X-7.42412Y-25.1401
X-4.92509Y-32.8922
X-13.4932Y-23.40608
X-10.12716Y-34.26922
X-9.71915Y-32.7392
X-25.01935Y-20.04004
X-20.83729Y-19.78504
X-8.59714Y-32.2802
X-7.67912Y-31.92319
X-16.45124Y-18.45902
X-30.22142Y-54.56749
X-31.54743Y-57.88253
X-25.88636Y-35.79924
X-25.42735Y-37.27826
X-28.6914Y-37.09563
X-28.6914Y-44.16335
X-25.32535Y-41.35831
X-28.64039Y-35.18723
X-30.22142Y-35.18723
X-28.64039Y-33.84545
X-92.79923Y-35.85024
X-34.63297Y-58.11203
X-52.1517Y-83.38286
X-49.55067Y-81.34283
X-38.63652Y-41.81732
X-37.76951Y-42.53133
X-66.22788Y-47.27439
X-66.68689Y-47.83246
X-65.56487Y-47.42739
X-66.94189Y-47.12139
X-66.38088Y-46.56038
X-63.88185Y-40.3383
X-63.26984Y-52.42546
X-52.76371Y-61.19757
X-91.32021Y-51.9055
X-91.2182Y-39.11709
X-91.2182Y-28.30215
X-51.28469Y-46.40738
X-51.18269Y-49.21242
X-46.84763Y-69.20467
X-47.66364Y-68.49067
X-52.4067Y-46.40738
X-52.3557Y-49.51842
X-52.96771Y-37.53327
X-50.75951Y-21.57006
X-51.9987Y-22.79407
X-32.72045Y-31.71919
X-35.47448Y-22.38607
X-31.39443Y-20.80505
X-69.59392Y-63.0336
X-9.56615Y-49.36542
X-11.50417Y-63.95161
X-19.25627Y-74.20274
X-23.74433Y-74.45774
X-13.5442Y-60.43256
X-7.22012Y-59.31055
X-5.4861Y-60.07556
X-20.02128Y-38.40028
X-30.01741Y-78.33379
X-28.23239Y-78.6398
X-13.3912Y-69.91868
X-8.39313Y-70.02069
X-17.26725Y-73.64173
X-20.78629Y-77.51778
X-29.81341Y-74.66175
X-32.15944Y-78.07879
X-37.0555Y-79.86381
X-37.71851Y-72.97872
X-16.79045Y-40.36354
X-16.12745Y-39.13953
X-15.83844Y-40.36354
X-15.17543Y-39.13953
X-14.88643Y-40.36354
X-14.22342Y-39.13953
X-13.93442Y-40.36354
X-13.27141Y-39.13953
X-16.99446Y-42.70957
X-16.33145Y-41.48556
X-16.04244Y-42.70957
X-15.37944Y-41.48556
X-15.09043Y-42.70957
X-14.42742Y-41.48556
X-14.13842Y-42.70957
X-13.47541Y-41.48556
X-16.84145Y-45.10661
X-16.17845Y-43.88259
X-15.88944Y-45.10661
X-15.22643Y-43.88259
X-14.93743Y-45.10661
X-14.27442Y-43.88259
X-13.98542Y-45.10661
X-13.32241Y-43.88259
X-16.43345Y-47.75864
X-15.77044Y-46.53462
X-15.48144Y-47.75864
X-14.81843Y-46.53462
X-14.52942Y-47.75864
X-13.86642Y-46.53462
X-13.57741Y-47.75864
X-12.9144Y-46.53462
X-11.89439Y-42.96458
X-11.23138Y-41.74056
X-10.94238Y-42.96458
X-10.27937Y-41.74056
X-9.99037Y-42.96458
X-9.32736Y-41.74056
X-9.03835Y-42.96458
X-8.37535Y-41.74056
X-10.92538Y-45.15761
X-10.26237Y-43.93359
X-9.97337Y-45.15761
X-9.31036Y-43.93359
X-9.02135Y-45.15761
X-8.35834Y-43.93359
X-8.06934Y-45.15761
X-7.40633Y-43.93359
X-5.1623Y-48.82965
X-4.4993Y-47.60564
X-4.21029Y-48.82965
X-3.54728Y-47.60564
X-3.25828Y-48.82965
X-2.59527Y-47.60564
X-2.30627Y-48.82965
X-1.64326Y-47.60564
X-6.74332Y-51.43069
X-6.08032Y-50.20667
X-5.79131Y-51.43069
X-5.1283Y-50.20667
X-4.8393Y-51.43069
X-4.17629Y-50.20667
X-3.88729Y-51.43069
X-3.22428Y-50.20667
X-58.35599Y-56.73476
X-45.40182Y-59.74379
X-57.40398Y-56.73476
X-49.49888Y-59.69279
X-56.45197Y-56.73476
X-59.359Y-58.26478
X-55.49996Y-56.73476
X-60.24302Y-53.41971
X-58.917Y-59.38679
X-58.25399Y-58.16277
X-57.96499Y-59.38679
X-57.30198Y-58.16277
X-57.01297Y-59.38679
X-56.34997Y-58.16277
X-56.06096Y-59.38679
X-55.39795Y-58.16277
X-58.764Y-64.38485
X-58.25399Y-65.14986
X-57.81198Y-64.38485
X-57.30198Y-65.14986
X-56.85997Y-64.38485
X-56.34997Y-65.14986
X-55.90796Y-64.38485
X-55.39795Y-65.14986
X-65.95509Y-65.60887
X-62.48705Y-64.94586
X-65.36008Y-64.99686
X-64.69707Y-63.77285
X-64.40807Y-64.99686
X-63.74506Y-63.77285
X-63.45606Y-64.99686
X-62.79305Y-63.77285
X-82.3263Y-89.32418
X-81.37429Y-89.32418
X-80.42228Y-89.32418
X-79.47027Y-89.32418
X-68.65813Y-98.5043
X-67.99512Y-97.28028
X-67.70611Y-98.5043
X-67.0431Y-97.28028
X-66.7541Y-98.5043
X-66.09109Y-97.28028
X-65.80209Y-98.5043
X-65.13908Y-97.28028
X-73.45219Y-98.5553
X-67.17911Y-92.53722
X-72.50018Y-98.5553
X-63.72806Y-92.74122
X-71.54816Y-98.5553
X-65.63209Y-92.38422
X-70.59615Y-98.5553
X-63.86406Y-94.78125
X-89.6194Y-91.56821
X-88.95639Y-90.34419
X-88.66738Y-91.56821
X-88.00438Y-90.34419
X-87.71537Y-91.56821
X-87.05236Y-90.34419
X-86.76336Y-91.56821
X-86.10035Y-90.34419
X-60.56681Y-38.45128
X-52.76371Y-36.15625
X-51.8967Y-36.15625
X-56.37387Y-35.94684
X-60.82181Y-39.36929
X-56.84376Y-40.3383
X-26.99133Y-64.06861
X-32.77145Y-67.52165
X-30.47642Y-67.41965
X-25.40123Y-67.34253
X-25.88636Y-61.86058
X-29.71141Y-63.0336
X-19.97028Y-69.81668
X-24.25434Y-76.29377
X-23.64233Y-75.78376
X-23.13232Y-73.33573
X-23.23432Y-71.80571
X-49.32142Y-58.32375
X-48.70941Y-58.88475
X-49.32142Y-57.37173
X-48.70941Y-57.93274
X-49.32142Y-56.41972
X-48.70941Y-56.98073
X-49.32142Y-55.46771
X-48.70941Y-56.02872
X-49.37242Y-64.18882
X-50.59644Y-63.52581
X-49.37242Y-63.23681
X-48.70941Y-61.75779
X-49.37242Y-62.2848
X-50.44343Y-64.42683
X-49.37242Y-61.33279
X-48.76041Y-60.31277
X-41.81635Y-60.50932
X-42.47936Y-61.73334
X-42.76837Y-60.50932
X-43.43137Y-61.73334
X-43.72038Y-60.50932
X-44.38339Y-61.73334
X-44.67239Y-60.50932
X-45.3354Y-61.73334
X-34.52326Y-52.75722
X-35.49227Y-51.0742
X-29.15119Y-49.34018
X-34.60826Y-50.20719
X-35.96828Y-49.90118
X-33.36724Y-51.63521
X-31.61622Y-49.54418
X-34.31926Y-51.63521
X-30.14517Y-39.2495
X-22.54607Y-41.08552
X-30.14517Y-38.29749
X-31.36919Y-37.63448
X-30.14517Y-37.34548
X-31.36919Y-36.68247
X-30.14517Y-36.39346
X-31.36919Y-35.73045
X-30.29577Y-44.97394
X-31.51978Y-44.31093
X-30.29577Y-44.02192
X-31.51978Y-43.35892
X-30.29577Y-43.06991
X-31.51978Y-42.4069
X-30.29577Y-42.1179
X-31.51978Y-41.45489
X-19.11948Y-28.9394
X-17.99747Y-30.46942
X-29.52362Y-21.8503
X-26.41258Y-22.25831
X-14.12142Y-17.31125
X-14.01942Y-16.44423
X-14.22342Y-18.12726
X-22.02622Y-19.64893
X-26.42809Y-19.76973
X-17.84447Y-22.66631
X-16.87546Y-23.27832
X-18.30347Y-23.63533
X-15.34544Y-23.94133
X-69.46473Y-70.08
X-68.82779Y-70.08
X-68.19084Y-70.08
X-67.5539Y-70.08
X-69.46473Y-70.70033
X-68.82779Y-70.70033
X-68.19084Y-70.70033
X-67.5539Y-70.70033
X-69.46473Y-71.32065
X-68.82779Y-71.32065
X-68.19084Y-71.32065
X-67.5539Y-71.32065
X-69.46473Y-71.94098
X-68.82779Y-71.94098
X-68.19084Y-71.94098
X-67.5539Y-71.94098
X-69.46473Y-72.5613
X-68.82779Y-72.5613
X-68.19084Y-72.5613
X-67.5539Y-72.5613
X-72.48317Y-68.71991
X-71.53116Y-68.71991
X-70.57915Y-68.71991
X-73.24818Y-71.21894
X-68.11412Y-68.51591
X-69.25313Y-68.46491
X-71.71816Y-65.25187
X-70.61315Y-64.43586
X-64.96908Y-65.91487
X-72.57772Y-71.68592
X-72.57772Y-70.73391
X-72.57772Y-69.78189
X-72.67972Y-74.49096
X-72.67972Y-73.53894
X-72.67972Y-72.58693
X-71.84636Y-74.22038
X-70.89435Y-74.22038
X-69.94234Y-74.22038
X-73.14618Y-75.809
X-72.19417Y-75.809
X-71.24216Y-75.809
X-70.38543Y-75.1902
X-69.43342Y-75.1902
X-68.48141Y-75.1902
X-72.02417Y-76.93102
X-71.07216Y-76.93102
X-70.12014Y-76.93102
X-72.43217Y-78.00203
X-71.48016Y-78.00203
X-70.52815Y-78.00203
X-71.96829Y-78.76871
X-71.01628Y-78.76871
X-70.06426Y-78.76871
X-72.58339Y-79.67933
X-71.63138Y-79.67933
X-70.67936Y-79.67933
X-72.27917Y-82.13308
X-71.32716Y-82.13308
X-70.37515Y-82.13308
X-72.29539Y-82.92334
X-71.34337Y-82.92334
X-70.39136Y-82.92334
X-72.3116Y-83.79227
X-71.35959Y-83.79227
X-70.40757Y-83.79227
X-57.59098Y-50.20667
X-58.32199Y-49.90067
X-62.72505Y-49.08466
X-58.98421Y-53.8721
X-58.0322Y-53.5661
X-54.98916Y-59.32917
X-62.33404Y-48.01364
X-61.38203Y-48.01364
X-60.43002Y-48.01364
X-81.34983Y-38.75649
X-84.8065Y-38.75649
X-83.65428Y-38.75649
X-82.50206Y-38.75649
X-85.95873Y-38.75649
X-87.11095Y-38.75649
X-88.26317Y-38.75649
X-89.41539Y-38.75649
X-75.43376Y-40.13351
X-78.89043Y-40.13351
X-77.7382Y-40.13351
X-76.58598Y-40.13351
X-80.04265Y-40.13351
X-81.19487Y-40.13351
X-82.34709Y-40.13351
X-83.49932Y-40.13351
X-77.44881Y-24.29885
X-77.44881Y-27.75552
X-77.44881Y-26.6033
X-77.44881Y-25.45107
X-77.44881Y-28.90774
X-77.44881Y-30.05997
X-77.44881Y-31.21219
X-77.44881Y-32.36441
X-77.55082Y-15.01673
X-77.55082Y-18.4734
X-77.55082Y-17.32118
X-77.55082Y-16.16895
X-77.55082Y-19.62562
X-77.55082Y-20.77785
X-77.55082Y-21.93007
X-77.55082Y-23.08229
X-77.88179Y-11.40039
X-81.33846Y-11.40039
X-80.18624Y-11.40039
X-79.03401Y-11.40039
X-82.49068Y-11.40039
X-83.6429Y-11.40039
X-84.79513Y-11.40039
X-85.94735Y-11.40039
X-78.88689Y-12.94835
X-82.34356Y-12.94835
X-81.19133Y-12.94835
X-80.03911Y-12.94835
X-83.49578Y-12.94835
X-84.648Y-12.94835
X-85.80022Y-12.94835
X-86.95245Y-12.94835
X-79.97282Y-14.32718
X-83.42949Y-14.32718
X-82.27726Y-14.32718
X-81.12504Y-14.32718
X-84.58171Y-14.32718
X-85.73393Y-14.32718
X-86.88615Y-14.32718
X-88.03838Y-14.32718
X-90.37695Y-11.87915
X-93.83362Y-11.87915
X-92.6814Y-11.87915
X-91.52917Y-11.87915
X-94.98584Y-11.87915
X-95.32205Y-10.55313
X-93.05723Y-10.91013
X-98.54451Y-11.47114
X-53.86048Y-3.10703
X-57.31715Y-3.10703
X-56.16492Y-3.10703
X-55.0127Y-3.10703
X-58.46937Y-3.10703
X-59.62159Y-3.10703
X-60.77382Y-3.10703
X-61.92604Y-3.10703
X-43.55835Y-3.10703
X-47.01501Y-3.10703
X-45.86279Y-3.10703
X-44.71057Y-3.10703
X-48.16724Y-3.10703
X-49.31946Y-3.10703
X-50.47168Y-3.10703
X-51.6239Y-3.10703
X-35.14324Y-4.22905
X-38.59991Y-4.22905
X-37.44768Y-4.22905
X-36.29546Y-4.22905
X-39.75213Y-4.22905
X-40.90435Y-4.22905
X-42.05657Y-4.22905
X-43.2088Y-4.22905
X-36.97926Y-13.40917
X-40.43593Y-13.40917
X-39.28371Y-13.40917
X-38.13148Y-13.40917
X-41.58815Y-13.40917
X-42.74037Y-13.40917
X-43.8926Y-13.40917
X-45.04482Y-13.40917
X-37.59127Y-14.53118
X-41.04794Y-14.53118
X-39.89571Y-14.53118
X-38.74349Y-14.53118
X-42.20016Y-14.53118
X-43.35238Y-14.53118
X-44.5046Y-14.53118
X-45.65683Y-14.53118
X-37.69327Y-15.60219
X-41.14994Y-15.60219
X-39.99772Y-15.60219
X-38.84549Y-15.60219
X-42.30216Y-15.60219
X-43.45438Y-15.60219
X-44.60661Y-15.60219
X-45.75883Y-15.60219
X-25.35111Y-1.06701
X-28.80778Y-1.06701
X-27.65556Y-1.06701
X-26.50333Y-1.06701
X-29.96Y-1.06701
X-31.11222Y-1.06701
X-32.26445Y-1.06701
X-33.41667Y-1.06701
X-11.68293Y-1.11801
X-15.1396Y-1.11801
X-13.98738Y-1.11801
X-12.83516Y-1.11801
X-16.29182Y-1.11801
X-17.44405Y-1.11801
X-18.59627Y-1.11801
X-19.74849Y-1.11801
X-0.72872Y-11.1405
X-4.18538Y-11.1405
X-3.03316Y-11.1405
X-1.88094Y-11.1405
X-5.33761Y-11.1405
X-6.48983Y-11.1405
X-7.64205Y-11.1405
X-8.79428Y-11.1405
X-1.47449Y-21.59564
X-4.93116Y-21.59564
X-3.77894Y-21.59564
X-2.62672Y-21.59564
X-6.08338Y-21.59564
X-7.23561Y-21.59564
X-8.38783Y-21.59564
X-9.54005Y-21.59564
X-0.81979Y-69.20389
X-4.27646Y-69.20389
X-3.12424Y-69.20389
X-1.97202Y-69.20389
X-5.42868Y-69.20389
X-6.58091Y-69.20389
X-7.73313Y-69.20389
X-8.88535Y-69.20389
X-1.3298Y-77.31299
X-4.78647Y-77.31299
X-3.63424Y-77.31299
X-2.48202Y-77.31299
X-5.93869Y-77.31299
X-7.09091Y-77.31299
X-8.24314Y-77.31299
X-9.39536Y-77.31299
X-1.5848Y-78.282
X-5.04147Y-78.282
X-3.88925Y-78.282
X-2.73703Y-78.282
X-6.19369Y-78.282
X-7.34592Y-78.282
X-8.49814Y-78.282
X-9.65036Y-78.282
X-0.71779Y-79.45502
X-4.17446Y-79.45502
X-3.02224Y-79.45502
X-1.87001Y-79.45502
X-5.32668Y-79.45502
X-6.4789Y-79.45502
X-7.63113Y-79.45502
X-8.78335Y-79.45502
X-6.62249Y-89.75715
X-7.20429Y-90.67517
X-1.55263Y-89.60415
X-2.70486Y-89.60415
X-3.85708Y-89.60415
X-5.0093Y-89.60415
X-10.50992Y-91.59318
X-11.66214Y-91.59318
X-9.35573Y-90.67517
X-9.70077Y-89.50456
X-6.9077Y-88.68614
X-33.77367Y-89.01817
X-33.11067Y-87.79416
X-32.82166Y-89.01817
X-32.15865Y-87.79416
X-31.86965Y-89.01817
X-31.20664Y-87.79416
X-30.91764Y-89.01817
X-30.25463Y-87.79416
X-34.33468Y-91.67021
X-33.67167Y-90.44619
X-33.38267Y-91.67021
X-32.71966Y-90.44619
X-32.43066Y-91.67021
X-31.76765Y-90.44619
X-31.47864Y-91.67021
X-30.81564Y-90.44619
X-26.73558Y-89.12017
X-26.07257Y-87.89616
X-25.78357Y-89.12017
X-25.12056Y-87.89616
X-24.83156Y-89.12017
X-24.16855Y-87.89616
X-23.87955Y-89.12017
X-23.21654Y-87.89616
X-27.29659Y-91.77221
X-26.63358Y-90.54819
X-26.34458Y-91.77221
X-25.68157Y-90.54819
X-25.39257Y-91.77221
X-24.72956Y-90.54819
X-24.44055Y-91.77221
X-23.77754Y-90.54819
X-30.10163Y-94.98525
X-29.43862Y-93.76123
X-29.14961Y-94.98525
X-28.48661Y-93.76123
X-28.1976Y-94.98525
X-27.53459Y-93.76123
X-27.24559Y-94.98525
X-26.58258Y-93.76123
X-30.66263Y-97.63729
X-29.99963Y-96.41327
X-29.71062Y-97.63729
X-29.04761Y-96.41327
X-28.75861Y-97.63729
X-28.0956Y-96.41327
X-27.8066Y-97.63729
X-27.14359Y-96.41327
X-23.01253Y-91.2112
X-22.34953Y-89.98719
X-22.06052Y-91.2112
X-21.39751Y-89.98719
X-21.10851Y-91.2112
X-20.4455Y-89.98719
X-20.1565Y-91.2112
X-19.49349Y-89.98719
X-23.57354Y-93.86324
X-22.91053Y-92.63922
X-22.62153Y-93.86324
X-21.95852Y-92.63922
X-21.66952Y-93.86324
X-21.00651Y-92.63922
X-20.7175Y-93.86324
X-20.0545Y-92.63922
X-54.63294Y-92.07821
X-53.96994Y-90.8542
X-53.68093Y-92.07821
X-53.01792Y-90.8542
X-52.72892Y-92.07821
X-52.06591Y-90.8542
X-51.77691Y-92.07821
X-51.1139Y-90.8542
X-55.19395Y-94.73025
X-54.53094Y-93.50623
X-54.24194Y-94.73025
X-53.57893Y-93.50623
X-53.28993Y-94.73025
X-52.62692Y-93.50623
X-52.33791Y-94.73025
X-51.67491Y-93.50623
X-61.31403Y-96.10727
X-60.65102Y-94.88325
X-60.36202Y-96.10727
X-59.69901Y-94.88325
X-59.41001Y-96.10727
X-58.747Y-94.88325
X-58.45799Y-96.10727
X-57.79498Y-94.88325
X-61.87504Y-98.7593
X-61.21203Y-97.53528
X-60.92303Y-98.7593
X-60.26002Y-97.53528
X-59.97101Y-98.7593
X-59.308Y-97.53528
X-59.019Y-98.7593
X-58.35599Y-97.53528
X-50.29789Y-96.26027
X-49.63488Y-95.03625
X-49.34588Y-96.26027
X-48.68287Y-95.03625
X-48.39386Y-96.26027
X-47.73085Y-95.03625
X-47.44185Y-96.26027
X-46.77884Y-95.03625
X-50.85889Y-98.9123
X-50.19589Y-97.68829
X-49.90688Y-98.9123
X-49.24387Y-97.68829
X-48.95487Y-98.9123
X-48.29186Y-97.68829
X-48.00286Y-98.9123
X-47.33985Y-97.68829
X-63.21464Y-80.56565
X-62.55163Y-79.34163
X-62.26263Y-80.56565
X-61.59962Y-79.34163
X-61.31061Y-80.56565
X-60.64761Y-79.34163
X-60.3586Y-80.56565
X-59.69559Y-79.34163
X-63.77565Y-83.21768
X-63.11264Y-81.99367
X-62.82363Y-83.21768
X-62.16062Y-81.99367
X-61.87162Y-83.21768
X-61.20861Y-81.99367
X-57.45156Y-84.03369
X-56.43155Y-82.70768
X-56.77497Y-91.97621
X-63.60906Y-89.47718
X-60.56602Y-86.72314
X-59.90301Y-85.49913
X-59.61401Y-86.72314
X-58.951Y-85.49913
X-58.662Y-86.72314
X-57.99899Y-85.49913
X-62.07904Y-89.37518
X-61.41603Y-88.15116
X-61.12703Y-89.37518
X-60.46402Y-88.15116
X-60.17502Y-89.37518
X-59.51201Y-88.15116
X-59.223Y-89.37518
X-58.55999Y-88.15116
X-79.67026Y-95.28652
X-78.71824Y-95.28652
X-77.76623Y-95.28652
X-81.14928Y-98.75456
X-80.19726Y-98.75456
X-79.24525Y-98.75456
X-77.47723Y-98.95856
X-76.52522Y-98.95856
X-75.5732Y-98.95856
X-78.47475Y-98.08302
X-78.47475Y-97.13101
X-78.47475Y-96.179
X-74.36748Y-98.30425
X-74.36748Y-97.35224
X-74.36748Y-96.40023
X-75.79421Y-87.63642
X-74.84219Y-87.63642
X-73.89018Y-87.63642
X-83.0873Y-90.18645
X-82.13529Y-90.18645
X-81.18328Y-90.18645
X-62.27903Y-17.51051
X-52.0449Y-13.63446
X-58.67395Y-18.73452
X-62.414Y-18.58152
X-61.92203Y-20.72355
X-62.24503Y-19.60154
X-60.29001Y-20.92755
X-59.33799Y-20.92755
X-58.38598Y-20.92755
X-60.49401Y-19.80554
X-59.542Y-19.80554
X-58.58998Y-19.80554
X-60.59601Y-21.84556
X-59.644Y-21.84556
X-58.69199Y-21.84556
X-60.80001Y-23.06958
X-59.848Y-23.06958
X-58.89599Y-23.06958
X-48.52585Y-28.57765
X-50.22588Y-26.48662
X-47.48144Y-31.85169
X-48.43345Y-31.85169
X-49.38546Y-31.85169
X-60.49401Y-28.52665
X-59.542Y-28.52665
X-62.36403Y-28.73065
X-60.85101Y-29.95467
X-59.899Y-29.95467
X-62.41503Y-29.75067
X-62.12603Y-31.07668
X-61.17402Y-31.07668
X-60.22201Y-31.07668
X-64.01305Y-32.0967
X-63.06104Y-32.0967
X-62.10903Y-32.0967
X-61.97303Y-26.28262
X-61.02102Y-26.28262
X-60.069Y-26.28262
X-85.28033Y-6.69837
X-84.32832Y-6.69837
X-83.37631Y-6.69837
X-85.89234Y-8.12639
X-84.94033Y-8.12639
X-83.98831Y-8.12639
X-65.03307Y-2.00631
X-64.08106Y-2.00631
X-63.12904Y-2.00631
X-94.66101Y-74.09995
X-98.11768Y-74.09995
X-96.96545Y-74.09995
X-95.81323Y-74.09995
X-93.27514Y-73.26987
X-95.57959Y-73.26987
X-94.42737Y-73.26987
X-92.76514Y-71.38285
X-95.06958Y-71.38285
X-93.91736Y-71.38285
X-93.47915Y-72.35186
X-95.78359Y-72.35186
X-94.63137Y-72.35186
X-90.12252Y-58.27568
X-90.73453Y-58.98969
X-92.82555Y-63.06974
X-91.80554Y-60.0097
X-92.87655Y-65.21177
X-92.92755Y-65.97678
X-92.87655Y-69.08782
X-94.04957Y-70.36283
X-88.5415Y-31.04132
X-87.47048Y-32.26534
X-86.45047Y-33.64236
X-97.21161Y-37.31441
X-97.26261Y-35.78439
X-41.50839Y-30.18996
X-39.20394Y-30.18996
X-38.05172Y-30.18996
X-36.8995Y-30.18996
X-35.74727Y-30.18996
X-40.35617Y-30.18996
X-43.81283Y-30.18996
X-42.66061Y-30.18996
X-43.03147Y-21.30733
X-43.03147Y-23.61177
X-43.03147Y-24.764
X-43.03147Y-25.91622
X-43.03147Y-27.06844
X-43.03147Y-22.45955
X-43.03147Y-19.00288
X-43.03147Y-20.15511
X-41.50839Y-6.01564
X-39.20394Y-6.01564
X-38.05172Y-6.01564
X-36.8995Y-6.01564
X-35.74727Y-6.01564
X-40.35617Y-6.01564
X-43.81283Y-6.01564
X-42.66061Y-6.01564
X-62.00983Y-16.36469
X-54.58452Y-13.71266
X-59.67321Y-18.14972
X-57.19497Y-14.63067
X-0.84582Y-15.02615
X-0.84582Y-17.33059
X-0.84582Y-18.48282
X-0.84582Y-19.63504
X-0.84582Y-20.78726
X-0.84582Y-16.17837
X-0.84582Y-12.7217
X-0.84582Y-13.87392
X-0.79482Y-25.22628
X-0.79482Y-27.53072
X-0.79482Y-28.68295
X-0.79482Y-29.83517
X-0.79482Y-30.98739
X-0.79482Y-26.3785
X-0.79482Y-22.92183
X-0.79482Y-24.07406
X-55.72096Y-73.87098
X-54.76895Y-73.87098
X-53.81693Y-73.87098
X-55.96445Y-72.58614
X-55.01244Y-72.58614
X-54.06042Y-72.58614
X-55.82296Y-71.47395
X-54.87095Y-71.47395
X-53.91893Y-71.47395
X-52.46445Y-70.46115
X-51.51244Y-70.46115
X-50.56043Y-70.46115
X-51.74291Y-71.57595
X-50.79089Y-71.57595
X-49.83888Y-71.57595
X-54.95595Y-74.63599
X-54.00394Y-74.63599
X-53.05192Y-74.63599
X-44.55181Y-74.12598
X-46.25184Y-72.18796
X-45.29982Y-72.18796
X-44.44981Y-73.15697
X-46.45584Y-73.30997
X-45.50383Y-73.30997
X-47.45885Y-74.53399
X-46.50684Y-74.53399
X-45.55483Y-74.53399
X-45.59837Y-64.61383
X-45.59837Y-63.66182
X-45.59837Y-62.7098
X-50.9269Y-65.14986
X-49.97488Y-65.14986
X-49.02287Y-65.14986
X-36.49371Y-61.88582
X-35.5417Y-61.88582
X-34.58968Y-61.88582
X-25.91212Y-60.53378
X-25.91212Y-59.58176
X-25.91212Y-58.62975
X-20.35305Y-58.23875
X-20.35305Y-57.28673
X-20.35305Y-56.33472
X-14.15542Y-49.23766
X-13.20341Y-49.23766
X-12.2514Y-49.23766
X-11.75839Y-47.65664
X-10.80638Y-47.65664
X-9.85436Y-47.65664
X-11.91139Y-40.77155
X-10.95938Y-40.77155
X-10.00737Y-40.77155
X-11.29938Y-39.70054
X-10.34737Y-39.70054
X-9.39536Y-39.70054
X-8.23934Y-40.41454
X-7.28733Y-40.41454
X-6.33532Y-40.41454
X-3.39428Y-31.99944
X-2.44227Y-31.99944
X-1.49026Y-31.99944
X-2.27227Y-35.00847
X-1.32025Y-35.00847
X-0.72525Y-33.47845
X-28.0786Y-32.30544
X-27.12659Y-32.30544
X-26.17458Y-32.30544
X-25.27356Y-44.5966
X-32.07365Y-39.19053
X-31.12164Y-39.19053
X-26.60059Y-39.12383
X-24.98557Y-46.21292
X-24.03356Y-46.21292
X-20.81973Y-38.79207
X-19.00071Y-38.79207
X-22.58775Y-41.90311
X-25.06034Y-40.37309
X-25.57979Y-45.72816
X-25.03578Y-39.30207
X-27.56859Y-39.13953
X-23.76054Y-35.11048
X-22.70653Y-35.11048
X-22.57053Y-38.84229
X-24.37255Y-42.56534
X-22.60453Y-39.91331
X-16.96046Y-39.44553
X-24.16855Y-37.3035
X-20.97251Y-39.64953
X-23.33554Y-30.87742
X-23.55654Y-33.63146
X-22.60453Y-33.63146
X-30.67963Y-27.66438
X-29.72762Y-27.66438
X-28.77561Y-27.66438
X-55.36474Y-32.4842
X-57.76177Y-32.3312
X-53.68172Y-32.2802
X-51.28469Y-32.3312
X-21.4493Y-49.97743
X-23.76983Y-55.664
X-23.79533Y-57.01552
X-55.83951Y-17.74501
X-67.8599Y-32.1782
X-72.14396Y-15.04197
X-70.30793Y-15.04197
X-133.15496Y-24.76929
X-133.15496Y-25.92152
X-133.15496Y-23.61707
X-133.15496Y-27.07374
X-133.15496Y-28.22596
X-133.15496Y-44.69172
X-133.15496Y-52.75728
X-133.15496Y-51.60506
X-133.15496Y-50.45283
X-133.15496Y-49.30061
X-133.15496Y-45.84394
X-133.15496Y-46.99616
X-133.15496Y-48.14839
X-133.10396Y-33.88703
X-133.10396Y-32.73481
X-133.10396Y-31.58259
X-133.10396Y-30.43037
X-133.10396Y-29.27814
X-133.05296Y-35.1036
X-133.05296Y-43.16915
X-133.05296Y-42.01693
X-133.05296Y-40.86471
X-133.05296Y-39.71249
X-133.05296Y-36.25582
X-133.05296Y-37.40804
X-133.05296Y-38.56026
X-133.14153Y-19.17603
X-133.14153Y-20.32826
X-133.14153Y-15.71936
X-133.14153Y-18.02381
X-133.14153Y-12.2627
X-133.14153Y-13.41492
X-133.14153Y-8.84369
X-133.14153Y-7.69147
X-133.14153Y-16.87159
X-133.14153Y-5.38702
X-133.14153Y-14.56714
X-133.14153Y-4.2348
X-133.14153Y-9.99591
X-133.14153Y-3.08258
X-133.14153Y-6.53925
X-133.14153Y-11.14814
X-114.3947Y-2.57984
X-113.24247Y-2.57984
X-117.85136Y-2.57984
X-115.54692Y-2.57984
X-121.30803Y-2.57984
X-120.15581Y-2.57984
X-124.72704Y-2.57984
X-125.87926Y-2.57984
X-116.69914Y-2.57984
X-128.18371Y-2.57984
X-119.00359Y-2.57984
X-129.33593Y-2.57984
X-123.57482Y-2.57984
X-130.48815Y-2.57984
X-127.03148Y-2.57984
X-122.42259Y-2.57984
X-115.10871Y-4.97688
X-113.95648Y-4.97688
X-118.56537Y-4.97688
X-116.26093Y-4.97688
X-122.02204Y-4.97688
X-120.86982Y-4.97688
X-125.44105Y-4.97688
X-126.59327Y-4.97688
X-117.41315Y-4.97688
X-128.89772Y-4.97688
X-119.7176Y-4.97688
X-130.04994Y-4.97688
X-124.28882Y-4.97688
X-131.20216Y-4.97688
X-127.74549Y-4.97688
X-123.1366Y-4.97688
X-51.17916Y-53.7292
X-50.38865Y-54.72371
X-91.90319Y-61.29957
X-74.10396Y-89.35316
X-79.96903Y-81.75406
X-85.57911Y-87.51713
X-66.70886Y-84.35509
X-94.8994Y-78.46362
X-92.40813Y-78.93094
X-90.87811Y-78.11493
X-87.30807Y-83.92901
X-92.35713Y-83.011
X-98.34991Y-78.1415
X-131.89894Y-74.73799
X-131.23594Y-73.51397
X-130.94693Y-74.73799
X-130.28392Y-73.51397
X-129.99492Y-74.73799
X-132.34095Y-73.61597
X-129.33191Y-73.51397
X-129.04291Y-74.73799
X-128.3799Y-73.51397
X-127.97111Y-74.68037
X-131.94994Y-77.69603
X-131.28694Y-76.47201
X-130.99793Y-77.69603
X-130.33492Y-76.47201
X-130.04592Y-77.69603
X-132.39195Y-76.57401
X-129.38291Y-76.47201
X-129.09391Y-77.69603
X-128.4309Y-76.47201
X-128.02211Y-77.63841
X-103.54258Y-82.74509
X-102.87957Y-81.52108
X-102.59056Y-82.74509
X-101.92756Y-81.52108
X-101.63855Y-82.74509
X-103.98458Y-81.62308
X-100.97554Y-81.52108
X-100.68654Y-82.74509
X-100.02353Y-81.52108
X-99.61474Y-82.68747
X-86.66136Y-81.77608
X-85.99835Y-80.55206
X-85.70935Y-81.77608
X-85.04634Y-80.55206
X-84.75733Y-81.77608
X-87.10336Y-80.65407
X-84.09433Y-80.55206
X-83.80532Y-81.77608
X-83.14231Y-80.55206
X-82.73352Y-81.71846
X-84.87634Y-49.95167
X-84.21333Y-48.72765
X-83.92432Y-49.95167
X-83.26131Y-48.72765
X-82.97231Y-49.95167
X-85.31834Y-48.82965
X-82.3093Y-48.72765
X-82.0203Y-49.95167
X-81.35729Y-48.72765
X-80.9485Y-49.89405
X-84.97834Y-46.89163
X-84.31533Y-45.66761
X-84.02632Y-46.89163
X-83.36332Y-45.66761
X-83.07431Y-46.89163
X-85.42034Y-45.76961
X-82.4113Y-45.66761
X-82.1223Y-46.89163
X-81.45929Y-45.66761
X-81.0505Y-46.83401
X-74.3702Y-53.98072
X-73.70719Y-52.7567
X-73.41819Y-53.98072
X-72.75518Y-52.7567
X-72.46617Y-53.98072
X-74.8122Y-52.85871
X-71.80317Y-52.7567
X-71.51416Y-53.98072
X-70.85115Y-52.7567
X-70.44236Y-53.9231
X-76.00222Y-57.34676
X-75.33921Y-56.12275
X-75.05021Y-57.34676
X-74.3872Y-56.12275
X-74.0982Y-57.34676
X-76.44423Y-56.22475
X-73.43519Y-56.12275
X-73.14618Y-57.34676
X-72.48317Y-56.12275
X-72.07438Y-57.28915
X-81.51029Y-65.60887
X-80.84728Y-64.38485
X-80.55828Y-65.60887
X-79.89527Y-64.38485
X-79.60627Y-65.60887
X-81.9523Y-64.48686
X-78.94326Y-64.38485
X-78.65425Y-65.60887
X-77.99125Y-64.38485
X-77.58245Y-65.55125
X-77.85599Y-75.23721
X-79.08Y-74.5742
X-77.85599Y-74.2852
X-79.08Y-73.62219
X-77.85599Y-73.33319
X-78.978Y-75.67922
X-79.08Y-72.67018
X-77.85599Y-72.38117
X-79.08Y-71.71816
X-77.9136Y-71.30937
X-39.06651Y-45.03358
X-38.5565Y-46.1046
X-64.62506Y-23.37558
X-64.42106Y-22.15157
X-63.67305Y-23.37558
X-63.46905Y-22.15157
X-62.72104Y-23.37558
X-62.51704Y-22.15157
X-65.13507Y-25.72161
X-64.93107Y-24.4976
X-64.18306Y-25.72161
X-63.97905Y-24.4976
X-63.23104Y-25.72161
X-63.02704Y-24.4976
X-65.79808Y-28.42465
X-65.59408Y-27.20063
X-64.84607Y-28.42465
X-64.64206Y-27.20063
X-63.89405Y-28.42465
X-63.69005Y-27.20063
X-69.52113Y-27.71064
X-69.31712Y-26.48662
X-68.56911Y-27.71064
X-68.36511Y-26.48662
X-67.6171Y-27.71064
X-67.4131Y-26.48662
X-72.37716Y-24.6506
X-72.17316Y-23.42659
X-71.42515Y-24.6506
X-71.22115Y-23.42659
X-70.47314Y-24.6506
X-70.26914Y-23.42659
X-72.42816Y-21.74356
X-72.22416Y-20.51955
X-71.47615Y-21.74356
X-71.27215Y-20.51955
X-70.52414Y-21.74356
X-70.32014Y-20.51955
X-72.32616Y-18.68352
X-72.12216Y-17.45951
X-71.37415Y-18.68352
X-71.17015Y-17.45951
X-70.42214Y-18.68352
X-70.21813Y-17.45951
X-68.85812Y-17.25551
X-68.65411Y-16.03149
X-67.9061Y-17.25551
X-67.7021Y-16.03149
X-66.95409Y-17.25551
X-66.75009Y-16.03149
X-68.60311Y-19.55053
X-68.39911Y-18.32652
X-67.6511Y-19.55053
X-67.4471Y-18.32652
X-66.69909Y-19.55053
X-66.49509Y-18.32652
X-68.70512Y-22.50857
X-68.50111Y-21.28456
X-67.7531Y-22.50857
X-67.5491Y-21.28456
X-66.80109Y-22.50857
X-66.59709Y-21.28456
X-73.04017Y-32.4537
X-72.83617Y-31.22969
X-72.08816Y-32.4537
X-71.88416Y-31.22969
X-71.13615Y-32.4537
X-70.93214Y-31.22969
X-81.86329Y-32.3007
X-81.65928Y-31.07668
X-80.91127Y-32.3007
X-80.70727Y-31.07668
X-79.95926Y-32.3007
X-79.75526Y-31.07668
X-69.16412Y-39.8998
X-68.96012Y-38.67578
X-68.21211Y-39.8998
X-68.00811Y-38.67578
X-67.2601Y-39.8998
X-67.05609Y-38.67578
X-71.30615Y-51.27295
X-71.10215Y-50.04893
X-70.35414Y-51.27295
X-70.15013Y-50.04893
X-69.40212Y-51.27295
X-69.19812Y-50.04893
X-77.32423Y-46.52988
X-77.12022Y-45.30587
X-76.37221Y-46.52988
X-76.16821Y-45.30587
X-75.4202Y-46.52988
X-75.2162Y-45.30587
X-69.95562Y-57.02596
X-71.17964Y-56.82196
X-69.95562Y-56.07395
X-71.17964Y-55.86995
X-69.95562Y-55.12194
X-71.17964Y-54.91794
X-31.77341Y-51.25566
X-115.18847Y-70.68115
X-113.96445Y-70.39215
X-115.18847Y-69.72914
X-114.02207Y-69.32035
X-108.67664Y-46.58562
X-108.38764Y-47.80964
X-107.72463Y-46.58562
X-107.31584Y-47.75202
X-109.08465Y-63.41584
X-108.79564Y-64.63986
X-108.13264Y-63.41584
X-107.72384Y-64.58224
X-103.01557Y-32.96845
X-102.72657Y-34.19246
X-102.06356Y-32.96845
X-101.65476Y-34.13485
X-115.15373Y-35.26348
X-114.86472Y-36.48749
X-114.20171Y-35.26348
X-113.79292Y-36.42988
X-102.96457Y-35.97749
X-102.67557Y-37.2015
X-102.01256Y-35.97749
X-101.60376Y-37.14389
X-103.78058Y-15.22022
X-103.49158Y-16.44423
X-102.82857Y-15.22022
X-102.41977Y-16.38662
X-109.13565Y-18.94327
X-108.84665Y-20.16728
X-108.18364Y-18.94327
X-107.77484Y-20.10967
X-113.1137Y-6.3971
X-112.8247Y-7.62112
X-112.16169Y-6.3971
X-111.7529Y-7.5635
X-109.54365Y-6.70311
X-109.25465Y-7.92712
X-108.59164Y-6.70311
X-108.18285Y-7.86951
X-106.43261Y-6.80511
X-106.14361Y-8.02913
X-105.4806Y-6.80511
X-105.07181Y-7.97151
X-69.30413Y-2.62306
X-69.01513Y-3.84707
X-68.35212Y-2.62306
X-67.94333Y-3.78945
X-66.7031Y-11.24217
X-66.4141Y-12.46618
X-65.75109Y-11.24217
X-65.3423Y-12.40857
X-69.15113Y-13.5882
X-68.86213Y-14.81221
X-68.19912Y-13.5882
X-67.79033Y-14.7546
T02
X-23.45454Y-22.25831
T03
X-40.63413Y-71.1343
X-43.17413Y-71.1343
X-40.74554Y-20.95559
X-40.74554Y-18.41559
X-40.84755Y-26.56566
X-40.84755Y-24.02566
X-27.97002Y-61.04056
X-27.97002Y-58.50056
X-29.51097Y-23.14769
X-29.51097Y-25.68769
X-24.24932Y-64.61462
X-21.70932Y-64.61462
T04
X-26.92835Y-2.76407
X-26.92835Y-5.30407
X-26.92835Y-7.84407
X-16.14378Y-97.34864
X-13.60378Y-97.34864
X-20.32376Y-2.76407
X-20.32376Y-5.30407
X-20.32376Y-7.84407
X-13.71918Y-2.76407
X-13.71918Y-5.30407
X-13.71918Y-7.84407
X-2.48062Y-86.02147
X-2.48062Y-83.48147
X-97.46943Y-51.9055
X-97.46943Y-54.4455
X-97.46943Y-56.9855
X-97.46943Y-59.5255
X-97.46943Y-26.32867
X-97.46943Y-28.86867
X-97.46943Y-31.40867
X-97.46943Y-33.94867
X-97.46943Y-13.54026
X-97.46943Y-16.08026
X-97.46943Y-18.62026
X-97.46943Y-21.16026
X-97.46943Y-64.69392
X-97.46943Y-67.23392
X-97.46943Y-69.77392
X-97.46943Y-72.31392
X-80.49624Y-97.18134
X-83.03624Y-97.18134
X-85.57624Y-97.18134
X-2.76121Y-24.31143
X-2.76121Y-26.85143
X-2.76121Y-29.39143
X-97.46943Y-39.11709
X-97.46943Y-41.65709
X-97.46943Y-44.19709
X-97.46943Y-46.73709
X-2.76121Y-13.85629
X-2.76121Y-16.39629
X-2.76121Y-18.93629
X-2.3022Y-75.70505
X-2.3022Y-73.16505
X-129.68692Y-36.21623
X-129.68692Y-33.67623
X-129.68692Y-31.13623
X-129.68692Y-28.59623
X-129.68692Y-69.86652
X-129.68692Y-67.32652
X-129.68692Y-64.78652
X-129.68692Y-62.24652
X-129.68692Y-19.39108
X-129.68692Y-16.85108
X-129.68692Y-14.31108
X-129.68692Y-11.77108
X-129.68692Y-53.04137
X-129.68692Y-50.50137
X-129.68692Y-47.96137
X-129.68692Y-45.42137
X-83.4661Y-75.12075
X-83.4661Y-72.58075
X-83.4661Y-70.04075
X-83.4661Y-67.50075
X-83.3131Y-61.29957
X-83.3131Y-58.75957
X-83.3131Y-56.21957
X-83.3131Y-53.67957
X-72.25098Y-2.49581
X-74.79098Y-2.49581
T05
X-53.21877Y-89.20212
X-55.71877Y-89.20212
X-55.71877Y-87.20212
X-53.21877Y-87.20212
X-104.39059Y-39.68935
X-106.93059Y-39.68935
X-109.47059Y-39.68935
X-112.01059Y-39.68935
X-114.55059Y-39.68935
X-117.09059Y-39.68935
X-119.63059Y-39.68935
X-122.17059Y-39.68935
X-104.39059Y-26.88935
X-106.93059Y-26.88935
X-109.47059Y-26.88935
X-112.01059Y-26.88935
X-114.55059Y-26.88935
X-117.09059Y-26.88935
X-119.63059Y-26.88935
X-122.17059Y-26.88935
X-104.39059Y-73.52335
X-106.93059Y-73.52335
X-109.47059Y-73.52335
X-112.01059Y-73.52335
X-114.55059Y-73.52335
X-117.09059Y-73.52335
X-119.63059Y-73.52335
X-122.17059Y-73.52335
X-104.39059Y-60.56835
X-106.93059Y-60.56835
X-109.47059Y-60.56835
X-112.01059Y-60.56835
X-114.55059Y-60.56835
X-117.09059Y-60.56835
X-119.63059Y-60.56835
X-122.17059Y-60.56835
X-104.39059Y-22.77235
X-106.93059Y-22.77235
X-109.47059Y-22.77235
X-112.01059Y-22.77235
X-114.55059Y-22.77235
X-117.09059Y-22.77235
X-119.63059Y-22.77235
X-122.17059Y-22.77235
X-104.0177Y-9.97235
X-106.5577Y-9.97235
X-109.0977Y-9.97235
X-111.6377Y-9.97235
X-114.1777Y-9.97235
X-116.7177Y-9.97235
X-119.2577Y-9.97235
X-121.7977Y-9.97235
X-104.39059Y-56.60635
X-106.93059Y-56.60635
X-109.47059Y-56.60635
X-112.01059Y-56.60635
X-114.55059Y-56.60635
X-117.09059Y-56.60635
X-119.63059Y-56.60635
X-122.17059Y-56.60635
X-104.39059Y-43.80635
X-106.93059Y-43.80635
X-109.47059Y-43.80635
X-112.01059Y-43.80635
X-114.55059Y-43.80635
X-117.09059Y-43.80635
X-119.63059Y-43.80635
X-122.17059Y-43.80635
T06
X-51.59284Y-8.44822
X-48.82272Y-8.44822
X-46.05285Y-8.44822
X-43.28273Y-8.44822
X-52.97791Y-11.2882
X-50.20778Y-11.2882
X-44.66779Y-11.2882
X-41.89792Y-11.2882
X-47.43791Y-11.2882
X-2.0982Y-67.3309
X-2.0982Y-64.7909
X-2.0982Y-62.2509
X-2.0982Y-59.7109
X-48.82517Y-40.2789
X-46.28517Y-40.2789
X-43.74517Y-40.2789
X-41.20517Y-40.2789
X-48.82517Y-45.42997
X-46.28517Y-45.42997
X-43.74517Y-45.42997
X-41.20517Y-45.42997
T07
X-117.45788Y-79.57641
X-103.25758Y-85.57589
X-105.25755Y-91.57587
X-105.25755Y-79.5759
T08
X-71.50006Y-95.09031
X-66.42006Y-95.09031
X-129.38867Y-83.80412
X-129.38867Y-88.88412
T09
X-48.44875Y-91.9122
X-60.48876Y-91.9122
T10
X-34.93781Y-9.86834
X-59.93776Y-9.86834
M30