G04 Layer: DrillDrawingLayer*
G04 EasyEDA Pro v2.2.32.3, 2025-11-28 17:47:01*
G04 Gerber Generator version 0.3*
G04 Scale: 100 percent, Rotated: No, Reflected: No*
G04 Dimensions in millimeters*
G04 Leading zeros omitted, absolute positions, 3 integers and 5 decimals*
%FSLAX35Y35*%
%MOMM*%
%AMIconRect*4,1,4,0.2,-0.2,-0.2,-0.2,-0.2,0.2,0.2,0.2,0.2,-0.2,0*4,0,4,0.166667,-0.166667,0.166667,0.166667,-0.166667,0.166667,-0.166667,-0.166667,0.166667,-0.166667,0*%
%AMIconTriangle*4,1,3,-0.242567,0.171767,0.242567,0.171767,0,-0.2706,-0.242567,0.171767,0*4,0,3,-0.189767,0.1386,0,-0.1953,0.190167,0.1386,-0.189767,0.1386,0*%
%AMIconStar6*4,1,12,0.0862,0.1492,0.213233,0.123367,0.172367,0,0.213233,-0.1229,0.0862,-0.148733,0,-0.245767,-0.085767,-0.148733,-0.213267,-0.1229,-0.171933,0,-0.213267,0.1229,-0.085767,0.1492,0,0.245767,0.0862,0.1492,0*4,0,12,-0.000333,0.195333,-0.064333,0.122667,-0.169667,0.097667,-0.138333,-0.005333,-0.169667,-0.098,-0.064333,-0.122667,-0.000333,-0.195667,0.064333,-0.122667,0.169667,-0.098,0.138667,0.005,0.169667,0.098,0.064333,0.122333,-0.000333,0.195333,0*%
%AMIconStar4*4,1,8,-0.222667,0.222667,0,0.144667,0.222667,0.222667,0.144667,0,0.222667,-0.222667,0,-0.144667,-0.217433,-0.222667,-0.144667,0,-0.222667,0.222667,0*4,0,8,0.166667,-0.166667,0.108,0,0.166667,0.166667,0,0.108,-0.166667,0.166667,-0.108,0,-0.166667,-0.166667,0,-0.108,0.166667,-0.166667,0*%
%AMIconPlus*4,1,12,0.124,-0.2,-0.124,-0.2,-0.124,-0.124,-0.2,-0.124,-0.2,0.124,-0.124,0.124,-0.124,0.2,0.124,0.2,0.124,0.124,0.2,0.124,0.2,-0.124,0.124,-0.124,0.124,-0.2,0*4,0,12,0.090667,-0.166667,0.090667,-0.090667,0.166667,-0.090667,0.166667,0.090667,0.090667,0.090667,0.090667,0.166667,-0.090667,0.166667,-0.090667,0.090667,-0.166667,0.090667,-0.166667,-0.090667,-0.090667,-0.090667,-0.090667,-0.166667,0.090667,-0.166667,0*%
%AMIconX*4,1,16,0.2,-0.2,0.054533,-0.2,0,-0.145467,-0.054533,-0.2,-0.2,-0.2,-0.2,-0.054533,-0.145467,0,-0.2,0.054533,-0.2,0.2,-0.054533,0.2,0,0.145467,0.054533,0.2,0.2,0.2,0.2,0.054533,0.145467,0,0.2,-0.054533,0.2,-0.2,0*4,0,16,0.1668,-0.1664,0.1668,-0.068467,0.097933,0.000067,0.1668,0.068467,0.1668,0.1665,0.068467,0.1665,0,0.097933,-0.068467,0.1665,-0.1668,0.1665,-0.1668,0.068467,-0.097933,0.000067,-0.1668,-0.068467,-0.1668,-0.1664,-0.068467,-0.1664,0,-0.097933,0.068467,-0.1664,0.1668,-0.1664,0*%
%AMIconDiamond*4,1,4,0,-0.26,-0.26,0,0,0.26,0.26,0,0,-0.26,0*4,0,4,0,-0.203433,0.203433,0,0,0.2036,-0.203433,0,0,-0.203433,0*%
%AMIconRect2*4,1,6,0.2,-0.2,-0.2,-0.2,-0.2,0.2,-0.1668,0.1665,-0.166667,-0.166667,0.1668,-0.166667,0.2,-0.2,0*4,1,6,0.2,-0.2,0.1668,-0.166667,0.1668,0.1665,-0.1668,0.1665,-0.2,0.2,0.2,0.2,0.2,-0.2,0*4,1,6,0.133467,-0.133333,-0.133333,-0.133333,-0.133333,0.133467,-0.1,0.100133,-0.1,-0.1,0.100133,-0.1,0.133467,-0.133333,0*4,1,6,0.133467,-0.133333,0.100133,-0.1,0.100133,0.100133,-0.1,0.100133,-0.133333,0.133467,0.133467,0.133467,0.133467,-0.133333,0*%
%AMCharA*4,1,8,-0.122067,-0.1864,-0.1532,-0.174533,-0.015133,0.1864,0.016,0.1864,0.1532,-0.174533,0.122067,-0.1864,0.0764,-0.0662,-0.076133,-0.0662,-0.122067,-0.1864,0*4,0,3,-0.063333,-0.032867,0.063667,-0.032867,0.000333,0.1338,-0.063333,-0.032867,0*%
%ADD10IconRect*%
%ADD11C,0.44X0.373333*%
%ADD12IconTriangle*%
%ADD13IconStar6*%
%ADD14IconStar4*%
%ADD15IconPlus*%
%ADD16IconX*%
%ADD17IconDiamond*%
%ADD18IconRect2*%
%ADD19CharA*%
G75*


G04 Drill Drawing Start*
G54D10*
G01X-2345454Y-2225831D03*
G54D11*
G01X-5993776Y-986834D03*
G01X-3493781Y-986834D03*
G54D12*
G01X-6048876Y-9191220D03*
G01X-4844875Y-9191220D03*
G54D13*
G01X-11745788Y-7957641D03*
G01X-10525755Y-9157587D03*
G01X-10525755Y-7957590D03*
G01X-10325758Y-8557589D03*
G54D14*
G01X-12938867Y-8888412D03*
G01X-12938867Y-8380412D03*
G01X-7150006Y-9509031D03*
G01X-6642006Y-9509031D03*
G54D15*
G01X-4317413Y-7113430D03*
G01X-4084755Y-2656566D03*
G01X-4084755Y-2402566D03*
G01X-4074554Y-2095559D03*
G01X-4074554Y-1841559D03*
G01X-4063413Y-7113430D03*
G01X-2951097Y-2568769D03*
G01X-2951097Y-2314769D03*
G01X-2797002Y-6104056D03*
G01X-2797002Y-5850056D03*
G01X-2424932Y-6461462D03*
G01X-2170932Y-6461462D03*
G54D16*
G01X-5297791Y-1128820D03*
G01X-5159284Y-844822D03*
G01X-5020778Y-1128820D03*
G01X-4882517Y-4542997D03*
G01X-4882517Y-4027890D03*
G01X-4882272Y-844822D03*
G01X-4743791Y-1128820D03*
G01X-4628517Y-4542997D03*
G01X-4628517Y-4027890D03*
G01X-4605285Y-844822D03*
G01X-4466779Y-1128820D03*
G01X-4374517Y-4542997D03*
G01X-4374517Y-4027890D03*
G01X-4328273Y-844822D03*
G01X-4189792Y-1128820D03*
G01X-4120517Y-4542997D03*
G01X-4120517Y-4027890D03*
G01X-209820Y-6733090D03*
G01X-209820Y-6479090D03*
G01X-209820Y-6225090D03*
G01X-209820Y-5971090D03*
G54D17*
G01X-12217059Y-7352335D03*
G01X-12217059Y-6056835D03*
G01X-12217059Y-5660635D03*
G01X-12217059Y-4380635D03*
G01X-12217059Y-3968935D03*
G01X-12217059Y-2688935D03*
G01X-12217059Y-2277235D03*
G01X-12179770Y-997235D03*
G01X-11963059Y-7352335D03*
G01X-11963059Y-6056835D03*
G01X-11963059Y-5660635D03*
G01X-11963059Y-4380635D03*
G01X-11963059Y-3968935D03*
G01X-11963059Y-2688935D03*
G01X-11963059Y-2277235D03*
G01X-11925770Y-997235D03*
G01X-11709059Y-7352335D03*
G01X-11709059Y-6056835D03*
G01X-11709059Y-5660635D03*
G01X-11709059Y-4380635D03*
G01X-11709059Y-3968935D03*
G01X-11709059Y-2688935D03*
G01X-11709059Y-2277235D03*
G01X-11671770Y-997235D03*
G01X-11455059Y-7352335D03*
G01X-11455059Y-6056835D03*
G01X-11455059Y-5660635D03*
G01X-11455059Y-4380635D03*
G01X-11455059Y-3968935D03*
G01X-11455059Y-2688935D03*
G01X-11455059Y-2277235D03*
G01X-11417770Y-997235D03*
G01X-11201059Y-7352335D03*
G01X-11201059Y-6056835D03*
G01X-11201059Y-5660635D03*
G01X-11201059Y-4380635D03*
G01X-11201059Y-3968935D03*
G01X-11201059Y-2688935D03*
G01X-11201059Y-2277235D03*
G01X-11163770Y-997235D03*
G01X-10947059Y-7352335D03*
G01X-10947059Y-6056835D03*
G01X-10947059Y-5660635D03*
G01X-10947059Y-4380635D03*
G01X-10947059Y-3968935D03*
G01X-10947059Y-2688935D03*
G01X-10947059Y-2277235D03*
G01X-10909770Y-997235D03*
G01X-10693059Y-7352335D03*
G01X-10693059Y-6056835D03*
G01X-10693059Y-5660635D03*
G01X-10693059Y-4380635D03*
G01X-10693059Y-3968935D03*
G01X-10693059Y-2688935D03*
G01X-10693059Y-2277235D03*
G01X-10655770Y-997235D03*
G01X-10439059Y-7352335D03*
G01X-10439059Y-6056835D03*
G01X-10439059Y-5660635D03*
G01X-10439059Y-4380635D03*
G01X-10439059Y-3968935D03*
G01X-10439059Y-2688935D03*
G01X-10439059Y-2277235D03*
G01X-10401770Y-997235D03*
G01X-5571877Y-8920212D03*
G01X-5571877Y-8720212D03*
G01X-5321877Y-8920212D03*
G01X-5321877Y-8720212D03*
G54D18*
G01X-12968692Y-3621623D03*
G01X-12968692Y-3367623D03*
G01X-12968692Y-3113623D03*
G01X-12968692Y-2859623D03*
G01X-12968692Y-1939108D03*
G01X-12968692Y-1685108D03*
G01X-12968692Y-1431108D03*
G01X-12968692Y-1177108D03*
G01X-12968692Y-5304137D03*
G01X-12968692Y-5050137D03*
G01X-12968692Y-4796137D03*
G01X-12968692Y-4542137D03*
G01X-12968692Y-6986652D03*
G01X-12968692Y-6732652D03*
G01X-12968692Y-6478652D03*
G01X-12968692Y-6224652D03*
G01X-9746943Y-2116026D03*
G01X-9746943Y-7231392D03*
G01X-9746943Y-6977392D03*
G01X-9746943Y-6723392D03*
G01X-9746943Y-6469392D03*
G01X-9746943Y-5952550D03*
G01X-9746943Y-5698550D03*
G01X-9746943Y-5444550D03*
G01X-9746943Y-5190550D03*
G01X-9746943Y-4673709D03*
G01X-9746943Y-4419709D03*
G01X-9746943Y-4165709D03*
G01X-9746943Y-3911709D03*
G01X-9746943Y-3394867D03*
G01X-9746943Y-3140867D03*
G01X-9746943Y-2886867D03*
G01X-9746943Y-2632867D03*
G01X-9746943Y-1862026D03*
G01X-9746943Y-1608026D03*
G01X-9746943Y-1354026D03*
G01X-8557624Y-9718134D03*
G01X-8346610Y-7512075D03*
G01X-8346610Y-7258075D03*
G01X-8346610Y-7004075D03*
G01X-8346610Y-6750075D03*
G01X-8331310Y-6129957D03*
G01X-8331310Y-5875957D03*
G01X-8331310Y-5621957D03*
G01X-8331310Y-5367957D03*
G01X-8303624Y-9718134D03*
G01X-8049624Y-9718134D03*
G01X-7479098Y-249581D03*
G01X-7225098Y-249581D03*
G01X-2692835Y-784407D03*
G01X-2692835Y-530407D03*
G01X-2692835Y-276407D03*
G01X-2032376Y-784407D03*
G01X-2032376Y-530407D03*
G01X-2032376Y-276407D03*
G01X-1614378Y-9734864D03*
G01X-1371918Y-784407D03*
G01X-1371918Y-530407D03*
G01X-1371918Y-276407D03*
G01X-1360378Y-9734864D03*
G01X-276121Y-2939143D03*
G01X-276121Y-2685143D03*
G01X-276121Y-2431143D03*
G01X-276121Y-1893629D03*
G01X-276121Y-1639629D03*
G01X-276121Y-1385629D03*
G01X-248062Y-8602147D03*
G01X-248062Y-8348147D03*
G01X-230220Y-7570505D03*
G01X-230220Y-7316505D03*
G54D19*
G01X-13315496Y-5275728D03*
G01X-13315496Y-5160506D03*
G01X-13315496Y-5045283D03*
G01X-13315496Y-4930061D03*
G01X-13315496Y-4814839D03*
G01X-13315496Y-4699616D03*
G01X-13315496Y-4584394D03*
G01X-13315496Y-4469172D03*
G01X-13315496Y-2822596D03*
G01X-13315496Y-2707374D03*
G01X-13315496Y-2592152D03*
G01X-13315496Y-2476929D03*
G01X-13315496Y-2361707D03*
G01X-13314153Y-2032825D03*
G01X-13314153Y-1917603D03*
G01X-13314153Y-1802381D03*
G01X-13314153Y-1687159D03*
G01X-13314153Y-1571936D03*
G01X-13314153Y-1456714D03*
G01X-13314153Y-1341492D03*
G01X-13314153Y-1226270D03*
G01X-13314153Y-1114814D03*
G01X-13314153Y-999591D03*
G01X-13314153Y-884369D03*
G01X-13314153Y-769147D03*
G01X-13314153Y-653925D03*
G01X-13314153Y-538702D03*
G01X-13314153Y-423480D03*
G01X-13314153Y-308258D03*
G01X-13310396Y-3388703D03*
G01X-13310396Y-3273481D03*
G01X-13310396Y-3158259D03*
G01X-13310396Y-3043037D03*
G01X-13310396Y-2927814D03*
G01X-13305296Y-4316915D03*
G01X-13305296Y-4201693D03*
G01X-13305296Y-4086471D03*
G01X-13305296Y-3971249D03*
G01X-13305296Y-3856026D03*
G01X-13305296Y-3740804D03*
G01X-13305296Y-3625582D03*
G01X-13305296Y-3510360D03*
G01X-13239195Y-7657401D03*
G01X-13234095Y-7361597D03*
G01X-13194994Y-7769603D03*
G01X-13189894Y-7473799D03*
G01X-13128694Y-7647201D03*
G01X-13123594Y-7351397D03*
G01X-13120216Y-497688D03*
G01X-13099793Y-7769603D03*
G01X-13094693Y-7473799D03*
G01X-13048815Y-257984D03*
G01X-13033492Y-7647201D03*
G01X-13028392Y-7351397D03*
G01X-13004994Y-497688D03*
G01X-13004592Y-7769603D03*
G01X-12999492Y-7473799D03*
G01X-12938291Y-7647201D03*
G01X-12933593Y-257984D03*
G01X-12933191Y-7351397D03*
G01X-12909391Y-7769603D03*
G01X-12904291Y-7473799D03*
G01X-12889772Y-497688D03*
G01X-12843090Y-7647201D03*
G01X-12837990Y-7351397D03*
G01X-12818371Y-257984D03*
G01X-12802211Y-7763841D03*
G01X-12797111Y-7468037D03*
G01X-12774549Y-497688D03*
G01X-12703148Y-257984D03*
G01X-12659327Y-497688D03*
G01X-12587926Y-257984D03*
G01X-12544105Y-497688D03*
G01X-12472704Y-257984D03*
G01X-12428882Y-497688D03*
G01X-12357482Y-257984D03*
G01X-12313660Y-497688D03*
G01X-12242259Y-257984D03*
G01X-12202204Y-497688D03*
G01X-12130803Y-257984D03*
G01X-12086982Y-497688D03*
G01X-12015581Y-257984D03*
G01X-11971760Y-497688D03*
G01X-11900359Y-257984D03*
G01X-11856537Y-497688D03*
G01X-11785136Y-257984D03*
G01X-11741315Y-497688D03*
G01X-11669914Y-257984D03*
G01X-11626093Y-497688D03*
G01X-11554692Y-257984D03*
G01X-11518847Y-7068115D03*
G01X-11518847Y-6972914D03*
G01X-11515373Y-3526348D03*
G01X-11510871Y-497688D03*
G01X-11486472Y-3648749D03*
G01X-11439470Y-257984D03*
G01X-11420171Y-3526348D03*
G01X-11402207Y-6932035D03*
G01X-11396445Y-7039215D03*
G01X-11395648Y-497688D03*
G01X-11379292Y-3642988D03*
G01X-11324247Y-257984D03*
G01X-11311370Y-639710D03*
G01X-11282470Y-762112D03*
G01X-11216169Y-639710D03*
G01X-11175290Y-756350D03*
G01X-10954365Y-670311D03*
G01X-10925465Y-792712D03*
G01X-10913565Y-1894327D03*
G01X-10908465Y-6341584D03*
G01X-10884665Y-2016728D03*
G01X-10879564Y-6463986D03*
G01X-10867664Y-4658562D03*
G01X-10859164Y-670311D03*
G01X-10838764Y-4780964D03*
G01X-10818364Y-1894327D03*
G01X-10818285Y-786951D03*
G01X-10813264Y-6341584D03*
G01X-10777484Y-2010967D03*
G01X-10772463Y-4658562D03*
G01X-10772384Y-6458224D03*
G01X-10731584Y-4775202D03*
G01X-10643261Y-680511D03*
G01X-10614361Y-802913D03*
G01X-10548060Y-680511D03*
G01X-10507181Y-797151D03*
G01X-10398458Y-8162308D03*
G01X-10378058Y-1522022D03*
G01X-10354258Y-8274509D03*
G01X-10349158Y-1644423D03*
G01X-10301557Y-3296845D03*
G01X-10296457Y-3597749D03*
G01X-10287957Y-8152108D03*
G01X-10282857Y-1522022D03*
G01X-10272657Y-3419246D03*
G01X-10267557Y-3720150D03*
G01X-10259056Y-8274509D03*
G01X-10241977Y-1638662D03*
G01X-10206356Y-3296845D03*
G01X-10201256Y-3597749D03*
G01X-10192756Y-8152108D03*
G01X-10165476Y-3413485D03*
G01X-10163855Y-8274509D03*
G01X-10160376Y-3714389D03*
G01X-10097554Y-8152108D03*
G01X-10068654Y-8274509D03*
G01X-10002353Y-8152108D03*
G01X-9961474Y-8268747D03*
G01X-9854451Y-1147114D03*
G01X-9834991Y-7814150D03*
G01X-9811768Y-7409995D03*
G01X-9726261Y-3578439D03*
G01X-9721161Y-3731441D03*
G01X-9696545Y-7409995D03*
G01X-9581323Y-7409995D03*
G01X-9578359Y-7235186D03*
G01X-9557959Y-7326987D03*
G01X-9532205Y-1055313D03*
G01X-9506958Y-7138285D03*
G01X-9498584Y-1187915D03*
G01X-9489940Y-7846362D03*
G01X-9466101Y-7409995D03*
G01X-9463137Y-7235186D03*
G01X-9442737Y-7326987D03*
G01X-9404957Y-7036283D03*
G01X-9391736Y-7138285D03*
G01X-9383362Y-1187915D03*
G01X-9347915Y-7235186D03*
G01X-9327514Y-7326987D03*
G01X-9305723Y-1091013D03*
G01X-9292755Y-6597678D03*
G01X-9287655Y-6908782D03*
G01X-9287655Y-6521177D03*
G01X-9282555Y-6306974D03*
G01X-9279923Y-3585024D03*
G01X-9276514Y-7138285D03*
G01X-9268140Y-1187915D03*
G01X-9240813Y-7893094D03*
G01X-9235713Y-8301100D03*
G01X-9190319Y-6129957D03*
G01X-9180554Y-6000970D03*
G01X-9152917Y-1187915D03*
G01X-9132021Y-5190550D03*
G01X-9121820Y-3911709D03*
G01X-9121820Y-2830215D03*
G01X-9087811Y-7811493D03*
G01X-9073453Y-5898969D03*
G01X-9037695Y-1187915D03*
G01X-9012252Y-5827568D03*
G01X-8961940Y-9156821D03*
G01X-8941539Y-3875649D03*
G01X-8895639Y-9034419D03*
G01X-8866738Y-9156821D03*
G01X-8854150Y-3104132D03*
G01X-8826317Y-3875649D03*
G01X-8803838Y-1432718D03*
G01X-8800438Y-9034419D03*
G01X-8771537Y-9156821D03*
G01X-8747048Y-3226534D03*
G01X-8730807Y-8392901D03*
G01X-8711095Y-3875649D03*
G01X-8710336Y-8065407D03*
G01X-8705236Y-9034419D03*
G01X-8695245Y-1294835D03*
G01X-8688615Y-1432718D03*
G01X-8676336Y-9156821D03*
G01X-8666136Y-8177608D03*
G01X-8645047Y-3364236D03*
G01X-8610035Y-9034419D03*
G01X-8599835Y-8055206D03*
G01X-8595873Y-3875649D03*
G01X-8594735Y-1140039D03*
G01X-8589234Y-812639D03*
G01X-8580022Y-1294835D03*
G01X-8573393Y-1432718D03*
G01X-8570935Y-8177608D03*
G01X-8557911Y-8751713D03*
G01X-8542034Y-4576961D03*
G01X-8531834Y-4882965D03*
G01X-8528033Y-669837D03*
G01X-8504634Y-8055206D03*
G01X-8497834Y-4689163D03*
G01X-8494033Y-812639D03*
G01X-8487634Y-4995167D03*
G01X-8480650Y-3875649D03*
G01X-8479513Y-1140039D03*
G01X-8475733Y-8177608D03*
G01X-8464800Y-1294835D03*
G01X-8458171Y-1432718D03*
G01X-8432832Y-669837D03*
G01X-8431533Y-4566761D03*
G01X-8421333Y-4872765D03*
G01X-8409433Y-8055206D03*
G01X-8402632Y-4689163D03*
G01X-8398831Y-812639D03*
G01X-8392432Y-4995167D03*
G01X-8380532Y-8177608D03*
G01X-8365428Y-3875649D03*
G01X-8364290Y-1140039D03*
G01X-8349932Y-4013351D03*
G01X-8349578Y-1294835D03*
G01X-8342949Y-1432718D03*
G01X-8337631Y-669837D03*
G01X-8336332Y-4566761D03*
G01X-8326131Y-4872765D03*
G01X-8314231Y-8055206D03*
G01X-8308730Y-9018645D03*
G01X-8307431Y-4689163D03*
G01X-8297231Y-4995167D03*
G01X-8273352Y-8171846D03*
G01X-8250206Y-3875649D03*
G01X-8249068Y-1140039D03*
G01X-8241130Y-4566761D03*
G01X-8234709Y-4013351D03*
G01X-8234356Y-1294835D03*
G01X-8232630Y-8932418D03*
G01X-8230930Y-4872765D03*
G01X-8227726Y-1432718D03*
G01X-8213529Y-9018645D03*
G01X-8212230Y-4689163D03*
G01X-8202030Y-4995167D03*
G01X-8195230Y-6448686D03*
G01X-8186329Y-3230070D03*
G01X-8165928Y-3107668D03*
G01X-8151029Y-6560887D03*
G01X-8145929Y-4566761D03*
G01X-8137429Y-8932418D03*
G01X-8135729Y-4872765D03*
G01X-8134983Y-3875649D03*
G01X-8133846Y-1140039D03*
G01X-8119487Y-4013351D03*
G01X-8119133Y-1294835D03*
G01X-8118328Y-9018645D03*
G01X-8114928Y-9875456D03*
G01X-8112504Y-1432718D03*
G01X-8105050Y-4683401D03*
G01X-8094850Y-4989405D03*
G01X-8091127Y-3230070D03*
G01X-8084728Y-6438485D03*
G01X-8070727Y-3107668D03*
G01X-8055828Y-6560887D03*
G01X-8042228Y-8932418D03*
G01X-8019726Y-9875456D03*
G01X-8018624Y-1140039D03*
G01X-8004265Y-4013351D03*
G01X-8003911Y-1294835D03*
G01X-7997282Y-1432718D03*
G01X-7996903Y-8175406D03*
G01X-7995926Y-3230070D03*
G01X-7989527Y-6438485D03*
G01X-7975526Y-3107668D03*
G01X-7967026Y-9528652D03*
G01X-7960627Y-6560887D03*
G01X-7947027Y-8932418D03*
G01X-7924525Y-9875456D03*
G01X-7908000Y-7457420D03*
G01X-7908000Y-7362219D03*
G01X-7908000Y-7267018D03*
G01X-7908000Y-7171816D03*
G01X-7903401Y-1140039D03*
G01X-7897800Y-7567922D03*
G01X-7894326Y-6438485D03*
G01X-7889043Y-4013351D03*
G01X-7888689Y-1294835D03*
G01X-7871824Y-9528652D03*
G01X-7865425Y-6560887D03*
G01X-7847475Y-9808302D03*
G01X-7847475Y-9713101D03*
G01X-7847475Y-9617900D03*
G01X-7799125Y-6438485D03*
G01X-7791360Y-7130937D03*
G01X-7788179Y-1140039D03*
G01X-7785599Y-7523721D03*
G01X-7785599Y-7428520D03*
G01X-7785599Y-7333319D03*
G01X-7785599Y-7238117D03*
G01X-7776623Y-9528652D03*
G01X-7773820Y-4013351D03*
G01X-7758245Y-6555125D03*
G01X-7755082Y-2308229D03*
G01X-7755082Y-2193007D03*
G01X-7755082Y-2077785D03*
G01X-7755082Y-1962562D03*
G01X-7755082Y-1847340D03*
G01X-7755082Y-1732118D03*
G01X-7755082Y-1616895D03*
G01X-7755082Y-1501673D03*
G01X-7747723Y-9895856D03*
G01X-7744881Y-3236441D03*
G01X-7744881Y-3121219D03*
G01X-7744881Y-3005997D03*
G01X-7744881Y-2890774D03*
G01X-7744881Y-2775552D03*
G01X-7744881Y-2660330D03*
G01X-7744881Y-2545107D03*
G01X-7744881Y-2429885D03*
G01X-7732423Y-4652988D03*
G01X-7712022Y-4530587D03*
G01X-7658598Y-4013351D03*
G01X-7652522Y-9895856D03*
G01X-7644423Y-5622475D03*
G01X-7637221Y-4652988D03*
G01X-7616821Y-4530587D03*
G01X-7600222Y-5734676D03*
G01X-7579421Y-8763642D03*
G01X-7557320Y-9895856D03*
G01X-7543376Y-4013351D03*
G01X-7542020Y-4652988D03*
G01X-7533921Y-5612275D03*
G01X-7521620Y-4530587D03*
G01X-7505021Y-5734676D03*
G01X-7484219Y-8763642D03*
G01X-7481220Y-5285871D03*
G01X-7438720Y-5612275D03*
G01X-7437020Y-5398072D03*
G01X-7436748Y-9830425D03*
G01X-7436748Y-9735224D03*
G01X-7436748Y-9640023D03*
G01X-7410396Y-8935316D03*
G01X-7409820Y-5734676D03*
G01X-7389018Y-8763642D03*
G01X-7370719Y-5275670D03*
G01X-7345219Y-9855530D03*
G01X-7343519Y-5612275D03*
G01X-7341819Y-5398072D03*
G01X-7324818Y-7121894D03*
G01X-7314618Y-7580900D03*
G01X-7314618Y-5734676D03*
G01X-7304017Y-3245370D03*
G01X-7283617Y-3122969D03*
G01X-7275518Y-5275670D03*
G01X-7267972Y-7449096D03*
G01X-7267972Y-7353894D03*
G01X-7267972Y-7258693D03*
G01X-7258339Y-7967933D03*
G01X-7257772Y-7168592D03*
G01X-7257772Y-7073391D03*
G01X-7257772Y-6978189D03*
G01X-7250018Y-9855530D03*
G01X-7248317Y-6871991D03*
G01X-7248317Y-5612275D03*
G01X-7246617Y-5398072D03*
G01X-7243217Y-7800203D03*
G01X-7242816Y-2174356D03*
G01X-7237716Y-2465060D03*
G01X-7232616Y-1868352D03*
G01X-7231160Y-8379227D03*
G01X-7229538Y-8292334D03*
G01X-7227917Y-8213308D03*
G01X-7222416Y-2051955D03*
G01X-7219417Y-7580900D03*
G01X-7217316Y-2342659D03*
G01X-7214396Y-1504197D03*
G01X-7212216Y-1745951D03*
G01X-7208816Y-3245370D03*
G01X-7207438Y-5728915D03*
G01X-7202417Y-7693102D03*
G01X-7196829Y-7876871D03*
G01X-7188416Y-3122969D03*
G01X-7184636Y-7422038D03*
G01X-7180317Y-5275670D03*
G01X-7171816Y-6525187D03*
G01X-7163138Y-7967933D03*
G01X-7154816Y-9855530D03*
G01X-7153116Y-6871991D03*
G01X-7151416Y-5398072D03*
G01X-7148016Y-7800203D03*
G01X-7147615Y-2174356D03*
G01X-7142515Y-2465060D03*
G01X-7137415Y-1868352D03*
G01X-7135959Y-8379227D03*
G01X-7134337Y-8292334D03*
G01X-7132716Y-8213308D03*
G01X-7130615Y-5127295D03*
G01X-7127215Y-2051955D03*
G01X-7124216Y-7580900D03*
G01X-7122115Y-2342659D03*
G01X-7117964Y-5682196D03*
G01X-7117964Y-5586995D03*
G01X-7117964Y-5491794D03*
G01X-7117015Y-1745951D03*
G01X-7113615Y-3245370D03*
G01X-7110215Y-5004893D03*
G01X-7107216Y-7693102D03*
G01X-7101628Y-7876871D03*
G01X-7093214Y-3122969D03*
G01X-7089435Y-7422038D03*
G01X-7085115Y-5275670D03*
G01X-7067936Y-7967933D03*
G01X-7061315Y-6443586D03*
G01X-7059615Y-9855530D03*
G01X-7057915Y-6871991D03*
G01X-7052815Y-7800203D03*
G01X-7052414Y-2174356D03*
G01X-7047314Y-2465060D03*
G01X-7044236Y-5392310D03*
G01X-7042214Y-1868352D03*
G01X-7040757Y-8379227D03*
G01X-7039136Y-8292334D03*
G01X-7038543Y-7519020D03*
G01X-7037515Y-8213308D03*
G01X-7035414Y-5127295D03*
G01X-7032014Y-2051955D03*
G01X-7030793Y-1504197D03*
G01X-7026914Y-2342659D03*
G01X-7021813Y-1745951D03*
G01X-7015013Y-5004893D03*
G01X-7012014Y-7693102D03*
G01X-7006426Y-7876871D03*
G01X-6995562Y-5702596D03*
G01X-6995562Y-5607395D03*
G01X-6995562Y-5512194D03*
G01X-6994234Y-7422038D03*
G01X-6959392Y-6303360D03*
G01X-6952113Y-2771064D03*
G01X-6946473Y-7256130D03*
G01X-6946473Y-7194098D03*
G01X-6946473Y-7132065D03*
G01X-6946473Y-7070033D03*
G01X-6946473Y-7008000D03*
G01X-6943342Y-7519020D03*
G01X-6940212Y-5127295D03*
G01X-6931712Y-2648662D03*
G01X-6930413Y-262306D03*
G01X-6925313Y-6846491D03*
G01X-6919812Y-5004893D03*
G01X-6916412Y-3989980D03*
G01X-6915113Y-1358820D03*
G01X-6901513Y-384707D03*
G01X-6896012Y-3867578D03*
G01X-6886213Y-1481221D03*
G01X-6885812Y-1725551D03*
G01X-6882779Y-7256130D03*
G01X-6882779Y-7194098D03*
G01X-6882779Y-7132065D03*
G01X-6882779Y-7070033D03*
G01X-6882779Y-7008000D03*
G01X-6870512Y-2250857D03*
G01X-6865813Y-9850430D03*
G01X-6865411Y-1603149D03*
G01X-6860311Y-1955053D03*
G01X-6856911Y-2771064D03*
G01X-6850111Y-2128456D03*
G01X-6848141Y-7519020D03*
G01X-6839911Y-1832652D03*
G01X-6836511Y-2648662D03*
G01X-6835212Y-262306D03*
G01X-6821211Y-3989980D03*
G01X-6819912Y-1358820D03*
G01X-6819084Y-7256130D03*
G01X-6819084Y-7194098D03*
G01X-6819084Y-7132065D03*
G01X-6819084Y-7070033D03*
G01X-6819084Y-7008000D03*
G01X-6811412Y-6851591D03*
G01X-6800811Y-3867578D03*
G01X-6799512Y-9728028D03*
G01X-6794333Y-378945D03*
G01X-6790610Y-1725551D03*
G01X-6785990Y-3217820D03*
G01X-6779033Y-1475460D03*
G01X-6775310Y-2250857D03*
G01X-6770611Y-9850430D03*
G01X-6770210Y-1603149D03*
G01X-6765110Y-1955053D03*
G01X-6761710Y-2771064D03*
G01X-6755390Y-7256130D03*
G01X-6755390Y-7194098D03*
G01X-6755390Y-7132065D03*
G01X-6755390Y-7070033D03*
G01X-6755390Y-7008000D03*
G01X-6754910Y-2128456D03*
G01X-6744710Y-1832652D03*
G01X-6741310Y-2648662D03*
G01X-6726010Y-3989980D03*
G01X-6717911Y-9253722D03*
G01X-6705609Y-3867578D03*
G01X-6704310Y-9728028D03*
G01X-6695409Y-1725551D03*
G01X-6694189Y-4712139D03*
G01X-6680109Y-2250857D03*
G01X-6675410Y-9850430D03*
G01X-6675009Y-1603149D03*
G01X-6670886Y-8435509D03*
G01X-6670310Y-1124217D03*
G01X-6669909Y-1955053D03*
G01X-6668689Y-4783246D03*
G01X-6659709Y-2128456D03*
G01X-6649509Y-1832652D03*
G01X-6641410Y-1246618D03*
G01X-6638088Y-4656038D03*
G01X-6622788Y-4727439D03*
G01X-6609109Y-9728028D03*
G01X-6595509Y-6560887D03*
G01X-6580209Y-9850430D03*
G01X-6579808Y-2842465D03*
G01X-6575109Y-1124217D03*
G01X-6563209Y-9238422D03*
G01X-6559408Y-2720063D03*
G01X-6556487Y-4742739D03*
G01X-6536008Y-6499686D03*
G01X-6534230Y-1240857D03*
G01X-6513908Y-9728028D03*
G01X-6513507Y-2572161D03*
G01X-6503307Y-200631D03*
G01X-6496908Y-6591487D03*
G01X-6493107Y-2449760D03*
G01X-6484607Y-2842465D03*
G01X-6469707Y-6377285D03*
G01X-6464206Y-2720063D03*
G01X-6462506Y-2337558D03*
G01X-6442106Y-2215157D03*
G01X-6440807Y-6499686D03*
G01X-6418306Y-2572161D03*
G01X-6408106Y-200631D03*
G01X-6401305Y-3209670D03*
G01X-6397905Y-2449760D03*
G01X-6389405Y-2842465D03*
G01X-6388185Y-4033830D03*
G01X-6386406Y-9478125D03*
G01X-6377565Y-8321768D03*
G01X-6374506Y-6377285D03*
G01X-6372806Y-9274122D03*
G01X-6369005Y-2720063D03*
G01X-6367305Y-2337558D03*
G01X-6360906Y-8947718D03*
G01X-6346905Y-2215157D03*
G01X-6345606Y-6499686D03*
G01X-6326984Y-5242546D03*
G01X-6323104Y-2572161D03*
G01X-6321464Y-8056565D03*
G01X-6312904Y-200631D03*
G01X-6311264Y-8199367D03*
G01X-6306104Y-3209670D03*
G01X-6302704Y-2449760D03*
G01X-6282363Y-8321768D03*
G01X-6279305Y-6377285D03*
G01X-6272505Y-4908466D03*
G01X-6272104Y-2337558D03*
G01X-6255163Y-7934163D03*
G01X-6251704Y-2215157D03*
G01X-6248705Y-6494586D03*
G01X-6241503Y-2975067D03*
G01X-6241400Y-1858152D03*
G01X-6236403Y-2873065D03*
G01X-6233404Y-4801364D03*
G01X-6227903Y-1751051D03*
G01X-6226263Y-8056565D03*
G01X-6224503Y-1960154D03*
G01X-6216062Y-8199367D03*
G01X-6212603Y-3107668D03*
G01X-6210903Y-3209670D03*
G01X-6207904Y-8937518D03*
G01X-6200983Y-1636469D03*
G01X-6197303Y-2628262D03*
G01X-6192604Y-310703D03*
G01X-6192203Y-2072355D03*
G01X-6187504Y-9875930D03*
G01X-6187162Y-8321768D03*
G01X-6159962Y-7934163D03*
G01X-6141603Y-8815116D03*
G01X-6138203Y-4801364D03*
G01X-6131403Y-9610727D03*
G01X-6131061Y-8056565D03*
G01X-6121203Y-9753528D03*
G01X-6120861Y-8199367D03*
G01X-6117402Y-3107668D03*
G01X-6112703Y-8937518D03*
G01X-6102102Y-2628262D03*
G01X-6092303Y-9875930D03*
G01X-6085101Y-2995467D03*
G01X-6082181Y-3936929D03*
G01X-6080001Y-2306958D03*
G01X-6077382Y-310703D03*
G01X-6065102Y-9488325D03*
G01X-6064761Y-7934163D03*
G01X-6059601Y-2184556D03*
G01X-6056681Y-3845128D03*
G01X-6056602Y-8672314D03*
G01X-6049401Y-2852665D03*
G01X-6049401Y-1980554D03*
G01X-6046402Y-8815116D03*
G01X-6043002Y-4801364D03*
G01X-6036202Y-9610727D03*
G01X-6035860Y-8056565D03*
G01X-6029001Y-2092755D03*
G01X-6026002Y-9753528D03*
G01X-6024302Y-5341971D03*
G01X-6022201Y-3107668D03*
G01X-6017502Y-8937518D03*
G01X-6006900Y-2628262D03*
G01X-5997101Y-9875930D03*
G01X-5990301Y-8549913D03*
G01X-5989900Y-2995467D03*
G01X-5984800Y-2306958D03*
G01X-5969901Y-9488325D03*
G01X-5969559Y-7934163D03*
G01X-5967321Y-1814972D03*
G01X-5964400Y-2184556D03*
G01X-5962159Y-310703D03*
G01X-5961401Y-8672314D03*
G01X-5954200Y-2852665D03*
G01X-5954200Y-1980554D03*
G01X-5951201Y-8815116D03*
G01X-5941001Y-9610727D03*
G01X-5935900Y-5826478D03*
G01X-5933799Y-2092755D03*
G01X-5930800Y-9753528D03*
G01X-5922300Y-8937518D03*
G01X-5901900Y-9875930D03*
G01X-5898421Y-5387210D03*
G01X-5895100Y-8549913D03*
G01X-5891700Y-5938679D03*
G01X-5889599Y-2306958D03*
G01X-5876400Y-6438485D03*
G01X-5874700Y-9488325D03*
G01X-5869199Y-2184556D03*
G01X-5867395Y-1873452D03*
G01X-5866200Y-8672314D03*
G01X-5858998Y-1980554D03*
G01X-5855999Y-8815116D03*
G01X-5846937Y-310703D03*
G01X-5845799Y-9610727D03*
G01X-5838598Y-2092755D03*
G01X-5835599Y-9753528D03*
G01X-5835599Y-5673476D03*
G01X-5832199Y-4990067D03*
G01X-5825399Y-6514986D03*
G01X-5825399Y-5816277D03*
G01X-5803220Y-5356610D03*
G01X-5799899Y-8549913D03*
G01X-5796499Y-5938679D03*
G01X-5781198Y-6438485D03*
G01X-5779498Y-9488325D03*
G01X-5776177Y-3233120D03*
G01X-5759098Y-5020667D03*
G01X-5745156Y-8403369D03*
G01X-5740398Y-5673476D03*
G01X-5731715Y-310703D03*
G01X-5730198Y-6514986D03*
G01X-5730198Y-5816277D03*
G01X-5719497Y-1463067D03*
G01X-5701297Y-5938679D03*
G01X-5685997Y-6438485D03*
G01X-5684376Y-4033830D03*
G01X-5677497Y-9197621D03*
G01X-5645197Y-5673476D03*
G01X-5643155Y-8270768D03*
G01X-5637387Y-3594684D03*
G01X-5634997Y-6514986D03*
G01X-5634997Y-5816277D03*
G01X-5616492Y-310703D03*
G01X-5606096Y-5938679D03*
G01X-5596445Y-7258614D03*
G01X-5590796Y-6438485D03*
G01X-5583951Y-1774501D03*
G01X-5582296Y-7147395D03*
G01X-5572096Y-7387098D03*
G01X-5549996Y-5673476D03*
G01X-5539795Y-6514986D03*
G01X-5539795Y-5816277D03*
G01X-5536474Y-3248420D03*
G01X-5519395Y-9473025D03*
G01X-5501270Y-310703D03*
G01X-5501244Y-7258614D03*
G01X-5500774Y-8113883D03*
G01X-5498916Y-5932917D03*
G01X-5495595Y-7463599D03*
G01X-5487095Y-7147395D03*
G01X-5476895Y-7387098D03*
G01X-5463294Y-9207821D03*
G01X-5458452Y-1371266D03*
G01X-5453094Y-9350623D03*
G01X-5424194Y-9473025D03*
G01X-5406042Y-7258614D03*
G01X-5400394Y-7463599D03*
G01X-5396994Y-9085420D03*
G01X-5391893Y-7147395D03*
G01X-5386048Y-310703D03*
G01X-5381693Y-7387098D03*
G01X-5368172Y-3228020D03*
G01X-5368093Y-9207821D03*
G01X-5357893Y-9350623D03*
G01X-5328993Y-9473025D03*
G01X-5305192Y-7463599D03*
G01X-5301792Y-9085420D03*
G01X-5296771Y-3753327D03*
G01X-5276371Y-6119757D03*
G01X-5276371Y-3615625D03*
G01X-5272892Y-9207821D03*
G01X-5262692Y-9350623D03*
G01X-5246445Y-7046115D03*
G01X-5240670Y-4640738D03*
G01X-5235570Y-4951842D03*
G01X-5233791Y-9473025D03*
G01X-5215170Y-8338286D03*
G01X-5206591Y-9085420D03*
G01X-5204490Y-1363446D03*
G01X-5199870Y-2279407D03*
G01X-5189670Y-3615625D03*
G01X-5177691Y-9207821D03*
G01X-5174291Y-7157595D03*
G01X-5167491Y-9350623D03*
G01X-5162390Y-310703D03*
G01X-5151244Y-7046115D03*
G01X-5128469Y-4640738D03*
G01X-5128469Y-3233120D03*
G01X-5118269Y-4921242D03*
G01X-5117916Y-5372920D03*
G01X-5111390Y-9085420D03*
G01X-5092690Y-6514986D03*
G01X-5085889Y-9891230D03*
G01X-5079089Y-7157595D03*
G01X-5075951Y-2157006D03*
G01X-5059644Y-6352581D03*
G01X-5056043Y-7046115D03*
G01X-5047168Y-310703D03*
G01X-5044343Y-6442683D03*
G01X-5038865Y-5472371D03*
G01X-5029789Y-9626027D03*
G01X-5022588Y-2648662D03*
G01X-5019589Y-9768829D03*
G01X-4997488Y-6514986D03*
G01X-4990688Y-9891230D03*
G01X-4983888Y-7157595D03*
G01X-4963488Y-9503625D03*
G01X-4955067Y-8134283D03*
G01X-4949888Y-5969279D03*
G01X-4938546Y-3185169D03*
G01X-4937242Y-6418882D03*
G01X-4937242Y-6323681D03*
G01X-4937242Y-6228480D03*
G01X-4937242Y-6133279D03*
G01X-4934588Y-9626027D03*
G01X-4932142Y-5832375D03*
G01X-4932142Y-5737173D03*
G01X-4932142Y-5641972D03*
G01X-4932142Y-5546771D03*
G01X-4931946Y-310703D03*
G01X-4924387Y-9768829D03*
G01X-4902287Y-6514986D03*
G01X-4895487Y-9891230D03*
G01X-4876041Y-6031277D03*
G01X-4870941Y-6175779D03*
G01X-4870941Y-5888475D03*
G01X-4870941Y-5793274D03*
G01X-4870941Y-5698073D03*
G01X-4870941Y-5602872D03*
G01X-4868287Y-9503625D03*
G01X-4852585Y-2857765D03*
G01X-4843345Y-3185169D03*
G01X-4839386Y-9626027D03*
G01X-4829186Y-9768829D03*
G01X-4816724Y-310703D03*
G01X-4800286Y-9891230D03*
G01X-4773085Y-9503625D03*
G01X-4766364Y-6849067D03*
G01X-4748144Y-3185169D03*
G01X-4745885Y-7453399D03*
G01X-4744185Y-9626027D03*
G01X-4733985Y-9768829D03*
G01X-4701501Y-310703D03*
G01X-4684763Y-6920467D03*
G01X-4677884Y-9503625D03*
G01X-4650684Y-7453399D03*
G01X-4645584Y-7330997D03*
G01X-4625184Y-7218796D03*
G01X-4586279Y-310703D03*
G01X-4575883Y-1560219D03*
G01X-4565683Y-1453118D03*
G01X-4559837Y-6461383D03*
G01X-4559837Y-6366182D03*
G01X-4559837Y-6270980D03*
G01X-4555483Y-7453399D03*
G01X-4550383Y-7330997D03*
G01X-4540182Y-5974379D03*
G01X-4533540Y-6173334D03*
G01X-4529982Y-7218796D03*
G01X-4504482Y-1340917D03*
G01X-4471057Y-310703D03*
G01X-4467239Y-6050932D03*
G01X-4460661Y-1560219D03*
G01X-4455181Y-7412598D03*
G01X-4450460Y-1453118D03*
G01X-4444981Y-7315697D03*
G01X-4438339Y-6173334D03*
G01X-4389260Y-1340917D03*
G01X-4381283Y-3018996D03*
G01X-4381283Y-601564D03*
G01X-4372038Y-6050932D03*
G01X-4355835Y-310703D03*
G01X-4345438Y-1560219D03*
G01X-4343137Y-6173334D03*
G01X-4335238Y-1453118D03*
G01X-4320880Y-422905D03*
G01X-4303147Y-2706844D03*
G01X-4303147Y-2591622D03*
G01X-4303147Y-2476400D03*
G01X-4303147Y-2361177D03*
G01X-4303147Y-2245955D03*
G01X-4303147Y-2130733D03*
G01X-4303147Y-2015511D03*
G01X-4303147Y-1900288D03*
G01X-4276837Y-6050932D03*
G01X-4274037Y-1340917D03*
G01X-4266061Y-3018996D03*
G01X-4266061Y-601564D03*
G01X-4247936Y-6173334D03*
G01X-4230216Y-1560219D03*
G01X-4220016Y-1453118D03*
G01X-4205657Y-422905D03*
G01X-4181635Y-6050932D03*
G01X-4158815Y-1340917D03*
G01X-4150839Y-3018996D03*
G01X-4150839Y-601564D03*
G01X-4114994Y-1560219D03*
G01X-4104794Y-1453118D03*
G01X-4090435Y-422905D03*
G01X-4043593Y-1340917D03*
G01X-4035617Y-3018996D03*
G01X-4035617Y-601564D03*
G01X-3999772Y-1560219D03*
G01X-3989571Y-1453118D03*
G01X-3975213Y-422905D03*
G01X-3928371Y-1340917D03*
G01X-3920394Y-3018996D03*
G01X-3920394Y-601564D03*
G01X-3906651Y-4503358D03*
G01X-3884549Y-1560219D03*
G01X-3874349Y-1453118D03*
G01X-3863652Y-4181732D03*
G01X-3859991Y-422905D03*
G01X-3855650Y-4610460D03*
G01X-3813148Y-1340917D03*
G01X-3807552Y-6726665D03*
G01X-3805172Y-3018996D03*
G01X-3805172Y-601564D03*
G01X-3776951Y-4253133D03*
G01X-3771851Y-7297872D03*
G01X-3771851Y-6889867D03*
G01X-3769327Y-1560219D03*
G01X-3759127Y-1453118D03*
G01X-3744768Y-422905D03*
G01X-3705550Y-7986381D03*
G01X-3697926Y-1340917D03*
G01X-3690250Y-6976568D03*
G01X-3689950Y-3018996D03*
G01X-3689950Y-601564D03*
G01X-3649371Y-6188582D03*
G01X-3629546Y-422905D03*
G01X-3596828Y-4990118D03*
G01X-3574727Y-3018996D03*
G01X-3574727Y-601564D03*
G01X-3554170Y-6188582D03*
G01X-3549227Y-5107420D03*
G01X-3547448Y-2238607D03*
G01X-3514324Y-422905D03*
G01X-3491348Y-7858880D03*
G01X-3470947Y-6741965D03*
G01X-3463297Y-5811203D03*
G01X-3460826Y-5020719D03*
G01X-3458968Y-6188582D03*
G01X-3452326Y-5275722D03*
G01X-3433468Y-9167021D03*
G01X-3431926Y-5163521D03*
G01X-3404646Y-8251585D03*
G01X-3394446Y-7129570D03*
G01X-3384246Y-7032669D03*
G01X-3377367Y-8901817D03*
G01X-3367167Y-9044619D03*
G01X-3341667Y-106701D03*
G01X-3338267Y-9167021D03*
G01X-3336724Y-5163521D03*
G01X-3312845Y-7568176D03*
G01X-3311067Y-8779416D03*
G01X-3282166Y-8901817D03*
G01X-3277145Y-6752165D03*
G01X-3272045Y-3171919D03*
G01X-3271966Y-9044619D03*
G01X-3251644Y-6961268D03*
G01X-3243066Y-9167021D03*
G01X-3226445Y-106701D03*
G01X-3215944Y-7807879D03*
G01X-3215865Y-8779416D03*
G01X-3207365Y-3919053D03*
G01X-3186965Y-8901817D03*
G01X-3177341Y-5125566D03*
G01X-3176765Y-9044619D03*
G01X-3161622Y-4954418D03*
G01X-3154743Y-5788253D03*
G01X-3151978Y-4431093D03*
G01X-3151978Y-4335892D03*
G01X-3151978Y-4240690D03*
G01X-3151978Y-4145489D03*
G01X-3147864Y-9167021D03*
G01X-3139443Y-2080505D03*
G01X-3136919Y-3763448D03*
G01X-3136919Y-3668247D03*
G01X-3136919Y-3573045D03*
G01X-3120664Y-8779416D03*
G01X-3112164Y-3919053D03*
G01X-3111222Y-106701D03*
G01X-3108843Y-8124083D03*
G01X-3091764Y-8901817D03*
G01X-3081564Y-9044619D03*
G01X-3067963Y-2766438D03*
G01X-3066263Y-9763729D03*
G01X-3047642Y-6741965D03*
G01X-3029577Y-4497394D03*
G01X-3029577Y-4402192D03*
G01X-3029577Y-4306991D03*
G01X-3029577Y-4211790D03*
G01X-3025463Y-8779416D03*
G01X-3022142Y-5456749D03*
G01X-3022142Y-3518723D03*
G01X-3014517Y-3924950D03*
G01X-3014517Y-3829749D03*
G01X-3014517Y-3734548D03*
G01X-3014517Y-3639346D03*
G01X-3010163Y-9498525D03*
G01X-3001741Y-7833379D03*
G01X-2999963Y-9641327D03*
G01X-2996000Y-106701D03*
G01X-2981341Y-7466175D03*
G01X-2972762Y-2766438D03*
G01X-2971141Y-6303360D03*
G01X-2971062Y-9763729D03*
G01X-2952362Y-2185030D03*
G01X-2943862Y-9376123D03*
G01X-2915119Y-4934018D03*
G01X-2914961Y-9498525D03*
G01X-2904761Y-9641327D03*
G01X-2880778Y-106701D03*
G01X-2877561Y-2766438D03*
G01X-2875861Y-9763729D03*
G01X-2874240Y-7415174D03*
G01X-2869140Y-4416335D03*
G01X-2869140Y-3709563D03*
G01X-2864039Y-3518723D03*
G01X-2864039Y-3384545D03*
G01X-2848661Y-9376123D03*
G01X-2823239Y-7863980D03*
G01X-2819760Y-9498525D03*
G01X-2818139Y-8328086D03*
G01X-2809560Y-9641327D03*
G01X-2807860Y-3230544D03*
G01X-2780660Y-9763729D03*
G01X-2765556Y-106701D03*
G01X-2756859Y-3913953D03*
G01X-2753459Y-9376123D03*
G01X-2729659Y-9177221D03*
G01X-2724559Y-9498525D03*
G01X-2714359Y-9641327D03*
G01X-2712659Y-3230544D03*
G01X-2699133Y-6406861D03*
G01X-2673558Y-8912017D03*
G01X-2663358Y-9054819D03*
G01X-2660059Y-3912383D03*
G01X-2658258Y-9376123D03*
G01X-2650333Y-106701D03*
G01X-2642809Y-1976973D03*
G01X-2641258Y-2225831D03*
G01X-2634458Y-9177221D03*
G01X-2617458Y-3230544D03*
G01X-2607257Y-8789616D03*
G01X-2591212Y-6053378D03*
G01X-2591212Y-5958176D03*
G01X-2591212Y-5862975D03*
G01X-2588636Y-6186058D03*
G01X-2588636Y-3579924D03*
G01X-2583536Y-6986768D03*
G01X-2578357Y-8912017D03*
G01X-2568157Y-9054819D03*
G01X-2557979Y-4572816D03*
G01X-2552935Y-8108783D03*
G01X-2542735Y-3727826D03*
G01X-2540123Y-6734253D03*
G01X-2539257Y-9177221D03*
G01X-2535111Y-106701D03*
G01X-2532535Y-4135831D03*
G01X-2527356Y-4459660D03*
G01X-2517235Y-2886315D03*
G01X-2512056Y-8789616D03*
G01X-2506034Y-4037309D03*
G01X-2503578Y-3930207D03*
G01X-2501935Y-2004004D03*
G01X-2498557Y-4621292D03*
G01X-2483156Y-8912017D03*
G01X-2476434Y-7874180D03*
G01X-2476434Y-7746678D03*
G01X-2472956Y-9054819D03*
G01X-2444055Y-9177221D03*
G01X-2437255Y-4256534D03*
G01X-2425434Y-7629377D03*
G01X-2425434Y-6726665D03*
G01X-2416855Y-8789616D03*
G01X-2416855Y-3730350D03*
G01X-2403356Y-4621292D03*
G01X-2387955Y-8912017D03*
G01X-2379533Y-5701552D03*
G01X-2377754Y-9054819D03*
G01X-2376983Y-5566400D03*
G01X-2376054Y-3511048D03*
G01X-2374433Y-5090158D03*
G01X-2374433Y-7445774D03*
G01X-2364233Y-7578376D03*
G01X-2357354Y-9386324D03*
G01X-2355654Y-3363146D03*
G01X-2333554Y-3087742D03*
G01X-2323432Y-7180571D03*
G01X-2321654Y-8789616D03*
G01X-2313232Y-7333573D03*
G01X-2308132Y-6313560D03*
G01X-2301253Y-9121120D03*
G01X-2291053Y-9263922D03*
G01X-2277532Y-3722726D03*
G01X-2270653Y-3511048D03*
G01X-2262153Y-9386324D03*
G01X-2260453Y-3991331D03*
G01X-2260453Y-3363146D03*
G01X-2258775Y-4190311D03*
G01X-2257053Y-3884229D03*
G01X-2254607Y-4108552D03*
G01X-2234953Y-8998719D03*
G01X-2206052Y-9121120D03*
G01X-2202622Y-1964893D03*
G01X-2195852Y-9263922D03*
G01X-2188281Y-6734315D03*
G01X-2175531Y-3799227D03*
G01X-2170431Y-3120918D03*
G01X-2166952Y-9386324D03*
G01X-2144930Y-4997743D03*
G01X-2139751Y-8998719D03*
G01X-2110851Y-9121120D03*
G01X-2100651Y-9263922D03*
G01X-2097251Y-3964953D03*
G01X-2088829Y-6726665D03*
G01X-2083729Y-1978504D03*
G01X-2081973Y-3879207D03*
G01X-2078629Y-7751778D03*
G01X-2071750Y-9386324D03*
G01X-2044550Y-8998719D03*
G01X-2035305Y-5823875D03*
G01X-2035305Y-5728673D03*
G01X-2035305Y-5633472D03*
G01X-2015650Y-9121120D03*
G01X-2005450Y-9263922D03*
G01X-2002128Y-3840028D03*
G01X-1997028Y-6981668D03*
G01X-1974849Y-111801D03*
G01X-1949349Y-8998719D03*
G01X-1925627Y-8113883D03*
G01X-1925627Y-7420274D03*
G01X-1911948Y-2893940D03*
G01X-1900071Y-3879207D03*
G01X-1859627Y-111801D03*
G01X-1830347Y-2363533D03*
G01X-1799747Y-3046942D03*
G01X-1784447Y-2266631D03*
G01X-1748072Y-8858493D03*
G01X-1748072Y-8552489D03*
G01X-1744405Y-111801D03*
G01X-1729714Y-5696452D03*
G01X-1726725Y-7364173D03*
G01X-1706325Y-5064043D03*
G01X-1699446Y-4270957D03*
G01X-1696046Y-3944553D03*
G01X-1687546Y-2327832D03*
G01X-1684145Y-4510661D03*
G01X-1679045Y-4036354D03*
G01X-1645124Y-1845902D03*
G01X-1643345Y-4775864D03*
G01X-1633145Y-4148556D03*
G01X-1629182Y-111801D03*
G01X-1617845Y-4388259D03*
G01X-1612745Y-3913953D03*
G01X-1604244Y-4270957D03*
G01X-1599223Y-5568950D03*
G01X-1589023Y-6798066D03*
G01X-1589023Y-5711752D03*
G01X-1588944Y-4510661D03*
G01X-1583844Y-4036354D03*
G01X-1577044Y-4653462D03*
G01X-1548144Y-4775864D03*
G01X-1538022Y-6022856D03*
G01X-1537944Y-4148556D03*
G01X-1534544Y-2394133D03*
G01X-1522643Y-4388259D03*
G01X-1517543Y-3913953D03*
G01X-1513960Y-111801D03*
G01X-1509043Y-4270957D03*
G01X-1493743Y-4510661D03*
G01X-1488643Y-4036354D03*
G01X-1481843Y-4653462D03*
G01X-1452942Y-4775864D03*
G01X-1442742Y-4148556D03*
G01X-1427442Y-4388259D03*
G01X-1422342Y-3913953D03*
G01X-1422342Y-1812726D03*
G01X-1415542Y-4923766D03*
G01X-1413842Y-4270957D03*
G01X-1412142Y-1731125D03*
G01X-1401942Y-1644423D03*
G01X-1398738Y-111801D03*
G01X-1398542Y-4510661D03*
G01X-1395220Y-5716852D03*
G01X-1393442Y-4036354D03*
G01X-1386642Y-4653462D03*
G01X-1379920Y-5191545D03*
G01X-1359520Y-7914980D03*
G01X-1357741Y-4775864D03*
G01X-1354420Y-6043256D03*
G01X-1349320Y-2340608D03*
G01X-1347541Y-4148556D03*
G01X-1339120Y-6991868D03*
G01X-1332241Y-4388259D03*
G01X-1327141Y-3913953D03*
G01X-1320341Y-4923766D03*
G01X-1291440Y-4653462D03*
G01X-1283516Y-111801D03*
G01X-1252419Y-5650551D03*
G01X-1225140Y-4923766D03*
G01X-1191139Y-4077155D03*
G01X-1189439Y-4296458D03*
G01X-1175839Y-4765664D03*
G01X-1168293Y-111801D03*
G01X-1166214Y-9159318D03*
G01X-1150417Y-6395161D03*
G01X-1129938Y-3970054D03*
G01X-1123138Y-4174056D03*
G01X-1095938Y-4077155D03*
G01X-1094238Y-4296458D03*
G01X-1092538Y-4515761D03*
G01X-1080638Y-4765664D03*
G01X-1073916Y-5808653D03*
G01X-1058616Y-6084057D03*
G01X-1050992Y-9159318D03*
G01X-1034737Y-3970054D03*
G01X-1027937Y-4174056D03*
G01X-1026237Y-4393359D03*
G01X-1012716Y-3426922D03*
G01X-1000737Y-4077155D03*
G01X-999037Y-4296458D03*
G01X-997337Y-4515761D03*
G01X-992315Y-7073469D03*
G01X-985436Y-4765664D03*
G01X-971915Y-3273920D03*
G01X-970077Y-8950456D03*
G01X-965036Y-7828200D03*
G01X-956615Y-4936542D03*
G01X-954005Y-2159564D03*
G01X-939536Y-7731299D03*
G01X-939536Y-3970054D03*
G01X-937008Y-6073857D03*
G01X-935573Y-9067517D03*
G01X-932736Y-4174056D03*
G01X-931036Y-4393359D03*
G01X-903835Y-4296458D03*
G01X-902135Y-4515761D03*
G01X-888535Y-6920389D03*
G01X-879428Y-1114050D03*
G01X-878335Y-7945502D03*
G01X-859714Y-3228020D03*
G01X-849814Y-7828200D03*
G01X-839313Y-7002069D03*
G01X-838783Y-2159564D03*
G01X-837535Y-4174056D03*
G01X-835834Y-4393359D03*
G01X-824314Y-7731299D03*
G01X-823934Y-4041454D03*
G01X-806934Y-4515761D03*
G01X-773313Y-6920389D03*
G01X-767912Y-3192319D03*
G01X-764205Y-1114050D03*
G01X-763113Y-7945502D03*
G01X-742412Y-2514010D03*
G01X-740633Y-4393359D03*
G01X-734592Y-7828200D03*
G01X-728733Y-4041454D03*
G01X-723561Y-2159564D03*
G01X-722012Y-5931055D03*
G01X-720429Y-9067517D03*
G01X-709091Y-7731299D03*
G01X-690770Y-8868614D03*
G01X-674332Y-5143069D03*
G01X-662249Y-8975715D03*
G01X-658091Y-6920389D03*
G01X-648983Y-1114050D03*
G01X-647890Y-7945502D03*
G01X-633532Y-4041454D03*
G01X-619369Y-7828200D03*
G01X-608338Y-2159564D03*
G01X-608032Y-5020667D03*
G01X-593869Y-7731299D03*
G01X-579131Y-5143069D03*
G01X-548610Y-6007556D03*
G01X-542868Y-6920389D03*
G01X-533761Y-1114050D03*
G01X-532668Y-7945502D03*
G01X-528209Y-6119757D03*
G01X-516230Y-4882965D03*
G01X-512830Y-5020667D03*
G01X-504147Y-7828200D03*
G01X-500930Y-8960415D03*
G01X-493116Y-2159564D03*
G01X-492509Y-3289220D03*
G01X-483930Y-5143069D03*
G01X-478647Y-7731299D03*
G01X-449930Y-4760564D03*
G01X-427646Y-6920389D03*
G01X-421029Y-4882965D03*
G01X-418538Y-1114050D03*
G01X-417629Y-5020667D03*
G01X-417446Y-7945502D03*
G01X-388925Y-7828200D03*
G01X-388729Y-5143069D03*
G01X-385708Y-8960415D03*
G01X-377894Y-2159564D03*
G01X-363424Y-7731299D03*
G01X-359907Y-5721952D03*
G01X-354728Y-4760564D03*
G01X-339428Y-3199944D03*
G01X-325828Y-4882965D03*
G01X-322428Y-5020667D03*
G01X-312424Y-6920389D03*
G01X-303316Y-1114050D03*
G01X-302224Y-7945502D03*
G01X-273703Y-7828200D03*
G01X-270486Y-8960415D03*
G01X-262672Y-2159564D03*
G01X-259527Y-4760564D03*
G01X-248202Y-7731299D03*
G01X-244227Y-3199944D03*
G01X-230627Y-4882965D03*
G01X-227227Y-3500847D03*
G01X-197202Y-6920389D03*
G01X-188094Y-1114050D03*
G01X-187001Y-7945502D03*
G01X-164326Y-4760564D03*
G01X-158480Y-7828200D03*
G01X-155263Y-8960415D03*
G01X-149026Y-3199944D03*
G01X-147449Y-2159564D03*
G01X-132980Y-7731299D03*
G01X-132025Y-3500847D03*
G01X-84582Y-2078726D03*
G01X-84582Y-1963504D03*
G01X-84582Y-1848282D03*
G01X-84582Y-1733059D03*
G01X-84582Y-1617837D03*
G01X-84582Y-1502615D03*
G01X-84582Y-1387392D03*
G01X-84582Y-1272170D03*
G01X-81979Y-6920389D03*
G01X-79482Y-3098739D03*
G01X-79482Y-2983517D03*
G01X-79482Y-2868295D03*
G01X-79482Y-2753072D03*
G01X-79482Y-2637850D03*
G01X-79482Y-2522628D03*
G01X-79482Y-2407406D03*
G01X-79482Y-2292183D03*
G01X-72872Y-1114050D03*
G01X-72525Y-3347845D03*
G01X-71779Y-7945502D03*
G04 Drill Drawing End*

M02*

