G04 Layer: BottomSilkscreenLayer*
G04 EasyEDA Pro v2.2.32.3, 2025-11-28 17:47:01*
G04 Gerber Generator version 0.3*
G04 Scale: 100 percent, Rotated: No, Reflected: No*
G04 Dimensions in millimeters*
G04 Leading zeros omitted, absolute positions, 3 integers and 5 decimals*
%FSLAX35Y35*%
%MOMM*%
%ADD10C,0.12*%
%ADD11C,0.254*%
G75*


G04 Text Start*
G54D10*
G01X-6295388Y-1475716D02*
G01X-6295388Y-1398246D01*
G01X-6295388Y-1475716D02*
G01X-6269734Y-1475716D01*
G01X-6258558Y-1472160D01*
G01X-6251192Y-1464794D01*
G01X-6247636Y-1457428D01*
G01X-6243826Y-1446252D01*
G01X-6243826Y-1427710D01*
G01X-6247636Y-1416788D01*
G01X-6251192Y-1409422D01*
G01X-6258558Y-1402056D01*
G01X-6269734Y-1398246D01*
G01X-6295388Y-1398246D01*
G01X-6214108Y-1475716D02*
G01X-6214108Y-1398246D01*
G01X-6214108Y-1475716D02*
G01X-6180834Y-1475716D01*
G01X-6169912Y-1472160D01*
G01X-6166102Y-1468350D01*
G01X-6162546Y-1460984D01*
G01X-6162546Y-1453618D01*
G01X-6166102Y-1446252D01*
G01X-6169912Y-1442442D01*
G01X-6180834Y-1438886D01*
G01X-6214108Y-1438886D02*
G01X-6180834Y-1438886D01*
G01X-6169912Y-1435076D01*
G01X-6166102Y-1431520D01*
G01X-6162546Y-1424154D01*
G01X-6162546Y-1412978D01*
G01X-6166102Y-1405612D01*
G01X-6169912Y-1402056D01*
G01X-6180834Y-1398246D01*
G01X-6214108Y-1398246D01*
G01X-6132828Y-1460984D02*
G01X-6125462Y-1464794D01*
G01X-6114286Y-1475716D01*
G01X-6114286Y-1398246D01*
G04 Text End*

G04 PolygonModel Start*
G54D11*
G01X-6200786Y-36823D02*
G01X-6200786Y563178D01*
G01X-6197786Y563178D02*
G01X-5786786Y563178D01*
G01X-5786786Y563178D02*
G01X-5786786Y-36823D01*
G01X-3286822Y-36848D02*
G01X-3286822Y563100D01*
G01X-3286822Y563100D02*
G01X-3697794Y563100D01*
G01X-3700786Y-36823D02*
G01X-3700786Y563178D01*
G01X-3906785Y-36823D02*
G01X-3906785Y563178D01*
G01X-3906785Y563178D02*
G01X-5581785Y563178D01*
G01X-5581785Y563178D02*
G01X-5581785Y-36823D01*
G01X-4744286Y491177D02*
G01X-4744286Y561177D01*
G01X-6283786Y-36823D02*
G01X-6283786Y-1286823D01*
G01X-6283786Y-1286823D02*
G01X-3203787Y-1286823D01*
G01X-3203787Y-1286823D02*
G01X-3203787Y-36823D01*
G01X-3203787Y-36823D02*
G01X-6283786Y-36823D01*

M02*

