G04 Layer: CustomLayer2*
G04 EasyEDA Pro v2.2.32.3, 2025-11-28 17:47:01*
G04 Gerber Generator version 0.3*
G04 Scale: 100 percent, Rotated: No, Reflected: No*
G04 Dimensions in millimeters*
G04 Leading zeros omitted, absolute positions, 3 integers and 5 decimals*
%FSLAX35Y35*%
%MOMM*%
%ADD10C,0.0127*%
%ADD11C,0.15*%
G75*


G04 PolygonModel Start*
G54D10*
G01X-5201247Y-6979430D02*
G01X-5206327Y-6974350D01*
G01X-1518443Y-6509922D02*
G01X-1513363Y-6515002D01*
G54D11*
G01X-5390693Y-7683208D02*
G01X-5490693Y-7683208D01*
G01X-5440693Y-7733208D02*
G01X-5440693Y-7633208D01*
G01X-6300693Y-7733208D02*
G01X-6300693Y-7633208D01*
G01X-7371106Y-8636920D02*
G01X-7271106Y-8636920D01*
G01X-7321106Y-8586920D02*
G01X-7321106Y-8686920D01*
G01X-6461106Y-8586920D02*
G01X-6461106Y-8686920D01*
G54D10*
G01X-7663775Y-9632070D02*
G01X-7658695Y-9637150D01*
G01X-7654844Y-9662188D02*
G01X-7649764Y-9667268D01*
G01X-7649371Y-9293688D02*
G01X-7644291Y-9298768D01*
G01X-839143Y-6169645D02*
G01X-844223Y-6174725D01*
G01X-841843Y-6460348D02*
G01X-846923Y-6465428D01*
G01X-1980615Y-8034852D02*
G01X-1985695Y-8029772D01*
G01X-3673161Y-7555727D02*
G01X-3668081Y-7560807D01*
G01X-3474258Y-7555727D02*
G01X-3469178Y-7560807D01*
G54D11*
G01X-5035223Y-8182445D02*
G01X-4855223Y-8182445D01*
G01X-5035223Y-8492445D02*
G01X-4855223Y-8492445D01*
G01X-5035223Y-8492445D02*
G01X-5035223Y-8182445D01*
G01X-4855223Y-8492445D02*
G01X-4855223Y-8182445D01*
G54D10*
G01X-6837345Y-8153234D02*
G01X-6832265Y-8148154D01*
G01X-2691722Y-7535368D02*
G01X-2696802Y-7530288D01*
G01X-2619019Y-6635657D02*
G01X-2624099Y-6630577D01*
G01X-2627950Y-6605538D02*
G01X-2633030Y-6600458D01*
G01X-5324393Y-7652390D02*
G01X-5329473Y-7657470D01*
G01X-5354512Y-7661321D02*
G01X-5359592Y-7666401D01*
G01X-3628319Y-2413378D02*
G01X-3623239Y-2408298D01*
G01X-3591161Y-2644297D02*
G01X-3586081Y-2649377D01*
G01X-3642162Y-1986389D02*
G01X-3637082Y-1991469D01*
G01X-3443260Y-1991489D02*
G01X-3438180Y-1996569D01*
G01X-1097627Y-8677742D02*
G01X-1092547Y-8682822D01*
G01X-1017059Y-8283915D02*
G01X-1022139Y-8278835D01*
G01X-2926354Y-6606793D02*
G01X-2921274Y-6611873D01*
G01X-4955411Y-7656594D02*
G01X-4960491Y-7661674D01*
G01X-12069316Y-4925521D02*
G01X-12074396Y-4930601D01*
G01X-2302275Y-4433366D02*
G01X-2307355Y-4428286D01*
G01X-912516Y-2789715D02*
G01X-917596Y-2784635D01*
G01X-1529624Y-2952917D02*
G01X-1534704Y-2947837D01*
G01X-2014858Y-2982103D02*
G01X-2019938Y-2987183D01*
G01X-1635268Y-2582028D02*
G01X-1640348Y-2587108D01*
G01X-2104474Y-2291325D02*
G01X-2109554Y-2296405D01*
G01X-1230905Y-1394566D02*
G01X-1235985Y-1389486D01*
G01X-1273204Y-2262951D02*
G01X-1268124Y-2257871D01*
G01X-1413091Y-7171484D02*
G01X-1408011Y-7166404D01*
G01X-5624288Y-3796657D02*
G01X-5619208Y-3801737D01*
G01X-5616962Y-5245116D02*
G01X-5622042Y-5240036D01*
G01X-2581363Y-5467222D02*
G01X-2576283Y-5462142D01*
G01X-2576263Y-5253019D02*
G01X-2571183Y-5247939D01*
G01X-2460021Y-2419680D02*
G01X-2465101Y-2414600D01*
G01X-2599855Y-2743786D02*
G01X-2594775Y-2738706D01*
G01X-2994071Y-6939754D02*
G01X-2999151Y-6944834D01*
G01X-5763447Y-4871354D02*
G01X-5758367Y-4866274D01*
G01X-5972550Y-3683039D02*
G01X-5967470Y-3677959D01*
G01X-12069316Y-3257683D02*
G01X-12074396Y-3262763D01*
G01X-12069316Y-6654765D02*
G01X-12074396Y-6659845D01*
G01X-12069316Y-1550683D02*
G01X-12074396Y-1555763D01*
G54D11*
G01X-9755650Y-8067072D02*
G01X-9755650Y-8167072D01*
G01X-9705650Y-8117072D02*
G01X-9805650Y-8117072D01*
G01X-9705650Y-8977072D02*
G01X-9805650Y-8977072D01*
G54D10*
G01X-8856285Y-8793627D02*
G01X-8851205Y-8788547D01*
G01X-7954213Y-8447841D02*
G01X-7959293Y-8442761D01*
G01X-9028911Y-8125196D02*
G01X-9023831Y-8120116D01*
G01X-9366932Y-8549842D02*
G01X-9372012Y-8544762D01*
G01X-9420159Y-7978594D02*
G01X-9415079Y-7983674D01*

M02*

