G04 Layer: TopPasteMaskLayer*
G04 EasyEDA Pro v2.2.32.3, 2025-11-28 17:47:01*
G04 Gerber Generator version 0.3*
G04 Scale: 100 percent, Rotated: No, Reflected: No*
G04 Dimensions in millimeters*
G04 Leading zeros omitted, absolute positions, 3 integers and 5 decimals*
%FSLAX35Y35*%
%MOMM*%
%ADD10R,0.889X0.889*%
%ADD11R,1.0X2.99999*%
%ADD12R,0.889X0.889*%
%ADD13R,0.889X0.889*%
%ADD14R,1.0X2.99999*%
%ADD15R,0.7650X0.8128*%
%ADD16R,0.762X0.8128*%
%ADD17R,0.8128X0.762*%
%ADD18R,0.49022X0.98552*%
%ADD19R,2.0X2.0*%
%ADD20R,2.0X2.0*%
%ADD21R,1.0X0.89992*%
%ADD22R,1.3X1.9*%
%ADD23R,2.2X2.0*%
%ADD24R,1.25001X0.7*%
%ADD25R,0.7X1.25001*%
%ADD26R,0.9652X1.016*%
%ADD27R,1.0X1.10002*%
%ADD28R,1.10002X1.0*%
%ADD29R,1.0X1.10002*%
%ADD30R,1.016X0.9652*%
%ADD31R,1.10002X1.0*%
%ADD32R,2.0X3.6*%
%ADD33R,1.6X1.1*%
%ADD34R,1.6X1.1*%
%ADD35R,1.2X0.6*%
%ADD36R,2.4X3.29999*%
%ADD37R,0.9X2.0*%
%ADD38R,2.0X0.9*%
%ADD39R,0.9X2.0*%
%ADD40R,3.69999X3.69999*%
%ADD41R,1.1X0.6*%
%ADD42O,1.97099X0.60201*%
%ADD43R,0.7X1.6*%
%ADD44R,1.2X2.2*%
%ADD45R,1.6X1.5*%
%ADD46R,1.2X1.8*%
%ADD47R,0.6X1.1*%
%ADD48R,2.50002X1.0*%
%ADD49R,2.49999X1.0*%
%ADD50R,2.99999X1.0*%
%ADD51R,0.762X0.8128*%
%ADD52R,1.0X0.89992*%
%ADD53R,0.89992X1.0*%
%ADD54R,0.889X0.889*%
%ADD55R,2.99999X1.0*%
%ADD56O,1.73149X0.343*%
%ADD57R,0.95001X1.15001*%
%ADD58R,0.6X1.1*%
%ADD59O,1.55001X0.7*%
%ADD60O,0.60201X1.97099*%
%ADD61R,1.1X0.6*%
%ADD62R,1.35999X1.23*%
%ADD63R,1.15001X0.95001*%
%ADD64R,1.15001X0.95001*%
%ADD65R,2.0X2.0*%
%ADD66R,1.25001X0.7*%
G75*


G04 PolygonModel Start*
G36*
G01X-3238044Y-6078856D02*
G01X-3238044Y-6041831D01*
G01X-3228044Y-6031831D01*
G01X-3197554Y-6031831D01*
G01X-3187554Y-6021831D01*
G01X-3187554Y-5983080D01*
G01X-3197554Y-5973081D01*
G01X-3228044Y-5973081D01*
G01X-3238044Y-5963081D01*
G01X-3238044Y-5926055D01*
G01X-3228044Y-5916055D01*
G01X-3099546Y-5916055D01*
G01X-3089546Y-5926055D01*
G01X-3089546Y-6078856D01*
G01X-3099546Y-6088856D01*
G01X-3228044Y-6088856D01*
G01X-3238044Y-6078856D01*
G37*
G36*
G01X-3408047Y-6078856D02*
G01X-3408047Y-6041831D01*
G01X-3418047Y-6031831D01*
G01X-3448537Y-6031831D01*
G01X-3458537Y-6021831D01*
G01X-3458537Y-5983080D01*
G01X-3448537Y-5973081D01*
G01X-3418047Y-5973081D01*
G01X-3408047Y-5963081D01*
G01X-3408047Y-5926055D01*
G01X-3418047Y-5916055D01*
G01X-3546545Y-5916055D01*
G01X-3556545Y-5926055D01*
G01X-3556545Y-6078856D01*
G01X-3546545Y-6088856D01*
G01X-3418047Y-6088856D01*
G01X-3408047Y-6078856D01*
G37*
G36*
G01X-2241932Y-7988081D02*
G01X-2278957Y-7988081D01*
G01X-2288957Y-7978081D01*
G01X-2288957Y-7947591D01*
G01X-2298957Y-7937591D01*
G01X-2337708Y-7937591D01*
G01X-2347708Y-7947591D01*
G01X-2347708Y-7978081D01*
G01X-2357708Y-7988081D01*
G01X-2394733Y-7988081D01*
G01X-2404733Y-7978081D01*
G01X-2404733Y-7849583D01*
G01X-2394733Y-7839583D01*
G01X-2241932Y-7839583D01*
G01X-2231932Y-7849583D01*
G01X-2231932Y-7978081D01*
G01X-2241932Y-7988081D01*
G37*
G36*
G01X-2241932Y-8158084D02*
G01X-2278957Y-8158084D01*
G01X-2288957Y-8168083D01*
G01X-2288957Y-8198574D01*
G01X-2298957Y-8208574D01*
G01X-2337708Y-8208574D01*
G01X-2347708Y-8198574D01*
G01X-2347708Y-8168083D01*
G01X-2357708Y-8158084D01*
G01X-2394733Y-8158084D01*
G01X-2404733Y-8168083D01*
G01X-2404733Y-8296582D01*
G01X-2394733Y-8306582D01*
G01X-2241932Y-8306582D01*
G01X-2231932Y-8296582D01*
G01X-2231932Y-8168083D01*
G01X-2241932Y-8158084D01*
G37*
G36*
G01X-4289256Y-6448183D02*
G01X-4326281Y-6448183D01*
G01X-4336281Y-6438183D01*
G01X-4336281Y-6407693D01*
G01X-4346281Y-6397693D01*
G01X-4385032Y-6397693D01*
G01X-4395032Y-6407693D01*
G01X-4395032Y-6438183D01*
G01X-4405032Y-6448183D01*
G01X-4442057Y-6448183D01*
G01X-4452057Y-6438183D01*
G01X-4452057Y-6309685D01*
G01X-4442057Y-6299685D01*
G01X-4289256Y-6299685D01*
G01X-4279256Y-6309685D01*
G01X-4279256Y-6438183D01*
G01X-4289256Y-6448183D01*
G37*
G36*
G01X-4289256Y-6618186D02*
G01X-4326281Y-6618186D01*
G01X-4336281Y-6628186D01*
G01X-4336281Y-6658676D01*
G01X-4346281Y-6668676D01*
G01X-4385032Y-6668676D01*
G01X-4395032Y-6658676D01*
G01X-4395032Y-6628186D01*
G01X-4405032Y-6618186D01*
G01X-4442057Y-6618186D01*
G01X-4452057Y-6628186D01*
G01X-4452057Y-6756684D01*
G01X-4442057Y-6766684D01*
G01X-4289256Y-6766684D01*
G01X-4279256Y-6756684D01*
G01X-4279256Y-6628186D01*
G01X-4289256Y-6618186D01*
G37*
G36*
G01X-2975339Y-4607937D02*
G01X-2975339Y-4687937D01*
G01X-2970338Y-4692938D01*
G01X-2947541Y-4692938D01*
G01X-2947541Y-4655938D01*
G01X-2914542Y-4655938D01*
G01X-2914542Y-4692938D01*
G01X-2890338Y-4692938D01*
G01X-2885339Y-4687937D01*
G01X-2885339Y-4607937D01*
G01X-2890338Y-4602938D01*
G01X-2970338Y-4602938D01*
G01X-2975339Y-4607937D01*
G37*
G36*
G01X-2970338Y-4762938D02*
G01X-2947541Y-4762938D01*
G01X-2947541Y-4800937D01*
G01X-2914542Y-4800937D01*
G01X-2914542Y-4762938D01*
G01X-2890338Y-4762938D01*
G01X-2885339Y-4767937D01*
G01X-2885339Y-4846936D01*
G01X-2890338Y-4851937D01*
G01X-2970338Y-4851937D01*
G01X-2975339Y-4846936D01*
G01X-2975339Y-4767937D01*
G01X-2970338Y-4762938D01*
G37*

G04 Pad Start*
G54D10*
G01X-3113943Y-6676633D03*
G01X-3113943Y-6521693D03*
G54D11*
G01X-5273468Y-7256890D03*
G01X-5273468Y-6696891D03*
G54D12*
G01X-6174951Y-5477149D03*
G01X-6020011Y-5477149D03*
G54D13*
G01X-6609434Y-7581206D03*
G01X-6764374Y-7581206D03*
G01X-4601229Y-7803101D03*
G01X-4446289Y-7803101D03*
G54D12*
G01X-3915882Y-9679925D03*
G01X-4070822Y-9679925D03*
G54D13*
G01X-4422726Y-9679925D03*
G01X-4267786Y-9679925D03*
G01X-3874822Y-7838479D03*
G01X-3719882Y-7838479D03*
G54D14*
G01X-1446221Y-6232463D03*
G01X-1446221Y-6792462D03*
G54D16*
G01X-2983101Y-7741298D03*
G01X-2982570Y-7584664D03*
G54D17*
G01X-2789134Y-1872162D03*
G01X-2632500Y-1872693D03*
G01X-2360756Y-1872162D03*
G01X-2204122Y-1872693D03*
G01X-1942523Y-1872162D03*
G01X-1785889Y-1872693D03*
G54D18*
G01X-834213Y-9036553D03*
G01X-834213Y-8813033D03*
G54D19*
G01X-5650693Y-7683208D03*
G01X-6070693Y-7683208D03*
G54D18*
G01X-1038216Y-1483356D03*
G01X-1038216Y-1259836D03*
G54D20*
G01X-7111106Y-8636920D03*
G01X-6691106Y-8636920D03*
G54D21*
G01X-7614259Y-9564865D03*
G01X-7614259Y-9734865D03*
G54D22*
G01X-1298085Y-8294861D03*
G01X-1298085Y-9134839D03*
G01X-1748072Y-8294861D03*
G01X-1748072Y-9134839D03*
G54D23*
G01X-6048678Y-7372995D03*
G01X-6048678Y-6692987D03*
G54D24*
G01X-3170240Y-7177698D03*
G01X-3170240Y-7367690D03*
G01X-2970240Y-7272694D03*
G54D25*
G01X-3629342Y-7275793D03*
G01X-3439350Y-7275793D03*
G01X-3534346Y-7075793D03*
G54D26*
G01X-2631130Y-1681581D03*
G01X-2789880Y-1681581D03*
G54D27*
G01X-6770111Y-6724395D03*
G01X-6930090Y-6724395D03*
G54D28*
G01X-7607457Y-9216273D03*
G01X-7607457Y-9376253D03*
G54D29*
G01X-761729Y-6211558D03*
G01X-921708Y-6211558D03*
G01X-764429Y-6502262D03*
G01X-924408Y-6502262D03*
G54D30*
G01X-2658575Y-7965799D03*
G01X-2658575Y-8124549D03*
G01X-2860380Y-7970577D03*
G01X-2860380Y-8129327D03*
G01X-3209382Y-7965799D03*
G01X-3209382Y-8124549D03*
G01X-3408285Y-7965799D03*
G01X-3408285Y-8124549D03*
G54D31*
G01X-2022529Y-8112266D03*
G01X-2022529Y-7952287D03*
G54D26*
G01X-2631130Y-1482058D03*
G01X-2789880Y-1482058D03*
G01X-2207825Y-1482058D03*
G01X-2366575Y-1482058D03*
G01X-2207825Y-1681581D03*
G01X-2366575Y-1681581D03*
G01X-1780049Y-1482058D03*
G01X-1938799Y-1482058D03*
G01X-1784519Y-1681581D03*
G01X-1943269Y-1681581D03*
G54D28*
G01X-3631247Y-7478313D03*
G01X-3631247Y-7638293D03*
G01X-3432344Y-7478313D03*
G01X-3432344Y-7638293D03*
G54D32*
G01X-3478748Y-6487284D03*
G54D33*
G01X-4028749Y-6717284D03*
G54D34*
G01X-4028749Y-6487284D03*
G54D33*
G01X-4028749Y-6257284D03*
G54D35*
G01X-6559276Y-7333101D03*
G01X-6559276Y-7206101D03*
G01X-6559276Y-7079101D03*
G01X-6559276Y-6952101D03*
G01X-7140936Y-6952101D03*
G01X-7140936Y-7079101D03*
G01X-7140936Y-7206101D03*
G01X-7140936Y-7333101D03*
G54D36*
G01X-6850106Y-7142601D03*
G54D37*
G01X-205714Y-5399270D03*
G01X-332714Y-5399270D03*
G01X-459714Y-5399270D03*
G01X-586714Y-5399270D03*
G01X-713714Y-5399270D03*
G01X-840714Y-5399270D03*
G01X-967714Y-5399270D03*
G01X-1094714Y-5399270D03*
G01X-1221714Y-5399270D03*
G01X-1348714Y-5399270D03*
G01X-1475714Y-5399270D03*
G01X-1602714Y-5399270D03*
G01X-1729714Y-5399270D03*
G01X-1856714Y-5399270D03*
G54D38*
G01X-1956714Y-5120759D03*
G01X-1956714Y-4993759D03*
G01X-1956714Y-4866759D03*
G01X-1956714Y-4739759D03*
G01X-1956714Y-4612759D03*
G01X-1956714Y-4485759D03*
G01X-1956714Y-4358759D03*
G01X-1956714Y-4231759D03*
G01X-1956714Y-4104759D03*
G01X-1956714Y-3977759D03*
G54D39*
G01X-1856714Y-3699248D03*
G01X-1729714Y-3699248D03*
G01X-1602714Y-3699248D03*
G01X-1475714Y-3699248D03*
G01X-1348714Y-3699248D03*
G01X-1221714Y-3699248D03*
G01X-1094714Y-3699248D03*
G01X-967714Y-3699248D03*
G01X-840714Y-3699248D03*
G01X-713714Y-3699248D03*
G01X-586714Y-3699248D03*
G01X-459714Y-3699248D03*
G01X-332714Y-3699248D03*
G01X-205714Y-3699248D03*
G54D40*
G01X-955700Y-4399272D03*
G54D41*
G01X-5085223Y-8242446D03*
G01X-5085223Y-8337446D03*
G01X-5085223Y-8432446D03*
G01X-4805223Y-8432446D03*
G01X-4805223Y-8337446D03*
G01X-4805223Y-8242446D03*
G54D42*
G01X-4419912Y-8067510D03*
G01X-4419912Y-8194510D03*
G01X-4419912Y-8321510D03*
G01X-4419912Y-8448510D03*
G01X-4419912Y-8575510D03*
G01X-4419912Y-8702510D03*
G01X-4419912Y-8829510D03*
G01X-4419912Y-8956510D03*
G01X-3872796Y-8067510D03*
G01X-3872796Y-8194510D03*
G01X-3872796Y-8321510D03*
G01X-3872796Y-8448510D03*
G01X-3872796Y-8575510D03*
G01X-3872796Y-8702510D03*
G01X-3872796Y-8829510D03*
G01X-3872796Y-8956510D03*
G54D43*
G01X-2595343Y-8532821D03*
G01X-2705325Y-8532821D03*
G01X-3255337Y-8532821D03*
G01X-2815333Y-8532821D03*
G01X-3035347Y-8532821D03*
G01X-3475326Y-8532821D03*
G01X-2925340Y-8532821D03*
G01X-3145329Y-8532821D03*
G54D44*
G01X-2045357Y-9592814D03*
G01X-3595316Y-9592814D03*
G54D45*
G01X-2110330Y-8637824D03*
G54D46*
G01X-3595316Y-8662818D03*
G54D43*
G01X-3365344Y-8532821D03*
G54D47*
G01X-1244120Y-7606174D03*
G01X-1434120Y-7606174D03*
G01X-1434120Y-7326174D03*
G01X-1339120Y-7326174D03*
G01X-1244120Y-7326174D03*
G54D48*
G01X-3886734Y-9343321D03*
G54D49*
G01X-4446772Y-9343321D03*
G54D50*
G01X-7114805Y-8081013D03*
G01X-6554806Y-8081013D03*
G54D17*
G01X-1639422Y-8053120D03*
G01X-1482787Y-8053651D03*
G54D31*
G01X-2733635Y-7612802D03*
G01X-2733635Y-7452803D03*
G54D51*
G01X-3753688Y-2586269D03*
G01X-3754219Y-2742903D03*
G01X-3819989Y-1897760D03*
G01X-3820520Y-2054394D03*
G54D16*
G01X-866573Y-8358406D03*
G01X-866042Y-8201772D03*
G54D52*
G01X-2668535Y-6702861D03*
G01X-2668535Y-6532861D03*
G54D53*
G01X-5257189Y-7701906D03*
G01X-5427188Y-7701906D03*
G54D27*
G01X-3705733Y-2371464D03*
G01X-3545754Y-2371464D03*
G54D28*
G01X-3549248Y-2566863D03*
G01X-3549248Y-2726863D03*
G01X-3600248Y-1908975D03*
G01X-3600248Y-2068954D03*
G01X-3401346Y-1914055D03*
G01X-3401346Y-2074054D03*
G01X-1055714Y-8600328D03*
G01X-1055714Y-8760307D03*
G54D31*
G01X-1058972Y-8361350D03*
G01X-1058972Y-8201350D03*
G54D28*
G01X-2884440Y-6529379D03*
G01X-2884440Y-6689358D03*
G54D29*
G01X-4877997Y-7698508D03*
G01X-5037976Y-7698508D03*
G54D13*
G01X-330276Y-3350421D03*
G01X-175336Y-3350421D03*
G54D12*
G01X-2582567Y-4798840D03*
G01X-2737507Y-4798840D03*
G01X-2929371Y-3151519D03*
G01X-3084311Y-3151519D03*
G54D54*
G01X-3124143Y-4655069D03*
G01X-3124143Y-4810009D03*
G54D55*
G01X-11791857Y-4997743D03*
G01X-12351856Y-4997743D03*
G54D31*
G01X-2344189Y-4510780D03*
G01X-2344189Y-4350800D03*
G54D56*
G01X-3301432Y-3319546D03*
G01X-3301432Y-3384545D03*
G01X-3301432Y-3449544D03*
G01X-3301432Y-3514568D03*
G01X-3301432Y-3579566D03*
G01X-3301432Y-3644565D03*
G01X-3301432Y-3709563D03*
G01X-3301432Y-3774562D03*
G01X-2728281Y-3319546D03*
G01X-2728281Y-3384545D03*
G01X-2728281Y-3449544D03*
G01X-2728281Y-3514568D03*
G01X-2728281Y-3579566D03*
G01X-2728281Y-3644565D03*
G01X-2728281Y-3709563D03*
G01X-2728281Y-3774562D03*
G01X-3303973Y-4024785D03*
G01X-3303973Y-4089784D03*
G01X-3303973Y-4154782D03*
G01X-3303973Y-4219806D03*
G01X-3303973Y-4284805D03*
G01X-3303973Y-4349803D03*
G01X-3303973Y-4414802D03*
G01X-3303973Y-4479801D03*
G01X-2730822Y-4024785D03*
G01X-2730822Y-4089784D03*
G01X-2730822Y-4154782D03*
G01X-2730822Y-4219806D03*
G01X-2730822Y-4284805D03*
G01X-2730822Y-4349803D03*
G01X-2730822Y-4414802D03*
G01X-2730822Y-4479801D03*
G54D57*
G01X-5502068Y-7980441D03*
G01X-5163588Y-7980441D03*
G54D13*
G01X-1040161Y-3098248D03*
G01X-1195101Y-3098248D03*
G54D24*
G01X-1345133Y-2457545D03*
G01X-1345133Y-2647537D03*
G01X-1145133Y-2552541D03*
G54D31*
G01X-954429Y-2867149D03*
G01X-954429Y-2707150D03*
G01X-1571537Y-3030351D03*
G01X-1571537Y-2870352D03*
G54D29*
G01X-1937424Y-3024017D03*
G01X-2097423Y-3024017D03*
G01X-1557833Y-2623942D03*
G01X-1717833Y-2623942D03*
G01X-2027039Y-2333238D03*
G01X-2187039Y-2333238D03*
G54D58*
G01X-2191844Y-2540043D03*
G01X-2001844Y-2540043D03*
G01X-2001844Y-2820043D03*
G01X-2096844Y-2820043D03*
G01X-2191844Y-2820043D03*
G54D47*
G01X-3171945Y-5683449D03*
G01X-3361945Y-5683449D03*
G01X-3361945Y-5403449D03*
G01X-3266945Y-5403449D03*
G01X-3171945Y-5403449D03*
G54D13*
G01X-4879535Y-2712913D03*
G01X-4724595Y-2712913D03*
G54D12*
G01X-5642606Y-1626599D03*
G01X-5797546Y-1626599D03*
G01X-4904922Y-1635455D03*
G01X-5059862Y-1635455D03*
G54D10*
G01X-4608262Y-2244676D03*
G01X-4608262Y-2089736D03*
G54D13*
G01X-5425242Y-1631699D03*
G01X-5270302Y-1631699D03*
G54D31*
G01X-1272819Y-1471981D03*
G01X-1272819Y-1312001D03*
G54D27*
G01X-1350618Y-2221037D03*
G01X-1190639Y-2221037D03*
G54D59*
G01X-1565122Y-1970632D03*
G01X-1565122Y-1716632D03*
G01X-925144Y-1716632D03*
G01X-925144Y-1970632D03*
G54D60*
G01X-4821951Y-1922973D03*
G01X-4948951Y-1922973D03*
G01X-5075951Y-1922973D03*
G01X-5202951Y-1922973D03*
G01X-5329951Y-1922973D03*
G01X-5456951Y-1922973D03*
G01X-5583951Y-1922973D03*
G01X-5710951Y-1922973D03*
G01X-4821951Y-2470089D03*
G01X-4948951Y-2470089D03*
G01X-5075951Y-2470089D03*
G01X-5202951Y-2470089D03*
G01X-5329951Y-2470089D03*
G01X-5456951Y-2470089D03*
G01X-5583951Y-2470089D03*
G01X-5710951Y-2470089D03*
G54D27*
G01X-1490526Y-7129570D03*
G01X-1330526Y-7129570D03*
G54D28*
G01X-5582375Y-3719222D03*
G01X-5582375Y-3879222D03*
G54D31*
G01X-5658876Y-5322551D03*
G01X-5658876Y-5162551D03*
G54D61*
G01X-6217081Y-4016628D03*
G01X-6217081Y-3826629D03*
G01X-5937081Y-3826629D03*
G01X-5937081Y-3921628D03*
G01X-5937081Y-4016628D03*
G01X-6176637Y-5265304D03*
G01X-6176637Y-5075305D03*
G01X-5896637Y-5075305D03*
G01X-5896637Y-5170304D03*
G01X-5896637Y-5265304D03*
G54D51*
G01X-2875034Y-5431010D03*
G01X-2875565Y-5587644D03*
G54D16*
G01X-2705500Y-2487908D03*
G01X-2704969Y-2331274D03*
G54D27*
G01X-2658777Y-5425308D03*
G01X-2498797Y-5425308D03*
G01X-2653697Y-5211105D03*
G01X-2493697Y-5211105D03*
G54D31*
G01X-2501935Y-2497094D03*
G01X-2501935Y-2337114D03*
G54D27*
G01X-2677290Y-2701873D03*
G01X-2517290Y-2701873D03*
G54D47*
G01X-2269590Y-6197716D03*
G01X-2459589Y-6197716D03*
G01X-2459589Y-5917716D03*
G01X-2364590Y-5917716D03*
G01X-2269590Y-5917716D03*
G54D10*
G01X-2522335Y-7604845D03*
G01X-2522335Y-7449905D03*
G54D62*
G01X-2073529Y-7613264D03*
G01X-2073529Y-7176283D03*
G54D29*
G01X-2916657Y-6981668D03*
G01X-3076636Y-6981668D03*
G54D27*
G01X-5840882Y-4829440D03*
G01X-5680882Y-4829440D03*
G01X-6049985Y-3641125D03*
G01X-5889985Y-3641125D03*
G54D55*
G01X-11791857Y-3329904D03*
G01X-12351856Y-3329904D03*
G01X-11791857Y-6726987D03*
G01X-12351856Y-6726987D03*
G01X-11791857Y-1622904D03*
G01X-12351856Y-1622904D03*
G54D63*
G01X-4062555Y-7666015D03*
G01X-4062555Y-7327535D03*
G54D64*
G01X-4281858Y-7317335D03*
G01X-4281858Y-7655815D03*
G01X-5307275Y-2757876D03*
G01X-5307275Y-3096356D03*
G54D63*
G01X-5077468Y-3096356D03*
G01X-5077468Y-2757876D03*
G54D64*
G01X-5535078Y-2757876D03*
G01X-5535078Y-3096356D03*
G54D63*
G01X-5760877Y-3096356D03*
G01X-5760877Y-2757876D03*
G54D28*
G01X-10968939Y-3362684D03*
G01X-10968939Y-3202704D03*
G01X-10738424Y-3362684D03*
G01X-10738424Y-3202704D03*
G01X-10507909Y-3362684D03*
G01X-10507909Y-3202704D03*
G01X-10928138Y-6793371D03*
G01X-10928138Y-6633392D03*
G01X-10697623Y-6793371D03*
G01X-10697623Y-6633392D03*
G01X-10467108Y-6793371D03*
G01X-10467108Y-6633392D03*
G01X-11086715Y-1678730D03*
G01X-11086715Y-1518750D03*
G01X-10856200Y-1678730D03*
G01X-10856200Y-1518750D03*
G01X-10625685Y-1678730D03*
G01X-10625685Y-1518750D03*
G01X-10458038Y-5093038D03*
G01X-10458038Y-4933058D03*
G01X-10651840Y-5093038D03*
G01X-10651840Y-4933058D03*
G01X-10850743Y-5098138D03*
G01X-10850743Y-4938158D03*
G54D65*
G01X-9755650Y-8327072D03*
G01X-9755650Y-8747072D03*
G54D66*
G01X-9604650Y-8030260D03*
G01X-9604650Y-7840268D03*
G01X-9804649Y-7935264D03*
G54D27*
G01X-8933699Y-8751713D03*
G01X-8773720Y-8751713D03*
G54D31*
G01X-7996127Y-8525255D03*
G01X-7996127Y-8365276D03*
G54D27*
G01X-9106325Y-8083283D03*
G01X-8946346Y-8083283D03*
G54D31*
G01X-9408846Y-8627257D03*
G01X-9408846Y-8467277D03*
G54D28*
G01X-9378245Y-7901180D03*
G01X-9378245Y-8061159D03*
G54D59*
G01X-8917924Y-8536570D03*
G01X-8917924Y-8282570D03*
G01X-8277946Y-8282570D03*
G01X-8277946Y-8536570D03*
G54D58*
G01X-7503198Y-1002093D03*
G01X-7313198Y-1002093D03*
G01X-7313198Y-1282093D03*
G01X-7408198Y-1282093D03*
G01X-7503198Y-1282093D03*
G04 Pad End*

M02*

