G04 Layer: CustomLayer1*
G04 EasyEDA Pro v2.2.32.3, 2025-11-28 17:47:01*
G04 Gerber Generator version 0.3*
G04 Scale: 100 percent, Rotated: No, Reflected: No*
G04 Dimensions in millimeters*
G04 Leading zeros omitted, absolute positions, 3 integers and 5 decimals*
%FSLAX35Y35*%
%MOMM*%
%ADD10C,0.15*%
G75*


G04 PolygonModel Start*
G54D10*
G01X-5644693Y-7553208D02*
G01X-6076693Y-7553208D01*
G01X-5644693Y-7813208D02*
G01X-6076693Y-7813208D01*
G01X-5644693Y-7813208D02*
G01X-5644693Y-7553208D01*
G01X-6076693Y-7813208D02*
G01X-6076693Y-7553208D01*
G01X-7117106Y-8766920D02*
G01X-6685106Y-8766920D01*
G01X-7117106Y-8506920D02*
G01X-6685106Y-8506920D01*
G01X-7117106Y-8506920D02*
G01X-7117106Y-8766920D01*
G01X-6685106Y-8506920D02*
G01X-6685106Y-8766920D01*
G01X-1184120Y-7556175D02*
G01X-1494119Y-7556175D01*
G01X-1184120Y-7376174D02*
G01X-1494119Y-7376174D01*
G01X-1494119Y-7556175D02*
G01X-1494119Y-7376174D01*
G01X-1184120Y-7556175D02*
G01X-1184120Y-7376174D01*
G01X-2251844Y-2590043D02*
G01X-1941844Y-2590043D01*
G01X-2251844Y-2770043D02*
G01X-1941844Y-2770043D01*
G01X-1941844Y-2590043D02*
G01X-1941844Y-2770043D01*
G01X-2251844Y-2590043D02*
G01X-2251844Y-2770043D01*
G01X-3111944Y-5633450D02*
G01X-3421944Y-5633450D01*
G01X-3111944Y-5453450D02*
G01X-3421944Y-5453450D01*
G01X-3421944Y-5633450D02*
G01X-3421944Y-5453450D01*
G01X-3111944Y-5633450D02*
G01X-3111944Y-5453450D01*
G01X-6167081Y-4076629D02*
G01X-6167081Y-3766629D01*
G01X-5987081Y-4076629D02*
G01X-5987081Y-3766629D01*
G01X-6167081Y-3766629D02*
G01X-5987081Y-3766629D01*
G01X-6167081Y-4076629D02*
G01X-5987081Y-4076629D01*
G01X-6126637Y-5325305D02*
G01X-6126637Y-5015305D01*
G01X-5946637Y-5325305D02*
G01X-5946637Y-5015305D01*
G01X-6126637Y-5015305D02*
G01X-5946637Y-5015305D01*
G01X-6126637Y-5325305D02*
G01X-5946637Y-5325305D01*
G01X-2209589Y-6147716D02*
G01X-2519589Y-6147716D01*
G01X-2209589Y-5967716D02*
G01X-2519589Y-5967716D01*
G01X-2519589Y-6147716D02*
G01X-2519589Y-5967716D01*
G01X-2209589Y-6147716D02*
G01X-2209589Y-5967716D01*
G01X-9885650Y-8321072D02*
G01X-9885650Y-8753072D01*
G01X-9625650Y-8321072D02*
G01X-9625650Y-8753072D01*
G01X-9625650Y-8321072D02*
G01X-9885650Y-8321072D01*
G01X-9625650Y-8753072D02*
G01X-9885650Y-8753072D01*
G01X-7563198Y-1052093D02*
G01X-7253199Y-1052093D01*
G01X-7563198Y-1232093D02*
G01X-7253199Y-1232093D01*
G01X-7253199Y-1052093D02*
G01X-7253199Y-1232093D01*
G01X-7563198Y-1052093D02*
G01X-7563198Y-1232093D01*

M02*

