;TYPE=PLATED
;Layer: PTH_Through
;EasyEDA Pro Client v2.2.32.3, 2025-04-16 15:38:56
;Gerber Generator version 0.3
M48
METRIC,LZ,000.00000
;Hole size 1 = 0.30000 METRIC
T01C0.30000
;Hole size 2 = 0.50000 METRIC
T02C0.50000
;Hole size 3 = 0.60000 METRIC
T03C0.60000
;Hole size 4 = 0.80000 METRIC
T04C0.80000
;Hole size 5 = 0.85000 METRIC
T05C0.85000
;Hole size 6 = 0.86000 METRIC
T06C0.86000
;Hole size 7 = 0.90000 METRIC
T07C0.90000
;Hole size 8 = 1.00000 METRIC
T08C1.00000
;Hole size 9 = 1.00000 METRIC
T09C1.00000
;Hole size 10 = 1.40000 METRIC
T10C1.40000
;Hole size 11 = 1.52400 METRIC
T11C1.52400
;Hole size 12 = 1.60000 METRIC
T12C1.60000
;Hole size 13 = 2.50002 METRIC
T13C2.50002
%
G05
G90
T01
X27.6Y8.5
X27.6Y7.7
X26.8Y7.7
X26.8Y8.5
X27.1Y14.4
X120.2Y50.3
X115.39995Y48.7
X117.2Y52.1
X117.15Y51.15
X107.3Y48.5
X14.4Y20.3874
X13.9Y18.3
X18.8Y23.5
X55.1464Y15.4464
X47.3464Y15.4464
X39.4464Y15.3464
X31.5637Y15.4
X47.5Y35.64843
X45.2Y43.9
X82.2Y35.64843
X110.9Y50.8
X91.7Y35.64843
X62.7Y35.64843
X77.2Y35.64843
X106.6Y35.64843
X99.9Y58.7
X99.10001Y57.6
X51.6Y58.3
X23.77371Y25.42
X24.57371Y25.42
X23.77371Y24.6
X23.77371Y23.8
X23.77371Y23.0
X23.77371Y22.20001
X23.77371Y21.40001
X24.57371Y21.40001
X24.57371Y22.20001
X24.57371Y23.0
X24.57371Y23.8
X24.57371Y24.6
X25.30001Y25.42
X26.1Y25.42
X25.30001Y24.6
X25.30001Y23.8
X25.30001Y23.0
X25.30001Y22.2
X25.30001Y21.40001
X26.1Y21.40001
X26.1Y22.2
X26.1Y23.0
X26.1Y23.8
X26.1Y24.6
X1.0Y15.32
X1.8Y15.32
X1.0Y14.5
X1.0Y13.7
X1.0Y12.9
X1.0Y12.1
X1.8Y12.1
X1.8Y12.9
X1.8Y13.7
X1.8Y14.5
X1.0Y20.13999
X1.8Y20.13999
X1.0Y19.31999
X1.0Y18.51999
X1.0Y17.71999
X1.0Y16.91999
X1.0Y16.12
X1.8Y16.12
X1.8Y16.91999
X1.8Y17.71999
X1.8Y18.51999
X1.8Y19.31999
X1.0Y11.21999
X1.0Y10.41999
X1.0Y9.61999
X1.0Y8.81999
X1.8Y8.81999
X1.8Y9.61999
X1.8Y10.41999
X1.8Y11.21999
X1.8Y24.13998
X1.8Y23.33998
X1.8Y22.53998
X1.8Y21.73998
X1.8Y20.93999
X1.0Y20.93999
X1.0Y21.73998
X1.0Y22.53998
X1.0Y23.33998
X1.0Y24.13998
X32.00001Y31.5
X32.00001Y30.7
X32.00001Y29.9
X32.00001Y29.1
X32.00001Y28.3
X31.20001Y28.3
X31.20001Y29.1
X31.20001Y29.9
X31.20001Y30.7
X31.20001Y31.5
X24.6Y49.7
X24.6Y50.5
X24.6Y51.3
X24.6Y52.09999
X24.6Y52.89999
X25.4Y52.89999
X25.4Y52.09999
X25.4Y51.3
X25.4Y50.5
X25.4Y49.7
X24.6Y53.7
X24.6Y54.5
X24.6Y55.3
X25.4Y55.3
X25.4Y54.5
X25.4Y53.7
X57.6Y5.73162
X50.6Y7.6
X42.94Y7.6
X34.2Y7.6
X118.3Y45.1
X119.1Y45.1
X119.1Y44.3
X118.3Y44.3
X87.7Y27.0
X86.9Y27.0
X92.35357Y19.6
X92.35357Y20.4
X93.15357Y20.4
X93.15357Y19.6
X112.0Y4.5
X111.2Y4.5
X93.773Y19.932
X93.773Y20.732
X111.2Y5.3
X112.0Y5.3
X44.43367Y17.9
X55.4Y17.5716
X54.8Y18.2116
X51.2Y20.4
X47.79366Y17.9
X60.4Y22.1
X61.2Y22.1
X62.0Y22.1
X62.8Y22.1
X62.8Y21.3
X62.0Y21.3
X61.2Y21.3
X60.4Y21.3
X42.92732Y25.81842
X43.72732Y25.81842
X44.52732Y25.81842
X45.32732Y25.81842
X45.32732Y26.61842
X44.52732Y26.61842
X43.72732Y26.61842
X42.92732Y26.61842
X69.635Y20.027
X111.2Y34.1
X76.4Y24.2
X76.4Y23.3
X90.1Y31.1
X34.06371Y17.7
X53.7Y17.1
X49.2Y13.9
X41.3Y13.9
X33.2Y13.9
X52.6Y20.4
X51.9Y21.1
X50.5Y21.1
X87.7Y31.1
X78.3Y31.1
X92.93652Y24.9
X86.5Y24.9
X37.60003Y71.4
X3.25Y83.5
X5.5Y81.5
X116.5Y81.5
X118.75Y83.5
X118.75Y3.5
X116.5Y5.5
X119.0Y33.4
X96.85Y29.967
X96.05Y29.967
X96.05Y29.167
X96.85Y29.167
X119.0Y32.6
X41.00003Y72.2
X57.20003Y72.0
X54.20003Y71.6
X90.0Y71.8
X86.99983Y71.79986
X103.5Y71.8
X106.4Y71.8
X79.012Y25.6778
X16.4Y33.6
X16.4Y31.2
X16.4Y32.0
X16.4Y34.4
X16.4Y32.8
X19.69371Y47.6
X20.49371Y47.6
X21.29371Y47.6
X20.7Y38.3
X21.5Y38.3
X21.5Y37.5
X20.7Y37.5
X90.8Y48.8
X91.5Y48.8
X70.6Y71.6
X73.6Y72.0
X81.84Y56.64
X48.80005Y56.7
X65.50001Y56.9
X83.6Y58.7
X82.8Y57.5
X111.2Y55.7
X40.3Y57.1
X44.0Y42.2
X43.2Y42.2
X42.4Y42.2
X41.60001Y42.2
X41.60001Y41.4
X42.4Y41.4
X43.2Y41.4
X44.0Y41.4
X42.4Y39.0
X42.4Y39.8
X42.4Y40.6
X41.6Y40.6
X41.6Y39.8
X41.6Y39.0
X75.9Y25.0
X48.5Y47.0
X63.4Y47.0
X77.9Y47.0
X93.2Y47.0
X109.0Y47.0
X34.91368Y58.1
X35.71368Y58.1
X52.3Y58.3
X67.6Y58.3
X68.4Y58.3
X84.4Y58.37152
X100.6Y58.53152
X55.86002Y56.83998
X72.5Y56.3
X70.6Y56.3
X88.65999Y56.04001
X105.05999Y56.14001
X38.1Y73.8
X38.1Y74.6
X38.1Y75.4
X70.89998Y75.3
X70.89998Y74.5
X70.89998Y73.7
X54.5Y75.4
X54.5Y74.60001
X54.5Y73.80001
X87.29997Y75.4
X87.29997Y74.6
X87.29997Y73.8
X103.69997Y75.4
X103.69997Y74.6
X103.69997Y73.8
X87.29998Y77.80001
X87.29998Y77.00001
X87.29998Y76.20001
X70.89998Y77.70001
X70.89998Y76.90001
X70.89998Y76.10001
X73.3Y55.6
X48.36366Y77.2
X48.4Y78.03148
X81.2Y77.13148
X81.21359Y78.0
X57.8Y7.73162
X96.923Y17.41
X96.123Y17.41
X95.323Y17.41
X95.323Y18.21
X96.123Y18.21
X96.923Y18.21
X70.2Y11.8
X68.1Y11.8
X66.0Y11.8
X74.9Y12.5
X74.2Y13.2
X73.6Y13.9
X73.5Y14.9
X64.7Y11.8
X73.5Y15.9
X104.6Y48.05
X76.60053Y29.6078
X76.98153Y26.1788
X71.794Y20.535
X72.175Y20.027
X69.38647Y19.05043
X111.38Y20.408
X107.951Y18.249
X97.536Y13.716
X91.694Y12.91615
X106.172Y17.653
X110.236Y13.589
X99.822Y5.783
X85.09Y15.875
X96.901Y14.605
X103.124Y27.94
X67.564Y19.558
X77.416Y10.298
X77.416Y11.098
X78.216Y11.098
X78.216Y10.298
X79.016Y11.098
X79.016Y10.298
X100.276Y3.567
X100.276Y4.367
X101.076Y4.367
X101.076Y3.567
X101.876Y4.367
X101.876Y3.567
X99.895Y1.662
X99.895Y2.462
X100.695Y2.462
X100.695Y1.662
X101.495Y2.462
X101.495Y1.662
X118.183Y11.822
X118.183Y12.622
X118.983Y12.622
X118.983Y11.822
X119.783Y12.622
X119.783Y11.822
X95.377Y11.43
T02
X30.30001Y42.6
X15.2Y76.03148
X16.2Y76.03148
X17.2Y76.03148
X18.2Y76.03148
X19.2Y76.03148
X20.2Y76.03148
X21.2Y76.03148
X22.2Y76.03148
X75.6Y83.0
X76.9Y83.0
X14.2Y76.03148
T03
X13.26374Y54.69
X12.16374Y54.69
X11.06373Y54.69
X11.06373Y53.49
X12.16374Y53.49
X13.26374Y53.49
X9.97374Y54.69
X8.77374Y54.69
X7.57375Y54.69
X6.47375Y54.69
X5.37374Y54.69
X5.37374Y53.49
X6.47375Y53.49
X7.57375Y53.49
X8.77374Y53.49
X9.97374Y53.49
X104.9Y77.4
X3.02124Y36.13693
X3.02124Y31.53693
X3.02124Y32.63694
X3.02124Y33.73694
X3.02124Y34.93693
X4.22124Y34.93693
X4.22124Y33.73694
X4.22124Y32.63694
X4.22124Y31.53693
X4.22124Y36.13693
X3.04749Y41.96847
X3.04749Y37.36847
X3.04749Y38.46847
X3.04749Y39.56847
X3.04749Y40.76847
X4.24749Y40.76847
X4.24749Y39.56847
X4.24749Y38.46847
X4.24749Y37.36847
X4.24749Y41.96847
X10.6Y23.8
X10.48021Y70.54019
X9.66477Y69.72476
X34.9Y23.5
X20.0Y45.3
X4.27375Y54.7
X4.27375Y53.5
X4.27375Y52.3
X4.27375Y51.2
X4.27375Y50.1
X4.27375Y49.0
X4.27375Y47.8
X4.27375Y43.2
X4.27375Y44.30001
X4.27375Y45.40001
X4.27375Y46.6
X3.07375Y46.6
X3.07375Y45.40001
X3.07375Y44.30001
X3.07375Y43.2
X3.07375Y47.8
X3.07375Y49.0
X3.07375Y50.1
X3.07375Y51.2
X3.07375Y52.3
X3.07375Y53.5
X3.07375Y54.7
X21.2Y45.3
X23.12399Y57.02399
T04
X93.6084Y3.581
X85.9884Y6.121
X71.84Y16.7
X69.3Y16.7
X66.76Y16.7
X64.22Y16.7
X108.458Y4.826
X108.458Y2.286
X65.024Y23.368
X65.024Y20.828
X84.69352Y12.94203
X87.23352Y12.94203
X89.77352Y12.94203
T05
X117.3Y74.67
X117.3Y72.13
X117.3Y58.9
X117.3Y56.36
X117.3Y66.8
X117.3Y64.26
X109.3Y84.6298
X106.76Y84.6298
X104.22Y84.6298
X49.02Y84.6298
X46.48Y84.6298
X43.94Y84.6298
X41.4Y84.6298
X61.52Y84.6298
X58.98Y84.6298
X56.44Y84.6298
X53.9Y84.6298
X86.62Y84.6298
X84.08Y84.6298
X81.54Y84.6298
X79.0Y84.6298
X99.22Y84.6298
X96.68Y84.6298
X94.14Y84.6298
X91.6Y84.6298
X74.12Y84.6298
X71.58Y84.6298
X69.04Y84.6298
X66.5Y84.6298
X49.784Y31.623
X49.784Y29.083
X49.784Y26.543
T06
X30.14Y2.3
X27.5Y2.3
X24.9Y2.3
X32.00002Y58.22
X32.00002Y63.3
X32.00002Y60.76
X32.00002Y65.84
X32.00002Y70.92
X32.00002Y76.0
X32.00002Y73.46
X32.00002Y68.38
X45.10002Y58.22
X45.10002Y63.3
X45.10002Y60.76
X45.10002Y65.84
X45.10002Y70.92
X45.10002Y76.0
X45.10002Y73.46
X45.10002Y68.38
X48.40003Y58.22
X48.40003Y63.3
X48.40003Y60.76
X48.40003Y65.84
X48.40003Y70.92
X48.40003Y76.0
X48.40003Y73.46
X48.40003Y68.38
X61.50002Y58.22
X61.50002Y63.3
X61.50002Y60.76
X61.50002Y65.84
X61.50002Y70.92
X61.50002Y76.0
X61.50002Y73.46
X61.50002Y68.38
X81.19999Y58.22
X81.19999Y63.3
X81.19999Y60.76
X81.19999Y65.84
X81.19999Y70.92
X81.19999Y76.0
X81.19999Y73.46
X81.19999Y68.38
X94.29999Y58.22
X94.29999Y63.3
X94.29999Y60.76
X94.29999Y65.84
X94.29999Y70.92
X94.29999Y76.0
X94.29999Y73.46
X94.29999Y68.38
X97.59999Y58.22
X97.59999Y63.3
X97.59999Y60.76
X97.59999Y65.84
X97.59999Y70.92
X97.59999Y76.0
X97.59999Y73.46
X97.59999Y68.38
X110.69999Y58.22
X110.69999Y63.3
X110.69999Y60.76
X110.69999Y65.84
X110.69999Y70.92
X110.69999Y76.0
X110.69999Y73.46
X110.69999Y68.38
X41.90002Y59.62
X39.36002Y59.62
X41.90002Y62.16
X39.36002Y62.16
X41.90002Y64.7
X39.36002Y64.7
X58.40002Y59.62
X55.86002Y59.62
X58.40002Y62.16
X55.86002Y62.16
X58.40002Y64.7
X55.86002Y64.7
X91.19999Y59.62
X88.65999Y59.62
X91.19999Y62.16
X88.65999Y62.16
X91.19999Y64.7
X88.65999Y64.7
X107.59999Y59.62
X105.05999Y59.62
X107.59999Y62.16
X105.05999Y62.16
X107.59999Y64.7
X105.05999Y64.7
X65.3Y1.26
X65.3Y3.8
X72.92Y3.8
X72.92Y1.26
X70.38Y3.8
X70.38Y1.26
X67.84Y3.8
X67.84Y1.26
X64.79999Y58.22
X64.79999Y63.3
X64.79999Y60.76
X64.79999Y65.84
X64.79999Y70.92
X64.79999Y76.0
X64.79999Y73.46
X64.79999Y68.38
X77.89999Y58.22
X77.89999Y63.3
X77.89999Y60.76
X77.89999Y65.84
X77.89999Y70.92
X77.89999Y76.0
X77.89999Y73.46
X77.89999Y68.38
X74.8Y59.62
X72.26Y59.62
X74.8Y62.16
X72.26Y62.16
X74.8Y64.7
X72.26Y64.7
T07
X39.12Y1.3
X39.12Y3.84
X41.66Y1.3
X41.66Y3.84
X44.2Y1.3
X44.2Y3.84
X46.74Y1.3
X46.74Y3.84
X49.28Y1.3
X49.28Y3.84
X51.82Y1.3
X51.82Y3.84
X54.36Y1.3
X54.36Y3.84
X56.9Y1.3
X56.9Y3.84
X36.58Y1.3
X36.58Y3.84
X34.04Y3.84
X34.04Y1.3
X51.38001Y53.0
X48.84001Y53.0
X46.30001Y53.0
X43.76001Y53.0
X53.84001Y53.0
X56.38001Y53.0
X86.92Y53.0
X84.38Y53.0
X81.84Y53.0
X79.3Y53.0
X89.38Y53.0
X91.92Y53.0
X104.72Y53.0
X102.18Y53.0
X99.64Y53.0
X97.1Y53.0
X107.18Y53.0
X109.72Y53.0
X69.18001Y53.0
X66.64001Y53.0
X64.10001Y53.0
X61.56001Y53.0
X71.64001Y53.0
X74.18001Y53.0
T08
X114.98794Y21.60994
X118.18793Y21.60994
X118.18793Y24.10993
X114.98794Y24.10993
T09
X88.5284Y3.581
X88.5284Y6.121
X91.0684Y3.581
X93.6084Y6.121
X91.0684Y6.121
X85.9884Y3.581
X17.65Y6.0G85X15.35Y6.0
X21.3Y4.85G85X21.3Y6.15
X21.3Y9.55G85X21.3Y10.85
X11.7Y4.85G85X11.7Y6.15
X11.7Y9.55G85X11.7Y10.85
X19.10001Y35.4
X21.64001Y35.4
X26.72001Y35.4
X31.80001Y35.4
T10
X27.90001Y82.6158
X22.90001Y82.6158
X12.90001Y82.6158
X17.90001Y82.6158
T11
X36.6132Y83.2
X32.6Y83.2
T12
X16.5Y12.0
T13
X117.48794Y16.83995
X117.48794Y28.87995
M30