G04 Layer: DrillDrawingLayer*
G04 EasyEDA Pro v2.2.32.3, 2025-04-16 15:38:56*
G04 Gerber Generator version 0.3*
G04 Scale: 100 percent, Rotated: No, Reflected: No*
G04 Dimensions in millimeters*
G04 Leading zeros omitted, absolute positions, 3 integers and 5 decimals*
%FSLAX35Y35*%
%MOMM*%
%AMIconRect*4,1,4,0.2,-0.2,-0.2,-0.2,-0.2,0.2,0.2,0.2,0.2,-0.2,0*4,0,4,0.166667,-0.166667,0.166667,0.166667,-0.166667,0.166667,-0.166667,-0.166667,0.166667,-0.166667,0*%
%AMIconTriangle*4,1,3,-0.242567,0.171767,0.242567,0.171767,0,-0.2706,-0.242567,0.171767,0*4,0,3,-0.189767,0.1386,0,-0.1953,0.190167,0.1386,-0.189767,0.1386,0*%
%AMIconStar6*4,1,12,0.0862,0.1492,0.213233,0.123367,0.172367,0,0.213233,-0.1229,0.0862,-0.148733,0,-0.245767,-0.085767,-0.148733,-0.213267,-0.1229,-0.171933,0,-0.213267,0.1229,-0.085767,0.1492,0,0.245767,0.0862,0.1492,0*4,0,12,-0.000333,0.195333,-0.064333,0.122667,-0.169667,0.097667,-0.138333,-0.005333,-0.169667,-0.098,-0.064333,-0.122667,-0.000333,-0.195667,0.064333,-0.122667,0.169667,-0.098,0.138667,0.005,0.169667,0.098,0.064333,0.122333,-0.000333,0.195333,0*%
%AMIconStar4*4,1,8,-0.222667,0.222667,0,0.144667,0.222667,0.222667,0.144667,0,0.222667,-0.222667,0,-0.144667,-0.217433,-0.222667,-0.144667,0,-0.222667,0.222667,0*4,0,8,0.166667,-0.166667,0.108,0,0.166667,0.166667,0,0.108,-0.166667,0.166667,-0.108,0,-0.166667,-0.166667,0,-0.108,0.166667,-0.166667,0*%
%AMIconPlus*4,1,12,0.124,-0.2,-0.124,-0.2,-0.124,-0.124,-0.2,-0.124,-0.2,0.124,-0.124,0.124,-0.124,0.2,0.124,0.2,0.124,0.124,0.2,0.124,0.2,-0.124,0.124,-0.124,0.124,-0.2,0*4,0,12,0.090667,-0.166667,0.090667,-0.090667,0.166667,-0.090667,0.166667,0.090667,0.090667,0.090667,0.090667,0.166667,-0.090667,0.166667,-0.090667,0.090667,-0.166667,0.090667,-0.166667,-0.090667,-0.090667,-0.090667,-0.090667,-0.166667,0.090667,-0.166667,0*%
%AMIconX*4,1,16,0.2,-0.2,0.054533,-0.2,0,-0.145467,-0.054533,-0.2,-0.2,-0.2,-0.2,-0.054533,-0.145467,0,-0.2,0.054533,-0.2,0.2,-0.054533,0.2,0,0.145467,0.054533,0.2,0.2,0.2,0.2,0.054533,0.145467,0,0.2,-0.054533,0.2,-0.2,0*4,0,16,0.1668,-0.1664,0.1668,-0.068467,0.097933,0.000067,0.1668,0.068467,0.1668,0.1665,0.068467,0.1665,0,0.097933,-0.068467,0.1665,-0.1668,0.1665,-0.1668,0.068467,-0.097933,0.000067,-0.1668,-0.068467,-0.1668,-0.1664,-0.068467,-0.1664,0,-0.097933,0.068467,-0.1664,0.1668,-0.1664,0*%
%AMIconDiamond*4,1,4,0,-0.26,-0.26,0,0,0.26,0.26,0,0,-0.26,0*4,0,4,0,-0.203433,0.203433,0,0,0.2036,-0.203433,0,0,-0.203433,0*%
%AMIconRect2*4,1,6,0.2,-0.2,-0.2,-0.2,-0.2,0.2,-0.1668,0.1665,-0.166667,-0.166667,0.1668,-0.166667,0.2,-0.2,0*4,1,6,0.2,-0.2,0.1668,-0.166667,0.1668,0.1665,-0.1668,0.1665,-0.2,0.2,0.2,0.2,0.2,-0.2,0*4,1,6,0.133467,-0.133333,-0.133333,-0.133333,-0.133333,0.133467,-0.1,0.100133,-0.1,-0.1,0.100133,-0.1,0.133467,-0.133333,0*4,1,6,0.133467,-0.133333,0.100133,-0.1,0.100133,0.100133,-0.1,0.100133,-0.133333,0.133467,0.133467,0.133467,0.133467,-0.133333,0*%
%AMCharA*4,1,8,-0.122067,-0.1864,-0.1532,-0.174533,-0.015133,0.1864,0.016,0.1864,0.1532,-0.174533,0.122067,-0.1864,0.0764,-0.0662,-0.076133,-0.0662,-0.122067,-0.1864,0*4,0,3,-0.063333,-0.032867,0.063667,-0.032867,0.000333,0.1338,-0.063333,-0.032867,0*%
%AMCharB*4,1,17,-0.131133,-0.1894,-0.131133,0.1894,0.033533,0.1894,0.088067,0.172467,0.1114,0.151733,0.131133,0.114133,0.131,0.066467,0.114333,0.0338,0.094733,0.0128,0.086467,0.0084,0.094733,0.003867,0.114333,-0.017133,0.131,-0.0498,0.131133,-0.114133,0.1114,-0.151733,0.088067,-0.1726,0.033533,-0.1894,-0.131133,-0.1894,0*4,0,10,-0.0978,-0.156067,0.030867,-0.156067,0.073867,-0.142,0.085867,-0.130133,0.099533,-0.1028,0.099533,-0.0614,0.085867,-0.034533,0.073867,-0.0226,0.030867,-0.008667,-0.0978,-0.008667,-0.0978,-0.156067,0*4,0,10,-0.0978,0.024667,0.0308,0.024667,0.073867,0.039267,0.085867,0.051267,0.099533,0.078067,0.099533,0.102667,0.085867,0.130133,0.073867,0.142,0.030867,0.156067,-0.0978,0.156067,-0.0978,0.024667,0*%
%AMCharC*4,1,36,-0.027533,-0.1894,-0.071933,-0.1684,-0.1084,-0.130667,-0.125333,-0.096,-0.1428,-0.041333,-0.1428,0.041333,-0.1244,0.098,-0.105267,0.135067,-0.067533,0.171667,-0.027533,0.1894,0.038533,0.1894,0.083067,0.1684,0.119467,0.130667,0.1428,0.083,0.112867,0.0684,0.090867,0.113467,0.0614,0.142933,0.034733,0.156067,-0.0236,0.156067,-0.050333,0.142933,-0.079733,0.113467,-0.094067,0.084333,-0.109467,0.0386,-0.109467,-0.0386,-0.094067,-0.084333,-0.079733,-0.113467,-0.050333,-0.142867,-0.0236,-0.156067,0.034733,-0.156067,0.0614,-0.142867,0.090867,-0.113467,0.112867,-0.0684,0.1428,-0.083,0.119467,-0.130667,0.083067,-0.1684,0.038533,-0.1894,-0.027533,-0.1894,0*%
%AMCharD*4,1,12,-0.132,-0.1894,-0.132,0.1894,-0.000067,0.1894,0.054533,0.172467,0.0968,0.130933,0.1144,0.096067,0.132,0.041333,0.132,-0.041333,0.113467,-0.098267,0.093933,-0.134933,0.054533,-0.1726,-0.000067,-0.1894,-0.132,-0.1894,0*4,0,12,-0.098667,-0.156067,-0.002667,-0.156067,0.040333,-0.142133,0.068333,-0.113467,0.083267,-0.0842,0.098667,-0.0386,0.098667,0.0386,0.083267,0.0842,0.068333,0.113467,0.040333,0.142133,-0.002667,0.156067,-0.098667,0.156067,-0.098667,-0.156067,0*%
%AMCharE*4,1,12,-0.123667,-0.1894,-0.123667,0.1894,0.123667,0.1894,0.123667,0.156067,-0.090333,0.156067,-0.090333,0.024667,0.0416,0.024667,0.0416,-0.008667,-0.090333,-0.008667,-0.090333,-0.156067,0.123667,-0.156067,0.123667,-0.1894,-0.123667,-0.1894,0*%
%ADD10IconRect*%
%ADD11C,0.44X0.373333*%
%ADD12IconTriangle*%
%ADD13IconStar6*%
%ADD14IconStar4*%
%ADD15IconPlus*%
%ADD16IconX*%
%ADD17IconDiamond*%
%ADD18IconRect2*%
%ADD19CharA*%
%ADD20CharB*%
%ADD21CharC*%
%ADD22CharD*%
%ADD23CharE*%
G75*


G04 Drill Drawing Start*
G54D10*
G01X1650000Y600000D03*
G54D11*
G01X1650000Y1200000D03*
G54D12*
G01X3260000Y8320000D03*
G01X3661320Y8320000D03*
G54D13*
G01X11748794Y1683995D03*
G01X11748794Y2887995D03*
G54D14*
G01X1170000Y1020000D03*
G01X1170000Y550000D03*
G01X2130000Y1020000D03*
G01X2130000Y550000D03*
G54D15*
G01X1290001Y8261580D03*
G01X1790001Y8261580D03*
G01X2290001Y8261580D03*
G01X2790001Y8261580D03*
G54D16*
G01X1420000Y7603148D03*
G01X1520000Y7603148D03*
G01X1620000Y7603148D03*
G01X1720000Y7603148D03*
G01X1820000Y7603148D03*
G01X1920000Y7603148D03*
G01X2020000Y7603148D03*
G01X2120000Y7603148D03*
G01X2220000Y7603148D03*
G01X3030001Y4260000D03*
G01X7560000Y8300000D03*
G01X7690000Y8300000D03*
G54D17*
G01X6422000Y1670000D03*
G01X6502400Y2082800D03*
G01X6502400Y2336800D03*
G01X6676000Y1670000D03*
G01X6930000Y1670000D03*
G01X7184000Y1670000D03*
G01X8469352Y1294203D03*
G01X8598840Y612100D03*
G01X8723352Y1294203D03*
G01X8977352Y1294203D03*
G01X9360840Y358100D03*
G01X10845800Y228600D03*
G01X10845800Y482600D03*
G54D18*
G01X1910001Y3540000D03*
G01X2164001Y3540000D03*
G01X2672001Y3540000D03*
G01X3180001Y3540000D03*
G01X8598840Y358100D03*
G01X8852840Y358100D03*
G01X8852840Y612100D03*
G01X9106840Y358100D03*
G01X9106840Y612100D03*
G01X9360840Y612100D03*
G01X11498794Y2160994D03*
G01X11498794Y2410993D03*
G01X11818793Y2160994D03*
G01X11818793Y2410993D03*
G54D19*
G01X4140000Y8462980D03*
G01X4394000Y8462980D03*
G01X4648000Y8462980D03*
G01X4902000Y8462980D03*
G01X4978400Y2654300D03*
G01X4978400Y2908300D03*
G01X4978400Y3162300D03*
G01X5390000Y8462980D03*
G01X5644000Y8462980D03*
G01X5898000Y8462980D03*
G01X6152000Y8462980D03*
G01X6650000Y8462980D03*
G01X6904000Y8462980D03*
G01X7158000Y8462980D03*
G01X7412000Y8462980D03*
G01X7900000Y8462980D03*
G01X8154000Y8462980D03*
G01X8408000Y8462980D03*
G01X8662000Y8462980D03*
G01X9160000Y8462980D03*
G01X9414000Y8462980D03*
G01X9668000Y8462980D03*
G01X9922000Y8462980D03*
G01X10422000Y8462980D03*
G01X10676000Y8462980D03*
G01X10930000Y8462980D03*
G01X11730000Y5636000D03*
G01X11730000Y5890000D03*
G01X11730000Y6426000D03*
G01X11730000Y6680000D03*
G01X11730000Y7213000D03*
G01X11730000Y7467000D03*
G54D20*
G01X3404000Y130000D03*
G01X3404000Y384000D03*
G01X3658000Y130000D03*
G01X3658000Y384000D03*
G01X3912000Y130000D03*
G01X3912000Y384000D03*
G01X4166000Y130000D03*
G01X4166000Y384000D03*
G01X4376001Y5300000D03*
G01X4420000Y130000D03*
G01X4420000Y384000D03*
G01X4630001Y5300000D03*
G01X4674000Y130000D03*
G01X4674000Y384000D03*
G01X4884001Y5300000D03*
G01X4928000Y130000D03*
G01X4928000Y384000D03*
G01X5138001Y5300000D03*
G01X5182000Y130000D03*
G01X5182000Y384000D03*
G01X5384001Y5300000D03*
G01X5436000Y130000D03*
G01X5436000Y384000D03*
G01X5638001Y5300000D03*
G01X5690000Y130000D03*
G01X5690000Y384000D03*
G01X6156001Y5300000D03*
G01X6410001Y5300000D03*
G01X6664001Y5300000D03*
G01X6918001Y5300000D03*
G01X7164001Y5300000D03*
G01X7418001Y5300000D03*
G01X7930000Y5300000D03*
G01X8184000Y5300000D03*
G01X8438000Y5300000D03*
G01X8692000Y5300000D03*
G01X8938000Y5300000D03*
G01X9192000Y5300000D03*
G01X9710000Y5300000D03*
G01X9964000Y5300000D03*
G01X10218000Y5300000D03*
G01X10472000Y5300000D03*
G01X10718000Y5300000D03*
G01X10972000Y5300000D03*
G54D21*
G01X302124Y3153693D03*
G01X302124Y3263694D03*
G01X302124Y3373694D03*
G01X302124Y3493693D03*
G01X302124Y3613693D03*
G01X304749Y3736847D03*
G01X304749Y3846847D03*
G01X304749Y3956847D03*
G01X304749Y4076847D03*
G01X304749Y4196847D03*
G01X307375Y4320000D03*
G01X307375Y4430001D03*
G01X307375Y4540001D03*
G01X307375Y4660000D03*
G01X307375Y4780000D03*
G01X307375Y4900000D03*
G01X307375Y5010000D03*
G01X307375Y5120000D03*
G01X307375Y5230000D03*
G01X307375Y5350000D03*
G01X307375Y5470000D03*
G01X422124Y3153693D03*
G01X422124Y3263694D03*
G01X422124Y3373694D03*
G01X422124Y3493693D03*
G01X422124Y3613693D03*
G01X424749Y3736847D03*
G01X424749Y3846847D03*
G01X424749Y3956847D03*
G01X424749Y4076847D03*
G01X424749Y4196847D03*
G01X427375Y4320000D03*
G01X427375Y4430001D03*
G01X427375Y4540001D03*
G01X427375Y4660000D03*
G01X427375Y4780000D03*
G01X427375Y4900000D03*
G01X427375Y5010000D03*
G01X427375Y5120000D03*
G01X427375Y5230000D03*
G01X427375Y5350000D03*
G01X427375Y5470000D03*
G01X537374Y5349000D03*
G01X537374Y5469000D03*
G01X647375Y5349000D03*
G01X647375Y5469000D03*
G01X757375Y5349000D03*
G01X757375Y5469000D03*
G01X877374Y5349000D03*
G01X877374Y5469000D03*
G01X966477Y6972476D03*
G01X997374Y5349000D03*
G01X997374Y5469000D03*
G01X1048021Y7054019D03*
G01X1060000Y2380000D03*
G01X1106373Y5349000D03*
G01X1106373Y5469000D03*
G01X1216374Y5349000D03*
G01X1216374Y5469000D03*
G01X1326374Y5349000D03*
G01X1326374Y5469000D03*
G01X2000000Y4530000D03*
G01X2120000Y4530000D03*
G01X2312399Y5702399D03*
G01X3490000Y2350000D03*
G01X10490000Y7740000D03*
G54D22*
G01X2490000Y230000D03*
G01X2750000Y230000D03*
G01X3014000Y230000D03*
G01X3200002Y5822000D03*
G01X3200002Y6076000D03*
G01X3200002Y6330000D03*
G01X3200002Y6584000D03*
G01X3200002Y6838000D03*
G01X3200002Y7092000D03*
G01X3200002Y7346000D03*
G01X3200002Y7600000D03*
G01X3936002Y5962000D03*
G01X3936002Y6216000D03*
G01X3936002Y6470000D03*
G01X4190002Y5962000D03*
G01X4190002Y6216000D03*
G01X4190002Y6470000D03*
G01X4510002Y5822000D03*
G01X4510002Y6076000D03*
G01X4510002Y6330000D03*
G01X4510002Y6584000D03*
G01X4510002Y6838000D03*
G01X4510002Y7092000D03*
G01X4510002Y7346000D03*
G01X4510002Y7600000D03*
G01X4840003Y5822000D03*
G01X4840003Y6076000D03*
G01X4840003Y6330000D03*
G01X4840003Y6584000D03*
G01X4840003Y6838000D03*
G01X4840003Y7092000D03*
G01X4840003Y7346000D03*
G01X4840003Y7600000D03*
G01X5586002Y5962000D03*
G01X5586002Y6216000D03*
G01X5586002Y6470000D03*
G01X5840002Y5962000D03*
G01X5840002Y6216000D03*
G01X5840002Y6470000D03*
G01X6150002Y5822000D03*
G01X6150002Y6076000D03*
G01X6150002Y6330000D03*
G01X6150002Y6584000D03*
G01X6150002Y6838000D03*
G01X6150002Y7092000D03*
G01X6150002Y7346000D03*
G01X6150002Y7600000D03*
G01X6479999Y5822000D03*
G01X6479999Y6076000D03*
G01X6479999Y6330000D03*
G01X6479999Y6584000D03*
G01X6479999Y6838000D03*
G01X6479999Y7092000D03*
G01X6479999Y7346000D03*
G01X6479999Y7600000D03*
G01X6530000Y126000D03*
G01X6530000Y380000D03*
G01X6784000Y126000D03*
G01X6784000Y380000D03*
G01X7038000Y126000D03*
G01X7038000Y380000D03*
G01X7226000Y5962000D03*
G01X7226000Y6216000D03*
G01X7226000Y6470000D03*
G01X7292000Y126000D03*
G01X7292000Y380000D03*
G01X7480000Y5962000D03*
G01X7480000Y6216000D03*
G01X7480000Y6470000D03*
G01X7789999Y5822000D03*
G01X7789999Y6076000D03*
G01X7789999Y6330000D03*
G01X7789999Y6584000D03*
G01X7789999Y6838000D03*
G01X7789999Y7092000D03*
G01X7789999Y7346000D03*
G01X7789999Y7600000D03*
G01X8119999Y5822000D03*
G01X8119999Y6076000D03*
G01X8119999Y6330000D03*
G01X8119999Y6584000D03*
G01X8119999Y6838000D03*
G01X8119999Y7092000D03*
G01X8119999Y7346000D03*
G01X8119999Y7600000D03*
G01X8865999Y5962000D03*
G01X8865999Y6216000D03*
G01X8865999Y6470000D03*
G01X9119999Y5962000D03*
G01X9119999Y6216000D03*
G01X9119999Y6470000D03*
G01X9429999Y5822000D03*
G01X9429999Y6076000D03*
G01X9429999Y6330000D03*
G01X9429999Y6584000D03*
G01X9429999Y6838000D03*
G01X9429999Y7092000D03*
G01X9429999Y7346000D03*
G01X9429999Y7600000D03*
G01X9759999Y5822000D03*
G01X9759999Y6076000D03*
G01X9759999Y6330000D03*
G01X9759999Y6584000D03*
G01X9759999Y6838000D03*
G01X9759999Y7092000D03*
G01X9759999Y7346000D03*
G01X9759999Y7600000D03*
G01X10505999Y5962000D03*
G01X10505999Y6216000D03*
G01X10505999Y6470000D03*
G01X10759999Y5962000D03*
G01X10759999Y6216000D03*
G01X10759999Y6470000D03*
G01X11069999Y5822000D03*
G01X11069999Y6076000D03*
G01X11069999Y6330000D03*
G01X11069999Y6584000D03*
G01X11069999Y6838000D03*
G01X11069999Y7092000D03*
G01X11069999Y7346000D03*
G01X11069999Y7600000D03*
G54D23*
G01X100000Y1210000D03*
G01X100000Y1290000D03*
G01X100000Y1370000D03*
G01X100000Y1450000D03*
G01X100000Y1532000D03*
G01X100000Y1612000D03*
G01X100000Y1691999D03*
G01X100000Y1771999D03*
G01X100000Y1851999D03*
G01X100000Y1931999D03*
G01X100000Y2013999D03*
G01X100000Y2093999D03*
G01X100000Y2173998D03*
G01X100000Y2253998D03*
G01X100000Y2333998D03*
G01X100000Y2413998D03*
G01X100000Y881999D03*
G01X100000Y961999D03*
G01X100000Y1041999D03*
G01X100000Y1121999D03*
G01X180000Y1210000D03*
G01X180000Y1290000D03*
G01X180000Y1370000D03*
G01X180000Y1450000D03*
G01X180000Y1532000D03*
G01X180000Y1612000D03*
G01X180000Y1691999D03*
G01X180000Y1771999D03*
G01X180000Y1851999D03*
G01X180000Y1931999D03*
G01X180000Y2013999D03*
G01X180000Y2093999D03*
G01X180000Y2173998D03*
G01X180000Y2253998D03*
G01X180000Y2333998D03*
G01X180000Y2413998D03*
G01X180000Y881999D03*
G01X180000Y961999D03*
G01X180000Y1041999D03*
G01X180000Y1121999D03*
G01X325000Y8350000D03*
G01X550000Y8150000D03*
G01X1390000Y1830000D03*
G01X1440000Y2038740D03*
G01X1640000Y3120000D03*
G01X1640000Y3200000D03*
G01X1640000Y3280000D03*
G01X1640000Y3360000D03*
G01X1640000Y3440000D03*
G01X1880000Y2350000D03*
G01X1969371Y4760000D03*
G01X2049371Y4760000D03*
G01X2070000Y3750000D03*
G01X2070000Y3830000D03*
G01X2129371Y4760000D03*
G01X2150000Y3750000D03*
G01X2150000Y3830000D03*
G01X2377371Y2140001D03*
G01X2377371Y2220001D03*
G01X2377371Y2300000D03*
G01X2377371Y2380000D03*
G01X2377371Y2460000D03*
G01X2377371Y2542000D03*
G01X2457371Y2140001D03*
G01X2457371Y2220001D03*
G01X2457371Y2300000D03*
G01X2457371Y2380000D03*
G01X2457371Y2460000D03*
G01X2457371Y2542000D03*
G01X2460000Y4970000D03*
G01X2460000Y5050000D03*
G01X2460000Y5130000D03*
G01X2460000Y5209999D03*
G01X2460000Y5289999D03*
G01X2460000Y5370000D03*
G01X2460000Y5450000D03*
G01X2460000Y5530000D03*
G01X2530001Y2140001D03*
G01X2530001Y2220000D03*
G01X2530001Y2300000D03*
G01X2530001Y2380000D03*
G01X2530001Y2460000D03*
G01X2530001Y2542000D03*
G01X2540000Y4970000D03*
G01X2540000Y5050000D03*
G01X2540000Y5130000D03*
G01X2540000Y5209999D03*
G01X2540000Y5289999D03*
G01X2540000Y5370000D03*
G01X2540000Y5450000D03*
G01X2540000Y5530000D03*
G01X2610000Y2140001D03*
G01X2610000Y2220000D03*
G01X2610000Y2300000D03*
G01X2610000Y2380000D03*
G01X2610000Y2460000D03*
G01X2610000Y2542000D03*
G01X2680000Y770000D03*
G01X2680000Y850000D03*
G01X2710000Y1440000D03*
G01X2760000Y770000D03*
G01X2760000Y850000D03*
G01X3120001Y2830000D03*
G01X3120001Y2910000D03*
G01X3120001Y2990000D03*
G01X3120001Y3070000D03*
G01X3120001Y3150000D03*
G01X3156370Y1540000D03*
G01X3200001Y2830000D03*
G01X3200001Y2910000D03*
G01X3200001Y2990000D03*
G01X3200001Y3070000D03*
G01X3200001Y3150000D03*
G01X3320000Y1390000D03*
G01X3406371Y1770000D03*
G01X3420000Y760000D03*
G01X3491368Y5810000D03*
G01X3571368Y5810000D03*
G01X3760003Y7140000D03*
G01X3810000Y7380000D03*
G01X3810000Y7460000D03*
G01X3810000Y7540000D03*
G01X3944640Y1534640D03*
G01X4030000Y5710000D03*
G01X4100003Y7220000D03*
G01X4130000Y1390000D03*
G01X4160000Y3900000D03*
G01X4160000Y3980000D03*
G01X4160000Y4060000D03*
G01X4160001Y4140000D03*
G01X4160001Y4220000D03*
G01X4240000Y3900000D03*
G01X4240000Y3980000D03*
G01X4240000Y4060000D03*
G01X4240000Y4140000D03*
G01X4240000Y4220000D03*
G01X4292732Y2581842D03*
G01X4292732Y2661842D03*
G01X4294000Y760000D03*
G01X4320000Y4140000D03*
G01X4320000Y4220000D03*
G01X4372732Y2581842D03*
G01X4372732Y2661842D03*
G01X4400000Y4140000D03*
G01X4400000Y4220000D03*
G01X4443367Y1790000D03*
G01X4452732Y2581842D03*
G01X4452732Y2661842D03*
G01X4520000Y4390000D03*
G01X4532732Y2581842D03*
G01X4532732Y2661842D03*
G01X4734640Y1544640D03*
G01X4750000Y3564843D03*
G01X4779366Y1790000D03*
G01X4836366Y7720000D03*
G01X4840000Y7803148D03*
G01X4850000Y4700000D03*
G01X4880005Y5670000D03*
G01X4920000Y1390000D03*
G01X5050000Y2110000D03*
G01X5060000Y760000D03*
G01X5120000Y2040000D03*
G01X5160000Y5830000D03*
G01X5190000Y2110000D03*
G01X5230000Y5830000D03*
G01X5260000Y2040000D03*
G01X5370000Y1710000D03*
G01X5420003Y7160000D03*
G01X5450000Y7380001D03*
G01X5450000Y7460001D03*
G01X5450000Y7540000D03*
G01X5480000Y1821160D03*
G01X5514640Y1544640D03*
G01X5540000Y1757160D03*
G01X5586002Y5683998D03*
G01X5720003Y7200000D03*
G01X5760000Y573162D03*
G01X5780000Y773162D03*
G01X6040000Y2130000D03*
G01X6040000Y2210000D03*
G01X6120000Y2130000D03*
G01X6120000Y2210000D03*
G01X6200000Y2130000D03*
G01X6200000Y2210000D03*
G01X6270000Y3564843D03*
G01X6280000Y2130000D03*
G01X6280000Y2210000D03*
G01X6340000Y4700000D03*
G01X6470000Y1180000D03*
G01X6550001Y5690000D03*
G01X6600000Y1180000D03*
G01X6756400Y1955800D03*
G01X6760000Y5830000D03*
G01X6810000Y1180000D03*
G01X6840000Y5830000D03*
G01X6938647Y1905043D03*
G01X6963500Y2002700D03*
G01X7020000Y1180000D03*
G01X7060000Y5630000D03*
G01X7060000Y7160000D03*
G01X7089998Y7370000D03*
G01X7089998Y7450000D03*
G01X7089998Y7530000D03*
G01X7089998Y7610001D03*
G01X7089998Y7690001D03*
G01X7089998Y7770001D03*
G01X7179400Y2053500D03*
G01X7217500Y2002700D03*
G01X7250000Y5630000D03*
G01X7330000Y5560000D03*
G01X7350000Y1490000D03*
G01X7350000Y1590000D03*
G01X7360000Y1390000D03*
G01X7360000Y7200000D03*
G01X7420000Y1320000D03*
G01X7490000Y1250000D03*
G01X7590000Y2500000D03*
G01X7640000Y2330000D03*
G01X7640000Y2420000D03*
G01X7660053Y2960780D03*
G01X7698153Y2617880D03*
G01X7720000Y3564843D03*
G01X7741600Y1029800D03*
G01X7741600Y1109800D03*
G01X7790000Y4700000D03*
G01X7821600Y1029800D03*
G01X7821600Y1109800D03*
G01X7830000Y3110000D03*
G01X7901200Y2567780D03*
G01X7901600Y1029800D03*
G01X7901600Y1109800D03*
G01X8120000Y7713148D03*
G01X8121359Y7800000D03*
G01X8184000Y5664000D03*
G01X8220000Y3564843D03*
G01X8280000Y5750000D03*
G01X8360000Y5870000D03*
G01X8440000Y5837152D03*
G01X8509000Y1587500D03*
G01X8650000Y2490000D03*
G01X8690000Y2700000D03*
G01X8699983Y7179986D03*
G01X8729997Y7380000D03*
G01X8729997Y7460000D03*
G01X8729997Y7540000D03*
G01X8729998Y7620001D03*
G01X8729998Y7700001D03*
G01X8729998Y7780001D03*
G01X8770000Y3110000D03*
G01X8770000Y2700000D03*
G01X8865999Y5604001D03*
G01X9000000Y7180000D03*
G01X9010000Y3110000D03*
G01X9080000Y4880000D03*
G01X9150000Y4880000D03*
G01X9169400Y1291615D03*
G01X9170000Y3564843D03*
G01X9235357Y1960000D03*
G01X9235357Y2040000D03*
G01X9293652Y2490000D03*
G01X9315357Y1960000D03*
G01X9315357Y2040000D03*
G01X9320000Y4700000D03*
G01X9377300Y1993200D03*
G01X9377300Y2073200D03*
G01X9532300Y1741000D03*
G01X9532300Y1821000D03*
G01X9537700Y1143000D03*
G01X9605000Y2916700D03*
G01X9605000Y2996700D03*
G01X9612300Y1741000D03*
G01X9612300Y1821000D03*
G01X9685000Y2916700D03*
G01X9685000Y2996700D03*
G01X9690100Y1460500D03*
G01X9692300Y1741000D03*
G01X9692300Y1821000D03*
G01X9753600Y1371600D03*
G01X9910001Y5760000D03*
G01X9982200Y578300D03*
G01X9989500Y166200D03*
G01X9989500Y246200D03*
G01X9990000Y5870000D03*
G01X10027600Y356700D03*
G01X10027600Y436700D03*
G01X10060000Y5853152D03*
G01X10069500Y166200D03*
G01X10069500Y246200D03*
G01X10107600Y356700D03*
G01X10107600Y436700D03*
G01X10149500Y166200D03*
G01X10149500Y246200D03*
G01X10187600Y356700D03*
G01X10187600Y436700D03*
G01X10312400Y2794000D03*
G01X10350000Y7180000D03*
G01X10369997Y7380000D03*
G01X10369997Y7460000D03*
G01X10369997Y7540000D03*
G01X10460000Y4805000D03*
G01X10505999Y5614001D03*
G01X10617200Y1765300D03*
G01X10640000Y7180000D03*
G01X10660000Y3564843D03*
G01X10730000Y4850000D03*
G01X10795100Y1824900D03*
G01X10900000Y4700000D03*
G01X11023600Y1358900D03*
G01X11090000Y5080000D03*
G01X11120000Y450000D03*
G01X11120000Y530000D03*
G01X11120000Y3410000D03*
G01X11120000Y5570000D03*
G01X11138000Y2040800D03*
G01X11200000Y450000D03*
G01X11200000Y530000D03*
G01X11539995Y4870000D03*
G01X11650000Y550000D03*
G01X11650000Y8150000D03*
G01X11715000Y5115000D03*
G01X11720000Y5210000D03*
G01X11818300Y1182200D03*
G01X11818300Y1262200D03*
G01X11830000Y4430000D03*
G01X11830000Y4510000D03*
G01X11875000Y350000D03*
G01X11875000Y8350000D03*
G01X11898300Y1182200D03*
G01X11898300Y1262200D03*
G01X11900000Y3260000D03*
G01X11900000Y3340000D03*
G01X11910000Y4430000D03*
G01X11910000Y4510000D03*
G01X11978300Y1182200D03*
G01X11978300Y1262200D03*
G01X12020000Y5030000D03*
G04 Drill Drawing End*

M02*

