G04 Layer: BoardOutlineLayer*
G04 EasyEDA Pro v2.2.32.3, 2025-04-16 15:38:56*
G04 Gerber Generator version 0.3*
G04 Scale: 100 percent, Rotated: No, Reflected: No*
G04 Dimensions in millimeters*
G04 Leading zeros omitted, absolute positions, 3 integers and 5 decimals*
%FSLAX35Y35*%
%MOMM*%
%ADD10C,0.127*%
G75*


G04 PolygonModel Start*
G54D10*
G01X11820000Y8510000D02*
G01X11550000Y8390000D01*
G03X11880512Y8029733I100000J-240000D01*
G01X12019439Y8260348D02*
G03X11816477Y8509609I-144439J89652D01*
G01X11880000Y8030000D02*
G01X12020000Y8260000D01*
G01X480000Y5660001D02*
G01X2041421Y5660001D01*
G01X2430711Y6049290D01*
G03X2360000Y6120000I-35355J35355D01*
G01X2000000Y5760000D01*
G01X480000Y5760000D01*
G03X480000Y5660001I0J-50000D01*
G01X2770000Y6649999D02*
G01X2770000Y7566280D01*
G03X2670000Y7566280I-50000J0D01*
G01X2670000Y6649999D01*
G03X2770000Y6649999I50000J0D01*
G01X2420000Y3130000D02*
G01X2770000Y2780001D01*
G01X2770000Y1890000D01*
G03X2870000Y1890000I50000J0D01*
G01X2870000Y2820581D01*
G01X2520000Y3170580D01*
G01X2520000Y3640000D01*
G03X2420000Y3640000I-50000J0D01*
G01X2420000Y3130000D01*
G01X5570000Y1300000D02*
G01X2960000Y1300000D01*
G03X2960000Y1200000I0J-50000D01*
G01X5570000Y1200000D01*
G03X5570000Y1300000I0J50000D01*
G01X12200000Y350000D02*
G01X12200000Y8350000D01*
G03X11850000Y8700000I-350000J0D01*
G01X350000Y8700000D01*
G03X0Y8350000I0J-350000D01*
G01X0Y350000D01*
G03X350000Y0I350000J0D01*
G01X11850000Y0D01*
G03X12200000Y350000I0J350000D01*
G01X11529733Y319488D02*
G01X11785349Y205561D01*
G03X12034609Y408523I89652J144439D01*
G01X11890000Y650000D01*
G03X11529733Y319488I-240000J-100000D01*
G01X165391Y8291477D02*
G01X310000Y8050000D01*
G03X670267Y8380512I240000J100000D01*
G01X414652Y8494439D01*
G03X165391Y8291477I-89652J-144439D01*
G01X383523Y190391D02*
G01X650000Y310000D01*
G03X319488Y670268I-100001J240000D01*
G01X180561Y439652D01*
G03X383523Y190391I144439J-89652D01*
G01X11710000Y4360000D02*
G01X4680000Y4360000D01*
G03X4680000Y4260000I0J-50000D01*
G01X11710000Y4260000D01*
G03X11710000Y4360000I0J50000D01*

G04 Circle Start*
G01X1560000Y275000D02*
G03X1740000Y275000I90000J0D01*
G03X1560000Y275000I-90000J0D01*
G04 Circle End*

M02*

