G04 Layer: CustomLayer3*
G04 EasyEDA Pro v2.2.32.3, 2025-04-16 15:38:56*
G04 Gerber Generator version 0.3*
G04 Scale: 100 percent, Rotated: No, Reflected: No*
G04 Dimensions in millimeters*
G04 Leading zeros omitted, absolute positions, 3 integers and 5 decimals*
%FSLAX35Y35*%
%MOMM*%
%ADD10C,0.15*%
G75*


G04 PolygonModel Start*
G54D10*
G01X2096000Y6080000D02*
G01X2096000Y6340000D01*
G01X1664000Y6080000D02*
G01X1664000Y6340000D01*
G01X1664000Y6340000D02*
G01X2096000Y6340000D01*
G01X1664000Y6080000D02*
G01X2096000Y6080000D01*
G01X3974000Y3810000D02*
G01X3974000Y3550000D01*
G01X4406000Y3810000D02*
G01X4406000Y3550000D01*
G01X4406000Y3550000D02*
G01X3974000Y3550000D01*
G01X4406000Y3810000D02*
G01X3974000Y3810000D01*
G01X10640000Y5055000D02*
G01X10820000Y5055000D01*
G01X10640000Y4745000D02*
G01X10820000Y4745000D01*
G01X10640000Y4745000D02*
G01X10640000Y5055000D01*
G01X10820000Y4745000D02*
G01X10820000Y5055000D01*
G01X1244000Y1620000D02*
G01X1676000Y1620000D01*
G01X1244000Y1360000D02*
G01X1676000Y1360000D01*
G01X1676000Y1360000D02*
G01X1676000Y1620000D01*
G01X1244000Y1360000D02*
G01X1244000Y1620000D01*
G01X2494000Y5900000D02*
G01X2926000Y5900000D01*
G01X2494000Y5640000D02*
G01X2926000Y5640000D01*
G01X2926000Y5640000D02*
G01X2926000Y5900000D01*
G01X2494000Y5640000D02*
G01X2494000Y5900000D01*
G01X11670000Y5365000D02*
G01X11850000Y5365000D01*
G01X11670000Y5055000D02*
G01X11850000Y5055000D01*
G01X11670000Y5055000D02*
G01X11670000Y5365000D01*
G01X11850000Y5055000D02*
G01X11850000Y5365000D01*

M02*

