G04 Layer: CustomLayer4*
G04 EasyEDA Pro v2.2.32.3, 2025-04-16 15:38:56*
G04 Gerber Generator version 0.3*
G04 Scale: 100 percent, Rotated: No, Reflected: No*
G04 Dimensions in millimeters*
G04 Leading zeros omitted, absolute positions, 3 integers and 5 decimals*
%FSLAX35Y35*%
%MOMM*%
%ADD10C,0.0127*%
%ADD11C,0.15*%
%ADD12C,0.127*%
G75*


G04 PolygonModel Start*
G54D10*
G01X2647142Y1152540D02*
G01X2652222Y1147460D01*
G01X11258086Y5222570D02*
G01X11263166Y5217490D01*
G01X1812570Y5991914D02*
G01X1807490Y5986834D01*
G01X4262571Y3460071D02*
G01X4257491Y3454991D01*
G01X5877460Y2047142D02*
G01X5882540Y2052222D01*
G01X682540Y1232858D02*
G01X677460Y1227778D01*
G01X2307460Y2767142D02*
G01X2312540Y2772222D01*
G01X2202859Y5127460D02*
G01X2197779Y5132540D01*
G01X2337142Y4202540D02*
G01X2342222Y4197460D01*
G01X3382541Y2632858D02*
G01X3377461Y2627778D01*
G01X4062860Y2267460D02*
G01X4057780Y2272540D01*
G01X2242858Y1907460D02*
G01X2237778Y1912540D01*
G01X5282861Y7137460D02*
G01X5277781Y7142540D01*
G01X8562858Y7137460D02*
G01X8557778Y7142540D01*
G01X10202858Y7137460D02*
G01X10197778Y7142540D01*
G01X3642861Y7137459D02*
G01X3637781Y7142539D01*
G01X6138782Y371193D02*
G01X6143862Y366113D01*
G01X6147713Y341075D02*
G01X6152793Y335995D01*
G54D11*
G01X1830000Y1490000D02*
G01X1930000Y1490000D01*
G01X1880000Y1440000D02*
G01X1880000Y1540000D01*
G01X1020000Y1440000D02*
G01X1020000Y1540000D01*
G54D10*
G01X817461Y1932935D02*
G01X822541Y1938015D01*
G01X2521218Y7366956D02*
G01X2516138Y7372036D01*
G01X2512287Y7397074D02*
G01X2507207Y7402154D01*
G54D11*
G01X3080000Y5770000D02*
G01X3180000Y5770000D01*
G01X3130000Y5720000D02*
G01X3130000Y5820000D01*
G01X2270000Y5720000D02*
G01X2270000Y5820000D01*
G54D10*
G01X1012539Y6207065D02*
G01X1007459Y6201985D01*
G01X5918782Y371193D02*
G01X5923862Y366113D01*
G01X5927713Y341075D02*
G01X5932793Y335995D01*
G01X1631735Y2742540D02*
G01X1636815Y2737460D01*
G01X7908086Y1382571D02*
G01X7913166Y1377491D01*
G01X7012576Y3021914D02*
G01X7007496Y3016834D01*
G01X9335566Y2705629D02*
G01X9330486Y2710709D01*
G01X9351014Y1369030D02*
G01X9345934Y1374110D01*
G01X9579614Y1369030D02*
G01X9574534Y1374110D01*
G01X11688086Y3412571D02*
G01X11693166Y3407491D01*
G01X6148086Y952570D02*
G01X6153166Y947490D01*
G01X6714486Y2161570D02*
G01X6719566Y2156490D01*
G01X771914Y2467429D02*
G01X766834Y2472509D01*
G01X498086Y2472570D02*
G01X503166Y2467490D01*
G01X2428088Y7032570D02*
G01X2433168Y7027490D01*
G01X6011914Y947429D02*
G01X6006834Y952509D01*
G01X11797430Y4928086D02*
G01X11802510Y4933166D01*
G01X4257430Y3178086D02*
G01X4262510Y3183166D01*
G01X2801914Y1657430D02*
G01X2796834Y1662510D01*
G01X3517429Y1498086D02*
G01X3522509Y1503166D01*
G01X3661914Y951743D02*
G01X3656834Y956823D01*
G01X4297430Y1498086D02*
G01X4302510Y1503166D01*
G01X4451914Y951682D02*
G01X4446834Y956762D01*
G01X5077430Y1498086D02*
G01X5082510Y1503166D01*
G01X5231914Y951682D02*
G01X5226834Y956762D01*
G01X5857429Y1498086D02*
G01X5862509Y1503166D01*
G01X10718087Y3637409D02*
G01X10723167Y3632329D01*
G01X11117425Y4928086D02*
G01X11122505Y4933166D01*
G01X6128086Y3647409D02*
G01X6133166Y3642329D01*
G01X5532570Y5011404D02*
G01X5527490Y5006324D01*
G01X7578086Y3642571D02*
G01X7583166Y3637491D01*
G01X7022570Y5011404D02*
G01X7017490Y5006324D01*
G01X9028086Y3647409D02*
G01X9033166Y3642329D01*
G01X8512570Y5011404D02*
G01X8507490Y5006324D01*
G01X10518086Y3637409D02*
G01X10523166Y3632329D01*
G01X10022571Y5011404D02*
G01X10017491Y5006324D01*
G01X4818086Y3647409D02*
G01X4823166Y3642329D01*
G01X5157435Y4928087D02*
G01X5162515Y4933167D01*
G01X6328086Y3647409D02*
G01X6333166Y3642329D01*
G01X6647429Y4928087D02*
G01X6652509Y4933167D01*
G01X7778086Y3642571D02*
G01X7783166Y3637491D01*
G01X8137429Y4928087D02*
G01X8142509Y4933167D01*
G01X9228086Y3647409D02*
G01X9233166Y3642329D01*
G01X9657430Y4928087D02*
G01X9662510Y4933167D01*
G01X11438086Y3412571D02*
G01X11443166Y3407491D01*
G01X11462571Y5011914D02*
G01X11457491Y5006834D01*
G01X3627433Y5918086D02*
G01X3632513Y5923166D01*
G01X5277433Y5918086D02*
G01X5282513Y5923166D01*
G01X8557429Y5918086D02*
G01X8562509Y5923166D01*
G01X10197429Y5918086D02*
G01X10202509Y5923166D01*
G01X3627433Y6168086D02*
G01X3632513Y6173166D01*
G01X5277433Y6178086D02*
G01X5282513Y6183166D01*
G01X8557429Y6178086D02*
G01X8562509Y6183166D01*
G01X10197429Y6178086D02*
G01X10202509Y6183166D01*
G01X3627433Y6418086D02*
G01X3632513Y6423166D01*
G01X5277433Y6428086D02*
G01X5282513Y6433166D01*
G01X8557429Y6428086D02*
G01X8562509Y6433166D01*
G01X10197429Y6428086D02*
G01X10202509Y6433166D01*
G01X10735314Y2880330D02*
G01X10730234Y2885410D01*
G01X10460986Y2885470D02*
G01X10466066Y2880390D01*
G01X10935118Y2861707D02*
G01X10930038Y2866787D01*
G01X10926187Y2891826D02*
G01X10921107Y2896906D01*
G01X1931218Y1948807D02*
G01X1926138Y1953887D01*
G01X1922287Y1978926D02*
G01X1917207Y1984006D01*
G01X1838086Y1602565D02*
G01X1843166Y1597485D01*
G01X6922858Y7127460D02*
G01X6917778Y7132540D01*
G01X6907429Y5918086D02*
G01X6912509Y5923166D01*
G01X6907429Y6168086D02*
G01X6912509Y6173166D01*
G01X6907429Y6428086D02*
G01X6912509Y6433166D01*
G01X7188086Y1372571D02*
G01X7193166Y1367491D01*
G01X6978086Y1372565D02*
G01X6983166Y1367485D01*
G01X6768086Y1372571D02*
G01X6773166Y1367491D01*
G01X6558086Y1372571D02*
G01X6563166Y1367491D01*

G04 Circle Start*
G54D12*
G01X11625000Y8350000D02*
G03X12125000Y8350000I250000J0D01*
G03X11625000Y8350000I-250000J0D01*
G01X75000Y8350000D02*
G03X575000Y8350000I250000J0D01*
G03X75000Y8350000I-250000J0D01*
G01X75000Y350000D02*
G03X575000Y350000I250000J0D01*
G03X75000Y350000I-250000J0D01*
G01X11625000Y350000D02*
G03X12125000Y350000I250000J0D01*
G03X11625000Y350000I-250000J0D01*
G01X11240000Y8150000D02*
G03X12040000Y8150000I400000J0D01*
G03X11240000Y8150000I-400000J0D01*
G01X150000Y8150000D02*
G03X950000Y8150000I400000J0D01*
G03X150000Y8150000I-400000J0D01*
G01X150000Y550000D02*
G03X950000Y550000I400000J0D01*
G03X150000Y550000I-400000J0D01*
G01X11250000Y550000D02*
G03X12050000Y550000I400000J0D01*
G03X11250000Y550000I-400000J0D01*
G04 Circle End*

M02*

