;TYPE=PLATED
;Layer: PTH_Through
;EasyEDA Pro Client v2.2.32.3, 2025-03-28 17:03:34
;Gerber Generator version 0.3
M48
METRIC,LZ,000.00000
;Hole size 1 = 0.30000 METRIC
T01C0.30000
;Hole size 2 = 0.80000 METRIC
T02C0.80000
;Hole size 3 = 0.80000 METRIC
T03C0.80000
;Hole size 4 = 0.90000 METRIC
T04C0.90000
;Hole size 5 = 1.00000 METRIC
T05C1.00000
;Hole size 6 = 1.00000 METRIC
T06C1.00000
;Hole size 7 = 1.20000 METRIC
T07C1.20000
;Hole size 8 = 1.70002 METRIC
T08C1.70002
;Hole size 9 = 2.50002 METRIC
T09C2.50002
%
G05
G90
T01
X122.23768Y50.33984
X125.17407Y50.81872
X125.07207Y47.55468
X136.03009Y45.01991
X138.51074Y54.10826
X152.40843Y58.00981
X147.58886Y53.29225
X131.03915Y45.56565
X117.37097Y47.40168
X112.0159Y59.99884
X116.40196Y46.94267
X106.40583Y56.47979
X120.02301Y42.96462
X103.49879Y55.30678
X103.65179Y61.56481
X103.65179Y57.75481
X100.94876Y52.96075
X103.70279Y47.55468
X108.03785Y53.82776
X106.45683Y53.92976
X124.25512Y69.68896
X148.71506Y68.15894
X132.05916Y68.10794
X116.63512Y68.15894
X108.75186Y64.5889
X109.46587Y69.79097
X109.15987Y71.01498
X126.29609Y44.49464
X120.43101Y58.46882
X162.09855Y61.42686
X154.09145Y63.21188
X168.06563Y61.83486
X168.98364Y51.48173
X90.03462Y57.75481
X122.93004Y64.02789
X85.29156Y67.80194
X67.69633Y67.80194
X49.7951Y68.95794
X56.73119Y68.95794
X61.06624Y69.84197
X153.17344Y57.1938
X124.61307Y39.39457
X131.44715Y44.29064
X126.75509Y46.99367
X121.65503Y51.53273
X123.08305Y49.6457
X131.60016Y46.22866
X130.37614Y47.45268
X153.58144Y46.27966
X136.08821Y43.83163
X132.11052Y43.21998
X135.3232Y43.42362
X153.12243Y17.51529
X150.5724Y17.51529
X167.91263Y9.40618
X120.0852Y40.85153
X123.96125Y44.93158
X117.70112Y56.20273
X118.91218Y56.96774
X110.59908Y66.65786
X96.16589Y66.45386
X38.22914Y64.10783
X41.03417Y37.33248
X75.30662Y66.55586
X84.12973Y63.77289
X85.55775Y65.38285
X77.80565Y62.49897
X91.82466Y70.48291
X91.37183Y66.75986
X94.58487Y56.66173
X94.78887Y61.5068
X61.68944Y65.07684
X49.70429Y63.90383
X43.1762Y53.49969
X42.00319Y60.02778
X63.27723Y57.42674
X94.61037Y55.41222
X86.52676Y53.70369
X67.96252Y53.55069
X67.40152Y61.30279
X92.23884Y57.68175
X110.54807Y64.61784
X129.31632Y57.17174
X126.10328Y60.03429
X142.01548Y60.03429
X157.41768Y57.78375
X157.41768Y48.39963
X162.31374Y48.34863
X100.29694Y61.40479
X103.56098Y53.7547
X118.27467Y51.15366
X118.09617Y54.2647
X131.81535Y58.19175
X121.36021Y54.4177
X140.43446Y58.34476
X104.785Y37.48549
X106.92703Y35.03745
X142.72949Y28.76437
X137.98643Y28.45837
X127.8883Y28.45837
X154.61264Y32.48742
X148.90057Y31.36541
X130.89734Y36.10847
X131.76435Y35.49646
X133.85538Y32.69142
X113.50611Y41.97354
X113.60811Y36.41447
X129.87732Y35.64946
X129.87732Y32.28342
X129.46932Y39.88252
X131.86635Y39.52551
X144.82052Y49.21564
X134.41638Y54.4177
X135.7934Y53.24469
X119.06518Y47.88962
X117.02516Y45.84959
X143.1885Y32.43642
X143.2905Y22.74629
X157.26468Y15.3512
X121.87022Y55.59072
X112.02709Y63.03682
X113.65911Y61.5068
X158.5397Y55.99872
X158.7947Y50.89866
X127.7863Y39.27051
X133.70237Y37.63849
X140.79147Y33.71144
X147.88056Y43.35056
X134.62039Y27.13235
X147.20636Y17.35142
X138.39443Y18.41124
X119.26919Y26.72435
X127.37829Y30.8044
X124.31825Y30.49839
X103.10198Y35.80246
X103.05098Y27.99936
X103.10198Y25.09232
X150.63459Y14.33119
X147.57455Y19.48225
X166.08779Y9.53712
X142.01548Y65.48485
X147.75305Y66.68336
X159.2537Y65.48485
X128.1433Y66.55586
X112.4861Y66.60686
X84.23173Y21.98128
X66.1775Y9.53712
X84.12973Y19.38025
X74.38861Y9.58812
X85.45575Y16.67722
X83.56873Y9.18012
X89.89281Y14.43319
X90.96382Y8.51711
X116.41315Y39.0155
X118.46467Y40.93749
X116.15815Y38.14849
X132.78436Y36.36347
X133.54937Y36.56747
X133.49837Y35.80246
X130.89734Y35.39446
X130.5605Y33.20143
X129.01031Y33.35443
X132.68236Y31.1614
X132.68236Y30.44739
X133.60037Y30.7024
X128.95931Y32.43642
X102.99998Y20.14526
X105.24401Y15.63997
X109.22206Y14.33119
X119.79526Y14.33119
X141.94842Y14.33119
X143.5965Y6.37508
X134.46738Y6.42608
X122.89023Y6.32408
X112.7921Y6.37508
X124.33022Y12.64816
X129.06131Y9.43512
X129.06131Y12.03616
X129.01031Y14.38219
X73.8786Y55.89672
X73.9296Y52.12267
X99.02193Y63.69982
X103.56098Y50.03165
X159.50871Y63.75082
X163.23176Y64.46483
X162.10974Y56.55973
X168.22982Y27.33635
X146.60554Y56.45773
X149.51258Y45.08458
X152.36862Y39.67851
X162.97675Y31.0084
X151.4506Y27.38735
X119.32019Y42.21998
X120.5952Y41.56554
X120.85021Y36.97548
X123.80825Y41.10653
X85.25175Y71.75793
X168.99483Y14.33119
X124.1604Y43.97992
X124.52226Y42.07554
X125.03226Y44.06457
X125.28727Y41.51454
X127.8373Y41.05553
X128.3473Y41.61654
X129.11231Y42.12655
X129.16332Y41.10653
X140.71343Y50.00271
X118.93615Y58.26482
X121.63918Y57.44881
X104.09496Y64.5379
X105.26797Y64.5379
X106.69599Y64.5379
X102.87094Y64.5379
X142.19245Y11.29321
X138.7244Y10.4772
X138.4694Y11.29321
X136.88838Y25.26739
X137.09238Y24.40038
X131.78831Y25.06339
X133.21633Y25.16539
X131.27831Y24.09437
X132.50232Y23.99237
X139.79542Y26.79741
X140.61143Y26.0324
X136.58238Y26.0834
X105.62498Y27.10341
X104.70696Y26.2364
X102.13297Y6.37508
X121.18018Y9.55919
X119.85416Y10.7322
X111.08205Y9.71219
X109.55203Y10.06919
X107.206Y23.89037
X108.02201Y23.12536
X105.93098Y22.00335
X108.94002Y22.97236
X107.10399Y22.30935
X108.73602Y22.00335
X106.79799Y21.18734
X108.27701Y20.62633
X106.49199Y20.06532
X110.67404Y21.64634
X110.16403Y20.37133
X108.17501Y19.50431
X109.50103Y21.28934
X106.59399Y23.12536
X109.70503Y19.55532
X123.98521Y33.4785
X123.42421Y32.81549
X123.78121Y31.94848
X138.4184Y33.22349
X139.23441Y32.45848
X140.56043Y31.84647
X141.73344Y31.38747
X138.5204Y39.19057
X139.38741Y38.57856
X140.25442Y37.50755
X139.84642Y49.6457
X138.92841Y49.1357
X146.2215Y55.40878
X135.25636Y52.65474
X134.69535Y52.04274
X133.06333Y51.02272
X135.56236Y54.94977
X140.99165Y47.20997
X151.01556Y46.68767
X151.52557Y46.17766
X150.81156Y45.31065
X179.77994Y41.2306
X176.00589Y41.2306
X177.2639Y41.2306
X178.52192Y41.2306
X179.77994Y39.49657
X176.00589Y39.49657
X177.2639Y39.49657
X178.52192Y39.49657
X179.88194Y37.40555
X176.10789Y37.40555
X177.3659Y37.40555
X178.62392Y37.40555
X179.83094Y35.31452
X176.05689Y35.31452
X177.3149Y35.31452
X178.57292Y35.31452
X179.93294Y32.86649
X176.15889Y32.86649
X177.4169Y32.86649
X178.67492Y32.86649
X171.92583Y25.67539
X173.96586Y27.61342
X173.94886Y25.9304
X172.04483Y27.76642
X171.10982Y13.12923
X170.19181Y12.26222
X172.06184Y13.94524
X172.96285Y14.65925
X179.42293Y30.36746
X175.64888Y30.36746
X176.9069Y30.36746
X178.16491Y30.36746
X179.42293Y28.63343
X175.64888Y28.63343
X176.9069Y28.63343
X178.16491Y28.63343
X179.52493Y26.54241
X175.75088Y26.54241
X177.0089Y26.54241
X178.26692Y26.54241
X149.10457Y40.95353
X149.41058Y40.18852
X147.62555Y33.15043
X147.06455Y32.18142
X146.09553Y31.41641
X125.64427Y23.86831
X123.96125Y22.74629
X118.50418Y17.79923
X117.48416Y17.18722
X19.30789Y1.37702
X20.41291Y1.37702
X21.51792Y1.37702
X22.62294Y1.37702
X13.49382Y4.53906
X16.80886Y4.53906
X14.59883Y4.53906
X15.70385Y4.53906
X13.49382Y3.06004
X16.80886Y3.06004
X14.59883Y3.06004
X15.70385Y3.06004
X13.28982Y1.58102
X16.60486Y1.58102
X14.39483Y1.58102
X15.49984Y1.58102
X18.95089Y8.31311
X22.26593Y8.31311
X20.0559Y8.31311
X21.16092Y8.31311
X14.81984Y10.76114
X15.73785Y6.52808
X15.92485Y10.76114
X17.02986Y10.76114
X14.51885Y8.85979
X14.16184Y6.41176
X15.62386Y8.85979
X16.72888Y8.85979
X56.69138Y9.63912
X60.00642Y9.63912
X57.79639Y9.63912
X58.90141Y9.63912
X56.84438Y10.86314
X60.15942Y10.86314
X57.94939Y10.86314
X59.05441Y10.86314
X57.86439Y12.24016
X61.17944Y12.24016
X58.96941Y12.24016
X60.07442Y12.24016
X59.34341Y13.71918
X62.65845Y13.71918
X60.44843Y13.71918
X61.55344Y13.71918
X60.61843Y14.79019
X63.93347Y14.79019
X61.72344Y14.79019
X62.82846Y14.79019
X62.40345Y15.86121
X65.71849Y15.86121
X63.50847Y15.86121
X64.61348Y15.86121
X63.88247Y16.77922
X67.19751Y16.77922
X64.98748Y16.77922
X66.0925Y16.77922
X70.61456Y21.47128
X73.9296Y21.47128
X71.71957Y21.47128
X72.82459Y21.47128
X69.44154Y19.94126
X72.75659Y19.94126
X70.54656Y19.94126
X71.65157Y19.94126
X68.11553Y18.87024
X71.43057Y18.87024
X69.22054Y18.87024
X70.32555Y18.87024
X95.65588Y36.46547
X92.49384Y36.56747
X94.36387Y36.10847
X91.49083Y36.10847
X86.93477Y37.99549
X90.24981Y37.99549
X88.03978Y37.99549
X89.1448Y37.99549
X86.88377Y36.15947
X90.19881Y36.15947
X87.98878Y36.15947
X89.0938Y36.15947
X86.83277Y44.11557
X90.14781Y44.11557
X87.93778Y44.11557
X89.0428Y44.11557
X86.88377Y45.54359
X90.19881Y45.54359
X87.98878Y45.54359
X89.0938Y45.54359
X87.08777Y47.12461
X90.40281Y47.12461
X88.19279Y47.12461
X89.2978Y47.12461
X86.83277Y48.45063
X90.14781Y48.45063
X87.93778Y48.45063
X89.0428Y48.45063
X65.46349Y71.91093
X68.77853Y71.91093
X66.56851Y71.91093
X67.67352Y71.91093
X65.80026Y73.10489
X68.09529Y70.96286
X65.88526Y70.96286
X66.99027Y70.96286
X65.41249Y70.12591
X68.72753Y70.12591
X66.5175Y70.12591
X67.62252Y70.12591
X86.62877Y74.20596
X89.94381Y74.20596
X87.73378Y74.20596
X88.83879Y74.20596
X86.37376Y73.13495
X89.6888Y73.13495
X87.47878Y73.13495
X88.58379Y73.13495
X97.33122Y76.16386
X100.64626Y76.16386
X98.43623Y76.16386
X99.54125Y76.16386
X96.57389Y73.84896
X99.07293Y71.09492
X97.47491Y73.08395
X98.47792Y72.06393
X85.76414Y76.76286
X89.07918Y76.76286
X86.86916Y76.76286
X87.97417Y76.76286
X110.70108Y76.55199
X114.01612Y76.55199
X111.80609Y76.55199
X112.91111Y76.55199
X165.88379Y76.34799
X169.19883Y76.34799
X166.9888Y76.34799
X168.09382Y76.34799
X166.03679Y75.07297
X169.35184Y75.07297
X167.14181Y75.07297
X168.24682Y75.07297
X165.93479Y73.33895
X169.24983Y73.33895
X167.03981Y73.33895
X168.14482Y73.33895
X165.06778Y71.09492
X168.38282Y71.09492
X166.17279Y71.09492
X167.27781Y71.09492
X162.00774Y70.17691
X165.32278Y70.17691
X163.11275Y70.17691
X164.21777Y70.17691
X175.26791Y56.20273
X178.58296Y56.20273
X176.37293Y56.20273
X177.47794Y56.20273
X175.52292Y54.82571
X178.83796Y54.82571
X176.62793Y54.82571
X177.73294Y54.82571
X175.31891Y53.8057
X178.63396Y53.8057
X176.42393Y53.8057
X177.52894Y53.8057
X173.63589Y57.06974
X175.57392Y57.93675
X174.99591Y59.00776
X175.13191Y57.42674
X171.34268Y55.48872
X174.65772Y55.48872
X172.44769Y55.48872
X173.55271Y55.48872
X172.81988Y46.1046
X176.13492Y46.1046
X173.92489Y46.1046
X175.02991Y46.1046
X171.97055Y47.08291
X175.9996Y47.18491
X173.78957Y47.18491
X174.89458Y47.18491
X30.52804Y51.00066
X33.84308Y51.00066
X31.63305Y51.00066
X32.73807Y51.00066
X30.47704Y49.67464
X33.79208Y49.67464
X31.58205Y49.67464
X32.68707Y49.67464
X30.32404Y47.88962
X33.63908Y47.88962
X31.42905Y47.88962
X32.53406Y47.88962
X30.22204Y46.2576
X33.53708Y46.2576
X31.32705Y46.2576
X32.43206Y46.2576
X50.06129Y51.40867
X53.37633Y51.40867
X51.16631Y51.40867
X52.27132Y51.40867
X50.01029Y49.77664
X53.32533Y49.77664
X51.11531Y49.77664
X52.22032Y49.77664
X50.01029Y47.99162
X53.32533Y47.99162
X51.11531Y47.99162
X52.22032Y47.99162
X50.11229Y46.2576
X53.42734Y46.2576
X51.21731Y46.2576
X52.32232Y46.2576
X72.14458Y51.00066
X75.45962Y51.00066
X73.24959Y51.00066
X74.35461Y51.00066
X72.24658Y49.26664
X75.56162Y49.26664
X73.35159Y49.26664
X74.45661Y49.26664
X72.24658Y47.58362
X75.56162Y47.58362
X73.35159Y47.58362
X74.45661Y47.58362
X72.45058Y45.74759
X75.76562Y45.74759
X73.5556Y45.74759
X74.66061Y45.74759
X78.11165Y46.6656
X78.11165Y49.98065
X78.11165Y47.77062
X78.11165Y48.87563
X69.79855Y47.12461
X69.79855Y50.43965
X69.79855Y48.22962
X69.79855Y49.33464
X58.3234Y44.47258
X58.3234Y47.78762
X58.3234Y45.57759
X58.3234Y46.6826
X42.20719Y45.84959
X45.52223Y45.84959
X43.3122Y45.84959
X44.41722Y45.84959
X58.2724Y39.0155
X58.2724Y42.33055
X58.2724Y40.12052
X58.2724Y41.22553
X80.96769Y45.33959
X80.96769Y48.65463
X80.96769Y46.4446
X80.96769Y47.54962
X57.30339Y35.49646
X60.61843Y35.49646
X58.4084Y35.49646
X59.51341Y35.49646
X57.71139Y34.37444
X61.02643Y34.37444
X58.81641Y34.37444
X59.92142Y34.37444
X93.58882Y48.9827
X93.5847Y47.69046
X93.63982Y46.38166
X93.77822Y44.66895
X93.8508Y42.59497
X93.07881Y52.24674
X94.04783Y53.01175
X92.61981Y43.83163
X92.67081Y48.57469
X92.59289Y47.04951
X92.56881Y44.95364
X111.89806Y41.6386
X110.87804Y42.40361
X109.90903Y43.37262
X108.8101Y44.41297
X108.02201Y45.10665
X110.7221Y38.97745
X110.21503Y38.17056
X109.1201Y37.68802
X100.62691Y43.88263
X99.04589Y44.49464
X98.33188Y45.71865
X101.54492Y41.9446
X101.49392Y43.57663
X1.30466Y36.00647
X4.6197Y36.00647
X2.40968Y36.00647
X3.51469Y36.00647
X1.40624Y34.11204
X4.72128Y34.11204
X2.51125Y34.11204
X3.61627Y34.11204
X1.40666Y32.33442
X4.72171Y32.33442
X2.51168Y32.33442
X3.61669Y32.33442
X2.12067Y17.85023
X5.43571Y17.85023
X3.22569Y17.85023
X4.3307Y17.85023
X6.45573Y16.88122
X9.77077Y16.88122
X7.56074Y16.88122
X8.66576Y16.88122
X20.0219Y20.29826
X23.33695Y20.29826
X21.12692Y20.29826
X22.23193Y20.29826
X20.01168Y18.92299
X23.32673Y18.92299
X21.1167Y18.92299
X22.22171Y18.92299
X19.8179Y17.54423
X23.13294Y17.54423
X20.92291Y17.54423
X22.02793Y18.15623
X22.52094Y43.80957
X25.83598Y43.80957
X23.62595Y43.80957
X24.73096Y43.80957
X22.59704Y42.47021
X25.91208Y42.47021
X23.70206Y42.47021
X24.80707Y42.47021
X14.05483Y43.60556
X17.36987Y43.60556
X15.15984Y43.60556
X16.26485Y43.60556
X13.90182Y42.43255
X17.21687Y42.43255
X15.00684Y42.43255
X16.11185Y42.43255
X2.12067Y44.31957
X2.12067Y47.63462
X2.12067Y45.42459
X2.12067Y46.5296
X2.88568Y40.80053
X2.88568Y44.11557
X2.88568Y41.90554
X2.88568Y43.01056
X31.95606Y53.39769
X35.2711Y53.39769
X33.06107Y53.39769
X34.16609Y53.39769
X31.70105Y54.57071
X35.4751Y54.2647
X32.80607Y54.57071
X33.91108Y54.57071
X33.48608Y55.64172
X34.60809Y54.1627
X34.35309Y55.36972
X32.36406Y56.67873
X31.54805Y76.04198
X34.8631Y76.04198
X32.65307Y76.04198
X33.75808Y76.04198
X31.80306Y74.97097
X35.1181Y74.97097
X32.90807Y74.97097
X34.01308Y74.97097
X29.28547Y67.5033
X29.28547Y70.81834
X29.28547Y68.60831
X29.28547Y69.71333
X29.76303Y63.49582
X29.20202Y66.35186
X29.76303Y64.60084
X29.20202Y65.24684
X43.29427Y63.75082
X46.60931Y63.75082
X44.39928Y63.75082
X45.5043Y63.75082
X43.29427Y62.60842
X46.60931Y62.60842
X44.39928Y62.60842
X45.5043Y62.60842
X63.17528Y53.29569
X63.78729Y53.29569
X51.39413Y64.10783
X51.90414Y64.51583
X37.87896Y64.46483
X38.43996Y64.61784
X38.79697Y64.20983
X40.47999Y37.33248
X40.78373Y37.99015
X40.2585Y37.84869
X74.75471Y66.17522
X74.68505Y66.75986
X30.55189Y53.39769
X29.63414Y53.66148
X36.34211Y53.49969
X26.70299Y50.49065
X26.80499Y49.16464
X26.65199Y47.73662
X26.53483Y45.98986
X26.44799Y44.93158
X25.58097Y41.25953
X24.43596Y41.29775
X23.02104Y40.98791
X25.12197Y40.23952
X23.70726Y39.95852
X15.43184Y41.41254
X13.95282Y40.03552
X15.04425Y40.17132
X17.21687Y16.98322
X12.0148Y16.93222
X37.15812Y37.48549
X37.51513Y36.61847
X36.24238Y35.96319
X56.84438Y38.8625
X56.84438Y40.39252
X56.58938Y37.38348
X58.2724Y36.51647
X56.69138Y35.90446
X57.76239Y49.36864
X57.96639Y51.10266
X57.60939Y51.91867
X58.5274Y50.13365
X61.02643Y45.08458
X64.64748Y44.88058
X64.90248Y43.86057
X61.07743Y43.70757
X60.31242Y42.78955
X79.23367Y41.41254
X80.45769Y41.87154
X80.35568Y42.94256
X81.5797Y42.33055
X87.64878Y33.20143
X87.80178Y34.73145
X87.80178Y29.32538
X87.55483Y28.03241
X86.16976Y26.62234
X85.35375Y25.60233
X122.22723Y38.5055
X122.58423Y37.94449
X138.4184Y51.94073
X132.44871Y56.96774
X155.85802Y57.83475
X128.62366Y47.78762
X123.6766Y42.73855
X133.72634Y47.96268
X132.65793Y50.38411
X139.94842Y50.46172
X145.92898Y56.02079
X137.34739Y56.8368
X124.18661Y52.68368
X127.27215Y47.76212
X154.583Y8.02612
X146.9839Y10.30213
X143.68167Y18.17062
X143.27366Y17.15061
X142.86565Y18.83363
X156.98003Y9.92611
T02
X127.12329Y26.26534
X113.81212Y43.70757
X118.86118Y35.75146
X121.56422Y35.29246
T03
X178.27594Y23.64766
X175.73594Y16.02766
X116.43013Y28.847
X116.43013Y26.307
X116.43013Y23.767
X116.43013Y21.227
X114.33013Y53.51989
X116.87013Y53.51989
X119.41013Y53.51989
X154.66502Y38.17794
X157.20502Y38.17794
X143.85151Y63.14383
X143.85151Y65.68383
X21.65392Y3.47306
X21.65392Y6.01306
X165.0218Y68.59589
X167.5618Y68.59589
X72.3026Y12.95417
X74.8426Y12.95417
X165.65014Y2.40205
X165.65014Y4.94205
T04
X94.36466Y73.84985
X91.82466Y73.84985
X123.65411Y73.90085
X121.11411Y73.90085
X118.57411Y73.90085
X116.03411Y73.90085
X137.08109Y73.84985
X134.54109Y73.84985
X132.00109Y73.84985
X129.46109Y73.84985
X150.50807Y73.90085
X147.96807Y73.90085
X145.42807Y73.90085
X142.88807Y73.90085
X163.93505Y73.84985
X161.39505Y73.84985
X158.85505Y73.84985
X156.31505Y73.84985
X146.06007Y3.64498
X148.60007Y3.64498
X136.76709Y3.64498
X139.30709Y3.64498
X127.47411Y3.64498
X130.01411Y3.64498
X118.18113Y3.64498
X120.72113Y3.64498
X108.88814Y3.64498
X111.42814Y3.64498
X99.59516Y3.64498
X102.13516Y3.64498
X90.30218Y3.64498
X92.84218Y3.64498
X81.0092Y3.64498
X83.5492Y3.64498
X71.71622Y3.64498
X74.25622Y3.64498
X62.42324Y3.64498
X64.96324Y3.64498
X53.13025Y3.64498
X55.67025Y3.64498
X102.84582Y73.84985
X105.38582Y73.84985
X107.92582Y73.84985
X38.48298Y73.84985
X41.02298Y73.84985
X43.56298Y73.84985
X51.64115Y73.84985
X54.18115Y73.84985
X56.72115Y73.84985
X77.44749Y73.84985
X79.98749Y73.84985
X82.52749Y73.84985
X177.95976Y62.89584
X177.95976Y60.35584
X177.95976Y57.81584
X177.95976Y51.6019
X177.95976Y49.0619
X177.95976Y46.5219
X71.17055Y73.84985
X68.63055Y73.84985
X160.28399Y3.747
X157.74399Y3.747
X155.20399Y3.747
T05
X152.74006Y54.63984
X152.74006Y49.6399
X84.92018Y50.3899
X87.46018Y50.3899
X92.54018Y50.3899
X97.62018Y50.3899
X84.88018Y42.21992
X87.42018Y42.21992
X92.50018Y42.21992
X97.58018Y42.21992
X169.3028Y38.22541
X169.3028Y35.72542
X167.3028Y35.72542
X167.3028Y38.22541
T06
X178.27594Y18.56766
X175.73594Y18.56766
X178.27594Y21.10766
X175.73594Y23.64766
X175.73594Y21.10766
X178.27594Y16.02766
T07
X22.46019Y73.21481
X25.00019Y73.2048
X19.92019Y73.21481
T08
X10.20034Y47.02993
X10.20034Y42.02994
X10.2Y63.34381
X10.2Y58.34382
X28.40638Y6.5
X33.40637Y6.5
X40.82918Y6.5
X45.82917Y6.5
T09
X172.01288Y42.99543
X172.01288Y30.95542
M30