G04 Layer: TopPasteMaskLayer*
G04 EasyEDA Pro v2.2.32.3, 2025-03-28 17:03:34*
G04 Gerber Generator version 0.3*
G04 Scale: 100 percent, Rotated: No, Reflected: No*
G04 Dimensions in millimeters*
G04 Leading zeros omitted, absolute positions, 3 integers and 5 decimals*
%FSLAX35Y35*%
%MOMM*%
%AMRoundRect*1,1,$1,$2,$3*1,1,$1,$4,$5*1,1,$1,0-$2,0-$3*1,1,$1,0-$4,0-$5*20,1,$1,$2,$3,$4,$5,0*20,1,$1,$4,$5,0-$2,0-$3,0*20,1,$1,0-$2,0-$3,0-$4,0-$5,0*20,1,$1,0-$4,0-$5,$2,$3,0*4,1,4,$2,$3,$4,$5,0-$2,0-$3,0-$4,0-$5,$2,$3,0*%
%ADD10R,1.0X1.10002*%
%ADD11R,0.532X1.03749*%
%ADD12R,11.0X9.00001*%
%ADD13R,1.01999X3.35854*%
%ADD14R,2.0X2.2*%
%ADD15R,1.01999X3.49999*%
%ADD16R,10.5872X8.70501*%
%ADD17R,1.0052X1.10002*%
%ADD18R,1.0X1.10002*%
%ADD19R,0.89992X1.0*%
%ADD20R,3.82001X3.03002*%
%ADD21R,3.82001X3.02999*%
%ADD22R,2.0X2.0*%
%ADD23R,2.0X2.0*%
%ADD24O,0.60201X1.97099*%
%ADD25R,1.0X2.99999*%
%ADD26R,1.10002X1.0*%
%ADD27R,0.8X1.0*%
%ADD28R,1.0X1.4*%
%ADD29R,1.0X1.4*%
%ADD30R,2.99999X5.99999*%
%ADD31R,1.0X2.99999*%
%ADD32R,0.8X0.9*%
%ADD33R,0.8X0.9*%
%ADD34O,1.96751X0.595*%
%ADD35O,2.045X0.58801*%
%ADD36RoundRect,0.17002X0.43569X-0.46109X-0.43569X-0.46109*%
%ADD37R,1.1X0.6*%
%ADD38R,0.9X0.8*%
%ADD39R,2.99999X1.0*%
%ADD40RoundRect,0.17002X-0.43569X0.46109X0.43569X0.46109*%
%ADD41R,0.8X1.0*%
%ADD42R,0.532X1.07201*%
%ADD43R,1.9X1.3*%
%ADD44R,0.889X0.889*%
%ADD45R,0.889X0.889*%
%ADD46R,0.889X0.889*%
%ADD47R,0.889X0.889*%
%ADD48R,1.50002X3.19999*%
%ADD49R,1.50002X3.19999*%
%ADD50R,2.99999X1.0*%
%ADD51R,0.6X0.4*%
%ADD52R,0.6X0.4*%
%ADD53R,1.0X0.89992*%
%ADD54R,0.89992X1.0*%
%ADD55R,2.0X2.0*%
%ADD56R,1.0X0.89992*%
%ADD57R,5.99999X2.99999*%
%ADD58R,2.0X1.2*%
%ADD59R,5.8X5.8*%
%ADD60R,1.10002X1.0*%
%ADD61O,1.55001X0.7*%
%ADD62O,0.3X2.0*%
%ADD63O,2.0X0.3*%
%ADD64R,10.0X10.3*%
%ADD65R,1.05X2.7*%
%ADD66R,2.0X3.6*%
%ADD67R,1.6X1.1*%
%ADD68R,1.6X1.1*%
%ADD69R,1.5X3.0*%
%ADD70R,2.50002X1.0*%
%ADD71R,2.49999X1.0*%
%ADD72R,0.49022X0.98552*%
%ADD73R,0.49022X0.98552*%
%ADD74R,1.1X0.6*%
G75*


G04 PolygonModel Start*
G36*
G01X2772031Y5726390D02*
G01X2772031Y5653726D01*
G01X2762031Y5643726D01*
G01X2738424Y5643726D01*
G01X2728424Y5633726D01*
G01X2728424Y5558252D01*
G01X2738424Y5548252D01*
G01X2762031Y5548252D01*
G01X2772031Y5538252D01*
G01X2772031Y5465588D01*
G01X2762031Y5455588D01*
G01X2653779Y5455588D01*
G01X2643779Y5465588D01*
G01X2643779Y5726390D01*
G01X2653779Y5736390D01*
G01X2762031Y5736390D01*
G01X2772031Y5726390D01*
G37*
G36*
G01X2932030Y5726390D02*
G01X2932030Y5653726D01*
G01X2942030Y5643726D01*
G01X2965637Y5643726D01*
G01X2975637Y5633726D01*
G01X2975637Y5558252D01*
G01X2965637Y5548252D01*
G01X2942030Y5548252D01*
G01X2932030Y5538252D01*
G01X2932030Y5465588D01*
G01X2942030Y5455588D01*
G01X3050283Y5455588D01*
G01X3060283Y5465588D01*
G01X3060283Y5726390D01*
G01X3050283Y5736390D01*
G01X2942030Y5736390D01*
G01X2932030Y5726390D01*
G37*
G36*
G01X6360024Y7148584D02*
G01X6360024Y7221249D01*
G01X6370024Y7231249D01*
G01X6393630Y7231249D01*
G01X6403630Y7241249D01*
G01X6403630Y7316722D01*
G01X6393630Y7326722D01*
G01X6370024Y7326722D01*
G01X6360024Y7336722D01*
G01X6360024Y7409387D01*
G01X6370024Y7419386D01*
G01X6478276Y7419386D01*
G01X6488276Y7409387D01*
G01X6488276Y7148584D01*
G01X6478276Y7138584D01*
G01X6370024Y7138584D01*
G01X6360024Y7148584D01*
G37*
G36*
G01X6200024Y7148584D02*
G01X6200024Y7221249D01*
G01X6190024Y7231249D01*
G01X6166417Y7231249D01*
G01X6156417Y7241249D01*
G01X6156417Y7316722D01*
G01X6166417Y7326722D01*
G01X6190024Y7326722D01*
G01X6200024Y7336722D01*
G01X6200024Y7409387D01*
G01X6190024Y7419386D01*
G01X6081772Y7419386D01*
G01X6071772Y7409387D01*
G01X6071772Y7148584D01*
G01X6081772Y7138584D01*
G01X6190024Y7138584D01*
G01X6200024Y7148584D01*
G37*
G36*
G01X2766031Y6108389D02*
G01X2766031Y6035725D01*
G01X2756031Y6025725D01*
G01X2732424Y6025725D01*
G01X2722424Y6015725D01*
G01X2722424Y5940251D01*
G01X2732424Y5930251D01*
G01X2756031Y5930251D01*
G01X2766031Y5920251D01*
G01X2766031Y5847587D01*
G01X2756031Y5837587D01*
G01X2647779Y5837587D01*
G01X2637779Y5847587D01*
G01X2637779Y6108389D01*
G01X2647779Y6118389D01*
G01X2756031Y6118389D01*
G01X2766031Y6108389D01*
G37*
G36*
G01X2926030Y6108389D02*
G01X2926030Y6035725D01*
G01X2936030Y6025725D01*
G01X2959637Y6025725D01*
G01X2969637Y6015725D01*
G01X2969637Y5940251D01*
G01X2959637Y5930251D01*
G01X2936030Y5930251D01*
G01X2926030Y5920251D01*
G01X2926030Y5847587D01*
G01X2936030Y5837587D01*
G01X3044283Y5837587D01*
G01X3054283Y5847587D01*
G01X3054283Y6108389D01*
G01X3044283Y6118389D01*
G01X2936030Y6118389D01*
G01X2926030Y6108389D01*
G37*
G36*
G01X3181031Y6480489D02*
G01X3181031Y6400489D01*
G01X3186032Y6395488D01*
G01X3208829Y6395488D01*
G01X3208829Y6432488D01*
G01X3241829Y6432488D01*
G01X3241829Y6395488D01*
G01X3266032Y6395488D01*
G01X3271031Y6400489D01*
G01X3271031Y6480489D01*
G01X3266032Y6485488D01*
G01X3186032Y6485488D01*
G01X3181031Y6480489D01*
G37*
G36*
G01X3186032Y6325488D02*
G01X3208829Y6325488D01*
G01X3208829Y6287490D01*
G01X3241829Y6287490D01*
G01X3241829Y6325488D01*
G01X3266032Y6325488D01*
G01X3271031Y6320490D01*
G01X3271031Y6241490D01*
G01X3266032Y6236489D01*
G01X3186032Y6236489D01*
G01X3181031Y6241490D01*
G01X3181031Y6320490D01*
G01X3186032Y6325488D01*
G37*
G36*
G01X10638016Y3130496D02*
G01X10510017Y3130496D01*
G01X10505016Y3135497D01*
G01X10505016Y3250498D01*
G01X10510017Y3255497D01*
G01X10551021Y3256000D01*
G01X10551021Y3210999D01*
G01X10596019Y3210999D01*
G01X10596019Y3254999D01*
G01X10638016Y3255497D01*
G01X10643017Y3250498D01*
G01X10643017Y3135497D01*
G01X10638016Y3130496D01*
G37*
G36*
G01X10510015Y3471491D02*
G01X10638013Y3471491D01*
G01X10643014Y3466490D01*
G01X10643014Y3351489D01*
G01X10638013Y3346490D01*
G01X10597010Y3345987D01*
G01X10597010Y3390988D01*
G01X10552011Y3390988D01*
G01X10552011Y3346988D01*
G01X10510015Y3346490D01*
G01X10505014Y3351489D01*
G01X10505014Y3466490D01*
G01X10510015Y3471491D01*
G37*
G36*
G01X9493519Y5227989D02*
G01X9493519Y5355987D01*
G01X9498521Y5360989D01*
G01X9613522Y5360989D01*
G01X9618521Y5355987D01*
G01X9619023Y5314984D01*
G01X9574022Y5314984D01*
G01X9574022Y5269985D01*
G01X9618023Y5269985D01*
G01X9618521Y5227989D01*
G01X9613522Y5222988D01*
G01X9498521Y5222988D01*
G01X9493519Y5227989D01*
G37*
G36*
G01X9834514Y5355990D02*
G01X9834514Y5227992D01*
G01X9829513Y5222990D01*
G01X9714512Y5222990D01*
G01X9709513Y5227992D01*
G01X9709011Y5268995D01*
G01X9754012Y5268995D01*
G01X9754012Y5313993D01*
G01X9710011Y5313993D01*
G01X9709513Y5355990D01*
G01X9714512Y5360991D01*
G01X9829513Y5360991D01*
G01X9834514Y5355990D01*
G37*
G36*
G01X11322013Y5026488D02*
G01X11450011Y5026488D01*
G01X11455013Y5021487D01*
G01X11455013Y4906485D01*
G01X11450011Y4901487D01*
G01X11409008Y4900984D01*
G01X11409008Y4945985D01*
G01X11364010Y4945985D01*
G01X11364010Y4901985D01*
G01X11322013Y4901487D01*
G01X11317012Y4906485D01*
G01X11317012Y5021487D01*
G01X11322013Y5026488D01*
G37*
G36*
G01X11450014Y4685493D02*
G01X11322016Y4685493D01*
G01X11317014Y4690494D01*
G01X11317014Y4805495D01*
G01X11322016Y4810494D01*
G01X11363019Y4810997D01*
G01X11363019Y4765996D01*
G01X11408018Y4765996D01*
G01X11408018Y4809996D01*
G01X11450014Y4810494D01*
G01X11455015Y4805495D01*
G01X11455015Y4690494D01*
G01X11450014Y4685493D01*
G37*
G36*
G01X10207979Y5573679D02*
G01X10207979Y5493679D01*
G01X10212981Y5488678D01*
G01X10235777Y5488678D01*
G01X10235777Y5525678D01*
G01X10268777Y5525678D01*
G01X10268777Y5488678D01*
G01X10292980Y5488678D01*
G01X10297979Y5493679D01*
G01X10297979Y5573679D01*
G01X10292980Y5578677D01*
G01X10212981Y5578677D01*
G01X10207979Y5573679D01*
G37*
G36*
G01X10212981Y5418678D02*
G01X10235777Y5418678D01*
G01X10235777Y5380679D01*
G01X10268777Y5380679D01*
G01X10268777Y5418678D01*
G01X10292980Y5418678D01*
G01X10297979Y5413679D01*
G01X10297979Y5334680D01*
G01X10292980Y5329679D01*
G01X10212981Y5329679D01*
G01X10207979Y5334680D01*
G01X10207979Y5413679D01*
G01X10212981Y5418678D01*
G37*
G36*
G01X10139875Y5334675D02*
G01X10139875Y5414675D01*
G01X10134873Y5419676D01*
G01X10112077Y5419676D01*
G01X10112077Y5382676D01*
G01X10079077Y5382676D01*
G01X10079077Y5419676D01*
G01X10054873Y5419676D01*
G01X10049875Y5414675D01*
G01X10049875Y5334675D01*
G01X10054873Y5329676D01*
G01X10134873Y5329676D01*
G01X10139875Y5334675D01*
G37*
G36*
G01X10134873Y5489676D02*
G01X10112077Y5489676D01*
G01X10112077Y5527674D01*
G01X10079077Y5527674D01*
G01X10079077Y5489676D01*
G01X10054873Y5489676D01*
G01X10049875Y5494675D01*
G01X10049875Y5573674D01*
G01X10054873Y5578675D01*
G01X10134873Y5578675D01*
G01X10139875Y5573674D01*
G01X10139875Y5494675D01*
G01X10134873Y5489676D01*
G37*
G36*
G01X16074506Y1975995D02*
G01X15994506Y1975995D01*
G01X15989505Y1970994D01*
G01X15989505Y1948197D01*
G01X16026505Y1948197D01*
G01X16026505Y1915197D01*
G01X15989505Y1915197D01*
G01X15989505Y1890994D01*
G01X15994506Y1885995D01*
G01X16074506Y1885995D01*
G01X16079505Y1890994D01*
G01X16079505Y1970994D01*
G01X16074506Y1975995D01*
G37*
G36*
G01X15919505Y1970994D02*
G01X15919505Y1948197D01*
G01X15881507Y1948197D01*
G01X15881507Y1915197D01*
G01X15919505Y1915197D01*
G01X15919505Y1890994D01*
G01X15914507Y1885995D01*
G01X15835508Y1885995D01*
G01X15830506Y1890994D01*
G01X15830506Y1970994D01*
G01X15835508Y1975995D01*
G01X15914507Y1975995D01*
G01X15919505Y1970994D01*
G37*
G36*
G01X8418900Y2627995D02*
G01X8418900Y2499997D01*
G01X8413898Y2494996D01*
G01X8298897Y2494996D01*
G01X8293899Y2499997D01*
G01X8293396Y2541000D01*
G01X8338397Y2541000D01*
G01X8338397Y2585999D01*
G01X8294396Y2585999D01*
G01X8293899Y2627995D01*
G01X8298897Y2632997D01*
G01X8413898Y2632997D01*
G01X8418900Y2627995D01*
G37*
G36*
G01X8077905Y2499994D02*
G01X8077905Y2627993D01*
G01X8082906Y2632994D01*
G01X8197907Y2632994D01*
G01X8202906Y2627993D01*
G01X8203409Y2586989D01*
G01X8158407Y2586989D01*
G01X8158407Y2541991D01*
G01X8202408Y2541991D01*
G01X8202906Y2499994D01*
G01X8197907Y2494993D01*
G01X8082906Y2494993D01*
G01X8077905Y2499994D01*
G37*
G36*
G01X7970449Y4033454D02*
G01X8098447Y4033454D01*
G01X8103448Y4028452D01*
G01X8103448Y3913451D01*
G01X8098447Y3908453D01*
G01X8057444Y3907950D01*
G01X8057444Y3952951D01*
G01X8012445Y3952951D01*
G01X8012445Y3908951D01*
G01X7970449Y3908453D01*
G01X7965448Y3913451D01*
G01X7965448Y4028452D01*
G01X7970449Y4033454D01*
G37*
G36*
G01X8098450Y3692459D02*
G01X7970451Y3692459D01*
G01X7965450Y3697460D01*
G01X7965450Y3812461D01*
G01X7970451Y3817460D01*
G01X8011455Y3817963D01*
G01X8011455Y3772961D01*
G01X8056453Y3772961D01*
G01X8056453Y3816962D01*
G01X8098450Y3817460D01*
G01X8103451Y3812461D01*
G01X8103451Y3697460D01*
G01X8098450Y3692459D01*
G37*
G36*
G01X13950010Y4297494D02*
G01X13950010Y4217494D01*
G01X13955011Y4212492D01*
G01X13977807Y4212492D01*
G01X13977807Y4249493D01*
G01X14010807Y4249493D01*
G01X14010807Y4212492D01*
G01X14035011Y4212492D01*
G01X14040010Y4217494D01*
G01X14040010Y4297494D01*
G01X14035011Y4302492D01*
G01X13955011Y4302492D01*
G01X13950010Y4297494D01*
G37*
G36*
G01X13955011Y4142493D02*
G01X13977807Y4142493D01*
G01X13977807Y4104494D01*
G01X14010807Y4104494D01*
G01X14010807Y4142493D01*
G01X14035011Y4142493D01*
G01X14040010Y4137494D01*
G01X14040010Y4058495D01*
G01X14035011Y4053494D01*
G01X13955011Y4053494D01*
G01X13950010Y4058495D01*
G01X13950010Y4137494D01*
G01X13955011Y4142493D01*
G37*
G36*
G01X10047899Y3149041D02*
G01X10047899Y3277039D01*
G01X10052900Y3282041D01*
G01X10167901Y3282041D01*
G01X10172900Y3277039D01*
G01X10173403Y3236036D01*
G01X10128402Y3236036D01*
G01X10128402Y3191038D01*
G01X10172402Y3191038D01*
G01X10172900Y3149041D01*
G01X10167901Y3144040D01*
G01X10052900Y3144040D01*
G01X10047899Y3149041D01*
G37*
G36*
G01X10388894Y3277042D02*
G01X10388894Y3149044D01*
G01X10383893Y3144042D01*
G01X10268892Y3144042D01*
G01X10263893Y3149044D01*
G01X10263390Y3190047D01*
G01X10308391Y3190047D01*
G01X10308391Y3235046D01*
G01X10264391Y3235046D01*
G01X10263893Y3277042D01*
G01X10268892Y3282043D01*
G01X10383893Y3282043D01*
G01X10388894Y3277042D01*
G37*

G04 Pad Start*
G54D10*
G01X15274947Y3169347D03*
G01X15114947Y3169347D03*
G54D11*
G01X15109500Y2964930D03*
G01X14919508Y2964930D03*
G01X15014504Y2744661D03*
G54D12*
G01X7387019Y4807319D03*
G54D13*
G01X7727023Y3770669D03*
G01X7557021Y3770669D03*
G01X7387019Y3770669D03*
G01X7217017Y3770669D03*
G01X7047015Y3770669D03*
G54D14*
G01X7820026Y3072994D03*
G01X7140017Y3072994D03*
G54D15*
G01X4812022Y3796772D03*
G01X4982024Y3796772D03*
G01X5152026Y3796772D03*
G01X5322028Y3796772D03*
G01X5492030Y3796772D03*
G54D16*
G01X5152026Y4822069D03*
G54D18*
G01X733870Y5349969D03*
G01X893870Y5349969D03*
G54D19*
G01X514668Y5351671D03*
G01X344668Y5351671D03*
G54D20*
G01X1828788Y5924482D03*
G54D21*
G01X1828788Y6611479D03*
G54D22*
G01X2691031Y6790986D03*
G01X2271031Y6790986D03*
G54D23*
G01X4889027Y5595988D03*
G01X4889027Y6015988D03*
G54D18*
G01X6230622Y6984197D03*
G01X6390622Y6984197D03*
G54D23*
G01X7223539Y5662382D03*
G01X7223539Y6082382D03*
G54D24*
G01X14871506Y6003429D03*
G01X14998506Y6003429D03*
G01X15125506Y6003429D03*
G01X15252506Y6003429D03*
G01X15379506Y6003429D03*
G01X15506506Y6003429D03*
G01X15633506Y6003429D03*
G01X15760506Y6003429D03*
G01X14871506Y6550545D03*
G01X14998506Y6550545D03*
G01X15125506Y6550545D03*
G01X15252506Y6550545D03*
G01X15379506Y6550545D03*
G01X15506506Y6550545D03*
G01X15633506Y6550545D03*
G01X15760506Y6550545D03*
G54D25*
G01X4192028Y4376991D03*
G01X4192028Y3816992D03*
G54D26*
G01X3228030Y5918983D03*
G01X3228030Y6078983D03*
G54D27*
G01X3562029Y5944988D03*
G01X3662029Y5704988D03*
G01X3462029Y5704988D03*
G54D28*
G01X4317028Y3313993D03*
G01X4117028Y3313993D03*
G54D29*
G01X4117028Y3032327D03*
G01X4317028Y3032327D03*
G54D30*
G01X6011024Y2695995D03*
G01X4811027Y2695995D03*
G54D31*
G01X6618023Y2114996D03*
G01X6618023Y2674995D03*
G54D25*
G01X6329024Y4376991D03*
G01X6329024Y3816992D03*
G54D32*
G01X6616021Y3446993D03*
G01X6756025Y3446993D03*
G01X6616021Y3232764D03*
G01X6756025Y3232764D03*
G54D33*
G01X6757575Y3017994D03*
G01X6617570Y3017994D03*
G54D10*
G01X6343029Y4706991D03*
G01X6183029Y4706991D03*
G01X6343029Y5162990D03*
G01X6183029Y5162990D03*
G01X6343029Y4934990D03*
G01X6183029Y4934990D03*
G54D22*
G01X5241026Y1813996D03*
G01X4821026Y1813996D03*
G01X7587022Y2454995D03*
G01X7167021Y2454995D03*
G54D33*
G01X9777019Y5519989D03*
G01X9637015Y5519989D03*
G54D34*
G01X10510005Y6156481D03*
G01X10510005Y6029481D03*
G01X10510005Y5902481D03*
G01X10510005Y5775481D03*
G01X10510005Y5648481D03*
G01X10510005Y5521481D03*
G01X10510005Y5394481D03*
G01X11056765Y6156481D03*
G01X11056765Y6029481D03*
G01X11056765Y5902481D03*
G01X11056765Y5775481D03*
G01X11056765Y5648481D03*
G01X11056765Y5521481D03*
G01X11056765Y5394481D03*
G54D35*
G01X10178314Y5773683D03*
G01X10178314Y5900683D03*
G01X10178314Y6027683D03*
G01X10178314Y6154683D03*
G01X9623832Y5773683D03*
G01X9623832Y5900683D03*
G01X9623832Y6027683D03*
G01X9623832Y6154683D03*
G54D36*
G01X8682158Y5938683D03*
G01X8778678Y6195223D03*
G01X8870118Y5938683D03*
G54D10*
G01X9358870Y6377289D03*
G01X9198871Y6377289D03*
G54D37*
G01X9087865Y5966085D03*
G01X9087865Y6156085D03*
G01X9367865Y6156085D03*
G01X9367865Y6061085D03*
G01X9367865Y5966085D03*
G54D26*
G01X9105463Y5496573D03*
G01X9105463Y5656573D03*
G54D38*
G01X9344018Y5770991D03*
G01X9344018Y5630986D03*
G54D24*
G01X16789504Y1645555D03*
G01X16662504Y1645555D03*
G01X16535504Y1645555D03*
G01X16408504Y1645555D03*
G01X16281504Y1645555D03*
G01X16154504Y1645555D03*
G01X16027504Y1645555D03*
G01X15900504Y1645555D03*
G01X16789504Y1098439D03*
G01X16662504Y1098439D03*
G01X16535504Y1098439D03*
G01X16408504Y1098439D03*
G01X16281504Y1098439D03*
G01X16154504Y1098439D03*
G01X16027504Y1098439D03*
G01X15900504Y1098439D03*
G54D38*
G01X10780015Y3364996D03*
G01X10780015Y3224991D03*
G54D39*
G01X8738019Y3080994D03*
G01X8178020Y3080994D03*
G54D40*
G01X6580930Y6055985D03*
G01X6484410Y5799445D03*
G01X6392970Y6055985D03*
G54D23*
G01X4000297Y5585881D03*
G01X4000297Y6005881D03*
G54D26*
G01X8840260Y5328271D03*
G01X8840260Y5488271D03*
G54D41*
G01X15032859Y3383745D03*
G01X14932859Y3623745D03*
G01X15132859Y3623745D03*
G54D10*
G01X15123064Y3860750D03*
G01X14963064Y3860750D03*
G01X15448508Y4190793D03*
G01X15288508Y4190793D03*
G54D42*
G01X16917978Y2619042D03*
G01X16822982Y2619042D03*
G01X16727986Y2619042D03*
G01X16727986Y2389223D03*
G01X16822982Y2389223D03*
G01X16917978Y2389223D03*
G54D43*
G01X12433022Y1488991D03*
G01X13273000Y1488991D03*
G01X12433022Y1039004D03*
G01X13273000Y1039004D03*
G54D24*
G01X13204509Y6003429D03*
G01X13331509Y6003429D03*
G01X13458509Y6003429D03*
G01X13585509Y6003429D03*
G01X13712509Y6003429D03*
G01X13839509Y6003429D03*
G01X13966509Y6003429D03*
G01X14093509Y6003429D03*
G01X13204509Y6550545D03*
G01X13331509Y6550545D03*
G01X13458509Y6550545D03*
G01X13585509Y6550545D03*
G01X13712509Y6550545D03*
G01X13839509Y6550545D03*
G01X13966509Y6550545D03*
G01X14093509Y6550545D03*
G01X11663512Y6003429D03*
G01X11790512Y6003429D03*
G01X11917512Y6003429D03*
G01X12044512Y6003429D03*
G01X12171512Y6003429D03*
G01X12298512Y6003429D03*
G01X12425512Y6003429D03*
G01X12552512Y6003429D03*
G01X11663512Y6550545D03*
G01X11790512Y6550545D03*
G01X11917512Y6550545D03*
G01X12044512Y6550545D03*
G01X12171512Y6550545D03*
G01X12298512Y6550545D03*
G01X12425512Y6550545D03*
G01X12552512Y6550545D03*
G54D10*
G01X15448349Y2950044D03*
G01X15288349Y2950044D03*
G54D44*
G01X15311274Y3505952D03*
G01X15466214Y3505952D03*
G54D45*
G01X14768707Y4529521D03*
G01X14768707Y4684461D03*
G54D46*
G01X14766007Y3703522D03*
G01X14766007Y3858462D03*
G54D47*
G01X13142540Y5333989D03*
G01X13297480Y5333989D03*
G54D45*
G01X12318505Y5351206D03*
G01X12318505Y5506146D03*
G54D44*
G01X13299806Y3269142D03*
G01X13144866Y3269142D03*
G54D47*
G01X16177774Y2647795D03*
G01X16022834Y2647795D03*
G54D44*
G01X15641835Y2647795D03*
G01X15796775Y2647795D03*
G01X16628211Y1948225D03*
G01X16783151Y1948225D03*
G54D45*
G01X14005008Y4451521D03*
G01X14005008Y4606461D03*
G54D29*
G01X16405659Y813117D03*
G01X16605659Y813117D03*
G54D45*
G01X12952010Y5847518D03*
G01X12952010Y6002458D03*
G01X11411014Y5847518D03*
G01X11411014Y6002458D03*
G01X11423013Y6556517D03*
G01X11423013Y6711457D03*
G01X12987010Y6556517D03*
G01X12987010Y6711457D03*
G01X14635007Y5847518D03*
G01X14635007Y6002458D03*
G54D48*
G01X1978336Y5568067D03*
G01X1978336Y4668068D03*
G54D47*
G01X10711015Y5204274D03*
G01X10865955Y5204274D03*
G54D45*
G01X14625007Y6556517D03*
G01X14625007Y6711457D03*
G54D49*
G01X1961322Y3343792D03*
G01X1961322Y4243790D03*
G54D48*
G01X1454744Y2745196D03*
G01X1454744Y1845197D03*
G54D44*
G01X4723537Y6525191D03*
G01X4878477Y6525191D03*
G54D39*
G01X4356797Y6565991D03*
G01X3796799Y6565991D03*
G01X5736025Y6580987D03*
G01X5176026Y6580987D03*
G54D28*
G01X4317028Y2468995D03*
G01X4117028Y2468995D03*
G54D50*
G01X2764740Y1275017D03*
G01X3324739Y1275017D03*
G54D29*
G01X4117028Y2750661D03*
G01X4317028Y2750661D03*
G54D44*
G01X7395972Y6851595D03*
G01X7550912Y6851595D03*
G54D39*
G01X8313020Y6599987D03*
G01X7753021Y6599987D03*
G54D44*
G01X16540390Y6183486D03*
G01X16695330Y6183486D03*
G54D39*
G01X11091014Y4034992D03*
G01X10531015Y4034992D03*
G54D45*
G01X11789217Y3994321D03*
G01X11789217Y3839381D03*
G54D44*
G01X16637292Y5153273D03*
G01X16792232Y5153273D03*
G54D51*
G01X6343854Y851711D03*
G54D52*
G01X6493841Y851711D03*
G54D51*
G01X7272066Y851711D03*
G54D52*
G01X7422053Y851711D03*
G01X8503267Y831311D03*
G54D51*
G01X8353280Y831311D03*
G54D52*
G01X9431479Y841511D03*
G54D51*
G01X9281492Y841511D03*
G54D22*
G01X16442501Y3804794D03*
G01X16022501Y3804794D03*
G54D53*
G01X16464203Y4145395D03*
G01X16464203Y4315395D03*
G54D51*
G01X9959801Y841511D03*
G54D52*
G01X10109788Y841511D03*
G54D51*
G01X11821325Y836411D03*
G54D52*
G01X11971312Y836411D03*
G54D51*
G01X13682849Y841511D03*
G54D52*
G01X13832836Y841511D03*
G54D51*
G01X12761017Y839998D03*
G54D52*
G01X12911004Y839998D03*
G54D51*
G01X10893113Y836411D03*
G54D52*
G01X11043100Y836411D03*
G54D51*
G01X14605961Y831311D03*
G54D52*
G01X14755948Y831311D03*
G54D54*
G01X12108825Y3053238D03*
G01X12278824Y3053238D03*
G54D23*
G01X15986571Y5323572D03*
G01X15986571Y5743572D03*
G54D55*
G01X782035Y3652993D03*
G01X782035Y3232993D03*
G01X1140034Y3656993D03*
G01X1140034Y3236993D03*
G54D56*
G01X725472Y2414028D03*
G01X725472Y2244028D03*
G54D23*
G01X2220032Y2280995D03*
G01X2220032Y2700995D03*
G54D54*
G01X4717710Y6895794D03*
G01X4887710Y6895794D03*
G01X7207661Y6429481D03*
G01X7377661Y6429481D03*
G54D56*
G01X11303009Y2720032D03*
G01X11303009Y2550032D03*
G54D22*
G01X16140502Y4234793D03*
G01X15720502Y4234793D03*
G54D51*
G01X15842312Y836411D03*
G54D52*
G01X15992299Y836411D03*
G54D57*
G01X3072030Y1843996D03*
G01X3072030Y3043994D03*
G54D27*
G01X16005004Y5093990D03*
G01X16105004Y4853990D03*
G01X15905004Y4853990D03*
G54D58*
G01X5198261Y6061119D03*
G01X5198261Y5601119D03*
G54D59*
G01X5868261Y5831119D03*
G54D58*
G01X7568674Y6081942D03*
G01X7568674Y5621942D03*
G54D59*
G01X8238674Y5851942D03*
G54D10*
G01X8289405Y2302995D03*
G01X8129426Y2302995D03*
G01X8289405Y2051171D03*
G01X8129426Y2051171D03*
G01X8289405Y1799346D03*
G01X8129426Y1799346D03*
G01X8289405Y1547522D03*
G01X8129426Y1547522D03*
G54D18*
G01X10139031Y3435993D03*
G01X10299011Y3435993D03*
G01X10139031Y2909994D03*
G01X10299011Y2909994D03*
G01X10139031Y2383995D03*
G01X10299011Y2383995D03*
G01X10139031Y1894996D03*
G01X10299011Y1894996D03*
G54D26*
G01X15061488Y4187793D03*
G01X15061488Y4347772D03*
G54D18*
G01X15290518Y4395793D03*
G01X15450498Y4395793D03*
G54D10*
G01X8292105Y1292997D03*
G01X8132126Y1292997D03*
G54D60*
G01X11286014Y1280982D03*
G01X11286014Y1121003D03*
G54D26*
G01X13579340Y1450035D03*
G01X13579340Y1610015D03*
G54D18*
G01X16263591Y4513558D03*
G01X16423571Y4513558D03*
G01X10139031Y1563997D03*
G01X10299011Y1563997D03*
G54D10*
G01X12139505Y1550420D03*
G01X11979526Y1550420D03*
G54D18*
G01X14034862Y1550420D03*
G01X14194842Y1550420D03*
G54D60*
G01X12289023Y2053710D03*
G01X12289023Y1893731D03*
G01X10205016Y1285982D03*
G01X10205016Y1126003D03*
G01X13380438Y2053710D03*
G01X13380438Y1893731D03*
G54D10*
G01X12930015Y2274629D03*
G01X12770036Y2274629D03*
G54D18*
G01X15461823Y1553398D03*
G01X15621802Y1553398D03*
G01X15463623Y1751529D03*
G01X15623602Y1751529D03*
G01X12974049Y3070240D03*
G01X13134028Y3070240D03*
G54D26*
G01X13809009Y4446006D03*
G01X13809009Y4605986D03*
G54D10*
G01X11083791Y1550420D03*
G01X10923812Y1550420D03*
G01X14220332Y2274629D03*
G01X14060353Y2274629D03*
G01X15625331Y1165021D03*
G01X15465352Y1165021D03*
G01X15624431Y1358824D03*
G01X15464452Y1358824D03*
G54D60*
G01X12757011Y5992973D03*
G01X12757011Y5832993D03*
G01X12522507Y5513761D03*
G01X12522507Y5353782D03*
G54D18*
G01X11943835Y2845837D03*
G01X12103815Y2845837D03*
G01X15509021Y4627991D03*
G01X15669000Y4627991D03*
G54D26*
G01X11685013Y4883005D03*
G01X11685013Y5042985D03*
G54D10*
G01X16080989Y4638991D03*
G01X15921010Y4638991D03*
G54D26*
G01X14682007Y4957005D03*
G01X14682007Y5116985D03*
G54D60*
G01X727174Y2783020D03*
G01X727174Y2623040D03*
G54D18*
G01X6230642Y6795494D03*
G01X6390622Y6795494D03*
G54D10*
G01X6742516Y6290588D03*
G01X6582537Y6290588D03*
G54D18*
G01X6327723Y5625207D03*
G01X6487702Y5625207D03*
G01X4721023Y6713893D03*
G01X4881002Y6713893D03*
G54D10*
G01X4968812Y6257781D03*
G01X4808833Y6257781D03*
G01X3779014Y3388993D03*
G01X3619034Y3388993D03*
G01X3409014Y3387993D03*
G01X3249035Y3387993D03*
G54D60*
G01X4597005Y5886066D03*
G01X4597005Y5726087D03*
G54D10*
G01X8864144Y5744881D03*
G01X8704164Y5744881D03*
G54D18*
G01X8683774Y6372189D03*
G01X8843753Y6372189D03*
G01X7210974Y6630086D03*
G01X7370954Y6630086D03*
G54D10*
G01X8848843Y6596592D03*
G01X8688864Y6596592D03*
G54D60*
G01X6911023Y6076973D03*
G01X6911023Y5916993D03*
G01X16403658Y5931967D03*
G01X16403658Y5771987D03*
G54D26*
G01X11304711Y2913754D03*
G01X11304711Y3073734D03*
G54D60*
G01X16413858Y4896653D03*
G01X16413858Y4736674D03*
G54D18*
G01X14902022Y1564997D03*
G01X15062001Y1564997D03*
G54D10*
G01X14630992Y1549997D03*
G01X14471012Y1549997D03*
G54D61*
G01X9908006Y3437993D03*
G01X9908006Y3183993D03*
G01X9268028Y3183993D03*
G01X9268028Y3437993D03*
G01X9908006Y2911495D03*
G01X9908006Y2657495D03*
G01X9268028Y2657495D03*
G01X9268028Y2911495D03*
G01X9908006Y2384995D03*
G01X9908006Y2130995D03*
G01X9268028Y2130995D03*
G01X9268028Y2384995D03*
G01X9908006Y1858497D03*
G01X9908006Y1604497D03*
G01X9268028Y1604497D03*
G01X9268028Y1858497D03*
G01X9908006Y1331998D03*
G01X9908006Y1077998D03*
G01X9268028Y1077998D03*
G01X9268028Y1331998D03*
G01X12139002Y1331998D03*
G01X12139002Y1077998D03*
G01X11499023Y1077998D03*
G01X11499023Y1331998D03*
G01X14234998Y1278998D03*
G01X14234998Y1024998D03*
G01X13595019Y1024998D03*
G01X13595019Y1278998D03*
G01X13172000Y2055996D03*
G01X13172000Y1801996D03*
G01X12532021Y1801996D03*
G01X12532021Y2055996D03*
G01X11084104Y1337098D03*
G01X11084104Y1083098D03*
G01X10444126Y1083098D03*
G01X10444126Y1337098D03*
G01X14230834Y2054825D03*
G01X14230834Y1800825D03*
G01X13590855Y1800825D03*
G01X13590855Y2054825D03*
G54D62*
G01X13162016Y3772012D03*
G01X13112004Y3772012D03*
G01X13062017Y3772012D03*
G01X13012004Y3772012D03*
G01X12962017Y3772012D03*
G01X12912004Y3772012D03*
G01X12862017Y3772012D03*
G01X12812004Y3772012D03*
G01X12762017Y3772012D03*
G01X12712005Y3772012D03*
G01X12662017Y3772012D03*
G01X12612005Y3772012D03*
G01X12562018Y3772012D03*
G01X12512005Y3772012D03*
G01X12462018Y3772012D03*
G01X12412005Y3772012D03*
G54D63*
G01X12212031Y3971986D03*
G01X12212031Y4021998D03*
G01X12212031Y4071986D03*
G01X12212031Y4121998D03*
G01X12212031Y4171985D03*
G01X12212031Y4221998D03*
G01X12212031Y4271985D03*
G01X12212031Y4321998D03*
G01X12212031Y4371985D03*
G01X12212031Y4421998D03*
G01X12212031Y4471985D03*
G01X12212031Y4521997D03*
G01X12212031Y4571985D03*
G01X12212031Y4621997D03*
G01X12212031Y4671984D03*
G01X12212031Y4721997D03*
G54D62*
G01X12412005Y4921971D03*
G01X12462018Y4921971D03*
G01X12512005Y4921971D03*
G01X12562018Y4921971D03*
G01X12612005Y4921971D03*
G01X12662017Y4921971D03*
G01X12712005Y4921971D03*
G01X12762017Y4921971D03*
G01X12812004Y4921971D03*
G01X12862017Y4921971D03*
G01X12912004Y4921971D03*
G01X12962017Y4921971D03*
G01X13012004Y4921971D03*
G01X13062017Y4921971D03*
G01X13112004Y4921971D03*
G01X13162016Y4921971D03*
G54D63*
G01X13361991Y4721997D03*
G01X13361991Y4671984D03*
G01X13361991Y4621997D03*
G01X13361991Y4571985D03*
G01X13361991Y4521997D03*
G01X13361991Y4471985D03*
G01X13361991Y4421998D03*
G01X13361991Y4371985D03*
G01X13361991Y4321998D03*
G01X13361991Y4271985D03*
G01X13361991Y4221998D03*
G01X13361991Y4171985D03*
G01X13361991Y4121998D03*
G01X13361991Y4071986D03*
G01X13361991Y4021998D03*
G01X13361991Y3971986D03*
G54D64*
G01X3219619Y4688519D03*
G54D65*
G01X3559619Y3783420D03*
G01X2879619Y3783420D03*
G01X3219619Y3783420D03*
G01X3389619Y3783420D03*
G01X3049619Y3783420D03*
G54D66*
G01X11080015Y4756990D03*
G54D67*
G01X10530015Y4526990D03*
G54D68*
G01X10530015Y4756991D03*
G54D67*
G01X10530015Y4986990D03*
G54D61*
G01X15133545Y1284715D03*
G01X15133545Y1030715D03*
G01X14493567Y1030715D03*
G01X14493567Y1284715D03*
G54D69*
G01X14376008Y4687992D03*
G01X14376008Y3687992D03*
G54D70*
G01X16187024Y2288995D03*
G54D71*
G01X15626986Y2288995D03*
G54D39*
G01X16224651Y3245848D03*
G01X15664652Y3245848D03*
G54D72*
G01X17284124Y6104338D03*
G01X17284124Y5880818D03*
G01X17273924Y4936422D03*
G01X17273924Y4712902D03*
G01X7813301Y1274575D03*
G01X7813301Y1051055D03*
G54D73*
G01X11317046Y3244083D03*
G01X11317046Y3467603D03*
G54D72*
G01X5253068Y1157274D03*
G01X5253068Y933754D03*
G54D74*
G01X15588100Y992611D03*
G01X15588100Y802612D03*
G01X15308100Y802612D03*
G01X15308100Y897611D03*
G01X15308100Y992611D03*
G04 Pad End*

M02*

