G04 Layer: DrillDrawingLayer*
G04 EasyEDA Pro v2.2.32.3, 2025-03-28 17:03:34*
G04 Gerber Generator version 0.3*
G04 Scale: 100 percent, Rotated: No, Reflected: No*
G04 Dimensions in millimeters*
G04 Leading zeros omitted, absolute positions, 3 integers and 5 decimals*
%FSLAX35Y35*%
%MOMM*%
%AMIconRect*4,1,4,0.2,-0.2,-0.2,-0.2,-0.2,0.2,0.2,0.2,0.2,-0.2,0*4,0,4,0.166667,-0.166667,0.166667,0.166667,-0.166667,0.166667,-0.166667,-0.166667,0.166667,-0.166667,0*%
%AMIconTriangle*4,1,3,-0.242567,0.171767,0.242567,0.171767,0,-0.2706,-0.242567,0.171767,0*4,0,3,-0.189767,0.1386,0,-0.1953,0.190167,0.1386,-0.189767,0.1386,0*%
%AMIconStar6*4,1,12,0.0862,0.1492,0.213233,0.123367,0.172367,0,0.213233,-0.1229,0.0862,-0.148733,0,-0.245767,-0.085767,-0.148733,-0.213267,-0.1229,-0.171933,0,-0.213267,0.1229,-0.085767,0.1492,0,0.245767,0.0862,0.1492,0*4,0,12,-0.000333,0.195333,-0.064333,0.122667,-0.169667,0.097667,-0.138333,-0.005333,-0.169667,-0.098,-0.064333,-0.122667,-0.000333,-0.195667,0.064333,-0.122667,0.169667,-0.098,0.138667,0.005,0.169667,0.098,0.064333,0.122333,-0.000333,0.195333,0*%
%AMIconStar4*4,1,8,-0.222667,0.222667,0,0.144667,0.222667,0.222667,0.144667,0,0.222667,-0.222667,0,-0.144667,-0.217433,-0.222667,-0.144667,0,-0.222667,0.222667,0*4,0,8,0.166667,-0.166667,0.108,0,0.166667,0.166667,0,0.108,-0.166667,0.166667,-0.108,0,-0.166667,-0.166667,0,-0.108,0.166667,-0.166667,0*%
%AMIconPlus*4,1,12,0.124,-0.2,-0.124,-0.2,-0.124,-0.124,-0.2,-0.124,-0.2,0.124,-0.124,0.124,-0.124,0.2,0.124,0.2,0.124,0.124,0.2,0.124,0.2,-0.124,0.124,-0.124,0.124,-0.2,0*4,0,12,0.090667,-0.166667,0.090667,-0.090667,0.166667,-0.090667,0.166667,0.090667,0.090667,0.090667,0.090667,0.166667,-0.090667,0.166667,-0.090667,0.090667,-0.166667,0.090667,-0.166667,-0.090667,-0.090667,-0.090667,-0.090667,-0.166667,0.090667,-0.166667,0*%
%AMIconX*4,1,16,0.2,-0.2,0.054533,-0.2,0,-0.145467,-0.054533,-0.2,-0.2,-0.2,-0.2,-0.054533,-0.145467,0,-0.2,0.054533,-0.2,0.2,-0.054533,0.2,0,0.145467,0.054533,0.2,0.2,0.2,0.2,0.054533,0.145467,0,0.2,-0.054533,0.2,-0.2,0*4,0,16,0.1668,-0.1664,0.1668,-0.068467,0.097933,0.000067,0.1668,0.068467,0.1668,0.1665,0.068467,0.1665,0,0.097933,-0.068467,0.1665,-0.1668,0.1665,-0.1668,0.068467,-0.097933,0.000067,-0.1668,-0.068467,-0.1668,-0.1664,-0.068467,-0.1664,0,-0.097933,0.068467,-0.1664,0.1668,-0.1664,0*%
%AMIconDiamond*4,1,4,0,-0.26,-0.26,0,0,0.26,0.26,0,0,-0.26,0*4,0,4,0,-0.203433,0.203433,0,0,0.2036,-0.203433,0,0,-0.203433,0*%
%ADD10IconRect*%
%ADD11C,0.44X0.373333*%
%ADD12IconTriangle*%
%ADD13IconStar6*%
%ADD14IconStar4*%
%ADD15IconPlus*%
%ADD16IconX*%
%ADD17IconDiamond*%
G75*


G04 Drill Drawing Start*
G54D10*
G01X17201288Y3095542D03*
G01X17201288Y4299543D03*
G54D11*
G01X1992019Y7321481D03*
G01X2246019Y7321481D03*
G01X2500019Y7320480D03*
G54D12*
G01X11381212Y4370757D03*
G01X11886118Y3575146D03*
G01X12156422Y3529246D03*
G01X12712329Y2626534D03*
G54D13*
G01X1020000Y5834382D03*
G01X1020000Y6334381D03*
G01X1020034Y4202994D03*
G01X1020034Y4702993D03*
G01X2840638Y650000D03*
G01X3340637Y650000D03*
G01X4082918Y650000D03*
G01X4582917Y650000D03*
G54D14*
G01X8488018Y4221992D03*
G01X8492018Y5038990D03*
G01X8742018Y4221992D03*
G01X8746018Y5038990D03*
G01X9250018Y4221992D03*
G01X9254018Y5038990D03*
G01X9758018Y4221992D03*
G01X9762018Y5038990D03*
G01X15274006Y4963990D03*
G01X15274006Y5463984D03*
G01X16730280Y3572542D03*
G01X16730280Y3822541D03*
G01X16930280Y3572542D03*
G01X16930280Y3822541D03*
G01X17573594Y1856766D03*
G01X17573594Y2110766D03*
G01X17573594Y2364766D03*
G01X17827594Y1602766D03*
G01X17827594Y1856766D03*
G01X17827594Y2110766D03*
G54D15*
G01X2165392Y347306D03*
G01X2165392Y601306D03*
G01X7230260Y1295417D03*
G01X7484260Y1295417D03*
G01X11433013Y5351989D03*
G01X11643013Y2122700D03*
G01X11643013Y2376700D03*
G01X11643013Y2630700D03*
G01X11643013Y2884700D03*
G01X11687013Y5351989D03*
G01X11941013Y5351989D03*
G01X14385151Y6314383D03*
G01X14385151Y6568383D03*
G01X15466502Y3817794D03*
G01X15720502Y3817794D03*
G01X16502180Y6859589D03*
G01X16565014Y240205D03*
G01X16565014Y494205D03*
G01X16756180Y6859589D03*
G01X17573594Y1602766D03*
G01X17827594Y2364766D03*
G54D16*
G01X3848298Y7384985D03*
G01X4102298Y7384985D03*
G01X4356298Y7384985D03*
G01X5164115Y7384985D03*
G01X5313025Y364498D03*
G01X5418115Y7384985D03*
G01X5567025Y364498D03*
G01X5672115Y7384985D03*
G01X6242324Y364498D03*
G01X6496324Y364498D03*
G01X6863055Y7384985D03*
G01X7117055Y7384985D03*
G01X7171622Y364498D03*
G01X7425622Y364498D03*
G01X7744749Y7384985D03*
G01X7998749Y7384985D03*
G01X8100920Y364498D03*
G01X8252749Y7384985D03*
G01X8354920Y364498D03*
G01X9030218Y364498D03*
G01X9182466Y7384985D03*
G01X9284218Y364498D03*
G01X9436466Y7384985D03*
G01X9959516Y364498D03*
G01X10213516Y364498D03*
G01X10284582Y7384985D03*
G01X10538582Y7384985D03*
G01X10792582Y7384985D03*
G01X10888814Y364498D03*
G01X11142814Y364498D03*
G01X11603411Y7390085D03*
G01X11818113Y364498D03*
G01X11857411Y7390085D03*
G01X12072113Y364498D03*
G01X12111411Y7390085D03*
G01X12365411Y7390085D03*
G01X12747411Y364498D03*
G01X12946109Y7384985D03*
G01X13001411Y364498D03*
G01X13200109Y7384985D03*
G01X13454109Y7384985D03*
G01X13676709Y364498D03*
G01X13708109Y7384985D03*
G01X13930709Y364498D03*
G01X14288807Y7390085D03*
G01X14542807Y7390085D03*
G01X14606007Y364498D03*
G01X14796807Y7390085D03*
G01X14860007Y364498D03*
G01X15050807Y7390085D03*
G01X15520399Y374700D03*
G01X15631505Y7384985D03*
G01X15774399Y374700D03*
G01X15885505Y7384985D03*
G01X16028399Y374700D03*
G01X16139505Y7384985D03*
G01X16393505Y7384985D03*
G01X17795976Y4652190D03*
G01X17795976Y4906190D03*
G01X17795976Y5160190D03*
G01X17795976Y5781584D03*
G01X17795976Y6035584D03*
G01X17795976Y6289584D03*
G54D17*
G01X130466Y3600647D03*
G01X140624Y3411204D03*
G01X140666Y3233442D03*
G01X212067Y1785023D03*
G01X212067Y4431957D03*
G01X212067Y4542459D03*
G01X212067Y4652960D03*
G01X212067Y4763462D03*
G01X240968Y3600647D03*
G01X251125Y3411204D03*
G01X251168Y3233442D03*
G01X288568Y4080053D03*
G01X288568Y4190554D03*
G01X288568Y4301056D03*
G01X288568Y4411557D03*
G01X322569Y1785023D03*
G01X351469Y3600647D03*
G01X361627Y3411204D03*
G01X361669Y3233442D03*
G01X433070Y1785023D03*
G01X461970Y3600647D03*
G01X472128Y3411204D03*
G01X472171Y3233442D03*
G01X543571Y1785023D03*
G01X645573Y1688122D03*
G01X756074Y1688122D03*
G01X866576Y1688122D03*
G01X977077Y1688122D03*
G01X1201480Y1693222D03*
G01X1328982Y158102D03*
G01X1349382Y306004D03*
G01X1349382Y453906D03*
G01X1390182Y4243255D03*
G01X1395282Y4003552D03*
G01X1405483Y4360556D03*
G01X1416184Y641176D03*
G01X1439483Y158102D03*
G01X1451885Y885979D03*
G01X1459883Y306004D03*
G01X1459883Y453906D03*
G01X1481984Y1076114D03*
G01X1500684Y4243255D03*
G01X1504425Y4017132D03*
G01X1515984Y4360556D03*
G01X1543184Y4141254D03*
G01X1549984Y158102D03*
G01X1562386Y885979D03*
G01X1570385Y306004D03*
G01X1570385Y453906D03*
G01X1573785Y652808D03*
G01X1592485Y1076114D03*
G01X1611185Y4243255D03*
G01X1626485Y4360556D03*
G01X1660486Y158102D03*
G01X1672888Y885979D03*
G01X1680886Y306004D03*
G01X1680886Y453906D03*
G01X1702986Y1076114D03*
G01X1721687Y1698322D03*
G01X1721687Y4243255D03*
G01X1736987Y4360556D03*
G01X1895089Y831311D03*
G01X1930789Y137702D03*
G01X1981790Y1754423D03*
G01X2001168Y1892299D03*
G01X2002190Y2029826D03*
G01X2005590Y831311D03*
G01X2041291Y137702D03*
G01X2092291Y1754423D03*
G01X2111670Y1892299D03*
G01X2112692Y2029826D03*
G01X2116092Y831311D03*
G01X2151792Y137702D03*
G01X2202793Y1815623D03*
G01X2222171Y1892299D03*
G01X2223193Y2029826D03*
G01X2226593Y831311D03*
G01X2252094Y4380957D03*
G01X2259704Y4247021D03*
G01X2262294Y137702D03*
G01X2302104Y4098791D03*
G01X2313294Y1754423D03*
G01X2332673Y1892299D03*
G01X2333695Y2029826D03*
G01X2362595Y4380957D03*
G01X2370206Y4247021D03*
G01X2370726Y3995852D03*
G01X2443596Y4129775D03*
G01X2473096Y4380957D03*
G01X2480707Y4247021D03*
G01X2512197Y4023952D03*
G01X2558098Y4125953D03*
G01X2583598Y4380957D03*
G01X2591208Y4247021D03*
G01X2644799Y4493158D03*
G01X2653483Y4598986D03*
G01X2665199Y4773662D03*
G01X2670299Y5049065D03*
G01X2680499Y4916464D03*
G01X2920202Y6524684D03*
G01X2920202Y6635186D03*
G01X2928547Y6750330D03*
G01X2928547Y6860831D03*
G01X2928547Y6971333D03*
G01X2928547Y7081834D03*
G01X2963414Y5366148D03*
G01X2976303Y6349582D03*
G01X2976303Y6460084D03*
G01X3022204Y4625760D03*
G01X3032404Y4788962D03*
G01X3047704Y4967464D03*
G01X3052804Y5100066D03*
G01X3055189Y5339769D03*
G01X3132705Y4625760D03*
G01X3142905Y4788962D03*
G01X3154805Y7604198D03*
G01X3158205Y4967464D03*
G01X3163305Y5100066D03*
G01X3170105Y5457071D03*
G01X3180306Y7497097D03*
G01X3195606Y5339769D03*
G01X3236406Y5667873D03*
G01X3243206Y4625760D03*
G01X3253406Y4788962D03*
G01X3265307Y7604198D03*
G01X3268707Y4967464D03*
G01X3273807Y5100066D03*
G01X3280607Y5457071D03*
G01X3290807Y7497097D03*
G01X3306107Y5339769D03*
G01X3348608Y5564172D03*
G01X3353708Y4625760D03*
G01X3363908Y4788962D03*
G01X3375808Y7604198D03*
G01X3379208Y4967464D03*
G01X3384308Y5100066D03*
G01X3391108Y5457071D03*
G01X3401308Y7497097D03*
G01X3416609Y5339769D03*
G01X3435309Y5536972D03*
G01X3460809Y5416270D03*
G01X3486310Y7604198D03*
G01X3511810Y7497097D03*
G01X3527110Y5339769D03*
G01X3547510Y5426470D03*
G01X3624238Y3596319D03*
G01X3634211Y5349969D03*
G01X3715812Y3748549D03*
G01X3751513Y3661847D03*
G01X3787896Y6446483D03*
G01X3822914Y6410783D03*
G01X3843996Y6461784D03*
G01X3879697Y6420983D03*
G01X4025850Y3784869D03*
G01X4047999Y3733248D03*
G01X4078373Y3799015D03*
G01X4103417Y3733248D03*
G01X4200319Y6002778D03*
G01X4220719Y4584959D03*
G01X4317620Y5349969D03*
G01X4329427Y6260842D03*
G01X4329427Y6375083D03*
G01X4331220Y4584959D03*
G01X4439928Y6260842D03*
G01X4439928Y6375083D03*
G01X4441722Y4584959D03*
G01X4550430Y6260842D03*
G01X4550430Y6375083D03*
G01X4552223Y4584959D03*
G01X4660931Y6260842D03*
G01X4660931Y6375083D03*
G01X4970429Y6390383D03*
G01X4979510Y6895794D03*
G01X5001029Y4799162D03*
G01X5001029Y4977664D03*
G01X5006129Y5140867D03*
G01X5011229Y4625760D03*
G01X5111531Y4799162D03*
G01X5111531Y4977664D03*
G01X5116631Y5140867D03*
G01X5121731Y4625760D03*
G01X5139413Y6410783D03*
G01X5190414Y6451583D03*
G01X5222032Y4799162D03*
G01X5222032Y4977664D03*
G01X5227132Y5140867D03*
G01X5232232Y4625760D03*
G01X5332533Y4799162D03*
G01X5332533Y4977664D03*
G01X5337633Y5140867D03*
G01X5342734Y4625760D03*
G01X5658938Y3738348D03*
G01X5669138Y963912D03*
G01X5669138Y3590446D03*
G01X5673119Y6895794D03*
G01X5684438Y1086314D03*
G01X5684438Y3886250D03*
G01X5684438Y4039252D03*
G01X5730339Y3549646D03*
G01X5760939Y5191867D03*
G01X5771139Y3437444D03*
G01X5776239Y4936864D03*
G01X5779639Y963912D03*
G01X5786439Y1224016D03*
G01X5794939Y1086314D03*
G01X5796639Y5110266D03*
G01X5827240Y3651647D03*
G01X5827240Y3901550D03*
G01X5827240Y4012052D03*
G01X5827240Y4122553D03*
G01X5827240Y4233055D03*
G01X5832340Y4447258D03*
G01X5832340Y4557759D03*
G01X5832340Y4668260D03*
G01X5832340Y4778762D03*
G01X5840840Y3549646D03*
G01X5852740Y5013365D03*
G01X5881641Y3437444D03*
G01X5890141Y963912D03*
G01X5896941Y1224016D03*
G01X5905441Y1086314D03*
G01X5934341Y1371918D03*
G01X5951341Y3549646D03*
G01X5992142Y3437444D03*
G01X6000642Y963912D03*
G01X6007442Y1224016D03*
G01X6015942Y1086314D03*
G01X6031242Y4278955D03*
G01X6044843Y1371918D03*
G01X6061843Y1479019D03*
G01X6061843Y3549646D03*
G01X6102643Y3437444D03*
G01X6102643Y4508458D03*
G01X6106624Y6984197D03*
G01X6107743Y4370757D03*
G01X6117944Y1224016D03*
G01X6155344Y1371918D03*
G01X6168944Y6507684D03*
G01X6172344Y1479019D03*
G01X6240345Y1586121D03*
G01X6265845Y1371918D03*
G01X6282846Y1479019D03*
G01X6317528Y5329569D03*
G01X6327723Y5742674D03*
G01X6350847Y1586121D03*
G01X6378729Y5329569D03*
G01X6388247Y1677922D03*
G01X6393347Y1479019D03*
G01X6461348Y1586121D03*
G01X6464748Y4488058D03*
G01X6490248Y4386057D03*
G01X6498748Y1677922D03*
G01X6541249Y7012591D03*
G01X6546349Y7191093D03*
G01X6571849Y1586121D03*
G01X6580026Y7310489D03*
G01X6588526Y7096286D03*
G01X6609250Y1677922D03*
G01X6617750Y953712D03*
G01X6651750Y7012591D03*
G01X6656851Y7191093D03*
G01X6699027Y7096286D03*
G01X6719751Y1677922D03*
G01X6740152Y6130279D03*
G01X6762252Y7012591D03*
G01X6767352Y7191093D03*
G01X6769633Y6780194D03*
G01X6796252Y5355069D03*
G01X6809529Y7096286D03*
G01X6811553Y1887024D03*
G01X6872753Y7012591D03*
G01X6877853Y7191093D03*
G01X6922054Y1887024D03*
G01X6944154Y1994126D03*
G01X6979855Y4712461D03*
G01X6979855Y4822962D03*
G01X6979855Y4933464D03*
G01X6979855Y5043965D03*
G01X7032555Y1887024D03*
G01X7054656Y1994126D03*
G01X7061456Y2147128D03*
G01X7143057Y1887024D03*
G01X7165157Y1994126D03*
G01X7171957Y2147128D03*
G01X7214458Y5100066D03*
G01X7224658Y4758362D03*
G01X7224658Y4926664D03*
G01X7245058Y4574759D03*
G01X7275659Y1994126D03*
G01X7282459Y2147128D03*
G01X7324959Y5100066D03*
G01X7335159Y4758362D03*
G01X7335159Y4926664D03*
G01X7355560Y4574759D03*
G01X7387860Y5589672D03*
G01X7392960Y2147128D03*
G01X7392960Y5212267D03*
G01X7435461Y5100066D03*
G01X7438861Y958812D03*
G01X7445661Y4758362D03*
G01X7445661Y4926664D03*
G01X7466061Y4574759D03*
G01X7468505Y6675986D03*
G01X7475471Y6617522D03*
G01X7530662Y6655586D03*
G01X7545962Y5100066D03*
G01X7556162Y4758362D03*
G01X7556162Y4926664D03*
G01X7576562Y4574759D03*
G01X7780565Y6249897D03*
G01X7811165Y4666560D03*
G01X7811165Y4777062D03*
G01X7811165Y4887563D03*
G01X7811165Y4998065D03*
G01X7923367Y4141254D03*
G01X8035568Y4294256D03*
G01X8045769Y4187154D03*
G01X8096769Y4533959D03*
G01X8096769Y4644460D03*
G01X8096769Y4754962D03*
G01X8096769Y4865463D03*
G01X8157970Y4233055D03*
G01X8356873Y918012D03*
G01X8412973Y1938025D03*
G01X8412973Y6377289D03*
G01X8423173Y2198128D03*
G01X8525175Y7175793D03*
G01X8529156Y6780194D03*
G01X8535375Y2560233D03*
G01X8545575Y1667722D03*
G01X8555775Y6538285D03*
G01X8576414Y7676286D03*
G01X8616976Y2662234D03*
G01X8637376Y7313495D03*
G01X8652676Y5370369D03*
G01X8662877Y7420596D03*
G01X8683277Y4411557D03*
G01X8683277Y4845063D03*
G01X8686916Y7676286D03*
G01X8688377Y3615947D03*
G01X8688377Y4554359D03*
G01X8693477Y3799549D03*
G01X8708777Y4712461D03*
G01X8747878Y7313495D03*
G01X8755483Y2803241D03*
G01X8764878Y3320143D03*
G01X8773378Y7420596D03*
G01X8780178Y2932538D03*
G01X8780178Y3473145D03*
G01X8793778Y4411557D03*
G01X8793778Y4845063D03*
G01X8797417Y7676286D03*
G01X8798878Y3615947D03*
G01X8798878Y4554359D03*
G01X8803978Y3799549D03*
G01X8819279Y4712461D03*
G01X8858379Y7313495D03*
G01X8883879Y7420596D03*
G01X8904280Y4411557D03*
G01X8904280Y4845063D03*
G01X8907918Y7676286D03*
G01X8909380Y3615947D03*
G01X8909380Y4554359D03*
G01X8914480Y3799549D03*
G01X8929780Y4712461D03*
G01X8968880Y7313495D03*
G01X8989281Y1443319D03*
G01X8994381Y7420596D03*
G01X9003462Y5775481D03*
G01X9014781Y4411557D03*
G01X9014781Y4845063D03*
G01X9019881Y3615947D03*
G01X9019881Y4554359D03*
G01X9024981Y3799549D03*
G01X9040281Y4712461D03*
G01X9096382Y851711D03*
G01X9137183Y6675986D03*
G01X9149083Y3610847D03*
G01X9182466Y7048291D03*
G01X9223884Y5768175D03*
G01X9249384Y3656747D03*
G01X9256881Y4495364D03*
G01X9259289Y4704951D03*
G01X9261981Y4383163D03*
G01X9267081Y4857469D03*
G01X9307881Y5224674D03*
G01X9358470Y4769046D03*
G01X9358882Y4898270D03*
G01X9363982Y4638166D03*
G01X9377822Y4466895D03*
G01X9385080Y4259497D03*
G01X9404783Y5301175D03*
G01X9436387Y3610847D03*
G01X9458487Y5666173D03*
G01X9461037Y5541222D03*
G01X9478887Y6150680D03*
G01X9565588Y3646547D03*
G01X9616589Y6645386D03*
G01X9657389Y7384896D03*
G01X9733122Y7616386D03*
G01X9747491Y7308395D03*
G01X9833188Y4571865D03*
G01X9843623Y7616386D03*
G01X9847792Y7206393D03*
G01X9902193Y6369982D03*
G01X9904589Y4449464D03*
G01X9907293Y7109492D03*
G01X9954125Y7616386D03*
G01X10029694Y6140479D03*
G01X10062691Y4388263D03*
G01X10064626Y7616386D03*
G01X10094876Y5296075D03*
G01X10149392Y4357663D03*
G01X10154492Y4194460D03*
G01X10213297Y637508D03*
G01X10287094Y6453790D03*
G01X10299998Y2014526D03*
G01X10305098Y2799936D03*
G01X10310198Y2509232D03*
G01X10310198Y3580246D03*
G01X10349879Y5530678D03*
G01X10356098Y5003165D03*
G01X10356098Y5375470D03*
G01X10365179Y5775481D03*
G01X10365179Y6156481D03*
G01X10370279Y4755468D03*
G01X10409496Y6453790D03*
G01X10470696Y2623640D03*
G01X10478500Y3748549D03*
G01X10524401Y1563997D03*
G01X10526797Y6453790D03*
G01X10562498Y2710341D03*
G01X10593098Y2200335D03*
G01X10640583Y5647979D03*
G01X10645683Y5392976D03*
G01X10649199Y2006532D03*
G01X10659399Y2312536D03*
G01X10669599Y6453790D03*
G01X10679799Y2118734D03*
G01X10692703Y3503745D03*
G01X10710399Y2230935D03*
G01X10720600Y2389037D03*
G01X10802201Y2312536D03*
G01X10802201Y4510665D03*
G01X10803785Y5382776D03*
G01X10817501Y1950431D03*
G01X10827701Y2062633D03*
G01X10873602Y2200335D03*
G01X10875186Y6458890D03*
G01X10881010Y4441297D03*
G01X10894002Y2297236D03*
G01X10912010Y3768802D03*
G01X10915987Y7101498D03*
G01X10922206Y1433119D03*
G01X10946587Y6979097D03*
G01X10950103Y2128934D03*
G01X10955203Y1006919D03*
G01X10970503Y1955532D03*
G01X10990903Y4337262D03*
G01X11016403Y2037133D03*
G01X11021503Y3817056D03*
G01X11054807Y6461784D03*
G01X11059908Y6665786D03*
G01X11067404Y2164634D03*
G01X11070108Y7655199D03*
G01X11072210Y3897745D03*
G01X11087804Y4240361D03*
G01X11108205Y971219D03*
G01X11180609Y7655199D03*
G01X11189806Y4163860D03*
G01X11201590Y5999884D03*
G01X11202709Y6303682D03*
G01X11248610Y6660686D03*
G01X11279210Y637508D03*
G01X11291111Y7655199D03*
G01X11350611Y4197354D03*
G01X11360811Y3641447D03*
G01X11365911Y6150680D03*
G01X11401612Y7655199D03*
G01X11615815Y3814849D03*
G01X11640196Y4694267D03*
G01X11641315Y3901550D03*
G01X11663512Y6815894D03*
G01X11702516Y4584959D03*
G01X11737097Y4740168D03*
G01X11748416Y1718722D03*
G01X11770112Y5620273D03*
G01X11809617Y5426470D03*
G01X11827467Y5115366D03*
G01X11846467Y4093749D03*
G01X11850418Y1779923D03*
G01X11891218Y5696774D03*
G01X11893615Y5826482D03*
G01X11906518Y4788962D03*
G01X11926919Y2672435D03*
G01X11932019Y4221998D03*
G01X11979526Y1433119D03*
G01X11985416Y1073220D03*
G01X12002301Y4296462D03*
G01X12008520Y4085153D03*
G01X12043101Y5846882D03*
G01X12059520Y4156554D03*
G01X12085021Y3697548D03*
G01X12118018Y955919D03*
G01X12136021Y5441770D03*
G01X12163918Y5744881D03*
G01X12165503Y5153273D03*
G01X12187022Y5559072D03*
G01X12222723Y3850550D03*
G01X12223768Y5033984D03*
G01X12258423Y3794449D03*
G01X12289023Y632408D03*
G01X12293004Y6402789D03*
G01X12308305Y4964570D03*
G01X12342421Y3281549D03*
G01X12367660Y4273855D03*
G01X12378121Y3194848D03*
G01X12380825Y4110653D03*
G01X12396125Y2274629D03*
G01X12396125Y4493158D03*
G01X12398521Y3347850D03*
G01X12416040Y4397992D03*
G01X12418661Y5268368D03*
G01X12425512Y6968896D03*
G01X12431825Y3049839D03*
G01X12433022Y1264816D03*
G01X12452226Y4207554D03*
G01X12461307Y3939457D03*
G01X12503226Y4406457D03*
G01X12507207Y4755468D03*
G01X12517407Y5081872D03*
G01X12528727Y4151454D03*
G01X12564427Y2386831D03*
G01X12610328Y6003429D03*
G01X12629609Y4449464D03*
G01X12675509Y4699367D03*
G01X12727215Y4776212D03*
G01X12737829Y3080440D03*
G01X12778630Y3927051D03*
G01X12783730Y4105553D03*
G01X12788830Y2845837D03*
G01X12814330Y6655586D03*
G01X12834730Y4161654D03*
G01X12862366Y4778762D03*
G01X12895931Y3243642D03*
G01X12901031Y1438219D03*
G01X12901031Y3335443D03*
G01X12906131Y943512D03*
G01X12906131Y1203616D03*
G01X12911231Y4212655D03*
G01X12916332Y4110653D03*
G01X12931632Y5717174D03*
G01X12946932Y3988252D03*
G01X12987732Y3228342D03*
G01X12987732Y3564946D03*
G01X13037614Y4745268D03*
G01X13056050Y3320143D03*
G01X13089734Y3539446D03*
G01X13089734Y3610847D03*
G01X13103915Y4556565D03*
G01X13127831Y2409437D03*
G01X13144715Y4429064D03*
G01X13160016Y4622866D03*
G01X13176435Y3549646D03*
G01X13178831Y2506339D03*
G01X13181535Y5819175D03*
G01X13186635Y3952551D03*
G01X13205916Y6810794D03*
G01X13211052Y4321998D03*
G01X13244871Y5696774D03*
G01X13250232Y2399237D03*
G01X13265793Y5038411D03*
G01X13268236Y3044739D03*
G01X13268236Y3116140D03*
G01X13278436Y3636347D03*
G01X13306333Y5102272D03*
G01X13321633Y2516539D03*
G01X13349837Y3580246D03*
G01X13354937Y3656747D03*
G01X13360037Y3070240D03*
G01X13370237Y3763849D03*
G01X13372634Y4796268D03*
G01X13385538Y3269142D03*
G01X13441638Y5441770D03*
G01X13446738Y642608D03*
G01X13462039Y2713235D03*
G01X13469535Y5204274D03*
G01X13525636Y5265474D03*
G01X13532320Y4342362D03*
G01X13556236Y5494977D03*
G01X13579340Y5324469D03*
G01X13603009Y4501991D03*
G01X13608821Y4383163D03*
G01X13658238Y2608340D03*
G01X13688838Y2526739D03*
G01X13709238Y2440038D03*
G01X13734739Y5683680D03*
G01X13798643Y2845837D03*
G01X13839443Y1841124D03*
G01X13841840Y3322349D03*
G01X13841840Y5194073D03*
G01X13846940Y1129321D03*
G01X13851074Y5410826D03*
G01X13852040Y3919057D03*
G01X13872440Y1047720D03*
G01X13892841Y4913570D03*
G01X13923441Y3245848D03*
G01X13938741Y3857856D03*
G01X13979542Y2679741D03*
G01X13984642Y4964570D03*
G01X13994842Y5046172D03*
G01X14025442Y3750755D03*
G01X14043446Y5834476D03*
G01X14056043Y3184647D03*
G01X14061143Y2603240D03*
G01X14071343Y5000271D03*
G01X14079147Y3371144D03*
G01X14099165Y4720997D03*
G01X14173344Y3138747D03*
G01X14194842Y1433119D03*
G01X14201548Y6003429D03*
G01X14201548Y6548485D03*
G01X14219245Y1129321D03*
G01X14272949Y2876437D03*
G01X14286565Y1883363D03*
G01X14318850Y3243642D03*
G01X14327366Y1715061D03*
G01X14329050Y2274629D03*
G01X14359650Y637508D03*
G01X14368167Y1817062D03*
G01X14482052Y4921564D03*
G01X14592898Y5602079D03*
G01X14609553Y3141641D03*
G01X14622150Y5540878D03*
G01X14660554Y5645773D03*
G01X14698390Y1030213D03*
G01X14706455Y3218142D03*
G01X14720636Y1735142D03*
G01X14757455Y1948225D03*
G01X14758886Y5329225D03*
G01X14762555Y3315043D03*
G01X14775305Y6668336D03*
G01X14788056Y4335056D03*
G01X14871506Y6815894D03*
G01X14890057Y3136541D03*
G01X14910457Y4095353D03*
G01X14941058Y4018852D03*
G01X14951258Y4508458D03*
G01X15057240Y1751529D03*
G01X15063459Y1433119D03*
G01X15081156Y4531065D03*
G01X15101556Y4668767D03*
G01X15145060Y2738735D03*
G01X15152557Y4617766D03*
G01X15236862Y3967851D03*
G01X15240843Y5800981D03*
G01X15312243Y1751529D03*
G01X15317344Y5719380D03*
G01X15358144Y4627966D03*
G01X15409145Y6321188D03*
G01X15458300Y802612D03*
G01X15461264Y3248742D03*
G01X15585802Y5783475D03*
G01X15698003Y992611D03*
G01X15726468Y1535120D03*
G01X15741768Y4839963D03*
G01X15741768Y5778375D03*
G01X15853970Y5599872D03*
G01X15879470Y5089866D03*
G01X15925370Y6548485D03*
G01X15950871Y6375083D03*
G01X16200774Y7017691D03*
G01X16209855Y6142686D03*
G01X16210974Y5655973D03*
G01X16231374Y4834863D03*
G01X16297675Y3100840D03*
G01X16311275Y7017691D03*
G01X16323176Y6446483D03*
G01X16421777Y7017691D03*
G01X16506778Y7109492D03*
G01X16532278Y7017691D03*
G01X16588379Y7634799D03*
G01X16593479Y7333895D03*
G01X16603679Y7507297D03*
G01X16608779Y953712D03*
G01X16617279Y7109492D03*
G01X16698880Y7634799D03*
G01X16703981Y7333895D03*
G01X16714181Y7507297D03*
G01X16727781Y7109492D03*
G01X16791263Y940618D03*
G01X16806563Y6183486D03*
G01X16809382Y7634799D03*
G01X16814482Y7333895D03*
G01X16822982Y2733635D03*
G01X16824682Y7507297D03*
G01X16838282Y7109492D03*
G01X16898364Y5148173D03*
G01X16899483Y1433119D03*
G01X16919883Y7634799D03*
G01X16924983Y7333895D03*
G01X16935184Y7507297D03*
G01X17019181Y1226222D03*
G01X17110982Y1312923D03*
G01X17134268Y5548872D03*
G01X17192583Y2567539D03*
G01X17197055Y4708291D03*
G01X17204483Y2776642D03*
G01X17206184Y1394524D03*
G01X17244769Y5548872D03*
G01X17281988Y4610460D03*
G01X17296285Y1465925D03*
G01X17355271Y5548872D03*
G01X17363589Y5706974D03*
G01X17378957Y4718491D03*
G01X17392489Y4610460D03*
G01X17394886Y2593040D03*
G01X17396586Y2761342D03*
G01X17465772Y5548872D03*
G01X17489458Y4718491D03*
G01X17499591Y5900776D03*
G01X17502991Y4610460D03*
G01X17513191Y5742674D03*
G01X17526791Y5620273D03*
G01X17531891Y5380570D03*
G01X17552292Y5482571D03*
G01X17557392Y5793675D03*
G01X17564888Y2863343D03*
G01X17564888Y3036746D03*
G01X17575088Y2654241D03*
G01X17599960Y4718491D03*
G01X17600589Y3949657D03*
G01X17600589Y4123060D03*
G01X17605689Y3531452D03*
G01X17610789Y3740555D03*
G01X17613492Y4610460D03*
G01X17615889Y3286649D03*
G01X17637293Y5620273D03*
G01X17642393Y5380570D03*
G01X17662793Y5482571D03*
G01X17690690Y2863343D03*
G01X17690690Y3036746D03*
G01X17700890Y2654241D03*
G01X17726390Y3949657D03*
G01X17726390Y4123060D03*
G01X17731490Y3531452D03*
G01X17736590Y3740555D03*
G01X17741690Y3286649D03*
G01X17747794Y5620273D03*
G01X17752894Y5380570D03*
G01X17773294Y5482571D03*
G01X17816491Y2863343D03*
G01X17816491Y3036746D03*
G01X17826692Y2654241D03*
G01X17852192Y3949657D03*
G01X17852192Y4123060D03*
G01X17857292Y3531452D03*
G01X17858296Y5620273D03*
G01X17862392Y3740555D03*
G01X17863396Y5380570D03*
G01X17867492Y3286649D03*
G01X17883796Y5482571D03*
G01X17942293Y2863343D03*
G01X17942293Y3036746D03*
G01X17952493Y2654241D03*
G01X17977994Y3949657D03*
G01X17977994Y4123060D03*
G01X17983094Y3531452D03*
G01X17988194Y3740555D03*
G01X17993294Y3286649D03*
G04 Drill Drawing End*

M02*

