G04 Layer: CustomLayer2*
G04 EasyEDA Pro v2.2.32.3, 2025-03-28 17:03:34*
G04 Gerber Generator version 0.3*
G04 Scale: 100 percent, Rotated: No, Reflected: No*
G04 Dimensions in millimeters*
G04 Leading zeros omitted, absolute positions, 3 integers and 5 decimals*
%FSLAX35Y35*%
%MOMM*%
%ADD10C,0.0127*%
%ADD11C,0.15*%
G75*


G04 PolygonModel Start*
G54D10*
G01X15197512Y3211261D02*
G01X15192432Y3206181D01*
G01X811304Y5308055D02*
G01X816384Y5313135D01*
G01X447463Y5401187D02*
G01X442383Y5396107D01*
G01X417344Y5392256D02*
G01X412264Y5387176D01*
G01X1786803Y6265440D02*
G01X1781723Y6270520D01*
G54D11*
G01X2951031Y6790986D02*
G01X2851031Y6790986D01*
G01X2901031Y6740986D02*
G01X2901031Y6840986D01*
G01X2041031Y6740987D02*
G01X2041031Y6840986D01*
G01X4889026Y5335989D02*
G01X4889026Y5435989D01*
G01X4839026Y5385988D02*
G01X4939026Y5385988D01*
G01X4839027Y6245988D02*
G01X4939026Y6245988D01*
G54D10*
G01X6308056Y6942283D02*
G01X6313136Y6947363D01*
G54D11*
G01X7223539Y5402382D02*
G01X7223539Y5502382D01*
G01X7173539Y5452382D02*
G01X7273538Y5452382D01*
G01X7173539Y6312382D02*
G01X7273539Y6312382D01*
G54D10*
G01X4119806Y4099532D02*
G01X4124886Y4094452D01*
G01X3269944Y5996418D02*
G01X3264864Y6001498D01*
G01X6690245Y2392455D02*
G01X6685165Y2397535D01*
G01X6256802Y4099532D02*
G01X6261882Y4094452D01*
G01X6265594Y4748904D02*
G01X6260514Y4743824D01*
G01X6265594Y5204903D02*
G01X6260514Y5199823D01*
G01X6265594Y4976904D02*
G01X6260514Y4971824D01*
G54D11*
G01X5501026Y1813996D02*
G01X5401026Y1813996D01*
G01X5451026Y1763996D02*
G01X5451026Y1863996D01*
G01X4591026Y1763996D02*
G01X4591026Y1863996D01*
G01X7847021Y2454995D02*
G01X7747021Y2454995D01*
G01X7797021Y2404995D02*
G01X7797021Y2504995D01*
G01X6937022Y2404995D02*
G01X6937022Y2504995D01*
G54D10*
G01X9281436Y6419203D02*
G01X9276356Y6414123D01*
G01X9147377Y5574008D02*
G01X9142297Y5579088D01*
G01X8460559Y3153215D02*
G01X8455479Y3148135D01*
G54D11*
G01X4000297Y5325881D02*
G01X4000297Y5425881D01*
G01X3950297Y5375881D02*
G01X4050297Y5375881D01*
G01X3950297Y6235881D02*
G01X4050297Y6235881D01*
G54D10*
G01X8882173Y5405706D02*
G01X8877093Y5410786D01*
G01X15045630Y3902664D02*
G01X15040550Y3897584D01*
G01X15371073Y4232707D02*
G01X15365993Y4227627D01*
G01X15370915Y2991958D02*
G01X15365835Y2986878D01*
G01X2054545Y5120607D02*
G01X2059625Y5115527D01*
G01X1885113Y3791251D02*
G01X1880033Y3796331D01*
G01X1530953Y2297737D02*
G01X1536033Y2292657D01*
G01X4079338Y6638213D02*
G01X4074258Y6633133D01*
G01X5458565Y6653208D02*
G01X5453485Y6648128D01*
G01X3042199Y1202795D02*
G01X3047279Y1207875D01*
G01X8035560Y6672208D02*
G01X8030480Y6667128D01*
G01X10813555Y4107214D02*
G01X10808475Y4102134D01*
G54D11*
G01X16702501Y3804794D02*
G01X16602501Y3804794D01*
G01X16652501Y3754794D02*
G01X16652501Y3854793D01*
G01X15792501Y3754794D02*
G01X15792501Y3854794D01*
G54D10*
G01X16513719Y4212600D02*
G01X16508639Y4217680D01*
G01X16504788Y4242718D02*
G01X16499708Y4247798D01*
G01X12176029Y3003722D02*
G01X12181109Y3008802D01*
G01X12206148Y3012652D02*
G01X12211228Y3017732D01*
G54D11*
G01X15986571Y5063572D02*
G01X15986571Y5163572D01*
G01X15936571Y5113572D02*
G01X16036571Y5113572D01*
G01X15936571Y5973571D02*
G01X16036571Y5973571D01*
G01X782035Y3912993D02*
G01X782035Y3812993D01*
G01X832035Y3862993D02*
G01X732035Y3862993D01*
G01X832035Y3002993D02*
G01X732035Y3002993D01*
G01X1140034Y3916993D02*
G01X1140034Y3816993D01*
G01X1190034Y3866993D02*
G01X1090034Y3866993D01*
G01X1190034Y3006993D02*
G01X1090034Y3006993D01*
G54D10*
G01X675956Y2346823D02*
G01X681036Y2341743D01*
G01X684887Y2316705D02*
G01X689967Y2311625D01*
G54D11*
G01X2220032Y2020995D02*
G01X2220032Y2120995D01*
G01X2170032Y2070995D02*
G01X2270032Y2070995D01*
G01X2170032Y2930995D02*
G01X2270032Y2930995D01*
G54D10*
G01X4784914Y6846278D02*
G01X4789994Y6851358D01*
G01X4815033Y6855208D02*
G01X4820113Y6860288D01*
G01X7274866Y6379965D02*
G01X7279946Y6385045D01*
G01X7304984Y6388896D02*
G01X7310064Y6393976D01*
G01X11253493Y2652827D02*
G01X11258573Y2647747D01*
G01X11262424Y2622708D02*
G01X11267504Y2617628D01*
G54D11*
G01X16400502Y4234793D02*
G01X16300502Y4234793D01*
G01X16350502Y4184793D02*
G01X16350502Y4284793D01*
G01X15490502Y4184793D02*
G01X15490502Y4284793D01*
G54D10*
G01X8211991Y2344909D02*
G01X8206911Y2339829D01*
G01X8211991Y2093085D02*
G01X8206911Y2088005D01*
G01X8211991Y1841260D02*
G01X8206911Y1836180D01*
G01X8211991Y1589436D02*
G01X8206911Y1584356D01*
G01X10216445Y3394079D02*
G01X10221525Y3399159D01*
G01X10216445Y2868080D02*
G01X10221525Y2873160D01*
G01X10216445Y2342081D02*
G01X10221525Y2347161D01*
G01X10216445Y1853082D02*
G01X10221525Y1858162D01*
G01X15103402Y4265207D02*
G01X15098322Y4270287D01*
G01X15367932Y4353879D02*
G01X15373012Y4358959D01*
G01X8214691Y1334911D02*
G01X8209611Y1329831D01*
G01X11244100Y1203568D02*
G01X11249180Y1198488D01*
G01X13621254Y1527449D02*
G01X13616174Y1532529D01*
G01X16341005Y4471645D02*
G01X16346085Y4476725D01*
G01X10216445Y1522083D02*
G01X10221525Y1527163D01*
G01X12062091Y1592334D02*
G01X12057011Y1587254D01*
G01X14112277Y1508506D02*
G01X14117357Y1513586D01*
G01X12247110Y1976296D02*
G01X12252190Y1971216D01*
G01X10163102Y1208568D02*
G01X10168182Y1203488D01*
G01X13338524Y1976296D02*
G01X13343604Y1971216D01*
G01X12852601Y2316543D02*
G01X12847521Y2311463D01*
G01X15539237Y1511484D02*
G01X15544317Y1516564D01*
G01X15541037Y1709615D02*
G01X15546117Y1714695D01*
G01X13051463Y3028326D02*
G01X13056543Y3033406D01*
G01X13850923Y4523420D02*
G01X13845843Y4528500D01*
G01X11006377Y1592334D02*
G01X11001297Y1587254D01*
G01X14142918Y2316543D02*
G01X14137838Y2311463D01*
G01X15547917Y1206935D02*
G01X15542837Y1201855D01*
G01X15547017Y1400738D02*
G01X15541937Y1395658D01*
G01X12715097Y5915559D02*
G01X12720177Y5910479D01*
G01X12480594Y5436347D02*
G01X12485674Y5431267D01*
G01X12021250Y2803923D02*
G01X12026330Y2809003D01*
G01X15586435Y4586077D02*
G01X15591515Y4591157D01*
G01X11726927Y4960420D02*
G01X11721847Y4965500D01*
G01X16003575Y4680905D02*
G01X15998495Y4675825D01*
G01X14723921Y5034419D02*
G01X14718841Y5039499D01*
G01X685260Y2705605D02*
G01X690340Y2700525D01*
G01X6308056Y6753580D02*
G01X6313136Y6758660D01*
G01X6665102Y6332501D02*
G01X6660022Y6327421D01*
G01X6405137Y5583293D02*
G01X6410217Y5588373D01*
G01X4798437Y6671979D02*
G01X4803517Y6677059D01*
G01X4891398Y6299695D02*
G01X4886318Y6294615D01*
G01X3701599Y3430907D02*
G01X3696519Y3425827D01*
G01X3331600Y3429907D02*
G01X3326520Y3424827D01*
G01X4555091Y5808652D02*
G01X4560171Y5803572D01*
G01X8786729Y5786794D02*
G01X8781649Y5781714D01*
G01X8761188Y6330275D02*
G01X8766268Y6335355D01*
G01X7288388Y6588172D02*
G01X7293468Y6593252D01*
G01X8771429Y6638505D02*
G01X8766349Y6633425D01*
G01X6869109Y5999558D02*
G01X6874189Y5994478D01*
G01X16361744Y5854552D02*
G01X16366824Y5849472D01*
G01X11346625Y2991168D02*
G01X11341545Y2996248D01*
G01X16371944Y4819239D02*
G01X16377024Y4814159D01*
G01X14979436Y1523083D02*
G01X14984516Y1528163D01*
G01X14553578Y1591911D02*
G01X14548498Y1586831D01*
G01X15947192Y3318070D02*
G01X15942112Y3312990D01*

M02*

