G04 Layer: CustomLayer1*
G04 EasyEDA Pro v2.2.32.3, 2025-03-28 17:03:34*
G04 Gerber Generator version 0.3*
G04 Scale: 100 percent, Rotated: No, Reflected: No*
G04 Dimensions in millimeters*
G04 Leading zeros omitted, absolute positions, 3 integers and 5 decimals*
%FSLAX35Y35*%
%MOMM*%
%ADD10C,0.15*%
G75*


G04 PolygonModel Start*
G54D10*
G01X2697031Y6920986D02*
G01X2265031Y6920986D01*
G01X2697031Y6660986D02*
G01X2265031Y6660986D01*
G01X2697031Y6660986D02*
G01X2697031Y6920986D01*
G01X2265031Y6660986D02*
G01X2265031Y6920986D01*
G01X5019027Y5589989D02*
G01X5019027Y6021989D01*
G01X4759027Y5589989D02*
G01X4759027Y6021989D01*
G01X4759027Y5589989D02*
G01X5019027Y5589989D01*
G01X4759027Y6021989D02*
G01X5019027Y6021989D01*
G01X7353539Y5656382D02*
G01X7353539Y6088383D01*
G01X7093539Y5656382D02*
G01X7093539Y6088383D01*
G01X7093539Y5656382D02*
G01X7353539Y5656382D01*
G01X7093539Y6088383D02*
G01X7353539Y6088383D01*
G01X5247026Y1943996D02*
G01X4815026Y1943996D01*
G01X5247026Y1683996D02*
G01X4815026Y1683996D01*
G01X5247026Y1683996D02*
G01X5247026Y1943996D01*
G01X4815026Y1683996D02*
G01X4815026Y1943996D01*
G01X7593021Y2584995D02*
G01X7161021Y2584995D01*
G01X7593021Y2324995D02*
G01X7161021Y2324995D01*
G01X7593021Y2324995D02*
G01X7593021Y2584995D01*
G01X7161021Y2324995D02*
G01X7161021Y2584995D01*
G01X9137865Y5906084D02*
G01X9137865Y6216084D01*
G01X9317865Y5906084D02*
G01X9317865Y6216084D01*
G01X9137865Y6216084D02*
G01X9317865Y6216084D01*
G01X9137865Y5906084D02*
G01X9317865Y5906084D01*
G01X4130297Y5579881D02*
G01X4130297Y6011882D01*
G01X3870297Y5579881D02*
G01X3870297Y6011882D01*
G01X3870297Y5579881D02*
G01X4130297Y5579881D01*
G01X3870297Y6011882D02*
G01X4130297Y6011882D01*
G01X16448501Y3934794D02*
G01X16016501Y3934794D01*
G01X16448501Y3674794D02*
G01X16016501Y3674794D01*
G01X16448501Y3674794D02*
G01X16448501Y3934794D01*
G01X16016501Y3674794D02*
G01X16016501Y3934794D01*
G01X16116571Y5317572D02*
G01X16116571Y5749572D01*
G01X15856571Y5317572D02*
G01X15856571Y5749572D01*
G01X15856571Y5317572D02*
G01X16116571Y5317572D01*
G01X15856571Y5749572D02*
G01X16116571Y5749572D01*
G01X652035Y3658993D02*
G01X652035Y3226993D01*
G01X912035Y3658993D02*
G01X912035Y3226993D01*
G01X912035Y3658993D02*
G01X652035Y3658993D01*
G01X912035Y3226993D02*
G01X652035Y3226993D01*
G01X1010034Y3662993D02*
G01X1010034Y3230993D01*
G01X1270034Y3662993D02*
G01X1270034Y3230993D01*
G01X1270034Y3662993D02*
G01X1010034Y3662993D01*
G01X1270034Y3230993D02*
G01X1010034Y3230993D01*
G01X2350032Y2274995D02*
G01X2350032Y2706995D01*
G01X2090032Y2274995D02*
G01X2090032Y2706995D01*
G01X2090032Y2274995D02*
G01X2350032Y2274995D01*
G01X2090032Y2706995D02*
G01X2350032Y2706995D01*
G01X16146502Y4364793D02*
G01X15714501Y4364793D01*
G01X16146502Y4104793D02*
G01X15714501Y4104793D01*
G01X16146502Y4104793D02*
G01X16146502Y4364793D01*
G01X15714501Y4104793D02*
G01X15714501Y4364793D01*
G01X15538100Y1052612D02*
G01X15538100Y742612D01*
G01X15358100Y1052612D02*
G01X15358100Y742612D01*
G01X15538100Y742612D02*
G01X15358100Y742612D01*
G01X15538100Y1052612D02*
G01X15358100Y1052612D01*

M02*

