;TYPE=PLATED
;Layer: PTH_Through
;EasyEDA Pro Client v2.2.32.3, 2026-04-14 17:29:08
;Gerber Generator version 0.3
M48
METRIC,LZ,000.00000
;Hole size 1 = 0.24999 METRIC
T01C0.24999
;Hole size 2 = 0.30000 METRIC
T02C0.30000
;Hole size 3 = 0.60000 METRIC
T03C0.60000
;Hole size 4 = 1.10002 METRIC
T04C1.10002
;Hole size 5 = 1.19990 METRIC
T05C1.19990
%
G05
G90
T01
X54.38335Y61.98765
X54.38335Y60.58761
X55.7834Y60.58761
X55.7834Y61.98765
X55.08337Y62.68768
X55.08337Y61.28763
X55.08337Y59.88758
X52.9833Y60.58761
X52.9833Y61.98765
X53.68332Y62.68768
X53.68332Y61.28763
X53.68332Y59.88758
T02
X69.8709Y54.68769
X64.51583Y48.24662
X62.88381Y54.0607
X62.37381Y53.34669
X66.50486Y63.13882
X67.37187Y69.5649
X65.94385Y61.95571
X67.42287Y70.68691
X69.05489Y64.26083
X62.27181Y57.78375
X67.88188Y65.58685
X60.69079Y57.01874
X87.26213Y72.87994
X86.90512Y71.60493
X82.21306Y67.72888
X82.16206Y66.50486
X39.55733Y52.88768
X34.47645Y56.55973
X48.85863Y53.14269
X21.26728Y58.19175
X51.76567Y53.19369
X22.28729Y58.24275
X53.49969Y53.19369
X23.86831Y59.72177
X43.55456Y49.16464
X43.55456Y51.61267
X44.37057Y53.04069
X31.31441Y54.87671
X48.75663Y58.44676
X32.89543Y59.05876
X33.76244Y59.67077
X48.96063Y59.36477
X48.34863Y62.8177
X42.68755Y60.43578
X40.54552Y54.2137
X28.91737Y50.38865
X27.74436Y51.91867
X25.70433Y54.0097
X20.48129Y59.82377
X20.85927Y57.01874
X28.20336Y50.94966
X20.75727Y40.64753
X20.75727Y36.10847
X17.69723Y36.97548
X17.74823Y44.31957
X21.36928Y44.47258
X20.85927Y47.02405
X18.92124Y47.02261
X8.61911Y33.44248
X9.53712Y32.33849
X10.45514Y35.04034
X10.45514Y30.34539
X26.97935Y37.43448
X42.68755Y37.48549
X50.79666Y59.87477
X60.94579Y50.08265
X55.64172Y45.79859
X53.70369Y45.79859
X25.44933Y42.38155
X40.95353Y45.59459
X48.50163Y52.27568
X51.30666Y47.53262
X46.4616Y47.53262
X42.43255Y45.03358
X45.28859Y58.44676
X52.37768Y57.12074
X59.21177Y57.12074
X61.4558Y62.37381
X65.89285Y60.94579
X86.34412Y63.85283
X87.56813Y63.85283
X29.13174Y43.292
X29.12138Y42.17755
X24.12331Y46.1556
X24.53132Y46.86961
X24.27631Y47.58362
X24.32731Y45.08458
X29.12138Y41.05553
X25.14333Y47.83862
X26.11234Y47.68562
X22.59329Y36.15947
X26.46934Y35.75146
X22.59329Y35.08845
X22.74629Y34.11944
X21.36928Y35.03745
X21.57328Y33.81344
X95.85199Y54.98379
X95.85199Y56.13562
X95.85199Y57.18641
X95.96857Y52.70543
X95.96857Y53.86387
X34.47883Y42.08672
X34.47883Y43.13751
X34.47883Y38.72225
X33.40781Y41.88272
X33.40781Y42.93351
X33.40781Y38.51825
X31.97979Y41.98472
X31.97979Y43.03551
X31.97979Y38.62025
X47.46983Y42.61791
X47.46983Y43.76974
X47.46983Y44.82053
X47.46983Y40.40527
X47.46983Y41.45606
X48.55501Y42.61791
X48.55501Y43.76974
X48.55501Y44.82053
X48.55501Y40.40527
X48.55501Y41.45606
X49.57502Y42.10791
X49.57502Y43.25974
X49.57502Y44.31053
X49.57502Y39.89526
X49.57502Y40.94605
X51.1723Y64.97722
X50.02047Y64.97722
X48.96968Y64.97722
X53.38494Y64.97722
X52.33415Y64.97722
X60.25042Y64.51821
X59.09859Y64.51821
X58.0478Y64.51821
X62.46306Y64.51821
X61.41227Y64.51821
X57.75139Y65.38523
X56.59956Y65.38523
X55.54877Y65.38523
X59.96403Y65.38523
X58.91324Y65.38523
X50.66229Y66.25224
X49.51046Y66.25224
X48.45967Y66.25224
X52.87494Y66.25224
X51.82415Y66.25224
X60.45442Y66.40524
X59.30259Y66.40524
X58.2518Y66.40524
X62.66706Y66.40524
X61.61627Y66.40524
X55.71136Y66.35424
X54.55953Y66.35424
X54.32475Y65.48723
X49.9679Y63.90621
X56.87321Y66.35424
X42.60419Y70.17929
X41.45236Y70.17929
X40.40157Y70.17929
X44.81683Y70.17929
X43.76604Y70.17929
X41.27817Y68.08826
X40.12634Y68.08826
X39.07555Y68.08826
X43.49081Y68.08826
X42.44002Y68.08826
X40.15616Y66.50724
X39.00433Y66.50724
X37.95354Y66.50724
X42.3688Y66.50724
X41.31801Y66.50724
X32.09805Y66.71124
X30.94622Y66.71124
X29.89543Y66.71124
X34.3107Y66.71124
X33.25991Y66.71124
X19.14389Y69.2508
X17.99206Y69.2508
X16.94127Y69.2508
X21.35653Y69.2508
X20.30574Y69.2508
X19.14389Y66.63762
X17.99206Y66.63762
X16.94127Y66.63762
X21.35653Y66.63762
X20.30574Y66.63762
X17.25686Y63.90621
X16.10503Y63.90621
X15.05424Y63.90621
X19.4695Y63.90621
X18.41871Y63.90621
X23.98895Y64.82422
X22.83712Y64.82422
X21.78633Y64.82422
X26.20159Y64.82422
X25.1508Y64.82422
X4.33744Y32.72379
X4.33744Y33.87561
X4.33744Y34.9264
X4.33744Y30.51114
X4.33744Y31.56193
X4.49044Y40.11888
X10.55952Y43.92274
X10.55952Y45.02454
X4.49044Y37.90624
X4.49044Y38.95703
X10.30451Y58.83612
X10.30451Y59.98795
X10.30451Y61.03874
X13.32856Y67.76362
X13.32856Y68.91545
X13.32856Y69.96624
X13.32856Y65.55098
X13.32856Y66.60177
X9.3355Y26.5017
X9.3355Y27.65353
X9.3355Y28.70432
X9.3355Y24.28906
X9.3355Y25.33985
X10.91652Y25.27769
X10.91652Y26.42952
X10.91652Y27.48031
X10.91652Y23.06505
X10.91652Y24.11584
X12.59954Y24.20667
X12.59954Y25.3585
X12.59954Y26.40929
X12.59954Y21.99403
X12.59954Y23.04482
X13.92556Y22.16665
X13.92556Y23.31848
X13.92556Y24.36927
X13.92556Y19.95401
X13.92556Y21.0048
X21.21865Y23.74767
X21.21865Y24.8995
X21.21865Y25.95029
X21.21865Y21.53503
X21.21865Y22.58582
X17.36124Y21.95371
X16.20941Y21.95371
X15.15862Y21.95371
X19.57389Y21.95371
X18.52309Y21.95371
X17.81787Y20.24964
X16.66604Y20.24964
X15.61525Y20.24964
X20.03051Y20.24964
X18.97972Y20.24964
X23.46268Y22.62565
X23.46268Y23.77748
X23.46268Y24.82827
X23.46268Y20.41301
X23.46268Y21.4638
X26.01272Y22.52365
X26.01272Y23.67548
X26.01272Y24.72627
X26.01272Y20.31101
X26.01272Y21.3618
X28.25675Y22.42165
X28.25675Y23.57348
X28.25675Y24.62427
X28.25675Y20.20901
X28.25675Y21.2598
X31.06178Y22.31965
X31.06178Y23.47148
X31.06178Y24.52227
X31.06178Y20.10701
X31.06178Y21.1578
X33.10181Y22.31965
X33.10181Y23.47148
X33.10181Y24.52227
X33.10181Y20.10701
X33.10181Y21.1578
X35.34584Y21.19764
X35.34584Y22.34947
X35.34584Y23.40026
X35.34584Y18.98499
X35.34584Y20.03578
X37.33486Y18.0866
X37.33486Y19.23842
X37.33486Y20.28922
X37.33486Y15.87395
X37.33486Y16.92474
X36.62245Y13.78088
X37.78089Y13.78088
X38.93933Y13.78088
X40.09778Y13.78088
X41.25622Y13.78088
X42.41466Y13.78088
X43.57311Y13.78088
X44.73155Y13.78088
X72.62128Y64.60027
X71.24426Y63.81504
X72.40271Y62.76425
X72.40271Y63.81504
X76.06373Y62.00069
X76.06373Y63.05148
X77.22217Y62.00069
X77.22217Y63.05148
X57.31334Y51.36156
X57.31334Y52.41235
X58.47179Y51.36156
X58.47179Y52.41235
X49.4738Y50.57655
X49.4738Y51.62734
X50.63224Y50.57655
X50.63224Y51.62734
X45.2258Y44.61653
X46.31098Y44.61653
X43.69578Y43.74952
X44.78096Y43.74952
X43.47465Y42.93148
X44.55983Y42.93148
X43.10758Y42.22221
X44.19276Y42.22221
X42.93077Y41.19949
X44.01595Y41.19949
X42.74745Y40.28147
X43.83263Y40.28147
X50.93788Y42.2705
X52.02305Y42.2705
X51.14188Y40.84248
X52.22706Y40.84248
X45.51307Y48.69757
X46.59825Y48.69757
X41.65576Y47.01356
X42.74093Y47.01356
X40.94175Y49.61459
X42.02692Y49.61459
X36.41685Y50.83861
X34.51566Y50.0736
X35.60084Y50.0736
X31.65963Y48.79858
X32.7448Y48.79858
X34.48549Y46.90882
X34.48549Y47.994
X33.82249Y46.29682
X33.82249Y47.38199
X42.43493Y57.9277
X45.23997Y56.55068
X40.6275Y51.88103
X35.95785Y32.51978
X35.95785Y33.67161
X35.95785Y34.7224
X33.71382Y32.62178
X33.71382Y33.77361
X33.71382Y34.8244
X39.9359Y30.27575
X39.9359Y31.42758
X39.9359Y32.47837
X37.69187Y30.37775
X37.69187Y31.52958
X37.69187Y32.58037
X49.67702Y31.95878
X49.67702Y33.1106
X49.67702Y34.16139
X37.84487Y33.4888
X41.15991Y30.71357
X38.96688Y32.01937
X47.60225Y36.97786
X49.8149Y36.97786
X48.76411Y36.97786
X40.66616Y21.47366
X42.87881Y21.47366
X41.82802Y21.47366
X41.43117Y20.50465
X43.64382Y20.50465
X42.59303Y20.50465
X42.09418Y19.38263
X44.30683Y19.38263
X43.25603Y19.38263
X43.1142Y18.20962
X45.32684Y18.20962
X44.27605Y18.20962
X94.44047Y42.94494
X93.38968Y42.94494
X94.33847Y41.97592
X93.28768Y41.97592
X94.33847Y40.2929
X93.28768Y40.2929
X94.44047Y38.76288
X93.38968Y38.76288
X81.37155Y41.33603
X82.51907Y44.82958
X63.85283Y45.08458
X59.87477Y45.08458
X80.47904Y50.84766
X79.56103Y50.74566
X78.66852Y50.77116
X66.60686Y54.0607
X66.65786Y52.73468
X64.00583Y46.0026
X57.98775Y46.0026
X77.011Y50.79666
X76.44999Y52.02067
X77.266Y43.40156
X75.2483Y43.14656
X91.24776Y49.57264
X91.29118Y50.69466
X83.33508Y49.57264
X73.84896Y49.52164
X84.24752Y46.6656
X76.65399Y44.26857
X59.97678Y43.96257
X75.93998Y43.65656
X60.63978Y43.35056
X78.08201Y45.95159
X79.45903Y44.88058
X73.79796Y51.00066
X72.47194Y52.12267
X70.17691Y55.89672
X68.64689Y61.09879
X74.51196Y45.79859
X73.44095Y45.74759
X73.28795Y55.38672
X35.33167Y50.83861
X29.17238Y44.93158
X29.17238Y45.79859
X29.17238Y46.92061
X28.30537Y49.41964
X71.85993Y55.89672
X84.50809Y50.38865
X27.38735Y47.63462
X75.22597Y51.20466
X69.2079Y45.64559
X73.95096Y44.98258
X67.77988Y45.59459
X68.03488Y47.83862
X69.6159Y48.39963
X66.24986Y45.59459
X66.91287Y47.94062
X58.13269Y44.88058
X56.95967Y44.82958
X52.88124Y44.67658
X57.56709Y61.88526
X57.46968Y60.74179
X58.8467Y61.25179
X58.48969Y62.32281
X79.80797Y54.67271
X80.82798Y53.65269
X81.74599Y52.73468
X91.38512Y52.32668
X90.56911Y53.29569
X89.9571Y54.62171
X88.73308Y55.74372
X87.40707Y56.81474
X86.33605Y58.19175
X85.16304Y59.31377
X84.14302Y60.23178
X94.34694Y48.15173
X93.68015Y49.01163
X92.91514Y50.23565
X89.14109Y45.90059
X88.58008Y44.82958
X87.81507Y43.70757
X87.25406Y42.84055
X72.28341Y58.40071
X73.29522Y59.67071
X73.41257Y57.07971
X59.14898Y42.4745
X61.44401Y42.1175
X15.1982Y48.50163
X15.4022Y46.97161
X18.46224Y46.0026
X24.27631Y52.37768
X24.53132Y50.54165
X104.24535Y35.59856
X61.7108Y38.4035
X59.77277Y33.86444
X101.84832Y33.86444
X59.92578Y29.18678
X65.94385Y29.18678
X72.11493Y37.12848
X88.79215Y37.23048
X74.97097Y26.06134
X74.97097Y30.14139
X77.266Y39.52551
X75.22597Y38.14849
X73.44095Y30.24339
X73.44095Y26.06134
X72.47194Y27.94836
X72.47194Y25.39833
X24.07231Y32.79342
X2.29741Y42.78051
X2.29741Y41.67872
X2.29741Y39.97547
X2.29741Y38.87368
X2.24641Y45.58554
X2.24641Y44.48375
X2.24641Y48.39058
X2.24641Y47.28879
X2.19541Y51.14461
X2.19541Y50.04282
X2.39941Y53.84765
X2.39941Y52.74586
X2.14441Y57.16269
X2.14441Y56.0609
X4.89844Y58.33571
X4.89844Y57.23392
X7.65248Y58.74371
X7.65248Y57.64192
X10.30451Y57.3667
X10.30451Y56.2649
X13.00755Y55.73467
X13.00755Y54.63288
X26.97935Y39.28657
X38.7095Y39.38857
X55.63668Y42.53455
X68.18788Y35.75146
X70.73792Y34.78245
X66.24769Y31.59916
X66.03407Y30.84635
X64.45305Y30.43835
X65.73188Y32.3429
X61.24001Y30.69335
X64.91206Y36.20142
X60.13794Y30.99935
X60.01599Y31.81536
X60.13794Y32.77186
X59.09798Y32.32537
X59.14898Y31.25436
X65.31986Y31.29631
X69.09411Y31.56036
X70.06312Y32.27437
X69.14511Y30.33635
X68.5841Y29.52033
X68.1761Y28.60232
X67.05408Y28.14332
X57.31296Y27.78631
X57.00695Y26.6133
X56.75195Y25.69529
X53.19628Y36.24453
X54.34811Y36.24453
X52.14549Y36.24453
X52.4685Y31.72479
X53.62033Y31.72479
X51.41771Y31.72479
X48.198Y27.60253
X48.198Y26.4507
X48.198Y28.65332
X96.74825Y35.59846
X107.35639Y23.0523
X110.46743Y21.87928
X110.56943Y33.40543
X112.40545Y33.09943
X97.43301Y54.84038
X97.43301Y53.78959
X97.43301Y52.63776
X98.55502Y54.12637
X98.55502Y53.07558
X98.55502Y51.92375
X97.99401Y50.65832
X97.99401Y49.60753
X97.99401Y48.4557
X99.26903Y47.85329
X99.26903Y46.8025
X99.26903Y45.65067
X98.19802Y47.13928
X98.19802Y46.08849
X98.19802Y44.93666
X98.47117Y38.64523
X99.52196Y38.64523
X100.67379Y38.64523
X97.97639Y37.69796
X99.02718Y37.69796
X100.17901Y37.69796
X95.80098Y46.40377
X95.80098Y45.35298
X95.80098Y44.20115
X99.28362Y72.74869
X100.33441Y72.74869
X101.48624Y72.74869
X100.15063Y71.42267
X101.20142Y71.42267
X102.35325Y71.42267
X102.17607Y70.19158
X102.17607Y69.14079
X102.17607Y67.98896
X96.46399Y68.91656
X96.46399Y67.86577
X96.46399Y66.71394
X95.23998Y69.73257
X95.23998Y68.68178
X95.23998Y67.52995
X93.55696Y69.98757
X93.55696Y68.93678
X93.55696Y67.78495
X102.38007Y58.71643
X102.38007Y57.66564
X102.38007Y56.51381
X103.50208Y57.64541
X103.50208Y56.59462
X103.50208Y55.44279
X105.13411Y56.4214
X105.13411Y55.37061
X105.13411Y54.21878
X109.36716Y57.59441
X109.36716Y56.54362
X109.36716Y55.39179
X110.54018Y58.86943
X110.54018Y57.81864
X110.54018Y56.66681
X111.86619Y58.76743
X111.86619Y57.71664
X111.86619Y56.56481
X113.09021Y58.92043
X113.09021Y57.86964
X113.09021Y56.71781
X114.41623Y58.92043
X114.41623Y57.86964
X114.41623Y56.71781
X115.94625Y58.81843
X115.94625Y57.76764
X115.94625Y56.61581
X117.22126Y58.81843
X117.22126Y57.76764
X117.22126Y56.61581
X118.29228Y57.49241
X118.29228Y56.44162
X118.29228Y55.28979
X109.36716Y60.70545
X109.36716Y59.65466
X109.36716Y58.50283
X108.41989Y61.81136
X108.41989Y60.76057
X108.41989Y59.60874
X107.58214Y62.74548
X107.42913Y61.74569
X107.58214Y60.54286
X106.51112Y63.45949
X106.51112Y62.4087
X106.51112Y61.25687
X105.56386Y64.5654
X105.56386Y63.51461
X105.56386Y62.36278
X104.6241Y65.95852
X104.6241Y64.90773
X104.6241Y63.7559
X103.36054Y67.06443
X103.36054Y66.01364
X103.36054Y64.86181
X91.66993Y63.20449
X91.66993Y62.1537
X91.66993Y61.00187
X92.74094Y62.43948
X92.74094Y61.38869
X92.74094Y60.23686
X93.70996Y61.67447
X93.70996Y60.62368
X93.70996Y59.47185
X94.83197Y60.85846
X94.83197Y59.80767
X94.83197Y58.65584
X81.25325Y72.63412
X81.25325Y71.58333
X81.25325Y70.4315
X82.59181Y72.48661
X82.59181Y71.43582
X82.59181Y70.28399
X118.70028Y54.17737
X118.70028Y53.12658
X118.70028Y51.97475
X118.75128Y50.70932
X118.75128Y49.65853
X118.75128Y48.50671
X118.85328Y47.19028
X118.85328Y46.13949
X118.85328Y44.98766
X118.85328Y43.21223
X118.85328Y42.16144
X118.85328Y41.00961
X118.85328Y39.23418
X118.85328Y38.18339
X118.85328Y37.03156
X118.80228Y34.38911
X118.80228Y33.33832
X118.80228Y32.18649
X118.34328Y30.92107
X118.34328Y29.87028
X118.34328Y28.71845
X118.75128Y22.04695
X118.75128Y20.99616
X118.75128Y19.84433
X117.98627Y20.51693
X117.98627Y19.46614
X117.98627Y18.31431
X107.44372Y12.3639
X108.49451Y12.3639
X109.64634Y12.3639
X112.28878Y12.2619
X113.33958Y12.2619
X114.4914Y12.2619
X103.29808Y14.70286
X103.29808Y13.65207
X103.29808Y12.50024
X101.71706Y15.05986
X101.71706Y14.00907
X101.71706Y12.85724
X99.98304Y16.64088
X99.98304Y15.59009
X99.98304Y14.43826
X99.26903Y20.72094
X99.26903Y19.67015
X99.26903Y18.51832
X98.96303Y25.05599
X98.96303Y24.0052
X98.96303Y22.85337
X98.86102Y29.13605
X98.86102Y28.08525
X98.86102Y26.93343
X98.04501Y32.50209
X98.04501Y31.4513
X98.04501Y30.29947
X104.06309Y33.5221
X104.06309Y32.47131
X104.06309Y31.31948
X104.21609Y29.95206
X104.21609Y28.90127
X104.21609Y27.74944
X105.23611Y21.63895
X106.15412Y21.35317
X105.89912Y22.29237
X116.96626Y54.26978
X110.33617Y55.5958
X109.87717Y54.21878
X109.92817Y52.99476
X110.33617Y51.87275
X103.60409Y51.97504
X103.60409Y50.8824
X103.24985Y49.54668
X103.60409Y54.00135
X83.41684Y31.89166
X81.9325Y30.3111
X80.36568Y28.81301
X31.03304Y31.65143
X59.25273Y17.19024
X60.41117Y17.19024
X61.56962Y17.19024
X53.46051Y17.19024
X54.61896Y17.19024
X55.7774Y17.19024
X56.93584Y17.19024
X58.09429Y17.19024
X69.75913Y16.91193
X70.91757Y16.91193
X72.07601Y16.91193
X63.96691Y16.91193
X65.12535Y16.91193
X66.2838Y16.91193
X67.44224Y16.91193
X68.60069Y16.91193
X50.06833Y15.65951
X51.22677Y15.65951
X52.38522Y15.65951
X44.27611Y15.65951
X45.43456Y15.65951
X46.593Y15.65951
X47.75144Y15.65951
X48.90989Y15.65951
X84.26244Y25.58608
X85.42088Y25.58608
X86.57933Y25.58608
X78.47022Y25.58608
X79.62866Y25.58608
X80.78711Y25.58608
X81.94555Y25.58608
X83.104Y25.58608
X82.83994Y23.63788
X83.99838Y23.63788
X85.15683Y23.63788
X77.04772Y23.63788
X78.20617Y23.63788
X79.36461Y23.63788
X80.52305Y23.63788
X81.6815Y23.63788
X80.92266Y21.96799
X82.0811Y21.96799
X83.23954Y21.96799
X75.13044Y21.96799
X76.28888Y21.96799
X77.44733Y21.96799
X78.60577Y21.96799
X79.76422Y21.96799
X79.16Y20.54549
X80.31844Y20.54549
X81.47688Y20.54549
X73.36778Y20.54549
X74.52622Y20.54549
X75.68466Y20.54549
X76.84311Y20.54549
X78.00155Y20.54549
X77.33549Y18.78282
X78.49393Y18.78282
X79.65237Y18.78282
X71.54327Y18.78282
X72.70171Y18.78282
X73.86015Y18.78282
X75.0186Y18.78282
X76.17704Y18.78282
X71.61216Y26.04307
X69.29527Y26.04307
X70.45371Y26.04307
X71.03491Y25.09474
X68.71802Y25.09474
X69.87647Y25.09474
X70.43018Y24.10517
X68.11329Y24.10517
X69.27173Y24.10517
X70.33397Y23.07437
X68.01708Y23.07437
X69.17552Y23.07437
X69.38564Y21.82367
X67.93462Y20.64169
X68.22719Y21.82367
X72.17566Y29.43783
X69.85877Y29.43783
X71.01722Y29.43783
X71.29605Y28.03594
X69.29527Y28.7094
X70.1376Y28.03594
X52.54929Y29.80204
X50.2324Y29.80204
X51.39084Y29.80204
X52.45651Y35.36834
X50.13963Y35.36834
X51.29807Y35.36834
X67.23814Y39.69769
X64.92126Y39.69769
X66.0797Y39.69769
X71.13455Y39.69769
X68.81767Y39.69769
X69.97611Y39.69769
X73.526Y38.74936
X71.20912Y38.74936
X72.36756Y38.74936
X80.00971Y30.83284
X77.69283Y30.83284
X78.85127Y30.83284
X73.76309Y32.31719
X71.4462Y32.31719
X72.60464Y32.31719
X81.21575Y39.24414
X78.89886Y39.24414
X80.0573Y39.24414
X90.15276Y32.31719
X87.83587Y32.31719
X88.99431Y32.31719
X88.29732Y30.58545
X85.98043Y30.58545
X87.13888Y30.58545
X86.93667Y28.94648
X84.61978Y28.94648
X85.77823Y28.94648
X84.40091Y27.33844
X82.08402Y27.33844
X83.24247Y27.33844
X94.42025Y32.28626
X92.10337Y32.28626
X93.26181Y32.28626
X94.57487Y36.95577
X92.25799Y36.95577
X93.41643Y36.95577
X96.36846Y31.04931
X94.05157Y31.04931
X95.21002Y31.04931
X92.19373Y30.6473
X89.87685Y30.6473
X91.03529Y30.6473
X5.39033Y26.30249
X3.07344Y26.30249
X4.23189Y26.30249
X5.4831Y24.57075
X3.16622Y24.57075
X4.32466Y24.57075
X7.95701Y23.27194
X5.64013Y23.27194
X6.79857Y23.27194
X109.04157Y38.09547
X110.24646Y38.62232
X109.34852Y38.85139
T03
X6.9161Y36.96536G85X6.0161Y36.96536
X6.91609Y28.31534G85X6.01606Y28.31534
X2.56603Y36.96541G85X1.96603Y36.96541
X2.56603Y28.31544G85X1.96603Y28.31544
T04
X39.55746Y61.01895
X37.05746Y61.01895
X35.05747Y61.01895
X32.55747Y61.01895
X74.56296Y72.35489
X74.56296Y69.81489
X74.56296Y67.27489
X74.56296Y64.73489
X7.9561Y42.25363
X7.9561Y44.79363
X7.9561Y47.33363
X7.9561Y49.87363
X7.9561Y52.41363
X7.9561Y54.95363
T05
X42.62644Y63.07802G85X42.62644Y64.37799
X29.48849Y64.37952G85X29.48849Y63.07955
M30