G04 Layer: TopPasteMaskLayer*
G04 EasyEDA Pro v2.2.32.3, 2026-04-14 17:29:08*
G04 Gerber Generator version 0.3*
G04 Scale: 100 percent, Rotated: No, Reflected: No*
G04 Dimensions in millimeters*
G04 Leading zeros omitted, absolute positions, 3 integers and 5 decimals*
%FSLAX35Y35*%
%MOMM*%
%ADD10R,0.889X0.889*%
%ADD11R,0.889X0.889*%
%ADD12R,0.762X0.8128*%
%ADD13R,0.3X1.2*%
%ADD14R,2.2X3.29999*%
%ADD15R,0.3002X1.25001*%
%ADD16R,0.3X1.25001*%
%ADD17R,2.0X2.49999*%
%ADD18R,1.10002X1.0*%
%ADD19R,1.016X0.9652*%
%ADD20R,0.9X0.9*%
%ADD21R,1.5X0.9*%
%ADD22R,0.9X1.5*%
%ADD23R,1.5X0.9*%
%ADD24R,0.7X1.6*%
%ADD25R,1.2X2.2*%
%ADD26R,1.6X1.5*%
%ADD27R,1.2X1.8*%
%ADD28R,2.99999X1.0*%
%ADD29R,2.49999X1.1*%
%ADD30R,0.889X0.889*%
%ADD31R,0.889X0.889*%
%ADD32R,2.0X2.0*%
%ADD33R,1.0X0.89992*%
%ADD34R,0.49022X0.98552*%
%ADD35R,0.89992X1.0*%
%ADD36R,0.762X0.762*%
%ADD37R,1.0X0.75001*%
%ADD38R,1.0X0.75001*%
%ADD39R,2.0X2.2*%
%ADD40R,1.25001X0.7*%
%ADD41R,1.0X1.10002*%
%ADD42R,1.10002X1.0*%
%ADD43R,1.0X1.10002*%
%ADD44R,0.9652X1.016*%
%ADD45R,0.9652X1.016*%
%ADD46R,0.6X1.2*%
%ADD47R,3.29999X2.4*%
%ADD48O,1.97099X0.60201*%
%ADD49R,3.6X2.0*%
%ADD50R,1.1X1.6*%
%ADD51R,1.1X1.6*%
%ADD52R,0.532X1.07201*%
%ADD53R,2.0X3.6*%
%ADD54R,1.6X1.1*%
%ADD55R,1.6X1.1*%
%ADD56R,1.1X2.49999*%
%ADD57R,1.3X6.50001*%
%ADD58R,1.8X2.99999*%
%ADD59R,2.0X2.2*%
%ADD60R,0.7X1.25001*%
G75*


G04 PolygonModel Start*
G36*
G01X3833550Y4503459D02*
G01X3833550Y4540484D01*
G01X3843550Y4550484D01*
G01X3874040Y4550484D01*
G01X3884040Y4560484D01*
G01X3884040Y4599234D01*
G01X3874040Y4609234D01*
G01X3843550Y4609234D01*
G01X3833550Y4619234D01*
G01X3833550Y4656260D01*
G01X3843550Y4666260D01*
G01X3972048Y4666260D01*
G01X3982048Y4656260D01*
G01X3982048Y4503459D01*
G01X3972048Y4493459D01*
G01X3843550Y4493459D01*
G01X3833550Y4503459D01*
G37*
G36*
G01X3663547Y4503459D02*
G01X3663547Y4540484D01*
G01X3653547Y4550484D01*
G01X3623057Y4550484D01*
G01X3613057Y4560484D01*
G01X3613057Y4599234D01*
G01X3623057Y4609234D01*
G01X3653547Y4609234D01*
G01X3663547Y4619234D01*
G01X3663547Y4656260D01*
G01X3653547Y4666260D01*
G01X3525049Y4666260D01*
G01X3515049Y4656260D01*
G01X3515049Y4503459D01*
G01X3525049Y4493459D01*
G01X3653547Y4493459D01*
G01X3663547Y4503459D01*
G37*
G36*
G01X3833550Y4758462D02*
G01X3833550Y4795487D01*
G01X3843550Y4805487D01*
G01X3874040Y4805487D01*
G01X3884040Y4815487D01*
G01X3884040Y4854238D01*
G01X3874040Y4864238D01*
G01X3843550Y4864238D01*
G01X3833550Y4874238D01*
G01X3833550Y4911263D01*
G01X3843550Y4921263D01*
G01X3972048Y4921263D01*
G01X3982048Y4911263D01*
G01X3982048Y4758462D01*
G01X3972048Y4748462D01*
G01X3843550Y4748462D01*
G01X3833550Y4758462D01*
G37*
G36*
G01X3663547Y4758462D02*
G01X3663547Y4795487D01*
G01X3653547Y4805487D01*
G01X3623057Y4805487D01*
G01X3613057Y4815487D01*
G01X3613057Y4854238D01*
G01X3623057Y4864238D01*
G01X3653547Y4864238D01*
G01X3663547Y4874238D01*
G01X3663547Y4911263D01*
G01X3653547Y4921263D01*
G01X3525049Y4921263D01*
G01X3515049Y4911263D01*
G01X3515049Y4758462D01*
G01X3525049Y4748462D01*
G01X3653547Y4748462D01*
G01X3663547Y4758462D01*
G37*
G36*
G01X646610Y3124035D02*
G01X756610Y3124035D01*
G01X756610Y3154037D01*
G01X646610Y3154037D01*
G01X646610Y3124035D01*
G37*
G36*
G01X756610Y3104025D02*
G01X646610Y3104025D01*
G01X646610Y3074022D01*
G01X756610Y3074022D01*
G01X756610Y3104025D01*
G37*
G36*
G01X756610Y3614044D02*
G01X646610Y3614044D01*
G01X646610Y3554044D01*
G01X756610Y3554044D01*
G01X756610Y3614044D01*
G37*
G36*
G01X646610Y3174048D02*
G01X756610Y3174048D01*
G01X756610Y3204050D01*
G01X646610Y3204050D01*
G01X646610Y3174048D01*
G37*
G36*
G01X756610Y3054025D02*
G01X646610Y3054025D01*
G01X646610Y2994025D01*
G01X756610Y2994025D01*
G01X756610Y3054025D01*
G37*
G36*
G01X646610Y2914040D02*
G01X756610Y2914040D01*
G01X756610Y2974040D01*
G01X646610Y2974040D01*
G01X646610Y2914040D01*
G37*
G36*
G01X646610Y3224035D02*
G01X756610Y3224035D01*
G01X756610Y3254037D01*
G01X646610Y3254037D01*
G01X646610Y3224035D01*
G37*
G36*
G01X646610Y3274047D02*
G01X756610Y3274047D01*
G01X756610Y3304050D01*
G01X646610Y3304050D01*
G01X646610Y3274047D01*
G37*
G36*
G01X756610Y3534034D02*
G01X646610Y3534034D01*
G01X646610Y3474034D01*
G01X756610Y3474034D01*
G01X756610Y3534034D01*
G37*
G36*
G01X646610Y3324035D02*
G01X756610Y3324035D01*
G01X756610Y3354037D01*
G01X646610Y3354037D01*
G01X646610Y3324035D01*
G37*
G36*
G01X646610Y3374022D02*
G01X756610Y3374022D01*
G01X756610Y3404024D01*
G01X646610Y3404024D01*
G01X646610Y3374022D01*
G37*
G36*
G01X646610Y3424034D02*
G01X756610Y3424034D01*
G01X756610Y3454037D01*
G01X646610Y3454037D01*
G01X646610Y3424034D01*
G37*
G36*
G01X746450Y2827061D02*
G01X746600Y2830048D01*
G01X746600Y2833040D01*
G01X746450Y2836027D01*
G01X746153Y2839004D01*
G01X745706Y2841963D01*
G01X745114Y2844894D01*
G01X744375Y2847795D01*
G01X743493Y2850652D01*
G01X742470Y2853464D01*
G01X741309Y2856220D01*
G01X740011Y2858917D01*
G01X738578Y2861544D01*
G01X737019Y2864096D01*
G01X735335Y2866568D01*
G01X733526Y2868953D01*
G01X731604Y2871244D01*
G01X729569Y2873439D01*
G01X727428Y2875526D01*
G01X725185Y2877508D01*
G01X722846Y2879372D01*
G01X720417Y2881117D01*
G01X717903Y2882740D01*
G01X715312Y2884236D01*
G01X712650Y2885603D01*
G01X709925Y2886832D01*
G01X707138Y2887924D01*
G01X704304Y2888879D01*
G01X701423Y2889689D01*
G01X698507Y2890355D01*
G01X695561Y2890873D01*
G01X692592Y2891246D01*
G01X689607Y2891470D01*
G01X686618Y2891544D01*
G01X606618Y2891544D01*
G01X603628Y2891470D01*
G01X600644Y2891246D01*
G01X597674Y2890873D01*
G01X594728Y2890355D01*
G01X591812Y2889689D01*
G01X588932Y2888879D01*
G01X586097Y2887924D01*
G01X583311Y2886832D01*
G01X580585Y2885603D01*
G01X577923Y2884236D01*
G01X575333Y2882740D01*
G01X572818Y2881117D01*
G01X570390Y2879372D01*
G01X568050Y2877508D01*
G01X565808Y2875526D01*
G01X563666Y2873439D01*
G01X561632Y2871244D01*
G01X559709Y2868953D01*
G01X557901Y2866568D01*
G01X556217Y2864096D01*
G01X554657Y2861544D01*
G01X553224Y2858917D01*
G01X551927Y2856220D01*
G01X550766Y2853464D01*
G01X549742Y2850652D01*
G01X548861Y2847795D01*
G01X548122Y2844894D01*
G01X547530Y2841963D01*
G01X547083Y2839004D01*
G01X546786Y2836027D01*
G01X546636Y2833040D01*
G01X546636Y2830048D01*
G01X546786Y2827061D01*
G01X547083Y2824084D01*
G01X547530Y2821125D01*
G01X548122Y2818194D01*
G01X548861Y2815293D01*
G01X549742Y2812435D01*
G01X550766Y2809624D01*
G01X551927Y2806868D01*
G01X553224Y2804170D01*
G01X554657Y2801544D01*
G01X556217Y2798991D01*
G01X557901Y2796520D01*
G01X559709Y2794135D01*
G01X561632Y2791844D01*
G01X563666Y2789649D01*
G01X565808Y2787561D01*
G01X568050Y2785580D01*
G01X570390Y2783716D01*
G01X572818Y2781971D01*
G01X575333Y2780348D01*
G01X577923Y2778851D01*
G01X580585Y2777485D01*
G01X583311Y2776256D01*
G01X586097Y2775163D01*
G01X588932Y2774208D01*
G01X591812Y2773398D01*
G01X594728Y2772733D01*
G01X597674Y2772214D01*
G01X600644Y2771841D01*
G01X603628Y2771618D01*
G01X606618Y2771544D01*
G01X686618Y2771544D01*
G01X689607Y2771618D01*
G01X692592Y2771841D01*
G01X695561Y2772214D01*
G01X698507Y2772733D01*
G01X701423Y2773398D01*
G01X704304Y2774208D01*
G01X707138Y2775163D01*
G01X709925Y2776256D01*
G01X712650Y2777485D01*
G01X715312Y2778851D01*
G01X717903Y2780348D01*
G01X720417Y2781971D01*
G01X722846Y2783716D01*
G01X725185Y2785580D01*
G01X727428Y2787561D01*
G01X729569Y2789649D01*
G01X731604Y2791844D01*
G01X733526Y2794135D01*
G01X735335Y2796520D01*
G01X737019Y2798991D01*
G01X738578Y2801544D01*
G01X740011Y2804170D01*
G01X741309Y2806868D01*
G01X742470Y2809624D01*
G01X743493Y2812435D01*
G01X744375Y2815293D01*
G01X745114Y2818194D01*
G01X745706Y2821125D01*
G01X746153Y2824084D01*
G01X746450Y2827061D01*
G37*
G36*
G01X746600Y3698037D02*
G01X746450Y3701024D01*
G01X746153Y3704001D01*
G01X745706Y3706960D01*
G01X745114Y3709891D01*
G01X744375Y3712792D01*
G01X743493Y3715649D01*
G01X742470Y3718461D01*
G01X741309Y3721217D01*
G01X740011Y3723914D01*
G01X738578Y3726541D01*
G01X737019Y3729093D01*
G01X735335Y3731565D01*
G01X733526Y3733950D01*
G01X731604Y3736241D01*
G01X729569Y3738436D01*
G01X727428Y3740523D01*
G01X725185Y3742505D01*
G01X722846Y3744369D01*
G01X720417Y3746114D01*
G01X717903Y3747737D01*
G01X715312Y3749233D01*
G01X712650Y3750600D01*
G01X709925Y3751829D01*
G01X707138Y3752921D01*
G01X704304Y3753876D01*
G01X701423Y3754686D01*
G01X698507Y3755352D01*
G01X695561Y3755870D01*
G01X692592Y3756243D01*
G01X689607Y3756467D01*
G01X686618Y3756541D01*
G01X606618Y3756541D01*
G01X603628Y3756467D01*
G01X600644Y3756243D01*
G01X597674Y3755870D01*
G01X594728Y3755352D01*
G01X591812Y3754686D01*
G01X588932Y3753876D01*
G01X586097Y3752921D01*
G01X583311Y3751829D01*
G01X580585Y3750600D01*
G01X577923Y3749233D01*
G01X575333Y3747737D01*
G01X572818Y3746114D01*
G01X570390Y3744369D01*
G01X568050Y3742505D01*
G01X565808Y3740523D01*
G01X563666Y3738436D01*
G01X561632Y3736241D01*
G01X559709Y3733950D01*
G01X557901Y3731565D01*
G01X556217Y3729093D01*
G01X554657Y3726541D01*
G01X553224Y3723914D01*
G01X551927Y3721217D01*
G01X550766Y3718461D01*
G01X549742Y3715649D01*
G01X548861Y3712792D01*
G01X548122Y3709891D01*
G01X547530Y3706960D01*
G01X547083Y3704001D01*
G01X546786Y3701024D01*
G01X546636Y3698037D01*
G01X546636Y3695045D01*
G01X546786Y3692058D01*
G01X547083Y3689081D01*
G01X547530Y3686122D01*
G01X548122Y3683191D01*
G01X548861Y3680290D01*
G01X549742Y3677432D01*
G01X550766Y3674621D01*
G01X551927Y3671865D01*
G01X553224Y3669167D01*
G01X554657Y3666541D01*
G01X556217Y3663988D01*
G01X557901Y3661517D01*
G01X559709Y3659132D01*
G01X561632Y3656841D01*
G01X563666Y3654646D01*
G01X565808Y3652558D01*
G01X568050Y3650577D01*
G01X570390Y3648713D01*
G01X572818Y3646968D01*
G01X575333Y3645345D01*
G01X577923Y3643848D01*
G01X580585Y3642482D01*
G01X583311Y3641253D01*
G01X586097Y3640160D01*
G01X588932Y3639205D01*
G01X591812Y3638395D01*
G01X594728Y3637730D01*
G01X597674Y3637211D01*
G01X600644Y3636838D01*
G01X603628Y3636615D01*
G01X606618Y3636541D01*
G01X686618Y3636541D01*
G01X689607Y3636615D01*
G01X692592Y3636838D01*
G01X695561Y3637211D01*
G01X698507Y3637730D01*
G01X701423Y3638395D01*
G01X704304Y3639205D01*
G01X707138Y3640160D01*
G01X709925Y3641253D01*
G01X712650Y3642482D01*
G01X715312Y3643848D01*
G01X717903Y3645345D01*
G01X720417Y3646968D01*
G01X722846Y3648713D01*
G01X725185Y3650577D01*
G01X727428Y3652558D01*
G01X729569Y3654646D01*
G01X731604Y3656841D01*
G01X733526Y3659132D01*
G01X735335Y3661517D01*
G01X737019Y3663988D01*
G01X738578Y3666541D01*
G01X740011Y3669167D01*
G01X741309Y3671865D01*
G01X742470Y3674621D01*
G01X743493Y3677432D01*
G01X744375Y3680290D01*
G01X745114Y3683191D01*
G01X745706Y3686122D01*
G01X746153Y3689081D01*
G01X746450Y3692058D01*
G01X746600Y3695045D01*
G01X746600Y3698037D01*
G37*
G36*
G01X301434Y3692058D02*
G01X301584Y3695045D01*
G01X301584Y3698037D01*
G01X301434Y3701024D01*
G01X301137Y3704001D01*
G01X300690Y3706960D01*
G01X300098Y3709891D01*
G01X299359Y3712792D01*
G01X298478Y3715649D01*
G01X297454Y3718461D01*
G01X296293Y3721217D01*
G01X294995Y3723914D01*
G01X293563Y3726541D01*
G01X292003Y3729093D01*
G01X290319Y3731565D01*
G01X288511Y3733950D01*
G01X286588Y3736241D01*
G01X284553Y3738436D01*
G01X282412Y3740523D01*
G01X280169Y3742505D01*
G01X277830Y3744369D01*
G01X275402Y3746114D01*
G01X272887Y3747737D01*
G01X270296Y3749233D01*
G01X267634Y3750600D01*
G01X264909Y3751829D01*
G01X262123Y3752921D01*
G01X259288Y3753876D01*
G01X256408Y3754686D01*
G01X253492Y3755352D01*
G01X250545Y3755870D01*
G01X247576Y3756243D01*
G01X244592Y3756467D01*
G01X241602Y3756541D01*
G01X211602Y3756541D01*
G01X208612Y3756467D01*
G01X205628Y3756243D01*
G01X202659Y3755870D01*
G01X199712Y3755352D01*
G01X196796Y3754686D01*
G01X193916Y3753876D01*
G01X191081Y3752921D01*
G01X188295Y3751829D01*
G01X185570Y3750600D01*
G01X182908Y3749233D01*
G01X180317Y3747737D01*
G01X177802Y3746114D01*
G01X175374Y3744369D01*
G01X173035Y3742505D01*
G01X170792Y3740523D01*
G01X168651Y3738436D01*
G01X166616Y3736241D01*
G01X164693Y3733950D01*
G01X162885Y3731565D01*
G01X161201Y3729093D01*
G01X159641Y3726541D01*
G01X158209Y3723914D01*
G01X156911Y3721217D01*
G01X155750Y3718461D01*
G01X154726Y3715649D01*
G01X153845Y3712792D01*
G01X153106Y3709891D01*
G01X152514Y3706960D01*
G01X152067Y3704001D01*
G01X151770Y3701024D01*
G01X151620Y3698037D01*
G01X151620Y3695045D01*
G01X151770Y3692058D01*
G01X152067Y3689081D01*
G01X152514Y3686122D01*
G01X153106Y3683191D01*
G01X153845Y3680290D01*
G01X154726Y3677432D01*
G01X155750Y3674621D01*
G01X156911Y3671865D01*
G01X158209Y3669167D01*
G01X159641Y3666541D01*
G01X161201Y3663988D01*
G01X162885Y3661517D01*
G01X164693Y3659132D01*
G01X166616Y3656841D01*
G01X168651Y3654646D01*
G01X170792Y3652558D01*
G01X173035Y3650577D01*
G01X175374Y3648713D01*
G01X177802Y3646968D01*
G01X180317Y3645345D01*
G01X182908Y3643848D01*
G01X185570Y3642482D01*
G01X188295Y3641253D01*
G01X191081Y3640160D01*
G01X193916Y3639205D01*
G01X196796Y3638395D01*
G01X199712Y3637730D01*
G01X202659Y3637211D01*
G01X205628Y3636838D01*
G01X208612Y3636615D01*
G01X211602Y3636541D01*
G01X241602Y3636541D01*
G01X244592Y3636615D01*
G01X247576Y3636838D01*
G01X250545Y3637211D01*
G01X253492Y3637730D01*
G01X256408Y3638395D01*
G01X259288Y3639205D01*
G01X262123Y3640160D01*
G01X264909Y3641253D01*
G01X267634Y3642482D01*
G01X270296Y3643848D01*
G01X272887Y3645345D01*
G01X275402Y3646968D01*
G01X277830Y3648713D01*
G01X280169Y3650577D01*
G01X282412Y3652558D01*
G01X284553Y3654646D01*
G01X286588Y3656841D01*
G01X288511Y3659132D01*
G01X290319Y3661517D01*
G01X292003Y3663988D01*
G01X293563Y3666541D01*
G01X294995Y3669167D01*
G01X296293Y3671865D01*
G01X297454Y3674621D01*
G01X298478Y3677432D01*
G01X299359Y3680290D01*
G01X300098Y3683191D01*
G01X300690Y3686122D01*
G01X301137Y3689081D01*
G01X301434Y3692058D01*
G37*
G36*
G01X301584Y2833040D02*
G01X301434Y2836027D01*
G01X301137Y2839004D01*
G01X300690Y2841963D01*
G01X300098Y2844894D01*
G01X299359Y2847795D01*
G01X298478Y2850652D01*
G01X297454Y2853464D01*
G01X296293Y2856220D01*
G01X294995Y2858917D01*
G01X293563Y2861544D01*
G01X292003Y2864096D01*
G01X290319Y2866568D01*
G01X288511Y2868953D01*
G01X286588Y2871244D01*
G01X284553Y2873439D01*
G01X282412Y2875526D01*
G01X280169Y2877508D01*
G01X277830Y2879372D01*
G01X275402Y2881117D01*
G01X272887Y2882740D01*
G01X270296Y2884236D01*
G01X267634Y2885603D01*
G01X264909Y2886832D01*
G01X262123Y2887924D01*
G01X259288Y2888879D01*
G01X256408Y2889689D01*
G01X253492Y2890355D01*
G01X250545Y2890873D01*
G01X247576Y2891246D01*
G01X244592Y2891470D01*
G01X241602Y2891544D01*
G01X211602Y2891544D01*
G01X208612Y2891470D01*
G01X205628Y2891246D01*
G01X202659Y2890873D01*
G01X199712Y2890355D01*
G01X196796Y2889689D01*
G01X193916Y2888879D01*
G01X191081Y2887924D01*
G01X188295Y2886832D01*
G01X185570Y2885603D01*
G01X182908Y2884236D01*
G01X180317Y2882740D01*
G01X177802Y2881117D01*
G01X175374Y2879372D01*
G01X173035Y2877508D01*
G01X170792Y2875526D01*
G01X168651Y2873439D01*
G01X166616Y2871244D01*
G01X164693Y2868953D01*
G01X162885Y2866568D01*
G01X161201Y2864096D01*
G01X159641Y2861544D01*
G01X158209Y2858917D01*
G01X156911Y2856220D01*
G01X155750Y2853464D01*
G01X154726Y2850652D01*
G01X153845Y2847795D01*
G01X153106Y2844894D01*
G01X152514Y2841963D01*
G01X152067Y2839004D01*
G01X151770Y2836027D01*
G01X151620Y2833040D01*
G01X151620Y2830048D01*
G01X151770Y2827061D01*
G01X152067Y2824084D01*
G01X152514Y2821125D01*
G01X153106Y2818194D01*
G01X153845Y2815293D01*
G01X154726Y2812435D01*
G01X155750Y2809624D01*
G01X156911Y2806868D01*
G01X158209Y2804170D01*
G01X159641Y2801544D01*
G01X161201Y2798991D01*
G01X162885Y2796520D01*
G01X164693Y2794135D01*
G01X166616Y2791844D01*
G01X168651Y2789649D01*
G01X170792Y2787561D01*
G01X173035Y2785580D01*
G01X175374Y2783716D01*
G01X177802Y2781971D01*
G01X180317Y2780348D01*
G01X182908Y2778851D01*
G01X185570Y2777485D01*
G01X188295Y2776256D01*
G01X191081Y2775163D01*
G01X193916Y2774208D01*
G01X196796Y2773398D01*
G01X199712Y2772733D01*
G01X202659Y2772214D01*
G01X205628Y2771841D01*
G01X208612Y2771618D01*
G01X211602Y2771544D01*
G01X241602Y2771544D01*
G01X244592Y2771618D01*
G01X247576Y2771841D01*
G01X250545Y2772214D01*
G01X253492Y2772733D01*
G01X256408Y2773398D01*
G01X259288Y2774208D01*
G01X262123Y2775163D01*
G01X264909Y2776256D01*
G01X267634Y2777485D01*
G01X270296Y2778851D01*
G01X272887Y2780348D01*
G01X275402Y2781971D01*
G01X277830Y2783716D01*
G01X280169Y2785580D01*
G01X282412Y2787561D01*
G01X284553Y2789649D01*
G01X286588Y2791844D01*
G01X288511Y2794135D01*
G01X290319Y2796520D01*
G01X292003Y2798991D01*
G01X293563Y2801544D01*
G01X294995Y2804170D01*
G01X296293Y2806868D01*
G01X297454Y2809624D01*
G01X298478Y2812435D01*
G01X299359Y2815293D01*
G01X300098Y2818194D01*
G01X300690Y2821125D01*
G01X301137Y2824084D01*
G01X301434Y2827061D01*
G01X301584Y2830048D01*
G01X301584Y2833040D01*
G37*
G36*
G01X7506958Y5401972D02*
G01X7506958Y5429623D01*
G01X7534377Y5458998D01*
G01X7584705Y5458998D01*
G01X7591106Y5452597D01*
G01X7591106Y5378998D01*
G01X7584705Y5372597D01*
G01X7534377Y5372597D01*
G01X7506958Y5401972D01*
G37*
G36*
G01X7455394Y5400847D02*
G01X7455394Y5428498D01*
G01X7427974Y5457873D01*
G01X7377647Y5457873D01*
G01X7371246Y5451472D01*
G01X7371246Y5377873D01*
G01X7377647Y5371472D01*
G01X7427974Y5371472D01*
G01X7455394Y5400847D01*
G37*
G36*
G01X3477415Y2748892D02*
G01X3514441Y2748892D01*
G01X3524441Y2738892D01*
G01X3524441Y2708401D01*
G01X3534441Y2698402D01*
G01X3573191Y2698402D01*
G01X3583191Y2708401D01*
G01X3583191Y2738892D01*
G01X3593191Y2748892D01*
G01X3630217Y2748892D01*
G01X3640216Y2738892D01*
G01X3640216Y2610393D01*
G01X3630217Y2600393D01*
G01X3477415Y2600393D01*
G01X3467415Y2610393D01*
G01X3467415Y2738892D01*
G01X3477415Y2748892D01*
G37*
G36*
G01X3477415Y2918894D02*
G01X3514441Y2918894D01*
G01X3524441Y2928894D01*
G01X3524441Y2959384D01*
G01X3534441Y2969384D01*
G01X3573191Y2969384D01*
G01X3583191Y2959384D01*
G01X3583191Y2928894D01*
G01X3593191Y2918894D01*
G01X3630217Y2918894D01*
G01X3640216Y2928894D01*
G01X3640216Y3057392D01*
G01X3630217Y3067392D01*
G01X3477415Y3067392D01*
G01X3467415Y3057392D01*
G01X3467415Y2928894D01*
G01X3477415Y2918894D01*
G37*
G36*
G01X6104595Y2810190D02*
G01X6161994Y2810190D01*
G01X6161994Y2960190D01*
G01X6104595Y2960190D01*
G01X6104595Y2810190D01*
G37*
G36*
G01X6404594Y2810190D02*
G01X6461993Y2810190D01*
G01X6461993Y2960190D01*
G01X6404594Y2960190D01*
G01X6404594Y2810190D01*
G37*
G36*
G01X6104595Y3149689D02*
G01X6161994Y3149689D01*
G01X6161994Y3299689D01*
G01X6104595Y3299689D01*
G01X6104595Y3149689D01*
G37*
G36*
G01X6404594Y3149689D02*
G01X6461993Y3149689D01*
G01X6461993Y3299689D01*
G01X6404594Y3299689D01*
G01X6404594Y3149689D01*
G37*
G36*
G01X6283281Y3308940D02*
G01X6278280Y3308940D01*
G03X6195280Y3225940I4867J-87866D01*
G01X6195280Y3225940D01*
G01X6195280Y3095940D01*
G01X6195280Y3078940D01*
G01X6195280Y3078940D01*
G03X6255280Y3018940I84517J24517D01*
G01X6255280Y2809939D01*
G01X6311282Y2809939D01*
G01X6311282Y3018940D01*
G03X6371282Y3078940I-24517J84517D01*
G01X6371282Y3078940D01*
G01X6371282Y3098940D01*
G01X6371282Y3220939D01*
G01X6371282Y3220939D01*
G03X6283281Y3308940I-88001J0D01*
G37*

G04 Pad Start*
G54D10*
G01X1835055Y4860363D03*
G01X1989995Y4860363D03*
G54D11*
G01X4477858Y6722856D03*
G01X4477858Y6567916D03*
G54D12*
G01X1585628Y5705832D03*
G01X1586159Y5862466D03*
G54D13*
G01X7274894Y4801788D03*
G01X7324805Y4801788D03*
G01X7374716Y4801788D03*
G01X7424754Y4801788D03*
G01X7474792Y4801788D03*
G01X7524830Y4801788D03*
G01X7574868Y4801788D03*
G01X7624906Y4801788D03*
G01X7674690Y4801788D03*
G01X7724728Y4801788D03*
G01X7774766Y4801788D03*
G01X7824804Y4801788D03*
G01X7874842Y4801788D03*
G01X7924880Y4801788D03*
G01X7974791Y4801788D03*
G01X8024702Y4801788D03*
G01X8074740Y4801788D03*
G01X8124778Y4801788D03*
G01X8174816Y4801788D03*
G01X8224854Y4801788D03*
G01X8274892Y4801788D03*
G01X8324803Y4801788D03*
G01X8374714Y4801788D03*
G01X8424752Y4801788D03*
G01X8474790Y4801788D03*
G01X8524828Y4801788D03*
G01X8574866Y4801788D03*
G01X8624904Y4801788D03*
G01X8674688Y4801788D03*
G01X8724726Y4801788D03*
G01X8774764Y4801788D03*
G01X8824802Y4801788D03*
G01X8874840Y4801788D03*
G01X8924878Y4801788D03*
G01X8974789Y4801788D03*
G01X9024700Y4801788D03*
G01X9074738Y4801788D03*
G01X9124776Y4801788D03*
G01X9174814Y4801788D03*
G01X9224852Y4801788D03*
G54D14*
G01X7115001Y4538212D03*
G01X9384999Y4538212D03*
G54D16*
G01X2787144Y4828753D03*
G01X2837131Y4828753D03*
G01X2887144Y4828753D03*
G01X2937131Y4828753D03*
G01X2987144Y4828753D03*
G01X3037131Y4828753D03*
G54D17*
G01X2618133Y4571247D03*
G01X3206143Y4571247D03*
G54D18*
G01X2978439Y5499488D03*
G01X2978439Y5659467D03*
G54D19*
G01X1781364Y5701069D03*
G01X1781364Y5859819D03*
G01X1975166Y5701069D03*
G01X1975166Y5859819D03*
G01X2402642Y5701069D03*
G01X2402642Y5859819D03*
G01X2586244Y5701069D03*
G01X2586244Y5859819D03*
G54D18*
G01X4855263Y1985542D03*
G01X4855263Y2145521D03*
G01X5059265Y1985542D03*
G01X5059265Y2145521D03*
G54D20*
G01X5438360Y6128763D03*
G01X5298355Y6128763D03*
G01X5578365Y6128763D03*
G01X5578365Y6268768D03*
G01X5438360Y6268768D03*
G01X5298355Y6268768D03*
G01X5298355Y5988758D03*
G01X5438360Y5988758D03*
G01X5578365Y5988758D03*
G54D21*
G01X6449377Y6662770D03*
G01X6449377Y6535770D03*
G01X6449377Y6408770D03*
G01X6449377Y6281770D03*
G01X6449377Y6154770D03*
G01X6449377Y6027770D03*
G01X6449377Y5900770D03*
G01X6449377Y5773770D03*
G01X6449377Y5646770D03*
G01X6449377Y5519770D03*
G01X6449377Y5392770D03*
G01X6449377Y5265770D03*
G01X6449377Y5138770D03*
G01X6449377Y5011770D03*
G54D22*
G01X6272872Y4886777D03*
G01X6145872Y4883779D03*
G01X6018872Y4883779D03*
G01X5891872Y4883779D03*
G01X5764872Y4883779D03*
G01X5637872Y4883779D03*
G01X5510872Y4883779D03*
G01X5383872Y4883779D03*
G01X5256872Y4883779D03*
G01X5129872Y4883779D03*
G01X5002872Y4883779D03*
G01X4875872Y4883779D03*
G54D23*
G01X4699368Y5011770D03*
G01X4699368Y5138770D03*
G01X4699368Y5265770D03*
G01X4699368Y5392770D03*
G01X4699368Y5519770D03*
G01X4699368Y5646770D03*
G01X4699368Y5773770D03*
G01X4699368Y5900770D03*
G01X4699368Y6027770D03*
G01X4699368Y6154770D03*
G01X4699368Y6281770D03*
G01X4699368Y6408770D03*
G01X4699368Y6535770D03*
G01X4699368Y6662770D03*
G54D24*
G01X1718132Y6151090D03*
G01X1828114Y6151090D03*
G01X2378126Y6151090D03*
G01X1938121Y6151090D03*
G01X2158136Y6151090D03*
G01X2598115Y6151090D03*
G01X2048129Y6151090D03*
G01X2268118Y6151090D03*
G54D25*
G01X1168146Y7211083D03*
G01X2718105Y7211083D03*
G54D26*
G01X1233119Y6256094D03*
G54D27*
G01X2718105Y6281087D03*
G54D24*
G01X2488133Y6151090D03*
G54D28*
G01X10022134Y4982764D03*
G01X10582133Y4982764D03*
G54D11*
G01X10863141Y4915495D03*
G01X10863141Y5070435D03*
G54D29*
G01X11290738Y3559856D03*
G01X11720760Y3559856D03*
G54D10*
G01X2421562Y5523371D03*
G01X2576502Y5523371D03*
G54D11*
G01X2152228Y3917820D03*
G01X2152228Y3762880D03*
G54D30*
G01X1091414Y3655778D03*
G01X1091414Y3810718D03*
G54D11*
G01X8860519Y6562827D03*
G01X8860519Y6407887D03*
G54D10*
G01X8108136Y6222081D03*
G01X8263076Y6222081D03*
G54D11*
G01X8870720Y6904532D03*
G01X8870720Y6749592D03*
G54D30*
G01X8880920Y7091296D03*
G01X8880920Y7246236D03*
G54D31*
G01X9007686Y6216980D03*
G01X8852746Y6216980D03*
G54D32*
G01X10184832Y1891227D03*
G01X10184832Y2311227D03*
G01X10664238Y3905753D03*
G01X10664238Y4325753D03*
G54D33*
G01X9900930Y4037556D03*
G01X9900930Y4207555D03*
G54D34*
G01X10577537Y3310384D03*
G01X10577537Y3533904D03*
G54D35*
G01X4224551Y3474847D03*
G01X4054551Y3474847D03*
G54D36*
G01X1691671Y2391931D03*
G01X1551971Y2391931D03*
G54D37*
G01X2055369Y5054165D03*
G01X2289887Y5054165D03*
G54D38*
G01X2289887Y5237768D03*
G01X2055369Y5237768D03*
G54D39*
G01X10982142Y4324856D03*
G01X11662151Y4324856D03*
G54D40*
G01X2164430Y4333151D03*
G01X2164430Y4143159D03*
G01X2364429Y4238155D03*
G01X1776824Y4700356D03*
G01X1776824Y4510364D03*
G01X1976824Y4605360D03*
G54D41*
G01X10264816Y4039252D03*
G01X10104837Y4039252D03*
G01X4583343Y3473145D03*
G01X4423364Y3473145D03*
G54D42*
G01X11725052Y5086372D03*
G01X11725052Y5246351D03*
G54D43*
G01X6992877Y7000647D03*
G01X7152856Y7000647D03*
G01X6992877Y7194449D03*
G01X7152856Y7194449D03*
G01X1766239Y4131053D03*
G01X1926219Y4131053D03*
G54D42*
G01X2473532Y4083536D03*
G01X2473532Y3923557D03*
G54D44*
G01X1693726Y2571874D03*
G01X1534976Y2571874D03*
G01X1683525Y2770777D03*
G01X1524775Y2770777D03*
G54D45*
G01X1769219Y4338715D03*
G01X1927969Y4338715D03*
G54D19*
G01X2235270Y4543655D03*
G01X2235270Y4702405D03*
G54D43*
G01X6992877Y6613042D03*
G01X7152856Y6613042D03*
G01X6992877Y6806844D03*
G01X7152856Y6806844D03*
G54D46*
G01X11136747Y4895937D03*
G01X11263747Y4895937D03*
G01X11390747Y4895937D03*
G01X11517747Y4895937D03*
G01X11517747Y5477597D03*
G01X11390747Y5477597D03*
G01X11263747Y5477597D03*
G01X11136747Y5477597D03*
G54D47*
G01X11327247Y5186767D03*
G54D48*
G01X1377933Y3926101D03*
G01X1377933Y3799101D03*
G01X1377933Y3672101D03*
G01X1377933Y3545101D03*
G01X1377933Y3418101D03*
G01X1377933Y3291101D03*
G01X1377933Y3164101D03*
G01X1377933Y3037101D03*
G01X1925049Y3926101D03*
G01X1925049Y3799101D03*
G01X1925049Y3672101D03*
G01X1925049Y3545101D03*
G01X1925049Y3418101D03*
G01X1925049Y3291101D03*
G01X1925049Y3164101D03*
G01X1925049Y3037101D03*
G01X8484664Y6399789D03*
G01X8484664Y6526789D03*
G01X8484664Y6653789D03*
G01X8484664Y6780789D03*
G01X8484664Y6907789D03*
G01X8484664Y7034789D03*
G01X8484664Y7161789D03*
G01X8484664Y7288789D03*
G01X7937548Y6399789D03*
G01X7937548Y6526789D03*
G01X7937548Y6653789D03*
G01X7937548Y6780789D03*
G01X7937548Y6907789D03*
G01X7937548Y7034789D03*
G01X7937548Y7161789D03*
G01X7937548Y7288789D03*
G54D49*
G01X3865850Y4283552D03*
G54D50*
G01X4095850Y3733552D03*
G54D51*
G01X3865850Y3733552D03*
G54D50*
G01X3635850Y3733552D03*
G54D52*
G01X3695643Y5765783D03*
G01X3600647Y5765783D03*
G01X3505651Y5765783D03*
G01X3505651Y5535964D03*
G01X3600647Y5535964D03*
G01X3695643Y5535964D03*
G54D10*
G01X7404327Y5247968D03*
G01X7559267Y5247968D03*
G54D42*
G01X2973594Y2839120D03*
G01X2973594Y2679141D03*
G01X2718846Y2839120D03*
G01X2718846Y2679141D03*
G01X3228342Y2839120D03*
G01X3228342Y2679141D03*
G54D31*
G01X3142610Y5028665D03*
G01X2987670Y5028665D03*
G54D53*
G01X3824623Y2563589D03*
G54D54*
G01X4374623Y2793590D03*
G54D55*
G01X4374623Y2563589D03*
G54D54*
G01X4374623Y2333589D03*
G54D42*
G01X2784636Y5659457D03*
G01X2784636Y5499477D03*
G54D10*
G01X8760944Y3993352D03*
G01X8915884Y3993352D03*
G54D56*
G01X4595149Y3844642D03*
G01X4595149Y4274664D03*
G54D30*
G01X11026343Y3724017D03*
G01X11026343Y3569077D03*
G54D57*
G01X10809452Y1748219D03*
G01X11059439Y1748219D03*
G01X11309451Y1748219D03*
G01X11559438Y1748219D03*
G54D58*
G01X11849455Y1383221D03*
G01X10519435Y1383221D03*
G54D57*
G01X10809452Y2819233D03*
G01X11059439Y2819233D03*
G01X11309451Y2819233D03*
G01X11559438Y2819233D03*
G54D58*
G01X11849455Y2454235D03*
G01X10519435Y2454235D03*
G54D28*
G01X5217872Y3386444D03*
G01X5777871Y3386444D03*
G54D32*
G01X5451971Y2350233D03*
G01X5451971Y2770233D03*
G54D59*
G01X6592685Y2376631D03*
G01X5912677Y2376631D03*
G54D60*
G01X6857684Y3287541D03*
G01X6667692Y3287541D03*
G01X6762688Y3087541D03*
G54D44*
G01X6482688Y3464386D03*
G01X6323938Y3464386D03*
G01X5860480Y2918678D03*
G01X5701730Y2918678D03*
G54D45*
G01X5563668Y4104112D03*
G01X5722418Y4104112D03*
G54D30*
G01X6104779Y3601616D03*
G01X6104779Y3446676D03*
G04 Pad End*

M02*

