G04 Layer: BottomLayer*
G04 EasyEDA Pro v2.2.32.3, 2026-04-14 17:29:08*
G04 Gerber Generator version 0.3*
G04 Scale: 100 percent, Rotated: No, Reflected: No*
G04 Dimensions in millimeters*
G04 Leading zeros omitted, absolute positions, 3 integers and 5 decimals*
%FSLAX35Y35*%
%MOMM*%
%ADD10C,0.2032*%
%ADD11O,2.0X1.1*%
%ADD12C,2.0*%
%ADD13C,1.6*%
%ADD14O,1.8X3.19999*%
%ADD15R,1.7014X1.7*%
%ADD16R,1.7X1.7*%
%ADD17C,1.7*%
%ADD18R,1.7X1.7*%
%ADD19C,0.6*%
%ADD20C,0.4*%
%ADD21C,0.3*%
%ADD22C,0.5*%
%ADD23C,1.0*%
%ADD24C,0.8*%
G75*


G04 Copper Start*
G36*
G01X35814Y873347D02*
G01X35814Y6526653D01*
G03X781628Y6618372I314186J523347D01*
G03X873348Y7364186I-431628J431628D01*
G01X4608442Y7364186D01*
G01X4608442Y6811784D01*
G03X4644256Y6775970I35814J0D01*
G01X6500680Y6775970D01*
G03X6536494Y6811784I0J35814D01*
G01X6536494Y7364186D01*
G01X11126653Y7364186D01*
G03X11218362Y6618382I523348J-314186D01*
G03X11964162Y6526638I431638J431618D01*
G01X11964162Y873362D01*
G03X11218362Y781618I-314162J-523362D01*
G03X11126653Y35814I431638J-431618D01*
G01X873347Y35814D01*
G03X781628Y781628I-523347J314186D01*
G03X35814Y873347I-431628J-431628D01*
G37*
%LPC*%
G36*
G01X665414Y2975028D02*
G03X523783Y2975028I-70815J0D01*
G03X665414Y2975028I70815J0D01*
G37*
G36*
G01X665414Y3553031D02*
G03X523783Y3553031I-70815J0D01*
G03X665414Y3553031I70815J0D01*
G37*
G36*
G01X1053842Y4271900D02*
G03X1007305Y4291177I-46537J-46537D01*
G01X916424Y4291177D01*
G01X916424Y4310363D01*
G03X880610Y4346177I-35814J0D01*
G01X710610Y4346177D01*
G03X674796Y4310363I0J-35814D01*
G01X674796Y4140363D01*
G03X710610Y4104549I35814J0D01*
G01X880610Y4104549D01*
G03X916424Y4140363I0J35814D01*
G01X916424Y4159549D01*
G01X980044Y4159549D01*
G01X1906788Y3232805D01*
G03X1953325Y3213528I46537J46537D01*
G01X2407231Y3213528D01*
G03X2473045Y3279342I0J65814D01*
G03X2407231Y3345156I-65814J0D01*
G01X1980586Y3345156D01*
G01X1053842Y4271900D01*
G37*
G36*
G01X795610Y5120549D02*
G03X795610Y5362177I0J120814D01*
G03X795610Y5120549I0J-120814D01*
G37*
G36*
G01X1116413Y5104979D02*
G03X1080482Y5090096I0J-50814D01*
G01X837184Y4846798D01*
G03X710182Y4647935I-41574J-113435D01*
G03X909046Y4774937I85428J85428D01*
G01X1137461Y5003351D01*
G01X2411306Y5003351D01*
G03X2518946Y5054165I41826J50814D01*
G03X2411306Y5104979I-65814J0D01*
G01X1116413Y5104979D01*
G37*
G36*
G01X866776Y5084992D02*
G03X688727Y4931044I-71166J-97629D01*
G03X916373Y4990865I106884J56319D01*
G01X1112462Y5186954D01*
G01X2385805Y5186954D01*
G03X2493445Y5237768I41826J50814D01*
G03X2385805Y5288582I-65814J0D01*
G01X1091414Y5288582D01*
G03X1055483Y5273699I0J-50814D01*
G01X866776Y5084992D01*
G37*
G36*
G01X795610Y5374549D02*
G03X795610Y5616177I0J120814D01*
G03X795610Y5374549I0J-120814D01*
G37*
G36*
G01X1111327Y3504034D02*
G03X979700Y3504034I-65814J0D01*
G01X979700Y3298322D01*
G01X928146Y3349876D01*
G01X927702Y3350422D01*
G01X927380Y3350974D01*
G03X815374Y3390786I-65469J-6726D01*
G03X855185Y3278779I46537J-46538D01*
G01X855738Y3278457D01*
G01X856284Y3278014D01*
G01X888917Y3245381D01*
G03X979700Y3173383I64796J-11532D01*
G01X979700Y3034539D01*
G03X1111327Y3034539I65814J0D01*
G01X1111327Y3504034D01*
G37*
G36*
G01X5569503Y5860206D02*
G03X5533572Y5875089I-35931J-35931D01*
G01X5258816Y5875089D01*
G01X5145473Y5988432D01*
G03X5037339Y6037875I-65807J-955D01*
G03X5067356Y5922825I42327J-50397D01*
G01X5201837Y5788344D01*
G03X5221998Y5775971I35931J35931D01*
G03X5196230Y5763124I15770J-63897D01*
G01X5195612Y5762961D01*
G01X5194912Y5762888D01*
G01X4682508Y5762888D01*
G01X4595093Y5850303D01*
G01X4594650Y5850849D01*
G01X4594328Y5851402D01*
G03X4593848Y5855062I-65469J-6726D01*
G01X4793414Y5855062D01*
G01X4809429Y5839048D01*
G01X4809872Y5838502D01*
G01X4810194Y5837950D01*
G03X4897597Y5782624I65469J6726D01*
G03X4930816Y5880587I-21934J62052D01*
G03X4960190Y5951286I-34753J55890D01*
G03X4902790Y6001946I-64126J-14809D01*
G01X4902237Y6002268D01*
G01X4901691Y6002711D01*
G01X4901394Y6003008D01*
G03X4865463Y6017891I-35931J-35931D01*
G01X4329349Y6017891D01*
G03X4334225Y6036852I-60594J25687D01*
G01X4334225Y6036852D01*
G01X4334546Y6037405D01*
G01X4334990Y6037951D01*
G01X4527995Y6230956D01*
G01X4792007Y6230956D01*
G01X4792707Y6230883D01*
G01X4793325Y6230720D01*
G03X4900677Y6281770I41538J51050D01*
G03X4793325Y6332820I-65814J0D01*
G01X4792707Y6332657D01*
G01X4792007Y6332584D01*
G01X4506947Y6332584D01*
G03X4471016Y6317701I0J-50814D01*
G01X4263128Y6109813D01*
G01X4262582Y6109369D01*
G01X4262029Y6109048D01*
G03X4212095Y6077061I6726J-65469D01*
G03X4208161Y6017891I56660J-33483D01*
G01X4035470Y6017891D01*
G03X3955733Y6217698I-79737J83993D01*
G03X3875996Y6017891I0J-115814D01*
G01X3785483Y6017891D01*
G03X3777670Y6192658I-79737J83993D01*
G03X3605747Y6160304I-71924J-90773D01*
G03X3433823Y6192658I-100000J-58420D01*
G03X3426010Y6017891I71924J-90773D01*
G01X3419100Y6017891D01*
G01X3418399Y6017964D01*
G01X3417781Y6018127D01*
G03X3310441Y5968284I-41538J-51050D01*
G03X3239357Y5948454I-20898J-62408D01*
G03X3231374Y5875089I50186J-42578D01*
G01X2555781Y5875089D01*
G01X2453065Y5977805D01*
G01X2452622Y5978351D01*
G01X2452300Y5978903D01*
G03X2340294Y6018715I-65469J-6726D01*
G03X2380105Y5906708I46537J-46538D01*
G01X2380657Y5906386D01*
G01X2381204Y5905943D01*
G01X2498802Y5788344D01*
G03X2513331Y5778188I35931J35931D01*
G01X2346678Y5778188D01*
G01X2294963Y5829903D01*
G01X2294520Y5830449D01*
G01X2294198Y5831001D01*
G03X2175655Y5863193I-65469J-6726D01*
G03X2103943Y5880919I-48927J-44018D01*
G01X2103943Y5947502D01*
G03X2048129Y6048191I-55814J34875D01*
G03X1992315Y5947502I0J-65814D01*
G01X1992315Y5739672D01*
G03X2008662Y5700206I55814J0D01*
G01X2021800Y5687068D01*
G03X2106214Y5639265I64127J14806D01*
G03X2146551Y5727490I-20287J62609D01*
G01X2345800Y5528241D01*
G03X2381731Y5513358I35931J35931D01*
G01X3070846Y5513358D01*
G03X3080391Y5446133I60594J-25687D01*
G01X3080554Y5445515D01*
G01X3080627Y5444815D01*
G01X3080627Y5427118D01*
G01X2840033Y5186524D01*
G03X2789242Y5255994I-65597J5343D01*
G01X2635685Y5409551D01*
G03X2529035Y5452133I-65252J-8581D01*
G03X2548426Y5338945I41398J-51163D01*
G01X2710309Y5177061D01*
G03X2762886Y5127075I64127J14806D01*
G03X2765222Y5058996I57450J-32109D01*
G03X2826600Y5029451I55115J35970D01*
G03X2833771Y5007698I65137J9414D01*
G03X2764785Y4944826I-3234J-65734D01*
G03X2828047Y4876197I65752J-2862D01*
G03X2850937Y4870750I22890J45367D01*
G01X3039639Y4870750D01*
G03X3075570Y4885633I0J50814D01*
G01X3494071Y5304133D01*
G01X3891738Y5304133D01*
G03X3893365Y5267753I63995J-15365D01*
G01X3894390Y5261229D01*
G01X3894757Y5257180D01*
G01X3894919Y5252187D01*
G01X3894919Y4699079D01*
G03X3912731Y4656077I60814J0D01*
G01X4019736Y4549072D01*
G01X3371791Y4549072D01*
G01X3121471Y4799393D01*
G03X3085540Y4814276I-35931J-35931D01*
G01X2781591Y4814276D01*
G01X2780891Y4814348D01*
G01X2780273Y4814512D01*
G03X2672922Y4763462I-41538J-51050D01*
G03X2780273Y4712412I65814J0D01*
G01X2780891Y4712575D01*
G01X2781591Y4712648D01*
G01X3064492Y4712648D01*
G01X3294368Y4482771D01*
G01X2738735Y4482771D01*
G03X2702805Y4467888I0J-50814D01*
G01X2544933Y4310017D01*
G01X2353494Y4501456D01*
G01X2353494Y4689511D01*
G03X2338611Y4725442I-50814J0D01*
G01X2208559Y4855493D01*
G03X2172628Y4870376I-35931J-35931D01*
G01X1582453Y4870376D01*
G03X1468548Y4891427I-62633J-20214D01*
G03X1513464Y4784656I51271J-41264D01*
G01X1514489Y4783631D01*
G03X1550420Y4768748I35931J35931D01*
G01X2151580Y4768748D01*
G01X2251866Y4668463D01*
G01X2251866Y4480408D01*
G03X2266749Y4444477I50814J0D01*
G01X2479427Y4231799D01*
G03X2544747Y4172341I65506J6355D01*
G03X2610402Y4231429I186J65814D01*
G01X2610724Y4231981D01*
G01X2611167Y4232528D01*
G01X2759783Y4381143D01*
G01X4284055Y4381143D01*
G03X4319986Y4396026I0J50814D01*
G01X4453005Y4529045D01*
G01X5327513Y4529045D01*
G01X5328214Y4528973D01*
G01X5328832Y4528809D01*
G03X5436183Y4579859I41538J51050D01*
G03X5328832Y4630909I-65814J0D01*
G01X5328214Y4630746D01*
G01X5327513Y4630673D01*
G01X4431957Y4630673D01*
G03X4396026Y4615790I0J-50814D01*
G01X4305364Y4525128D01*
G03X4195908Y4549072I-62109J-21770D01*
G01X4160342Y4549072D01*
G03X4153852Y4589615I-64989J10387D01*
G03X4124594Y4618420I-58499J-30156D01*
G01X4119256Y4622309D01*
G01X4116133Y4624912D01*
G01X4112488Y4628328D01*
G01X4016547Y4724269D01*
G01X4016547Y5252187D01*
G01X4016710Y5257180D01*
G01X4017076Y5261229D01*
G01X4018102Y5267754D01*
G03X4021475Y5285685I-62369J21015D01*
G01X4115523Y5191637D01*
G03X4151454Y5176754I35931J35931D01*
G01X4291491Y5176754D01*
G03X4293088Y5140252I63966J-15487D01*
G01X4294113Y5133727D01*
G01X4294480Y5129678D01*
G01X4294642Y5124685D01*
G01X4294642Y4953045D01*
G01X4294480Y4948053D01*
G01X4294113Y4944003D01*
G01X4293088Y4937478D01*
G03X4355456Y4850650I62369J-21015D01*
G03X4417825Y4937478I0J65814D01*
G01X4416800Y4944003D01*
G01X4416433Y4948053D01*
G01X4416270Y4953045D01*
G01X4416270Y5124685D01*
G01X4416433Y5129678D01*
G01X4416800Y5133727D01*
G01X4417825Y5140252D01*
G03X4419422Y5176754I-62369J21015D01*
G01X4807307Y5176754D01*
G01X4808007Y5176681D01*
G01X4808625Y5176518D01*
G03X4889730Y5174976I41538J51050D01*
G03X4910724Y5253331I-39567J52592D01*
G03X4951010Y5323615I-24861J60938D01*
G03X4892590Y5379738I-65147J-9346D01*
G01X4892037Y5380060D01*
G01X4891491Y5380503D01*
G01X4886137Y5385856D01*
G01X5038218Y5385856D01*
G01X5110332Y5313742D01*
G01X5110776Y5313195D01*
G01X5111098Y5312643D01*
G03X5223104Y5272831I65469J6726D01*
G03X5183293Y5384838I-46537J46538D01*
G01X5182740Y5385160D01*
G01X5182194Y5385603D01*
G01X5120740Y5447057D01*
G01X5150419Y5447057D01*
G01X5283735Y5313742D01*
G01X5284178Y5313195D01*
G01X5284500Y5312643D01*
G03X5396507Y5272831I65469J6726D01*
G03X5356696Y5384838I-46537J46538D01*
G01X5356143Y5385160D01*
G01X5355597Y5385603D01*
G01X5207398Y5533802D01*
G03X5171467Y5548685I-35931J-35931D01*
G01X4407105Y5548685D01*
G01X4100727Y5855062D01*
G01X4463869Y5855062D01*
G03X4522132Y5779206I64989J-10387D01*
G01X4522685Y5778884D01*
G01X4523231Y5778441D01*
G01X4625529Y5676143D01*
G03X4661460Y5661260I35931J35931D01*
G01X5194912Y5661260D01*
G01X5195612Y5661187D01*
G01X5196230Y5661024D01*
G03X5294687Y5679034I41538J51050D01*
G03X5261496Y5773461I-56920J33040D01*
G01X5512524Y5773461D01*
G01X6305046Y4980939D01*
G03X6340977Y4966056I35931J35931D01*
G01X7320564Y4966056D01*
G03X7350483Y4896064I64331J-13892D01*
G03X7426433Y4901114I34413J56100D01*
G01X7427051Y4901277D01*
G01X7427752Y4901350D01*
G01X8295324Y4901350D01*
G01X8297202Y4901216D01*
G01X8298931Y4900894D01*
G01X8299910Y4900596D01*
G01X8300642Y4900244D01*
G03X8379198Y4909894I32866J57020D01*
G03X8391677Y4988051I-45690J47370D01*
G01X8408983Y4988051D01*
G03X8516623Y5038865I41826J50814D01*
G03X8408983Y5089679I-65814J0D01*
G01X8284102Y5089679D01*
G03X8248171Y5074796I0J-50814D01*
G01X8241059Y5067684D01*
G01X8111463Y5067684D01*
G03X8054630Y5150235I-63559J17082D01*
G01X8054078Y5150557D01*
G01X8053531Y5151000D01*
G01X7699832Y5504700D01*
G03X7663901Y5519583I-35931J-35931D01*
G01X7391780Y5519583D01*
G03X7359677Y5596790I-62985J19088D01*
G03X7277726Y5580186I-30882J-58119D01*
G01X7082818Y5580186D01*
G03X7024417Y5655142I-65127J9486D01*
G01X7023864Y5655464D01*
G01X7023318Y5655907D01*
G01X6915503Y5763722D01*
G01X6915503Y6067023D01*
G01X6915576Y6067723D01*
G01X6915739Y6068341D01*
G03X6913633Y6153879I-51050J41538D01*
G03X6828802Y6165048I-48944J-44000D01*
G01X6828802Y6272434D01*
G01X6915915Y6359547D01*
G01X6916997Y6360460D01*
G01X6918218Y6361250D01*
G01X6918959Y6361613D01*
G01X6919508Y6361780D01*
G03X6947145Y6477037I-14019J64304D01*
G03X6839682Y6427038I-41655J-50954D01*
G01X6839002Y6426357D01*
G01X6839002Y6515829D01*
G01X6839075Y6516529D01*
G01X6839238Y6517147D01*
G03X6788188Y6624499I-51050J41538D01*
G03X6737138Y6517147I0J-65814D01*
G01X6737301Y6516529D01*
G01X6737374Y6515829D01*
G01X6737374Y6426731D01*
G01X6701300Y6390657D01*
G01X6701300Y6848741D01*
G01X6742814Y6890255D01*
G01X6743361Y6890699D01*
G01X6743913Y6891021D01*
G03X6801023Y6940476I-6726J65469D01*
G03X6774019Y7011032I-63836J16014D01*
G03X6778632Y7123560I-31732J57659D01*
G03X6676818Y7075418I-36344J-54869D01*
G01X6676496Y7074865D01*
G01X6676053Y7074319D01*
G01X6558454Y6956720D01*
G03X6543571Y6920790I35931J-35931D01*
G01X6543571Y6238427D01*
G01X6543499Y6237726D01*
G01X6543335Y6237108D01*
G03X6549756Y6147200I51050J-41538D01*
G03X6547748Y6145629I39529J-52621D01*
G01X6547130Y6145466D01*
G01X6546429Y6145393D01*
G01X6309429Y6145393D01*
G01X6211814Y6243008D01*
G01X6211371Y6243554D01*
G01X6211049Y6244107D01*
G03X6099042Y6283918I-65469J-6726D01*
G03X6138853Y6171911I46537J-46538D01*
G01X6139406Y6171590D01*
G01X6139952Y6171146D01*
G01X6252450Y6058648D01*
G03X6288381Y6043765I35931J35931D01*
G01X6546429Y6043765D01*
G01X6547130Y6043692D01*
G01X6547748Y6043529D01*
G03X6553798Y6039152I41538J51050D01*
G01X6440736Y5926090D01*
G01X6242481Y5926090D01*
G03X6206550Y5911207I0J-50814D01*
G01X6063451Y5768108D01*
G01X6062905Y5767665D01*
G01X6062352Y5767343D01*
G03X6003265Y5701848I6726J-65469D01*
G01X5987411Y5717701D01*
G01X5986968Y5718247D01*
G01X5986646Y5718800D01*
G03X5874639Y5758612I-65469J-6726D01*
G03X5914450Y5646605I46537J-46538D01*
G01X5915003Y5646283D01*
G01X5915549Y5645839D01*
G01X5977047Y5584342D01*
G03X6012978Y5569459I35931J35931D01*
G01X6736540Y5569459D01*
G01X6812557Y5493442D01*
G03X6848488Y5478559I35931J35931D01*
G01X6922009Y5478559D01*
G03X6954472Y5411607I65082J-9789D01*
G03X7028628Y5417719I32618J57162D01*
G01X7029246Y5417883D01*
G01X7029946Y5417955D01*
G01X7642853Y5417955D01*
G01X7675325Y5385483D01*
G01X6723197Y5385483D01*
G03X6698008Y5460278I-62511J20587D01*
G03X6619149Y5457120I-37322J-54208D01*
G01X6618530Y5456957D01*
G01X6617830Y5456884D01*
G01X6331237Y5456884D01*
G01X6330537Y5456957D01*
G01X6329919Y5457120D01*
G03X6256910Y5463872I-41538J-51050D01*
G03X6222961Y5398884I31471J-57802D01*
G03X6178175Y5305926I14420J-64215D01*
G03X6278918Y5283619I59206J28743D01*
G01X6279536Y5283782D01*
G01X6280237Y5283855D01*
G01X6600797Y5283855D01*
G03X6632906Y5216456I64989J-10387D01*
G03X6707324Y5222418I32880J57012D01*
G01X6707942Y5222581D01*
G01X6708642Y5222654D01*
G01X7182205Y5222654D01*
G03X7260240Y5147760I64989J-10387D01*
G01X7313561Y5094439D01*
G01X7314004Y5093892D01*
G01X7314326Y5093340D01*
G03X7322499Y5067684I65469J6726D01*
G01X6362025Y5067684D01*
G01X5569503Y5860206D01*
G37*
G36*
G01X1493682Y4743698D02*
G03X1533864Y4631654I46537J-46537D01*
G01X1601190Y4564329D01*
G03X1637121Y4549446I35931J35931D01*
G01X1804398Y4549446D01*
G03X1890475Y4551543I41826J50814D01*
G03X1900813Y4637023I-44251J48717D01*
G03X1933861Y4651374I-8688J65238D01*
G01X1934412Y4651520D01*
G01X1935095Y4651591D01*
G01X2043071Y4651591D01*
G01X2043771Y4651518D01*
G01X2044389Y4651355D01*
G03X2151741Y4702405I41538J51050D01*
G03X2044389Y4753455I-65814J0D01*
G01X2043771Y4753292D01*
G01X2043071Y4753219D01*
G01X1934865Y4753219D01*
G01X1934146Y4753293D01*
G01X1933451Y4753482D01*
G03X1847635Y4750760I-41327J-51221D01*
G03X1837536Y4665497I44489J-48499D01*
G03X1804398Y4651074I8688J-65238D01*
G01X1658169Y4651074D01*
G01X1605726Y4703516D01*
G03X1493682Y4743698I-65506J-6355D01*
G37*
G36*
G01X10388948Y377405D02*
G01X10388948Y846611D01*
G03X10353134Y882425I-35814J0D01*
G01X1553134Y882425D01*
G03X1517320Y846611I0J-35814D01*
G01X1517320Y377405D01*
G03X1553134Y341591I35814J0D01*
G01X10353134Y341591D01*
G03X10388948Y377405I0J35814D01*
G37*
G36*
G01X1713928Y7251088D02*
G03X1542300Y7251088I-85814J0D01*
G03X1713928Y7251088I85814J0D01*
G37*
G36*
G01X1769723Y3631734D02*
G03X1820773Y3739085I0J65814D01*
G01X1820610Y3739704D01*
G01X1820537Y3740404D01*
G01X1820537Y4384611D01*
G03X1784009Y4497127I-45714J47347D01*
G03X1717803Y4399091I-9186J-65170D01*
G01X1718155Y4398360D01*
G01X1718453Y4397381D01*
G01X1718775Y4395651D01*
G01X1718909Y4393774D01*
G01X1718909Y3740404D01*
G01X1718836Y3739704D01*
G01X1718673Y3739086D01*
G03X1769723Y3631734I51050J-41538D01*
G37*
G36*
G01X2024840Y3653002D02*
G01X2024677Y3652384D01*
G03X2075727Y3545033I51050J-41538D01*
G03X2126777Y3652384I0J65814D01*
G01X2126614Y3653002D01*
G01X2126541Y3653703D01*
G01X2126541Y4021897D01*
G01X2126614Y4022597D01*
G01X2126777Y4023215D01*
G03X2126777Y4106290I-51050J41538D01*
G01X2126614Y4106908D01*
G01X2126541Y4107609D01*
G01X2126541Y4365009D01*
G01X2142555Y4381023D01*
G01X2143101Y4381466D01*
G01X2143654Y4381788D01*
G03X2183465Y4493795I-6726J65469D01*
G03X2071458Y4453984I-46538J-46537D01*
G01X2071136Y4453431D01*
G01X2070693Y4452885D01*
G01X2039796Y4421988D01*
G03X2024913Y4386057I35931J-35931D01*
G01X2024913Y4107609D01*
G01X2024840Y4106908D01*
G01X2024677Y4106290D01*
G03X2024677Y4023215I51050J-41538D01*
G01X2024840Y4022597D01*
G01X2024913Y4021897D01*
G01X2024913Y3653703D01*
G01X2024840Y3653002D01*
G37*
G36*
G01X2513927Y7251088D02*
G03X2342299Y7251088I-85814J0D01*
G03X2513927Y7251088I85814J0D01*
G37*
G36*
G01X2632121Y3743448D02*
G03X2697935Y3677635I65814J0D01*
G01X4263655Y3677635D01*
G03X4310193Y3696911I0J65814D01*
G01X4315293Y3702011D01*
G03X4248207Y3811072I-46537J46537D01*
G01X4245828Y3810406D01*
G01X4242775Y3809823D01*
G01X4239488Y3809405D01*
G01X4236820Y3809262D01*
G01X2697935Y3809262D01*
G03X2632121Y3743448I0J-65814D01*
G37*
G36*
G01X2632121Y3928657D02*
G03X2739761Y3877843I65814J0D01*
G01X3846277Y3877843D01*
G03X3934540Y3955823I24673J61014D01*
G03X3819162Y3979471I-63590J-16966D01*
G01X2739761Y3979471D01*
G03X2632121Y3928657I-41826J-50814D01*
G37*
G36*
G01X4688316Y4804148D02*
G01X4687698Y4804311D01*
G03X4580346Y4753262I-41538J-51050D01*
G03X4687698Y4702212I65814J0D01*
G01X4688316Y4702375D01*
G01X4689016Y4702448D01*
G01X5087810Y4702448D01*
G01X5088511Y4702375D01*
G01X5089129Y4702212D01*
G03X5196480Y4753261I41538J51050D01*
G03X5089129Y4804311I-65814J0D01*
G01X5088511Y4804148D01*
G01X5087810Y4804075D01*
G01X4689016Y4804075D01*
G01X4688316Y4804148D01*
G37*
G36*
G01X5645125Y4630673D02*
G01X5607028Y4630673D01*
G01X5606328Y4630746D01*
G01X5605710Y4630909D01*
G03X5517785Y4626547I-41538J-51050D01*
G03X5512854Y4538653I46387J-46688D01*
G01X5512854Y4295281D01*
G03X5563668Y4187641I50814J-41826D01*
G03X5614482Y4295281I0J65814D01*
G01X5614482Y4529045D01*
G01X5666173Y4529045D01*
G03X5702104Y4543928I0J50814D01*
G01X5736666Y4578490D01*
G03X5840313Y4549210I62109J21770D01*
G01X5840931Y4549373D01*
G01X5841631Y4549446D01*
G01X5935985Y4549446D01*
G03X5958685Y4449277I51493J-40987D01*
G03X5998326Y4330446I38992J-53020D01*
G03X6037815Y4274666I65652J4610D01*
G03X6105516Y4284006I26164J60390D01*
G01X6106134Y4284169D01*
G01X6106834Y4284242D01*
G01X7318595Y4284242D01*
G03X7354526Y4299125I0J50814D01*
G01X7380443Y4325043D01*
G01X7459841Y4325043D01*
G03X7474016Y4272830I64989J-10387D01*
G01X7474016Y3859249D01*
G03X7481229Y3763662I48581J-44400D01*
G01X7253319Y3763662D01*
G03X7152097Y3684501I-41826J-50814D01*
G01X6935569Y3901029D01*
G03X6874889Y3926164I-60680J-60680D01*
G01X6171080Y3926164D01*
G03X6171080Y3754536I0J-85814D01*
G01X6839344Y3754536D01*
G01X6967919Y3625960D01*
G01X6860614Y3625960D01*
G03X6752974Y3575146I-41826J-50814D01*
G03X6860614Y3524332I65814J0D01*
G01X6955842Y3524332D01*
G01X7008285Y3471890D01*
G03X7009949Y3462258I65506J6355D01*
G01X5977277Y3462258D01*
G03X5977277Y3310630I0J-75814D01*
G01X10184832Y3310630D01*
G03X10184832Y3462258I0J75814D01*
G01X7137634Y3462258D01*
G03X7139549Y3475516I-63843J15987D01*
G03X7155382Y3474042I15834J84341D01*
G01X10424535Y3474042D01*
G03X10501423Y3521747I0J85814D01*
G01X10501423Y2478632D01*
G03X10519235Y2435630I60814J0D01*
G01X10674845Y2280020D01*
G03X10782176Y2258692I60794J25210D01*
G03X10760848Y2366024I-46537J46537D01*
G01X10623051Y2503822D01*
G01X10623051Y2525617D01*
G01X10985949Y2162719D01*
G03X11093280Y2141391I60794J25210D01*
G03X11071953Y2248723I-46537J46537D01*
G01X10704652Y2616023D01*
G01X10704652Y3606831D01*
G01X10996149Y3315334D01*
G03X11070381Y3276116I60794J25210D01*
G03X11122746Y3341738I-13438J64428D01*
G01X11179751Y3284733D01*
G03X11287083Y3263405I60794J25210D01*
G03X11265755Y3370737I-46537J46537D01*
G01X10878054Y3758438D01*
G01X10878054Y5793675D01*
G03X10860242Y5836677I-60814J0D01*
G01X10046743Y6650176D01*
G01X10046743Y6951390D01*
G03X10028931Y6994392I-60814J0D01*
G01X9692327Y7330996D01*
G03X9649325Y7348808I-43002J-43002D01*
G01X8751375Y7348808D01*
G03X8660399Y7287994I-25162J-60814D01*
G03X8751375Y7227180I65814J0D01*
G01X9624135Y7227180D01*
G01X9631329Y7219986D01*
G03X9618724Y7221307I-12605J-59493D01*
G01X8715675Y7221307D01*
G03X8624699Y7160493I-25162J-60814D01*
G03X8715675Y7099679I65814J0D01*
G01X9593535Y7099679D01*
G01X9768939Y6924275D01*
G01X9768939Y6587360D01*
G03X9786751Y6544358I60814J0D01*
G01X10674825Y5656284D01*
G01X10674825Y3864766D01*
G01X10230346Y4309245D01*
G01X10230346Y5528472D01*
G03X10212534Y5571474I-60814J0D01*
G01X10090718Y5693289D01*
G01X10090718Y5949173D01*
G03X10072906Y5992174I-60814J0D01*
G01X9504195Y6560886D01*
G03X9461193Y6578698I-43002J-43002D01*
G01X8501500Y6578698D01*
G01X8282101Y6798097D01*
G03X8175307Y6819957I-60794J-25210D01*
G03X8194706Y6712689I45999J-47069D01*
G03X8150422Y6652470I21501J-62203D01*
G03X8190997Y6589692I65784J-1984D01*
G01X8373208Y6407480D01*
G03X8416210Y6389668I43002J43002D01*
G01X8568744Y6389668D01*
G03X8604182Y6326822I65668J-4386D01*
G03X8675949Y6334233I30230J58460D01*
G01X8676567Y6334396D01*
G01X8677268Y6334469D01*
G01X8713957Y6334469D01*
G01X8714658Y6334396D01*
G01X8715276Y6334233D01*
G03X8787043Y6326822I41538J51050D01*
G03X8822481Y6389668I-30230J58461D01*
G01X9380433Y6389668D01*
G01X9768939Y6001163D01*
G01X9768939Y5664248D01*
G03X9786751Y5621246I60814J0D01*
G01X10027117Y5380880D01*
G01X10027117Y4238155D01*
G03X10044929Y4195153I60814J0D01*
G01X10501423Y3738659D01*
G01X10501423Y3597965D01*
G03X10424535Y3645670I-76888J-38109D01*
G01X7190928Y3645670D01*
G01X7183146Y3653452D01*
G03X7253319Y3662034I28347J59396D01*
G01X8854542Y3662034D01*
G03X8942804Y3740014I24673J61014D01*
G03X8827427Y3763662I-63590J-16966D01*
G01X7563966Y3763662D01*
G03X7575644Y3853805I-41368J51187D01*
G01X7575644Y4272830D01*
G03X7588999Y4300033I-50814J41826D01*
G03X7659667Y4361293I4999J65624D01*
G03X7664192Y4361054I5732J65564D01*
G03X7675786Y4298330I62408J-20898D01*
G01X7675786Y3994377D01*
G03X7726600Y3886737I50814J-41826D01*
G03X7777414Y3994377I0J65814D01*
G01X7777414Y4298330D01*
G03X7727807Y4405959I-50814J41826D01*
G03X7702856Y4480972I-62408J20898D01*
G03X7623862Y4477907I-37457J-54115D01*
G01X7623243Y4477744D01*
G01X7622543Y4477671D01*
G01X6443452Y4477671D01*
G03X6438841Y4546708I-58169J30787D01*
G03X6452909Y4640177I-38258J53552D01*
G03X6359045Y4651310I-52327J-39917D01*
G01X6358427Y4651146D01*
G01X6357727Y4651074D01*
G01X5841631Y4651074D01*
G01X5840931Y4651146D01*
G01X5840313Y4651309D01*
G03X5820545Y4662369I-41538J-51050D01*
G01X6100206Y4942030D01*
G01X6100752Y4942474D01*
G01X6101305Y4942795D01*
G03X6141116Y5054802I-6726J65469D01*
G03X6029110Y5014991I-46538J-46537D01*
G01X6028788Y5014438D01*
G01X6028344Y5013892D01*
G01X5645125Y4630673D01*
G37*
G36*
G01X5926764Y2918678D02*
G03X6027453Y2862864I65814J0D01*
G01X6559510Y2862864D01*
G03X6660199Y2918678I34875J55814D01*
G03X6559510Y2974492I-65814J0D01*
G01X6027453Y2974492D01*
G03X5926764Y2918678I-34875J-55814D01*
G37*
G36*
G01X6517818Y4830290D02*
G01X6517375Y4830836D01*
G01X6517053Y4831388D01*
G03X6405046Y4871200I-65469J-6726D01*
G03X6444857Y4759193I46537J-46538D01*
G01X6445410Y4758871D01*
G01X6445956Y4758428D01*
G01X6573755Y4630629D01*
G03X6609686Y4615746I35931J35931D01*
G01X8381896Y4615746D01*
G01X8382596Y4615674D01*
G01X8383214Y4615510D01*
G03X8490566Y4666560I41538J51050D01*
G03X8383214Y4717610I-65814J0D01*
G01X8382596Y4717447D01*
G01X8381896Y4717374D01*
G01X6630733Y4717374D01*
G01X6517818Y4830290D01*
G37*
G36*
G01X7196380Y2581659D02*
G03X7229079Y2476561I50814J-41826D01*
G03X7312444Y2548430I18114J63272D01*
G03X7394774Y2564144I31651J57703D01*
G03X7394909Y2647960I-50679J41990D01*
G01X7394909Y2982513D01*
G03X7344095Y3090153I-50814J41826D01*
G03X7293281Y2982513I0J-65814D01*
G01X7293281Y2841820D01*
G03X7202726Y2843355I-46087J-46983D01*
G03X7196380Y2753010I44468J-48519D01*
G01X7196380Y2581659D01*
G37*
G36*
G01X7456296Y6594303D02*
G03X7456296Y6352675I0J-120814D01*
G03X7456296Y6594303I0J120814D01*
G37*
G36*
G01X7456296Y6848303D02*
G03X7456296Y6606675I0J-120814D01*
G03X7456296Y6848303I0J120814D01*
G37*
G36*
G01X7456296Y7102303D02*
G03X7456296Y6860675I0J-120814D01*
G03X7456296Y7102303I0J120814D01*
G37*
G36*
G01X7335483Y7150489D02*
G03X7371297Y7114675I35814J0D01*
G01X7541296Y7114675D01*
G03X7577110Y7150489I0J35814D01*
G01X7577110Y7320489D01*
G03X7541296Y7356303I-35814J0D01*
G01X7371297Y7356303D01*
G03X7335483Y7320489I0J-35814D01*
G01X7335483Y7150489D01*
G37*
G36*
G01X7497097Y2540320D02*
G03X7547911Y2647960I0J65814D01*
G01X7547911Y2972313D01*
G03X7497097Y3079953I-50814J41826D01*
G03X7446283Y2972313I0J-65814D01*
G01X7446283Y2647960D01*
G03X7497097Y2540320I50814J-41826D01*
G37*
G36*
G01X8131528Y4199838D02*
G01X8130982Y4199395D01*
G01X8130429Y4199073D01*
G03X8090618Y4087066I6726J-65469D01*
G03X8202625Y4126877I46538J46537D01*
G01X8202947Y4127430D01*
G01X8203390Y4127976D01*
G01X8287838Y4212424D01*
G03X8302721Y4248355I-35931J35931D01*
G01X8302721Y4440102D01*
G01X8302794Y4440802D01*
G01X8302957Y4441420D01*
G03X8251907Y4548772I-51050J41538D01*
G03X8200857Y4441420I0J-65814D01*
G01X8201020Y4440802D01*
G01X8201093Y4440102D01*
G01X8201093Y4269403D01*
G01X8131528Y4199838D01*
G37*
%LPD*%
G36*
G01X4095079Y5614986D02*
G01X2402779Y5614986D01*
G01X2341204Y5676560D01*
G01X4033505Y5676560D01*
G01X4095079Y5614986D01*
G37*
G36*
G01X7582488Y5222654D02*
G03X7593949Y5160530I62511J-20587D01*
G01X7594112Y5159912D01*
G01X7594185Y5159211D01*
G01X7594185Y5135766D01*
G03X7609068Y5099836I50814J0D01*
G01X7634865Y5074038D01*
G01X7635308Y5073492D01*
G01X7635630Y5072940D01*
G03X7636386Y5067684I65469J6726D01*
G01X7437092Y5067684D01*
G03X7386522Y5165535I-57296J32382D01*
G01X7385969Y5165857D01*
G01X7385423Y5166301D01*
G01X7329069Y5222654D01*
G01X7582488Y5222654D01*
G37*
G54D10*
G01X35814Y873347D02*
G01X35814Y6526653D01*
G03X781628Y6618372I314186J523347D01*
G03X873348Y7364186I-431628J431628D01*
G01X4608442Y7364186D01*
G01X4608442Y6811784D01*
G03X4644256Y6775970I35814J0D01*
G01X6500680Y6775970D01*
G03X6536494Y6811784I0J35814D01*
G01X6536494Y7364186D01*
G01X11126653Y7364186D01*
G03X11218362Y6618382I523348J-314186D01*
G03X11964162Y6526638I431638J431618D01*
G01X11964162Y873362D01*
G03X11218362Y781618I-314162J-523362D01*
G03X11126653Y35814I431638J-431618D01*
G01X873347Y35814D01*
G03X781628Y781628I-523347J314186D01*
G03X35814Y873347I-431628J-431628D01*
G01X665414Y2975028D02*
G03X523783Y2975028I-70815J0D01*
G03X665414Y2975028I70815J0D01*
G01X665414Y3553031D02*
G03X523783Y3553031I-70815J0D01*
G03X665414Y3553031I70815J0D01*
G01X1053842Y4271900D02*
G03X1007305Y4291177I-46537J-46537D01*
G01X916424Y4291177D01*
G01X916424Y4310363D01*
G03X880610Y4346177I-35814J0D01*
G01X710610Y4346177D01*
G03X674796Y4310363I0J-35814D01*
G01X674796Y4140363D01*
G03X710610Y4104549I35814J0D01*
G01X880610Y4104549D01*
G03X916424Y4140363I0J35814D01*
G01X916424Y4159549D01*
G01X980044Y4159549D01*
G01X1906788Y3232805D01*
G03X1953325Y3213528I46537J46537D01*
G01X2407231Y3213528D01*
G03X2473045Y3279342I0J65814D01*
G03X2407231Y3345156I-65814J0D01*
G01X1980586Y3345156D01*
G01X1053842Y4271900D01*
G01X795610Y5120549D02*
G03X795610Y5362177I0J120814D01*
G03X795610Y5120549I0J-120814D01*
G01X1116413Y5104979D02*
G03X1080482Y5090096I0J-50814D01*
G01X837184Y4846798D01*
G03X710182Y4647935I-41574J-113435D01*
G03X909046Y4774937I85428J85428D01*
G01X1137461Y5003351D01*
G01X2411306Y5003351D01*
G03X2518946Y5054165I41826J50814D01*
G03X2411306Y5104979I-65814J0D01*
G01X1116413Y5104979D01*
G01X866776Y5084992D02*
G03X688727Y4931044I-71166J-97629D01*
G03X916373Y4990865I106884J56319D01*
G01X1112462Y5186954D01*
G01X2385805Y5186954D01*
G03X2493445Y5237768I41826J50814D01*
G03X2385805Y5288582I-65814J0D01*
G01X1091414Y5288582D01*
G03X1055483Y5273699I0J-50814D01*
G01X866776Y5084992D01*
G01X795610Y5374549D02*
G03X795610Y5616177I0J120814D01*
G03X795610Y5374549I0J-120814D01*
G01X1111327Y3504034D02*
G03X979700Y3504034I-65814J0D01*
G01X979700Y3298322D01*
G01X928146Y3349876D01*
G01X927702Y3350422D01*
G01X927380Y3350974D01*
G03X815374Y3390786I-65469J-6726D01*
G03X855185Y3278779I46537J-46538D01*
G01X855738Y3278457D01*
G01X856284Y3278014D01*
G01X888917Y3245381D01*
G03X979700Y3173383I64796J-11532D01*
G01X979700Y3034539D01*
G03X1111327Y3034539I65814J0D01*
G01X1111327Y3504034D01*
G01X5569503Y5860206D02*
G03X5533572Y5875089I-35931J-35931D01*
G01X5258816Y5875089D01*
G01X5145473Y5988432D01*
G03X5037339Y6037875I-65807J-955D01*
G03X5067356Y5922825I42327J-50397D01*
G01X5201837Y5788344D01*
G03X5221998Y5775971I35931J35931D01*
G03X5196230Y5763124I15770J-63897D01*
G01X5195612Y5762961D01*
G01X5194912Y5762888D01*
G01X4682508Y5762888D01*
G01X4595093Y5850303D01*
G01X4594650Y5850849D01*
G01X4594328Y5851402D01*
G03X4593848Y5855062I-65469J-6726D01*
G01X4793414Y5855062D01*
G01X4809429Y5839048D01*
G01X4809872Y5838502D01*
G01X4810194Y5837950D01*
G03X4897597Y5782624I65469J6726D01*
G03X4930816Y5880587I-21934J62052D01*
G03X4960190Y5951286I-34753J55890D01*
G03X4902790Y6001946I-64126J-14809D01*
G01X4902237Y6002268D01*
G01X4901691Y6002711D01*
G01X4901394Y6003008D01*
G03X4865463Y6017891I-35931J-35931D01*
G01X4329349Y6017891D01*
G03X4334225Y6036852I-60594J25687D01*
G01X4334225Y6036852D01*
G01X4334546Y6037405D01*
G01X4334990Y6037951D01*
G01X4527995Y6230956D01*
G01X4792007Y6230956D01*
G01X4792707Y6230883D01*
G01X4793325Y6230720D01*
G03X4900677Y6281770I41538J51050D01*
G03X4793325Y6332820I-65814J0D01*
G01X4792707Y6332657D01*
G01X4792007Y6332584D01*
G01X4506947Y6332584D01*
G03X4471016Y6317701I0J-50814D01*
G01X4263128Y6109813D01*
G01X4262582Y6109369D01*
G01X4262029Y6109048D01*
G03X4212095Y6077061I6726J-65469D01*
G03X4208161Y6017891I56660J-33483D01*
G01X4035470Y6017891D01*
G03X3955733Y6217698I-79737J83993D01*
G03X3875996Y6017891I0J-115814D01*
G01X3785483Y6017891D01*
G03X3777670Y6192658I-79737J83993D01*
G03X3605747Y6160304I-71924J-90773D01*
G03X3433823Y6192658I-100000J-58420D01*
G03X3426010Y6017891I71924J-90773D01*
G01X3419100Y6017891D01*
G01X3418399Y6017964D01*
G01X3417781Y6018127D01*
G03X3310441Y5968284I-41538J-51050D01*
G03X3239357Y5948454I-20898J-62408D01*
G03X3231374Y5875089I50186J-42578D01*
G01X2555781Y5875089D01*
G01X2453065Y5977805D01*
G01X2452622Y5978351D01*
G01X2452300Y5978903D01*
G03X2340294Y6018715I-65469J-6726D01*
G03X2380105Y5906708I46537J-46538D01*
G01X2380657Y5906386D01*
G01X2381204Y5905943D01*
G01X2498802Y5788344D01*
G03X2513331Y5778188I35931J35931D01*
G01X2346678Y5778188D01*
G01X2294963Y5829903D01*
G01X2294520Y5830449D01*
G01X2294198Y5831001D01*
G03X2175655Y5863193I-65469J-6726D01*
G03X2103943Y5880919I-48927J-44018D01*
G01X2103943Y5947502D01*
G03X2048129Y6048191I-55814J34875D01*
G03X1992315Y5947502I0J-65814D01*
G01X1992315Y5739672D01*
G03X2008662Y5700206I55814J0D01*
G01X2021800Y5687068D01*
G03X2106214Y5639265I64127J14806D01*
G03X2146551Y5727490I-20287J62609D01*
G01X2345800Y5528241D01*
G03X2381731Y5513358I35931J35931D01*
G01X3070846Y5513358D01*
G03X3080391Y5446133I60594J-25687D01*
G01X3080554Y5445515D01*
G01X3080627Y5444815D01*
G01X3080627Y5427118D01*
G01X2840033Y5186524D01*
G03X2789242Y5255994I-65597J5343D01*
G01X2635685Y5409551D01*
G03X2529035Y5452133I-65252J-8581D01*
G03X2548426Y5338945I41398J-51163D01*
G01X2710309Y5177061D01*
G03X2762886Y5127075I64127J14806D01*
G03X2765222Y5058996I57450J-32109D01*
G03X2826600Y5029451I55115J35970D01*
G03X2833771Y5007698I65137J9414D01*
G03X2764785Y4944826I-3234J-65734D01*
G03X2828047Y4876197I65752J-2862D01*
G03X2850937Y4870750I22890J45367D01*
G01X3039639Y4870750D01*
G03X3075570Y4885633I0J50814D01*
G01X3494071Y5304133D01*
G01X3891738Y5304133D01*
G03X3893365Y5267753I63995J-15365D01*
G01X3894390Y5261229D01*
G01X3894757Y5257180D01*
G01X3894919Y5252187D01*
G01X3894919Y4699079D01*
G03X3912731Y4656077I60814J0D01*
G01X4019736Y4549072D01*
G01X3371791Y4549072D01*
G01X3121471Y4799393D01*
G03X3085540Y4814276I-35931J-35931D01*
G01X2781591Y4814276D01*
G01X2780891Y4814348D01*
G01X2780273Y4814512D01*
G03X2672922Y4763462I-41538J-51050D01*
G03X2780273Y4712412I65814J0D01*
G01X2780891Y4712575D01*
G01X2781591Y4712648D01*
G01X3064492Y4712648D01*
G01X3294368Y4482771D01*
G01X2738735Y4482771D01*
G03X2702805Y4467888I0J-50814D01*
G01X2544933Y4310017D01*
G01X2353494Y4501456D01*
G01X2353494Y4689511D01*
G03X2338611Y4725442I-50814J0D01*
G01X2208559Y4855493D01*
G03X2172628Y4870376I-35931J-35931D01*
G01X1582453Y4870376D01*
G03X1468548Y4891427I-62633J-20214D01*
G03X1513464Y4784656I51271J-41264D01*
G01X1514489Y4783631D01*
G03X1550420Y4768748I35931J35931D01*
G01X2151580Y4768748D01*
G01X2251866Y4668463D01*
G01X2251866Y4480408D01*
G03X2266749Y4444477I50814J0D01*
G01X2479427Y4231799D01*
G03X2544747Y4172341I65506J6355D01*
G03X2610402Y4231429I186J65814D01*
G01X2610724Y4231981D01*
G01X2611167Y4232528D01*
G01X2759783Y4381143D01*
G01X4284055Y4381143D01*
G03X4319986Y4396026I0J50814D01*
G01X4453005Y4529045D01*
G01X5327513Y4529045D01*
G01X5328214Y4528973D01*
G01X5328832Y4528809D01*
G03X5436183Y4579859I41538J51050D01*
G03X5328832Y4630909I-65814J0D01*
G01X5328214Y4630746D01*
G01X5327513Y4630673D01*
G01X4431957Y4630673D01*
G03X4396026Y4615790I0J-50814D01*
G01X4305364Y4525128D01*
G03X4195908Y4549072I-62109J-21770D01*
G01X4160342Y4549072D01*
G03X4153852Y4589615I-64989J10387D01*
G03X4124594Y4618420I-58499J-30156D01*
G01X4119256Y4622309D01*
G01X4116133Y4624912D01*
G01X4112488Y4628328D01*
G01X4016547Y4724269D01*
G01X4016547Y5252187D01*
G01X4016710Y5257180D01*
G01X4017076Y5261229D01*
G01X4018102Y5267754D01*
G03X4021475Y5285685I-62369J21015D01*
G01X4115523Y5191637D01*
G03X4151454Y5176754I35931J35931D01*
G01X4291491Y5176754D01*
G03X4293088Y5140252I63966J-15487D01*
G01X4294113Y5133727D01*
G01X4294480Y5129678D01*
G01X4294642Y5124685D01*
G01X4294642Y4953045D01*
G01X4294480Y4948053D01*
G01X4294113Y4944003D01*
G01X4293088Y4937478D01*
G03X4355456Y4850650I62369J-21015D01*
G03X4417825Y4937478I0J65814D01*
G01X4416800Y4944003D01*
G01X4416433Y4948053D01*
G01X4416270Y4953045D01*
G01X4416270Y5124685D01*
G01X4416433Y5129678D01*
G01X4416800Y5133727D01*
G01X4417825Y5140252D01*
G03X4419422Y5176754I-62369J21015D01*
G01X4807307Y5176754D01*
G01X4808007Y5176681D01*
G01X4808625Y5176518D01*
G03X4889730Y5174976I41538J51050D01*
G03X4910724Y5253331I-39567J52592D01*
G03X4951010Y5323615I-24861J60938D01*
G03X4892590Y5379738I-65147J-9346D01*
G01X4892037Y5380060D01*
G01X4891491Y5380503D01*
G01X4886137Y5385856D01*
G01X5038218Y5385856D01*
G01X5110332Y5313742D01*
G01X5110776Y5313195D01*
G01X5111098Y5312643D01*
G03X5223104Y5272831I65469J6726D01*
G03X5183293Y5384838I-46537J46538D01*
G01X5182740Y5385160D01*
G01X5182194Y5385603D01*
G01X5120740Y5447057D01*
G01X5150419Y5447057D01*
G01X5283735Y5313742D01*
G01X5284178Y5313195D01*
G01X5284500Y5312643D01*
G03X5396507Y5272831I65469J6726D01*
G03X5356696Y5384838I-46537J46538D01*
G01X5356143Y5385160D01*
G01X5355597Y5385603D01*
G01X5207398Y5533802D01*
G03X5171467Y5548685I-35931J-35931D01*
G01X4407105Y5548685D01*
G01X4100727Y5855062D01*
G01X4463869Y5855062D01*
G03X4522132Y5779206I64989J-10387D01*
G01X4522685Y5778884D01*
G01X4523231Y5778441D01*
G01X4625529Y5676143D01*
G03X4661460Y5661260I35931J35931D01*
G01X5194912Y5661260D01*
G01X5195612Y5661187D01*
G01X5196230Y5661024D01*
G03X5294687Y5679034I41538J51050D01*
G03X5261496Y5773461I-56920J33040D01*
G01X5512524Y5773461D01*
G01X6305046Y4980939D01*
G03X6340977Y4966056I35931J35931D01*
G01X7320564Y4966056D01*
G03X7350483Y4896064I64331J-13892D01*
G03X7426433Y4901114I34413J56100D01*
G01X7427051Y4901277D01*
G01X7427752Y4901350D01*
G01X8295324Y4901350D01*
G01X8297202Y4901216D01*
G01X8298931Y4900894D01*
G01X8299910Y4900596D01*
G01X8300642Y4900244D01*
G03X8379198Y4909894I32866J57020D01*
G03X8391677Y4988051I-45690J47370D01*
G01X8408983Y4988051D01*
G03X8516623Y5038865I41826J50814D01*
G03X8408983Y5089679I-65814J0D01*
G01X8284102Y5089679D01*
G03X8248171Y5074796I0J-50814D01*
G01X8241059Y5067684D01*
G01X8111463Y5067684D01*
G03X8054630Y5150235I-63559J17082D01*
G01X8054078Y5150557D01*
G01X8053531Y5151000D01*
G01X7699832Y5504700D01*
G03X7663901Y5519583I-35931J-35931D01*
G01X7391780Y5519583D01*
G03X7359677Y5596790I-62985J19088D01*
G03X7277726Y5580186I-30882J-58119D01*
G01X7082818Y5580186D01*
G03X7024417Y5655142I-65127J9486D01*
G01X7023864Y5655464D01*
G01X7023318Y5655907D01*
G01X6915503Y5763722D01*
G01X6915503Y6067023D01*
G01X6915576Y6067723D01*
G01X6915739Y6068341D01*
G03X6913633Y6153879I-51050J41538D01*
G03X6828802Y6165048I-48944J-44000D01*
G01X6828802Y6272434D01*
G01X6915915Y6359547D01*
G01X6916997Y6360460D01*
G01X6918218Y6361250D01*
G01X6918959Y6361613D01*
G01X6919508Y6361780D01*
G03X6947145Y6477037I-14019J64304D01*
G03X6839682Y6427038I-41655J-50954D01*
G01X6839002Y6426357D01*
G01X6839002Y6515829D01*
G01X6839075Y6516529D01*
G01X6839238Y6517147D01*
G03X6788188Y6624499I-51050J41538D01*
G03X6737138Y6517147I0J-65814D01*
G01X6737301Y6516529D01*
G01X6737374Y6515829D01*
G01X6737374Y6426731D01*
G01X6701300Y6390657D01*
G01X6701300Y6848741D01*
G01X6742814Y6890255D01*
G01X6743361Y6890699D01*
G01X6743913Y6891021D01*
G03X6801023Y6940476I-6726J65469D01*
G03X6774019Y7011032I-63836J16014D01*
G03X6778632Y7123560I-31732J57659D01*
G03X6676818Y7075418I-36344J-54869D01*
G01X6676496Y7074865D01*
G01X6676053Y7074319D01*
G01X6558454Y6956720D01*
G03X6543571Y6920790I35931J-35931D01*
G01X6543571Y6238427D01*
G01X6543499Y6237726D01*
G01X6543335Y6237108D01*
G03X6549756Y6147200I51050J-41538D01*
G03X6547748Y6145629I39529J-52621D01*
G01X6547130Y6145466D01*
G01X6546429Y6145393D01*
G01X6309429Y6145393D01*
G01X6211814Y6243008D01*
G01X6211371Y6243554D01*
G01X6211049Y6244107D01*
G03X6099042Y6283918I-65469J-6726D01*
G03X6138853Y6171911I46537J-46538D01*
G01X6139406Y6171590D01*
G01X6139952Y6171146D01*
G01X6252450Y6058648D01*
G03X6288381Y6043765I35931J35931D01*
G01X6546429Y6043765D01*
G01X6547130Y6043692D01*
G01X6547748Y6043529D01*
G03X6553798Y6039152I41538J51050D01*
G01X6440736Y5926090D01*
G01X6242481Y5926090D01*
G03X6206550Y5911207I0J-50814D01*
G01X6063451Y5768108D01*
G01X6062905Y5767665D01*
G01X6062352Y5767343D01*
G03X6003265Y5701848I6726J-65469D01*
G01X5987411Y5717701D01*
G01X5986968Y5718247D01*
G01X5986646Y5718800D01*
G03X5874639Y5758612I-65469J-6726D01*
G03X5914450Y5646605I46537J-46538D01*
G01X5915003Y5646283D01*
G01X5915549Y5645839D01*
G01X5977047Y5584342D01*
G03X6012978Y5569459I35931J35931D01*
G01X6736540Y5569459D01*
G01X6812557Y5493442D01*
G03X6848488Y5478559I35931J35931D01*
G01X6922009Y5478559D01*
G03X6954472Y5411607I65082J-9789D01*
G03X7028628Y5417719I32618J57162D01*
G01X7029246Y5417883D01*
G01X7029946Y5417955D01*
G01X7642853Y5417955D01*
G01X7675325Y5385483D01*
G01X6723197Y5385483D01*
G03X6698008Y5460278I-62511J20587D01*
G03X6619149Y5457120I-37322J-54208D01*
G01X6618530Y5456957D01*
G01X6617830Y5456884D01*
G01X6331237Y5456884D01*
G01X6330537Y5456957D01*
G01X6329919Y5457120D01*
G03X6256910Y5463872I-41538J-51050D01*
G03X6222961Y5398884I31471J-57802D01*
G03X6178175Y5305926I14420J-64215D01*
G03X6278918Y5283619I59206J28743D01*
G01X6279536Y5283782D01*
G01X6280237Y5283855D01*
G01X6600797Y5283855D01*
G03X6632906Y5216456I64989J-10387D01*
G03X6707324Y5222418I32880J57012D01*
G01X6707942Y5222581D01*
G01X6708642Y5222654D01*
G01X7182205Y5222654D01*
G03X7260240Y5147760I64989J-10387D01*
G01X7313561Y5094439D01*
G01X7314004Y5093892D01*
G01X7314326Y5093340D01*
G03X7322499Y5067684I65469J6726D01*
G01X6362025Y5067684D01*
G01X5569503Y5860206D01*
G01X1493682Y4743698D02*
G03X1533864Y4631654I46537J-46537D01*
G01X1601190Y4564329D01*
G03X1637121Y4549446I35931J35931D01*
G01X1804398Y4549446D01*
G03X1890475Y4551543I41826J50814D01*
G03X1900813Y4637023I-44251J48717D01*
G03X1933861Y4651374I-8688J65238D01*
G01X1934412Y4651520D01*
G01X1935095Y4651591D01*
G01X2043071Y4651591D01*
G01X2043771Y4651518D01*
G01X2044389Y4651355D01*
G03X2151741Y4702405I41538J51050D01*
G03X2044389Y4753455I-65814J0D01*
G01X2043771Y4753292D01*
G01X2043071Y4753219D01*
G01X1934865Y4753219D01*
G01X1934146Y4753293D01*
G01X1933451Y4753482D01*
G03X1847635Y4750760I-41327J-51221D01*
G03X1837536Y4665497I44489J-48499D01*
G03X1804398Y4651074I8688J-65238D01*
G01X1658169Y4651074D01*
G01X1605726Y4703516D01*
G03X1493682Y4743698I-65506J-6355D01*
G01X10388948Y377405D02*
G01X10388948Y846611D01*
G03X10353134Y882425I-35814J0D01*
G01X1553134Y882425D01*
G03X1517320Y846611I0J-35814D01*
G01X1517320Y377405D01*
G03X1553134Y341591I35814J0D01*
G01X10353134Y341591D01*
G03X10388948Y377405I0J35814D01*
G01X1713928Y7251088D02*
G03X1542300Y7251088I-85814J0D01*
G03X1713928Y7251088I85814J0D01*
G01X1769723Y3631734D02*
G03X1820773Y3739085I0J65814D01*
G01X1820610Y3739704D01*
G01X1820537Y3740404D01*
G01X1820537Y4384611D01*
G03X1784009Y4497127I-45714J47347D01*
G03X1717803Y4399091I-9186J-65170D01*
G01X1718155Y4398360D01*
G01X1718453Y4397381D01*
G01X1718775Y4395651D01*
G01X1718909Y4393774D01*
G01X1718909Y3740404D01*
G01X1718836Y3739704D01*
G01X1718673Y3739086D01*
G03X1769723Y3631734I51050J-41538D01*
G01X2024840Y3653002D02*
G01X2024677Y3652384D01*
G03X2075727Y3545033I51050J-41538D01*
G03X2126777Y3652384I0J65814D01*
G01X2126614Y3653002D01*
G01X2126541Y3653703D01*
G01X2126541Y4021897D01*
G01X2126614Y4022597D01*
G01X2126777Y4023215D01*
G03X2126777Y4106290I-51050J41538D01*
G01X2126614Y4106908D01*
G01X2126541Y4107609D01*
G01X2126541Y4365009D01*
G01X2142555Y4381023D01*
G01X2143101Y4381466D01*
G01X2143654Y4381788D01*
G03X2183465Y4493795I-6726J65469D01*
G03X2071458Y4453984I-46538J-46537D01*
G01X2071136Y4453431D01*
G01X2070693Y4452885D01*
G01X2039796Y4421988D01*
G03X2024913Y4386057I35931J-35931D01*
G01X2024913Y4107609D01*
G01X2024840Y4106908D01*
G01X2024677Y4106290D01*
G03X2024677Y4023215I51050J-41538D01*
G01X2024840Y4022597D01*
G01X2024913Y4021897D01*
G01X2024913Y3653703D01*
G01X2024840Y3653002D01*
G01X2513927Y7251088D02*
G03X2342299Y7251088I-85814J0D01*
G03X2513927Y7251088I85814J0D01*
G01X2632121Y3743448D02*
G03X2697935Y3677635I65814J0D01*
G01X4263655Y3677635D01*
G03X4310193Y3696911I0J65814D01*
G01X4315293Y3702011D01*
G03X4248207Y3811072I-46537J46537D01*
G01X4245828Y3810406D01*
G01X4242775Y3809823D01*
G01X4239488Y3809405D01*
G01X4236820Y3809262D01*
G01X2697935Y3809262D01*
G03X2632121Y3743448I0J-65814D01*
G01X2632121Y3928657D02*
G03X2739761Y3877843I65814J0D01*
G01X3846277Y3877843D01*
G03X3934540Y3955823I24673J61014D01*
G03X3819162Y3979471I-63590J-16966D01*
G01X2739761Y3979471D01*
G03X2632121Y3928657I-41826J-50814D01*
G01X4688316Y4804148D02*
G01X4687698Y4804311D01*
G03X4580346Y4753262I-41538J-51050D01*
G03X4687698Y4702212I65814J0D01*
G01X4688316Y4702375D01*
G01X4689016Y4702448D01*
G01X5087810Y4702448D01*
G01X5088511Y4702375D01*
G01X5089129Y4702212D01*
G03X5196480Y4753261I41538J51050D01*
G03X5089129Y4804311I-65814J0D01*
G01X5088511Y4804148D01*
G01X5087810Y4804075D01*
G01X4689016Y4804075D01*
G01X4688316Y4804148D01*
G01X5645125Y4630673D02*
G01X5607028Y4630673D01*
G01X5606328Y4630746D01*
G01X5605710Y4630909D01*
G03X5517785Y4626547I-41538J-51050D01*
G03X5512854Y4538653I46387J-46688D01*
G01X5512854Y4295281D01*
G03X5563668Y4187641I50814J-41826D01*
G03X5614482Y4295281I0J65814D01*
G01X5614482Y4529045D01*
G01X5666173Y4529045D01*
G03X5702104Y4543928I0J50814D01*
G01X5736666Y4578490D01*
G03X5840313Y4549210I62109J21770D01*
G01X5840931Y4549373D01*
G01X5841631Y4549446D01*
G01X5935985Y4549446D01*
G03X5958685Y4449277I51493J-40987D01*
G03X5998326Y4330446I38992J-53020D01*
G03X6037815Y4274666I65652J4610D01*
G03X6105516Y4284006I26164J60390D01*
G01X6106134Y4284169D01*
G01X6106834Y4284242D01*
G01X7318595Y4284242D01*
G03X7354526Y4299125I0J50814D01*
G01X7380443Y4325043D01*
G01X7459841Y4325043D01*
G03X7474016Y4272830I64989J-10387D01*
G01X7474016Y3859249D01*
G03X7481229Y3763662I48581J-44400D01*
G01X7253319Y3763662D01*
G03X7152097Y3684501I-41826J-50814D01*
G01X6935569Y3901029D01*
G03X6874889Y3926164I-60680J-60680D01*
G01X6171080Y3926164D01*
G03X6171080Y3754536I0J-85814D01*
G01X6839344Y3754536D01*
G01X6967919Y3625960D01*
G01X6860614Y3625960D01*
G03X6752974Y3575146I-41826J-50814D01*
G03X6860614Y3524332I65814J0D01*
G01X6955842Y3524332D01*
G01X7008285Y3471890D01*
G03X7009949Y3462258I65506J6355D01*
G01X5977277Y3462258D01*
G03X5977277Y3310630I0J-75814D01*
G01X10184832Y3310630D01*
G03X10184832Y3462258I0J75814D01*
G01X7137634Y3462258D01*
G03X7139549Y3475516I-63843J15987D01*
G03X7155382Y3474042I15834J84341D01*
G01X10424535Y3474042D01*
G03X10501423Y3521747I0J85814D01*
G01X10501423Y2478632D01*
G03X10519235Y2435630I60814J0D01*
G01X10674845Y2280020D01*
G03X10782176Y2258692I60794J25210D01*
G03X10760848Y2366024I-46537J46537D01*
G01X10623051Y2503822D01*
G01X10623051Y2525617D01*
G01X10985949Y2162719D01*
G03X11093280Y2141391I60794J25210D01*
G03X11071953Y2248723I-46537J46537D01*
G01X10704652Y2616023D01*
G01X10704652Y3606831D01*
G01X10996149Y3315334D01*
G03X11070381Y3276116I60794J25210D01*
G03X11122746Y3341738I-13438J64428D01*
G01X11179751Y3284733D01*
G03X11287083Y3263405I60794J25210D01*
G03X11265755Y3370737I-46537J46537D01*
G01X10878054Y3758438D01*
G01X10878054Y5793675D01*
G03X10860242Y5836677I-60814J0D01*
G01X10046743Y6650176D01*
G01X10046743Y6951390D01*
G03X10028931Y6994392I-60814J0D01*
G01X9692327Y7330996D01*
G03X9649325Y7348808I-43002J-43002D01*
G01X8751375Y7348808D01*
G03X8660399Y7287994I-25162J-60814D01*
G03X8751375Y7227180I65814J0D01*
G01X9624135Y7227180D01*
G01X9631329Y7219986D01*
G03X9618724Y7221307I-12605J-59493D01*
G01X8715675Y7221307D01*
G03X8624699Y7160493I-25162J-60814D01*
G03X8715675Y7099679I65814J0D01*
G01X9593535Y7099679D01*
G01X9768939Y6924275D01*
G01X9768939Y6587360D01*
G03X9786751Y6544358I60814J0D01*
G01X10674825Y5656284D01*
G01X10674825Y3864766D01*
G01X10230346Y4309245D01*
G01X10230346Y5528472D01*
G03X10212534Y5571474I-60814J0D01*
G01X10090718Y5693289D01*
G01X10090718Y5949173D01*
G03X10072906Y5992174I-60814J0D01*
G01X9504195Y6560886D01*
G03X9461193Y6578698I-43002J-43002D01*
G01X8501500Y6578698D01*
G01X8282101Y6798097D01*
G03X8175307Y6819957I-60794J-25210D01*
G03X8194706Y6712689I45999J-47069D01*
G03X8150422Y6652470I21501J-62203D01*
G03X8190997Y6589692I65784J-1984D01*
G01X8373208Y6407480D01*
G03X8416210Y6389668I43002J43002D01*
G01X8568744Y6389668D01*
G03X8604182Y6326822I65668J-4386D01*
G03X8675949Y6334233I30230J58460D01*
G01X8676567Y6334396D01*
G01X8677268Y6334469D01*
G01X8713957Y6334469D01*
G01X8714658Y6334396D01*
G01X8715276Y6334233D01*
G03X8787043Y6326822I41538J51050D01*
G03X8822481Y6389668I-30230J58461D01*
G01X9380433Y6389668D01*
G01X9768939Y6001163D01*
G01X9768939Y5664248D01*
G03X9786751Y5621246I60814J0D01*
G01X10027117Y5380880D01*
G01X10027117Y4238155D01*
G03X10044929Y4195153I60814J0D01*
G01X10501423Y3738659D01*
G01X10501423Y3597965D01*
G03X10424535Y3645670I-76888J-38109D01*
G01X7190928Y3645670D01*
G01X7183146Y3653452D01*
G03X7253319Y3662034I28347J59396D01*
G01X8854542Y3662034D01*
G03X8942804Y3740014I24673J61014D01*
G03X8827427Y3763662I-63590J-16966D01*
G01X7563966Y3763662D01*
G03X7575644Y3853805I-41368J51187D01*
G01X7575644Y4272830D01*
G03X7588999Y4300033I-50814J41826D01*
G03X7659667Y4361293I4999J65624D01*
G03X7664192Y4361054I5732J65564D01*
G03X7675786Y4298330I62408J-20898D01*
G01X7675786Y3994377D01*
G03X7726600Y3886737I50814J-41826D01*
G03X7777414Y3994377I0J65814D01*
G01X7777414Y4298330D01*
G03X7727807Y4405959I-50814J41826D01*
G03X7702856Y4480972I-62408J20898D01*
G03X7623862Y4477907I-37457J-54115D01*
G01X7623243Y4477744D01*
G01X7622543Y4477671D01*
G01X6443452Y4477671D01*
G03X6438841Y4546708I-58169J30787D01*
G03X6452909Y4640177I-38258J53552D01*
G03X6359045Y4651310I-52327J-39917D01*
G01X6358427Y4651146D01*
G01X6357727Y4651074D01*
G01X5841631Y4651074D01*
G01X5840931Y4651146D01*
G01X5840313Y4651309D01*
G03X5820545Y4662369I-41538J-51050D01*
G01X6100206Y4942030D01*
G01X6100752Y4942474D01*
G01X6101305Y4942795D01*
G03X6141116Y5054802I-6726J65469D01*
G03X6029110Y5014991I-46538J-46537D01*
G01X6028788Y5014438D01*
G01X6028344Y5013892D01*
G01X5645125Y4630673D01*
G01X5926764Y2918678D02*
G03X6027453Y2862864I65814J0D01*
G01X6559510Y2862864D01*
G03X6660199Y2918678I34875J55814D01*
G03X6559510Y2974492I-65814J0D01*
G01X6027453Y2974492D01*
G03X5926764Y2918678I-34875J-55814D01*
G01X6517818Y4830290D02*
G01X6517375Y4830836D01*
G01X6517053Y4831388D01*
G03X6405046Y4871200I-65469J-6726D01*
G03X6444857Y4759193I46537J-46538D01*
G01X6445410Y4758871D01*
G01X6445956Y4758428D01*
G01X6573755Y4630629D01*
G03X6609686Y4615746I35931J35931D01*
G01X8381896Y4615746D01*
G01X8382596Y4615674D01*
G01X8383214Y4615510D01*
G03X8490566Y4666560I41538J51050D01*
G03X8383214Y4717610I-65814J0D01*
G01X8382596Y4717447D01*
G01X8381896Y4717374D01*
G01X6630733Y4717374D01*
G01X6517818Y4830290D01*
G01X7196380Y2581659D02*
G03X7229079Y2476561I50814J-41826D01*
G03X7312444Y2548430I18114J63272D01*
G03X7394774Y2564144I31651J57703D01*
G03X7394909Y2647960I-50679J41990D01*
G01X7394909Y2982513D01*
G03X7344095Y3090153I-50814J41826D01*
G03X7293281Y2982513I0J-65814D01*
G01X7293281Y2841820D01*
G03X7202726Y2843355I-46087J-46983D01*
G03X7196380Y2753010I44468J-48519D01*
G01X7196380Y2581659D01*
G01X7456296Y6594303D02*
G03X7456296Y6352675I0J-120814D01*
G03X7456296Y6594303I0J120814D01*
G01X7456296Y6848303D02*
G03X7456296Y6606675I0J-120814D01*
G03X7456296Y6848303I0J120814D01*
G01X7456296Y7102303D02*
G03X7456296Y6860675I0J-120814D01*
G03X7456296Y7102303I0J120814D01*
G01X7335483Y7150489D02*
G03X7371297Y7114675I35814J0D01*
G01X7541296Y7114675D01*
G03X7577110Y7150489I0J35814D01*
G01X7577110Y7320489D01*
G03X7541296Y7356303I-35814J0D01*
G01X7371297Y7356303D01*
G03X7335483Y7320489I0J-35814D01*
G01X7335483Y7150489D01*
G01X7497097Y2540320D02*
G03X7547911Y2647960I0J65814D01*
G01X7547911Y2972313D01*
G03X7497097Y3079953I-50814J41826D01*
G03X7446283Y2972313I0J-65814D01*
G01X7446283Y2647960D01*
G03X7497097Y2540320I50814J-41826D01*
G01X8131528Y4199838D02*
G01X8130982Y4199395D01*
G01X8130429Y4199073D01*
G03X8090618Y4087066I6726J-65469D01*
G03X8202625Y4126877I46538J46537D01*
G01X8202947Y4127430D01*
G01X8203390Y4127976D01*
G01X8287838Y4212424D01*
G03X8302721Y4248355I-35931J35931D01*
G01X8302721Y4440102D01*
G01X8302794Y4440802D01*
G01X8302957Y4441420D01*
G03X8251907Y4548772I-51050J41538D01*
G03X8200857Y4441420I0J-65814D01*
G01X8201020Y4440802D01*
G01X8201093Y4440102D01*
G01X8201093Y4269403D01*
G01X8131528Y4199838D01*
G01X4095079Y5614986D02*
G01X2402779Y5614986D01*
G01X2341204Y5676560D01*
G01X4033505Y5676560D01*
G01X4095079Y5614986D01*
G01X7582488Y5222654D02*
G03X7593949Y5160530I62511J-20587D01*
G01X7594112Y5159912D01*
G01X7594185Y5159211D01*
G01X7594185Y5135766D01*
G03X7609068Y5099836I50814J0D01*
G01X7634865Y5074038D01*
G01X7635308Y5073492D01*
G01X7635630Y5072940D01*
G03X7636386Y5067684I65469J6726D01*
G01X7437092Y5067684D01*
G03X7386522Y5165535I-57296J32382D01*
G01X7385969Y5165857D01*
G01X7385423Y5166301D01*
G01X7329069Y5222654D01*
G01X7582488Y5222654D01*
G04 Copper End*

G04 TearDrop Start*
G36*
G01X7028090Y5483769D02*
G01X7028090Y5453769D01*
G01X7022785Y5453218D01*
G01X7016981Y5451685D01*
G01X7011482Y5449355D01*
G01X7007090Y5446409D01*
G01X7007090Y5491130D01*
G01X7011482Y5488184D01*
G01X7016981Y5485853D01*
G01X7022785Y5484321D01*
G01X7028090Y5483769D01*
G37*
G36*
G01X6491181Y4806278D02*
G01X6469968Y4785065D01*
G01X6465827Y4788426D01*
G01X6460639Y4791447D01*
G01X6455102Y4793687D01*
G01X6449914Y4794709D01*
G01X6481537Y4826332D01*
G01X6482559Y4821144D01*
G01X6484799Y4815607D01*
G01X6487820Y4810419D01*
G01X6491181Y4806278D01*
G37*
G36*
G01X6329381Y5421070D02*
G01X6329381Y5391070D01*
G01X6324075Y5390519D01*
G01X6318272Y5388986D01*
G01X6312772Y5386655D01*
G01X6308381Y5383709D01*
G01X6308381Y5428431D01*
G01X6312772Y5425485D01*
G01X6318272Y5423154D01*
G01X6324075Y5421621D01*
G01X6329381Y5421070D01*
G37*
G36*
G01X6278381Y5349669D02*
G01X6278381Y5319669D01*
G01X6273075Y5319118D01*
G01X6267271Y5317585D01*
G01X6261772Y5315254D01*
G01X6257381Y5312308D01*
G01X6257381Y5357030D01*
G01X6261772Y5354084D01*
G01X6267271Y5351753D01*
G01X6273075Y5350220D01*
G01X6278381Y5349669D01*
G37*
G36*
G01X6635486Y6354882D02*
G01X6665486Y6354882D01*
G01X6666037Y6349576D01*
G01X6667570Y6343772D01*
G01X6669901Y6338273D01*
G01X6672847Y6333882D01*
G01X6628125Y6333882D01*
G01X6631071Y6338273D01*
G01X6633402Y6343772D01*
G01X6634935Y6349576D01*
G01X6635486Y6354882D01*
G37*
G36*
G01X6718802Y6916892D02*
G01X6697589Y6938105D01*
G01X6700951Y6942247D01*
G01X6703971Y6947435D01*
G01X6706212Y6952971D01*
G01X6707234Y6958159D01*
G01X6738856Y6926537D01*
G01X6733668Y6925515D01*
G01X6728132Y6923274D01*
G01X6722944Y6920254D01*
G01X6718802Y6916892D01*
G37*
G36*
G01X6579385Y6236570D02*
G01X6609385Y6236570D01*
G01X6609937Y6231265D01*
G01X6611469Y6225461D01*
G01X6613800Y6219962D01*
G01X6616746Y6215571D01*
G01X6572025Y6215571D01*
G01X6574971Y6219962D01*
G01X6577301Y6225461D01*
G01X6578834Y6231265D01*
G01X6579385Y6236570D01*
G37*
G36*
G01X6723902Y7029094D02*
G01X6702689Y7050307D01*
G01X6706051Y7054448D01*
G01X6709071Y7059636D01*
G01X6711312Y7065173D01*
G01X6712334Y7070361D01*
G01X6743957Y7038738D01*
G01X6738768Y7037716D01*
G01X6733232Y7035476D01*
G01X6728044Y7032455D01*
G01X6723902Y7029094D01*
G37*
G36*
G01X6891658Y6385938D02*
G01X6866643Y6403350D01*
G01X6870130Y6407675D01*
G01X6873070Y6413002D01*
G01X6875024Y6418701D01*
G01X6875494Y6421492D01*
G01X6875552Y6424140D01*
G01X6910747Y6396548D01*
G01X6905805Y6395048D01*
G01X6900557Y6392480D01*
G01X6895632Y6389294D01*
G01X6891658Y6385938D01*
G37*
G36*
G01X6268181Y5793375D02*
G01X6268181Y5763375D01*
G01X6262875Y5762823D01*
G01X6257071Y5761291D01*
G01X6251572Y5758960D01*
G01X6247181Y5756014D01*
G01X6247181Y5800735D01*
G01X6251572Y5797790D01*
G01X6257071Y5795459D01*
G01X6262875Y5793926D01*
G01X6268181Y5793375D01*
G37*
G36*
G01X6803188Y6517685D02*
G01X6773188Y6517685D01*
G01X6772636Y6522991D01*
G01X6771104Y6528795D01*
G01X6768773Y6534294D01*
G01X6765827Y6538685D01*
G01X6810548Y6538685D01*
G01X6807603Y6534294D01*
G01X6805272Y6528795D01*
G01X6803739Y6522991D01*
G01X6803188Y6517685D01*
G37*
G36*
G01X6087463Y5741472D02*
G01X6108676Y5720259D01*
G01X6105315Y5716117D01*
G01X6102294Y5710929D01*
G01X6100054Y5705393D01*
G01X6099032Y5700205D01*
G01X6067409Y5731827D01*
G01X6072597Y5732849D01*
G01X6078134Y5735090D01*
G01X6083322Y5738110D01*
G01X6087463Y5741472D01*
G37*
G36*
G01X3980733Y5252769D02*
G01X3930733Y5252769D01*
G01X3930518Y5259379D01*
G01X3929952Y5265630D01*
G01X3928233Y5276566D01*
G01X3926515Y5284603D01*
G01X3925733Y5288768D01*
G01X3985733Y5288768D01*
G01X3984952Y5284603D01*
G01X3983233Y5276566D01*
G01X3981515Y5265630D01*
G01X3980948Y5259379D01*
G01X3980733Y5252769D01*
G37*
G36*
G01X4846265Y5332654D02*
G01X4867478Y5353867D01*
G01X4871620Y5350505D01*
G01X4876808Y5347485D01*
G01X4882344Y5345244D01*
G01X4887533Y5344222D01*
G01X4855910Y5312599D01*
G01X4854888Y5317788D01*
G01X4852647Y5323324D01*
G01X4849627Y5328512D01*
G01X4846265Y5332654D01*
G37*
G36*
G01X2166325Y5800791D02*
G01X2145112Y5779577D01*
G01X2140971Y5782939D01*
G01X2135783Y5785959D01*
G01X2130246Y5788200D01*
G01X2125058Y5789222D01*
G01X2156681Y5820845D01*
G01X2157703Y5815656D01*
G01X2159943Y5810120D01*
G01X2162964Y5804932D01*
G01X2166325Y5800791D01*
G37*
G36*
G01X5136969Y5337754D02*
G01X5158182Y5358967D01*
G01X5162324Y5355605D01*
G01X5167512Y5352585D01*
G01X5173048Y5350344D01*
G01X5178236Y5349322D01*
G01X5146614Y5317700D01*
G01X5145592Y5322888D01*
G01X5143351Y5328424D01*
G01X5140331Y5333612D01*
G01X5136969Y5337754D01*
G37*
G36*
G01X2268327Y5805891D02*
G01X2247114Y5784678D01*
G01X2242972Y5788039D01*
G01X2237784Y5791060D01*
G01X2232248Y5793300D01*
G01X2227060Y5794322D01*
G01X2258682Y5825945D01*
G01X2259704Y5820756D01*
G01X2261945Y5815220D01*
G01X2264965Y5810032D01*
G01X2268327Y5805891D01*
G37*
G36*
G01X5310371Y5337754D02*
G01X5331584Y5358967D01*
G01X5335726Y5355605D01*
G01X5340914Y5352585D01*
G01X5346450Y5350344D01*
G01X5351639Y5349322D01*
G01X5320016Y5317700D01*
G01X5318994Y5322888D01*
G01X5316753Y5328424D01*
G01X5313733Y5333612D01*
G01X5310371Y5337754D01*
G37*
G36*
G01X2426429Y5953793D02*
G01X2405216Y5932579D01*
G01X2401074Y5935941D01*
G01X2395886Y5938961D01*
G01X2390350Y5941202D01*
G01X2385162Y5942224D01*
G01X2416784Y5973847D01*
G01X2417806Y5968658D01*
G01X2420047Y5963122D01*
G01X2423067Y5957934D01*
G01X2426429Y5953793D01*
G37*
G36*
G01X4330456Y4952464D02*
G01X4380456Y4952464D01*
G01X4380671Y4945853D01*
G01X4381238Y4939602D01*
G01X4382956Y4928666D01*
G01X4384675Y4920629D01*
G01X4385456Y4916464D01*
G01X4325456Y4916464D01*
G01X4326238Y4920629D01*
G01X4327956Y4928666D01*
G01X4329675Y4939602D01*
G01X4330242Y4945853D01*
G01X4330456Y4952464D01*
G37*
G36*
G01X4380456Y5125267D02*
G01X4330456Y5125267D01*
G01X4330242Y5131877D01*
G01X4329675Y5138128D01*
G01X4327956Y5149064D01*
G01X4326238Y5157101D01*
G01X4325456Y5161267D01*
G01X4385456Y5161267D01*
G01X4384675Y5157101D01*
G01X4382956Y5149064D01*
G01X4381238Y5138128D01*
G01X4380671Y5131877D01*
G01X4380456Y5125267D01*
G37*
G36*
G01X4396058Y5289069D02*
G01X4396058Y5319069D01*
G01X4401363Y5319620D01*
G01X4407167Y5321153D01*
G01X4412666Y5323483D01*
G01X4417057Y5326429D01*
G01X4417057Y5281708D01*
G01X4412666Y5284654D01*
G01X4407167Y5286985D01*
G01X4401363Y5288517D01*
G01X4396058Y5289069D01*
G37*
G36*
G01X3146440Y5446671D02*
G01X3116441Y5446671D01*
G01X3115889Y5451977D01*
G01X3114356Y5457781D01*
G01X3112026Y5463280D01*
G01X3109080Y5467671D01*
G01X3153801Y5467671D01*
G01X3150855Y5463280D01*
G01X3148525Y5457781D01*
G01X3146992Y5451977D01*
G01X3146440Y5446671D01*
G37*
G36*
G01X3172440Y5502671D02*
G01X3172440Y5472671D01*
G01X3167135Y5472120D01*
G01X3161331Y5470587D01*
G01X3155832Y5468256D01*
G01X3151440Y5465310D01*
G01X3151440Y5510032D01*
G01X3155832Y5507086D01*
G01X3161331Y5504755D01*
G01X3167135Y5503222D01*
G01X3172440Y5502671D01*
G37*
G36*
G01X4836065Y5863060D02*
G01X4857278Y5884273D01*
G01X4861420Y5880912D01*
G01X4866608Y5877891D01*
G01X4872144Y5875651D01*
G01X4877332Y5874629D01*
G01X4845710Y5843006D01*
G01X4844688Y5848195D01*
G01X4842447Y5853731D01*
G01X4839427Y5858919D01*
G01X4836065Y5863060D01*
G37*
G36*
G01X3330542Y5920876D02*
G01X3330542Y5890876D01*
G01X3325237Y5890325D01*
G01X3319433Y5888792D01*
G01X3313934Y5886462D01*
G01X3309543Y5883516D01*
G01X3309543Y5928237D01*
G01X3313934Y5925291D01*
G01X3319433Y5922960D01*
G01X3325237Y5921428D01*
G01X3330542Y5920876D01*
G37*
G36*
G01X3417244Y5982077D02*
G01X3417244Y5952077D01*
G01X3411938Y5951526D01*
G01X3406134Y5949993D01*
G01X3400635Y5947662D01*
G01X3396244Y5944717D01*
G01X3396244Y5989438D01*
G01X3400635Y5986492D01*
G01X3406134Y5984161D01*
G01X3411938Y5982629D01*
G01X3417244Y5982077D01*
G37*
G36*
G01X4856466Y5954862D02*
G01X4877679Y5976075D01*
G01X4881820Y5972713D01*
G01X4887008Y5969693D01*
G01X4892544Y5967452D01*
G01X4897733Y5966430D01*
G01X4866110Y5934808D01*
G01X4865088Y5939996D01*
G01X4862848Y5945532D01*
G01X4859827Y5950720D01*
G01X4856466Y5954862D01*
G37*
G36*
G01X4793863Y6266770D02*
G01X4793863Y6296770D01*
G01X4799168Y6297321D01*
G01X4804972Y6298854D01*
G01X4810471Y6301185D01*
G01X4814863Y6304131D01*
G01X4814863Y6259409D01*
G01X4810471Y6262355D01*
G01X4804972Y6264686D01*
G01X4799168Y6266219D01*
G01X4793863Y6266770D01*
G37*
G36*
G01X4287140Y6083176D02*
G01X4308353Y6061963D01*
G01X4304991Y6057821D01*
G01X4301971Y6052634D01*
G01X4299731Y6047097D01*
G01X4298709Y6041909D01*
G01X4267086Y6073532D01*
G01X4272274Y6074554D01*
G01X4277811Y6076794D01*
G01X4282998Y6079814D01*
G01X4287140Y6083176D01*
G37*
G36*
G01X4013553Y5406370D02*
G01X4013553Y5436370D01*
G01X4018858Y5436922D01*
G01X4024662Y5438454D01*
G01X4030161Y5440785D01*
G01X4034553Y5443731D01*
G01X4034553Y5399010D01*
G01X4030161Y5401955D01*
G01X4024662Y5404286D01*
G01X4018858Y5405819D01*
G01X4013553Y5406370D01*
G37*
G36*
G01X2910122Y5078463D02*
G01X2931335Y5057250D01*
G01X2927974Y5053108D01*
G01X2924953Y5047921D01*
G01X2922713Y5042384D01*
G01X2921691Y5037196D01*
G01X2890068Y5068819D01*
G01X2895256Y5069841D01*
G01X2900793Y5072081D01*
G01X2905980Y5075101D01*
G01X2910122Y5078463D01*
G37*
G36*
G01X2731302Y5206716D02*
G01X2759587Y5235001D01*
G01X2763617Y5230275D01*
G01X2766843Y5226168D01*
G01X2768562Y5224504D01*
G01X2770570Y5223183D01*
G01X2773030Y5222267D01*
G01X2776105Y5221821D01*
G01X2744482Y5190198D01*
G01X2744036Y5193273D01*
G01X2743120Y5195733D01*
G01X2741799Y5197741D01*
G01X2740135Y5199460D01*
G01X2736029Y5202686D01*
G01X2731302Y5206716D01*
G37*
G36*
G01X2612815Y5381773D02*
G01X2580729Y5357290D01*
G01X2576734Y5362178D01*
G01X2573970Y5366314D01*
G01X2572506Y5368030D01*
G01X2570697Y5369474D01*
G01X2568326Y5370618D01*
G01X2565175Y5371434D01*
G01X2600370Y5399026D01*
G01X2600476Y5395966D01*
G01X2601173Y5393434D01*
G01X2602372Y5391297D01*
G01X2603985Y5389417D01*
G01X2608101Y5385891D01*
G01X2612815Y5381773D01*
G37*
G36*
G01X2068129Y5941378D02*
G01X2028129Y5941378D01*
G01X2028621Y5947570D01*
G01X2029244Y5952754D01*
G01X2029204Y5955147D01*
G01X2028719Y5957500D01*
G01X2027627Y5959887D01*
G01X2025768Y5962377D01*
G01X2070489Y5962377D01*
G01X2068631Y5959887D01*
G01X2067539Y5957500D01*
G01X2067053Y5955147D01*
G01X2067014Y5952754D01*
G01X2067637Y5947570D01*
G01X2068129Y5941378D01*
G37*
G36*
G01X2042793Y5716723D02*
G01X2071078Y5745007D01*
G01X2075108Y5740281D01*
G01X2078334Y5736174D01*
G01X2080053Y5734510D01*
G01X2082061Y5733189D01*
G01X2084521Y5732274D01*
G01X2087596Y5731827D01*
G01X2055974Y5700205D01*
G01X2055527Y5703280D01*
G01X2054612Y5705740D01*
G01X2053291Y5707748D01*
G01X2051626Y5709467D01*
G01X2047520Y5712692D01*
G01X2042793Y5716723D01*
G37*
G36*
G01X2838721Y5134564D02*
G01X2859934Y5113351D01*
G01X2856573Y5109209D01*
G01X2853552Y5104021D01*
G01X2851312Y5098485D01*
G01X2850290Y5093297D01*
G01X2818667Y5124919D01*
G01X2823855Y5125941D01*
G01X2829392Y5128182D01*
G01X2834580Y5131202D01*
G01X2838721Y5134564D01*
G37*
G36*
G01X2060727Y4105753D02*
G01X2090727Y4105753D01*
G01X2091278Y4100447D01*
G01X2092811Y4094643D01*
G01X2095142Y4089144D01*
G01X2098087Y4084753D01*
G01X2053366Y4084753D01*
G01X2056312Y4089144D01*
G01X2058643Y4094643D01*
G01X2060175Y4100447D01*
G01X2060727Y4105753D01*
G37*
G36*
G01X2090727Y4023753D02*
G01X2060727Y4023753D01*
G01X2060175Y4029058D01*
G01X2058643Y4034862D01*
G01X2056312Y4040361D01*
G01X2053366Y4044753D01*
G01X2098087Y4044753D01*
G01X2095142Y4040361D01*
G01X2092811Y4034862D01*
G01X2091278Y4029058D01*
G01X2090727Y4023753D01*
G37*
G36*
G01X2060727Y3651847D02*
G01X2090727Y3651847D01*
G01X2091278Y3646541D01*
G01X2092811Y3640737D01*
G01X2095142Y3635238D01*
G01X2098087Y3630847D01*
G01X2053366Y3630847D01*
G01X2056312Y3635238D01*
G01X2058643Y3640737D01*
G01X2060175Y3646541D01*
G01X2060727Y3651847D01*
G37*
G36*
G01X1754723Y3738548D02*
G01X1784723Y3738548D01*
G01X1785274Y3733242D01*
G01X1786807Y3727438D01*
G01X1789138Y3721939D01*
G01X1792084Y3717548D01*
G01X1747362Y3717548D01*
G01X1750308Y3721939D01*
G01X1752639Y3727438D01*
G01X1754171Y3733242D01*
G01X1754723Y3738548D01*
G37*
G36*
G01X1784723Y4387447D02*
G01X1754723Y4395050D01*
G01X1754354Y4400218D01*
G01X1753295Y4405906D01*
G01X1751616Y4411415D01*
G01X1749388Y4416050D01*
G01X1793458Y4408447D01*
G01X1791499Y4406578D01*
G01X1789766Y4404311D01*
G01X1787022Y4398947D01*
G01X1785312Y4393083D01*
G01X1784723Y4387447D01*
G37*
G36*
G01X2118543Y4407660D02*
G01X2097330Y4428873D01*
G01X2100692Y4433015D01*
G01X2103712Y4438202D01*
G01X2105952Y4443739D01*
G01X2106974Y4448927D01*
G01X2138597Y4417304D01*
G01X2133409Y4416282D01*
G01X2127872Y4414042D01*
G01X2122685Y4411021D01*
G01X2118543Y4407660D01*
G37*
G36*
G01X2044927Y4687405D02*
G01X2044927Y4717405D01*
G01X2050233Y4717957D01*
G01X2056037Y4719489D01*
G01X2061536Y4721820D01*
G01X2065927Y4724766D01*
G01X2065927Y4680044D01*
G01X2061536Y4682990D01*
G01X2056037Y4685321D01*
G01X2050233Y4686854D01*
G01X2044927Y4687405D01*
G37*
G36*
G01X1933017Y4717405D02*
G01X1933232Y4687405D01*
G01X1927919Y4686851D01*
G01X1922113Y4685309D01*
G01X1916616Y4682963D01*
G01X1912232Y4679997D01*
G01X1912017Y4724718D01*
G01X1916414Y4721792D01*
G01X1921916Y4719477D01*
G01X1927718Y4717953D01*
G01X1933017Y4717405D01*
G37*
G36*
G01X901509Y3325864D02*
G01X880296Y3304650D01*
G01X876154Y3308012D01*
G01X870967Y3311032D01*
G01X865430Y3313273D01*
G01X860242Y3314295D01*
G01X891865Y3345918D01*
G01X892886Y3340729D01*
G01X895127Y3335193D01*
G01X898147Y3330005D01*
G01X901509Y3325864D01*
G37*
G36*
G01X917382Y3267564D02*
G01X949470Y3277903D01*
G01X954505Y3272420D01*
G01X958286Y3267984D01*
G01X962422Y3264016D01*
G01X968526Y3259936D01*
G01X926980Y3247463D01*
G01X928047Y3250435D01*
G01X928183Y3253173D01*
G01X927529Y3255730D01*
G01X926226Y3258155D01*
G01X922247Y3262816D01*
G01X917382Y3267564D01*
G37*
G36*
G01X4222855Y3713449D02*
G01X4237779Y3773448D01*
G01X4242706Y3773712D01*
G01X4248400Y3774435D01*
G01X4254034Y3775513D01*
G01X4258779Y3776841D01*
G01X4243855Y3731815D01*
G01X4242945Y3732749D01*
G01X4241960Y3733013D01*
G01X4240905Y3732690D01*
G01X4239785Y3731865D01*
G01X4237366Y3729045D01*
G01X4234738Y3725226D01*
G01X4231937Y3721084D01*
G01X4228999Y3717291D01*
G01X4225960Y3714521D01*
G01X4224414Y3713731D01*
G01X4222855Y3713449D01*
G37*
G36*
G01X6076194Y4968667D02*
G01X6054981Y4989880D01*
G01X6058343Y4994022D01*
G01X6061363Y4999209D01*
G01X6063604Y5004746D01*
G01X6064625Y5009934D01*
G01X6096248Y4978311D01*
G01X6091060Y4977290D01*
G01X6085524Y4975049D01*
G01X6080336Y4972029D01*
G01X6076194Y4968667D01*
G37*
G36*
G01X5605172Y4594859D02*
G01X5605172Y4564859D01*
G01X5599866Y4564308D01*
G01X5594062Y4562775D01*
G01X5588563Y4560445D01*
G01X5584172Y4557499D01*
G01X5584172Y4602220D01*
G01X5588563Y4599274D01*
G01X5594062Y4596943D01*
G01X5599866Y4595411D01*
G01X5605172Y4594859D01*
G37*
G36*
G01X5329370Y4564859D02*
G01X5329370Y4594859D01*
G01X5334675Y4595411D01*
G01X5340479Y4596943D01*
G01X5345978Y4599274D01*
G01X5350370Y4602220D01*
G01X5350370Y4557499D01*
G01X5345978Y4560445D01*
G01X5340479Y4562775D01*
G01X5334675Y4564308D01*
G01X5329370Y4564859D01*
G37*
G36*
G01X2563318Y4277753D02*
G01X2584531Y4256540D01*
G01X2581169Y4252398D01*
G01X2578149Y4247210D01*
G01X2575908Y4241674D01*
G01X2574886Y4236486D01*
G01X2543264Y4268108D01*
G01X2548452Y4269130D01*
G01X2553988Y4271371D01*
G01X2559176Y4274391D01*
G01X2563318Y4277753D01*
G37*
G36*
G01X4052219Y4567237D02*
G01X4087575Y4602593D01*
G01X4092401Y4598070D01*
G01X4097222Y4594051D01*
G01X4106170Y4587533D01*
G01X4113068Y4583065D01*
G01X4116566Y4580672D01*
G01X4074140Y4538246D01*
G01X4071747Y4541744D01*
G01X4067279Y4548642D01*
G01X4060762Y4557590D01*
G01X4056742Y4562411D01*
G01X4052219Y4567237D01*
G37*
G36*
G01X4809163Y5212568D02*
G01X4809163Y5242568D01*
G01X4814469Y5243119D01*
G01X4820273Y5244652D01*
G01X4825772Y5246982D01*
G01X4830163Y5249928D01*
G01X4830163Y5205207D01*
G01X4825772Y5208153D01*
G01X4820273Y5210484D01*
G01X4814469Y5212016D01*
G01X4809163Y5212568D01*
G37*
G36*
G01X5089666Y4738262D02*
G01X5089666Y4768261D01*
G01X5094972Y4768813D01*
G01X5100776Y4770346D01*
G01X5106275Y4772676D01*
G01X5110666Y4775622D01*
G01X5110666Y4730901D01*
G01X5106275Y4733847D01*
G01X5100776Y4736177D01*
G01X5094972Y4737710D01*
G01X5089666Y4738262D01*
G37*
G36*
G01X4687160Y4768261D02*
G01X4687160Y4738262D01*
G01X4681854Y4737710D01*
G01X4676050Y4736177D01*
G01X4670551Y4733847D01*
G01X4666160Y4730901D01*
G01X4666160Y4775622D01*
G01X4670551Y4772676D01*
G01X4676050Y4770346D01*
G01X4681854Y4768813D01*
G01X4687160Y4768261D01*
G37*
G36*
G01X4206347Y4483258D02*
G01X4198745Y4513258D01*
G01X4204380Y4513847D01*
G01X4210245Y4515557D01*
G01X4215609Y4518302D01*
G01X4217876Y4520034D01*
G01X4219745Y4521993D01*
G01X4227347Y4477923D01*
G01X4222713Y4480151D01*
G01X4217203Y4481831D01*
G01X4211516Y4482889D01*
G01X4206347Y4483258D01*
G37*
G36*
G01X4568456Y5826291D02*
G01X4547243Y5805078D01*
G01X4543102Y5808439D01*
G01X4537914Y5811460D01*
G01X4532378Y5813700D01*
G01X4527189Y5814722D01*
G01X4558812Y5846345D01*
G01X4559834Y5841157D01*
G01X4562074Y5835620D01*
G01X4565095Y5830433D01*
G01X4568456Y5826291D01*
G37*
G36*
G01X5196768Y5697074D02*
G01X5196768Y5727074D01*
G01X5202074Y5727625D01*
G01X5207878Y5729158D01*
G01X5213377Y5731489D01*
G01X5217768Y5734435D01*
G01X5217768Y5689713D01*
G01X5213377Y5692659D01*
G01X5207878Y5694990D01*
G01X5202074Y5696523D01*
G01X5196768Y5697074D01*
G37*
G36*
G01X5960774Y5693689D02*
G01X5939561Y5672476D01*
G01X5935420Y5675838D01*
G01X5930232Y5678858D01*
G01X5924696Y5681099D01*
G01X5919507Y5682120D01*
G01X5951130Y5713743D01*
G01X5952152Y5708555D01*
G01X5954392Y5703019D01*
G01X5957413Y5697831D01*
G01X5960774Y5693689D01*
G37*
G36*
G01X6185177Y6218996D02*
G01X6163964Y6197783D01*
G01X6159823Y6201145D01*
G01X6154635Y6204165D01*
G01X6149098Y6206405D01*
G01X6143910Y6207427D01*
G01X6175533Y6239050D01*
G01X6176555Y6233862D01*
G01X6178795Y6228325D01*
G01X6181816Y6223138D01*
G01X6185177Y6218996D01*
G37*
G36*
G01X6548285Y6079579D02*
G01X6548285Y6109579D01*
G01X6553591Y6110130D01*
G01X6559395Y6111663D01*
G01X6564894Y6113994D01*
G01X6569285Y6116940D01*
G01X6569285Y6072218D01*
G01X6564894Y6075164D01*
G01X6559395Y6077495D01*
G01X6553591Y6079027D01*
G01X6548285Y6079579D01*
G37*
G36*
G01X8675412Y6400283D02*
G01X8675412Y6370283D01*
G01X8670106Y6369731D01*
G01X8664302Y6368199D01*
G01X8658803Y6365868D01*
G01X8654412Y6362922D01*
G01X8654412Y6407643D01*
G01X8658803Y6404697D01*
G01X8664302Y6402367D01*
G01X8670106Y6400834D01*
G01X8675412Y6400283D01*
G37*
G36*
G01X8715813Y6370283D02*
G01X8715813Y6400283D01*
G01X8721119Y6400834D01*
G01X8726923Y6402367D01*
G01X8732422Y6404697D01*
G01X8736813Y6407643D01*
G01X8736813Y6362922D01*
G01X8732422Y6365868D01*
G01X8726923Y6368199D01*
G01X8721119Y6369731D01*
G01X8715813Y6370283D01*
G37*
G36*
G01X8155540Y4173201D02*
G01X8176753Y4151988D01*
G01X8173392Y4147846D01*
G01X8170371Y4142659D01*
G01X8168131Y4137122D01*
G01X8167109Y4131934D01*
G01X8135486Y4163557D01*
G01X8140674Y4164579D01*
G01X8146211Y4166819D01*
G01X8151398Y4169840D01*
G01X8155540Y4173201D01*
G37*
G36*
G01X8266907Y4441958D02*
G01X8236907Y4441958D01*
G01X8236355Y4447264D01*
G01X8234823Y4453068D01*
G01X8232492Y4458567D01*
G01X8229546Y4462958D01*
G01X8274267Y4462958D01*
G01X8271322Y4458567D01*
G01X8268991Y4453068D01*
G01X8267458Y4447264D01*
G01X8266907Y4441958D01*
G37*
G36*
G01X6344283Y4493458D02*
G01X6344283Y4523458D01*
G01X6349589Y4524010D01*
G01X6355392Y4525542D01*
G01X6360892Y4527873D01*
G01X6365283Y4530819D01*
G01X6365283Y4486098D01*
G01X6360892Y4489044D01*
G01X6355392Y4491374D01*
G01X6349589Y4492907D01*
G01X6344283Y4493458D01*
G37*
G36*
G01X6028477Y4523458D02*
G01X6028477Y4493458D01*
G01X6023172Y4492907D01*
G01X6017368Y4491374D01*
G01X6011869Y4489044D01*
G01X6007477Y4486098D01*
G01X6007477Y4530819D01*
G01X6011869Y4527873D01*
G01X6017368Y4525542D01*
G01X6023172Y4524010D01*
G01X6028477Y4523458D01*
G37*
G36*
G01X8008306Y5103151D02*
G01X8029519Y5124364D01*
G01X8033661Y5121002D01*
G01X8038849Y5117982D01*
G01X8044385Y5115741D01*
G01X8049573Y5114719D01*
G01X8017951Y5083097D01*
G01X8016929Y5088285D01*
G01X8014688Y5093821D01*
G01X8011668Y5099009D01*
G01X8008306Y5103151D01*
G37*
G36*
G01X7916505Y5092950D02*
G01X7937718Y5114164D01*
G01X7941860Y5110802D01*
G01X7947048Y5107782D01*
G01X7952584Y5105541D01*
G01X7957772Y5104519D01*
G01X7926150Y5072896D01*
G01X7925128Y5078085D01*
G01X7922887Y5083621D01*
G01X7919867Y5088809D01*
G01X7916505Y5092950D01*
G37*
G36*
G01X7827254Y5095500D02*
G01X7848467Y5116713D01*
G01X7852609Y5113352D01*
G01X7857797Y5110331D01*
G01X7863333Y5108091D01*
G01X7868521Y5107069D01*
G01X7836898Y5075446D01*
G01X7835877Y5080634D01*
G01X7833636Y5086171D01*
G01X7830616Y5091359D01*
G01X7827254Y5095500D01*
G37*
G36*
G01X6619686Y5391070D02*
G01X6619686Y5421070D01*
G01X6624992Y5421621D01*
G01X6630796Y5423154D01*
G01X6636295Y5425485D01*
G01X6640686Y5428431D01*
G01X6640686Y5383709D01*
G01X6636295Y5386655D01*
G01X6630796Y5388986D01*
G01X6624992Y5390519D01*
G01X6619686Y5391070D01*
G37*
G36*
G01X6706786Y5288468D02*
G01X6706786Y5258468D01*
G01X6701480Y5257917D01*
G01X6695676Y5256384D01*
G01X6690177Y5254054D01*
G01X6685786Y5251108D01*
G01X6685786Y5295829D01*
G01X6690177Y5292883D01*
G01X6695676Y5290552D01*
G01X6701480Y5289020D01*
G01X6706786Y5288468D01*
G37*
G36*
G01X6359583Y4585260D02*
G01X6359583Y4615260D01*
G01X6364889Y4615811D01*
G01X6370693Y4617344D01*
G01X6376192Y4619674D01*
G01X6380583Y4622620D01*
G01X6380583Y4577899D01*
G01X6376192Y4580845D01*
G01X6370693Y4583175D01*
G01X6364889Y4584708D01*
G01X6359583Y4585260D01*
G37*
G36*
G01X5839775Y4615260D02*
G01X5839775Y4585260D01*
G01X5834469Y4584708D01*
G01X5828665Y4583175D01*
G01X5823166Y4580845D01*
G01X5818775Y4577899D01*
G01X5818775Y4622620D01*
G01X5823166Y4619674D01*
G01X5828665Y4617344D01*
G01X5834469Y4615811D01*
G01X5839775Y4615260D01*
G37*
G36*
G01X7661502Y5098051D02*
G01X7682715Y5119264D01*
G01X7686857Y5115902D01*
G01X7692044Y5112882D01*
G01X7697581Y5110641D01*
G01X7702769Y5109619D01*
G01X7671146Y5077996D01*
G01X7670124Y5083185D01*
G01X7667884Y5088721D01*
G01X7664864Y5093909D01*
G01X7661502Y5098051D01*
G37*
G36*
G01X7659999Y5161067D02*
G01X7629999Y5161067D01*
G01X7629448Y5166373D01*
G01X7627915Y5172177D01*
G01X7625584Y5177676D01*
G01X7622638Y5182067D01*
G01X7667360Y5182067D01*
G01X7664414Y5177676D01*
G01X7662083Y5172177D01*
G01X7660550Y5166373D01*
G01X7659999Y5161067D01*
G37*
G36*
G01X9109776Y4998264D02*
G01X9139776Y4998264D01*
G01X9140327Y4992958D01*
G01X9141860Y4987154D01*
G01X9144191Y4981655D01*
G01X9147137Y4977264D01*
G01X9102415Y4977264D01*
G01X9105361Y4981655D01*
G01X9107692Y4987154D01*
G01X9109225Y4992958D01*
G01X9109776Y4998264D01*
G37*
G36*
G01X9139776Y5025440D02*
G01X9109776Y5031913D01*
G01X9109371Y5037085D01*
G01X9108222Y5042799D01*
G01X9106431Y5048320D01*
G01X9104098Y5052913D01*
G01X9148348Y5046440D01*
G01X9146455Y5044548D01*
G01X9144768Y5042260D01*
G01X9142070Y5036871D01*
G01X9140369Y5031017D01*
G01X9139776Y5025440D01*
G37*
G36*
G01X8296600Y4937164D02*
G01X8288998Y4967164D01*
G01X8294633Y4967753D01*
G01X8300497Y4969463D01*
G01X8305862Y4972207D01*
G01X8308129Y4973940D01*
G01X8309998Y4975899D01*
G01X8317600Y4931829D01*
G01X8312966Y4934057D01*
G01X8307456Y4935736D01*
G01X8301769Y4936795D01*
G01X8296600Y4937164D01*
G37*
G36*
G01X7425895Y4967164D02*
G01X7425895Y4937164D01*
G01X7420590Y4936613D01*
G01X7414786Y4935080D01*
G01X7409287Y4932749D01*
G01X7404896Y4929803D01*
G01X7404896Y4974525D01*
G01X7409287Y4971579D01*
G01X7414786Y4969248D01*
G01X7420590Y4967715D01*
G01X7425895Y4967164D01*
G37*
G36*
G01X8383752Y4651560D02*
G01X8383752Y4681560D01*
G01X8389058Y4682112D01*
G01X8394862Y4683644D01*
G01X8400361Y4685975D01*
G01X8404752Y4688921D01*
G01X8404752Y4644200D01*
G01X8400361Y4647146D01*
G01X8394862Y4649476D01*
G01X8389058Y4651009D01*
G01X8383752Y4651560D01*
G37*
G36*
G01X7624399Y4411857D02*
G01X7624399Y4441857D01*
G01X7629705Y4442409D01*
G01X7635509Y4443941D01*
G01X7641008Y4446272D01*
G01X7645399Y4449218D01*
G01X7645399Y4404497D01*
G01X7641008Y4407443D01*
G01X7635509Y4409773D01*
G01X7629705Y4411306D01*
G01X7624399Y4411857D01*
G37*
G36*
G01X6016062Y4435855D02*
G01X6037275Y4414642D01*
G01X6033914Y4410500D01*
G01X6030893Y4405312D01*
G01X6028653Y4399776D01*
G01X6027631Y4394588D01*
G01X5996008Y4426210D01*
G01X6001197Y4427232D01*
G01X6006733Y4429473D01*
G01X6011921Y4432493D01*
G01X6016062Y4435855D01*
G37*
G36*
G01X7546587Y4360857D02*
G01X7561793Y4390857D01*
G01X7572489Y4391157D01*
G01X7577697Y4391934D01*
G01X7582793Y4393485D01*
G01X7567587Y4351428D01*
G01X7565927Y4353845D01*
G01X7563832Y4355858D01*
G01X7561382Y4357491D01*
G01X7558656Y4358770D01*
G01X7552696Y4360369D01*
G01X7546587Y4360857D01*
G37*
G36*
G01X6104978Y4350056D02*
G01X6104978Y4320056D01*
G01X6099673Y4319505D01*
G01X6093869Y4317972D01*
G01X6088370Y4315641D01*
G01X6083978Y4312695D01*
G01X6083978Y4357417D01*
G01X6088370Y4354471D01*
G01X6093869Y4352140D01*
G01X6099673Y4350608D01*
G01X6104978Y4350056D01*
G37*
G36*
G01X7847799Y4576775D02*
G01X7826586Y4555562D01*
G01X7822444Y4558923D01*
G01X7817256Y4561944D01*
G01X7811720Y4564184D01*
G01X7806532Y4565206D01*
G01X7838155Y4596829D01*
G01X7839176Y4591641D01*
G01X7841417Y4586104D01*
G01X7844437Y4580916D01*
G01X7847799Y4576775D01*
G37*
G36*
G01X7915302Y4473058D02*
G01X7915302Y4503058D01*
G01X7918709Y4503691D01*
G01X7921130Y4505358D01*
G01X7925903Y4510419D01*
G01X7925903Y4465697D01*
G01X7921130Y4470758D01*
G01X7918709Y4472426D01*
G01X7915302Y4473058D01*
G37*
G36*
G01X7340198Y5118451D02*
G01X7361411Y5139664D01*
G01X7365552Y5136302D01*
G01X7370740Y5133282D01*
G01X7376277Y5131041D01*
G01X7381465Y5130019D01*
G01X7349842Y5098397D01*
G01X7348820Y5103585D01*
G01X7346580Y5109121D01*
G01X7343559Y5114309D01*
G01X7340198Y5118451D01*
G37*
G36*
G01X7293050Y5208025D02*
G01X7282071Y5176578D01*
G01X7277261Y5181546D01*
G01X7272583Y5185608D01*
G01X7270161Y5186918D01*
G01X7267614Y5187544D01*
G01X7264888Y5187335D01*
G01X7261932Y5186137D01*
G01X7272543Y5228312D01*
G01X7276679Y5223244D01*
G01X7282319Y5217786D01*
G01X7293050Y5208025D01*
G37*
G36*
G01X6978093Y5608057D02*
G01X6999306Y5629270D01*
G01X7003448Y5625908D01*
G01X7008635Y5622888D01*
G01X7014172Y5620648D01*
G01X7019360Y5619626D01*
G01X6987737Y5588003D01*
G01X6986716Y5593191D01*
G01X6984475Y5598728D01*
G01X6981455Y5603915D01*
G01X6978093Y5608057D01*
G37*
G36*
G01X6879689Y6068879D02*
G01X6849689Y6068879D01*
G01X6849137Y6074185D01*
G01X6847605Y6079989D01*
G01X6845274Y6085488D01*
G01X6842328Y6089879D01*
G01X6887049Y6089879D01*
G01X6884104Y6085488D01*
G01X6881773Y6079989D01*
G01X6880240Y6074185D01*
G01X6879689Y6068879D01*
G37*
G36*
G01X7410197Y4564859D02*
G01X7410197Y4594859D01*
G01X7415502Y4595411D01*
G01X7421306Y4596943D01*
G01X7426805Y4599274D01*
G01X7431196Y4602220D01*
G01X7431196Y4557499D01*
G01X7426805Y4560445D01*
G01X7421306Y4562775D01*
G01X7415502Y4564308D01*
G01X7410197Y4564859D01*
G37*
G36*
G01X7381003Y4594859D02*
G01X7388605Y4564859D01*
G01X7382969Y4564270D01*
G01X7377105Y4562560D01*
G01X7371741Y4559816D01*
G01X7369474Y4558083D01*
G01X7367605Y4556124D01*
G01X7360003Y4600195D01*
G01X7364637Y4597966D01*
G01X7370147Y4596287D01*
G01X7375834Y4595228D01*
G01X7381003Y4594859D01*
G37*
G36*
G01X7295711Y5514373D02*
G01X7281849Y5544372D01*
G01X7287864Y5544888D01*
G01X7293803Y5546527D01*
G01X7296539Y5547812D01*
G01X7299014Y5549429D01*
G01X7301144Y5551397D01*
G01X7302849Y5553732D01*
G01X7316711Y5511213D01*
G01X7311733Y5512881D01*
G01X7306431Y5513837D01*
G01X7301018Y5514270D01*
G01X7295711Y5514373D01*
G37*
G36*
G01X2902238Y4620859D02*
G01X2932238Y4620859D01*
G01X2932789Y4615553D01*
G01X2934322Y4609749D01*
G01X2936652Y4604250D01*
G01X2939598Y4599859D01*
G01X2894877Y4599859D01*
G01X2897823Y4604250D01*
G01X2900154Y4609749D01*
G01X2901686Y4615553D01*
G01X2902238Y4620859D01*
G37*
G36*
G01X2932238Y4651061D02*
G01X2902238Y4651061D01*
G01X2901686Y4656367D01*
G01X2900154Y4662171D01*
G01X2897823Y4667670D01*
G01X2894877Y4672061D01*
G01X2939598Y4672061D01*
G01X2936652Y4667670D01*
G01X2934322Y4662171D01*
G01X2932789Y4656367D01*
G01X2932238Y4651061D01*
G37*
G36*
G01X2881460Y4936564D02*
G01X2871937Y4906564D01*
G01X2864896Y4906774D01*
G01X2859374Y4907334D01*
G01X2850859Y4909069D01*
G01X2842345Y4910904D01*
G01X2836824Y4911588D01*
G01X2829786Y4911973D01*
G01X2860460Y4944113D01*
G01X2861153Y4940859D01*
G01X2862611Y4938629D01*
G01X2864729Y4937241D01*
G01X2867398Y4936512D01*
G01X2873966Y4936308D01*
G01X2881460Y4936564D01*
G37*
G36*
G01X2779735Y4778462D02*
G01X2779735Y4748462D01*
G01X2774430Y4747910D01*
G01X2768626Y4746378D01*
G01X2763127Y4744047D01*
G01X2758735Y4741101D01*
G01X2758735Y4785822D01*
G01X2763127Y4782876D01*
G01X2768626Y4780546D01*
G01X2774430Y4779013D01*
G01X2779735Y4778462D01*
G37*
G04 TearDrop End*

G04 Pad Start*
G54D11*
G01X646618Y3696541D03*
G01X646618Y2831544D03*
G54D12*
G01X226603Y3696541D03*
G01X226603Y2831544D03*
G54D13*
G01X3955733Y6101884D03*
G01X3705746Y6101884D03*
G01X3505747Y6101884D03*
G01X3255735Y6101884D03*
G54D14*
G01X4262743Y6372877D03*
G01X2948750Y6372877D03*
G54D16*
G01X7456296Y7235489D03*
G54D17*
G01X7456296Y6981489D03*
G01X7456296Y6727489D03*
G01X7456296Y6473489D03*
G54D18*
G01X795610Y4225363D03*
G54D17*
G01X795610Y4479363D03*
G01X795610Y4733363D03*
G01X795610Y4987363D03*
G01X795610Y5241363D03*
G01X795610Y5495363D03*
G04 Pad End*

G04 Via Start*
G54D19*
G01X6987090Y5468769D03*
G01X6451583Y4824662D03*
G01X6288381Y5406070D03*
G01X6237381Y5334669D03*
G01X6650486Y6313882D03*
G01X6737187Y6956490D03*
G01X6594385Y6195571D03*
G01X6742287Y7068691D03*
G01X6905489Y6426083D03*
G01X6227181Y5778375D03*
G01X6788188Y6558685D03*
G01X6069079Y5701874D03*
G01X8726213Y7287994D03*
G01X8690512Y7160493D03*
G01X8221306Y6772888D03*
G01X8216206Y6650486D03*
G01X3955733Y5288768D03*
G01X3447645Y5655973D03*
G01X4885863Y5314269D03*
G01X2126728Y5819175D03*
G01X5176567Y5319369D03*
G01X2228729Y5824275D03*
G01X5349969Y5319369D03*
G01X2386831Y5972177D03*
G01X4355456Y4916464D03*
G01X4355456Y5161267D03*
G01X4437057Y5304069D03*
G01X3131441Y5487671D03*
G01X4875663Y5844676D03*
G01X3289543Y5905876D03*
G01X3376244Y5967077D03*
G01X4896063Y5936477D03*
G01X4834863Y6281770D03*
G01X4268755Y6043578D03*
G01X4054552Y5421370D03*
G01X2891737Y5038865D03*
G01X2774436Y5191867D03*
G01X2570433Y5400970D03*
G01X2048129Y5982377D03*
G01X2085927Y5701874D03*
G01X2820336Y5094966D03*
G01X2075727Y4064753D03*
G01X2075727Y3610847D03*
G01X1769723Y3697548D03*
G01X1774823Y4431957D03*
G01X2136928Y4447258D03*
G01X2085927Y4702405D03*
G01X1892124Y4702261D03*
G01X861911Y3344248D03*
G01X953712Y3233849D03*
G01X1045514Y3504034D03*
G01X1045514Y3034539D03*
G01X2697935Y3743448D03*
G01X4268755Y3748549D03*
G01X5079666Y5987477D03*
G01X6094579Y5008265D03*
G01X5564172Y4579859D03*
G01X5370369Y4579859D03*
G01X2544933Y4238155D03*
G01X4095353Y4559459D03*
G01X4850163Y5227568D03*
G01X5130666Y4753262D03*
G01X4646160Y4753262D03*
G01X4243255Y4503358D03*
G01X4528859Y5844676D03*
G01X5237768Y5712074D03*
G01X5921177Y5712074D03*
G01X6145580Y6237381D03*
G01X6589285Y6094579D03*
G01X8634412Y6385283D03*
G01X8756813Y6385283D03*
G01X2913174Y4329200D03*
G01X2912138Y4217755D03*
G01X2412331Y4615560D03*
G01X2453132Y4686961D03*
G01X2427631Y4758362D03*
G01X2432731Y4508458D03*
G01X2912138Y4105553D03*
G01X2514333Y4783862D03*
G01X2611234Y4768562D03*
G01X2259329Y3615947D03*
G01X2646934Y3575146D03*
G01X2259329Y3508845D03*
G01X2274629Y3411944D03*
G01X2136928Y3503745D03*
G01X2157328Y3381344D03*
G01X9585199Y5498379D03*
G01X9585199Y5613562D03*
G01X9585199Y5718641D03*
G01X9596857Y5270543D03*
G01X9596857Y5386387D03*
G01X3447883Y4208672D03*
G01X3447883Y4313751D03*
G01X3447883Y3872225D03*
G01X3340781Y4188272D03*
G01X3340781Y4293351D03*
G01X3340781Y3851825D03*
G01X3197979Y4198472D03*
G01X3197979Y4303551D03*
G01X3197979Y3862025D03*
G01X4746983Y4261791D03*
G01X4746983Y4376974D03*
G01X4746983Y4482053D03*
G01X4746983Y4040527D03*
G01X4746983Y4145606D03*
G01X4855501Y4261791D03*
G01X4855501Y4376974D03*
G01X4855501Y4482053D03*
G01X4855501Y4040527D03*
G01X4855501Y4145606D03*
G01X4957502Y4210791D03*
G01X4957502Y4325974D03*
G01X4957502Y4431053D03*
G01X4957502Y3989526D03*
G01X4957502Y4094605D03*
G01X5117230Y6497722D03*
G01X5002047Y6497722D03*
G01X4896968Y6497722D03*
G01X5338494Y6497722D03*
G01X5233415Y6497722D03*
G01X6025042Y6451821D03*
G01X5909859Y6451821D03*
G01X5804780Y6451821D03*
G01X6246306Y6451821D03*
G01X6141227Y6451821D03*
G01X5775139Y6538523D03*
G01X5659956Y6538523D03*
G01X5554877Y6538523D03*
G01X5996403Y6538523D03*
G01X5891324Y6538523D03*
G01X5066229Y6625224D03*
G01X4951046Y6625224D03*
G01X4845967Y6625224D03*
G01X5287494Y6625224D03*
G01X5182415Y6625224D03*
G01X6045442Y6640524D03*
G01X5930259Y6640524D03*
G01X5825180Y6640524D03*
G01X6266706Y6640524D03*
G01X6161627Y6640524D03*
G01X5571136Y6635424D03*
G01X5455953Y6635424D03*
G01X5432475Y6548723D03*
G01X4996790Y6390621D03*
G01X5687321Y6635424D03*
G01X4260419Y7017929D03*
G01X4145236Y7017929D03*
G01X4040157Y7017929D03*
G01X4481683Y7017929D03*
G01X4376604Y7017929D03*
G01X4127817Y6808826D03*
G01X4012634Y6808826D03*
G01X3907555Y6808826D03*
G01X4349081Y6808826D03*
G01X4244002Y6808826D03*
G01X4015616Y6650724D03*
G01X3900433Y6650724D03*
G01X3795354Y6650724D03*
G01X4236880Y6650724D03*
G01X4131801Y6650724D03*
G01X3209805Y6671124D03*
G01X3094622Y6671124D03*
G01X2989543Y6671124D03*
G01X3431070Y6671124D03*
G01X3325991Y6671124D03*
G01X1914389Y6925080D03*
G01X1799206Y6925080D03*
G01X1694127Y6925080D03*
G01X2135653Y6925080D03*
G01X2030574Y6925080D03*
G01X1914389Y6663762D03*
G01X1799206Y6663762D03*
G01X1694127Y6663762D03*
G01X2135653Y6663762D03*
G01X2030574Y6663762D03*
G01X1725686Y6390621D03*
G01X1610503Y6390621D03*
G01X1505424Y6390621D03*
G01X1946950Y6390621D03*
G01X1841871Y6390621D03*
G01X2398895Y6482422D03*
G01X2283712Y6482422D03*
G01X2178633Y6482422D03*
G01X2620159Y6482422D03*
G01X2515080Y6482422D03*
G01X433744Y3272379D03*
G01X433744Y3387561D03*
G01X433744Y3492640D03*
G01X433744Y3051114D03*
G01X433744Y3156193D03*
G01X449044Y4011888D03*
G01X1055952Y4392274D03*
G01X1055952Y4502454D03*
G01X449044Y3790624D03*
G01X449044Y3895703D03*
G01X1030451Y5883612D03*
G01X1030451Y5998795D03*
G01X1030451Y6103874D03*
G01X1332856Y6776362D03*
G01X1332856Y6891545D03*
G01X1332856Y6996624D03*
G01X1332856Y6555098D03*
G01X1332856Y6660177D03*
G01X933550Y2650170D03*
G01X933550Y2765353D03*
G01X933550Y2870432D03*
G01X933550Y2428906D03*
G01X933550Y2533985D03*
G01X1091652Y2527769D03*
G01X1091652Y2642952D03*
G01X1091652Y2748031D03*
G01X1091652Y2306505D03*
G01X1091652Y2411584D03*
G01X1259954Y2420667D03*
G01X1259954Y2535850D03*
G01X1259954Y2640929D03*
G01X1259954Y2199403D03*
G01X1259954Y2304482D03*
G01X1392556Y2216665D03*
G01X1392556Y2331848D03*
G01X1392556Y2436927D03*
G01X1392556Y1995401D03*
G01X1392556Y2100480D03*
G01X2121865Y2374767D03*
G01X2121865Y2489950D03*
G01X2121865Y2595029D03*
G01X2121865Y2153503D03*
G01X2121865Y2258582D03*
G01X1736124Y2195371D03*
G01X1620941Y2195371D03*
G01X1515862Y2195371D03*
G01X1957389Y2195371D03*
G01X1852309Y2195371D03*
G01X1781787Y2024964D03*
G01X1666604Y2024964D03*
G01X1561525Y2024964D03*
G01X2003051Y2024964D03*
G01X1897972Y2024964D03*
G01X2346268Y2262565D03*
G01X2346268Y2377748D03*
G01X2346268Y2482827D03*
G01X2346268Y2041301D03*
G01X2346268Y2146380D03*
G01X2601272Y2252365D03*
G01X2601272Y2367548D03*
G01X2601272Y2472627D03*
G01X2601272Y2031101D03*
G01X2601272Y2136180D03*
G01X2825675Y2242165D03*
G01X2825675Y2357348D03*
G01X2825675Y2462427D03*
G01X2825675Y2020901D03*
G01X2825675Y2125980D03*
G01X3106178Y2231965D03*
G01X3106178Y2347148D03*
G01X3106178Y2452227D03*
G01X3106178Y2010701D03*
G01X3106178Y2115780D03*
G01X3310181Y2231965D03*
G01X3310181Y2347148D03*
G01X3310181Y2452227D03*
G01X3310181Y2010701D03*
G01X3310181Y2115780D03*
G01X3534584Y2119764D03*
G01X3534584Y2234947D03*
G01X3534584Y2340026D03*
G01X3534584Y1898499D03*
G01X3534584Y2003578D03*
G01X3733486Y1808660D03*
G01X3733486Y1923842D03*
G01X3733486Y2028922D03*
G01X3733486Y1587395D03*
G01X3733486Y1692474D03*
G01X3662245Y1378088D03*
G01X3778089Y1378088D03*
G01X3893933Y1378088D03*
G01X4009778Y1378088D03*
G01X4125622Y1378088D03*
G01X4241466Y1378088D03*
G01X4357311Y1378088D03*
G01X4473155Y1378088D03*
G01X7262128Y6460027D03*
G01X7124426Y6381504D03*
G01X7240271Y6276425D03*
G01X7240271Y6381504D03*
G01X7606373Y6200069D03*
G01X7606373Y6305148D03*
G01X7722217Y6200069D03*
G01X7722217Y6305148D03*
G01X5731334Y5136156D03*
G01X5731334Y5241235D03*
G01X5847179Y5136156D03*
G01X5847179Y5241235D03*
G01X4947380Y5057655D03*
G01X4947380Y5162734D03*
G01X5063224Y5057655D03*
G01X5063224Y5162734D03*
G01X4522580Y4461653D03*
G01X4631098Y4461653D03*
G01X4369578Y4374952D03*
G01X4478096Y4374952D03*
G01X4347465Y4293148D03*
G01X4455983Y4293148D03*
G01X4310758Y4222221D03*
G01X4419276Y4222221D03*
G01X4293077Y4119949D03*
G01X4401595Y4119949D03*
G01X4274745Y4028147D03*
G01X4383263Y4028147D03*
G01X5093788Y4227050D03*
G01X5202305Y4227050D03*
G01X5114188Y4084248D03*
G01X5222706Y4084248D03*
G01X4551307Y4869757D03*
G01X4659825Y4869757D03*
G01X4165576Y4701356D03*
G01X4274093Y4701356D03*
G01X4094175Y4961459D03*
G01X4202692Y4961459D03*
G01X3641685Y5083861D03*
G01X3451566Y5007360D03*
G01X3560084Y5007360D03*
G01X3165963Y4879858D03*
G01X3274480Y4879858D03*
G01X3448549Y4690882D03*
G01X3448549Y4799400D03*
G01X3382249Y4629682D03*
G01X3382249Y4738199D03*
G01X4243493Y5792770D03*
G01X4523997Y5655068D03*
G01X4062750Y5188103D03*
G01X3595785Y3251978D03*
G01X3595785Y3367161D03*
G01X3595785Y3472240D03*
G01X3371382Y3262178D03*
G01X3371382Y3377361D03*
G01X3371382Y3482440D03*
G01X3993590Y3027575D03*
G01X3993590Y3142758D03*
G01X3993590Y3247837D03*
G01X3769187Y3037775D03*
G01X3769187Y3152958D03*
G01X3769187Y3258037D03*
G01X4967702Y3195878D03*
G01X4967702Y3311060D03*
G01X4967702Y3416139D03*
G01X3784487Y3348880D03*
G01X4115991Y3071357D03*
G01X3896688Y3201937D03*
G01X4760225Y3697786D03*
G01X4981490Y3697786D03*
G01X4876411Y3697786D03*
G01X4066616Y2147366D03*
G01X4287881Y2147366D03*
G01X4182802Y2147366D03*
G01X4143117Y2050465D03*
G01X4364382Y2050465D03*
G01X4259303Y2050465D03*
G01X4209418Y1938263D03*
G01X4430683Y1938263D03*
G01X4325603Y1938263D03*
G01X4311420Y1820962D03*
G01X4532684Y1820962D03*
G01X4427605Y1820962D03*
G01X9444047Y4294494D03*
G01X9338968Y4294494D03*
G01X9433847Y4197592D03*
G01X9328768Y4197592D03*
G01X9433847Y4029290D03*
G01X9328768Y4029290D03*
G01X9444047Y3876288D03*
G01X9338968Y3876288D03*
G01X8137155Y4133603D03*
G01X8251907Y4482958D03*
G01X6385283Y4508458D03*
G01X5987477Y4508458D03*
G01X8047904Y5084766D03*
G01X7956103Y5074566D03*
G01X7866852Y5077116D03*
G01X6660686Y5406070D03*
G01X6665786Y5273468D03*
G01X6400583Y4600260D03*
G01X5798775Y4600260D03*
G01X7701100Y5079666D03*
G01X7644999Y5202067D03*
G01X7726600Y4340156D03*
G01X7524830Y4314656D03*
G01X9124776Y4957264D03*
G01X9129118Y5069466D03*
G01X8333508Y4957264D03*
G01X7384896Y4952164D03*
G01X8424752Y4666560D03*
G01X7665399Y4426857D03*
G01X5997678Y4396257D03*
G01X7593998Y4365656D03*
G01X6063978Y4335056D03*
G01X7808201Y4595159D03*
G01X7945903Y4488058D03*
G01X7379796Y5100066D03*
G01X7247194Y5212267D03*
G01X7017691Y5589672D03*
G01X6864689Y6109879D03*
G01X7451196Y4579859D03*
G01X7344095Y4574759D03*
G01X7328795Y5538672D03*
G01X3533167Y5083861D03*
G01X2917238Y4493158D03*
G01X2917238Y4579859D03*
G01X2917238Y4692061D03*
G01X2830537Y4941964D03*
G01X7185993Y5589672D03*
G01X8450809Y5038865D03*
G01X2738735Y4763462D03*
G01X7522597Y5120466D03*
G01X6920790Y4564559D03*
G01X7395096Y4498258D03*
G01X6777988Y4559459D03*
G01X6803488Y4783862D03*
G01X6961590Y4839963D03*
G01X6624986Y4559459D03*
G01X6691287Y4794062D03*
G01X5813269Y4488058D03*
G01X5695967Y4482958D03*
G01X5288124Y4467658D03*
G01X5756709Y6188526D03*
G01X5746968Y6074179D03*
G01X5884670Y6125179D03*
G01X5848969Y6232281D03*
G01X7980797Y5467271D03*
G01X8082798Y5365269D03*
G01X8174599Y5273468D03*
G01X9138512Y5232668D03*
G01X9056911Y5329569D03*
G01X8995710Y5462171D03*
G01X8873308Y5574372D03*
G01X8740707Y5681474D03*
G01X8633605Y5819175D03*
G01X8516304Y5931377D03*
G01X8414302Y6023178D03*
G01X9434694Y4815173D03*
G01X9368015Y4901163D03*
G01X9291514Y5023565D03*
G01X8914109Y4590059D03*
G01X8858008Y4482958D03*
G01X8781507Y4370757D03*
G01X8725406Y4284055D03*
G01X7228341Y5840071D03*
G01X7329522Y5967071D03*
G01X7341257Y5707971D03*
G01X5914898Y4247450D03*
G01X6144401Y4211750D03*
G54D20*
G01X5438335Y6198765D03*
G01X5438335Y6058761D03*
G01X5578340Y6058761D03*
G01X5578340Y6198765D03*
G01X5508337Y6268768D03*
G01X5508337Y6128763D03*
G01X5508337Y5988758D03*
G01X5298330Y6058761D03*
G01X5298330Y6198765D03*
G01X5368332Y6268768D03*
G01X5368332Y6128763D03*
G01X5368332Y5988758D03*
G54D19*
G01X1519820Y4850163D03*
G01X1540220Y4697161D03*
G01X1846224Y4600260D03*
G01X2427631Y5237768D03*
G01X2453132Y5054165D03*
G01X10424535Y3559856D03*
G01X6171080Y3840350D03*
G01X5977277Y3386444D03*
G01X10184832Y3386444D03*
G01X5992578Y2918678D03*
G01X6594385Y2918678D03*
G01X7211493Y3712848D03*
G01X8879215Y3723048D03*
G01X7497097Y2606134D03*
G01X7497097Y3014139D03*
G01X7726600Y3952551D03*
G01X7522597Y3814849D03*
G01X7344095Y3024339D03*
G01X7344095Y2606134D03*
G01X7247194Y2794836D03*
G01X7247194Y2539833D03*
G01X2407231Y3279342D03*
G01X229741Y4278051D03*
G01X229741Y4167872D03*
G01X229741Y3997547D03*
G01X229741Y3887368D03*
G01X224641Y4558554D03*
G01X224641Y4448375D03*
G01X224641Y4839058D03*
G01X224641Y4728879D03*
G01X219541Y5114461D03*
G01X219541Y5004282D03*
G01X239941Y5384765D03*
G01X239941Y5274586D03*
G01X214441Y5716269D03*
G01X214441Y5606090D03*
G01X489844Y5833571D03*
G01X489844Y5723392D03*
G01X765248Y5874371D03*
G01X765248Y5764192D03*
G01X1030451Y5736670D03*
G01X1030451Y5626490D03*
G01X1300755Y5573467D03*
G01X1300755Y5463288D03*
G01X2697935Y3928657D03*
G01X3870950Y3938857D03*
G01X5563668Y4253455D03*
G01X6818788Y3575146D03*
G01X7073792Y3478245D03*
G01X6624769Y3159916D03*
G01X6603407Y3084635D03*
G01X6445305Y3043835D03*
G01X6573188Y3234290D03*
G01X6124001Y3069335D03*
G01X6491206Y3620142D03*
G01X6013794Y3099935D03*
G01X6001599Y3181536D03*
G01X6013794Y3277186D03*
G01X5909798Y3232537D03*
G01X5914898Y3125436D03*
G01X6531986Y3129631D03*
G01X6909411Y3156036D03*
G01X7006312Y3227437D03*
G01X6914511Y3033635D03*
G01X6858410Y2952033D03*
G01X6817610Y2860232D03*
G01X6705408Y2814332D03*
G01X5731296Y2778631D03*
G01X5700695Y2661330D03*
G01X5675195Y2569529D03*
G01X5319628Y3624453D03*
G01X5434811Y3624453D03*
G01X5214549Y3624453D03*
G01X5246850Y3172479D03*
G01X5362033Y3172479D03*
G01X5141771Y3172479D03*
G01X4819800Y2760253D03*
G01X4819800Y2645070D03*
G01X4819800Y2865332D03*
G01X9674825Y3559846D03*
G01X10735639Y2305230D03*
G01X11046743Y2187928D03*
G01X11056943Y3340543D03*
G01X11240545Y3309943D03*
G01X9743301Y5484038D03*
G01X9743301Y5378959D03*
G01X9743301Y5263776D03*
G01X9855502Y5412637D03*
G01X9855502Y5307558D03*
G01X9855502Y5192375D03*
G01X9799401Y5065832D03*
G01X9799401Y4960753D03*
G01X9799401Y4845570D03*
G01X9926903Y4785329D03*
G01X9926903Y4680250D03*
G01X9926903Y4565067D03*
G01X9819802Y4713928D03*
G01X9819802Y4608849D03*
G01X9819802Y4493666D03*
G01X9847117Y3864523D03*
G01X9952196Y3864523D03*
G01X10067379Y3864523D03*
G01X9797639Y3769796D03*
G01X9902718Y3769796D03*
G01X10017901Y3769796D03*
G01X9580098Y4640377D03*
G01X9580098Y4535298D03*
G01X9580098Y4420115D03*
G01X9928362Y7274869D03*
G01X10033441Y7274869D03*
G01X10148624Y7274869D03*
G01X10015063Y7142267D03*
G01X10120142Y7142267D03*
G01X10235325Y7142267D03*
G01X10217607Y7019158D03*
G01X10217607Y6914079D03*
G01X10217607Y6798896D03*
G01X9646399Y6891656D03*
G01X9646399Y6786577D03*
G01X9646399Y6671394D03*
G01X9523998Y6973257D03*
G01X9523998Y6868178D03*
G01X9523998Y6752995D03*
G01X9355696Y6998757D03*
G01X9355696Y6893678D03*
G01X9355696Y6778495D03*
G01X10238007Y5871643D03*
G01X10238007Y5766564D03*
G01X10238007Y5651381D03*
G01X10350208Y5764541D03*
G01X10350208Y5659462D03*
G01X10350208Y5544279D03*
G01X10513411Y5642140D03*
G01X10513411Y5537061D03*
G01X10513411Y5421878D03*
G01X10936716Y5759441D03*
G01X10936716Y5654362D03*
G01X10936716Y5539179D03*
G01X11054018Y5886943D03*
G01X11054018Y5781864D03*
G01X11054018Y5666681D03*
G01X11186619Y5876743D03*
G01X11186619Y5771664D03*
G01X11186619Y5656481D03*
G01X11309021Y5892043D03*
G01X11309021Y5786964D03*
G01X11309021Y5671781D03*
G01X11441623Y5892043D03*
G01X11441623Y5786964D03*
G01X11441623Y5671781D03*
G01X11594625Y5881843D03*
G01X11594625Y5776764D03*
G01X11594625Y5661581D03*
G01X11722126Y5881843D03*
G01X11722126Y5776764D03*
G01X11722126Y5661581D03*
G01X11829228Y5749241D03*
G01X11829228Y5644162D03*
G01X11829228Y5528979D03*
G01X10936716Y6070545D03*
G01X10936716Y5965466D03*
G01X10936716Y5850283D03*
G01X10841989Y6181136D03*
G01X10841989Y6076057D03*
G01X10841989Y5960874D03*
G01X10758214Y6274548D03*
G01X10742913Y6174569D03*
G01X10758214Y6054286D03*
G01X10651112Y6345949D03*
G01X10651112Y6240870D03*
G01X10651112Y6125687D03*
G01X10556386Y6456540D03*
G01X10556386Y6351461D03*
G01X10556386Y6236278D03*
G01X10462410Y6595852D03*
G01X10462410Y6490773D03*
G01X10462410Y6375590D03*
G01X10336054Y6706443D03*
G01X10336054Y6601364D03*
G01X10336054Y6486181D03*
G01X9166993Y6320449D03*
G01X9166993Y6215370D03*
G01X9166993Y6100187D03*
G01X9274094Y6243948D03*
G01X9274094Y6138869D03*
G01X9274094Y6023686D03*
G01X9370996Y6167447D03*
G01X9370996Y6062368D03*
G01X9370996Y5947185D03*
G01X9483197Y6085846D03*
G01X9483197Y5980767D03*
G01X9483197Y5865584D03*
G01X8125325Y7263412D03*
G01X8125325Y7158333D03*
G01X8125325Y7043150D03*
G01X8259181Y7248661D03*
G01X8259181Y7143582D03*
G01X8259181Y7028399D03*
G01X11870028Y5417737D03*
G01X11870028Y5312658D03*
G01X11870028Y5197475D03*
G01X11875128Y5070932D03*
G01X11875128Y4965853D03*
G01X11875128Y4850671D03*
G01X11885328Y4719028D03*
G01X11885328Y4613949D03*
G01X11885328Y4498766D03*
G01X11885328Y4321223D03*
G01X11885328Y4216144D03*
G01X11885328Y4100961D03*
G01X11885328Y3923418D03*
G01X11885328Y3818339D03*
G01X11885328Y3703156D03*
G01X11880228Y3438911D03*
G01X11880228Y3333832D03*
G01X11880228Y3218649D03*
G01X11834328Y3092107D03*
G01X11834328Y2987028D03*
G01X11834328Y2871845D03*
G01X11875128Y2204695D03*
G01X11875128Y2099616D03*
G01X11875128Y1984433D03*
G01X11798627Y2051693D03*
G01X11798627Y1946614D03*
G01X11798627Y1831431D03*
G01X10744372Y1236390D03*
G01X10849451Y1236390D03*
G01X10964634Y1236390D03*
G01X11228878Y1226190D03*
G01X11333958Y1226190D03*
G01X11449140Y1226190D03*
G01X10329808Y1470286D03*
G01X10329808Y1365207D03*
G01X10329808Y1250024D03*
G01X10171706Y1505986D03*
G01X10171706Y1400907D03*
G01X10171706Y1285724D03*
G01X9998304Y1664088D03*
G01X9998304Y1559009D03*
G01X9998304Y1443826D03*
G01X9926903Y2072094D03*
G01X9926903Y1967015D03*
G01X9926903Y1851832D03*
G01X9896303Y2505599D03*
G01X9896303Y2400520D03*
G01X9896303Y2285337D03*
G01X9886102Y2913605D03*
G01X9886102Y2808525D03*
G01X9886102Y2693343D03*
G01X9804501Y3250209D03*
G01X9804501Y3145130D03*
G01X9804501Y3029947D03*
G01X10406309Y3352210D03*
G01X10406309Y3247131D03*
G01X10406309Y3131948D03*
G01X10421609Y2995206D03*
G01X10421609Y2890127D03*
G01X10421609Y2774944D03*
G01X10523611Y2163895D03*
G01X10615412Y2135317D03*
G01X10589912Y2229237D03*
G01X11696626Y5426978D03*
G01X11033617Y5559580D03*
G01X10987717Y5421878D03*
G01X10992817Y5299476D03*
G01X11033617Y5187275D03*
G01X10360409Y5197504D03*
G01X10360409Y5088240D03*
G01X10324985Y4954668D03*
G01X10360409Y5400135D03*
G01X8341684Y3189166D03*
G01X8193250Y3031110D03*
G01X8036568Y2881301D03*
G01X3103304Y3165143D03*
G01X5925273Y1719024D03*
G01X6041117Y1719024D03*
G01X6156962Y1719024D03*
G01X5346051Y1719024D03*
G01X5461896Y1719024D03*
G01X5577740Y1719024D03*
G01X5693584Y1719024D03*
G01X5809429Y1719024D03*
G01X6975913Y1691193D03*
G01X7091757Y1691193D03*
G01X7207601Y1691193D03*
G01X6396691Y1691193D03*
G01X6512535Y1691193D03*
G01X6628380Y1691193D03*
G01X6744224Y1691193D03*
G01X6860069Y1691193D03*
G01X5006833Y1565951D03*
G01X5122677Y1565951D03*
G01X5238522Y1565951D03*
G01X4427611Y1565951D03*
G01X4543456Y1565951D03*
G01X4659300Y1565951D03*
G01X4775144Y1565951D03*
G01X4890989Y1565951D03*
G01X8426244Y2558608D03*
G01X8542088Y2558608D03*
G01X8657933Y2558608D03*
G01X7847022Y2558608D03*
G01X7962866Y2558608D03*
G01X8078711Y2558608D03*
G01X8194555Y2558608D03*
G01X8310400Y2558608D03*
G01X8283994Y2363788D03*
G01X8399838Y2363788D03*
G01X8515683Y2363788D03*
G01X7704772Y2363788D03*
G01X7820617Y2363788D03*
G01X7936461Y2363788D03*
G01X8052305Y2363788D03*
G01X8168150Y2363788D03*
G01X8092266Y2196799D03*
G01X8208110Y2196799D03*
G01X8323954Y2196799D03*
G01X7513044Y2196799D03*
G01X7628888Y2196799D03*
G01X7744733Y2196799D03*
G01X7860577Y2196799D03*
G01X7976422Y2196799D03*
G01X7916000Y2054549D03*
G01X8031844Y2054549D03*
G01X8147688Y2054549D03*
G01X7336778Y2054549D03*
G01X7452622Y2054549D03*
G01X7568466Y2054549D03*
G01X7684311Y2054549D03*
G01X7800155Y2054549D03*
G01X7733549Y1878282D03*
G01X7849393Y1878282D03*
G01X7965237Y1878282D03*
G01X7154327Y1878282D03*
G01X7270171Y1878282D03*
G01X7386015Y1878282D03*
G01X7501860Y1878282D03*
G01X7617704Y1878282D03*
G01X7161216Y2604307D03*
G01X6929527Y2604307D03*
G01X7045371Y2604307D03*
G01X7103491Y2509474D03*
G01X6871802Y2509474D03*
G01X6987647Y2509474D03*
G01X7043018Y2410517D03*
G01X6811329Y2410517D03*
G01X6927173Y2410517D03*
G01X7033397Y2307437D03*
G01X6801708Y2307437D03*
G01X6917552Y2307437D03*
G01X6938564Y2182367D03*
G01X6793462Y2064169D03*
G01X6822719Y2182367D03*
G01X7217566Y2943783D03*
G01X6985877Y2943783D03*
G01X7101722Y2943783D03*
G01X7129605Y2803594D03*
G01X6929527Y2870940D03*
G01X7013760Y2803594D03*
G01X5254929Y2980204D03*
G01X5023240Y2980204D03*
G01X5139084Y2980204D03*
G01X5245651Y3536834D03*
G01X5013963Y3536834D03*
G01X5129807Y3536834D03*
G01X6723814Y3969769D03*
G01X6492126Y3969769D03*
G01X6607970Y3969769D03*
G01X7113455Y3969769D03*
G01X6881767Y3969769D03*
G01X6997611Y3969769D03*
G01X7352600Y3874936D03*
G01X7120912Y3874936D03*
G01X7236756Y3874936D03*
G01X8000971Y3083284D03*
G01X7769283Y3083284D03*
G01X7885127Y3083284D03*
G01X7376309Y3231719D03*
G01X7144620Y3231719D03*
G01X7260464Y3231719D03*
G01X8121575Y3924414D03*
G01X7889886Y3924414D03*
G01X8005730Y3924414D03*
G01X9015276Y3231719D03*
G01X8783587Y3231719D03*
G01X8899431Y3231719D03*
G01X8829732Y3058545D03*
G01X8598043Y3058545D03*
G01X8713888Y3058545D03*
G01X8693667Y2894648D03*
G01X8461978Y2894648D03*
G01X8577823Y2894648D03*
G01X8440091Y2733844D03*
G01X8208402Y2733844D03*
G01X8324247Y2733844D03*
G01X9442025Y3228626D03*
G01X9210337Y3228626D03*
G01X9326181Y3228626D03*
G01X9457487Y3695577D03*
G01X9225799Y3695577D03*
G01X9341643Y3695577D03*
G01X9636846Y3104931D03*
G01X9405157Y3104931D03*
G01X9521002Y3104931D03*
G01X9219373Y3064730D03*
G01X8987685Y3064730D03*
G01X9103529Y3064730D03*
G01X539033Y2630249D03*
G01X307344Y2630249D03*
G01X423189Y2630249D03*
G01X548310Y2457075D03*
G01X316622Y2457075D03*
G01X432466Y2457075D03*
G01X795701Y2327194D03*
G01X564013Y2327194D03*
G01X679857Y2327194D03*
G01X10904157Y3809547D03*
G01X11024646Y3862232D03*
G01X10934852Y3885139D03*
G04 Via End*

G04 Track Start*
G54D21*
G01X6650486Y6313882D02*
G01X6650486Y6869789D01*
G01X6737187Y6956490D01*
G01X6788188Y6558685D02*
G01X6788188Y6405683D01*
G01X6242481Y5875276D02*
G01X6069079Y5701874D01*
G54D22*
G01X9461193Y6517884D02*
G01X10029905Y5949173D01*
G01X8221306Y6772888D02*
G01X8476310Y6517884D01*
G01X9461193Y6517884D01*
G54D21*
G01X2534733Y5824275D02*
G01X2386831Y5972177D01*
G01X4059653Y5824275D02*
G01X2534733Y5824275D01*
G01X4080053Y5487671D02*
G01X3131441Y5487671D01*
G01X4875663Y5844676D02*
G01X4814462Y5905876D01*
G01X3289543Y5905876D01*
G01X4896063Y5936477D02*
G01X4865463Y5967077D01*
G01X3376244Y5967077D01*
G01X4834863Y6281770D02*
G01X4506947Y6281770D01*
G01X4268755Y6043578D01*
G54D20*
G01X2048129Y5982377D02*
G01X2048129Y5739672D01*
G01X2085927Y5701874D01*
G54D21*
G01X4054552Y5727374D02*
G01X2325630Y5727374D01*
G01X2228729Y5824275D01*
G01X4100453Y5564172D02*
G01X2381731Y5564172D01*
G01X2126728Y5819175D01*
G01X1769723Y3697548D02*
G01X1769723Y4426857D01*
G01X1774823Y4431957D01*
G01X2136928Y4447258D02*
G01X2075727Y4386057D01*
G01X2075727Y4064753D01*
G01X2075727Y3610847D01*
G01X2085927Y4702405D02*
G01X1892269Y4702405D01*
G01X861911Y3344248D02*
G01X953712Y3252447D01*
G01X953712Y3233849D01*
G54D19*
G01X1045514Y3504034D02*
G01X1045514Y3034539D01*
G01X2697935Y3743448D02*
G01X4263655Y3743448D01*
G01X4268755Y3748549D01*
G54D21*
G01X6094579Y5008265D02*
G01X5666173Y4579859D01*
G01X5564172Y4579859D01*
G01X5370369Y4579859D02*
G01X4431957Y4579859D01*
G01X4284055Y4431957D01*
G01X2738735Y4431957D01*
G01X2544933Y4238155D01*
G54D22*
G01X4355456Y4916464D02*
G01X4355456Y5161267D01*
G54D21*
G01X5349969Y5319369D02*
G01X5171467Y5497871D01*
G01X4386057Y5497871D01*
G01X4059653Y5824275D01*
G01X5176567Y5319369D02*
G01X5059265Y5436670D01*
G01X4345256Y5436670D01*
G01X4054552Y5727374D01*
G01X4885863Y5314269D02*
G01X4834863Y5365269D01*
G01X4299356Y5365269D01*
G01X4100453Y5564172D01*
G01X4437057Y5304069D02*
G01X4263655Y5304069D01*
G01X4080053Y5487671D01*
G54D22*
G01X3955733Y5288768D02*
G01X3955733Y4699079D01*
G01X4095353Y4559459D01*
G54D21*
G01X5130666Y4753262D02*
G01X4646160Y4753262D01*
G01X4238155Y4498258D02*
G01X4243255Y4503358D01*
G01X3350743Y4498258D02*
G01X4238155Y4498258D01*
G01X4528859Y5844676D02*
G01X4661460Y5712074D01*
G01X5237768Y5712074D01*
G01X6012978Y5620273D02*
G01X5921177Y5712074D01*
G01X6757587Y5620273D02*
G01X6012978Y5620273D01*
G01X6288381Y6094579D02*
G01X6145580Y6237381D01*
G01X6446483Y5778375D02*
G01X6227181Y5778375D01*
G01X6461784Y5875276D02*
G01X6242481Y5875276D01*
G01X6594385Y6195571D02*
G01X6594385Y6920790D01*
G01X6742287Y7068691D01*
G01X6589285Y6094579D02*
G01X6288381Y6094579D01*
G01X6788188Y6405683D02*
G01X6721887Y6339382D01*
G01X6721887Y6135379D01*
G01X6461784Y5875276D01*
G01X6777988Y6293481D02*
G01X6777988Y6109879D01*
G01X6446483Y5778375D01*
G01X6905489Y6426083D02*
G01X6905489Y6420983D01*
G01X6777988Y6293481D01*
G01X8634412Y6385283D02*
G01X8756813Y6385283D01*
G01X8137155Y4133603D02*
G01X8251907Y4248355D01*
G01X8251907Y4482958D01*
G01X6385283Y4508458D02*
G01X5987477Y4508458D01*
G01X7956103Y5074566D02*
G01X7696000Y5334669D01*
G01X6237381Y5334669D01*
G01X7866852Y5077116D02*
G01X7670499Y5273468D01*
G01X6665786Y5273468D01*
G01X6660686Y5406070D02*
G01X6288381Y5406070D01*
G01X6400583Y4600260D02*
G01X5798775Y4600260D01*
G01X9124776Y4957264D02*
G01X9124776Y5065123D01*
G01X9129118Y5069466D01*
G01X8424752Y4666560D02*
G01X6609686Y4666560D01*
G01X6451583Y4824662D01*
G01X7665399Y4426857D02*
G01X6028278Y4426857D01*
G01X5997678Y4396257D01*
G01X7593998Y4365656D02*
G01X7583798Y4375857D01*
G01X7359395Y4375857D01*
G01X7318595Y4335056D01*
G01X6063978Y4335056D01*
G01X7808201Y4595159D02*
G01X7915302Y4488058D01*
G01X7945903Y4488058D01*
G01X7701100Y5079666D02*
G01X7644999Y5135766D01*
G01X7644999Y5202067D01*
G01X8047904Y5084766D02*
G01X7663901Y5468769D01*
G01X6987090Y5468769D01*
G01X7017691Y5589672D02*
G01X6864689Y5742674D01*
G01X6864689Y6109879D01*
G01X7451196Y4579859D02*
G01X7349195Y4579859D01*
G01X7344095Y4574759D01*
G01X8333508Y4957264D02*
G01X8328408Y4952164D01*
G01X7384896Y4952164D01*
G01X3350743Y4498258D02*
G01X3085540Y4763462D01*
G01X2917238Y4692061D02*
G01X2917238Y4579859D01*
G01X3274242Y5421370D02*
G01X2891737Y5038865D01*
G01X4054552Y5421370D02*
G01X3274242Y5421370D01*
G01X3131441Y5406070D02*
G01X3131441Y5487671D01*
G01X2820336Y5094966D02*
G01X3131441Y5406070D01*
G54D20*
G01X2570433Y5395870D02*
G01X2570433Y5400970D01*
G01X2774436Y5191867D02*
G01X2570433Y5395870D01*
G54D21*
G01X4850163Y5227568D02*
G01X4151454Y5227568D01*
G01X4024074Y5354947D01*
G01X3473023Y5354947D01*
G01X3039639Y4921564D01*
G01X2850937Y4921564D01*
G01X2830537Y4941964D01*
G01X7328795Y5538672D02*
G01X7319496Y5529372D01*
G01X6848488Y5529372D01*
G01X6757587Y5620273D01*
G01X7379796Y5100066D02*
G01X7267594Y5212267D01*
G01X7247194Y5212267D01*
G01X8450809Y5038865D02*
G01X8284102Y5038865D01*
G01X3085540Y4763462D02*
G01X2738735Y4763462D01*
G01X2172628Y4819562D02*
G01X2302680Y4689511D01*
G01X2302680Y4480408D01*
G01X2544933Y4238155D01*
G01X1540220Y4697161D02*
G01X1637121Y4600260D01*
G01X1846224Y4600260D01*
G01X1519820Y4850163D02*
G01X1550420Y4819562D01*
G01X2172628Y4819562D01*
G01X795610Y4733363D02*
G01X1116413Y5054165D01*
G01X2453132Y5054165D01*
G01X795610Y4987363D02*
G01X841009Y4987363D01*
G01X1091414Y5237768D01*
G01X2427631Y5237768D01*
G54D23*
G01X7155382Y3559856D02*
G01X6874889Y3840350D01*
G01X6171080Y3840350D01*
G54D24*
G01X5977277Y3386444D02*
G01X10184832Y3386444D01*
G54D20*
G01X5992578Y2918678D02*
G01X6594385Y2918678D01*
G54D21*
G01X7211493Y3712848D02*
G01X8869015Y3712848D01*
G01X8879215Y3723048D01*
G01X7497097Y2606134D02*
G01X7497097Y3014139D01*
G01X7726600Y3952551D02*
G01X7726600Y4340156D01*
G01X7524830Y4314656D02*
G01X7524830Y3817082D01*
G01X7522597Y3814849D01*
G01X7344095Y3024339D02*
G01X7344095Y2606134D01*
G01X7247194Y2794836D02*
G01X7247194Y2539833D01*
G54D19*
G01X795610Y4225363D02*
G01X1007305Y4225363D01*
G01X1953325Y3279342D02*
G01X2407231Y3279342D01*
G01X1007305Y4225363D02*
G01X1953325Y3279342D01*
G54D21*
G01X2697935Y3928657D02*
G01X3860750Y3928657D01*
G01X3870950Y3938857D01*
G01X5563668Y4253455D02*
G01X5563668Y4579356D01*
G01X5564172Y4579859D01*
G01X7073792Y3478245D02*
G01X6976890Y3575146D01*
G01X6818788Y3575146D01*
G01X8284102Y5038865D02*
G01X8262107Y5016870D01*
G01X5533572Y5824275D02*
G01X5237768Y5824275D01*
G01X5079666Y5982377D01*
G01X5079666Y5987477D01*
G01X8262107Y5016870D02*
G01X6340977Y5016870D01*
G01X5533572Y5824275D01*
G54D22*
G01X9829753Y5664248D02*
G01X10087931Y5406070D01*
G01X10087931Y4238155D01*
G01X9829753Y6026353D02*
G01X9829753Y5664248D01*
G01X8216206Y6650486D02*
G01X8416210Y6450482D01*
G01X9405623Y6450482D01*
G01X9829753Y6026353D01*
G01X10029905Y5949173D02*
G01X10029905Y5668099D01*
G01X10169532Y5528472D01*
G01X10169532Y4284055D01*
G01X8690512Y7160493D02*
G01X9618724Y7160493D01*
G01X9829753Y6949465D01*
G01X9829753Y6587360D01*
G01X8726213Y7287994D02*
G01X9649325Y7287994D01*
G01X9985929Y6951390D01*
G01X9985929Y6624986D01*
G01X10087931Y4238155D02*
G01X10562237Y3763849D01*
G01X10562237Y2478632D01*
G01X10735639Y2305230D01*
G01X10169532Y4284055D02*
G01X10643838Y3809749D01*
G01X10643838Y2590834D01*
G01X11046743Y2187928D01*
G54D23*
G01X10424535Y3559856D02*
G01X9674825Y3559856D01*
G01X7155382Y3559856D01*
G54D22*
G01X9829753Y6587360D02*
G01X10735639Y5681474D01*
G01X10735639Y3661847D01*
G01X11056943Y3340543D01*
G01X9985929Y6624986D02*
G01X10817240Y5793675D01*
G01X10817240Y3733248D01*
G01X11240545Y3309943D01*
G04 Track End*

M02*

