G04 Layer: DrillDrawingLayer*
G04 EasyEDA Pro v2.2.32.3, 2026-04-14 17:29:08*
G04 Gerber Generator version 0.3*
G04 Scale: 100 percent, Rotated: No, Reflected: No*
G04 Dimensions in millimeters*
G04 Leading zeros omitted, absolute positions, 3 integers and 5 decimals*
%FSLAX35Y35*%
%MOMM*%
%AMIconRect*4,1,4,0.2,-0.2,-0.2,-0.2,-0.2,0.2,0.2,0.2,0.2,-0.2,0*4,0,4,0.166667,-0.166667,0.166667,0.166667,-0.166667,0.166667,-0.166667,-0.166667,0.166667,-0.166667,0*%
%AMIconTriangle*4,1,3,-0.242567,0.171767,0.242567,0.171767,0,-0.2706,-0.242567,0.171767,0*4,0,3,-0.189767,0.1386,0,-0.1953,0.190167,0.1386,-0.189767,0.1386,0*%
%AMIconStar6*4,1,12,0.0862,0.1492,0.213233,0.123367,0.172367,0,0.213233,-0.1229,0.0862,-0.148733,0,-0.245767,-0.085767,-0.148733,-0.213267,-0.1229,-0.171933,0,-0.213267,0.1229,-0.085767,0.1492,0,0.245767,0.0862,0.1492,0*4,0,12,-0.000333,0.195333,-0.064333,0.122667,-0.169667,0.097667,-0.138333,-0.005333,-0.169667,-0.098,-0.064333,-0.122667,-0.000333,-0.195667,0.064333,-0.122667,0.169667,-0.098,0.138667,0.005,0.169667,0.098,0.064333,0.122333,-0.000333,0.195333,0*%
%AMIconStar4*4,1,8,-0.222667,0.222667,0,0.144667,0.222667,0.222667,0.144667,0,0.222667,-0.222667,0,-0.144667,-0.217433,-0.222667,-0.144667,0,-0.222667,0.222667,0*4,0,8,0.166667,-0.166667,0.108,0,0.166667,0.166667,0,0.108,-0.166667,0.166667,-0.108,0,-0.166667,-0.166667,0,-0.108,0.166667,-0.166667,0*%
%AMIconPlus*4,1,12,0.124,-0.2,-0.124,-0.2,-0.124,-0.124,-0.2,-0.124,-0.2,0.124,-0.124,0.124,-0.124,0.2,0.124,0.2,0.124,0.124,0.2,0.124,0.2,-0.124,0.124,-0.124,0.124,-0.2,0*4,0,12,0.090667,-0.166667,0.090667,-0.090667,0.166667,-0.090667,0.166667,0.090667,0.090667,0.090667,0.090667,0.166667,-0.090667,0.166667,-0.090667,0.090667,-0.166667,0.090667,-0.166667,-0.090667,-0.090667,-0.090667,-0.090667,-0.166667,0.090667,-0.166667,0*%
%ADD10IconRect*%
%ADD11C,0.44X0.373333*%
%ADD12IconTriangle*%
%ADD13IconStar6*%
%ADD14IconStar4*%
%ADD15IconPlus*%
G75*


G04 Drill Drawing Start*
G54D10*
G01X226603Y2831544D03*
G01X226603Y3696541D03*
G54D11*
G01X646608Y2831534D03*
G01X646610Y3696536D03*
G54D12*
G01X2948849Y6372953D03*
G01X4262644Y6372801D03*
G54D13*
G01X5298330Y6058761D03*
G01X5298330Y6198765D03*
G01X5368332Y5988758D03*
G01X5368332Y6128763D03*
G01X5368332Y6268768D03*
G01X5438335Y6058761D03*
G01X5438335Y6198765D03*
G01X5508337Y5988758D03*
G01X5508337Y6128763D03*
G01X5508337Y6268768D03*
G01X5578340Y6058761D03*
G01X5578340Y6198765D03*
G54D14*
G01X795610Y4225363D03*
G01X795610Y4479363D03*
G01X795610Y4733363D03*
G01X795610Y4987363D03*
G01X795610Y5241363D03*
G01X795610Y5495363D03*
G01X3255747Y6101895D03*
G01X3505747Y6101895D03*
G01X3705746Y6101895D03*
G01X3955746Y6101895D03*
G01X7456296Y6473489D03*
G01X7456296Y6727489D03*
G01X7456296Y6981489D03*
G01X7456296Y7235489D03*
G54D15*
G01X214441Y5606090D03*
G01X214441Y5716269D03*
G01X219541Y5004282D03*
G01X219541Y5114461D03*
G01X224641Y4448375D03*
G01X224641Y4728879D03*
G01X224641Y4558554D03*
G01X224641Y4839058D03*
G01X229741Y3887368D03*
G01X229741Y4167872D03*
G01X229741Y3997547D03*
G01X229741Y4278051D03*
G01X239941Y5274586D03*
G01X239941Y5384765D03*
G01X307344Y2630249D03*
G01X316622Y2457075D03*
G01X423189Y2630249D03*
G01X432466Y2457075D03*
G01X433744Y3051114D03*
G01X433744Y3156193D03*
G01X433744Y3272379D03*
G01X433744Y3387561D03*
G01X433744Y3492640D03*
G01X449044Y3790624D03*
G01X449044Y3895703D03*
G01X449044Y4011888D03*
G01X489844Y5723392D03*
G01X489844Y5833571D03*
G01X539033Y2630249D03*
G01X548310Y2457075D03*
G01X564013Y2327194D03*
G01X679857Y2327194D03*
G01X765248Y5764192D03*
G01X765248Y5874371D03*
G01X795701Y2327194D03*
G01X861911Y3344248D03*
G01X933550Y2428906D03*
G01X933550Y2533985D03*
G01X933550Y2650170D03*
G01X933550Y2765353D03*
G01X933550Y2870432D03*
G01X953712Y3233849D03*
G01X1030451Y5626490D03*
G01X1030451Y5883612D03*
G01X1030451Y5998795D03*
G01X1030451Y6103874D03*
G01X1030451Y5736670D03*
G01X1045514Y3034539D03*
G01X1045514Y3504034D03*
G01X1055952Y4392274D03*
G01X1055952Y4502454D03*
G01X1091652Y2306505D03*
G01X1091652Y2411584D03*
G01X1091652Y2527769D03*
G01X1091652Y2642952D03*
G01X1091652Y2748031D03*
G01X1259954Y2199403D03*
G01X1259954Y2304482D03*
G01X1259954Y2420667D03*
G01X1259954Y2535850D03*
G01X1259954Y2640929D03*
G01X1300755Y5463288D03*
G01X1300755Y5573467D03*
G01X1332856Y6555098D03*
G01X1332856Y6660177D03*
G01X1332856Y6776362D03*
G01X1332856Y6891545D03*
G01X1332856Y6996624D03*
G01X1392556Y1995401D03*
G01X1392556Y2100480D03*
G01X1392556Y2216665D03*
G01X1392556Y2331848D03*
G01X1392556Y2436927D03*
G01X1505424Y6390621D03*
G01X1515862Y2195371D03*
G01X1519820Y4850163D03*
G01X1540220Y4697161D03*
G01X1561525Y2024964D03*
G01X1610503Y6390621D03*
G01X1620941Y2195371D03*
G01X1666604Y2024964D03*
G01X1694127Y6663762D03*
G01X1694127Y6925080D03*
G01X1725686Y6390621D03*
G01X1736124Y2195371D03*
G01X1769723Y3697548D03*
G01X1774823Y4431957D03*
G01X1781787Y2024964D03*
G01X1799206Y6663762D03*
G01X1799206Y6925080D03*
G01X1841871Y6390621D03*
G01X1846224Y4600260D03*
G01X1852309Y2195371D03*
G01X1892124Y4702261D03*
G01X1897972Y2024964D03*
G01X1914389Y6663762D03*
G01X1914389Y6925080D03*
G01X1946950Y6390621D03*
G01X1957389Y2195371D03*
G01X2003051Y2024964D03*
G01X2030574Y6663762D03*
G01X2030574Y6925080D03*
G01X2048129Y5982377D03*
G01X2075727Y3610847D03*
G01X2075727Y4064753D03*
G01X2085927Y4702405D03*
G01X2085927Y5701874D03*
G01X2121865Y2153503D03*
G01X2121865Y2258582D03*
G01X2121865Y2374767D03*
G01X2121865Y2489950D03*
G01X2121865Y2595029D03*
G01X2126728Y5819175D03*
G01X2135653Y6663762D03*
G01X2135653Y6925080D03*
G01X2136928Y3503745D03*
G01X2136928Y4447258D03*
G01X2157328Y3381344D03*
G01X2178633Y6482422D03*
G01X2228729Y5824275D03*
G01X2259329Y3508845D03*
G01X2259329Y3615947D03*
G01X2274629Y3411944D03*
G01X2283712Y6482422D03*
G01X2346268Y2041301D03*
G01X2346268Y2146380D03*
G01X2346268Y2262565D03*
G01X2346268Y2377748D03*
G01X2346268Y2482827D03*
G01X2386831Y5972177D03*
G01X2398895Y6482422D03*
G01X2407231Y3279342D03*
G01X2412331Y4615560D03*
G01X2427631Y5237768D03*
G01X2427631Y4758362D03*
G01X2432731Y4508458D03*
G01X2453132Y4686961D03*
G01X2453132Y5054165D03*
G01X2514333Y4783862D03*
G01X2515080Y6482422D03*
G01X2544933Y4238155D03*
G01X2570433Y5400970D03*
G01X2601272Y2031101D03*
G01X2601272Y2136180D03*
G01X2601272Y2252365D03*
G01X2601272Y2367548D03*
G01X2601272Y2472627D03*
G01X2611234Y4768562D03*
G01X2620159Y6482422D03*
G01X2646934Y3575146D03*
G01X2697935Y3743448D03*
G01X2697935Y3928657D03*
G01X2738735Y4763462D03*
G01X2774436Y5191867D03*
G01X2820336Y5094966D03*
G01X2825675Y2020901D03*
G01X2825675Y2125980D03*
G01X2825675Y2242165D03*
G01X2825675Y2357348D03*
G01X2825675Y2462427D03*
G01X2830537Y4941964D03*
G01X2891737Y5038865D03*
G01X2912138Y4105553D03*
G01X2912138Y4217755D03*
G01X2913174Y4329200D03*
G01X2917238Y4493158D03*
G01X2917238Y4579859D03*
G01X2917238Y4692061D03*
G01X2989543Y6671124D03*
G01X3094622Y6671124D03*
G01X3103304Y3165143D03*
G01X3106178Y2010701D03*
G01X3106178Y2115780D03*
G01X3106178Y2231965D03*
G01X3106178Y2347148D03*
G01X3106178Y2452227D03*
G01X3131441Y5487671D03*
G01X3165963Y4879858D03*
G01X3197979Y3862025D03*
G01X3197979Y4198472D03*
G01X3197979Y4303551D03*
G01X3209805Y6671124D03*
G01X3274480Y4879858D03*
G01X3289543Y5905876D03*
G01X3310181Y2010701D03*
G01X3310181Y2115780D03*
G01X3310181Y2231965D03*
G01X3310181Y2347148D03*
G01X3310181Y2452227D03*
G01X3325991Y6671124D03*
G01X3340781Y3851825D03*
G01X3340781Y4188272D03*
G01X3340781Y4293351D03*
G01X3371382Y3262178D03*
G01X3371382Y3377361D03*
G01X3371382Y3482440D03*
G01X3376244Y5967077D03*
G01X3382249Y4629682D03*
G01X3382249Y4738199D03*
G01X3431070Y6671124D03*
G01X3447645Y5655973D03*
G01X3447883Y3872225D03*
G01X3447883Y4208672D03*
G01X3447883Y4313751D03*
G01X3448549Y4690882D03*
G01X3448549Y4799400D03*
G01X3451566Y5007360D03*
G01X3533167Y5083861D03*
G01X3534584Y1898499D03*
G01X3534584Y2003578D03*
G01X3534584Y2119764D03*
G01X3534584Y2234947D03*
G01X3534584Y2340026D03*
G01X3560084Y5007360D03*
G01X3595785Y3251978D03*
G01X3595785Y3367161D03*
G01X3595785Y3472240D03*
G01X3641685Y5083861D03*
G01X3662245Y1378088D03*
G01X3733486Y1587395D03*
G01X3733486Y1692474D03*
G01X3733486Y1808660D03*
G01X3733486Y1923842D03*
G01X3733486Y2028922D03*
G01X3769187Y3037775D03*
G01X3769187Y3152958D03*
G01X3769187Y3258037D03*
G01X3778089Y1378088D03*
G01X3784487Y3348880D03*
G01X3795354Y6650724D03*
G01X3870950Y3938857D03*
G01X3893933Y1378088D03*
G01X3896688Y3201937D03*
G01X3900433Y6650724D03*
G01X3907555Y6808826D03*
G01X3955733Y5288768D03*
G01X3993590Y3027575D03*
G01X3993590Y3142758D03*
G01X3993590Y3247837D03*
G01X4009778Y1378088D03*
G01X4012634Y6808826D03*
G01X4015616Y6650724D03*
G01X4040157Y7017929D03*
G01X4054552Y5421370D03*
G01X4062750Y5188103D03*
G01X4066616Y2147366D03*
G01X4094175Y4961459D03*
G01X4095353Y4559459D03*
G01X4115991Y3071357D03*
G01X4125622Y1378088D03*
G01X4127817Y6808826D03*
G01X4131801Y6650724D03*
G01X4143117Y2050465D03*
G01X4145236Y7017929D03*
G01X4165576Y4701356D03*
G01X4182802Y2147366D03*
G01X4202692Y4961459D03*
G01X4209418Y1938263D03*
G01X4236880Y6650724D03*
G01X4241466Y1378088D03*
G01X4243255Y4503358D03*
G01X4243493Y5792770D03*
G01X4244002Y6808826D03*
G01X4259303Y2050465D03*
G01X4260419Y7017929D03*
G01X4268755Y3748549D03*
G01X4268755Y6043578D03*
G01X4274093Y4701356D03*
G01X4274745Y4028147D03*
G01X4287881Y2147366D03*
G01X4293077Y4119949D03*
G01X4310758Y4222221D03*
G01X4311420Y1820962D03*
G01X4325603Y1938263D03*
G01X4347465Y4293148D03*
G01X4349081Y6808826D03*
G01X4355456Y4916464D03*
G01X4355456Y5161267D03*
G01X4357311Y1378088D03*
G01X4364382Y2050465D03*
G01X4369578Y4374952D03*
G01X4376604Y7017929D03*
G01X4383263Y4028147D03*
G01X4401595Y4119949D03*
G01X4419276Y4222221D03*
G01X4427605Y1820962D03*
G01X4427611Y1565951D03*
G01X4430683Y1938263D03*
G01X4437057Y5304069D03*
G01X4455983Y4293148D03*
G01X4473155Y1378088D03*
G01X4478096Y4374952D03*
G01X4481683Y7017929D03*
G01X4522580Y4461653D03*
G01X4523997Y5655068D03*
G01X4528859Y5844676D03*
G01X4532684Y1820962D03*
G01X4543456Y1565951D03*
G01X4551307Y4869757D03*
G01X4631098Y4461653D03*
G01X4646160Y4753262D03*
G01X4659300Y1565951D03*
G01X4659825Y4869757D03*
G01X4746983Y4040527D03*
G01X4746983Y4145606D03*
G01X4746983Y4261791D03*
G01X4746983Y4376974D03*
G01X4746983Y4482053D03*
G01X4760225Y3697786D03*
G01X4775144Y1565951D03*
G01X4819800Y2645070D03*
G01X4819800Y2760253D03*
G01X4819800Y2865332D03*
G01X4834863Y6281770D03*
G01X4845967Y6625224D03*
G01X4850163Y5227568D03*
G01X4855501Y4040527D03*
G01X4855501Y4145606D03*
G01X4855501Y4261791D03*
G01X4855501Y4376974D03*
G01X4855501Y4482053D03*
G01X4875663Y5844676D03*
G01X4876411Y3697786D03*
G01X4885863Y5314269D03*
G01X4890989Y1565951D03*
G01X4896063Y5936477D03*
G01X4896968Y6497722D03*
G01X4947380Y5057655D03*
G01X4947380Y5162734D03*
G01X4951046Y6625224D03*
G01X4957502Y3989526D03*
G01X4957502Y4094605D03*
G01X4957502Y4210791D03*
G01X4957502Y4325974D03*
G01X4957502Y4431053D03*
G01X4967702Y3195878D03*
G01X4967702Y3311060D03*
G01X4967702Y3416139D03*
G01X4981490Y3697786D03*
G01X4996790Y6390621D03*
G01X5002047Y6497722D03*
G01X5006833Y1565951D03*
G01X5013963Y3536834D03*
G01X5023240Y2980204D03*
G01X5063224Y5057655D03*
G01X5063224Y5162734D03*
G01X5066229Y6625224D03*
G01X5079666Y5987477D03*
G01X5093788Y4227050D03*
G01X5114188Y4084248D03*
G01X5117230Y6497722D03*
G01X5122677Y1565951D03*
G01X5129807Y3536834D03*
G01X5130666Y4753262D03*
G01X5139084Y2980204D03*
G01X5141771Y3172479D03*
G01X5176567Y5319369D03*
G01X5182415Y6625224D03*
G01X5202305Y4227050D03*
G01X5214549Y3624453D03*
G01X5222706Y4084248D03*
G01X5233415Y6497722D03*
G01X5237768Y5712074D03*
G01X5238522Y1565951D03*
G01X5245651Y3536834D03*
G01X5246850Y3172479D03*
G01X5254929Y2980204D03*
G01X5287494Y6625224D03*
G01X5288124Y4467658D03*
G01X5319628Y3624453D03*
G01X5338494Y6497722D03*
G01X5346051Y1719024D03*
G01X5349969Y5319369D03*
G01X5362033Y3172479D03*
G01X5370369Y4579859D03*
G01X5432475Y6548723D03*
G01X5434811Y3624453D03*
G01X5455953Y6635424D03*
G01X5461896Y1719024D03*
G01X5554877Y6538523D03*
G01X5563668Y4253455D03*
G01X5564172Y4579859D03*
G01X5571136Y6635424D03*
G01X5577740Y1719024D03*
G01X5659956Y6538523D03*
G01X5675195Y2569529D03*
G01X5687321Y6635424D03*
G01X5693584Y1719024D03*
G01X5695967Y4482958D03*
G01X5700695Y2661330D03*
G01X5731296Y2778631D03*
G01X5731334Y5136156D03*
G01X5731334Y5241235D03*
G01X5746968Y6074179D03*
G01X5756709Y6188526D03*
G01X5775139Y6538523D03*
G01X5798775Y4600260D03*
G01X5804780Y6451821D03*
G01X5809429Y1719024D03*
G01X5813269Y4488058D03*
G01X5825180Y6640524D03*
G01X5847179Y5136156D03*
G01X5847179Y5241235D03*
G01X5848969Y6232281D03*
G01X5884670Y6125179D03*
G01X5891324Y6538523D03*
G01X5909798Y3232537D03*
G01X5909859Y6451821D03*
G01X5914898Y4247450D03*
G01X5914898Y3125436D03*
G01X5921177Y5712074D03*
G01X5925273Y1719024D03*
G01X5930259Y6640524D03*
G01X5977277Y3386444D03*
G01X5987477Y4508458D03*
G01X5992578Y2918678D03*
G01X5996403Y6538523D03*
G01X5997678Y4396257D03*
G01X6001599Y3181536D03*
G01X6013794Y3099935D03*
G01X6013794Y3277186D03*
G01X6025042Y6451821D03*
G01X6041117Y1719024D03*
G01X6045442Y6640524D03*
G01X6063978Y4335056D03*
G01X6069079Y5701874D03*
G01X6094579Y5008265D03*
G01X6124001Y3069335D03*
G01X6141227Y6451821D03*
G01X6144401Y4211750D03*
G01X6145580Y6237381D03*
G01X6156962Y1719024D03*
G01X6161627Y6640524D03*
G01X6171080Y3840350D03*
G01X6227181Y5778375D03*
G01X6237381Y5334669D03*
G01X6246306Y6451821D03*
G01X6266706Y6640524D03*
G01X6288381Y5406070D03*
G01X6385283Y4508458D03*
G01X6396691Y1691193D03*
G01X6400583Y4600260D03*
G01X6445305Y3043835D03*
G01X6451583Y4824662D03*
G01X6491206Y3620142D03*
G01X6492126Y3969769D03*
G01X6512535Y1691193D03*
G01X6531986Y3129631D03*
G01X6573188Y3234290D03*
G01X6589285Y6094579D03*
G01X6594385Y2918678D03*
G01X6594385Y6195571D03*
G01X6603407Y3084635D03*
G01X6607970Y3969769D03*
G01X6624769Y3159916D03*
G01X6624986Y4559459D03*
G01X6628380Y1691193D03*
G01X6650486Y6313882D03*
G01X6660686Y5406070D03*
G01X6665786Y5273468D03*
G01X6691287Y4794062D03*
G01X6705408Y2814332D03*
G01X6723814Y3969769D03*
G01X6737187Y6956490D03*
G01X6742287Y7068691D03*
G01X6744224Y1691193D03*
G01X6777988Y4559459D03*
G01X6788188Y6558685D03*
G01X6793462Y2064169D03*
G01X6801708Y2307437D03*
G01X6803488Y4783862D03*
G01X6811329Y2410517D03*
G01X6817610Y2860232D03*
G01X6818788Y3575146D03*
G01X6822719Y2182367D03*
G01X6858410Y2952033D03*
G01X6860069Y1691193D03*
G01X6864689Y6109879D03*
G01X6871802Y2509474D03*
G01X6881767Y3969769D03*
G01X6905489Y6426083D03*
G01X6909411Y3156036D03*
G01X6914511Y3033635D03*
G01X6917552Y2307437D03*
G01X6920790Y4564559D03*
G01X6927173Y2410517D03*
G01X6929527Y2604307D03*
G01X6929527Y2870940D03*
G01X6938564Y2182367D03*
G01X6961590Y4839963D03*
G01X6975913Y1691193D03*
G01X6985877Y2943783D03*
G01X6987090Y5468769D03*
G01X6987647Y2509474D03*
G01X6997611Y3969769D03*
G01X7006312Y3227437D03*
G01X7013760Y2803594D03*
G01X7017691Y5589672D03*
G01X7033397Y2307437D03*
G01X7043018Y2410517D03*
G01X7045371Y2604307D03*
G01X7073792Y3478245D03*
G01X7091757Y1691193D03*
G01X7101722Y2943783D03*
G01X7103491Y2509474D03*
G01X7113455Y3969769D03*
G01X7120912Y3874936D03*
G01X7124426Y6381504D03*
G01X7129605Y2803594D03*
G01X7144620Y3231719D03*
G01X7154327Y1878282D03*
G01X7161216Y2604307D03*
G01X7185993Y5589672D03*
G01X7207601Y1691193D03*
G01X7211493Y3712848D03*
G01X7217566Y2943783D03*
G01X7228341Y5840071D03*
G01X7236756Y3874936D03*
G01X7240271Y6276425D03*
G01X7240271Y6381504D03*
G01X7247194Y2539833D03*
G01X7247194Y2794836D03*
G01X7247194Y5212267D03*
G01X7260464Y3231719D03*
G01X7262128Y6460027D03*
G01X7270171Y1878282D03*
G01X7328795Y5538672D03*
G01X7329522Y5967071D03*
G01X7336778Y2054549D03*
G01X7341257Y5707971D03*
G01X7344095Y2606134D03*
G01X7344095Y3024339D03*
G01X7344095Y4574759D03*
G01X7352600Y3874936D03*
G01X7376309Y3231719D03*
G01X7379796Y5100066D03*
G01X7384896Y4952164D03*
G01X7386015Y1878282D03*
G01X7395096Y4498258D03*
G01X7451196Y4579859D03*
G01X7452622Y2054549D03*
G01X7497097Y2606134D03*
G01X7497097Y3014139D03*
G01X7501860Y1878282D03*
G01X7513044Y2196799D03*
G01X7522597Y3814849D03*
G01X7522597Y5120466D03*
G01X7524830Y4314656D03*
G01X7568466Y2054549D03*
G01X7593998Y4365656D03*
G01X7606373Y6200069D03*
G01X7606373Y6305148D03*
G01X7617704Y1878282D03*
G01X7628888Y2196799D03*
G01X7644999Y5202067D03*
G01X7665399Y4426857D03*
G01X7684311Y2054549D03*
G01X7701100Y5079666D03*
G01X7704772Y2363788D03*
G01X7722217Y6200069D03*
G01X7722217Y6305148D03*
G01X7726600Y3952551D03*
G01X7726600Y4340156D03*
G01X7733549Y1878282D03*
G01X7744733Y2196799D03*
G01X7769283Y3083284D03*
G01X7800155Y2054549D03*
G01X7808201Y4595159D03*
G01X7820617Y2363788D03*
G01X7847022Y2558608D03*
G01X7849393Y1878282D03*
G01X7860577Y2196799D03*
G01X7866852Y5077116D03*
G01X7885127Y3083284D03*
G01X7889886Y3924414D03*
G01X7916000Y2054549D03*
G01X7936461Y2363788D03*
G01X7945903Y4488058D03*
G01X7956103Y5074566D03*
G01X7962866Y2558608D03*
G01X7965237Y1878282D03*
G01X7976422Y2196799D03*
G01X7980797Y5467271D03*
G01X8000971Y3083284D03*
G01X8005730Y3924414D03*
G01X8031844Y2054549D03*
G01X8036568Y2881301D03*
G01X8047904Y5084766D03*
G01X8052305Y2363788D03*
G01X8078711Y2558608D03*
G01X8082798Y5365269D03*
G01X8092266Y2196799D03*
G01X8121575Y3924414D03*
G01X8125325Y7043150D03*
G01X8125325Y7158333D03*
G01X8125325Y7263412D03*
G01X8137155Y4133603D03*
G01X8147688Y2054549D03*
G01X8168150Y2363788D03*
G01X8174599Y5273468D03*
G01X8193250Y3031110D03*
G01X8194555Y2558608D03*
G01X8208110Y2196799D03*
G01X8208402Y2733844D03*
G01X8216206Y6650486D03*
G01X8221306Y6772888D03*
G01X8251907Y4482958D03*
G01X8259181Y7028399D03*
G01X8259181Y7143582D03*
G01X8259181Y7248661D03*
G01X8283994Y2363788D03*
G01X8310400Y2558608D03*
G01X8323954Y2196799D03*
G01X8324247Y2733844D03*
G01X8333508Y4957264D03*
G01X8341684Y3189166D03*
G01X8399838Y2363788D03*
G01X8414302Y6023178D03*
G01X8424752Y4666560D03*
G01X8426244Y2558608D03*
G01X8440091Y2733844D03*
G01X8450809Y5038865D03*
G01X8461978Y2894648D03*
G01X8515683Y2363788D03*
G01X8516304Y5931377D03*
G01X8542088Y2558608D03*
G01X8577823Y2894648D03*
G01X8598043Y3058545D03*
G01X8633605Y5819175D03*
G01X8634412Y6385283D03*
G01X8657933Y2558608D03*
G01X8690512Y7160493D03*
G01X8693667Y2894648D03*
G01X8713888Y3058545D03*
G01X8725406Y4284055D03*
G01X8726213Y7287994D03*
G01X8740707Y5681474D03*
G01X8756813Y6385283D03*
G01X8781507Y4370757D03*
G01X8783587Y3231719D03*
G01X8829732Y3058545D03*
G01X8858008Y4482958D03*
G01X8873308Y5574372D03*
G01X8879215Y3723048D03*
G01X8899431Y3231719D03*
G01X8914109Y4590059D03*
G01X8987685Y3064730D03*
G01X8995710Y5462171D03*
G01X9015276Y3231719D03*
G01X9056911Y5329569D03*
G01X9103529Y3064730D03*
G01X9124776Y4957264D03*
G01X9129118Y5069466D03*
G01X9138512Y5232668D03*
G01X9166993Y6100187D03*
G01X9166993Y6215370D03*
G01X9166993Y6320449D03*
G01X9210337Y3228626D03*
G01X9219373Y3064730D03*
G01X9225799Y3695577D03*
G01X9274094Y6023686D03*
G01X9274094Y6138869D03*
G01X9274094Y6243948D03*
G01X9291514Y5023565D03*
G01X9326181Y3228626D03*
G01X9328768Y4029290D03*
G01X9328768Y4197592D03*
G01X9338968Y3876288D03*
G01X9338968Y4294494D03*
G01X9341643Y3695577D03*
G01X9355696Y6778495D03*
G01X9355696Y6893678D03*
G01X9355696Y6998757D03*
G01X9368015Y4901163D03*
G01X9370996Y5947185D03*
G01X9370996Y6062368D03*
G01X9370996Y6167447D03*
G01X9405157Y3104931D03*
G01X9433847Y4029290D03*
G01X9433847Y4197592D03*
G01X9434694Y4815173D03*
G01X9442025Y3228626D03*
G01X9444047Y3876288D03*
G01X9444047Y4294494D03*
G01X9457487Y3695577D03*
G01X9483197Y5865584D03*
G01X9483197Y5980767D03*
G01X9483197Y6085846D03*
G01X9521002Y3104931D03*
G01X9523998Y6752995D03*
G01X9523998Y6868178D03*
G01X9523998Y6973257D03*
G01X9580098Y4420115D03*
G01X9580098Y4535298D03*
G01X9580098Y4640377D03*
G01X9585199Y5498379D03*
G01X9585199Y5613562D03*
G01X9585199Y5718641D03*
G01X9596857Y5270543D03*
G01X9596857Y5386387D03*
G01X9636846Y3104931D03*
G01X9646399Y6671394D03*
G01X9646399Y6786577D03*
G01X9646399Y6891656D03*
G01X9674825Y3559846D03*
G01X9743301Y5263776D03*
G01X9743301Y5378959D03*
G01X9743301Y5484038D03*
G01X9797639Y3769796D03*
G01X9799401Y4845570D03*
G01X9799401Y4960753D03*
G01X9799401Y5065832D03*
G01X9804501Y3029947D03*
G01X9804501Y3145130D03*
G01X9804501Y3250209D03*
G01X9819802Y4493666D03*
G01X9819802Y4608849D03*
G01X9819802Y4713928D03*
G01X9847117Y3864523D03*
G01X9855502Y5192375D03*
G01X9855502Y5307558D03*
G01X9855502Y5412637D03*
G01X9886102Y2693343D03*
G01X9886102Y2808525D03*
G01X9886102Y2913605D03*
G01X9896303Y2285337D03*
G01X9896303Y2400520D03*
G01X9896303Y2505599D03*
G01X9902718Y3769796D03*
G01X9926903Y1851832D03*
G01X9926903Y1967015D03*
G01X9926903Y2072094D03*
G01X9926903Y4565067D03*
G01X9926903Y4680250D03*
G01X9926903Y4785329D03*
G01X9928362Y7274869D03*
G01X9952196Y3864523D03*
G01X9998304Y1443826D03*
G01X9998304Y1559009D03*
G01X9998304Y1664088D03*
G01X10015063Y7142267D03*
G01X10017901Y3769796D03*
G01X10033441Y7274869D03*
G01X10067379Y3864523D03*
G01X10120142Y7142267D03*
G01X10148624Y7274869D03*
G01X10171706Y1285724D03*
G01X10171706Y1400907D03*
G01X10171706Y1505986D03*
G01X10184832Y3386444D03*
G01X10217607Y6798896D03*
G01X10217607Y6914079D03*
G01X10217607Y7019158D03*
G01X10235325Y7142267D03*
G01X10238007Y5651381D03*
G01X10238007Y5766564D03*
G01X10238007Y5871643D03*
G01X10324985Y4954668D03*
G01X10329808Y1250024D03*
G01X10329808Y1365207D03*
G01X10329808Y1470286D03*
G01X10336054Y6486181D03*
G01X10336054Y6601364D03*
G01X10336054Y6706443D03*
G01X10350208Y5544279D03*
G01X10350208Y5659462D03*
G01X10350208Y5764541D03*
G01X10360409Y5400135D03*
G01X10360409Y5088240D03*
G01X10360409Y5197504D03*
G01X10406309Y3131948D03*
G01X10406309Y3247131D03*
G01X10406309Y3352210D03*
G01X10421609Y2774944D03*
G01X10421609Y2890127D03*
G01X10421609Y2995206D03*
G01X10424535Y3559856D03*
G01X10462410Y6375590D03*
G01X10462410Y6490773D03*
G01X10462410Y6595852D03*
G01X10513411Y5421878D03*
G01X10513411Y5537061D03*
G01X10513411Y5642140D03*
G01X10523611Y2163895D03*
G01X10556386Y6236278D03*
G01X10556386Y6351461D03*
G01X10556386Y6456540D03*
G01X10589912Y2229237D03*
G01X10615412Y2135317D03*
G01X10651112Y6125687D03*
G01X10651112Y6240870D03*
G01X10651112Y6345949D03*
G01X10735639Y2305230D03*
G01X10742913Y6174569D03*
G01X10744372Y1236390D03*
G01X10758214Y6054286D03*
G01X10758214Y6274548D03*
G01X10841989Y5960874D03*
G01X10841989Y6076057D03*
G01X10841989Y6181136D03*
G01X10849451Y1236390D03*
G01X10904157Y3809547D03*
G01X10934852Y3885139D03*
G01X10936716Y5539179D03*
G01X10936716Y5654362D03*
G01X10936716Y5759441D03*
G01X10936716Y5850283D03*
G01X10936716Y5965466D03*
G01X10936716Y6070545D03*
G01X10964634Y1236390D03*
G01X10987717Y5421878D03*
G01X10992817Y5299476D03*
G01X11024646Y3862232D03*
G01X11033617Y5187275D03*
G01X11033617Y5559580D03*
G01X11046743Y2187928D03*
G01X11054018Y5666681D03*
G01X11054018Y5781864D03*
G01X11054018Y5886943D03*
G01X11056943Y3340543D03*
G01X11186619Y5656481D03*
G01X11186619Y5771664D03*
G01X11186619Y5876743D03*
G01X11228878Y1226190D03*
G01X11240545Y3309943D03*
G01X11309021Y5671781D03*
G01X11309021Y5786964D03*
G01X11309021Y5892043D03*
G01X11333958Y1226190D03*
G01X11441623Y5671781D03*
G01X11441623Y5786964D03*
G01X11441623Y5892043D03*
G01X11449140Y1226190D03*
G01X11594625Y5661581D03*
G01X11594625Y5776764D03*
G01X11594625Y5881843D03*
G01X11696626Y5426978D03*
G01X11722126Y5661581D03*
G01X11722126Y5776764D03*
G01X11722126Y5881843D03*
G01X11798627Y1831431D03*
G01X11798627Y1946614D03*
G01X11798627Y2051693D03*
G01X11829228Y5528979D03*
G01X11829228Y5644162D03*
G01X11829228Y5749241D03*
G01X11834328Y2871845D03*
G01X11834328Y2987028D03*
G01X11834328Y3092107D03*
G01X11870028Y5197475D03*
G01X11870028Y5312658D03*
G01X11870028Y5417737D03*
G01X11875128Y1984433D03*
G01X11875128Y2099616D03*
G01X11875128Y2204695D03*
G01X11875128Y4850671D03*
G01X11875128Y4965853D03*
G01X11875128Y5070932D03*
G01X11880228Y3218649D03*
G01X11880228Y3333832D03*
G01X11880228Y3438911D03*
G01X11885328Y3703156D03*
G01X11885328Y3818339D03*
G01X11885328Y3923418D03*
G01X11885328Y4100961D03*
G01X11885328Y4216144D03*
G01X11885328Y4321223D03*
G01X11885328Y4498766D03*
G01X11885328Y4613949D03*
G01X11885328Y4719028D03*
G04 Drill Drawing End*

M02*

