G04 Layer: CustomLayer2*
G04 EasyEDA Pro v2.2.32.3, 2026-04-14 17:29:08*
G04 Gerber Generator version 0.3*
G04 Scale: 100 percent, Rotated: No, Reflected: No*
G04 Dimensions in millimeters*
G04 Leading zeros omitted, absolute positions, 3 integers and 5 decimals*
%FSLAX35Y35*%
%MOMM*%
%ADD10C,0.0127*%
%ADD11C,0.15*%
G75*


G04 PolygonModel Start*
G54D10*
G01X3020352Y5576902D02*
G01X3015272Y5581982D01*
G01X4897177Y2062956D02*
G01X4892097Y2068036D01*
G01X5101179Y2062956D02*
G01X5096099Y2068036D01*
G01X10299593Y4910543D02*
G01X10304673Y4915623D01*
G54D11*
G01X10184832Y1631227D02*
G01X10184832Y1731227D01*
G01X10134832Y1681227D02*
G01X10234831Y1681227D01*
G01X10134832Y2541227D02*
G01X10234832Y2541227D01*
G01X10664238Y3645753D02*
G01X10664238Y3745753D01*
G01X10614238Y3695753D02*
G01X10714238Y3695753D01*
G01X10614238Y4555753D02*
G01X10714238Y4555753D01*
G54D10*
G01X9950446Y4104760D02*
G01X9945366Y4109840D01*
G01X9941515Y4134879D02*
G01X9936435Y4139959D01*
G01X4157347Y3524363D02*
G01X4152267Y3519283D01*
G01X4127228Y3515432D02*
G01X4122148Y3510352D01*
G01X10187402Y4081166D02*
G01X10182322Y4076086D01*
G01X4505929Y3515059D02*
G01X4500849Y3509979D01*
G01X7070291Y6958733D02*
G01X7075371Y6963813D01*
G01X7070291Y7152535D02*
G01X7075371Y7157615D01*
G01X1843653Y4089140D02*
G01X1848733Y4094220D01*
G01X2431618Y4006122D02*
G01X2436698Y4001042D01*
G01X7070291Y6571128D02*
G01X7075371Y6576208D01*
G01X7070291Y6764930D02*
G01X7075371Y6770010D01*
G01X2931680Y2761706D02*
G01X2936760Y2756626D01*
G01X2676932Y2761706D02*
G01X2682012Y2756626D01*
G01X3186428Y2761706D02*
G01X3191508Y2756626D01*
G01X2742722Y5582043D02*
G01X2747802Y5576963D01*
G01X5495331Y3314222D02*
G01X5500411Y3319302D01*
G54D11*
G01X5451970Y2090233D02*
G01X5451970Y2190233D01*
G01X5401970Y2140233D02*
G01X5501970Y2140233D01*
G01X5401971Y3000233D02*
G01X5501970Y3000233D01*

M02*

