G04 Layer: BottomLayer*
G04 EasyEDA Pro v3.2.148, 2026-06-04 14:24:46*
G04 Gerber Generator version 0.3*
G04 Scale: 100 percent, Rotated: No, Reflected: No*
G04 Dimensions in millimeters*
G04 Leading zeros omitted, absolute positions, 4 integers and 5 decimals*
G04 Generated by one-click*
G04 Object Configs: Pad,Via,Track,Text,Image,Dimension,BoardOutline,BoardCutout,CopperFilled,SolidRegion,FPCStiffener,Line,PlaneZone,ComponentProperty,ComponentSilkscreen,TearDrop*
G04 Layer Configs: 1,2,3,4,5,6,7,8,9,10,11,13,14,71,72,56*
G04 Copper Areas: 5*
%FSLAX45Y45*%
%MOMM*%
%ADD10C,0.2032*%
%ADD11O,2.0X1.1*%
%ADD12O,1.8X1.2*%
%ADD13C,3.2004*%
%ADD14R,1.7X1.7*%
%ADD15C,1.7*%
%ADD16C,2.0029*%
%ADD17C,2.0*%
%ADD18O,2.69999X3.39999*%
%ADD19C,0.61*%
%ADD20C,0.9144*%
%ADD21C,0.254*%
%ADD22C,0.762*%
%ADD23C,0.381*%
%ADD24C,0.508*%
G75*


G04 Copper Start*
G36*
G01X-125000Y6734186D02*
G01X3786886Y6734186D01*
G01X3786886Y6208014D01*
G01X3200400Y6208014D01*
G01X3185980Y6206594D01*
G01X3172114Y6202388D01*
G01X3159336Y6195557D01*
G01X3148135Y6186365D01*
G01X2906835Y5945065D01*
G01X2897643Y5933864D01*
G01X2890812Y5921086D01*
G01X2886606Y5907220D01*
G01X2885186Y5892800D01*
G01X2885186Y5219700D01*
G01X2883209Y5207220D01*
G01X2877473Y5195962D01*
G01X2868538Y5187027D01*
G01X2857280Y5181291D01*
G01X2844800Y5179314D01*
G01X1689100Y5179314D01*
G01X1672653Y5177461D01*
G01X1657030Y5171994D01*
G01X1643015Y5163188D01*
G01X1631312Y5151485D01*
G01X1622506Y5137470D01*
G01X1617039Y5121847D01*
G01X1615186Y5105400D01*
G01X1617039Y5088953D01*
G01X1622506Y5073330D01*
G01X1631312Y5059315D01*
G01X1643015Y5047612D01*
G01X1657030Y5038806D01*
G01X1672653Y5033339D01*
G01X1689100Y5031486D01*
G01X1764656Y5031486D01*
G01X1611435Y4878265D01*
G01X1602243Y4867064D01*
G01X1595412Y4854286D01*
G01X1591206Y4840420D01*
G01X1589786Y4826000D01*
G01X1589786Y2349500D01*
G01X1591639Y2333053D01*
G01X1597106Y2317430D01*
G01X1605912Y2303415D01*
G01X1617615Y2291712D01*
G01X1631630Y2282906D01*
G01X1647253Y2277439D01*
G01X1663700Y2275586D01*
G01X1680147Y2277439D01*
G01X1695770Y2282906D01*
G01X1709785Y2291712D01*
G01X1721488Y2303415D01*
G01X1730294Y2317430D01*
G01X1735761Y2333053D01*
G01X1737614Y2349500D01*
G01X1737614Y2667000D01*
G01X3437636Y2667000D01*
G01X3437636Y1511300D01*
G01X3439505Y1497100D01*
G01X3444986Y1483868D01*
G01X3453705Y1472505D01*
G01X3923605Y1002605D01*
G01X3923605Y1002605D01*
G01X3934968Y993886D01*
G01X3948200Y988405D01*
G01X3962400Y986536D01*
G01X6642100Y986536D01*
G01X6656300Y988405D01*
G01X6669532Y993886D01*
G01X6680895Y1002605D01*
G01X6931525Y1253236D01*
G01X7760551Y1253236D01*
G01X7774710Y1245936D01*
G01X7790201Y1242223D01*
G01X7806131Y1242311D01*
G01X7821580Y1246196D01*
G01X7835657Y1253654D01*
G01X7847550Y1264253D01*
G01X7856571Y1277383D01*
G01X7862201Y1292285D01*
G01X7864114Y1308100D01*
G01X7862201Y1323915D01*
G01X7856571Y1338817D01*
G01X7847550Y1351947D01*
G01X7835657Y1362546D01*
G01X7821580Y1370004D01*
G01X7806131Y1373889D01*
G01X7790201Y1373977D01*
G01X7774710Y1370264D01*
G01X7760551Y1362964D01*
G01X6908800Y1362964D01*
G01X6894600Y1361095D01*
G01X6881368Y1355614D01*
G01X6870005Y1346895D01*
G01X6619375Y1096264D01*
G01X3985125Y1096264D01*
G01X3547364Y1534025D01*
G01X3547364Y2008346D01*
G01X4219713Y2008346D01*
G01X4219713Y1360646D01*
G01X4220506Y1356661D01*
G01X4222764Y1353282D01*
G01X4298964Y1277082D01*
G01X4302342Y1274825D01*
G01X4306327Y1274032D01*
G01X5081027Y1274032D01*
G01X5085013Y1274825D01*
G01X5088391Y1277082D01*
G01X5151891Y1340582D01*
G01X5154149Y1343961D01*
G01X5154941Y1347946D01*
G01X5154941Y1616012D01*
G01X10034892Y1616012D01*
G01X10036668Y1600254D01*
G01X10041905Y1585286D01*
G01X10050342Y1571859D01*
G01X10061555Y1560646D01*
G01X10074982Y1552209D01*
G01X10089950Y1546972D01*
G01X10105708Y1545196D01*
G01X10121465Y1546972D01*
G01X10136433Y1552209D01*
G01X10149860Y1560646D01*
G01X10161073Y1571859D01*
G01X10169510Y1585286D01*
G01X10174747Y1600254D01*
G01X10176523Y1616012D01*
G01X10174747Y1631769D01*
G01X10169510Y1646737D01*
G01X10161073Y1660164D01*
G01X10149860Y1671377D01*
G01X10136433Y1679814D01*
G01X10121465Y1685051D01*
G01X10105708Y1686827D01*
G01X10089950Y1685051D01*
G01X10074982Y1679814D01*
G01X10061555Y1671377D01*
G01X10050342Y1660164D01*
G01X10041905Y1646737D01*
G01X10036668Y1631769D01*
G01X10034892Y1616012D01*
G01X10034892Y1616012D01*
G01X5154941Y1616012D01*
G01X5154941Y1897417D01*
G01X9712884Y1897417D01*
G01X9713402Y1882583D01*
G01X9717206Y1868236D01*
G01X9724107Y1855094D01*
G01X9733758Y1843816D01*
G01X9745675Y1834967D01*
G01X9759263Y1828991D01*
G01X9773839Y1826187D01*
G01X9788673Y1826695D01*
G01X9803023Y1830490D01*
G01X9816170Y1837382D01*
G01X9827454Y1847026D01*
G01X9836310Y1858937D01*
G01X9842296Y1872521D01*
G01X9845109Y1887095D01*
G01X9844611Y1901930D01*
G01X9840826Y1916282D01*
G01X9833942Y1929433D01*
G01X9857536Y1953027D01*
G01X9857536Y1953027D01*
G01X9872718Y1955341D01*
G01X9886959Y1961086D01*
G01X9899498Y1969952D01*
G01X9909661Y1981464D01*
G01X9916904Y1995006D01*
G01X9920837Y2009850D01*
G01X9921251Y2025201D01*
G01X9918122Y2040236D01*
G01X9911620Y2054148D01*
G01X9902091Y2066191D01*
G01X9890048Y2075720D01*
G01X9876136Y2082222D01*
G01X9861101Y2085351D01*
G01X9845750Y2084937D01*
G01X9830906Y2081004D01*
G01X9817364Y2073761D01*
G01X9805852Y2063598D01*
G01X9796986Y2051059D01*
G01X9791241Y2036818D01*
G01X9788927Y2021636D01*
G01X9744695Y1977405D01*
G01X9736986Y1967357D01*
G01X9732139Y1955656D01*
G01X9730486Y1943100D01*
G01X9730486Y1937510D01*
G01X9721645Y1925587D01*
G01X9715678Y1911995D01*
G01X9712884Y1897417D01*
G01X5154941Y1897417D01*
G01X5154941Y2008346D01*
G01X5154149Y2012332D01*
G01X5151891Y2015710D01*
G01X5075691Y2091910D01*
G01X5072313Y2094168D01*
G01X5068327Y2094960D01*
G01X4306327Y2094960D01*
G01X4302342Y2094168D01*
G01X4298964Y2091910D01*
G01X4222764Y2015710D01*
G01X4222764Y2015710D01*
G01X4220506Y2012332D01*
G01X4219713Y2008346D01*
G01X3547364Y2008346D01*
G01X3547364Y2644275D01*
G01X3657356Y2754266D01*
G01X3672530Y2759116D01*
G01X3686109Y2767445D01*
G01X3697311Y2778772D01*
G01X3705488Y2792443D01*
G01X3710168Y2807670D01*
G01X3711083Y2823574D01*
G01X3708178Y2839237D01*
G01X3701621Y2853755D01*
G01X3691791Y2866291D01*
G01X3679255Y2876121D01*
G01X3664737Y2882678D01*
G01X3649074Y2885583D01*
G01X3633170Y2884668D01*
G01X3617943Y2879988D01*
G01X3604272Y2871811D01*
G01X3592945Y2860609D01*
G01X3584616Y2847030D01*
G01X3579766Y2831856D01*
G01X3453705Y2705795D01*
G01X3444986Y2694432D01*
G01X3439505Y2681200D01*
G01X3437636Y2667000D01*
G01X1737614Y2667000D01*
G01X1737614Y3473493D01*
G01X2854995Y3473493D01*
G01X2855422Y3457249D01*
G01X2859786Y3441597D01*
G01X2859786Y3416300D01*
G01X2860962Y3404358D01*
G01X2864446Y3392874D01*
G01X2870102Y3382291D01*
G01X2877715Y3373015D01*
G01X3030115Y3220615D01*
G01X3039391Y3213002D01*
G01X3049974Y3207346D01*
G01X3061458Y3203862D01*
G01X3073400Y3202686D01*
G01X4557666Y3202686D01*
G01X4550166Y3190333D01*
G01X4545521Y3176648D01*
G01X4543950Y3162282D01*
G01X4545528Y3147916D01*
G01X4550182Y3134234D01*
G01X4557688Y3121885D01*
G01X4567692Y3111455D01*
G01X4579718Y3103440D01*
G01X4593194Y3098221D01*
G01X4607481Y3096044D01*
G01X4621900Y3097015D01*
G01X4635767Y3101086D01*
G01X5041944Y3101086D01*
G01X5082286Y3060744D01*
G01X5082286Y2516735D01*
G01X5067376Y2501824D01*
G01X5067376Y2501824D01*
G01X5061684Y2494407D01*
G01X5058106Y2485769D01*
G01X5056886Y2476500D01*
G01X5056886Y2311400D01*
G01X5058106Y2302131D01*
G01X5061684Y2293493D01*
G01X5067376Y2286076D01*
G01X5118176Y2235276D01*
G01X5125593Y2229584D01*
G01X5134231Y2226006D01*
G01X5143500Y2224786D01*
G01X9105900Y2224786D01*
G01X9115169Y2226006D01*
G01X9123807Y2229584D01*
G01X9131224Y2235276D01*
G01X9258224Y2362276D01*
G01X9263916Y2369693D01*
G01X9267494Y2378331D01*
G01X9268714Y2387600D01*
G01X9268714Y3547648D01*
G01X9270424Y3538919D01*
G01X9273286Y3530497D01*
G01X9273286Y2232956D01*
G01X9271701Y2223889D01*
G01X9267133Y2215897D01*
G01X9260125Y2209929D01*
G01X9244711Y2211306D01*
G01X9229398Y2209072D01*
G01X9215020Y2203350D01*
G01X9202359Y2194451D01*
G01X9192105Y2182860D01*
G01X9184817Y2169208D01*
G01X9180892Y2154239D01*
G01X9180542Y2138768D01*
G01X9183788Y2123637D01*
G01X9190453Y2109670D01*
G01X9200173Y2097629D01*
G01X9212420Y2088168D01*
G01X9226525Y2081803D01*
G01X9241722Y2078880D01*
G01X9257182Y2079559D01*
G01X9272064Y2083803D01*
G01X9312325Y2083803D01*
G01X9326979Y2080414D01*
G01X9342021Y2080414D01*
G01X9356675Y2083803D01*
G01X9385053Y2083803D01*
G01X9399738Y2079592D01*
G01X9414997Y2078852D01*
G01X9430020Y2081624D01*
G01X9444011Y2087761D01*
G01X9456226Y2096936D01*
G01X9466017Y2108663D01*
G01X9472864Y2122319D01*
G01X9476405Y2137180D01*
G01X9476451Y2152457D01*
G01X9473000Y2167339D01*
G01X9466235Y2181037D01*
G01X9456515Y2192822D01*
G01X9454948Y2194014D01*
G01X10034892Y2194014D01*
G01X10036668Y2178256D01*
G01X10041905Y2163288D01*
G01X10050342Y2149861D01*
G01X10061555Y2138648D01*
G01X10074982Y2130212D01*
G01X10089950Y2124974D01*
G01X10105708Y2123199D01*
G01X10121465Y2124974D01*
G01X10136433Y2130212D01*
G01X10149860Y2138648D01*
G01X10161073Y2149861D01*
G01X10169510Y2163288D01*
G01X10174747Y2178256D01*
G01X10176523Y2194014D01*
G01X10174747Y2209772D01*
G01X10169510Y2224739D01*
G01X10161073Y2238166D01*
G01X10149860Y2249379D01*
G01X10136433Y2257816D01*
G01X10121465Y2263054D01*
G01X10105708Y2264829D01*
G01X10089950Y2263054D01*
G01X10074982Y2257816D01*
G01X10061555Y2249379D01*
G01X10050342Y2238166D01*
G01X10041905Y2224739D01*
G01X10036668Y2209772D01*
G01X10034892Y2194014D01*
G01X10034892Y2194014D01*
G01X9454948Y2194014D01*
G01X9444356Y2202071D01*
G01X9430403Y2208292D01*
G01X9415396Y2211154D01*
G01X9400133Y2210507D01*
G01X9396863Y2215347D01*
G01X9395714Y2221073D01*
G01X9395714Y3115276D01*
G01X9867288Y3115276D01*
G01X9869225Y3095608D01*
G01X9874962Y3076696D01*
G01X9884278Y3059266D01*
G01X9896816Y3043989D01*
G01X9912093Y3031451D01*
G01X9929523Y3022135D01*
G01X9948435Y3016398D01*
G01X9968103Y3014461D01*
G01X9987771Y3016398D01*
G01X10006683Y3022135D01*
G01X10024113Y3031451D01*
G01X10039390Y3043989D01*
G01X10051928Y3059266D01*
G01X10061244Y3076696D01*
G01X10066981Y3095608D01*
G01X10068918Y3115276D01*
G01X10066981Y3134944D01*
G01X10061244Y3153856D01*
G01X10051928Y3171286D01*
G01X10039390Y3186563D01*
G01X10024113Y3199101D01*
G01X10006683Y3208417D01*
G01X9987771Y3214154D01*
G01X9968103Y3216091D01*
G01X9948435Y3214154D01*
G01X9929523Y3208417D01*
G01X9912093Y3199101D01*
G01X9896816Y3186563D01*
G01X9884278Y3171286D01*
G01X9874962Y3153856D01*
G01X9869225Y3134944D01*
G01X9867288Y3115276D01*
G01X9867288Y3115276D01*
G01X9395714Y3115276D01*
G01X9395714Y3530497D01*
G01X9400058Y3546013D01*
G01X9400531Y3562119D01*
G01X9397106Y3577863D01*
G01X9389986Y3592317D01*
G01X9379589Y3604627D01*
G01X9378702Y3605267D01*
G01X9867288Y3605267D01*
G01X9869225Y3585599D01*
G01X9874962Y3566687D01*
G01X9884278Y3549257D01*
G01X9896816Y3533980D01*
G01X9912093Y3521443D01*
G01X9929523Y3512126D01*
G01X9948435Y3506389D01*
G01X9968103Y3504452D01*
G01X9987771Y3506389D01*
G01X10006683Y3512126D01*
G01X10024113Y3521443D01*
G01X10039390Y3533980D01*
G01X10051928Y3549257D01*
G01X10061244Y3566687D01*
G01X10066981Y3585599D01*
G01X10068918Y3605267D01*
G01X10066981Y3624935D01*
G01X10061244Y3643848D01*
G01X10051928Y3661277D01*
G01X10039390Y3676554D01*
G01X10024113Y3689092D01*
G01X10006683Y3698408D01*
G01X9987771Y3704145D01*
G01X9968103Y3706083D01*
G01X9948435Y3704145D01*
G01X9929523Y3698408D01*
G01X9912093Y3689092D01*
G01X9896816Y3676554D01*
G01X9884278Y3661277D01*
G01X9874962Y3643848D01*
G01X9869225Y3624935D01*
G01X9867288Y3605267D01*
G01X9867288Y3605267D01*
G01X9378702Y3605267D01*
G01X9366531Y3614065D01*
G01X9351581Y3620076D01*
G01X9335623Y3622305D01*
G01X9319599Y3620618D01*
G01X9304455Y3615117D01*
G01X9291084Y3606126D01*
G01X9280277Y3594176D01*
G01X9272670Y3579971D01*
G01X9268714Y3564352D01*
G01X9268714Y4582565D01*
G01X9349335Y4663186D01*
G01X9842500Y4663186D01*
G01X9851769Y4664406D01*
G01X9860407Y4667984D01*
G01X9867824Y4673676D01*
G01X9905924Y4711776D01*
G01X9911616Y4719193D01*
G01X9915194Y4727831D01*
G01X9916414Y4737100D01*
G01X9916414Y4988121D01*
G01X9915194Y4997390D01*
G01X9911616Y5006028D01*
G01X9905924Y5013445D01*
G01X9877545Y5041824D01*
G01X9870128Y5047516D01*
G01X9861490Y5051094D01*
G01X9852221Y5052314D01*
G01X9446260Y5052314D01*
G01X9446514Y5054600D01*
G01X9446514Y5715000D01*
G01X9445721Y5718985D01*
G01X9443464Y5722364D01*
G01X9367264Y5798564D01*
G01X9363885Y5800821D01*
G01X9359900Y5801614D01*
G01X8597900Y5801614D01*
G01X8593915Y5800821D01*
G01X8590536Y5798564D01*
G01X8514336Y5722364D01*
G01X8512079Y5718985D01*
G01X8511286Y5715000D01*
G01X8511286Y5067300D01*
G01X8512079Y5063315D01*
G01X8514336Y5059936D01*
G01X8590536Y4983736D01*
G01X8593915Y4981479D01*
G01X8597900Y4980686D01*
G01X9128888Y4980686D01*
G01X9017076Y4868873D01*
G01X9011384Y4861456D01*
G01X9007806Y4852818D01*
G01X9006586Y4843549D01*
G01X9006586Y2605635D01*
G01X8964065Y2563114D01*
G01X5204714Y2563114D01*
G01X5204714Y3086100D01*
G01X5203538Y3098042D01*
G01X5200054Y3109526D01*
G01X5194398Y3120109D01*
G01X5186785Y3129385D01*
G01X5110585Y3205585D01*
G01X5101309Y3213198D01*
G01X5090726Y3218854D01*
G01X5079242Y3222338D01*
G01X5067300Y3223514D01*
G01X4662698Y3223514D01*
G01X4670198Y3235867D01*
G01X4674843Y3249552D01*
G01X4676414Y3263918D01*
G01X4674835Y3278284D01*
G01X4670182Y3291966D01*
G01X4662675Y3304315D01*
G01X4652672Y3314745D01*
G01X4640646Y3322760D01*
G01X4627170Y3327979D01*
G01X4612883Y3330156D01*
G01X4598464Y3329185D01*
G01X4584597Y3325114D01*
G01X3098756Y3325114D01*
G01X2982231Y3441638D01*
G01X2986585Y3457294D01*
G01X2987001Y3473537D01*
G01X2983454Y3489395D01*
G01X2976157Y3503914D01*
G01X2965549Y3516222D01*
G01X2952266Y3525581D01*
G01X2937105Y3531429D01*
G01X2920978Y3533414D01*
G01X2904851Y3531418D01*
G01X2889695Y3525560D01*
G01X2876418Y3516192D01*
G01X2865818Y3503876D01*
G01X2858531Y3489353D01*
G01X2854995Y3473493D01*
G01X1737614Y3473493D01*
G01X1737614Y4795384D01*
G01X1869035Y4926804D01*
G01X2616200Y4926804D01*
G01X2632491Y4928622D01*
G01X2647982Y4933986D01*
G01X2661909Y4942632D01*
G01X2673587Y4954136D01*
G01X2682443Y4967930D01*
G01X2688041Y4983337D01*
G01X2690106Y4999599D01*
G01X2688535Y5015916D01*
G01X2683406Y5031486D01*
G01X3093584Y5031486D01*
G01X3139186Y4985884D01*
G01X3139186Y4343400D01*
G01X3141039Y4326953D01*
G01X3146506Y4311330D01*
G01X3155312Y4297315D01*
G01X3167015Y4285612D01*
G01X3181030Y4276806D01*
G01X3196653Y4271339D01*
G01X3213100Y4269486D01*
G01X3229547Y4271339D01*
G01X3245170Y4276806D01*
G01X3259185Y4285612D01*
G01X3270888Y4297315D01*
G01X3279694Y4311330D01*
G01X3285161Y4326953D01*
G01X3287014Y4343400D01*
G01X3287014Y5016500D01*
G01X3285594Y5030920D01*
G01X3281388Y5044786D01*
G01X3274557Y5057564D01*
G01X3265365Y5068765D01*
G01X3176465Y5157665D01*
G01X3165264Y5166857D01*
G01X3152486Y5173688D01*
G01X3138620Y5177894D01*
G01X3124200Y5179314D01*
G01X3106410Y5181066D01*
G01X3089305Y5186255D01*
G01X3073540Y5194682D01*
G01X3059722Y5206022D01*
G01X3048382Y5219840D01*
G01X3039955Y5235605D01*
G01X3034766Y5252710D01*
G01X3033014Y5270500D01*
G01X3033014Y5713202D01*
G01X3046320Y5705267D01*
G01X3061105Y5700636D01*
G01X3076560Y5699561D01*
G01X3091843Y5702102D01*
G01X3106120Y5708120D01*
G01X3118610Y5717286D01*
G01X3862868Y5717286D01*
G01X3912159Y5667995D01*
G01X3922207Y5660286D01*
G01X3933907Y5655439D01*
G01X3946464Y5653786D01*
G01X3965642Y5653786D01*
G01X3960837Y5638918D01*
G01X3959643Y5623339D01*
G01X3962129Y5607913D01*
G01X3968154Y5593496D01*
G01X3977386Y5580890D01*
G01X3977386Y5544595D01*
G01X3813795Y5381005D01*
G01X3806086Y5370957D01*
G01X3801239Y5359256D01*
G01X3799586Y5346700D01*
G01X3799586Y3537710D01*
G01X3790488Y3525339D01*
G01X3784479Y3511206D01*
G01X3781882Y3496071D01*
G01X3782836Y3480744D01*
G01X3787290Y3466047D01*
G01X3795006Y3452769D01*
G01X3805568Y3441622D01*
G01X3818411Y3433203D01*
G01X3832847Y3427964D01*
G01X3848100Y3426186D01*
G01X3863353Y3427964D01*
G01X3877789Y3433203D01*
G01X3890632Y3441622D01*
G01X3901194Y3452769D01*
G01X3908910Y3466047D01*
G01X3913364Y3480744D01*
G01X3914318Y3496071D01*
G01X3911721Y3511206D01*
G01X3905712Y3525339D01*
G01X3896614Y3537710D01*
G01X3896614Y5326605D01*
G01X4033474Y5463465D01*
G01X4040886Y5453890D01*
G01X4040886Y4642895D01*
G01X3928095Y4530105D01*
G01X3920386Y4520057D01*
G01X3915539Y4508356D01*
G01X3913886Y4495800D01*
G01X3913886Y3746500D01*
G01X3915539Y3733944D01*
G01X3920386Y3722243D01*
G01X3928095Y3712195D01*
G01X4232895Y3407395D01*
G01X4242943Y3399686D01*
G01X4254644Y3394839D01*
G01X4267200Y3393186D01*
G01X6736590Y3393186D01*
G01X6748722Y3384225D01*
G01X6762565Y3378237D01*
G01X6777403Y3375532D01*
G01X6792469Y3376250D01*
G01X6806983Y3380354D01*
G01X6820194Y3387631D01*
G01X6831419Y3397705D01*
G01X6840077Y3410055D01*
G01X6845720Y3424043D01*
G01X6848057Y3438943D01*
G01X6861803Y3440972D01*
G01X6874824Y3445821D01*
G01X6886549Y3453277D01*
G01X6896464Y3463012D01*
G01X6904132Y3474600D01*
G01X6909217Y3487531D01*
G01X6911496Y3501237D01*
G01X6910868Y3515118D01*
G01X6925344Y3517183D01*
G01X6939015Y3522369D01*
G01X6951217Y3530426D01*
G01X6961357Y3540961D01*
G01X6968942Y3553462D01*
G01X6973602Y3567321D01*
G01X6975112Y3581865D01*
G01X6973399Y3596386D01*
G01X7028690Y3596386D01*
G01X7039934Y3587945D01*
G01X7052704Y3582065D01*
G01X7066427Y3579008D01*
G01X7080486Y3578914D01*
G01X7094249Y3581785D01*
G01X7107097Y3587493D01*
G01X7118453Y3595782D01*
G01X7127807Y3606278D01*
G01X7134737Y3618511D01*
G01X7138933Y3631929D01*
G01X7140206Y3645931D01*
G01X7138499Y3659886D01*
G01X7174551Y3659886D01*
G01X7187107Y3661539D01*
G01X7198808Y3666386D01*
G01X7208855Y3674095D01*
G01X7240387Y3705627D01*
G01X7254822Y3707742D01*
G01X7268445Y3712961D01*
G01X7280597Y3721034D01*
G01X7290690Y3731568D01*
G01X7298235Y3744054D01*
G01X7302868Y3757888D01*
G01X7304363Y3772400D01*
G01X7302649Y3786888D01*
G01X7297808Y3800650D01*
G01X7290076Y3813021D01*
G01X7279825Y3823402D01*
G01X7267553Y3831290D01*
G01X7253852Y3836304D01*
G01X7239387Y3838201D01*
G01X7224858Y3836888D01*
G01X7210966Y3832431D01*
G01X7198386Y3825044D01*
G01X7187725Y3815085D01*
G01X7176541Y3825430D01*
G01X7163292Y3832951D01*
G01X7148675Y3837249D01*
G01X7133463Y3838097D01*
G01X7118459Y3835452D01*
G01X7104455Y3829452D01*
G01X7092190Y3820414D01*
G01X5716481Y3820414D01*
G01X5723905Y3826495D01*
G01X5953931Y4056522D01*
G01X7295390Y4056522D01*
G01X7307823Y4047388D01*
G01X7322030Y4041375D01*
G01X7337242Y4038807D01*
G01X7352635Y4039823D01*
G01X7367377Y4044368D01*
G01X7380671Y4052197D01*
G01X7391795Y4062886D01*
G01X7400149Y4075855D01*
G01X7405280Y4090404D01*
G01X7406910Y4105745D01*
G01X7404952Y4121047D01*
G01X7406608Y4121047D01*
G01X7418482Y4112235D01*
G01X7432013Y4106273D01*
G01X7446529Y4103458D01*
G01X7461308Y4103930D01*
G01X7475616Y4107664D01*
G01X7488739Y4114476D01*
G01X7500028Y4124027D01*
G01X7508919Y4135841D01*
G01X7514972Y4149332D01*
G01X7517884Y4163829D01*
G01X7532257Y4165067D01*
G01X7546022Y4169385D01*
G01X7558528Y4176577D01*
G01X7569183Y4186303D01*
G01X7577482Y4198103D01*
G01X7583033Y4211419D01*
G01X7585573Y4225620D01*
G01X7584982Y4240034D01*
G01X7581287Y4253979D01*
G01X7574665Y4266796D01*
G01X7565427Y4277877D01*
G01X7554012Y4286698D01*
G01X7567569Y4291449D01*
G01X7579785Y4299008D01*
G01X7590086Y4309021D01*
G01X7597989Y4321017D01*
G01X7603124Y4334433D01*
G01X7605249Y4348641D01*
G01X7604264Y4362972D01*
G01X7600216Y4376756D01*
G01X7593294Y4389344D01*
G01X7583825Y4400146D01*
G01X7572251Y4408656D01*
G01X7559116Y4414473D01*
G01X7558566Y4429533D01*
G01X7554630Y4444080D01*
G01X7547512Y4457362D01*
G01X7537579Y4468695D01*
G01X7525343Y4477492D01*
G01X7511437Y4483300D01*
G01X7496579Y4485817D01*
G01X7481536Y4484916D01*
G01X7467085Y4480641D01*
G01X7453973Y4473214D01*
G01X6415573Y4473214D01*
G01X6416000Y4489550D01*
G01X6412418Y4505495D01*
G01X6405046Y4520079D01*
G01X6394331Y4532418D01*
G01X6380924Y4541762D01*
G01X6365639Y4547544D01*
G01X6349404Y4549411D01*
G01X6333206Y4547252D01*
G01X6318027Y4541197D01*
G01X6304790Y4531614D01*
G01X6300299Y4531614D01*
G01X6302005Y4547699D01*
G01X6299766Y4563719D01*
G01X6293716Y4578720D01*
G01X6284214Y4591810D01*
G01X6284214Y4864100D01*
G01X6283223Y4873854D01*
G01X6280291Y4883211D01*
G01X6275538Y4891786D01*
G01X6292890Y4891786D01*
G01X6305447Y4893439D01*
G01X6317147Y4898286D01*
G01X6327195Y4905995D01*
G01X6410148Y4988948D01*
G01X6423186Y4992179D01*
G01X6435306Y4997971D01*
G01X6446010Y5006086D01*
G01X7638005Y5006086D01*
G01X7647686Y4996405D01*
G01X7647686Y3804695D01*
G01X7524212Y3681221D01*
G01X7516502Y3671174D01*
G01X7511656Y3659473D01*
G01X7510003Y3646917D01*
G01X7510003Y2949145D01*
G01X7496653Y2940771D01*
G01X7485656Y2929484D01*
G01X7477633Y2915921D01*
G01X7473037Y2900847D01*
G01X7472128Y2885115D01*
G01X7474956Y2869612D01*
G01X7481362Y2855214D01*
G01X7490984Y2842735D01*
G01X7503279Y2832878D01*
G01X7517553Y2826200D01*
G01X7533000Y2823079D01*
G01X7548746Y2823691D01*
G01X7563904Y2828001D01*
G01X7577617Y2835766D01*
G01X7590681Y2828276D01*
G01X7605098Y2823927D01*
G01X7620125Y2822943D01*
G01X7634986Y2825375D01*
G01X7634986Y2806656D01*
G01X7632848Y2804518D01*
G01X7618681Y2796526D01*
G01X7606885Y2785326D01*
G01X7598171Y2771592D01*
G01X7593062Y2756149D01*
G01X7591867Y2739927D01*
G01X7594656Y2723902D01*
G01X7601262Y2709038D01*
G01X7611288Y2696229D01*
G01X7624131Y2686247D01*
G01X7639017Y2679691D01*
G01X7655051Y2676956D01*
G01X7671269Y2678207D01*
G01X7686695Y2683368D01*
G01X7700400Y2692129D01*
G01X7709363Y2678640D01*
G01X7721329Y2667726D01*
G01X7735583Y2660038D01*
G01X7751276Y2656034D01*
G01X7767471Y2655953D01*
G01X7783203Y2659801D01*
G01X7797532Y2667347D01*
G01X7809606Y2678142D01*
G01X7818703Y2691541D01*
G01X7824280Y2706746D01*
G01X7826006Y2722849D01*
G01X7823777Y2738890D01*
G01X7817726Y2753913D01*
G01X7808214Y2767021D01*
G01X7808214Y3574005D01*
G01X8276605Y4042395D01*
G01X8284314Y4052443D01*
G01X8289161Y4064144D01*
G01X8290814Y4076700D01*
G01X8290814Y6063205D01*
G01X8338595Y6110986D01*
G01X9055100Y6110986D01*
G01X9067656Y6112639D01*
G01X9079357Y6117486D01*
G01X9089405Y6125195D01*
G01X9203705Y6239495D01*
G01X9210215Y6247980D01*
G01X10593366Y6247980D01*
G01X10595318Y6213225D01*
G01X10601149Y6178906D01*
G01X10610786Y6145457D01*
G01X10624107Y6113296D01*
G01X10640945Y6082830D01*
G01X10661089Y6054440D01*
G01X10684284Y6028484D01*
G01X10710240Y6005289D01*
G01X10738630Y5985145D01*
G01X10769097Y5968307D01*
G01X10801257Y5954985D01*
G01X10834706Y5945349D01*
G01X10869025Y5939518D01*
G01X10903780Y5937566D01*
G01X10938535Y5939518D01*
G01X10972854Y5945349D01*
G01X11006303Y5954985D01*
G01X11038464Y5968307D01*
G01X11068930Y5985145D01*
G01X11097320Y6005289D01*
G01X11123276Y6028484D01*
G01X11146471Y6054440D01*
G01X11166615Y6082830D01*
G01X11183453Y6113296D01*
G01X11196775Y6145457D01*
G01X11206411Y6178906D01*
G01X11212242Y6213225D01*
G01X11214194Y6247980D01*
G01X11212242Y6282735D01*
G01X11206411Y6317053D01*
G01X11196775Y6350503D01*
G01X11183453Y6382663D01*
G01X11166615Y6413130D01*
G01X11146471Y6441520D01*
G01X11123276Y6467476D01*
G01X11097320Y6490671D01*
G01X11068930Y6510815D01*
G01X11038464Y6527653D01*
G01X11006303Y6540974D01*
G01X10972854Y6550611D01*
G01X10938535Y6556442D01*
G01X10903780Y6558394D01*
G01X10869025Y6556442D01*
G01X10834706Y6550611D01*
G01X10801257Y6540974D01*
G01X10769097Y6527653D01*
G01X10738630Y6510815D01*
G01X10710240Y6490671D01*
G01X10684284Y6467476D01*
G01X10661089Y6441520D01*
G01X10640945Y6413130D01*
G01X10624107Y6382663D01*
G01X10610786Y6350503D01*
G01X10601149Y6317053D01*
G01X10595318Y6282735D01*
G01X10593366Y6247980D01*
G01X10593366Y6247980D01*
G01X9210215Y6247980D01*
G01X9211414Y6249543D01*
G01X9216261Y6261244D01*
G01X9217914Y6273800D01*
G01X9217914Y6578600D01*
G01X9216261Y6591156D01*
G01X9211414Y6602857D01*
G01X9203705Y6612905D01*
G01X9152905Y6663705D01*
G01X9142857Y6671414D01*
G01X9131156Y6676261D01*
G01X9118600Y6677914D01*
G01X8839200Y6677914D01*
G01X8826644Y6676261D01*
G01X8814943Y6671414D01*
G01X8804895Y6663705D01*
G01X8741395Y6600205D01*
G01X8733686Y6590157D01*
G01X8728839Y6578456D01*
G01X8727186Y6565900D01*
G01X8727186Y6562245D01*
G01X8708533Y6552022D01*
G01X8691962Y6538686D01*
G01X8677987Y6522651D01*
G01X8667041Y6504413D01*
G01X8659463Y6484538D01*
G01X8655488Y6463642D01*
G01X8655239Y6442373D01*
G01X8658724Y6421390D01*
G01X8665835Y6401343D01*
G01X8676352Y6382855D01*
G01X8689948Y6366497D01*
G01X8706202Y6352777D01*
G01X8724611Y6342120D01*
G01X8692105Y6309614D01*
G01X7632700Y6309614D01*
G01X7620144Y6307961D01*
G01X7608443Y6303114D01*
G01X7598395Y6295405D01*
G01X7471395Y6168405D01*
G01X7463686Y6158357D01*
G01X7458839Y6146656D01*
G01X7457186Y6134100D01*
G01X7457186Y5839714D01*
G01X4102744Y5839714D01*
G01X4196216Y5933186D01*
G01X6019800Y5933186D01*
G01X6035615Y5934898D01*
G01X6050698Y5939954D01*
G01X6064350Y5948121D01*
G01X6075938Y5959019D01*
G01X6084926Y5972145D01*
G01X6090897Y5986889D01*
G01X6093575Y6002570D01*
G01X6092836Y6018461D01*
G01X6088713Y6033825D01*
G01X6081399Y6047952D01*
G01X6071231Y6060186D01*
G01X7302500Y6060186D01*
G01X7316920Y6061606D01*
G01X7330786Y6065812D01*
G01X7343564Y6072643D01*
G01X7354765Y6081835D01*
G01X7638892Y6365962D01*
G01X7640800Y6355048D01*
G01X7645953Y6345240D01*
G01X7653856Y6337477D01*
G01X7663755Y6332500D01*
G01X7674700Y6330786D01*
G01X7844700Y6330786D01*
G01X7855767Y6332539D01*
G01X7865751Y6337626D01*
G01X7873674Y6345549D01*
G01X7878761Y6355533D01*
G01X7880514Y6366600D01*
G01X7880514Y6451600D01*
G01X8146886Y6451600D01*
G01X8148722Y6430621D01*
G01X8154172Y6410279D01*
G01X8163072Y6391193D01*
G01X8175151Y6373942D01*
G01X8190042Y6359051D01*
G01X8207293Y6346972D01*
G01X8226379Y6338072D01*
G01X8246721Y6332622D01*
G01X8267700Y6330786D01*
G01X8288679Y6332622D01*
G01X8309021Y6338072D01*
G01X8328107Y6346972D01*
G01X8345358Y6359051D01*
G01X8360249Y6373942D01*
G01X8372328Y6391193D01*
G01X8381228Y6410279D01*
G01X8386678Y6430621D01*
G01X8388514Y6451600D01*
G01X8400886Y6451600D01*
G01X8402722Y6430621D01*
G01X8408172Y6410279D01*
G01X8417072Y6391193D01*
G01X8429151Y6373942D01*
G01X8444042Y6359051D01*
G01X8461293Y6346972D01*
G01X8480379Y6338072D01*
G01X8500721Y6332622D01*
G01X8521700Y6330786D01*
G01X8542679Y6332622D01*
G01X8563021Y6338072D01*
G01X8582107Y6346972D01*
G01X8599358Y6359051D01*
G01X8614249Y6373942D01*
G01X8626328Y6391193D01*
G01X8635228Y6410279D01*
G01X8640678Y6430621D01*
G01X8642514Y6451600D01*
G01X8640678Y6472579D01*
G01X8635228Y6492921D01*
G01X8626328Y6512007D01*
G01X8614249Y6529258D01*
G01X8599358Y6544149D01*
G01X8582107Y6556228D01*
G01X8563021Y6565128D01*
G01X8542679Y6570578D01*
G01X8521700Y6572414D01*
G01X8500721Y6570578D01*
G01X8480379Y6565128D01*
G01X8461293Y6556228D01*
G01X8444042Y6544149D01*
G01X8429151Y6529258D01*
G01X8417072Y6512007D01*
G01X8408172Y6492921D01*
G01X8402722Y6472579D01*
G01X8400886Y6451600D01*
G01X8400886Y6451600D01*
G01X8388514Y6451600D01*
G01X8386678Y6472579D01*
G01X8381228Y6492921D01*
G01X8372328Y6512007D01*
G01X8360249Y6529258D01*
G01X8345358Y6544149D01*
G01X8328107Y6556228D01*
G01X8309021Y6565128D01*
G01X8288679Y6570578D01*
G01X8267700Y6572414D01*
G01X8246721Y6570578D01*
G01X8226379Y6565128D01*
G01X8207293Y6556228D01*
G01X8190042Y6544149D01*
G01X8175151Y6529258D01*
G01X8163072Y6512007D01*
G01X8154172Y6492921D01*
G01X8148722Y6472579D01*
G01X8146886Y6451600D01*
G01X8146886Y6451600D01*
G01X7880514Y6451600D01*
G01X7880514Y6536600D01*
G01X7878761Y6547667D01*
G01X7873674Y6557651D01*
G01X7865751Y6565574D01*
G01X7855767Y6570661D01*
G01X7844700Y6572414D01*
G01X7674700Y6572414D01*
G01X7663633Y6570661D01*
G01X7653649Y6565574D01*
G01X7645726Y6557651D01*
G01X7640639Y6547667D01*
G01X7638886Y6536600D01*
G01X7638886Y6525514D01*
G01X7620000Y6525514D01*
G01X7605580Y6524094D01*
G01X7591714Y6519888D01*
G01X7578936Y6513057D01*
G01X7567735Y6503865D01*
G01X7271884Y6208014D01*
G01X5689581Y6208014D01*
G01X5689581Y6734186D01*
G01X10674995Y6734186D01*
G01X10685921Y6734144D01*
G01X10696591Y6734017D01*
G01X10707163Y6733807D01*
G01X10717622Y6733514D01*
G01X10727972Y6733138D01*
G01X10738209Y6732679D01*
G01X10748349Y6732136D01*
G01X10758374Y6731512D01*
G01X10768290Y6730804D01*
G01X10778091Y6730015D01*
G01X10787797Y6729143D01*
G01X10797386Y6728189D01*
G01X10806867Y6727153D01*
G01X10816239Y6726035D01*
G01X10825502Y6724836D01*
G01X10834649Y6723557D01*
G01X10843701Y6722195D01*
G01X10852635Y6720753D01*
G01X10861462Y6719231D01*
G01X10870171Y6717630D01*
G01X10878786Y6715946D01*
G01X10887283Y6714183D01*
G01X10895671Y6712341D01*
G01X10903951Y6710420D01*
G01X10911914Y6708470D01*
G01X10919965Y6706396D01*
G01X10927921Y6704240D01*
G01X10935761Y6702008D01*
G01X10943491Y6699699D01*
G01X10951104Y6697315D01*
G01X10958617Y6694850D01*
G01X10966030Y6692307D01*
G01X10973318Y6689693D01*
G01X10980514Y6686996D01*
G01X10987593Y6684227D01*
G01X10994565Y6681382D01*
G01X11001422Y6678465D01*
G01X11008188Y6675465D01*
G01X11014830Y6672399D01*
G01X11021383Y6669250D01*
G01X11027821Y6666031D01*
G01X11034154Y6662738D01*
G01X11040372Y6659375D01*
G01X11046504Y6655929D01*
G01X11052514Y6652419D01*
G01X11058437Y6648826D01*
G01X11064248Y6645164D01*
G01X11069956Y6641430D01*
G01X11075562Y6637621D01*
G01X11081058Y6633746D01*
G01X11086470Y6629785D01*
G01X11091772Y6625757D01*
G01X11096967Y6621662D01*
G01X11102080Y6617479D01*
G01X11107084Y6613230D01*
G01X11111991Y6608907D01*
G01X11116801Y6604510D01*
G01X11121506Y6600045D01*
G01X11126131Y6595490D01*
G01X11130644Y6590876D01*
G01X11135078Y6586170D01*
G01X11139410Y6581396D01*
G01X11143639Y6576553D01*
G01X11147792Y6571616D01*
G01X11151835Y6566619D01*
G01X11155801Y6561525D01*
G01X11159667Y6556363D01*
G01X11163435Y6551130D01*
G01X11167125Y6545797D01*
G01X11170716Y6540394D01*
G01X11174217Y6534909D01*
G01X11177622Y6529351D01*
G01X11180947Y6523691D01*
G01X11184171Y6517968D01*
G01X11187315Y6512141D01*
G01X11190363Y6506239D01*
G01X11193317Y6500262D01*
G01X11196185Y6494189D01*
G01X11198963Y6488029D01*
G01X11201654Y6481773D01*
G01X11204246Y6475449D01*
G01X11206756Y6469016D01*
G01X11209171Y6462505D01*
G01X11211494Y6455905D01*
G01X11213724Y6449225D01*
G01X11215868Y6442436D01*
G01X11217917Y6435566D01*
G01X11219871Y6428615D01*
G01X11221738Y6421553D01*
G01X11223509Y6414410D01*
G01X11225188Y6407175D01*
G01X11226772Y6399857D01*
G01X11228265Y6392429D01*
G01X11229663Y6384918D01*
G01X11230965Y6377322D01*
G01X11232174Y6369625D01*
G01X11233289Y6361827D01*
G01X11234307Y6353952D01*
G01X11235231Y6345968D01*
G01X11236058Y6337899D01*
G01X11236789Y6329737D01*
G01X11237422Y6321490D01*
G01X11237960Y6313141D01*
G01X11238412Y6304485D01*
G01X11238752Y6295961D01*
G01X11238995Y6287330D01*
G01X11239140Y6278611D01*
G01X11239186Y6269909D01*
G01X11239186Y6219007D01*
G01X11237696Y6190988D01*
G01X11233243Y6163286D01*
G01X11225877Y6136212D01*
G01X11215681Y6110072D01*
G01X11202771Y6085161D01*
G01X11187291Y6061759D01*
G01X10855428Y5613730D01*
G01X10851460Y5608304D01*
G01X10851213Y5607961D01*
G01X10847309Y5602483D01*
G01X10847063Y5602134D01*
G01X10843259Y5596655D01*
G01X10843017Y5596301D01*
G01X10839276Y5590768D01*
G01X10839036Y5590408D01*
G01X10835396Y5584874D01*
G01X10835159Y5584510D01*
G01X10831583Y5578923D01*
G01X10831348Y5578551D01*
G01X10827871Y5572963D01*
G01X10827642Y5572589D01*
G01X10824238Y5566960D01*
G01X10824010Y5566578D01*
G01X10820680Y5560908D01*
G01X10820457Y5560523D01*
G01X10817226Y5554855D01*
G01X10817006Y5554463D01*
G01X10813840Y5548739D01*
G01X10813624Y5548342D01*
G01X10810557Y5542620D01*
G01X10810346Y5542221D01*
G01X10807345Y5536442D01*
G01X10807137Y5536036D01*
G01X10804225Y5530245D01*
G01X10804023Y5529836D01*
G01X10801201Y5524032D01*
G01X10801003Y5523619D01*
G01X10798248Y5517758D01*
G01X10798056Y5517342D01*
G01X10795390Y5511469D01*
G01X10795202Y5511047D01*
G01X10792618Y5505147D01*
G01X10792436Y5504723D01*
G01X10789941Y5498812D01*
G01X10789763Y5498384D01*
G01X10787337Y5492414D01*
G01X10787166Y5491984D01*
G01X10784834Y5486018D01*
G01X10784667Y5485583D01*
G01X10782406Y5479559D01*
G01X10782246Y5479123D01*
G01X10780078Y5473104D01*
G01X10779923Y5472666D01*
G01X10777826Y5466587D01*
G01X10777676Y5466145D01*
G01X10775672Y5460071D01*
G01X10775529Y5459629D01*
G01X10773602Y5453512D01*
G01X10773465Y5453068D01*
G01X10771614Y5446908D01*
G01X10771483Y5446461D01*
G01X10769724Y5440306D01*
G01X10769600Y5439859D01*
G01X10767914Y5433644D01*
G01X10767795Y5433196D01*
G01X10766200Y5426988D01*
G01X10766088Y5426539D01*
G01X10764566Y5420270D01*
G01X10764460Y5419820D01*
G01X10763028Y5413557D01*
G01X10762929Y5413109D01*
G01X10761572Y5406786D01*
G01X10761479Y5406336D01*
G01X10760210Y5400020D01*
G01X10760123Y5399569D01*
G01X10758931Y5393192D01*
G01X10758850Y5392744D01*
G01X10757745Y5386373D01*
G01X10757671Y5385926D01*
G01X10756643Y5379496D01*
G01X10756574Y5379047D01*
G01X10755633Y5372623D01*
G01X10755571Y5372177D01*
G01X10754708Y5365692D01*
G01X10754651Y5365248D01*
G01X10753874Y5358769D01*
G01X10753824Y5358326D01*
G01X10753125Y5351788D01*
G01X10753080Y5351346D01*
G01X10752467Y5344813D01*
G01X10752429Y5344375D01*
G01X10751894Y5337784D01*
G01X10751862Y5337347D01*
G01X10751412Y5330760D01*
G01X10751385Y5330325D01*
G01X10751015Y5323679D01*
G01X10750993Y5323247D01*
G01X10750707Y5316607D01*
G01X10750691Y5316179D01*
G01X10750486Y5309480D01*
G01X10750475Y5309053D01*
G01X10750353Y5302358D01*
G01X10750347Y5301936D01*
G01X10750306Y5294981D01*
G01X10750306Y1656212D01*
G01X10750306Y1424801D01*
G01X10750347Y1418064D01*
G01X10750353Y1417642D01*
G01X10750475Y1410947D01*
G01X10750486Y1410520D01*
G01X10750691Y1403821D01*
G01X10750707Y1403393D01*
G01X10750994Y1396736D01*
G01X10751016Y1396305D01*
G01X10751385Y1389675D01*
G01X10751412Y1389240D01*
G01X10751863Y1382637D01*
G01X10751896Y1382200D01*
G01X10752429Y1375624D01*
G01X10752467Y1375187D01*
G01X10753082Y1368638D01*
G01X10753127Y1368196D01*
G01X10753824Y1361674D01*
G01X10753874Y1361231D01*
G01X10754653Y1354736D01*
G01X10754710Y1354291D01*
G01X10755571Y1347823D01*
G01X10755633Y1347377D01*
G01X10756577Y1340936D01*
G01X10756645Y1340488D01*
G01X10757671Y1334074D01*
G01X10757745Y1333627D01*
G01X10758853Y1327240D01*
G01X10758934Y1326791D01*
G01X10760123Y1320431D01*
G01X10760210Y1319980D01*
G01X10761482Y1313647D01*
G01X10761575Y1313197D01*
G01X10762929Y1306891D01*
G01X10763028Y1306443D01*
G01X10764464Y1300164D01*
G01X10764570Y1299713D01*
G01X10766088Y1293461D01*
G01X10766200Y1293012D01*
G01X10767800Y1286787D01*
G01X10767918Y1286339D01*
G01X10769600Y1280141D01*
G01X10769724Y1279694D01*
G01X10771488Y1273523D01*
G01X10771619Y1273076D01*
G01X10773465Y1266932D01*
G01X10773602Y1266488D01*
G01X10775529Y1260371D01*
G01X10775672Y1259929D01*
G01X10777682Y1253839D01*
G01X10777831Y1253397D01*
G01X10779923Y1247334D01*
G01X10780078Y1246896D01*
G01X10782252Y1240860D01*
G01X10782412Y1240425D01*
G01X10784668Y1234416D01*
G01X10784834Y1233981D01*
G01X10787172Y1228000D01*
G01X10787344Y1227570D01*
G01X10789764Y1221616D01*
G01X10789941Y1221188D01*
G01X10792443Y1215261D01*
G01X10792625Y1214837D01*
G01X10795209Y1208937D01*
G01X10795397Y1208515D01*
G01X10798056Y1202658D01*
G01X10798248Y1202243D01*
G01X10801003Y1196381D01*
G01X10801201Y1195968D01*
G01X10804023Y1190164D01*
G01X10804226Y1189755D01*
G01X10807145Y1183948D01*
G01X10807352Y1183543D01*
G01X10810346Y1177779D01*
G01X10810557Y1177380D01*
G01X10813633Y1171643D01*
G01X10813848Y1171246D01*
G01X10817006Y1165536D01*
G01X10817226Y1165146D01*
G01X10820466Y1159463D01*
G01X10820689Y1159077D01*
G01X10824011Y1153421D01*
G01X10824238Y1153040D01*
G01X10827641Y1147412D01*
G01X10827873Y1147035D01*
G01X10831358Y1141434D01*
G01X10831592Y1141065D01*
G01X10835159Y1135491D01*
G01X10835396Y1135126D01*
G01X10839045Y1129579D01*
G01X10839286Y1129219D01*
G01X10843017Y1123699D01*
G01X10843259Y1123345D01*
G01X10847072Y1117853D01*
G01X10847318Y1117504D01*
G01X10851213Y1112038D01*
G01X10851461Y1111696D01*
G01X10855558Y1106095D01*
G01X11187291Y658241D01*
G01X11202771Y634840D01*
G01X11215681Y609929D01*
G01X11225877Y583789D01*
G01X11233243Y556715D01*
G01X11237696Y529012D01*
G01X11239186Y500994D01*
G01X11239186Y450000D01*
G01X11239136Y441080D01*
G01X11238989Y432419D01*
G01X11238746Y423879D01*
G01X11238407Y415416D01*
G01X11237971Y407028D01*
G01X11237455Y398976D01*
G01X11236832Y390790D01*
G01X11236113Y382681D01*
G01X11235303Y374695D01*
G01X11234394Y366768D01*
G01X11233396Y358965D01*
G01X11232300Y351220D01*
G01X11231116Y343600D01*
G01X11229836Y336055D01*
G01X11228460Y328582D01*
G01X11226998Y321235D01*
G01X11225442Y313962D01*
G01X11223789Y306761D01*
G01X11222054Y299686D01*
G01X11220217Y292664D01*
G01X11218301Y285769D01*
G01X11216283Y278925D01*
G01X11214186Y272208D01*
G01X11211987Y265541D01*
G01X11209712Y259001D01*
G01X11207333Y252510D01*
G01X11204880Y246145D01*
G01X11202322Y239827D01*
G01X11199691Y233635D01*
G01X11196954Y227489D01*
G01X11194146Y221467D01*
G01X11191232Y215490D01*
G01X11188248Y209638D01*
G01X11185154Y203828D01*
G01X11181994Y198141D01*
G01X11178722Y192496D01*
G01X11175386Y186973D01*
G01X11171936Y181491D01*
G01X11168408Y176109D01*
G01X11164792Y170807D01*
G01X11161085Y165582D01*
G01X11157302Y160455D01*
G01X11153401Y155369D01*
G01X11149424Y150378D01*
G01X11145356Y145464D01*
G01X11141195Y140626D01*
G01X11136958Y135880D01*
G01X11132597Y131175D01*
G01X11128160Y126563D01*
G01X11123628Y122024D01*
G01X11119019Y117574D01*
G01X11114282Y113167D01*
G01X11109466Y108848D01*
G01X11104555Y104603D01*
G01X11099564Y100444D01*
G01X11094441Y96328D01*
G01X11089238Y92300D01*
G01X11083955Y88356D01*
G01X11078536Y84459D01*
G01X11073055Y80658D01*
G01X11067437Y76906D01*
G01X11061738Y73237D01*
G01X11055936Y69641D01*
G01X11050033Y66116D01*
G01X11044046Y62674D01*
G01X11037920Y59284D01*
G01X11031727Y55985D01*
G01X11025394Y52741D01*
G01X11018994Y49587D01*
G01X11012454Y46490D01*
G01X11005844Y43482D01*
G01X10999095Y40532D01*
G01X10992275Y37671D01*
G01X10985315Y34869D01*
G01X10978283Y32156D01*
G01X10971112Y29504D01*
G01X10963867Y26939D01*
G01X10956484Y24438D01*
G01X10949010Y22019D01*
G01X10941429Y19675D01*
G01X10933757Y17411D01*
G01X10925947Y15215D01*
G01X10918061Y13104D01*
G01X10910037Y11062D01*
G01X10901736Y9056D01*
G01X10893499Y7172D01*
G01X10885187Y5373D01*
G01X10876737Y3645D01*
G01X10868209Y2001D01*
G01X10859559Y433D01*
G01X10850789Y-1059D01*
G01X10841924Y-2470D01*
G01X10832965Y-3800D01*
G01X10823874Y-5054D01*
G01X10814700Y-6225D01*
G01X10805395Y-7320D01*
G01X10796006Y-8331D01*
G01X10786487Y-9265D01*
G01X10776884Y-10117D01*
G01X10767163Y-10889D01*
G01X10757323Y-11581D01*
G01X10747400Y-12191D01*
G01X10737347Y-12721D01*
G01X10727209Y-13168D01*
G01X10716944Y-13536D01*
G01X10706583Y-13821D01*
G01X10696126Y-14024D01*
G01X10685542Y-14146D01*
G01X10680417Y-14165D01*
G01X9029005Y-14165D01*
G01X8913316Y101524D01*
G01X8905899Y107216D01*
G01X8897261Y110794D01*
G01X8887992Y112014D01*
G01X1485900Y112014D01*
G01X1476631Y110794D01*
G01X1467993Y107216D01*
G01X1460576Y101524D01*
G01X1344908Y-14143D01*
G01X-130507Y-14143D01*
G01X-146738Y-14016D01*
G01X-157153Y-13807D01*
G01X-167623Y-13514D01*
G01X-177962Y-13138D01*
G01X-188215Y-12678D01*
G01X-198338Y-12137D01*
G01X-208374Y-11511D01*
G01X-218279Y-10805D01*
G01X-228098Y-10014D01*
G01X-237797Y-9142D01*
G01X-247374Y-8190D01*
G01X-256868Y-7152D01*
G01X-266227Y-6037D01*
G01X-275503Y-4836D01*
G01X-284643Y-3558D01*
G01X-293688Y-2197D01*
G01X-302636Y-753D01*
G01X-311449Y767D01*
G01X-320178Y2372D01*
G01X-328786Y4055D01*
G01X-337268Y5814D01*
G01X-345673Y7660D01*
G01X-353951Y9581D01*
G01X-361900Y11527D01*
G01X-369973Y13606D01*
G01X-377906Y15756D01*
G01X-385761Y17992D01*
G01X-393476Y20297D01*
G01X-401097Y22683D01*
G01X-408626Y25153D01*
G01X-416014Y27688D01*
G01X-423310Y30305D01*
G01X-430497Y32998D01*
G01X-437594Y35774D01*
G01X-444549Y38612D01*
G01X-451431Y41539D01*
G01X-458171Y44527D01*
G01X-464839Y47605D01*
G01X-471366Y50741D01*
G01X-477822Y53970D01*
G01X-484137Y57253D01*
G01X-490382Y60630D01*
G01X-496486Y64061D01*
G01X-502523Y67586D01*
G01X-508437Y71175D01*
G01X-514230Y74825D01*
G01X-519957Y78571D01*
G01X-525544Y82367D01*
G01X-531068Y86261D01*
G01X-536452Y90202D01*
G01X-541773Y94244D01*
G01X-546959Y98332D01*
G01X-552063Y102507D01*
G01X-557068Y106756D01*
G01X-561992Y111094D01*
G01X-566785Y115476D01*
G01X-571515Y119963D01*
G01X-576115Y124494D01*
G01X-580637Y129116D01*
G01X-585079Y133831D01*
G01X-589395Y138588D01*
G01X-593648Y143456D01*
G01X-597777Y148367D01*
G01X-601829Y153372D01*
G01X-605802Y158475D01*
G01X-609654Y163619D01*
G01X-613443Y168881D01*
G01X-617112Y174184D01*
G01X-620717Y179607D01*
G01X-624206Y185073D01*
G01X-627628Y190660D01*
G01X-630936Y196290D01*
G01X-634166Y202023D01*
G01X-637316Y207860D01*
G01X-640354Y213742D01*
G01X-643313Y219729D01*
G01X-646190Y225821D01*
G01X-648967Y231981D01*
G01X-651646Y238208D01*
G01X-654251Y244562D01*
G01X-656749Y250965D01*
G01X-659171Y257496D01*
G01X-661488Y264076D01*
G01X-663721Y270766D01*
G01X-665868Y277564D01*
G01X-667911Y284416D01*
G01X-669874Y291396D01*
G01X-671733Y298428D01*
G01X-673510Y305591D01*
G01X-675185Y312808D01*
G01X-676770Y320135D01*
G01X-678266Y327572D01*
G01X-679660Y335066D01*
G01X-680964Y342670D01*
G01X-682176Y350384D01*
G01X-683287Y358157D01*
G01X-684308Y366057D01*
G01X-685229Y374016D01*
G01X-686058Y382101D01*
G01X-686788Y390247D01*
G01X-687422Y398503D01*
G01X-687961Y406867D01*
G01X-688411Y415500D01*
G01X-688752Y424032D01*
G01X-688995Y432671D01*
G01X-689140Y441375D01*
G01X-689186Y450092D01*
G01X-689186Y474557D01*
G01X-664854Y474557D01*
G01X-662902Y439802D01*
G01X-657071Y405483D01*
G01X-647435Y372034D01*
G01X-634114Y339874D01*
G01X-617275Y309407D01*
G01X-597132Y281017D01*
G01X-573936Y255061D01*
G01X-547980Y231866D01*
G01X-519590Y211722D01*
G01X-489124Y194884D01*
G01X-456963Y181563D01*
G01X-423514Y171926D01*
G01X-389196Y166095D01*
G01X-354440Y164143D01*
G01X-319685Y166095D01*
G01X-285367Y171926D01*
G01X-251917Y181563D01*
G01X-219757Y194884D01*
G01X-189290Y211722D01*
G01X-160900Y231866D01*
G01X-134944Y255061D01*
G01X-111749Y281017D01*
G01X-91605Y309407D01*
G01X-74767Y339874D01*
G01X-61446Y372034D01*
G01X-51809Y405483D01*
G01X-45978Y439802D01*
G01X-44026Y474557D01*
G01X10593366Y474557D01*
G01X10595317Y439802D01*
G01X10601148Y405483D01*
G01X10610785Y372034D01*
G01X10624106Y339874D01*
G01X10640945Y309407D01*
G01X10661088Y281017D01*
G01X10684284Y255061D01*
G01X10710240Y231866D01*
G01X10738629Y211722D01*
G01X10769096Y194884D01*
G01X10801256Y181563D01*
G01X10834706Y171926D01*
G01X10869024Y166095D01*
G01X10903780Y164143D01*
G01X10938535Y166095D01*
G01X10972853Y171926D01*
G01X11006303Y181563D01*
G01X11038463Y194884D01*
G01X11068930Y211722D01*
G01X11097319Y231866D01*
G01X11123275Y255061D01*
G01X11146471Y281017D01*
G01X11166615Y309407D01*
G01X11183453Y339874D01*
G01X11196774Y372034D01*
G01X11206411Y405483D01*
G01X11212242Y439802D01*
G01X11214193Y474557D01*
G01X11212242Y509312D01*
G01X11206411Y543631D01*
G01X11196774Y577080D01*
G01X11183453Y609241D01*
G01X11166615Y639707D01*
G01X11146471Y668097D01*
G01X11123275Y694053D01*
G01X11097319Y717248D01*
G01X11068930Y737392D01*
G01X11038463Y754230D01*
G01X11006303Y767552D01*
G01X10972853Y777188D01*
G01X10938535Y783019D01*
G01X10903780Y784971D01*
G01X10869024Y783019D01*
G01X10834706Y777188D01*
G01X10801256Y767552D01*
G01X10769096Y754230D01*
G01X10738629Y737392D01*
G01X10710240Y717248D01*
G01X10684284Y694053D01*
G01X10661088Y668097D01*
G01X10640945Y639707D01*
G01X10624106Y609241D01*
G01X10610785Y577080D01*
G01X10601148Y543631D01*
G01X10595317Y509312D01*
G01X10593366Y474557D01*
G01X10593366Y474557D01*
G01X-44026Y474557D01*
G01X-44026Y474557D01*
G01X-45978Y509312D01*
G01X-51809Y543631D01*
G01X-61446Y577080D01*
G01X-74767Y609241D01*
G01X-91605Y639707D01*
G01X-111749Y668097D01*
G01X-134944Y694053D01*
G01X-160900Y717248D01*
G01X-189290Y737392D01*
G01X-219757Y754230D01*
G01X-224267Y756099D01*
G01X8061949Y756099D01*
G01X8065078Y741064D01*
G01X8071580Y727152D01*
G01X8081109Y715109D01*
G01X8093152Y705580D01*
G01X8107064Y699078D01*
G01X8122099Y695949D01*
G01X8137450Y696363D01*
G01X8152294Y700296D01*
G01X8165836Y707539D01*
G01X8177348Y717702D01*
G01X8186214Y730241D01*
G01X8191959Y744482D01*
G01X8194273Y759664D01*
G01X8276605Y841995D01*
G01X8284314Y852043D01*
G01X8289161Y863744D01*
G01X8290814Y876300D01*
G01X8290814Y1377190D01*
G01X8299912Y1389561D01*
G01X8305921Y1403694D01*
G01X8308518Y1418829D01*
G01X8307564Y1434156D01*
G01X8303110Y1448853D01*
G01X8295394Y1462131D01*
G01X8284832Y1473278D01*
G01X8271989Y1481697D01*
G01X8257553Y1486936D01*
G01X8242300Y1488714D01*
G01X8242300Y1488714D01*
G01X8227047Y1486936D01*
G01X8212611Y1481697D01*
G01X8199768Y1473278D01*
G01X8189206Y1462131D01*
G01X8181490Y1448853D01*
G01X8177036Y1434156D01*
G01X8176082Y1418829D01*
G01X8178679Y1403694D01*
G01X8184688Y1389561D01*
G01X8193786Y1377190D01*
G01X8193786Y896395D01*
G01X8125664Y828273D01*
G01X8110482Y825959D01*
G01X8096241Y820214D01*
G01X8083702Y811348D01*
G01X8073539Y799836D01*
G01X8066296Y786294D01*
G01X8062363Y771450D01*
G01X8061949Y756099D01*
G01X-224267Y756099D01*
G01X-251917Y767552D01*
G01X-285367Y777188D01*
G01X-319685Y783019D01*
G01X-354440Y784971D01*
G01X-389196Y783019D01*
G01X-423514Y777188D01*
G01X-456963Y767552D01*
G01X-489124Y754230D01*
G01X-519590Y737392D01*
G01X-547980Y717248D01*
G01X-573936Y694053D01*
G01X-597132Y668097D01*
G01X-617275Y639707D01*
G01X-634114Y609241D01*
G01X-647435Y577080D01*
G01X-657071Y543631D01*
G01X-662902Y509312D01*
G01X-664854Y474557D01*
G01X-664854Y474557D01*
G01X-689186Y474557D01*
G01X-689186Y500994D01*
G01X-687696Y529012D01*
G01X-683243Y556715D01*
G01X-675877Y583789D01*
G01X-665681Y609929D01*
G01X-652771Y634840D01*
G01X-637291Y658241D01*
G01X-305428Y1106271D01*
G01X-301451Y1111709D01*
G01X-301204Y1112052D01*
G01X-297309Y1117517D01*
G01X-297063Y1117867D01*
G01X-293250Y1123359D01*
G01X-293008Y1123712D01*
G01X-289286Y1129219D01*
G01X-289045Y1129579D01*
G01X-285387Y1135140D01*
G01X-285151Y1135504D01*
G01X-281583Y1141078D01*
G01X-281349Y1141449D01*
G01X-277863Y1147051D01*
G01X-277633Y1147426D01*
G01X-274238Y1153041D01*
G01X-274011Y1153421D01*
G01X-270689Y1159077D01*
G01X-270466Y1159463D01*
G01X-267218Y1165161D01*
G01X-266998Y1165552D01*
G01X-263840Y1171262D01*
G01X-263625Y1171657D01*
G01X-260549Y1177395D01*
G01X-260338Y1177796D01*
G01X-257344Y1183560D01*
G01X-257138Y1183964D01*
G01X-254226Y1189756D01*
G01X-254023Y1190165D01*
G01X-251194Y1195983D01*
G01X-250996Y1196396D01*
G01X-248248Y1202242D01*
G01X-248055Y1202659D01*
G01X-245390Y1208532D01*
G01X-245202Y1208953D01*
G01X-242618Y1214854D01*
G01X-242436Y1215278D01*
G01X-239934Y1221205D01*
G01X-239757Y1221633D01*
G01X-237337Y1227587D01*
G01X-237166Y1228017D01*
G01X-234828Y1233999D01*
G01X-234662Y1234433D01*
G01X-232412Y1240426D01*
G01X-232252Y1240861D01*
G01X-230072Y1246913D01*
G01X-229917Y1247351D01*
G01X-227826Y1253414D01*
G01X-227676Y1253856D01*
G01X-225667Y1259946D01*
G01X-225524Y1260389D01*
G01X-223597Y1266506D01*
G01X-223460Y1266948D01*
G01X-221619Y1273076D01*
G01X-221488Y1273523D01*
G01X-219720Y1279711D01*
G01X-219595Y1280158D01*
G01X-217914Y1286356D01*
G01X-217795Y1286804D01*
G01X-216196Y1293029D01*
G01X-216084Y1293479D01*
G01X-214566Y1299731D01*
G01X-214460Y1300181D01*
G01X-213025Y1306460D01*
G01X-212926Y1306909D01*
G01X-211572Y1313215D01*
G01X-211479Y1313664D01*
G01X-210207Y1319998D01*
G01X-210120Y1320448D01*
G01X-208931Y1326808D01*
G01X-208850Y1327257D01*
G01X-207743Y1333644D01*
G01X-207668Y1334091D01*
G01X-206643Y1340505D01*
G01X-206574Y1340954D01*
G01X-205631Y1347394D01*
G01X-205569Y1347840D01*
G01X-204708Y1354308D01*
G01X-204651Y1354753D01*
G01X-203872Y1361248D01*
G01X-203822Y1361691D01*
G01X-203125Y1368213D01*
G01X-203081Y1368655D01*
G01X-202466Y1375204D01*
G01X-202428Y1375642D01*
G01X-201895Y1382217D01*
G01X-201862Y1382654D01*
G01X-201411Y1389257D01*
G01X-201384Y1389692D01*
G01X-201015Y1396322D01*
G01X-200994Y1396753D01*
G01X-200707Y1403410D01*
G01X-200691Y1403837D01*
G01X-200486Y1410521D01*
G01X-200476Y1410948D01*
G01X-200353Y1417658D01*
G01X-200347Y1418080D01*
G01X-200306Y1425012D01*
G01X-200306Y1676316D01*
G01X-200306Y1884989D01*
G01X80785Y1884989D01*
G01X82660Y1867147D01*
G01X88204Y1850085D01*
G01X97174Y1834549D01*
G01X109178Y1821217D01*
G01X123692Y1810672D01*
G01X140081Y1803375D01*
G01X157629Y1799645D01*
G01X175569Y1799645D01*
G01X193117Y1803375D01*
G01X209506Y1810672D01*
G01X224019Y1821217D01*
G01X236024Y1834549D01*
G01X244993Y1850085D01*
G01X250537Y1867147D01*
G01X252413Y1884989D01*
G01X250537Y1902831D01*
G01X244993Y1919893D01*
G01X236024Y1935429D01*
G01X224019Y1948761D01*
G01X209506Y1959306D01*
G01X193117Y1966603D01*
G01X175569Y1970333D01*
G01X157629Y1970333D01*
G01X140081Y1966603D01*
G01X123692Y1959306D01*
G01X109178Y1948761D01*
G01X97174Y1935429D01*
G01X88204Y1919893D01*
G01X82660Y1902831D01*
G01X80785Y1884989D01*
G01X80785Y1884989D01*
G01X-200306Y1884989D01*
G01X-200306Y2684988D01*
G01X80785Y2684988D01*
G01X82660Y2667146D01*
G01X88204Y2650084D01*
G01X97174Y2634547D01*
G01X109178Y2621215D01*
G01X123692Y2610671D01*
G01X140081Y2603374D01*
G01X157629Y2599644D01*
G01X175569Y2599644D01*
G01X193117Y2603374D01*
G01X209506Y2610671D01*
G01X224019Y2621215D01*
G01X236024Y2634547D01*
G01X244993Y2650084D01*
G01X250537Y2667146D01*
G01X252413Y2684988D01*
G01X250537Y2702829D01*
G01X244993Y2719891D01*
G01X236024Y2735428D01*
G01X224019Y2748760D01*
G01X209506Y2759305D01*
G01X193117Y2766601D01*
G01X175569Y2770331D01*
G01X157629Y2770331D01*
G01X140081Y2766601D01*
G01X123692Y2759305D01*
G01X109178Y2748760D01*
G01X97174Y2735428D01*
G01X88204Y2719891D01*
G01X82660Y2702829D01*
G01X80785Y2684988D01*
G01X80785Y2684988D01*
G01X-200306Y2684988D01*
G01X-200306Y4035380D01*
G01X486307Y4035380D01*
G01X488244Y4015712D01*
G01X493981Y3996800D01*
G01X503297Y3979370D01*
G01X515835Y3964093D01*
G01X531112Y3951555D01*
G01X548541Y3942239D01*
G01X567454Y3936502D01*
G01X587122Y3934565D01*
G01X606790Y3936502D01*
G01X625702Y3942239D01*
G01X643132Y3951555D01*
G01X658409Y3964093D01*
G01X670946Y3979370D01*
G01X680263Y3996800D01*
G01X686000Y4015712D01*
G01X687937Y4035380D01*
G01X686000Y4055048D01*
G01X680263Y4073960D01*
G01X670946Y4091390D01*
G01X658409Y4106667D01*
G01X643132Y4119205D01*
G01X625702Y4128521D01*
G01X606790Y4134258D01*
G01X587122Y4136195D01*
G01X567454Y4134258D01*
G01X548541Y4128521D01*
G01X531112Y4119205D01*
G01X515835Y4106667D01*
G01X503297Y4091390D01*
G01X493981Y4073960D01*
G01X488244Y4055048D01*
G01X486307Y4035380D01*
G01X486307Y4035380D01*
G01X-200306Y4035380D01*
G01X-200306Y4525371D01*
G01X486307Y4525371D01*
G01X488244Y4505703D01*
G01X493981Y4486791D01*
G01X503297Y4469362D01*
G01X515835Y4454084D01*
G01X531112Y4441547D01*
G01X548541Y4432230D01*
G01X567454Y4426493D01*
G01X587122Y4424556D01*
G01X606790Y4426493D01*
G01X625702Y4432230D01*
G01X643132Y4441547D01*
G01X658409Y4454084D01*
G01X670946Y4469362D01*
G01X680263Y4486791D01*
G01X686000Y4505703D01*
G01X687937Y4525371D01*
G01X686000Y4545040D01*
G01X680263Y4563952D01*
G01X670946Y4581381D01*
G01X658409Y4596659D01*
G01X643132Y4609196D01*
G01X625702Y4618512D01*
G01X606790Y4624249D01*
G01X587122Y4626187D01*
G01X567454Y4624249D01*
G01X548541Y4618512D01*
G01X531112Y4609196D01*
G01X515835Y4596659D01*
G01X503297Y4581381D01*
G01X493981Y4563952D01*
G01X488244Y4545040D01*
G01X486307Y4525371D01*
G01X486307Y4525371D01*
G01X-200306Y4525371D01*
G01X-200306Y5274877D01*
G01X-200307Y5295198D01*
G01X-200347Y5301920D01*
G01X-200353Y5302343D01*
G01X-200476Y5309069D01*
G01X-200486Y5309496D01*
G01X-200691Y5316163D01*
G01X-200707Y5316591D01*
G01X-200994Y5323263D01*
G01X-201016Y5323695D01*
G01X-201384Y5330308D01*
G01X-201411Y5330744D01*
G01X-201863Y5337363D01*
G01X-201896Y5337800D01*
G01X-202428Y5344359D01*
G01X-202466Y5344797D01*
G01X-203082Y5351362D01*
G01X-203127Y5351804D01*
G01X-203822Y5358310D01*
G01X-203872Y5358753D01*
G01X-204654Y5365264D01*
G01X-204710Y5365708D01*
G01X-205569Y5372160D01*
G01X-205631Y5372606D01*
G01X-206577Y5379064D01*
G01X-206646Y5379512D01*
G01X-207668Y5385910D01*
G01X-207743Y5386357D01*
G01X-208853Y5392760D01*
G01X-208934Y5393209D01*
G01X-210120Y5399553D01*
G01X-210207Y5400003D01*
G01X-211482Y5406353D01*
G01X-211576Y5406803D01*
G01X-212926Y5413092D01*
G01X-213025Y5413540D01*
G01X-214464Y5419836D01*
G01X-214570Y5420287D01*
G01X-216084Y5426522D01*
G01X-216196Y5426971D01*
G01X-217800Y5433213D01*
G01X-217918Y5433661D01*
G01X-219595Y5439842D01*
G01X-219720Y5440290D01*
G01X-221488Y5446477D01*
G01X-221619Y5446925D01*
G01X-223465Y5453069D01*
G01X-223602Y5453512D01*
G01X-225524Y5459612D01*
G01X-225667Y5460055D01*
G01X-227682Y5466161D01*
G01X-227831Y5466603D01*
G01X-229918Y5472650D01*
G01X-230072Y5473088D01*
G01X-232252Y5479139D01*
G01X-232412Y5479575D01*
G01X-234662Y5485567D01*
G01X-234828Y5486002D01*
G01X-237172Y5491999D01*
G01X-237344Y5492429D01*
G01X-239757Y5498368D01*
G01X-239934Y5498796D01*
G01X-242443Y5504739D01*
G01X-242625Y5505163D01*
G01X-245202Y5511047D01*
G01X-245390Y5511468D01*
G01X-248063Y5517357D01*
G01X-248256Y5517775D01*
G01X-250997Y5523605D01*
G01X-251193Y5524016D01*
G01X-254023Y5529835D01*
G01X-254226Y5530245D01*
G01X-257145Y5536052D01*
G01X-257352Y5536456D01*
G01X-260338Y5542205D01*
G01X-260549Y5542606D01*
G01X-263633Y5548358D01*
G01X-263848Y5548753D01*
G01X-266998Y5554449D01*
G01X-267218Y5554840D01*
G01X-270466Y5560537D01*
G01X-270689Y5560923D01*
G01X-274011Y5566579D01*
G01X-274238Y5566960D01*
G01X-277633Y5572574D01*
G01X-277863Y5572949D01*
G01X-281357Y5578564D01*
G01X-281592Y5578936D01*
G01X-285151Y5584497D01*
G01X-285387Y5584861D01*
G01X-289045Y5590421D01*
G01X-289286Y5590781D01*
G01X-293008Y5596288D01*
G01X-293250Y5596642D01*
G01X-297072Y5602147D01*
G01X-297318Y5602496D01*
G01X-301204Y5607949D01*
G01X-301451Y5608291D01*
G01X-305553Y5613899D01*
G01X-461924Y5825006D01*
G01X1814199Y5825006D01*
G01X1816052Y5802652D01*
G01X1821558Y5780907D01*
G01X1830568Y5760366D01*
G01X1842837Y5741588D01*
G01X1858029Y5725085D01*
G01X1875730Y5711307D01*
G01X1895457Y5700631D01*
G01X1916673Y5693348D01*
G01X1938798Y5689656D01*
G01X1961229Y5689656D01*
G01X1983353Y5693348D01*
G01X2004569Y5700631D01*
G01X2024296Y5711307D01*
G01X2041997Y5725085D01*
G01X2057189Y5741588D01*
G01X2069458Y5760366D01*
G01X2078468Y5780907D01*
G01X2083975Y5802652D01*
G01X2085827Y5825006D01*
G01X2085827Y5825006D01*
G01X2085494Y5829022D01*
G01X2314258Y5829022D01*
G01X2315559Y5805829D01*
G01X2320794Y5783197D01*
G01X2329809Y5761788D01*
G01X2342340Y5742229D01*
G01X2358021Y5725091D01*
G01X2376393Y5710876D01*
G01X2396919Y5700000D01*
G01X2376393Y5689124D01*
G01X2358021Y5674909D01*
G01X2342340Y5657771D01*
G01X2329809Y5638212D01*
G01X2320794Y5616803D01*
G01X2315559Y5594171D01*
G01X2314258Y5570978D01*
G01X2316928Y5547903D01*
G01X2323491Y5525620D01*
G01X2333755Y5504782D01*
G01X2347421Y5485997D01*
G01X2364088Y5469816D01*
G01X2383268Y5456712D01*
G01X2404401Y5447068D01*
G01X2426868Y5441167D01*
G01X2450012Y5439180D01*
G01X2450012Y5439180D01*
G01X2473156Y5441167D01*
G01X2495624Y5447068D01*
G01X2516756Y5456712D01*
G01X2535937Y5469816D01*
G01X2552603Y5485997D01*
G01X2566269Y5504782D01*
G01X2576533Y5525620D01*
G01X2583097Y5547903D01*
G01X2585767Y5570978D01*
G01X2584465Y5594171D01*
G01X2579230Y5616803D01*
G01X2570216Y5638212D01*
G01X2557684Y5657771D01*
G01X2542003Y5674909D01*
G01X2523631Y5689124D01*
G01X2503105Y5700000D01*
G01X2523631Y5710876D01*
G01X2542003Y5725091D01*
G01X2557684Y5742229D01*
G01X2570216Y5761788D01*
G01X2579230Y5783197D01*
G01X2584465Y5805829D01*
G01X2585767Y5829022D01*
G01X2583097Y5852097D01*
G01X2576533Y5874380D01*
G01X2566269Y5895218D01*
G01X2552603Y5914003D01*
G01X2535937Y5930184D01*
G01X2516756Y5943288D01*
G01X2495624Y5952932D01*
G01X2473156Y5958833D01*
G01X2450012Y5960820D01*
G01X2426868Y5958833D01*
G01X2404401Y5952932D01*
G01X2383268Y5943288D01*
G01X2364088Y5930184D01*
G01X2347421Y5914003D01*
G01X2333755Y5895218D01*
G01X2323491Y5874380D01*
G01X2316928Y5852097D01*
G01X2314258Y5829022D01*
G01X2085494Y5829022D01*
G01X2083975Y5847360D01*
G01X2078468Y5869105D01*
G01X2069458Y5889646D01*
G01X2057189Y5908425D01*
G01X2041997Y5924928D01*
G01X2024296Y5938705D01*
G01X2004569Y5949381D01*
G01X1983353Y5956664D01*
G01X1961229Y5960356D01*
G01X1938798Y5960356D01*
G01X1916673Y5956664D01*
G01X1895457Y5949381D01*
G01X1875730Y5938705D01*
G01X1858029Y5924928D01*
G01X1842837Y5908425D01*
G01X1830568Y5889646D01*
G01X1821558Y5869105D01*
G01X1816052Y5847360D01*
G01X1814199Y5825006D01*
G01X-461924Y5825006D01*
G01X-637291Y6061759D01*
G01X-652771Y6085161D01*
G01X-665681Y6110072D01*
G01X-675877Y6136212D01*
G01X-683243Y6163286D01*
G01X-687696Y6190988D01*
G01X-689186Y6219007D01*
G01X-689186Y6247977D01*
G01X-664854Y6247977D01*
G01X-662902Y6213222D01*
G01X-657071Y6178903D01*
G01X-647435Y6145454D01*
G01X-634114Y6113294D01*
G01X-617275Y6082827D01*
G01X-597132Y6054437D01*
G01X-573936Y6028481D01*
G01X-547980Y6005286D01*
G01X-519590Y5985142D01*
G01X-489124Y5968304D01*
G01X-456963Y5954983D01*
G01X-423514Y5945346D01*
G01X-389196Y5939515D01*
G01X-354440Y5937563D01*
G01X-319685Y5939515D01*
G01X-285367Y5945346D01*
G01X-251917Y5954983D01*
G01X-219757Y5968304D01*
G01X-189290Y5985142D01*
G01X-160900Y6005286D01*
G01X-134944Y6028481D01*
G01X-111749Y6054437D01*
G01X-91605Y6082827D01*
G01X-74767Y6113294D01*
G01X-61446Y6145454D01*
G01X-51809Y6178903D01*
G01X-45978Y6213222D01*
G01X-44026Y6247977D01*
G01X-45978Y6282732D01*
G01X-51809Y6317051D01*
G01X-61446Y6350500D01*
G01X-74767Y6382661D01*
G01X-91605Y6413127D01*
G01X-111749Y6441517D01*
G01X-134944Y6467473D01*
G01X-160900Y6490668D01*
G01X-189290Y6510812D01*
G01X-219757Y6527650D01*
G01X-251917Y6540972D01*
G01X-285367Y6550608D01*
G01X-319685Y6556439D01*
G01X-354440Y6558391D01*
G01X-389196Y6556439D01*
G01X-423514Y6550608D01*
G01X-456963Y6540972D01*
G01X-489124Y6527650D01*
G01X-519590Y6510812D01*
G01X-547980Y6490668D01*
G01X-573936Y6467473D01*
G01X-597132Y6441517D01*
G01X-617275Y6413127D01*
G01X-634114Y6382661D01*
G01X-647435Y6350500D01*
G01X-657071Y6317051D01*
G01X-662902Y6282732D01*
G01X-664854Y6247977D01*
G01X-664854Y6247977D01*
G01X-689186Y6247977D01*
G01X-689186Y6270000D01*
G01X-689136Y6278934D01*
G01X-688989Y6287581D01*
G01X-688746Y6296136D01*
G01X-688407Y6304591D01*
G01X-687972Y6312964D01*
G01X-687454Y6321040D01*
G01X-686832Y6329218D01*
G01X-686114Y6337319D01*
G01X-685301Y6345321D01*
G01X-684396Y6353224D01*
G01X-683394Y6361052D01*
G01X-682301Y6368779D01*
G01X-681113Y6376417D01*
G01X-679835Y6383954D01*
G01X-678460Y6391418D01*
G01X-676995Y6398782D01*
G01X-675440Y6406047D01*
G01X-673791Y6413230D01*
G01X-672049Y6420332D01*
G01X-670220Y6427327D01*
G01X-668296Y6434250D01*
G01X-666283Y6441074D01*
G01X-664180Y6447811D01*
G01X-661991Y6454449D01*
G01X-659706Y6461018D01*
G01X-657333Y6467490D01*
G01X-654872Y6473875D01*
G01X-652326Y6480163D01*
G01X-649683Y6486385D01*
G01X-646955Y6492511D01*
G01X-644138Y6498552D01*
G01X-641237Y6504499D01*
G01X-638238Y6510383D01*
G01X-635155Y6516171D01*
G01X-631984Y6521878D01*
G01X-628729Y6527493D01*
G01X-625374Y6533047D01*
G01X-621936Y6538509D01*
G01X-618409Y6543891D01*
G01X-614798Y6549184D01*
G01X-611085Y6554418D01*
G01X-607289Y6559564D01*
G01X-603402Y6564631D01*
G01X-599424Y6569622D01*
G01X-595363Y6574527D01*
G01X-591195Y6579374D01*
G01X-586943Y6584137D01*
G01X-582598Y6588824D01*
G01X-578160Y6593437D01*
G01X-573636Y6597968D01*
G01X-569003Y6602442D01*
G01X-564291Y6606825D01*
G01X-559466Y6611153D01*
G01X-554572Y6615384D01*
G01X-549563Y6619557D01*
G01X-544458Y6623658D01*
G01X-539238Y6627700D01*
G01X-533937Y6631657D01*
G01X-528555Y6635529D01*
G01X-523037Y6639354D01*
G01X-517446Y6643089D01*
G01X-511755Y6646752D01*
G01X-505953Y6650349D01*
G01X-500050Y6653874D01*
G01X-494028Y6657337D01*
G01X-487938Y6660707D01*
G01X-481709Y6664025D01*
G01X-475413Y6667250D01*
G01X-468977Y6670421D01*
G01X-462463Y6673506D01*
G01X-455828Y6676526D01*
G01X-449104Y6679464D01*
G01X-442258Y6682337D01*
G01X-435333Y6685124D01*
G01X-428267Y6687851D01*
G01X-421129Y6690490D01*
G01X-413851Y6693067D01*
G01X-406500Y6695557D01*
G01X-399026Y6697977D01*
G01X-391445Y6700321D01*
G01X-383742Y6702594D01*
G01X-375955Y6704783D01*
G01X-368046Y6706900D01*
G01X-360052Y6708935D01*
G01X-351721Y6710947D01*
G01X-343500Y6712828D01*
G01X-335174Y6714630D01*
G01X-326744Y6716354D01*
G01X-318195Y6718002D01*
G01X-309546Y6719570D01*
G01X-300789Y6721059D01*
G01X-291925Y6722470D01*
G01X-282953Y6723802D01*
G01X-273875Y6725054D01*
G01X-264694Y6726226D01*
G01X-255395Y6727320D01*
G01X-245995Y6728333D01*
G01X-236493Y6729265D01*
G01X-226873Y6730118D01*
G01X-217151Y6730890D01*
G01X-207324Y6731581D01*
G01X-197389Y6732192D01*
G01X-187353Y6732721D01*
G01X-177199Y6733169D01*
G01X-166955Y6733536D01*
G01X-156583Y6733821D01*
G01X-146122Y6734025D01*
G01X-135542Y6734146D01*
G01X-125000Y6734186D01*
G37*
G36*
G01X4113335Y6059365D02*
G01X3986335Y5932365D01*
G01X3976735Y5920547D01*
G01X3969760Y5907013D01*
G01X3965706Y5892336D01*
G01X3964745Y5877141D01*
G01X3966919Y5862071D01*
G01X3972134Y5847766D01*
G01X3980169Y5834833D01*
G01X3990684Y5823821D01*
G01X3979425Y5812239D01*
G01X3971300Y5798278D01*
G01X3966791Y5782768D01*
G01X3966166Y5766627D01*
G01X3969462Y5750814D01*
G01X3966559Y5750814D01*
G01X3917268Y5800105D01*
G01X3907221Y5807814D01*
G01X3895520Y5812661D01*
G01X3882964Y5814314D01*
G01X3118610Y5814314D01*
G01X3106120Y5823480D01*
G01X3091843Y5829498D01*
G01X3076560Y5832039D01*
G01X3061105Y5830964D01*
G01X3046320Y5826333D01*
G01X3033014Y5818398D01*
G01X3033014Y5862184D01*
G01X3231016Y6060186D01*
G01X4114169Y6060186D01*
G01X4113335Y6059365D01*
G37*
G36*
G01X4142486Y5326890D02*
G01X4142486Y5168900D01*
G01X4144139Y5156344D01*
G01X4148986Y5144643D01*
G01X4156695Y5134595D01*
G01X4378677Y4912614D01*
G01X4325110Y4912614D01*
G01X4313149Y4921477D01*
G01X4299512Y4927448D01*
G01X4284887Y4930226D01*
G01X4270011Y4929673D01*
G01X4255633Y4925814D01*
G01X4242478Y4918846D01*
G01X4231208Y4909119D01*
G01X4222393Y4897123D01*
G01X4216476Y4883463D01*
G01X4213755Y4868827D01*
G01X4214367Y4853953D01*
G01X4218282Y4839590D01*
G01X4225302Y4826462D01*
G01X4235073Y4815232D01*
G01X4247104Y4806464D01*
G01X4260787Y4800600D01*
G01X4247104Y4794736D01*
G01X4235073Y4785968D01*
G01X4225302Y4774738D01*
G01X4218282Y4761610D01*
G01X4214367Y4747247D01*
G01X4213755Y4732373D01*
G01X4216476Y4717737D01*
G01X4222393Y4704077D01*
G01X4231208Y4692081D01*
G01X4242478Y4682354D01*
G01X4255633Y4675386D01*
G01X4270011Y4671527D01*
G01X4284887Y4670974D01*
G01X4299512Y4673752D01*
G01X4313149Y4679723D01*
G01X4325110Y4688586D01*
G01X4717005Y4688586D01*
G01X4764786Y4640805D01*
G01X4764786Y3911600D01*
G01X4766439Y3899044D01*
G01X4771286Y3887343D01*
G01X4778995Y3877295D01*
G01X4962877Y3693414D01*
G01X4655595Y3693414D01*
G01X4480814Y3868195D01*
G01X4480814Y4044190D01*
G01X4489912Y4056561D01*
G01X4495921Y4070694D01*
G01X4498518Y4085829D01*
G01X4497564Y4101156D01*
G01X4493110Y4115853D01*
G01X4485394Y4129131D01*
G01X4474832Y4140278D01*
G01X4461989Y4148697D01*
G01X4447553Y4153936D01*
G01X4432300Y4155714D01*
G01X4417047Y4153936D01*
G01X4402611Y4148697D01*
G01X4389768Y4140278D01*
G01X4379206Y4129131D01*
G01X4371490Y4115853D01*
G01X4367036Y4101156D01*
G01X4366082Y4085829D01*
G01X4368679Y4070694D01*
G01X4374688Y4056561D01*
G01X4383786Y4044190D01*
G01X4383786Y3848100D01*
G01X4385439Y3835544D01*
G01X4390286Y3823843D01*
G01X4397995Y3813795D01*
G01X4581877Y3629914D01*
G01X4503195Y3629914D01*
G01X4226814Y3906295D01*
G01X4226814Y4044190D01*
G01X4235677Y4056151D01*
G01X4241648Y4069788D01*
G01X4244426Y4084413D01*
G01X4243873Y4099289D01*
G01X4240014Y4113667D01*
G01X4233046Y4126822D01*
G01X4223319Y4138092D01*
G01X4211323Y4146907D01*
G01X4197663Y4152824D01*
G01X4183027Y4155545D01*
G01X4168153Y4154933D01*
G01X4153790Y4151018D01*
G01X4140662Y4143998D01*
G01X4129432Y4134227D01*
G01X4120664Y4122196D01*
G01X4114800Y4108513D01*
G01X4108381Y4123154D01*
G01X4098645Y4135833D01*
G01X4086157Y4145814D01*
G01X4071644Y4152516D01*
G01X4055948Y4155551D01*
G01X4039983Y4154741D01*
G01X4024675Y4150134D01*
G01X4010914Y4141998D01*
G01X4010914Y4475705D01*
G01X4123705Y4588495D01*
G01X4131414Y4598543D01*
G01X4136261Y4610244D01*
G01X4137914Y4622800D01*
G01X4137914Y5332358D01*
G01X4142486Y5326890D01*
G37*
G36*
G01X4391914Y5265195D02*
G01X4391914Y5448300D01*
G01X4390261Y5460856D01*
G01X4385414Y5472557D01*
G01X4377705Y5482605D01*
G01X4123705Y5736605D01*
G01X4116281Y5742686D01*
G01X5381977Y5742686D01*
G01X5261595Y5622305D01*
G01X5253886Y5612257D01*
G01X5249039Y5600556D01*
G01X5247386Y5588000D01*
G01X5247386Y5016500D01*
G01X5249039Y5003944D01*
G01X5253886Y4992243D01*
G01X5261595Y4982195D01*
G01X5375895Y4867895D01*
G01X5385943Y4860186D01*
G01X5397644Y4855339D01*
G01X5410200Y4853686D01*
G01X6177505Y4853686D01*
G01X6187186Y4844005D01*
G01X6187186Y4657658D01*
G01X6174430Y4662011D01*
G01X6161058Y4663696D01*
G01X6147621Y4662641D01*
G01X6134675Y4658892D01*
G01X6122755Y4652603D01*
G01X6112352Y4644033D01*
G01X6103897Y4633537D01*
G01X6097739Y4621548D01*
G01X6094132Y4608561D01*
G01X6093225Y4595114D01*
G01X5122259Y4595114D01*
G01X5077714Y4639659D01*
G01X5077714Y4762500D01*
G01X5076061Y4775056D01*
G01X5071214Y4786757D01*
G01X5063505Y4796805D01*
G01X4771405Y5088905D01*
G01X4761357Y5096614D01*
G01X4749656Y5101461D01*
G01X4737100Y5103114D01*
G01X4553995Y5103114D01*
G01X4391914Y5265195D01*
G37*
G36*
G01X5443039Y5141704D02*
G01X5455596Y5143357D01*
G01X5467296Y5148203D01*
G01X5477344Y5155913D01*
G01X5495305Y5173874D01*
G01X5503014Y5183921D01*
G01X5507861Y5195622D01*
G01X5509514Y5208178D01*
G01X5509514Y5324657D01*
G01X5507861Y5337214D01*
G01X5503014Y5348915D01*
G01X5495304Y5358962D01*
G01X5477344Y5376923D01*
G01X5467296Y5384632D01*
G01X5455596Y5389479D01*
G01X5443039Y5391132D01*
G01X5435854Y5391132D01*
G01X5435854Y5456145D01*
G01X5436062Y5456353D01*
G01X5448896Y5448491D01*
G01X5463173Y5443726D01*
G01X5478156Y5442303D01*
G01X5493074Y5444295D01*
G01X5507159Y5449599D01*
G01X5516014Y5455498D01*
G01X7115688Y5455498D01*
G01X7117680Y5439369D01*
G01X7123535Y5424208D01*
G01X7132901Y5410927D01*
G01X7145217Y5400322D01*
G01X7159742Y5393032D01*
G01X7175604Y5389494D01*
G01X7191850Y5389920D01*
G01X7207505Y5394284D01*
G01X7881198Y5394284D01*
G01X7893141Y5395461D01*
G01X7904624Y5398944D01*
G01X7915207Y5404601D01*
G01X7924483Y5412214D01*
G01X8026252Y5513982D01*
G01X8040408Y5521965D01*
G01X8052197Y5533152D01*
G01X8060911Y5546870D01*
G01X8066027Y5562296D01*
G01X8067237Y5578503D01*
G01X8064468Y5594517D01*
G01X8057888Y5609378D01*
G01X8047891Y5622191D01*
G01X8035078Y5632188D01*
G01X8020217Y5638768D01*
G01X8004203Y5641537D01*
G01X7987996Y5640327D01*
G01X7972570Y5635211D01*
G01X7958852Y5626497D01*
G01X7947665Y5614708D01*
G01X7939682Y5600552D01*
G01X7855843Y5516712D01*
G01X7855843Y5516712D01*
G01X7207505Y5516712D01*
G01X7191850Y5521077D01*
G01X7175604Y5521503D01*
G01X7159742Y5517965D01*
G01X7145217Y5510674D01*
G01X7132901Y5500070D01*
G01X7123535Y5486789D01*
G01X7117680Y5471628D01*
G01X7115688Y5455498D01*
G01X5516014Y5455498D01*
G01X5519685Y5457943D01*
G01X5530006Y5468897D01*
G01X5537592Y5481896D01*
G01X5542052Y5496270D01*
G01X5543155Y5511280D01*
G01X5540845Y5526153D01*
G01X5535241Y5540121D01*
G01X5526632Y5552466D01*
G01X5515461Y5562552D01*
G01X5502303Y5569858D01*
G01X5487836Y5574010D01*
G01X5502140Y5578894D01*
G01X5514966Y5586890D01*
G01X5525648Y5597582D01*
G01X5533632Y5610415D01*
G01X5538503Y5624723D01*
G01X5540007Y5639762D01*
G01X5538067Y5654751D01*
G01X5532783Y5668912D01*
G01X5524430Y5681508D01*
G01X5513442Y5691886D01*
G01X7518400Y5691886D01*
G01X7530956Y5693539D01*
G01X7542657Y5698386D01*
G01X7552705Y5706095D01*
G01X7578105Y5731495D01*
G01X7585814Y5741543D01*
G01X7590661Y5753244D01*
G01X7592314Y5765800D01*
G01X7592314Y6075905D01*
G01X7678195Y6161786D01*
G01X8252177Y6161786D01*
G01X8207995Y6117605D01*
G01X8200286Y6107557D01*
G01X8195439Y6095856D01*
G01X8193786Y6083300D01*
G01X8193786Y4096795D01*
G01X8087614Y3990623D01*
G01X8087614Y5308497D01*
G01X8091979Y5324152D01*
G01X8092405Y5340398D01*
G01X8088866Y5356260D01*
G01X8081576Y5370786D01*
G01X8070972Y5383101D01*
G01X8057690Y5392468D01*
G01X8042530Y5398323D01*
G01X8026400Y5400314D01*
G01X8010270Y5398323D01*
G01X7995110Y5392468D01*
G01X7981828Y5383101D01*
G01X7971224Y5370786D01*
G01X7963934Y5356260D01*
G01X7960395Y5340398D01*
G01X7960821Y5324152D01*
G01X7965186Y5308497D01*
G01X7965186Y3987756D01*
G01X7785354Y3807924D01*
G01X7785354Y5033334D01*
G01X7783701Y5045890D01*
G01X7778854Y5057591D01*
G01X7771145Y5067638D01*
G01X7709238Y5129545D01*
G01X7699191Y5137254D01*
G01X7687490Y5142101D01*
G01X7674934Y5143754D01*
G01X6462846Y5143754D01*
G01X6459295Y5147305D01*
G01X6449247Y5155015D01*
G01X6437547Y5159861D01*
G01X6424990Y5161514D01*
G01X6376610Y5161514D01*
G01X6364053Y5159861D01*
G01X6352353Y5155015D01*
G01X6342305Y5147305D01*
G01X6315252Y5120252D01*
G01X6300831Y5116508D01*
G01X6287610Y5109639D01*
G01X6276256Y5099992D01*
G01X6267342Y5088053D01*
G01X6261319Y5074426D01*
G01X6258490Y5059798D01*
G01X6258998Y5044907D01*
G01X6243545Y5029454D01*
G01X5503955Y5029454D01*
G01X5435854Y5097555D01*
G01X5435854Y5141704D01*
G01X5443039Y5141704D01*
G37*
G54D10*
G01X-125000Y6734186D02*
G01X3786886Y6734186D01*
G01X3786886Y6208014D01*
G01X3200400Y6208014D01*
G03X3148135Y6186365I0J-73914D01*
G01X2906835Y5945065D01*
G03X2885186Y5892800I52265J-52265D01*
G01X2885186Y5219700D01*
G02X2844800Y5179314I-40386J0D01*
G01X1689100Y5179314D01*
G03X1689100Y5031486I0J-73914D01*
G01X1764656Y5031486D01*
G01X1611435Y4878265D01*
G03X1589786Y4826000I52265J-52265D01*
G01X1589786Y2349500D01*
G03X1737614Y2349500I73914J0D01*
G01X1737614Y4795384D01*
G01X1869035Y4926804D01*
G01X2616200Y4926804D01*
G03X2683406Y5031486I0J73914D01*
G01X3093584Y5031486D01*
G01X3139186Y4985884D01*
G01X3139186Y4343400D01*
G03X3287014Y4343400I73914J0D01*
G01X3287014Y5016500D01*
G03X3265365Y5068765I-73914J0D01*
G01X3176465Y5157665D01*
G03X3124200Y5179314I-52265J-52265D01*
G02X3033014Y5270500I0J91186D01*
G01X3033014Y5713202D01*
G03X3118610Y5717286I40386J52598D01*
G01X3862868Y5717286D01*
G01X3912159Y5667995D01*
G03X3946464Y5653786I34305J34305D01*
G01X3965642Y5653786D01*
G03X3977386Y5580890I60258J-27686D01*
G01X3977386Y5544595D01*
G01X3813795Y5381005D01*
G03X3799586Y5346700I34305J-34305D01*
G01X3799586Y3537710D01*
G03X3848100Y3426186I48514J-45210D01*
G03X3896614Y3537710I0J66314D01*
G01X3896614Y5326605D01*
G01X4033474Y5463465D01*
G03X4040886Y5453890I55926J35635D01*
G01X4040886Y4642895D01*
G01X3928095Y4530105D01*
G03X3913886Y4495800I34305J-34305D01*
G01X3913886Y3746500D01*
G03X3928095Y3712195I48514J0D01*
G01X4232895Y3407395D01*
G03X4267200Y3393186I34305J34305D01*
G01X6736590Y3393186D01*
G03X6848057Y3438943I45210J48514D01*
G03X6896464Y3463012I-2757J66257D01*
G03X6910868Y3515118I-51164J42188D01*
G03X6973399Y3596386I-2068J66282D01*
G01X7028690Y3596386D01*
G03X7107097Y3587493I45210J48514D01*
G03X7138499Y3659886I-33197J57407D01*
G01X7174551Y3659886D01*
G03X7208855Y3674095I0J48514D01*
G01X7240387Y3705627D01*
G03X7297808Y3800650I-2336J66273D01*
G03X7187725Y3815085I-59758J-28750D01*
G03X7092190Y3820414I-50325J-43185D01*
G01X5716481Y3820414D01*
G03X5723905Y3826495I-26881J40386D01*
G01X5953931Y4056522D01*
G01X7295390Y4056522D01*
G03X7404952Y4121047I45210J48514D01*
G01X7406608Y4121047D01*
G03X7475616Y4107664I45210J48514D01*
G03X7517884Y4163829I-23797J61897D01*
G03X7583033Y4211419I1528J66296D01*
G03X7554012Y4286698I-63621J18707D01*
G03X7605249Y4348641I-15024J64590D01*
G03X7559116Y4414473I-66261J2647D01*
G03X7525343Y4477492I-66116J5127D01*
G03X7453973Y4473214I-32343J-57892D01*
G01X6415573Y4473214D01*
G03X6380924Y4541762I-65573J9886D01*
G03X6304790Y4531614I-30924J-58662D01*
G01X6300299Y4531614D01*
G03X6284214Y4591810I-64599J14986D01*
G01X6284214Y4864100D01*
G03X6275538Y4891786I-48514J0D01*
G01X6292890Y4891786D01*
G03X6327195Y4905995I0J48514D01*
G01X6410148Y4988948D01*
G03X6446010Y5006086I-9348J65652D01*
G01X7638005Y5006086D01*
G01X7647686Y4996405D01*
G01X7647686Y3804695D01*
G01X7524212Y3681221D01*
G03X7510003Y3646917I34305J-34305D01*
G01X7510003Y2949145D01*
G03X7481362Y2855214I28314J-59965D01*
G03X7577617Y2835766I56955J33965D01*
G03X7634986Y2825375I39300J53414D01*
G01X7634986Y2806656D01*
G01X7632848Y2804518D01*
G03X7601262Y2709038I25252J-61318D01*
G03X7700400Y2692129I56838J34162D01*
G03X7797532Y2667347I59300J29682D01*
G03X7808214Y2767021I-37832J54463D01*
G01X7808214Y3574005D01*
G01X8276605Y4042395D01*
G03X8290814Y4076700I-34305J34305D01*
G01X8290814Y6063205D01*
G01X8338595Y6110986D01*
G01X9055100Y6110986D01*
G03X9089405Y6125195I0J48514D01*
G01X9203705Y6239495D01*
G03X9217914Y6273800I-34305J34305D01*
G01X9217914Y6578600D01*
G03X9203705Y6612905I-48514J0D01*
G01X9152905Y6663705D01*
G03X9118600Y6677914I-34305J-34305D01*
G01X8839200Y6677914D01*
G03X8804895Y6663705I0J-48514D01*
G01X8741395Y6600205D01*
G03X8727186Y6565900I34305J-34305D01*
G01X8727186Y6562245D01*
G03X8724611Y6342120I48514J-110645D01*
G01X8692105Y6309614D01*
G01X7632700Y6309614D01*
G03X7598395Y6295405I0J-48514D01*
G01X7471395Y6168405D01*
G03X7457186Y6134100I34305J-34305D01*
G01X7457186Y5839714D01*
G01X4102744Y5839714D01*
G01X4196216Y5933186D01*
G01X6019800Y5933186D01*
G03X6071231Y6060186I0J73914D01*
G01X7302500Y6060186D01*
G03X7354765Y6081835I0J73914D01*
G01X7638892Y6365962D01*
G03X7674700Y6330786I35808J638D01*
G01X7844700Y6330786D01*
G03X7880514Y6366600I0J35814D01*
G01X7880514Y6536600D01*
G03X7844700Y6572414I-35814J0D01*
G01X7674700Y6572414D01*
G03X7638886Y6536600I0J-35814D01*
G01X7638886Y6525514D01*
G01X7620000Y6525514D01*
G03X7567735Y6503865I0J-73914D01*
G01X7271884Y6208014D01*
G01X5689581Y6208014D01*
G01X5689581Y6734186D01*
G01X10674995Y6734186D01*
G01X10685921Y6734144D01*
G01X10696591Y6734017D01*
G01X10707163Y6733807D01*
G01X10717622Y6733514D01*
G01X10727972Y6733138D01*
G01X10738209Y6732679D01*
G01X10748349Y6732136D01*
G01X10758374Y6731512D01*
G01X10768290Y6730804D01*
G01X10778091Y6730015D01*
G01X10787797Y6729143D01*
G01X10797386Y6728189D01*
G01X10806867Y6727153D01*
G01X10816239Y6726035D01*
G01X10825502Y6724836D01*
G01X10834649Y6723557D01*
G01X10843701Y6722195D01*
G01X10852635Y6720753D01*
G01X10861462Y6719231D01*
G01X10870171Y6717630D01*
G01X10878786Y6715946D01*
G01X10887283Y6714183D01*
G01X10895671Y6712341D01*
G01X10903951Y6710420D01*
G01X10911914Y6708470D01*
G01X10919965Y6706396D01*
G01X10927921Y6704240D01*
G01X10935761Y6702008D01*
G01X10943491Y6699699D01*
G01X10951104Y6697315D01*
G01X10958617Y6694850D01*
G01X10966030Y6692307D01*
G01X10973318Y6689693D01*
G01X10980514Y6686996D01*
G01X10987593Y6684227D01*
G01X10994565Y6681382D01*
G01X11001422Y6678465D01*
G01X11008188Y6675465D01*
G01X11014830Y6672399D01*
G01X11021383Y6669250D01*
G01X11027821Y6666031D01*
G01X11034154Y6662738D01*
G01X11040372Y6659375D01*
G01X11046504Y6655929D01*
G01X11052514Y6652419D01*
G01X11058437Y6648826D01*
G01X11064248Y6645164D01*
G01X11069956Y6641430D01*
G01X11075562Y6637621D01*
G01X11081058Y6633746D01*
G01X11086470Y6629785D01*
G01X11091772Y6625757D01*
G01X11096967Y6621662D01*
G01X11102080Y6617479D01*
G01X11107084Y6613230D01*
G01X11111991Y6608907D01*
G01X11116801Y6604510D01*
G01X11121506Y6600045D01*
G01X11126131Y6595490D01*
G01X11130644Y6590876D01*
G01X11135078Y6586170D01*
G01X11139410Y6581396D01*
G01X11143639Y6576553D01*
G01X11147792Y6571616D01*
G01X11151835Y6566619D01*
G01X11155801Y6561525D01*
G01X11159667Y6556363D01*
G01X11163435Y6551130D01*
G01X11167125Y6545797D01*
G01X11170716Y6540394D01*
G01X11174217Y6534909D01*
G01X11177622Y6529351D01*
G01X11180947Y6523691D01*
G01X11184171Y6517968D01*
G01X11187315Y6512141D01*
G01X11190363Y6506239D01*
G01X11193317Y6500262D01*
G01X11196185Y6494189D01*
G01X11198963Y6488029D01*
G01X11201654Y6481773D01*
G01X11204246Y6475449D01*
G01X11206756Y6469016D01*
G01X11209171Y6462505D01*
G01X11211494Y6455905D01*
G01X11213724Y6449225D01*
G01X11215868Y6442436D01*
G01X11217917Y6435566D01*
G01X11219871Y6428615D01*
G01X11221738Y6421553D01*
G01X11223509Y6414410D01*
G01X11225188Y6407175D01*
G01X11226772Y6399857D01*
G01X11228265Y6392429D01*
G01X11229663Y6384918D01*
G01X11230965Y6377322D01*
G01X11232174Y6369625D01*
G01X11233289Y6361827D01*
G01X11234307Y6353952D01*
G01X11235231Y6345968D01*
G01X11236058Y6337899D01*
G01X11236789Y6329737D01*
G01X11237422Y6321490D01*
G01X11237960Y6313141D01*
G01X11238412Y6304485D01*
G01X11238752Y6295961D01*
G01X11238995Y6287330D01*
G01X11239140Y6278611D01*
G01X11239186Y6269909D01*
G01X11239186Y6219007D01*
G02X11187291Y6061759I-264186J0D01*
G01X10855428Y5613730D01*
G01X10851460Y5608304D01*
G01X10851213Y5607961D01*
G01X10847309Y5602483D01*
G01X10847063Y5602134D01*
G01X10843259Y5596655D01*
G01X10843017Y5596301D01*
G01X10839276Y5590768D01*
G01X10839036Y5590408D01*
G01X10835396Y5584874D01*
G01X10835159Y5584510D01*
G01X10831583Y5578923D01*
G01X10831348Y5578551D01*
G01X10827871Y5572963D01*
G01X10827642Y5572589D01*
G01X10824238Y5566960D01*
G01X10824010Y5566578D01*
G01X10820680Y5560908D01*
G01X10820457Y5560523D01*
G01X10817226Y5554855D01*
G01X10817006Y5554463D01*
G01X10813840Y5548739D01*
G01X10813624Y5548342D01*
G01X10810557Y5542620D01*
G01X10810346Y5542221D01*
G01X10807345Y5536442D01*
G01X10807137Y5536036D01*
G01X10804225Y5530245D01*
G01X10804023Y5529836D01*
G01X10801201Y5524032D01*
G01X10801003Y5523619D01*
G01X10798248Y5517758D01*
G01X10798056Y5517342D01*
G01X10795390Y5511469D01*
G01X10795202Y5511047D01*
G01X10792618Y5505147D01*
G01X10792436Y5504723D01*
G01X10789941Y5498812D01*
G01X10789763Y5498384D01*
G01X10787337Y5492414D01*
G01X10787166Y5491984D01*
G01X10784834Y5486018D01*
G01X10784667Y5485583D01*
G01X10782406Y5479559D01*
G01X10782246Y5479123D01*
G01X10780078Y5473104D01*
G01X10779923Y5472666D01*
G01X10777826Y5466587D01*
G01X10777676Y5466145D01*
G01X10775672Y5460071D01*
G01X10775529Y5459629D01*
G01X10773602Y5453512D01*
G01X10773465Y5453068D01*
G01X10771614Y5446908D01*
G01X10771483Y5446461D01*
G01X10769724Y5440306D01*
G01X10769600Y5439859D01*
G01X10767914Y5433644D01*
G01X10767795Y5433196D01*
G01X10766200Y5426988D01*
G01X10766088Y5426539D01*
G01X10764566Y5420270D01*
G01X10764460Y5419820D01*
G01X10763028Y5413557D01*
G01X10762929Y5413109D01*
G01X10761572Y5406786D01*
G01X10761479Y5406336D01*
G01X10760210Y5400020D01*
G01X10760123Y5399569D01*
G01X10758931Y5393192D01*
G01X10758850Y5392744D01*
G01X10757745Y5386373D01*
G01X10757671Y5385926D01*
G01X10756643Y5379496D01*
G01X10756574Y5379047D01*
G01X10755633Y5372623D01*
G01X10755571Y5372177D01*
G01X10754708Y5365692D01*
G01X10754651Y5365248D01*
G01X10753874Y5358769D01*
G01X10753824Y5358326D01*
G01X10753125Y5351788D01*
G01X10753080Y5351346D01*
G01X10752467Y5344813D01*
G01X10752429Y5344375D01*
G01X10751894Y5337784D01*
G01X10751862Y5337347D01*
G01X10751412Y5330760D01*
G01X10751385Y5330325D01*
G01X10751015Y5323679D01*
G01X10750993Y5323247D01*
G01X10750707Y5316607D01*
G01X10750691Y5316179D01*
G01X10750486Y5309480D01*
G01X10750475Y5309053D01*
G01X10750353Y5302358D01*
G01X10750347Y5301936D01*
G01X10750306Y5294981D01*
G01X10750306Y1656212D01*
G01X10750306Y1424801D01*
G01X10750347Y1418064D01*
G01X10750353Y1417642D01*
G01X10750475Y1410947D01*
G01X10750486Y1410520D01*
G01X10750691Y1403821D01*
G01X10750707Y1403393D01*
G01X10750994Y1396736D01*
G01X10751016Y1396305D01*
G01X10751385Y1389675D01*
G01X10751412Y1389240D01*
G01X10751863Y1382637D01*
G01X10751896Y1382200D01*
G01X10752429Y1375624D01*
G01X10752467Y1375187D01*
G01X10753082Y1368638D01*
G01X10753127Y1368196D01*
G01X10753824Y1361674D01*
G01X10753874Y1361231D01*
G01X10754653Y1354736D01*
G01X10754710Y1354291D01*
G01X10755571Y1347823D01*
G01X10755633Y1347377D01*
G01X10756577Y1340936D01*
G01X10756645Y1340488D01*
G01X10757671Y1334074D01*
G01X10757745Y1333627D01*
G01X10758853Y1327240D01*
G01X10758934Y1326791D01*
G01X10760123Y1320431D01*
G01X10760210Y1319980D01*
G01X10761482Y1313647D01*
G01X10761575Y1313197D01*
G01X10762929Y1306891D01*
G01X10763028Y1306443D01*
G01X10764464Y1300164D01*
G01X10764570Y1299713D01*
G01X10766088Y1293461D01*
G01X10766200Y1293012D01*
G01X10767800Y1286787D01*
G01X10767918Y1286339D01*
G01X10769600Y1280141D01*
G01X10769724Y1279694D01*
G01X10771488Y1273523D01*
G01X10771619Y1273076D01*
G01X10773465Y1266932D01*
G01X10773602Y1266488D01*
G01X10775529Y1260371D01*
G01X10775672Y1259929D01*
G01X10777682Y1253839D01*
G01X10777831Y1253397D01*
G01X10779923Y1247334D01*
G01X10780078Y1246896D01*
G01X10782252Y1240860D01*
G01X10782412Y1240425D01*
G01X10784668Y1234416D01*
G01X10784834Y1233981D01*
G01X10787172Y1228000D01*
G01X10787344Y1227570D01*
G01X10789764Y1221616D01*
G01X10789941Y1221188D01*
G01X10792443Y1215261D01*
G01X10792625Y1214837D01*
G01X10795209Y1208937D01*
G01X10795397Y1208515D01*
G01X10798056Y1202658D01*
G01X10798248Y1202243D01*
G01X10801003Y1196381D01*
G01X10801201Y1195968D01*
G01X10804023Y1190164D01*
G01X10804226Y1189755D01*
G01X10807145Y1183948D01*
G01X10807352Y1183543D01*
G01X10810346Y1177779D01*
G01X10810557Y1177380D01*
G01X10813633Y1171643D01*
G01X10813848Y1171246D01*
G01X10817006Y1165536D01*
G01X10817226Y1165146D01*
G01X10820466Y1159463D01*
G01X10820689Y1159077D01*
G01X10824011Y1153421D01*
G01X10824238Y1153040D01*
G01X10827641Y1147412D01*
G01X10827873Y1147035D01*
G01X10831358Y1141434D01*
G01X10831592Y1141065D01*
G01X10835159Y1135491D01*
G01X10835396Y1135126D01*
G01X10839045Y1129579D01*
G01X10839286Y1129219D01*
G01X10843017Y1123699D01*
G01X10843259Y1123345D01*
G01X10847072Y1117853D01*
G01X10847318Y1117504D01*
G01X10851213Y1112038D01*
G01X10851461Y1111696D01*
G01X10855558Y1106095D01*
G01X11187291Y658241D01*
G02X11239186Y500994I-212291J-157247D01*
G01X11239186Y450000D01*
G01X11239136Y441080D01*
G01X11238989Y432419D01*
G01X11238746Y423879D01*
G01X11238407Y415416D01*
G01X11237971Y407028D01*
G01X11237455Y398976D01*
G01X11236832Y390790D01*
G01X11236113Y382681D01*
G01X11235303Y374695D01*
G01X11234394Y366768D01*
G01X11233396Y358965D01*
G01X11232300Y351220D01*
G01X11231116Y343600D01*
G01X11229836Y336055D01*
G01X11228460Y328582D01*
G01X11226998Y321235D01*
G01X11225442Y313962D01*
G01X11223789Y306761D01*
G01X11222054Y299686D01*
G01X11220217Y292664D01*
G01X11218301Y285769D01*
G01X11216283Y278925D01*
G01X11214186Y272208D01*
G01X11211987Y265541D01*
G01X11209712Y259001D01*
G01X11207333Y252510D01*
G01X11204880Y246145D01*
G01X11202322Y239827D01*
G01X11199691Y233635D01*
G01X11196954Y227489D01*
G01X11194146Y221467D01*
G01X11191232Y215490D01*
G01X11188248Y209638D01*
G01X11185154Y203828D01*
G01X11181994Y198141D01*
G01X11178722Y192496D01*
G01X11175386Y186973D01*
G01X11171936Y181491D01*
G01X11168408Y176109D01*
G01X11164792Y170807D01*
G01X11161085Y165582D01*
G01X11157302Y160455D01*
G01X11153401Y155369D01*
G01X11149424Y150378D01*
G01X11145356Y145464D01*
G01X11141195Y140626D01*
G01X11136958Y135880D01*
G01X11132597Y131175D01*
G01X11128160Y126563D01*
G01X11123628Y122024D01*
G01X11119019Y117574D01*
G01X11114282Y113167D01*
G01X11109466Y108848D01*
G01X11104555Y104603D01*
G01X11099564Y100444D01*
G01X11094441Y96328D01*
G01X11089238Y92300D01*
G01X11083955Y88356D01*
G01X11078536Y84459D01*
G01X11073055Y80658D01*
G01X11067437Y76906D01*
G01X11061738Y73237D01*
G01X11055936Y69641D01*
G01X11050033Y66116D01*
G01X11044046Y62674D01*
G01X11037920Y59284D01*
G01X11031727Y55985D01*
G01X11025394Y52741D01*
G01X11018994Y49587D01*
G01X11012454Y46490D01*
G01X11005844Y43482D01*
G01X10999095Y40532D01*
G01X10992275Y37671D01*
G01X10985315Y34869D01*
G01X10978283Y32156D01*
G01X10971112Y29504D01*
G01X10963867Y26939D01*
G01X10956484Y24438D01*
G01X10949010Y22019D01*
G01X10941429Y19675D01*
G01X10933757Y17411D01*
G01X10925947Y15215D01*
G01X10918061Y13104D01*
G01X10910037Y11062D01*
G01X10901736Y9056D01*
G01X10893499Y7172D01*
G01X10885187Y5373D01*
G01X10876737Y3645D01*
G01X10868209Y2001D01*
G01X10859559Y433D01*
G01X10850789Y-1059D01*
G01X10841924Y-2470D01*
G01X10832965Y-3800D01*
G01X10823874Y-5054D01*
G01X10814700Y-6225D01*
G01X10805395Y-7320D01*
G01X10796006Y-8331D01*
G01X10786487Y-9265D01*
G01X10776884Y-10117D01*
G01X10767163Y-10889D01*
G01X10757323Y-11581D01*
G01X10747400Y-12191D01*
G01X10737347Y-12721D01*
G01X10727209Y-13168D01*
G01X10716944Y-13536D01*
G01X10706583Y-13821D01*
G01X10696126Y-14024D01*
G01X10685542Y-14146D01*
G01X10680417Y-14165D01*
G01X9029005Y-14165D01*
G01X8913316Y101524D01*
G03X8887992Y112014I-25324J-25324D01*
G01X1485900Y112014D01*
G03X1460576Y101524I0J-35814D01*
G01X1344908Y-14143D01*
G01X-130507Y-14143D01*
G01X-146738Y-14016D01*
G01X-157153Y-13807D01*
G01X-167623Y-13514D01*
G01X-177962Y-13138D01*
G01X-188215Y-12678D01*
G01X-198338Y-12137D01*
G01X-208374Y-11511D01*
G01X-218279Y-10805D01*
G01X-228098Y-10014D01*
G01X-237797Y-9142D01*
G01X-247374Y-8190D01*
G01X-256868Y-7152D01*
G01X-266227Y-6037D01*
G01X-275503Y-4836D01*
G01X-284643Y-3558D01*
G01X-293688Y-2197D01*
G01X-302636Y-753D01*
G01X-311449Y767D01*
G01X-320178Y2372D01*
G01X-328786Y4055D01*
G01X-337268Y5814D01*
G01X-345673Y7660D01*
G01X-353951Y9581D01*
G01X-361900Y11527D01*
G01X-369973Y13606D01*
G01X-377906Y15756D01*
G01X-385761Y17992D01*
G01X-393476Y20297D01*
G01X-401097Y22683D01*
G01X-408626Y25153D01*
G01X-416014Y27688D01*
G01X-423310Y30305D01*
G01X-430497Y32998D01*
G01X-437594Y35774D01*
G01X-444549Y38612D01*
G01X-451431Y41539D01*
G01X-458171Y44527D01*
G01X-464839Y47605D01*
G01X-471366Y50741D01*
G01X-477822Y53970D01*
G01X-484137Y57253D01*
G01X-490382Y60630D01*
G01X-496486Y64061D01*
G01X-502523Y67586D01*
G01X-508437Y71175D01*
G01X-514230Y74825D01*
G01X-519957Y78571D01*
G01X-525544Y82367D01*
G01X-531068Y86261D01*
G01X-536452Y90202D01*
G01X-541773Y94244D01*
G01X-546959Y98332D01*
G01X-552063Y102507D01*
G01X-557068Y106756D01*
G01X-561992Y111094D01*
G01X-566785Y115476D01*
G01X-571515Y119963D01*
G01X-576115Y124494D01*
G01X-580637Y129116D01*
G01X-585079Y133831D01*
G01X-589395Y138588D01*
G01X-593648Y143456D01*
G01X-597777Y148367D01*
G01X-601829Y153372D01*
G01X-605802Y158475D01*
G01X-609654Y163619D01*
G01X-613443Y168881D01*
G01X-617112Y174184D01*
G01X-620717Y179607D01*
G01X-624206Y185073D01*
G01X-627628Y190660D01*
G01X-630936Y196290D01*
G01X-634166Y202023D01*
G01X-637316Y207860D01*
G01X-640354Y213742D01*
G01X-643313Y219729D01*
G01X-646190Y225821D01*
G01X-648967Y231981D01*
G01X-651646Y238208D01*
G01X-654251Y244562D01*
G01X-656749Y250965D01*
G01X-659171Y257496D01*
G01X-661488Y264076D01*
G01X-663721Y270766D01*
G01X-665868Y277564D01*
G01X-667911Y284416D01*
G01X-669874Y291396D01*
G01X-671733Y298428D01*
G01X-673510Y305591D01*
G01X-675185Y312808D01*
G01X-676770Y320135D01*
G01X-678266Y327572D01*
G01X-679660Y335066D01*
G01X-680964Y342670D01*
G01X-682176Y350384D01*
G01X-683287Y358157D01*
G01X-684308Y366057D01*
G01X-685229Y374016D01*
G01X-686058Y382101D01*
G01X-686788Y390247D01*
G01X-687422Y398503D01*
G01X-687961Y406867D01*
G01X-688411Y415500D01*
G01X-688752Y424032D01*
G01X-688995Y432671D01*
G01X-689140Y441375D01*
G01X-689186Y450092D01*
G01X-689186Y500994D01*
G02X-637291Y658241I264186J0D01*
G01X-305428Y1106271D01*
G01X-301451Y1111709D01*
G01X-301204Y1112052D01*
G01X-297309Y1117517D01*
G01X-297063Y1117867D01*
G01X-293250Y1123359D01*
G01X-293008Y1123712D01*
G01X-289286Y1129219D01*
G01X-289045Y1129579D01*
G01X-285387Y1135140D01*
G01X-285151Y1135504D01*
G01X-281583Y1141078D01*
G01X-281349Y1141449D01*
G01X-277863Y1147051D01*
G01X-277633Y1147426D01*
G01X-274238Y1153041D01*
G01X-274011Y1153421D01*
G01X-270689Y1159077D01*
G01X-270466Y1159463D01*
G01X-267218Y1165161D01*
G01X-266998Y1165552D01*
G01X-263840Y1171262D01*
G01X-263625Y1171657D01*
G01X-260549Y1177395D01*
G01X-260338Y1177796D01*
G01X-257344Y1183560D01*
G01X-257138Y1183964D01*
G01X-254226Y1189756D01*
G01X-254023Y1190165D01*
G01X-251194Y1195983D01*
G01X-250996Y1196396D01*
G01X-248248Y1202242D01*
G01X-248055Y1202659D01*
G01X-245390Y1208532D01*
G01X-245202Y1208953D01*
G01X-242618Y1214854D01*
G01X-242436Y1215278D01*
G01X-239934Y1221205D01*
G01X-239757Y1221633D01*
G01X-237337Y1227587D01*
G01X-237166Y1228017D01*
G01X-234828Y1233999D01*
G01X-234662Y1234433D01*
G01X-232412Y1240426D01*
G01X-232252Y1240861D01*
G01X-230072Y1246913D01*
G01X-229917Y1247351D01*
G01X-227826Y1253414D01*
G01X-227676Y1253856D01*
G01X-225667Y1259946D01*
G01X-225524Y1260389D01*
G01X-223597Y1266506D01*
G01X-223460Y1266948D01*
G01X-221619Y1273076D01*
G01X-221488Y1273523D01*
G01X-219720Y1279711D01*
G01X-219595Y1280158D01*
G01X-217914Y1286356D01*
G01X-217795Y1286804D01*
G01X-216196Y1293029D01*
G01X-216084Y1293479D01*
G01X-214566Y1299731D01*
G01X-214460Y1300181D01*
G01X-213025Y1306460D01*
G01X-212926Y1306909D01*
G01X-211572Y1313215D01*
G01X-211479Y1313664D01*
G01X-210207Y1319998D01*
G01X-210120Y1320448D01*
G01X-208931Y1326808D01*
G01X-208850Y1327257D01*
G01X-207743Y1333644D01*
G01X-207668Y1334091D01*
G01X-206643Y1340505D01*
G01X-206574Y1340954D01*
G01X-205631Y1347394D01*
G01X-205569Y1347840D01*
G01X-204708Y1354308D01*
G01X-204651Y1354753D01*
G01X-203872Y1361248D01*
G01X-203822Y1361691D01*
G01X-203125Y1368213D01*
G01X-203081Y1368655D01*
G01X-202466Y1375204D01*
G01X-202428Y1375642D01*
G01X-201895Y1382217D01*
G01X-201862Y1382654D01*
G01X-201411Y1389257D01*
G01X-201384Y1389692D01*
G01X-201015Y1396322D01*
G01X-200994Y1396753D01*
G01X-200707Y1403410D01*
G01X-200691Y1403837D01*
G01X-200486Y1410521D01*
G01X-200476Y1410948D01*
G01X-200353Y1417658D01*
G01X-200347Y1418080D01*
G01X-200306Y1425012D01*
G01X-200306Y1676316D01*
G01X-200306Y5274877D01*
G01X-200307Y5295198D01*
G01X-200347Y5301920D01*
G01X-200353Y5302343D01*
G01X-200476Y5309069D01*
G01X-200486Y5309496D01*
G01X-200691Y5316163D01*
G01X-200707Y5316591D01*
G01X-200994Y5323263D01*
G01X-201016Y5323695D01*
G01X-201384Y5330308D01*
G01X-201411Y5330744D01*
G01X-201863Y5337363D01*
G01X-201896Y5337800D01*
G01X-202428Y5344359D01*
G01X-202466Y5344797D01*
G01X-203082Y5351362D01*
G01X-203127Y5351804D01*
G01X-203822Y5358310D01*
G01X-203872Y5358753D01*
G01X-204654Y5365264D01*
G01X-204710Y5365708D01*
G01X-205569Y5372160D01*
G01X-205631Y5372606D01*
G01X-206577Y5379064D01*
G01X-206646Y5379512D01*
G01X-207668Y5385910D01*
G01X-207743Y5386357D01*
G01X-208853Y5392760D01*
G01X-208934Y5393209D01*
G01X-210120Y5399553D01*
G01X-210207Y5400003D01*
G01X-211482Y5406353D01*
G01X-211576Y5406803D01*
G01X-212926Y5413092D01*
G01X-213025Y5413540D01*
G01X-214464Y5419836D01*
G01X-214570Y5420287D01*
G01X-216084Y5426522D01*
G01X-216196Y5426971D01*
G01X-217800Y5433213D01*
G01X-217918Y5433661D01*
G01X-219595Y5439842D01*
G01X-219720Y5440290D01*
G01X-221488Y5446477D01*
G01X-221619Y5446925D01*
G01X-223465Y5453069D01*
G01X-223602Y5453512D01*
G01X-225524Y5459612D01*
G01X-225667Y5460055D01*
G01X-227682Y5466161D01*
G01X-227831Y5466603D01*
G01X-229918Y5472650D01*
G01X-230072Y5473088D01*
G01X-232252Y5479139D01*
G01X-232412Y5479575D01*
G01X-234662Y5485567D01*
G01X-234828Y5486002D01*
G01X-237172Y5491999D01*
G01X-237344Y5492429D01*
G01X-239757Y5498368D01*
G01X-239934Y5498796D01*
G01X-242443Y5504739D01*
G01X-242625Y5505163D01*
G01X-245202Y5511047D01*
G01X-245390Y5511468D01*
G01X-248063Y5517357D01*
G01X-248256Y5517775D01*
G01X-250997Y5523605D01*
G01X-251193Y5524016D01*
G01X-254023Y5529835D01*
G01X-254226Y5530245D01*
G01X-257145Y5536052D01*
G01X-257352Y5536456D01*
G01X-260338Y5542205D01*
G01X-260549Y5542606D01*
G01X-263633Y5548358D01*
G01X-263848Y5548753D01*
G01X-266998Y5554449D01*
G01X-267218Y5554840D01*
G01X-270466Y5560537D01*
G01X-270689Y5560923D01*
G01X-274011Y5566579D01*
G01X-274238Y5566960D01*
G01X-277633Y5572574D01*
G01X-277863Y5572949D01*
G01X-281357Y5578564D01*
G01X-281592Y5578936D01*
G01X-285151Y5584497D01*
G01X-285387Y5584861D01*
G01X-289045Y5590421D01*
G01X-289286Y5590781D01*
G01X-293008Y5596288D01*
G01X-293250Y5596642D01*
G01X-297072Y5602147D01*
G01X-297318Y5602496D01*
G01X-301204Y5607949D01*
G01X-301451Y5608291D01*
G01X-305553Y5613899D01*
G01X-637291Y6061759D01*
G02X-689186Y6219007I212291J157247D01*
G01X-689186Y6270000D01*
G01X-689136Y6278934D01*
G01X-688989Y6287581D01*
G01X-688746Y6296136D01*
G01X-688407Y6304591D01*
G01X-687972Y6312964D01*
G01X-687454Y6321040D01*
G01X-686832Y6329218D01*
G01X-686114Y6337319D01*
G01X-685301Y6345321D01*
G01X-684396Y6353224D01*
G01X-683394Y6361052D01*
G01X-682301Y6368779D01*
G01X-681113Y6376417D01*
G01X-679835Y6383954D01*
G01X-678460Y6391418D01*
G01X-676995Y6398782D01*
G01X-675440Y6406047D01*
G01X-673791Y6413230D01*
G01X-672049Y6420332D01*
G01X-670220Y6427327D01*
G01X-668296Y6434250D01*
G01X-666283Y6441074D01*
G01X-664180Y6447811D01*
G01X-661991Y6454449D01*
G01X-659706Y6461018D01*
G01X-657333Y6467490D01*
G01X-654872Y6473875D01*
G01X-652326Y6480163D01*
G01X-649683Y6486385D01*
G01X-646955Y6492511D01*
G01X-644138Y6498552D01*
G01X-641237Y6504499D01*
G01X-638238Y6510383D01*
G01X-635155Y6516171D01*
G01X-631984Y6521878D01*
G01X-628729Y6527493D01*
G01X-625374Y6533047D01*
G01X-621936Y6538509D01*
G01X-618409Y6543891D01*
G01X-614798Y6549184D01*
G01X-611085Y6554418D01*
G01X-607289Y6559564D01*
G01X-603402Y6564631D01*
G01X-599424Y6569622D01*
G01X-595363Y6574527D01*
G01X-591195Y6579374D01*
G01X-586943Y6584137D01*
G01X-582598Y6588824D01*
G01X-578160Y6593437D01*
G01X-573636Y6597968D01*
G01X-569003Y6602442D01*
G01X-564291Y6606825D01*
G01X-559466Y6611153D01*
G01X-554572Y6615384D01*
G01X-549563Y6619557D01*
G01X-544458Y6623658D01*
G01X-539238Y6627700D01*
G01X-533937Y6631657D01*
G01X-528555Y6635529D01*
G01X-523037Y6639354D01*
G01X-517446Y6643089D01*
G01X-511755Y6646752D01*
G01X-505953Y6650349D01*
G01X-500050Y6653874D01*
G01X-494028Y6657337D01*
G01X-487938Y6660707D01*
G01X-481709Y6664025D01*
G01X-475413Y6667250D01*
G01X-468977Y6670421D01*
G01X-462463Y6673506D01*
G01X-455828Y6676526D01*
G01X-449104Y6679464D01*
G01X-442258Y6682337D01*
G01X-435333Y6685124D01*
G01X-428267Y6687851D01*
G01X-421129Y6690490D01*
G01X-413851Y6693067D01*
G01X-406500Y6695557D01*
G01X-399026Y6697977D01*
G01X-391445Y6700321D01*
G01X-383742Y6702594D01*
G01X-375955Y6704783D01*
G01X-368046Y6706900D01*
G01X-360052Y6708935D01*
G01X-351721Y6710947D01*
G01X-343500Y6712828D01*
G01X-335174Y6714630D01*
G01X-326744Y6716354D01*
G01X-318195Y6718002D01*
G01X-309546Y6719570D01*
G01X-300789Y6721059D01*
G01X-291925Y6722470D01*
G01X-282953Y6723802D01*
G01X-273875Y6725054D01*
G01X-264694Y6726226D01*
G01X-255395Y6727320D01*
G01X-245995Y6728333D01*
G01X-236493Y6729265D01*
G01X-226873Y6730118D01*
G01X-217151Y6730890D01*
G01X-207324Y6731581D01*
G01X-197389Y6732192D01*
G01X-187353Y6732721D01*
G01X-177199Y6733169D01*
G01X-166955Y6733536D01*
G01X-156583Y6733821D01*
G01X-146122Y6734025D01*
G01X-135542Y6734146D01*
G01X-125000Y6734186D01*
G01X-664854Y6247977D02*
G03X-44026Y6247977I310414J0D01*
G03X-664854Y6247977I-310414J0D01*
G01X-664854Y474557D02*
G03X-44026Y474557I310414J0D01*
G03X-664854Y474557I-310414J0D01*
G01X80785Y1884989D02*
G03X252413Y1884989I85814J0D01*
G03X80785Y1884989I-85814J0D01*
G01X80785Y2684988D02*
G03X252413Y2684988I85814J0D01*
G03X80785Y2684988I-85814J0D01*
G01X486307Y4035380D02*
G03X687937Y4035380I100815J0D01*
G03X486307Y4035380I-100815J0D01*
G01X486307Y4525371D02*
G03X687937Y4525371I100815J0D01*
G03X486307Y4525371I-100815J0D01*
G01X2085827Y5825006D02*
G03X1814199Y5825006I-135814J0D01*
G03X2085827Y5825006I135814J0D01*
G01X2450012Y5439180D02*
G03X2503105Y5700000I0J135814D01*
G03X2450012Y5960820I-53093J125006D01*
G03X2396919Y5700000I0J-135814D01*
G03X2450012Y5439180I53093J-125006D01*
G01X5067376Y2501824D02*
G03X5056886Y2476500I25324J-25324D01*
G01X5056886Y2311400D01*
G03X5067376Y2286076I35814J0D01*
G01X5118176Y2235276D01*
G03X5143500Y2224786I25324J25324D01*
G01X9105900Y2224786D01*
G03X9131224Y2235276I0J35814D01*
G01X9258224Y2362276D01*
G03X9268714Y2387600I-25324J25324D01*
G01X9268714Y3547648D01*
G03X9273286Y3530497I65786J8352D01*
G01X9273286Y2232956D01*
G02X9260125Y2209929I-26725J0D01*
G03X9180542Y2138768I-13564J-64912D01*
G03X9272064Y2083803I66019J6249D01*
G01X9312325Y2083803D01*
G03X9356675Y2083803I22175J62497D01*
G01X9385053Y2083803D01*
G03X9476405Y2137180I25503J61214D01*
G03X9400133Y2210507I-65849J7837D01*
G02X9395714Y2221073I10423J10566D01*
G01X9395714Y3530497D01*
G03X9351581Y3620076I-61214J25503D01*
G03X9268714Y3564352I-17081J-64076D01*
G01X9268714Y4582565D01*
G01X9349335Y4663186D01*
G01X9842500Y4663186D01*
G03X9867824Y4673676I0J35814D01*
G01X9905924Y4711776D01*
G03X9916414Y4737100I-25324J25324D01*
G01X9916414Y4988121D01*
G03X9905924Y5013445I-35814J0D01*
G01X9877545Y5041824D01*
G03X9852221Y5052314I-25324J-25324D01*
G01X9446260Y5052314D01*
G01X9446514Y5054600D01*
G01X9446514Y5715000D01*
G03X9443464Y5722364I-10414J0D01*
G01X9367264Y5798564D01*
G03X9359900Y5801614I-7364J-7364D01*
G01X8597900Y5801614D01*
G03X8590536Y5798564I0J-10414D01*
G01X8514336Y5722364D01*
G03X8511286Y5715000I7364J-7364D01*
G01X8511286Y5067300D01*
G03X8514336Y5059936I10414J0D01*
G01X8590536Y4983736D01*
G03X8597900Y4980686I7364J7364D01*
G01X9128888Y4980686D01*
G01X9017076Y4868873D01*
G03X9006586Y4843549I25324J-25324D01*
G01X9006586Y2605635D01*
G01X8964065Y2563114D01*
G01X5204714Y2563114D01*
G01X5204714Y3086100D01*
G03X5186785Y3129385I-61214J0D01*
G01X5110585Y3205585D01*
G03X5067300Y3223514I-43285J-43285D01*
G01X4662698Y3223514D01*
G03X4662675Y3304315I-52598J40386D01*
G03X4584597Y3325114I-52575J-40415D01*
G01X3098756Y3325114D01*
G01X2982231Y3441638D01*
G03X2920978Y3533414I-61231J25462D01*
G03X2859786Y3441597I22J-66314D01*
G01X2859786Y3416300D01*
G03X2877715Y3373015I61214J0D01*
G01X3030115Y3220615D01*
G03X3073400Y3202686I43285J43285D01*
G01X4557666Y3202686D01*
G03X4557688Y3121885I52598J-40386D01*
G03X4635767Y3101086I52575J40415D01*
G01X5041944Y3101086D01*
G01X5082286Y3060744D01*
G01X5082286Y2516735D01*
G01X5067376Y2501824D01*
G01X3923605Y1002605D02*
G03X3962400Y986536I38795J38795D01*
G01X6642100Y986536D01*
G03X6680895Y1002605I0J54864D01*
G01X6931525Y1253236D01*
G01X7760551Y1253236D01*
G03X7864114Y1308100I37249J54864D01*
G03X7760551Y1362964I-66314J0D01*
G01X6908800Y1362964D01*
G03X6870005Y1346895I0J-54864D01*
G01X6619375Y1096264D01*
G01X3985125Y1096264D01*
G01X3547364Y1534025D01*
G01X3547364Y2644275D01*
G01X3657356Y2754266D01*
G03X3691791Y2866291I-12456J65134D01*
G03X3579766Y2831856I-46891J-46891D01*
G01X3453705Y2705795D01*
G03X3437636Y2667000I38795J-38795D01*
G01X3437636Y1511300D01*
G03X3453705Y1472505I54864J0D01*
G01X3923605Y1002605D01*
G01X4222764Y2015710D02*
G03X4219713Y2008346I7364J-7364D01*
G01X4219713Y1360646D01*
G03X4222764Y1353282I10414J0D01*
G01X4298964Y1277082D01*
G03X4306327Y1274032I7364J7364D01*
G01X5081027Y1274032D01*
G03X5088391Y1277082I0J10414D01*
G01X5151891Y1340582D01*
G03X5154941Y1347946I-7364J7364D01*
G01X5154941Y2008346D01*
G03X5151891Y2015710I-10414J0D01*
G01X5075691Y2091910D01*
G03X5068327Y2094960I-7364J-7364D01*
G01X4306327Y2094960D01*
G03X4298964Y2091910I0J-10414D01*
G01X4222764Y2015710D01*
G01X8242300Y1488714D02*
G03X8193786Y1377190I0J-66314D01*
G01X8193786Y896395D01*
G01X8125664Y828273D01*
G03X8081109Y715109I2336J-66273D01*
G03X8194273Y759664I46891J46891D01*
G01X8276605Y841995D01*
G03X8290814Y876300I-34305J34305D01*
G01X8290814Y1377190D01*
G03X8242300Y1488714I-48514J45210D01*
G01X8146886Y6451600D02*
G03X8388514Y6451600I120814J0D01*
G03X8146886Y6451600I-120814J0D01*
G01X8400886Y6451600D02*
G03X8642514Y6451600I120814J0D01*
G03X8400886Y6451600I-120814J0D01*
G01X9857536Y1953027D02*
G03X9902091Y2066191I-2336J66273D01*
G03X9788927Y2021636I-46891J-46891D01*
G01X9744695Y1977405D01*
G03X9730486Y1943100I34305J-34305D01*
G01X9730486Y1937510D01*
G03X9773839Y1826187I48514J-45210D01*
G03X9833942Y1929433I5161J66113D01*
G01X9857536Y1953027D01*
G01X9867288Y3605267D02*
G03X10068918Y3605267I100815J0D01*
G03X9867288Y3605267I-100815J0D01*
G01X9867288Y3115276D02*
G03X10068918Y3115276I100815J0D01*
G03X9867288Y3115276I-100815J0D01*
G01X10034892Y1616012D02*
G03X10176523Y1616012I70815J0D01*
G03X10034892Y1616012I-70815J0D01*
G01X10034892Y2194014D02*
G03X10176523Y2194014I70815J0D01*
G03X10034892Y2194014I-70815J0D01*
G01X10593366Y474557D02*
G03X11214193Y474557I310414J0D01*
G03X10593366Y474557I-310414J0D01*
G01X10593366Y6247980D02*
G03X11214194Y6247980I310414J0D01*
G03X10593366Y6247980I-310414J0D01*
G01X4113335Y6059365D02*
G01X3986335Y5932365D01*
G03X3990684Y5823821I52265J-52265D01*
G03X3969462Y5750814I41566J-51671D01*
G01X3966559Y5750814D01*
G01X3917268Y5800105D01*
G03X3882964Y5814314I-34305J-34305D01*
G01X3118610Y5814314D01*
G03X3033014Y5818398I-45210J-48514D01*
G01X3033014Y5862184D01*
G01X3231016Y6060186D01*
G01X4114169Y6060186D01*
G01X4113335Y6059365D01*
G01X4142486Y5326890D02*
G01X4142486Y5168900D01*
G03X4156695Y5134595I48514J0D01*
G01X4378677Y4912614D01*
G01X4325110Y4912614D01*
G03X4222393Y4897123I-45210J-48514D01*
G03X4260787Y4800600I57507J-33023D01*
G03X4222393Y4704077I19113J-63500D01*
G03X4325110Y4688586I57507J33023D01*
G01X4717005Y4688586D01*
G01X4764786Y4640805D01*
G01X4764786Y3911600D01*
G03X4778995Y3877295I48514J0D01*
G01X4962877Y3693414D01*
G01X4655595Y3693414D01*
G01X4480814Y3868195D01*
G01X4480814Y4044190D01*
G03X4432300Y4155714I-48514J45210D01*
G03X4383786Y4044190I0J-66314D01*
G01X4383786Y3848100D01*
G03X4397995Y3813795I48514J0D01*
G01X4581877Y3629914D01*
G01X4503195Y3629914D01*
G01X4226814Y3906295D01*
G01X4226814Y4044190D01*
G03X4211323Y4146907I-48514J45210D01*
G03X4114800Y4108513I-33023J-57507D01*
G03X4010914Y4141998I-63500J-19113D01*
G01X4010914Y4475705D01*
G01X4123705Y4588495D01*
G03X4137914Y4622800I-34305J34305D01*
G01X4137914Y5332358D01*
G03X4142486Y5326890I53086J39742D01*
G01X4391914Y5265195D02*
G01X4391914Y5448300D01*
G03X4377705Y5482605I-48514J0D01*
G01X4123705Y5736605D01*
G03X4116281Y5742686I-34305J-34305D01*
G01X5381977Y5742686D01*
G01X5261595Y5622305D01*
G03X5247386Y5588000I34305J-34305D01*
G01X5247386Y5016500D01*
G03X5261595Y4982195I48514J0D01*
G01X5375895Y4867895D01*
G03X5410200Y4853686I34305J34305D01*
G01X6177505Y4853686D01*
G01X6187186Y4844005D01*
G01X6187186Y4657658D01*
G03X6122755Y4652603I-27686J-60258D01*
G03X6093225Y4595114I36745J-55203D01*
G01X5122259Y4595114D01*
G01X5077714Y4639659D01*
G01X5077714Y4762500D01*
G03X5063505Y4796805I-48514J0D01*
G01X4771405Y5088905D01*
G03X4737100Y5103114I-34305J-34305D01*
G01X4553995Y5103114D01*
G01X4391914Y5265195D01*
G01X5443039Y5141704D02*
G03X5477344Y5155913I0J48514D01*
G01X5495305Y5173874D01*
G03X5509514Y5208178I-34305J34305D01*
G01X5509514Y5324657D01*
G03X5495304Y5358962I-48514J0D01*
G01X5477344Y5376923D01*
G03X5443039Y5391132I-34304J-34305D01*
G01X5435854Y5391132D01*
G01X5435854Y5456145D01*
G01X5436062Y5456353D01*
G03X5537592Y5481896I40833J52252D01*
G03X5487836Y5574010I-60697J26709D01*
G03X5538503Y5624723I-14136J64790D01*
G03X5513442Y5691886I-64803J14077D01*
G01X7518400Y5691886D01*
G03X7552705Y5706095I0J48514D01*
G01X7578105Y5731495D01*
G03X7592314Y5765800I-34305J34305D01*
G01X7592314Y6075905D01*
G01X7678195Y6161786D01*
G01X8252177Y6161786D01*
G01X8207995Y6117605D01*
G03X8193786Y6083300I34305J-34305D01*
G01X8193786Y4096795D01*
G01X8087614Y3990623D01*
G01X8087614Y5308497D01*
G03X8026400Y5400314I-61214J25503D01*
G03X7965186Y5308497I0J-66314D01*
G01X7965186Y3987756D01*
G01X7785354Y3807924D01*
G01X7785354Y5033334D01*
G03X7771145Y5067638I-48514J0D01*
G01X7709238Y5129545D01*
G03X7674934Y5143754I-34305J-34305D01*
G01X6462846Y5143754D01*
G01X6459295Y5147305D01*
G03X6424990Y5161514I-34305J-34305D01*
G01X6376610Y5161514D01*
G03X6342305Y5147305I0J-48514D01*
G01X6315252Y5120252D01*
G03X6258998Y5044907I9348J-65652D01*
G01X6243545Y5029454D01*
G01X5503955Y5029454D01*
G01X5435854Y5097555D01*
G01X5435854Y5141704D01*
G01X5443039Y5141704D01*
G01X7855843Y5516712D02*
G01X7207505Y5516712D01*
G03X7115688Y5455498I-25503J-61214D01*
G03X7207505Y5394284I66314J0D01*
G01X7881198Y5394284D01*
G03X7924483Y5412214I0J61214D01*
G01X8026252Y5513982D01*
G03X8047891Y5622191I-25252J61318D01*
G03X7939682Y5600552I-46891J-46891D01*
G01X7855843Y5516712D01*
G04 Copper End*

G04 PolygonModel Start*
G36*
G01X5143500Y2527300D02*
G01X8978900Y2527300D01*
G01X9042400Y2590800D01*
G01X9042400Y4843549D01*
G01X9215351Y5016500D01*
G01X9852221Y5016500D01*
G01X9880600Y4988121D01*
G01X9880600Y4737100D01*
G01X9842500Y4699000D01*
G01X9334500Y4699000D01*
G01X9232900Y4597400D01*
G01X9232900Y2387600D01*
G01X9105900Y2260600D01*
G01X5143500Y2260600D01*
G01X5092700Y2311400D01*
G01X5092700Y2476500D01*
G01X5143500Y2527300D01*
G37*

G04 Pad Start*
G54D11*
G01X10053688Y1472502D03*
G01X10053688Y2337499D03*
G54D12*
G01X10473703Y1472502D03*
G01X10473703Y2337499D03*
G54D13*
G01X-354440Y474557D03*
G01X-354440Y6247977D03*
G54D14*
G01X7759700Y6451600D03*
G54D15*
G01X8013700Y6451600D03*
G01X8267700Y6451600D03*
G01X8521700Y6451600D03*
G01X8775700Y6451600D03*
G01X9029700Y6451600D03*
G54D13*
G01X10903780Y474557D03*
G01X10903780Y6247977D03*
G54D17*
G01X2200025Y5825006D03*
G01X1950013Y5825006D03*
G01X2450012Y5825006D03*
G54D18*
G01X1659996Y5699987D03*
G01X2740004Y5699987D03*
G54D17*
G01X2450012Y5574994D03*
G01X1950013Y5574994D03*
G04 Pad End*

G04 Via Start*
G54D19*
G01X1663700Y2349500D03*
G01X1689100Y5105400D03*
G01X2616200Y5000718D03*
G01X2921000Y3467100D03*
G01X3213100Y4343400D03*
G01X3644900Y2819400D03*
G01X3848100Y3492500D03*
G01X4025900Y5626100D03*
G01X4032250Y5772150D03*
G01X4038600Y5880100D03*
G01X4051300Y4089400D03*
G01X4089400Y5499100D03*
G01X4178300Y4089400D03*
G01X4191000Y5372100D03*
G01X4254500Y5245608D03*
G01X4279900Y4737100D03*
G01X4279900Y4864100D03*
G01X4432300Y4089400D03*
G01X4610100Y3263900D03*
G01X3073400Y5765800D03*
G01X4940300Y4086403D03*
G01X5067300Y4086403D03*
G54D20*
G01X5143500Y2338849D03*
G01X5143500Y2451100D03*
G54D19*
G01X5194300Y4086403D03*
G54D20*
G01X5257800Y2340727D03*
G01X5257800Y2451100D03*
G54D19*
G01X5321300Y4089400D03*
G01X5448300Y4089400D03*
G01X5473700Y5638800D03*
G01X5476895Y5508605D03*
G01X6019800Y6007100D03*
G01X6159500Y4597400D03*
G01X6235700Y4546600D03*
G01X6324600Y5054600D03*
G01X6350000Y4483100D03*
G01X6400800Y5054600D03*
G01X6781800Y3441700D03*
G01X6845300Y3505200D03*
G01X6908800Y3581400D03*
G01X7073900Y3644900D03*
G01X7137400Y3771900D03*
G01X7182002Y5455498D03*
G01X7238051Y3771900D03*
G01X7340600Y4105036D03*
G01X7451818Y4169561D03*
G01X7538317Y2889180D03*
G01X7519412Y4230125D03*
G01X7474123Y4292600D03*
G01X7493000Y4419600D03*
G01X7538987Y4351287D03*
G01X7616917Y2889180D03*
G01X7658100Y2743200D03*
G01X7759700Y2721811D03*
G01X7797800Y1308100D03*
G01X8001000Y5575300D03*
G01X8026400Y5334000D03*
G01X8128000Y762000D03*
G01X8242300Y1422400D03*
G01X9246561Y2145017D03*
G01X9334500Y2146300D03*
G01X9334500Y3556000D03*
G01X9410556Y2145017D03*
G54D20*
G01X9709150Y4815349D03*
G01X9709150Y4927600D03*
G54D19*
G01X9779000Y1892300D03*
G54D20*
G01X9823450Y4927600D03*
G01X9823450Y4817227D03*
G54D19*
G01X9855200Y2019300D03*
G01X4610264Y3162300D03*
G01X2602636Y5105400D03*
G01X3365500Y6134100D03*
G01X4584700Y5168900D03*
G01X4660900Y5168900D03*
G01X4737100Y5168900D03*
G01X4813300Y5168900D03*
G01X4889500Y5092700D03*
G01X4889500Y5168900D03*
G01X4889500Y5245100D03*
G01X4889500Y5321300D03*
G01X4889500Y5397500D03*
G01X4889500Y5473700D03*
G01X4889500Y5549900D03*
G01X4889500Y5626100D03*
G01X4889500Y5702300D03*
G01X4965700Y5016500D03*
G01X4965700Y5092700D03*
G01X4965700Y5168900D03*
G01X4965700Y5245100D03*
G01X4965700Y5321300D03*
G01X4965700Y5397500D03*
G01X4965700Y5473700D03*
G01X4965700Y5549900D03*
G01X4965700Y5626100D03*
G01X4965700Y5702300D03*
G01X5041900Y4940300D03*
G01X5041900Y5016500D03*
G01X5041900Y5092700D03*
G01X5041900Y5168900D03*
G01X5041900Y5245100D03*
G01X5041900Y5321300D03*
G01X5041900Y5397500D03*
G01X5041900Y5473700D03*
G01X5041900Y5549900D03*
G01X5041900Y5626100D03*
G01X4216400Y4419600D03*
G01X4216400Y4495800D03*
G01X4216400Y4572000D03*
G01X4216400Y4648200D03*
G01X4292600Y4419600D03*
G01X4292600Y4495800D03*
G01X4292600Y4572000D03*
G01X4292600Y4648200D03*
G01X4368800Y4419600D03*
G01X4368800Y4495800D03*
G01X4368800Y4572000D03*
G01X4368800Y4648200D03*
G01X4445000Y4419600D03*
G01X4445000Y4495800D03*
G01X4445000Y4572000D03*
G01X4445000Y4648200D03*
G01X4521200Y4419600D03*
G01X4521200Y4495800D03*
G01X4521200Y4572000D03*
G01X4521200Y4648200D03*
G01X4597400Y4419600D03*
G01X4597400Y4495800D03*
G01X4597400Y4572000D03*
G01X4597400Y4648200D03*
G01X4673600Y4419600D03*
G01X4673600Y4495800D03*
G01X4673600Y4572000D03*
G01X4673600Y4648200D03*
G01X3340100Y3924300D03*
G01X3340100Y4000500D03*
G01X3340100Y4076700D03*
G01X3340100Y4152900D03*
G01X3340100Y4229100D03*
G01X3416300Y3924300D03*
G01X3416300Y4000500D03*
G01X3416300Y4076700D03*
G01X3416300Y4152900D03*
G01X3416300Y4229100D03*
G01X3416300Y4305300D03*
G01X3416300Y4381500D03*
G01X3416300Y4457700D03*
G01X3492500Y3543300D03*
G01X3492500Y3619500D03*
G01X3492500Y3695700D03*
G01X3492500Y3771900D03*
G01X3492500Y3848100D03*
G01X3492500Y3924300D03*
G01X3492500Y4000500D03*
G01X3492500Y4076700D03*
G01X3492500Y4152900D03*
G01X3492500Y4229100D03*
G01X3492500Y4305300D03*
G01X3492500Y4381500D03*
G01X3568700Y3543300D03*
G01X3568700Y3619500D03*
G01X3568700Y3695700D03*
G01X3568700Y3771900D03*
G01X3568700Y3848100D03*
G01X3568700Y3924300D03*
G01X3568700Y4000500D03*
G01X3568700Y4076700D03*
G01X3568700Y4152900D03*
G01X3568700Y4229100D03*
G01X3568700Y4305300D03*
G01X3644900Y3543300D03*
G01X3644900Y3619500D03*
G01X3644900Y3695700D03*
G01X3644900Y3771900D03*
G01X3644900Y3848100D03*
G01X3644900Y3924300D03*
G01X3644900Y4000500D03*
G01X3644900Y4076700D03*
G01X3644900Y4152900D03*
G01X3644900Y4229100D03*
G01X3721100Y3543300D03*
G01X3721100Y3619500D03*
G01X3721100Y3695700D03*
G01X3721100Y3771900D03*
G01X3721100Y3848100D03*
G01X3721100Y3924300D03*
G01X3721100Y4000500D03*
G01X3721100Y4076700D03*
G01X3721100Y4152900D03*
G01X3721100Y4229100D03*
G01X1333500Y4838700D03*
G01X1409700Y4838700D03*
G01X1409700Y4762500D03*
G01X1333500Y4762500D03*
G01X1117600Y3962400D03*
G01X1193800Y3962400D03*
G01X1193800Y3886200D03*
G01X1117600Y3886200D03*
G01X1320800Y3962400D03*
G01X1397000Y3962400D03*
G01X1397000Y3886200D03*
G01X1320800Y3886200D03*
G01X1066800Y4279900D03*
G01X1092200Y4508500D03*
G01X2565400Y4673600D03*
G01X2641600Y4673600D03*
G01X2641600Y4597400D03*
G01X2565400Y4597400D03*
G01X2400300Y4673600D03*
G01X2476500Y4673600D03*
G01X2476500Y4597400D03*
G01X2400300Y4597400D03*
G01X2222500Y4673600D03*
G01X2298700Y4673600D03*
G01X2298700Y4597400D03*
G01X2222500Y4597400D03*
G01X2044700Y4673600D03*
G01X2120900Y4673600D03*
G01X2120900Y4597400D03*
G01X2044700Y4597400D03*
G01X2451100Y4064000D03*
G01X2527300Y4064000D03*
G01X2527300Y3987800D03*
G01X2451100Y3987800D03*
G01X2590800Y3708400D03*
G01X2667000Y3708400D03*
G01X2667000Y3632200D03*
G01X2590800Y3632200D03*
G01X1308100Y3048000D03*
G01X1384300Y3048000D03*
G01X1384300Y2971800D03*
G01X1308100Y2971800D03*
G01X1123024Y2524993D03*
G01X1047703Y2524993D03*
G01X1041400Y2806700D03*
G01X1117600Y2806700D03*
G01X1117600Y2730500D03*
G01X1041400Y2730500D03*
G01X1422400Y1968500D03*
G01X1498600Y1968500D03*
G01X1498600Y1892300D03*
G01X1422400Y1892300D03*
G01X3581400Y6311900D03*
G01X3657600Y6311900D03*
G01X3657600Y6235700D03*
G01X3581400Y6235700D03*
G01X6337300Y6553200D03*
G01X6413500Y6553200D03*
G01X6413500Y6477000D03*
G01X6337300Y6477000D03*
G01X6337300Y6400800D03*
G01X6413500Y6400800D03*
G01X6413500Y6324600D03*
G01X6337300Y6324600D03*
G01X6883400Y6527800D03*
G01X6883400Y6454814D03*
G01X6883400Y6367600D03*
G01X7391400Y6438900D03*
G01X7470244Y6438900D03*
G01X7391400Y6362700D03*
G01X6718300Y5397500D03*
G01X6794500Y5397500D03*
G01X6794500Y5321300D03*
G01X6718300Y5321300D03*
G01X8369300Y4241800D03*
G01X8369300Y4318000D03*
G01X8369300Y4394200D03*
G01X8369300Y4470400D03*
G01X8369300Y4546600D03*
G01X8369300Y4622800D03*
G01X8369300Y4699000D03*
G01X8369300Y4775200D03*
G01X8369300Y4851400D03*
G01X8369300Y4927600D03*
G01X8445500Y4241800D03*
G01X8445500Y4318000D03*
G01X8445500Y4394200D03*
G01X8445500Y4470400D03*
G01X8445500Y4546600D03*
G01X8445500Y4622800D03*
G01X8445500Y4699000D03*
G01X8445500Y4775200D03*
G01X8445500Y4851400D03*
G01X8521700Y4241800D03*
G01X8521700Y4318000D03*
G01X8521700Y4394200D03*
G01X8521700Y4470400D03*
G01X8597900Y4241800D03*
G01X8597900Y4318000D03*
G01X8597900Y4394200D03*
G01X8597900Y4470400D03*
G01X8674100Y4394200D03*
G01X8674100Y4470400D03*
G01X8750300Y4470400D03*
G01X8826500Y4470400D03*
G01X9601200Y2870200D03*
G01X9677400Y2870200D03*
G01X9677400Y2794000D03*
G01X9601200Y2794000D03*
G01X9601200Y2705100D03*
G01X9677400Y2705100D03*
G01X9677400Y2628900D03*
G01X9601200Y2628900D03*
G01X9753600Y2324100D03*
G01X9829800Y2324100D03*
G01X9829800Y2247900D03*
G01X9753600Y2247900D03*
G01X9588500Y2324100D03*
G01X9664700Y2324100D03*
G01X9664700Y2247900D03*
G01X9588500Y2247900D03*
G01X9512300Y1752600D03*
G01X9588500Y1752600D03*
G01X9588500Y1676400D03*
G01X9512300Y1676400D03*
G01X9347200Y1752600D03*
G01X9423400Y1752600D03*
G01X9423400Y1676400D03*
G01X9347200Y1676400D03*
G01X10236200Y1587500D03*
G01X10312400Y1587500D03*
G01X10312400Y1511300D03*
G01X10236200Y1511300D03*
G01X9829800Y1536700D03*
G01X9906000Y1536700D03*
G01X9906000Y1460500D03*
G01X9829800Y1460500D03*
G01X8890000Y838200D03*
G01X8966200Y838200D03*
G01X8966200Y762000D03*
G01X8890000Y762000D03*
G01X8928100Y1092200D03*
G01X9004300Y1092200D03*
G01X9004300Y1016000D03*
G01X8928100Y1016000D03*
G01X8928100Y1282700D03*
G01X9004300Y1282700D03*
G01X9004300Y1206500D03*
G01X8928100Y1206500D03*
G01X8242300Y749300D03*
G01X7797800Y1028700D03*
G01X8080990Y1185111D03*
G01X8080990Y854911D03*
G01X5334000Y3314700D03*
G01X5410200Y3314700D03*
G01X5410200Y3238500D03*
G01X5334000Y3238500D03*
G01X5168900Y3314700D03*
G01X5245100Y3314700D03*
G01X5245100Y3238500D03*
G01X5168900Y3238500D03*
G01X4152900Y2540000D03*
G01X4229100Y2540000D03*
G01X4229100Y2463800D03*
G01X4152900Y2463800D03*
G01X4152900Y2374900D03*
G01X4229100Y2374900D03*
G01X4229100Y2298700D03*
G01X4152900Y2298700D03*
G01X5207000Y1866900D03*
G01X5283200Y1866900D03*
G01X5283200Y1790700D03*
G01X5207000Y1790700D03*
G01X5194300Y1587500D03*
G01X5270500Y1587500D03*
G01X5270500Y1511300D03*
G01X5194300Y1511300D03*
G01X4000500Y6007100D03*
G01X3098800Y5880100D03*
G01X3149600Y5930900D03*
G01X3200400Y5981700D03*
G01X3365500Y6019800D03*
G01X3281633Y6019800D03*
G01X3327400Y5232400D03*
G01X3327400Y5308600D03*
G01X3327400Y5384800D03*
G01X3327400Y5461000D03*
G01X3327400Y5537200D03*
G01X3327400Y5613400D03*
G01X3403600Y5232400D03*
G01X3403600Y5308600D03*
G01X3403600Y5384800D03*
G01X3403600Y5461000D03*
G01X3403600Y5537200D03*
G01X3403600Y5613400D03*
G01X3479800Y5232400D03*
G01X3479800Y5308600D03*
G01X3479800Y5384800D03*
G01X3479800Y5461000D03*
G01X3479800Y5537200D03*
G01X3479800Y5613400D03*
G01X3556000Y5232400D03*
G01X3556000Y5308600D03*
G01X3556000Y5384800D03*
G01X3556000Y5461000D03*
G01X3556000Y5537200D03*
G01X3556000Y5613400D03*
G01X3632200Y5232400D03*
G01X3632200Y5308600D03*
G01X3632200Y5384800D03*
G01X3632200Y5461000D03*
G01X3632200Y5537200D03*
G01X3632200Y5613400D03*
G01X3708400Y5232400D03*
G01X3708400Y5308600D03*
G01X3708400Y5384800D03*
G01X3708400Y5461000D03*
G01X3708400Y5537200D03*
G01X3708400Y5613400D03*
G01X5270500Y4826000D03*
G01X5346700Y4826000D03*
G01X5346700Y4749800D03*
G01X5270500Y4749800D03*
G01X7505700Y5194300D03*
G01X7505700Y5291340D03*
G01X7505700Y5364459D03*
G01X7353300Y3797300D03*
G01X7429500Y3797300D03*
G01X7429500Y3721100D03*
G01X7353300Y3721100D03*
G01X7353300Y3632200D03*
G01X7429500Y3632200D03*
G01X7429500Y3556000D03*
G01X7353300Y3556000D03*
G01X6972300Y3492500D03*
G01X7048500Y3492500D03*
G01X7048500Y3416300D03*
G01X6972300Y3416300D03*
G01X7137400Y3492500D03*
G01X7213600Y3492500D03*
G01X7213600Y3416300D03*
G01X7137400Y3416300D03*
G01X5854700Y3136900D03*
G01X5854700Y3060700D03*
G01X10210800Y4165600D03*
G01X10287000Y4165600D03*
G01X10287000Y4089400D03*
G01X10210800Y4089400D03*
G01X10528300Y4787900D03*
G01X10604500Y4787900D03*
G01X10604500Y4711700D03*
G01X10528300Y4711700D03*
G01X10363200Y4787900D03*
G01X10439400Y4787900D03*
G01X10439400Y4711700D03*
G01X10363200Y4711700D03*
G01X9591866Y6096900D03*
G01X9668066Y6096900D03*
G01X9668066Y6020700D03*
G01X9591866Y6020700D03*
G01X9753600Y6096000D03*
G01X9829800Y6096000D03*
G01X9829800Y6019800D03*
G01X9753600Y6019800D03*
G01X9918700Y6096000D03*
G01X9994900Y6096000D03*
G01X9994900Y6019800D03*
G01X9918700Y6019800D03*
G01X10083800Y6096000D03*
G01X10160000Y6096000D03*
G01X10160000Y6019800D03*
G01X10083800Y6019800D03*
G01X10248900Y6096000D03*
G01X10325100Y6096000D03*
G01X10325100Y6019800D03*
G01X10248900Y6019800D03*
G01X10414000Y6096000D03*
G01X10490200Y6096000D03*
G01X10490200Y6019800D03*
G01X10414000Y6019800D03*
G01X6311900Y3962400D03*
G01X6390678Y3962400D03*
G01X6310071Y3891919D03*
G01X6393982Y3891919D03*
G01X8369300Y4038600D03*
G01X8623300Y3937000D03*
G01X8623300Y4013200D03*
G01X8547100Y4013200D03*
G01X8547100Y3937000D03*
G01X8153400Y3797300D03*
G01X8064500Y3708400D03*
G01X8001000Y3644900D03*
G01X7924800Y3568700D03*
G01X7848600Y3492500D03*
G01X4978400Y2870200D03*
G01X4978400Y2800000D03*
G01X4978400Y2695938D03*
G01X4643915Y2913974D03*
G01X4318000Y2781300D03*
G01X4318000Y2698912D03*
G01X4318000Y2623590D03*
G01X3746500Y2971800D03*
G01X3746500Y3048000D03*
G01X3670300Y3048000D03*
G01X3670300Y2971800D03*
G01X8178800Y4775200D03*
G01X8178800Y4851400D03*
G01X8102600Y4851400D03*
G01X8102600Y4775200D03*
G01X7912100Y5016500D03*
G01X7912100Y5092700D03*
G01X7835900Y5092700D03*
G01X7835900Y5016500D03*
G01X9804400Y4521200D03*
G01X9804400Y4597400D03*
G01X9728200Y4597400D03*
G01X9728200Y4521200D03*
G01X9804400Y4356100D03*
G01X9804400Y4432300D03*
G01X9728200Y4432300D03*
G01X9728200Y4356100D03*
G01X8953500Y2616200D03*
G01X8953500Y2692400D03*
G01X8877300Y2692400D03*
G01X8877300Y2616200D03*
G01X7874000Y2095500D03*
G01X7874000Y2171700D03*
G01X7797800Y2171700D03*
G01X7797800Y2095500D03*
G01X7924800Y2603500D03*
G01X7924800Y2679700D03*
G01X7848600Y2679700D03*
G01X7848600Y2603500D03*
G01X7416800Y2603500D03*
G01X7416800Y2679700D03*
G01X7340600Y2679700D03*
G01X7340600Y2603500D03*
G01X7467600Y2108200D03*
G01X7467600Y2184400D03*
G01X7391400Y2184400D03*
G01X7391400Y2108200D03*
G01X1079500Y4775200D03*
G01X1079500Y4851400D03*
G01X1003300Y4851400D03*
G01X1003300Y4775200D03*
G01X1092200Y6223000D03*
G01X1092200Y6299200D03*
G01X1016000Y6299200D03*
G01X1016000Y6223000D03*
G01X4241800Y4965700D03*
G01X4165600Y5041900D03*
G01X4165600Y4965700D03*
G01X4013200Y4940300D03*
G01X4013200Y5019212D03*
G01X4013200Y5107747D03*
G01X8064500Y6134100D03*
G01X8064500Y6058622D03*
G01X7861300Y6134100D03*
G01X7861300Y6054658D03*
G01X7861300Y5973611D03*
G01X8191500Y6134100D03*
G01X8521700Y6083300D03*
G01X8521700Y5992771D03*
G01X6273800Y3289300D03*
G01X6273800Y3365500D03*
G01X6197600Y3365500D03*
G01X6197600Y3289300D03*
G01X6489700Y3289300D03*
G01X6489700Y3365500D03*
G01X6413500Y3365500D03*
G01X6413500Y3289300D03*
G01X7480300Y3289300D03*
G01X7480300Y3365500D03*
G01X7404100Y3365500D03*
G01X7404100Y3289300D03*
G01X6223000Y2806700D03*
G01X6223000Y2882900D03*
G01X6146800Y2882900D03*
G01X6146800Y2806700D03*
G01X6426200Y2806700D03*
G01X6426200Y2882900D03*
G01X6350000Y2882900D03*
G01X6350000Y2806700D03*
G01X6642100Y2806700D03*
G01X6642100Y2882900D03*
G01X6565900Y2882900D03*
G01X6565900Y2806700D03*
G01X6858000Y2806700D03*
G01X6858000Y2882900D03*
G01X6781800Y2882900D03*
G01X6781800Y2806700D03*
G01X7073900Y2806700D03*
G01X7073900Y2882900D03*
G01X6997700Y2882900D03*
G01X6997700Y2806700D03*
G01X5943346Y2798268D03*
G01X5943346Y2874468D03*
G01X5867146Y2874468D03*
G01X5867146Y2798268D03*
G01X5283200Y1968500D03*
G01X5283200Y2044700D03*
G01X5207000Y2044700D03*
G01X5207000Y1968500D03*
G01X4406900Y1130300D03*
G01X4406900Y1206500D03*
G01X4330700Y1206500D03*
G01X4330700Y1130300D03*
G01X4622800Y1130300D03*
G01X4622800Y1206500D03*
G01X4546600Y1206500D03*
G01X4546600Y1130300D03*
G01X4838700Y1130300D03*
G01X4838700Y1206500D03*
G01X4762500Y1206500D03*
G01X4762500Y1130300D03*
G01X5067300Y1130300D03*
G01X5067300Y1206500D03*
G01X4991100Y1206500D03*
G01X4991100Y1130300D03*
G01X8966200Y3238500D03*
G01X8966200Y3314700D03*
G01X8890000Y3314700D03*
G01X8890000Y3238500D03*
G01X9461500Y3251200D03*
G01X9461500Y3463116D03*
G01X1562100Y4089400D03*
G01X1562100Y4454865D03*
G01X2260600Y4889500D03*
G01X2170789Y4889500D03*
G01X2063753Y4889500D03*
G01X1951763Y4889500D03*
G01X1866900Y4851400D03*
G01X1790700Y4775200D03*
G01X2288935Y3693611D03*
G01X2288935Y3769811D03*
G01X2212735Y3769811D03*
G01X2212735Y3693611D03*
G01X2286000Y3517900D03*
G01X2286000Y3594100D03*
G01X2209800Y3594100D03*
G01X2209800Y3517900D03*
G01X5918200Y2108200D03*
G01X5918200Y2184400D03*
G01X5842000Y2184400D03*
G01X5842000Y2108200D03*
G01X9550400Y5092700D03*
G01X9550400Y5168900D03*
G01X9474200Y5168900D03*
G01X9474200Y5092700D03*
G01X9702800Y5092700D03*
G01X9702800Y5168900D03*
G01X9626600Y5168900D03*
G01X9626600Y5092700D03*
G01X9855200Y5092700D03*
G01X9855200Y5168900D03*
G01X9779000Y5168900D03*
G01X9779000Y5092700D03*
G01X5473700Y5880100D03*
G01X6007100Y5588000D03*
G01X6007100Y5664200D03*
G01X5930900Y5664200D03*
G01X5930900Y5588000D03*
G01X6172200Y5588000D03*
G01X6172200Y5664200D03*
G01X6096000Y5664200D03*
G01X6096000Y5588000D03*
G01X6007100Y5435600D03*
G01X6007100Y5511800D03*
G01X5930900Y5511800D03*
G01X6172200Y5435600D03*
G01X6172200Y5511800D03*
G01X6096000Y5511800D03*
G01X6096000Y5435600D03*
G01X6096000Y5359400D03*
G01X6134100Y5283200D03*
G01X6134100Y5196683D03*
G01X6172200Y5118100D03*
G01X5880100Y5892800D03*
G01X5974485Y5892800D03*
G01X6172200Y6019800D03*
G01X6946900Y5321300D03*
G01X6946900Y5397500D03*
G01X6870700Y5397500D03*
G01X6870700Y5321300D03*
G01X7302500Y5651500D03*
G01X7302500Y5568830D03*
G01X7823200Y5600700D03*
G01X7823200Y5695851D03*
G01X8178800Y4114800D03*
G01X2006600Y3060700D03*
G01X2133600Y3060700D03*
G01X2260600Y3060700D03*
G01X2387600Y3060700D03*
G01X2514600Y3060700D03*
G01X2641600Y3060700D03*
G01X2768600Y3060700D03*
G01X2895600Y3060700D03*
G01X3022600Y3060700D03*
G01X3149600Y3060700D03*
G01X3276600Y3060700D03*
G01X3403600Y3060700D03*
G01X3581400Y3060700D03*
G01X1117600Y2120900D03*
G01X990600Y2120900D03*
G01X900798Y2210702D03*
G01X810995Y2300505D03*
G01X749300Y2449450D03*
G01X749300Y2576450D03*
G01X749300Y2703450D03*
G01X749300Y2830450D03*
G01X749300Y2957450D03*
G01X749300Y3084450D03*
G01X775074Y3200774D03*
G01X864876Y3290576D03*
G01X976624Y3327400D03*
G01X1103624Y3327400D03*
G01X1230624Y3327400D03*
G01X1357624Y3327400D03*
G01X1484624Y3327400D03*
G01X7632700Y5930900D03*
G01X7632700Y6007280D03*
G01X8699500Y4013200D03*
G01X8699500Y3937000D03*
G01X1409700Y2540000D03*
G01X1409700Y2438400D03*
G01X977900Y2527300D03*
G01X1409700Y5232400D03*
G01X1409700Y5308600D03*
G01X1333500Y5308600D03*
G01X1333500Y5232400D03*
G01X7073900Y4508500D03*
G01X7073900Y4584700D03*
G01X6997700Y4584700D03*
G01X6997700Y4508500D03*
G01X6896100Y4508500D03*
G01X6896100Y4584700D03*
G01X6819900Y4584700D03*
G01X6819900Y4508500D03*
G01X6718300Y4584700D03*
G01X6622713Y4584700D03*
G01X6522368Y4584700D03*
G01X6418677Y4584700D03*
G01X7162800Y4508500D03*
G01X9512300Y952510D03*
G01X9525000Y1168400D03*
G04 Via End*

G04 Track Start*
G54D21*
G01X4089400Y4622800D02*
G01X3962400Y4495800D01*
G01X4025900Y5524500D02*
G01X4025900Y5626100D01*
G01X4051300Y5791200D02*
G01X4032250Y5772150D01*
G01X4051300Y3835400D02*
G01X4051300Y4089400D01*
G01X4089400Y4622800D02*
G01X4089400Y5499100D01*
G54D22*
G01X4165600Y6007100D02*
G01X4038600Y5880100D01*
G54D21*
G01X4267200Y3441700D02*
G01X3962400Y3746500D01*
G01X4178300Y3886200D02*
G01X4178300Y4089400D01*
G01X4191000Y5168900D02*
G01X4191000Y5372100D01*
G01X4381500Y3505200D02*
G01X4051300Y3835400D01*
G01X4089400Y5702300D02*
G01X4343400Y5448300D01*
G01X4432300Y4927600D02*
G01X4191000Y5168900D01*
G01X4483100Y3581400D02*
G01X4178300Y3886200D01*
G01X4343400Y5448300D02*
G01X4343400Y5245100D01*
G01X4254500Y5245608D02*
G01X4509008Y4991100D01*
G01X4432300Y3848100D02*
G01X4432300Y4089400D01*
G01X4343400Y5245100D02*
G01X4533900Y5054600D01*
G01X4279900Y4864100D02*
G01X4686300Y4864100D01*
G01X4737100Y4737100D02*
G01X4279900Y4737100D01*
G01X4635500Y3644900D02*
G01X4432300Y3848100D01*
G01X4711700Y4927600D02*
G01X4432300Y4927600D01*
G01X4509008Y4991100D02*
G01X4724400Y4991100D01*
G01X4533900Y5054600D02*
G01X4737100Y5054600D01*
G01X4813300Y4660900D02*
G01X4737100Y4737100D01*
G01X4686300Y4864100D02*
G01X4864100Y4686300D01*
G01X4813300Y3911600D02*
G01X4813300Y4660900D01*
G01X4927600Y4711700D02*
G01X4711700Y4927600D01*
G01X4724400Y4991100D02*
G01X4978400Y4737100D01*
G01X4864100Y3937000D02*
G01X4864100Y4686300D01*
G01X4737100Y5054600D02*
G01X5029200Y4762500D01*
G01X5016500Y3708400D02*
G01X4813300Y3911600D01*
G01X4940300Y4000500D02*
G01X4940300Y4086403D01*
G01X5029200Y3771900D02*
G01X4864100Y3937000D01*
G01X5080000Y3860800D02*
G01X4940300Y4000500D01*
G01X5346700Y5511800D02*
G01X5473700Y5638800D01*
G01X5664200Y3924300D02*
G01X5168900Y3924300D01*
G01X5443039Y5342618D02*
G01X5405301Y5342618D01*
G01X5405301Y5190218D02*
G01X5443039Y5190218D01*
G01X5483860Y4980940D02*
G01X5387340Y5077460D01*
G01X5638800Y3975100D02*
G01X5245100Y3975100D01*
G01X5419705Y5508605D02*
G01X5476895Y5508605D01*
G01X5461000Y5324657D02*
G01X5443039Y5342618D01*
G01X5443039Y5190218D02*
G01X5461000Y5208178D01*
G01X5461000Y5324657D01*
G01X5613400Y4025900D02*
G01X5346700Y4025900D01*
G01X6781800Y3441700D02*
G01X4267200Y3441700D01*
G01X6845300Y3505200D02*
G01X4381500Y3505200D01*
G01X6908800Y3581400D02*
G01X4483100Y3581400D01*
G01X7480300Y5791200D02*
G01X4051300Y5791200D01*
G01X6197600Y4902200D02*
G01X5410200Y4902200D01*
G01X7073900Y3644900D02*
G01X4635500Y3644900D01*
G01X6263640Y4980940D02*
G01X5483860Y4980940D01*
G01X5461000Y4940300D02*
G01X6292890Y4940300D01*
G01X5029200Y3771900D02*
G01X7137400Y3771900D01*
G01X7174551Y3708400D02*
G01X5016500Y3708400D01*
G01X6235700Y4864100D02*
G01X6197600Y4902200D01*
G01X6235700Y4546600D02*
G01X6235700Y4864100D01*
G01X6324600Y5041900D02*
G01X6263640Y4980940D01*
G01X6324600Y5054600D02*
G01X6324600Y5041900D01*
G01X6342400Y5072400D02*
G01X6324600Y5054600D01*
G01X6342400Y5078790D02*
G01X6342400Y5072400D01*
G01X6292890Y4940300D02*
G01X6400800Y5048210D01*
G01X6376610Y5113000D02*
G01X6342400Y5078790D01*
G01X6400800Y5048210D02*
G01X6400800Y5054600D01*
G01X6424990Y5113000D02*
G01X6376610Y5113000D01*
G01X6442750Y5095240D02*
G01X6424990Y5113000D01*
G01X5448300Y5740400D02*
G01X7518400Y5740400D01*
G54D23*
G01X6908800Y1308100D02*
G01X6642100Y1041400D01*
G54D21*
G01X6400800Y5054600D02*
G01X7658100Y5054600D01*
G01X7674934Y5095240D02*
G01X6442750Y5095240D01*
G01X7238051Y3771900D02*
G01X7174551Y3708400D01*
G54D23*
G01X7797800Y1308100D02*
G01X6908800Y1308100D01*
G54D22*
G01X7620000Y6451600D02*
G01X7302500Y6134100D01*
G54D21*
G01X7505700Y5816600D02*
G01X7480300Y5791200D01*
G01X7505700Y6134100D02*
G01X7505700Y5816600D01*
G01X7518400Y5740400D02*
G01X7543800Y5765800D01*
G54D24*
G01X7182002Y5455498D02*
G01X7881198Y5455498D01*
G54D21*
G01X7543800Y5765800D02*
G01X7543800Y6096000D01*
G01X7632700Y6261100D02*
G01X7505700Y6134100D01*
G01X7543800Y6096000D02*
G01X7658100Y6210300D01*
G01X7696200Y3784600D02*
G01X7558517Y3646917D01*
G01X7599157Y3630083D02*
G01X7736840Y3767766D01*
G54D24*
G01X7658100Y2743200D02*
G01X7696200Y2781300D01*
G54D21*
G01X7658100Y5054600D02*
G01X7696200Y5016500D01*
G54D22*
G01X7759700Y6451600D02*
G01X7620000Y6451600D01*
G54D21*
G01X7696200Y5016500D02*
G01X7696200Y3784600D01*
G54D24*
G01X7696200Y2781300D02*
G01X7696200Y3632200D01*
G54D21*
G01X7736840Y5033334D02*
G01X7674934Y5095240D01*
G01X7736840Y3767766D02*
G01X7736840Y5033334D01*
G01X7759700Y2721811D02*
G01X7759700Y3594100D01*
G54D24*
G01X7696200Y3632200D02*
G01X8026400Y3962400D01*
G01X7881198Y5455498D02*
G01X8001000Y5575300D01*
G54D21*
G01X7759700Y3594100D02*
G01X8242300Y4076700D01*
G54D24*
G01X8026400Y3962400D02*
G01X8026400Y5334000D01*
G54D21*
G01X8712200Y6261100D02*
G01X7632700Y6261100D01*
G01X8242300Y876300D02*
G01X8128000Y762000D01*
G01X8242300Y1422400D02*
G01X8242300Y876300D01*
G01X8242300Y4076700D02*
G01X8242300Y6083300D01*
G01X8318500Y6159500D01*
G01X7658100Y6210300D02*
G01X8953500Y6210300D01*
G01X8318500Y6159500D02*
G01X9055100Y6159500D01*
G01X8775700Y6324600D02*
G01X8712200Y6261100D01*
G01X8775700Y6451600D02*
G01X8775700Y6324600D01*
G01X8775700Y6565900D02*
G01X8775700Y6451600D01*
G01X8839200Y6629400D02*
G01X8775700Y6565900D01*
G01X9118600Y6629400D02*
G01X8839200Y6629400D01*
G01X8953500Y6210300D02*
G01X9029700Y6286500D01*
G01X9029700Y6451600D01*
G01X9055100Y6159500D02*
G01X9169400Y6273800D01*
G01X9169400Y6578600D02*
G01X9118600Y6629400D01*
G01X9169400Y6273800D02*
G01X9169400Y6578600D01*
G01X9779000Y1943100D02*
G01X9779000Y1892300D01*
G01X9855200Y2019300D02*
G01X9779000Y1943100D01*
G54D22*
G01X6019800Y6007100D02*
G01X4165600Y6007100D01*
G54D21*
G01X5295900Y5016500D02*
G01X5295900Y5588000D01*
G01X5346700Y5511800D02*
G01X5346700Y5054600D01*
G01X5410200Y4902200D02*
G01X5295900Y5016500D01*
G01X5295900Y5588000D02*
G01X5448300Y5740400D01*
G01X5387340Y5360578D02*
G01X5387340Y5476240D01*
G01X5387340Y5077460D02*
G01X5387340Y5172257D01*
G01X5405301Y5342618D02*
G01X5387340Y5360578D01*
G01X5387340Y5172257D02*
G01X5405301Y5190218D01*
G01X5387340Y5476240D02*
G01X5419705Y5508605D01*
G01X5346700Y5054600D02*
G01X5461000Y4940300D01*
G01X3882964Y5765800D02*
G01X3946464Y5702300D01*
G01X4089400Y5702300D01*
G54D23*
G01X6642100Y1041400D02*
G01X3962400Y1041400D01*
G54D21*
G01X5067300Y4025900D02*
G01X5067300Y4086403D01*
G01X5168900Y3924300D02*
G01X5067300Y4025900D01*
G01X5194300Y4025900D02*
G01X5194300Y4086403D01*
G01X5245100Y3975100D02*
G01X5194300Y4025900D01*
G01X5321300Y4051300D02*
G01X5321300Y4089400D01*
G01X5346700Y4025900D02*
G01X5321300Y4051300D01*
G01X5689600Y3860800D02*
G01X5080000Y3860800D01*
G54D24*
G01X5143500Y3086100D02*
G01X5143500Y2451100D01*
G01X5067300Y3162300D02*
G01X5143500Y3086100D01*
G01X4610264Y3162300D02*
G01X5067300Y3162300D01*
G54D22*
G01X2616200Y5000718D02*
G01X1838418Y5000718D01*
G54D21*
G01X3848100Y3492500D02*
G01X3848100Y5346700D01*
G01X4025900Y5524500D01*
G01X3962400Y3746500D02*
G01X3962400Y4495800D01*
G54D22*
G01X3124200Y5105400D02*
G01X3213100Y5016500D01*
G01X3213100Y4343400D01*
G01X2997200Y5105400D02*
G01X3124200Y5105400D01*
G01X2959100Y5143500D02*
G01X2997200Y5105400D01*
G54D23*
G01X3962400Y1041400D02*
G01X3492500Y1511300D01*
G54D24*
G01X2921000Y3416300D02*
G01X2921000Y3467100D01*
G01X3073400Y3263900D02*
G01X2921000Y3416300D01*
G54D23*
G01X3492500Y1511300D02*
G01X3492500Y2667000D01*
G01X3644900Y2819400D01*
G54D24*
G01X4610100Y3263900D02*
G01X3073400Y3263900D01*
G54D22*
G01X3200400Y6134100D02*
G01X2959100Y5892800D01*
G54D21*
G01X3073400Y5765800D02*
G01X3882964Y5765800D01*
G54D22*
G01X1689100Y5105400D02*
G01X2602636Y5105400D01*
G01X3365500Y6134100D02*
G01X3200400Y6134100D01*
G01X7302500Y6134100D02*
G01X3365500Y6134100D01*
G54D21*
G01X7558517Y3646917D02*
G01X7558517Y2909380D01*
G01X7538317Y2889180D01*
G01X7616917Y2889180D02*
G01X7599157Y2906940D01*
G01X7599157Y3630083D01*
G54D22*
G01X2844800Y5105400D02*
G03X2959100Y5219700I0J114300D01*
G01X2959100Y5143500D01*
G01X2602636Y5105400D02*
G01X2844800Y5105400D01*
G01X2997200Y5105400D01*
G01X2959100Y5270500D02*
G03X3124200Y5105400I165100J0D01*
G01X2959100Y5892800D02*
G01X2959100Y5270500D01*
G01X2959100Y5219700D01*
G54D24*
G01X9246561Y2145017D02*
G01X9410556Y2145017D01*
G01X9334500Y2221073D02*
G03X9410556Y2145017I76056J0D01*
G01X9334500Y2221073D02*
G01X9334500Y2146300D01*
G01X9334500Y2232956D02*
G02X9246561Y2145017I-87939J0D01*
G01X9334500Y3556000D02*
G01X9334500Y2232956D01*
G01X9334500Y2221073D01*
G54D22*
G01X1838418Y5000718D02*
G01X1663700Y4826000D01*
G01X1663700Y2349500D01*
G54D21*
G01X6134100Y4546600D02*
G01X6159500Y4572000D01*
G01X6159500Y4597400D01*
G01X5029200Y4762500D02*
G01X5029200Y4619564D01*
G01X5102164Y4546600D01*
G01X6134100Y4546600D01*
G01X4978400Y4737100D02*
G01X4978400Y4610100D01*
G01X5105400Y4483100D01*
G01X6350000Y4483100D01*
G01X5087600Y4424700D02*
G01X4927600Y4584700D01*
G01X4927600Y4711700D01*
G01X7493000Y4419600D02*
G01X7487900Y4424700D01*
G01X5087600Y4424700D01*
G01X7474123Y4292600D02*
G01X5880100Y4292600D01*
G01X5613400Y4025900D01*
G01X7519412Y4230125D02*
G01X5893825Y4230125D01*
G01X5638800Y3975100D01*
G01X7451818Y4169561D02*
G01X5909461Y4169561D01*
G01X5664200Y3924300D01*
G01X7340600Y4105036D02*
G01X5933836Y4105036D01*
G01X5689600Y3860800D01*
G01X7538987Y4351287D02*
G01X5875287Y4351287D01*
G01X5613400Y4089400D01*
G01X5448300Y4089400D01*
G04 Track End*

M02*

