G04 Layer: CustomLayer2*
G04 EasyEDA Pro v2.2.32.3, 2025-08-13 14:06:10*
G04 Gerber Generator version 0.3*
G04 Scale: 100 percent, Rotated: No, Reflected: No*
G04 Dimensions in millimeters*
G04 Leading zeros omitted, absolute positions, 3 integers and 5 decimals*
%FSLAX35Y35*%
%MOMM*%
%ADD10C,0.0127*%
%ADD11C,0.15*%
G75*


G04 PolygonModel Start*
G54D10*
G01X3033719Y3480785D02*
G01X3038799Y3475705D01*
G54D11*
G01X4442951Y2029826D02*
G01X4342951Y2029826D01*
G01X4392951Y1979826D02*
G01X4392951Y2079826D01*
G01X3532952Y1979826D02*
G01X3532952Y2079826D01*
G01X2666541Y2534733D02*
G01X2766541Y2534733D01*
G01X2716541Y2584733D02*
G01X2716541Y2484733D01*
G01X3576540Y2584733D02*
G01X3576540Y2484733D01*
G36*
G01X6844350Y161444D02*
G01X6844350Y496444D01*
G01X7017349Y496444D01*
G01X7017349Y161444D01*
G01X6844350Y161444D01*
G37*
G36*
G01X6531545Y161444D02*
G01X6531545Y496444D01*
G01X6704545Y496444D01*
G01X6704545Y161444D01*
G01X6531545Y161444D01*
G37*
G36*
G01X6218741Y161444D02*
G01X6218741Y496444D01*
G01X6391741Y496444D01*
G01X6391741Y161444D01*
G01X6218741Y161444D01*
G37*
G36*
G01X5905937Y161444D02*
G01X5905937Y496444D01*
G01X6078937Y496444D01*
G01X6078937Y161444D01*
G01X5905937Y161444D01*
G37*
G36*
G01X8109166Y171644D02*
G01X8109166Y506644D01*
G01X8282166Y506644D01*
G01X8282166Y171644D01*
G01X8109166Y171644D01*
G37*
G36*
G01X7815062Y171644D02*
G01X7815062Y506644D01*
G01X7988062Y506644D01*
G01X7988062Y171644D01*
G01X7815062Y171644D01*
G37*
G36*
G01X7520958Y171644D02*
G01X7520958Y506644D01*
G01X7693958Y506644D01*
G01X7693958Y171644D01*
G01X7520958Y171644D01*
G37*
G36*
G01X7226854Y171644D02*
G01X7226854Y506644D01*
G01X7399854Y506644D01*
G01X7399854Y171644D01*
G01X7226854Y171644D01*
G37*
G36*
G01X9465783Y171644D02*
G01X9465783Y506644D01*
G01X9638783Y506644D01*
G01X9638783Y171644D01*
G01X9465783Y171644D01*
G37*
G36*
G01X9166580Y171644D02*
G01X9166580Y506644D01*
G01X9339579Y506644D01*
G01X9339579Y171644D01*
G01X9166580Y171644D01*
G37*
G36*
G01X8867376Y171644D02*
G01X8867376Y506644D01*
G01X9040376Y506644D01*
G01X9040376Y171644D01*
G01X8867376Y171644D01*
G37*
G36*
G01X8568172Y171644D02*
G01X8568172Y506644D01*
G01X8741172Y506644D01*
G01X8741172Y171644D01*
G01X8568172Y171644D01*
G37*
G01X4090253Y-16094D02*
G01X4090253Y83906D01*
G01X4040253Y33906D02*
G01X4140253Y33906D01*
G01X4040253Y893906D02*
G01X4140253Y893906D01*

M02*

