G04 Layer: TopSilkscreenLayer*
G04 EasyEDA Pro v2.2.32.3, 2025-08-13 14:06:10*
G04 Gerber Generator version 0.3*
G04 Scale: 100 percent, Rotated: No, Reflected: No*
G04 Dimensions in millimeters*
G04 Leading zeros omitted, absolute positions, 3 integers and 5 decimals*
%FSLAX35Y35*%
%MOMM*%
%ADD10C,0.11999*%
%ADD11C,0.11*%
%ADD12C,0.2*%
%ADD13C,0.254*%
%ADD14C,0.1524*%
%ADD15C,0.15494*%
%ADD16C,0.20066*%
%ADD17C,0.256*%
%ADD18C,0.2570*%
%ADD19C,0.25*%
%ADD20C,0.3*%
G75*


G04 Text Start*
G54D10*
G01X9922777Y847689D02*
G01X9933445Y837021D01*
G01X9933445Y837021D02*
G01X9954527Y837021D01*
G01X9954527Y837021D02*
G01X9965195Y847689D01*
G01X9965195Y847689D02*
G01X9965195Y868771D01*
G01X9954527Y879439D02*
G01X9965195Y868771D01*
G01X9943859Y879439D02*
G01X9954527Y879439D01*
G01X9922777Y868771D02*
G01X9922777Y900521D01*
G01X9922777Y900521D02*
G01X9965195Y900521D01*
G01X9922777Y868771D02*
G01X9943859Y879439D01*
G01X10028695Y858103D02*
G01X10028695Y900521D01*
G01X10007613Y837021D02*
G01X10028695Y858103D01*
G01X9986277Y858103D02*
G01X10007613Y837021D01*
G01X9986277Y858103D02*
G01X9986277Y900521D01*
G01X10154699Y900521D02*
G01X10165621Y889599D01*
G01X10132601Y900521D02*
G01X10154699Y900521D01*
G01X10121679Y889599D02*
G01X10132601Y900521D01*
G01X10121679Y845403D02*
G01X10121679Y889599D01*
G01X10121679Y845403D02*
G01X10132601Y834481D01*
G01X10132601Y834481D02*
G01X10154699Y834481D01*
G01X10154699Y834481D02*
G01X10165621Y845403D01*
G01X10165621Y845403D02*
G01X10165621Y867501D01*
G01X10143777Y867501D02*
G01X10165621Y867501D01*
G01X10231661Y834481D02*
G01X10231661Y900521D01*
G01X10187719Y900521D02*
G01X10231661Y834481D01*
G01X10187719Y834481D02*
G01X10187719Y900521D01*
G01X10253759Y900521D02*
G01X10286525Y900521D01*
G01X10253759Y834481D02*
G01X10253759Y900521D01*
G01X10253759Y834481D02*
G01X10286779Y834481D01*
G01X10286525Y900521D02*
G01X10297701Y889599D01*
G01X10297701Y845403D02*
G01X10297701Y889599D01*
G01X10286779Y834481D02*
G01X10297701Y845403D01*
G01X10978490Y827289D02*
G01X10989158Y816621D01*
G01X10989158Y816621D02*
G01X11010240Y816621D01*
G01X11010240Y816621D02*
G01X11020908Y827289D01*
G01X11020908Y827289D02*
G01X11020908Y848371D01*
G01X11010240Y859039D02*
G01X11020908Y848371D01*
G01X10999572Y859039D02*
G01X11010240Y859039D01*
G01X10978490Y848371D02*
G01X10978490Y880121D01*
G01X10978490Y880121D02*
G01X11020908Y880121D01*
G01X10978490Y848371D02*
G01X10999572Y859039D01*
G01X11084408Y837703D02*
G01X11084408Y880121D01*
G01X11063326Y816621D02*
G01X11084408Y837703D01*
G01X11041990Y837703D02*
G01X11063326Y816621D01*
G01X11041990Y837703D02*
G01X11041990Y880121D01*
G01X11210413Y880121D02*
G01X11221335Y869199D01*
G01X11188315Y880121D02*
G01X11210413Y880121D01*
G01X11177393Y869199D02*
G01X11188315Y880121D01*
G01X11177393Y825003D02*
G01X11177393Y869199D01*
G01X11177393Y825003D02*
G01X11188315Y814081D01*
G01X11188315Y814081D02*
G01X11210413Y814081D01*
G01X11210413Y814081D02*
G01X11221335Y825003D01*
G01X11221335Y825003D02*
G01X11221335Y847101D01*
G01X11199491Y847101D02*
G01X11221335Y847101D01*
G01X11287375Y814081D02*
G01X11287375Y880121D01*
G01X11243433Y880121D02*
G01X11287375Y814081D01*
G01X11243433Y814081D02*
G01X11243433Y880121D01*
G01X11309473Y880121D02*
G01X11342239Y880121D01*
G01X11309473Y814081D02*
G01X11309473Y880121D01*
G01X11309473Y814081D02*
G01X11342493Y814081D01*
G01X11342239Y880121D02*
G01X11353415Y869199D01*
G01X11353415Y825003D02*
G01X11353415Y869199D01*
G01X11342493Y814081D02*
G01X11353415Y825003D01*
G01X11439956Y845831D02*
G01X11462816Y868691D01*
G01X11417096Y868691D02*
G01X11439956Y845831D01*
G01X11439956Y811541D02*
G01X11439956Y845831D01*
G01X11462816Y868691D02*
G01X11462816Y880121D01*
G01X11417096Y868691D02*
G01X11417096Y880121D01*
G01X11485676Y845831D02*
G01X11531396Y845831D01*
G01X11554256Y811541D02*
G01X11599976Y811541D01*
G01X11554256Y811541D02*
G01X11554256Y880121D01*
G01X11634266Y811541D02*
G01X11634266Y857261D01*
G01X11622836Y857261D02*
G01X11634266Y857261D01*
G01X11634266Y880121D02*
G01X11634266Y880121D01*
G01X11622836Y811541D02*
G01X11634266Y811541D01*
G01X11634266Y811541D02*
G01X11645696Y811541D01*
G01X11702846Y811541D02*
G01X11702846Y845831D01*
G01X11725706Y811541D02*
G01X11725706Y845831D01*
G01X11714276Y857261D02*
G01X11725706Y845831D01*
G01X11702846Y845831D02*
G01X11714276Y857261D01*
G01X11691416Y857261D02*
G01X11702846Y845831D01*
G01X11679986Y857261D02*
G01X11691416Y857261D01*
G01X11679986Y811541D02*
G01X11679986Y857261D01*
G01X11771426Y811541D02*
G01X11759996Y822971D01*
G01X11748566Y857261D02*
G01X11759996Y857261D01*
G01X11759996Y857261D02*
G01X11771426Y857261D01*
G01X11759996Y822971D02*
G01X11759996Y857261D01*
G01X11759996Y857261D02*
G01X11759996Y868691D01*
G01X13277891Y193542D02*
G01X13288813Y182620D01*
G01X13255793Y193542D02*
G01X13277891Y193542D01*
G01X13244871Y182620D02*
G01X13255793Y193542D01*
G01X13244871Y138424D02*
G01X13244871Y182620D01*
G01X13244871Y138424D02*
G01X13255793Y127502D01*
G01X13255793Y127502D02*
G01X13277891Y127502D01*
G01X13277891Y127502D02*
G01X13288813Y138424D01*
G01X13288813Y138424D02*
G01X13288813Y160522D01*
G01X13266969Y160522D02*
G01X13288813Y160522D01*
G01X13354853Y127502D02*
G01X13354853Y193542D01*
G01X13310911Y193542D02*
G01X13354853Y127502D01*
G01X13310911Y127502D02*
G01X13310911Y193542D01*
G01X13376951Y193542D02*
G01X13409717Y193542D01*
G01X13376951Y127502D02*
G01X13376951Y193542D01*
G01X13376951Y127502D02*
G01X13409971Y127502D01*
G01X13409717Y193542D02*
G01X13420893Y182620D01*
G01X13420893Y138424D02*
G01X13420893Y182620D01*
G01X13409971Y127502D02*
G01X13420893Y138424D01*
G01X13541143Y102351D02*
G01X13552065Y91429D01*
G01X13519045Y102351D02*
G01X13541143Y102351D01*
G01X13508123Y91429D02*
G01X13519045Y102351D01*
G01X13508123Y47233D02*
G01X13508123Y91429D01*
G01X13508123Y47233D02*
G01X13519045Y36311D01*
G01X13519045Y36311D02*
G01X13541143Y36311D01*
G01X13541143Y36311D02*
G01X13552065Y47233D01*
G01X13552065Y47233D02*
G01X13552065Y69331D01*
G01X13530221Y69331D02*
G01X13552065Y69331D01*
G01X13618105Y36311D02*
G01X13618105Y102351D01*
G01X13574163Y102351D02*
G01X13618105Y36311D01*
G01X13574163Y36311D02*
G01X13574163Y102351D01*
G01X13640203Y102351D02*
G01X13672969Y102351D01*
G01X13640203Y36311D02*
G01X13640203Y102351D01*
G01X13640203Y36311D02*
G01X13673223Y36311D01*
G01X13672969Y102351D02*
G01X13684145Y91429D01*
G01X13684145Y47233D02*
G01X13684145Y91429D01*
G01X13673223Y36311D02*
G01X13684145Y47233D01*
G01X12670262Y553227D02*
G01X12681184Y553227D01*
G01X12648164Y531129D02*
G01X12659086Y520207D01*
G01X12659086Y520207D02*
G01X12681184Y520207D01*
G01X12681184Y520207D02*
G01X12692106Y531129D01*
G01X12692106Y531129D02*
G01X12692106Y542305D01*
G01X12681184Y553227D02*
G01X12692106Y542305D01*
G01X12681184Y553227D02*
G01X12692106Y564149D01*
G01X12692106Y564149D02*
G01X12692106Y575325D01*
G01X12681184Y586247D02*
G01X12692106Y575325D01*
G01X12659086Y586247D02*
G01X12681184Y586247D01*
G01X12648164Y575325D02*
G01X12659086Y586247D01*
G01X12714204Y520207D02*
G01X12714204Y531129D01*
G01X12714204Y520207D02*
G01X12725126Y520207D01*
G01X12725126Y520207D02*
G01X12725126Y531129D01*
G01X12714204Y531129D02*
G01X12725126Y531129D01*
G01X12791166Y553227D02*
G01X12802088Y553227D01*
G01X12769068Y531129D02*
G01X12780244Y520207D01*
G01X12780244Y520207D02*
G01X12802088Y520207D01*
G01X12802088Y520207D02*
G01X12813264Y531129D01*
G01X12813264Y531129D02*
G01X12813264Y542305D01*
G01X12802088Y553227D02*
G01X12813264Y542305D01*
G01X12802088Y553227D02*
G01X12813264Y564149D01*
G01X12813264Y564149D02*
G01X12813264Y575325D01*
G01X12802088Y586247D02*
G01X12813264Y575325D01*
G01X12780244Y586247D02*
G01X12802088Y586247D01*
G01X12769068Y575325D02*
G01X12780244Y586247D01*
G01X12879304Y542305D02*
G01X12879304Y586247D01*
G01X12857206Y520207D02*
G01X12879304Y542305D01*
G01X12835362Y542305D02*
G01X12857206Y520207D01*
G01X12835362Y542305D02*
G01X12835362Y586247D01*
G01X13372119Y787718D02*
G01X13393963Y765620D01*
G01X13383041Y787718D02*
G01X13393963Y798640D01*
G01X13393963Y798640D02*
G01X13393963Y820738D01*
G01X13383041Y831660D02*
G01X13393963Y820738D01*
G01X13350021Y831660D02*
G01X13383041Y831660D01*
G01X13350021Y765620D02*
G01X13350021Y787718D01*
G01X13350021Y787718D02*
G01X13350021Y831660D01*
G01X13350021Y787718D02*
G01X13372119Y787718D01*
G01X13372119Y787718D02*
G01X13383041Y787718D01*
G01X13416061Y776542D02*
G01X13426983Y765620D01*
G01X13426983Y765620D02*
G01X13449081Y765620D01*
G01X13449081Y765620D02*
G01X13460003Y776542D01*
G01X13460003Y776542D02*
G01X13460003Y787718D01*
G01X13449081Y798640D02*
G01X13460003Y787718D01*
G01X13426983Y798640D02*
G01X13449081Y798640D01*
G01X13416061Y809562D02*
G01X13426983Y798640D01*
G01X13416061Y809562D02*
G01X13416061Y820738D01*
G01X13416061Y820738D02*
G01X13426983Y831660D01*
G01X13426983Y831660D02*
G01X13449081Y831660D01*
G01X13449081Y831660D02*
G01X13460003Y820738D01*
G01X13503945Y765620D02*
G01X13503945Y831660D01*
G01X13482101Y831660D02*
G01X13526043Y831660D01*
G01X5187235Y861911D02*
G01X5187235Y925411D01*
G01X5176567Y914743D02*
G01X5187235Y925411D01*
G01X5176567Y861911D02*
G01X5187235Y861911D01*
G01X5187235Y861911D02*
G01X5197649Y861911D01*
G01X5229399Y861911D02*
G01X5271817Y861911D01*
G01X5229399Y861911D02*
G01X5271817Y904329D01*
G01X5271817Y904329D02*
G01X5271817Y914743D01*
G01X5261149Y925411D02*
G01X5271817Y914743D01*
G01X5240067Y925411D02*
G01X5261149Y925411D01*
G01X5229399Y914743D02*
G01X5240067Y925411D01*
G01X5335317Y882993D02*
G01X5335317Y925411D01*
G01X5314235Y861911D02*
G01X5335317Y882993D01*
G01X5292899Y882993D02*
G01X5314235Y861911D01*
G01X5292899Y882993D02*
G01X5292899Y925411D01*
G01X4968614Y930511D02*
G01X4979282Y919843D01*
G01X4947532Y930511D02*
G01X4968614Y930511D01*
G01X4936864Y919843D02*
G01X4947532Y930511D01*
G01X4936864Y877679D02*
G01X4936864Y919843D01*
G01X4936864Y877679D02*
G01X4947532Y867011D01*
G01X4947532Y867011D02*
G01X4968614Y867011D01*
G01X4968614Y867011D02*
G01X4979282Y877679D01*
G01X4979282Y877679D02*
G01X4979282Y898761D01*
G01X4957946Y898761D02*
G01X4979282Y898761D01*
G01X5042782Y867011D02*
G01X5042782Y930511D01*
G01X5000364Y930511D02*
G01X5042782Y867011D01*
G01X5000364Y867011D02*
G01X5000364Y930511D01*
G01X5063864Y930511D02*
G01X5095614Y930511D01*
G01X5063864Y867011D02*
G01X5063864Y930511D01*
G01X5063864Y867011D02*
G01X5095614Y867011D01*
G01X5095614Y930511D02*
G01X5106282Y919843D01*
G01X5106282Y877679D02*
G01X5106282Y919843D01*
G01X5095614Y867011D02*
G01X5106282Y877679D01*
G01X4681861Y887331D02*
G01X4712341Y887331D01*
G01X4712341Y887331D02*
G01X4722501Y897491D01*
G01X4722501Y897491D02*
G01X4722501Y917811D01*
G01X4712341Y927971D02*
G01X4722501Y917811D01*
G01X4681861Y927971D02*
G01X4712341Y927971D01*
G01X4681861Y867011D02*
G01X4681861Y887331D01*
G01X4681861Y887331D02*
G01X4681861Y927971D01*
G01X4783461Y867011D02*
G01X4783461Y927971D01*
G01X4763141Y887331D02*
G01X4783461Y867011D01*
G01X4742821Y867011D02*
G01X4763141Y887331D01*
G01X4742821Y867011D02*
G01X4742821Y927971D01*
G01X4844421Y867011D02*
G01X4844421Y927971D01*
G01X4824101Y907651D02*
G01X4844421Y927971D01*
G01X4803781Y927971D02*
G01X4824101Y907651D01*
G01X4803781Y867011D02*
G01X4803781Y927971D01*
G01X5829375Y915191D02*
G01X5875095Y846611D01*
G01X5875095Y915191D02*
G01X5829375Y846611D01*
G01X5897955Y880901D02*
G01X5943675Y880901D01*
G01X5966535Y880901D02*
G01X6012255Y880901D01*
G01X5989395Y915191D02*
G01X6012255Y892331D01*
G01X5966535Y892331D02*
G01X5989395Y915191D01*
G01X5966535Y846611D02*
G01X5966535Y880901D01*
G01X5966535Y880901D02*
G01X5966535Y892331D01*
G01X6012255Y846611D02*
G01X6012255Y880901D01*
G01X6012255Y880901D02*
G01X6012255Y892331D01*
G01X6035115Y915191D02*
G01X6080835Y846611D01*
G01X6080835Y915191D02*
G01X6035115Y846611D01*
G01X6115125Y846611D02*
G01X6115125Y915191D01*
G01X6103695Y915191D02*
G01X6115125Y915191D01*
G01X6115125Y915191D02*
G01X6126555Y915191D01*
G01X6103695Y846611D02*
G01X6115125Y846611D01*
G01X6115125Y846611D02*
G01X6126555Y846611D01*
G01X6160845Y858041D02*
G01X6172275Y846611D01*
G01X6172275Y846611D02*
G01X6195135Y846611D01*
G01X6195135Y846611D02*
G01X6206565Y858041D01*
G01X6206565Y858041D02*
G01X6206565Y869471D01*
G01X6195135Y880901D02*
G01X6206565Y869471D01*
G01X6172275Y880901D02*
G01X6195135Y880901D01*
G01X6160845Y892331D02*
G01X6172275Y880901D01*
G01X6160845Y892331D02*
G01X6160845Y903761D01*
G01X6160845Y903761D02*
G01X6172275Y915191D01*
G01X6172275Y915191D02*
G01X6195135Y915191D01*
G01X6195135Y915191D02*
G01X6206565Y903761D01*
G01X7219053Y875801D02*
G01X7241913Y898661D01*
G01X7196193Y898661D02*
G01X7219053Y875801D01*
G01X7219053Y841511D02*
G01X7219053Y875801D01*
G01X7241913Y898661D02*
G01X7241913Y910091D01*
G01X7196193Y898661D02*
G01X7196193Y910091D01*
G01X7276203Y841511D02*
G01X7276203Y910091D01*
G01X7264773Y898661D02*
G01X7276203Y910091D01*
G01X7264773Y841511D02*
G01X7276203Y841511D01*
G01X7276203Y841511D02*
G01X7287633Y841511D01*
G01X7321923Y875801D02*
G01X7367643Y875801D01*
G01X7390503Y875801D02*
G01X7436223Y875801D01*
G01X7413363Y910091D02*
G01X7436223Y887231D01*
G01X7390503Y887231D02*
G01X7413363Y910091D01*
G01X7390503Y841511D02*
G01X7390503Y875801D01*
G01X7390503Y875801D02*
G01X7390503Y887231D01*
G01X7436223Y841511D02*
G01X7436223Y875801D01*
G01X7436223Y875801D02*
G01X7436223Y887231D01*
G01X7459083Y910091D02*
G01X7504803Y841511D01*
G01X7504803Y910091D02*
G01X7459083Y841511D01*
G01X7539093Y841511D02*
G01X7539093Y910091D01*
G01X7527663Y910091D02*
G01X7539093Y910091D01*
G01X7539093Y910091D02*
G01X7550523Y910091D01*
G01X7527663Y841511D02*
G01X7539093Y841511D01*
G01X7539093Y841511D02*
G01X7550523Y841511D01*
G01X7584813Y852941D02*
G01X7596243Y841511D01*
G01X7596243Y841511D02*
G01X7619103Y841511D01*
G01X7619103Y841511D02*
G01X7630533Y852941D01*
G01X7630533Y852941D02*
G01X7630533Y864371D01*
G01X7619103Y875801D02*
G01X7630533Y864371D01*
G01X7596243Y875801D02*
G01X7619103Y875801D01*
G01X7584813Y887231D02*
G01X7596243Y875801D01*
G01X7584813Y887231D02*
G01X7584813Y898661D01*
G01X7584813Y898661D02*
G01X7596243Y910091D01*
G01X7596243Y910091D02*
G01X7619103Y910091D01*
G01X7619103Y910091D02*
G01X7630533Y898661D01*
G01X8662372Y865601D02*
G01X8685232Y888461D01*
G01X8639512Y888461D02*
G01X8662372Y865601D01*
G01X8662372Y831311D02*
G01X8662372Y865601D01*
G01X8685232Y888461D02*
G01X8685232Y899891D01*
G01X8639512Y888461D02*
G01X8639512Y899891D01*
G01X8708092Y831311D02*
G01X8753812Y831311D01*
G01X8708092Y831311D02*
G01X8753812Y877031D01*
G01X8753812Y877031D02*
G01X8753812Y888461D01*
G01X8742382Y899891D02*
G01X8753812Y888461D01*
G01X8719522Y899891D02*
G01X8742382Y899891D01*
G01X8708092Y888461D02*
G01X8719522Y899891D01*
G01X8776672Y865601D02*
G01X8822392Y865601D01*
G01X8845252Y865601D02*
G01X8890972Y865601D01*
G01X8868112Y899891D02*
G01X8890972Y877031D01*
G01X8845252Y877031D02*
G01X8868112Y899891D01*
G01X8845252Y831311D02*
G01X8845252Y865601D01*
G01X8845252Y865601D02*
G01X8845252Y877031D01*
G01X8890972Y831311D02*
G01X8890972Y865601D01*
G01X8890972Y865601D02*
G01X8890972Y877031D01*
G01X8913832Y899891D02*
G01X8959552Y831311D01*
G01X8959552Y899891D02*
G01X8913832Y831311D01*
G01X8993842Y831311D02*
G01X8993842Y899891D01*
G01X8982412Y899891D02*
G01X8993842Y899891D01*
G01X8993842Y899891D02*
G01X9005272Y899891D01*
G01X8982412Y831311D02*
G01X8993842Y831311D01*
G01X8993842Y831311D02*
G01X9005272Y831311D01*
G01X9039562Y842741D02*
G01X9050992Y831311D01*
G01X9050992Y831311D02*
G01X9073852Y831311D01*
G01X9073852Y831311D02*
G01X9085282Y842741D01*
G01X9085282Y842741D02*
G01X9085282Y854171D01*
G01X9073852Y865601D02*
G01X9085282Y854171D01*
G01X9050992Y865601D02*
G01X9073852Y865601D01*
G01X9039562Y877031D02*
G01X9050992Y865601D01*
G01X9039562Y877031D02*
G01X9039562Y888461D01*
G01X9039562Y888461D02*
G01X9050992Y899891D01*
G01X9050992Y899891D02*
G01X9073852Y899891D01*
G01X9073852Y899891D02*
G01X9085282Y888461D01*
G54D11*
G01X6589827Y2348249D02*
G01X6586271Y2355107D01*
G01X6579667Y2361965D01*
G01X6572809Y2365267D01*
G01X6559093Y2365267D01*
G01X6552235Y2361965D01*
G01X6545377Y2355107D01*
G01X6542075Y2348249D01*
G01X6538773Y2338089D01*
G01X6538773Y2321071D01*
G01X6542075Y2310911D01*
G01X6545377Y2304053D01*
G01X6552235Y2297195D01*
G01X6559093Y2293893D01*
G01X6572809Y2293893D01*
G01X6579667Y2297195D01*
G01X6586271Y2304053D01*
G01X6589827Y2310911D01*
G01X6623863Y2365267D02*
G01X6661455Y2365267D01*
G01X6641135Y2338089D01*
G01X6651295Y2338089D01*
G01X6658153Y2334533D01*
G01X6661455Y2331231D01*
G01X6664757Y2321071D01*
G01X6664757Y2314213D01*
G01X6661455Y2304053D01*
G01X6654597Y2297195D01*
G01X6644437Y2293893D01*
G01X6634277Y2293893D01*
G01X6623863Y2297195D01*
G01X6620561Y2300497D01*
G01X6617259Y2307355D01*
G01X6692189Y2351805D02*
G01X6698793Y2355107D01*
G01X6709207Y2365267D01*
G01X6709207Y2293893D01*
G01X6584726Y2524202D02*
G01X6581170Y2531060D01*
G01X6574566Y2537918D01*
G01X6567708Y2541220D01*
G01X6553992Y2541220D01*
G01X6547134Y2537918D01*
G01X6540276Y2531060D01*
G01X6536974Y2524202D01*
G01X6533672Y2514042D01*
G01X6533672Y2497024D01*
G01X6536974Y2486864D01*
G01X6540276Y2480006D01*
G01X6547134Y2473148D01*
G01X6553992Y2469846D01*
G01X6567708Y2469846D01*
G01X6574566Y2473148D01*
G01X6581170Y2480006D01*
G01X6584726Y2486864D01*
G01X6618762Y2541220D02*
G01X6656354Y2541220D01*
G01X6636034Y2514042D01*
G01X6646194Y2514042D01*
G01X6653052Y2510486D01*
G01X6656354Y2507184D01*
G01X6659656Y2497024D01*
G01X6659656Y2490166D01*
G01X6656354Y2480006D01*
G01X6649496Y2473148D01*
G01X6639336Y2469846D01*
G01X6629176Y2469846D01*
G01X6618762Y2473148D01*
G01X6615460Y2476450D01*
G01X6612158Y2483308D01*
G01X6721124Y2541220D02*
G01X6687088Y2493468D01*
G01X6738142Y2493468D01*
G01X6721124Y2541220D02*
G01X6721124Y2469846D01*
G01X9945670Y1685241D02*
G01X9942114Y1692099D01*
G01X9935510Y1698957D01*
G01X9928652Y1702259D01*
G01X9914936Y1702259D01*
G01X9908078Y1698957D01*
G01X9901220Y1692099D01*
G01X9897918Y1685241D01*
G01X9894616Y1675081D01*
G01X9894616Y1658063D01*
G01X9897918Y1647903D01*
G01X9901220Y1641045D01*
G01X9908078Y1634187D01*
G01X9914936Y1630885D01*
G01X9928652Y1630885D01*
G01X9935510Y1634187D01*
G01X9942114Y1641045D01*
G01X9945670Y1647903D01*
G01X9973102Y1688797D02*
G01X9979706Y1692099D01*
G01X9990120Y1702259D01*
G01X9990120Y1630885D01*
G01X10037872Y1702259D02*
G01X10027712Y1698957D01*
G01X10020854Y1688797D01*
G01X10017552Y1671525D01*
G01X10017552Y1661365D01*
G01X10020854Y1644347D01*
G01X10027712Y1634187D01*
G01X10037872Y1630885D01*
G01X10044730Y1630885D01*
G01X10054890Y1634187D01*
G01X10061748Y1644347D01*
G01X10065050Y1661365D01*
G01X10065050Y1671525D01*
G01X10061748Y1688797D01*
G01X10054890Y1698957D01*
G01X10044730Y1702259D01*
G01X10037872Y1702259D01*
G01X12449802Y2633853D02*
G01X12446246Y2640711D01*
G01X12439642Y2647569D01*
G01X12432784Y2650871D01*
G01X12419068Y2650871D01*
G01X12412210Y2647569D01*
G01X12405352Y2640711D01*
G01X12402050Y2633853D01*
G01X12398748Y2623693D01*
G01X12398748Y2606675D01*
G01X12402050Y2596515D01*
G01X12405352Y2589657D01*
G01X12412210Y2582799D01*
G01X12419068Y2579497D01*
G01X12432784Y2579497D01*
G01X12439642Y2582799D01*
G01X12446246Y2589657D01*
G01X12449802Y2596515D01*
G01X12477234Y2637409D02*
G01X12483838Y2640711D01*
G01X12494252Y2650871D01*
G01X12494252Y2579497D01*
G01X12562578Y2640711D02*
G01X12559022Y2647569D01*
G01X12548862Y2650871D01*
G01X12542004Y2650871D01*
G01X12531844Y2647569D01*
G01X12524986Y2637409D01*
G01X12521684Y2620137D01*
G01X12521684Y2603119D01*
G01X12524986Y2589657D01*
G01X12531844Y2582799D01*
G01X12542004Y2579497D01*
G01X12545560Y2579497D01*
G01X12555720Y2582799D01*
G01X12562578Y2589657D01*
G01X12565880Y2599817D01*
G01X12565880Y2603119D01*
G01X12562578Y2613533D01*
G01X12555720Y2620137D01*
G01X12545560Y2623693D01*
G01X12542004Y2623693D01*
G01X12531844Y2620137D01*
G01X12524986Y2613533D01*
G01X12521684Y2603119D01*
G01X12046897Y828430D02*
G01X12043341Y835288D01*
G01X12036737Y842146D01*
G01X12029879Y845448D01*
G01X12016163Y845448D01*
G01X12009305Y842146D01*
G01X12002447Y835288D01*
G01X11999145Y828430D01*
G01X11995843Y818270D01*
G01X11995843Y801252D01*
G01X11999145Y791092D01*
G01X12002447Y784234D01*
G01X12009305Y777376D01*
G01X12016163Y774074D01*
G01X12029879Y774074D01*
G01X12036737Y777376D01*
G01X12043341Y784234D01*
G01X12046897Y791092D01*
G01X12074329Y831986D02*
G01X12080933Y835288D01*
G01X12091347Y845448D01*
G01X12091347Y774074D01*
G01X12135797Y845448D02*
G01X12125383Y842146D01*
G01X12122081Y835288D01*
G01X12122081Y828430D01*
G01X12125383Y821572D01*
G01X12132241Y818270D01*
G01X12145957Y814714D01*
G01X12156117Y811412D01*
G01X12162975Y804554D01*
G01X12166277Y797696D01*
G01X12166277Y787536D01*
G01X12162975Y780678D01*
G01X12159673Y777376D01*
G01X12149259Y774074D01*
G01X12135797Y774074D01*
G01X12125383Y777376D01*
G01X12122081Y780678D01*
G01X12118779Y787536D01*
G01X12118779Y797696D01*
G01X12122081Y804554D01*
G01X12128939Y811412D01*
G01X12139099Y814714D01*
G01X12152815Y818270D01*
G01X12159673Y821572D01*
G01X12162975Y828430D01*
G01X12162975Y835288D01*
G01X12159673Y842146D01*
G01X12149259Y845448D01*
G01X12135797Y845448D01*
G01X11853095Y3205060D02*
G01X11849539Y3211918D01*
G01X11842935Y3218776D01*
G01X11836077Y3222078D01*
G01X11822361Y3222078D01*
G01X11815503Y3218776D01*
G01X11808645Y3211918D01*
G01X11805343Y3205060D01*
G01X11802041Y3194900D01*
G01X11802041Y3177882D01*
G01X11805343Y3167722D01*
G01X11808645Y3160864D01*
G01X11815503Y3154006D01*
G01X11822361Y3150704D01*
G01X11836077Y3150704D01*
G01X11842935Y3154006D01*
G01X11849539Y3160864D01*
G01X11853095Y3167722D01*
G01X11880527Y3208616D02*
G01X11887131Y3211918D01*
G01X11897545Y3222078D01*
G01X11897545Y3150704D01*
G01X11924977Y3208616D02*
G01X11931581Y3211918D01*
G01X11941995Y3222078D01*
G01X11941995Y3150704D01*
G01X12057097Y2756255D02*
G01X12053541Y2763113D01*
G01X12046937Y2769971D01*
G01X12040079Y2773273D01*
G01X12026363Y2773273D01*
G01X12019505Y2769971D01*
G01X12012647Y2763113D01*
G01X12009345Y2756255D01*
G01X12006043Y2746095D01*
G01X12006043Y2729077D01*
G01X12009345Y2718917D01*
G01X12012647Y2712059D01*
G01X12019505Y2705201D01*
G01X12026363Y2701899D01*
G01X12040079Y2701899D01*
G01X12046937Y2705201D01*
G01X12053541Y2712059D01*
G01X12057097Y2718917D01*
G01X12084529Y2759811D02*
G01X12091133Y2763113D01*
G01X12101547Y2773273D01*
G01X12101547Y2701899D01*
G01X12135583Y2773273D02*
G01X12173175Y2773273D01*
G01X12152855Y2746095D01*
G01X12163015Y2746095D01*
G01X12169873Y2742539D01*
G01X12173175Y2739237D01*
G01X12176477Y2729077D01*
G01X12176477Y2722219D01*
G01X12173175Y2712059D01*
G01X12166317Y2705201D01*
G01X12156157Y2701899D01*
G01X12145997Y2701899D01*
G01X12135583Y2705201D01*
G01X12132281Y2708503D01*
G01X12128979Y2715361D01*
G01X10164973Y2582852D02*
G01X10161417Y2589710D01*
G01X10154813Y2596568D01*
G01X10147955Y2599870D01*
G01X10134239Y2599870D01*
G01X10127381Y2596568D01*
G01X10120523Y2589710D01*
G01X10117221Y2582852D01*
G01X10113919Y2572692D01*
G01X10113919Y2555674D01*
G01X10117221Y2545514D01*
G01X10120523Y2538656D01*
G01X10127381Y2531798D01*
G01X10134239Y2528496D01*
G01X10147955Y2528496D01*
G01X10154813Y2531798D01*
G01X10161417Y2538656D01*
G01X10164973Y2545514D01*
G01X10192405Y2586408D02*
G01X10199009Y2589710D01*
G01X10209423Y2599870D01*
G01X10209423Y2528496D01*
G01X10240157Y2582852D02*
G01X10240157Y2586408D01*
G01X10243459Y2593012D01*
G01X10247015Y2596568D01*
G01X10253873Y2599870D01*
G01X10267335Y2599870D01*
G01X10274193Y2596568D01*
G01X10277749Y2593012D01*
G01X10281051Y2586408D01*
G01X10281051Y2579550D01*
G01X10277749Y2572692D01*
G01X10270891Y2562532D01*
G01X10236855Y2528496D01*
G01X10284353Y2528496D01*
G01X6559226Y2710354D02*
G01X6555670Y2717212D01*
G01X6549066Y2724070D01*
G01X6542208Y2727372D01*
G01X6528492Y2727372D01*
G01X6521634Y2724070D01*
G01X6514776Y2717212D01*
G01X6511474Y2710354D01*
G01X6508172Y2700194D01*
G01X6508172Y2683176D01*
G01X6511474Y2673016D01*
G01X6514776Y2666158D01*
G01X6521634Y2659300D01*
G01X6528492Y2655998D01*
G01X6542208Y2655998D01*
G01X6549066Y2659300D01*
G01X6555670Y2666158D01*
G01X6559226Y2673016D01*
G01X6593262Y2727372D02*
G01X6630854Y2727372D01*
G01X6610534Y2700194D01*
G01X6620694Y2700194D01*
G01X6627552Y2696638D01*
G01X6630854Y2693336D01*
G01X6634156Y2683176D01*
G01X6634156Y2676318D01*
G01X6630854Y2666158D01*
G01X6623996Y2659300D01*
G01X6613836Y2655998D01*
G01X6603676Y2655998D01*
G01X6593262Y2659300D01*
G01X6589960Y2662602D01*
G01X6586658Y2669460D01*
G01X6709086Y2727372D02*
G01X6675050Y2655998D01*
G01X6661588Y2727372D02*
G01X6709086Y2727372D01*
G01X4442699Y1919844D02*
G01X4439143Y1926702D01*
G01X4432539Y1933560D01*
G01X4425681Y1936862D01*
G01X4411965Y1936862D01*
G01X4405107Y1933560D01*
G01X4398249Y1926702D01*
G01X4394947Y1919844D01*
G01X4391645Y1909684D01*
G01X4391645Y1892666D01*
G01X4394947Y1882506D01*
G01X4398249Y1875648D01*
G01X4405107Y1868790D01*
G01X4411965Y1865488D01*
G01X4425681Y1865488D01*
G01X4432539Y1868790D01*
G01X4439143Y1875648D01*
G01X4442699Y1882506D01*
G01X4473433Y1919844D02*
G01X4473433Y1923400D01*
G01X4476735Y1930004D01*
G01X4480291Y1933560D01*
G01X4487149Y1936862D01*
G01X4500611Y1936862D01*
G01X4507469Y1933560D01*
G01X4511025Y1930004D01*
G01X4514327Y1923400D01*
G01X4514327Y1916542D01*
G01X4511025Y1909684D01*
G01X4504167Y1899524D01*
G01X4470131Y1865488D01*
G01X4517629Y1865488D01*
G01X4585955Y1926702D02*
G01X4582399Y1933560D01*
G01X4572239Y1936862D01*
G01X4565381Y1936862D01*
G01X4555221Y1933560D01*
G01X4548363Y1923400D01*
G01X4545061Y1906128D01*
G01X4545061Y1889110D01*
G01X4548363Y1875648D01*
G01X4555221Y1868790D01*
G01X4565381Y1865488D01*
G01X4568937Y1865488D01*
G01X4579097Y1868790D01*
G01X4585955Y1875648D01*
G01X4589257Y1885808D01*
G01X4589257Y1889110D01*
G01X4585955Y1899524D01*
G01X4579097Y1906128D01*
G01X4568937Y1909684D01*
G01X4565381Y1909684D01*
G01X4555221Y1906128D01*
G01X4548363Y1899524D01*
G01X4545061Y1889110D01*
G01X7997445Y2353349D02*
G01X7993889Y2360207D01*
G01X7987285Y2367065D01*
G01X7980427Y2370367D01*
G01X7966711Y2370367D01*
G01X7959853Y2367065D01*
G01X7952995Y2360207D01*
G01X7949693Y2353349D01*
G01X7946391Y2343189D01*
G01X7946391Y2326171D01*
G01X7949693Y2316011D01*
G01X7952995Y2309153D01*
G01X7959853Y2302295D01*
G01X7966711Y2298993D01*
G01X7980427Y2298993D01*
G01X7987285Y2302295D01*
G01X7993889Y2309153D01*
G01X7997445Y2316011D01*
G01X8031481Y2370367D02*
G01X8069073Y2370367D01*
G01X8048753Y2343189D01*
G01X8058913Y2343189D01*
G01X8065771Y2339633D01*
G01X8069073Y2336331D01*
G01X8072375Y2326171D01*
G01X8072375Y2319313D01*
G01X8069073Y2309153D01*
G01X8062215Y2302295D01*
G01X8052055Y2298993D01*
G01X8041895Y2298993D01*
G01X8031481Y2302295D01*
G01X8028179Y2305597D01*
G01X8024877Y2312455D01*
G01X8103109Y2353349D02*
G01X8103109Y2356905D01*
G01X8106411Y2363509D01*
G01X8109967Y2367065D01*
G01X8116825Y2370367D01*
G01X8130287Y2370367D01*
G01X8137145Y2367065D01*
G01X8140701Y2363509D01*
G01X8144003Y2356905D01*
G01X8144003Y2350047D01*
G01X8140701Y2343189D01*
G01X8133843Y2333029D01*
G01X8099807Y2298993D01*
G01X8147305Y2298993D01*
G01X8002545Y2521652D02*
G01X7998989Y2528510D01*
G01X7992385Y2535368D01*
G01X7985527Y2538670D01*
G01X7971811Y2538670D01*
G01X7964953Y2535368D01*
G01X7958095Y2528510D01*
G01X7954793Y2521652D01*
G01X7951491Y2511492D01*
G01X7951491Y2494474D01*
G01X7954793Y2484314D01*
G01X7958095Y2477456D01*
G01X7964953Y2470598D01*
G01X7971811Y2467296D01*
G01X7985527Y2467296D01*
G01X7992385Y2470598D01*
G01X7998989Y2477456D01*
G01X8002545Y2484314D01*
G01X8036581Y2538670D02*
G01X8074173Y2538670D01*
G01X8053853Y2511492D01*
G01X8064013Y2511492D01*
G01X8070871Y2507936D01*
G01X8074173Y2504634D01*
G01X8077475Y2494474D01*
G01X8077475Y2487616D01*
G01X8074173Y2477456D01*
G01X8067315Y2470598D01*
G01X8057155Y2467296D01*
G01X8046995Y2467296D01*
G01X8036581Y2470598D01*
G01X8033279Y2473900D01*
G01X8029977Y2480758D01*
G01X8145801Y2538670D02*
G01X8111511Y2538670D01*
G01X8108209Y2507936D01*
G01X8111511Y2511492D01*
G01X8121925Y2514794D01*
G01X8132085Y2514794D01*
G01X8142245Y2511492D01*
G01X8149103Y2504634D01*
G01X8152405Y2494474D01*
G01X8152405Y2487616D01*
G01X8149103Y2477456D01*
G01X8142245Y2470598D01*
G01X8132085Y2467296D01*
G01X8121925Y2467296D01*
G01X8111511Y2470598D01*
G01X8108209Y2473900D01*
G01X8104907Y2480758D01*
G01X7987245Y2720554D02*
G01X7983689Y2727412D01*
G01X7977085Y2734270D01*
G01X7970227Y2737572D01*
G01X7956511Y2737572D01*
G01X7949653Y2734270D01*
G01X7942795Y2727412D01*
G01X7939493Y2720554D01*
G01X7936191Y2710394D01*
G01X7936191Y2693376D01*
G01X7939493Y2683216D01*
G01X7942795Y2676358D01*
G01X7949653Y2669500D01*
G01X7956511Y2666198D01*
G01X7970227Y2666198D01*
G01X7977085Y2669500D01*
G01X7983689Y2676358D01*
G01X7987245Y2683216D01*
G01X8021281Y2737572D02*
G01X8058873Y2737572D01*
G01X8038553Y2710394D01*
G01X8048713Y2710394D01*
G01X8055571Y2706838D01*
G01X8058873Y2703536D01*
G01X8062175Y2693376D01*
G01X8062175Y2686518D01*
G01X8058873Y2676358D01*
G01X8052015Y2669500D01*
G01X8041855Y2666198D01*
G01X8031695Y2666198D01*
G01X8021281Y2669500D01*
G01X8017979Y2672802D01*
G01X8014677Y2679660D01*
G01X8106625Y2737572D02*
G01X8096211Y2734270D01*
G01X8092909Y2727412D01*
G01X8092909Y2720554D01*
G01X8096211Y2713696D01*
G01X8103069Y2710394D01*
G01X8116785Y2706838D01*
G01X8126945Y2703536D01*
G01X8133803Y2696678D01*
G01X8137105Y2689820D01*
G01X8137105Y2679660D01*
G01X8133803Y2672802D01*
G01X8130501Y2669500D01*
G01X8120087Y2666198D01*
G01X8106625Y2666198D01*
G01X8096211Y2669500D01*
G01X8092909Y2672802D01*
G01X8089607Y2679660D01*
G01X8089607Y2689820D01*
G01X8092909Y2696678D01*
G01X8099767Y2703536D01*
G01X8109927Y2706838D01*
G01X8123643Y2710394D01*
G01X8130501Y2713696D01*
G01X8133803Y2720554D01*
G01X8133803Y2727412D01*
G01X8130501Y2734270D01*
G01X8120087Y2737572D01*
G01X8106625Y2737572D01*
G01X2407772Y3832369D02*
G01X2404216Y3839227D01*
G01X2397612Y3846085D01*
G01X2390754Y3849387D01*
G01X2377038Y3849387D01*
G01X2370180Y3846085D01*
G01X2363322Y3839227D01*
G01X2360020Y3832369D01*
G01X2356718Y3822209D01*
G01X2356718Y3805191D01*
G01X2360020Y3795031D01*
G01X2363322Y3788173D01*
G01X2370180Y3781315D01*
G01X2377038Y3778013D01*
G01X2390754Y3778013D01*
G01X2397612Y3781315D01*
G01X2404216Y3788173D01*
G01X2407772Y3795031D01*
G01X2435204Y3835925D02*
G01X2441808Y3839227D01*
G01X2452222Y3849387D01*
G01X2452222Y3778013D01*
G01X2520548Y3849387D02*
G01X2486258Y3849387D01*
G01X2482956Y3818653D01*
G01X2486258Y3822209D01*
G01X2496672Y3825511D01*
G01X2506832Y3825511D01*
G01X2516992Y3822209D01*
G01X2523850Y3815351D01*
G01X2527152Y3805191D01*
G01X2527152Y3798333D01*
G01X2523850Y3788173D01*
G01X2516992Y3781315D01*
G01X2506832Y3778013D01*
G01X2496672Y3778013D01*
G01X2486258Y3781315D01*
G01X2482956Y3784617D01*
G01X2479654Y3791475D01*
G01X6712228Y1955544D02*
G01X6708672Y1962402D01*
G01X6702068Y1969260D01*
G01X6695210Y1972562D01*
G01X6681494Y1972562D01*
G01X6674636Y1969260D01*
G01X6667778Y1962402D01*
G01X6664476Y1955544D01*
G01X6661174Y1945384D01*
G01X6661174Y1928366D01*
G01X6664476Y1918206D01*
G01X6667778Y1911348D01*
G01X6674636Y1904490D01*
G01X6681494Y1901188D01*
G01X6695210Y1901188D01*
G01X6702068Y1904490D01*
G01X6708672Y1911348D01*
G01X6712228Y1918206D01*
G01X6742962Y1955544D02*
G01X6742962Y1959100D01*
G01X6746264Y1965704D01*
G01X6749820Y1969260D01*
G01X6756678Y1972562D01*
G01X6770140Y1972562D01*
G01X6776998Y1969260D01*
G01X6780554Y1965704D01*
G01X6783856Y1959100D01*
G01X6783856Y1952242D01*
G01X6780554Y1945384D01*
G01X6773696Y1935224D01*
G01X6739660Y1901188D01*
G01X6787158Y1901188D01*
G01X6831608Y1972562D02*
G01X6821194Y1969260D01*
G01X6817892Y1962402D01*
G01X6817892Y1955544D01*
G01X6821194Y1948686D01*
G01X6828052Y1945384D01*
G01X6841768Y1941828D01*
G01X6851928Y1938526D01*
G01X6858786Y1931668D01*
G01X6862088Y1924810D01*
G01X6862088Y1914650D01*
G01X6858786Y1907792D01*
G01X6855484Y1904490D01*
G01X6845070Y1901188D01*
G01X6831608Y1901188D01*
G01X6821194Y1904490D01*
G01X6817892Y1907792D01*
G01X6814590Y1914650D01*
G01X6814590Y1924810D01*
G01X6817892Y1931668D01*
G01X6824750Y1938526D01*
G01X6834910Y1941828D01*
G01X6848626Y1945384D01*
G01X6855484Y1948686D01*
G01X6858786Y1955544D01*
G01X6858786Y1962402D01*
G01X6855484Y1969260D01*
G01X6845070Y1972562D01*
G01X6831608Y1972562D01*
G01X12087698Y3832369D02*
G01X12084142Y3839227D01*
G01X12077538Y3846085D01*
G01X12070680Y3849387D01*
G01X12056964Y3849387D01*
G01X12050106Y3846085D01*
G01X12043248Y3839227D01*
G01X12039946Y3832369D01*
G01X12036644Y3822209D01*
G01X12036644Y3805191D01*
G01X12039946Y3795031D01*
G01X12043248Y3788173D01*
G01X12050106Y3781315D01*
G01X12056964Y3778013D01*
G01X12070680Y3778013D01*
G01X12077538Y3781315D01*
G01X12084142Y3788173D01*
G01X12087698Y3795031D01*
G01X12132148Y3849387D02*
G01X12121734Y3846085D01*
G01X12118432Y3839227D01*
G01X12118432Y3832369D01*
G01X12121734Y3825511D01*
G01X12128592Y3822209D01*
G01X12142308Y3818653D01*
G01X12152468Y3815351D01*
G01X12159326Y3808493D01*
G01X12162628Y3801635D01*
G01X12162628Y3791475D01*
G01X12159326Y3784617D01*
G01X12156024Y3781315D01*
G01X12145610Y3778013D01*
G01X12132148Y3778013D01*
G01X12121734Y3781315D01*
G01X12118432Y3784617D01*
G01X12115130Y3791475D01*
G01X12115130Y3801635D01*
G01X12118432Y3808493D01*
G01X12125290Y3815351D01*
G01X12135450Y3818653D01*
G01X12149166Y3822209D01*
G01X12156024Y3825511D01*
G01X12159326Y3832369D01*
G01X12159326Y3839227D01*
G01X12156024Y3846085D01*
G01X12145610Y3849387D01*
G01X12132148Y3849387D01*
G01X9262261Y2185047D02*
G01X9258705Y2191905D01*
G01X9252101Y2198763D01*
G01X9245243Y2202065D01*
G01X9231527Y2202065D01*
G01X9224669Y2198763D01*
G01X9217811Y2191905D01*
G01X9214509Y2185047D01*
G01X9211207Y2174887D01*
G01X9211207Y2157869D01*
G01X9214509Y2147709D01*
G01X9217811Y2140851D01*
G01X9224669Y2133993D01*
G01X9231527Y2130691D01*
G01X9245243Y2130691D01*
G01X9252101Y2133993D01*
G01X9258705Y2140851D01*
G01X9262261Y2147709D01*
G01X9296297Y2202065D02*
G01X9333889Y2202065D01*
G01X9313569Y2174887D01*
G01X9323729Y2174887D01*
G01X9330587Y2171331D01*
G01X9333889Y2168029D01*
G01X9337191Y2157869D01*
G01X9337191Y2151011D01*
G01X9333889Y2140851D01*
G01X9327031Y2133993D01*
G01X9316871Y2130691D01*
G01X9306711Y2130691D01*
G01X9296297Y2133993D01*
G01X9292995Y2137295D01*
G01X9289693Y2144153D01*
G01X9371227Y2202065D02*
G01X9408819Y2202065D01*
G01X9388499Y2174887D01*
G01X9398659Y2174887D01*
G01X9405517Y2171331D01*
G01X9408819Y2168029D01*
G01X9412121Y2157869D01*
G01X9412121Y2151011D01*
G01X9408819Y2140851D01*
G01X9401961Y2133993D01*
G01X9391801Y2130691D01*
G01X9381641Y2130691D01*
G01X9371227Y2133993D01*
G01X9367925Y2137295D01*
G01X9364623Y2144153D01*
G01X9481564Y2470651D02*
G01X9478008Y2477509D01*
G01X9471404Y2484367D01*
G01X9464546Y2487669D01*
G01X9450830Y2487669D01*
G01X9443972Y2484367D01*
G01X9437114Y2477509D01*
G01X9433812Y2470651D01*
G01X9430510Y2460491D01*
G01X9430510Y2443473D01*
G01X9433812Y2433313D01*
G01X9437114Y2426455D01*
G01X9443972Y2419597D01*
G01X9450830Y2416295D01*
G01X9464546Y2416295D01*
G01X9471404Y2419597D01*
G01X9478008Y2426455D01*
G01X9481564Y2433313D01*
G01X9515600Y2487669D02*
G01X9553192Y2487669D01*
G01X9532872Y2460491D01*
G01X9543032Y2460491D01*
G01X9549890Y2456935D01*
G01X9553192Y2453633D01*
G01X9556494Y2443473D01*
G01X9556494Y2436615D01*
G01X9553192Y2426455D01*
G01X9546334Y2419597D01*
G01X9536174Y2416295D01*
G01X9526014Y2416295D01*
G01X9515600Y2419597D01*
G01X9512298Y2422899D01*
G01X9508996Y2429757D01*
G01X9624820Y2477509D02*
G01X9621264Y2484367D01*
G01X9611104Y2487669D01*
G01X9604246Y2487669D01*
G01X9594086Y2484367D01*
G01X9587228Y2474207D01*
G01X9583926Y2456935D01*
G01X9583926Y2439917D01*
G01X9587228Y2426455D01*
G01X9594086Y2419597D01*
G01X9604246Y2416295D01*
G01X9607802Y2416295D01*
G01X9617962Y2419597D01*
G01X9624820Y2426455D01*
G01X9628122Y2436615D01*
G01X9628122Y2439917D01*
G01X9624820Y2450331D01*
G01X9617962Y2456935D01*
G01X9607802Y2460491D01*
G01X9604246Y2460491D01*
G01X9594086Y2456935D01*
G01X9587228Y2450331D01*
G01X9583926Y2439917D01*
G01X11853095Y3011258D02*
G01X11849539Y3018116D01*
G01X11842935Y3024974D01*
G01X11836077Y3028276D01*
G01X11822361Y3028276D01*
G01X11815503Y3024974D01*
G01X11808645Y3018116D01*
G01X11805343Y3011258D01*
G01X11802041Y3001098D01*
G01X11802041Y2984080D01*
G01X11805343Y2973920D01*
G01X11808645Y2967062D01*
G01X11815503Y2960204D01*
G01X11822361Y2956902D01*
G01X11836077Y2956902D01*
G01X11842935Y2960204D01*
G01X11849539Y2967062D01*
G01X11853095Y2973920D01*
G01X11924723Y3004400D02*
G01X11921421Y2994240D01*
G01X11914563Y2987382D01*
G01X11904403Y2984080D01*
G01X11900847Y2984080D01*
G01X11890687Y2987382D01*
G01X11883829Y2994240D01*
G01X11880527Y3004400D01*
G01X11880527Y3007956D01*
G01X11883829Y3018116D01*
G01X11890687Y3024974D01*
G01X11900847Y3028276D01*
G01X11904403Y3028276D01*
G01X11914563Y3024974D01*
G01X11921421Y3018116D01*
G01X11924723Y3004400D01*
G01X11924723Y2987382D01*
G01X11921421Y2970364D01*
G01X11914563Y2960204D01*
G01X11904403Y2956902D01*
G01X11897545Y2956902D01*
G01X11887131Y2960204D01*
G01X11883829Y2967062D01*
G01X2887179Y139921D02*
G01X2883623Y146779D01*
G01X2877019Y153637D01*
G01X2870161Y156939D01*
G01X2856445Y156939D01*
G01X2849587Y153637D01*
G01X2842729Y146779D01*
G01X2839427Y139921D01*
G01X2836125Y129761D01*
G01X2836125Y112743D01*
G01X2839427Y102583D01*
G01X2842729Y95725D01*
G01X2849587Y88867D01*
G01X2856445Y85565D01*
G01X2870161Y85565D01*
G01X2877019Y88867D01*
G01X2883623Y95725D01*
G01X2887179Y102583D01*
G01X2917913Y139921D02*
G01X2917913Y143477D01*
G01X2921215Y150081D01*
G01X2924771Y153637D01*
G01X2931629Y156939D01*
G01X2945091Y156939D01*
G01X2951949Y153637D01*
G01X2955505Y150081D01*
G01X2958807Y143477D01*
G01X2958807Y136619D01*
G01X2955505Y129761D01*
G01X2948647Y119601D01*
G01X2914611Y85565D01*
G01X2962109Y85565D01*
G01X2996145Y156939D02*
G01X3033737Y156939D01*
G01X3013417Y129761D01*
G01X3023577Y129761D01*
G01X3030435Y126205D01*
G01X3033737Y122903D01*
G01X3037039Y112743D01*
G01X3037039Y105885D01*
G01X3033737Y95725D01*
G01X3026879Y88867D01*
G01X3016719Y85565D01*
G01X3006559Y85565D01*
G01X2996145Y88867D01*
G01X2992843Y92169D01*
G01X2989541Y99027D01*
G01X2876978Y267422D02*
G01X2873422Y274280D01*
G01X2866818Y281138D01*
G01X2859960Y284440D01*
G01X2846244Y284440D01*
G01X2839386Y281138D01*
G01X2832528Y274280D01*
G01X2829226Y267422D01*
G01X2825924Y257262D01*
G01X2825924Y240244D01*
G01X2829226Y230084D01*
G01X2832528Y223226D01*
G01X2839386Y216368D01*
G01X2846244Y213066D01*
G01X2859960Y213066D01*
G01X2866818Y216368D01*
G01X2873422Y223226D01*
G01X2876978Y230084D01*
G01X2907712Y267422D02*
G01X2907712Y270978D01*
G01X2911014Y277582D01*
G01X2914570Y281138D01*
G01X2921428Y284440D01*
G01X2934890Y284440D01*
G01X2941748Y281138D01*
G01X2945304Y277582D01*
G01X2948606Y270978D01*
G01X2948606Y264120D01*
G01X2945304Y257262D01*
G01X2938446Y247102D01*
G01X2904410Y213066D01*
G01X2951908Y213066D01*
G01X3013376Y284440D02*
G01X2979340Y236688D01*
G01X3030394Y236688D01*
G01X3013376Y284440D02*
G01X3013376Y213066D01*
G01X9104159Y2842956D02*
G01X9100603Y2849814D01*
G01X9093999Y2856672D01*
G01X9087141Y2859974D01*
G01X9073425Y2859974D01*
G01X9066567Y2856672D01*
G01X9059709Y2849814D01*
G01X9056407Y2842956D01*
G01X9053105Y2832796D01*
G01X9053105Y2815778D01*
G01X9056407Y2805618D01*
G01X9059709Y2798760D01*
G01X9066567Y2791902D01*
G01X9073425Y2788600D01*
G01X9087141Y2788600D01*
G01X9093999Y2791902D01*
G01X9100603Y2798760D01*
G01X9104159Y2805618D01*
G01X9138195Y2859974D02*
G01X9175787Y2859974D01*
G01X9155467Y2832796D01*
G01X9165627Y2832796D01*
G01X9172485Y2829240D01*
G01X9175787Y2825938D01*
G01X9179089Y2815778D01*
G01X9179089Y2808920D01*
G01X9175787Y2798760D01*
G01X9168929Y2791902D01*
G01X9158769Y2788600D01*
G01X9148609Y2788600D01*
G01X9138195Y2791902D01*
G01X9134893Y2795204D01*
G01X9131591Y2802062D01*
G01X9250717Y2836098D02*
G01X9247415Y2825938D01*
G01X9240557Y2819080D01*
G01X9230397Y2815778D01*
G01X9226841Y2815778D01*
G01X9216681Y2819080D01*
G01X9209823Y2825938D01*
G01X9206521Y2836098D01*
G01X9206521Y2839654D01*
G01X9209823Y2849814D01*
G01X9216681Y2856672D01*
G01X9226841Y2859974D01*
G01X9230397Y2859974D01*
G01X9240557Y2856672D01*
G01X9247415Y2849814D01*
G01X9250717Y2836098D01*
G01X9250717Y2819080D01*
G01X9247415Y2802062D01*
G01X9240557Y2791902D01*
G01X9230397Y2788600D01*
G01X9223539Y2788600D01*
G01X9213125Y2791902D01*
G01X9209823Y2798760D01*
G01X2739277Y1236435D02*
G01X2735721Y1243293D01*
G01X2729117Y1250151D01*
G01X2722259Y1253453D01*
G01X2708543Y1253453D01*
G01X2701685Y1250151D01*
G01X2694827Y1243293D01*
G01X2691525Y1236435D01*
G01X2688223Y1226275D01*
G01X2688223Y1209257D01*
G01X2691525Y1199097D01*
G01X2694827Y1192239D01*
G01X2701685Y1185381D01*
G01X2708543Y1182079D01*
G01X2722259Y1182079D01*
G01X2729117Y1185381D01*
G01X2735721Y1192239D01*
G01X2739277Y1199097D01*
G01X2770011Y1236435D02*
G01X2770011Y1239991D01*
G01X2773313Y1246595D01*
G01X2776869Y1250151D01*
G01X2783727Y1253453D01*
G01X2797189Y1253453D01*
G01X2804047Y1250151D01*
G01X2807603Y1246595D01*
G01X2810905Y1239991D01*
G01X2810905Y1233133D01*
G01X2807603Y1226275D01*
G01X2800745Y1216115D01*
G01X2766709Y1182079D01*
G01X2814207Y1182079D01*
G01X2841639Y1239991D02*
G01X2848243Y1243293D01*
G01X2858657Y1253453D01*
G01X2858657Y1182079D01*
G01X8308549Y1919844D02*
G01X8304993Y1926702D01*
G01X8298389Y1933560D01*
G01X8291531Y1936862D01*
G01X8277815Y1936862D01*
G01X8270957Y1933560D01*
G01X8264099Y1926702D01*
G01X8260797Y1919844D01*
G01X8257495Y1909684D01*
G01X8257495Y1892666D01*
G01X8260797Y1882506D01*
G01X8264099Y1875648D01*
G01X8270957Y1868790D01*
G01X8277815Y1865488D01*
G01X8291531Y1865488D01*
G01X8298389Y1868790D01*
G01X8304993Y1875648D01*
G01X8308549Y1882506D01*
G01X8342585Y1936862D02*
G01X8380177Y1936862D01*
G01X8359857Y1909684D01*
G01X8370017Y1909684D01*
G01X8376875Y1906128D01*
G01X8380177Y1902826D01*
G01X8383479Y1892666D01*
G01X8383479Y1885808D01*
G01X8380177Y1875648D01*
G01X8373319Y1868790D01*
G01X8363159Y1865488D01*
G01X8352999Y1865488D01*
G01X8342585Y1868790D01*
G01X8339283Y1872092D01*
G01X8335981Y1878950D01*
G01X8431231Y1936862D02*
G01X8421071Y1933560D01*
G01X8414213Y1923400D01*
G01X8410911Y1906128D01*
G01X8410911Y1895968D01*
G01X8414213Y1878950D01*
G01X8421071Y1868790D01*
G01X8431231Y1865488D01*
G01X8438089Y1865488D01*
G01X8448249Y1868790D01*
G01X8455107Y1878950D01*
G01X8458409Y1895968D01*
G01X8458409Y1906128D01*
G01X8455107Y1923400D01*
G01X8448249Y1933560D01*
G01X8438089Y1936862D01*
G01X8431231Y1936862D01*
G01X2657676Y1935144D02*
G01X2654120Y1942002D01*
G01X2647516Y1948860D01*
G01X2640658Y1952162D01*
G01X2626942Y1952162D01*
G01X2620084Y1948860D01*
G01X2613226Y1942002D01*
G01X2609924Y1935144D01*
G01X2606622Y1924984D01*
G01X2606622Y1907966D01*
G01X2609924Y1897806D01*
G01X2613226Y1890948D01*
G01X2620084Y1884090D01*
G01X2626942Y1880788D01*
G01X2640658Y1880788D01*
G01X2647516Y1884090D01*
G01X2654120Y1890948D01*
G01X2657676Y1897806D01*
G01X2688410Y1935144D02*
G01X2688410Y1938700D01*
G01X2691712Y1945304D01*
G01X2695268Y1948860D01*
G01X2702126Y1952162D01*
G01X2715588Y1952162D01*
G01X2722446Y1948860D01*
G01X2726002Y1945304D01*
G01X2729304Y1938700D01*
G01X2729304Y1931842D01*
G01X2726002Y1924984D01*
G01X2719144Y1914824D01*
G01X2685108Y1880788D01*
G01X2732606Y1880788D01*
G01X2763340Y1935144D02*
G01X2763340Y1938700D01*
G01X2766642Y1945304D01*
G01X2770198Y1948860D01*
G01X2777056Y1952162D01*
G01X2790518Y1952162D01*
G01X2797376Y1948860D01*
G01X2800932Y1945304D01*
G01X2804234Y1938700D01*
G01X2804234Y1931842D01*
G01X2800932Y1924984D01*
G01X2794074Y1914824D01*
G01X2760038Y1880788D01*
G01X2807536Y1880788D01*
G01X10159873Y1358837D02*
G01X10156317Y1365695D01*
G01X10149713Y1372553D01*
G01X10142855Y1375855D01*
G01X10129139Y1375855D01*
G01X10122281Y1372553D01*
G01X10115423Y1365695D01*
G01X10112121Y1358837D01*
G01X10108819Y1348677D01*
G01X10108819Y1331659D01*
G01X10112121Y1321499D01*
G01X10115423Y1314641D01*
G01X10122281Y1307783D01*
G01X10129139Y1304481D01*
G01X10142855Y1304481D01*
G01X10149713Y1307783D01*
G01X10156317Y1314641D01*
G01X10159873Y1321499D01*
G01X10187305Y1362393D02*
G01X10193909Y1365695D01*
G01X10204323Y1375855D01*
G01X10204323Y1304481D01*
G01X10265791Y1375855D02*
G01X10231755Y1328103D01*
G01X10282809Y1328103D01*
G01X10265791Y1375855D02*
G01X10265791Y1304481D01*
G01X11251287Y1348636D02*
G01X11247731Y1355494D01*
G01X11241127Y1362352D01*
G01X11234269Y1365654D01*
G01X11220553Y1365654D01*
G01X11213695Y1362352D01*
G01X11206837Y1355494D01*
G01X11203535Y1348636D01*
G01X11200233Y1338476D01*
G01X11200233Y1321458D01*
G01X11203535Y1311298D01*
G01X11206837Y1304440D01*
G01X11213695Y1297582D01*
G01X11220553Y1294280D01*
G01X11234269Y1294280D01*
G01X11241127Y1297582D01*
G01X11247731Y1304440D01*
G01X11251287Y1311298D01*
G01X11278719Y1352192D02*
G01X11285323Y1355494D01*
G01X11295737Y1365654D01*
G01X11295737Y1294280D01*
G01X11370667Y1365654D02*
G01X11336631Y1294280D01*
G01X11323169Y1365654D02*
G01X11370667Y1365654D01*
G01X2963680Y3041858D02*
G01X2960124Y3048716D01*
G01X2953520Y3055574D01*
G01X2946662Y3058876D01*
G01X2932946Y3058876D01*
G01X2926088Y3055574D01*
G01X2919230Y3048716D01*
G01X2915928Y3041858D01*
G01X2912626Y3031698D01*
G01X2912626Y3014680D01*
G01X2915928Y3004520D01*
G01X2919230Y2997662D01*
G01X2926088Y2990804D01*
G01X2932946Y2987502D01*
G01X2946662Y2987502D01*
G01X2953520Y2990804D01*
G01X2960124Y2997662D01*
G01X2963680Y3004520D01*
G01X2997716Y3058876D02*
G01X3035308Y3058876D01*
G01X3014988Y3031698D01*
G01X3025148Y3031698D01*
G01X3032006Y3028142D01*
G01X3035308Y3024840D01*
G01X3038610Y3014680D01*
G01X3038610Y3007822D01*
G01X3035308Y2997662D01*
G01X3028450Y2990804D01*
G01X3018290Y2987502D01*
G01X3008130Y2987502D01*
G01X2997716Y2990804D01*
G01X2994414Y2994106D01*
G01X2991112Y3000964D01*
G01X4534500Y3837469D02*
G01X4530944Y3844327D01*
G01X4524340Y3851185D01*
G01X4517482Y3854487D01*
G01X4503766Y3854487D01*
G01X4496908Y3851185D01*
G01X4490050Y3844327D01*
G01X4486748Y3837469D01*
G01X4483446Y3827309D01*
G01X4483446Y3810291D01*
G01X4486748Y3800131D01*
G01X4490050Y3793273D01*
G01X4496908Y3786415D01*
G01X4503766Y3783113D01*
G01X4517482Y3783113D01*
G01X4524340Y3786415D01*
G01X4530944Y3793273D01*
G01X4534500Y3800131D01*
G01X4602826Y3854487D02*
G01X4568536Y3854487D01*
G01X4565234Y3823753D01*
G01X4568536Y3827309D01*
G01X4578950Y3830611D01*
G01X4589110Y3830611D01*
G01X4599270Y3827309D01*
G01X4606128Y3820451D01*
G01X4609430Y3810291D01*
G01X4609430Y3803433D01*
G01X4606128Y3793273D01*
G01X4599270Y3786415D01*
G01X4589110Y3783113D01*
G01X4578950Y3783113D01*
G01X4568536Y3786415D01*
G01X4565234Y3789717D01*
G01X4561932Y3796575D01*
G01X3131982Y2154447D02*
G01X3128426Y2161305D01*
G01X3121822Y2168163D01*
G01X3114964Y2171465D01*
G01X3101248Y2171465D01*
G01X3094390Y2168163D01*
G01X3087532Y2161305D01*
G01X3084230Y2154447D01*
G01X3080928Y2144287D01*
G01X3080928Y2127269D01*
G01X3084230Y2117109D01*
G01X3087532Y2110251D01*
G01X3094390Y2103393D01*
G01X3101248Y2100091D01*
G01X3114964Y2100091D01*
G01X3121822Y2103393D01*
G01X3128426Y2110251D01*
G01X3131982Y2117109D01*
G01X3162716Y2154447D02*
G01X3162716Y2158003D01*
G01X3166018Y2164607D01*
G01X3169574Y2168163D01*
G01X3176432Y2171465D01*
G01X3189894Y2171465D01*
G01X3196752Y2168163D01*
G01X3200308Y2164607D01*
G01X3203610Y2158003D01*
G01X3203610Y2151145D01*
G01X3200308Y2144287D01*
G01X3193450Y2134127D01*
G01X3159414Y2100091D01*
G01X3206912Y2100091D01*
G01X2688276Y3526365D02*
G01X2684720Y3533223D01*
G01X2678116Y3540081D01*
G01X2671258Y3543383D01*
G01X2657542Y3543383D01*
G01X2650684Y3540081D01*
G01X2643826Y3533223D01*
G01X2640524Y3526365D01*
G01X2637222Y3516205D01*
G01X2637222Y3499187D01*
G01X2640524Y3489027D01*
G01X2643826Y3482169D01*
G01X2650684Y3475311D01*
G01X2657542Y3472009D01*
G01X2671258Y3472009D01*
G01X2678116Y3475311D01*
G01X2684720Y3482169D01*
G01X2688276Y3489027D01*
G01X2715708Y3529921D02*
G01X2722312Y3533223D01*
G01X2732726Y3543383D01*
G01X2732726Y3472009D01*
G01X408493Y3563783D02*
G01X408493Y3492409D01*
G01X408493Y3563783D02*
G01X432369Y3563783D01*
G01X442529Y3560481D01*
G01X449387Y3553623D01*
G01X452689Y3546765D01*
G01X455991Y3536605D01*
G01X455991Y3519587D01*
G01X452689Y3509427D01*
G01X449387Y3502569D01*
G01X442529Y3495711D01*
G01X432369Y3492409D01*
G01X408493Y3492409D01*
G01X530921Y3563783D02*
G01X496885Y3492409D01*
G01X483423Y3563783D02*
G01X530921Y3563783D01*
G01X413593Y3788186D02*
G01X413593Y3716812D01*
G01X413593Y3788186D02*
G01X437469Y3788186D01*
G01X447629Y3784884D01*
G01X454487Y3778026D01*
G01X457789Y3771168D01*
G01X461091Y3761008D01*
G01X461091Y3743990D01*
G01X457789Y3733830D01*
G01X454487Y3726972D01*
G01X447629Y3720114D01*
G01X437469Y3716812D01*
G01X413593Y3716812D01*
G01X532719Y3764310D02*
G01X529417Y3754150D01*
G01X522559Y3747292D01*
G01X512399Y3743990D01*
G01X508843Y3743990D01*
G01X498683Y3747292D01*
G01X491825Y3754150D01*
G01X488523Y3764310D01*
G01X488523Y3767866D01*
G01X491825Y3778026D01*
G01X498683Y3784884D01*
G01X508843Y3788186D01*
G01X512399Y3788186D01*
G01X522559Y3784884D01*
G01X529417Y3778026D01*
G01X532719Y3764310D01*
G01X532719Y3747292D01*
G01X529417Y3730274D01*
G01X522559Y3720114D01*
G01X512399Y3716812D01*
G01X505541Y3716812D01*
G01X495127Y3720114D01*
G01X491825Y3726972D01*
G01X12546650Y473143D02*
G01X12546650Y401769D01*
G01X12546650Y473143D02*
G01X12570526Y473143D01*
G01X12580686Y469841D01*
G01X12587544Y462983D01*
G01X12590846Y456125D01*
G01X12594148Y445965D01*
G01X12594148Y428947D01*
G01X12590846Y418787D01*
G01X12587544Y411929D01*
G01X12580686Y405071D01*
G01X12570526Y401769D01*
G01X12546650Y401769D01*
G01X12662474Y473143D02*
G01X12628184Y473143D01*
G01X12624882Y442409D01*
G01X12628184Y445965D01*
G01X12638598Y449267D01*
G01X12648758Y449267D01*
G01X12658918Y445965D01*
G01X12665776Y439107D01*
G01X12669078Y428947D01*
G01X12669078Y422089D01*
G01X12665776Y411929D01*
G01X12658918Y405071D01*
G01X12648758Y401769D01*
G01X12638598Y401769D01*
G01X12628184Y405071D01*
G01X12624882Y408373D01*
G01X12621580Y415231D01*
G01X3499133Y2028663D02*
G01X3499133Y1957289D01*
G01X3499133Y2028663D02*
G01X3523009Y2028663D01*
G01X3533169Y2025361D01*
G01X3540027Y2018503D01*
G01X3543329Y2011645D01*
G01X3546631Y2001485D01*
G01X3546631Y1984467D01*
G01X3543329Y1974307D01*
G01X3540027Y1967449D01*
G01X3533169Y1960591D01*
G01X3523009Y1957289D01*
G01X3499133Y1957289D01*
G01X3577365Y2011645D02*
G01X3577365Y2015201D01*
G01X3580667Y2021805D01*
G01X3584223Y2025361D01*
G01X3591081Y2028663D01*
G01X3604543Y2028663D01*
G01X3611401Y2025361D01*
G01X3614957Y2021805D01*
G01X3618259Y2015201D01*
G01X3618259Y2008343D01*
G01X3614957Y2001485D01*
G01X3608099Y1991325D01*
G01X3574063Y1957289D01*
G01X3621561Y1957289D01*
G01X4952652Y3686184D02*
G01X4952652Y3614810D01*
G01X4952652Y3686184D02*
G01X4976528Y3686184D01*
G01X4986688Y3682882D01*
G01X4993546Y3676024D01*
G01X4996848Y3669166D01*
G01X5000150Y3659006D01*
G01X5000150Y3641988D01*
G01X4996848Y3631828D01*
G01X4993546Y3624970D01*
G01X4986688Y3618112D01*
G01X4976528Y3614810D01*
G01X4952652Y3614810D01*
G01X5034186Y3686184D02*
G01X5071778Y3686184D01*
G01X5051458Y3659006D01*
G01X5061618Y3659006D01*
G01X5068476Y3655450D01*
G01X5071778Y3652148D01*
G01X5075080Y3641988D01*
G01X5075080Y3635130D01*
G01X5071778Y3624970D01*
G01X5064920Y3618112D01*
G01X5054760Y3614810D01*
G01X5044600Y3614810D01*
G01X5034186Y3618112D01*
G01X5030884Y3621414D01*
G01X5027582Y3628272D01*
G01X9833415Y2569270D02*
G01X9833415Y2497896D01*
G01X9833415Y2569270D02*
G01X9857291Y2569270D01*
G01X9867451Y2565968D01*
G01X9874309Y2559110D01*
G01X9877611Y2552252D01*
G01X9880913Y2542092D01*
G01X9880913Y2525074D01*
G01X9877611Y2514914D01*
G01X9874309Y2508056D01*
G01X9867451Y2501198D01*
G01X9857291Y2497896D01*
G01X9833415Y2497896D01*
G01X9949239Y2559110D02*
G01X9945683Y2565968D01*
G01X9935523Y2569270D01*
G01X9928665Y2569270D01*
G01X9918505Y2565968D01*
G01X9911647Y2555808D01*
G01X9908345Y2538536D01*
G01X9908345Y2521518D01*
G01X9911647Y2508056D01*
G01X9918505Y2501198D01*
G01X9928665Y2497896D01*
G01X9932221Y2497896D01*
G01X9942381Y2501198D01*
G01X9949239Y2508056D01*
G01X9952541Y2518216D01*
G01X9952541Y2521518D01*
G01X9949239Y2531932D01*
G01X9942381Y2538536D01*
G01X9932221Y2542092D01*
G01X9928665Y2542092D01*
G01X9918505Y2538536D01*
G01X9911647Y2531932D01*
G01X9908345Y2521518D01*
G01X2662722Y2462169D02*
G01X2662722Y2390795D01*
G01X2662722Y2462169D02*
G01X2686598Y2462169D01*
G01X2696758Y2458867D01*
G01X2703616Y2452009D01*
G01X2706918Y2445151D01*
G01X2710220Y2434991D01*
G01X2710220Y2417973D01*
G01X2706918Y2407813D01*
G01X2703616Y2400955D01*
G01X2696758Y2394097D01*
G01X2686598Y2390795D01*
G01X2662722Y2390795D01*
G01X2737652Y2448707D02*
G01X2744256Y2452009D01*
G01X2754670Y2462169D01*
G01X2754670Y2390795D01*
G01X265691Y2344867D02*
G01X265691Y2273493D01*
G01X265691Y2344867D02*
G01X289567Y2344867D01*
G01X299727Y2341565D01*
G01X306585Y2334707D01*
G01X309887Y2327849D01*
G01X313189Y2317689D01*
G01X313189Y2300671D01*
G01X309887Y2290511D01*
G01X306585Y2283653D01*
G01X299727Y2276795D01*
G01X289567Y2273493D01*
G01X265691Y2273493D01*
G01X391675Y2327849D02*
G01X388119Y2334707D01*
G01X381515Y2341565D01*
G01X374657Y2344867D01*
G01X360941Y2344867D01*
G01X354083Y2341565D01*
G01X347225Y2334707D01*
G01X343923Y2327849D01*
G01X340621Y2317689D01*
G01X340621Y2300671D01*
G01X343923Y2290511D01*
G01X347225Y2283653D01*
G01X354083Y2276795D01*
G01X360941Y2273493D01*
G01X374657Y2273493D01*
G01X381515Y2276795D01*
G01X388119Y2283653D01*
G01X391675Y2290511D01*
G01X419107Y2331405D02*
G01X425711Y2334707D01*
G01X436125Y2344867D01*
G01X436125Y2273493D01*
G01X1265304Y1044350D02*
G01X1265304Y972976D01*
G01X1312802Y1044350D02*
G01X1265304Y996598D01*
G01X1282322Y1013616D02*
G01X1312802Y972976D01*
G01X1340234Y1030888D02*
G01X1346838Y1034190D01*
G01X1357252Y1044350D01*
G01X1357252Y972976D01*
G01X1805911Y3890187D02*
G01X1805911Y3818813D01*
G01X1853409Y3890187D02*
G01X1805911Y3842435D01*
G01X1822929Y3859453D02*
G01X1853409Y3818813D01*
G01X1884143Y3873169D02*
G01X1884143Y3876725D01*
G01X1887445Y3883329D01*
G01X1891001Y3886885D01*
G01X1897859Y3890187D01*
G01X1911321Y3890187D01*
G01X1918179Y3886885D01*
G01X1921735Y3883329D01*
G01X1925037Y3876725D01*
G01X1925037Y3869867D01*
G01X1921735Y3863009D01*
G01X1914877Y3852849D01*
G01X1880841Y3818813D01*
G01X1928339Y3818813D01*
G01X4330444Y2181665D02*
G01X4330444Y2110291D01*
G01X4330444Y2110291D02*
G01X4371338Y2110291D01*
G01X4398770Y2168203D02*
G01X4405374Y2171505D01*
G01X4415788Y2181665D01*
G01X4415788Y2110291D01*
G01X13000556Y330341D02*
G01X13000556Y258967D01*
G01X13000556Y330341D02*
G01X13031036Y330341D01*
G01X13041450Y327039D01*
G01X13044752Y323483D01*
G01X13048054Y316879D01*
G01X13048054Y306465D01*
G01X13044752Y299607D01*
G01X13041450Y296305D01*
G01X13031036Y293003D01*
G01X13000556Y293003D01*
G01X13116380Y320181D02*
G01X13112824Y327039D01*
G01X13102664Y330341D01*
G01X13095806Y330341D01*
G01X13085646Y327039D01*
G01X13078788Y316879D01*
G01X13075486Y299607D01*
G01X13075486Y282589D01*
G01X13078788Y269127D01*
G01X13085646Y262269D01*
G01X13095806Y258967D01*
G01X13099362Y258967D01*
G01X13109522Y262269D01*
G01X13116380Y269127D01*
G01X13119682Y279287D01*
G01X13119682Y282589D01*
G01X13116380Y293003D01*
G01X13109522Y299607D01*
G01X13099362Y303163D01*
G01X13095806Y303163D01*
G01X13085646Y299607D01*
G01X13078788Y293003D01*
G01X13075486Y282589D01*
G01X6401071Y366041D02*
G01X6401071Y294667D01*
G01X6401071Y366041D02*
G01X6431551Y366041D01*
G01X6441965Y362739D01*
G01X6445267Y359183D01*
G01X6448569Y352579D01*
G01X6448569Y342165D01*
G01X6445267Y335307D01*
G01X6441965Y332005D01*
G01X6431551Y328703D01*
G01X6401071Y328703D01*
G01X6520197Y342165D02*
G01X6516895Y332005D01*
G01X6510037Y325147D01*
G01X6499877Y321845D01*
G01X6496321Y321845D01*
G01X6486161Y325147D01*
G01X6479303Y332005D01*
G01X6476001Y342165D01*
G01X6476001Y345721D01*
G01X6479303Y355881D01*
G01X6486161Y362739D01*
G01X6496321Y366041D01*
G01X6499877Y366041D01*
G01X6510037Y362739D01*
G01X6516895Y355881D01*
G01X6520197Y342165D01*
G01X6520197Y325147D01*
G01X6516895Y308129D01*
G01X6510037Y297969D01*
G01X6499877Y294667D01*
G01X6493019Y294667D01*
G01X6482605Y297969D01*
G01X6479303Y304827D01*
G01X13768354Y560058D02*
G01X13768354Y488684D01*
G01X13768354Y560058D02*
G01X13798834Y560058D01*
G01X13809248Y556756D01*
G01X13812550Y553200D01*
G01X13815852Y546596D01*
G01X13815852Y536182D01*
G01X13812550Y529324D01*
G01X13809248Y526022D01*
G01X13798834Y522720D01*
G01X13768354Y522720D01*
G01X13846586Y543040D02*
G01X13846586Y546596D01*
G01X13849888Y553200D01*
G01X13853444Y556756D01*
G01X13860302Y560058D01*
G01X13873764Y560058D01*
G01X13880622Y556756D01*
G01X13884178Y553200D01*
G01X13887480Y546596D01*
G01X13887480Y539738D01*
G01X13884178Y532880D01*
G01X13877320Y522720D01*
G01X13843284Y488684D01*
G01X13890782Y488684D01*
G01X7721988Y376242D02*
G01X7721988Y304868D01*
G01X7721988Y376242D02*
G01X7752468Y376242D01*
G01X7762882Y372940D01*
G01X7766184Y369384D01*
G01X7769486Y362780D01*
G01X7769486Y352366D01*
G01X7766184Y345508D01*
G01X7762882Y342206D01*
G01X7752468Y338904D01*
G01X7721988Y338904D01*
G01X7796918Y362780D02*
G01X7803522Y366082D01*
G01X7813936Y376242D01*
G01X7813936Y304868D01*
G01X7861688Y376242D02*
G01X7851528Y372940D01*
G01X7844670Y362780D01*
G01X7841368Y345508D01*
G01X7841368Y335348D01*
G01X7844670Y318330D01*
G01X7851528Y308170D01*
G01X7861688Y304868D01*
G01X7868546Y304868D01*
G01X7878706Y308170D01*
G01X7885564Y318330D01*
G01X7888866Y335348D01*
G01X7888866Y345508D01*
G01X7885564Y362780D01*
G01X7878706Y372940D01*
G01X7868546Y376242D01*
G01X7861688Y376242D01*
G01X14000169Y3237379D02*
G01X14000169Y3166005D01*
G01X14000169Y3237379D02*
G01X14030649Y3237379D01*
G01X14041063Y3234077D01*
G01X14044365Y3230521D01*
G01X14047667Y3223917D01*
G01X14047667Y3213503D01*
G01X14044365Y3206645D01*
G01X14041063Y3203343D01*
G01X14030649Y3200041D01*
G01X14000169Y3200041D01*
G01X14075099Y3223917D02*
G01X14081703Y3227219D01*
G01X14092117Y3237379D01*
G01X14092117Y3166005D01*
G01X9022505Y360941D02*
G01X9022505Y289567D01*
G01X9022505Y360941D02*
G01X9052985Y360941D01*
G01X9063399Y357639D01*
G01X9066701Y354083D01*
G01X9070003Y347479D01*
G01X9070003Y337065D01*
G01X9066701Y330207D01*
G01X9063399Y326905D01*
G01X9052985Y323603D01*
G01X9022505Y323603D01*
G01X9114453Y360941D02*
G01X9104039Y357639D01*
G01X9100737Y350781D01*
G01X9100737Y343923D01*
G01X9104039Y337065D01*
G01X9110897Y333763D01*
G01X9124613Y330207D01*
G01X9134773Y326905D01*
G01X9141631Y320047D01*
G01X9144933Y313189D01*
G01X9144933Y303029D01*
G01X9141631Y296171D01*
G01X9138329Y292869D01*
G01X9127915Y289567D01*
G01X9114453Y289567D01*
G01X9104039Y292869D01*
G01X9100737Y296171D01*
G01X9097435Y303029D01*
G01X9097435Y313189D01*
G01X9100737Y320047D01*
G01X9107595Y326905D01*
G01X9117755Y330207D01*
G01X9131471Y333763D01*
G01X9138329Y337065D01*
G01X9141631Y343923D01*
G01X9141631Y350781D01*
G01X9138329Y357639D01*
G01X9127915Y360941D01*
G01X9114453Y360941D01*
G01X10185320Y422142D02*
G01X10185320Y350768D01*
G01X10185320Y422142D02*
G01X10215800Y422142D01*
G01X10226214Y418840D01*
G01X10229516Y415284D01*
G01X10232818Y408680D01*
G01X10232818Y398266D01*
G01X10229516Y391408D01*
G01X10226214Y388106D01*
G01X10215800Y384804D01*
G01X10185320Y384804D01*
G01X10266854Y422142D02*
G01X10304446Y422142D01*
G01X10284126Y394964D01*
G01X10294286Y394964D01*
G01X10301144Y391408D01*
G01X10304446Y388106D01*
G01X10307748Y377946D01*
G01X10307748Y371088D01*
G01X10304446Y360928D01*
G01X10297588Y354070D01*
G01X10287428Y350768D01*
G01X10277268Y350768D01*
G01X10266854Y354070D01*
G01X10263552Y357372D01*
G01X10260250Y364230D01*
G01X11251234Y396642D02*
G01X11251234Y325268D01*
G01X11251234Y396642D02*
G01X11281714Y396642D01*
G01X11292128Y393340D01*
G01X11295430Y389784D01*
G01X11298732Y383180D01*
G01X11298732Y372766D01*
G01X11295430Y365908D01*
G01X11292128Y362606D01*
G01X11281714Y359304D01*
G01X11251234Y359304D01*
G01X11360200Y396642D02*
G01X11326164Y348890D01*
G01X11377218Y348890D01*
G01X11360200Y396642D02*
G01X11360200Y325268D01*
G01X5220079Y335441D02*
G01X5220079Y264067D01*
G01X5220079Y335441D02*
G01X5250559Y335441D01*
G01X5260973Y332139D01*
G01X5264275Y328583D01*
G01X5267577Y321979D01*
G01X5267577Y311565D01*
G01X5264275Y304707D01*
G01X5260973Y301405D01*
G01X5250559Y298103D01*
G01X5220079Y298103D01*
G01X5335903Y335441D02*
G01X5301613Y335441D01*
G01X5298311Y304707D01*
G01X5301613Y308263D01*
G01X5312027Y311565D01*
G01X5322187Y311565D01*
G01X5332347Y308263D01*
G01X5339205Y301405D01*
G01X5342507Y291245D01*
G01X5342507Y284387D01*
G01X5339205Y274227D01*
G01X5332347Y267369D01*
G01X5322187Y264067D01*
G01X5312027Y264067D01*
G01X5301613Y267369D01*
G01X5298311Y270671D01*
G01X5295009Y277529D01*
G01X13989969Y2604970D02*
G01X13989969Y2533596D01*
G01X13989969Y2604970D02*
G01X14020449Y2604970D01*
G01X14030863Y2601668D01*
G01X14034165Y2598112D01*
G01X14037467Y2591508D01*
G01X14037467Y2581094D01*
G01X14034165Y2574236D01*
G01X14030863Y2570934D01*
G01X14020449Y2567632D01*
G01X13989969Y2567632D01*
G01X14112397Y2604970D02*
G01X14078361Y2533596D01*
G01X14064899Y2604970D02*
G01X14112397Y2604970D01*
G01X13602284Y3879987D02*
G01X13595426Y3876685D01*
G01X13588568Y3869827D01*
G01X13585266Y3862969D01*
G01X13581964Y3852809D01*
G01X13581964Y3835791D01*
G01X13585266Y3825631D01*
G01X13588568Y3818773D01*
G01X13595426Y3811915D01*
G01X13602284Y3808613D01*
G01X13616000Y3808613D01*
G01X13622858Y3811915D01*
G01X13629462Y3818773D01*
G01X13633018Y3825631D01*
G01X13636320Y3835791D01*
G01X13636320Y3852809D01*
G01X13633018Y3862969D01*
G01X13629462Y3869827D01*
G01X13622858Y3876685D01*
G01X13616000Y3879987D01*
G01X13602284Y3879987D01*
G01X13612444Y3822075D02*
G01X13633018Y3801755D01*
G01X13663752Y3866525D02*
G01X13670356Y3869827D01*
G01X13680770Y3879987D01*
G01X13680770Y3808613D01*
G01X10680026Y1370754D02*
G01X10680026Y1299380D01*
G01X10680026Y1370754D02*
G01X10710506Y1370754D01*
G01X10720920Y1367452D01*
G01X10724222Y1363896D01*
G01X10727524Y1357292D01*
G01X10727524Y1350434D01*
G01X10724222Y1343576D01*
G01X10720920Y1340020D01*
G01X10710506Y1336718D01*
G01X10680026Y1336718D01*
G01X10703902Y1336718D02*
G01X10727524Y1299380D01*
G01X10802454Y1370754D02*
G01X10768418Y1299380D01*
G01X10754956Y1370754D02*
G01X10802454Y1370754D01*
G01X10435223Y2824273D02*
G01X10435223Y2752899D01*
G01X10435223Y2824273D02*
G01X10465703Y2824273D01*
G01X10476117Y2820971D01*
G01X10479419Y2817415D01*
G01X10482721Y2810811D01*
G01X10482721Y2803953D01*
G01X10479419Y2797095D01*
G01X10476117Y2793539D01*
G01X10465703Y2790237D01*
G01X10435223Y2790237D01*
G01X10459099Y2790237D02*
G01X10482721Y2752899D01*
G01X10527171Y2824273D02*
G01X10516757Y2820971D01*
G01X10513455Y2814113D01*
G01X10513455Y2807255D01*
G01X10516757Y2800397D01*
G01X10523615Y2797095D01*
G01X10537331Y2793539D01*
G01X10547491Y2790237D01*
G01X10554349Y2783379D01*
G01X10557651Y2776521D01*
G01X10557651Y2766361D01*
G01X10554349Y2759503D01*
G01X10551047Y2756201D01*
G01X10540633Y2752899D01*
G01X10527171Y2752899D01*
G01X10516757Y2756201D01*
G01X10513455Y2759503D01*
G01X10510153Y2766361D01*
G01X10510153Y2776521D01*
G01X10513455Y2783379D01*
G01X10520313Y2790237D01*
G01X10530473Y2793539D01*
G01X10544189Y2797095D01*
G01X10551047Y2800397D01*
G01X10554349Y2807255D01*
G01X10554349Y2814113D01*
G01X10551047Y2820971D01*
G01X10540633Y2824273D01*
G01X10527171Y2824273D01*
G01X11383835Y2783473D02*
G01X11383835Y2712099D01*
G01X11383835Y2783473D02*
G01X11414315Y2783473D01*
G01X11424729Y2780171D01*
G01X11428031Y2776615D01*
G01X11431333Y2770011D01*
G01X11431333Y2763153D01*
G01X11428031Y2756295D01*
G01X11424729Y2752739D01*
G01X11414315Y2749437D01*
G01X11383835Y2749437D01*
G01X11407711Y2749437D02*
G01X11431333Y2712099D01*
G01X11458765Y2770011D02*
G01X11465369Y2773313D01*
G01X11475783Y2783473D01*
G01X11475783Y2712099D01*
G01X11523535Y2783473D02*
G01X11513375Y2780171D01*
G01X11506517Y2770011D01*
G01X11503215Y2752739D01*
G01X11503215Y2742579D01*
G01X11506517Y2725561D01*
G01X11513375Y2715401D01*
G01X11523535Y2712099D01*
G01X11530393Y2712099D01*
G01X11540553Y2715401D01*
G01X11547411Y2725561D01*
G01X11550713Y2742579D01*
G01X11550713Y2752739D01*
G01X11547411Y2770011D01*
G01X11540553Y2780171D01*
G01X11530393Y2783473D01*
G01X11523535Y2783473D01*
G01X5700710Y1340829D02*
G01X5629336Y1340829D01*
G01X5700710Y1340829D02*
G01X5700710Y1310349D01*
G01X5697408Y1299935D01*
G01X5693852Y1296633D01*
G01X5687248Y1293331D01*
G01X5680390Y1293331D01*
G01X5673532Y1296633D01*
G01X5669976Y1299935D01*
G01X5666674Y1310349D01*
G01X5666674Y1340829D01*
G01X5666674Y1316953D02*
G01X5629336Y1293331D01*
G01X5700710Y1259295D02*
G01X5700710Y1221703D01*
G01X5673532Y1242023D01*
G01X5673532Y1231863D01*
G01X5669976Y1225005D01*
G01X5666674Y1221703D01*
G01X5656514Y1218401D01*
G01X5649656Y1218401D01*
G01X5639496Y1221703D01*
G01X5632638Y1228561D01*
G01X5629336Y1238721D01*
G01X5629336Y1248881D01*
G01X5632638Y1259295D01*
G01X5635940Y1262597D01*
G01X5642798Y1265899D01*
G01X5700710Y1184365D02*
G01X5700710Y1146773D01*
G01X5673532Y1167093D01*
G01X5673532Y1156933D01*
G01X5669976Y1150075D01*
G01X5666674Y1146773D01*
G01X5656514Y1143471D01*
G01X5649656Y1143471D01*
G01X5639496Y1146773D01*
G01X5632638Y1153631D01*
G01X5629336Y1163791D01*
G01X5629336Y1173951D01*
G01X5632638Y1184365D01*
G01X5635940Y1187667D01*
G01X5642798Y1190969D01*
G01X6023666Y3125177D02*
G01X6023666Y3053803D01*
G01X6023666Y3125177D02*
G01X6054146Y3125177D01*
G01X6064560Y3121875D01*
G01X6067862Y3118319D01*
G01X6071164Y3111715D01*
G01X6071164Y3104857D01*
G01X6067862Y3097999D01*
G01X6064560Y3094443D01*
G01X6054146Y3091141D01*
G01X6023666Y3091141D01*
G01X6047542Y3091141D02*
G01X6071164Y3053803D01*
G01X6132632Y3125177D02*
G01X6098596Y3077425D01*
G01X6149650Y3077425D01*
G01X6132632Y3125177D02*
G01X6132632Y3053803D01*
G01X6217976Y3115017D02*
G01X6214420Y3121875D01*
G01X6204260Y3125177D01*
G01X6197402Y3125177D01*
G01X6187242Y3121875D01*
G01X6180384Y3111715D01*
G01X6177082Y3094443D01*
G01X6177082Y3077425D01*
G01X6180384Y3063963D01*
G01X6187242Y3057105D01*
G01X6197402Y3053803D01*
G01X6200958Y3053803D01*
G01X6211118Y3057105D01*
G01X6217976Y3063963D01*
G01X6221278Y3074123D01*
G01X6221278Y3077425D01*
G01X6217976Y3087839D01*
G01X6211118Y3094443D01*
G01X6200958Y3097999D01*
G01X6197402Y3097999D01*
G01X6187242Y3094443D01*
G01X6180384Y3087839D01*
G01X6177082Y3077425D01*
G01X10674926Y3094577D02*
G01X10674926Y3023203D01*
G01X10674926Y3094577D02*
G01X10705406Y3094577D01*
G01X10715820Y3091275D01*
G01X10719122Y3087719D01*
G01X10722424Y3081115D01*
G01X10722424Y3074257D01*
G01X10719122Y3067399D01*
G01X10715820Y3063843D01*
G01X10705406Y3060541D01*
G01X10674926Y3060541D01*
G01X10698802Y3060541D02*
G01X10722424Y3023203D01*
G01X10749856Y3081115D02*
G01X10756460Y3084417D01*
G01X10766874Y3094577D01*
G01X10766874Y3023203D01*
G01X10797608Y3077559D02*
G01X10797608Y3081115D01*
G01X10800910Y3087719D01*
G01X10804466Y3091275D01*
G01X10811324Y3094577D01*
G01X10824786Y3094577D01*
G01X10831644Y3091275D01*
G01X10835200Y3087719D01*
G01X10838502Y3081115D01*
G01X10838502Y3074257D01*
G01X10835200Y3067399D01*
G01X10828342Y3057239D01*
G01X10794306Y3023203D01*
G01X10841804Y3023203D01*
G01X5440607Y1335729D02*
G01X5369233Y1335729D01*
G01X5440607Y1335729D02*
G01X5440607Y1305249D01*
G01X5437305Y1294835D01*
G01X5433749Y1291533D01*
G01X5427145Y1288231D01*
G01X5420287Y1288231D01*
G01X5413429Y1291533D01*
G01X5409873Y1294835D01*
G01X5406571Y1305249D01*
G01X5406571Y1335729D01*
G01X5406571Y1311853D02*
G01X5369233Y1288231D01*
G01X5440607Y1254195D02*
G01X5440607Y1216603D01*
G01X5413429Y1236923D01*
G01X5413429Y1226763D01*
G01X5409873Y1219905D01*
G01X5406571Y1216603D01*
G01X5396411Y1213301D01*
G01X5389553Y1213301D01*
G01X5379393Y1216603D01*
G01X5372535Y1223461D01*
G01X5369233Y1233621D01*
G01X5369233Y1243781D01*
G01X5372535Y1254195D01*
G01X5375837Y1257497D01*
G01X5382695Y1260799D01*
G01X5440607Y1151833D02*
G01X5392855Y1185869D01*
G01X5392855Y1134815D01*
G01X5440607Y1151833D02*
G01X5369233Y1151833D01*
G01X5600360Y3267979D02*
G01X5600360Y3196605D01*
G01X5600360Y3267979D02*
G01X5630840Y3267979D01*
G01X5641254Y3264677D01*
G01X5644556Y3261121D01*
G01X5647858Y3254517D01*
G01X5647858Y3247659D01*
G01X5644556Y3240801D01*
G01X5641254Y3237245D01*
G01X5630840Y3233943D01*
G01X5600360Y3233943D01*
G01X5624236Y3233943D02*
G01X5647858Y3196605D01*
G01X5709326Y3267979D02*
G01X5675290Y3220227D01*
G01X5726344Y3220227D01*
G01X5709326Y3267979D02*
G01X5709326Y3196605D01*
G01X5801274Y3267979D02*
G01X5767238Y3196605D01*
G01X5753776Y3267979D02*
G01X5801274Y3267979D01*
G01X5273956Y3165978D02*
G01X5273956Y3094604D01*
G01X5273956Y3165978D02*
G01X5304436Y3165978D01*
G01X5314850Y3162676D01*
G01X5318152Y3159120D01*
G01X5321454Y3152516D01*
G01X5321454Y3145658D01*
G01X5318152Y3138800D01*
G01X5314850Y3135244D01*
G01X5304436Y3131942D01*
G01X5273956Y3131942D01*
G01X5297832Y3131942D02*
G01X5321454Y3094604D01*
G01X5389780Y3165978D02*
G01X5355490Y3165978D01*
G01X5352188Y3135244D01*
G01X5355490Y3138800D01*
G01X5365904Y3142102D01*
G01X5376064Y3142102D01*
G01X5386224Y3138800D01*
G01X5393082Y3131942D01*
G01X5396384Y3121782D01*
G01X5396384Y3114924D01*
G01X5393082Y3104764D01*
G01X5386224Y3097906D01*
G01X5376064Y3094604D01*
G01X5365904Y3094604D01*
G01X5355490Y3097906D01*
G01X5352188Y3101208D01*
G01X5348886Y3108066D01*
G01X5423816Y3152516D02*
G01X5430420Y3155818D01*
G01X5440834Y3165978D01*
G01X5440834Y3094604D01*
G01X453938Y2727372D02*
G01X453938Y2655998D01*
G01X453938Y2727372D02*
G01X484418Y2727372D01*
G01X494832Y2724070D01*
G01X498134Y2720514D01*
G01X501436Y2713910D01*
G01X501436Y2707052D01*
G01X498134Y2700194D01*
G01X494832Y2696638D01*
G01X484418Y2693336D01*
G01X453938Y2693336D01*
G01X477814Y2693336D02*
G01X501436Y2655998D01*
G01X535472Y2727372D02*
G01X573064Y2727372D01*
G01X552744Y2700194D01*
G01X562904Y2700194D01*
G01X569762Y2696638D01*
G01X573064Y2693336D01*
G01X576366Y2683176D01*
G01X576366Y2676318D01*
G01X573064Y2666158D01*
G01X566206Y2659300D01*
G01X556046Y2655998D01*
G01X545886Y2655998D01*
G01X535472Y2659300D01*
G01X532170Y2662602D01*
G01X528868Y2669460D01*
G01X5845164Y3762685D02*
G01X5845164Y3691311D01*
G01X5845164Y3762685D02*
G01X5875644Y3762685D01*
G01X5886058Y3759383D01*
G01X5889360Y3755827D01*
G01X5892662Y3749223D01*
G01X5892662Y3742365D01*
G01X5889360Y3735507D01*
G01X5886058Y3731951D01*
G01X5875644Y3728649D01*
G01X5845164Y3728649D01*
G01X5869040Y3728649D02*
G01X5892662Y3691311D01*
G01X5926698Y3762685D02*
G01X5964290Y3762685D01*
G01X5943970Y3735507D01*
G01X5954130Y3735507D01*
G01X5960988Y3731951D01*
G01X5964290Y3728649D01*
G01X5967592Y3718489D01*
G01X5967592Y3711631D01*
G01X5964290Y3701471D01*
G01X5957432Y3694613D01*
G01X5947272Y3691311D01*
G01X5937112Y3691311D01*
G01X5926698Y3694613D01*
G01X5923396Y3697915D01*
G01X5920094Y3704773D01*
G01X6039220Y3738809D02*
G01X6035918Y3728649D01*
G01X6029060Y3721791D01*
G01X6018900Y3718489D01*
G01X6015344Y3718489D01*
G01X6005184Y3721791D01*
G01X5998326Y3728649D01*
G01X5995024Y3738809D01*
G01X5995024Y3742365D01*
G01X5998326Y3752525D01*
G01X6005184Y3759383D01*
G01X6015344Y3762685D01*
G01X6018900Y3762685D01*
G01X6029060Y3759383D01*
G01X6035918Y3752525D01*
G01X6039220Y3738809D01*
G01X6039220Y3721791D01*
G01X6035918Y3704773D01*
G01X6029060Y3694613D01*
G01X6018900Y3691311D01*
G01X6012042Y3691311D01*
G01X6001628Y3694613D01*
G01X5998326Y3701471D01*
G01X5391258Y3757585D02*
G01X5391258Y3686211D01*
G01X5391258Y3757585D02*
G01X5421738Y3757585D01*
G01X5432152Y3754283D01*
G01X5435454Y3750727D01*
G01X5438756Y3744123D01*
G01X5438756Y3737265D01*
G01X5435454Y3730407D01*
G01X5432152Y3726851D01*
G01X5421738Y3723549D01*
G01X5391258Y3723549D01*
G01X5415134Y3723549D02*
G01X5438756Y3686211D01*
G01X5500224Y3757585D02*
G01X5466188Y3709833D01*
G01X5517242Y3709833D01*
G01X5500224Y3757585D02*
G01X5500224Y3686211D01*
G01X5547976Y3740567D02*
G01X5547976Y3744123D01*
G01X5551278Y3750727D01*
G01X5554834Y3754283D01*
G01X5561692Y3757585D01*
G01X5575154Y3757585D01*
G01X5582012Y3754283D01*
G01X5585568Y3750727D01*
G01X5588870Y3744123D01*
G01X5588870Y3737265D01*
G01X5585568Y3730407D01*
G01X5578710Y3720247D01*
G01X5544674Y3686211D01*
G01X5592172Y3686211D01*
G01X7276631Y1361230D02*
G01X7205257Y1361230D01*
G01X7276631Y1361230D02*
G01X7276631Y1330750D01*
G01X7273329Y1320336D01*
G01X7269773Y1317034D01*
G01X7263169Y1313732D01*
G01X7256311Y1313732D01*
G01X7249453Y1317034D01*
G01X7245897Y1320336D01*
G01X7242595Y1330750D01*
G01X7242595Y1361230D01*
G01X7242595Y1337354D02*
G01X7205257Y1313732D01*
G01X7276631Y1279696D02*
G01X7276631Y1242104D01*
G01X7249453Y1262424D01*
G01X7249453Y1252264D01*
G01X7245897Y1245406D01*
G01X7242595Y1242104D01*
G01X7232435Y1238802D01*
G01X7225577Y1238802D01*
G01X7215417Y1242104D01*
G01X7208559Y1248962D01*
G01X7205257Y1259122D01*
G01X7205257Y1269282D01*
G01X7208559Y1279696D01*
G01X7211861Y1282998D01*
G01X7218719Y1286300D01*
G01X7276631Y1170476D02*
G01X7276631Y1204766D01*
G01X7245897Y1208068D01*
G01X7249453Y1204766D01*
G01X7252755Y1194352D01*
G01X7252755Y1184192D01*
G01X7249453Y1174032D01*
G01X7242595Y1167174D01*
G01X7232435Y1163872D01*
G01X7225577Y1163872D01*
G01X7215417Y1167174D01*
G01X7208559Y1174032D01*
G01X7205257Y1184192D01*
G01X7205257Y1194352D01*
G01X7208559Y1204766D01*
G01X7211861Y1208068D01*
G01X7218719Y1211370D01*
G01X7273182Y3288379D02*
G01X7273182Y3217005D01*
G01X7273182Y3288379D02*
G01X7303662Y3288379D01*
G01X7314076Y3285077D01*
G01X7317378Y3281521D01*
G01X7320680Y3274917D01*
G01X7320680Y3268059D01*
G01X7317378Y3261201D01*
G01X7314076Y3257645D01*
G01X7303662Y3254343D01*
G01X7273182Y3254343D01*
G01X7297058Y3254343D02*
G01X7320680Y3217005D01*
G01X7382148Y3288379D02*
G01X7348112Y3240627D01*
G01X7399166Y3240627D01*
G01X7382148Y3288379D02*
G01X7382148Y3217005D01*
G01X7443616Y3288379D02*
G01X7433202Y3285077D01*
G01X7429900Y3278219D01*
G01X7429900Y3271361D01*
G01X7433202Y3264503D01*
G01X7440060Y3261201D01*
G01X7453776Y3257645D01*
G01X7463936Y3254343D01*
G01X7470794Y3247485D01*
G01X7474096Y3240627D01*
G01X7474096Y3230467D01*
G01X7470794Y3223609D01*
G01X7467492Y3220307D01*
G01X7457078Y3217005D01*
G01X7443616Y3217005D01*
G01X7433202Y3220307D01*
G01X7429900Y3223609D01*
G01X7426598Y3230467D01*
G01X7426598Y3240627D01*
G01X7429900Y3247485D01*
G01X7436758Y3254343D01*
G01X7446918Y3257645D01*
G01X7460634Y3261201D01*
G01X7467492Y3264503D01*
G01X7470794Y3271361D01*
G01X7470794Y3278219D01*
G01X7467492Y3285077D01*
G01X7457078Y3288379D01*
G01X7443616Y3288379D01*
G01X7052228Y1356130D02*
G01X6980854Y1356130D01*
G01X7052228Y1356130D02*
G01X7052228Y1325650D01*
G01X7048926Y1315236D01*
G01X7045370Y1311934D01*
G01X7038766Y1308632D01*
G01X7031908Y1308632D01*
G01X7025050Y1311934D01*
G01X7021494Y1315236D01*
G01X7018192Y1325650D01*
G01X7018192Y1356130D01*
G01X7018192Y1332254D02*
G01X6980854Y1308632D01*
G01X7052228Y1274596D02*
G01X7052228Y1237004D01*
G01X7025050Y1257324D01*
G01X7025050Y1247164D01*
G01X7021494Y1240306D01*
G01X7018192Y1237004D01*
G01X7008032Y1233702D01*
G01X7001174Y1233702D01*
G01X6991014Y1237004D01*
G01X6984156Y1243862D01*
G01X6980854Y1254022D01*
G01X6980854Y1264182D01*
G01X6984156Y1274596D01*
G01X6987458Y1277898D01*
G01X6994316Y1281200D01*
G01X7042068Y1165376D02*
G01X7048926Y1168932D01*
G01X7052228Y1179092D01*
G01X7052228Y1185950D01*
G01X7048926Y1196110D01*
G01X7038766Y1202968D01*
G01X7021494Y1206270D01*
G01X7004476Y1206270D01*
G01X6991014Y1202968D01*
G01X6984156Y1196110D01*
G01X6980854Y1185950D01*
G01X6980854Y1182394D01*
G01X6984156Y1172234D01*
G01X6991014Y1165376D01*
G01X7001174Y1162074D01*
G01X7004476Y1162074D01*
G01X7014890Y1165376D01*
G01X7021494Y1172234D01*
G01X7025050Y1182394D01*
G01X7025050Y1185950D01*
G01X7021494Y1196110D01*
G01X7014890Y1202968D01*
G01X7004476Y1206270D01*
G01X7033479Y3278179D02*
G01X7033479Y3206805D01*
G01X7033479Y3278179D02*
G01X7063959Y3278179D01*
G01X7074373Y3274877D01*
G01X7077675Y3271321D01*
G01X7080977Y3264717D01*
G01X7080977Y3257859D01*
G01X7077675Y3251001D01*
G01X7074373Y3247445D01*
G01X7063959Y3244143D01*
G01X7033479Y3244143D01*
G01X7057355Y3244143D02*
G01X7080977Y3206805D01*
G01X7142445Y3278179D02*
G01X7108409Y3230427D01*
G01X7159463Y3230427D01*
G01X7142445Y3278179D02*
G01X7142445Y3206805D01*
G01X7227789Y3278179D02*
G01X7193499Y3278179D01*
G01X7190197Y3247445D01*
G01X7193499Y3251001D01*
G01X7203913Y3254303D01*
G01X7214073Y3254303D01*
G01X7224233Y3251001D01*
G01X7231091Y3244143D01*
G01X7234393Y3233983D01*
G01X7234393Y3227125D01*
G01X7231091Y3216965D01*
G01X7224233Y3210107D01*
G01X7214073Y3206805D01*
G01X7203913Y3206805D01*
G01X7193499Y3210107D01*
G01X7190197Y3213409D01*
G01X7186895Y3220267D01*
G01X6793776Y3267979D02*
G01X6793776Y3196605D01*
G01X6793776Y3267979D02*
G01X6824256Y3267979D01*
G01X6834670Y3264677D01*
G01X6837972Y3261121D01*
G01X6841274Y3254517D01*
G01X6841274Y3247659D01*
G01X6837972Y3240801D01*
G01X6834670Y3237245D01*
G01X6824256Y3233943D01*
G01X6793776Y3233943D01*
G01X6817652Y3233943D02*
G01X6841274Y3196605D01*
G01X6909600Y3267979D02*
G01X6875310Y3267979D01*
G01X6872008Y3237245D01*
G01X6875310Y3240801D01*
G01X6885724Y3244103D01*
G01X6895884Y3244103D01*
G01X6906044Y3240801D01*
G01X6912902Y3233943D01*
G01X6916204Y3223783D01*
G01X6916204Y3216925D01*
G01X6912902Y3206765D01*
G01X6906044Y3199907D01*
G01X6895884Y3196605D01*
G01X6885724Y3196605D01*
G01X6875310Y3199907D01*
G01X6872008Y3203209D01*
G01X6868706Y3210067D01*
G01X6946938Y3250961D02*
G01X6946938Y3254517D01*
G01X6950240Y3261121D01*
G01X6953796Y3264677D01*
G01X6960654Y3267979D01*
G01X6974116Y3267979D01*
G01X6980974Y3264677D01*
G01X6984530Y3261121D01*
G01X6987832Y3254517D01*
G01X6987832Y3247659D01*
G01X6984530Y3240801D01*
G01X6977672Y3230641D01*
G01X6943636Y3196605D01*
G01X6991134Y3196605D01*
G01X8129993Y3788186D02*
G01X8129993Y3716812D01*
G01X8129993Y3788186D02*
G01X8160473Y3788186D01*
G01X8170887Y3784884D01*
G01X8174189Y3781328D01*
G01X8177491Y3774724D01*
G01X8177491Y3767866D01*
G01X8174189Y3761008D01*
G01X8170887Y3757452D01*
G01X8160473Y3754150D01*
G01X8129993Y3754150D01*
G01X8153869Y3754150D02*
G01X8177491Y3716812D01*
G01X8204923Y3774724D02*
G01X8211527Y3778026D01*
G01X8221941Y3788186D01*
G01X8221941Y3716812D01*
G01X8290267Y3788186D02*
G01X8255977Y3788186D01*
G01X8252675Y3757452D01*
G01X8255977Y3761008D01*
G01X8266391Y3764310D01*
G01X8276551Y3764310D01*
G01X8286711Y3761008D01*
G01X8293569Y3754150D01*
G01X8296871Y3743990D01*
G01X8296871Y3737132D01*
G01X8293569Y3726972D01*
G01X8286711Y3720114D01*
G01X8276551Y3716812D01*
G01X8266391Y3716812D01*
G01X8255977Y3720114D01*
G01X8252675Y3723416D01*
G01X8249373Y3730274D01*
G01X7069179Y3757585D02*
G01X7069179Y3686211D01*
G01X7069179Y3757585D02*
G01X7099659Y3757585D01*
G01X7110073Y3754283D01*
G01X7113375Y3750727D01*
G01X7116677Y3744123D01*
G01X7116677Y3737265D01*
G01X7113375Y3730407D01*
G01X7110073Y3726851D01*
G01X7099659Y3723549D01*
G01X7069179Y3723549D01*
G01X7093055Y3723549D02*
G01X7116677Y3686211D01*
G01X7178145Y3757585D02*
G01X7144109Y3709833D01*
G01X7195163Y3709833D01*
G01X7178145Y3757585D02*
G01X7178145Y3686211D01*
G01X7242915Y3757585D02*
G01X7232755Y3754283D01*
G01X7225897Y3744123D01*
G01X7222595Y3726851D01*
G01X7222595Y3716691D01*
G01X7225897Y3699673D01*
G01X7232755Y3689513D01*
G01X7242915Y3686211D01*
G01X7249773Y3686211D01*
G01X7259933Y3689513D01*
G01X7266791Y3699673D01*
G01X7270093Y3716691D01*
G01X7270093Y3726851D01*
G01X7266791Y3744123D01*
G01X7259933Y3754283D01*
G01X7249773Y3757585D01*
G01X7242915Y3757585D01*
G01X6599973Y3747385D02*
G01X6599973Y3676011D01*
G01X6599973Y3747385D02*
G01X6630453Y3747385D01*
G01X6640867Y3744083D01*
G01X6644169Y3740527D01*
G01X6647471Y3733923D01*
G01X6647471Y3727065D01*
G01X6644169Y3720207D01*
G01X6640867Y3716651D01*
G01X6630453Y3713349D01*
G01X6599973Y3713349D01*
G01X6623849Y3713349D02*
G01X6647471Y3676011D01*
G01X6708939Y3747385D02*
G01X6674903Y3699633D01*
G01X6725957Y3699633D01*
G01X6708939Y3747385D02*
G01X6708939Y3676011D01*
G01X6759993Y3747385D02*
G01X6797585Y3747385D01*
G01X6777265Y3720207D01*
G01X6787425Y3720207D01*
G01X6794283Y3716651D01*
G01X6797585Y3713349D01*
G01X6800887Y3703189D01*
G01X6800887Y3696331D01*
G01X6797585Y3686171D01*
G01X6790727Y3679313D01*
G01X6780567Y3676011D01*
G01X6770407Y3676011D01*
G01X6759993Y3679313D01*
G01X6756691Y3682615D01*
G01X6753389Y3689473D01*
G01X8816851Y1356130D02*
G01X8745477Y1356130D01*
G01X8816851Y1356130D02*
G01X8816851Y1325650D01*
G01X8813549Y1315236D01*
G01X8809993Y1311934D01*
G01X8803389Y1308632D01*
G01X8796531Y1308632D01*
G01X8789673Y1311934D01*
G01X8786117Y1315236D01*
G01X8782815Y1325650D01*
G01X8782815Y1356130D01*
G01X8782815Y1332254D02*
G01X8745477Y1308632D01*
G01X8816851Y1274596D02*
G01X8816851Y1237004D01*
G01X8789673Y1257324D01*
G01X8789673Y1247164D01*
G01X8786117Y1240306D01*
G01X8782815Y1237004D01*
G01X8772655Y1233702D01*
G01X8765797Y1233702D01*
G01X8755637Y1237004D01*
G01X8748779Y1243862D01*
G01X8745477Y1254022D01*
G01X8745477Y1264182D01*
G01X8748779Y1274596D01*
G01X8752081Y1277898D01*
G01X8758939Y1281200D01*
G01X8816851Y1158772D02*
G01X8745477Y1192808D01*
G01X8816851Y1206270D02*
G01X8816851Y1158772D01*
G01X4194513Y1326550D02*
G01X4123139Y1326550D01*
G01X4194513Y1326550D02*
G01X4194513Y1296070D01*
G01X4191211Y1285656D01*
G01X4187655Y1282354D01*
G01X4181051Y1279052D01*
G01X4174193Y1279052D01*
G01X4167335Y1282354D01*
G01X4163779Y1285656D01*
G01X4160477Y1296070D01*
G01X4160477Y1326550D01*
G01X4160477Y1302674D02*
G01X4123139Y1279052D01*
G01X4177495Y1248318D02*
G01X4181051Y1248318D01*
G01X4187655Y1245016D01*
G01X4191211Y1241460D01*
G01X4194513Y1234602D01*
G01X4194513Y1221140D01*
G01X4191211Y1214282D01*
G01X4187655Y1210726D01*
G01X4181051Y1207424D01*
G01X4174193Y1207424D01*
G01X4167335Y1210726D01*
G01X4157175Y1217584D01*
G01X4123139Y1251620D01*
G01X4123139Y1204122D01*
G01X4194513Y1135796D02*
G01X4194513Y1170086D01*
G01X4163779Y1173388D01*
G01X4167335Y1170086D01*
G01X4170637Y1159672D01*
G01X4170637Y1149512D01*
G01X4167335Y1139352D01*
G01X4160477Y1132494D01*
G01X4150317Y1129192D01*
G01X4143459Y1129192D01*
G01X4133299Y1132494D01*
G01X4126441Y1139352D01*
G01X4123139Y1149512D01*
G01X4123139Y1159672D01*
G01X4126441Y1170086D01*
G01X4129743Y1173388D01*
G01X4136601Y1176690D01*
G01X4395094Y1315329D02*
G01X4323720Y1315329D01*
G01X4395094Y1315329D02*
G01X4395094Y1284849D01*
G01X4391792Y1274435D01*
G01X4388236Y1271133D01*
G01X4381632Y1267831D01*
G01X4374774Y1267831D01*
G01X4367916Y1271133D01*
G01X4364360Y1274435D01*
G01X4361058Y1284849D01*
G01X4361058Y1315329D01*
G01X4361058Y1291453D02*
G01X4323720Y1267831D01*
G01X4378076Y1237097D02*
G01X4381632Y1237097D01*
G01X4388236Y1233795D01*
G01X4391792Y1230239D01*
G01X4395094Y1223381D01*
G01X4395094Y1209919D01*
G01X4391792Y1203061D01*
G01X4388236Y1199505D01*
G01X4381632Y1196203D01*
G01X4374774Y1196203D01*
G01X4367916Y1199505D01*
G01X4357756Y1206363D01*
G01X4323720Y1240399D01*
G01X4323720Y1192901D01*
G01X4395094Y1117971D02*
G01X4323720Y1152007D01*
G01X4395094Y1165469D02*
G01X4395094Y1117971D01*
G01X8920503Y3033376D02*
G01X8920503Y2962002D01*
G01X8920503Y3033376D02*
G01X8950983Y3033376D01*
G01X8961397Y3030074D01*
G01X8964699Y3026518D01*
G01X8968001Y3019914D01*
G01X8968001Y3013056D01*
G01X8964699Y3006198D01*
G01X8961397Y3002642D01*
G01X8950983Y2999340D01*
G01X8920503Y2999340D01*
G01X8944379Y2999340D02*
G01X8968001Y2962002D01*
G01X9036327Y3033376D02*
G01X9002037Y3033376D01*
G01X8998735Y3002642D01*
G01X9002037Y3006198D01*
G01X9012451Y3009500D01*
G01X9022611Y3009500D01*
G01X9032771Y3006198D01*
G01X9039629Y2999340D01*
G01X9042931Y2989180D01*
G01X9042931Y2982322D01*
G01X9039629Y2972162D01*
G01X9032771Y2965304D01*
G01X9022611Y2962002D01*
G01X9012451Y2962002D01*
G01X9002037Y2965304D01*
G01X8998735Y2968606D01*
G01X8995433Y2975464D01*
G01X9090683Y3033376D02*
G01X9080523Y3030074D01*
G01X9073665Y3019914D01*
G01X9070363Y3002642D01*
G01X9070363Y2992482D01*
G01X9073665Y2975464D01*
G01X9080523Y2965304D01*
G01X9090683Y2962002D01*
G01X9097541Y2962002D01*
G01X9107701Y2965304D01*
G01X9114559Y2975464D01*
G01X9117861Y2992482D01*
G01X9117861Y3002642D01*
G01X9114559Y3019914D01*
G01X9107701Y3030074D01*
G01X9097541Y3033376D01*
G01X9090683Y3033376D01*
G01X8561847Y1356130D02*
G01X8490473Y1356130D01*
G01X8561847Y1356130D02*
G01X8561847Y1325650D01*
G01X8558545Y1315236D01*
G01X8554989Y1311934D01*
G01X8548385Y1308632D01*
G01X8541527Y1308632D01*
G01X8534669Y1311934D01*
G01X8531113Y1315236D01*
G01X8527811Y1325650D01*
G01X8527811Y1356130D01*
G01X8527811Y1332254D02*
G01X8490473Y1308632D01*
G01X8561847Y1274596D02*
G01X8561847Y1237004D01*
G01X8534669Y1257324D01*
G01X8534669Y1247164D01*
G01X8531113Y1240306D01*
G01X8527811Y1237004D01*
G01X8517651Y1233702D01*
G01X8510793Y1233702D01*
G01X8500633Y1237004D01*
G01X8493775Y1243862D01*
G01X8490473Y1254022D01*
G01X8490473Y1264182D01*
G01X8493775Y1274596D01*
G01X8497077Y1277898D01*
G01X8503935Y1281200D01*
G01X8561847Y1189252D02*
G01X8558545Y1199666D01*
G01X8551687Y1202968D01*
G01X8544829Y1202968D01*
G01X8537971Y1199666D01*
G01X8534669Y1192808D01*
G01X8531113Y1179092D01*
G01X8527811Y1168932D01*
G01X8520953Y1162074D01*
G01X8514095Y1158772D01*
G01X8503935Y1158772D01*
G01X8497077Y1162074D01*
G01X8493775Y1165376D01*
G01X8490473Y1175790D01*
G01X8490473Y1189252D01*
G01X8493775Y1199666D01*
G01X8497077Y1202968D01*
G01X8503935Y1206270D01*
G01X8514095Y1206270D01*
G01X8520953Y1202968D01*
G01X8527811Y1196110D01*
G01X8531113Y1185950D01*
G01X8534669Y1172234D01*
G01X8537971Y1165376D01*
G01X8544829Y1162074D01*
G01X8551687Y1162074D01*
G01X8558545Y1165376D01*
G01X8561847Y1175790D01*
G01X8561847Y1189252D01*
G01X8517598Y3267979D02*
G01X8517598Y3196605D01*
G01X8517598Y3267979D02*
G01X8548078Y3267979D01*
G01X8558492Y3264677D01*
G01X8561794Y3261121D01*
G01X8565096Y3254517D01*
G01X8565096Y3247659D01*
G01X8561794Y3240801D01*
G01X8558492Y3237245D01*
G01X8548078Y3233943D01*
G01X8517598Y3233943D01*
G01X8541474Y3233943D02*
G01X8565096Y3196605D01*
G01X8626564Y3267979D02*
G01X8592528Y3220227D01*
G01X8643582Y3220227D01*
G01X8626564Y3267979D02*
G01X8626564Y3196605D01*
G01X8715210Y3244103D02*
G01X8711908Y3233943D01*
G01X8705050Y3227085D01*
G01X8694890Y3223783D01*
G01X8691334Y3223783D01*
G01X8681174Y3227085D01*
G01X8674316Y3233943D01*
G01X8671014Y3244103D01*
G01X8671014Y3247659D01*
G01X8674316Y3257819D01*
G01X8681174Y3264677D01*
G01X8691334Y3267979D01*
G01X8694890Y3267979D01*
G01X8705050Y3264677D01*
G01X8711908Y3257819D01*
G01X8715210Y3244103D01*
G01X8715210Y3227085D01*
G01X8711908Y3210067D01*
G01X8705050Y3199907D01*
G01X8694890Y3196605D01*
G01X8688032Y3196605D01*
G01X8677618Y3199907D01*
G01X8674316Y3206765D01*
G01X8099393Y3053776D02*
G01X8099393Y2982402D01*
G01X8099393Y3053776D02*
G01X8129873Y3053776D01*
G01X8140287Y3050474D01*
G01X8143589Y3046918D01*
G01X8146891Y3040314D01*
G01X8146891Y3033456D01*
G01X8143589Y3026598D01*
G01X8140287Y3023042D01*
G01X8129873Y3019740D01*
G01X8099393Y3019740D01*
G01X8123269Y3019740D02*
G01X8146891Y2982402D01*
G01X8215217Y3053776D02*
G01X8180927Y3053776D01*
G01X8177625Y3023042D01*
G01X8180927Y3026598D01*
G01X8191341Y3029900D01*
G01X8201501Y3029900D01*
G01X8211661Y3026598D01*
G01X8218519Y3019740D01*
G01X8221821Y3009580D01*
G01X8221821Y3002722D01*
G01X8218519Y2992562D01*
G01X8211661Y2985704D01*
G01X8201501Y2982402D01*
G01X8191341Y2982402D01*
G01X8180927Y2985704D01*
G01X8177625Y2989006D01*
G01X8174323Y2995864D01*
G01X8255857Y3053776D02*
G01X8293449Y3053776D01*
G01X8273129Y3026598D01*
G01X8283289Y3026598D01*
G01X8290147Y3023042D01*
G01X8293449Y3019740D01*
G01X8296751Y3009580D01*
G01X8296751Y3002722D01*
G01X8293449Y2992562D01*
G01X8286591Y2985704D01*
G01X8276431Y2982402D01*
G01X8266271Y2982402D01*
G01X8255857Y2985704D01*
G01X8252555Y2989006D01*
G01X8249253Y2995864D01*
G01X12485450Y3813686D02*
G01X12485450Y3742312D01*
G01X12485450Y3813686D02*
G01X12515930Y3813686D01*
G01X12526344Y3810384D01*
G01X12529646Y3806828D01*
G01X12532948Y3800224D01*
G01X12532948Y3793366D01*
G01X12529646Y3786508D01*
G01X12526344Y3782952D01*
G01X12515930Y3779650D01*
G01X12485450Y3779650D01*
G01X12509326Y3779650D02*
G01X12532948Y3742312D01*
G01X12594416Y3813686D02*
G01X12560380Y3765934D01*
G01X12611434Y3765934D01*
G01X12594416Y3813686D02*
G01X12594416Y3742312D01*
G01X12918955Y3589283D02*
G01X12918955Y3517909D01*
G01X12918955Y3589283D02*
G01X12949435Y3589283D01*
G01X12959849Y3585981D01*
G01X12963151Y3582425D01*
G01X12966453Y3575821D01*
G01X12966453Y3568963D01*
G01X12963151Y3562105D01*
G01X12959849Y3558549D01*
G01X12949435Y3555247D01*
G01X12918955Y3555247D01*
G01X12942831Y3555247D02*
G01X12966453Y3517909D01*
G01X13034779Y3579123D02*
G01X13031223Y3585981D01*
G01X13021063Y3589283D01*
G01X13014205Y3589283D01*
G01X13004045Y3585981D01*
G01X12997187Y3575821D01*
G01X12993885Y3558549D01*
G01X12993885Y3541531D01*
G01X12997187Y3528069D01*
G01X13004045Y3521211D01*
G01X13014205Y3517909D01*
G01X13017761Y3517909D01*
G01X13027921Y3521211D01*
G01X13034779Y3528069D01*
G01X13038081Y3538229D01*
G01X13038081Y3541531D01*
G01X13034779Y3551945D01*
G01X13027921Y3558549D01*
G01X13017761Y3562105D01*
G01X13014205Y3562105D01*
G01X13004045Y3558549D01*
G01X12997187Y3551945D01*
G01X12993885Y3541531D01*
G01X8997004Y3573983D02*
G01X8997004Y3502609D01*
G01X8997004Y3573983D02*
G01X9027484Y3573983D01*
G01X9037898Y3570681D01*
G01X9041200Y3567125D01*
G01X9044502Y3560521D01*
G01X9044502Y3553663D01*
G01X9041200Y3546805D01*
G01X9037898Y3543249D01*
G01X9027484Y3539947D01*
G01X8997004Y3539947D01*
G01X9020880Y3539947D02*
G01X9044502Y3502609D01*
G01X9105970Y3573983D02*
G01X9071934Y3526231D01*
G01X9122988Y3526231D01*
G01X9105970Y3573983D02*
G01X9105970Y3502609D01*
G01X9150420Y3560521D02*
G01X9157024Y3563823D01*
G01X9167438Y3573983D01*
G01X9167438Y3502609D01*
G01X7976991Y3558683D02*
G01X7976991Y3487309D01*
G01X7976991Y3558683D02*
G01X8007471Y3558683D01*
G01X8017885Y3555381D01*
G01X8021187Y3551825D01*
G01X8024489Y3545221D01*
G01X8024489Y3538363D01*
G01X8021187Y3531505D01*
G01X8017885Y3527949D01*
G01X8007471Y3524647D01*
G01X7976991Y3524647D01*
G01X8000867Y3524647D02*
G01X8024489Y3487309D01*
G01X8085957Y3558683D02*
G01X8051921Y3510931D01*
G01X8102975Y3510931D01*
G01X8085957Y3558683D02*
G01X8085957Y3487309D01*
G01X8164443Y3558683D02*
G01X8130407Y3510931D01*
G01X8181461Y3510931D01*
G01X8164443Y3558683D02*
G01X8164443Y3487309D01*
G01X9818115Y1370754D02*
G01X9818115Y1299380D01*
G01X9818115Y1370754D02*
G01X9848595Y1370754D01*
G01X9859009Y1367452D01*
G01X9862311Y1363896D01*
G01X9865613Y1357292D01*
G01X9865613Y1350434D01*
G01X9862311Y1343576D01*
G01X9859009Y1340020D01*
G01X9848595Y1336718D01*
G01X9818115Y1336718D01*
G01X9841991Y1336718D02*
G01X9865613Y1299380D01*
G01X9937241Y1346878D02*
G01X9933939Y1336718D01*
G01X9927081Y1329860D01*
G01X9916921Y1326558D01*
G01X9913365Y1326558D01*
G01X9903205Y1329860D01*
G01X9896347Y1336718D01*
G01X9893045Y1346878D01*
G01X9893045Y1350434D01*
G01X9896347Y1360594D01*
G01X9903205Y1367452D01*
G01X9913365Y1370754D01*
G01X9916921Y1370754D01*
G01X9927081Y1367452D01*
G01X9933939Y1360594D01*
G01X9937241Y1346878D01*
G01X9937241Y1329860D01*
G01X9933939Y1312842D01*
G01X9927081Y1302682D01*
G01X9916921Y1299380D01*
G01X9910063Y1299380D01*
G01X9899649Y1302682D01*
G01X9896347Y1309540D01*
G01X10940130Y1365654D02*
G01X10940130Y1294280D01*
G01X10940130Y1365654D02*
G01X10970610Y1365654D01*
G01X10981024Y1362352D01*
G01X10984326Y1358796D01*
G01X10987628Y1352192D01*
G01X10987628Y1345334D01*
G01X10984326Y1338476D01*
G01X10981024Y1334920D01*
G01X10970610Y1331618D01*
G01X10940130Y1331618D01*
G01X10964006Y1331618D02*
G01X10987628Y1294280D01*
G01X11015060Y1352192D02*
G01X11021664Y1355494D01*
G01X11032078Y1365654D01*
G01X11032078Y1294280D01*
G01X11066114Y1365654D02*
G01X11103706Y1365654D01*
G01X11083386Y1338476D01*
G01X11093546Y1338476D01*
G01X11100404Y1334920D01*
G01X11103706Y1331618D01*
G01X11107008Y1321458D01*
G01X11107008Y1314600D01*
G01X11103706Y1304440D01*
G01X11096848Y1297582D01*
G01X11086688Y1294280D01*
G01X11076528Y1294280D01*
G01X11066114Y1297582D01*
G01X11062812Y1300884D01*
G01X11059510Y1307742D01*
G01X12561950Y1187152D02*
G01X12561950Y1115778D01*
G01X12561950Y1187152D02*
G01X12592430Y1187152D01*
G01X12602844Y1183850D01*
G01X12606146Y1180294D01*
G01X12609448Y1173690D01*
G01X12609448Y1166832D01*
G01X12606146Y1159974D01*
G01X12602844Y1156418D01*
G01X12592430Y1153116D01*
G01X12561950Y1153116D01*
G01X12585826Y1153116D02*
G01X12609448Y1115778D01*
G01X12636880Y1173690D02*
G01X12643484Y1176992D01*
G01X12653898Y1187152D01*
G01X12653898Y1115778D01*
G01X12728828Y1187152D02*
G01X12694792Y1115778D01*
G01X12681330Y1187152D02*
G01X12728828Y1187152D01*
G01X12577251Y1049450D02*
G01X12577251Y978076D01*
G01X12577251Y1049450D02*
G01X12607731Y1049450D01*
G01X12618145Y1046148D01*
G01X12621447Y1042592D01*
G01X12624749Y1035988D01*
G01X12624749Y1029130D01*
G01X12621447Y1022272D01*
G01X12618145Y1018716D01*
G01X12607731Y1015414D01*
G01X12577251Y1015414D01*
G01X12601127Y1015414D02*
G01X12624749Y978076D01*
G01X12655483Y1032432D02*
G01X12655483Y1035988D01*
G01X12658785Y1042592D01*
G01X12662341Y1046148D01*
G01X12669199Y1049450D01*
G01X12682661Y1049450D01*
G01X12689519Y1046148D01*
G01X12693075Y1042592D01*
G01X12696377Y1035988D01*
G01X12696377Y1029130D01*
G01X12693075Y1022272D01*
G01X12686217Y1012112D01*
G01X12652181Y978076D01*
G01X12699679Y978076D01*
G01X12747431Y1049450D02*
G01X12737271Y1046148D01*
G01X12730413Y1035988D01*
G01X12727111Y1018716D01*
G01X12727111Y1008556D01*
G01X12730413Y991538D01*
G01X12737271Y981378D01*
G01X12747431Y978076D01*
G01X12754289Y978076D01*
G01X12764449Y981378D01*
G01X12771307Y991538D01*
G01X12774609Y1008556D01*
G01X12774609Y1018716D01*
G01X12771307Y1035988D01*
G01X12764449Y1046148D01*
G01X12754289Y1049450D01*
G01X12747431Y1049450D01*
G01X10368922Y1370754D02*
G01X10368922Y1299380D01*
G01X10368922Y1370754D02*
G01X10399402Y1370754D01*
G01X10409816Y1367452D01*
G01X10413118Y1363896D01*
G01X10416420Y1357292D01*
G01X10416420Y1350434D01*
G01X10413118Y1343576D01*
G01X10409816Y1340020D01*
G01X10399402Y1336718D01*
G01X10368922Y1336718D01*
G01X10392798Y1336718D02*
G01X10416420Y1299380D01*
G01X10443852Y1357292D02*
G01X10450456Y1360594D01*
G01X10460870Y1370754D01*
G01X10460870Y1299380D01*
G01X10488302Y1357292D02*
G01X10494906Y1360594D01*
G01X10505320Y1370754D01*
G01X10505320Y1299380D01*
G01X11465436Y1380955D02*
G01X11465436Y1309581D01*
G01X11465436Y1380955D02*
G01X11495916Y1380955D01*
G01X11506330Y1377653D01*
G01X11509632Y1374097D01*
G01X11512934Y1367493D01*
G01X11512934Y1360635D01*
G01X11509632Y1353777D01*
G01X11506330Y1350221D01*
G01X11495916Y1346919D01*
G01X11465436Y1346919D01*
G01X11489312Y1346919D02*
G01X11512934Y1309581D01*
G01X11540366Y1367493D02*
G01X11546970Y1370795D01*
G01X11557384Y1380955D01*
G01X11557384Y1309581D01*
G01X11618852Y1380955D02*
G01X11584816Y1333203D01*
G01X11635870Y1333203D01*
G01X11618852Y1380955D02*
G01X11618852Y1309581D01*
G01X4712949Y3752485D02*
G01X4712949Y3681111D01*
G01X4712949Y3752485D02*
G01X4743429Y3752485D01*
G01X4753843Y3749183D01*
G01X4757145Y3745627D01*
G01X4760447Y3739023D01*
G01X4760447Y3732165D01*
G01X4757145Y3725307D01*
G01X4753843Y3721751D01*
G01X4743429Y3718449D01*
G01X4712949Y3718449D01*
G01X4736825Y3718449D02*
G01X4760447Y3681111D01*
G01X4791181Y3735467D02*
G01X4791181Y3739023D01*
G01X4794483Y3745627D01*
G01X4798039Y3749183D01*
G01X4804897Y3752485D01*
G01X4818359Y3752485D01*
G01X4825217Y3749183D01*
G01X4828773Y3745627D01*
G01X4832075Y3739023D01*
G01X4832075Y3732165D01*
G01X4828773Y3725307D01*
G01X4821915Y3715147D01*
G01X4787879Y3681111D01*
G01X4835377Y3681111D01*
G01X9517211Y2049063D02*
G01X9517211Y1977689D01*
G01X9517211Y2049063D02*
G01X9547691Y2049063D01*
G01X9558105Y2045761D01*
G01X9561407Y2042205D01*
G01X9564709Y2035601D01*
G01X9564709Y2028743D01*
G01X9561407Y2021885D01*
G01X9558105Y2018329D01*
G01X9547691Y2015027D01*
G01X9517211Y2015027D01*
G01X9541087Y2015027D02*
G01X9564709Y1977689D01*
G01X9633035Y2049063D02*
G01X9598745Y2049063D01*
G01X9595443Y2018329D01*
G01X9598745Y2021885D01*
G01X9609159Y2025187D01*
G01X9619319Y2025187D01*
G01X9629479Y2021885D01*
G01X9636337Y2015027D01*
G01X9639639Y2004867D01*
G01X9639639Y1998009D01*
G01X9636337Y1987849D01*
G01X9629479Y1980991D01*
G01X9619319Y1977689D01*
G01X9609159Y1977689D01*
G01X9598745Y1980991D01*
G01X9595443Y1984293D01*
G01X9592141Y1991151D01*
G01X5238256Y2778373D02*
G01X5238256Y2727319D01*
G01X5241558Y2717159D01*
G01X5248416Y2710301D01*
G01X5258576Y2706999D01*
G01X5265434Y2706999D01*
G01X5275594Y2710301D01*
G01X5282452Y2717159D01*
G01X5285754Y2727319D01*
G01X5285754Y2778373D01*
G01X5360684Y2778373D02*
G01X5326648Y2706999D01*
G01X5313186Y2778373D02*
G01X5360684Y2778373D01*
G01X11307334Y1544157D02*
G01X11307334Y1493103D01*
G01X11310636Y1482943D01*
G01X11317494Y1476085D01*
G01X11327654Y1472783D01*
G01X11334512Y1472783D01*
G01X11344672Y1476085D01*
G01X11351530Y1482943D01*
G01X11354832Y1493103D01*
G01X11354832Y1544157D01*
G01X11416300Y1544157D02*
G01X11382264Y1496405D01*
G01X11433318Y1496405D01*
G01X11416300Y1544157D02*
G01X11416300Y1472783D01*
G01X7273182Y2808973D02*
G01X7273182Y2757919D01*
G01X7276484Y2747759D01*
G01X7283342Y2740901D01*
G01X7293502Y2737599D01*
G01X7300360Y2737599D01*
G01X7310520Y2740901D01*
G01X7317378Y2747759D01*
G01X7320680Y2757919D01*
G01X7320680Y2808973D01*
G01X7365130Y2808973D02*
G01X7354716Y2805671D01*
G01X7351414Y2798813D01*
G01X7351414Y2791955D01*
G01X7354716Y2785097D01*
G01X7361574Y2781795D01*
G01X7375290Y2778239D01*
G01X7385450Y2774937D01*
G01X7392308Y2768079D01*
G01X7395610Y2761221D01*
G01X7395610Y2751061D01*
G01X7392308Y2744203D01*
G01X7389006Y2740901D01*
G01X7378592Y2737599D01*
G01X7365130Y2737599D01*
G01X7354716Y2740901D01*
G01X7351414Y2744203D01*
G01X7348112Y2751061D01*
G01X7348112Y2761221D01*
G01X7351414Y2768079D01*
G01X7358272Y2774937D01*
G01X7368432Y2778239D01*
G01X7382148Y2781795D01*
G01X7389006Y2785097D01*
G01X7392308Y2791955D01*
G01X7392308Y2798813D01*
G01X7389006Y2805671D01*
G01X7378592Y2808973D01*
G01X7365130Y2808973D01*
G01X10557625Y3579083D02*
G01X10557625Y3528029D01*
G01X10560927Y3517869D01*
G01X10567785Y3511011D01*
G01X10577945Y3507709D01*
G01X10584803Y3507709D01*
G01X10594963Y3511011D01*
G01X10601821Y3517869D01*
G01X10605123Y3528029D01*
G01X10605123Y3579083D01*
G01X10639159Y3579083D02*
G01X10676751Y3579083D01*
G01X10656431Y3551905D01*
G01X10666591Y3551905D01*
G01X10673449Y3548349D01*
G01X10676751Y3545047D01*
G01X10680053Y3534887D01*
G01X10680053Y3528029D01*
G01X10676751Y3517869D01*
G01X10669893Y3511011D01*
G01X10659733Y3507709D01*
G01X10649573Y3507709D01*
G01X10639159Y3511011D01*
G01X10635857Y3514313D01*
G01X10632555Y3521171D01*
G01X8772601Y2814073D02*
G01X8772601Y2763019D01*
G01X8775903Y2752859D01*
G01X8782761Y2746001D01*
G01X8792921Y2742699D01*
G01X8799779Y2742699D01*
G01X8809939Y2746001D01*
G01X8816797Y2752859D01*
G01X8820099Y2763019D01*
G01X8820099Y2814073D01*
G01X8891727Y2790197D02*
G01X8888425Y2780037D01*
G01X8881567Y2773179D01*
G01X8871407Y2769877D01*
G01X8867851Y2769877D01*
G01X8857691Y2773179D01*
G01X8850833Y2780037D01*
G01X8847531Y2790197D01*
G01X8847531Y2793753D01*
G01X8850833Y2803913D01*
G01X8857691Y2810771D01*
G01X8867851Y2814073D01*
G01X8871407Y2814073D01*
G01X8881567Y2810771D01*
G01X8888425Y2803913D01*
G01X8891727Y2790197D01*
G01X8891727Y2773179D01*
G01X8888425Y2756161D01*
G01X8881567Y2746001D01*
G01X8871407Y2742699D01*
G01X8864549Y2742699D01*
G01X8854135Y2746001D01*
G01X8850833Y2752859D01*
G01X1795711Y636345D02*
G01X1795711Y585291D01*
G01X1799013Y575131D01*
G01X1805871Y568273D01*
G01X1816031Y564971D01*
G01X1822889Y564971D01*
G01X1833049Y568273D01*
G01X1839907Y575131D01*
G01X1843209Y585291D01*
G01X1843209Y636345D01*
G01X1911535Y636345D02*
G01X1877245Y636345D01*
G01X1873943Y605611D01*
G01X1877245Y609167D01*
G01X1887659Y612469D01*
G01X1897819Y612469D01*
G01X1907979Y609167D01*
G01X1914837Y602309D01*
G01X1918139Y592149D01*
G01X1918139Y585291D01*
G01X1914837Y575131D01*
G01X1907979Y568273D01*
G01X1897819Y564971D01*
G01X1887659Y564971D01*
G01X1877245Y568273D01*
G01X1873943Y571575D01*
G01X1870641Y578433D01*
G01X3463433Y3915687D02*
G01X3463433Y3864633D01*
G01X3466735Y3854473D01*
G01X3473593Y3847615D01*
G01X3483753Y3844313D01*
G01X3490611Y3844313D01*
G01X3500771Y3847615D01*
G01X3507629Y3854473D01*
G01X3510931Y3864633D01*
G01X3510931Y3915687D01*
G01X3538363Y3902225D02*
G01X3544967Y3905527D01*
G01X3555381Y3915687D01*
G01X3555381Y3844313D01*
G01X12245746Y1131051D02*
G01X12272924Y1097015D01*
G01X12272924Y1059677D01*
G01X12300102Y1131051D02*
G01X12272924Y1097015D01*
G01X12327534Y1117589D02*
G01X12334138Y1120891D01*
G01X12344552Y1131051D01*
G01X12344552Y1059677D01*
G01X2846325Y692446D02*
G01X2873503Y658410D01*
G01X2873503Y621072D01*
G01X2900681Y692446D02*
G01X2873503Y658410D01*
G01X2931415Y675428D02*
G01X2931415Y678984D01*
G01X2934717Y685588D01*
G01X2938273Y689144D01*
G01X2945131Y692446D01*
G01X2958593Y692446D01*
G01X2965451Y689144D01*
G01X2969007Y685588D01*
G01X2972309Y678984D01*
G01X2972309Y672126D01*
G01X2969007Y665268D01*
G01X2962149Y655108D01*
G01X2928113Y621072D01*
G01X2975611Y621072D01*
G01X1697917Y116048D02*
G01X1697917Y44674D01*
G01X1697917Y116048D02*
G01X1721793Y116048D01*
G01X1731953Y112746D01*
G01X1738811Y105888D01*
G01X1742113Y99030D01*
G01X1745415Y88870D01*
G01X1745415Y71852D01*
G01X1742113Y61692D01*
G01X1738811Y54834D01*
G01X1731953Y47976D01*
G01X1721793Y44674D01*
G01X1697917Y44674D01*
G01X1772847Y102586D02*
G01X1779451Y105888D01*
G01X1789865Y116048D01*
G01X1789865Y44674D01*
G01X1817297Y102586D02*
G01X1823901Y105888D01*
G01X1834315Y116048D01*
G01X1834315Y44674D01*
G01X1352005Y121238D02*
G01X1352005Y49864D01*
G01X1352005Y121238D02*
G01X1382485Y121238D01*
G01X1392899Y117936D01*
G01X1396201Y114380D01*
G01X1399503Y107776D01*
G01X1399503Y100918D01*
G01X1396201Y94060D01*
G01X1392899Y90504D01*
G01X1382485Y87202D01*
G01X1352005Y87202D01*
G01X1375881Y87202D02*
G01X1399503Y49864D01*
G01X1426935Y107776D02*
G01X1433539Y111078D01*
G01X1443953Y121238D01*
G01X1443953Y49864D01*
G01X1512279Y111078D02*
G01X1508723Y117936D01*
G01X1498563Y121238D01*
G01X1491705Y121238D01*
G01X1481545Y117936D01*
G01X1474687Y107776D01*
G01X1471385Y90504D01*
G01X1471385Y73486D01*
G01X1474687Y60024D01*
G01X1481545Y53166D01*
G01X1491705Y49864D01*
G01X1495261Y49864D01*
G01X1505421Y53166D01*
G01X1512279Y60024D01*
G01X1515581Y70184D01*
G01X1515581Y73486D01*
G01X1512279Y83900D01*
G01X1505421Y90504D01*
G01X1495261Y94060D01*
G01X1491705Y94060D01*
G01X1481545Y90504D01*
G01X1474687Y83900D01*
G01X1471385Y73486D01*
G01X790998Y1085151D02*
G01X790998Y1034097D01*
G01X794300Y1023937D01*
G01X801158Y1017079D01*
G01X811318Y1013777D01*
G01X818176Y1013777D01*
G01X828336Y1017079D01*
G01X835194Y1023937D01*
G01X838496Y1034097D01*
G01X838496Y1085151D01*
G01X913426Y1074991D02*
G01X906822Y1081849D01*
G01X896408Y1085151D01*
G01X882946Y1085151D01*
G01X872532Y1081849D01*
G01X865928Y1074991D01*
G01X865928Y1068133D01*
G01X869230Y1061275D01*
G01X872532Y1057973D01*
G01X879390Y1054417D01*
G01X899964Y1047813D01*
G01X906822Y1044257D01*
G01X910124Y1040955D01*
G01X913426Y1034097D01*
G01X913426Y1023937D01*
G01X906822Y1017079D01*
G01X896408Y1013777D01*
G01X882946Y1013777D01*
G01X872532Y1017079D01*
G01X865928Y1023937D01*
G01X940858Y1085151D02*
G01X940858Y1013777D01*
G01X940858Y1085151D02*
G01X971338Y1085151D01*
G01X981752Y1081849D01*
G01X985054Y1078293D01*
G01X988356Y1071689D01*
G01X988356Y1064831D01*
G01X985054Y1057973D01*
G01X981752Y1054417D01*
G01X971338Y1051115D01*
G01X940858Y1051115D02*
G01X971338Y1051115D01*
G01X981752Y1047813D01*
G01X985054Y1044257D01*
G01X988356Y1037399D01*
G01X988356Y1027239D01*
G01X985054Y1020381D01*
G01X981752Y1017079D01*
G01X971338Y1013777D01*
G01X940858Y1013777D01*
G01X12439602Y2450251D02*
G01X12436046Y2457109D01*
G01X12429442Y2463967D01*
G01X12422584Y2467269D01*
G01X12408868Y2467269D01*
G01X12402010Y2463967D01*
G01X12395152Y2457109D01*
G01X12391850Y2450251D01*
G01X12388548Y2440091D01*
G01X12388548Y2423073D01*
G01X12391850Y2412913D01*
G01X12395152Y2406055D01*
G01X12402010Y2399197D01*
G01X12408868Y2395895D01*
G01X12422584Y2395895D01*
G01X12429442Y2399197D01*
G01X12436046Y2406055D01*
G01X12439602Y2412913D01*
G01X12467034Y2453807D02*
G01X12473638Y2457109D01*
G01X12484052Y2467269D01*
G01X12484052Y2395895D01*
G01X12555680Y2443393D02*
G01X12552378Y2433233D01*
G01X12545520Y2426375D01*
G01X12535360Y2423073D01*
G01X12531804Y2423073D01*
G01X12521644Y2426375D01*
G01X12514786Y2433233D01*
G01X12511484Y2443393D01*
G01X12511484Y2446949D01*
G01X12514786Y2457109D01*
G01X12521644Y2463967D01*
G01X12531804Y2467269D01*
G01X12535360Y2467269D01*
G01X12545520Y2463967D01*
G01X12552378Y2457109D01*
G01X12555680Y2443393D01*
G01X12555680Y2426375D01*
G01X12552378Y2409357D01*
G01X12545520Y2399197D01*
G01X12535360Y2395895D01*
G01X12528502Y2395895D01*
G01X12518088Y2399197D01*
G01X12514786Y2406055D01*
G01X4406945Y707746D02*
G01X4406945Y636372D01*
G01X4406945Y707746D02*
G01X4430821Y707746D01*
G01X4440981Y704444D01*
G01X4447839Y697586D01*
G01X4451141Y690728D01*
G01X4454443Y680568D01*
G01X4454443Y663550D01*
G01X4451141Y653390D01*
G01X4447839Y646532D01*
G01X4440981Y639674D01*
G01X4430821Y636372D01*
G01X4406945Y636372D01*
G01X4498893Y707746D02*
G01X4488479Y704444D01*
G01X4485177Y697586D01*
G01X4485177Y690728D01*
G01X4488479Y683870D01*
G01X4495337Y680568D01*
G01X4509053Y677012D01*
G01X4519213Y673710D01*
G01X4526071Y666852D01*
G01X4529373Y659994D01*
G01X4529373Y649834D01*
G01X4526071Y642976D01*
G01X4522769Y639674D01*
G01X4512355Y636372D01*
G01X4498893Y636372D01*
G01X4488479Y639674D01*
G01X4485177Y642976D01*
G01X4481875Y649834D01*
G01X4481875Y659994D01*
G01X4485177Y666852D01*
G01X4492035Y673710D01*
G01X4502195Y677012D01*
G01X4515911Y680568D01*
G01X4522769Y683870D01*
G01X4526071Y690728D01*
G01X4526071Y697586D01*
G01X4522769Y704444D01*
G01X4512355Y707746D01*
G01X4498893Y707746D01*
G01X5880917Y1863743D02*
G01X5877361Y1870601D01*
G01X5870757Y1877459D01*
G01X5863899Y1880761D01*
G01X5850183Y1880761D01*
G01X5843325Y1877459D01*
G01X5836467Y1870601D01*
G01X5833165Y1863743D01*
G01X5829863Y1853583D01*
G01X5829863Y1836565D01*
G01X5833165Y1826405D01*
G01X5836467Y1819547D01*
G01X5843325Y1812689D01*
G01X5850183Y1809387D01*
G01X5863899Y1809387D01*
G01X5870757Y1812689D01*
G01X5877361Y1819547D01*
G01X5880917Y1826405D01*
G01X5911651Y1863743D02*
G01X5911651Y1867299D01*
G01X5914953Y1873903D01*
G01X5918509Y1877459D01*
G01X5925367Y1880761D01*
G01X5938829Y1880761D01*
G01X5945687Y1877459D01*
G01X5949243Y1873903D01*
G01X5952545Y1867299D01*
G01X5952545Y1860441D01*
G01X5949243Y1853583D01*
G01X5942385Y1843423D01*
G01X5908349Y1809387D01*
G01X5955847Y1809387D01*
G01X6024173Y1880761D02*
G01X5989883Y1880761D01*
G01X5986581Y1850027D01*
G01X5989883Y1853583D01*
G01X6000297Y1856885D01*
G01X6010457Y1856885D01*
G01X6020617Y1853583D01*
G01X6027475Y1846725D01*
G01X6030777Y1836565D01*
G01X6030777Y1829707D01*
G01X6027475Y1819547D01*
G01X6020617Y1812689D01*
G01X6010457Y1809387D01*
G01X6000297Y1809387D01*
G01X5989883Y1812689D01*
G01X5986581Y1815991D01*
G01X5983279Y1822849D01*
G01X7477238Y1802542D02*
G01X7473682Y1809400D01*
G01X7467078Y1816258D01*
G01X7460220Y1819560D01*
G01X7446504Y1819560D01*
G01X7439646Y1816258D01*
G01X7432788Y1809400D01*
G01X7429486Y1802542D01*
G01X7426184Y1792382D01*
G01X7426184Y1775364D01*
G01X7429486Y1765204D01*
G01X7432788Y1758346D01*
G01X7439646Y1751488D01*
G01X7446504Y1748186D01*
G01X7460220Y1748186D01*
G01X7467078Y1751488D01*
G01X7473682Y1758346D01*
G01X7477238Y1765204D01*
G01X7507972Y1802542D02*
G01X7507972Y1806098D01*
G01X7511274Y1812702D01*
G01X7514830Y1816258D01*
G01X7521688Y1819560D01*
G01X7535150Y1819560D01*
G01X7542008Y1816258D01*
G01X7545564Y1812702D01*
G01X7548866Y1806098D01*
G01X7548866Y1799240D01*
G01X7545564Y1792382D01*
G01X7538706Y1782222D01*
G01X7504670Y1748186D01*
G01X7552168Y1748186D01*
G01X7627098Y1819560D02*
G01X7593062Y1748186D01*
G01X7579600Y1819560D02*
G01X7627098Y1819560D01*
G01X9017458Y1868843D02*
G01X9013902Y1875701D01*
G01X9007298Y1882559D01*
G01X9000440Y1885861D01*
G01X8986724Y1885861D01*
G01X8979866Y1882559D01*
G01X8973008Y1875701D01*
G01X8969706Y1868843D01*
G01X8966404Y1858683D01*
G01X8966404Y1841665D01*
G01X8969706Y1831505D01*
G01X8973008Y1824647D01*
G01X8979866Y1817789D01*
G01X8986724Y1814487D01*
G01X9000440Y1814487D01*
G01X9007298Y1817789D01*
G01X9013902Y1824647D01*
G01X9017458Y1831505D01*
G01X9048192Y1868843D02*
G01X9048192Y1872399D01*
G01X9051494Y1879003D01*
G01X9055050Y1882559D01*
G01X9061908Y1885861D01*
G01X9075370Y1885861D01*
G01X9082228Y1882559D01*
G01X9085784Y1879003D01*
G01X9089086Y1872399D01*
G01X9089086Y1865541D01*
G01X9085784Y1858683D01*
G01X9078926Y1848523D01*
G01X9044890Y1814487D01*
G01X9092388Y1814487D01*
G01X9164016Y1861985D02*
G01X9160714Y1851825D01*
G01X9153856Y1844967D01*
G01X9143696Y1841665D01*
G01X9140140Y1841665D01*
G01X9129980Y1844967D01*
G01X9123122Y1851825D01*
G01X9119820Y1861985D01*
G01X9119820Y1865541D01*
G01X9123122Y1875701D01*
G01X9129980Y1882559D01*
G01X9140140Y1885861D01*
G01X9143696Y1885861D01*
G01X9153856Y1882559D01*
G01X9160714Y1875701D01*
G01X9164016Y1861985D01*
G01X9164016Y1844967D01*
G01X9160714Y1827949D01*
G01X9153856Y1817789D01*
G01X9143696Y1814487D01*
G01X9136838Y1814487D01*
G01X9126424Y1817789D01*
G01X9123122Y1824647D01*
G01X403393Y3681084D02*
G01X403393Y3609710D01*
G01X403393Y3681084D02*
G01X427269Y3681084D01*
G01X437429Y3677782D01*
G01X444287Y3670924D01*
G01X447589Y3664066D01*
G01X450891Y3653906D01*
G01X450891Y3636888D01*
G01X447589Y3626728D01*
G01X444287Y3619870D01*
G01X437429Y3613012D01*
G01X427269Y3609710D01*
G01X403393Y3609710D01*
G01X512359Y3681084D02*
G01X478323Y3633332D01*
G01X529377Y3633332D01*
G01X512359Y3681084D02*
G01X512359Y3609710D01*
G01X1086802Y3645384D02*
G01X1086802Y3574010D01*
G01X1086802Y3645384D02*
G01X1117282Y3645384D01*
G01X1127696Y3642082D01*
G01X1130998Y3638526D01*
G01X1134300Y3631922D01*
G01X1134300Y3625064D01*
G01X1130998Y3618206D01*
G01X1127696Y3614650D01*
G01X1117282Y3611348D01*
G01X1086802Y3611348D01*
G01X1110678Y3611348D02*
G01X1134300Y3574010D01*
G01X1161732Y3631922D02*
G01X1168336Y3635224D01*
G01X1178750Y3645384D01*
G01X1178750Y3574010D01*
G01X9614166Y2832756D02*
G01X9610610Y2839614D01*
G01X9604006Y2846472D01*
G01X9597148Y2849774D01*
G01X9583432Y2849774D01*
G01X9576574Y2846472D01*
G01X9569716Y2839614D01*
G01X9566414Y2832756D01*
G01X9563112Y2822596D01*
G01X9563112Y2805578D01*
G01X9566414Y2795418D01*
G01X9569716Y2788560D01*
G01X9576574Y2781702D01*
G01X9583432Y2778400D01*
G01X9597148Y2778400D01*
G01X9604006Y2781702D01*
G01X9610610Y2788560D01*
G01X9614166Y2795418D01*
G01X9689096Y2849774D02*
G01X9655060Y2778400D01*
G01X9641598Y2849774D02*
G01X9689096Y2849774D01*
G01X9394810Y3125177D02*
G01X9394810Y3074123D01*
G01X9398112Y3063963D01*
G01X9404970Y3057105D01*
G01X9415130Y3053803D01*
G01X9421988Y3053803D01*
G01X9432148Y3057105D01*
G01X9439006Y3063963D01*
G01X9442308Y3074123D01*
G01X9442308Y3125177D01*
G01X9473042Y3108159D02*
G01X9473042Y3111715D01*
G01X9476344Y3118319D01*
G01X9479900Y3121875D01*
G01X9486758Y3125177D01*
G01X9500220Y3125177D01*
G01X9507078Y3121875D01*
G01X9510634Y3118319D01*
G01X9513936Y3111715D01*
G01X9513936Y3104857D01*
G01X9510634Y3097999D01*
G01X9503776Y3087839D01*
G01X9469740Y3053803D01*
G01X9517238Y3053803D01*
G01X4820104Y2873556D02*
G01X4816548Y2880414D01*
G01X4809944Y2887272D01*
G01X4803086Y2890574D01*
G01X4789370Y2890574D01*
G01X4782512Y2887272D01*
G01X4775654Y2880414D01*
G01X4772352Y2873556D01*
G01X4769050Y2863396D01*
G01X4769050Y2846378D01*
G01X4772352Y2836218D01*
G01X4775654Y2829360D01*
G01X4782512Y2822502D01*
G01X4789370Y2819200D01*
G01X4803086Y2819200D01*
G01X4809944Y2822502D01*
G01X4816548Y2829360D01*
G01X4820104Y2836218D01*
G01X4881572Y2890574D02*
G01X4847536Y2842822D01*
G01X4898590Y2842822D01*
G01X4881572Y2890574D02*
G01X4881572Y2819200D01*
G01X4264143Y355841D02*
G01X4264143Y284467D01*
G01X4264143Y355841D02*
G01X4288019Y355841D01*
G01X4298179Y352539D01*
G01X4305037Y345681D01*
G01X4308339Y338823D01*
G01X4311641Y328663D01*
G01X4311641Y311645D01*
G01X4308339Y301485D01*
G01X4305037Y294627D01*
G01X4298179Y287769D01*
G01X4288019Y284467D01*
G01X4264143Y284467D01*
G01X4339073Y342379D02*
G01X4345677Y345681D01*
G01X4356091Y355841D01*
G01X4356091Y284467D01*
G01X4403843Y355841D02*
G01X4393683Y352539D01*
G01X4386825Y342379D01*
G01X4383523Y325107D01*
G01X4383523Y314947D01*
G01X4386825Y297929D01*
G01X4393683Y287769D01*
G01X4403843Y284467D01*
G01X4410701Y284467D01*
G01X4420861Y287769D01*
G01X4427719Y297929D01*
G01X4431021Y314947D01*
G01X4431021Y325107D01*
G01X4427719Y342379D01*
G01X4420861Y352539D01*
G01X4410701Y355841D01*
G01X4403843Y355841D01*
G54D10*
G01X10388834Y900521D02*
G01X10434554Y831941D01*
G01X10434554Y900521D02*
G01X10388834Y831941D01*
G01X10457414Y866231D02*
G01X10503134Y866231D01*
G01X10525994Y831941D02*
G01X10571714Y831941D01*
G01X10525994Y831941D02*
G01X10525994Y900521D01*
G01X10606004Y831941D02*
G01X10606004Y877661D01*
G01X10594574Y877661D02*
G01X10606004Y877661D01*
G01X10606004Y900521D02*
G01X10606004Y900521D01*
G01X10594574Y831941D02*
G01X10606004Y831941D01*
G01X10606004Y831941D02*
G01X10617434Y831941D01*
G01X10674584Y831941D02*
G01X10674584Y866231D01*
G01X10697444Y831941D02*
G01X10697444Y866231D01*
G01X10686014Y877661D02*
G01X10697444Y866231D01*
G01X10674584Y866231D02*
G01X10686014Y877661D01*
G01X10663154Y877661D02*
G01X10674584Y866231D01*
G01X10651724Y877661D02*
G01X10663154Y877661D01*
G01X10651724Y831941D02*
G01X10651724Y877661D01*
G01X10743164Y831941D02*
G01X10731734Y843371D01*
G01X10720304Y877661D02*
G01X10731734Y877661D01*
G01X10731734Y877661D02*
G01X10743164Y877661D01*
G01X10731734Y843371D02*
G01X10731734Y877661D01*
G01X10731734Y877661D02*
G01X10731734Y889091D01*
G54D11*
G01X3949670Y1371376D02*
G01X3956528Y1374932D01*
G01X3963386Y1381536D01*
G01X3966688Y1388394D01*
G01X3966688Y1402110D01*
G01X3963386Y1408968D01*
G01X3956528Y1415826D01*
G01X3949670Y1419128D01*
G01X3939510Y1422430D01*
G01X3922492Y1422430D01*
G01X3912332Y1419128D01*
G01X3905474Y1415826D01*
G01X3898616Y1408968D01*
G01X3895314Y1402110D01*
G01X3895314Y1388394D01*
G01X3898616Y1381536D01*
G01X3905474Y1374932D01*
G01X3912332Y1371376D01*
G01X3949670Y1340642D02*
G01X3953226Y1340642D01*
G01X3959830Y1337340D01*
G01X3963386Y1333784D01*
G01X3966688Y1326926D01*
G01X3966688Y1313464D01*
G01X3963386Y1306606D01*
G01X3959830Y1303050D01*
G01X3953226Y1299748D01*
G01X3946368Y1299748D01*
G01X3939510Y1303050D01*
G01X3929350Y1309908D01*
G01X3895314Y1343944D01*
G01X3895314Y1296446D01*
G01X3966688Y1248694D02*
G01X3963386Y1258854D01*
G01X3953226Y1265712D01*
G01X3935954Y1269014D01*
G01X3925794Y1269014D01*
G01X3908776Y1265712D01*
G01X3898616Y1258854D01*
G01X3895314Y1248694D01*
G01X3895314Y1241836D01*
G01X3898616Y1231676D01*
G01X3908776Y1224818D01*
G01X3925794Y1221516D01*
G01X3935954Y1221516D01*
G01X3953226Y1224818D01*
G01X3963386Y1231676D01*
G01X3966688Y1241836D01*
G01X3966688Y1248694D01*
G01X2836125Y1003550D02*
G01X2836125Y952496D01*
G01X2839427Y942336D01*
G01X2846285Y935478D01*
G01X2856445Y932176D01*
G01X2863303Y932176D01*
G01X2873463Y935478D01*
G01X2880321Y942336D01*
G01X2883623Y952496D01*
G01X2883623Y1003550D01*
G01X2951949Y993390D02*
G01X2948393Y1000248D01*
G01X2938233Y1003550D01*
G01X2931375Y1003550D01*
G01X2921215Y1000248D01*
G01X2914357Y990088D01*
G01X2911055Y972816D01*
G01X2911055Y955798D01*
G01X2914357Y942336D01*
G01X2921215Y935478D01*
G01X2931375Y932176D01*
G01X2934931Y932176D01*
G01X2945091Y935478D01*
G01X2951949Y942336D01*
G01X2955251Y952496D01*
G01X2955251Y955798D01*
G01X2951949Y966212D01*
G01X2945091Y972816D01*
G01X2934931Y976372D01*
G01X2931375Y976372D01*
G01X2921215Y972816D01*
G01X2914357Y966212D01*
G01X2911055Y955798D01*
G04 Text End*

G04 PolygonModel Start*
G54D12*
G01X5260133Y2858044D02*
G01X5187515Y2858044D01*
G01X5187515Y2002495D01*
G01X8946264Y2002495D01*
G01X8946264Y2844005D01*
G01X8941164Y2849106D01*
G01X5260133Y2858044D02*
G01X8940140Y2858044D01*
G01X6439672Y2236690D02*
G03X6482458Y2276511I-3810J46990D01*
G01X6481582Y2362420D02*
G03X6439757Y2394853I-48260J-19050D01*
G01X6176782Y2268440D02*
G03X6218607Y2236007I48260J19050D01*
G01X6218692Y2394170D02*
G03X6175906Y2354348I3810J-46990D01*
G01X6374902Y2394170D02*
G01X6439672Y2394170D01*
G01X6374902Y2236690D02*
G01X6439672Y2236690D01*
G01X6481582Y2362420D02*
G01X6481582Y2274790D01*
G01X6176782Y2356070D02*
G01X6176782Y2268440D01*
G01X6218692Y2394170D02*
G01X6283462Y2394170D01*
G01X6218692Y2236690D02*
G01X6283462Y2236690D01*
G01X6439672Y2427943D02*
G03X6482458Y2467764I-3810J46990D01*
G01X6481582Y2553673D02*
G03X6439757Y2586106I-48260J-19050D01*
G01X6176782Y2459693D02*
G03X6218607Y2427259I48260J19050D01*
G01X6218692Y2585423D02*
G03X6175906Y2545601I3810J-46990D01*
G01X6374902Y2585423D02*
G01X6439672Y2585423D01*
G01X6374902Y2427943D02*
G01X6439672Y2427943D01*
G01X6481582Y2553673D02*
G01X6481582Y2466043D01*
G01X6176782Y2547323D02*
G01X6176782Y2459693D01*
G01X6218692Y2585423D02*
G01X6283462Y2585423D01*
G01X6218692Y2427943D02*
G01X6283462Y2427943D01*
G01X9963290Y1776535D02*
G03X10003111Y1733748I46990J3810D01*
G01X10089020Y1734624D02*
G03X10121453Y1776449I-19050J48260D01*
G01X9995040Y2039424D02*
G03X9962607Y1997600I19050J-48260D01*
G01X10120770Y1997514D02*
G03X10080948Y2040300I-46990J-3810D01*
G01X10120770Y1841304D02*
G01X10120770Y1776534D01*
G01X9963290Y1841304D02*
G01X9963290Y1776534D01*
G01X10089020Y1734624D02*
G01X10001390Y1734624D01*
G01X10082670Y2039424D02*
G01X9995040Y2039424D01*
G01X10120770Y1997514D02*
G01X10120770Y1932744D01*
G01X9963290Y1997514D02*
G01X9963290Y1932744D01*
G01X12314948Y2455993D02*
G03X12357734Y2495814I-3810J46990D01*
G01X12356858Y2581723D02*
G03X12315033Y2614156I-48260J-19050D01*
G01X12052058Y2487743D02*
G03X12093883Y2455310I48260J19050D01*
G01X12093968Y2613473D02*
G03X12051182Y2573651I3810J-46990D01*
G01X12250178Y2613473D02*
G01X12314948Y2613473D01*
G01X12250178Y2455993D02*
G01X12314948Y2455993D01*
G01X12356858Y2581723D02*
G01X12356858Y2494093D01*
G01X12052058Y2575373D02*
G01X12052058Y2487743D01*
G01X12093968Y2613473D02*
G01X12158738Y2613473D01*
G01X12093968Y2455993D02*
G01X12158738Y2455993D01*
G01X12167046Y885172D02*
G03X12209832Y924994I-3810J46990D01*
G01X12208956Y1010902D02*
G03X12167131Y1043336I-48260J-19050D01*
G01X11904156Y916922D02*
G03X11945981Y884489I48260J19050D01*
G01X11946066Y1042652D02*
G03X11903280Y1002831I3810J-46990D01*
G01X12102276Y1042652D02*
G01X12167046Y1042652D01*
G01X12102276Y885172D02*
G01X12167046Y885172D01*
G01X12208956Y1010902D02*
G01X12208956Y923272D01*
G01X11904156Y1004552D02*
G01X11904156Y916922D01*
G01X11946066Y1042652D02*
G01X12010836Y1042652D01*
G01X11946066Y885172D02*
G01X12010836Y885172D01*
G01X11507461Y3250981D02*
G03X11464674Y3211160I3810J-46990D01*
G01X11465550Y3125251D02*
G03X11507375Y3092818I48260J19050D01*
G01X11770350Y3219231D02*
G03X11728526Y3251664I-48260J-19050D01*
G01X11728440Y3093501D02*
G03X11771226Y3133323I-3810J46990D01*
G01X11572230Y3093501D02*
G01X11507460Y3093501D01*
G01X11572230Y3250981D02*
G01X11507460Y3250981D01*
G01X11465550Y3125251D02*
G01X11465550Y3212881D01*
G01X11770350Y3131601D02*
G01X11770350Y3219231D01*
G01X11728440Y3093501D02*
G01X11663670Y3093501D01*
G01X11728440Y3250981D02*
G01X11663670Y3250981D01*
G01X11809514Y2521144D02*
G03X11849335Y2478358I46990J3810D01*
G01X11935244Y2479234D02*
G03X11967677Y2521059I-19050J48260D01*
G01X11841264Y2784034D02*
G03X11808831Y2742209I19050J-48260D01*
G01X11966994Y2742124D02*
G03X11927172Y2784910I-46990J-3810D01*
G01X11966994Y2585914D02*
G01X11966994Y2521144D01*
G01X11809514Y2585914D02*
G01X11809514Y2521144D01*
G01X11935244Y2479234D02*
G01X11847614Y2479234D01*
G01X11928894Y2784034D02*
G01X11841264Y2784034D01*
G01X11966994Y2742124D02*
G01X11966994Y2677354D01*
G01X11809514Y2742124D02*
G01X11809514Y2677354D01*
G01X10130970Y2471820D02*
G03X10091149Y2514607I-46990J-3810D01*
G01X10005240Y2513731D02*
G03X9972807Y2471906I19050J-48260D01*
G01X10099220Y2208931D02*
G03X10131653Y2250755I-19050J48260D01*
G01X9973490Y2250841D02*
G03X10013312Y2208055I46990J3810D01*
G01X9973490Y2407051D02*
G01X9973490Y2471821D01*
G01X10130970Y2407051D02*
G01X10130970Y2471821D01*
G01X10005240Y2513731D02*
G01X10092870Y2513731D01*
G01X10011590Y2208931D02*
G01X10099220Y2208931D01*
G01X9973490Y2250841D02*
G01X9973490Y2315611D01*
G01X10130970Y2250841D02*
G01X10130970Y2315611D01*
G01X6439672Y2619195D02*
G03X6482458Y2659016I-3810J46990D01*
G01X6481582Y2744925D02*
G03X6439757Y2777358I-48260J-19050D01*
G01X6176782Y2650945D02*
G03X6218607Y2618512I48260J19050D01*
G01X6218692Y2776675D02*
G03X6175906Y2736853I3810J-46990D01*
G01X6374902Y2776675D02*
G01X6439672Y2776675D01*
G01X6374902Y2619195D02*
G01X6439672Y2619195D01*
G01X6481582Y2744925D02*
G01X6481582Y2657295D01*
G01X6176782Y2738575D02*
G01X6176782Y2650945D01*
G01X6218692Y2776675D02*
G01X6283462Y2776675D01*
G01X6218692Y2619195D02*
G01X6283462Y2619195D01*
G01X4960763Y1255321D02*
G03X4960763Y1835319I-80003J289999D01*
G01X4800763Y1835319D02*
G03X4800763Y1255321I79994J-289999D01*
G01X4550817Y1215120D02*
G01X4550817Y1744964D01*
G01X5210709Y1215120D02*
G01X5210709Y1744964D01*
G01X4550817Y1744964D02*
G01X4680865Y1875012D01*
G01X5080661Y1875012D02*
G01X5210709Y1744964D01*
G01X4953915Y1875012D02*
G01X5080661Y1875012D01*
G01X4680865Y1875012D02*
G01X4807611Y1875012D01*
G01X4953915Y1215120D02*
G01X5210709Y1215120D01*
G01X4550817Y1215120D02*
G01X4807611Y1215120D01*
G36*
G01X4580764Y1495320D02*
G01X5170763Y1495320D01*
G01X5160763Y1435320D01*
G01X5140763Y1385320D01*
G01X5110763Y1355320D01*
G01X5090763Y1325320D01*
G01X5060763Y1295320D01*
G01X5020763Y1275321D01*
G01X4960763Y1255321D01*
G01X4960763Y1435320D01*
G01X4800763Y1435320D01*
G01X4800763Y1255321D01*
G01X4780763Y1265321D01*
G01X4740763Y1275321D01*
G01X4710764Y1305320D01*
G01X4670764Y1325320D01*
G01X4640764Y1365320D01*
G01X4600764Y1445320D01*
G01X4580764Y1495320D01*
G37*
G01X7872790Y2236690D02*
G03X7915576Y2276511I-3810J46990D01*
G01X7914700Y2362420D02*
G03X7872876Y2394853I-48260J-19050D01*
G01X7609900Y2268440D02*
G03X7651725Y2236007I48260J19050D01*
G01X7651811Y2394170D02*
G03X7609024Y2354348I3810J-46990D01*
G01X7808020Y2394170D02*
G01X7872790Y2394170D01*
G01X7808020Y2236690D02*
G01X7872790Y2236690D01*
G01X7914700Y2362420D02*
G01X7914700Y2274790D01*
G01X7609900Y2356070D02*
G01X7609900Y2268440D01*
G01X7651810Y2394170D02*
G01X7716580Y2394170D01*
G01X7651810Y2236690D02*
G01X7716580Y2236690D01*
G01X7872790Y2427943D02*
G03X7915576Y2467764I-3810J46990D01*
G01X7914700Y2553673D02*
G03X7872876Y2586106I-48260J-19050D01*
G01X7609900Y2459693D02*
G03X7651725Y2427259I48260J19050D01*
G01X7651811Y2585423D02*
G03X7609024Y2545601I3810J-46990D01*
G01X7808020Y2585423D02*
G01X7872790Y2585423D01*
G01X7808020Y2427943D02*
G01X7872790Y2427943D01*
G01X7914700Y2553673D02*
G01X7914700Y2466043D01*
G01X7609900Y2547323D02*
G01X7609900Y2459693D01*
G01X7651810Y2585423D02*
G01X7716580Y2585423D01*
G01X7651810Y2427943D02*
G01X7716580Y2427943D01*
G01X7872790Y2619195D02*
G03X7915576Y2659016I-3810J46990D01*
G01X7914700Y2744925D02*
G03X7872876Y2777358I-48260J-19050D01*
G01X7609900Y2650945D02*
G03X7651725Y2618512I48260J19050D01*
G01X7651811Y2776675D02*
G03X7609024Y2736853I3810J-46990D01*
G01X7808020Y2776675D02*
G01X7872790Y2776675D01*
G01X7808020Y2619195D02*
G01X7872790Y2619195D01*
G01X7914700Y2744925D02*
G01X7914700Y2657295D01*
G01X7609900Y2738575D02*
G01X7609900Y2650945D01*
G01X7651810Y2776675D02*
G01X7716580Y2776675D01*
G01X7651810Y2619195D02*
G01X7716580Y2619195D01*
G01X2333591Y3469757D02*
G03X2373413Y3426970I46990J3810D01*
G01X2459321Y3427846D02*
G03X2491754Y3469671I-19050J48260D01*
G01X2365341Y3732646D02*
G03X2332908Y3690822I19050J-48260D01*
G01X2491071Y3690736D02*
G03X2451250Y3733522I-46990J-3810D01*
G01X2491071Y3534526D02*
G01X2491071Y3469756D01*
G01X2333591Y3534526D02*
G01X2333591Y3469756D01*
G01X2459321Y3427846D02*
G01X2371691Y3427846D01*
G01X2452971Y3732646D02*
G01X2365341Y3732646D01*
G01X2491071Y3690736D02*
G01X2491071Y3625966D01*
G01X2333591Y3690736D02*
G01X2333591Y3625966D01*
G01X6608084Y1255321D02*
G03X6608084Y1835319I-80003J289999D01*
G01X6448084Y1835319D02*
G03X6448084Y1255321I79994J-289999D01*
G01X6198138Y1215120D02*
G01X6198138Y1744964D01*
G01X6858030Y1215120D02*
G01X6858030Y1744964D01*
G01X6198138Y1744964D02*
G01X6328186Y1875012D01*
G01X6727982Y1875012D02*
G01X6858030Y1744964D01*
G01X6601236Y1875012D02*
G01X6727982Y1875012D01*
G01X6328186Y1875012D02*
G01X6454932Y1875012D01*
G01X6601236Y1215120D02*
G01X6858030Y1215120D01*
G01X6198138Y1215120D02*
G01X6454932Y1215120D01*
G36*
G01X6228085Y1495320D02*
G01X6818084Y1495320D01*
G01X6808084Y1435320D01*
G01X6788084Y1385320D01*
G01X6758084Y1355320D01*
G01X6738084Y1325320D01*
G01X6708084Y1295320D01*
G01X6668084Y1275321D01*
G01X6608084Y1255321D01*
G01X6608084Y1435320D01*
G01X6448085Y1435320D01*
G01X6448085Y1255321D01*
G01X6428085Y1265321D01*
G01X6388085Y1275321D01*
G01X6358085Y1305320D01*
G01X6318085Y1325320D01*
G01X6288085Y1365320D01*
G01X6248085Y1445320D01*
G01X6228085Y1495320D01*
G37*
G54D13*
G01X11636726Y3372347D02*
G01X11580851Y3372347D01*
G01X11580851Y3372347D02*
G01X11577852Y3372347D01*
G01X11577852Y3372347D02*
G01X11449851Y3500348D01*
G01X11449851Y3500348D02*
G01X11449851Y3901348D01*
G01X11851852Y3372347D02*
G01X11792957Y3372347D01*
G01X11979840Y3901348D02*
G01X11979840Y3501346D01*
G01X11979840Y3501346D02*
G01X11979840Y3500335D01*
G01X11979840Y3500335D02*
G01X11851852Y3372347D01*
G01X11449843Y3901348D02*
G01X11641738Y3901348D01*
G01X11787966Y3901348D02*
G01X11979840Y3901348D01*
G01X11639853Y3846347D02*
G03X11632977Y3428931I74994J-210000D01*
G01X11789850Y3426347D02*
G03X11800617Y3842184I-75004J209999D01*
G36*
G01X11494852Y3661346D02*
G01X11929850Y3661346D01*
G01X11919852Y3701348D01*
G01X11904851Y3746347D01*
G01X11874851Y3781345D01*
G01X11839850Y3816347D01*
G01X11819850Y3831345D01*
G01X11794851Y3841348D01*
G01X11794851Y3696347D01*
G01X11639853Y3696347D01*
G01X11639853Y3846347D01*
G01X11609853Y3831345D01*
G01X11579851Y3816347D01*
G01X11559851Y3801348D01*
G01X11539853Y3771348D01*
G01X11524852Y3746347D01*
G01X11509851Y3721348D01*
G01X11499853Y3696347D01*
G01X11494852Y3661346D01*
G01X11494852Y3661346D01*
G37*
G54D12*
G01X9367109Y2236690D02*
G03X9409896Y2276511I-3810J46990D01*
G01X9409020Y2362420D02*
G03X9367195Y2394853I-48260J-19050D01*
G01X9104220Y2268440D02*
G03X9146044Y2236007I48260J19050D01*
G01X9146130Y2394170D02*
G03X9103344Y2354348I3810J-46990D01*
G01X9302340Y2394170D02*
G01X9367110Y2394170D01*
G01X9302340Y2236690D02*
G01X9367110Y2236690D01*
G01X9409020Y2362420D02*
G01X9409020Y2274790D01*
G01X9104220Y2356070D02*
G01X9104220Y2268440D01*
G01X9146130Y2394170D02*
G01X9210900Y2394170D01*
G01X9146130Y2236690D02*
G01X9210900Y2236690D01*
G01X9367109Y2427943D02*
G03X9409896Y2467764I-3810J46990D01*
G01X9409020Y2553673D02*
G03X9367195Y2586106I-48260J-19050D01*
G01X9104220Y2459693D02*
G03X9146044Y2427259I48260J19050D01*
G01X9146130Y2585423D02*
G03X9103344Y2545601I3810J-46990D01*
G01X9302340Y2585423D02*
G01X9367110Y2585423D01*
G01X9302340Y2427943D02*
G01X9367110Y2427943D01*
G01X9409020Y2553673D02*
G01X9409020Y2466043D01*
G01X9104220Y2547323D02*
G01X9104220Y2459693D01*
G01X9146130Y2585423D02*
G01X9210900Y2585423D01*
G01X9146130Y2427943D02*
G01X9210900Y2427943D01*
G01X11507461Y3067379D02*
G03X11464674Y3027557I3810J-46990D01*
G01X11465550Y2941649D02*
G03X11507375Y2909216I48260J19050D01*
G01X11770350Y3035629D02*
G03X11728526Y3068062I-48260J-19050D01*
G01X11728440Y2909899D02*
G03X11771226Y2949720I-3810J46990D01*
G01X11572230Y2909899D02*
G01X11507460Y2909899D01*
G01X11572230Y3067379D02*
G01X11507460Y3067379D01*
G01X11465550Y2941649D02*
G01X11465550Y3029279D01*
G01X11770350Y2947999D02*
G01X11770350Y3035629D01*
G01X11728440Y2909899D02*
G01X11663670Y2909899D01*
G01X11728440Y3067379D02*
G01X11663670Y3067379D01*
G01X3490157Y206242D02*
G03X3447371Y166420I3810J-46990D01*
G01X3448247Y80512D02*
G03X3490071Y48078I48260J19050D01*
G01X3753047Y174492D02*
G03X3711222Y206925I-48260J-19050D01*
G01X3711136Y48762D02*
G03X3753923Y88583I-3810J46990D01*
G01X3554927Y48762D02*
G01X3490157Y48762D01*
G01X3554927Y206242D02*
G01X3490157Y206242D01*
G01X3448247Y80512D02*
G01X3448247Y168142D01*
G01X3753047Y86862D02*
G01X3753047Y174492D01*
G01X3711137Y48762D02*
G01X3646367Y48762D01*
G01X3711137Y206242D02*
G01X3646367Y206242D01*
G01X3333731Y48762D02*
G03X3376518Y88583I-3810J46990D01*
G01X3375642Y174492D02*
G03X3333817Y206925I-48260J-19050D01*
G01X3070842Y80512D02*
G03X3112666Y48078I48260J19050D01*
G01X3112752Y206242D02*
G03X3069966Y166420I3810J-46990D01*
G01X3268962Y206242D02*
G01X3333732Y206242D01*
G01X3268962Y48762D02*
G01X3333732Y48762D01*
G01X3375642Y174492D02*
G01X3375642Y86862D01*
G01X3070842Y168142D02*
G01X3070842Y80512D01*
G01X3112752Y206242D02*
G01X3177522Y206242D01*
G01X3112752Y48762D02*
G01X3177522Y48762D01*
G01X9367109Y2598795D02*
G03X9409896Y2638616I-3810J46990D01*
G01X9409020Y2724525D02*
G03X9367195Y2756958I-48260J-19050D01*
G01X9104220Y2630545D02*
G03X9146044Y2598111I48260J19050D01*
G01X9146130Y2756275D02*
G03X9103344Y2716453I3810J-46990D01*
G01X9302340Y2756275D02*
G01X9367110Y2756275D01*
G01X9302340Y2598795D02*
G01X9367110Y2598795D01*
G01X9409020Y2724525D02*
G01X9409020Y2636895D01*
G01X9104220Y2718175D02*
G01X9104220Y2630545D01*
G01X9146130Y2756275D02*
G01X9210900Y2756275D01*
G01X9146130Y2598795D02*
G01X9210900Y2598795D01*
G01X2899076Y1569108D02*
G03X2859255Y1611895I-46990J-3810D01*
G01X2773346Y1611019D02*
G03X2740913Y1569194I19050J-48260D01*
G01X2867327Y1306219D02*
G03X2899760Y1348044I-19050J48260D01*
G01X2741596Y1348129D02*
G03X2781418Y1305343I46990J3810D01*
G01X2741596Y1504339D02*
G01X2741596Y1569109D01*
G01X2899076Y1504339D02*
G01X2899076Y1569109D01*
G01X2773346Y1611019D02*
G01X2860976Y1611019D01*
G01X2779696Y1306219D02*
G01X2867326Y1306219D01*
G01X2741596Y1348129D02*
G01X2741596Y1412899D01*
G01X2899076Y1348129D02*
G01X2899076Y1412899D01*
G01X8092203Y1255321D02*
G03X8092203Y1835319I-80003J289999D01*
G01X7932204Y1835319D02*
G03X7932204Y1255321I79994J-289999D01*
G01X7682258Y1215120D02*
G01X7682258Y1744964D01*
G01X8342150Y1215120D02*
G01X8342150Y1744964D01*
G01X7682258Y1744964D02*
G01X7812306Y1875012D01*
G01X8212102Y1875012D02*
G01X8342150Y1744964D01*
G01X8085356Y1875012D02*
G01X8212102Y1875012D01*
G01X7812306Y1875012D02*
G01X7939052Y1875012D01*
G01X8085356Y1215120D02*
G01X8342150Y1215120D01*
G01X7682258Y1215120D02*
G01X7939052Y1215120D01*
G36*
G01X7712204Y1495320D02*
G01X8302203Y1495320D01*
G01X8292203Y1435320D01*
G01X8272203Y1385320D01*
G01X8242203Y1355320D01*
G01X8222203Y1325320D01*
G01X8192203Y1295320D01*
G01X8152203Y1275321D01*
G01X8092204Y1255321D01*
G01X8092204Y1435320D01*
G01X7932204Y1435320D01*
G01X7932204Y1255321D01*
G01X7912204Y1265321D01*
G01X7872204Y1275321D01*
G01X7842204Y1305320D01*
G01X7802204Y1325320D01*
G01X7772204Y1365320D01*
G01X7732204Y1445320D01*
G01X7712204Y1495320D01*
G37*
G01X3868711Y1501131D02*
G03X3908533Y1458345I46990J3810D01*
G01X3994441Y1459221D02*
G03X4026874Y1501045I-19050J48260D01*
G01X3900461Y1764021D02*
G03X3868028Y1722196I19050J-48260D01*
G01X4026191Y1722110D02*
G03X3986370Y1764897I-46990J-3810D01*
G01X4026191Y1565901D02*
G01X4026191Y1501131D01*
G01X3868711Y1565901D02*
G01X3868711Y1501131D01*
G01X3994441Y1459221D02*
G01X3906811Y1459221D01*
G01X3988091Y1764021D02*
G01X3900461Y1764021D01*
G01X4026191Y1722111D02*
G01X4026191Y1657341D01*
G01X3868711Y1722111D02*
G01X3868711Y1657341D01*
G01X3001078Y2038315D02*
G03X2961256Y2081101I-46990J-3810D01*
G01X2875348Y2080225D02*
G03X2842915Y2038400I19050J-48260D01*
G01X2969328Y1775425D02*
G03X3001761Y1817250I-19050J48260D01*
G01X2843598Y1817335D02*
G03X2883419Y1774549I46990J3810D01*
G01X2843598Y1973545D02*
G01X2843598Y2038315D01*
G01X3001078Y1973545D02*
G01X3001078Y2038315D01*
G01X2875348Y2080225D02*
G01X2962978Y2080225D01*
G01X2881698Y1775425D02*
G01X2969328Y1775425D01*
G01X2843598Y1817335D02*
G01X2843598Y1882105D01*
G01X3001078Y1817335D02*
G01X3001078Y1882105D01*
G01X10296722Y1212104D02*
G03X10256901Y1254890I-46990J-3810D01*
G01X10170992Y1254014D02*
G03X10138559Y1212190I19050J-48260D01*
G01X10264972Y949214D02*
G03X10297406Y991039I-19050J48260D01*
G01X10139242Y991125D02*
G03X10179064Y948338I46990J3810D01*
G01X10139242Y1147334D02*
G01X10139242Y1212104D01*
G01X10296722Y1147334D02*
G01X10296722Y1212104D01*
G01X10170992Y1254014D02*
G01X10258622Y1254014D01*
G01X10177342Y949214D02*
G01X10264972Y949214D01*
G01X10139242Y991124D02*
G01X10139242Y1055894D01*
G01X10296722Y991124D02*
G01X10296722Y1055894D01*
G01X11334748Y1208598D02*
G03X11294926Y1251385I-46990J-3810D01*
G01X11209018Y1250509D02*
G03X11176585Y1208684I19050J-48260D01*
G01X11302998Y945709D02*
G03X11335431Y987533I-19050J48260D01*
G01X11177268Y987619D02*
G03X11217089Y944833I46990J3810D01*
G01X11177268Y1143829D02*
G01X11177268Y1208599D01*
G01X11334748Y1143829D02*
G01X11334748Y1208599D01*
G01X11209018Y1250509D02*
G01X11296648Y1250509D01*
G01X11215368Y945709D02*
G01X11302998Y945709D01*
G01X11177268Y987619D02*
G01X11177268Y1052389D01*
G01X11334748Y987619D02*
G01X11334748Y1052389D01*
G54D14*
G01X3413361Y2949997D02*
G01X3264862Y2949997D01*
G01X3264862Y2731476D02*
G01X3413361Y2731476D01*
G01X3428601Y2746716D02*
G01X3428601Y2934757D01*
G01X2931121Y2949997D02*
G01X3079620Y2949997D01*
G01X3079620Y2731476D02*
G01X2931121Y2731476D01*
G01X2915881Y2746716D02*
G01X2915881Y2934757D01*
G01X3413361Y2731476D02*
G03X3428601Y2746716I0J15240D01*
G01X3428601Y2934757D02*
G03X3413361Y2949997I-15240J0D01*
G01X2931121Y2731476D02*
G02X2915881Y2746716I0J15240D01*
G01X2915881Y2934757D02*
G02X2931121Y2949997I15240J0D01*
G54D13*
G01X4302831Y3193845D02*
G01X4246956Y3193845D01*
G01X4246956Y3193845D02*
G01X4243957Y3193845D01*
G01X4243957Y3193845D02*
G01X4115956Y3321846D01*
G01X4115956Y3321846D02*
G01X4115956Y3722845D01*
G01X4517957Y3193845D02*
G01X4459062Y3193845D01*
G01X4645945Y3722845D02*
G01X4645945Y3322844D01*
G01X4645945Y3322844D02*
G01X4645945Y3321833D01*
G01X4645945Y3321833D02*
G01X4517957Y3193845D01*
G01X4115948Y3722845D02*
G01X4307843Y3722845D01*
G01X4454071Y3722845D02*
G01X4645945Y3722845D01*
G01X4305958Y3667844D02*
G03X4299082Y3250428I74994J-210000D01*
G01X4455955Y3247845D02*
G03X4466722Y3663681I-75004J209999D01*
G36*
G01X4160957Y3482843D02*
G01X4595955Y3482843D01*
G01X4585958Y3522846D01*
G01X4570956Y3567845D01*
G01X4540956Y3602843D01*
G01X4505955Y3637844D01*
G01X4485955Y3652843D01*
G01X4460957Y3662846D01*
G01X4460957Y3517845D01*
G01X4305958Y3517845D01*
G01X4305958Y3667844D01*
G01X4275958Y3652843D01*
G01X4245956Y3637844D01*
G01X4225956Y3622846D01*
G01X4205958Y3592846D01*
G01X4190957Y3567845D01*
G01X4175956Y3542846D01*
G01X4165958Y3517845D01*
G01X4160957Y3482843D01*
G01X4160957Y3482843D01*
G37*
G54D12*
G01X3333731Y2206090D02*
G03X3376518Y2245911I-3810J46990D01*
G01X3375642Y2331820D02*
G03X3333817Y2364253I-48260J-19050D01*
G01X3070842Y2237840D02*
G03X3112666Y2205406I48260J19050D01*
G01X3112752Y2363570D02*
G03X3069966Y2323748I3810J-46990D01*
G01X3333732Y2363570D02*
G01X3268962Y2363570D01*
G01X3333732Y2206090D02*
G01X3268962Y2206090D01*
G01X3375642Y2244190D02*
G01X3375642Y2331820D01*
G01X3070842Y2237840D02*
G01X3070842Y2325470D01*
G01X3177522Y2363570D02*
G01X3112752Y2363570D01*
G01X3177522Y2206090D02*
G01X3112752Y2206090D01*
G01X3185940Y3188246D02*
G03X3185940Y3768244I-79994J289999D01*
G01X3025940Y3768244D02*
G03X3025940Y3188246I80003J-289999D01*
G01X3179092Y3808445D02*
G01X3435886Y3808445D01*
G01X2775994Y3808445D02*
G01X3032788Y3808445D01*
G01X3179092Y3148553D02*
G01X3305838Y3148553D01*
G01X2906042Y3148553D02*
G01X3032788Y3148553D01*
G01X2775994Y3278601D02*
G01X2906042Y3148553D01*
G01X3435886Y3278601D02*
G01X3305838Y3148553D01*
G01X2775994Y3808445D02*
G01X2775994Y3278601D01*
G01X3435886Y3808445D02*
G01X3435886Y3278601D01*
G36*
G01X3405940Y3528245D02*
G01X2815941Y3528245D01*
G01X2825941Y3588245D01*
G01X2845941Y3638245D01*
G01X2875941Y3668245D01*
G01X2895941Y3698245D01*
G01X2925941Y3728245D01*
G01X2965940Y3748244D01*
G01X3025940Y3768244D01*
G01X3025940Y3588245D01*
G01X3185940Y3588245D01*
G01X3185940Y3768244D01*
G01X3205940Y3758244D01*
G01X3245940Y3748244D01*
G01X3275940Y3718245D01*
G01X3315940Y3698245D01*
G01X3345940Y3658245D01*
G01X3385940Y3578245D01*
G01X3405940Y3528245D01*
G37*
G01X285610Y2964642D02*
G01X285610Y3032641D01*
G01X93604Y3042648D02*
G01X123599Y3072643D01*
G01X93604Y2952638D02*
G01X93604Y3042648D01*
G01X423606Y2924640D02*
G01X423606Y3072630D01*
G01X228605Y2922636D02*
G01X123599Y2922636D01*
G01X228605Y3072643D02*
G01X123599Y3072643D01*
G01X423606Y2922636D02*
G01X308605Y2922636D01*
G01X423606Y3072643D02*
G01X308605Y3072643D01*
G01X123599Y2922636D02*
G01X93604Y2952638D01*
G01X285610Y2964642D02*
G01X285610Y2965528D01*
G01X285610Y2965528D02*
G01X255203Y2995935D01*
G01X255203Y2995935D02*
G01X255203Y3002234D01*
G01X255203Y3002234D02*
G01X285610Y3032641D01*
G01X285610Y3319451D02*
G01X285610Y3387449D01*
G01X93604Y3397457D02*
G01X123599Y3427451D01*
G01X93604Y3307447D02*
G01X93604Y3397457D01*
G01X423606Y3279448D02*
G01X423606Y3427439D01*
G01X228605Y3277444D02*
G01X123599Y3277444D01*
G01X228605Y3427451D02*
G01X123599Y3427451D01*
G01X423606Y3277444D02*
G01X308605Y3277444D01*
G01X423606Y3427451D02*
G01X308605Y3427451D01*
G01X123599Y3277444D02*
G01X93604Y3307447D01*
G01X285610Y3319451D02*
G01X285610Y3320337D01*
G01X285610Y3320337D02*
G01X255203Y3350743D01*
G01X255203Y3350743D02*
G01X255203Y3357042D01*
G01X255203Y3357042D02*
G01X285610Y3387449D01*
G54D15*
G01X12755265Y238868D02*
G01X12755011Y333864D01*
G01X12742565Y285604D02*
G01X12767965Y285604D01*
G01X12755265Y272904D02*
G01X12755265Y285858D01*
G01X12755265Y285858D02*
G01X12742565Y311004D01*
G01X12742565Y311004D02*
G01X12767965Y311004D01*
G01X12767965Y311004D02*
G01X12755519Y285858D01*
G01X12755265Y298304D02*
G01X12755265Y285350D01*
G01X12755265Y285350D02*
G01X12767965Y260204D01*
G01X12767965Y260204D02*
G01X12742565Y260204D01*
G01X12742565Y260204D02*
G01X12755011Y285350D01*
G54D14*
G01X12827909Y333864D02*
G01X12682621Y333864D01*
G01X12827909Y238868D02*
G01X12682621Y238868D01*
G01X12682621Y375774D02*
G01X12682621Y195434D01*
G01X12827909Y375774D02*
G01X12799969Y375774D01*
G01X12682621Y375774D02*
G01X12710561Y375774D01*
G01X12682621Y195434D02*
G01X12710561Y195434D01*
G01X12827909Y375774D02*
G01X12827909Y195434D01*
G01X12827909Y195434D02*
G01X12799969Y195434D01*
G54D12*
G01X4202951Y2169826D02*
G01X4082951Y2169826D01*
G01X4082951Y1889826D02*
G01X3742951Y1889826D01*
G01X4202951Y1889826D02*
G01X4082951Y1889826D01*
G01X4082951Y2169826D02*
G01X3742951Y2169826D01*
G01X4202951Y2149826D02*
G01X4202951Y2169826D01*
G01X4202951Y1889826D02*
G01X4202951Y1909826D01*
G01X3912952Y1889826D02*
G01X3912952Y2169826D01*
G01X4032951Y1969826D02*
G01X4032951Y2099826D01*
G01X3962951Y2029826D02*
G01X4032951Y2099826D01*
G01X3962951Y1969826D02*
G01X3962951Y2089826D01*
G01X4032951Y1959826D02*
G01X3962951Y2029826D01*
G01X4032951Y1959826D02*
G01X4032951Y1969826D01*
G01X4052952Y2029826D02*
G01X3942951Y2029826D01*
G36*
G01X3732947Y2139831D02*
G01X3822947Y2139831D01*
G01X3822947Y2179831D01*
G01X3732947Y2179831D01*
G01X3732947Y2139831D01*
G37*
G36*
G01X3732947Y1889831D02*
G01X3822947Y1889831D01*
G01X3822947Y1929831D01*
G01X3732947Y1929831D01*
G01X3732947Y1889831D01*
G37*
G54D15*
G01X4987865Y3438280D02*
G01X4988119Y3343284D01*
G01X5000565Y3391544D02*
G01X4975165Y3391544D01*
G01X4987865Y3404244D02*
G01X4987865Y3391290D01*
G01X4987865Y3391290D02*
G01X5000565Y3366144D01*
G01X5000565Y3366144D02*
G01X4975165Y3366144D01*
G01X4975165Y3366144D02*
G01X4987611Y3391290D01*
G01X4987865Y3378844D02*
G01X4987865Y3391798D01*
G01X4987865Y3391798D02*
G01X4975165Y3416944D01*
G01X4975165Y3416944D02*
G01X5000565Y3416944D01*
G01X5000565Y3416944D02*
G01X4988119Y3391798D01*
G54D14*
G01X4915221Y3343284D02*
G01X5060509Y3343284D01*
G01X4915221Y3438280D02*
G01X5060509Y3438280D01*
G01X5060509Y3301374D02*
G01X5060509Y3481714D01*
G01X4915221Y3301374D02*
G01X4943161Y3301374D01*
G01X5060509Y3301374D02*
G01X5032569Y3301374D01*
G01X5060509Y3481714D02*
G01X5032569Y3481714D01*
G01X4915221Y3301374D02*
G01X4915221Y3481714D01*
G01X4915221Y3481714D02*
G01X4943161Y3481714D01*
G54D12*
G01X9699633Y2371524D02*
G01X9767631Y2371524D01*
G01X9777639Y2563530D02*
G01X9807634Y2533535D01*
G01X9687629Y2563530D02*
G01X9777639Y2563530D01*
G01X9659631Y2233528D02*
G01X9807621Y2233528D01*
G01X9657627Y2428529D02*
G01X9657627Y2533535D01*
G01X9807634Y2428529D02*
G01X9807634Y2533535D01*
G01X9657627Y2233528D02*
G01X9657627Y2348529D01*
G01X9807634Y2233528D02*
G01X9807634Y2348529D01*
G01X9657627Y2533535D02*
G01X9687629Y2563530D01*
G01X9699633Y2371524D02*
G01X9700519Y2371524D01*
G01X9700519Y2371524D02*
G01X9730926Y2401931D01*
G01X9730926Y2401931D02*
G01X9737225Y2401931D01*
G01X9737225Y2401931D02*
G01X9767631Y2371524D01*
G01X2906541Y2394733D02*
G01X3026541Y2394733D01*
G01X3026541Y2674733D02*
G01X3366541Y2674733D01*
G01X2906541Y2674733D02*
G01X3026541Y2674733D01*
G01X3026541Y2394733D02*
G01X3366541Y2394733D01*
G01X2906541Y2414733D02*
G01X2906541Y2394733D01*
G01X2906541Y2674733D02*
G01X2906541Y2654733D01*
G01X3196540Y2674733D02*
G01X3196540Y2394733D01*
G01X3076541Y2594733D02*
G01X3076541Y2464733D01*
G01X3146541Y2534733D02*
G01X3076541Y2464733D01*
G01X3146541Y2594733D02*
G01X3146541Y2474733D01*
G01X3076541Y2604733D02*
G01X3146541Y2534733D01*
G01X3076541Y2604733D02*
G01X3076541Y2594733D01*
G01X3056540Y2534733D02*
G01X3166541Y2534733D01*
G36*
G01X3376545Y2424728D02*
G01X3286545Y2424728D01*
G01X3286545Y2384728D01*
G01X3376545Y2384728D01*
G01X3376545Y2424728D01*
G37*
G36*
G01X3376545Y2674728D02*
G01X3286545Y2674728D01*
G01X3286545Y2634728D01*
G01X3376545Y2634728D01*
G01X3376545Y2674728D01*
G37*
G54D13*
G01X-222189Y2524725D02*
G01X168126Y2524725D01*
G01X-222189Y2524725D02*
G01X-222189Y1524725D01*
G01X-222189Y1524725D02*
G01X168126Y1524725D01*
G01X-79664Y2524725D02*
G01X-79664Y1524725D01*
G01X1077809Y2112453D02*
G01X1077809Y2524725D01*
G01X1077809Y1524725D02*
G01X1077809Y1936997D01*
G01X957492Y1524725D02*
G01X1077809Y1524725D01*
G01X487493Y1524725D02*
G01X638125Y1524725D01*
G01X957492Y2524725D02*
G01X1077809Y2524725D01*
G01X487493Y2524725D02*
G01X638125Y2524725D01*
G54D12*
G01X1228616Y1233371D02*
G03X2527784Y1233371I649584J622929D01*
G01X2527784Y2479229D02*
G03X1228616Y2479229I-649584J-622929D01*
G01X2528200Y1856300D02*
G01X2528200Y1233371D01*
G01X1228200Y1856300D02*
G01X1228200Y1233371D01*
G01X2528200Y2479229D02*
G01X2528200Y1856300D01*
G01X1228200Y2479229D02*
G01X1228200Y1856300D01*
G01X1878200Y3776300D02*
G01X2178200Y3776300D01*
G01X2178200Y3176300D02*
G01X2178200Y3776300D01*
G01X1578200Y3176300D02*
G01X2178200Y3176300D01*
G01X1578200Y3176300D02*
G01X1578200Y3776300D01*
G01X1578200Y3776300D02*
G01X1878200Y3776300D01*
G54D13*
G01X4337650Y2478120D02*
G01X4337650Y2231235D01*
G01X4337650Y2231235D02*
G01X3577652Y2231235D01*
G01X3577652Y2744348D02*
G01X3577652Y2991233D01*
G01X3577652Y2991233D02*
G01X4337650Y2991233D01*
G01X4337650Y2991233D02*
G01X4337650Y2744348D01*
G01X3577652Y2231235D02*
G01X3577652Y2478120D01*
G54D16*
G01X4097605Y2861170D02*
G01X3817697Y2861170D01*
G01X4097605Y2361298D02*
G01X3817697Y2361298D01*
G54D13*
G01X12924069Y1069689D02*
G01X13178069Y1069689D01*
G01X12924069Y11525D02*
G01X12924069Y1069689D01*
G01X12924069Y288893D02*
G01X13178069Y288893D01*
G01X13178069Y11525D02*
G01X13178069Y1069689D01*
G01X12924069Y11525D02*
G01X13178069Y11525D01*
G54D12*
G01X5829182Y8909D02*
G01X7083182Y8909D01*
G01X5829182Y708909D02*
G01X7083182Y708909D01*
G01X5829182Y8909D02*
G01X5829182Y708909D01*
G01X6151382Y13909D02*
G01X6151382Y408909D01*
G01X5998982Y408909D02*
G01X6151382Y408909D01*
G01X5998982Y13909D02*
G01X5998982Y408909D01*
G01X7083182Y8909D02*
G01X7083182Y708909D01*
G01X6749182Y8909D02*
G01X6749182Y68809D01*
G01X6749182Y68809D02*
G01X6749182Y403909D01*
G01X6749182Y403909D02*
G01X6901582Y403909D01*
G01X6901582Y8909D02*
G01X6901582Y403909D01*
G01X14225635Y577800D02*
G01X14285535Y577800D01*
G01X13890535Y577800D02*
G01X14225635Y577800D01*
G01X13890535Y577800D02*
G01X13890535Y730200D01*
G01X13890535Y730200D02*
G01X14285535Y730200D01*
G01X14290535Y150000D02*
G01X14290535Y890000D01*
G01X13590535Y150000D02*
G01X13590535Y890000D01*
G01X13590535Y150000D02*
G01X14290535Y150000D01*
G01X13590535Y890000D02*
G01X14290535Y890000D01*
G01X13890535Y472200D02*
G01X14285535Y472200D01*
G01X13890535Y319800D02*
G01X13890535Y472200D01*
G01X13890535Y319800D02*
G01X14285535Y319800D01*
G01X7147658Y8909D02*
G01X8401658Y8909D01*
G01X7147658Y708909D02*
G01X8401658Y708909D01*
G01X7147658Y8909D02*
G01X7147658Y708909D01*
G01X7469858Y13909D02*
G01X7469858Y408909D01*
G01X7317458Y408909D02*
G01X7469858Y408909D01*
G01X7317458Y13909D02*
G01X7317458Y408909D01*
G01X8401658Y8909D02*
G01X8401658Y708909D01*
G01X8067657Y8909D02*
G01X8067657Y68809D01*
G01X8067657Y68809D02*
G01X8067657Y403909D01*
G01X8067657Y403909D02*
G01X8220057Y403909D01*
G01X8220057Y8909D02*
G01X8220057Y403909D01*
G01X14267576Y3253043D02*
G01X14327477Y3253043D01*
G01X13932476Y3253043D02*
G01X14267576Y3253043D01*
G01X13932476Y3253043D02*
G01X13932476Y3405443D01*
G01X13932476Y3405443D02*
G01X14327477Y3405443D01*
G01X14332477Y2825243D02*
G01X14332477Y3565243D01*
G01X13632476Y2825243D02*
G01X13632476Y3565243D01*
G01X13632476Y2825243D02*
G01X14332477Y2825243D01*
G01X13632476Y3565243D02*
G01X14332477Y3565243D01*
G01X13932476Y3147443D02*
G01X14327477Y3147443D01*
G01X13932476Y2995043D02*
G01X13932476Y3147443D01*
G01X13932476Y2995043D02*
G01X14327477Y2995043D01*
G01X8466133Y8909D02*
G01X9720133Y8909D01*
G01X8466133Y708909D02*
G01X9720133Y708909D01*
G01X8466133Y8909D02*
G01X8466133Y708909D01*
G01X8788333Y13909D02*
G01X8788333Y408909D01*
G01X8635933Y408909D02*
G01X8788333Y408909D01*
G01X8635933Y13909D02*
G01X8635933Y408909D01*
G01X9720133Y8909D02*
G01X9720133Y708909D01*
G01X9386133Y8909D02*
G01X9386133Y68809D01*
G01X9386133Y68809D02*
G01X9386133Y403909D01*
G01X9386133Y403909D02*
G01X9538533Y403909D01*
G01X9538533Y8909D02*
G01X9538533Y403909D01*
G01X9752571Y8909D02*
G01X10752571Y8909D01*
G01X9752571Y708909D02*
G01X10752571Y708909D01*
G01X9752571Y8909D02*
G01X9752571Y708909D01*
G01X10752571Y8909D02*
G01X10752571Y708909D01*
G01X10582771Y13909D02*
G01X10582771Y408909D01*
G01X10430371Y408909D02*
G01X10582771Y408909D01*
G01X10430371Y73809D02*
G01X10430371Y408909D01*
G01X10430371Y13909D02*
G01X10430371Y73809D01*
G01X10074771Y13909D02*
G01X10074771Y408909D01*
G01X9922371Y408909D02*
G01X10074771Y408909D01*
G01X9922371Y13909D02*
G01X9922371Y408909D01*
G01X10791546Y8909D02*
G01X11791546Y8909D01*
G01X10791546Y708909D02*
G01X11791546Y708909D01*
G01X10791546Y8909D02*
G01X10791546Y708909D01*
G01X11791546Y8909D02*
G01X11791546Y708909D01*
G01X11621746Y13909D02*
G01X11621746Y408909D01*
G01X11469346Y408909D02*
G01X11621746Y408909D01*
G01X11469346Y73809D02*
G01X11469346Y408909D01*
G01X11469346Y13909D02*
G01X11469346Y73809D01*
G01X11113746Y13909D02*
G01X11113746Y408909D01*
G01X10961346Y408909D02*
G01X11113746Y408909D01*
G01X10961346Y13909D02*
G01X10961346Y408909D01*
G01X4793868Y8909D02*
G01X5793869Y8909D01*
G01X4793868Y708909D02*
G01X5793869Y708909D01*
G01X4793868Y8909D02*
G01X4793868Y708909D01*
G01X5793869Y8909D02*
G01X5793869Y708909D01*
G01X5624069Y13909D02*
G01X5624069Y408909D01*
G01X5471669Y408909D02*
G01X5624069Y408909D01*
G01X5471669Y73809D02*
G01X5471669Y408909D01*
G01X5471669Y13909D02*
G01X5471669Y73809D01*
G01X5116069Y13909D02*
G01X5116069Y408909D01*
G01X4963669Y408909D02*
G01X5116069Y408909D01*
G01X4963669Y13909D02*
G01X4963669Y408909D01*
G54D17*
G01X12901929Y1317915D02*
G01X13424929Y1317915D01*
G01X12901929Y1317915D02*
G01X12901929Y2317915D01*
G01X12901929Y2317915D02*
G01X13424929Y2317915D01*
G01X13851929Y1617915D02*
G01X14324929Y1617915D01*
G01X13851929Y1617915D02*
G01X13851929Y2017915D01*
G01X13851929Y2017915D02*
G01X14324929Y2017915D01*
G01X13424929Y2697915D02*
G01X14324929Y2697915D01*
G01X14324929Y937915D02*
G01X14324929Y2697915D01*
G01X13424929Y937915D02*
G01X14324929Y937915D01*
G01X13424929Y937915D02*
G01X13424929Y2697915D01*
G54D12*
G01X13271372Y3634208D02*
G01X13371372Y3634208D01*
G01X13271372Y3634208D02*
G01X13271372Y3914208D01*
G01X13271372Y3914208D02*
G01X13371372Y3914208D01*
G01X13131373Y3614208D02*
G01X13131373Y3924208D01*
G01X13131373Y3614208D02*
G01X13521373Y3614208D01*
G01X13521373Y3614208D02*
G01X13521373Y3934208D01*
G01X13131373Y3934208D02*
G01X13521373Y3934208D01*
G01X13131373Y3914208D02*
G01X13131373Y3934208D01*
G01X13371372Y3634208D02*
G01X13371372Y3914208D01*
G01X10815548Y1254890D02*
G01X10655543Y1254890D01*
G01X10656054Y944833D02*
G01X10656054Y1069836D01*
G01X10816059Y944833D02*
G01X10816059Y1069836D01*
G01X10655543Y1129894D02*
G01X10655543Y1254890D01*
G01X10815548Y1129894D02*
G01X10815548Y1254890D01*
G01X10816059Y944833D02*
G01X10656054Y944833D01*
G01X10375592Y2649043D02*
G01X10375592Y2809048D01*
G01X10065534Y2808538D02*
G01X10190537Y2808538D01*
G01X10065534Y2648533D02*
G01X10190537Y2648533D01*
G01X10250596Y2809048D02*
G01X10375592Y2809048D01*
G01X10250596Y2649043D02*
G01X10375592Y2649043D01*
G01X10065534Y2648533D02*
G01X10065534Y2808538D01*
G01X11620060Y2476575D02*
G01X11780064Y2476575D01*
G01X11779554Y2786632D02*
G01X11779554Y2661629D01*
G01X11619549Y2786632D02*
G01X11619549Y2661629D01*
G01X11780064Y2601571D02*
G01X11780064Y2476575D01*
G01X11620060Y2601571D02*
G01X11620060Y2476575D01*
G01X11619549Y2786632D02*
G01X11779554Y2786632D01*
G01X5755973Y1773799D02*
G01X5755973Y1633799D01*
G01X5755973Y1773799D02*
G01X5555973Y1773799D01*
G01X5555973Y1773799D02*
G01X5555973Y1633799D01*
G01X5555973Y1533800D02*
G01X5555973Y1393800D01*
G01X5755973Y1393800D02*
G01X5555973Y1393800D01*
G01X5755973Y1533800D02*
G01X5755973Y1393800D01*
G01X5821285Y2859141D02*
G01X5981289Y2859141D01*
G01X5980779Y3169198D02*
G01X5980779Y3044195D01*
G01X5820774Y3169198D02*
G01X5820774Y3044195D01*
G01X5981289Y2984137D02*
G01X5981289Y2859141D01*
G01X5821285Y2984137D02*
G01X5821285Y2859141D01*
G01X5820774Y3169198D02*
G01X5980779Y3169198D01*
G01X11196702Y2965248D02*
G01X11196702Y3125252D01*
G01X10886644Y3124742D02*
G01X11011648Y3124742D01*
G01X10886644Y2964737D02*
G01X11011648Y2964737D01*
G01X11071706Y3125252D02*
G01X11196702Y3125252D01*
G01X11071706Y2965248D02*
G01X11196702Y2965248D01*
G01X10886644Y2964737D02*
G01X10886644Y3124742D01*
G01X5295870Y1393800D02*
G01X5295870Y1533800D01*
G01X5295870Y1393800D02*
G01X5495870Y1393800D01*
G01X5495870Y1393800D02*
G01X5495870Y1533800D01*
G01X5495870Y1633799D02*
G01X5495870Y1773799D01*
G01X5295870Y1773799D02*
G01X5495870Y1773799D01*
G01X5295870Y1633799D02*
G01X5295870Y1773799D01*
G01X5627227Y2859141D02*
G01X5787232Y2859141D01*
G01X5786721Y3169198D02*
G01X5786721Y3044195D01*
G01X5626716Y3169198D02*
G01X5626716Y3044195D01*
G01X5787232Y2984137D02*
G01X5787232Y2859141D01*
G01X5627227Y2984137D02*
G01X5627227Y2859141D01*
G01X5626716Y3169198D02*
G01X5786721Y3169198D01*
G01X5592663Y3169198D02*
G01X5432658Y3169198D01*
G01X5433169Y2859141D02*
G01X5433169Y2984144D01*
G01X5593174Y2859141D02*
G01X5593174Y2984144D01*
G01X5432658Y3044202D02*
G01X5432658Y3169198D01*
G01X5592663Y3044202D02*
G01X5592663Y3169198D01*
G01X5593174Y2859141D02*
G01X5433169Y2859141D01*
G01X423606Y2735234D02*
G01X423606Y2895239D01*
G01X113548Y2894728D02*
G01X238552Y2894728D01*
G01X113548Y2734724D02*
G01X238552Y2734724D01*
G01X298610Y2895239D02*
G01X423606Y2895239D01*
G01X298610Y2735234D02*
G01X423606Y2735234D01*
G01X113548Y2734724D02*
G01X113548Y2894728D01*
G01X5816184Y3328286D02*
G01X5976189Y3328286D01*
G01X5975679Y3638343D02*
G01X5975679Y3513340D01*
G01X5815674Y3638343D02*
G01X5815674Y3513340D01*
G01X5976189Y3453282D02*
G01X5976189Y3328286D01*
G01X5816184Y3453282D02*
G01X5816184Y3328286D01*
G01X5815674Y3638343D02*
G01X5975679Y3638343D01*
G01X5332571Y3373145D02*
G01X5332571Y3323145D01*
G01X5332571Y3323145D02*
G01X5572571Y3323145D01*
G01X5332571Y3623145D02*
G01X5332571Y3573145D01*
G01X5332571Y3623145D02*
G01X5572571Y3623145D01*
G01X5632571Y3503145D02*
G01X5632571Y3443145D01*
G01X7352294Y1773799D02*
G01X7352294Y1633799D01*
G01X7352294Y1773799D02*
G01X7152294Y1773799D01*
G01X7152294Y1773799D02*
G01X7152294Y1633799D01*
G01X7152294Y1533800D02*
G01X7152294Y1393800D01*
G01X7352294Y1393800D02*
G01X7152294Y1393800D01*
G01X7352294Y1533800D02*
G01X7352294Y1393800D01*
G01X7203402Y2859141D02*
G01X7363407Y2859141D01*
G01X7362897Y3169198D02*
G01X7362897Y3044195D01*
G01X7202892Y3169198D02*
G01X7202892Y3044195D01*
G01X7363407Y2984137D02*
G01X7363407Y2859141D01*
G01X7203402Y2984137D02*
G01X7203402Y2859141D01*
G01X7202892Y3169198D02*
G01X7362897Y3169198D01*
G01X6907491Y1393800D02*
G01X6907491Y1533800D01*
G01X6907491Y1393800D02*
G01X7107491Y1393800D01*
G01X7107491Y1393800D02*
G01X7107491Y1533800D01*
G01X7107491Y1633799D02*
G01X7107491Y1773799D01*
G01X6907491Y1773799D02*
G01X7107491Y1773799D01*
G01X6907491Y1633799D02*
G01X6907491Y1773799D01*
G01X7013514Y2859141D02*
G01X7173519Y2859141D01*
G01X7173009Y3169198D02*
G01X7173009Y3044195D01*
G01X7013004Y3169198D02*
G01X7013004Y3044195D01*
G01X7173519Y2984137D02*
G01X7173519Y2859141D01*
G01X7013514Y2984137D02*
G01X7013514Y2859141D01*
G01X7013004Y3169198D02*
G01X7173009Y3169198D01*
G01X6984981Y3169198D02*
G01X6824976Y3169198D01*
G01X6825487Y2859141D02*
G01X6825487Y2984144D01*
G01X6985492Y2859141D02*
G01X6985492Y2984144D01*
G01X6824976Y3044202D02*
G01X6824976Y3169198D01*
G01X6984981Y3044202D02*
G01X6984981Y3169198D01*
G01X6985492Y2859141D02*
G01X6825487Y2859141D01*
G01X8656869Y3776158D02*
G01X8656869Y3936163D01*
G01X8346812Y3935652D02*
G01X8471815Y3935652D01*
G01X8346812Y3775648D02*
G01X8471815Y3775648D01*
G01X8531873Y3936163D02*
G01X8656869Y3936163D01*
G01X8531873Y3776158D02*
G01X8656869Y3776158D01*
G01X8346812Y3775648D02*
G01X8346812Y3935652D01*
G01X7055500Y3328286D02*
G01X7215505Y3328286D01*
G01X7214995Y3638343D02*
G01X7214995Y3513340D01*
G01X7054990Y3638343D02*
G01X7054990Y3513340D01*
G01X7215505Y3453282D02*
G01X7215505Y3328286D01*
G01X7055500Y3453282D02*
G01X7055500Y3328286D01*
G01X7054990Y3638343D02*
G01X7214995Y3638343D01*
G01X6582087Y3373145D02*
G01X6582087Y3323145D01*
G01X6582087Y3323145D02*
G01X6822087Y3323145D01*
G01X6582087Y3623145D02*
G01X6582087Y3573145D01*
G01X6582087Y3623145D02*
G01X6822087Y3623145D01*
G01X6882087Y3503145D02*
G01X6882087Y3443145D01*
G01X8872114Y1773799D02*
G01X8872114Y1633799D01*
G01X8872114Y1773799D02*
G01X8672113Y1773799D01*
G01X8672113Y1773799D02*
G01X8672113Y1633799D01*
G01X8672113Y1533800D02*
G01X8672113Y1393800D01*
G01X8872114Y1393800D02*
G01X8672113Y1393800D01*
G01X8872114Y1533800D02*
G01X8872114Y1393800D01*
G01X4225845Y1674879D02*
G01X4065841Y1674879D01*
G01X4066351Y1364821D02*
G01X4066351Y1489825D01*
G01X4226356Y1364821D02*
G01X4226356Y1489825D01*
G01X4065841Y1549883D02*
G01X4065841Y1674879D01*
G01X4225845Y1549883D02*
G01X4225845Y1674879D01*
G01X4226356Y1364821D02*
G01X4066351Y1364821D01*
G01X4419648Y1669779D02*
G01X4259643Y1669779D01*
G01X4260154Y1359721D02*
G01X4260154Y1484725D01*
G01X4420159Y1359721D02*
G01X4420159Y1484725D01*
G01X4259643Y1544783D02*
G01X4259643Y1669779D01*
G01X4419648Y1544783D02*
G01X4419648Y1669779D01*
G01X4420159Y1359721D02*
G01X4260154Y1359721D01*
G01X8723222Y2859141D02*
G01X8883227Y2859141D01*
G01X8882716Y3169198D02*
G01X8882716Y3044195D01*
G01X8722712Y3169198D02*
G01X8722712Y3044195D01*
G01X8883227Y2984137D02*
G01X8883227Y2859141D01*
G01X8723222Y2984137D02*
G01X8723222Y2859141D01*
G01X8722712Y3169198D02*
G01X8882716Y3169198D01*
G01X8412010Y1393800D02*
G01X8412010Y1533800D01*
G01X8412010Y1393800D02*
G01X8612010Y1393800D01*
G01X8612010Y1393800D02*
G01X8612010Y1533800D01*
G01X8612010Y1633799D02*
G01X8612010Y1773799D01*
G01X8412010Y1773799D02*
G01X8612010Y1773799D01*
G01X8412010Y1633799D02*
G01X8412010Y1773799D01*
G01X8531714Y2859141D02*
G01X8691719Y2859141D01*
G01X8691209Y3169198D02*
G01X8691209Y3044195D01*
G01X8531204Y3169198D02*
G01X8531204Y3044195D01*
G01X8691719Y2984137D02*
G01X8691719Y2859141D01*
G01X8531714Y2984137D02*
G01X8531714Y2859141D01*
G01X8531204Y3169198D02*
G01X8691209Y3169198D01*
G01X8499701Y3169198D02*
G01X8339696Y3169198D01*
G01X8340207Y2859141D02*
G01X8340207Y2984144D01*
G01X8500211Y2859141D02*
G01X8500211Y2984144D01*
G01X8339696Y3044202D02*
G01X8339696Y3169198D01*
G01X8499701Y3044202D02*
G01X8499701Y3169198D01*
G01X8500211Y2859141D02*
G01X8340207Y2859141D01*
G01X12855157Y3934208D02*
G01X12695152Y3934208D01*
G01X12695663Y3624150D02*
G01X12695663Y3749154D01*
G01X12855668Y3624150D02*
G01X12855668Y3749154D01*
G01X12695152Y3809212D02*
G01X12695152Y3934208D01*
G01X12855157Y3809212D02*
G01X12855157Y3934208D01*
G01X12855668Y3624150D02*
G01X12695663Y3624150D01*
G01X13074460Y3934208D02*
G01X12914455Y3934208D01*
G01X12914966Y3624150D02*
G01X12914966Y3749154D01*
G01X13074971Y3624150D02*
G01X13074971Y3749154D01*
G01X12914455Y3809212D02*
G01X12914455Y3934208D01*
G01X13074460Y3809212D02*
G01X13074460Y3934208D01*
G01X13074971Y3624150D02*
G01X12914966Y3624150D01*
G01X8784423Y3328286D02*
G01X8944428Y3328286D01*
G01X8943917Y3638343D02*
G01X8943917Y3513340D01*
G01X8783912Y3638343D02*
G01X8783912Y3513340D01*
G01X8944428Y3453282D02*
G01X8944428Y3328286D01*
G01X8784423Y3453282D02*
G01X8784423Y3328286D01*
G01X8783912Y3638343D02*
G01X8943917Y3638343D01*
G01X8300809Y3373145D02*
G01X8300809Y3323145D01*
G01X8300809Y3323145D02*
G01X8540809Y3323145D01*
G01X8300809Y3623145D02*
G01X8300809Y3573145D01*
G01X8300809Y3623145D02*
G01X8540809Y3623145D01*
G01X8600809Y3503145D02*
G01X8600809Y3443145D01*
G01X9880937Y944833D02*
G01X10040942Y944833D01*
G01X10040431Y1254890D02*
G01X10040431Y1129887D01*
G01X9880427Y1254890D02*
G01X9880427Y1129887D01*
G01X10040942Y1069828D02*
G01X10040942Y944833D01*
G01X9880937Y1069828D02*
G01X9880937Y944833D01*
G01X9880427Y1254890D02*
G01X10040431Y1254890D01*
G01X10916574Y944833D02*
G01X11076579Y944833D01*
G01X11076069Y1254890D02*
G01X11076069Y1129887D01*
G01X10916064Y1254890D02*
G01X10916064Y1129887D01*
G01X11076579Y1069828D02*
G01X11076579Y944833D01*
G01X10916574Y1069828D02*
G01X10916574Y944833D01*
G01X10916064Y1254890D02*
G01X11076069Y1254890D01*
G01X12767523Y1445428D02*
G01X12767523Y1605433D01*
G01X12457465Y1604922D02*
G01X12582468Y1604922D01*
G01X12457465Y1444917D02*
G01X12582468Y1444917D01*
G01X12642527Y1605433D02*
G01X12767523Y1605433D01*
G01X12642527Y1445428D02*
G01X12767523Y1445428D01*
G01X12457465Y1444917D02*
G01X12457465Y1604922D01*
G01X12767523Y1236325D02*
G01X12767523Y1396330D01*
G01X12457465Y1395819D02*
G01X12582468Y1395819D01*
G01X12457465Y1235815D02*
G01X12582468Y1235815D01*
G01X12642527Y1396330D02*
G01X12767523Y1396330D01*
G01X12642527Y1236325D02*
G01X12767523Y1236325D01*
G01X12457465Y1235815D02*
G01X12457465Y1395819D01*
G01X10555027Y1254890D02*
G01X10395023Y1254890D01*
G01X10395533Y944833D02*
G01X10395533Y1069836D01*
G01X10555538Y944833D02*
G01X10555538Y1069836D01*
G01X10395023Y1129894D02*
G01X10395023Y1254890D01*
G01X10555027Y1129894D02*
G01X10555027Y1254890D01*
G01X10555538Y944833D02*
G01X10395533Y944833D01*
G01X11595441Y1254890D02*
G01X11435436Y1254890D01*
G01X11435947Y944833D02*
G01X11435947Y1069836D01*
G01X11595951Y944833D02*
G01X11595951Y1069836D01*
G01X11435436Y1129894D02*
G01X11435436Y1254890D01*
G01X11595441Y1129894D02*
G01X11595441Y1254890D01*
G01X11595951Y944833D02*
G01X11435947Y944833D01*
G01X4837853Y3618004D02*
G01X4677849Y3618004D01*
G01X4678359Y3307946D02*
G01X4678359Y3432950D01*
G01X4838364Y3307946D02*
G01X4838364Y3432950D01*
G01X4677849Y3493008D02*
G01X4677849Y3618004D01*
G01X4837853Y3493008D02*
G01X4837853Y3618004D01*
G01X4838364Y3307946D02*
G01X4678359Y3307946D01*
G01X9820618Y2179786D02*
G01X9660613Y2179786D01*
G01X9661124Y1869728D02*
G01X9661124Y1994731D01*
G01X9821128Y1869728D02*
G01X9821128Y1994731D01*
G01X9660613Y2054790D02*
G01X9660613Y2179786D01*
G01X9820618Y2054790D02*
G01X9820618Y2179786D01*
G01X9821128Y1869728D02*
G01X9661124Y1869728D01*
G54D19*
G01X5824601Y2196317D02*
G03X5850599Y2196427I12998J110D01*
G03X5824601Y2196537I-12999J0D01*
G54D12*
G01X5893222Y2176922D02*
G01X5893222Y2206282D01*
G01X5857583Y2141284D02*
G01X5893222Y2176922D01*
G01X5828224Y2141284D02*
G01X5857583Y2141284D01*
G01X5828224Y2671280D02*
G01X5893222Y2671280D01*
G01X5893222Y2606281D02*
G01X5893222Y2671280D01*
G01X5363226Y2606281D02*
G01X5363226Y2671280D01*
G01X5363226Y2671280D02*
G01X5428224Y2671280D01*
G01X5363226Y2141284D02*
G01X5428224Y2141284D01*
G01X5363226Y2141284D02*
G01X5363226Y2206282D01*
G01X11122740Y1811027D02*
G01X11122740Y2371027D01*
G01X10562740Y1811027D02*
G01X10562740Y2371027D01*
G01X10562740Y1811027D02*
G01X11122740Y1811027D01*
G01X10562740Y2371027D02*
G01X11122740Y2371027D01*
G01X11162740Y1581027D02*
G01X11232740Y1581027D01*
G01X11232740Y1581027D02*
G01X11352740Y1701027D01*
G01X11352740Y1701027D02*
G01X11352740Y1771027D01*
G01X11352740Y2411027D02*
G01X11352740Y2601027D01*
G01X11162740Y2601027D02*
G01X11352740Y2601027D01*
G01X10332740Y2411027D02*
G01X10332740Y2601027D01*
G01X10332740Y2601027D02*
G01X10522740Y2601027D01*
G01X10332740Y1581027D02*
G01X10522740Y1581027D01*
G01X10332740Y1581027D02*
G01X10332740Y1771027D01*
G54D19*
G01X7294701Y2196317D02*
G03X7320699Y2196427I12998J110D01*
G03X7294701Y2196537I-12999J0D01*
G54D12*
G01X7363322Y2176922D02*
G01X7363322Y2206282D01*
G01X7327684Y2141284D02*
G01X7363322Y2176922D01*
G01X7298324Y2141284D02*
G01X7327684Y2141284D01*
G01X7298324Y2671280D02*
G01X7363322Y2671280D01*
G01X7363322Y2606281D02*
G01X7363322Y2671280D01*
G01X6833326Y2606281D02*
G01X6833326Y2671280D01*
G01X6833326Y2671280D02*
G01X6898325Y2671280D01*
G01X6833326Y2141284D02*
G01X6898325Y2141284D01*
G01X6833326Y2141284D02*
G01X6833326Y2206282D01*
G01X11361643Y3960246D02*
G01X11361643Y3730246D01*
G01X11361643Y3960246D02*
G01X10721643Y3960246D01*
G01X10721643Y3960246D02*
G01X10721643Y3160246D01*
G01X11361643Y3160246D02*
G01X10721643Y3160246D01*
G01X11361643Y3430246D02*
G01X11361643Y3160246D01*
G01X11361643Y3430246D02*
G01X10721643Y3430246D01*
G01X11361643Y3730246D02*
G01X10721643Y3730246D01*
G01X11361643Y3730246D02*
G01X11361643Y3430246D01*
G01X10721643Y3730246D02*
G01X10721643Y3430246D01*
G54D19*
G01X8764601Y2196317D02*
G03X8790599Y2196427I12998J110D01*
G03X8764601Y2196537I-12999J0D01*
G54D12*
G01X8833222Y2176922D02*
G01X8833222Y2206282D01*
G01X8797583Y2141284D02*
G01X8833222Y2176922D01*
G01X8768224Y2141284D02*
G01X8797583Y2141284D01*
G01X8768224Y2671280D02*
G01X8833222Y2671280D01*
G01X8833222Y2606281D02*
G01X8833222Y2671280D01*
G01X8303226Y2606281D02*
G01X8303226Y2671280D01*
G01X8303226Y2671280D02*
G01X8368224Y2671280D01*
G01X8303226Y2141284D02*
G01X8368224Y2141284D01*
G01X8303226Y2141284D02*
G01X8303226Y2206282D01*
G01X3333300Y1757488D02*
G03X3449787Y1757488I58243J38829D01*
G01X3543944Y745817D02*
G01X3543944Y1757488D01*
G01X3239144Y745817D02*
G01X3543944Y745817D01*
G01X3449787Y1757488D02*
G01X3543944Y1757488D01*
G01X3239144Y745817D02*
G01X3239144Y1760317D01*
G01X3239144Y1760317D02*
G01X3330471Y1760317D01*
G54D14*
G01X1461500Y350988D02*
G01X1639340Y350988D01*
G01X1461500Y658825D02*
G01X1639340Y658825D01*
G54D13*
G01X3564959Y3678148D02*
G01X4074965Y3678148D01*
G01X4074940Y3678148D02*
G01X4074940Y3268142D01*
G01X4074940Y3268142D02*
G01X3564933Y3268142D01*
G01X3564959Y3553155D02*
G01X3564959Y3678148D01*
G01X3564959Y3393135D02*
G01X3564959Y3268142D01*
G01X3569963Y3553155D02*
G02X3569963Y3393135I-37529J-80010D01*
G54D12*
G01X11769855Y1409523D02*
G03X12169748Y1410564I199893J21041D01*
G01X12169855Y2129523D02*
G03X11769855Y2129523I-200000J-20000D01*
G01X12169855Y2129523D02*
G03X11769855Y2129523I-200000J-20000D01*
G01X11769855Y1409523D02*
G03X12169748Y1410564I199893J21041D01*
G01X11769855Y1409523D02*
G01X11769855Y2139523D01*
G01X12169855Y1409523D02*
G01X12169855Y2139523D01*
G01X11869855Y1759523D02*
G01X11869855Y1859523D01*
G01X11869855Y1859523D02*
G01X12069855Y1859523D01*
G01X12069855Y1659523D02*
G01X12069855Y1859523D01*
G01X11869855Y1659523D02*
G01X12069855Y1659523D01*
G01X11869855Y1659523D02*
G01X11869855Y1759523D01*
G01X11899855Y1619523D02*
G01X12039855Y1619523D01*
G01X11899855Y1899523D02*
G01X12039855Y1899523D01*
G01X11969855Y1559523D02*
G01X11969855Y1619523D01*
G01X11969855Y1899523D02*
G01X11969855Y1959523D01*
G01X12169855Y1409523D02*
G01X12169855Y2139523D01*
G01X11769855Y1409523D02*
G01X11769855Y2139523D01*
G54D17*
G01X11729855Y1159523D02*
G01X11809855Y1159523D01*
G01X11729855Y1159523D02*
G01X11729855Y2359523D01*
G01X11729855Y2359523D02*
G01X12209855Y2359523D01*
G01X12209855Y1159523D02*
G01X12209855Y2359523D01*
G01X11809855Y1159523D02*
G01X12209855Y1159523D01*
G54D12*
G01X3067032Y279503D02*
G01X3067032Y689510D01*
G01X3067032Y279503D02*
G01X3767031Y279503D01*
G01X3767031Y279503D02*
G01X3767031Y689510D01*
G01X3067032Y689510D02*
G01X3767031Y689510D01*
G01X3480544Y484506D02*
G01X3518644Y484506D01*
G01X3480544Y421006D02*
G01X3480544Y484506D01*
G01X3480544Y484506D02*
G01X3480544Y548006D01*
G01X3315444Y484506D02*
G01X3353544Y484506D01*
G01X3353544Y421006D02*
G01X3353544Y484506D01*
G01X3353544Y484506D02*
G01X3353544Y548006D01*
G01X3391644Y548006D02*
G01X3442444Y548006D01*
G01X3442444Y421006D02*
G01X3442444Y548006D01*
G01X3391644Y421006D02*
G01X3442444Y421006D01*
G01X3391644Y421006D02*
G01X3391644Y548006D01*
G01X1779916Y245496D02*
G01X1779916Y177497D01*
G01X1971923Y167490D02*
G01X1941928Y137495D01*
G01X1971923Y257500D02*
G01X1971923Y167490D01*
G01X1641921Y285498D02*
G01X1641921Y137507D01*
G01X1836922Y287502D02*
G01X1941928Y287502D01*
G01X1836922Y137495D02*
G01X1941928Y137495D01*
G01X1641921Y287502D02*
G01X1756922Y287502D01*
G01X1641921Y137495D02*
G01X1756922Y137495D01*
G01X1941928Y287502D02*
G01X1971923Y257500D01*
G01X1779916Y245496D02*
G01X1779916Y244610D01*
G01X1779916Y244610D02*
G01X1810323Y214203D01*
G01X1810323Y214203D02*
G01X1810323Y207904D01*
G01X1810323Y207904D02*
G01X1779916Y177497D01*
G01X1278059Y293695D02*
G01X1278059Y133690D01*
G01X1588117Y134200D02*
G01X1463113Y134200D01*
G01X1588117Y294205D02*
G01X1463113Y294205D01*
G01X1403055Y133690D02*
G01X1278059Y133690D01*
G01X1403055Y293695D02*
G01X1278059Y293695D01*
G01X1588117Y294205D02*
G01X1588117Y134200D01*
G54D13*
G01X360122Y137532D02*
G01X-486714Y137532D01*
G01X1143204Y137532D02*
G01X756108Y137532D01*
G01X360122Y1352668D02*
G01X-486714Y1352668D01*
G01X1143204Y1352668D02*
G01X756108Y1352668D01*
G01X1143204Y1352668D02*
G01X1143204Y137532D01*
G01X-486714Y1352668D02*
G01X-486714Y137532D01*
G01X12665088Y2268326D02*
G01X12720963Y2268326D01*
G01X12720963Y2268326D02*
G01X12723963Y2268326D01*
G01X12723963Y2268326D02*
G01X12851964Y2140325D01*
G01X12851964Y2140325D02*
G01X12851964Y1739325D01*
G01X12449963Y2268326D02*
G01X12508858Y2268326D01*
G01X12321975Y1739325D02*
G01X12321975Y2139327D01*
G01X12321975Y2139327D02*
G01X12321975Y2140338D01*
G01X12321975Y2140338D02*
G01X12449963Y2268326D01*
G01X12851971Y1739325D02*
G01X12660077Y1739325D01*
G01X12513849Y1739325D02*
G01X12321975Y1739325D01*
G01X12661961Y1794326D02*
G03X12668837Y2211742I-74994J210000D01*
G01X12511964Y2214326D02*
G03X12501197Y1798489I75004J-209999D01*
G36*
G01X12806962Y1979327D02*
G01X12371965Y1979327D01*
G01X12381962Y1939325D01*
G01X12396963Y1894326D01*
G01X12426963Y1859327D01*
G01X12461964Y1824326D01*
G01X12481964Y1809328D01*
G01X12506963Y1799325D01*
G01X12506963Y1944326D01*
G01X12661961Y1944326D01*
G01X12661961Y1794326D01*
G01X12691961Y1809328D01*
G01X12721964Y1824326D01*
G01X12741964Y1839325D01*
G01X12761961Y1869325D01*
G01X12776963Y1894326D01*
G01X12791964Y1919325D01*
G01X12801961Y1944326D01*
G01X12806962Y1979327D01*
G01X12806962Y1979327D01*
G37*
G54D15*
G01X4625760Y407170D02*
G01X4625506Y502166D01*
G01X4613060Y453906D02*
G01X4638460Y453906D01*
G01X4625760Y441206D02*
G01X4625760Y454160D01*
G01X4625760Y454160D02*
G01X4613060Y479306D01*
G01X4613060Y479306D02*
G01X4638460Y479306D01*
G01X4638460Y479306D02*
G01X4626014Y454160D01*
G01X4625760Y466606D02*
G01X4625760Y453652D01*
G01X4625760Y453652D02*
G01X4638460Y428506D01*
G01X4638460Y428506D02*
G01X4613060Y428506D01*
G01X4613060Y428506D02*
G01X4625506Y453652D01*
G54D14*
G01X4698404Y502166D02*
G01X4553116Y502166D01*
G01X4698404Y407170D02*
G01X4553116Y407170D01*
G01X4553116Y544076D02*
G01X4553116Y363736D01*
G01X4698404Y544076D02*
G01X4670464Y544076D01*
G01X4553116Y544076D02*
G01X4581056Y544076D01*
G01X4553116Y363736D02*
G01X4581056Y363736D01*
G01X4698404Y544076D02*
G01X4698404Y363736D01*
G01X4698404Y363736D02*
G01X4670464Y363736D01*
G01X6035537Y1278700D02*
G01X6035537Y1427199D01*
G01X5817016Y1427199D02*
G01X5817016Y1278700D01*
G01X5832256Y1263460D02*
G01X6020297Y1263460D01*
G01X6035537Y1760939D02*
G01X6035537Y1612441D01*
G01X5817016Y1612441D02*
G01X5817016Y1760939D01*
G01X5832256Y1776179D02*
G01X6020297Y1776179D01*
G01X5817016Y1278700D02*
G03X5832256Y1263460I15240J0D01*
G01X6020297Y1263460D02*
G03X6035537Y1278700I0J15240D01*
G01X5817016Y1760939D02*
G02X5832256Y1776179I15240J0D01*
G01X6020297Y1776179D02*
G02X6035537Y1760939I0J-15240D01*
G01X7606358Y1217499D02*
G01X7606358Y1365998D01*
G01X7387836Y1365998D02*
G01X7387836Y1217499D01*
G01X7403076Y1202259D02*
G01X7591118Y1202259D01*
G01X7606358Y1699739D02*
G01X7606358Y1551240D01*
G01X7387836Y1551240D02*
G01X7387836Y1699739D01*
G01X7403076Y1714979D02*
G01X7591118Y1714979D01*
G01X7387836Y1217499D02*
G03X7403076Y1202259I15240J0D01*
G01X7591118Y1202259D02*
G03X7606358Y1217499I0J15240D01*
G01X7387836Y1699739D02*
G02X7403076Y1714979I15240J0D01*
G01X7591118Y1714979D02*
G02X7606358Y1699739I0J-15240D01*
G01X9141478Y1278700D02*
G01X9141478Y1427199D01*
G01X8922956Y1427199D02*
G01X8922956Y1278700D01*
G01X8938196Y1263460D02*
G01X9126238Y1263460D01*
G01X9141478Y1760939D02*
G01X9141478Y1612441D01*
G01X8922956Y1612441D02*
G01X8922956Y1760939D01*
G01X8938196Y1776179D02*
G01X9126238Y1776179D01*
G01X8922956Y1278700D02*
G03X8938196Y1263460I15240J0D01*
G01X9126238Y1263460D02*
G03X9141478Y1278700I0J15240D01*
G01X8922956Y1760939D02*
G02X8938196Y1776179I15240J0D01*
G01X9126238Y1776179D02*
G02X9141478Y1760939I0J-15240D01*
G54D12*
G01X285610Y3142046D02*
G01X285610Y3210045D01*
G01X93604Y3220052D02*
G01X123599Y3250047D01*
G01X93604Y3130042D02*
G01X93604Y3220052D01*
G01X423606Y3102044D02*
G01X423606Y3250034D01*
G01X228605Y3100040D02*
G01X123599Y3100040D01*
G01X228605Y3250047D02*
G01X123599Y3250047D01*
G01X423606Y3100040D02*
G01X308605Y3100040D01*
G01X423606Y3250047D02*
G01X308605Y3250047D01*
G01X123599Y3100040D02*
G01X93604Y3130042D01*
G01X285610Y3142046D02*
G01X285610Y3142932D01*
G01X285610Y3142932D02*
G01X255203Y3173339D01*
G01X255203Y3173339D02*
G01X255203Y3179638D01*
G01X255203Y3179638D02*
G01X285610Y3210045D01*
G01X1482010Y3765906D02*
G01X1322005Y3765906D01*
G01X1322516Y3455848D02*
G01X1322516Y3580852D01*
G01X1482521Y3455848D02*
G01X1482521Y3580852D01*
G01X1322005Y3640910D02*
G01X1322005Y3765906D01*
G01X1482010Y3640910D02*
G01X1482010Y3765906D01*
G01X1482521Y3455848D02*
G01X1322516Y3455848D01*
G01X9758138Y2812375D02*
G03X9715352Y2772554I3810J-46990D01*
G01X9716228Y2686645D02*
G03X9758052Y2654212I48260J19050D01*
G01X10021028Y2780625D02*
G03X9979203Y2813059I-48260J-19050D01*
G01X9979117Y2654895D02*
G03X10021904Y2694717I-3810J46990D01*
G01X9758138Y2654895D02*
G01X9822908Y2654895D01*
G01X9758138Y2812375D02*
G01X9822908Y2812375D01*
G01X9716228Y2774275D02*
G01X9716228Y2686645D01*
G01X10021028Y2780625D02*
G01X10021028Y2692995D01*
G01X9914348Y2654895D02*
G01X9979118Y2654895D01*
G01X9914348Y2812375D02*
G01X9979118Y2812375D01*
G54D14*
G01X10153370Y2868523D02*
G01X9849089Y2868523D01*
G01X9849089Y2868523D02*
G01X9849089Y3873764D01*
G01X9849089Y3873764D02*
G01X10153370Y3873764D01*
G01X10153370Y3873764D02*
G01X10153370Y2868523D01*
G54D13*
G01X4816087Y2681431D02*
G01X4871962Y2681431D01*
G01X4871962Y2681431D02*
G01X4874961Y2681431D01*
G01X4874961Y2681431D02*
G01X5002962Y2553431D01*
G01X5002962Y2553431D02*
G01X5002962Y2152431D01*
G01X4600961Y2681431D02*
G01X4659856Y2681431D01*
G01X4472973Y2152431D02*
G01X4472973Y2552432D01*
G01X4472973Y2552432D02*
G01X4472973Y2553443D01*
G01X4472973Y2553443D02*
G01X4600961Y2681431D01*
G01X5002970Y2152431D02*
G01X4811075Y2152431D01*
G01X4664847Y2152431D02*
G01X4472973Y2152431D01*
G01X4812960Y2207432D02*
G03X4819836Y2624848I-74994J210000D01*
G01X4662963Y2627431D02*
G03X4652196Y2211595I75004J-209999D01*
G36*
G01X4957961Y2392433D02*
G01X4522963Y2392433D01*
G01X4532960Y2352430D01*
G01X4547962Y2307432D01*
G01X4577962Y2272433D01*
G01X4612963Y2237432D01*
G01X4632963Y2222433D01*
G01X4657961Y2212430D01*
G01X4657961Y2357431D01*
G01X4812960Y2357431D01*
G01X4812960Y2207432D01*
G01X4842960Y2222433D01*
G01X4872962Y2237432D01*
G01X4892962Y2252430D01*
G01X4912960Y2282430D01*
G01X4927961Y2307432D01*
G01X4942962Y2332430D01*
G01X4952960Y2357431D01*
G01X4957961Y2392433D01*
G01X4957961Y2392433D01*
G37*
G54D12*
G01X4230253Y223906D02*
G01X4230253Y343906D01*
G01X3950253Y343906D02*
G01X3950253Y683906D01*
G01X3950253Y223906D02*
G01X3950253Y343906D01*
G01X4230253Y343906D02*
G01X4230253Y683906D01*
G01X4210253Y223906D02*
G01X4230253Y223906D01*
G01X3950253Y223906D02*
G01X3970253Y223906D01*
G01X3950253Y513906D02*
G01X4230253Y513906D01*
G01X4030253Y393906D02*
G01X4160253Y393906D01*
G01X4090253Y463906D02*
G01X4160253Y393906D01*
G01X4030253Y463906D02*
G01X4150253Y463906D01*
G01X4020253Y393906D02*
G01X4090253Y463906D01*
G01X4020253Y393906D02*
G01X4030253Y393906D01*
G01X4090253Y373906D02*
G01X4090253Y483906D01*
G36*
G01X4200258Y693910D02*
G01X4200258Y603910D01*
G01X4240258Y603910D01*
G01X4240258Y693910D01*
G01X4200258Y693910D01*
G37*
G36*
G01X3950258Y693910D02*
G01X3950258Y603910D01*
G01X3990258Y603910D01*
G01X3990258Y693910D01*
G01X3950258Y693910D01*
G37*

G04 Circle Start*
G01X1518200Y1856300D02*
G03X2238200Y1856300I360000J0D01*
G03X1518200Y1856300I-360000J0D01*
G01X1348200Y1856300D02*
G03X2408200Y1856300I530000J0D01*
G03X1348200Y1856300I-530000J0D01*
G01X1764507Y3476300D02*
G03X2011893Y3476300I123693J0D01*
G03X1764507Y3476300I-123693J0D01*
G01X5422571Y3473145D02*
G03X5542571Y3473145I60000J0D01*
G03X5422571Y3473145I-60000J0D01*
G01X6672087Y3473145D02*
G03X6792087Y3473145I60000J0D01*
G03X6672087Y3473145I-60000J0D01*
G01X8390809Y3473145D02*
G03X8510809Y3473145I60000J0D01*
G03X8390809Y3473145I-60000J0D01*
G01X11192740Y1701027D02*
G03X11282183Y1701027I44721J0D01*
G03X11192740Y1701027I-44721J0D01*
G54D20*
G01X1405259Y671734D02*
G03X1435282Y671734I15011J0D01*
G03X1405259Y671734I-15011J0D01*
G54D13*
G01X3499935Y3223133D02*
G03X3533971Y3223133I17018J0D01*
G03X3499935Y3223133I-17018J0D01*
G54D20*
G01X10063129Y2926644D02*
G03X10093152Y2926644I15011J0D01*
G03X10063129Y2926644I-15011J0D01*
G01X10252918Y2850444D02*
G03X10282941Y2850444I15011J0D01*
G03X10252918Y2850444I-15011J0D01*
G04 Circle End*

M02*

