G04 Layer: BottomSilkscreenLayer*
G04 EasyEDA Pro v2.2.32.3, 2025-08-13 14:06:10*
G04 Gerber Generator version 0.3*
G04 Scale: 100 percent, Rotated: No, Reflected: No*
G04 Dimensions in millimeters*
G04 Leading zeros omitted, absolute positions, 3 integers and 5 decimals*
%FSLAX35Y35*%
%MOMM*%
%ADD10C,0.2*%
%ADD11C,0.11*%
G75*


G04 Text Start*
G54D10*
G01X4340156Y1091414D02*
G01X4275894Y1091414D01*
G01X4340156Y1091414D02*
G01X4340156Y1187934D01*
G01X4211632Y1139674D02*
G01X4179374Y1171932D01*
G01X4243636Y1171932D02*
G01X4211632Y1139674D01*
G01X4211632Y1091414D02*
G01X4211632Y1139674D01*
G01X4179374Y1171932D02*
G01X4179374Y1187934D01*
G01X4243636Y1171932D02*
G01X4243636Y1187934D01*
G01X4147116Y1139674D02*
G01X4082854Y1139674D01*
G01X4050596Y1091414D02*
G01X3986334Y1091414D01*
G01X4050596Y1091414D02*
G01X3986334Y1155676D01*
G01X3986334Y1155676D02*
G01X3986334Y1171932D01*
G01X4002336Y1187934D02*
G01X3986334Y1171932D01*
G01X4034594Y1187934D02*
G01X4002336Y1187934D01*
G01X4050596Y1171932D02*
G01X4034594Y1187934D01*
G01X3954076Y1139674D02*
G01X3889814Y1139674D01*
G01X3922072Y1187934D02*
G01X3889814Y1155676D01*
G01X3954076Y1155676D02*
G01X3922072Y1187934D01*
G01X3954076Y1091414D02*
G01X3954076Y1139674D01*
G01X3954076Y1139674D02*
G01X3954076Y1155676D01*
G01X3889814Y1091414D02*
G01X3889814Y1139674D01*
G01X3889814Y1139674D02*
G01X3889814Y1155676D01*
G01X3857556Y1091414D02*
G01X3825552Y1123672D01*
G01X3825552Y1123672D02*
G01X3793294Y1155676D01*
G01X3857556Y1155676D02*
G01X3825552Y1123672D01*
G01X3825552Y1123672D02*
G01X3793294Y1091414D01*
G01X3745034Y1091414D02*
G01X3745034Y1155676D01*
G01X3761036Y1155676D02*
G01X3745034Y1155676D01*
G01X3745034Y1187934D02*
G01X3745034Y1187934D01*
G01X3761036Y1091414D02*
G01X3745034Y1091414D01*
G01X3745034Y1091414D02*
G01X3729032Y1091414D01*
G01X3680772Y1091414D02*
G01X3632512Y1091414D01*
G01X3632512Y1091414D02*
G01X3616510Y1107416D01*
G01X3632512Y1123672D02*
G01X3616510Y1107416D01*
G01X3664770Y1123672D02*
G01X3632512Y1123672D01*
G01X3680772Y1139674D02*
G01X3664770Y1123672D01*
G01X3680772Y1139674D02*
G01X3664770Y1155676D01*
G01X3664770Y1155676D02*
G01X3616510Y1155676D01*
G01X3584252Y1139674D02*
G01X3519990Y1139674D01*
G01X3487732Y1139674D02*
G01X3439472Y1187934D01*
G01X3487732Y1139674D02*
G01X3439472Y1139674D01*
G01X3439472Y1139674D02*
G01X3423470Y1139674D01*
G01X3439472Y1091414D02*
G01X3439472Y1139674D01*
G01X3439472Y1139674D02*
G01X3439472Y1187934D01*
G01X3391212Y1091414D02*
G01X3391212Y1107416D01*
G01X3391212Y1091414D02*
G01X3375210Y1091414D01*
G01X3375210Y1091414D02*
G01X3375210Y1107416D01*
G01X3391212Y1107416D02*
G01X3375210Y1107416D01*
G01X3310948Y1091414D02*
G01X3310948Y1107416D01*
G01X3310948Y1107416D02*
G01X3246686Y1171932D01*
G01X3246686Y1171932D02*
G01X3246686Y1187934D01*
G01X3310948Y1187934D02*
G01X3246686Y1187934D01*
G01X3214428Y1139674D02*
G01X3150166Y1139674D01*
G01X3053646Y1123672D02*
G01X3053646Y1187934D01*
G01X3085904Y1091414D02*
G01X3053646Y1123672D01*
G01X3117908Y1123672D02*
G01X3085904Y1091414D01*
G01X3117908Y1123672D02*
G01X3117908Y1187934D01*
G01X2989384Y1139674D02*
G01X2973128Y1139674D01*
G01X3021388Y1107416D02*
G01X3005386Y1091414D01*
G01X3005386Y1091414D02*
G01X2973128Y1091414D01*
G01X2973128Y1091414D02*
G01X2957126Y1107416D01*
G01X2957126Y1107416D02*
G01X2957126Y1123672D01*
G01X2973128Y1139674D02*
G01X2957126Y1123672D01*
G01X2973128Y1139674D02*
G01X2957126Y1155676D01*
G01X2957126Y1155676D02*
G01X2957126Y1171932D01*
G01X2973128Y1187934D02*
G01X2957126Y1171932D01*
G01X3005386Y1187934D02*
G01X2973128Y1187934D01*
G01X3021388Y1171932D02*
G01X3005386Y1187934D01*
G54D11*
G01X9319086Y979422D02*
G01X9390460Y979422D01*
G01X9319086Y979422D02*
G01X9319086Y948942D01*
G01X9322388Y938528D01*
G01X9325944Y935226D01*
G01X9332548Y931924D01*
G01X9339406Y931924D01*
G01X9346264Y935226D01*
G01X9349820Y938528D01*
G01X9353122Y948942D01*
G01X9353122Y979422D01*
G01X9353122Y955546D02*
G01X9390460Y931924D01*
G01X9332548Y904492D02*
G01X9329246Y897888D01*
G01X9319086Y887474D01*
G01X9390460Y887474D01*
G01X9319086Y843024D02*
G01X9322388Y853438D01*
G01X9329246Y856740D01*
G01X9336104Y856740D01*
G01X9342962Y853438D01*
G01X9346264Y846580D01*
G01X9349820Y832864D01*
G01X9353122Y822704D01*
G01X9359980Y815846D01*
G01X9366838Y812544D01*
G01X9376998Y812544D01*
G01X9383856Y815846D01*
G01X9387158Y819148D01*
G01X9390460Y829562D01*
G01X9390460Y843024D01*
G01X9387158Y853438D01*
G01X9383856Y856740D01*
G01X9376998Y860042D01*
G01X9366838Y860042D01*
G01X9359980Y856740D01*
G01X9353122Y849882D01*
G01X9349820Y839722D01*
G01X9346264Y826006D01*
G01X9342962Y819148D01*
G01X9336104Y815846D01*
G01X9329246Y815846D01*
G01X9322388Y819148D01*
G01X9319086Y829562D01*
G01X9319086Y843024D01*
G01X9058881Y973625D02*
G01X9130255Y973625D01*
G01X9058881Y973625D02*
G01X9058881Y943145D01*
G01X9062183Y932731D01*
G01X9065739Y929429D01*
G01X9072343Y926127D01*
G01X9079201Y926127D01*
G01X9086059Y929429D01*
G01X9089615Y932731D01*
G01X9092917Y943145D01*
G01X9092917Y973625D01*
G01X9092917Y949749D02*
G01X9130255Y926127D01*
G01X9072343Y898695D02*
G01X9069041Y892091D01*
G01X9058881Y881677D01*
G01X9130255Y881677D01*
G01X9082757Y810049D02*
G01X9092917Y813351D01*
G01X9099775Y820209D01*
G01X9103077Y830369D01*
G01X9103077Y833925D01*
G01X9099775Y844085D01*
G01X9092917Y850943D01*
G01X9082757Y854245D01*
G01X9079201Y854245D01*
G01X9069041Y850943D01*
G01X9062183Y844085D01*
G01X9058881Y833925D01*
G01X9058881Y830369D01*
G01X9062183Y820209D01*
G01X9069041Y813351D01*
G01X9082757Y810049D01*
G01X9099775Y810049D01*
G01X9116793Y813351D01*
G01X9126953Y820209D01*
G01X9130255Y830369D01*
G01X9130255Y837227D01*
G01X9126953Y847641D01*
G01X9120095Y850943D01*
G01X8803877Y978725D02*
G01X8875251Y978725D01*
G01X8803877Y978725D02*
G01X8803877Y948245D01*
G01X8807179Y937831D01*
G01X8810735Y934529D01*
G01X8817339Y931227D01*
G01X8824197Y931227D01*
G01X8831055Y934529D01*
G01X8834611Y937831D01*
G01X8837913Y948245D01*
G01X8837913Y978725D01*
G01X8837913Y954849D02*
G01X8875251Y931227D01*
G01X8820895Y900493D02*
G01X8817339Y900493D01*
G01X8810735Y897191D01*
G01X8807179Y893635D01*
G01X8803877Y886777D01*
G01X8803877Y873315D01*
G01X8807179Y866457D01*
G01X8810735Y862901D01*
G01X8817339Y859599D01*
G01X8824197Y859599D01*
G01X8831055Y862901D01*
G01X8841215Y869759D01*
G01X8875251Y903795D01*
G01X8875251Y856297D01*
G01X8803877Y794829D02*
G01X8851629Y828865D01*
G01X8851629Y777811D01*
G01X8803877Y794829D02*
G01X8875251Y794829D01*
G01X8528474Y963425D02*
G01X8599848Y963425D01*
G01X8528474Y963425D02*
G01X8528474Y932945D01*
G01X8531776Y922531D01*
G01X8535332Y919229D01*
G01X8541936Y915927D01*
G01X8548794Y915927D01*
G01X8555652Y919229D01*
G01X8559208Y922531D01*
G01X8562510Y932945D01*
G01X8562510Y963425D01*
G01X8562510Y939549D02*
G01X8599848Y915927D01*
G01X8545492Y885193D02*
G01X8541936Y885193D01*
G01X8535332Y881891D01*
G01X8531776Y878335D01*
G01X8528474Y871477D01*
G01X8528474Y858015D01*
G01X8531776Y851157D01*
G01X8535332Y847601D01*
G01X8541936Y844299D01*
G01X8548794Y844299D01*
G01X8555652Y847601D01*
G01X8565812Y854459D01*
G01X8599848Y888495D01*
G01X8599848Y840997D01*
G01X8538634Y772671D02*
G01X8531776Y776227D01*
G01X8528474Y786387D01*
G01X8528474Y793245D01*
G01X8531776Y803405D01*
G01X8541936Y810263D01*
G01X8559208Y813565D01*
G01X8576226Y813565D01*
G01X8589688Y810263D01*
G01X8596546Y803405D01*
G01X8599848Y793245D01*
G01X8599848Y789689D01*
G01X8596546Y779529D01*
G01X8589688Y772671D01*
G01X8579528Y769369D01*
G01X8576226Y769369D01*
G01X8565812Y772671D01*
G01X8559208Y779529D01*
G01X8555652Y789689D01*
G01X8555652Y793245D01*
G01X8559208Y803405D01*
G01X8565812Y810263D01*
G01X8576226Y813565D01*
G01X8003167Y963425D02*
G01X8074541Y963425D01*
G01X8003167Y963425D02*
G01X8003167Y932945D01*
G01X8006469Y922531D01*
G01X8010025Y919229D01*
G01X8016629Y915927D01*
G01X8023487Y915927D01*
G01X8030345Y919229D01*
G01X8033901Y922531D01*
G01X8037203Y932945D01*
G01X8037203Y963425D01*
G01X8037203Y939549D02*
G01X8074541Y915927D01*
G01X8020185Y885193D02*
G01X8016629Y885193D01*
G01X8010025Y881891D01*
G01X8006469Y878335D01*
G01X8003167Y871477D01*
G01X8003167Y858015D01*
G01X8006469Y851157D01*
G01X8010025Y847601D01*
G01X8016629Y844299D01*
G01X8023487Y844299D01*
G01X8030345Y847601D01*
G01X8040505Y854459D01*
G01X8074541Y888495D01*
G01X8074541Y840997D01*
G01X8003167Y806961D02*
G01X8003167Y769369D01*
G01X8030345Y789689D01*
G01X8030345Y779529D01*
G01X8033901Y772671D01*
G01X8037203Y769369D01*
G01X8047363Y766067D01*
G01X8054221Y766067D01*
G01X8064381Y769369D01*
G01X8071239Y776227D01*
G01X8074541Y786387D01*
G01X8074541Y796547D01*
G01X8071239Y806961D01*
G01X8067937Y810263D01*
G01X8061079Y813565D01*
G01X7768564Y963425D02*
G01X7839938Y963425D01*
G01X7768564Y963425D02*
G01X7768564Y932945D01*
G01X7771866Y922531D01*
G01X7775422Y919229D01*
G01X7782026Y915927D01*
G01X7788884Y915927D01*
G01X7795742Y919229D01*
G01X7799298Y922531D01*
G01X7802600Y932945D01*
G01X7802600Y963425D01*
G01X7802600Y939549D02*
G01X7839938Y915927D01*
G01X7785582Y885193D02*
G01X7782026Y885193D01*
G01X7775422Y881891D01*
G01X7771866Y878335D01*
G01X7768564Y871477D01*
G01X7768564Y858015D01*
G01X7771866Y851157D01*
G01X7775422Y847601D01*
G01X7782026Y844299D01*
G01X7788884Y844299D01*
G01X7795742Y847601D01*
G01X7805902Y854459D01*
G01X7839938Y888495D01*
G01X7839938Y840997D01*
G01X7792440Y769369D02*
G01X7802600Y772671D01*
G01X7809458Y779529D01*
G01X7812760Y789689D01*
G01X7812760Y793245D01*
G01X7809458Y803405D01*
G01X7802600Y810263D01*
G01X7792440Y813565D01*
G01X7788884Y813565D01*
G01X7778724Y810263D01*
G01X7771866Y803405D01*
G01X7768564Y793245D01*
G01X7768564Y789689D01*
G01X7771866Y779529D01*
G01X7778724Y772671D01*
G01X7792440Y769369D01*
G01X7809458Y769369D01*
G01X7826476Y772671D01*
G01X7836636Y779529D01*
G01X7839938Y789689D01*
G01X7839938Y796547D01*
G01X7836636Y806961D01*
G01X7829778Y810263D01*
G01X7498260Y958324D02*
G01X7569634Y958324D01*
G01X7498260Y958324D02*
G01X7498260Y927844D01*
G01X7501562Y917430D01*
G01X7505118Y914128D01*
G01X7511722Y910826D01*
G01X7518580Y910826D01*
G01X7525438Y914128D01*
G01X7528994Y917430D01*
G01X7532296Y927844D01*
G01X7532296Y958324D01*
G01X7532296Y934448D02*
G01X7569634Y910826D01*
G01X7498260Y876790D02*
G01X7498260Y839198D01*
G01X7525438Y859518D01*
G01X7525438Y849358D01*
G01X7528994Y842500D01*
G01X7532296Y839198D01*
G01X7542456Y835896D01*
G01X7549314Y835896D01*
G01X7559474Y839198D01*
G01X7566332Y846056D01*
G01X7569634Y856216D01*
G01X7569634Y866376D01*
G01X7566332Y876790D01*
G01X7563030Y880092D01*
G01X7556172Y883394D01*
G01X7511722Y808464D02*
G01X7508420Y801860D01*
G01X7498260Y791446D01*
G01X7569634Y791446D01*
G01X7227957Y937924D02*
G01X7299331Y937924D01*
G01X7227957Y937924D02*
G01X7227957Y907444D01*
G01X7231259Y897030D01*
G01X7234815Y893728D01*
G01X7241419Y890426D01*
G01X7248277Y890426D01*
G01X7255135Y893728D01*
G01X7258691Y897030D01*
G01X7261993Y907444D01*
G01X7261993Y937924D01*
G01X7261993Y914048D02*
G01X7299331Y890426D01*
G01X7227957Y856390D02*
G01X7227957Y818798D01*
G01X7255135Y839118D01*
G01X7255135Y828958D01*
G01X7258691Y822100D01*
G01X7261993Y818798D01*
G01X7272153Y815496D01*
G01X7279011Y815496D01*
G01X7289171Y818798D01*
G01X7296029Y825656D01*
G01X7299331Y835816D01*
G01X7299331Y845976D01*
G01X7296029Y856390D01*
G01X7292727Y859692D01*
G01X7285869Y862994D01*
G01X7244975Y784762D02*
G01X7241419Y784762D01*
G01X7234815Y781460D01*
G01X7231259Y777904D01*
G01X7227957Y771046D01*
G01X7227957Y757584D01*
G01X7231259Y750726D01*
G01X7234815Y747170D01*
G01X7241419Y743868D01*
G01X7248277Y743868D01*
G01X7255135Y747170D01*
G01X7265295Y754028D01*
G01X7299331Y788064D01*
G01X7299331Y740566D01*
G01X6661850Y973625D02*
G01X6733224Y973625D01*
G01X6661850Y973625D02*
G01X6661850Y943145D01*
G01X6665152Y932731D01*
G01X6668708Y929429D01*
G01X6675312Y926127D01*
G01X6682170Y926127D01*
G01X6689028Y929429D01*
G01X6692584Y932731D01*
G01X6695886Y943145D01*
G01X6695886Y973625D01*
G01X6695886Y949749D02*
G01X6733224Y926127D01*
G01X6678868Y895393D02*
G01X6675312Y895393D01*
G01X6668708Y892091D01*
G01X6665152Y888535D01*
G01X6661850Y881677D01*
G01X6661850Y868215D01*
G01X6665152Y861357D01*
G01X6668708Y857801D01*
G01X6675312Y854499D01*
G01X6682170Y854499D01*
G01X6689028Y857801D01*
G01X6699188Y864659D01*
G01X6733224Y898695D01*
G01X6733224Y851197D01*
G01X6675312Y823765D02*
G01X6672010Y817161D01*
G01X6661850Y806747D01*
G01X6733224Y806747D01*
G01X6432347Y958324D02*
G01X6503721Y958324D01*
G01X6432347Y958324D02*
G01X6432347Y927844D01*
G01X6435649Y917430D01*
G01X6439205Y914128D01*
G01X6445809Y910826D01*
G01X6452667Y910826D01*
G01X6459525Y914128D01*
G01X6463081Y917430D01*
G01X6466383Y927844D01*
G01X6466383Y958324D01*
G01X6466383Y934448D02*
G01X6503721Y910826D01*
G01X6449365Y880092D02*
G01X6445809Y880092D01*
G01X6439205Y876790D01*
G01X6435649Y873234D01*
G01X6432347Y866376D01*
G01X6432347Y852914D01*
G01X6435649Y846056D01*
G01X6439205Y842500D01*
G01X6445809Y839198D01*
G01X6452667Y839198D01*
G01X6459525Y842500D01*
G01X6469685Y849358D01*
G01X6503721Y883394D01*
G01X6503721Y835896D01*
G01X6449365Y805162D02*
G01X6445809Y805162D01*
G01X6439205Y801860D01*
G01X6435649Y798304D01*
G01X6432347Y791446D01*
G01X6432347Y777984D01*
G01X6435649Y771126D01*
G01X6439205Y767570D01*
G01X6445809Y764268D01*
G01X6452667Y764268D01*
G01X6459525Y767570D01*
G01X6469685Y774428D01*
G01X6503721Y808464D01*
G01X6503721Y760966D01*
G01X6151843Y958324D02*
G01X6223217Y958324D01*
G01X6151843Y958324D02*
G01X6151843Y927844D01*
G01X6155145Y917430D01*
G01X6158701Y914128D01*
G01X6165305Y910826D01*
G01X6172163Y910826D01*
G01X6179021Y914128D01*
G01X6182577Y917430D01*
G01X6185879Y927844D01*
G01X6185879Y958324D01*
G01X6185879Y934448D02*
G01X6223217Y910826D01*
G01X6168861Y880092D02*
G01X6165305Y880092D01*
G01X6158701Y876790D01*
G01X6155145Y873234D01*
G01X6151843Y866376D01*
G01X6151843Y852914D01*
G01X6155145Y846056D01*
G01X6158701Y842500D01*
G01X6165305Y839198D01*
G01X6172163Y839198D01*
G01X6179021Y842500D01*
G01X6189181Y849358D01*
G01X6223217Y883394D01*
G01X6223217Y835896D01*
G01X6151843Y791446D02*
G01X6155145Y801860D01*
G01X6162003Y805162D01*
G01X6168861Y805162D01*
G01X6175719Y801860D01*
G01X6179021Y795002D01*
G01X6182577Y781286D01*
G01X6185879Y771126D01*
G01X6192737Y764268D01*
G01X6199595Y760966D01*
G01X6209755Y760966D01*
G01X6216613Y764268D01*
G01X6219915Y767570D01*
G01X6223217Y777984D01*
G01X6223217Y791446D01*
G01X6219915Y801860D01*
G01X6216613Y805162D01*
G01X6209755Y808464D01*
G01X6199595Y808464D01*
G01X6192737Y805162D01*
G01X6185879Y798304D01*
G01X6182577Y788144D01*
G01X6179021Y774428D01*
G01X6175719Y767570D01*
G01X6168861Y764268D01*
G01X6162003Y764268D01*
G01X6155145Y767570D01*
G01X6151843Y777984D01*
G01X6151843Y791446D01*
G01X5871339Y958324D02*
G01X5942713Y958324D01*
G01X5871339Y958324D02*
G01X5871339Y927844D01*
G01X5874641Y917430D01*
G01X5878197Y914128D01*
G01X5884801Y910826D01*
G01X5891659Y910826D01*
G01X5898517Y914128D01*
G01X5902073Y917430D01*
G01X5905375Y927844D01*
G01X5905375Y958324D01*
G01X5905375Y934448D02*
G01X5942713Y910826D01*
G01X5871339Y876790D02*
G01X5871339Y839198D01*
G01X5898517Y859518D01*
G01X5898517Y849358D01*
G01X5902073Y842500D01*
G01X5905375Y839198D01*
G01X5915535Y835896D01*
G01X5922393Y835896D01*
G01X5932553Y839198D01*
G01X5939411Y846056D01*
G01X5942713Y856216D01*
G01X5942713Y866376D01*
G01X5939411Y876790D01*
G01X5936109Y880092D01*
G01X5929251Y883394D01*
G01X5871339Y788144D02*
G01X5874641Y798304D01*
G01X5884801Y805162D01*
G01X5902073Y808464D01*
G01X5912233Y808464D01*
G01X5929251Y805162D01*
G01X5939411Y798304D01*
G01X5942713Y788144D01*
G01X5942713Y781286D01*
G01X5939411Y771126D01*
G01X5929251Y764268D01*
G01X5912233Y760966D01*
G01X5902073Y760966D01*
G01X5884801Y764268D01*
G01X5874641Y771126D01*
G01X5871339Y781286D01*
G01X5871339Y788144D01*
G54D10*
G01X3799549Y1003630D02*
G01X3783547Y1019632D01*
G01X3799549Y939114D02*
G01X3799549Y1003630D01*
G01X3799549Y939114D02*
G01X3783547Y923112D01*
G01X3783547Y923112D02*
G01X3751289Y923112D01*
G01X3751289Y923112D02*
G01X3735287Y939114D01*
G01X3735287Y939114D02*
G01X3735287Y1003630D01*
G01X3751289Y1019632D02*
G01X3735287Y1003630D01*
G01X3783547Y1019632D02*
G01X3751289Y1019632D01*
G01X3654769Y971372D02*
G01X3638767Y955370D01*
G01X3638767Y939114D02*
G01X3638767Y955370D01*
G01X3654769Y923112D02*
G01X3638767Y939114D01*
G01X3687027Y923112D02*
G01X3654769Y923112D01*
G01X3703029Y939114D02*
G01X3687027Y923112D01*
G01X3703029Y939114D02*
G01X3703029Y955370D01*
G01X3703029Y955370D02*
G01X3687027Y971372D01*
G01X3703029Y1003630D02*
G01X3687027Y1019632D01*
G01X3703029Y987374D02*
G01X3703029Y1003630D01*
G01X3703029Y987374D02*
G01X3687027Y971372D01*
G01X3687027Y971372D02*
G01X3654769Y971372D01*
G01X3654769Y971372D02*
G01X3638767Y987374D01*
G01X3638767Y987374D02*
G01X3638767Y1003630D01*
G01X3654769Y1019632D02*
G01X3638767Y1003630D01*
G01X3687027Y1019632D02*
G01X3654769Y1019632D01*
G01X3590507Y923112D02*
G01X3590507Y1019632D01*
G01X3606509Y1003630D02*
G01X3590507Y1019632D01*
G01X3606509Y923112D02*
G01X3590507Y923112D01*
G01X3590507Y923112D02*
G01X3574505Y923112D01*
G01X3493987Y971372D02*
G01X3477985Y971372D01*
G01X3526245Y939114D02*
G01X3510243Y923112D01*
G01X3510243Y923112D02*
G01X3477985Y923112D01*
G01X3477985Y923112D02*
G01X3461983Y939114D01*
G01X3461983Y939114D02*
G01X3461983Y955370D01*
G01X3477985Y971372D02*
G01X3461983Y955370D01*
G01X3477985Y971372D02*
G01X3461983Y987374D01*
G01X3461983Y987374D02*
G01X3461983Y1003630D01*
G01X3477985Y1019632D02*
G01X3461983Y1003630D01*
G01X3510243Y1019632D02*
G01X3477985Y1019632D01*
G01X3526245Y1003630D02*
G01X3510243Y1019632D01*
G04 Text End*

G04 PolygonModel Start*
G01X6810989Y426404D02*
G01X6810989Y561904D01*
G01X6810989Y90904D02*
G01X7050989Y90904D01*
G01X6810989Y561904D02*
G01X7050989Y561904D01*
G01X7050989Y426404D02*
G01X7050989Y561904D01*
G01X7050989Y90904D02*
G01X7050989Y226404D01*
G01X6810989Y90904D02*
G01X6810989Y226404D01*
G01X6498185Y426404D02*
G01X6498185Y561904D01*
G01X6498185Y90904D02*
G01X6738185Y90904D01*
G01X6498185Y561904D02*
G01X6738185Y561904D01*
G01X6738185Y426404D02*
G01X6738185Y561904D01*
G01X6738185Y90904D02*
G01X6738185Y226404D01*
G01X6498185Y90904D02*
G01X6498185Y226404D01*
G01X6185381Y426404D02*
G01X6185381Y561904D01*
G01X6185381Y90904D02*
G01X6425381Y90904D01*
G01X6185381Y561904D02*
G01X6425381Y561904D01*
G01X6425381Y426404D02*
G01X6425381Y561904D01*
G01X6425381Y90904D02*
G01X6425381Y226404D01*
G01X6185381Y90904D02*
G01X6185381Y226404D01*
G01X5872577Y426404D02*
G01X5872577Y561904D01*
G01X5872577Y90904D02*
G01X6112577Y90904D01*
G01X5872577Y561904D02*
G01X6112577Y561904D01*
G01X6112577Y426404D02*
G01X6112577Y561904D01*
G01X6112577Y90904D02*
G01X6112577Y226404D01*
G01X5872577Y90904D02*
G01X5872577Y226404D01*
G01X8075806Y436604D02*
G01X8075806Y572105D01*
G01X8075806Y101104D02*
G01X8315806Y101104D01*
G01X8075806Y572105D02*
G01X8315806Y572105D01*
G01X8315806Y436604D02*
G01X8315806Y572105D01*
G01X8315806Y101104D02*
G01X8315806Y236605D01*
G01X8075806Y101104D02*
G01X8075806Y236605D01*
G01X7781702Y436604D02*
G01X7781702Y572105D01*
G01X7781702Y101104D02*
G01X8021702Y101104D01*
G01X7781702Y572105D02*
G01X8021702Y572105D01*
G01X8021702Y436604D02*
G01X8021702Y572105D01*
G01X8021702Y101104D02*
G01X8021702Y236605D01*
G01X7781702Y101104D02*
G01X7781702Y236605D01*
G01X7487598Y436604D02*
G01X7487598Y572105D01*
G01X7487598Y101104D02*
G01X7727598Y101104D01*
G01X7487598Y572105D02*
G01X7727598Y572105D01*
G01X7727598Y436604D02*
G01X7727598Y572105D01*
G01X7727598Y101104D02*
G01X7727598Y236605D01*
G01X7487598Y101104D02*
G01X7487598Y236605D01*
G01X7193494Y436604D02*
G01X7193494Y572105D01*
G01X7193494Y101104D02*
G01X7433494Y101104D01*
G01X7193494Y572105D02*
G01X7433494Y572105D01*
G01X7433494Y436604D02*
G01X7433494Y572105D01*
G01X7433494Y101104D02*
G01X7433494Y236605D01*
G01X7193494Y101104D02*
G01X7193494Y236605D01*
G01X9432423Y436604D02*
G01X9432423Y572105D01*
G01X9432423Y101104D02*
G01X9672423Y101104D01*
G01X9432423Y572105D02*
G01X9672423Y572105D01*
G01X9672423Y436604D02*
G01X9672423Y572105D01*
G01X9672423Y101104D02*
G01X9672423Y236605D01*
G01X9432423Y101104D02*
G01X9432423Y236605D01*
G01X9133219Y436604D02*
G01X9133219Y572105D01*
G01X9133219Y101104D02*
G01X9373220Y101104D01*
G01X9133219Y572105D02*
G01X9373220Y572105D01*
G01X9373220Y436604D02*
G01X9373220Y572105D01*
G01X9373220Y101104D02*
G01X9373220Y236605D01*
G01X9133219Y101104D02*
G01X9133219Y236605D01*
G01X8834016Y436604D02*
G01X8834016Y572105D01*
G01X8834016Y101104D02*
G01X9074016Y101104D01*
G01X8834016Y572105D02*
G01X9074016Y572105D01*
G01X9074016Y436604D02*
G01X9074016Y572105D01*
G01X9074016Y101104D02*
G01X9074016Y236605D01*
G01X8834016Y101104D02*
G01X8834016Y236605D01*
G01X8534812Y436604D02*
G01X8534812Y572105D01*
G01X8534812Y101104D02*
G01X8774812Y101104D01*
G01X8534812Y572105D02*
G01X8774812Y572105D01*
G01X8774812Y436604D02*
G01X8774812Y572105D01*
G01X8774812Y101104D02*
G01X8774812Y236605D01*
G01X8534812Y101104D02*
G01X8534812Y236605D01*

M02*

