G04 Layer: TopPasteMaskLayer*
G04 EasyEDA Pro v2.2.32.3, 2025-08-13 14:06:10*
G04 Gerber Generator version 0.3*
G04 Scale: 100 percent, Rotated: No, Reflected: No*
G04 Dimensions in millimeters*
G04 Leading zeros omitted, absolute positions, 3 integers and 5 decimals*
%FSLAX35Y35*%
%MOMM*%
%ADD10R,0.889X0.889*%
%ADD11R,0.889X0.889*%
%ADD12R,0.889X0.889*%
%ADD13R,0.889X0.889*%
%ADD14R,1.0X2.99999*%
%ADD15R,1.1X2.49999*%
%ADD16R,1.0X2.99999*%
%ADD17R,0.89992X1.0*%
%ADD18R,0.49022X0.98552*%
%ADD19R,2.0046X2.0*%
%ADD20R,2.0X2.0*%
%ADD21R,0.49022X0.98552*%
%ADD22R,1.0X0.89992*%
%ADD23R,2.0X2.0*%
%ADD24R,0.8X1.5*%
%ADD25R,2.0X2.2*%
%ADD26R,1.0X0.8*%
%ADD27R,1.10002X1.0*%
%ADD28R,1.0X1.10002*%
%ADD29R,1.10002X1.0*%
%ADD30R,1.4X1.0*%
%ADD31R,1.4X1.0*%
%ADD32R,1.4X1.6*%
%ADD33R,1.4X1.2*%
%ADD34O,0.89574X0.28001*%
%ADD35O,0.28001X0.89574*%
%ADD36O,0.89572X0.28001*%
%ADD37R,3.50002X3.50002*%
%ADD38O,1.8X0.3*%
%ADD39O,0.3X1.8*%
%ADD40R,1.1X1.6*%
%ADD41R,1.1X1.6*%
%ADD42R,3.6X2.0*%
%ADD43O,2.0X0.6*%
%ADD44R,1.07201X0.532*%
%ADD45R,0.6X1.2*%
%ADD46R,3.29999X2.4*%
%ADD47R,1.5X3.0*%
%ADD48R,2.50002X1.0*%
%ADD49R,2.49999X1.0*%
%ADD50R,0.89992X1.0*%
%ADD51R,1.0X1.10002*%
%ADD52R,1.1X2.49999*%
%ADD53O,1.97099X0.60201*%
%ADD54R,2.0X2.0*%
G75*


G04 PolygonModel Start*
G36*
G01X3257242Y2764336D02*
G01X3257242Y2801362D01*
G01X3267242Y2811362D01*
G01X3297732Y2811362D01*
G01X3307732Y2821362D01*
G01X3307732Y2860112D01*
G01X3297732Y2870112D01*
G01X3267242Y2870112D01*
G01X3257242Y2880112D01*
G01X3257242Y2917137D01*
G01X3267242Y2927137D01*
G01X3395741Y2927137D01*
G01X3405741Y2917137D01*
G01X3405741Y2764336D01*
G01X3395741Y2754336D01*
G01X3267242Y2754336D01*
G01X3257242Y2764336D01*
G37*
G36*
G01X3087240Y2764336D02*
G01X3087240Y2801362D01*
G01X3077240Y2811362D01*
G01X3046750Y2811362D01*
G01X3036750Y2821362D01*
G01X3036750Y2860112D01*
G01X3046750Y2870112D01*
G01X3077240Y2870112D01*
G01X3087240Y2880112D01*
G01X3087240Y2917137D01*
G01X3077240Y2927137D01*
G01X2948741Y2927137D01*
G01X2938741Y2917137D01*
G01X2938741Y2764336D01*
G01X2948741Y2754336D01*
G01X3077240Y2754336D01*
G01X3087240Y2764336D01*
G37*
G36*
G01X5849876Y1434819D02*
G01X5886902Y1434819D01*
G01X5896902Y1424819D01*
G01X5896902Y1394328D01*
G01X5906902Y1384328D01*
G01X5945652Y1384328D01*
G01X5955652Y1394328D01*
G01X5955652Y1424819D01*
G01X5965652Y1434819D01*
G01X6002677Y1434819D01*
G01X6012677Y1424819D01*
G01X6012677Y1296320D01*
G01X6002677Y1286320D01*
G01X5849876Y1286320D01*
G01X5839876Y1296320D01*
G01X5839876Y1424819D01*
G01X5849876Y1434819D01*
G37*
G36*
G01X5849876Y1604821D02*
G01X5886902Y1604821D01*
G01X5896902Y1614821D01*
G01X5896902Y1645311D01*
G01X5906902Y1655311D01*
G01X5945652Y1655311D01*
G01X5955652Y1645311D01*
G01X5955652Y1614821D01*
G01X5965652Y1604821D01*
G01X6002677Y1604821D01*
G01X6012677Y1614821D01*
G01X6012677Y1743319D01*
G01X6002677Y1753319D01*
G01X5849876Y1753319D01*
G01X5839876Y1743319D01*
G01X5839876Y1614821D01*
G01X5849876Y1604821D01*
G37*
G36*
G01X7420696Y1373618D02*
G01X7457722Y1373618D01*
G01X7467722Y1363618D01*
G01X7467722Y1333128D01*
G01X7477722Y1323128D01*
G01X7516472Y1323128D01*
G01X7526472Y1333128D01*
G01X7526472Y1363618D01*
G01X7536472Y1373618D01*
G01X7573498Y1373618D01*
G01X7583498Y1363618D01*
G01X7583498Y1235119D01*
G01X7573498Y1225119D01*
G01X7420696Y1225119D01*
G01X7410696Y1235119D01*
G01X7410696Y1363618D01*
G01X7420696Y1373618D01*
G37*
G36*
G01X7420696Y1543620D02*
G01X7457722Y1543620D01*
G01X7467722Y1553620D01*
G01X7467722Y1584110D01*
G01X7477722Y1594110D01*
G01X7516472Y1594110D01*
G01X7526472Y1584110D01*
G01X7526472Y1553620D01*
G01X7536472Y1543620D01*
G01X7573498Y1543620D01*
G01X7583498Y1553620D01*
G01X7583498Y1682119D01*
G01X7573498Y1692119D01*
G01X7420696Y1692119D01*
G01X7410696Y1682119D01*
G01X7410696Y1553620D01*
G01X7420696Y1543620D01*
G37*
G36*
G01X8955816Y1434819D02*
G01X8992842Y1434819D01*
G01X9002842Y1424819D01*
G01X9002842Y1394328D01*
G01X9012842Y1384328D01*
G01X9051592Y1384328D01*
G01X9061592Y1394328D01*
G01X9061592Y1424819D01*
G01X9071592Y1434819D01*
G01X9108618Y1434819D01*
G01X9118618Y1424819D01*
G01X9118618Y1296320D01*
G01X9108618Y1286320D01*
G01X8955816Y1286320D01*
G01X8945816Y1296320D01*
G01X8945816Y1424819D01*
G01X8955816Y1434819D01*
G37*
G36*
G01X8955816Y1604821D02*
G01X8992842Y1604821D01*
G01X9002842Y1614821D01*
G01X9002842Y1645311D01*
G01X9012842Y1655311D01*
G01X9051592Y1655311D01*
G01X9061592Y1645311D01*
G01X9061592Y1614821D01*
G01X9071592Y1604821D01*
G01X9108618Y1604821D01*
G01X9118618Y1614821D01*
G01X9118618Y1743319D01*
G01X9108618Y1753319D01*
G01X8955816Y1753319D01*
G01X8945816Y1743319D01*
G01X8945816Y1614821D01*
G01X8955816Y1604821D01*
G37*

G04 Pad Start*
G54D10*
G01X6251712Y2315430D03*
G01X6406652Y2315430D03*
G01X6251712Y2506683D03*
G01X6406652Y2506683D03*
G54D11*
G01X10042030Y1964494D03*
G01X10042030Y1809554D03*
G54D10*
G01X12126988Y2534733D03*
G01X12281928Y2534733D03*
G01X11979086Y963912D03*
G01X12134026Y963912D03*
G54D12*
G01X11695420Y3172241D03*
G01X11540480Y3172241D03*
G54D11*
G01X11888254Y2709104D03*
G01X11888254Y2554164D03*
G54D13*
G01X10052230Y2283861D03*
G01X10052230Y2438801D03*
G54D10*
G01X6251712Y2697935D03*
G01X6406652Y2697935D03*
G54D14*
G01X4880763Y1825319D03*
G01X4880763Y1265321D03*
G54D10*
G01X7684830Y2315430D03*
G01X7839770Y2315430D03*
G01X7684830Y2506683D03*
G01X7839770Y2506683D03*
G01X7684830Y2697935D03*
G01X7839770Y2697935D03*
G54D11*
G01X2412331Y3657716D03*
G01X2412331Y3502776D03*
G54D14*
G01X6528084Y1825319D03*
G01X6528084Y1265321D03*
G54D15*
G01X11714841Y3421336D03*
G01X11714841Y3851358D03*
G54D10*
G01X9179150Y2315430D03*
G01X9334090Y2315430D03*
G01X9179150Y2506683D03*
G01X9334090Y2506683D03*
G54D12*
G01X11695420Y2988639D03*
G01X11540480Y2988639D03*
G01X3678117Y127502D03*
G01X3523177Y127502D03*
G54D10*
G01X3145772Y127502D03*
G01X3300712Y127502D03*
G01X9179150Y2677535D03*
G01X9334090Y2677535D03*
G54D13*
G01X2820336Y1381149D03*
G01X2820336Y1536089D03*
G54D14*
G01X8012204Y1825319D03*
G01X8012204Y1265321D03*
G54D11*
G01X3947451Y1689091D03*
G01X3947451Y1534151D03*
G54D13*
G01X2922338Y1850355D03*
G01X2922338Y2005295D03*
G01X10217982Y1024144D03*
G01X10217982Y1179084D03*
G01X11256008Y1020639D03*
G01X11256008Y1175579D03*
G54D15*
G01X4380947Y3242834D03*
G01X4380947Y3672856D03*
G54D10*
G01X3145772Y2284830D03*
G01X3300712Y2284830D03*
G54D16*
G01X3105940Y3758244D03*
G01X3105940Y3198246D03*
G54D17*
G01X353601Y2997637D03*
G01X183601Y2997637D03*
G01X353601Y3352445D03*
G01X183601Y3352445D03*
G54D18*
G01X12755265Y173844D03*
G01X12755265Y397364D03*
G54D20*
G01X4182952Y2029826D03*
G01X3762951Y2029826D03*
G54D21*
G01X4987865Y3503304D03*
G01X4987865Y3279784D03*
G54D22*
G01X9732628Y2303533D03*
G01X9732628Y2473533D03*
G54D23*
G01X2926541Y2534733D03*
G01X3346541Y2534733D03*
G54D24*
G01X2098200Y3876300D03*
G01X2098200Y3076300D03*
G01X1658200Y3876300D03*
G01X1658200Y3076300D03*
G54D25*
G01X3617647Y2611234D03*
G01X4297656Y2611234D03*
G54D26*
G01X13201372Y3874208D03*
G01X13201372Y3674208D03*
G01X13441372Y3774208D03*
G54D27*
G01X10736056Y1019836D03*
G01X10736056Y1179816D03*
G54D28*
G01X10140538Y2728535D03*
G01X10300517Y2728535D03*
G54D29*
G01X11699551Y2711629D03*
G01X11699551Y2551649D03*
G54D30*
G01X5655973Y1693800D03*
G01X5655973Y1473799D03*
G54D29*
G01X5900776Y3094195D03*
G01X5900776Y2934215D03*
G54D28*
G01X10961648Y3044739D03*
G01X11121627Y3044739D03*
G54D31*
G01X5395870Y1473799D03*
G01X5395870Y1693800D03*
G54D29*
G01X5706719Y3094195D03*
G01X5706719Y2934215D03*
G54D27*
G01X5513171Y2934144D03*
G01X5513171Y3094124D03*
G54D28*
G01X188552Y2814726D03*
G01X348531Y2814726D03*
G54D29*
G01X5895676Y3563340D03*
G01X5895676Y3403360D03*
G54D32*
G01X5317571Y3473145D03*
G54D33*
G01X5657571Y3373145D03*
G01X5657571Y3573145D03*
G54D30*
G01X7252294Y1693800D03*
G01X7252294Y1473799D03*
G54D29*
G01X7282894Y3094195D03*
G01X7282894Y2934215D03*
G54D31*
G01X7007491Y1473799D03*
G01X7007491Y1693800D03*
G54D29*
G01X7093006Y3094195D03*
G01X7093006Y2934215D03*
G54D27*
G01X6905489Y2934144D03*
G01X6905489Y3094124D03*
G54D28*
G01X8421815Y3855650D03*
G01X8581795Y3855650D03*
G54D29*
G01X7134992Y3563340D03*
G01X7134992Y3403360D03*
G54D32*
G01X6567087Y3473145D03*
G54D33*
G01X6907087Y3373145D03*
G01X6907087Y3573145D03*
G54D30*
G01X8772114Y1693800D03*
G01X8772114Y1473799D03*
G54D27*
G01X4146354Y1439825D03*
G01X4146354Y1599804D03*
G01X4340156Y1434725D03*
G01X4340156Y1594704D03*
G54D29*
G01X8802714Y3094195D03*
G01X8802714Y2934215D03*
G54D31*
G01X8512010Y1473799D03*
G01X8512010Y1693800D03*
G54D29*
G01X8611206Y3094195D03*
G01X8611206Y2934215D03*
G54D27*
G01X8420209Y2934144D03*
G01X8420209Y3094124D03*
G01X12775665Y3699154D03*
G01X12775665Y3859134D03*
G01X12994968Y3699154D03*
G01X12994968Y3859134D03*
G54D29*
G01X8863915Y3563340D03*
G01X8863915Y3403360D03*
G54D32*
G01X8285809Y3473145D03*
G54D33*
G01X8625809Y3373145D03*
G01X8625809Y3573145D03*
G54D29*
G01X9960429Y1179887D03*
G01X9960429Y1019907D03*
G01X10996066Y1179887D03*
G01X10996066Y1019907D03*
G54D28*
G01X12532468Y1524920D03*
G01X12692448Y1524920D03*
G01X12532468Y1315817D03*
G01X12692448Y1315817D03*
G54D27*
G01X10475536Y1019836D03*
G01X10475536Y1179816D03*
G01X11515949Y1019836D03*
G01X11515949Y1179816D03*
G01X4758362Y3382950D03*
G01X4758362Y3542929D03*
G01X9741126Y1944731D03*
G01X9741126Y2104711D03*
G54D34*
G01X5878220Y2256175D03*
G01X5878220Y2306213D03*
G01X5878220Y2356251D03*
G01X5878220Y2406289D03*
G01X5878220Y2456327D03*
G01X5878220Y2506365D03*
G01X5878220Y2556403D03*
G54D35*
G01X5778329Y2656302D03*
G01X5728291Y2656302D03*
G01X5678253Y2656302D03*
G01X5628215Y2656302D03*
G01X5578177Y2656302D03*
G01X5528139Y2656302D03*
G01X5478101Y2656302D03*
G54D36*
G01X5378219Y2556403D03*
G01X5378219Y2506365D03*
G01X5378219Y2456327D03*
G01X5378219Y2406289D03*
G01X5378219Y2356251D03*
G01X5378219Y2306213D03*
G01X5378219Y2256175D03*
G54D35*
G01X5478101Y2156303D03*
G01X5528139Y2156303D03*
G01X5578177Y2156303D03*
G01X5628215Y2156303D03*
G01X5678253Y2156303D03*
G01X5728291Y2156303D03*
G01X5778329Y2156303D03*
G54D37*
G01X5628224Y2406282D03*
G54D38*
G01X11272740Y1816027D03*
G01X11272740Y1866027D03*
G01X11272740Y1916027D03*
G01X11272740Y1966027D03*
G01X11272740Y2016027D03*
G01X11272740Y2066027D03*
G01X11272740Y2116027D03*
G01X11272740Y2166027D03*
G01X11272740Y2216027D03*
G01X11272740Y2266027D03*
G01X11272740Y2316027D03*
G01X11272740Y2366027D03*
G54D39*
G01X11117740Y2521027D03*
G01X11067740Y2521027D03*
G01X11017740Y2521027D03*
G01X10967740Y2521027D03*
G01X10917740Y2521027D03*
G01X10867740Y2521027D03*
G01X10817740Y2521027D03*
G01X10767740Y2521027D03*
G01X10717740Y2521027D03*
G01X10667740Y2521027D03*
G01X10617740Y2521027D03*
G01X10567740Y2521027D03*
G54D38*
G01X10412740Y2366027D03*
G01X10412740Y2316027D03*
G01X10412740Y2266027D03*
G01X10412740Y2216027D03*
G01X10412740Y2166027D03*
G01X10412740Y2116027D03*
G01X10412740Y2066027D03*
G01X10412740Y2016027D03*
G01X10412740Y1966027D03*
G01X10412740Y1916027D03*
G01X10412740Y1866027D03*
G01X10412740Y1816027D03*
G54D39*
G01X10567740Y1661027D03*
G01X10617740Y1661027D03*
G01X10667740Y1661027D03*
G01X10717740Y1661027D03*
G01X10767740Y1661027D03*
G01X10817740Y1661027D03*
G01X10867740Y1661027D03*
G01X10917740Y1661027D03*
G01X10967740Y1661027D03*
G01X11017740Y1661027D03*
G01X11067740Y1661027D03*
G01X11117740Y1661027D03*
G54D34*
G01X7348320Y2256175D03*
G01X7348320Y2306213D03*
G01X7348320Y2356251D03*
G01X7348320Y2406289D03*
G01X7348320Y2456327D03*
G01X7348320Y2506365D03*
G01X7348320Y2556403D03*
G54D35*
G01X7248429Y2656302D03*
G01X7198391Y2656302D03*
G01X7148353Y2656302D03*
G01X7098315Y2656302D03*
G01X7048277Y2656302D03*
G01X6998239Y2656302D03*
G01X6948201Y2656302D03*
G54D36*
G01X6848320Y2556403D03*
G01X6848320Y2506365D03*
G01X6848320Y2456327D03*
G01X6848320Y2406289D03*
G01X6848320Y2356251D03*
G01X6848320Y2306213D03*
G01X6848320Y2256175D03*
G54D35*
G01X6948201Y2156303D03*
G01X6998239Y2156303D03*
G01X7048277Y2156303D03*
G01X7098315Y2156303D03*
G01X7148353Y2156303D03*
G01X7198391Y2156303D03*
G01X7248429Y2156303D03*
G54D37*
G01X7098324Y2406282D03*
G54D40*
G01X11271643Y3850246D03*
G54D41*
G01X11041643Y3850246D03*
G54D40*
G01X10811643Y3850246D03*
G54D42*
G01X11041643Y3300246D03*
G54D34*
G01X8818220Y2256175D03*
G01X8818220Y2306213D03*
G01X8818220Y2356251D03*
G01X8818220Y2406289D03*
G01X8818220Y2456327D03*
G01X8818220Y2506365D03*
G01X8818220Y2556403D03*
G54D35*
G01X8718329Y2656302D03*
G01X8668291Y2656302D03*
G01X8618253Y2656302D03*
G01X8568215Y2656302D03*
G01X8518177Y2656302D03*
G01X8468139Y2656302D03*
G01X8418101Y2656302D03*
G54D36*
G01X8318219Y2556403D03*
G01X8318219Y2506365D03*
G01X8318219Y2456327D03*
G01X8318219Y2406289D03*
G01X8318219Y2356251D03*
G01X8318219Y2306213D03*
G01X8318219Y2256175D03*
G54D35*
G01X8418101Y2156303D03*
G01X8468139Y2156303D03*
G01X8518177Y2156303D03*
G01X8568215Y2156303D03*
G01X8618253Y2156303D03*
G01X8668291Y2156303D03*
G01X8718329Y2156303D03*
G54D37*
G01X8568224Y2406282D03*
G54D43*
G01X3683644Y811817D03*
G01X3099444Y804817D03*
G01X3099444Y1696817D03*
G01X3099444Y1569817D03*
G01X3099444Y1442817D03*
G01X3099444Y1315817D03*
G01X3099444Y1188817D03*
G01X3099444Y1061817D03*
G01X3099444Y934817D03*
G01X3683644Y934817D03*
G01X3683644Y1061817D03*
G01X3683644Y1188817D03*
G01X3683644Y1315817D03*
G01X3683644Y1442817D03*
G01X3683644Y1569817D03*
G01X3683644Y1696817D03*
G54D44*
G01X1435510Y599903D03*
G01X1435510Y504907D03*
G01X1435510Y409911D03*
G01X1665330Y409911D03*
G01X1665330Y504907D03*
G01X1665330Y599903D03*
G54D45*
G01X3629449Y3182315D03*
G01X3756449Y3182315D03*
G01X3883449Y3182315D03*
G01X4010449Y3182315D03*
G01X4010449Y3763975D03*
G01X3883449Y3763975D03*
G01X3756449Y3763975D03*
G01X3629449Y3763975D03*
G54D46*
G01X3819949Y3473145D03*
G54D47*
G01X11969855Y1259523D03*
G01X11969855Y2259523D03*
G54D48*
G01X3697064Y484506D03*
G54D49*
G01X3137026Y484506D03*
G54D50*
G01X1711926Y212501D03*
G01X1881925Y212501D03*
G54D51*
G01X1513113Y214203D03*
G01X1353134Y214203D03*
G54D52*
G01X12586973Y2219337D03*
G01X12586973Y1789315D03*
G54D18*
G01X4625760Y342146D03*
G01X4625760Y565666D03*
G54D17*
G01X353601Y3175041D03*
G01X183601Y3175041D03*
G54D27*
G01X1402518Y3530852D03*
G01X1402518Y3690831D03*
G54D12*
G01X9946098Y2733635D03*
G01X9791158Y2733635D03*
G54D53*
G01X10274787Y2926644D03*
G01X10274787Y3053644D03*
G01X10274787Y3180644D03*
G01X10274787Y3307644D03*
G01X10274787Y3434644D03*
G01X10274787Y3561644D03*
G01X10274787Y3688644D03*
G01X10274787Y3815644D03*
G01X9727671Y2926644D03*
G01X9727671Y3053644D03*
G01X9727671Y3180644D03*
G01X9727671Y3307644D03*
G01X9727671Y3434644D03*
G01X9727671Y3561644D03*
G01X9727671Y3688644D03*
G01X9727671Y3815644D03*
G54D52*
G01X4737971Y2632442D03*
G01X4737971Y2202420D03*
G54D54*
G01X4090253Y243906D03*
G01X4090253Y663906D03*
G04 Pad End*

M02*

