G04 Layer: BottomLayer*
G04 EasyEDA Pro v2.2.32.3, 2025-08-13 14:06:10*
G04 Gerber Generator version 0.3*
G04 Scale: 100 percent, Rotated: No, Reflected: No*
G04 Dimensions in millimeters*
G04 Leading zeros omitted, absolute positions, 3 integers and 5 decimals*
%FSLAX35Y35*%
%MOMM*%
%ADD10C,0.2032*%
%ADD11C,2.2*%
%ADD12O,1.4X3.79999*%
%ADD13O,2.79999X1.4*%
%ADD14O,5.0X1.6*%
%ADD15C,1.69926*%
%ADD16R,1.69926X1.69926*%
%ADD17C,1.5*%
%ADD18R,1.5X1.5*%
%ADD19O,2.5057X1.5*%
%ADD20O,2.5X1.5*%
%ADD21C,1.4*%
%ADD22R,1.4X1.4*%
%ADD23O,3.8X2.5*%
%ADD24C,1.6002*%
%ADD25R,1.8X1.13*%
%ADD26C,0.5*%
%ADD27C,0.6*%
%ADD28C,0.8*%
%ADD29C,1.0*%
%ADD30C,0.3*%
%ADD31C,1.6*%
%ADD32C,0.4*%
G75*


G04 Copper Start*
G36*
G01X35814Y36873D02*
G01X35814Y1905102D01*
G03X173637Y2024714I17008J119612D01*
G03X35814Y2144325I-120815J0D01*
G01X35814Y3491443D01*
G02X519641Y3975270I483827J0D01*
G01X13747750Y3975270D01*
G03X13756179Y3976276I0J35814D01*
G02X14258957Y3477788I-7372J-510233D01*
G03X14256977Y3466043I33833J-11745D01*
G01X14256977Y528109D01*
G02X13765741Y36873I-491236J0D01*
G01X12353622Y36873D01*
G03X12404107Y525260I-163722J263727D01*
G01X12404716Y525421D01*
G01X12405416Y525493D01*
G01X12959769Y525493D01*
G03X12995700Y540377I0J50814D01*
G01X13004340Y549016D01*
G01X13007098Y551543D01*
G01X13008054Y552255D01*
G01X13008930Y552171D01*
G01X13016087Y550923D01*
G01X13025486Y549123D01*
G01X13027722Y548767D01*
G01X13038681Y547379D01*
G03X13041575Y547131I4501J35530D01*
G01X13047652Y546858D01*
G01X13050021Y546830D01*
G03X13136471Y753009I978J120804D01*
G03X12930292Y666559I-85375J-85472D01*
G01X12930320Y664190D01*
G01X12930593Y658114D01*
G03X12930841Y655219I35778J1606D01*
G01X12932229Y644260D01*
G01X12932585Y642024D01*
G01X12934385Y632625D01*
G01X12935344Y627121D01*
G01X12828445Y627121D01*
G01X13004340Y803016D01*
G01X13007098Y805543D01*
G01X13008054Y806255D01*
G01X13008930Y806171D01*
G01X13016087Y804923D01*
G01X13025486Y803123D01*
G01X13027722Y802767D01*
G01X13038681Y801379D01*
G03X13041575Y801131I4501J35530D01*
G01X13047652Y800858D01*
G01X13050021Y800830D01*
G03X13136471Y1007009I978J120804D01*
G03X12930292Y920559I-85375J-85472D01*
G01X12930320Y918190D01*
G01X12930593Y912114D01*
G03X12930841Y909219I35778J1606D01*
G01X12932229Y898260D01*
G01X12932585Y896024D01*
G01X12934385Y886625D01*
G01X12935633Y879468D01*
G01X12935717Y878592D01*
G01X12935005Y877636D01*
G01X12932478Y874878D01*
G01X12756122Y698522D01*
G01X12318715Y698522D01*
G01X12318015Y698595D01*
G01X12317397Y698758D01*
G03X12230738Y695621I-41538J-51050D01*
G03X12222410Y609307I45120J-47913D01*
G03X12026178Y36873I-32510J-308707D01*
G01X2677068Y36873D01*
G03X2508300Y607814I-168768J260527D01*
G03X2339532Y36873I0J-310414D01*
G01X35814Y36873D01*
G37*
%LPC*%
G36*
G01X1477164Y3004593D02*
G03X531536Y3004593I-472814J0D01*
G03X1477164Y3004593I472814J0D01*
G37*
G36*
G01X8719758Y3606830D02*
G01X8720376Y3606667D01*
G03X8813207Y3616480I41538J51050D01*
G03X8802846Y3709253I-51294J41236D01*
G03X8749103Y3809215I-56233J34196D01*
G03X8726213Y3814663I-22890J-45367D01*
G01X4860855Y3814663D01*
G03X4855649Y3902437I-51493J40987D01*
G03X4767825Y3906700I-46287J-46787D01*
G01X4767207Y3906537D01*
G01X4766506Y3906464D01*
G01X889894Y3906464D01*
G01X888017Y3906598D01*
G01X886287Y3906920D01*
G01X885308Y3907218D01*
G01X884579Y3907569D01*
G03X803938Y3895818I-32868J-57019D01*
G03X796542Y3814663I47773J-45269D01*
G01X675264Y3814663D01*
G01X674564Y3814735D01*
G01X673946Y3814899D01*
G03X566594Y3763849I-41538J-51050D01*
G03X673946Y3712799I65814J-0D01*
G01X674564Y3712962D01*
G01X675264Y3713035D01*
G01X2657179Y3713035D01*
G03X2639569Y3619061I35656J-55318D01*
G03X2734372Y3606666I53265J38656D01*
G01X2734991Y3606830D01*
G01X2735691Y3606902D01*
G01X8719057Y3606902D01*
G01X8719758Y3606830D01*
G37*
G36*
G01X1144982Y870068D02*
G03X929209Y928595I-115824J0D01*
G03X713436Y870068I-99949J-58527D01*
G03X929209Y811541I115824J0D01*
G03X1144982Y870068I99949J58527D01*
G37*
G36*
G01X977814Y1878900D02*
G03X977814Y2170527I0J145814D01*
G03X977814Y1878900I0J-145814D01*
G37*
G36*
G01X1029158Y735956D02*
G03X1029158Y504308I0J-115824D01*
G03X1029158Y735956I0J115824D01*
G37*
G36*
G01X1708200Y2705486D02*
G01X2048200Y2705486D01*
G03X2048200Y2937114I0J115814D01*
G01X1708200Y2937114D01*
G03X1708200Y2705486I0J-115814D01*
G37*
G36*
G01X2551850Y1007114D02*
G01X1708200Y1007114D01*
G03X1708200Y775486I0J-115814D01*
G01X2599822Y775486D01*
G03X2681715Y809407I0J115814D01*
G01X2776507Y904199D01*
G01X4569659Y904199D01*
G03X4665521Y1085001I0J115814D01*
G03X4638009Y1127420I-60161J-8887D01*
G03X4587930Y1134377I-32650J-51306D01*
G03X4569659Y1135827I-18271J-114364D01*
G01X4545477Y1135827D01*
G03X4522441Y1135827I-11518J-59713D01*
G01X2728535Y1135827D01*
G03X2646642Y1101906I0J-115814D01*
G01X2551850Y1007114D01*
G37*
G36*
G01X2824102Y707575D02*
G03X2784636Y723923I-39466J-39466D01*
G01X2249129Y723923D01*
G03X2209663Y707575I0J-55814D01*
G01X2062808Y560720D01*
G01X1911699Y560720D01*
G03X1811010Y504907I-34875J-55814D01*
G03X1911699Y449093I65814J0D01*
G01X2085927Y449093D01*
G03X2125393Y465440I0J55814D01*
G01X2272248Y612295D01*
G01X2761517Y612295D01*
G01X3193975Y179836D01*
G03X3233442Y163489I39466J39466D01*
G01X3779974Y163489D01*
G03X3880663Y219303I34875J55814D01*
G03X3779974Y275117I-65814J0D01*
G01X3256561Y275117D01*
G01X2824102Y707575D01*
G37*
G36*
G01X2813414Y3003000D02*
G03X2192586Y3003000I-310414J0D01*
G03X2813414Y3003000I310414J0D01*
G37*
G36*
G01X4589422Y1896588D02*
G03X4701429Y1936399I46538J46537D01*
G01X4701751Y1936951D01*
G01X4702195Y1937498D01*
G01X4827629Y2062932D01*
G03X4921308Y2022426I63334J17895D01*
G03X4942013Y2122365I-30344J58401D01*
G01X4941850Y2122983D01*
G01X4941777Y2123683D01*
G01X4941777Y2824789D01*
G01X5116641Y2999652D01*
G03X5111911Y2985644I54826J-26314D01*
G01X5069235Y2942969D01*
G03X5054352Y2907038I35931J-35931D01*
G01X5054352Y2512043D01*
G03X5061086Y2436736I50814J-33411D01*
G03X5135953Y2426187I44080J41896D01*
G01X5135953Y2422531D01*
G03X5150836Y2386600I50814J0D01*
G01X5193512Y2343925D01*
G03X5296070Y2313229I59556J12306D01*
G03X5265374Y2415786I-43002J43002D01*
G01X5237581Y2443579D01*
G01X5237581Y2447395D01*
G03X5302445Y2470704I15487J58809D01*
G03X5303882Y2539614I-49377J35500D01*
G01X5303882Y2549385D01*
G01X5406718Y2652221D01*
G01X5798775Y2652221D01*
G03X5834706Y2667104I0J50814D01*
G01X6085026Y2917424D01*
G01X8843240Y2917424D01*
G01X8740866Y2815050D01*
G01X8612731Y2815050D01*
G03X8586158Y2876292I-59920J10387D01*
G03X8519400Y2876251I-33348J-50855D01*
G01X8403905Y2876251D01*
G03X8309196Y2826008I-33809J-50656D01*
G03X8310125Y2815050I60813J-367D01*
G01X7994614Y2815050D01*
G03X7927792Y2815050I-33411J-50814D01*
G01X7107100Y2815050D01*
G03X7080288Y2882252I-58809J15487D01*
G03X7008184Y2876251I-31997J-51716D01*
G01X6882799Y2876251D01*
G03X6816041Y2876292I-33411J-50814D01*
G03X6789468Y2815050I33348J-50855D01*
G01X6696387Y2815050D01*
G03X6660456Y2800167I0J-50814D01*
G01X6497254Y2636965D01*
G03X6482371Y2601034I35931J-35931D01*
G01X6482371Y2254877D01*
G01X6454578Y2227084D01*
G03X6423882Y2124526I12306J-59556D01*
G03X6526440Y2155222I43002J43002D01*
G01X6569115Y2197898D01*
G03X6583999Y2233829I-35931J35931D01*
G01X6583999Y2368822D01*
G03X6648863Y2392132I15487J58809D01*
G03X6650299Y2461042I-49377J35500D01*
G01X6650299Y2501510D01*
G03X6703754Y2463785I56287J23023D01*
G03X6760487Y2496371I2833J60748D01*
G01X6875537Y2611420D01*
G01X7909710Y2611420D01*
G03X7910153Y2528896I51493J-40987D01*
G01X7910316Y2528278D01*
G01X7910389Y2527577D01*
G01X7910389Y2263176D01*
G03X7875051Y2150434I10013J-65048D01*
G03X7985872Y2191402I45351J47694D01*
G01X7986193Y2191955D01*
G01X7986637Y2192501D01*
G01X7997134Y2202998D01*
G03X8012017Y2238929I-35931J35931D01*
G01X8012017Y2527577D01*
G01X8012090Y2528278D01*
G01X8012253Y2528895D01*
G03X8012696Y2611420I-51050J41538D01*
G01X8141517Y2611420D01*
G02X8155192Y2557235I-100510J-54186D01*
G01X8155192Y2547743D01*
G03X8206006Y2453519I50814J-33411D01*
G03X8256820Y2547743I0J60814D01*
G01X8256820Y2557235D01*
G02X8270496Y2611420I114186J0D01*
G01X8895337Y2611420D01*
G03X8894702Y2603412I50179J-8009D01*
G01X8894702Y2348086D01*
G01X8894629Y2347385D01*
G01X8894466Y2346768D01*
G03X8945516Y2239416I51050J-41538D01*
G03X8996566Y2346767I0J65814D01*
G01X8996403Y2347385D01*
G01X8996330Y2348086D01*
G01X8996330Y2582364D01*
G01X9243231Y2829266D01*
G03X9247152Y2823918I54971J36190D01*
G01X9247315Y2823300D01*
G01X9247388Y2822599D01*
G01X9247388Y1972944D01*
G03X9262271Y1937013I50814J0D01*
G01X9633794Y1565490D01*
G03X9669725Y1550607I35931J35931D01*
G01X9861472Y1550607D01*
G01X9862173Y1550534D01*
G01X9862790Y1550371D01*
G03X9970142Y1601421I41538J51050D01*
G03X9862791Y1652471I-65814J0D01*
G01X9862173Y1652308D01*
G01X9861472Y1652235D01*
G01X9690773Y1652235D01*
G01X9654699Y1688309D01*
G01X10016530Y1688309D01*
G03X10052461Y1703192I0J50814D01*
G01X10570268Y2220999D01*
G03X10582588Y2161691I63369J-17771D01*
G01X10582751Y2161073D01*
G01X10582824Y2160372D01*
G01X10582824Y2024726D01*
G03X10597707Y1988795I50814J0D01*
G01X11006453Y1580049D01*
G01X11006453Y1475975D01*
G01X11006380Y1475274D01*
G01X11006217Y1474656D01*
G03X10995074Y1454648I51050J-41538D01*
G01X10893971Y1555751D01*
G03X10858041Y1570634I-35931J-35931D01*
G01X10809096Y1570634D01*
G01X10808395Y1570706D01*
G01X10807777Y1570869D01*
G03X10731132Y1575488I-41538J-51050D01*
G03X10702273Y1504333I35108J-55668D01*
G01X10651202Y1504333D01*
G03X10537221Y1509108I-58365J-30414D01*
G03X10590348Y1408152I55617J-35189D01*
G01X10590348Y1408152D01*
G03X10613237Y1402705I22890J45367D01*
G01X10816592Y1402705D01*
G01X10824937Y1394360D01*
G03X10808853Y1384717I25453J-60693D01*
G01X10808235Y1384554D01*
G01X10807534Y1384481D01*
G01X10635220Y1384529D01*
G03X10556454Y1298514I-16882J-63612D01*
G03X10672027Y1282853I61884J22403D01*
G01X10807534Y1282853D01*
G01X10808235Y1282780D01*
G01X10808852Y1282617D01*
G03X10911083Y1308214I41538J51050D01*
G01X11357617Y861681D01*
G03X11393547Y846798I35931J35931D01*
G01X11651595Y846798D01*
G01X11652296Y846725D01*
G01X11652914Y846562D01*
G03X11740738Y850825I41538J51050D01*
G03X11745944Y938599I-46287J46787D01*
G01X12323427Y938599D01*
G03X12359358Y953482I0J50814D01*
G01X12992665Y1586789D01*
G01X12993772Y1587804D01*
G01X12998225Y1587334D01*
G01X13005525Y1586345D01*
G01X13007018Y1586175D01*
G01X13015708Y1585367D01*
G03X13019008Y1585214I3314J35660D01*
G01X13020063Y1585213D01*
G03X13029795Y1585213I4866J105702D01*
G01X13030851Y1585214D01*
G03X13034150Y1585367I-14J35814D01*
G01X13042841Y1586175D01*
G01X13044334Y1586345D01*
G01X13051633Y1587334D01*
G01X13056087Y1587804D01*
G01X13057194Y1586789D01*
G01X13097156Y1546827D01*
G01X13097156Y1514245D01*
G03X12919115Y1436915I-72227J-77330D01*
G03X13097156Y1359586I105814J0D01*
G01X13097156Y1203616D01*
G03X13112039Y1167685I50814J0D01*
G01X13520699Y759025D01*
G03X13540535Y539186I19835J-109024D01*
G01X13640535Y539186D01*
G03X13641377Y760811I0J110814D01*
G01X13641343Y761835D01*
G03X13626466Y796982I-50808J-784D01*
G01X13198784Y1224663D01*
G01X13198784Y1367826D01*
G03X13384743Y1436915I80145J69089D01*
G03X13198784Y1506005I-105814J0D01*
G01X13198784Y1567874D01*
G03X13183901Y1603805I-50814J0D01*
G01X13129056Y1658651D01*
G01X13128041Y1659758D01*
G01X13128511Y1664211D01*
G01X13129499Y1671511D01*
G01X13129670Y1673004D01*
G01X13130477Y1681695D01*
G03X13130631Y1684994I-35660J3314D01*
G01X13130631Y1686049D01*
G03X13024929Y1796729I-105702J4866D01*
G03X12919227Y1686049I0J-105814D01*
G01X12919228Y1684994D01*
G03X12919381Y1681695I35814J14D01*
G01X12920189Y1673004D01*
G01X12920359Y1671511D01*
G01X12921348Y1664211D01*
G01X12921818Y1659758D01*
G01X12920803Y1658651D01*
G01X12483400Y1221248D01*
G03X12412812Y1258312I-59639J-27832D01*
G03X12358291Y1200142I10948J-64897D01*
G01X12357970Y1199589D01*
G01X12357526Y1199042D01*
G01X12270111Y1111628D01*
G01X12214932Y1111628D01*
G01X12423991Y1320687D01*
G03X12438874Y1356618I-35931J35931D01*
G01X12438874Y1476963D01*
G01X12438947Y1477664D01*
G01X12439110Y1478282D01*
G03X12388060Y1585634I-51050J41538D01*
G03X12337010Y1478282I-0J-65814D01*
G01X12337174Y1477664D01*
G01X12337246Y1476963D01*
G01X12337246Y1377665D01*
G01X12142610Y1183029D01*
G01X11848101Y1183029D01*
G01X11084145Y1946984D01*
G03X11093381Y1953276I-32302J57342D01*
G01X11093999Y1953439D01*
G01X11094699Y1953512D01*
G01X11188897Y1953512D01*
G01X11546615Y1595794D01*
G01X11547059Y1595247D01*
G01X11547381Y1594695D01*
G03X11659388Y1554883I65469J6726D01*
G03X11619577Y1666890I-46537J46538D01*
G01X11619024Y1667212D01*
G01X11618477Y1667656D01*
G01X11464235Y1821898D01*
G03X11505798Y1928562I-9487J65127D01*
G01X11505635Y1929180D01*
G01X11505562Y1929881D01*
G01X11505562Y2085927D01*
G03X11490679Y2121858I-50814J0D01*
G01X11409078Y2203459D01*
G03X11373147Y2218342I-35931J-35931D01*
G01X10828088Y2218342D01*
G01X10730769Y2315660D01*
G03X10694838Y2330543I-35931J-35931D01*
G01X10557137Y2330543D01*
G03X10521206Y2315660I0J-50814D01*
G01X10255058Y2049513D01*
G03X10221664Y2097685I-65127J-9487D01*
G03X10214784Y2210831I-36832J54542D01*
G03X10119051Y2150130I-29952J-58603D01*
G01X9949542Y1980621D01*
G01X9949542Y3454649D01*
G02X10040733Y3718835I428277J0D01*
G01X10516336Y3718835D01*
G03X10571880Y3739235I0J85814D01*
G01X13530630Y3739235D01*
G01X13822066Y3447800D01*
G01X13822066Y3279187D01*
G01X13792054Y3249174D01*
G01X13777758Y3235089D01*
G01X13763752Y3222050D01*
G01X13749611Y3210133D01*
G01X13742962Y3205089D01*
G01X13736145Y3200358D01*
G01X13729385Y3196140D01*
G01X13722683Y3192458D01*
G01X13716038Y3189328D01*
G01X13709435Y3186757D01*
G01X13702842Y3184745D01*
G01X13696205Y3183290D01*
G01X13689450Y3182398D01*
G01X13681690Y3182057D01*
G01X13582476Y3182057D01*
G03X13546662Y2966376I0J-110814D01*
G01X13546662Y2588008D01*
G01X13262025Y2303370D01*
G03X13204107Y2124094I16904J-104455D01*
G03X13383384Y2182011I74822J74822D01*
G01X13693156Y2491783D01*
G03X13718290Y2552463I-60680J60680D01*
G01X13718290Y2964867D01*
G01X13720583Y2965400D01*
G03X13723711Y2966280I-8117J34882D01*
G01X13732729Y2969262D01*
G03X13735620Y2970358I-11245J34003D01*
G01X13744234Y2974059D01*
G03X13746810Y2975289I-14135J32907D01*
G01X13755072Y2979648D01*
G03X13757292Y2980922I-16711J31676D01*
G01X13765253Y2985879D01*
G01X13767108Y2987116D01*
G01X13774819Y2992611D01*
G01X13776325Y2993745D01*
G01X13783838Y2999720D01*
G01X13785023Y3000704D01*
G01X13789096Y3004239D01*
G03X13796161Y3010563I-53615J67004D01*
G01X13797690Y3012093D01*
G01X13808108Y3022013D01*
G01X13808953Y3022844D01*
G01X13838442Y3052846D01*
G01X13968560Y3182962D01*
G03X13993694Y3243642I-60680J60680D01*
G01X13993694Y3483345D01*
G03X13968560Y3544025I-85814J0D01*
G01X13626855Y3885729D01*
G01X13626855Y3885729D01*
G03X13566176Y3910864I-60680J-60680D01*
G01X10536736Y3910864D01*
G03X10481193Y3890463I0J-85814D01*
G01X9409622Y3890463D01*
G03X9348942Y3865329I0J-85814D01*
G01X8787991Y3304378D01*
G01X8786309Y3303956D01*
G01X4666560Y3303956D01*
G03X4605881Y3278821I0J-85814D01*
G01X4559980Y3232921D01*
G03X4535183Y3179839I60680J-60680D01*
G01X4476097Y3120753D01*
G01X4195128Y3120753D01*
G03X4218391Y3135777I-23274J61561D01*
G01X4387944Y3305330D01*
G01X4610460Y3305330D01*
G03X4676274Y3371144I0J65814D01*
G03X4610460Y3436958I-65814J0D01*
G01X4360683Y3436958D01*
G03X4314145Y3417681I0J-65814D01*
G01X4125317Y3228852D01*
G03X4148580Y3120753I46537J-46537D01*
G01X3026100Y3120753D01*
G01X2708772Y3438081D01*
G03X2615697Y3438081I-46537J-46537D01*
G03X2615697Y3345006I46537J-46537D01*
G01X2952301Y3008402D01*
G03X2998839Y2989126I46537J46537D01*
G01X4503358Y2989126D01*
G03X4549896Y3008402I0J65814D01*
G01X4628258Y3086764D01*
G03X4681339Y3111561I-7598J85477D01*
G01X4702106Y3132328D01*
G01X5003591Y3132328D01*
G01X4783631Y2912368D01*
G03X4768748Y2876437I35931J-35931D01*
G01X4768748Y2147775D01*
G01X4630333Y2009360D01*
G01X4629786Y2008916D01*
G01X4629234Y2008594D01*
G03X4589422Y1896588I6726J-65469D01*
G37*
G36*
G01X2871524Y2220584D02*
G01X2871451Y2219884D01*
G01X2871288Y2219266D01*
G03X2922338Y2111914I51050J-41538D01*
G03X2973388Y2219266I0J65814D01*
G01X2973225Y2219884D01*
G01X2973152Y2220584D01*
G01X2973152Y2692835D01*
G03X2958269Y2728766I-50814J0D01*
G01X2917172Y2769863D01*
G01X2916728Y2770410D01*
G01X2916406Y2770962D01*
G03X2804399Y2810773I-65469J-6726D01*
G03X2844211Y2698766I46537J-46538D01*
G01X2844763Y2698445D01*
G01X2845310Y2698001D01*
G01X2871524Y2671787D01*
G01X2871524Y2220584D01*
G37*
G36*
G01X3891706Y1519003D02*
G01X3978118Y1432592D01*
G01X3978561Y1432045D01*
G01X3978883Y1431493D01*
G03X4090890Y1391681I65469J6726D01*
G03X4051079Y1503688I-46537J46538D01*
G01X4050526Y1504010D01*
G01X4049979Y1504453D01*
G01X3948685Y1605748D01*
G03X3912754Y1620631I-35931J-35931D01*
G01X3322199Y1620631D01*
G01X3321498Y1620704D01*
G01X3320880Y1620867D01*
G03X3220799Y1599886I-41538J-51050D01*
G03X3262044Y1506317I58543J-30069D01*
G03X3220799Y1412748I17298J-63500D01*
G03X3320880Y1391767I58543J30069D01*
G01X3321498Y1391930D01*
G01X3322199Y1392003D01*
G01X3830004Y1392003D01*
G01X3942417Y1279590D01*
G01X3942861Y1279043D01*
G01X3943183Y1278491D01*
G03X4055189Y1238679I65469J6726D01*
G03X4015378Y1350686I-46537J46538D01*
G01X4014826Y1351008D01*
G01X4014279Y1351451D01*
G01X3886982Y1478748D01*
G03X3851051Y1493631I-35931J-35931D01*
G01X3322199Y1493631D01*
G01X3321498Y1493704D01*
G01X3320880Y1493867D01*
G03X3296641Y1506317I-41538J-51050D01*
G03X3320880Y1518767I-17298J63500D01*
G01X3321498Y1518930D01*
G01X3322199Y1519003D01*
G01X3891706Y1519003D01*
G37*
G36*
G01X4929055Y708909D02*
G03X5150682Y708909I110814J0D01*
G03X4929055Y708909I-110814J0D01*
G37*
G36*
G01X5996614Y630763D02*
G01X5998348Y628757D01*
G01X5999412Y627070D01*
G01X6000700Y624323D01*
G01X6001963Y620695D01*
G01X6003036Y616438D01*
G01X6003828Y611831D01*
G01X6004298Y607162D01*
G01X6004468Y602121D01*
G01X6004468Y596675D01*
G02X5907656Y567718I-96812J147362D01*
G01X5902577Y567718D01*
G03X5866763Y531904I0J-35814D01*
G01X5866763Y418904D01*
G03X5902577Y383090I35814J0D01*
G01X6082577Y383090D01*
G03X6118391Y418904I0J35814D01*
G01X6118391Y423983D01*
G02X6138604Y514670I213548J0D01*
G03X6156096Y563109I-58322J48439D01*
G01X6156096Y609387D01*
G01X6156681Y620538D01*
G01X6157284Y624997D01*
G01X6158210Y629617D01*
G01X6159345Y633704D01*
G01X6160586Y637024D01*
G01X6161755Y639372D01*
G01X6163479Y641952D01*
G03X6142287Y797095I-88297J66958D01*
G03X6135862Y804286I-67105J-53488D01*
G01X5451083Y1489064D01*
G01X5451083Y2187928D01*
G03X5279455Y2187928I-85814J0D01*
G01X5279455Y1453519D01*
G03X5304590Y1392839I85814J0D01*
G01X5966565Y730864D01*
G03X5996614Y630763I108617J-21955D01*
G37*
G36*
G01X5437055Y633909D02*
G03X5472869Y598095I35814J0D01*
G01X5622868Y598095D01*
G03X5658682Y633909I0J35814D01*
G01X5658682Y783909D01*
G03X5656747Y795524I-35814J0D01*
G02X5633683Y933909I403623J138385D01*
G01X5633683Y989413D01*
G03X5462054Y989413I-85814J0D01*
G01X5462054Y933909D01*
G02X5438990Y795524I-426687J0D01*
G03X5437055Y783909I33878J-11615D01*
G01X5437055Y633909D01*
G37*
G36*
G01X5483458Y1983926D02*
G01X5483458Y1519820D01*
G03X5508592Y1459140I85814J0D01*
G01X6223986Y743746D01*
G03X6250614Y630763I105196J-34837D01*
G01X6252348Y628757D01*
G01X6253412Y627070D01*
G01X6254700Y624323D01*
G01X6254924Y623678D01*
G02X6221426Y567718I-110643J28226D01*
G01X6215381Y567718D01*
G03X6179567Y531904I0J-35814D01*
G01X6179567Y418904D01*
G03X6215381Y383090I35814J0D01*
G01X6395381Y383090D01*
G03X6431195Y418904I0J35814D01*
G01X6431195Y531904D01*
G03X6429047Y544121I-35814J0D01*
G02X6411259Y624814I297029J107784D01*
G01X6412210Y629617D01*
G01X6413345Y633704D01*
G01X6414586Y637024D01*
G01X6415755Y639372D01*
G01X6417479Y641952D01*
G03X6411941Y782602I-88297J66958D01*
G03X6389862Y820590I-82759J-22692D01*
G01X5655086Y1555365D01*
G01X5655086Y1557449D01*
G01X6475894Y736641D01*
G03X6504614Y630763I107288J-27732D01*
G01X6506348Y628757D01*
G01X6507412Y627070D01*
G01X6508700Y624323D01*
G01X6509963Y620695D01*
G01X6510708Y617739D01*
G02X6494326Y543573I-330747J34165D01*
G03X6492371Y531904I33860J-11668D01*
G01X6492371Y418904D01*
G03X6528185Y383090I35814J0D01*
G01X6708185Y383090D01*
G03X6743999Y418904I0J35814D01*
G01X6743999Y531904D01*
G03X6708185Y567718I-35814J0D01*
G01X6701138Y567718D01*
G02X6666258Y629790I77144J84186D01*
G01X6667345Y633704D01*
G01X6668586Y637024D01*
G01X6669755Y639372D01*
G01X6671479Y641952D01*
G03X6660177Y788606I-88297J66958D01*
G03X6643862Y811393I-76995J-37893D01*
G01X5777488Y1677767D01*
G01X5777488Y1973726D01*
G03X5663658Y2054837I-85814J0D01*
G03X5632115Y2042362I7616J-65372D01*
G03X5483458Y1983926I-62843J-58437D01*
G37*
G36*
G01X6726368Y649939D02*
G01X6726368Y633909D01*
G03X6762182Y598095I35814J0D01*
G01X6775860Y598095D01*
G02X6844677Y584149I0J-176762D01*
G02X6822567Y562617I-56652J36052D01*
G03X6805175Y531904I18423J-30712D01*
G01X6805175Y418904D01*
G03X6840989Y383090I35814J0D01*
G01X7020989Y383090D01*
G03X7056803Y418904I0J35814D01*
G01X7056803Y531904D01*
G03X7039412Y562617I-35814J0D01*
G02X7006803Y620202I34542J57585D01*
G03X6984598Y673810I-75814J0D01*
G01X6981816Y676592D01*
G02X6947996Y780431I142498J103838D01*
G01X6947996Y783909D01*
G03X6927591Y816239I-35814J0D01*
G02X6813199Y897058I177775J372987D01*
G01X5981490Y1728767D01*
G01X5981490Y2131828D01*
G03X5809862Y2131828I-85814J0D01*
G01X5809862Y1693222D01*
G03X5834997Y1632542I85814J0D01*
G01X6681959Y785580D01*
G02X6726368Y649939I-184942J-135640D01*
G37*
G36*
G01X6719349Y1201941D02*
G03X6744483Y1141261I85814J0D01*
G01X7093275Y792469D01*
G03X7153954Y767335I60680J60680D01*
G01X7213872Y767335D01*
G01X7279871Y701337D01*
G01X7279296Y700171D01*
G01X7276995Y696363D01*
G01X7274263Y692524D01*
G01X7271278Y688883D01*
G01X7267841Y685209D01*
G01X7259886Y677255D01*
G03X7237680Y623646I53609J-53609D01*
G02X7207253Y574024I-55676J0D01*
G03X7187680Y542104I16242J-31920D01*
G01X7187680Y429104D01*
G03X7223494Y393290I35814J0D01*
G01X7403494Y393290D01*
G03X7439308Y429104I0J35814D01*
G01X7439308Y542104D01*
G03X7419736Y574024I-35814J0D01*
G02X7396917Y595550I25249J49622D01*
G01X7397973Y596132D01*
G01X7401175Y597542D01*
G01X7403605Y598315D01*
G01X7406589Y598852D01*
G03X7484165Y644971I-12932J110057D01*
G03X7501709Y733498I-90508J63938D01*
G01X7537401Y697806D01*
G03X7569090Y630763I110256J11103D01*
G01X7570824Y628757D01*
G01X7571588Y627545D01*
G02X7539901Y577918I-108831J34559D01*
G01X7517598Y577918D01*
G03X7481784Y542104I0J-35814D01*
G01X7481784Y429104D01*
G03X7517598Y393290I35814J0D01*
G01X7697598Y393290D01*
G03X7733412Y429104I0J35814D01*
G01X7733412Y542104D01*
G03X7733296Y544989I-35814J0D01*
G01X7733296Y544989D01*
G02X7729164Y620594I1449342J117116D01*
G01X7729760Y624997D01*
G01X7730686Y629617D01*
G01X7731821Y633704D01*
G01X7733061Y637024D01*
G01X7734231Y639372D01*
G01X7735955Y641952D01*
G03X7755709Y733498I-88297J66958D01*
G01X7791401Y697806D01*
G03X7818081Y636145I110256J11103D01*
G01X7819819Y633865D01*
G01X7820972Y631822D01*
G01X7821880Y629678D01*
G02X7786484Y567534I-129179J32426D01*
G03X7775888Y542104I25218J-25430D01*
G01X7775888Y429104D01*
G03X7811702Y393290I35814J0D01*
G01X7991702Y393290D01*
G03X8027516Y429104I0J35814D01*
G01X8027516Y542104D01*
G03X8016920Y567534I-35814J0D01*
G02X7981509Y629737I93782J94570D01*
G01X7982427Y631909D01*
G01X7983581Y633958D01*
G01X7985319Y636243D01*
G03X7912761Y819166I-83662J72667D01*
G01X7813027Y918899D01*
G01X7946058Y918899D01*
G01X8055529Y809428D01*
G03X8044844Y783909I25128J-25519D01*
G01X8044844Y633909D01*
G03X8080658Y598095I35814J0D01*
G01X8082949Y598095D01*
G02X8095289Y584840I-77144J-84186D01*
G02X8080588Y567534I-108484J77265D01*
G03X8069992Y542104I25218J-25430D01*
G01X8069992Y429104D01*
G03X8105806Y393290I35814J0D01*
G01X8285806Y393290D01*
G03X8321620Y429104I0J35814D01*
G01X8321620Y542104D01*
G03X8311024Y567534I-35814J0D01*
G02X8271620Y662104I93782J94570D01*
G01X8271620Y673861D01*
G03X8266472Y701322I-75814J0D01*
G01X8266472Y783909D01*
G03X8250543Y813695I-35814J0D01*
G02X8241472Y830659I11325J16964D01*
G03X8216337Y891338I-85814J0D01*
G01X8042283Y1065393D01*
G03X7981603Y1090527I-60680J-60680D01*
G01X7828446Y1090527D01*
G01X7445209Y1473764D01*
G01X7445209Y2157328D01*
G03X7273581Y2157328I-85814J0D01*
G01X7273581Y1458345D01*
G01X7230637Y1501289D01*
G01X7230637Y1994496D01*
G03X7205502Y2055175I-85814J0D01*
G01X7200772Y2059906D01*
G03X7071779Y2051161I-60680J-60680D01*
G03X6931351Y1961382I-59188J-62136D01*
G01X6931351Y1339402D01*
G03X6956485Y1278722I85814J0D01*
G01X7418247Y816961D01*
G03X7404761Y819166I-24589J-108051D01*
G01X7310097Y913829D01*
G03X7249418Y938963I-60680J-60680D01*
G01X7189500Y938963D01*
G01X6890977Y1237486D01*
G01X6890977Y2077586D01*
G03X6768309Y2197607I-61988J59342D01*
G01X6744483Y2173782D01*
G03X6719349Y2113102I60680J-60680D01*
G01X6719349Y1201941D01*
G37*
G36*
G01X8359895Y1989026D02*
G01X8359895Y1253552D01*
G01X8359900Y1252683D01*
G01X8358121Y1254461D01*
G01X8358121Y2152228D01*
G03X8186493Y2152228I-85814J0D01*
G01X8186493Y1218916D01*
G03X8211627Y1158236I85814J0D01*
G01X8612483Y757381D01*
G03X8601333Y710627I99651J-48471D01*
G01X8600994Y704167D01*
G01X8600129Y699201D01*
G01X8599975Y698839D01*
G03X8578998Y646487I54837J-52351D01*
G02X8542365Y570011I-98144J0D01*
G03X8528998Y542104I22446J-27907D01*
G01X8528998Y429104D01*
G03X8564812Y393290I35814J0D01*
G01X8744812Y393290D01*
G03X8780626Y429104I0J35814D01*
G01X8780626Y542104D01*
G03X8767258Y570011I-35814J0D01*
G02X8741288Y601999I61512J76476D01*
G03X8797947Y779089I-29177J106944D01*
G01X8797943Y779959D01*
G01X8856075Y721827D01*
G03X8887566Y630763I110058J-12918D01*
G01X8889300Y628757D01*
G01X8890064Y627545D01*
G02X8857775Y577370I-108831J34559D01*
G03X8828202Y542104I6241J-35266D01*
G01X8828202Y429104D01*
G03X8864016Y393290I35814J0D01*
G01X9044016Y393290D01*
G03X9079830Y429104I0J35814D01*
G01X9079830Y542104D01*
G03X9074855Y560313I-35814J0D01*
G02X9049503Y630846I172403J101791D01*
G01X9050297Y633704D01*
G01X9051537Y637024D01*
G01X9052707Y639372D01*
G01X9054431Y641952D01*
G03X9074185Y733498I-88297J66958D01*
G01X9109877Y697806D01*
G03X9167396Y611449I110256J11103D01*
G02X9138001Y567534I-123177J50656D01*
G03X9127406Y542104I25218J-25430D01*
G01X9127406Y429104D01*
G03X9163220Y393290I35814J0D01*
G01X9343219Y393290D01*
G03X9379033Y429104I0J35814D01*
G01X9379033Y542104D01*
G03X9368438Y567534I-35814J0D01*
G02X9329034Y662104I93782J94570D01*
G01X9329034Y680923D01*
G03X9328781Y687105I-75814J0D01*
G03X9231236Y819166I-108648J21804D01*
G01X8689625Y1360777D01*
G01X8689625Y2004326D01*
G03X8532879Y2052623I-85814J0D01*
G03X8491610Y2064840I-41269J-63598D01*
G01X8485912Y2064840D01*
G03X8359895Y1989026I-40203J-75814D01*
G37*
G36*
G01X8914028Y1383343D02*
G01X8914028Y2157328D01*
G03X8742400Y2157328I-85814J0D01*
G01X8742400Y1347798D01*
G03X8767535Y1287118I85814J0D01*
G01X9176920Y877732D01*
G01X9176920Y877732D01*
G03X9237600Y852598I60680J60680D01*
G01X9343476Y852598D01*
G01X9379814Y816261D01*
G02X9374101Y809522I-38726J27040D01*
G03X9363319Y783909I25033J-25613D01*
G01X9363319Y633909D01*
G03X9399133Y598095I35814J0D01*
G01X9412812Y598095D01*
G02X9462994Y592055I0J-211495D01*
G02X9442507Y571870I-63209J43664D01*
G03X9426609Y542104I19916J-29766D01*
G01X9426609Y429104D01*
G03X9462423Y393290I35814J0D01*
G01X9642423Y393290D01*
G03X9678237Y429104I0J35814D01*
G01X9678237Y542104D01*
G03X9662339Y571870I-35814J0D01*
G02X9628237Y635719I42722J63849D01*
G03X9609786Y685291I-75814J0D01*
G02X9584947Y780431I169792J95140D01*
G01X9584947Y783909D01*
G03X9574166Y809522I-35814J0D01*
G02X9559947Y843300I33013J33778D01*
G03X9534813Y903980I-85814J0D01*
G01X9439701Y999092D01*
G01X9439701Y999092D01*
G03X9379021Y1024226I-60680J-60680D01*
G01X9273145Y1024226D01*
G01X8914028Y1383343D01*
G37*
G36*
G01X9887757Y708909D02*
G03X10109385Y708909I110814J0D01*
G03X9887757Y708909I-110814J0D01*
G37*
G36*
G01X9989862Y2905628D02*
G01X9990887Y2899104D01*
G01X9991254Y2895055D01*
G01X9991416Y2890062D01*
G01X9991416Y2596815D01*
G01X9991254Y2591822D01*
G01X9990887Y2587772D01*
G01X9989862Y2581249D01*
G03X10052230Y2494419I62368J-21015D01*
G03X10114599Y2581249I0J65814D01*
G01X10113573Y2587772D01*
G01X10113206Y2591822D01*
G01X10113044Y2596815D01*
G01X10113044Y2890062D01*
G01X10113206Y2895055D01*
G01X10113573Y2899104D01*
G01X10114599Y2905628D01*
G03X10114599Y2947659I-62368J21015D01*
G01X10113573Y2954183D01*
G01X10113206Y2958232D01*
G01X10113044Y2963225D01*
G01X10113044Y2968549D01*
G01X10383927Y3239432D01*
G01X10398771Y3239432D01*
G03X10353544Y3178970I15564J-58789D01*
G03X10402029Y3121088I60791J1674D01*
G01X10631610Y2891507D01*
G03X10667541Y2876624I35931J35931D01*
G01X10924528Y2876624D01*
G01X10924528Y2691346D01*
G03X10975342Y2597121I50814J-33411D01*
G03X11026156Y2691346I0J60814D01*
G01X11026156Y2887331D01*
G03X11026317Y2967361I-45714J40107D01*
G03X10947031Y2978252I-45875J-39923D01*
G01X10688588Y2978252D01*
G01X10473891Y3192950D01*
G03X10429899Y3239432I-59556J-12306D01*
G01X10429899Y3239432D01*
G01X10719457Y3239432D01*
G01X10724450Y3239270D01*
G01X10728500Y3238903D01*
G01X10735024Y3237878D01*
G03X10821853Y3300246I21015J62368D01*
G03X10735024Y3362615I-65814J0D01*
G01X10728500Y3361589D01*
G01X10724450Y3361222D01*
G01X10719457Y3361060D01*
G01X10358737Y3361060D01*
G03X10315736Y3343248I0J-60814D01*
G01X10009228Y3036741D01*
G03X9991416Y2993739I43002J-43002D01*
G01X9991416Y2963225D01*
G01X9991254Y2958232D01*
G01X9990887Y2954183D01*
G01X9989862Y2947659D01*
G03X9989862Y2905628I62368J-21015D01*
G37*
G36*
G01X10144218Y2353186D02*
G01X10144145Y2352486D01*
G01X10143982Y2351868D01*
G03X10195032Y2244516I51050J-41538D01*
G03X10246082Y2351868I0J65814D01*
G01X10245919Y2352486D01*
G01X10245846Y2353186D01*
G01X10245846Y2590186D01*
G01X10470962Y2815302D01*
G01X10471509Y2815746D01*
G01X10472061Y2816068D01*
G03X10511873Y2928075I-6726J65469D01*
G03X10399866Y2888264I-46538J-46537D01*
G01X10399544Y2887711D01*
G01X10399101Y2887164D01*
G01X10159101Y2647165D01*
G03X10144218Y2611234I35931J-35931D01*
G01X10144218Y2353186D01*
G37*
G36*
G01X10581571Y598095D02*
G03X10617385Y633909I0J35814D01*
G01X10617385Y783909D01*
G03X10581571Y819723I-35814J0D01*
G01X10431571Y819723D01*
G03X10395757Y783909I0J-35814D01*
G01X10395757Y633909D01*
G03X10431571Y598095I35814J0D01*
G01X10581571Y598095D01*
G37*
G36*
G01X10926732Y708909D02*
G03X11148360Y708909I110814J0D01*
G03X10926732Y708909I-110814J0D01*
G37*
G36*
G01X11021429Y2368486D02*
G01X11021356Y2367786D01*
G01X11021193Y2367168D01*
G03X11072243Y2259816I51050J-41538D01*
G03X11123293Y2367168I0J65814D01*
G01X11123130Y2367786D01*
G01X11123057Y2368486D01*
G01X11123057Y2477985D01*
G01X12128605Y3483532D01*
G01X12569607Y3483532D01*
G01X12570308Y3483459D01*
G01X12570925Y3483296D01*
G03X12678277Y3534346I41538J51050D01*
G03X12570926Y3585396I-65814J0D01*
G01X12570308Y3585233D01*
G01X12569607Y3585160D01*
G01X12107557Y3585160D01*
G03X12071626Y3570277I0J-50814D01*
G01X11036312Y2534963D01*
G03X11021429Y2499032I35931J-35931D01*
G01X11021429Y2368486D01*
G37*
G36*
G01X11620546Y598095D02*
G03X11656360Y633909I0J35814D01*
G01X11656360Y783909D01*
G03X11620546Y819723I-35814J0D01*
G01X11470546Y819723D01*
G03X11434732Y783909I0J-35814D01*
G01X11434732Y633909D01*
G03X11470546Y598095I35814J0D01*
G01X11620546Y598095D01*
G37*
G36*
G01X12219121Y2314793D02*
G03X12312196Y2314793I46537J46537D01*
G03X12312196Y2407868I-46537J46537D01*
G01X11842990Y2877074D01*
G03X11796453Y2896351I-46537J-46537D01*
G01X11587350Y2896351D01*
G03X11521536Y2830537I0J-65814D01*
G03X11587350Y2764723I65814J0D01*
G01X11769192Y2764723D01*
G01X12219121Y2314793D01*
G37*
G36*
G01X12500314Y2993500D02*
G03X11879486Y2993500I-310414J0D01*
G03X12500314Y2993500I310414J0D01*
G37*
G36*
G01X13447172Y2998293D02*
G03X12517928Y2998293I-464622J0D01*
G03X13447172Y2998293I464622J0D01*
G37*
G36*
G01X12919115Y2128915D02*
G03X12954929Y2093101I35814J0D01*
G01X13094929Y2093101D01*
G03X13130743Y2128915I0J35814D01*
G01X13130743Y2268915D01*
G03X13094929Y2304729I-35814J0D01*
G01X12954929Y2304729D01*
G03X12919115Y2268915I0J-35814D01*
G01X12919115Y2128915D01*
G37*
G36*
G01X13051069Y292830D02*
G03X13051069Y534384I0J120777D01*
G03X13051069Y292830I0J-120777D01*
G37*
G36*
G01X13278929Y1796729D02*
G03X13278929Y1585101I0J-105814D01*
G03X13278929Y1796729I0J105814D01*
G37*
G36*
G01X13582476Y3214429D02*
G01X13682476Y3214429D01*
G03X13682476Y3436057I0J110814D01*
G01X13582476Y3436057D01*
G03X13582476Y3214429I0J-110814D01*
G37*
%LPD*%
G36*
G01X5183773Y2913783D02*
G03X5232022Y2967736I-12306J59556D01*
G03X5194490Y3029626I-60555J5602D01*
G01X5951503Y3029626D01*
G01X5726727Y2804850D01*
G01X5690393Y2804850D01*
G03X5663821Y2866092I-59920J10387D01*
G03X5597062Y2866050I-33348J-50855D01*
G01X5496286Y2866050D01*
G03X5411787Y2804850I-23916J-55914D01*
G01X5324469Y2804850D01*
G03X5288538Y2789967I0J-50814D01*
G01X5155980Y2657409D01*
G01X5155980Y2885990D01*
G01X5183773Y2913783D01*
G37*
G36*
G01X9506336Y2091675D02*
G01X9506336Y2574886D01*
G01X9563151Y2631700D01*
G01X9563698Y2632144D01*
G01X9564250Y2632466D01*
G03X9620985Y2715375I-6726J65469D01*
G03X9529848Y2757647I-63461J-17440D01*
G03X9481867Y2793416I-59025J-29112D01*
G03X9424753Y2775536I-11044J-64881D01*
G01X9424741Y2874434D01*
G01X9424808Y2875082D01*
G01X9424971Y2875700D01*
G03X9393909Y2979943I-51050J41538D01*
G01X9533509Y3119543D01*
G03X9612839Y3170386I18915J57798D01*
G03X9547137Y3237925I-60415J6955D01*
G01X9547137Y3528233D01*
G03X9496323Y3622458I-50814J33411D01*
G03X9445509Y3528233I0J-60814D01*
G01X9445509Y3359663D01*
G01X9445509Y3359663D01*
G03X9384267Y3333090I-10387J-59920D01*
G03X9384308Y3266332I50855J-33348D01*
G01X9384308Y3249390D01*
G01X9360338Y3225420D01*
G03X9341277Y3241137I-47414J-38082D01*
G01X9343551Y3243412D01*
G03X9349465Y3250513I-35931J35931D01*
G03X9342558Y3344419I-41844J44129D01*
G01X9377723Y3379585D01*
G03X9414306Y3480110I-8902J60159D01*
G03X9310146Y3455731I-45485J-40367D01*
G01X9308670Y3454253D01*
G01X9041909Y3187493D01*
G03X8997202Y3225884I-60693J-25453D01*
G03X8939679Y3213091I-15986J-63843D01*
G01X8939331Y3212999D01*
G01X9445167Y3718835D01*
G01X9706723Y3718835D01*
G02X9797914Y3454649I-337086J-264186D01*
G01X9797914Y1944731D01*
G03X9805183Y1912338I75814J0D01*
G01X9685673Y1912338D01*
G01X9506336Y2091675D01*
G37*
G36*
G01X10684452Y2160372D02*
G01X10684524Y2161073D01*
G01X10684687Y2161691D01*
G03X10699452Y2203255I-51050J41538D01*
G01X10771109Y2131597D01*
G03X10807040Y2116714I35931J35931D01*
G01X11352099Y2116714D01*
G01X11403934Y2064879D01*
G01X11403934Y1929881D01*
G01X11403861Y1929180D01*
G01X11403698Y1928562D01*
G03X11389622Y1896511I51050J-41538D01*
G01X11245876Y2040257D01*
G03X11209945Y2055140I-35931J-35931D01*
G01X11094699Y2055140D01*
G01X11093999Y2055213D01*
G01X11093381Y2055376D01*
G03X10994839Y2037220I-41538J-51050D01*
G03X10880991Y2074369I-65397J-7393D01*
G03X10773711Y2059332I-48451J-44542D01*
G03X10825814Y1964357I58829J-29506D01*
G01X10826366Y1964035D01*
G01X10826913Y1963591D01*
G01X11750278Y1040227D01*
G01X11705299Y1040227D01*
G01X11674282Y1071244D01*
G03X11638351Y1086127I-35931J-35931D01*
G01X11363595Y1086127D01*
G01X11078796Y1370926D01*
G03X11108317Y1474656I-21529J62193D01*
G01X11108154Y1475274D01*
G01X11108081Y1475975D01*
G01X11108081Y1601097D01*
G03X11093198Y1637028I-50814J0D01*
G01X10684452Y2045774D01*
G01X10684452Y2160372D01*
G37*
G54D10*
G01X35814Y36873D02*
G01X35814Y1905102D01*
G03X173637Y2024714I17008J119612D01*
G03X35814Y2144325I-120815J0D01*
G01X35814Y3491443D01*
G02X519641Y3975270I483827J0D01*
G01X13747750Y3975270D01*
G03X13756179Y3976276I0J35814D01*
G02X14258957Y3477788I-7372J-510233D01*
G03X14256977Y3466043I33833J-11745D01*
G01X14256977Y528109D01*
G02X13765741Y36873I-491236J0D01*
G01X12353622Y36873D01*
G03X12404107Y525260I-163722J263727D01*
G01X12404716Y525421D01*
G01X12405416Y525493D01*
G01X12959769Y525493D01*
G03X12995700Y540377I0J50814D01*
G01X13004340Y549016D01*
G01X13007098Y551543D01*
G01X13008054Y552255D01*
G01X13008930Y552171D01*
G01X13016087Y550923D01*
G01X13025486Y549123D01*
G01X13027722Y548767D01*
G01X13038681Y547379D01*
G03X13041575Y547131I4501J35530D01*
G01X13047652Y546858D01*
G01X13050021Y546830D01*
G03X13136471Y753009I978J120804D01*
G03X12930292Y666559I-85375J-85472D01*
G01X12930320Y664190D01*
G01X12930593Y658114D01*
G03X12930841Y655219I35778J1606D01*
G01X12932229Y644260D01*
G01X12932585Y642024D01*
G01X12934385Y632625D01*
G01X12935344Y627121D01*
G01X12828445Y627121D01*
G01X13004340Y803016D01*
G01X13007098Y805543D01*
G01X13008054Y806255D01*
G01X13008930Y806171D01*
G01X13016087Y804923D01*
G01X13025486Y803123D01*
G01X13027722Y802767D01*
G01X13038681Y801379D01*
G03X13041575Y801131I4501J35530D01*
G01X13047652Y800858D01*
G01X13050021Y800830D01*
G03X13136471Y1007009I978J120804D01*
G03X12930292Y920559I-85375J-85472D01*
G01X12930320Y918190D01*
G01X12930593Y912114D01*
G03X12930841Y909219I35778J1606D01*
G01X12932229Y898260D01*
G01X12932585Y896024D01*
G01X12934385Y886625D01*
G01X12935633Y879468D01*
G01X12935717Y878592D01*
G01X12935005Y877636D01*
G01X12932478Y874878D01*
G01X12756122Y698522D01*
G01X12318715Y698522D01*
G01X12318015Y698595D01*
G01X12317397Y698758D01*
G03X12230738Y695621I-41538J-51050D01*
G03X12222410Y609307I45120J-47913D01*
G03X12026178Y36873I-32510J-308707D01*
G01X2677068Y36873D01*
G03X2508300Y607814I-168768J260527D01*
G03X2339532Y36873I0J-310414D01*
G01X35814Y36873D01*
G01X1477164Y3004593D02*
G03X531536Y3004593I-472814J0D01*
G03X1477164Y3004593I472814J0D01*
G01X8719758Y3606830D02*
G01X8720376Y3606667D01*
G03X8813207Y3616480I41538J51050D01*
G03X8802846Y3709253I-51294J41236D01*
G03X8749103Y3809215I-56233J34196D01*
G03X8726213Y3814663I-22890J-45367D01*
G01X4860855Y3814663D01*
G03X4855649Y3902437I-51493J40987D01*
G03X4767825Y3906700I-46287J-46787D01*
G01X4767207Y3906537D01*
G01X4766506Y3906464D01*
G01X889894Y3906464D01*
G01X888017Y3906598D01*
G01X886287Y3906920D01*
G01X885308Y3907218D01*
G01X884579Y3907569D01*
G03X803938Y3895818I-32868J-57019D01*
G03X796542Y3814663I47773J-45269D01*
G01X675264Y3814663D01*
G01X674564Y3814735D01*
G01X673946Y3814899D01*
G03X566594Y3763849I-41538J-51050D01*
G03X673946Y3712799I65814J-0D01*
G01X674564Y3712962D01*
G01X675264Y3713035D01*
G01X2657179Y3713035D01*
G03X2639569Y3619061I35656J-55318D01*
G03X2734372Y3606666I53265J38656D01*
G01X2734991Y3606830D01*
G01X2735691Y3606902D01*
G01X8719057Y3606902D01*
G01X8719758Y3606830D01*
G01X1144982Y870068D02*
G03X929209Y928595I-115824J0D01*
G03X713436Y870068I-99949J-58527D01*
G03X929209Y811541I115824J0D01*
G03X1144982Y870068I99949J58527D01*
G01X977814Y1878900D02*
G03X977814Y2170527I0J145814D01*
G03X977814Y1878900I0J-145814D01*
G01X1029158Y735956D02*
G03X1029158Y504308I0J-115824D01*
G03X1029158Y735956I0J115824D01*
G01X1708200Y2705486D02*
G01X2048200Y2705486D01*
G03X2048200Y2937114I0J115814D01*
G01X1708200Y2937114D01*
G03X1708200Y2705486I0J-115814D01*
G01X2551850Y1007114D02*
G01X1708200Y1007114D01*
G03X1708200Y775486I0J-115814D01*
G01X2599822Y775486D01*
G03X2681715Y809407I0J115814D01*
G01X2776507Y904199D01*
G01X4569659Y904199D01*
G03X4665521Y1085001I0J115814D01*
G03X4638009Y1127420I-60161J-8887D01*
G03X4587930Y1134377I-32650J-51306D01*
G03X4569659Y1135827I-18271J-114364D01*
G01X4545477Y1135827D01*
G03X4522441Y1135827I-11518J-59713D01*
G01X2728535Y1135827D01*
G03X2646642Y1101906I0J-115814D01*
G01X2551850Y1007114D01*
G01X2824102Y707575D02*
G03X2784636Y723923I-39466J-39466D01*
G01X2249129Y723923D01*
G03X2209663Y707575I0J-55814D01*
G01X2062808Y560720D01*
G01X1911699Y560720D01*
G03X1811010Y504907I-34875J-55814D01*
G03X1911699Y449093I65814J0D01*
G01X2085927Y449093D01*
G03X2125393Y465440I0J55814D01*
G01X2272248Y612295D01*
G01X2761517Y612295D01*
G01X3193975Y179836D01*
G03X3233442Y163489I39466J39466D01*
G01X3779974Y163489D01*
G03X3880663Y219303I34875J55814D01*
G03X3779974Y275117I-65814J0D01*
G01X3256561Y275117D01*
G01X2824102Y707575D01*
G01X2813414Y3003000D02*
G03X2192586Y3003000I-310414J0D01*
G03X2813414Y3003000I310414J0D01*
G01X4589422Y1896588D02*
G03X4701429Y1936399I46538J46537D01*
G01X4701751Y1936951D01*
G01X4702195Y1937498D01*
G01X4827629Y2062932D01*
G03X4921308Y2022426I63334J17895D01*
G03X4942013Y2122365I-30344J58401D01*
G01X4941850Y2122983D01*
G01X4941777Y2123683D01*
G01X4941777Y2824789D01*
G01X5116641Y2999652D01*
G03X5111911Y2985644I54826J-26314D01*
G01X5069235Y2942969D01*
G03X5054352Y2907038I35931J-35931D01*
G01X5054352Y2512043D01*
G03X5061086Y2436736I50814J-33411D01*
G03X5135953Y2426187I44080J41896D01*
G01X5135953Y2422531D01*
G03X5150836Y2386600I50814J0D01*
G01X5193512Y2343925D01*
G03X5296070Y2313229I59556J12306D01*
G03X5265374Y2415786I-43002J43002D01*
G01X5237581Y2443579D01*
G01X5237581Y2447395D01*
G03X5302445Y2470704I15487J58809D01*
G03X5303882Y2539614I-49377J35500D01*
G01X5303882Y2549385D01*
G01X5406718Y2652221D01*
G01X5798775Y2652221D01*
G03X5834706Y2667104I0J50814D01*
G01X6085026Y2917424D01*
G01X8843240Y2917424D01*
G01X8740866Y2815050D01*
G01X8612731Y2815050D01*
G03X8586158Y2876292I-59920J10387D01*
G03X8519400Y2876251I-33348J-50855D01*
G01X8403905Y2876251D01*
G03X8309196Y2826008I-33809J-50656D01*
G03X8310125Y2815050I60813J-367D01*
G01X7994614Y2815050D01*
G03X7927792Y2815050I-33411J-50814D01*
G01X7107100Y2815050D01*
G03X7080288Y2882252I-58809J15487D01*
G03X7008184Y2876251I-31997J-51716D01*
G01X6882799Y2876251D01*
G03X6816041Y2876292I-33411J-50814D01*
G03X6789468Y2815050I33348J-50855D01*
G01X6696387Y2815050D01*
G03X6660456Y2800167I0J-50814D01*
G01X6497254Y2636965D01*
G03X6482371Y2601034I35931J-35931D01*
G01X6482371Y2254877D01*
G01X6454578Y2227084D01*
G03X6423882Y2124526I12306J-59556D01*
G03X6526440Y2155222I43002J43002D01*
G01X6569115Y2197898D01*
G03X6583999Y2233829I-35931J35931D01*
G01X6583999Y2368822D01*
G03X6648863Y2392132I15487J58809D01*
G03X6650299Y2461042I-49377J35500D01*
G01X6650299Y2501510D01*
G03X6703754Y2463785I56287J23023D01*
G03X6760487Y2496371I2833J60748D01*
G01X6875537Y2611420D01*
G01X7909710Y2611420D01*
G03X7910153Y2528896I51493J-40987D01*
G01X7910316Y2528278D01*
G01X7910389Y2527577D01*
G01X7910389Y2263176D01*
G03X7875051Y2150434I10013J-65048D01*
G03X7985872Y2191402I45351J47694D01*
G01X7986193Y2191955D01*
G01X7986637Y2192501D01*
G01X7997134Y2202998D01*
G03X8012017Y2238929I-35931J35931D01*
G01X8012017Y2527577D01*
G01X8012090Y2528278D01*
G01X8012253Y2528895D01*
G03X8012696Y2611420I-51050J41538D01*
G01X8141517Y2611420D01*
G02X8155192Y2557235I-100510J-54186D01*
G01X8155192Y2547743D01*
G03X8206006Y2453519I50814J-33411D01*
G03X8256820Y2547743I0J60814D01*
G01X8256820Y2557235D01*
G02X8270496Y2611420I114186J0D01*
G01X8895337Y2611420D01*
G03X8894702Y2603412I50179J-8009D01*
G01X8894702Y2348086D01*
G01X8894629Y2347385D01*
G01X8894466Y2346768D01*
G03X8945516Y2239416I51050J-41538D01*
G03X8996566Y2346767I0J65814D01*
G01X8996403Y2347385D01*
G01X8996330Y2348086D01*
G01X8996330Y2582364D01*
G01X9243231Y2829266D01*
G03X9247152Y2823918I54971J36190D01*
G01X9247315Y2823300D01*
G01X9247388Y2822599D01*
G01X9247388Y1972944D01*
G03X9262271Y1937013I50814J0D01*
G01X9633794Y1565490D01*
G03X9669725Y1550607I35931J35931D01*
G01X9861472Y1550607D01*
G01X9862173Y1550534D01*
G01X9862790Y1550371D01*
G03X9970142Y1601421I41538J51050D01*
G03X9862791Y1652471I-65814J0D01*
G01X9862173Y1652308D01*
G01X9861472Y1652235D01*
G01X9690773Y1652235D01*
G01X9654699Y1688309D01*
G01X10016530Y1688309D01*
G03X10052461Y1703192I0J50814D01*
G01X10570268Y2220999D01*
G03X10582588Y2161691I63369J-17771D01*
G01X10582751Y2161073D01*
G01X10582824Y2160372D01*
G01X10582824Y2024726D01*
G03X10597707Y1988795I50814J0D01*
G01X11006453Y1580049D01*
G01X11006453Y1475975D01*
G01X11006380Y1475274D01*
G01X11006217Y1474656D01*
G03X10995074Y1454648I51050J-41538D01*
G01X10893971Y1555751D01*
G03X10858041Y1570634I-35931J-35931D01*
G01X10809096Y1570634D01*
G01X10808395Y1570706D01*
G01X10807777Y1570869D01*
G03X10731132Y1575488I-41538J-51050D01*
G03X10702273Y1504333I35108J-55668D01*
G01X10651202Y1504333D01*
G03X10537221Y1509108I-58365J-30414D01*
G03X10590348Y1408152I55617J-35189D01*
G01X10590348Y1408152D01*
G03X10613237Y1402705I22890J45367D01*
G01X10816592Y1402705D01*
G01X10824937Y1394360D01*
G03X10808853Y1384717I25453J-60693D01*
G01X10808235Y1384554D01*
G01X10807534Y1384481D01*
G01X10635220Y1384529D01*
G03X10556454Y1298514I-16882J-63612D01*
G03X10672027Y1282853I61884J22403D01*
G01X10807534Y1282853D01*
G01X10808235Y1282780D01*
G01X10808852Y1282617D01*
G03X10911083Y1308214I41538J51050D01*
G01X11357617Y861681D01*
G03X11393547Y846798I35931J35931D01*
G01X11651595Y846798D01*
G01X11652296Y846725D01*
G01X11652914Y846562D01*
G03X11740738Y850825I41538J51050D01*
G03X11745944Y938599I-46287J46787D01*
G01X12323427Y938599D01*
G03X12359358Y953482I0J50814D01*
G01X12992665Y1586789D01*
G01X12993772Y1587804D01*
G01X12998225Y1587334D01*
G01X13005525Y1586345D01*
G01X13007018Y1586175D01*
G01X13015708Y1585367D01*
G03X13019008Y1585214I3314J35660D01*
G01X13020063Y1585213D01*
G03X13029795Y1585213I4866J105702D01*
G01X13030851Y1585214D01*
G03X13034150Y1585367I-14J35814D01*
G01X13042841Y1586175D01*
G01X13044334Y1586345D01*
G01X13051633Y1587334D01*
G01X13056087Y1587804D01*
G01X13057194Y1586789D01*
G01X13097156Y1546827D01*
G01X13097156Y1514245D01*
G03X12919115Y1436915I-72227J-77330D01*
G03X13097156Y1359586I105814J0D01*
G01X13097156Y1203616D01*
G03X13112039Y1167685I50814J0D01*
G01X13520699Y759025D01*
G03X13540535Y539186I19835J-109024D01*
G01X13640535Y539186D01*
G03X13641377Y760811I0J110814D01*
G01X13641343Y761835D01*
G03X13626466Y796982I-50808J-784D01*
G01X13198784Y1224663D01*
G01X13198784Y1367826D01*
G03X13384743Y1436915I80145J69089D01*
G03X13198784Y1506005I-105814J0D01*
G01X13198784Y1567874D01*
G03X13183901Y1603805I-50814J0D01*
G01X13129056Y1658651D01*
G01X13128041Y1659758D01*
G01X13128511Y1664211D01*
G01X13129499Y1671511D01*
G01X13129670Y1673004D01*
G01X13130477Y1681695D01*
G03X13130631Y1684994I-35660J3314D01*
G01X13130631Y1686049D01*
G03X13024929Y1796729I-105702J4866D01*
G03X12919227Y1686049I0J-105814D01*
G01X12919228Y1684994D01*
G03X12919381Y1681695I35814J14D01*
G01X12920189Y1673004D01*
G01X12920359Y1671511D01*
G01X12921348Y1664211D01*
G01X12921818Y1659758D01*
G01X12920803Y1658651D01*
G01X12483400Y1221248D01*
G03X12412812Y1258312I-59639J-27832D01*
G03X12358291Y1200142I10948J-64897D01*
G01X12357970Y1199589D01*
G01X12357526Y1199042D01*
G01X12270111Y1111628D01*
G01X12214932Y1111628D01*
G01X12423991Y1320687D01*
G03X12438874Y1356618I-35931J35931D01*
G01X12438874Y1476963D01*
G01X12438947Y1477664D01*
G01X12439110Y1478282D01*
G03X12388060Y1585634I-51050J41538D01*
G03X12337010Y1478282I-0J-65814D01*
G01X12337174Y1477664D01*
G01X12337246Y1476963D01*
G01X12337246Y1377665D01*
G01X12142610Y1183029D01*
G01X11848101Y1183029D01*
G01X11084145Y1946984D01*
G03X11093381Y1953276I-32302J57342D01*
G01X11093999Y1953439D01*
G01X11094699Y1953512D01*
G01X11188897Y1953512D01*
G01X11546615Y1595794D01*
G01X11547059Y1595247D01*
G01X11547381Y1594695D01*
G03X11659388Y1554883I65469J6726D01*
G03X11619577Y1666890I-46537J46538D01*
G01X11619024Y1667212D01*
G01X11618477Y1667656D01*
G01X11464235Y1821898D01*
G03X11505798Y1928562I-9487J65127D01*
G01X11505635Y1929180D01*
G01X11505562Y1929881D01*
G01X11505562Y2085927D01*
G03X11490679Y2121858I-50814J0D01*
G01X11409078Y2203459D01*
G03X11373147Y2218342I-35931J-35931D01*
G01X10828088Y2218342D01*
G01X10730769Y2315660D01*
G03X10694838Y2330543I-35931J-35931D01*
G01X10557137Y2330543D01*
G03X10521206Y2315660I0J-50814D01*
G01X10255058Y2049513D01*
G03X10221664Y2097685I-65127J-9487D01*
G03X10214784Y2210831I-36832J54542D01*
G03X10119051Y2150130I-29952J-58603D01*
G01X9949542Y1980621D01*
G01X9949542Y3454649D01*
G02X10040733Y3718835I428277J0D01*
G01X10516336Y3718835D01*
G03X10571880Y3739235I0J85814D01*
G01X13530630Y3739235D01*
G01X13822066Y3447800D01*
G01X13822066Y3279187D01*
G01X13792054Y3249174D01*
G01X13777758Y3235089D01*
G01X13763752Y3222050D01*
G01X13749611Y3210133D01*
G01X13742962Y3205089D01*
G01X13736145Y3200358D01*
G01X13729385Y3196140D01*
G01X13722683Y3192458D01*
G01X13716038Y3189328D01*
G01X13709435Y3186757D01*
G01X13702842Y3184745D01*
G01X13696205Y3183290D01*
G01X13689450Y3182398D01*
G01X13681690Y3182057D01*
G01X13582476Y3182057D01*
G03X13546662Y2966376I0J-110814D01*
G01X13546662Y2588008D01*
G01X13262025Y2303370D01*
G03X13204107Y2124094I16904J-104455D01*
G03X13383384Y2182011I74822J74822D01*
G01X13693156Y2491783D01*
G03X13718290Y2552463I-60680J60680D01*
G01X13718290Y2964867D01*
G01X13720583Y2965400D01*
G03X13723711Y2966280I-8117J34882D01*
G01X13732729Y2969262D01*
G03X13735620Y2970358I-11245J34003D01*
G01X13744234Y2974059D01*
G03X13746810Y2975289I-14135J32907D01*
G01X13755072Y2979648D01*
G03X13757292Y2980922I-16711J31676D01*
G01X13765253Y2985879D01*
G01X13767108Y2987116D01*
G01X13774819Y2992611D01*
G01X13776325Y2993745D01*
G01X13783838Y2999720D01*
G01X13785023Y3000704D01*
G01X13789096Y3004239D01*
G03X13796161Y3010563I-53615J67004D01*
G01X13797690Y3012093D01*
G01X13808108Y3022013D01*
G01X13808953Y3022844D01*
G01X13838442Y3052846D01*
G01X13968560Y3182962D01*
G03X13993694Y3243642I-60680J60680D01*
G01X13993694Y3483345D01*
G03X13968560Y3544025I-85814J0D01*
G01X13626855Y3885729D01*
G01X13626855Y3885729D01*
G03X13566176Y3910864I-60680J-60680D01*
G01X10536736Y3910864D01*
G03X10481193Y3890463I0J-85814D01*
G01X9409622Y3890463D01*
G03X9348942Y3865329I0J-85814D01*
G01X8787991Y3304378D01*
G01X8786309Y3303956D01*
G01X4666560Y3303956D01*
G03X4605881Y3278821I0J-85814D01*
G01X4559980Y3232921D01*
G03X4535183Y3179839I60680J-60680D01*
G01X4476097Y3120753D01*
G01X4195128Y3120753D01*
G03X4218391Y3135777I-23274J61561D01*
G01X4387944Y3305330D01*
G01X4610460Y3305330D01*
G03X4676274Y3371144I0J65814D01*
G03X4610460Y3436958I-65814J0D01*
G01X4360683Y3436958D01*
G03X4314145Y3417681I0J-65814D01*
G01X4125317Y3228852D01*
G03X4148580Y3120753I46537J-46537D01*
G01X3026100Y3120753D01*
G01X2708772Y3438081D01*
G03X2615697Y3438081I-46537J-46537D01*
G03X2615697Y3345006I46537J-46537D01*
G01X2952301Y3008402D01*
G03X2998839Y2989126I46537J46537D01*
G01X4503358Y2989126D01*
G03X4549896Y3008402I0J65814D01*
G01X4628258Y3086764D01*
G03X4681339Y3111561I-7598J85477D01*
G01X4702106Y3132328D01*
G01X5003591Y3132328D01*
G01X4783631Y2912368D01*
G03X4768748Y2876437I35931J-35931D01*
G01X4768748Y2147775D01*
G01X4630333Y2009360D01*
G01X4629786Y2008916D01*
G01X4629234Y2008594D01*
G03X4589422Y1896588I6726J-65469D01*
G01X2871524Y2220584D02*
G01X2871451Y2219884D01*
G01X2871288Y2219266D01*
G03X2922338Y2111914I51050J-41538D01*
G03X2973388Y2219266I0J65814D01*
G01X2973225Y2219884D01*
G01X2973152Y2220584D01*
G01X2973152Y2692835D01*
G03X2958269Y2728766I-50814J0D01*
G01X2917172Y2769863D01*
G01X2916728Y2770410D01*
G01X2916406Y2770962D01*
G03X2804399Y2810773I-65469J-6726D01*
G03X2844211Y2698766I46537J-46538D01*
G01X2844763Y2698445D01*
G01X2845310Y2698001D01*
G01X2871524Y2671787D01*
G01X2871524Y2220584D01*
G01X3891706Y1519003D02*
G01X3978118Y1432592D01*
G01X3978561Y1432045D01*
G01X3978883Y1431493D01*
G03X4090890Y1391681I65469J6726D01*
G03X4051079Y1503688I-46537J46538D01*
G01X4050526Y1504010D01*
G01X4049979Y1504453D01*
G01X3948685Y1605748D01*
G03X3912754Y1620631I-35931J-35931D01*
G01X3322199Y1620631D01*
G01X3321498Y1620704D01*
G01X3320880Y1620867D01*
G03X3220799Y1599886I-41538J-51050D01*
G03X3262044Y1506317I58543J-30069D01*
G03X3220799Y1412748I17298J-63500D01*
G03X3320880Y1391767I58543J30069D01*
G01X3321498Y1391930D01*
G01X3322199Y1392003D01*
G01X3830004Y1392003D01*
G01X3942417Y1279590D01*
G01X3942861Y1279043D01*
G01X3943183Y1278491D01*
G03X4055189Y1238679I65469J6726D01*
G03X4015378Y1350686I-46537J46538D01*
G01X4014826Y1351008D01*
G01X4014279Y1351451D01*
G01X3886982Y1478748D01*
G03X3851051Y1493631I-35931J-35931D01*
G01X3322199Y1493631D01*
G01X3321498Y1493704D01*
G01X3320880Y1493867D01*
G03X3296641Y1506317I-41538J-51050D01*
G03X3320880Y1518767I-17298J63500D01*
G01X3321498Y1518930D01*
G01X3322199Y1519003D01*
G01X3891706Y1519003D01*
G01X4929055Y708909D02*
G03X5150682Y708909I110814J0D01*
G03X4929055Y708909I-110814J0D01*
G01X5996614Y630763D02*
G01X5998348Y628757D01*
G01X5999412Y627070D01*
G01X6000700Y624323D01*
G01X6001963Y620695D01*
G01X6003036Y616438D01*
G01X6003828Y611831D01*
G01X6004298Y607162D01*
G01X6004468Y602121D01*
G01X6004468Y596675D01*
G02X5907656Y567718I-96812J147362D01*
G01X5902577Y567718D01*
G03X5866763Y531904I0J-35814D01*
G01X5866763Y418904D01*
G03X5902577Y383090I35814J0D01*
G01X6082577Y383090D01*
G03X6118391Y418904I0J35814D01*
G01X6118391Y423983D01*
G02X6138604Y514670I213548J0D01*
G03X6156096Y563109I-58322J48439D01*
G01X6156096Y609387D01*
G01X6156681Y620538D01*
G01X6157284Y624997D01*
G01X6158210Y629617D01*
G01X6159345Y633704D01*
G01X6160586Y637024D01*
G01X6161755Y639372D01*
G01X6163479Y641952D01*
G03X6142287Y797095I-88297J66958D01*
G03X6135862Y804286I-67105J-53488D01*
G01X5451083Y1489064D01*
G01X5451083Y2187928D01*
G03X5279455Y2187928I-85814J0D01*
G01X5279455Y1453519D01*
G03X5304590Y1392839I85814J0D01*
G01X5966565Y730864D01*
G03X5996614Y630763I108617J-21955D01*
G01X5437055Y633909D02*
G03X5472869Y598095I35814J0D01*
G01X5622868Y598095D01*
G03X5658682Y633909I0J35814D01*
G01X5658682Y783909D01*
G03X5656747Y795524I-35814J0D01*
G02X5633683Y933909I403623J138385D01*
G01X5633683Y989413D01*
G03X5462054Y989413I-85814J0D01*
G01X5462054Y933909D01*
G02X5438990Y795524I-426687J0D01*
G03X5437055Y783909I33878J-11615D01*
G01X5437055Y633909D01*
G01X5483458Y1983926D02*
G01X5483458Y1519820D01*
G03X5508592Y1459140I85814J0D01*
G01X6223986Y743746D01*
G03X6250614Y630763I105196J-34837D01*
G01X6252348Y628757D01*
G01X6253412Y627070D01*
G01X6254700Y624323D01*
G01X6254924Y623678D01*
G02X6221426Y567718I-110643J28226D01*
G01X6215381Y567718D01*
G03X6179567Y531904I0J-35814D01*
G01X6179567Y418904D01*
G03X6215381Y383090I35814J0D01*
G01X6395381Y383090D01*
G03X6431195Y418904I0J35814D01*
G01X6431195Y531904D01*
G03X6429047Y544121I-35814J0D01*
G02X6411259Y624814I297029J107784D01*
G01X6412210Y629617D01*
G01X6413345Y633704D01*
G01X6414586Y637024D01*
G01X6415755Y639372D01*
G01X6417479Y641952D01*
G03X6411941Y782602I-88297J66958D01*
G03X6389862Y820590I-82759J-22692D01*
G01X5655086Y1555365D01*
G01X5655086Y1557449D01*
G01X6475894Y736641D01*
G03X6504614Y630763I107288J-27732D01*
G01X6506348Y628757D01*
G01X6507412Y627070D01*
G01X6508700Y624323D01*
G01X6509963Y620695D01*
G01X6510708Y617739D01*
G02X6494326Y543573I-330747J34165D01*
G03X6492371Y531904I33860J-11668D01*
G01X6492371Y418904D01*
G03X6528185Y383090I35814J0D01*
G01X6708185Y383090D01*
G03X6743999Y418904I0J35814D01*
G01X6743999Y531904D01*
G03X6708185Y567718I-35814J0D01*
G01X6701138Y567718D01*
G02X6666258Y629790I77144J84186D01*
G01X6667345Y633704D01*
G01X6668586Y637024D01*
G01X6669755Y639372D01*
G01X6671479Y641952D01*
G03X6660177Y788606I-88297J66958D01*
G03X6643862Y811393I-76995J-37893D01*
G01X5777488Y1677767D01*
G01X5777488Y1973726D01*
G03X5663658Y2054837I-85814J0D01*
G03X5632115Y2042362I7616J-65372D01*
G03X5483458Y1983926I-62843J-58437D01*
G01X6726368Y649939D02*
G01X6726368Y633909D01*
G03X6762182Y598095I35814J0D01*
G01X6775860Y598095D01*
G02X6844677Y584149I0J-176762D01*
G02X6822567Y562617I-56652J36052D01*
G03X6805175Y531904I18423J-30712D01*
G01X6805175Y418904D01*
G03X6840989Y383090I35814J0D01*
G01X7020989Y383090D01*
G03X7056803Y418904I0J35814D01*
G01X7056803Y531904D01*
G03X7039412Y562617I-35814J0D01*
G02X7006803Y620202I34542J57585D01*
G03X6984598Y673810I-75814J0D01*
G01X6981816Y676592D01*
G02X6947996Y780431I142498J103838D01*
G01X6947996Y783909D01*
G03X6927591Y816239I-35814J0D01*
G02X6813199Y897058I177775J372987D01*
G01X5981490Y1728767D01*
G01X5981490Y2131828D01*
G03X5809862Y2131828I-85814J0D01*
G01X5809862Y1693222D01*
G03X5834997Y1632542I85814J0D01*
G01X6681959Y785580D01*
G02X6726368Y649939I-184942J-135640D01*
G01X6719349Y1201941D02*
G03X6744483Y1141261I85814J0D01*
G01X7093275Y792469D01*
G03X7153954Y767335I60680J60680D01*
G01X7213872Y767335D01*
G01X7279871Y701337D01*
G01X7279296Y700171D01*
G01X7276995Y696363D01*
G01X7274263Y692524D01*
G01X7271278Y688883D01*
G01X7267841Y685209D01*
G01X7259886Y677255D01*
G03X7237680Y623646I53609J-53609D01*
G02X7207253Y574024I-55676J0D01*
G03X7187680Y542104I16242J-31920D01*
G01X7187680Y429104D01*
G03X7223494Y393290I35814J0D01*
G01X7403494Y393290D01*
G03X7439308Y429104I0J35814D01*
G01X7439308Y542104D01*
G03X7419736Y574024I-35814J0D01*
G02X7396917Y595550I25249J49622D01*
G01X7397973Y596132D01*
G01X7401175Y597542D01*
G01X7403605Y598315D01*
G01X7406589Y598852D01*
G03X7484165Y644971I-12932J110057D01*
G03X7501709Y733498I-90508J63938D01*
G01X7537401Y697806D01*
G03X7569090Y630763I110256J11103D01*
G01X7570824Y628757D01*
G01X7571588Y627545D01*
G02X7539901Y577918I-108831J34559D01*
G01X7517598Y577918D01*
G03X7481784Y542104I0J-35814D01*
G01X7481784Y429104D01*
G03X7517598Y393290I35814J0D01*
G01X7697598Y393290D01*
G03X7733412Y429104I0J35814D01*
G01X7733412Y542104D01*
G03X7733296Y544989I-35814J0D01*
G01X7733296Y544989D01*
G02X7729164Y620594I1449342J117116D01*
G01X7729760Y624997D01*
G01X7730686Y629617D01*
G01X7731821Y633704D01*
G01X7733061Y637024D01*
G01X7734231Y639372D01*
G01X7735955Y641952D01*
G03X7755709Y733498I-88297J66958D01*
G01X7791401Y697806D01*
G03X7818081Y636145I110256J11103D01*
G01X7819819Y633865D01*
G01X7820972Y631822D01*
G01X7821880Y629678D01*
G02X7786484Y567534I-129179J32426D01*
G03X7775888Y542104I25218J-25430D01*
G01X7775888Y429104D01*
G03X7811702Y393290I35814J0D01*
G01X7991702Y393290D01*
G03X8027516Y429104I0J35814D01*
G01X8027516Y542104D01*
G03X8016920Y567534I-35814J0D01*
G02X7981509Y629737I93782J94570D01*
G01X7982427Y631909D01*
G01X7983581Y633958D01*
G01X7985319Y636243D01*
G03X7912761Y819166I-83662J72667D01*
G01X7813027Y918899D01*
G01X7946058Y918899D01*
G01X8055529Y809428D01*
G03X8044844Y783909I25128J-25519D01*
G01X8044844Y633909D01*
G03X8080658Y598095I35814J0D01*
G01X8082949Y598095D01*
G02X8095289Y584840I-77144J-84186D01*
G02X8080588Y567534I-108484J77265D01*
G03X8069992Y542104I25218J-25430D01*
G01X8069992Y429104D01*
G03X8105806Y393290I35814J0D01*
G01X8285806Y393290D01*
G03X8321620Y429104I0J35814D01*
G01X8321620Y542104D01*
G03X8311024Y567534I-35814J0D01*
G02X8271620Y662104I93782J94570D01*
G01X8271620Y673861D01*
G03X8266472Y701322I-75814J0D01*
G01X8266472Y783909D01*
G03X8250543Y813695I-35814J0D01*
G02X8241472Y830659I11325J16964D01*
G03X8216337Y891338I-85814J0D01*
G01X8042283Y1065393D01*
G03X7981603Y1090527I-60680J-60680D01*
G01X7828446Y1090527D01*
G01X7445209Y1473764D01*
G01X7445209Y2157328D01*
G03X7273581Y2157328I-85814J0D01*
G01X7273581Y1458345D01*
G01X7230637Y1501289D01*
G01X7230637Y1994496D01*
G03X7205502Y2055175I-85814J0D01*
G01X7200772Y2059906D01*
G03X7071779Y2051161I-60680J-60680D01*
G03X6931351Y1961382I-59188J-62136D01*
G01X6931351Y1339402D01*
G03X6956485Y1278722I85814J0D01*
G01X7418247Y816961D01*
G03X7404761Y819166I-24589J-108051D01*
G01X7310097Y913829D01*
G03X7249418Y938963I-60680J-60680D01*
G01X7189500Y938963D01*
G01X6890977Y1237486D01*
G01X6890977Y2077586D01*
G03X6768309Y2197607I-61988J59342D01*
G01X6744483Y2173782D01*
G03X6719349Y2113102I60680J-60680D01*
G01X6719349Y1201941D01*
G01X8359895Y1989026D02*
G01X8359895Y1253552D01*
G01X8359900Y1252683D01*
G01X8358121Y1254461D01*
G01X8358121Y2152228D01*
G03X8186493Y2152228I-85814J0D01*
G01X8186493Y1218916D01*
G03X8211627Y1158236I85814J0D01*
G01X8612483Y757381D01*
G03X8601333Y710627I99651J-48471D01*
G01X8600994Y704167D01*
G01X8600129Y699201D01*
G01X8599975Y698839D01*
G03X8578998Y646487I54837J-52351D01*
G02X8542365Y570011I-98144J0D01*
G03X8528998Y542104I22446J-27907D01*
G01X8528998Y429104D01*
G03X8564812Y393290I35814J0D01*
G01X8744812Y393290D01*
G03X8780626Y429104I0J35814D01*
G01X8780626Y542104D01*
G03X8767258Y570011I-35814J0D01*
G02X8741288Y601999I61512J76476D01*
G03X8797947Y779089I-29177J106944D01*
G01X8797943Y779959D01*
G01X8856075Y721827D01*
G03X8887566Y630763I110058J-12918D01*
G01X8889300Y628757D01*
G01X8890064Y627545D01*
G02X8857775Y577370I-108831J34559D01*
G03X8828202Y542104I6241J-35266D01*
G01X8828202Y429104D01*
G03X8864016Y393290I35814J0D01*
G01X9044016Y393290D01*
G03X9079830Y429104I0J35814D01*
G01X9079830Y542104D01*
G03X9074855Y560313I-35814J0D01*
G02X9049503Y630846I172403J101791D01*
G01X9050297Y633704D01*
G01X9051537Y637024D01*
G01X9052707Y639372D01*
G01X9054431Y641952D01*
G03X9074185Y733498I-88297J66958D01*
G01X9109877Y697806D01*
G03X9167396Y611449I110256J11103D01*
G02X9138001Y567534I-123177J50656D01*
G03X9127406Y542104I25218J-25430D01*
G01X9127406Y429104D01*
G03X9163220Y393290I35814J0D01*
G01X9343219Y393290D01*
G03X9379033Y429104I0J35814D01*
G01X9379033Y542104D01*
G03X9368438Y567534I-35814J0D01*
G02X9329034Y662104I93782J94570D01*
G01X9329034Y680923D01*
G03X9328781Y687105I-75814J0D01*
G03X9231236Y819166I-108648J21804D01*
G01X8689625Y1360777D01*
G01X8689625Y2004326D01*
G03X8532879Y2052623I-85814J0D01*
G03X8491610Y2064840I-41269J-63598D01*
G01X8485912Y2064840D01*
G03X8359895Y1989026I-40203J-75814D01*
G01X8914028Y1383343D02*
G01X8914028Y2157328D01*
G03X8742400Y2157328I-85814J0D01*
G01X8742400Y1347798D01*
G03X8767535Y1287118I85814J0D01*
G01X9176920Y877732D01*
G01X9176920Y877732D01*
G03X9237600Y852598I60680J60680D01*
G01X9343476Y852598D01*
G01X9379814Y816261D01*
G02X9374101Y809522I-38726J27040D01*
G03X9363319Y783909I25033J-25613D01*
G01X9363319Y633909D01*
G03X9399133Y598095I35814J0D01*
G01X9412812Y598095D01*
G02X9462994Y592055I0J-211495D01*
G02X9442507Y571870I-63209J43664D01*
G03X9426609Y542104I19916J-29766D01*
G01X9426609Y429104D01*
G03X9462423Y393290I35814J0D01*
G01X9642423Y393290D01*
G03X9678237Y429104I0J35814D01*
G01X9678237Y542104D01*
G03X9662339Y571870I-35814J0D01*
G02X9628237Y635719I42722J63849D01*
G03X9609786Y685291I-75814J0D01*
G02X9584947Y780431I169792J95140D01*
G01X9584947Y783909D01*
G03X9574166Y809522I-35814J0D01*
G02X9559947Y843300I33013J33778D01*
G03X9534813Y903980I-85814J0D01*
G01X9439701Y999092D01*
G01X9439701Y999092D01*
G03X9379021Y1024226I-60680J-60680D01*
G01X9273145Y1024226D01*
G01X8914028Y1383343D01*
G01X9887757Y708909D02*
G03X10109385Y708909I110814J0D01*
G03X9887757Y708909I-110814J0D01*
G01X9989862Y2905628D02*
G01X9990887Y2899104D01*
G01X9991254Y2895055D01*
G01X9991416Y2890062D01*
G01X9991416Y2596815D01*
G01X9991254Y2591822D01*
G01X9990887Y2587772D01*
G01X9989862Y2581249D01*
G03X10052230Y2494419I62368J-21015D01*
G03X10114599Y2581249I0J65814D01*
G01X10113573Y2587772D01*
G01X10113206Y2591822D01*
G01X10113044Y2596815D01*
G01X10113044Y2890062D01*
G01X10113206Y2895055D01*
G01X10113573Y2899104D01*
G01X10114599Y2905628D01*
G03X10114599Y2947659I-62368J21015D01*
G01X10113573Y2954183D01*
G01X10113206Y2958232D01*
G01X10113044Y2963225D01*
G01X10113044Y2968549D01*
G01X10383927Y3239432D01*
G01X10398771Y3239432D01*
G03X10353544Y3178970I15564J-58789D01*
G03X10402029Y3121088I60791J1674D01*
G01X10631610Y2891507D01*
G03X10667541Y2876624I35931J35931D01*
G01X10924528Y2876624D01*
G01X10924528Y2691346D01*
G03X10975342Y2597121I50814J-33411D01*
G03X11026156Y2691346I0J60814D01*
G01X11026156Y2887331D01*
G03X11026317Y2967361I-45714J40107D01*
G03X10947031Y2978252I-45875J-39923D01*
G01X10688588Y2978252D01*
G01X10473891Y3192950D01*
G03X10429899Y3239432I-59556J-12306D01*
G01X10429899Y3239432D01*
G01X10719457Y3239432D01*
G01X10724450Y3239270D01*
G01X10728500Y3238903D01*
G01X10735024Y3237878D01*
G03X10821853Y3300246I21015J62368D01*
G03X10735024Y3362615I-65814J0D01*
G01X10728500Y3361589D01*
G01X10724450Y3361222D01*
G01X10719457Y3361060D01*
G01X10358737Y3361060D01*
G03X10315736Y3343248I0J-60814D01*
G01X10009228Y3036741D01*
G03X9991416Y2993739I43002J-43002D01*
G01X9991416Y2963225D01*
G01X9991254Y2958232D01*
G01X9990887Y2954183D01*
G01X9989862Y2947659D01*
G03X9989862Y2905628I62368J-21015D01*
G01X10144218Y2353186D02*
G01X10144145Y2352486D01*
G01X10143982Y2351868D01*
G03X10195032Y2244516I51050J-41538D01*
G03X10246082Y2351868I0J65814D01*
G01X10245919Y2352486D01*
G01X10245846Y2353186D01*
G01X10245846Y2590186D01*
G01X10470962Y2815302D01*
G01X10471509Y2815746D01*
G01X10472061Y2816068D01*
G03X10511873Y2928075I-6726J65469D01*
G03X10399866Y2888264I-46538J-46537D01*
G01X10399544Y2887711D01*
G01X10399101Y2887164D01*
G01X10159101Y2647165D01*
G03X10144218Y2611234I35931J-35931D01*
G01X10144218Y2353186D01*
G01X10581571Y598095D02*
G03X10617385Y633909I0J35814D01*
G01X10617385Y783909D01*
G03X10581571Y819723I-35814J0D01*
G01X10431571Y819723D01*
G03X10395757Y783909I0J-35814D01*
G01X10395757Y633909D01*
G03X10431571Y598095I35814J0D01*
G01X10581571Y598095D01*
G01X10926732Y708909D02*
G03X11148360Y708909I110814J0D01*
G03X10926732Y708909I-110814J0D01*
G01X11021429Y2368486D02*
G01X11021356Y2367786D01*
G01X11021193Y2367168D01*
G03X11072243Y2259816I51050J-41538D01*
G03X11123293Y2367168I0J65814D01*
G01X11123130Y2367786D01*
G01X11123057Y2368486D01*
G01X11123057Y2477985D01*
G01X12128605Y3483532D01*
G01X12569607Y3483532D01*
G01X12570308Y3483459D01*
G01X12570925Y3483296D01*
G03X12678277Y3534346I41538J51050D01*
G03X12570926Y3585396I-65814J0D01*
G01X12570308Y3585233D01*
G01X12569607Y3585160D01*
G01X12107557Y3585160D01*
G03X12071626Y3570277I0J-50814D01*
G01X11036312Y2534963D01*
G03X11021429Y2499032I35931J-35931D01*
G01X11021429Y2368486D01*
G01X11620546Y598095D02*
G03X11656360Y633909I0J35814D01*
G01X11656360Y783909D01*
G03X11620546Y819723I-35814J0D01*
G01X11470546Y819723D01*
G03X11434732Y783909I0J-35814D01*
G01X11434732Y633909D01*
G03X11470546Y598095I35814J0D01*
G01X11620546Y598095D01*
G01X12219121Y2314793D02*
G03X12312196Y2314793I46537J46537D01*
G03X12312196Y2407868I-46537J46537D01*
G01X11842990Y2877074D01*
G03X11796453Y2896351I-46537J-46537D01*
G01X11587350Y2896351D01*
G03X11521536Y2830537I0J-65814D01*
G03X11587350Y2764723I65814J0D01*
G01X11769192Y2764723D01*
G01X12219121Y2314793D01*
G01X12500314Y2993500D02*
G03X11879486Y2993500I-310414J0D01*
G03X12500314Y2993500I310414J0D01*
G01X13447172Y2998293D02*
G03X12517928Y2998293I-464622J0D01*
G03X13447172Y2998293I464622J0D01*
G01X12919115Y2128915D02*
G03X12954929Y2093101I35814J0D01*
G01X13094929Y2093101D01*
G03X13130743Y2128915I0J35814D01*
G01X13130743Y2268915D01*
G03X13094929Y2304729I-35814J0D01*
G01X12954929Y2304729D01*
G03X12919115Y2268915I0J-35814D01*
G01X12919115Y2128915D01*
G01X13051069Y292830D02*
G03X13051069Y534384I0J120777D01*
G03X13051069Y292830I0J-120777D01*
G01X13278929Y1796729D02*
G03X13278929Y1585101I0J-105814D01*
G03X13278929Y1796729I0J105814D01*
G01X13582476Y3214429D02*
G01X13682476Y3214429D01*
G03X13682476Y3436057I0J110814D01*
G01X13582476Y3436057D01*
G03X13582476Y3214429I0J-110814D01*
G01X5183773Y2913783D02*
G03X5232022Y2967736I-12306J59556D01*
G03X5194490Y3029626I-60555J5602D01*
G01X5951503Y3029626D01*
G01X5726727Y2804850D01*
G01X5690393Y2804850D01*
G03X5663821Y2866092I-59920J10387D01*
G03X5597062Y2866050I-33348J-50855D01*
G01X5496286Y2866050D01*
G03X5411787Y2804850I-23916J-55914D01*
G01X5324469Y2804850D01*
G03X5288538Y2789967I0J-50814D01*
G01X5155980Y2657409D01*
G01X5155980Y2885990D01*
G01X5183773Y2913783D01*
G01X9506336Y2091675D02*
G01X9506336Y2574886D01*
G01X9563151Y2631700D01*
G01X9563698Y2632144D01*
G01X9564250Y2632466D01*
G03X9620985Y2715375I-6726J65469D01*
G03X9529848Y2757647I-63461J-17440D01*
G03X9481867Y2793416I-59025J-29112D01*
G03X9424753Y2775536I-11044J-64881D01*
G01X9424741Y2874434D01*
G01X9424808Y2875082D01*
G01X9424971Y2875700D01*
G03X9393909Y2979943I-51050J41538D01*
G01X9533509Y3119543D01*
G03X9612839Y3170386I18915J57798D01*
G03X9547137Y3237925I-60415J6955D01*
G01X9547137Y3528233D01*
G03X9496323Y3622458I-50814J33411D01*
G03X9445509Y3528233I0J-60814D01*
G01X9445509Y3359663D01*
G01X9445509Y3359663D01*
G03X9384267Y3333090I-10387J-59920D01*
G03X9384308Y3266332I50855J-33348D01*
G01X9384308Y3249390D01*
G01X9360338Y3225420D01*
G03X9341277Y3241137I-47414J-38082D01*
G01X9343551Y3243412D01*
G03X9349465Y3250513I-35931J35931D01*
G03X9342558Y3344419I-41844J44129D01*
G01X9377723Y3379585D01*
G03X9414306Y3480110I-8902J60159D01*
G03X9310146Y3455731I-45485J-40367D01*
G01X9308670Y3454253D01*
G01X9041909Y3187493D01*
G03X8997202Y3225884I-60693J-25453D01*
G03X8939679Y3213091I-15986J-63843D01*
G01X8939331Y3212999D01*
G01X9445167Y3718835D01*
G01X9706723Y3718835D01*
G02X9797914Y3454649I-337086J-264186D01*
G01X9797914Y1944731D01*
G03X9805183Y1912338I75814J0D01*
G01X9685673Y1912338D01*
G01X9506336Y2091675D01*
G01X10684452Y2160372D02*
G01X10684524Y2161073D01*
G01X10684687Y2161691D01*
G03X10699452Y2203255I-51050J41538D01*
G01X10771109Y2131597D01*
G03X10807040Y2116714I35931J35931D01*
G01X11352099Y2116714D01*
G01X11403934Y2064879D01*
G01X11403934Y1929881D01*
G01X11403861Y1929180D01*
G01X11403698Y1928562D01*
G03X11389622Y1896511I51050J-41538D01*
G01X11245876Y2040257D01*
G03X11209945Y2055140I-35931J-35931D01*
G01X11094699Y2055140D01*
G01X11093999Y2055213D01*
G01X11093381Y2055376D01*
G03X10994839Y2037220I-41538J-51050D01*
G03X10880991Y2074369I-65397J-7393D01*
G03X10773711Y2059332I-48451J-44542D01*
G03X10825814Y1964357I58829J-29506D01*
G01X10826366Y1964035D01*
G01X10826913Y1963591D01*
G01X11750278Y1040227D01*
G01X11705299Y1040227D01*
G01X11674282Y1071244D01*
G03X11638351Y1086127I-35931J-35931D01*
G01X11363595Y1086127D01*
G01X11078796Y1370926D01*
G03X11108317Y1474656I-21529J62193D01*
G01X11108154Y1475274D01*
G01X11108081Y1475975D01*
G01X11108081Y1601097D01*
G03X11093198Y1637028I-50814J0D01*
G01X10684452Y2045774D01*
G01X10684452Y2160372D01*
G04 Copper End*

G04 TearDrop Start*
G36*
G01X12979569Y828894D02*
G01X12958356Y850107D01*
G01X12962646Y854789D01*
G01X12965970Y859257D01*
G01X12968428Y863558D01*
G01X12970116Y867741D01*
G01X12971135Y871854D01*
G01X12971581Y875947D01*
G01X12971554Y880066D01*
G01X12971151Y884261D01*
G01X12969615Y893070D01*
G01X12967759Y902761D01*
G01X12966371Y913720D01*
G01X12966098Y919796D01*
G01X12966238Y926334D01*
G01X13055796Y836776D01*
G01X13049258Y836636D01*
G01X13043182Y836909D01*
G01X13032223Y838297D01*
G01X13022532Y840153D01*
G01X13013723Y841690D01*
G01X13009528Y842092D01*
G01X13005409Y842119D01*
G01X13001316Y841673D01*
G01X12997203Y840654D01*
G01X12993020Y838966D01*
G01X12988719Y836508D01*
G01X12984251Y833184D01*
G01X12979569Y828894D01*
G37*
G36*
G01X12979569Y574894D02*
G01X12958356Y596107D01*
G01X12962646Y600789D01*
G01X12965970Y605257D01*
G01X12968428Y609558D01*
G01X12970116Y613741D01*
G01X12971135Y617854D01*
G01X12971581Y621947D01*
G01X12971554Y626066D01*
G01X12971151Y630261D01*
G01X12969615Y639070D01*
G01X12967759Y648761D01*
G01X12966371Y659720D01*
G01X12966098Y665796D01*
G01X12966238Y672334D01*
G01X13055796Y582776D01*
G01X13049258Y582636D01*
G01X13043182Y582909D01*
G01X13032223Y584297D01*
G01X13022532Y586153D01*
G01X13013723Y587690D01*
G01X13009528Y588092D01*
G01X13005409Y588119D01*
G01X13001316Y587673D01*
G01X12997203Y586654D01*
G01X12993020Y584966D01*
G01X12988719Y582508D01*
G01X12984251Y579184D01*
G01X12979569Y574894D01*
G37*
G36*
G01X5971844Y776234D02*
G01X6070626Y818873D01*
G01X6074751Y814077D01*
G01X6078599Y808534D01*
G01X6086052Y796530D01*
G01X6089951Y790730D01*
G01X6094162Y785506D01*
G01X6098832Y781188D01*
G01X6101384Y779472D01*
G01X6104107Y778107D01*
G01X6004873Y735017D01*
G01X6006125Y739136D01*
G01X6006667Y742773D01*
G01X6006556Y745986D01*
G01X6005850Y748835D01*
G01X6004606Y751380D01*
G01X6002881Y753679D01*
G01X5998220Y757778D01*
G01X5992326Y761608D01*
G01X5985659Y765644D01*
G01X5978678Y770361D01*
G01X5971844Y776234D01*
G37*
G36*
G01X6120282Y610326D02*
G01X6040282Y602724D01*
G01X6040052Y609561D01*
G01X6039336Y616665D01*
G01X6038099Y623861D01*
G01X6036304Y630979D01*
G01X6033914Y637846D01*
G01X6030893Y644291D01*
G01X6027204Y650141D01*
G01X6022810Y655224D01*
G01X6134354Y662826D01*
G01X6130713Y657377D01*
G01X6127693Y651314D01*
G01X6125253Y644785D01*
G01X6123351Y637939D01*
G01X6121945Y630922D01*
G01X6120993Y623882D01*
G01X6120282Y610326D01*
G37*
G36*
G01X6231097Y787284D02*
G01X6327414Y832388D01*
G01X6331355Y828132D01*
G01X6334662Y823945D01*
G01X6339766Y815777D01*
G01X6343511Y807878D01*
G01X6346680Y800244D01*
G01X6350058Y792872D01*
G01X6354430Y785758D01*
G01X6357234Y782295D01*
G01X6360580Y778896D01*
G01X6364567Y775558D01*
G01X6369292Y772282D01*
G01X6263912Y745853D01*
G01X6265803Y749764D01*
G01X6266832Y753244D01*
G01X6267070Y756347D01*
G01X6266590Y759128D01*
G01X6265465Y761641D01*
G01X6263765Y763941D01*
G01X6261564Y766084D01*
G01X6258934Y768123D01*
G01X6252674Y772110D01*
G01X6245563Y776341D01*
G01X6238178Y781253D01*
G01X6231097Y787284D01*
G37*
G36*
G01X6374282Y610326D02*
G01X6294282Y602724D01*
G01X6294052Y609561D01*
G01X6293336Y616665D01*
G01X6292099Y623861D01*
G01X6290304Y630979D01*
G01X6287914Y637846D01*
G01X6284893Y644291D01*
G01X6281204Y650141D01*
G01X6276810Y655224D01*
G01X6388354Y662826D01*
G01X6384713Y657377D01*
G01X6381693Y651314D01*
G01X6379253Y644785D01*
G01X6377351Y637939D01*
G01X6375945Y630922D01*
G01X6374993Y623882D01*
G01X6374282Y610326D01*
G37*
G36*
G01X6628282Y610326D02*
G01X6548282Y602724D01*
G01X6548052Y609561D01*
G01X6547336Y616665D01*
G01X6546099Y623861D01*
G01X6544304Y630979D01*
G01X6541914Y637846D01*
G01X6538893Y644291D01*
G01X6535204Y650141D01*
G01X6530810Y655224D01*
G01X6642354Y662826D01*
G01X6638713Y657377D01*
G01X6635693Y651314D01*
G01X6633253Y644785D01*
G01X6631351Y637939D01*
G01X6629945Y630922D01*
G01X6628993Y623882D01*
G01X6628282Y610326D01*
G37*
G36*
G01X6481962Y781222D02*
G01X6581414Y823191D01*
G01X6586434Y817286D01*
G01X6590600Y810866D01*
G01X6597748Y797506D01*
G01X6601423Y791076D01*
G01X6605626Y785153D01*
G01X6610703Y779994D01*
G01X6613678Y777779D01*
G01X6617000Y775852D01*
G01X6514883Y739897D01*
G01X6516420Y743938D01*
G01X6517179Y747515D01*
G01X6517224Y750687D01*
G01X6516619Y753511D01*
G01X6515429Y756044D01*
G01X6513716Y758345D01*
G01X6508981Y762478D01*
G01X6502926Y766372D01*
G01X6496064Y770486D01*
G01X6488905Y775283D01*
G01X6481962Y781222D01*
G37*
G36*
G01X6954608Y653151D02*
G01X6902705Y591917D01*
G03X6775860Y633909I-126845J-170584D01*
G01X6775860Y633909D01*
G01X6912182Y780431D01*
G01X6912182Y780431D01*
G03X6954608Y653151I212132J0D01*
G37*
G36*
G01X6709149Y809039D02*
G01X6787875Y871734D01*
G01X6787875Y871734D01*
G03X6912182Y783909I317491J317491D01*
G01X6762182Y649939D01*
G03X6709149Y809039I-265165J0D01*
G37*
G36*
G01X13575535Y761051D02*
G01X13605535Y761051D01*
G01X13605762Y754327D01*
G01X13606515Y747814D01*
G01X13607901Y741723D01*
G01X13610025Y736266D01*
G01X13612994Y731654D01*
G01X13614829Y729731D01*
G01X13616914Y728098D01*
G01X13619265Y726783D01*
G01X13621893Y725810D01*
G01X13624811Y725207D01*
G01X13628035Y725000D01*
G01X13553035Y725000D01*
G01X13556258Y725207D01*
G01X13559177Y725810D01*
G01X13561805Y726783D01*
G01X13564155Y728098D01*
G01X13566241Y729731D01*
G01X13568075Y731654D01*
G01X13571044Y736266D01*
G01X13573168Y741723D01*
G01X13574554Y747814D01*
G01X13575307Y754327D01*
G01X13575535Y761051D01*
G37*
G36*
G01X7353955Y607538D02*
G01X7293585Y660305D01*
G01X7298230Y665269D01*
G01X7302735Y670764D01*
G01X7306953Y676692D01*
G01X7310739Y682958D01*
G01X7313949Y689466D01*
G01X7316436Y696119D01*
G01X7318055Y702821D01*
G01X7318660Y709477D01*
G01X7401427Y634313D01*
G01X7394966Y633149D01*
G01X7388492Y631090D01*
G01X7382087Y628269D01*
G01X7375833Y624825D01*
G01X7369811Y620893D01*
G01X7364103Y616611D01*
G01X7358790Y612113D01*
G01X7353955Y607538D01*
G37*
G36*
G01X7285824Y746032D02*
G01X7356534Y816743D01*
G01X7362028Y810720D01*
G01X7366611Y804928D01*
G01X7370690Y799522D01*
G01X7374675Y794661D01*
G01X7378973Y790501D01*
G01X7383993Y787198D01*
G01X7386901Y785917D01*
G01X7390143Y784910D01*
G01X7397831Y783793D01*
G01X7318774Y704736D01*
G01X7317657Y712424D01*
G01X7316649Y715666D01*
G01X7315369Y718574D01*
G01X7312066Y723594D01*
G01X7307906Y727892D01*
G01X7303044Y731876D01*
G01X7297639Y735956D01*
G01X7291847Y740538D01*
G01X7285824Y746032D01*
G37*
G36*
G01X7539824Y746032D02*
G01X7610534Y816743D01*
G01X7616028Y810720D01*
G01X7620611Y804928D01*
G01X7624690Y799522D01*
G01X7628675Y794661D01*
G01X7632973Y790501D01*
G01X7637993Y787198D01*
G01X7640901Y785917D01*
G01X7644143Y784910D01*
G01X7651831Y783793D01*
G01X7572774Y704736D01*
G01X7571657Y712424D01*
G01X7570649Y715666D01*
G01X7569369Y718574D01*
G01X7566066Y723594D01*
G01X7561906Y727892D01*
G01X7557044Y731876D01*
G01X7551639Y735956D01*
G01X7545847Y740538D01*
G01X7539824Y746032D01*
G37*
G36*
G01X7692758Y610326D02*
G01X7612758Y602724D01*
G01X7612527Y609561D01*
G01X7611812Y616665D01*
G01X7610575Y623861D01*
G01X7608780Y630979D01*
G01X7606390Y637846D01*
G01X7603369Y644291D01*
G01X7599679Y650141D01*
G01X7595285Y655224D01*
G01X7706830Y662826D01*
G01X7703188Y657377D01*
G01X7700169Y651314D01*
G01X7697729Y644785D01*
G01X7695827Y637939D01*
G01X7694421Y630922D01*
G01X7693469Y623882D01*
G01X7692758Y610326D01*
G37*
G36*
G01X7793824Y746032D02*
G01X7864534Y816743D01*
G01X7870028Y810720D01*
G01X7874611Y804928D01*
G01X7878690Y799522D01*
G01X7882675Y794661D01*
G01X7886973Y790501D01*
G01X7891993Y787198D01*
G01X7894901Y785917D01*
G01X7898143Y784910D01*
G01X7905831Y783793D01*
G01X7826774Y704736D01*
G01X7825657Y712424D01*
G01X7824649Y715666D01*
G01X7823369Y718574D01*
G01X7820066Y723594D01*
G01X7815906Y727892D01*
G01X7811044Y731876D01*
G01X7805639Y735956D01*
G01X7799847Y740538D01*
G01X7793824Y746032D01*
G37*
G36*
G01X7941702Y606442D02*
G01X7861702Y606376D01*
G01X7861493Y613087D01*
G01X7860844Y620085D01*
G01X7859720Y627207D01*
G01X7858087Y634287D01*
G01X7855912Y641159D01*
G01X7853159Y647658D01*
G01X7849795Y653619D01*
G01X7845786Y658876D01*
G01X7957589Y658942D01*
G01X7953586Y653682D01*
G01X7950228Y647719D01*
G01X7947480Y641219D01*
G01X7945309Y634347D01*
G01X7943679Y627269D01*
G01X7942558Y620148D01*
G01X7941910Y613151D01*
G01X7941702Y606442D01*
G37*
G36*
G01X8235806Y513909D02*
G01X8155806Y513909D01*
G03X8095806Y633909I-150000J0D01*
G01X8095806Y633909D01*
G01X8230658Y633909D01*
G01X8230658Y633909D01*
G03X8235806Y513909I1401090J0D01*
G37*
G36*
G01X8105658Y830659D02*
G01X8205658Y830659D01*
G01X8205658Y830659D01*
G03X8230658Y783909I56211J0D01*
G01X8230658Y783909D01*
G01X8080658Y783909D01*
G01X8080658Y783909D01*
G03X8105658Y830659I-31211J46750D01*
G37*
G36*
G01X13817189Y3223662D02*
G01X13812900Y3077951D01*
G01X13783411Y3047949D01*
G01X13768914Y3034145D01*
G01X13761548Y3027751D01*
G01X13754034Y3021777D01*
G01X13746323Y3016281D01*
G01X13738361Y3011324D01*
G01X13730099Y3006965D01*
G01X13721485Y3003265D01*
G01X13712466Y3000283D01*
G01X13702993Y2998078D01*
G01X13693014Y2996712D01*
G01X13682476Y2996243D01*
G01X13682476Y3146243D01*
G01X13692586Y3146687D01*
G01X13702395Y3147982D01*
G01X13711920Y3150070D01*
G01X13721177Y3152896D01*
G01X13730182Y3156402D01*
G01X13738951Y3160532D01*
G01X13747500Y3165229D01*
G01X13755846Y3170436D01*
G01X13764003Y3176097D01*
G01X13771989Y3182155D01*
G01X13787508Y3195235D01*
G01X13802532Y3209222D01*
G01X13817189Y3223662D01*
G37*
G36*
G01X8621919Y798593D02*
G01X8710366Y851568D01*
G01X8716669Y844869D01*
G01X8721810Y838612D01*
G01X8725955Y832733D01*
G01X8729271Y827169D01*
G01X8731923Y821859D01*
G01X8734078Y816738D01*
G01X8737564Y806818D01*
G01X8741058Y796906D01*
G01X8743224Y791796D01*
G01X8745892Y786501D01*
G01X8749227Y780957D01*
G01X8753396Y775102D01*
G01X8758565Y768873D01*
G01X8764901Y762207D01*
G01X8654624Y757051D01*
G01X8657206Y760598D01*
G01X8658759Y763801D01*
G01X8659371Y766707D01*
G01X8659130Y769361D01*
G01X8658125Y771812D01*
G01X8656445Y774105D01*
G01X8654177Y776286D01*
G01X8651411Y778403D01*
G01X8644734Y782629D01*
G01X8637122Y787155D01*
G01X8629281Y792352D01*
G01X8625496Y795318D01*
G01X8621919Y798593D01*
G37*
G36*
G01X8683096Y618203D02*
G01X8626527Y674772D01*
G01X8629444Y678230D01*
G01X8631794Y682109D01*
G01X8633632Y686324D01*
G01X8635016Y690791D01*
G01X8636647Y700140D01*
G01X8637136Y709477D01*
G01X8719902Y634313D01*
G01X8715341Y633612D01*
G01X8710433Y632443D01*
G01X8700247Y628886D01*
G01X8695305Y626592D01*
G01X8690687Y624016D01*
G01X8686562Y621204D01*
G01X8683096Y618203D01*
G37*
G36*
G01X8862317Y766233D02*
G01X8951079Y818893D01*
G01X8954880Y814633D01*
G01X8958979Y809404D01*
G01X8967890Y797692D01*
G01X8972611Y792039D01*
G01X8977450Y787073D01*
G01X8982359Y783209D01*
G01X8984827Y781820D01*
G01X8987295Y780862D01*
G01X8892275Y721945D01*
G01X8892765Y725950D01*
G01X8892779Y729608D01*
G01X8892351Y732959D01*
G01X8891516Y736040D01*
G01X8890309Y738890D01*
G01X8888763Y741550D01*
G01X8884796Y746453D01*
G01X8879891Y751060D01*
G01X8874326Y755684D01*
G01X8868375Y760638D01*
G01X8862317Y766233D01*
G37*
G36*
G01X9011234Y610326D02*
G01X8931233Y602724D01*
G01X8931003Y609561D01*
G01X8930288Y616665D01*
G01X8929051Y623861D01*
G01X8927256Y630979D01*
G01X8924866Y637846D01*
G01X8921845Y644291D01*
G01X8918155Y650141D01*
G01X8913761Y655224D01*
G01X9025306Y662826D01*
G01X9021664Y657377D01*
G01X9018645Y651314D01*
G01X9016205Y644785D01*
G01X9014303Y637939D01*
G01X9012897Y630922D01*
G01X9011945Y623882D01*
G01X9011234Y610326D01*
G37*
G36*
G01X9112300Y746032D02*
G01X9183010Y816743D01*
G01X9188504Y810720D01*
G01X9193087Y804928D01*
G01X9197166Y799522D01*
G01X9201151Y794661D01*
G01X9205449Y790501D01*
G01X9210469Y787198D01*
G01X9213377Y785917D01*
G01X9216619Y784910D01*
G01X9224307Y783793D01*
G01X9145250Y704736D01*
G01X9144133Y712424D01*
G01X9143125Y715666D01*
G01X9141845Y718574D01*
G01X9138542Y723594D01*
G01X9134382Y727892D01*
G01X9129520Y731876D01*
G01X9124115Y735956D01*
G01X9118323Y740538D01*
G01X9112300Y746032D01*
G37*
G36*
G01X9293220Y628423D02*
G01X9213219Y585001D01*
G01X9213887Y602175D01*
G01X9214096Y610109D01*
G01X9213665Y617415D01*
G01X9212178Y623951D01*
G01X9210908Y626885D01*
G01X9209217Y629573D01*
G01X9207053Y631996D01*
G01X9204364Y634137D01*
G01X9201098Y635978D01*
G01X9197203Y637501D01*
G01X9292498Y689204D01*
G01X9291333Y682850D01*
G01X9290854Y675482D01*
G01X9290896Y667430D01*
G01X9291297Y659022D01*
G01X9292521Y642458D01*
G01X9293220Y628423D01*
G37*
G36*
G01X9424133Y843300D02*
G01X9524133Y843300D01*
G03X9549133Y783909I83046J0D01*
G01X9399133Y783909D01*
G01X9399133Y783909D01*
G03X9424133Y843300I-58046J59391D01*
G37*
G36*
G01X9580708Y664004D02*
G01X9524139Y607435D01*
G01X9524139Y607435D01*
G03X9412812Y633909I-111327J-220835D01*
G01X9549133Y780431D01*
G01X9549133Y780431D01*
G03X9580708Y664004I230444J0D01*
G37*
G36*
G01X5497868Y933909D02*
G01X5597869Y933909D01*
G03X5622868Y783909I462501J0D01*
G01X5472869Y783909D01*
G03X5497868Y933909I-437501J150000D01*
G37*
G36*
G01X12967889Y1612662D02*
G01X12946676Y1633875D01*
G01X12950002Y1637503D01*
G01X12952632Y1641012D01*
G01X12954636Y1644434D01*
G01X12956082Y1647799D01*
G01X12957039Y1651137D01*
G01X12957577Y1654479D01*
G01X12957668Y1661297D01*
G01X12956909Y1668495D01*
G01X12955849Y1676317D01*
G01X12955042Y1685008D01*
G01X12955038Y1694810D01*
G01X13028824Y1621024D01*
G01X13019022Y1621028D01*
G01X13010331Y1621835D01*
G01X13002509Y1622895D01*
G01X12995311Y1623654D01*
G01X12988493Y1623563D01*
G01X12985151Y1623025D01*
G01X12981813Y1622068D01*
G01X12978448Y1620622D01*
G01X12975026Y1618618D01*
G01X12971517Y1615988D01*
G01X12967889Y1612662D01*
G37*
G36*
G01X13103182Y1633875D02*
G01X13081969Y1612662D01*
G01X13078342Y1615988D01*
G01X13074832Y1618618D01*
G01X13071410Y1620622D01*
G01X13068046Y1622068D01*
G01X13064707Y1623025D01*
G01X13061365Y1623563D01*
G01X13054548Y1623654D01*
G01X13047350Y1622895D01*
G01X13039527Y1621835D01*
G01X13030837Y1621028D01*
G01X13021034Y1621024D01*
G01X13094821Y1694810D01*
G01X13094817Y1685008D01*
G01X13094009Y1676317D01*
G01X13092950Y1668495D01*
G01X13092190Y1661297D01*
G01X13092282Y1654479D01*
G01X13092819Y1651137D01*
G01X13093777Y1647799D01*
G01X13095223Y1644434D01*
G01X13097226Y1641012D01*
G01X13099857Y1637503D01*
G01X13103182Y1633875D01*
G37*
G36*
G01X13311220Y2301917D02*
G01X13381931Y2231207D01*
G01X13375834Y2225878D01*
G01X13369994Y2221876D01*
G01X13359688Y2215657D01*
G01X13355525Y2212345D01*
G01X13352226Y2208167D01*
G01X13350947Y2205582D01*
G01X13349940Y2202575D01*
G01X13349225Y2199077D01*
G01X13348821Y2195020D01*
G01X13275034Y2268807D01*
G01X13279091Y2269211D01*
G01X13282589Y2269926D01*
G01X13285596Y2270933D01*
G01X13288181Y2272212D01*
G01X13292359Y2275511D01*
G01X13295671Y2279674D01*
G01X13301890Y2289980D01*
G01X13305892Y2295821D01*
G01X13311220Y2301917D01*
G37*
G36*
G01X6890989Y620202D02*
G01X6970989Y620202D01*
G03X7020989Y531904I102965J0D01*
G01X6840989Y531904D01*
G03X6890989Y620202I-52965J88298D01*
G37*
G36*
G01X6548282Y651904D02*
G01X6628282Y651904D01*
G01X6628282Y651904D01*
G03X6688282Y531904I150000J0D01*
G01X6528185Y531904D01*
G03X6548282Y651904I-348224J120000D01*
G37*
G36*
G01X6294282Y651904D02*
G01X6374282Y651904D01*
G03X6395381Y531904I351794J0D01*
G01X6234282Y531904D01*
G01X6234282Y531904D01*
G03X6294282Y651904I-90000J120000D01*
G37*
G36*
G01X6034935Y574331D02*
G01X6108566Y534825D01*
G01X6108566Y534825D01*
G03X6082577Y423983I223373J-110842D01*
G01X6082577Y423983D01*
G01X5907656Y531904D01*
G03X6034935Y574331I0J212132D01*
G37*
G36*
G01X8155806Y662104D02*
G01X8235806Y662104D01*
G03X8285806Y542104I169001J0D01*
G01X8105806Y542104D01*
G01X8105806Y542104D01*
G03X8155806Y662104I-119001J120000D01*
G37*
G36*
G01X7861702Y662104D02*
G01X7941702Y662104D01*
G01X7941702Y662104D01*
G03X7991702Y542104I169001J0D01*
G01X7991702Y542104D01*
G01X7811702Y542104D01*
G01X7811702Y542104D01*
G03X7861702Y662104I-119001J120000D01*
G37*
G36*
G01X7612758Y662104D02*
G01X7692758Y662104D01*
G03X7697598Y542104I1489880J0D01*
G01X7552758Y542104D01*
G01X7552758Y542104D01*
G03X7612758Y662104I-90000J120000D01*
G37*
G36*
G01X7273494Y623646D02*
G01X7353494Y623646D01*
G03X7403494Y542104I91490J0D01*
G01X7403494Y542104D01*
G01X7223494Y542104D01*
G01X7223494Y542104D01*
G03X7273494Y623646I-41491J81542D01*
G37*
G36*
G01X9512423Y635719D02*
G01X9592423Y635719D01*
G03X9642423Y542104I112638J0D01*
G01X9462423Y542104D01*
G03X9512423Y635719I-62638J93615D01*
G37*
G36*
G01X9213219Y662104D02*
G01X9293220Y662104D01*
G01X9293220Y662104D01*
G03X9343219Y542104I169001J0D01*
G01X9343219Y542104D01*
G01X9163220Y542104D01*
G01X9163220Y542104D01*
G03X9213219Y662104I-119001J120000D01*
G37*
G36*
G01X8931233Y662104D02*
G01X9011234Y662104D01*
G03X9044016Y542104I236024J0D01*
G01X8871233Y542104D01*
G01X8871233Y542104D01*
G03X8931233Y662104I-90000J120000D01*
G37*
G36*
G01X8614812Y646487D02*
G01X8694812Y646487D01*
G03X8744812Y542104I133958J0D01*
G01X8744812Y542104D01*
G01X8564812Y542104D01*
G03X8614812Y646487I-83959J104383D01*
G37*
G36*
G01X5502386Y2830236D02*
G01X5509988Y2800236D01*
G01X5504910Y2800248D01*
G01X5500183Y2799856D01*
G01X5498006Y2799308D01*
G01X5495984Y2798418D01*
G01X5494137Y2797107D01*
G01X5492488Y2795294D01*
G01X5484886Y2831778D01*
G01X5489286Y2829971D01*
G01X5493262Y2829615D01*
G01X5502386Y2830236D01*
G37*
G36*
G01X5596306Y2800236D02*
G01X5596306Y2830236D01*
G01X5601171Y2830174D01*
G01X5605698Y2830374D01*
G01X5609904Y2831413D01*
G01X5611892Y2832428D01*
G01X5613806Y2833870D01*
G01X5613806Y2796603D01*
G01X5611892Y2798045D01*
G01X5609904Y2799060D01*
G01X5605698Y2800099D01*
G01X5601171Y2800299D01*
G01X5596306Y2800236D01*
G37*
G36*
G01X8404327Y2840437D02*
G01X8404023Y2810437D01*
G01X8399162Y2810504D01*
G01X8394645Y2810320D01*
G01X8390442Y2809302D01*
G01X8388449Y2808300D01*
G01X8386523Y2806871D01*
G01X8386827Y2844138D01*
G01X8388730Y2842682D01*
G01X8390713Y2841654D01*
G01X8394922Y2840593D01*
G01X8399459Y2840380D01*
G01X8404327Y2840437D01*
G37*
G36*
G01X8518644Y2810437D02*
G01X8518644Y2840437D01*
G01X8523509Y2840374D01*
G01X8528036Y2840574D01*
G01X8532242Y2841613D01*
G01X8534230Y2842628D01*
G01X8536144Y2844070D01*
G01X8536144Y2806803D01*
G01X8534230Y2808245D01*
G01X8532242Y2809260D01*
G01X8528036Y2810299D01*
G01X8523509Y2810499D01*
G01X8518644Y2810437D01*
G37*
G36*
G01X6883555Y2840437D02*
G01X6883555Y2810437D01*
G01X6878691Y2810499D01*
G01X6874164Y2810299D01*
G01X6869957Y2809260D01*
G01X6867969Y2808245D01*
G01X6866055Y2806803D01*
G01X6866055Y2844070D01*
G01X6867969Y2842628D01*
G01X6869957Y2841613D01*
G01X6874164Y2840574D01*
G01X6878691Y2840374D01*
G01X6883555Y2840437D01*
G37*
G36*
G01X7018276Y2810437D02*
G01X7010674Y2840437D01*
G01X7015752Y2840425D01*
G01X7020479Y2840817D01*
G01X7022656Y2841365D01*
G01X7024679Y2842255D01*
G01X7026525Y2843566D01*
G01X7028174Y2845379D01*
G01X7035776Y2808895D01*
G01X7031376Y2810702D01*
G01X7027400Y2811058D01*
G01X7018276Y2810437D01*
G37*
G36*
G01X5238068Y2540370D02*
G01X5268068Y2540370D01*
G01X5268006Y2535506D01*
G01X5268205Y2530979D01*
G01X5269244Y2526772D01*
G01X5270260Y2524784D01*
G01X5271702Y2522870D01*
G01X5234434Y2522870D01*
G01X5235876Y2524784D01*
G01X5236892Y2526772D01*
G01X5237931Y2530979D01*
G01X5238130Y2535506D01*
G01X5238068Y2540370D01*
G37*
G36*
G01X9305853Y3256362D02*
G01X9275502Y3268437D01*
G01X9279978Y3272181D01*
G01X9283934Y3275346D01*
G01X9285327Y3276982D01*
G01X9286122Y3278796D01*
G01X9286163Y3280897D01*
G01X9285295Y3283392D01*
G01X9319829Y3272827D01*
G01X9317692Y3271347D01*
G01X9315781Y3269514D01*
G01X9312410Y3265163D01*
G01X9309255Y3260528D01*
G01X9305853Y3256362D01*
G37*
G36*
G01X10960342Y2692102D02*
G01X10990342Y2692102D01*
G01X10990280Y2687237D01*
G01X10990479Y2682710D01*
G01X10991518Y2678504D01*
G01X10992534Y2676516D01*
G01X10993976Y2674602D01*
G01X10956708Y2674602D01*
G01X10958150Y2676516D01*
G01X10959166Y2678504D01*
G01X10960205Y2682710D01*
G01X10960404Y2687237D01*
G01X10960342Y2692102D01*
G37*
G36*
G01X10946275Y2912438D02*
G01X10946275Y2942438D01*
G01X10951140Y2942376D01*
G01X10955667Y2942575D01*
G01X10959873Y2943614D01*
G01X10961861Y2944630D01*
G01X10963775Y2946072D01*
G01X10963775Y2908804D01*
G01X10961861Y2910246D01*
G01X10959873Y2911261D01*
G01X10955667Y2912301D01*
G01X10951140Y2912500D01*
G01X10946275Y2912438D01*
G37*
G36*
G01X10990342Y2889820D02*
G01X10960342Y2897423D01*
G01X10960963Y2906547D01*
G01X10960607Y2910523D01*
G01X10958800Y2914923D01*
G01X10995284Y2907320D01*
G01X10993471Y2905672D01*
G01X10992160Y2903825D01*
G01X10991271Y2901803D01*
G01X10990723Y2899626D01*
G01X10990330Y2894899D01*
G01X10990342Y2889820D01*
G37*
G36*
G01X10449101Y3167091D02*
G01X10427888Y3145878D01*
G01X10424492Y3149361D01*
G01X10421150Y3152421D01*
G01X10417441Y3154661D01*
G01X10415317Y3155349D01*
G01X10412944Y3155682D01*
G01X10439296Y3182035D01*
G01X10439630Y3179661D01*
G01X10440318Y3177538D01*
G01X10442557Y3173829D01*
G01X10445617Y3170487D01*
G01X10449101Y3167091D01*
G37*
G36*
G01X8191006Y2548499D02*
G01X8221006Y2548499D01*
G01X8220944Y2543635D01*
G01X8221143Y2539108D01*
G01X8222183Y2534901D01*
G01X8223198Y2532913D01*
G01X8224640Y2530999D01*
G01X8187372Y2530999D01*
G01X8188814Y2532913D01*
G01X8189830Y2534901D01*
G01X8190869Y2539108D01*
G01X8191068Y2543635D01*
G01X8191006Y2548499D01*
G37*
G36*
G01X6728540Y2557499D02*
G01X6742150Y2528683D01*
G01X6738192Y2525325D01*
G01X6734982Y2523064D01*
G01X6732340Y2520442D01*
G01X6730085Y2515999D01*
G01X6712456Y2548834D01*
G01X6714935Y2548517D01*
G01X6717190Y2548769D01*
G01X6719266Y2549505D01*
G01X6721208Y2550642D01*
G01X6724872Y2553777D01*
G01X6728540Y2557499D01*
G37*
G36*
G01X9352861Y3405371D02*
G01X9333736Y3428672D01*
G01X9340360Y3435163D01*
G01X9342729Y3438675D01*
G01X9343540Y3440741D01*
G01X9344049Y3443108D01*
G01X9368230Y3414751D01*
G01X9365834Y3414589D01*
G01X9363660Y3414022D01*
G01X9359807Y3411905D01*
G01X9356324Y3408867D01*
G01X9352861Y3405371D01*
G37*
G36*
G01X5218302Y2369783D02*
G01X5239515Y2390997D01*
G01X5242911Y2387513D01*
G01X5246253Y2384453D01*
G01X5249962Y2382213D01*
G01X5252086Y2381525D01*
G01X5254459Y2381192D01*
G01X5228107Y2354839D01*
G01X5227773Y2357213D01*
G01X5227085Y2359336D01*
G01X5224846Y2363045D01*
G01X5221786Y2366387D01*
G01X5218302Y2369783D01*
G37*
G36*
G01X5090166Y2512799D02*
G01X5120166Y2512799D01*
G01X5120104Y2507934D01*
G01X5120303Y2503407D01*
G01X5121343Y2499201D01*
G01X5122358Y2497213D01*
G01X5123800Y2495299D01*
G01X5086532Y2495299D01*
G01X5087974Y2497213D01*
G01X5088990Y2499201D01*
G01X5090029Y2503407D01*
G01X5090228Y2507934D01*
G01X5090166Y2512799D01*
G37*
G36*
G01X5157914Y2938572D02*
G01X5136701Y2959786D01*
G01X5140185Y2963181D01*
G01X5143245Y2966524D01*
G01X5145484Y2970233D01*
G01X5146172Y2972356D01*
G01X5146506Y2974730D01*
G01X5172858Y2948377D01*
G01X5170485Y2948043D01*
G01X5168361Y2947356D01*
G01X5164652Y2945116D01*
G01X5161310Y2942056D01*
G01X5157914Y2938572D01*
G37*
G36*
G01X6584485Y2461798D02*
G01X6614485Y2461798D01*
G01X6614423Y2456933D01*
G01X6614623Y2452406D01*
G01X6615662Y2448200D01*
G01X6616677Y2446212D01*
G01X6618119Y2444298D01*
G01X6580852Y2444298D01*
G01X6582294Y2446212D01*
G01X6583309Y2448200D01*
G01X6584348Y2452406D01*
G01X6584548Y2456933D01*
G01X6584485Y2461798D01*
G37*
G36*
G01X9450122Y3265576D02*
G01X9420122Y3265576D01*
G01X9420184Y3270441D01*
G01X9419985Y3274968D01*
G01X9418946Y3279174D01*
G01X9417930Y3281162D01*
G01X9416488Y3283076D01*
G01X9453756Y3283076D01*
G01X9452314Y3281162D01*
G01X9451299Y3279174D01*
G01X9450259Y3274968D01*
G01X9450060Y3270441D01*
G01X9450122Y3265576D01*
G37*
G36*
G01X6480437Y2202294D02*
G01X6501650Y2181081D01*
G01X6498166Y2177685D01*
G01X6495106Y2174343D01*
G01X6492867Y2170634D01*
G01X6492179Y2168510D01*
G01X6491845Y2166137D01*
G01X6465493Y2192489D01*
G01X6467866Y2192823D01*
G01X6469990Y2193511D01*
G01X6473699Y2195750D01*
G01X6477041Y2198810D01*
G01X6480437Y2202294D01*
G37*
G36*
G01X9299372Y3152571D02*
G01X9278158Y3173784D01*
G01X9281642Y3177180D01*
G01X9284702Y3180522D01*
G01X9286942Y3184231D01*
G01X9287629Y3186355D01*
G01X9287963Y3188728D01*
G01X9314316Y3162376D01*
G01X9311942Y3162042D01*
G01X9309819Y3161354D01*
G01X9306110Y3159115D01*
G01X9302767Y3156055D01*
G01X9299372Y3152571D01*
G37*
G36*
G01X9511323Y3527477D02*
G01X9481323Y3527477D01*
G01X9481385Y3532342D01*
G01X9481186Y3536869D01*
G01X9480146Y3541075D01*
G01X9479131Y3543063D01*
G01X9477689Y3544977D01*
G01X9514957Y3544977D01*
G01X9513515Y3543063D01*
G01X9512499Y3541075D01*
G01X9511460Y3536869D01*
G01X9511261Y3532342D01*
G01X9511323Y3527477D01*
G37*
G36*
G01X8066771Y2728235D02*
G01X8066771Y2698235D01*
G01X8061906Y2698297D01*
G01X8057379Y2698098D01*
G01X8053173Y2697059D01*
G01X8051185Y2696043D01*
G01X8049271Y2694601D01*
G01X8049271Y2731869D01*
G01X8051185Y2730427D01*
G01X8053173Y2729412D01*
G01X8057379Y2728372D01*
G01X8061906Y2728173D01*
G01X8066771Y2728235D01*
G37*
G36*
G01X7998437Y2698235D02*
G01X7998437Y2728235D01*
G01X8003302Y2728173D01*
G01X8007829Y2728372D01*
G01X8012035Y2729412D01*
G01X8014023Y2730427D01*
G01X8015937Y2731869D01*
G01X8015937Y2694601D01*
G01X8014023Y2696043D01*
G01X8012035Y2697059D01*
G01X8007829Y2698098D01*
G01X8003302Y2698297D01*
G01X7998437Y2698235D01*
G37*
G36*
G01X7995370Y2779236D02*
G01X7995370Y2749236D01*
G01X7990505Y2749298D01*
G01X7985978Y2749098D01*
G01X7981772Y2748059D01*
G01X7979784Y2747044D01*
G01X7977870Y2745602D01*
G01X7977870Y2782870D01*
G01X7979784Y2781428D01*
G01X7981772Y2780412D01*
G01X7985978Y2779373D01*
G01X7990505Y2779174D01*
G01X7995370Y2779236D01*
G37*
G36*
G01X7927036Y2749236D02*
G01X7927036Y2779236D01*
G01X7931901Y2779174D01*
G01X7936428Y2779373D01*
G01X7940634Y2780412D01*
G01X7942622Y2781428D01*
G01X7944536Y2782870D01*
G01X7944536Y2745602D01*
G01X7942622Y2747044D01*
G01X7940634Y2748059D01*
G01X7936428Y2749098D01*
G01X7931901Y2749298D01*
G01X7927036Y2749236D01*
G37*
G36*
G01X9519445Y3162341D02*
G01X9519445Y3192341D01*
G01X9523936Y3192335D01*
G01X9528186Y3192627D01*
G01X9532144Y3193685D01*
G01X9535757Y3195975D01*
G01X9535757Y3158707D01*
G01X9532144Y3160998D01*
G01X9528186Y3162055D01*
G01X9523936Y3162348D01*
G01X9519445Y3162341D01*
G37*
G36*
G01X10720039Y3275246D02*
G01X10720039Y3325246D01*
G01X10726650Y3325461D01*
G01X10732901Y3326027D01*
G01X10743837Y3327746D01*
G01X10751874Y3329465D01*
G01X10756039Y3330246D01*
G01X10756039Y3270246D01*
G01X10751874Y3271027D01*
G01X10743837Y3272746D01*
G01X10732901Y3274465D01*
G01X10726650Y3275031D01*
G01X10720039Y3275246D01*
G37*
G36*
G01X10027230Y2596233D02*
G01X10077230Y2596233D01*
G01X10077445Y2589622D01*
G01X10078011Y2583372D01*
G01X10079730Y2572436D01*
G01X10081449Y2564398D01*
G01X10082230Y2560233D01*
G01X10022230Y2560233D01*
G01X10023011Y2564398D01*
G01X10024730Y2572436D01*
G01X10026449Y2583372D01*
G01X10027015Y2589622D01*
G01X10027230Y2596233D01*
G37*
G36*
G01X10969039Y2011442D02*
G01X10947826Y1990228D01*
G01X10943684Y1993590D01*
G01X10938497Y1996610D01*
G01X10932960Y1998851D01*
G01X10927772Y1999873D01*
G01X10959395Y2031496D01*
G01X10960417Y2026307D01*
G01X10962657Y2020771D01*
G01X10965678Y2015583D01*
G01X10969039Y2011442D01*
G37*
G36*
G01X12403060Y1478820D02*
G01X12373060Y1478820D01*
G01X12372509Y1484125D01*
G01X12370976Y1489929D01*
G01X12368646Y1495429D01*
G01X12365700Y1499820D01*
G01X12410421Y1499820D01*
G01X12407475Y1495429D01*
G01X12405144Y1489929D01*
G01X12403612Y1484125D01*
G01X12403060Y1478820D01*
G37*
G36*
G01X10872138Y2011442D02*
G01X10850925Y1990228D01*
G01X10846783Y1993590D01*
G01X10841596Y1996610D01*
G01X10836059Y1998851D01*
G01X10830871Y1999873D01*
G01X10862494Y2031496D01*
G01X10863516Y2026307D01*
G01X10865756Y2020771D01*
G01X10868776Y2015583D01*
G01X10872138Y2011442D01*
G37*
G36*
G01X12405376Y1153818D02*
G01X12384163Y1175031D01*
G01X12387525Y1179172D01*
G01X12390545Y1184360D01*
G01X12392785Y1189897D01*
G01X12393807Y1195085D01*
G01X12425430Y1163462D01*
G01X12420242Y1162440D01*
G01X12414705Y1160200D01*
G01X12409518Y1157179D01*
G01X12405376Y1153818D01*
G37*
G36*
G01X11042267Y1474118D02*
G01X11072267Y1474118D01*
G01X11072818Y1468813D01*
G01X11074351Y1463009D01*
G01X11076682Y1457510D01*
G01X11079628Y1453119D01*
G01X11034906Y1453119D01*
G01X11037852Y1457510D01*
G01X11040183Y1463009D01*
G01X11041715Y1468813D01*
G01X11042267Y1474118D01*
G37*
G36*
G01X10648638Y2162229D02*
G01X10618638Y2162229D01*
G01X10618086Y2167534D01*
G01X10616554Y2173338D01*
G01X10614223Y2178837D01*
G01X10611277Y2183229D01*
G01X10655998Y2183229D01*
G01X10653052Y2178837D01*
G01X10650722Y2173338D01*
G01X10649189Y2167534D01*
G01X10648638Y2162229D01*
G37*
G36*
G01X10809390Y1318667D02*
G01X10809390Y1348667D01*
G01X10814696Y1349219D01*
G01X10820500Y1350751D01*
G01X10825999Y1353082D01*
G01X10830390Y1356028D01*
G01X10830390Y1311306D01*
G01X10825999Y1314252D01*
G01X10820500Y1316583D01*
G01X10814696Y1318116D01*
G01X10809390Y1318667D01*
G37*
G36*
G01X10652087Y1348667D02*
G01X10667740Y1318667D01*
G01X10660979Y1318740D01*
G01X10654891Y1318244D01*
G01X10652256Y1317448D01*
G01X10649977Y1316108D01*
G01X10648118Y1314090D01*
G01X10646740Y1311260D01*
G01X10626737Y1349717D01*
G01X10633573Y1348269D01*
G01X10639249Y1348050D01*
G01X10645007Y1348403D01*
G01X10652087Y1348667D01*
G37*
G36*
G01X11092843Y2019326D02*
G01X11092843Y1989326D01*
G01X11087537Y1988774D01*
G01X11081733Y1987242D01*
G01X11076234Y1984911D01*
G01X11071843Y1981965D01*
G01X11071843Y2026687D01*
G01X11076234Y2023741D01*
G01X11081733Y2021410D01*
G01X11087537Y2019877D01*
G01X11092843Y2019326D01*
G37*
G36*
G01X11573252Y1619805D02*
G01X11594466Y1641019D01*
G01X11598607Y1637657D01*
G01X11603795Y1634636D01*
G01X11609331Y1632396D01*
G01X11614520Y1631374D01*
G01X11582897Y1599751D01*
G01X11581875Y1604940D01*
G01X11579635Y1610476D01*
G01X11576614Y1615664D01*
G01X11573252Y1619805D01*
G37*
G36*
G01X12316859Y662708D02*
G01X12316859Y632708D01*
G01X12311553Y632157D01*
G01X12305749Y630624D01*
G01X12300250Y628294D01*
G01X12295859Y625348D01*
G01X12295859Y670069D01*
G01X12300250Y667123D01*
G01X12305749Y664792D01*
G01X12311553Y663260D01*
G01X12316859Y662708D01*
G37*
G36*
G01X10643760Y1468519D02*
G01X10634237Y1438519D01*
G01X10627197Y1438729D01*
G01X10621674Y1439289D01*
G01X10613159Y1441024D01*
G01X10604645Y1442859D01*
G01X10599124Y1443543D01*
G01X10592086Y1443929D01*
G01X10622760Y1476068D01*
G01X10623453Y1472814D01*
G01X10624912Y1470584D01*
G01X10627029Y1469196D01*
G01X10629699Y1468467D01*
G01X10636266Y1468264D01*
G01X10643760Y1468519D01*
G37*
G36*
G01X11653451Y882612D02*
G01X11653451Y912612D01*
G01X11658757Y913163D01*
G01X11664561Y914696D01*
G01X11670060Y917026D01*
G01X11674451Y919972D01*
G01X11674451Y875251D01*
G01X11670060Y878197D01*
G01X11664561Y880528D01*
G01X11658757Y882060D01*
G01X11653451Y882612D01*
G37*
G36*
G01X12403560Y591307D02*
G01X12403560Y561307D01*
G01X12398254Y560756D01*
G01X12392450Y559223D01*
G01X12386951Y556893D01*
G01X12382560Y553947D01*
G01X12382560Y598668D01*
G01X12386951Y595722D01*
G01X12392450Y593391D01*
G01X12398254Y591859D01*
G01X12403560Y591307D01*
G37*
G36*
G01X11057243Y2366630D02*
G01X11087243Y2366630D01*
G01X11087795Y2361324D01*
G01X11089327Y2355520D01*
G01X11091658Y2350021D01*
G01X11094604Y2345630D01*
G01X11049883Y2345630D01*
G01X11052829Y2350021D01*
G01X11055159Y2355520D01*
G01X11056692Y2361324D01*
G01X11057243Y2366630D01*
G37*
G36*
G01X12571463Y3519346D02*
G01X12571463Y3549346D01*
G01X12576769Y3549897D01*
G01X12582573Y3551430D01*
G01X12588072Y3553760D01*
G01X12592463Y3556706D01*
G01X12592463Y3511985D01*
G01X12588072Y3514931D01*
G01X12582573Y3517262D01*
G01X12576769Y3518794D01*
G01X12571463Y3519346D01*
G37*
G36*
G01X9863328Y1586421D02*
G01X9863328Y1616421D01*
G01X9868634Y1616972D01*
G01X9874438Y1618505D01*
G01X9879937Y1620835D01*
G01X9884328Y1623781D01*
G01X9884328Y1579060D01*
G01X9879937Y1582006D01*
G01X9874438Y1584337D01*
G01X9868634Y1585869D01*
G01X9863328Y1586421D01*
G37*
G36*
G01X9313202Y2824456D02*
G01X9283202Y2824456D01*
G01X9282650Y2829761D01*
G01X9281118Y2835565D01*
G01X9278787Y2841064D01*
G01X9275841Y2845456D01*
G01X9320563Y2845456D01*
G01X9317617Y2841064D01*
G01X9315286Y2835565D01*
G01X9313753Y2829761D01*
G01X9313202Y2824456D01*
G37*
G36*
G01X11439748Y1928024D02*
G01X11469748Y1928024D01*
G01X11470300Y1922719D01*
G01X11471832Y1916915D01*
G01X11474163Y1911416D01*
G01X11477109Y1907024D01*
G01X11432388Y1907024D01*
G01X11435334Y1911416D01*
G01X11437664Y1916915D01*
G01X11439197Y1922719D01*
G01X11439748Y1928024D01*
G37*
G36*
G01X9388921Y2876238D02*
G01X9358921Y2876238D01*
G01X9358370Y2881544D01*
G01X9356837Y2887348D01*
G01X9354507Y2892847D01*
G01X9351561Y2897238D01*
G01X9396282Y2897238D01*
G01X9393336Y2892847D01*
G01X9391005Y2887348D01*
G01X9389473Y2881544D01*
G01X9388921Y2876238D01*
G37*
G36*
G01X4768362Y3840650D02*
G01X4768362Y3870650D01*
G01X4773668Y3871201D01*
G01X4779472Y3872734D01*
G01X4784971Y3875065D01*
G01X4789362Y3878011D01*
G01X4789362Y3833289D01*
G01X4784971Y3836235D01*
G01X4779472Y3838566D01*
G01X4773668Y3840098D01*
G01X4768362Y3840650D01*
G37*
G36*
G01X888618Y3870650D02*
G01X896221Y3840650D01*
G01X890586Y3840061D01*
G01X884721Y3838351D01*
G01X879357Y3835606D01*
G01X877090Y3833874D01*
G01X875221Y3831915D01*
G01X867618Y3875985D01*
G01X872253Y3873757D01*
G01X877763Y3872078D01*
G01X883450Y3871019D01*
G01X888618Y3870650D01*
G37*
G36*
G01X673408Y3778849D02*
G01X673408Y3748849D01*
G01X668102Y3748297D01*
G01X662298Y3746765D01*
G01X656799Y3744434D01*
G01X652408Y3741488D01*
G01X652408Y3786209D01*
G01X656799Y3783263D01*
G01X662298Y3780933D01*
G01X668102Y3779400D01*
G01X673408Y3778849D01*
G37*
G36*
G01X8695690Y3748849D02*
G01X8705213Y3778849D01*
G01X8712254Y3778638D01*
G01X8717776Y3778078D01*
G01X8726291Y3776343D01*
G01X8734805Y3774509D01*
G01X8740326Y3773824D01*
G01X8747364Y3773439D01*
G01X8716690Y3741300D01*
G01X8715997Y3744553D01*
G01X8714538Y3746784D01*
G01X8712421Y3748172D01*
G01X8709751Y3748900D01*
G01X8703184Y3749104D01*
G01X8695690Y3748849D01*
G37*
G36*
G01X2733835Y3672716D02*
G01X2733835Y3642716D01*
G01X2728529Y3642165D01*
G01X2722725Y3640632D01*
G01X2717226Y3638302D01*
G01X2712835Y3635356D01*
G01X2712835Y3680077D01*
G01X2717226Y3677131D01*
G01X2722725Y3674800D01*
G01X2728529Y3673268D01*
G01X2733835Y3672716D01*
G37*
G36*
G01X8720913Y3642716D02*
G01X8720913Y3672716D01*
G01X8726219Y3673268D01*
G01X8732023Y3674800D01*
G01X8737522Y3677131D01*
G01X8741913Y3680077D01*
G01X8741913Y3635356D01*
G01X8737522Y3638302D01*
G01X8732023Y3640632D01*
G01X8726219Y3642165D01*
G01X8720913Y3642716D01*
G37*
G36*
G01X3320342Y1584817D02*
G01X3320342Y1554817D01*
G01X3315037Y1554266D01*
G01X3309233Y1552733D01*
G01X3303734Y1550402D01*
G01X3299342Y1547456D01*
G01X3299342Y1592178D01*
G01X3303734Y1589232D01*
G01X3309233Y1586901D01*
G01X3315037Y1585368D01*
G01X3320342Y1584817D01*
G37*
G36*
G01X4004754Y1456603D02*
G01X4025968Y1477817D01*
G01X4030109Y1474455D01*
G01X4035297Y1471434D01*
G01X4040833Y1469194D01*
G01X4046022Y1468172D01*
G01X4014399Y1436549D01*
G01X4013377Y1441737D01*
G01X4011137Y1447274D01*
G01X4008116Y1452462D01*
G01X4004754Y1456603D01*
G37*
G36*
G01X3320342Y1457817D02*
G01X3320342Y1427817D01*
G01X3315037Y1427266D01*
G01X3309233Y1425733D01*
G01X3303734Y1423402D01*
G01X3299342Y1420456D01*
G01X3299342Y1465178D01*
G01X3303734Y1462232D01*
G01X3309233Y1459901D01*
G01X3315037Y1458368D01*
G01X3320342Y1457817D01*
G37*
G36*
G01X3969054Y1303601D02*
G01X3990267Y1324815D01*
G01X3994409Y1321453D01*
G01X3999597Y1318432D01*
G01X4005133Y1316192D01*
G01X4010321Y1315170D01*
G01X3978698Y1283547D01*
G01X3977677Y1288735D01*
G01X3975436Y1294272D01*
G01X3972416Y1299460D01*
G01X3969054Y1303601D01*
G37*
G36*
G01X10173850Y2111854D02*
G01X10146541Y2126971D01*
G01X10150152Y2131408D01*
G01X10153095Y2136772D01*
G01X10154905Y2142515D01*
G01X10155240Y2145358D01*
G01X10155118Y2148091D01*
G01X10192244Y2123158D01*
G01X10187428Y2121362D01*
G01X10182430Y2118589D01*
G01X10177741Y2115275D01*
G01X10173850Y2111854D01*
G37*
G36*
G01X10171547Y2000428D02*
G01X10150334Y2021642D01*
G01X10153696Y2025783D01*
G01X10156716Y2030971D01*
G01X10158957Y2036508D01*
G01X10159978Y2041696D01*
G01X10191601Y2010073D01*
G01X10186413Y2009051D01*
G01X10180877Y2006811D01*
G01X10175689Y2003790D01*
G01X10171547Y2000428D01*
G37*
G36*
G01X8930516Y2346230D02*
G01X8960516Y2346230D01*
G01X8961067Y2340924D01*
G01X8962600Y2335120D01*
G01X8964930Y2329621D01*
G01X8967876Y2325230D01*
G01X8923155Y2325230D01*
G01X8926101Y2329621D01*
G01X8928432Y2335120D01*
G01X8929964Y2340924D01*
G01X8930516Y2346230D01*
G37*
G36*
G01X9452438Y2688937D02*
G01X9431225Y2710151D01*
G01X9434586Y2714292D01*
G01X9437607Y2719480D01*
G01X9439847Y2725016D01*
G01X9440869Y2730205D01*
G01X9472492Y2698582D01*
G01X9467304Y2697560D01*
G01X9461767Y2695320D01*
G01X9456580Y2692299D01*
G01X9452438Y2688937D01*
G37*
G36*
G01X8884116Y3065440D02*
G01X8884116Y3095440D01*
G01X8889421Y3095991D01*
G01X8895225Y3097524D01*
G01X8900724Y3099855D01*
G01X8905116Y3102800D01*
G01X8905116Y3058079D01*
G01X8900724Y3061025D01*
G01X8895225Y3063356D01*
G01X8889421Y3064888D01*
G01X8884116Y3065440D01*
G37*
G36*
G01X9539139Y2658337D02*
G01X9517926Y2679550D01*
G01X9521288Y2683692D01*
G01X9524308Y2688880D01*
G01X9526548Y2694416D01*
G01X9527570Y2699604D01*
G01X9559193Y2667981D01*
G01X9554005Y2666960D01*
G01X9548468Y2664719D01*
G01X9543281Y2661699D01*
G01X9539139Y2658337D01*
G37*
G36*
G01X8940216Y3147041D02*
G01X8940216Y3177041D01*
G01X8945522Y3177592D01*
G01X8951326Y3179125D01*
G01X8956825Y3181456D01*
G01X8961216Y3184402D01*
G01X8961216Y3139680D01*
G01X8956825Y3142626D01*
G01X8951326Y3144957D01*
G01X8945522Y3146489D01*
G01X8940216Y3147041D01*
G37*
G36*
G01X4875963Y2121827D02*
G01X4905963Y2121827D01*
G01X4906515Y2116521D01*
G01X4908047Y2110717D01*
G01X4910378Y2105218D01*
G01X4913324Y2100827D01*
G01X4868603Y2100827D01*
G01X4871549Y2105218D01*
G01X4873879Y2110717D01*
G01X4875412Y2116521D01*
G01X4875963Y2121827D01*
G37*
G36*
G01X4654345Y1982723D02*
G01X4675558Y1961510D01*
G01X4672196Y1957368D01*
G01X4669176Y1952181D01*
G01X4666935Y1946644D01*
G01X4665913Y1941456D01*
G01X4634291Y1973079D01*
G01X4639479Y1974101D01*
G01X4645015Y1976341D01*
G01X4650203Y1979361D01*
G01X4654345Y1982723D01*
G37*
G36*
G01X2907338Y2218728D02*
G01X2937338Y2218728D01*
G01X2937889Y2213422D01*
G01X2939422Y2207618D01*
G01X2941752Y2202119D01*
G01X2944698Y2197728D01*
G01X2899977Y2197728D01*
G01X2902923Y2202119D01*
G01X2905254Y2207618D01*
G01X2906786Y2213422D01*
G01X2907338Y2218728D01*
G37*
G36*
G01X2890535Y2745851D02*
G01X2869322Y2724638D01*
G01X2865180Y2728000D01*
G01X2859992Y2731020D01*
G01X2854456Y2733260D01*
G01X2849268Y2734282D01*
G01X2880890Y2765905D01*
G01X2881912Y2760717D01*
G01X2884153Y2755180D01*
G01X2887173Y2749993D01*
G01X2890535Y2745851D01*
G37*
G36*
G01X1917824Y524906D02*
G01X1917824Y484907D01*
G01X1911632Y485398D01*
G01X1906448Y486021D01*
G01X1904055Y485982D01*
G01X1901701Y485497D01*
G01X1899315Y484405D01*
G01X1896824Y482546D01*
G01X1896824Y527267D01*
G01X1899315Y525409D01*
G01X1901701Y524316D01*
G01X1904055Y523831D01*
G01X1906448Y523792D01*
G01X1911632Y524415D01*
G01X1917824Y524906D01*
G37*
G36*
G01X3773849Y199303D02*
G01X3773849Y239303D01*
G01X3780041Y238811D01*
G01X3785226Y238188D01*
G01X3787618Y238227D01*
G01X3789972Y238713D01*
G01X3792359Y239805D01*
G01X3794849Y241663D01*
G01X3794849Y196942D01*
G01X3792359Y198801D01*
G01X3789972Y199893D01*
G01X3787618Y200379D01*
G01X3785226Y200418D01*
G01X3780041Y199795D01*
G01X3773849Y199303D01*
G37*
G36*
G01X7938787Y2237726D02*
G01X7960000Y2216513D01*
G01X7956639Y2212371D01*
G01X7953618Y2207184D01*
G01X7951378Y2201647D01*
G01X7950356Y2196459D01*
G01X7918733Y2228082D01*
G01X7923921Y2229104D01*
G01X7929458Y2231344D01*
G01X7934646Y2234365D01*
G01X7938787Y2237726D01*
G37*
G36*
G01X7976203Y2529433D02*
G01X7946203Y2529433D01*
G01X7945652Y2534739D01*
G01X7944119Y2540543D01*
G01X7941788Y2546042D01*
G01X7938842Y2550433D01*
G01X7983564Y2550433D01*
G01X7980618Y2546042D01*
G01X7978287Y2540543D01*
G01X7976754Y2534739D01*
G01X7976203Y2529433D01*
G37*
G36*
G01X10807239Y1534820D02*
G01X10807239Y1504820D01*
G01X10801934Y1504268D01*
G01X10796130Y1502736D01*
G01X10790630Y1500405D01*
G01X10786239Y1497459D01*
G01X10786239Y1542180D01*
G01X10790630Y1539234D01*
G01X10796130Y1536904D01*
G01X10801934Y1535371D01*
G01X10807239Y1534820D01*
G37*
G36*
G01X11653244Y2458638D02*
G01X11674458Y2437425D01*
G01X11671892Y2433965D01*
G01X11670032Y2429747D01*
G01X11668846Y2425226D01*
G01X11668304Y2420862D01*
G01X11636681Y2452485D01*
G01X11641046Y2453027D01*
G01X11645566Y2454213D01*
G01X11649785Y2456073D01*
G01X11653244Y2458638D01*
G37*
G36*
G01X11745253Y2433032D02*
G01X11745253Y2463032D01*
G01X11750558Y2463583D01*
G01X11756362Y2465116D01*
G01X11761861Y2467446D01*
G01X11766253Y2470392D01*
G01X11766253Y2425671D01*
G01X11761861Y2428617D01*
G01X11756362Y2430948D01*
G01X11750558Y2432480D01*
G01X11745253Y2433032D01*
G37*
G36*
G01X10027230Y2962644D02*
G01X10077230Y2962644D01*
G01X10077445Y2956033D01*
G01X10078011Y2949782D01*
G01X10079730Y2938846D01*
G01X10081449Y2930809D01*
G01X10082230Y2926644D01*
G01X10022230Y2926644D01*
G01X10023011Y2930809D01*
G01X10024730Y2938846D01*
G01X10026449Y2949782D01*
G01X10027015Y2956033D01*
G01X10027230Y2962644D01*
G37*
G36*
G01X10077230Y2890644D02*
G01X10027230Y2890644D01*
G01X10027015Y2897254D01*
G01X10026449Y2903505D01*
G01X10024730Y2914441D01*
G01X10023011Y2922478D01*
G01X10022230Y2926644D01*
G01X10082230Y2926644D01*
G01X10081449Y2922478D01*
G01X10079730Y2914441D01*
G01X10078011Y2903505D01*
G01X10077445Y2897254D01*
G01X10077230Y2890644D01*
G37*
G36*
G01X10180032Y2351330D02*
G01X10210032Y2351330D01*
G01X10210583Y2346024D01*
G01X10212116Y2340220D01*
G01X10214447Y2334721D01*
G01X10217393Y2330330D01*
G01X10172671Y2330330D01*
G01X10175617Y2334721D01*
G01X10177948Y2340220D01*
G01X10179480Y2346024D01*
G01X10180032Y2351330D01*
G37*
G36*
G01X10446951Y2841939D02*
G01X10425738Y2863153D01*
G01X10429099Y2867294D01*
G01X10432120Y2872482D01*
G01X10434360Y2878018D01*
G01X10435382Y2883207D01*
G01X10467005Y2851584D01*
G01X10461817Y2850562D01*
G01X10456280Y2848322D01*
G01X10451092Y2845301D01*
G01X10446951Y2841939D01*
G37*
G36*
G01X8191006Y2557235D02*
G03X8161006Y2647234I-150000J0D01*
G01X8203195Y2662234D01*
G01X8251006Y2647234D01*
G03X8221006Y2557235I120000J-90000D01*
G01X8221006Y2557235D01*
G01X8191006Y2557235D01*
G37*
G36*
G01X9833728Y3454649D02*
G03X9723728Y3754649I-464091J0D01*
G01X9723728Y3754649D01*
G01X9873728Y3804649D01*
G01X10023728Y3754649D01*
G01X10023728Y3754649D01*
G03X9913728Y3454649I354091J-300000D01*
G01X9833728Y3454649D01*
G37*
G04 TearDrop End*

G04 Pad Start*
G54D11*
G01X977814Y2024714D03*
G54D12*
G01X377815Y2024714D03*
G54D13*
G01X327803Y2499719D03*
G01X797804Y2499719D03*
G01X327803Y1549734D03*
G01X797804Y1549734D03*
G54D14*
G01X1878200Y891300D03*
G01X1878200Y2821300D03*
G54D15*
G01X13051069Y921607D03*
G01X13051069Y667607D03*
G01X13051069Y413607D03*
G54D16*
G01X13051069Y159607D03*
G54D17*
G01X6075182Y708909D03*
G01X6329182Y708909D03*
G01X6583182Y708909D03*
G54D18*
G01X6837182Y708909D03*
G54D20*
G01X13590535Y396000D03*
G01X13590535Y650000D03*
G54D17*
G01X7393658Y708909D03*
G01X7647658Y708909D03*
G01X7901658Y708909D03*
G54D18*
G01X8155658Y708909D03*
G54D20*
G01X13632476Y3071243D03*
G01X13632476Y3325243D03*
G54D17*
G01X8712133Y708909D03*
G01X8966133Y708909D03*
G01X9220133Y708909D03*
G54D18*
G01X9474133Y708909D03*
G54D17*
G01X9998571Y708909D03*
G01X10252571Y708909D03*
G54D18*
G01X10506571Y708909D03*
G54D17*
G01X11037546Y708909D03*
G01X11291546Y708909D03*
G54D18*
G01X11545546Y708909D03*
G54D17*
G01X5039869Y708909D03*
G01X5293869Y708909D03*
G54D18*
G01X5547869Y708909D03*
G54D21*
G01X13024929Y1436915D03*
G01X13024929Y1944915D03*
G01X13278929Y1944915D03*
G01X13024929Y1690915D03*
G01X13278929Y1436915D03*
G01X13278929Y1690915D03*
G54D22*
G01X13024929Y2198915D03*
G54D21*
G01X13278929Y2198915D03*
G54D23*
G01X558242Y143120D03*
G01X558242Y1347080D03*
G54D24*
G01X829260Y620132D03*
G01X829260Y870068D03*
G01X1029158Y870068D03*
G01X1029158Y620132D03*
G54D25*
G01X6930989Y177404D03*
G01X6930989Y475404D03*
G01X6618185Y177404D03*
G01X6618185Y475404D03*
G01X6305381Y177404D03*
G01X6305381Y475404D03*
G01X5992577Y177404D03*
G01X5992577Y475404D03*
G01X8195806Y187604D03*
G01X8195806Y485604D03*
G01X7901702Y187604D03*
G01X7901702Y485604D03*
G01X7607598Y187604D03*
G01X7607598Y485604D03*
G01X7313494Y187604D03*
G01X7313494Y485604D03*
G01X9552423Y187604D03*
G01X9552423Y485604D03*
G01X9253219Y187604D03*
G01X9253219Y485604D03*
G01X8954016Y187604D03*
G01X8954016Y485604D03*
G01X8654812Y187604D03*
G01X8654812Y485604D03*
G04 Pad End*

G04 Via Start*
G54D26*
G01X4620660Y3172241D03*
G01X5895676Y3223242D03*
G01X8863915Y3233442D03*
G01X7134992Y3228342D03*
G01X5472371Y2810136D03*
G01X5630473Y2815236D03*
G01X8370009Y2825641D03*
G01X8552811Y2825437D03*
G01X6849389Y2825437D03*
G01X7048291Y2830537D03*
G01X5253068Y2506204D03*
G01X9307620Y3294643D03*
G01X10975342Y2657935D03*
G01X10980442Y2927438D03*
G01X10414335Y3180644D03*
G01X8206006Y2514333D03*
G01X8318219Y3213042D03*
G01X6706587Y3218142D03*
G01X6706587Y2524533D03*
G01X9368821Y3439744D03*
G01X5253068Y2356230D03*
G01X5105166Y2478632D03*
G01X5171467Y2973338D03*
G01X6599485Y2427631D03*
G01X9435122Y3299743D03*
G01X6466884Y2167528D03*
G01X9312924Y3187337D03*
G01X9496323Y3561644D03*
G01X8032604Y2713235D03*
G01X7961203Y2764236D03*
G01X4569659Y1020013D03*
G01X4533959Y1076114D03*
G01X4605360Y1076114D03*
G01X9552424Y3177341D03*
G54D27*
G01X5365269Y2187928D03*
G01X5569272Y1983926D03*
G01X5895676Y2131828D03*
G01X7359395Y2157328D03*
G01X6828988Y2136928D03*
G01X7022791Y1983926D03*
G01X7134992Y1999226D03*
G01X8828214Y2157328D03*
G01X8272307Y2152228D03*
G01X10756039Y3300246D03*
G01X10052230Y2560233D03*
G01X10929441Y2029826D03*
G01X12388060Y1519820D03*
G01X10832540Y2029826D03*
G01X12423761Y1193415D03*
G01X11057267Y1433119D03*
G01X10633638Y2203229D03*
G01X10850390Y1333667D03*
G01X10618337Y1320917D03*
G01X10536736Y3825050D03*
G01X12265659Y2361331D03*
G01X11587350Y2830537D03*
G01X11051843Y2004326D03*
G01X11612850Y1601421D03*
G01X12275859Y647708D03*
G01X10592837Y1473919D03*
G01X11694451Y897612D03*
G01X12362560Y576307D03*
G01X11072243Y2325630D03*
G01X12612463Y3534346D03*
G01X9873728Y1944731D03*
G01X4171854Y3182315D03*
G01X4610460Y3371144D03*
G01X9904328Y1601421D03*
G01X9298202Y2865456D03*
G01X11454748Y1887024D03*
G01X9373921Y2917238D03*
G01X4809362Y3855650D03*
G01X851711Y3850550D03*
G01X632408Y3763849D03*
G01X8746613Y3743448D03*
G01X2692835Y3657716D03*
G01X8761913Y3657716D03*
G01X9215819Y3804649D03*
G01X8501352Y3335189D03*
G01X8430409Y3335443D03*
G01X9115604Y3779149D03*
G01X2662234Y3391544D03*
G01X3279342Y1569817D03*
G01X4044352Y1438219D03*
G01X3279342Y1442817D03*
G01X4008652Y1285217D03*
G01X10184832Y2152228D03*
G01X10189932Y2040026D03*
G01X8945516Y2305230D03*
G01X9470823Y2728535D03*
G01X8925116Y3080440D03*
G01X9557524Y2697935D03*
G01X8981216Y3162041D03*
G01X4890963Y2080827D03*
G01X4635960Y1943125D03*
G01X8491610Y1989026D03*
G01X8608911Y2009426D03*
G01X2922338Y2177728D03*
G01X2850937Y2764236D03*
G01X1550420Y657909D03*
G01X1876824Y504907D03*
G01X3814849Y219303D03*
G01X7920402Y2198128D03*
G01X7961203Y2570433D03*
G01X10766239Y1519820D03*
G01X11204845Y1438219D03*
G01X11638351Y2422531D03*
G01X11786253Y2448032D03*
G01X10615787Y2368981D03*
G01X10432185Y2440382D03*
G01X11579700Y1813073D03*
G01X11656201Y2149678D03*
G01X11457298Y1629471D03*
G01X10447485Y1675372D03*
G01X10090480Y1639671D03*
G01X10064980Y2144578D03*
G01X9983379Y2129277D03*
G01X9350971Y1660071D03*
G01X9330571Y1767173D03*
G01X9682475Y946062D03*
G01X9570274Y940962D03*
G01X4745611Y1155165D03*
G01X4745611Y1267367D03*
G01X4745611Y1374468D03*
G01X4788962Y1467869D03*
G01X7683250Y2073177D03*
G01X7673049Y1976276D03*
G01X7826051Y2006876D03*
G01X7555748Y2027276D03*
G01X7616948Y1874274D03*
G01X7851551Y2848387D03*
G01X7953553Y2889187D03*
G01X8137155Y2277179D03*
G01X7224331Y2534034D03*
G01X7139664Y2534034D03*
G01X7054998Y2534034D03*
G01X6970331Y2534034D03*
G01X6970331Y2445134D03*
G01X6970331Y2368934D03*
G01X6970331Y2280034D03*
G01X7054998Y2445134D03*
G01X7054998Y2368934D03*
G01X7054998Y2280034D03*
G01X7139664Y2280034D03*
G01X7139664Y2368934D03*
G01X7139664Y2445134D03*
G01X7224331Y2445134D03*
G01X7224331Y2368934D03*
G01X7224331Y2280034D03*
G01X8698250Y2534034D03*
G01X8613583Y2534034D03*
G01X8528917Y2534034D03*
G01X8444250Y2534034D03*
G01X8444250Y2445134D03*
G01X8444250Y2368934D03*
G01X8444250Y2280034D03*
G01X8528917Y2445134D03*
G01X8528917Y2368934D03*
G01X8528917Y2280034D03*
G01X8613583Y2280034D03*
G01X8613583Y2368934D03*
G01X8613583Y2445134D03*
G01X8698250Y2445134D03*
G01X8698250Y2368934D03*
G01X8698250Y2280034D03*
G01X5760612Y2539134D03*
G01X5675945Y2539134D03*
G01X5591279Y2539134D03*
G01X5506612Y2539134D03*
G01X5506612Y2450234D03*
G01X5506612Y2374034D03*
G01X5506612Y2285134D03*
G01X5591279Y2450234D03*
G01X5591279Y2374034D03*
G01X5591279Y2285134D03*
G01X5675945Y2285134D03*
G01X5675945Y2374034D03*
G01X5675945Y2450234D03*
G01X5760612Y2450234D03*
G01X5760612Y2374034D03*
G01X5760612Y2285134D03*
G01X14004265Y2123221D03*
G01X13919598Y2123221D03*
G01X13834931Y2123221D03*
G01X13750265Y2123221D03*
G01X13750265Y2034321D03*
G01X13750265Y1958121D03*
G01X13750265Y1869221D03*
G01X13834931Y2034321D03*
G01X13834931Y1958121D03*
G01X13834931Y1869221D03*
G01X13919598Y1869221D03*
G01X13919598Y1958121D03*
G01X13919598Y2034321D03*
G01X14004265Y2034321D03*
G01X14004265Y1958121D03*
G01X14004265Y1869221D03*
G01X14002319Y1718023D03*
G01X13917652Y1718023D03*
G01X13832985Y1718023D03*
G01X13748319Y1718023D03*
G01X13748319Y1629123D03*
G01X13748319Y1552923D03*
G01X13748319Y1464023D03*
G01X13832985Y1629123D03*
G01X13832985Y1552923D03*
G01X13832985Y1464023D03*
G01X13917652Y1464023D03*
G01X13917652Y1552923D03*
G01X13917652Y1629123D03*
G01X14002319Y1629123D03*
G01X14002319Y1552923D03*
G01X14002319Y1464023D03*
G01X14002319Y1345719D03*
G01X13917652Y1345719D03*
G01X13832985Y1345719D03*
G01X13748319Y1345719D03*
G01X13748319Y1256819D03*
G01X13748319Y1180619D03*
G01X13748319Y1091719D03*
G01X13832985Y1256819D03*
G01X13832985Y1180619D03*
G01X13832985Y1091719D03*
G01X13917652Y1091719D03*
G01X13917652Y1180619D03*
G01X13917652Y1256819D03*
G01X14002319Y1256819D03*
G01X14002319Y1180619D03*
G01X14002319Y1091719D03*
G01X14119620Y733711D03*
G01X14034954Y733711D03*
G01X13950287Y733711D03*
G01X13865620Y733711D03*
G01X13865620Y644811D03*
G01X13865620Y568611D03*
G01X13865620Y479711D03*
G01X13950287Y644811D03*
G01X13950287Y568611D03*
G01X13950287Y479711D03*
G01X14034954Y479711D03*
G01X14034954Y568611D03*
G01X14034954Y644811D03*
G01X14119620Y644811D03*
G01X14119620Y568611D03*
G01X14119620Y479711D03*
G01X11462486Y504208D03*
G01X11377819Y504208D03*
G01X11293152Y504208D03*
G01X11208486Y504208D03*
G01X11208486Y415308D03*
G01X11208486Y339108D03*
G01X11208486Y250208D03*
G01X11293152Y415308D03*
G01X11293152Y339108D03*
G01X11293152Y250208D03*
G01X11377819Y250208D03*
G01X11377819Y339108D03*
G01X11377819Y415308D03*
G01X11462486Y415308D03*
G01X11462486Y339108D03*
G01X11462486Y250208D03*
G01X9906966Y397106D03*
G01X9822299Y397106D03*
G01X4132660Y3329644D03*
G01X4047993Y3329644D03*
G01X4088794Y3409047D03*
G01X4129594Y3480748D03*
G01X4180595Y3549950D03*
G01X4173460Y3409047D03*
G01X4214261Y3480748D03*
G01X4265261Y3549950D03*
G01X9822299Y143106D03*
G01X9822299Y232006D03*
G01X9822299Y308206D03*
G01X9906966Y308206D03*
G01X9906966Y232006D03*
G01X9906966Y143106D03*
G01X10307825Y349164D03*
G01X10223158Y349164D03*
G01X10138491Y349164D03*
G01X10053825Y349164D03*
G01X10053825Y260264D03*
G01X10053825Y184064D03*
G01X10053825Y95164D03*
G01X10138491Y260264D03*
G01X10138491Y184064D03*
G01X10138491Y95164D03*
G01X10223158Y95164D03*
G01X10223158Y184064D03*
G01X10223158Y260264D03*
G01X10307825Y260264D03*
G01X10307825Y184064D03*
G01X10307825Y95164D03*
G01X10840278Y335906D03*
G01X10755611Y335906D03*
G01X10670944Y335906D03*
G01X10586278Y335906D03*
G01X10586278Y247006D03*
G01X10586278Y170806D03*
G01X10586278Y81906D03*
G01X10670944Y247006D03*
G01X10670944Y170806D03*
G01X10670944Y81906D03*
G01X10755611Y81906D03*
G01X10755611Y170806D03*
G01X10755611Y247006D03*
G01X10840278Y247006D03*
G01X10840278Y170806D03*
G01X10840278Y81906D03*
G01X9362262Y1549721D03*
G01X9362262Y1435321D03*
G01X3133047Y2751138D03*
G01X3133047Y2833040D03*
G01X2250735Y2387135D03*
G01X2335402Y2476035D03*
G01X2330302Y2552235D03*
G01X9111355Y1998527D03*
G01X9745798Y871413D03*
G01X9661131Y871413D03*
G01X9576465Y871413D03*
G01X2329271Y2382035D03*
G01X2413938Y2547135D03*
G01X2413938Y2470935D03*
G01X2628140Y1576225D03*
G01X9745798Y617413D03*
G01X9745798Y706313D03*
G01X9745798Y782513D03*
G01X9876365Y1440421D03*
G01X9952866Y1384621D03*
G01X9101155Y1229420D03*
G01X7790438Y3584648D03*
G01X7705772Y3584648D03*
G01X7621105Y3584648D03*
G01X7536438Y3584648D03*
G01X7536438Y3495748D03*
G01X7536438Y3419548D03*
G01X7536438Y3330648D03*
G01X7621105Y3495748D03*
G01X7621105Y3419548D03*
G01X7621105Y3330648D03*
G01X7705772Y3330648D03*
G01X7705772Y3419548D03*
G01X7705772Y3495748D03*
G01X7790438Y3495748D03*
G01X7790438Y3419548D03*
G01X7790438Y3330648D03*
G01X6372620Y3574448D03*
G01X6287953Y3574448D03*
G01X6203287Y3574448D03*
G01X6118620Y3574448D03*
G01X6118620Y3485548D03*
G01X6118620Y3409348D03*
G01X6118620Y3320448D03*
G01X6203287Y3485548D03*
G01X6203287Y3409348D03*
G01X6203287Y3320448D03*
G01X6287953Y3320448D03*
G01X6287953Y3409348D03*
G01X6287953Y3485548D03*
G01X6372620Y3485548D03*
G01X6372620Y3409348D03*
G01X6372620Y3320448D03*
G01X425943Y1080515D03*
G01X341276Y1080515D03*
G01X256610Y1080515D03*
G01X171943Y1080515D03*
G01X171943Y991615D03*
G01X171943Y915415D03*
G01X171943Y826515D03*
G01X256610Y991615D03*
G01X256610Y915415D03*
G01X256610Y826515D03*
G01X341276Y826515D03*
G01X341276Y915415D03*
G01X341276Y991615D03*
G01X425943Y991615D03*
G01X425943Y915415D03*
G01X425943Y826515D03*
G01X436143Y672510D03*
G01X351477Y672510D03*
G01X266810Y672510D03*
G01X182143Y672510D03*
G01X182143Y583610D03*
G01X182143Y507410D03*
G01X182143Y418510D03*
G01X266810Y583610D03*
G01X266810Y507410D03*
G01X266810Y418510D03*
G01X351477Y418510D03*
G01X351477Y507410D03*
G01X351477Y583610D03*
G01X436143Y583610D03*
G01X436143Y507410D03*
G01X436143Y418510D03*
G01X1809064Y2297533D03*
G01X1895358Y2297533D03*
G01X1981653Y2297533D03*
G01X2067947Y2297533D03*
G01X2268070Y3944854D03*
G01X3562484Y3944854D03*
G01X2354364Y3944854D03*
G01X2440659Y3944854D03*
G01X2526953Y3944854D03*
G01X2613247Y3944854D03*
G01X2699541Y3944854D03*
G01X2785835Y3944854D03*
G01X2872130Y3944854D03*
G01X2958424Y3944854D03*
G01X3044718Y3944854D03*
G01X3131013Y3944854D03*
G01X3217307Y3944854D03*
G01X3303601Y3944854D03*
G01X3389895Y3944854D03*
G01X3476189Y3944854D03*
G01X447347Y3939754D03*
G01X1741760Y3939754D03*
G01X533641Y3939754D03*
G01X619935Y3939754D03*
G01X706229Y3939754D03*
G01X792523Y3939754D03*
G01X878818Y3939754D03*
G01X965112Y3939754D03*
G01X1051406Y3939754D03*
G01X1137701Y3939754D03*
G01X1223995Y3939754D03*
G01X1310289Y3939754D03*
G01X1396583Y3939754D03*
G01X1482877Y3939754D03*
G01X1569172Y3939754D03*
G01X339649Y3878554D03*
G01X263744Y3802053D03*
G01X1986563Y3939754D03*
G01X171536Y3710251D03*
G01X99728Y3603150D03*
G01X67500Y2915862D03*
G01X67500Y3002156D03*
G01X67500Y3088450D03*
G01X67500Y3174744D03*
G01X67500Y3261039D03*
G01X67500Y3347333D03*
G01X67500Y3433627D03*
G01X1779495Y3669451D03*
G01X1865789Y3669451D03*
G01X1952083Y3669451D03*
G01X1813975Y3939754D03*
G01X1900269Y3939754D03*
G01X80444Y1481548D03*
G01X80444Y2775961D03*
G01X80444Y1567842D03*
G01X80444Y1654136D03*
G01X80444Y1740430D03*
G01X80444Y1826725D03*
G01X80444Y1362212D03*
G01X75344Y1229203D03*
G01X187546Y1203296D03*
G01X80444Y2171902D03*
G01X80444Y2258196D03*
G01X80444Y2344490D03*
G01X80444Y2430784D03*
G01X80444Y2517079D03*
G01X80444Y2603373D03*
G01X80444Y2689667D03*
G01X3680788Y3944854D03*
G01X4975202Y3944854D03*
G01X3767083Y3944854D03*
G01X3853377Y3944854D03*
G01X3939671Y3944854D03*
G01X4025965Y3944854D03*
G01X4112259Y3944854D03*
G01X4198554Y3944854D03*
G01X4284848Y3944854D03*
G01X4371142Y3944854D03*
G01X4457437Y3944854D03*
G01X4543731Y3944854D03*
G01X4630025Y3944854D03*
G01X4716319Y3944854D03*
G01X4802613Y3944854D03*
G01X4888908Y3944854D03*
G01X5098607Y3944854D03*
G01X6393020Y3944854D03*
G01X5184901Y3944854D03*
G01X5271195Y3944854D03*
G01X5357489Y3944854D03*
G01X5443784Y3944854D03*
G01X5530078Y3944854D03*
G01X5616372Y3944854D03*
G01X5702666Y3944854D03*
G01X5788961Y3944854D03*
G01X5875255Y3944854D03*
G01X5961549Y3944854D03*
G01X6047843Y3944854D03*
G01X6134138Y3944854D03*
G01X6220432Y3944854D03*
G01X6306726Y3944854D03*
G01X6526625Y3944854D03*
G01X7821039Y3944854D03*
G01X6612919Y3944854D03*
G01X6699214Y3944854D03*
G01X6785508Y3944854D03*
G01X6871802Y3944854D03*
G01X6958096Y3944854D03*
G01X7044391Y3944854D03*
G01X7130685Y3944854D03*
G01X7216979Y3944854D03*
G01X7303273Y3944854D03*
G01X7389568Y3944854D03*
G01X7475862Y3944854D03*
G01X7562156Y3944854D03*
G01X7648450Y3944854D03*
G01X7734745Y3944854D03*
G01X7908563Y3959566D03*
G01X9202976Y3959566D03*
G01X7994857Y3959566D03*
G01X8081151Y3959566D03*
G01X8167445Y3959566D03*
G01X8253739Y3959566D03*
G01X8340034Y3959566D03*
G01X8426328Y3959566D03*
G01X8512622Y3959566D03*
G01X8598917Y3959566D03*
G01X8685211Y3959566D03*
G01X8771505Y3959566D03*
G01X8857799Y3959566D03*
G01X8944093Y3959566D03*
G01X9030388Y3959566D03*
G01X9116682Y3959566D03*
G01X9327866Y3957858D03*
G01X10622279Y3957858D03*
G01X9414160Y3957858D03*
G01X9500454Y3957858D03*
G01X9586748Y3957858D03*
G01X9673042Y3957858D03*
G01X9759337Y3957858D03*
G01X9845631Y3957858D03*
G01X9931925Y3957858D03*
G01X10018219Y3957858D03*
G01X10104514Y3957858D03*
G01X10190808Y3957858D03*
G01X10277102Y3957858D03*
G01X10363396Y3957858D03*
G01X10449691Y3957858D03*
G01X10535985Y3957858D03*
G01X10708679Y3955055D03*
G01X12028593Y3960155D03*
G01X10906768Y3960155D03*
G01X11165651Y3960155D03*
G01X11257045Y3623550D03*
G01X11343339Y3965255D03*
G01X11424534Y3960155D03*
G01X11510828Y3960155D03*
G01X11597122Y3960155D03*
G01X11581415Y3679651D03*
G01X11836011Y3684751D03*
G01X11856005Y3960155D03*
G01X11942299Y3960155D03*
G01X12159376Y3957512D03*
G01X13453790Y3957512D03*
G01X12245670Y3957512D03*
G01X12331965Y3957512D03*
G01X12418259Y3957512D03*
G01X12504553Y3957512D03*
G01X12590847Y3957512D03*
G01X12677142Y3957512D03*
G01X12763436Y3957512D03*
G01X12849730Y3957512D03*
G01X12936024Y3957512D03*
G01X13022318Y3957512D03*
G01X13108613Y3957512D03*
G01X13194907Y3957512D03*
G01X13281201Y3957512D03*
G01X13367495Y3957512D03*
G01X14216481Y2232370D03*
G01X14216481Y3526783D03*
G01X14216481Y2318664D03*
G01X14216481Y2404958D03*
G01X14216481Y2491252D03*
G01X14216481Y2577547D03*
G01X14216481Y2663841D03*
G01X14216481Y2750135D03*
G01X14216481Y2836429D03*
G01X14216481Y2922724D03*
G01X14216481Y3009018D03*
G01X14216481Y3095312D03*
G01X14216481Y3181606D03*
G01X14216481Y3267901D03*
G01X14216481Y3354195D03*
G01X14216481Y3440489D03*
G01X14211381Y824751D03*
G01X14211381Y2119165D03*
G01X14211381Y911046D03*
G01X14211381Y997340D03*
G01X14211381Y1083634D03*
G01X14211381Y1169928D03*
G01X14211381Y1256223D03*
G01X14211381Y1342517D03*
G01X14211381Y1428811D03*
G01X14211381Y1515105D03*
G01X14211381Y1601400D03*
G01X14211381Y1687694D03*
G01X14211381Y1773988D03*
G01X14211381Y1860282D03*
G01X14211381Y1946576D03*
G01X14211381Y2032871D03*
G01X13279113Y79004D03*
G01X13849317Y186106D03*
G01X13365407Y79004D03*
G01X13451701Y79004D03*
G01X13537995Y79004D03*
G01X13624289Y79004D03*
G01X13710584Y79004D03*
G01X13796878Y79004D03*
G01X13883172Y79004D03*
G01X13979667Y155505D03*
G01X14060861Y232006D03*
G01X14116555Y328908D03*
G01X13718343Y186106D03*
G01X13942339Y252407D03*
G01X14084734Y405409D03*
G01X13859924Y308507D03*
G01X13911521Y3822453D03*
G01X13946218Y3893854D03*
G01X13997815Y3822453D03*
G01X13982108Y3745952D03*
G01X14068402Y3745952D03*
G01X14047595Y3674551D03*
G01X14133889Y3674551D03*
G01X14102882Y3598050D03*
G01X14189176Y3598050D03*
G01X12097742Y3654151D03*
G01X12184037Y3654151D03*
G01X12270331Y3654151D03*
G01X12356625Y3654151D03*
G01X12442919Y3654151D03*
G01X13773630Y3893854D03*
G01X13859924Y3893854D03*
G01X12136698Y3388947D03*
G01X13155708Y3516449D03*
G01X12222992Y3388947D03*
G01X12309286Y3388947D03*
G01X12395580Y3388947D03*
G01X12481875Y3388947D03*
G01X12568169Y3388947D03*
G01X12802365Y3526649D03*
G01X12628556Y2465835D03*
G01X12714850Y2465835D03*
G01X12801145Y2465835D03*
G01X12887439Y2465835D03*
G01X12973733Y2465835D03*
G01X13060027Y2465835D03*
G01X13146321Y2465835D03*
G01X13232616Y2465835D03*
G01X10994283Y84104D03*
G01X12834404Y920515D03*
G01X11080577Y84104D03*
G01X11166871Y84104D03*
G01X11253166Y84104D03*
G01X11339460Y84104D03*
G01X11425754Y84104D03*
G01X11512048Y84104D03*
G01X11598343Y84104D03*
G01X11684637Y84104D03*
G01X11770931Y84104D03*
G01X11857225Y84104D03*
G01X12489227Y920515D03*
G01X12575521Y920515D03*
G01X12661815Y920515D03*
G01X12748109Y920515D03*
G01X12886408Y1180619D03*
G01X12778303Y63704D03*
G01X12972702Y1180619D03*
G01X12564290Y777713D03*
G01X12650584Y777713D03*
G01X12736878Y777713D03*
G01X12547769Y369708D03*
G01X12537162Y293207D03*
G01X12623456Y293207D03*
G01X12531248Y206506D03*
G01X12500241Y140205D03*
G01X12586535Y140205D03*
G01X12672829Y140205D03*
G01X12519420Y63704D03*
G01X12605714Y63704D03*
G01X12692009Y63704D03*
G01X10901479Y2251633D03*
G01X9586258Y2603537D03*
G01X9555251Y2537236D03*
G01X11286832Y3541949D03*
G01X11373126Y3541949D03*
G01X11459420Y3541949D03*
G01X11300911Y3679651D03*
G01X11387206Y3679651D03*
G01X10688090Y2363834D03*
G01X11248690Y2491336D03*
G01X10169104Y1563124D03*
G01X10255398Y1563124D03*
G01X10341692Y1563124D03*
G01X10189504Y1705925D03*
G01X10275798Y1705925D03*
G01X10362092Y1705925D03*
G01X9016489Y2170031D03*
G01X9102783Y2170031D03*
G01X9189077Y2170031D03*
G01X9008926Y2072431D03*
G01X9095220Y2072431D03*
G01X9181515Y2072431D03*
G01X6114551Y2078230D03*
G01X6200845Y2078230D03*
G01X6287140Y2078230D03*
G01X6109451Y1966029D03*
G01X6195745Y1966029D03*
G01X6282040Y1966029D03*
G01X6094151Y1864028D03*
G01X6180445Y1864028D03*
G01X6266739Y1864028D03*
G01X6124751Y2889141D03*
G01X6211045Y2889141D03*
G01X6297340Y2889141D03*
G01X6252253Y2817740D03*
G01X6338547Y2817740D03*
G01X6424841Y2817740D03*
G01X5344341Y3008576D03*
G01X5471436Y3334980D03*
G01X5537330Y3380880D03*
G01X5196539Y2848340D03*
G01X5282833Y2848340D03*
G01X5369128Y2848340D03*
G01X4574331Y2965642D03*
G01X4660625Y2965642D03*
G01X4746920Y2965642D03*
G01X4523331Y2884041D03*
G01X4609625Y2884041D03*
G01X4695919Y2884041D03*
G01X5018037Y2266933D03*
G01X5104331Y2266933D03*
G01X5190625Y2266933D03*
G01X5002737Y2185332D03*
G01X5089031Y2185332D03*
G01X4420515Y2363834D03*
G01X5048637Y2108831D03*
G01X4400522Y2144531D03*
G01X4180812Y1864028D03*
G01X3906223Y1828327D03*
G01X3997617Y1828327D03*
G01X4089011Y1843627D03*
G01X2712807Y1736526D03*
G01X2799101Y1736526D03*
G01X2885396Y1736526D03*
G01X2670917Y1664325D03*
G01X2757211Y1664325D03*
G01X2843506Y1664325D03*
G01X3850122Y731813D03*
G01X4986826Y543314D03*
G01X4997026Y446006D03*
G01X4390729Y803214D03*
G01X4477023Y803214D03*
G01X4563317Y803214D03*
G01X2743408Y767513D03*
G01X2829702Y767513D03*
G01X2915996Y767513D03*
G01X1351090Y859315D03*
G01X1437384Y859315D03*
G01X1523678Y859315D03*
G01X728881Y425809D03*
G01X815176Y425809D03*
G01X901470Y425809D03*
G01X1942697Y334008D03*
G01X2028991Y334008D03*
G01X2115286Y334008D03*
G01X2008998Y58604D03*
G01X2095292Y58604D03*
G01X2181586Y58604D03*
G01X1723394Y53504D03*
G01X1809689Y53504D03*
G01X1895983Y53504D03*
G01X1407190Y58604D03*
G01X1493484Y58604D03*
G01X1579779Y58604D03*
G01X1121587Y53504D03*
G01X1207881Y53504D03*
G01X1294175Y53504D03*
G01X841083Y58604D03*
G01X927377Y58604D03*
G01X1013671Y58604D03*
G01X844720Y213976D03*
G01X1257418Y356778D03*
G01X1185611Y453680D03*
G01X1417560Y732730D03*
G01X1503854Y732730D03*
G01X1590148Y732730D03*
G01X1713194Y726713D03*
G01X1799488Y726713D03*
G01X1885783Y726713D03*
G01X754382Y308507D03*
G01X840676Y308507D03*
G01X926970Y308507D03*
G01X861483Y1252020D03*
G01X947777Y1252020D03*
G01X1034072Y1252020D03*
G01X851283Y1150018D03*
G01X937577Y1150018D03*
G01X1023871Y1150018D03*
G01X11347422Y3615854D03*
G01X11433716Y3615854D03*
G01X11520010Y3615854D03*
G01X11345143Y2972910D03*
G01X11345143Y3059205D03*
G01X11345143Y3145499D03*
G01X10143603Y874615D03*
G01X10229897Y874615D03*
G01X10316192Y874615D03*
G01X5671273Y1989466D03*
G01X7494547Y2144578D03*
G01X6704037Y2272079D03*
G01X6647936Y2195579D03*
G01X6015528Y2139478D03*
G01X8134605Y2195606D03*
G01X7833701Y2108905D03*
G01X7548098Y2588311D03*
G01X6794255Y3361423D03*
G01X6711687Y3332921D03*
G01X6053778Y2766814D03*
G01X9042417Y2578111D03*
G01X6043578Y2583211D03*
G01X10052230Y2926644D03*
G01X9873728Y2926644D03*
G01X10608137Y2677535D03*
G01X10195032Y2310330D03*
G01X10465335Y2881537D03*
G01X10529988Y2669838D03*
G01X10443286Y2669838D03*
G01X10030181Y3674551D03*
G01X10030181Y3567450D03*
G01X10025081Y3450148D03*
G01X10030181Y3322646D03*
G01X10030181Y3205345D03*
G54D26*
G01X3878053Y3375540D03*
G01X3953268Y3376384D03*
G01X3748386Y3376984D03*
G01X3685391Y3378484D03*
G01X3809880Y3378484D03*
G01X3878053Y3439235D03*
G01X3953268Y3440079D03*
G01X3748386Y3440679D03*
G01X3685391Y3442179D03*
G01X3809880Y3442179D03*
G01X3878053Y3502929D03*
G01X3953268Y3503773D03*
G01X3748386Y3504373D03*
G01X3685391Y3505873D03*
G01X3809880Y3505873D03*
G01X3878053Y3566624D03*
G01X3953268Y3567468D03*
G01X3748386Y3568068D03*
G01X3685391Y3569567D03*
G01X3809880Y3569567D03*
G54D27*
G01X4477238Y2294211D03*
G01X4288321Y2185332D03*
G01X4415822Y2241432D03*
G01X4339321Y2032330D03*
G01X3120405Y2017029D03*
G01X3263207Y2017029D03*
G01X3385609Y2047630D03*
G01X3370309Y1930328D03*
G01X3176506Y1925228D03*
G01X3528411Y1879328D03*
G01X3467210Y2144531D03*
G01X3666113Y1833427D03*
G01X5405765Y421846D03*
G01X5316865Y421846D03*
G01X5240665Y421846D03*
G01X5151765Y421846D03*
G01X5151765Y506513D03*
G01X5405765Y506513D03*
G01X5316865Y506513D03*
G01X5240665Y506513D03*
G01X9060355Y1479324D03*
G01X9356159Y1326322D03*
G01X8723750Y1372222D03*
G01X8147443Y1147819D03*
G01X8147443Y1239621D03*
G01X8147443Y1331422D03*
G01X8152543Y1418123D03*
G01X8096442Y1479324D03*
G01X8009741Y1489524D03*
G01X7917940Y1453823D03*
G01X7897540Y1341622D03*
G01X7888940Y1245425D03*
G01X7892440Y1142719D03*
G01X7596636Y1418123D03*
G01X7520135Y1428323D03*
G01X7250077Y1573904D03*
G01X6918327Y1362022D03*
G01X6918327Y1285521D03*
G01X6686370Y1205224D03*
G01X6686232Y1311968D03*
G01X6663324Y1407923D03*
G01X6597023Y1474224D03*
G01X6515429Y1485425D03*
G01X6413420Y1458923D03*
G01X4680053Y132754D03*
G01X4591153Y132754D03*
G01X4514953Y132754D03*
G01X4426053Y132754D03*
G01X4426053Y217420D03*
G01X4680053Y217420D03*
G01X4591153Y217420D03*
G01X4514953Y217420D03*
G54D28*
G01X5547869Y989413D03*
G54D27*
G01X4996605Y1142719D03*
G01X4996605Y1231619D03*
G01X4996605Y1307819D03*
G01X4996605Y1396719D03*
G01X5081272Y1396719D03*
G01X5081272Y1142719D03*
G01X5081272Y1231619D03*
G01X5081272Y1307819D03*
G01X5175108Y1137619D03*
G01X5175108Y1226519D03*
G01X5175108Y1302719D03*
G01X5175108Y1391619D03*
G01X4938470Y1483420D03*
G01X5259774Y1137619D03*
G01X5259774Y1226519D03*
G01X5259774Y1302719D03*
G01X4383642Y373499D03*
G01X4383642Y462399D03*
G01X4383642Y538599D03*
G01X4383642Y627499D03*
G01X4468308Y627499D03*
G01X4468308Y373499D03*
G01X4468308Y462399D03*
G01X4468308Y538599D03*
G01X5542313Y234908D03*
G01X5542313Y323808D03*
G01X5542313Y400008D03*
G01X5542313Y488908D03*
G01X5626979Y488908D03*
G01X5626979Y234908D03*
G01X5626979Y323808D03*
G01X5626979Y400008D03*
G01X6163300Y293207D03*
G01X5904417Y293207D03*
G01X5990711Y293207D03*
G01X6077006Y293207D03*
G01X6249594Y293207D03*
G01X6335888Y293207D03*
G01X6422182Y293207D03*
G01X6508477Y293207D03*
G01X6594771Y293207D03*
G01X6681065Y293207D03*
G01X6767360Y293207D03*
G01X6853654Y293207D03*
G01X6939948Y293207D03*
G01X7026242Y293207D03*
G01X7442769Y298860D03*
G01X7183887Y298860D03*
G01X7270181Y298860D03*
G01X7356475Y298860D03*
G01X7529064Y298860D03*
G01X7615358Y298860D03*
G01X7701652Y298860D03*
G01X7787946Y298860D03*
G01X7874241Y298860D03*
G01X7960535Y298860D03*
G01X8046829Y298860D03*
G01X8133123Y298860D03*
G01X8219418Y298860D03*
G01X8305712Y298860D03*
G01X8779634Y303407D03*
G01X8520751Y303407D03*
G01X8607045Y303407D03*
G01X8693339Y303407D03*
G01X8865928Y303407D03*
G01X8952222Y303407D03*
G01X9038516Y303407D03*
G01X9124811Y303407D03*
G01X9211105Y303407D03*
G01X9297399Y303407D03*
G01X9383693Y303407D03*
G01X9469988Y303407D03*
G01X9556282Y303407D03*
G01X9642576Y303407D03*
G04 Via End*

G04 Track Start*
G54D29*
G01X4666560Y3218142D02*
G01X4620660Y3172241D01*
G54D30*
G01X5253068Y2506204D02*
G01X5253068Y2570433D01*
G01X10414335Y3180644D02*
G01X10667541Y2927438D01*
G01X10980442Y2927438D01*
G01X10975342Y2657935D02*
G01X10975342Y2922338D01*
G01X10980442Y2927438D01*
G01X5253068Y2570433D02*
G01X5385670Y2703035D01*
G01X5798775Y2703035D01*
G01X5472371Y2810136D02*
G01X5477471Y2815236D01*
G01X5630473Y2815236D01*
G01X5186767Y2422531D02*
G01X5253068Y2356230D01*
G01X5747774Y2754036D02*
G01X5324469Y2754036D01*
G01X5186767Y2616334D01*
G01X5186767Y2422531D01*
G01X5105166Y2478632D02*
G01X5105166Y2907038D01*
G01X5171467Y2973338D01*
G01X6849389Y2825437D02*
G01X7043191Y2825437D01*
G01X7048291Y2830537D01*
G01X6599485Y2427631D02*
G01X6599485Y2565333D01*
G01X6533185Y2233829D02*
G01X6466884Y2167528D01*
G01X6533185Y2601034D02*
G01X6533185Y2233829D01*
G01X6716787Y2524533D02*
G01X6854489Y2662234D01*
G01X6706587Y2524533D02*
G01X6716787Y2524533D01*
G01X8370009Y2825641D02*
G01X8370213Y2825437D01*
G01X8552811Y2825437D01*
G01X8206006Y2514333D02*
G01X8206006Y2659424D01*
G01X8203195Y2662234D01*
G01X6854489Y2662234D02*
G01X8203195Y2662234D01*
G01X6696387Y2764236D02*
G01X6533185Y2601034D01*
G01X8032604Y2713235D02*
G01X8792514Y2713235D01*
G01X6599485Y2565333D02*
G01X6747387Y2713235D01*
G01X8032604Y2713235D01*
G01X8761913Y2764236D02*
G01X7961203Y2764236D01*
G01X6696387Y2764236D01*
G54D31*
G01X1878200Y891300D02*
G01X2599822Y891300D01*
G01X2728535Y1020013D01*
G01X4569659Y1020013D01*
G54D30*
G01X9368821Y3439744D02*
G01X9366020Y3439744D01*
G54D26*
G01X10756039Y3300246D02*
G01X10358737Y3300246D01*
G01X10052230Y2993739D01*
G54D30*
G01X12291159Y1060814D02*
G01X12423761Y1193415D01*
G01X10850390Y1333667D02*
G01X10631087Y1333667D01*
G01X10618337Y1320917D01*
G54D29*
G01X10536736Y3825050D02*
G01X13566176Y3825050D01*
G01X13907880Y3483345D02*
G01X13907880Y3243642D01*
G01X13735481Y3071243D01*
G01X13632476Y3071243D01*
G01X13566176Y3825050D02*
G01X13907880Y3483345D01*
G01X13632476Y3071243D02*
G01X13632476Y2552463D01*
G01X13278929Y2198915D01*
G54D30*
G01X13024929Y1690915D02*
G01X13147970Y1567874D01*
G01X13590535Y761051D02*
G01X13590535Y650000D01*
G01X13147970Y1567874D02*
G01X13147970Y1203616D01*
G01X13590535Y761051D01*
G54D27*
G01X12265659Y2361331D02*
G01X11796453Y2830537D01*
G01X11587350Y2830537D01*
G54D30*
G01X12388060Y1356618D02*
G01X12163657Y1132215D01*
G01X12388060Y1519820D02*
G01X12388060Y1356618D01*
G01X12275859Y647708D02*
G01X12777170Y647708D01*
G01X13051069Y921607D01*
G01X10832540Y2029826D02*
G01X11801553Y1060814D01*
G01X12291159Y1060814D01*
G01X12163657Y1132215D02*
G01X11827053Y1132215D01*
G01X10929441Y2029826D01*
G01X11051843Y2004326D02*
G01X11209945Y2004326D01*
G01X11612850Y1601421D01*
G01X11393547Y897612D02*
G01X11694451Y897612D01*
G01X12362560Y576307D02*
G01X12959769Y576307D01*
G01X13051069Y667607D01*
G01X11072243Y2325630D02*
G01X11072243Y2499032D01*
G01X12107557Y3534346D02*
G01X12612463Y3534346D01*
G01X11072243Y2499032D02*
G01X12107557Y3534346D01*
G54D27*
G01X4171854Y3182315D02*
G01X4360683Y3371144D01*
G01X4610460Y3371144D01*
G54D30*
G01X9904328Y1601421D02*
G01X9669725Y1601421D01*
G01X11454748Y1887024D02*
G01X11454748Y2085927D01*
G01X11373147Y2167528D01*
G01X10807040Y2167528D01*
G01X10694838Y2279730D01*
G54D29*
G01X10516336Y3804649D02*
G01X10536736Y3825050D01*
G01X9873728Y3804649D02*
G01X10516336Y3804649D01*
G54D30*
G01X4809362Y3855650D02*
G01X856811Y3855650D01*
G01X851711Y3850550D01*
G01X632408Y3763849D02*
G01X8726213Y3763849D01*
G01X8746613Y3743448D01*
G01X2692835Y3657716D02*
G01X8761913Y3657716D01*
G54D27*
G01X2662234Y3391544D02*
G01X2998839Y3054940D01*
G01X4503358Y3054940D02*
G01X4620660Y3172241D01*
G01X2998839Y3054940D02*
G01X4503358Y3054940D01*
G54D30*
G01X8792514Y2713235D02*
G01X8930216Y2850937D01*
G01X8904715Y2907038D02*
G01X8761913Y2764236D01*
G01X5798775Y2703035D02*
G01X6063978Y2968238D01*
G01X8996516Y2968238D01*
G01X9366020Y3439744D02*
G01X8945516Y3019239D01*
G01X6012978Y3019239D01*
G01X5747774Y2754036D01*
G01X10189932Y2040026D02*
G01X9969928Y1820023D01*
G01X10184832Y2152228D02*
G01X10184832Y2144049D01*
G01X9902307Y1861524D01*
G01X9664625Y1861524D01*
G01X9969928Y1820023D02*
G01X9924728Y1820023D01*
G01X9921029Y1816324D01*
G01X9618024Y1816324D01*
G01X9394322Y2040026D01*
G01X8930216Y2850937D02*
G01X9057717Y2850937D01*
G01X8203195Y2662234D02*
G01X8940415Y2662234D01*
G01X9496323Y3218141D01*
G01X9496323Y3561644D01*
G01X9057717Y2850937D02*
G01X9435122Y3228342D01*
G01X9435122Y3299743D01*
G01X9312924Y3187337D02*
G01X9032625Y2907038D01*
G01X8904715Y2907038D01*
G01X8996516Y2968238D02*
G01X9307620Y3279342D01*
G01X9307620Y3294643D01*
G01X9669725Y1601421D02*
G01X9298202Y1972944D01*
G01X9298202Y2000823D01*
G01X9623825Y1739123D02*
G01X9343402Y2019545D01*
G01X9343402Y2743917D01*
G01X9519445Y3177341D02*
G01X9552424Y3177341D01*
G01X8945516Y2305230D02*
G01X8945516Y2603412D01*
G01X9519445Y3177341D01*
G01X9343402Y2743917D02*
G01X9373921Y2774436D01*
G01X9373921Y2917238D01*
G01X9298202Y2000985D02*
G01X9298202Y2865456D01*
G01X9394322Y2652034D02*
G01X9470823Y2728535D01*
G01X9394322Y2040026D02*
G01X9394322Y2652034D01*
G01X9455522Y2595934D02*
G01X9557524Y2697935D01*
G01X8914915Y3162041D02*
G01X8981216Y3162041D01*
G01X9664625Y1861524D02*
G01X9455522Y2070627D01*
G01X9455522Y2595934D01*
G54D29*
G01X8805247Y3218142D02*
G01X8808046Y3220940D01*
G01X8825913Y3220940D01*
G01X9409622Y3804649D01*
G54D30*
G01X8878514Y3125640D02*
G01X8914915Y3162041D01*
G01X5068765Y3125640D02*
G01X8878514Y3125640D01*
G01X4819562Y2876437D02*
G01X5068765Y3125640D01*
G01X8925116Y3080440D02*
G01X5125566Y3080440D01*
G01X4890963Y2845837D01*
G01X4890963Y2080827D01*
G54D28*
G01X8445709Y1989026D02*
G01X8491610Y1989026D01*
G54D30*
G01X2922338Y2177728D02*
G01X2922338Y2692835D01*
G01X2850937Y2764236D01*
G54D32*
G01X1876824Y504907D02*
G01X2085927Y504907D01*
G01X3233442Y219303D02*
G01X3814849Y219303D01*
G54D28*
G01X5992577Y475404D02*
G01X6080282Y563109D01*
G01X6080282Y708909D01*
G01X6305381Y475404D02*
G01X6334282Y504305D01*
G01X6334282Y708909D01*
G01X6618185Y475404D02*
G01X6588282Y505308D01*
G01X6588282Y708909D01*
G01X6930989Y475404D02*
G01X6930989Y620202D01*
G01X6842282Y708909D01*
G01X7313494Y485604D02*
G01X7313494Y623646D01*
G01X7607598Y485604D02*
G01X7652758Y530764D01*
G01X7652758Y708909D01*
G01X7901702Y485604D02*
G01X7901702Y703854D01*
G01X8195806Y485604D02*
G01X8195806Y673861D01*
G01X8160758Y708909D01*
G01X8654812Y485604D02*
G01X8654812Y646487D01*
G01X8717234Y708909D01*
G01X8954016Y485604D02*
G01X8971234Y502822D01*
G01X8971234Y708909D01*
G01X9253219Y485604D02*
G01X9253219Y680923D01*
G01X9225234Y708909D01*
G01X9552423Y485604D02*
G01X9552423Y635719D01*
G01X9479234Y708909D01*
G54D30*
G01X10633638Y2024726D02*
G01X10633638Y2203229D01*
G01X10694838Y2279730D02*
G01X10557137Y2279730D01*
G01X10016530Y1739123D01*
G01X9623825Y1739123D01*
G01X7920402Y2198128D02*
G01X7961203Y2238929D01*
G01X7961203Y2570433D01*
G01X10592837Y1473919D02*
G01X10613237Y1453519D01*
G01X10837640Y1453519D01*
G01X11393547Y897612D01*
G01X11638351Y1035313D02*
G01X11684251Y989413D01*
G01X12323427Y989413D01*
G01X13024929Y1690915D01*
G01X11057267Y1433119D02*
G01X11057267Y1601097D01*
G01X10633638Y2024726D01*
G01X10766239Y1519820D02*
G01X10858041Y1519820D01*
G01X11342547Y1035313D01*
G01X11638351Y1035313D01*
G01X11638351Y2422531D02*
G01X11663851Y2448032D01*
G01X11786253Y2448032D01*
G54D26*
G01X10052230Y2993739D02*
G01X10052230Y2926644D01*
G01X10052230Y2560233D01*
G54D28*
G01X9873728Y1944731D02*
G01X9873728Y2926644D01*
G01X9873728Y3804649D01*
G54D29*
G01X9409622Y3804649D02*
G01X9873728Y3804649D01*
G54D30*
G01X10195032Y2310330D02*
G01X10195032Y2611234D01*
G01X10465335Y2881537D01*
G01X3279342Y1442817D02*
G01X3851051Y1442817D01*
G01X4008652Y1285217D01*
G01X4635960Y1943125D02*
G01X4819562Y2126728D01*
G01X4819562Y2876437D01*
G54D32*
G01X2085927Y504907D02*
G01X2249129Y668109D01*
G01X2784636Y668109D01*
G01X3233442Y219303D01*
G54D29*
G01X5895676Y1693222D02*
G01X5895676Y2131828D01*
G01X5691674Y1642221D02*
G01X5691674Y1973726D01*
G54D30*
G01X3279342Y1569817D02*
G01X3912754Y1569817D01*
G01X4044352Y1438219D01*
G54D29*
G01X8805247Y3218142D02*
G01X6706587Y3218142D01*
G01X4666560Y3218142D01*
G01X6805163Y2113102D02*
G01X6828988Y2136928D01*
G01X7012591Y1989026D02*
G01X7017165Y1984451D01*
G01X7140092Y1999226D02*
G01X7144823Y1994496D01*
G01X9474133Y843300D02*
G01X9474133Y708909D01*
G01X9379021Y938412D02*
G01X9474133Y843300D01*
G01X8828214Y2157328D02*
G01X8828214Y1347798D01*
G01X9237600Y938412D01*
G01X9379021Y938412D01*
G01X9220133Y708909D02*
G01X8603811Y1325231D01*
G01X8603811Y2004326D01*
G01X8445709Y1253552D02*
G01X8445709Y1989026D01*
G01X8966133Y708909D02*
G01X8966133Y733128D01*
G01X8445709Y1253552D01*
G01X8712133Y708909D02*
G01X8712133Y779089D01*
G01X8272307Y1218916D01*
G01X8272307Y2152228D01*
G01X7359395Y1438219D02*
G01X7359395Y2157328D01*
G01X8155658Y708909D02*
G01X8155658Y830659D01*
G01X7981603Y1004713D01*
G01X7792901Y1004713D01*
G01X7359395Y1438219D01*
G54D28*
G01X7904208Y706359D02*
G01X7906758Y708909D01*
G54D29*
G01X7393658Y708909D02*
G01X7249418Y853149D01*
G54D28*
G01X7313494Y623646D02*
G01X7398758Y708909D01*
G54D29*
G01X7144823Y1994496D02*
G01X7144823Y1465744D01*
G01X7901658Y708909D01*
G01X7017165Y1984451D02*
G01X7017165Y1339402D01*
G01X7647658Y708909D01*
G01X7249418Y853149D02*
G01X7153954Y853149D01*
G01X6805163Y1201941D01*
G01X6805163Y2113102D01*
G01X6837182Y708909D02*
G01X6837182Y751716D01*
G01X5895676Y1693222D01*
G01X6583182Y708909D02*
G01X6583182Y750713D01*
G01X5691674Y1642221D01*
G01X6329182Y759910D02*
G01X6329182Y708909D01*
G01X5365269Y2187928D02*
G01X5365269Y1453519D01*
G01X6075182Y743606D01*
G01X6075182Y708909D01*
G01X5569272Y1983926D02*
G01X5569272Y1519820D01*
G01X6329182Y759910D01*
G01X5547869Y708909D02*
G01X5547869Y989413D01*
G04 Track End*

M02*

