;TYPE=PLATED
;Layer: PTH_Through
;EasyEDA Pro Client v2.2.32.3, 2025-07-09 15:58:04
;Gerber Generator version 0.3
M48
METRIC,LZ,000.00000
;Hole size 1 = 0.30000 METRIC
T01C0.30000
;Hole size 2 = 0.50000 METRIC
T02C0.50000
;Hole size 3 = 0.90000 METRIC
T03C0.90000
;Hole size 4 = 1.00000 METRIC
T04C1.00000
;Hole size 5 = 1.60000 METRIC
T05C1.60000
;Hole size 6 = 2.50002 METRIC
T06C2.50002
%
G05
G90
T01
X-22.75723Y-21.12457
X-19.7992Y-38.8728
X-34.64039Y-27.49965
X-27.24529Y-21.43057
X-36.37441Y-40.49773
X-44.27951Y-15.9735
X-41.03549Y-12.70946
X-41.03549Y-24.84761
X-46.72754Y-9.80242
X-46.72754Y-6.89538
X-56.92768Y-12.76046
X-56.11167Y-6.94638
X-52.49062Y-10.72043
X-56.11167Y-14.34148
X-33.77338Y-11.84245
X-42.91866Y-2.71333
X-44.17751Y-41.61077
X-28.31631Y-27.55065
X-57.79469Y-4.19235
X-53.39304Y-3.57269
X-52.44103Y-3.57269
X-51.48902Y-3.57269
X-50.537Y-3.57269
X-63.54217Y-6.72196
X-62.59016Y-6.72196
X-61.63815Y-6.72196
X-60.68613Y-6.72196
X-63.54217Y-5.61272
X-62.59016Y-5.61272
X-61.63815Y-5.61272
X-60.68613Y-5.61272
X-63.69517Y-4.4397
X-62.74316Y-4.4397
X-61.79115Y-4.4397
X-60.83914Y-4.4397
X-20.20861Y4.68941
X-19.2566Y4.68941
X-20.19595Y5.67687
X-19.24393Y5.67687
X-22.02763Y12.03351
X-20.05561Y13.00252
X-20.12361Y12.03351
X-19.1716Y12.03351
X-4.0414Y-12.65081
X-10.90949Y-13.97683
X-3.9394Y-14.99684
X-10.17848Y-14.33383
X0.51575Y-11.1727
X0.51575Y-12.12471
X0.51575Y-10.22068
X0.51575Y-13.07672
X1.99477Y-12.12471
X1.99477Y-11.1727
X1.99477Y-10.22068
X1.99477Y-13.07672
X2.35178Y-19.84281
X2.35178Y-20.79482
X6.78883Y-19.96181
X2.35178Y-21.74683
X3.83079Y-20.79482
X3.83079Y-19.84281
X3.83079Y-18.8908
X3.83079Y-21.74683
X5.51382Y-20.79482
X5.51382Y-19.84281
X5.51382Y-18.8908
X5.51382Y-21.74683
X7.14584Y-16.32376
X7.14584Y-17.27577
X7.14584Y-15.37175
X7.14584Y-18.22779
X8.62486Y-17.27577
X8.62486Y-16.32376
X8.62486Y-15.37175
X8.62486Y-18.22779
X9.03286Y-14.11373
X11.6849Y-13.46773
X10.00187Y-15.77976
X10.30788Y-18.22779
X-43.14081Y-45.80214
X-43.14081Y-46.75416
X-43.14081Y-44.85013
X-43.14081Y-47.70617
X-41.66179Y-46.75416
X-41.66179Y-45.80214
X-41.66179Y-44.85013
X-41.66179Y-47.70617
X-39.97877Y-46.75416
X-39.97877Y-45.80214
X-39.97877Y-44.85013
X-39.97877Y-47.70617
X-37.98975Y-45.80214
X-37.98975Y-46.75416
X-37.98975Y-44.85013
X-37.98975Y-47.70617
X-36.51073Y-46.75416
X-36.51073Y-45.80214
X-36.51073Y-44.85013
X-36.51073Y-47.70617
X-34.82771Y-46.75416
X-34.82771Y-45.80214
X-34.82771Y-44.85013
X-34.82771Y-47.70617
X-33.14468Y-45.85314
X-33.14468Y-46.80516
X-33.14468Y-44.90113
X-33.14468Y-47.75717
X-31.66566Y-46.80516
X-31.66566Y-45.85314
X-31.66566Y-44.90113
X-31.66566Y-47.75717
X-29.98264Y-46.80516
X-29.98264Y-45.85314
X-29.98264Y-44.90113
X-29.98264Y-47.75717
X-28.29962Y-45.80214
X-28.29962Y-46.75416
X-28.29962Y-44.85013
X-28.29962Y-47.70617
X-26.8206Y-46.75416
X-26.8206Y-45.80214
X-26.8206Y-44.85013
X-26.8206Y-47.70617
X-25.13758Y-46.75416
X-25.13758Y-45.80214
X-25.13758Y-44.85013
X-25.13758Y-47.70617
X-23.60756Y-46.21015
X-23.60756Y-47.16216
X-23.60756Y-45.25814
X-23.60756Y-48.11417
X-22.12854Y-47.16216
X-22.12854Y-46.21015
X-22.12854Y-45.25814
X-22.12854Y-48.11417
X-20.44552Y-47.16216
X-20.44552Y-46.21015
X-20.44552Y-45.25814
X-20.44552Y-48.11417
X-17.94649Y-46.51615
X-17.94649Y-47.46817
X-17.94649Y-45.56414
X-17.94649Y-48.42018
X-16.46747Y-47.46817
X-16.46747Y-46.51615
X-16.46747Y-45.56414
X-16.46747Y-48.42018
X-14.78445Y-47.46817
X-14.78445Y-46.51615
X-14.78445Y-45.56414
X-14.78445Y-48.42018
X-16.56947Y-42.7421
X-16.56947Y-43.69412
X-16.56947Y-41.79009
X-16.56947Y-44.64613
X-15.09045Y-43.69412
X-15.09045Y-42.7421
X-15.09045Y-41.79009
X-15.09045Y-44.64613
X-13.40743Y-43.69412
X-13.40743Y-42.7421
X-13.40743Y-41.79009
X-13.40743Y-44.64613
X-36.96973Y-37.08103
X-29.52364Y-38.18605
X-36.51073Y-42.6571
X-29.52364Y-39.13806
X-28.04462Y-38.18605
X-28.04462Y-37.23403
X-28.04462Y-36.28202
X-28.04462Y-39.13806
X-26.3616Y-38.18605
X-26.3616Y-37.23403
X-26.3616Y-36.28202
X-26.3616Y-39.13806
X-29.67664Y-33.00098
X-38.95876Y-28.85292
X-29.67664Y-32.04897
X-39.06076Y-32.91598
X-28.19762Y-33.95299
X-28.19762Y-33.00098
X-28.19762Y-32.04897
X-28.19762Y-34.905
X-26.5146Y-33.95299
X-26.5146Y-33.00098
X-26.5146Y-32.04897
X-26.5146Y-34.905
X-33.70569Y-37.33603
X-33.70569Y-38.28805
X-33.70569Y-36.38402
X-33.70569Y-39.24006
X-32.22667Y-38.28805
X-39.00976Y-30.11094
X-32.22667Y-39.24006
X-30.54365Y-38.28805
X-39.11176Y-27.59491
X-38.49975Y-35.21101
X-30.54365Y-39.24006
X-45.02784Y-46.80516
X-45.02784Y-45.85314
X-45.02784Y-44.90113
X-45.02784Y-47.75717
X-62.52106Y-32.09997
X-61.04204Y-32.09997
X-59.35902Y-32.09997
X-67.05248Y-31.3181
X-67.05248Y-32.27011
X-67.05248Y-30.36609
X-67.05248Y-33.22212
X-65.57346Y-32.27011
X-65.57346Y-31.3181
X-65.57346Y-30.36609
X-65.57346Y-33.22212
X-63.89044Y-32.27011
X-63.89044Y-31.3181
X-63.89044Y-30.36609
X-63.89044Y-33.22212
X-68.89615Y-16.47676
X-68.89615Y-17.42878
X-68.89615Y-15.52475
X-68.89615Y-18.38079
X-67.41713Y-17.42878
X-67.41713Y-16.47676
X-67.41713Y-15.52475
X-67.41713Y-18.38079
X-65.73411Y-17.42878
X-65.73411Y-16.47676
X-65.73411Y-15.52475
X-65.73411Y-18.38079
X-77.26025Y-12.85572
X-77.26025Y-13.80773
X-77.26025Y-11.9037
X-77.26025Y-14.75974
X-75.78124Y-13.80773
X-75.78124Y-12.85572
X-75.78124Y-11.9037
X-75.78124Y-14.75974
X-74.09821Y-13.80773
X-74.09821Y-12.85572
X-74.09821Y-11.9037
X-74.09821Y-14.75974
X-77.31249Y-8.44254
X-77.31249Y-9.39456
X-77.31249Y-7.49053
X-77.31249Y-10.34657
X-75.83347Y-9.39456
X-75.83347Y-8.44254
X-75.83347Y-7.49053
X-75.83347Y-10.34657
X-74.15045Y-9.39456
X-74.15045Y-8.44254
X-74.15045Y-7.49053
X-74.15045Y-10.34657
X-68.99815Y-3.7776
X-68.99815Y-4.72961
X-68.99815Y-5.68162
X-67.51913Y-4.72961
X-67.51913Y-3.7776
X-67.51913Y-5.68162
X-65.83611Y-4.72961
X-65.83611Y-3.7776
X-65.83611Y-5.68162
X-78.334Y-4.80464
X-78.334Y-5.75665
X-78.334Y-3.85263
X-78.334Y-6.70866
X-76.85498Y-5.75665
X-76.85498Y-4.80464
X-76.85498Y-3.85263
X-76.85498Y-6.70866
X-75.17196Y-5.75665
X-75.17196Y-4.80464
X-75.17196Y-3.85263
X-75.17196Y-6.70866
X-71.85418Y21.62073
X-71.85418Y20.66872
X-71.85418Y22.57274
X-71.85418Y19.7167
X-70.37517Y20.66872
X-70.37517Y21.62073
X-70.37517Y22.57274
X-70.37517Y19.7167
X-68.69214Y20.66872
X-68.69214Y21.62073
X-68.69214Y22.57274
X-68.69214Y19.7167
X-59.46102Y18.86669
X-59.46102Y17.91468
X-78.12727Y21.96073
X-59.46102Y16.96267
X-57.982Y17.91468
X-57.982Y18.86669
X-76.64825Y21.96073
X-57.982Y16.96267
X-56.29898Y17.91468
X-56.29898Y18.86669
X-74.96522Y21.96073
X-56.29898Y16.96267
X-74.60822Y20.29471
X-76.95425Y20.20971
X-73.3332Y20.12471
X-73.3842Y22.26674
X-29.21763Y26.34679
X-29.57464Y22.87875
X-27.73861Y26.34679
X-26.3106Y20.88972
X-26.05559Y26.34679
X-29.52364Y20.99172
X-51.45392Y6.06553
X-49.9239Y4.87551
X-52.83094Y3.8725
X-52.83094Y4.82451
X-51.14792Y3.8725
X-51.14792Y4.82451
X-39.06076Y4.63751
X-39.06076Y3.6855
X-39.06076Y5.58952
X-39.06076Y2.73348
X-37.83674Y5.70852
X-37.83674Y4.75651
X-37.83674Y6.66054
X-36.35773Y4.75651
X-36.35773Y5.70852
X-35.03171Y-1.29557
X-36.35773Y3.37949
X-37.32674Y3.51549
X15.25494Y-47.89317
X14.99994Y-45.81914
X16.52996Y-47.53617
X16.47896Y-45.81914
X18.16198Y-46.77116
X18.16198Y-45.81914
X10.30788Y-45.92115
X11.7869Y-45.92115
X13.46992Y-45.92115
X5.56482Y-46.82216
X5.56482Y-45.87014
X7.04384Y-46.82216
X7.04384Y-45.87014
X8.72686Y-46.82216
X8.72686Y-45.87014
X1.12776Y-45.97215
X2.60678Y-45.97215
X4.2898Y-45.97215
X-9.75883Y-30.90207
X-9.75883Y-31.85408
X6.51038Y-28.57304
X7.9384Y-28.62404
X0.1863Y-33.58811
X0.1863Y-32.63609
X0.1863Y-31.68408
X0.1863Y-34.54012
X1.86932Y-33.58811
X1.86932Y-32.63609
X8.24441Y-22.19796
X9.21342Y-21.43295
X13.24141Y-31.75217
X14.19343Y-31.75217
X13.00341Y-28.43713
X13.7808Y-32.59891
X14.73281Y-32.59891
X12.62478Y-32.64991
X12.3744Y-38.68826
X13.32641Y-38.68826
X14.27843Y-38.68826
X8.80297Y-39.10199
X9.75498Y-39.10199
X10.70699Y-39.10199
X-27.0756Y-29.29493
X-27.0756Y-30.24694
X-27.0756Y-31.19895
X-24.09107Y-13.64694
X-23.24106Y-13.64694
X-24.73708Y-13.08593
X-24.14193Y-14.60831
X-23.44492Y-14.4043
X-25.45094Y-12.82328
X-25.39258Y-16.39176
X-26.05559Y-16.98677
X-30.33965Y-8.43566
X-30.33965Y-9.38767
X-30.33965Y-10.33968
X-29.47264Y-8.63966
X-29.47264Y-9.59168
X-29.47264Y-10.54369
X-31.20666Y-11.2237
X-31.20666Y-12.17571
X-37.37754Y-14.13856
X-37.37754Y-15.09057
X-37.37754Y-16.04259
X-40.64178Y-7.10964
X-38.70376Y-8.62266
X-40.33578Y-7.99365
X-54.82879Y-3.4034
X-51.93876Y-4.93342
X-51.13975Y-4.57642
X-47.40902Y-1.0476
X-46.91601Y-1.76161
X-44.79098Y-2.83262
X-58.87352Y2.41827
X-57.92151Y2.41827
X-56.96949Y2.41827
X-56.34998Y6.91554
X-50.2299Y6.01453
X-51.40292Y7.35754
X-59.68305Y15.54278
X-61.36607Y14.74377
X-61.00906Y13.43476
X-60.80506Y12.68675
X-61.21307Y11.93874
X-61.06006Y10.62972
X-61.24605Y9.72057
X-59.56303Y6.52453
X-60.88904Y7.45955
X-58.59852Y6.87727
X-39.04178Y11.34569
X-38.88878Y9.93467
X-40.3168Y11.63469
X-36.25572Y-0.70056
X-38.60175Y6.25253
X-37.83674Y2.24048
X-36.71473Y1.44147
X-21.08203Y12.8734
X-17.98799Y11.85339
X-18.00499Y9.81336
X-31.76767Y-33.11998
X-30.64565Y-32.50797
X-29.06463Y-31.02895
X-30.54365Y-28.12191
X-31.66566Y-29.24393
X-33.75669Y-31.18195
X-26.6166Y-27.71391
X-26.4126Y-23.73586
X-25.45566Y-24.48502
X-28.04462Y-30.16194
X-44.98588Y-43.2748
X-43.30285Y-43.2748
X-38.95876Y-43.37111
X-37.47974Y-43.37111
X-35.79672Y-43.37111
X-34.2157Y-43.37111
X-32.73668Y-43.37111
X-31.05366Y-43.37111
X-29.62564Y-43.37111
X-28.14662Y-43.37111
X-26.4636Y-43.37111
X-30.08464Y-42.1471
X-28.60562Y-42.1471
X-26.9226Y-42.1471
X-34.7257Y-42.2491
X-33.24668Y-42.2491
X-31.56366Y-42.2491
X-47.37387Y-42.4021
X-74.45522Y-20.06381
X-72.9762Y-20.06381
X-71.29318Y-20.06381
X-67.00912Y-20.11481
X-65.5301Y-20.11481
X-63.84708Y-20.11481
X-77.77026Y-18.83979
X-76.29124Y-18.83979
X-74.60822Y-18.83979
X-18.25249Y7.93555
X-18.55849Y6.35453
X-25.08658Y29.61083
X-25.54559Y33.28288
X-24.67857Y30.68185
X-24.93358Y32.61987
X-29.93164Y34.5069
X-28.45262Y34.5069
X-26.7696Y34.5069
X-25.23958Y34.5579
X-24.88258Y31.70186
X-21.77154Y34.4559
X-35.33771Y34.5069
X-33.85869Y34.5069
X-32.17567Y34.5069
X-41.10079Y23.28675
X-38.70376Y22.47074
X-39.67277Y-18.9758
X-38.44875Y-15.38875
X-39.41776Y-17.00377
X-38.29575Y-16.54476
X-55.38097Y-21.37283
X-42.93681Y-20.87982
X-39.21376Y-15.96676
X-52.59152Y-21.44531
X-53.54353Y-21.44531
X-50.68749Y-21.44531
X-51.63951Y-21.44531
X-46.65986Y-16.22176
X-47.27187Y-15.16775
X-46.65986Y-18.12579
X-46.65986Y-17.17377
X-49.5064Y-0.13177
X-50.45841Y-0.13177
X-47.60237Y-0.13177
X-48.55439Y-0.13177
X-57.5645Y-0.69277
X-58.51651Y-0.69277
X-55.66048Y-0.69277
X-56.61249Y-0.69277
X-53.53545Y2.21427
X-48.82639Y3.59128
X-51.63143Y2.21427
X-52.58344Y2.21427
X-49.09839Y2.26527
X-50.05041Y2.26527
X-47.19437Y2.26527
X-48.14638Y2.26527
X-43.48832Y0.53124
X-40.61528Y-2.32479
X-42.2473Y-0.53977
X-39.17026Y-3.34481
X-37.90304Y-9.45539
X-51.11221Y-5.71534
X-41.32008Y-6.12335
X-39.53506Y-8.40138
X-50.20341Y-46.64437
X-50.20341Y-45.16535
X-50.20341Y-43.48233
X15.1963Y-23.95672
X-2.55193Y-20.48867
X-5.20397Y-22.7327
X12.08526Y9.49971
X-42.68755Y9.145
X-42.68755Y15.31608
X-62.87807Y18.59469
X-62.87807Y21.45073
X-62.87807Y20.49871
X-62.87807Y19.5467
X-66.04011Y18.59469
X-66.04011Y21.45073
X-66.04011Y19.5467
X-66.04011Y20.49871
X-64.56109Y18.59469
X-64.56109Y21.45073
X-64.56109Y20.49871
X-64.56109Y19.5467
X-60.63404Y23.23575
X-60.63404Y26.09179
X-60.63404Y25.13977
X-60.63404Y24.18776
X-63.79608Y23.23575
X-63.79608Y26.09179
X-63.79608Y24.18776
X-63.79608Y25.13977
X-62.31706Y23.23575
X-62.31706Y26.09179
X-62.31706Y25.13977
X-62.31706Y24.18776
X-59.56303Y27.4688
X-59.56303Y30.32484
X-59.56303Y29.37283
X-59.56303Y28.42082
X-62.72507Y27.4688
X-62.72507Y30.32484
X-62.72507Y28.42082
X-62.72507Y29.37283
X-61.24605Y27.4688
X-61.24605Y30.32484
X-61.24605Y29.37283
X-61.24605Y28.42082
X-56.21339Y31.97136
X-56.21339Y34.8274
X-56.21339Y33.87539
X-56.21339Y32.92337
X-59.37543Y31.97136
X-59.37543Y34.8274
X-59.37543Y32.92337
X-59.37543Y33.87539
X-57.89641Y31.97136
X-57.89641Y34.8274
X-57.89641Y33.87539
X-57.89641Y32.92337
X-60.99679Y4.70795
X-54.62171Y-38.99962
X-55.43772Y-37.2656
X-53.49969Y-30.78851
X-55.23371Y-29.20749
X-48.70563Y-31.70653
X-48.65463Y-28.18748
X-67.98388Y-25.43344
X-68.08588Y-28.74849
X-59.56877Y-21.7614
X-56.91674Y-22.1184
X-55.18271Y-25.33144
X-37.94449Y-37.7246
X-41.51454Y2.87192
X-11.84985Y-32.10909
X-16.38891Y-32.10909
X-17.35793Y-32.8741
X-13.94088Y-32.8231
X-14.47844Y30.63085
X-14.47844Y28.38682
X-14.58044Y27.3838
X-14.47844Y29.49183
X-11.72441Y27.82581
X-12.08141Y26.15979
X-11.1124Y27.1118
X-12.64242Y27.1798
X-43.90582Y-34.701
X-44.87484Y-34.03799
X-50.38291Y-30.67195
X11.9909Y3.14149
X11.53189Y2.01948
X10.66488Y1.05046
X-18.92124Y-12.39316
X-19.02325Y-27.69336
X-17.74823Y-18.92124
X-10.35313Y-10.45514
X-19.02325Y-15.4532
X-37.53649Y-22.54229
X-25.90834Y-10.40413
X-45.33959Y-32.89543
X-8.77211Y-17.59523
X-6.42608Y-3.70007
X-3.16204Y-3.70007
X-8.16011Y-12.29116
X-13.46417Y-1.73402
X-10.35313Y-1.73402
X9.38412Y8.51711
X-11.27115Y22.28729
X-24.11757Y34.06489
X-24.11757Y33.11288
X-24.11757Y32.16087
X-24.11757Y35.0169
X-22.63855Y33.11288
X-22.63855Y34.06489
X-22.63855Y32.16087
X-22.63855Y35.0169
X-20.95553Y32.16087
X-20.95553Y35.0169
X-20.95553Y33.11288
X-20.95553Y34.06489
X-20.13952Y33.96289
X-20.13952Y33.01088
X-20.13952Y32.05886
X-19.78251Y34.9149
X-18.6605Y33.01088
X-18.6605Y33.96289
X-18.6605Y32.05886
X-18.6605Y34.9149
X-16.97747Y32.05886
X-16.97747Y34.9149
X-16.97747Y33.01088
X-16.97747Y33.96289
X-15.90646Y33.91189
X-15.90646Y32.95988
X-15.90646Y32.00786
X-15.90646Y34.8639
X-14.42744Y32.95988
X-14.42744Y33.91189
X-14.42744Y32.00786
X-14.42744Y34.8639
X-12.74442Y32.00786
X-12.74442Y34.8639
X-12.74442Y32.95988
X-12.74442Y33.91189
X-23.70956Y29.8544
X-23.70956Y28.90239
X-23.70956Y27.95038
X-23.70956Y30.80641
X-22.23054Y28.90239
X-22.23054Y29.8544
X-22.23054Y27.95038
X-22.23054Y30.80641
X-20.54752Y27.95038
X-20.54752Y30.80641
X-20.54752Y28.90239
X-20.54752Y29.8544
X-19.3235Y29.78083
X-19.3235Y28.82882
X-19.3235Y27.87681
X-19.3235Y30.73285
X-17.84449Y28.82882
X-17.84449Y29.78083
X-17.84449Y27.87681
X-17.84449Y30.73285
X-16.16146Y27.87681
X-16.16146Y30.73285
X-16.16146Y28.82882
X-16.16146Y29.78083
X-9.15199Y13.72279
X-9.15199Y12.77077
X-9.15199Y11.81876
X-9.15199Y14.6748
X-7.67298Y12.77077
X-7.67298Y13.72279
X-7.67298Y11.81876
X-7.67298Y14.6748
X-5.98995Y11.81876
X-5.98995Y14.6748
X-5.98995Y12.77077
X-5.98995Y13.72279
X-30.08464Y21.56973
X-30.08464Y20.61772
X-30.08464Y19.6657
X-30.08464Y22.52174
X-28.60562Y20.61772
X-28.60562Y21.56973
X-28.60562Y19.6657
X-28.60562Y22.52174
X-26.9226Y19.6657
X-26.9226Y22.52174
X-26.9226Y20.61772
X-26.9226Y21.56973
X-22.17954Y15.34765
X-22.17954Y14.39564
X-22.17954Y13.44362
X-22.17954Y16.29966
X-20.70052Y14.39564
X-20.70052Y15.34765
X-17.99749Y10.94459
X-20.70052Y16.29966
X-18.09949Y8.80256
X-19.0175Y16.29966
X-19.0175Y14.39564
X-19.0175Y15.34765
X-41.15179Y9.43157
X-41.15179Y8.47956
X-41.15179Y7.52755
X-41.15179Y10.38358
X-39.67277Y8.47956
X-39.67277Y9.43157
X-39.67277Y7.52755
X-39.67277Y10.38358
X-37.98975Y7.52755
X-37.98975Y10.38358
X-37.98975Y8.47956
X-37.98975Y9.43157
X-52.22468Y25.34733
X-3.3093Y22.94675
X-3.3093Y21.99473
X-3.3093Y21.04272
X-3.3093Y23.89876
X-1.83028Y21.99473
X-1.83028Y22.94675
X-1.83028Y21.04272
X-1.83028Y23.89876
X-0.14726Y21.04272
X-0.14726Y23.89876
X-0.14726Y21.99473
X-0.14726Y22.94675
X-4.02331Y27.2308
X-4.02331Y26.27879
X-4.02331Y25.32678
X-4.02331Y28.18281
X-2.54429Y26.27879
X-2.54429Y27.2308
X-2.54429Y25.32678
X-2.54429Y28.18281
X-0.86127Y25.32678
X-0.86127Y28.18281
X-0.86127Y26.27879
X-0.86127Y27.2308
X2.04577Y18.96869
X2.04577Y18.01668
X2.04577Y17.06467
X2.04577Y19.92071
X3.52479Y18.01668
X3.52479Y18.96869
X3.52479Y17.06467
X3.52479Y19.92071
X5.20781Y17.06467
X5.20781Y19.92071
X5.20781Y18.01668
X5.20781Y18.96869
X6.73783Y19.6827
X6.73783Y18.73069
X6.73783Y17.77868
X6.73783Y20.63472
X8.21685Y18.73069
X8.21685Y19.6827
X8.21685Y17.77868
X8.21685Y20.63472
X9.89987Y17.77868
X9.89987Y20.63472
X9.89987Y18.73069
X9.89987Y19.6827
X11.27689Y20.49871
X11.27689Y21.45073
X12.60291Y22.02873
X12.60291Y22.98075
X13.2954Y23.9259
X13.2954Y24.87791
X14.54093Y25.54778
X14.54093Y26.49979
X15.66295Y26.46579
X15.66295Y27.4178
X16.68296Y26.8738
X16.68296Y27.82581
X17.90698Y27.0268
X17.90698Y27.97881
X19.0954Y26.54986
X19.0954Y27.50187
X13.26592Y1.62847
X13.26592Y2.58048
X-22.89355Y-2.65559
X-22.89355Y-1.70357
X-21.82254Y-2.34958
X-21.82254Y-1.39757
X-19.7337Y-1.37127
X-20.68572Y-1.37127
X-29.57464Y-20.40381
X-29.57464Y-19.4518
X-30.2319Y-19.97543
X-30.2319Y-19.02342
X-31.10466Y-20.40381
X-31.10466Y-19.4518
X-32.27767Y-20.50582
X-32.27767Y-19.5538
X-34.31989Y-17.33448
X-35.27191Y-17.33448
X-35.39091Y-18.25249
X-36.34292Y-18.25249
X-36.35992Y-19.3235
X-37.31193Y-19.3235
X-17.29442Y-25.92369
X-17.80442Y-26.7567
X-13.40743Y-27.0339
X-13.40743Y-26.08189
X-4.58651Y-25.54559
X-5.53852Y-25.54559
X-70.37517Y-2.00958
X-70.37517Y-1.05756
X-70.37517Y-0.10555
X-73.53721Y0.84646
X-72.05819Y0.84646
X-70.37517Y0.84646
X-73.53721Y-0.10555
X-73.53721Y-1.05756
X-73.53721Y-2.00958
X-72.05819Y-1.05756
X-72.05819Y-0.10555
X-72.05819Y-2.00958
X-74.96522Y-2.06058
X-74.96522Y-1.10857
X-74.96522Y-0.15655
X-78.12727Y0.79546
X-76.64825Y0.79546
X-74.96522Y0.79546
X-78.12727Y-0.15655
X-78.12727Y-1.10857
X-78.12727Y-2.06058
X-76.64825Y-1.10857
X-76.64825Y-0.15655
X-76.64825Y-2.06058
X-74.91422Y-35.92502
X-74.91422Y-34.973
X-74.91422Y-34.02099
X-78.07626Y-33.06898
X-76.59725Y-33.06898
X-74.91422Y-33.06898
X-78.07626Y-34.02099
X-78.07626Y-34.973
X-78.07626Y-35.92502
X-76.59725Y-34.973
X-76.59725Y-34.02099
X-76.59725Y-35.92502
X-45.99685Y-47.80817
X-45.99685Y-46.85616
X-45.99685Y-45.90414
X-49.15889Y-44.95213
X-47.67987Y-44.95213
X-45.99685Y-44.95213
X-49.15889Y-45.90414
X-49.15889Y-46.85616
X-49.15889Y-47.80817
X-47.67987Y-46.85616
X-47.67987Y-45.90414
X-47.67987Y-47.80817
X-34.4707Y33.43588
X-32.99168Y33.43588
X-31.30866Y33.43588
X-30.39065Y32.82387
X-28.91163Y32.82387
X-27.22861Y32.82387
X-30.49265Y31.44686
X-29.01363Y31.44686
X-27.33061Y31.44686
X-9.17252Y-0.33659
X-7.69351Y-0.33659
X-6.01048Y-0.33659
X-9.38125Y0.78876
X-7.90223Y0.78876
X-6.21921Y0.78876
X-9.81051Y1.8728
X-8.33149Y1.8728
X-6.64847Y1.8728
X-2.13628Y15.48365
X-2.23828Y14.51464
X-3.05429Y13.54562
X-6.26734Y10.33258
X-6.21634Y8.80256
X-6.06333Y7.01754
X-7.44035Y9.51657
X-8.15436Y10.58759
X-7.44035Y8.24156
X-8.97037Y9.77158
X-4.90841Y-12.90581
X-3.42939Y-10.45778
X-3.8884Y-9.43777
X-6.64244Y-7.49974
X-6.82932Y-10.07839
X-7.56045Y-10.45778
X-6.54043Y-6.78573
X-10.11048Y-7.49974
X-11.3345Y-9.43777
X-12.68224Y-7.51063
X-18.21959Y-10.35578
X-17.19957Y-10.04978
X-17.76058Y-7.19374
X-23.72766Y-7.29574
X-28.11371Y-7.44874
X-30.25574Y-7.29574
X-31.78576Y-6.93874
X-31.93876Y-5.76572
X-33.11178Y-6.88774
X-28.31772Y-8.31575
X-22.19764Y-9.48877
X-21.58563Y-8.41776
X-23.21765Y-11.27379
X-24.49267Y-11.5288
T02
X-23.71531Y22.23629
T03
X16.27265Y-29.98654
X13.73265Y-29.98654
X11.19265Y-29.98654
X16.27265Y-36.61662
X13.73265Y-36.61662
X11.19265Y-36.61662
X16.27265Y-43.24671
X13.73265Y-43.24671
X11.19265Y-43.24671
X-77.06905Y-23.6746
X-77.06905Y-26.2146
X-77.06905Y-28.7546
X-77.06905Y-31.2946
X17.50266Y-21.97944
X17.50266Y-19.43944
X17.50266Y-16.89944
X17.50266Y-14.35944
X17.50266Y-8.77026
X17.50266Y-6.23026
X17.50266Y-3.69026
X17.50266Y-1.15026
X7.10256Y-8.77026
X7.10256Y-6.23026
X7.10256Y-3.69026
X7.10256Y-1.15026
X17.50266Y4.43891
X17.50266Y6.97891
X17.50266Y9.51891
X17.50266Y12.05891
X-77.1149Y15.86978
X-77.1149Y13.32978
X-53.07974Y-47.06517
X-55.61974Y-47.06517
X-58.15974Y-47.06517
X-77.1149Y7.50567
X-77.1149Y4.96567
X-45.70351Y33.57203
X-48.24351Y33.57203
X17.50266Y17.65982
X17.50266Y20.19982
X17.50266Y22.73982
X17.50266Y25.27982
X-10.549Y33.47002
X-8.009Y33.47002
X-5.469Y33.47002
X7.03809Y7.14009
X7.03809Y9.68009
X7.03809Y12.22009
X7.03809Y14.76009
T04
X-69.63202Y-12.37837
X-69.63202Y-9.87837
X-67.63202Y-9.87837
X-67.63202Y-12.37837
X-12.8Y0.0
X-12.8Y2.54
X-12.8Y5.08
X-12.8Y7.62
X-12.8Y10.16
X-12.8Y12.7
X-12.8Y15.24
X-12.8Y17.78
X0.0Y0.0
X0.0Y2.54
X0.0Y5.08
X0.0Y7.62
X0.0Y10.16
X0.0Y12.7
X0.0Y15.24
X0.0Y17.78
T05
X-28.47481Y28.25439
X-33.55481Y28.25439
T06
X-72.3421Y-17.14839
X-72.3421Y-5.10838
M30