G04 Layer: CustomLayer2*
G04 EasyEDA Pro v2.2.32.3, 2025-07-09 15:58:04*
G04 Gerber Generator version 0.3*
G04 Scale: 100 percent, Rotated: No, Reflected: No*
G04 Dimensions in millimeters*
G04 Leading zeros omitted, absolute positions, 3 integers and 5 decimals*
%FSLAX35Y35*%
%MOMM*%
%ADD10C,0.0127*%
%ADD11C,0.15*%
G75*


G04 PolygonModel Start*
G54D10*
G01X-2846658Y1870753D02*
G01X-2841578Y1865673D01*
G54D11*
G01X-3350743Y2353513D02*
G01X-3350743Y2253513D01*
G01X-3300743Y2303513D02*
G01X-3400743Y2303513D01*
G01X-3300743Y1443513D02*
G01X-3400743Y1443513D01*
G01X-3611941Y467383D02*
G01X-3611941Y567383D01*
G01X-3661941Y517383D02*
G01X-3561941Y517383D01*
G01X-3661941Y1377383D02*
G01X-3561941Y1377383D01*
G54D10*
G01X-5926578Y1493507D02*
G01X-5931658Y1488427D01*
G01X-5956696Y1484577D02*
G01X-5961776Y1479497D01*
G01X-5926578Y1197703D02*
G01X-5931658Y1192623D01*
G01X-5956696Y1188773D02*
G01X-5961776Y1183693D01*
G01X-5926578Y922300D02*
G01X-5931658Y917220D01*
G01X-5956696Y913369D02*
G01X-5961776Y908289D01*
G01X-5595996Y1489303D02*
G01X-5601076Y1484223D01*
G01X-5593296Y1188399D02*
G01X-5598376Y1183319D01*
G01X-5593296Y912996D02*
G01X-5598376Y907916D01*
G01X-524194Y2567863D02*
G01X-529274Y2572943D01*
G01X-864441Y2449145D02*
G01X-869521Y2444065D01*
G01X-6159444Y48858D02*
G01X-6154364Y53938D01*
G01X-6158991Y-164313D02*
G01X-6153911Y-159233D01*
G01X-4440681Y-647624D02*
G01X-4445761Y-652704D01*
G01X-4477839Y-977712D02*
G01X-4482919Y-972632D01*
G01X-1342147Y-830197D02*
G01X-1347227Y-835277D01*
G01X-5238950Y-146604D02*
G01X-5244030Y-151684D01*
G01X-6677290Y-2464502D02*
G01X-6672210Y-2469582D01*
G01X-4646141Y-2614833D02*
G01X-4651221Y-2609753D01*
G54D11*
G01X-6063271Y-876242D02*
G01X-5883271Y-876242D01*
G01X-6063271Y-1186242D02*
G01X-5883271Y-1186242D01*
G01X-6063271Y-1186242D02*
G01X-6063271Y-876242D01*
G01X-5883271Y-1186242D02*
G01X-5883271Y-876242D01*
G54D10*
G01X-5597343Y408481D02*
G01X-5592263Y413561D01*
G01X-6763991Y1503349D02*
G01X-6758911Y1498269D01*
G01X-5788947Y-3968509D02*
G01X-5783867Y-3963429D01*
G01X-5647561Y-3643562D02*
G01X-5652641Y-3638482D01*
G01X-5945592Y-3633321D02*
G01X-5940512Y-3638401D01*
G01X-5281139Y-3640972D02*
G01X-5276059Y-3635892D01*
G01X-4772548Y-3810731D02*
G01X-4777628Y-3805651D01*
G01X-4659090Y2550571D02*
G01X-4654010Y2555651D01*
G01X-5416053Y2928234D02*
G01X-5421133Y2933314D01*
G01X-5424984Y2958352D02*
G01X-5430064Y2963432D01*
G54D11*
G01X-3728338Y2348183D02*
G01X-3728338Y2248183D01*
G01X-3678338Y2298183D02*
G01X-3778338Y2298183D01*
G01X-3678338Y1438184D02*
G01X-3778338Y1438184D01*
G54D10*
G01X-4587720Y-3161795D02*
G01X-4582640Y-3156715D01*
G01X-4587720Y-2962892D02*
G01X-4582640Y-2957812D01*
G01X-5755635Y-2575287D02*
G01X-5750555Y-2570207D01*
G01X-5755635Y-2959152D02*
G01X-5750555Y-2954072D01*
G01X-5750555Y-3067767D02*
G01X-5755635Y-3072847D01*
G01X-5755635Y-2767220D02*
G01X-5750555Y-2762140D01*
G01X-4109540Y493724D02*
G01X-4114620Y498804D01*
G01X-4480578Y1088786D02*
G01X-4485658Y1083706D01*
G01X-5509375Y2594763D02*
G01X-5504295Y2589683D01*
G01X-1365274Y-3059469D02*
G01X-1370354Y-3054389D01*
G01X-762439Y-830197D02*
G01X-767519Y-835277D01*
G01X-3972028Y1916413D02*
G01X-3977108Y1921493D01*
G01X-611187Y1598881D02*
G01X-616267Y1603961D01*
G01X-2501562Y-830197D02*
G01X-2506642Y-835277D01*
G01X-1921854Y-830197D02*
G01X-1926934Y-835277D01*
G01X-1687009Y-1323488D02*
G01X-1692089Y-1318408D01*

M02*

