G04 Layer: TopPasteMaskLayer*
G04 EasyEDA Pro v2.2.32.3, 2025-07-09 15:58:04*
G04 Gerber Generator version 0.3*
G04 Scale: 100 percent, Rotated: No, Reflected: No*
G04 Dimensions in millimeters*
G04 Leading zeros omitted, absolute positions, 3 integers and 5 decimals*
%FSLAX35Y35*%
%MOMM*%
%AMRoundRect*1,1,$1,$2,$3*1,1,$1,$4,$5*1,1,$1,0-$2,0-$3*1,1,$1,0-$4,0-$5*20,1,$1,$2,$3,$4,$5,0*20,1,$1,$4,$5,0-$2,0-$3,0*20,1,$1,0-$2,0-$3,0-$4,0-$5,0*20,1,$1,0-$4,0-$5,$2,$3,0*4,1,4,$2,$3,$4,$5,0-$2,0-$3,0-$4,0-$5,$2,$3,0*%
%ADD10R,0.762X0.8128*%
%ADD11R,1.0X2.99999*%
%ADD12R,0.889X0.889*%
%ADD13R,0.8128X0.762*%
%ADD14R,0.889X0.889*%
%ADD15R,0.889X0.889*%
%ADD16R,2.0X2.0*%
%ADD17R,2.0097X2.0*%
%ADD18R,2.0X2.0*%
%ADD19R,0.89992X1.0*%
%ADD20R,0.49022X0.98552*%
%ADD21R,0.98552X0.49022*%
%ADD22R,1.15001X0.95001*%
%ADD23R,1.15001X0.95001*%
%ADD24R,0.95001X1.15001*%
%ADD25R,0.95001X1.15001*%
%ADD26R,1.3X1.9*%
%ADD27R,2.2X2.0*%
%ADD28R,1.25001X0.7*%
%ADD29R,0.7X1.25001*%
%ADD30R,1.016X0.9652*%
%ADD31R,1.0X1.10002*%
%ADD32R,1.10002X1.0*%
%ADD33R,1.0X1.10002*%
%ADD34R,1.10002X1.0*%
%ADD35R,1.2X0.6*%
%ADD36R,2.4X3.29999*%
%ADD37R,3.6X2.0*%
%ADD38R,1.1X1.6*%
%ADD39R,1.1X1.6*%
%ADD40R,2.0X0.9*%
%ADD41R,0.9X2.0*%
%ADD42R,2.0X0.9*%
%ADD43R,3.69999X3.69999*%
%ADD44R,0.6X1.1*%
%ADD45O,1.97099X0.60201*%
%ADD46R,1.1X0.6*%
%ADD47R,2.50002X1.0*%
%ADD48R,2.49999X1.0*%
%ADD49R,2.49999X1.1*%
%ADD50R,0.762X0.8128*%
%ADD51R,0.7X1.25001*%
%ADD52R,1.1X0.6*%
%ADD53R,2.99999X1.0*%
%ADD54R,1.0X0.89992*%
%ADD55RoundRect,0.17002X0.46109X0.43569X0.46109X-0.43569*%
%ADD56R,2.0X1.2*%
%ADD57R,5.8X5.8*%
%ADD58R,1.0X2.99999*%
%ADD59R,1.5X3.49999*%
%ADD60R,10.4X9.00001*%
G75*


G04 PolygonModel Start*
G36*
G01X-3824443Y-572337D02*
G01X-3824443Y-609363D01*
G01X-3834443Y-619362D01*
G01X-3864934Y-619362D01*
G01X-3874934Y-629362D01*
G01X-3874934Y-668113D01*
G01X-3864934Y-678113D01*
G01X-3834443Y-678113D01*
G01X-3824443Y-688113D01*
G01X-3824443Y-725138D01*
G01X-3834443Y-735138D01*
G01X-3962942Y-735138D01*
G01X-3972942Y-725138D01*
G01X-3972942Y-572337D01*
G01X-3962942Y-562337D01*
G01X-3834443Y-562337D01*
G01X-3824443Y-572337D01*
G37*
G36*
G01X-3654441Y-572337D02*
G01X-3654441Y-609363D01*
G01X-3644441Y-619362D01*
G01X-3613951Y-619362D01*
G01X-3603951Y-629362D01*
G01X-3603951Y-668113D01*
G01X-3613951Y-678113D01*
G01X-3644441Y-678113D01*
G01X-3654441Y-688113D01*
G01X-3654441Y-725138D01*
G01X-3644441Y-735138D01*
G01X-3515943Y-735138D01*
G01X-3505943Y-725138D01*
G01X-3505943Y-572337D01*
G01X-3515943Y-562337D01*
G01X-3644441Y-562337D01*
G01X-3654441Y-572337D01*
G37*
G36*
G01X-2819730Y-1383247D02*
G01X-2819730Y-1420273D01*
G01X-2829730Y-1430273D01*
G01X-2860221Y-1430273D01*
G01X-2870221Y-1440273D01*
G01X-2870221Y-1479023D01*
G01X-2860221Y-1489023D01*
G01X-2829730Y-1489023D01*
G01X-2819730Y-1499023D01*
G01X-2819730Y-1536049D01*
G01X-2829730Y-1546049D01*
G01X-2958229Y-1546049D01*
G01X-2968229Y-1536049D01*
G01X-2968229Y-1383247D01*
G01X-2958229Y-1373247D01*
G01X-2829730Y-1373247D01*
G01X-2819730Y-1383247D01*
G37*
G36*
G01X-2649728Y-1383247D02*
G01X-2649728Y-1420273D01*
G01X-2639728Y-1430273D01*
G01X-2609238Y-1430273D01*
G01X-2599238Y-1440273D01*
G01X-2599238Y-1479023D01*
G01X-2609238Y-1489023D01*
G01X-2639728Y-1489023D01*
G01X-2649728Y-1499023D01*
G01X-2649728Y-1536049D01*
G01X-2639728Y-1546049D01*
G01X-2511230Y-1546049D01*
G01X-2501230Y-1536049D01*
G01X-2501230Y-1383247D01*
G01X-2511230Y-1373247D01*
G01X-2639728Y-1373247D01*
G01X-2649728Y-1383247D01*
G37*
G36*
G01X-1872919Y-4149083D02*
G01X-1909944Y-4149083D01*
G01X-1919944Y-4139083D01*
G01X-1919944Y-4108593D01*
G01X-1929944Y-4098593D01*
G01X-1968694Y-4098593D01*
G01X-1978694Y-4108593D01*
G01X-1978694Y-4139083D01*
G01X-1988694Y-4149083D01*
G01X-2025720Y-4149083D01*
G01X-2035720Y-4139083D01*
G01X-2035720Y-4010584D01*
G01X-2025720Y-4000584D01*
G01X-1872919Y-4000584D01*
G01X-1862919Y-4010584D01*
G01X-1862919Y-4139083D01*
G01X-1872919Y-4149083D01*
G37*
G36*
G01X-1872919Y-4319085D02*
G01X-1909944Y-4319085D01*
G01X-1919944Y-4329085D01*
G01X-1919944Y-4359575D01*
G01X-1929944Y-4369575D01*
G01X-1968694Y-4369575D01*
G01X-1978694Y-4359575D01*
G01X-1978694Y-4329085D01*
G01X-1988694Y-4319085D01*
G01X-2025720Y-4319085D01*
G01X-2035720Y-4329085D01*
G01X-2035720Y-4457584D01*
G01X-2025720Y-4467584D01*
G01X-1872919Y-4467584D01*
G01X-1862919Y-4457584D01*
G01X-1862919Y-4329085D01*
G01X-1872919Y-4319085D01*
G37*
G36*
G01X-6830183Y-2109056D02*
G01X-6867208Y-2109056D01*
G01X-6877208Y-2099057D01*
G01X-6877208Y-2068566D01*
G01X-6887208Y-2058566D01*
G01X-6925958Y-2058566D01*
G01X-6935958Y-2068566D01*
G01X-6935958Y-2099057D01*
G01X-6945958Y-2109056D01*
G01X-6982984Y-2109056D01*
G01X-6992984Y-2099057D01*
G01X-6992984Y-1970558D01*
G01X-6982984Y-1960558D01*
G01X-6830183Y-1960558D01*
G01X-6820183Y-1970558D01*
G01X-6820183Y-2099057D01*
G01X-6830183Y-2109056D01*
G37*
G36*
G01X-6830183Y-2279059D02*
G01X-6867208Y-2279059D01*
G01X-6877208Y-2289059D01*
G01X-6877208Y-2319549D01*
G01X-6887208Y-2329549D01*
G01X-6925958Y-2329549D01*
G01X-6935958Y-2319549D01*
G01X-6935958Y-2289059D01*
G01X-6945958Y-2279059D01*
G01X-6982984Y-2279059D01*
G01X-6992984Y-2289059D01*
G01X-6992984Y-2417557D01*
G01X-6982984Y-2427557D01*
G01X-6830183Y-2427557D01*
G01X-6820183Y-2417557D01*
G01X-6820183Y-2289059D01*
G01X-6830183Y-2279059D01*
G37*

G04 Pad Start*
G54D10*
G01X499150Y-3040067D03*
G01X499681Y-2883432D03*
G54D11*
G01X-2774436Y2148212D03*
G01X-2774436Y1588213D03*
G54D12*
G01X-2500001Y1366818D03*
G01X-2345061Y1366818D03*
G54D10*
G01X499150Y-3738776D03*
G01X499681Y-3582141D03*
G54D12*
G01X-720078Y-1438219D03*
G01X-565138Y-1438219D03*
G01X-2723560Y-1694251D03*
G01X-2878500Y-1694251D03*
G54D10*
G01X499150Y-4350811D03*
G01X499681Y-4194177D03*
G54D13*
G01X-806412Y2621872D03*
G01X-963047Y2622403D03*
G01X-6508476Y-130805D03*
G01X-6665110Y-130274D03*
G54D14*
G01X-4601354Y-430404D03*
G01X-4601354Y-275464D03*
G54D12*
G01X-5752999Y-715038D03*
G01X-5907939Y-715038D03*
G01X-4931889Y-2000255D03*
G01X-5086829Y-2000255D03*
G54D15*
G01X-5489734Y-2000255D03*
G01X-5334794Y-2000255D03*
G54D14*
G01X-1526014Y-1628919D03*
G01X-1526014Y-1473979D03*
G54D16*
G01X-3350743Y2093513D03*
G01X-3350743Y1673513D03*
G54D18*
G01X-3611941Y727383D03*
G01X-3611941Y1147383D03*
G54D19*
G01X-5859373Y1443991D03*
G01X-6029373Y1443991D03*
G54D20*
G01X-2728535Y-55659D03*
G01X-2728535Y167861D03*
G54D19*
G01X-5859373Y1148187D03*
G01X-6029373Y1148187D03*
G54D21*
G01X-2648470Y-1219945D03*
G01X-2871990Y-1219945D03*
G54D19*
G01X-5859373Y872784D03*
G01X-6029373Y872784D03*
G54D22*
G01X-5738668Y-1894092D03*
G01X-5738668Y-1555611D03*
G54D23*
G01X-5958973Y-1555611D03*
G01X-5958973Y-1894092D03*
G54D24*
G01X-6115135Y-2668364D03*
G01X-6453615Y-2668364D03*
G54D25*
G01X-6468916Y-2892767D03*
G01X-6130435Y-2892767D03*
G54D23*
G01X-6177274Y-1555611D03*
G01X-6177274Y-1894092D03*
G54D26*
G01X-6885869Y91377D03*
G01X-6885869Y931355D03*
G01X-6435883Y91377D03*
G01X-6435883Y931355D03*
G54D27*
G01X-3025433Y1262087D03*
G01X-3025433Y582078D03*
G54D28*
G01X-4303548Y-859746D03*
G01X-4303548Y-1049738D03*
G01X-4103549Y-954742D03*
G54D29*
G01X-4332955Y-1272947D03*
G01X-4522947Y-1272947D03*
G01X-4427951Y-1472947D03*
G54D30*
G01X323870Y-2887136D03*
G01X323870Y-3045886D03*
G01X135167Y-2887163D03*
G01X135167Y-3045913D03*
G54D31*
G01X-5518582Y1447390D03*
G01X-5678561Y1447390D03*
G54D30*
G01X323870Y-3585845D03*
G01X323870Y-3744595D03*
G01X133861Y-3585845D03*
G01X133861Y-3744595D03*
G54D31*
G01X-5515882Y1146486D03*
G01X-5675861Y1146486D03*
G01X-2309818Y498777D03*
G01X-2149838Y498777D03*
G54D30*
G01X323870Y-4197880D03*
G01X323870Y-4356630D03*
G01X133861Y-4197880D03*
G01X133861Y-4356630D03*
G54D31*
G01X-5515882Y871082D03*
G01X-5675861Y871082D03*
G54D32*
G01X-566107Y2490449D03*
G01X-566107Y2650428D03*
G54D31*
G01X-787006Y2407231D03*
G01X-947006Y2407231D03*
G54D33*
G01X-6236858Y90772D03*
G01X-6076879Y90772D03*
G01X-6236425Y-122399D03*
G01X-6076426Y-122399D03*
G54D31*
G01X-4363267Y-689538D03*
G01X-4523246Y-689538D03*
G54D32*
G01X-4519752Y-1055126D03*
G01X-4519752Y-895147D03*
G54D31*
G01X-1264712Y-872111D03*
G01X-1424712Y-872111D03*
G01X-5161536Y-188518D03*
G01X-5321516Y-188518D03*
G54D34*
G01X-6635376Y-2387088D03*
G01X-6635376Y-2547068D03*
G54D32*
G01X-4688055Y-2692248D03*
G01X-4688055Y-2532268D03*
G54D35*
G01X-2515553Y1097283D03*
G01X-2515553Y970283D03*
G01X-2515553Y843283D03*
G01X-2515553Y716283D03*
G01X-1933893Y716283D03*
G01X-1933893Y843283D03*
G01X-1933893Y970283D03*
G01X-1933893Y1097283D03*
G54D36*
G01X-2224723Y906783D03*
G54D37*
G01X-3372238Y-1469345D03*
G54D38*
G01X-3602238Y-919345D03*
G54D39*
G01X-3372237Y-919345D03*
G54D38*
G01X-3142238Y-919345D03*
G54D40*
G01X-4115147Y-4303773D03*
G01X-4115147Y-4176773D03*
G01X-4115147Y-4049773D03*
G01X-4115147Y-3922773D03*
G01X-4115147Y-3795773D03*
G01X-4115147Y-3668773D03*
G01X-4115147Y-3541773D03*
G01X-4115147Y-3414773D03*
G01X-4115147Y-3287773D03*
G01X-4115147Y-3160773D03*
G01X-4115147Y-3033773D03*
G01X-4115147Y-2906773D03*
G01X-4115147Y-2779773D03*
G01X-4115147Y-2652773D03*
G54D41*
G01X-3836636Y-2552774D03*
G01X-3709636Y-2552774D03*
G01X-3582636Y-2552774D03*
G01X-3455636Y-2552774D03*
G01X-3328636Y-2552774D03*
G01X-3201636Y-2552774D03*
G01X-3074636Y-2552774D03*
G01X-2947636Y-2552774D03*
G01X-2820636Y-2552774D03*
G01X-2693636Y-2552774D03*
G54D42*
G01X-2415125Y-2652773D03*
G01X-2415125Y-2779773D03*
G01X-2415125Y-2906773D03*
G01X-2415125Y-3033773D03*
G01X-2415125Y-3160773D03*
G01X-2415125Y-3287773D03*
G01X-2415125Y-3414773D03*
G01X-2415125Y-3541773D03*
G01X-2415125Y-3668773D03*
G01X-2415125Y-3795773D03*
G01X-2415125Y-3922773D03*
G01X-2415125Y-4049773D03*
G01X-2415125Y-4176773D03*
G01X-2415125Y-4303773D03*
G54D43*
G01X-3115149Y-3553788D03*
G54D44*
G01X-1516218Y-370007D03*
G01X-1326218Y-370007D03*
G01X-1326218Y-650007D03*
G01X-1421218Y-650007D03*
G01X-1516218Y-650007D03*
G54D45*
G01X-5433478Y-437627D03*
G01X-5433478Y-564627D03*
G01X-5433478Y-691627D03*
G01X-5433478Y-818627D03*
G01X-5433478Y-945627D03*
G01X-5433478Y-1072627D03*
G01X-5433478Y-1199627D03*
G01X-5433478Y-1326627D03*
G01X-4886362Y-437627D03*
G01X-4886362Y-564627D03*
G01X-4886362Y-691627D03*
G01X-4886362Y-818627D03*
G01X-4886362Y-945627D03*
G01X-4886362Y-1072627D03*
G01X-4886362Y-1199627D03*
G01X-4886362Y-1326627D03*
G54D46*
G01X-6113271Y-936243D03*
G01X-6113271Y-1031243D03*
G01X-6113271Y-1126243D03*
G01X-5833272Y-1126243D03*
G01X-5833272Y-1031243D03*
G01X-5833272Y-936243D03*
G54D45*
G01X-1269165Y-1637356D03*
G01X-1269165Y-1764356D03*
G01X-1269165Y-1891356D03*
G01X-1269165Y-2018356D03*
G01X-1269165Y-2145356D03*
G01X-1269165Y-2272356D03*
G01X-1269165Y-2399356D03*
G01X-1269165Y-2526356D03*
G01X-722049Y-1637356D03*
G01X-722049Y-1764356D03*
G01X-722049Y-1891356D03*
G01X-722049Y-2018356D03*
G01X-722049Y-2145356D03*
G01X-722049Y-2272356D03*
G01X-722049Y-2399356D03*
G01X-722049Y-2526356D03*
G54D47*
G01X-4923142Y-1673851D03*
G54D48*
G01X-5483180Y-1673851D03*
G54D49*
G01X-3023531Y180081D03*
G01X-3453553Y180081D03*
G54D50*
G01X-6916317Y1571578D03*
G01X-6916848Y1414943D03*
G54D33*
G01X-5674757Y450394D03*
G01X-5514778Y450394D03*
G54D34*
G01X-6722077Y1580783D03*
G01X-6722077Y1420784D03*
G54D33*
G01X-5866381Y-3926596D03*
G01X-5706382Y-3926596D03*
G54D51*
G01X-5432567Y-4016395D03*
G01X-5242575Y-4016395D03*
G01X-5337571Y-3816396D03*
G54D32*
G01X-5689475Y-3720997D03*
G01X-5689475Y-3560997D03*
G54D34*
G01X-5903678Y-3555887D03*
G01X-5903678Y-3715887D03*
G54D33*
G01X-5358573Y-3599058D03*
G01X-5198574Y-3599058D03*
G54D52*
G01X-5444068Y-3413554D03*
G01X-5444068Y-3223554D03*
G01X-5164068Y-3223554D03*
G01X-5164068Y-3318554D03*
G01X-5164068Y-3413554D03*
G54D32*
G01X-4814462Y-3888166D03*
G01X-4814462Y-3728166D03*
G54D53*
G01X-4936550Y2622793D03*
G01X-4376551Y2622793D03*
G54D54*
G01X-5465569Y2861029D03*
G01X-5465569Y3031029D03*
G54D16*
G01X-3728338Y2088184D03*
G01X-3728338Y1668183D03*
G54D55*
G01X-4335246Y582767D03*
G01X-4591786Y679287D03*
G01X-4335246Y770727D03*
G54D56*
G01X-4263949Y1688984D03*
G01X-4263949Y2148984D03*
G54D57*
G01X-4933948Y1918984D03*
G54D33*
G01X-4665154Y-3119881D03*
G01X-4505155Y-3119881D03*
G01X-4665154Y-2920979D03*
G01X-4505155Y-2920979D03*
G01X-5833069Y-2533374D03*
G01X-5673070Y-2533374D03*
G01X-5833069Y-2917238D03*
G01X-5673070Y-2917238D03*
G54D31*
G01X-5673120Y-3109681D03*
G01X-5833120Y-3109681D03*
G54D33*
G01X-5833069Y-2725306D03*
G01X-5673070Y-2725306D03*
G54D32*
G01X-4151454Y416310D03*
G01X-4151454Y576290D03*
G54D31*
G01X-4403163Y1046873D03*
G01X-4563143Y1046873D03*
G54D34*
G01X-5467461Y2672177D03*
G01X-5467461Y2512198D03*
G54D32*
G01X-1407187Y-3136904D03*
G01X-1407187Y-2976904D03*
G54D31*
G01X-685005Y-872111D03*
G01X-845005Y-872111D03*
G54D32*
G01X-4013942Y1838999D03*
G01X-4013942Y1998979D03*
G54D46*
G01X-859803Y-2769878D03*
G01X-859803Y-2959878D03*
G01X-1139803Y-2959878D03*
G01X-1139803Y-2864878D03*
G01X-1139803Y-2769878D03*
G54D44*
G01X-936511Y-370007D03*
G01X-746511Y-370007D03*
G01X-746511Y-650007D03*
G01X-841511Y-650007D03*
G01X-936511Y-650007D03*
G54D58*
G01X-683409Y1321421D03*
G01X-683409Y1881420D03*
G54D33*
G01X-252316Y556540D03*
G01X-412295Y556540D03*
G01X-252255Y-14495D03*
G01X-412235Y-14495D03*
G01X-252255Y176020D03*
G01X-412235Y176020D03*
G01X-252255Y366535D03*
G01X-412235Y366535D03*
G54D31*
G01X-2424127Y-872111D03*
G01X-2584127Y-872111D03*
G54D33*
G01X-252316Y1128086D03*
G01X-412295Y1128086D03*
G01X-252316Y937570D03*
G01X-412295Y937570D03*
G01X-252316Y747055D03*
G01X-412295Y747055D03*
G54D44*
G01X-2675633Y-370007D03*
G01X-2485633Y-370007D03*
G01X-2485633Y-650007D03*
G01X-2580633Y-650007D03*
G01X-2675633Y-650007D03*
G54D59*
G01X-2166525Y2008451D03*
G01X-1658525Y2008451D03*
G54D60*
G01X-1912525Y3053991D03*
G54D14*
G01X-2850937Y-422336D03*
G01X-2850937Y-577276D03*
G01X-1111814Y-422336D03*
G01X-1111814Y-577276D03*
G01X-1693222Y-422336D03*
G01X-1693222Y-577276D03*
G54D12*
G01X-638477Y-2743836D03*
G01X-483537Y-2743836D03*
G54D14*
G01X-2279730Y-422336D03*
G01X-2279730Y-577276D03*
G54D31*
G01X-1844420Y-872111D03*
G01X-2004420Y-872111D03*
G54D44*
G01X-2095926Y-370007D03*
G01X-1905926Y-370007D03*
G01X-1905926Y-650007D03*
G01X-2000926Y-650007D03*
G01X-2095926Y-650007D03*
G54D32*
G01X-1728922Y-1400922D03*
G01X-1728922Y-1240922D03*
G54D46*
G01X-1247369Y-1134699D03*
G01X-1247369Y-1324699D03*
G01X-1527369Y-1324699D03*
G01X-1527369Y-1229699D03*
G01X-1527369Y-1134699D03*
G54D12*
G01X-607877Y-1127115D03*
G01X-452937Y-1127115D03*
G04 Pad End*

M02*

