G04 Layer: BottomLayer*
G04 EasyEDA Pro v2.2.32.3, 2025-07-09 15:58:04*
G04 Gerber Generator version 0.3*
G04 Scale: 100 percent, Rotated: No, Reflected: No*
G04 Dimensions in millimeters*
G04 Leading zeros omitted, absolute positions, 3 integers and 5 decimals*
%FSLAX35Y35*%
%MOMM*%
%ADD10C,0.2032*%
%ADD11O,1.5X2.0*%
%ADD12R,1.5X2.0*%
%ADD13C,3.49999*%
%ADD14C,1.6*%
%ADD15R,2.0X1.5*%
%ADD16O,2.0X1.5*%
%ADD17R,2.0X1.5*%
%ADD18C,3.0089*%
%ADD19C,2.99999*%
%ADD20R,2.0X1.6*%
%ADD21O,2.0X1.6*%
%ADD22R,1.6X2.0*%
%ADD23O,1.6X2.0*%
%ADD24R,1.5X2.0*%
%ADD25R,1.5X1.5*%
%ADD26C,1.5*%
%ADD27C,0.6*%
%ADD28C,0.8*%
%ADD29C,0.4*%
%ADD30C,1.2*%
G75*


G04 Copper Start*
G36*
G01X-7926365Y3198071D02*
G02X-7562129Y3562307I364236J0D01*
G01X-7562129Y3562307D01*
G03X-7547588Y3565392I0J35814D01*
G01X1656345Y3565392D01*
G02X1987883Y3240715I-30683J-362941D01*
G01X1987883Y-4598205D01*
G02X1660058Y-4930062I-362941J30683D01*
G01X-7594595Y-4930062D01*
G02X-7930489Y-4601918I26645J363260D01*
G01X-7930489Y3181386D01*
G03X-7926365Y3198071I-31690J16685D01*
G37*
%LPC*%
G36*
G01X-6855889Y3001224D02*
G03X-7876717Y3001224I-510414J0D01*
G03X-6855889Y3001224I510414J0D01*
G37*
G36*
G01X-7847304Y670567D02*
G03X-7811490Y634753I35814J0D01*
G01X-7611490Y634753D01*
G03X-7575676Y670567I0J35814D01*
G01X-7575676Y830567D01*
G03X-7611490Y866381I-35814J0D01*
G01X-7811490Y866381D01*
G03X-7847304Y830567I0J-35814D01*
G01X-7847304Y670567D01*
G37*
G36*
G01X-7847304Y1506978D02*
G03X-7811490Y1471164I35814J0D01*
G01X-7611490Y1471164D01*
G03X-7575676Y1506978I0J35814D01*
G01X-7575676Y1666978D01*
G03X-7611490Y1702792I-35814J0D01*
G01X-7811490Y1702792D01*
G03X-7847304Y1666978I0J-35814D01*
G01X-7847304Y1506978D01*
G37*
G36*
G01X-7144105Y-3449199D02*
G03X-7116042Y-3516950I95814J0D01*
G01X-5986845Y-4646147D01*
G02X-5926788Y-4806517I-184089J-160370D01*
G03X-5890974Y-4842331I35814J0D01*
G01X-5740974Y-4842331D01*
G03X-5705160Y-4806517I0J35814D01*
G01X-5705160Y-4606517D01*
G03X-5730928Y-4572140I-35814J0D01*
G02X-5875502Y-4486487I95057J325285D01*
G01X-6952477Y-3409511D01*
G01X-6952477Y-2813648D01*
G03X-6980540Y-2745897I-95814J0D01*
G01X-7426729Y-2299709D01*
G03X-7494479Y-2271646I-67751J-67751D01*
G02X-7597515Y-2257899I0J393001D01*
G03X-7606905Y-2256646I-9390J-34561D01*
G01X-7806905Y-2256646D01*
G03X-7842719Y-2292460I0J-35814D01*
G01X-7842719Y-2442460D01*
G03X-7806905Y-2478274I35814J0D01*
G01X-7606905Y-2478274D01*
G03X-7597515Y-2477021I0J35814D01*
G02X-7532339Y-2465102I103036J-379254D01*
G01X-7144105Y-2853335D01*
G01X-7144105Y-3449199D01*
G37*
G36*
G01X-7681904Y-2510646D02*
G01X-7731905Y-2510646D01*
G03X-7731905Y-2732274I0J-110814D01*
G01X-7681904Y-2732274D01*
G03X-7681904Y-2510646I0J110814D01*
G37*
G36*
G01X-7681904Y-2764646D02*
G01X-7731905Y-2764646D01*
G03X-7731905Y-2986274I0J-110814D01*
G01X-7681904Y-2986274D01*
G03X-7681904Y-2764646I0J110814D01*
G37*
G36*
G01X-6895889Y-4365876D02*
G03X-7836717Y-4365876I-470414J0D01*
G03X-6895889Y-4365876I470414J0D01*
G37*
G36*
G01X-6647396Y-987837D02*
G03X-6863210Y-929418I-115814J0D01*
G03X-7079023Y-987837I-100000J-58420D01*
G03X-6863210Y-1046257I115814J0D01*
G03X-6647396Y-987837I100000J58420D01*
G37*
G36*
G01X-6763210Y-1122036D02*
G03X-6763210Y-1353664I0J-115814D01*
G03X-6763210Y-1122036I0J115814D01*
G37*
G36*
G01X-6808588Y-2940663D02*
G03X-6752774Y-2839974I0J65814D01*
G01X-6752774Y-2590788D01*
G03X-6774523Y-2482010I-45614J47443D01*
G03X-6864072Y-2547481I-23865J-61334D01*
G03X-6864402Y-2553545I55484J-6063D01*
G01X-6864402Y-2839974D01*
G03X-6808588Y-2940663I55814J-34875D01*
G37*
G36*
G01X-5603897Y-629227D02*
G03X-5675293Y-679832I-7270J-65411D01*
G01X-5732234Y-736773D01*
G03X-5748582Y-776239I39466J-39466D01*
G01X-5748582Y-1241171D01*
G03X-5692768Y-1341860I55814J-34875D01*
G03X-5636954Y-1241171I0J65814D01*
G01X-5636954Y-799358D01*
G01X-5596361Y-758765D01*
G03X-5545755Y-687369I-14806J64127D01*
G01X-5220256Y-1012868D01*
G03X-5313189Y-1057237I-28806J-59175D01*
G01X-5625973Y-1370021D01*
G03X-5657704Y-1480685I14806J-64127D01*
G03X-5547040Y-1448954I46537J46537D01*
G01X-5234256Y-1136170D01*
G03X-5189887Y-1043237I-14806J64127D01*
G01X-5171180Y-1061944D01*
G01X-5171180Y-1666133D01*
G03X-5154833Y-1705599I55814J0D01*
G01X-4589773Y-2270659D01*
G01X-4589773Y-3254667D01*
G03X-4555889Y-3351595I55814J-34875D01*
G03X-4468626Y-3297484I21931J62053D01*
G01X-4467418Y-3298730D01*
G01X-3701568Y-4064579D01*
G03X-3672830Y-4105263I64127J14806D01*
G01X-4382876Y-4105263D01*
G03X-4483565Y-4161077I-34875J-55814D01*
G03X-4382876Y-4216891I65814J0D01*
G01X-3595034Y-4216891D01*
G03X-3555568Y-4200543I0J55814D01*
G01X-3455173Y-4100148D01*
G03X-3438825Y-4060682I-39466J39466D01*
G01X-3438825Y-3441192D01*
G01X-2816825Y-2819192D01*
G03X-2785093Y-2708527I-14806J64127D01*
G03X-2895757Y-2740259I-46537J-46537D01*
G01X-3534106Y-3378607D01*
G03X-3550453Y-3418073I39466J-39466D01*
G01X-3550453Y-4037563D01*
G01X-3572343Y-4059452D01*
G03X-3583054Y-4012713I-65098J9679D01*
G03X-3622635Y-3985647I-54387J-37060D01*
G01X-3773448Y-3834834D01*
G03X-3738823Y-3737287I-21001J62373D01*
G03X-3754983Y-3702393I-55626J-4573D01*
G01X-4136440Y-3320936D01*
G01X-4136440Y-2541767D01*
G03X-4056200Y-2530474I32892J57005D01*
G03X-4047735Y-2449886I-47348J45712D01*
G01X-4047735Y-1305821D01*
G03X-4056200Y-1225233I-55814J34875D01*
G03X-4136440Y-1213940I-47348J-45712D01*
G01X-4136440Y-717521D01*
G03X-4152788Y-678054I-55814J0D01*
G01X-4314943Y-515900D01*
G01X-4314943Y-332968D01*
G03X-4304615Y-335900I23077J61636D01*
G01X-3441465Y-1199050D01*
G03X-3330800Y-1230782I64127J14806D01*
G03X-3362532Y-1120118I-46537J46537D01*
G01X-4228274Y-254375D01*
G03X-4314943Y-209697I-63592J-16958D01*
G01X-4314943Y-108232D01*
G01X-4111987Y94724D01*
G03X-4095640Y134190I-39466J39466D01*
G01X-4095640Y252317D01*
G03X-4151454Y353006I-55814J34875D01*
G03X-4207268Y252317I0J-65814D01*
G01X-4207268Y157309D01*
G01X-4410223Y-45646D01*
G03X-4426571Y-85113I39466J-39466D01*
G01X-4426571Y-539018D01*
G03X-4410223Y-578485I55814J0D01*
G01X-4248068Y-740640D01*
G01X-4248068Y-3344055D01*
G03X-4244445Y-3363837I55814J0D01*
G01X-4372137Y-3236144D01*
G01X-4372137Y-1632225D01*
G03X-4413145Y-1533223I-55814J34875D01*
G01X-5566600Y-379768D01*
G03X-5606067Y-363421I-39466J-39466D01*
G01X-5744594Y-363421D01*
G03X-5831923Y-379485I-34875J-55814D01*
G03X-5823772Y-467904I52454J-39750D01*
G01X-5836857Y-467904D01*
G01X-6043865Y-260896D01*
G01X-6043865Y435919D01*
G03X-6099679Y536609I-55814J34875D01*
G03X-6155493Y435919I0J-65814D01*
G01X-6155493Y-284015D01*
G03X-6139145Y-323482I55814J0D01*
G01X-5899442Y-563185D01*
G03X-5859976Y-579532I39466J39466D01*
G01X-5653592Y-579532D01*
G01X-5603897Y-629227D01*
G37*
G36*
G01X-5538177Y-2984876D02*
G01X-5404736Y-3118318D01*
G01X-5404736Y-3118318D01*
G03X-5397366Y-3124513I39466J39466D01*
G01X-5397366Y-3124513D01*
G03X-5288991Y-3103612I47397J45662D01*
G03X-5352116Y-3013072I-60979J24761D01*
G01X-5459245Y-2905943D01*
G03X-5508566Y-2856622I-64127J-14806D01*
G01X-5901063Y-2464125D01*
G01X-5901063Y-2211015D01*
G03X-5956877Y-2110326I-55814J34875D01*
G03X-6012691Y-2211015I0J-65814D01*
G01X-6012691Y-2487244D01*
G03X-5996344Y-2526710I55814J0D01*
G01X-5587498Y-2935555D01*
G03X-5538177Y-2984876I64127J14806D01*
G37*
G36*
G01X-5738211Y-2165303D02*
G03X-5706480Y-2275967I46537J-46537D01*
G01X-5574085Y-2408361D01*
G01X-5574085Y-2498269D01*
G03X-5518271Y-2598958I55814J-34875D01*
G03X-5462457Y-2498269I0J65814D01*
G01X-5462457Y-2385242D01*
G03X-5478805Y-2345776I-55814J0D01*
G01X-5627547Y-2197034D01*
G03X-5738211Y-2165303I-64127J-14806D01*
G37*
G36*
G01X-5672788Y-4681517D02*
G01X-5672788Y-4731517D01*
G03X-5451160Y-4731517I110814J0D01*
G01X-5451160Y-4681517D01*
G03X-5672788Y-4681517I-110814J0D01*
G37*
G36*
G01X-5517985Y-3865087D02*
G03X-5462171Y-3965776I55814J-34875D01*
G03X-5406357Y-3865087I0J65814D01*
G01X-5406357Y-3808161D01*
G03X-5422704Y-3768694I-55814J0D01*
G01X-5479645Y-3711754D01*
G03X-5590309Y-3680022I-64127J-14806D01*
G03X-5558578Y-3790687I46537J-46537D01*
G01X-5517985Y-3831280D01*
G01X-5517985Y-3865087D01*
G37*
G36*
G01X-4514537Y3197203D02*
G02X-4506182Y3221389I39186J0D01*
G01X-4490351Y3221389D01*
G03X-4454537Y3257203I0J35814D01*
G01X-4454537Y3457203D01*
G03X-4490351Y3493017I-35814J0D01*
G01X-4650351Y3493017D01*
G03X-4686165Y3457203I0J-35814D01*
G01X-4686165Y3257203D01*
G03X-4650351Y3221389I35814J0D01*
G01X-4634519Y3221389D01*
G02X-4627784Y3208350I-30831J-24186D01*
G01X-5237274Y2598860D01*
G03X-5269005Y2488195I14806J-64127D01*
G03X-5158341Y2519927I46537J46537D01*
G01X-4530884Y3147383D01*
G03X-4514537Y3186850I-39466J39466D01*
G01X-4514537Y3197203D01*
G37*
G36*
G01X-4708537Y3337202D02*
G01X-4708537Y3377203D01*
G03X-4940165Y3377203I-115814J0D01*
G01X-4940165Y3337202D01*
G03X-4708537Y3337202I115814J0D01*
G37*
G36*
G01X-4856501Y-2753547D02*
G03X-4926377Y-2843667I-8962J-65201D01*
G01X-4926377Y-3135777D01*
G03X-4870563Y-3236466I55814J-34875D01*
G03X-4814749Y-3135777I0J65814D01*
G01X-4814749Y-2860838D01*
G03X-4856501Y-2753547I-50746J42022D01*
G37*
G36*
G01X-4672754Y-623724D02*
G03X-4728568Y-724413I0J-65814D01*
G01X-4728568Y-945367D01*
G03X-4672754Y-1046056I55814J-34875D01*
G03X-4616940Y-945367I0J65814D01*
G01X-4616940Y-724413D01*
G03X-4672754Y-623724I-55814J34875D01*
G37*
G36*
G01X-4324569Y949375D02*
G03X-4268755Y848686I55814J-34875D01*
G03X-4212941Y949375I0J65814D01*
G01X-4212941Y1496733D01*
G03X-4268755Y1597422I-55814J34875D01*
G03X-4324569Y1496733I0J-65814D01*
G01X-4324569Y949375D01*
G37*
G36*
G01X-3768455Y-2190102D02*
G03X-3800186Y-2300767I14806J-64127D01*
G03X-3689522Y-2269035I46537J46537D01*
G01X-2551367Y-1130881D01*
G03X-2535020Y-1091414I-39466J39466D01*
G01X-2535020Y-1075289D01*
G03X-2588271Y-974649I-55814J34875D01*
G03X-2649192Y-1070840I-2563J-65764D01*
G01X-3768455Y-2190102D01*
G37*
G36*
G01X-3188056Y2712362D02*
G01X-3189822Y2714473D01*
G01X-3192567Y2718221D01*
G01X-3194451Y2721310D01*
G01X-3195556Y2723642D01*
G01X-3196068Y2725217D01*
G01X-3196237Y2726224D01*
G01X-3196242Y2727088D01*
G01X-3196039Y2728371D01*
G01X-3195331Y2730557D01*
G01X-3193217Y2734900D01*
G03X-3400714Y3005663I-162264J90538D01*
G03X-3455759Y2669007I45233J-180224D01*
G01X-3451145Y2665825D01*
G01X-3449640Y2664645D01*
G03X-3433838Y2644715I94159J58428D01*
G01X-3163897Y2374774D01*
G03X-3085540Y2342318I78357J78357D01*
G01X-2646934Y2342318D01*
G01X-2449888Y2145271D01*
G03X-2293173Y2301986I78357J78357D01*
G01X-2522676Y2531489D01*
G03X-2601034Y2563946I-78357J-78357D01*
G01X-3039639Y2563946D01*
G01X-3188056Y2712362D01*
G37*
G36*
G01X-1826653Y-1232613D02*
G03X-1927000Y-1183502I-65472J-6703D01*
G01X-1953390Y-1183502D01*
G03X-1992856Y-1199850I0J-55814D01*
G01X-3478845Y-2685838D01*
G03X-3510576Y-2796502I14806J-64127D01*
G03X-3399912Y-2764771I46537J46537D01*
G01X-2789385Y-2154244D01*
G03X-2689654Y-2198871I64856J11187D01*
G01X-2658164Y-2198871D01*
G03X-2618697Y-2182523I0J55814D01*
G01X-1966380Y-1530206D01*
G03X-1958139Y-1580195I64055J-15114D01*
G01X-1958139Y-2734461D01*
G03X-1902325Y-2835150I55814J-34875D01*
G03X-1846511Y-2734461I0J65814D01*
G01X-1846511Y-1580195D01*
G03X-1848837Y-1506972I-55814J34875D01*
G03X-1917439Y-1481265I-53487J-38348D01*
G01X-1572154Y-1135981D01*
G03X-1555807Y-1096514I-39466J39466D01*
G01X-1555807Y1721104D01*
G01X-1112309Y2164602D01*
G03X-1080577Y2275266I-14806J64127D01*
G03X-1191241Y2243535I-46537J-46537D01*
G01X-1651087Y1783689D01*
G03X-1667435Y1744223I39466J-39466D01*
G01X-1667435Y-1073395D01*
G01X-1826653Y-1232613D01*
G37*
G36*
G01X-2033528Y-3940888D02*
G03X-1926311Y-3833671I53609J53609D01*
G01X-2199909Y-3560072D01*
G01X-2199909Y-2112457D01*
G03X-2351537Y-2112457I-75814J0D01*
G01X-2351537Y-3591476D01*
G03X-2329332Y-3645084I75814J0D01*
G01X-2033528Y-3940888D01*
G37*
G36*
G01X-1814289Y-1745557D02*
G03X-1830637Y-1785023I39466J-39466D01*
G01X-1830637Y-1857249D01*
G03X-1774823Y-1957938I55814J-34875D01*
G03X-1719009Y-1857249I0J65814D01*
G01X-1719009Y-1808142D01*
G01X-1020507Y-1109640D01*
G03X-988776Y-998976I-14806J64127D01*
G03X-1099440Y-1030708I-46537J-46537D01*
G01X-1814289Y-1745557D01*
G37*
G36*
G01X-963626Y-1002332D02*
G01X-963626Y-1728922D01*
G03X-947278Y-1768389I55814J0D01*
G01X-941338Y-1774329D01*
G03X-834698Y-1809763I64127J14806D01*
G03X-851998Y-1698730I-42513J50241D01*
G01X-851998Y-1284219D01*
G03X-751884Y-1243922I35987J55103D01*
G01X-396116Y-888154D01*
G01X502451Y-888154D01*
G01X530790Y-916493D01*
G03X570256Y-932840I39466J39466D01*
G02X574442Y-934603I0J-5853D01*
G01X574442Y-952026D01*
G03X610256Y-987840I35814J0D01*
G01X810256Y-987840D01*
G03X846070Y-952026I0J35814D01*
G01X846070Y-802026D01*
G03X810256Y-766212I-35814J0D01*
G01X610256Y-766212D01*
G03X574442Y-802026I0J-35814D01*
G01X574442Y-802305D01*
G01X565036Y-792874D01*
G03X525570Y-776526I-39466J-39466D01*
G01X-419235Y-776526D01*
G03X-458701Y-792874I0J-55814D01*
G01X-830817Y-1164989D01*
G03X-851998Y-1174012I14806J-64127D01*
G01X-851998Y-979213D01*
G03X-868345Y-939746I-55814J0D01*
G01X-1392605Y-415487D01*
G01X-1392605Y-220287D01*
G03X-1311542Y-229216I46187J46885D01*
G01X-1070189Y-229216D01*
G03X-969499Y-173402I34875J55814D01*
G03X-1070189Y-117588I-65814J0D01*
G01X-1311542Y-117588D01*
G03X-1326066Y-110814I-34875J-55814D01*
G01X-1205000Y-110814D01*
G03X-1169186Y-75000I0J35814D01*
G01X-1169186Y75000D01*
G03X-1205000Y110814I-35814J0D01*
G01X-1344253Y110814D01*
G01X-1313554Y141513D01*
G01X-1311818Y143107D01*
G01X-1310988Y143715D01*
G01X-1308295Y143997D01*
G01X-1303504Y143958D01*
G01X-1296177Y143565D01*
G01X-1295742Y143545D01*
G01X-1286934Y143180D01*
G01X-1284879Y143153D01*
G01X-1281853Y143202D01*
G03X-1201643Y332357I1853J110798D01*
G03X-1390798Y252147I-78357J-78357D01*
G01X-1390847Y249121D01*
G01X-1390820Y247066D01*
G01X-1390455Y238258D01*
G01X-1390435Y237823D01*
G01X-1390042Y230496D01*
G01X-1390003Y225705D01*
G01X-1390369Y222874D01*
G01X-1390893Y222182D01*
G01X-1392487Y220446D01*
G01X-1487885Y125048D01*
G03X-1504233Y85581I39466J-39466D01*
G01X-1504233Y-438606D01*
G03X-1487885Y-478072I55814J0D01*
G01X-963626Y-1002332D01*
G37*
G36*
G01X-1280000Y397186D02*
G03X-1280000Y618814I0J110814D01*
G03X-1280000Y397186I0J-110814D01*
G37*
G36*
G01X-1179158Y1732060D02*
G03X-1358357Y1856357I-100842J45940D01*
G03X-1234060Y1677158I78357J-78357D01*
G01X-1260737Y1650480D01*
G01X-1264423Y1647017D01*
G01X-1268103Y1643961D01*
G01X-1271991Y1641132D01*
G01X-1275872Y1638704D01*
G01X-1279503Y1636818D01*
G01X-1282605Y1635561D01*
G01X-1284867Y1634930D01*
G01X-1287710Y1634545D01*
G03X-1358357Y1445643I7710J-110545D01*
G03X-1169455Y1516290I78357J78357D01*
G01X-1169070Y1519133D01*
G01X-1168439Y1521395D01*
G01X-1167182Y1524497D01*
G01X-1165296Y1528128D01*
G01X-1162868Y1532009D01*
G01X-1160039Y1535897D01*
G01X-1156983Y1539577D01*
G01X-1153520Y1543263D01*
G01X-493292Y2203491D01*
G03X-471086Y2257100I-53609J53609D01*
G01X-471086Y3127002D01*
G02X-441702Y3227749I187401J0D01*
G03X-436086Y3247002I-30198J19254D01*
G01X-436086Y3447003D01*
G03X-471900Y3482817I-35814J0D01*
G01X-621900Y3482817D01*
G03X-657714Y3447003I0J-35814D01*
G01X-657714Y3247002D01*
G03X-652099Y3227749I35814J0D01*
G02X-622714Y3127002I-158017J-100747D01*
G01X-622714Y2288503D01*
G01X-1179158Y1732060D01*
G37*
G36*
G01X-1280000Y1159186D02*
G03X-1280000Y1380814I0J110814D01*
G03X-1280000Y1159186I0J-110814D01*
G37*
G36*
G01X1586346Y-1394041D02*
G01X1592491Y-1400648D01*
G01X1596610Y-1405871D01*
G01X1599475Y-1410280D01*
G01X1601469Y-1414117D01*
G01X1602938Y-1417753D01*
G01X1604028Y-1421293D01*
G01X1606382Y-1432131D01*
G01X1607947Y-1440054D01*
G01X1603752Y-1446503D01*
G01X1598439Y-1453825D01*
G01X1592786Y-1460739D01*
G01X1586360Y-1467632D01*
G01X1282609Y-1771383D01*
G03X1260403Y-1824992I53609J-53609D01*
G01X1260403Y-2682607D01*
G03X1282609Y-2736215I75814J0D01*
G01X1488359Y-2941966D01*
G01X1494785Y-2948858D01*
G01X1500438Y-2955772D01*
G01X1505751Y-2963094D01*
G01X1510700Y-2970703D01*
G01X1515266Y-2978471D01*
G01X1516451Y-2980686D01*
G01X1516451Y-3023654D01*
G03X1543778Y-3096522I110814J0D01*
G01X1544663Y-3099443D01*
G01X1546928Y-3108164D01*
G01X1548808Y-3117044D01*
G01X1550229Y-3125978D01*
G01X1551120Y-3134865D01*
G01X1551451Y-3144282D01*
G01X1551451Y-3516034D01*
G01X1551120Y-3525452D01*
G01X1550229Y-3534338D01*
G01X1548808Y-3543273D01*
G01X1546928Y-3552152D01*
G01X1544663Y-3560873D01*
G01X1543778Y-3563795D01*
G03X1516451Y-3636662I83487J-72868D01*
G01X1516451Y-3686663D01*
G03X1543778Y-3759530I110814J0D01*
G01X1544663Y-3762451D01*
G01X1546928Y-3771173D01*
G01X1548808Y-3780052D01*
G01X1550229Y-3788987D01*
G01X1551120Y-3797873D01*
G01X1551451Y-3807291D01*
G01X1551451Y-4179043D01*
G01X1551120Y-4188460D01*
G01X1550229Y-4197347D01*
G01X1548808Y-4206281D01*
G01X1546928Y-4215161D01*
G01X1544663Y-4223882D01*
G01X1543778Y-4226803D01*
G03X1516451Y-4299671I83487J-72868D01*
G01X1516451Y-4349671D01*
G03X1738079Y-4349671I110814J0D01*
G01X1738079Y-4299671D01*
G03X1710751Y-4226803I-110814J0D01*
G01X1709866Y-4223882D01*
G01X1707602Y-4215161D01*
G01X1705721Y-4206281D01*
G01X1704301Y-4197347D01*
G01X1703409Y-4188460D01*
G01X1703079Y-4179043D01*
G01X1703079Y-3807291D01*
G01X1703409Y-3797873D01*
G01X1704301Y-3788987D01*
G01X1705721Y-3780052D01*
G01X1707602Y-3771173D01*
G01X1709866Y-3762451D01*
G01X1710751Y-3759530D01*
G03X1738079Y-3686663I-83487J72868D01*
G01X1738079Y-3636662D01*
G03X1710751Y-3563795I-110814J0D01*
G01X1709866Y-3560873D01*
G01X1707602Y-3552152D01*
G01X1705721Y-3543273D01*
G01X1704301Y-3534338D01*
G01X1703409Y-3525452D01*
G01X1703079Y-3516034D01*
G01X1703079Y-3144282D01*
G01X1703409Y-3134865D01*
G01X1704301Y-3125978D01*
G01X1705721Y-3117044D01*
G01X1707602Y-3108164D01*
G01X1709866Y-3099443D01*
G01X1710751Y-3096522D01*
G03X1738079Y-3023654I-83487J72868D01*
G01X1738079Y-2973654D01*
G03X1634773Y-2863095I-110814J0D01*
G01X1632082Y-2861655D01*
G01X1624314Y-2857089D01*
G01X1616705Y-2852140D01*
G01X1609383Y-2846827D01*
G01X1602469Y-2841174D01*
G01X1595576Y-2834748D01*
G01X1412031Y-2651203D01*
G01X1412031Y-1856395D01*
G01X1624423Y-1644004D01*
G03X1614567Y-1695001I100843J-45940D01*
G01X1614563Y-1700268D01*
G01X1614047Y-1705520D01*
G01X1612963Y-1711383D01*
G01X1611357Y-1717318D01*
G01X1609352Y-1722831D01*
G01X1607163Y-1727439D01*
G01X1605155Y-1730668D01*
G01X1602754Y-1733523D01*
G01X1480163Y-1856113D01*
G03X1463816Y-1895580I39466J-39466D01*
G01X1463816Y-2360797D01*
G03X1519630Y-2461486I55814J-34875D01*
G03X1575444Y-2360797I0J65814D01*
G01X1575444Y-1918699D01*
G01X1681687Y-1812456D01*
G01X1684541Y-1810055D01*
G01X1687770Y-1808046D01*
G01X1692378Y-1805858D01*
G01X1697891Y-1803853D01*
G01X1703827Y-1802247D01*
G01X1709690Y-1801162D01*
G01X1714942Y-1800646D01*
G01X1720208Y-1800642D01*
G03X1725266Y-1800758I5058J110699D01*
G01X1775266Y-1800758D01*
G03X1775266Y-1579130I0J110814D01*
G01X1725266Y-1579130D01*
G03X1679326Y-1589101I0J-110814D01*
G01X1693578Y-1574849D01*
G01X1700470Y-1568423D01*
G01X1707384Y-1562770D01*
G01X1714706Y-1557457D01*
G01X1722315Y-1552508D01*
G01X1730083Y-1547943D01*
G01X1732299Y-1546758D01*
G01X1775266Y-1546758D01*
G03X1775266Y-1325130I0J110814D01*
G01X1758318Y-1325130D01*
G01X1756245Y-1324333D01*
G01X1744472Y-1320224D01*
G01X1744472Y-1320224D01*
G01X1743815Y-1320002D01*
G01X1743815Y-1320002D01*
G01X1732755Y-1316380D01*
G01X1728522Y-1314736D01*
G01X1724388Y-1312816D01*
G01X1720160Y-1310439D01*
G01X1715526Y-1307307D01*
G01X1710258Y-1303086D01*
G01X1703785Y-1297045D01*
G01X1151287Y-744547D01*
G01X1151287Y-423303D01*
G03X1129082Y-369695I-75814J0D01*
G01X950228Y-190840D01*
G01X1604638Y-190840D01*
G01X1614055Y-191171D01*
G01X1622942Y-192062D01*
G01X1631876Y-193483D01*
G01X1640756Y-195364D01*
G01X1649477Y-197628D01*
G01X1652398Y-198513D01*
G03X1725266Y-225840I72868J83487D01*
G01X1775266Y-225840D01*
G03X1775266Y-4212I0J110814D01*
G01X1725266Y-4212D01*
G03X1652398Y-31540I0J-110814D01*
G01X1649477Y-32425D01*
G01X1640756Y-34689D01*
G01X1631876Y-36570D01*
G01X1622942Y-37990D01*
G01X1614055Y-38882D01*
G01X1604638Y-39212D01*
G01X855884Y-39212D01*
G01X846467Y-38882D01*
G01X837581Y-37990D01*
G01X828646Y-36570D01*
G01X819766Y-34689D01*
G01X811045Y-32425D01*
G01X808124Y-31540D01*
G03X735256Y-4212I-72868J-83487D01*
G01X685256Y-4212D01*
G03X612388Y-31540I0J-110814D01*
G01X609467Y-32425D01*
G01X600746Y-34689D01*
G01X591866Y-36570D01*
G01X582932Y-37990D01*
G01X574045Y-38882D01*
G01X564628Y-39212D01*
G01X426933Y-39212D01*
G01X209535Y178186D01*
G01X753806Y178186D01*
G03X807415Y200391I0J75814D01*
G01X807415Y200391D01*
G01X1674000Y1066976D01*
G01X1680718Y1073230D01*
G01X1686005Y1077403D01*
G01X1690408Y1080260D01*
G01X1694164Y1082193D01*
G01X1697652Y1083564D01*
G01X1700930Y1084516D01*
G01X1711471Y1086494D01*
G01X1724075Y1088386D01*
G01X1725601Y1088649D01*
G01X1732578Y1090007D01*
G01X1734638Y1090471D01*
G01X1741965Y1092351D01*
G03X1744485Y1093098I-8902J34690D01*
G01X1750366Y1095077D01*
G01X1775266Y1095077D01*
G03X1775266Y1316705I0J110814D01*
G01X1732299Y1316705D01*
G01X1730083Y1317890D01*
G01X1722315Y1322455D01*
G01X1714706Y1327404D01*
G01X1707384Y1332718D01*
G01X1700470Y1338371D01*
G01X1693578Y1344796D01*
G01X1513843Y1524531D01*
G01X1513843Y2209341D01*
G01X1624423Y2319922D01*
G03X1725266Y2163168I100843J-45940D01*
G01X1775266Y2163168D01*
G03X1775266Y2384796I0J110814D01*
G01X1725266Y2384796D01*
G03X1679326Y2374825I0J-110814D01*
G01X1693578Y2389077D01*
G01X1700470Y2395502D01*
G01X1707384Y2401155D01*
G01X1714706Y2406469D01*
G01X1722315Y2411417D01*
G01X1730083Y2415983D01*
G01X1732299Y2417168D01*
G01X1775266Y2417168D01*
G03X1775266Y2638796I0J110814D01*
G01X1725266Y2638796D01*
G03X1614707Y2535491I0J-110814D01*
G01X1613267Y2532799D01*
G01X1608701Y2525031D01*
G01X1603752Y2517422D01*
G01X1598439Y2510100D01*
G01X1592786Y2503186D01*
G01X1586360Y2496294D01*
G01X1384420Y2294353D01*
G03X1362215Y2240745I53609J-53609D01*
G01X1362215Y1493128D01*
G03X1384420Y1439519I75814J0D01*
G01X1586360Y1237579D01*
G01X1592786Y1230686D01*
G01X1598439Y1223772D01*
G01X1603491Y1216811D01*
G01X1602088Y1214004D01*
G01X1599468Y1209670D01*
G01X1596111Y1204875D01*
G01X1591971Y1199771D01*
G01X1586379Y1193790D01*
G01X722403Y329814D01*
G01X103056Y329814D01*
G01X98001Y329971D01*
G01X93238Y330413D01*
G01X88488Y331161D01*
G01X84027Y332189D01*
G01X80126Y333423D01*
G01X77044Y334727D01*
G01X74998Y335881D01*
G01X72715Y337619D01*
G03X-72715Y337619I-72715J-83619D01*
G01X-74998Y335881D01*
G01X-77044Y334727D01*
G01X-80126Y333423D01*
G01X-84027Y332189D01*
G01X-88488Y331161D01*
G01X-93238Y330413D01*
G01X-98001Y329971D01*
G01X-103056Y329814D01*
G01X-486597Y329814D01*
G01X-1153520Y996737D01*
G01X-1156983Y1000423D01*
G01X-1160039Y1004103D01*
G01X-1162868Y1007991D01*
G01X-1165296Y1011872D01*
G01X-1167182Y1015503D01*
G01X-1168439Y1018605D01*
G01X-1169070Y1020867D01*
G01X-1169455Y1023710D01*
G03X-1358357Y1094357I-110545J-7710D01*
G03X-1287710Y905455I78357J-78357D01*
G01X-1284867Y905070D01*
G01X-1282605Y904439D01*
G01X-1279503Y903182D01*
G01X-1275872Y901296D01*
G01X-1271991Y898868D01*
G01X-1268103Y896039D01*
G01X-1264423Y892983D01*
G01X-1260737Y889520D01*
G01X-1234060Y862842D01*
G03X-1358357Y683643I-45940J-100842D01*
G03X-1179158Y807940I78357J78357D01*
G01X-571609Y200391D01*
G01X-571609Y200391D01*
G03X-518000Y178186I53609J53609D01*
G01X-103056Y178186D01*
G01X-98001Y178029D01*
G01X-93238Y177587D01*
G01X-88488Y176839D01*
G01X-84027Y175811D01*
G01X-80126Y174577D01*
G01X-77044Y173273D01*
G01X-74998Y172119D01*
G01X-72715Y170381D01*
G03X19713Y144954I72715J83619D01*
G01X21751Y145148D01*
G01X22334Y145091D01*
G01X23885Y144668D01*
G01X26374Y143597D01*
G01X29576Y141756D01*
G01X33222Y139178D01*
G01X37066Y135987D01*
G01X41240Y132046D01*
G01X341921Y-168635D01*
G01X341921Y-168635D01*
G03X395530Y-190840I53609J53609D01*
G01X564628Y-190840D01*
G01X574045Y-191171D01*
G01X582932Y-192062D01*
G01X591866Y-193483D01*
G01X600746Y-195364D01*
G01X609467Y-197628D01*
G01X612388Y-198513D01*
G03X685256Y-225840I72868J83487D01*
G01X716261Y-225840D01*
G01X722569Y-227609D01*
G01X723965Y-227970D01*
G01X740474Y-231889D01*
G01X740942Y-231997D01*
G01X756823Y-235542D01*
G01X771315Y-239319D01*
G01X777146Y-241209D01*
G01X782576Y-243319D01*
G01X787345Y-245574D01*
G01X791497Y-247986D01*
G01X795128Y-250597D01*
G01X799142Y-254189D01*
G01X999659Y-454706D01*
G01X999659Y-775951D01*
G03X1021864Y-829559I75814J0D01*
G01X1586346Y-1394041D01*
G37*
G36*
G01X-295889Y-4365876D02*
G03X-1236717Y-4365876I-470414J0D01*
G03X-295889Y-4365876I470414J0D01*
G37*
G36*
G01X-690086Y3322002D02*
G01X-690086Y3372003D01*
G03X-911714Y3372003I-110814J0D01*
G01X-911714Y3322002D01*
G03X-690086Y3322002I110814J0D01*
G37*
G36*
G01X-351079Y-425821D02*
G03X-250390Y-370007I34875J55814D01*
G03X-351079Y-314193I-65814J0D01*
G01X-607733Y-314193D01*
G03X-708422Y-370007I-34875J-55814D01*
G03X-607733Y-425821I65814J0D01*
G01X-351079Y-425821D01*
G37*
G36*
G01X-585897Y-2279684D02*
G03X-485522Y-2329084I65501J6414D01*
G01X-479596Y-2329084D01*
G03X-440130Y-2312737I0J55814D01*
G01X-240387Y-2112994D01*
G03X-208656Y-2002330I-14806J64127D01*
G03X-319320Y-2034061I-46537J-46537D01*
G01X-497010Y-2211752D01*
G03X-585897Y-2279684I-23386J-61519D01*
G37*
G36*
G01X74998Y934119D02*
G01X77044Y935273D01*
G01X80126Y936577D01*
G01X84027Y937811D01*
G01X88488Y938839D01*
G01X93238Y939587D01*
G01X98001Y940029D01*
G01X103056Y940186D01*
G01X143889Y940186D01*
G03X197497Y962391I0J75814D01*
G01X197497Y962391D01*
G01X381301Y1146195D01*
G01X558181Y1146195D01*
G01X567598Y1145865D01*
G01X576485Y1144973D01*
G01X585419Y1143553D01*
G01X594299Y1141672D01*
G01X603020Y1139408D01*
G01X605941Y1138523D01*
G03X678809Y1111195I72868J83487D01*
G01X728809Y1111195D01*
G03X728809Y1332823I0J110814D01*
G01X678809Y1332823D01*
G03X605941Y1305496I0J-110814D01*
G01X603020Y1304611D01*
G01X594299Y1302346D01*
G01X585419Y1300465D01*
G01X576485Y1299045D01*
G01X567598Y1298154D01*
G01X558181Y1297823D01*
G01X349898Y1297823D01*
G03X296289Y1275618I0J-75814D01*
G01X296289Y1275618D01*
G01X112486Y1091814D01*
G01X103056Y1091814D01*
G01X98001Y1091971D01*
G01X93238Y1092413D01*
G01X88488Y1093161D01*
G01X84027Y1094189D01*
G01X80126Y1095423D01*
G01X77044Y1096727D01*
G01X74998Y1097881D01*
G01X72715Y1099619D01*
G03X-110814Y1016000I-72715J-83619D01*
G03X72715Y932381I110814J0D01*
G01X74998Y934119D01*
G37*
G36*
G01X-83614Y435278D02*
G03X108442Y485193I83614J72722D01*
G01X550807Y485193D01*
G03X604416Y507399I0J75814D01*
G01X604416Y507399D01*
G01X666392Y569375D01*
G02X770231Y603195I103838J-142498D01*
G01X803809Y603195D01*
G03X839623Y639009I0J35814D01*
G01X839623Y789009D01*
G03X803809Y824823I-35814J0D01*
G01X603809Y824823D01*
G03X567995Y789009I0J-35814D01*
G01X567995Y755431D01*
G02X534175Y651592I-176318J0D01*
G01X519404Y636821D01*
G01X53007Y636821D01*
G03X5111Y619776I0J-75814D01*
G01X-7549Y618556D01*
G03X-83614Y435278I7549J-110556D01*
G37*
G36*
G01X210390Y837814D02*
G01X103056Y837814D01*
G01X98001Y837971D01*
G01X93238Y838413D01*
G01X88488Y839161D01*
G01X84027Y840189D01*
G01X80126Y841423D01*
G01X77044Y842727D01*
G01X74998Y843881D01*
G01X72715Y845619D01*
G03X-110814Y762000I-72715J-83619D01*
G03X72715Y678381I110814J0D01*
G01X74998Y680119D01*
G01X77044Y681273D01*
G01X80126Y682577D01*
G01X84027Y683811D01*
G01X88488Y684839D01*
G01X93238Y685587D01*
G01X98001Y686029D01*
G01X103056Y686186D01*
G01X241793Y686186D01*
G03X295402Y708391I0J75814D01*
G01X295402Y708391D01*
G01X479206Y892195D01*
G01X558181Y892195D01*
G01X567598Y891865D01*
G01X576485Y890973D01*
G01X585419Y889553D01*
G01X594299Y887672D01*
G01X603020Y885408D01*
G01X605941Y884523D01*
G03X678809Y857195I72868J83487D01*
G01X728809Y857195D01*
G03X728809Y1078823I0J110814D01*
G01X678809Y1078823D01*
G03X605941Y1051496I0J-110814D01*
G01X603020Y1050611D01*
G01X594299Y1048346D01*
G01X585419Y1046465D01*
G01X576485Y1045045D01*
G01X567598Y1044154D01*
G01X558181Y1043823D01*
G01X447803Y1043823D01*
G03X394194Y1021618I0J-75814D01*
G01X394194Y1021618D01*
G01X210390Y837814D01*
G37*
G36*
G01X126782Y1345814D02*
G01X103056Y1345814D01*
G01X98001Y1345971D01*
G01X93238Y1346413D01*
G01X88488Y1347161D01*
G01X84027Y1348189D01*
G01X80126Y1349423D01*
G01X77044Y1350727D01*
G01X74998Y1351881D01*
G01X72715Y1353619D01*
G03X-110814Y1270000I-72715J-83619D01*
G03X72715Y1186381I110814J0D01*
G01X74998Y1188119D01*
G01X77044Y1189273D01*
G01X80126Y1190577D01*
G01X84027Y1191811D01*
G01X88488Y1192839D01*
G01X93238Y1193587D01*
G01X98001Y1194029D01*
G01X103056Y1194186D01*
G01X158186Y1194186D01*
G03X211794Y1216391I0J75814D01*
G01X211794Y1216391D01*
G01X395598Y1400195D01*
G01X558181Y1400195D01*
G01X567598Y1399865D01*
G01X576485Y1398973D01*
G01X585419Y1397553D01*
G01X594299Y1395672D01*
G01X603020Y1393408D01*
G01X605941Y1392523D01*
G03X678809Y1365195I72868J83487D01*
G01X728809Y1365195D01*
G03X728809Y1586823I0J110814D01*
G01X678809Y1586823D01*
G03X605941Y1559496I0J-110814D01*
G01X603020Y1558611D01*
G01X594299Y1556346D01*
G01X585419Y1554465D01*
G01X576485Y1553045D01*
G01X567598Y1552154D01*
G01X558181Y1551823D01*
G01X364195Y1551823D01*
G03X310586Y1529618I0J-75814D01*
G01X310586Y1529618D01*
G01X126782Y1345814D01*
G37*
G36*
G01X0Y1667186D02*
G03X0Y1888814I0J110814D01*
G03X0Y1667186I0J-110814D01*
G37*
G36*
G01X1234111Y3001206D02*
G03X213283Y3001206I-510414J0D01*
G03X1234111Y3001206I510414J0D01*
G37*
G36*
G01X685256Y-733840D02*
G01X735256Y-733840D01*
G03X735256Y-512212I0J110814D01*
G01X685256Y-512212D01*
G03X685256Y-733840I0J-110814D01*
G37*
G36*
G01X685256Y-479840D02*
G01X735256Y-479840D01*
G03X735256Y-258212I0J110814D01*
G01X685256Y-258212D01*
G03X685256Y-479840I0J-110814D01*
G37*
G36*
G01X923606Y915838D02*
G03X891875Y805174I14806J-64127D01*
G03X1002539Y836905I46537J46537D01*
G01X1059791Y894157D01*
G01X1173650Y894157D01*
G03X1274340Y949971I34875J55814D01*
G03X1173650Y1005785I-65814J0D01*
G01X1036673Y1005785D01*
G03X997206Y989438I0J-55814D01*
G01X923606Y915838D01*
G37*
G36*
G01X1230079Y-4424671D02*
G01X1230079Y-4224671D01*
G03X1194265Y-4188857I-35814J0D01*
G01X1044265Y-4188857D01*
G03X1008451Y-4224671I0J-35814D01*
G01X1008451Y-4424671D01*
G03X1044265Y-4460485I35814J0D01*
G01X1194265Y-4460485D01*
G03X1230079Y-4424671I0J35814D01*
G37*
G36*
G01X1230079Y-3761663D02*
G01X1230079Y-3561662D01*
G03X1194265Y-3525848I-35814J0D01*
G01X1044265Y-3525848D01*
G03X1008451Y-3561662I0J-35814D01*
G01X1008451Y-3761663D01*
G03X1044265Y-3797477I35814J0D01*
G01X1194265Y-3797477D01*
G03X1230079Y-3761663I0J35814D01*
G37*
G36*
G01X1230079Y-3098654D02*
G01X1230079Y-2898654D01*
G03X1194265Y-2862840I-35814J0D01*
G01X1044265Y-2862840D01*
G03X1008451Y-2898654I0J-35814D01*
G01X1008451Y-3098654D01*
G03X1044265Y-3134468I35814J0D01*
G01X1194265Y-3134468D01*
G03X1230079Y-3098654I0J35814D01*
G37*
G36*
G01X1725266Y1909168D02*
G01X1775266Y1909168D01*
G03X1775266Y2130796I0J110814D01*
G01X1725266Y2130796D01*
G03X1725266Y1909168I0J-110814D01*
G37*
G36*
G01X1725266Y841077D02*
G01X1775266Y841077D01*
G03X1775266Y1062705I0J110814D01*
G01X1725266Y1062705D01*
G03X1725266Y841077I0J-110814D01*
G37*
G36*
G01X1725266Y587077D02*
G01X1775266Y587077D01*
G03X1775266Y808705I0J110814D01*
G01X1725266Y808705D01*
G03X1725266Y587077I0J-110814D01*
G37*
G36*
G01X1886080Y518891D02*
G03X1850266Y554705I-35814J0D01*
G01X1650266Y554705D01*
G03X1614452Y518891I0J-35814D01*
G01X1614452Y368891D01*
G03X1650266Y333077I35814J0D01*
G01X1850266Y333077D01*
G03X1886080Y368891I0J35814D01*
G01X1886080Y518891D01*
G37*
G36*
G01X1886080Y1840982D02*
G03X1850266Y1876796I-35814J0D01*
G01X1650266Y1876796D01*
G03X1614452Y1840982I0J-35814D01*
G01X1614452Y1690982D01*
G03X1650266Y1655168I35814J0D01*
G01X1850266Y1655168D01*
G03X1886080Y1690982I0J35814D01*
G01X1886080Y1840982D01*
G37*
G36*
G01X1886080Y-2122944D02*
G03X1850266Y-2087130I-35814J0D01*
G01X1650266Y-2087130D01*
G03X1614452Y-2122944I0J-35814D01*
G01X1614452Y-2272944D01*
G03X1650266Y-2308758I35814J0D01*
G01X1850266Y-2308758D01*
G03X1886080Y-2272944I0J35814D01*
G01X1886080Y-2122944D01*
G37*
G36*
G01X1725266Y-2054758D02*
G01X1775266Y-2054758D01*
G03X1775266Y-1833130I0J110814D01*
G01X1725266Y-1833130D01*
G03X1725266Y-2054758I0J-110814D01*
G37*
G36*
G01X1725266Y-733840D02*
G01X1775266Y-733840D01*
G03X1775266Y-512212I0J110814D01*
G01X1725266Y-512212D01*
G03X1725266Y-733840I0J-110814D01*
G37*
G36*
G01X1725266Y-479840D02*
G01X1775266Y-479840D01*
G03X1775266Y-258212I0J110814D01*
G01X1725266Y-258212D01*
G03X1725266Y-479840I0J-110814D01*
G37*
G36*
G01X1886080Y-802026D02*
G03X1850266Y-766212I-35814J0D01*
G01X1650266Y-766212D01*
G03X1614452Y-802026I0J-35814D01*
G01X1614452Y-952026D01*
G03X1650266Y-987840I35814J0D01*
G01X1850266Y-987840D01*
G03X1886080Y-952026I0J35814D01*
G01X1886080Y-802026D01*
G37*
%LPD*%
G36*
G01X-5059552Y-1643014D02*
G01X-5059552Y-1044682D01*
G01X-4492078Y-1612156D01*
G03X-4483765Y-1632225I64127J14806D01*
G01X-4483765Y-2223131D01*
G03X-4494492Y-2208074I-50193J-24409D01*
G01X-5059552Y-1643014D01*
G37*
G54D10*
G01X-7926365Y3198071D02*
G02X-7562129Y3562307I364236J0D01*
G01X-7562129Y3562307D01*
G03X-7547588Y3565392I0J35814D01*
G01X1656345Y3565392D01*
G02X1987883Y3240715I-30683J-362941D01*
G01X1987883Y-4598205D01*
G02X1660058Y-4930062I-362941J30683D01*
G01X-7594595Y-4930062D01*
G02X-7930489Y-4601918I26645J363260D01*
G01X-7930489Y3181386D01*
G03X-7926365Y3198071I-31690J16685D01*
G01X-6855889Y3001224D02*
G03X-7876717Y3001224I-510414J0D01*
G03X-6855889Y3001224I510414J0D01*
G01X-7847304Y670567D02*
G03X-7811490Y634753I35814J0D01*
G01X-7611490Y634753D01*
G03X-7575676Y670567I0J35814D01*
G01X-7575676Y830567D01*
G03X-7611490Y866381I-35814J0D01*
G01X-7811490Y866381D01*
G03X-7847304Y830567I0J-35814D01*
G01X-7847304Y670567D01*
G01X-7847304Y1506978D02*
G03X-7811490Y1471164I35814J0D01*
G01X-7611490Y1471164D01*
G03X-7575676Y1506978I0J35814D01*
G01X-7575676Y1666978D01*
G03X-7611490Y1702792I-35814J0D01*
G01X-7811490Y1702792D01*
G03X-7847304Y1666978I0J-35814D01*
G01X-7847304Y1506978D01*
G01X-7144105Y-3449199D02*
G03X-7116042Y-3516950I95814J0D01*
G01X-5986845Y-4646147D01*
G02X-5926788Y-4806517I-184089J-160370D01*
G03X-5890974Y-4842331I35814J0D01*
G01X-5740974Y-4842331D01*
G03X-5705160Y-4806517I0J35814D01*
G01X-5705160Y-4606517D01*
G03X-5730928Y-4572140I-35814J0D01*
G02X-5875502Y-4486487I95057J325285D01*
G01X-6952477Y-3409511D01*
G01X-6952477Y-2813648D01*
G03X-6980540Y-2745897I-95814J0D01*
G01X-7426729Y-2299709D01*
G03X-7494479Y-2271646I-67751J-67751D01*
G02X-7597515Y-2257899I0J393001D01*
G03X-7606905Y-2256646I-9390J-34561D01*
G01X-7806905Y-2256646D01*
G03X-7842719Y-2292460I0J-35814D01*
G01X-7842719Y-2442460D01*
G03X-7806905Y-2478274I35814J0D01*
G01X-7606905Y-2478274D01*
G03X-7597515Y-2477021I0J35814D01*
G02X-7532339Y-2465102I103036J-379254D01*
G01X-7144105Y-2853335D01*
G01X-7144105Y-3449199D01*
G01X-7681904Y-2510646D02*
G01X-7731905Y-2510646D01*
G03X-7731905Y-2732274I0J-110814D01*
G01X-7681904Y-2732274D01*
G03X-7681904Y-2510646I0J110814D01*
G01X-7681904Y-2764646D02*
G01X-7731905Y-2764646D01*
G03X-7731905Y-2986274I0J-110814D01*
G01X-7681904Y-2986274D01*
G03X-7681904Y-2764646I0J110814D01*
G01X-6895889Y-4365876D02*
G03X-7836717Y-4365876I-470414J0D01*
G03X-6895889Y-4365876I470414J0D01*
G01X-6647396Y-987837D02*
G03X-6863210Y-929418I-115814J0D01*
G03X-7079023Y-987837I-100000J-58420D01*
G03X-6863210Y-1046257I115814J0D01*
G03X-6647396Y-987837I100000J58420D01*
G01X-6763210Y-1122036D02*
G03X-6763210Y-1353664I0J-115814D01*
G03X-6763210Y-1122036I0J115814D01*
G01X-6808588Y-2940663D02*
G03X-6752774Y-2839974I0J65814D01*
G01X-6752774Y-2590788D01*
G03X-6774523Y-2482010I-45614J47443D01*
G03X-6864072Y-2547481I-23865J-61334D01*
G03X-6864402Y-2553545I55484J-6063D01*
G01X-6864402Y-2839974D01*
G03X-6808588Y-2940663I55814J-34875D01*
G01X-5603897Y-629227D02*
G03X-5675293Y-679832I-7270J-65411D01*
G01X-5732234Y-736773D01*
G03X-5748582Y-776239I39466J-39466D01*
G01X-5748582Y-1241171D01*
G03X-5692768Y-1341860I55814J-34875D01*
G03X-5636954Y-1241171I0J65814D01*
G01X-5636954Y-799358D01*
G01X-5596361Y-758765D01*
G03X-5545755Y-687369I-14806J64127D01*
G01X-5220256Y-1012868D01*
G03X-5313189Y-1057237I-28806J-59175D01*
G01X-5625973Y-1370021D01*
G03X-5657704Y-1480685I14806J-64127D01*
G03X-5547040Y-1448954I46537J46537D01*
G01X-5234256Y-1136170D01*
G03X-5189887Y-1043237I-14806J64127D01*
G01X-5171180Y-1061944D01*
G01X-5171180Y-1666133D01*
G03X-5154833Y-1705599I55814J0D01*
G01X-4589773Y-2270659D01*
G01X-4589773Y-3254667D01*
G03X-4555889Y-3351595I55814J-34875D01*
G03X-4468626Y-3297484I21931J62053D01*
G01X-4467418Y-3298730D01*
G01X-3701568Y-4064579D01*
G03X-3672830Y-4105263I64127J14806D01*
G01X-4382876Y-4105263D01*
G03X-4483565Y-4161077I-34875J-55814D01*
G03X-4382876Y-4216891I65814J0D01*
G01X-3595034Y-4216891D01*
G03X-3555568Y-4200543I0J55814D01*
G01X-3455173Y-4100148D01*
G03X-3438825Y-4060682I-39466J39466D01*
G01X-3438825Y-3441192D01*
G01X-2816825Y-2819192D01*
G03X-2785093Y-2708527I-14806J64127D01*
G03X-2895757Y-2740259I-46537J-46537D01*
G01X-3534106Y-3378607D01*
G03X-3550453Y-3418073I39466J-39466D01*
G01X-3550453Y-4037563D01*
G01X-3572343Y-4059452D01*
G03X-3583054Y-4012713I-65098J9679D01*
G03X-3622635Y-3985647I-54387J-37060D01*
G01X-3773448Y-3834834D01*
G03X-3738823Y-3737287I-21001J62373D01*
G03X-3754983Y-3702393I-55626J-4573D01*
G01X-4136440Y-3320936D01*
G01X-4136440Y-2541767D01*
G03X-4056200Y-2530474I32892J57005D01*
G03X-4047735Y-2449886I-47348J45712D01*
G01X-4047735Y-1305821D01*
G03X-4056200Y-1225233I-55814J34875D01*
G03X-4136440Y-1213940I-47348J-45712D01*
G01X-4136440Y-717521D01*
G03X-4152788Y-678054I-55814J0D01*
G01X-4314943Y-515900D01*
G01X-4314943Y-332968D01*
G03X-4304615Y-335900I23077J61636D01*
G01X-3441465Y-1199050D01*
G03X-3330800Y-1230782I64127J14806D01*
G03X-3362532Y-1120118I-46537J46537D01*
G01X-4228274Y-254375D01*
G03X-4314943Y-209697I-63592J-16958D01*
G01X-4314943Y-108232D01*
G01X-4111987Y94724D01*
G03X-4095640Y134190I-39466J39466D01*
G01X-4095640Y252317D01*
G03X-4151454Y353006I-55814J34875D01*
G03X-4207268Y252317I0J-65814D01*
G01X-4207268Y157309D01*
G01X-4410223Y-45646D01*
G03X-4426571Y-85113I39466J-39466D01*
G01X-4426571Y-539018D01*
G03X-4410223Y-578485I55814J0D01*
G01X-4248068Y-740640D01*
G01X-4248068Y-3344055D01*
G03X-4244445Y-3363837I55814J0D01*
G01X-4372137Y-3236144D01*
G01X-4372137Y-1632225D01*
G03X-4413145Y-1533223I-55814J34875D01*
G01X-5566600Y-379768D01*
G03X-5606067Y-363421I-39466J-39466D01*
G01X-5744594Y-363421D01*
G03X-5831923Y-379485I-34875J-55814D01*
G03X-5823772Y-467904I52454J-39750D01*
G01X-5836857Y-467904D01*
G01X-6043865Y-260896D01*
G01X-6043865Y435919D01*
G03X-6099679Y536609I-55814J34875D01*
G03X-6155493Y435919I0J-65814D01*
G01X-6155493Y-284015D01*
G03X-6139145Y-323482I55814J0D01*
G01X-5899442Y-563185D01*
G03X-5859976Y-579532I39466J39466D01*
G01X-5653592Y-579532D01*
G01X-5603897Y-629227D01*
G01X-5538177Y-2984876D02*
G01X-5404736Y-3118318D01*
G01X-5404736Y-3118318D01*
G03X-5397366Y-3124513I39466J39466D01*
G01X-5397366Y-3124513D01*
G03X-5288991Y-3103612I47397J45662D01*
G03X-5352116Y-3013072I-60979J24761D01*
G01X-5459245Y-2905943D01*
G03X-5508566Y-2856622I-64127J-14806D01*
G01X-5901063Y-2464125D01*
G01X-5901063Y-2211015D01*
G03X-5956877Y-2110326I-55814J34875D01*
G03X-6012691Y-2211015I0J-65814D01*
G01X-6012691Y-2487244D01*
G03X-5996344Y-2526710I55814J0D01*
G01X-5587498Y-2935555D01*
G03X-5538177Y-2984876I64127J14806D01*
G01X-5738211Y-2165303D02*
G03X-5706480Y-2275967I46537J-46537D01*
G01X-5574085Y-2408361D01*
G01X-5574085Y-2498269D01*
G03X-5518271Y-2598958I55814J-34875D01*
G03X-5462457Y-2498269I0J65814D01*
G01X-5462457Y-2385242D01*
G03X-5478805Y-2345776I-55814J0D01*
G01X-5627547Y-2197034D01*
G03X-5738211Y-2165303I-64127J-14806D01*
G01X-5672788Y-4681517D02*
G01X-5672788Y-4731517D01*
G03X-5451160Y-4731517I110814J0D01*
G01X-5451160Y-4681517D01*
G03X-5672788Y-4681517I-110814J0D01*
G01X-5517985Y-3865087D02*
G03X-5462171Y-3965776I55814J-34875D01*
G03X-5406357Y-3865087I0J65814D01*
G01X-5406357Y-3808161D01*
G03X-5422704Y-3768694I-55814J0D01*
G01X-5479645Y-3711754D01*
G03X-5590309Y-3680022I-64127J-14806D01*
G03X-5558578Y-3790687I46537J-46537D01*
G01X-5517985Y-3831280D01*
G01X-5517985Y-3865087D01*
G01X-4514537Y3197203D02*
G02X-4506182Y3221389I39186J0D01*
G01X-4490351Y3221389D01*
G03X-4454537Y3257203I0J35814D01*
G01X-4454537Y3457203D01*
G03X-4490351Y3493017I-35814J0D01*
G01X-4650351Y3493017D01*
G03X-4686165Y3457203I0J-35814D01*
G01X-4686165Y3257203D01*
G03X-4650351Y3221389I35814J0D01*
G01X-4634519Y3221389D01*
G02X-4627784Y3208350I-30831J-24186D01*
G01X-5237274Y2598860D01*
G03X-5269005Y2488195I14806J-64127D01*
G03X-5158341Y2519927I46537J46537D01*
G01X-4530884Y3147383D01*
G03X-4514537Y3186850I-39466J39466D01*
G01X-4514537Y3197203D01*
G01X-4708537Y3337202D02*
G01X-4708537Y3377203D01*
G03X-4940165Y3377203I-115814J0D01*
G01X-4940165Y3337202D01*
G03X-4708537Y3337202I115814J0D01*
G01X-4856501Y-2753547D02*
G03X-4926377Y-2843667I-8962J-65201D01*
G01X-4926377Y-3135777D01*
G03X-4870563Y-3236466I55814J-34875D01*
G03X-4814749Y-3135777I0J65814D01*
G01X-4814749Y-2860838D01*
G03X-4856501Y-2753547I-50746J42022D01*
G01X-4672754Y-623724D02*
G03X-4728568Y-724413I0J-65814D01*
G01X-4728568Y-945367D01*
G03X-4672754Y-1046056I55814J-34875D01*
G03X-4616940Y-945367I0J65814D01*
G01X-4616940Y-724413D01*
G03X-4672754Y-623724I-55814J34875D01*
G01X-4324569Y949375D02*
G03X-4268755Y848686I55814J-34875D01*
G03X-4212941Y949375I0J65814D01*
G01X-4212941Y1496733D01*
G03X-4268755Y1597422I-55814J34875D01*
G03X-4324569Y1496733I0J-65814D01*
G01X-4324569Y949375D01*
G01X-3768455Y-2190102D02*
G03X-3800186Y-2300767I14806J-64127D01*
G03X-3689522Y-2269035I46537J46537D01*
G01X-2551367Y-1130881D01*
G03X-2535020Y-1091414I-39466J39466D01*
G01X-2535020Y-1075289D01*
G03X-2588271Y-974649I-55814J34875D01*
G03X-2649192Y-1070840I-2563J-65764D01*
G01X-3768455Y-2190102D01*
G01X-3188056Y2712362D02*
G01X-3189822Y2714473D01*
G01X-3192567Y2718221D01*
G01X-3194451Y2721310D01*
G01X-3195556Y2723642D01*
G01X-3196068Y2725217D01*
G01X-3196237Y2726224D01*
G01X-3196242Y2727088D01*
G01X-3196039Y2728371D01*
G01X-3195331Y2730557D01*
G01X-3193217Y2734900D01*
G03X-3400714Y3005663I-162264J90538D01*
G03X-3455759Y2669007I45233J-180224D01*
G01X-3451145Y2665825D01*
G01X-3449640Y2664645D01*
G03X-3433838Y2644715I94159J58428D01*
G01X-3163897Y2374774D01*
G03X-3085540Y2342318I78357J78357D01*
G01X-2646934Y2342318D01*
G01X-2449888Y2145271D01*
G03X-2293173Y2301986I78357J78357D01*
G01X-2522676Y2531489D01*
G03X-2601034Y2563946I-78357J-78357D01*
G01X-3039639Y2563946D01*
G01X-3188056Y2712362D01*
G01X-1826653Y-1232613D02*
G03X-1927000Y-1183502I-65472J-6703D01*
G01X-1953390Y-1183502D01*
G03X-1992856Y-1199850I0J-55814D01*
G01X-3478845Y-2685838D01*
G03X-3510576Y-2796502I14806J-64127D01*
G03X-3399912Y-2764771I46537J46537D01*
G01X-2789385Y-2154244D01*
G03X-2689654Y-2198871I64856J11187D01*
G01X-2658164Y-2198871D01*
G03X-2618697Y-2182523I0J55814D01*
G01X-1966380Y-1530206D01*
G03X-1958139Y-1580195I64055J-15114D01*
G01X-1958139Y-2734461D01*
G03X-1902325Y-2835150I55814J-34875D01*
G03X-1846511Y-2734461I0J65814D01*
G01X-1846511Y-1580195D01*
G03X-1848837Y-1506972I-55814J34875D01*
G03X-1917439Y-1481265I-53487J-38348D01*
G01X-1572154Y-1135981D01*
G03X-1555807Y-1096514I-39466J39466D01*
G01X-1555807Y1721104D01*
G01X-1112309Y2164602D01*
G03X-1080577Y2275266I-14806J64127D01*
G03X-1191241Y2243535I-46537J-46537D01*
G01X-1651087Y1783689D01*
G03X-1667435Y1744223I39466J-39466D01*
G01X-1667435Y-1073395D01*
G01X-1826653Y-1232613D01*
G01X-2033528Y-3940888D02*
G03X-1926311Y-3833671I53609J53609D01*
G01X-2199909Y-3560072D01*
G01X-2199909Y-2112457D01*
G03X-2351537Y-2112457I-75814J0D01*
G01X-2351537Y-3591476D01*
G03X-2329332Y-3645084I75814J0D01*
G01X-2033528Y-3940888D01*
G01X-1814289Y-1745557D02*
G03X-1830637Y-1785023I39466J-39466D01*
G01X-1830637Y-1857249D01*
G03X-1774823Y-1957938I55814J-34875D01*
G03X-1719009Y-1857249I0J65814D01*
G01X-1719009Y-1808142D01*
G01X-1020507Y-1109640D01*
G03X-988776Y-998976I-14806J64127D01*
G03X-1099440Y-1030708I-46537J-46537D01*
G01X-1814289Y-1745557D01*
G01X-963626Y-1002332D02*
G01X-963626Y-1728922D01*
G03X-947278Y-1768389I55814J0D01*
G01X-941338Y-1774329D01*
G03X-834698Y-1809763I64127J14806D01*
G03X-851998Y-1698730I-42513J50241D01*
G01X-851998Y-1284219D01*
G03X-751884Y-1243922I35987J55103D01*
G01X-396116Y-888154D01*
G01X502451Y-888154D01*
G01X530790Y-916493D01*
G03X570256Y-932840I39466J39466D01*
G02X574442Y-934603I0J-5853D01*
G01X574442Y-952026D01*
G03X610256Y-987840I35814J0D01*
G01X810256Y-987840D01*
G03X846070Y-952026I0J35814D01*
G01X846070Y-802026D01*
G03X810256Y-766212I-35814J0D01*
G01X610256Y-766212D01*
G03X574442Y-802026I0J-35814D01*
G01X574442Y-802305D01*
G01X565036Y-792874D01*
G03X525570Y-776526I-39466J-39466D01*
G01X-419235Y-776526D01*
G03X-458701Y-792874I0J-55814D01*
G01X-830817Y-1164989D01*
G03X-851998Y-1174012I14806J-64127D01*
G01X-851998Y-979213D01*
G03X-868345Y-939746I-55814J0D01*
G01X-1392605Y-415487D01*
G01X-1392605Y-220287D01*
G03X-1311542Y-229216I46187J46885D01*
G01X-1070189Y-229216D01*
G03X-969499Y-173402I34875J55814D01*
G03X-1070189Y-117588I-65814J0D01*
G01X-1311542Y-117588D01*
G03X-1326066Y-110814I-34875J-55814D01*
G01X-1205000Y-110814D01*
G03X-1169186Y-75000I0J35814D01*
G01X-1169186Y75000D01*
G03X-1205000Y110814I-35814J0D01*
G01X-1344253Y110814D01*
G01X-1313554Y141513D01*
G01X-1311818Y143107D01*
G01X-1310988Y143715D01*
G01X-1308295Y143997D01*
G01X-1303504Y143958D01*
G01X-1296177Y143565D01*
G01X-1295742Y143545D01*
G01X-1286934Y143180D01*
G01X-1284879Y143153D01*
G01X-1281853Y143202D01*
G03X-1201643Y332357I1853J110798D01*
G03X-1390798Y252147I-78357J-78357D01*
G01X-1390847Y249121D01*
G01X-1390820Y247066D01*
G01X-1390455Y238258D01*
G01X-1390435Y237823D01*
G01X-1390042Y230496D01*
G01X-1390003Y225705D01*
G01X-1390369Y222874D01*
G01X-1390893Y222182D01*
G01X-1392487Y220446D01*
G01X-1487885Y125048D01*
G03X-1504233Y85581I39466J-39466D01*
G01X-1504233Y-438606D01*
G03X-1487885Y-478072I55814J0D01*
G01X-963626Y-1002332D01*
G01X-1280000Y397186D02*
G03X-1280000Y618814I0J110814D01*
G03X-1280000Y397186I0J-110814D01*
G01X-1179158Y1732060D02*
G03X-1358357Y1856357I-100842J45940D01*
G03X-1234060Y1677158I78357J-78357D01*
G01X-1260737Y1650480D01*
G01X-1264423Y1647017D01*
G01X-1268103Y1643961D01*
G01X-1271991Y1641132D01*
G01X-1275872Y1638704D01*
G01X-1279503Y1636818D01*
G01X-1282605Y1635561D01*
G01X-1284867Y1634930D01*
G01X-1287710Y1634545D01*
G03X-1358357Y1445643I7710J-110545D01*
G03X-1169455Y1516290I78357J78357D01*
G01X-1169070Y1519133D01*
G01X-1168439Y1521395D01*
G01X-1167182Y1524497D01*
G01X-1165296Y1528128D01*
G01X-1162868Y1532009D01*
G01X-1160039Y1535897D01*
G01X-1156983Y1539577D01*
G01X-1153520Y1543263D01*
G01X-493292Y2203491D01*
G03X-471086Y2257100I-53609J53609D01*
G01X-471086Y3127002D01*
G02X-441702Y3227749I187401J0D01*
G03X-436086Y3247002I-30198J19254D01*
G01X-436086Y3447003D01*
G03X-471900Y3482817I-35814J0D01*
G01X-621900Y3482817D01*
G03X-657714Y3447003I0J-35814D01*
G01X-657714Y3247002D01*
G03X-652099Y3227749I35814J0D01*
G02X-622714Y3127002I-158017J-100747D01*
G01X-622714Y2288503D01*
G01X-1179158Y1732060D01*
G01X-1280000Y1159186D02*
G03X-1280000Y1380814I0J110814D01*
G03X-1280000Y1159186I0J-110814D01*
G01X1586346Y-1394041D02*
G01X1592491Y-1400648D01*
G01X1596610Y-1405871D01*
G01X1599475Y-1410280D01*
G01X1601469Y-1414117D01*
G01X1602938Y-1417753D01*
G01X1604028Y-1421293D01*
G01X1606382Y-1432131D01*
G01X1607947Y-1440054D01*
G01X1603752Y-1446503D01*
G01X1598439Y-1453825D01*
G01X1592786Y-1460739D01*
G01X1586360Y-1467632D01*
G01X1282609Y-1771383D01*
G03X1260403Y-1824992I53609J-53609D01*
G01X1260403Y-2682607D01*
G03X1282609Y-2736215I75814J0D01*
G01X1488359Y-2941966D01*
G01X1494785Y-2948858D01*
G01X1500438Y-2955772D01*
G01X1505751Y-2963094D01*
G01X1510700Y-2970703D01*
G01X1515266Y-2978471D01*
G01X1516451Y-2980686D01*
G01X1516451Y-3023654D01*
G03X1543778Y-3096522I110814J0D01*
G01X1544663Y-3099443D01*
G01X1546928Y-3108164D01*
G01X1548808Y-3117044D01*
G01X1550229Y-3125978D01*
G01X1551120Y-3134865D01*
G01X1551451Y-3144282D01*
G01X1551451Y-3516034D01*
G01X1551120Y-3525452D01*
G01X1550229Y-3534338D01*
G01X1548808Y-3543273D01*
G01X1546928Y-3552152D01*
G01X1544663Y-3560873D01*
G01X1543778Y-3563795D01*
G03X1516451Y-3636662I83487J-72868D01*
G01X1516451Y-3686663D01*
G03X1543778Y-3759530I110814J0D01*
G01X1544663Y-3762451D01*
G01X1546928Y-3771173D01*
G01X1548808Y-3780052D01*
G01X1550229Y-3788987D01*
G01X1551120Y-3797873D01*
G01X1551451Y-3807291D01*
G01X1551451Y-4179043D01*
G01X1551120Y-4188460D01*
G01X1550229Y-4197347D01*
G01X1548808Y-4206281D01*
G01X1546928Y-4215161D01*
G01X1544663Y-4223882D01*
G01X1543778Y-4226803D01*
G03X1516451Y-4299671I83487J-72868D01*
G01X1516451Y-4349671D01*
G03X1738079Y-4349671I110814J0D01*
G01X1738079Y-4299671D01*
G03X1710751Y-4226803I-110814J0D01*
G01X1709866Y-4223882D01*
G01X1707602Y-4215161D01*
G01X1705721Y-4206281D01*
G01X1704301Y-4197347D01*
G01X1703409Y-4188460D01*
G01X1703079Y-4179043D01*
G01X1703079Y-3807291D01*
G01X1703409Y-3797873D01*
G01X1704301Y-3788987D01*
G01X1705721Y-3780052D01*
G01X1707602Y-3771173D01*
G01X1709866Y-3762451D01*
G01X1710751Y-3759530D01*
G03X1738079Y-3686663I-83487J72868D01*
G01X1738079Y-3636662D01*
G03X1710751Y-3563795I-110814J0D01*
G01X1709866Y-3560873D01*
G01X1707602Y-3552152D01*
G01X1705721Y-3543273D01*
G01X1704301Y-3534338D01*
G01X1703409Y-3525452D01*
G01X1703079Y-3516034D01*
G01X1703079Y-3144282D01*
G01X1703409Y-3134865D01*
G01X1704301Y-3125978D01*
G01X1705721Y-3117044D01*
G01X1707602Y-3108164D01*
G01X1709866Y-3099443D01*
G01X1710751Y-3096522D01*
G03X1738079Y-3023654I-83487J72868D01*
G01X1738079Y-2973654D01*
G03X1634773Y-2863095I-110814J0D01*
G01X1632082Y-2861655D01*
G01X1624314Y-2857089D01*
G01X1616705Y-2852140D01*
G01X1609383Y-2846827D01*
G01X1602469Y-2841174D01*
G01X1595576Y-2834748D01*
G01X1412031Y-2651203D01*
G01X1412031Y-1856395D01*
G01X1624423Y-1644004D01*
G03X1614567Y-1695001I100843J-45940D01*
G01X1614563Y-1700268D01*
G01X1614047Y-1705520D01*
G01X1612963Y-1711383D01*
G01X1611357Y-1717318D01*
G01X1609352Y-1722831D01*
G01X1607163Y-1727439D01*
G01X1605155Y-1730668D01*
G01X1602754Y-1733523D01*
G01X1480163Y-1856113D01*
G03X1463816Y-1895580I39466J-39466D01*
G01X1463816Y-2360797D01*
G03X1519630Y-2461486I55814J-34875D01*
G03X1575444Y-2360797I0J65814D01*
G01X1575444Y-1918699D01*
G01X1681687Y-1812456D01*
G01X1684541Y-1810055D01*
G01X1687770Y-1808046D01*
G01X1692378Y-1805858D01*
G01X1697891Y-1803853D01*
G01X1703827Y-1802247D01*
G01X1709690Y-1801162D01*
G01X1714942Y-1800646D01*
G01X1720208Y-1800642D01*
G03X1725266Y-1800758I5058J110699D01*
G01X1775266Y-1800758D01*
G03X1775266Y-1579130I0J110814D01*
G01X1725266Y-1579130D01*
G03X1679326Y-1589101I0J-110814D01*
G01X1693578Y-1574849D01*
G01X1700470Y-1568423D01*
G01X1707384Y-1562770D01*
G01X1714706Y-1557457D01*
G01X1722315Y-1552508D01*
G01X1730083Y-1547943D01*
G01X1732299Y-1546758D01*
G01X1775266Y-1546758D01*
G03X1775266Y-1325130I0J110814D01*
G01X1758318Y-1325130D01*
G01X1756245Y-1324333D01*
G01X1744472Y-1320224D01*
G01X1744472Y-1320224D01*
G01X1743815Y-1320002D01*
G01X1743815Y-1320002D01*
G01X1732755Y-1316380D01*
G01X1728522Y-1314736D01*
G01X1724388Y-1312816D01*
G01X1720160Y-1310439D01*
G01X1715526Y-1307307D01*
G01X1710258Y-1303086D01*
G01X1703785Y-1297045D01*
G01X1151287Y-744547D01*
G01X1151287Y-423303D01*
G03X1129082Y-369695I-75814J0D01*
G01X950228Y-190840D01*
G01X1604638Y-190840D01*
G01X1614055Y-191171D01*
G01X1622942Y-192062D01*
G01X1631876Y-193483D01*
G01X1640756Y-195364D01*
G01X1649477Y-197628D01*
G01X1652398Y-198513D01*
G03X1725266Y-225840I72868J83487D01*
G01X1775266Y-225840D01*
G03X1775266Y-4212I0J110814D01*
G01X1725266Y-4212D01*
G03X1652398Y-31540I0J-110814D01*
G01X1649477Y-32425D01*
G01X1640756Y-34689D01*
G01X1631876Y-36570D01*
G01X1622942Y-37990D01*
G01X1614055Y-38882D01*
G01X1604638Y-39212D01*
G01X855884Y-39212D01*
G01X846467Y-38882D01*
G01X837581Y-37990D01*
G01X828646Y-36570D01*
G01X819766Y-34689D01*
G01X811045Y-32425D01*
G01X808124Y-31540D01*
G03X735256Y-4212I-72868J-83487D01*
G01X685256Y-4212D01*
G03X612388Y-31540I0J-110814D01*
G01X609467Y-32425D01*
G01X600746Y-34689D01*
G01X591866Y-36570D01*
G01X582932Y-37990D01*
G01X574045Y-38882D01*
G01X564628Y-39212D01*
G01X426933Y-39212D01*
G01X209535Y178186D01*
G01X753806Y178186D01*
G03X807415Y200391I0J75814D01*
G01X807415Y200391D01*
G01X1674000Y1066976D01*
G01X1680718Y1073230D01*
G01X1686005Y1077403D01*
G01X1690408Y1080260D01*
G01X1694164Y1082193D01*
G01X1697652Y1083564D01*
G01X1700930Y1084516D01*
G01X1711471Y1086494D01*
G01X1724075Y1088386D01*
G01X1725601Y1088649D01*
G01X1732578Y1090007D01*
G01X1734638Y1090471D01*
G01X1741965Y1092351D01*
G03X1744485Y1093098I-8902J34690D01*
G01X1750366Y1095077D01*
G01X1775266Y1095077D01*
G03X1775266Y1316705I0J110814D01*
G01X1732299Y1316705D01*
G01X1730083Y1317890D01*
G01X1722315Y1322455D01*
G01X1714706Y1327404D01*
G01X1707384Y1332718D01*
G01X1700470Y1338371D01*
G01X1693578Y1344796D01*
G01X1513843Y1524531D01*
G01X1513843Y2209341D01*
G01X1624423Y2319922D01*
G03X1725266Y2163168I100843J-45940D01*
G01X1775266Y2163168D01*
G03X1775266Y2384796I0J110814D01*
G01X1725266Y2384796D01*
G03X1679326Y2374825I0J-110814D01*
G01X1693578Y2389077D01*
G01X1700470Y2395502D01*
G01X1707384Y2401155D01*
G01X1714706Y2406469D01*
G01X1722315Y2411417D01*
G01X1730083Y2415983D01*
G01X1732299Y2417168D01*
G01X1775266Y2417168D01*
G03X1775266Y2638796I0J110814D01*
G01X1725266Y2638796D01*
G03X1614707Y2535491I0J-110814D01*
G01X1613267Y2532799D01*
G01X1608701Y2525031D01*
G01X1603752Y2517422D01*
G01X1598439Y2510100D01*
G01X1592786Y2503186D01*
G01X1586360Y2496294D01*
G01X1384420Y2294353D01*
G03X1362215Y2240745I53609J-53609D01*
G01X1362215Y1493128D01*
G03X1384420Y1439519I75814J0D01*
G01X1586360Y1237579D01*
G01X1592786Y1230686D01*
G01X1598439Y1223772D01*
G01X1603491Y1216811D01*
G01X1602088Y1214004D01*
G01X1599468Y1209670D01*
G01X1596111Y1204875D01*
G01X1591971Y1199771D01*
G01X1586379Y1193790D01*
G01X722403Y329814D01*
G01X103056Y329814D01*
G01X98001Y329971D01*
G01X93238Y330413D01*
G01X88488Y331161D01*
G01X84027Y332189D01*
G01X80126Y333423D01*
G01X77044Y334727D01*
G01X74998Y335881D01*
G01X72715Y337619D01*
G03X-72715Y337619I-72715J-83619D01*
G01X-74998Y335881D01*
G01X-77044Y334727D01*
G01X-80126Y333423D01*
G01X-84027Y332189D01*
G01X-88488Y331161D01*
G01X-93238Y330413D01*
G01X-98001Y329971D01*
G01X-103056Y329814D01*
G01X-486597Y329814D01*
G01X-1153520Y996737D01*
G01X-1156983Y1000423D01*
G01X-1160039Y1004103D01*
G01X-1162868Y1007991D01*
G01X-1165296Y1011872D01*
G01X-1167182Y1015503D01*
G01X-1168439Y1018605D01*
G01X-1169070Y1020867D01*
G01X-1169455Y1023710D01*
G03X-1358357Y1094357I-110545J-7710D01*
G03X-1287710Y905455I78357J-78357D01*
G01X-1284867Y905070D01*
G01X-1282605Y904439D01*
G01X-1279503Y903182D01*
G01X-1275872Y901296D01*
G01X-1271991Y898868D01*
G01X-1268103Y896039D01*
G01X-1264423Y892983D01*
G01X-1260737Y889520D01*
G01X-1234060Y862842D01*
G03X-1358357Y683643I-45940J-100842D01*
G03X-1179158Y807940I78357J78357D01*
G01X-571609Y200391D01*
G01X-571609Y200391D01*
G03X-518000Y178186I53609J53609D01*
G01X-103056Y178186D01*
G01X-98001Y178029D01*
G01X-93238Y177587D01*
G01X-88488Y176839D01*
G01X-84027Y175811D01*
G01X-80126Y174577D01*
G01X-77044Y173273D01*
G01X-74998Y172119D01*
G01X-72715Y170381D01*
G03X19713Y144954I72715J83619D01*
G01X21751Y145148D01*
G01X22334Y145091D01*
G01X23885Y144668D01*
G01X26374Y143597D01*
G01X29576Y141756D01*
G01X33222Y139178D01*
G01X37066Y135987D01*
G01X41240Y132046D01*
G01X341921Y-168635D01*
G01X341921Y-168635D01*
G03X395530Y-190840I53609J53609D01*
G01X564628Y-190840D01*
G01X574045Y-191171D01*
G01X582932Y-192062D01*
G01X591866Y-193483D01*
G01X600746Y-195364D01*
G01X609467Y-197628D01*
G01X612388Y-198513D01*
G03X685256Y-225840I72868J83487D01*
G01X716261Y-225840D01*
G01X722569Y-227609D01*
G01X723965Y-227970D01*
G01X740474Y-231889D01*
G01X740942Y-231997D01*
G01X756823Y-235542D01*
G01X771315Y-239319D01*
G01X777146Y-241209D01*
G01X782576Y-243319D01*
G01X787345Y-245574D01*
G01X791497Y-247986D01*
G01X795128Y-250597D01*
G01X799142Y-254189D01*
G01X999659Y-454706D01*
G01X999659Y-775951D01*
G03X1021864Y-829559I75814J0D01*
G01X1586346Y-1394041D01*
G01X-295889Y-4365876D02*
G03X-1236717Y-4365876I-470414J0D01*
G03X-295889Y-4365876I470414J0D01*
G01X-690086Y3322002D02*
G01X-690086Y3372003D01*
G03X-911714Y3372003I-110814J0D01*
G01X-911714Y3322002D01*
G03X-690086Y3322002I110814J0D01*
G01X-351079Y-425821D02*
G03X-250390Y-370007I34875J55814D01*
G03X-351079Y-314193I-65814J0D01*
G01X-607733Y-314193D01*
G03X-708422Y-370007I-34875J-55814D01*
G03X-607733Y-425821I65814J0D01*
G01X-351079Y-425821D01*
G01X-585897Y-2279684D02*
G03X-485522Y-2329084I65501J6414D01*
G01X-479596Y-2329084D01*
G03X-440130Y-2312737I0J55814D01*
G01X-240387Y-2112994D01*
G03X-208656Y-2002330I-14806J64127D01*
G03X-319320Y-2034061I-46537J-46537D01*
G01X-497010Y-2211752D01*
G03X-585897Y-2279684I-23386J-61519D01*
G01X74998Y934119D02*
G01X77044Y935273D01*
G01X80126Y936577D01*
G01X84027Y937811D01*
G01X88488Y938839D01*
G01X93238Y939587D01*
G01X98001Y940029D01*
G01X103056Y940186D01*
G01X143889Y940186D01*
G03X197497Y962391I0J75814D01*
G01X197497Y962391D01*
G01X381301Y1146195D01*
G01X558181Y1146195D01*
G01X567598Y1145865D01*
G01X576485Y1144973D01*
G01X585419Y1143553D01*
G01X594299Y1141672D01*
G01X603020Y1139408D01*
G01X605941Y1138523D01*
G03X678809Y1111195I72868J83487D01*
G01X728809Y1111195D01*
G03X728809Y1332823I0J110814D01*
G01X678809Y1332823D01*
G03X605941Y1305496I0J-110814D01*
G01X603020Y1304611D01*
G01X594299Y1302346D01*
G01X585419Y1300465D01*
G01X576485Y1299045D01*
G01X567598Y1298154D01*
G01X558181Y1297823D01*
G01X349898Y1297823D01*
G03X296289Y1275618I0J-75814D01*
G01X296289Y1275618D01*
G01X112486Y1091814D01*
G01X103056Y1091814D01*
G01X98001Y1091971D01*
G01X93238Y1092413D01*
G01X88488Y1093161D01*
G01X84027Y1094189D01*
G01X80126Y1095423D01*
G01X77044Y1096727D01*
G01X74998Y1097881D01*
G01X72715Y1099619D01*
G03X-110814Y1016000I-72715J-83619D01*
G03X72715Y932381I110814J0D01*
G01X74998Y934119D01*
G01X-83614Y435278D02*
G03X108442Y485193I83614J72722D01*
G01X550807Y485193D01*
G03X604416Y507399I0J75814D01*
G01X604416Y507399D01*
G01X666392Y569375D01*
G02X770231Y603195I103838J-142498D01*
G01X803809Y603195D01*
G03X839623Y639009I0J35814D01*
G01X839623Y789009D01*
G03X803809Y824823I-35814J0D01*
G01X603809Y824823D01*
G03X567995Y789009I0J-35814D01*
G01X567995Y755431D01*
G02X534175Y651592I-176318J0D01*
G01X519404Y636821D01*
G01X53007Y636821D01*
G03X5111Y619776I0J-75814D01*
G01X-7549Y618556D01*
G03X-83614Y435278I7549J-110556D01*
G01X210390Y837814D02*
G01X103056Y837814D01*
G01X98001Y837971D01*
G01X93238Y838413D01*
G01X88488Y839161D01*
G01X84027Y840189D01*
G01X80126Y841423D01*
G01X77044Y842727D01*
G01X74998Y843881D01*
G01X72715Y845619D01*
G03X-110814Y762000I-72715J-83619D01*
G03X72715Y678381I110814J0D01*
G01X74998Y680119D01*
G01X77044Y681273D01*
G01X80126Y682577D01*
G01X84027Y683811D01*
G01X88488Y684839D01*
G01X93238Y685587D01*
G01X98001Y686029D01*
G01X103056Y686186D01*
G01X241793Y686186D01*
G03X295402Y708391I0J75814D01*
G01X295402Y708391D01*
G01X479206Y892195D01*
G01X558181Y892195D01*
G01X567598Y891865D01*
G01X576485Y890973D01*
G01X585419Y889553D01*
G01X594299Y887672D01*
G01X603020Y885408D01*
G01X605941Y884523D01*
G03X678809Y857195I72868J83487D01*
G01X728809Y857195D01*
G03X728809Y1078823I0J110814D01*
G01X678809Y1078823D01*
G03X605941Y1051496I0J-110814D01*
G01X603020Y1050611D01*
G01X594299Y1048346D01*
G01X585419Y1046465D01*
G01X576485Y1045045D01*
G01X567598Y1044154D01*
G01X558181Y1043823D01*
G01X447803Y1043823D01*
G03X394194Y1021618I0J-75814D01*
G01X394194Y1021618D01*
G01X210390Y837814D01*
G01X126782Y1345814D02*
G01X103056Y1345814D01*
G01X98001Y1345971D01*
G01X93238Y1346413D01*
G01X88488Y1347161D01*
G01X84027Y1348189D01*
G01X80126Y1349423D01*
G01X77044Y1350727D01*
G01X74998Y1351881D01*
G01X72715Y1353619D01*
G03X-110814Y1270000I-72715J-83619D01*
G03X72715Y1186381I110814J0D01*
G01X74998Y1188119D01*
G01X77044Y1189273D01*
G01X80126Y1190577D01*
G01X84027Y1191811D01*
G01X88488Y1192839D01*
G01X93238Y1193587D01*
G01X98001Y1194029D01*
G01X103056Y1194186D01*
G01X158186Y1194186D01*
G03X211794Y1216391I0J75814D01*
G01X211794Y1216391D01*
G01X395598Y1400195D01*
G01X558181Y1400195D01*
G01X567598Y1399865D01*
G01X576485Y1398973D01*
G01X585419Y1397553D01*
G01X594299Y1395672D01*
G01X603020Y1393408D01*
G01X605941Y1392523D01*
G03X678809Y1365195I72868J83487D01*
G01X728809Y1365195D01*
G03X728809Y1586823I0J110814D01*
G01X678809Y1586823D01*
G03X605941Y1559496I0J-110814D01*
G01X603020Y1558611D01*
G01X594299Y1556346D01*
G01X585419Y1554465D01*
G01X576485Y1553045D01*
G01X567598Y1552154D01*
G01X558181Y1551823D01*
G01X364195Y1551823D01*
G03X310586Y1529618I0J-75814D01*
G01X310586Y1529618D01*
G01X126782Y1345814D01*
G01X0Y1667186D02*
G03X0Y1888814I0J110814D01*
G03X0Y1667186I0J-110814D01*
G01X1234111Y3001206D02*
G03X213283Y3001206I-510414J0D01*
G03X1234111Y3001206I510414J0D01*
G01X685256Y-733840D02*
G01X735256Y-733840D01*
G03X735256Y-512212I0J110814D01*
G01X685256Y-512212D01*
G03X685256Y-733840I0J-110814D01*
G01X685256Y-479840D02*
G01X735256Y-479840D01*
G03X735256Y-258212I0J110814D01*
G01X685256Y-258212D01*
G03X685256Y-479840I0J-110814D01*
G01X923606Y915838D02*
G03X891875Y805174I14806J-64127D01*
G03X1002539Y836905I46537J46537D01*
G01X1059791Y894157D01*
G01X1173650Y894157D01*
G03X1274340Y949971I34875J55814D01*
G03X1173650Y1005785I-65814J0D01*
G01X1036673Y1005785D01*
G03X997206Y989438I0J-55814D01*
G01X923606Y915838D01*
G01X1230079Y-4424671D02*
G01X1230079Y-4224671D01*
G03X1194265Y-4188857I-35814J0D01*
G01X1044265Y-4188857D01*
G03X1008451Y-4224671I0J-35814D01*
G01X1008451Y-4424671D01*
G03X1044265Y-4460485I35814J0D01*
G01X1194265Y-4460485D01*
G03X1230079Y-4424671I0J35814D01*
G01X1230079Y-3761663D02*
G01X1230079Y-3561662D01*
G03X1194265Y-3525848I-35814J0D01*
G01X1044265Y-3525848D01*
G03X1008451Y-3561662I0J-35814D01*
G01X1008451Y-3761663D01*
G03X1044265Y-3797477I35814J0D01*
G01X1194265Y-3797477D01*
G03X1230079Y-3761663I0J35814D01*
G01X1230079Y-3098654D02*
G01X1230079Y-2898654D01*
G03X1194265Y-2862840I-35814J0D01*
G01X1044265Y-2862840D01*
G03X1008451Y-2898654I0J-35814D01*
G01X1008451Y-3098654D01*
G03X1044265Y-3134468I35814J0D01*
G01X1194265Y-3134468D01*
G03X1230079Y-3098654I0J35814D01*
G01X1725266Y1909168D02*
G01X1775266Y1909168D01*
G03X1775266Y2130796I0J110814D01*
G01X1725266Y2130796D01*
G03X1725266Y1909168I0J-110814D01*
G01X1725266Y841077D02*
G01X1775266Y841077D01*
G03X1775266Y1062705I0J110814D01*
G01X1725266Y1062705D01*
G03X1725266Y841077I0J-110814D01*
G01X1725266Y587077D02*
G01X1775266Y587077D01*
G03X1775266Y808705I0J110814D01*
G01X1725266Y808705D01*
G03X1725266Y587077I0J-110814D01*
G01X1886080Y518891D02*
G03X1850266Y554705I-35814J0D01*
G01X1650266Y554705D01*
G03X1614452Y518891I0J-35814D01*
G01X1614452Y368891D01*
G03X1650266Y333077I35814J0D01*
G01X1850266Y333077D01*
G03X1886080Y368891I0J35814D01*
G01X1886080Y518891D01*
G01X1886080Y1840982D02*
G03X1850266Y1876796I-35814J0D01*
G01X1650266Y1876796D01*
G03X1614452Y1840982I0J-35814D01*
G01X1614452Y1690982D01*
G03X1650266Y1655168I35814J0D01*
G01X1850266Y1655168D01*
G03X1886080Y1690982I0J35814D01*
G01X1886080Y1840982D01*
G01X1886080Y-2122944D02*
G03X1850266Y-2087130I-35814J0D01*
G01X1650266Y-2087130D01*
G03X1614452Y-2122944I0J-35814D01*
G01X1614452Y-2272944D01*
G03X1650266Y-2308758I35814J0D01*
G01X1850266Y-2308758D01*
G03X1886080Y-2272944I0J35814D01*
G01X1886080Y-2122944D01*
G01X1725266Y-2054758D02*
G01X1775266Y-2054758D01*
G03X1775266Y-1833130I0J110814D01*
G01X1725266Y-1833130D01*
G03X1725266Y-2054758I0J-110814D01*
G01X1725266Y-733840D02*
G01X1775266Y-733840D01*
G03X1775266Y-512212I0J110814D01*
G01X1725266Y-512212D01*
G03X1725266Y-733840I0J-110814D01*
G01X1725266Y-479840D02*
G01X1775266Y-479840D01*
G03X1775266Y-258212I0J110814D01*
G01X1725266Y-258212D01*
G03X1725266Y-479840I0J-110814D01*
G01X1886080Y-802026D02*
G03X1850266Y-766212I-35814J0D01*
G01X1650266Y-766212D01*
G03X1614452Y-802026I0J-35814D01*
G01X1614452Y-952026D01*
G03X1650266Y-987840I35814J0D01*
G01X1850266Y-987840D01*
G03X1886080Y-952026I0J35814D01*
G01X1886080Y-802026D01*
G01X-5059552Y-1643014D02*
G01X-5059552Y-1044682D01*
G01X-4492078Y-1612156D01*
G03X-4483765Y-1632225I64127J14806D01*
G01X-4483765Y-2223131D01*
G03X-4494492Y-2208074I-50193J-24409D01*
G01X-5059552Y-1643014D01*
G04 Copper End*

G04 TearDrop Start*
G36*
G01X1514127Y-2917085D02*
G01X1570696Y-2860517D01*
G01X1578899Y-2868164D01*
G01X1587513Y-2875207D01*
G01X1596411Y-2881664D01*
G01X1605467Y-2887554D01*
G01X1614554Y-2892895D01*
G01X1623546Y-2897705D01*
G01X1640733Y-2905805D01*
G01X1656016Y-2912001D01*
G01X1668381Y-2916438D01*
G01X1676813Y-2919263D01*
G01X1680298Y-2920621D01*
G01X1574232Y-3026687D01*
G01X1572874Y-3023202D01*
G01X1570049Y-3014770D01*
G01X1565612Y-3002406D01*
G01X1559416Y-2987123D01*
G01X1551316Y-2969935D01*
G01X1546506Y-2960944D01*
G01X1541165Y-2951857D01*
G01X1535275Y-2942801D01*
G01X1528817Y-2933902D01*
G01X1521774Y-2925288D01*
G01X1514127Y-2917085D01*
G37*
G36*
G01X1667265Y-3143654D02*
G01X1587265Y-3143654D01*
G01X1586872Y-3132447D01*
G01X1585761Y-3121375D01*
G01X1584035Y-3110517D01*
G01X1581796Y-3099949D01*
G01X1579147Y-3089747D01*
G01X1576190Y-3079988D01*
G01X1569765Y-3062107D01*
G01X1563339Y-3046919D01*
G01X1557733Y-3035038D01*
G01X1553769Y-3027079D01*
G01X1552265Y-3023654D01*
G01X1702265Y-3023654D01*
G01X1700761Y-3027079D01*
G01X1696796Y-3035038D01*
G01X1691190Y-3046919D01*
G01X1684765Y-3062107D01*
G01X1678339Y-3079988D01*
G01X1675382Y-3089747D01*
G01X1672734Y-3099949D01*
G01X1670495Y-3110517D01*
G01X1668769Y-3121375D01*
G01X1667658Y-3132447D01*
G01X1667265Y-3143654D01*
G37*
G36*
G01X1667265Y-3806663D02*
G01X1587265Y-3806663D01*
G01X1586872Y-3795455D01*
G01X1585761Y-3784384D01*
G01X1584035Y-3773526D01*
G01X1581796Y-3762957D01*
G01X1579147Y-3752755D01*
G01X1576190Y-3742996D01*
G01X1569765Y-3725115D01*
G01X1563339Y-3709927D01*
G01X1557733Y-3698047D01*
G01X1553769Y-3690087D01*
G01X1552265Y-3686663D01*
G01X1702265Y-3686663D01*
G01X1700761Y-3690087D01*
G01X1696796Y-3698047D01*
G01X1691190Y-3709927D01*
G01X1684765Y-3725115D01*
G01X1678339Y-3742996D01*
G01X1675382Y-3752755D01*
G01X1672734Y-3762957D01*
G01X1670495Y-3773526D01*
G01X1668769Y-3784384D01*
G01X1667658Y-3795455D01*
G01X1667265Y-3806663D01*
G37*
G36*
G01X1587265Y-3516662D02*
G01X1667265Y-3516662D01*
G01X1667658Y-3527870D01*
G01X1668769Y-3538941D01*
G01X1670495Y-3549799D01*
G01X1672734Y-3560368D01*
G01X1675382Y-3570570D01*
G01X1678339Y-3580329D01*
G01X1684765Y-3598210D01*
G01X1691190Y-3613398D01*
G01X1696796Y-3625278D01*
G01X1700761Y-3633238D01*
G01X1702265Y-3636662D01*
G01X1552265Y-3636662D01*
G01X1553769Y-3633238D01*
G01X1557733Y-3625278D01*
G01X1563339Y-3613398D01*
G01X1569765Y-3598210D01*
G01X1576190Y-3580329D01*
G01X1579147Y-3570570D01*
G01X1581796Y-3560368D01*
G01X1584035Y-3549799D01*
G01X1585761Y-3538941D01*
G01X1586872Y-3527870D01*
G01X1587265Y-3516662D01*
G37*
G36*
G01X1587265Y-4179671D02*
G01X1667265Y-4179671D01*
G01X1667658Y-4190878D01*
G01X1668769Y-4201949D01*
G01X1670495Y-4212808D01*
G01X1672734Y-4223376D01*
G01X1675382Y-4233578D01*
G01X1678339Y-4243337D01*
G01X1684765Y-4261218D01*
G01X1691190Y-4276406D01*
G01X1696796Y-4288287D01*
G01X1700761Y-4296246D01*
G01X1702265Y-4299671D01*
G01X1552265Y-4299671D01*
G01X1553769Y-4296246D01*
G01X1557733Y-4288287D01*
G01X1563339Y-4276406D01*
G01X1569765Y-4261218D01*
G01X1576190Y-4243337D01*
G01X1579147Y-4233578D01*
G01X1581796Y-4223376D01*
G01X1584035Y-4212808D01*
G01X1585761Y-4201949D01*
G01X1586872Y-4190878D01*
G01X1587265Y-4179671D01*
G37*
G36*
G01X-7494479Y-2307460D02*
G01X-7494479Y-2427460D01*
G01X-7494479Y-2427460D01*
G03X-7606905Y-2442460I0J-428815D01*
G01X-7606905Y-2442460D01*
G01X-7606905Y-2292460D01*
G03X-7494479Y-2307460I112425J413815D01*
G37*
G36*
G01X1657453Y-1786040D02*
G01X1629169Y-1757756D01*
G01X1634212Y-1751760D01*
G01X1638644Y-1744635D01*
G01X1642430Y-1736665D01*
G01X1645532Y-1728135D01*
G01X1647914Y-1719331D01*
G01X1649541Y-1710536D01*
G01X1650376Y-1702037D01*
G01X1650382Y-1694117D01*
G01X1721093Y-1764827D01*
G01X1713173Y-1764834D01*
G01X1704673Y-1765668D01*
G01X1695879Y-1767295D01*
G01X1687074Y-1769678D01*
G01X1678545Y-1772780D01*
G01X1670575Y-1776565D01*
G01X1663449Y-1780997D01*
G01X1657453Y-1786040D01*
G37*
G36*
G01X1612129Y-1369175D02*
G01X1678897Y-1322806D01*
G01X1686810Y-1330192D01*
G01X1694267Y-1336166D01*
G01X1701326Y-1340937D01*
G01X1708045Y-1344713D01*
G01X1714480Y-1347703D01*
G01X1720692Y-1350115D01*
G01X1732670Y-1354037D01*
G01X1744444Y-1358147D01*
G01X1750398Y-1360792D01*
G01X1756473Y-1364109D01*
G01X1762729Y-1368305D01*
G01X1769223Y-1373590D01*
G01X1776011Y-1380171D01*
G01X1783153Y-1388256D01*
G01X1667379Y-1483631D01*
G01X1660593Y-1474756D01*
G01X1655247Y-1466474D01*
G01X1651127Y-1458706D01*
G01X1648019Y-1451374D01*
G01X1645711Y-1444402D01*
G01X1643989Y-1437710D01*
G01X1641452Y-1424860D01*
G01X1638703Y-1412204D01*
G01X1636716Y-1405753D01*
G01X1634036Y-1399118D01*
G01X1630451Y-1392220D01*
G01X1625747Y-1384982D01*
G01X1619710Y-1377326D01*
G01X1612129Y-1369175D01*
G37*
G36*
G01X1668697Y-1549081D02*
G01X1612129Y-1492512D01*
G01X1619776Y-1484309D01*
G01X1626819Y-1475695D01*
G01X1633276Y-1466797D01*
G01X1639166Y-1457741D01*
G01X1644507Y-1448654D01*
G01X1649317Y-1439663D01*
G01X1657417Y-1422475D01*
G01X1663613Y-1407192D01*
G01X1668050Y-1394827D01*
G01X1670875Y-1386396D01*
G01X1672233Y-1382911D01*
G01X1778299Y-1488976D01*
G01X1774814Y-1490335D01*
G01X1766382Y-1493159D01*
G01X1754018Y-1497596D01*
G01X1738735Y-1503792D01*
G01X1721547Y-1511893D01*
G01X1712556Y-1516702D01*
G01X1703469Y-1522043D01*
G01X1694413Y-1527933D01*
G01X1685514Y-1534391D01*
G01X1676900Y-1541434D01*
G01X1668697Y-1549081D01*
G37*
G36*
G01X1605266Y-155026D02*
G01X1605266Y-75026D01*
G01X1616473Y-74633D01*
G01X1627544Y-73522D01*
G01X1638403Y-71796D01*
G01X1648971Y-69558D01*
G01X1659173Y-66909D01*
G01X1668932Y-63952D01*
G01X1686813Y-57526D01*
G01X1702001Y-51101D01*
G01X1713882Y-45495D01*
G01X1721841Y-41530D01*
G01X1725266Y-40026D01*
G01X1725266Y-190026D01*
G01X1721841Y-188523D01*
G01X1713882Y-184558D01*
G01X1702001Y-178952D01*
G01X1686813Y-172526D01*
G01X1668932Y-166101D01*
G01X1659173Y-163144D01*
G01X1648971Y-160495D01*
G01X1638403Y-158256D01*
G01X1627544Y-156530D01*
G01X1616473Y-155420D01*
G01X1605266Y-155026D01*
G37*
G36*
G01X570256Y-897026D02*
G01X570256Y-857026D01*
G03X610256Y-827027I0J41667D01*
G01X610256Y-927026D01*
G03X570256Y-897026I-40000J-11667D01*
G37*
G36*
G01X565256Y-155026D02*
G01X565256Y-75026D01*
G01X576463Y-74633D01*
G01X587535Y-73522D01*
G01X598393Y-71796D01*
G01X608961Y-69558D01*
G01X619163Y-66909D01*
G01X628922Y-63952D01*
G01X646804Y-57526D01*
G01X661991Y-51101D01*
G01X673872Y-45495D01*
G01X681831Y-41530D01*
G01X685256Y-40026D01*
G01X685256Y-190026D01*
G01X681831Y-188523D01*
G01X673872Y-184558D01*
G01X661991Y-178952D01*
G01X646804Y-172526D01*
G01X628922Y-166101D01*
G01X619163Y-163144D01*
G01X608961Y-160495D01*
G01X598393Y-158256D01*
G01X587535Y-156530D01*
G01X576463Y-155420D01*
G01X565256Y-155026D01*
G37*
G36*
G01X848393Y-139655D02*
G01X823765Y-228164D01*
G01X817586Y-222634D01*
G01X810991Y-217893D01*
G01X804025Y-213845D01*
G01X796734Y-210398D01*
G01X789165Y-207457D01*
G01X781362Y-204927D01*
G01X765244Y-200726D01*
G01X748746Y-197043D01*
G01X732237Y-193124D01*
G01X724093Y-190841D01*
G01X716084Y-188217D01*
G01X708256Y-185157D01*
G01X700655Y-181568D01*
G01X769857Y-48485D01*
G01X775872Y-52040D01*
G01X781600Y-56238D01*
G01X787073Y-61003D01*
G01X792318Y-66259D01*
G01X802249Y-77936D01*
G01X811629Y-90653D01*
G01X829688Y-116756D01*
G01X838842Y-128913D01*
G01X843553Y-134499D01*
G01X848393Y-139655D01*
G37*
G36*
G01X855256Y-75026D02*
G01X855256Y-155026D01*
G01X844049Y-155420D01*
G01X832978Y-156530D01*
G01X822119Y-158256D01*
G01X811551Y-160495D01*
G01X801349Y-163144D01*
G01X791590Y-166101D01*
G01X773709Y-172526D01*
G01X758521Y-178952D01*
G01X746640Y-184558D01*
G01X738681Y-188523D01*
G01X735256Y-190026D01*
G01X735256Y-40026D01*
G01X738681Y-41530D01*
G01X746640Y-45495D01*
G01X758521Y-51101D01*
G01X773709Y-57526D01*
G01X791590Y-63952D01*
G01X801349Y-66909D01*
G01X811551Y-69558D01*
G01X822119Y-71796D01*
G01X832978Y-73522D01*
G01X844049Y-74633D01*
G01X855256Y-75026D01*
G37*
G36*
G01X1649129Y1092753D02*
G01X1612129Y1168891D01*
G01X1618992Y1176232D01*
G01X1624723Y1183298D01*
G01X1629496Y1190114D01*
G01X1633482Y1196708D01*
G01X1639787Y1209328D01*
G01X1645023Y1221364D01*
G01X1650571Y1233023D01*
G01X1653895Y1238775D01*
G01X1657816Y1244510D01*
G01X1662507Y1250254D01*
G01X1668141Y1256033D01*
G01X1674890Y1261872D01*
G01X1682928Y1267798D01*
G01X1767604Y1143984D01*
G01X1758010Y1137915D01*
G01X1749113Y1133208D01*
G01X1740826Y1129654D01*
G01X1733062Y1127041D01*
G01X1725736Y1125161D01*
G01X1718759Y1123803D01*
G01X1705507Y1121814D01*
G01X1692613Y1119394D01*
G01X1686083Y1117498D01*
G01X1679382Y1114864D01*
G01X1672423Y1111283D01*
G01X1665119Y1106544D01*
G01X1657383Y1100437D01*
G01X1649129Y1092753D01*
G37*
G36*
G01X1612129Y1262459D02*
G01X1668697Y1319028D01*
G01X1676900Y1311381D01*
G01X1685514Y1304338D01*
G01X1694413Y1297880D01*
G01X1703469Y1291990D01*
G01X1712556Y1286650D01*
G01X1721547Y1281840D01*
G01X1738735Y1273739D01*
G01X1754018Y1267544D01*
G01X1766382Y1263106D01*
G01X1774814Y1260282D01*
G01X1778299Y1258924D01*
G01X1672233Y1152858D01*
G01X1670875Y1156343D01*
G01X1668050Y1164774D01*
G01X1663613Y1177139D01*
G01X1657417Y1192422D01*
G01X1649317Y1209610D01*
G01X1644507Y1218601D01*
G01X1639166Y1227688D01*
G01X1633276Y1236744D01*
G01X1626819Y1245643D01*
G01X1619776Y1254257D01*
G01X1612129Y1262459D01*
G37*
G36*
G01X-3177165Y2650823D02*
G01X-3334268Y2595794D01*
G01X-3344916Y2606971D01*
G01X-3356853Y2620206D01*
G01X-3383196Y2649708D01*
G01X-3396901Y2664404D01*
G01X-3410495Y2678017D01*
G01X-3423628Y2689761D01*
G01X-3429912Y2694686D01*
G01X-3435950Y2698850D01*
G01X-3224958Y2751523D01*
G01X-3228631Y2743974D01*
G01X-3230971Y2736746D01*
G01X-3232074Y2729807D01*
G01X-3232033Y2723123D01*
G01X-3230945Y2716661D01*
G01X-3228906Y2710388D01*
G01X-3226010Y2704272D01*
G01X-3222354Y2698280D01*
G01X-3218032Y2692377D01*
G01X-3213140Y2686532D01*
G01X-3202028Y2674883D01*
G01X-3177165Y2650823D01*
G37*
G36*
G01X-5960679Y-4621664D02*
G01X-5900826Y-4511811D01*
G03X-5740974Y-4606517I264955J264955D01*
G01X-5890974Y-4806517D01*
G03X-5960679Y-4621664I-279960J0D01*
G37*
G36*
G01X-4550351Y3197203D02*
G01X-4590351Y3197203D01*
G03X-4620351Y3257203I-75000J0D01*
G01X-4520351Y3257203D01*
G03X-4550351Y3197203I45000J-60000D01*
G37*
G36*
G01X1668697Y2414845D02*
G01X1612129Y2471413D01*
G01X1619776Y2479616D01*
G01X1626819Y2488230D01*
G01X1633276Y2497129D01*
G01X1639166Y2506185D01*
G01X1644507Y2515272D01*
G01X1649317Y2524263D01*
G01X1657417Y2541450D01*
G01X1663613Y2556734D01*
G01X1668050Y2569098D01*
G01X1670875Y2577530D01*
G01X1672233Y2581015D01*
G01X1778299Y2474949D01*
G01X1774814Y2473591D01*
G01X1766382Y2470766D01*
G01X1754018Y2466329D01*
G01X1738735Y2460133D01*
G01X1721547Y2452033D01*
G01X1712556Y2447223D01*
G01X1703469Y2441882D01*
G01X1694413Y2435992D01*
G01X1685514Y2429535D01*
G01X1676900Y2422492D01*
G01X1668697Y2414845D01*
G37*
G36*
G01X-506900Y3127002D02*
G01X-586900Y3127002D01*
G03X-621900Y3247002I-223215J0D01*
G01X-621900Y3247002D01*
G01X-471900Y3247002D01*
G03X-506900Y3127002I188215J-120000D01*
G37*
G36*
G01X-1338336Y167380D02*
G01X-1366620Y195664D01*
G01X-1363367Y199208D01*
G01X-1360711Y202714D01*
G01X-1358595Y206199D01*
G01X-1356965Y209683D01*
G01X-1355763Y213184D01*
G01X-1354935Y216721D01*
G01X-1354174Y223977D01*
G01X-1354235Y231601D01*
G01X-1354672Y239742D01*
G01X-1355037Y248549D01*
G01X-1354884Y258173D01*
G01X-1275827Y179116D01*
G01X-1285451Y178963D01*
G01X-1294258Y179328D01*
G01X-1302399Y179765D01*
G01X-1310023Y179826D01*
G01X-1317279Y179065D01*
G01X-1320816Y178237D01*
G01X-1324317Y177035D01*
G01X-1327801Y175404D01*
G01X-1331286Y173289D01*
G01X-1334792Y170633D01*
G01X-1338336Y167380D01*
G37*
G36*
G01X-1179237Y971806D02*
G01X-1235806Y915237D01*
G01X-1240698Y919834D01*
G01X-1246105Y924324D01*
G01X-1251934Y928566D01*
G01X-1258093Y932418D01*
G01X-1264489Y935740D01*
G01X-1271029Y938392D01*
G01X-1277622Y940231D01*
G01X-1284173Y941116D01*
G01X-1205116Y1020173D01*
G01X-1204230Y1013622D01*
G01X-1202392Y1007029D01*
G01X-1199740Y1000489D01*
G01X-1196418Y994093D01*
G01X-1192566Y987934D01*
G01X-1188324Y982105D01*
G01X-1183834Y976698D01*
G01X-1179237Y971806D01*
G37*
G36*
G01X-1235806Y1624763D02*
G01X-1179237Y1568194D01*
G01X-1183834Y1563302D01*
G01X-1188324Y1557895D01*
G01X-1192566Y1552066D01*
G01X-1196418Y1545907D01*
G01X-1199740Y1539511D01*
G01X-1202392Y1532971D01*
G01X-1204230Y1526378D01*
G01X-1205116Y1519827D01*
G01X-1284173Y1598884D01*
G01X-1277622Y1599769D01*
G01X-1271029Y1601608D01*
G01X-1264489Y1604260D01*
G01X-1258093Y1607582D01*
G01X-1251934Y1611434D01*
G01X-1246105Y1615676D01*
G01X-1240698Y1620166D01*
G01X-1235806Y1624763D01*
G37*
G36*
G01X103016Y234057D02*
G01X66202Y157733D01*
G01X60821Y162814D01*
G01X55030Y167620D01*
G01X48882Y171968D01*
G01X42432Y175676D01*
G01X35732Y178560D01*
G01X28836Y180439D01*
G01X21798Y181130D01*
G01X14671Y180449D01*
G01X71465Y276753D01*
G01X73903Y270362D01*
G01X76927Y264445D01*
G01X80458Y258916D01*
G01X84420Y253688D01*
G01X93324Y243789D01*
G01X103016Y234057D01*
G37*
G36*
G01X102500Y294000D02*
G01X102500Y214000D01*
G01X95790Y213791D01*
G01X88792Y213143D01*
G01X81671Y212020D01*
G01X74592Y210389D01*
G01X67720Y208216D01*
G01X61221Y205466D01*
G01X55259Y202105D01*
G01X50000Y198098D01*
G01X50000Y309902D01*
G01X55259Y305895D01*
G01X61221Y302534D01*
G01X67720Y299784D01*
G01X74592Y297611D01*
G01X81671Y295980D01*
G01X88792Y294857D01*
G01X95790Y294209D01*
G01X102500Y294000D01*
G37*
G36*
G01X-102500Y214000D02*
G01X-102500Y294000D01*
G01X-95790Y294209D01*
G01X-88792Y294857D01*
G01X-81671Y295980D01*
G01X-74592Y297611D01*
G01X-67720Y299784D01*
G01X-61221Y302534D01*
G01X-55259Y305895D01*
G01X-50000Y309902D01*
G01X-50000Y198098D01*
G01X-55259Y202105D01*
G01X-61221Y205466D01*
G01X-67720Y208216D01*
G01X-74592Y210389D01*
G01X-81671Y212020D01*
G01X-88792Y213143D01*
G01X-95790Y213791D01*
G01X-102500Y214000D01*
G37*
G36*
G01X105507Y601007D02*
G01X127427Y521007D01*
G01X117785Y521367D01*
G01X108462Y522096D01*
G01X99739Y522666D01*
G01X91896Y522550D01*
G01X88392Y522071D01*
G01X85213Y521222D01*
G01X82394Y519939D01*
G01X79971Y518155D01*
G01X77977Y515805D01*
G01X76449Y512822D01*
G01X75420Y509140D01*
G01X74927Y504695D01*
G01X-4661Y582855D01*
G01X13781Y584631D01*
G01X28209Y587155D01*
G01X39963Y590123D01*
G01X50383Y593232D01*
G01X60808Y596178D01*
G01X72577Y598659D01*
G01X87030Y600370D01*
G01X105507Y601007D01*
G37*
G36*
G01X102500Y802000D02*
G01X102500Y722000D01*
G01X95790Y721791D01*
G01X88792Y721143D01*
G01X81671Y720020D01*
G01X74592Y718389D01*
G01X67720Y716216D01*
G01X61221Y713466D01*
G01X55259Y710105D01*
G01X50000Y706098D01*
G01X50000Y817902D01*
G01X55259Y813895D01*
G01X61221Y810534D01*
G01X67720Y807784D01*
G01X74592Y805611D01*
G01X81671Y803980D01*
G01X88792Y802857D01*
G01X95790Y802209D01*
G01X102500Y802000D01*
G37*
G36*
G01X102500Y1056000D02*
G01X102500Y976000D01*
G01X95790Y975791D01*
G01X88792Y975143D01*
G01X81671Y974020D01*
G01X74592Y972389D01*
G01X67720Y970216D01*
G01X61221Y967466D01*
G01X55259Y964105D01*
G01X50000Y960098D01*
G01X50000Y1071902D01*
G01X55259Y1067895D01*
G01X61221Y1064534D01*
G01X67720Y1061784D01*
G01X74592Y1059611D01*
G01X81671Y1057980D01*
G01X88792Y1056857D01*
G01X95790Y1056209D01*
G01X102500Y1056000D01*
G37*
G36*
G01X102500Y1310000D02*
G01X102500Y1230000D01*
G01X95790Y1229791D01*
G01X88792Y1229143D01*
G01X81671Y1228020D01*
G01X74592Y1226389D01*
G01X67720Y1224216D01*
G01X61221Y1221466D01*
G01X55259Y1218105D01*
G01X50000Y1214098D01*
G01X50000Y1325902D01*
G01X55259Y1321895D01*
G01X61221Y1318534D01*
G01X67720Y1315784D01*
G01X74592Y1313611D01*
G01X81671Y1311980D01*
G01X88792Y1310857D01*
G01X95790Y1310209D01*
G01X102500Y1310000D01*
G37*
G36*
G01X642951Y596583D02*
G01X561383Y628151D01*
G03X603809Y755431I-169706J127279D01*
G01X770231Y639009D01*
G03X642951Y596583I0J-212132D01*
G37*
G36*
G01X558809Y928009D02*
G01X558809Y1008009D01*
G01X570016Y1008402D01*
G01X581088Y1009513D01*
G01X591946Y1011239D01*
G01X602514Y1013478D01*
G01X612716Y1016127D01*
G01X622475Y1019083D01*
G01X640356Y1025509D01*
G01X655544Y1031935D01*
G01X667425Y1037540D01*
G01X675384Y1041505D01*
G01X678809Y1043009D01*
G01X678809Y893009D01*
G01X675384Y894513D01*
G01X667425Y898478D01*
G01X655544Y904083D01*
G01X640356Y910509D01*
G01X622475Y916935D01*
G01X612716Y919892D01*
G01X602514Y922540D01*
G01X591946Y924779D01*
G01X581088Y926505D01*
G01X570016Y927616D01*
G01X558809Y928009D01*
G37*
G36*
G01X558809Y1182009D02*
G01X558809Y1262009D01*
G01X570016Y1262402D01*
G01X581088Y1263513D01*
G01X591946Y1265239D01*
G01X602514Y1267478D01*
G01X612716Y1270127D01*
G01X622475Y1273083D01*
G01X640356Y1279509D01*
G01X655544Y1285935D01*
G01X667425Y1291540D01*
G01X675384Y1295505D01*
G01X678809Y1297009D01*
G01X678809Y1147009D01*
G01X675384Y1148513D01*
G01X667425Y1152478D01*
G01X655544Y1158083D01*
G01X640356Y1164509D01*
G01X622475Y1170935D01*
G01X612716Y1173892D01*
G01X602514Y1176540D01*
G01X591946Y1178779D01*
G01X581088Y1180505D01*
G01X570016Y1181616D01*
G01X558809Y1182009D01*
G37*
G36*
G01X558809Y1436009D02*
G01X558809Y1516009D01*
G01X570016Y1516402D01*
G01X581088Y1517513D01*
G01X591946Y1519239D01*
G01X602514Y1521478D01*
G01X612716Y1524127D01*
G01X622475Y1527083D01*
G01X640356Y1533509D01*
G01X655544Y1539935D01*
G01X667425Y1545540D01*
G01X675384Y1549505D01*
G01X678809Y1551009D01*
G01X678809Y1401009D01*
G01X675384Y1402513D01*
G01X667425Y1406478D01*
G01X655544Y1412083D01*
G01X640356Y1418509D01*
G01X622475Y1424935D01*
G01X612716Y1427892D01*
G01X602514Y1430540D01*
G01X591946Y1432779D01*
G01X581088Y1434505D01*
G01X570016Y1435616D01*
G01X558809Y1436009D01*
G37*
G36*
G01X-3449190Y-2706831D02*
G01X-3420905Y-2735116D01*
G01X-3425631Y-2739146D01*
G01X-3429738Y-2742372D01*
G01X-3431402Y-2744091D01*
G01X-3432723Y-2746099D01*
G01X-3433639Y-2748559D01*
G01X-3434085Y-2751634D01*
G01X-3465708Y-2720011D01*
G01X-3462633Y-2719565D01*
G01X-3460173Y-2718649D01*
G01X-3458165Y-2717328D01*
G01X-3456446Y-2715664D01*
G01X-3453220Y-2711557D01*
G01X-3449190Y-2706831D01*
G37*
G36*
G01X-2683529Y-2123057D02*
G01X-2683529Y-2163057D01*
G01X-2689721Y-2162565D01*
G01X-2694906Y-2161942D01*
G01X-2697298Y-2161981D01*
G01X-2699652Y-2162467D01*
G01X-2702039Y-2163559D01*
G01X-2704529Y-2165418D01*
G01X-2704529Y-2120696D01*
G01X-2702039Y-2122555D01*
G01X-2699652Y-2123647D01*
G01X-2697298Y-2124133D01*
G01X-2694906Y-2124172D01*
G01X-2689721Y-2123549D01*
G01X-2683529Y-2123057D01*
G37*
G36*
G01X-3680574Y-4034924D02*
G01X-3652290Y-4006640D01*
G01X-3648260Y-4011366D01*
G01X-3645034Y-4015473D01*
G01X-3643315Y-4017137D01*
G01X-3641307Y-4018458D01*
G01X-3638847Y-4019373D01*
G01X-3635772Y-4019820D01*
G01X-3667395Y-4051443D01*
G01X-3667841Y-4048368D01*
G01X-3668757Y-4045908D01*
G01X-3670078Y-4043900D01*
G01X-3671742Y-4042180D01*
G01X-3675848Y-4038955D01*
G01X-3680574Y-4034924D01*
G37*
G36*
G01X-4407951Y-1638350D02*
G01X-4447951Y-1638350D01*
G01X-4447459Y-1632158D01*
G01X-4446836Y-1626973D01*
G01X-4446875Y-1624581D01*
G01X-4447361Y-1622227D01*
G01X-4448453Y-1619840D01*
G01X-4450312Y-1617350D01*
G01X-4405591Y-1617350D01*
G01X-4407449Y-1619840D01*
G01X-4408541Y-1622227D01*
G01X-4409027Y-1624581D01*
G01X-4409066Y-1626973D01*
G01X-4408443Y-1632158D01*
G01X-4407951Y-1638350D01*
G37*
G36*
G01X-4471085Y-1582501D02*
G01X-4442800Y-1554216D01*
G01X-4438770Y-1558943D01*
G01X-4435544Y-1563049D01*
G01X-4433825Y-1564713D01*
G01X-4431817Y-1566034D01*
G01X-4429357Y-1566950D01*
G01X-4426282Y-1567396D01*
G01X-4457905Y-1599019D01*
G01X-4458351Y-1595944D01*
G01X-4459267Y-1593484D01*
G01X-4460588Y-1591476D01*
G01X-4462252Y-1589757D01*
G01X-4466359Y-1586531D01*
G01X-4471085Y-1582501D01*
G37*
G36*
G01X-4083549Y-1311946D02*
G01X-4123549Y-1311946D01*
G01X-4123057Y-1305754D01*
G01X-4122434Y-1300569D01*
G01X-4122473Y-1298177D01*
G01X-4122958Y-1295823D01*
G01X-4124051Y-1293436D01*
G01X-4125909Y-1290946D01*
G01X-4081188Y-1290946D01*
G01X-4083047Y-1293436D01*
G01X-4084139Y-1295823D01*
G01X-4084624Y-1298177D01*
G01X-4084663Y-1300569D01*
G01X-4084040Y-1305754D01*
G01X-4083549Y-1311946D01*
G37*
G36*
G01X-4123549Y-2443761D02*
G01X-4083549Y-2443761D01*
G01X-4084040Y-2449953D01*
G01X-4084663Y-2455138D01*
G01X-4084624Y-2457530D01*
G01X-4084139Y-2459884D01*
G01X-4083047Y-2462271D01*
G01X-4081188Y-2464761D01*
G01X-4125909Y-2464761D01*
G01X-4124051Y-2462271D01*
G01X-4122958Y-2459884D01*
G01X-4122473Y-2457530D01*
G01X-4122434Y-2455138D01*
G01X-4123057Y-2449953D01*
G01X-4123549Y-2443761D01*
G37*
G36*
G01X-4692754Y-939242D02*
G01X-4652754Y-939242D01*
G01X-4653246Y-945434D01*
G01X-4653869Y-950619D01*
G01X-4653830Y-953011D01*
G01X-4653345Y-955365D01*
G01X-4652252Y-957752D01*
G01X-4650394Y-960242D01*
G01X-4695115Y-960242D01*
G01X-4693256Y-957752D01*
G01X-4692164Y-955365D01*
G01X-4691679Y-953011D01*
G01X-4691640Y-950619D01*
G01X-4692263Y-945434D01*
G01X-4692754Y-939242D01*
G37*
G36*
G01X-4652754Y-730538D02*
G01X-4692754Y-730538D01*
G01X-4692263Y-724346D01*
G01X-4691640Y-719161D01*
G01X-4691679Y-716769D01*
G01X-4692164Y-714415D01*
G01X-4693256Y-712028D01*
G01X-4695115Y-709538D01*
G01X-4650394Y-709538D01*
G01X-4652252Y-712028D01*
G01X-4653345Y-714415D01*
G01X-4653830Y-716769D01*
G01X-4653869Y-719161D01*
G01X-4653246Y-724346D01*
G01X-4652754Y-730538D01*
G37*
G36*
G01X-5712768Y-1235046D02*
G01X-5672768Y-1235046D01*
G01X-5673259Y-1241238D01*
G01X-5673882Y-1246422D01*
G01X-5673843Y-1248815D01*
G01X-5673358Y-1251169D01*
G01X-5672266Y-1253555D01*
G01X-5670407Y-1256046D01*
G01X-5715128Y-1256046D01*
G01X-5713270Y-1253555D01*
G01X-5712177Y-1251169D01*
G01X-5711692Y-1248815D01*
G01X-5711653Y-1246422D01*
G01X-5712276Y-1241238D01*
G01X-5712768Y-1235046D01*
G37*
G36*
G01X-5626016Y-737772D02*
G01X-5654300Y-709487D01*
G01X-5649574Y-705457D01*
G01X-5645467Y-702231D01*
G01X-5643803Y-700512D01*
G01X-5642482Y-698504D01*
G01X-5641567Y-696044D01*
G01X-5641120Y-692969D01*
G01X-5609497Y-724592D01*
G01X-5612573Y-725038D01*
G01X-5615032Y-725954D01*
G01X-5617040Y-727275D01*
G01X-5618760Y-728939D01*
G01X-5621985Y-733045D01*
G01X-5626016Y-737772D01*
G37*
G36*
G01X-5263911Y-1115176D02*
G01X-5292195Y-1086892D01*
G01X-5287469Y-1082862D01*
G01X-5283363Y-1079636D01*
G01X-5281698Y-1077917D01*
G01X-5280377Y-1075909D01*
G01X-5279462Y-1073449D01*
G01X-5279015Y-1070374D01*
G01X-5247393Y-1101997D01*
G01X-5250468Y-1102443D01*
G01X-5252928Y-1103359D01*
G01X-5254936Y-1104680D01*
G01X-5256655Y-1106344D01*
G01X-5259880Y-1110450D01*
G01X-5263911Y-1115176D01*
G37*
G36*
G01X-5596317Y-1391014D02*
G01X-5568033Y-1419299D01*
G01X-5572759Y-1423329D01*
G01X-5576866Y-1426555D01*
G01X-5578530Y-1428274D01*
G01X-5579851Y-1430282D01*
G01X-5580766Y-1432742D01*
G01X-5581213Y-1435817D01*
G01X-5612836Y-1404194D01*
G01X-5609761Y-1403748D01*
G01X-5607301Y-1402832D01*
G01X-5605293Y-1401511D01*
G01X-5603574Y-1399847D01*
G01X-5600348Y-1395740D01*
G01X-5596317Y-1391014D01*
G37*
G36*
G01X-3420471Y-1169395D02*
G01X-3392187Y-1141111D01*
G01X-3388156Y-1145837D01*
G01X-3384931Y-1149944D01*
G01X-3383211Y-1151608D01*
G01X-3381204Y-1152929D01*
G01X-3378744Y-1153844D01*
G01X-3375668Y-1154291D01*
G01X-3407291Y-1185914D01*
G01X-3407738Y-1182839D01*
G01X-3408653Y-1180379D01*
G01X-3409974Y-1178371D01*
G01X-3411638Y-1176652D01*
G01X-3415745Y-1173426D01*
G01X-3420471Y-1169395D01*
G37*
G36*
G01X-4248537Y-284761D02*
G01X-4275616Y-314250D01*
G01X-4279671Y-309542D01*
G01X-4283007Y-305439D01*
G01X-4284786Y-303792D01*
G01X-4286842Y-302511D01*
G01X-4289326Y-301665D01*
G01X-4292393Y-301328D01*
G01X-4261998Y-268523D01*
G01X-4261439Y-271614D01*
G01X-4260453Y-274047D01*
G01X-4259092Y-276000D01*
G01X-4257410Y-277650D01*
G01X-4253296Y-280749D01*
G01X-4248537Y-284761D01*
G37*
G36*
G01X-4376751Y-4141077D02*
G01X-4376751Y-4181077D01*
G01X-4382943Y-4180585D01*
G01X-4388128Y-4179962D01*
G01X-4390520Y-4180001D01*
G01X-4392874Y-4180487D01*
G01X-4395261Y-4181579D01*
G01X-4397751Y-4183437D01*
G01X-4397751Y-4138716D01*
G01X-4395261Y-4140575D01*
G01X-4392874Y-4141667D01*
G01X-4390520Y-4142153D01*
G01X-4388128Y-4142192D01*
G01X-4382943Y-4141569D01*
G01X-4376751Y-4141077D01*
G37*
G36*
G01X-2846480Y-2798198D02*
G01X-2874764Y-2769914D01*
G01X-2870038Y-2765883D01*
G01X-2865931Y-2762658D01*
G01X-2864267Y-2760939D01*
G01X-2862946Y-2758931D01*
G01X-2862031Y-2756471D01*
G01X-2861584Y-2753396D01*
G01X-2829961Y-2785018D01*
G01X-2833037Y-2785465D01*
G01X-2835496Y-2786380D01*
G01X-2837504Y-2787701D01*
G01X-2839224Y-2789366D01*
G01X-2842449Y-2793472D01*
G01X-2846480Y-2798198D01*
G37*
G36*
G01X-5738469Y-399235D02*
G01X-5738469Y-439235D01*
G01X-5744661Y-438743D01*
G01X-5749845Y-438120D01*
G01X-5752238Y-438159D01*
G01X-5754592Y-438644D01*
G01X-5756978Y-439737D01*
G01X-5759469Y-441595D01*
G01X-5759469Y-396874D01*
G01X-5756978Y-398733D01*
G01X-5754592Y-399825D01*
G01X-5752238Y-400310D01*
G01X-5749845Y-400349D01*
G01X-5744661Y-399726D01*
G01X-5738469Y-399235D01*
G37*
G36*
G01X1499630Y-2354672D02*
G01X1539630Y-2354672D01*
G01X1539138Y-2360864D01*
G01X1538515Y-2366049D01*
G01X1538554Y-2368441D01*
G01X1539039Y-2370795D01*
G01X1540132Y-2373182D01*
G01X1541990Y-2375672D01*
G01X1497269Y-2375672D01*
G01X1499128Y-2373182D01*
G01X1500220Y-2370795D01*
G01X1500706Y-2368441D01*
G01X1500744Y-2366049D01*
G01X1500122Y-2360864D01*
G01X1499630Y-2354672D01*
G37*
G36*
G01X-270043Y-2092001D02*
G01X-298327Y-2063717D01*
G01X-293601Y-2059686D01*
G01X-289494Y-2056460D01*
G01X-287830Y-2054741D01*
G01X-286509Y-2052733D01*
G01X-285593Y-2050273D01*
G01X-285147Y-2047198D01*
G01X-253524Y-2078821D01*
G01X-256599Y-2079268D01*
G01X-259059Y-2080183D01*
G01X-261067Y-2081504D01*
G01X-262786Y-2083168D01*
G01X-266012Y-2087275D01*
G01X-270043Y-2092001D01*
G37*
G36*
G01X-479596Y-2253270D02*
G01X-479596Y-2293270D01*
G01X-485725Y-2292788D01*
G01X-490864Y-2292180D01*
G01X-493235Y-2292224D01*
G01X-495568Y-2292708D01*
G01X-497932Y-2293791D01*
G01X-500397Y-2295631D01*
G01X-500397Y-2250910D01*
G01X-497932Y-2252749D01*
G01X-495568Y-2253832D01*
G01X-493235Y-2254317D01*
G01X-490864Y-2254360D01*
G01X-485725Y-2253753D01*
G01X-479596Y-2253270D01*
G37*
G36*
G01X1167526Y929971D02*
G01X1167526Y969971D01*
G01X1173718Y969480D01*
G01X1178902Y968857D01*
G01X1181295Y968896D01*
G01X1183649Y969381D01*
G01X1186035Y970473D01*
G01X1188526Y972332D01*
G01X1188526Y927611D01*
G01X1186035Y929469D01*
G01X1183649Y930562D01*
G01X1181295Y931047D01*
G01X1178902Y931086D01*
G01X1173718Y930463D01*
G01X1167526Y929971D01*
G37*
G36*
G01X-4288755Y955500D02*
G01X-4248755Y955500D01*
G01X-4249247Y949308D01*
G01X-4249870Y944124D01*
G01X-4249831Y941731D01*
G01X-4249345Y939377D01*
G01X-4248253Y936991D01*
G01X-4246395Y934500D01*
G01X-4291116Y934500D01*
G01X-4289257Y936991D01*
G01X-4288165Y939377D01*
G01X-4287679Y941731D01*
G01X-4287640Y944124D01*
G01X-4288263Y949308D01*
G01X-4288755Y955500D01*
G37*
G36*
G01X-4248755Y1490608D02*
G01X-4288755Y1490608D01*
G01X-4288263Y1496800D01*
G01X-4287640Y1501985D01*
G01X-4287679Y1504377D01*
G01X-4288165Y1506731D01*
G01X-4289257Y1509118D01*
G01X-4291116Y1511608D01*
G01X-4246395Y1511608D01*
G01X-4248253Y1509118D01*
G01X-4249345Y1506731D01*
G01X-4249831Y1504377D01*
G01X-4249870Y1501985D01*
G01X-4249247Y1496800D01*
G01X-4248755Y1490608D01*
G37*
G36*
G01X-6079679Y429795D02*
G01X-6119679Y429795D01*
G01X-6119187Y435987D01*
G01X-6118564Y441171D01*
G01X-6118603Y443564D01*
G01X-6119089Y445918D01*
G01X-6120181Y448304D01*
G01X-6122040Y450795D01*
G01X-6077318Y450795D01*
G01X-6079177Y448304D01*
G01X-6080269Y445918D01*
G01X-6080755Y443564D01*
G01X-6080794Y441171D01*
G01X-6080171Y435987D01*
G01X-6079679Y429795D01*
G37*
G36*
G01X-5482171Y-3858962D02*
G01X-5442171Y-3858962D01*
G01X-5442663Y-3865154D01*
G01X-5443285Y-3870339D01*
G01X-5443247Y-3872731D01*
G01X-5442761Y-3875085D01*
G01X-5441669Y-3877472D01*
G01X-5439810Y-3879962D01*
G01X-5484531Y-3879962D01*
G01X-5482673Y-3877472D01*
G01X-5481581Y-3875085D01*
G01X-5481095Y-3872731D01*
G01X-5481056Y-3870339D01*
G01X-5481679Y-3865154D01*
G01X-5482171Y-3858962D01*
G37*
G36*
G01X-5500638Y-3741409D02*
G01X-5528923Y-3769693D01*
G01X-5532953Y-3764967D01*
G01X-5536179Y-3760860D01*
G01X-5537898Y-3759196D01*
G01X-5539906Y-3757875D01*
G01X-5542366Y-3756960D01*
G01X-5545441Y-3756513D01*
G01X-5513818Y-3724890D01*
G01X-5513372Y-3727966D01*
G01X-5512456Y-3730426D01*
G01X-5511135Y-3732433D01*
G01X-5509471Y-3734153D01*
G01X-5505364Y-3737378D01*
G01X-5500638Y-3741409D01*
G37*
G36*
G01X-5394261Y-3078144D02*
G01X-5377911Y-3037926D01*
G01X-5375548Y-3040682D01*
G01X-5373646Y-3043510D01*
G01X-5370472Y-3048606D01*
G01X-5368826Y-3050485D01*
G01X-5366890Y-3051659D01*
G01X-5364477Y-3051934D01*
G01X-5361401Y-3051115D01*
G01X-5377218Y-3091401D01*
G01X-5378603Y-3089170D01*
G01X-5380433Y-3087296D01*
G01X-5384963Y-3084232D01*
G01X-5389881Y-3081438D01*
G01X-5394261Y-3078144D01*
G37*
G36*
G01X-5480238Y-2935599D02*
G01X-5508522Y-2963883D01*
G01X-5512553Y-2959157D01*
G01X-5515779Y-2955050D01*
G01X-5517498Y-2953386D01*
G01X-5519506Y-2952065D01*
G01X-5521966Y-2951149D01*
G01X-5525041Y-2950703D01*
G01X-5493418Y-2919080D01*
G01X-5492971Y-2922155D01*
G01X-5492056Y-2924615D01*
G01X-5490735Y-2926623D01*
G01X-5489071Y-2928342D01*
G01X-5484964Y-2931568D01*
G01X-5480238Y-2935599D01*
G37*
G36*
G01X-5566505Y-2905900D02*
G01X-5538221Y-2877616D01*
G01X-5534190Y-2882342D01*
G01X-5530964Y-2886449D01*
G01X-5529245Y-2888113D01*
G01X-5527237Y-2889434D01*
G01X-5524777Y-2890349D01*
G01X-5521702Y-2890796D01*
G01X-5553325Y-2922419D01*
G01X-5553772Y-2919343D01*
G01X-5554687Y-2916883D01*
G01X-5556008Y-2914876D01*
G01X-5557672Y-2913156D01*
G01X-5561779Y-2909931D01*
G01X-5566505Y-2905900D01*
G37*
G36*
G01X-4890563Y-3129653D02*
G01X-4850563Y-3129653D01*
G01X-4851055Y-3135845D01*
G01X-4851678Y-3141029D01*
G01X-4851639Y-3143422D01*
G01X-4851153Y-3145776D01*
G01X-4850061Y-3148162D01*
G01X-4848202Y-3150653D01*
G01X-4892924Y-3150653D01*
G01X-4891065Y-3148162D01*
G01X-4889973Y-3145776D01*
G01X-4889487Y-3143422D01*
G01X-4889448Y-3141029D01*
G01X-4890071Y-3135845D01*
G01X-4890563Y-3129653D01*
G37*
G36*
G01X-4850563Y-2863258D02*
G01X-4890563Y-2855655D01*
G01X-4890355Y-2852171D01*
G01X-4889852Y-2849277D01*
G01X-4888696Y-2844572D01*
G01X-4888408Y-2842414D01*
G01X-4888557Y-2840158D01*
G01X-4889326Y-2837629D01*
G01X-4890898Y-2834655D01*
G01X-4846828Y-2842258D01*
G01X-4849018Y-2844399D01*
G01X-4850393Y-2846635D01*
G01X-4851116Y-2848987D01*
G01X-4851346Y-2851477D01*
G01X-4850973Y-2856960D01*
G01X-4850563Y-2863258D01*
G37*
G36*
G01X-6788588Y-2591783D02*
G01X-6828588Y-2575355D01*
G01X-6827884Y-2570123D01*
G01X-6826519Y-2564680D01*
G01X-6825615Y-2559324D01*
G01X-6825686Y-2556773D01*
G01X-6826294Y-2554355D01*
G01X-6786259Y-2570783D01*
G01X-6788982Y-2572435D01*
G01X-6790476Y-2574363D01*
G01X-6791010Y-2576569D01*
G01X-6790849Y-2579053D01*
G01X-6789509Y-2584857D01*
G01X-6788863Y-2588180D01*
G01X-6788588Y-2591783D01*
G37*
G36*
G01X-6828588Y-2833849D02*
G01X-6788588Y-2833849D01*
G01X-6789080Y-2840041D01*
G01X-6789703Y-2845225D01*
G01X-6789664Y-2847618D01*
G01X-6789178Y-2849972D01*
G01X-6788086Y-2852358D01*
G01X-6786227Y-2854849D01*
G01X-6830949Y-2854849D01*
G01X-6829090Y-2852358D01*
G01X-6827998Y-2849972D01*
G01X-6827512Y-2847618D01*
G01X-6827473Y-2845225D01*
G01X-6828096Y-2840041D01*
G01X-6828588Y-2833849D01*
G37*
G36*
G01X-5936877Y-2217140D02*
G01X-5976877Y-2217140D01*
G01X-5976385Y-2210948D01*
G01X-5975762Y-2205763D01*
G01X-5975801Y-2203371D01*
G01X-5976287Y-2201017D01*
G01X-5977379Y-2198630D01*
G01X-5979238Y-2196140D01*
G01X-5934516Y-2196140D01*
G01X-5936375Y-2198630D01*
G01X-5937467Y-2201017D01*
G01X-5937953Y-2203371D01*
G01X-5937992Y-2205763D01*
G01X-5937369Y-2210948D01*
G01X-5936877Y-2217140D01*
G37*
G36*
G01X-5648540Y-2226689D02*
G01X-5676824Y-2254974D01*
G01X-5680855Y-2250247D01*
G01X-5684081Y-2246141D01*
G01X-5685800Y-2244477D01*
G01X-5687808Y-2243156D01*
G01X-5690268Y-2242240D01*
G01X-5693343Y-2241794D01*
G01X-5661720Y-2210171D01*
G01X-5661273Y-2213246D01*
G01X-5660358Y-2215706D01*
G01X-5659037Y-2217714D01*
G01X-5657373Y-2219433D01*
G01X-5653266Y-2222659D01*
G01X-5648540Y-2226689D01*
G37*
G36*
G01X-5538271Y-2492144D02*
G01X-5498271Y-2492144D01*
G01X-5498763Y-2498336D01*
G01X-5499386Y-2503521D01*
G01X-5499347Y-2505913D01*
G01X-5498862Y-2508267D01*
G01X-5497769Y-2510654D01*
G01X-5495911Y-2513144D01*
G01X-5540632Y-2513144D01*
G01X-5538773Y-2510654D01*
G01X-5537681Y-2508267D01*
G01X-5537196Y-2505913D01*
G01X-5537157Y-2503521D01*
G01X-5537780Y-2498336D01*
G01X-5538271Y-2492144D01*
G37*
G36*
G01X-4131454Y246192D02*
G01X-4171454Y246192D01*
G01X-4170962Y252384D01*
G01X-4170339Y257569D01*
G01X-4170378Y259961D01*
G01X-4170864Y262315D01*
G01X-4171956Y264702D01*
G01X-4173814Y267192D01*
G01X-4129093Y267192D01*
G01X-4130952Y264702D01*
G01X-4132044Y262315D01*
G01X-4132530Y259961D01*
G01X-4132569Y257569D01*
G01X-4131946Y252384D01*
G01X-4131454Y246192D01*
G37*
G36*
G01X-1933124Y-1259316D02*
G01X-1933124Y-1219316D01*
G01X-1926932Y-1219808D01*
G01X-1921748Y-1220431D01*
G01X-1919355Y-1220392D01*
G01X-1917001Y-1219906D01*
G01X-1914615Y-1218814D01*
G01X-1912124Y-1216955D01*
G01X-1912124Y-1261677D01*
G01X-1914615Y-1259818D01*
G01X-1917001Y-1258726D01*
G01X-1919355Y-1258240D01*
G01X-1921748Y-1258201D01*
G01X-1926932Y-1258824D01*
G01X-1933124Y-1259316D01*
G37*
G36*
G01X-1922325Y-2728336D02*
G01X-1882325Y-2728336D01*
G01X-1882816Y-2734528D01*
G01X-1883439Y-2739713D01*
G01X-1883400Y-2742105D01*
G01X-1882915Y-2744459D01*
G01X-1881823Y-2746845D01*
G01X-1879964Y-2749336D01*
G01X-1924685Y-2749336D01*
G01X-1922827Y-2746845D01*
G01X-1921734Y-2744459D01*
G01X-1921249Y-2742105D01*
G01X-1921210Y-2739713D01*
G01X-1921833Y-2734528D01*
G01X-1922325Y-2728336D01*
G37*
G36*
G01X-1794823Y-1851125D02*
G01X-1754823Y-1851125D01*
G01X-1755315Y-1857317D01*
G01X-1755938Y-1862501D01*
G01X-1755899Y-1864894D01*
G01X-1755413Y-1867248D01*
G01X-1754321Y-1869634D01*
G01X-1752462Y-1872125D01*
G01X-1797184Y-1872125D01*
G01X-1795325Y-1869634D01*
G01X-1794233Y-1867248D01*
G01X-1793747Y-1864894D01*
G01X-1793708Y-1862501D01*
G01X-1794331Y-1857317D01*
G01X-1794823Y-1851125D01*
G37*
G36*
G01X-1050163Y-1088647D02*
G01X-1078447Y-1060363D01*
G01X-1073721Y-1056332D01*
G01X-1069614Y-1053106D01*
G01X-1067950Y-1051387D01*
G01X-1066629Y-1049379D01*
G01X-1065714Y-1046919D01*
G01X-1065267Y-1043844D01*
G01X-1033644Y-1075467D01*
G01X-1036719Y-1075914D01*
G01X-1039179Y-1076829D01*
G01X-1041187Y-1078150D01*
G01X-1042906Y-1079814D01*
G01X-1046132Y-1083921D01*
G01X-1050163Y-1088647D01*
G37*
G36*
G01X-1882325Y-1586320D02*
G01X-1922325Y-1586320D01*
G01X-1921833Y-1580128D01*
G01X-1921210Y-1574943D01*
G01X-1921249Y-1572551D01*
G01X-1921734Y-1570197D01*
G01X-1922827Y-1567810D01*
G01X-1924685Y-1565320D01*
G01X-1879964Y-1565320D01*
G01X-1881823Y-1567810D01*
G01X-1882915Y-1570197D01*
G01X-1883400Y-1572551D01*
G01X-1883439Y-1574943D01*
G01X-1882816Y-1580128D01*
G01X-1882325Y-1586320D01*
G37*
G36*
G01X-3738799Y-2211096D02*
G01X-3710515Y-2239380D01*
G01X-3715241Y-2243411D01*
G01X-3719348Y-2246636D01*
G01X-3721012Y-2248355D01*
G01X-3722333Y-2250363D01*
G01X-3723248Y-2252823D01*
G01X-3723695Y-2255898D01*
G01X-3755318Y-2224276D01*
G01X-3752243Y-2223829D01*
G01X-3749783Y-2222914D01*
G01X-3747775Y-2221593D01*
G01X-3746056Y-2219928D01*
G01X-3742830Y-2215822D01*
G01X-3738799Y-2211096D01*
G37*
G36*
G01X-2570834Y-1081413D02*
G01X-2610833Y-1081413D01*
G01X-2610342Y-1075221D01*
G01X-2609719Y-1070037D01*
G01X-2609758Y-1067644D01*
G01X-2610243Y-1065290D01*
G01X-2611336Y-1062904D01*
G01X-2613194Y-1060413D01*
G01X-2568473Y-1060413D01*
G01X-2570331Y-1062904D01*
G01X-2571424Y-1065290D01*
G01X-2571909Y-1067644D01*
G01X-2571948Y-1070037D01*
G01X-2571325Y-1075221D01*
G01X-2570834Y-1081413D01*
G37*
G36*
G01X-4553959Y-3248543D02*
G01X-4513959Y-3248543D01*
G01X-4514451Y-3254735D01*
G01X-4515073Y-3259919D01*
G01X-4515035Y-3262312D01*
G01X-4514549Y-3264666D01*
G01X-4513457Y-3267052D01*
G01X-4511598Y-3269543D01*
G01X-4556319Y-3269543D01*
G01X-4554461Y-3267052D01*
G01X-4553368Y-3264666D01*
G01X-4552883Y-3262312D01*
G01X-4552844Y-3259919D01*
G01X-4553467Y-3254735D01*
G01X-4553959Y-3248543D01*
G37*
G36*
G01X-920345Y-1744674D02*
G01X-892061Y-1716389D01*
G01X-888030Y-1721115D01*
G01X-884804Y-1725222D01*
G01X-883085Y-1726886D01*
G01X-881077Y-1728207D01*
G01X-878617Y-1729123D01*
G01X-875542Y-1729569D01*
G01X-907165Y-1761192D01*
G01X-907612Y-1758117D01*
G01X-908527Y-1755657D01*
G01X-909848Y-1753649D01*
G01X-911512Y-1751930D01*
G01X-915619Y-1748704D01*
G01X-920345Y-1744674D01*
G37*
G36*
G01X-601608Y-350007D02*
G01X-601608Y-390007D01*
G01X-607800Y-389515D01*
G01X-612985Y-388892D01*
G01X-615377Y-388931D01*
G01X-617731Y-389417D01*
G01X-620118Y-390509D01*
G01X-622608Y-392368D01*
G01X-622608Y-347646D01*
G01X-620118Y-349505D01*
G01X-617731Y-350597D01*
G01X-615377Y-351083D01*
G01X-612985Y-351122D01*
G01X-607800Y-350499D01*
G01X-601608Y-350007D01*
G37*
G36*
G01X-357204Y-390007D02*
G01X-357204Y-350007D01*
G01X-351012Y-350499D01*
G01X-345827Y-351122D01*
G01X-343435Y-351083D01*
G01X-341081Y-350597D01*
G01X-338694Y-349505D01*
G01X-336204Y-347646D01*
G01X-336204Y-392368D01*
G01X-338694Y-390509D01*
G01X-341081Y-389417D01*
G01X-343435Y-388931D01*
G01X-345827Y-388892D01*
G01X-351012Y-389515D01*
G01X-357204Y-390007D01*
G37*
G36*
G01X-801161Y-1185982D02*
G01X-772877Y-1214267D01*
G01X-777603Y-1218297D01*
G01X-781710Y-1221523D01*
G01X-783374Y-1223242D01*
G01X-784695Y-1225250D01*
G01X-785610Y-1227710D01*
G01X-786057Y-1230785D01*
G01X-817680Y-1199162D01*
G01X-814605Y-1198716D01*
G01X-812145Y-1197800D01*
G01X-810137Y-1196479D01*
G01X-808418Y-1194815D01*
G01X-805192Y-1190709D01*
G01X-801161Y-1185982D01*
G37*
G36*
G01X-1305418Y-153402D02*
G01X-1305418Y-193402D01*
G01X-1311609Y-192910D01*
G01X-1316794Y-192287D01*
G01X-1319187Y-192326D01*
G01X-1321540Y-192812D01*
G01X-1323927Y-193904D01*
G01X-1326417Y-195763D01*
G01X-1326417Y-151042D01*
G01X-1323927Y-152900D01*
G01X-1321540Y-153992D01*
G01X-1319187Y-154478D01*
G01X-1316794Y-154517D01*
G01X-1311609Y-153894D01*
G01X-1305418Y-153402D01*
G37*
G36*
G01X-1076313Y-193402D02*
G01X-1076313Y-153402D01*
G01X-1070121Y-153894D01*
G01X-1064937Y-154517D01*
G01X-1062544Y-154478D01*
G01X-1060190Y-153992D01*
G01X-1057804Y-152900D01*
G01X-1055313Y-151042D01*
G01X-1055313Y-195763D01*
G01X-1057804Y-193904D01*
G01X-1060190Y-192812D01*
G01X-1062544Y-192326D01*
G01X-1064937Y-192287D01*
G01X-1070121Y-192910D01*
G01X-1076313Y-193402D01*
G37*
G36*
G01X953261Y894844D02*
G01X981546Y866560D01*
G01X976819Y862530D01*
G01X972713Y859304D01*
G01X971049Y857585D01*
G01X969728Y855577D01*
G01X968812Y853117D01*
G01X968366Y850042D01*
G01X936743Y881664D01*
G01X939818Y882111D01*
G01X942278Y883026D01*
G01X944286Y884348D01*
G01X946005Y886012D01*
G01X949231Y890118D01*
G01X953261Y894844D01*
G37*
G36*
G01X-1141964Y2185595D02*
G01X-1170248Y2213880D01*
G01X-1165522Y2217910D01*
G01X-1161415Y2221136D01*
G01X-1159751Y2222855D01*
G01X-1158430Y2224863D01*
G01X-1157515Y2227323D01*
G01X-1157068Y2230398D01*
G01X-1125445Y2198775D01*
G01X-1128521Y2198329D01*
G01X-1130980Y2197413D01*
G01X-1132988Y2196092D01*
G01X-1134708Y2194428D01*
G01X-1137933Y2190322D01*
G01X-1141964Y2185595D01*
G37*
G36*
G01X-5207618Y2577866D02*
G01X-5179334Y2549582D01*
G01X-5184060Y2545551D01*
G01X-5188167Y2542326D01*
G01X-5189831Y2540607D01*
G01X-5191152Y2538599D01*
G01X-5192067Y2536139D01*
G01X-5192514Y2533064D01*
G01X-5224137Y2564686D01*
G01X-5221062Y2565133D01*
G01X-5218602Y2566048D01*
G01X-5216594Y2567369D01*
G01X-5214875Y2569034D01*
G01X-5211649Y2573140D01*
G01X-5207618Y2577866D01*
G37*
G04 TearDrop End*

G04 Pad Start*
G54D11*
G01X1627265Y-2998654D03*
G01X1373265Y-2998654D03*
G54D12*
G01X1119265Y-2998654D03*
G54D11*
G01X1627265Y-3661662D03*
G01X1373265Y-3661662D03*
G54D12*
G01X1119265Y-3661662D03*
G54D11*
G01X1627265Y-4324671D03*
G01X1373265Y-4324671D03*
G54D12*
G01X1119265Y-4324671D03*
G54D13*
G01X-7234202Y-1714836D03*
G01X-7234202Y-510851D03*
G54D14*
G01X-6963209Y-1237850D03*
G01X-6963209Y-987837D03*
G01X-6763210Y-987837D03*
G01X-6763210Y-1237850D03*
G54D15*
G01X-7706905Y-2367460D03*
G54D16*
G01X-7706905Y-2621460D03*
G01X-7706905Y-2875460D03*
G01X-7706905Y-3129460D03*
G54D17*
G01X1750266Y-2197944D03*
G54D16*
G01X1750266Y-1943944D03*
G01X1750266Y-1689944D03*
G01X1750266Y-1435944D03*
G54D17*
G01X1750266Y-877026D03*
G54D16*
G01X1750266Y-623026D03*
G01X1750266Y-369026D03*
G01X1750266Y-115026D03*
G54D17*
G01X710256Y-877026D03*
G54D16*
G01X710256Y-623026D03*
G01X710256Y-369026D03*
G01X710256Y-115026D03*
G54D17*
G01X1750266Y443891D03*
G54D16*
G01X1750266Y697891D03*
G01X1750266Y951891D03*
G01X1750266Y1205891D03*
G54D19*
G01X-2847481Y2825439D03*
G01X-3355481Y2825439D03*
G54D20*
G01X-7711490Y1586978D03*
G54D21*
G01X-7711490Y1332978D03*
G54D11*
G01X-5307974Y-4706517D03*
G01X-5561974Y-4706517D03*
G54D12*
G01X-5815974Y-4706517D03*
G54D20*
G01X-7711490Y750567D03*
G54D21*
G01X-7711490Y496567D03*
G54D22*
G01X-4570351Y3357203D03*
G54D23*
G01X-4824351Y3357203D03*
G54D17*
G01X1750266Y1765982D03*
G54D16*
G01X1750266Y2019982D03*
G01X1750266Y2273982D03*
G01X1750266Y2527982D03*
G54D11*
G01X-1054900Y3347002D03*
G01X-800900Y3347002D03*
G54D24*
G01X-546900Y3347002D03*
G54D25*
G01X-1280000Y0D03*
G54D26*
G01X-1280000Y254000D03*
G01X-1280000Y508000D03*
G01X-1280000Y762000D03*
G01X-1280000Y1016000D03*
G01X-1280000Y1270000D03*
G01X-1280000Y1524000D03*
G01X-1280000Y1778000D03*
G54D25*
G01X0Y0D03*
G54D26*
G01X0Y254000D03*
G01X0Y508000D03*
G01X0Y762000D03*
G01X0Y1016000D03*
G01X0Y1270000D03*
G01X0Y1524000D03*
G01X0Y1778000D03*
G54D17*
G01X703809Y714009D03*
G54D16*
G01X703809Y968009D03*
G01X703809Y1222009D03*
G01X703809Y1476009D03*
G04 Pad End*

G04 Via Start*
G54D27*
G01X-2275723Y-2112457D03*
G01X-1979920Y-3887279D03*
G01X-3464039Y-2749965D03*
G01X-2724529Y-2143057D03*
G01X-3637441Y-4049773D03*
G01X-4427951Y-1597350D03*
G01X-4103549Y-1270946D03*
G01X-4103549Y-2484761D03*
G01X-4672754Y-980242D03*
G01X-4672754Y-689538D03*
G01X-5692768Y-1276046D03*
G01X-5611167Y-694638D03*
G01X-5249062Y-1072043D03*
G01X-5611167Y-1434148D03*
G01X-3377338Y-1184245D03*
G01X-4291866Y-271333D03*
G01X-4417751Y-4161077D03*
G01X-2831631Y-2755065D03*
G01X-5779469Y-419235D03*
G01X-5339304Y-357269D03*
G01X-5244103Y-357269D03*
G01X-5148902Y-357269D03*
G01X-5053700Y-357269D03*
G01X-6354217Y-672196D03*
G01X-6259016Y-672196D03*
G01X-6163815Y-672196D03*
G01X-6068613Y-672196D03*
G01X-6354217Y-561272D03*
G01X-6259016Y-561272D03*
G01X-6163815Y-561272D03*
G01X-6068613Y-561272D03*
G01X-6369517Y-443970D03*
G01X-6274316Y-443970D03*
G01X-6179115Y-443970D03*
G01X-6083914Y-443970D03*
G01X-2020861Y468941D03*
G01X-1925660Y468941D03*
G01X-2019595Y567687D03*
G01X-1924393Y567687D03*
G01X-2202763Y1203351D03*
G01X-2005561Y1300252D03*
G01X-2012361Y1203351D03*
G01X-1917160Y1203351D03*
G01X-404140Y-1265081D03*
G01X-1090949Y-1397683D03*
G01X-393940Y-1499684D03*
G01X-1017848Y-1433383D03*
G01X51575Y-1117270D03*
G01X51575Y-1212471D03*
G01X51575Y-1022068D03*
G01X51575Y-1307672D03*
G01X199477Y-1212471D03*
G01X199477Y-1117270D03*
G01X199477Y-1022068D03*
G01X199477Y-1307672D03*
G01X235178Y-1984281D03*
G01X235178Y-2079482D03*
G01X678883Y-1996181D03*
G01X235178Y-2174683D03*
G01X383079Y-2079482D03*
G01X383079Y-1984281D03*
G01X383079Y-1889080D03*
G01X383079Y-2174683D03*
G01X551382Y-2079482D03*
G01X551382Y-1984281D03*
G01X551382Y-1889080D03*
G01X551382Y-2174683D03*
G01X714584Y-1632376D03*
G01X714584Y-1727577D03*
G01X714584Y-1537175D03*
G01X714584Y-1822779D03*
G01X862486Y-1727577D03*
G01X862486Y-1632376D03*
G01X862486Y-1537175D03*
G01X862486Y-1822779D03*
G01X903286Y-1411373D03*
G01X1168490Y-1346773D03*
G01X1000187Y-1577976D03*
G01X1030788Y-1822779D03*
G01X-4314081Y-4580214D03*
G01X-4314081Y-4675416D03*
G01X-4314081Y-4485013D03*
G01X-4314081Y-4770617D03*
G01X-4166179Y-4675416D03*
G01X-4166179Y-4580214D03*
G01X-4166179Y-4485013D03*
G01X-4166179Y-4770617D03*
G01X-3997877Y-4675416D03*
G01X-3997877Y-4580214D03*
G01X-3997877Y-4485013D03*
G01X-3997877Y-4770617D03*
G01X-3798975Y-4580214D03*
G01X-3798975Y-4675416D03*
G01X-3798975Y-4485013D03*
G01X-3798975Y-4770617D03*
G01X-3651073Y-4675416D03*
G01X-3651073Y-4580214D03*
G01X-3651073Y-4485013D03*
G01X-3651073Y-4770617D03*
G01X-3482771Y-4675416D03*
G01X-3482771Y-4580214D03*
G01X-3482771Y-4485013D03*
G01X-3482771Y-4770617D03*
G01X-3314468Y-4585314D03*
G01X-3314468Y-4680516D03*
G01X-3314468Y-4490113D03*
G01X-3314468Y-4775717D03*
G01X-3166566Y-4680516D03*
G01X-3166566Y-4585314D03*
G01X-3166566Y-4490113D03*
G01X-3166566Y-4775717D03*
G01X-2998264Y-4680516D03*
G01X-2998264Y-4585314D03*
G01X-2998264Y-4490113D03*
G01X-2998264Y-4775717D03*
G01X-2829962Y-4580214D03*
G01X-2829962Y-4675416D03*
G01X-2829962Y-4485013D03*
G01X-2829962Y-4770617D03*
G01X-2682060Y-4675416D03*
G01X-2682060Y-4580214D03*
G01X-2682060Y-4485013D03*
G01X-2682060Y-4770617D03*
G01X-2513758Y-4675416D03*
G01X-2513758Y-4580214D03*
G01X-2513758Y-4485013D03*
G01X-2513758Y-4770617D03*
G01X-2360756Y-4621015D03*
G01X-2360756Y-4716216D03*
G01X-2360756Y-4525814D03*
G01X-2360756Y-4811417D03*
G01X-2212854Y-4716216D03*
G01X-2212854Y-4621015D03*
G01X-2212854Y-4525814D03*
G01X-2212854Y-4811417D03*
G01X-2044552Y-4716216D03*
G01X-2044552Y-4621015D03*
G01X-2044552Y-4525814D03*
G01X-2044552Y-4811417D03*
G01X-1794649Y-4651615D03*
G01X-1794649Y-4746817D03*
G01X-1794649Y-4556414D03*
G01X-1794649Y-4842018D03*
G01X-1646747Y-4746817D03*
G01X-1646747Y-4651615D03*
G01X-1646747Y-4556414D03*
G01X-1646747Y-4842018D03*
G01X-1478445Y-4746817D03*
G01X-1478445Y-4651615D03*
G01X-1478445Y-4556414D03*
G01X-1478445Y-4842018D03*
G01X-1656947Y-4274210D03*
G01X-1656947Y-4369412D03*
G01X-1656947Y-4179009D03*
G01X-1656947Y-4464613D03*
G01X-1509045Y-4369412D03*
G01X-1509045Y-4274210D03*
G01X-1509045Y-4179009D03*
G01X-1509045Y-4464613D03*
G01X-1340743Y-4369412D03*
G01X-1340743Y-4274210D03*
G01X-1340743Y-4179009D03*
G01X-1340743Y-4464613D03*
G01X-3696973Y-3708103D03*
G01X-2952364Y-3818605D03*
G01X-3651073Y-4265710D03*
G01X-2952364Y-3913806D03*
G01X-2804462Y-3818605D03*
G01X-2804462Y-3723403D03*
G01X-2804462Y-3628202D03*
G01X-2804462Y-3913806D03*
G01X-2636160Y-3818605D03*
G01X-2636160Y-3723403D03*
G01X-2636160Y-3628202D03*
G01X-2636160Y-3913806D03*
G01X-2967664Y-3300098D03*
G01X-3895876Y-2885292D03*
G01X-2967664Y-3204897D03*
G01X-3906076Y-3291598D03*
G01X-2819762Y-3395299D03*
G01X-2819762Y-3300098D03*
G01X-2819762Y-3204897D03*
G01X-2819762Y-3490500D03*
G01X-2651460Y-3395299D03*
G01X-2651460Y-3300098D03*
G01X-2651460Y-3204897D03*
G01X-2651460Y-3490500D03*
G01X-3370569Y-3733603D03*
G01X-3370569Y-3828805D03*
G01X-3370569Y-3638402D03*
G01X-3370569Y-3924006D03*
G01X-3222667Y-3828805D03*
G01X-3900976Y-3011094D03*
G01X-3222667Y-3924006D03*
G01X-3054365Y-3828805D03*
G01X-3911176Y-2759491D03*
G01X-3849975Y-3521101D03*
G01X-3054365Y-3924006D03*
G01X-4502784Y-4680516D03*
G01X-4502784Y-4585314D03*
G01X-4502784Y-4490113D03*
G01X-4502784Y-4775717D03*
G01X-6252106Y-3209997D03*
G01X-6104204Y-3209997D03*
G01X-5935902Y-3209997D03*
G01X-6705248Y-3131810D03*
G01X-6705248Y-3227011D03*
G01X-6705248Y-3036609D03*
G01X-6705248Y-3322212D03*
G01X-6557346Y-3227011D03*
G01X-6557346Y-3131810D03*
G01X-6557346Y-3036609D03*
G01X-6557346Y-3322212D03*
G01X-6389044Y-3227011D03*
G01X-6389044Y-3131810D03*
G01X-6389044Y-3036609D03*
G01X-6389044Y-3322212D03*
G01X-6889615Y-1647676D03*
G01X-6889615Y-1742878D03*
G01X-6889615Y-1552475D03*
G01X-6889615Y-1838079D03*
G01X-6741713Y-1742878D03*
G01X-6741713Y-1647676D03*
G01X-6741713Y-1552475D03*
G01X-6741713Y-1838079D03*
G01X-6573411Y-1742878D03*
G01X-6573411Y-1647676D03*
G01X-6573411Y-1552475D03*
G01X-6573411Y-1838079D03*
G01X-7726025Y-1285572D03*
G01X-7726025Y-1380773D03*
G01X-7726025Y-1190370D03*
G01X-7726025Y-1475974D03*
G01X-7578124Y-1380773D03*
G01X-7578124Y-1285572D03*
G01X-7578124Y-1190370D03*
G01X-7578124Y-1475974D03*
G01X-7409821Y-1380773D03*
G01X-7409821Y-1285572D03*
G01X-7409821Y-1190370D03*
G01X-7409821Y-1475974D03*
G01X-7731249Y-844254D03*
G01X-7731249Y-939456D03*
G01X-7731249Y-749053D03*
G01X-7731249Y-1034657D03*
G01X-7583347Y-939456D03*
G01X-7583347Y-844254D03*
G01X-7583347Y-749053D03*
G01X-7583347Y-1034657D03*
G01X-7415045Y-939456D03*
G01X-7415045Y-844254D03*
G01X-7415045Y-749053D03*
G01X-7415045Y-1034657D03*
G01X-6899815Y-377760D03*
G01X-6899815Y-472961D03*
G01X-6899815Y-568162D03*
G01X-6751913Y-472961D03*
G01X-6751913Y-377760D03*
G01X-6751913Y-568162D03*
G01X-6583611Y-472961D03*
G01X-6583611Y-377760D03*
G01X-6583611Y-568162D03*
G01X-7833400Y-480464D03*
G01X-7833400Y-575665D03*
G01X-7833400Y-385263D03*
G01X-7833400Y-670866D03*
G01X-7685498Y-575665D03*
G01X-7685498Y-480464D03*
G01X-7685498Y-385263D03*
G01X-7685498Y-670866D03*
G01X-7517196Y-575665D03*
G01X-7517196Y-480464D03*
G01X-7517196Y-385263D03*
G01X-7517196Y-670866D03*
G01X-7185418Y2162073D03*
G01X-7185418Y2066872D03*
G01X-7185418Y2257274D03*
G01X-7185418Y1971670D03*
G01X-7037517Y2066872D03*
G01X-7037517Y2162073D03*
G01X-7037517Y2257274D03*
G01X-7037517Y1971670D03*
G01X-6869214Y2066872D03*
G01X-6869214Y2162073D03*
G01X-6869214Y2257274D03*
G01X-6869214Y1971670D03*
G01X-5946102Y1886669D03*
G01X-5946102Y1791468D03*
G01X-7812727Y2196073D03*
G01X-5946102Y1696267D03*
G01X-5798200Y1791468D03*
G01X-5798200Y1886669D03*
G01X-7664825Y2196073D03*
G01X-5798200Y1696267D03*
G01X-5629898Y1791468D03*
G01X-5629898Y1886669D03*
G01X-7496522Y2196073D03*
G01X-5629898Y1696267D03*
G01X-7460822Y2029471D03*
G01X-7695425Y2020971D03*
G01X-7333320Y2012471D03*
G01X-7338420Y2226674D03*
G01X-2921763Y2634679D03*
G01X-2957464Y2287875D03*
G01X-2773861Y2634679D03*
G01X-2631060Y2088972D03*
G01X-2605559Y2634679D03*
G01X-2952364Y2099172D03*
G01X-5145392Y606553D03*
G01X-4992390Y487551D03*
G01X-5283094Y387250D03*
G01X-5283094Y482451D03*
G01X-5114792Y387250D03*
G01X-5114792Y482451D03*
G01X-3906076Y463751D03*
G01X-3906076Y368550D03*
G01X-3906076Y558952D03*
G01X-3906076Y273348D03*
G01X-3783674Y570852D03*
G01X-3783674Y475651D03*
G01X-3783674Y666054D03*
G01X-3635773Y475651D03*
G01X-3635773Y570852D03*
G01X-3503171Y-129557D03*
G01X-3635773Y337949D03*
G01X-3732674Y351549D03*
G01X1525494Y-4789317D03*
G01X1499994Y-4581914D03*
G01X1652996Y-4753617D03*
G01X1647896Y-4581914D03*
G01X1816198Y-4677116D03*
G01X1816198Y-4581914D03*
G01X1030788Y-4592115D03*
G01X1178690Y-4592115D03*
G01X1346992Y-4592115D03*
G01X556482Y-4682216D03*
G01X556482Y-4587014D03*
G01X704384Y-4682216D03*
G01X704384Y-4587014D03*
G01X872686Y-4682216D03*
G01X872686Y-4587014D03*
G01X112776Y-4597215D03*
G01X260678Y-4597215D03*
G01X428980Y-4597215D03*
G01X-975883Y-3090207D03*
G01X-975883Y-3185408D03*
G01X651038Y-2857304D03*
G01X793840Y-2862404D03*
G01X18630Y-3358811D03*
G01X18630Y-3263609D03*
G01X18630Y-3168408D03*
G01X18630Y-3454012D03*
G01X186932Y-3358811D03*
G01X186932Y-3263609D03*
G01X824441Y-2219796D03*
G01X921342Y-2143295D03*
G01X1324141Y-3175217D03*
G01X1419343Y-3175217D03*
G01X1300341Y-2843713D03*
G01X1378080Y-3259891D03*
G01X1473281Y-3259891D03*
G01X1262478Y-3264991D03*
G01X1237440Y-3868826D03*
G01X1332641Y-3868826D03*
G01X1427843Y-3868826D03*
G01X880297Y-3910199D03*
G01X975498Y-3910199D03*
G01X1070699Y-3910199D03*
G01X-2707560Y-2929493D03*
G01X-2707560Y-3024694D03*
G01X-2707560Y-3119895D03*
G01X-2409107Y-1364694D03*
G01X-2324106Y-1364694D03*
G01X-2473708Y-1308593D03*
G01X-2414193Y-1460831D03*
G01X-2344492Y-1440430D03*
G01X-2545094Y-1282328D03*
G01X-2539258Y-1639176D03*
G01X-2605559Y-1698677D03*
G01X-3033965Y-843566D03*
G01X-3033965Y-938767D03*
G01X-3033965Y-1033968D03*
G01X-2947264Y-863966D03*
G01X-2947264Y-959167D03*
G01X-2947264Y-1054369D03*
G01X-3120666Y-1122370D03*
G01X-3120666Y-1217571D03*
G01X-3737754Y-1413856D03*
G01X-3737754Y-1509057D03*
G01X-3737754Y-1604259D03*
G01X-4064178Y-710964D03*
G01X-3870376Y-862266D03*
G01X-4033578Y-799365D03*
G01X-5482879Y-340340D03*
G01X-5193876Y-493342D03*
G01X-5113975Y-457642D03*
G01X-4740902Y-104760D03*
G01X-4691601Y-176161D03*
G01X-4479098Y-283262D03*
G01X-5887352Y241827D03*
G01X-5792151Y241827D03*
G01X-5696949Y241827D03*
G01X-5634998Y691554D03*
G01X-5022990Y601453D03*
G01X-5140292Y735754D03*
G01X-5968305Y1554278D03*
G01X-6136607Y1474377D03*
G01X-6100906Y1343476D03*
G01X-6080506Y1268675D03*
G01X-6121307Y1193874D03*
G01X-6106006Y1062972D03*
G01X-6124605Y972057D03*
G01X-5956303Y652453D03*
G01X-6088904Y745955D03*
G01X-5859852Y687727D03*
G01X-3904178Y1134569D03*
G01X-3888878Y993467D03*
G01X-4031680Y1163469D03*
G01X-3625572Y-70056D03*
G01X-3860175Y625253D03*
G01X-3783674Y224048D03*
G01X-3671473Y144147D03*
G01X-2108203Y1287340D03*
G01X-1798799Y1185339D03*
G01X-1800499Y981336D03*
G01X-3176767Y-3311998D03*
G01X-3064565Y-3250797D03*
G01X-2906463Y-3102895D03*
G01X-3054365Y-2812191D03*
G01X-3166566Y-2924393D03*
G01X-3375669Y-3118195D03*
G01X-2661660Y-2771391D03*
G01X-2641260Y-2373586D03*
G01X-2545566Y-2448502D03*
G01X-2804462Y-3016194D03*
G01X-4498588Y-4327480D03*
G01X-4330285Y-4327480D03*
G01X-3895876Y-4337111D03*
G01X-3747974Y-4337111D03*
G01X-3579672Y-4337111D03*
G01X-3421570Y-4337111D03*
G01X-3273668Y-4337111D03*
G01X-3105366Y-4337111D03*
G01X-2962564Y-4337111D03*
G01X-2814662Y-4337111D03*
G01X-2646360Y-4337111D03*
G01X-3008464Y-4214710D03*
G01X-2860562Y-4214710D03*
G01X-2692260Y-4214710D03*
G01X-3472570Y-4224910D03*
G01X-3324668Y-4224910D03*
G01X-3156366Y-4224910D03*
G01X-4737387Y-4240210D03*
G01X-7445522Y-2006381D03*
G01X-7297620Y-2006381D03*
G01X-7129318Y-2006381D03*
G01X-6700912Y-2011481D03*
G01X-6553010Y-2011481D03*
G01X-6384708Y-2011481D03*
G01X-7777026Y-1883979D03*
G01X-7629124Y-1883979D03*
G01X-7460822Y-1883979D03*
G01X-1825249Y793555D03*
G01X-1855849Y635453D03*
G01X-2508658Y2961083D03*
G01X-2554559Y3328288D03*
G01X-2467857Y3068185D03*
G01X-2493358Y3261987D03*
G01X-2993164Y3450690D03*
G01X-2845262Y3450690D03*
G01X-2676960Y3450690D03*
G01X-2523958Y3455790D03*
G01X-2488258Y3170186D03*
G01X-2177154Y3445590D03*
G01X-3533771Y3450690D03*
G01X-3385869Y3450690D03*
G01X-3217567Y3450690D03*
G01X-4110079Y2328675D03*
G01X-3870376Y2247074D03*
G01X-3967277Y-1897580D03*
G01X-3844875Y-1538875D03*
G01X-3941776Y-1700377D03*
G01X-3829575Y-1654476D03*
G01X-5538097Y-2137283D03*
G01X-4293681Y-2087982D03*
G01X-3921376Y-1596676D03*
G01X-5259152Y-2144531D03*
G01X-5354353Y-2144531D03*
G01X-5068749Y-2144531D03*
G01X-5163951Y-2144531D03*
G01X-4665986Y-1622176D03*
G01X-4727187Y-1516775D03*
G01X-4665986Y-1812579D03*
G01X-4665986Y-1717377D03*
G01X-4950640Y-13177D03*
G01X-5045841Y-13177D03*
G01X-4760237Y-13177D03*
G01X-4855439Y-13177D03*
G01X-5756450Y-69277D03*
G01X-5851651Y-69277D03*
G01X-5566048Y-69277D03*
G01X-5661249Y-69277D03*
G01X-5353545Y221427D03*
G01X-4882639Y359128D03*
G01X-5163143Y221427D03*
G01X-5258344Y221427D03*
G01X-4909839Y226527D03*
G01X-5005041Y226527D03*
G01X-4719437Y226527D03*
G01X-4814638Y226527D03*
G01X-4348832Y53124D03*
G01X-4061528Y-232479D03*
G01X-4224730Y-53977D03*
G01X-3917026Y-334481D03*
G01X-3790304Y-945539D03*
G01X-5111221Y-571534D03*
G01X-4132008Y-612335D03*
G01X-3953506Y-840138D03*
G01X-5020341Y-4664437D03*
G01X-5020341Y-4516535D03*
G01X-5020341Y-4348233D03*
G01X1519630Y-2395672D03*
G01X-255193Y-2048867D03*
G01X-520397Y-2273270D03*
G01X1208526Y949971D03*
G01X-4268755Y914500D03*
G01X-4268755Y1531608D03*
G01X-6287807Y1859469D03*
G01X-6287807Y2145073D03*
G01X-6287807Y2049871D03*
G01X-6287807Y1954670D03*
G01X-6604011Y1859469D03*
G01X-6604011Y2145073D03*
G01X-6604011Y1954670D03*
G01X-6604011Y2049871D03*
G01X-6456109Y1859469D03*
G01X-6456109Y2145073D03*
G01X-6456109Y2049871D03*
G01X-6456109Y1954670D03*
G01X-6063404Y2323575D03*
G01X-6063404Y2609179D03*
G01X-6063404Y2513977D03*
G01X-6063404Y2418776D03*
G01X-6379608Y2323575D03*
G01X-6379608Y2609179D03*
G01X-6379608Y2418776D03*
G01X-6379608Y2513977D03*
G01X-6231706Y2323575D03*
G01X-6231706Y2609179D03*
G01X-6231706Y2513977D03*
G01X-6231706Y2418776D03*
G01X-5956303Y2746880D03*
G01X-5956303Y3032484D03*
G01X-5956303Y2937283D03*
G01X-5956303Y2842082D03*
G01X-6272507Y2746880D03*
G01X-6272507Y3032484D03*
G01X-6272507Y2842082D03*
G01X-6272507Y2937283D03*
G01X-6124605Y2746880D03*
G01X-6124605Y3032484D03*
G01X-6124605Y2937283D03*
G01X-6124605Y2842082D03*
G01X-5621339Y3197136D03*
G01X-5621339Y3482740D03*
G01X-5621339Y3387539D03*
G01X-5621339Y3292337D03*
G01X-5937543Y3197136D03*
G01X-5937543Y3482740D03*
G01X-5937543Y3292337D03*
G01X-5937543Y3387539D03*
G01X-5789641Y3197136D03*
G01X-5789641Y3482740D03*
G01X-5789641Y3387539D03*
G01X-5789641Y3292337D03*
G01X-6099679Y470795D03*
G01X-5462171Y-3899962D03*
G01X-5543772Y-3726560D03*
G01X-5349969Y-3078851D03*
G01X-5523371Y-2920749D03*
G01X-4870563Y-3170653D03*
G01X-4865463Y-2818748D03*
G01X-6798388Y-2543344D03*
G01X-6808588Y-2874849D03*
G01X-5956877Y-2176140D03*
G01X-5691674Y-2211840D03*
G01X-5518271Y-2533144D03*
G01X-3794449Y-3772460D03*
G01X-4151454Y287192D03*
G01X-1184985Y-3210909D03*
G01X-1638891Y-3210909D03*
G01X-1735793Y-3287410D03*
G01X-1394088Y-3282310D03*
G01X-1447844Y3063085D03*
G01X-1447844Y2838682D03*
G01X-1458044Y2738380D03*
G01X-1447844Y2949183D03*
G01X-1172441Y2782581D03*
G01X-1208141Y2615979D03*
G01X-1111240Y2711180D03*
G01X-1264242Y2717980D03*
G01X-4390582Y-3470100D03*
G01X-4487484Y-3403799D03*
G01X-5038291Y-3067195D03*
G01X1199090Y314149D03*
G01X1153189Y201948D03*
G01X1066488Y105046D03*
G01X-1892124Y-1239316D03*
G01X-1902325Y-2769336D03*
G01X-1774823Y-1892124D03*
G01X-1035313Y-1045514D03*
G01X-1902325Y-1545320D03*
G01X-3753649Y-2254229D03*
G01X-2590834Y-1040413D03*
G01X-4533959Y-3289543D03*
G54D28*
G01X-2371531Y2223629D03*
G54D27*
G01X-877211Y-1759523D03*
G01X-642608Y-370007D03*
G01X-316204Y-370007D03*
G01X-816011Y-1229116D03*
G01X-1346417Y-173402D03*
G01X-1035313Y-173402D03*
G01X938412Y851711D03*
G01X-1127115Y2228729D03*
G01X-2411757Y3406489D03*
G01X-2411757Y3311288D03*
G01X-2411757Y3216087D03*
G01X-2411757Y3501690D03*
G01X-2263855Y3311288D03*
G01X-2263855Y3406489D03*
G01X-2263855Y3216087D03*
G01X-2263855Y3501690D03*
G01X-2095553Y3216087D03*
G01X-2095553Y3501690D03*
G01X-2095553Y3311288D03*
G01X-2095553Y3406489D03*
G01X-2013952Y3396289D03*
G01X-2013952Y3301088D03*
G01X-2013952Y3205886D03*
G01X-1978251Y3491490D03*
G01X-1866050Y3301088D03*
G01X-1866050Y3396289D03*
G01X-1866050Y3205886D03*
G01X-1866050Y3491490D03*
G01X-1697747Y3205886D03*
G01X-1697747Y3491490D03*
G01X-1697747Y3301088D03*
G01X-1697747Y3396289D03*
G01X-1590646Y3391189D03*
G01X-1590646Y3295988D03*
G01X-1590646Y3200786D03*
G01X-1590646Y3486390D03*
G01X-1442744Y3295988D03*
G01X-1442744Y3391189D03*
G01X-1442744Y3200786D03*
G01X-1442744Y3486390D03*
G01X-1274442Y3200786D03*
G01X-1274442Y3486390D03*
G01X-1274442Y3295988D03*
G01X-1274442Y3391189D03*
G01X-2370956Y2985440D03*
G01X-2370956Y2890239D03*
G01X-2370956Y2795038D03*
G01X-2370956Y3080641D03*
G01X-2223054Y2890239D03*
G01X-2223054Y2985440D03*
G01X-2223054Y2795038D03*
G01X-2223054Y3080641D03*
G01X-2054752Y2795038D03*
G01X-2054752Y3080641D03*
G01X-2054752Y2890239D03*
G01X-2054752Y2985440D03*
G01X-1932350Y2978083D03*
G01X-1932350Y2882882D03*
G01X-1932350Y2787681D03*
G01X-1932350Y3073285D03*
G01X-1784449Y2882882D03*
G01X-1784449Y2978083D03*
G01X-1784449Y2787681D03*
G01X-1784449Y3073285D03*
G01X-1616146Y2787681D03*
G01X-1616146Y3073285D03*
G01X-1616146Y2882882D03*
G01X-1616146Y2978083D03*
G01X-915199Y1372279D03*
G01X-915199Y1277077D03*
G01X-915199Y1181876D03*
G01X-915199Y1467480D03*
G01X-767298Y1277077D03*
G01X-767298Y1372279D03*
G01X-767298Y1181876D03*
G01X-767298Y1467480D03*
G01X-598995Y1181876D03*
G01X-598995Y1467480D03*
G01X-598995Y1277077D03*
G01X-598995Y1372279D03*
G01X-3008464Y2156973D03*
G01X-3008464Y2061772D03*
G01X-3008464Y1966570D03*
G01X-3008464Y2252174D03*
G01X-2860562Y2061772D03*
G01X-2860562Y2156973D03*
G01X-2860562Y1966570D03*
G01X-2860562Y2252174D03*
G01X-2692260Y1966570D03*
G01X-2692260Y2252174D03*
G01X-2692260Y2061772D03*
G01X-2692260Y2156973D03*
G01X-2217954Y1534765D03*
G01X-2217954Y1439564D03*
G01X-2217954Y1344362D03*
G01X-2217954Y1629966D03*
G01X-2070052Y1439564D03*
G01X-2070052Y1534765D03*
G01X-1799749Y1094459D03*
G01X-2070052Y1629966D03*
G01X-1809949Y880256D03*
G01X-1901750Y1629966D03*
G01X-1901750Y1439564D03*
G01X-1901750Y1534765D03*
G01X-4115179Y943157D03*
G01X-4115179Y847956D03*
G01X-4115179Y752755D03*
G01X-4115179Y1038358D03*
G01X-3967277Y847956D03*
G01X-3967277Y943157D03*
G01X-3967277Y752755D03*
G01X-3967277Y1038358D03*
G01X-3798975Y752755D03*
G01X-3798975Y1038358D03*
G01X-3798975Y847956D03*
G01X-3798975Y943157D03*
G01X-5222468Y2534733D03*
G01X-330930Y2294675D03*
G01X-330930Y2199473D03*
G01X-330930Y2104272D03*
G01X-330930Y2389876D03*
G01X-183028Y2199473D03*
G01X-183028Y2294675D03*
G01X-183028Y2104272D03*
G01X-183028Y2389876D03*
G01X-14726Y2104272D03*
G01X-14726Y2389876D03*
G01X-14726Y2199473D03*
G01X-14726Y2294675D03*
G01X-402331Y2723080D03*
G01X-402331Y2627879D03*
G01X-402331Y2532678D03*
G01X-402331Y2818281D03*
G01X-254429Y2627879D03*
G01X-254429Y2723080D03*
G01X-254429Y2532678D03*
G01X-254429Y2818281D03*
G01X-86127Y2532678D03*
G01X-86127Y2818281D03*
G01X-86127Y2627879D03*
G01X-86127Y2723080D03*
G01X204577Y1896869D03*
G01X204577Y1801668D03*
G01X204577Y1706467D03*
G01X204577Y1992071D03*
G01X352479Y1801668D03*
G01X352479Y1896869D03*
G01X352479Y1706467D03*
G01X352479Y1992071D03*
G01X520781Y1706467D03*
G01X520781Y1992071D03*
G01X520781Y1801668D03*
G01X520781Y1896869D03*
G01X673783Y1968270D03*
G01X673783Y1873069D03*
G01X673783Y1777868D03*
G01X673783Y2063472D03*
G01X821685Y1873069D03*
G01X821685Y1968270D03*
G01X821685Y1777868D03*
G01X821685Y2063472D03*
G01X989987Y1777868D03*
G01X989987Y2063472D03*
G01X989987Y1873069D03*
G01X989987Y1968270D03*
G01X1127689Y2049871D03*
G01X1127689Y2145073D03*
G01X1260291Y2202873D03*
G01X1260291Y2298075D03*
G01X1329540Y2392590D03*
G01X1329540Y2487791D03*
G01X1454093Y2554778D03*
G01X1454093Y2649979D03*
G01X1566295Y2646579D03*
G01X1566295Y2741780D03*
G01X1668296Y2687380D03*
G01X1668296Y2782581D03*
G01X1790698Y2702680D03*
G01X1790698Y2797881D03*
G01X1909540Y2654986D03*
G01X1909540Y2750187D03*
G01X1326592Y162847D03*
G01X1326592Y258048D03*
G01X-2289355Y-265559D03*
G01X-2289355Y-170357D03*
G01X-2182254Y-234958D03*
G01X-2182254Y-139757D03*
G01X-1973370Y-137127D03*
G01X-2068572Y-137127D03*
G01X-2957464Y-2040381D03*
G01X-2957464Y-1945180D03*
G01X-3023190Y-1997543D03*
G01X-3023190Y-1902342D03*
G01X-3110466Y-2040381D03*
G01X-3110466Y-1945180D03*
G01X-3227767Y-2050582D03*
G01X-3227767Y-1955380D03*
G01X-3431989Y-1733448D03*
G01X-3527191Y-1733448D03*
G01X-3539091Y-1825249D03*
G01X-3634292Y-1825249D03*
G01X-3635992Y-1932350D03*
G01X-3731193Y-1932350D03*
G01X-1729442Y-2592369D03*
G01X-1780442Y-2675670D03*
G01X-1340743Y-2703390D03*
G01X-1340743Y-2608189D03*
G01X-458651Y-2554559D03*
G01X-553852Y-2554559D03*
G01X-7037517Y-200958D03*
G01X-7037517Y-105756D03*
G01X-7037517Y-10555D03*
G01X-7353721Y84646D03*
G01X-7205819Y84646D03*
G01X-7037517Y84646D03*
G01X-7353721Y-10555D03*
G01X-7353721Y-105756D03*
G01X-7353721Y-200958D03*
G01X-7205819Y-105756D03*
G01X-7205819Y-10555D03*
G01X-7205819Y-200958D03*
G01X-7496522Y-206058D03*
G01X-7496522Y-110857D03*
G01X-7496522Y-15655D03*
G01X-7812727Y79546D03*
G01X-7664825Y79546D03*
G01X-7496522Y79546D03*
G01X-7812727Y-15655D03*
G01X-7812727Y-110857D03*
G01X-7812727Y-206058D03*
G01X-7664825Y-110857D03*
G01X-7664825Y-15655D03*
G01X-7664825Y-206058D03*
G01X-7491422Y-3592502D03*
G01X-7491422Y-3497300D03*
G01X-7491422Y-3402099D03*
G01X-7807626Y-3306898D03*
G01X-7659725Y-3306898D03*
G01X-7491422Y-3306898D03*
G01X-7807626Y-3402099D03*
G01X-7807626Y-3497300D03*
G01X-7807626Y-3592502D03*
G01X-7659725Y-3497300D03*
G01X-7659725Y-3402099D03*
G01X-7659725Y-3592502D03*
G01X-4599685Y-4780817D03*
G01X-4599685Y-4685616D03*
G01X-4599685Y-4590414D03*
G01X-4915889Y-4495213D03*
G01X-4767987Y-4495213D03*
G01X-4599685Y-4495213D03*
G01X-4915889Y-4590414D03*
G01X-4915889Y-4685616D03*
G01X-4915889Y-4780817D03*
G01X-4767987Y-4685616D03*
G01X-4767987Y-4590414D03*
G01X-4767987Y-4780817D03*
G01X-3447070Y3343588D03*
G01X-3299168Y3343588D03*
G01X-3130866Y3343588D03*
G01X-3039065Y3282387D03*
G01X-2891163Y3282387D03*
G01X-2722861Y3282387D03*
G01X-3049265Y3144686D03*
G01X-2901363Y3144686D03*
G01X-2733061Y3144686D03*
G01X-917252Y-33659D03*
G01X-769351Y-33659D03*
G01X-601048Y-33659D03*
G01X-938125Y78876D03*
G01X-790223Y78876D03*
G01X-621921Y78876D03*
G01X-981051Y187280D03*
G01X-833149Y187280D03*
G01X-664847Y187280D03*
G01X-213628Y1548365D03*
G01X-223828Y1451464D03*
G01X-305429Y1354562D03*
G01X-626734Y1033258D03*
G01X-621634Y880256D03*
G01X-606333Y701754D03*
G01X-744035Y951657D03*
G01X-815436Y1058759D03*
G01X-744035Y824156D03*
G01X-897037Y977158D03*
G01X-490841Y-1290581D03*
G01X-342939Y-1045778D03*
G01X-388840Y-943777D03*
G01X-664244Y-749974D03*
G01X-682932Y-1007839D03*
G01X-756045Y-1045778D03*
G01X-654043Y-678573D03*
G01X-1011048Y-749974D03*
G01X-1133450Y-943777D03*
G01X-1268224Y-751063D03*
G01X-1821959Y-1035578D03*
G01X-1719957Y-1004978D03*
G01X-1776058Y-719374D03*
G01X-2372766Y-729574D03*
G01X-2811371Y-744874D03*
G01X-3025574Y-729574D03*
G01X-3178576Y-693874D03*
G01X-3193876Y-576572D03*
G01X-3311178Y-688774D03*
G01X-2831772Y-831575D03*
G01X-2219764Y-948877D03*
G01X-2158563Y-841776D03*
G01X-2321765Y-1127379D03*
G01X-2449267Y-1152880D03*
G04 Via End*

G04 Track Start*
G54D29*
G01X-4103549Y-1270946D02*
G01X-4103549Y-2484761D01*
G01X-4672754Y-980242D02*
G01X-4672754Y-689538D01*
G01X-5692768Y-1276046D02*
G01X-5692768Y-776239D01*
G01X-5611167Y-694638D01*
G01X-5249062Y-1072043D02*
G01X-5611167Y-1434148D01*
G54D28*
G01X1075473Y-423303D02*
G01X767196Y-115026D01*
G01X1075473Y-775951D02*
G01X1075473Y-423303D01*
G01X1735466Y-1435944D02*
G01X1075473Y-775951D01*
G54D29*
G01X570256Y-877026D02*
G01X710256Y-877026D01*
G01X-3494639Y-4060682D02*
G01X-3494639Y-3418073D01*
G01X-2831631Y-2755065D01*
G01X-5779469Y-419235D02*
G01X-5606067Y-419235D01*
G01X-4427951Y-1597350D01*
G01X-4291866Y-271333D02*
G01X-4290249Y-271333D01*
G01X-3377338Y-1184245D01*
G01X1750266Y-1689944D02*
G01X1725266Y-1689944D01*
G01X1519630Y-1895580D01*
G01X1519630Y-2395672D01*
G01X-255193Y-2048867D02*
G01X-479596Y-2273270D01*
G01X-520397Y-2273270D01*
G01X-4268755Y914500D02*
G01X-4268755Y1531608D01*
G54D28*
G01X1438029Y1493128D02*
G01X1438029Y2240745D01*
G01X1725266Y1205891D02*
G01X1438029Y1493128D01*
G01X1725266Y2527982D02*
G01X1750266Y2527982D01*
G54D29*
G01X-5630473Y-523718D02*
G01X-5859976Y-523718D01*
G01X-6099679Y-284015D01*
G01X-6099679Y470795D01*
G01X-5115366Y-1038825D02*
G01X-5630473Y-523718D01*
G01X-4417751Y-4161077D02*
G01X-3595034Y-4161077D01*
G01X-3494639Y-4060682D01*
G01X-5462171Y-3899962D02*
G01X-5462171Y-3808161D01*
G01X-5543772Y-3726560D01*
G01X-5349969Y-3078851D02*
G01X-5365269Y-3078851D01*
G01X-5523371Y-2920749D01*
G01X-4870563Y-3170653D02*
G01X-4870563Y-2823848D01*
G01X-4865463Y-2818748D01*
G01X-6798388Y-2543344D02*
G01X-6808588Y-2553545D01*
G01X-6808588Y-2874849D01*
G01X-5956877Y-2176140D02*
G01X-5956877Y-2487244D01*
G01X-5523371Y-2920749D01*
G01X-5691674Y-2211840D02*
G01X-5518271Y-2385242D01*
G01X-5518271Y-2533144D01*
G54D30*
G01X-7706905Y-2367460D02*
G01X-7494479Y-2367460D01*
G01X-7048291Y-3449199D02*
G01X-5815974Y-4681516D01*
G01X-5815974Y-4706517D01*
G01X-7494479Y-2367460D02*
G01X-7048291Y-2813648D01*
G01X-7048291Y-3449199D01*
G54D29*
G01X-3794449Y-3772460D02*
G01X-3794449Y-3741860D01*
G01X-4192254Y-3344055D01*
G01X-4192254Y-717521D01*
G01X-4370757Y-539018D01*
G01X-4370757Y-85113D01*
G01X-4151454Y134190D01*
G01X-4151454Y287192D01*
G54D28*
G01X1725266Y-1435944D02*
G01X1336217Y-1824992D01*
G01X1336217Y-2682607D02*
G01X1627265Y-2973654D01*
G01X1627265Y-2998654D01*
G01X1750266Y-1435944D02*
G01X1735466Y-1435944D01*
G01X1725266Y-1435944D01*
G01X1336217Y-1824992D02*
G01X1336217Y-2682607D01*
G01X1627265Y-2998654D02*
G01X1627265Y-3661662D01*
G01X1627265Y-4324671D01*
G54D29*
G01X-1902325Y-1545320D02*
G01X-1902325Y-2769336D01*
G54D28*
G01X-2275723Y-2112457D02*
G01X-2275723Y-3591476D01*
G01X-1979920Y-3887279D01*
G54D29*
G01X-3753649Y-2254229D02*
G01X-2590834Y-1091414D01*
G01X-2590834Y-1040413D01*
G01X-5115366Y-1666133D02*
G01X-5115366Y-1038825D01*
G01X-4533959Y-3289543D02*
G01X-4533959Y-2247541D01*
G01X-5115366Y-1666133D01*
G54D28*
G01X0Y254000D02*
G01X-518000Y254000D01*
G01X-1280000Y1016000D01*
G01X1750266Y1205891D02*
G01X1725266Y1205891D01*
G01X26504Y254000D02*
G01X395530Y-115026D01*
G01X710256Y-115026D01*
G01X753806Y254000D02*
G01X26504Y254000D01*
G01X1725266Y1205891D02*
G01X1705697Y1205891D01*
G01X753806Y254000D01*
G01X703809Y714009D02*
G01X550807Y561007D01*
G01X53007Y561007D02*
G01X0Y508000D01*
G01X550807Y561007D02*
G01X53007Y561007D01*
G01X703809Y968009D02*
G01X447803Y968009D01*
G01X241793Y762000D02*
G01X0Y762000D01*
G01X447803Y968009D02*
G01X241793Y762000D01*
G01X703809Y1222009D02*
G01X349898Y1222009D01*
G01X143889Y1016000D01*
G01X0Y1016000D01*
G01X0Y1270000D02*
G01X158186Y1270000D01*
G01X364195Y1476009D01*
G01X703809Y1476009D01*
G01X1438029Y2240745D02*
G01X1725266Y2527982D01*
G01X-546900Y3347002D02*
G01X-546900Y2257100D01*
G01X-1280000Y1524000D01*
G54D26*
G01X-3355481Y2825439D02*
G01X-3355481Y2723073D01*
G01X-2601034Y2453132D02*
G01X-2371531Y2223629D01*
G01X-3355481Y2723073D02*
G01X-3085540Y2453132D01*
G01X-2601034Y2453132D01*
G54D29*
G01X-1448419Y85581D02*
G01X-1280000Y254000D01*
G01X-877211Y-1759523D02*
G01X-907812Y-1728922D01*
G01X525570Y-832340D02*
G01X570256Y-877026D01*
G01X-642608Y-370007D02*
G01X-316204Y-370007D01*
G01X-1774823Y-1892124D02*
G01X-1774823Y-1785023D01*
G01X-1035313Y-1045514D01*
G01X-907812Y-1728922D02*
G01X-907812Y-979213D01*
G01X-1448419Y-438606D01*
G01X-1448419Y85581D01*
G01X-3464039Y-2749965D02*
G01X-1953390Y-1239316D01*
G01X-1892124Y-1239316D01*
G01X-816011Y-1229116D02*
G01X-419235Y-832340D01*
G01X525570Y-832340D01*
G01X-1346417Y-173402D02*
G01X-1035313Y-173402D01*
G01X938412Y851711D02*
G01X1036673Y949971D01*
G01X1208526Y949971D01*
G01X-1127115Y2228729D02*
G01X-1611621Y1744223D01*
G01X-1611621Y-1096514D01*
G01X-2658164Y-2143057D01*
G01X-2724529Y-2143057D01*
G01X-4570351Y3357203D02*
G01X-4570351Y3186850D01*
G01X-5222468Y2534733D01*
G54D28*
G01X1750266Y-115026D02*
G01X767196Y-115026D01*
G01X710256Y-115026D01*
G54D29*
G01X-4427951Y-3259263D02*
G01X-4427951Y-1597350D01*
G01X-3637441Y-4049773D02*
G01X-4427951Y-3259263D01*
G04 Track End*

M02*

