G04 Layer: DrillDrawingLayer*
G04 EasyEDA Pro v2.2.32.3, 2025-07-09 15:58:04*
G04 Gerber Generator version 0.3*
G04 Scale: 100 percent, Rotated: No, Reflected: No*
G04 Dimensions in millimeters*
G04 Leading zeros omitted, absolute positions, 3 integers and 5 decimals*
%FSLAX35Y35*%
%MOMM*%
%AMIconRect*4,1,4,0.2,-0.2,-0.2,-0.2,-0.2,0.2,0.2,0.2,0.2,-0.2,0*4,0,4,0.166667,-0.166667,0.166667,0.166667,-0.166667,0.166667,-0.166667,-0.166667,0.166667,-0.166667,0*%
%AMIconTriangle*4,1,3,-0.242567,0.171767,0.242567,0.171767,0,-0.2706,-0.242567,0.171767,0*4,0,3,-0.189767,0.1386,0,-0.1953,0.190167,0.1386,-0.189767,0.1386,0*%
%AMIconStar6*4,1,12,0.0862,0.1492,0.213233,0.123367,0.172367,0,0.213233,-0.1229,0.0862,-0.148733,0,-0.245767,-0.085767,-0.148733,-0.213267,-0.1229,-0.171933,0,-0.213267,0.1229,-0.085767,0.1492,0,0.245767,0.0862,0.1492,0*4,0,12,-0.000333,0.195333,-0.064333,0.122667,-0.169667,0.097667,-0.138333,-0.005333,-0.169667,-0.098,-0.064333,-0.122667,-0.000333,-0.195667,0.064333,-0.122667,0.169667,-0.098,0.138667,0.005,0.169667,0.098,0.064333,0.122333,-0.000333,0.195333,0*%
%AMIconStar4*4,1,8,-0.222667,0.222667,0,0.144667,0.222667,0.222667,0.144667,0,0.222667,-0.222667,0,-0.144667,-0.217433,-0.222667,-0.144667,0,-0.222667,0.222667,0*4,0,8,0.166667,-0.166667,0.108,0,0.166667,0.166667,0,0.108,-0.166667,0.166667,-0.108,0,-0.166667,-0.166667,0,-0.108,0.166667,-0.166667,0*%
%AMIconPlus*4,1,12,0.124,-0.2,-0.124,-0.2,-0.124,-0.124,-0.2,-0.124,-0.2,0.124,-0.124,0.124,-0.124,0.2,0.124,0.2,0.124,0.124,0.2,0.124,0.2,-0.124,0.124,-0.124,0.124,-0.2,0*4,0,12,0.090667,-0.166667,0.090667,-0.090667,0.166667,-0.090667,0.166667,0.090667,0.090667,0.090667,0.090667,0.166667,-0.090667,0.166667,-0.090667,0.090667,-0.166667,0.090667,-0.166667,-0.090667,-0.090667,-0.090667,-0.090667,-0.166667,0.090667,-0.166667,0*%
%ADD10IconRect*%
%ADD11C,0.44X0.373333*%
%ADD12IconTriangle*%
%ADD13IconStar6*%
%ADD14IconStar4*%
%ADD15IconPlus*%
G75*


G04 Drill Drawing Start*
G54D10*
G01X-2371531Y2223629D03*
G54D11*
G01X-3355481Y2825439D03*
G01X-2847481Y2825439D03*
G54D12*
G01X-7234210Y-1714839D03*
G01X-7234210Y-510838D03*
G54D13*
G01X-6963202Y-1237837D03*
G01X-6963202Y-987837D03*
G01X-6763202Y-1237837D03*
G01X-6763202Y-987837D03*
G01X-1280000Y0D03*
G01X-1280000Y254000D03*
G01X-1280000Y508000D03*
G01X-1280000Y762000D03*
G01X-1280000Y1016000D03*
G01X-1280000Y1270000D03*
G01X-1280000Y1524000D03*
G01X-1280000Y1778000D03*
G01X0Y0D03*
G01X0Y254000D03*
G01X0Y508000D03*
G01X0Y762000D03*
G01X0Y1016000D03*
G01X0Y1270000D03*
G01X0Y1524000D03*
G01X0Y1778000D03*
G54D14*
G01X-7711490Y496567D03*
G01X-7711490Y750567D03*
G01X-7711490Y1332978D03*
G01X-7711490Y1586978D03*
G01X-7706905Y-3129460D03*
G01X-7706905Y-2875460D03*
G01X-7706905Y-2621460D03*
G01X-7706905Y-2367460D03*
G01X-5815974Y-4706517D03*
G01X-5561974Y-4706517D03*
G01X-5307974Y-4706517D03*
G01X-4824351Y3357203D03*
G01X-4570351Y3357203D03*
G01X-1054900Y3347002D03*
G01X-800900Y3347002D03*
G01X-546900Y3347002D03*
G01X703809Y714009D03*
G01X703809Y968009D03*
G01X703809Y1222009D03*
G01X703809Y1476009D03*
G01X710256Y-877026D03*
G01X710256Y-623026D03*
G01X710256Y-369026D03*
G01X710256Y-115026D03*
G01X1119265Y-4324671D03*
G01X1119265Y-3661662D03*
G01X1119265Y-2998654D03*
G01X1373265Y-4324671D03*
G01X1373265Y-3661662D03*
G01X1373265Y-2998654D03*
G01X1627265Y-4324671D03*
G01X1627265Y-3661662D03*
G01X1627265Y-2998654D03*
G01X1750266Y-2197944D03*
G01X1750266Y-1943944D03*
G01X1750266Y-1689944D03*
G01X1750266Y-1435944D03*
G01X1750266Y-877026D03*
G01X1750266Y-623026D03*
G01X1750266Y-369026D03*
G01X1750266Y-115026D03*
G01X1750266Y443891D03*
G01X1750266Y697891D03*
G01X1750266Y951891D03*
G01X1750266Y1205891D03*
G01X1750266Y1765982D03*
G01X1750266Y2019982D03*
G01X1750266Y2273982D03*
G01X1750266Y2527982D03*
G54D15*
G01X-7833400Y-670866D03*
G01X-7833400Y-575665D03*
G01X-7833400Y-480464D03*
G01X-7833400Y-385263D03*
G01X-7812727Y-206058D03*
G01X-7812727Y-110857D03*
G01X-7812727Y-15655D03*
G01X-7812727Y79546D03*
G01X-7812727Y2196073D03*
G01X-7807626Y-3592502D03*
G01X-7807626Y-3497300D03*
G01X-7807626Y-3402099D03*
G01X-7807626Y-3306898D03*
G01X-7777026Y-1883979D03*
G01X-7731249Y-1034657D03*
G01X-7731249Y-939456D03*
G01X-7731249Y-844254D03*
G01X-7731249Y-749053D03*
G01X-7726025Y-1475974D03*
G01X-7726025Y-1380773D03*
G01X-7726025Y-1285572D03*
G01X-7726025Y-1190370D03*
G01X-7695425Y2020971D03*
G01X-7685498Y-670866D03*
G01X-7685498Y-575665D03*
G01X-7685498Y-480464D03*
G01X-7685498Y-385263D03*
G01X-7664825Y-206058D03*
G01X-7664825Y-110857D03*
G01X-7664825Y-15655D03*
G01X-7664825Y79546D03*
G01X-7664825Y2196073D03*
G01X-7659725Y-3592502D03*
G01X-7659725Y-3497300D03*
G01X-7659725Y-3402099D03*
G01X-7659725Y-3306898D03*
G01X-7629124Y-1883979D03*
G01X-7583347Y-1034657D03*
G01X-7583347Y-939456D03*
G01X-7583347Y-844254D03*
G01X-7583347Y-749053D03*
G01X-7578124Y-1475974D03*
G01X-7578124Y-1380773D03*
G01X-7578124Y-1285572D03*
G01X-7578124Y-1190370D03*
G01X-7517196Y-670866D03*
G01X-7517196Y-575665D03*
G01X-7517196Y-480464D03*
G01X-7517196Y-385263D03*
G01X-7496522Y-206058D03*
G01X-7496522Y-110857D03*
G01X-7496522Y-15655D03*
G01X-7496522Y79546D03*
G01X-7496522Y2196073D03*
G01X-7491422Y-3592502D03*
G01X-7491422Y-3497300D03*
G01X-7491422Y-3402099D03*
G01X-7491422Y-3306898D03*
G01X-7460822Y-1883979D03*
G01X-7460822Y2029471D03*
G01X-7445522Y-2006381D03*
G01X-7415045Y-1034657D03*
G01X-7415045Y-939456D03*
G01X-7415045Y-844254D03*
G01X-7415045Y-749053D03*
G01X-7409821Y-1475974D03*
G01X-7409821Y-1380773D03*
G01X-7409821Y-1285572D03*
G01X-7409821Y-1190370D03*
G01X-7353721Y-200958D03*
G01X-7353721Y-105756D03*
G01X-7353721Y-10555D03*
G01X-7353721Y84646D03*
G01X-7338420Y2226674D03*
G01X-7333320Y2012471D03*
G01X-7297620Y-2006381D03*
G01X-7205819Y-200958D03*
G01X-7205819Y-105756D03*
G01X-7205819Y-10555D03*
G01X-7205819Y84646D03*
G01X-7185418Y1971670D03*
G01X-7185418Y2066872D03*
G01X-7185418Y2162073D03*
G01X-7185418Y2257274D03*
G01X-7129318Y-2006381D03*
G01X-7037517Y-200958D03*
G01X-7037517Y-105756D03*
G01X-7037517Y-10555D03*
G01X-7037517Y84646D03*
G01X-7037517Y1971670D03*
G01X-7037517Y2066872D03*
G01X-7037517Y2162073D03*
G01X-7037517Y2257274D03*
G01X-6899815Y-568162D03*
G01X-6899815Y-472961D03*
G01X-6899815Y-377760D03*
G01X-6889615Y-1838079D03*
G01X-6889615Y-1742878D03*
G01X-6889615Y-1647676D03*
G01X-6889615Y-1552475D03*
G01X-6869214Y1971670D03*
G01X-6869214Y2066872D03*
G01X-6869214Y2162073D03*
G01X-6869214Y2257274D03*
G01X-6808588Y-2874849D03*
G01X-6798388Y-2543344D03*
G01X-6751913Y-568162D03*
G01X-6751913Y-472961D03*
G01X-6751913Y-377760D03*
G01X-6741713Y-1838079D03*
G01X-6741713Y-1742878D03*
G01X-6741713Y-1647676D03*
G01X-6741713Y-1552475D03*
G01X-6705248Y-3322212D03*
G01X-6705248Y-3227011D03*
G01X-6705248Y-3131810D03*
G01X-6705248Y-3036609D03*
G01X-6700912Y-2011481D03*
G01X-6604011Y1859469D03*
G01X-6604011Y1954670D03*
G01X-6604011Y2049871D03*
G01X-6604011Y2145073D03*
G01X-6583611Y-568162D03*
G01X-6583611Y-472961D03*
G01X-6583611Y-377760D03*
G01X-6573411Y-1838079D03*
G01X-6573411Y-1742878D03*
G01X-6573411Y-1647676D03*
G01X-6573411Y-1552475D03*
G01X-6557346Y-3322212D03*
G01X-6557346Y-3227011D03*
G01X-6557346Y-3131810D03*
G01X-6557346Y-3036609D03*
G01X-6553010Y-2011481D03*
G01X-6456109Y1859469D03*
G01X-6456109Y1954670D03*
G01X-6456109Y2049871D03*
G01X-6456109Y2145073D03*
G01X-6389044Y-3322212D03*
G01X-6389044Y-3227011D03*
G01X-6389044Y-3131810D03*
G01X-6389044Y-3036609D03*
G01X-6384708Y-2011481D03*
G01X-6379608Y2323575D03*
G01X-6379608Y2418776D03*
G01X-6379608Y2513977D03*
G01X-6379608Y2609179D03*
G01X-6369517Y-443970D03*
G01X-6354217Y-672196D03*
G01X-6354217Y-561272D03*
G01X-6287807Y1859469D03*
G01X-6287807Y1954670D03*
G01X-6287807Y2049871D03*
G01X-6287807Y2145073D03*
G01X-6274316Y-443970D03*
G01X-6272507Y2746880D03*
G01X-6272507Y2842082D03*
G01X-6272507Y2937283D03*
G01X-6272507Y3032484D03*
G01X-6259016Y-672196D03*
G01X-6259016Y-561272D03*
G01X-6252106Y-3209997D03*
G01X-6231706Y2323575D03*
G01X-6231706Y2418776D03*
G01X-6231706Y2513977D03*
G01X-6231706Y2609179D03*
G01X-6179115Y-443970D03*
G01X-6163815Y-672196D03*
G01X-6163815Y-561272D03*
G01X-6136607Y1474377D03*
G01X-6124605Y972057D03*
G01X-6124605Y2746880D03*
G01X-6124605Y2842082D03*
G01X-6124605Y2937283D03*
G01X-6124605Y3032484D03*
G01X-6121307Y1193874D03*
G01X-6106006Y1062972D03*
G01X-6104204Y-3209997D03*
G01X-6100906Y1343476D03*
G01X-6099679Y470795D03*
G01X-6088904Y745955D03*
G01X-6083914Y-443970D03*
G01X-6080506Y1268675D03*
G01X-6068613Y-672196D03*
G01X-6068613Y-561272D03*
G01X-6063404Y2323575D03*
G01X-6063404Y2418776D03*
G01X-6063404Y2513977D03*
G01X-6063404Y2609179D03*
G01X-5968305Y1554278D03*
G01X-5956877Y-2176140D03*
G01X-5956303Y652453D03*
G01X-5956303Y2746880D03*
G01X-5956303Y2842082D03*
G01X-5956303Y2937283D03*
G01X-5956303Y3032484D03*
G01X-5946102Y1696267D03*
G01X-5946102Y1791468D03*
G01X-5946102Y1886669D03*
G01X-5937543Y3197136D03*
G01X-5937543Y3292337D03*
G01X-5937543Y3387539D03*
G01X-5937543Y3482740D03*
G01X-5935902Y-3209997D03*
G01X-5887352Y241827D03*
G01X-5859852Y687727D03*
G01X-5851651Y-69277D03*
G01X-5798200Y1696267D03*
G01X-5798200Y1791468D03*
G01X-5798200Y1886669D03*
G01X-5792151Y241827D03*
G01X-5789641Y3197136D03*
G01X-5789641Y3292337D03*
G01X-5789641Y3387539D03*
G01X-5789641Y3482740D03*
G01X-5779469Y-419235D03*
G01X-5756450Y-69277D03*
G01X-5696949Y241827D03*
G01X-5692768Y-1276046D03*
G01X-5691674Y-2211840D03*
G01X-5661249Y-69277D03*
G01X-5634998Y691554D03*
G01X-5629898Y1696267D03*
G01X-5629898Y1791468D03*
G01X-5629898Y1886669D03*
G01X-5621339Y3197136D03*
G01X-5621339Y3292337D03*
G01X-5621339Y3387539D03*
G01X-5621339Y3482740D03*
G01X-5611167Y-1434148D03*
G01X-5611167Y-694638D03*
G01X-5566048Y-69277D03*
G01X-5543772Y-3726560D03*
G01X-5538097Y-2137283D03*
G01X-5523371Y-2920749D03*
G01X-5518271Y-2533144D03*
G01X-5482879Y-340340D03*
G01X-5462171Y-3899962D03*
G01X-5354353Y-2144531D03*
G01X-5353545Y221427D03*
G01X-5349969Y-3078851D03*
G01X-5339304Y-357269D03*
G01X-5283094Y387250D03*
G01X-5283094Y482451D03*
G01X-5259152Y-2144531D03*
G01X-5258344Y221427D03*
G01X-5249062Y-1072043D03*
G01X-5244103Y-357269D03*
G01X-5222468Y2534733D03*
G01X-5193876Y-493342D03*
G01X-5163951Y-2144531D03*
G01X-5163143Y221427D03*
G01X-5148902Y-357269D03*
G01X-5145392Y606553D03*
G01X-5140292Y735754D03*
G01X-5114792Y387250D03*
G01X-5114792Y482451D03*
G01X-5113975Y-457642D03*
G01X-5111221Y-571534D03*
G01X-5068749Y-2144531D03*
G01X-5053700Y-357269D03*
G01X-5045841Y-13177D03*
G01X-5038291Y-3067195D03*
G01X-5022990Y601453D03*
G01X-5020341Y-4664437D03*
G01X-5020341Y-4516535D03*
G01X-5020341Y-4348233D03*
G01X-5005041Y226527D03*
G01X-4992390Y487551D03*
G01X-4950640Y-13177D03*
G01X-4915889Y-4780817D03*
G01X-4915889Y-4685616D03*
G01X-4915889Y-4590414D03*
G01X-4915889Y-4495213D03*
G01X-4909839Y226527D03*
G01X-4882639Y359128D03*
G01X-4870563Y-3170653D03*
G01X-4865463Y-2818748D03*
G01X-4855439Y-13177D03*
G01X-4814638Y226527D03*
G01X-4767987Y-4780817D03*
G01X-4767987Y-4685616D03*
G01X-4767987Y-4590414D03*
G01X-4767987Y-4495213D03*
G01X-4760237Y-13177D03*
G01X-4740902Y-104760D03*
G01X-4737387Y-4240210D03*
G01X-4727187Y-1516775D03*
G01X-4719437Y226527D03*
G01X-4691601Y-176161D03*
G01X-4672754Y-980242D03*
G01X-4672754Y-689538D03*
G01X-4665986Y-1812579D03*
G01X-4665986Y-1717377D03*
G01X-4665986Y-1622176D03*
G01X-4599685Y-4780817D03*
G01X-4599685Y-4685616D03*
G01X-4599685Y-4590414D03*
G01X-4599685Y-4495213D03*
G01X-4533959Y-3289543D03*
G01X-4502784Y-4775717D03*
G01X-4502784Y-4680516D03*
G01X-4502784Y-4585314D03*
G01X-4502784Y-4490113D03*
G01X-4498588Y-4327480D03*
G01X-4487484Y-3403799D03*
G01X-4479098Y-283262D03*
G01X-4427951Y-1597350D03*
G01X-4417751Y-4161077D03*
G01X-4390582Y-3470100D03*
G01X-4348832Y53124D03*
G01X-4330285Y-4327480D03*
G01X-4314081Y-4770617D03*
G01X-4314081Y-4675416D03*
G01X-4314081Y-4580214D03*
G01X-4314081Y-4485013D03*
G01X-4293681Y-2087982D03*
G01X-4291866Y-271333D03*
G01X-4268755Y914500D03*
G01X-4268755Y1531608D03*
G01X-4224730Y-53977D03*
G01X-4166179Y-4770617D03*
G01X-4166179Y-4675416D03*
G01X-4166179Y-4580214D03*
G01X-4166179Y-4485013D03*
G01X-4151454Y287192D03*
G01X-4132008Y-612335D03*
G01X-4115179Y752755D03*
G01X-4115179Y847956D03*
G01X-4115179Y943157D03*
G01X-4115179Y1038358D03*
G01X-4110079Y2328675D03*
G01X-4103549Y-2484761D03*
G01X-4103549Y-1270946D03*
G01X-4064178Y-710964D03*
G01X-4061528Y-232479D03*
G01X-4033578Y-799365D03*
G01X-4031680Y1163469D03*
G01X-3997877Y-4770617D03*
G01X-3997877Y-4675416D03*
G01X-3997877Y-4580214D03*
G01X-3997877Y-4485013D03*
G01X-3967277Y-1897580D03*
G01X-3967277Y752755D03*
G01X-3967277Y847956D03*
G01X-3967277Y943157D03*
G01X-3967277Y1038358D03*
G01X-3953506Y-840138D03*
G01X-3941776Y-1700377D03*
G01X-3921376Y-1596676D03*
G01X-3917026Y-334481D03*
G01X-3911176Y-2759491D03*
G01X-3906076Y273348D03*
G01X-3906076Y368550D03*
G01X-3906076Y463751D03*
G01X-3906076Y558952D03*
G01X-3906076Y-3291598D03*
G01X-3904178Y1134569D03*
G01X-3900976Y-3011094D03*
G01X-3895876Y-4337111D03*
G01X-3895876Y-2885292D03*
G01X-3888878Y993467D03*
G01X-3870376Y-862266D03*
G01X-3870376Y2247074D03*
G01X-3860175Y625253D03*
G01X-3849975Y-3521101D03*
G01X-3844875Y-1538875D03*
G01X-3829575Y-1654476D03*
G01X-3798975Y-4770617D03*
G01X-3798975Y-4675416D03*
G01X-3798975Y-4580214D03*
G01X-3798975Y-4485013D03*
G01X-3798975Y752755D03*
G01X-3798975Y847956D03*
G01X-3798975Y943157D03*
G01X-3798975Y1038358D03*
G01X-3794449Y-3772460D03*
G01X-3790304Y-945539D03*
G01X-3783674Y224048D03*
G01X-3783674Y475651D03*
G01X-3783674Y570852D03*
G01X-3783674Y666054D03*
G01X-3753649Y-2254229D03*
G01X-3747974Y-4337111D03*
G01X-3737754Y-1604259D03*
G01X-3737754Y-1509057D03*
G01X-3737754Y-1413856D03*
G01X-3732674Y351549D03*
G01X-3731193Y-1932350D03*
G01X-3696973Y-3708103D03*
G01X-3671473Y144147D03*
G01X-3651073Y-4770617D03*
G01X-3651073Y-4675416D03*
G01X-3651073Y-4580214D03*
G01X-3651073Y-4485013D03*
G01X-3651073Y-4265710D03*
G01X-3637441Y-4049773D03*
G01X-3635992Y-1932350D03*
G01X-3635773Y337949D03*
G01X-3635773Y475651D03*
G01X-3635773Y570852D03*
G01X-3634292Y-1825249D03*
G01X-3625572Y-70056D03*
G01X-3579672Y-4337111D03*
G01X-3539091Y-1825249D03*
G01X-3533771Y3450690D03*
G01X-3527191Y-1733448D03*
G01X-3503171Y-129557D03*
G01X-3482771Y-4770617D03*
G01X-3482771Y-4675416D03*
G01X-3482771Y-4580214D03*
G01X-3482771Y-4485013D03*
G01X-3472570Y-4224910D03*
G01X-3464039Y-2749965D03*
G01X-3447070Y3343588D03*
G01X-3431989Y-1733448D03*
G01X-3421570Y-4337111D03*
G01X-3385869Y3450690D03*
G01X-3377338Y-1184245D03*
G01X-3375669Y-3118195D03*
G01X-3370569Y-3924006D03*
G01X-3370569Y-3828805D03*
G01X-3370569Y-3733603D03*
G01X-3370569Y-3638402D03*
G01X-3324668Y-4224910D03*
G01X-3314468Y-4775717D03*
G01X-3314468Y-4680516D03*
G01X-3314468Y-4585314D03*
G01X-3314468Y-4490113D03*
G01X-3311178Y-688774D03*
G01X-3299168Y3343588D03*
G01X-3273668Y-4337111D03*
G01X-3227767Y-2050582D03*
G01X-3227767Y-1955380D03*
G01X-3222667Y-3924006D03*
G01X-3222667Y-3828805D03*
G01X-3217567Y3450690D03*
G01X-3193876Y-576572D03*
G01X-3178576Y-693874D03*
G01X-3176767Y-3311998D03*
G01X-3166566Y-4775717D03*
G01X-3166566Y-4680516D03*
G01X-3166566Y-4585314D03*
G01X-3166566Y-4490113D03*
G01X-3166566Y-2924393D03*
G01X-3156366Y-4224910D03*
G01X-3130866Y3343588D03*
G01X-3120666Y-1217571D03*
G01X-3120666Y-1122370D03*
G01X-3110466Y-2040381D03*
G01X-3110466Y-1945180D03*
G01X-3105366Y-4337111D03*
G01X-3064565Y-3250797D03*
G01X-3054365Y-3924006D03*
G01X-3054365Y-3828805D03*
G01X-3054365Y-2812191D03*
G01X-3049265Y3144686D03*
G01X-3039065Y3282387D03*
G01X-3033965Y-1033968D03*
G01X-3033965Y-938767D03*
G01X-3033965Y-843566D03*
G01X-3025574Y-729574D03*
G01X-3023190Y-1997543D03*
G01X-3023190Y-1902342D03*
G01X-3008464Y-4214710D03*
G01X-3008464Y1966570D03*
G01X-3008464Y2061772D03*
G01X-3008464Y2156973D03*
G01X-3008464Y2252174D03*
G01X-2998264Y-4775717D03*
G01X-2998264Y-4680516D03*
G01X-2998264Y-4585314D03*
G01X-2998264Y-4490113D03*
G01X-2993164Y3450690D03*
G01X-2967664Y-3300098D03*
G01X-2967664Y-3204897D03*
G01X-2962564Y-4337111D03*
G01X-2957464Y2287875D03*
G01X-2957464Y-2040381D03*
G01X-2957464Y-1945180D03*
G01X-2952364Y-3913806D03*
G01X-2952364Y-3818605D03*
G01X-2952364Y2099172D03*
G01X-2947264Y-1054369D03*
G01X-2947264Y-959167D03*
G01X-2947264Y-863966D03*
G01X-2921763Y2634679D03*
G01X-2906463Y-3102895D03*
G01X-2901363Y3144686D03*
G01X-2891163Y3282387D03*
G01X-2860562Y-4214710D03*
G01X-2860562Y1966570D03*
G01X-2860562Y2061772D03*
G01X-2860562Y2156973D03*
G01X-2860562Y2252174D03*
G01X-2845262Y3450690D03*
G01X-2831772Y-831575D03*
G01X-2831631Y-2755065D03*
G01X-2829962Y-4770617D03*
G01X-2829962Y-4675416D03*
G01X-2829962Y-4580214D03*
G01X-2829962Y-4485013D03*
G01X-2819762Y-3490500D03*
G01X-2819762Y-3395299D03*
G01X-2819762Y-3300098D03*
G01X-2819762Y-3204897D03*
G01X-2814662Y-4337111D03*
G01X-2811371Y-744874D03*
G01X-2804462Y-3913806D03*
G01X-2804462Y-3818605D03*
G01X-2804462Y-3723403D03*
G01X-2804462Y-3628202D03*
G01X-2804462Y-3016194D03*
G01X-2773861Y2634679D03*
G01X-2733061Y3144686D03*
G01X-2724529Y-2143057D03*
G01X-2722861Y3282387D03*
G01X-2707560Y-3119895D03*
G01X-2707560Y-3024694D03*
G01X-2707560Y-2929493D03*
G01X-2692260Y-4214710D03*
G01X-2692260Y1966570D03*
G01X-2692260Y2061772D03*
G01X-2692260Y2156973D03*
G01X-2692260Y2252174D03*
G01X-2682060Y-4770617D03*
G01X-2682060Y-4675416D03*
G01X-2682060Y-4580214D03*
G01X-2682060Y-4485013D03*
G01X-2676960Y3450690D03*
G01X-2661660Y-2771391D03*
G01X-2651460Y-3490500D03*
G01X-2651460Y-3395299D03*
G01X-2651460Y-3300098D03*
G01X-2651460Y-3204897D03*
G01X-2646360Y-4337111D03*
G01X-2641260Y-2373586D03*
G01X-2636160Y-3913806D03*
G01X-2636160Y-3818605D03*
G01X-2636160Y-3723403D03*
G01X-2636160Y-3628202D03*
G01X-2631060Y2088972D03*
G01X-2605559Y-1698677D03*
G01X-2605559Y2634679D03*
G01X-2590834Y-1040413D03*
G01X-2554559Y3328288D03*
G01X-2545566Y-2448502D03*
G01X-2545094Y-1282328D03*
G01X-2539258Y-1639176D03*
G01X-2523958Y3455790D03*
G01X-2513758Y-4770617D03*
G01X-2513758Y-4675416D03*
G01X-2513758Y-4580214D03*
G01X-2513758Y-4485013D03*
G01X-2508658Y2961083D03*
G01X-2493358Y3261987D03*
G01X-2488258Y3170186D03*
G01X-2473708Y-1308593D03*
G01X-2467857Y3068185D03*
G01X-2449267Y-1152880D03*
G01X-2414193Y-1460831D03*
G01X-2411757Y3216087D03*
G01X-2411757Y3311288D03*
G01X-2411757Y3406489D03*
G01X-2411757Y3501690D03*
G01X-2409107Y-1364694D03*
G01X-2372766Y-729574D03*
G01X-2370956Y2795038D03*
G01X-2370956Y2890239D03*
G01X-2370956Y2985440D03*
G01X-2370956Y3080641D03*
G01X-2360756Y-4811417D03*
G01X-2360756Y-4716216D03*
G01X-2360756Y-4621015D03*
G01X-2360756Y-4525814D03*
G01X-2344492Y-1440430D03*
G01X-2324106Y-1364694D03*
G01X-2321765Y-1127379D03*
G01X-2289355Y-265559D03*
G01X-2289355Y-170357D03*
G01X-2275723Y-2112457D03*
G01X-2263855Y3216087D03*
G01X-2263855Y3311288D03*
G01X-2263855Y3406489D03*
G01X-2263855Y3501690D03*
G01X-2223054Y2795038D03*
G01X-2223054Y2890239D03*
G01X-2223054Y2985440D03*
G01X-2223054Y3080641D03*
G01X-2219764Y-948877D03*
G01X-2217954Y1344362D03*
G01X-2217954Y1439564D03*
G01X-2217954Y1534765D03*
G01X-2217954Y1629966D03*
G01X-2212854Y-4811417D03*
G01X-2212854Y-4716216D03*
G01X-2212854Y-4621015D03*
G01X-2212854Y-4525814D03*
G01X-2202763Y1203351D03*
G01X-2182254Y-234958D03*
G01X-2182254Y-139757D03*
G01X-2177154Y3445590D03*
G01X-2158563Y-841776D03*
G01X-2108203Y1287340D03*
G01X-2095553Y3216087D03*
G01X-2095553Y3311288D03*
G01X-2095553Y3406489D03*
G01X-2095553Y3501690D03*
G01X-2070052Y1439564D03*
G01X-2070052Y1534765D03*
G01X-2070052Y1629966D03*
G01X-2068572Y-137127D03*
G01X-2054752Y2795038D03*
G01X-2054752Y2890239D03*
G01X-2054752Y2985440D03*
G01X-2054752Y3080641D03*
G01X-2044552Y-4811417D03*
G01X-2044552Y-4716216D03*
G01X-2044552Y-4621015D03*
G01X-2044552Y-4525814D03*
G01X-2020861Y468941D03*
G01X-2019595Y567687D03*
G01X-2013952Y3205886D03*
G01X-2013952Y3301088D03*
G01X-2013952Y3396289D03*
G01X-2012361Y1203351D03*
G01X-2005561Y1300252D03*
G01X-1979920Y-3887279D03*
G01X-1978251Y3491490D03*
G01X-1973370Y-137127D03*
G01X-1932350Y2787681D03*
G01X-1932350Y2882882D03*
G01X-1932350Y2978083D03*
G01X-1932350Y3073285D03*
G01X-1925660Y468941D03*
G01X-1924393Y567687D03*
G01X-1917160Y1203351D03*
G01X-1902325Y-1545320D03*
G01X-1902325Y-2769336D03*
G01X-1901750Y1439564D03*
G01X-1901750Y1534765D03*
G01X-1901750Y1629966D03*
G01X-1892124Y-1239316D03*
G01X-1866050Y3205886D03*
G01X-1866050Y3301088D03*
G01X-1866050Y3396289D03*
G01X-1866050Y3491490D03*
G01X-1855849Y635453D03*
G01X-1825249Y793555D03*
G01X-1821959Y-1035578D03*
G01X-1809949Y880256D03*
G01X-1800499Y981336D03*
G01X-1799749Y1094459D03*
G01X-1798799Y1185339D03*
G01X-1794649Y-4842018D03*
G01X-1794649Y-4746817D03*
G01X-1794649Y-4651615D03*
G01X-1794649Y-4556414D03*
G01X-1784449Y2787681D03*
G01X-1784449Y2882882D03*
G01X-1784449Y2978083D03*
G01X-1784449Y3073285D03*
G01X-1780442Y-2675670D03*
G01X-1776058Y-719374D03*
G01X-1774823Y-1892124D03*
G01X-1735793Y-3287410D03*
G01X-1729442Y-2592369D03*
G01X-1719957Y-1004978D03*
G01X-1697747Y3205886D03*
G01X-1697747Y3301088D03*
G01X-1697747Y3396289D03*
G01X-1697747Y3491490D03*
G01X-1656947Y-4464613D03*
G01X-1656947Y-4369412D03*
G01X-1656947Y-4274210D03*
G01X-1656947Y-4179009D03*
G01X-1646747Y-4842018D03*
G01X-1646747Y-4746817D03*
G01X-1646747Y-4651615D03*
G01X-1646747Y-4556414D03*
G01X-1638891Y-3210909D03*
G01X-1616146Y2787681D03*
G01X-1616146Y2882882D03*
G01X-1616146Y2978083D03*
G01X-1616146Y3073285D03*
G01X-1590646Y3200786D03*
G01X-1590646Y3295988D03*
G01X-1590646Y3391189D03*
G01X-1590646Y3486390D03*
G01X-1509045Y-4464613D03*
G01X-1509045Y-4369412D03*
G01X-1509045Y-4274210D03*
G01X-1509045Y-4179009D03*
G01X-1478445Y-4842018D03*
G01X-1478445Y-4746817D03*
G01X-1478445Y-4651615D03*
G01X-1478445Y-4556414D03*
G01X-1458044Y2738380D03*
G01X-1447844Y2838682D03*
G01X-1447844Y2949183D03*
G01X-1447844Y3063085D03*
G01X-1442744Y3200786D03*
G01X-1442744Y3295988D03*
G01X-1442744Y3391189D03*
G01X-1442744Y3486390D03*
G01X-1394088Y-3282310D03*
G01X-1346417Y-173402D03*
G01X-1340743Y-4464613D03*
G01X-1340743Y-4369412D03*
G01X-1340743Y-4274210D03*
G01X-1340743Y-4179009D03*
G01X-1340743Y-2703390D03*
G01X-1340743Y-2608189D03*
G01X-1274442Y3200786D03*
G01X-1274442Y3295988D03*
G01X-1274442Y3391189D03*
G01X-1274442Y3486390D03*
G01X-1268224Y-751063D03*
G01X-1264242Y2717980D03*
G01X-1208141Y2615979D03*
G01X-1184985Y-3210909D03*
G01X-1172441Y2782581D03*
G01X-1133450Y-943777D03*
G01X-1127115Y2228729D03*
G01X-1111240Y2711180D03*
G01X-1090949Y-1397683D03*
G01X-1035313Y-1045514D03*
G01X-1035313Y-173402D03*
G01X-1017848Y-1433383D03*
G01X-1011048Y-749974D03*
G01X-981051Y187280D03*
G01X-975883Y-3185408D03*
G01X-975883Y-3090207D03*
G01X-938125Y78876D03*
G01X-917252Y-33659D03*
G01X-915199Y1181876D03*
G01X-915199Y1277077D03*
G01X-915199Y1372279D03*
G01X-915199Y1467480D03*
G01X-897037Y977158D03*
G01X-877211Y-1759523D03*
G01X-833149Y187280D03*
G01X-816011Y-1229116D03*
G01X-815436Y1058759D03*
G01X-790223Y78876D03*
G01X-769351Y-33659D03*
G01X-767298Y1181876D03*
G01X-767298Y1277077D03*
G01X-767298Y1372279D03*
G01X-767298Y1467480D03*
G01X-756045Y-1045778D03*
G01X-744035Y824156D03*
G01X-744035Y951657D03*
G01X-682932Y-1007839D03*
G01X-664847Y187280D03*
G01X-664244Y-749974D03*
G01X-654043Y-678573D03*
G01X-642608Y-370007D03*
G01X-626734Y1033258D03*
G01X-621921Y78876D03*
G01X-621634Y880256D03*
G01X-606333Y701754D03*
G01X-601048Y-33659D03*
G01X-598995Y1181876D03*
G01X-598995Y1277077D03*
G01X-598995Y1372279D03*
G01X-598995Y1467480D03*
G01X-553852Y-2554559D03*
G01X-520397Y-2273270D03*
G01X-490841Y-1290581D03*
G01X-458651Y-2554559D03*
G01X-404140Y-1265081D03*
G01X-402331Y2532678D03*
G01X-402331Y2627879D03*
G01X-402331Y2723080D03*
G01X-402331Y2818281D03*
G01X-393940Y-1499684D03*
G01X-388840Y-943777D03*
G01X-342939Y-1045778D03*
G01X-330930Y2104272D03*
G01X-330930Y2199473D03*
G01X-330930Y2294675D03*
G01X-330930Y2389876D03*
G01X-316204Y-370007D03*
G01X-305429Y1354562D03*
G01X-255193Y-2048867D03*
G01X-254429Y2532678D03*
G01X-254429Y2627879D03*
G01X-254429Y2723080D03*
G01X-254429Y2818281D03*
G01X-223828Y1451464D03*
G01X-213628Y1548365D03*
G01X-183028Y2104272D03*
G01X-183028Y2199473D03*
G01X-183028Y2294675D03*
G01X-183028Y2389876D03*
G01X-86127Y2532678D03*
G01X-86127Y2627879D03*
G01X-86127Y2723080D03*
G01X-86127Y2818281D03*
G01X-14726Y2104272D03*
G01X-14726Y2199473D03*
G01X-14726Y2294675D03*
G01X-14726Y2389876D03*
G01X18630Y-3454012D03*
G01X18630Y-3358811D03*
G01X18630Y-3263609D03*
G01X18630Y-3168408D03*
G01X51575Y-1307672D03*
G01X51575Y-1212471D03*
G01X51575Y-1117270D03*
G01X51575Y-1022068D03*
G01X112776Y-4597215D03*
G01X186932Y-3358811D03*
G01X186932Y-3263609D03*
G01X199477Y-1307672D03*
G01X199477Y-1212471D03*
G01X199477Y-1117270D03*
G01X199477Y-1022068D03*
G01X204577Y1706467D03*
G01X204577Y1801668D03*
G01X204577Y1896869D03*
G01X204577Y1992071D03*
G01X235178Y-2174683D03*
G01X235178Y-2079482D03*
G01X235178Y-1984281D03*
G01X260678Y-4597215D03*
G01X352479Y1706467D03*
G01X352479Y1801668D03*
G01X352479Y1896869D03*
G01X352479Y1992071D03*
G01X383079Y-2174683D03*
G01X383079Y-2079482D03*
G01X383079Y-1984281D03*
G01X383079Y-1889080D03*
G01X428980Y-4597215D03*
G01X520781Y1706467D03*
G01X520781Y1801668D03*
G01X520781Y1896869D03*
G01X520781Y1992071D03*
G01X551382Y-2174683D03*
G01X551382Y-2079482D03*
G01X551382Y-1984281D03*
G01X551382Y-1889080D03*
G01X556482Y-4682216D03*
G01X556482Y-4587014D03*
G01X651038Y-2857304D03*
G01X673783Y1777868D03*
G01X673783Y1873069D03*
G01X673783Y1968270D03*
G01X673783Y2063472D03*
G01X678883Y-1996181D03*
G01X704384Y-4682216D03*
G01X704384Y-4587014D03*
G01X714584Y-1822779D03*
G01X714584Y-1727577D03*
G01X714584Y-1632376D03*
G01X714584Y-1537175D03*
G01X793840Y-2862404D03*
G01X821685Y1777868D03*
G01X821685Y1873069D03*
G01X821685Y1968270D03*
G01X821685Y2063472D03*
G01X824441Y-2219796D03*
G01X862486Y-1822779D03*
G01X862486Y-1727577D03*
G01X862486Y-1632376D03*
G01X862486Y-1537175D03*
G01X872686Y-4682216D03*
G01X872686Y-4587014D03*
G01X880297Y-3910199D03*
G01X903286Y-1411373D03*
G01X921342Y-2143295D03*
G01X938412Y851711D03*
G01X975498Y-3910199D03*
G01X989987Y1777868D03*
G01X989987Y1873069D03*
G01X989987Y1968270D03*
G01X989987Y2063472D03*
G01X1000187Y-1577976D03*
G01X1030788Y-4592115D03*
G01X1030788Y-1822779D03*
G01X1066488Y105046D03*
G01X1070699Y-3910199D03*
G01X1127689Y2049871D03*
G01X1127689Y2145073D03*
G01X1153189Y201948D03*
G01X1168490Y-1346773D03*
G01X1178690Y-4592115D03*
G01X1199090Y314149D03*
G01X1208526Y949971D03*
G01X1237440Y-3868826D03*
G01X1260291Y2202873D03*
G01X1260291Y2298075D03*
G01X1262478Y-3264991D03*
G01X1300341Y-2843713D03*
G01X1324141Y-3175217D03*
G01X1326592Y162847D03*
G01X1326592Y258048D03*
G01X1329540Y2392590D03*
G01X1329540Y2487791D03*
G01X1332641Y-3868826D03*
G01X1346992Y-4592115D03*
G01X1378080Y-3259891D03*
G01X1419343Y-3175217D03*
G01X1427843Y-3868826D03*
G01X1454093Y2554778D03*
G01X1454093Y2649979D03*
G01X1473281Y-3259891D03*
G01X1499994Y-4581914D03*
G01X1519630Y-2395672D03*
G01X1525494Y-4789317D03*
G01X1566295Y2646579D03*
G01X1566295Y2741780D03*
G01X1647896Y-4581914D03*
G01X1652996Y-4753617D03*
G01X1668296Y2687380D03*
G01X1668296Y2782581D03*
G01X1790698Y2702680D03*
G01X1790698Y2797881D03*
G01X1816198Y-4677116D03*
G01X1816198Y-4581914D03*
G01X1909540Y2654986D03*
G01X1909540Y2750187D03*
G04 Drill Drawing End*

M02*

