G04 Layer: CustomLayer1*
G04 EasyEDA Pro v2.2.32.3, 2025-07-09 15:58:04*
G04 Gerber Generator version 0.3*
G04 Scale: 100 percent, Rotated: No, Reflected: No*
G04 Dimensions in millimeters*
G04 Leading zeros omitted, absolute positions, 3 integers and 5 decimals*
%FSLAX35Y35*%
%MOMM*%
%ADD10C,0.15*%
G75*


G04 PolygonModel Start*
G54D10*
G01X-3480743Y2099513D02*
G01X-3480743Y1667513D01*
G01X-3220743Y2099513D02*
G01X-3220743Y1667513D01*
G01X-3220743Y2099513D02*
G01X-3480743Y2099513D01*
G01X-3220743Y1667513D02*
G01X-3480743Y1667513D01*
G01X-3481941Y721383D02*
G01X-3481941Y1153383D01*
G01X-3741941Y721383D02*
G01X-3741941Y1153383D01*
G01X-3741941Y721383D02*
G01X-3481941Y721383D01*
G01X-3741941Y1153383D02*
G01X-3481941Y1153383D01*
G01X-1576219Y-420007D02*
G01X-1266219Y-420007D01*
G01X-1576219Y-600007D02*
G01X-1266219Y-600007D01*
G01X-1266219Y-420007D02*
G01X-1266219Y-600007D01*
G01X-1576219Y-420007D02*
G01X-1576219Y-600007D01*
G01X-5394069Y-3473555D02*
G01X-5394069Y-3163555D01*
G01X-5214069Y-3473555D02*
G01X-5214069Y-3163555D01*
G01X-5394069Y-3163555D02*
G01X-5214069Y-3163555D01*
G01X-5394069Y-3473555D02*
G01X-5214069Y-3473555D01*
G01X-3858338Y2094183D02*
G01X-3858338Y1662183D01*
G01X-3598338Y2094183D02*
G01X-3598338Y1662183D01*
G01X-3598338Y2094183D02*
G01X-3858338Y2094183D01*
G01X-3598338Y1662183D02*
G01X-3858338Y1662183D01*
G01X-909803Y-2709878D02*
G01X-909803Y-3019878D01*
G01X-1089803Y-2709878D02*
G01X-1089803Y-3019878D01*
G01X-909803Y-3019878D02*
G01X-1089803Y-3019878D01*
G01X-909803Y-2709878D02*
G01X-1089803Y-2709878D01*
G01X-996511Y-420007D02*
G01X-686511Y-420007D01*
G01X-996511Y-600007D02*
G01X-686511Y-600007D01*
G01X-686511Y-420007D02*
G01X-686511Y-600007D01*
G01X-996511Y-420007D02*
G01X-996511Y-600007D01*
G01X-2735634Y-420007D02*
G01X-2425634Y-420007D01*
G01X-2735634Y-600007D02*
G01X-2425634Y-600007D01*
G01X-2425634Y-420007D02*
G01X-2425634Y-600007D01*
G01X-2735634Y-420007D02*
G01X-2735634Y-600007D01*
G01X-2155926Y-420007D02*
G01X-1845926Y-420007D01*
G01X-2155926Y-600007D02*
G01X-1845926Y-600007D01*
G01X-1845926Y-420007D02*
G01X-1845926Y-600007D01*
G01X-2155926Y-420007D02*
G01X-2155926Y-600007D01*
G01X-1297369Y-1074699D02*
G01X-1297369Y-1384699D01*
G01X-1477369Y-1074699D02*
G01X-1477369Y-1384699D01*
G01X-1297369Y-1384699D02*
G01X-1477369Y-1384699D01*
G01X-1297369Y-1074699D02*
G01X-1477369Y-1074699D01*

M02*

