;TYPE=PLATED
;Layer: PTH_Through
;EasyEDA Pro Client v2.2.32.3, 2026-04-25 18:16:38
;Gerber Generator version 0.3
M48
METRIC,LZ,000.00000
;Hole size 1 = 0.30000 METRIC
T01C0.30000
;Hole size 2 = 0.60000 METRIC
T02C0.60000
;Hole size 3 = 0.80000 METRIC
T03C0.80000
;Hole size 4 = 0.80000 METRIC
T04C0.80000
;Hole size 5 = 0.90000 METRIC
T05C0.90000
;Hole size 6 = 1.00000 METRIC
T06C1.00000
;Hole size 7 = 1.10002 METRIC
T07C1.10002
;Hole size 8 = 1.19888 METRIC
T08C1.19888
;Hole size 9 = 1.19990 METRIC
T09C1.19990
;Hole size 10 = 1.40000 METRIC
T10C1.40000
;Hole size 11 = 1.90002 METRIC
T11C1.90002
;Hole size 12 = 2.50002 METRIC
T12C2.50002
;Hole size 13 = 4.32000 METRIC
T13C4.32000
%
G05
G90
T01
X-83.94577Y84.28146
X-61.09747Y44.80695
X-61.55648Y42.91992
X-84.45577Y52.35505
X-62.27049Y77.70237
X-85.57779Y40.6759
X-71.55261Y86.72949
X-56.81341Y78.00838
X-71.96061Y62.75207
X-61.70948Y60.66815
X-60.28146Y56.6391
X-58.44544Y54.75208
X-55.23239Y42.86892
X-63.5455Y80.40541
X-60.17946Y78.00838
X-67.11555Y79.3344
X-82.00774Y82.90444
X-82.00774Y85.81148
X-82.31374Y76.17235
X-51.56035Y61.12716
X-73.38863Y65.56422
X-69.56358Y65.56422
X-61.86248Y66.89023
X-61.30147Y67.80825
X-47.48029Y42.00191
X-46.76628Y41.3899
X-49.72432Y68.26725
X-32.6901Y68.26725
X-43.75725Y53.57906
X-38.09617Y54.24207
X-38.09617Y57.60811
X-38.81018Y68.21625
X-44.67526Y68.2279
X-58.39443Y67.70625
X-55.18139Y41.54291
X-63.4945Y41.54291
X-59.41445Y42.81792
X-66.29954Y42.25692
X-63.90251Y40.7269
X-54.11038Y41.3899
X-77.87669Y34.70882
X-71.90961Y35.88183
X-77.87669Y36.18784
X-71.65461Y38.32986
X-57.79837Y43.37893
X-48.44931Y57.50611
X-48.18529Y55.11843
X-58.90444Y48.428
X-63.5965Y44.24594
X-84.76178Y50.41702
X-84.81278Y54.24207
X-82.51775Y54.55182
X-83.63976Y50.31502
X-61.40347Y37.41185
X-59.46545Y37.25885
X-55.9464Y37.81986
X-52.93736Y37.05485
X-44.87926Y39.60488
X-44.31825Y48.581
X-46.00127Y39.96189
X-50.59133Y39.40088
X-48.80631Y24.10068
X-62.67849Y23.08067
X-92.76888Y32.20979
X-92.76888Y31.08777
X-91.54486Y28.9936
X-91.79987Y33.84181
X-87.15881Y29.55775
X-72.31762Y22.67266
X-60.53646Y22.21366
X-28.35505Y38.83987
X-28.71205Y36.59584
X-30.14007Y44.09294
X-30.14007Y41.2369
X-53.95738Y69.33827
X-53.95738Y66.99224
X-51.96835Y59.34214
X-49.72432Y53.78306
X-46.10328Y53.52806
X-39.26919Y51.89604
X-32.1801Y53.44507
X-33.50611Y79.8444
X-39.67719Y80.20141
X-45.74627Y80.45641
X-78.02969Y86.21948
X-53.34537Y78.51839
X-79.0242Y102.9222
X-64.76952Y106.72175
X-48.1433Y46.84698
X-50.43833Y49.142
X-51.66235Y50.36602
X-57.22142Y50.36602
X-42.58423Y43.32793
X-42.63523Y41.84891
X-35.08713Y49.70301
X-34.62813Y46.13297
X-44.42025Y31.95478
X-43.45124Y43.17493
X-55.80739Y49.55001
X-58.70044Y33.94381
X-59.66945Y33.1788
X-60.48546Y32.51579
X-50.79534Y82.95544
X-29.68106Y63.37119
X-28.91605Y68.93026
X-40.85153Y47.07361
X-45.62291Y42.34969
X-45.59459Y41.51454
X-54.62171Y56.76373
X-56.40673Y58.14075
X-49.92965Y56.30473
X-54.1117Y55.59072
X-56.96774Y59.26277
X-56.02337Y50.97803
X-55.18271Y52.68368
X-58.24275Y47.27761
X-57.88575Y46.0026
X-59.61977Y44.52358
X-55.18271Y38.19949
X-55.33572Y39.11751
X-54.0607Y39.16851
X-51.81667Y38.14849
X-52.78568Y38.9645
X-51.00066Y42.22855
X-51.86767Y42.02454
X-49.52164Y44.01357
X-51.20466Y41.20853
X-52.32162Y40.57389
X-32.89543Y65.43385
X-33.15043Y63.85283
X-33.25243Y62.0168
X-45.08458Y66.09686
X-44.11557Y66.09686
X-42.94256Y65.94385
X-47.32861Y70.63591
X-48.45063Y70.99292
X-41.31053Y71.09492
X-34.57845Y70.53391
X-50.38865Y79.96903
X-56.91674Y83.38608
X-55.08071Y83.38608
X-55.89672Y75.12397
X-55.64172Y74.15496
X-58.65076Y76.909
X-57.22274Y73.84896
X-55.94772Y73.23695
X-57.17174Y72.77794
X-55.69272Y72.42094
X-55.43772Y70.53391
X-55.94772Y69.8709
X-56.96774Y70.68691
X-79.15302Y79.96903
X-80.68172Y80.11753
X-94.24922Y71.65593
X-93.49533Y69.28727
X-91.49518Y67.21887
X-61.7618Y40.08652
X-48.80638Y45.41889
X-50.89866Y52.47968
X-54.97871Y62.78181
X-56.35573Y62.57781
X-42.68755Y62.93481
X-83.28408Y41.25953
X-83.69208Y37.89349
X-84.30409Y41.92254
X-81.80506Y43.55456
X-83.13108Y43.65656
X-79.91803Y40.69853
X-75.68498Y39.27051
X-86.90512Y36.97548
X-84.55909Y37.89349
X-78.64302Y33.15043
X-78.79602Y31.51841
X-80.07104Y48.70563
X-80.58104Y48.09362
X-80.98905Y47.12461
X-74.00196Y48.75663
X-72.67594Y48.60363
X-71.50293Y47.43061
X-75.58298Y64.31183
X-68.69789Y74.40996
X-67.88188Y72.98194
X-68.74889Y71.91093
X-66.30086Y72.36994
X-71.65593Y77.87801
X-73.18595Y75.12397
X-73.49195Y74.20596
X-73.59395Y72.93094
X-81.75406Y79.86703
X-73.39467Y100.07671
X-73.39467Y98.91826
X-72.34388Y100.07671
X-72.34388Y98.91826
X-71.19205Y98.91826
X-71.19205Y100.07671
X-70.07962Y100.12771
X-70.07962Y98.96926
X-69.02883Y100.12771
X-69.02883Y98.96926
X-67.877Y98.96926
X-67.877Y100.12771
X-66.86658Y100.17871
X-66.86658Y99.02026
X-65.81579Y100.17871
X-65.81579Y99.02026
X-64.66396Y99.02026
X-64.66396Y100.17871
X-73.24166Y97.67968
X-73.24166Y96.52123
X-72.19087Y97.67968
X-72.19087Y96.52123
X-71.03905Y96.52123
X-71.03905Y97.67968
X-69.92662Y97.67968
X-69.92662Y96.52123
X-68.87583Y97.67968
X-68.87583Y96.52123
X-67.724Y96.52123
X-67.724Y97.67968
X-66.76458Y97.67968
X-66.76458Y96.52123
X-65.71379Y97.67968
X-65.71379Y96.52123
X-64.56196Y96.52123
X-64.56196Y97.67968
X-73.19066Y95.43565
X-73.19066Y94.2772
X-72.13987Y95.43565
X-72.13987Y94.2772
X-70.98804Y94.2772
X-70.98804Y95.43565
X-69.92662Y95.53765
X-69.92662Y94.3792
X-68.87583Y95.53765
X-68.87583Y94.3792
X-67.724Y94.3792
X-67.724Y95.53765
X-66.81558Y95.43565
X-66.81558Y94.2772
X-65.76479Y95.43565
X-65.76479Y94.2772
X-64.61296Y94.2772
X-64.61296Y95.43565
X-73.03766Y93.29362
X-73.03766Y92.13518
X-71.98687Y93.29362
X-71.98687Y92.13518
X-70.83504Y92.13518
X-70.83504Y93.29362
X-69.77362Y93.34462
X-69.77362Y92.18618
X-68.72283Y93.34462
X-68.72283Y92.18618
X-67.571Y92.18618
X-67.571Y93.34462
X-66.20357Y93.29362
X-66.20357Y92.13518
X-65.15278Y93.29362
X-65.15278Y92.13518
X-64.00095Y92.13518
X-64.00095Y93.29362
X-58.45147Y98.64869
X-58.45147Y97.49024
X-57.40068Y98.64869
X-57.40068Y97.49024
X-56.24885Y97.49024
X-56.24885Y98.64869
X-59.01248Y95.84365
X-59.01248Y94.68521
X-57.96169Y95.84365
X-57.96169Y94.68521
X-56.80986Y94.68521
X-56.80986Y95.84365
X-54.32042Y106.80879
X-54.32042Y105.65035
X-53.26963Y106.80879
X-53.26963Y105.65035
X-52.1178Y105.65035
X-52.1178Y106.80879
X-36.72519Y102.32074
X-36.72519Y101.16229
X-35.6744Y102.32074
X-35.6744Y101.16229
X-34.52257Y101.16229
X-34.52257Y102.32074
X-37.0312Y99.5667
X-37.0312Y98.40826
X-35.98041Y99.5667
X-35.98041Y98.40826
X-34.82858Y98.40826
X-34.82858Y99.5667
X-36.67419Y95.53765
X-36.67419Y94.3792
X-35.6234Y95.53765
X-35.6234Y94.3792
X-34.47157Y94.3792
X-34.47157Y95.53765
X-36.36819Y92.68161
X-36.36819Y91.52317
X-35.3174Y92.68161
X-35.3174Y91.52317
X-34.16557Y91.52317
X-34.16557Y92.68161
X-36.16418Y90.13158
X-36.16418Y88.97313
X-35.11339Y90.13158
X-35.11339Y88.97313
X-33.96157Y88.97313
X-33.96157Y90.13158
X-37.6942Y87.88755
X-37.6942Y86.72911
X-36.64341Y87.88755
X-36.64341Y86.72911
X-35.49159Y86.72911
X-35.49159Y87.88755
X-41.31525Y86.76553
X-41.31525Y85.60709
X-40.26446Y86.76553
X-40.26446Y85.60709
X-39.11263Y85.60709
X-39.11263Y86.76553
X-40.65224Y99.4137
X-40.65224Y98.25525
X-39.60145Y99.4137
X-39.60145Y98.25525
X-38.44962Y98.25525
X-38.44962Y99.4137
X-40.65224Y106.45179
X-40.65224Y105.29335
X-39.60145Y106.45179
X-39.60145Y105.29335
X-38.44962Y105.29335
X-38.44962Y106.45179
X-40.85625Y101.65773
X-40.85625Y100.49928
X-39.80546Y101.65773
X-39.80546Y100.49928
X-38.65363Y100.49928
X-38.65363Y101.65773
X-42.99827Y123.18001
X-42.99827Y122.02156
X-41.94748Y123.18001
X-41.94748Y122.02156
X-40.79565Y122.02156
X-40.79565Y123.18001
X-43.71228Y116.80492
X-43.71228Y115.64648
X-42.66149Y116.80492
X-42.66149Y115.64648
X-41.50966Y115.64648
X-41.50966Y116.80492
X-36.11318Y121.85399
X-36.11318Y120.69554
X-35.06239Y121.85399
X-35.06239Y120.69554
X-33.91056Y120.69554
X-33.91056Y121.85399
X-28.87109Y118.02894
X-28.87109Y116.8705
X-27.8203Y118.02894
X-27.8203Y116.8705
X-26.66847Y116.8705
X-26.66847Y118.02894
X-20.65998Y113.69388
X-20.65998Y112.53544
X-19.60919Y113.69388
X-19.60919Y112.53544
X-18.45736Y112.53544
X-18.45736Y113.69388
X-13.06089Y105.94178
X-13.06089Y104.78334
X-12.0101Y105.94178
X-12.0101Y104.78334
X-10.85827Y104.78334
X-10.85827Y105.94178
X-6.5328Y102.98374
X-6.5328Y101.8253
X-5.48201Y102.98374
X-5.48201Y101.8253
X-4.33018Y101.8253
X-4.33018Y102.98374
X-27.64707Y108.03281
X-27.64707Y106.87437
X-26.59628Y108.03281
X-26.59628Y106.87437
X-25.44446Y106.87437
X-25.44446Y108.03281
X-24.53603Y103.85075
X-24.53603Y102.69231
X-23.48524Y103.85075
X-23.48524Y102.69231
X-22.33341Y102.69231
X-22.33341Y103.85075
X-36.87819Y24.28973
X-36.87819Y23.13128
X-35.8274Y24.28973
X-35.8274Y23.13128
X-34.67557Y23.13128
X-34.67557Y24.28973
X-34.37916Y32.04183
X-34.37916Y30.88338
X-33.32837Y32.04183
X-33.32837Y30.88338
X-32.17654Y30.88338
X-32.17654Y32.04183
X-41.67226Y32.65383
X-41.67226Y31.49539
X-40.62147Y32.65383
X-40.62147Y31.49539
X-39.46964Y31.49539
X-39.46964Y32.65383
X-25.40305Y25.87075
X-25.40305Y24.7123
X-24.35226Y25.87075
X-24.35226Y24.7123
X-23.20043Y24.7123
X-23.20043Y25.87075
X-27.39207Y36.47888
X-27.39207Y35.32044
X-26.34128Y36.47888
X-26.34128Y35.32044
X-25.18945Y35.32044
X-25.18945Y36.47888
X-3.93177Y65.09025
X-3.93177Y63.93181
X-2.88098Y65.09025
X-2.88098Y63.93181
X-1.72915Y63.93181
X-1.72915Y65.09025
X-4.23777Y48.15803
X-4.23777Y46.99959
X-3.18698Y48.15803
X-3.18698Y46.99959
X-2.03515Y46.99959
X-2.03515Y48.15803
X-4.39077Y31.22582
X-4.39077Y30.06737
X-3.33998Y31.22582
X-3.33998Y30.06737
X-2.18815Y30.06737
X-2.18815Y31.22582
X-4.39077Y15.97662
X-4.39077Y14.81817
X-3.33998Y15.97662
X-3.33998Y14.81817
X-2.18815Y14.81817
X-2.18815Y15.97662
X-42.43727Y9.75454
X-42.43727Y8.59609
X-41.38648Y9.75454
X-41.38648Y8.59609
X-40.23465Y8.59609
X-40.23465Y9.75454
X-51.05638Y5.21548
X-51.05638Y4.05704
X-50.00559Y5.21548
X-50.00559Y4.05704
X-48.85376Y4.05704
X-48.85376Y5.21548
X-56.56445Y10.57055
X-56.56445Y9.4121
X-55.51366Y10.57055
X-55.51366Y9.4121
X-54.36183Y9.4121
X-54.36183Y10.57055
X-66.96858Y5.62348
X-66.96858Y4.46504
X-65.91779Y5.62348
X-65.91779Y4.46504
X-64.76596Y4.46504
X-64.76596Y5.62348
X-80.53476Y6.7455
X-80.53476Y5.58706
X-79.48397Y6.7455
X-79.48397Y5.58706
X-78.33214Y5.58706
X-78.33214Y6.7455
X-86.75684Y16.12962
X-86.75684Y14.97118
X-85.70605Y16.12962
X-85.70605Y14.97118
X-84.55422Y14.97118
X-84.55422Y16.12962
X-90.37789Y25.36074
X-90.37789Y24.2023
X-89.3271Y25.36074
X-89.3271Y24.2023
X-88.17527Y24.2023
X-88.17527Y25.36074
X-93.99893Y21.02568
X-93.99893Y19.86724
X-92.94814Y21.02568
X-92.94814Y19.86724
X-91.79631Y19.86724
X-91.79631Y21.02568
X-99.76201Y31.99083
X-99.76201Y30.83238
X-98.71122Y31.99083
X-98.71122Y30.83238
X-97.55939Y30.83238
X-97.55939Y31.99083
X-99.60901Y40.55894
X-99.60901Y39.40049
X-98.55822Y40.55894
X-98.55822Y39.40049
X-97.40639Y39.40049
X-97.40639Y40.55894
X-97.51798Y49.79006
X-97.51798Y48.63161
X-96.46719Y49.79006
X-96.46719Y48.63161
X-95.31536Y48.63161
X-95.31536Y49.79006
X-97.8139Y55.90593
X-97.8139Y54.74749
X-96.76311Y55.90593
X-96.76311Y54.74749
X-95.61128Y54.74749
X-95.61128Y55.90593
X-94.50894Y52.74809
X-94.50894Y51.58965
X-93.45815Y52.74809
X-93.45815Y51.58965
X-92.30632Y51.58965
X-92.30632Y52.74809
X-97.36498Y67.53829
X-97.36498Y66.37984
X-96.31419Y67.53829
X-96.31419Y66.37984
X-95.16236Y66.37984
X-95.16236Y67.53829
X-99.456Y81.81847
X-99.456Y80.66003
X-98.40521Y81.81847
X-98.40521Y80.66003
X-97.25338Y80.66003
X-97.25338Y81.81847
X-98.63999Y94.97664
X-98.63999Y93.8182
X-97.5892Y94.97664
X-97.5892Y93.8182
X-96.43737Y93.8182
X-96.43737Y94.97664
X-98.48699Y106.04378
X-98.48699Y104.88534
X-97.4362Y106.04378
X-97.4362Y104.88534
X-96.28437Y104.88534
X-96.28437Y106.04378
X-89.20487Y111.65386
X-89.20487Y110.49541
X-88.15408Y111.65386
X-88.15408Y110.49541
X-87.00225Y110.49541
X-87.00225Y111.65386
X-84.35981Y112.52087
X-84.35981Y111.36242
X-83.30902Y112.52087
X-83.30902Y111.36242
X-82.15719Y111.36242
X-82.15719Y112.52087
X-69.26361Y122.925
X-69.26361Y121.76656
X-68.21282Y122.925
X-68.21282Y121.76656
X-67.06099Y121.76656
X-67.06099Y122.925
X-77.32172Y117.82494
X-77.32172Y116.66649
X-76.27093Y117.82494
X-76.27093Y116.66649
X-75.1191Y116.66649
X-75.1191Y117.82494
X-64.26555Y112.01086
X-64.26555Y110.85242
X-63.21476Y112.01086
X-63.21476Y110.85242
X-62.06293Y110.85242
X-62.06293Y112.01086
X-80.53476Y110.32784
X-80.53476Y109.1694
X-79.48397Y110.32784
X-79.48397Y109.1694
X-78.33214Y109.1694
X-78.33214Y110.32784
X-57.07206Y90.15977
X-57.07206Y89.00133
X-56.02127Y90.15977
X-56.02127Y89.00133
X-54.86944Y89.00133
X-54.86944Y90.15977
X-56.36045Y85.43952
X-56.36045Y84.28107
X-55.30966Y85.43952
X-55.30966Y84.28107
X-54.15783Y84.28107
X-54.15783Y85.43952
X-60.4405Y87.98955
X-60.4405Y86.83111
X-59.38971Y87.98955
X-59.38971Y86.83111
X-58.23788Y86.83111
X-58.23788Y87.98955
X-88.33638Y61.50061
X-88.33638Y60.34217
X-87.28559Y61.50061
X-87.28559Y60.34217
X-86.13376Y60.34217
X-86.13376Y61.50061
X-85.83883Y64.78425
X-85.83883Y63.62581
X-84.78804Y64.78425
X-84.78804Y63.62581
X-83.63621Y63.62581
X-83.63621Y64.78425
X-56.60861Y66.98167
X-55.23944Y67.05083
X-57.17174Y62.98582
X-57.06974Y62.22081
X-65.17884Y65.38285
X-62.93481Y65.17884
X-59.56877Y35.08845
X-62.83281Y35.70046
X-65.63785Y37.57416
X-65.38285Y38.6585
X-49.2912Y36.3759
X-45.35039Y36.3759
T02
X-94.62496Y35.71871G85X-95.52496Y35.71871
X-94.62497Y27.06869G85X-95.525Y27.06869
X-98.97503Y35.71876G85X-99.57503Y35.71876
X-98.97503Y27.06879G85X-99.57503Y27.06879
T03
X-77.52098Y119.99377G85X-75.32098Y119.99377
X-71.67087Y119.89387G85X-71.67087Y121.09387
X-71.67087Y115.19385G85X-71.67087Y116.39385
X-81.17073Y119.894G85X-81.17073Y121.09399
X-81.17073Y115.19398G85X-81.17073Y116.39398
X-65.63785Y35.64946
T04
X-41.92122Y16.3026
X-41.92122Y18.8426
X-49.67834Y64.0852
X-52.21834Y64.0852
T05
X-24.89703Y87.0355
X-27.43703Y87.0355
X-29.97703Y87.0355
X-14.4419Y87.0355
X-16.9819Y87.0355
X-19.5219Y87.0355
X-14.4419Y94.12459
X-16.9819Y94.12459
X-19.5219Y94.12459
X-3.85574Y87.0355
X-6.39574Y87.0355
X-8.93574Y87.0355
X-3.85574Y94.12459
X-6.39574Y94.12459
X-8.93574Y94.12459
X-24.89703Y94.12459
X-27.43703Y94.12459
X-29.97703Y94.12459
X-3.87473Y34.94682
X-3.87473Y37.48682
X-3.87473Y40.02682
X-3.87473Y42.56682
X-3.87473Y51.96404
X-3.87473Y54.50404
X-3.87473Y57.04404
X-3.87473Y59.58404
X-2.49771Y68.98126
X-2.49771Y71.52126
X-2.49771Y74.06126
X-2.49771Y76.60126
X-3.87473Y17.9296
X-3.87473Y20.4696
X-3.87473Y23.0096
X-3.87473Y25.5496
X-79.30471Y14.66054
X-79.30471Y12.12054
T06
X-88.79279Y67.42532
X-88.79279Y69.92532
X-86.7928Y69.92532
X-86.7928Y67.42532
X-26.64204Y45.22427
X-24.10204Y45.22427
X-21.56204Y45.22427
X-19.02204Y45.22427
X-16.48204Y45.22427
X-13.94204Y45.22427
X-11.40204Y45.22427
X-8.86204Y45.22427
X-26.64204Y32.42427
X-24.10204Y32.42427
X-21.56204Y32.42427
X-19.02204Y32.42427
X-16.48204Y32.42427
X-13.94204Y32.42427
X-11.40204Y32.42427
X-8.86204Y32.42427
X-26.64204Y61.98627
X-24.10204Y61.98627
X-21.56204Y61.98627
X-19.02204Y61.98627
X-16.48204Y61.98627
X-13.94204Y61.98627
X-11.40204Y61.98627
X-8.86204Y61.98627
X-26.64204Y49.18627
X-24.10204Y49.18627
X-21.56204Y49.18627
X-19.02204Y49.18627
X-16.48204Y49.18627
X-13.94204Y49.18627
X-11.40204Y49.18627
X-8.86204Y49.18627
X-26.64204Y78.90327
X-24.10204Y78.90327
X-21.56204Y78.90327
X-19.02204Y78.90327
X-16.48204Y78.90327
X-13.94204Y78.90327
X-11.40204Y78.90327
X-8.86204Y78.90327
X-26.64204Y66.10327
X-24.10204Y66.10327
X-21.56204Y66.10327
X-19.02204Y66.10327
X-16.48204Y66.10327
X-13.94204Y66.10327
X-11.40204Y66.10327
X-8.86204Y66.10327
X-26.64204Y28.46227
X-24.10204Y28.46227
X-21.56204Y28.46227
X-19.02204Y28.46227
X-16.48204Y28.46227
X-13.94204Y28.46227
X-11.40204Y28.46227
X-8.86204Y28.46227
X-26.64204Y15.50727
X-24.10204Y15.50727
X-21.56204Y15.50727
X-19.02204Y15.50727
X-16.48204Y15.50727
X-13.94204Y15.50727
X-11.40204Y15.50727
X-8.86204Y15.50727
X-62.47344Y119.26791G85X-62.42345Y119.26791
X-64.97343Y119.26791G85X-64.92344Y119.26791
X-53.95633Y119.26791G85X-53.90634Y119.26791
X-56.45632Y119.26791G85X-56.40633Y119.26791
X-50.20737Y7.74052G85X-52.20737Y7.74052
X-52.20737Y13.9405G85X-50.20737Y13.9405
X-46.50728Y9.94051G85X-46.50728Y11.94051
T07
X-88.40498Y55.85504
X-88.40498Y53.35504
X-88.40498Y51.35505
X-88.40498Y48.85505
X-44.93026Y63.86615
X-44.93026Y61.32615
X-44.93026Y58.78615
X-44.93026Y56.24615
T08
X-94.5029Y79.24243
X-94.5029Y81.7837
X-94.5029Y84.32243
T09
X-90.46406Y58.92402G85X-91.76403Y58.92402
X-91.76555Y45.78607G85X-90.46558Y45.78607
T10
X-76.42093Y113.99393
X-93.94189Y96.10358
X-93.94189Y91.02358
X-93.94189Y107.78273
X-93.94189Y102.70273
T11
X-70.5895Y10.63653
X-60.98957Y10.63653
X-65.78953Y10.63653
T12
X-91.50287Y62.65531
X-91.50287Y74.69531
T13
X-96.0Y120.0
X-6.0Y120.0
X-6.0Y6.0
X-96.0Y6.0
M30