G04 Layer: BottomLayer*
G04 EasyEDA Pro v2.2.32.3, 2026-04-25 18:16:38*
G04 Gerber Generator version 0.3*
G04 Scale: 100 percent, Rotated: No, Reflected: No*
G04 Dimensions in millimeters*
G04 Leading zeros omitted, absolute positions, 3 integers and 5 decimals*
%FSLAX35Y35*%
%MOMM*%
%ADD10C,0.2032*%
%ADD11O,1.5X2.0*%
%ADD12R,1.5X2.0*%
%ADD13C,2.2*%
%ADD14O,3.79999X1.4*%
%ADD15O,1.4085X2.79999*%
%ADD16O,1.4X2.79999*%
%ADD17C,3.49999*%
%ADD18C,1.6*%
%ADD19O,3.19999X1.8*%
%ADD20O,2.0X1.1*%
%ADD21C,2.0*%
%ADD22R,1.5X1.5*%
%ADD23C,1.5*%
%ADD24R,2.0X1.5*%
%ADD25O,2.0X1.5*%
%ADD26R,1.7X1.7*%
%ADD27C,1.7*%
%ADD28R,1.524X1.524*%
%ADD29R,2.0X1.6*%
%ADD30O,2.0X1.6*%
%ADD31C,2.3*%
%ADD32C,1.8*%
%ADD33R,1.2X1.2*%
%ADD34C,1.2*%
%ADD35C,2.89999*%
%ADD36O,3.59999X1.6*%
%ADD37O,1.6X3.59999*%
%ADD38R,1.2X1.2*%
%ADD39C,7.0*%
%ADD40C,0.6*%
%ADD41C,0.4*%
%ADD42C,0.3*%
%ADD43C,0.5*%
G75*


G04 Copper Start*
G36*
G01X-1102339Y11497661D02*
G03X-35814Y11568280I502339J502339D01*
G01X-35814Y1031720D01*
G03X-1102339Y1102339I-564186J-431720D01*
G03X-1031720Y35814I502339J-502339D01*
G01X-9168280Y35814D01*
G03X-9097661Y1102339I-431720J564186D01*
G03X-10164186Y1031720I-502339J-502339D01*
G01X-10164186Y11568280D01*
G03X-9097661Y11497661I564186J431720D01*
G03X-9168280Y12564186I-502339J502339D01*
G01X-1031720Y12564186D01*
G03X-1102339Y11497661I431720J-564186D01*
G37*
%LPC*%
G36*
G01X-9488692Y3428366D02*
G03X-9630323Y3428366I-70815J0D01*
G03X-9488692Y3428366I70815J0D01*
G37*
G36*
G01X-9488692Y2850364D02*
G03X-9630323Y2850364I-70815J0D01*
G03X-9488692Y2850364I70815J0D01*
G37*
G36*
G01X-9450290Y7798429D02*
G03X-9450290Y8050057I0J125814D01*
G03X-9450290Y7798429I0J-125814D01*
G37*
G36*
G01X-9450290Y8306429D02*
G03X-9450290Y8558057I0J125814D01*
G03X-9450290Y8306429I0J-125814D01*
G37*
G36*
G01X-9394189Y10421087D02*
G03X-9394189Y10119459I0J-150814D01*
G03X-9394189Y10421087I0J150814D01*
G37*
G36*
G01X-7419130Y8159177D02*
G03X-7379663Y8142829I39466J39466D01*
G01X-6265468Y8142829D01*
G01X-5797309Y7674670D01*
G03X-5757842Y7658323I39466J39466D01*
G01X-5472239Y7658323D01*
G03X-5432772Y7674670I0J55814D01*
G01X-5319731Y7787712D01*
G03X-5287999Y7898376I-14806J64127D01*
G03X-5398664Y7866644I-46537J-46537D01*
G01X-5495358Y7769951D01*
G01X-5623226Y7769951D01*
G03X-5634804Y7847375I-58116J30887D01*
G01X-6506915Y8719487D01*
G03X-6553453Y8738763I-46537J-46537D01*
G01X-7155261Y8738763D01*
G03X-7221074Y8672949I0J-65814D01*
G03X-7155261Y8607135I65814J0D01*
G01X-6580714Y8607135D01*
G01X-6225400Y8251821D01*
G03X-6242349Y8254457I-16949J-53178D01*
G01X-7356545Y8254457D01*
G01X-7738842Y8636754D01*
G03X-7756431Y8668486I-64127J-14806D01*
G01X-8236841Y9148895D01*
G03X-8283378Y9168172I-46537J-46537D01*
G01X-9236255Y9168172D01*
G01X-9241241Y9168386D01*
G01X-9244443Y9168829D01*
G01X-9246822Y9169416D01*
G01X-9248690Y9170100D01*
G01X-9250374Y9170935D01*
G01X-9252156Y9172061D01*
G01X-9254225Y9173645D01*
G01X-9256413Y9175595D01*
G01X-9263038Y9182476D01*
G01X-9270816Y9191299D01*
G01X-9271186Y9191712D01*
G01X-9280340Y9201777D01*
G01X-9281868Y9203358D01*
G01X-9285187Y9206585D01*
G03X-9545003Y9102358I-109002J-104227D01*
G03X-9285187Y8998131I150814J0D01*
G01X-9281868Y9001358D01*
G01X-9280340Y9002938D01*
G01X-9271186Y9013004D01*
G01X-9270816Y9013417D01*
G01X-9263038Y9022240D01*
G01X-9256413Y9029121D01*
G01X-9254225Y9031071D01*
G01X-9252156Y9032655D01*
G01X-9250374Y9033781D01*
G01X-9248690Y9034616D01*
G01X-9246822Y9035300D01*
G01X-9244443Y9035887D01*
G01X-9241241Y9036330D01*
G01X-9236255Y9036544D01*
G01X-8310639Y9036544D01*
G01X-7849506Y8575411D01*
G03X-7817775Y8557822I46537J46537D01*
G01X-7419130Y8159177D01*
G37*
G36*
G01X-9215463Y2930949D02*
G01X-9215830Y2926900D01*
G01X-9216855Y2920376D01*
G03X-9154486Y2833546I62368J-21015D01*
G03X-9092118Y2920376I0J65814D01*
G01X-9093143Y2926900D01*
G01X-9093510Y2930949D01*
G01X-9093672Y2935942D01*
G01X-9093672Y3358680D01*
G03X-9111484Y3401682I-60814J0D01*
G01X-9119192Y3409390D01*
G03X-9222323Y3434570I-60794J-25210D01*
G03X-9215300Y3328643I42336J-50390D01*
G01X-9215300Y3244183D01*
G03X-9309685Y3278039I-61588J-23204D01*
G03X-9327938Y3179441I32797J-57060D01*
G01X-9327775Y3178823D01*
G01X-9327702Y3178122D01*
G01X-9327702Y3151633D01*
G01X-9327775Y3150933D01*
G01X-9327938Y3150315D01*
G03X-9309685Y3051717I51050J-41538D01*
G03X-9215300Y3085573I32797J57060D01*
G01X-9215300Y2935942D01*
G01X-9215463Y2930949D01*
G37*
G36*
G01X-8779287Y6934112D02*
G03X-8563473Y6992532I100000J58420D01*
G03X-8779287Y7050952I-115814J0D01*
G03X-8995101Y6992532I-100000J-58420D01*
G03X-8779287Y6934112I115814J0D01*
G37*
G36*
G01X-8840488Y5451318D02*
G03X-8898908Y5235505I0J-115814D01*
G03X-8840488Y5019691I58420J-100000D01*
G03X-8782068Y5235505I0J115814D01*
G03X-8840488Y5451318I-58420J100000D01*
G37*
G36*
G01X-8808677Y5710377D02*
G01X-8811599Y5707898D01*
G01X-8813797Y5706564D01*
G01X-8816821Y5705265D01*
G01X-8820893Y5704053D01*
G01X-8826048Y5703017D01*
G01X-8831989Y5702234D01*
G01X-8847283Y5701106D01*
G03X-8946462Y5538777I6795J-115614D01*
G03X-8759728Y5502481I105975J46714D01*
G01X-8694994Y5437747D01*
G01X-8694994Y4138990D01*
G03X-8675717Y4092453I65814J0D01*
G01X-8608662Y4025398D01*
G01X-8608593Y4024733D01*
G01X-8608593Y2257066D01*
G03X-8593710Y2221135I50814J0D01*
G01X-8486608Y2114034D01*
G03X-8450677Y2099151I35931J35931D01*
G01X-7349063Y2099151D01*
G03X-7313132Y2114034I0J50814D01*
G01X-7231762Y2195404D01*
G01X-7221792Y2185435D01*
G03X-7185861Y2170552I35931J35931D01*
G01X-6096502Y2170552D01*
G01X-6095802Y2170479D01*
G01X-6095184Y2170316D01*
G03X-5987832Y2221366I41538J51050D01*
G03X-6095184Y2272416I-65814J0D01*
G01X-6095802Y2272252D01*
G01X-6096502Y2272180D01*
G01X-6212680Y2272180D01*
G03X-6253043Y2372194I-55169J35887D01*
G01X-6676141Y2795292D01*
G01X-6676141Y4178807D01*
G03X-6633075Y4159952I46187J46885D01*
G03X-6588416Y4174642I3121J65740D01*
G01X-6587798Y4174805D01*
G01X-6587098Y4174878D01*
G01X-6411961Y4174878D01*
G03X-6412283Y4134706I62511J-20587D01*
G03X-6447619Y4040435I22032J-62017D01*
G03X-6348713Y4021640I57368J32254D01*
G01X-6348095Y4021803D01*
G01X-6347394Y4021876D01*
G01X-6240652Y4021876D01*
G03X-6241649Y4015378I64472J-13224D01*
G01X-6241971Y4014826D01*
G01X-6242415Y4014279D01*
G01X-6569804Y3686889D01*
G01X-6578841Y3678152D01*
G01X-6585579Y3672132D01*
G01X-6597829Y3662319D01*
G01X-6610832Y3651907D01*
G01X-6612295Y3650669D01*
G01X-6620281Y3643540D01*
G01X-6621316Y3642579D01*
G01X-6629438Y3634732D01*
G03X-6571652Y3469456I65653J-69786D01*
G03X-6487596Y3623046I7867J95490D01*
G01X-6487465Y3623506D01*
G01X-6486642Y3625295D01*
G01X-6485406Y3627207D01*
G01X-6483087Y3629883D01*
G01X-6170553Y3942417D01*
G01X-6170006Y3942861D01*
G01X-6169454Y3943183D01*
G03X-6111708Y4021876I-6726J65469D01*
G01X-5477339Y4021876D01*
G03X-5441408Y4036759I0J50814D01*
G01X-5405411Y4072756D01*
G01X-5404864Y4073200D01*
G01X-5404312Y4073521D01*
G03X-5352142Y4168364I-6726J65469D01*
G03X-5459287Y4183751I-58896J-29373D01*
G03X-5559677Y4205341I-58852J-29460D01*
G01X-5560295Y4205177D01*
G01X-5560996Y4205105D01*
G01X-5946271Y4205105D01*
G01X-5935818Y4215557D01*
G01X-5935271Y4216001D01*
G01X-5934719Y4216323D01*
G03X-5894907Y4328330I-6726J65469D01*
G03X-6006914Y4288519I-46538J-46537D01*
G01X-6007236Y4287966D01*
G01X-6007680Y4287419D01*
G01X-6018593Y4276506D01*
G01X-6091682Y4276506D01*
G03X-6090178Y4285266I-63966J15487D01*
G01X-6089857Y4285819D01*
G01X-6089413Y4286365D01*
G01X-6073816Y4301962D01*
G03X-6058933Y4337893I-35931J35931D01*
G01X-6058933Y4437839D01*
G01X-6058860Y4438539D01*
G01X-6058697Y4439157D01*
G03X-6109747Y4546509I-51050J41538D01*
G03X-6160797Y4439157I-0J-65814D01*
G01X-6160634Y4438539D01*
G01X-6160561Y4437839D01*
G01X-6160561Y4358941D01*
G01X-6161275Y4358227D01*
G01X-6161821Y4357783D01*
G01X-6162374Y4357462D01*
G03X-6219613Y4276506I6726J-65469D01*
G01X-6587098Y4276506D01*
G01X-6587798Y4276578D01*
G01X-6588416Y4276741D01*
G03X-6652330Y4287585I-41538J-51050D01*
G01X-6571134Y4368780D01*
G01X-6394525Y4368780D01*
G03X-6300689Y4395353I34875J55814D01*
G01X-6296801Y4400691D01*
G01X-6294197Y4403814D01*
G01X-6290781Y4407459D01*
G01X-5916947Y4781294D01*
G01X-5911460Y4780431D01*
G03X-5824630Y4842800I21015J62368D01*
G03X-5911460Y4905168I-65814J0D01*
G01X-5917983Y4904143D01*
G01X-5922033Y4903776D01*
G01X-5927026Y4903614D01*
G01X-5941445Y4903614D01*
G03X-5984447Y4885802I0J-60814D01*
G01X-6376785Y4493463D01*
G01X-6380430Y4490047D01*
G01X-6383553Y4487444D01*
G01X-6388891Y4483555D01*
G03X-6394525Y4480408I29241J-58961D01*
G01X-6594253Y4480408D01*
G03X-6633720Y4464061I0J-55814D01*
G01X-6771421Y4326359D01*
G03X-6787769Y4286892I39466J-39466D01*
G01X-6787769Y2772173D01*
G03X-6771421Y2732706I55814J0D01*
G01X-6331976Y2293261D01*
G03X-6323018Y2272180I64127J14806D01*
G01X-7164813Y2272180D01*
G01X-7165527Y2272893D01*
G01X-7165971Y2273440D01*
G01X-7166292Y2273992D01*
G03X-7231761Y2333080I-65469J-6726D01*
G03X-7297231Y2273992I-0J-65814D01*
G01X-7297552Y2273440D01*
G01X-7297996Y2272893D01*
G01X-7370111Y2200779D01*
G01X-8429629Y2200779D01*
G01X-8506965Y2278114D01*
G01X-8506965Y4024733D01*
G01X-8506892Y4025434D01*
G01X-8506729Y4026052D01*
G03X-8511241Y4114127I-51050J41538D01*
G01X-8563366Y4166251D01*
G01X-8563366Y5465008D01*
G03X-8582642Y5511545I-65814J0D01*
G01X-8702001Y5630904D01*
G01X-7842296Y6490608D01*
G01X-7338863Y6490608D01*
G03X-7285905Y6517346I0J65814D01*
G03X-7275977Y6575834I-52958J39076D01*
G01X-7055461Y6355318D01*
G03X-7012459Y6337506I43002J43002D01*
G01X-6293039Y6337506D01*
G01X-6025247Y6069714D01*
G03X-5982245Y6051902I43002J43002D01*
G01X-5192616Y6051902D01*
G01X-5187623Y6051740D01*
G01X-5183574Y6051373D01*
G01X-5177050Y6050348D01*
G03X-5090221Y6112716I21015J62368D01*
G03X-5177050Y6175084I-65814J0D01*
G01X-5183574Y6174059D01*
G01X-5187623Y6173692D01*
G01X-5192616Y6173530D01*
G01X-5957055Y6173530D01*
G01X-6224847Y6441322D01*
G03X-6267849Y6459134I-43002J-43002D01*
G01X-6987269Y6459134D01*
G01X-8162505Y7634370D01*
G01X-8165921Y7638016D01*
G01X-8168525Y7641138D01*
G01X-8172413Y7646476D01*
G03X-8225140Y7682753I-58961J-29241D01*
G03X-8283763Y7657072I-6234J-65518D01*
G01X-8283763Y8428146D01*
G03X-8505391Y8428146I-110814J0D01*
G01X-8505391Y6887926D01*
G01X-8539983Y6853334D01*
G01X-8583071Y6853334D01*
G01X-8600280Y6853541D01*
G01X-8616568Y6854081D01*
G01X-8645874Y6855751D01*
G01X-8662259Y6857075D01*
G03X-8795101Y6742520I-17028J-114555D01*
G03X-8662259Y6627965I115814J0D01*
G01X-8645874Y6629288D01*
G01X-8616568Y6630958D01*
G01X-8600280Y6631498D01*
G01X-8583071Y6631706D01*
G01X-8494082Y6631706D01*
G03X-8415725Y6664162I0J110814D01*
G01X-8316219Y6763668D01*
G03X-8283763Y6842025I-78357J78357D01*
G01X-8283763Y7577399D01*
G03X-8260615Y7558274I52388J39837D01*
G01X-8255277Y7554386D01*
G01X-8252155Y7551782D01*
G01X-8248509Y7548366D01*
G01X-7319451Y6619308D01*
G03X-7338863Y6622236I-19412J-62886D01*
G01X-7869557Y6622236D01*
G03X-7916095Y6602959I0J-65814D01*
G01X-8808677Y5710377D01*
G37*
G36*
G01X-8149887Y8538992D02*
G01X-8149724Y8539610D01*
G03X-8200774Y8646962I-51050J41538D01*
G03X-8251824Y8539610I-0J-65814D01*
G01X-8251661Y8538992D01*
G01X-8251588Y8538292D01*
G01X-8251588Y8333300D01*
G01X-8251661Y8332600D01*
G01X-8251824Y8331982D01*
G03X-8200774Y8224630I51050J-41538D01*
G03X-8149724Y8331982I0J65814D01*
G01X-8149887Y8332600D01*
G01X-8149960Y8333300D01*
G01X-8149960Y8538292D01*
G01X-8149887Y8538992D01*
G37*
G36*
G01X-8030471Y1350240D02*
G01X-7830470Y1350240D01*
G03X-7794656Y1386054I0J35814D01*
G01X-7794656Y1546054D01*
G03X-7830470Y1581868I-35814J0D01*
G01X-8030471Y1581868D01*
G03X-8066285Y1546054I0J-35814D01*
G01X-8066285Y1386054D01*
G03X-8030471Y1350240I35814J0D01*
G37*
G36*
G01X-6856907Y10236406D02*
G03X-6817440Y10252754I0J55814D01*
G01X-6462146Y10608048D01*
G03X-6430414Y10718712I-14806J64127D01*
G03X-6541079Y10686981I-46537J-46537D01*
G01X-6880026Y10348034D01*
G01X-7861516Y10348034D01*
G01X-7867545Y10348034D01*
G03X-7968234Y10292220I-34875J-55814D01*
G03X-7867545Y10236406I65814J0D01*
G01X-6856907Y10236406D01*
G37*
G36*
G01X-7793843Y3684575D02*
G01X-7794395Y3684253D01*
G03X-7834206Y3572246I6726J-65469D01*
G03X-7722199Y3612057I46538J46537D01*
G01X-7721878Y3612610D01*
G01X-7721434Y3613157D01*
G01X-7552418Y3782173D01*
G01X-7208317Y3782173D01*
G01X-7207616Y3782100D01*
G01X-7206998Y3781937D01*
G03X-7099647Y3832986I41538J51050D01*
G03X-7206998Y3884036I-65814J0D01*
G01X-7207616Y3883873D01*
G01X-7208317Y3883800D01*
G01X-7573466Y3883800D01*
G03X-7609397Y3868917I0J-50814D01*
G01X-7793296Y3685019D01*
G01X-7793843Y3684575D01*
G37*
G36*
G01X-7308262Y3420068D02*
G03X-7272332Y3434951I0J50814D01*
G01X-7185334Y3521949D01*
G01X-7184787Y3522392D01*
G01X-7184235Y3522714D01*
G03X-7144423Y3634721I-6726J65469D01*
G03X-7256430Y3594910I-46538J-46537D01*
G01X-7256752Y3594357D01*
G01X-7257196Y3593810D01*
G01X-7329310Y3521696D01*
G01X-7744813Y3521696D01*
G01X-7745513Y3521769D01*
G01X-7746131Y3521932D01*
G03X-7853483Y3470882I-41538J-51050D01*
G03X-7746131Y3419832I65814J-0D01*
G01X-7745513Y3419995D01*
G01X-7744813Y3420068D01*
G01X-7308262Y3420068D01*
G37*
G36*
G01X-7787901Y11399383D02*
G03X-7496274Y11399383I145814J0D01*
G03X-7787901Y11399383I-145814J0D01*
G37*
G36*
G01X-7521272Y12324375D02*
G03X-7762903Y12324375I-120815J0D01*
G03X-7521272Y12324375I120815J0D01*
G37*
G36*
G01X-6235075Y6052009D02*
G03X-6124410Y6020278I64127J14806D01*
G03X-6156142Y6130942I-46537J46537D01*
G01X-6339873Y6314674D01*
G03X-6379340Y6331021I-39466J-39466D01*
G01X-7161186Y6331021D01*
G03X-7261875Y6275207I-34875J-55814D01*
G03X-7161186Y6219393I65814J0D01*
G01X-6402459Y6219393D01*
G01X-6235075Y6052009D01*
G37*
G36*
G01X-7002895Y6602959D02*
G03X-7002895Y6509884I46537J-46537D01*
G03X-6909820Y6509884I46537J46537D01*
G01X-6180511Y7239194D01*
G03X-6161235Y7285731I-46537J46537D01*
G01X-6161235Y7749863D01*
G01X-5890257Y7478886D01*
G01X-5890257Y6813481D01*
G01X-5890330Y6812780D01*
G01X-5890493Y6812162D01*
G03X-5839444Y6704811I51050J-41538D01*
G03X-5788394Y6812162I0J65814D01*
G01X-5788557Y6812780D01*
G01X-5788630Y6813481D01*
G01X-5788630Y7499934D01*
G03X-5803513Y7535865I-50814J0D01*
G01X-6004137Y7736489D01*
G03X-5952230Y7804423I-13809J64349D01*
G03X-6011220Y7866307I-65716J-3585D01*
G01X-6011772Y7866629D01*
G01X-6012319Y7867073D01*
G01X-6221718Y8076472D01*
G03X-6257649Y8091355I-35931J-35931D01*
G01X-6311694Y8091355D01*
G01X-6312395Y8091428D01*
G01X-6313012Y8091591D01*
G03X-6408347Y8078453I-41538J-51050D01*
G03X-6388656Y7984254I53797J-37912D01*
G01X-6668699Y7984254D01*
G01X-6669399Y7984326D01*
G01X-6670017Y7984489D01*
G03X-6777369Y7933440I-41538J-51050D01*
G03X-6670017Y7882390I65814J-0D01*
G01X-6669399Y7882553D01*
G01X-6668699Y7882626D01*
G01X-6293997Y7882626D01*
G01X-6244943Y7833572D01*
G03X-6292862Y7770237I17895J-63334D01*
G01X-6292862Y7312992D01*
G01X-7002895Y6602959D01*
G37*
G36*
G01X-6571056Y12038805D02*
G03X-6606870Y12002991I0J-35814D01*
G01X-6606870Y11850591D01*
G03X-6571056Y11814777I35814J0D01*
G01X-6418656Y11814777D01*
G03X-6382842Y11850591I0J35814D01*
G01X-6382842Y12002991D01*
G03X-6418656Y12038805I-35814J0D01*
G01X-6571056Y12038805D01*
G37*
G36*
G01X-6321044Y12038805D02*
G03X-6356858Y12002991I0J-35814D01*
G01X-6356858Y11850591D01*
G03X-6321044Y11814777I35814J0D01*
G01X-6168644Y11814777D01*
G03X-6132830Y11850591I0J35814D01*
G01X-6132830Y12002991D01*
G03X-6168644Y12038805I-35814J0D01*
G01X-6321044Y12038805D01*
G37*
G36*
G01X-6279768Y1063651D02*
G03X-5918140Y1063651I180814J0D01*
G03X-6279768Y1063651I-180814J0D01*
G37*
G36*
G01X-4798843Y5913667D02*
G01X-4798843Y5797595D01*
G03X-4910400Y5757338I-46087J-46983D01*
G01X-4910722Y5756785D01*
G01X-4911165Y5756238D01*
G01X-4926762Y5740642D01*
G03X-4941645Y5704711I35931J-35931D01*
G01X-4941645Y5436475D01*
G03X-4957626Y5442433I-30787J-58169D01*
G01X-5141021Y5625828D01*
G01X-5141021Y5899339D01*
G03X-5196835Y6000028I-55814J34875D01*
G03X-5252649Y5899339I0J-65814D01*
G01X-5252649Y5602709D01*
G03X-5236302Y5563243I55814J0D01*
G01X-5036559Y5363501D01*
G03X-4941645Y5320138I64127J14806D01*
G01X-4941645Y5247947D01*
G01X-5113548Y5076043D01*
G03X-5207772Y5087652I-52686J-39441D01*
G01X-5208390Y5087489D01*
G01X-5209091Y5087416D01*
G01X-5679286Y5087416D01*
G01X-5679986Y5087489D01*
G01X-5680604Y5087652D01*
G03X-5787956Y5036602I-41538J-51050D01*
G03X-5680604Y4985552I65814J-0D01*
G01X-5679986Y4985715D01*
G01X-5679286Y4985788D01*
G01X-5209091Y4985788D01*
G01X-5208390Y4985715D01*
G01X-5207773Y4985552D01*
G03X-5205676Y4983916I41538J51050D01*
G01X-5785464Y4404128D01*
G01X-5786011Y4403684D01*
G01X-5786563Y4403362D01*
G03X-5826375Y4291356I6726J-65469D01*
G03X-5714368Y4331167I46538J46537D01*
G01X-5714046Y4331719D01*
G01X-5713602Y4332266D01*
G01X-5574053Y4471815D01*
G01X-5574053Y4329749D01*
G01X-5574126Y4329048D01*
G01X-5574289Y4328430D01*
G03X-5523240Y4221078I51050J-41538D01*
G03X-5472189Y4328430I0J65814D01*
G01X-5472353Y4329048D01*
G01X-5472425Y4329749D01*
G01X-5472425Y4509520D01*
G01X-5100765Y4881181D01*
G03X-5050559Y4848731I56931J33019D01*
G01X-5050007Y4848410D01*
G01X-5049460Y4847966D01*
G01X-4880565Y4679071D01*
G01X-4880121Y4678524D01*
G01X-4879800Y4677972D01*
G03X-4798843Y4620732I65469J6726D01*
G01X-4798843Y4243047D01*
G01X-4798916Y4242347D01*
G01X-4799079Y4241729D01*
G03X-4742298Y4134627I51050J-41538D01*
G03X-4652542Y4077742I65669J4363D01*
G03X-4625578Y4180528I-24086J61248D01*
G01X-4625742Y4181146D01*
G01X-4625814Y4181847D01*
G01X-4625814Y5288840D01*
G01X-4625134Y5288679D01*
G01X-4486592Y5150138D01*
G03X-4447125Y5133790I39466J39466D01*
G01X-3961794Y5133790D01*
G03X-3861105Y5189604I34875J55814D01*
G03X-3961794Y5245418I-65814J0D01*
G01X-4424007Y5245418D01*
G01X-4546201Y5367612D01*
G03X-4625814Y5416772I-64127J-14806D01*
G01X-4625814Y5995414D01*
G03X-4640698Y6031345I-50814J0D01*
G01X-4916665Y6307313D01*
G02X-4914839Y6312706I20081J-3793D01*
G01X-4907834Y6312706D01*
G03X-4872020Y6348520I0J35814D01*
G01X-4872020Y6468520D01*
G03X-4907834Y6504334I-35814J0D01*
G01X-4957123Y6504334D01*
G02X-4997424Y6517043I0J70252D01*
G01X-5132370Y6651989D01*
G03X-5171836Y6668336I-39466J-39466D01*
G01X-5337622Y6668336D01*
G03X-5329964Y6701526I-58116J30887D01*
G03X-5339924Y6734099I-65774J-2302D01*
G01X-5339924Y6898951D01*
G03X-5395738Y6999641I-55814J34875D01*
G03X-5451552Y6898951I0J-65814D01*
G01X-5451552Y6734099D01*
G03X-5461511Y6701526I55814J-34875D01*
G03X-5453854Y6668336I65774J-2302D01*
G01X-5938726Y6668336D01*
G01X-6066020Y6795631D01*
G03X-6150699Y6843348I-64127J-14806D01*
G03X-6190552Y6754696I20551J-62523D01*
G03X-6251848Y6694331I4305J-65673D01*
G03X-6201054Y6624897I65600J-5307D01*
G01X-5945211Y6369053D01*
G03X-5905744Y6352706I39466J39466D01*
G01X-5305275Y6352706D01*
G01X-5303518Y6352564D01*
G01X-5303150Y6352396D01*
G01X-5301792Y6351533D01*
G01X-5299313Y6349583D01*
G01X-5295712Y6346374D01*
G01X-5287998Y6339219D01*
G03X-5219404Y6312737I66165J69301D01*
G01X-5217623Y6312718D01*
G01X-5215160Y6312777D01*
G01X-5207985Y6313196D01*
G01X-5207213Y6313250D01*
G01X-5201365Y6313719D01*
G01X-5199049Y6313810D01*
G01X-5198661Y6313485D01*
G01X-4798843Y5913667D01*
G37*
G36*
G01X-6098192Y3792072D02*
G01X-6098810Y3792235D01*
G03X-6206161Y3741185I-41538J-51050D01*
G03X-6098810Y3690135I65814J-0D01*
G01X-6098192Y3690299D01*
G01X-6097491Y3690371D01*
G01X-6001955Y3690371D01*
G03X-5887194Y3697443I55410J35514D01*
G03X-5953578Y3791322I-59351J28442D01*
G03X-5961845Y3791999I-8267J-50137D01*
G01X-6097491Y3791999D01*
G01X-6098192Y3792072D01*
G37*
G36*
G01X-5818388Y3435162D02*
G03X-5932637Y3374044I-51656J-40781D01*
G03X-6000194Y3374678I-34308J-56164D01*
G03X-6032715Y3315460I33249J-56798D01*
G03X-6099625Y3210077I-15832J-63881D01*
G03X-5982777Y3253998I51079J41502D01*
G03X-5918780Y3273028I15832J63881D01*
G03X-5904352Y3338217I-48165J44851D01*
G03X-5818388Y3435162I34308J56164D01*
G37*
G36*
G01X-5803145Y5424045D02*
G03X-5822536Y5537233I-41398J51163D01*
G01X-5964019Y5678716D01*
G03X-6074683Y5710448I-64127J-14806D01*
G03X-6042952Y5599783I46537J-46537D01*
G01X-5909796Y5466627D01*
G03X-5803145Y5424045I65252J8581D01*
G37*
G36*
G01X-5719345Y12038805D02*
G03X-5755159Y12002991I0J-35814D01*
G01X-5755159Y11850591D01*
G03X-5719345Y11814777I35814J0D01*
G01X-5566945Y11814777D01*
G03X-5531131Y11850591I0J35814D01*
G01X-5531131Y12002991D01*
G03X-5566945Y12038805I-35814J0D01*
G01X-5719345Y12038805D01*
G37*
G36*
G01X-5469333Y12038805D02*
G03X-5505147Y12002991I0J-35814D01*
G01X-5505147Y11850591D01*
G03X-5469333Y11814777I35814J0D01*
G01X-5316933Y11814777D01*
G03X-5281119Y11850591I0J35814D01*
G01X-5281119Y12002991D01*
G03X-5316933Y12038805I-35814J0D01*
G01X-5469333Y12038805D01*
G37*
G36*
G01X-5220737Y1278236D02*
G01X-5020737Y1278236D01*
G03X-5020737Y1509864I0J115814D01*
G01X-5220737Y1509864D01*
G03X-5220737Y1278236I0J-115814D01*
G37*
G36*
G01X-1762464Y6226459D02*
G01X-1761738Y6225205D01*
G01X-1761081Y6223449D01*
G01X-1760410Y6220440D01*
G01X-1759857Y6215806D01*
G01X-1759489Y6209423D01*
G01X-1758990Y6196126D01*
G03X-1569847Y6120270I110786J2502D01*
G03X-1645703Y6309413I-78357J78357D01*
G01X-1659000Y6309912D01*
G01X-1665383Y6310280D01*
G01X-1670017Y6310833D01*
G01X-1673026Y6311504D01*
G01X-1674782Y6312161D01*
G01X-1676036Y6312887D01*
G01X-1678750Y6315177D01*
G01X-1835495Y6471922D01*
G03X-1878497Y6489734I-43002J-43002D01*
G01X-2203607Y6489734D01*
G01X-2293655Y6579781D01*
G01X-2295945Y6582495D01*
G01X-2296671Y6583749D01*
G01X-2297327Y6585505D01*
G01X-2297999Y6588515D01*
G01X-2298551Y6593149D01*
G01X-2298920Y6599531D01*
G01X-2299419Y6612829D01*
G03X-2330098Y6686896I-110786J-2502D01*
G01X-2339148Y6696651D01*
G01X-2343401Y6701425D01*
G01X-2346286Y6705093D01*
G01X-2347940Y6707695D01*
G01X-2348717Y6709401D01*
G01X-2349091Y6710801D01*
G01X-2349391Y6714340D01*
G01X-2349391Y7074634D01*
G03X-2354197Y7098331I-60814J0D01*
G01X-1678750Y7773777D01*
G01X-1676036Y7776068D01*
G01X-1674782Y7776794D01*
G01X-1673026Y7777450D01*
G01X-1670017Y7778121D01*
G01X-1665383Y7778674D01*
G01X-1659000Y7779043D01*
G01X-1645703Y7779542D01*
G03X-1569847Y7968685I-2502J110786D01*
G03X-1758990Y7892829I-78357J-78357D01*
G01X-1759489Y7879531D01*
G01X-1759857Y7873149D01*
G01X-1760410Y7868515D01*
G01X-1761081Y7865505D01*
G01X-1761738Y7863749D01*
G01X-1762464Y7862495D01*
G01X-1764754Y7859781D01*
G01X-2437051Y7187485D01*
G01X-3083206Y7833640D01*
G03X-3126208Y7851452I-43002J-43002D01*
G01X-4549437Y7851452D01*
G01X-5010665Y8312679D01*
G01X-5014080Y8316324D01*
G01X-5016684Y8319447D01*
G01X-5020572Y8324785D01*
G03X-5126071Y8342082I-58961J-29241D01*
G03X-5108775Y8236583I46537J-46537D01*
G01X-5103437Y8232695D01*
G01X-5100314Y8230091D01*
G01X-5096668Y8226675D01*
G01X-4617629Y7747636D01*
G03X-4574627Y7729824I43002J43002D01*
G01X-3151398Y7729824D01*
G01X-2471018Y7049444D01*
G01X-2471018Y6714340D01*
G01X-2471318Y6710801D01*
G01X-2471691Y6709401D01*
G01X-2472469Y6707695D01*
G01X-2474123Y6705093D01*
G01X-2477008Y6701425D01*
G01X-2481261Y6696651D01*
G01X-2490311Y6686896D01*
G03X-2412706Y6499542I80106J-76568D01*
G01X-2399409Y6499043D01*
G01X-2393026Y6498674D01*
G01X-2388392Y6498121D01*
G01X-2385382Y6497450D01*
G01X-2383626Y6496794D01*
G01X-2382373Y6496068D01*
G01X-2379658Y6493777D01*
G01X-2271799Y6385918D01*
G03X-2228797Y6368106I43002J43002D01*
G01X-1903687Y6368106D01*
G01X-1764754Y6229173D01*
G01X-1762464Y6226459D01*
G37*
G36*
G01X-4931445Y2452924D02*
G01X-4931518Y2452224D01*
G01X-4931681Y2451606D01*
G03X-4880631Y2344254I51050J-41538D01*
G03X-4829581Y2451606I0J65814D01*
G01X-4829744Y2452224D01*
G01X-4829817Y2452924D01*
G01X-4829817Y3297480D01*
G03X-4844700Y3333410I-50814J0D01*
G01X-5008319Y3497030D01*
G01X-5008319Y3897232D01*
G01X-5008247Y3897932D01*
G01X-5008084Y3898550D01*
G03X-5059133Y4005902I-51050J41538D01*
G03X-5110183Y3898550I-0J-65814D01*
G01X-5110020Y3897932D01*
G01X-5109947Y3897232D01*
G01X-5109947Y3475982D01*
G03X-5095064Y3440051I50814J0D01*
G01X-4931445Y3276432D01*
G01X-4931445Y2452924D01*
G37*
G36*
G01X-4618708Y6172293D02*
G01X-4616828Y6170246D01*
G01X-4615962Y6169110D01*
G01X-4615437Y6168262D01*
G01X-4615090Y6167552D01*
G01X-4614804Y6166787D01*
G01X-4614687Y6166360D01*
G01X-4614037Y6162116D01*
G01X-4613786Y6156409D01*
G01X-4613857Y6148327D01*
G01X-4613973Y6138702D01*
G01X-4613964Y6137347D01*
G01X-4613840Y6132531D01*
G03X-4407598Y6047186I120814J84D01*
G03X-4492942Y6253428I-85428J85428D01*
G01X-4497759Y6253553D01*
G01X-4499113Y6253562D01*
G01X-4508738Y6253446D01*
G01X-4516820Y6253375D01*
G01X-4522528Y6253625D01*
G01X-4526772Y6254276D01*
G01X-4527199Y6254392D01*
G01X-4527964Y6254678D01*
G01X-4528674Y6255026D01*
G01X-4529522Y6255551D01*
G01X-4530657Y6256417D01*
G01X-4532705Y6258297D01*
G01X-4596848Y6322440D01*
G01X-4596848Y6651726D01*
G02X-4563872Y6765911I214186J0D01*
G01X-4523272Y6765911D01*
G01X-4519148Y6765725D01*
G01X-4515337Y6765266D01*
G01X-4504185Y6763129D01*
G01X-4491833Y6760368D01*
G01X-4490392Y6760077D01*
G01X-4481298Y6758433D01*
G03X-4453986Y6758384I13772J64357D01*
G01X-4451719Y6758788D01*
G03X-4448525Y6759511I-6296J35256D01*
G01X-4443885Y6760786D01*
G03X-4440870Y6761760I-9490J34534D01*
G01X-4433275Y6764590D01*
G01X-4430997Y6765418D01*
G01X-4430169Y6765648D01*
G01X-4429398Y6765774D01*
G01X-4426687Y6765911D01*
G01X-3916053Y6765911D01*
G03X-3845983Y6765911I35035J55714D01*
G01X-3305592Y6765911D01*
G01X-3300599Y6765749D01*
G01X-3296550Y6765382D01*
G01X-3290026Y6764357D01*
G03X-3203196Y6826725I21015J62368D01*
G03X-3290026Y6889094I-65814J0D01*
G01X-3296550Y6888068D01*
G01X-3300599Y6887701D01*
G01X-3305592Y6887539D01*
G01X-4434795Y6887539D01*
G01X-4442255Y6887817D01*
G01X-4451222Y6888387D01*
G01X-4452198Y6888436D01*
G01X-4461618Y6888777D01*
G03X-4464826Y6888750I-1298J-35790D01*
G01X-4466093Y6888707D01*
G01X-4468337Y6888836D01*
G01X-4474600Y6888997D01*
G01X-4476486Y6888995D01*
G01X-4490009Y6888631D01*
G01X-4490933Y6888594D01*
G01X-4504115Y6887898D01*
G01X-4515171Y6887539D01*
G01X-4935851Y6887539D01*
G01X-4940844Y6887701D01*
G01X-4944893Y6888068D01*
G01X-4951417Y6889094D01*
G03X-5038246Y6826725I-21015J-62368D01*
G03X-4951417Y6764357I65814J0D01*
G01X-4944893Y6765382D01*
G01X-4940844Y6765749D01*
G01X-4935851Y6765911D01*
G01X-4751451Y6765911D01*
G02X-4718476Y6651908I-181210J-114186D01*
G01X-4718476Y6297250D01*
G03X-4700664Y6254248I60814J0D01*
G01X-4618708Y6172293D01*
G37*
G36*
G01X-4482639Y4037637D02*
G01X-4493553Y4026723D01*
G01X-4494100Y4026279D01*
G01X-4494652Y4025957D01*
G03X-4535106Y4006374I6726J-65469D01*
G03X-4662843Y4016144I-65021J-10185D01*
G03X-4552947Y3950303I62716J-19955D01*
G03X-4486182Y3894697I65021J10185D01*
G03X-4422457Y3953762I-1744J65791D01*
G01X-4422135Y3954314D01*
G01X-4421691Y3954861D01*
G01X-4395938Y3980614D01*
G01X-4395938Y3313427D01*
G01X-4447652Y3261713D01*
G01X-4448199Y3261269D01*
G01X-4448751Y3260948D01*
G03X-4488563Y3148941I6726J-65469D01*
G03X-4376556Y3188752I46538J46537D01*
G01X-4376234Y3189304D01*
G01X-4375791Y3189851D01*
G01X-4309193Y3256449D01*
G03X-4294310Y3292379I-35931J35931D01*
G01X-4294310Y4126722D01*
G03X-4216153Y4139202I30787J58169D01*
G03X-4206504Y4217759I-47370J45690D01*
G01X-4206855Y4218488D01*
G01X-4207153Y4219467D01*
G01X-4207475Y4221197D01*
G01X-4207609Y4223074D01*
G01X-4207609Y4289937D01*
G01X-4207536Y4290637D01*
G01X-4207373Y4291255D01*
G03X-4217387Y4384247I-51050J41538D01*
G03X-4310276Y4373324I-41036J-51454D01*
G03X-4381011Y4372661I-34848J-55831D01*
G01X-4381011Y4815244D01*
G01X-4380938Y4815944D01*
G01X-4380775Y4816562D01*
G03X-4431825Y4923914I-51050J41538D01*
G03X-4482875Y4816562I-0J-65814D01*
G01X-4482712Y4815944D01*
G01X-4482639Y4815244D01*
G01X-4482639Y4037637D01*
G37*
G36*
G01X-1439782Y8076528D02*
G03X-1400315Y8092876I0J55814D01*
G01X-938165Y8555026D01*
G02X-897864Y8567735I40301J-57542D01*
G01X-818574Y8567735D01*
G03X-782760Y8603549I0J35814D01*
G01X-782760Y8803550D01*
G03X-818574Y8839364I-35814J0D01*
G01X-829406Y8839364D01*
G02X-837760Y8863549I30831J24186D01*
G01X-837760Y9252459D01*
G02X-829406Y9276645I39186J0D01*
G01X-818574Y9276645D01*
G03X-782760Y9312459I0J35814D01*
G01X-782760Y9512459D01*
G03X-818574Y9548273I-35814J0D01*
G01X-968574Y9548273D01*
G03X-1004388Y9512459I0J-35814D01*
G01X-1004388Y9312459D01*
G03X-968574Y9276645I35814J0D01*
G01X-957743Y9276645D01*
G02X-949388Y9252459I-30831J-24186D01*
G01X-949388Y8863549D01*
G02X-957743Y8839364I-39186J0D01*
G01X-968574Y8839364D01*
G03X-1004388Y8803550I0J-35814D01*
G01X-1004388Y8674260D01*
G02X-1017097Y8633960I-70252J0D01*
G01X-1462901Y8188156D01*
G01X-2359053Y8188156D01*
G01X-1992183Y8555026D01*
G02X-1951882Y8567735I40301J-57543D01*
G01X-1877190Y8567735D01*
G03X-1841376Y8603549I0J35814D01*
G01X-1841376Y8803550D01*
G03X-1877190Y8839364I-35814J0D01*
G01X-1888021Y8839364D01*
G02X-1896376Y8863549I30831J24186D01*
G01X-1896376Y9252459D01*
G02X-1888021Y9276645I39186J0D01*
G01X-1877190Y9276645D01*
G03X-1841376Y9312459I0J35814D01*
G01X-1841376Y9512459D01*
G03X-1877190Y9548273I-35814J0D01*
G01X-2027190Y9548273D01*
G03X-2063004Y9512459I0J-35814D01*
G01X-2063004Y9312459D01*
G03X-2027190Y9276645I35814J0D01*
G01X-2016358Y9276645D01*
G02X-2008004Y9252459I-30831J-24186D01*
G01X-2008004Y8863549D01*
G02X-2016358Y8839364I-39186J0D01*
G01X-2027190Y8839364D01*
G03X-2063004Y8803550I0J-35814D01*
G01X-2063004Y8669663D01*
G02X-2075713Y8629362I-70252J0D01*
G01X-2430218Y8274857D01*
G01X-3144464Y8274857D01*
G01X-2958237Y8461084D01*
G03X-2941889Y8500550I-39466J39466D01*
G01X-2941889Y8543550D01*
G02X-2933535Y8567735I39186J0D01*
G01X-2922703Y8567735D01*
G03X-2886889Y8603549I0J35814D01*
G01X-2886889Y8803550D01*
G03X-2922703Y8839364I-35814J0D01*
G01X-2933535Y8839364D01*
G02X-2941889Y8863549I30831J24186D01*
G01X-2941889Y9252459D01*
G02X-2933535Y9276645I39186J0D01*
G01X-2922703Y9276645D01*
G03X-2886889Y9312459I0J35814D01*
G01X-2886889Y9512459D01*
G03X-2922703Y9548273I-35814J0D01*
G01X-3072703Y9548273D01*
G03X-3108517Y9512459I0J-35814D01*
G01X-3108517Y9312459D01*
G03X-3072703Y9276645I35814J0D01*
G01X-3061872Y9276645D01*
G02X-3053517Y9252459I-30831J-24186D01*
G01X-3053517Y8863549D01*
G02X-3061872Y8839364I-39186J0D01*
G01X-3072703Y8839364D01*
G03X-3108517Y8803550I0J-35814D01*
G01X-3108517Y8603549D01*
G03X-3072703Y8567735I35814J0D01*
G01X-3061872Y8567735D01*
G02X-3053517Y8543550I-30831J-24186D01*
G01X-3053517Y8523669D01*
G01X-3225828Y8351358D01*
G01X-4324724Y8351358D01*
G03X-4364190Y8335011I0J-55814D01*
G01X-4589433Y8109768D01*
G03X-4621165Y7999104I14806J-64127D01*
G03X-4510500Y8030835I46537J46537D01*
G01X-4301605Y8239730D01*
G01X-3827063Y8239730D01*
G01X-3982525Y8084268D01*
G03X-4014257Y7973603I14806J-64127D01*
G03X-3903592Y8005335I46537J46537D01*
G01X-3745698Y8163229D01*
G01X-3250755Y8163229D01*
G01X-3365417Y8048567D01*
G03X-3397149Y7937903I14806J-64127D01*
G03X-3286484Y7969634I46537J46537D01*
G01X-3179590Y8076528D01*
G01X-1439782Y8076528D01*
G37*
G36*
G01X-4493026Y5745428D02*
G03X-4493026Y5503801I0J-120814D01*
G03X-4493026Y5745428I0J120814D01*
G37*
G36*
G01X-4493026Y5999428D02*
G03X-4493026Y5757801I0J-120814D01*
G03X-4493026Y5999428I0J120814D01*
G37*
G36*
G01X-3860504Y5466363D02*
G01X-3860667Y5465745D01*
G03X-3875087Y5430933I51050J-41538D01*
G01X-3875408Y5430381D01*
G01X-3875852Y5429834D01*
G01X-3896966Y5408720D01*
G01X-4332868Y5408720D01*
G01X-4333569Y5408793D01*
G01X-4334187Y5408956D01*
G03X-4441538Y5357906I-41538J-51050D01*
G03X-4334187Y5306856I65814J-0D01*
G01X-4333569Y5307019D01*
G01X-4332868Y5307092D01*
G01X-3875918Y5307092D01*
G03X-3839987Y5321975I0J50814D01*
G01X-3803990Y5357972D01*
G01X-3803443Y5358416D01*
G01X-3802891Y5358738D01*
G03X-3758567Y5465745I-6726J65469D01*
G01X-3758730Y5466363D01*
G01X-3758803Y5467063D01*
G01X-3758803Y5717955D01*
G01X-3758730Y5718656D01*
G01X-3758567Y5719274D01*
G03X-3809617Y5826625I-51050J41538D01*
G03X-3860667Y5719274I-0J-65814D01*
G01X-3860504Y5718656D01*
G01X-3860431Y5717955D01*
G01X-3860431Y5467063D01*
G01X-3860504Y5466363D01*
G37*
G36*
G01X-4096308Y1690260D02*
G03X-4132122Y1726074I-35814J0D01*
G01X-4252122Y1726074D01*
G03X-4287936Y1690260I0J-35814D01*
G01X-4287936Y1570260D01*
G03X-4252122Y1534446I35814J0D01*
G01X-4132122Y1534446D01*
G03X-4096308Y1570260I0J35814D01*
G01X-4096308Y1690260D01*
G37*
G36*
G01X-3513700Y4655452D02*
G01X-3513863Y4654834D01*
G03X-3462813Y4547483I51050J-41538D01*
G03X-3411763Y4654834I0J65814D01*
G01X-3411926Y4655452D01*
G01X-3411999Y4656153D01*
G01X-3411999Y4924401D01*
G03X-3426882Y4960332I-50814J0D01*
G01X-3442479Y4975928D01*
G01X-3442922Y4976475D01*
G01X-3443244Y4977027D01*
G03X-3555251Y5016839I-65469J-6726D01*
G03X-3515440Y4904832I46537J-46538D01*
G01X-3514887Y4904510D01*
G01X-3514340Y4904066D01*
G01X-3513627Y4903353D01*
G01X-3513627Y4656153D01*
G01X-3513700Y4655452D01*
G37*
G36*
G01X-3257476Y6126682D02*
G03X-3273824Y6087216I39466J-39466D01*
G01X-3273824Y5379382D01*
G03X-3273824Y5309632I55814J-34875D01*
G01X-3273824Y3465782D01*
G03X-3257476Y3426315I55814J0D01*
G01X-2772970Y2941809D01*
G03X-2770180Y2939204I39466J39466D01*
G03X-2775018Y2921227I30976J-17977D01*
G01X-2775018Y2771227D01*
G03X-2739204Y2735413I35814J0D01*
G01X-2589205Y2735413D01*
G03X-2553391Y2771227I0J35814D01*
G01X-2553391Y2921227D01*
G03X-2553642Y2925462I-35814J0D01*
G01X-2487675Y2925462D01*
G03X-2410204Y2735413I77470J-79234D01*
G03X-2332734Y2925462I0J110814D01*
G01X-2233675Y2925462D01*
G03X-2156204Y2735413I77470J-79234D01*
G03X-2078734Y2925462I0J110814D01*
G01X-1979675Y2925462D01*
G03X-1902204Y2735413I77470J-79234D01*
G03X-1824734Y2925462I0J110814D01*
G01X-1725675Y2925462D01*
G03X-1648204Y2735413I77470J-79234D01*
G03X-1570734Y2925462I0J110814D01*
G01X-1471675Y2925462D01*
G03X-1394204Y2735413I77470J-79234D01*
G03X-1316734Y2925462I0J110814D01*
G01X-1217675Y2925462D01*
G03X-1140204Y2735413I77470J-79234D01*
G03X-1062734Y2925462I0J110814D01*
G01X-1044372Y2925462D01*
G01X-998692Y2879781D01*
G01X-997098Y2878045D01*
G01X-996490Y2877215D01*
G01X-996208Y2874522D01*
G01X-996246Y2869731D01*
G01X-996639Y2862404D01*
G01X-996660Y2861969D01*
G01X-997025Y2853161D01*
G01X-997051Y2851107D01*
G01X-997003Y2848080D01*
G03X-807847Y2767870I110798J-1853D01*
G03X-888057Y2957026I-78357J78357D01*
G01X-891084Y2957074D01*
G01X-893138Y2957048D01*
G01X-901946Y2956683D01*
G01X-902381Y2956662D01*
G01X-909708Y2956269D01*
G01X-914499Y2956230D01*
G01X-917331Y2956597D01*
G01X-918022Y2957120D01*
G01X-919759Y2958714D01*
G01X-981786Y3020742D01*
G03X-1021253Y3037089I-39466J-39466D01*
G01X-2710384Y3037089D01*
G01X-3162196Y3488901D01*
G01X-3162196Y4597519D01*
G02X-3078010Y4624082I84186J-120123D01*
G01X-2763125Y4624082D01*
G03X-2775018Y4597427I23920J-26655D01*
G01X-2775018Y4447427D01*
G03X-2739204Y4411613I35814J0D01*
G01X-2589205Y4411613D01*
G03X-2553391Y4447427I0J35814D01*
G01X-2553391Y4597427D01*
G03X-2565284Y4624082I-35814J0D01*
G01X-2454319Y4624082D01*
G03X-2410204Y4411613I44115J-101654D01*
G03X-2366090Y4624082I0J110814D01*
G01X-2200319Y4624082D01*
G03X-2156204Y4411613I44115J-101654D01*
G03X-2112090Y4624082I0J110814D01*
G01X-1946319Y4624082D01*
G03X-1902204Y4411613I44115J-101654D01*
G03X-1858090Y4624082I0J110814D01*
G01X-1692319Y4624082D01*
G03X-1648204Y4411613I44115J-101654D01*
G03X-1604090Y4624082I0J110814D01*
G01X-1438319Y4624082D01*
G03X-1394204Y4411613I44115J-101654D01*
G03X-1350090Y4624082I0J110814D01*
G01X-1184319Y4624082D01*
G03X-1140204Y4411613I44115J-101654D01*
G03X-1096090Y4624082I0J110814D01*
G01X-1059721Y4624082D01*
G01X-995164Y4559525D01*
G01X-993476Y4557684D01*
G01X-993482Y4557178D01*
G01X-994163Y4552007D01*
G01X-995420Y4543997D01*
G01X-995654Y4542220D01*
G01X-996655Y4532771D01*
G03X-996855Y4529154I35614J-3775D01*
G01X-996858Y4528387D01*
G03X-807847Y4444070I110653J-5960D01*
G03X-892165Y4633081I-78357J78357D01*
G01X-892931Y4633077D01*
G03X-896549Y4632878I157J-35814D01*
G01X-905997Y4631877D01*
G01X-907774Y4631643D01*
G01X-915785Y4630386D01*
G01X-920955Y4629705D01*
G01X-921461Y4629699D01*
G01X-923303Y4631387D01*
G01X-1002742Y4710827D01*
G03X-1038673Y4725710I-35931J-35931D01*
G01X-3078100Y4725710D01*
G02X-3162196Y4752273I90J146686D01*
G01X-3162196Y5309632D01*
G03X-3162196Y5379382I-55814J34875D01*
G01X-3162196Y6064097D01*
G01X-2953300Y6272992D01*
G03X-2912292Y6371994I-14806J64127D01*
G01X-2912292Y6793406D01*
G01X-2876799Y6828899D01*
G03X-2845068Y6939564I-14806J64127D01*
G03X-2955732Y6907832I-46537J-46537D01*
G01X-3007573Y6855992D01*
G03X-3023920Y6816525I39466J-39466D01*
G01X-3023920Y6371994D01*
G03X-3032233Y6351925I55814J-34875D01*
G01X-3257476Y6126682D01*
G37*
G36*
G01X-3014007Y4475108D02*
G03X-3069821Y4374419I0J-65814D01*
G01X-3069821Y4158565D01*
G03X-3014007Y4057876I55814J-34875D01*
G03X-2958193Y4158565I0J65814D01*
G01X-2958193Y4374419D01*
G03X-3014007Y4475108I-55814J34875D01*
G37*
G36*
G01X-2915755Y3611141D02*
G03X-2807078Y3644778I44550J48443D01*
G01X-2796038Y3655818D01*
G03X-2779691Y3695285I-39466J39466D01*
G01X-2779691Y3849112D01*
G03X-2835505Y3949801I-55814J34875D01*
G03X-2891319Y3849112I0J-65814D01*
G01X-2891319Y3722249D01*
G03X-2915755Y3611141I20113J-62665D01*
G37*
G36*
G01X-2589205Y7779514D02*
G03X-2553391Y7815328I0J35814D01*
G01X-2553391Y7965327D01*
G03X-2589205Y8001141I-35814J0D01*
G01X-2739204Y8001141D01*
G03X-2775018Y7965327I0J-35814D01*
G01X-2775018Y7815328D01*
G03X-2739204Y7779514I35814J0D01*
G01X-2589205Y7779514D01*
G37*
G36*
G01X-2589205Y6087814D02*
G03X-2553391Y6123628I0J35814D01*
G01X-2553391Y6273627D01*
G03X-2589205Y6309441I-35814J0D01*
G01X-2739204Y6309441D01*
G03X-2775018Y6273627I0J-35814D01*
G01X-2775018Y6123628D01*
G03X-2739204Y6087814I35814J0D01*
G01X-2589205Y6087814D01*
G37*
G36*
G01X-2600517Y8728550D02*
G01X-2600517Y8678549D01*
G03X-2378889Y8678549I110814J0D01*
G01X-2378889Y8728550D01*
G03X-2415004Y8810402I-110814J0D01*
G01X-2418725Y8814129D01*
G01X-2422074Y8818207D01*
G01X-2425453Y8823120D01*
G01X-2428514Y8828452D01*
G01X-2430995Y8833768D01*
G01X-2432706Y8838574D01*
G01X-2433569Y8842278D01*
G01X-2433889Y8845994D01*
G01X-2433889Y9270014D01*
G01X-2433569Y9273730D01*
G01X-2432706Y9277434D01*
G01X-2430995Y9282240D01*
G01X-2428514Y9287556D01*
G01X-2425453Y9292888D01*
G01X-2422074Y9297801D01*
G01X-2418725Y9301879D01*
G01X-2415004Y9305607D01*
G03X-2378889Y9387459I-74699J81852D01*
G01X-2378889Y9437459D01*
G03X-2600517Y9437459I-110814J0D01*
G01X-2600517Y9387459D01*
G03X-2564403Y9305607I110814J0D01*
G01X-2560682Y9301879D01*
G01X-2557333Y9297801D01*
G01X-2553954Y9292888D01*
G01X-2550893Y9287556D01*
G01X-2548412Y9282240D01*
G01X-2546701Y9277434D01*
G01X-2545838Y9273730D01*
G01X-2545517Y9270014D01*
G01X-2545517Y8845994D01*
G01X-2545838Y8842278D01*
G01X-2546701Y8838574D01*
G01X-2548412Y8833768D01*
G01X-2550893Y8828452D01*
G01X-2553954Y8823120D01*
G01X-2557333Y8818207D01*
G01X-2560682Y8814129D01*
G01X-2564403Y8810402D01*
G03X-2600517Y8728550I74699J-81852D01*
G37*
G36*
G01X-2521018Y7890327D02*
G03X-2299391Y7890327I110814J0D01*
G03X-2521018Y7890327I-110814J0D01*
G37*
G36*
G01X-2521018Y4918627D02*
G03X-2299391Y4918627I110814J0D01*
G03X-2521018Y4918627I-110814J0D01*
G37*
G36*
G01X-2521018Y1550727D02*
G03X-2299391Y1550727I110814J0D01*
G03X-2521018Y1550727I-110814J0D01*
G37*
G36*
G01X-2521018Y3242427D02*
G03X-2299391Y3242427I110814J0D01*
G03X-2521018Y3242427I-110814J0D01*
G37*
G36*
G01X-2521018Y6198627D02*
G03X-2299391Y6198627I110814J0D01*
G03X-2521018Y6198627I-110814J0D01*
G37*
G36*
G01X-2267018Y7890327D02*
G03X-2045391Y7890327I110814J0D01*
G03X-2267018Y7890327I-110814J0D01*
G37*
G36*
G01X-2252018Y5009319D02*
G01X-2252590Y4994529D01*
G01X-2254060Y4980683D01*
G01X-2256183Y4967520D01*
G01X-2256587Y4965565D01*
G03X-2156204Y4807814I100382J-46938D01*
G03X-2055822Y4965565I0J110814D01*
G01X-2056226Y4967520D01*
G01X-2058349Y4980683D01*
G01X-2059819Y4994529D01*
G01X-2060390Y5009319D01*
G01X-2060390Y5237609D01*
G01X-1468099Y5829901D01*
G01X-420162Y5829901D01*
G03X-364693Y5847590I0J95814D01*
G01X-362473Y5847590D01*
G03X-362473Y6069218I0J110814D01*
G01X-412473Y6069218D01*
G03X-485030Y6042161I0J-110814D01*
G01X-493781Y6039174D01*
G01X-506658Y6035193D01*
G01X-520178Y6031492D01*
G01X-534200Y6028202D01*
G01X-548582Y6025446D01*
G01X-563178Y6023346D01*
G01X-577841Y6022013D01*
G01X-593047Y6021529D01*
G01X-1507786Y6021529D01*
G03X-1575537Y5993465I0J-95814D01*
G01X-2223955Y5345047D01*
G03X-2252018Y5277297I67751J-67751D01*
G01X-2252018Y5009319D01*
G37*
G36*
G01X-2223955Y3560024D02*
G03X-2252018Y3492273I67751J-67751D01*
G01X-2252018Y3333119D01*
G01X-2252590Y3318329D01*
G01X-2254060Y3304483D01*
G01X-2256183Y3291320D01*
G01X-2256587Y3289365D01*
G03X-2156204Y3131613I100382J-46938D01*
G03X-2055822Y3289365I0J110814D01*
G01X-2056226Y3291320D01*
G01X-2058349Y3304483D01*
G01X-2059819Y3318329D01*
G01X-2060390Y3333119D01*
G01X-2060390Y3452586D01*
G01X-1352108Y4160868D01*
G01X-592818Y4160868D01*
G01X-560290Y4160242D01*
G01X-529103Y4158599D01*
G01X-499883Y4156267D01*
G01X-473748Y4153598D01*
G01X-439819Y4149295D01*
G03X-412473Y4145868I27346J107387D01*
G01X-362473Y4145868D01*
G03X-362473Y4367496I0J110814D01*
G01X-412473Y4367496D01*
G03X-439819Y4364069I0J-110814D01*
G01X-473748Y4359766D01*
G01X-499883Y4357097D01*
G01X-529103Y4354765D01*
G01X-560290Y4353123D01*
G01X-592818Y4352496D01*
G01X-1391796Y4352496D01*
G03X-1459547Y4324433I0J-95814D01*
G01X-2223955Y3560024D01*
G37*
G36*
G01X-2252018Y1641419D02*
G01X-2252590Y1626629D01*
G01X-2254060Y1612783D01*
G01X-2256183Y1599620D01*
G01X-2256587Y1597665D01*
G03X-2156204Y1439913I100382J-46938D01*
G03X-2055822Y1597665I0J110814D01*
G01X-2056226Y1599620D01*
G01X-2058349Y1612783D01*
G01X-2059819Y1626629D01*
G01X-2060390Y1641419D01*
G01X-2060390Y1708363D01*
G01X-1309608Y2459146D01*
G01X-592818Y2459146D01*
G01X-560290Y2458520D01*
G01X-529103Y2456877D01*
G01X-499883Y2454545D01*
G01X-473748Y2451876D01*
G01X-439819Y2447573D01*
G03X-412473Y2444146I27346J107387D01*
G01X-362473Y2444146D01*
G03X-362473Y2665774I0J110814D01*
G01X-412473Y2665774D01*
G03X-439819Y2662347I0J-110814D01*
G01X-473748Y2658044D01*
G01X-499883Y2655375D01*
G01X-529103Y2653043D01*
G01X-560290Y2651400D01*
G01X-592818Y2650774D01*
G01X-1349295Y2650774D01*
G03X-1417046Y2622711I0J-95814D01*
G01X-2223955Y1815802D01*
G03X-2252018Y1748051I67751J-67751D01*
G01X-2252018Y1641419D01*
G37*
G36*
G01X-2252018Y6701019D02*
G01X-2252590Y6686229D01*
G01X-2254060Y6672383D01*
G01X-2256183Y6659220D01*
G01X-2256587Y6657265D01*
G03X-2156204Y6499514I100382J-46938D01*
G03X-2055822Y6657265I0J110814D01*
G01X-2056226Y6659220D01*
G01X-2058349Y6672383D01*
G01X-2059819Y6686229D01*
G01X-2060390Y6701019D01*
G01X-2060390Y6997132D01*
G01X-1493210Y7564312D01*
G01X-455116Y7564312D01*
G01X-422588Y7563686D01*
G01X-391402Y7562043D01*
G01X-362182Y7559711D01*
G01X-336046Y7557042D01*
G01X-302118Y7552739D01*
G03X-274771Y7549312I27346J107387D01*
G01X-224771Y7549312D01*
G03X-224771Y7770940I0J110814D01*
G01X-274771Y7770940D01*
G03X-302118Y7767513I0J-110814D01*
G01X-336046Y7763210D01*
G01X-362182Y7760541D01*
G01X-391402Y7758209D01*
G01X-422588Y7756567D01*
G01X-455116Y7755940D01*
G01X-1532898Y7755940D01*
G03X-1600648Y7727877I0J-95814D01*
G01X-2223955Y7104570D01*
G03X-2252018Y7036819I67751J-67751D01*
G01X-2252018Y6701019D01*
G37*
G36*
G01X-2267018Y6198627D02*
G03X-2045391Y6198627I110814J0D01*
G03X-2267018Y6198627I-110814J0D01*
G37*
G36*
G01X-2013018Y7890327D02*
G03X-1791391Y7890327I110814J0D01*
G03X-2013018Y7890327I-110814J0D01*
G37*
G36*
G01X-1969955Y5298143D02*
G03X-1998018Y5230393I67751J-67751D01*
G01X-1998018Y5009319D01*
G01X-1998590Y4994529D01*
G01X-2000060Y4980683D01*
G01X-2002183Y4967520D01*
G01X-2002587Y4965565D01*
G03X-1902204Y4807814I100382J-46938D01*
G03X-1801822Y4965565I0J110814D01*
G01X-1802226Y4967520D01*
G01X-1804349Y4980683D01*
G01X-1805819Y4994529D01*
G01X-1806390Y5009319D01*
G01X-1806390Y5190705D01*
G01X-1388506Y5608590D01*
G01X-592818Y5608590D01*
G01X-560290Y5607964D01*
G01X-529103Y5606321D01*
G01X-499883Y5603989D01*
G01X-473748Y5601320D01*
G01X-439819Y5597017D01*
G03X-412473Y5593590I27346J107387D01*
G01X-362473Y5593590D01*
G03X-362473Y5815218I0J110814D01*
G01X-412473Y5815218D01*
G03X-439819Y5811791I0J-110814D01*
G01X-473748Y5807488D01*
G01X-499883Y5804819D01*
G01X-529103Y5802487D01*
G01X-560290Y5800845D01*
G01X-592818Y5800218D01*
G01X-1428193Y5800218D01*
G03X-1495944Y5772155I0J-95814D01*
G01X-1969955Y5298143D01*
G37*
G36*
G01X-1969955Y3502920D02*
G03X-1998018Y3435169I67751J-67751D01*
G01X-1998018Y3333119D01*
G01X-1998590Y3318329D01*
G01X-2000060Y3304483D01*
G01X-2002183Y3291320D01*
G01X-2002587Y3289365D01*
G03X-1902204Y3131613I100382J-46938D01*
G03X-1801822Y3289365I0J110814D01*
G01X-1802226Y3291320D01*
G01X-1804349Y3304483D01*
G01X-1805819Y3318329D01*
G01X-1806390Y3333119D01*
G01X-1806390Y3395482D01*
G01X-1295004Y3906868D01*
G01X-592818Y3906868D01*
G01X-560290Y3906242D01*
G01X-529103Y3904599D01*
G01X-499883Y3902267D01*
G01X-473748Y3899598D01*
G01X-439819Y3895295D01*
G03X-412473Y3891868I27346J107387D01*
G01X-362473Y3891868D01*
G03X-362473Y4113496I0J110814D01*
G01X-412473Y4113496D01*
G03X-439819Y4110069I0J-110814D01*
G01X-473748Y4105766D01*
G01X-499883Y4103097D01*
G01X-529103Y4100765D01*
G01X-560290Y4099123D01*
G01X-592818Y4098496D01*
G01X-1334692Y4098496D01*
G03X-1402443Y4070433I0J-95814D01*
G01X-1969955Y3502920D01*
G37*
G36*
G01X-1998018Y1641419D02*
G01X-1998590Y1626629D01*
G01X-2000060Y1612783D01*
G01X-2002183Y1599620D01*
G01X-2002587Y1597665D01*
G03X-1902204Y1439913I100382J-46938D01*
G03X-1801822Y1597665I0J110814D01*
G01X-1802226Y1599620D01*
G01X-1804349Y1612783D01*
G01X-1805819Y1626629D01*
G01X-1806390Y1641419D01*
G01X-1806390Y1686960D01*
G01X-1722480Y1770870D01*
G03X-1744018Y1710344I74276J-60526D01*
G01X-1744018Y1641419D01*
G01X-1744590Y1626629D01*
G01X-1746060Y1612783D01*
G01X-1748183Y1599620D01*
G01X-1748587Y1597665D01*
G03X-1648204Y1439913I100382J-46938D01*
G03X-1547822Y1597665I0J110814D01*
G01X-1548226Y1599620D01*
G01X-1550349Y1612783D01*
G01X-1551819Y1626629D01*
G01X-1552390Y1641419D01*
G01X-1552390Y1670656D01*
G01X-1271901Y1951146D01*
G01X-592818Y1951146D01*
G01X-560290Y1950520D01*
G01X-529103Y1948877D01*
G01X-499883Y1946545D01*
G01X-473748Y1943876D01*
G01X-439819Y1939573D01*
G03X-412473Y1936146I27346J107387D01*
G01X-362473Y1936146D01*
G03X-362473Y2157774I0J110814D01*
G01X-412473Y2157774D01*
G03X-439819Y2154347I0J-110814D01*
G01X-473748Y2150044D01*
G01X-499883Y2147375D01*
G01X-529103Y2145043D01*
G01X-560290Y2143400D01*
G01X-592818Y2142774D01*
G01X-1311588Y2142774D01*
G03X-1372114Y2121236I0J-95814D01*
G01X-1288204Y2205146D01*
G01X-592818Y2205146D01*
G01X-560290Y2204520D01*
G01X-529103Y2202877D01*
G01X-499883Y2200545D01*
G01X-473748Y2197876D01*
G01X-439819Y2193573D01*
G03X-412473Y2190146I27346J107387D01*
G01X-362473Y2190146D01*
G03X-362473Y2411774I0J110814D01*
G01X-412473Y2411774D01*
G03X-439819Y2408347I0J-110814D01*
G01X-473748Y2404044D01*
G01X-499883Y2401375D01*
G01X-529103Y2399043D01*
G01X-560290Y2397400D01*
G01X-592818Y2396774D01*
G01X-1327892Y2396774D01*
G03X-1395642Y2368711I0J-95814D01*
G01X-1969955Y1794398D01*
G03X-1998018Y1726647I67751J-67751D01*
G01X-1998018Y1641419D01*
G37*
G36*
G01X-1998018Y6701019D02*
G01X-1998590Y6686229D01*
G01X-2000060Y6672383D01*
G01X-2002183Y6659220D01*
G01X-2002587Y6657265D01*
G03X-1902204Y6499514I100382J-46938D01*
G03X-1801822Y6657265I0J110814D01*
G01X-1802226Y6659220D01*
G01X-1804349Y6672383D01*
G01X-1805819Y6686229D01*
G01X-1806390Y6701019D01*
G01X-1806390Y6909427D01*
G01X-1405506Y7310312D01*
G01X-455116Y7310312D01*
G01X-422588Y7309686D01*
G01X-391402Y7308043D01*
G01X-362182Y7305711D01*
G01X-336046Y7303042D01*
G01X-302118Y7298739D01*
G03X-274771Y7295312I27346J107387D01*
G01X-224771Y7295312D01*
G03X-224771Y7516940I0J110814D01*
G01X-274771Y7516940D01*
G03X-302118Y7513513I0J-110814D01*
G01X-336046Y7509210D01*
G01X-362182Y7506541D01*
G01X-391402Y7504209D01*
G01X-422588Y7502567D01*
G01X-455116Y7501940D01*
G01X-1445193Y7501940D01*
G03X-1512944Y7473877I0J-95814D01*
G01X-1969955Y7016866D01*
G03X-1998018Y6949115I67751J-67751D01*
G01X-1998018Y6701019D01*
G37*
G36*
G01X-2013018Y6198627D02*
G03X-1791391Y6198627I110814J0D01*
G03X-2013018Y6198627I-110814J0D01*
G37*
G36*
G01X-1715955Y5200239D02*
G03X-1744018Y5132488I67751J-67751D01*
G01X-1744018Y5009319D01*
G01X-1744590Y4994529D01*
G01X-1746060Y4980683D01*
G01X-1748183Y4967520D01*
G01X-1748587Y4965565D01*
G03X-1648204Y4807814I100382J-46938D01*
G03X-1547822Y4965565I0J110814D01*
G01X-1548226Y4967520D01*
G01X-1550349Y4980683D01*
G01X-1551819Y4994529D01*
G01X-1552390Y5009319D01*
G01X-1552390Y5092801D01*
G01X-1290601Y5354590D01*
G01X-592818Y5354590D01*
G01X-560290Y5353964D01*
G01X-529103Y5352321D01*
G01X-499883Y5349989D01*
G01X-473748Y5347320D01*
G01X-439819Y5343017D01*
G03X-412473Y5339590I27346J107387D01*
G01X-362473Y5339590D01*
G03X-362473Y5561218I0J110814D01*
G01X-412473Y5561218D01*
G03X-439819Y5557791I0J-110814D01*
G01X-473748Y5553488D01*
G01X-499883Y5550819D01*
G01X-529103Y5548487D01*
G01X-560290Y5546845D01*
G01X-592818Y5546218D01*
G01X-1330288Y5546218D01*
G03X-1398039Y5518155I0J-95814D01*
G01X-1715955Y5200239D01*
G37*
G36*
G01X-1715955Y3466216D02*
G03X-1744018Y3398466I67751J-67751D01*
G01X-1744018Y3333119D01*
G01X-1744590Y3318329D01*
G01X-1746060Y3304483D01*
G01X-1748183Y3291320D01*
G01X-1748587Y3289365D01*
G03X-1648204Y3131613I100382J-46938D01*
G03X-1547822Y3289365I0J110814D01*
G01X-1548226Y3291320D01*
G01X-1550349Y3304483D01*
G01X-1551819Y3318329D01*
G01X-1552390Y3333119D01*
G01X-1552390Y3358778D01*
G01X-1258301Y3652868D01*
G01X-592818Y3652868D01*
G01X-560290Y3652242D01*
G01X-529103Y3650599D01*
G01X-499883Y3648267D01*
G01X-473748Y3645598D01*
G01X-439819Y3641295D01*
G03X-412473Y3637868I27346J107387D01*
G01X-362473Y3637868D01*
G03X-362473Y3859496I0J110814D01*
G01X-412473Y3859496D01*
G03X-439819Y3856069I0J-110814D01*
G01X-473748Y3851766D01*
G01X-499883Y3849097D01*
G01X-529103Y3846765D01*
G01X-560290Y3845123D01*
G01X-592818Y3844496D01*
G01X-1297988Y3844496D01*
G03X-1365739Y3816433I0J-95814D01*
G01X-1715955Y3466216D01*
G37*
G36*
G01X-1715955Y6924061D02*
G03X-1744018Y6856310I67751J-67751D01*
G01X-1744018Y6701019D01*
G01X-1744590Y6686229D01*
G01X-1746060Y6672383D01*
G01X-1748183Y6659220D01*
G01X-1748587Y6657265D01*
G03X-1648204Y6499514I100382J-46938D01*
G03X-1547822Y6657265I0J110814D01*
G01X-1548226Y6659220D01*
G01X-1550349Y6672383D01*
G01X-1551819Y6686229D01*
G01X-1552390Y6701019D01*
G01X-1552390Y6816623D01*
G01X-1312701Y7056312D01*
G01X-455116Y7056312D01*
G01X-422588Y7055686D01*
G01X-391402Y7054043D01*
G01X-362182Y7051711D01*
G01X-336046Y7049042D01*
G01X-302118Y7044739D01*
G03X-274771Y7041312I27346J107387D01*
G01X-224771Y7041312D01*
G03X-224771Y7262940I0J110814D01*
G01X-274771Y7262940D01*
G03X-302118Y7259513I0J-110814D01*
G01X-336046Y7255210D01*
G01X-362182Y7252541D01*
G01X-391402Y7250209D01*
G01X-422588Y7248567D01*
G01X-455116Y7247940D01*
G01X-1352389Y7247940D01*
G03X-1420139Y7219877I0J-95814D01*
G01X-1715955Y6924061D01*
G37*
G36*
G01X-1403465Y9557570D02*
G01X-1406694Y9555561D01*
G01X-1411302Y9553373D01*
G01X-1416815Y9551368D01*
G01X-1422750Y9549762D01*
G01X-1428613Y9548677D01*
G01X-1433865Y9548161D01*
G01X-1439132Y9548157D01*
G03X-1555004Y9437459I-5058J-110698D01*
G01X-1555004Y9387459D01*
G03X-1518889Y9305607I110814J0D01*
G01X-1515168Y9301879D01*
G01X-1511819Y9297801D01*
G01X-1508440Y9292888D01*
G01X-1505379Y9287556D01*
G01X-1502898Y9282240D01*
G01X-1501188Y9277434D01*
G01X-1500325Y9273730D01*
G01X-1500004Y9270014D01*
G01X-1500004Y8845994D01*
G01X-1500325Y8842278D01*
G01X-1501188Y8838574D01*
G01X-1502898Y8833768D01*
G01X-1505379Y8828452D01*
G01X-1508440Y8823120D01*
G01X-1511819Y8818207D01*
G01X-1515168Y8814129D01*
G01X-1518889Y8810402D01*
G03X-1555004Y8728550I74699J-81852D01*
G01X-1555004Y8678549D01*
G03X-1333376Y8678549I110814J0D01*
G01X-1333376Y8728550D01*
G03X-1369491Y8810402I-110814J0D01*
G01X-1373212Y8814129D01*
G01X-1376561Y8818207D01*
G01X-1379940Y8823120D01*
G01X-1383001Y8828452D01*
G01X-1385481Y8833768D01*
G01X-1387192Y8838574D01*
G01X-1388055Y8842278D01*
G01X-1388376Y8845994D01*
G01X-1388376Y9270014D01*
G01X-1388055Y9273730D01*
G01X-1387192Y9277434D01*
G01X-1385481Y9282240D01*
G01X-1383001Y9287556D01*
G01X-1379940Y9292888D01*
G01X-1376561Y9297801D01*
G01X-1373212Y9301879D01*
G01X-1369491Y9305607D01*
G03X-1333376Y9387459I-74699J81852D01*
G01X-1333376Y9437459D01*
G03X-1333491Y9442516I-110814J0D01*
G01X-1333487Y9447783D01*
G01X-1332971Y9453035D01*
G01X-1331887Y9458898D01*
G01X-1330281Y9464833D01*
G01X-1328276Y9470346D01*
G01X-1326087Y9474954D01*
G01X-1324079Y9478183D01*
G01X-1321677Y9481039D01*
G01X-1211468Y9591248D01*
G01X-618296Y9591248D01*
G01X-508087Y9481039D01*
G01X-505686Y9478183D01*
G01X-503677Y9474954D01*
G01X-501488Y9470346D01*
G01X-499483Y9464833D01*
G01X-497877Y9458898D01*
G01X-496793Y9453035D01*
G01X-496277Y9447783D01*
G01X-496273Y9442516D01*
G03X-496388Y9437459I110699J-5058D01*
G01X-496388Y9387459D01*
G03X-460274Y9305607I110814J0D01*
G01X-456552Y9301879D01*
G01X-453203Y9297801D01*
G01X-449825Y9292888D01*
G01X-446763Y9287556D01*
G01X-444283Y9282240D01*
G01X-442572Y9277434D01*
G01X-441709Y9273730D01*
G01X-441388Y9270014D01*
G01X-441388Y8845994D01*
G01X-441709Y8842278D01*
G01X-442572Y8838574D01*
G01X-444283Y8833768D01*
G01X-446763Y8828452D01*
G01X-449825Y8823120D01*
G01X-453203Y8818207D01*
G01X-456552Y8814129D01*
G01X-460274Y8810402D01*
G03X-496388Y8728550I74699J-81852D01*
G01X-496388Y8678549D01*
G03X-274760Y8678549I110814J0D01*
G01X-274760Y8728550D01*
G03X-310875Y8810402I-110814J0D01*
G01X-314596Y8814129D01*
G01X-317945Y8818207D01*
G01X-321324Y8823120D01*
G01X-324385Y8828452D01*
G01X-326866Y8833768D01*
G01X-328577Y8838574D01*
G01X-329440Y8842278D01*
G01X-329760Y8845994D01*
G01X-329760Y9270014D01*
G01X-329440Y9273730D01*
G01X-328577Y9277434D01*
G01X-326866Y9282240D01*
G01X-324385Y9287556D01*
G01X-321324Y9292888D01*
G01X-317945Y9297801D01*
G01X-314596Y9301879D01*
G01X-310875Y9305607D01*
G03X-274760Y9387459I-74699J81852D01*
G01X-274760Y9437459D01*
G03X-390632Y9548157I-110814J0D01*
G01X-395899Y9548161D01*
G01X-401151Y9548677D01*
G01X-407014Y9549762D01*
G01X-412949Y9551368D01*
G01X-418462Y9553373D01*
G01X-423070Y9555561D01*
G01X-426299Y9557570D01*
G01X-429153Y9559970D01*
G01X-555711Y9686528D01*
G03X-595177Y9702876I-39466J-39466D01*
G01X-1234587Y9702876D01*
G03X-1274053Y9686528I0J-55814D01*
G01X-1400611Y9559970D01*
G01X-1403465Y9557570D01*
G37*
G36*
G01X-1505018Y7890327D02*
G03X-1283391Y7890327I110814J0D01*
G03X-1505018Y7890327I-110814J0D01*
G37*
G36*
G01X-1461955Y5112534D02*
G03X-1490018Y5044784I67751J-67751D01*
G01X-1490018Y5009319D01*
G01X-1490590Y4994529D01*
G01X-1492060Y4980683D01*
G01X-1494183Y4967520D01*
G01X-1494587Y4965565D01*
G03X-1394204Y4807814I100382J-46938D01*
G03X-1293822Y4965565I0J110814D01*
G01X-1294226Y4967520D01*
G01X-1296349Y4980683D01*
G01X-1297819Y4994529D01*
G01X-1298233Y5005253D01*
G01X-1202897Y5100590D01*
G01X-667473Y5100590D01*
G02X-493401Y5086084I0J-1051688D01*
G03X-487473Y5085590I5928J35320D01*
G01X-287473Y5085590D01*
G03X-251659Y5121404I0J35814D01*
G01X-251659Y5271404D01*
G03X-287473Y5307218I-35814J0D01*
G01X-487473Y5307218D01*
G03X-493401Y5306724I0J-35814D01*
G02X-667473Y5292218I-174072J1037182D01*
G01X-1242584Y5292218D01*
G03X-1310335Y5264155I0J-95814D01*
G01X-1461955Y5112534D01*
G37*
G36*
G01X-667473Y1888774D02*
G01X-1274884Y1888774D01*
G03X-1342635Y1860711I0J-95814D01*
G01X-1461955Y1741391D01*
G03X-1490018Y1673640I67751J-67751D01*
G01X-1490018Y1641419D01*
G01X-1490590Y1626629D01*
G01X-1492060Y1612783D01*
G01X-1494183Y1599620D01*
G01X-1494587Y1597665D01*
G03X-1394204Y1439913I100382J-46938D01*
G03X-1293822Y1597665I0J110814D01*
G01X-1294226Y1599620D01*
G01X-1296349Y1612783D01*
G01X-1297819Y1626629D01*
G01X-1298113Y1634230D01*
G01X-1235197Y1697146D01*
G01X-667473Y1697146D01*
G02X-493401Y1682640I0J-1051688D01*
G03X-487473Y1682146I5928J35320D01*
G01X-287473Y1682146D01*
G03X-251659Y1717960I0J35814D01*
G01X-251659Y1867960D01*
G03X-287473Y1903774I-35814J0D01*
G01X-487473Y1903774D01*
G03X-493401Y1903280I0J-35814D01*
G02X-667473Y1888774I-174072J1037182D01*
G37*
G36*
G01X-1461955Y3419312D02*
G03X-1490018Y3351562I67751J-67751D01*
G01X-1490018Y3298099D01*
G03X-1394204Y3131613I95814J-55672D01*
G03X-1298390Y3298099I0J110814D01*
G01X-1298390Y3311874D01*
G01X-1211397Y3398868D01*
G01X-667473Y3398868D01*
G02X-493401Y3384362I0J-1051688D01*
G03X-487473Y3383868I5928J35320D01*
G01X-287473Y3383868D01*
G03X-251659Y3419682I0J35814D01*
G01X-251659Y3569682D01*
G03X-287473Y3605496I-35814J0D01*
G01X-487473Y3605496D01*
G03X-493401Y3605002I0J-35814D01*
G02X-667473Y3590496I-174072J1037182D01*
G01X-1251084Y3590496D01*
G03X-1318835Y3562433I0J-95814D01*
G01X-1461955Y3419312D01*
G37*
G36*
G01X-529771Y6802312D02*
G02X-355699Y6787806I0J-1051688D01*
G03X-349771Y6787312I5928J35320D01*
G01X-149771Y6787312D01*
G03X-113957Y6823126I0J35814D01*
G01X-113957Y6973126D01*
G03X-149771Y7008940I-35814J0D01*
G01X-349771Y7008940D01*
G03X-355699Y7008446I0J-35814D01*
G02X-529771Y6993940I-174072J1037182D01*
G01X-1228984Y6993940D01*
G03X-1296735Y6965877I0J-95814D01*
G01X-1461955Y6800656D01*
G03X-1490018Y6732906I67751J-67751D01*
G01X-1490018Y6701019D01*
G01X-1490590Y6686229D01*
G01X-1492060Y6672383D01*
G01X-1494183Y6659220D01*
G01X-1494587Y6657265D01*
G03X-1394204Y6499514I100382J-46938D01*
G03X-1293822Y6657265I0J110814D01*
G01X-1294226Y6659220D01*
G01X-1296349Y6672383D01*
G01X-1297819Y6686229D01*
G01X-1298100Y6693508D01*
G01X-1189296Y6802312D01*
G01X-529771Y6802312D01*
G37*
G36*
G01X-1505018Y6198627D02*
G03X-1283391Y6198627I110814J0D01*
G03X-1505018Y6198627I-110814J0D01*
G37*
G36*
G01X-1251018Y7890327D02*
G03X-1029391Y7890327I110814J0D01*
G03X-1251018Y7890327I-110814J0D01*
G37*
G36*
G01X-1251018Y6198627D02*
G03X-1029391Y6198627I110814J0D01*
G03X-1251018Y6198627I-110814J0D01*
G37*
G36*
G01X-997018Y7890327D02*
G03X-775391Y7890327I110814J0D01*
G03X-997018Y7890327I-110814J0D01*
G37*
G36*
G01X-997018Y4918627D02*
G03X-775391Y4918627I110814J0D01*
G03X-997018Y4918627I-110814J0D01*
G37*
G36*
G01X-997018Y1550727D02*
G03X-775391Y1550727I110814J0D01*
G03X-997018Y1550727I-110814J0D01*
G37*
G36*
G01X-997018Y3242427D02*
G03X-775391Y3242427I110814J0D01*
G03X-997018Y3242427I-110814J0D01*
G37*
G36*
G01X-997018Y6610327D02*
G03X-775391Y6610327I110814J0D01*
G03X-997018Y6610327I-110814J0D01*
G37*
G36*
G01X-997018Y6198627D02*
G03X-775391Y6198627I110814J0D01*
G03X-997018Y6198627I-110814J0D01*
G37*
%LPD*%
G54D10*
G01X-1102339Y11497661D02*
G03X-35814Y11568280I502339J502339D01*
G01X-35814Y1031720D01*
G03X-1102339Y1102339I-564186J-431720D01*
G03X-1031720Y35814I502339J-502339D01*
G01X-9168280Y35814D01*
G03X-9097661Y1102339I-431720J564186D01*
G03X-10164186Y1031720I-502339J-502339D01*
G01X-10164186Y11568280D01*
G03X-9097661Y11497661I564186J431720D01*
G03X-9168280Y12564186I-502339J502339D01*
G01X-1031720Y12564186D01*
G03X-1102339Y11497661I431720J-564186D01*
G01X-9488692Y3428366D02*
G03X-9630323Y3428366I-70815J0D01*
G03X-9488692Y3428366I70815J0D01*
G01X-9488692Y2850364D02*
G03X-9630323Y2850364I-70815J0D01*
G03X-9488692Y2850364I70815J0D01*
G01X-9450290Y7798429D02*
G03X-9450290Y8050057I0J125814D01*
G03X-9450290Y7798429I0J-125814D01*
G01X-9450290Y8306429D02*
G03X-9450290Y8558057I0J125814D01*
G03X-9450290Y8306429I0J-125814D01*
G01X-9394189Y10421087D02*
G03X-9394189Y10119459I0J-150814D01*
G03X-9394189Y10421087I0J150814D01*
G01X-7419130Y8159177D02*
G03X-7379663Y8142829I39466J39466D01*
G01X-6265468Y8142829D01*
G01X-5797309Y7674670D01*
G03X-5757842Y7658323I39466J39466D01*
G01X-5472239Y7658323D01*
G03X-5432772Y7674670I0J55814D01*
G01X-5319731Y7787712D01*
G03X-5287999Y7898376I-14806J64127D01*
G03X-5398664Y7866644I-46537J-46537D01*
G01X-5495358Y7769951D01*
G01X-5623226Y7769951D01*
G03X-5634804Y7847375I-58116J30887D01*
G01X-6506915Y8719487D01*
G03X-6553453Y8738763I-46537J-46537D01*
G01X-7155261Y8738763D01*
G03X-7221074Y8672949I0J-65814D01*
G03X-7155261Y8607135I65814J0D01*
G01X-6580714Y8607135D01*
G01X-6225400Y8251821D01*
G03X-6242349Y8254457I-16949J-53178D01*
G01X-7356545Y8254457D01*
G01X-7738842Y8636754D01*
G03X-7756431Y8668486I-64127J-14806D01*
G01X-8236841Y9148895D01*
G03X-8283378Y9168172I-46537J-46537D01*
G01X-9236255Y9168172D01*
G01X-9241241Y9168386D01*
G01X-9244443Y9168829D01*
G01X-9246822Y9169416D01*
G01X-9248690Y9170100D01*
G01X-9250374Y9170935D01*
G01X-9252156Y9172061D01*
G01X-9254225Y9173645D01*
G01X-9256413Y9175595D01*
G01X-9263038Y9182476D01*
G01X-9270816Y9191299D01*
G01X-9271186Y9191712D01*
G01X-9280340Y9201777D01*
G01X-9281868Y9203358D01*
G01X-9285187Y9206585D01*
G03X-9545003Y9102358I-109002J-104227D01*
G03X-9285187Y8998131I150814J0D01*
G01X-9281868Y9001358D01*
G01X-9280340Y9002938D01*
G01X-9271186Y9013004D01*
G01X-9270816Y9013417D01*
G01X-9263038Y9022240D01*
G01X-9256413Y9029121D01*
G01X-9254225Y9031071D01*
G01X-9252156Y9032655D01*
G01X-9250374Y9033781D01*
G01X-9248690Y9034616D01*
G01X-9246822Y9035300D01*
G01X-9244443Y9035887D01*
G01X-9241241Y9036330D01*
G01X-9236255Y9036544D01*
G01X-8310639Y9036544D01*
G01X-7849506Y8575411D01*
G03X-7817775Y8557822I46537J46537D01*
G01X-7419130Y8159177D01*
G01X-9215463Y2930949D02*
G01X-9215830Y2926900D01*
G01X-9216855Y2920376D01*
G03X-9154486Y2833546I62368J-21015D01*
G03X-9092118Y2920376I0J65814D01*
G01X-9093143Y2926900D01*
G01X-9093510Y2930949D01*
G01X-9093672Y2935942D01*
G01X-9093672Y3358680D01*
G03X-9111484Y3401682I-60814J0D01*
G01X-9119192Y3409390D01*
G03X-9222323Y3434570I-60794J-25210D01*
G03X-9215300Y3328643I42336J-50390D01*
G01X-9215300Y3244183D01*
G03X-9309685Y3278039I-61588J-23204D01*
G03X-9327938Y3179441I32797J-57060D01*
G01X-9327775Y3178823D01*
G01X-9327702Y3178122D01*
G01X-9327702Y3151633D01*
G01X-9327775Y3150933D01*
G01X-9327938Y3150315D01*
G03X-9309685Y3051717I51050J-41538D01*
G03X-9215300Y3085573I32797J57060D01*
G01X-9215300Y2935942D01*
G01X-9215463Y2930949D01*
G01X-8779287Y6934112D02*
G03X-8563473Y6992532I100000J58420D01*
G03X-8779287Y7050952I-115814J0D01*
G03X-8995101Y6992532I-100000J-58420D01*
G03X-8779287Y6934112I115814J0D01*
G01X-8840488Y5451318D02*
G03X-8898908Y5235505I0J-115814D01*
G03X-8840488Y5019691I58420J-100000D01*
G03X-8782068Y5235505I0J115814D01*
G03X-8840488Y5451318I-58420J100000D01*
G01X-8808677Y5710377D02*
G01X-8811599Y5707898D01*
G01X-8813797Y5706564D01*
G01X-8816821Y5705265D01*
G01X-8820893Y5704053D01*
G01X-8826048Y5703017D01*
G01X-8831989Y5702234D01*
G01X-8847283Y5701106D01*
G03X-8946462Y5538777I6795J-115614D01*
G03X-8759728Y5502481I105975J46714D01*
G01X-8694994Y5437747D01*
G01X-8694994Y4138990D01*
G03X-8675717Y4092453I65814J0D01*
G01X-8608662Y4025398D01*
G01X-8608593Y4024733D01*
G01X-8608593Y2257066D01*
G03X-8593710Y2221135I50814J0D01*
G01X-8486608Y2114034D01*
G03X-8450677Y2099151I35931J35931D01*
G01X-7349063Y2099151D01*
G03X-7313132Y2114034I0J50814D01*
G01X-7231762Y2195404D01*
G01X-7221792Y2185435D01*
G03X-7185861Y2170552I35931J35931D01*
G01X-6096502Y2170552D01*
G01X-6095802Y2170479D01*
G01X-6095184Y2170316D01*
G03X-5987832Y2221366I41538J51050D01*
G03X-6095184Y2272416I-65814J0D01*
G01X-6095802Y2272252D01*
G01X-6096502Y2272180D01*
G01X-6212680Y2272180D01*
G03X-6253043Y2372194I-55169J35887D01*
G01X-6676141Y2795292D01*
G01X-6676141Y4178807D01*
G03X-6633075Y4159952I46187J46885D01*
G03X-6588416Y4174642I3121J65740D01*
G01X-6587798Y4174805D01*
G01X-6587098Y4174878D01*
G01X-6411961Y4174878D01*
G03X-6412283Y4134706I62511J-20587D01*
G03X-6447619Y4040435I22032J-62017D01*
G03X-6348713Y4021640I57368J32254D01*
G01X-6348095Y4021803D01*
G01X-6347394Y4021876D01*
G01X-6240652Y4021876D01*
G03X-6241649Y4015378I64472J-13224D01*
G01X-6241971Y4014826D01*
G01X-6242415Y4014279D01*
G01X-6569804Y3686889D01*
G01X-6578841Y3678152D01*
G01X-6585579Y3672132D01*
G01X-6597829Y3662319D01*
G01X-6610832Y3651907D01*
G01X-6612295Y3650669D01*
G01X-6620281Y3643540D01*
G01X-6621316Y3642579D01*
G01X-6629438Y3634732D01*
G03X-6571652Y3469456I65653J-69786D01*
G03X-6487596Y3623046I7867J95490D01*
G01X-6487465Y3623506D01*
G01X-6486642Y3625295D01*
G01X-6485406Y3627207D01*
G01X-6483087Y3629883D01*
G01X-6170553Y3942417D01*
G01X-6170006Y3942861D01*
G01X-6169454Y3943183D01*
G03X-6111708Y4021876I-6726J65469D01*
G01X-5477339Y4021876D01*
G03X-5441408Y4036759I0J50814D01*
G01X-5405411Y4072756D01*
G01X-5404864Y4073200D01*
G01X-5404312Y4073521D01*
G03X-5352142Y4168364I-6726J65469D01*
G03X-5459287Y4183751I-58896J-29373D01*
G03X-5559677Y4205341I-58852J-29460D01*
G01X-5560295Y4205177D01*
G01X-5560996Y4205105D01*
G01X-5946271Y4205105D01*
G01X-5935818Y4215557D01*
G01X-5935271Y4216001D01*
G01X-5934719Y4216323D01*
G03X-5894907Y4328330I-6726J65469D01*
G03X-6006914Y4288519I-46538J-46537D01*
G01X-6007236Y4287966D01*
G01X-6007680Y4287419D01*
G01X-6018593Y4276506D01*
G01X-6091682Y4276506D01*
G03X-6090178Y4285266I-63966J15487D01*
G01X-6089857Y4285819D01*
G01X-6089413Y4286365D01*
G01X-6073816Y4301962D01*
G03X-6058933Y4337893I-35931J35931D01*
G01X-6058933Y4437839D01*
G01X-6058860Y4438539D01*
G01X-6058697Y4439157D01*
G03X-6109747Y4546509I-51050J41538D01*
G03X-6160797Y4439157I-0J-65814D01*
G01X-6160634Y4438539D01*
G01X-6160561Y4437839D01*
G01X-6160561Y4358941D01*
G01X-6161275Y4358227D01*
G01X-6161821Y4357783D01*
G01X-6162374Y4357462D01*
G03X-6219613Y4276506I6726J-65469D01*
G01X-6587098Y4276506D01*
G01X-6587798Y4276578D01*
G01X-6588416Y4276741D01*
G03X-6652330Y4287585I-41538J-51050D01*
G01X-6571134Y4368780D01*
G01X-6394525Y4368780D01*
G03X-6300689Y4395353I34875J55814D01*
G01X-6296801Y4400691D01*
G01X-6294197Y4403814D01*
G01X-6290781Y4407459D01*
G01X-5916947Y4781294D01*
G01X-5911460Y4780431D01*
G03X-5824630Y4842800I21015J62368D01*
G03X-5911460Y4905168I-65814J0D01*
G01X-5917983Y4904143D01*
G01X-5922033Y4903776D01*
G01X-5927026Y4903614D01*
G01X-5941445Y4903614D01*
G03X-5984447Y4885802I0J-60814D01*
G01X-6376785Y4493463D01*
G01X-6380430Y4490047D01*
G01X-6383553Y4487444D01*
G01X-6388891Y4483555D01*
G03X-6394525Y4480408I29241J-58961D01*
G01X-6594253Y4480408D01*
G03X-6633720Y4464061I0J-55814D01*
G01X-6771421Y4326359D01*
G03X-6787769Y4286892I39466J-39466D01*
G01X-6787769Y2772173D01*
G03X-6771421Y2732706I55814J0D01*
G01X-6331976Y2293261D01*
G03X-6323018Y2272180I64127J14806D01*
G01X-7164813Y2272180D01*
G01X-7165527Y2272893D01*
G01X-7165971Y2273440D01*
G01X-7166292Y2273992D01*
G03X-7231761Y2333080I-65469J-6726D01*
G03X-7297231Y2273992I-0J-65814D01*
G01X-7297552Y2273440D01*
G01X-7297996Y2272893D01*
G01X-7370111Y2200779D01*
G01X-8429629Y2200779D01*
G01X-8506965Y2278114D01*
G01X-8506965Y4024733D01*
G01X-8506892Y4025434D01*
G01X-8506729Y4026052D01*
G03X-8511241Y4114127I-51050J41538D01*
G01X-8563366Y4166251D01*
G01X-8563366Y5465008D01*
G03X-8582642Y5511545I-65814J0D01*
G01X-8702001Y5630904D01*
G01X-7842296Y6490608D01*
G01X-7338863Y6490608D01*
G03X-7285905Y6517346I0J65814D01*
G03X-7275977Y6575834I-52958J39076D01*
G01X-7055461Y6355318D01*
G03X-7012459Y6337506I43002J43002D01*
G01X-6293039Y6337506D01*
G01X-6025247Y6069714D01*
G03X-5982245Y6051902I43002J43002D01*
G01X-5192616Y6051902D01*
G01X-5187623Y6051740D01*
G01X-5183574Y6051373D01*
G01X-5177050Y6050348D01*
G03X-5090221Y6112716I21015J62368D01*
G03X-5177050Y6175084I-65814J0D01*
G01X-5183574Y6174059D01*
G01X-5187623Y6173692D01*
G01X-5192616Y6173530D01*
G01X-5957055Y6173530D01*
G01X-6224847Y6441322D01*
G03X-6267849Y6459134I-43002J-43002D01*
G01X-6987269Y6459134D01*
G01X-8162505Y7634370D01*
G01X-8165921Y7638016D01*
G01X-8168525Y7641138D01*
G01X-8172413Y7646476D01*
G03X-8225140Y7682753I-58961J-29241D01*
G03X-8283763Y7657072I-6234J-65518D01*
G01X-8283763Y8428146D01*
G03X-8505391Y8428146I-110814J0D01*
G01X-8505391Y6887926D01*
G01X-8539983Y6853334D01*
G01X-8583071Y6853334D01*
G01X-8600280Y6853541D01*
G01X-8616568Y6854081D01*
G01X-8645874Y6855751D01*
G01X-8662259Y6857075D01*
G03X-8795101Y6742520I-17028J-114555D01*
G03X-8662259Y6627965I115814J0D01*
G01X-8645874Y6629288D01*
G01X-8616568Y6630958D01*
G01X-8600280Y6631498D01*
G01X-8583071Y6631706D01*
G01X-8494082Y6631706D01*
G03X-8415725Y6664162I0J110814D01*
G01X-8316219Y6763668D01*
G03X-8283763Y6842025I-78357J78357D01*
G01X-8283763Y7577399D01*
G03X-8260615Y7558274I52388J39837D01*
G01X-8255277Y7554386D01*
G01X-8252155Y7551782D01*
G01X-8248509Y7548366D01*
G01X-7319451Y6619308D01*
G03X-7338863Y6622236I-19412J-62886D01*
G01X-7869557Y6622236D01*
G03X-7916095Y6602959I0J-65814D01*
G01X-8808677Y5710377D01*
G01X-8149887Y8538992D02*
G01X-8149724Y8539610D01*
G03X-8200774Y8646962I-51050J41538D01*
G03X-8251824Y8539610I-0J-65814D01*
G01X-8251661Y8538992D01*
G01X-8251588Y8538292D01*
G01X-8251588Y8333300D01*
G01X-8251661Y8332600D01*
G01X-8251824Y8331982D01*
G03X-8200774Y8224630I51050J-41538D01*
G03X-8149724Y8331982I0J65814D01*
G01X-8149887Y8332600D01*
G01X-8149960Y8333300D01*
G01X-8149960Y8538292D01*
G01X-8149887Y8538992D01*
G01X-8030471Y1350240D02*
G01X-7830470Y1350240D01*
G03X-7794656Y1386054I0J35814D01*
G01X-7794656Y1546054D01*
G03X-7830470Y1581868I-35814J0D01*
G01X-8030471Y1581868D01*
G03X-8066285Y1546054I0J-35814D01*
G01X-8066285Y1386054D01*
G03X-8030471Y1350240I35814J0D01*
G01X-6856907Y10236406D02*
G03X-6817440Y10252754I0J55814D01*
G01X-6462146Y10608048D01*
G03X-6430414Y10718712I-14806J64127D01*
G03X-6541079Y10686981I-46537J-46537D01*
G01X-6880026Y10348034D01*
G01X-7861516Y10348034D01*
G01X-7867545Y10348034D01*
G03X-7968234Y10292220I-34875J-55814D01*
G03X-7867545Y10236406I65814J0D01*
G01X-6856907Y10236406D01*
G01X-7793843Y3684575D02*
G01X-7794395Y3684253D01*
G03X-7834206Y3572246I6726J-65469D01*
G03X-7722199Y3612057I46538J46537D01*
G01X-7721878Y3612610D01*
G01X-7721434Y3613157D01*
G01X-7552418Y3782173D01*
G01X-7208317Y3782173D01*
G01X-7207616Y3782100D01*
G01X-7206998Y3781937D01*
G03X-7099647Y3832986I41538J51050D01*
G03X-7206998Y3884036I-65814J0D01*
G01X-7207616Y3883873D01*
G01X-7208317Y3883800D01*
G01X-7573466Y3883800D01*
G03X-7609397Y3868917I0J-50814D01*
G01X-7793296Y3685019D01*
G01X-7793843Y3684575D01*
G01X-7308262Y3420068D02*
G03X-7272332Y3434951I0J50814D01*
G01X-7185334Y3521949D01*
G01X-7184787Y3522392D01*
G01X-7184235Y3522714D01*
G03X-7144423Y3634721I-6726J65469D01*
G03X-7256430Y3594910I-46538J-46537D01*
G01X-7256752Y3594357D01*
G01X-7257196Y3593810D01*
G01X-7329310Y3521696D01*
G01X-7744813Y3521696D01*
G01X-7745513Y3521769D01*
G01X-7746131Y3521932D01*
G03X-7853483Y3470882I-41538J-51050D01*
G03X-7746131Y3419832I65814J-0D01*
G01X-7745513Y3419995D01*
G01X-7744813Y3420068D01*
G01X-7308262Y3420068D01*
G01X-7787901Y11399383D02*
G03X-7496274Y11399383I145814J0D01*
G03X-7787901Y11399383I-145814J0D01*
G01X-7521272Y12324375D02*
G03X-7762903Y12324375I-120815J0D01*
G03X-7521272Y12324375I120815J0D01*
G01X-6235075Y6052009D02*
G03X-6124410Y6020278I64127J14806D01*
G03X-6156142Y6130942I-46537J46537D01*
G01X-6339873Y6314674D01*
G03X-6379340Y6331021I-39466J-39466D01*
G01X-7161186Y6331021D01*
G03X-7261875Y6275207I-34875J-55814D01*
G03X-7161186Y6219393I65814J0D01*
G01X-6402459Y6219393D01*
G01X-6235075Y6052009D01*
G01X-7002895Y6602959D02*
G03X-7002895Y6509884I46537J-46537D01*
G03X-6909820Y6509884I46537J46537D01*
G01X-6180511Y7239194D01*
G03X-6161235Y7285731I-46537J46537D01*
G01X-6161235Y7749863D01*
G01X-5890257Y7478886D01*
G01X-5890257Y6813481D01*
G01X-5890330Y6812780D01*
G01X-5890493Y6812162D01*
G03X-5839444Y6704811I51050J-41538D01*
G03X-5788394Y6812162I0J65814D01*
G01X-5788557Y6812780D01*
G01X-5788630Y6813481D01*
G01X-5788630Y7499934D01*
G03X-5803513Y7535865I-50814J0D01*
G01X-6004137Y7736489D01*
G03X-5952230Y7804423I-13809J64349D01*
G03X-6011220Y7866307I-65716J-3585D01*
G01X-6011772Y7866629D01*
G01X-6012319Y7867073D01*
G01X-6221718Y8076472D01*
G03X-6257649Y8091355I-35931J-35931D01*
G01X-6311694Y8091355D01*
G01X-6312395Y8091428D01*
G01X-6313012Y8091591D01*
G03X-6408347Y8078453I-41538J-51050D01*
G03X-6388656Y7984254I53797J-37912D01*
G01X-6668699Y7984254D01*
G01X-6669399Y7984326D01*
G01X-6670017Y7984489D01*
G03X-6777369Y7933440I-41538J-51050D01*
G03X-6670017Y7882390I65814J-0D01*
G01X-6669399Y7882553D01*
G01X-6668699Y7882626D01*
G01X-6293997Y7882626D01*
G01X-6244943Y7833572D01*
G03X-6292862Y7770237I17895J-63334D01*
G01X-6292862Y7312992D01*
G01X-7002895Y6602959D01*
G01X-6571056Y12038805D02*
G03X-6606870Y12002991I0J-35814D01*
G01X-6606870Y11850591D01*
G03X-6571056Y11814777I35814J0D01*
G01X-6418656Y11814777D01*
G03X-6382842Y11850591I0J35814D01*
G01X-6382842Y12002991D01*
G03X-6418656Y12038805I-35814J0D01*
G01X-6571056Y12038805D01*
G01X-6321044Y12038805D02*
G03X-6356858Y12002991I0J-35814D01*
G01X-6356858Y11850591D01*
G03X-6321044Y11814777I35814J0D01*
G01X-6168644Y11814777D01*
G03X-6132830Y11850591I0J35814D01*
G01X-6132830Y12002991D01*
G03X-6168644Y12038805I-35814J0D01*
G01X-6321044Y12038805D01*
G01X-6279768Y1063651D02*
G03X-5918140Y1063651I180814J0D01*
G03X-6279768Y1063651I-180814J0D01*
G01X-4798843Y5913667D02*
G01X-4798843Y5797595D01*
G03X-4910400Y5757338I-46087J-46983D01*
G01X-4910722Y5756785D01*
G01X-4911165Y5756238D01*
G01X-4926762Y5740642D01*
G03X-4941645Y5704711I35931J-35931D01*
G01X-4941645Y5436475D01*
G03X-4957626Y5442433I-30787J-58169D01*
G01X-5141021Y5625828D01*
G01X-5141021Y5899339D01*
G03X-5196835Y6000028I-55814J34875D01*
G03X-5252649Y5899339I0J-65814D01*
G01X-5252649Y5602709D01*
G03X-5236302Y5563243I55814J0D01*
G01X-5036559Y5363501D01*
G03X-4941645Y5320138I64127J14806D01*
G01X-4941645Y5247947D01*
G01X-5113548Y5076043D01*
G03X-5207772Y5087652I-52686J-39441D01*
G01X-5208390Y5087489D01*
G01X-5209091Y5087416D01*
G01X-5679286Y5087416D01*
G01X-5679986Y5087489D01*
G01X-5680604Y5087652D01*
G03X-5787956Y5036602I-41538J-51050D01*
G03X-5680604Y4985552I65814J-0D01*
G01X-5679986Y4985715D01*
G01X-5679286Y4985788D01*
G01X-5209091Y4985788D01*
G01X-5208390Y4985715D01*
G01X-5207773Y4985552D01*
G03X-5205676Y4983916I41538J51050D01*
G01X-5785464Y4404128D01*
G01X-5786011Y4403684D01*
G01X-5786563Y4403362D01*
G03X-5826375Y4291356I6726J-65469D01*
G03X-5714368Y4331167I46538J46537D01*
G01X-5714046Y4331719D01*
G01X-5713602Y4332266D01*
G01X-5574053Y4471815D01*
G01X-5574053Y4329749D01*
G01X-5574126Y4329048D01*
G01X-5574289Y4328430D01*
G03X-5523240Y4221078I51050J-41538D01*
G03X-5472189Y4328430I0J65814D01*
G01X-5472353Y4329048D01*
G01X-5472425Y4329749D01*
G01X-5472425Y4509520D01*
G01X-5100765Y4881181D01*
G03X-5050559Y4848731I56931J33019D01*
G01X-5050007Y4848410D01*
G01X-5049460Y4847966D01*
G01X-4880565Y4679071D01*
G01X-4880121Y4678524D01*
G01X-4879800Y4677972D01*
G03X-4798843Y4620732I65469J6726D01*
G01X-4798843Y4243047D01*
G01X-4798916Y4242347D01*
G01X-4799079Y4241729D01*
G03X-4742298Y4134627I51050J-41538D01*
G03X-4652542Y4077742I65669J4363D01*
G03X-4625578Y4180528I-24086J61248D01*
G01X-4625742Y4181146D01*
G01X-4625814Y4181847D01*
G01X-4625814Y5288840D01*
G01X-4625134Y5288679D01*
G01X-4486592Y5150138D01*
G03X-4447125Y5133790I39466J39466D01*
G01X-3961794Y5133790D01*
G03X-3861105Y5189604I34875J55814D01*
G03X-3961794Y5245418I-65814J0D01*
G01X-4424007Y5245418D01*
G01X-4546201Y5367612D01*
G03X-4625814Y5416772I-64127J-14806D01*
G01X-4625814Y5995414D01*
G03X-4640698Y6031345I-50814J0D01*
G01X-4916665Y6307313D01*
G02X-4914839Y6312706I20081J-3793D01*
G01X-4907834Y6312706D01*
G03X-4872020Y6348520I0J35814D01*
G01X-4872020Y6468520D01*
G03X-4907834Y6504334I-35814J0D01*
G01X-4957123Y6504334D01*
G02X-4997424Y6517043I0J70252D01*
G01X-5132370Y6651989D01*
G03X-5171836Y6668336I-39466J-39466D01*
G01X-5337622Y6668336D01*
G03X-5329964Y6701526I-58116J30887D01*
G03X-5339924Y6734099I-65774J-2302D01*
G01X-5339924Y6898951D01*
G03X-5395738Y6999641I-55814J34875D01*
G03X-5451552Y6898951I0J-65814D01*
G01X-5451552Y6734099D01*
G03X-5461511Y6701526I55814J-34875D01*
G03X-5453854Y6668336I65774J-2302D01*
G01X-5938726Y6668336D01*
G01X-6066020Y6795631D01*
G03X-6150699Y6843348I-64127J-14806D01*
G03X-6190552Y6754696I20551J-62523D01*
G03X-6251848Y6694331I4305J-65673D01*
G03X-6201054Y6624897I65600J-5307D01*
G01X-5945211Y6369053D01*
G03X-5905744Y6352706I39466J39466D01*
G01X-5305275Y6352706D01*
G01X-5303518Y6352564D01*
G01X-5303150Y6352396D01*
G01X-5301792Y6351533D01*
G01X-5299313Y6349583D01*
G01X-5295712Y6346374D01*
G01X-5287998Y6339219D01*
G03X-5219404Y6312737I66165J69301D01*
G01X-5217623Y6312718D01*
G01X-5215160Y6312777D01*
G01X-5207985Y6313196D01*
G01X-5207213Y6313250D01*
G01X-5201365Y6313719D01*
G01X-5199049Y6313810D01*
G01X-5198661Y6313485D01*
G01X-4798843Y5913667D01*
G01X-6098192Y3792072D02*
G01X-6098810Y3792235D01*
G03X-6206161Y3741185I-41538J-51050D01*
G03X-6098810Y3690135I65814J-0D01*
G01X-6098192Y3690299D01*
G01X-6097491Y3690371D01*
G01X-6001955Y3690371D01*
G03X-5887194Y3697443I55410J35514D01*
G03X-5953578Y3791322I-59351J28442D01*
G03X-5961845Y3791999I-8267J-50137D01*
G01X-6097491Y3791999D01*
G01X-6098192Y3792072D01*
G01X-5818388Y3435162D02*
G03X-5932637Y3374044I-51656J-40781D01*
G03X-6000194Y3374678I-34308J-56164D01*
G03X-6032715Y3315460I33249J-56798D01*
G03X-6099625Y3210077I-15832J-63881D01*
G03X-5982777Y3253998I51079J41502D01*
G03X-5918780Y3273028I15832J63881D01*
G03X-5904352Y3338217I-48165J44851D01*
G03X-5818388Y3435162I34308J56164D01*
G01X-5803145Y5424045D02*
G03X-5822536Y5537233I-41398J51163D01*
G01X-5964019Y5678716D01*
G03X-6074683Y5710448I-64127J-14806D01*
G03X-6042952Y5599783I46537J-46537D01*
G01X-5909796Y5466627D01*
G03X-5803145Y5424045I65252J8581D01*
G01X-5719345Y12038805D02*
G03X-5755159Y12002991I0J-35814D01*
G01X-5755159Y11850591D01*
G03X-5719345Y11814777I35814J0D01*
G01X-5566945Y11814777D01*
G03X-5531131Y11850591I0J35814D01*
G01X-5531131Y12002991D01*
G03X-5566945Y12038805I-35814J0D01*
G01X-5719345Y12038805D01*
G01X-5469333Y12038805D02*
G03X-5505147Y12002991I0J-35814D01*
G01X-5505147Y11850591D01*
G03X-5469333Y11814777I35814J0D01*
G01X-5316933Y11814777D01*
G03X-5281119Y11850591I0J35814D01*
G01X-5281119Y12002991D01*
G03X-5316933Y12038805I-35814J0D01*
G01X-5469333Y12038805D01*
G01X-5220737Y1278236D02*
G01X-5020737Y1278236D01*
G03X-5020737Y1509864I0J115814D01*
G01X-5220737Y1509864D01*
G03X-5220737Y1278236I0J-115814D01*
G01X-1762464Y6226459D02*
G01X-1761738Y6225205D01*
G01X-1761081Y6223449D01*
G01X-1760410Y6220440D01*
G01X-1759857Y6215806D01*
G01X-1759489Y6209423D01*
G01X-1758990Y6196126D01*
G03X-1569847Y6120270I110786J2502D01*
G03X-1645703Y6309413I-78357J78357D01*
G01X-1659000Y6309912D01*
G01X-1665383Y6310280D01*
G01X-1670017Y6310833D01*
G01X-1673026Y6311504D01*
G01X-1674782Y6312161D01*
G01X-1676036Y6312887D01*
G01X-1678750Y6315177D01*
G01X-1835495Y6471922D01*
G03X-1878497Y6489734I-43002J-43002D01*
G01X-2203607Y6489734D01*
G01X-2293655Y6579781D01*
G01X-2295945Y6582495D01*
G01X-2296671Y6583749D01*
G01X-2297327Y6585505D01*
G01X-2297999Y6588515D01*
G01X-2298551Y6593149D01*
G01X-2298920Y6599531D01*
G01X-2299419Y6612829D01*
G03X-2330098Y6686896I-110786J-2502D01*
G01X-2339148Y6696651D01*
G01X-2343401Y6701425D01*
G01X-2346286Y6705093D01*
G01X-2347940Y6707695D01*
G01X-2348717Y6709401D01*
G01X-2349091Y6710801D01*
G01X-2349391Y6714340D01*
G01X-2349391Y7074634D01*
G03X-2354197Y7098331I-60814J0D01*
G01X-1678750Y7773777D01*
G01X-1676036Y7776068D01*
G01X-1674782Y7776794D01*
G01X-1673026Y7777450D01*
G01X-1670017Y7778121D01*
G01X-1665383Y7778674D01*
G01X-1659000Y7779043D01*
G01X-1645703Y7779542D01*
G03X-1569847Y7968685I-2502J110786D01*
G03X-1758990Y7892829I-78357J-78357D01*
G01X-1759489Y7879531D01*
G01X-1759857Y7873149D01*
G01X-1760410Y7868515D01*
G01X-1761081Y7865505D01*
G01X-1761738Y7863749D01*
G01X-1762464Y7862495D01*
G01X-1764754Y7859781D01*
G01X-2437051Y7187485D01*
G01X-3083206Y7833640D01*
G03X-3126208Y7851452I-43002J-43002D01*
G01X-4549437Y7851452D01*
G01X-5010665Y8312679D01*
G01X-5014080Y8316324D01*
G01X-5016684Y8319447D01*
G01X-5020572Y8324785D01*
G03X-5126071Y8342082I-58961J-29241D01*
G03X-5108775Y8236583I46537J-46537D01*
G01X-5103437Y8232695D01*
G01X-5100314Y8230091D01*
G01X-5096668Y8226675D01*
G01X-4617629Y7747636D01*
G03X-4574627Y7729824I43002J43002D01*
G01X-3151398Y7729824D01*
G01X-2471018Y7049444D01*
G01X-2471018Y6714340D01*
G01X-2471318Y6710801D01*
G01X-2471691Y6709401D01*
G01X-2472469Y6707695D01*
G01X-2474123Y6705093D01*
G01X-2477008Y6701425D01*
G01X-2481261Y6696651D01*
G01X-2490311Y6686896D01*
G03X-2412706Y6499542I80106J-76568D01*
G01X-2399409Y6499043D01*
G01X-2393026Y6498674D01*
G01X-2388392Y6498121D01*
G01X-2385382Y6497450D01*
G01X-2383626Y6496794D01*
G01X-2382373Y6496068D01*
G01X-2379658Y6493777D01*
G01X-2271799Y6385918D01*
G03X-2228797Y6368106I43002J43002D01*
G01X-1903687Y6368106D01*
G01X-1764754Y6229173D01*
G01X-1762464Y6226459D01*
G01X-4931445Y2452924D02*
G01X-4931518Y2452224D01*
G01X-4931681Y2451606D01*
G03X-4880631Y2344254I51050J-41538D01*
G03X-4829581Y2451606I0J65814D01*
G01X-4829744Y2452224D01*
G01X-4829817Y2452924D01*
G01X-4829817Y3297480D01*
G03X-4844700Y3333410I-50814J0D01*
G01X-5008319Y3497030D01*
G01X-5008319Y3897232D01*
G01X-5008247Y3897932D01*
G01X-5008084Y3898550D01*
G03X-5059133Y4005902I-51050J41538D01*
G03X-5110183Y3898550I-0J-65814D01*
G01X-5110020Y3897932D01*
G01X-5109947Y3897232D01*
G01X-5109947Y3475982D01*
G03X-5095064Y3440051I50814J0D01*
G01X-4931445Y3276432D01*
G01X-4931445Y2452924D01*
G01X-4618708Y6172293D02*
G01X-4616828Y6170246D01*
G01X-4615962Y6169110D01*
G01X-4615437Y6168262D01*
G01X-4615090Y6167552D01*
G01X-4614804Y6166787D01*
G01X-4614687Y6166360D01*
G01X-4614037Y6162116D01*
G01X-4613786Y6156409D01*
G01X-4613857Y6148327D01*
G01X-4613973Y6138702D01*
G01X-4613964Y6137347D01*
G01X-4613840Y6132531D01*
G03X-4407598Y6047186I120814J84D01*
G03X-4492942Y6253428I-85428J85428D01*
G01X-4497759Y6253553D01*
G01X-4499113Y6253562D01*
G01X-4508738Y6253446D01*
G01X-4516820Y6253375D01*
G01X-4522528Y6253625D01*
G01X-4526772Y6254276D01*
G01X-4527199Y6254392D01*
G01X-4527964Y6254678D01*
G01X-4528674Y6255026D01*
G01X-4529522Y6255551D01*
G01X-4530657Y6256417D01*
G01X-4532705Y6258297D01*
G01X-4596848Y6322440D01*
G01X-4596848Y6651726D01*
G02X-4563872Y6765911I214186J0D01*
G01X-4523272Y6765911D01*
G01X-4519148Y6765725D01*
G01X-4515337Y6765266D01*
G01X-4504185Y6763129D01*
G01X-4491833Y6760368D01*
G01X-4490392Y6760077D01*
G01X-4481298Y6758433D01*
G03X-4453986Y6758384I13772J64357D01*
G01X-4451719Y6758788D01*
G03X-4448525Y6759511I-6296J35256D01*
G01X-4443885Y6760786D01*
G03X-4440870Y6761760I-9490J34534D01*
G01X-4433275Y6764590D01*
G01X-4430997Y6765418D01*
G01X-4430169Y6765648D01*
G01X-4429398Y6765774D01*
G01X-4426687Y6765911D01*
G01X-3916053Y6765911D01*
G03X-3845983Y6765911I35035J55714D01*
G01X-3305592Y6765911D01*
G01X-3300599Y6765749D01*
G01X-3296550Y6765382D01*
G01X-3290026Y6764357D01*
G03X-3203196Y6826725I21015J62368D01*
G03X-3290026Y6889094I-65814J0D01*
G01X-3296550Y6888068D01*
G01X-3300599Y6887701D01*
G01X-3305592Y6887539D01*
G01X-4434795Y6887539D01*
G01X-4442255Y6887817D01*
G01X-4451222Y6888387D01*
G01X-4452198Y6888436D01*
G01X-4461618Y6888777D01*
G03X-4464826Y6888750I-1298J-35790D01*
G01X-4466093Y6888707D01*
G01X-4468337Y6888836D01*
G01X-4474600Y6888997D01*
G01X-4476486Y6888995D01*
G01X-4490009Y6888631D01*
G01X-4490933Y6888594D01*
G01X-4504115Y6887898D01*
G01X-4515171Y6887539D01*
G01X-4935851Y6887539D01*
G01X-4940844Y6887701D01*
G01X-4944893Y6888068D01*
G01X-4951417Y6889094D01*
G03X-5038246Y6826725I-21015J-62368D01*
G03X-4951417Y6764357I65814J0D01*
G01X-4944893Y6765382D01*
G01X-4940844Y6765749D01*
G01X-4935851Y6765911D01*
G01X-4751451Y6765911D01*
G02X-4718476Y6651908I-181210J-114186D01*
G01X-4718476Y6297250D01*
G03X-4700664Y6254248I60814J0D01*
G01X-4618708Y6172293D01*
G01X-4482639Y4037637D02*
G01X-4493553Y4026723D01*
G01X-4494100Y4026279D01*
G01X-4494652Y4025957D01*
G03X-4535106Y4006374I6726J-65469D01*
G03X-4662843Y4016144I-65021J-10185D01*
G03X-4552947Y3950303I62716J-19955D01*
G03X-4486182Y3894697I65021J10185D01*
G03X-4422457Y3953762I-1744J65791D01*
G01X-4422135Y3954314D01*
G01X-4421691Y3954861D01*
G01X-4395938Y3980614D01*
G01X-4395938Y3313427D01*
G01X-4447652Y3261713D01*
G01X-4448199Y3261269D01*
G01X-4448751Y3260948D01*
G03X-4488563Y3148941I6726J-65469D01*
G03X-4376556Y3188752I46538J46537D01*
G01X-4376234Y3189304D01*
G01X-4375791Y3189851D01*
G01X-4309193Y3256449D01*
G03X-4294310Y3292379I-35931J35931D01*
G01X-4294310Y4126722D01*
G03X-4216153Y4139202I30787J58169D01*
G03X-4206504Y4217759I-47370J45690D01*
G01X-4206855Y4218488D01*
G01X-4207153Y4219467D01*
G01X-4207475Y4221197D01*
G01X-4207609Y4223074D01*
G01X-4207609Y4289937D01*
G01X-4207536Y4290637D01*
G01X-4207373Y4291255D01*
G03X-4217387Y4384247I-51050J41538D01*
G03X-4310276Y4373324I-41036J-51454D01*
G03X-4381011Y4372661I-34848J-55831D01*
G01X-4381011Y4815244D01*
G01X-4380938Y4815944D01*
G01X-4380775Y4816562D01*
G03X-4431825Y4923914I-51050J41538D01*
G03X-4482875Y4816562I-0J-65814D01*
G01X-4482712Y4815944D01*
G01X-4482639Y4815244D01*
G01X-4482639Y4037637D01*
G01X-1439782Y8076528D02*
G03X-1400315Y8092876I0J55814D01*
G01X-938165Y8555026D01*
G02X-897864Y8567735I40301J-57542D01*
G01X-818574Y8567735D01*
G03X-782760Y8603549I0J35814D01*
G01X-782760Y8803550D01*
G03X-818574Y8839364I-35814J0D01*
G01X-829406Y8839364D01*
G02X-837760Y8863549I30831J24186D01*
G01X-837760Y9252459D01*
G02X-829406Y9276645I39186J0D01*
G01X-818574Y9276645D01*
G03X-782760Y9312459I0J35814D01*
G01X-782760Y9512459D01*
G03X-818574Y9548273I-35814J0D01*
G01X-968574Y9548273D01*
G03X-1004388Y9512459I0J-35814D01*
G01X-1004388Y9312459D01*
G03X-968574Y9276645I35814J0D01*
G01X-957743Y9276645D01*
G02X-949388Y9252459I-30831J-24186D01*
G01X-949388Y8863549D01*
G02X-957743Y8839364I-39186J0D01*
G01X-968574Y8839364D01*
G03X-1004388Y8803550I0J-35814D01*
G01X-1004388Y8674260D01*
G02X-1017097Y8633960I-70252J0D01*
G01X-1462901Y8188156D01*
G01X-2359053Y8188156D01*
G01X-1992183Y8555026D01*
G02X-1951882Y8567735I40301J-57543D01*
G01X-1877190Y8567735D01*
G03X-1841376Y8603549I0J35814D01*
G01X-1841376Y8803550D01*
G03X-1877190Y8839364I-35814J0D01*
G01X-1888021Y8839364D01*
G02X-1896376Y8863549I30831J24186D01*
G01X-1896376Y9252459D01*
G02X-1888021Y9276645I39186J0D01*
G01X-1877190Y9276645D01*
G03X-1841376Y9312459I0J35814D01*
G01X-1841376Y9512459D01*
G03X-1877190Y9548273I-35814J0D01*
G01X-2027190Y9548273D01*
G03X-2063004Y9512459I0J-35814D01*
G01X-2063004Y9312459D01*
G03X-2027190Y9276645I35814J0D01*
G01X-2016358Y9276645D01*
G02X-2008004Y9252459I-30831J-24186D01*
G01X-2008004Y8863549D01*
G02X-2016358Y8839364I-39186J0D01*
G01X-2027190Y8839364D01*
G03X-2063004Y8803550I0J-35814D01*
G01X-2063004Y8669663D01*
G02X-2075713Y8629362I-70252J0D01*
G01X-2430218Y8274857D01*
G01X-3144464Y8274857D01*
G01X-2958237Y8461084D01*
G03X-2941889Y8500550I-39466J39466D01*
G01X-2941889Y8543550D01*
G02X-2933535Y8567735I39186J0D01*
G01X-2922703Y8567735D01*
G03X-2886889Y8603549I0J35814D01*
G01X-2886889Y8803550D01*
G03X-2922703Y8839364I-35814J0D01*
G01X-2933535Y8839364D01*
G02X-2941889Y8863549I30831J24186D01*
G01X-2941889Y9252459D01*
G02X-2933535Y9276645I39186J0D01*
G01X-2922703Y9276645D01*
G03X-2886889Y9312459I0J35814D01*
G01X-2886889Y9512459D01*
G03X-2922703Y9548273I-35814J0D01*
G01X-3072703Y9548273D01*
G03X-3108517Y9512459I0J-35814D01*
G01X-3108517Y9312459D01*
G03X-3072703Y9276645I35814J0D01*
G01X-3061872Y9276645D01*
G02X-3053517Y9252459I-30831J-24186D01*
G01X-3053517Y8863549D01*
G02X-3061872Y8839364I-39186J0D01*
G01X-3072703Y8839364D01*
G03X-3108517Y8803550I0J-35814D01*
G01X-3108517Y8603549D01*
G03X-3072703Y8567735I35814J0D01*
G01X-3061872Y8567735D01*
G02X-3053517Y8543550I-30831J-24186D01*
G01X-3053517Y8523669D01*
G01X-3225828Y8351358D01*
G01X-4324724Y8351358D01*
G03X-4364190Y8335011I0J-55814D01*
G01X-4589433Y8109768D01*
G03X-4621165Y7999104I14806J-64127D01*
G03X-4510500Y8030835I46537J46537D01*
G01X-4301605Y8239730D01*
G01X-3827063Y8239730D01*
G01X-3982525Y8084268D01*
G03X-4014257Y7973603I14806J-64127D01*
G03X-3903592Y8005335I46537J46537D01*
G01X-3745698Y8163229D01*
G01X-3250755Y8163229D01*
G01X-3365417Y8048567D01*
G03X-3397149Y7937903I14806J-64127D01*
G03X-3286484Y7969634I46537J46537D01*
G01X-3179590Y8076528D01*
G01X-1439782Y8076528D01*
G01X-4493026Y5745428D02*
G03X-4493026Y5503801I0J-120814D01*
G03X-4493026Y5745428I0J120814D01*
G01X-4493026Y5999428D02*
G03X-4493026Y5757801I0J-120814D01*
G03X-4493026Y5999428I0J120814D01*
G01X-3860504Y5466363D02*
G01X-3860667Y5465745D01*
G03X-3875087Y5430933I51050J-41538D01*
G01X-3875408Y5430381D01*
G01X-3875852Y5429834D01*
G01X-3896966Y5408720D01*
G01X-4332868Y5408720D01*
G01X-4333569Y5408793D01*
G01X-4334187Y5408956D01*
G03X-4441538Y5357906I-41538J-51050D01*
G03X-4334187Y5306856I65814J-0D01*
G01X-4333569Y5307019D01*
G01X-4332868Y5307092D01*
G01X-3875918Y5307092D01*
G03X-3839987Y5321975I0J50814D01*
G01X-3803990Y5357972D01*
G01X-3803443Y5358416D01*
G01X-3802891Y5358738D01*
G03X-3758567Y5465745I-6726J65469D01*
G01X-3758730Y5466363D01*
G01X-3758803Y5467063D01*
G01X-3758803Y5717955D01*
G01X-3758730Y5718656D01*
G01X-3758567Y5719274D01*
G03X-3809617Y5826625I-51050J41538D01*
G03X-3860667Y5719274I-0J-65814D01*
G01X-3860504Y5718656D01*
G01X-3860431Y5717955D01*
G01X-3860431Y5467063D01*
G01X-3860504Y5466363D01*
G01X-4096308Y1690260D02*
G03X-4132122Y1726074I-35814J0D01*
G01X-4252122Y1726074D01*
G03X-4287936Y1690260I0J-35814D01*
G01X-4287936Y1570260D01*
G03X-4252122Y1534446I35814J0D01*
G01X-4132122Y1534446D01*
G03X-4096308Y1570260I0J35814D01*
G01X-4096308Y1690260D01*
G01X-3513700Y4655452D02*
G01X-3513863Y4654834D01*
G03X-3462813Y4547483I51050J-41538D01*
G03X-3411763Y4654834I0J65814D01*
G01X-3411926Y4655452D01*
G01X-3411999Y4656153D01*
G01X-3411999Y4924401D01*
G03X-3426882Y4960332I-50814J0D01*
G01X-3442479Y4975928D01*
G01X-3442922Y4976475D01*
G01X-3443244Y4977027D01*
G03X-3555251Y5016839I-65469J-6726D01*
G03X-3515440Y4904832I46537J-46538D01*
G01X-3514887Y4904510D01*
G01X-3514340Y4904066D01*
G01X-3513627Y4903353D01*
G01X-3513627Y4656153D01*
G01X-3513700Y4655452D01*
G01X-3257476Y6126682D02*
G03X-3273824Y6087216I39466J-39466D01*
G01X-3273824Y5379382D01*
G03X-3273824Y5309632I55814J-34875D01*
G01X-3273824Y3465782D01*
G03X-3257476Y3426315I55814J0D01*
G01X-2772970Y2941809D01*
G03X-2770180Y2939204I39466J39466D01*
G03X-2775018Y2921227I30976J-17977D01*
G01X-2775018Y2771227D01*
G03X-2739204Y2735413I35814J0D01*
G01X-2589205Y2735413D01*
G03X-2553391Y2771227I0J35814D01*
G01X-2553391Y2921227D01*
G03X-2553642Y2925462I-35814J0D01*
G01X-2487675Y2925462D01*
G03X-2410204Y2735413I77470J-79234D01*
G03X-2332734Y2925462I0J110814D01*
G01X-2233675Y2925462D01*
G03X-2156204Y2735413I77470J-79234D01*
G03X-2078734Y2925462I0J110814D01*
G01X-1979675Y2925462D01*
G03X-1902204Y2735413I77470J-79234D01*
G03X-1824734Y2925462I0J110814D01*
G01X-1725675Y2925462D01*
G03X-1648204Y2735413I77470J-79234D01*
G03X-1570734Y2925462I0J110814D01*
G01X-1471675Y2925462D01*
G03X-1394204Y2735413I77470J-79234D01*
G03X-1316734Y2925462I0J110814D01*
G01X-1217675Y2925462D01*
G03X-1140204Y2735413I77470J-79234D01*
G03X-1062734Y2925462I0J110814D01*
G01X-1044372Y2925462D01*
G01X-998692Y2879781D01*
G01X-997098Y2878045D01*
G01X-996490Y2877215D01*
G01X-996208Y2874522D01*
G01X-996246Y2869731D01*
G01X-996639Y2862404D01*
G01X-996660Y2861969D01*
G01X-997025Y2853161D01*
G01X-997051Y2851107D01*
G01X-997003Y2848080D01*
G03X-807847Y2767870I110798J-1853D01*
G03X-888057Y2957026I-78357J78357D01*
G01X-891084Y2957074D01*
G01X-893138Y2957048D01*
G01X-901946Y2956683D01*
G01X-902381Y2956662D01*
G01X-909708Y2956269D01*
G01X-914499Y2956230D01*
G01X-917331Y2956597D01*
G01X-918022Y2957120D01*
G01X-919759Y2958714D01*
G01X-981786Y3020742D01*
G03X-1021253Y3037089I-39466J-39466D01*
G01X-2710384Y3037089D01*
G01X-3162196Y3488901D01*
G01X-3162196Y4597519D01*
G02X-3078010Y4624082I84186J-120123D01*
G01X-2763125Y4624082D01*
G03X-2775018Y4597427I23920J-26655D01*
G01X-2775018Y4447427D01*
G03X-2739204Y4411613I35814J0D01*
G01X-2589205Y4411613D01*
G03X-2553391Y4447427I0J35814D01*
G01X-2553391Y4597427D01*
G03X-2565284Y4624082I-35814J0D01*
G01X-2454319Y4624082D01*
G03X-2410204Y4411613I44115J-101654D01*
G03X-2366090Y4624082I0J110814D01*
G01X-2200319Y4624082D01*
G03X-2156204Y4411613I44115J-101654D01*
G03X-2112090Y4624082I0J110814D01*
G01X-1946319Y4624082D01*
G03X-1902204Y4411613I44115J-101654D01*
G03X-1858090Y4624082I0J110814D01*
G01X-1692319Y4624082D01*
G03X-1648204Y4411613I44115J-101654D01*
G03X-1604090Y4624082I0J110814D01*
G01X-1438319Y4624082D01*
G03X-1394204Y4411613I44115J-101654D01*
G03X-1350090Y4624082I0J110814D01*
G01X-1184319Y4624082D01*
G03X-1140204Y4411613I44115J-101654D01*
G03X-1096090Y4624082I0J110814D01*
G01X-1059721Y4624082D01*
G01X-995164Y4559525D01*
G01X-993476Y4557684D01*
G01X-993482Y4557178D01*
G01X-994163Y4552007D01*
G01X-995420Y4543997D01*
G01X-995654Y4542220D01*
G01X-996655Y4532771D01*
G03X-996855Y4529154I35614J-3775D01*
G01X-996858Y4528387D01*
G03X-807847Y4444070I110653J-5960D01*
G03X-892165Y4633081I-78357J78357D01*
G01X-892931Y4633077D01*
G03X-896549Y4632878I157J-35814D01*
G01X-905997Y4631877D01*
G01X-907774Y4631643D01*
G01X-915785Y4630386D01*
G01X-920955Y4629705D01*
G01X-921461Y4629699D01*
G01X-923303Y4631387D01*
G01X-1002742Y4710827D01*
G03X-1038673Y4725710I-35931J-35931D01*
G01X-3078100Y4725710D01*
G02X-3162196Y4752273I90J146686D01*
G01X-3162196Y5309632D01*
G03X-3162196Y5379382I-55814J34875D01*
G01X-3162196Y6064097D01*
G01X-2953300Y6272992D01*
G03X-2912292Y6371994I-14806J64127D01*
G01X-2912292Y6793406D01*
G01X-2876799Y6828899D01*
G03X-2845068Y6939564I-14806J64127D01*
G03X-2955732Y6907832I-46537J-46537D01*
G01X-3007573Y6855992D01*
G03X-3023920Y6816525I39466J-39466D01*
G01X-3023920Y6371994D01*
G03X-3032233Y6351925I55814J-34875D01*
G01X-3257476Y6126682D01*
G01X-3014007Y4475108D02*
G03X-3069821Y4374419I0J-65814D01*
G01X-3069821Y4158565D01*
G03X-3014007Y4057876I55814J-34875D01*
G03X-2958193Y4158565I0J65814D01*
G01X-2958193Y4374419D01*
G03X-3014007Y4475108I-55814J34875D01*
G01X-2915755Y3611141D02*
G03X-2807078Y3644778I44550J48443D01*
G01X-2796038Y3655818D01*
G03X-2779691Y3695285I-39466J39466D01*
G01X-2779691Y3849112D01*
G03X-2835505Y3949801I-55814J34875D01*
G03X-2891319Y3849112I0J-65814D01*
G01X-2891319Y3722249D01*
G03X-2915755Y3611141I20113J-62665D01*
G01X-2589205Y7779514D02*
G03X-2553391Y7815328I0J35814D01*
G01X-2553391Y7965327D01*
G03X-2589205Y8001141I-35814J0D01*
G01X-2739204Y8001141D01*
G03X-2775018Y7965327I0J-35814D01*
G01X-2775018Y7815328D01*
G03X-2739204Y7779514I35814J0D01*
G01X-2589205Y7779514D01*
G01X-2589205Y6087814D02*
G03X-2553391Y6123628I0J35814D01*
G01X-2553391Y6273627D01*
G03X-2589205Y6309441I-35814J0D01*
G01X-2739204Y6309441D01*
G03X-2775018Y6273627I0J-35814D01*
G01X-2775018Y6123628D01*
G03X-2739204Y6087814I35814J0D01*
G01X-2589205Y6087814D01*
G01X-2600517Y8728550D02*
G01X-2600517Y8678549D01*
G03X-2378889Y8678549I110814J0D01*
G01X-2378889Y8728550D01*
G03X-2415004Y8810402I-110814J0D01*
G01X-2418725Y8814129D01*
G01X-2422074Y8818207D01*
G01X-2425453Y8823120D01*
G01X-2428514Y8828452D01*
G01X-2430995Y8833768D01*
G01X-2432706Y8838574D01*
G01X-2433569Y8842278D01*
G01X-2433889Y8845994D01*
G01X-2433889Y9270014D01*
G01X-2433569Y9273730D01*
G01X-2432706Y9277434D01*
G01X-2430995Y9282240D01*
G01X-2428514Y9287556D01*
G01X-2425453Y9292888D01*
G01X-2422074Y9297801D01*
G01X-2418725Y9301879D01*
G01X-2415004Y9305607D01*
G03X-2378889Y9387459I-74699J81852D01*
G01X-2378889Y9437459D01*
G03X-2600517Y9437459I-110814J0D01*
G01X-2600517Y9387459D01*
G03X-2564403Y9305607I110814J0D01*
G01X-2560682Y9301879D01*
G01X-2557333Y9297801D01*
G01X-2553954Y9292888D01*
G01X-2550893Y9287556D01*
G01X-2548412Y9282240D01*
G01X-2546701Y9277434D01*
G01X-2545838Y9273730D01*
G01X-2545517Y9270014D01*
G01X-2545517Y8845994D01*
G01X-2545838Y8842278D01*
G01X-2546701Y8838574D01*
G01X-2548412Y8833768D01*
G01X-2550893Y8828452D01*
G01X-2553954Y8823120D01*
G01X-2557333Y8818207D01*
G01X-2560682Y8814129D01*
G01X-2564403Y8810402D01*
G03X-2600517Y8728550I74699J-81852D01*
G01X-2521018Y7890327D02*
G03X-2299391Y7890327I110814J0D01*
G03X-2521018Y7890327I-110814J0D01*
G01X-2521018Y4918627D02*
G03X-2299391Y4918627I110814J0D01*
G03X-2521018Y4918627I-110814J0D01*
G01X-2521018Y1550727D02*
G03X-2299391Y1550727I110814J0D01*
G03X-2521018Y1550727I-110814J0D01*
G01X-2521018Y3242427D02*
G03X-2299391Y3242427I110814J0D01*
G03X-2521018Y3242427I-110814J0D01*
G01X-2521018Y6198627D02*
G03X-2299391Y6198627I110814J0D01*
G03X-2521018Y6198627I-110814J0D01*
G01X-2267018Y7890327D02*
G03X-2045391Y7890327I110814J0D01*
G03X-2267018Y7890327I-110814J0D01*
G01X-2252018Y5009319D02*
G01X-2252590Y4994529D01*
G01X-2254060Y4980683D01*
G01X-2256183Y4967520D01*
G01X-2256587Y4965565D01*
G03X-2156204Y4807814I100382J-46938D01*
G03X-2055822Y4965565I0J110814D01*
G01X-2056226Y4967520D01*
G01X-2058349Y4980683D01*
G01X-2059819Y4994529D01*
G01X-2060390Y5009319D01*
G01X-2060390Y5237609D01*
G01X-1468099Y5829901D01*
G01X-420162Y5829901D01*
G03X-364693Y5847590I0J95814D01*
G01X-362473Y5847590D01*
G03X-362473Y6069218I0J110814D01*
G01X-412473Y6069218D01*
G03X-485030Y6042161I0J-110814D01*
G01X-493781Y6039174D01*
G01X-506658Y6035193D01*
G01X-520178Y6031492D01*
G01X-534200Y6028202D01*
G01X-548582Y6025446D01*
G01X-563178Y6023346D01*
G01X-577841Y6022013D01*
G01X-593047Y6021529D01*
G01X-1507786Y6021529D01*
G03X-1575537Y5993465I0J-95814D01*
G01X-2223955Y5345047D01*
G03X-2252018Y5277297I67751J-67751D01*
G01X-2252018Y5009319D01*
G01X-2223955Y3560024D02*
G03X-2252018Y3492273I67751J-67751D01*
G01X-2252018Y3333119D01*
G01X-2252590Y3318329D01*
G01X-2254060Y3304483D01*
G01X-2256183Y3291320D01*
G01X-2256587Y3289365D01*
G03X-2156204Y3131613I100382J-46938D01*
G03X-2055822Y3289365I0J110814D01*
G01X-2056226Y3291320D01*
G01X-2058349Y3304483D01*
G01X-2059819Y3318329D01*
G01X-2060390Y3333119D01*
G01X-2060390Y3452586D01*
G01X-1352108Y4160868D01*
G01X-592818Y4160868D01*
G01X-560290Y4160242D01*
G01X-529103Y4158599D01*
G01X-499883Y4156267D01*
G01X-473748Y4153598D01*
G01X-439819Y4149295D01*
G03X-412473Y4145868I27346J107387D01*
G01X-362473Y4145868D01*
G03X-362473Y4367496I0J110814D01*
G01X-412473Y4367496D01*
G03X-439819Y4364069I0J-110814D01*
G01X-473748Y4359766D01*
G01X-499883Y4357097D01*
G01X-529103Y4354765D01*
G01X-560290Y4353123D01*
G01X-592818Y4352496D01*
G01X-1391796Y4352496D01*
G03X-1459547Y4324433I0J-95814D01*
G01X-2223955Y3560024D01*
G01X-2252018Y1641419D02*
G01X-2252590Y1626629D01*
G01X-2254060Y1612783D01*
G01X-2256183Y1599620D01*
G01X-2256587Y1597665D01*
G03X-2156204Y1439913I100382J-46938D01*
G03X-2055822Y1597665I0J110814D01*
G01X-2056226Y1599620D01*
G01X-2058349Y1612783D01*
G01X-2059819Y1626629D01*
G01X-2060390Y1641419D01*
G01X-2060390Y1708363D01*
G01X-1309608Y2459146D01*
G01X-592818Y2459146D01*
G01X-560290Y2458520D01*
G01X-529103Y2456877D01*
G01X-499883Y2454545D01*
G01X-473748Y2451876D01*
G01X-439819Y2447573D01*
G03X-412473Y2444146I27346J107387D01*
G01X-362473Y2444146D01*
G03X-362473Y2665774I0J110814D01*
G01X-412473Y2665774D01*
G03X-439819Y2662347I0J-110814D01*
G01X-473748Y2658044D01*
G01X-499883Y2655375D01*
G01X-529103Y2653043D01*
G01X-560290Y2651400D01*
G01X-592818Y2650774D01*
G01X-1349295Y2650774D01*
G03X-1417046Y2622711I0J-95814D01*
G01X-2223955Y1815802D01*
G03X-2252018Y1748051I67751J-67751D01*
G01X-2252018Y1641419D01*
G01X-2252018Y6701019D02*
G01X-2252590Y6686229D01*
G01X-2254060Y6672383D01*
G01X-2256183Y6659220D01*
G01X-2256587Y6657265D01*
G03X-2156204Y6499514I100382J-46938D01*
G03X-2055822Y6657265I0J110814D01*
G01X-2056226Y6659220D01*
G01X-2058349Y6672383D01*
G01X-2059819Y6686229D01*
G01X-2060390Y6701019D01*
G01X-2060390Y6997132D01*
G01X-1493210Y7564312D01*
G01X-455116Y7564312D01*
G01X-422588Y7563686D01*
G01X-391402Y7562043D01*
G01X-362182Y7559711D01*
G01X-336046Y7557042D01*
G01X-302118Y7552739D01*
G03X-274771Y7549312I27346J107387D01*
G01X-224771Y7549312D01*
G03X-224771Y7770940I0J110814D01*
G01X-274771Y7770940D01*
G03X-302118Y7767513I0J-110814D01*
G01X-336046Y7763210D01*
G01X-362182Y7760541D01*
G01X-391402Y7758209D01*
G01X-422588Y7756567D01*
G01X-455116Y7755940D01*
G01X-1532898Y7755940D01*
G03X-1600648Y7727877I0J-95814D01*
G01X-2223955Y7104570D01*
G03X-2252018Y7036819I67751J-67751D01*
G01X-2252018Y6701019D01*
G01X-2267018Y6198627D02*
G03X-2045391Y6198627I110814J0D01*
G03X-2267018Y6198627I-110814J0D01*
G01X-2013018Y7890327D02*
G03X-1791391Y7890327I110814J0D01*
G03X-2013018Y7890327I-110814J0D01*
G01X-1969955Y5298143D02*
G03X-1998018Y5230393I67751J-67751D01*
G01X-1998018Y5009319D01*
G01X-1998590Y4994529D01*
G01X-2000060Y4980683D01*
G01X-2002183Y4967520D01*
G01X-2002587Y4965565D01*
G03X-1902204Y4807814I100382J-46938D01*
G03X-1801822Y4965565I0J110814D01*
G01X-1802226Y4967520D01*
G01X-1804349Y4980683D01*
G01X-1805819Y4994529D01*
G01X-1806390Y5009319D01*
G01X-1806390Y5190705D01*
G01X-1388506Y5608590D01*
G01X-592818Y5608590D01*
G01X-560290Y5607964D01*
G01X-529103Y5606321D01*
G01X-499883Y5603989D01*
G01X-473748Y5601320D01*
G01X-439819Y5597017D01*
G03X-412473Y5593590I27346J107387D01*
G01X-362473Y5593590D01*
G03X-362473Y5815218I0J110814D01*
G01X-412473Y5815218D01*
G03X-439819Y5811791I0J-110814D01*
G01X-473748Y5807488D01*
G01X-499883Y5804819D01*
G01X-529103Y5802487D01*
G01X-560290Y5800845D01*
G01X-592818Y5800218D01*
G01X-1428193Y5800218D01*
G03X-1495944Y5772155I0J-95814D01*
G01X-1969955Y5298143D01*
G01X-1969955Y3502920D02*
G03X-1998018Y3435169I67751J-67751D01*
G01X-1998018Y3333119D01*
G01X-1998590Y3318329D01*
G01X-2000060Y3304483D01*
G01X-2002183Y3291320D01*
G01X-2002587Y3289365D01*
G03X-1902204Y3131613I100382J-46938D01*
G03X-1801822Y3289365I0J110814D01*
G01X-1802226Y3291320D01*
G01X-1804349Y3304483D01*
G01X-1805819Y3318329D01*
G01X-1806390Y3333119D01*
G01X-1806390Y3395482D01*
G01X-1295004Y3906868D01*
G01X-592818Y3906868D01*
G01X-560290Y3906242D01*
G01X-529103Y3904599D01*
G01X-499883Y3902267D01*
G01X-473748Y3899598D01*
G01X-439819Y3895295D01*
G03X-412473Y3891868I27346J107387D01*
G01X-362473Y3891868D01*
G03X-362473Y4113496I0J110814D01*
G01X-412473Y4113496D01*
G03X-439819Y4110069I0J-110814D01*
G01X-473748Y4105766D01*
G01X-499883Y4103097D01*
G01X-529103Y4100765D01*
G01X-560290Y4099123D01*
G01X-592818Y4098496D01*
G01X-1334692Y4098496D01*
G03X-1402443Y4070433I0J-95814D01*
G01X-1969955Y3502920D01*
G01X-1998018Y1641419D02*
G01X-1998590Y1626629D01*
G01X-2000060Y1612783D01*
G01X-2002183Y1599620D01*
G01X-2002587Y1597665D01*
G03X-1902204Y1439913I100382J-46938D01*
G03X-1801822Y1597665I0J110814D01*
G01X-1802226Y1599620D01*
G01X-1804349Y1612783D01*
G01X-1805819Y1626629D01*
G01X-1806390Y1641419D01*
G01X-1806390Y1686960D01*
G01X-1722480Y1770870D01*
G03X-1744018Y1710344I74276J-60526D01*
G01X-1744018Y1641419D01*
G01X-1744590Y1626629D01*
G01X-1746060Y1612783D01*
G01X-1748183Y1599620D01*
G01X-1748587Y1597665D01*
G03X-1648204Y1439913I100382J-46938D01*
G03X-1547822Y1597665I0J110814D01*
G01X-1548226Y1599620D01*
G01X-1550349Y1612783D01*
G01X-1551819Y1626629D01*
G01X-1552390Y1641419D01*
G01X-1552390Y1670656D01*
G01X-1271901Y1951146D01*
G01X-592818Y1951146D01*
G01X-560290Y1950520D01*
G01X-529103Y1948877D01*
G01X-499883Y1946545D01*
G01X-473748Y1943876D01*
G01X-439819Y1939573D01*
G03X-412473Y1936146I27346J107387D01*
G01X-362473Y1936146D01*
G03X-362473Y2157774I0J110814D01*
G01X-412473Y2157774D01*
G03X-439819Y2154347I0J-110814D01*
G01X-473748Y2150044D01*
G01X-499883Y2147375D01*
G01X-529103Y2145043D01*
G01X-560290Y2143400D01*
G01X-592818Y2142774D01*
G01X-1311588Y2142774D01*
G03X-1372114Y2121236I0J-95814D01*
G01X-1288204Y2205146D01*
G01X-592818Y2205146D01*
G01X-560290Y2204520D01*
G01X-529103Y2202877D01*
G01X-499883Y2200545D01*
G01X-473748Y2197876D01*
G01X-439819Y2193573D01*
G03X-412473Y2190146I27346J107387D01*
G01X-362473Y2190146D01*
G03X-362473Y2411774I0J110814D01*
G01X-412473Y2411774D01*
G03X-439819Y2408347I0J-110814D01*
G01X-473748Y2404044D01*
G01X-499883Y2401375D01*
G01X-529103Y2399043D01*
G01X-560290Y2397400D01*
G01X-592818Y2396774D01*
G01X-1327892Y2396774D01*
G03X-1395642Y2368711I0J-95814D01*
G01X-1969955Y1794398D01*
G03X-1998018Y1726647I67751J-67751D01*
G01X-1998018Y1641419D01*
G01X-1998018Y6701019D02*
G01X-1998590Y6686229D01*
G01X-2000060Y6672383D01*
G01X-2002183Y6659220D01*
G01X-2002587Y6657265D01*
G03X-1902204Y6499514I100382J-46938D01*
G03X-1801822Y6657265I0J110814D01*
G01X-1802226Y6659220D01*
G01X-1804349Y6672383D01*
G01X-1805819Y6686229D01*
G01X-1806390Y6701019D01*
G01X-1806390Y6909427D01*
G01X-1405506Y7310312D01*
G01X-455116Y7310312D01*
G01X-422588Y7309686D01*
G01X-391402Y7308043D01*
G01X-362182Y7305711D01*
G01X-336046Y7303042D01*
G01X-302118Y7298739D01*
G03X-274771Y7295312I27346J107387D01*
G01X-224771Y7295312D01*
G03X-224771Y7516940I0J110814D01*
G01X-274771Y7516940D01*
G03X-302118Y7513513I0J-110814D01*
G01X-336046Y7509210D01*
G01X-362182Y7506541D01*
G01X-391402Y7504209D01*
G01X-422588Y7502567D01*
G01X-455116Y7501940D01*
G01X-1445193Y7501940D01*
G03X-1512944Y7473877I0J-95814D01*
G01X-1969955Y7016866D01*
G03X-1998018Y6949115I67751J-67751D01*
G01X-1998018Y6701019D01*
G01X-2013018Y6198627D02*
G03X-1791391Y6198627I110814J0D01*
G03X-2013018Y6198627I-110814J0D01*
G01X-1715955Y5200239D02*
G03X-1744018Y5132488I67751J-67751D01*
G01X-1744018Y5009319D01*
G01X-1744590Y4994529D01*
G01X-1746060Y4980683D01*
G01X-1748183Y4967520D01*
G01X-1748587Y4965565D01*
G03X-1648204Y4807814I100382J-46938D01*
G03X-1547822Y4965565I0J110814D01*
G01X-1548226Y4967520D01*
G01X-1550349Y4980683D01*
G01X-1551819Y4994529D01*
G01X-1552390Y5009319D01*
G01X-1552390Y5092801D01*
G01X-1290601Y5354590D01*
G01X-592818Y5354590D01*
G01X-560290Y5353964D01*
G01X-529103Y5352321D01*
G01X-499883Y5349989D01*
G01X-473748Y5347320D01*
G01X-439819Y5343017D01*
G03X-412473Y5339590I27346J107387D01*
G01X-362473Y5339590D01*
G03X-362473Y5561218I0J110814D01*
G01X-412473Y5561218D01*
G03X-439819Y5557791I0J-110814D01*
G01X-473748Y5553488D01*
G01X-499883Y5550819D01*
G01X-529103Y5548487D01*
G01X-560290Y5546845D01*
G01X-592818Y5546218D01*
G01X-1330288Y5546218D01*
G03X-1398039Y5518155I0J-95814D01*
G01X-1715955Y5200239D01*
G01X-1715955Y3466216D02*
G03X-1744018Y3398466I67751J-67751D01*
G01X-1744018Y3333119D01*
G01X-1744590Y3318329D01*
G01X-1746060Y3304483D01*
G01X-1748183Y3291320D01*
G01X-1748587Y3289365D01*
G03X-1648204Y3131613I100382J-46938D01*
G03X-1547822Y3289365I0J110814D01*
G01X-1548226Y3291320D01*
G01X-1550349Y3304483D01*
G01X-1551819Y3318329D01*
G01X-1552390Y3333119D01*
G01X-1552390Y3358778D01*
G01X-1258301Y3652868D01*
G01X-592818Y3652868D01*
G01X-560290Y3652242D01*
G01X-529103Y3650599D01*
G01X-499883Y3648267D01*
G01X-473748Y3645598D01*
G01X-439819Y3641295D01*
G03X-412473Y3637868I27346J107387D01*
G01X-362473Y3637868D01*
G03X-362473Y3859496I0J110814D01*
G01X-412473Y3859496D01*
G03X-439819Y3856069I0J-110814D01*
G01X-473748Y3851766D01*
G01X-499883Y3849097D01*
G01X-529103Y3846765D01*
G01X-560290Y3845123D01*
G01X-592818Y3844496D01*
G01X-1297988Y3844496D01*
G03X-1365739Y3816433I0J-95814D01*
G01X-1715955Y3466216D01*
G01X-1715955Y6924061D02*
G03X-1744018Y6856310I67751J-67751D01*
G01X-1744018Y6701019D01*
G01X-1744590Y6686229D01*
G01X-1746060Y6672383D01*
G01X-1748183Y6659220D01*
G01X-1748587Y6657265D01*
G03X-1648204Y6499514I100382J-46938D01*
G03X-1547822Y6657265I0J110814D01*
G01X-1548226Y6659220D01*
G01X-1550349Y6672383D01*
G01X-1551819Y6686229D01*
G01X-1552390Y6701019D01*
G01X-1552390Y6816623D01*
G01X-1312701Y7056312D01*
G01X-455116Y7056312D01*
G01X-422588Y7055686D01*
G01X-391402Y7054043D01*
G01X-362182Y7051711D01*
G01X-336046Y7049042D01*
G01X-302118Y7044739D01*
G03X-274771Y7041312I27346J107387D01*
G01X-224771Y7041312D01*
G03X-224771Y7262940I0J110814D01*
G01X-274771Y7262940D01*
G03X-302118Y7259513I0J-110814D01*
G01X-336046Y7255210D01*
G01X-362182Y7252541D01*
G01X-391402Y7250209D01*
G01X-422588Y7248567D01*
G01X-455116Y7247940D01*
G01X-1352389Y7247940D01*
G03X-1420139Y7219877I0J-95814D01*
G01X-1715955Y6924061D01*
G01X-1403465Y9557570D02*
G01X-1406694Y9555561D01*
G01X-1411302Y9553373D01*
G01X-1416815Y9551368D01*
G01X-1422750Y9549762D01*
G01X-1428613Y9548677D01*
G01X-1433865Y9548161D01*
G01X-1439132Y9548157D01*
G03X-1555004Y9437459I-5058J-110698D01*
G01X-1555004Y9387459D01*
G03X-1518889Y9305607I110814J0D01*
G01X-1515168Y9301879D01*
G01X-1511819Y9297801D01*
G01X-1508440Y9292888D01*
G01X-1505379Y9287556D01*
G01X-1502898Y9282240D01*
G01X-1501188Y9277434D01*
G01X-1500325Y9273730D01*
G01X-1500004Y9270014D01*
G01X-1500004Y8845994D01*
G01X-1500325Y8842278D01*
G01X-1501188Y8838574D01*
G01X-1502898Y8833768D01*
G01X-1505379Y8828452D01*
G01X-1508440Y8823120D01*
G01X-1511819Y8818207D01*
G01X-1515168Y8814129D01*
G01X-1518889Y8810402D01*
G03X-1555004Y8728550I74699J-81852D01*
G01X-1555004Y8678549D01*
G03X-1333376Y8678549I110814J0D01*
G01X-1333376Y8728550D01*
G03X-1369491Y8810402I-110814J0D01*
G01X-1373212Y8814129D01*
G01X-1376561Y8818207D01*
G01X-1379940Y8823120D01*
G01X-1383001Y8828452D01*
G01X-1385481Y8833768D01*
G01X-1387192Y8838574D01*
G01X-1388055Y8842278D01*
G01X-1388376Y8845994D01*
G01X-1388376Y9270014D01*
G01X-1388055Y9273730D01*
G01X-1387192Y9277434D01*
G01X-1385481Y9282240D01*
G01X-1383001Y9287556D01*
G01X-1379940Y9292888D01*
G01X-1376561Y9297801D01*
G01X-1373212Y9301879D01*
G01X-1369491Y9305607D01*
G03X-1333376Y9387459I-74699J81852D01*
G01X-1333376Y9437459D01*
G03X-1333491Y9442516I-110814J0D01*
G01X-1333487Y9447783D01*
G01X-1332971Y9453035D01*
G01X-1331887Y9458898D01*
G01X-1330281Y9464833D01*
G01X-1328276Y9470346D01*
G01X-1326087Y9474954D01*
G01X-1324079Y9478183D01*
G01X-1321677Y9481039D01*
G01X-1211468Y9591248D01*
G01X-618296Y9591248D01*
G01X-508087Y9481039D01*
G01X-505686Y9478183D01*
G01X-503677Y9474954D01*
G01X-501488Y9470346D01*
G01X-499483Y9464833D01*
G01X-497877Y9458898D01*
G01X-496793Y9453035D01*
G01X-496277Y9447783D01*
G01X-496273Y9442516D01*
G03X-496388Y9437459I110699J-5058D01*
G01X-496388Y9387459D01*
G03X-460274Y9305607I110814J0D01*
G01X-456552Y9301879D01*
G01X-453203Y9297801D01*
G01X-449825Y9292888D01*
G01X-446763Y9287556D01*
G01X-444283Y9282240D01*
G01X-442572Y9277434D01*
G01X-441709Y9273730D01*
G01X-441388Y9270014D01*
G01X-441388Y8845994D01*
G01X-441709Y8842278D01*
G01X-442572Y8838574D01*
G01X-444283Y8833768D01*
G01X-446763Y8828452D01*
G01X-449825Y8823120D01*
G01X-453203Y8818207D01*
G01X-456552Y8814129D01*
G01X-460274Y8810402D01*
G03X-496388Y8728550I74699J-81852D01*
G01X-496388Y8678549D01*
G03X-274760Y8678549I110814J0D01*
G01X-274760Y8728550D01*
G03X-310875Y8810402I-110814J0D01*
G01X-314596Y8814129D01*
G01X-317945Y8818207D01*
G01X-321324Y8823120D01*
G01X-324385Y8828452D01*
G01X-326866Y8833768D01*
G01X-328577Y8838574D01*
G01X-329440Y8842278D01*
G01X-329760Y8845994D01*
G01X-329760Y9270014D01*
G01X-329440Y9273730D01*
G01X-328577Y9277434D01*
G01X-326866Y9282240D01*
G01X-324385Y9287556D01*
G01X-321324Y9292888D01*
G01X-317945Y9297801D01*
G01X-314596Y9301879D01*
G01X-310875Y9305607D01*
G03X-274760Y9387459I-74699J81852D01*
G01X-274760Y9437459D01*
G03X-390632Y9548157I-110814J0D01*
G01X-395899Y9548161D01*
G01X-401151Y9548677D01*
G01X-407014Y9549762D01*
G01X-412949Y9551368D01*
G01X-418462Y9553373D01*
G01X-423070Y9555561D01*
G01X-426299Y9557570D01*
G01X-429153Y9559970D01*
G01X-555711Y9686528D01*
G03X-595177Y9702876I-39466J-39466D01*
G01X-1234587Y9702876D01*
G03X-1274053Y9686528I0J-55814D01*
G01X-1400611Y9559970D01*
G01X-1403465Y9557570D01*
G01X-1505018Y7890327D02*
G03X-1283391Y7890327I110814J0D01*
G03X-1505018Y7890327I-110814J0D01*
G01X-1461955Y5112534D02*
G03X-1490018Y5044784I67751J-67751D01*
G01X-1490018Y5009319D01*
G01X-1490590Y4994529D01*
G01X-1492060Y4980683D01*
G01X-1494183Y4967520D01*
G01X-1494587Y4965565D01*
G03X-1394204Y4807814I100382J-46938D01*
G03X-1293822Y4965565I0J110814D01*
G01X-1294226Y4967520D01*
G01X-1296349Y4980683D01*
G01X-1297819Y4994529D01*
G01X-1298233Y5005253D01*
G01X-1202897Y5100590D01*
G01X-667473Y5100590D01*
G02X-493401Y5086084I0J-1051688D01*
G03X-487473Y5085590I5928J35320D01*
G01X-287473Y5085590D01*
G03X-251659Y5121404I0J35814D01*
G01X-251659Y5271404D01*
G03X-287473Y5307218I-35814J0D01*
G01X-487473Y5307218D01*
G03X-493401Y5306724I0J-35814D01*
G02X-667473Y5292218I-174072J1037182D01*
G01X-1242584Y5292218D01*
G03X-1310335Y5264155I0J-95814D01*
G01X-1461955Y5112534D01*
G01X-667473Y1888774D02*
G01X-1274884Y1888774D01*
G03X-1342635Y1860711I0J-95814D01*
G01X-1461955Y1741391D01*
G03X-1490018Y1673640I67751J-67751D01*
G01X-1490018Y1641419D01*
G01X-1490590Y1626629D01*
G01X-1492060Y1612783D01*
G01X-1494183Y1599620D01*
G01X-1494587Y1597665D01*
G03X-1394204Y1439913I100382J-46938D01*
G03X-1293822Y1597665I0J110814D01*
G01X-1294226Y1599620D01*
G01X-1296349Y1612783D01*
G01X-1297819Y1626629D01*
G01X-1298113Y1634230D01*
G01X-1235197Y1697146D01*
G01X-667473Y1697146D01*
G02X-493401Y1682640I0J-1051688D01*
G03X-487473Y1682146I5928J35320D01*
G01X-287473Y1682146D01*
G03X-251659Y1717960I0J35814D01*
G01X-251659Y1867960D01*
G03X-287473Y1903774I-35814J0D01*
G01X-487473Y1903774D01*
G03X-493401Y1903280I0J-35814D01*
G02X-667473Y1888774I-174072J1037182D01*
G01X-1461955Y3419312D02*
G03X-1490018Y3351562I67751J-67751D01*
G01X-1490018Y3298099D01*
G03X-1394204Y3131613I95814J-55672D01*
G03X-1298390Y3298099I0J110814D01*
G01X-1298390Y3311874D01*
G01X-1211397Y3398868D01*
G01X-667473Y3398868D01*
G02X-493401Y3384362I0J-1051688D01*
G03X-487473Y3383868I5928J35320D01*
G01X-287473Y3383868D01*
G03X-251659Y3419682I0J35814D01*
G01X-251659Y3569682D01*
G03X-287473Y3605496I-35814J0D01*
G01X-487473Y3605496D01*
G03X-493401Y3605002I0J-35814D01*
G02X-667473Y3590496I-174072J1037182D01*
G01X-1251084Y3590496D01*
G03X-1318835Y3562433I0J-95814D01*
G01X-1461955Y3419312D01*
G01X-529771Y6802312D02*
G02X-355699Y6787806I0J-1051688D01*
G03X-349771Y6787312I5928J35320D01*
G01X-149771Y6787312D01*
G03X-113957Y6823126I0J35814D01*
G01X-113957Y6973126D01*
G03X-149771Y7008940I-35814J0D01*
G01X-349771Y7008940D01*
G03X-355699Y7008446I0J-35814D01*
G02X-529771Y6993940I-174072J1037182D01*
G01X-1228984Y6993940D01*
G03X-1296735Y6965877I0J-95814D01*
G01X-1461955Y6800656D01*
G03X-1490018Y6732906I67751J-67751D01*
G01X-1490018Y6701019D01*
G01X-1490590Y6686229D01*
G01X-1492060Y6672383D01*
G01X-1494183Y6659220D01*
G01X-1494587Y6657265D01*
G03X-1394204Y6499514I100382J-46938D01*
G03X-1293822Y6657265I0J110814D01*
G01X-1294226Y6659220D01*
G01X-1296349Y6672383D01*
G01X-1297819Y6686229D01*
G01X-1298100Y6693508D01*
G01X-1189296Y6802312D01*
G01X-529771Y6802312D01*
G01X-1505018Y6198627D02*
G03X-1283391Y6198627I110814J0D01*
G03X-1505018Y6198627I-110814J0D01*
G01X-1251018Y7890327D02*
G03X-1029391Y7890327I110814J0D01*
G03X-1251018Y7890327I-110814J0D01*
G01X-1251018Y6198627D02*
G03X-1029391Y6198627I110814J0D01*
G03X-1251018Y6198627I-110814J0D01*
G01X-997018Y7890327D02*
G03X-775391Y7890327I110814J0D01*
G03X-997018Y7890327I-110814J0D01*
G01X-997018Y4918627D02*
G03X-775391Y4918627I110814J0D01*
G03X-997018Y4918627I-110814J0D01*
G01X-997018Y1550727D02*
G03X-775391Y1550727I110814J0D01*
G03X-997018Y1550727I-110814J0D01*
G01X-997018Y3242427D02*
G03X-775391Y3242427I110814J0D01*
G03X-997018Y3242427I-110814J0D01*
G01X-997018Y6610327D02*
G03X-775391Y6610327I110814J0D01*
G03X-997018Y6610327I-110814J0D01*
G01X-997018Y6198627D02*
G03X-775391Y6198627I110814J0D01*
G03X-997018Y6198627I-110814J0D01*
G04 Copper End*

G04 TearDrop Start*
G36*
G01X-2509703Y8844451D02*
G01X-2469703Y8844451D01*
G01X-2469030Y8836645D01*
G01X-2467125Y8828473D01*
G01X-2464166Y8820161D01*
G01X-2460328Y8811936D01*
G01X-2455787Y8804025D01*
G01X-2450719Y8796656D01*
G01X-2445299Y8790056D01*
G01X-2439704Y8784451D01*
G01X-2539703Y8784451D01*
G01X-2534108Y8790056D01*
G01X-2528688Y8796656D01*
G01X-2523619Y8804025D01*
G01X-2519078Y8811936D01*
G01X-2515240Y8820161D01*
G01X-2512282Y8828473D01*
G01X-2510377Y8836645D01*
G01X-2509703Y8844451D01*
G37*
G36*
G01X-2977703Y8543550D02*
G01X-3017703Y8543550D01*
G01X-3017703Y8543550D01*
G03X-3047703Y8603549I-75000J0D01*
G01X-3047703Y8603549D01*
G01X-2947704Y8603549D01*
G03X-2977703Y8543550I45000J-60000D01*
G37*
G36*
G01X-3017703Y8863549D02*
G01X-2977703Y8863549D01*
G03X-2947704Y8803550I75000J0D01*
G01X-3047703Y8803550D01*
G01X-3047703Y8803550D01*
G03X-3017703Y8863549I-45000J60000D01*
G37*
G36*
G01X-1464190Y8844451D02*
G01X-1424190Y8844451D01*
G01X-1423516Y8836645D01*
G01X-1421612Y8828473D01*
G01X-1418653Y8820161D01*
G01X-1414815Y8811936D01*
G01X-1410274Y8804025D01*
G01X-1405206Y8796656D01*
G01X-1399786Y8790056D01*
G01X-1394190Y8784451D01*
G01X-1494190Y8784451D01*
G01X-1488594Y8790056D01*
G01X-1483174Y8796656D01*
G01X-1478106Y8804025D01*
G01X-1473565Y8811936D01*
G01X-1469727Y8820161D01*
G01X-1466768Y8828473D01*
G01X-1464864Y8836645D01*
G01X-1464190Y8844451D01*
G37*
G36*
G01X-2015522Y8582336D02*
G01X-2048403Y8606024D01*
G03X-2027190Y8669663I-84853J63639D01*
G01X-1951882Y8603549D01*
G03X-2015522Y8582336I0J-106066D01*
G37*
G36*
G01X-1972190Y8863549D02*
G01X-1932190Y8863549D01*
G03X-1902190Y8803550I75000J0D01*
G01X-1902190Y8803550D01*
G01X-2002190Y8803550D01*
G01X-2002190Y8803550D01*
G03X-1972190Y8863549I-45000J60000D01*
G37*
G36*
G01X-1424190Y9271557D02*
G01X-1464190Y9271557D01*
G01X-1464864Y9279363D01*
G01X-1466768Y9287535D01*
G01X-1469727Y9295848D01*
G01X-1473565Y9304072D01*
G01X-1478106Y9311983D01*
G01X-1483174Y9319352D01*
G01X-1488594Y9325952D01*
G01X-1494190Y9331557D01*
G01X-1394190Y9331557D01*
G01X-1399786Y9325952D01*
G01X-1405206Y9319352D01*
G01X-1410274Y9311983D01*
G01X-1414815Y9304072D01*
G01X-1418653Y9295848D01*
G01X-1421612Y9287535D01*
G01X-1423516Y9279363D01*
G01X-1424190Y9271557D01*
G37*
G36*
G01X-1376377Y9533556D02*
G01X-1348093Y9505271D01*
G01X-1353136Y9499275D01*
G01X-1357568Y9492150D01*
G01X-1361354Y9484180D01*
G01X-1364456Y9475650D01*
G01X-1366838Y9466846D01*
G01X-1368465Y9458051D01*
G01X-1369300Y9449552D01*
G01X-1369306Y9441632D01*
G01X-1440017Y9512343D01*
G01X-1432097Y9512349D01*
G01X-1423597Y9513184D01*
G01X-1414803Y9514810D01*
G01X-1405998Y9517193D01*
G01X-1397468Y9520295D01*
G01X-1389498Y9524080D01*
G01X-1382373Y9528513D01*
G01X-1376377Y9533556D01*
G37*
G36*
G01X-1932190Y9252459D02*
G01X-1972190Y9252459D01*
G03X-2002190Y9312459I-75000J0D01*
G01X-1902190Y9312459D01*
G01X-1902190Y9312459D01*
G03X-1932190Y9252459I45000J-60000D01*
G37*
G36*
G01X-405574Y8844451D02*
G01X-365574Y8844451D01*
G01X-364900Y8836645D01*
G01X-362996Y8828473D01*
G01X-360037Y8820161D01*
G01X-356199Y8811936D01*
G01X-351658Y8804025D01*
G01X-346590Y8796656D01*
G01X-341170Y8790056D01*
G01X-335574Y8784451D01*
G01X-435574Y8784451D01*
G01X-429978Y8790056D01*
G01X-424559Y8796656D01*
G01X-419490Y8804025D01*
G01X-414949Y8811936D01*
G01X-411111Y8820161D01*
G01X-408152Y8828473D01*
G01X-406248Y8836645D01*
G01X-405574Y8844451D01*
G37*
G36*
G01X-961503Y8582336D02*
G01X-989787Y8610620D01*
G03X-968574Y8674260I-84853J63639D01*
G01X-897864Y8603549D01*
G03X-961503Y8582336I0J-106066D01*
G37*
G36*
G01X-913574Y8863549D02*
G01X-873574Y8863549D01*
G01X-873574Y8863549D01*
G03X-843574Y8803550I75000J0D01*
G01X-943574Y8803550D01*
G01X-943574Y8803550D01*
G03X-913574Y8863549I-45000J60000D01*
G37*
G36*
G01X-481671Y9505271D02*
G01X-453387Y9533556D01*
G01X-447391Y9528513D01*
G01X-440266Y9524080D01*
G01X-432296Y9520295D01*
G01X-423766Y9517193D01*
G01X-414962Y9514810D01*
G01X-406167Y9513184D01*
G01X-397667Y9512349D01*
G01X-389748Y9512343D01*
G01X-460458Y9441632D01*
G01X-460464Y9449552D01*
G01X-461299Y9458051D01*
G01X-462926Y9466846D01*
G01X-465308Y9475650D01*
G01X-468411Y9484180D01*
G01X-472196Y9492150D01*
G01X-476628Y9499275D01*
G01X-481671Y9505271D01*
G37*
G36*
G01X-365574Y9271557D02*
G01X-405574Y9271557D01*
G01X-406248Y9279363D01*
G01X-408152Y9287535D01*
G01X-411111Y9295848D01*
G01X-414949Y9304072D01*
G01X-419490Y9311983D01*
G01X-424559Y9319352D01*
G01X-429978Y9325952D01*
G01X-435574Y9331557D01*
G01X-335574Y9331557D01*
G01X-341170Y9325952D01*
G01X-346590Y9319352D01*
G01X-351658Y9311983D01*
G01X-356199Y9304072D01*
G01X-360037Y9295848D01*
G01X-362996Y9287535D01*
G01X-364900Y9279363D01*
G01X-365574Y9271557D01*
G37*
G36*
G01X-873574Y9252459D02*
G01X-913574Y9252459D01*
G01X-913574Y9252459D01*
G03X-943574Y9312459I-75000J0D01*
G01X-843574Y9312459D01*
G01X-843574Y9312459D01*
G03X-873574Y9252459I45000J-60000D01*
G37*
G36*
G01X-2469703Y9271557D02*
G01X-2509703Y9271557D01*
G01X-2510377Y9279363D01*
G01X-2512282Y9287535D01*
G01X-2515240Y9295848D01*
G01X-2519078Y9304072D01*
G01X-2523619Y9311983D01*
G01X-2528688Y9319352D01*
G01X-2534108Y9325952D01*
G01X-2539703Y9331557D01*
G01X-2439704Y9331557D01*
G01X-2445299Y9325952D01*
G01X-2450719Y9319352D01*
G01X-2455787Y9311983D01*
G01X-2460328Y9304072D01*
G01X-2464166Y9295848D01*
G01X-2467125Y9287535D01*
G01X-2469030Y9279363D01*
G01X-2469703Y9271557D01*
G37*
G36*
G01X-2977703Y9252459D02*
G01X-3017703Y9252459D01*
G01X-3017703Y9252459D01*
G03X-3047703Y9312459I-75000J0D01*
G01X-2947704Y9312459D01*
G01X-2947704Y9312459D01*
G03X-2977703Y9252459I45000J-60000D01*
G37*
G36*
G01X-8583287Y6817520D02*
G01X-8583287Y6667520D01*
G01X-8601089Y6667305D01*
G01X-8618180Y6666738D01*
G01X-8648335Y6665020D01*
G01X-8679287Y6662520D01*
G01X-8679287Y6822520D01*
G01X-8648335Y6820020D01*
G01X-8618180Y6818301D01*
G01X-8601089Y6817734D01*
G01X-8583287Y6817520D01*
G37*
G36*
G01X-8749663Y5615491D02*
G01X-8749663Y5555491D01*
G01X-8756975Y5554826D01*
G01X-8759955Y5554027D01*
G01X-8762567Y5552945D01*
G01X-8766924Y5550023D01*
G01X-8770531Y5546232D01*
G01X-8777434Y5536742D01*
G01X-8781700Y5531389D01*
G01X-8787155Y5525863D01*
G01X-8787155Y5645120D01*
G01X-8781700Y5639593D01*
G01X-8777434Y5634240D01*
G01X-8770531Y5624750D01*
G01X-8766924Y5620960D01*
G01X-8762567Y5618037D01*
G01X-8759955Y5616956D01*
G01X-8756975Y5616157D01*
G01X-8749663Y5615491D01*
G37*
G36*
G01X-8784391Y5684015D02*
G01X-8741964Y5641588D01*
G01X-8747226Y5635385D01*
G01X-8751333Y5628619D01*
G01X-8754444Y5621375D01*
G01X-8756717Y5613742D01*
G01X-8758311Y5605805D01*
G01X-8759386Y5597651D01*
G01X-8760612Y5581040D01*
G01X-8844939Y5665367D01*
G01X-8828328Y5666593D01*
G01X-8820174Y5667668D01*
G01X-8812237Y5669262D01*
G01X-8804604Y5671535D01*
G01X-8797360Y5674646D01*
G01X-8790594Y5678753D01*
G01X-8784391Y5684015D01*
G37*
G36*
G01X-969289Y4584299D02*
G01X-948076Y4605512D01*
G01X-944096Y4601864D01*
G01X-940267Y4599002D01*
G01X-936551Y4596847D01*
G01X-932913Y4595320D01*
G01X-929316Y4594342D01*
G01X-925723Y4593835D01*
G01X-918405Y4593917D01*
G01X-910669Y4594937D01*
G01X-902222Y4596262D01*
G01X-892773Y4597264D01*
G01X-882031Y4597311D01*
G01X-961088Y4518254D01*
G01X-961041Y4528996D01*
G01X-960039Y4538445D01*
G01X-958714Y4546892D01*
G01X-957695Y4554628D01*
G01X-957612Y4561946D01*
G01X-958119Y4565538D01*
G01X-959097Y4569136D01*
G01X-960624Y4572774D01*
G01X-962779Y4576490D01*
G01X-965641Y4580319D01*
G01X-969289Y4584299D01*
G37*
G36*
G01X-2216204Y3332427D02*
G01X-2096204Y3332427D01*
G01X-2095560Y3315744D01*
G01X-2093861Y3299738D01*
G01X-2091458Y3284845D01*
G01X-2088705Y3271505D01*
G01X-2083548Y3251233D01*
G01X-2081205Y3242427D01*
G01X-2231204Y3242427D01*
G01X-2228861Y3251233D01*
G01X-2223704Y3271505D01*
G01X-2220951Y3284845D01*
G01X-2218548Y3299738D01*
G01X-2216849Y3315744D01*
G01X-2216204Y3332427D01*
G37*
G36*
G01X-1962204Y3332427D02*
G01X-1842204Y3332427D01*
G01X-1841560Y3315744D01*
G01X-1839861Y3299738D01*
G01X-1837458Y3284845D01*
G01X-1834705Y3271505D01*
G01X-1829548Y3251233D01*
G01X-1827205Y3242427D01*
G01X-1977204Y3242427D01*
G01X-1974861Y3251233D01*
G01X-1969704Y3271505D01*
G01X-1966951Y3284845D01*
G01X-1964548Y3299738D01*
G01X-1962849Y3315744D01*
G01X-1962204Y3332427D01*
G37*
G36*
G01X-1708204Y3332427D02*
G01X-1588204Y3332427D01*
G01X-1587560Y3315744D01*
G01X-1585861Y3299738D01*
G01X-1583458Y3284845D01*
G01X-1580705Y3271505D01*
G01X-1575548Y3251233D01*
G01X-1573205Y3242427D01*
G01X-1723204Y3242427D01*
G01X-1720861Y3251233D01*
G01X-1715704Y3271505D01*
G01X-1712951Y3284845D01*
G01X-1710548Y3299738D01*
G01X-1708849Y3315744D01*
G01X-1708204Y3332427D01*
G37*
G36*
G01X-667473Y3434682D02*
G01X-667473Y3554682D01*
G03X-487473Y3569682I0J1087502D01*
G01X-487473Y3419682D01*
G03X-667473Y3434682I-180000J-1072502D01*
G37*
G36*
G01X-592473Y3688682D02*
G01X-592473Y3808682D01*
G01X-559003Y3809327D01*
G01X-526736Y3811026D01*
G01X-496639Y3813428D01*
G01X-469676Y3816182D01*
G01X-429013Y3821338D01*
G01X-412473Y3823682D01*
G01X-412473Y3673682D01*
G01X-429013Y3676026D01*
G01X-469676Y3681182D01*
G01X-496639Y3683936D01*
G01X-526736Y3686338D01*
G01X-559003Y3688038D01*
G01X-592473Y3688682D01*
G37*
G36*
G01X-592473Y3942682D02*
G01X-592473Y4062682D01*
G01X-559003Y4063327D01*
G01X-526736Y4065026D01*
G01X-496639Y4067428D01*
G01X-469676Y4070182D01*
G01X-429013Y4075338D01*
G01X-412473Y4077682D01*
G01X-412473Y3927682D01*
G01X-429013Y3930026D01*
G01X-469676Y3935182D01*
G01X-496639Y3937936D01*
G01X-526736Y3940338D01*
G01X-559003Y3942038D01*
G01X-592473Y3942682D01*
G37*
G36*
G01X-592473Y4196682D02*
G01X-592473Y4316682D01*
G01X-559003Y4317327D01*
G01X-526736Y4319026D01*
G01X-496639Y4321428D01*
G01X-469676Y4324182D01*
G01X-429013Y4329338D01*
G01X-412473Y4331682D01*
G01X-412473Y4181682D01*
G01X-429013Y4184026D01*
G01X-469676Y4189182D01*
G01X-496639Y4191936D01*
G01X-526736Y4194338D01*
G01X-559003Y4196038D01*
G01X-592473Y4196682D01*
G37*
G36*
G01X-1738360Y6253428D02*
G01X-1703005Y6288783D01*
G01X-1696715Y6283475D01*
G01X-1690131Y6279665D01*
G01X-1683245Y6277089D01*
G01X-1676050Y6275485D01*
G01X-1668539Y6274589D01*
G01X-1660704Y6274137D01*
G01X-1644031Y6273511D01*
G01X-1723088Y6194454D01*
G01X-1723714Y6211127D01*
G01X-1724166Y6218962D01*
G01X-1725062Y6226473D01*
G01X-1726666Y6233668D01*
G01X-1729242Y6240554D01*
G01X-1733052Y6247138D01*
G01X-1738360Y6253428D01*
G37*
G36*
G01X-2216204Y5008627D02*
G01X-2096204Y5008627D01*
G01X-2095560Y4991944D01*
G01X-2093861Y4975938D01*
G01X-2091458Y4961045D01*
G01X-2088705Y4947705D01*
G01X-2083548Y4927433D01*
G01X-2081205Y4918627D01*
G01X-2231204Y4918627D01*
G01X-2228861Y4927433D01*
G01X-2223704Y4947705D01*
G01X-2220951Y4961045D01*
G01X-2218548Y4975938D01*
G01X-2216849Y4991944D01*
G01X-2216204Y5008627D01*
G37*
G36*
G01X-1962204Y5008627D02*
G01X-1842204Y5008627D01*
G01X-1841560Y4991944D01*
G01X-1839861Y4975938D01*
G01X-1837458Y4961045D01*
G01X-1834705Y4947705D01*
G01X-1829548Y4927433D01*
G01X-1827205Y4918627D01*
G01X-1977204Y4918627D01*
G01X-1974861Y4927433D01*
G01X-1969704Y4947705D01*
G01X-1966951Y4961045D01*
G01X-1964548Y4975938D01*
G01X-1962849Y4991944D01*
G01X-1962204Y5008627D01*
G37*
G36*
G01X-1708204Y5008627D02*
G01X-1588204Y5008627D01*
G01X-1587560Y4991944D01*
G01X-1585861Y4975938D01*
G01X-1583458Y4961045D01*
G01X-1580705Y4947705D01*
G01X-1575548Y4927433D01*
G01X-1573205Y4918627D01*
G01X-1723204Y4918627D01*
G01X-1720861Y4927433D01*
G01X-1715704Y4947705D01*
G01X-1712951Y4961045D01*
G01X-1710548Y4975938D01*
G01X-1708849Y4991944D01*
G01X-1708204Y5008627D01*
G37*
G36*
G01X-1454204Y5008627D02*
G01X-1334204Y5008627D01*
G01X-1333560Y4991944D01*
G01X-1331861Y4975938D01*
G01X-1329458Y4961045D01*
G01X-1326705Y4947705D01*
G01X-1321548Y4927433D01*
G01X-1319205Y4918627D01*
G01X-1469204Y4918627D01*
G01X-1466861Y4927433D01*
G01X-1461704Y4947705D01*
G01X-1458951Y4961045D01*
G01X-1456548Y4975938D01*
G01X-1454849Y4991944D01*
G01X-1454204Y5008627D01*
G37*
G36*
G01X-667473Y5136404D02*
G01X-667473Y5256404D01*
G03X-487473Y5271404I0J1087502D01*
G01X-487473Y5121404D01*
G01X-487473Y5121404D01*
G03X-667473Y5136404I-180000J-1072502D01*
G37*
G36*
G01X-592473Y5390404D02*
G01X-592473Y5510404D01*
G01X-559003Y5511049D01*
G01X-526736Y5512748D01*
G01X-496639Y5515150D01*
G01X-469676Y5517904D01*
G01X-429013Y5523060D01*
G01X-412473Y5525404D01*
G01X-412473Y5375404D01*
G01X-429013Y5377748D01*
G01X-469676Y5382904D01*
G01X-496639Y5385658D01*
G01X-526736Y5388060D01*
G01X-559003Y5389760D01*
G01X-592473Y5390404D01*
G37*
G36*
G01X-592473Y5644404D02*
G01X-592473Y5764404D01*
G01X-559003Y5765049D01*
G01X-526736Y5766748D01*
G01X-496639Y5769150D01*
G01X-469676Y5771904D01*
G01X-429013Y5777060D01*
G01X-412473Y5779404D01*
G01X-412473Y5629404D01*
G01X-429013Y5631748D01*
G01X-469676Y5636904D01*
G01X-496639Y5639658D01*
G01X-526736Y5642060D01*
G01X-559003Y5643760D01*
G01X-592473Y5644404D01*
G37*
G36*
G01X-592473Y5865715D02*
G01X-592473Y5985715D01*
G01X-575648Y5986250D01*
G01X-559003Y5987764D01*
G01X-542659Y5990116D01*
G01X-526736Y5993166D01*
G01X-511356Y5996776D01*
G01X-496639Y6000804D01*
G01X-482705Y6005112D01*
G01X-469676Y6009559D01*
G01X-446812Y6018315D01*
G01X-429013Y6025953D01*
G01X-417245Y6031355D01*
G01X-412473Y6033404D01*
G01X-412473Y5883404D01*
G01X-429013Y5880640D01*
G01X-446812Y5877807D01*
G01X-469676Y5874559D01*
G01X-496639Y5871312D01*
G01X-526736Y5868479D01*
G01X-559003Y5866475D01*
G01X-575648Y5865913D01*
G01X-592473Y5865715D01*
G37*
G36*
G01X-1703005Y7800171D02*
G01X-1738360Y7835527D01*
G01X-1733052Y7841817D01*
G01X-1729242Y7848401D01*
G01X-1726666Y7855287D01*
G01X-1725062Y7862482D01*
G01X-1724166Y7869993D01*
G01X-1723714Y7877828D01*
G01X-1723088Y7894500D01*
G01X-1644031Y7815444D01*
G01X-1660704Y7814818D01*
G01X-1668539Y7814366D01*
G01X-1676050Y7813470D01*
G01X-1683245Y7811865D01*
G01X-1690131Y7809290D01*
G01X-1696715Y7805480D01*
G01X-1703005Y7800171D01*
G37*
G36*
G01X-2435204Y6712827D02*
G01X-2385205Y6712827D01*
G01X-2384510Y6704626D01*
G01X-2382549Y6697276D01*
G01X-2379501Y6690586D01*
G01X-2375548Y6684364D01*
G01X-2370870Y6678419D01*
G01X-2365650Y6672559D01*
G01X-2354303Y6660327D01*
G01X-2466106Y6660327D01*
G01X-2454759Y6672559D01*
G01X-2449539Y6678419D01*
G01X-2444861Y6684364D01*
G01X-2440908Y6690586D01*
G01X-2437860Y6697276D01*
G01X-2435899Y6704626D01*
G01X-2435204Y6712827D01*
G37*
G36*
G01X-2320049Y6555527D02*
G01X-2355404Y6520171D01*
G01X-2361694Y6525480D01*
G01X-2368278Y6529290D01*
G01X-2375164Y6531865D01*
G01X-2382359Y6533470D01*
G01X-2389870Y6534366D01*
G01X-2397705Y6534818D01*
G01X-2414378Y6535444D01*
G01X-2335321Y6614501D01*
G01X-2334695Y6597828D01*
G01X-2334243Y6589993D01*
G01X-2333347Y6582482D01*
G01X-2331743Y6575287D01*
G01X-2329167Y6568401D01*
G01X-2325357Y6561817D01*
G01X-2320049Y6555527D01*
G37*
G36*
G01X-2216204Y6700327D02*
G01X-2096204Y6700327D01*
G01X-2095560Y6683644D01*
G01X-2093861Y6667638D01*
G01X-2091458Y6652745D01*
G01X-2088705Y6639405D01*
G01X-2083548Y6619133D01*
G01X-2081205Y6610327D01*
G01X-2231204Y6610327D01*
G01X-2228861Y6619133D01*
G01X-2223704Y6639405D01*
G01X-2220951Y6652745D01*
G01X-2218548Y6667638D01*
G01X-2216849Y6683644D01*
G01X-2216204Y6700327D01*
G37*
G36*
G01X-1962204Y6700327D02*
G01X-1842204Y6700327D01*
G01X-1841560Y6683644D01*
G01X-1839861Y6667638D01*
G01X-1837458Y6652745D01*
G01X-1834705Y6639405D01*
G01X-1829548Y6619133D01*
G01X-1827205Y6610327D01*
G01X-1977204Y6610327D01*
G01X-1974861Y6619133D01*
G01X-1969704Y6639405D01*
G01X-1966951Y6652745D01*
G01X-1964548Y6667638D01*
G01X-1962849Y6683644D01*
G01X-1962204Y6700327D01*
G37*
G36*
G01X-1708204Y6700327D02*
G01X-1588204Y6700327D01*
G01X-1587560Y6683644D01*
G01X-1585861Y6667638D01*
G01X-1583458Y6652745D01*
G01X-1580705Y6639405D01*
G01X-1575548Y6619133D01*
G01X-1573205Y6610327D01*
G01X-1723204Y6610327D01*
G01X-1720861Y6619133D01*
G01X-1715704Y6639405D01*
G01X-1712951Y6652745D01*
G01X-1710548Y6667638D01*
G01X-1708849Y6683644D01*
G01X-1708204Y6700327D01*
G37*
G36*
G01X-1454204Y6700327D02*
G01X-1334204Y6700327D01*
G01X-1333560Y6683644D01*
G01X-1331861Y6667638D01*
G01X-1329458Y6652745D01*
G01X-1326705Y6639405D01*
G01X-1321548Y6619133D01*
G01X-1319205Y6610327D01*
G01X-1469204Y6610327D01*
G01X-1466861Y6619133D01*
G01X-1461704Y6639405D01*
G01X-1458951Y6652745D01*
G01X-1456548Y6667638D01*
G01X-1454849Y6683644D01*
G01X-1454204Y6700327D01*
G37*
G36*
G01X-529771Y6838126D02*
G01X-529771Y6958126D01*
G03X-349771Y6973126I0J1087502D01*
G01X-349771Y6823126D01*
G01X-349771Y6823126D01*
G03X-529771Y6838126I-180000J-1072502D01*
G37*
G36*
G01X-454771Y7092126D02*
G01X-454771Y7212126D01*
G01X-421301Y7212771D01*
G01X-389035Y7214470D01*
G01X-358937Y7216872D01*
G01X-331974Y7219626D01*
G01X-291312Y7224782D01*
G01X-274771Y7227126D01*
G01X-274771Y7077126D01*
G01X-291312Y7079470D01*
G01X-331974Y7084626D01*
G01X-358937Y7087380D01*
G01X-389035Y7089782D01*
G01X-421301Y7091482D01*
G01X-454771Y7092126D01*
G37*
G36*
G01X-454771Y7346126D02*
G01X-454771Y7466126D01*
G01X-421301Y7466771D01*
G01X-389035Y7468470D01*
G01X-358937Y7470872D01*
G01X-331974Y7473626D01*
G01X-291312Y7478782D01*
G01X-274771Y7481126D01*
G01X-274771Y7331126D01*
G01X-291312Y7333470D01*
G01X-331974Y7338626D01*
G01X-358937Y7341380D01*
G01X-389035Y7343782D01*
G01X-421301Y7345482D01*
G01X-454771Y7346126D01*
G37*
G36*
G01X-454771Y7600126D02*
G01X-454771Y7720126D01*
G01X-421301Y7720771D01*
G01X-389035Y7722470D01*
G01X-358937Y7724872D01*
G01X-331974Y7727626D01*
G01X-291312Y7732782D01*
G01X-274771Y7735126D01*
G01X-274771Y7585126D01*
G01X-291312Y7587470D01*
G01X-331974Y7592626D01*
G01X-358937Y7595380D01*
G01X-389035Y7597782D01*
G01X-421301Y7599482D01*
G01X-454771Y7600126D01*
G37*
G36*
G01X-4592846Y6197079D02*
G01X-4557491Y6232434D01*
G01X-4553677Y6228932D01*
G01X-4549855Y6226017D01*
G01X-4546013Y6223638D01*
G01X-4542137Y6221742D01*
G01X-4538214Y6220276D01*
G01X-4534231Y6219187D01*
G01X-4526036Y6217931D01*
G01X-4517449Y6217554D01*
G01X-4508365Y6217634D01*
G01X-4498682Y6217750D01*
G01X-4488297Y6217483D01*
G01X-4577894Y6127885D01*
G01X-4578162Y6138270D01*
G01X-4578045Y6147953D01*
G01X-4577965Y6157037D01*
G01X-4578342Y6165625D01*
G01X-4579598Y6173820D01*
G01X-4580687Y6177802D01*
G01X-4582153Y6181725D01*
G01X-4584050Y6185601D01*
G01X-4586429Y6189444D01*
G01X-4589343Y6193265D01*
G01X-4592846Y6197079D01*
G37*
G36*
G01X-972825Y2904563D02*
G01X-944541Y2932848D01*
G01X-940996Y2929595D01*
G01X-937491Y2926938D01*
G01X-934006Y2924823D01*
G01X-930522Y2923192D01*
G01X-927021Y2921990D01*
G01X-923484Y2921162D01*
G01X-916228Y2920401D01*
G01X-908604Y2920463D01*
G01X-900463Y2920899D01*
G01X-891655Y2921264D01*
G01X-882031Y2921111D01*
G01X-961088Y2842054D01*
G01X-961242Y2851678D01*
G01X-960877Y2860486D01*
G01X-960440Y2868627D01*
G01X-960378Y2876251D01*
G01X-961139Y2883507D01*
G01X-961968Y2887044D01*
G01X-963169Y2890545D01*
G01X-964800Y2894028D01*
G01X-966916Y2897514D01*
G01X-969572Y2901019D01*
G01X-972825Y2904563D01*
G37*
G36*
G01X-2216204Y1640727D02*
G01X-2096204Y1640727D01*
G01X-2095560Y1624044D01*
G01X-2093861Y1608037D01*
G01X-2091458Y1593145D01*
G01X-2088705Y1579805D01*
G01X-2083548Y1559533D01*
G01X-2081205Y1550727D01*
G01X-2231204Y1550727D01*
G01X-2228861Y1559533D01*
G01X-2223704Y1579805D01*
G01X-2220951Y1593145D01*
G01X-2218548Y1608037D01*
G01X-2216849Y1624044D01*
G01X-2216204Y1640727D01*
G37*
G36*
G01X-1962204Y1640727D02*
G01X-1842204Y1640727D01*
G01X-1841560Y1624044D01*
G01X-1839861Y1608037D01*
G01X-1837458Y1593145D01*
G01X-1834705Y1579805D01*
G01X-1829548Y1559533D01*
G01X-1827205Y1550727D01*
G01X-1977204Y1550727D01*
G01X-1974861Y1559533D01*
G01X-1969704Y1579805D01*
G01X-1966951Y1593145D01*
G01X-1964548Y1608037D01*
G01X-1962849Y1624044D01*
G01X-1962204Y1640727D01*
G37*
G36*
G01X-1708204Y1640727D02*
G01X-1588204Y1640727D01*
G01X-1587560Y1624044D01*
G01X-1585861Y1608037D01*
G01X-1583458Y1593145D01*
G01X-1580705Y1579805D01*
G01X-1575548Y1559533D01*
G01X-1573205Y1550727D01*
G01X-1723204Y1550727D01*
G01X-1720861Y1559533D01*
G01X-1715704Y1579805D01*
G01X-1712951Y1593145D01*
G01X-1710548Y1608037D01*
G01X-1708849Y1624044D01*
G01X-1708204Y1640727D01*
G37*
G36*
G01X-1454204Y1640727D02*
G01X-1334204Y1640727D01*
G01X-1333560Y1624044D01*
G01X-1331861Y1608037D01*
G01X-1329458Y1593145D01*
G01X-1326705Y1579805D01*
G01X-1321548Y1559533D01*
G01X-1319205Y1550727D01*
G01X-1469204Y1550727D01*
G01X-1466861Y1559533D01*
G01X-1461704Y1579805D01*
G01X-1458951Y1593145D01*
G01X-1456548Y1608037D01*
G01X-1454849Y1624044D01*
G01X-1454204Y1640727D01*
G37*
G36*
G01X-667473Y1732960D02*
G01X-667473Y1852960D01*
G03X-487473Y1867960I0J1087502D01*
G01X-487473Y1717960D01*
G01X-487473Y1717960D01*
G03X-667473Y1732960I-180000J-1072502D01*
G37*
G36*
G01X-592473Y1986960D02*
G01X-592473Y2106960D01*
G01X-559003Y2107605D01*
G01X-526736Y2109304D01*
G01X-496639Y2111706D01*
G01X-469676Y2114460D01*
G01X-429013Y2119616D01*
G01X-412473Y2121960D01*
G01X-412473Y1971960D01*
G01X-429013Y1974304D01*
G01X-469676Y1979460D01*
G01X-496639Y1982214D01*
G01X-526736Y1984616D01*
G01X-559003Y1986316D01*
G01X-592473Y1986960D01*
G37*
G36*
G01X-592473Y2240960D02*
G01X-592473Y2360960D01*
G01X-559003Y2361605D01*
G01X-526736Y2363304D01*
G01X-496639Y2365706D01*
G01X-469676Y2368460D01*
G01X-429013Y2373616D01*
G01X-412473Y2375960D01*
G01X-412473Y2225960D01*
G01X-429013Y2228304D01*
G01X-469676Y2233460D01*
G01X-496639Y2236214D01*
G01X-526736Y2238616D01*
G01X-559003Y2240316D01*
G01X-592473Y2240960D01*
G37*
G36*
G01X-592473Y2494960D02*
G01X-592473Y2614960D01*
G01X-559003Y2615605D01*
G01X-526736Y2617304D01*
G01X-496639Y2619706D01*
G01X-469676Y2622460D01*
G01X-429013Y2627616D01*
G01X-412473Y2629960D01*
G01X-412473Y2479960D01*
G01X-429013Y2482304D01*
G01X-469676Y2487460D01*
G01X-496639Y2490214D01*
G01X-526736Y2492616D01*
G01X-559003Y2494316D01*
G01X-592473Y2494960D01*
G37*
G36*
G01X-9237023Y9132358D02*
G01X-9237023Y9072358D01*
G01X-9244471Y9072038D01*
G01X-9251202Y9071107D01*
G01X-9257300Y9069604D01*
G01X-9262850Y9067570D01*
G01X-9267937Y9065047D01*
G01X-9272645Y9062075D01*
G01X-9277059Y9058694D01*
G01X-9281263Y9054947D01*
G01X-9289383Y9046513D01*
G01X-9297681Y9037100D01*
G01X-9306836Y9027035D01*
G01X-9317523Y9016642D01*
G01X-9317523Y9188074D01*
G01X-9306836Y9177681D01*
G01X-9297681Y9167616D01*
G01X-9289383Y9158203D01*
G01X-9281263Y9149769D01*
G01X-9277059Y9146022D01*
G01X-9272645Y9142641D01*
G01X-9267937Y9139669D01*
G01X-9262850Y9137146D01*
G01X-9257300Y9135112D01*
G01X-9251202Y9133609D01*
G01X-9244471Y9132678D01*
G01X-9237023Y9132358D01*
G37*
G36*
G01X-4952834Y6303520D02*
G01X-4982834Y6303520D01*
G03X-5005334Y6348520I-56250J0D01*
G01X-4930334Y6348520D01*
G01X-4930334Y6348520D01*
G03X-4952834Y6303520I33750J-45000D01*
G37*
G36*
G01X-5049047Y6461449D02*
G01X-5020763Y6489733D01*
G03X-4957123Y6468520I63639J84853D01*
G01X-5027834Y6397809D01*
G01X-5027834Y6397809D01*
G03X-5049047Y6461449I-106066J0D01*
G37*
G36*
G01X-5153245Y6361144D02*
G01X-5174458Y6339930D01*
G01X-5180249Y6344778D01*
G01X-5185902Y6347762D01*
G01X-5191562Y6349277D01*
G01X-5197380Y6349717D01*
G01X-5203501Y6349477D01*
G01X-5210075Y6348949D01*
G01X-5217250Y6348530D01*
G01X-5225172Y6348613D01*
G01X-5161927Y6411858D01*
G01X-5161844Y6403936D01*
G01X-5162263Y6396761D01*
G01X-5162791Y6390187D01*
G01X-5163031Y6384066D01*
G01X-5162591Y6378248D01*
G01X-5161076Y6372588D01*
G01X-5158092Y6366935D01*
G01X-5153245Y6361144D01*
G37*
G36*
G01X-5303834Y6388520D02*
G01X-5303834Y6428520D01*
G01X-5297273Y6429075D01*
G01X-5291393Y6430644D01*
G01X-5286041Y6433083D01*
G01X-5281063Y6436245D01*
G01X-5276307Y6439987D01*
G01X-5271619Y6444164D01*
G01X-5261834Y6453241D01*
G01X-5261834Y6363798D01*
G01X-5271619Y6372876D01*
G01X-5276307Y6377052D01*
G01X-5281063Y6380794D01*
G01X-5286041Y6383957D01*
G01X-5291393Y6386395D01*
G01X-5297273Y6387965D01*
G01X-5303834Y6388520D01*
G37*
G36*
G01X-6094747Y4439695D02*
G01X-6124747Y4439695D01*
G01X-6125298Y4445001D01*
G01X-6126831Y4450805D01*
G01X-6129162Y4456304D01*
G01X-6132108Y4460695D01*
G01X-6087386Y4460695D01*
G01X-6090332Y4456304D01*
G01X-6092663Y4450805D01*
G01X-6094196Y4445001D01*
G01X-6094747Y4439695D01*
G37*
G36*
G01X-6137263Y4331590D02*
G01X-6116050Y4310377D01*
G01X-6119411Y4306235D01*
G01X-6122432Y4301048D01*
G01X-6124672Y4295511D01*
G01X-6125694Y4290323D01*
G01X-6157317Y4321946D01*
G01X-6152129Y4322968D01*
G01X-6146592Y4325208D01*
G01X-6141405Y4328229D01*
G01X-6137263Y4331590D01*
G37*
G36*
G01X-8542779Y4026590D02*
G01X-8572779Y4026590D01*
G01X-8573330Y4031895D01*
G01X-8574863Y4037699D01*
G01X-8577193Y4043198D01*
G01X-8580139Y4047590D01*
G01X-8535418Y4047590D01*
G01X-8538364Y4043198D01*
G01X-8540695Y4037699D01*
G01X-8542227Y4031895D01*
G01X-8542779Y4026590D01*
G37*
G36*
G01X-7155061Y6295207D02*
G01X-7155061Y6255207D01*
G01X-7161253Y6255699D01*
G01X-7166438Y6256322D01*
G01X-7168830Y6256283D01*
G01X-7171184Y6255798D01*
G01X-7173571Y6254705D01*
G01X-7176061Y6252847D01*
G01X-7176061Y6297568D01*
G01X-7173571Y6295709D01*
G01X-7171184Y6294617D01*
G01X-7168830Y6294132D01*
G01X-7166438Y6294093D01*
G01X-7161253Y6294716D01*
G01X-7155061Y6295207D01*
G37*
G36*
G01X-6214081Y6081665D02*
G01X-6185797Y6109949D01*
G01X-6181766Y6105223D01*
G01X-6178541Y6101116D01*
G01X-6176822Y6099452D01*
G01X-6174814Y6098131D01*
G01X-6172354Y6097216D01*
G01X-6169279Y6096769D01*
G01X-6200901Y6065146D01*
G01X-6201348Y6068221D01*
G01X-6202263Y6070681D01*
G01X-6203584Y6072689D01*
G01X-6205248Y6074408D01*
G01X-6209355Y6077634D01*
G01X-6214081Y6081665D01*
G37*
G36*
G01X-5985013Y5649061D02*
G01X-6013297Y5620777D01*
G01X-6017327Y5625503D01*
G01X-6020553Y5629609D01*
G01X-6022272Y5631274D01*
G01X-6024280Y5632595D01*
G01X-6026740Y5633510D01*
G01X-6029815Y5633957D01*
G01X-5998192Y5665579D01*
G01X-5997746Y5662504D01*
G01X-5996830Y5660044D01*
G01X-5995509Y5658036D01*
G01X-5993845Y5656317D01*
G01X-5989739Y5653092D01*
G01X-5985013Y5649061D01*
G37*
G36*
G01X-5886925Y5494405D02*
G01X-5854840Y5518888D01*
G01X-5850845Y5514000D01*
G01X-5848081Y5509864D01*
G01X-5846616Y5508148D01*
G01X-5844807Y5506704D01*
G01X-5842436Y5505560D01*
G01X-5839286Y5504743D01*
G01X-5874480Y5477151D01*
G01X-5874586Y5480212D01*
G01X-5875283Y5482743D01*
G01X-5876482Y5484881D01*
G01X-5878096Y5486760D01*
G01X-5882212Y5490286D01*
G01X-5886925Y5494405D01*
G37*
G36*
G01X-5538239Y4327892D02*
G01X-5508239Y4327892D01*
G01X-5507688Y4322587D01*
G01X-5506155Y4316783D01*
G01X-5503825Y4311283D01*
G01X-5500879Y4306892D01*
G01X-5545600Y4306892D01*
G01X-5542654Y4311283D01*
G01X-5540323Y4316783D01*
G01X-5538791Y4322587D01*
G01X-5538239Y4327892D01*
G37*
G36*
G01X-6313550Y8055541D02*
G01X-6313550Y8025541D01*
G01X-6318856Y8024989D01*
G01X-6324660Y8023457D01*
G01X-6330159Y8021126D01*
G01X-6334550Y8018180D01*
G01X-6334550Y8062902D01*
G01X-6330159Y8059956D01*
G01X-6324660Y8057625D01*
G01X-6318856Y8056092D01*
G01X-6313550Y8055541D01*
G37*
G36*
G01X-6057544Y7819223D02*
G01X-6036331Y7840436D01*
G01X-6032189Y7837074D01*
G01X-6027001Y7834054D01*
G01X-6021465Y7831813D01*
G01X-6016277Y7830791D01*
G01X-6047899Y7799169D01*
G01X-6048921Y7804357D01*
G01X-6051162Y7809893D01*
G01X-6054182Y7815081D01*
G01X-6057544Y7819223D01*
G37*
G36*
G01X-6670555Y7948440D02*
G01X-6670555Y7918440D01*
G01X-6675861Y7917888D01*
G01X-6681665Y7916356D01*
G01X-6687164Y7914025D01*
G01X-6691555Y7911079D01*
G01X-6691555Y7955800D01*
G01X-6687164Y7952854D01*
G01X-6681665Y7950524D01*
G01X-6675861Y7948991D01*
G01X-6670555Y7948440D01*
G37*
G36*
G01X-8215774Y8331444D02*
G01X-8185774Y8331444D01*
G01X-8185223Y8326138D01*
G01X-8183690Y8320334D01*
G01X-8181359Y8314835D01*
G01X-8178413Y8310444D01*
G01X-8223135Y8310444D01*
G01X-8220189Y8314835D01*
G01X-8217858Y8320334D01*
G01X-8216326Y8326138D01*
G01X-8215774Y8331444D01*
G37*
G36*
G01X-8185774Y8540148D02*
G01X-8215774Y8540148D01*
G01X-8216326Y8545454D01*
G01X-8217858Y8551258D01*
G01X-8220189Y8556757D01*
G01X-8223135Y8561148D01*
G01X-8178413Y8561148D01*
G01X-8181359Y8556757D01*
G01X-8183690Y8551258D01*
G01X-8185223Y8545454D01*
G01X-8185774Y8540148D01*
G37*
G36*
G01X-8188241Y7609457D02*
G01X-8223596Y7574102D01*
G01X-8228423Y7578625D01*
G01X-8233243Y7582644D01*
G01X-8242191Y7589162D01*
G01X-8249090Y7593629D01*
G01X-8252588Y7596022D01*
G01X-8210161Y7638449D01*
G01X-8207768Y7634951D01*
G01X-8203301Y7628052D01*
G01X-8196783Y7619104D01*
G01X-8192764Y7614284D01*
G01X-8188241Y7609457D01*
G37*
G36*
G01X-5192035Y6087716D02*
G01X-5192035Y6137716D01*
G01X-5185424Y6137931D01*
G01X-5179173Y6138497D01*
G01X-5168237Y6140216D01*
G01X-5160200Y6141935D01*
G01X-5156035Y6142716D01*
G01X-5156035Y6082716D01*
G01X-5160200Y6083497D01*
G01X-5168237Y6085216D01*
G01X-5179173Y6086935D01*
G01X-5185424Y6087501D01*
G01X-5192035Y6087716D01*
G37*
G36*
G01X-6143115Y6674174D02*
G01X-6171399Y6645890D01*
G01X-6175429Y6650616D01*
G01X-6178655Y6654723D01*
G01X-6180374Y6656387D01*
G01X-6182382Y6657708D01*
G01X-6184842Y6658623D01*
G01X-6187917Y6659070D01*
G01X-6156295Y6690693D01*
G01X-6155848Y6687618D01*
G01X-6154933Y6685158D01*
G01X-6153611Y6683150D01*
G01X-6151947Y6681430D01*
G01X-6147841Y6678205D01*
G01X-6143115Y6674174D01*
G37*
G36*
G01X-6087014Y6765975D02*
G01X-6115298Y6737691D01*
G01X-6119329Y6742417D01*
G01X-6122554Y6746524D01*
G01X-6124274Y6748188D01*
G01X-6126281Y6749509D01*
G01X-6128741Y6750424D01*
G01X-6131817Y6750871D01*
G01X-6100194Y6782494D01*
G01X-6099747Y6779419D01*
G01X-6098832Y6776959D01*
G01X-6097511Y6774951D01*
G01X-6095847Y6773232D01*
G01X-6091740Y6770006D01*
G01X-6087014Y6765975D01*
G37*
G36*
G01X-4763029Y4241191D02*
G01X-4733029Y4241191D01*
G01X-4732478Y4235885D01*
G01X-4730945Y4230081D01*
G01X-4728615Y4224582D01*
G01X-4725669Y4220191D01*
G01X-4770390Y4220191D01*
G01X-4767444Y4224582D01*
G01X-4765113Y4230081D01*
G01X-4763581Y4235885D01*
G01X-4763029Y4241191D01*
G37*
G36*
G01X-4691628Y4179990D02*
G01X-4661628Y4179990D01*
G01X-4661077Y4174685D01*
G01X-4659544Y4168881D01*
G01X-4657214Y4163382D01*
G01X-4654268Y4158990D01*
G01X-4698989Y4158990D01*
G01X-4696043Y4163382D01*
G01X-4693712Y4168881D01*
G01X-4692180Y4174685D01*
G01X-4691628Y4179990D01*
G37*
G36*
G01X-4936432Y6851725D02*
G01X-4936432Y6801725D01*
G01X-4943043Y6801510D01*
G01X-4949294Y6800944D01*
G01X-4960230Y6799225D01*
G01X-4968267Y6797507D01*
G01X-4972432Y6796725D01*
G01X-4972432Y6856725D01*
G01X-4968267Y6855944D01*
G01X-4960230Y6854225D01*
G01X-4949294Y6852506D01*
G01X-4943043Y6851940D01*
G01X-4936432Y6851725D01*
G37*
G36*
G01X-3305010Y6801725D02*
G01X-3305010Y6851725D01*
G01X-3298400Y6851940D01*
G01X-3292149Y6852506D01*
G01X-3281213Y6854225D01*
G01X-3273176Y6855944D01*
G01X-3269010Y6856725D01*
G01X-3269010Y6796725D01*
G01X-3273176Y6797507D01*
G01X-3281213Y6799225D01*
G01X-3292149Y6800944D01*
G01X-3298400Y6801510D01*
G01X-3305010Y6801725D01*
G37*
G36*
G01X-4334725Y5372906D02*
G01X-4334725Y5342906D01*
G01X-4340030Y5342355D01*
G01X-4345834Y5340822D01*
G01X-4351333Y5338492D01*
G01X-4355725Y5335546D01*
G01X-4355725Y5380267D01*
G01X-4351333Y5377321D01*
G01X-4345834Y5374990D01*
G01X-4340030Y5373458D01*
G01X-4334725Y5372906D01*
G37*
G36*
G01X-3828002Y5384609D02*
G01X-3849215Y5405822D01*
G01X-3845853Y5409964D01*
G01X-3842833Y5415152D01*
G01X-3840593Y5420688D01*
G01X-3839571Y5425876D01*
G01X-3807948Y5394254D01*
G01X-3813136Y5393232D01*
G01X-3818673Y5390991D01*
G01X-3823860Y5387971D01*
G01X-3828002Y5384609D01*
G37*
G36*
G01X-3824617Y5465207D02*
G01X-3794617Y5465207D01*
G01X-3794066Y5459901D01*
G01X-3792533Y5454097D01*
G01X-3790203Y5448598D01*
G01X-3787257Y5444207D01*
G01X-3831978Y5444207D01*
G01X-3829032Y5448598D01*
G01X-3826701Y5454097D01*
G01X-3825169Y5459901D01*
G01X-3824617Y5465207D01*
G37*
G36*
G01X-3794617Y5719812D02*
G01X-3824617Y5719812D01*
G01X-3825169Y5725117D01*
G01X-3826701Y5730921D01*
G01X-3829032Y5736420D01*
G01X-3831978Y5740811D01*
G01X-3787257Y5740811D01*
G01X-3790203Y5736420D01*
G01X-3792533Y5730921D01*
G01X-3794066Y5725117D01*
G01X-3794617Y5719812D01*
G37*
G36*
G01X-3840118Y6851725D02*
G01X-3839305Y6801725D01*
G01X-3845646Y6802372D01*
G01X-3850796Y6803299D01*
G01X-3853142Y6803393D01*
G01X-3855451Y6802989D01*
G01X-3857810Y6801895D01*
G01X-3860305Y6799924D01*
G01X-3861118Y6844075D01*
G01X-3858928Y6842993D01*
G01X-3856540Y6843197D01*
G01X-3853991Y6844336D01*
G01X-3851317Y6846057D01*
G01X-3845745Y6849839D01*
G01X-3842920Y6851195D01*
G01X-3840118Y6851725D01*
G37*
G36*
G01X-3922731Y6801725D02*
G01X-3921918Y6851725D01*
G01X-3919116Y6851195D01*
G01X-3916291Y6849839D01*
G01X-3910719Y6846057D01*
G01X-3908045Y6844336D01*
G01X-3905496Y6843197D01*
G01X-3903108Y6842993D01*
G01X-3900918Y6844075D01*
G01X-3901731Y6799924D01*
G01X-3904227Y6801895D01*
G01X-3906585Y6802989D01*
G01X-3908894Y6803393D01*
G01X-3911240Y6803299D01*
G01X-3916391Y6802372D01*
G01X-3922731Y6801725D01*
G37*
G36*
G01X-4435461Y6851725D02*
G01X-4427590Y6801725D01*
G01X-4433212Y6801441D01*
G01X-4437886Y6800675D01*
G01X-4441925Y6799552D01*
G01X-4445644Y6798201D01*
G01X-4453375Y6795320D01*
G01X-4458015Y6794045D01*
G01X-4463590Y6793049D01*
G01X-4471461Y6852530D01*
G01X-4462915Y6852987D01*
G01X-4453495Y6852645D01*
G01X-4444058Y6852045D01*
G01X-4435461Y6851725D01*
G37*
G36*
G01X-4522461Y6801725D02*
G01X-4514590Y6851725D01*
G01X-4502590Y6852114D01*
G01X-4489044Y6852830D01*
G01X-4475521Y6853194D01*
G01X-4469258Y6853033D01*
G01X-4463590Y6852530D01*
G01X-4471461Y6793049D01*
G01X-4484020Y6795320D01*
G01X-4496908Y6798201D01*
G01X-4509822Y6800675D01*
G01X-4516195Y6801441D01*
G01X-4522461Y6801725D01*
G37*
G36*
G01X-5854443Y6811624D02*
G01X-5824444Y6811624D01*
G01X-5823892Y6806319D01*
G01X-5822359Y6800515D01*
G01X-5820029Y6795016D01*
G01X-5817083Y6790624D01*
G01X-5861804Y6790624D01*
G01X-5858858Y6795016D01*
G01X-5856527Y6800515D01*
G01X-5854995Y6806319D01*
G01X-5854443Y6811624D01*
G37*
G36*
G01X-5559139Y4139291D02*
G01X-5559139Y4169291D01*
G01X-5553834Y4169842D01*
G01X-5548030Y4171375D01*
G01X-5542530Y4173705D01*
G01X-5538139Y4176651D01*
G01X-5538139Y4131930D01*
G01X-5542530Y4134876D01*
G01X-5548030Y4137207D01*
G01X-5553834Y4138739D01*
G01X-5559139Y4139291D01*
G37*
G36*
G01X-6308450Y4169291D02*
G01X-6308450Y4139291D01*
G01X-6313756Y4138739D01*
G01X-6319560Y4137207D01*
G01X-6325059Y4134876D01*
G01X-6329450Y4131930D01*
G01X-6329450Y4176651D01*
G01X-6325059Y4173705D01*
G01X-6319560Y4171375D01*
G01X-6313756Y4169842D01*
G01X-6308450Y4169291D01*
G37*
G36*
G01X-5959830Y4242194D02*
G01X-5981043Y4263408D01*
G01X-5977681Y4267549D01*
G01X-5974661Y4272737D01*
G01X-5972420Y4278273D01*
G01X-5971398Y4283462D01*
G01X-5939776Y4251839D01*
G01X-5944964Y4250817D01*
G01X-5950500Y4248577D01*
G01X-5955688Y4245556D01*
G01X-5959830Y4242194D01*
G37*
G36*
G01X-6588954Y4240692D02*
G01X-6588954Y4210692D01*
G01X-6594260Y4210140D01*
G01X-6600064Y4208608D01*
G01X-6605563Y4206277D01*
G01X-6609954Y4203331D01*
G01X-6609954Y4248052D01*
G01X-6605563Y4245106D01*
G01X-6600064Y4242776D01*
G01X-6594260Y4241243D01*
G01X-6588954Y4240692D01*
G37*
G36*
G01X-6349251Y4087690D02*
G01X-6349251Y4057690D01*
G01X-6354556Y4057138D01*
G01X-6360360Y4055606D01*
G01X-6365860Y4053275D01*
G01X-6370251Y4050329D01*
G01X-6370251Y4095050D01*
G01X-6365860Y4092104D01*
G01X-6360360Y4089774D01*
G01X-6354556Y4088241D01*
G01X-6349251Y4087690D01*
G37*
G36*
G01X-5429423Y4099393D02*
G01X-5450636Y4120606D01*
G01X-5447274Y4124747D01*
G01X-5444254Y4129935D01*
G01X-5442013Y4135472D01*
G01X-5440991Y4140660D01*
G01X-5409369Y4109037D01*
G01X-5414557Y4108015D01*
G01X-5420093Y4105775D01*
G01X-5425281Y4102754D01*
G01X-5429423Y4099393D01*
G37*
G36*
G01X-7746669Y3485882D02*
G01X-7746669Y3455882D01*
G01X-7751975Y3455330D01*
G01X-7757778Y3453798D01*
G01X-7763278Y3451467D01*
G01X-7767669Y3448521D01*
G01X-7767669Y3493242D01*
G01X-7763278Y3490296D01*
G01X-7757778Y3487966D01*
G01X-7751975Y3486433D01*
G01X-7746669Y3485882D01*
G37*
G36*
G01X-7209346Y3548585D02*
G01X-7230559Y3569799D01*
G01X-7227197Y3573940D01*
G01X-7224177Y3579128D01*
G01X-7221936Y3584664D01*
G01X-7220914Y3589853D01*
G01X-7189292Y3558230D01*
G01X-7194480Y3557208D01*
G01X-7200016Y3554968D01*
G01X-7205204Y3551947D01*
G01X-7209346Y3548585D01*
G37*
G36*
G01X-7769284Y3658382D02*
G01X-7748071Y3637168D01*
G01X-7751433Y3633027D01*
G01X-7754453Y3627839D01*
G01X-7756693Y3622303D01*
G01X-7757715Y3617114D01*
G01X-7789338Y3648737D01*
G01X-7784150Y3649759D01*
G01X-7778613Y3651999D01*
G01X-7773426Y3655020D01*
G01X-7769284Y3658382D01*
G37*
G36*
G01X-7206461Y3817987D02*
G01X-7206461Y3847986D01*
G01X-7201155Y3848538D01*
G01X-7195351Y3850070D01*
G01X-7189852Y3852401D01*
G01X-7185461Y3855347D01*
G01X-7185461Y3810626D01*
G01X-7189852Y3813572D01*
G01X-7195351Y3815903D01*
G01X-7201155Y3817435D01*
G01X-7206461Y3817987D01*
G37*
G36*
G01X-5761452Y4377491D02*
G01X-5740239Y4356278D01*
G01X-5743601Y4352136D01*
G01X-5746621Y4346948D01*
G01X-5748862Y4341412D01*
G01X-5749884Y4336224D01*
G01X-5781506Y4367846D01*
G01X-5776318Y4368868D01*
G01X-5770782Y4371109D01*
G01X-5765594Y4374129D01*
G01X-5761452Y4377491D01*
G37*
G36*
G01X-4863315Y5711013D02*
G01X-4884529Y5732227D01*
G01X-4881167Y5736368D01*
G01X-4878146Y5741556D01*
G01X-4875906Y5747092D01*
G01X-4874884Y5752281D01*
G01X-4843261Y5720658D01*
G01X-4848449Y5719636D01*
G01X-4853986Y5717396D01*
G01X-4859174Y5714375D01*
G01X-4863315Y5711013D01*
G37*
G36*
G01X-4803529Y5470844D02*
G01X-4833529Y5470844D01*
G01X-4834081Y5476149D01*
G01X-4835613Y5481953D01*
G01X-4837944Y5487452D01*
G01X-4840890Y5491843D01*
G01X-4796169Y5491843D01*
G01X-4799115Y5487452D01*
G01X-4801445Y5481953D01*
G01X-4802978Y5476149D01*
G01X-4803529Y5470844D01*
G37*
G36*
G01X-5926444Y4817800D02*
G01X-5926444Y4867800D01*
G01X-5919833Y4868014D01*
G01X-5913583Y4868581D01*
G01X-5902647Y4870300D01*
G01X-5894609Y4872018D01*
G01X-5890444Y4872800D01*
G01X-5890444Y4812800D01*
G01X-5894609Y4813581D01*
G01X-5902647Y4815300D01*
G01X-5913583Y4817018D01*
G01X-5919833Y4817585D01*
G01X-5926444Y4817800D01*
G37*
G36*
G01X-6400650Y4404594D02*
G01X-6400650Y4444594D01*
G01X-6394458Y4444102D01*
G01X-6389274Y4443479D01*
G01X-6386881Y4443518D01*
G01X-6384527Y4444004D01*
G01X-6382141Y4445096D01*
G01X-6379650Y4446955D01*
G01X-6379650Y4402234D01*
G01X-6382141Y4404092D01*
G01X-6384527Y4405184D01*
G01X-6386881Y4405670D01*
G01X-6389274Y4405709D01*
G01X-6394458Y4405086D01*
G01X-6400650Y4404594D01*
G37*
G36*
G01X-6351872Y4467728D02*
G01X-6316517Y4432372D01*
G01X-6321039Y4427546D01*
G01X-6325059Y4422725D01*
G01X-6331576Y4413777D01*
G01X-6336044Y4406879D01*
G01X-6338437Y4403381D01*
G01X-6380863Y4445807D01*
G01X-6377366Y4448200D01*
G01X-6370467Y4452668D01*
G01X-6361519Y4459186D01*
G01X-6356698Y4463205D01*
G01X-6351872Y4467728D01*
G37*
G36*
G01X-6099347Y3756185D02*
G01X-6099347Y3726185D01*
G01X-6104653Y3725634D01*
G01X-6110457Y3724101D01*
G01X-6115956Y3721771D01*
G01X-6120347Y3718825D01*
G01X-6120347Y3763546D01*
G01X-6115956Y3760600D01*
G01X-6110457Y3758269D01*
G01X-6104653Y3756737D01*
G01X-6099347Y3756185D01*
G37*
G36*
G01X-5996666Y3726185D02*
G01X-5982845Y3756185D01*
G01X-5975560Y3755826D01*
G01X-5967434Y3755159D01*
G01X-5959336Y3754799D01*
G01X-5952138Y3755359D01*
G01X-5975666Y3718676D01*
G01X-5976836Y3721666D01*
G01X-5978571Y3723769D01*
G01X-5980797Y3725135D01*
G01X-5983439Y3725915D01*
G01X-5989670Y3726318D01*
G01X-5996666Y3726185D01*
G37*
G36*
G01X-4469541Y4000086D02*
G01X-4448328Y3978873D01*
G01X-4451690Y3974731D01*
G01X-4454710Y3969544D01*
G01X-4456951Y3964007D01*
G01X-4457973Y3958819D01*
G01X-4489595Y3990442D01*
G01X-4484407Y3991464D01*
G01X-4478871Y3993704D01*
G01X-4473683Y3996724D01*
G01X-4469541Y4000086D01*
G37*
G36*
G01X-4416825Y4817100D02*
G01X-4446825Y4817100D01*
G01X-4447377Y4822406D01*
G01X-4448909Y4828210D01*
G01X-4451240Y4833709D01*
G01X-4454186Y4838100D01*
G01X-4409465Y4838100D01*
G01X-4412411Y4833709D01*
G01X-4414741Y4828210D01*
G01X-4416274Y4822406D01*
G01X-4416825Y4817100D01*
G37*
G36*
G01X-5044133Y3899088D02*
G01X-5074133Y3899088D01*
G01X-5074685Y3904394D01*
G01X-5076217Y3910198D01*
G01X-5078548Y3915697D01*
G01X-5081494Y3920088D01*
G01X-5036773Y3920088D01*
G01X-5039719Y3915697D01*
G01X-5042049Y3910198D01*
G01X-5043582Y3904394D01*
G01X-5044133Y3899088D01*
G37*
G36*
G01X-4895631Y2451068D02*
G01X-4865631Y2451068D01*
G01X-4865080Y2445762D01*
G01X-4863547Y2439958D01*
G01X-4861216Y2434459D01*
G01X-4858270Y2430068D01*
G01X-4902992Y2430068D01*
G01X-4900046Y2434459D01*
G01X-4897715Y2439958D01*
G01X-4896183Y2445762D01*
G01X-4895631Y2451068D01*
G37*
G36*
G01X-6310982Y2322916D02*
G01X-6282698Y2351200D01*
G01X-6278668Y2346474D01*
G01X-6275442Y2342367D01*
G01X-6273723Y2340703D01*
G01X-6271715Y2339382D01*
G01X-6269255Y2338467D01*
G01X-6266180Y2338020D01*
G01X-6297802Y2306398D01*
G01X-6298249Y2309473D01*
G01X-6299165Y2311933D01*
G01X-6300486Y2313941D01*
G01X-6302150Y2315660D01*
G01X-6306256Y2318885D01*
G01X-6310982Y2322916D01*
G37*
G36*
G01X-9261888Y3179979D02*
G01X-9291888Y3179979D01*
G01X-9292439Y3185284D01*
G01X-9293972Y3191088D01*
G01X-9296303Y3196587D01*
G01X-9299249Y3200979D01*
G01X-9254527Y3200979D01*
G01X-9257473Y3196587D01*
G01X-9259804Y3191088D01*
G01X-9261337Y3185284D01*
G01X-9261888Y3179979D01*
G37*
G36*
G01X-9291888Y3149777D02*
G01X-9261888Y3149777D01*
G01X-9261337Y3144471D01*
G01X-9259804Y3138667D01*
G01X-9257473Y3133168D01*
G01X-9254527Y3128777D01*
G01X-9299249Y3128777D01*
G01X-9296303Y3133168D01*
G01X-9293972Y3138667D01*
G01X-9292439Y3144471D01*
G01X-9291888Y3149777D01*
G37*
G36*
G01X-9179486Y2935360D02*
G01X-9129486Y2935360D01*
G01X-9129272Y2928749D01*
G01X-9128705Y2922499D01*
G01X-9126986Y2911563D01*
G01X-9125268Y2903526D01*
G01X-9124486Y2899360D01*
G01X-9184486Y2899360D01*
G01X-9183705Y2903526D01*
G01X-9181986Y2911563D01*
G01X-9180268Y2922499D01*
G01X-9179701Y2928749D01*
G01X-9179486Y2935360D01*
G37*
G36*
G01X-7250146Y2227668D02*
G01X-7271359Y2248881D01*
G01X-7267998Y2253023D01*
G01X-7264977Y2258211D01*
G01X-7262737Y2263747D01*
G01X-7261715Y2268935D01*
G01X-7230092Y2237313D01*
G01X-7235280Y2236291D01*
G01X-7240817Y2234050D01*
G01X-7246005Y2231030D01*
G01X-7250146Y2227668D01*
G37*
G36*
G01X-7192164Y2248881D02*
G01X-7213377Y2227668D01*
G01X-7217518Y2231030D01*
G01X-7222706Y2234050D01*
G01X-7228243Y2236291D01*
G01X-7233431Y2237313D01*
G01X-7201808Y2268935D01*
G01X-7200786Y2263747D01*
G01X-7198546Y2258211D01*
G01X-7195525Y2253023D01*
G01X-7192164Y2248881D01*
G37*
G36*
G01X-6094646Y2206366D02*
G01X-6094646Y2236366D01*
G01X-6089340Y2236917D01*
G01X-6083536Y2238450D01*
G01X-6078037Y2240780D01*
G01X-6073646Y2243726D01*
G01X-6073646Y2199005D01*
G01X-6078037Y2201951D01*
G01X-6083536Y2204282D01*
G01X-6089340Y2205814D01*
G01X-6094646Y2206366D01*
G37*
G36*
G01X-2815505Y3842987D02*
G01X-2855505Y3842987D01*
G01X-2855013Y3849179D01*
G01X-2854390Y3854364D01*
G01X-2854429Y3856756D01*
G01X-2854914Y3859110D01*
G01X-2856007Y3861497D01*
G01X-2857865Y3863987D01*
G01X-2813144Y3863987D01*
G01X-2815003Y3861497D01*
G01X-2816095Y3859110D01*
G01X-2816580Y3856756D01*
G01X-2816619Y3854364D01*
G01X-2815996Y3849179D01*
G01X-2815505Y3842987D01*
G37*
G36*
G01X-2856356Y3702718D02*
G01X-2828072Y3674433D01*
G01X-2832798Y3670403D01*
G01X-2836904Y3667177D01*
G01X-2838569Y3665458D01*
G01X-2839890Y3663450D01*
G01X-2840805Y3660990D01*
G01X-2841252Y3657915D01*
G01X-2872874Y3689538D01*
G01X-2869799Y3689984D01*
G01X-2867339Y3690900D01*
G01X-2865331Y3692221D01*
G01X-2863612Y3693885D01*
G01X-2860386Y3697992D01*
G01X-2856356Y3702718D01*
G37*
G36*
G01X-2994007Y4368294D02*
G01X-3034007Y4368294D01*
G01X-3033515Y4374486D01*
G01X-3032892Y4379671D01*
G01X-3032931Y4382063D01*
G01X-3033417Y4384417D01*
G01X-3034509Y4386804D01*
G01X-3036368Y4389294D01*
G01X-2991646Y4389294D01*
G01X-2993505Y4386804D01*
G01X-2994597Y4384417D01*
G01X-2995083Y4382063D01*
G01X-2995122Y4379671D01*
G01X-2994499Y4374486D01*
G01X-2994007Y4368294D01*
G37*
G36*
G01X-3034007Y4164690D02*
G01X-2994007Y4164690D01*
G01X-2994499Y4158498D01*
G01X-2995122Y4153314D01*
G01X-2995083Y4150921D01*
G01X-2994597Y4148567D01*
G01X-2993505Y4146181D01*
G01X-2991646Y4143690D01*
G01X-3036368Y4143690D01*
G01X-3034509Y4146181D01*
G01X-3033417Y4148567D01*
G01X-3032931Y4150921D01*
G01X-3032892Y4153314D01*
G01X-3033515Y4158498D01*
G01X-3034007Y4164690D01*
G37*
G36*
G01X-5375738Y6892827D02*
G01X-5415738Y6892827D01*
G01X-5415246Y6899019D01*
G01X-5414623Y6904203D01*
G01X-5414662Y6906596D01*
G01X-5415148Y6908950D01*
G01X-5416240Y6911336D01*
G01X-5418098Y6913827D01*
G01X-5373377Y6913827D01*
G01X-5375236Y6911336D01*
G01X-5376328Y6908950D01*
G01X-5376814Y6906596D01*
G01X-5376853Y6904203D01*
G01X-5376230Y6899019D01*
G01X-5375738Y6892827D01*
G37*
G36*
G01X-5415738Y6740224D02*
G01X-5375738Y6740224D01*
G01X-5376230Y6734032D01*
G01X-5376853Y6728847D01*
G01X-5376814Y6726454D01*
G01X-5376328Y6724101D01*
G01X-5375236Y6721714D01*
G01X-5373377Y6719224D01*
G01X-5418098Y6719224D01*
G01X-5416240Y6721714D01*
G01X-5415148Y6724101D01*
G01X-5414662Y6726454D01*
G01X-5414623Y6728847D01*
G01X-5415246Y6734032D01*
G01X-5415738Y6740224D01*
G37*
G36*
G01X-5176835Y5893214D02*
G01X-5216835Y5893214D01*
G01X-5216343Y5899406D01*
G01X-5215720Y5904590D01*
G01X-5215759Y5906983D01*
G01X-5216245Y5909337D01*
G01X-5217337Y5911723D01*
G01X-5219196Y5914214D01*
G01X-5174475Y5914214D01*
G01X-5176333Y5911723D01*
G01X-5177425Y5909337D01*
G01X-5177911Y5906983D01*
G01X-5177950Y5904590D01*
G01X-5177327Y5899406D01*
G01X-5176835Y5893214D01*
G37*
G36*
G01X-5015566Y5393156D02*
G01X-4987281Y5421440D01*
G01X-4983251Y5416714D01*
G01X-4980025Y5412607D01*
G01X-4978306Y5410943D01*
G01X-4976298Y5409622D01*
G01X-4973838Y5408707D01*
G01X-4970763Y5408260D01*
G01X-5002386Y5376637D01*
G01X-5002832Y5379712D01*
G01X-5003748Y5382172D01*
G01X-5005069Y5384180D01*
G01X-5006733Y5385899D01*
G01X-5010840Y5389125D01*
G01X-5015566Y5393156D01*
G37*
G36*
G01X-4567194Y5337957D02*
G01X-4595478Y5309673D01*
G01X-4599509Y5314399D01*
G01X-4602735Y5318505D01*
G01X-4604454Y5320170D01*
G01X-4606462Y5321491D01*
G01X-4608922Y5322406D01*
G01X-4611997Y5322853D01*
G01X-4580374Y5354475D01*
G01X-4579927Y5351400D01*
G01X-4579012Y5348940D01*
G01X-4577691Y5346932D01*
G01X-4576027Y5345213D01*
G01X-4571920Y5341988D01*
G01X-4567194Y5337957D01*
G37*
G36*
G01X-3967919Y5169604D02*
G01X-3967919Y5209604D01*
G01X-3961727Y5209112D01*
G01X-3956542Y5208489D01*
G01X-3954150Y5208528D01*
G01X-3951796Y5209014D01*
G01X-3949409Y5210106D01*
G01X-3946919Y5211965D01*
G01X-3946919Y5167243D01*
G01X-3949409Y5169102D01*
G01X-3951796Y5170194D01*
G01X-3954150Y5170680D01*
G01X-3956542Y5170719D01*
G01X-3961727Y5170096D01*
G01X-3967919Y5169604D01*
G37*
G36*
G01X-3198010Y5303507D02*
G01X-3238010Y5303507D01*
G01X-3237518Y5309699D01*
G01X-3236895Y5314884D01*
G01X-3236934Y5317276D01*
G01X-3237419Y5319630D01*
G01X-3238512Y5322017D01*
G01X-3240370Y5324507D01*
G01X-3195649Y5324507D01*
G01X-3197508Y5322017D01*
G01X-3198600Y5319630D01*
G01X-3199085Y5317276D01*
G01X-3199124Y5314884D01*
G01X-3198501Y5309699D01*
G01X-3198010Y5303507D01*
G37*
G36*
G01X-3238010Y5385507D02*
G01X-3198010Y5385507D01*
G01X-3198501Y5379315D01*
G01X-3199124Y5374131D01*
G01X-3199085Y5371738D01*
G01X-3198600Y5369384D01*
G01X-3197508Y5366998D01*
G01X-3195649Y5364507D01*
G01X-3240370Y5364507D01*
G01X-3238512Y5366998D01*
G01X-3237419Y5369384D01*
G01X-3236934Y5371738D01*
G01X-3236895Y5374131D01*
G01X-3237518Y5379315D01*
G01X-3238010Y5385507D01*
G37*
G36*
G01X-3335762Y8027574D02*
G01X-3307478Y7999289D01*
G01X-3312204Y7995259D01*
G01X-3316311Y7992033D01*
G01X-3317975Y7990314D01*
G01X-3319296Y7988306D01*
G01X-3320211Y7985846D01*
G01X-3320658Y7982771D01*
G01X-3352281Y8014394D01*
G01X-3349205Y8014840D01*
G01X-3346745Y8015756D01*
G01X-3344738Y8017077D01*
G01X-3343018Y8018741D01*
G01X-3339793Y8022848D01*
G01X-3335762Y8027574D01*
G37*
G36*
G01X-3952870Y8063274D02*
G01X-3924586Y8034990D01*
G01X-3929312Y8030959D01*
G01X-3933419Y8027734D01*
G01X-3935083Y8026014D01*
G01X-3936404Y8024007D01*
G01X-3937319Y8021547D01*
G01X-3937766Y8018471D01*
G01X-3969389Y8050094D01*
G01X-3966313Y8050541D01*
G01X-3963853Y8051456D01*
G01X-3961846Y8052777D01*
G01X-3960126Y8054441D01*
G01X-3956901Y8058548D01*
G01X-3952870Y8063274D01*
G37*
G36*
G01X-4559778Y8088774D02*
G01X-4531494Y8060490D01*
G01X-4536220Y8056460D01*
G01X-4540326Y8053234D01*
G01X-4541991Y8051515D01*
G01X-4543312Y8049507D01*
G01X-4544227Y8047047D01*
G01X-4544674Y8043972D01*
G01X-4576296Y8075594D01*
G01X-4573221Y8076041D01*
G01X-4570761Y8076956D01*
G01X-4568753Y8078278D01*
G01X-4567034Y8079942D01*
G01X-4563809Y8084048D01*
G01X-4559778Y8088774D01*
G37*
G36*
G01X-7759835Y8607099D02*
G01X-7788120Y8578815D01*
G01X-7792150Y8583541D01*
G01X-7795376Y8587648D01*
G01X-7797095Y8589312D01*
G01X-7799103Y8590633D01*
G01X-7801563Y8591548D01*
G01X-7804638Y8591995D01*
G01X-7773015Y8623618D01*
G01X-7772569Y8620543D01*
G01X-7771653Y8618083D01*
G01X-7770332Y8616075D01*
G01X-7768668Y8614355D01*
G01X-7764562Y8611130D01*
G01X-7759835Y8607099D01*
G37*
G36*
G01X-5349386Y7808705D02*
G01X-5377670Y7836989D01*
G01X-5372944Y7841020D01*
G01X-5368838Y7844246D01*
G01X-5367174Y7845965D01*
G01X-5365852Y7847973D01*
G01X-5364937Y7850433D01*
G01X-5364490Y7853508D01*
G01X-5332868Y7821885D01*
G01X-5335943Y7821438D01*
G01X-5338403Y7820523D01*
G01X-5340411Y7819202D01*
G01X-5342130Y7817538D01*
G01X-5345356Y7813431D01*
G01X-5349386Y7808705D01*
G37*
G36*
G01X-7861420Y10312220D02*
G01X-7861420Y10272220D01*
G01X-7867612Y10272712D01*
G01X-7872797Y10273335D01*
G01X-7875189Y10273296D01*
G01X-7877543Y10272810D01*
G01X-7879930Y10271718D01*
G01X-7882420Y10269860D01*
G01X-7882420Y10314581D01*
G01X-7879930Y10312722D01*
G01X-7877543Y10311630D01*
G01X-7875189Y10311144D01*
G01X-7872797Y10311105D01*
G01X-7867612Y10311728D01*
G01X-7861420Y10312220D01*
G37*
G36*
G01X-6491801Y10629042D02*
G01X-6520085Y10657326D01*
G01X-6515359Y10661356D01*
G01X-6511252Y10664582D01*
G01X-6509588Y10666301D01*
G01X-6508267Y10668309D01*
G01X-6507352Y10670769D01*
G01X-6506905Y10673844D01*
G01X-6475282Y10642222D01*
G01X-6478358Y10641775D01*
G01X-6480818Y10640860D01*
G01X-6482825Y10639538D01*
G01X-6484545Y10637874D01*
G01X-6487770Y10633768D01*
G01X-6491801Y10629042D01*
G37*
G36*
G01X-4853928Y4703082D02*
G01X-4832715Y4724295D01*
G01X-4828573Y4720934D01*
G01X-4823386Y4717913D01*
G01X-4817849Y4715673D01*
G01X-4812661Y4714651D01*
G01X-4844284Y4683028D01*
G01X-4845306Y4688216D01*
G01X-4847546Y4693753D01*
G01X-4850566Y4698941D01*
G01X-4853928Y4703082D01*
G37*
G36*
G01X-5004235Y4895816D02*
G01X-5025448Y4874603D01*
G01X-5029590Y4877964D01*
G01X-5034778Y4880985D01*
G01X-5040314Y4883225D01*
G01X-5045502Y4884247D01*
G01X-5013880Y4915870D01*
G01X-5012858Y4910682D01*
G01X-5010617Y4905145D01*
G01X-5007597Y4899957D01*
G01X-5004235Y4895816D01*
G37*
G36*
G01X-5207235Y5021602D02*
G01X-5207235Y5051602D01*
G01X-5201929Y5052154D01*
G01X-5196125Y5053686D01*
G01X-5190626Y5056017D01*
G01X-5186235Y5058963D01*
G01X-5186235Y5014241D01*
G01X-5190626Y5017187D01*
G01X-5196125Y5019518D01*
G01X-5201929Y5021051D01*
G01X-5207235Y5021602D01*
G37*
G36*
G01X-5681142Y5051602D02*
G01X-5681142Y5021602D01*
G01X-5686448Y5021051D01*
G01X-5692252Y5019518D01*
G01X-5697751Y5017187D01*
G01X-5702142Y5014241D01*
G01X-5702142Y5058963D01*
G01X-5697751Y5056017D01*
G01X-5692252Y5053686D01*
G01X-5686448Y5052154D01*
G01X-5681142Y5051602D01*
G37*
G36*
G01X-4243423Y4291793D02*
G01X-4273423Y4291793D01*
G01X-4273974Y4297099D01*
G01X-4275507Y4302903D01*
G01X-4277838Y4308402D01*
G01X-4280784Y4312793D01*
G01X-4236062Y4312793D01*
G01X-4239008Y4308402D01*
G01X-4241339Y4302903D01*
G01X-4242872Y4297099D01*
G01X-4243423Y4291793D01*
G37*
G36*
G01X-4273423Y4229401D02*
G01X-4243423Y4221798D01*
G01X-4243054Y4216630D01*
G01X-4241995Y4210943D01*
G01X-4240316Y4205433D01*
G01X-4238088Y4200799D01*
G01X-4282158Y4208401D01*
G01X-4280199Y4210270D01*
G01X-4278466Y4212537D01*
G01X-4275722Y4217901D01*
G01X-4274012Y4223766D01*
G01X-4273423Y4229401D01*
G37*
G36*
G01X-3469115Y4951916D02*
G01X-3490329Y4930703D01*
G01X-3494470Y4934065D01*
G01X-3499658Y4937085D01*
G01X-3505194Y4939326D01*
G01X-3510383Y4940348D01*
G01X-3478760Y4971970D01*
G01X-3477738Y4966782D01*
G01X-3475498Y4961246D01*
G01X-3472477Y4956058D01*
G01X-3469115Y4951916D01*
G37*
G36*
G01X-3477813Y4654297D02*
G01X-3447813Y4654297D01*
G01X-3447261Y4648991D01*
G01X-3445729Y4643187D01*
G01X-3443398Y4637688D01*
G01X-3440452Y4633297D01*
G01X-3485173Y4633297D01*
G01X-3482227Y4637688D01*
G01X-3479897Y4643187D01*
G01X-3478364Y4648991D01*
G01X-3477813Y4654297D01*
G37*
G36*
G01X-4423641Y3235076D02*
G01X-4402428Y3213863D01*
G01X-4405789Y3209721D01*
G01X-4408810Y3204534D01*
G01X-4411050Y3198997D01*
G01X-4412072Y3193809D01*
G01X-4443695Y3225432D01*
G01X-4438507Y3226454D01*
G01X-4432970Y3228694D01*
G01X-4427782Y3231714D01*
G01X-4423641Y3235076D01*
G37*
G36*
G01X-4330124Y4276493D02*
G01X-4360124Y4276493D01*
G01X-4360676Y4281799D01*
G01X-4362208Y4287603D01*
G01X-4364539Y4293102D01*
G01X-4367485Y4297493D01*
G01X-4322764Y4297493D01*
G01X-4325709Y4293102D01*
G01X-4328040Y4287603D01*
G01X-4329573Y4281799D01*
G01X-4330124Y4276493D01*
G37*
G36*
G01X-5036400Y8287766D02*
G01X-5071755Y8252411D01*
G01X-5076582Y8256933D01*
G01X-5081402Y8260953D01*
G01X-5090351Y8267470D01*
G01X-5097249Y8271938D01*
G01X-5100747Y8274331D01*
G01X-5058320Y8316757D01*
G01X-5055928Y8313260D01*
G01X-5051460Y8306361D01*
G01X-5044942Y8297413D01*
G01X-5040923Y8292592D01*
G01X-5036400Y8287766D01*
G37*
G36*
G01X-2982956Y6293985D02*
G01X-3011240Y6322270D01*
G01X-3006514Y6326300D01*
G01X-3002407Y6329526D01*
G01X-3000743Y6331245D01*
G01X-2999422Y6333253D01*
G01X-2998507Y6335713D01*
G01X-2998060Y6338788D01*
G01X-2966437Y6307165D01*
G01X-2969512Y6306719D01*
G01X-2971972Y6305803D01*
G01X-2973980Y6304482D01*
G01X-2975699Y6302818D01*
G01X-2978925Y6298712D01*
G01X-2982956Y6293985D01*
G37*
G36*
G01X-2988106Y6378119D02*
G01X-2948106Y6378119D01*
G01X-2948598Y6371927D01*
G01X-2949221Y6366742D01*
G01X-2949182Y6364350D01*
G01X-2948697Y6361996D01*
G01X-2947604Y6359609D01*
G01X-2945746Y6357119D01*
G01X-2990467Y6357119D01*
G01X-2988608Y6359609D01*
G01X-2987516Y6361996D01*
G01X-2987030Y6364350D01*
G01X-2986992Y6366742D01*
G01X-2987614Y6371927D01*
G01X-2988106Y6378119D01*
G37*
G36*
G01X-2906455Y6849893D02*
G01X-2934739Y6878177D01*
G01X-2930013Y6882207D01*
G01X-2925906Y6885433D01*
G01X-2924242Y6887152D01*
G01X-2922921Y6889160D01*
G01X-2922006Y6891620D01*
G01X-2921559Y6894695D01*
G01X-2889936Y6863073D01*
G01X-2893011Y6862626D01*
G01X-2895471Y6861711D01*
G01X-2897479Y6860390D01*
G01X-2899198Y6858725D01*
G01X-2902424Y6854619D01*
G01X-2906455Y6849893D01*
G37*
G36*
G01X-6194565Y3969054D02*
G01X-6215778Y3990267D01*
G01X-6212416Y3994409D01*
G01X-6209396Y3999597D01*
G01X-6207155Y4005133D01*
G01X-6206133Y4010321D01*
G01X-6174511Y3978698D01*
G01X-6179699Y3977677D01*
G01X-6185235Y3975436D01*
G01X-6190423Y3972416D01*
G01X-6194565Y3969054D01*
G37*
G36*
G01X-6544693Y3661352D02*
G01X-6509315Y3654303D01*
G01X-6514117Y3648762D01*
G01X-6518108Y3642589D01*
G01X-6521152Y3635973D01*
G01X-6523110Y3629106D01*
G01X-6523845Y3622177D01*
G01X-6523220Y3615378D01*
G01X-6522354Y3612087D01*
G01X-6521097Y3608899D01*
G01X-6519431Y3605839D01*
G01X-6517340Y3602931D01*
G01X-6606195Y3607388D01*
G01X-6596430Y3616823D01*
G01X-6588445Y3623952D01*
G01X-6575440Y3634366D01*
G01X-6562437Y3644783D01*
G01X-6554454Y3651914D01*
G01X-6544693Y3661352D01*
G37*
G36*
G01X-4682661Y6651726D02*
G03X-4732661Y6801725I-249999J0D01*
G01X-4657661Y6826725D01*
G01X-4582662Y6801725D01*
G03X-4632662Y6651726I200000J-150000D01*
G01X-4632662Y6651726D01*
G01X-4682661Y6651726D01*
G37*
G36*
G01X-3078010Y4659896D02*
G03X-3198010Y4614896I0J-182500D01*
G01X-3218010Y4674896D01*
G01X-3198010Y4734896D01*
G03X-3078010Y4689896I120000J137500D01*
G01X-3078010Y4659896D01*
G37*
G04 TearDrop End*

G04 Pad Start*
G54D11*
G01X-2489703Y8703550D03*
G01X-2743703Y8703550D03*
G54D12*
G01X-2997703Y8703550D03*
G54D11*
G01X-1444190Y8703550D03*
G01X-1698190Y8703550D03*
G54D12*
G01X-1952190Y8703550D03*
G54D11*
G01X-1444190Y9412459D03*
G01X-1698190Y9412459D03*
G54D12*
G01X-1952190Y9412459D03*
G54D11*
G01X-385574Y8703550D03*
G01X-639574Y8703550D03*
G54D12*
G01X-893574Y8703550D03*
G54D11*
G01X-385574Y9412459D03*
G01X-639574Y9412459D03*
G54D12*
G01X-893574Y9412459D03*
G54D11*
G01X-2489703Y9412459D03*
G01X-2743703Y9412459D03*
G54D12*
G01X-2997703Y9412459D03*
G54D13*
G01X-7642088Y11399383D03*
G54D14*
G01X-7642088Y11999382D03*
G54D16*
G01X-7167082Y12049394D03*
G01X-7167082Y11579393D03*
G01X-8117068Y12049394D03*
G01X-8117068Y11579393D03*
G54D17*
G01X-9150279Y6265533D03*
G01X-9150279Y7469518D03*
G54D18*
G01X-8879287Y6742520D03*
G01X-8879287Y6992532D03*
G01X-8679287Y6992532D03*
G01X-8679287Y6742520D03*
G01X-8840488Y5585491D03*
G01X-8840488Y5335504D03*
G01X-8840488Y5135505D03*
G01X-8840488Y4885493D03*
G54D19*
G01X-9111480Y5892501D03*
G01X-9111480Y4578508D03*
G54D20*
G01X-9507488Y3571876D03*
G01X-9507488Y2706879D03*
G54D21*
G01X-9927503Y3571876D03*
G01X-9927503Y2706879D03*
G54D22*
G01X-2664204Y4522427D03*
G54D23*
G01X-2410204Y4522427D03*
G01X-2156204Y4522427D03*
G01X-1902204Y4522427D03*
G01X-1648204Y4522427D03*
G01X-1394204Y4522427D03*
G01X-1140204Y4522427D03*
G01X-886204Y4522427D03*
G54D22*
G01X-2664204Y3242427D03*
G54D23*
G01X-2410204Y3242427D03*
G01X-2156204Y3242427D03*
G01X-1902204Y3242427D03*
G01X-1648204Y3242427D03*
G01X-1394204Y3242427D03*
G01X-1140204Y3242427D03*
G01X-886204Y3242427D03*
G54D24*
G01X-387473Y3494682D03*
G54D25*
G01X-387473Y3748682D03*
G01X-387473Y4002682D03*
G01X-387473Y4256682D03*
G54D22*
G01X-2664204Y6198627D03*
G54D23*
G01X-2410204Y6198627D03*
G01X-2156204Y6198627D03*
G01X-1902204Y6198627D03*
G01X-1648204Y6198627D03*
G01X-1394204Y6198627D03*
G01X-1140204Y6198627D03*
G01X-886204Y6198627D03*
G54D22*
G01X-2664204Y4918627D03*
G54D23*
G01X-2410204Y4918627D03*
G01X-2156204Y4918627D03*
G01X-1902204Y4918627D03*
G01X-1648204Y4918627D03*
G01X-1394204Y4918627D03*
G01X-1140204Y4918627D03*
G01X-886204Y4918627D03*
G54D24*
G01X-387473Y5196404D03*
G54D25*
G01X-387473Y5450404D03*
G01X-387473Y5704404D03*
G01X-387473Y5958404D03*
G54D22*
G01X-2664204Y7890327D03*
G54D23*
G01X-2410204Y7890327D03*
G01X-2156204Y7890327D03*
G01X-1902204Y7890327D03*
G01X-1648204Y7890327D03*
G01X-1394204Y7890327D03*
G01X-1140204Y7890327D03*
G01X-886204Y7890327D03*
G54D22*
G01X-2664204Y6610327D03*
G54D23*
G01X-2410204Y6610327D03*
G01X-2156204Y6610327D03*
G01X-1902204Y6610327D03*
G01X-1648204Y6610327D03*
G01X-1394204Y6610327D03*
G01X-1140204Y6610327D03*
G01X-886204Y6610327D03*
G54D24*
G01X-249771Y6898126D03*
G54D25*
G01X-249771Y7152126D03*
G01X-249771Y7406126D03*
G01X-249771Y7660126D03*
G54D26*
G01X-4493026Y6386615D03*
G54D27*
G01X-4493026Y6132615D03*
G01X-4493026Y5878615D03*
G01X-4493026Y5624615D03*
G54D22*
G01X-2664204Y2846227D03*
G54D23*
G01X-2410204Y2846227D03*
G01X-2156204Y2846227D03*
G01X-1902204Y2846227D03*
G01X-1648204Y2846227D03*
G01X-1394204Y2846227D03*
G01X-1140204Y2846227D03*
G01X-886204Y2846227D03*
G54D22*
G01X-2664204Y1550727D03*
G54D23*
G01X-2410204Y1550727D03*
G01X-2156204Y1550727D03*
G01X-1902204Y1550727D03*
G01X-1648204Y1550727D03*
G01X-1394204Y1550727D03*
G01X-1140204Y1550727D03*
G01X-886204Y1550727D03*
G54D24*
G01X-387473Y1792960D03*
G54D25*
G01X-387473Y2046960D03*
G01X-387473Y2300960D03*
G01X-387473Y2554960D03*
G54D28*
G01X-6244844Y11926791D03*
G01X-6494856Y11926791D03*
G01X-5393133Y11926791D03*
G01X-5643145Y11926791D03*
G54D29*
G01X-7930471Y1466054D03*
G54D30*
G01X-7930471Y1212054D03*
G54D31*
G01X-9394189Y9610358D03*
G01X-9394189Y9102358D03*
G01X-9394189Y10778273D03*
G01X-9394189Y10270273D03*
G54D32*
G01X-9450290Y7924243D03*
G01X-9450290Y8178370D03*
G01X-9450290Y8432243D03*
G54D33*
G01X-4192122Y1630260D03*
G54D34*
G01X-4192122Y1884260D03*
G54D35*
G01X-7058952Y1063651D03*
G01X-6098954Y1063651D03*
G01X-6578953Y1063651D03*
G54D36*
G01X-5120737Y774052D03*
G01X-5120737Y1394050D03*
G54D37*
G01X-4650725Y1094051D03*
G54D38*
G01X-4967834Y6408520D03*
G54D34*
G01X-5221834Y6408520D03*
G54D39*
G01X-9600000Y12000000D03*
G01X-600000Y12000000D03*
G01X-600000Y600000D03*
G01X-9600000Y600000D03*
G04 Pad End*

G04 Via Start*
G54D40*
G01X-8394577Y8428146D03*
G01X-6109747Y4480695D03*
G01X-6155648Y4291992D03*
G01X-8445577Y5235505D03*
G01X-6227049Y7770237D03*
G01X-8557779Y4067590D03*
G01X-7155261Y8672949D03*
G01X-5681341Y7800838D03*
G01X-7196061Y6275207D03*
G01X-6170948Y6066815D03*
G01X-6028146Y5663910D03*
G01X-5844544Y5475208D03*
G01X-5523239Y4286892D03*
G01X-6354550Y8040541D03*
G01X-6017946Y7800838D03*
G01X-6711555Y7933440D03*
G01X-8200774Y8290444D03*
G01X-8200774Y8581148D03*
G01X-8231374Y7617235D03*
G01X-5156035Y6112716D03*
G01X-7338863Y6556422D03*
G01X-6956358Y6556422D03*
G01X-6186248Y6689023D03*
G01X-6130147Y6780825D03*
G01X-4748029Y4200191D03*
G01X-4676628Y4138990D03*
G01X-4972432Y6826725D03*
G01X-3269010Y6826725D03*
G01X-4375725Y5357906D03*
G01X-3809617Y5424207D03*
G01X-3809617Y5760811D03*
G01X-3881018Y6821625D03*
G01X-4467526Y6822790D03*
G01X-5839443Y6770625D03*
G01X-5518139Y4154291D03*
G01X-6349450Y4154291D03*
G01X-5941445Y4281792D03*
G01X-6629954Y4225692D03*
G01X-6390251Y4072690D03*
G01X-5411038Y4138990D03*
G01X-7787669Y3470882D03*
G01X-7190961Y3588183D03*
G01X-7787669Y3618784D03*
G01X-7165461Y3832986D03*
G01X-5779837Y4337893D03*
G01X-4844931Y5750611D03*
G01X-4818529Y5511843D03*
G01X-5890444Y4842800D03*
G01X-6359650Y4424594D03*
G01X-8476178Y5041702D03*
G01X-8481278Y5424207D03*
G01X-8251775Y5455182D03*
G01X-8363976Y5031502D03*
G01X-6140347Y3741185D03*
G01X-5946545Y3725885D03*
G01X-5594640Y3781986D03*
G01X-5293736Y3705485D03*
G01X-4487926Y3960488D03*
G01X-4431825Y4858100D03*
G01X-4600127Y3996189D03*
G01X-5059133Y3940088D03*
G01X-4880631Y2410068D03*
G01X-6267849Y2308067D03*
G01X-9276888Y3220979D03*
G01X-9276888Y3108777D03*
G01X-9154486Y2899360D03*
G01X-9179987Y3384181D03*
G01X-8715881Y2955775D03*
G01X-7231762Y2267266D03*
G01X-6053646Y2221366D03*
G01X-2835505Y3883987D03*
G01X-2871205Y3659584D03*
G01X-3014007Y4409294D03*
G01X-3014007Y4123690D03*
G01X-5395738Y6933827D03*
G01X-5395738Y6699224D03*
G01X-5196835Y5934214D03*
G01X-4972432Y5378306D03*
G01X-4610328Y5352806D03*
G01X-3926919Y5189604D03*
G01X-3218010Y5344507D03*
G01X-3350611Y7984440D03*
G01X-3967719Y8020141D03*
G01X-4574627Y8045641D03*
G01X-7802969Y8621948D03*
G01X-5334537Y7851839D03*
G01X-7902420Y10292220D03*
G01X-6476952Y10672175D03*
G01X-4814330Y4684698D03*
G01X-5043833Y4914200D03*
G01X-5166235Y5036602D03*
G01X-5722142Y5036602D03*
G01X-4258423Y4332793D03*
G01X-4263523Y4184891D03*
G01X-3508713Y4970301D03*
G01X-3462813Y4613297D03*
G01X-4442025Y3195478D03*
G01X-4345124Y4317493D03*
G01X-5580739Y4955001D03*
G01X-5870044Y3394381D03*
G01X-5966945Y3317880D03*
G01X-6048546Y3251579D03*
G01X-5079534Y8295544D03*
G01X-2968106Y6337119D03*
G01X-2891605Y6893026D03*
G01X-4085153Y4707361D03*
G01X-4562291Y4234969D03*
G01X-4559459Y4151454D03*
G01X-5462171Y5676373D03*
G01X-5640673Y5814075D03*
G01X-4992965Y5630473D03*
G01X-5411170Y5559072D03*
G01X-5696774Y5926277D03*
G01X-5602337Y5097803D03*
G01X-5518271Y5268368D03*
G01X-5824275Y4727761D03*
G01X-5788575Y4600260D03*
G01X-5961977Y4452358D03*
G01X-5518271Y3819949D03*
G01X-5533572Y3911751D03*
G01X-5406070Y3916851D03*
G01X-5181667Y3814849D03*
G01X-5278568Y3896450D03*
G01X-5100066Y4222855D03*
G01X-5186767Y4202454D03*
G01X-4952164Y4401357D03*
G01X-5120466Y4120853D03*
G01X-5232162Y4057389D03*
G01X-3289543Y6543385D03*
G01X-3315043Y6385283D03*
G01X-3325243Y6201680D03*
G01X-4508458Y6609686D03*
G01X-4411557Y6609686D03*
G01X-4294256Y6594385D03*
G01X-4732861Y7063591D03*
G01X-4845063Y7099292D03*
G01X-4131053Y7109492D03*
G01X-3457845Y7053391D03*
G01X-5038865Y7996903D03*
G01X-5691674Y8338608D03*
G01X-5508071Y8338608D03*
G01X-5589672Y7512397D03*
G01X-5564172Y7415496D03*
G01X-5865076Y7690900D03*
G01X-5722274Y7384896D03*
G01X-5594772Y7323695D03*
G01X-5717174Y7277794D03*
G01X-5569272Y7242094D03*
G01X-5543772Y7053391D03*
G01X-5594772Y6987090D03*
G01X-5696774Y7068691D03*
G01X-7915302Y7996903D03*
G01X-8068172Y8011753D03*
G01X-9424922Y7165593D03*
G01X-9349533Y6928727D03*
G01X-9149518Y6721887D03*
G01X-6176180Y4008652D03*
G54D34*
G01X-6563785Y3564946D03*
G54D40*
G01X-4880638Y4541889D03*
G01X-5089866Y5247968D03*
G01X-5497871Y6278181D03*
G01X-5635573Y6257781D03*
G01X-4268755Y6293481D03*
G01X-8328408Y4125953D03*
G01X-8369208Y3789349D03*
G01X-8430409Y4192254D03*
G01X-8180506Y4355456D03*
G01X-8313108Y4365656D03*
G01X-7991803Y4069853D03*
G01X-7568498Y3927051D03*
G01X-8690512Y3697548D03*
G01X-8455909Y3789349D03*
G01X-7864302Y3315043D03*
G01X-7879602Y3151841D03*
G01X-8007104Y4870563D03*
G01X-8058104Y4809362D03*
G01X-8098905Y4712461D03*
G01X-7400196Y4875663D03*
G01X-7267594Y4860363D03*
G01X-7150293Y4743061D03*
G01X-7558298Y6431183D03*
G01X-6869789Y7440996D03*
G01X-6788188Y7298194D03*
G01X-6874889Y7191093D03*
G01X-6630086Y7236994D03*
G01X-7165593Y7787801D03*
G01X-7318595Y7512397D03*
G01X-7349195Y7420596D03*
G01X-7359395Y7293094D03*
G01X-8175406Y7986703D03*
G01X-7339467Y10007671D03*
G01X-7339467Y9891826D03*
G01X-7234388Y10007671D03*
G01X-7234388Y9891826D03*
G01X-7119205Y9891826D03*
G01X-7119205Y10007671D03*
G01X-7007962Y10012771D03*
G01X-7007962Y9896926D03*
G01X-6902883Y10012771D03*
G01X-6902883Y9896926D03*
G01X-6787700Y9896926D03*
G01X-6787700Y10012771D03*
G01X-6686658Y10017871D03*
G01X-6686658Y9902026D03*
G01X-6581579Y10017871D03*
G01X-6581579Y9902026D03*
G01X-6466396Y9902026D03*
G01X-6466396Y10017871D03*
G01X-7324166Y9767968D03*
G01X-7324166Y9652123D03*
G01X-7219087Y9767968D03*
G01X-7219087Y9652123D03*
G01X-7103905Y9652123D03*
G01X-7103905Y9767968D03*
G01X-6992662Y9767968D03*
G01X-6992662Y9652123D03*
G01X-6887583Y9767968D03*
G01X-6887583Y9652123D03*
G01X-6772400Y9652123D03*
G01X-6772400Y9767968D03*
G01X-6676458Y9767968D03*
G01X-6676458Y9652123D03*
G01X-6571379Y9767968D03*
G01X-6571379Y9652123D03*
G01X-6456196Y9652123D03*
G01X-6456196Y9767968D03*
G01X-7319066Y9543565D03*
G01X-7319066Y9427720D03*
G01X-7213987Y9543565D03*
G01X-7213987Y9427720D03*
G01X-7098804Y9427720D03*
G01X-7098804Y9543565D03*
G01X-6992662Y9553765D03*
G01X-6992662Y9437920D03*
G01X-6887583Y9553765D03*
G01X-6887583Y9437920D03*
G01X-6772400Y9437920D03*
G01X-6772400Y9553765D03*
G01X-6681558Y9543565D03*
G01X-6681558Y9427720D03*
G01X-6576479Y9543565D03*
G01X-6576479Y9427720D03*
G01X-6461296Y9427720D03*
G01X-6461296Y9543565D03*
G01X-7303766Y9329362D03*
G01X-7303766Y9213518D03*
G01X-7198687Y9329362D03*
G01X-7198687Y9213518D03*
G01X-7083504Y9213518D03*
G01X-7083504Y9329362D03*
G01X-6977362Y9334462D03*
G01X-6977362Y9218618D03*
G01X-6872283Y9334462D03*
G01X-6872283Y9218618D03*
G01X-6757100Y9218618D03*
G01X-6757100Y9334462D03*
G01X-6620357Y9329362D03*
G01X-6620357Y9213518D03*
G01X-6515278Y9329362D03*
G01X-6515278Y9213518D03*
G01X-6400095Y9213518D03*
G01X-6400095Y9329362D03*
G01X-5845147Y9864869D03*
G01X-5845147Y9749024D03*
G01X-5740068Y9864869D03*
G01X-5740068Y9749024D03*
G01X-5624885Y9749024D03*
G01X-5624885Y9864869D03*
G01X-5901248Y9584365D03*
G01X-5901248Y9468521D03*
G01X-5796169Y9584365D03*
G01X-5796169Y9468521D03*
G01X-5680986Y9468521D03*
G01X-5680986Y9584365D03*
G01X-5432042Y10680879D03*
G01X-5432042Y10565035D03*
G01X-5326963Y10680879D03*
G01X-5326963Y10565035D03*
G01X-5211780Y10565035D03*
G01X-5211780Y10680879D03*
G01X-3672519Y10232074D03*
G01X-3672519Y10116229D03*
G01X-3567440Y10232074D03*
G01X-3567440Y10116229D03*
G01X-3452257Y10116229D03*
G01X-3452257Y10232074D03*
G01X-3703120Y9956670D03*
G01X-3703120Y9840826D03*
G01X-3598041Y9956670D03*
G01X-3598041Y9840826D03*
G01X-3482858Y9840826D03*
G01X-3482858Y9956670D03*
G01X-3667419Y9553765D03*
G01X-3667419Y9437920D03*
G01X-3562340Y9553765D03*
G01X-3562340Y9437920D03*
G01X-3447157Y9437920D03*
G01X-3447157Y9553765D03*
G01X-3636819Y9268161D03*
G01X-3636819Y9152317D03*
G01X-3531740Y9268161D03*
G01X-3531740Y9152317D03*
G01X-3416557Y9152317D03*
G01X-3416557Y9268161D03*
G01X-3616418Y9013158D03*
G01X-3616418Y8897313D03*
G01X-3511339Y9013158D03*
G01X-3511339Y8897313D03*
G01X-3396157Y8897313D03*
G01X-3396157Y9013158D03*
G01X-3769420Y8788755D03*
G01X-3769420Y8672911D03*
G01X-3664341Y8788755D03*
G01X-3664341Y8672911D03*
G01X-3549159Y8672911D03*
G01X-3549159Y8788755D03*
G01X-4131525Y8676553D03*
G01X-4131525Y8560709D03*
G01X-4026446Y8676553D03*
G01X-4026446Y8560709D03*
G01X-3911263Y8560709D03*
G01X-3911263Y8676553D03*
G01X-4065224Y9941370D03*
G01X-4065224Y9825525D03*
G01X-3960145Y9941370D03*
G01X-3960145Y9825525D03*
G01X-3844962Y9825525D03*
G01X-3844962Y9941370D03*
G01X-4065224Y10645179D03*
G01X-4065224Y10529335D03*
G01X-3960145Y10645179D03*
G01X-3960145Y10529335D03*
G01X-3844962Y10529335D03*
G01X-3844962Y10645179D03*
G01X-4085625Y10165773D03*
G01X-4085625Y10049928D03*
G01X-3980546Y10165773D03*
G01X-3980546Y10049928D03*
G01X-3865363Y10049928D03*
G01X-3865363Y10165773D03*
G01X-4299827Y12318001D03*
G01X-4299827Y12202156D03*
G01X-4194748Y12318001D03*
G01X-4194748Y12202156D03*
G01X-4079565Y12202156D03*
G01X-4079565Y12318001D03*
G01X-4371228Y11680492D03*
G01X-4371228Y11564648D03*
G01X-4266149Y11680492D03*
G01X-4266149Y11564648D03*
G01X-4150966Y11564648D03*
G01X-4150966Y11680492D03*
G01X-3611318Y12185399D03*
G01X-3611318Y12069554D03*
G01X-3506239Y12185399D03*
G01X-3506239Y12069554D03*
G01X-3391056Y12069554D03*
G01X-3391056Y12185399D03*
G01X-2887109Y11802894D03*
G01X-2887109Y11687050D03*
G01X-2782030Y11802894D03*
G01X-2782030Y11687050D03*
G01X-2666847Y11687050D03*
G01X-2666847Y11802894D03*
G01X-2065998Y11369388D03*
G01X-2065998Y11253544D03*
G01X-1960919Y11369388D03*
G01X-1960919Y11253544D03*
G01X-1845736Y11253544D03*
G01X-1845736Y11369388D03*
G01X-1306089Y10594178D03*
G01X-1306089Y10478334D03*
G01X-1201010Y10594178D03*
G01X-1201010Y10478334D03*
G01X-1085827Y10478334D03*
G01X-1085827Y10594178D03*
G01X-653280Y10298374D03*
G01X-653280Y10182530D03*
G01X-548201Y10298374D03*
G01X-548201Y10182530D03*
G01X-433018Y10182530D03*
G01X-433018Y10298374D03*
G01X-2764707Y10803281D03*
G01X-2764707Y10687437D03*
G01X-2659628Y10803281D03*
G01X-2659628Y10687437D03*
G01X-2544446Y10687437D03*
G01X-2544446Y10803281D03*
G01X-2453603Y10385075D03*
G01X-2453603Y10269231D03*
G01X-2348524Y10385075D03*
G01X-2348524Y10269231D03*
G01X-2233341Y10269231D03*
G01X-2233341Y10385075D03*
G01X-3687819Y2428973D03*
G01X-3687819Y2313128D03*
G01X-3582740Y2428973D03*
G01X-3582740Y2313128D03*
G01X-3467557Y2313128D03*
G01X-3467557Y2428973D03*
G01X-3437916Y3204183D03*
G01X-3437916Y3088338D03*
G01X-3332837Y3204183D03*
G01X-3332837Y3088338D03*
G01X-3217654Y3088338D03*
G01X-3217654Y3204183D03*
G01X-4167226Y3265383D03*
G01X-4167226Y3149539D03*
G01X-4062147Y3265383D03*
G01X-4062147Y3149539D03*
G01X-3946964Y3149539D03*
G01X-3946964Y3265383D03*
G01X-2540305Y2587075D03*
G01X-2540305Y2471230D03*
G01X-2435226Y2587075D03*
G01X-2435226Y2471230D03*
G01X-2320043Y2471230D03*
G01X-2320043Y2587075D03*
G01X-2739207Y3647888D03*
G01X-2739207Y3532044D03*
G01X-2634128Y3647888D03*
G01X-2634128Y3532044D03*
G01X-2518945Y3532044D03*
G01X-2518945Y3647888D03*
G01X-393177Y6509025D03*
G01X-393177Y6393181D03*
G01X-288098Y6509025D03*
G01X-288098Y6393181D03*
G01X-172915Y6393181D03*
G01X-172915Y6509025D03*
G01X-423777Y4815803D03*
G01X-423777Y4699959D03*
G01X-318698Y4815803D03*
G01X-318698Y4699959D03*
G01X-203515Y4699959D03*
G01X-203515Y4815803D03*
G01X-439077Y3122582D03*
G01X-439077Y3006737D03*
G01X-333998Y3122582D03*
G01X-333998Y3006737D03*
G01X-218815Y3006737D03*
G01X-218815Y3122582D03*
G01X-439077Y1597662D03*
G01X-439077Y1481817D03*
G01X-333998Y1597662D03*
G01X-333998Y1481817D03*
G01X-218815Y1481817D03*
G01X-218815Y1597662D03*
G01X-4243727Y975454D03*
G01X-4243727Y859609D03*
G01X-4138648Y975454D03*
G01X-4138648Y859609D03*
G01X-4023465Y859609D03*
G01X-4023465Y975454D03*
G01X-5105638Y521548D03*
G01X-5105638Y405704D03*
G01X-5000559Y521548D03*
G01X-5000559Y405704D03*
G01X-4885376Y405704D03*
G01X-4885376Y521548D03*
G01X-5656445Y1057055D03*
G01X-5656445Y941210D03*
G01X-5551366Y1057055D03*
G01X-5551366Y941210D03*
G01X-5436183Y941210D03*
G01X-5436183Y1057055D03*
G01X-6696858Y562348D03*
G01X-6696858Y446504D03*
G01X-6591779Y562348D03*
G01X-6591779Y446504D03*
G01X-6476596Y446504D03*
G01X-6476596Y562348D03*
G01X-8053476Y674550D03*
G01X-8053476Y558706D03*
G01X-7948397Y674550D03*
G01X-7948397Y558706D03*
G01X-7833214Y558706D03*
G01X-7833214Y674550D03*
G01X-8675684Y1612962D03*
G01X-8675684Y1497118D03*
G01X-8570605Y1612962D03*
G01X-8570605Y1497118D03*
G01X-8455422Y1497118D03*
G01X-8455422Y1612962D03*
G01X-9037789Y2536074D03*
G01X-9037789Y2420230D03*
G01X-8932710Y2536074D03*
G01X-8932710Y2420230D03*
G01X-8817527Y2420230D03*
G01X-8817527Y2536074D03*
G01X-9399893Y2102568D03*
G01X-9399893Y1986724D03*
G01X-9294814Y2102568D03*
G01X-9294814Y1986724D03*
G01X-9179631Y1986724D03*
G01X-9179631Y2102568D03*
G01X-9976201Y3199083D03*
G01X-9976201Y3083238D03*
G01X-9871122Y3199083D03*
G01X-9871122Y3083238D03*
G01X-9755939Y3083238D03*
G01X-9755939Y3199083D03*
G01X-9960901Y4055894D03*
G01X-9960901Y3940049D03*
G01X-9855822Y4055894D03*
G01X-9855822Y3940049D03*
G01X-9740639Y3940049D03*
G01X-9740639Y4055894D03*
G01X-9751798Y4979006D03*
G01X-9751798Y4863161D03*
G01X-9646719Y4979006D03*
G01X-9646719Y4863161D03*
G01X-9531536Y4863161D03*
G01X-9531536Y4979006D03*
G01X-9781390Y5590593D03*
G01X-9781390Y5474749D03*
G01X-9676311Y5590593D03*
G01X-9676311Y5474749D03*
G01X-9561128Y5474749D03*
G01X-9561128Y5590593D03*
G01X-9450894Y5274809D03*
G01X-9450894Y5158965D03*
G01X-9345815Y5274809D03*
G01X-9345815Y5158965D03*
G01X-9230632Y5158965D03*
G01X-9230632Y5274809D03*
G01X-9736498Y6753829D03*
G01X-9736498Y6637984D03*
G01X-9631419Y6753829D03*
G01X-9631419Y6637984D03*
G01X-9516236Y6637984D03*
G01X-9516236Y6753829D03*
G01X-9945600Y8181847D03*
G01X-9945600Y8066003D03*
G01X-9840521Y8181847D03*
G01X-9840521Y8066003D03*
G01X-9725338Y8066003D03*
G01X-9725338Y8181847D03*
G01X-9863999Y9497664D03*
G01X-9863999Y9381820D03*
G01X-9758920Y9497664D03*
G01X-9758920Y9381820D03*
G01X-9643737Y9381820D03*
G01X-9643737Y9497664D03*
G01X-9848699Y10604378D03*
G01X-9848699Y10488534D03*
G01X-9743620Y10604378D03*
G01X-9743620Y10488534D03*
G01X-9628437Y10488534D03*
G01X-9628437Y10604378D03*
G01X-8920487Y11165386D03*
G01X-8920487Y11049541D03*
G01X-8815408Y11165386D03*
G01X-8815408Y11049541D03*
G01X-8700225Y11049541D03*
G01X-8700225Y11165386D03*
G01X-8435981Y11252087D03*
G01X-8435981Y11136242D03*
G01X-8330902Y11252087D03*
G01X-8330902Y11136242D03*
G01X-8215719Y11136242D03*
G01X-8215719Y11252087D03*
G01X-6926361Y12292500D03*
G01X-6926361Y12176656D03*
G01X-6821282Y12292500D03*
G01X-6821282Y12176656D03*
G01X-6706099Y12176656D03*
G01X-6706099Y12292500D03*
G01X-7732172Y11782494D03*
G01X-7732172Y11666649D03*
G01X-7627093Y11782494D03*
G01X-7627093Y11666649D03*
G01X-7511910Y11666649D03*
G01X-7511910Y11782494D03*
G01X-6426555Y11201086D03*
G01X-6426555Y11085242D03*
G01X-6321476Y11201086D03*
G01X-6321476Y11085242D03*
G01X-6206293Y11085242D03*
G01X-6206293Y11201086D03*
G01X-8053476Y11032784D03*
G01X-8053476Y10916940D03*
G01X-7948397Y11032784D03*
G01X-7948397Y10916940D03*
G01X-7833214Y10916940D03*
G01X-7833214Y11032784D03*
G01X-5707206Y9015977D03*
G01X-5707206Y8900133D03*
G01X-5602127Y9015977D03*
G01X-5602127Y8900133D03*
G01X-5486944Y8900133D03*
G01X-5486944Y9015977D03*
G01X-5636045Y8543952D03*
G01X-5636045Y8428107D03*
G01X-5530966Y8543952D03*
G01X-5530966Y8428107D03*
G01X-5415783Y8428107D03*
G01X-5415783Y8543952D03*
G01X-6044050Y8798955D03*
G01X-6044050Y8683111D03*
G01X-5938971Y8798955D03*
G01X-5938971Y8683111D03*
G01X-5823788Y8683111D03*
G01X-5823788Y8798955D03*
G01X-8833638Y6150061D03*
G01X-8833638Y6034217D03*
G01X-8728559Y6150061D03*
G01X-8728559Y6034217D03*
G01X-8613376Y6034217D03*
G01X-8613376Y6150061D03*
G01X-8583883Y6478425D03*
G01X-8583883Y6362581D03*
G01X-8478804Y6478425D03*
G01X-8478804Y6362581D03*
G01X-8363621Y6362581D03*
G01X-8363621Y6478425D03*
G01X-5660861Y6698167D03*
G01X-5523944Y6705083D03*
G01X-5717174Y6298582D03*
G01X-5706974Y6222081D03*
G01X-6517884Y6538285D03*
G01X-6293481Y6517884D03*
G01X-5956877Y3508845D03*
G01X-6283281Y3570046D03*
G01X-6563785Y3757416D03*
G01X-6538285Y3865850D03*
G01X-4929120Y3637590D03*
G01X-4535039Y3637590D03*
G04 Via End*

G04 Track Start*
G54D23*
G01X-8679287Y6742520D02*
G01X-8494082Y6742520D01*
G01X-8394577Y6842025D01*
G01X-8394577Y8428146D01*
G54D40*
G01X-8840488Y5585491D02*
G01X-7869557Y6556422D01*
G01X-8840488Y5585491D02*
G01X-8749663Y5585491D01*
G01X-8629180Y5465008D01*
G54D41*
G01X-7196061Y6275207D02*
G01X-6379340Y6275207D01*
G01X-6170948Y6066815D01*
G01X-6028146Y5663910D02*
G01X-5844544Y5480308D01*
G01X-5844544Y5475208D01*
G54D42*
G01X-8200774Y8290444D02*
G01X-8200774Y8581148D01*
G54D43*
G01X-8231374Y7617235D02*
G01X-7012459Y6398320D01*
G01X-6267849Y6398320D01*
G01X-5982245Y6112716D01*
G01X-5156035Y6112716D01*
G54D40*
G01X-6956358Y6556422D02*
G01X-6227049Y7285731D01*
G01X-7869557Y6556422D02*
G01X-7338863Y6556422D01*
G01X-6227049Y7285731D02*
G01X-6227049Y7770237D01*
G54D42*
G01X-6272949Y7933440D02*
G01X-6711555Y7933440D01*
G54D41*
G01X-6186248Y6689023D02*
G01X-5905744Y6408520D01*
G01X-5221834Y6408520D01*
G54D42*
G01X-4748029Y4200191D02*
G01X-4748029Y5934715D01*
G01X-5221834Y6408520D01*
G01X-4967834Y6408520D02*
G01X-4967834Y6286620D01*
G01X-4676628Y5995414D01*
G01X-4676628Y4138990D01*
G01X-4375725Y5357906D02*
G01X-3875918Y5357906D01*
G01X-3809617Y5424207D01*
G01X-3809617Y5760811D02*
G01X-3809617Y5424207D01*
G54D43*
G01X-4493026Y6132615D02*
G01X-4657662Y6297250D01*
G01X-4657662Y6826725D01*
G01X-4972432Y6826725D01*
G54D41*
G01X-6130147Y6780825D02*
G01X-5961845Y6612522D01*
G01X-5171836Y6612522D01*
G01X-4967834Y6408520D01*
G54D42*
G01X-5839443Y6770625D02*
G01X-5839443Y7499934D01*
G01X-6272949Y7933440D01*
G01X-5518139Y4154291D02*
G01X-6349450Y4154291D01*
G01X-6109747Y4480695D02*
G01X-6109747Y4337893D01*
G01X-6155648Y4291992D01*
G01X-6629954Y4225692D02*
G01X-5997546Y4225692D01*
G01X-5941445Y4281792D01*
G01X-6390251Y4072690D02*
G01X-5477339Y4072690D01*
G01X-5411038Y4138990D01*
G01X-7787669Y3470882D02*
G01X-7308262Y3470882D01*
G01X-7190961Y3588183D01*
G01X-7787669Y3618784D02*
G01X-7573466Y3832986D01*
G01X-7165461Y3832986D01*
G54D43*
G01X-5890444Y4842800D02*
G01X-5941445Y4842800D01*
G01X-6359650Y4424594D01*
G54D42*
G01X-6140347Y3741185D02*
G01X-5961845Y3741185D01*
G01X-5946545Y3725885D01*
G01X-4487926Y3960488D02*
G01X-4431825Y4016589D01*
G01X-4431825Y4858100D01*
G01X-5059133Y3940088D02*
G01X-5059133Y3475982D01*
G01X-4880631Y3297480D01*
G01X-4880631Y2410068D01*
G54D41*
G01X-6359650Y4424594D02*
G01X-6594253Y4424594D01*
G01X-6731955Y4286892D01*
G01X-6731955Y2772173D01*
G01X-6267849Y2308067D01*
G54D42*
G01X-9276888Y3220979D02*
G01X-9276888Y3108777D01*
G54D43*
G01X-9154486Y2899360D02*
G01X-9154486Y3358680D01*
G01X-9179987Y3384181D01*
G54D40*
G01X-8629180Y5465008D02*
G01X-8629180Y4138990D01*
G01X-8557779Y4067590D01*
G54D42*
G01X-8557779Y4067590D02*
G01X-8557779Y2257066D01*
G01X-8450677Y2149965D01*
G01X-7349063Y2149965D01*
G01X-7231762Y2267266D01*
G01X-7185861Y2221366D01*
G01X-6053646Y2221366D01*
G54D41*
G01X-2835505Y3883987D02*
G01X-2835505Y3695285D01*
G01X-2871205Y3659584D01*
G01X-3014007Y4409294D02*
G01X-3014007Y4123690D01*
G54D42*
G01X-6354550Y8040541D02*
G01X-6257649Y8040541D01*
G01X-6017946Y7800838D01*
G54D40*
G01X-7155261Y8672949D02*
G01X-6553453Y8672949D01*
G01X-5681341Y7800838D01*
G54D41*
G01X-5395738Y6933827D02*
G01X-5395738Y6699224D01*
G01X-5196835Y5934214D02*
G01X-5196835Y5602709D01*
G01X-4972432Y5378306D01*
G54D42*
G01X-5779837Y4337893D02*
G01X-4890831Y5226899D01*
G01X-4890831Y5704711D01*
G01X-4844931Y5750611D01*
G01X-5523239Y4530568D02*
G01X-5523239Y4286892D01*
G01X-4818529Y5511843D02*
G01X-4818529Y5235278D01*
G01X-5523239Y4530568D01*
G54D41*
G01X-4610328Y5352806D02*
G01X-4447125Y5189604D01*
G01X-3926919Y5189604D01*
G01X-3350611Y7984440D02*
G01X-3202709Y8132342D01*
G01X-1439782Y8132342D02*
G01X-893574Y8678549D01*
G01X-893574Y8703550D01*
G01X-3202709Y8132342D02*
G01X-1439782Y8132342D01*
G01X-893574Y9412459D02*
G01X-893574Y8703550D01*
G01X-1952190Y8703550D02*
G01X-1952190Y8673952D01*
G01X-2407099Y8219043D01*
G01X-3768817Y8219043D01*
G01X-3967719Y8020141D01*
G01X-1952190Y9412459D02*
G01X-1952190Y8703550D01*
G01X-2997703Y9412459D02*
G01X-2997703Y8703550D01*
G01X-2997703Y8500550D01*
G01X-3202709Y8295544D01*
G01X-4324724Y8295544D01*
G01X-4574627Y8045641D01*
G01X-2489703Y8703550D02*
G01X-2489703Y9412459D01*
G01X-1444190Y9412459D02*
G01X-1444190Y8703550D01*
G01X-385574Y9412459D02*
G01X-385574Y8703550D01*
G01X-385574Y9412459D02*
G01X-385574Y9437459D01*
G01X-595177Y9647062D01*
G01X-1234587Y9647062D02*
G01X-1444190Y9437459D01*
G01X-1444190Y9412459D01*
G01X-595177Y9647062D02*
G01X-1234587Y9647062D01*
G54D40*
G01X-9394189Y9102358D02*
G01X-8283378Y9102358D01*
G01X-7802969Y8621948D01*
G54D41*
G01X-7802969Y8621948D02*
G01X-7379663Y8198643D01*
G01X-5472239Y7714137D02*
G01X-5334537Y7851839D01*
G01X-7379663Y8198643D02*
G01X-6242349Y8198643D01*
G01X-5757842Y7714137D01*
G01X-5472239Y7714137D01*
G01X-7902420Y10292220D02*
G01X-6856907Y10292220D01*
G01X-6476952Y10672175D01*
G54D42*
G01X-4814330Y4684698D02*
G01X-5043833Y4914200D01*
G01X-5166235Y5036602D02*
G01X-5722142Y5036602D01*
G01X-4258423Y4332793D02*
G01X-4258423Y4189991D01*
G01X-4263523Y4184891D01*
G01X-3508713Y4970301D02*
G01X-3462813Y4924401D01*
G01X-3462813Y4613297D01*
G01X-4442025Y3195478D02*
G01X-4345124Y3292379D01*
G01X-4345124Y4317493D01*
G54D43*
G01X-3269010Y6826725D02*
G01X-4657662Y6826725D01*
G01X-2410204Y6610327D02*
G01X-2410204Y7074634D01*
G01X-4574627Y7790638D02*
G01X-5079534Y8295544D01*
G01X-3126208Y7790638D02*
G01X-4574627Y7790638D01*
G01X-1648204Y7890327D02*
G01X-2436194Y7102338D01*
G01X-2437908Y7102338D01*
G01X-2410204Y7074634D02*
G01X-2437908Y7102338D01*
G01X-3126208Y7790638D01*
G01X-2410204Y6610327D02*
G01X-2228797Y6428920D01*
G01X-1878497Y6428920D02*
G01X-1648204Y6198627D01*
G01X-2228797Y6428920D02*
G01X-1878497Y6428920D01*
G54D34*
G01X-387473Y2554960D02*
G01X-1349295Y2554960D01*
G01X-2156204Y1748051D02*
G01X-2156204Y1550727D01*
G01X-1349295Y2554960D02*
G01X-2156204Y1748051D01*
G01X-1902204Y1550727D02*
G01X-1902204Y1726647D01*
G01X-1327892Y2300960D02*
G01X-387473Y2300960D01*
G01X-1902204Y1726647D02*
G01X-1327892Y2300960D01*
G01X-387473Y2046960D02*
G01X-1311588Y2046960D01*
G01X-1648204Y1710344D02*
G01X-1648204Y1550727D01*
G01X-1311588Y2046960D02*
G01X-1648204Y1710344D01*
G01X-1394204Y1550727D02*
G01X-1394204Y1673640D01*
G01X-1274884Y1792960D02*
G01X-387473Y1792960D01*
G01X-1394204Y1673640D02*
G01X-1274884Y1792960D01*
G01X-387473Y3494682D02*
G01X-1251084Y3494682D01*
G01X-1394204Y3351562D02*
G01X-1394204Y3242427D01*
G01X-1251084Y3494682D02*
G01X-1394204Y3351562D01*
G01X-1648204Y3242427D02*
G01X-1648204Y3398466D01*
G01X-1297988Y3748682D02*
G01X-387473Y3748682D01*
G01X-1648204Y3398466D02*
G01X-1297988Y3748682D01*
G01X-387473Y4002682D02*
G01X-1334692Y4002682D01*
G01X-1902204Y3435169D02*
G01X-1902204Y3242427D01*
G01X-1334692Y4002682D02*
G01X-1902204Y3435169D01*
G01X-387473Y4256682D02*
G01X-1391796Y4256682D01*
G01X-2156204Y3492273D02*
G01X-2156204Y3242427D01*
G01X-1391796Y4256682D02*
G01X-2156204Y3492273D01*
G01X-387473Y5196404D02*
G01X-1242584Y5196404D01*
G01X-1394204Y5044784D02*
G01X-1394204Y4918627D01*
G01X-1242584Y5196404D02*
G01X-1394204Y5044784D01*
G01X-387473Y5450404D02*
G01X-1330288Y5450404D01*
G01X-1648204Y5132488D02*
G01X-1648204Y4918627D01*
G01X-1330288Y5450404D02*
G01X-1648204Y5132488D01*
G01X-387473Y5704404D02*
G01X-1428193Y5704404D01*
G01X-1902204Y5230393D02*
G01X-1902204Y4918627D01*
G01X-1428193Y5704404D02*
G01X-1902204Y5230393D01*
G01X-387473Y5958404D02*
G01X-420162Y5925715D01*
G01X-1507786Y5925715D01*
G01X-2156204Y5277297D02*
G01X-2156204Y4918627D01*
G01X-1507786Y5925715D02*
G01X-2156204Y5277297D01*
G01X-249771Y6898126D02*
G01X-1228984Y6898126D01*
G01X-1394204Y6732906D02*
G01X-1394204Y6610327D01*
G01X-1228984Y6898126D02*
G01X-1394204Y6732906D01*
G01X-249771Y7152126D02*
G01X-1352389Y7152126D01*
G01X-1648204Y6856310D02*
G01X-1648204Y6610327D01*
G01X-1352389Y7152126D02*
G01X-1648204Y6856310D01*
G01X-249771Y7406126D02*
G01X-1445193Y7406126D01*
G01X-1902204Y6949115D02*
G01X-1902204Y6610327D01*
G01X-1445193Y7406126D02*
G01X-1902204Y6949115D01*
G01X-249771Y7660126D02*
G01X-1532898Y7660126D01*
G01X-2156204Y7036819D02*
G01X-2156204Y6610327D01*
G01X-1532898Y7660126D02*
G01X-2156204Y7036819D01*
G54D41*
G01X-2968106Y6337119D02*
G01X-3218010Y6087216D01*
G01X-3218010Y5344507D01*
G01X-2891605Y6893026D02*
G01X-2968106Y6816525D01*
G01X-2968106Y6337119D01*
G01X-886204Y2846227D02*
G01X-1021253Y2981275D01*
G01X-2733503Y2981275D01*
G01X-3218010Y3465782D01*
G54D42*
G01X-886204Y4522427D02*
G01X-1038673Y4674896D01*
G01X-3218010Y4674896D01*
G54D41*
G01X-3218010Y3465782D02*
G01X-3218010Y4674896D01*
G01X-3218010Y5344507D01*
G54D42*
G01X-6176180Y4008652D02*
G01X-6563785Y3621047D01*
G01X-6563785Y3564946D01*
G04 Track End*

M02*

