G04 Layer: CustomLayer1*
G04 EasyEDA Pro v2.2.32.3, 2026-04-25 18:16:38*
G04 Gerber Generator version 0.3*
G04 Scale: 100 percent, Rotated: No, Reflected: No*
G04 Dimensions in millimeters*
G04 Leading zeros omitted, absolute positions, 3 integers and 5 decimals*
%FSLAX35Y35*%
%MOMM*%
%ADD10C,0.15*%
G75*


G04 PolygonModel Start*
G54D10*
G01X-5402635Y10047469D02*
G01X-4970635Y10047469D01*
G01X-5402635Y10307469D02*
G01X-4970635Y10307469D01*
G01X-5402635Y10307469D02*
G01X-5402635Y10047469D01*
G01X-4970635Y10307469D02*
G01X-4970635Y10047469D01*
G01X-4821227Y10812479D02*
G01X-4389227Y10812479D01*
G01X-4821227Y11072478D02*
G01X-4389227Y11072478D01*
G01X-4821227Y11072478D02*
G01X-4821227Y10812479D01*
G01X-4389227Y11072478D02*
G01X-4389227Y10812479D01*
G01X-4811027Y11169483D02*
G01X-4379027Y11169483D01*
G01X-4811027Y11429483D02*
G01X-4379027Y11429483D01*
G01X-4811027Y11429483D02*
G01X-4811027Y11169483D01*
G01X-4379027Y11429483D02*
G01X-4379027Y11169483D01*
G01X-3362613Y5594507D02*
G01X-3362613Y5284508D01*
G01X-3542613Y5594507D02*
G01X-3542613Y5284508D01*
G01X-3362613Y5284508D02*
G01X-3542613Y5284508D01*
G01X-3362613Y5594507D02*
G01X-3542613Y5594507D01*
G01X-3811608Y2943396D02*
G01X-3811608Y2633396D01*
G01X-3991608Y2943396D02*
G01X-3991608Y2633396D01*
G01X-3811608Y2633396D02*
G01X-3991608Y2633396D01*
G01X-3811608Y2943396D02*
G01X-3991608Y2943396D01*
G01X-3683917Y5074301D02*
G01X-3683917Y4764301D01*
G01X-3863917Y5074301D02*
G01X-3863917Y4764301D01*
G01X-3683917Y4764301D02*
G01X-3863917Y4764301D01*
G01X-3683917Y5074301D02*
G01X-3863917Y5074301D01*
G01X-5506142Y11210180D02*
G01X-5938142Y11210180D01*
G01X-5506142Y10950180D02*
G01X-5938142Y10950180D01*
G01X-5506142Y10950180D02*
G01X-5506142Y11210180D01*
G01X-5938142Y10950180D02*
G01X-5938142Y11210180D01*
G01X-5346735Y5891612D02*
G01X-5036735Y5891612D01*
G01X-5346735Y5711612D02*
G01X-5036735Y5711612D01*
G01X-5036735Y5891612D02*
G01X-5036735Y5711612D01*
G01X-5346735Y5891612D02*
G01X-5346735Y5711612D01*

M02*

