G04 Layer: DrillDrawingLayer*
G04 EasyEDA Pro v2.2.32.3, 2026-04-25 18:16:38*
G04 Gerber Generator version 0.3*
G04 Scale: 100 percent, Rotated: No, Reflected: No*
G04 Dimensions in millimeters*
G04 Leading zeros omitted, absolute positions, 3 integers and 5 decimals*
%FSLAX35Y35*%
%MOMM*%
%AMIconRect*4,1,4,0.2,-0.2,-0.2,-0.2,-0.2,0.2,0.2,0.2,0.2,-0.2,0*4,0,4,0.166667,-0.166667,0.166667,0.166667,-0.166667,0.166667,-0.166667,-0.166667,0.166667,-0.166667,0*%
%AMIconTriangle*4,1,3,-0.242567,0.171767,0.242567,0.171767,0,-0.2706,-0.242567,0.171767,0*4,0,3,-0.189767,0.1386,0,-0.1953,0.190167,0.1386,-0.189767,0.1386,0*%
%AMIconStar6*4,1,12,0.0862,0.1492,0.213233,0.123367,0.172367,0,0.213233,-0.1229,0.0862,-0.148733,0,-0.245767,-0.085767,-0.148733,-0.213267,-0.1229,-0.171933,0,-0.213267,0.1229,-0.085767,0.1492,0,0.245767,0.0862,0.1492,0*4,0,12,-0.000333,0.195333,-0.064333,0.122667,-0.169667,0.097667,-0.138333,-0.005333,-0.169667,-0.098,-0.064333,-0.122667,-0.000333,-0.195667,0.064333,-0.122667,0.169667,-0.098,0.138667,0.005,0.169667,0.098,0.064333,0.122333,-0.000333,0.195333,0*%
%AMIconStar4*4,1,8,-0.222667,0.222667,0,0.144667,0.222667,0.222667,0.144667,0,0.222667,-0.222667,0,-0.144667,-0.217433,-0.222667,-0.144667,0,-0.222667,0.222667,0*4,0,8,0.166667,-0.166667,0.108,0,0.166667,0.166667,0,0.108,-0.166667,0.166667,-0.108,0,-0.166667,-0.166667,0,-0.108,0.166667,-0.166667,0*%
%AMIconPlus*4,1,12,0.124,-0.2,-0.124,-0.2,-0.124,-0.124,-0.2,-0.124,-0.2,0.124,-0.124,0.124,-0.124,0.2,0.124,0.2,0.124,0.124,0.2,0.124,0.2,-0.124,0.124,-0.124,0.124,-0.2,0*4,0,12,0.090667,-0.166667,0.090667,-0.090667,0.166667,-0.090667,0.166667,0.090667,0.090667,0.090667,0.090667,0.166667,-0.090667,0.166667,-0.090667,0.090667,-0.166667,0.090667,-0.166667,-0.090667,-0.090667,-0.090667,-0.090667,-0.166667,0.090667,-0.166667,0*%
%AMIconX*4,1,16,0.2,-0.2,0.054533,-0.2,0,-0.145467,-0.054533,-0.2,-0.2,-0.2,-0.2,-0.054533,-0.145467,0,-0.2,0.054533,-0.2,0.2,-0.054533,0.2,0,0.145467,0.054533,0.2,0.2,0.2,0.2,0.054533,0.145467,0,0.2,-0.054533,0.2,-0.2,0*4,0,16,0.1668,-0.1664,0.1668,-0.068467,0.097933,0.000067,0.1668,0.068467,0.1668,0.1665,0.068467,0.1665,0,0.097933,-0.068467,0.1665,-0.1668,0.1665,-0.1668,0.068467,-0.097933,0.000067,-0.1668,-0.068467,-0.1668,-0.1664,-0.068467,-0.1664,0,-0.097933,0.068467,-0.1664,0.1668,-0.1664,0*%
%AMIconDiamond*4,1,4,0,-0.26,-0.26,0,0,0.26,0.26,0,0,-0.26,0*4,0,4,0,-0.203433,0.203433,0,0,0.2036,-0.203433,0,0,-0.203433,0*%
%AMIconRect2*4,1,6,0.2,-0.2,-0.2,-0.2,-0.2,0.2,-0.1668,0.1665,-0.166667,-0.166667,0.1668,-0.166667,0.2,-0.2,0*4,1,6,0.2,-0.2,0.1668,-0.166667,0.1668,0.1665,-0.1668,0.1665,-0.2,0.2,0.2,0.2,0.2,-0.2,0*4,1,6,0.133467,-0.133333,-0.133333,-0.133333,-0.133333,0.133467,-0.1,0.100133,-0.1,-0.1,0.100133,-0.1,0.133467,-0.133333,0*4,1,6,0.133467,-0.133333,0.100133,-0.1,0.100133,0.100133,-0.1,0.100133,-0.133333,0.133467,0.133467,0.133467,0.133467,-0.133333,0*%
%AMCharA*4,1,8,-0.122067,-0.1864,-0.1532,-0.174533,-0.015133,0.1864,0.016,0.1864,0.1532,-0.174533,0.122067,-0.1864,0.0764,-0.0662,-0.076133,-0.0662,-0.122067,-0.1864,0*4,0,3,-0.063333,-0.032867,0.063667,-0.032867,0.000333,0.1338,-0.063333,-0.032867,0*%
%AMCharB*4,1,17,-0.131133,-0.1894,-0.131133,0.1894,0.033533,0.1894,0.088067,0.172467,0.1114,0.151733,0.131133,0.114133,0.131,0.066467,0.114333,0.0338,0.094733,0.0128,0.086467,0.0084,0.094733,0.003867,0.114333,-0.017133,0.131,-0.0498,0.131133,-0.114133,0.1114,-0.151733,0.088067,-0.1726,0.033533,-0.1894,-0.131133,-0.1894,0*4,0,10,-0.0978,-0.156067,0.030867,-0.156067,0.073867,-0.142,0.085867,-0.130133,0.099533,-0.1028,0.099533,-0.0614,0.085867,-0.034533,0.073867,-0.0226,0.030867,-0.008667,-0.0978,-0.008667,-0.0978,-0.156067,0*4,0,10,-0.0978,0.024667,0.0308,0.024667,0.073867,0.039267,0.085867,0.051267,0.099533,0.078067,0.099533,0.102667,0.085867,0.130133,0.073867,0.142,0.030867,0.156067,-0.0978,0.156067,-0.0978,0.024667,0*%
%AMCharC*4,1,36,-0.027533,-0.1894,-0.071933,-0.1684,-0.1084,-0.130667,-0.125333,-0.096,-0.1428,-0.041333,-0.1428,0.041333,-0.1244,0.098,-0.105267,0.135067,-0.067533,0.171667,-0.027533,0.1894,0.038533,0.1894,0.083067,0.1684,0.119467,0.130667,0.1428,0.083,0.112867,0.0684,0.090867,0.113467,0.0614,0.142933,0.034733,0.156067,-0.0236,0.156067,-0.050333,0.142933,-0.079733,0.113467,-0.094067,0.084333,-0.109467,0.0386,-0.109467,-0.0386,-0.094067,-0.084333,-0.079733,-0.113467,-0.050333,-0.142867,-0.0236,-0.156067,0.034733,-0.156067,0.0614,-0.142867,0.090867,-0.113467,0.112867,-0.0684,0.1428,-0.083,0.119467,-0.130667,0.083067,-0.1684,0.038533,-0.1894,-0.027533,-0.1894,0*%
%AMCharD*4,1,12,-0.132,-0.1894,-0.132,0.1894,-0.000067,0.1894,0.054533,0.172467,0.0968,0.130933,0.1144,0.096067,0.132,0.041333,0.132,-0.041333,0.113467,-0.098267,0.093933,-0.134933,0.054533,-0.1726,-0.000067,-0.1894,-0.132,-0.1894,0*4,0,12,-0.098667,-0.156067,-0.002667,-0.156067,0.040333,-0.142133,0.068333,-0.113467,0.083267,-0.0842,0.098667,-0.0386,0.098667,0.0386,0.083267,0.0842,0.068333,0.113467,0.040333,0.142133,-0.002667,0.156067,-0.098667,0.156067,-0.098667,-0.156067,0*%
%AMCharE*4,1,12,-0.123667,-0.1894,-0.123667,0.1894,0.123667,0.1894,0.123667,0.156067,-0.090333,0.156067,-0.090333,0.024667,0.0416,0.024667,0.0416,-0.008667,-0.090333,-0.008667,-0.090333,-0.156067,0.123667,-0.156067,0.123667,-0.1894,-0.123667,-0.1894,0*%
%AMCharF*4,1,11,-0.123667,-0.1894,-0.123667,0.1894,-0.090333,0.1894,0.123667,0.1894,0.123667,0.156067,-0.090333,0.156067,-0.090333,0.024667,0.0416,0.024667,0.0416,-0.008667,-0.090333,-0.008667,-0.090333,-0.1894,-0.123667,-0.1894,0*%
%AMCharG*4,1,40,-0.027933,-0.1894,-0.072333,-0.1684,-0.1088,-0.130667,-0.125733,-0.096,-0.1424,-0.046667,-0.1424,0.046667,-0.1248,0.098,-0.105667,0.135067,-0.067933,0.171667,-0.027933,0.1894,0.038133,0.1894,0.082667,0.1684,0.119067,0.130667,0.1424,0.083,0.112467,0.0684,0.090467,0.113467,0.061,0.142933,0.034333,0.156067,-0.024,0.156067,-0.050733,0.142933,-0.080133,0.113467,-0.094467,0.084333,-0.1098,0.0386,-0.1098,-0.0386,-0.094467,-0.084333,-0.080133,-0.113467,-0.050733,-0.142867,-0.024,-0.156067,0.034333,-0.156067,0.061,-0.142867,0.090467,-0.113467,0.103467,-0.0868,0.103467,-0.058,0.021467,-0.058,0.021467,-0.024667,0.1368,-0.024667,0.1368,-0.090667,0.116,-0.135067,0.078067,-0.171667,0.038133,-0.1894,-0.027933,-0.1894,0*%
%AMCharH*4,1,12,-0.132,-0.1894,-0.132,0.1894,-0.098667,0.1894,-0.098667,0.024667,0.098667,0.024667,0.098667,0.1894,0.132,0.1894,0.132,-0.1894,0.098667,-0.1894,0.098667,-0.008667,-0.098667,-0.008667,-0.098667,-0.1894,-0.132,-0.1894,0*%
%AMCharI*4,1,4,-0.02,-0.1894,-0.02,0.1894,0.02,0.1894,0.02,-0.1894,-0.02,-0.1894,0*%
%ADD10IconRect*%
%ADD11C,0.44X0.373333*%
%ADD12IconTriangle*%
%ADD13IconStar6*%
%ADD14IconStar4*%
%ADD15IconPlus*%
%ADD16IconX*%
%ADD17IconDiamond*%
%ADD18IconRect2*%
%ADD19CharA*%
%ADD20CharB*%
%ADD21CharC*%
%ADD22CharD*%
%ADD23CharE*%
%ADD24CharF*%
%ADD25CharG*%
%ADD26CharH*%
%ADD27CharI*%
G75*


G04 Drill Drawing Start*
G54D10*
G01X-6563785Y3564946D03*
G54D11*
G01X-7642098Y11999377D03*
G54D12*
G01X-9927503Y2706879D03*
G01X-9927503Y3571876D03*
G54D13*
G01X-9507498Y2706869D03*
G01X-9507496Y3571871D03*
G54D14*
G01X-9111557Y4578607D03*
G01X-9111404Y5892402D03*
G54D15*
G01X-9150287Y6265531D03*
G01X-9150287Y7469531D03*
G54D16*
G01X-5120737Y774052D03*
G01X-5120737Y1394050D03*
G01X-4650728Y1094051D03*
G54D17*
G01X-9450290Y7924243D03*
G01X-9450290Y8178370D03*
G01X-9450290Y8432243D03*
G54D18*
G01X-7058950Y1063653D03*
G01X-6578953Y1063653D03*
G01X-6098957Y1063653D03*
G54D19*
G01X-9600000Y600000D03*
G01X-9600000Y12000000D03*
G01X-600000Y600000D03*
G01X-600000Y12000000D03*
G54D20*
G01X-5221834Y6408520D03*
G01X-4967834Y6408520D03*
G01X-4192122Y1630260D03*
G01X-4192122Y1884260D03*
G54D21*
G01X-8117073Y11579398D03*
G01X-8117073Y12049400D03*
G01X-7167087Y11579385D03*
G01X-7167087Y12049387D03*
G54D22*
G01X-6494844Y11926791D03*
G01X-6244844Y11926791D03*
G01X-5643133Y11926791D03*
G01X-5393133Y11926791D03*
G54D23*
G01X-9394189Y9102358D03*
G01X-9394189Y9610358D03*
G01X-9394189Y10270273D03*
G01X-9394189Y10778273D03*
G01X-7642093Y11399393D03*
G54D24*
G01X-8840498Y4885505D03*
G01X-8840498Y5135505D03*
G01X-8840498Y5335504D03*
G01X-8840498Y5585504D03*
G01X-4493026Y5624615D03*
G01X-4493026Y5878615D03*
G01X-4493026Y6132615D03*
G01X-4493026Y6386615D03*
G54D25*
G01X-7930471Y1212054D03*
G01X-7930471Y1466054D03*
G01X-2997703Y8703550D03*
G01X-2997703Y9412459D03*
G01X-2743703Y8703550D03*
G01X-2743703Y9412459D03*
G01X-2489703Y8703550D03*
G01X-2489703Y9412459D03*
G01X-1952190Y8703550D03*
G01X-1952190Y9412459D03*
G01X-1698190Y8703550D03*
G01X-1698190Y9412459D03*
G01X-1444190Y8703550D03*
G01X-1444190Y9412459D03*
G01X-893574Y8703550D03*
G01X-893574Y9412459D03*
G01X-639574Y8703550D03*
G01X-639574Y9412459D03*
G01X-387473Y1792960D03*
G01X-387473Y2046960D03*
G01X-387473Y2300960D03*
G01X-387473Y2554960D03*
G01X-387473Y3494682D03*
G01X-387473Y3748682D03*
G01X-387473Y4002682D03*
G01X-387473Y4256682D03*
G01X-387473Y5196404D03*
G01X-387473Y5450404D03*
G01X-387473Y5704404D03*
G01X-387473Y5958404D03*
G01X-385574Y8703550D03*
G01X-385574Y9412459D03*
G01X-249771Y6898126D03*
G01X-249771Y7152126D03*
G01X-249771Y7406126D03*
G01X-249771Y7660126D03*
G54D26*
G01X-8879279Y6742532D03*
G01X-8879279Y6992532D03*
G01X-8679280Y6742532D03*
G01X-8679280Y6992532D03*
G01X-2664204Y1550727D03*
G01X-2664204Y2846227D03*
G01X-2664204Y3242427D03*
G01X-2664204Y4522427D03*
G01X-2664204Y4918627D03*
G01X-2664204Y6198627D03*
G01X-2664204Y6610327D03*
G01X-2664204Y7890327D03*
G01X-2410204Y1550727D03*
G01X-2410204Y2846227D03*
G01X-2410204Y3242427D03*
G01X-2410204Y4522427D03*
G01X-2410204Y4918627D03*
G01X-2410204Y6198627D03*
G01X-2410204Y6610327D03*
G01X-2410204Y7890327D03*
G01X-2156204Y1550727D03*
G01X-2156204Y2846227D03*
G01X-2156204Y3242427D03*
G01X-2156204Y4522427D03*
G01X-2156204Y4918627D03*
G01X-2156204Y6198627D03*
G01X-2156204Y6610327D03*
G01X-2156204Y7890327D03*
G01X-1902204Y1550727D03*
G01X-1902204Y2846227D03*
G01X-1902204Y3242427D03*
G01X-1902204Y4522427D03*
G01X-1902204Y4918627D03*
G01X-1902204Y6198627D03*
G01X-1902204Y6610327D03*
G01X-1902204Y7890327D03*
G01X-1648204Y1550727D03*
G01X-1648204Y2846227D03*
G01X-1648204Y3242427D03*
G01X-1648204Y4522427D03*
G01X-1648204Y4918627D03*
G01X-1648204Y6198627D03*
G01X-1648204Y6610327D03*
G01X-1648204Y7890327D03*
G01X-1394204Y1550727D03*
G01X-1394204Y2846227D03*
G01X-1394204Y3242427D03*
G01X-1394204Y4522427D03*
G01X-1394204Y4918627D03*
G01X-1394204Y6198627D03*
G01X-1394204Y6610327D03*
G01X-1394204Y7890327D03*
G01X-1140204Y1550727D03*
G01X-1140204Y2846227D03*
G01X-1140204Y3242427D03*
G01X-1140204Y4522427D03*
G01X-1140204Y4918627D03*
G01X-1140204Y6198627D03*
G01X-1140204Y6610327D03*
G01X-1140204Y7890327D03*
G01X-886204Y1550727D03*
G01X-886204Y2846227D03*
G01X-886204Y3242427D03*
G01X-886204Y4522427D03*
G01X-886204Y4918627D03*
G01X-886204Y6198627D03*
G01X-886204Y6610327D03*
G01X-886204Y7890327D03*
G54D27*
G01X-9976201Y3083238D03*
G01X-9976201Y3199083D03*
G01X-9960901Y3940049D03*
G01X-9960901Y4055894D03*
G01X-9945600Y8066003D03*
G01X-9945600Y8181847D03*
G01X-9871122Y3083238D03*
G01X-9871122Y3199083D03*
G01X-9863999Y9381820D03*
G01X-9863999Y9497664D03*
G01X-9855822Y3940049D03*
G01X-9855822Y4055894D03*
G01X-9848699Y10488534D03*
G01X-9848699Y10604378D03*
G01X-9840521Y8066003D03*
G01X-9840521Y8181847D03*
G01X-9781390Y5474749D03*
G01X-9781390Y5590593D03*
G01X-9758920Y9381820D03*
G01X-9758920Y9497664D03*
G01X-9755939Y3083238D03*
G01X-9755939Y3199083D03*
G01X-9751798Y4863161D03*
G01X-9751798Y4979006D03*
G01X-9743620Y10488534D03*
G01X-9743620Y10604378D03*
G01X-9740639Y3940049D03*
G01X-9740639Y4055894D03*
G01X-9736498Y6637984D03*
G01X-9736498Y6753829D03*
G01X-9725338Y8066003D03*
G01X-9725338Y8181847D03*
G01X-9676311Y5474749D03*
G01X-9676311Y5590593D03*
G01X-9646719Y4863161D03*
G01X-9646719Y4979006D03*
G01X-9643737Y9381820D03*
G01X-9643737Y9497664D03*
G01X-9631419Y6637984D03*
G01X-9631419Y6753829D03*
G01X-9628437Y10488534D03*
G01X-9628437Y10604378D03*
G01X-9561128Y5474749D03*
G01X-9561128Y5590593D03*
G01X-9531536Y4863161D03*
G01X-9531536Y4979006D03*
G01X-9516236Y6637984D03*
G01X-9516236Y6753829D03*
G01X-9450894Y5158965D03*
G01X-9450894Y5274809D03*
G01X-9424922Y7165593D03*
G01X-9399893Y1986724D03*
G01X-9399893Y2102568D03*
G01X-9349533Y6928727D03*
G01X-9345815Y5158965D03*
G01X-9345815Y5274809D03*
G01X-9294814Y1986724D03*
G01X-9294814Y2102568D03*
G01X-9276888Y3108777D03*
G01X-9276888Y3220979D03*
G01X-9230632Y5158965D03*
G01X-9230632Y5274809D03*
G01X-9179987Y3384181D03*
G01X-9179631Y1986724D03*
G01X-9179631Y2102568D03*
G01X-9154486Y2899360D03*
G01X-9149518Y6721887D03*
G01X-9037789Y2420230D03*
G01X-9037789Y2536074D03*
G01X-8932710Y2420230D03*
G01X-8932710Y2536074D03*
G01X-8920487Y11049541D03*
G01X-8920487Y11165386D03*
G01X-8833638Y6034217D03*
G01X-8833638Y6150061D03*
G01X-8817527Y2420230D03*
G01X-8817527Y2536074D03*
G01X-8815408Y11049541D03*
G01X-8815408Y11165386D03*
G01X-8728559Y6034217D03*
G01X-8728559Y6150061D03*
G01X-8715881Y2955775D03*
G01X-8700225Y11049541D03*
G01X-8700225Y11165386D03*
G01X-8690512Y3697548D03*
G01X-8675684Y1497118D03*
G01X-8675684Y1612962D03*
G01X-8613376Y6034217D03*
G01X-8613376Y6150061D03*
G01X-8583883Y6362581D03*
G01X-8583883Y6478425D03*
G01X-8570605Y1497118D03*
G01X-8570605Y1612962D03*
G01X-8557779Y4067590D03*
G01X-8481278Y5424207D03*
G01X-8478804Y6362581D03*
G01X-8478804Y6478425D03*
G01X-8476178Y5041702D03*
G01X-8455909Y3789349D03*
G01X-8455422Y1497118D03*
G01X-8455422Y1612962D03*
G01X-8445577Y5235505D03*
G01X-8435981Y11136242D03*
G01X-8435981Y11252087D03*
G01X-8430409Y4192254D03*
G01X-8394577Y8428146D03*
G01X-8369208Y3789349D03*
G01X-8363976Y5031502D03*
G01X-8363621Y6362581D03*
G01X-8363621Y6478425D03*
G01X-8330902Y11136242D03*
G01X-8330902Y11252087D03*
G01X-8328408Y4125953D03*
G01X-8313108Y4365656D03*
G01X-8251775Y5455182D03*
G01X-8231374Y7617235D03*
G01X-8215719Y11136242D03*
G01X-8215719Y11252087D03*
G01X-8200774Y8290444D03*
G01X-8200774Y8581148D03*
G01X-8180506Y4355456D03*
G01X-8175406Y7986703D03*
G01X-8098905Y4712461D03*
G01X-8068172Y8011753D03*
G01X-8058104Y4809362D03*
G01X-8053476Y558706D03*
G01X-8053476Y674550D03*
G01X-8053476Y10916940D03*
G01X-8053476Y11032784D03*
G01X-8007104Y4870563D03*
G01X-7991803Y4069853D03*
G01X-7948397Y558706D03*
G01X-7948397Y674550D03*
G01X-7948397Y10916940D03*
G01X-7948397Y11032784D03*
G01X-7915302Y7996903D03*
G01X-7902420Y10292220D03*
G01X-7879602Y3151841D03*
G01X-7864302Y3315043D03*
G01X-7833214Y558706D03*
G01X-7833214Y674550D03*
G01X-7833214Y10916940D03*
G01X-7833214Y11032784D03*
G01X-7802969Y8621948D03*
G01X-7787669Y3470882D03*
G01X-7787669Y3618784D03*
G01X-7732172Y11666649D03*
G01X-7732172Y11782494D03*
G01X-7627093Y11666649D03*
G01X-7627093Y11782494D03*
G01X-7568498Y3927051D03*
G01X-7558298Y6431183D03*
G01X-7511910Y11666649D03*
G01X-7511910Y11782494D03*
G01X-7400196Y4875663D03*
G01X-7359395Y7293094D03*
G01X-7349195Y7420596D03*
G01X-7339467Y9891826D03*
G01X-7339467Y10007671D03*
G01X-7338863Y6556422D03*
G01X-7324166Y9652123D03*
G01X-7324166Y9767968D03*
G01X-7319066Y9427720D03*
G01X-7319066Y9543565D03*
G01X-7318595Y7512397D03*
G01X-7303766Y9213518D03*
G01X-7303766Y9329362D03*
G01X-7267594Y4860363D03*
G01X-7234388Y9891826D03*
G01X-7234388Y10007671D03*
G01X-7231762Y2267266D03*
G01X-7219087Y9652123D03*
G01X-7219087Y9767968D03*
G01X-7213987Y9427720D03*
G01X-7213987Y9543565D03*
G01X-7198687Y9213518D03*
G01X-7198687Y9329362D03*
G01X-7196061Y6275207D03*
G01X-7190961Y3588183D03*
G01X-7165593Y7787801D03*
G01X-7165461Y3832986D03*
G01X-7155261Y8672949D03*
G01X-7150293Y4743061D03*
G01X-7119205Y9891826D03*
G01X-7119205Y10007671D03*
G01X-7103905Y9652123D03*
G01X-7103905Y9767968D03*
G01X-7098804Y9427720D03*
G01X-7098804Y9543565D03*
G01X-7083504Y9213518D03*
G01X-7083504Y9329362D03*
G01X-7007962Y9896926D03*
G01X-7007962Y10012771D03*
G01X-6992662Y9437920D03*
G01X-6992662Y9553765D03*
G01X-6992662Y9652123D03*
G01X-6992662Y9767968D03*
G01X-6977362Y9218618D03*
G01X-6977362Y9334462D03*
G01X-6956358Y6556422D03*
G01X-6926361Y12176656D03*
G01X-6926361Y12292500D03*
G01X-6902883Y9896926D03*
G01X-6902883Y10012771D03*
G01X-6887583Y9437920D03*
G01X-6887583Y9553765D03*
G01X-6887583Y9652123D03*
G01X-6887583Y9767968D03*
G01X-6874889Y7191093D03*
G01X-6872283Y9218618D03*
G01X-6872283Y9334462D03*
G01X-6869789Y7440996D03*
G01X-6821282Y12176656D03*
G01X-6821282Y12292500D03*
G01X-6788188Y7298194D03*
G01X-6787700Y9896926D03*
G01X-6787700Y10012771D03*
G01X-6772400Y9437920D03*
G01X-6772400Y9553765D03*
G01X-6772400Y9652123D03*
G01X-6772400Y9767968D03*
G01X-6757100Y9218618D03*
G01X-6757100Y9334462D03*
G01X-6711555Y7933440D03*
G01X-6706099Y12176656D03*
G01X-6706099Y12292500D03*
G01X-6696858Y446504D03*
G01X-6696858Y562348D03*
G01X-6686658Y9902026D03*
G01X-6686658Y10017871D03*
G01X-6681558Y9427720D03*
G01X-6681558Y9543565D03*
G01X-6676458Y9652123D03*
G01X-6676458Y9767968D03*
G01X-6630086Y7236994D03*
G01X-6629954Y4225692D03*
G01X-6620357Y9213518D03*
G01X-6620357Y9329362D03*
G01X-6591779Y446504D03*
G01X-6591779Y562348D03*
G01X-6581579Y9902026D03*
G01X-6581579Y10017871D03*
G01X-6576479Y9427720D03*
G01X-6576479Y9543565D03*
G01X-6571379Y9652123D03*
G01X-6571379Y9767968D03*
G01X-6563785Y3757416D03*
G01X-6538285Y3865850D03*
G01X-6517884Y6538285D03*
G01X-6515278Y9213518D03*
G01X-6515278Y9329362D03*
G01X-6476952Y10672175D03*
G01X-6476596Y446504D03*
G01X-6476596Y562348D03*
G01X-6466396Y9902026D03*
G01X-6466396Y10017871D03*
G01X-6461296Y9427720D03*
G01X-6461296Y9543565D03*
G01X-6456196Y9652123D03*
G01X-6456196Y9767968D03*
G01X-6426555Y11085242D03*
G01X-6426555Y11201086D03*
G01X-6400095Y9213518D03*
G01X-6400095Y9329362D03*
G01X-6390251Y4072690D03*
G01X-6359650Y4424594D03*
G01X-6354550Y8040541D03*
G01X-6349450Y4154291D03*
G01X-6321476Y11085242D03*
G01X-6321476Y11201086D03*
G01X-6293481Y6517884D03*
G01X-6283281Y3570046D03*
G01X-6267849Y2308067D03*
G01X-6227049Y7770237D03*
G01X-6206293Y11085242D03*
G01X-6206293Y11201086D03*
G01X-6186248Y6689023D03*
G01X-6176180Y4008652D03*
G01X-6170948Y6066815D03*
G01X-6155648Y4291992D03*
G01X-6140347Y3741185D03*
G01X-6130147Y6780825D03*
G01X-6109747Y4480695D03*
G01X-6053646Y2221366D03*
G01X-6048546Y3251579D03*
G01X-6044050Y8683111D03*
G01X-6044050Y8798955D03*
G01X-6028146Y5663910D03*
G01X-6017946Y7800838D03*
G01X-5966945Y3317880D03*
G01X-5961977Y4452358D03*
G01X-5956877Y3508845D03*
G01X-5946545Y3725885D03*
G01X-5941445Y4281792D03*
G01X-5938971Y8683111D03*
G01X-5938971Y8798955D03*
G01X-5901248Y9468521D03*
G01X-5901248Y9584365D03*
G01X-5890444Y4842800D03*
G01X-5870044Y3394381D03*
G01X-5865076Y7690900D03*
G01X-5845147Y9749024D03*
G01X-5845147Y9864869D03*
G01X-5844544Y5475208D03*
G01X-5839443Y6770625D03*
G01X-5824275Y4727761D03*
G01X-5823788Y8683111D03*
G01X-5823788Y8798955D03*
G01X-5796169Y9468521D03*
G01X-5796169Y9584365D03*
G01X-5788575Y4600260D03*
G01X-5779837Y4337893D03*
G01X-5740068Y9749024D03*
G01X-5740068Y9864869D03*
G01X-5722274Y7384896D03*
G01X-5722142Y5036602D03*
G01X-5717174Y7277794D03*
G01X-5717174Y6298582D03*
G01X-5707206Y8900133D03*
G01X-5707206Y9015977D03*
G01X-5706974Y6222081D03*
G01X-5696774Y5926277D03*
G01X-5696774Y7068691D03*
G01X-5691674Y8338608D03*
G01X-5681341Y7800838D03*
G01X-5680986Y9468521D03*
G01X-5680986Y9584365D03*
G01X-5660861Y6698167D03*
G01X-5656445Y941210D03*
G01X-5656445Y1057055D03*
G01X-5640673Y5814075D03*
G01X-5636045Y8428107D03*
G01X-5636045Y8543952D03*
G01X-5635573Y6257781D03*
G01X-5624885Y9749024D03*
G01X-5624885Y9864869D03*
G01X-5602337Y5097803D03*
G01X-5602127Y8900133D03*
G01X-5602127Y9015977D03*
G01X-5594772Y6987090D03*
G01X-5594772Y7323695D03*
G01X-5594640Y3781986D03*
G01X-5589672Y7512397D03*
G01X-5580739Y4955001D03*
G01X-5569272Y7242094D03*
G01X-5564172Y7415496D03*
G01X-5551366Y941210D03*
G01X-5551366Y1057055D03*
G01X-5543772Y7053391D03*
G01X-5533572Y3911751D03*
G01X-5530966Y8428107D03*
G01X-5530966Y8543952D03*
G01X-5523944Y6705083D03*
G01X-5523239Y4286892D03*
G01X-5518271Y3819949D03*
G01X-5518271Y5268368D03*
G01X-5518139Y4154291D03*
G01X-5508071Y8338608D03*
G01X-5497871Y6278181D03*
G01X-5486944Y8900133D03*
G01X-5486944Y9015977D03*
G01X-5462171Y5676373D03*
G01X-5436183Y941210D03*
G01X-5436183Y1057055D03*
G01X-5432042Y10565035D03*
G01X-5432042Y10680879D03*
G01X-5415783Y8428107D03*
G01X-5415783Y8543952D03*
G01X-5411170Y5559072D03*
G01X-5411038Y4138990D03*
G01X-5406070Y3916851D03*
G01X-5395738Y6699224D03*
G01X-5395738Y6933827D03*
G01X-5334537Y7851839D03*
G01X-5326963Y10565035D03*
G01X-5326963Y10680879D03*
G01X-5293736Y3705485D03*
G01X-5278568Y3896450D03*
G01X-5232162Y4057389D03*
G01X-5211780Y10565035D03*
G01X-5211780Y10680879D03*
G01X-5196835Y5934214D03*
G01X-5186767Y4202454D03*
G01X-5181667Y3814849D03*
G01X-5166235Y5036602D03*
G01X-5156035Y6112716D03*
G01X-5120466Y4120853D03*
G01X-5105638Y405704D03*
G01X-5105638Y521548D03*
G01X-5100066Y4222855D03*
G01X-5089866Y5247968D03*
G01X-5079534Y8295544D03*
G01X-5059133Y3940088D03*
G01X-5043833Y4914200D03*
G01X-5038865Y7996903D03*
G01X-5000559Y405704D03*
G01X-5000559Y521548D03*
G01X-4992965Y5630473D03*
G01X-4972432Y5378306D03*
G01X-4972432Y6826725D03*
G01X-4952164Y4401357D03*
G01X-4929120Y3637590D03*
G01X-4885376Y405704D03*
G01X-4885376Y521548D03*
G01X-4880638Y4541889D03*
G01X-4880631Y2410068D03*
G01X-4845063Y7099292D03*
G01X-4844931Y5750611D03*
G01X-4818529Y5511843D03*
G01X-4814330Y4684698D03*
G01X-4748029Y4200191D03*
G01X-4732861Y7063591D03*
G01X-4676628Y4138990D03*
G01X-4610328Y5352806D03*
G01X-4600127Y3996189D03*
G01X-4574627Y8045641D03*
G01X-4562291Y4234969D03*
G01X-4559459Y4151454D03*
G01X-4535039Y3637590D03*
G01X-4508458Y6609686D03*
G01X-4487926Y3960488D03*
G01X-4467526Y6822790D03*
G01X-4442025Y3195478D03*
G01X-4431825Y4858100D03*
G01X-4411557Y6609686D03*
G01X-4375725Y5357906D03*
G01X-4371228Y11564648D03*
G01X-4371228Y11680492D03*
G01X-4345124Y4317493D03*
G01X-4299827Y12202156D03*
G01X-4299827Y12318001D03*
G01X-4294256Y6594385D03*
G01X-4268755Y6293481D03*
G01X-4266149Y11564648D03*
G01X-4266149Y11680492D03*
G01X-4263523Y4184891D03*
G01X-4258423Y4332793D03*
G01X-4243727Y859609D03*
G01X-4243727Y975454D03*
G01X-4194748Y12202156D03*
G01X-4194748Y12318001D03*
G01X-4167226Y3149539D03*
G01X-4167226Y3265383D03*
G01X-4150966Y11564648D03*
G01X-4150966Y11680492D03*
G01X-4138648Y859609D03*
G01X-4138648Y975454D03*
G01X-4131525Y8560709D03*
G01X-4131525Y8676553D03*
G01X-4131053Y7109492D03*
G01X-4085625Y10049928D03*
G01X-4085625Y10165773D03*
G01X-4085153Y4707361D03*
G01X-4079565Y12202156D03*
G01X-4079565Y12318001D03*
G01X-4065224Y9825525D03*
G01X-4065224Y9941370D03*
G01X-4065224Y10529335D03*
G01X-4065224Y10645179D03*
G01X-4062147Y3149539D03*
G01X-4062147Y3265383D03*
G01X-4026446Y8560709D03*
G01X-4026446Y8676553D03*
G01X-4023465Y859609D03*
G01X-4023465Y975454D03*
G01X-3980546Y10049928D03*
G01X-3980546Y10165773D03*
G01X-3967719Y8020141D03*
G01X-3960145Y9825525D03*
G01X-3960145Y9941370D03*
G01X-3960145Y10529335D03*
G01X-3960145Y10645179D03*
G01X-3946964Y3149539D03*
G01X-3946964Y3265383D03*
G01X-3926919Y5189604D03*
G01X-3911263Y8560709D03*
G01X-3911263Y8676553D03*
G01X-3881018Y6821625D03*
G01X-3865363Y10049928D03*
G01X-3865363Y10165773D03*
G01X-3844962Y9825525D03*
G01X-3844962Y9941370D03*
G01X-3844962Y10529335D03*
G01X-3844962Y10645179D03*
G01X-3809617Y5424207D03*
G01X-3809617Y5760811D03*
G01X-3769420Y8672911D03*
G01X-3769420Y8788755D03*
G01X-3703120Y9840826D03*
G01X-3703120Y9956670D03*
G01X-3687819Y2313128D03*
G01X-3687819Y2428973D03*
G01X-3672519Y10116229D03*
G01X-3672519Y10232074D03*
G01X-3667419Y9437920D03*
G01X-3667419Y9553765D03*
G01X-3664341Y8672911D03*
G01X-3664341Y8788755D03*
G01X-3636819Y9152317D03*
G01X-3636819Y9268161D03*
G01X-3616418Y8897313D03*
G01X-3616418Y9013158D03*
G01X-3611318Y12069554D03*
G01X-3611318Y12185399D03*
G01X-3598041Y9840826D03*
G01X-3598041Y9956670D03*
G01X-3582740Y2313128D03*
G01X-3582740Y2428973D03*
G01X-3567440Y10116229D03*
G01X-3567440Y10232074D03*
G01X-3562340Y9437920D03*
G01X-3562340Y9553765D03*
G01X-3549159Y8672911D03*
G01X-3549159Y8788755D03*
G01X-3531740Y9152317D03*
G01X-3531740Y9268161D03*
G01X-3511339Y8897313D03*
G01X-3511339Y9013158D03*
G01X-3508713Y4970301D03*
G01X-3506239Y12069554D03*
G01X-3506239Y12185399D03*
G01X-3482858Y9840826D03*
G01X-3482858Y9956670D03*
G01X-3467557Y2313128D03*
G01X-3467557Y2428973D03*
G01X-3462813Y4613297D03*
G01X-3457845Y7053391D03*
G01X-3452257Y10116229D03*
G01X-3452257Y10232074D03*
G01X-3447157Y9437920D03*
G01X-3447157Y9553765D03*
G01X-3437916Y3088338D03*
G01X-3437916Y3204183D03*
G01X-3416557Y9152317D03*
G01X-3416557Y9268161D03*
G01X-3396157Y8897313D03*
G01X-3396157Y9013158D03*
G01X-3391056Y12069554D03*
G01X-3391056Y12185399D03*
G01X-3350611Y7984440D03*
G01X-3332837Y3088338D03*
G01X-3332837Y3204183D03*
G01X-3325243Y6201680D03*
G01X-3315043Y6385283D03*
G01X-3289543Y6543385D03*
G01X-3269010Y6826725D03*
G01X-3218010Y5344507D03*
G01X-3217654Y3088338D03*
G01X-3217654Y3204183D03*
G01X-3014007Y4123690D03*
G01X-3014007Y4409294D03*
G01X-2968106Y6337119D03*
G01X-2891605Y6893026D03*
G01X-2887109Y11687050D03*
G01X-2887109Y11802894D03*
G01X-2871205Y3659584D03*
G01X-2835505Y3883987D03*
G01X-2782030Y11687050D03*
G01X-2782030Y11802894D03*
G01X-2764707Y10687437D03*
G01X-2764707Y10803281D03*
G01X-2739207Y3532044D03*
G01X-2739207Y3647888D03*
G01X-2666847Y11687050D03*
G01X-2666847Y11802894D03*
G01X-2659628Y10687437D03*
G01X-2659628Y10803281D03*
G01X-2634128Y3532044D03*
G01X-2634128Y3647888D03*
G01X-2544446Y10687437D03*
G01X-2544446Y10803281D03*
G01X-2540305Y2471230D03*
G01X-2540305Y2587075D03*
G01X-2518945Y3532044D03*
G01X-2518945Y3647888D03*
G01X-2453603Y10269231D03*
G01X-2453603Y10385075D03*
G01X-2435226Y2471230D03*
G01X-2435226Y2587075D03*
G01X-2348524Y10269231D03*
G01X-2348524Y10385075D03*
G01X-2320043Y2471230D03*
G01X-2320043Y2587075D03*
G01X-2233341Y10269231D03*
G01X-2233341Y10385075D03*
G01X-2065998Y11253544D03*
G01X-2065998Y11369388D03*
G01X-1960919Y11253544D03*
G01X-1960919Y11369388D03*
G01X-1845736Y11253544D03*
G01X-1845736Y11369388D03*
G01X-1306089Y10478334D03*
G01X-1306089Y10594178D03*
G01X-1201010Y10478334D03*
G01X-1201010Y10594178D03*
G01X-1085827Y10478334D03*
G01X-1085827Y10594178D03*
G01X-653280Y10182530D03*
G01X-653280Y10298374D03*
G01X-548201Y10182530D03*
G01X-548201Y10298374D03*
G01X-439077Y1481817D03*
G01X-439077Y1597662D03*
G01X-439077Y3006737D03*
G01X-439077Y3122582D03*
G01X-433018Y10182530D03*
G01X-433018Y10298374D03*
G01X-423777Y4699959D03*
G01X-423777Y4815803D03*
G01X-393177Y6393181D03*
G01X-393177Y6509025D03*
G01X-333998Y1481817D03*
G01X-333998Y1597662D03*
G01X-333998Y3006737D03*
G01X-333998Y3122582D03*
G01X-318698Y4699959D03*
G01X-318698Y4815803D03*
G01X-288098Y6393181D03*
G01X-288098Y6509025D03*
G01X-218815Y1481817D03*
G01X-218815Y1597662D03*
G01X-218815Y3006737D03*
G01X-218815Y3122582D03*
G01X-203515Y4699959D03*
G01X-203515Y4815803D03*
G01X-172915Y6393181D03*
G01X-172915Y6509025D03*
G04 Drill Drawing End*

M02*

