;TYPE=PLATED
;Layer: PTH_Through_Via
;EasyEDA Pro Client v2.2.32.3, 2025-05-22 17:57:24
;Gerber Generator version 0.3
M48
METRIC,LZ,000.00000
;Hole size 1 = 0.30000 METRIC
T01C0.30000
;Hole size 2 = 0.40000 METRIC
T02C0.40000
%
G05
G90
T01
X37.5Y50.7
X37.5Y53.8
X37.5Y51.8
X5.8686Y25.9966
X5.0686Y25.9966
X4.2686Y25.9966
X3.4686Y25.9966
X2.6686Y25.9966
X2.6686Y26.7966
X3.4686Y26.7966
X4.2686Y26.7966
X5.0686Y26.7966
X5.8686Y26.7966
X6.66859Y26.7966
X7.46859Y26.7966
X8.26859Y26.7966
X9.06859Y26.7966
X9.86859Y26.7966
X19.52175Y30.32523
X9.06859Y25.9966
X8.26859Y25.9966
X7.46859Y25.9966
X6.66859Y25.9966
X56.79524Y39.20004
X55.99524Y39.20004
X55.19524Y39.20004
X54.39525Y39.20004
X53.59525Y39.20004
X53.59525Y40.00004
X54.39525Y40.00004
X55.19524Y40.00004
X55.99524Y40.00004
X56.79524Y40.00004
X57.59524Y40.00004
X58.39524Y40.00004
X59.19524Y40.00004
X59.99523Y40.00004
X59.99523Y39.20004
X59.19524Y39.20004
X58.39524Y39.20004
X57.59524Y39.20004
X87.4096Y52.533
X87.27559Y51.655
X78.114Y57.8
X75.0Y56.4
X64.184Y56.331
X60.12048Y25.55007
X60.12048Y24.75007
X43.66367Y59.9
X42.96367Y59.9
X48.84374Y27.7
X50.49999Y27.74299
X28.95625Y27.74299
X27.3Y27.7
X60.4Y57.8
X19.95104Y23.31299
X19.95104Y22.513
X19.95104Y21.713
X19.95104Y20.913
X19.95104Y20.113
X20.75104Y20.113
X20.75104Y20.913
X20.75104Y21.713
X20.75104Y22.513
X20.75104Y23.31299
X20.75104Y24.11299
X20.75104Y24.91299
X20.75104Y25.71299
X20.75104Y26.51299
X20.75104Y27.31299
X19.95104Y27.31299
X19.95104Y26.51299
X19.95104Y25.71299
X19.95104Y24.91299
X19.95104Y24.11299
X69.27198Y30.30504
X72.04674Y26.68228
X69.044Y29.206
X69.044Y28.406
X69.044Y27.606
X69.844Y27.606
X69.844Y28.406
X69.844Y29.206
X69.844Y30.006
X69.65802Y31.02797
X69.844Y31.60599
X69.72401Y32.59497
X69.844Y33.20599
X69.844Y34.00599
X69.844Y34.80599
X69.044Y34.80599
X69.044Y34.00599
X69.044Y33.20599
X69.044Y32.40599
X69.044Y31.60599
X42.29674Y21.75099
X42.29674Y22.55099
X42.29674Y23.35098
X42.29674Y24.15098
X42.29674Y24.95098
X43.09674Y24.95098
X43.09674Y24.15098
X43.09674Y23.35098
X43.09674Y22.55099
X43.09674Y21.75099
X43.09674Y20.95099
X59.658Y23.148
X59.658Y22.348
X59.658Y21.548
X59.658Y20.748
X58.858Y20.748
X58.858Y21.548
X58.858Y22.348
X58.858Y23.148
X42.29674Y20.95099
X64.0Y47.49999
X63.0Y62.2
X63.0Y60.8
X61.0Y44.2
X61.44702Y48.67908
X64.0Y50.99999
X61.0501Y34.53359
X48.8Y36.2
X45.75Y55.55
X45.7Y50.3
X65.50006Y54.1
X57.25Y58.55
X43.75Y58.55
X23.0Y35.3
X46.0Y37.8
X23.65967Y34.55967
X46.6Y37.0
X59.6131Y36.2
X38.01406Y36.21407
X19.6Y31.1253
X41.1Y31.1253
X59.6131Y28.36936
X38.01406Y28.31407
X50.24374Y34.0
X54.44374Y33.99258
X45.14374Y29.2
X43.34374Y28.2
X21.8Y28.2
X23.6Y29.2
X32.9Y33.99258
X28.7Y34.0
X60.027Y7.73
X60.027Y6.93
X60.827Y6.93
X60.827Y7.73
X60.827Y8.53
X60.827Y9.33
X60.827Y10.12999
X60.827Y10.92999
X60.027Y10.92999
X60.027Y10.12999
X60.027Y9.33
X60.027Y8.53
X44.9Y52.23153
X44.9Y52.98153
X44.1Y52.98153
X44.1Y52.23153
X40.2Y44.83155
X40.2Y45.63154
X40.2Y46.43154
X40.2Y47.23154
X39.4Y47.23154
X39.4Y46.43154
X39.4Y45.63154
X39.4Y44.83155
X39.3Y7.88862
X39.3Y7.08862
X40.1Y7.08862
X40.1Y7.88862
X40.1Y8.68862
X40.1Y9.48861
X40.1Y10.28861
X40.1Y11.08861
X39.3Y11.08861
X39.3Y10.28861
X39.3Y9.48861
X39.3Y8.68862
X6.266Y22.551
X5.466Y22.551
X4.666Y22.551
X3.866Y22.551
X3.06601Y22.551
X3.06601Y23.351
X3.866Y23.351
X4.666Y23.351
X5.466Y23.351
X6.266Y23.351
X8.9655Y23.95511
X8.1655Y23.95511
X7.3655Y23.95511
X6.5655Y23.95511
X5.76551Y23.95511
X5.76551Y24.75511
X6.5655Y24.75511
X7.3655Y24.75511
X8.1655Y24.75511
X8.9655Y24.75511
X88.484Y24.353
X88.484Y25.153
X88.484Y25.953
X88.484Y26.753
X87.68401Y26.753
X87.68401Y25.953
X87.68401Y25.153
X87.68401Y24.353
X41.9Y51.2
X48.0Y48.49999
X60.30001Y53.2
X58.88795Y58.60794
X56.0Y42.6
X56.0Y46.8
X50.4Y56.5
X48.2Y57.1
X50.4Y55.3
X50.4Y54.3
X46.9Y53.2
X18.646Y47.77399
X19.13795Y50.67193
X20.43384Y51.12207
X56.363Y38.36
X55.563Y38.36
X54.763Y38.36
X53.963Y38.36
X53.963Y37.56
X54.763Y37.56
X55.563Y37.56
X56.363Y37.56
X13.60982Y43.8172
X17.04452Y45.91102
X77.94224Y44.69013
X66.80421Y60.07579
X29.92541Y54.46928
X32.48118Y47.14391
X32.49618Y50.26364
X44.49214Y44.27316
X10.25311Y19.43532
X19.6543Y34.04105
X16.08761Y19.91527
X75.16047Y33.57609
X73.24964Y33.57609
X73.88658Y33.57609
X74.52353Y33.57609
X75.14547Y32.94615
X74.50853Y32.94615
X73.87158Y32.94615
X73.23464Y32.94615
X75.16047Y32.3312
X74.52353Y32.3312
X73.88658Y32.3312
X73.24964Y32.3312
X75.13104Y31.64947
X74.49409Y31.64947
X73.85715Y31.64947
X73.2202Y31.64947
X75.13947Y30.89732
X74.50253Y30.89732
X73.86559Y30.89732
X73.22864Y30.89732
X77.28036Y37.99771
X76.48036Y37.99771
X77.29235Y37.30477
X76.49236Y37.30477
X79.10181Y36.52943
X78.30181Y36.52943
X77.9761Y49.5857
X79.20112Y46.50197
X88.12742Y48.64379
X87.5524Y48.91376
X88.16341Y49.31573
X87.09044Y49.39672
X77.2733Y43.15126
X64.18844Y49.12374
X76.23539Y47.05092
X72.92368Y50.63561
X61.0987Y17.55448
X39.05062Y17.45849
X63.01091Y30.70985
X63.01091Y29.90985
X63.8109Y29.90985
X63.8109Y30.70985
X64.73876Y30.67085
X64.73876Y29.87085
X63.75494Y27.3461
X62.95494Y27.3461
X62.89392Y29.13498
X62.89392Y28.33499
X63.69391Y28.33499
X63.69391Y29.13498
X64.69976Y29.17398
X64.69976Y28.37398
X69.48145Y22.43853
X64.45181Y27.30711
X72.44209Y20.60972
X72.44209Y19.80972
X73.98602Y19.94171
X73.24209Y20.60972
X90.98648Y16.07112
X90.98648Y15.27112
X91.78648Y15.27112
X91.78648Y16.07112
X70.0333Y21.50365
X70.0333Y20.70365
X70.83329Y20.70365
X70.83329Y21.50365
X67.7115Y24.13142
X67.7115Y23.33142
X68.5115Y23.33142
X68.5115Y24.13142
X69.79332Y24.25141
X69.79332Y23.45141
X70.59332Y23.45141
X70.59332Y24.25141
X70.13829Y26.87018
X70.13829Y26.07018
X70.93829Y26.07018
X70.93829Y26.87018
X78.16859Y26.34223
X78.16859Y25.54223
X78.96859Y25.54223
X78.56063Y24.92635
X78.36057Y24.23041
X78.36057Y23.43041
X79.16057Y23.43041
X79.16057Y24.23041
X77.12468Y19.37083
X77.12468Y18.57083
X77.92468Y18.57083
X77.92468Y19.37083
X87.15281Y28.33705
X87.15281Y27.53705
X87.95281Y27.53705
X87.95281Y28.33705
X88.25372Y19.94378
X88.25372Y19.14378
X89.05372Y19.14378
X89.05372Y19.94378
X88.28671Y18.18593
X88.28671Y17.38593
X89.08671Y17.38593
X89.08671Y18.18593
X88.67068Y16.38009
X88.67068Y15.58009
X89.47068Y15.58009
X89.47068Y16.38009
X89.09364Y14.73023
X89.09364Y13.93023
X89.89364Y13.93023
X89.89364Y14.73023
X73.73498Y2.13432
X73.73498Y1.33433
X74.53497Y1.33433
X74.53497Y2.13432
X73.96596Y7.89382
X73.96596Y7.09383
X74.76595Y7.09383
X74.76595Y7.89382
X74.11894Y11.23554
X74.11894Y10.43554
X72.51015Y9.07365
X72.01519Y9.58868
X72.12112Y11.31053
X72.12112Y10.51053
X72.92111Y10.51053
X72.92111Y11.31053
X71.62316Y2.17332
X71.62316Y1.37332
X72.42316Y1.37332
X72.42316Y2.17332
X75.92479Y2.21232
X75.92479Y1.41232
X76.72478Y1.41232
X76.72478Y2.21232
X62.10198Y5.16706
X62.10198Y4.36706
X62.90198Y4.36706
X62.90198Y5.16706
X59.92417Y14.48725
X59.48021Y13.96023
X60.28021Y13.96023
X61.06614Y14.62524
X59.49821Y12.23445
X59.49821Y11.43445
X60.69717Y11.60544
X60.29821Y12.23445
X59.10524Y15.93913
X59.10524Y15.13913
X59.90524Y15.13913
X59.90524Y15.93913
X62.28197Y10.5396
X62.28197Y9.7396
X63.08197Y9.7396
X63.08197Y10.5396
X58.5053Y7.87883
X58.5053Y7.07883
X59.30529Y7.07883
X59.30529Y7.87883
X64.11481Y10.4316
X64.11481Y9.63161
X64.91481Y9.63161
X64.91481Y10.4316
X41.41878Y7.59085
X41.41878Y6.79085
X42.21878Y6.79085
X42.21878Y7.59085
X43.18262Y7.33587
X43.18262Y6.53587
X43.98262Y6.53587
X43.98262Y7.33587
X40.0359Y12.7864
X40.0359Y11.9864
X40.83589Y11.9864
X40.83589Y12.7864
X39.95834Y14.80947
X39.95834Y14.00947
X40.75834Y14.00947
X40.75834Y14.80947
X40.41986Y20.15976
X40.41986Y19.35976
X41.21986Y19.35976
X41.21986Y20.15976
X42.13571Y20.23476
X42.13571Y19.43476
X42.93571Y19.43476
X42.93571Y20.23476
X56.56746Y23.46847
X56.56746Y22.66848
X57.36746Y22.66848
X57.36746Y23.46847
X56.51047Y21.45265
X56.51047Y20.65265
X57.31047Y20.65265
X57.31047Y21.45265
X36.85017Y25.11833
X36.85017Y24.31833
X37.65017Y24.31833
X37.65017Y25.11833
X36.62819Y23.32749
X36.62819Y22.52749
X37.42819Y22.52749
X37.42819Y23.32749
X34.29139Y22.91652
X34.29139Y22.11652
X35.09139Y22.11652
X35.09139Y22.91652
X36.32222Y21.48265
X36.32222Y20.68265
X37.12222Y20.68265
X37.12222Y21.48265
X38.16706Y15.62715
X38.16706Y14.82716
X38.96706Y14.82716
X38.96706Y15.62715
X38.11606Y13.37435
X38.11606Y12.57435
X38.91606Y12.57435
X38.91606Y13.37435
X43.62959Y5.45204
X43.62959Y4.65204
X44.42958Y4.65204
X44.42958Y5.45204
X43.5126Y3.45721
X43.5126Y2.65721
X44.31259Y2.65721
X44.31259Y3.45721
X41.78474Y1.69036
X41.78474Y0.89036
X42.58474Y0.89036
X42.58474Y1.69036
X45.08746Y1.65137
X45.08746Y0.85137
X45.88746Y0.85137
X45.88746Y1.65137
X19.94964Y4.6601
X19.94964Y3.86011
X20.74964Y3.86011
X20.74964Y4.6601
X17.72383Y4.78609
X17.72383Y3.9861
X18.52383Y3.9861
X18.52383Y4.78609
X13.93516Y5.27505
X13.93516Y4.47505
X14.73516Y4.47505
X14.73516Y5.27505
X24.81522Y5.09507
X24.81522Y4.29507
X25.61521Y4.29507
X25.61521Y5.09507
X19.2597Y11.00755
X19.2597Y10.20756
X20.0597Y10.20756
X20.0597Y11.00755
X19.2747Y12.7744
X19.2747Y11.9744
X20.07469Y11.9744
X20.07469Y12.7744
X19.1937Y14.60424
X19.1937Y13.80424
X19.9937Y13.80424
X19.9937Y14.60424
X19.13671Y16.47008
X19.13671Y15.67008
X19.93671Y15.67008
X19.93671Y16.47008
X19.16071Y18.33592
X19.16071Y17.53592
X19.9607Y17.53592
X19.9607Y18.33592
X17.45385Y40.87897
X17.45385Y40.07897
X18.25385Y40.07897
X18.25385Y40.87897
X6.5888Y37.83123
X6.5888Y37.03123
X7.38879Y37.03123
X7.38879Y37.83123
X6.66679Y39.85305
X6.66679Y39.05306
X7.46679Y39.05306
X7.46679Y39.85305
X6.5378Y42.36384
X6.5378Y41.56384
X7.3378Y41.56384
X7.3378Y42.36384
X9.09658Y36.91031
X9.09658Y36.11031
X9.89658Y36.11031
X9.89658Y36.91031
X13.57519Y34.91548
X13.57519Y34.11548
X14.37519Y34.11548
X14.37519Y34.91548
X7.6387Y30.74284
X7.6387Y29.94285
X8.4387Y29.94285
X8.4387Y30.74284
X12.88525Y47.50839
X12.88525Y46.70839
X13.68525Y46.70839
X13.68525Y47.50839
X17.15988Y48.09634
X17.15988Y47.29634
X17.95988Y47.29634
X17.95988Y48.09634
X21.62349Y43.65073
X12.06632Y43.03971
X12.68034Y43.60066
X22.42349Y43.65073
X34.30339Y45.03361
X34.30339Y44.23361
X35.10339Y44.23361
X35.10339Y45.03361
X34.84035Y43.03578
X34.84035Y42.23578
X35.64035Y42.23578
X35.64035Y43.03578
X36.34922Y41.04095
X36.34922Y40.24095
X37.14921Y40.24095
X37.14921Y41.04095
X19.76365Y39.52908
X19.76365Y38.72908
X20.56365Y38.72908
X20.56365Y39.52908
X44.06755Y54.61478
X44.06755Y53.81478
X44.86755Y53.81478
X44.86755Y54.61478
X38.52244Y57.43238
X38.52244Y56.63238
X39.32244Y56.63238
X39.32244Y57.43238
X35.48529Y57.69251
X35.48529Y56.89251
X36.28529Y56.89251
X36.28529Y57.69251
X60.50912Y52.40397
X60.50912Y51.60397
X61.30912Y51.60397
X61.30912Y52.40397
X60.10116Y50.67912
X60.10116Y49.87912
X60.90116Y49.87912
X60.90116Y50.67912
X59.74119Y48.46231
X59.74119Y47.66231
X60.54119Y47.66231
X60.54119Y48.46231
X65.26971Y47.11243
X65.26971Y46.31243
X66.06971Y46.31243
X66.06971Y47.11243
X62.55794Y42.66081
X62.55794Y41.86081
X61.90307Y42.19978
X62.99797Y43.36875
X66.83257Y41.22694
X66.83257Y40.42694
X67.63257Y40.42694
X67.63257Y41.22694
X65.13172Y41.28693
X65.13172Y40.48693
X65.93172Y40.48693
X65.93172Y41.28693
X63.50886Y42.25585
X63.57786Y40.53493
X62.734Y40.51993
X64.30886Y42.25585
X57.78836Y42.25885
X57.78836Y41.45885
X58.58836Y41.45885
X58.58836Y42.25885
X54.39265Y41.73089
X54.39265Y40.93089
X55.19265Y40.93089
X55.19265Y41.73089
X77.58344Y46.80215
X77.58344Y46.00215
X78.38344Y46.00215
X78.38344Y46.80215
X77.17268Y48.62729
X77.17268Y47.8273
X77.97268Y47.8273
X77.97268Y48.62729
X78.89753Y48.20133
X78.89753Y47.40133
X79.69753Y47.40133
X79.69753Y48.20133
X88.14573Y46.89044
X88.14573Y46.09045
X88.94573Y46.09045
X88.94573Y46.89044
X88.91066Y49.31723
X88.4697Y47.93529
X89.2697Y47.93529
X89.2697Y48.73528
X85.55395Y49.04126
X85.55395Y48.24126
X86.35395Y48.24126
X86.35395Y49.04126
X83.98344Y47.94977
X83.98344Y47.14978
X84.78344Y47.14978
X84.78344Y47.94977
X88.16373Y45.0816
X88.16373Y44.2816
X88.96372Y44.2816
X88.96372Y45.0816
X85.73994Y52.85993
X85.73994Y52.05993
X86.53993Y52.05993
X86.53993Y52.85993
X84.40844Y56.08039
X84.40844Y55.28039
X85.20844Y55.28039
X85.20844Y56.08039
X77.03169Y56.16264
X77.03169Y55.36264
X77.83169Y55.36264
X77.83169Y56.16264
X77.21167Y54.2938
X77.21167Y53.4938
X78.01167Y53.4938
X78.01167Y54.2938
X77.00769Y52.29598
X77.00769Y51.49598
X77.80769Y51.49598
X77.80769Y52.29598
X75.49582Y60.77024
X75.49582Y59.97024
X76.29582Y59.97024
X76.29582Y60.77024
X72.78406Y60.87223
X72.78406Y60.07223
X73.58406Y60.07223
X73.58406Y60.87223
X66.38261Y61.2412
X66.33462Y62.27404
X67.13462Y62.27404
X67.13462Y63.07404
X37.82703Y62.99453
X38.81664Y62.99453
X39.80624Y62.99453
X40.79584Y62.99453
X44.90849Y63.08752
X41.93968Y63.08752
X42.92928Y63.08752
X43.91888Y63.08752
X49.21011Y63.11452
X46.2413Y63.11452
X47.23091Y63.11452
X48.22051Y63.11452
X53.50874Y63.11452
X50.53993Y63.11452
X51.52954Y63.11452
X52.51914Y63.11452
X57.88836Y63.13851
X54.91955Y63.13851
X55.90916Y63.13851
X56.89876Y63.13851
X62.00701Y63.13851
X59.0382Y63.13851
X60.0278Y63.13851
X61.0174Y63.13851
X66.28164Y63.13851
X63.31282Y63.13851
X64.30243Y63.13851
X65.29203Y63.13851
X17.20589Y55.94814
X14.23708Y55.94814
X15.22668Y55.94814
X16.21628Y55.94814
X16.35996Y53.48835
X13.39115Y53.48835
X14.38076Y53.48835
X15.37036Y53.48835
X15.40005Y51.37653
X12.43123Y51.37653
X13.42084Y51.37653
X14.41044Y51.37653
X10.25549Y48.19081
X7.28668Y48.19081
X8.27629Y48.19081
X9.26589Y48.19081
X4.95795Y48.11282
X1.98914Y48.11282
X2.97874Y48.11282
X3.96835Y48.11282
X6.46382Y28.61751
X3.49501Y28.61751
X4.48461Y28.61751
X5.47422Y28.61751
X14.63574Y25.95313
X14.63574Y22.98432
X14.63574Y23.97392
X14.63574Y24.96353
X40.84283Y29.79793
X40.70784Y25.75521
X41.23486Y26.30116
X41.84681Y26.71119
X40.47386Y24.2964
X40.47386Y23.4964
X41.27386Y23.4964
X41.27386Y24.2964
X40.39887Y22.30158
X40.39887Y21.50158
X41.19886Y21.50158
X41.19886Y22.30158
X22.04346Y24.18241
X22.04346Y23.38241
X22.84345Y23.38241
X22.84345Y24.18241
X21.85147Y21.91761
X21.85147Y21.11761
X22.65147Y21.11761
X22.65147Y21.91761
X53.24975Y27.93209
X53.24975Y27.13209
X54.04975Y27.13209
X54.04975Y27.93209
X54.53064Y28.979
X53.68771Y28.66796
X55.33064Y28.179
X55.33064Y28.979
X47.89719Y29.76529
X47.89719Y28.96529
X48.69719Y28.96529
X48.69719Y29.76529
X39.9399Y27.59912
X40.60285Y26.69713
X41.06388Y30.41381
X41.15087Y27.44613
X49.85405Y34.56151
X55.21458Y34.30747
X53.92076Y34.44546
X50.65404Y34.56151
X31.9576Y29.06599
X31.9576Y28.26599
X32.7576Y28.26599
X32.7576Y29.06599
X26.37808Y29.85792
X26.37808Y29.05792
X27.17808Y29.05792
X27.17808Y29.85792
X32.55906Y34.60841
X29.12136Y34.60634
X28.32849Y34.60334
X33.33806Y34.58441
X47.18707Y41.48597
X47.18707Y40.68597
X47.98707Y40.68597
X47.98707Y41.48597
X41.97073Y53.92184
X44.70349Y50.33808
X41.9368Y52.13192
X41.9368Y53.03391
X46.99229Y51.25807
X43.25462Y55.23665
X43.65865Y50.35908
X46.90437Y52.28398
X27.01103Y60.23929
X27.01103Y59.43929
X27.81102Y59.43929
X27.81102Y60.23929
X30.71306Y62.47448
X30.71306Y61.67448
X31.51306Y61.67448
X31.51306Y62.47448
X33.64945Y62.59408
X33.64945Y61.79409
X34.44945Y61.79409
X34.44945Y62.59408
X63.79984Y56.81358
X61.934Y56.45755
X64.24587Y58.5278
X58.33638Y58.26846
X69.51734Y61.91614
X69.51734Y61.11614
X70.31734Y61.11614
X59.39888Y58.24205
X84.75602Y36.79032
X84.75602Y35.99032
X85.55602Y35.99032
X85.55602Y36.79032
X86.39388Y36.32836
X86.39388Y35.52836
X86.46794Y29.2799
X78.09267Y37.21328
X86.49587Y34.45952
X86.49587Y33.65952
X87.29587Y33.65952
X87.20888Y29.21898
X86.49587Y32.69268
X86.49587Y31.89268
X87.29587Y31.89268
X87.29587Y32.69268
X86.44487Y30.87483
X86.44487Y30.07483
X87.24487Y30.07483
X87.24487Y30.87483
X85.43996Y27.7881
X85.43996Y26.9881
X86.23996Y26.9881
X86.23996Y27.7881
X86.73745Y23.43558
X86.02052Y23.14854
X85.26665Y23.19954
X87.53745Y23.43558
X13.09523Y25.37331
X13.09523Y24.57331
X13.89523Y24.57331
X13.89523Y25.37331
X13.02024Y23.2225
X13.02024Y22.4225
X13.82024Y22.4225
X13.82024Y23.2225
X11.25339Y24.45239
X11.25339Y23.65239
X12.05339Y23.65239
X12.05339Y24.45239
X11.50837Y21.71063
X11.50837Y20.91063
X12.30837Y20.91063
X12.30837Y21.71063
X7.31173Y17.84396
X7.31173Y17.04396
X8.11173Y17.04396
X8.11173Y17.84396
X7.61771Y16.01712
X7.61771Y15.21712
X8.4177Y15.21712
X8.4177Y16.01712
X7.78869Y14.22328
X7.78869Y13.42328
X8.58869Y13.42328
X8.58869Y14.22328
X11.97033Y9.63367
X11.97033Y8.83368
X12.77033Y8.83368
X12.77033Y9.63367
X10.43446Y10.21562
X9.49554Y10.8165
X8.65768Y11.66843
X8.65768Y12.46843
X14.25913Y11.77849
X14.91907Y10.70551
X15.56009Y10.35154
X14.1862Y12.48643
X16.64692Y9.3487
X16.64692Y8.5487
X17.44692Y8.5487
X17.44692Y9.3487
X21.85447Y8.10381
X21.85447Y7.30381
X22.65447Y7.30381
X22.65447Y8.10381
X70.57025Y36.15438
X70.57025Y35.35438
X71.37025Y35.35438
X71.37025Y36.15438
X68.31745Y33.78758
X70.36627Y32.14166
X69.5794Y36.61127
X69.5794Y37.41127
X68.19446Y26.73219
X68.19446Y25.93219
X68.99445Y25.93219
X68.99445Y26.73219
X67.78349Y30.39487
X67.78349Y29.59488
X68.58349Y29.59488
X68.58349Y30.39487
X73.93939Y29.07633
X73.15346Y28.76529
X68.43694Y31.18908
X68.43694Y31.98908
X71.4481Y28.32491
X67.70443Y33.04143
X71.00921Y34.85027
X70.67624Y29.5638
X71.35618Y29.56695
X67.6365Y27.72004
X68.4365Y27.72004
X72.19218Y28.24706
X70.41726Y30.90783
X68.59042Y35.21039
X70.39833Y33.59053
X69.39042Y36.01039
X70.4237Y38.00672
X70.4237Y37.20673
X71.2237Y37.20673
X71.2237Y38.00672
X74.26343Y38.41122
X74.26343Y37.61123
X75.06343Y37.61123
X75.06343Y38.41122
X79.62647Y11.05555
X79.62647Y10.25555
X80.42646Y10.25555
X80.42646Y11.05555
X80.75137Y9.13572
X80.75137Y8.33572
X81.55137Y8.33572
X81.55137Y9.13572
X80.93135Y6.39695
X80.93135Y5.59696
X81.73135Y5.59696
X81.73135Y6.39695
X80.93135Y4.06916
X80.93135Y3.26916
X81.73135Y3.26916
X81.73135Y4.06916
X78.49856Y2.07133
X78.49856Y1.27133
X79.29856Y1.27133
X79.29856Y2.07133
X81.98126Y11.13354
X81.98126Y10.33355
X82.78126Y10.33355
X82.78126Y11.13354
X83.8741Y11.28653
X83.8741Y10.48653
X84.6741Y10.48653
X84.6741Y11.28653
X93.26928Y14.94621
X93.26928Y14.14622
X94.06928Y14.14622
X94.06928Y14.94621
X92.06639Y18.09594
X92.06639Y17.29594
X92.86639Y17.29594
X92.86639Y18.09594
X93.38627Y16.13411
X92.35436Y15.74508
X95.52415Y14.71917
X95.50016Y15.64515
X59.87618Y5.28105
X59.87618Y4.48105
X60.67618Y4.48105
X60.67618Y5.28105
X59.90017Y3.5922
X59.90017Y2.7922
X60.70017Y2.7922
X60.70017Y3.5922
X60.00276Y1.85235
X60.00276Y1.05235
X60.80276Y1.05235
X60.80276Y1.85235
X61.71802Y3.02825
X61.71802Y2.22825
X62.51802Y2.22825
X62.51802Y3.02825
X40.22051Y56.84807
X70.26591Y59.03788
X69.14101Y57.74799
X72.93105Y18.54383
X72.93105Y19.34383
X73.73104Y19.34383
X73.73104Y18.54383
X76.76215Y17.23239
X76.76215Y18.03239
X77.56215Y18.03239
X77.56215Y17.23239
X92.02302Y34.55401
X70.72787Y54.09131
X72.28473Y46.30099
T02
X70.1922Y17.29207
X25.908Y17.399
X31.877Y17.526
X47.498Y17.526
X53.213Y17.526
X85.3396Y44.78012
M30