G04 Layer: BottomLayer*
G04 EasyEDA Pro v2.2.32.3, 2025-05-22 17:57:24*
G04 Gerber Generator version 0.3*
G04 Scale: 100 percent, Rotated: No, Reflected: No*
G04 Dimensions in millimeters*
G04 Leading zeros omitted, absolute positions, 3 integers and 5 decimals*
%FSLAX35Y35*%
%MOMM*%
%ADD10C,0.6*%
%ADD11C,1.0*%
%ADD12C,7.0*%
%ADD13R,1.5X1.5*%
%ADD14C,1.5*%
%ADD15C,1.6*%
%ADD16R,1.5064X1.5*%
%ADD17R,1.5X1.5*%
%ADD18R,1.6X1.6*%
%ADD19R,1.2X1.2*%
%ADD20C,1.2*%
%ADD21C,2.6*%
%ADD22R,2.6X3.0*%
%ADD23R,1.2X1.2*%
%ADD24C,3.49999*%
%ADD25R,1.6X1.6*%
%ADD26C,0.5*%
%ADD27C,0.8*%
%ADD28C,0.3*%
%ADD29C,0.4*%
%ADD30C,0.254*%
G75*


G04 Copper Start*
G36*
G01X1270Y719698D02*
G01X1270Y5680302D01*
G03X899088Y5500912I508730J209698D01*
G03X719698Y6398730I-389088J389088D01*
G01X8980302Y6398730D01*
G03X8800912Y5500912I209698J-508730D01*
G03X9698730Y5680302I389088J389088D01*
G01X9698730Y719698D01*
G03X8800912Y899088I-508730J-209698D01*
G03X8980302Y1270I389088J-389088D01*
G01X719698Y1270D01*
G03X899088Y899088I-209698J508730D01*
G03X1270Y719698I-389088J-389088D01*
G37*
%LPC*%
G36*
G01X1280950Y4087406D02*
G03X1075296Y4121506I-105654J0D01*
G03X869643Y4087406I-100000J-34099D01*
G03X1075296Y4053307I105654J0D01*
G03X1280950Y4087406I100000J34099D01*
G37*
G36*
G01X998191Y2586772D02*
G03X986957Y2559652I27120J-27120D01*
G01X986957Y1985907D01*
G01X986435Y1984568D01*
G01X985237Y1982529D01*
G01X983179Y1979895D01*
G03X1025311Y1887878I42132J-36363D01*
G03X1067443Y1979895I0J55654D01*
G01X1065385Y1982529D01*
G01X1064187Y1984568D01*
G01X1063665Y1985907D01*
G01X1063665Y2543765D01*
G01X1570541Y3050641D01*
G03X1570407Y3047436I38220J-3205D01*
G01X1570407Y2033903D01*
G01X1569884Y2032564D01*
G01X1568687Y2030525D01*
G01X1566629Y2027890D01*
G03X1608761Y1935873I42132J-36363D01*
G03X1650892Y2027890I0J55654D01*
G01X1648834Y2030525D01*
G01X1647637Y2032564D01*
G01X1647115Y2033903D01*
G01X1647115Y3031549D01*
G01X1962586Y3347021D01*
G01X1963902Y3347598D01*
G01X1966191Y3348193D01*
G01X1969509Y3348601D01*
G03X2020911Y3399719I-4079J55504D01*
G03X1978179Y3458279I-55481J4386D01*
G01X2285216Y3765316D01*
G01X3342010Y3765316D01*
G03X3369131Y3776550I0J38354D01*
G01X3493485Y3900905D01*
G01X4186437Y3900905D01*
G03X4213558Y3912138I0J38354D01*
G01X4406441Y4105021D01*
G03X4417674Y4132142I-27120J27120D01*
G01X4417674Y4341536D01*
G01X4446371Y4370232D01*
G01X4447687Y4370810D01*
G01X4449975Y4371404D01*
G01X4453294Y4371812D01*
G03X4488568Y4466670I-4079J55504D01*
G03X4393710Y4431395I-39353J-39353D01*
G01X4393303Y4428077D01*
G01X4392708Y4425789D01*
G01X4392130Y4424473D01*
G01X4352200Y4384543D01*
G03X4340966Y4357422I27120J-27120D01*
G01X4340966Y4148029D01*
G01X4170550Y3977613D01*
G01X3477599Y3977613D01*
G03X3450478Y3966379I0J-38354D01*
G01X3326124Y3842024D01*
G01X2269330Y3842024D01*
G03X2242209Y3830791I0J-38354D01*
G01X998191Y2586772D01*
G37*
G36*
G01X1175296Y3943048D02*
G03X1175296Y3731740I0J-105654D01*
G03X1175296Y3943048I0J105654D01*
G37*
G36*
G01X1660454Y3708400D02*
G03X1489146Y3708400I-85654J0D01*
G03X1660454Y3708400I85654J0D01*
G37*
G36*
G01X4473722Y2953839D02*
G01X4473720Y2950217D01*
G03X4471097Y2893677I40654J-30217D01*
G03X4522511Y2870004I43277J26323D01*
G01X4513161Y2860654D01*
G01X4368214Y2860652D01*
G01X4364592Y2860654D01*
G03X4283720Y2820000I-30217J-40654D01*
G03X4364592Y2779346I50654J0D01*
G01X4368214Y2779348D01*
G01X4530000Y2779346D01*
G03X4558747Y2791253I0J40654D01*
G01X4628747Y2861253D01*
G03X4640654Y2890000I-28747J28747D01*
G01X4640654Y3433161D01*
G01X4829381Y3621888D01*
G03X4875359Y3569559I50619J-1888D01*
G03X4930113Y3612620I4641J50441D01*
G01X4932673Y3615183D01*
G01X5258747Y3941253D01*
G03X5270654Y3970000I-28747J28747D01*
G01X5270654Y5580000D01*
G03X5258747Y5608747I-40654J0D01*
G01X5053147Y5814346D01*
G01X5691161Y5814348D01*
G01X5694783Y5814346D01*
G03X5758994Y5817447I30217J40654D01*
G03X5768452Y5881033I-33994J37553D01*
G01X6981336Y5881033D01*
G03X7069720Y5877222I45255J22755D01*
G03X7026554Y5954442I-43129J26566D01*
G03X7010992Y5957741I-15561J-35055D01*
G01X6705190Y5957741D01*
G03X6734602Y6020301I-24769J49838D01*
G03X6680421Y6063233I-54181J-12721D01*
G01X6347799Y6063233D01*
G03X6340654Y6110218I-47799J16767D01*
G01X6340654Y6113981D01*
G01X6340654Y6114353D01*
G01X6340652Y6186161D01*
G01X6340654Y6189783D01*
G03X6300000Y6270654I-40654J30217D01*
G03X6259346Y6189783I0J-50654D01*
G01X6259348Y6186161D01*
G01X6259347Y6114353D01*
G01X6259347Y6113981D01*
G01X6259347Y6110218D01*
G03X6252202Y6063233I40653J-30218D01*
G01X4696648Y6063233D01*
G01X4585459Y6174422D01*
G03X4546106Y6190722I-39353J-39353D01*
G01X3680681Y6190722D01*
G03X3641328Y6174422I0J-55654D01*
G01X2969488Y5502582D01*
G01X2093519Y5502582D01*
G03X2054165Y5486281I0J-55654D01*
G01X1521111Y4953227D01*
G03X1504811Y4913874I39353J-39353D01*
G01X1504811Y3976735D01*
G03X1521111Y3937382I55654J0D01*
G01X1717494Y3740999D01*
G02X1743146Y3662334I-107793J-78665D01*
G01X1743146Y3648400D01*
G03X1768800Y3622746I25654J0D01*
G01X1888800Y3622746D01*
G03X1914454Y3648400I0J25654D01*
G01X1914454Y3768400D01*
G03X1888800Y3794054I-25654J0D01*
G01X1874866Y3794054D01*
G02X1796201Y3819706I0J133445D01*
G01X1616119Y3999788D01*
G01X1616119Y4890821D01*
G01X1873141Y5147844D01*
G01X1873143Y5101032D01*
G01X1873141Y5097410D01*
G03X1913795Y5016539I40654J-30217D01*
G03X1954449Y5097410I0J50654D01*
G01X1954447Y5101032D01*
G01X1954449Y5134874D01*
G01X2009867Y5190293D01*
G01X3600947Y5190293D01*
G03X3629694Y5202200I0J40654D01*
G01X3754817Y5327327D01*
G01X3757380Y5329886D01*
G03X3785818Y5415818I-7380J50113D01*
G03X3699887Y5387380I-35818J-35818D01*
G01X3697327Y5384817D01*
G01X3584108Y5271601D01*
G01X1996898Y5271601D01*
G01X2116571Y5391274D01*
G01X2992541Y5391274D01*
G03X3031894Y5407575I0J55654D01*
G01X3703734Y6079414D01*
G01X4523053Y6079414D01*
G01X4634242Y5968226D01*
G03X4648826Y5957741I39353J39353D01*
G01X4190937Y5957741D01*
G03X4163816Y5946507I0J-38354D01*
G01X3994931Y5777622D01*
G03X3983697Y5750502I27120J-27120D01*
G01X3983697Y5720174D01*
G01X3983570Y5718820D01*
G01X3983294Y5717704D01*
G01X3983115Y5717266D01*
G01X3982910Y5716960D01*
G03X4022051Y5634153I39141J-32152D01*
G03X4061193Y5716960I0J50654D01*
G01X4060988Y5717266D01*
G01X4060809Y5717704D01*
G01X4060532Y5718820D01*
G01X4060405Y5720174D01*
G01X4060405Y5734615D01*
G01X4206824Y5881033D01*
G01X4331548Y5881033D01*
G03X4341006Y5817447I43452J-26033D01*
G03X4405217Y5814346I33994J37553D01*
G01X4408839Y5814348D01*
G01X4736853Y5814346D01*
G01X4546253Y5623747D01*
G03X4534346Y5595000I28747J-28747D01*
G01X4534348Y5588839D01*
G01X4534346Y5585217D01*
G03X4572456Y5504410I40654J-30217D01*
G03X4618480Y5580987I2544J50590D01*
G01X4786839Y5749345D01*
G01X4788098Y5749345D01*
G03X4771148Y5696609I31902J-39345D01*
G03X4812620Y5659887I48852J13391D01*
G01X4815183Y5657327D01*
G01X4919346Y5553161D01*
G01X4919346Y4126839D01*
G01X4619328Y3826821D01*
G03X4549399Y3777693I-19328J-46821D01*
G03X4623509Y3735132I50601J2308D01*
G03X4652423Y3649916I36490J-35132D01*
G01X4485628Y3483121D01*
G03X4473720Y3454374I28747J-28747D01*
G01X4473722Y2953839D01*
G37*
G36*
G01X1555346Y230000D02*
G03X1766654Y230000I105654J0D01*
G03X1555346Y230000I-105654J0D01*
G37*
G36*
G01X3709348Y5036161D02*
G01X3709346Y4495999D01*
G03X3721253Y4467253I40654J0D01*
G01X3908467Y4280039D01*
G01X3910841Y4277203D01*
G01X3911208Y4276509D01*
G01X3911357Y4275950D01*
G01X3911506Y4273989D01*
G01X3911343Y4269862D01*
G01X3910858Y4263809D01*
G01X3910819Y4263255D01*
G01X3910400Y4256081D01*
G01X3910358Y4254316D01*
G01X3910378Y4252348D01*
G03X4056567Y4189433I85622J-2349D01*
G03X3993651Y4335621I-60567J60567D01*
G01X3991684Y4335642D01*
G01X3989919Y4335599D01*
G01X3982745Y4335180D01*
G01X3982191Y4335142D01*
G01X3976138Y4334656D01*
G01X3972011Y4334494D01*
G01X3970050Y4334642D01*
G01X3969491Y4334792D01*
G01X3968797Y4335158D01*
G01X3965961Y4337532D01*
G01X3790654Y4512839D01*
G01X3790652Y5036161D01*
G01X3790654Y5039783D01*
G03X3794825Y5093592I-40654J30217D01*
G03X3748110Y5120619I-44825J-23591D01*
G01X3754817Y5127327D01*
G01X3757380Y5129887D01*
G03X3785818Y5215818I-7380J50113D01*
G03X3699887Y5187380I-35818J-35818D01*
G01X3697327Y5184817D01*
G01X3687517Y5175009D01*
G01X2065532Y5175009D01*
G03X2036989Y5163304I0J-40654D01*
G01X2035963Y5162314D01*
G03X2003740Y5080675I7421J-50107D01*
G03X2090536Y5093701I39643J31531D01*
G01X3704355Y5093701D01*
G01X3705238Y5093711D01*
G03X3709346Y5039783I44762J-23710D01*
G01X3709348Y5036161D01*
G37*
G36*
G01X2175183Y2872673D02*
G01X2172620Y2870113D01*
G03X2144182Y2784182I7380J-50113D01*
G03X2230114Y2812620I35818J35818D01*
G01X2232673Y2815183D01*
G01X2314743Y2897249D01*
G03X2386584Y2876882I45257J22751D01*
G03X2400654Y2950217I-26584J43118D01*
G01X2400652Y2953839D01*
G01X2400654Y3419053D01*
G03X2406660Y3486133I-34687J36914D01*
G03X2340732Y3499888I-40692J-30165D01*
G03X2299935Y3580654I-40732J30112D01*
G03X2259346Y3499783I65J-50654D01*
G01X2259348Y3496161D01*
G01X2259346Y2956839D01*
G01X2175183Y2872673D01*
G37*
G36*
G01X2355446Y230000D02*
G03X2566754Y230000I105654J0D01*
G03X2355446Y230000I-105654J0D01*
G37*
G36*
G01X2590800Y1840554D02*
G03X2590800Y1639246I0J-100654D01*
G01X6930910Y1639246D01*
G03X6952744Y1636849I21834J98257D01*
G01X6979204Y1636849D01*
G03X7090393Y1800380I40016J92358D01*
G01X7082097Y1808676D01*
G03X7010924Y1838157I-71173J-71173D01*
G01X6972181Y1838157D01*
G03X6950347Y1840554I-21834J-98257D01*
G01X2590800Y1840554D01*
G37*
G36*
G01X2763839Y2810652D02*
G01X2760217Y2810654D01*
G03X2679346Y2770000I-30217J-40654D01*
G03X2760217Y2729346I50654J0D01*
G01X2763839Y2729348D01*
G01X2864761Y2729347D01*
G01X2865059Y2729347D01*
G01X2872278Y2729346D01*
G03X2945742Y2781650I23347J44953D01*
G03X2860352Y2810654I-50118J-7351D01*
G01X2763839Y2810652D01*
G37*
G36*
G01X3136999Y129346D02*
G03X3162653Y155000I0J25654D01*
G01X3162653Y305000D01*
G03X3136999Y330654I-25654J0D01*
G01X2986999Y330654D01*
G03X2961345Y305000I0J-25654D01*
G01X2961345Y155000D01*
G03X2986999Y129346I25654J0D01*
G01X3136999Y129346D01*
G37*
G36*
G01X3248118Y4658737D02*
G03X3293772Y4746220I0J55654D01*
G01X3293772Y4992485D01*
G03X3252247Y5081956I-44154J33879D01*
G03X3202465Y4996803I-2629J-55592D01*
G01X3202465Y4746220D01*
G03X3248118Y4658737I45654J-31829D01*
G37*
G36*
G01X3225345Y230000D02*
G03X3426653Y230000I100654J0D01*
G03X3225345Y230000I-100654J0D01*
G37*
G36*
G01X3479345Y230000D02*
G03X3680653Y230000I100654J0D01*
G03X3479345Y230000I-100654J0D01*
G37*
G36*
G01X3738345Y230000D02*
G03X3949653Y230000I105654J0D01*
G03X3738345Y230000I-105654J0D01*
G37*
G36*
G01X3801406Y2780753D02*
G03X3842060Y2861624I0J50654D01*
G01X3842060Y2865643D01*
G01X3842058Y3587567D01*
G01X3842060Y3591189D01*
G03X3801406Y3672060I-40654J30217D01*
G03X3760753Y3591189I0J-50654D01*
G01X3760755Y3587567D01*
G01X3760753Y2865504D01*
G01X3760753Y2861624D01*
G03X3801406Y2780753I40654J-30217D01*
G37*
G36*
G01X4335654Y4249999D02*
G03X4164346Y4249999I-85654J0D01*
G03X4335654Y4249999I85654J0D01*
G37*
G36*
G01X4759348Y4816160D02*
G01X4759346Y4562839D01*
G01X4534039Y4337532D01*
G01X4531203Y4335158D01*
G01X4530509Y4334792D01*
G01X4529951Y4334642D01*
G01X4527989Y4334494D01*
G01X4523863Y4334656D01*
G01X4517809Y4335142D01*
G01X4517256Y4335180D01*
G01X4510081Y4335599D01*
G01X4508317Y4335642D01*
G01X4506349Y4335621D01*
G03X4443434Y4189433I-2349J-85622D01*
G03X4589622Y4252348I60567J60567D01*
G01X4589642Y4254316D01*
G01X4589600Y4256081D01*
G01X4589181Y4263255D01*
G01X4589142Y4263809D01*
G01X4588657Y4269862D01*
G01X4588495Y4273989D01*
G01X4588643Y4275950D01*
G01X4588793Y4276509D01*
G01X4589159Y4277203D01*
G01X4591533Y4280039D01*
G01X4828747Y4517253D01*
G03X4840654Y4545999I-28747J28747D01*
G01X4840652Y4816160D01*
G01X4840654Y4819782D01*
G03X4800000Y4900653I-40654J30217D01*
G03X4759346Y4819782I0J-50654D01*
G01X4759348Y4816160D01*
G37*
G36*
G01X5005300Y140646D02*
G03X5030954Y166300I0J25654D01*
G01X5030954Y316300D01*
G03X5005300Y341954I-25654J0D01*
G01X4855300Y341954D01*
G03X4829646Y316300I0J-25654D01*
G01X4829646Y166300D01*
G03X4855300Y140646I25654J0D01*
G01X5005300Y140646D01*
G37*
G36*
G01X4918213Y2810652D02*
G01X4914591Y2810654D01*
G03X4833720Y2770000I-30217J-40654D01*
G03X4914591Y2729346I50654J0D01*
G01X4918213Y2729348D01*
G01X5019135Y2729347D01*
G01X5019433Y2729347D01*
G01X5026652Y2729346D01*
G03X5100117Y2781650I23347J44953D01*
G03X5014726Y2810654I-50118J-7351D01*
G01X4918213Y2810652D01*
G37*
G36*
G01X5093646Y241300D02*
G03X5294954Y241300I100654J0D01*
G03X5093646Y241300I-100654J0D01*
G37*
G36*
G01X5347646Y241300D02*
G03X5548954Y241300I100654J0D01*
G03X5347646Y241300I-100654J0D01*
G37*
G36*
G01X5559349Y4293839D02*
G01X5559347Y4290217D01*
G03X5600000Y4209346I40654J-30217D01*
G03X5640654Y4290217I0J50654D01*
G01X5640652Y4293839D01*
G01X5640654Y4529991D01*
G01X5640652Y4646160D01*
G01X5640654Y4649782D01*
G03X5600000Y4730653I-40654J30217D01*
G03X5559347Y4649782I0J-50654D01*
G01X5559349Y4646160D01*
G01X5559348Y4530279D01*
G01X5559347Y4529991D01*
G01X5559347Y4473807D01*
G01X5559347Y4420000D01*
G01X5559347Y4419719D01*
G01X5559349Y4293839D01*
G37*
G36*
G01X5606646Y241300D02*
G03X5817954Y241300I105654J0D01*
G03X5606646Y241300I-105654J0D01*
G37*
G36*
G01X5961310Y2786282D02*
G03X6001964Y2867153I0J50654D01*
G01X6001964Y2871172D01*
G01X6001962Y3586161D01*
G01X6001964Y3589783D01*
G03X5961310Y3670654I-40654J30217D01*
G03X5920656Y3589783I0J-50654D01*
G01X5920658Y3586161D01*
G01X5920656Y2871033D01*
G01X5920656Y2867153D01*
G03X5961310Y2786282I40654J-30217D01*
G37*
G36*
G01X7811400Y5724346D02*
G03X7811400Y5835654I0J55654D01*
G01X6040000Y5835654D01*
G03X6040000Y5724346I0J-55654D01*
G01X6909596Y5724346D01*
G03X6918605Y5724346I4504J50453D01*
G01X7811400Y5724346D01*
G37*
G36*
G01X6059348Y4386161D02*
G01X6059346Y3475284D01*
G03X6113646Y3403447I45663J-21924D01*
G03X6140651Y3489353I-8637J49912D01*
G01X6140654Y3490865D01*
G01X6140654Y4389783D01*
G03X6100000Y4470654I-40654J30217D01*
G03X6059346Y4389783I0J-50654D01*
G01X6059348Y4386161D01*
G37*
G36*
G01X6139884Y4920581D02*
G01X6137322Y4918021D01*
G03X6108884Y4832090I7380J-50113D01*
G03X6194815Y4860528I35818J35818D01*
G01X6197375Y4863091D01*
G01X6206006Y4871720D01*
G01X6376514Y4871720D01*
G01X6378521Y4871512D01*
G01X6380631Y4870955D01*
G01X6382190Y4870294D01*
G01X6383298Y4869550D01*
G03X6474498Y4912374I35546J42824D01*
G03X6383298Y4955198I-55654J0D01*
G01X6382190Y4954455D01*
G01X6380631Y4953794D01*
G01X6378521Y4953237D01*
G01X6376514Y4953028D01*
G01X6189168Y4953028D01*
G03X6160421Y4941121I0J-40654D01*
G01X6139884Y4920581D01*
G37*
G36*
G01X6749600Y298846D02*
G03X6775254Y324500I0J25654D01*
G01X6775254Y624500D01*
G03X6749600Y650154I-25654J0D01*
G01X6489600Y650154D01*
G03X6463946Y624500I0J-25654D01*
G01X6463946Y324500D01*
G03X6489600Y298846I25654J0D01*
G01X6749600Y298846D01*
G37*
G36*
G01X8899871Y2877039D02*
G01X8899871Y2388993D01*
G03X8913242Y2356711I45654J0D01*
G01X9217435Y2052518D01*
G03X9249717Y2039147I32282J32282D01*
G01X9366950Y2039147D01*
G01X9370001Y2039016D01*
G01X9371852Y2038761D01*
G01X9373185Y2038435D01*
G01X9374207Y2038064D01*
G01X9375137Y2037610D01*
G01X9375756Y2037226D01*
G01X9379049Y2034558D01*
G01X9382973Y2030570D01*
G01X9388031Y2024939D01*
G01X9388241Y2024708D01*
G01X9394210Y2018222D01*
G01X9395238Y2017168D01*
G01X9397534Y2014944D01*
G03X9570654Y2084801I72466J69857D01*
G03X9397534Y2154657I-100654J0D01*
G01X9395238Y2152433D01*
G01X9394210Y2151379D01*
G01X9388241Y2144893D01*
G01X9388031Y2144662D01*
G01X9382973Y2139031D01*
G01X9379049Y2135043D01*
G01X9375756Y2132375D01*
G01X9375137Y2131991D01*
G01X9374207Y2131537D01*
G01X9373185Y2131166D01*
G01X9371852Y2130840D01*
G01X9370001Y2130585D01*
G01X9366950Y2130454D01*
G01X9268628Y2130454D01*
G01X8991179Y2407903D01*
G01X8991179Y2895949D01*
G03X8977807Y2928231I-45654J0D01*
G01X8845391Y3060647D01*
G01X8845391Y3761074D01*
G03X8832020Y3793356I-45654J0D01*
G01X8684375Y3941001D01*
G01X8817424Y3941001D01*
G01X9020160Y3738264D01*
G01X9020160Y2742986D01*
G03X9033532Y2710704I45654J0D01*
G01X9364851Y2379385D01*
G01X9366915Y2377136D01*
G01X9368044Y2375646D01*
G01X9368756Y2374473D01*
G01X9369217Y2373489D01*
G01X9369553Y2372510D01*
G01X9369719Y2371800D01*
G01X9370161Y2367586D01*
G01X9370116Y2361991D01*
G01X9369710Y2354433D01*
G01X9369696Y2354121D01*
G01X9369331Y2345314D01*
G01X9369312Y2343842D01*
G01X9369363Y2340646D01*
G03X9541173Y2267627I100637J-1845D01*
G03X9468155Y2439438I-71173J71173D01*
G01X9464958Y2439489D01*
G01X9463487Y2439470D01*
G01X9454679Y2439105D01*
G01X9454367Y2439090D01*
G01X9446809Y2438684D01*
G01X9441215Y2438639D01*
G01X9437000Y2439081D01*
G01X9436291Y2439247D01*
G01X9435312Y2439583D01*
G01X9434327Y2440044D01*
G01X9433154Y2440756D01*
G01X9431665Y2441885D01*
G01X9429415Y2443950D01*
G01X9111468Y2761897D01*
G01X9111468Y3757174D01*
G03X9098096Y3789457I-45654J0D01*
G01X8868616Y4018937D01*
G03X8836334Y4032308I-32282J-32282D01*
G01X7702145Y4032308D01*
G01X7669193Y4065260D01*
G01X7669193Y4673263D01*
G03X7623539Y4760746I-45654J31829D01*
G03X7577885Y4673263I0J-55654D01*
G01X7577885Y4049177D01*
G01X7440013Y4187049D01*
G01X7440013Y4265030D01*
G03X7426641Y4297313I-45654J0D01*
G01X6595660Y5128294D01*
G01X6595660Y5379499D01*
G01X6595820Y5383590D01*
G01X6596178Y5386852D01*
G01X6596975Y5391033D01*
G03X6550006Y5460654I-46969J18967D01*
G03X6503037Y5391033I0J-50654D01*
G01X6503834Y5386852D01*
G01X6504192Y5383590D01*
G01X6504352Y5379499D01*
G01X6504352Y5109383D01*
G03X6517724Y5077101I45654J0D01*
G01X7348705Y4246120D01*
G01X7348705Y4168139D01*
G03X7362077Y4135857I45654J0D01*
G01X7615255Y3882678D01*
G03X7647537Y3869307I32282J32282D01*
G01X8626940Y3869307D01*
G01X8754083Y3742164D01*
G01X8754083Y3041736D01*
G03X8767455Y3009454I45654J0D01*
G01X8899871Y2877039D01*
G37*
G36*
G01X6859946Y474500D02*
G03X7171254Y474500I155654J0D01*
G03X6859946Y474500I-155654J0D01*
G37*
G36*
G01X7192656Y4594281D02*
G03X7264291Y4594281I35818J35818D01*
G03X7264291Y4665916I-35818J35818D01*
G01X7123441Y4806767D01*
G01X7123441Y5409131D01*
G03X7022133Y5409131I-50654J0D01*
G01X7022133Y4785785D01*
G03X7036969Y4749967I50654J0D01*
G01X7192656Y4594281D01*
G37*
G36*
G01X9362389Y4777233D02*
G01X9363715Y4775477D01*
G01X9364534Y4774112D01*
G01X9365042Y4772997D01*
G01X9365391Y4771922D01*
G01X9365557Y4771134D01*
G01X9365905Y4766541D01*
G01X9365662Y4760373D01*
G01X9365001Y4752129D01*
G01X9364963Y4751575D01*
G01X9364404Y4742009D01*
G01X9364361Y4740245D01*
G01X9364390Y4737456D01*
G03X9544709Y4659691I105610J-3056D01*
G03X9466944Y4840010I-74709J74709D01*
G01X9464156Y4840039D01*
G01X9462391Y4839997D01*
G01X9452825Y4839437D01*
G01X9452271Y4839399D01*
G01X9444027Y4838738D01*
G01X9437860Y4838495D01*
G01X9433266Y4838843D01*
G01X9432478Y4839009D01*
G01X9431403Y4839358D01*
G01X9430288Y4839866D01*
G01X9428923Y4840685D01*
G01X9427167Y4842011D01*
G01X9424582Y4844383D01*
G01X9173121Y5095843D01*
G03X9140839Y5109215I-32282J-32282D01*
G01X7324197Y5109215D01*
G03X7236714Y5063561I-31829J-45654D01*
G03X7324197Y5017907I55654J0D01*
G01X9121928Y5017907D01*
G01X9360017Y4779818D01*
G01X9362389Y4777233D01*
G37*
G36*
G01X7271394Y3163280D02*
G03X7288513Y3126959I50627J1667D01*
G03X7284535Y3056616I34351J-37227D01*
G03X7354711Y3050342I38329J33117D01*
G03X7418406Y3050342I31847J39390D01*
G03X7482100Y3050342I31847J39390D01*
G03X7552645Y3057048I31847J39390D01*
G03X7547454Y3127721I-38698J32685D01*
G03X7551981Y3197419I-34351J37227D01*
G03X7555533Y3264849I-35934J35701D01*
G03X7554949Y3325168I-40985J29766D01*
G03X7552136Y3393154I-38902J32441D01*
G03X7484200Y3396999I-36088J-35545D01*
G03X7420505Y3396999I-31847J-39390D01*
G03X7356811Y3396999I-31847J-39390D01*
G03X7289732Y3394003I-31847J-39390D01*
G03X7284562Y3327056I35232J-36394D01*
G03X7283978Y3262886I38902J-32441D01*
G03X7286086Y3200649I40985J-29766D01*
G03X7271394Y3163280I35934J-35701D01*
G37*
G36*
G01X7651946Y474500D02*
G03X7963254Y474500I155654J0D01*
G03X7651946Y474500I-155654J0D01*
G37*
G36*
G01X9056993Y4264472D02*
G01X9360938Y3960527D01*
G01X9364084Y3956798D01*
G01X9365685Y3954032D01*
G01X9366886Y3950821D01*
G01X9367822Y3946624D01*
G01X9368472Y3941174D01*
G01X9368864Y3934379D01*
G01X9369370Y3920902D01*
G03X9541173Y3851927I100630J2198D01*
G03X9472198Y4023730I-71173J71173D01*
G01X9458721Y4024236D01*
G01X9451926Y4024628D01*
G01X9446476Y4025278D01*
G01X9442279Y4026214D01*
G01X9439068Y4027415D01*
G01X9436302Y4029016D01*
G01X9432573Y4032162D01*
G01X9113792Y4350944D01*
G03X9077974Y4365780I-35818J-35818D01*
G01X7763747Y4365780D01*
G01X7758295Y4365957D01*
G01X7753621Y4366381D01*
G01X7745882Y4367597D01*
G03X7671676Y4315126I-18551J-52471D01*
G03X7745882Y4262655I55654J0D01*
G01X7753621Y4263871D01*
G01X7758295Y4264295D01*
G01X7763747Y4264472D01*
G01X9056993Y4264472D01*
G37*
G36*
G01X7738571Y4469013D02*
G03X7794224Y4413359I55654J0D01*
G01X8522541Y4413359D01*
G03X8596627Y4497589I11420J64653D01*
G03X8487768Y4524667I-62667J-19578D01*
G01X7794224Y4524667D01*
G03X7738571Y4469013I0J-55654D01*
G37*
G36*
G01X8289600Y2047946D02*
G03X8315254Y2073600I0J25654D01*
G01X8315254Y2193600D01*
G03X8289600Y2219254I-25654J0D01*
G01X8169600Y2219254D01*
G03X8143946Y2193600I0J-25654D01*
G01X8143946Y2073600D01*
G03X8169600Y2047946I25654J0D01*
G01X8289600Y2047946D01*
G37*
G36*
G01X8397946Y2133600D02*
G03X8569254Y2133600I85654J0D01*
G03X8397946Y2133600I-85654J0D01*
G37*
G36*
G01X9357440Y2890653D02*
G01X9360259Y2887342D01*
G01X9362287Y2884097D01*
G01X9364176Y2880021D01*
G01X9365838Y2875175D01*
G01X9367211Y2869697D01*
G01X9368220Y2864034D01*
G01X9369536Y2850621D01*
G03X9541173Y2785627I100464J6180D01*
G03X9476179Y2957265I-71173J71173D01*
G01X9462766Y2958580D01*
G01X9457104Y2959589D01*
G01X9451625Y2960962D01*
G01X9446780Y2962624D01*
G01X9442703Y2964513D01*
G01X9439459Y2966541D01*
G01X9436147Y2969360D01*
G01X9257956Y3147551D01*
G01X9257956Y3455401D01*
G03X9146648Y3455401I-55654J0D01*
G01X9146648Y3124498D01*
G03X9162949Y3085145I55654J0D01*
G01X9357440Y2890653D01*
G37*
G36*
G01X9570654Y3474100D02*
G03X9545000Y3499754I-25654J0D01*
G01X9395000Y3499754D01*
G03X9369346Y3474100I0J-25654D01*
G01X9369346Y3324100D01*
G03X9395000Y3298446I25654J0D01*
G01X9545000Y3298446D01*
G03X9570654Y3324100I0J25654D01*
G01X9570654Y3474100D01*
G37*
%LPD*%
G04 Copper End*

G04 TearDrop Start*
G36*
G01X9379844Y3977901D02*
G01X9415199Y4013256D01*
G01X9421489Y4007947D01*
G01X9428074Y4004137D01*
G01X9434959Y4001562D01*
G01X9442154Y3999958D01*
G01X9449666Y3999062D01*
G01X9457501Y3998609D01*
G01X9474173Y3997984D01*
G01X9395116Y3918927D01*
G01X9394491Y3935599D01*
G01X9394038Y3943434D01*
G01X9393142Y3950946D01*
G01X9391538Y3958141D01*
G01X9388963Y3965026D01*
G01X9385153Y3971611D01*
G01X9379844Y3977901D01*
G37*
G36*
G01X9378548Y4797568D02*
G01X9406832Y4825852D01*
G01X9410729Y4822277D01*
G01X9414554Y4819389D01*
G01X9418333Y4817122D01*
G01X9422091Y4815410D01*
G01X9425851Y4814188D01*
G01X9429638Y4813390D01*
G01X9437394Y4812803D01*
G01X9445557Y4813124D01*
G01X9454322Y4813827D01*
G01X9463888Y4814386D01*
G01X9474451Y4814276D01*
G01X9390124Y4729949D01*
G01X9390014Y4740512D01*
G01X9390573Y4750078D01*
G01X9391276Y4758843D01*
G01X9391597Y4767006D01*
G01X9391010Y4774762D01*
G01X9390212Y4778549D01*
G01X9388990Y4782310D01*
G01X9387278Y4786067D01*
G01X9385011Y4789846D01*
G01X9382123Y4793671D01*
G01X9378548Y4797568D01*
G37*
G36*
G01X4551376Y4318589D02*
G01X4572589Y4297376D01*
G01X4567742Y4291584D01*
G01X4564758Y4285932D01*
G01X4563243Y4280271D01*
G01X4562803Y4274454D01*
G01X4563043Y4268332D01*
G01X4563571Y4261758D01*
G01X4563990Y4254584D01*
G01X4563907Y4246661D01*
G01X4500662Y4309906D01*
G01X4508584Y4309989D01*
G01X4515759Y4309570D01*
G01X4522333Y4309043D01*
G01X4528454Y4308802D01*
G01X4534272Y4309242D01*
G01X4539932Y4310757D01*
G01X4545585Y4313741D01*
G01X4551376Y4318589D01*
G37*
G36*
G01X3927411Y4297376D02*
G01X3948624Y4318589D01*
G01X3954416Y4313741D01*
G01X3960068Y4310757D01*
G01X3965729Y4309242D01*
G01X3971546Y4308802D01*
G01X3977668Y4309043D01*
G01X3984242Y4309570D01*
G01X3991416Y4309989D01*
G01X3999339Y4309906D01*
G01X3936093Y4246661D01*
G01X3936010Y4254584D01*
G01X3936430Y4261758D01*
G01X3936957Y4268332D01*
G01X3937198Y4274454D01*
G01X3936758Y4280271D01*
G01X3935243Y4285932D01*
G01X3932258Y4291584D01*
G01X3927411Y4297376D01*
G37*
G36*
G01X9376308Y2908066D02*
G01X9418735Y2950492D01*
G01X9424265Y2945784D01*
G01X9430464Y2941910D01*
G01X9437198Y2938790D01*
G01X9444331Y2936342D01*
G01X9451730Y2934488D01*
G01X9459260Y2933147D01*
G01X9474173Y2931684D01*
G01X9395116Y2852627D01*
G01X9393653Y2867541D01*
G01X9392312Y2875070D01*
G01X9390458Y2882469D01*
G01X9388011Y2889602D01*
G01X9384890Y2896336D01*
G01X9381016Y2902535D01*
G01X9376308Y2908066D01*
G37*
G36*
G01X9367500Y2064801D02*
G01X9367500Y2104800D01*
G01X9372306Y2105006D01*
G01X9376663Y2105607D01*
G01X9380624Y2106575D01*
G01X9384240Y2107886D01*
G01X9387565Y2109512D01*
G01X9390652Y2111427D01*
G01X9396321Y2116020D01*
G01X9401669Y2121454D01*
G01X9407116Y2127520D01*
G01X9413086Y2134006D01*
G01X9420000Y2140702D01*
G01X9420000Y2028899D01*
G01X9413086Y2035595D01*
G01X9407116Y2042081D01*
G01X9401669Y2048147D01*
G01X9396321Y2053581D01*
G01X9390652Y2058174D01*
G01X9387565Y2060089D01*
G01X9384240Y2061715D01*
G01X9380624Y2063026D01*
G01X9376663Y2063994D01*
G01X9372306Y2064595D01*
G01X9367500Y2064801D01*
G37*
G36*
G01X9383379Y2397137D02*
G01X9411664Y2425421D01*
G01X9415208Y2422168D01*
G01X9418713Y2419512D01*
G01X9422199Y2417396D01*
G01X9425682Y2415765D01*
G01X9429183Y2414564D01*
G01X9432720Y2413735D01*
G01X9439976Y2412975D01*
G01X9447600Y2413036D01*
G01X9455741Y2413473D01*
G01X9464549Y2413838D01*
G01X9474173Y2413684D01*
G01X9395116Y2334627D01*
G01X9394963Y2344251D01*
G01X9395328Y2353059D01*
G01X9395764Y2361200D01*
G01X9395826Y2368824D01*
G01X9395065Y2376080D01*
G01X9394237Y2379617D01*
G01X9393035Y2383118D01*
G01X9391404Y2386602D01*
G01X9389289Y2390087D01*
G01X9386632Y2393593D01*
G01X9383379Y2397137D01*
G37*
G36*
G01X1736980Y3757793D02*
G01X1779407Y3800220D01*
G03X1874866Y3768400I95459J127279D01*
G01X1768800Y3662334D01*
G03X1736980Y3757793I-159099J0D01*
G37*
G36*
G01X3765000Y5035834D02*
G01X3735000Y5035834D01*
G01X3735062Y5040698D01*
G01X3734863Y5045225D01*
G01X3733824Y5049431D01*
G01X3732808Y5051419D01*
G01X3731366Y5053334D01*
G01X3768634Y5053334D01*
G01X3767192Y5051419D01*
G01X3766177Y5049431D01*
G01X3765137Y5045225D01*
G01X3764938Y5040698D01*
G01X3765000Y5035834D01*
G37*
G36*
G01X3736447Y5345234D02*
G01X3715234Y5366447D01*
G01X3718718Y5369843D01*
G01X3721778Y5373185D01*
G01X3724017Y5376894D01*
G01X3724705Y5379018D01*
G01X3725039Y5381391D01*
G01X3751391Y5355039D01*
G01X3749018Y5354705D01*
G01X3746894Y5354017D01*
G01X3743185Y5351778D01*
G01X3739843Y5348718D01*
G01X3736447Y5345234D01*
G37*
G36*
G01X3736447Y5145234D02*
G01X3715234Y5166447D01*
G01X3718718Y5169843D01*
G01X3721778Y5173185D01*
G01X3724017Y5176894D01*
G01X3724705Y5179018D01*
G01X3725039Y5181391D01*
G01X3751391Y5155039D01*
G01X3749018Y5154705D01*
G01X3746894Y5154017D01*
G01X3743185Y5151778D01*
G01X3739843Y5148718D01*
G01X3736447Y5145234D01*
G37*
G36*
G01X4918541Y2785000D02*
G01X4918541Y2755000D01*
G01X4913676Y2755062D01*
G01X4909149Y2754863D01*
G01X4904943Y2753824D01*
G01X4902955Y2752808D01*
G01X4901041Y2751366D01*
G01X4901041Y2788634D01*
G01X4902955Y2787192D01*
G01X4904943Y2786177D01*
G01X4909149Y2785137D01*
G01X4913676Y2784938D01*
G01X4918541Y2785000D01*
G37*
G36*
G01X5019285Y2755000D02*
G01X5012876Y2785000D01*
G01X5017907Y2784991D01*
G01X5022605Y2785376D01*
G01X5024780Y2785908D01*
G01X5026813Y2786770D01*
G01X5028685Y2788038D01*
G01X5030376Y2789789D01*
G01X5036785Y2753077D01*
G01X5032483Y2754984D01*
G01X5028443Y2755467D01*
G01X5019285Y2755000D01*
G37*
G36*
G01X2864911Y2755000D02*
G01X2858502Y2785000D01*
G01X2863533Y2784991D01*
G01X2868231Y2785376D01*
G01X2870406Y2785908D01*
G01X2872439Y2786770D01*
G01X2874311Y2788038D01*
G01X2876002Y2789789D01*
G01X2882411Y2753077D01*
G01X2878109Y2754984D01*
G01X2874069Y2755467D01*
G01X2864911Y2755000D01*
G37*
G36*
G01X2764166Y2785000D02*
G01X2764166Y2755000D01*
G01X2759302Y2755062D01*
G01X2754775Y2754863D01*
G01X2750569Y2753824D01*
G01X2748581Y2752808D01*
G01X2746667Y2751366D01*
G01X2746667Y2788634D01*
G01X2748581Y2787192D01*
G01X2750569Y2786177D01*
G01X2754775Y2785137D01*
G01X2759302Y2784938D01*
G01X2764166Y2785000D01*
G37*
G36*
G01X6315000Y6185833D02*
G01X6285000Y6185833D01*
G01X6285062Y6190698D01*
G01X6284863Y6195225D01*
G01X6283824Y6199431D01*
G01X6282809Y6201419D01*
G01X6281366Y6203333D01*
G01X6318634Y6203333D01*
G01X6317192Y6201419D01*
G01X6316177Y6199431D01*
G01X6315138Y6195225D01*
G01X6314938Y6190698D01*
G01X6315000Y6185833D01*
G37*
G36*
G01X6285000Y6114167D02*
G01X6315000Y6114167D01*
G01X6314938Y6109302D01*
G01X6315138Y6104775D01*
G01X6316177Y6100569D01*
G01X6317192Y6098581D01*
G01X6318634Y6096667D01*
G01X6281366Y6096667D01*
G01X6282809Y6098581D01*
G01X6283824Y6100569D01*
G01X6284863Y6104775D01*
G01X6285062Y6109302D01*
G01X6285000Y6114167D01*
G37*
G36*
G01X6115000Y4385833D02*
G01X6085000Y4385833D01*
G01X6085062Y4390698D01*
G01X6084863Y4395225D01*
G01X6083824Y4399431D01*
G01X6082809Y4401419D01*
G01X6081366Y4403333D01*
G01X6118634Y4403333D01*
G01X6117192Y4401419D01*
G01X6116177Y4399431D01*
G01X6115138Y4395225D01*
G01X6114938Y4390698D01*
G01X6115000Y4385833D01*
G37*
G36*
G01X6158255Y4902674D02*
G01X6179468Y4881461D01*
G01X6175984Y4878065D01*
G01X6172924Y4874723D01*
G01X6170685Y4871014D01*
G01X6169997Y4868890D01*
G01X6169663Y4866517D01*
G01X6143311Y4892869D01*
G01X6145684Y4893203D01*
G01X6147808Y4893891D01*
G01X6151517Y4896130D01*
G01X6154859Y4899190D01*
G01X6158255Y4902674D01*
G37*
G36*
G01X6085000Y3483454D02*
G01X6115000Y3490921D01*
G01X6114989Y3485849D01*
G01X6115381Y3481125D01*
G01X6115927Y3478948D01*
G01X6116814Y3476924D01*
G01X6118120Y3475075D01*
G01X6119926Y3473422D01*
G01X6083414Y3465954D01*
G01X6085233Y3470342D01*
G01X6085603Y3474327D01*
G01X6085000Y3483454D01*
G37*
G36*
G01X4893553Y3654766D02*
G01X4914766Y3633553D01*
G01X4911282Y3630157D01*
G01X4908222Y3626815D01*
G01X4905983Y3623106D01*
G01X4905295Y3620982D01*
G01X4904961Y3618609D01*
G01X4878609Y3644961D01*
G01X4880982Y3645295D01*
G01X4883106Y3645983D01*
G01X4886815Y3648222D01*
G01X4890157Y3651282D01*
G01X4893553Y3654766D01*
G37*
G36*
G01X4560000Y5589167D02*
G01X4590000Y5589167D01*
G01X4589938Y5584302D01*
G01X4590137Y5579775D01*
G01X4591176Y5575569D01*
G01X4592192Y5573581D01*
G01X4593634Y5571667D01*
G01X4556366Y5571667D01*
G01X4557808Y5573581D01*
G01X4558824Y5575569D01*
G01X4559863Y5579775D01*
G01X4560062Y5584302D01*
G01X4560000Y5589167D01*
G37*
G36*
G01X6570006Y5380000D02*
G01X6530006Y5380000D01*
G01X6529791Y5385492D01*
G01X6529225Y5390659D01*
G01X6527506Y5399673D01*
G01X6525787Y5406350D01*
G01X6525006Y5410000D01*
G01X6575006Y5410000D01*
G01X6574225Y5406350D01*
G01X6572506Y5399673D01*
G01X6570787Y5390659D01*
G01X6570221Y5385492D01*
G01X6570006Y5380000D01*
G37*
G36*
G01X5690833Y5840000D02*
G01X5690833Y5870000D01*
G01X5695698Y5869938D01*
G01X5700225Y5870137D01*
G01X5704431Y5871176D01*
G01X5706419Y5872192D01*
G01X5708333Y5873634D01*
G01X5708333Y5836366D01*
G01X5706419Y5837808D01*
G01X5704431Y5838824D01*
G01X5700225Y5839863D01*
G01X5695698Y5840062D01*
G01X5690833Y5840000D01*
G37*
G36*
G01X4409166Y5870000D02*
G01X4409166Y5840000D01*
G01X4404302Y5840062D01*
G01X4399775Y5839863D01*
G01X4395569Y5838824D01*
G01X4393581Y5837808D01*
G01X4391667Y5836366D01*
G01X4391667Y5873634D01*
G01X4393581Y5872192D01*
G01X4395569Y5871176D01*
G01X4399775Y5870137D01*
G01X4404302Y5869938D01*
G01X4409166Y5870000D01*
G37*
G36*
G01X2315000Y3495833D02*
G01X2285000Y3495833D01*
G01X2285062Y3500698D01*
G01X2284863Y3505225D01*
G01X2283824Y3509431D01*
G01X2282808Y3511419D01*
G01X2281366Y3513333D01*
G01X2318634Y3513333D01*
G01X2317192Y3511419D01*
G01X2316176Y3509431D01*
G01X2315137Y3505225D01*
G01X2314938Y3500698D01*
G01X2315000Y3495833D01*
G37*
G36*
G01X4630000Y3795000D02*
G01X4630000Y3765000D01*
G01X4626447Y3764867D01*
G01X4622891Y3764342D01*
G01X4619556Y3763238D01*
G01X4616667Y3761366D01*
G01X4616667Y3798634D01*
G01X4619556Y3796762D01*
G01X4622891Y3795658D01*
G01X4626447Y3795133D01*
G01X4630000Y3795000D01*
G37*
G36*
G01X2375000Y3417835D02*
G01X2345000Y3426730D01*
G01X2345336Y3431760D01*
G01X2345804Y3435819D01*
G01X2345594Y3439708D01*
G01X2343894Y3444230D01*
G01X2380084Y3435335D01*
G01X2378205Y3433734D01*
G01X2376849Y3431916D01*
G01X2375933Y3429907D01*
G01X2375373Y3427729D01*
G01X2374981Y3422970D01*
G01X2375000Y3417835D01*
G37*
G36*
G01X4673553Y3734766D02*
G01X4694766Y3713553D01*
G01X4691282Y3710157D01*
G01X4688222Y3706815D01*
G01X4685983Y3703106D01*
G01X4685295Y3700982D01*
G01X4684961Y3698609D01*
G01X4658609Y3724961D01*
G01X4660982Y3725295D01*
G01X4663106Y3725983D01*
G01X4666815Y3728222D01*
G01X4670157Y3731282D01*
G01X4673553Y3734766D01*
G37*
G36*
G01X5976310Y3585834D02*
G01X5946310Y3585834D01*
G01X5946372Y3590698D01*
G01X5946173Y3595225D01*
G01X5945134Y3599431D01*
G01X5944118Y3601419D01*
G01X5942676Y3603333D01*
G01X5979944Y3603333D01*
G01X5978502Y3601419D01*
G01X5977487Y3599431D01*
G01X5976447Y3595225D01*
G01X5976248Y3590698D01*
G01X5976310Y3585834D01*
G37*
G36*
G01X3816406Y3587240D02*
G01X3786406Y3587240D01*
G01X3786469Y3592104D01*
G01X3786269Y3596631D01*
G01X3785230Y3600838D01*
G01X3784215Y3602826D01*
G01X3782773Y3604740D01*
G01X3820040Y3604740D01*
G01X3818598Y3602826D01*
G01X3817583Y3600838D01*
G01X3816544Y3596631D01*
G01X3816344Y3592104D01*
G01X3816406Y3587240D01*
G37*
G36*
G01X5946310Y2871103D02*
G01X5976310Y2871103D01*
G01X5976248Y2866238D01*
G01X5976447Y2861711D01*
G01X5977487Y2857505D01*
G01X5978502Y2855517D01*
G01X5979944Y2853603D01*
G01X5942676Y2853603D01*
G01X5944118Y2855517D01*
G01X5945134Y2857505D01*
G01X5946173Y2861711D01*
G01X5946372Y2866238D01*
G01X5946310Y2871103D01*
G37*
G36*
G01X3786406Y2865573D02*
G01X3816406Y2865573D01*
G01X3816344Y2860709D01*
G01X3816544Y2856182D01*
G01X3817583Y2851975D01*
G01X3818598Y2849987D01*
G01X3820040Y2848073D01*
G01X3782773Y2848073D01*
G01X3784215Y2849987D01*
G01X3785230Y2851975D01*
G01X3786269Y2856182D01*
G01X3786469Y2860709D01*
G01X3786406Y2865573D01*
G37*
G36*
G01X4499374Y2954167D02*
G01X4529374Y2954167D01*
G01X4529312Y2949302D01*
G01X4529512Y2944775D01*
G01X4530551Y2940569D01*
G01X4531566Y2938581D01*
G01X4533008Y2936667D01*
G01X4495740Y2936667D01*
G01X4497183Y2938581D01*
G01X4498198Y2940569D01*
G01X4499237Y2944775D01*
G01X4499436Y2949302D01*
G01X4499374Y2954167D01*
G37*
G36*
G01X4368541Y2835000D02*
G01X4368541Y2805000D01*
G01X4363676Y2805062D01*
G01X4359149Y2804863D01*
G01X4354943Y2803823D01*
G01X4352955Y2802808D01*
G01X4351041Y2801366D01*
G01X4351041Y2838634D01*
G01X4352955Y2837192D01*
G01X4354943Y2836176D01*
G01X4359149Y2835137D01*
G01X4363676Y2834938D01*
G01X4368541Y2835000D01*
G37*
G36*
G01X2193553Y2854766D02*
G01X2214766Y2833553D01*
G01X2211283Y2830157D01*
G01X2208222Y2826815D01*
G01X2205983Y2823106D01*
G01X2205295Y2820982D01*
G01X2204961Y2818609D01*
G01X2178609Y2844961D01*
G01X2180982Y2845295D01*
G01X2183106Y2845983D01*
G01X2186815Y2848222D01*
G01X2190157Y2851282D01*
G01X2193553Y2854766D01*
G37*
G36*
G01X2345000Y2954167D02*
G01X2375000Y2954167D01*
G01X2374938Y2949302D01*
G01X2375137Y2944775D01*
G01X2376177Y2940569D01*
G01X2377192Y2938581D01*
G01X2378634Y2936667D01*
G01X2341366Y2936667D01*
G01X2342808Y2938581D01*
G01X2343824Y2940569D01*
G01X2344863Y2944775D01*
G01X2345062Y2949302D01*
G01X2345000Y2954167D01*
G37*
G36*
G01X4815000Y4815833D02*
G01X4785000Y4815833D01*
G01X4785062Y4820697D01*
G01X4784863Y4825224D01*
G01X4783824Y4829431D01*
G01X4782808Y4831419D01*
G01X4781366Y4833333D01*
G01X4818634Y4833333D01*
G01X4817192Y4831419D01*
G01X4816177Y4829431D01*
G01X4815137Y4825224D01*
G01X4814938Y4820697D01*
G01X4815000Y4815833D01*
G37*
G36*
G01X5585001Y4294167D02*
G01X5615000Y4294167D01*
G01X5614938Y4289302D01*
G01X5615138Y4284775D01*
G01X5616177Y4280569D01*
G01X5617192Y4278581D01*
G01X5618634Y4276667D01*
G01X5581367Y4276667D01*
G01X5582809Y4278581D01*
G01X5583824Y4280569D01*
G01X5584863Y4284775D01*
G01X5585063Y4289302D01*
G01X5585001Y4294167D01*
G37*
G36*
G01X5615000Y4645833D02*
G01X5585001Y4645833D01*
G01X5585063Y4650697D01*
G01X5584863Y4655224D01*
G01X5583824Y4659431D01*
G01X5582809Y4661419D01*
G01X5581367Y4663333D01*
G01X5618634Y4663333D01*
G01X5617192Y4661419D01*
G01X5616177Y4659431D01*
G01X5615138Y4655224D01*
G01X5614938Y4650697D01*
G01X5615000Y4645833D01*
G37*
G36*
G01X5074766Y5636447D02*
G01X5053553Y5615234D01*
G01X5050157Y5618718D01*
G01X5046815Y5621778D01*
G01X5043106Y5624017D01*
G01X5040982Y5624705D01*
G01X5038609Y5625039D01*
G01X5064961Y5651391D01*
G01X5065295Y5649018D01*
G01X5065983Y5646894D01*
G01X5068222Y5643185D01*
G01X5071282Y5639843D01*
G01X5074766Y5636447D01*
G37*
G36*
G01X4854766Y5696447D02*
G01X4833553Y5675234D01*
G01X4830157Y5678718D01*
G01X4826815Y5681778D01*
G01X4823106Y5684017D01*
G01X4820982Y5684705D01*
G01X4818609Y5685039D01*
G01X4844961Y5711391D01*
G01X4845295Y5709018D01*
G01X4845983Y5706894D01*
G01X4848222Y5703185D01*
G01X4851282Y5699843D01*
G01X4854766Y5696447D01*
G37*
G36*
G01X5074766Y5516447D02*
G01X5053553Y5495234D01*
G01X5050157Y5498718D01*
G01X5046815Y5501778D01*
G01X5043106Y5504017D01*
G01X5040982Y5504705D01*
G01X5038609Y5505039D01*
G01X5064961Y5531391D01*
G01X5065295Y5529018D01*
G01X5065983Y5526894D01*
G01X5068222Y5523185D01*
G01X5071282Y5519843D01*
G01X5074766Y5516447D01*
G37*
G36*
G01X5055000Y5395833D02*
G01X5025000Y5395833D01*
G01X5025062Y5400698D01*
G01X5024863Y5405225D01*
G01X5023824Y5409431D01*
G01X5022808Y5411419D01*
G01X5021366Y5413333D01*
G01X5058634Y5413333D01*
G01X5057192Y5411419D01*
G01X5056177Y5409431D01*
G01X5055137Y5405225D01*
G01X5054938Y5400698D01*
G01X5055000Y5395833D01*
G37*
G36*
G01X1898795Y5101359D02*
G01X1928795Y5101359D01*
G01X1928733Y5096495D01*
G01X1928933Y5091968D01*
G01X1929972Y5087761D01*
G01X1930987Y5085773D01*
G01X1932429Y5083859D01*
G01X1895161Y5083859D01*
G01X1896604Y5085773D01*
G01X1897619Y5087761D01*
G01X1898658Y5091968D01*
G01X1898857Y5096495D01*
G01X1898795Y5101359D01*
G37*
G36*
G01X2054925Y5144962D02*
G01X2076139Y5123748D01*
G01X2073382Y5120891D01*
G01X2070948Y5117861D01*
G01X2069160Y5114541D01*
G01X2068345Y5110816D01*
G01X2041993Y5137168D01*
G01X2045718Y5137983D01*
G01X2049038Y5139771D01*
G01X2052068Y5142205D01*
G01X2054925Y5144962D01*
G37*
G36*
G01X8484960Y4439013D02*
G01X8471917Y4499013D01*
G01X8476838Y4498524D01*
G01X8481164Y4497337D01*
G01X8488410Y4494544D01*
G01X8491519Y4493776D01*
G01X8494410Y4493986D01*
G01X8497178Y4495592D01*
G01X8499917Y4499013D01*
G01X8512960Y4443968D01*
G01X8509925Y4445113D01*
G01X8506617Y4445189D01*
G01X8503106Y4444479D01*
G01X8499463Y4443264D01*
G01X8492057Y4440452D01*
G01X8488435Y4439420D01*
G01X8484960Y4439013D01*
G37*
G36*
G01X3228119Y4755391D02*
G01X3268118Y4755391D01*
G01X3267627Y4749199D01*
G01X3267004Y4744015D01*
G01X3267043Y4741622D01*
G01X3267528Y4739268D01*
G01X3268621Y4736882D01*
G01X3270479Y4734391D01*
G01X3225758Y4734391D01*
G01X3227616Y4736882D01*
G01X3228709Y4739268D01*
G01X3229194Y4741622D01*
G01X3229233Y4744015D01*
G01X3228610Y4749199D01*
G01X3228119Y4755391D01*
G37*
G36*
G01X3268118Y4984272D02*
G01X3228119Y4986507D01*
G01X3228660Y4992716D01*
G01X3229410Y4997788D01*
G01X3229453Y5000131D01*
G01X3229056Y5002470D01*
G01X3228055Y5004898D01*
G01X3226286Y5007507D01*
G01X3270951Y5005271D01*
G01X3268999Y5002890D01*
G01X3267819Y5000545D01*
G01X3267253Y4998184D01*
G01X3267144Y4995754D01*
G01X3267665Y4990471D01*
G01X3268118Y4984272D01*
G37*
G36*
G01X4429203Y4389345D02*
G01X4411243Y4407305D01*
G01X4413042Y4409411D01*
G01X4414600Y4411837D01*
G01X4417022Y4417354D01*
G01X4418558Y4423266D01*
G01X4419261Y4428986D01*
G01X4450884Y4397363D01*
G01X4445165Y4396660D01*
G01X4439252Y4395124D01*
G01X4433735Y4392702D01*
G01X4431309Y4391144D01*
G01X4429203Y4389345D01*
G37*
G36*
G01X1012611Y1984531D02*
G01X1038011Y1984531D01*
G01X1038228Y1981770D01*
G01X1038841Y1978953D01*
G01X1041030Y1973340D01*
G01X1044125Y1968072D01*
G01X1047672Y1963532D01*
G01X1002950Y1963532D01*
G01X1006498Y1968072D01*
G01X1009592Y1973340D01*
G01X1011781Y1978953D01*
G01X1012394Y1981770D01*
G01X1012611Y1984531D01*
G37*
G36*
G01X1945419Y3366133D02*
G01X1927458Y3384094D01*
G01X1929257Y3386200D01*
G01X1930816Y3388626D01*
G01X1933237Y3394142D01*
G01X1934774Y3400055D01*
G01X1935476Y3405774D01*
G01X1967099Y3374151D01*
G01X1961380Y3373449D01*
G01X1955467Y3371912D01*
G01X1949950Y3369491D01*
G01X1947524Y3367932D01*
G01X1945419Y3366133D01*
G37*
G36*
G01X1596061Y2032527D02*
G01X1621461Y2032527D01*
G01X1621678Y2029766D01*
G01X1622291Y2026949D01*
G01X1624480Y2021335D01*
G01X1627574Y2016068D01*
G01X1631121Y2011527D01*
G01X1586400Y2011527D01*
G01X1589947Y2016068D01*
G01X1593042Y2021335D01*
G01X1595230Y2026949D01*
G01X1595844Y2029766D01*
G01X1596061Y2032527D01*
G37*
G36*
G01X7763330Y4340126D02*
G01X7763330Y4290126D01*
G01X7756720Y4289911D01*
G01X7750469Y4289345D01*
G01X7739533Y4287626D01*
G01X7731496Y4285907D01*
G01X7727330Y4285126D01*
G01X7727330Y4345126D01*
G01X7731496Y4344345D01*
G01X7739533Y4342626D01*
G01X7750469Y4340907D01*
G01X7756720Y4340341D01*
G01X7763330Y4340126D01*
G37*
G36*
G01X6377844Y4897374D02*
G01X6377844Y4927374D01*
G01X6383149Y4927926D01*
G01X6388953Y4929458D01*
G01X6394453Y4931789D01*
G01X6398844Y4934735D01*
G01X6398844Y4890014D01*
G01X6394453Y4892960D01*
G01X6388953Y4895290D01*
G01X6383149Y4896823D01*
G01X6377844Y4897374D01*
G37*
G36*
G01X7643539Y4664092D02*
G01X7603539Y4664092D01*
G01X7604031Y4670284D01*
G01X7604654Y4675469D01*
G01X7604615Y4677861D01*
G01X7604129Y4680215D01*
G01X7603037Y4682602D01*
G01X7601179Y4685092D01*
G01X7645900Y4685092D01*
G01X7644041Y4682602D01*
G01X7642949Y4680215D01*
G01X7642463Y4677861D01*
G01X7642424Y4675469D01*
G01X7643047Y4670284D01*
G01X7643539Y4664092D01*
G37*
G36*
G01X7333368Y5083561D02*
G01X7333368Y5043561D01*
G01X7327176Y5044053D01*
G01X7321991Y5044676D01*
G01X7319599Y5044637D01*
G01X7317245Y5044151D01*
G01X7314858Y5043059D01*
G01X7312368Y5041200D01*
G01X7312368Y5085922D01*
G01X7314858Y5084063D01*
G01X7317245Y5082971D01*
G01X7319599Y5082485D01*
G01X7321991Y5082446D01*
G01X7327176Y5083069D01*
G01X7333368Y5083561D01*
G37*
G36*
G01X4009351Y5718974D02*
G01X4034751Y5718974D01*
G01X4035169Y5714517D01*
G01X4036360Y5709705D01*
G01X4038230Y5705153D01*
G01X4040685Y5701474D01*
G01X4003418Y5701474D01*
G01X4005873Y5705153D01*
G01X4007743Y5709705D01*
G01X4008934Y5714517D01*
G01X4009351Y5718974D01*
G37*
G36*
G01X6984296Y5906687D02*
G01X6993492Y5932087D01*
G01X6998806Y5931912D01*
G01X7002982Y5931457D01*
G01X7009437Y5930129D01*
G01X7015888Y5928948D01*
G01X7020060Y5928676D01*
G01X7025368Y5928758D01*
G01X7001796Y5900592D01*
G01X7001080Y5903233D01*
G01X6999786Y5905041D01*
G01X6997993Y5906163D01*
G01X6995779Y5906747D01*
G01X6990406Y5906900D01*
G01X6984296Y5906687D01*
G37*
G04 TearDrop End*

G04 Pad Start*
G54D10*
G01X4939999Y2299982D03*
G01X5159999Y2299982D03*
G01X5049999Y2299982D03*
G01X4939999Y2409982D03*
G01X5159999Y2409982D03*
G01X5049999Y2409982D03*
G01X4939999Y2519981D03*
G01X5159999Y2519981D03*
G01X5049999Y2519981D03*
G01X2785625Y2299982D03*
G01X3005624Y2299982D03*
G01X2895625Y2299982D03*
G01X2785625Y2409982D03*
G01X3005624Y2409982D03*
G01X2895625Y2409982D03*
G01X2785625Y2519981D03*
G01X3005624Y2519981D03*
G01X2895625Y2519981D03*
G54D11*
G01X700000Y710000D03*
G01X710000Y320000D03*
G01X320000Y310000D03*
G01X310000Y700000D03*
G01X790000Y510000D03*
G01X510000Y230000D03*
G01X230000Y510000D03*
G01X510000Y790000D03*
G54D12*
G01X510000Y510000D03*
G01X9190000Y510000D03*
G54D11*
G01X8910000Y510000D03*
G01X9190000Y230000D03*
G01X9470000Y510000D03*
G01X9190000Y790000D03*
G01X9000000Y310000D03*
G01X9390000Y320000D03*
G01X9380000Y710000D03*
G01X8990000Y700000D03*
G54D12*
G01X510000Y5890000D03*
G54D11*
G01X790000Y5890000D03*
G01X510000Y6170000D03*
G01X230000Y5890000D03*
G01X510000Y5610000D03*
G01X700000Y6090000D03*
G01X310000Y6080000D03*
G01X320000Y5690000D03*
G01X710000Y5700000D03*
G01X9000000Y5690000D03*
G01X8990000Y6080000D03*
G01X9380000Y6090000D03*
G01X9390000Y5700000D03*
G01X8910000Y5890000D03*
G01X9190000Y6170000D03*
G01X9470000Y5890000D03*
G01X9190000Y5610000D03*
G54D12*
G01X9190000Y5890000D03*
G54D13*
G01X9470000Y3399100D03*
G54D14*
G01X9470000Y3659100D03*
G01X9470000Y3923100D03*
G54D15*
G01X5712300Y241300D03*
G54D14*
G01X5448300Y241300D03*
G01X5194300Y241300D03*
G54D17*
G01X4930300Y241300D03*
G54D15*
G01X3843999Y230000D03*
G54D14*
G01X3579999Y230000D03*
G01X3325999Y230000D03*
G54D17*
G01X3061999Y230000D03*
G54D18*
G01X9470000Y4460400D03*
G54D15*
G01X9470000Y4734400D03*
G54D19*
G01X4758000Y4249999D03*
G54D20*
G01X4504000Y4249999D03*
G01X4250000Y4249999D03*
G01X3996000Y4249999D03*
G54D14*
G01X9470000Y2856800D03*
G54D13*
G01X9470000Y1820801D03*
G54D14*
G01X9470000Y2084801D03*
G01X9470000Y2338801D03*
G01X9470000Y2592801D03*
G54D21*
G01X7807600Y474500D03*
G01X7411600Y474500D03*
G54D22*
G01X6619600Y474500D03*
G54D21*
G01X7015600Y474500D03*
G54D19*
G01X1828800Y3708400D03*
G54D20*
G01X1574800Y3708400D03*
G54D23*
G01X8229600Y2133600D03*
G54D20*
G01X8483600Y2133600D03*
G54D24*
G01X704304Y3360407D03*
G01X704304Y4564393D03*
G54D15*
G01X975297Y3837394D03*
G01X975297Y4087406D03*
G01X1175296Y4087406D03*
G01X1175296Y3837394D03*
G54D25*
G01X2187100Y230000D03*
G54D15*
G01X2461100Y230000D03*
G54D25*
G01X1387000Y230000D03*
G54D15*
G01X1661000Y230000D03*
G04 Pad End*

G04 Via Start*
G54D26*
G01X3750000Y5070000D03*
G01X3750000Y5380000D03*
G01X3750000Y5180000D03*
G01X586860Y2599660D03*
G01X506860Y2599660D03*
G01X426860Y2599660D03*
G01X346860Y2599660D03*
G01X266860Y2599660D03*
G01X266860Y2679660D03*
G01X346860Y2679660D03*
G01X426860Y2679660D03*
G01X506860Y2679660D03*
G01X586860Y2679660D03*
G01X666859Y2679660D03*
G01X746859Y2679660D03*
G01X826859Y2679660D03*
G01X906859Y2679660D03*
G01X986859Y2679660D03*
G01X1952175Y3032523D03*
G01X906859Y2599660D03*
G01X826859Y2599660D03*
G01X746859Y2599660D03*
G01X666859Y2599660D03*
G01X5679524Y3920004D03*
G01X5599524Y3920004D03*
G01X5519524Y3920004D03*
G01X5439525Y3920004D03*
G01X5359525Y3920004D03*
G01X5359525Y4000004D03*
G01X5439525Y4000004D03*
G01X5519524Y4000004D03*
G01X5599524Y4000004D03*
G01X5679524Y4000004D03*
G01X5759524Y4000004D03*
G01X5839524Y4000004D03*
G01X5919524Y4000004D03*
G01X5999523Y4000004D03*
G01X5999523Y3920004D03*
G01X5919524Y3920004D03*
G01X5839524Y3920004D03*
G01X5759524Y3920004D03*
G01X8740960Y5253300D03*
G01X8727559Y5165500D03*
G01X7811400Y5780000D03*
G01X7500000Y5640000D03*
G01X6418400Y5633100D03*
G01X6012048Y2555007D03*
G01X6012048Y2475007D03*
G01X4366367Y5990000D03*
G01X4296367Y5990000D03*
G01X4884374Y2770000D03*
G01X5049999Y2774299D03*
G01X2895625Y2774299D03*
G01X2730000Y2770000D03*
G01X6040000Y5780000D03*
G01X1995104Y2331299D03*
G01X1995104Y2251300D03*
G01X1995104Y2171300D03*
G01X1995104Y2091300D03*
G01X1995104Y2011300D03*
G01X2075104Y2011300D03*
G01X2075104Y2091300D03*
G01X2075104Y2171300D03*
G01X2075104Y2251300D03*
G01X2075104Y2331299D03*
G01X2075104Y2411299D03*
G01X2075104Y2491299D03*
G01X2075104Y2571299D03*
G01X2075104Y2651299D03*
G01X2075104Y2731299D03*
G01X1995104Y2731299D03*
G01X1995104Y2651299D03*
G01X1995104Y2571299D03*
G01X1995104Y2491299D03*
G01X1995104Y2411299D03*
G01X6927198Y3030504D03*
G01X7204674Y2668228D03*
G01X6904400Y2920600D03*
G01X6904400Y2840600D03*
G01X6904400Y2760600D03*
G01X6984400Y2760600D03*
G01X6984400Y2840600D03*
G01X6984400Y2920600D03*
G01X6984400Y3000600D03*
G01X6965802Y3102797D03*
G01X6984400Y3160599D03*
G01X6972401Y3259497D03*
G01X6984400Y3320599D03*
G01X6984400Y3400599D03*
G01X6984400Y3480599D03*
G01X6904400Y3480599D03*
G01X6904400Y3400599D03*
G01X6904400Y3320599D03*
G01X6904400Y3240599D03*
G01X6904400Y3160599D03*
G01X4229674Y2175099D03*
G01X4229674Y2255099D03*
G01X4229674Y2335098D03*
G01X4229674Y2415098D03*
G01X4229674Y2495098D03*
G01X4309674Y2495098D03*
G01X4309674Y2415098D03*
G01X4309674Y2335098D03*
G01X4309674Y2255099D03*
G01X4309674Y2175099D03*
G01X4309674Y2095099D03*
G01X5965800Y2314800D03*
G01X5965800Y2234800D03*
G01X5965800Y2154800D03*
G01X5965800Y2074800D03*
G01X5885800Y2074800D03*
G01X5885800Y2154800D03*
G01X5885800Y2234800D03*
G01X5885800Y2314800D03*
G01X4229674Y2095099D03*
G01X6400000Y4749999D03*
G01X6300000Y6220000D03*
G01X6300000Y6080000D03*
G01X6100000Y4420000D03*
G01X6144702Y4867908D03*
G01X6400000Y5099999D03*
G01X6105010Y3453359D03*
G01X4880000Y3620000D03*
G01X4575000Y5555000D03*
G01X4570000Y5030000D03*
G01X6550006Y5410000D03*
G01X5725000Y5855000D03*
G01X4375000Y5855000D03*
G01X2300000Y3530000D03*
G01X4600000Y3780000D03*
G01X2365967Y3455967D03*
G01X4660000Y3700000D03*
G01X5961310Y3620000D03*
G01X3801406Y3621407D03*
G01X1960000Y3112530D03*
G01X4110000Y3112530D03*
G01X5961310Y2836936D03*
G01X3801406Y2831407D03*
G01X5024374Y3400000D03*
G01X5444374Y3399258D03*
G01X4514374Y2920000D03*
G01X4334374Y2820000D03*
G01X2180000Y2820000D03*
G01X2360000Y2920000D03*
G01X3290000Y3399258D03*
G01X2870000Y3400000D03*
G01X6002700Y773000D03*
G01X6002700Y693000D03*
G01X6082700Y693000D03*
G01X6082700Y773000D03*
G01X6082700Y853000D03*
G01X6082700Y933000D03*
G01X6082700Y1012999D03*
G01X6082700Y1092999D03*
G01X6002700Y1092999D03*
G01X6002700Y1012999D03*
G01X6002700Y933000D03*
G01X6002700Y853000D03*
G01X4490000Y5223153D03*
G01X4490000Y5298153D03*
G01X4410000Y5298153D03*
G01X4410000Y5223153D03*
G01X4020000Y4483155D03*
G01X4020000Y4563154D03*
G01X4020000Y4643154D03*
G01X4020000Y4723154D03*
G01X3940000Y4723154D03*
G01X3940000Y4643154D03*
G01X3940000Y4563154D03*
G01X3940000Y4483155D03*
G01X3930000Y788862D03*
G01X3930000Y708862D03*
G01X4010000Y708862D03*
G01X4010000Y788862D03*
G01X4010000Y868862D03*
G01X4010000Y948861D03*
G01X4010000Y1028861D03*
G01X4010000Y1108861D03*
G01X3930000Y1108861D03*
G01X3930000Y1028861D03*
G01X3930000Y948861D03*
G01X3930000Y868862D03*
G01X626600Y2255100D03*
G01X546600Y2255100D03*
G01X466600Y2255100D03*
G01X386600Y2255100D03*
G01X306601Y2255100D03*
G01X306601Y2335100D03*
G01X386600Y2335100D03*
G01X466600Y2335100D03*
G01X546600Y2335100D03*
G01X626600Y2335100D03*
G01X896550Y2395511D03*
G01X816550Y2395511D03*
G01X736550Y2395511D03*
G01X656550Y2395511D03*
G01X576551Y2395511D03*
G01X576551Y2475511D03*
G01X656550Y2475511D03*
G01X736550Y2475511D03*
G01X816550Y2475511D03*
G01X896550Y2475511D03*
G01X8848400Y2435300D03*
G01X8848400Y2515300D03*
G01X8848400Y2595300D03*
G01X8848400Y2675300D03*
G01X8768401Y2675300D03*
G01X8768401Y2595300D03*
G01X8768401Y2515300D03*
G01X8768401Y2435300D03*
G01X4190000Y5120000D03*
G01X4800000Y4849999D03*
G01X6030001Y5320000D03*
G01X5888795Y5860794D03*
G01X5600000Y4260000D03*
G01X5600000Y4680000D03*
G01X5040000Y5650000D03*
G01X4820000Y5710000D03*
G01X5040000Y5530000D03*
G01X5040000Y5430000D03*
G01X4690000Y5320000D03*
G01X1864600Y4777399D03*
G01X1913795Y5067193D03*
G01X2043384Y5112207D03*
G01X5636300Y3836000D03*
G01X5556300Y3836000D03*
G01X5476300Y3836000D03*
G01X5396300Y3836000D03*
G01X5396300Y3756000D03*
G01X5476300Y3756000D03*
G01X5556300Y3756000D03*
G01X5636300Y3756000D03*
G54D27*
G01X7019220Y1729207D03*
G01X2590800Y1739900D03*
G01X3187700Y1752600D03*
G01X4749800Y1752600D03*
G01X5321300Y1752600D03*
G54D10*
G01X1360982Y4381720D03*
G01X1704452Y4591102D03*
G01X7794224Y4469013D03*
G54D27*
G01X8533960Y4478012D03*
G54D10*
G01X6680421Y6007579D03*
G01X2992541Y5446928D03*
G01X3248118Y4714391D03*
G01X3249618Y5026364D03*
G01X4449214Y4427316D03*
G01X1025311Y1943532D03*
G01X1965430Y3404105D03*
G01X1608761Y1991527D03*
G54D26*
G01X7516047Y3357609D03*
G01X7324964Y3357609D03*
G01X7388658Y3357609D03*
G01X7452353Y3357609D03*
G01X7514547Y3294615D03*
G01X7450853Y3294615D03*
G01X7387158Y3294615D03*
G01X7323464Y3294615D03*
G01X7516047Y3233120D03*
G01X7452353Y3233120D03*
G01X7388658Y3233120D03*
G01X7324964Y3233120D03*
G01X7513104Y3164947D03*
G01X7449409Y3164947D03*
G01X7385715Y3164947D03*
G01X7322020Y3164947D03*
G01X7513947Y3089732D03*
G01X7450253Y3089732D03*
G01X7386559Y3089732D03*
G01X7322864Y3089732D03*
G01X7728036Y3799771D03*
G01X7648036Y3799771D03*
G01X7729235Y3730477D03*
G01X7649236Y3730477D03*
G01X7910181Y3652943D03*
G01X7830181Y3652943D03*
G01X7797610Y4958570D03*
G01X7920112Y4650197D03*
G01X8812742Y4864379D03*
G01X8755240Y4891376D03*
G01X8816341Y4931573D03*
G01X8709044Y4939672D03*
G54D10*
G01X7727330Y4315126D03*
G01X6418844Y4912374D03*
G01X7623539Y4705092D03*
G01X7292368Y5063561D03*
G01X6109870Y1755448D03*
G01X3905062Y1745849D03*
G54D26*
G01X6301091Y3070985D03*
G01X6301091Y2990985D03*
G01X6381090Y2990985D03*
G01X6381090Y3070985D03*
G01X6473876Y3067085D03*
G01X6473876Y2987085D03*
G01X6375494Y2734610D03*
G01X6295494Y2734610D03*
G01X6289392Y2913498D03*
G01X6289392Y2833499D03*
G01X6369391Y2833499D03*
G01X6369391Y2913498D03*
G01X6469976Y2917398D03*
G01X6469976Y2837398D03*
G01X6948145Y2243853D03*
G01X6445181Y2730711D03*
G01X7244209Y2060972D03*
G01X7244209Y1980972D03*
G01X7398602Y1994171D03*
G01X7324209Y2060972D03*
G01X9098648Y1607112D03*
G01X9098648Y1527112D03*
G01X9178648Y1527112D03*
G01X9178648Y1607112D03*
G01X7003330Y2150365D03*
G01X7003330Y2070365D03*
G01X7083329Y2070365D03*
G01X7083329Y2150365D03*
G01X6771150Y2413142D03*
G01X6771150Y2333142D03*
G01X6851150Y2333142D03*
G01X6851150Y2413142D03*
G01X6979332Y2425141D03*
G01X6979332Y2345141D03*
G01X7059332Y2345141D03*
G01X7059332Y2425141D03*
G01X7013829Y2687018D03*
G01X7013829Y2607018D03*
G01X7093829Y2607018D03*
G01X7093829Y2687018D03*
G01X7816859Y2634223D03*
G01X7816859Y2554223D03*
G01X7896859Y2554223D03*
G01X7856063Y2492635D03*
G01X7836057Y2423041D03*
G01X7836057Y2343041D03*
G01X7916057Y2343041D03*
G01X7916057Y2423041D03*
G01X7712468Y1937083D03*
G01X7712468Y1857083D03*
G01X7792468Y1857083D03*
G01X7792468Y1937083D03*
G01X8715281Y2833705D03*
G01X8715281Y2753705D03*
G01X8795281Y2753705D03*
G01X8795281Y2833705D03*
G01X8825372Y1994378D03*
G01X8825372Y1914378D03*
G01X8905372Y1914378D03*
G01X8905372Y1994378D03*
G01X8828671Y1818593D03*
G01X8828671Y1738593D03*
G01X8908671Y1738593D03*
G01X8908671Y1818593D03*
G01X8867068Y1638009D03*
G01X8867068Y1558009D03*
G01X8947068Y1558009D03*
G01X8947068Y1638009D03*
G01X8909364Y1473023D03*
G01X8909364Y1393023D03*
G01X8989364Y1393023D03*
G01X8989364Y1473023D03*
G01X7373498Y213432D03*
G01X7373498Y133433D03*
G01X7453497Y133433D03*
G01X7453497Y213432D03*
G01X7396596Y789382D03*
G01X7396596Y709383D03*
G01X7476595Y709383D03*
G01X7476595Y789382D03*
G01X7411894Y1123554D03*
G01X7411894Y1043554D03*
G01X7251015Y907365D03*
G01X7201519Y958868D03*
G01X7212112Y1131053D03*
G01X7212112Y1051053D03*
G01X7292111Y1051053D03*
G01X7292111Y1131053D03*
G01X7162316Y217332D03*
G01X7162316Y137332D03*
G01X7242316Y137332D03*
G01X7242316Y217332D03*
G01X7592479Y221232D03*
G01X7592479Y141232D03*
G01X7672478Y141232D03*
G01X7672478Y221232D03*
G01X6210198Y516706D03*
G01X6210198Y436706D03*
G01X6290198Y436706D03*
G01X6290198Y516706D03*
G01X5992417Y1448725D03*
G01X5948021Y1396023D03*
G01X6028021Y1396023D03*
G01X6106614Y1462524D03*
G01X5949821Y1223445D03*
G01X5949821Y1143445D03*
G01X6069717Y1160544D03*
G01X6029821Y1223445D03*
G01X5910524Y1593913D03*
G01X5910524Y1513913D03*
G01X5990524Y1513913D03*
G01X5990524Y1593913D03*
G01X6228197Y1053960D03*
G01X6228197Y973960D03*
G01X6308197Y973960D03*
G01X6308197Y1053960D03*
G01X5850530Y787883D03*
G01X5850530Y707883D03*
G01X5930529Y707883D03*
G01X5930529Y787883D03*
G01X6411481Y1043160D03*
G01X6411481Y963161D03*
G01X6491481Y963161D03*
G01X6491481Y1043160D03*
G01X4141878Y759085D03*
G01X4141878Y679085D03*
G01X4221878Y679085D03*
G01X4221878Y759085D03*
G01X4318262Y733587D03*
G01X4318262Y653587D03*
G01X4398262Y653587D03*
G01X4398262Y733587D03*
G01X4003590Y1278640D03*
G01X4003590Y1198640D03*
G01X4083589Y1198640D03*
G01X4083589Y1278640D03*
G01X3995834Y1480947D03*
G01X3995834Y1400947D03*
G01X4075834Y1400947D03*
G01X4075834Y1480947D03*
G01X4041986Y2015976D03*
G01X4041986Y1935976D03*
G01X4121986Y1935976D03*
G01X4121986Y2015976D03*
G01X4213571Y2023476D03*
G01X4213571Y1943476D03*
G01X4293571Y1943476D03*
G01X4293571Y2023476D03*
G01X5656746Y2346847D03*
G01X5656746Y2266848D03*
G01X5736746Y2266848D03*
G01X5736746Y2346847D03*
G01X5651047Y2145265D03*
G01X5651047Y2065265D03*
G01X5731047Y2065265D03*
G01X5731047Y2145265D03*
G01X3685017Y2511833D03*
G01X3685017Y2431833D03*
G01X3765017Y2431833D03*
G01X3765017Y2511833D03*
G01X3662819Y2332749D03*
G01X3662819Y2252749D03*
G01X3742819Y2252749D03*
G01X3742819Y2332749D03*
G01X3429139Y2291652D03*
G01X3429139Y2211652D03*
G01X3509139Y2211652D03*
G01X3509139Y2291652D03*
G01X3632222Y2148265D03*
G01X3632222Y2068265D03*
G01X3712222Y2068265D03*
G01X3712222Y2148265D03*
G01X3816706Y1562715D03*
G01X3816706Y1482716D03*
G01X3896706Y1482716D03*
G01X3896706Y1562715D03*
G01X3811606Y1337435D03*
G01X3811606Y1257435D03*
G01X3891606Y1257435D03*
G01X3891606Y1337435D03*
G01X4362959Y545204D03*
G01X4362959Y465204D03*
G01X4442958Y465204D03*
G01X4442958Y545204D03*
G01X4351260Y345721D03*
G01X4351260Y265721D03*
G01X4431259Y265721D03*
G01X4431259Y345721D03*
G01X4178474Y169036D03*
G01X4178474Y89036D03*
G01X4258474Y89036D03*
G01X4258474Y169036D03*
G01X4508746Y165137D03*
G01X4508746Y85137D03*
G01X4588746Y85137D03*
G01X4588746Y165137D03*
G01X1994964Y466010D03*
G01X1994964Y386011D03*
G01X2074964Y386011D03*
G01X2074964Y466010D03*
G01X1772383Y478609D03*
G01X1772383Y398610D03*
G01X1852383Y398610D03*
G01X1852383Y478609D03*
G01X1393516Y527505D03*
G01X1393516Y447505D03*
G01X1473516Y447505D03*
G01X1473516Y527505D03*
G01X2481522Y509507D03*
G01X2481522Y429507D03*
G01X2561521Y429507D03*
G01X2561521Y509507D03*
G01X1925970Y1100755D03*
G01X1925970Y1020756D03*
G01X2005970Y1020756D03*
G01X2005970Y1100755D03*
G01X1927470Y1277440D03*
G01X1927470Y1197440D03*
G01X2007469Y1197440D03*
G01X2007469Y1277440D03*
G01X1919370Y1460424D03*
G01X1919370Y1380424D03*
G01X1999370Y1380424D03*
G01X1999370Y1460424D03*
G01X1913671Y1647008D03*
G01X1913671Y1567008D03*
G01X1993671Y1567008D03*
G01X1993671Y1647008D03*
G01X1916071Y1833592D03*
G01X1916071Y1753592D03*
G01X1996070Y1753592D03*
G01X1996070Y1833592D03*
G01X1745385Y4087897D03*
G01X1745385Y4007897D03*
G01X1825385Y4007897D03*
G01X1825385Y4087897D03*
G01X658880Y3783123D03*
G01X658880Y3703123D03*
G01X738879Y3703123D03*
G01X738879Y3783123D03*
G01X666679Y3985305D03*
G01X666679Y3905306D03*
G01X746679Y3905306D03*
G01X746679Y3985305D03*
G01X653780Y4236384D03*
G01X653780Y4156384D03*
G01X733780Y4156384D03*
G01X733780Y4236384D03*
G01X909658Y3691031D03*
G01X909658Y3611031D03*
G01X989658Y3611031D03*
G01X989658Y3691031D03*
G01X1357519Y3491548D03*
G01X1357519Y3411548D03*
G01X1437519Y3411548D03*
G01X1437519Y3491548D03*
G01X763870Y3074284D03*
G01X763870Y2994285D03*
G01X843870Y2994285D03*
G01X843870Y3074284D03*
G01X1288525Y4750839D03*
G01X1288525Y4670839D03*
G01X1368525Y4670839D03*
G01X1368525Y4750839D03*
G01X1715988Y4809634D03*
G01X1715988Y4729634D03*
G01X1795988Y4729634D03*
G01X1795988Y4809634D03*
G01X2162349Y4365073D03*
G01X1206632Y4303971D03*
G01X1268034Y4360066D03*
G01X2242349Y4365073D03*
G01X3430339Y4503361D03*
G01X3430339Y4423361D03*
G01X3510339Y4423361D03*
G01X3510339Y4503361D03*
G01X3484035Y4303578D03*
G01X3484035Y4223578D03*
G01X3564035Y4223578D03*
G01X3564035Y4303578D03*
G01X3634922Y4104095D03*
G01X3634922Y4024095D03*
G01X3714921Y4024095D03*
G01X3714921Y4104095D03*
G01X1976365Y3952908D03*
G01X1976365Y3872908D03*
G01X2056365Y3872908D03*
G01X2056365Y3952908D03*
G01X4406755Y5461478D03*
G01X4406755Y5381478D03*
G01X4486755Y5381478D03*
G01X4486755Y5461478D03*
G01X3852244Y5743238D03*
G01X3852244Y5663238D03*
G01X3932244Y5663238D03*
G01X3932244Y5743238D03*
G01X3548529Y5769251D03*
G01X3548529Y5689251D03*
G01X3628529Y5689251D03*
G01X3628529Y5769251D03*
G01X6050912Y5240397D03*
G01X6050912Y5160397D03*
G01X6130912Y5160397D03*
G01X6130912Y5240397D03*
G01X6010116Y5067912D03*
G01X6010116Y4987912D03*
G01X6090116Y4987912D03*
G01X6090116Y5067912D03*
G01X5974119Y4846231D03*
G01X5974119Y4766231D03*
G01X6054119Y4766231D03*
G01X6054119Y4846231D03*
G01X6526971Y4711243D03*
G01X6526971Y4631243D03*
G01X6606971Y4631243D03*
G01X6606971Y4711243D03*
G01X6255794Y4266081D03*
G01X6255794Y4186081D03*
G01X6190307Y4219978D03*
G01X6299797Y4336875D03*
G01X6683257Y4122694D03*
G01X6683257Y4042694D03*
G01X6763257Y4042694D03*
G01X6763257Y4122694D03*
G01X6513172Y4128693D03*
G01X6513172Y4048693D03*
G01X6593172Y4048693D03*
G01X6593172Y4128693D03*
G01X6350886Y4225585D03*
G01X6357786Y4053493D03*
G01X6273400Y4051993D03*
G01X6430886Y4225585D03*
G01X5778836Y4225885D03*
G01X5778836Y4145885D03*
G01X5858836Y4145885D03*
G01X5858836Y4225885D03*
G01X5439265Y4173089D03*
G01X5439265Y4093089D03*
G01X5519265Y4093089D03*
G01X5519265Y4173089D03*
G01X7758344Y4680215D03*
G01X7758344Y4600215D03*
G01X7838344Y4600215D03*
G01X7838344Y4680215D03*
G01X7717268Y4862729D03*
G01X7717268Y4782730D03*
G01X7797268Y4782730D03*
G01X7797268Y4862729D03*
G01X7889753Y4820133D03*
G01X7889753Y4740133D03*
G01X7969753Y4740133D03*
G01X7969753Y4820133D03*
G01X8814573Y4689044D03*
G01X8814573Y4609045D03*
G01X8894573Y4609045D03*
G01X8894573Y4689044D03*
G01X8891066Y4931723D03*
G01X8846970Y4793529D03*
G01X8926970Y4793529D03*
G01X8926970Y4873528D03*
G01X8555395Y4904126D03*
G01X8555395Y4824126D03*
G01X8635395Y4824126D03*
G01X8635395Y4904126D03*
G01X8398344Y4794977D03*
G01X8398344Y4714978D03*
G01X8478344Y4714978D03*
G01X8478344Y4794977D03*
G01X8816373Y4508160D03*
G01X8816373Y4428160D03*
G01X8896372Y4428160D03*
G01X8896372Y4508160D03*
G01X8573994Y5285993D03*
G01X8573994Y5205993D03*
G01X8653993Y5205993D03*
G01X8653993Y5285993D03*
G01X8440844Y5608039D03*
G01X8440844Y5528039D03*
G01X8520844Y5528039D03*
G01X8520844Y5608039D03*
G01X7703169Y5616264D03*
G01X7703169Y5536264D03*
G01X7783169Y5536264D03*
G01X7783169Y5616264D03*
G01X7721167Y5429380D03*
G01X7721167Y5349380D03*
G01X7801167Y5349380D03*
G01X7801167Y5429380D03*
G01X7700769Y5229598D03*
G01X7700769Y5149598D03*
G01X7780769Y5149598D03*
G01X7780769Y5229598D03*
G01X7549582Y6077024D03*
G01X7549582Y5997024D03*
G01X7629582Y5997024D03*
G01X7629582Y6077024D03*
G01X7278406Y6087223D03*
G01X7278406Y6007223D03*
G01X7358406Y6007223D03*
G01X7358406Y6087223D03*
G01X6638261Y6124120D03*
G01X6633462Y6227404D03*
G01X6713462Y6227404D03*
G01X6713462Y6307404D03*
G01X3782703Y6299453D03*
G01X3881664Y6299453D03*
G01X3980624Y6299453D03*
G01X4079584Y6299453D03*
G01X4490849Y6308752D03*
G01X4193968Y6308752D03*
G01X4292928Y6308752D03*
G01X4391888Y6308752D03*
G01X4921011Y6311452D03*
G01X4624130Y6311452D03*
G01X4723091Y6311452D03*
G01X4822051Y6311452D03*
G01X5350874Y6311452D03*
G01X5053993Y6311452D03*
G01X5152954Y6311452D03*
G01X5251914Y6311452D03*
G01X5788836Y6313851D03*
G01X5491955Y6313851D03*
G01X5590916Y6313851D03*
G01X5689876Y6313851D03*
G01X6200701Y6313851D03*
G01X5903820Y6313851D03*
G01X6002780Y6313851D03*
G01X6101740Y6313851D03*
G01X6628164Y6313851D03*
G01X6331282Y6313851D03*
G01X6430243Y6313851D03*
G01X6529203Y6313851D03*
G01X1720589Y5594814D03*
G01X1423708Y5594814D03*
G01X1522668Y5594814D03*
G01X1621628Y5594814D03*
G01X1635996Y5348835D03*
G01X1339115Y5348835D03*
G01X1438076Y5348835D03*
G01X1537036Y5348835D03*
G01X1540005Y5137653D03*
G01X1243123Y5137653D03*
G01X1342084Y5137653D03*
G01X1441044Y5137653D03*
G01X1025549Y4819081D03*
G01X728668Y4819081D03*
G01X827629Y4819081D03*
G01X926589Y4819081D03*
G01X495795Y4811282D03*
G01X198914Y4811282D03*
G01X297874Y4811282D03*
G01X396835Y4811282D03*
G01X646382Y2861751D03*
G01X349501Y2861751D03*
G01X448461Y2861751D03*
G01X547422Y2861751D03*
G01X1463574Y2595313D03*
G01X1463574Y2298432D03*
G01X1463574Y2397392D03*
G01X1463574Y2496353D03*
G01X4084283Y2979793D03*
G01X4070784Y2575521D03*
G01X4123486Y2630116D03*
G01X4184681Y2671119D03*
G01X4047386Y2429640D03*
G01X4047386Y2349640D03*
G01X4127386Y2349640D03*
G01X4127386Y2429640D03*
G01X4039887Y2230158D03*
G01X4039887Y2150158D03*
G01X4119886Y2150158D03*
G01X4119886Y2230158D03*
G01X2204346Y2418241D03*
G01X2204346Y2338241D03*
G01X2284345Y2338241D03*
G01X2284345Y2418241D03*
G01X2185147Y2191761D03*
G01X2185147Y2111761D03*
G01X2265147Y2111761D03*
G01X2265147Y2191761D03*
G01X5324975Y2793209D03*
G01X5324975Y2713209D03*
G01X5404975Y2713209D03*
G01X5404975Y2793209D03*
G01X5453064Y2897900D03*
G01X5368771Y2866796D03*
G01X5533064Y2817900D03*
G01X5533064Y2897900D03*
G01X4789719Y2976529D03*
G01X4789719Y2896529D03*
G01X4869719Y2896529D03*
G01X4869719Y2976529D03*
G01X3993990Y2759912D03*
G01X4060285Y2669713D03*
G01X4106388Y3041381D03*
G01X4115087Y2744613D03*
G01X4985405Y3456151D03*
G01X5521458Y3430747D03*
G01X5392076Y3444546D03*
G01X5065404Y3456151D03*
G01X3195760Y2906599D03*
G01X3195760Y2826599D03*
G01X3275760Y2826599D03*
G01X3275760Y2906599D03*
G01X2637808Y2985792D03*
G01X2637808Y2905792D03*
G01X2717808Y2905792D03*
G01X2717808Y2985792D03*
G01X3255906Y3460841D03*
G01X2912136Y3460634D03*
G01X2832849Y3460334D03*
G01X3333806Y3458441D03*
G01X4718707Y4148597D03*
G01X4718707Y4068597D03*
G01X4798707Y4068597D03*
G01X4798707Y4148597D03*
G01X4197073Y5392184D03*
G01X4470349Y5033808D03*
G01X4193680Y5213192D03*
G01X4193680Y5303391D03*
G01X4699229Y5125807D03*
G01X4325462Y5523665D03*
G01X4365865Y5035908D03*
G01X4690437Y5228398D03*
G01X2701103Y6023929D03*
G01X2701103Y5943929D03*
G01X2781102Y5943929D03*
G01X2781102Y6023929D03*
G01X3071306Y6247448D03*
G01X3071306Y6167448D03*
G01X3151306Y6167448D03*
G01X3151306Y6247448D03*
G01X3364945Y6259408D03*
G01X3364945Y6179409D03*
G01X3444945Y6179409D03*
G01X3444945Y6259408D03*
G01X6379984Y5681358D03*
G01X6193400Y5645755D03*
G01X6424587Y5852780D03*
G01X5833638Y5826846D03*
G01X6951734Y6191614D03*
G01X6951734Y6111614D03*
G01X7031734Y6111614D03*
G01X5939888Y5824205D03*
G01X8475602Y3679032D03*
G01X8475602Y3599032D03*
G01X8555602Y3599032D03*
G01X8555602Y3679032D03*
G01X8639388Y3632836D03*
G01X8639388Y3552836D03*
G01X8646794Y2927990D03*
G01X7809267Y3721328D03*
G01X8649587Y3445952D03*
G01X8649587Y3365952D03*
G01X8729587Y3365952D03*
G01X8720888Y2921898D03*
G01X8649587Y3269268D03*
G01X8649587Y3189268D03*
G01X8729587Y3189268D03*
G01X8729587Y3269268D03*
G01X8644487Y3087483D03*
G01X8644487Y3007483D03*
G01X8724487Y3007483D03*
G01X8724487Y3087483D03*
G01X8543996Y2778810D03*
G01X8543996Y2698810D03*
G01X8623996Y2698810D03*
G01X8623996Y2778810D03*
G01X8673745Y2343558D03*
G01X8602052Y2314854D03*
G01X8526665Y2319954D03*
G01X8753745Y2343558D03*
G01X1309523Y2537331D03*
G01X1309523Y2457331D03*
G01X1389523Y2457331D03*
G01X1389523Y2537331D03*
G01X1302024Y2322250D03*
G01X1302024Y2242250D03*
G01X1382024Y2242250D03*
G01X1382024Y2322250D03*
G01X1125339Y2445239D03*
G01X1125339Y2365239D03*
G01X1205339Y2365239D03*
G01X1205339Y2445239D03*
G01X1150837Y2171063D03*
G01X1150837Y2091063D03*
G01X1230837Y2091063D03*
G01X1230837Y2171063D03*
G01X731173Y1784396D03*
G01X731173Y1704396D03*
G01X811173Y1704396D03*
G01X811173Y1784396D03*
G01X761771Y1601712D03*
G01X761771Y1521712D03*
G01X841770Y1521712D03*
G01X841770Y1601712D03*
G01X778869Y1422328D03*
G01X778869Y1342328D03*
G01X858869Y1342328D03*
G01X858869Y1422328D03*
G01X1197033Y963367D03*
G01X1197033Y883368D03*
G01X1277033Y883368D03*
G01X1277033Y963367D03*
G01X1043446Y1021562D03*
G01X949554Y1081650D03*
G01X865768Y1166843D03*
G01X865768Y1246843D03*
G01X1425913Y1177849D03*
G01X1491907Y1070551D03*
G01X1556009Y1035154D03*
G01X1418620Y1248643D03*
G01X1664692Y934870D03*
G01X1664692Y854870D03*
G01X1744692Y854870D03*
G01X1744692Y934870D03*
G01X2185447Y810381D03*
G01X2185447Y730381D03*
G01X2265447Y730381D03*
G01X2265447Y810381D03*
G01X7057025Y3615438D03*
G01X7057025Y3535438D03*
G01X7137025Y3535438D03*
G01X7137025Y3615438D03*
G01X6831745Y3378758D03*
G01X7036627Y3214166D03*
G01X6957940Y3661127D03*
G01X6957940Y3741127D03*
G01X6819446Y2673219D03*
G01X6819446Y2593219D03*
G01X6899445Y2593219D03*
G01X6899445Y2673219D03*
G01X6778349Y3039487D03*
G01X6778349Y2959488D03*
G01X6858349Y2959488D03*
G01X6858349Y3039487D03*
G01X7393939Y2907633D03*
G01X7315346Y2876529D03*
G01X6843694Y3118908D03*
G01X6843694Y3198908D03*
G01X7144810Y2832491D03*
G01X6770443Y3304143D03*
G01X7100921Y3485027D03*
G01X7067624Y2956380D03*
G01X7135618Y2956695D03*
G01X6763650Y2772004D03*
G01X6843650Y2772004D03*
G01X7219218Y2824706D03*
G01X7041726Y3090783D03*
G01X6859042Y3521039D03*
G01X7039833Y3359053D03*
G01X6939042Y3601039D03*
G01X7042370Y3800672D03*
G01X7042370Y3720673D03*
G01X7122370Y3720673D03*
G01X7122370Y3800672D03*
G01X7426343Y3841122D03*
G01X7426343Y3761123D03*
G01X7506343Y3761123D03*
G01X7506343Y3841122D03*
G01X7962647Y1105555D03*
G01X7962647Y1025555D03*
G01X8042646Y1025555D03*
G01X8042646Y1105555D03*
G01X8075137Y913572D03*
G01X8075137Y833572D03*
G01X8155137Y833572D03*
G01X8155137Y913572D03*
G01X8093135Y639695D03*
G01X8093135Y559696D03*
G01X8173135Y559696D03*
G01X8173135Y639695D03*
G01X8093135Y406916D03*
G01X8093135Y326916D03*
G01X8173135Y326916D03*
G01X8173135Y406916D03*
G01X7849856Y207133D03*
G01X7849856Y127133D03*
G01X7929856Y127133D03*
G01X7929856Y207133D03*
G01X8198126Y1113354D03*
G01X8198126Y1033355D03*
G01X8278126Y1033355D03*
G01X8278126Y1113354D03*
G01X8387410Y1128653D03*
G01X8387410Y1048653D03*
G01X8467410Y1048653D03*
G01X8467410Y1128653D03*
G01X9326928Y1494621D03*
G01X9326928Y1414622D03*
G01X9406928Y1414622D03*
G01X9406928Y1494621D03*
G01X9206639Y1809594D03*
G01X9206639Y1729594D03*
G01X9286639Y1729594D03*
G01X9286639Y1809594D03*
G01X9338627Y1613411D03*
G01X9235436Y1574508D03*
G01X9552415Y1471917D03*
G01X9550016Y1564515D03*
G01X5987618Y528105D03*
G01X5987618Y448105D03*
G01X6067618Y448105D03*
G01X6067618Y528105D03*
G01X5990017Y359220D03*
G01X5990017Y279220D03*
G01X6070017Y279220D03*
G01X6070017Y359220D03*
G01X6000276Y185235D03*
G01X6000276Y105235D03*
G01X6080276Y105235D03*
G01X6080276Y185235D03*
G01X6171802Y302825D03*
G01X6171802Y222825D03*
G01X6251802Y222825D03*
G01X6251802Y302825D03*
G01X4022051Y5684807D03*
G01X7026591Y5903788D03*
G01X6914101Y5774799D03*
G01X7293105Y1854383D03*
G01X7293105Y1934383D03*
G01X7373104Y1934383D03*
G01X7373104Y1854383D03*
G01X7676215Y1723239D03*
G01X7676215Y1803239D03*
G01X7756215Y1803239D03*
G01X7756215Y1723239D03*
G01X9202302Y3455401D03*
G01X7072787Y5409131D03*
G01X7228473Y4630099D03*
G04 Via End*

G04 Track Start*
G54D28*
G01X3750000Y4495999D02*
G01X3996000Y4249999D01*
G01X3750000Y4495999D02*
G01X3750000Y5070000D01*
G01X4884374Y2770000D02*
G01X5045700Y2770000D01*
G01X2891326Y2770000D02*
G01X2895625Y2774299D01*
G01X2730000Y2770000D02*
G01X2891326Y2770000D01*
G01X5600000Y4260001D02*
G01X5600000Y4529991D01*
G01X6300000Y6080000D02*
G01X6300000Y6220000D01*
G01X5230000Y3970000D02*
G01X4880000Y3620000D01*
G01X5230000Y5580000D02*
G01X5230000Y3970000D01*
G01X5020001Y5789999D02*
G01X5230000Y5580000D01*
G01X4769999Y5789999D02*
G01X5020001Y5789999D01*
G01X4575000Y5595000D02*
G01X4769999Y5789999D01*
G01X4575000Y5555000D02*
G01X4575000Y5595000D01*
G01X4960000Y5439989D02*
G01X4960000Y5570000D01*
G01X4820000Y5710000D01*
G01X4960000Y4110000D02*
G01X4960000Y5439989D01*
G01X4630000Y3780000D02*
G01X4960000Y4110000D01*
G01X4800000Y4545999D02*
G01X4800000Y4849999D01*
G01X4504000Y4249999D02*
G01X4800000Y4545999D01*
G01X4375000Y5855000D02*
G01X5725000Y5855000D01*
G01X5040000Y5650000D02*
G01X5170000Y5520000D01*
G01X5170000Y4020000D01*
G01X2180000Y2820000D02*
G01X2300000Y2940000D01*
G01X2300000Y3530000D01*
G01X4600000Y3780000D02*
G01X4630000Y3780000D01*
G01X4660000Y3700000D02*
G01X5040000Y4080000D01*
G01X5040000Y5430000D01*
G01X5110000Y4050000D02*
G01X5110000Y5460000D01*
G01X4514374Y3454374D02*
G01X5110000Y4050000D01*
G01X4514374Y2920000D02*
G01X4514374Y3454374D01*
G01X5170000Y4020000D02*
G01X4600000Y3450000D01*
G01X4600000Y2890000D01*
G01X5961310Y2836936D02*
G01X5961310Y3620000D01*
G01X3801406Y2831407D02*
G01X3801406Y3621407D01*
G01X4530000Y2820000D02*
G01X4334374Y2820000D01*
G01X4600000Y2890000D02*
G01X4530000Y2820000D01*
G01X2360000Y2920000D02*
G01X2360000Y3450000D01*
G01X5600000Y4529991D02*
G01X5600000Y4680000D01*
G01X5600000Y4420000D02*
G01X5600000Y4529991D01*
G01X5110000Y5460000D02*
G01X5040000Y5530000D01*
G54D10*
G01X4673595Y6007579D02*
G01X4546106Y6135068D01*
G01X6680421Y6007579D02*
G01X6330506Y6007579D01*
G01X6330147Y6007220D01*
G01X6269854Y6007220D01*
G01X6269495Y6007579D01*
G01X4673595Y6007579D01*
G01X4546106Y6135068D02*
G01X3680681Y6135068D01*
G01X2992541Y5446928D01*
G54D29*
G01X3248118Y4714391D02*
G01X3248118Y5024864D01*
G01X3249618Y5026364D01*
G54D10*
G01X1828800Y3708400D02*
G01X1560465Y3976735D01*
G54D28*
G01X3750000Y5380000D02*
G01X3600947Y5230947D01*
G01X1993027Y5230947D01*
G01X1913795Y5151715D01*
G01X1913795Y5067193D01*
G01X3750000Y5180000D02*
G01X3704355Y5134355D01*
G01X2065532Y5134355D01*
G01X2043384Y5112207D01*
G54D10*
G01X1560465Y3976735D02*
G01X1560465Y4913874D01*
G01X2093519Y5446928D01*
G01X2992541Y5446928D01*
G54D30*
G01X3477599Y3939259D02*
G01X3342010Y3803670D01*
G01X4186437Y3939259D02*
G01X3477599Y3939259D01*
G01X4379320Y4132142D02*
G01X4186437Y3939259D01*
G01X4379320Y4357422D02*
G01X4379320Y4132142D01*
G01X4449214Y4427316D02*
G01X4379320Y4357422D01*
G01X3342010Y3803670D02*
G01X2269330Y3803670D01*
G01X1025311Y2559652D01*
G01X1025311Y1943532D01*
G01X1965430Y3404105D02*
G01X1608761Y3047436D01*
G01X1608761Y1991527D01*
G54D26*
G01X7727330Y4315126D02*
G01X9077974Y4315126D01*
G01X9470000Y3923100D01*
G54D28*
G01X6418844Y4912374D02*
G01X6189168Y4912374D01*
G01X6144702Y4867908D01*
G54D29*
G01X8799737Y3761074D02*
G01X8799737Y3041736D01*
G01X9249717Y2084801D02*
G01X9470000Y2084801D01*
G01X7394359Y4168139D02*
G01X7647537Y3914961D01*
G01X8645851Y3914961D01*
G01X8799737Y3761074D01*
G54D28*
G01X6105010Y3453359D02*
G01X6100000Y3458368D01*
G01X6100000Y4420000D01*
G54D29*
G01X8836334Y3986654D02*
G01X7683234Y3986654D01*
G01X9470000Y2338801D02*
G01X9065814Y2742986D01*
G01X9065814Y3757174D01*
G01X8836334Y3986654D01*
G01X8799737Y3041736D02*
G01X8945525Y2895949D01*
G01X8945525Y2388993D01*
G01X9249717Y2084801D01*
G54D10*
G01X7794224Y4469013D02*
G01X8524961Y4469013D01*
G01X8533960Y4478012D01*
G54D29*
G01X7683234Y3986654D02*
G01X7623539Y4046349D01*
G01X7623539Y4705092D01*
G01X9470000Y4734400D02*
G01X9140839Y5063561D01*
G01X7292368Y5063561D01*
G54D30*
G01X4022051Y5684807D02*
G01X4022051Y5750502D01*
G01X4190937Y5919387D01*
G01X7010992Y5919387D01*
G01X7026591Y5903788D01*
G54D10*
G01X6040000Y5780000D02*
G01X7811400Y5780000D01*
G54D14*
G01X6950347Y1739900D02*
G01X6952744Y1737503D01*
G01X7010924Y1737503D01*
G01X7019220Y1729207D01*
G01X2590800Y1739900D02*
G01X6950347Y1739900D01*
G54D10*
G01X9202302Y3455401D02*
G01X9202302Y3124498D01*
G01X9470000Y2856800D01*
G54D29*
G01X6550006Y5410000D02*
G01X6550006Y5109383D01*
G01X7394359Y4265030D01*
G01X7394359Y4168139D01*
G54D26*
G01X7072787Y5409131D02*
G01X7072787Y4785785D01*
G01X7228473Y4630099D01*
G04 Track End*

M02*

