G04 Layer: TopPasteMaskLayer*
G04 EasyEDA Pro v2.2.32.3, 2025-05-22 17:57:24*
G04 Gerber Generator version 0.3*
G04 Scale: 100 percent, Rotated: No, Reflected: No*
G04 Dimensions in millimeters*
G04 Leading zeros omitted, absolute positions, 3 integers and 5 decimals*
%FSLAX35Y35*%
%MOMM*%
%ADD10R,1.0X1.10002*%
%ADD11R,1.10002X1.0*%
%ADD12R,1.0X1.10002*%
%ADD13R,1.5X3.0*%
%ADD14R,2.50002X1.0*%
%ADD15R,2.5037X1.0*%
%ADD16R,2.49999X1.0*%
%ADD17O,0.89574X0.28001*%
%ADD18O,0.28001X0.89574*%
%ADD19O,0.89572X0.28001*%
%ADD20R,3.50002X3.50002*%
%ADD21O,1.8X0.3*%
%ADD22O,0.3X1.8*%
%ADD23R,1.1X0.6*%
%ADD24R,1.1X1.6*%
%ADD25R,1.1X1.6*%
%ADD26R,3.6X2.0*%
%ADD27O,2.0X0.6*%
%ADD28R,1.13X1.8*%
%ADD29R,1.13X1.8*%
%ADD30R,1.10002X1.0*%
%ADD31R,1.6X1.4*%
%ADD32R,1.2X1.4*%
%ADD33R,1.0X0.8*%
%ADD34R,0.8X1.0*%
%ADD35R,1.8X1.13*%
%ADD36R,2.71998X2.29001*%
%ADD37R,0.89992X1.0*%
%ADD38R,2.0X2.0*%
%ADD39R,0.889X0.889*%
%ADD40R,0.889X0.889*%
%ADD41R,0.889X0.889*%
%ADD42R,0.889X0.889*%
%ADD43R,2.0X2.0*%
%ADD44R,2.2X2.0*%
%ADD45R,1.2X0.6*%
%ADD46R,2.4X3.29999*%
%ADD47R,2.0X2.0*%
%ADD48R,0.6X0.4*%
%ADD49R,0.6X0.4*%
%ADD50R,1.0X0.89992*%
%ADD51R,1.9X1.3*%
%ADD52R,2.0X2.0*%
%ADD53R,0.49022X0.98552*%
%ADD54R,1.0X2.99999*%
%ADD55R,2.49999X1.1*%
G75*


G04 PolygonModel Start*
G36*
G01X7514501Y2425499D02*
G01X7514501Y2462525D01*
G01X7524501Y2472525D01*
G01X7554991Y2472525D01*
G01X7564991Y2482525D01*
G01X7564991Y2521275D01*
G01X7554991Y2531275D01*
G01X7524501Y2531275D01*
G01X7514501Y2541275D01*
G01X7514501Y2578301D01*
G01X7524501Y2588301D01*
G01X7653000Y2588301D01*
G01X7663000Y2578301D01*
G01X7663000Y2425499D01*
G01X7653000Y2415499D01*
G01X7524501Y2415499D01*
G01X7514501Y2425499D01*
G37*
G36*
G01X7344499Y2425499D02*
G01X7344499Y2462525D01*
G01X7334499Y2472525D01*
G01X7304009Y2472525D01*
G01X7294009Y2482525D01*
G01X7294009Y2521275D01*
G01X7304009Y2531275D01*
G01X7334499Y2531275D01*
G01X7344499Y2541275D01*
G01X7344499Y2578301D01*
G01X7334499Y2588301D01*
G01X7206000Y2588301D01*
G01X7196000Y2578301D01*
G01X7196000Y2425499D01*
G01X7206000Y2415499D01*
G01X7334499Y2415499D01*
G01X7344499Y2425499D01*
G37*
G36*
G01X6406152Y3807678D02*
G01X6369126Y3807678D01*
G01X6359126Y3817678D01*
G01X6359126Y3848169D01*
G01X6349126Y3858169D01*
G01X6310376Y3858169D01*
G01X6300376Y3848169D01*
G01X6300376Y3817678D01*
G01X6290376Y3807678D01*
G01X6253351Y3807678D01*
G01X6243351Y3817678D01*
G01X6243351Y3946177D01*
G01X6253351Y3956177D01*
G01X6406152Y3956177D01*
G01X6416152Y3946177D01*
G01X6416152Y3817678D01*
G01X6406152Y3807678D01*
G37*
G36*
G01X6406152Y3637676D02*
G01X6369126Y3637676D01*
G01X6359126Y3627676D01*
G01X6359126Y3597186D01*
G01X6349126Y3587186D01*
G01X6310376Y3587186D01*
G01X6300376Y3597186D01*
G01X6300376Y3627676D01*
G01X6290376Y3637676D01*
G01X6253351Y3637676D01*
G01X6243351Y3627676D01*
G01X6243351Y3499178D01*
G01X6253351Y3489178D01*
G01X6406152Y3489178D01*
G01X6416152Y3499178D01*
G01X6416152Y3627676D01*
G01X6406152Y3637676D01*
G37*
G36*
G01X4359999Y1829001D02*
G01X4359999Y1791975D01*
G01X4349999Y1781975D01*
G01X4319509Y1781975D01*
G01X4309509Y1771975D01*
G01X4309509Y1733225D01*
G01X4319509Y1723225D01*
G01X4349999Y1723225D01*
G01X4359999Y1713225D01*
G01X4359999Y1676199D01*
G01X4349999Y1666199D01*
G01X4221500Y1666199D01*
G01X4211500Y1676199D01*
G01X4211500Y1829001D01*
G01X4221500Y1839001D01*
G01X4349999Y1839001D01*
G01X4359999Y1829001D01*
G37*
G36*
G01X4530001Y1829001D02*
G01X4530001Y1791975D01*
G01X4540001Y1781975D01*
G01X4570491Y1781975D01*
G01X4580491Y1771975D01*
G01X4580491Y1733225D01*
G01X4570491Y1723225D01*
G01X4540001Y1723225D01*
G01X4530001Y1713225D01*
G01X4530001Y1676199D01*
G01X4540001Y1666199D01*
G01X4668500Y1666199D01*
G01X4678500Y1676199D01*
G01X4678500Y1829001D01*
G01X4668500Y1839001D01*
G01X4540001Y1839001D01*
G01X4530001Y1829001D01*
G37*
G36*
G01X5723801Y1676199D02*
G01X5723801Y1713225D01*
G01X5733801Y1723225D01*
G01X5764291Y1723225D01*
G01X5774291Y1733225D01*
G01X5774291Y1771975D01*
G01X5764291Y1781975D01*
G01X5733801Y1781975D01*
G01X5723801Y1791975D01*
G01X5723801Y1829001D01*
G01X5733801Y1839001D01*
G01X5862300Y1839001D01*
G01X5872300Y1829001D01*
G01X5872300Y1676199D01*
G01X5862300Y1666199D01*
G01X5733801Y1666199D01*
G01X5723801Y1676199D01*
G37*
G36*
G01X5553799Y1676199D02*
G01X5553799Y1713225D01*
G01X5543799Y1723225D01*
G01X5513309Y1723225D01*
G01X5503309Y1733225D01*
G01X5503309Y1771975D01*
G01X5513309Y1781975D01*
G01X5543799Y1781975D01*
G01X5553799Y1791975D01*
G01X5553799Y1829001D01*
G01X5543799Y1839001D01*
G01X5415300Y1839001D01*
G01X5405300Y1829001D01*
G01X5405300Y1676199D01*
G01X5415300Y1666199D01*
G01X5543799Y1666199D01*
G01X5553799Y1676199D01*
G37*
G36*
G01X3577501Y1676199D02*
G01X3577501Y1713225D01*
G01X3587501Y1723225D01*
G01X3617991Y1723225D01*
G01X3627991Y1733225D01*
G01X3627991Y1771975D01*
G01X3617991Y1781975D01*
G01X3587501Y1781975D01*
G01X3577501Y1791975D01*
G01X3577501Y1829001D01*
G01X3587501Y1839001D01*
G01X3716000Y1839001D01*
G01X3726000Y1829001D01*
G01X3726000Y1676199D01*
G01X3716000Y1666199D01*
G01X3587501Y1666199D01*
G01X3577501Y1676199D01*
G37*
G36*
G01X3407499Y1676199D02*
G01X3407499Y1713225D01*
G01X3397499Y1723225D01*
G01X3367009Y1723225D01*
G01X3357009Y1733225D01*
G01X3357009Y1771975D01*
G01X3367009Y1781975D01*
G01X3397499Y1781975D01*
G01X3407499Y1791975D01*
G01X3407499Y1829001D01*
G01X3397499Y1839001D01*
G01X3269000Y1839001D01*
G01X3259000Y1829001D01*
G01X3259000Y1676199D01*
G01X3269000Y1666199D01*
G01X3397499Y1666199D01*
G01X3407499Y1676199D01*
G37*
G36*
G01X2200999Y1829001D02*
G01X2200999Y1791975D01*
G01X2190999Y1781975D01*
G01X2160509Y1781975D01*
G01X2150509Y1771975D01*
G01X2150509Y1733225D01*
G01X2160509Y1723225D01*
G01X2190999Y1723225D01*
G01X2200999Y1713225D01*
G01X2200999Y1676199D01*
G01X2190999Y1666199D01*
G01X2062500Y1666199D01*
G01X2052500Y1676199D01*
G01X2052500Y1829001D01*
G01X2062500Y1839001D01*
G01X2190999Y1839001D01*
G01X2200999Y1829001D01*
G37*
G36*
G01X2371001Y1829001D02*
G01X2371001Y1791975D01*
G01X2381001Y1781975D01*
G01X2411491Y1781975D01*
G01X2421491Y1771975D01*
G01X2421491Y1733225D01*
G01X2411491Y1723225D01*
G01X2381001Y1723225D01*
G01X2371001Y1713225D01*
G01X2371001Y1676199D01*
G01X2381001Y1666199D01*
G01X2509500Y1666199D01*
G01X2519500Y1676199D01*
G01X2519500Y1829001D01*
G01X2509500Y1839001D01*
G01X2381001Y1839001D01*
G01X2371001Y1829001D01*
G37*
G36*
G01X7343255Y2338805D02*
G01X7343255Y2301779D01*
G01X7333255Y2291779D01*
G01X7302765Y2291779D01*
G01X7292765Y2281779D01*
G01X7292765Y2243029D01*
G01X7302765Y2233029D01*
G01X7333255Y2233029D01*
G01X7343255Y2223029D01*
G01X7343255Y2186003D01*
G01X7333255Y2176003D01*
G01X7204756Y2176003D01*
G01X7194757Y2186003D01*
G01X7194757Y2338805D01*
G01X7204756Y2348805D01*
G01X7333255Y2348805D01*
G01X7343255Y2338805D01*
G37*
G36*
G01X7513257Y2338805D02*
G01X7513257Y2301779D01*
G01X7523257Y2291779D01*
G01X7553747Y2291779D01*
G01X7563747Y2281779D01*
G01X7563747Y2243029D01*
G01X7553747Y2233029D01*
G01X7523257Y2233029D01*
G01X7513257Y2223029D01*
G01X7513257Y2186003D01*
G01X7523257Y2176003D01*
G01X7651756Y2176003D01*
G01X7661756Y2186003D01*
G01X7661756Y2338805D01*
G01X7651756Y2348805D01*
G01X7523257Y2348805D01*
G01X7513257Y2338805D01*
G37*
G36*
G01X6656030Y3806179D02*
G01X6619005Y3806179D01*
G01X6609005Y3816179D01*
G01X6609005Y3846669D01*
G01X6599005Y3856669D01*
G01X6560255Y3856669D01*
G01X6550255Y3846669D01*
G01X6550255Y3816179D01*
G01X6540255Y3806179D01*
G01X6503229Y3806179D01*
G01X6493229Y3816179D01*
G01X6493229Y3944677D01*
G01X6503229Y3954677D01*
G01X6656030Y3954677D01*
G01X6666030Y3944677D01*
G01X6666030Y3816179D01*
G01X6656030Y3806179D01*
G37*
G36*
G01X6656030Y3636176D02*
G01X6619005Y3636176D01*
G01X6609005Y3626176D01*
G01X6609005Y3595686D01*
G01X6599005Y3585686D01*
G01X6560255Y3585686D01*
G01X6550255Y3595686D01*
G01X6550255Y3626176D01*
G01X6540255Y3636176D01*
G01X6503229Y3636176D01*
G01X6493229Y3626176D01*
G01X6493229Y3497678D01*
G01X6503229Y3487678D01*
G01X6656030Y3487678D01*
G01X6666030Y3497678D01*
G01X6666030Y3626176D01*
G01X6656030Y3636176D01*
G37*

G04 Pad Start*
G54D10*
G01X3460005Y5380000D03*
G01X3619985Y5380000D03*
G01X3460005Y5180000D03*
G01X3619985Y5180000D03*
G54D11*
G01X6302607Y1347907D03*
G01X6302607Y1187928D03*
G54D12*
G01X4659995Y5980000D03*
G01X4500015Y5980000D03*
G54D13*
G01X5350000Y4699999D03*
G01X5350000Y5700000D03*
G54D14*
G01X3024629Y4047399D03*
G54D16*
G01X2464591Y4047399D03*
G54D17*
G01X5299994Y2259875D03*
G01X5299994Y2309913D03*
G01X5299994Y2359951D03*
G01X5299994Y2409989D03*
G01X5299994Y2460027D03*
G01X5299994Y2510065D03*
G01X5299994Y2560103D03*
G54D18*
G01X5200104Y2660002D03*
G01X5150066Y2660002D03*
G01X5100028Y2660002D03*
G01X5049990Y2660002D03*
G01X4999952Y2660002D03*
G01X4949914Y2660002D03*
G01X4899876Y2660002D03*
G54D19*
G01X4799994Y2560103D03*
G01X4799994Y2510065D03*
G01X4799994Y2460027D03*
G01X4799994Y2409989D03*
G01X4799994Y2359951D03*
G01X4799994Y2309913D03*
G01X4799994Y2259875D03*
G54D18*
G01X4899876Y2160003D03*
G01X4949914Y2160003D03*
G01X4999952Y2160003D03*
G01X5049990Y2160003D03*
G01X5100028Y2160003D03*
G01X5150066Y2160003D03*
G01X5200104Y2160003D03*
G54D20*
G01X5049999Y2409982D03*
G54D17*
G01X3145620Y2259875D03*
G01X3145620Y2309913D03*
G01X3145620Y2359951D03*
G01X3145620Y2409989D03*
G01X3145620Y2460027D03*
G01X3145620Y2510065D03*
G01X3145620Y2560103D03*
G54D18*
G01X3045730Y2660002D03*
G01X2995692Y2660002D03*
G01X2945654Y2660002D03*
G01X2895616Y2660002D03*
G01X2845578Y2660002D03*
G01X2795540Y2660002D03*
G01X2745502Y2660002D03*
G54D19*
G01X2645620Y2560103D03*
G01X2645620Y2510065D03*
G01X2645620Y2460027D03*
G01X2645620Y2409989D03*
G01X2645620Y2359951D03*
G01X2645620Y2309913D03*
G01X2645620Y2259875D03*
G54D18*
G01X2745502Y2160003D03*
G01X2795540Y2160003D03*
G01X2845578Y2160003D03*
G01X2895616Y2160003D03*
G01X2945654Y2160003D03*
G01X2995692Y2160003D03*
G01X3045730Y2160003D03*
G54D20*
G01X2895625Y2409982D03*
G54D21*
G01X4880000Y5004999D03*
G01X4880000Y5054999D03*
G01X4880000Y5104999D03*
G01X4880000Y5154999D03*
G01X4880000Y5204999D03*
G01X4880000Y5254999D03*
G01X4880000Y5304999D03*
G01X4880000Y5354999D03*
G01X4880000Y5404999D03*
G01X4880000Y5455000D03*
G01X4880000Y5504999D03*
G01X4880000Y5554999D03*
G54D22*
G01X4725000Y5709999D03*
G01X4675000Y5709999D03*
G01X4625000Y5709999D03*
G01X4575000Y5709999D03*
G01X4525000Y5709999D03*
G01X4475000Y5709999D03*
G01X4425000Y5709999D03*
G01X4375000Y5709999D03*
G01X4325000Y5709999D03*
G01X4275000Y5709999D03*
G01X4225000Y5709999D03*
G01X4175000Y5709999D03*
G54D21*
G01X4020000Y5554999D03*
G01X4020000Y5504999D03*
G01X4020000Y5455000D03*
G01X4020000Y5404999D03*
G01X4020000Y5354999D03*
G01X4020000Y5304999D03*
G01X4020000Y5254999D03*
G01X4020000Y5204999D03*
G01X4020000Y5154999D03*
G01X4020000Y5104999D03*
G01X4020000Y5054999D03*
G01X4020000Y5004999D03*
G54D22*
G01X4175000Y4849999D03*
G01X4225000Y4849999D03*
G01X4275000Y4849999D03*
G01X4325000Y4849999D03*
G01X4375000Y4849999D03*
G01X4425000Y4849999D03*
G01X4475000Y4849999D03*
G01X4525000Y4849999D03*
G01X4575000Y4849999D03*
G01X4625000Y4849999D03*
G01X4675000Y4849999D03*
G01X4725000Y4849999D03*
G54D23*
G01X1564452Y4483619D03*
G01X1564452Y4388619D03*
G01X1564452Y4293620D03*
G01X1844452Y4293620D03*
G01X1844452Y4388619D03*
G01X1844452Y4483619D03*
G54D24*
G01X7936100Y4492500D03*
G54D25*
G01X8166100Y4492500D03*
G54D24*
G01X8396100Y4492500D03*
G54D26*
G01X8166100Y5042500D03*
G54D27*
G01X3034600Y4377399D03*
G01X2450400Y4370399D03*
G01X2450400Y5262399D03*
G01X2450400Y5135399D03*
G01X2450400Y5008399D03*
G01X2450400Y4881399D03*
G01X2450400Y4754399D03*
G01X2450400Y4627399D03*
G01X2450400Y4500399D03*
G01X3034600Y4500399D03*
G01X3034600Y4627399D03*
G01X3034600Y4754399D03*
G01X3034600Y4881399D03*
G01X3034600Y5008399D03*
G01X3034600Y5135399D03*
G01X3034600Y5262399D03*
G54D28*
G01X5793375Y940000D03*
G01X5495375Y940000D03*
G01X5793375Y1220000D03*
G01X5495375Y1220000D03*
G54D29*
G01X4285375Y1220000D03*
G01X4583375Y1220000D03*
G01X4285375Y940000D03*
G01X4583375Y940000D03*
G54D28*
G01X3639000Y940000D03*
G01X3341000Y940000D03*
G01X3639000Y1220000D03*
G01X3341000Y1220000D03*
G54D29*
G01X2131001Y1220000D03*
G01X2429001Y1220000D03*
G01X2131001Y940000D03*
G01X2429001Y940000D03*
G54D30*
G01X5030000Y3109975D03*
G01X5030000Y3269954D03*
G01X2870000Y3109975D03*
G01X2870000Y3269954D03*
G54D11*
G01X5240000Y3270025D03*
G01X5240000Y3110046D03*
G01X3080000Y3270025D03*
G01X3080000Y3110046D03*
G54D31*
G01X4310000Y3360000D03*
G54D32*
G01X4210000Y3020000D03*
G01X4410000Y3020000D03*
G54D31*
G01X2160001Y3355000D03*
G54D32*
G01X2060000Y3015000D03*
G01X2260001Y3015000D03*
G54D30*
G01X4610000Y3109975D03*
G01X4610000Y3269954D03*
G01X2450000Y3109975D03*
G01X2450000Y3269954D03*
G54D28*
G01X4583375Y1500000D03*
G01X4285375Y1500000D03*
G01X5793375Y1500001D03*
G01X5495375Y1500001D03*
G01X2429001Y1500000D03*
G01X2131001Y1500000D03*
G01X3639000Y1500000D03*
G01X3341000Y1500000D03*
G54D11*
G01X6591300Y5071095D03*
G01X6591300Y4911115D03*
G54D12*
G01X7380000Y5520000D03*
G01X7220021Y5520000D03*
G54D10*
G01X7220006Y5299999D03*
G01X7379985Y5299999D03*
G54D30*
G01X7291768Y4801782D03*
G01X7291768Y4961761D03*
G54D10*
G01X6550006Y5520000D03*
G01X6709985Y5520000D03*
G01X6550006Y5299999D03*
G01X6709985Y5299999D03*
G54D30*
G01X6302607Y1557912D03*
G01X6302607Y1717892D03*
G54D10*
G01X6512612Y1707907D03*
G01X6672591Y1707907D03*
G54D12*
G01X7496795Y4318000D03*
G01X7336815Y4318000D03*
G01X5889995Y5520000D03*
G01X5730016Y5520000D03*
G01X5889995Y5719999D03*
G01X5730016Y5719999D03*
G01X5889995Y4680000D03*
G01X5730016Y4680000D03*
G01X2154590Y4987399D03*
G01X1994610Y4987399D03*
G54D30*
G01X8128000Y5685805D03*
G01X8128000Y5845785D03*
G54D12*
G01X2154595Y5197399D03*
G01X1994616Y5197399D03*
G54D33*
G01X7105000Y4978400D03*
G01X6865000Y4878400D03*
G01X6865000Y5078400D03*
G54D34*
G01X6622607Y1427907D03*
G01X6722607Y1187907D03*
G01X6522607Y1187907D03*
G54D35*
G01X6985000Y1133700D03*
G01X6985000Y1431700D03*
G54D36*
G01X8616453Y1736568D03*
G01X8616453Y1331567D03*
G54D37*
G01X8121901Y6050602D03*
G01X7951902Y6050602D03*
G54D38*
G01X8242686Y1736268D03*
G01X8242686Y1316268D03*
G54D39*
G01X5450000Y3112530D03*
G01X5450000Y3267470D03*
G01X3290000Y3112530D03*
G01X3290000Y3267470D03*
G54D40*
G01X4820000Y3267470D03*
G01X4820000Y3112530D03*
G01X2660000Y3267470D03*
G01X2660000Y3112530D03*
G01X4020000Y3267470D03*
G01X4020000Y3112530D03*
G01X1870000Y3267470D03*
G01X1870000Y3112530D03*
G54D39*
G01X5660000Y3112530D03*
G01X5660000Y3267470D03*
G01X3500000Y3112530D03*
G01X3500000Y3267470D03*
G54D40*
G01X5870000Y3267470D03*
G01X5870000Y3112530D03*
G01X3710000Y3267470D03*
G01X3710000Y3112530D03*
G54D41*
G01X3617470Y4980000D03*
G01X3462530Y4980000D03*
G54D42*
G01X4742530Y4629999D03*
G01X4897470Y4629999D03*
G54D41*
G01X4177470Y5980000D03*
G01X4022530Y5980000D03*
G01X7377470Y5720000D03*
G01X7222530Y5720000D03*
G54D42*
G01X6552531Y5719999D03*
G01X6707471Y5719999D03*
G01X5732531Y4900000D03*
G01X5887471Y4900000D03*
G01X5732531Y5110000D03*
G01X5887471Y5110000D03*
G54D41*
G01X5884940Y5320000D03*
G01X5730000Y5320000D03*
G54D40*
G01X2214600Y4114870D03*
G01X2214600Y3959930D03*
G01X8661400Y4636770D03*
G01X8661400Y4481830D03*
G01X3274600Y4114870D03*
G01X3274600Y3959930D03*
G54D28*
G01X8144100Y5384800D03*
G01X8442100Y5384800D03*
G54D42*
G01X3452530Y4770000D03*
G01X3607470Y4770000D03*
G54D41*
G01X2152070Y4787400D03*
G01X1997130Y4787400D03*
G01X2812070Y5447399D03*
G01X2657130Y5447399D03*
G54D42*
G01X7423380Y2768460D03*
G01X7578320Y2768460D03*
G54D43*
G01X8592000Y2489200D03*
G01X8172000Y2489200D03*
G54D44*
G01X8229600Y2809596D03*
G01X8229600Y3489604D03*
G54D12*
G01X7445995Y3619500D03*
G01X7286015Y3619500D03*
G54D45*
G01X7710010Y3027242D03*
G01X7710010Y3154242D03*
G01X7710010Y3281242D03*
G01X7710010Y3408242D03*
G01X7128350Y3408242D03*
G01X7128350Y3281242D03*
G01X7128350Y3154242D03*
G01X7128350Y3027242D03*
G54D46*
G01X7419180Y3217742D03*
G54D47*
G01X1123500Y3022600D03*
G01X1543500Y3022600D03*
G54D11*
G01X6578600Y4250695D03*
G01X6578600Y4410695D03*
G54D23*
G01X7099600Y4501900D03*
G01X7099600Y4311900D03*
G01X6819600Y4311900D03*
G01X6819600Y4406900D03*
G01X6819600Y4501900D03*
G54D48*
G01X7059994Y4724400D03*
G54D49*
G01X6910007Y4724400D03*
G54D41*
G01X2223770Y5473700D03*
G01X2068830Y5473700D03*
G54D50*
G01X1461871Y6070179D03*
G01X1461871Y5900179D03*
G54D51*
G01X1739011Y6206693D03*
G01X2578989Y6206693D03*
G01X1739011Y5756707D03*
G01X2578989Y5756707D03*
G54D12*
G01X2993395Y5765800D03*
G01X3153395Y5765800D03*
G54D10*
G01X3153405Y5981700D03*
G01X2993405Y5981700D03*
G54D48*
G01X2053922Y690840D03*
G54D49*
G01X1903935Y690840D03*
G54D48*
G01X1586294Y698500D03*
G54D49*
G01X1436307Y698500D03*
G54D33*
G01X1783700Y1270000D03*
G01X1543700Y1170000D03*
G01X1543700Y1370000D03*
G01X1237600Y1295400D03*
G01X997600Y1195400D03*
G01X997600Y1395400D03*
G54D30*
G01X1549400Y1587305D03*
G01X1549400Y1747284D03*
G54D11*
G01X1776746Y1749350D03*
G01X1776746Y1589371D03*
G54D30*
G01X1016000Y1596405D03*
G01X1016000Y1756385D03*
G54D11*
G01X1231900Y1756395D03*
G01X1231900Y1596415D03*
G54D52*
G01X6540500Y2457900D03*
G01X6540500Y2037900D03*
G54D53*
G01X8328178Y5922256D03*
G01X8328178Y5698736D03*
G01X8647950Y4150610D03*
G01X8647950Y3927090D03*
G54D11*
G01X7484351Y4960272D03*
G01X7484351Y4800292D03*
G54D30*
G01X6915001Y5392731D03*
G01X6915001Y5552710D03*
G54D54*
G01X7517348Y1842564D03*
G01X7517348Y1282565D03*
G54D55*
G01X8336507Y3909851D03*
G01X7906485Y3909851D03*
G54D39*
G01X7976009Y1361805D03*
G01X7976009Y1516745D03*
G54D30*
G01X8794938Y3542491D03*
G01X8794938Y3702471D03*
G04 Pad End*

M02*

