G04 Layer: CustomLayer2*
G04 EasyEDA Pro v2.2.32.3, 2025-07-18 15:09:41*
G04 Gerber Generator version 0.3*
G04 Scale: 100 percent, Rotated: No, Reflected: No*
G04 Dimensions in millimeters*
G04 Leading zeros omitted, absolute positions, 3 integers and 5 decimals*
%FSLAX35Y35*%
%MOMM*%
%ADD10C,0.15*%
%ADD11C,0.0127*%
G75*


G04 PolygonModel Start*
G54D10*
G01X5864000Y6940000D02*
G01X5864000Y7200000D01*
G01X6296000Y6940000D02*
G01X6296000Y7200000D01*
G01X5864000Y6940000D02*
G01X6296000Y6940000D01*
G01X5864000Y7200000D02*
G01X6296000Y7200000D01*
G01X11350000Y2305000D02*
G01X11530000Y2305000D01*
G01X11350000Y1995000D02*
G01X11530000Y1995000D01*
G01X11350000Y1995000D02*
G01X11350000Y2305000D01*
G01X11530000Y1995000D02*
G01X11530000Y2305000D01*
G01X6300000Y6145000D02*
G01X6120000Y6145000D01*
G01X6300000Y6455000D02*
G01X6120000Y6455000D01*
G01X6300000Y6455000D02*
G01X6300000Y6145000D01*
G01X6120000Y6455000D02*
G01X6120000Y6145000D01*
G01X1538155Y3307532D02*
G01X1798155Y3307532D01*
G01X1538155Y2875532D02*
G01X1798155Y2875532D01*
G01X1538155Y3307532D02*
G01X1538155Y2875532D01*
G01X1798155Y3307532D02*
G01X1798155Y2875532D01*
G01X4726000Y3710000D02*
G01X4726000Y3450000D01*
G01X4294000Y3710000D02*
G01X4294000Y3450000D01*
G01X4726000Y3710000D02*
G01X4294000Y3710000D01*
G01X4726000Y3450000D02*
G01X4294000Y3450000D01*
G01X4294000Y3140000D02*
G01X4726000Y3140000D01*
G01X4294000Y3400000D02*
G01X4726000Y3400000D01*
G01X4294000Y3140000D02*
G01X4294000Y3400000D01*
G01X4726000Y3140000D02*
G01X4726000Y3400000D01*
G01X1230000Y2326000D02*
G01X1490000Y2326000D01*
G01X1230000Y1894000D02*
G01X1490000Y1894000D01*
G01X1230000Y2326000D02*
G01X1230000Y1894000D01*
G01X1490000Y2326000D02*
G01X1490000Y1894000D01*
G01X4050000Y6556000D02*
G01X4050000Y6124000D01*
G01X4310000Y6556000D02*
G01X4310000Y6124000D01*
G01X4050000Y6556000D02*
G01X4310000Y6556000D01*
G01X4050000Y6124000D02*
G01X4310000Y6124000D01*
G54D11*
G01X5128659Y8226620D02*
G01X5133739Y8231700D01*
G54D10*
G01X5206900Y3340100D02*
G01X5306900Y3340100D01*
G01X5256900Y3390100D02*
G01X5256900Y3290100D01*
G01X6116900Y3390100D02*
G01X6116900Y3290100D01*

M02*

