G04 Layer: BottomLayer*
G04 EasyEDA Pro v2.2.32.3, 2025-07-18 15:09:41*
G04 Gerber Generator version 0.3*
G04 Scale: 100 percent, Rotated: No, Reflected: No*
G04 Dimensions in millimeters*
G04 Leading zeros omitted, absolute positions, 3 integers and 5 decimals*
%FSLAX35Y35*%
%MOMM*%
%ADD10C,1.2*%
%ADD11C,0.6*%
%ADD12C,1.6*%
%ADD13R,1.6X1.6*%
%ADD14R,1.2X1.2*%
%ADD15O,2.0X1.6*%
%ADD16R,2.0X1.6*%
%ADD17R,1.2059X1.4*%
%ADD18R,1.2X1.4*%
%ADD19O,1.2X1.4*%
%ADD20C,2.1844*%
%ADD21R,2.1844X2.1844*%
%ADD22R,2.0X1.5*%
%ADD23O,2.0X1.5*%
%ADD24C,2.54*%
%ADD25R,2.54X2.54*%
%ADD26C,1.4*%
%ADD27R,1.4X1.4*%
%ADD28O,1.5X2.0*%
%ADD29R,1.5X2.0*%
%ADD30R,2.1844X2.1844*%
%ADD31O,3.0X2.0*%
%ADD32C,2.6*%
%ADD33O,2.0X4.0*%
%ADD34R,1.4X1.4*%
%ADD35C,3.0*%
%ADD36C,1.524*%
%ADD37C,0.5*%
%ADD38C,0.53*%
%ADD39C,0.8*%
%ADD40C,2.0*%
%ADD41C,0.3*%
%ADD42C,0.254*%
%ADD43C,0.381*%
%ADD44C,0.9*%
G75*


G04 Copper Start*
G36*
G01X12201117Y766219D02*
G01X727608Y766219D01*
G03X272392Y766219I-227608J-266219D01*
G01X1270Y766219D01*
G01X1270Y5130445D01*
G03X173070Y5173400I80530J42955D01*
G03X1270Y5216355I-91270J0D01*
G01X1266Y8100106D01*
G02X84470Y8457229I594033J49853D01*
G01X319471Y8457229D01*
G03X500000Y7699746I180529J-357229D01*
G03X680529Y8457229I0J400254D01*
G01X12319472Y8457229D01*
G03X12500000Y7699746I180528J-357229D01*
G03X12680528Y8457229I0J400254D01*
G01X12877006Y8457229D01*
G02X12998404Y8099846I-545941J-384760D01*
G01X12998730Y8099048D01*
G01X12998731Y766219D01*
G01X12798882Y766219D01*
G03X12201117Y766219I-298882J-266219D01*
G37*
%LPC*%
G36*
G01X790010Y6207809D02*
G03X790010Y5896501I0J-155654D01*
G03X790010Y6207809I0J155654D01*
G37*
G36*
G01X954342Y3913703D02*
G01X881875Y3913703D01*
G03X634356Y3788049I-91865J-125654D01*
G03X881875Y3662395I155654J0D01*
G01X1006390Y3662395D01*
G03X1095241Y3699198I0J125654D01*
G01X1655315Y4259272D01*
G03X1692118Y4348123I-88851J88851D01*
G01X1692118Y5074418D01*
G01X3671172Y7053472D01*
G01X3675032Y7054417D01*
G01X3678297Y7054960D01*
G01X3680791Y7055135D01*
G01X3682569Y7055035D01*
G01X3684101Y7054716D01*
G01X3685962Y7054013D01*
G01X3688600Y7052542D01*
G01X3692216Y7049869D01*
G01X3697198Y7045308D01*
G01X3921252Y6821253D01*
G03X3949999Y6809346I28747J28747D01*
G01X4026160Y6809348D01*
G01X4029783Y6809346D01*
G03X4110654Y6850000I30217J40654D01*
G03X4029783Y6890654I-50654J0D01*
G01X4026160Y6890652D01*
G01X3966839Y6890654D01*
G01X3754691Y7102801D01*
G01X3750130Y7107782D01*
G01X3747457Y7111399D01*
G01X3745986Y7114037D01*
G01X3745283Y7115897D01*
G01X3744964Y7117429D01*
G01X3744864Y7119208D01*
G01X3745039Y7121701D01*
G01X3745582Y7124966D01*
G01X3748140Y7135417D01*
G01X3751279Y7148105D01*
G01X3751577Y7149468D01*
G01X3752918Y7156508D01*
G01X3753155Y7157993D01*
G01X3754145Y7165590D01*
G01X3754314Y7167369D01*
G01X3754382Y7168507D01*
G03X3754793Y7175362I-134383J11493D01*
G01X3754850Y7177531D01*
G03X3754666Y7187454I-134851J2470D01*
G03X3524628Y7275370I-134688J-7506D01*
G03X3496525Y7234228I95422J-95351D01*
G01X1477613Y5215317D01*
G03X1440810Y5126466I88851J-88851D01*
G01X1440810Y4400171D01*
G01X954342Y3913703D01*
G37*
G36*
G01X4745707Y4045707D02*
G01X5050767Y3740647D01*
G03X5090120Y3724346I39353J39353D01*
G01X5610192Y3724346D01*
G03X5700000Y3674346I89808J55654D01*
G01X6076237Y3674346D01*
G01X6215291Y3535291D01*
G03X6290000Y3504346I74709J74709D01*
G01X10196237Y3504346D01*
G01X10935292Y2765291D01*
G03X11010000Y2734346I74709J74709D01*
G01X11070000Y2734346D01*
G03X11070000Y2945654I0J105654D01*
G01X11053764Y2945654D01*
G01X10314709Y3684709D01*
G03X10240000Y3715654I-74709J-74709D01*
G01X6333763Y3715654D01*
G01X6194709Y3854709D01*
G03X6120000Y3885654I-74709J-74709D01*
G01X5700000Y3885654D01*
G03X5610192Y3835654I0J-105654D01*
G01X5113172Y3835654D01*
G01X4315654Y4633172D01*
G01X4315654Y6236948D01*
G01X4413052Y6334346D01*
G01X4419456Y6334346D01*
G01X4330888Y6235438D01*
G03X4324346Y6218325I19112J-17114D01*
G01X4324346Y4755381D01*
G03X4330888Y4738267I25654J0D01*
G01X4890888Y4112887D01*
G03X4910000Y4104346I19112J17114D01*
G01X5275263Y4104346D01*
G03X5389707Y3926812I114444J-51880D01*
G01X6102466Y3926812D01*
G03X6191317Y3963616I0J125654D01*
G01X6578851Y4351149D01*
G03X6615654Y4440000I-88851J88851D01*
G01X6615654Y5778249D01*
G03X6621253Y5771254I34346J21751D01*
G01X6699346Y5693161D01*
G01X6699348Y5503840D01*
G01X6699346Y5500217D01*
G03X6740000Y5419346I40654J-30217D01*
G03X6780654Y5500217I0J50654D01*
G01X6780652Y5503840D01*
G01X6780654Y5710000D01*
G03X6768747Y5738747I-40654J0D01*
G01X6690654Y5816840D01*
G01X6690652Y6046160D01*
G01X6690654Y6049783D01*
G03X6683871Y6117664I-40654J30217D01*
G03X6615654Y6117232I-33871J-37664D01*
G01X6615654Y6899414D01*
G01X6624497Y6908258D01*
G03X6699031Y7023043I-51121J114785D01*
G01X6699031Y7176623D01*
G03X6662227Y7265474I-125654J0D01*
G01X6338851Y7588851D01*
G03X6250000Y7625654I-88851J-88851D01*
G01X1960000Y7625654D01*
G03X1871149Y7588851I0J-125654D01*
G01X1833030Y7550731D01*
G02X1599837Y7369019I-850625J851129D01*
G03X1590845Y7359932I13163J-22019D01*
G02X1448699Y7167679I-955157J557536D01*
G01X1284704Y7331673D01*
G01X1284704Y7467558D01*
G01X1284882Y7471387D01*
G01X1285263Y7474306D01*
G01X1285733Y7476376D01*
G03X1240000Y7548809I-45733J21780D01*
G03X1194268Y7476375I0J-50654D01*
G01X1194737Y7474307D01*
G01X1195118Y7471387D01*
G01X1195296Y7467558D01*
G01X1195296Y7313156D01*
G03X1208390Y7281546I44704J0D01*
G01X1386117Y7103818D01*
G01X866198Y6583899D01*
G03X634636Y6438847I-76188J-135733D01*
G03X881875Y6322512I155375J9319D01*
G01X908166Y6322512D01*
G03X997017Y6359315I0J125654D01*
G01X1595267Y6957566D01*
G02X1867001Y7067346I271733J-281414D01*
G03X1892653Y7092673I0J25654D01*
G02X2010837Y7373136I404086J-5146D01*
G01X2012048Y7374346D01*
G01X6197952Y7374346D01*
G01X6447722Y7124576D01*
G01X6447722Y7086886D01*
G01X6401149Y7040313D01*
G03X6364346Y6951462I88851J-88851D01*
G01X6364346Y4492048D01*
G01X6355654Y4483356D01*
G01X6355654Y6296498D01*
G03X6349112Y6313611I-25654J0D01*
G01X6319112Y6347114D01*
G03X6300000Y6355654I-19112J-17114D01*
G01X5294422Y6355654D01*
G03X5298134Y6395774I-44422J24341D01*
G03X5242780Y6445654I-55354J-5774D01*
G01X4390000Y6445654D01*
G03X4350647Y6429353I0J-55654D01*
G01X4220647Y6299353D01*
G03X4204346Y6260000I39353J-39353D01*
G01X4204346Y4610120D01*
G03X4220647Y4570767I55654J0D01*
G01X4745707Y4045707D01*
G37*
G36*
G01X790010Y4339714D02*
G03X790010Y4028406I0J-155654D01*
G03X790010Y4339714I0J155654D01*
G37*
G36*
G01X950918Y1683421D02*
G01X914580Y1719760D01*
G01X914220Y1719760D01*
G01X870486Y1676025D01*
G01X721385Y1676025D01*
G01X721257Y1675552D01*
G01X736385Y1666723D01*
G01X804604Y1666723D01*
G01X893826Y1577502D01*
G01X893826Y1559560D01*
G01X894080Y1559306D01*
G01X896590Y1559312D01*
G03X1022434Y1436772I98910J-24312D01*
G03X1068177Y1606361I-26934J98228D01*
G01X1106384Y1606361D01*
G01X1106638Y1606615D01*
G01X1106638Y1739807D01*
G01X1106205Y1739987D01*
G01X1049639Y1683421D01*
G01X1002977Y1683421D01*
G03X1071630Y1852664I-7477J101579D01*
G03X895500Y1804345I-76130J-67664D01*
G03X693646Y1785000I-100000J-19345D01*
G03X895500Y1765655I101854J-0D01*
G03X988023Y1683421I100000J19345D01*
G01X950918Y1683421D01*
G37*
G36*
G01X1162454Y5173400D02*
G03X851146Y5173400I-155654J0D01*
G03X1162454Y5173400I155654J0D01*
G37*
G36*
G01X5120644Y1853150D02*
G01X5197380Y1929887D01*
G03X5225818Y2015818I-7380J50113D01*
G03X5139887Y1987380I-35818J-35818D01*
G01X5051243Y1898737D01*
G03X5039336Y1869990I28747J-28747D01*
G01X5039336Y1188354D01*
G01X4775519Y1188354D01*
G03X4775656Y1191000I-25517J2646D01*
G01X4775656Y1341000D01*
G03X4750002Y1366654I-25654J0D01*
G01X4550002Y1366654D01*
G03X4524348Y1341000I0J-25654D01*
G01X4524348Y1191000D01*
G03X4524485Y1188354I25654J0D01*
G01X4155519Y1188354D01*
G03X4155656Y1191000I-25517J2646D01*
G01X4155656Y1341000D01*
G03X4130002Y1366654I-25654J0D01*
G01X3930002Y1366654D01*
G03X3904348Y1341000I0J-25654D01*
G01X3904348Y1191000D01*
G03X3904485Y1188354I25654J0D01*
G01X3545230Y1188354D01*
G03X3545654Y1193000I-25230J4646D01*
G01X3545654Y1353000D01*
G03X3520000Y1378654I-25654J0D01*
G01X3320000Y1378654D01*
G03X3294346Y1353000I0J-25654D01*
G01X3294346Y1193000D01*
G03X3294770Y1188354I25654J0D01*
G01X2935230Y1188354D01*
G03X2935654Y1193000I-25230J4646D01*
G01X2935654Y1353000D01*
G03X2910000Y1378654I-25654J0D01*
G01X2710000Y1378654D01*
G03X2684346Y1353000I0J-25654D01*
G01X2684346Y1193000D01*
G03X2684770Y1188354I25654J0D01*
G01X1732139Y1188354D01*
G01X1715654Y1204839D01*
G01X1715654Y1353000D01*
G03X1690000Y1378654I-25654J0D01*
G01X1490000Y1378654D01*
G03X1464346Y1353000I0J-25654D01*
G01X1464346Y1193000D01*
G03X1490000Y1167346I25654J0D01*
G01X1638160Y1167346D01*
G01X1686553Y1118954D01*
G03X1715299Y1107047I28747J28747D01*
G01X2072978Y1107047D01*
G03X2072255Y1101000I24931J-6047D01*
G01X2072255Y951000D01*
G03X2097909Y925346I25654J0D01*
G01X2297910Y925346D01*
G03X2323564Y951000I0J25654D01*
G01X2323564Y1101000D01*
G03X2322841Y1107047I-25654J0D01*
G01X5035450Y1107047D01*
G01X5051243Y1091253D01*
G03X5079990Y1079346I28747J28747D01*
G01X8102002Y1079346D01*
G03X8130749Y1091253I0J40654D01*
G01X8318710Y1279215D01*
G01X8320991Y1281306D01*
G01X8322318Y1282301D01*
G01X8323111Y1282765D01*
G01X8323521Y1282941D01*
G01X8323801Y1283021D01*
G01X8327205Y1283067D01*
G01X8332513Y1282507D01*
G01X8339961Y1281498D01*
G01X8341031Y1281376D01*
G01X8349721Y1280568D01*
G01X8352084Y1280458D01*
G01X8353377Y1280458D01*
G03X8363237Y1280489I4625J95542D01*
G03X8425640Y1443638I-5324J95545D01*
G03X8262491Y1381235I-67603J-67727D01*
G03X8262349Y1376306I95511J-5235D01*
G03X8262460Y1371375I95653J-306D01*
G01X8262460Y1370082D01*
G01X8262571Y1367719D01*
G01X8263378Y1359029D01*
G01X8263500Y1357959D01*
G01X8264509Y1350511D01*
G01X8265069Y1345203D01*
G01X8265023Y1341799D01*
G01X8264943Y1341519D01*
G01X8264767Y1341109D01*
G01X8264303Y1340316D01*
G01X8263308Y1338989D01*
G01X8261217Y1336708D01*
G01X8085163Y1160654D01*
G01X5120644Y1160654D01*
G01X5120644Y1853150D01*
G37*
G36*
G01X2030000Y2604346D02*
G01X3610000Y2604346D01*
G03X3628140Y2611860I0J25654D01*
G01X3788140Y2771860D01*
G03X3795654Y2790000I-18140J18140D01*
G01X3795654Y3950000D01*
G03X3788140Y3968140I-25654J0D01*
G01X3628140Y4128140D01*
G03X3610000Y4135654I-18140J-18140D01*
G01X1860000Y4135654D01*
G03X1841860Y4128140I0J-25654D01*
G01X1701860Y3988140D01*
G03X1694346Y3970000I18140J-18140D01*
G01X1694346Y2940000D01*
G03X1701860Y2921860I25654J0D01*
G01X2011860Y2611860D01*
G03X2030000Y2604346I18140J18140D01*
G37*
G36*
G01X2141321Y7067346D02*
G03X2141321Y7372654I0J152654D01*
G03X2141321Y7067346I0J-152654D01*
G37*
G36*
G01X3144384Y2080863D02*
G03X3065678Y2159570I-39353J39353D01*
G01X2495762Y1589654D01*
G01X2306778Y1589654D01*
G03X2222910Y1634654I-83868J-55654D01*
G01X2172909Y1634654D01*
G03X2172909Y1433346I0J-100654D01*
G01X2222910Y1433346D01*
G03X2306778Y1478346I0J100654D01*
G01X2518815Y1478346D01*
G03X2558168Y1494647I0J55654D01*
G01X3144384Y2080863D01*
G37*
G36*
G01X2754873Y7289220D02*
G03X2729219Y7314874I-25654J0D01*
G01X2510779Y7314874D01*
G03X2485125Y7289220I0J-25654D01*
G01X2485125Y7070780D01*
G03X2510779Y7045126I25654J0D01*
G01X2729219Y7045126D01*
G03X2754873Y7070780I0J25654D01*
G01X2754873Y7289220D01*
G37*
G36*
G01X3906972Y1743690D02*
G01X3910569Y1739161D01*
G03X3974588Y1678051I94439J34846D01*
G03X4005002Y1673346I30413J95949D01*
G01X4055002Y1673346D01*
G03X4055002Y1874654I0J100654D01*
G01X4004908Y1874654D01*
G03X4001922Y1874607I93J-100654D01*
G01X3975425Y1874170D01*
G01X3962689Y1874272D01*
G01X3951162Y1875124D01*
G01X3946475Y1875827D01*
G01X3941892Y1876819D01*
G01X3937647Y1878073D01*
G01X3933674Y1879615D01*
G01X3929886Y1881490D01*
G01X3926186Y1883776D01*
G01X3922487Y1886576D01*
G01X3918310Y1890397D01*
G01X3749353Y2059353D01*
G03X3670647Y1980647I-39353J-39353D01*
G01X3901433Y1749860D01*
G01X3906972Y1743690D01*
G37*
G36*
G01X4119999Y7045126D02*
G03X4119999Y7314874I0J134874D01*
G03X4119999Y7045126I0J-134874D01*
G37*
G36*
G01X5026160Y2669348D02*
G01X5029783Y2669346D01*
G03X5110654Y2710000I30217J40654D01*
G03X5029783Y2750654I-50654J0D01*
G01X5026160Y2750652D01*
G01X4606839Y2750654D01*
G01X4570654Y2786839D01*
G01X4570652Y2850160D01*
G01X4570654Y2853783D01*
G03X4530000Y2934654I-40654J30217D01*
G03X4489346Y2853783I0J-50654D01*
G01X4489348Y2850160D01*
G01X4489346Y2770000D01*
G03X4501253Y2741253I40654J0D01*
G01X4561253Y2681253D01*
G03X4590000Y2669346I28747J28747D01*
G01X5026160Y2669348D01*
G37*
G36*
G01X4625002Y1673346D02*
G01X4675002Y1673346D01*
G03X4675002Y1874654I0J100654D01*
G01X4625002Y1874654D01*
G03X4625002Y1673346I0J-100654D01*
G37*
G36*
G01X5110654Y2900000D02*
G03X5029783Y2940654I-50654J0D01*
G01X5026160Y2940652D01*
G01X4756000Y2940654D01*
G03X4727253Y2928747I0J-40654D01*
G01X4656460Y2857953D01*
G03X4628022Y2772022I7380J-50113D01*
G03X4713953Y2800460I35818J35818D01*
G01X4772839Y2859346D01*
G01X5026160Y2859348D01*
G01X5029783Y2859346D01*
G03X5110654Y2900000I30217J40654D01*
G37*
G36*
G01X5385656Y1341000D02*
G03X5360002Y1366654I-25654J0D01*
G01X5160002Y1366654D01*
G03X5134348Y1341000I0J-25654D01*
G01X5134348Y1191000D01*
G03X5160002Y1165346I25654J0D01*
G01X5360002Y1165346D01*
G03X5385656Y1191000I0J25654D01*
G01X5385656Y1341000D01*
G37*
G36*
G01X5480000Y2001152D02*
G03X5430040Y1980458I0J-70654D01*
G01X5387290Y1937708D01*
G01X5374269Y1924782D01*
G01X5361481Y1912643D01*
G01X5348650Y1901535D01*
G01X5342524Y1896749D01*
G01X5336273Y1892280D01*
G01X5330039Y1888276D01*
G01X5323815Y1884761D01*
G01X5317587Y1881754D01*
G01X5311331Y1879265D01*
G01X5305009Y1877300D01*
G01X5298564Y1875868D01*
G01X5291924Y1874984D01*
G01X5284434Y1874654D01*
G01X5235002Y1874654D01*
G03X5235002Y1673346I0J-100654D01*
G01X5285002Y1673346D01*
G03X5293526Y1673708I0J100654D01*
G01X5296486Y1673842D01*
G03X5299051Y1674089I-1167J25627D01*
G01X5308365Y1675458D01*
G03X5311139Y1676024I-3732J25381D01*
G01X5319564Y1678233D01*
G03X5322392Y1679153I-6507J24815D01*
G01X5330043Y1682142D01*
G03X5332729Y1683374I-9335J23895D01*
G01X5339721Y1687082D01*
G03X5342088Y1688506I-12020J22664D01*
G01X5348537Y1692875D01*
G01X5350479Y1694328D01*
G01X5356499Y1699296D01*
G01X5357987Y1700625D01*
G01X5363693Y1706133D01*
G01X5364758Y1707223D01*
G01X5370265Y1713211D01*
G01X5370965Y1714003D01*
G01X5376389Y1720411D01*
G01X5376849Y1720970D01*
G01X5387814Y1734691D01*
G01X5399509Y1748989D01*
G01X5405578Y1755849D01*
G01X5412373Y1762951D01*
G01X5509266Y1859844D01*
G01X5778598Y1859844D01*
G03X5796335Y1862107I0J70654D01*
G03X5845002Y1673346I48667J-88107D01*
G01X5895002Y1673346D01*
G03X5895002Y1874654I0J100654D01*
G01X5845002Y1874654D01*
G03X5815457Y1870220I0J-100654D01*
G03X5828558Y1880538I-36859J60278D01*
G01X6069760Y2121740D01*
G03X5969840Y2221660I-49960J49960D01*
G01X5749332Y2001152D01*
G01X5480000Y2001152D01*
G37*
G36*
G01X5995656Y1341000D02*
G03X5970002Y1366654I-25654J0D01*
G01X5770002Y1366654D01*
G03X5744348Y1341000I0J-25654D01*
G01X5744348Y1191000D01*
G03X5770002Y1165346I25654J0D01*
G01X5970002Y1165346D01*
G03X5995656Y1191000I0J25654D01*
G01X5995656Y1341000D01*
G37*
G36*
G01X6240076Y3043624D02*
G03X6220846Y2997200I46424J-46424D01*
G01X6220846Y2438400D01*
G03X6352154Y2438400I65654J0D01*
G01X6352154Y2970005D01*
G01X6726495Y3344346D01*
G01X7240000Y3344346D01*
G03X7240000Y3475654I0J65654D01*
G01X6699300Y3475654D01*
G03X6652876Y3456424I0J-65654D01*
G01X6240076Y3043624D01*
G37*
G36*
G01X6605656Y1341000D02*
G03X6580002Y1366654I-25654J0D01*
G01X6380002Y1366654D01*
G03X6354348Y1341000I0J-25654D01*
G01X6354348Y1191000D01*
G03X6380002Y1165346I25654J0D01*
G01X6580002Y1165346D01*
G03X6605656Y1191000I0J25654D01*
G01X6605656Y1341000D01*
G37*
G36*
G01X6455002Y1673346D02*
G01X6505002Y1673346D01*
G03X6505002Y1874654I0J100654D01*
G01X6455002Y1874654D01*
G03X6455002Y1673346I0J-100654D01*
G37*
G36*
G01X6905320Y3047789D02*
G03X6837384Y3051634I-36088J-35545D01*
G03X6773690Y3051635I-31847J-39390D01*
G03X6709995Y3051634I-31847J-39390D01*
G03X6642916Y3048638I-31847J-39390D01*
G03X6637746Y2981691I35232J-36394D01*
G03X6637163Y2917521I38902J-32441D01*
G03X6639271Y2855284I40985J-29766D01*
G03X6624578Y2817915I35934J-35701D01*
G03X6641697Y2781595I50627J1667D01*
G03X6637719Y2711251I34351J-37227D01*
G03X6707896Y2704978I38329J33117D01*
G03X6771590Y2704978I31847J39390D01*
G03X6835285Y2704978I31847J39390D01*
G03X6905830Y2711683I31847J39390D01*
G03X6900639Y2782356I-38698J32685D01*
G03X6905165Y2852054I-34351J37227D01*
G03X6908717Y2919484I-35934J35701D01*
G03X6908134Y2979803I-40985J29766D01*
G03X6905320Y3047789I-38902J32441D01*
G37*
G36*
G01X6923576Y5923576D02*
G03X6970000Y5904346I46424J46424D01*
G01X7100000Y5904346D01*
G03X7146424Y5923576I0J65654D01*
G01X7196463Y5973614D01*
G03X7212460Y5999692I-46424J46424D01*
G01X7212460Y5985309D01*
G01X7122805Y5895654D01*
G01X6775000Y5895654D01*
G03X6775000Y5764346I0J-65654D01*
G01X7150000Y5764346D01*
G03X7196424Y5783576I0J65654D01*
G01X7324539Y5911690D01*
G03X7343768Y5958114I-46424J46424D01*
G01X7343768Y6970919D01*
G01X7556421Y7183572D01*
G03X7574957Y7220479I-46424J46424D01*
G02X7584997Y7224346I10040J-11101D01*
G03X7610650Y7250000I0J25654D01*
G01X7610650Y7450000D01*
G03X7606264Y7464346I-25654J0D01*
G01X7612805Y7464346D01*
G01X7614346Y7462805D01*
G01X7614346Y7167195D01*
G01X7384283Y6937132D01*
G03X7365053Y6890707I46424J-46424D01*
G01X7365053Y5825707D01*
G03X7496361Y5825707I65654J0D01*
G01X7496361Y6863513D01*
G01X7726424Y7093576D01*
G03X7745654Y7140000I-46424J46424D01*
G01X7745654Y7490000D01*
G03X7726424Y7536424I-65654J0D01*
G01X7686424Y7576424D01*
G03X7640000Y7595654I-46424J-46424D01*
G01X6830000Y7595654D01*
G03X6783575Y7576424I0J-65654D01*
G01X6701572Y7494421D01*
G03X6692221Y7482632I46424J-46424D01*
G01X6689690Y7479583D01*
G01X6688636Y7478223D01*
G01X6678910Y7464767D01*
G01X6677836Y7463157D01*
G01X6669122Y7448957D01*
G01X6668310Y7447533D01*
G01X6664437Y7440212D01*
G01X6663894Y7439122D01*
G01X6660401Y7431685D01*
G01X6659867Y7430467D01*
G01X6656796Y7422935D01*
G01X6656284Y7421571D01*
G01X6653677Y7413969D01*
G01X6653207Y7412443D01*
G01X6651105Y7404794D01*
G01X6650699Y7403088D01*
G01X6649145Y7395415D01*
G01X6648835Y7393519D01*
G01X6647872Y7385845D01*
G01X6647697Y7383758D01*
G01X6647667Y7383083D01*
G03X6647342Y7375000I100329J-8083D01*
G01X6647342Y7325000D01*
G03X6848650Y7325000I100654J0D01*
G01X6848650Y7375000D01*
G01X6848644Y7376145D01*
G01X6848690Y7392313D01*
G01X6849408Y7408137D01*
G01X6850994Y7423473D01*
G01X6853674Y7438344D01*
G01X6855343Y7444958D01*
G01X6857379Y7451529D01*
G01X6859722Y7457764D01*
G01X6862380Y7463644D01*
G01X6862760Y7464346D01*
G01X6955644Y7464346D01*
G03X6901342Y7375000I46352J-89346D01*
G01X6901342Y7325000D01*
G03X6927584Y7257220I100654J0D01*
G01X6929177Y7251961D01*
G01X6931551Y7242820D01*
G01X6933533Y7233461D01*
G01X6935041Y7223981D01*
G01X6935994Y7214475D01*
G01X6936342Y7204546D01*
G01X6936342Y7179191D01*
G01X6853575Y7096424D01*
G03X6834346Y7050000I46424J-46424D01*
G01X6834346Y6040000D01*
G03X6853575Y5993576I65654J0D01*
G01X6923576Y5923576D01*
G37*
G36*
G01X6923840Y2090652D02*
G01X6920217Y2090654D01*
G03X6839501Y2053961I-30217J-40654D01*
G03X6913509Y2005132I50499J-3961D01*
G03X6904059Y1948664I36491J-35132D01*
G03X6840388Y1889778I-14059J-48664D01*
G03X6922151Y1860858I49612J10222D01*
G01X6922459Y1861063D01*
G01X6922897Y1861243D01*
G01X6924013Y1861519D01*
G01X6925366Y1861646D01*
G01X7015511Y1861646D01*
G03X7065002Y1673346I49491J-87646D01*
G01X7115002Y1673346D01*
G03X7126213Y1673972I0J100654D01*
G01X7127642Y1674143D01*
G03X7198493Y1717782I-12640J99857D01*
G01X7199538Y1717980D01*
G01X7205879Y1718346D01*
G01X7682949Y1718346D01*
G01X7742295Y1659000D01*
G01X7744683Y1656207D01*
G01X7746642Y1653178D01*
G01X7748633Y1649220D01*
G01X7750466Y1644583D01*
G01X7752021Y1639534D01*
G01X7753228Y1634346D01*
G01X7754050Y1629303D01*
G01X7754526Y1624166D01*
G03X7778367Y1566612I95476J5834D01*
G01X7781660Y1562645D01*
G01X7784646Y1558498D01*
G01X7787460Y1553976D01*
G01X7789930Y1549306D01*
G01X7791914Y1544731D01*
G01X7793305Y1540524D01*
G01X7794062Y1536997D01*
G01X7794320Y1533690D01*
G02X7762811Y1465042I-95568J2310D01*
G03X7756559Y1456419I17191J-19042D01*
G03X7754348Y1446000I23443J-10419D01*
G01X7754348Y1306000D01*
G03X7780002Y1280346I25654J0D01*
G01X7920002Y1280346D01*
G03X7945656Y1306000I0J25654D01*
G01X7945656Y1446000D01*
G03X7943445Y1456419I-25654J0D01*
G03X7937193Y1465042I-23443J-10419D01*
G02X7905684Y1533690I64059J70958D01*
G01X7905942Y1536997D01*
G01X7906700Y1540524D01*
G01X7908091Y1544731D01*
G01X7910074Y1549306D01*
G01X7912544Y1553976D01*
G01X7915358Y1558498D01*
G01X7918344Y1562645D01*
G01X7921637Y1566612D01*
G03X7855836Y1725476I-71635J63388D01*
G01X7850700Y1725952D01*
G01X7845656Y1726774D01*
G01X7840469Y1727981D01*
G01X7835420Y1729537D01*
G01X7830782Y1731369D01*
G01X7826824Y1733360D01*
G01X7823795Y1735319D01*
G01X7821002Y1737707D01*
G01X7745355Y1813353D01*
G03X7706002Y1829654I-39353J-39353D01*
G01X7205879Y1829654D01*
G01X7199538Y1830020D01*
G01X7198493Y1830218D01*
G03X7164494Y1861646I-83491J-56218D01*
G01X7540000Y1861646D01*
G03X7567120Y1872880I0J38354D01*
G01X8187356Y2493115D01*
G03X8332566Y2419434I84644J-13115D01*
G03X8258885Y2564644I-60567J60567D01*
G01X8585887Y2891646D01*
G01X9210000Y2891646D01*
G03X9237120Y2902880I0J38354D01*
G01X9239634Y2905393D01*
G03X9264869Y2856020I50366J-5393D01*
G03X9320217Y2859346I25131J43980D01*
G01X9323840Y2859348D01*
G01X9813160Y2859346D01*
G01X10199346Y2473160D01*
G01X10199348Y1833840D01*
G01X10199346Y1830217D01*
G03X10240000Y1749346I40654J-30217D01*
G03X10280654Y1830217I0J50654D01*
G01X10280652Y1833840D01*
G01X10280654Y2490000D01*
G03X10277964Y2504543I-40654J0D01*
G01X10351253Y2431253D01*
G03X10380000Y2419346I28747J28747D01*
G01X10456160Y2419348D01*
G01X10459783Y2419346D01*
G03X10540654Y2460000I30217J40654D01*
G03X10459783Y2500654I-50654J0D01*
G01X10456160Y2500652D01*
G01X10396840Y2500653D01*
G01X9903746Y2993747D01*
G03X9875000Y3005654I-28747J-28747D01*
G01X9598839Y3005652D01*
G01X9595217Y3005654D01*
G03X9531733Y3003199I-30217J-40654D01*
G03X9520580Y2940654I33267J-38199D01*
G01X9323840Y2940652D01*
G01X9320217Y2940654D01*
G03X9284607Y2950366I-30217J-40654D01*
G01X9392120Y3057879D01*
G03X9403354Y3085000I-27120J27120D01*
G01X9403354Y3319634D01*
G01X9403481Y3320988D01*
G01X9403757Y3322104D01*
G01X9403937Y3322542D01*
G01X9404142Y3322849D01*
G03X9410384Y3377497I-39142J32151D01*
G03X9363113Y3405619I-45384J-22497D01*
G01X9376840Y3419346D01*
G01X10113140Y3419346D01*
G01X11149346Y2383140D01*
G01X11149348Y2183840D01*
G01X11149346Y2180217D01*
G03X11190000Y2099346I40654J-30217D01*
G03X11230654Y2180217I0J50654D01*
G01X11230652Y2183840D01*
G01X11230654Y2399980D01*
G03X11218747Y2428726I-40654J0D01*
G01X10158726Y3488747D01*
G03X10129980Y3500654I-28747J-28747D01*
G01X9360001Y3500654D01*
G03X9331254Y3488747I0J-40654D01*
G01X9127620Y3285113D01*
G03X9099183Y3199182I7380J-50113D01*
G03X9185114Y3227620I35818J35818D01*
G01X9314381Y3356887D01*
G03X9325858Y3322849I50619J-1887D01*
G01X9326063Y3322542D01*
G01X9326243Y3322104D01*
G01X9326519Y3320988D01*
G01X9326646Y3319634D01*
G01X9326646Y3100886D01*
G01X9194113Y2968354D01*
G01X8570000Y2968354D01*
G03X8542880Y2957120I0J-38354D01*
G01X8220437Y2634678D01*
G03X8203420Y2668065I-50437J-4678D01*
G03X8168112Y2680619I-33420J-38065D01*
G01X8178656Y2691163D01*
G03X8221485Y2747975I-7380J50113D01*
G03X8165261Y2791572I-50209J-6698D01*
G03X8181819Y2824100I-35261J38428D01*
G01X8182205Y2824593D01*
G01X8184575Y2827082D01*
G01X8258747Y2901253D01*
G03X8270654Y2930000I-28747J28747D01*
G01X8270654Y3150000D01*
G03X8258747Y3178747I-40654J0D01*
G01X8160113Y3277380D01*
G03X8074182Y3305818I-50113J-7380D01*
G03X8102620Y3219887I35818J-35818D01*
G01X8189346Y3133161D01*
G01X8189346Y2946839D01*
G01X8180619Y2938112D01*
G03X8138113Y2990000I-50619J1888D01*
G03X8176655Y3059727I-8113J50000D01*
G03X8099783Y3080654I-46655J-19727D01*
G01X8096160Y3080652D01*
G01X7640217Y3080654D01*
G03X7559346Y3040000I-30217J-40654D01*
G03X7640217Y2999346I50654J0D01*
G01X8096160Y2999348D01*
G01X8099783Y2999346D01*
G03X8121887Y2990000I30217J40654D01*
G03X8099783Y2980654I8113J-50000D01*
G01X8096160Y2980652D01*
G01X7880000Y2980654D01*
G03X7851253Y2968747I0J-40654D01*
G01X7731253Y2848747D01*
G03X7719346Y2820000I28747J-28747D01*
G01X7719346Y2596839D01*
G01X7602620Y2480113D01*
G03X7574182Y2394182I7380J-50113D01*
G03X7660113Y2422620I35818J35818D01*
G01X7788747Y2551253D01*
G03X7800654Y2580000I-28747J28747D01*
G01X7800654Y2803161D01*
G01X7896840Y2899346D01*
G01X8096160Y2899348D01*
G01X8099783Y2899346D01*
G03X8131888Y2889381I30217J40654D01*
G01X8127082Y2884575D01*
G01X8124593Y2882205D01*
G01X8124100Y2881819D01*
G03X8078227Y2823709I5900J-51819D01*
G03X8136680Y2778276I51773J6290D01*
G03X8121163Y2748656I34596J-36999D01*
G01X7463160Y2090654D01*
G01X6923840Y2090652D01*
G37*
G36*
G01X7889348Y4123840D02*
G01X7889346Y4120217D01*
G03X7930000Y4039346I40654J-30217D01*
G03X7970654Y4120217I0J50654D01*
G01X7970652Y4123840D01*
G01X7970653Y4303181D01*
G03X7997628Y4263816I81347J26819D01*
G01X8000007Y4261589D01*
G01X8002252Y4258897D01*
G01X8004725Y4255259D01*
G01X8007062Y4251088D01*
G01X8009012Y4246800D01*
G01X8010392Y4242851D01*
G01X8011100Y4239807D01*
G01X8011346Y4237028D01*
G01X8011346Y4098000D01*
G03X8023253Y4069253I40654J0D01*
G01X8079887Y4012620D01*
G03X8165818Y3984182I50113J7380D01*
G03X8137380Y4070114I-35818J35818D01*
G01X8092654Y4114840D01*
G01X8092654Y4237028D01*
G01X8092900Y4239807D01*
G01X8093608Y4242851D01*
G01X8094988Y4246800D01*
G01X8096938Y4251088D01*
G01X8099275Y4255259D01*
G01X8101748Y4258897D01*
G01X8103992Y4261589D01*
G01X8106373Y4263817D01*
G03X8137654Y4330000I-54373J66183D01*
G01X8137654Y4350000D01*
G03X8106373Y4416183I-85654J0D01*
G01X8103992Y4418412D01*
G01X8101748Y4421104D01*
G01X8099275Y4424742D01*
G01X8096938Y4428912D01*
G01X8094988Y4433201D01*
G01X8093608Y4437149D01*
G01X8092900Y4440193D01*
G01X8092654Y4442973D01*
G01X8092654Y4738000D01*
G03X8089964Y4752543I-40654J0D01*
G01X8463701Y4378806D01*
G01X8465614Y4376556D01*
G01X8467341Y4373885D01*
G01X8469223Y4370205D01*
G01X8470983Y4365896D01*
G01X8472452Y4361329D01*
G01X8473521Y4356881D01*
G01X8474130Y4352974D01*
G01X8474346Y4349257D01*
G01X8474346Y4330000D01*
G03X8505628Y4263816I85654J0D01*
G01X8508007Y4261589D01*
G01X8510252Y4258897D01*
G01X8512725Y4255259D01*
G01X8515062Y4251088D01*
G01X8517012Y4246800D01*
G01X8518392Y4242851D01*
G01X8519100Y4239807D01*
G01X8519346Y4237028D01*
G01X8519348Y4053840D01*
G01X8519346Y4050218D01*
G03X8560000Y3969346I40654J-30217D01*
G03X8600654Y4050218I0J50654D01*
G01X8600652Y4053840D01*
G01X8600654Y4237028D01*
G01X8600900Y4239807D01*
G01X8601608Y4242851D01*
G01X8602988Y4246800D01*
G01X8604938Y4251088D01*
G01X8607275Y4255259D01*
G01X8609748Y4258897D01*
G01X8611992Y4261589D01*
G01X8614373Y4263817D01*
G03X8645654Y4330000I-54373J66183D01*
G01X8645654Y4350000D01*
G03X8541933Y4433727I-85654J0D01*
G01X8539207Y4433368D01*
G01X8536409Y4433444D01*
G01X8532590Y4434028D01*
G01X8528316Y4435151D01*
G01X8524081Y4436719D01*
G01X8520341Y4438544D01*
G01X8517547Y4440315D01*
G01X8515155Y4442338D01*
G01X7908147Y5049346D01*
G01X8454160Y5049348D01*
G01X8457783Y5049346D01*
G03X8518217Y5049346I30217J40654D01*
G01X8521840Y5049348D01*
G01X8573342Y5049346D01*
G03X8552819Y4977502I22630J-45318D01*
G03X8626189Y4963374I43153J26526D01*
G01X8629812Y4963376D01*
G01X8694028Y4963374D01*
G03X8722775Y4975281I0J40654D01*
G01X8757380Y5009887D01*
G03X8771336Y5014059I-7380J50113D01*
G03X8777346Y4972679I48664J-14059D01*
G01X8777347Y4967646D01*
G01X8777346Y4455000D01*
G02X8770453Y4435654I-30596J0D01*
G01X8754000Y4435654D01*
G03X8728346Y4410000I0J-25654D01*
G01X8728346Y4270000D01*
G03X8754000Y4244346I25654J0D01*
G01X8874000Y4244346D01*
G03X8899654Y4270000I0J25654D01*
G01X8899654Y4410000D01*
G03X8874000Y4435654I-25654J0D01*
G01X8865546Y4435654D01*
G02X8858654Y4455000I23703J19346D01*
G01X8858654Y4967263D01*
G03X8798664Y5045941I-38654J32737D01*
G03X8760744Y5109501I-48664J14059D01*
G03X8699887Y5067380I-10744J-49501D01*
G01X8677188Y5044682D01*
G01X8629812Y5044680D01*
G01X8626189Y5044682D01*
G03X8618602Y5049346I-30217J-40654D01*
G01X8640000Y5049346D01*
G03X8668747Y5061253I0J40654D01*
G01X8796839Y5189346D01*
G01X8818713Y5189346D01*
G03X8824565Y5123804I41287J-29346D01*
G03X8890217Y5119346I35435J36197D01*
G01X8893840Y5119348D01*
G01X8958713Y5119346D01*
G03X8964565Y5053804I41287J-29346D01*
G03X9030217Y5049346I35435J36196D01*
G01X9033840Y5049348D01*
G01X9301160Y5049346D01*
G01X9420346Y4930161D01*
G01X9420346Y4627627D01*
G03X9367392Y4646060I-40346J-30627D01*
G03X9329887Y4604380I12608J-49060D01*
G01X9291253Y4565747D01*
G03X9279346Y4537000I28747J-28747D01*
G01X9279346Y4126529D01*
G01X9279262Y4123091D01*
G01X9279186Y4122469D01*
G03X9279186Y4057530I40814J-32470D01*
G01X9279262Y4056909D01*
G01X9279346Y4053470D01*
G01X9279346Y3830000D01*
G03X9291253Y3801254I40654J0D01*
G01X9329887Y3762620D01*
G03X9415818Y3734182I50113J7380D01*
G03X9387380Y3820114I-35818J35818D01*
G01X9360654Y3846840D01*
G01X9360654Y4053470D01*
G01X9360738Y4056909D01*
G01X9360814Y4057530D01*
G03X9360814Y4122469I-40814J32470D01*
G01X9360738Y4123091D01*
G01X9360654Y4126529D01*
G01X9360654Y4520160D01*
G01X9387380Y4546886D01*
G03X9420346Y4566373I-7380J50113D01*
G01X9420346Y4562972D01*
G01X9420100Y4560193D01*
G01X9419392Y4557149D01*
G01X9418012Y4553200D01*
G01X9416062Y4548912D01*
G01X9413725Y4544741D01*
G01X9411252Y4541103D01*
G01X9409007Y4538411D01*
G01X9406628Y4536184D01*
G03X9375346Y4470000I54371J-66184D01*
G01X9375346Y4450000D01*
G03X9406628Y4383816I85654J0D01*
G01X9409007Y4381589D01*
G01X9411252Y4378897D01*
G01X9413725Y4375259D01*
G01X9416062Y4371088D01*
G01X9418012Y4366799D01*
G01X9419392Y4362851D01*
G01X9420100Y4359807D01*
G01X9420346Y4357028D01*
G01X9420346Y4262972D01*
G01X9420100Y4260193D01*
G01X9419392Y4257149D01*
G01X9418012Y4253200D01*
G01X9416062Y4248912D01*
G01X9413725Y4244741D01*
G01X9411252Y4241103D01*
G01X9409007Y4238411D01*
G01X9406628Y4236184D01*
G03X9375346Y4170000I54371J-66184D01*
G01X9375346Y4150000D01*
G03X9479067Y4066273I85654J0D01*
G01X9481793Y4066632D01*
G01X9484590Y4066556D01*
G01X9488410Y4065973D01*
G01X9492684Y4064849D01*
G01X9496918Y4063281D01*
G01X9500659Y4061456D01*
G01X9503452Y4059685D01*
G01X9505844Y4057662D01*
G01X9549346Y4014160D01*
G01X9549348Y3903840D01*
G01X9549346Y3900217D01*
G03X9590000Y3819346I40654J-30217D01*
G03X9630654Y3900217I0J50654D01*
G01X9630652Y3903840D01*
G01X9630654Y4031000D01*
G03X9618747Y4059746I-40654J0D01*
G01X9557299Y4121194D01*
G01X9555386Y4123444D01*
G01X9553658Y4126115D01*
G01X9551777Y4129795D01*
G01X9550017Y4134104D01*
G01X9548548Y4138671D01*
G01X9547479Y4143119D01*
G01X9546870Y4147025D01*
G01X9546654Y4150747D01*
G01X9546654Y4170000D01*
G03X9515373Y4236183I-85654J0D01*
G01X9512992Y4238411D01*
G01X9510748Y4241103D01*
G01X9508275Y4244741D01*
G01X9505937Y4248912D01*
G01X9503988Y4253200D01*
G01X9502608Y4257149D01*
G01X9501900Y4260193D01*
G01X9501654Y4262972D01*
G01X9501654Y4357028D01*
G01X9501900Y4359807D01*
G01X9502608Y4362851D01*
G01X9503988Y4366799D01*
G01X9505937Y4371088D01*
G01X9508275Y4375259D01*
G01X9510748Y4378897D01*
G01X9512992Y4381589D01*
G01X9515373Y4383817D01*
G03X9546654Y4450000I-54373J66183D01*
G01X9546654Y4470000D01*
G03X9515373Y4536183I-85654J0D01*
G01X9512992Y4538411D01*
G01X9510748Y4541103D01*
G01X9508275Y4544741D01*
G01X9505937Y4548912D01*
G01X9503988Y4553200D01*
G01X9502608Y4557149D01*
G01X9501900Y4560193D01*
G01X9501654Y4562972D01*
G01X9501654Y4930853D01*
G01X9652253Y4780253D01*
G03X9681000Y4768346I28747J28747D01*
G01X9864000Y4768346D01*
G02X9928346Y4704000I0J-64346D01*
G01X9928346Y4562972D01*
G01X9928100Y4560193D01*
G01X9927392Y4557149D01*
G01X9926012Y4553200D01*
G01X9924062Y4548912D01*
G01X9921725Y4544741D01*
G01X9919252Y4541103D01*
G01X9917007Y4538411D01*
G01X9914628Y4536184D01*
G03X9883346Y4470000I54371J-66184D01*
G01X9883346Y4450000D01*
G03X9914628Y4383816I85654J0D01*
G01X9917007Y4381589D01*
G01X9919252Y4378897D01*
G01X9921725Y4375259D01*
G01X9924062Y4371088D01*
G01X9926012Y4366799D01*
G01X9927392Y4362851D01*
G01X9928100Y4359807D01*
G01X9928346Y4357028D01*
G01X9928346Y4262972D01*
G01X9928100Y4260193D01*
G01X9927392Y4257149D01*
G01X9926012Y4253200D01*
G01X9924062Y4248912D01*
G01X9921725Y4244741D01*
G01X9919252Y4241103D01*
G01X9917007Y4238411D01*
G01X9914628Y4236184D01*
G03X9883346Y4170000I54371J-66184D01*
G01X9883346Y4150000D01*
G03X9910212Y4087705I85654J0D01*
G01X9812620Y3990113D01*
G03X9784182Y3904182I7380J-50113D01*
G03X9870113Y3932620I35818J35818D01*
G01X9997747Y4060253D01*
G03X10006335Y4072911I-28747J28747D01*
G03X10022462Y4083079I-37335J77089D01*
G03X10054654Y4150000I-53653J67013D01*
G01X10054654Y4170000D01*
G03X10023373Y4236183I-85654J0D01*
G01X10020992Y4238411D01*
G01X10018748Y4241103D01*
G01X10016275Y4244741D01*
G01X10013937Y4248912D01*
G01X10011988Y4253200D01*
G01X10010608Y4257149D01*
G01X10009900Y4260193D01*
G01X10009654Y4262972D01*
G01X10009654Y4357028D01*
G01X10009900Y4359807D01*
G01X10010608Y4362851D01*
G01X10011988Y4366799D01*
G01X10013937Y4371088D01*
G01X10016275Y4375259D01*
G01X10018748Y4378897D01*
G01X10020992Y4381589D01*
G01X10023373Y4383817D01*
G03X10054654Y4450000I-54373J66183D01*
G01X10054654Y4470000D01*
G03X10023373Y4536183I-85654J0D01*
G01X10020992Y4538411D01*
G01X10018748Y4541103D01*
G01X10016275Y4544741D01*
G01X10013937Y4548912D01*
G01X10011988Y4553200D01*
G01X10010608Y4557149D01*
G01X10009900Y4560193D01*
G01X10009654Y4562972D01*
G01X10009654Y4712787D01*
G02X10065665Y4848172I191625J0D01*
G01X10221250Y5003757D01*
G03X10219887Y4997380I48750J-13757D01*
G01X10194253Y4971746D01*
G03X10182346Y4943000I28747J-28747D01*
G01X10182346Y4575000D01*
G02X10175453Y4555654I-30596J0D01*
G01X10163000Y4555654D01*
G03X10137346Y4530000I0J-25654D01*
G01X10137346Y4390000D01*
G01X10137446Y4387741D01*
G03X10050600Y4401835I-47446J-17741D01*
G03X10082620Y4319886I39400J-31835D01*
G01X10121253Y4281253D01*
G03X10150000Y4269346I28747J28747D01*
G01X10320000Y4269346D01*
G03X10348747Y4281253I0J40654D01*
G01X10558747Y4491253D01*
G03X10570654Y4520000I-28747J28747D01*
G01X10570654Y4990000D01*
G03X10558747Y5018747I-40654J0D01*
G01X10460113Y5117380D01*
G03X10374182Y5145818I-50113J-7380D01*
G03X10402620Y5059886I35818J-35818D01*
G01X10489346Y4973161D01*
G01X10489346Y4536840D01*
G01X10303161Y4350654D01*
G01X10166839Y4350654D01*
G01X10148973Y4368521D01*
G03X10163000Y4364346I14027J21479D01*
G01X10283000Y4364346D01*
G03X10308654Y4390000I0J25654D01*
G01X10308654Y4530000D01*
G03X10283000Y4555654I-25654J0D01*
G01X10270547Y4555654D01*
G02X10263654Y4575000I23703J19346D01*
G01X10263654Y4926160D01*
G01X10277380Y4939886D01*
G03X10319535Y5000590I-7380J50113D01*
G03X10256243Y5038750I-49535J-10590D01*
G01X10288747Y5071254D01*
G03X10300654Y5100000I-28747J28747D01*
G01X10300652Y5136160D01*
G01X10300654Y5139783D01*
G03X10301287Y5199346I-40654J30217D01*
G01X10416502Y5199346D01*
G01X10554595Y5061253D01*
G03X10583342Y5049346I28747J28747D01*
G01X11273782Y5049346D01*
G03X11334216Y5049346I30217J40654D01*
G01X11337839Y5049348D01*
G01X11460000Y5049346D01*
G03X11488747Y5061253I0J40654D01*
G01X11546839Y5119346D01*
G01X11928098Y5119346D01*
G03X11909886Y5087380I31901J-39346D01*
G01X11821054Y4998548D01*
G01X11821054Y5019600D01*
G03X11809147Y5048346I-40654J0D01*
G01X11790113Y5067380D01*
G03X11704182Y5095818I-50113J-7380D01*
G03X11732620Y5009887I35818J-35818D01*
G01X11739746Y5002760D01*
G01X11739746Y4277240D01*
G01X11733654Y4271148D01*
G01X11733654Y4410000D01*
G03X11708000Y4435654I-25654J0D01*
G01X11707547Y4435654D01*
G02X11700654Y4455000I23703J19346D01*
G01X11700652Y4956160D01*
G01X11700654Y4959783D01*
G03X11660000Y5040654I-40654J30217D01*
G03X11619346Y4959783I0J-50654D01*
G01X11619348Y4956160D01*
G01X11619346Y4455000D01*
G02X11612453Y4435654I-30596J0D01*
G01X11588000Y4435654D01*
G03X11562346Y4410000I0J-25654D01*
G01X11562346Y4270000D01*
G03X11588000Y4244346I25654J0D01*
G01X11706853Y4244346D01*
G01X11690761Y4228254D01*
G01X11459239Y4228254D01*
G01X11438146Y4249347D01*
G01X11438938Y4251088D01*
G01X11441276Y4255259D01*
G01X11443748Y4258897D01*
G01X11445993Y4261589D01*
G01X11448373Y4263817D01*
G03X11479654Y4330000I-54373J66183D01*
G01X11479654Y4350000D01*
G03X11308346Y4350000I-85654J0D01*
G01X11308346Y4330000D01*
G03X11339629Y4263816I85654J0D01*
G01X11342008Y4261589D01*
G01X11344252Y4258897D01*
G01X11346725Y4255259D01*
G01X11349063Y4251088D01*
G01X11351013Y4246800D01*
G01X11352392Y4242851D01*
G01X11353100Y4239807D01*
G01X11353346Y4237028D01*
G01X11353346Y4236000D01*
G03X11365254Y4207253I40654J0D01*
G01X11401852Y4170654D01*
G01X10991000Y4170654D01*
G02X10926654Y4188597I0J124346D01*
G01X10926654Y4237028D01*
G01X10926901Y4239807D01*
G01X10927608Y4242851D01*
G01X10928988Y4246800D01*
G01X10930938Y4251088D01*
G01X10933276Y4255259D01*
G01X10935748Y4258897D01*
G01X10937993Y4261589D01*
G01X10940373Y4263817D01*
G03X10971654Y4330000I-54373J66183D01*
G01X10971654Y4350000D01*
G03X10800346Y4350000I-85654J0D01*
G01X10800346Y4330000D01*
G03X10831629Y4263816I85654J0D01*
G01X10834008Y4261589D01*
G01X10836252Y4258897D01*
G01X10838725Y4255259D01*
G01X10841063Y4251088D01*
G01X10843013Y4246800D01*
G01X10844392Y4242851D01*
G01X10845100Y4239807D01*
G01X10845346Y4237028D01*
G01X10845346Y4130000D01*
G01X10845348Y4117839D01*
G01X10845347Y4114217D01*
G03X10866594Y4037211I40654J-30217D01*
G03X10936107Y4076574I19406J46789D01*
G02X10991000Y4089346I54893J-111573D01*
G01X11471853Y4089346D01*
G01X11397253Y4014747D01*
G03X11386954Y3997321I28747J-28747D01*
G03X11415135Y3814964I39046J-87322D01*
G03X11483748Y3986255I10865J95035D01*
G01X11526839Y4029346D01*
G01X11741853Y4029346D01*
G01X11719292Y4006785D01*
G01X11717011Y4004694D01*
G01X11715684Y4003699D01*
G01X11714891Y4003235D01*
G01X11714481Y4003058D01*
G01X11714201Y4002978D01*
G01X11710797Y4002932D01*
G01X11705489Y4003493D01*
G01X11698041Y4004501D01*
G01X11696971Y4004623D01*
G01X11688281Y4005431D01*
G01X11685918Y4005541D01*
G01X11684625Y4005541D01*
G03X11674765Y4005510I-4625J-95542D01*
G03X11612362Y3842362I5324J-95545D01*
G03X11775511Y3904764I67603J67727D01*
G03X11775654Y3909694I-95511J5235D01*
G03X11775542Y3914624I-95653J306D01*
G01X11775542Y3915917D01*
G01X11775432Y3918280D01*
G01X11774624Y3926971D01*
G01X11774502Y3928040D01*
G01X11773493Y3935488D01*
G01X11772933Y3940796D01*
G01X11772979Y3944201D01*
G01X11773059Y3944481D01*
G01X11773235Y3944891D01*
G01X11773699Y3945683D01*
G01X11774694Y3947011D01*
G01X11776785Y3949291D01*
G01X12129346Y4301852D01*
G01X12129346Y4162839D01*
G01X11981972Y4015465D01*
G02X11950967Y4005653I-31005J44084D01*
G01X11864000Y4005653D01*
G03X11838346Y3979999I0J-25654D01*
G01X11838346Y3839999D01*
G03X11864000Y3814345I25654J0D01*
G01X12004000Y3814345D01*
G03X12029654Y3839999I0J25654D01*
G01X12029654Y3927083D01*
G02X12039465Y3957971I53895J-117D01*
G01X12198747Y4117253D01*
G03X12210654Y4145999I-28747J28747D01*
G01X12210654Y5170000D01*
G03X12198747Y5198747I-40654J0D01*
G01X12098747Y5298747D01*
G03X12070000Y5310654I-28747J-28747D01*
G01X11460000Y5310654D01*
G03X11431253Y5298747I0J-40654D01*
G01X11403160Y5270654D01*
G01X11197839Y5270652D01*
G01X11194216Y5270654D01*
G03X11133782Y5270654I-30217J-40654D01*
G01X10616467Y5270654D01*
G01X10518375Y5368747D01*
G03X10489628Y5380654I-28747J-28747D01*
G01X10050000Y5380654D01*
G03X10021253Y5368747I0J-40654D01*
G01X9923160Y5270654D01*
G01X9789839Y5270652D01*
G01X9786217Y5270654D01*
G03X9725782Y5270654I-30217J-40654D01*
G01X9722160Y5270652D01*
G01X9536840Y5270654D01*
G01X9448747Y5358747D01*
G03X9420000Y5370654I-28747J-28747D01*
G01X8720000Y5370654D01*
G03X8691253Y5358747I0J-40654D01*
G01X8603160Y5270654D01*
G01X8381840Y5270652D01*
G01X8378217Y5270654D01*
G03X8317782Y5270654I-30217J-40654D01*
G01X8314160Y5270652D01*
G01X7936840Y5270654D01*
G01X7818747Y5388747D01*
G03X7790000Y5400654I-28747J-28747D01*
G01X7330000Y5400654D01*
G03X7301253Y5388747I0J-40654D01*
G01X7183160Y5270654D01*
G01X6973840Y5270652D01*
G01X6970217Y5270654D01*
G03X6889375Y5231719I-30217J-40654D01*
G03X6967390Y5187390I50625J-1719D01*
G03X6974182Y5124182I42610J-27390D01*
G03X7037390Y5117390I35817J35818D01*
G03X7044228Y5054137I42610J-27390D01*
G03X7107498Y5047460I35772J35863D01*
G03X7115410Y4982993I42540J-27498D01*
G03X7180256Y4979308I34629J36969D01*
G01X7183878Y4979310D01*
G01X7299962Y4979308D01*
G03X7328708Y4991215I0J40654D01*
G01X7347380Y5009887D01*
G03X7361336Y5014059I-7380J50113D01*
G03X7369346Y4969783I48664J-14059D01*
G01X7369348Y4966160D01*
G01X7369346Y4580326D01*
G03X7349886Y4547380I30654J-40326D01*
G01X7263159Y4460652D01*
G01X7260217Y4460654D01*
G03X7179346Y4420000I-30217J-40654D01*
G03X7260217Y4379346I50654J0D01*
G01X7263840Y4379348D01*
G01X7280000Y4379346D01*
G03X7308747Y4391253I0J40654D01*
G01X7407380Y4489887D01*
G03X7450378Y4545276I-7380J50113D01*
G03X7450654Y4550000I-40379J4725D01*
G01X7450652Y4966160D01*
G01X7450654Y4969783D01*
G03X7388664Y5045941I-40654J30217D01*
G03X7350744Y5109501I-48664J14059D01*
G03X7289887Y5067380I-10744J-49501D01*
G01X7283122Y5060615D01*
G01X7258094Y5060615D01*
G01X7258747Y5061253D01*
G01X7401250Y5203756D01*
G03X7421260Y5148289I48750J-13756D01*
G03X7480217Y5149347I28740J41712D01*
G01X7483840Y5149349D01*
G01X7693160Y5149347D01*
G01X7724542Y5117964D01*
G03X7709999Y5120655I-14543J-37964D01*
G01X7633840Y5120653D01*
G01X7630217Y5120655D01*
G03X7549346Y5080001I-30217J-40654D01*
G03X7630217Y5039347I50654J0D01*
G01X7633840Y5039349D01*
G01X7693159Y5039347D01*
G01X8011346Y4721160D01*
G01X8011346Y4509263D01*
G03X7958213Y4529263I-41346J-29263D01*
G03X7919887Y4487380I11787J-49263D01*
G01X7901253Y4468746D01*
G03X7889346Y4440000I28747J-28747D01*
G01X7889348Y4123840D01*
G37*
G36*
G01X7215656Y1341000D02*
G03X7190002Y1366654I-25654J0D01*
G01X6990002Y1366654D01*
G03X6964348Y1341000I0J-25654D01*
G01X6964348Y1191000D01*
G03X6990002Y1165346I25654J0D01*
G01X7190002Y1165346D01*
G03X7215656Y1191000I0J25654D01*
G01X7215656Y1341000D01*
G37*
G36*
G01X7079348Y3246160D02*
G01X7079346Y3050000D01*
G03X7091253Y3021253I40654J0D01*
G01X7511253Y2601253D01*
G03X7540000Y2589346I28747J28747D01*
G01X7576160Y2589348D01*
G01X7579783Y2589346D01*
G03X7660654Y2630000I30217J40654D01*
G03X7579783Y2670654I-50654J0D01*
G01X7576160Y2670652D01*
G01X7556840Y2670653D01*
G01X7160654Y3066839D01*
G01X7160654Y3098713D01*
G03X7220217Y3099346I29346J41287D01*
G01X7223840Y3099348D01*
G01X7773481Y3099346D01*
G01X7776919Y3099262D01*
G01X7777541Y3099186D01*
G03X7862164Y3140000I32470J40814D01*
G03X7777541Y3180814I-52154J0D01*
G01X7776919Y3180738D01*
G01X7773481Y3180654D01*
G01X7223840Y3180652D01*
G01X7220217Y3180654D01*
G03X7160654Y3181287I-30217J-40654D01*
G01X7160652Y3246160D01*
G01X7160654Y3249783D01*
G03X7120000Y3330654I-40654J30217D01*
G03X7079346Y3249783I0J-50654D01*
G01X7079348Y3246160D01*
G37*
G36*
G01X7643730Y5600000D02*
G03X7956270Y5600000I156270J0D01*
G03X7643730Y5600000I-156270J0D01*
G37*
G36*
G01X8358002Y1534346D02*
G03X8422290Y1700829I0J95654D01*
G01X8421376Y1701742D01*
G01X8419627Y1703336D01*
G01X8412911Y1708910D01*
G01X8412069Y1709580D01*
G01X8406089Y1714133D01*
G01X8401939Y1717490D01*
G01X8399564Y1719930D01*
G01X8399423Y1720185D01*
G01X8399257Y1720600D01*
G01X8399025Y1721487D01*
G01X8398790Y1723130D01*
G01X8398656Y1726223D01*
G01X8398656Y1801998D01*
G03X8386749Y1830745I-40654J0D01*
G01X8318747Y1898747D01*
G03X8300249Y1909341I-28747J-28747D01*
G01X8513166Y1909341D01*
G01X8571348Y1851159D01*
G01X8571348Y1726223D01*
G01X8571214Y1723130D01*
G01X8570979Y1721487D01*
G01X8570747Y1720600D01*
G01X8570581Y1720185D01*
G01X8570440Y1719930D01*
G01X8568065Y1717490D01*
G01X8563916Y1714133D01*
G01X8557936Y1709580D01*
G01X8557093Y1708910D01*
G01X8550377Y1703336D01*
G01X8548628Y1701742D01*
G01X8547714Y1700829D01*
G03X8612002Y1534346I64288J-70829D01*
G03X8676290Y1700829I0J95654D01*
G01X8675376Y1701742D01*
G01X8673627Y1703336D01*
G01X8666911Y1708910D01*
G01X8666069Y1709580D01*
G01X8660089Y1714133D01*
G01X8655939Y1717490D01*
G01X8653564Y1719930D01*
G01X8653423Y1720185D01*
G01X8653257Y1720600D01*
G01X8653025Y1721487D01*
G01X8652790Y1723130D01*
G01X8652656Y1726223D01*
G01X8652656Y1867998D01*
G03X8640749Y1896745I-40654J0D01*
G01X8558752Y1978742D01*
G03X8530005Y1990649I-28747J-28747D01*
G01X8086845Y1990649D01*
G01X7990114Y2087380D01*
G03X7904182Y2115818I-50113J-7380D01*
G03X7932620Y2029886I35818J-35818D01*
G01X8041258Y1921248D01*
G03X8059756Y1910654I28747J28747D01*
G01X8026839Y1910654D01*
G01X7900114Y2037380D01*
G03X7814182Y2065818I-50113J-7380D01*
G03X7842620Y1979887I35818J-35818D01*
G01X7981253Y1841253D01*
G03X8010000Y1829346I28747J28747D01*
G01X8273161Y1829346D01*
G01X8317348Y1785158D01*
G01X8317348Y1726223D01*
G01X8317214Y1723130D01*
G01X8316979Y1721487D01*
G01X8316747Y1720600D01*
G01X8316581Y1720185D01*
G01X8316440Y1719930D01*
G01X8314065Y1717490D01*
G01X8309916Y1714133D01*
G01X8303936Y1709580D01*
G01X8303093Y1708910D01*
G01X8296377Y1703336D01*
G01X8294628Y1701742D01*
G01X8293714Y1700829D01*
G03X8358002Y1534346I64288J-70829D01*
G37*
G36*
G01X8056840Y3880654D02*
G01X8020114Y3917380D01*
G03X7934182Y3945818I-50113J-7380D01*
G03X7962620Y3859887I35818J-35818D01*
G01X8011253Y3811253D01*
G03X8040000Y3799346I28747J28747D01*
G01X8166160Y3799348D01*
G01X8169783Y3799346D01*
G03X8250654Y3840000I30217J40654D01*
G03X8169783Y3880654I-50654J0D01*
G01X8166160Y3880652D01*
G01X8056840Y3880654D01*
G37*
G36*
G01X8353576Y5933576D02*
G03X8400000Y5914346I46424J46424D01*
G01X8510000Y5914346D01*
G03X8522746Y5915595I0J65654D01*
G01X8502805Y5895654D01*
G01X8183000Y5895654D01*
G03X8183000Y5764346I0J-65654D01*
G01X8530000Y5764346D01*
G03X8576424Y5783576I0J65654D01*
G01X8732538Y5939690D01*
G03X8751768Y5986114I-46424J46424D01*
G01X8751768Y7018919D01*
G01X8834421Y7101572D01*
G03X8853651Y7147996I-46522J46465D01*
G02X8883205Y7234197I140484J0D01*
G03X8888650Y7250000I-20209J15803D01*
G01X8888650Y7450000D01*
G03X8886191Y7460960I-25654J0D01*
G01X8904346Y7442805D01*
G01X8904346Y7157195D01*
G01X8792283Y7045132D01*
G03X8773053Y6998707I46424J-46424D01*
G01X8773053Y5825707D01*
G03X8904361Y5825707I65654J0D01*
G01X8904361Y6971512D01*
G01X9016425Y7083576D01*
G03X9035654Y7130000I-46424J46424D01*
G01X9035654Y7470000D01*
G03X9016425Y7516424I-65654J0D01*
G01X8956424Y7576424D01*
G03X8910000Y7595654I-46424J-46424D01*
G01X8090000Y7595654D01*
G03X8043575Y7576424I0J-65654D01*
G01X7979572Y7512421D01*
G03X7960346Y7466666I46424J-46424D01*
G01X7960027Y7459788D01*
G01X7959188Y7453460D01*
G01X7958365Y7449547D01*
G03X7925342Y7375094I67631J-74547D01*
G01X7925342Y7325000D01*
G03X8126650Y7325000I100654J0D01*
G01X8126650Y7375000D01*
G03X8098090Y7445241I-100654J0D01*
G01X8117195Y7464346D01*
G01X8233644Y7464346D01*
G03X8179342Y7375000I46352J-89346D01*
G01X8179342Y7324906D01*
G03X8205584Y7257220I100654J94D01*
G01X8207177Y7251961D01*
G01X8209551Y7242820D01*
G01X8211533Y7233461D01*
G01X8213041Y7223981D01*
G01X8213994Y7214475D01*
G01X8214342Y7204546D01*
G01X8214342Y6100004D01*
G03X8233572Y6053579I65654J0D01*
G01X8353576Y5933576D01*
G37*
G36*
G01X8107346Y5693161D02*
G01X8107346Y5420000D01*
G03X8107621Y5415276I40654J0D01*
G03X8178109Y5363509I50378J-5275D01*
G03X8188654Y5450326I-20110J46491D01*
G01X8188654Y5710000D01*
G03X8176746Y5738747I-40654J0D01*
G01X8098653Y5816840D01*
G01X8098652Y6046160D01*
G01X8098654Y6049783D01*
G03X8058000Y6130654I-40654J30217D01*
G03X8017346Y6049783I0J-50654D01*
G01X8017348Y6046160D01*
G01X8017346Y5800000D01*
G03X8029253Y5771254I40654J0D01*
G01X8107346Y5693161D01*
G37*
G36*
G01X8391654Y4330000D02*
G01X8391654Y4350000D01*
G03X8220346Y4350000I-85654J0D01*
G01X8220346Y4330000D01*
G03X8391654Y4330000I85654J0D01*
G37*
G36*
G01X8611654Y2480000D02*
G03X8440346Y2480000I-85654J0D01*
G03X8611654Y2480000I85654J0D01*
G37*
G36*
G01X8516348Y1376000D02*
G03X8707656Y1376000I95654J0D01*
G03X8516348Y1376000I-95654J0D01*
G37*
G36*
G01X8867534Y2449960D02*
G01X8865159Y2452797D01*
G01X8864792Y2453491D01*
G01X8864643Y2454050D01*
G01X8864495Y2456011D01*
G01X8864657Y2460138D01*
G01X8865142Y2466191D01*
G01X8865181Y2466745D01*
G01X8865600Y2473919D01*
G01X8865642Y2475683D01*
G01X8865622Y2477652D01*
G03X8865646Y2481163I-85622J2348D01*
G03X8865526Y2484673I-85646J-1163D01*
G03X8719433Y2540567I-85563J-4768D01*
G03X8775327Y2394474I60662J-60530D01*
G03X8782348Y2394378I4673J85526D01*
G01X8784317Y2394358D01*
G01X8786081Y2394400D01*
G01X8793256Y2394819D01*
G01X8793809Y2394858D01*
G01X8799863Y2395343D01*
G01X8803989Y2395505D01*
G01X8805950Y2395357D01*
G01X8806509Y2395208D01*
G01X8807203Y2394841D01*
G01X8810040Y2392467D01*
G01X8891253Y2311253D01*
G03X8920000Y2299346I28747J28747D01*
G01X9016160Y2299348D01*
G01X9019783Y2299346D01*
G03X9042620Y2289886I30217J40654D01*
G01X9121253Y2211253D01*
G03X9150000Y2199346I28747J28747D01*
G01X9530000Y2199346D01*
G03X9558747Y2211253I0J40654D01*
G01X9627380Y2279886D01*
G03X9655818Y2365818I-7380J50113D01*
G03X9569886Y2337380I-35818J-35818D01*
G01X9513161Y2280654D01*
G01X9166839Y2280654D01*
G01X9100113Y2347380D01*
G03X9019783Y2380654I-50113J-7380D01*
G01X9016160Y2380652D01*
G01X8936840Y2380653D01*
G01X8867534Y2449960D01*
G37*
G36*
G01X9525345Y6131806D02*
G01X9525345Y5830000D01*
G03X9656653Y5830000I65654J0D01*
G01X9656653Y6159001D01*
G03X9637424Y6205425I-65654J0D01*
G01X9367650Y6475198D01*
G01X9367650Y7204546D01*
G01X9367999Y7214475D01*
G01X9368952Y7223981D01*
G01X9370459Y7233461D01*
G01X9372442Y7242820D01*
G01X9374815Y7251961D01*
G01X9376409Y7257220D01*
G03X9402650Y7325000I-74412J67779D01*
G01X9402650Y7375000D01*
G03X9201342Y7375000I-100654J0D01*
G01X9201342Y7324906D01*
G03X9227584Y7257220I100654J94D01*
G01X9229177Y7251961D01*
G01X9231551Y7242820D01*
G01X9233533Y7233461D01*
G01X9235041Y7223981D01*
G01X9235994Y7214475D01*
G01X9236342Y7204546D01*
G01X9236342Y6448004D01*
G03X9255572Y6401579I65654J0D01*
G01X9525345Y6131806D01*
G37*
G36*
G01X9515346Y5693161D02*
G01X9515348Y5503840D01*
G01X9515346Y5500217D01*
G03X9555999Y5419346I40654J-30217D01*
G03X9596653Y5500217I0J50654D01*
G01X9596651Y5503840D01*
G01X9596653Y5710000D01*
G03X9584746Y5738747I-40654J0D01*
G01X9506653Y5816840D01*
G01X9506651Y6046160D01*
G01X9506653Y6049783D01*
G03X9465999Y6130654I-40654J30217D01*
G03X9425345Y6049783I0J-50654D01*
G01X9425347Y6046160D01*
G01X9425345Y5800000D01*
G03X9437253Y5771254I40654J0D01*
G01X9515346Y5693161D01*
G37*
G36*
G01X9819538Y6043538D02*
G03X9916000Y6047458I46424J46424D01*
G03X10031692Y6089962I50038J42505D01*
G01X10031692Y6243962D01*
G03X10012462Y6290386I-65654J0D01*
G01X9875650Y6427198D01*
G01X9875650Y7204546D01*
G01X9875999Y7214475D01*
G01X9876952Y7223981D01*
G01X9878459Y7233461D01*
G01X9880442Y7242820D01*
G01X9882815Y7251961D01*
G01X9884409Y7257220D01*
G03X9910650Y7325000I-74412J67779D01*
G01X9910650Y7375000D01*
G03X9709342Y7375000I-100654J0D01*
G01X9709342Y7324906D01*
G03X9735584Y7257220I100654J94D01*
G01X9737177Y7251961D01*
G01X9739551Y7242820D01*
G01X9741533Y7233461D01*
G01X9743041Y7223981D01*
G01X9743994Y7214475D01*
G01X9744342Y7204546D01*
G01X9744342Y6400003D01*
G03X9763572Y6353579I65654J0D01*
G01X9900384Y6216767D01*
G01X9900384Y6148389D01*
G01X9621650Y6427123D01*
G01X9621650Y7204546D01*
G01X9621999Y7214475D01*
G01X9622952Y7223981D01*
G01X9624459Y7233461D01*
G01X9626442Y7242820D01*
G01X9628815Y7251961D01*
G01X9630409Y7257220D01*
G03X9656650Y7325000I-74412J67779D01*
G01X9656650Y7375000D01*
G03X9455342Y7375000I-100654J0D01*
G01X9455342Y7324906D01*
G03X9481584Y7257220I100654J94D01*
G01X9483177Y7251961D01*
G01X9485551Y7242820D01*
G01X9487533Y7233461D01*
G01X9489041Y7223981D01*
G01X9489994Y7214475D01*
G01X9490342Y7204546D01*
G01X9490342Y6399928D01*
G03X9509572Y6353504I65654J0D01*
G01X9819538Y6043538D01*
G37*
G36*
G01X9674100Y4260193D02*
G01X9673392Y4257149D01*
G01X9672012Y4253200D01*
G01X9670062Y4248912D01*
G01X9667725Y4244741D01*
G01X9665252Y4241103D01*
G01X9663007Y4238411D01*
G01X9660628Y4236184D01*
G03X9629346Y4170000I54371J-66184D01*
G01X9629346Y4150000D01*
G03X9800654Y4150000I85654J0D01*
G01X9800654Y4170000D01*
G03X9769373Y4236183I-85654J0D01*
G01X9766992Y4238411D01*
G01X9764748Y4241103D01*
G01X9762275Y4244741D01*
G01X9759937Y4248912D01*
G01X9757988Y4253200D01*
G01X9756608Y4257149D01*
G01X9755900Y4260193D01*
G01X9755654Y4262972D01*
G01X9755654Y4357028D01*
G01X9755900Y4359807D01*
G01X9756608Y4362851D01*
G01X9757988Y4366799D01*
G01X9759937Y4371088D01*
G01X9762275Y4375259D01*
G01X9764748Y4378897D01*
G01X9766992Y4381589D01*
G01X9769373Y4383817D01*
G03X9800654Y4450000I-54373J66183D01*
G01X9800654Y4470000D01*
G03X9629346Y4470000I-85654J0D01*
G01X9629346Y4450000D01*
G03X9660628Y4383816I85654J0D01*
G01X9663007Y4381589D01*
G01X9665252Y4378897D01*
G01X9667725Y4375259D01*
G01X9670062Y4371088D01*
G01X9672012Y4366799D01*
G01X9673392Y4362851D01*
G01X9674100Y4359807D01*
G01X9674346Y4357028D01*
G01X9674346Y4262972D01*
G01X9674100Y4260193D01*
G37*
G36*
G01X9999348Y1733840D02*
G01X9999346Y1730217D01*
G03X10040000Y1649346I40654J-30217D01*
G03X10080654Y1730217I0J50654D01*
G01X10080652Y1733840D01*
G01X10080654Y2240000D01*
G03X10068747Y2268747I-40654J0D01*
G01X9994575Y2342918D01*
G01X9992205Y2345407D01*
G01X9991819Y2345900D01*
G03X9903122Y2376878I-51819J-5900D01*
G03X9934100Y2288181I36878J-36878D01*
G01X9934593Y2287795D01*
G01X9937082Y2285424D01*
G01X9999346Y2223160D01*
G01X9999348Y1733840D01*
G37*
G36*
G01X10181053Y5825707D02*
G03X10312361Y5825707I65654J0D01*
G01X10312361Y7167289D01*
G03X10293131Y7213714I-65654J0D01*
G01X10200894Y7305951D01*
G02X10164650Y7416421I150235J110470D01*
G01X10164650Y7450000D01*
G03X10138996Y7475654I-25654J0D01*
G01X9988996Y7475654D01*
G03X9963342Y7450000I0J-25654D01*
G01X9963342Y7250000D01*
G03X9988996Y7224346I25654J0D01*
G01X10022575Y7224346D01*
G02X10133045Y7188102I0J-186478D01*
G01X10181053Y7140095D01*
G01X10181053Y5825707D01*
G37*
G36*
G01X10163000Y4255654D02*
G03X10137346Y4230000I0J-25654D01*
G01X10137346Y4090000D01*
G03X10163000Y4064346I25654J0D01*
G01X10283000Y4064346D01*
G03X10308654Y4090000I0J25654D01*
G01X10308654Y4230000D01*
G03X10283000Y4255654I-25654J0D01*
G01X10163000Y4255654D01*
G37*
G36*
G01X10443730Y5600000D02*
G03X10756270Y5600000I156270J0D01*
G03X10443730Y5600000I-156270J0D01*
G37*
G36*
G01X10933345Y5830000D02*
G03X11064653Y5830000I65654J0D01*
G01X11064653Y6881001D01*
G03X11045424Y6927425I-65654J0D01*
G01X10711678Y7261171D01*
G01X10706381Y7266963D01*
G01X10702485Y7272119D01*
G01X10699376Y7277168D01*
G01X10696853Y7282263D01*
G01X10694756Y7287572D01*
G01X10693039Y7293014D01*
G01X10689898Y7306262D01*
G01X10686995Y7320784D01*
G01X10686792Y7321709D01*
G01X10683105Y7337163D01*
G01X10682650Y7338819D01*
G01X10680650Y7345258D01*
G01X10680650Y7375000D01*
G03X10479342Y7375000I-100654J0D01*
G01X10479342Y7325000D01*
G03X10498629Y7265750I100654J0D01*
G01X10499300Y7264750D01*
G01X10500645Y7262927D01*
G01X10505618Y7256774D01*
G01X10507061Y7255137D01*
G01X10512336Y7249641D01*
G01X10513783Y7248246D01*
G01X10519326Y7243310D01*
G01X10520684Y7242182D01*
G01X10526462Y7237709D01*
G01X10527644Y7236847D01*
G01X10533622Y7232742D01*
G01X10534895Y7231922D01*
G01X10547319Y7224429D01*
G01X10548036Y7224012D01*
G01X10560611Y7216972D01*
G01X10572785Y7209797D01*
G01X10578199Y7206243D01*
G01X10583485Y7202401D01*
G01X10588540Y7198265D01*
G01X10593741Y7193410D01*
G01X10933345Y6853806D01*
G01X10933345Y5830000D01*
G37*
G36*
G01X10926845Y1900654D02*
G01X10770113Y2057385D01*
G03X10684182Y2085823I-50113J-7380D01*
G03X10712620Y1999892I35818J-35818D01*
G01X10881258Y1831253D01*
G03X10910005Y1819346I28747J28747D01*
G01X11416160Y1819348D01*
G01X11419783Y1819346D01*
G03X11500654Y1860000I30217J40654D01*
G03X11419783Y1900654I-50654J0D01*
G01X11416160Y1900652D01*
G01X10926845Y1900654D01*
G37*
G36*
G01X10709348Y4123840D02*
G01X10709346Y4120217D01*
G03X10750000Y4039346I40654J-30217D01*
G03X10790654Y4120217I0J50654D01*
G01X10790652Y4123840D01*
G01X10790654Y4412479D01*
G03X10814622Y4498974I-10654J49521D01*
G03X10729887Y4469380I-34622J-36975D01*
G01X10721253Y4460746D01*
G03X10709346Y4432000I28747J-28747D01*
G01X10709348Y4123840D01*
G37*
G36*
G01X11227537Y6043538D02*
G03X11324000Y6047458I46424J46424D01*
G03X11439692Y6089962I50038J42505D01*
G01X11439692Y6920801D01*
G03X11420462Y6967225I-65654J0D01*
G01X11155963Y7231725D01*
G01X11156446Y7234721D01*
G01X11158421Y7243898D01*
G01X11160787Y7252867D01*
G01X11161984Y7256757D01*
G03X11188650Y7324906I-73988J68243D01*
G01X11188650Y7375000D01*
G03X10987342Y7375000I-100654J0D01*
G01X10987342Y7325000D01*
G03X11014009Y7256757I100654J0D01*
G01X11015206Y7252867D01*
G01X11017572Y7243898D01*
G01X11019546Y7234721D01*
G01X11021047Y7225429D01*
G01X11021996Y7216118D01*
G01X11022344Y7206333D01*
G03X11041572Y7160418I65652J509D01*
G01X11308384Y6893606D01*
G01X11308384Y6148389D01*
G01X11305654Y6151119D01*
G01X11305654Y6844838D01*
G03X11286425Y6891263I-65654J0D01*
G01X10967011Y7210676D01*
G01X10962509Y7215596D01*
G01X10958660Y7220586D01*
G01X10955070Y7226072D01*
G01X10951750Y7232029D01*
G01X10948712Y7238422D01*
G01X10945966Y7245207D01*
G01X10943520Y7252333D01*
G01X10941378Y7259747D01*
G01X10939540Y7267392D01*
G01X10938048Y7274983D01*
G01X10935814Y7291167D01*
G01X10934721Y7307082D01*
G01X10934629Y7322930D01*
G01X10934650Y7325000D01*
G01X10934650Y7375000D01*
G03X10733342Y7375000I-100654J0D01*
G01X10733342Y7325000D01*
G03X10733666Y7316937I100654J0D01*
G01X10733693Y7316303D01*
G01X10733866Y7314235D01*
G01X10734819Y7306584D01*
G01X10735122Y7304719D01*
G01X10736659Y7297040D01*
G01X10737052Y7295370D01*
G01X10739132Y7287689D01*
G01X10739585Y7286198D01*
G01X10742165Y7278543D01*
G01X10742656Y7277212D01*
G01X10745696Y7269612D01*
G01X10746208Y7268420D01*
G01X10749666Y7260902D01*
G01X10750189Y7259832D01*
G01X10754022Y7252425D01*
G01X10754810Y7251013D01*
G01X10763436Y7236641D01*
G01X10764497Y7235017D01*
G01X10774125Y7221423D01*
G01X10775198Y7220013D01*
G01X10777951Y7216646D01*
G03X10787572Y7204418I56045J34196D01*
G01X11174346Y6817643D01*
G01X11174346Y6123924D01*
G03X11193576Y6077500I65654J0D01*
G01X11227537Y6043538D01*
G37*
G36*
G01X10923345Y5693161D02*
G01X10923347Y5463840D01*
G01X10923345Y5460217D01*
G03X10963999Y5379346I40654J-30217D01*
G03X11004653Y5460217I0J50654D01*
G01X11004651Y5463840D01*
G01X11004653Y5710000D01*
G03X10992746Y5738747I-40654J0D01*
G01X10914653Y5816840D01*
G01X10914651Y6046160D01*
G01X10914653Y6049783D01*
G03X10873999Y6130654I-40654J30217D01*
G03X10833345Y6049783I0J-50654D01*
G01X10833347Y6046160D01*
G01X10833345Y5800000D01*
G03X10845252Y5771254I40654J0D01*
G01X10923345Y5693161D01*
G37*
G36*
G01X11225654Y4330000D02*
G01X11225654Y4350000D01*
G03X11054346Y4350000I-85654J0D01*
G01X11054346Y4330000D01*
G03X11225654Y4330000I85654J0D01*
G37*
G36*
G01X11608282Y5779283D02*
G03X11701131Y5872132I46424J46424D01*
G01X11595654Y5977608D01*
G01X11595654Y6971996D01*
G03X11576424Y7018421I-65654J0D01*
G01X11410453Y7184392D01*
G02X11435910Y7232668I104758J-24392D01*
G03X11442650Y7250080I-18914J17332D01*
G01X11442650Y7450000D01*
G03X11416996Y7475654I-25654J0D01*
G01X11266996Y7475654D01*
G03X11241342Y7450000I0J-25654D01*
G01X11241342Y7250000D01*
G03X11248125Y7232622I25654J0D01*
G02X11276342Y7160165I-79342J-72622D01*
G03X11295572Y7113575I65777J-114D01*
G01X11464346Y6944801D01*
G01X11464346Y5950414D01*
G03X11483576Y5903989I65654J0D01*
G01X11608282Y5779283D01*
G37*
G36*
G01X11519130Y3696787D02*
G01X11517487Y3697023D01*
G01X11516600Y3697255D01*
G01X11516185Y3697420D01*
G01X11515930Y3697562D01*
G01X11513490Y3699936D01*
G01X11510133Y3704086D01*
G01X11505580Y3710066D01*
G01X11504910Y3710908D01*
G01X11499336Y3717624D01*
G01X11497742Y3719373D01*
G01X11496829Y3720287D01*
G03X11330346Y3655999I-70829J-64288D01*
G03X11496829Y3591711I95654J0D01*
G01X11497742Y3592626D01*
G01X11499336Y3594374D01*
G01X11504910Y3601091D01*
G01X11505580Y3601933D01*
G01X11510133Y3607913D01*
G01X11513490Y3612062D01*
G01X11515930Y3614437D01*
G01X11516185Y3614578D01*
G01X11516600Y3614744D01*
G01X11517487Y3614976D01*
G01X11519130Y3615211D01*
G01X11522223Y3615345D01*
G01X11583777Y3615345D01*
G01X11586870Y3615211D01*
G01X11588513Y3614976D01*
G01X11589400Y3614744D01*
G01X11589815Y3614578D01*
G01X11590070Y3614437D01*
G01X11592510Y3612062D01*
G01X11595867Y3607913D01*
G01X11600420Y3601933D01*
G01X11601090Y3601091D01*
G01X11606664Y3594374D01*
G01X11608258Y3592626D01*
G01X11609171Y3591711D01*
G03X11750829Y3591711I70829J64288D01*
G01X11751742Y3592626D01*
G01X11753336Y3594374D01*
G01X11758910Y3601091D01*
G01X11759580Y3601933D01*
G01X11764133Y3607913D01*
G01X11767490Y3612062D01*
G01X11769930Y3614437D01*
G01X11770185Y3614578D01*
G01X11770600Y3614744D01*
G01X11771487Y3614976D01*
G01X11773130Y3615211D01*
G01X11776223Y3615345D01*
G01X11837777Y3615345D01*
G01X11840870Y3615211D01*
G01X11842513Y3614976D01*
G01X11843400Y3614744D01*
G01X11843815Y3614578D01*
G01X11844070Y3614437D01*
G01X11846510Y3612062D01*
G01X11849867Y3607913D01*
G01X11854420Y3601933D01*
G01X11855090Y3601091D01*
G01X11860664Y3594374D01*
G01X11862258Y3592626D01*
G01X11863171Y3591711D01*
G03X12029654Y3655999I70829J64288D01*
G03X11863171Y3720287I-95654J0D01*
G01X11862258Y3719373D01*
G01X11860664Y3717624D01*
G01X11855090Y3710908D01*
G01X11854420Y3710066D01*
G01X11849867Y3704086D01*
G01X11846510Y3699936D01*
G01X11844070Y3697562D01*
G01X11843815Y3697420D01*
G01X11843400Y3697255D01*
G01X11842513Y3697023D01*
G01X11840870Y3696787D01*
G01X11837777Y3696653D01*
G01X11776223Y3696653D01*
G01X11773130Y3696787D01*
G01X11771487Y3697023D01*
G01X11770600Y3697255D01*
G01X11770185Y3697420D01*
G01X11769930Y3697562D01*
G01X11767490Y3699936D01*
G01X11764133Y3704086D01*
G01X11759580Y3710066D01*
G01X11758910Y3710908D01*
G01X11753336Y3717624D01*
G01X11751742Y3719373D01*
G01X11750829Y3720287D01*
G03X11609171Y3720287I-70829J-64288D01*
G01X11608258Y3719373D01*
G01X11606664Y3717624D01*
G01X11601090Y3710908D01*
G01X11600420Y3710066D01*
G01X11595867Y3704086D01*
G01X11592510Y3699936D01*
G01X11590070Y3697562D01*
G01X11589815Y3697420D01*
G01X11589400Y3697255D01*
G01X11588513Y3697023D01*
G01X11586870Y3696787D01*
G01X11583777Y3696653D01*
G01X11522223Y3696653D01*
G01X11519130Y3696787D01*
G37*
G36*
G01X11483160Y5020654D02*
G01X11473840Y5020652D01*
G01X11470217Y5020654D01*
G03X11389346Y4980000I-30217J-40654D01*
G03X11470217Y4939346I50654J0D01*
G01X11473840Y4939348D01*
G01X11500000Y4939346D01*
G03X11528747Y4951253I0J40654D01*
G01X11577380Y4999887D01*
G03X11605818Y5085818I-7380J50113D01*
G03X11519887Y5057380I-35818J-35818D01*
G01X11483160Y5020654D01*
G37*
G36*
G01X11425126Y1310780D02*
G03X11450780Y1285126I25654J0D01*
G01X11669220Y1285126D01*
G03X11694874Y1310780I0J25654D01*
G01X11694874Y1529220D01*
G03X11669220Y1554874I-25654J0D01*
G01X11450780Y1554874D01*
G03X11425126Y1529220I0J-25654D01*
G01X11425126Y1310780D01*
G37*
G36*
G01X12404346Y3378083D02*
G03X12154346Y3360000I-124346J-18083D01*
G01X12154346Y2356000D01*
G03X12191149Y2267149I125654J0D01*
G01X12441149Y2017149D01*
G03X12530000Y1980346I88851J88851D01*
G01X12740000Y1980346D01*
G03X12815218Y2005346I0J125654D01*
G01X12840000Y2005346D01*
G03X12865654Y2031000I0J25654D01*
G01X12865654Y2181000D01*
G03X12840000Y2206654I-25654J0D01*
G01X12815218Y2206654D01*
G03X12740000Y2231654I-75218J-100654D01*
G01X12582048Y2231654D01*
G01X12405654Y2408048D01*
G01X12405654Y3133427D01*
G03X12510000Y3044346I104346J16573D01*
G01X12737998Y3044346D01*
G03X12775816Y3051347I0J105654D01*
G01X12839998Y3051347D01*
G03X12865652Y3077001I0J25654D01*
G01X12865652Y3227001D01*
G03X12839998Y3252655I-25654J0D01*
G01X12772116Y3252655D01*
G03X12719537Y3255654I-32118J-100654D01*
G01X12615654Y3255654D01*
G01X12615654Y3643814D01*
G03X12714998Y3559347I99344J16186D01*
G01X12764998Y3559347D01*
G03X12764998Y3760655I0J100654D01*
G01X12714998Y3760655D01*
G03X12615654Y3676187I0J-100654D01*
G01X12615654Y4433414D01*
G03X12719998Y4344347I104344J16586D01*
G01X12759998Y4344347D01*
G03X12759998Y4555654I0J105654D01*
G01X12719998Y4555654D01*
G03X12615654Y4466587I0J-105654D01*
G01X12615654Y5134346D01*
G01X12759998Y5134346D01*
G03X12759998Y5345654I0J105654D01*
G01X12510000Y5345654D01*
G03X12404346Y5240000I0J-105654D01*
G01X12404346Y3378083D01*
G37*
G36*
G01X12950254Y7200000D02*
G03X12249746Y7200000I-350254J0D01*
G03X12950254Y7200000I350254J0D01*
G37*
G36*
G01X12950254Y1400000D02*
G03X12249746Y1400000I-350254J0D01*
G03X12950254Y1400000I350254J0D01*
G37*
G36*
G01X12715000Y2513346D02*
G01X12765000Y2513346D01*
G03X12765000Y2714654I0J100654D01*
G01X12715000Y2714654D01*
G03X12715000Y2513346I0J-100654D01*
G37*
G36*
G01X12845654Y5856000D02*
G03X12820000Y5881654I-25654J0D01*
G01X12660000Y5881654D01*
G03X12634346Y5856000I0J-25654D01*
G01X12634346Y5696000D01*
G03X12660000Y5670346I25654J0D01*
G01X12820000Y5670346D01*
G03X12845654Y5696000I0J25654D01*
G01X12845654Y5856000D01*
G37*
%LPD*%
G36*
G01X1720000Y2940000D02*
G01X1720000Y3970000D01*
G01X1860000Y4110000D01*
G01X3610000Y4110000D01*
G01X3770000Y3950000D01*
G01X3770000Y2790000D01*
G01X3610000Y2630000D01*
G01X2030000Y2630000D01*
G01X1720000Y2940000D01*
G37*
G36*
G01X4450000Y6330000D02*
G01X5241855Y6330000D01*
G03X5258145Y6330000I8145J49995D01*
G01X6300000Y6330000D01*
G01X6330000Y6296498D01*
G01X6330000Y4457702D01*
G01X6050419Y4178120D01*
G01X5389707Y4178120D01*
G03X5290826Y4130000I0J-125654D01*
G01X4910000Y4130000D01*
G01X4350000Y4755381D01*
G01X4350000Y6218325D01*
G01X4450000Y6330000D01*
G37*
G36*
G01X7115617Y6972768D02*
G01X7302421Y7159572D01*
G03X7321648Y7205483I-46424J46424D01*
G01X7321998Y7215364D01*
G01X7322949Y7224765D01*
G01X7324452Y7234143D01*
G01X7326431Y7243404D01*
G01X7328800Y7252452D01*
G01X7330181Y7256971D01*
G03X7356650Y7324906I-74185J68028D01*
G01X7356650Y7375000D01*
G03X7302348Y7464346I-100654J0D01*
G01X7413729Y7464346D01*
G03X7409342Y7450000I21268J-14346D01*
G01X7409342Y7250000D01*
G03X7417966Y7230814I25654J0D01*
G01X7231690Y7044539D01*
G03X7212460Y6998114I46424J-46424D01*
G01X7212460Y6110309D01*
G03X7115617Y6145869I-62422J-20347D01*
G01X7115617Y6972768D01*
G37*
G36*
G01X8523616Y7080768D02*
G01X8580421Y7137572D01*
G03X8599650Y7183997I-46424J46424D01*
G01X8599650Y7204546D01*
G01X8599999Y7214475D01*
G01X8600952Y7223981D01*
G01X8602459Y7233461D01*
G01X8604442Y7242820D01*
G01X8606815Y7251961D01*
G01X8608409Y7257220D01*
G03X8634650Y7325000I-74412J67779D01*
G01X8634650Y7375000D01*
G03X8580348Y7464346I-100654J0D01*
G01X8691729Y7464346D01*
G03X8687342Y7450000I21268J-14346D01*
G01X8687342Y7250080D01*
G03X8692747Y7234249I25654J-81D01*
G02X8720107Y7172956I-110889J-86253D01*
G01X8639690Y7092538D01*
G03X8620460Y7046114I46424J-46424D01*
G01X8620460Y6110309D01*
G03X8523616Y6145869I-62422J-20347D01*
G01X8523616Y7080768D01*
G37*
G36*
G01X11880654Y4943161D02*
G01X11967380Y5029887D01*
G03X11994328Y5042752I-7380J50113D01*
G03X12009346Y5068564I-34328J37248D01*
G01X12009346Y4386840D01*
G01X11880654Y4258147D01*
G01X11880654Y4943161D01*
G37*
G04 Copper End*

G04 TearDrop Start*
G36*
G01X5618000Y3750000D02*
G01X5618000Y3810000D01*
G01X5623081Y3810283D01*
G01X5628612Y3811103D01*
G01X5634391Y3812413D01*
G01X5640220Y3814168D01*
G01X5645895Y3816322D01*
G01X5651218Y3818830D01*
G01X5655986Y3821645D01*
G01X5660000Y3824721D01*
G01X5660000Y3735279D01*
G01X5655986Y3738355D01*
G01X5651218Y3741171D01*
G01X5645895Y3743678D01*
G01X5640220Y3745832D01*
G01X5634391Y3747587D01*
G01X5628612Y3748897D01*
G01X5623081Y3749717D01*
G01X5618000Y3750000D01*
G37*
G36*
G01X10923733Y2813130D02*
G01X11036870Y2926267D01*
G01X11041303Y2921368D01*
G01X11044976Y2916622D01*
G01X11051395Y2908208D01*
G01X11054819Y2904848D01*
G01X11058835Y2902257D01*
G01X11063783Y2900590D01*
G01X11070000Y2900000D01*
G01X11010354Y2833491D01*
G01X11009840Y2836446D01*
G01X11009025Y2838765D01*
G01X11007925Y2840488D01*
G01X11006557Y2841657D01*
G01X11004935Y2842311D01*
G01X11003076Y2842491D01*
G01X10998712Y2841591D01*
G01X10993590Y2839279D01*
G01X10987840Y2835878D01*
G01X10974958Y2827105D01*
G01X10961088Y2817858D01*
G01X10954101Y2813865D01*
G01X10947248Y2810722D01*
G01X10940657Y2808755D01*
G01X10937500Y2808312D01*
G01X10934456Y2808284D01*
G01X10931542Y2808712D01*
G01X10928773Y2809635D01*
G01X10926164Y2811094D01*
G01X10923733Y2813130D01*
G37*
G36*
G01X8848589Y2432624D02*
G01X8827376Y2411411D01*
G01X8821584Y2416258D01*
G01X8815932Y2419243D01*
G01X8810271Y2420758D01*
G01X8804454Y2421198D01*
G01X8798333Y2420957D01*
G01X8791759Y2420430D01*
G01X8784584Y2420010D01*
G01X8776661Y2420093D01*
G01X8839907Y2483339D01*
G01X8839990Y2475416D01*
G01X8839570Y2468241D01*
G01X8839043Y2461667D01*
G01X8838802Y2455546D01*
G01X8839242Y2449729D01*
G01X8840758Y2444068D01*
G01X8843742Y2438416D01*
G01X8848589Y2432624D01*
G37*
G36*
G01X11645000Y4455000D02*
G01X11675000Y4455000D01*
G03X11697500Y4410000I56250J0D01*
G01X11622500Y4410000D01*
G03X11645000Y4455000I-33750J45000D01*
G37*
G36*
G01X11409000Y4238163D02*
G01X11379000Y4238163D01*
G01X11378495Y4243865D01*
G01X11377067Y4250007D01*
G01X11374847Y4256359D01*
G01X11371969Y4262689D01*
G01X11368563Y4268766D01*
G01X11364762Y4274358D01*
G01X11360697Y4279234D01*
G01X11356501Y4283163D01*
G01X11431500Y4283163D01*
G01X11427304Y4279234D01*
G01X11423239Y4274358D01*
G01X11419437Y4268766D01*
G01X11416032Y4262689D01*
G01X11413153Y4256359D01*
G01X11410934Y4250007D01*
G01X11409506Y4243865D01*
G01X11409000Y4238163D01*
G37*
G36*
G01X10901000Y4238163D02*
G01X10871000Y4238163D01*
G01X10870495Y4243865D01*
G01X10869067Y4250007D01*
G01X10866847Y4256359D01*
G01X10863969Y4262689D01*
G01X10860563Y4268766D01*
G01X10856762Y4274358D01*
G01X10852697Y4279234D01*
G01X10848501Y4283163D01*
G01X10923500Y4283163D01*
G01X10919304Y4279234D01*
G01X10915239Y4274358D01*
G01X10911437Y4268766D01*
G01X10908032Y4262689D01*
G01X10905153Y4256359D01*
G01X10902934Y4250007D01*
G01X10901506Y4243865D01*
G01X10901000Y4238163D01*
G37*
G36*
G01X8803000Y4455000D02*
G01X8833000Y4455000D01*
G03X8855500Y4410000I56250J0D01*
G01X8780500Y4410000D01*
G03X8803000Y4455000I-33750J45000D01*
G37*
G36*
G01X8482574Y4396213D02*
G01X8497773Y4423440D01*
G01X8502324Y4419591D01*
G01X8507808Y4416114D01*
G01X8513978Y4413104D01*
G01X8520584Y4410658D01*
G01X8527378Y4408872D01*
G01X8534114Y4407843D01*
G01X8540542Y4407668D01*
G01X8546415Y4408442D01*
G01X8500000Y4350000D01*
G01X8499669Y4355701D01*
G01X8498708Y4361862D01*
G01X8497170Y4368264D01*
G01X8495103Y4374688D01*
G01X8492560Y4380914D01*
G01X8489590Y4386723D01*
G01X8486244Y4391896D01*
G01X8482574Y4396213D01*
G37*
G36*
G01X8575000Y4238163D02*
G01X8545000Y4238163D01*
G01X8544494Y4243865D01*
G01X8543066Y4250007D01*
G01X8540847Y4256359D01*
G01X8537969Y4262689D01*
G01X8534563Y4268766D01*
G01X8530762Y4274358D01*
G01X8526697Y4279234D01*
G01X8522500Y4283163D01*
G01X8597500Y4283163D01*
G01X8593303Y4279234D01*
G01X8589238Y4274358D01*
G01X8585437Y4268766D01*
G01X8582031Y4262689D01*
G01X8579153Y4256359D01*
G01X8576934Y4250007D01*
G01X8575505Y4243865D01*
G01X8575000Y4238163D01*
G37*
G36*
G01X8037000Y4441838D02*
G01X8067000Y4441838D01*
G01X8067505Y4436136D01*
G01X8068934Y4429993D01*
G01X8071153Y4423641D01*
G01X8074031Y4417311D01*
G01X8077437Y4411234D01*
G01X8081238Y4405642D01*
G01X8085303Y4400766D01*
G01X8089500Y4396838D01*
G01X8014500Y4396838D01*
G01X8018697Y4400766D01*
G01X8022762Y4405642D01*
G01X8026563Y4411234D01*
G01X8029969Y4417311D01*
G01X8032847Y4423641D01*
G01X8035066Y4429993D01*
G01X8036494Y4436136D01*
G01X8037000Y4441838D01*
G37*
G36*
G01X8067000Y4238163D02*
G01X8037000Y4238163D01*
G01X8036494Y4243865D01*
G01X8035066Y4250007D01*
G01X8032847Y4256359D01*
G01X8029969Y4262689D01*
G01X8026563Y4268766D01*
G01X8022762Y4274358D01*
G01X8018697Y4279234D01*
G01X8014500Y4283163D01*
G01X8089500Y4283163D01*
G01X8085303Y4279234D01*
G01X8081238Y4274358D01*
G01X8077437Y4268766D01*
G01X8074031Y4262689D01*
G01X8071153Y4256359D01*
G01X8068934Y4250007D01*
G01X8067505Y4243865D01*
G01X8067000Y4238163D01*
G37*
G36*
G01X10208000Y4575000D02*
G01X10238000Y4575000D01*
G03X10260500Y4530000I56250J0D01*
G01X10185500Y4530000D01*
G03X10208000Y4575000I-33750J45000D01*
G37*
G36*
G01X9984000Y4358162D02*
G01X9954000Y4358162D01*
G01X9953494Y4363864D01*
G01X9952066Y4370007D01*
G01X9949847Y4376359D01*
G01X9946969Y4382689D01*
G01X9943563Y4388766D01*
G01X9939762Y4394358D01*
G01X9935697Y4399234D01*
G01X9931500Y4403162D01*
G01X10006500Y4403162D01*
G01X10002303Y4399234D01*
G01X9998238Y4394358D01*
G01X9994437Y4388766D01*
G01X9991031Y4382689D01*
G01X9988153Y4376359D01*
G01X9985934Y4370007D01*
G01X9984505Y4363864D01*
G01X9984000Y4358162D01*
G37*
G36*
G01X9954000Y4561837D02*
G01X9984000Y4561837D01*
G01X9984505Y4556136D01*
G01X9985934Y4549993D01*
G01X9988153Y4543641D01*
G01X9991031Y4537311D01*
G01X9994437Y4531234D01*
G01X9998238Y4525642D01*
G01X10002303Y4520766D01*
G01X10006500Y4516838D01*
G01X9931500Y4516838D01*
G01X9935697Y4520766D01*
G01X9939762Y4525642D01*
G01X9943563Y4531234D01*
G01X9946969Y4537311D01*
G01X9949847Y4543641D01*
G01X9952066Y4549993D01*
G01X9953494Y4556136D01*
G01X9954000Y4561837D01*
G37*
G36*
G01X9730000Y4358162D02*
G01X9700000Y4358162D01*
G01X9699494Y4363864D01*
G01X9698066Y4370007D01*
G01X9695847Y4376359D01*
G01X9692969Y4382689D01*
G01X9689563Y4388766D01*
G01X9685762Y4394358D01*
G01X9681697Y4399234D01*
G01X9677500Y4403162D01*
G01X9752500Y4403162D01*
G01X9748303Y4399234D01*
G01X9744238Y4394358D01*
G01X9740437Y4388766D01*
G01X9737031Y4382689D01*
G01X9734153Y4376359D01*
G01X9731934Y4370007D01*
G01X9730505Y4363864D01*
G01X9730000Y4358162D01*
G37*
G36*
G01X9446000Y4561837D02*
G01X9476000Y4561837D01*
G01X9476505Y4556136D01*
G01X9477934Y4549993D01*
G01X9480153Y4543641D01*
G01X9483031Y4537311D01*
G01X9486437Y4531234D01*
G01X9490238Y4525642D01*
G01X9494303Y4520766D01*
G01X9498500Y4516838D01*
G01X9423500Y4516838D01*
G01X9427697Y4520766D01*
G01X9431762Y4525642D01*
G01X9435563Y4531234D01*
G01X9438969Y4537311D01*
G01X9441847Y4543641D01*
G01X9444066Y4549993D01*
G01X9445494Y4556136D01*
G01X9446000Y4561837D01*
G37*
G36*
G01X9476000Y4358162D02*
G01X9446000Y4358162D01*
G01X9445494Y4363864D01*
G01X9444066Y4370007D01*
G01X9441847Y4376359D01*
G01X9438969Y4382689D01*
G01X9435563Y4388766D01*
G01X9431762Y4394358D01*
G01X9427697Y4399234D01*
G01X9423500Y4403162D01*
G01X9498500Y4403162D01*
G01X9494303Y4399234D01*
G01X9490238Y4394358D01*
G01X9486437Y4388766D01*
G01X9483031Y4382689D01*
G01X9480153Y4376359D01*
G01X9477934Y4370007D01*
G01X9476505Y4363864D01*
G01X9476000Y4358162D01*
G37*
G36*
G01X3920063Y1767511D02*
G01X3900575Y1871852D01*
G01X3906052Y1866842D01*
G01X3911669Y1862589D01*
G01X3917426Y1859033D01*
G01X3923323Y1856114D01*
G01X3929359Y1853772D01*
G01X3935536Y1851947D01*
G01X3941852Y1850580D01*
G01X3948308Y1849610D01*
G01X3961641Y1848626D01*
G01X3975534Y1848515D01*
G01X4005002Y1849000D01*
G01X3982337Y1702507D01*
G01X3978139Y1704221D01*
G01X3973928Y1706653D01*
G01X3969716Y1709715D01*
G01X3965514Y1713321D01*
G01X3957186Y1721817D01*
G01X3949037Y1731451D01*
G01X3933642Y1751360D01*
G01X3926579Y1760251D01*
G01X3920063Y1767511D01*
G37*
G36*
G01X5405392Y1919529D02*
G01X5394031Y1780890D01*
G01X5386696Y1773223D01*
G01X5379966Y1765615D01*
G01X5367865Y1750821D01*
G01X5356808Y1736986D01*
G01X5351384Y1730578D01*
G01X5345877Y1724591D01*
G01X5340170Y1719083D01*
G01X5334150Y1714114D01*
G01X5327701Y1709746D01*
G01X5320708Y1706037D01*
G01X5313057Y1703048D01*
G01X5304633Y1700839D01*
G01X5295319Y1699470D01*
G01X5285002Y1699000D01*
G01X5285002Y1849000D01*
G01X5294185Y1849405D01*
G01X5303047Y1850584D01*
G01X5311609Y1852487D01*
G01X5319893Y1855061D01*
G01X5327921Y1858255D01*
G01X5335712Y1862018D01*
G01X5343290Y1866296D01*
G01X5350675Y1871040D01*
G01X5357888Y1876197D01*
G01X5364952Y1881716D01*
G01X5378717Y1893632D01*
G01X5392139Y1906374D01*
G01X5405392Y1919529D01*
G37*
G36*
G01X7205140Y1804000D02*
G01X7205140Y1744000D01*
G01X7196391Y1743496D01*
G01X7188891Y1742070D01*
G01X7182463Y1739855D01*
G01X7176927Y1736982D01*
G01X7172106Y1733582D01*
G01X7167820Y1729786D01*
G01X7160140Y1721535D01*
G01X7152460Y1713279D01*
G01X7148174Y1709478D01*
G01X7143353Y1706071D01*
G01X7137817Y1703187D01*
G01X7131389Y1700960D01*
G01X7123889Y1699521D01*
G01X7115140Y1699000D01*
G01X7115140Y1849000D01*
G01X7123889Y1848479D01*
G01X7131389Y1847040D01*
G01X7137817Y1844813D01*
G01X7143353Y1841930D01*
G01X7148174Y1838522D01*
G01X7152460Y1834721D01*
G01X7160140Y1826465D01*
G01X7167820Y1818214D01*
G01X7172106Y1814418D01*
G01X7176927Y1811018D01*
G01X7182463Y1808145D01*
G01X7188891Y1805930D01*
G01X7196391Y1804504D01*
G01X7205140Y1804000D01*
G37*
G36*
G01X1577289Y6975867D02*
G01X1435867Y7117289D01*
G03X1613001Y7347000I-800180J800180D01*
G01X1867001Y7093000D01*
G03X1577289Y6975867I0J-416848D01*
G37*
G36*
G01X1851422Y7532843D02*
G01X1992843Y7391422D01*
G03X1867001Y7093000I303895J-303895D01*
G01X1613001Y7347000D01*
G03X1851422Y7532843I-630596J1054860D01*
G37*
G36*
G01X7880002Y1534333D02*
G01X7820002Y1534333D01*
G01X7819504Y1540705D01*
G01X7818096Y1547263D01*
G01X7815909Y1553878D01*
G01X7813073Y1560422D01*
G01X7809716Y1566767D01*
G01X7805970Y1572786D01*
G01X7801963Y1578351D01*
G01X7797827Y1583333D01*
G01X7902177Y1583333D01*
G01X7898041Y1578351D01*
G01X7894035Y1572786D01*
G01X7890288Y1566767D01*
G01X7886932Y1560422D01*
G01X7884095Y1553878D01*
G01X7881908Y1547263D01*
G01X7880500Y1540705D01*
G01X7880002Y1534333D01*
G37*
G36*
G01X7761142Y1676434D02*
G01X7803569Y1718860D01*
G01X7808427Y1714706D01*
G01X7814059Y1711065D01*
G01X7820283Y1707934D01*
G01X7826916Y1705313D01*
G01X7833776Y1703199D01*
G01X7840682Y1701592D01*
G01X7847449Y1700490D01*
G01X7853897Y1699892D01*
G01X7780110Y1626105D01*
G01X7779512Y1632553D01*
G01X7778410Y1639321D01*
G01X7776803Y1646226D01*
G01X7774690Y1653086D01*
G01X7772068Y1659720D01*
G01X7768937Y1665944D01*
G01X7765296Y1671576D01*
G01X7761142Y1676434D01*
G37*
G36*
G01X7820002Y1536000D02*
G01X7880002Y1536000D01*
G03X7920002Y1446000I121249J-0D01*
G01X7780002Y1446000D01*
G03X7820002Y1536000I-81250J90000D01*
G37*
G36*
G01X8343002Y1725667D02*
G01X8373002Y1725667D01*
G01X8373215Y1720750D01*
G01X8373837Y1716409D01*
G01X8374840Y1712572D01*
G01X8376197Y1709171D01*
G01X8377880Y1706133D01*
G01X8379863Y1703390D01*
G01X8384619Y1698504D01*
G01X8390246Y1693952D01*
G01X8396527Y1689169D01*
G01X8403243Y1683595D01*
G01X8410177Y1676667D01*
G01X8305827Y1676667D01*
G01X8312761Y1683595D01*
G01X8319477Y1689169D01*
G01X8325758Y1693952D01*
G01X8331385Y1698504D01*
G01X8336141Y1703390D01*
G01X8338124Y1706133D01*
G01X8339807Y1709171D01*
G01X8341164Y1712572D01*
G01X8342167Y1716409D01*
G01X8342789Y1720750D01*
G01X8343002Y1725667D01*
G37*
G36*
G01X8597002Y1725667D02*
G01X8627002Y1725667D01*
G01X8627215Y1720750D01*
G01X8627837Y1716409D01*
G01X8628840Y1712572D01*
G01X8630197Y1709171D01*
G01X8631880Y1706133D01*
G01X8633863Y1703390D01*
G01X8638619Y1698504D01*
G01X8644246Y1693952D01*
G01X8650527Y1689169D01*
G01X8657243Y1683595D01*
G01X8664177Y1676667D01*
G01X8559827Y1676667D01*
G01X8566761Y1683595D01*
G01X8573477Y1689169D01*
G01X8579758Y1693952D01*
G01X8585385Y1698504D01*
G01X8590141Y1703390D01*
G01X8592124Y1706133D01*
G01X8593807Y1709171D01*
G01X8595164Y1712572D01*
G01X8596167Y1716409D01*
G01X8596789Y1720750D01*
G01X8597002Y1725667D01*
G37*
G36*
G01X8300962Y1297747D02*
G01X8279749Y1318960D01*
G01X8283075Y1322587D01*
G01X8285705Y1326097D01*
G01X8287709Y1329519D01*
G01X8289155Y1332884D01*
G01X8290112Y1336222D01*
G01X8290649Y1339564D01*
G01X8290741Y1346381D01*
G01X8289981Y1353579D01*
G01X8288922Y1361402D01*
G01X8288114Y1370093D01*
G01X8288110Y1379895D01*
G01X8361897Y1306108D01*
G01X8352095Y1306112D01*
G01X8343404Y1306920D01*
G01X8335582Y1307979D01*
G01X8328383Y1308739D01*
G01X8321566Y1308647D01*
G01X8318224Y1308110D01*
G01X8314886Y1307153D01*
G01X8311521Y1305707D01*
G01X8308099Y1303703D01*
G01X8304589Y1301073D01*
G01X8300962Y1297747D01*
G37*
G36*
G01X6730567Y7487135D02*
G01X6858284Y7501716D01*
G01X6852684Y7495597D01*
G01X6847689Y7489090D01*
G01X6843265Y7482227D01*
G01X6839380Y7475043D01*
G01X6836002Y7467571D01*
G01X6833098Y7459845D01*
G01X6830636Y7451898D01*
G01X6828583Y7443765D01*
G01X6825575Y7427073D01*
G01X6823814Y7410039D01*
G01X6823038Y7392931D01*
G01X6822989Y7376021D01*
G01X6672997Y7375000D01*
G01X6673327Y7382651D01*
G01X6674289Y7390325D01*
G01X6675843Y7397998D01*
G01X6677944Y7405647D01*
G01X6680551Y7413249D01*
G01X6683622Y7420780D01*
G01X6687115Y7428218D01*
G01X6690987Y7435539D01*
G01X6699701Y7449739D01*
G01X6709428Y7463195D01*
G01X6719829Y7475722D01*
G01X6730567Y7487135D01*
G37*
G36*
G01X7041997Y7205000D02*
G01X6961996Y7205000D01*
G01X6961603Y7216207D01*
G01X6960493Y7227278D01*
G01X6958766Y7238136D01*
G01X6956528Y7248705D01*
G01X6953879Y7258907D01*
G01X6950922Y7268666D01*
G01X6944496Y7286547D01*
G01X6938071Y7301735D01*
G01X6932465Y7313616D01*
G01X6928500Y7321575D01*
G01X6926997Y7325000D01*
G01X7076997Y7325000D01*
G01X7075493Y7321575D01*
G01X7071528Y7313616D01*
G01X7065922Y7301735D01*
G01X7059496Y7286547D01*
G01X7053071Y7268666D01*
G01X7050114Y7258907D01*
G01X7047465Y7248705D01*
G01X7045226Y7238136D01*
G01X7043500Y7227278D01*
G01X7042390Y7216207D01*
G01X7041997Y7205000D01*
G37*
G36*
G01X7295997Y7205997D02*
G01X7215996Y7205997D01*
G01X7215603Y7217111D01*
G01X7214493Y7228089D01*
G01X7212766Y7238856D01*
G01X7210528Y7249336D01*
G01X7207879Y7259452D01*
G01X7204922Y7269128D01*
G01X7198496Y7286859D01*
G01X7192071Y7301919D01*
G01X7186465Y7313701D01*
G01X7182500Y7321597D01*
G01X7180997Y7325000D01*
G01X7330997Y7325000D01*
G01X7329493Y7321597D01*
G01X7325528Y7313701D01*
G01X7319922Y7301919D01*
G01X7313496Y7286859D01*
G01X7307071Y7269128D01*
G01X7304114Y7259452D01*
G01X7301465Y7249336D01*
G01X7299226Y7238856D01*
G01X7297500Y7228089D01*
G01X7296390Y7217111D01*
G01X7295997Y7205997D01*
G37*
G36*
G01X7549997Y7229996D02*
G01X7469996Y7229996D01*
G03X7434997Y7250000I-35000J-20618D01*
G01X7584997Y7250000D01*
G03X7549997Y7229996I0J-40622D01*
G37*
G36*
G01X7985996Y7465996D02*
G01X8065997Y7465996D01*
G01X8066390Y7457505D01*
G01X8067500Y7449128D01*
G01X8069226Y7440921D01*
G01X8071465Y7432941D01*
G01X8074114Y7425242D01*
G01X8077071Y7417880D01*
G01X8083496Y7404389D01*
G01X8089922Y7392911D01*
G01X8095528Y7383892D01*
G01X8099493Y7377773D01*
G01X8100996Y7375000D01*
G01X7950996Y7375000D01*
G01X7952500Y7377773D01*
G01X7956465Y7383892D01*
G01X7962071Y7392911D01*
G01X7968496Y7404389D01*
G01X7974922Y7417880D01*
G01X7977879Y7425242D01*
G01X7980528Y7432941D01*
G01X7982766Y7440921D01*
G01X7984493Y7449128D01*
G01X7985603Y7457505D01*
G01X7985996Y7465996D01*
G37*
G36*
G01X8319997Y7205000D02*
G01X8239996Y7205000D01*
G01X8239603Y7216207D01*
G01X8238493Y7227278D01*
G01X8236766Y7238136D01*
G01X8234528Y7248705D01*
G01X8231879Y7258907D01*
G01X8228922Y7268666D01*
G01X8222496Y7286547D01*
G01X8216071Y7301735D01*
G01X8210465Y7313616D01*
G01X8206500Y7321575D01*
G01X8204996Y7325000D01*
G01X8354996Y7325000D01*
G01X8353493Y7321575D01*
G01X8349528Y7313616D01*
G01X8343922Y7301735D01*
G01X8337496Y7286547D01*
G01X8331071Y7268666D01*
G01X8328114Y7258907D01*
G01X8325465Y7248705D01*
G01X8323226Y7238136D01*
G01X8321500Y7227278D01*
G01X8320390Y7216207D01*
G01X8319997Y7205000D01*
G37*
G36*
G01X8573997Y7205000D02*
G01X8493996Y7205000D01*
G01X8493603Y7216207D01*
G01X8492493Y7227278D01*
G01X8490766Y7238136D01*
G01X8488528Y7248705D01*
G01X8485879Y7258907D01*
G01X8482922Y7268666D01*
G01X8476496Y7286547D01*
G01X8470071Y7301735D01*
G01X8464465Y7313616D01*
G01X8460500Y7321575D01*
G01X8458996Y7325000D01*
G01X8608996Y7325000D01*
G01X8607493Y7321575D01*
G01X8603528Y7313616D01*
G01X8597922Y7301735D01*
G01X8591496Y7286547D01*
G01X8585071Y7268666D01*
G01X8582114Y7258907D01*
G01X8579465Y7248705D01*
G01X8577226Y7238136D01*
G01X8575500Y7227278D01*
G01X8574390Y7216207D01*
G01X8573997Y7205000D01*
G37*
G36*
G01X8827997Y7147996D02*
G01X8747996Y7147996D01*
G03X8712996Y7250000I-166139J0D01*
G01X8862996Y7250000D01*
G03X8827997Y7147996I131139J-102003D01*
G37*
G36*
G01X9341997Y7205000D02*
G01X9261996Y7205000D01*
G01X9261603Y7216207D01*
G01X9260493Y7227278D01*
G01X9258766Y7238136D01*
G01X9256528Y7248705D01*
G01X9253879Y7258907D01*
G01X9250922Y7268666D01*
G01X9244496Y7286547D01*
G01X9238071Y7301735D01*
G01X9232465Y7313616D01*
G01X9228500Y7321575D01*
G01X9226996Y7325000D01*
G01X9376996Y7325000D01*
G01X9375493Y7321575D01*
G01X9371528Y7313616D01*
G01X9365922Y7301735D01*
G01X9359496Y7286547D01*
G01X9353071Y7268666D01*
G01X9350114Y7258907D01*
G01X9347465Y7248705D01*
G01X9345226Y7238136D01*
G01X9343500Y7227278D01*
G01X9342389Y7216207D01*
G01X9341997Y7205000D01*
G37*
G36*
G01X9595997Y7205000D02*
G01X9515996Y7205000D01*
G01X9515603Y7216207D01*
G01X9514493Y7227278D01*
G01X9512766Y7238136D01*
G01X9510528Y7248705D01*
G01X9507879Y7258907D01*
G01X9504922Y7268666D01*
G01X9498496Y7286547D01*
G01X9492071Y7301735D01*
G01X9486465Y7313616D01*
G01X9482500Y7321575D01*
G01X9480996Y7325000D01*
G01X9630996Y7325000D01*
G01X9629493Y7321575D01*
G01X9625528Y7313616D01*
G01X9619922Y7301735D01*
G01X9613496Y7286547D01*
G01X9607071Y7268666D01*
G01X9604114Y7258907D01*
G01X9601465Y7248705D01*
G01X9599226Y7238136D01*
G01X9597500Y7227278D01*
G01X9596389Y7216207D01*
G01X9595997Y7205000D01*
G37*
G36*
G01X9849997Y7205000D02*
G01X9769996Y7205000D01*
G01X9769603Y7216207D01*
G01X9768493Y7227278D01*
G01X9766766Y7238136D01*
G01X9764528Y7248705D01*
G01X9761879Y7258907D01*
G01X9758922Y7268666D01*
G01X9752496Y7286547D01*
G01X9746071Y7301735D01*
G01X9740465Y7313616D01*
G01X9736500Y7321575D01*
G01X9734996Y7325000D01*
G01X9884996Y7325000D01*
G01X9883493Y7321575D01*
G01X9879528Y7313616D01*
G01X9873922Y7301735D01*
G01X9867496Y7286547D01*
G01X9861071Y7268666D01*
G01X9858114Y7258907D01*
G01X9855465Y7248705D01*
G01X9853226Y7238136D01*
G01X9851500Y7227278D01*
G01X9850389Y7216207D01*
G01X9849997Y7205000D01*
G37*
G36*
G01X10181423Y7289142D02*
G01X10149854Y7207573D01*
G03X10022575Y7250000I-127279J-169706D01*
G01X10138996Y7416421D01*
G03X10181423Y7289142I212132J-0D01*
G37*
G36*
G01X10693134Y7243435D02*
G01X10611569Y7211862D01*
G01X10605433Y7217590D01*
G01X10599162Y7222721D01*
G01X10592788Y7227353D01*
G01X10586346Y7231583D01*
G01X10573392Y7239218D01*
G01X10560568Y7246397D01*
G01X10548144Y7253890D01*
G01X10542165Y7257995D01*
G01X10536388Y7262468D01*
G01X10530845Y7267404D01*
G01X10525570Y7272901D01*
G01X10520597Y7279053D01*
G01X10515959Y7285959D01*
G01X10644034Y7364041D01*
G01X10648770Y7355556D01*
G01X10652604Y7347265D01*
G01X10655683Y7339154D01*
G01X10658151Y7331209D01*
G01X10661839Y7315755D01*
G01X10664831Y7300787D01*
G01X10668293Y7286187D01*
G01X10670563Y7278990D01*
G01X10673387Y7271840D01*
G01X10676911Y7264725D01*
G01X10681280Y7257628D01*
G01X10686639Y7250537D01*
G01X10693134Y7243435D01*
G37*
G36*
G01X10948470Y7192937D02*
G01X10815986Y7212284D01*
G01X10805356Y7223655D01*
G01X10795060Y7236250D01*
G01X10785432Y7249845D01*
G01X10776806Y7264216D01*
G01X10772973Y7271622D01*
G01X10769515Y7279140D01*
G01X10766475Y7286740D01*
G01X10763894Y7294394D01*
G01X10761814Y7302075D01*
G01X10760276Y7309755D01*
G01X10759323Y7317406D01*
G01X10758997Y7325000D01*
G01X10908973Y7323147D01*
G01X10909072Y7306128D01*
G01X10910281Y7288531D01*
G01X10912735Y7270752D01*
G01X10914471Y7261917D01*
G01X10916571Y7253184D01*
G01X10919050Y7244604D01*
G01X10921926Y7236224D01*
G01X10925216Y7228095D01*
G01X10928936Y7220266D01*
G01X10933105Y7212787D01*
G01X10937739Y7205706D01*
G01X10942854Y7199073D01*
G01X10948470Y7192937D01*
G37*
G36*
G01X11127997Y7206842D02*
G01X11047996Y7206842D01*
G01X11047603Y7217877D01*
G01X11046493Y7228777D01*
G01X11044766Y7239467D01*
G01X11042528Y7249871D01*
G01X11039879Y7259914D01*
G01X11036922Y7269521D01*
G01X11030496Y7287123D01*
G01X11024071Y7302075D01*
G01X11018465Y7313774D01*
G01X11014500Y7321617D01*
G01X11012997Y7325000D01*
G01X11162996Y7325000D01*
G01X11161493Y7321617D01*
G01X11157528Y7313774D01*
G01X11151922Y7302075D01*
G01X11145496Y7287123D01*
G01X11139071Y7269521D01*
G01X11136114Y7259914D01*
G01X11133465Y7249871D01*
G01X11131226Y7239467D01*
G01X11129500Y7228777D01*
G01X11128389Y7217877D01*
G01X11127997Y7206842D01*
G37*
G36*
G01X11381997Y7160000D02*
G01X11301996Y7160000D01*
G03X11266997Y7250000I-133214J0D01*
G01X11416996Y7250000D01*
G03X11381997Y7160000I98214J-90000D01*
G37*
G36*
G01X9954000Y4261837D02*
G01X9984000Y4261837D01*
G01X9984505Y4256136D01*
G01X9985934Y4249993D01*
G01X9988153Y4243641D01*
G01X9991031Y4237311D01*
G01X9994437Y4231234D01*
G01X9998238Y4225642D01*
G01X10002303Y4220766D01*
G01X10006500Y4216837D01*
G01X9931500Y4216837D01*
G01X9935697Y4220766D01*
G01X9939762Y4225642D01*
G01X9943563Y4231234D01*
G01X9946969Y4237311D01*
G01X9949847Y4243641D01*
G01X9952066Y4249993D01*
G01X9953494Y4256136D01*
G01X9954000Y4261837D01*
G37*
G36*
G01X9984000Y4089000D02*
G01X9954000Y4089000D01*
G01X9953809Y4090297D01*
G01X9953264Y4091493D01*
G01X9951275Y4093619D01*
G01X9948364Y4095460D01*
G01X9944859Y4097094D01*
G01X9937389Y4100063D01*
G01X9934082Y4101556D01*
G01X9931500Y4103162D01*
G01X10006500Y4103162D01*
G01X10003918Y4101556D01*
G01X10000611Y4100063D01*
G01X9993141Y4097094D01*
G01X9989636Y4095460D01*
G01X9986725Y4093619D01*
G01X9984736Y4091493D01*
G01X9984191Y4090297D01*
G01X9984000Y4089000D01*
G37*
G36*
G01X9700000Y4261837D02*
G01X9730000Y4261837D01*
G01X9730505Y4256136D01*
G01X9731934Y4249993D01*
G01X9734153Y4243641D01*
G01X9737031Y4237311D01*
G01X9740437Y4231234D01*
G01X9744238Y4225642D01*
G01X9748303Y4220766D01*
G01X9752500Y4216837D01*
G01X9677500Y4216837D01*
G01X9681697Y4220766D01*
G01X9685762Y4225642D01*
G01X9689563Y4231234D01*
G01X9692969Y4237311D01*
G01X9695847Y4243641D01*
G01X9698066Y4249993D01*
G01X9699494Y4256136D01*
G01X9700000Y4261837D01*
G37*
G36*
G01X9446000Y4261837D02*
G01X9476000Y4261837D01*
G01X9476505Y4256136D01*
G01X9477934Y4249993D01*
G01X9480153Y4243641D01*
G01X9483031Y4237311D01*
G01X9486437Y4231234D01*
G01X9490238Y4225642D01*
G01X9494303Y4220766D01*
G01X9498500Y4216837D01*
G01X9423500Y4216837D01*
G01X9427697Y4220766D01*
G01X9431762Y4225642D01*
G01X9435563Y4231234D01*
G01X9438969Y4237311D01*
G01X9441847Y4243641D01*
G01X9444066Y4249993D01*
G01X9445494Y4256136D01*
G01X9446000Y4261837D01*
G37*
G36*
G01X9538426Y4103787D02*
G01X9523226Y4076560D01*
G01X9518675Y4080409D01*
G01X9513191Y4083886D01*
G01X9507022Y4086896D01*
G01X9500416Y4089342D01*
G01X9493621Y4091128D01*
G01X9486886Y4092157D01*
G01X9480458Y4092332D01*
G01X9474585Y4091558D01*
G01X9521000Y4150000D01*
G01X9521331Y4144299D01*
G01X9522292Y4138138D01*
G01X9523830Y4131736D01*
G01X9525896Y4125312D01*
G01X9528440Y4119086D01*
G01X9531410Y4113277D01*
G01X9534755Y4108104D01*
G01X9538426Y4103787D01*
G37*
G36*
G01X11998697Y3995909D02*
G01X12019910Y3974696D01*
G03X12004000Y3926966I63639J-47730D01*
G01X11950967Y3979999D01*
G03X11998697Y3995909I0J79549D01*
G37*
G36*
G01X11838333Y3640999D02*
G01X11838333Y3670999D01*
G01X11843250Y3671213D01*
G01X11847591Y3671834D01*
G01X11851428Y3672837D01*
G01X11854829Y3674194D01*
G01X11857867Y3675878D01*
G01X11860610Y3677861D01*
G01X11865496Y3682616D01*
G01X11870048Y3688244D01*
G01X11874831Y3694524D01*
G01X11880405Y3701240D01*
G01X11887333Y3708174D01*
G01X11887333Y3603824D01*
G01X11880405Y3610758D01*
G01X11874831Y3617475D01*
G01X11870048Y3623755D01*
G01X11865496Y3629382D01*
G01X11860610Y3634138D01*
G01X11857867Y3636121D01*
G01X11854829Y3637805D01*
G01X11851428Y3639161D01*
G01X11847591Y3640164D01*
G01X11843250Y3640786D01*
G01X11838333Y3640999D01*
G37*
G36*
G01X11737040Y3988252D02*
G01X11758253Y3967039D01*
G01X11754927Y3963412D01*
G01X11752297Y3959902D01*
G01X11750293Y3956481D01*
G01X11748847Y3953116D01*
G01X11747890Y3949777D01*
G01X11747353Y3946435D01*
G01X11747261Y3939618D01*
G01X11748021Y3932420D01*
G01X11749080Y3924597D01*
G01X11749888Y3915907D01*
G01X11749892Y3906104D01*
G01X11676105Y3979891D01*
G01X11685907Y3979887D01*
G01X11694598Y3979079D01*
G01X11702421Y3978020D01*
G01X11709619Y3977260D01*
G01X11716436Y3977352D01*
G01X11719778Y3977889D01*
G01X11723116Y3978847D01*
G01X11726481Y3980293D01*
G01X11729903Y3982296D01*
G01X11733413Y3984926D01*
G01X11737040Y3988252D01*
G37*
G36*
G01X11584333Y3640999D02*
G01X11584333Y3670999D01*
G01X11589250Y3671213D01*
G01X11593591Y3671834D01*
G01X11597428Y3672837D01*
G01X11600829Y3674194D01*
G01X11603867Y3675878D01*
G01X11606610Y3677861D01*
G01X11611496Y3682616D01*
G01X11616048Y3688244D01*
G01X11620831Y3694524D01*
G01X11626405Y3701240D01*
G01X11633333Y3708174D01*
G01X11633333Y3603824D01*
G01X11626405Y3610758D01*
G01X11620831Y3617475D01*
G01X11616048Y3623755D01*
G01X11611496Y3629382D01*
G01X11606610Y3634138D01*
G01X11603867Y3636121D01*
G01X11600829Y3637805D01*
G01X11597428Y3639161D01*
G01X11593591Y3640164D01*
G01X11589250Y3640786D01*
G01X11584333Y3640999D01*
G37*
G36*
G01X11775667Y3670999D02*
G01X11775667Y3640999D01*
G01X11770750Y3640786D01*
G01X11766409Y3640164D01*
G01X11762572Y3639161D01*
G01X11759171Y3637805D01*
G01X11756133Y3636121D01*
G01X11753390Y3634138D01*
G01X11748504Y3629382D01*
G01X11743952Y3623755D01*
G01X11739169Y3617475D01*
G01X11733595Y3610758D01*
G01X11726667Y3603824D01*
G01X11726667Y3708174D01*
G01X11733595Y3701240D01*
G01X11739169Y3694524D01*
G01X11743952Y3688244D01*
G01X11748504Y3682616D01*
G01X11753390Y3677861D01*
G01X11756133Y3675878D01*
G01X11759171Y3674194D01*
G01X11762572Y3672837D01*
G01X11766409Y3671834D01*
G01X11770750Y3671213D01*
G01X11775667Y3670999D01*
G37*
G36*
G01X11411000Y3986000D02*
G01X11441000Y3986000D01*
G01X11441315Y3983488D01*
G01X11442216Y3981163D01*
G01X11443634Y3979007D01*
G01X11445502Y3976997D01*
G01X11450312Y3973332D01*
G01X11456102Y3970002D01*
G01X11468445Y3963673D01*
G01X11473909Y3960338D01*
G01X11478175Y3956666D01*
G01X11373825Y3956666D01*
G01X11378091Y3960338D01*
G01X11383555Y3963673D01*
G01X11395898Y3970002D01*
G01X11401688Y3973332D01*
G01X11406498Y3976997D01*
G01X11408366Y3979007D01*
G01X11409784Y3981163D01*
G01X11410685Y3983488D01*
G01X11411000Y3986000D01*
G37*
G36*
G01X11521667Y3670999D02*
G01X11521667Y3640999D01*
G01X11516750Y3640786D01*
G01X11512409Y3640164D01*
G01X11508572Y3639161D01*
G01X11505171Y3637805D01*
G01X11502133Y3636121D01*
G01X11499390Y3634138D01*
G01X11494504Y3629382D01*
G01X11489952Y3623755D01*
G01X11485169Y3617475D01*
G01X11479595Y3610758D01*
G01X11472667Y3603824D01*
G01X11472667Y3708174D01*
G01X11479595Y3701240D01*
G01X11485169Y3694524D01*
G01X11489952Y3688244D01*
G01X11494504Y3682616D01*
G01X11499390Y3677861D01*
G01X11502133Y3675878D01*
G01X11505171Y3674194D01*
G01X11508572Y3672837D01*
G01X11512409Y3671834D01*
G01X11516750Y3671213D01*
G01X11521667Y3670999D01*
G37*
G36*
G01X933668Y6615090D02*
G01X1043224Y6441802D01*
G01X1037735Y6436577D01*
G01X1032352Y6431962D01*
G01X1021882Y6424392D01*
G01X1011771Y6418757D01*
G01X1001973Y6414720D01*
G01X992446Y6411946D01*
G01X983144Y6410098D01*
G01X965041Y6407836D01*
G01X956152Y6406750D01*
G01X947311Y6405246D01*
G01X938476Y6402987D01*
G01X929601Y6399638D01*
G01X920643Y6394862D01*
G01X911558Y6388324D01*
G01X906953Y6384288D01*
G01X902301Y6379687D01*
G01X897594Y6374476D01*
G01X892828Y6368614D01*
G01X867570Y6552495D01*
G01X873954Y6548390D01*
G01X879538Y6546107D01*
G01X884429Y6545485D01*
G01X886648Y6545747D01*
G01X888735Y6546363D01*
G01X892562Y6548578D01*
G01X896017Y6551969D01*
G01X899208Y6556376D01*
G01X902241Y6561636D01*
G01X908262Y6574073D01*
G01X914936Y6587988D01*
G01X918786Y6595097D01*
G01X923120Y6602091D01*
G01X928045Y6608809D01*
G01X933668Y6615090D01*
G37*
G36*
G01X11415833Y1845000D02*
G01X11415833Y1875000D01*
G01X11420698Y1874938D01*
G01X11425225Y1875137D01*
G01X11429431Y1876177D01*
G01X11431419Y1877192D01*
G01X11433333Y1878634D01*
G01X11433333Y1841366D01*
G01X11431419Y1842808D01*
G01X11429431Y1843824D01*
G01X11425225Y1844863D01*
G01X11420698Y1845062D01*
G01X11415833Y1845000D01*
G37*
G36*
G01X10754766Y2036452D02*
G01X10733553Y2015239D01*
G01X10730157Y2018723D01*
G01X10726815Y2021783D01*
G01X10723106Y2024022D01*
G01X10720982Y2024710D01*
G01X10718609Y2025044D01*
G01X10744961Y2051396D01*
G01X10745295Y2049023D01*
G01X10745983Y2046899D01*
G01X10748222Y2043190D01*
G01X10751282Y2039848D01*
G01X10754766Y2036452D01*
G37*
G36*
G01X10455834Y2445000D02*
G01X10455834Y2475000D01*
G01X10460698Y2474938D01*
G01X10465225Y2475137D01*
G01X10469431Y2476176D01*
G01X10471419Y2477192D01*
G01X10473333Y2478634D01*
G01X10473333Y2441366D01*
G01X10471419Y2442808D01*
G01X10469431Y2443823D01*
G01X10465225Y2444863D01*
G01X10460698Y2445062D01*
G01X10455834Y2445000D01*
G37*
G36*
G01X9599166Y2980000D02*
G01X9599166Y2950000D01*
G01X9594302Y2950062D01*
G01X9589775Y2949863D01*
G01X9585569Y2948824D01*
G01X9583581Y2947809D01*
G01X9581666Y2946366D01*
G01X9581666Y2983634D01*
G01X9583581Y2982192D01*
G01X9585569Y2981177D01*
G01X9589775Y2980138D01*
G01X9594302Y2979938D01*
G01X9599166Y2980000D01*
G37*
G36*
G01X11175000Y2184167D02*
G01X11205000Y2184167D01*
G01X11204938Y2179302D01*
G01X11205137Y2174775D01*
G01X11206176Y2170569D01*
G01X11207192Y2168581D01*
G01X11208634Y2166667D01*
G01X11171366Y2166667D01*
G01X11172808Y2168581D01*
G01X11173823Y2170569D01*
G01X11174863Y2174775D01*
G01X11175062Y2179302D01*
G01X11175000Y2184167D01*
G37*
G36*
G01X7326447Y5025234D02*
G01X7305234Y5046447D01*
G01X7308718Y5049843D01*
G01X7311778Y5053185D01*
G01X7314017Y5056894D01*
G01X7314705Y5059018D01*
G01X7315039Y5061391D01*
G01X7341391Y5035039D01*
G01X7339018Y5034705D01*
G01X7336894Y5034017D01*
G01X7333185Y5031778D01*
G01X7329843Y5028718D01*
G01X7326447Y5025234D01*
G37*
G36*
G01X7634167Y5095001D02*
G01X7634167Y5065001D01*
G01X7629302Y5065063D01*
G01X7624775Y5064863D01*
G01X7620569Y5063824D01*
G01X7618581Y5062809D01*
G01X7616667Y5061367D01*
G01X7616667Y5098635D01*
G01X7618581Y5097192D01*
G01X7620569Y5096177D01*
G01X7624775Y5095138D01*
G01X7629302Y5094939D01*
G01X7634167Y5095001D01*
G37*
G36*
G01X8736447Y5025234D02*
G01X8715234Y5046447D01*
G01X8718718Y5049843D01*
G01X8721778Y5053185D01*
G01X8724017Y5056894D01*
G01X8724705Y5059018D01*
G01X8725039Y5061391D01*
G01X8751391Y5035039D01*
G01X8749018Y5034705D01*
G01X8746894Y5034017D01*
G01X8743185Y5031778D01*
G01X8739843Y5028718D01*
G01X8736447Y5025234D01*
G37*
G36*
G01X10275000Y5135834D02*
G01X10245000Y5135834D01*
G01X10245062Y5140698D01*
G01X10244863Y5145225D01*
G01X10243824Y5149431D01*
G01X10242808Y5151419D01*
G01X10241366Y5153333D01*
G01X10278634Y5153333D01*
G01X10277192Y5151419D01*
G01X10276177Y5149431D01*
G01X10275137Y5145225D01*
G01X10274938Y5140698D01*
G01X10275000Y5135834D01*
G37*
G36*
G01X10043553Y5014766D02*
G01X10064766Y4993553D01*
G01X10061282Y4990157D01*
G01X10058222Y4986815D01*
G01X10055983Y4983106D01*
G01X10055295Y4980982D01*
G01X10054961Y4978609D01*
G01X10028609Y5004961D01*
G01X10030982Y5005295D01*
G01X10033106Y5005983D01*
G01X10036815Y5008222D01*
G01X10040157Y5011282D01*
G01X10043553Y5014766D01*
G37*
G36*
G01X11556447Y5015234D02*
G01X11535234Y5036447D01*
G01X11538718Y5039843D01*
G01X11541778Y5043185D01*
G01X11544017Y5046894D01*
G01X11544705Y5049018D01*
G01X11545039Y5051391D01*
G01X11571391Y5025039D01*
G01X11569018Y5024705D01*
G01X11566894Y5024017D01*
G01X11563185Y5021778D01*
G01X11559843Y5018718D01*
G01X11556447Y5015234D01*
G37*
G36*
G01X11474167Y4995000D02*
G01X11474167Y4965000D01*
G01X11469302Y4965062D01*
G01X11464775Y4964863D01*
G01X11460569Y4963823D01*
G01X11458581Y4962808D01*
G01X11456667Y4961366D01*
G01X11456667Y4998634D01*
G01X11458581Y4997192D01*
G01X11460569Y4996176D01*
G01X11464775Y4995137D01*
G01X11469302Y4994938D01*
G01X11474167Y4995000D01*
G37*
G36*
G01X9034167Y5105000D02*
G01X9034167Y5075000D01*
G01X9029302Y5075062D01*
G01X9024775Y5074863D01*
G01X9020569Y5073823D01*
G01X9018581Y5072808D01*
G01X9016667Y5071366D01*
G01X9016667Y5108634D01*
G01X9018581Y5107192D01*
G01X9020569Y5106176D01*
G01X9024775Y5105137D01*
G01X9029302Y5104938D01*
G01X9034167Y5105000D01*
G37*
G36*
G01X10444766Y5096447D02*
G01X10423553Y5075234D01*
G01X10420157Y5078718D01*
G01X10416815Y5081778D01*
G01X10413106Y5084017D01*
G01X10410982Y5084705D01*
G01X10408609Y5085039D01*
G01X10434961Y5111391D01*
G01X10435295Y5109018D01*
G01X10435983Y5106894D01*
G01X10438222Y5103185D01*
G01X10441282Y5099843D01*
G01X10444766Y5096447D01*
G37*
G36*
G01X11946447Y5045234D02*
G01X11925234Y5066447D01*
G01X11928718Y5069843D01*
G01X11931778Y5073185D01*
G01X11934017Y5076894D01*
G01X11934705Y5079018D01*
G01X11935039Y5081391D01*
G01X11961391Y5055039D01*
G01X11959018Y5054705D01*
G01X11956894Y5054017D01*
G01X11953185Y5051778D01*
G01X11949843Y5048718D01*
G01X11946447Y5045234D01*
G37*
G36*
G01X7395000Y4580968D02*
G01X7425000Y4567500D01*
G01X7424558Y4562702D01*
G01X7423723Y4557471D01*
G01X7423225Y4552295D01*
G01X7423332Y4549878D01*
G01X7423799Y4547655D01*
G01X7391382Y4563468D01*
G01X7393717Y4564688D01*
G01X7395150Y4566241D01*
G01X7395863Y4568098D01*
G01X7396038Y4570231D01*
G01X7395502Y4575214D01*
G01X7395000Y4580968D01*
G37*
G36*
G01X7386447Y4505234D02*
G01X7365234Y4526447D01*
G01X7368718Y4529843D01*
G01X7371778Y4533185D01*
G01X7374017Y4536894D01*
G01X7374705Y4539018D01*
G01X7375039Y4541391D01*
G01X7401391Y4515039D01*
G01X7399018Y4514705D01*
G01X7396894Y4514017D01*
G01X7393185Y4511778D01*
G01X7389843Y4508718D01*
G01X7386447Y4505234D01*
G37*
G36*
G01X11675000Y4955833D02*
G01X11645000Y4955833D01*
G01X11645062Y4960698D01*
G01X11644863Y4965225D01*
G01X11643824Y4969431D01*
G01X11642808Y4971419D01*
G01X11641366Y4973333D01*
G01X11678634Y4973333D01*
G01X11677192Y4971419D01*
G01X11676177Y4969431D01*
G01X11675137Y4965225D01*
G01X11674938Y4960698D01*
G01X11675000Y4955833D01*
G37*
G36*
G01X10256447Y4955234D02*
G01X10235234Y4976447D01*
G01X10238718Y4979843D01*
G01X10241778Y4983185D01*
G01X10244017Y4986894D01*
G01X10244705Y4989018D01*
G01X10245039Y4991391D01*
G01X10271391Y4965039D01*
G01X10269018Y4964705D01*
G01X10266894Y4964017D01*
G01X10263185Y4961778D01*
G01X10259843Y4958718D01*
G01X10256447Y4955234D01*
G37*
G36*
G01X8833000Y4964396D02*
G01X8803000Y4967378D01*
G01X8803097Y4976650D01*
G01X8802291Y4980808D01*
G01X8801405Y4982843D01*
G01X8800092Y4984878D01*
G01X8837240Y4981896D01*
G01X8835659Y4980087D01*
G01X8834522Y4978150D01*
G01X8833292Y4973929D01*
G01X8832977Y4969317D01*
G01X8833000Y4964396D01*
G37*
G36*
G01X7425000Y4965833D02*
G01X7395000Y4965833D01*
G01X7395062Y4970698D01*
G01X7394863Y4975225D01*
G01X7393823Y4979431D01*
G01X7392808Y4981419D01*
G01X7391366Y4983333D01*
G01X7428634Y4983333D01*
G01X7427192Y4981419D01*
G01X7426176Y4979431D01*
G01X7425137Y4975225D01*
G01X7424938Y4970698D01*
G01X7425000Y4965833D01*
G37*
G36*
G01X9366447Y4562234D02*
G01X9345234Y4583447D01*
G01X9348718Y4586843D01*
G01X9351778Y4590185D01*
G01X9354017Y4593894D01*
G01X9354705Y4596018D01*
G01X9355039Y4598391D01*
G01X9381391Y4572039D01*
G01X9379018Y4571705D01*
G01X9376894Y4571017D01*
G01X9373185Y4568778D01*
G01X9369843Y4565718D01*
G01X9366447Y4562234D01*
G37*
G36*
G01X7956447Y4445234D02*
G01X7935234Y4466447D01*
G01X7938718Y4469843D01*
G01X7941778Y4473185D01*
G01X7944017Y4476894D01*
G01X7944705Y4479018D01*
G01X7945039Y4481391D01*
G01X7971391Y4455039D01*
G01X7969018Y4454705D01*
G01X7966894Y4454017D01*
G01X7963185Y4451778D01*
G01X7959843Y4448718D01*
G01X7956447Y4445234D01*
G37*
G36*
G01X7915000Y4124167D02*
G01X7945000Y4124167D01*
G01X7944938Y4119302D01*
G01X7945137Y4114775D01*
G01X7946176Y4110569D01*
G01X7947192Y4108581D01*
G01X7948634Y4106667D01*
G01X7911366Y4106667D01*
G01X7912808Y4108581D01*
G01X7913823Y4110569D01*
G01X7914863Y4114775D01*
G01X7915062Y4119302D01*
G01X7915000Y4124167D01*
G37*
G36*
G01X10766447Y4427234D02*
G01X10745234Y4448447D01*
G01X10748718Y4451843D01*
G01X10751778Y4455185D01*
G01X10754017Y4458894D01*
G01X10754705Y4461017D01*
G01X10755039Y4463391D01*
G01X10781391Y4437038D01*
G01X10779018Y4436705D01*
G01X10776894Y4436017D01*
G01X10773185Y4433778D01*
G01X10769843Y4430717D01*
G01X10766447Y4427234D01*
G37*
G36*
G01X10735000Y4124167D02*
G01X10765000Y4124167D01*
G01X10764938Y4119302D01*
G01X10765137Y4114775D01*
G01X10766177Y4110569D01*
G01X10767192Y4108581D01*
G01X10768634Y4106667D01*
G01X10731366Y4106667D01*
G01X10732808Y4108581D01*
G01X10733824Y4110569D01*
G01X10734863Y4114775D01*
G01X10735062Y4119302D01*
G01X10735000Y4124167D01*
G37*
G36*
G01X10871000Y4118166D02*
G01X10901000Y4118166D01*
G01X10900938Y4113302D01*
G01X10901138Y4108775D01*
G01X10902177Y4104569D01*
G01X10903192Y4102581D01*
G01X10904634Y4100666D01*
G01X10867366Y4100666D01*
G01X10868809Y4102581D01*
G01X10869824Y4104569D01*
G01X10870863Y4108775D01*
G01X10871062Y4113302D01*
G01X10871000Y4118166D01*
G37*
G36*
G01X6665000Y6045833D02*
G01X6635000Y6045833D01*
G01X6635062Y6050698D01*
G01X6634863Y6055225D01*
G01X6633823Y6059431D01*
G01X6632808Y6061419D01*
G01X6631366Y6063333D01*
G01X6668634Y6063333D01*
G01X6667192Y6061419D01*
G01X6666176Y6059431D01*
G01X6665137Y6055225D01*
G01X6664938Y6050698D01*
G01X6665000Y6045833D01*
G37*
G36*
G01X6725000Y5504167D02*
G01X6755000Y5504167D01*
G01X6754938Y5499302D01*
G01X6755137Y5494775D01*
G01X6756176Y5490569D01*
G01X6757192Y5488581D01*
G01X6758634Y5486667D01*
G01X6721366Y5486667D01*
G01X6722808Y5488581D01*
G01X6723823Y5490569D01*
G01X6724863Y5494775D01*
G01X6725062Y5499302D01*
G01X6725000Y5504167D01*
G37*
G36*
G01X8133000Y5437500D02*
G01X8163000Y5450968D01*
G01X8162498Y5445214D01*
G01X8161962Y5440231D01*
G01X8162137Y5438098D01*
G01X8162850Y5436241D01*
G01X8164283Y5434688D01*
G01X8166617Y5433468D01*
G01X8134201Y5417655D01*
G01X8134667Y5419878D01*
G01X8134774Y5422295D01*
G01X8134277Y5427471D01*
G01X8133441Y5432702D01*
G01X8133000Y5437500D01*
G37*
G36*
G01X8073000Y6045833D02*
G01X8043000Y6045833D01*
G01X8043062Y6050698D01*
G01X8042862Y6055225D01*
G01X8041823Y6059431D01*
G01X8040808Y6061419D01*
G01X8039366Y6063333D01*
G01X8076634Y6063333D01*
G01X8075191Y6061419D01*
G01X8074176Y6059431D01*
G01X8073137Y6055225D01*
G01X8072938Y6050698D01*
G01X8073000Y6045833D01*
G37*
G36*
G01X9540999Y5504167D02*
G01X9570999Y5504167D01*
G01X9570937Y5499302D01*
G01X9571137Y5494775D01*
G01X9572176Y5490569D01*
G01X9573191Y5488581D01*
G01X9574633Y5486667D01*
G01X9537365Y5486667D01*
G01X9538808Y5488581D01*
G01X9539823Y5490569D01*
G01X9540862Y5494775D01*
G01X9541061Y5499302D01*
G01X9540999Y5504167D01*
G37*
G36*
G01X9480999Y6045833D02*
G01X9450999Y6045833D01*
G01X9451061Y6050698D01*
G01X9450862Y6055225D01*
G01X9449823Y6059431D01*
G01X9448808Y6061419D01*
G01X9447365Y6063333D01*
G01X9484633Y6063333D01*
G01X9483191Y6061419D01*
G01X9482176Y6059431D01*
G01X9481137Y6055225D01*
G01X9480937Y6050698D01*
G01X9480999Y6045833D01*
G37*
G36*
G01X10888999Y6045833D02*
G01X10858999Y6045833D01*
G01X10859061Y6050698D01*
G01X10858862Y6055225D01*
G01X10857823Y6059431D01*
G01X10856807Y6061419D01*
G01X10855365Y6063333D01*
G01X10892633Y6063333D01*
G01X10891191Y6061419D01*
G01X10890176Y6059431D01*
G01X10889136Y6055225D01*
G01X10888937Y6050698D01*
G01X10888999Y6045833D01*
G37*
G36*
G01X10948999Y5464167D02*
G01X10978999Y5464167D01*
G01X10978937Y5459302D01*
G01X10979137Y5454775D01*
G01X10980176Y5450569D01*
G01X10981191Y5448581D01*
G01X10982633Y5446667D01*
G01X10945365Y5446667D01*
G01X10946807Y5448581D01*
G01X10947823Y5450569D01*
G01X10948862Y5454775D01*
G01X10949061Y5459302D01*
G01X10948999Y5464167D01*
G37*
G36*
G01X7184205Y5034961D02*
G01X7184205Y5004962D01*
G01X7179340Y5005024D01*
G01X7174814Y5004824D01*
G01X7170607Y5003785D01*
G01X7168619Y5002770D01*
G01X7166705Y5001328D01*
G01X7166705Y5038595D01*
G01X7168619Y5037153D01*
G01X7170607Y5036138D01*
G01X7174814Y5035099D01*
G01X7179340Y5034900D01*
G01X7184205Y5034961D01*
G37*
G36*
G01X7484167Y5205001D02*
G01X7484167Y5175001D01*
G01X7479302Y5175063D01*
G01X7474775Y5174863D01*
G01X7470569Y5173824D01*
G01X7468581Y5172809D01*
G01X7466667Y5171367D01*
G01X7466667Y5208634D01*
G01X7468581Y5207192D01*
G01X7470569Y5206177D01*
G01X7474775Y5205138D01*
G01X7479302Y5204939D01*
G01X7484167Y5205001D01*
G37*
G36*
G01X8630138Y5019028D02*
G01X8630138Y4989028D01*
G01X8625274Y4989090D01*
G01X8620747Y4988891D01*
G01X8616541Y4987852D01*
G01X8614553Y4986836D01*
G01X8612639Y4985394D01*
G01X8612639Y5022662D01*
G01X8614553Y5021220D01*
G01X8616541Y5020205D01*
G01X8620747Y5019165D01*
G01X8625274Y5018966D01*
G01X8630138Y5019028D01*
G37*
G36*
G01X8894167Y5175000D02*
G01X8894167Y5145000D01*
G01X8889302Y5145062D01*
G01X8884775Y5144863D01*
G01X8880569Y5143824D01*
G01X8878581Y5142808D01*
G01X8876667Y5141366D01*
G01X8876667Y5178634D01*
G01X8878581Y5177192D01*
G01X8880569Y5176177D01*
G01X8884775Y5175137D01*
G01X8889302Y5174938D01*
G01X8894167Y5175000D01*
G37*
G36*
G01X10125000Y5075833D02*
G01X10095000Y5075833D01*
G01X10095062Y5080698D01*
G01X10094863Y5085225D01*
G01X10093824Y5089431D01*
G01X10092808Y5091419D01*
G01X10091366Y5093333D01*
G01X10128634Y5093333D01*
G01X10127192Y5091419D01*
G01X10126177Y5089431D01*
G01X10125137Y5085225D01*
G01X10124938Y5080698D01*
G01X10125000Y5075833D01*
G37*
G36*
G01X10124766Y4356447D02*
G01X10103553Y4335234D01*
G01X10100157Y4338718D01*
G01X10096815Y4341778D01*
G01X10093106Y4344017D01*
G01X10090982Y4344705D01*
G01X10088609Y4345039D01*
G01X10114961Y4371391D01*
G01X10115295Y4369018D01*
G01X10115983Y4366894D01*
G01X10118222Y4363185D01*
G01X10121282Y4359843D01*
G01X10124766Y4356447D01*
G37*
G36*
G01X11774766Y5046447D02*
G01X11753553Y5025234D01*
G01X11750157Y5028718D01*
G01X11746815Y5031778D01*
G01X11743106Y5034017D01*
G01X11740982Y5034705D01*
G01X11738609Y5035039D01*
G01X11764961Y5061391D01*
G01X11765295Y5059018D01*
G01X11765983Y5056894D01*
G01X11768222Y5053185D01*
G01X11771282Y5049843D01*
G01X11774766Y5046447D01*
G37*
G36*
G01X7044167Y5175000D02*
G01X7044167Y5145000D01*
G01X7039302Y5145062D01*
G01X7034775Y5144863D01*
G01X7030569Y5143824D01*
G01X7028581Y5142808D01*
G01X7026667Y5141366D01*
G01X7026667Y5178634D01*
G01X7028581Y5177192D01*
G01X7030569Y5176177D01*
G01X7034775Y5175137D01*
G01X7039302Y5174938D01*
G01X7044167Y5175000D01*
G37*
G36*
G01X6974167Y5245000D02*
G01X6974167Y5215000D01*
G01X6969302Y5215062D01*
G01X6964775Y5214863D01*
G01X6960569Y5213823D01*
G01X6958581Y5212808D01*
G01X6956667Y5211366D01*
G01X6956667Y5248634D01*
G01X6958581Y5247192D01*
G01X6960569Y5246176D01*
G01X6964775Y5245137D01*
G01X6969302Y5244938D01*
G01X6974167Y5245000D01*
G37*
G36*
G01X7114167Y5105000D02*
G01X7114167Y5075000D01*
G01X7109302Y5075062D01*
G01X7104775Y5074863D01*
G01X7100569Y5073823D01*
G01X7098581Y5072808D01*
G01X7096667Y5071366D01*
G01X7096667Y5108634D01*
G01X7098581Y5107192D01*
G01X7100569Y5106176D01*
G01X7104775Y5105137D01*
G01X7109302Y5104938D01*
G01X7114167Y5105000D01*
G37*
G36*
G01X8453833Y5075000D02*
G01X8453833Y5105000D01*
G01X8458698Y5104938D01*
G01X8463225Y5105137D01*
G01X8467431Y5106176D01*
G01X8469419Y5107192D01*
G01X8471333Y5108634D01*
G01X8471333Y5071366D01*
G01X8469419Y5072808D01*
G01X8467431Y5073823D01*
G01X8463225Y5074863D01*
G01X8458698Y5075062D01*
G01X8453833Y5075000D01*
G37*
G36*
G01X8522166Y5105000D02*
G01X8522166Y5075000D01*
G01X8517302Y5075062D01*
G01X8512775Y5074863D01*
G01X8508569Y5073823D01*
G01X8506581Y5072808D01*
G01X8504667Y5071366D01*
G01X8504667Y5108634D01*
G01X8506581Y5107192D01*
G01X8508569Y5106176D01*
G01X8512775Y5105137D01*
G01X8517302Y5104938D01*
G01X8522166Y5105000D01*
G37*
G36*
G01X8382166Y5245000D02*
G01X8382166Y5215000D01*
G01X8377302Y5215062D01*
G01X8372775Y5214863D01*
G01X8368569Y5213823D01*
G01X8366581Y5212808D01*
G01X8364667Y5211366D01*
G01X8364667Y5248634D01*
G01X8366581Y5247192D01*
G01X8368569Y5246176D01*
G01X8372775Y5245137D01*
G01X8377302Y5244938D01*
G01X8382166Y5245000D01*
G37*
G36*
G01X8313833Y5215000D02*
G01X8313833Y5245000D01*
G01X8318698Y5244938D01*
G01X8323225Y5245137D01*
G01X8327431Y5246176D01*
G01X8329419Y5247192D01*
G01X8331333Y5248634D01*
G01X8331333Y5211366D01*
G01X8329419Y5212808D01*
G01X8327431Y5213823D01*
G01X8323225Y5214863D01*
G01X8318698Y5215062D01*
G01X8313833Y5215000D01*
G37*
G36*
G01X8383833Y5145000D02*
G01X8383833Y5175000D01*
G01X8388698Y5174938D01*
G01X8393225Y5175137D01*
G01X8397431Y5176177D01*
G01X8399419Y5177192D01*
G01X8401333Y5178634D01*
G01X8401333Y5141366D01*
G01X8399419Y5142808D01*
G01X8397431Y5143824D01*
G01X8393225Y5144863D01*
G01X8388698Y5145062D01*
G01X8383833Y5145000D01*
G37*
G36*
G01X8452166Y5175000D02*
G01X8452166Y5145000D01*
G01X8447302Y5145062D01*
G01X8442775Y5144863D01*
G01X8438569Y5143824D01*
G01X8436581Y5142808D01*
G01X8434666Y5141366D01*
G01X8434666Y5178634D01*
G01X8436581Y5177192D01*
G01X8438569Y5176177D01*
G01X8442775Y5175137D01*
G01X8447302Y5174938D01*
G01X8452166Y5175000D01*
G37*
G36*
G01X9930166Y5105000D02*
G01X9930166Y5075000D01*
G01X9925301Y5075062D01*
G01X9920775Y5074863D01*
G01X9916568Y5073823D01*
G01X9914580Y5072808D01*
G01X9912666Y5071366D01*
G01X9912666Y5108634D01*
G01X9914580Y5107192D01*
G01X9916568Y5106176D01*
G01X9920775Y5105137D01*
G01X9925301Y5104938D01*
G01X9930166Y5105000D01*
G37*
G36*
G01X9861833Y5075000D02*
G01X9861833Y5105000D01*
G01X9866698Y5104938D01*
G01X9871224Y5105137D01*
G01X9875431Y5106176D01*
G01X9877419Y5107192D01*
G01X9879333Y5108634D01*
G01X9879333Y5071366D01*
G01X9877419Y5072808D01*
G01X9875431Y5073823D01*
G01X9871224Y5074863D01*
G01X9866698Y5075062D01*
G01X9861833Y5075000D01*
G37*
G36*
G01X9721833Y5215000D02*
G01X9721833Y5245000D01*
G01X9726698Y5244938D01*
G01X9731224Y5245137D01*
G01X9735431Y5246176D01*
G01X9737419Y5247192D01*
G01X9739333Y5248634D01*
G01X9739333Y5211366D01*
G01X9737419Y5212808D01*
G01X9735431Y5213823D01*
G01X9731224Y5214863D01*
G01X9726698Y5215062D01*
G01X9721833Y5215000D01*
G37*
G36*
G01X9791833Y5145000D02*
G01X9791833Y5175000D01*
G01X9796697Y5174938D01*
G01X9801224Y5175137D01*
G01X9805430Y5176177D01*
G01X9807419Y5177192D01*
G01X9809333Y5178634D01*
G01X9809333Y5141366D01*
G01X9807419Y5142808D01*
G01X9805430Y5143824D01*
G01X9801224Y5144863D01*
G01X9796697Y5145062D01*
G01X9791833Y5145000D01*
G37*
G36*
G01X9860166Y5175000D02*
G01X9860166Y5145000D01*
G01X9855301Y5145062D01*
G01X9850775Y5144863D01*
G01X9846568Y5143824D01*
G01X9844580Y5142808D01*
G01X9842666Y5141366D01*
G01X9842666Y5178634D01*
G01X9844580Y5177192D01*
G01X9846568Y5176177D01*
G01X9850775Y5175137D01*
G01X9855301Y5174938D01*
G01X9860166Y5175000D01*
G37*
G36*
G01X11338166Y5105000D02*
G01X11338166Y5075000D01*
G01X11333301Y5075062D01*
G01X11328774Y5074863D01*
G01X11324568Y5073823D01*
G01X11322580Y5072808D01*
G01X11320666Y5071366D01*
G01X11320666Y5108634D01*
G01X11322580Y5107192D01*
G01X11324568Y5106176D01*
G01X11328774Y5105137D01*
G01X11333301Y5104938D01*
G01X11338166Y5105000D01*
G37*
G36*
G01X11198166Y5245000D02*
G01X11198166Y5215000D01*
G01X11193301Y5215062D01*
G01X11188774Y5214863D01*
G01X11184568Y5213823D01*
G01X11182580Y5212808D01*
G01X11180666Y5211366D01*
G01X11180666Y5248634D01*
G01X11182580Y5247192D01*
G01X11184568Y5246176D01*
G01X11188774Y5245137D01*
G01X11193301Y5244938D01*
G01X11198166Y5245000D01*
G37*
G36*
G01X11268166Y5175000D02*
G01X11268166Y5145000D01*
G01X11263301Y5145062D01*
G01X11258774Y5144863D01*
G01X11254568Y5143824D01*
G01X11252580Y5142808D01*
G01X11250666Y5141366D01*
G01X11250666Y5178634D01*
G01X11252580Y5177192D01*
G01X11254568Y5176177D01*
G01X11258774Y5175137D01*
G01X11263301Y5174938D01*
G01X11268166Y5175000D01*
G37*
G36*
G01X9833553Y3974766D02*
G01X9854766Y3953553D01*
G01X9851282Y3950157D01*
G01X9848222Y3946815D01*
G01X9845983Y3943106D01*
G01X9845295Y3940982D01*
G01X9844961Y3938609D01*
G01X9818609Y3964961D01*
G01X9820982Y3965295D01*
G01X9823106Y3965983D01*
G01X9826815Y3968222D01*
G01X9830157Y3971282D01*
G01X9833553Y3974766D01*
G37*
G36*
G01X9575000Y3904166D02*
G01X9605000Y3904166D01*
G01X9604938Y3899302D01*
G01X9605138Y3894775D01*
G01X9606177Y3890569D01*
G01X9607192Y3888581D01*
G01X9608634Y3886667D01*
G01X9571366Y3886667D01*
G01X9572808Y3888581D01*
G01X9573824Y3890569D01*
G01X9574863Y3894775D01*
G01X9575062Y3899302D01*
G01X9575000Y3904166D01*
G37*
G36*
G01X9335000Y4053783D02*
G01X9305000Y4053783D01*
G01X9304878Y4058780D01*
G01X9304279Y4063690D01*
G01X9302852Y4068284D01*
G01X9301719Y4070391D01*
G01X9300248Y4072333D01*
G01X9339752Y4072333D01*
G01X9338281Y4070391D01*
G01X9337148Y4068284D01*
G01X9335721Y4063690D01*
G01X9335122Y4058780D01*
G01X9335000Y4053783D01*
G37*
G36*
G01X9305000Y4126217D02*
G01X9335000Y4126217D01*
G01X9335122Y4121220D01*
G01X9335721Y4116310D01*
G01X9337148Y4111715D01*
G01X9338281Y4109608D01*
G01X9339752Y4107667D01*
G01X9300248Y4107667D01*
G01X9301719Y4109608D01*
G01X9302852Y4111715D01*
G01X9304279Y4116310D01*
G01X9304878Y4121220D01*
G01X9305000Y4126217D01*
G37*
G36*
G01X8545000Y4054167D02*
G01X8575000Y4054167D01*
G01X8574938Y4049302D01*
G01X8575137Y4044775D01*
G01X8576176Y4040569D01*
G01X8577192Y4038581D01*
G01X8578634Y4036667D01*
G01X8541366Y4036667D01*
G01X8542808Y4038581D01*
G01X8543823Y4040569D01*
G01X8544863Y4044775D01*
G01X8545062Y4049302D01*
G01X8545000Y4054167D01*
G37*
G36*
G01X8095234Y4033553D02*
G01X8116447Y4054766D01*
G01X8119843Y4051282D01*
G01X8123185Y4048222D01*
G01X8126894Y4045983D01*
G01X8129018Y4045295D01*
G01X8131391Y4044961D01*
G01X8105039Y4018609D01*
G01X8104705Y4020982D01*
G01X8104017Y4023106D01*
G01X8101778Y4026815D01*
G01X8098718Y4030157D01*
G01X8095234Y4033553D01*
G37*
G36*
G01X9345234Y3783553D02*
G01X9366447Y3804766D01*
G01X9369843Y3801282D01*
G01X9373185Y3798222D01*
G01X9376894Y3795983D01*
G01X9379018Y3795295D01*
G01X9381391Y3794961D01*
G01X9355039Y3768609D01*
G01X9354705Y3770982D01*
G01X9354017Y3773106D01*
G01X9351778Y3776815D01*
G01X9348718Y3780157D01*
G01X9345234Y3783553D01*
G37*
G36*
G01X7773794Y3125000D02*
G01X7773794Y3155000D01*
G01X7778791Y3155122D01*
G01X7783701Y3155721D01*
G01X7788295Y3157148D01*
G01X7790402Y3158281D01*
G01X7792344Y3159752D01*
G01X7792344Y3120248D01*
G01X7790402Y3121719D01*
G01X7788295Y3122852D01*
G01X7783701Y3124279D01*
G01X7778791Y3124878D01*
G01X7773794Y3125000D01*
G37*
G36*
G01X7644167Y3055000D02*
G01X7644167Y3025000D01*
G01X7639302Y3025062D01*
G01X7634775Y3024863D01*
G01X7630569Y3023824D01*
G01X7628581Y3022808D01*
G01X7626667Y3021366D01*
G01X7626667Y3058634D01*
G01X7628581Y3057192D01*
G01X7630569Y3056177D01*
G01X7634775Y3055137D01*
G01X7639302Y3054938D01*
G01X7644167Y3055000D01*
G37*
G36*
G01X7623553Y2464766D02*
G01X7644766Y2443553D01*
G01X7641282Y2440157D01*
G01X7638222Y2436815D01*
G01X7635983Y2433106D01*
G01X7635295Y2430982D01*
G01X7634961Y2428609D01*
G01X7608609Y2454961D01*
G01X7610982Y2455295D01*
G01X7613106Y2455983D01*
G01X7616815Y2458222D01*
G01X7620157Y2461282D01*
G01X7623553Y2464766D01*
G37*
G36*
G01X7575833Y2615000D02*
G01X7575833Y2645000D01*
G01X7580698Y2644938D01*
G01X7585225Y2645137D01*
G01X7589431Y2646177D01*
G01X7591419Y2647192D01*
G01X7593333Y2648634D01*
G01X7593333Y2611366D01*
G01X7591419Y2612808D01*
G01X7589431Y2613824D01*
G01X7585225Y2614863D01*
G01X7580698Y2615062D01*
G01X7575833Y2615000D01*
G37*
G36*
G01X8095833Y3025000D02*
G01X8095833Y3055000D01*
G01X8100698Y3054938D01*
G01X8105225Y3055137D01*
G01X8109431Y3056177D01*
G01X8111419Y3057192D01*
G01X8113333Y3058634D01*
G01X8113333Y3021366D01*
G01X8111419Y3022808D01*
G01X8109431Y3023824D01*
G01X8105225Y3024863D01*
G01X8100698Y3025062D01*
G01X8095833Y3025000D01*
G37*
G36*
G01X8095833Y2925000D02*
G01X8095833Y2955000D01*
G01X8100698Y2954938D01*
G01X8105225Y2955137D01*
G01X8109431Y2956176D01*
G01X8111419Y2957192D01*
G01X8113333Y2958634D01*
G01X8113333Y2921366D01*
G01X8111419Y2922808D01*
G01X8109431Y2923823D01*
G01X8105225Y2924863D01*
G01X8100698Y2925062D01*
G01X8095833Y2925000D01*
G37*
G36*
G01X9084766Y2326447D02*
G01X9063553Y2305234D01*
G01X9060157Y2308718D01*
G01X9056815Y2311778D01*
G01X9053106Y2314017D01*
G01X9050982Y2314705D01*
G01X9048609Y2315039D01*
G01X9074961Y2341391D01*
G01X9075295Y2339018D01*
G01X9075983Y2336894D01*
G01X9078222Y2333185D01*
G01X9081282Y2329843D01*
G01X9084766Y2326447D01*
G37*
G36*
G01X9015833Y2325000D02*
G01X9015833Y2355000D01*
G01X9020698Y2354938D01*
G01X9025225Y2355137D01*
G01X9029431Y2356176D01*
G01X9031419Y2357192D01*
G01X9033333Y2358634D01*
G01X9033333Y2321366D01*
G01X9031419Y2322808D01*
G01X9029431Y2323823D01*
G01X9025225Y2324863D01*
G01X9020698Y2325062D01*
G01X9015833Y2325000D01*
G37*
G36*
G01X9606447Y2295234D02*
G01X9585234Y2316447D01*
G01X9588717Y2319843D01*
G01X9591778Y2323185D01*
G01X9594017Y2326894D01*
G01X9594705Y2329018D01*
G01X9595038Y2331391D01*
G01X9621391Y2305039D01*
G01X9619018Y2304705D01*
G01X9616894Y2304017D01*
G01X9613185Y2301778D01*
G01X9609843Y2298718D01*
G01X9606447Y2295234D01*
G37*
G36*
G01X7224167Y3155000D02*
G01X7224167Y3125000D01*
G01X7219302Y3125062D01*
G01X7214775Y3124863D01*
G01X7210569Y3123824D01*
G01X7208581Y3122808D01*
G01X7206667Y3121366D01*
G01X7206667Y3158634D01*
G01X7208581Y3157192D01*
G01X7210569Y3156177D01*
G01X7214775Y3155137D01*
G01X7219302Y3154938D01*
G01X7224167Y3155000D01*
G37*
G36*
G01X6924166Y1912700D02*
G01X6924166Y1887300D01*
G01X6919710Y1886882D01*
G01X6914898Y1885691D01*
G01X6910345Y1883821D01*
G01X6906667Y1881366D01*
G01X6906667Y1918634D01*
G01X6910345Y1916179D01*
G01X6914898Y1914309D01*
G01X6919710Y1913118D01*
G01X6924166Y1912700D01*
G37*
G36*
G01X8144766Y3256447D02*
G01X8123553Y3235234D01*
G01X8120157Y3238718D01*
G01X8116815Y3241778D01*
G01X8113106Y3244017D01*
G01X8110982Y3244705D01*
G01X8108609Y3245039D01*
G01X8134961Y3271391D01*
G01X8135295Y3269018D01*
G01X8135983Y3266894D01*
G01X8138222Y3263185D01*
G01X8141282Y3259843D01*
G01X8144766Y3256447D01*
G37*
G36*
G01X8145003Y2866216D02*
G01X8166216Y2845002D01*
G01X8162769Y2841383D01*
G01X8159720Y2837487D01*
G01X8157481Y2833230D01*
G01X8156792Y2830939D01*
G01X8156459Y2828525D01*
G01X8128526Y2856459D01*
G01X8130939Y2856792D01*
G01X8133230Y2857480D01*
G01X8137487Y2859720D01*
G01X8141383Y2862768D01*
G01X8145003Y2866216D01*
G37*
G36*
G01X7264167Y4435000D02*
G01X7264167Y4405000D01*
G01X7259302Y4405062D01*
G01X7254775Y4404863D01*
G01X7250569Y4403824D01*
G01X7248581Y4402808D01*
G01X7246667Y4401366D01*
G01X7246667Y4438634D01*
G01X7248581Y4437192D01*
G01X7250569Y4436177D01*
G01X7254775Y4435137D01*
G01X7259302Y4434938D01*
G01X7264167Y4435000D01*
G37*
G36*
G01X9377700Y3320834D02*
G01X9352300Y3320834D01*
G01X9351882Y3325291D01*
G01X9350691Y3330103D01*
G01X9348821Y3334655D01*
G01X9346366Y3338334D01*
G01X9383634Y3338334D01*
G01X9381179Y3334655D01*
G01X9379309Y3330103D01*
G01X9378118Y3325291D01*
G01X9377700Y3320834D01*
G37*
G36*
G01X7974766Y2066447D02*
G01X7953553Y2045234D01*
G01X7950157Y2048718D01*
G01X7946815Y2051778D01*
G01X7943106Y2054017D01*
G01X7940982Y2054705D01*
G01X7938609Y2055039D01*
G01X7964961Y2081391D01*
G01X7965295Y2079018D01*
G01X7965983Y2076894D01*
G01X7968222Y2073185D01*
G01X7971283Y2069843D01*
G01X7974766Y2066447D01*
G37*
G36*
G01X7884766Y2016447D02*
G01X7863553Y1995234D01*
G01X7860157Y1998718D01*
G01X7856815Y2001778D01*
G01X7853106Y2004017D01*
G01X7850982Y2004705D01*
G01X7848609Y2005039D01*
G01X7874961Y2031391D01*
G01X7875295Y2029018D01*
G01X7875983Y2026894D01*
G01X7878222Y2023185D01*
G01X7881282Y2019843D01*
G01X7884766Y2016447D01*
G37*
G36*
G01X9324167Y2915000D02*
G01X9324167Y2885000D01*
G01X9319302Y2885062D01*
G01X9314775Y2884863D01*
G01X9310569Y2883824D01*
G01X9308581Y2882808D01*
G01X9306667Y2881366D01*
G01X9306667Y2918634D01*
G01X9308581Y2917192D01*
G01X9310569Y2916177D01*
G01X9314775Y2915137D01*
G01X9319302Y2914938D01*
G01X9324167Y2915000D01*
G37*
G36*
G01X10225000Y1834167D02*
G01X10255000Y1834167D01*
G01X10254938Y1829302D01*
G01X10255137Y1824775D01*
G01X10256177Y1820569D01*
G01X10257192Y1818581D01*
G01X10258634Y1816667D01*
G01X10221366Y1816667D01*
G01X10222808Y1818581D01*
G01X10223824Y1820569D01*
G01X10224863Y1824775D01*
G01X10225062Y1829302D01*
G01X10225000Y1834167D01*
G37*
G36*
G01X9148553Y3269766D02*
G01X9169766Y3248553D01*
G01X9166283Y3245157D01*
G01X9163222Y3241814D01*
G01X9160983Y3238106D01*
G01X9160295Y3235982D01*
G01X9159962Y3233608D01*
G01X9133609Y3259961D01*
G01X9135982Y3260295D01*
G01X9138106Y3260983D01*
G01X9141815Y3263222D01*
G01X9145157Y3266282D01*
G01X9148553Y3269766D01*
G37*
G36*
G01X8165833Y3825000D02*
G01X8165833Y3855000D01*
G01X8170698Y3854938D01*
G01X8175225Y3855137D01*
G01X8179431Y3856176D01*
G01X8181419Y3857192D01*
G01X8183333Y3858634D01*
G01X8183333Y3821366D01*
G01X8181419Y3822808D01*
G01X8179431Y3823823D01*
G01X8175225Y3824863D01*
G01X8170698Y3825062D01*
G01X8165833Y3825000D01*
G37*
G36*
G01X8004766Y3896447D02*
G01X7983553Y3875234D01*
G01X7980157Y3878718D01*
G01X7976815Y3881778D01*
G01X7973106Y3884017D01*
G01X7970982Y3884705D01*
G01X7968609Y3885039D01*
G01X7994961Y3911391D01*
G01X7995295Y3909018D01*
G01X7995983Y3906894D01*
G01X7998222Y3903185D01*
G01X8001282Y3899843D01*
G01X8004766Y3896447D01*
G37*
G36*
G01X7135000Y3245833D02*
G01X7105000Y3245833D01*
G01X7105062Y3250698D01*
G01X7104863Y3255225D01*
G01X7103823Y3259431D01*
G01X7102808Y3261419D01*
G01X7101366Y3263333D01*
G01X7138634Y3263333D01*
G01X7137192Y3261419D01*
G01X7136176Y3259431D01*
G01X7135137Y3255225D01*
G01X7134938Y3250698D01*
G01X7135000Y3245833D01*
G37*
G36*
G01X9976216Y2324997D02*
G01X9955002Y2303784D01*
G01X9951383Y2307231D01*
G01X9947487Y2310280D01*
G01X9943230Y2312519D01*
G01X9940939Y2313208D01*
G01X9938525Y2313541D01*
G01X9966459Y2341474D01*
G01X9966792Y2339061D01*
G01X9967480Y2336770D01*
G01X9969720Y2332513D01*
G01X9972768Y2328617D01*
G01X9976216Y2324997D01*
G37*
G36*
G01X10025000Y1734166D02*
G01X10055000Y1734166D01*
G01X10054938Y1729302D01*
G01X10055137Y1724775D01*
G01X10056176Y1720569D01*
G01X10057192Y1718581D01*
G01X10058634Y1716667D01*
G01X10021366Y1716667D01*
G01X10022808Y1718581D01*
G01X10023823Y1720569D01*
G01X10024863Y1724775D01*
G01X10025062Y1729302D01*
G01X10025000Y1734166D01*
G37*
G36*
G01X4677393Y2842606D02*
G01X4698606Y2821393D01*
G01X4695122Y2817997D01*
G01X4692062Y2814655D01*
G01X4689823Y2810946D01*
G01X4689135Y2808822D01*
G01X4688801Y2806449D01*
G01X4662449Y2832801D01*
G01X4664822Y2833135D01*
G01X4666946Y2833823D01*
G01X4670655Y2836062D01*
G01X4673997Y2839122D01*
G01X4677393Y2842606D01*
G37*
G36*
G01X4545000Y2849834D02*
G01X4515000Y2849834D01*
G01X4515062Y2854698D01*
G01X4514863Y2859225D01*
G01X4513824Y2863431D01*
G01X4512808Y2865419D01*
G01X4511366Y2867333D01*
G01X4548634Y2867333D01*
G01X4547192Y2865419D01*
G01X4546177Y2863431D01*
G01X4545137Y2859225D01*
G01X4544938Y2854698D01*
G01X4545000Y2849834D01*
G37*
G36*
G01X8157723Y2706510D02*
G01X8136510Y2727724D01*
G01X8139994Y2731120D01*
G01X8143054Y2734462D01*
G01X8145293Y2738171D01*
G01X8145981Y2740294D01*
G01X8146315Y2742668D01*
G01X8172667Y2716315D01*
G01X8170294Y2715981D01*
G01X8168170Y2715294D01*
G01X8164461Y2713054D01*
G01X8161119Y2709994D01*
G01X8157723Y2706510D01*
G37*
G36*
G01X8156447Y2595234D02*
G01X8135234Y2616447D01*
G01X8138718Y2619843D01*
G01X8141778Y2623185D01*
G01X8144017Y2626894D01*
G01X8144705Y2629018D01*
G01X8145039Y2631391D01*
G01X8171391Y2605038D01*
G01X8169018Y2604705D01*
G01X8166894Y2604017D01*
G01X8163185Y2601778D01*
G01X8159843Y2598717D01*
G01X8156447Y2595234D01*
G37*
G36*
G01X6984167Y1985000D02*
G01X6984167Y1955000D01*
G01X6979302Y1955062D01*
G01X6974775Y1954863D01*
G01X6970569Y1953824D01*
G01X6968581Y1952808D01*
G01X6966667Y1951366D01*
G01X6966667Y1988634D01*
G01X6968581Y1987192D01*
G01X6970569Y1986177D01*
G01X6974775Y1985138D01*
G01X6979302Y1984938D01*
G01X6984167Y1985000D01*
G37*
G36*
G01X6924166Y2065000D02*
G01X6924166Y2035000D01*
G01X6919302Y2035062D01*
G01X6914775Y2034863D01*
G01X6910569Y2033823D01*
G01X6908581Y2032808D01*
G01X6906667Y2031366D01*
G01X6906667Y2068634D01*
G01X6908581Y2067192D01*
G01X6910569Y2066176D01*
G01X6914775Y2065137D01*
G01X6919302Y2064938D01*
G01X6924166Y2065000D01*
G37*
G36*
G01X5025833Y2885000D02*
G01X5025833Y2915000D01*
G01X5030698Y2914938D01*
G01X5035225Y2915137D01*
G01X5039431Y2916177D01*
G01X5041419Y2917192D01*
G01X5043333Y2918634D01*
G01X5043333Y2881366D01*
G01X5041419Y2882808D01*
G01X5039431Y2883824D01*
G01X5035225Y2884863D01*
G01X5030698Y2885062D01*
G01X5025833Y2885000D01*
G37*
G36*
G01X5025833Y2695000D02*
G01X5025833Y2725000D01*
G01X5030698Y2724938D01*
G01X5035225Y2725137D01*
G01X5039431Y2726176D01*
G01X5041419Y2727192D01*
G01X5043333Y2728634D01*
G01X5043333Y2691366D01*
G01X5041419Y2692808D01*
G01X5039431Y2693823D01*
G01X5035225Y2694863D01*
G01X5030698Y2695062D01*
G01X5025833Y2695000D01*
G37*
G36*
G01X5176447Y1945234D02*
G01X5155234Y1966447D01*
G01X5158718Y1969843D01*
G01X5161778Y1973185D01*
G01X5164017Y1976894D01*
G01X5164705Y1979018D01*
G01X5165039Y1981391D01*
G01X5191391Y1955039D01*
G01X5189018Y1954705D01*
G01X5186894Y1954017D01*
G01X5183185Y1951778D01*
G01X5179843Y1948718D01*
G01X5176447Y1945234D01*
G37*
G36*
G01X5222495Y6360000D02*
G01X5212505Y6420000D01*
G01X5214136Y6419639D01*
G01X5215637Y6418628D01*
G01X5218299Y6415074D01*
G01X5220591Y6410178D01*
G01X5222614Y6404782D01*
G01X5224467Y6399725D01*
G01X5226250Y6395849D01*
G01X5227146Y6394616D01*
G01X5228062Y6393994D01*
G01X5229011Y6394088D01*
G01X5230005Y6395002D01*
G01X5239995Y6357084D01*
G01X5235929Y6358454D01*
G01X5231414Y6359354D01*
G01X5222495Y6360000D01*
G37*
G36*
G01X4025833Y6835000D02*
G01X4025833Y6865000D01*
G01X4030698Y6864938D01*
G01X4035225Y6865137D01*
G01X4039431Y6866177D01*
G01X4041419Y6867192D01*
G01X4043333Y6868634D01*
G01X4043333Y6831366D01*
G01X4041419Y6832808D01*
G01X4039431Y6833824D01*
G01X4035225Y6834863D01*
G01X4030698Y6835062D01*
G01X4025833Y6835000D01*
G37*
G36*
G01X1471895Y7054321D02*
G01X1498835Y7081261D01*
G01X1502899Y7077559D01*
G01X1507029Y7074382D01*
G01X1514849Y7069455D01*
G01X1521018Y7066179D01*
G01X1524256Y7064256D01*
G01X1488901Y7028900D01*
G01X1486977Y7032138D01*
G01X1483701Y7038307D01*
G01X1478774Y7046127D01*
G01X1475597Y7050257D01*
G01X1471895Y7054321D01*
G37*
G36*
G01X1259050Y7468155D02*
G01X1220950Y7468155D01*
G01X1220694Y7473647D01*
G01X1220020Y7478814D01*
G01X1217975Y7487828D01*
G01X1215930Y7494505D01*
G01X1215000Y7498155D01*
G01X1265000Y7498155D01*
G01X1264070Y7494505D01*
G01X1262025Y7487828D01*
G01X1259980Y7478814D01*
G01X1259306Y7473647D01*
G01X1259050Y7468155D01*
G37*
G36*
G01X10991000Y4145000D02*
G02X10901000Y4175000I0J150000D01*
G01X10886000Y4130000D01*
G01X10901000Y4085000D01*
G02X10991000Y4115000I90000J-120000D01*
G01X10991000Y4145000D01*
G37*
G36*
G01X9984000Y4712787D02*
G02X10047639Y4866426I217279J0D01*
G01X10026426Y4887639D01*
G02X9872787Y4824000I-153639J153639D01*
G01X9864000Y4794000D01*
G02X9954000Y4704000I0J-90000D01*
G01X9984000Y4712787D01*
G37*
G36*
G01X9790166Y5245000D02*
G01X9790166Y5215000D01*
G01X9785301Y5215062D01*
G01X9780775Y5214863D01*
G01X9776568Y5213823D01*
G01X9774580Y5212808D01*
G01X9772666Y5211366D01*
G01X9772666Y5248634D01*
G01X9774580Y5247192D01*
G01X9776568Y5246176D01*
G01X9780775Y5245137D01*
G01X9785301Y5244938D01*
G01X9790166Y5245000D01*
G37*
G36*
G01X3736153Y7085059D02*
G01X3714940Y7063846D01*
G01X3708548Y7069699D01*
G01X3702528Y7074149D01*
G01X3696801Y7077341D01*
G01X3691291Y7079423D01*
G01X3685921Y7080541D01*
G01X3680612Y7080839D01*
G01X3675289Y7080465D01*
G01X3669872Y7079565D01*
G01X3658452Y7076770D01*
G01X3645732Y7073623D01*
G01X3638692Y7072283D01*
G01X3631095Y7071293D01*
G01X3622864Y7070800D01*
G01X3613921Y7070949D01*
G01X3729049Y7186077D01*
G01X3729199Y7177135D01*
G01X3728706Y7168904D01*
G01X3727716Y7161306D01*
G01X3726376Y7154266D01*
G01X3723229Y7141547D01*
G01X3720434Y7130126D01*
G01X3719533Y7124710D01*
G01X3719159Y7119386D01*
G01X3719458Y7114078D01*
G01X3720575Y7108707D01*
G01X3722657Y7103198D01*
G01X3725850Y7097471D01*
G01X3730300Y7091451D01*
G01X3736153Y7085059D01*
G37*
G04 TearDrop End*

G04 Pad Start*
G54D10*
G01X5380000Y4080000D03*
G54D11*
G01X6775000Y5830000D03*
G01X7430707Y5825707D03*
G01X7100001Y5709987D03*
G01X7210000Y5709987D03*
G01X6990001Y5709987D03*
G01X7100001Y5599988D03*
G01X7210000Y5599988D03*
G01X6990001Y5599988D03*
G01X7100001Y5489988D03*
G01X7210000Y5489988D03*
G01X6990001Y5489988D03*
G01X8398000Y5489988D03*
G01X8618000Y5489988D03*
G01X8508000Y5489988D03*
G01X8398000Y5599988D03*
G01X8618000Y5599988D03*
G01X8508000Y5599988D03*
G01X8398000Y5709987D03*
G01X8618000Y5709987D03*
G01X8508000Y5709987D03*
G01X8838707Y5825707D03*
G01X8183000Y5830000D03*
G01X9806000Y5489988D03*
G01X10026000Y5489988D03*
G01X9916000Y5489988D03*
G01X9806000Y5599988D03*
G01X10026000Y5599988D03*
G01X9916000Y5599988D03*
G01X9806000Y5709987D03*
G01X10026000Y5709987D03*
G01X9916000Y5709987D03*
G01X10246707Y5825707D03*
G01X9590999Y5830000D03*
G01X11214000Y5489988D03*
G01X11433999Y5489988D03*
G01X11324000Y5489988D03*
G01X11214000Y5599988D03*
G01X11433999Y5599988D03*
G01X11324000Y5599988D03*
G01X11214000Y5709987D03*
G01X11433999Y5709987D03*
G01X11324000Y5709987D03*
G01X11654706Y5825707D03*
G01X10998999Y5830000D03*
G54D12*
G01X6573376Y7074838D03*
G54D10*
G01X5700000Y3780000D03*
G01X11070000Y2840000D03*
G01X12280000Y3360000D03*
G54D12*
G01X12740000Y6040000D03*
G54D13*
G01X12740000Y5776000D03*
G54D10*
G01X8272000Y2480000D03*
G01X8526000Y2480000D03*
G01X8780000Y2480000D03*
G54D14*
G01X9034000Y2480000D03*
G54D15*
G01X12739998Y5240000D03*
G54D16*
G01X12739998Y4986000D03*
G54D15*
G01X12739998Y4450000D03*
G54D16*
G01X12739998Y4196000D03*
G54D18*
G01X11648000Y4340000D03*
G54D19*
G01X11394000Y4340000D03*
G01X11140000Y4340000D03*
G01X10886000Y4340000D03*
G54D18*
G01X8814000Y4340000D03*
G54D19*
G01X8560000Y4340000D03*
G01X8306000Y4340000D03*
G01X8052000Y4340000D03*
G54D18*
G01X10223000Y4460000D03*
G54D19*
G01X9969000Y4460000D03*
G01X9715000Y4460000D03*
G01X9461000Y4460000D03*
G54D20*
G01X4119999Y7180000D03*
G01X3119999Y7180000D03*
G54D21*
G01X2619999Y7180000D03*
G54D20*
G01X3619999Y7180000D03*
G54D22*
G01X4030002Y1266000D03*
G54D23*
G01X4030002Y1520000D03*
G01X4030002Y1774000D03*
G54D22*
G01X4650002Y1266000D03*
G54D23*
G01X4650002Y1520000D03*
G01X4650002Y1774000D03*
G54D15*
G01X1590000Y1527000D03*
G54D16*
G01X1590000Y1273000D03*
G54D22*
G01X5260002Y1266000D03*
G54D23*
G01X5260002Y1520000D03*
G01X5260002Y1774000D03*
G54D22*
G01X5870002Y1266000D03*
G54D23*
G01X5870002Y1520000D03*
G01X5870002Y1774000D03*
G54D15*
G01X2810000Y1527000D03*
G54D16*
G01X2810000Y1273000D03*
G54D22*
G01X6480002Y1266000D03*
G54D23*
G01X6480002Y1520000D03*
G01X6480002Y1774000D03*
G54D22*
G01X7090002Y1266000D03*
G54D23*
G01X7090002Y1520000D03*
G01X7090002Y1774000D03*
G54D15*
G01X3420000Y1527000D03*
G54D16*
G01X3420000Y1273000D03*
G54D22*
G01X12739998Y3152001D03*
G54D23*
G01X12739998Y3406001D03*
G01X12739998Y3660001D03*
G54D22*
G01X12740000Y2106000D03*
G54D23*
G01X12740000Y2360000D03*
G01X12740000Y2614000D03*
G54D24*
G01X2141321Y7220000D03*
G54D25*
G01X1740001Y7220000D03*
G54D26*
G01X7850002Y1630000D03*
G54D27*
G01X7850002Y1376000D03*
G54D26*
G01X8358002Y1630000D03*
G01X8612002Y1630000D03*
G01X8358002Y1376000D03*
G01X8104002Y1630000D03*
G01X8104002Y1376000D03*
G01X8612002Y1376000D03*
G54D28*
G01X6747996Y7350000D03*
G01X7001996Y7350000D03*
G01X7255996Y7350000D03*
G54D29*
G01X7509996Y7350000D03*
G54D28*
G01X8025996Y7350000D03*
G01X8279996Y7350000D03*
G01X8533996Y7350000D03*
G54D29*
G01X8787996Y7350000D03*
G54D28*
G01X9301996Y7350000D03*
G01X9555996Y7350000D03*
G01X9809996Y7350000D03*
G54D29*
G01X10063996Y7350000D03*
G54D28*
G01X10579996Y7350000D03*
G01X10833996Y7350000D03*
G01X11087996Y7350000D03*
G54D29*
G01X11341996Y7350000D03*
G54D18*
G01X10223000Y4160000D03*
G54D19*
G01X9969000Y4160000D03*
G01X9715000Y4160000D03*
G01X9461000Y4160000D03*
G54D20*
G01X11060000Y1420000D03*
G54D30*
G01X11560000Y1420000D03*
G54D31*
G01X826800Y5653400D03*
G01X356800Y5653400D03*
G01X826800Y4693400D03*
G01X356800Y4693400D03*
G54D32*
G01X1006800Y5173400D03*
G54D33*
G01X406800Y5173400D03*
G54D34*
G01X11934000Y3909999D03*
G54D26*
G01X11934000Y3655999D03*
G01X11680000Y3909999D03*
G01X11680000Y3655999D03*
G01X11426000Y3909999D03*
G01X11426000Y3655999D03*
G54D35*
G01X524500Y1058000D03*
G01X524500Y2262000D03*
G54D36*
G01X795500Y1535000D03*
G01X795500Y1785000D03*
G01X995500Y1785000D03*
G01X995500Y1535000D03*
G54D32*
G01X790010Y6052155D03*
G01X790010Y6448166D03*
G01X790010Y3788049D03*
G01X790010Y4184060D03*
G54D22*
G01X2197909Y1026000D03*
G54D23*
G01X2197909Y1280000D03*
G01X2197909Y1534000D03*
G04 Pad End*

G04 Via Start*
G54D37*
G01X11450000Y1860000D03*
G01X10720000Y2050005D03*
G01X10490000Y2460000D03*
G01X9565000Y2965000D03*
G01X11190000Y2150000D03*
G01X6300000Y6500000D03*
G01X6060000Y7000000D03*
G01X6140000Y7000000D03*
G01X5830000Y7260000D03*
G01X5830000Y7340000D03*
G01X9110000Y7258156D03*
G01X9110000Y7338156D03*
G01X9110000Y7418155D03*
G01X9110000Y7498155D03*
G01X7840000Y7253156D03*
G01X7840000Y7333156D03*
G01X7840000Y7413155D03*
G01X7840000Y7493155D03*
G01X2499999Y2993164D03*
G01X2979998Y2993164D03*
G01X2899998Y2993164D03*
G01X2819998Y2993164D03*
G01X2739998Y2993164D03*
G01X2659998Y2993164D03*
G01X2579999Y2993164D03*
G01X2419999Y2993164D03*
G01X2339999Y2993164D03*
G01X2259999Y2993164D03*
G01X2499999Y2913164D03*
G01X2979998Y2913164D03*
G01X2899998Y2913164D03*
G01X2819998Y2913164D03*
G01X2739998Y2913164D03*
G01X2659998Y2913164D03*
G01X2579999Y2913164D03*
G01X2419999Y2913164D03*
G01X2339999Y2913164D03*
G01X2259999Y2913164D03*
G01X2499999Y2833165D03*
G01X2979998Y2833165D03*
G01X2899998Y2833165D03*
G01X2819998Y2833165D03*
G01X2739998Y2833165D03*
G01X2659998Y2833165D03*
G01X2579999Y2833165D03*
G01X2419999Y2833165D03*
G01X2339999Y2833165D03*
G01X2259999Y2833165D03*
G01X2499999Y3233164D03*
G01X2979998Y3233164D03*
G01X2899998Y3233164D03*
G01X2819998Y3233164D03*
G01X2739998Y3233164D03*
G01X2659998Y3233164D03*
G01X2579999Y3233164D03*
G01X2419999Y3233164D03*
G01X2339999Y3233164D03*
G01X2259999Y3233164D03*
G01X2499999Y3153164D03*
G01X2979998Y3153164D03*
G01X2899998Y3153164D03*
G01X2819998Y3153164D03*
G01X2739998Y3153164D03*
G01X2659998Y3153164D03*
G01X2579999Y3153164D03*
G01X2419999Y3153164D03*
G01X2339999Y3153164D03*
G01X2259999Y3153164D03*
G01X2499999Y3073164D03*
G01X2979998Y3073164D03*
G01X2899998Y3073164D03*
G01X2819998Y3073164D03*
G01X2739998Y3073164D03*
G01X2659998Y3073164D03*
G01X2579999Y3073164D03*
G01X2419999Y3073164D03*
G01X2339999Y3073164D03*
G01X2259999Y3073164D03*
G01X2499999Y3473163D03*
G01X2979998Y3473163D03*
G01X2899998Y3473163D03*
G01X2819998Y3473163D03*
G01X2739998Y3473163D03*
G01X2659998Y3473163D03*
G01X2579999Y3473163D03*
G01X2419999Y3473163D03*
G01X2339999Y3473163D03*
G01X2259999Y3473163D03*
G01X2499999Y3393163D03*
G01X2979998Y3393163D03*
G01X2899998Y3393163D03*
G01X2819998Y3393163D03*
G01X2739998Y3393163D03*
G01X2659998Y3393163D03*
G01X2579999Y3393163D03*
G01X2419999Y3393163D03*
G01X2339999Y3393163D03*
G01X2259999Y3393163D03*
G01X2499999Y3313164D03*
G01X2979998Y3313164D03*
G01X2899998Y3313164D03*
G01X2819998Y3313164D03*
G01X2739998Y3313164D03*
G01X2659998Y3313164D03*
G01X2579999Y3313164D03*
G01X2419999Y3313164D03*
G01X2339999Y3313164D03*
G01X2259999Y3313164D03*
G01X2259999Y3553163D03*
G01X2339999Y3553163D03*
G01X2419999Y3553163D03*
G01X2579999Y3553163D03*
G01X2659998Y3553163D03*
G01X2739998Y3553163D03*
G01X2819998Y3553163D03*
G01X2899998Y3553163D03*
G01X2979998Y3553163D03*
G01X2499999Y3553163D03*
G01X2259999Y3633163D03*
G01X2339999Y3633163D03*
G01X2419999Y3633163D03*
G01X2579999Y3633163D03*
G01X2659998Y3633163D03*
G01X2739998Y3633163D03*
G01X2819998Y3633163D03*
G01X2899998Y3633163D03*
G01X2979998Y3633163D03*
G01X2499999Y3633163D03*
G01X2259999Y3713163D03*
G01X2339999Y3713163D03*
G01X2419999Y3713163D03*
G01X2579999Y3713163D03*
G01X2659998Y3713163D03*
G01X2739998Y3713163D03*
G01X2819998Y3713163D03*
G01X2899998Y3713163D03*
G01X2979998Y3713163D03*
G01X2499999Y3713163D03*
G01X3126380Y2460000D03*
G01X3046380Y2460000D03*
G01X3126380Y2380000D03*
G01X3046380Y2380000D03*
G01X3286380Y2380000D03*
G01X3286380Y2460000D03*
G01X3206380Y2380000D03*
G01X3206380Y2460000D03*
G01X4785060Y4085060D03*
G01X4340000Y3910000D03*
G01X4340000Y3830000D03*
G01X4500000Y3910000D03*
G01X4420000Y3910000D03*
G01X4500000Y3830000D03*
G01X4420000Y3830000D03*
G01X4660000Y3830000D03*
G01X4660000Y3910000D03*
G01X4580000Y3830000D03*
G01X4580000Y3910000D03*
G01X4079999Y4860000D03*
G01X4159999Y4860000D03*
G01X4079999Y4780000D03*
G01X4159999Y4780000D03*
G01X6271374Y4980000D03*
G01X6271374Y5060000D03*
G01X6271374Y5140000D03*
G01X6271374Y5220000D03*
G01X6271374Y5300000D03*
G01X6269998Y5378159D03*
G01X6269998Y5458159D03*
G01X6269998Y5538159D03*
G01X6269998Y5618158D03*
G01X6266374Y5700000D03*
G01X6266374Y5780000D03*
G01X6191374Y4980000D03*
G01X6191374Y5060000D03*
G01X6191374Y5140000D03*
G01X6191374Y5220000D03*
G01X6191374Y5300000D03*
G01X6189999Y5378159D03*
G01X6189999Y5458159D03*
G01X6189999Y5538159D03*
G01X6189999Y5618158D03*
G01X6186374Y5700000D03*
G01X6186374Y5780000D03*
G01X6111374Y4980000D03*
G01X6111374Y5060000D03*
G01X6111374Y5140000D03*
G01X6111374Y5220000D03*
G01X6111374Y5300000D03*
G01X6109999Y5378159D03*
G01X6109999Y5458159D03*
G01X6109999Y5538159D03*
G01X6109999Y5618158D03*
G01X6106374Y5700000D03*
G01X6106374Y5780000D03*
G01X3999999Y4780000D03*
G01X3919999Y4780000D03*
G01X3999999Y4860000D03*
G01X3919999Y4860000D03*
G01X3839999Y4780000D03*
G01X3839999Y4860000D03*
G01X6026375Y5780000D03*
G01X6026375Y5700000D03*
G01X6029999Y5618158D03*
G01X6029999Y5538159D03*
G01X6029999Y5458159D03*
G01X6029999Y5378159D03*
G01X6031375Y5300000D03*
G01X6031375Y5220000D03*
G01X6031375Y5140000D03*
G01X6031375Y5060000D03*
G01X5946375Y5780000D03*
G01X5946375Y5700000D03*
G01X5949999Y5618158D03*
G01X5949999Y5538159D03*
G01X5949999Y5458159D03*
G01X5949999Y5378159D03*
G01X5951375Y5300000D03*
G01X5951375Y5220000D03*
G01X5951375Y5140000D03*
G01X5951375Y5060000D03*
G01X5866375Y5780000D03*
G01X5866375Y5700000D03*
G01X5869999Y5618158D03*
G01X5869999Y5538159D03*
G01X5869999Y5458159D03*
G01X5869999Y5378159D03*
G01X5871375Y5300000D03*
G01X5871375Y5220000D03*
G01X5871375Y5140000D03*
G01X5871375Y5060000D03*
G01X5786375Y5780000D03*
G01X5786375Y5700000D03*
G01X5789999Y5618158D03*
G01X5789999Y5538159D03*
G01X5789999Y5458159D03*
G01X5789999Y5378159D03*
G01X5791375Y5300000D03*
G01X5791375Y5220000D03*
G01X5791375Y5140000D03*
G01X5791375Y5060000D03*
G01X5706375Y5940000D03*
G01X5706375Y5860000D03*
G01X5706375Y5780000D03*
G01X5706375Y5700000D03*
G01X5710000Y5618158D03*
G01X5710000Y5538159D03*
G01X5710000Y5458159D03*
G01X5710000Y5378159D03*
G01X5711375Y5300000D03*
G01X5711375Y5220000D03*
G01X5711375Y5140000D03*
G01X5711375Y5060000D03*
G01X5626375Y5940000D03*
G01X5626375Y5860000D03*
G01X5626375Y5780000D03*
G01X5626375Y5700000D03*
G01X5630000Y5618158D03*
G01X5630000Y5538159D03*
G01X5630000Y5458159D03*
G01X5630000Y5378159D03*
G01X5631375Y5300000D03*
G01X5631375Y5220000D03*
G01X5631375Y5140000D03*
G01X5631375Y5060000D03*
G01X5546375Y5940000D03*
G01X5546375Y5860000D03*
G01X5546375Y5780000D03*
G01X5546375Y5700000D03*
G01X5550000Y5618158D03*
G01X5550000Y5538159D03*
G01X5550000Y5458159D03*
G01X5550000Y5378159D03*
G01X5551375Y5300000D03*
G01X5551375Y5220000D03*
G01X5551375Y5140000D03*
G01X5551375Y5060000D03*
G01X6031375Y4980000D03*
G01X5951375Y4980000D03*
G01X5871375Y4980000D03*
G01X5791375Y4980000D03*
G01X5711375Y4980000D03*
G01X5631375Y4980000D03*
G01X5551375Y4980000D03*
G01X5471376Y4980000D03*
G01X5471376Y5060000D03*
G01X5471376Y5140000D03*
G01X5471376Y5220000D03*
G01X5471376Y5300000D03*
G01X5470000Y5378159D03*
G01X5470000Y5458159D03*
G01X5470000Y5538159D03*
G01X5470000Y5618159D03*
G01X5466376Y5700000D03*
G01X5466376Y5780000D03*
G01X5466376Y5860000D03*
G01X5466376Y5940000D03*
G01X4110000Y3980000D03*
G01X4030000Y3980000D03*
G01X4110000Y3900000D03*
G01X4030000Y3900000D03*
G01X4030000Y3460000D03*
G01X4030000Y4060000D03*
G01X4110000Y3460000D03*
G01X4110000Y4060000D03*
G01X4030000Y3540000D03*
G01X4030000Y3620000D03*
G01X4110000Y3540000D03*
G01X4110000Y3620000D03*
G01X6360000Y3890000D03*
G01X6283800Y3873500D03*
G01X6440000Y3890000D03*
G01X6440000Y3810000D03*
G01X6360000Y3970000D03*
G01X6360000Y4050000D03*
G01X6440000Y3970000D03*
G01X6440000Y4050000D03*
G01X11374038Y6089962D03*
G01X11273962Y6089962D03*
G01X9966038Y6089962D03*
G01X9865962Y6089962D03*
G01X8558038Y6089962D03*
G01X8457962Y6089962D03*
G01X7150039Y6089962D03*
G01X7049963Y6089962D03*
G01X7340000Y5060000D03*
G01X7600000Y5080001D03*
G01X8750000Y5060000D03*
G01X10260000Y5170000D03*
G01X10030000Y4980000D03*
G01X11570000Y5050000D03*
G01X11440000Y4980000D03*
G01X9000000Y5090000D03*
G01X10410000Y5110000D03*
G01X11960000Y5080000D03*
G01X7400000Y4540000D03*
G01X11660000Y4990000D03*
G01X10270000Y4990000D03*
G01X8820000Y5000000D03*
G01X7410000Y5000000D03*
G01X9380000Y4597000D03*
G01X7970000Y4480000D03*
G01X7930000Y4090000D03*
G01X10780000Y4462000D03*
G01X10750000Y4090000D03*
G01X6140000Y7080000D03*
G01X6140000Y7160000D03*
G01X6060000Y7080000D03*
G01X6060000Y7160000D03*
G01X5910000Y7340000D03*
G01X5990000Y7340000D03*
G01X6070000Y7340000D03*
G01X5910000Y7260000D03*
G01X5990000Y7260000D03*
G01X6070000Y7260000D03*
G01X4570000Y6540000D03*
G01X4570000Y6620000D03*
G01X4410000Y6540000D03*
G01X4490000Y6540000D03*
G01X4410000Y6620000D03*
G01X4490000Y6620000D03*
G01X3148840Y5020620D03*
G01X3150000Y5810000D03*
G01X3068840Y5020620D03*
G01X3070000Y5810000D03*
G01X3150000Y5650000D03*
G01X3150000Y5730000D03*
G01X3070000Y5650000D03*
G01X3070000Y5730000D03*
G01X7690000Y3860000D03*
G01X7690000Y3940000D03*
G01X7530000Y3860000D03*
G01X7610000Y3860000D03*
G01X7530000Y3940000D03*
G01X7610000Y3940000D03*
G01X10886000Y4084000D03*
G01X6650000Y6080000D03*
G01X6740000Y5470000D03*
G01X8158000Y5410000D03*
G01X8058000Y6080000D03*
G01X9555999Y5470000D03*
G01X9465999Y6080000D03*
G01X10873999Y6080000D03*
G01X10963999Y5430000D03*
G01X7500000Y4541161D03*
G01X6880000Y4979373D03*
G01X8190000Y5320000D03*
G01X9039369Y4710000D03*
G01X10647365Y4760000D03*
G01X11940000Y4750000D03*
G01X9067368Y6530000D03*
G01X8990000Y6529157D03*
G01X9070000Y6845156D03*
G01X9070000Y6765157D03*
G01X9070000Y6685157D03*
G01X9070000Y6605157D03*
G01X7662000Y6605157D03*
G01X7662000Y6685157D03*
G01X7662000Y6765157D03*
G01X7662000Y6845156D03*
G01X7659369Y6530000D03*
G01X10478000Y6605157D03*
G01X10478000Y6685157D03*
G01X10478000Y6765157D03*
G01X10478000Y6845156D03*
G01X10398000Y6529157D03*
G01X10475368Y6530000D03*
G01X11885999Y6605157D03*
G01X11885999Y6685157D03*
G01X11885999Y6765157D03*
G01X11885999Y6845156D03*
G01X11726000Y6529157D03*
G01X11806000Y6529157D03*
G01X11883368Y6530000D03*
G01X9920000Y1550000D03*
G01X7880000Y5981158D03*
G01X7800000Y5981158D03*
G01X7720000Y5981158D03*
G01X9299368Y5980000D03*
G01X9219368Y5980000D03*
G01X9139368Y5980000D03*
G01X10709365Y5980000D03*
G01X10629365Y5980000D03*
G01X10549365Y5980000D03*
G01X250000Y6960000D03*
G01X180000Y6960000D03*
G01X250000Y7030000D03*
G01X180000Y7030000D03*
G01X299230Y6685688D03*
G01X229230Y6685688D03*
G01X159230Y6685688D03*
G01X3068840Y5100620D03*
G01X3068840Y5180620D03*
G01X3148840Y5100620D03*
G01X3148840Y5180620D03*
G01X3070000Y5260000D03*
G01X3070000Y5340000D03*
G01X3150000Y5260000D03*
G01X3150000Y5340000D03*
G01X6640000Y4050000D03*
G01X6640000Y3970000D03*
G01X6560000Y4050000D03*
G01X6560000Y3970000D03*
G01X6640000Y3810000D03*
G01X6640000Y3890000D03*
G01X6560000Y3810000D03*
G01X6560000Y3890000D03*
G01X2830000Y4270000D03*
G01X2750000Y4270000D03*
G01X2840000Y4190000D03*
G01X2760000Y4190000D03*
G01X2910000Y4270000D03*
G01X2990000Y4270000D03*
G01X2920000Y4190000D03*
G01X3000000Y4190000D03*
G01X3600000Y4860000D03*
G01X3520000Y4860000D03*
G01X3600000Y4780000D03*
G01X3520000Y4780000D03*
G01X3680000Y4860000D03*
G01X3760000Y4860000D03*
G01X3680000Y4780000D03*
G01X3760000Y4780000D03*
G01X4650000Y6620000D03*
G01X4650000Y6540000D03*
G01X7150039Y5019962D03*
G01X7450000Y5190001D03*
G01X8595972Y5004028D03*
G01X8860000Y5160000D03*
G01X10110000Y5110000D03*
G01X10090000Y4370000D03*
G01X11740000Y5060000D03*
G01X7010000Y5160000D03*
G01X6940000Y5230000D03*
G01X7080000Y5090000D03*
G01X8488000Y5090000D03*
G01X8348000Y5230000D03*
G01X8418000Y5160000D03*
G01X9896000Y5090000D03*
G01X9756000Y5230000D03*
G01X9825999Y5160000D03*
G01X11303999Y5090000D03*
G01X11163999Y5230000D03*
G01X11233999Y5160000D03*
G01X8540000Y4550000D03*
G01X9580000Y5340000D03*
G01X11010000Y5330000D03*
G01X11850000Y5805159D03*
G01X11930000Y5805159D03*
G01X11850000Y5885158D03*
G01X11930000Y5885158D03*
G01X12010000Y5805159D03*
G01X12010000Y5885158D03*
G01X11850000Y5645159D03*
G01X11930000Y5645159D03*
G01X11850000Y5725159D03*
G01X11930000Y5725159D03*
G01X12010000Y5645159D03*
G01X12010000Y5725159D03*
G01X9820000Y3940000D03*
G01X9590000Y3870000D03*
G54D38*
G01X9320000Y4090000D03*
G54D37*
G01X8560000Y4020000D03*
G01X8130000Y4020000D03*
G01X9380000Y3770000D03*
G54D38*
G01X7810011Y3140000D03*
G54D37*
G01X7610000Y3040000D03*
G01X7610000Y2430000D03*
G01X7610000Y2630000D03*
G01X7607475Y2840000D03*
G01X8130000Y3040000D03*
G01X8130000Y2940000D03*
G01X9050000Y2340000D03*
G01X9420000Y2330000D03*
G01X9620000Y2330000D03*
G01X9789980Y2629981D03*
G01X7190000Y3140000D03*
G01X6890000Y1900000D03*
G01X8110000Y3270000D03*
G54D38*
G01X8130000Y2830000D03*
G54D37*
G01X7230000Y4420000D03*
G01X9365000Y3355000D03*
G01X7940000Y2080000D03*
G01X7850000Y2030000D03*
G01X9290000Y2900000D03*
G01X10240000Y1800000D03*
G01X9135000Y3235000D03*
G01X9610000Y3190000D03*
G01X8200000Y3840000D03*
G01X7970000Y3910000D03*
G54D39*
G01X7240000Y3410000D03*
G54D37*
G01X7120000Y3280000D03*
G54D38*
G01X9940000Y2340000D03*
G54D37*
G01X10040000Y1700000D03*
G01X1010000Y3050000D03*
G01X1010000Y2970000D03*
G01X1170000Y2970000D03*
G01X1250000Y2970000D03*
G01X1170000Y3050000D03*
G01X1250000Y3050000D03*
G01X1090000Y2970000D03*
G01X1090000Y3050000D03*
G01X10790000Y2590000D03*
G01X10710000Y2590000D03*
G01X10710000Y2430000D03*
G01X10710000Y2350000D03*
G01X10790000Y2430000D03*
G01X10790000Y2350000D03*
G01X10710000Y2510000D03*
G01X10790000Y2510000D03*
G01X8240000Y2330000D03*
G01X8780000Y2860000D03*
G54D38*
G01X8950000Y3780000D03*
G01X7481372Y1630000D03*
G01X7481372Y1570000D03*
G01X10850000Y3663163D03*
G01X10846365Y3470000D03*
G54D37*
G01X9500000Y3350000D03*
G01X6800000Y3410000D03*
G01X3710000Y2020000D03*
G01X4663840Y2807840D03*
G01X4530000Y2884000D03*
G01X8171276Y2741276D03*
G01X8170000Y2630000D03*
G01X6950000Y1970000D03*
G01X6890000Y2050000D03*
G01X5060000Y2900000D03*
G01X5060000Y2710000D03*
G01X5190000Y1980000D03*
G01X5250000Y6379995D03*
G01X4060000Y6850000D03*
G01X1506578Y7046578D03*
G01X1240000Y7498155D03*
G01X2746381Y2034991D03*
G01X2741381Y2180000D03*
G01X2066382Y1940000D03*
G01X1703383Y2040000D03*
G01X1741383Y2611381D03*
G54D39*
G01X6019800Y2171700D03*
G01X6286500Y2438400D03*
G54D37*
G01X6675205Y2819583D03*
G01X6676048Y2744368D03*
G01X6676648Y2949250D03*
G01X6678148Y3012244D03*
G01X6678148Y2887755D03*
G01X6738899Y2819583D03*
G01X6739743Y2744368D03*
G01X6740343Y2949250D03*
G01X6741843Y2887755D03*
G01X6741843Y3012244D03*
G01X6802594Y2819583D03*
G01X6803437Y2744368D03*
G01X6804037Y2949250D03*
G01X6805537Y3012244D03*
G01X6805537Y2887755D03*
G01X6866288Y2819583D03*
G01X6867132Y2744368D03*
G01X6867732Y2949250D03*
G01X6869232Y2887755D03*
G01X6869232Y3012244D03*
G01X7060946Y2579507D03*
G01X6988952Y2587006D03*
G01X6922958Y2613104D03*
G01X6918458Y2536310D03*
G01X6852118Y2597763D03*
G01X6787970Y2602305D03*
G01X6944256Y2472116D03*
G01X6881562Y2352426D03*
G01X6803268Y2344627D03*
G01X6741774Y2306230D03*
G01X6661318Y2321673D03*
G01X6594786Y2323329D03*
G01X6527660Y2337425D03*
G01X6731275Y2231237D03*
G01X6726475Y2152944D03*
G01X6944256Y2307730D03*
G01X7025549Y2300231D03*
G01X6964354Y2240236D03*
G01X7042648Y2212638D03*
G01X6993452Y2162243D03*
G01X6925958Y2176042D03*
G01X7043889Y3135625D03*
G01X6981158Y3133326D03*
G01X6919058Y3151857D03*
G01X6855464Y3157857D03*
G01X6795469Y3168056D03*
G01X6724675Y3165956D03*
G01X6652981Y3156957D03*
G01X6972617Y3210955D03*
G01X6910517Y3227316D03*
G01X6835066Y3231350D03*
G01X6388704Y3432033D03*
G01X6416302Y3352240D03*
G01X6455096Y3409815D03*
G01X5440486Y2658700D03*
G01X5465984Y2592406D03*
G01X5405689Y2592406D03*
G01X5316814Y3436681D03*
G01X5458809Y3188603D03*
G01X5541578Y3178855D03*
G01X5403590Y3493527D03*
G01X5483327Y3525925D03*
G01X5507981Y3594919D03*
G01X5576975Y3511826D03*
G01X5681192Y3535925D03*
G01X5742560Y3564021D03*
G01X5834652Y3551722D03*
G01X5431177Y3567651D03*
G01X5696364Y3613217D03*
G01X4409059Y3077768D03*
G01X4312884Y3090062D03*
G01X4446973Y3013269D03*
G01X3446781Y2413930D03*
G01X3471322Y2471760D03*
G01X3376365Y2440319D03*
G01X4218092Y3094262D03*
G01X5463284Y2428620D03*
G01X8106719Y2200151D03*
G01X9077874Y5915506D03*
G01X9157873Y5915506D03*
G01X9237873Y5915506D03*
G01X9110271Y5855811D03*
G01X9190271Y5855811D03*
G01X9270271Y5855811D03*
G01X9066475Y5793716D03*
G01X9146474Y5793716D03*
G01X9226474Y5793716D03*
G01X9091672Y5729222D03*
G01X9171672Y5729222D03*
G01X9251672Y5729222D03*
G01X9064075Y5669527D03*
G01X9144075Y5669527D03*
G01X9224075Y5669527D03*
G01X9100672Y5608332D03*
G01X9180672Y5608332D03*
G01X9260671Y5608332D03*
G01X9066175Y5552837D03*
G01X9146174Y5552837D03*
G01X9226174Y5552837D03*
G01X9093772Y5493142D03*
G01X9173772Y5493142D03*
G01X9253772Y5493142D03*
G01X9096172Y5421748D03*
G01X9176172Y5421748D03*
G01X9256172Y5421748D03*
G01X11896429Y5580735D03*
G01X11976429Y5580735D03*
G01X12056429Y5580735D03*
G01X11905729Y5507241D03*
G01X11985728Y5507241D03*
G01X12065728Y5507241D03*
G01X11916528Y5430448D03*
G01X11996527Y5430448D03*
G01X12076527Y5430448D03*
G01X11928527Y5358454D03*
G01X12008526Y5358454D03*
G01X12088526Y5358454D03*
G01X12597769Y6443160D03*
G01X12677768Y6443160D03*
G01X12757768Y6443160D03*
G01X12629866Y6369666D03*
G01X12709866Y6369666D03*
G01X12789865Y6369666D03*
G01X12565671Y6238278D03*
G01X12645671Y6238278D03*
G01X12725671Y6238278D03*
G01X12692260Y6178583D03*
G01X12772260Y6178583D03*
G01X12852260Y6178583D03*
G01X12675762Y4827800D03*
G01X12755762Y4827800D03*
G01X12835761Y4827800D03*
G01X12685061Y4760906D03*
G01X12765061Y4760906D03*
G01X12845061Y4760906D03*
G01X12657463Y4040968D03*
G01X12737463Y4040968D03*
G01X12817463Y4040968D03*
G01X12462780Y2452906D03*
G01X12542780Y2452906D03*
G01X12622780Y2452906D03*
G01X12468780Y2748980D03*
G01X12548780Y2748980D03*
G01X12628779Y2748980D03*
G01X12643665Y2959262D03*
G01X12723664Y2959262D03*
G01X12803664Y2959262D03*
G01X10975209Y1683472D03*
G01X11055209Y1683472D03*
G01X11135209Y1683472D03*
G01X10972209Y1609979D03*
G01X11052209Y1609979D03*
G01X11132209Y1609979D03*
G01X9510136Y1559283D03*
G01X9590136Y1559283D03*
G01X9670136Y1559283D03*
G01X9526935Y1491789D03*
G01X9606935Y1491789D03*
G01X9686934Y1491789D03*
G01X8849293Y1568282D03*
G01X8929293Y1568282D03*
G01X9009293Y1568282D03*
G01X8839994Y1473191D03*
G01X8919994Y1473191D03*
G01X8999994Y1473191D03*
G01X8829195Y1365800D03*
G01X8909195Y1365800D03*
G01X8989195Y1365800D03*
G01X7863715Y1218069D03*
G01X7943715Y1218069D03*
G01X8023715Y1218069D03*
G01X7547406Y5909206D03*
G01X7627406Y5909206D03*
G01X7707406Y5909206D03*
G01X7795785Y5904707D03*
G01X7875785Y5904707D03*
G01X7955784Y5904707D03*
G01X7561205Y5838112D03*
G01X7641205Y5838112D03*
G01X7721205Y5838112D03*
G01X6776994Y5134115D03*
G01X6776994Y5214115D03*
G01X6776994Y5294115D03*
G01X7807484Y5819814D03*
G01X7887484Y5819814D03*
G01X7967483Y5819814D03*
G01X7736390Y6075092D03*
G01X7816390Y6075092D03*
G01X7896390Y6075092D03*
G01X9366070Y5738863D03*
G01X9366070Y5818863D03*
G01X9366070Y5898863D03*
G01X8979703Y5691467D03*
G01X8979703Y5771467D03*
G01X8979703Y5851467D03*
G01X10354863Y5990499D03*
G01X10439662Y6000998D03*
G01X10591656Y5913706D03*
G01X10361162Y5853711D03*
G01X10441162Y5853711D03*
G01X10521162Y5853711D03*
G01X10601742Y5847711D03*
G01X10681741Y5847711D03*
G01X10761741Y5847711D03*
G01X10350363Y5918205D03*
G01X10430363Y5918205D03*
G01X10510363Y5918205D03*
G01X10770627Y6017797D03*
G01X10726438Y5918205D03*
G01X10806437Y5918205D03*
G01X10342564Y5731022D03*
G01X10373668Y5656028D03*
G01X10407772Y5782917D03*
G01X10833321Y5696225D03*
G01X10596549Y5343455D03*
G01X10667249Y5294259D03*
G01X10827229Y6855924D03*
G01X10084793Y6764432D03*
G01X10038897Y6824727D03*
G01X10129789Y6839126D03*
G01X10083893Y6888021D03*
G01X9429950Y6855324D03*
G01X9672329Y6859524D03*
G01X8589723Y6896721D03*
G01X8591223Y6816927D03*
G01X7944179Y6856824D03*
G01X8111264Y6850825D03*
G01X7639405Y6903620D03*
G01X7181345Y6859824D03*
G01X7181165Y6783823D03*
G01X6722085Y6856224D03*
G01X10380769Y4717426D03*
G01X10360769Y4634917D03*
G01X3105031Y2120216D03*
G01X1181285Y2739020D03*
G01X1181285Y2819020D03*
G01X1261285Y2819020D03*
G01X1261285Y2739020D03*
G01X1341285Y2739020D03*
G01X1341285Y2819020D03*
G01X1421285Y2819020D03*
G01X1421285Y2739020D03*
G01X1061596Y2571634D03*
G01X1061596Y2651634D03*
G01X1141595Y2651634D03*
G01X1141595Y2571634D03*
G01X1221595Y2571634D03*
G01X1221595Y2651634D03*
G01X1301595Y2651634D03*
G01X1301595Y2571634D03*
G01X683028Y2539537D03*
G01X683028Y2619537D03*
G01X763028Y2619537D03*
G01X763028Y2539537D03*
G01X843028Y2539537D03*
G01X843028Y2619537D03*
G01X923028Y2619537D03*
G01X923028Y2539537D03*
G01X228868Y2535638D03*
G01X228868Y2615637D03*
G01X308868Y2615637D03*
G01X308868Y2535638D03*
G01X388867Y2535638D03*
G01X388867Y2615637D03*
G01X468867Y2615637D03*
G01X468867Y2535638D03*
G01X164973Y4407775D03*
G01X164973Y4487775D03*
G01X244973Y4487775D03*
G01X244973Y4407775D03*
G01X324973Y4407775D03*
G01X324973Y4487775D03*
G01X404973Y4487775D03*
G01X404973Y4407775D03*
G01X527642Y4431473D03*
G01X527642Y4511473D03*
G01X607642Y4511473D03*
G01X607642Y4431473D03*
G01X687642Y4431473D03*
G01X687642Y4511473D03*
G01X767641Y4511473D03*
G01X767641Y4431473D03*
G01X133176Y4228391D03*
G01X133176Y4308391D03*
G01X213176Y4308391D03*
G01X213176Y4228391D03*
G01X293176Y4228391D03*
G01X293176Y4308391D03*
G01X373176Y4308391D03*
G01X373176Y4228391D03*
G01X141275Y4025008D03*
G01X141275Y4105008D03*
G01X221275Y4105008D03*
G01X221275Y4025008D03*
G01X301275Y4025008D03*
G01X301275Y4105008D03*
G01X381275Y4105008D03*
G01X381275Y4025008D03*
G01X133176Y3754132D03*
G01X133176Y3834132D03*
G01X213176Y3834132D03*
G01X213176Y3754132D03*
G01X293176Y3754132D03*
G01X293176Y3834132D03*
G01X373176Y3834132D03*
G01X373176Y3754132D03*
G01X149075Y3566648D03*
G01X149075Y3646648D03*
G01X229074Y3646648D03*
G01X229074Y3566648D03*
G01X309074Y3566648D03*
G01X309074Y3646648D03*
G01X389074Y3646648D03*
G01X389074Y3566648D03*
G01X145175Y3363566D03*
G01X145175Y3443566D03*
G01X225175Y3443566D03*
G01X225175Y3363566D03*
G01X305175Y3363566D03*
G01X305175Y3443566D03*
G01X385174Y3443566D03*
G01X385174Y3363566D03*
G01X145175Y3184181D03*
G01X145175Y3264181D03*
G01X225175Y3264181D03*
G01X225175Y3184181D03*
G01X305175Y3184181D03*
G01X305175Y3264181D03*
G01X385174Y3264181D03*
G01X385174Y3184181D03*
G01X141275Y2992798D03*
G01X141275Y3072798D03*
G01X221275Y3072798D03*
G01X221275Y2992798D03*
G01X301275Y2992798D03*
G01X301275Y3072798D03*
G01X381275Y3072798D03*
G01X381275Y2992798D03*
G01X133176Y2781616D03*
G01X133176Y2861616D03*
G01X213176Y2861616D03*
G01X213176Y2781616D03*
G01X293176Y2781616D03*
G01X293176Y2861616D03*
G01X373176Y2861616D03*
G01X373176Y2781616D03*
G01X145175Y1960887D03*
G01X145175Y2040887D03*
G01X225175Y2040887D03*
G01X225175Y1960887D03*
G01X305175Y1960887D03*
G01X305175Y2040887D03*
G01X385174Y2040887D03*
G01X385174Y1960887D03*
G01X145175Y1741606D03*
G01X145175Y1821606D03*
G01X225175Y1821606D03*
G01X225175Y1741606D03*
G01X305175Y1741606D03*
G01X305175Y1821606D03*
G01X385174Y1821606D03*
G01X385174Y1741606D03*
G01X137076Y1566122D03*
G01X137076Y1646121D03*
G01X217076Y1646121D03*
G01X217076Y1566122D03*
G01X297075Y1566122D03*
G01X297075Y1646121D03*
G01X377075Y1646121D03*
G01X377075Y1566122D03*
G01X141275Y1371138D03*
G01X141275Y1451138D03*
G01X221275Y1451138D03*
G01X221275Y1371138D03*
G01X301275Y1371138D03*
G01X301275Y1451138D03*
G01X381275Y1451138D03*
G01X381275Y1371138D03*
G01X2975130Y1632116D03*
G01X2975130Y1712116D03*
G01X3055130Y1712116D03*
G01X3055130Y1632116D03*
G01X3135129Y1632116D03*
G01X3135129Y1712116D03*
G01X3215129Y1712116D03*
G01X3215129Y1632116D03*
G01X3604775Y1544223D03*
G01X3604775Y1624223D03*
G01X3684775Y1624223D03*
G01X3684775Y1544223D03*
G01X3764775Y1544223D03*
G01X3764775Y1624223D03*
G01X3844775Y1624223D03*
G01X3844775Y1544223D03*
G01X2501171Y7700590D03*
G01X2501171Y7780590D03*
G01X2581171Y7780590D03*
G01X2581171Y7700590D03*
G01X2661170Y7700590D03*
G01X2661170Y7780590D03*
G01X2741170Y7780590D03*
G01X2741170Y7700590D03*
G01X3021082Y7701287D03*
G01X3021082Y7781286D03*
G01X3101081Y7781286D03*
G01X3101081Y7701287D03*
G01X3181081Y7701287D03*
G01X3181081Y7781286D03*
G01X3261081Y7781286D03*
G01X3261081Y7701287D03*
G01X2931724Y7231500D03*
G01X2978427Y7296294D03*
G01X3286107Y7215901D03*
G01X3259916Y7283396D03*
G01X281363Y6206419D03*
G01X361363Y6206419D03*
G01X441363Y6206419D03*
G01X521363Y6206419D03*
G01X4334447Y7721150D03*
G01X4414447Y7721150D03*
G01X4494447Y7721150D03*
G01X4574447Y7721150D03*
G01X4302515Y7839478D03*
G01X4382514Y7839478D03*
G01X4462514Y7839478D03*
G01X4542514Y7839478D03*
G01X6099959Y7763584D03*
G01X6179959Y7763584D03*
G01X6259959Y7763584D03*
G01X6339958Y7763584D03*
G01X6091860Y7859276D03*
G01X6171859Y7859276D03*
G01X6251859Y7859276D03*
G01X6331859Y7859276D03*
G01X6091860Y7970866D03*
G01X6171859Y7970866D03*
G01X6251859Y7970866D03*
G01X6331859Y7970866D03*
G04 Via End*

G04 Track Start*
G54D12*
G01X12739998Y5240000D02*
G01X12510000Y5240000D01*
G01X12510000Y3150000D01*
G01X12737998Y3150000D01*
G54D40*
G01X12530000Y2106000D02*
G01X12740000Y2106000D01*
G54D10*
G01X12474000Y2106000D02*
G01X12530000Y2106000D01*
G54D40*
G01X12530000Y2106000D02*
G01X12280000Y2356000D01*
G01X12280000Y3360000D01*
G01X6490000Y6951462D02*
G01X6573376Y7034838D01*
G01X6490000Y4440000D02*
G01X6490000Y6951462D01*
G01X6102466Y4052466D02*
G01X6490000Y4440000D01*
G01X5389707Y4052466D02*
G01X6102466Y4052466D01*
G01X6573376Y7023043D02*
G01X6573376Y7034838D01*
G01X1740001Y7220000D02*
G01X1740001Y7280000D01*
G54D41*
G01X10910005Y1860000D02*
G01X11450000Y1860000D01*
G01X10720000Y2050005D02*
G01X10910005Y1860000D01*
G01X10380000Y2460000D02*
G01X10490000Y2460000D01*
G01X9875000Y2965000D02*
G01X10380000Y2460000D01*
G01X9565000Y2965000D02*
G01X9875000Y2965000D01*
G54D39*
G01X9809996Y6400003D02*
G01X9809996Y7350000D01*
G01X9809996Y6400003D02*
G01X9966038Y6243962D01*
G01X9966038Y6089962D02*
G01X9966038Y6243962D01*
G01X10246707Y5825707D02*
G01X10246707Y7167289D01*
G01X10063996Y7350000D01*
G54D41*
G01X11107021Y2482959D02*
G01X11190000Y2399980D01*
G01X11190000Y2150000D02*
G01X11190000Y2399980D01*
G54D11*
G01X5090120Y3780000D02*
G01X5700000Y3780000D01*
G01X4785060Y4085060D02*
G01X5090120Y3780000D01*
G54D41*
G01X8052000Y4340000D02*
G01X8052000Y4738000D01*
G01X11628000Y4340000D02*
G01X11633999Y4345999D01*
G01X8814000Y4340000D02*
G01X8818000Y4344000D01*
G01X7930000Y4440000D02*
G01X7970000Y4480000D01*
G01X7930000Y4090000D02*
G01X7930000Y4440000D01*
G01X10750000Y4432000D02*
G01X10780000Y4462000D01*
G01X10750000Y4090000D02*
G01X10750000Y4432000D01*
G01X11394000Y4236000D02*
G01X11442400Y4187600D01*
G01X11394000Y4236000D02*
G01X11394000Y4340000D01*
G54D12*
G01X12737998Y3150000D02*
G01X12739998Y3152001D01*
G54D41*
G01X6740000Y5470000D02*
G01X6740000Y5710000D01*
G01X6650000Y5800000D02*
G01X6740000Y5710000D01*
G01X6650000Y5800000D02*
G01X6650000Y6080000D01*
G01X8058000Y5800000D02*
G01X8058000Y6080000D01*
G01X8058000Y5800000D02*
G01X8148000Y5710000D01*
G01X8148000Y5489989D02*
G01X8148000Y5710000D01*
G01X9465999Y5800000D02*
G01X9465999Y6080000D01*
G01X9465999Y5800000D02*
G01X9555999Y5710000D01*
G01X9555999Y5470000D02*
G01X9555999Y5710000D01*
G01X10873999Y5800000D02*
G01X10873999Y6080000D01*
G01X10963999Y5710000D02*
G01X10873999Y5800000D01*
G01X10963999Y5430000D02*
G01X10963999Y5710000D01*
G01X10886000Y4084000D02*
G01X10886000Y4130000D01*
G01X10886000Y4340000D01*
G01X9715000Y4160000D02*
G01X9715000Y4460000D01*
G01X9969000Y4160000D02*
G01X9969000Y4460000D01*
G54D39*
G01X7049963Y6089962D02*
G01X7049963Y6999963D01*
G01X7255996Y7205997D01*
G01X7255996Y7350000D01*
G01X7150039Y6020039D02*
G01X7150039Y6089962D01*
G01X7100000Y5970000D02*
G01X7150039Y6020039D01*
G01X6970000Y5970000D02*
G01X7100000Y5970000D01*
G01X6900000Y6040000D02*
G01X6970000Y5970000D01*
G01X6900000Y6040000D02*
G01X6900000Y7050000D01*
G01X7001996Y7151996D01*
G01X7001996Y7350000D01*
G01X6775000Y5830000D02*
G01X7150000Y5830000D01*
G01X7278114Y5958114D01*
G01X7278114Y6998114D02*
G01X7509996Y7229996D01*
G01X7509996Y7350000D01*
G01X7278114Y5958114D02*
G01X7278114Y6998114D01*
G01X7430707Y5825707D02*
G01X7430707Y6890707D01*
G01X7680000Y7140000D01*
G01X7640000Y7530000D02*
G01X7680000Y7490000D01*
G01X6830000Y7530000D02*
G01X7640000Y7530000D01*
G01X6747996Y7447997D02*
G01X6830000Y7530000D01*
G01X6747996Y7350000D02*
G01X6747996Y7447997D01*
G01X7680000Y7140000D02*
G01X7680000Y7490000D01*
G01X8457962Y6089962D02*
G01X8457962Y7107962D01*
G01X8533996Y7183997D01*
G01X8533996Y7350000D01*
G01X8558038Y6028038D02*
G01X8558038Y6089962D01*
G01X8510000Y5980000D02*
G01X8558038Y6028038D01*
G01X8400000Y5980000D02*
G01X8510000Y5980000D01*
G01X8279996Y6100004D02*
G01X8279996Y7350000D01*
G01X8279996Y6100004D02*
G01X8400000Y5980000D01*
G01X8183000Y5830000D02*
G01X8530000Y5830000D01*
G01X8686114Y5986114D01*
G01X8686114Y7046114D01*
G01X8787996Y7147996D01*
G01X8787996Y7350000D01*
G01X8970000Y7130000D02*
G01X8970000Y7470000D01*
G01X8910000Y7530000D02*
G01X8970000Y7470000D01*
G01X8090000Y7530000D02*
G01X8910000Y7530000D01*
G01X8025996Y7465996D02*
G01X8090000Y7530000D01*
G01X8025996Y7350000D02*
G01X8025996Y7465996D01*
G01X8838707Y5825707D02*
G01X8838707Y6998707D01*
G01X8970000Y7130000D01*
G01X9555996Y6399928D02*
G01X9865962Y6089962D01*
G01X9555996Y6399928D02*
G01X9555996Y7350000D01*
G01X9590999Y5830000D02*
G01X9590999Y6159001D01*
G01X9301996Y6448004D02*
G01X9590999Y6159001D01*
G01X9301996Y6448004D02*
G01X9301996Y7350000D01*
G01X11530000Y5950414D02*
G01X11654706Y5825707D01*
G01X11341996Y7160000D02*
G01X11341996Y7350000D01*
G01X11341996Y7160000D02*
G01X11530000Y6971996D01*
G01X11530000Y5950414D02*
G01X11530000Y6971996D01*
G01X11374038Y6089962D02*
G01X11374038Y6139988D01*
G01X11374038Y6195962D01*
G01X11087996Y7206842D02*
G01X11087996Y7350000D01*
G01X11087996Y7206842D02*
G01X11374038Y6920801D01*
G01X11374038Y6195962D02*
G01X11374038Y6920801D01*
G01X11240000Y6123924D02*
G01X11273962Y6089962D01*
G01X10833996Y7250842D02*
G01X10833996Y7350000D01*
G01X10833996Y7250842D02*
G01X11240000Y6844838D01*
G01X11240000Y6123924D02*
G01X11240000Y6844838D01*
G01X10579996Y7300004D02*
G01X10579996Y7350000D01*
G01X10579996Y7300004D02*
G01X10998999Y6881001D01*
G01X10998999Y5830000D02*
G01X10998999Y6881001D01*
G54D12*
G01X1680000Y7220000D02*
G01X1740001Y7220000D01*
G54D41*
G01X7299962Y5019962D02*
G01X7340000Y5060000D01*
G01X7150039Y5019962D02*
G01X7299962Y5019962D01*
G01X7709999Y5080001D02*
G01X8052000Y4738000D01*
G01X7600000Y5080001D02*
G01X7709999Y5080001D01*
G01X7450000Y5190001D02*
G01X7710000Y5190001D01*
G01X8560000Y4340000D01*
G01X8694028Y5004028D02*
G01X8750000Y5060000D01*
G01X8595972Y5004028D02*
G01X8694028Y5004028D01*
G01X9000000Y5090000D02*
G01X9318000Y5090000D01*
G01X9461000Y4450000D02*
G01X9461000Y4460000D01*
G01X9461000Y4947000D01*
G01X9318000Y5090000D02*
G01X9461000Y4947000D01*
G01X10223000Y4460000D02*
G01X10223000Y4943000D01*
G01X10270000Y4990000D01*
G01X10110000Y5060000D02*
G01X10110000Y5110000D01*
G01X10030000Y4980000D02*
G01X10110000Y5060000D01*
G01X9969000Y4460000D02*
G01X9969000Y4809000D01*
G01X10260000Y5100000D01*
G01X10260000Y5170000D01*
G01X8860000Y5160000D02*
G01X9330000Y5160000D01*
G01X9681000Y4809000D02*
G01X9969000Y4809000D01*
G01X9330000Y5160000D02*
G01X9681000Y4809000D01*
G01X10150000Y4310000D02*
G01X10090000Y4370000D01*
G01X10320000Y4310000D02*
G01X10150000Y4310000D01*
G01X10530000Y4520000D02*
G01X10320000Y4310000D01*
G01X10530000Y4990000D02*
G01X10530000Y4520000D01*
G01X10410000Y5110000D02*
G01X10530000Y4990000D01*
G01X11500000Y4980000D02*
G01X11570000Y5050000D01*
G01X11440000Y4980000D02*
G01X11500000Y4980000D01*
G01X11660000Y4352000D02*
G01X11660000Y4990000D01*
G01X11648000Y4340000D02*
G01X11660000Y4352000D01*
G01X11740000Y5060000D02*
G01X11780400Y5019600D01*
G01X7080000Y5090000D02*
G01X7230000Y5090000D01*
G01X7400000Y5260000D01*
G01X7720000Y5260000D01*
G01X7890000Y5090000D01*
G01X8488000Y5090000D01*
G01X8640000Y5090000D01*
G01X8780000Y5230000D01*
G01X9350000Y5230000D01*
G01X9490000Y5090000D01*
G01X9896000Y5090000D01*
G01X9970000Y5090000D01*
G01X10120000Y5240000D01*
G01X9825999Y5160000D02*
G01X9955426Y5160000D01*
G01X10085426Y5290000D01*
G01X9510000Y5160000D02*
G01X9825999Y5160000D01*
G01X8750000Y5280000D02*
G01X9390000Y5280000D01*
G01X8630000Y5160000D02*
G01X8750000Y5280000D01*
G01X8418000Y5160000D02*
G01X8630000Y5160000D01*
G01X9390000Y5280000D02*
G01X9510000Y5160000D01*
G01X7910000Y5160000D02*
G01X8418000Y5160000D01*
G01X7220000Y5160000D02*
G01X7370000Y5310000D01*
G01X7010000Y5160000D02*
G01X7220000Y5160000D01*
G01X7370000Y5310000D02*
G01X7760000Y5310000D01*
G01X7910000Y5160000D01*
G01X6940000Y5230000D02*
G01X7200000Y5230000D01*
G01X7330000Y5360000D01*
G01X7790000Y5360000D01*
G01X7920000Y5230000D01*
G01X8348000Y5230000D01*
G01X8620000Y5230000D01*
G01X8720000Y5330000D01*
G01X9420000Y5330000D01*
G01X9520000Y5230000D01*
G01X9756000Y5230000D01*
G01X8148000Y5470000D02*
G01X8148000Y5489989D01*
G01X8148000Y5420000D02*
G01X8158000Y5410000D01*
G01X8148000Y5420000D02*
G01X8148000Y5489989D01*
G01X11840000Y4960000D02*
G01X11960000Y5080000D01*
G01X11303999Y5090000D02*
G01X11460000Y5090000D01*
G01X11530000Y5160000D01*
G01X12010000Y5160000D01*
G01X12050000Y5120000D01*
G01X11233999Y5160000D02*
G01X11440000Y5160000D01*
G01X11490000Y5210000D01*
G01X12040000Y5210000D01*
G01X12110000Y5140000D01*
G01X11163999Y5230000D02*
G01X11420000Y5230000D01*
G01X11460000Y5270000D01*
G01X12070000Y5270000D01*
G01X12170000Y5170000D01*
G01X11510000Y4070000D02*
G01X11426000Y3986000D01*
G01X11426000Y3909999D01*
G01X11442400Y4187600D02*
G01X11707600Y4187600D01*
G01X11780400Y4260400D01*
G01X11780400Y5019600D01*
G01X10886000Y4130000D02*
G01X11730000Y4130000D01*
G01X11840000Y4240000D01*
G01X11840000Y4960000D01*
G01X11750000Y4070000D02*
G01X11510000Y4070000D01*
G01X12050000Y4370000D02*
G01X11750000Y4070000D01*
G01X12050000Y5120000D02*
G01X12050000Y4370000D01*
G01X12110000Y4339999D02*
G01X11680000Y3909999D01*
G01X12110000Y5140000D02*
G01X12110000Y4339999D01*
G01X12170000Y5170000D02*
G01X12170000Y4145999D01*
G01X11934000Y3909999D01*
G01X11426000Y3655999D02*
G01X11680000Y3655999D01*
G01X11934000Y3655999D01*
G01X9969000Y4160000D02*
G01X9980000Y4149000D01*
G01X9461000Y4160000D02*
G01X9505000Y4116000D01*
G01X9461000Y4140000D02*
G01X9461000Y4160000D01*
G01X9461000Y4450000D01*
G01X9969000Y4089000D02*
G01X9969000Y4160000D01*
G01X9820000Y3940000D02*
G01X9969000Y4089000D01*
G01X9461000Y4160000D02*
G01X9590000Y4031000D01*
G01X9590000Y3870000D02*
G01X9590000Y4031000D01*
G01X9320000Y4537000D02*
G01X9380000Y4597000D01*
G01X8560000Y4010000D02*
G01X8560000Y4020000D01*
G01X8560000Y4340000D01*
G01X9320000Y3830000D02*
G01X9320000Y4090000D01*
G01X9320000Y4537000D01*
G01X9320000Y3830000D02*
G01X9380000Y3770000D01*
G01X7610000Y3040000D02*
G01X8130000Y3040000D01*
G01X7880000Y2940000D02*
G01X8130000Y2940000D01*
G01X7760000Y2820000D02*
G01X7880000Y2940000D01*
G01X8780000Y2480000D02*
G01X8920000Y2340000D01*
G01X9050000Y2340000D01*
G01X9150000Y2240000D01*
G01X9530000Y2240000D01*
G01X9620000Y2330000D01*
G01X7190000Y3140000D02*
G01X7810011Y3140000D01*
G01X7410000Y4550000D02*
G01X7410000Y5000000D01*
G01X8052000Y4098000D02*
G01X8052000Y4340000D01*
G01X8052000Y4098000D02*
G01X8130000Y4020000D01*
G01X8110000Y3270000D02*
G01X8230000Y3150000D01*
G01X8230000Y2930000D02*
G01X8230000Y3150000D01*
G01X8130000Y2830000D02*
G01X8230000Y2930000D01*
G01X7280000Y4420000D02*
G01X7400000Y4540000D01*
G01X7230000Y4420000D02*
G01X7280000Y4420000D01*
G54D42*
G01X9210000Y2930000D02*
G01X9365000Y3085000D01*
G01X9365000Y3355000D01*
G54D41*
G01X8530005Y1949995D02*
G01X8612002Y1867998D01*
G01X8612002Y1630000D02*
G01X8612002Y1867998D01*
G01X8290000Y1870000D02*
G01X8358002Y1801998D01*
G01X8358002Y1630000D02*
G01X8358002Y1801998D01*
G01X9290000Y2900000D02*
G01X9830000Y2900000D01*
G01X10240000Y2490000D01*
G01X10240000Y1800000D02*
G01X10240000Y2490000D01*
G01X7610000Y2630000D02*
G01X7540000Y2630000D01*
G01X7120000Y3050000D01*
G54D11*
G01X7090002Y1774000D02*
G01X7706002Y1774000D01*
G01X7850002Y1630000D01*
G01X7850002Y1376000D02*
G01X7850002Y1630000D01*
G54D41*
G01X8040000Y3840000D02*
G01X8200000Y3840000D01*
G01X7970000Y3910000D02*
G01X8040000Y3840000D01*
G54D39*
G01X6800000Y3410000D02*
G01X7240000Y3410000D01*
G54D12*
G01X6120000Y3780000D02*
G01X6290000Y3610000D01*
G01X5700000Y3780000D02*
G01X6120000Y3780000D01*
G54D41*
G01X9360001Y3460000D02*
G01X10129980Y3460000D01*
G54D12*
G01X6290000Y3610000D02*
G01X10240000Y3610000D01*
G01X11010000Y2840000D02*
G01X11070000Y2840000D01*
G01X10240000Y3610000D02*
G01X11010000Y2840000D01*
G54D41*
G01X7120000Y3050000D02*
G01X7120000Y3280000D01*
G01X8102002Y1120000D02*
G01X8358002Y1376000D01*
G01X9940000Y2340000D02*
G01X10040000Y2240000D01*
G01X10040000Y1700000D02*
G01X10040000Y2240000D01*
G54D11*
G01X3956000Y1774000D02*
G01X4030002Y1774000D01*
G01X3710000Y2020000D02*
G01X3956000Y1774000D01*
G54D41*
G01X8010000Y1870000D02*
G01X8290000Y1870000D01*
G01X7850000Y2030000D02*
G01X8010000Y1870000D01*
G01X7940000Y2080000D02*
G01X8070005Y1949995D01*
G01X8530005Y1949995D01*
G54D42*
G01X6890000Y1900000D02*
G01X7540000Y1900000D01*
G01X8570000Y2930000D01*
G01X9210000Y2930000D01*
G54D41*
G01X7760000Y2580000D02*
G01X7760000Y2820000D01*
G01X7610000Y2430000D02*
G01X7760000Y2580000D01*
G01X7510000Y1970000D02*
G01X8170000Y2630000D01*
G01X6950000Y1970000D02*
G01X7510000Y1970000D01*
G01X7480000Y2050000D02*
G01X8171276Y2741276D01*
G01X6890000Y2050000D02*
G01X7480000Y2050000D01*
G01X4756000Y2900000D02*
G01X5060000Y2900000D01*
G01X4663840Y2807840D02*
G01X4756000Y2900000D01*
G01X4530000Y2770000D02*
G01X4530000Y2884000D01*
G01X4530000Y2770000D02*
G01X4590000Y2710000D01*
G01X5060000Y2710000D01*
G01X5079990Y1120000D02*
G01X8102002Y1120000D01*
G01X5079990Y1120000D02*
G01X5079990Y1869990D01*
G01X5190000Y1980000D01*
G54D11*
G01X4260000Y4610120D02*
G01X4785060Y4085060D01*
G01X4260000Y6260000D02*
G01X4260000Y4610120D01*
G01X4390000Y6390000D02*
G01X4260000Y6260000D01*
G01X5242780Y6390000D02*
G01X4390000Y6390000D01*
G54D41*
G01X3949999Y6850000D02*
G01X4060000Y6850000D01*
G01X3619999Y7180000D02*
G01X3949999Y6850000D01*
G54D40*
G01X1506578Y7046578D02*
G01X1680000Y7220000D01*
G01X6250000Y7500000D02*
G01X6573376Y7176623D01*
G01X6573376Y7034838D02*
G01X6573376Y7074838D01*
G01X6573376Y7176623D02*
G01X6573376Y7074838D01*
G54D43*
G01X1240000Y7498155D02*
G01X1240000Y7313156D01*
G54D40*
G01X1740001Y7280000D02*
G01X1960000Y7500000D01*
G01X6250000Y7500000D01*
G54D12*
G01X1680000Y7220000D02*
G01X1740001Y7280000D01*
G54D41*
G01X8818000Y4344000D02*
G01X8818000Y5000000D01*
G54D43*
G01X1240000Y7313156D02*
G01X1506578Y7046578D01*
G54D41*
G01X10129980Y3460000D02*
G01X11107021Y2482959D01*
G01X9135000Y3235000D02*
G01X9360001Y3460000D01*
G54D40*
G01X790010Y6448166D02*
G01X908166Y6448166D01*
G01X1506578Y7046578D01*
G54D44*
G01X5323502Y1774000D02*
G01X5480000Y1930498D01*
G01X5260002Y1774000D02*
G01X5323502Y1774000D01*
G01X5480000Y1930498D02*
G01X5778598Y1930498D01*
G01X6019800Y2171700D01*
G54D39*
G01X6286500Y2997200D02*
G01X6286500Y2438400D01*
G01X6699300Y3410000D02*
G01X6286500Y2997200D01*
G01X6800000Y3410000D02*
G01X6699300Y3410000D01*
G54D41*
G01X9940000Y5230000D02*
G01X10050000Y5340000D01*
G01X9756000Y5230000D02*
G01X9940000Y5230000D01*
G01X10050000Y5340000D02*
G01X10489628Y5340000D01*
G01X10599628Y5230000D01*
G01X11163999Y5230000D01*
G01X10085426Y5290000D02*
G01X10463135Y5290000D01*
G01X10593135Y5160000D01*
G01X11233999Y5160000D01*
G01X10120000Y5240000D02*
G01X10433342Y5240000D01*
G01X10583342Y5090000D01*
G01X11303999Y5090000D01*
G01X1590000Y1273000D02*
G01X1715299Y1147701D01*
G01X5052289Y1147701D01*
G01X5079990Y1120000D01*
G54D11*
G01X2197909Y1534000D02*
G01X2518815Y1534000D01*
G01X3105031Y2120216D01*
G54D40*
G01X1006390Y3788049D02*
G01X790010Y3788049D01*
G01X3619999Y7180000D02*
G01X1566464Y5126466D01*
G01X1566464Y4348123D01*
G01X1006390Y3788049D01*
G04 Track End*

M02*

