;TYPE=PLATED
;Layer: PTH_Through
;EasyEDA Pro Client v2.2.32.3, 2025-12-05 15:59:02
;Gerber Generator version 0.3
M48
METRIC,LZ,000.00000
;Hole size 1 = 0.30000 METRIC
T01C0.30000
;Hole size 2 = 0.80000 METRIC
T02C0.80000
;Hole size 3 = 0.90000 METRIC
T03C0.90000
;Hole size 4 = 1.00000 METRIC
T04C1.00000
;Hole size 5 = 1.10002 METRIC
T05C1.10002
;Hole size 6 = 1.52400 METRIC
T06C1.52400
;Hole size 7 = 1.80000 METRIC
T07C1.80000
;Hole size 8 = 2.50002 METRIC
T08C2.50002
;Hole size 9 = 3.25003 METRIC
T09C3.25003
%
G05
G90
T01
X15.52738Y-78.03575
X33.63261Y-66.6626
X32.8166Y-65.79559
X59.79595Y-54.98345
X36.48865Y-79.41277
X66.93605Y-54.11644
X42.35373Y-80.17778
X49.64682Y-64.16357
X39.44669Y-78.13775
X56.58291Y-54.06544
X55.15489Y-57.12548
X59.94896Y-57.73749
X61.16503Y-57.63549
X56.73591Y-48.81237
X54.54289Y-52.58642
X58.01093Y-53.40243
X54.64489Y-54.01444
X48.65231Y-64.24007
X41.79272Y-71.04866
X45.77077Y-75.63872
X51.27884Y-78.03575
X37.40666Y-72.57868
X36.59065Y-68.19262
X36.69265Y-67.22361
X44.69976Y-66.76461
X46.28078Y-64.16357
X54.64489Y-64.87758
X32.4596Y-64.16357
X65.25302Y-58.09449
X60.25496Y-67.68262
X53.23798Y-53.86144
X56.93992Y-76.04673
X38.01867Y-66.5096
X35.82564Y-64.31657
X53.0544Y-82.42181
X53.0544Y-85.48185
X45.77077Y-74.3637
X45.00576Y-77.98475
X35.62164Y-75.48572
X47.45379Y-60.03252
X46.79079Y-47.79851
X47.7598Y-34.12418
X45.36277Y-25.76008
X53.47187Y-47.53736
X65.61003Y-29.78913
X60.40796Y-31.16615
X60.81597Y-29.63613
X45.51577Y-16.93696
X49.69782Y-16.68196
X61.93798Y-29.17712
X62.85599Y-28.82012
X54.08388Y-15.35594
X40.3137Y-51.46441
X38.98768Y-54.77945
X44.64876Y-32.69617
X45.10776Y-34.17518
X41.84372Y-33.99256
X41.84372Y-41.06027
X45.20976Y-38.25524
X41.89472Y-32.08416
X40.3137Y-32.08416
X41.89472Y-30.74237
X35.90214Y-55.00896
X18.38342Y-80.27978
X20.98445Y-78.23975
X-4.51588Y-61.10353
X19.60743Y-43.71231
X19.65843Y-46.51734
X23.68749Y-66.1016
X22.87148Y-65.38759
X18.33242Y-43.81431
X18.58742Y-47.18035
X10.47832Y-27.13709
X19.7756Y-18.46698
X18.53642Y-19.691
X60.96897Y-46.26234
X59.03094Y-60.84853
X51.27884Y-71.09966
X46.79079Y-71.35467
X56.99092Y-57.32948
X63.315Y-56.20747
X64.99802Y-57.12548
X50.51383Y-35.2972
X40.5177Y-75.23072
X42.30273Y-75.53672
X57.14392Y-66.81561
X53.26787Y-70.53865
X49.74882Y-74.41471
X40.72171Y-71.55867
X38.37568Y-74.97571
X33.47961Y-76.76074
X32.8166Y-69.87565
X53.74466Y-37.26047
X54.40767Y-36.03645
X54.69667Y-37.26047
X55.35968Y-36.03645
X55.64869Y-37.26047
X56.3117Y-36.03645
X56.6007Y-37.26047
X57.26371Y-36.03645
X53.54066Y-39.6065
X54.20367Y-38.38248
X54.49267Y-39.6065
X55.15568Y-38.38248
X55.44468Y-39.6065
X56.10769Y-38.38248
X56.3967Y-39.6065
X57.05971Y-38.38248
X53.69366Y-42.00353
X54.35667Y-40.77951
X54.64567Y-42.00353
X55.30868Y-40.77951
X55.59769Y-42.00353
X56.2607Y-40.77951
X56.5497Y-42.00353
X57.21271Y-40.77951
X54.10167Y-44.65556
X54.76468Y-43.43155
X55.05368Y-44.65556
X55.71669Y-43.43155
X56.00569Y-44.65556
X56.6687Y-43.43155
X56.9577Y-44.65556
X57.62071Y-43.43155
X58.64073Y-39.8615
X59.30373Y-38.63748
X59.59274Y-39.8615
X60.25575Y-38.63748
X60.54475Y-39.8615
X61.20776Y-38.63748
X61.49676Y-39.8615
X62.15977Y-38.63748
X59.60974Y-42.05453
X60.27275Y-40.83051
X60.56175Y-42.05453
X61.22476Y-40.83051
X61.51376Y-42.05453
X62.17677Y-40.83051
X62.46578Y-42.05453
X63.12878Y-40.83051
X65.37281Y-45.72658
X66.03582Y-44.50256
X66.32483Y-45.72658
X66.98783Y-44.50256
X67.27684Y-45.72658
X67.93985Y-44.50256
X68.22885Y-45.72658
X68.89186Y-44.50256
X63.79179Y-48.32761
X64.4548Y-47.10359
X64.7438Y-48.32761
X65.40681Y-47.10359
X65.69582Y-48.32761
X66.35883Y-47.10359
X66.64783Y-48.32761
X67.31084Y-47.10359
X21.03624Y-56.58972
X11.77112Y-61.28178
X12.28113Y-62.04679
X12.72313Y-61.28178
X13.23314Y-62.04679
X13.67514Y-61.28178
X14.18515Y-62.04679
X14.62716Y-61.28178
X15.13716Y-62.04679
X4.58003Y-62.50579
X8.04807Y-61.84278
X5.17503Y-61.89379
X5.83804Y-60.66977
X6.12705Y-61.89379
X6.79006Y-60.66977
X7.07906Y-61.89379
X7.74207Y-60.66977
X-11.79119Y-86.2211
X-10.83917Y-86.2211
X-9.88716Y-86.2211
X-8.93515Y-86.2211
X1.87699Y-95.40122
X2.54Y-94.1772
X2.829Y-95.40122
X3.49201Y-94.1772
X3.78102Y-95.40122
X4.44402Y-94.1772
X4.73303Y-95.40122
X5.39604Y-94.1772
X-2.91707Y-95.45222
X3.35601Y-89.43414
X-1.96506Y-95.45222
X6.80706Y-89.63814
X-1.01305Y-95.45222
X4.90303Y-89.28114
X-0.06103Y-95.45222
X6.67105Y-91.67817
X-19.08428Y-88.46513
X-18.42127Y-87.24111
X-18.13227Y-88.46513
X-17.46926Y-87.24111
X-17.18026Y-88.46513
X-16.51725Y-87.24111
X-16.22824Y-88.46513
X-15.56523Y-87.24111
X43.54379Y-60.96553
X37.76367Y-64.41858
X40.0587Y-64.31657
X45.13389Y-64.23945
X44.64876Y-58.7575
X40.82371Y-59.93052
X50.56483Y-66.71361
X46.28078Y-73.19069
X46.89279Y-72.68068
X47.40279Y-70.23265
X47.30079Y-68.70263
X5.50549Y-56.64869
X21.8257Y-55.78168
X5.50549Y-55.69668
X6.1175Y-56.25768
X5.50549Y-54.74466
X6.1175Y-55.30567
X5.50549Y-53.79265
X6.1175Y-54.35366
X21.1627Y-61.08575
X19.93868Y-60.42274
X21.1627Y-60.13373
X21.8257Y-58.65471
X21.1627Y-59.18172
X20.09168Y-61.32375
X21.1627Y-58.22971
X21.7747Y-57.2097
X28.05576Y-58.63026
X27.10374Y-58.63026
X26.15173Y-58.63026
X25.19972Y-58.63026
X36.01186Y-49.65414
X35.04285Y-47.97112
X41.38393Y-46.2371
X35.92686Y-47.10411
X34.56684Y-46.79811
X37.16787Y-48.53213
X38.9189Y-46.4411
X36.21586Y-48.53213
X40.38994Y-36.14642
X47.98904Y-37.98245
X40.38994Y-35.19441
X39.16593Y-34.5314
X40.38994Y-34.2424
X39.16593Y-33.57939
X40.38994Y-33.29039
X39.16593Y-32.62738
X40.23935Y-41.87086
X39.01533Y-41.20785
X40.23935Y-40.91885
X39.01533Y-40.25584
X40.23935Y-39.96683
X39.01533Y-39.30383
X40.23935Y-39.01482
X39.01533Y-38.35181
X41.0115Y-18.74723
X44.12254Y-19.15523
X56.4137Y-14.20817
X56.5157Y-13.34116
X54.93468Y-13.13715
X48.5089Y-16.54585
X44.10703Y-16.66665
X21.88625Y-25.22431
X52.07864Y-22.11327
X51.67064Y-20.68525
X52.23164Y-21.34826
X1.07038Y-66.97692
X1.70733Y-66.97692
X2.34427Y-66.97692
X2.98122Y-66.97692
X1.07038Y-67.59725
X1.70733Y-67.59725
X2.34427Y-67.59725
X2.98122Y-67.59725
X1.07038Y-68.21758
X1.70733Y-68.21758
X2.34427Y-68.21758
X2.98122Y-68.21758
X1.07038Y-68.8379
X1.70733Y-68.8379
X2.34427Y-68.8379
X2.98122Y-68.8379
X1.07038Y-69.45823
X1.70733Y-69.45823
X2.34427Y-69.45823
X2.98122Y-69.45823
X-1.94806Y-65.61683
X-0.99605Y-65.61683
X-0.04403Y-65.61683
X-1.13205Y-64.54582
X2.421Y-65.41283
X1.28198Y-65.36183
X-1.18305Y-62.14879
X-0.07803Y-61.33278
X5.56604Y-62.8118
X-2.0426Y-68.58284
X-2.0426Y-67.63083
X-2.0426Y-66.67882
X-2.14461Y-71.38788
X-2.14461Y-70.43587
X-2.14461Y-69.48385
X-1.31124Y-71.11731
X-0.35923Y-71.11731
X0.59278Y-71.11731
X-2.61107Y-72.70593
X-1.65905Y-72.70593
X-0.70704Y-72.70593
X0.14968Y-72.08713
X1.10169Y-72.08713
X2.05371Y-72.08713
X-1.48905Y-73.82794
X-0.53704Y-73.82794
X0.41497Y-73.82794
X-1.89706Y-74.89895
X-0.94505Y-74.89895
X0.00697Y-74.89895
X-1.43317Y-75.66563
X-0.48116Y-75.66563
X0.47085Y-75.66563
X-2.04827Y-76.57625
X-1.09626Y-76.57625
X-0.14425Y-76.57625
X-1.74406Y-79.03001
X-0.79204Y-79.03001
X0.15997Y-79.03001
X-1.76027Y-79.82026
X-0.80826Y-79.82026
X0.14376Y-79.82026
X-1.77648Y-80.68919
X-0.82447Y-80.68919
X0.12754Y-80.68919
X-6.9137Y-21.19577
X-6.9137Y-24.65244
X-6.9137Y-23.50022
X-6.9137Y-22.348
X-26.19195Y-11.26948
X-0.79362Y-28.89491
X-25.06993Y-10.66688
X-25.06993Y-11.81911
X5.63247Y-21.85878
X6.24447Y-19.29737
X6.24447Y-18.14515
X6.24447Y-16.99293
X4.91846Y-17.89956
X4.96946Y-19.35779
X-7.0157Y-18.82699
X-7.0157Y-19.97921
X-48.55521Y-0.03521
X-52.01187Y-0.03521
X-50.85965Y-0.03521
X-49.70743Y-0.03521
X-53.1641Y-0.03521
X-34.42606Y-0.59622
X-35.57829Y-0.59622
X-36.73051Y-0.59622
X-49.5603Y-1.58317
X-53.01697Y-1.58317
X-51.86475Y-1.58317
X-50.71253Y-1.58317
X-34.27894Y-2.14417
X-35.43116Y-2.14417
X-36.58338Y-2.14417
X-37.73561Y-2.14417
X-50.64623Y-2.96199
X-34.21264Y-3.523
X-52.95068Y-2.96199
X-51.79846Y-2.96199
X-35.36487Y-3.523
X-36.51709Y-3.523
X-37.66931Y-3.523
X-38.82154Y-3.523
X-19.84183Y-8.77607
X-23.2985Y-8.77607
X-20.20826Y-10.76509
X-20.99406Y-8.77607
X-24.45073Y-8.77607
X-26.46996Y-8.77607
X-20.58409Y-9.79608
X-28.0094Y-8.36806
X16.67464Y-0.00395
X13.21797Y-0.00395
X14.37019Y-0.00395
X15.52241Y-0.00395
X12.06575Y-0.00395
X10.91352Y-0.00395
X9.7613Y-0.00395
X8.60908Y-0.00395
X48.55005Y-2.34999
X23.5201Y-0.00395
X46.2456Y-2.34999
X47.39783Y-2.34999
X22.36788Y-0.00395
X21.21566Y-0.00395
X20.06343Y-0.00395
X18.91121Y-0.00395
X35.39188Y-1.12597
X31.93521Y-1.12597
X33.08743Y-1.12597
X34.23966Y-1.12597
X30.78299Y-1.12597
X29.63077Y-1.12597
X28.47854Y-1.12597
X27.32632Y-1.12597
X33.55586Y-10.30609
X30.09919Y-10.30609
X31.25141Y-10.30609
X32.40363Y-10.30609
X28.94697Y-10.30609
X27.79474Y-10.30609
X26.64252Y-10.30609
X25.4903Y-10.30609
X32.94385Y-11.4281
X29.48718Y-11.4281
X30.6394Y-11.4281
X31.79163Y-11.4281
X28.33496Y-11.4281
X27.18273Y-11.4281
X26.03051Y-11.4281
X24.87829Y-11.4281
X32.84185Y-12.49912
X29.38518Y-12.49912
X30.5374Y-12.49912
X31.68962Y-12.49912
X28.23296Y-12.49912
X27.08073Y-12.49912
X25.92851Y-12.49912
X24.77629Y-12.49912
X45.18401Y2.03607
X41.72734Y2.03607
X42.87956Y2.03607
X44.03178Y2.03607
X40.57512Y2.03607
X39.42289Y2.03607
X38.27067Y2.03607
X37.11845Y2.03607
X58.85218Y1.98507
X55.39552Y1.98507
X56.54774Y1.98507
X57.69996Y1.98507
X54.24329Y1.98507
X53.09107Y1.98507
X51.93885Y1.98507
X50.78662Y1.98507
X68.73539Y-8.95544
X66.34973Y-8.03743
X67.50196Y-8.03743
X67.83817Y-17.42155
X65.19751Y-8.03743
X64.04529Y-8.03743
X62.89306Y-8.03743
X54.49875Y-2.07035
X69.06062Y-18.49256
X65.60396Y-18.49256
X66.75618Y-18.49256
X67.9084Y-18.49256
X64.45173Y-18.49256
X63.29951Y-18.49256
X67.24735Y-19.86958
X66.19713Y-17.26855
X69.71532Y-66.10081
X66.25866Y-66.10081
X62.71882Y-67.63083
X61.67801Y-67.68183
X65.10643Y-66.10081
X63.95421Y-66.10081
X64.74001Y-67.17182
X63.48579Y-66.96782
X62.0256Y-72.9349
X61.02638Y-74.41392
X48.19501Y-85.37906
X49.18481Y-85.27706
X50.63362Y-85.17506
X52.48848Y-71.91489
X52.81527Y-72.9859
X63.1892Y-75.17893
X62.03698Y-75.17893
X60.88476Y-75.17893
X69.81733Y-76.35194
X66.00365Y-85.02206
X67.51288Y-76.35194
X68.6651Y-76.35194
X53.37628Y-74.51592
X52.22406Y-74.51592
X62.90399Y-76.35194
X63.53679Y-77.16795
X63.91263Y-86.65408
X63.12682Y-87.06208
X68.98248Y-86.50107
X67.83026Y-86.50107
X66.67804Y-86.50107
X65.52582Y-86.50107
X60.0252Y-88.4901
X58.87298Y-88.4901
X61.17938Y-87.57209
X60.83434Y-86.40149
X62.04639Y-85.94007
X36.76144Y-85.9151
X37.42445Y-84.69108
X37.71346Y-85.9151
X38.37646Y-84.69108
X38.66547Y-85.9151
X39.32848Y-84.69108
X39.61748Y-85.9151
X40.28049Y-84.69108
X36.20044Y-88.56713
X36.86344Y-87.34311
X37.15245Y-88.56713
X37.81546Y-87.34311
X38.10446Y-88.56713
X38.76747Y-87.34311
X39.05647Y-88.56713
X39.71948Y-87.34311
X43.79953Y-86.0171
X44.46254Y-84.79308
X44.75155Y-86.0171
X45.41455Y-84.79308
X45.70356Y-86.0171
X46.36657Y-84.79308
X46.65557Y-86.0171
X47.31858Y-84.79308
X43.23853Y-88.66913
X43.90154Y-87.44512
X44.19054Y-88.66913
X44.85355Y-87.44512
X45.14255Y-88.66913
X45.80556Y-87.44512
X46.09456Y-88.66913
X46.75757Y-87.44512
X40.43349Y-91.88217
X41.0965Y-90.65816
X41.3855Y-91.88217
X42.04851Y-90.65816
X42.33752Y-91.88217
X43.00052Y-90.65816
X43.28953Y-91.88217
X43.95254Y-90.65816
X39.87248Y-94.53421
X40.53549Y-93.31019
X40.8245Y-94.53421
X41.4875Y-93.31019
X41.77651Y-94.53421
X42.43952Y-93.31019
X42.72852Y-94.53421
X43.39153Y-93.31019
X47.52258Y-88.10812
X48.18559Y-86.88411
X48.47459Y-88.10812
X49.1376Y-86.88411
X49.42661Y-88.10812
X50.08962Y-86.88411
X50.37862Y-88.10812
X51.04163Y-86.88411
X46.96157Y-90.76016
X47.62458Y-89.53614
X47.91359Y-90.76016
X48.5766Y-89.53614
X48.8656Y-90.76016
X49.52861Y-89.53614
X49.81761Y-90.76016
X50.48062Y-89.53614
X7.32048Y-77.46257
X7.98349Y-76.23855
X8.27249Y-77.46257
X8.9355Y-76.23855
X9.2245Y-77.46257
X9.88751Y-76.23855
X10.17652Y-77.46257
X10.83952Y-76.23855
X6.75947Y-80.1146
X7.42248Y-78.89059
X7.71148Y-80.1146
X8.37449Y-78.89059
X8.6635Y-80.1146
X9.3265Y-78.89059
X13.08355Y-80.93062
X14.10357Y-79.6046
X6.92606Y-86.3741
X9.9691Y-83.62007
X10.6321Y-82.39605
X10.92111Y-83.62007
X11.58412Y-82.39605
X11.87312Y-83.62007
X12.53613Y-82.39605
X8.45608Y-86.2721
X9.11909Y-85.04808
X9.40809Y-86.2721
X10.0711Y-85.04808
X10.3601Y-86.2721
X11.02311Y-85.04808
X11.31211Y-86.2721
X11.97512Y-85.04808
X-9.13514Y-92.18344
X-8.18313Y-92.18344
X-7.23112Y-92.18344
X-10.61416Y-95.65148
X-9.66215Y-95.65148
X-8.71013Y-95.65148
X-6.94211Y-95.85549
X-5.9901Y-95.85549
X-5.03809Y-95.85549
X-7.93963Y-94.97995
X-7.93963Y-94.02793
X-7.93963Y-93.07592
X-3.83237Y-95.20118
X-3.83237Y-94.24916
X-3.83237Y-93.29715
X-5.25909Y-84.53334
X-4.30708Y-84.53334
X-3.35507Y-84.53334
X-12.55218Y-87.08337
X-11.60017Y-87.08337
X-10.64816Y-87.08337
X8.25608Y-14.40743
X18.49022Y-10.53138
X11.86116Y-15.63145
X8.12111Y-15.47845
X8.61309Y-17.62047
X8.29009Y-16.49846
X10.24511Y-17.82448
X11.19712Y-17.82448
X12.14913Y-17.82448
X10.04111Y-16.70246
X10.99312Y-16.70246
X11.94513Y-16.70246
X9.93911Y-18.74249
X10.89112Y-18.74249
X11.84313Y-18.74249
X9.7351Y-19.9665
X10.68712Y-19.9665
X11.63913Y-19.9665
X24.10029Y-21.80253
X20.41124Y-23.28155
X21.67666Y-19.72149
X21.18366Y-24.97456
X23.64869Y-21.04751
X5.75705Y-15.27444
X6.70906Y-15.27444
X3.88703Y-15.47845
X5.40005Y-16.70246
X7.42307Y-17.51847
X3.83603Y-16.49846
X4.38003Y-28.68762
X9.3611Y-27.97361
X10.31311Y-27.97361
X4.90704Y-27.7186
X9.6841Y-28.99362
X11.14612Y-28.99362
X5.41705Y-28.68762
X-38.15452Y0.94377
X-37.2025Y0.94377
X-36.25049Y0.94377
X-45.24361Y-2.16727
X-44.2916Y-2.16727
X-43.33958Y-2.16727
X10.60211Y1.09677
X13.39015Y1.19877
X9.3951Y1.09677
X-32.23556Y-10.85303
X-30.60354Y-11.00603
X-38.81465Y-36.65936
X-39.42666Y-37.37337
X29.02673Y-27.08688
X31.33117Y-27.08688
X32.4834Y-27.08688
X33.63562Y-27.08688
X34.78784Y-27.08688
X30.17895Y-27.08688
X26.72228Y-27.08688
X27.87451Y-27.08688
X27.50365Y-18.20425
X27.50365Y-20.5087
X27.50365Y-21.66092
X27.50365Y-22.81314
X27.50365Y-23.96536
X27.50365Y-19.35647
X27.50365Y-15.89981
X27.50365Y-17.05203
X29.02673Y-2.91257
X31.33117Y-2.91257
X32.4834Y-2.91257
X33.63562Y-2.91257
X34.78784Y-2.91257
X30.17895Y-2.91257
X26.72228Y-2.91257
X27.87451Y-2.91257
X8.52529Y-13.26162
X15.95059Y-10.60958
X10.8619Y-15.04664
X13.34014Y-11.52759
X69.68929Y-11.92307
X69.68929Y-14.22752
X69.68929Y-15.37974
X69.68929Y-16.53196
X69.68929Y-17.68418
X69.68929Y-13.07529
X69.68929Y-9.61862
X69.68929Y-10.77085
X69.74029Y-22.1232
X69.74029Y-24.42765
X69.74029Y-25.57987
X69.74029Y-26.73209
X69.74029Y-27.88432
X69.74029Y-23.27542
X68.82228Y-19.81876
X69.74029Y-20.97098
X14.81416Y-70.7679
X15.76617Y-70.7679
X16.71818Y-70.7679
X14.57067Y-69.48306
X15.52268Y-69.48306
X16.47469Y-69.48306
X14.71216Y-68.37087
X15.66417Y-68.37087
X16.61618Y-68.37087
X19.03968Y-69.65311
X19.02268Y-67.35808
X19.97469Y-67.35808
X18.1802Y-70.20689
X19.74422Y-68.47287
X20.69623Y-68.47287
X15.57917Y-71.53291
X16.53118Y-71.53291
X17.48319Y-71.53291
X23.28027Y-70.8189
X24.28328Y-69.08488
X25.23529Y-69.08488
X26.0853Y-70.05389
X24.07928Y-70.20689
X25.03129Y-70.20689
X23.33127Y-71.99192
X24.07928Y-71.37991
X24.92929Y-71.0229
X24.93674Y-61.51075
X24.93674Y-60.55874
X24.93674Y-59.60673
X19.60822Y-62.04679
X20.56023Y-62.04679
X21.51225Y-62.04679
X34.04141Y-58.78275
X34.99342Y-58.78275
X35.94543Y-58.78275
X44.623Y-57.4307
X44.623Y-56.47869
X44.623Y-55.52667
X50.18207Y-55.13567
X50.18207Y-54.18366
X50.18207Y-53.23164
X56.3797Y-46.13458
X57.33171Y-46.13458
X58.28372Y-46.13458
X58.77673Y-44.55356
X59.72874Y-44.55356
X60.68075Y-44.55356
X58.62373Y-37.66847
X59.57574Y-37.66847
X60.52775Y-37.66847
X59.23573Y-36.59746
X60.18775Y-36.59746
X61.13976Y-36.59746
X62.29577Y-37.31147
X63.24779Y-37.31147
X64.1998Y-37.31147
X67.14084Y-28.89636
X68.09285Y-28.89636
X69.04486Y-28.89636
X68.26285Y-31.9054
X69.21486Y-31.9054
X69.80987Y-30.37538
X43.11953Y-28.33535
X43.40853Y-29.20236
X44.36054Y-29.20236
X45.26155Y-41.49352
X38.46146Y-36.08745
X39.41348Y-36.08745
X43.93452Y-36.02075
X45.54955Y-43.10984
X46.50156Y-43.10984
X49.71539Y-35.68899
X51.53441Y-35.68899
X47.94736Y-38.80003
X45.47478Y-37.27001
X44.95533Y-42.62508
X45.49933Y-36.199
X42.96652Y-36.03645
X46.77457Y-32.0074
X47.82859Y-32.0074
X47.96459Y-35.73921
X46.16256Y-39.46226
X47.93059Y-36.81023
X53.57466Y-36.34245
X46.36657Y-34.20043
X49.56261Y-36.54646
X39.85548Y-24.5613
X40.8075Y-24.5613
X41.75951Y-24.5613
X15.17038Y-29.38112
X12.77335Y-29.22812
X16.8534Y-29.17712
X19.25043Y-29.22812
X49.08581Y-46.87435
X46.76528Y-52.56092
X46.73978Y-53.91244
X14.6956Y-14.64193
X-3.56884Y-86.25008
X-15.04399Y-84.41406
X3.82625Y-81.25201
X-24.36428Y-75.30954
X-21.87301Y-75.82787
X-20.34299Y-75.01186
X-16.77295Y-80.82593
X-21.82201Y-79.90792
X-27.8148Y-75.03842
X-17.35026Y-75.56196
X-44.83961Y-74.49095
X-16.39825Y-75.56196
X-43.8876Y-74.49095
X-15.44623Y-75.56196
X-17.79226Y-74.43995
X-42.93559Y-74.49095
X-14.49422Y-75.56196
X-41.98358Y-74.49095
X-13.42242Y-75.50434
X-16.12624Y-78.673
X-15.46323Y-77.44899
X-15.17423Y-78.673
X-14.51122Y-77.44899
X-14.22222Y-78.673
X-16.56825Y-77.55099
X-13.55921Y-77.44899
X-13.2702Y-78.673
X-12.6072Y-77.44899
X-12.1984Y-78.61539
X-25.05136Y-17.52321
X-24.38835Y-16.2992
X-24.09934Y-17.52321
X-23.43634Y-16.2992
X-23.14733Y-17.52321
X-25.49336Y-16.4012
X-22.48432Y-16.2992
X-22.19532Y-17.52321
X-21.53231Y-16.2992
X-21.12352Y-17.46559
X-25.15336Y-14.46317
X-24.49035Y-13.23916
X-24.20135Y-14.46317
X-23.53834Y-13.23916
X-23.24933Y-14.46317
X-25.59536Y-13.34116
X-22.58633Y-13.23916
X-22.29732Y-14.46317
X-21.63431Y-13.23916
X-21.22552Y-14.40555
X-13.1682Y-66.12684
X-12.50519Y-64.90282
X-12.21619Y-66.12684
X-11.55318Y-64.90282
X-11.26418Y-66.12684
X-13.61021Y-65.00483
X-10.60117Y-64.90282
X-10.31217Y-66.12684
X-9.64916Y-64.90282
X-9.24037Y-66.06922
X-10.37202Y-61.4151
X-11.03502Y-62.63912
X-11.32403Y-61.4151
X-11.98703Y-62.63912
X-12.27604Y-61.4151
X-9.93001Y-62.53711
X-12.93905Y-62.63912
X-13.22805Y-61.4151
X-13.89106Y-62.63912
X-14.29985Y-61.47272
X6.86207Y-20.27251
X7.06607Y-19.04849
X7.81408Y-20.27251
X8.01808Y-19.04849
X4.05703Y-27.6166
X6.55606Y-21.39452
X8.63009Y-22.10853
X7.50807Y-21.39452
X3.42802Y-28.53461
X2.71401Y-27.7696
X-29.4844Y-11.7554
X-29.2804Y-10.53138
X-28.53239Y-11.7554
X-28.32839Y-10.53138
X-27.58038Y-11.7554
X-27.37638Y-10.53138
X38.76171Y-48.15259
X30.45436Y-7.98609
X30.74336Y-9.2101
X31.40637Y-7.98609
X31.81517Y-9.15249
X15.73138Y-45.75555
X-7.72892Y-54.67745
X59.62902Y-12.62749
X59.11066Y-14.10769
X59.41667Y-13.34268
X59.67167Y-11.09865
X60.66428Y-11.10529
X7.31627Y-43.86531
X5.48025Y-24.33206
X0.0Y-15.20294
X-6.4336Y-10.10406
X-6.45469Y-10.75947
X-4.85258Y-9.95867
X1.8082Y-5.71682
X-4.41388Y-11.8879
X31.68848Y-18.64891
X-5.58689Y-58.5025
X-3.95487Y-61.46054
X-4.10787Y-60.59353
X-5.07689Y-60.69553
X-8.34093Y-26.83109
X-58.16857Y-17.24297
X-58.11757Y-26.01508
X-58.16857Y-30.55414
X38.96454Y-18.92908
X35.24842Y-35.11844
X33.7184Y-35.27144
X35.55443Y-42.10553
X36.42144Y-42.51353
X41.89472Y-37.89823
X22.17525Y-11.63211
X21.76725Y-10.8671
X17.13364Y-10.35709
X36.57444Y-35.47544
X32.29039Y-35.42444
X40.19549Y-30.93638
X39.39351Y-31.60939
X41.92951Y-39.04549
X14.38239Y-49.06738
X57.09292Y-20.099
X60.45896Y-18.67098
X63.672Y-16.78396
X-30.05132Y-55.28946
X-30.84183Y-73.01219
X-35.15139Y-68.24867
X-4.60199Y-68.35067
X-3.07198Y-42.54433
X-14.70013Y-37.08222
X-11.84409Y-36.16421
X-37.08063Y-35.18034
X-35.80561Y-35.43534
X-40.44667Y-38.24038
X-53.61363Y-64.31657
X-30.75799Y-35.47705
X-30.80755Y-36.50636
X-41.05868Y-39.20939
X-41.92569Y-40.0254
X-42.8437Y-40.89242
X-44.32272Y-41.40242
X-45.44474Y-41.65742
X-48.14777Y-41.70843
X-19.4344Y-57.46763
X-20.04641Y-58.18164
X-21.06642Y-59.04865
X-21.67843Y-60.01766
X-22.54544Y-60.83367
X-23.46345Y-61.70068
X-24.94247Y-62.21069
X-26.06448Y-62.46569
X-28.76752Y-62.51669
X-42.18069Y-57.92664
X-41.10968Y-57.31463
X-40.29367Y-56.44762
X-39.06965Y-56.39662
X-39.67287Y-55.57063
X-39.83466Y-57.16163
X-36.16261Y-52.31656
X-35.22449Y-52.19572
X-34.08444Y-52.19572
X-34.69645Y-51.32871
X-35.56346Y-51.37971
X-35.00245Y-50.5127
X-33.82944Y-51.32871
X-33.06443Y-52.09372
X-29.22894Y-50.00893
X-29.22894Y-50.96095
X-29.22894Y-52.86497
X-29.22894Y-51.91296
X-29.17715Y-45.07899
X-28.67352Y-42.61554
X-28.51414Y-43.85497
X-28.22514Y-45.07899
X-28.15793Y-45.79845
X-28.15793Y-47.70247
X-28.15793Y-46.75046
X-28.15793Y-48.65448
X-27.74992Y-51.91296
X-27.74992Y-50.96095
X-27.74992Y-52.86497
X-27.74992Y-50.00893
X-27.72151Y-42.61554
X-27.56213Y-43.85497
X-27.29092Y-46.35946
X-27.27313Y-45.07899
X-26.76949Y-42.61554
X-26.61012Y-43.85497
X-26.47491Y-46.75046
X-26.47491Y-48.65448
X-26.47491Y-45.79845
X-26.47491Y-47.70247
X-26.20133Y-45.02137
X-26.0669Y-52.86497
X-26.0669Y-50.00893
X-26.0669Y-51.91296
X-26.0669Y-50.96095
X-25.7071Y-43.57966
X-25.65889Y-48.75649
X-25.65889Y-46.85246
X-25.65889Y-47.80447
X-25.4181Y-44.80368
X-25.39248Y-42.41153
X-25.30189Y-45.90045
X-24.84288Y-51.03452
X-24.84288Y-51.98653
X-24.84288Y-50.0825
X-24.84288Y-52.93854
X-24.75509Y-43.57966
X-24.46609Y-44.80368
X-24.44046Y-42.41153
X-24.17988Y-45.90045
X-24.17988Y-47.80447
X-24.17988Y-46.85246
X-24.17988Y-48.75649
X-23.80308Y-43.57966
X-23.51408Y-44.80368
X-23.48845Y-42.41153
X-23.36386Y-52.93854
X-23.36386Y-50.0825
X-23.36386Y-51.98653
X-23.36386Y-51.03452
X-22.85107Y-43.57966
X-22.53644Y-42.41153
X-22.49685Y-47.80447
X-22.49685Y-45.90045
X-22.49685Y-48.75649
X-22.49685Y-46.85246
X-22.44227Y-44.74606
X-21.68084Y-52.93854
X-21.68084Y-50.0825
X-21.68084Y-51.98653
X-21.68084Y-51.03452
X-21.42584Y-45.95145
X-21.42584Y-46.90346
X-21.42584Y-47.85547
X-21.42584Y-48.80749
X-21.36342Y-43.73755
X-21.18939Y-42.39813
X-21.07442Y-44.96157
X-20.41141Y-43.73755
X-20.23738Y-42.39813
X-20.12241Y-44.96157
X-19.99782Y-52.42853
X-19.99782Y-51.32352
X-19.99782Y-50.1845
X-19.94682Y-47.85547
X-19.94682Y-45.95145
X-19.94682Y-48.80749
X-19.94682Y-46.90346
X-19.4594Y-43.73755
X-19.28536Y-42.39813
X-19.1704Y-44.96157
X-19.01739Y-50.31664
X-18.96639Y-53.01967
X-18.92616Y-46.07376
X-18.81339Y-48.37861
X-18.72839Y-51.54065
X-18.63716Y-47.29777
X-18.52439Y-49.60263
X-18.50739Y-43.73755
X-18.33335Y-42.39813
X-18.09859Y-44.90395
X-17.3938Y-52.56864
X-17.3938Y-49.7126
X-17.3938Y-51.61662
X-17.3938Y-50.66461
X-16.7818Y-51.22562
X-16.7818Y-52.17763
X-16.7818Y-50.27361
X-11.78373Y-51.65062
X-15.55778Y-50.0186
X-15.55778Y-51.92263
X-15.55778Y-50.97061
X-14.94577Y-51.53162
X-14.94577Y-52.48363
X-14.94577Y-50.57961
X-12.34474Y-50.32461
X-12.80374Y-46.44856
X-12.80374Y-48.35258
X-12.80374Y-47.40057
X-12.19174Y-47.96158
X-12.70174Y-49.47459
X-12.19174Y-47.00956
X-11.06972Y-49.10059
X-11.06972Y-46.24455
X-11.06972Y-48.14858
X-11.06972Y-47.19657
X-10.45771Y-47.75757
X-10.45771Y-48.70959
X-10.45771Y-46.80556
X-9.4887Y-47.97858
X-9.4887Y-45.12254
X-9.4887Y-47.02656
X-9.4887Y-46.07455
X-8.87669Y-46.63556
X-8.87669Y-47.58757
X-8.87669Y-45.68355
X-11.22272Y-50.78361
X-13.82376Y-50.2226
X-13.82376Y-52.12663
X-13.82376Y-51.17462
X-13.21175Y-51.73562
X-13.21175Y-52.68764
X-13.21175Y-50.78361
X-29.78696Y-49.15159
X-29.78696Y-46.29555
X-29.78696Y-48.19958
X-29.78696Y-47.24757
X-29.17496Y-47.80857
X-29.17496Y-48.76059
X-29.17496Y-46.85656
X-25.68306Y-41.61192
X-28.53909Y-41.61192
X-26.63507Y-41.61192
X-27.58708Y-41.61192
X-27.02607Y-40.99992
X-26.07406Y-40.99992
X-27.97808Y-40.99992
X-21.94916Y-41.57585
X-20.84415Y-41.47384
X-21.28616Y-40.35183
X-23.85319Y-41.57585
X-24.8052Y-41.57585
X-22.90118Y-41.57585
X-25.21399Y-40.40944
X-24.14219Y-40.35183
X-22.23817Y-40.35183
X-23.19018Y-40.35183
X-17.1551Y-41.42284
X-27.32123Y-40.19883
X-26.18222Y-40.19882
X-19.05913Y-41.42284
X-20.01114Y-41.42284
X-18.10711Y-41.42284
X-20.41993Y-40.25644
X-19.34813Y-40.19882
X-17.44411Y-40.19882
X-18.39612Y-40.19882
X-26.18222Y-32.29373
X-25.07721Y-32.19172
X-25.51921Y-31.06971
X-28.08624Y-32.29373
X-29.03826Y-32.29373
X-27.13423Y-32.29373
X-29.44705Y-31.12732
X-28.37525Y-31.06971
X-26.47122Y-31.06971
X-27.42323Y-31.06971
X-13.63606Y-35.50677
X-12.53104Y-35.40476
X-12.97305Y-34.28275
X-15.54008Y-35.50677
X-16.4921Y-35.50677
X-14.58807Y-35.50677
X-16.90089Y-34.34037
X-15.82909Y-34.28275
X-13.92506Y-34.28275
X-14.87707Y-34.28275
X-8.944Y-40.45383
X-7.83898Y-40.35183
X-8.28099Y-39.22981
X-10.84802Y-40.45383
X-11.80003Y-40.45383
X-9.89601Y-40.45383
X-12.20882Y-39.28743
X-11.13703Y-39.22981
X-9.233Y-39.22981
X-10.18501Y-39.22981
X6.2542Y-48.30793
X7.35922Y-48.20593
X6.91721Y-47.08391
X4.35018Y-48.30793
X3.39816Y-48.30793
X5.30219Y-48.30793
X2.98937Y-47.14153
X4.06117Y-47.08391
X5.9652Y-47.08391
X5.01318Y-47.08391
X-24.7032Y-58.45706
X-23.59819Y-58.35506
X-24.04019Y-57.23305
X-26.60722Y-58.45706
X-27.55924Y-58.45706
X-25.65521Y-58.45706
X-27.96803Y-57.29067
X-26.89623Y-57.23305
X-24.9922Y-57.23305
X-25.94422Y-57.23305
X-22.20417Y-72.43124
X-21.09916Y-72.32924
X-21.54116Y-71.20723
X-24.10819Y-72.43124
X-25.06021Y-72.43124
X-23.15618Y-72.43124
X-25.469Y-71.26485
X-24.3972Y-71.20723
X-22.49317Y-71.20723
X-23.44518Y-71.20723
X-12.87105Y-72.78825
X-11.76603Y-72.68625
X-12.20804Y-71.56423
X-14.77507Y-72.78825
X-15.72708Y-72.78825
X-13.82306Y-72.78825
X-16.13588Y-71.62185
X-15.06408Y-71.56423
X-13.16005Y-71.56423
X-14.11206Y-71.56423
X57.21667Y-58.70443
X54.93963Y-58.84441
X54.81964Y-59.97945
X57.29433Y-60.18494
X64.10176Y-55.38939
X68.48782Y-54.52238
X67.56981Y-55.08338
X69.25378Y-55.30942
X68.28382Y-53.14536
X69.40583Y-52.94135
X69.45683Y-54.06337
X68.43682Y-48.9633
X67.82481Y-48.14729
X68.99782Y-47.94329
X68.54469Y-46.83657
X62.87775Y-47.53528
X62.41874Y-48.5043
X67.4168Y-43.14923
X68.84482Y-43.20023
X68.48782Y-41.97621
X68.64082Y-35.85613
X68.64082Y-37.13115
X68.64082Y-38.40617
X68.58982Y-39.68118
X68.69182Y-40.8542
X63.84676Y-38.55917
X63.79576Y-39.63018
X58.02584Y-41.77543
X58.89969Y-43.40423
X62.77574Y-36.21314
X63.89776Y-36.21314
X64.10176Y-40.7012
X60.17471Y-43.50623
X-62.19121Y1.13781
X-62.04409Y-0.41015
X-61.03899Y1.13781
X-60.89187Y-0.41015
X-59.88677Y1.13781
X-59.73964Y-0.41015
X-58.73455Y1.13781
X-58.58742Y-0.41015
X-57.58232Y1.13781
X-52.04208Y-9.98034
X-51.89496Y-11.5283
X-50.88986Y-9.98034
X-50.74274Y-11.5283
X-49.73764Y-9.98034
X-49.59051Y-11.5283
X-48.58541Y-9.98034
X-48.43829Y-11.5283
X-47.43319Y-9.98034
X-44.44298Y-12.12237
X-44.29586Y-13.67032
X-43.29076Y-12.12237
X-43.14364Y-13.67032
X-42.13854Y-12.12237
X-41.99141Y-13.67032
X-40.98632Y-12.12237
X-40.83919Y-13.67032
X-39.83409Y-12.12237
X-52.88768Y-47.63462
T02
X29.90099Y-68.03122
X27.36099Y-68.03122
X42.5651Y-57.93749
X42.5651Y-55.39749
X41.02415Y-20.04462
X41.02415Y-22.58462
X46.2858Y-61.51154
X48.8258Y-61.51154
X31.78656Y-42.8453
X29.24656Y-42.8453
X26.70656Y-42.8453
T03
X43.60677Y0.33901
X43.60677Y-2.20099
X43.60677Y-4.74099
X54.39134Y-94.24556
X56.93134Y-94.24556
X50.21136Y0.33901
X50.21136Y-2.20099
X50.21136Y-4.74099
X56.81594Y0.33901
X56.81594Y-2.20099
X56.81594Y-4.74099
X-60.4636Y-29.0003
X-60.4636Y-31.5403
X-60.4636Y-34.0803
X-60.4636Y-36.6203
X-60.4636Y-15.81719
X-60.4636Y-18.35719
X-60.4636Y-20.89719
X-60.4636Y-23.43719
X-60.4636Y-2.63408
X-60.4636Y-5.17408
X-60.4636Y-7.71408
X-60.4636Y-10.25408
X-9.96113Y-94.07826
X-12.50113Y-94.07826
X-15.04113Y-94.07826
X-11.684Y-0.889
X-9.144Y-0.889
X-6.604Y-0.889
X-49.81056Y-15.87946
X-49.81056Y-18.41946
X-49.81056Y-20.95946
X-49.81056Y-23.49946
X67.77391Y-10.75322
X67.77391Y-13.29322
X67.77391Y-15.83322
X68.03608Y-69.17489
X68.03608Y-71.71489
X68.03608Y-74.25489
X-60.4636Y-42.18341
X-60.4636Y-44.72341
X-60.4636Y-47.26341
X-60.4636Y-49.80341
X-16.70504Y-12.33687
X-16.70504Y-9.79687
X-16.70504Y-7.25687
X67.77391Y-25.29605
X67.77391Y-22.75605
X56.27691Y-25.29605
X56.27691Y-22.75605
X-60.4636Y-55.36652
X-60.4636Y-57.90652
X-60.4636Y-60.44652
X-60.4636Y-62.98652
X-60.4636Y-68.54963
X-60.4636Y-71.08963
X-60.4636Y-73.62963
X-60.4636Y-76.16963
X68.03608Y-79.72881
X68.03608Y-82.26881
X68.03608Y-84.80881
X0.0Y0.0
X2.54Y0.0
X5.08Y0.0
T04
X17.36735Y-89.29119
X14.86735Y-89.29119
X14.86735Y-92.49119
X17.36735Y-92.49119
X-31.32634Y-43.84475
X-33.86634Y-43.84475
X-36.40634Y-43.84475
X-38.94634Y-43.84475
X-41.48634Y-43.84475
X-44.02634Y-43.84475
X-46.56634Y-43.84475
X-49.10634Y-43.84475
X-31.32634Y-31.04475
X-33.86634Y-31.04475
X-36.40634Y-31.04475
X-38.94634Y-31.04475
X-41.48634Y-31.04475
X-44.02634Y-31.04475
X-46.56634Y-31.04475
X-49.10634Y-31.04475
X-31.32634Y-60.76175
X-33.86634Y-60.76175
X-36.40634Y-60.76175
X-38.94634Y-60.76175
X-41.48634Y-60.76175
X-44.02634Y-60.76175
X-46.56634Y-60.76175
X-49.10634Y-60.76175
X-31.32634Y-47.96175
X-33.86634Y-47.96175
X-36.40634Y-47.96175
X-38.94634Y-47.96175
X-41.48634Y-47.96175
X-44.02634Y-47.96175
X-46.56634Y-47.96175
X-49.10634Y-47.96175
X-31.32634Y-77.67875
X-33.86634Y-77.67875
X-36.40634Y-77.67875
X-38.94634Y-77.67875
X-41.48634Y-77.67875
X-44.02634Y-77.67875
X-46.56634Y-77.67875
X-49.10634Y-77.67875
X-31.32634Y-64.72375
X-33.86634Y-64.72375
X-36.40634Y-64.72375
X-38.94634Y-64.72375
X-41.48634Y-64.72375
X-44.02634Y-64.72375
X-46.56634Y-64.72375
X-49.10634Y-64.72375
T05
X18.94227Y-5.34515
X21.7124Y-5.34515
X24.48227Y-5.34515
X27.25239Y-5.34515
X17.55721Y-8.18512
X20.32734Y-8.18512
X25.86733Y-8.18512
X28.6372Y-8.18512
X23.09721Y-8.18512
X68.43692Y-64.22783
X68.43692Y-61.68783
X68.43692Y-59.14783
X68.43692Y-56.60783
T06
X-49.04282Y-82.33133
X-34.84252Y-88.33081
X-36.84249Y-94.3308
X-36.84249Y-82.33083
T07
X4.22407Y-91.86025
X-0.85593Y-91.86025
X-58.56892Y-93.36969
X-58.56892Y-88.28969
T08
X10.09736Y-91.79119
X22.13736Y-91.79119
T09
X35.59731Y-6.76526
X10.59736Y-6.76526
M30