G04 Layer: BottomSilkscreenLayer*
G04 EasyEDA Pro v2.2.32.3, 2025-12-05 15:59:02*
G04 Gerber Generator version 0.3*
G04 Scale: 100 percent, Rotated: No, Reflected: No*
G04 Dimensions in millimeters*
G04 Leading zeros omitted, absolute positions, 3 integers and 5 decimals*
%FSLAX35Y35*%
%MOMM*%
%ADD10C,0.12*%
%ADD11C,0.254*%
G75*


G04 Text Start*
G54D10*
G01X758124Y-1165408D02*
G01X758124Y-1087938D01*
G01X758124Y-1165408D02*
G01X783778Y-1165408D01*
G01X794954Y-1161852D01*
G01X802320Y-1154486D01*
G01X805876Y-1147120D01*
G01X809686Y-1135944D01*
G01X809686Y-1117402D01*
G01X805876Y-1106480D01*
G01X802320Y-1099114D01*
G01X794954Y-1091748D01*
G01X783778Y-1087938D01*
G01X758124Y-1087938D01*
G01X839404Y-1165408D02*
G01X839404Y-1087938D01*
G01X839404Y-1165408D02*
G01X872678Y-1165408D01*
G01X883600Y-1161852D01*
G01X887410Y-1158042D01*
G01X890966Y-1150676D01*
G01X890966Y-1143310D01*
G01X887410Y-1135944D01*
G01X883600Y-1132134D01*
G01X872678Y-1128578D01*
G01X839404Y-1128578D02*
G01X872678Y-1128578D01*
G01X883600Y-1124768D01*
G01X887410Y-1121212D01*
G01X890966Y-1113846D01*
G01X890966Y-1102670D01*
G01X887410Y-1095304D01*
G01X883600Y-1091748D01*
G01X872678Y-1087938D01*
G01X839404Y-1087938D01*
G01X920684Y-1150676D02*
G01X928050Y-1154486D01*
G01X939226Y-1165408D01*
G01X939226Y-1087938D01*
G04 Text End*

G04 PolygonModel Start*
G54D11*
G01X852726Y273485D02*
G01X852726Y873486D01*
G01X855725Y873486D02*
G01X1266725Y873486D01*
G01X1266725Y873486D02*
G01X1266725Y273485D01*
G01X3766690Y273459D02*
G01X3766690Y873407D01*
G01X3766690Y873407D02*
G01X3355718Y873407D01*
G01X3352726Y273485D02*
G01X3352726Y873486D01*
G01X3146727Y273485D02*
G01X3146727Y873486D01*
G01X3146727Y873486D02*
G01X1471726Y873486D01*
G01X1471726Y873486D02*
G01X1471726Y273485D01*
G01X2309225Y801485D02*
G01X2309225Y871485D01*
G01X769726Y273485D02*
G01X769726Y-976515D01*
G01X769726Y-976515D02*
G01X3849725Y-976515D01*
G01X3849725Y-976515D02*
G01X3849725Y273485D01*
G01X3849725Y273485D02*
G01X769726Y273485D01*

M02*

