G04 Layer: CustomLayer1*
G04 EasyEDA Pro v2.2.32.3, 2025-12-05 15:59:02*
G04 Gerber Generator version 0.3*
G04 Scale: 100 percent, Rotated: No, Reflected: No*
G04 Dimensions in millimeters*
G04 Leading zeros omitted, absolute positions, 3 integers and 5 decimals*
%FSLAX35Y35*%
%MOMM*%
%ADD10C,0.15*%
G75*


G04 PolygonModel Start*
G54D10*
G01X1408819Y-7242900D02*
G01X976818Y-7242900D01*
G01X1408819Y-7502900D02*
G01X976818Y-7502900D01*
G01X1408819Y-7502900D02*
G01X1408819Y-7242900D01*
G01X976818Y-7502900D02*
G01X976818Y-7242900D01*
G01X-63594Y-8456612D02*
G01X368406Y-8456612D01*
G01X-63594Y-8196612D02*
G01X368406Y-8196612D01*
G01X-63594Y-8196612D02*
G01X-63594Y-8456612D01*
G01X368406Y-8196612D02*
G01X368406Y-8456612D01*
G01X5869392Y-7245867D02*
G01X5559392Y-7245867D01*
G01X5869392Y-7065867D02*
G01X5559392Y-7065867D01*
G01X5559392Y-7245867D02*
G01X5559392Y-7065867D01*
G01X5869392Y-7245867D02*
G01X5869392Y-7065867D01*
G01X1488238Y-5362642D02*
G01X1488238Y-5052642D01*
G01X1668238Y-5362642D02*
G01X1668238Y-5052642D01*
G01X1488238Y-5052642D02*
G01X1668238Y-5052642D01*
G01X1488238Y-5362642D02*
G01X1668238Y-5362642D01*
G01X3941567Y-5323142D02*
G01X3631567Y-5323142D01*
G01X3941567Y-5143142D02*
G01X3631567Y-5143142D01*
G01X3631567Y-5323142D02*
G01X3631567Y-5143142D01*
G01X3941567Y-5323142D02*
G01X3941567Y-5143142D01*
G01X4843922Y-5837408D02*
G01X4533923Y-5837408D01*
G01X4843922Y-5657408D02*
G01X4533923Y-5657408D01*
G01X4533923Y-5837408D02*
G01X4533923Y-5657408D01*
G01X4843922Y-5837408D02*
G01X4843922Y-5657408D01*
G01X-2832138Y-8010764D02*
G01X-2832138Y-8442764D01*
G01X-2572138Y-8010764D02*
G01X-2572138Y-8442764D01*
G01X-2572138Y-8010764D02*
G01X-2832138Y-8010764D01*
G01X-2572138Y-8442764D02*
G01X-2832138Y-8442764D01*
G01X1100024Y-4705055D02*
G01X1100024Y-4395055D01*
G01X1280024Y-4705055D02*
G01X1280024Y-4395055D01*
G01X1100024Y-4395055D02*
G01X1280024Y-4395055D01*
G01X1100024Y-4705055D02*
G01X1280024Y-4705055D01*

M02*

