G04 Layer: TopPasteMaskLayer*
G04 EasyEDA Pro v2.2.32.3, 2025-12-05 15:59:02*
G04 Gerber Generator version 0.3*
G04 Scale: 100 percent, Rotated: No, Reflected: No*
G04 Dimensions in millimeters*
G04 Leading zeros omitted, absolute positions, 3 integers and 5 decimals*
%FSLAX35Y35*%
%MOMM*%
%ADD10R,0.889X0.889*%
%ADD11R,0.889X0.889*%
%ADD12R,0.889X0.889*%
%ADD13R,0.762X0.8128*%
%ADD14R,0.8128X0.762*%
%ADD15R,0.49022X0.98552*%
%ADD16R,2.0043X2.0*%
%ADD17R,2.0X2.0*%
%ADD18R,2.0X2.0*%
%ADD19R,1.0X0.89992*%
%ADD20R,1.3X1.9*%
%ADD21R,2.2X2.0*%
%ADD22R,1.25001X0.7*%
%ADD23R,0.7X1.25001*%
%ADD24R,0.9652X1.016*%
%ADD25R,1.0X1.10002*%
%ADD26R,1.10002X1.0*%
%ADD27R,1.0X1.10002*%
%ADD28R,1.016X0.9652*%
%ADD29R,1.10002X1.0*%
%ADD30R,2.0X3.6*%
%ADD31R,1.6X1.1*%
%ADD32R,1.6X1.1*%
%ADD33R,1.2X0.6*%
%ADD34R,2.4X3.29999*%
%ADD35R,0.9X2.0*%
%ADD36R,2.0X0.9*%
%ADD37R,0.9X2.0*%
%ADD38R,3.69999X3.69999*%
%ADD39R,1.1X0.6*%
%ADD40O,1.97099X0.60201*%
%ADD41R,0.7X1.6*%
%ADD42R,1.2X2.2*%
%ADD43R,1.6X1.5*%
%ADD44R,1.2X1.8*%
%ADD45R,0.6X1.1*%
%ADD46R,2.50002X1.0*%
%ADD47R,2.49999X1.0*%
%ADD48R,2.99999X1.0*%
%ADD49R,0.762X0.8128*%
%ADD50R,1.0X0.89992*%
%ADD51R,0.89992X1.0*%
%ADD52R,0.889X0.889*%
%ADD53O,1.73149X0.343*%
%ADD54R,0.95001X1.15001*%
%ADD55R,1.1X0.6*%
%ADD56O,1.55001X0.7*%
%ADD57O,0.60201X1.97099*%
%ADD58R,1.35999X1.23*%
%ADD59R,1.15001X0.95001*%
%ADD60R,1.15001X0.95001*%
%ADD61R,2.0X2.0*%
%ADD62R,1.25001X0.7*%
%ADD63R,1.0X2.99999*%
%ADD64R,1.5X3.49999*%
%ADD65R,10.4X9.00001*%
%ADD66R,1.1X2.49999*%
%ADD67R,1.1X2.49999*%
%ADD68R,0.98552X0.49022*%
%ADD69R,0.49022X0.98552*%
G75*


G04 PolygonModel Start*
G36*
G01X3815467Y-5768549D02*
G01X3815467Y-5731523D01*
G01X3825467Y-5721523D01*
G01X3855957Y-5721523D01*
G01X3865957Y-5711523D01*
G01X3865957Y-5672773D01*
G01X3855957Y-5662773D01*
G01X3825467Y-5662773D01*
G01X3815467Y-5652773D01*
G01X3815467Y-5615747D01*
G01X3825467Y-5605747D01*
G01X3953966Y-5605747D01*
G01X3963966Y-5615747D01*
G01X3963966Y-5768549D01*
G01X3953966Y-5778549D01*
G01X3825467Y-5778549D01*
G01X3815467Y-5768549D01*
G37*
G36*
G01X3645465Y-5768549D02*
G01X3645465Y-5731523D01*
G01X3635465Y-5721523D01*
G01X3604975Y-5721523D01*
G01X3594975Y-5711523D01*
G01X3594975Y-5672773D01*
G01X3604975Y-5662773D01*
G01X3635465Y-5662773D01*
G01X3645465Y-5652773D01*
G01X3645465Y-5615747D01*
G01X3635465Y-5605747D01*
G01X3506967Y-5605747D01*
G01X3496967Y-5615747D01*
G01X3496967Y-5768549D01*
G01X3506967Y-5778549D01*
G01X3635465Y-5778549D01*
G01X3645465Y-5768549D01*
G37*
G36*
G01X4811580Y-7677774D02*
G01X4774554Y-7677774D01*
G01X4764554Y-7667774D01*
G01X4764554Y-7637283D01*
G01X4754554Y-7627283D01*
G01X4715804Y-7627283D01*
G01X4705804Y-7637283D01*
G01X4705804Y-7667774D01*
G01X4695804Y-7677774D01*
G01X4658779Y-7677774D01*
G01X4648779Y-7667774D01*
G01X4648779Y-7539275D01*
G01X4658779Y-7529275D01*
G01X4811580Y-7529275D01*
G01X4821580Y-7539275D01*
G01X4821580Y-7667774D01*
G01X4811580Y-7677774D01*
G37*
G36*
G01X4811580Y-7847776D02*
G01X4774554Y-7847776D01*
G01X4764554Y-7857776D01*
G01X4764554Y-7888266D01*
G01X4754554Y-7898266D01*
G01X4715804Y-7898266D01*
G01X4705804Y-7888266D01*
G01X4705804Y-7857776D01*
G01X4695804Y-7847776D01*
G01X4658779Y-7847776D01*
G01X4648779Y-7857776D01*
G01X4648779Y-7986274D01*
G01X4658779Y-7996274D01*
G01X4811580Y-7996274D01*
G01X4821580Y-7986274D01*
G01X4821580Y-7857776D01*
G01X4811580Y-7847776D01*
G37*
G36*
G01X2764256Y-6137876D02*
G01X2727230Y-6137876D01*
G01X2717230Y-6127876D01*
G01X2717230Y-6097386D01*
G01X2707230Y-6087386D01*
G01X2668480Y-6087386D01*
G01X2658480Y-6097386D01*
G01X2658480Y-6127876D01*
G01X2648480Y-6137876D01*
G01X2611455Y-6137876D01*
G01X2601455Y-6127876D01*
G01X2601455Y-5999377D01*
G01X2611455Y-5989377D01*
G01X2764256Y-5989377D01*
G01X2774256Y-5999377D01*
G01X2774256Y-6127876D01*
G01X2764256Y-6137876D01*
G37*
G36*
G01X2764256Y-6307878D02*
G01X2727230Y-6307878D01*
G01X2717230Y-6317878D01*
G01X2717230Y-6348368D01*
G01X2707230Y-6358368D01*
G01X2668480Y-6358368D01*
G01X2658480Y-6348368D01*
G01X2658480Y-6317878D01*
G01X2648480Y-6307878D01*
G01X2611455Y-6307878D01*
G01X2601455Y-6317878D01*
G01X2601455Y-6446376D01*
G01X2611455Y-6456376D01*
G01X2764256Y-6456376D01*
G01X2774256Y-6446376D01*
G01X2774256Y-6317878D01*
G01X2764256Y-6307878D01*
G37*
G36*
G01X4078173Y-4297629D02*
G01X4078173Y-4377629D01*
G01X4083174Y-4382631D01*
G01X4105970Y-4382631D01*
G01X4105970Y-4345630D01*
G01X4138970Y-4345630D01*
G01X4138970Y-4382631D01*
G01X4163174Y-4382631D01*
G01X4168173Y-4377629D01*
G01X4168173Y-4297629D01*
G01X4163174Y-4292631D01*
G01X4083174Y-4292631D01*
G01X4078173Y-4297629D01*
G37*
G36*
G01X4083174Y-4452630D02*
G01X4105970Y-4452630D01*
G01X4105970Y-4490629D01*
G01X4138970Y-4490629D01*
G01X4138970Y-4452630D01*
G01X4163174Y-4452630D01*
G01X4168173Y-4457629D01*
G01X4168173Y-4536628D01*
G01X4163174Y-4541629D01*
G01X4083174Y-4541629D01*
G01X4078173Y-4536628D01*
G01X4078173Y-4457629D01*
G01X4083174Y-4452630D01*
G37*

G04 Pad Start*
G54D10*
G01X3939569Y-6366326D03*
G01X3939569Y-6211386D03*
G54D11*
G01X444078Y-7270899D03*
G01X289138Y-7270899D03*
G01X2452283Y-7492793D03*
G01X2607223Y-7492793D03*
G54D12*
G01X3137630Y-9369618D03*
G01X2982690Y-9369618D03*
G54D11*
G01X2630785Y-9369618D03*
G01X2785725Y-9369618D03*
G01X3178690Y-7528172D03*
G01X3333630Y-7528172D03*
G54D13*
G01X4070411Y-7430990D03*
G01X4070942Y-7274356D03*
G54D14*
G01X4264378Y-1561854D03*
G01X4421012Y-1562385D03*
G01X4692756Y-1561854D03*
G01X4849390Y-1562385D03*
G01X5110989Y-1561854D03*
G01X5267623Y-1562385D03*
G54D15*
G01X6209098Y-8496743D03*
G01X6209098Y-8273223D03*
G54D17*
G01X1402819Y-7372900D03*
G01X982819Y-7372900D03*
G54D15*
G01X6214198Y-6670919D03*
G01X6214198Y-6447399D03*
G54D18*
G01X-57595Y-8326612D03*
G01X362405Y-8326612D03*
G54D19*
G01X-560747Y-9254557D03*
G01X-560747Y-9424557D03*
G54D20*
G01X5755426Y-7984554D03*
G01X5755426Y-8824532D03*
G01X5305440Y-7984554D03*
G01X5305440Y-8824532D03*
G54D21*
G01X1004833Y-7062688D03*
G01X1004833Y-6382679D03*
G54D22*
G01X3883272Y-6867390D03*
G01X3883272Y-7057382D03*
G01X4083272Y-6962386D03*
G54D23*
G01X3424170Y-6965485D03*
G01X3614162Y-6965485D03*
G01X3519166Y-6765485D03*
G54D24*
G01X4422381Y-1371273D03*
G01X4263631Y-1371273D03*
G54D25*
G01X283401Y-6414088D03*
G01X123421Y-6414088D03*
G54D26*
G01X-553946Y-8905966D03*
G01X-553946Y-9065945D03*
G54D27*
G01X6291783Y-5901251D03*
G01X6131804Y-5901251D03*
G01X6289083Y-6191954D03*
G01X6129104Y-6191954D03*
G54D28*
G01X4394937Y-7655492D03*
G01X4394937Y-7814242D03*
G01X4193132Y-7660270D03*
G01X4193132Y-7819020D03*
G01X3844129Y-7655492D03*
G01X3844129Y-7814242D03*
G01X3645227Y-7655492D03*
G01X3645227Y-7814242D03*
G54D29*
G01X5030983Y-7801959D03*
G01X5030983Y-7641979D03*
G54D24*
G01X4422381Y-1171750D03*
G01X4263631Y-1171750D03*
G01X4845687Y-1171750D03*
G01X4686937Y-1171750D03*
G01X4845687Y-1371273D03*
G01X4686937Y-1371273D03*
G01X5273463Y-1171750D03*
G01X5114713Y-1171750D03*
G01X5268992Y-1371273D03*
G01X5110242Y-1371273D03*
G54D26*
G01X3422265Y-7168005D03*
G01X3422265Y-7327985D03*
G01X3621167Y-7168005D03*
G01X3621167Y-7327985D03*
G54D30*
G01X3574763Y-6176976D03*
G54D31*
G01X3024763Y-6406977D03*
G54D32*
G01X3024763Y-6176976D03*
G54D31*
G01X3024763Y-5946976D03*
G54D33*
G01X494236Y-7022793D03*
G01X494236Y-6895793D03*
G01X494236Y-6768793D03*
G01X494236Y-6641793D03*
G01X-87424Y-6641793D03*
G01X-87424Y-6768793D03*
G01X-87424Y-6895793D03*
G01X-87424Y-7022793D03*
G54D34*
G01X203406Y-6832293D03*
G54D35*
G01X6847798Y-5088962D03*
G01X6720798Y-5088962D03*
G01X6593798Y-5088962D03*
G01X6466798Y-5088962D03*
G01X6339798Y-5088962D03*
G01X6212798Y-5088962D03*
G01X6085798Y-5088962D03*
G01X5958798Y-5088962D03*
G01X5831798Y-5088962D03*
G01X5704798Y-5088962D03*
G01X5577798Y-5088962D03*
G01X5450798Y-5088962D03*
G01X5323798Y-5088962D03*
G01X5196798Y-5088962D03*
G54D36*
G01X5096798Y-4810451D03*
G01X5096798Y-4683451D03*
G01X5096798Y-4556451D03*
G01X5096798Y-4429451D03*
G01X5096798Y-4302451D03*
G01X5096798Y-4175451D03*
G01X5096798Y-4048451D03*
G01X5096798Y-3921451D03*
G01X5096798Y-3794451D03*
G01X5096798Y-3667451D03*
G54D37*
G01X5196798Y-3388940D03*
G01X5323798Y-3388940D03*
G01X5450798Y-3388940D03*
G01X5577798Y-3388940D03*
G01X5704798Y-3388940D03*
G01X5831798Y-3388940D03*
G01X5958798Y-3388940D03*
G01X6085798Y-3388940D03*
G01X6212798Y-3388940D03*
G01X6339798Y-3388940D03*
G01X6466798Y-3388940D03*
G01X6593798Y-3388940D03*
G01X6720798Y-3388940D03*
G01X6847798Y-3388940D03*
G54D38*
G01X6097812Y-4088964D03*
G54D39*
G01X1968289Y-7932138D03*
G01X1968289Y-8027138D03*
G01X1968289Y-8122138D03*
G01X2248289Y-8122138D03*
G01X2248289Y-8027138D03*
G01X2248289Y-7932138D03*
G54D40*
G01X2633600Y-7757202D03*
G01X2633600Y-7884202D03*
G01X2633600Y-8011202D03*
G01X2633600Y-8138202D03*
G01X2633600Y-8265202D03*
G01X2633600Y-8392202D03*
G01X2633600Y-8519202D03*
G01X2633600Y-8646202D03*
G01X3180716Y-7757202D03*
G01X3180716Y-7884202D03*
G01X3180716Y-8011202D03*
G01X3180716Y-8138202D03*
G01X3180716Y-8265202D03*
G01X3180716Y-8392202D03*
G01X3180716Y-8519202D03*
G01X3180716Y-8646202D03*
G54D41*
G01X4458168Y-8222513D03*
G01X4348186Y-8222513D03*
G01X3798175Y-8222513D03*
G01X4238179Y-8222513D03*
G01X4018164Y-8222513D03*
G01X3578185Y-8222513D03*
G01X4128172Y-8222513D03*
G01X3908182Y-8222513D03*
G54D42*
G01X5008155Y-9282506D03*
G01X3458196Y-9282506D03*
G54D43*
G01X4943181Y-8327517D03*
G54D44*
G01X3458196Y-8352510D03*
G54D41*
G01X3688167Y-8222513D03*
G54D45*
G01X5809392Y-7295867D03*
G01X5619392Y-7295867D03*
G01X5619392Y-7015867D03*
G01X5714392Y-7015867D03*
G01X5809392Y-7015867D03*
G54D46*
G01X3166778Y-9033013D03*
G54D47*
G01X2606739Y-9033013D03*
G54D48*
G01X-61293Y-7770705D03*
G01X498706Y-7770705D03*
G54D14*
G01X5414090Y-7742812D03*
G01X5570724Y-7743343D03*
G54D29*
G01X4319876Y-7302495D03*
G01X4319876Y-7142495D03*
G54D49*
G01X4882643Y-2479708D03*
G01X4882112Y-2636342D03*
G01X6280061Y-2530709D03*
G01X6279530Y-2687343D03*
G54D13*
G01X6186938Y-8048098D03*
G01X6187469Y-7891464D03*
G54D50*
G01X4384976Y-6392553D03*
G01X4384976Y-6222554D03*
G54D51*
G01X1796323Y-7391598D03*
G01X1626323Y-7391598D03*
G54D29*
G01X4893281Y-2293887D03*
G01X4893281Y-2133908D03*
G54D26*
G01X5097284Y-2480702D03*
G01X5097284Y-2640702D03*
G54D29*
G01X6066296Y-2288787D03*
G01X6066296Y-2128808D03*
G54D26*
G01X6076497Y-2516403D03*
G01X6076497Y-2676403D03*
G01X5997798Y-8290020D03*
G01X5997798Y-8449999D03*
G54D29*
G01X5994539Y-8051042D03*
G01X5994539Y-7891042D03*
G54D26*
G01X4169072Y-6219071D03*
G01X4169072Y-6379050D03*
G54D27*
G01X2175515Y-7388200D03*
G01X2015536Y-7388200D03*
G54D11*
G01X6723236Y-3040114D03*
G01X6878176Y-3040114D03*
G54D12*
G01X4470945Y-4488532D03*
G01X4316005Y-4488532D03*
G01X4124140Y-2841211D03*
G01X3969200Y-2841211D03*
G54D52*
G01X3929369Y-4344761D03*
G01X3929369Y-4499701D03*
G54D29*
G01X4709323Y-4200472D03*
G01X4709323Y-4040493D03*
G54D53*
G01X3752080Y-3009239D03*
G01X3752080Y-3074237D03*
G01X3752080Y-3139236D03*
G01X3752080Y-3204260D03*
G01X3752080Y-3269258D03*
G01X3752080Y-3334257D03*
G01X3752080Y-3399256D03*
G01X3752080Y-3464254D03*
G01X4325231Y-3009239D03*
G01X4325231Y-3074237D03*
G01X4325231Y-3139236D03*
G01X4325231Y-3204260D03*
G01X4325231Y-3269258D03*
G01X4325231Y-3334257D03*
G01X4325231Y-3399256D03*
G01X4325231Y-3464254D03*
G01X3749538Y-3714477D03*
G01X3749538Y-3779476D03*
G01X3749538Y-3844474D03*
G01X3749538Y-3909498D03*
G01X3749538Y-3974497D03*
G01X3749538Y-4039496D03*
G01X3749538Y-4104494D03*
G01X3749538Y-4169493D03*
G01X4322689Y-3714477D03*
G01X4322689Y-3779476D03*
G01X4322689Y-3844474D03*
G01X4322689Y-3909498D03*
G01X4322689Y-3974497D03*
G01X4322689Y-4039496D03*
G01X4322689Y-4104494D03*
G01X4322689Y-4169493D03*
G54D54*
G01X1551444Y-7670133D03*
G01X1889924Y-7670133D03*
G54D52*
G01X1241634Y-5290212D03*
G01X1241634Y-5135272D03*
G54D23*
G01X-755687Y-1059286D03*
G01X-565695Y-1059286D03*
G01X-660691Y-859287D03*
G54D29*
G01X-334286Y-1074992D03*
G01X-334286Y-914992D03*
G54D27*
G01X-565385Y-1270391D03*
G01X-725385Y-1270391D03*
G54D29*
G01X1940343Y-5389648D03*
G01X1940343Y-5229648D03*
G54D25*
G01X-725395Y-1484593D03*
G01X-565396Y-1484593D03*
G54D29*
G01X-925894Y-1482997D03*
G01X-925894Y-1322998D03*
G54D55*
G01X1438239Y-5302641D03*
G01X1438239Y-5112642D03*
G01X1718239Y-5112642D03*
G01X1718239Y-5207641D03*
G01X1718239Y-5302641D03*
G54D45*
G01X3881567Y-5373142D03*
G01X3691567Y-5373142D03*
G01X3691567Y-5093142D03*
G01X3786567Y-5093142D03*
G01X3881567Y-5093142D03*
G54D11*
G01X2173977Y-2402605D03*
G01X2328917Y-2402605D03*
G54D12*
G01X1410905Y-1316291D03*
G01X1255965Y-1316291D03*
G01X2148590Y-1325147D03*
G01X1993650Y-1325147D03*
G54D10*
G01X2445250Y-1934368D03*
G01X2445250Y-1779428D03*
G54D11*
G01X1628270Y-1321391D03*
G01X1783210Y-1321391D03*
G54D29*
G01X5780693Y-1161673D03*
G01X5780693Y-1001693D03*
G54D25*
G01X5710908Y-1856898D03*
G01X5870888Y-1856898D03*
G54D56*
G01X5488389Y-1660324D03*
G01X5488389Y-1406324D03*
G01X6128368Y-1406324D03*
G01X6128368Y-1660324D03*
G54D57*
G01X2231560Y-1612666D03*
G01X2104560Y-1612666D03*
G01X1977560Y-1612666D03*
G01X1850560Y-1612666D03*
G01X1723560Y-1612666D03*
G01X1596560Y-1612666D03*
G01X1469560Y-1612666D03*
G01X1342560Y-1612666D03*
G01X2231560Y-2159782D03*
G01X2104560Y-2159782D03*
G01X1977560Y-2159782D03*
G01X1850560Y-2159782D03*
G01X1723560Y-2159782D03*
G01X1596560Y-2159782D03*
G01X1469560Y-2159782D03*
G01X1342560Y-2159782D03*
G54D25*
G01X5562986Y-6819262D03*
G01X5722986Y-6819262D03*
G54D49*
G01X4178478Y-5120702D03*
G01X4177947Y-5277336D03*
G54D13*
G01X4348012Y-2177600D03*
G01X4348543Y-2020966D03*
G54D25*
G01X4394735Y-5115000D03*
G01X4554714Y-5115000D03*
G01X4399815Y-4900797D03*
G01X4559814Y-4900797D03*
G54D29*
G01X4551577Y-2186786D03*
G01X4551577Y-2026807D03*
G54D25*
G01X4376222Y-2391565D03*
G01X4536222Y-2391565D03*
G54D45*
G01X4783922Y-5887408D03*
G01X4593922Y-5887408D03*
G01X4593922Y-5607408D03*
G01X4688922Y-5607408D03*
G01X4783922Y-5607408D03*
G54D10*
G01X4531177Y-7294538D03*
G01X4531177Y-7139598D03*
G54D58*
G01X4979982Y-7302957D03*
G01X4979982Y-6865975D03*
G54D27*
G01X4136855Y-6671361D03*
G01X3976876Y-6671361D03*
G54D59*
G01X2990957Y-7355707D03*
G01X2990957Y-7017227D03*
G54D60*
G01X2771654Y-7007027D03*
G01X2771654Y-7345507D03*
G01X1746237Y-2447568D03*
G01X1746237Y-2786048D03*
G54D59*
G01X1976044Y-2786048D03*
G01X1976044Y-2447568D03*
G54D60*
G01X1518434Y-2447568D03*
G01X1518434Y-2786048D03*
G54D59*
G01X1292635Y-2786048D03*
G01X1292635Y-2447568D03*
G54D61*
G01X-2702138Y-8016764D03*
G01X-2702138Y-8436764D03*
G54D62*
G01X-2551138Y-7719952D03*
G01X-2551138Y-7529960D03*
G01X-2751137Y-7624956D03*
G54D25*
G01X-1880188Y-8441406D03*
G01X-1720208Y-8441406D03*
G54D29*
G01X-942616Y-8214948D03*
G01X-942616Y-8054968D03*
G54D25*
G01X-2052814Y-7772975D03*
G01X-1892834Y-7772975D03*
G54D29*
G01X-2355334Y-8316949D03*
G01X-2355334Y-8156969D03*
G54D26*
G01X-2324733Y-7590872D03*
G01X-2324733Y-7750852D03*
G54D56*
G01X-1864413Y-8226262D03*
G01X-1864413Y-7972262D03*
G01X-1224434Y-7972262D03*
G01X-1224434Y-8226262D03*
G54D55*
G01X1050025Y-4645055D03*
G01X1050025Y-4455055D03*
G01X1330025Y-4455055D03*
G01X1330025Y-4550055D03*
G01X1330025Y-4645055D03*
G54D63*
G01X-1434312Y-4814432D03*
G01X-1434312Y-4254433D03*
G01X-4693254Y-4039222D03*
G01X-4693254Y-3479223D03*
G54D26*
G01X-3714802Y-3782948D03*
G01X-3714802Y-3622968D03*
G01X-3484286Y-3782948D03*
G01X-3484286Y-3622968D03*
G01X-3253771Y-3782948D03*
G01X-3253771Y-3622968D03*
G54D64*
G01X-2123824Y-3618958D03*
G01X-2631824Y-3618958D03*
G54D65*
G01X-2377824Y-4664498D03*
G54D66*
G01X1766342Y-6390371D03*
G01X1766342Y-6820393D03*
G54D67*
G01X5612380Y-6447766D03*
G01X5612380Y-6017744D03*
G54D12*
G01X1201803Y-4850637D03*
G01X1046863Y-4850637D03*
G54D68*
G01X5969837Y-1193890D03*
G01X6193357Y-1193890D03*
G54D15*
G01X6010196Y-7379828D03*
G01X6010196Y-7156308D03*
G54D69*
G01X6265199Y-2132743D03*
G01X6265199Y-2356263D03*
G01X5092184Y-2091943D03*
G01X5092184Y-2315463D03*
G01X3857968Y-2046042D03*
G01X3857968Y-2269562D03*
G54D63*
G01X-4693254Y-5712044D03*
G01X-4693254Y-5152045D03*
G01X-4693254Y-7395066D03*
G01X-4693254Y-6835067D03*
G54D26*
G01X-3728639Y-5507113D03*
G01X-3728639Y-5347134D03*
G01X-3498124Y-5507113D03*
G01X-3498124Y-5347134D03*
G01X-3267609Y-5507113D03*
G01X-3267609Y-5347134D03*
G01X-3769942Y-7193401D03*
G01X-3769942Y-7033422D03*
G01X-3539426Y-7193401D03*
G01X-3539426Y-7033422D03*
G01X-3308911Y-7193401D03*
G01X-3308911Y-7033422D03*
G54D29*
G01X-5186767Y-5516655D03*
G01X-5186767Y-5356676D03*
G54D26*
G01X-5202067Y-3821566D03*
G01X-5202067Y-3981545D03*
G04 Pad End*

M02*

