G04 Layer: DrillDrawingLayer*
G04 EasyEDA Pro v2.2.32.3, 2025-12-05 15:59:02*
G04 Gerber Generator version 0.3*
G04 Scale: 100 percent, Rotated: No, Reflected: No*
G04 Dimensions in millimeters*
G04 Leading zeros omitted, absolute positions, 3 integers and 5 decimals*
%FSLAX35Y35*%
%MOMM*%
%AMIconRect*4,1,4,0.2,-0.2,-0.2,-0.2,-0.2,0.2,0.2,0.2,0.2,-0.2,0*4,0,4,0.166667,-0.166667,0.166667,0.166667,-0.166667,0.166667,-0.166667,-0.166667,0.166667,-0.166667,0*%
%AMIconTriangle*4,1,3,-0.242567,0.171767,0.242567,0.171767,0,-0.2706,-0.242567,0.171767,0*4,0,3,-0.189767,0.1386,0,-0.1953,0.190167,0.1386,-0.189767,0.1386,0*%
%AMIconStar6*4,1,12,0.0862,0.1492,0.213233,0.123367,0.172367,0,0.213233,-0.1229,0.0862,-0.148733,0,-0.245767,-0.085767,-0.148733,-0.213267,-0.1229,-0.171933,0,-0.213267,0.1229,-0.085767,0.1492,0,0.245767,0.0862,0.1492,0*4,0,12,-0.000333,0.195333,-0.064333,0.122667,-0.169667,0.097667,-0.138333,-0.005333,-0.169667,-0.098,-0.064333,-0.122667,-0.000333,-0.195667,0.064333,-0.122667,0.169667,-0.098,0.138667,0.005,0.169667,0.098,0.064333,0.122333,-0.000333,0.195333,0*%
%AMIconStar4*4,1,8,-0.222667,0.222667,0,0.144667,0.222667,0.222667,0.144667,0,0.222667,-0.222667,0,-0.144667,-0.217433,-0.222667,-0.144667,0,-0.222667,0.222667,0*4,0,8,0.166667,-0.166667,0.108,0,0.166667,0.166667,0,0.108,-0.166667,0.166667,-0.108,0,-0.166667,-0.166667,0,-0.108,0.166667,-0.166667,0*%
%AMIconPlus*4,1,12,0.124,-0.2,-0.124,-0.2,-0.124,-0.124,-0.2,-0.124,-0.2,0.124,-0.124,0.124,-0.124,0.2,0.124,0.2,0.124,0.124,0.2,0.124,0.2,-0.124,0.124,-0.124,0.124,-0.2,0*4,0,12,0.090667,-0.166667,0.090667,-0.090667,0.166667,-0.090667,0.166667,0.090667,0.090667,0.090667,0.090667,0.166667,-0.090667,0.166667,-0.090667,0.090667,-0.166667,0.090667,-0.166667,-0.090667,-0.090667,-0.090667,-0.090667,-0.166667,0.090667,-0.166667,0*%
%AMIconX*4,1,16,0.2,-0.2,0.054533,-0.2,0,-0.145467,-0.054533,-0.2,-0.2,-0.2,-0.2,-0.054533,-0.145467,0,-0.2,0.054533,-0.2,0.2,-0.054533,0.2,0,0.145467,0.054533,0.2,0.2,0.2,0.2,0.054533,0.145467,0,0.2,-0.054533,0.2,-0.2,0*4,0,16,0.1668,-0.1664,0.1668,-0.068467,0.097933,0.000067,0.1668,0.068467,0.1668,0.1665,0.068467,0.1665,0,0.097933,-0.068467,0.1665,-0.1668,0.1665,-0.1668,0.068467,-0.097933,0.000067,-0.1668,-0.068467,-0.1668,-0.1664,-0.068467,-0.1664,0,-0.097933,0.068467,-0.1664,0.1668,-0.1664,0*%
%AMIconDiamond*4,1,4,0,-0.26,-0.26,0,0,0.26,0.26,0,0,-0.26,0*4,0,4,0,-0.203433,0.203433,0,0,0.2036,-0.203433,0,0,-0.203433,0*%
%AMIconRect2*4,1,6,0.2,-0.2,-0.2,-0.2,-0.2,0.2,-0.1668,0.1665,-0.166667,-0.166667,0.1668,-0.166667,0.2,-0.2,0*4,1,6,0.2,-0.2,0.1668,-0.166667,0.1668,0.1665,-0.1668,0.1665,-0.2,0.2,0.2,0.2,0.2,-0.2,0*4,1,6,0.133467,-0.133333,-0.133333,-0.133333,-0.133333,0.133467,-0.1,0.100133,-0.1,-0.1,0.100133,-0.1,0.133467,-0.133333,0*4,1,6,0.133467,-0.133333,0.100133,-0.1,0.100133,0.100133,-0.1,0.100133,-0.133333,0.133467,0.133467,0.133467,0.133467,-0.133333,0*%
%ADD10IconRect*%
%ADD11C,0.44X0.373333*%
%ADD12IconTriangle*%
%ADD13IconStar6*%
%ADD14IconStar4*%
%ADD15IconPlus*%
%ADD16IconX*%
%ADD17IconDiamond*%
%ADD18IconRect2*%
G75*


G04 Drill Drawing Start*
G54D10*
G01X1059736Y-676526D03*
G01X3559731Y-676526D03*
G54D11*
G01X1009736Y-9179119D03*
G01X2213736Y-9179119D03*
G54D12*
G01X-4904282Y-8233133D03*
G01X-3684249Y-9433080D03*
G01X-3684249Y-8233083D03*
G01X-3484252Y-8833081D03*
G54D13*
G01X-5856892Y-9336969D03*
G01X-5856892Y-8828969D03*
G01X-85593Y-9186025D03*
G01X422407Y-9186025D03*
G54D14*
G01X2670656Y-4284530D03*
G01X2736099Y-6803122D03*
G01X2924656Y-4284530D03*
G01X2990099Y-6803122D03*
G01X3178656Y-4284530D03*
G01X4102415Y-2258462D03*
G01X4102415Y-2004462D03*
G01X4256510Y-5793749D03*
G01X4256510Y-5539749D03*
G01X4628580Y-6151154D03*
G01X4882580Y-6151154D03*
G54D15*
G01X1755721Y-818512D03*
G01X1894227Y-534515D03*
G01X2032734Y-818512D03*
G01X2171240Y-534515D03*
G01X2309721Y-818512D03*
G01X2448227Y-534515D03*
G01X2586733Y-818512D03*
G01X2725239Y-534515D03*
G01X2863720Y-818512D03*
G01X6843692Y-6422783D03*
G01X6843692Y-6168783D03*
G01X6843692Y-5914783D03*
G01X6843692Y-5660783D03*
G54D16*
G01X-4910634Y-7767875D03*
G01X-4910634Y-6472375D03*
G01X-4910634Y-6076175D03*
G01X-4910634Y-4796175D03*
G01X-4910634Y-4384475D03*
G01X-4910634Y-3104475D03*
G01X-4656634Y-7767875D03*
G01X-4656634Y-6472375D03*
G01X-4656634Y-6076175D03*
G01X-4656634Y-4796175D03*
G01X-4656634Y-4384475D03*
G01X-4656634Y-3104475D03*
G01X-4402634Y-7767875D03*
G01X-4402634Y-6472375D03*
G01X-4402634Y-6076175D03*
G01X-4402634Y-4796175D03*
G01X-4402634Y-4384475D03*
G01X-4402634Y-3104475D03*
G01X-4148634Y-7767875D03*
G01X-4148634Y-6472375D03*
G01X-4148634Y-6076175D03*
G01X-4148634Y-4796175D03*
G01X-4148634Y-4384475D03*
G01X-4148634Y-3104475D03*
G01X-3894634Y-7767875D03*
G01X-3894634Y-6472375D03*
G01X-3894634Y-6076175D03*
G01X-3894634Y-4796175D03*
G01X-3894634Y-4384475D03*
G01X-3894634Y-3104475D03*
G01X-3640634Y-7767875D03*
G01X-3640634Y-6472375D03*
G01X-3640634Y-6076175D03*
G01X-3640634Y-4796175D03*
G01X-3640634Y-4384475D03*
G01X-3640634Y-3104475D03*
G01X-3386634Y-7767875D03*
G01X-3386634Y-6472375D03*
G01X-3386634Y-6076175D03*
G01X-3386634Y-4796175D03*
G01X-3386634Y-4384475D03*
G01X-3386634Y-3104475D03*
G01X-3132634Y-7767875D03*
G01X-3132634Y-6472375D03*
G01X-3132634Y-6076175D03*
G01X-3132634Y-4796175D03*
G01X-3132634Y-4384475D03*
G01X-3132634Y-3104475D03*
G01X1486735Y-9249119D03*
G01X1486735Y-8929119D03*
G01X1736735Y-9249119D03*
G01X1736735Y-8929119D03*
G54D17*
G01X-6046360Y-2343719D03*
G01X-6046360Y-2089719D03*
G01X-6046360Y-1835719D03*
G01X-6046360Y-7616963D03*
G01X-6046360Y-7362963D03*
G01X-6046360Y-7108963D03*
G01X-6046360Y-6854963D03*
G01X-6046360Y-6298652D03*
G01X-6046360Y-6044652D03*
G01X-6046360Y-5790652D03*
G01X-6046360Y-5536652D03*
G01X-6046360Y-4980341D03*
G01X-6046360Y-4726341D03*
G01X-6046360Y-4472341D03*
G01X-6046360Y-4218341D03*
G01X-6046360Y-3662030D03*
G01X-6046360Y-3408030D03*
G01X-6046360Y-3154030D03*
G01X-6046360Y-2900030D03*
G01X-6046360Y-1581719D03*
G01X-6046360Y-1025408D03*
G01X-6046360Y-771408D03*
G01X-6046360Y-517408D03*
G01X-6046360Y-263408D03*
G01X-4981056Y-2349946D03*
G01X-4981056Y-2095946D03*
G01X-4981056Y-1841946D03*
G01X-4981056Y-1587946D03*
G01X-1670504Y-1233687D03*
G01X-1670504Y-979687D03*
G01X-1670504Y-725687D03*
G01X-1504113Y-9407826D03*
G01X-1250113Y-9407826D03*
G01X-1168400Y-88900D03*
G01X-996113Y-9407826D03*
G01X-914400Y-88900D03*
G01X-660400Y-88900D03*
G01X0Y0D03*
G01X254000Y0D03*
G01X508000Y0D03*
G01X4360677Y-474099D03*
G01X4360677Y-220099D03*
G01X4360677Y33901D03*
G01X5021136Y-474099D03*
G01X5021136Y-220099D03*
G01X5021136Y33901D03*
G01X5439134Y-9424556D03*
G01X5627691Y-2529605D03*
G01X5627691Y-2275605D03*
G01X5681594Y-474099D03*
G01X5681594Y-220099D03*
G01X5681594Y33901D03*
G01X5693134Y-9424556D03*
G01X6777391Y-2529605D03*
G01X6777391Y-2275605D03*
G01X6777391Y-1583322D03*
G01X6777391Y-1329322D03*
G01X6777391Y-1075322D03*
G01X6803608Y-8480881D03*
G01X6803608Y-8226881D03*
G01X6803608Y-7972881D03*
G01X6803608Y-7425489D03*
G01X6803608Y-7171489D03*
G01X6803608Y-6917489D03*
G54D18*
G01X-6219121Y113781D03*
G01X-6204409Y-41015D03*
G01X-6103899Y113781D03*
G01X-6089187Y-41015D03*
G01X-5988677Y113781D03*
G01X-5973964Y-41015D03*
G01X-5873455Y113781D03*
G01X-5858742Y-41015D03*
G01X-5816857Y-3055414D03*
G01X-5816857Y-1724297D03*
G01X-5811757Y-2601508D03*
G01X-5758232Y113781D03*
G01X-5361363Y-6431657D03*
G01X-5316410Y-3521D03*
G01X-5301697Y-158317D03*
G01X-5295068Y-296199D03*
G01X-5288768Y-4763462D03*
G01X-5204208Y-998034D03*
G01X-5201187Y-3521D03*
G01X-5189496Y-1152830D03*
G01X-5186475Y-158317D03*
G01X-5179846Y-296199D03*
G01X-5088986Y-998034D03*
G01X-5085965Y-3521D03*
G01X-5074274Y-1152830D03*
G01X-5071253Y-158317D03*
G01X-5064623Y-296199D03*
G01X-4973764Y-998034D03*
G01X-4970743Y-3521D03*
G01X-4959051Y-1152830D03*
G01X-4956030Y-158317D03*
G01X-4858541Y-998034D03*
G01X-4855521Y-3521D03*
G01X-4843829Y-1152830D03*
G01X-4814777Y-4170843D03*
G01X-4743319Y-998034D03*
G01X-4544474Y-4165742D03*
G01X-4524361Y-216727D03*
G01X-4483961Y-7449095D03*
G01X-4444298Y-1212237D03*
G01X-4432272Y-4140242D03*
G01X-4429586Y-1367032D03*
G01X-4429160Y-216727D03*
G01X-4388760Y-7449095D03*
G01X-4333958Y-216727D03*
G01X-4329076Y-1212237D03*
G01X-4314364Y-1367032D03*
G01X-4293559Y-7449095D03*
G01X-4284370Y-4089242D03*
G01X-4218069Y-5792664D03*
G01X-4213854Y-1212237D03*
G01X-4199141Y-1367032D03*
G01X-4198358Y-7449095D03*
G01X-4192569Y-4002540D03*
G01X-4110968Y-5731463D03*
G01X-4105868Y-3920939D03*
G01X-4098632Y-1212237D03*
G01X-4083919Y-1367032D03*
G01X-4044667Y-3824038D03*
G01X-4029367Y-5644762D03*
G01X-3983466Y-5716163D03*
G01X-3983409Y-1212237D03*
G01X-3967287Y-5557063D03*
G01X-3942666Y-3737337D03*
G01X-3906965Y-5639662D03*
G01X-3882154Y-352300D03*
G01X-3881465Y-3665936D03*
G01X-3815452Y94377D03*
G01X-3773561Y-214417D03*
G01X-3766931Y-352300D03*
G01X-3720250Y94377D03*
G01X-3708063Y-3518034D03*
G01X-3673051Y-59622D03*
G01X-3658338Y-214417D03*
G01X-3651709Y-352300D03*
G01X-3625049Y94377D03*
G01X-3616261Y-5231656D03*
G01X-3580561Y-3543534D03*
G01X-3557829Y-59622D03*
G01X-3556346Y-5137971D03*
G01X-3543116Y-214417D03*
G01X-3536487Y-352300D03*
G01X-3522449Y-5219572D03*
G01X-3515139Y-6824867D03*
G01X-3500245Y-5051270D03*
G01X-3469645Y-5132871D03*
G01X-3442606Y-59622D03*
G01X-3427894Y-214417D03*
G01X-3421264Y-352300D03*
G01X-3408444Y-5219572D03*
G01X-3382944Y-5132871D03*
G01X-3306443Y-5209372D03*
G01X-3223556Y-1085303D03*
G01X-3084183Y-7301219D03*
G01X-3080755Y-3650636D03*
G01X-3075799Y-3547705D03*
G01X-3060354Y-1100603D03*
G01X-3005132Y-5528946D03*
G01X-2978696Y-4915159D03*
G01X-2978696Y-4819958D03*
G01X-2978696Y-4724757D03*
G01X-2978696Y-4629555D03*
G01X-2948440Y-1175540D03*
G01X-2944705Y-3112732D03*
G01X-2928040Y-1053138D03*
G01X-2922894Y-5286497D03*
G01X-2922894Y-5191296D03*
G01X-2922894Y-5096095D03*
G01X-2922894Y-5000893D03*
G01X-2917715Y-4507899D03*
G01X-2917496Y-4876059D03*
G01X-2917496Y-4780857D03*
G01X-2917496Y-4685656D03*
G01X-2903826Y-3229373D03*
G01X-2876752Y-6251669D03*
G01X-2867352Y-4261554D03*
G01X-2853909Y-4161192D03*
G01X-2853239Y-1175540D03*
G01X-2851414Y-4385497D03*
G01X-2837525Y-3106971D03*
G01X-2832839Y-1053138D03*
G01X-2822514Y-4507899D03*
G01X-2815793Y-4865448D03*
G01X-2815793Y-4770247D03*
G01X-2815793Y-4675046D03*
G01X-2815793Y-4579845D03*
G01X-2808624Y-3229373D03*
G01X-2800940Y-836806D03*
G01X-2797808Y-4099992D03*
G01X-2796803Y-5729067D03*
G01X-2781480Y-7503842D03*
G01X-2774992Y-5286497D03*
G01X-2774992Y-5191296D03*
G01X-2774992Y-5096095D03*
G01X-2774992Y-5000893D03*
G01X-2772151Y-4261554D03*
G01X-2758708Y-4161192D03*
G01X-2758038Y-1175540D03*
G01X-2756213Y-4385497D03*
G01X-2755924Y-5845706D03*
G01X-2742323Y-3106971D03*
G01X-2737638Y-1053138D03*
G01X-2732123Y-4019883D03*
G01X-2729092Y-4635946D03*
G01X-2727313Y-4507899D03*
G01X-2713423Y-3229373D03*
G01X-2702607Y-4099992D03*
G01X-2689623Y-5723305D03*
G01X-2676949Y-4261554D03*
G01X-2663507Y-4161192D03*
G01X-2661012Y-4385497D03*
G01X-2660722Y-5845706D03*
G01X-2647491Y-4865448D03*
G01X-2647491Y-4770247D03*
G01X-2647491Y-4675046D03*
G01X-2647491Y-4579845D03*
G01X-2647122Y-3106971D03*
G01X-2646996Y-877607D03*
G01X-2620133Y-4502137D03*
G01X-2619195Y-1126948D03*
G01X-2618222Y-3229373D03*
G01X-2618222Y-4019882D03*
G01X-2607406Y-4099992D03*
G01X-2606690Y-5286497D03*
G01X-2606690Y-5191296D03*
G01X-2606690Y-5096095D03*
G01X-2606690Y-5000893D03*
G01X-2606448Y-6246569D03*
G01X-2594422Y-5723305D03*
G01X-2570710Y-4357966D03*
G01X-2568306Y-4161192D03*
G01X-2565889Y-4875649D03*
G01X-2565889Y-4780447D03*
G01X-2565889Y-4685246D03*
G01X-2565521Y-5845706D03*
G01X-2559536Y-1334116D03*
G01X-2551921Y-3106971D03*
G01X-2549336Y-1640120D03*
G01X-2546900Y-7126485D03*
G01X-2541810Y-4480368D03*
G01X-2539248Y-4241153D03*
G01X-2530189Y-4590045D03*
G01X-2521399Y-4040944D03*
G01X-2515336Y-1446317D03*
G01X-2507721Y-3219172D03*
G01X-2506993Y-1181911D03*
G01X-2506993Y-1066688D03*
G01X-2506021Y-7243124D03*
G01X-2505136Y-1752321D03*
G01X-2499220Y-5723305D03*
G01X-2494247Y-6221069D03*
G01X-2484288Y-5293854D03*
G01X-2484288Y-5198653D03*
G01X-2484288Y-5103452D03*
G01X-2484288Y-5008250D03*
G01X-2480520Y-4157585D03*
G01X-2475509Y-4357966D03*
G01X-2470320Y-5845706D03*
G01X-2449035Y-1323916D03*
G01X-2446609Y-4480368D03*
G01X-2445073Y-877607D03*
G01X-2444046Y-4241153D03*
G01X-2439720Y-7120723D03*
G01X-2438835Y-1629920D03*
G01X-2436428Y-7530954D03*
G01X-2420135Y-1446317D03*
G01X-2417988Y-4875649D03*
G01X-2417988Y-4780447D03*
G01X-2417988Y-4685246D03*
G01X-2417988Y-4590045D03*
G01X-2414219Y-4035183D03*
G01X-2410819Y-7243124D03*
G01X-2409934Y-1752321D03*
G01X-2404019Y-5723305D03*
G01X-2385319Y-4157585D03*
G01X-2380308Y-4357966D03*
G01X-2359819Y-5835506D03*
G01X-2353834Y-1323916D03*
G01X-2351408Y-4480368D03*
G01X-2348845Y-4241153D03*
G01X-2346345Y-6170068D03*
G01X-2344518Y-7120723D03*
G01X-2343634Y-1629920D03*
G01X-2336386Y-5293854D03*
G01X-2336386Y-5198653D03*
G01X-2336386Y-5103452D03*
G01X-2336386Y-5008250D03*
G01X-2329850Y-877607D03*
G01X-2324933Y-1446317D03*
G01X-2319018Y-4035183D03*
G01X-2315618Y-7243124D03*
G01X-2314733Y-1752321D03*
G01X-2290118Y-4157585D03*
G01X-2285107Y-4357966D03*
G01X-2258633Y-1323916D03*
G01X-2254544Y-6083367D03*
G01X-2253644Y-4241153D03*
G01X-2249685Y-4875649D03*
G01X-2249685Y-4780447D03*
G01X-2249685Y-4685246D03*
G01X-2249685Y-4590045D03*
G01X-2249317Y-7120723D03*
G01X-2248432Y-1629920D03*
G01X-2244227Y-4474606D03*
G01X-2229732Y-1446317D03*
G01X-2223817Y-4035183D03*
G01X-2220417Y-7243124D03*
G01X-2219532Y-1752321D03*
G01X-2194916Y-4157585D03*
G01X-2187301Y-7582787D03*
G01X-2182201Y-7990792D03*
G01X-2168084Y-5293854D03*
G01X-2168084Y-5198653D03*
G01X-2168084Y-5103452D03*
G01X-2168084Y-5008250D03*
G01X-2167843Y-6001766D03*
G01X-2163431Y-1323916D03*
G01X-2154116Y-7120723D03*
G01X-2153231Y-1629920D03*
G01X-2142584Y-4880749D03*
G01X-2142584Y-4785547D03*
G01X-2142584Y-4690346D03*
G01X-2142584Y-4595145D03*
G01X-2136342Y-4373755D03*
G01X-2128616Y-4035183D03*
G01X-2122552Y-1440555D03*
G01X-2118939Y-4239813D03*
G01X-2112352Y-1746559D03*
G01X-2109916Y-7232924D03*
G01X-2107442Y-4496157D03*
G01X-2106642Y-5904865D03*
G01X-2099406Y-877607D03*
G01X-2084415Y-4147384D03*
G01X-2058409Y-979608D03*
G01X-2041993Y-4025644D03*
G01X-2041141Y-4373755D03*
G01X-2034299Y-7501186D03*
G01X-2023738Y-4239813D03*
G01X-2020826Y-1076509D03*
G01X-2012241Y-4496157D03*
G01X-2004641Y-5818164D03*
G01X-2001114Y-4142284D03*
G01X-1999782Y-5242853D03*
G01X-1999782Y-5132352D03*
G01X-1999782Y-5018450D03*
G01X-1994682Y-4880749D03*
G01X-1994682Y-4785547D03*
G01X-1994682Y-4690346D03*
G01X-1994682Y-4595145D03*
G01X-1984183Y-877607D03*
G01X-1945940Y-4373755D03*
G01X-1943440Y-5746763D03*
G01X-1934813Y-4019882D03*
G01X-1928536Y-4239813D03*
G01X-1917040Y-4496157D03*
G01X-1908428Y-8846513D03*
G01X-1905913Y-4142284D03*
G01X-1901739Y-5031664D03*
G01X-1896639Y-5301967D03*
G01X-1892616Y-4607376D03*
G01X-1881339Y-4837861D03*
G01X-1872839Y-5154065D03*
G01X-1863716Y-4729777D03*
G01X-1852439Y-4960263D03*
G01X-1850739Y-4373755D03*
G01X-1842127Y-8724111D03*
G01X-1839612Y-4019882D03*
G01X-1833335Y-4239813D03*
G01X-1813227Y-8846513D03*
G01X-1810711Y-4142284D03*
G01X-1809859Y-4490395D03*
G01X-1779226Y-7443995D03*
G01X-1746926Y-8724111D03*
G01X-1744411Y-4019882D03*
G01X-1739380Y-5256864D03*
G01X-1739380Y-5161662D03*
G01X-1739380Y-5066461D03*
G01X-1739380Y-4971260D03*
G01X-1735026Y-7556196D03*
G01X-1718026Y-8846513D03*
G01X-1715510Y-4142284D03*
G01X-1690089Y-3434037D03*
G01X-1678180Y-5217763D03*
G01X-1678180Y-5122562D03*
G01X-1678180Y-5027361D03*
G01X-1677295Y-8082593D03*
G01X-1656825Y-7755099D03*
G01X-1651725Y-8724111D03*
G01X-1649210Y-3550677D03*
G01X-1639825Y-7556196D03*
G01X-1622824Y-8846513D03*
G01X-1613588Y-7162185D03*
G01X-1612624Y-7867300D03*
G01X-1582909Y-3428275D03*
G01X-1572708Y-7278825D03*
G01X-1556523Y-8724111D03*
G01X-1555778Y-5192263D03*
G01X-1555778Y-5097061D03*
G01X-1555778Y-5001860D03*
G01X-1554008Y-3550677D03*
G01X-1546323Y-7744899D03*
G01X-1544623Y-7556196D03*
G01X-1517423Y-7867300D03*
G01X-1506408Y-7156423D03*
G01X-1504399Y-8441406D03*
G01X-1494577Y-5248363D03*
G01X-1494577Y-5153162D03*
G01X-1494577Y-5057961D03*
G01X-1487707Y-3428275D03*
G01X-1477507Y-7278825D03*
G01X-1470013Y-3708222D03*
G01X-1458807Y-3550677D03*
G01X-1451122Y-7744899D03*
G01X-1449422Y-7556196D03*
G01X-1429985Y-6147272D03*
G01X-1422222Y-7867300D03*
G01X-1411206Y-7156423D03*
G01X-1392506Y-3428275D03*
G01X-1389106Y-6263912D03*
G01X-1382376Y-5212663D03*
G01X-1382376Y-5117462D03*
G01X-1382376Y-5022260D03*
G01X-1382306Y-7278825D03*
G01X-1363606Y-3550677D03*
G01X-1361021Y-6500483D03*
G01X-1355921Y-7744899D03*
G01X-1342242Y-7550434D03*
G01X-1327020Y-7867300D03*
G01X-1322805Y-6141510D03*
G01X-1321175Y-5268764D03*
G01X-1321175Y-5173562D03*
G01X-1321175Y-5078361D03*
G01X-1316820Y-6612684D03*
G01X-1316005Y-7156423D03*
G01X-1297305Y-3428275D03*
G01X-1293905Y-6263912D03*
G01X-1287105Y-7278825D03*
G01X-1280374Y-4835258D03*
G01X-1280374Y-4740057D03*
G01X-1280374Y-4644856D03*
G01X-1270174Y-4947459D03*
G01X-1260720Y-7744899D03*
G01X-1255218Y-8708337D03*
G01X-1253104Y-3540476D03*
G01X-1250519Y-6490282D03*
G01X-1234474Y-5032461D03*
G01X-1227604Y-6141510D03*
G01X-1221619Y-6612684D03*
G01X-1220882Y-3928743D03*
G01X-1220804Y-7156423D03*
G01X-1219840Y-7861539D03*
G01X-1219174Y-4796158D03*
G01X-1219174Y-4700956D03*
G01X-1198703Y-6263912D03*
G01X-1184409Y-3616421D03*
G01X-1180003Y-4045383D03*
G01X-1179119Y-8622110D03*
G01X-1178373Y-5165062D03*
G01X-1176603Y-7268625D03*
G01X-1160017Y-8708337D03*
G01X-1155318Y-6490282D03*
G01X-1132403Y-6141510D03*
G01X-1126418Y-6612684D03*
G01X-1122272Y-5078361D03*
G01X-1113703Y-3922981D03*
G01X-1106972Y-4910059D03*
G01X-1106972Y-4814858D03*
G01X-1106972Y-4719657D03*
G01X-1106972Y-4624455D03*
G01X-1103502Y-6263912D03*
G01X-1084802Y-4045383D03*
G01X-1083917Y-8622110D03*
G01X-1064816Y-8708337D03*
G01X-1061416Y-9565148D03*
G01X-1060117Y-6490282D03*
G01X-1045771Y-4870959D03*
G01X-1045771Y-4775757D03*
G01X-1045771Y-4680556D03*
G01X-1037202Y-6141510D03*
G01X-1031217Y-6612684D03*
G01X-1018501Y-3922981D03*
G01X-993001Y-6253711D03*
G01X-989601Y-4045383D03*
G01X-988716Y-8622110D03*
G01X-966215Y-9565148D03*
G01X-964916Y-6490282D03*
G01X-948870Y-4797858D03*
G01X-948870Y-4702656D03*
G01X-948870Y-4607455D03*
G01X-948870Y-4512254D03*
G01X-924037Y-6606922D03*
G01X-923300Y-3922981D03*
G01X-913514Y-9218344D03*
G01X-894400Y-4045383D03*
G01X-893515Y-8622110D03*
G01X-887669Y-4758757D03*
G01X-887669Y-4663556D03*
G01X-887669Y-4568355D03*
G01X-871013Y-9565148D03*
G01X-834093Y-2683109D03*
G01X-828099Y-3922981D03*
G01X-818313Y-9218344D03*
G01X-793963Y-9497995D03*
G01X-793963Y-9402793D03*
G01X-793963Y-9307592D03*
G01X-783898Y-4035183D03*
G01X-772892Y-5467745D03*
G01X-723112Y-9218344D03*
G01X-701570Y-1997921D03*
G01X-701570Y-1882699D03*
G01X-694211Y-9585549D03*
G01X-691370Y-2465244D03*
G01X-691370Y-2350022D03*
G01X-691370Y-2234800D03*
G01X-691370Y-2119577D03*
G01X-645469Y-1075947D03*
G01X-643360Y-1010406D03*
G01X-599010Y-9585549D03*
G01X-558689Y-5850250D03*
G01X-525909Y-8453334D03*
G01X-507689Y-6069553D03*
G01X-503809Y-9585549D03*
G01X-485258Y-995867D03*
G01X-460199Y-6835067D03*
G01X-451588Y-6110353D03*
G01X-441388Y-1188790D03*
G01X-430708Y-8453334D03*
G01X-410787Y-6059353D03*
G01X-395487Y-6146054D03*
G01X-383237Y-9520118D03*
G01X-383237Y-9424916D03*
G01X-383237Y-9329715D03*
G01X-356884Y-8625008D03*
G01X-335507Y-8453334D03*
G01X-307198Y-4254433D03*
G01X-291707Y-9545222D03*
G01X-261107Y-7270593D03*
G01X-214461Y-7138788D03*
G01X-214461Y-7043587D03*
G01X-214461Y-6948385D03*
G01X-204827Y-7657625D03*
G01X-204260Y-6858284D03*
G01X-204260Y-6763083D03*
G01X-204260Y-6667882D03*
G01X-196506Y-9545222D03*
G01X-194806Y-6561683D03*
G01X-189706Y-7489895D03*
G01X-177648Y-8068919D03*
G01X-176027Y-7982026D03*
G01X-174406Y-7903001D03*
G01X-165905Y-7270593D03*
G01X-148905Y-7382794D03*
G01X-143317Y-7566563D03*
G01X-131124Y-7111731D03*
G01X-118305Y-6214879D03*
G01X-113205Y-6454582D03*
G01X-109626Y-7657625D03*
G01X-101305Y-9545222D03*
G01X-99605Y-6561683D03*
G01X-94505Y-7489895D03*
G01X-82447Y-8068919D03*
G01X-80826Y-7982026D03*
G01X-79362Y-2889491D03*
G01X-79204Y-7903001D03*
G01X-70704Y-7270593D03*
G01X-53704Y-7382794D03*
G01X-48116Y-7566563D03*
G01X-35923Y-7111731D03*
G01X-14425Y-7657625D03*
G01X-7803Y-6133278D03*
G01X-6103Y-9545222D03*
G01X-4403Y-6561683D03*
G01X0Y-1520294D03*
G01X697Y-7489895D03*
G01X12754Y-8068919D03*
G01X14376Y-7982026D03*
G01X14968Y-7208713D03*
G01X15997Y-7903001D03*
G01X41497Y-7382794D03*
G01X47085Y-7566563D03*
G01X59278Y-7111731D03*
G01X107038Y-6945823D03*
G01X107038Y-6883790D03*
G01X107038Y-6821758D03*
G01X107038Y-6759725D03*
G01X107038Y-6697692D03*
G01X110169Y-7208713D03*
G01X128198Y-6536183D03*
G01X170733Y-6945823D03*
G01X170733Y-6883790D03*
G01X170733Y-6821758D03*
G01X170733Y-6759725D03*
G01X170733Y-6697692D03*
G01X180820Y-571682D03*
G01X187699Y-9540122D03*
G01X205371Y-7208713D03*
G01X234427Y-6945823D03*
G01X234427Y-6883790D03*
G01X234427Y-6821758D03*
G01X234427Y-6759725D03*
G01X234427Y-6697692D03*
G01X242100Y-6541283D03*
G01X254000Y-9417720D03*
G01X271401Y-2776960D03*
G01X282900Y-9540122D03*
G01X298122Y-6945823D03*
G01X298122Y-6883790D03*
G01X298122Y-6821758D03*
G01X298122Y-6759725D03*
G01X298122Y-6697692D03*
G01X298937Y-4714153D03*
G01X335601Y-8943414D03*
G01X339816Y-4830793D03*
G01X342802Y-2853461D03*
G01X349201Y-9417720D03*
G01X378102Y-9540122D03*
G01X382625Y-8125201D03*
G01X383603Y-1649846D03*
G01X388703Y-1547845D03*
G01X405703Y-2761660D03*
G01X406117Y-4708391D03*
G01X435018Y-4830793D03*
G01X438003Y-2868762D03*
G01X444402Y-9417720D03*
G01X458003Y-6250579D03*
G01X473303Y-9540122D03*
G01X490303Y-8928114D03*
G01X490704Y-2771860D03*
G01X491846Y-1789956D03*
G01X496946Y-1935779D03*
G01X501318Y-4708391D03*
G01X517503Y-6189379D03*
G01X530219Y-4830793D03*
G01X539604Y-9417720D03*
G01X540005Y-1670246D03*
G01X541705Y-2868762D03*
G01X548025Y-2433206D03*
G01X550549Y-5664869D03*
G01X550549Y-5569668D03*
G01X550549Y-5474466D03*
G01X550549Y-5379265D03*
G01X556604Y-6281180D03*
G01X563247Y-2185878D03*
G01X575705Y-1527444D03*
G01X583804Y-6066977D03*
G01X596520Y-4708391D03*
G01X611750Y-5625768D03*
G01X611750Y-5530567D03*
G01X611750Y-5435366D03*
G01X612705Y-6189379D03*
G01X624447Y-1929737D03*
G01X624447Y-1814515D03*
G01X624447Y-1699293D03*
G01X625420Y-4830793D03*
G01X655606Y-2139452D03*
G01X667105Y-9167817D03*
G01X670906Y-1527444D03*
G01X675947Y-8011460D03*
G01X679006Y-6066977D03*
G01X680706Y-8963814D03*
G01X686207Y-2027251D03*
G01X691721Y-4708391D03*
G01X692606Y-8637410D03*
G01X706607Y-1904849D03*
G01X707906Y-6189379D03*
G01X731627Y-4386531D03*
G01X732048Y-7746257D03*
G01X735922Y-4820593D03*
G01X742248Y-7889059D03*
G01X742307Y-1751847D03*
G01X750807Y-2139452D03*
G01X771148Y-8011460D03*
G01X774207Y-6066977D03*
G01X781408Y-2027251D03*
G01X798349Y-7623855D03*
G01X801808Y-1904849D03*
G01X804807Y-6184278D03*
G01X812111Y-1547845D03*
G01X825608Y-1440743D03*
G01X827249Y-7746257D03*
G01X829009Y-1649846D03*
G01X837449Y-7889059D03*
G01X845608Y-8627210D03*
G01X852529Y-1326162D03*
G01X860908Y-395D03*
G01X861309Y-1762047D03*
G01X863009Y-2210853D03*
G01X866350Y-8011460D03*
G01X893550Y-7623855D03*
G01X911909Y-8504808D03*
G01X922450Y-7746257D03*
G01X932650Y-7889059D03*
G01X936110Y-2797361D03*
G01X939510Y109677D03*
G01X940809Y-8627210D03*
G01X968410Y-2899362D03*
G01X973510Y-1996650D03*
G01X976130Y-395D03*
G01X988751Y-7623855D03*
G01X993911Y-1874249D03*
G01X996910Y-8362007D03*
G01X1004111Y-1670246D03*
G01X1007110Y-8504808D03*
G01X1017652Y-7746257D03*
G01X1024511Y-1782448D03*
G01X1031311Y-2797361D03*
G01X1036010Y-8627210D03*
G01X1047832Y-2713709D03*
G01X1060211Y109677D03*
G01X1063210Y-8239605D03*
G01X1068712Y-1996650D03*
G01X1083952Y-7623855D03*
G01X1086190Y-1504664D03*
G01X1089112Y-1874249D03*
G01X1091352Y-395D03*
G01X1092111Y-8362007D03*
G01X1099312Y-1670246D03*
G01X1102311Y-8504808D03*
G01X1114612Y-2899362D03*
G01X1119712Y-1782448D03*
G01X1131211Y-8627210D03*
G01X1158412Y-8239605D03*
G01X1163913Y-1996650D03*
G01X1177112Y-6128178D03*
G01X1184313Y-1874249D03*
G01X1186116Y-1563145D03*
G01X1187312Y-8362007D03*
G01X1194513Y-1670246D03*
G01X1197512Y-8504808D03*
G01X1206575Y-395D03*
G01X1214913Y-1782448D03*
G01X1228113Y-6204679D03*
G01X1253613Y-8239605D03*
G01X1272313Y-6128178D03*
G01X1277335Y-2922812D03*
G01X1308355Y-8093062D03*
G01X1321797Y-395D03*
G01X1323314Y-6204679D03*
G01X1334014Y-1152759D03*
G01X1339015Y119877D03*
G01X1367514Y-6128178D03*
G01X1410357Y-7960460D03*
G01X1418515Y-6204679D03*
G01X1437019Y-395D03*
G01X1438239Y-4906738D03*
G01X1457067Y-6948306D03*
G01X1462716Y-6128178D03*
G01X1469560Y-1464193D03*
G01X1471216Y-6837087D03*
G01X1481416Y-7076790D03*
G01X1513716Y-6204679D03*
G01X1517038Y-2938112D03*
G01X1552241Y-395D03*
G01X1552268Y-6948306D03*
G01X1552738Y-7803575D03*
G01X1557917Y-7153291D03*
G01X1566417Y-6837087D03*
G01X1573138Y-4575555D03*
G01X1576617Y-7076790D03*
G01X1595059Y-1060958D03*
G01X1647469Y-6948306D03*
G01X1653118Y-7153291D03*
G01X1661618Y-6837087D03*
G01X1667464Y-395D03*
G01X1671818Y-7076790D03*
G01X1685340Y-2917712D03*
G01X1713364Y-1035709D03*
G01X1748319Y-7153291D03*
G01X1818020Y-7020689D03*
G01X1833242Y-4381431D03*
G01X1838342Y-8027978D03*
G01X1849022Y-1053138D03*
G01X1853642Y-1969100D03*
G01X1858742Y-4718035D03*
G01X1891121Y-395D03*
G01X1902268Y-6735808D03*
G01X1903968Y-6965311D03*
G01X1925043Y-2922812D03*
G01X1960743Y-4371231D03*
G01X1960822Y-6204679D03*
G01X1965843Y-4651734D03*
G01X1974422Y-6847287D03*
G01X1977560Y-1846698D03*
G01X1993868Y-6042274D03*
G01X1997469Y-6735808D03*
G01X2006343Y-395D03*
G01X2009168Y-6132375D03*
G01X2041124Y-2328155D03*
G01X2056023Y-6204679D03*
G01X2069623Y-6847287D03*
G01X2098445Y-7823975D03*
G01X2103624Y-5658972D03*
G01X2116270Y-6108575D03*
G01X2116270Y-6013373D03*
G01X2116270Y-5918172D03*
G01X2116270Y-5822971D03*
G01X2118366Y-2497456D03*
G01X2121566Y-395D03*
G01X2151225Y-6204679D03*
G01X2167666Y-1972149D03*
G01X2176725Y-1086710D03*
G01X2177470Y-5720970D03*
G01X2182570Y-5865471D03*
G01X2182570Y-5578168D03*
G01X2188625Y-2522431D03*
G01X2217525Y-1163211D03*
G01X2236788Y-395D03*
G01X2287148Y-6538759D03*
G01X2328027Y-7081890D03*
G01X2333127Y-7199192D03*
G01X2352010Y-395D03*
G01X2364869Y-2104751D03*
G01X2368749Y-6610160D03*
G01X2407928Y-7137991D03*
G01X2407928Y-7020689D03*
G01X2410029Y-2180253D03*
G01X2428328Y-6908488D03*
G01X2477629Y-1249912D03*
G01X2487829Y-1142810D03*
G01X2492929Y-7102290D03*
G01X2493674Y-6151075D03*
G01X2493674Y-6055874D03*
G01X2493674Y-5960673D03*
G01X2503129Y-7020689D03*
G01X2519972Y-5863026D03*
G01X2523529Y-6908488D03*
G01X2549030Y-1030609D03*
G01X2592851Y-1249912D03*
G01X2603051Y-1142810D03*
G01X2608530Y-7005389D03*
G01X2615173Y-5863026D03*
G01X2664252Y-1030609D03*
G01X2672228Y-2708688D03*
G01X2672228Y-291257D03*
G01X2708073Y-1249912D03*
G01X2710374Y-5863026D03*
G01X2718273Y-1142810D03*
G01X2732632Y-112597D03*
G01X2750365Y-2396536D03*
G01X2750365Y-2281314D03*
G01X2750365Y-2166092D03*
G01X2750365Y-2050870D03*
G01X2750365Y-1935647D03*
G01X2750365Y-1820425D03*
G01X2750365Y-1705203D03*
G01X2750365Y-1589981D03*
G01X2779474Y-1030609D03*
G01X2787451Y-2708688D03*
G01X2787451Y-291257D03*
G01X2805576Y-5863026D03*
G01X2823296Y-1249912D03*
G01X2833496Y-1142810D03*
G01X2847854Y-112597D03*
G01X2894697Y-1030609D03*
G01X2902673Y-2708688D03*
G01X2902673Y-291257D03*
G01X2938518Y-1249912D03*
G01X2948718Y-1142810D03*
G01X2963077Y-112597D03*
G01X3009919Y-1030609D03*
G01X3017895Y-2708688D03*
G01X3017895Y-291257D03*
G01X3045436Y-798609D03*
G01X3053740Y-1249912D03*
G01X3063940Y-1142810D03*
G01X3074336Y-921010D03*
G01X3078299Y-112597D03*
G01X3125141Y-1030609D03*
G01X3133117Y-2708688D03*
G01X3133117Y-291257D03*
G01X3140637Y-798609D03*
G01X3168848Y-1864891D03*
G01X3168962Y-1249912D03*
G01X3179163Y-1142810D03*
G01X3181517Y-915249D03*
G01X3193521Y-112597D03*
G01X3229039Y-3542444D03*
G01X3240363Y-1030609D03*
G01X3245960Y-6416357D03*
G01X3248340Y-2708688D03*
G01X3248340Y-291257D03*
G01X3281660Y-6987565D03*
G01X3281660Y-6579559D03*
G01X3284185Y-1249912D03*
G01X3294385Y-1142810D03*
G01X3308743Y-112597D03*
G01X3347961Y-7676074D03*
G01X3355586Y-1030609D03*
G01X3363261Y-6666260D03*
G01X3363562Y-2708688D03*
G01X3363562Y-291257D03*
G01X3371840Y-3527144D03*
G01X3404141Y-5878275D03*
G01X3423966Y-112597D03*
G01X3456684Y-4679811D03*
G01X3478784Y-2708688D03*
G01X3478784Y-291257D03*
G01X3499342Y-5878275D03*
G01X3504285Y-4797112D03*
G01X3524842Y-3511844D03*
G01X3539188Y-112597D03*
G01X3555443Y-4210553D03*
G01X3562164Y-7548572D03*
G01X3582564Y-6431657D03*
G01X3590214Y-5500896D03*
G01X3592686Y-4710411D03*
G01X3594543Y-5878275D03*
G01X3601186Y-4965414D03*
G01X3620044Y-8856713D03*
G01X3621586Y-4853213D03*
G01X3642144Y-4251353D03*
G01X3648865Y-7941277D03*
G01X3657444Y-3547544D03*
G01X3659065Y-6819262D03*
G01X3669265Y-6722361D03*
G01X3676144Y-8591510D03*
G01X3686344Y-8734311D03*
G01X3711845Y203607D03*
G01X3715245Y-8856713D03*
G01X3716787Y-4853213D03*
G01X3740666Y-7257868D03*
G01X3742445Y-8469108D03*
G01X3771346Y-8591510D03*
G01X3776367Y-6441858D03*
G01X3781546Y-8734311D03*
G01X3801867Y-6650960D03*
G01X3810446Y-8856713D03*
G01X3827067Y203607D03*
G01X3837568Y-7497571D03*
G01X3837646Y-8469108D03*
G01X3846146Y-3608745D03*
G01X3866547Y-8591510D03*
G01X3876171Y-4815259D03*
G01X3876747Y-8734311D03*
G01X3891890Y-4644110D03*
G01X3896454Y-1892908D03*
G01X3898768Y-5477945D03*
G01X3901533Y-4120785D03*
G01X3901533Y-4025584D03*
G01X3901533Y-3930383D03*
G01X3901533Y-3835181D03*
G01X3905647Y-8856713D03*
G01X3916593Y-3453140D03*
G01X3916593Y-3357939D03*
G01X3916593Y-3262738D03*
G01X3932848Y-8469108D03*
G01X3939351Y-3160939D03*
G01X3941348Y-3608745D03*
G01X3942289Y203607D03*
G01X3944669Y-7813775D03*
G01X3961748Y-8591510D03*
G01X3971948Y-8734311D03*
G01X3985548Y-2456130D03*
G01X3987248Y-9453421D03*
G01X4005870Y-6431657D03*
G01X4019549Y-3093638D03*
G01X4023935Y-4187086D03*
G01X4023935Y-4091885D03*
G01X4023935Y-3996683D03*
G01X4023935Y-3901482D03*
G01X4028049Y-8469108D03*
G01X4031370Y-5146441D03*
G01X4031370Y-3208416D03*
G01X4038994Y-3614642D03*
G01X4038994Y-3519441D03*
G01X4038994Y-3424240D03*
G01X4038994Y-3329039D03*
G01X4043349Y-9188217D03*
G01X4051770Y-7523072D03*
G01X4053549Y-9331019D03*
G01X4057512Y203607D03*
G01X4072171Y-7155867D03*
G01X4080750Y-2456130D03*
G01X4082371Y-5993052D03*
G01X4082450Y-9453421D03*
G01X4101150Y-1874723D03*
G01X4109650Y-9065816D03*
G01X4138393Y-4623710D03*
G01X4138550Y-9188217D03*
G01X4148750Y-9331019D03*
G01X4172734Y203607D03*
G01X4175951Y-2456130D03*
G01X4177651Y-9453421D03*
G01X4179272Y-7104866D03*
G01X4184372Y-4106027D03*
G01X4184372Y-3399256D03*
G01X4189472Y-3789823D03*
G01X4189472Y-3208416D03*
G01X4189472Y-3074237D03*
G01X4192951Y-3904549D03*
G01X4204851Y-9065816D03*
G01X4230273Y-7553672D03*
G01X4233752Y-9188217D03*
G01X4235373Y-8017778D03*
G01X4243952Y-9331019D03*
G01X4272852Y-9453421D03*
G01X4287956Y203607D03*
G01X4296652Y-3603645D03*
G01X4300052Y-9065816D03*
G01X4311953Y-2833535D03*
G01X4323853Y-8866913D03*
G01X4328953Y-9188217D03*
G01X4339153Y-9331019D03*
G01X4340853Y-2920236D03*
G01X4354379Y-6096553D03*
G01X4379953Y-8601710D03*
G01X4390154Y-8744512D03*
G01X4393452Y-3602075D03*
G01X4395254Y-9065816D03*
G01X4403178Y203607D03*
G01X4410703Y-1666665D03*
G01X4412254Y-1915523D03*
G01X4419054Y-8866913D03*
G01X4436054Y-2920236D03*
G01X4446254Y-8479308D03*
G01X4462300Y-5743070D03*
G01X4462300Y-5647869D03*
G01X4462300Y-5552667D03*
G01X4464876Y-5875750D03*
G01X4464876Y-3269617D03*
G01X4469976Y-6676461D03*
G01X4475155Y-8601710D03*
G01X4485355Y-8744512D03*
G01X4495533Y-4262508D03*
G01X4500576Y-7798475D03*
G01X4510776Y-3417518D03*
G01X4513389Y-6423945D03*
G01X4514255Y-8866913D03*
G01X4518401Y203607D03*
G01X4520976Y-3825524D03*
G01X4526155Y-4149352D03*
G01X4536277Y-2576008D03*
G01X4541455Y-8479308D03*
G01X4547478Y-3727001D03*
G01X4549933Y-3619900D03*
G01X4551577Y-1693696D03*
G01X4554955Y-4310984D03*
G01X4570356Y-8601710D03*
G01X4577077Y-7563872D03*
G01X4577077Y-7436370D03*
G01X4580556Y-8744512D03*
G01X4609456Y-8866913D03*
G01X4616256Y-3946226D03*
G01X4624560Y-234999D03*
G01X4628078Y-7319069D03*
G01X4628078Y-6416357D03*
G01X4636657Y-8479308D03*
G01X4636657Y-3420043D03*
G01X4650156Y-4310984D03*
G01X4665557Y-8601710D03*
G01X4673978Y-5391244D03*
G01X4675757Y-8744512D03*
G01X4676528Y-5256092D03*
G01X4677457Y-3200740D03*
G01X4679079Y-7135467D03*
G01X4679079Y-4779851D03*
G01X4689279Y-7268068D03*
G01X4696157Y-9076016D03*
G01X4730079Y-6870263D03*
G01X4731858Y-8479308D03*
G01X4739783Y-234999D03*
G01X4740279Y-7023265D03*
G01X4745379Y-6003252D03*
G01X4752258Y-8810812D03*
G01X4762458Y-8953614D03*
G01X4775980Y-3412418D03*
G01X4782859Y-3200740D03*
G01X4791359Y-9076016D03*
G01X4793059Y-3681023D03*
G01X4794736Y-3880003D03*
G01X4796459Y-3573921D03*
G01X4798904Y-3798245D03*
G01X4818559Y-8688411D03*
G01X4819501Y-8537906D03*
G01X4847459Y-8810812D03*
G01X4850890Y-1654585D03*
G01X4855005Y-234999D03*
G01X4857660Y-8953614D03*
G01X4865231Y-6424007D03*
G01X4886560Y-9076016D03*
G01X4908581Y-4687435D03*
G01X4913760Y-8688411D03*
G01X4918481Y-8527706D03*
G01X4942661Y-8810812D03*
G01X4952861Y-8953614D03*
G01X4956261Y-3654646D03*
G01X4964682Y-6416357D03*
G01X4969782Y-1668196D03*
G01X4971539Y-3568899D03*
G01X4974882Y-7441471D03*
G01X4981761Y-9076016D03*
G01X5008962Y-8688411D03*
G01X5018207Y-5513567D03*
G01X5018207Y-5418366D03*
G01X5018207Y-5323164D03*
G01X5037862Y-8810812D03*
G01X5048062Y-8953614D03*
G01X5051383Y-3529720D03*
G01X5056483Y-6671361D03*
G01X5063362Y-8517506D03*
G01X5078662Y198507D03*
G01X5104163Y-8688411D03*
G01X5127884Y-7803575D03*
G01X5127884Y-7109966D03*
G01X5153441Y-3568899D03*
G01X5167064Y-2068525D03*
G01X5193885Y198507D03*
G01X5207864Y-2211327D03*
G01X5222406Y-7451592D03*
G01X5223164Y-2134826D03*
G01X5248848Y-7191489D03*
G01X5281527Y-7298590D03*
G01X5305440Y-8548185D03*
G01X5305440Y-8242181D03*
G01X5309107Y198507D03*
G01X5323798Y-5386144D03*
G01X5326787Y-7053865D03*
G01X5337628Y-7451592D03*
G01X5347187Y-4753736D03*
G01X5354066Y-3960650D03*
G01X5357466Y-3634245D03*
G01X5369366Y-4200353D03*
G01X5374466Y-3726047D03*
G01X5408388Y-1535594D03*
G01X5410167Y-4465556D03*
G01X5420367Y-3838248D03*
G01X5424329Y198507D03*
G01X5435667Y-4077951D03*
G01X5440767Y-3603645D03*
G01X5449267Y-3960650D03*
G01X5449875Y-207035D03*
G01X5454289Y-5258642D03*
G01X5464489Y-6487758D03*
G01X5464489Y-5401444D03*
G01X5464567Y-4200353D03*
G01X5469667Y-3726047D03*
G01X5476468Y-4343155D03*
G01X5481964Y-5997945D03*
G01X5493468Y-1313715D03*
G01X5493963Y-5884441D03*
G01X5505368Y-4465556D03*
G01X5515489Y-5712548D03*
G01X5515568Y-3838248D03*
G01X5530868Y-4077951D03*
G01X5535968Y-3603645D03*
G01X5539552Y198507D03*
G01X5544468Y-3960650D03*
G01X5559769Y-4200353D03*
G01X5564869Y-3726047D03*
G01X5571669Y-4343155D03*
G01X5600569Y-4465556D03*
G01X5610769Y-3838248D03*
G01X5626070Y-4077951D03*
G01X5631170Y-3603645D03*
G01X5637970Y-4613458D03*
G01X5639670Y-3960650D03*
G01X5641370Y-1420817D03*
G01X5651570Y-1334116D03*
G01X5654774Y198507D03*
G01X5654970Y-4200353D03*
G01X5658291Y-5406544D03*
G01X5660070Y-3726047D03*
G01X5666870Y-4343155D03*
G01X5673591Y-4881237D03*
G01X5693992Y-7604673D03*
G01X5695770Y-4465556D03*
G01X5699092Y-5732948D03*
G01X5705971Y-3838248D03*
G01X5709292Y-2009900D03*
G01X5714392Y-6681561D03*
G01X5721271Y-4077951D03*
G01X5721667Y-5870443D03*
G01X5726371Y-3603645D03*
G01X5729433Y-6018494D03*
G01X5733171Y-4613458D03*
G01X5762071Y-4343155D03*
G01X5769996Y198507D03*
G01X5801093Y-5340243D03*
G01X5802584Y-4177543D03*
G01X5828372Y-4613458D03*
G01X5862373Y-3766847D03*
G01X5864073Y-3986150D03*
G01X5877673Y-4455356D03*
G01X5885218Y198507D03*
G01X5887298Y-8849010D03*
G01X5889969Y-4340423D03*
G01X5903094Y-6084853D03*
G01X5911066Y-1410769D03*
G01X5923573Y-3659746D03*
G01X5930373Y-3863748D03*
G01X5941667Y-1334268D03*
G01X5957574Y-3766847D03*
G01X5959274Y-3986150D03*
G01X5960974Y-4205453D03*
G01X5962902Y-1262749D03*
G01X5967167Y-1109865D03*
G01X5972874Y-4455356D03*
G01X5979595Y-5498345D03*
G01X5994896Y-5773749D03*
G01X6002520Y-8849010D03*
G01X6017471Y-4350623D03*
G01X6018775Y-3659746D03*
G01X6025496Y-6768262D03*
G01X6025575Y-3863748D03*
G01X6027275Y-4083051D03*
G01X6040796Y-3116615D03*
G01X6045896Y-1867098D03*
G01X6052775Y-3766847D03*
G01X6054475Y-3986150D03*
G01X6056175Y-4205453D03*
G01X6066428Y-1110529D03*
G01X6068075Y-4455356D03*
G01X6081597Y-2963613D03*
G01X6083434Y-8640149D03*
G01X6088476Y-7517893D03*
G01X6096897Y-4626234D03*
G01X6102638Y-7441392D03*
G01X6113976Y-3659746D03*
G01X6116503Y-5763549D03*
G01X6117938Y-8757209D03*
G01X6120776Y-3863748D03*
G01X6122476Y-4083051D03*
G01X6149676Y-3986150D03*
G01X6151376Y-4205453D03*
G01X6167801Y-6768183D03*
G01X6193798Y-2917712D03*
G01X6202560Y-7293490D03*
G01X6203698Y-7517893D03*
G01X6204639Y-8594007D03*
G01X6215977Y-3863748D03*
G01X6217677Y-4083051D03*
G01X6229577Y-3731147D03*
G01X6241874Y-4850430D03*
G01X6246578Y-4205453D03*
G01X6271882Y-6763083D03*
G01X6277574Y-3621314D03*
G01X6285599Y-2882012D03*
G01X6287775Y-4753528D03*
G01X6289306Y-803743D03*
G01X6290399Y-7635194D03*
G01X6312682Y-8706208D03*
G01X6312878Y-4083051D03*
G01X6318920Y-7517893D03*
G01X6324779Y-3731147D03*
G01X6329951Y-1849256D03*
G01X6331500Y-5620747D03*
G01X6348579Y-6696782D03*
G01X6353679Y-7716795D03*
G01X6367200Y-1678396D03*
G01X6379179Y-4832761D03*
G01X6379576Y-3963018D03*
G01X6384676Y-3855917D03*
G01X6389776Y-3621314D03*
G01X6391263Y-8665408D03*
G01X6395421Y-6610081D03*
G01X6404529Y-803743D03*
G01X6410176Y-5538939D03*
G01X6410176Y-4070120D03*
G01X6419980Y-3731147D03*
G01X6445173Y-1849256D03*
G01X6445480Y-4710359D03*
G01X6474001Y-6717182D03*
G01X6474380Y-4832761D03*
G01X6499802Y-5712548D03*
G01X6510643Y-6610081D03*
G01X6519751Y-803743D03*
G01X6525302Y-5809449D03*
G01X6537281Y-4572658D03*
G01X6540681Y-4710359D03*
G01X6552582Y-8650107D03*
G01X6560396Y-1849256D03*
G01X6561003Y-2978913D03*
G01X6569582Y-4832761D03*
G01X6600365Y-8502205D03*
G01X6603582Y-4450256D03*
G01X6619713Y-1726855D03*
G01X6625866Y-6610081D03*
G01X6632483Y-4572658D03*
G01X6634973Y-803743D03*
G01X6635883Y-4710359D03*
G01X6664783Y-4832761D03*
G01X6667804Y-8650107D03*
G01X6675618Y-1849256D03*
G01X6693605Y-5411644D03*
G01X6698783Y-4450256D03*
G01X6714084Y-2889636D03*
G01X6724735Y-1986958D03*
G01X6727684Y-4572658D03*
G01X6731084Y-4710359D03*
G01X6741680Y-4314923D03*
G01X6750196Y-803743D03*
G01X6751288Y-7635194D03*
G01X6756981Y-5508338D03*
G01X6782481Y-4814729D03*
G01X6783026Y-8650107D03*
G01X6783817Y-1742155D03*
G01X6790840Y-1849256D03*
G01X6793985Y-4450256D03*
G01X6809285Y-2889636D03*
G01X6822885Y-4572658D03*
G01X6826285Y-3190540D03*
G01X6828382Y-5314536D03*
G01X6843682Y-4896330D03*
G01X6848782Y-5452238D03*
G01X6848782Y-4197621D03*
G01X6854469Y-4683657D03*
G01X6858982Y-3968118D03*
G01X6864082Y-3840617D03*
G01X6864082Y-3713115D03*
G01X6864082Y-3585613D03*
G01X6866510Y-7635194D03*
G01X6869182Y-4085420D03*
G01X6873539Y-895544D03*
G01X6882228Y-1981876D03*
G01X6884482Y-4320023D03*
G01X6889186Y-4450256D03*
G01X6898248Y-8650107D03*
G01X6899782Y-4794329D03*
G01X6904486Y-2889636D03*
G01X6906062Y-1849256D03*
G01X6921486Y-3190540D03*
G01X6925378Y-5530942D03*
G01X6940583Y-5294135D03*
G01X6945683Y-5406337D03*
G01X6968929Y-1768418D03*
G01X6968929Y-1653196D03*
G01X6968929Y-1537974D03*
G01X6968929Y-1422752D03*
G01X6968929Y-1307529D03*
G01X6968929Y-1192307D03*
G01X6968929Y-1077085D03*
G01X6968929Y-961862D03*
G01X6971532Y-6610081D03*
G01X6974029Y-2788432D03*
G01X6974029Y-2673209D03*
G01X6974029Y-2557987D03*
G01X6974029Y-2442765D03*
G01X6974029Y-2327542D03*
G01X6974029Y-2212320D03*
G01X6974029Y-2097098D03*
G01X6980987Y-3037538D03*
G01X6981733Y-7635194D03*
G04 Drill Drawing End*

M02*

