G04 Layer: CustomLayer2*
G04 EasyEDA Pro v2.2.32.3, 2025-12-05 15:59:02*
G04 Gerber Generator version 0.3*
G04 Scale: 100 percent, Rotated: No, Reflected: No*
G04 Dimensions in millimeters*
G04 Leading zeros omitted, absolute positions, 3 integers and 5 decimals*
%FSLAX35Y35*%
%MOMM*%
%ADD10C,0.15*%
%ADD11C,0.0127*%
G75*


G04 PolygonModel Start*
G54D10*
G01X1662819Y-7372900D02*
G01X1562819Y-7372900D01*
G01X1612819Y-7422900D02*
G01X1612819Y-7322900D01*
G01X752819Y-7422900D02*
G01X752819Y-7322900D01*
G01X-317594Y-8326612D02*
G01X-217594Y-8326612D01*
G01X-267595Y-8276612D02*
G01X-267595Y-8376612D01*
G01X592405Y-8276612D02*
G01X592405Y-8376612D01*
G54D11*
G01X-610263Y-9321762D02*
G01X-605183Y-9326842D01*
G01X-601333Y-9351880D02*
G01X-596253Y-9356960D01*
G01X-595859Y-8983380D02*
G01X-590779Y-8988460D01*
G01X6214369Y-5859337D02*
G01X6209289Y-5864417D01*
G01X6211669Y-6150041D02*
G01X6206589Y-6155121D01*
G01X5072897Y-7724545D02*
G01X5067817Y-7719465D01*
G01X3380351Y-7245420D02*
G01X3385431Y-7250500D01*
G01X3579253Y-7245420D02*
G01X3584333Y-7250500D01*
G54D10*
G01X2018289Y-7872138D02*
G01X2198289Y-7872138D01*
G01X2018289Y-8182138D02*
G01X2198289Y-8182138D01*
G01X2018289Y-8182138D02*
G01X2018289Y-7872138D01*
G01X2198289Y-8182138D02*
G01X2198289Y-7872138D01*
G54D11*
G01X216166Y-7842927D02*
G01X221246Y-7837847D01*
G01X4361790Y-7225060D02*
G01X4356710Y-7219980D01*
G01X4434493Y-6325349D02*
G01X4429413Y-6320269D01*
G01X4425562Y-6295230D02*
G01X4420482Y-6290150D01*
G01X1729118Y-7342082D02*
G01X1724038Y-7347162D01*
G01X1699000Y-7351013D02*
G01X1693920Y-7356093D01*
G01X4935195Y-2216473D02*
G01X4930115Y-2211393D01*
G01X5055370Y-2558137D02*
G01X5060450Y-2563217D01*
G01X6108210Y-2211373D02*
G01X6103130Y-2206293D01*
G01X6034583Y-2593837D02*
G01X6039663Y-2598917D01*
G01X5955884Y-8367434D02*
G01X5960964Y-8372514D01*
G01X6036453Y-7973608D02*
G01X6031373Y-7968528D01*
G01X4127158Y-6296485D02*
G01X4132238Y-6301565D01*
G01X2098101Y-7346286D02*
G01X2093021Y-7351366D01*
G01X4751236Y-4123058D02*
G01X4746156Y-4117978D01*
G01X-292373Y-997558D02*
G01X-297453Y-992478D01*
G01X-642820Y-1228477D02*
G01X-647900Y-1233557D01*
G01X1982257Y-5312213D02*
G01X1977177Y-5307133D01*
G01X-647961Y-1526507D02*
G01X-642881Y-1521427D01*
G01X-883980Y-1405563D02*
G01X-889060Y-1400483D01*
G01X5822607Y-1084259D02*
G01X5817527Y-1079179D01*
G01X5788322Y-1898812D02*
G01X5793402Y-1893732D01*
G01X5640421Y-6861176D02*
G01X5645501Y-6856096D01*
G01X4472149Y-5156914D02*
G01X4477229Y-5151834D01*
G01X4477249Y-4942711D02*
G01X4482329Y-4937631D01*
G01X4593491Y-2109372D02*
G01X4588411Y-2104292D01*
G01X4453657Y-2433479D02*
G01X4458737Y-2428399D01*
G01X4059441Y-6629447D02*
G01X4054361Y-6634527D01*
G54D10*
G01X-2702138Y-7756764D02*
G01X-2702138Y-7856764D01*
G01X-2652138Y-7806764D02*
G01X-2752138Y-7806764D01*
G01X-2652138Y-8666764D02*
G01X-2752138Y-8666764D01*
G54D11*
G01X-1802773Y-8483319D02*
G01X-1797693Y-8478239D01*
G01X-900702Y-8137533D02*
G01X-905782Y-8132453D01*
G01X-1975399Y-7814889D02*
G01X-1970319Y-7809809D01*
G01X-2313420Y-8239535D02*
G01X-2318500Y-8234455D01*
G01X-2366647Y-7668286D02*
G01X-2361567Y-7673366D01*
G01X-1362090Y-4536973D02*
G01X-1367170Y-4531893D01*
G01X-4621033Y-3761763D02*
G01X-4626113Y-3756683D01*
G01X-4621033Y-5434585D02*
G01X-4626113Y-5429505D01*
G01X-4621033Y-7117606D02*
G01X-4626113Y-7112526D01*
G01X-5144853Y-5439241D02*
G01X-5149933Y-5434161D01*
G01X-5243981Y-3898980D02*
G01X-5238901Y-3904060D01*

M02*

