  0
SECTION
  2
HEADER
  9
$ACADVER
  1
AC1009
  9
$INSBASE
 10
0.0
 20
0.0
 30
0.0
  9
$EXTMIN
 10
-58.2669333305180004
 20
142.2590040446274031
 30
0.0
  9
$EXTMAX
 10
55.7330666694820422
 20
202.2590040446274884
 30
0.0
  9
$LIMMIN
 10
0.0
 20
0.0
  9
$LIMMAX
 10
420.0
 20
297.0
  9
$ORTHOMODE
 70
     1
  9
$REGENMODE
 70
     1
  9
$FILLMODE
 70
     1
  9
$QTEXTMODE
 70
     0
  9
$MIRRTEXT
 70
     1
  9
$DRAGMODE
 70
     2
  9
$LTSCALE
 40
1.0
  9
$OSMODE
 70
    39
  9
$ATTMODE
 70
     1
  9
$TEXTSIZE
 40
0.0
  9
$TRACEWID
 40
1.0
  9
$TEXTSTYLE
  7
STANDARD
  9
$CLAYER
  8
0
  9
$CELTYPE
  6
BYLAYER
  9
$CECOLOR
 62
   256
  9
$DIMSCALE
 40
1.0
  9
$DIMASZ
 40
2.5
  9
$DIMEXO
 40
0.625
  9
$DIMDLI
 40
3.75
  9
$DIMRND
 40
0.0
  9
$DIMDLE
 40
0.0
  9
$DIMEXE
 40
1.25
  9
$DIMTP
 40
0.0
  9
$DIMTM
 40
0.0
  9
$DIMTXT
 40
2.5
  9
$DIMCEN
 40
2.5
  9
$DIMTSZ
 40
0.0
  9
$DIMTOL
 70
     0
  9
$DIMLIM
 70
     0
  9
$DIMTIH
 70
     0
  9
$DIMTOH
 70
     0
  9
$DIMSE1
 70
     0
  9
$DIMSE2
 70
     0
  9
$DIMTAD
 70
     1
  9
$DIMZIN
 70
     8
  9
$DIMBLK
  1

  9
$DIMASO
 70
     1
  9
$DIMSHO
 70
     1
  9
$DIMPOST
  1

  9
$DIMAPOST
  1

  9
$DIMALT
 70
     0
  9
$DIMALTD
 70
     3
  9
$DIMALTF
 40
0.03937
  9
$DIMLFAC
 40
1.0
  9
$DIMTOFL
 70
     1
  9
$DIMTVP
 40
0.0
  9
$DIMTIX
 70
     0
  9
$DIMSOXD
 70
     0
  9
$DIMSAH
 70
     0
  9
$DIMBLK1
  1

  9
$DIMBLK2
  1

  9
$DIMSTYLE
  2
STANDARD
  9
$DIMCLRD
 70
     0
  9
$DIMCLRE
 70
     0
  9
$DIMCLRT
 70
     0
  9
$DIMTFAC
 40
1.0
  9
$DIMGAP
 40
0.625
  9
$LUNITS
 70
     2
  9
$LUPREC
 70
     4
  9
$SKETCHINC
 40
1.0
  9
$FILLETRAD
 40
2.5
  9
$AUNITS
 70
     0
  9
$AUPREC
 70
     0
  9
$MENU
  1
.
  9
$ELEVATION
 40
0.0
  9
$PELEVATION
 40
0.0
  9
$THICKNESS
 40
0.0
  9
$LIMCHECK
 70
     0
  9
$BLIPMODE
 70
     0
  9
$CHAMFERA
 40
2.5
  9
$CHAMFERB
 40
2.5
  9
$SKPOLY
 70
     0
  9
$TDCREATE
 40
2460901.7379976850934327
  9
$TDUPDATE
 40
2460901.7415856481529772
  9
$TDINDWG
 40
0.0014699074
  9
$TDUSRTIMER
 40
0.0014699074
  9
$USRTIMER
 70
     1
  9
$ANGBASE
 50
0.0
  9
$ANGDIR
 70
     0
  9
$PDMODE
 70
     0
  9
$PDSIZE
 40
0.0
  9
$PLINEWID
 40
0.0
  9
$COORDS
 70
     1
  9
$SPLFRAME
 70
     0
  9
$SPLINETYPE
 70
     6
  9
$SPLINESEGS
 70
     8
  9
$ATTDIA
 70
     1
  9
$ATTREQ
 70
     1
  9
$HANDLING
 70
     1
  9
$HANDSEED
  5
F4E
  9
$SURFTAB1
 70
     6
  9
$SURFTAB2
 70
     6
  9
$SURFTYPE
 70
     6
  9
$SURFU
 70
     6
  9
$SURFV
 70
     6
  9
$UCSNAME
  2

  9
$UCSORG
 10
0.0
 20
0.0
 30
0.0
  9
$UCSXDIR
 10
1.0
 20
0.0
 30
0.0
  9
$UCSYDIR
 10
0.0
 20
1.0
 30
0.0
  9
$PUCSNAME
  2

  9
$PUCSORG
 10
0.0
 20
0.0
 30
0.0
  9
$PUCSXDIR
 10
1.0
 20
0.0
 30
0.0
  9
$PUCSYDIR
 10
0.0
 20
1.0
 30
0.0
  9
$USERI1
 70
     0
  9
$USERI2
 70
     0
  9
$USERI3
 70
     0
  9
$USERI4
 70
     0
  9
$USERI5
 70
     0
  9
$USERR1
 40
0.0
  9
$USERR2
 40
0.0
  9
$USERR3
 40
0.0
  9
$USERR4
 40
0.0
  9
$USERR5
 40
0.0
  9
$WORLDVIEW
 70
     1
  9
$SHADEDGE
 70
     3
  9
$SHADEDIF
 70
    70
  9
$TILEMODE
 70
     1
  9
$MAXACTVP
 70
    48
  9
$PLIMCHECK
 70
     0
  9
$PEXTMIN
 10
0.0
 20
0.0
 30
0.0
  9
$PEXTMAX
 10
790.420043999999848
 20
622.9705199999998513
 30
2.0
  9
$PLIMMIN
 10
0.0
 20
0.0
  9
$PLIMMAX
 10
420.0
 20
297.0
  9
$UNITMODE
 70
     0
  9
$VISRETAIN
 70
     0
  9
$PLINEGEN
 70
     0
  9
$PSLTSCALE
 70
     1
  0
ENDSEC
  0
SECTION
  2
TABLES
  0
TABLE
  2
VPORT
 70
     1
  0
VPORT
  2
*ACTIVE
 70
     0
 10
0.0
 20
0.0
 11
1.0
 21
1.0
 12
-106.1509561673023967
 22
161.9975963772616865
 13
0.0
 23
0.0
 14
1.0
 24
1.0
 15
0.0
 25
0.0
 16
0.0
 26
0.0
 36
1.0
 17
0.0
 27
0.0
 37
0.0
 40
213.672185354206988
 41
2.0986238532110089
 42
50.0
 43
0.0
 44
0.0
 50
0.0
 51
0.0
 71
     0
 72
   100
 73
     1
 74
     1
 75
     0
 76
     0
 77
     0
 78
     0
  0
ENDTAB
  0
TABLE
  2
LTYPE
 70
     2
  0
LTYPE
  2
CONTINUOUS
 70
     0
  3
Solid line
 72
    65
 73
     0
 40
0.0
  0
LTYPE
  2
DASHDOT
 70
     0
  3
 __ . __ . __ . __ . __ . __ . __ . 
 72
    65
 73
     4
 40
18.5
 49
12.0
 49
-3.0
 49
0.5
 49
-3.0
  0
ENDTAB
  0
TABLE
  2
LAYER
 70
     1
  0
LAYER
  2
0
 70
     0
 62
     7
  6
CONTINUOUS
  0
ENDTAB
  0
TABLE
  2
STYLE
 70
     2
  0
STYLE
  2
STANDARD
 70
     0
 40
0.0
 41
1.0
 50
0.0
 71
     0
 42
0.0
  3
txt.shx
  4
tssdchn
  0
STYLE
  2
ANNOTATIVE
 70
     0
 40
0.0
 41
1.0
 50
0.0
 71
     0
 42
0.2
  3
txt.shx
  4
tssdchn
  0
ENDTAB
  0
TABLE
  2
VIEW
 70
     0
  0
ENDTAB
  0
TABLE
  2
UCS
 70
     0
  0
ENDTAB
  0
TABLE
  2
APPID
 70
     5
  0
APPID
  2
ACAD
 70
     0
  0
APPID
  2
ACADANNOTATIVE
 70
     0
  0
APPID
  2
ACAD_NAV_VCDISPLAY
 70
     0
  0
APPID
  2
DCO15
 70
     0
  0
APPID
  2
ACAD_MLEADERVER
 70
     0
  0
ENDTAB
  0
TABLE
  2
DIMSTYLE
 70
     2
  0
DIMSTYLE
  2
STANDARD
 70
     0
  3

  4

  5

  6

  7

 40
1.0
 41
0.18
 42
0.0625
 43
0.38
 44
0.18
 45
0.0
 46
0.0
 47
0.0
 48
0.0
140
0.18
141
0.09
142
0.0
143
25.3999999999999986
144
1.0
145
0.0
146
1.0
147
0.09
 71
     0
 72
     0
 73
     1
 74
     1
 75
     0
 76
     0
 77
     0
 78
     0
170
     0
171
     2
172
     0
173
     0
174
     0
175
     0
176
     0
177
     0
178
     0
  0
DIMSTYLE
  2
ANNOTATIVE
 70
     0
  3

  4

  5

  6

  7

 40
1.0
 41
0.18
 42
0.0625
 43
0.38
 44
0.18
 45
0.0
 46
0.0
 47
0.0
 48
0.0
140
0.18
141
0.09
142
0.0
143
25.3999999999999986
144
1.0
145
0.0
146
1.0
147
0.09
 71
     0
 72
     0
 73
     1
 74
     1
 75
     0
 76
     0
 77
     0
 78
     0
170
     0
171
     2
172
     0
173
     0
174
     0
175
     0
176
     0
177
     0
178
     0
  0
ENDTAB
  0
ENDSEC
  0
SECTION
  2
BLOCKS
  0
BLOCK
  8
0
  2
$MODEL_SPACE
 70
     0
 10
0.0
 20
0.0
 30
0.0
  3
$MODEL_SPACE
  1

  0
ENDBLK
  5
EE8
  8
0
  0
BLOCK
 67
     1
  8
0
  2
$PAPER_SPACE
 70
     0
 10
0.0
 20
0.0
 30
0.0
  3
$PAPER_SPACE
  1

  0
ENDBLK
  5
EE4
 67
     1
  8
0
  0
ENDSEC
  0
SECTION
  2
ENTITIES
  0
LINE
  5
DC9
  8
0
  6
DASHDOT
 62
     7
 10
45.0330546694819986
 20
159.1089800446274012
 30
0.0
 11
45.0330546694819986
 21
160.4090280446274051
 31
0.0
  0
LINE
  5
DCA
  8
0
  6
DASHDOT
 62
     7
 10
45.6830786694820219
 20
159.7590040446274884
 30
0.0
 11
44.3830606694820631
 21
159.7590040446274884
 31
0.0
  0
LINE
  5
DCB
  8
0
  6
DASHDOT
 62
     7
 10
45.0330546694819986
 20
164.2590040446274884
 30
0.0
 11
45.0330546694819986
 21
165.5589920446273879
 31
0.0
  0
LINE
  5
DCC
  8
0
  6
DASHDOT
 62
     7
 10
45.6830786694820219
 20
164.9090280446274051
 30
0.0
 11
44.3830606694820631
 21
164.9090280446274051
 31
0.0
  0
LINE
  5
DCD
  8
0
  6
DASHDOT
 62
     7
 10
45.0330546694819986
 20
153.9590160446273899
 30
0.0
 11
45.0330546694819986
 21
155.2590040446274884
 31
0.0
  0
LINE
  5
DCE
  8
0
  6
DASHDOT
 62
     7
 10
45.6830786694820219
 20
154.6089800446274864
 30
0.0
 11
44.3830606694820631
 21
154.6089800446274864
 31
0.0
  0
LINE
  5
DCF
  8
0
  6
DASHDOT
 62
     7
 10
-47.566921330517971
 20
159.1089800446274012
 30
0.0
 11
-47.566921330517971
 21
160.4090280446274051
 31
0.0
  0
LINE
  5
DD0
  8
0
  6
DASHDOT
 62
     7
 10
-46.9169273305179573
 20
159.7590040446274884
 30
0.0
 11
-48.2169453305180014
 21
159.7590040446274884
 31
0.0
  0
LINE
  5
DD1
  8
0
  6
DASHDOT
 62
     7
 10
-47.566921330517971
 20
164.2590040446274884
 30
0.0
 11
-47.566921330517971
 21
165.5589920446273879
 31
0.0
  0
LINE
  5
DD2
  8
0
  6
DASHDOT
 62
     7
 10
-46.9169273305179573
 20
164.9090280446274051
 30
0.0
 11
-48.2169453305180014
 21
164.9090280446274051
 31
0.0
  0
LINE
  5
DD3
  8
0
  6
DASHDOT
 62
     7
 10
-47.566921330517971
 20
153.9590160446273899
 30
0.0
 11
-47.566921330517971
 21
155.2590040446274884
 31
0.0
  0
LINE
  5
DD4
  8
0
  6
DASHDOT
 62
     7
 10
-46.9169273305179573
 20
154.6089800446274864
 30
0.0
 11
-48.2169453305180014
 21
154.6089800446274864
 31
0.0
  0
LINE
  5
DD5
  8
0
  6
DASHDOT
 62
     7
 10
-43.7669333305179791
 20
151.1089800446274864
 30
0.0
 11
-43.7669333305179791
 21
152.4090280446274051
 31
0.0
  0
LINE
  5
DD6
  8
0
  6
DASHDOT
 62
     7
 10
-43.1169393305179867
 20
151.7590040446274884
 30
0.0
 11
-44.4169273305179573
 21
151.7590040446274884
 31
0.0
  0
LINE
  5
DD7
  8
0
  6
DASHDOT
 62
     7
 10
-41.2269243305179813
 20
151.1089800446274864
 30
0.0
 11
-41.2269243305179813
 21
152.4090280446274051
 31
0.0
  0
LINE
  5
DD8
  8
0
  6
DASHDOT
 62
     7
 10
-40.5769313305179935
 20
151.7590040446274884
 30
0.0
 11
-41.8769183305179808
 21
151.7590040446274884
 31
0.0
  0
LINE
  5
DD9
  8
0
  6
DASHDOT
 62
     7
 10
-46.3069423305179697
 20
151.1089800446274864
 30
0.0
 11
-46.3069423305179697
 21
152.4090280446274051
 31
0.0
  0
LINE
  5
DDA
  8
0
  6
DASHDOT
 62
     7
 10
-45.6569483305179915
 20
151.7590040446274884
 30
0.0
 11
-46.9569353305179575
 21
151.7590040446274884
 31
0.0
  0
LINE
  5
DDB
  8
0
  6
DASHDOT
 62
     7
 10
-43.7669333305179578
 20
190.109010044627496
 30
0.0
 11
-43.7669333305179578
 21
191.4089980446273103
 31
0.0
  0
LINE
  5
DDC
  8
0
  6
DASHDOT
 62
     7
 10
-43.1169393305179511
 20
190.7590040446274884
 30
0.0
 11
-44.4169273305179502
 21
190.7590040446274884
 31
0.0
  0
LINE
  5
DDD
  8
0
  6
DASHDOT
 62
     7
 10
-41.22692433051796
 20
190.109010044627496
 30
0.0
 11
-41.22692433051796
 21
191.4089980446273103
 31
0.0
  0
LINE
  5
DDE
  8
0
  6
DASHDOT
 62
     7
 10
-40.5769313305179509
 20
190.7590040446274884
 30
0.0
 11
-41.8769183305179524
 21
190.7590040446274884
 31
0.0
  0
LINE
  5
DDF
  8
0
  6
DASHDOT
 62
     7
 10
-46.3069423305179413
 20
190.109010044627496
 30
0.0
 11
-46.3069423305179413
 21
191.4089980446273103
 31
0.0
  0
LINE
  5
DE0
  8
0
  6
DASHDOT
 62
     7
 10
-45.6569483305179631
 20
190.7590040446274884
 30
0.0
 11
-46.9569353305179504
 21
190.7590040446274884
 31
0.0
  0
LINE
  5
DE1
  8
0
  6
DASHDOT
 62
     7
 10
-28.566921330517939
 20
190.109010044627496
 30
0.0
 11
-28.566921330517939
 21
191.4089980446273103
 31
0.0
  0
LINE
  5
DE2
  8
0
  6
DASHDOT
 62
     7
 10
-27.9169273305179502
 20
190.7590040446274884
 30
0.0
 11
-29.2169453305179694
 21
190.7590040446274884
 31
0.0
  0
LINE
  5
DE3
  8
0
  6
DASHDOT
 62
     7
 10
-26.066921330517939
 20
190.109010044627496
 30
0.0
 11
-26.066921330517939
 21
191.4089980446273103
 31
0.0
  0
LINE
  5
DE4
  8
0
  6
DASHDOT
 62
     7
 10
-25.4169273305179502
 20
190.7590040446274884
 30
0.0
 11
-26.7169453305179694
 21
190.7590040446274884
 31
0.0
  0
LINE
  5
DE5
  8
0
  6
DASHDOT
 62
     7
 10
-33.5669213305179426
 20
190.109010044627496
 30
0.0
 11
-33.5669213305179426
 21
191.4089980446273103
 31
0.0
  0
LINE
  5
DE6
  8
0
  6
DASHDOT
 62
     7
 10
-32.9169273305179502
 20
190.7590040446274884
 30
0.0
 11
-34.2169453305179729
 21
190.7590040446274884
 31
0.0
  0
LINE
  5
DE7
  8
0
  6
DASHDOT
 62
     7
 10
-31.066921330517939
 20
190.109010044627496
 30
0.0
 11
-31.066921330517939
 21
191.4089980446273103
 31
0.0
  0
LINE
  5
DE8
  8
0
  6
DASHDOT
 62
     7
 10
-30.4169273305179502
 20
190.7590040446274884
 30
0.0
 11
-31.7169453305179694
 21
190.7590040446274884
 31
0.0
  0
LINE
  5
DE9
  8
0
  6
DASHDOT
 62
     7
 10
14.40307966948202
 20
192.0660110446274871
 30
0.0
 11
14.40307966948202
 21
193.3920000446275083
 31
0.0
  0
LINE
  5
DEA
  8
0
  6
DASHDOT
 62
     7
 10
15.0660746694820507
 20
192.7290050446275131
 30
0.0
 11
13.74005566948202
 21
192.7290050446275131
 31
0.0
  0
LINE
  5
DEB
  8
0
  6
DASHDOT
 62
     7
 10
14.40307966948202
 20
194.6059890446275062
 30
0.0
 11
14.40307966948202
 21
195.9320080446275085
 31
0.0
  0
LINE
  5
DEC
  8
0
  6
DASHDOT
 62
     7
 10
15.0660746694820507
 20
195.2690140446275109
 30
0.0
 11
13.74005566948202
 21
195.2690140446275109
 31
0.0
  0
LINE
  5
DED
  8
0
  6
DASHDOT
 62
     7
 10
14.40307966948202
 20
186.9859940446274891
 30
0.0
 11
14.40307966948202
 21
188.3120130446274914
 31
0.0
  0
LINE
  5
DEE
  8
0
  6
DASHDOT
 62
     7
 10
15.0660746694820507
 20
187.6490190446274937
 30
0.0
 11
13.74005566948202
 21
187.6490190446274937
 31
0.0
  0
LINE
  5
DEF
  8
0
  6
DASHDOT
 62
     7
 10
14.40307966948202
 20
189.5260020446274893
 30
0.0
 11
14.40307966948202
 21
190.8519910446275105
 31
0.0
  0
LINE
  5
DF0
  8
0
  6
DASHDOT
 62
     7
 10
15.0660746694820507
 20
190.1889970446275129
 30
0.0
 11
13.74005566948202
 21
190.1889970446275129
 31
0.0
  0
LINE
  5
DF1
  8
0
  6
DASHDOT
 62
     7
 10
11.8630716694820197
 20
186.9859940446274891
 30
0.0
 11
11.8630716694820197
 21
188.3120130446274914
 31
0.0
  0
LINE
  5
DF2
  8
0
  6
DASHDOT
 62
     7
 10
12.5260656694820494
 20
187.6490190446274937
 30
0.0
 11
11.2000766694819998
 21
187.6490190446274937
 31
0.0
  0
LINE
  5
DF3
  8
0
  6
DASHDOT
 62
     7
 10
11.8630716694820197
 20
189.5260020446274893
 30
0.0
 11
11.8630716694820197
 21
190.8519910446275105
 31
0.0
  0
LINE
  5
DF4
  8
0
  6
DASHDOT
 62
     7
 10
12.5260656694820494
 20
190.1889970446275129
 30
0.0
 11
11.2000766694819998
 21
190.1889970446275129
 31
0.0
  0
LINE
  5
DF5
  8
0
  6
DASHDOT
 62
     7
 10
11.8630716694820197
 20
192.0660110446274871
 30
0.0
 11
11.8630716694820197
 21
193.3920000446275083
 31
0.0
  0
LINE
  5
DF6
  8
0
  6
DASHDOT
 62
     7
 10
12.5260656694820494
 20
192.7290050446275131
 30
0.0
 11
11.2000766694819998
 21
192.7290050446275131
 31
0.0
  0
LINE
  5
DF7
  8
0
  6
DASHDOT
 62
     7
 10
11.8630716694820197
 20
194.6059890446275062
 30
0.0
 11
11.8630716694820197
 21
195.9320080446275085
 31
0.0
  0
LINE
  5
DF8
  8
0
  6
DASHDOT
 62
     7
 10
12.5260656694820494
 20
195.2690140446275109
 30
0.0
 11
11.2000766694819998
 21
195.2690140446275109
 31
0.0
  0
LINE
  5
DF9
  8
0
 62
     7
 10
33.7330666694820067
 20
182.2590040446274884
 30
0.0
 11
33.7330666694820067
 21
142.2590040446274884
 31
0.0
  0
LINE
  5
DFA
  8
0
 62
     7
 10
55.2330666694820067
 20
142.2590040446274031
 30
0.0
 11
33.7330666694820067
 21
142.2590040446274884
 31
0.0
  0
LINE
  5
DFB
  8
0
 62
     7
 10
-57.766933330517972
 20
202.2590040446274884
 30
0.0
 11
-57.7669333305179933
 21
142.2590040446274884
 31
0.0
  0
LINE
  5
DFC
  8
0
 62
     7
 10
-57.7669333305179933
 20
142.2590040446274031
 30
0.0
 11
-36.2669333305179933
 21
142.2590040446274884
 31
0.0
  0
LINE
  5
DFD
  8
0
 62
     7
 10
-36.2669333305179933
 20
182.2590040446274884
 30
0.0
 11
-36.2669333305179933
 21
142.2590040446274884
 31
0.0
  0
LINE
  5
DFE
  8
0
 62
     7
 10
-36.2669333305179933
 20
182.2590040446274884
 30
0.0
 11
33.7330666694820067
 21
182.2590040446274884
 31
0.0
  0
LINE
  5
DFF
  8
0
 62
     7
 10
55.2330666694820067
 20
142.2590040446274884
 30
0.0
 11
55.2330666694820422
 21
202.2590040446274884
 31
0.0
  0
LINE
  5
E00
  8
0
 62
     7
 10
55.2330666694820422
 20
202.2590040446274884
 30
0.0
 11
-57.766933330517972
 21
202.2590040446274884
 31
0.0
  0
CIRCLE
  5
E01
  8
0
 62
     7
 10
45.0330546694819986
 20
159.7590040446274884
 30
0.0
 40
0.5
  0
CIRCLE
  5
E02
  8
0
 62
     7
 10
45.0330546694819986
 20
164.9090280446274051
 30
0.0
 40
0.5
  0
CIRCLE
  5
E03
  8
0
 62
     7
 10
45.0330546694819986
 20
154.6089800446274864
 30
0.0
 40
0.5
  0
CIRCLE
  5
E04
  8
0
 62
     7
 10
-47.566921330517971
 20
159.7590040446274884
 30
0.0
 40
0.5
  0
CIRCLE
  5
E05
  8
0
 62
     7
 10
-47.566921330517971
 20
164.9090280446274051
 30
0.0
 40
0.5
  0
CIRCLE
  5
E06
  8
0
 62
     7
 10
-47.566921330517971
 20
154.6089800446274864
 30
0.0
 40
0.5
  0
CIRCLE
  5
E07
  8
0
 62
     7
 10
-43.7669333305179791
 20
151.7590040446274884
 30
0.0
 40
0.5
  0
CIRCLE
  5
E08
  8
0
 62
     7
 10
-41.2269243305179813
 20
151.7590040446274884
 30
0.0
 40
0.5
  0
CIRCLE
  5
E09
  8
0
 62
     7
 10
-46.3069423305179697
 20
151.7590040446274884
 30
0.0
 40
0.5
  0
CIRCLE
  5
E0A
  8
0
 62
     7
 10
-43.7669333305179578
 20
190.7590040446274884
 30
0.0
 40
0.5
  0
CIRCLE
  5
E0B
  8
0
 62
     7
 10
-41.22692433051796
 20
190.7590040446274884
 30
0.0
 40
0.5
  0
CIRCLE
  5
E0C
  8
0
 62
     7
 10
-46.3069423305179413
 20
190.7590040446274884
 30
0.0
 40
0.5
  0
CIRCLE
  5
E0D
  8
0
 62
     7
 10
50.7330666694820209
 20
148.2590040446274884
 30
0.0
 40
1.5
  0
CIRCLE
  5
E0E
  8
0
 62
     7
 10
-53.266933330517972
 20
148.2590040446274884
 30
0.0
 40
1.5
  0
CIRCLE
  5
E0F
  8
0
 62
     7
 10
-1.2669333305179571
 20
187.2590040446274884
 30
0.0
 40
1.5
  0
CIRCLE
  5
E10
  8
0
 62
     7
 10
-28.566921330517939
 20
190.7590040446274884
 30
0.0
 40
0.5
  0
CIRCLE
  5
E11
  8
0
 62
     7
 10
-26.066921330517939
 20
190.7590040446274884
 30
0.0
 40
0.5
  0
CIRCLE
  5
E12
  8
0
 62
     7
 10
-33.5669213305179426
 20
190.7590040446274884
 30
0.0
 40
0.5
  0
CIRCLE
  5
E13
  8
0
 62
     7
 10
-31.066921330517939
 20
190.7590040446274884
 30
0.0
 40
0.5
  0
CIRCLE
  5
E14
  8
0
 62
     7
 10
14.40307966948202
 20
192.7290050446275131
 30
0.0
 40
0.51
  0
CIRCLE
  5
E15
  8
0
 62
     7
 10
14.40307966948202
 20
195.2690140446275109
 30
0.0
 40
0.51
  0
CIRCLE
  5
E16
  8
0
 62
     7
 10
14.40307966948202
 20
187.6490190446274937
 30
0.0
 40
0.51
  0
CIRCLE
  5
E17
  8
0
 62
     7
 10
14.40307966948202
 20
190.1889970446275129
 30
0.0
 40
0.51
  0
CIRCLE
  5
E18
  8
0
 62
     7
 10
11.8630716694820197
 20
187.6490190446274937
 30
0.0
 40
0.51
  0
CIRCLE
  5
E19
  8
0
 62
     7
 10
11.8630716694820197
 20
190.1889970446275129
 30
0.0
 40
0.51
  0
CIRCLE
  5
E1A
  8
0
 62
     7
 10
11.8630716694820197
 20
192.7290050446275131
 30
0.0
 40
0.51
  0
CIRCLE
  5
E1B
  8
0
 62
     7
 10
11.8630716694820197
 20
195.2690140446275109
 30
0.0
 40
0.51
  0
LINE
  5
E1C
  8
0
 62
     7
 10
-36.2669333305179933
 20
142.2590040446274884
 30
0.0
 11
-36.2669333305179933
 21
182.2590040446274884
 31
0.0
  0
LINE
  5
E1D
  8
0
 62
     7
 10
55.2330666694820067
 20
142.2590040446274884
 30
0.0
 11
55.2330666694820422
 21
202.2590040446274884
 31
0.0
  0
LINE
  5
E1E
  8
0
 62
     7
 10
55.2330666694820422
 20
202.2590040446274884
 30
0.0
 11
-57.766933330517972
 21
202.2590040446274884
 31
0.0
  0
VIEWPORT
  5
D0C
 67
     1
  8
0
 62
     0
 10
0.0
 20
0.0
 30
0.0
 40
1000.0
 41
1000.0
 68
     1
 69
     1
1001
ACAD
1000
MVIEW
1002
{
1070
    16
1010
0.0
1020
0.0
1030
0.0
1010
0.0
1020
0.0
1030
1.0
1040
0.0
1040
1000.0
1040
0.0
1040
0.0
1040
50.0
1040
0.0
1040
0.0
1070
     0
1070
   100
1070
     1
1070
     0
1070
     0
1070
     0
1070
     0
1070
     0
1040
0.0
1040
0.0
1040
0.0
1040
1.0
1040
1.0
1040
1.0
1040
1.0
1070
     0
1002
{
1002
}
1002
}
  0
ENDSEC
  0
EOF
