;TYPE=PLATED
;Layer: PTH_Through_Via
;EasyEDA Pro Client v2.2.32.3, 2026-03-21 17:26:54
;Gerber Generator version 0.3
M48
METRIC,LZ,000.00000
;Hole size 1 = 0.24999 METRIC
T01C0.24999
;Hole size 2 = 0.30000 METRIC
T02C0.30000
%
G05
G90
T01
X35.47185Y58.06221
X35.47185Y56.66216
X36.87189Y56.66216
X36.87189Y58.06221
X36.17187Y58.76223
X36.17187Y57.36218
X36.17187Y55.96214
X34.0718Y56.66216
X34.0718Y58.06221
X34.77182Y58.76223
X34.77182Y57.36218
X34.77182Y55.96214
T02
X30.45714Y54.67431
X32.49716Y55.33732
X31.17115Y43.50517
X83.08982Y30.347
X86.20086Y33.10103
X69.37064Y39.37411
X62.43455Y46.3102
X68.35063Y39.37411
X61.26154Y46.66721
X67.53462Y39.17011
X59.37451Y47.48322
X66.4636Y39.32311
X58.04849Y47.89123
X56.36547Y48.50323
X65.39259Y39.47612
X46.11434Y44.47418
X34.18019Y43.35217
X43.81931Y43.65817
X49.37838Y41.00614
X42.26379Y42.05165
X41.26928Y43.65817
X42.7993Y43.30117
X44.53332Y41.56714
X47.28736Y43.76017
X30.30414Y50.84926
X48.46037Y45.13719
X50.6024Y40.39413
X51.69891Y39.85862
X50.04139Y48.96224
X49.83739Y45.54519
X35.5062Y46.82021
X50.5514Y46.2082
X36.16921Y47.43222
X69.21764Y35.95707
X79.00977Y34.12105
X71.00266Y42.99516
X58.4055Y48.86024
X56.26347Y51.15527
X47.18535Y51.30827
X72.04818Y43.02066
X32.03816Y49.98225
X35.5062Y53.76125
X82.32481Y52.55846
X85.33385Y51.35927
X73.24669Y53.29729
X36.16921Y52.78729
X72.58368Y52.78729
X47.23635Y58.65236
X67.27961Y54.57231
X47.03235Y57.47935
X65.80059Y54.52131
X73.47619Y44.39768
X68.50363Y48.45223
X63.25056Y49.81514
X65.9026Y46.2592
X43.1053Y51.25727
X60.54753Y52.58329
X56.56948Y52.53229
X41.62628Y51.71627
X49.02138Y60.74339
X31.37515Y61.5084
X51.21441Y48.80924
X57.18148Y48.97625
X30.40614Y47.89123
X30.04913Y48.70724
X26.17308Y45.6982
X26.63209Y58.75437
X21.68502Y54.77631
X16.53396Y51.46127
X21.83803Y38.4051
X11.9439Y34.52905
X25.71408Y42.12815
X26.98909Y40.13912
X20.41001Y41.13912
X24.79606Y57.78535
X20.56301Y49.06424
X20.56301Y48.14623
X25.61207Y48.50323
X27.4991Y34.63105
X31.78315Y34.37605
X27.1931Y33.40704
X14.69793Y25.55294
X28.3017Y29.73499
X24.64306Y33.10103
X19.23699Y34.93706
X18.52298Y37.64009
X40.14726Y17.13783
X40.14726Y31.77502
X10.66888Y17.23983
X8.42485Y38.91511
X14.44293Y39.06811
X12.68341Y42.56166
X5.82382Y29.58199
X5.82382Y28.25597
X13.52492Y36.00807
X11.9439Y35.75307
X29.59013Y56.25533
X44.02331Y56.00033
X59.27251Y59.62138
X36.47522Y39.62912
X43.3093Y38.62351
X52.48942Y38.3541
X58.7115Y26.36895
X58.7115Y29.58199
X56.46758Y27.03196
X53.76444Y27.43996
X56.05957Y26.16494
X56.97758Y26.62395
X52.89753Y27.28696
X53.40257Y26.70194
X55.70257Y29.47999
X54.72438Y29.53214
X54.22355Y31.67302
X59.68062Y28.51097
X60.75163Y28.40897
X61.87365Y28.40897
X56.30256Y24.10194
X55.39656Y23.30891
X87.01687Y58.44836
X87.73088Y56.56134
X33.45643Y38.5055
X26.46934Y38.5055
X30.49839Y38.5055
X29.07038Y29.93739
X29.68238Y27.94836
X28.95639Y30.64224
X25.13134Y53.79654
X65.24236Y29.75878
X69.75692Y33.14128
X70.87893Y33.34528
X69.75692Y34.41629
X68.78791Y34.26329
X70.67493Y34.26329
X69.04291Y35.0283
X69.55292Y30.38724
X69.50192Y29.11222
X70.94192Y29.01938
X71.08294Y28.04121
X65.31986Y28.80622
X64.09585Y29.31623
X65.28377Y27.92583
X64.29985Y28.29621
X74.60198Y30.54024
X83.11909Y39.31236
X82.09908Y40.23037
X80.97707Y41.14838
X79.90605Y42.32139
X85.1201Y37.35845
X86.14011Y36.44044
X83.99809Y38.27646
X88.02714Y34.24741
X89.04715Y33.3294
X86.90512Y35.16542
X77.77601Y44.34554
X78.79602Y43.42753
X76.65399Y45.26355
X74.00196Y46.99757
X75.68498Y46.23256
X73.54295Y48.06859
X71.40092Y48.68059
X72.42094Y47.76258
X70.27891Y49.59861
X71.29892Y49.85361
X72.31894Y48.9356
X70.17691Y50.77162
X81.24405Y42.68755
X23.97031Y29.88639
X25.65333Y31.0594
X23.66431Y27.74436
X27.03035Y29.73338
X18.66624Y22.03229
X19.89026Y20.70627
X16.51142Y24.0688
X17.44223Y24.07231
X17.49367Y23.29388
X18.25824Y24.17431
X16.06521Y20.50227
X14.99419Y20.45126
X15.6572Y19.78826
X10.45514Y19.68625
X6.78309Y20.24726
X9.94513Y21.77728
X6.73209Y19.12525
X7.03809Y24.22531
X7.08909Y25.34733
X5.91608Y24.37832
X6.93609Y26.97935
X6.93609Y31.0084
X-1.609Y30.32414
X-0.48699Y30.32414
X0.63503Y30.32414
X1.75704Y30.32414
X-1.61611Y28.89773
X-0.4941Y28.89773
X0.62792Y28.89773
X1.74993Y28.89773
X-1.81301Y26.9071
X-0.69099Y26.9071
X0.43102Y26.9071
X1.55304Y26.9071
X-1.15Y22.01103
X-0.02798Y22.01103
X1.09403Y22.01103
X2.21605Y22.01103
X0.73703Y19.155
X1.85904Y19.155
X2.98106Y19.155
X4.10307Y19.155
X3.03206Y16.24796
X4.15407Y16.24796
X5.27609Y16.24796
X6.3981Y16.24796
X7.87712Y14.76894
X9.03556Y14.76894
X10.19401Y14.76894
X11.35245Y14.76894
X12.51089Y14.76894
X13.66934Y14.76894
X14.82778Y14.76894
X15.98622Y14.76894
X18.33225Y14.66694
X26.44136Y14.66694
X19.4907Y14.66694
X20.64914Y14.66694
X21.80759Y14.66694
X22.96603Y14.66694
X24.12447Y14.66694
X25.28292Y14.66694
X29.2464Y14.56494
X37.3555Y14.56494
X30.40484Y14.56494
X31.56328Y14.56494
X32.72173Y14.56494
X33.88017Y14.56494
X35.03861Y14.56494
X36.19706Y14.56494
X40.05854Y14.51394
X48.16764Y14.51394
X41.21698Y14.51394
X42.37542Y14.51394
X43.53387Y14.51394
X44.69231Y14.51394
X45.85075Y14.51394
X47.0092Y14.51394
X51.12568Y14.30993
X59.23478Y14.30993
X52.28412Y14.30993
X53.44257Y14.30993
X54.60101Y14.30993
X55.75945Y14.30993
X56.9179Y14.30993
X58.07634Y14.30993
X62.90683Y14.36093
X71.01594Y14.36093
X64.06527Y14.36093
X65.22372Y14.36093
X66.38216Y14.36093
X67.54061Y14.36093
X68.69905Y14.36093
X69.85749Y14.36093
X73.61697Y14.20793
X81.72607Y14.20793
X74.77541Y14.20793
X75.93386Y14.20793
X77.0923Y14.20793
X78.25074Y14.20793
X79.40919Y14.20793
X80.56763Y14.20793
X85.95913Y14.25893
X94.06823Y14.25893
X87.11757Y14.25893
X88.27602Y14.25893
X89.43446Y14.25893
X90.5929Y14.25893
X91.75135Y14.25893
X92.90979Y14.25893
X96.61827Y14.20793
X104.72737Y14.20793
X97.77671Y14.20793
X98.93515Y14.20793
X100.0936Y14.20793
X101.25204Y14.20793
X102.41049Y14.20793
X103.56893Y14.20793
X106.8694Y14.15693
X114.97851Y14.15693
X108.02784Y14.15693
X109.18629Y14.15693
X110.34473Y14.15693
X111.50317Y14.15693
X112.66162Y14.15693
X113.82006Y14.15693
X92.18121Y22.92904
X100.29032Y22.92904
X93.33965Y22.92904
X94.4981Y22.92904
X95.65654Y22.92904
X96.81498Y22.92904
X97.97343Y22.92904
X99.13187Y22.92904
X87.54015Y17.47197
X95.64925Y17.47197
X88.69859Y17.47197
X89.85704Y17.47197
X91.01548Y17.47197
X92.17392Y17.47197
X93.33237Y17.47197
X94.49081Y17.47197
X96.15926Y19.00199
X104.26837Y19.00199
X97.31771Y19.00199
X98.47615Y19.00199
X99.63459Y19.00199
X100.79304Y19.00199
X101.95148Y19.00199
X103.10992Y19.00199
X72.64796Y27.0091
X80.75706Y27.0091
X73.8064Y27.0091
X74.96484Y27.0091
X76.12329Y27.0091
X77.28173Y27.0091
X78.44018Y27.0091
X79.59862Y27.0091
X72.18895Y25.22407
X80.29806Y25.22407
X73.34739Y25.22407
X74.50584Y25.22407
X75.66428Y25.22407
X76.82273Y25.22407
X77.98117Y25.22407
X79.13961Y25.22407
X29.6034Y18.69599
X37.71251Y18.69599
X30.76184Y18.69599
X31.92029Y18.69599
X33.07873Y18.69599
X34.23717Y18.69599
X35.39562Y18.69599
X36.55406Y18.69599
X30.01141Y20.48101
X38.12051Y20.48101
X31.16985Y20.48101
X32.32829Y20.48101
X33.48674Y20.48101
X34.64518Y20.48101
X35.80362Y20.48101
X36.96207Y20.48101
X21.6983Y21.14402
X27.41037Y22.11303
X20.45971Y22.11303
X21.61815Y22.11303
X22.7766Y22.11303
X23.93504Y22.11303
X25.09348Y22.11303
X26.25193Y22.11303
X17.92248Y29.7054
X17.87148Y27.30837
X13.23042Y26.57979
X13.23042Y27.73823
X13.23042Y28.89668
X13.23042Y30.05512
X13.23042Y31.21356
X13.23042Y32.37201
X23.68732Y26.44809
X20.21199Y26.44809
X21.37044Y26.44809
X22.52888Y26.44809
X22.82031Y47.20536
X19.34498Y47.20536
X20.50343Y47.20536
X21.66187Y47.20536
X22.9565Y46.16409
X19.48117Y46.16409
X20.63962Y46.16409
X21.79806Y46.16409
X19.69682Y48.27052
X16.22149Y48.27052
X17.37994Y48.27052
X18.53838Y48.27052
X12.97719Y54.03945
X9.50185Y54.03945
X10.6603Y54.03945
X11.81874Y54.03945
X15.22121Y58.78251
X11.74588Y58.78251
X12.90433Y58.78251
X14.06277Y58.78251
X18.33225Y59.64952
X14.85692Y59.64952
X16.01537Y59.64952
X17.17381Y59.64952
X15.01721Y61.23054
X11.54188Y61.23054
X12.70032Y61.23054
X13.85877Y61.23054
X6.90634Y59.33679
X6.90634Y55.86145
X6.90634Y57.0199
X6.90634Y58.17834
X6.85711Y54.03945
X3.38178Y54.03945
X4.54022Y54.03945
X5.69866Y54.03945
X6.1941Y52.30542
X2.71877Y52.30542
X3.87721Y52.30542
X5.03565Y52.30542
X5.32709Y50.5714
X1.85176Y50.5714
X3.0102Y50.5714
X4.16864Y50.5714
X4.20507Y48.73538
X0.72974Y48.73538
X1.88818Y48.73538
X3.04663Y48.73538
X2.06128Y46.84162
X2.06128Y43.36629
X2.06128Y44.52474
X2.06128Y45.68318
X-1.25376Y44.24059
X-1.25376Y40.76526
X-1.25376Y41.9237
X-1.25376Y43.08215
X-1.96777Y38.78352
X-1.96777Y35.30819
X-1.96777Y36.46663
X-1.96777Y37.62508
X30.97865Y41.99656
X31.02965Y40.76526
X30.00964Y40.85269
X30.00964Y42.01113
X34.3447Y40.51754
X34.3957Y39.28624
X33.37568Y39.37367
X33.37568Y40.53211
X37.55774Y42.76157
X37.60874Y41.53027
X36.58873Y41.6177
X36.58873Y42.77614
X39.69977Y58.67378
X39.75077Y57.44247
X38.73075Y57.5299
X38.73075Y58.68835
X41.38279Y61.01981
X41.43379Y59.78851
X40.41377Y59.87593
X40.41377Y61.03438
X39.24076Y60.96881
X39.29176Y59.7375
X38.27175Y59.82493
X40.82178Y58.43334
X43.52482Y60.7648
X42.0968Y58.51349
X42.5558Y59.62093
X42.5558Y60.77938
X33.82917Y60.92454
X34.98761Y60.92454
X36.14606Y60.92454
X37.3045Y60.92454
X32.09763Y60.17503
X33.25608Y60.17503
X34.41452Y60.17503
X35.57297Y60.17503
X32.19715Y57.30349
X30.80556Y58.88451
X31.964Y58.88451
X30.41941Y60.05753
X40.05677Y51.5774
X42.91543Y54.542
X35.10971Y51.3734
X32.10067Y51.27139
X36.89473Y52.18941
X37.04773Y48.56836
X41.79079Y48.46636
X43.32081Y48.46636
X52.60293Y47.44635
X53.16394Y46.52833
X50.91991Y47.03834
X39.3297Y46.13706
X43.16781Y46.12033
X25.11358Y52.24041
X25.16458Y50.96539
X23.27755Y53.51542
X22.00254Y53.31142
X25.21558Y49.94538
X29.60163Y62.49154
X30.58671Y62.36856
X31.4984Y62.69715
X30.11164Y63.10355
X26.44023Y62.213
X26.43959Y63.30755
X26.28659Y64.37856
X25.24771Y64.83496
X23.84392Y64.54286
X23.53256Y63.40955
X23.37955Y62.33854
X111.5597Y49.54466
X111.5597Y46.06933
X111.5597Y47.22777
X111.5597Y48.38621
X112.52871Y48.37164
X112.52871Y44.89631
X112.52871Y46.05476
X112.52871Y47.2132
X113.39572Y49.23865
X113.39572Y45.76332
X113.39572Y46.92177
X113.39572Y48.08021
X114.26273Y48.26964
X114.26273Y44.79431
X114.26273Y45.95275
X114.26273Y47.1112
X115.23174Y48.83065
X115.23174Y45.35532
X115.23174Y46.51376
X115.23174Y47.67221
X115.43575Y54.13472
X115.43575Y50.65939
X115.43575Y51.81783
X115.43575Y52.97627
X112.32471Y58.41877
X112.32471Y54.94344
X112.32471Y56.10189
X112.32471Y57.26033
X113.44672Y58.31677
X113.44672Y54.84144
X113.44672Y55.99988
X113.44672Y57.15833
X114.51773Y58.36777
X114.51773Y54.89244
X114.51773Y56.05089
X114.51773Y57.20933
X106.87437Y58.21301
X110.3497Y58.21301
X109.19125Y58.21301
X108.03281Y58.21301
X105.45609Y59.01146
X108.93142Y59.01146
X107.77298Y59.01146
X106.61453Y59.01146
X102.68558Y55.20573
X102.68558Y51.7304
X102.68558Y52.88884
X102.68558Y54.04729
X101.86957Y55.81774
X101.86957Y52.34241
X101.86957Y53.50085
X101.86957Y54.6593
X93.19946Y49.44266
X93.19946Y45.96733
X93.19946Y47.12577
X93.19946Y48.28421
X94.57648Y53.16571
X93.04646Y50.25138
X92.99546Y50.95082
X93.04646Y51.65026
X92.8692Y58.29436
X92.8692Y54.81903
X92.8692Y55.97747
X92.8692Y57.13592
X92.43445Y62.90683
X92.43445Y59.4315
X92.43445Y60.58994
X92.43445Y61.74839
X91.15943Y63.87584
X91.15943Y60.40051
X91.15943Y61.55896
X91.15943Y62.7174
X89.74894Y63.52
X89.74894Y60.04467
X89.74894Y61.20311
X89.74894Y62.36156
X88.75018Y63.16415
X88.75018Y59.68882
X88.75018Y60.84727
X88.75018Y62.00571
X87.28338Y63.41684
X87.28338Y59.94151
X87.28338Y61.09995
X87.28338Y62.25839
X83.05706Y67.44412
X86.53239Y67.44412
X85.37394Y67.44412
X84.2155Y67.44412
X68.5679Y20.73602
X76.67701Y20.73602
X69.72635Y20.73602
X70.88479Y20.73602
X72.04324Y20.73602
X73.20168Y20.73602
X74.36012Y20.73602
X75.51857Y20.73602
X60.05079Y23.74506
X68.1599Y23.74506
X61.20924Y23.74506
X62.36768Y23.74506
X63.52612Y23.74506
X64.68457Y23.74506
X65.84301Y23.74506
X67.00146Y23.74506
X52.80999Y21.17136
X60.91909Y21.17136
X53.96843Y21.17136
X55.12687Y21.17136
X56.28532Y21.17136
X57.44376Y21.17136
X58.60221Y21.17136
X59.76065Y21.17136
X53.31871Y65.6166
X61.42781Y65.6166
X54.47715Y65.6166
X55.63559Y65.6166
X56.79404Y65.6166
X57.95248Y65.6166
X59.11092Y65.6166
X60.26937Y65.6166
X52.6047Y63.47457
X60.7138Y63.47457
X53.76314Y63.47457
X54.92159Y63.47457
X56.08003Y63.47457
X57.23847Y63.47457
X58.39692Y63.47457
X59.55536Y63.47457
X52.09469Y61.48554
X60.2038Y61.48554
X53.25313Y61.48554
X54.41158Y61.48554
X55.57002Y61.48554
X56.72847Y61.48554
X57.88691Y61.48554
X59.04535Y61.48554
X75.55323Y60.6628
X75.55323Y68.77191
X75.55323Y61.82125
X75.55323Y62.97969
X75.55323Y64.13813
X75.55323Y65.29658
X75.55323Y66.45502
X75.55323Y67.61346
X83.10309Y68.62564
X91.2122Y68.62564
X84.26154Y68.62564
X85.41998Y68.62564
X86.57842Y68.62564
X87.73687Y68.62564
X88.89531Y68.62564
X90.05375Y68.62564
X88.30516Y67.55462
X96.41426Y67.55462
X89.4636Y67.55462
X90.62205Y67.55462
X91.78049Y67.55462
X92.93893Y67.55462
X94.09738Y67.55462
X95.25582Y67.55462
X92.79322Y68.67664
X100.90232Y68.67664
X93.95166Y68.67664
X95.11011Y68.67664
X96.26855Y68.67664
X97.42699Y68.67664
X98.58544Y68.67664
X99.74388Y68.67664
X102.63635Y37.15823
X110.74545Y37.15823
X103.79479Y37.15823
X104.95323Y37.15823
X106.16268Y41.28928
X110.89117Y40.67727
X111.4886Y39.35126
X109.58701Y37.15823
X102.53434Y38.33124
X110.64345Y38.33124
X103.69279Y38.33124
X104.85123Y38.33124
X106.00967Y38.33124
X107.16812Y38.33124
X108.32656Y38.33124
X109.48501Y38.33124
X102.27934Y39.50426
X110.38845Y39.50426
X103.43778Y39.50426
X104.59623Y39.50426
X105.75467Y39.50426
X107.88213Y41.18728
X113.17162Y41.69729
X109.23Y39.50426
X103.50336Y42.3603
X111.61246Y42.3603
X104.6618Y42.3603
X105.82024Y42.3603
X106.97869Y42.3603
X108.13713Y42.3603
X109.29557Y42.3603
X110.45402Y42.3603
X109.46867Y44.8016
X109.46867Y43.64315
X110.59068Y44.6996
X110.59068Y43.54115
X111.6617Y44.7506
X111.6617Y43.59215
X106.61263Y51.07468
X107.68365Y51.34425
X110.79469Y50.87068
X108.80566Y51.24225
X109.87667Y52.4517
X109.87667Y51.29325
X93.25046Y38.27351
X94.27047Y37.16607
X95.74949Y37.81451
X95.39249Y37.06407
X96.4635Y38.27351
X96.4635Y37.11507
X47.70687Y37.76351
X47.70687Y36.60506
X48.82888Y37.6615
X48.82888Y36.50306
X49.8999Y37.71251
X49.8999Y36.55406
X47.96187Y35.26447
X47.96187Y34.10603
X49.08389Y35.16247
X49.08389Y34.00403
X50.1549Y35.21347
X50.1549Y34.05503
X51.38565Y34.8037
X51.88108Y33.78369
X51.48765Y35.92572
X52.64609Y35.92572
X51.43665Y36.99673
X52.59509Y36.99673
X57.805Y37.6105
X57.805Y36.45206
X58.92701Y37.5085
X58.92701Y36.35006
X59.99803Y37.5595
X59.99803Y36.40106
X62.44606Y37.76351
X62.44606Y36.60506
X63.56807Y37.6615
X63.56807Y36.50306
X64.63909Y37.71251
X64.63909Y36.55406
X62.59906Y35.46848
X62.59906Y34.31003
X63.72108Y35.36647
X63.72108Y34.20803
X64.79209Y35.41748
X64.79209Y34.25903
X57.907Y35.62148
X57.907Y34.46303
X59.02902Y35.51948
X59.02902Y34.36103
X60.10003Y35.57048
X60.10003Y34.41203
X6.70234Y50.41167
X6.70234Y49.25323
X7.82435Y50.30967
X7.82435Y49.15122
X8.89537Y50.36067
X8.89537Y47.77421
X0.37826Y42.30256
X0.37826Y41.14412
X1.50027Y42.20056
X1.50027Y41.04212
X2.57129Y42.25156
X2.57129Y41.09312
X75.88898Y52.19964
X75.32797Y54.13766
X75.83798Y50.36362
X76.55199Y48.73159
X80.88705Y49.4966
X81.34605Y46.79357
X81.29505Y45.77356
X80.37704Y45.41655
X81.34605Y44.70254
X105.09166Y40.77928
X26.21434Y65.4373
X26.01034Y66.55931
X25.60233Y67.57933
X24.48032Y67.63033
X23.61331Y66.96732
X23.61331Y65.59852
X23.1543Y61.30625
X17.08522Y49.8311
X13.20917Y46.15905
X13.57192Y40.97546
M30