;TYPE=PLATED
;Layer: PTH_Through
;EasyEDA Pro Client v3.2.135, 2026-06-28 16:47:50
;Gerber Generator version 0.3
M48
METRIC,LZ,0000.00000
;Hole size 1 = 0.30480 METRIC
T01C0.30480
;Hole size 2 = 0.30500 METRIC
T02C0.30500
;Hole size 3 = 0.60000 METRIC
T03C0.60000
;Hole size 4 = 0.60960 METRIC
T04C0.60960
;Hole size 5 = 1.10002 METRIC
T05C1.10002
;Hole size 6 = 1.20000 METRIC
T06C1.20000
;Hole size 7 = 2.00000 METRIC
T07C2.00000
;Hole size 8 = 3.20040 METRIC
T08C3.20040
%
G05
G90
T01
X20.066Y30.607
X21.336Y30.607
X22.606Y30.607
X23.876Y30.607
X25.146Y30.607
X26.416Y30.607
X27.686Y30.607
X28.956Y30.607
X30.226Y30.607
X31.496Y30.607
X32.766Y30.607
X34.036Y30.607
X35.814Y30.607
T02
X14.097Y52.324
X14.097Y53.086
X13.335Y53.086
X13.335Y52.324
X75.38987Y43.51287
X74.74123Y42.926
X75.19412Y42.30125
X74.51818Y41.69561
X73.406Y41.05036
X74.93Y44.196
X70.739Y45.085
X70.739Y45.847
X69.977Y45.847
X69.977Y45.085
X68.961Y45.085
X68.961Y45.847
X68.199Y45.847
X68.199Y45.085
X67.183Y45.847
X66.22713Y45.847
X65.22368Y45.847
X64.18677Y45.847
X16.637Y23.495
X14.097Y25.4
X14.097Y24.384
X9.779Y25.273
X76.327Y59.309
X76.327Y60.0728
X86.995Y40.132
X71.628Y45.085
X54.737Y58.801
X60.071Y55.88
X60.071Y56.642
X59.309Y56.642
X59.309Y55.88
X61.722Y55.88
X61.722Y56.642
X60.96Y56.642
X60.96Y55.88
X60.071Y54.356
X60.071Y55.118
X59.309Y55.118
X61.722Y54.356
X61.722Y55.118
X60.96Y55.118
X60.96Y54.356
X60.96Y53.594
X61.341Y52.832
X58.801Y58.928
X59.74485Y58.928
X61.722Y60.198
X69.469Y53.213
X69.469Y53.975
X68.707Y53.975
X68.707Y53.213
X73.025Y56.515
X73.025Y55.6883
X78.232Y56.007
X78.232Y56.95851
X81.788Y41.148
X11.176Y21.209
X9.906Y21.209
X9.00798Y22.10702
X8.10995Y23.00505
X7.493Y24.4945
X7.493Y25.7645
X7.493Y27.0345
X7.493Y28.3045
X7.493Y29.5745
X7.493Y30.8445
X7.75074Y32.00774
X8.64876Y32.90576
X9.76624Y33.274
X11.03624Y33.274
X12.30624Y33.274
X13.57624Y33.274
X14.84624Y33.274
X22.88935Y36.93611
X22.88935Y37.69811
X22.12735Y37.69811
X22.12735Y36.93611
X22.86Y35.179
X22.86Y35.941
X22.098Y35.941
X22.098Y35.179
X59.182Y21.082
X59.182Y21.844
X58.42Y21.844
X58.42Y21.082
X95.504Y50.927
X95.504Y51.689
X94.742Y51.689
X94.742Y50.927
X97.028Y50.927
X97.028Y51.689
X96.266Y51.689
X96.266Y50.927
X98.552Y50.927
X98.552Y51.689
X97.79Y51.689
X75.38317Y28.8918
X76.16917Y28.8918
X62.738Y32.893
X62.738Y33.655
X61.976Y33.655
X61.976Y32.893
X64.897Y32.893
X64.897Y33.655
X64.135Y33.655
X64.135Y32.893
X74.803Y32.893
X74.803Y33.655
X74.041Y33.655
X74.041Y32.893
X62.23Y28.067
X62.23Y28.829
X61.468Y28.829
X61.468Y28.067
X64.262Y28.067
X64.262Y28.829
X63.5Y28.829
X63.5Y28.067
X66.421Y28.067
X66.421Y28.829
X65.659Y28.829
X65.659Y28.067
X68.58Y28.067
X68.58Y28.829
X67.818Y28.829
X67.818Y28.067
X70.739Y28.067
X70.739Y28.829
X69.977Y28.829
X69.977Y28.067
X59.43346Y27.98268
X59.43346Y28.74468
X58.67146Y28.74468
X58.67146Y27.98268
X52.832Y19.685
X52.832Y20.447
X52.07Y20.447
X52.07Y19.685
X44.069Y11.303
X44.069Y12.065
X43.307Y12.065
X43.307Y11.303
X46.228Y11.303
X46.228Y12.065
X45.466Y12.065
X45.466Y11.303
X48.387Y11.303
X48.387Y12.065
X47.625Y12.065
X47.625Y11.303
X50.673Y11.303
X50.673Y12.065
X49.911Y12.065
X49.911Y11.303
X89.662Y32.385
X89.662Y33.147
X88.9Y33.147
X88.9Y32.385
X94.615Y32.512
X94.615Y34.63116
X15.621Y40.894
X15.621Y44.54865
X22.606Y48.895
X21.70789Y48.895
X20.63753Y48.895
X19.51763Y48.895
X18.669Y48.514
X80.645Y61.341
X80.645Y60.58622
X78.613Y61.341
X78.613Y60.54658
X78.613Y59.73611
X81.915Y61.341
X85.217Y60.833
X85.217Y59.92771
X83.693Y40.386
X86.233Y39.37
X86.233Y40.132
X85.471Y40.132
X85.471Y39.37
X81.534Y37.973
X80.645Y37.084
X80.01Y36.449
X79.248Y35.687
X78.486Y34.925
X49.784Y28.702
X49.784Y28.0
X49.784Y26.95938
X47.117Y27.94
X43.18Y27.813
X43.18Y26.98912
X43.18Y26.2359
X37.465Y29.718
X37.465Y30.48
X36.703Y30.48
X36.703Y29.718
X81.788Y47.752
X81.788Y48.514
X81.026Y48.514
X81.026Y47.752
X79.121Y50.165
X79.121Y50.927
X78.359Y50.927
X78.359Y50.165
X98.044Y45.212
X98.044Y45.974
X97.282Y45.974
X97.282Y45.212
X98.044Y43.561
X98.044Y44.323
X97.282Y44.323
X97.282Y43.561
X89.535Y26.162
X89.535Y26.924
X88.773Y26.924
X88.773Y26.162
X78.74Y20.955
X78.74Y21.717
X77.978Y21.717
X77.978Y20.955
X79.248Y26.035
X79.248Y26.797
X78.486Y26.797
X78.486Y26.035
X74.168Y26.035
X74.168Y26.797
X73.406Y26.797
X73.406Y26.035
X74.676Y21.082
X74.676Y21.844
X73.914Y21.844
X73.914Y21.082
X10.795Y47.752
X10.795Y48.514
X10.033Y48.514
X10.922Y62.23
X10.922Y62.992
X10.16Y62.992
X10.16Y62.23
X42.418Y49.657
X41.656Y50.419
X41.656Y49.657
X40.132Y49.403
X40.132Y50.19212
X40.132Y51.07747
X63.119Y39.624
X63.90678Y39.624
X63.10071Y38.91919
X30.988Y58.801
X31.496Y59.309
X32.004Y59.817
X33.655Y60.198
X32.81633Y60.198
X33.274Y52.324
X33.274Y53.086
X33.274Y53.848
X33.274Y54.61
X33.274Y55.372
X33.274Y56.134
X34.036Y52.324
X34.036Y53.086
X34.036Y53.848
X34.036Y54.61
X34.036Y55.372
X34.036Y56.134
X34.798Y52.324
X34.798Y53.086
X34.798Y53.848
X34.798Y54.61
X34.798Y55.372
X34.798Y56.134
X35.56Y52.324
X35.56Y53.086
X35.56Y53.848
X35.56Y54.61
X35.56Y55.372
X35.56Y56.134
X36.322Y52.324
X36.322Y53.086
X36.322Y53.848
X36.322Y54.61
X36.322Y55.372
X36.322Y56.134
X37.084Y52.324
X37.084Y53.086
X37.084Y53.848
X37.084Y54.61
X37.084Y55.372
X37.084Y56.134
X52.705Y48.26
X53.467Y48.26
X53.467Y47.498
X52.705Y47.498
X75.057Y51.943
X75.057Y52.9134
X75.057Y53.64459
X73.533Y37.973
X74.295Y37.973
X74.295Y37.211
X73.533Y37.211
X73.533Y36.322
X74.295Y36.322
X74.295Y35.56
X73.533Y35.56
X69.723Y34.925
X70.485Y34.925
X70.485Y34.163
X69.723Y34.163
X71.374Y34.925
X72.136Y34.925
X72.136Y34.163
X71.374Y34.163
X58.547Y31.369
X58.547Y30.607
X102.108Y41.656
X102.87Y41.656
X102.87Y40.894
X102.108Y40.894
X105.283Y47.879
X106.045Y47.879
X106.045Y47.117
X105.283Y47.117
X103.632Y47.879
X104.394Y47.879
X104.394Y47.117
X103.632Y47.117
X95.91866Y60.969
X96.68066Y60.969
X96.68066Y60.207
X95.91866Y60.207
X97.536Y60.96
X98.298Y60.96
X98.298Y60.198
X97.536Y60.198
X99.187Y60.96
X99.949Y60.96
X99.949Y60.198
X99.187Y60.198
X100.838Y60.96
X101.6Y60.96
X101.6Y60.198
X100.838Y60.198
X102.489Y60.96
X103.251Y60.96
X103.251Y60.198
X102.489Y60.198
X104.14Y60.96
X104.902Y60.96
X104.902Y60.198
X104.14Y60.198
X97.536Y23.241
X98.298Y23.241
X98.298Y22.479
X97.536Y22.479
X95.885Y23.241
X96.647Y23.241
X96.647Y22.479
X95.885Y22.479
X95.123Y17.526
X95.885Y17.526
X95.885Y16.764
X95.123Y16.764
X93.472Y17.526
X94.234Y17.526
X94.234Y16.764
X93.472Y16.764
X102.362Y15.875
X103.124Y15.875
X103.124Y15.113
X102.362Y15.113
X98.298Y15.367
X99.06Y15.367
X99.06Y14.605
X98.298Y14.605
X88.9Y8.382
X89.662Y8.382
X89.662Y7.62
X88.9Y7.62
X89.281Y10.922
X90.043Y10.922
X90.043Y10.16
X89.281Y10.16
X89.281Y12.827
X90.043Y12.827
X90.043Y12.065
X89.281Y12.065
X82.423Y7.493
X77.978Y10.287
X80.8099Y11.85111
X80.8099Y8.54911
X53.34Y33.147
X54.102Y33.147
X54.102Y32.385
X53.34Y32.385
X51.689Y33.147
X52.451Y33.147
X52.451Y32.385
X51.689Y32.385
X41.529Y25.4
X42.291Y25.4
X42.291Y24.638
X41.529Y24.638
X41.529Y23.749
X42.291Y23.749
X42.291Y22.987
X41.529Y22.987
X52.07Y18.669
X52.832Y18.669
X52.832Y17.907
X52.07Y17.907
X51.943Y15.875
X52.705Y15.875
X52.705Y15.113
X51.943Y15.113
X40.005Y60.071
X42.164Y44.196
X42.164Y44.958
X42.164Y45.72
X42.164Y46.482
X42.926Y44.196
X42.926Y44.958
X42.926Y45.72
X42.926Y46.482
X43.688Y44.196
X43.688Y44.958
X43.688Y45.72
X43.688Y46.482
X44.45Y44.196
X44.45Y44.958
X44.45Y45.72
X44.45Y46.482
X45.212Y44.196
X45.212Y44.958
X45.212Y45.72
X45.212Y46.482
X45.974Y44.958
X45.974Y45.72
X45.974Y46.482
X46.736Y44.958
X46.736Y45.72
X46.736Y46.482
X33.401Y39.243
X33.401Y40.005
X33.401Y40.767
X33.401Y41.529
X33.401Y42.291
X34.163Y39.243
X34.163Y40.005
X34.163Y40.767
X34.163Y41.529
X34.163Y42.291
X34.163Y43.053
X34.163Y43.815
X34.163Y44.577
X34.925Y35.433
X34.925Y36.195
X34.925Y36.957
X34.925Y37.719
X34.925Y38.481
X34.925Y39.243
X34.925Y40.005
X34.925Y40.767
X34.925Y41.529
X34.925Y42.291
X34.925Y43.053
X34.925Y43.815
X35.687Y35.433
X35.687Y36.195
X35.687Y36.957
X35.687Y37.719
X35.687Y38.481
X35.687Y39.243
X35.687Y40.005
X35.687Y40.767
X35.687Y41.529
X35.687Y42.291
X35.687Y43.053
X36.449Y35.433
X36.449Y36.195
X36.449Y36.957
X36.449Y37.719
X36.449Y38.481
X36.449Y39.243
X36.449Y40.005
X36.449Y40.767
X36.449Y41.529
X36.449Y42.291
X37.211Y35.433
X37.211Y36.195
X37.211Y36.957
X37.211Y37.719
X37.211Y38.481
X37.211Y39.243
X37.211Y40.005
X37.211Y40.767
X37.211Y41.529
X37.211Y42.291
X13.335Y48.387
X14.097Y48.387
X14.097Y47.625
X13.335Y47.625
X11.176Y39.624
X11.938Y39.624
X11.938Y38.862
X11.176Y38.862
X13.208Y39.624
X13.97Y39.624
X13.97Y38.862
X13.208Y38.862
X10.668Y42.799
X10.922Y45.085
X25.654Y46.736
X26.416Y46.736
X26.416Y45.974
X25.654Y45.974
X24.003Y46.736
X24.765Y46.736
X24.765Y45.974
X24.003Y45.974
X22.225Y46.736
X22.987Y46.736
X22.987Y45.974
X22.225Y45.974
X20.447Y46.736
X21.209Y46.736
X21.209Y45.974
X20.447Y45.974
X24.511Y40.64
X25.273Y40.64
X25.273Y39.878
X24.511Y39.878
X25.908Y37.084
X26.67Y37.084
X26.67Y36.322
X25.908Y36.322
X13.081Y30.48
X13.843Y30.48
X13.843Y29.718
X13.081Y29.718
X11.23024Y25.24993
X10.47703Y25.24993
X10.414Y28.067
X11.176Y28.067
X11.176Y27.305
X10.414Y27.305
X14.224Y19.685
X14.986Y19.685
X14.986Y18.923
X14.224Y18.923
X35.814Y63.119
X36.576Y63.119
X36.576Y62.357
X35.814Y62.357
X63.373Y65.532
X64.135Y65.532
X64.135Y64.77
X63.373Y64.77
X63.373Y64.008
X64.135Y64.008
X64.135Y63.246
X63.373Y63.246
X68.834Y65.278
X68.834Y64.54814
X68.834Y63.676
X73.914Y64.389
X74.70244Y64.389
X73.914Y63.627
X67.183Y53.975
X67.945Y53.975
X67.945Y53.213
X67.183Y53.213
X83.693Y42.418
X83.693Y43.18
X83.693Y43.942
X83.693Y44.704
X83.693Y45.466
X83.693Y46.228
X83.693Y46.99
X83.693Y47.752
X83.693Y48.514
X83.693Y49.276
X84.455Y42.418
X84.455Y43.18
X84.455Y43.942
X84.455Y44.704
X84.455Y45.466
X84.455Y46.228
X84.455Y46.99
X84.455Y47.752
X84.455Y48.514
X85.217Y42.418
X85.217Y43.18
X85.217Y43.942
X85.217Y44.704
X85.979Y42.418
X85.979Y43.18
X85.979Y43.942
X85.979Y44.704
X86.741Y43.942
X86.741Y44.704
X87.503Y44.704
X88.265Y44.704
X96.012Y28.702
X96.774Y28.702
X96.774Y27.94
X96.012Y27.94
X96.012Y27.051
X96.774Y27.051
X96.774Y26.289
X26.02636Y51.054
X33.655Y61.341
X45.847Y51.689
X46.609Y51.689
X47.371Y51.689
X48.133Y51.689
X48.895Y50.927
X48.895Y51.689
X48.895Y52.451
X48.895Y53.213
X48.895Y53.975
X48.895Y54.737
X48.895Y55.499
X48.895Y56.261
X48.895Y57.023
X49.657Y50.165
X49.657Y50.927
X49.657Y51.689
X49.657Y52.451
X49.657Y53.213
X49.657Y53.975
X49.657Y54.737
X49.657Y55.499
X49.657Y56.261
X49.657Y57.023
X50.419Y49.403
X50.419Y50.165
X50.419Y50.927
X50.419Y51.689
X50.419Y52.451
X50.419Y53.213
X50.419Y53.975
X50.419Y54.737
X50.419Y55.499
X16.891Y51.054
X81.28Y7.62
X82.423Y14.224
X26.162Y50.00718
X29.21Y34.671
X32.131Y43.434
X36.449Y28.194
X38.481Y34.925
X40.259Y56.261
X40.3225Y57.7215
X40.386Y58.801
X40.513Y40.894
X40.894Y54.991
X41.783Y40.894
X41.91Y53.721
X42.545Y52.45608
X42.799Y47.371
X42.799Y48.641
X44.323Y40.894
X46.101Y32.639
X30.734Y57.658
X49.403Y40.86403
X50.673Y40.86403
X51.943Y40.86403
X53.213Y40.894
X54.483Y40.894
X54.737Y56.388
X54.76895Y55.08605
X60.198Y60.071
X61.595Y45.974
X62.357Y45.466
X63.5Y44.831
X67.818Y34.417
X68.453Y35.052
X69.088Y35.814
X70.739Y36.449
X71.374Y37.719
X71.82002Y54.55498
X72.38051Y37.719
X76.581Y27.432
X77.597Y27.21811
X77.978Y13.081
X80.01Y55.753
X80.264Y53.34
X92.46561Y21.45017
X93.345Y21.463
X93.345Y35.56
X94.10556Y21.45017
X46.10264Y31.623
X86.995Y39.37
X97.79Y50.927
X17.907Y47.752
X10.033Y47.752
X63.93982Y38.91919
X96.012Y26.289
X50.419Y56.261
X95.123Y9.5251
X95.25Y11.684
X44.59591Y29.591
X47.0535Y28.7655
X46.482Y25.77527
X51.181Y47.86994
X52.58328Y49.15428
X54.63484Y51.20584
X63.754Y50.546
X50.92247Y48.63647
X52.349Y50.1049
X54.40369Y52.11769
X61.341Y51.816
X54.356Y46.863
X58.166Y47.498
X51.689Y46.228
X49.784Y43.942
T03
X100.08696Y14.72507G85X100.98696Y14.72507
X100.08697Y23.37509G85X100.987Y23.37509
X104.43703Y14.72502G85X105.03703Y14.72502
X104.43703Y23.37499G85X105.03703Y23.37499
T04
X51.435Y23.38849
X51.435Y24.511
X52.578Y23.40727
X52.578Y24.511
X97.0915Y48.15349
X97.0915Y49.276
X98.2345Y49.276
X98.2345Y48.17227
T05
X77.597Y64.516
X80.137Y64.516
X82.677Y64.516
X85.217Y64.516
X87.757Y64.516
X90.297Y64.516
T06
X22.00013Y58.24983
X19.50013Y58.24983
X24.50012Y58.24983
X24.49999Y55.74994
X19.5Y55.74994
T07
X16.60001Y57.34996G85X16.60001Y56.64994
X27.39999Y57.34996G85X27.39999Y56.64994
T08
X109.0378Y62.47977
X-3.5444Y62.47977
X-3.5444Y4.74557
X109.0378Y4.74557
M30