G04 Layer: BoardOutlineLayer*
G04 EasyEDA Pro v3.2.135, 2026-06-28 16:47:50*
G04 Gerber Generator version 0.3*
G04 Scale: 100 percent, Rotated: No, Reflected: No*
G04 Dimensions in millimeters*
G04 Leading zeros omitted, absolute positions, 4 integers and 5 decimals*
G04 Generated by one-click*
G04 Object Configs: Pad,Via,Track,Text,Image,Dimension,BoardOutline,BoardCutout,CopperFilled,SolidRegion,FPCStiffener,Line,PlaneZone,ComponentProperty,ComponentSilkscreen,TearDrop*
G04 Layer Configs: 1,2,3,4,5,6,7,8,9,10,11,13,14,71,72,56*
G04 Copper Areas: 0*
%FSLAX45Y45*%
%MOMM*%
%ADD10C,0.254*%
%ADD11C,0.1*%
%ADD12C,0.0064*%
G75*


G04 PolygonModel Start*
G54D10*
G01X-136060Y-49957D02*
G01X1359743Y-49957D01*
G01X1485900Y76200D01*
G01X8887992Y76200D01*
G01X9014171Y-49979D01*
G01X10680479Y-49979D01*
G54D11*
G01X-725000Y6270000D02*
G01X-725000Y6264797D01*
G01X-725000Y6260634D01*
G01X-725000Y6257512D01*
G01X-725000Y6219007D01*
G01X-725000Y500994D02*
G01X-725000Y497872D01*
G01X-725000Y484343D01*
G01X-725000Y450000D01*
G01X-666070Y679558D02*
G03X-725000Y500994I241070J-178565D01*
G01X-725000Y6219007D02*
G03X-666070Y6040442I300000J-0D01*
G01X-666070Y6040442D02*
G01X-334337Y5592588D01*
G01X-334337Y1127412D02*
G01X-666070Y679558D01*
G01X-725000Y450000D02*
G01X-724949Y440784D01*
G01X-724794Y431653D01*
G01X-724537Y422608D01*
G01X-724177Y413649D01*
G01X-723714Y404775D01*
G01X-723148Y395988D01*
G01X-722480Y387286D01*
G01X-721708Y378670D01*
G01X-720833Y370139D01*
G01X-719856Y361694D01*
G01X-718776Y353335D01*
G01X-717593Y345062D01*
G01X-716307Y336874D01*
G01X-714918Y328772D01*
G01X-713426Y320756D01*
G01X-711831Y312826D01*
G01X-710134Y304981D01*
G01X-708333Y297222D01*
G01X-706430Y289549D01*
G01X-704424Y281962D01*
G01X-702315Y274460D01*
G01X-700103Y267044D01*
G01X-697788Y259714D01*
G01X-695370Y252469D01*
G01X-692850Y245310D01*
G01X-690226Y238238D01*
G01X-687500Y231250D01*
G01X-684671Y224349D01*
G01X-681739Y217533D01*
G01X-678704Y210802D01*
G01X-675566Y204158D01*
G01X-672325Y197600D01*
G01X-668982Y191127D01*
G01X-665535Y184740D01*
G01X-661986Y178438D01*
G01X-658333Y172222D01*
G01X-654578Y166092D01*
G01X-650720Y160048D01*
G01X-646759Y154090D01*
G01X-642696Y148217D01*
G01X-638529Y142430D01*
G01X-634259Y136728D01*
G01X-629887Y131113D01*
G01X-625412Y125583D01*
G01X-620833Y120139D01*
G01X-616152Y114781D01*
G01X-611368Y109508D01*
G01X-606482Y104321D01*
G01X-601492Y99220D01*
G01X-596399Y94205D01*
G01X-591204Y89275D01*
G01X-585905Y84431D01*
G01X-580504Y79673D01*
G01X-575000Y75000D01*
G01X-569393Y70413D01*
G01X-563683Y65912D01*
G01X-557871Y61497D01*
G01X-551955Y57168D01*
G01X-545936Y52924D01*
G01X-539815Y48765D01*
G01X-533591Y44693D01*
G01X-527264Y40707D01*
G01X-520833Y36806D01*
G01X-514300Y32991D01*
G01X-507665Y29261D01*
G01X-500926Y25617D01*
G01X-494085Y22059D01*
G01X-487140Y18587D01*
G01X-480093Y15201D01*
G01X-472942Y11900D01*
G01X-465689Y8685D01*
G01X-458333Y5556D01*
G01X-450875Y2512D01*
G01X-443313Y-446D01*
G01X-435648Y-3318D01*
G01X-427881Y-6104D01*
G01X-420010Y-8805D01*
G01X-412037Y-11420D01*
G01X-403961Y-13949D01*
G01X-395782Y-16392D01*
G01X-387500Y-18750D01*
G01X-379115Y-21022D01*
G01X-370628Y-23208D01*
G01X-362037Y-25309D01*
G01X-353344Y-27323D01*
G01X-344547Y-29252D01*
G01X-335648Y-31096D01*
G01X-326646Y-32853D01*
G01X-317541Y-34525D01*
G01X-308333Y-36111D01*
G01X-299023Y-37611D01*
G01X-289609Y-39026D01*
G01X-280093Y-40355D01*
G01X-270473Y-41598D01*
G01X-260751Y-42755D01*
G01X-250926Y-43827D01*
G01X-240998Y-44813D01*
G01X-230967Y-45713D01*
G01X-220833Y-46528D01*
G01X-210597Y-47256D01*
G01X-200257Y-47899D01*
G01X-189815Y-48457D01*
G01X-179270Y-48928D01*
G01X-168621Y-49314D01*
G01X-157870Y-49614D01*
G01X-147016Y-49828D01*
G01X-136060Y-49957D01*
G01X-125000Y-50000D01*
G01X-125000Y6770000D02*
G01X-135959Y6769958D01*
G01X-146817Y6769832D01*
G01X-157573Y6769621D01*
G01X-168229Y6769327D01*
G01X-178783Y6768948D01*
G01X-189237Y6768485D01*
G01X-199590Y6767938D01*
G01X-209842Y6767307D01*
G01X-219992Y6766591D01*
G01X-230042Y6765792D01*
G01X-239990Y6764908D01*
G01X-249838Y6763940D01*
G01X-259585Y6762888D01*
G01X-269230Y6761752D01*
G01X-278775Y6760531D01*
G01X-288219Y6759227D01*
G01X-297561Y6757838D01*
G01X-306803Y6756365D01*
G01X-315944Y6754808D01*
G01X-324983Y6753167D01*
G01X-333922Y6751441D01*
G01X-342760Y6749631D01*
G01X-351496Y6747738D01*
G01X-360132Y6745760D01*
G01X-368667Y6743698D01*
G01X-377100Y6741551D01*
G01X-385433Y6739321D01*
G01X-393664Y6737006D01*
G01X-401795Y6734608D01*
G01X-409825Y6732124D01*
G01X-417753Y6729558D01*
G01X-425581Y6726906D01*
G01X-433307Y6724171D01*
G01X-440933Y6721351D01*
G01X-448458Y6718447D01*
G01X-455881Y6715459D01*
G01X-463204Y6712387D01*
G01X-470426Y6709231D01*
G01X-477546Y6705990D01*
G01X-484566Y6702666D01*
G01X-491484Y6699257D01*
G01X-498302Y6695764D01*
G01X-505019Y6692187D01*
G01X-511634Y6688526D01*
G01X-518149Y6684780D01*
G01X-524562Y6680950D01*
G01X-530875Y6677037D01*
G01X-537087Y6673039D01*
G01X-543197Y6668956D01*
G01X-549207Y6664790D01*
G01X-555115Y6660540D01*
G01X-560923Y6656205D01*
G01X-566630Y6651786D01*
G01X-572235Y6647283D01*
G01X-577740Y6642696D01*
G01X-583143Y6638025D01*
G01X-588446Y6633269D01*
G01X-593648Y6628430D01*
G01X-598748Y6623506D01*
G01X-603748Y6618498D01*
G01X-608646Y6613406D01*
G01X-613444Y6608229D01*
G01X-618140Y6602969D01*
G01X-622736Y6597624D01*
G01X-627231Y6592195D01*
G01X-631624Y6586682D01*
G01X-635917Y6581085D01*
G01X-640108Y6575404D01*
G01X-644199Y6569638D01*
G01X-648188Y6563788D01*
G01X-652077Y6557855D01*
G01X-655865Y6551837D01*
G01X-659551Y6545734D01*
G01X-663137Y6539548D01*
G01X-666621Y6533278D01*
G01X-670005Y6526923D01*
G01X-673287Y6520484D01*
G01X-676469Y6513961D01*
G01X-679549Y6507354D01*
G01X-682529Y6500663D01*
G01X-685408Y6493887D01*
G01X-688185Y6487027D01*
G01X-690861Y6480084D01*
G01X-693437Y6473055D01*
G01X-695912Y6465943D01*
G01X-698285Y6458747D01*
G01X-700558Y6451466D01*
G01X-702729Y6444102D01*
G01X-704800Y6436653D01*
G01X-706769Y6429120D01*
G01X-708638Y6421503D01*
G01X-710405Y6413801D01*
G01X-712072Y6406016D01*
G01X-713637Y6398146D01*
G01X-715102Y6390192D01*
G01X-716465Y6382154D01*
G01X-717728Y6374032D01*
G01X-718890Y6365825D01*
G01X-719950Y6357535D01*
G01X-720910Y6349160D01*
G01X-721768Y6340701D01*
G01X-722526Y6332158D01*
G01X-723182Y6323531D01*
G01X-723738Y6314820D01*
G01X-724192Y6306024D01*
G01X-724546Y6297144D01*
G01X-724798Y6288180D01*
G01X-724950Y6279132D01*
G01X-725000Y6270000D01*
G01X-334337Y5592588D02*
G01X-330369Y5587163D01*
G01X-326483Y5581710D01*
G01X-322679Y5576230D01*
G01X-318956Y5570724D01*
G01X-315315Y5565190D01*
G01X-311756Y5559629D01*
G01X-308279Y5554042D01*
G01X-304884Y5548427D01*
G01X-301571Y5542785D01*
G01X-298339Y5537117D01*
G01X-295189Y5531421D01*
G01X-292121Y5525699D01*
G01X-289135Y5519949D01*
G01X-286231Y5514172D01*
G01X-283408Y5508369D01*
G01X-280667Y5502538D01*
G01X-278008Y5496681D01*
G01X-275431Y5490796D01*
G01X-272936Y5484884D01*
G01X-270522Y5478946D01*
G01X-268191Y5472980D01*
G01X-265941Y5466988D01*
G01X-263773Y5460968D01*
G01X-261687Y5454921D01*
G01X-259682Y5448848D01*
G01X-257760Y5442747D01*
G01X-255919Y5436619D01*
G01X-254160Y5430465D01*
G01X-252483Y5424283D01*
G01X-250887Y5418075D01*
G01X-249374Y5411839D01*
G01X-247942Y5405576D01*
G01X-246592Y5399287D01*
G01X-245324Y5392970D01*
G01X-244138Y5386626D01*
G01X-243033Y5380256D01*
G01X-242010Y5373858D01*
G01X-241070Y5367434D01*
G01X-240211Y5360982D01*
G01X-239433Y5354503D01*
G01X-238738Y5347997D01*
G01X-238124Y5341465D01*
G01X-237593Y5334905D01*
G01X-237143Y5328319D01*
G01X-236774Y5321705D01*
G01X-236488Y5315064D01*
G01X-236283Y5308397D01*
G01X-236161Y5301702D01*
G01X-236120Y5294981D01*
G01X-236120Y1425020D02*
G01X-236161Y1418298D01*
G01X-236283Y1411603D01*
G01X-236488Y1404936D01*
G01X-236774Y1398295D01*
G01X-237143Y1391682D01*
G01X-237593Y1385095D01*
G01X-238124Y1378535D01*
G01X-238738Y1372003D01*
G01X-239433Y1365497D01*
G01X-240211Y1359018D01*
G01X-241070Y1352567D01*
G01X-242010Y1346142D01*
G01X-243033Y1339745D01*
G01X-244138Y1333374D01*
G01X-245324Y1327030D01*
G01X-246592Y1320714D01*
G01X-247942Y1314424D01*
G01X-249374Y1308161D01*
G01X-250887Y1301926D01*
G01X-252483Y1295717D01*
G01X-254160Y1289536D01*
G01X-255919Y1283381D01*
G01X-257760Y1277253D01*
G01X-259682Y1271153D01*
G01X-261687Y1265079D01*
G01X-263773Y1259033D01*
G01X-265941Y1253013D01*
G01X-268191Y1247020D01*
G01X-270522Y1241055D01*
G01X-272936Y1235116D01*
G01X-275431Y1229204D01*
G01X-278008Y1223320D01*
G01X-280667Y1217462D01*
G01X-283408Y1211631D01*
G01X-286231Y1205828D01*
G01X-289135Y1200051D01*
G01X-292121Y1194302D01*
G01X-295189Y1188579D01*
G01X-298339Y1182883D01*
G01X-301571Y1177215D01*
G01X-304884Y1171573D01*
G01X-308279Y1165958D01*
G01X-311756Y1160371D01*
G01X-315315Y1154810D01*
G01X-318956Y1149277D01*
G01X-322679Y1143770D01*
G01X-326483Y1138290D01*
G01X-330369Y1132838D01*
G01X-334337Y1127412D01*
G01X-236120Y2118597D02*
G01X-236120Y1947716D01*
G01X-236120Y1947716D02*
G01X-236120Y1937664D01*
G01X-236120Y1927612D01*
G01X-236120Y1897456D01*
G01X-236120Y1887405D01*
G01X-236120Y1877353D01*
G01X-236120Y1847197D01*
G01X-236120Y1837145D01*
G01X-236120Y1827094D01*
G01X-236120Y1696420D01*
G01X-236120Y1686368D01*
G01X-236120Y1676316D01*
G01X-236120Y1605953D01*
G01X-236120Y1595901D01*
G01X-236120Y1585849D01*
G01X-236120Y1585849D02*
G01X-236120Y1425020D01*
G01X-236120Y5294981D02*
G01X-236120Y5284929D01*
G01X-236120Y5274877D01*
G01X-236120Y5264825D01*
G01X-236120Y5254773D01*
G01X-236120Y5234669D01*
G01X-236120Y5224617D01*
G01X-236120Y5214566D01*
G01X-236120Y5204514D01*
G01X-236120Y5194462D01*
G01X-236120Y5174358D01*
G01X-236120Y5164306D01*
G01X-236120Y5154255D01*
G01X-236120Y5134151D01*
G01X-236120Y5124099D01*
G01X-236120Y5114047D01*
G01X-236120Y5103995D01*
G01X-236120Y5093944D01*
G01X-236120Y5083892D01*
G01X-236120Y5003477D01*
G01X-236120Y4993425D01*
G01X-236120Y4983373D01*
G01X-236120Y4973322D01*
G01X-236120Y4963269D01*
G01X-236120Y4953218D01*
G01X-236120Y4943166D01*
G01X-236120Y4933114D01*
G01X-236120Y4923062D01*
G01X-236120Y4913010D01*
G01X-236120Y4902958D01*
G01X-236120Y4892907D01*
G01X-236120Y4882855D01*
G01X-236120Y4872803D01*
G01X-236120Y4862751D01*
G01X-236120Y4842647D01*
G01X-236120Y4832596D01*
G01X-236120Y4822544D01*
G01X-236120Y4812492D01*
G01X-236120Y4802440D01*
G01X-236120Y4792388D01*
G01X-236120Y4782336D01*
G01X-236120Y4752181D01*
G01X-236120Y4742129D01*
G01X-236120Y4732077D01*
G01X-236120Y4722025D01*
G01X-236120Y4701922D01*
G01X-236120Y4691870D01*
G01X-236120Y4681818D01*
G01X-236120Y4671766D01*
G01X-236120Y4661714D01*
G01X-236120Y4651662D01*
G01X-236120Y4641610D01*
G01X-236120Y4631559D01*
G01X-236120Y4621507D01*
G01X-236120Y4611455D01*
G01X-236120Y4601403D01*
G01X-236120Y4591351D01*
G01X-236120Y4581299D01*
G01X-236120Y4571248D01*
G01X-236120Y4561196D01*
G01X-236120Y4551144D01*
G01X-236120Y4541092D01*
G01X-236120Y4531040D01*
G01X-236120Y4520988D01*
G01X-236120Y4510936D01*
G01X-236120Y4500885D01*
G01X-236120Y4490833D01*
G01X-236120Y4480781D01*
G01X-236120Y4470729D01*
G01X-236120Y4460677D01*
G01X-236120Y4450625D01*
G01X-236120Y4440574D01*
G01X-236120Y4420470D01*
G01X-236120Y4410418D01*
G01X-236120Y4400366D01*
G01X-236120Y4390314D01*
G01X-236120Y4380263D01*
G01X-236120Y4370211D01*
G01X-236120Y4360159D01*
G01X-236120Y4350107D01*
G01X-236120Y4340055D01*
G01X-236120Y4330003D01*
G01X-236120Y4309900D01*
G01X-236120Y4299848D01*
G01X-236120Y4289796D01*
G01X-236120Y4279744D01*
G01X-236120Y4269692D01*
G01X-236120Y4259640D01*
G01X-236120Y4249588D01*
G01X-236120Y4239537D01*
G01X-236120Y4229485D01*
G01X-236120Y4219433D01*
G01X-236120Y4209381D01*
G01X-236120Y4199329D01*
G01X-236120Y4189277D01*
G01X-236120Y4179226D01*
G01X-236120Y4118915D01*
G01X-236120Y4108863D01*
G01X-236120Y4098811D01*
G01X-236120Y4058604D01*
G01X-236120Y4048551D01*
G01X-236120Y4038500D01*
G01X-236120Y4018396D01*
G01X-236120Y4008344D01*
G01X-236120Y3998292D01*
G01X-236120Y3958085D01*
G01X-236120Y3948033D01*
G01X-236120Y3937981D01*
G01X-236120Y3927929D01*
G01X-236120Y3917878D01*
G01X-236120Y3907826D01*
G01X-236120Y3897774D01*
G01X-236120Y3887722D01*
G01X-236120Y3877670D01*
G01X-236120Y3867618D01*
G01X-236120Y3857567D01*
G01X-236120Y3847515D01*
G01X-236120Y3837463D01*
G01X-236120Y3827411D01*
G01X-236120Y3817359D01*
G01X-236120Y3807307D01*
G01X-236120Y3797256D01*
G01X-236120Y3787204D01*
G01X-236120Y3777152D01*
G01X-236120Y3767100D01*
G01X-236120Y3757048D01*
G01X-236120Y3746996D01*
G01X-236120Y3736944D01*
G01X-236120Y3726892D01*
G01X-236120Y3716841D01*
G01X-236120Y3706789D01*
G01X-236120Y3696737D01*
G01X-236120Y3686685D01*
G01X-236120Y3656530D01*
G01X-236120Y3646478D01*
G01X-236120Y3636426D01*
G01X-236120Y3626374D01*
G01X-236120Y3616322D01*
G01X-236120Y3606270D01*
G01X-236120Y3596219D01*
G01X-236120Y3586167D01*
G01X-236120Y3576115D01*
G01X-236120Y3566063D01*
G01X-236120Y3556011D01*
G01X-236120Y3545959D01*
G01X-236120Y3535907D01*
G01X-236120Y3525856D01*
G01X-236120Y3515804D01*
G01X-236120Y3505752D01*
G01X-236120Y3495700D01*
G01X-236120Y3485648D01*
G01X-236120Y3475596D01*
G01X-236120Y3465545D01*
G01X-236120Y3455493D01*
G01X-236120Y3445441D01*
G01X-236120Y3435389D01*
G01X-236120Y3425337D01*
G01X-236120Y3415285D01*
G01X-236120Y3405233D01*
G01X-236120Y3395182D01*
G01X-236120Y3385130D01*
G01X-236120Y3375078D01*
G01X-236120Y3365026D01*
G01X-236120Y3354974D01*
G01X-236120Y3284611D01*
G01X-236120Y3274559D01*
G01X-236120Y3264508D01*
G01X-236120Y3184093D01*
G01X-236120Y3174041D01*
G01X-236120Y3163989D01*
G01X-236120Y3153937D01*
G01X-236120Y3143886D01*
G01X-236120Y3133834D01*
G01X-236120Y3123782D01*
G01X-236120Y3093626D01*
G01X-236120Y3083574D01*
G01X-236120Y3073522D01*
G01X-236120Y3063471D01*
G01X-236120Y3053419D01*
G01X-236120Y3043367D01*
G01X-236120Y3033315D01*
G01X-236120Y3023263D01*
G01X-236120Y3013211D01*
G01X-236120Y2993108D01*
G01X-236120Y2983056D01*
G01X-236120Y2962952D01*
G01X-236120Y2952900D01*
G01X-236120Y2942849D01*
G01X-236120Y2932797D01*
G01X-236120Y2922745D01*
G01X-236120Y2902641D01*
G01X-236120Y2892589D01*
G01X-236120Y2872485D01*
G01X-236120Y2862434D01*
G01X-236120Y2842330D01*
G01X-236120Y2832278D01*
G01X-236120Y2822226D01*
G01X-236120Y2802123D01*
G01X-236120Y2792071D01*
G01X-236120Y2782019D01*
G01X-236120Y2771967D01*
G01X-236120Y2751863D01*
G01X-236120Y2741812D01*
G01X-236120Y2711656D01*
G01X-236120Y2701604D01*
G01X-236120Y2691552D01*
G01X-236120Y2671449D01*
G01X-236120Y2661397D01*
G01X-236120Y2651345D01*
G01X-236120Y2631241D01*
G01X-236120Y2621190D01*
G01X-236120Y2611138D01*
G01X-236120Y2601086D01*
G01X-236120Y2591034D01*
G01X-236120Y2540775D01*
G01X-236120Y2530723D01*
G01X-236120Y2510619D01*
G01X-236120Y2500567D01*
G01X-236120Y2490515D01*
G01X-236120Y2480464D01*
G01X-236120Y2470412D01*
G01X-236120Y2460360D01*
G01X-236120Y2450308D01*
G01X-236120Y2430204D01*
G01X-236120Y2420153D01*
G01X-236120Y2410101D01*
G01X-236120Y2400049D01*
G01X-236120Y2339738D01*
G01X-236120Y2329686D01*
G01X-236120Y2309582D01*
G01X-236120Y2299530D01*
G01X-236120Y2249271D01*
G01X-236120Y2239219D01*
G01X-236120Y2219116D01*
G01X-236120Y2209064D01*
G01X-236120Y2138701D01*
G01X-236120Y2128649D01*
G01X-236120Y2118597D01*
G01X10675000Y6770000D02*
G01X-125000Y6770000D01*
G01X10786120Y3365026D02*
G01X10786120Y3676633D01*
G01X10786120Y3676633D02*
G01X10786120Y3686685D01*
G01X10786120Y3696737D01*
G01X10786120Y3706789D01*
G01X10786120Y3726892D01*
G01X10786120Y3736944D01*
G01X10786120Y3746996D01*
G01X10786120Y3757048D01*
G01X10786120Y3777152D01*
G01X10786120Y3787204D01*
G01X10786120Y3797256D01*
G01X10786120Y3807307D01*
G01X10786120Y3827411D01*
G01X10786120Y3837463D01*
G01X10786120Y3847515D01*
G01X10786120Y3857567D01*
G01X10786120Y3867618D01*
G01X10786120Y3887722D01*
G01X10786120Y3897774D01*
G01X10786120Y3907826D01*
G01X10786120Y3917878D01*
G01X10786120Y3927929D01*
G01X10786120Y3948033D01*
G01X10786120Y3958085D01*
G01X10786120Y3968137D01*
G01X10786120Y3978189D01*
G01X10786120Y4008344D01*
G01X10786120Y4018396D01*
G01X10786120Y4028448D01*
G01X10786120Y4048551D01*
G01X10786120Y4058604D01*
G01X10786120Y4068655D01*
G01X10786120Y4078707D01*
G01X10786120Y4088759D01*
G01X10786120Y4098811D01*
G01X10786120Y4108863D01*
G01X10786120Y4118915D01*
G01X10786120Y4128966D01*
G01X10786120Y4139018D01*
G01X10786120Y4149070D01*
G01X10786120Y4159122D01*
G01X10786120Y4169174D01*
G01X10786120Y4179226D01*
G01X10786120Y4189277D01*
G01X10786120Y4219433D01*
G01X10786120Y4229485D01*
G01X10786120Y4239537D01*
G01X10786120Y4249588D01*
G01X10786120Y4269692D01*
G01X10786120Y4279744D01*
G01X10786120Y4299848D01*
G01X10786120Y4309900D01*
G01X10786120Y4330003D01*
G01X10786120Y4340055D01*
G01X10786120Y4350107D01*
G01X10786120Y4440574D01*
G01X10786120Y4450625D01*
G01X10786120Y4460677D01*
G01X10786120Y4500885D01*
G01X10786120Y4510936D01*
G01X10786120Y4520988D01*
G01X10786120Y4551144D01*
G01X10786120Y4561196D01*
G01X10786120Y4571248D01*
G01X10786120Y4581299D01*
G01X10786120Y4601403D01*
G01X10786120Y4611455D01*
G01X10786120Y4621507D01*
G01X10786120Y4631559D01*
G01X10786120Y4651662D01*
G01X10786120Y4661714D01*
G01X10786120Y4671766D01*
G01X10786120Y4681818D01*
G01X10786120Y4711973D01*
G01X10786120Y4722025D01*
G01X10786120Y4732077D01*
G01X10786120Y4822544D01*
G01X10786120Y4832596D01*
G01X10786120Y4842647D01*
G01X10786120Y4882855D01*
G01X10786120Y4892907D01*
G01X10786120Y4902958D01*
G01X10786120Y4902958D02*
G01X10786120Y5294981D01*
G01X10786120Y1425020D02*
G01X10786120Y1485331D01*
G01X10786120Y1495383D01*
G01X10786120Y1505435D01*
G01X10786120Y1515486D01*
G01X10786120Y1525538D01*
G01X10786120Y1535590D01*
G01X10786120Y1545642D01*
G01X10786120Y1555694D01*
G01X10786120Y1646160D01*
G01X10786120Y1656212D01*
G01X10786120Y1666264D01*
G01X10786120Y1676316D01*
G01X10786120Y1686368D01*
G01X10786120Y1696420D01*
G01X10786120Y1706472D01*
G01X10786120Y1716523D01*
G01X10786120Y1756731D01*
G01X10786120Y1766783D01*
G01X10786120Y1776834D01*
G01X10786120Y1867301D01*
G01X10786120Y1877353D01*
G01X10786120Y1887405D01*
G01X10786120Y1897456D01*
G01X10786120Y1907508D01*
G01X10786120Y1917560D01*
G01X10786120Y1927612D01*
G01X10786120Y1937664D01*
G01X10786120Y1947716D01*
G01X10786120Y1957768D01*
G01X10786120Y1967820D01*
G01X10786120Y1977871D01*
G01X10786120Y1987923D01*
G01X10786120Y1997975D01*
G01X10786120Y2008027D01*
G01X10786120Y2018079D01*
G01X10786120Y2028131D01*
G01X10786120Y2038182D01*
G01X10786120Y2048234D01*
G01X10786120Y2058286D01*
G01X10786120Y2068338D01*
G01X10786120Y2078390D01*
G01X10786120Y2088442D01*
G01X10786120Y2098493D01*
G01X10786120Y2108545D01*
G01X10786120Y2138701D01*
G01X10786120Y2148753D01*
G01X10786120Y2158804D01*
G01X10786120Y2168856D01*
G01X10786120Y2178908D01*
G01X10786120Y2188960D01*
G01X10786120Y2249271D01*
G01X10786120Y2259323D01*
G01X10786120Y2269375D01*
G01X10786120Y2279427D01*
G01X10786120Y2289479D01*
G01X10786120Y2299530D01*
G01X10786120Y2309582D01*
G01X10786120Y2319634D01*
G01X10786120Y2329686D01*
G01X10786120Y2339738D01*
G01X10786120Y2349790D01*
G01X10786120Y2359841D01*
G01X10786120Y2369893D01*
G01X10786120Y2379945D01*
G01X10786120Y2389997D01*
G01X10786120Y2400049D01*
G01X10786120Y2410101D01*
G01X10786120Y2420153D01*
G01X10786120Y2430204D01*
G01X10786120Y2440256D01*
G01X10786120Y2450308D01*
G01X10786120Y2460360D01*
G01X10786120Y2470412D01*
G01X10786120Y2480464D01*
G01X10786120Y2490515D01*
G01X10786120Y2500567D01*
G01X10786120Y2510619D01*
G01X10786120Y2520671D01*
G01X10786120Y2530723D01*
G01X10786120Y2540775D01*
G01X10786120Y2550826D01*
G01X10786120Y2560878D01*
G01X10786120Y2570930D01*
G01X10786120Y2580982D01*
G01X10786120Y2591034D01*
G01X10786120Y2601086D01*
G01X10786120Y2611138D01*
G01X10786120Y2621190D01*
G01X10786120Y2631241D01*
G01X10786120Y2651345D01*
G01X10786120Y2661397D01*
G01X10786120Y2671449D01*
G01X10786120Y2681501D01*
G01X10786120Y2691552D01*
G01X10786120Y2701604D01*
G01X10786120Y2711656D01*
G01X10786120Y2721708D01*
G01X10786120Y2731760D01*
G01X10786120Y2741812D01*
G01X10786120Y2751863D01*
G01X10786120Y2761915D01*
G01X10786120Y2771967D01*
G01X10786120Y2782019D01*
G01X10786120Y2792071D01*
G01X10786120Y2802123D01*
G01X10786120Y2812174D01*
G01X10786120Y2822226D01*
G01X10786120Y2832278D01*
G01X10786120Y2842330D01*
G01X10786120Y2852382D01*
G01X10786120Y2862434D01*
G01X10786120Y2872485D01*
G01X10786120Y2882538D01*
G01X10786120Y2892589D01*
G01X10786120Y2902641D01*
G01X10786120Y2912693D01*
G01X10786120Y2922745D01*
G01X10786120Y2932797D01*
G01X10786120Y2942849D01*
G01X10786120Y2993108D01*
G01X10786120Y3003160D01*
G01X10786120Y3013211D01*
G01X10786120Y3023263D01*
G01X10786120Y3033315D01*
G01X10786120Y3043367D01*
G01X10786120Y3053419D01*
G01X10786120Y3063471D01*
G01X10786120Y3073522D01*
G01X10786120Y3103678D01*
G01X10786120Y3113730D01*
G01X10786120Y3123782D01*
G01X10786120Y3133834D01*
G01X10786120Y3143886D01*
G01X10786120Y3153937D01*
G01X10786120Y3163989D01*
G01X10786120Y3174041D01*
G01X10786120Y3184093D01*
G01X10786120Y3194145D01*
G01X10786120Y3204197D01*
G01X10786120Y3214248D01*
G01X10786120Y3224300D01*
G01X10786120Y3234352D01*
G01X10786120Y3244404D01*
G01X10786120Y3254456D01*
G01X10786120Y3264508D01*
G01X10786120Y3274559D01*
G01X10786120Y3284611D01*
G01X10786120Y3304715D01*
G01X10786120Y3314767D01*
G01X10786120Y3324819D01*
G01X10786120Y3344922D01*
G01X10786120Y3354974D01*
G01X10786120Y3365026D01*
G01X10884337Y1127412D02*
G01X10880369Y1132838D01*
G01X10876482Y1138290D01*
G01X10872678Y1143770D01*
G01X10868956Y1149277D01*
G01X10865315Y1154810D01*
G01X10861756Y1160371D01*
G01X10858279Y1165958D01*
G01X10854884Y1171573D01*
G01X10851570Y1177215D01*
G01X10848339Y1182883D01*
G01X10845189Y1188579D01*
G01X10842121Y1194302D01*
G01X10839135Y1200051D01*
G01X10836230Y1205828D01*
G01X10833408Y1211631D01*
G01X10830667Y1217462D01*
G01X10828008Y1223320D01*
G01X10825431Y1229204D01*
G01X10822936Y1235116D01*
G01X10820522Y1241055D01*
G01X10818190Y1247020D01*
G01X10815941Y1253013D01*
G01X10813773Y1259033D01*
G01X10811686Y1265079D01*
G01X10809682Y1271153D01*
G01X10807759Y1277253D01*
G01X10805918Y1283381D01*
G01X10804159Y1289536D01*
G01X10802482Y1295717D01*
G01X10800887Y1301926D01*
G01X10799373Y1308161D01*
G01X10797942Y1314424D01*
G01X10796592Y1320714D01*
G01X10795324Y1327030D01*
G01X10794137Y1333374D01*
G01X10793033Y1339745D01*
G01X10792010Y1346142D01*
G01X10791069Y1352567D01*
G01X10790210Y1359018D01*
G01X10789433Y1365497D01*
G01X10788738Y1372003D01*
G01X10788124Y1378535D01*
G01X10787592Y1385095D01*
G01X10787142Y1391682D01*
G01X10786774Y1398295D01*
G01X10786488Y1404936D01*
G01X10786283Y1411603D01*
G01X10786161Y1418298D01*
G01X10786120Y1425020D01*
G01X10786120Y5294981D02*
G01X10786161Y5301702D01*
G01X10786283Y5308397D01*
G01X10786488Y5315064D01*
G01X10786774Y5321705D01*
G01X10787142Y5328319D01*
G01X10787592Y5334905D01*
G01X10788124Y5341465D01*
G01X10788738Y5347997D01*
G01X10789433Y5354503D01*
G01X10790210Y5360982D01*
G01X10791069Y5367434D01*
G01X10792010Y5373858D01*
G01X10793033Y5380256D01*
G01X10794137Y5386626D01*
G01X10795324Y5392970D01*
G01X10796592Y5399287D01*
G01X10797942Y5405576D01*
G01X10799373Y5411839D01*
G01X10800887Y5418075D01*
G01X10802482Y5424283D01*
G01X10804159Y5430465D01*
G01X10805918Y5436619D01*
G01X10807759Y5442747D01*
G01X10809682Y5448848D01*
G01X10811686Y5454921D01*
G01X10813773Y5460968D01*
G01X10815941Y5466988D01*
G01X10818190Y5472980D01*
G01X10820522Y5478946D01*
G01X10822936Y5484884D01*
G01X10825431Y5490796D01*
G01X10828008Y5496681D01*
G01X10830667Y5502538D01*
G01X10833408Y5508369D01*
G01X10836230Y5514172D01*
G01X10839135Y5519949D01*
G01X10842121Y5525699D01*
G01X10845189Y5531421D01*
G01X10848339Y5537117D01*
G01X10851570Y5542785D01*
G01X10854884Y5548427D01*
G01X10858279Y5554042D01*
G01X10861756Y5559629D01*
G01X10865315Y5565190D01*
G01X10868956Y5570724D01*
G01X10872678Y5576230D01*
G01X10876482Y5581710D01*
G01X10880369Y5587163D01*
G01X10884337Y5592588D01*
G01X11275000Y6270000D02*
G01X11274948Y6279217D01*
G01X11274794Y6288347D01*
G01X11274537Y6297392D01*
G01X11274177Y6306351D01*
G01X11273714Y6315225D01*
G01X11273148Y6324012D01*
G01X11272479Y6332715D01*
G01X11271708Y6341331D01*
G01X11270833Y6349861D01*
G01X11269856Y6358306D01*
G01X11268776Y6366665D01*
G01X11267592Y6374938D01*
G01X11266306Y6383126D01*
G01X11264918Y6391228D01*
G01X11263426Y6399244D01*
G01X11261831Y6407174D01*
G01X11260134Y6415019D01*
G01X11258333Y6422778D01*
G01X11256430Y6430451D01*
G01X11254424Y6438039D01*
G01X11252315Y6445540D01*
G01X11250103Y6452956D01*
G01X11247788Y6460287D01*
G01X11245370Y6467531D01*
G01X11242850Y6474690D01*
G01X11240226Y6481763D01*
G01X11237500Y6488750D01*
G01X11234671Y6495652D01*
G01X11231739Y6502468D01*
G01X11228703Y6509198D01*
G01X11225566Y6515842D01*
G01X11222325Y6522401D01*
G01X11218981Y6528874D01*
G01X11215535Y6535261D01*
G01X11211985Y6541562D01*
G01X11208333Y6547778D01*
G01X11204578Y6553908D01*
G01X11200720Y6559952D01*
G01X11196759Y6565911D01*
G01X11192695Y6571783D01*
G01X11188529Y6577571D01*
G01X11184259Y6583272D01*
G01X11179887Y6588887D01*
G01X11175411Y6594417D01*
G01X11170833Y6599861D01*
G01X11166152Y6605220D01*
G01X11161368Y6610492D01*
G01X11156481Y6615679D01*
G01X11151492Y6620780D01*
G01X11146399Y6625796D01*
G01X11141204Y6630725D01*
G01X11135905Y6635569D01*
G01X11130504Y6640328D01*
G01X11125000Y6645000D01*
G01X11119393Y6649587D01*
G01X11113683Y6654088D01*
G01X11107870Y6658503D01*
G01X11101955Y6662833D01*
G01X11095936Y6667077D01*
G01X11089815Y6671235D01*
G01X11083590Y6675307D01*
G01X11077263Y6679294D01*
G01X11070833Y6683195D01*
G01X11064300Y6687010D01*
G01X11057664Y6690739D01*
G01X11050926Y6694383D01*
G01X11044084Y6697941D01*
G01X11037140Y6701413D01*
G01X11030092Y6704800D01*
G01X11022942Y6708100D01*
G01X11015689Y6711315D01*
G01X11008333Y6714445D01*
G01X11000874Y6717488D01*
G01X10993313Y6720446D01*
G01X10985648Y6723318D01*
G01X10977881Y6726104D01*
G01X10970010Y6728805D01*
G01X10962037Y6731420D01*
G01X10953961Y6733949D01*
G01X10945782Y6736392D01*
G01X10937500Y6738750D01*
G01X10929115Y6741022D01*
G01X10920627Y6743208D01*
G01X10912037Y6745309D01*
G01X10903343Y6747324D01*
G01X10894547Y6749253D01*
G01X10885648Y6751096D01*
G01X10876646Y6752853D01*
G01X10867541Y6754525D01*
G01X10858333Y6756111D01*
G01X10849022Y6757612D01*
G01X10839609Y6759026D01*
G01X10830092Y6760355D01*
G01X10820473Y6761598D01*
G01X10810751Y6762756D01*
G01X10800926Y6763827D01*
G01X10790998Y6764813D01*
G01X10780967Y6765713D01*
G01X10770833Y6766528D01*
G01X10760596Y6767257D01*
G01X10750257Y6767900D01*
G01X10739815Y6768457D01*
G01X10729269Y6768929D01*
G01X10718621Y6769314D01*
G01X10707870Y6769614D01*
G01X10697016Y6769829D01*
G01X10686060Y6769957D01*
G01X10675000Y6770000D01*
G01X10675000Y-50000D02*
G01X10685959Y-49958D01*
G01X10696816Y-49831D01*
G01X10707573Y-49621D01*
G01X10718229Y-49327D01*
G01X10728783Y-48948D01*
G01X10739237Y-48485D01*
G01X10749590Y-47938D01*
G01X10759841Y-47306D01*
G01X10769992Y-46591D01*
G01X10780041Y-45791D01*
G01X10789990Y-44908D01*
G01X10799838Y-43940D01*
G01X10809584Y-42888D01*
G01X10819230Y-41752D01*
G01X10828775Y-40531D01*
G01X10838218Y-39226D01*
G01X10847561Y-37838D01*
G01X10856803Y-36365D01*
G01X10865943Y-34808D01*
G01X10874983Y-33166D01*
G01X10883922Y-31441D01*
G01X10892759Y-29631D01*
G01X10901496Y-27738D01*
G01X10910132Y-25759D01*
G01X10918666Y-23697D01*
G01X10927100Y-21551D01*
G01X10935433Y-19321D01*
G01X10943664Y-17006D01*
G01X10951795Y-14607D01*
G01X10959824Y-12124D01*
G01X10967753Y-9557D01*
G01X10975581Y-6906D01*
G01X10983307Y-4170D01*
G01X10990933Y-1351D01*
G01X10998458Y1553D01*
G01X11005881Y4541D01*
G01X11013204Y7613D01*
G01X11020425Y10769D01*
G01X11027546Y14010D01*
G01X11034566Y17334D01*
G01X11041484Y20743D01*
G01X11048302Y24236D01*
G01X11055018Y27814D01*
G01X11061634Y31475D01*
G01X11068149Y35220D01*
G01X11074562Y39050D01*
G01X11080875Y42964D01*
G01X11087086Y46962D01*
G01X11093197Y51044D01*
G01X11099207Y55210D01*
G01X11105115Y59461D01*
G01X11110923Y63795D01*
G01X11116629Y68214D01*
G01X11122235Y72717D01*
G01X11127739Y77304D01*
G01X11133143Y81975D01*
G01X11138446Y86731D01*
G01X11143647Y91571D01*
G01X11148748Y96495D01*
G01X11153748Y101502D01*
G01X11158646Y106595D01*
G01X11163444Y111771D01*
G01X11168140Y117032D01*
G01X11172736Y122376D01*
G01X11177230Y127805D01*
G01X11181624Y133318D01*
G01X11185916Y138915D01*
G01X11190108Y144597D01*
G01X11194199Y150362D01*
G01X11198188Y156212D01*
G01X11202077Y162145D01*
G01X11205864Y168163D01*
G01X11209551Y174266D01*
G01X11213136Y180452D01*
G01X11216621Y186723D01*
G01X11220004Y193077D01*
G01X11223287Y199516D01*
G01X11226469Y206039D01*
G01X11229549Y212646D01*
G01X11232529Y219338D01*
G01X11235407Y226113D01*
G01X11238185Y232973D01*
G01X11240861Y239917D01*
G01X11243437Y246945D01*
G01X11245911Y254057D01*
G01X11248285Y261253D01*
G01X11250557Y268534D01*
G01X11252729Y275899D01*
G01X11254799Y283347D01*
G01X11256769Y290881D01*
G01X11258638Y298498D01*
G01X11260405Y306199D01*
G01X11262072Y313985D01*
G01X11263637Y321854D01*
G01X11265102Y329808D01*
G01X11266465Y337846D01*
G01X11267728Y345969D01*
G01X11268889Y354175D01*
G01X11269950Y362465D01*
G01X11270909Y370840D01*
G01X11271768Y379299D01*
G01X11272525Y387842D01*
G01X11273182Y396469D01*
G01X11273737Y405181D01*
G01X11274192Y413976D01*
G01X11274545Y422856D01*
G01X11274798Y431820D01*
G01X11274949Y440868D01*
G01X11275000Y450000D01*
G01X11216070Y679558D02*
G01X10884337Y1127412D01*
G01X10884337Y5592588D02*
G01X11216070Y6040442D01*
G01X11216070Y6040442D02*
G03X11275000Y6219007I-241070J178564D01*
G01X11275000Y500994D02*
G03X11216070Y679558I-300000J0D01*
G01X11275000Y6219007D02*
G01X11275000Y6222129D01*
G01X11275000Y6226291D01*
G01X11275000Y6229414D01*
G01X11275000Y6232535D01*
G01X11275000Y6235658D01*
G01X11275000Y6238779D01*
G01X11275000Y6241902D01*
G01X11275000Y6246064D01*
G01X11275000Y6250227D01*
G01X11275000Y6257512D01*
G01X11275000Y6260634D01*
G01X11275000Y6270000D01*
G01X11275000Y450000D02*
G01X11275000Y453122D01*
G01X11275000Y456244D01*
G01X11275000Y461448D01*
G01X11275000Y464570D01*
G01X11275000Y467692D01*
G01X11275000Y470814D01*
G01X11275000Y473936D01*
G01X11275000Y477058D01*
G01X11275000Y480180D01*
G01X11275000Y483302D01*
G01X11275000Y486424D01*
G01X11275000Y489546D01*
G01X11275000Y492668D01*
G01X11275000Y495790D01*
G01X11275000Y500994D01*

M02*

