G04 Layer: TopPasteMaskLayer*
G04 EasyEDA Pro v3.2.135, 2026-06-28 16:47:50*
G04 Gerber Generator version 0.3*
G04 Scale: 100 percent, Rotated: No, Reflected: No*
G04 Dimensions in millimeters*
G04 Leading zeros omitted, absolute positions, 4 integers and 5 decimals*
G04 Generated by one-click*
G04 Object Configs: Pad,Via,Track,Text,Image,Dimension,BoardOutline,BoardCutout,CopperFilled,SolidRegion,FPCStiffener,Line,PlaneZone,ComponentProperty,ComponentSilkscreen,TearDrop*
G04 Layer Configs: 1,2,3,4,5,6,7,8,9,10,11,13,14,71,72,56*
G04 Copper Areas: 0*
%FSLAX45Y45*%
%MOMM*%
%ADD10R,0.9X0.8*%
%ADD11R,0.8X0.9*%
%ADD12R,1.0X2.99999*%
%ADD13R,2.0X2.2*%
%ADD14R,0.89992X1.0*%
%ADD15R,2.0X2.0*%
%ADD16R,2.99999X1.2*%
%ADD17R,2.0X3.49999*%
%ADD18R,1.6X0.7*%
%ADD19R,2.2006X1.2*%
%ADD20R,2.2X1.2*%
%ADD21R,1.5X1.6*%
%ADD22R,1.8X1.2*%
%ADD23R,1.07201X0.532*%
%ADD24R,0.3X1.25001*%
%ADD25R,2.0X2.49999*%
%ADD26R,1.1X2.49999*%
%ADD27R,3.59999X2.34*%
%ADD28R,0.9X0.9*%
%ADD29R,1.5X0.9*%
%ADD30R,0.9X1.5*%
%ADD31R,0.65001X1.0*%
%ADD32O,0.60201X1.97099*%
%ADD33R,0.3X1.2*%
%ADD34R,2.2X3.29999*%
%ADD35R,1.0X0.65001*%
%ADD36R,0.48999X0.98501*%
%ADD37O,1.97099X0.60201*%
%ADD38O,0.5684X1.95021*%
%ADD39R,0.762X0.762*%
%ADD40R,2.49999X1.1*%
%ADD41R,2.34X3.59999*%
%ADD42R,0.88001X0.95999*%
%ADD43R,2.04749X2.24099*%
G75*


G04 PolygonModel Start*
G36*
G01X6751758Y4130438D02*
G01X6746757Y4125439D01*
G01X6666757Y4125439D01*
G01X6661759Y4130438D01*
G01X6661759Y4210438D01*
G01X6666757Y4215439D01*
G01X6690961Y4215439D01*
G01X6690961Y4178439D01*
G01X6723961Y4178439D01*
G01X6723961Y4215439D01*
G01X6746757Y4215439D01*
G01X6751758Y4210438D01*
G01X6751758Y4130438D01*
G37*
G36*
G01X6661761Y4369442D02*
G01X6666762Y4374440D01*
G01X6746762Y4374440D01*
G01X6751761Y4369442D01*
G01X6751761Y4289442D01*
G01X6746762Y4284441D01*
G01X6722559Y4284441D01*
G01X6722559Y4321441D01*
G01X6689559Y4321441D01*
G01X6689559Y4284441D01*
G01X6666762Y4284441D01*
G01X6661761Y4289442D01*
G01X6661761Y4369442D01*
G37*
G36*
G01X6598482Y4130438D02*
G01X6593481Y4125439D01*
G01X6513481Y4125439D01*
G01X6508482Y4130438D01*
G01X6508482Y4210438D01*
G01X6513481Y4215439D01*
G01X6537685Y4215439D01*
G01X6537685Y4178439D01*
G01X6570684Y4178439D01*
G01X6570684Y4215439D01*
G01X6593481Y4215439D01*
G01X6598482Y4210438D01*
G01X6598482Y4130438D01*
G37*
G36*
G01X6508485Y4369442D02*
G01X6513486Y4374440D01*
G01X6593486Y4374440D01*
G01X6598485Y4369442D01*
G01X6598485Y4289442D01*
G01X6593486Y4284441D01*
G01X6569282Y4284441D01*
G01X6569282Y4321441D01*
G01X6536283Y4321441D01*
G01X6536283Y4284441D01*
G01X6513486Y4284441D01*
G01X6508485Y4289442D01*
G01X6508485Y4369442D01*
G37*
G36*
G01X2156791Y4096252D02*
G01X2151790Y4091253D01*
G01X2071790Y4091253D01*
G01X2066792Y4096252D01*
G01X2066792Y4176251D01*
G01X2071790Y4181253D01*
G01X2095994Y4181253D01*
G01X2095994Y4144253D01*
G01X2128994Y4144253D01*
G01X2128994Y4181253D01*
G01X2151790Y4181253D01*
G01X2156791Y4176251D01*
G01X2156791Y4096252D01*
G37*
G36*
G01X2066794Y4335255D02*
G01X2071795Y4340254D01*
G01X2151795Y4340254D01*
G01X2156794Y4335255D01*
G01X2156794Y4255256D01*
G01X2151795Y4250254D01*
G01X2127592Y4250254D01*
G01X2127592Y4287255D01*
G01X2094592Y4287255D01*
G01X2094592Y4250254D01*
G01X2071795Y4250254D01*
G01X2066794Y4255256D01*
G01X2066794Y4335255D01*
G37*
G36*
G01X2004391Y4096252D02*
G01X1999390Y4091253D01*
G01X1919390Y4091253D01*
G01X1914392Y4096252D01*
G01X1914392Y4176251D01*
G01X1919390Y4181253D01*
G01X1943594Y4181253D01*
G01X1943594Y4144253D01*
G01X1976594Y4144253D01*
G01X1976594Y4181253D01*
G01X1999390Y4181253D01*
G01X2004391Y4176251D01*
G01X2004391Y4096252D01*
G37*
G36*
G01X1914394Y4335255D02*
G01X1919395Y4340254D01*
G01X1999395Y4340254D01*
G01X2004394Y4335255D01*
G01X2004394Y4255256D01*
G01X1999395Y4250254D01*
G01X1975192Y4250254D01*
G01X1975192Y4287255D01*
G01X1942192Y4287255D01*
G01X1942192Y4250254D01*
G01X1919395Y4250254D01*
G01X1914394Y4255256D01*
G01X1914394Y4335255D01*
G37*
G36*
G01X2372691Y4096252D02*
G01X2367690Y4091253D01*
G01X2287690Y4091253D01*
G01X2282692Y4096252D01*
G01X2282692Y4176251D01*
G01X2287690Y4181253D01*
G01X2311894Y4181253D01*
G01X2311894Y4144253D01*
G01X2344894Y4144253D01*
G01X2344894Y4181253D01*
G01X2367690Y4181253D01*
G01X2372691Y4176251D01*
G01X2372691Y4096252D01*
G37*
G36*
G01X2282694Y4335255D02*
G01X2287695Y4340254D01*
G01X2367695Y4340254D01*
G01X2372694Y4335255D01*
G01X2372694Y4255256D01*
G01X2367695Y4250254D01*
G01X2343492Y4250254D01*
G01X2343492Y4287255D01*
G01X2310492Y4287255D01*
G01X2310492Y4250254D01*
G01X2287695Y4250254D01*
G01X2282694Y4255256D01*
G01X2282694Y4335255D01*
G37*
G36*
G01X3651435Y5961855D02*
G01X3656434Y5956854D01*
G01X3656434Y5876854D01*
G01X3651435Y5871855D01*
G01X3571436Y5871855D01*
G01X3566434Y5876854D01*
G01X3566434Y5901058D01*
G01X3603435Y5901058D01*
G01X3603435Y5934057D01*
G01X3566434Y5934057D01*
G01X3566434Y5956854D01*
G01X3571436Y5961855D01*
G01X3651435Y5961855D01*
G37*
G36*
G01X3412432Y5871858D02*
G01X3407433Y5876859D01*
G01X3407433Y5956859D01*
G01X3412432Y5961858D01*
G01X3492431Y5961858D01*
G01X3497433Y5956859D01*
G01X3497433Y5932655D01*
G01X3460433Y5932655D01*
G01X3460433Y5899655D01*
G01X3497433Y5899655D01*
G01X3497433Y5876859D01*
G01X3492431Y5871858D01*
G01X3412432Y5871858D01*
G37*
G36*
G01X5811398Y4247601D02*
G01X5806399Y4252603D01*
G01X5806399Y4332602D01*
G01X5811398Y4337601D01*
G01X5891398Y4337601D01*
G01X5896399Y4332602D01*
G01X5896399Y4308399D01*
G01X5859399Y4308399D01*
G01X5859399Y4275399D01*
G01X5896399Y4275399D01*
G01X5896399Y4252603D01*
G01X5891398Y4247601D01*
G01X5811398Y4247601D01*
G37*
G36*
G01X6050402Y4337599D02*
G01X6055401Y4332597D01*
G01X6055401Y4252598D01*
G01X6050402Y4247599D01*
G01X5970402Y4247599D01*
G01X5965401Y4252598D01*
G01X5965401Y4276801D01*
G01X6002401Y4276801D01*
G01X6002401Y4309801D01*
G01X5965401Y4309801D01*
G01X5965401Y4332597D01*
G01X5970402Y4337599D01*
G01X6050402Y4337599D01*
G37*
G36*
G01X1708162Y2132465D02*
G01X1713160Y2127464D01*
G01X1713160Y2047464D01*
G01X1708162Y2042466D01*
G01X1628162Y2042466D01*
G01X1623161Y2047464D01*
G01X1623161Y2071668D01*
G01X1660161Y2071668D01*
G01X1660161Y2104668D01*
G01X1623161Y2104668D01*
G01X1623161Y2127464D01*
G01X1628162Y2132465D01*
G01X1708162Y2132465D01*
G37*
G36*
G01X1469158Y2042468D02*
G01X1464159Y2047469D01*
G01X1464159Y2127469D01*
G01X1469158Y2132468D01*
G01X1549158Y2132468D01*
G01X1554159Y2127469D01*
G01X1554159Y2103266D01*
G01X1517159Y2103266D01*
G01X1517159Y2070266D01*
G01X1554159Y2070266D01*
G01X1554159Y2047469D01*
G01X1549158Y2042468D01*
G01X1469158Y2042468D01*
G37*
G36*
G01X1708162Y2284856D02*
G01X1713160Y2279854D01*
G01X1713160Y2199855D01*
G01X1708162Y2194856D01*
G01X1628162Y2194856D01*
G01X1623161Y2199855D01*
G01X1623161Y2224058D01*
G01X1660161Y2224058D01*
G01X1660161Y2257058D01*
G01X1623161Y2257058D01*
G01X1623161Y2279854D01*
G01X1628162Y2284856D01*
G01X1708162Y2284856D01*
G37*
G36*
G01X1469158Y2194858D02*
G01X1464159Y2199860D01*
G01X1464159Y2279860D01*
G01X1469158Y2284858D01*
G01X1549158Y2284858D01*
G01X1554159Y2279860D01*
G01X1554159Y2255656D01*
G01X1517159Y2255656D01*
G01X1517159Y2222656D01*
G01X1554159Y2222656D01*
G01X1554159Y2199860D01*
G01X1549158Y2194858D01*
G01X1469158Y2194858D01*
G37*
G36*
G01X1707002Y2673899D02*
G01X1712001Y2668897D01*
G01X1712001Y2588898D01*
G01X1707002Y2583899D01*
G01X1627002Y2583899D01*
G01X1622001Y2588898D01*
G01X1622001Y2613101D01*
G01X1659001Y2613101D01*
G01X1659001Y2646101D01*
G01X1622001Y2646101D01*
G01X1622001Y2668897D01*
G01X1627002Y2673899D01*
G01X1707002Y2673899D01*
G37*
G36*
G01X1467998Y2583901D02*
G01X1462999Y2588903D01*
G01X1462999Y2668902D01*
G01X1467998Y2673901D01*
G01X1547998Y2673901D01*
G01X1552999Y2668902D01*
G01X1552999Y2644699D01*
G01X1515999Y2644699D01*
G01X1515999Y2611699D01*
G01X1552999Y2611699D01*
G01X1552999Y2588903D01*
G01X1547998Y2583901D01*
G01X1467998Y2583901D01*
G37*
G36*
G01X1708162Y2907156D02*
G01X1713160Y2902154D01*
G01X1713160Y2822155D01*
G01X1708162Y2817156D01*
G01X1628162Y2817156D01*
G01X1623161Y2822155D01*
G01X1623161Y2846358D01*
G01X1660161Y2846358D01*
G01X1660161Y2879358D01*
G01X1623161Y2879358D01*
G01X1623161Y2902154D01*
G01X1628162Y2907156D01*
G01X1708162Y2907156D01*
G37*
G36*
G01X1469158Y2817158D02*
G01X1464159Y2822160D01*
G01X1464159Y2902160D01*
G01X1469158Y2907158D01*
G01X1549158Y2907158D01*
G01X1554159Y2902160D01*
G01X1554159Y2877956D01*
G01X1517159Y2877956D01*
G01X1517159Y2844956D01*
G01X1554159Y2844956D01*
G01X1554159Y2822160D01*
G01X1549158Y2817158D01*
G01X1469158Y2817158D01*
G37*
G36*
G01X4415426Y3004748D02*
G01X4410427Y3009749D01*
G01X4410427Y3089749D01*
G01X4415426Y3094747D01*
G01X4495425Y3094747D01*
G01X4500427Y3089749D01*
G01X4500427Y3065545D01*
G01X4463426Y3065545D01*
G01X4463426Y3032545D01*
G01X4500427Y3032545D01*
G01X4500427Y3009749D01*
G01X4495425Y3004748D01*
G01X4415426Y3004748D01*
G37*
G36*
G01X4654429Y3094745D02*
G01X4659428Y3089744D01*
G01X4659428Y3009744D01*
G01X4654429Y3004745D01*
G01X4574430Y3004745D01*
G01X4569428Y3009744D01*
G01X4569428Y3033947D01*
G01X4606428Y3033947D01*
G01X4606428Y3066947D01*
G01X4569428Y3066947D01*
G01X4569428Y3089744D01*
G01X4574430Y3094745D01*
G01X4654429Y3094745D01*
G37*
G36*
G01X4771026Y3004748D02*
G01X4766027Y3009749D01*
G01X4766027Y3089749D01*
G01X4771026Y3094747D01*
G01X4851025Y3094747D01*
G01X4856027Y3089749D01*
G01X4856027Y3065545D01*
G01X4819026Y3065545D01*
G01X4819026Y3032545D01*
G01X4856027Y3032545D01*
G01X4856027Y3009749D01*
G01X4851025Y3004748D01*
G01X4771026Y3004748D01*
G37*
G36*
G01X5010029Y3094745D02*
G01X5015028Y3089744D01*
G01X5015028Y3009744D01*
G01X5010029Y3004745D01*
G01X4930030Y3004745D01*
G01X4925028Y3009744D01*
G01X4925028Y3033947D01*
G01X4962028Y3033947D01*
G01X4962028Y3066947D01*
G01X4925028Y3066947D01*
G01X4925028Y3089744D01*
G01X4930030Y3094745D01*
G01X5010029Y3094745D01*
G37*
G36*
G01X3790401Y2862702D02*
G01X3795403Y2867701D01*
G01X3875402Y2867701D01*
G01X3880401Y2862702D01*
G01X3880401Y2782702D01*
G01X3875402Y2777701D01*
G01X3851199Y2777701D01*
G01X3851199Y2814701D01*
G01X3818199Y2814701D01*
G01X3818199Y2777701D01*
G01X3795403Y2777701D01*
G01X3790401Y2782702D01*
G01X3790401Y2862702D01*
G37*
G36*
G01X3880399Y2623698D02*
G01X3875397Y2618699D01*
G01X3795398Y2618699D01*
G01X3790399Y2623698D01*
G01X3790399Y2703698D01*
G01X3795398Y2708699D01*
G01X3819601Y2708699D01*
G01X3819601Y2671699D01*
G01X3852601Y2671699D01*
G01X3852601Y2708699D01*
G01X3875397Y2708699D01*
G01X3880399Y2703698D01*
G01X3880399Y2623698D01*
G37*
G36*
G01X9405498Y704301D02*
G01X9400499Y709303D01*
G01X9400499Y789302D01*
G01X9405498Y794301D01*
G01X9485498Y794301D01*
G01X9490499Y789302D01*
G01X9490499Y765099D01*
G01X9453499Y765099D01*
G01X9453499Y732099D01*
G01X9490499Y732099D01*
G01X9490499Y709303D01*
G01X9485498Y704301D01*
G01X9405498Y704301D01*
G37*
G36*
G01X9644502Y794299D02*
G01X9649501Y789297D01*
G01X9649501Y709298D01*
G01X9644502Y704299D01*
G01X9564502Y704299D01*
G01X9559501Y709298D01*
G01X9559501Y733501D01*
G01X9596501Y733501D01*
G01X9596501Y766501D01*
G01X9559501Y766501D01*
G01X9559501Y789297D01*
G01X9564502Y794299D01*
G01X9644502Y794299D01*
G37*
G36*
G01X8643498Y5936701D02*
G01X8638499Y5941703D01*
G01X8638499Y6021702D01*
G01X8643498Y6026701D01*
G01X8723498Y6026701D01*
G01X8728499Y6021702D01*
G01X8728499Y5997499D01*
G01X8691499Y5997499D01*
G01X8691499Y5964499D01*
G01X8728499Y5964499D01*
G01X8728499Y5941703D01*
G01X8723498Y5936701D01*
G01X8643498Y5936701D01*
G37*
G36*
G01X8882502Y6026699D02*
G01X8887501Y6021697D01*
G01X8887501Y5941698D01*
G01X8882502Y5936699D01*
G01X8802502Y5936699D01*
G01X8797501Y5941698D01*
G01X8797501Y5965901D01*
G01X8834501Y5965901D01*
G01X8834501Y5998901D01*
G01X8797501Y5998901D01*
G01X8797501Y6021697D01*
G01X8802502Y6026699D01*
G01X8882502Y6026699D01*
G37*
G36*
G01X9989698Y4539701D02*
G01X9984699Y4544703D01*
G01X9984699Y4624702D01*
G01X9989698Y4629701D01*
G01X10069698Y4629701D01*
G01X10074699Y4624702D01*
G01X10074699Y4600499D01*
G01X10037699Y4600499D01*
G01X10037699Y4567499D01*
G01X10074699Y4567499D01*
G01X10074699Y4544703D01*
G01X10069698Y4539701D01*
G01X9989698Y4539701D01*
G37*
G36*
G01X10228702Y4629699D02*
G01X10233701Y4624697D01*
G01X10233701Y4544698D01*
G01X10228702Y4539699D01*
G01X10148702Y4539699D01*
G01X10143701Y4544698D01*
G01X10143701Y4568901D01*
G01X10180701Y4568901D01*
G01X10180701Y4601901D01*
G01X10143701Y4601901D01*
G01X10143701Y4624697D01*
G01X10148702Y4629699D01*
G01X10228702Y4629699D01*
G37*
G36*
G01X8630199Y4617598D02*
G01X8625197Y4612599D01*
G01X8545198Y4612599D01*
G01X8540199Y4617598D01*
G01X8540199Y4697598D01*
G01X8545198Y4702599D01*
G01X8569401Y4702599D01*
G01X8569401Y4665599D01*
G01X8602401Y4665599D01*
G01X8602401Y4702599D01*
G01X8625197Y4702599D01*
G01X8630199Y4697598D01*
G01X8630199Y4617598D01*
G37*
G36*
G01X8540201Y4856602D02*
G01X8545203Y4861601D01*
G01X8625202Y4861601D01*
G01X8630201Y4856602D01*
G01X8630201Y4776602D01*
G01X8625202Y4771601D01*
G01X8600999Y4771601D01*
G01X8600999Y4808601D01*
G01X8567999Y4808601D01*
G01X8567999Y4771601D01*
G01X8545203Y4771601D01*
G01X8540201Y4776602D01*
G01X8540201Y4856602D01*
G37*
G36*
G01X9351164Y1315263D02*
G01X9346165Y1320264D01*
G01X9346165Y1400264D01*
G01X9351164Y1405263D01*
G01X9431164Y1405263D01*
G01X9436165Y1400264D01*
G01X9436165Y1376060D01*
G01X9399165Y1376060D01*
G01X9399165Y1343061D01*
G01X9436165Y1343061D01*
G01X9436165Y1320264D01*
G01X9431164Y1315263D01*
G01X9351164Y1315263D01*
G37*
G36*
G01X9590168Y1405260D02*
G01X9595166Y1400259D01*
G01X9595166Y1320259D01*
G01X9590168Y1315260D01*
G01X9510168Y1315260D01*
G01X9505166Y1320259D01*
G01X9505166Y1344463D01*
G01X9542167Y1344463D01*
G01X9542167Y1377462D01*
G01X9505166Y1377462D01*
G01X9505166Y1400259D01*
G01X9510168Y1405260D01*
G01X9590168Y1405260D01*
G37*
G36*
G01X8433697Y1151715D02*
G01X8438695Y1146713D01*
G01X8438695Y1066714D01*
G01X8433697Y1061715D01*
G01X8353697Y1061715D01*
G01X8348696Y1066714D01*
G01X8348696Y1090917D01*
G01X8385696Y1090917D01*
G01X8385696Y1123917D01*
G01X8348696Y1123917D01*
G01X8348696Y1146713D01*
G01X8353697Y1151715D01*
G01X8433697Y1151715D01*
G37*
G36*
G01X8194693Y1061717D02*
G01X8189694Y1066719D01*
G01X8189694Y1146719D01*
G01X8194693Y1151717D01*
G01X8274693Y1151717D01*
G01X8279694Y1146719D01*
G01X8279694Y1122515D01*
G01X8242694Y1122515D01*
G01X8242694Y1089515D01*
G01X8279694Y1089515D01*
G01X8279694Y1066719D01*
G01X8274693Y1061717D01*
G01X8194693Y1061717D01*
G37*
G36*
G01X8438002Y1340399D02*
G01X8443001Y1335397D01*
G01X8443001Y1255398D01*
G01X8438002Y1250399D01*
G01X8358002Y1250399D01*
G01X8353001Y1255398D01*
G01X8353001Y1279601D01*
G01X8390001Y1279601D01*
G01X8390001Y1312601D01*
G01X8353001Y1312601D01*
G01X8353001Y1335397D01*
G01X8358002Y1340399D01*
G01X8438002Y1340399D01*
G37*
G36*
G01X8198998Y1250401D02*
G01X8193999Y1255403D01*
G01X8193999Y1335402D01*
G01X8198998Y1340401D01*
G01X8278998Y1340401D01*
G01X8283999Y1335402D01*
G01X8283999Y1311199D01*
G01X8246999Y1311199D01*
G01X8246999Y1278199D01*
G01X8283999Y1278199D01*
G01X8283999Y1255403D01*
G01X8278998Y1250401D01*
G01X8198998Y1250401D01*
G37*
G36*
G01X10216462Y1213399D02*
G01X10221460Y1208397D01*
G01X10221460Y1128398D01*
G01X10216462Y1123399D01*
G01X10136462Y1123399D01*
G01X10131461Y1128398D01*
G01X10131461Y1152601D01*
G01X10168461Y1152601D01*
G01X10168461Y1185601D01*
G01X10131461Y1185601D01*
G01X10131461Y1208397D01*
G01X10136462Y1213399D01*
G01X10216462Y1213399D01*
G37*
G36*
G01X9977458Y1123401D02*
G01X9972459Y1128403D01*
G01X9972459Y1208402D01*
G01X9977458Y1213401D01*
G01X10057458Y1213401D01*
G01X10062459Y1208402D01*
G01X10062459Y1184199D01*
G01X10025459Y1184199D01*
G01X10025459Y1151199D01*
G01X10062459Y1151199D01*
G01X10062459Y1128403D01*
G01X10057458Y1123401D01*
G01X9977458Y1123401D01*
G37*
G36*
G01X6548917Y5384487D02*
G01X6553919Y5389486D01*
G01X6633918Y5389486D01*
G01X6638917Y5384487D01*
G01X6638917Y5304487D01*
G01X6633918Y5299486D01*
G01X6609715Y5299486D01*
G01X6609715Y5336486D01*
G01X6576715Y5336486D01*
G01X6576715Y5299486D01*
G01X6553919Y5299486D01*
G01X6548917Y5304487D01*
G01X6548917Y5384487D01*
G37*
G36*
G01X6638915Y5145483D02*
G01X6633913Y5140484D01*
G01X6553913Y5140484D01*
G01X6548915Y5145483D01*
G01X6548915Y5225483D01*
G01X6553913Y5230484D01*
G01X6578117Y5230484D01*
G01X6578117Y5193484D01*
G01X6611117Y5193484D01*
G01X6611117Y5230484D01*
G01X6633913Y5230484D01*
G01X6638915Y5225483D01*
G01X6638915Y5145483D01*
G37*
G36*
G01X6396517Y5384487D02*
G01X6401519Y5389486D01*
G01X6481518Y5389486D01*
G01X6486517Y5384487D01*
G01X6486517Y5304487D01*
G01X6481518Y5299486D01*
G01X6457315Y5299486D01*
G01X6457315Y5336486D01*
G01X6424315Y5336486D01*
G01X6424315Y5299486D01*
G01X6401519Y5299486D01*
G01X6396517Y5304487D01*
G01X6396517Y5384487D01*
G37*
G36*
G01X6486515Y5145483D02*
G01X6481513Y5140484D01*
G01X6401513Y5140484D01*
G01X6396515Y5145483D01*
G01X6396515Y5225483D01*
G01X6401513Y5230484D01*
G01X6425717Y5230484D01*
G01X6425717Y5193484D01*
G01X6458717Y5193484D01*
G01X6458717Y5230484D01*
G01X6481513Y5230484D01*
G01X6486515Y5225483D01*
G01X6486515Y5145483D01*
G37*
G36*
G01X6231417Y5384487D02*
G01X6236419Y5389486D01*
G01X6316418Y5389486D01*
G01X6321417Y5384487D01*
G01X6321417Y5304487D01*
G01X6316418Y5299486D01*
G01X6292215Y5299486D01*
G01X6292215Y5336486D01*
G01X6259215Y5336486D01*
G01X6259215Y5299486D01*
G01X6236419Y5299486D01*
G01X6231417Y5304487D01*
G01X6231417Y5384487D01*
G37*
G36*
G01X6321415Y5145483D02*
G01X6316413Y5140484D01*
G01X6236413Y5140484D01*
G01X6231415Y5145483D01*
G01X6231415Y5225483D01*
G01X6236413Y5230484D01*
G01X6260617Y5230484D01*
G01X6260617Y5193484D01*
G01X6293617Y5193484D01*
G01X6293617Y5230484D01*
G01X6316413Y5230484D01*
G01X6321415Y5225483D01*
G01X6321415Y5145483D01*
G37*
G36*
G01X2979298Y6038301D02*
G01X2974299Y6043303D01*
G01X2974299Y6123302D01*
G01X2979298Y6128301D01*
G01X3059298Y6128301D01*
G01X3064299Y6123302D01*
G01X3064299Y6099099D01*
G01X3027299Y6099099D01*
G01X3027299Y6066099D01*
G01X3064299Y6066099D01*
G01X3064299Y6043303D01*
G01X3059298Y6038301D01*
G01X2979298Y6038301D01*
G37*
G36*
G01X3218302Y6128299D02*
G01X3223301Y6123297D01*
G01X3223301Y6043298D01*
G01X3218302Y6038299D01*
G01X3138302Y6038299D01*
G01X3133301Y6043298D01*
G01X3133301Y6067501D01*
G01X3170301Y6067501D01*
G01X3170301Y6100501D01*
G01X3133301Y6100501D01*
G01X3133301Y6123297D01*
G01X3138302Y6128299D01*
G01X3218302Y6128299D01*
G37*
G36*
G01X1412362Y6140999D02*
G01X1417361Y6135997D01*
G01X1417361Y6055998D01*
G01X1412362Y6050999D01*
G01X1332362Y6050999D01*
G01X1327361Y6055998D01*
G01X1327361Y6080201D01*
G01X1364361Y6080201D01*
G01X1364361Y6113201D01*
G01X1327361Y6113201D01*
G01X1327361Y6135997D01*
G01X1332362Y6140999D01*
G01X1412362Y6140999D01*
G37*
G36*
G01X1173358Y6051001D02*
G01X1168359Y6056003D01*
G01X1168359Y6136002D01*
G01X1173358Y6141001D01*
G01X1253358Y6141001D01*
G01X1258359Y6136002D01*
G01X1258359Y6111799D01*
G01X1221359Y6111799D01*
G01X1221359Y6078799D01*
G01X1258359Y6078799D01*
G01X1258359Y6056003D01*
G01X1253358Y6051001D01*
G01X1173358Y6051001D01*
G37*
G36*
G01X2407798Y5263601D02*
G01X2402799Y5268603D01*
G01X2402799Y5348602D01*
G01X2407798Y5353601D01*
G01X2487798Y5353601D01*
G01X2492799Y5348602D01*
G01X2492799Y5324399D01*
G01X2455799Y5324399D01*
G01X2455799Y5291399D01*
G01X2492799Y5291399D01*
G01X2492799Y5268603D01*
G01X2487798Y5263601D01*
G01X2407798Y5263601D01*
G37*
G36*
G01X2646802Y5353599D02*
G01X2651801Y5348597D01*
G01X2651801Y5268598D01*
G01X2646802Y5263599D01*
G01X2566802Y5263599D01*
G01X2561801Y5268598D01*
G01X2561801Y5292801D01*
G01X2598801Y5292801D01*
G01X2598801Y5325801D01*
G01X2561801Y5325801D01*
G01X2561801Y5348597D01*
G01X2566802Y5353599D01*
G01X2646802Y5353599D01*
G37*
G36*
G01X4893164Y2548840D02*
G01X4743165Y2548840D01*
G01X4743165Y2606239D01*
G01X4893164Y2606239D01*
G01X4893164Y2548840D01*
G37*
G36*
G01X4893164Y2848840D02*
G01X4743165Y2848840D01*
G01X4743165Y2906239D01*
G01X4893164Y2906239D01*
G01X4893164Y2848840D01*
G37*
G36*
G01X4553665Y2548840D02*
G01X4403666Y2548840D01*
G01X4403666Y2606239D01*
G01X4553665Y2606239D01*
G01X4553665Y2548840D01*
G37*
G36*
G01X4553665Y2848840D02*
G01X4403666Y2848840D01*
G01X4403666Y2906239D01*
G01X4553665Y2906239D01*
G01X4553665Y2848840D01*
G37*
G36*
G01X4394415Y2727527D02*
G02X4482416Y2815528I88001J0D01*
G01X4604414Y2815528D01*
G01X4624414Y2815528D01*
G02X4684414Y2755528I-24517J-84517D01*
G01X4893416Y2755528D01*
G01X4893416Y2699526D01*
G01X4684414Y2699526D01*
G02X4624414Y2639526I-84517J24517D01*
G01X4607414Y2639526D01*
G01X4477414Y2639526D01*
G02X4394415Y2722525I4867J87866D01*
G01X4394415Y2727527D01*
G37*
G36*
G01X5811398Y4400001D02*
G01X5806399Y4405003D01*
G01X5806399Y4485002D01*
G01X5811398Y4490001D01*
G01X5891398Y4490001D01*
G01X5896399Y4485002D01*
G01X5896399Y4460799D01*
G01X5859399Y4460799D01*
G01X5859399Y4427799D01*
G01X5896399Y4427799D01*
G01X5896399Y4405003D01*
G01X5891398Y4400001D01*
G01X5811398Y4400001D01*
G37*
G36*
G01X6050402Y4489999D02*
G01X6055401Y4484997D01*
G01X6055401Y4404998D01*
G01X6050402Y4399999D01*
G01X5970402Y4399999D01*
G01X5965401Y4404998D01*
G01X5965401Y4429201D01*
G01X6002401Y4429201D01*
G01X6002401Y4462201D01*
G01X5965401Y4462201D01*
G01X5965401Y4484997D01*
G01X5970402Y4489999D01*
G01X6050402Y4489999D01*
G37*
G36*
G01X5811398Y4552401D02*
G01X5806399Y4557403D01*
G01X5806399Y4637402D01*
G01X5811398Y4642401D01*
G01X5891398Y4642401D01*
G01X5896399Y4637402D01*
G01X5896399Y4613199D01*
G01X5859399Y4613199D01*
G01X5859399Y4580199D01*
G01X5896399Y4580199D01*
G01X5896399Y4557403D01*
G01X5891398Y4552401D01*
G01X5811398Y4552401D01*
G37*
G36*
G01X6050402Y4642399D02*
G01X6055401Y4637397D01*
G01X6055401Y4557398D01*
G01X6050402Y4552399D01*
G01X5970402Y4552399D01*
G01X5965401Y4557398D01*
G01X5965401Y4581601D01*
G01X6002401Y4581601D01*
G01X6002401Y4614601D01*
G01X5965401Y4614601D01*
G01X5965401Y4637397D01*
G01X5970402Y4642399D01*
G01X6050402Y4642399D01*
G37*
G36*
G01X6844862Y4220872D02*
G01X6872513Y4220872D01*
G01X6901888Y4193453D01*
G01X6901888Y4143125D01*
G01X6895487Y4136724D01*
G01X6821888Y4136724D01*
G01X6815487Y4143125D01*
G01X6815487Y4193453D01*
G01X6844862Y4220872D01*
G37*
G36*
G01X6843737Y4272436D02*
G01X6814362Y4299856D01*
G01X6814362Y4350183D01*
G01X6820763Y4356584D01*
G01X6894362Y4356584D01*
G01X6900762Y4350183D01*
G01X6900762Y4299856D01*
G01X6871387Y4272436D01*
G01X6843737Y4272436D01*
G37*
G36*
G01X10053696Y2045007D02*
G01X10053696Y2015005D01*
G01X9943696Y2015005D01*
G01X9943696Y2045007D01*
G01X10053696Y2045007D01*
G37*
G36*
G01X9943696Y2065017D02*
G01X9943696Y2095020D01*
G01X10053696Y2095020D01*
G01X10053696Y2065017D01*
G01X9943696Y2065017D01*
G37*
G36*
G01X9943696Y1554998D02*
G01X9943696Y1614998D01*
G01X10053696Y1614998D01*
G01X10053696Y1554998D01*
G01X9943696Y1554998D01*
G37*
G36*
G01X10053696Y1994995D02*
G01X10053696Y1964992D01*
G01X9943696Y1964992D01*
G01X9943696Y1994995D01*
G01X10053696Y1994995D01*
G37*
G36*
G01X9943696Y2115017D02*
G01X9943696Y2175017D01*
G01X10053696Y2175017D01*
G01X10053696Y2115017D01*
G01X9943696Y2115017D01*
G37*
G36*
G01X10053696Y2255002D02*
G01X10053696Y2195002D01*
G01X9943696Y2195002D01*
G01X9943696Y2255002D01*
G01X10053696Y2255002D01*
G37*
G36*
G01X10053696Y1945008D02*
G01X10053696Y1915005D01*
G01X9943696Y1915005D01*
G01X9943696Y1945008D01*
G01X10053696Y1945008D01*
G37*
G36*
G01X10053696Y1894995D02*
G01X10053696Y1864992D01*
G01X9943696Y1864992D01*
G01X9943696Y1894995D01*
G01X10053696Y1894995D01*
G37*
G36*
G01X9943696Y1635008D02*
G01X9943696Y1695008D01*
G01X10053696Y1695008D01*
G01X10053696Y1635008D01*
G01X9943696Y1635008D01*
G37*
G36*
G01X10053696Y1845008D02*
G01X10053696Y1815005D01*
G01X9943696Y1815005D01*
G01X9943696Y1845008D01*
G01X10053696Y1845008D01*
G37*
G36*
G01X10053696Y1795021D02*
G01X10053696Y1765018D01*
G01X9943696Y1765018D01*
G01X9943696Y1795021D01*
G01X10053696Y1795021D01*
G37*
G36*
G01X10053696Y1745008D02*
G01X10053696Y1715005D01*
G01X9943696Y1715005D01*
G01X9943696Y1745008D01*
G01X10053696Y1745008D01*
G37*
G36*
G01X9953856Y2341982D02*
G01X9954153Y2344958D01*
G01X9954600Y2347918D01*
G01X9955192Y2350849D01*
G01X9955931Y2353749D01*
G01X9956813Y2356607D01*
G01X9957836Y2359419D01*
G01X9958997Y2362175D01*
G01X9960295Y2364872D01*
G01X9961728Y2367498D01*
G01X9963287Y2370051D01*
G01X9964971Y2372523D01*
G01X9966780Y2374908D01*
G01X9968702Y2377199D01*
G01X9970737Y2379393D01*
G01X9972878Y2381481D01*
G01X9975121Y2383462D01*
G01X9977460Y2385327D01*
G01X9979889Y2387072D01*
G01X9982403Y2388695D01*
G01X9984994Y2390191D01*
G01X9987656Y2391557D01*
G01X9990381Y2392787D01*
G01X9993168Y2393879D01*
G01X9996002Y2394834D01*
G01X9998883Y2395644D01*
G01X10001799Y2396310D01*
G01X10004745Y2396828D01*
G01X10007714Y2397201D01*
G01X10010699Y2397425D01*
G01X10013688Y2397498D01*
G01X10093688Y2397498D01*
G01X10096678Y2397425D01*
G01X10099662Y2397201D01*
G01X10102632Y2396828D01*
G01X10105578Y2396310D01*
G01X10108494Y2395644D01*
G01X10111374Y2394834D01*
G01X10114209Y2393879D01*
G01X10116995Y2392787D01*
G01X10119721Y2391557D01*
G01X10122383Y2390191D01*
G01X10124973Y2388695D01*
G01X10127488Y2387072D01*
G01X10129916Y2385327D01*
G01X10132256Y2383462D01*
G01X10134498Y2381481D01*
G01X10136640Y2379393D01*
G01X10138674Y2377199D01*
G01X10140597Y2374908D01*
G01X10142405Y2372523D01*
G01X10144089Y2370051D01*
G01X10145649Y2367498D01*
G01X10147082Y2364872D01*
G01X10148380Y2362175D01*
G01X10149540Y2359419D01*
G01X10150564Y2356607D01*
G01X10151445Y2353749D01*
G01X10152184Y2350849D01*
G01X10152776Y2347918D01*
G01X10153223Y2344958D01*
G01X10153520Y2341982D01*
G01X10153670Y2338995D01*
G01X10153670Y2336002D01*
G01X10153520Y2333015D01*
G01X10153223Y2330039D01*
G01X10152776Y2327079D01*
G01X10152184Y2324148D01*
G01X10151445Y2321248D01*
G01X10150564Y2318390D01*
G01X10149540Y2315578D01*
G01X10148380Y2312822D01*
G01X10147082Y2310125D01*
G01X10145649Y2307499D01*
G01X10144089Y2304946D01*
G01X10142405Y2302474D01*
G01X10140597Y2300089D01*
G01X10138674Y2297798D01*
G01X10136640Y2295604D01*
G01X10134498Y2293516D01*
G01X10132256Y2291535D01*
G01X10129916Y2289670D01*
G01X10127488Y2287925D01*
G01X10124973Y2286302D01*
G01X10122383Y2284806D01*
G01X10119721Y2283440D01*
G01X10116995Y2282210D01*
G01X10114209Y2281118D01*
G01X10111374Y2280163D01*
G01X10108494Y2279353D01*
G01X10105578Y2278687D01*
G01X10102632Y2278169D01*
G01X10099662Y2277796D01*
G01X10096678Y2277572D01*
G01X10093688Y2277499D01*
G01X10013688Y2277499D01*
G01X10010699Y2277572D01*
G01X10007714Y2277796D01*
G01X10004745Y2278169D01*
G01X10001799Y2278687D01*
G01X9998883Y2279353D01*
G01X9996002Y2280163D01*
G01X9993168Y2281118D01*
G01X9990381Y2282210D01*
G01X9987656Y2283440D01*
G01X9984994Y2284806D01*
G01X9982403Y2286302D01*
G01X9979889Y2287925D01*
G01X9977460Y2289670D01*
G01X9975121Y2291535D01*
G01X9972878Y2293516D01*
G01X9970737Y2295604D01*
G01X9968702Y2297798D01*
G01X9966780Y2300089D01*
G01X9964971Y2302474D01*
G01X9963287Y2304946D01*
G01X9961728Y2307499D01*
G01X9960295Y2310125D01*
G01X9958997Y2312822D01*
G01X9957836Y2315578D01*
G01X9956813Y2318390D01*
G01X9955931Y2321248D01*
G01X9955192Y2324148D01*
G01X9954600Y2327079D01*
G01X9954153Y2330039D01*
G01X9953856Y2333015D01*
G01X9953706Y2336002D01*
G01X9953706Y2338995D01*
G01X9953856Y2341982D01*
G37*
G36*
G01X9953706Y1471005D02*
G01X9953706Y1473998D01*
G01X9953856Y1476985D01*
G01X9954153Y1479961D01*
G01X9954600Y1482921D01*
G01X9955192Y1485852D01*
G01X9955931Y1488752D01*
G01X9956813Y1491610D01*
G01X9957836Y1494422D01*
G01X9958997Y1497178D01*
G01X9960295Y1499875D01*
G01X9961728Y1502501D01*
G01X9963287Y1505054D01*
G01X9964971Y1507526D01*
G01X9966780Y1509911D01*
G01X9968702Y1512202D01*
G01X9970737Y1514396D01*
G01X9972878Y1516484D01*
G01X9975121Y1518465D01*
G01X9977460Y1520330D01*
G01X9979889Y1522075D01*
G01X9982403Y1523698D01*
G01X9984994Y1525194D01*
G01X9987656Y1526560D01*
G01X9990381Y1527790D01*
G01X9993168Y1528882D01*
G01X9996002Y1529837D01*
G01X9998883Y1530647D01*
G01X10001799Y1531313D01*
G01X10004745Y1531831D01*
G01X10007714Y1532204D01*
G01X10010699Y1532428D01*
G01X10013688Y1532501D01*
G01X10093688Y1532501D01*
G01X10096678Y1532428D01*
G01X10099662Y1532204D01*
G01X10102632Y1531831D01*
G01X10105578Y1531313D01*
G01X10108494Y1530647D01*
G01X10111374Y1529837D01*
G01X10114209Y1528882D01*
G01X10116995Y1527790D01*
G01X10119721Y1526560D01*
G01X10122383Y1525194D01*
G01X10124973Y1523698D01*
G01X10127488Y1522075D01*
G01X10129916Y1520330D01*
G01X10132256Y1518465D01*
G01X10134498Y1516484D01*
G01X10136640Y1514396D01*
G01X10138674Y1512202D01*
G01X10140597Y1509911D01*
G01X10142405Y1507526D01*
G01X10144089Y1505054D01*
G01X10145649Y1502501D01*
G01X10147082Y1499875D01*
G01X10148380Y1497178D01*
G01X10149540Y1494422D01*
G01X10150564Y1491610D01*
G01X10151445Y1488752D01*
G01X10152184Y1485852D01*
G01X10152776Y1482921D01*
G01X10153223Y1479961D01*
G01X10153520Y1476985D01*
G01X10153670Y1473998D01*
G01X10153670Y1471005D01*
G01X10153520Y1468018D01*
G01X10153223Y1465042D01*
G01X10152776Y1462082D01*
G01X10152184Y1459151D01*
G01X10151445Y1456251D01*
G01X10150564Y1453393D01*
G01X10149540Y1450581D01*
G01X10148380Y1447825D01*
G01X10147082Y1445128D01*
G01X10145649Y1442502D01*
G01X10144089Y1439949D01*
G01X10142405Y1437477D01*
G01X10140597Y1435092D01*
G01X10138674Y1432801D01*
G01X10136640Y1430607D01*
G01X10134498Y1428519D01*
G01X10132256Y1426538D01*
G01X10129916Y1424673D01*
G01X10127488Y1422928D01*
G01X10124973Y1421305D01*
G01X10122383Y1419809D01*
G01X10119721Y1418443D01*
G01X10116995Y1417213D01*
G01X10114209Y1416121D01*
G01X10111374Y1415166D01*
G01X10108494Y1414356D01*
G01X10105578Y1413690D01*
G01X10102632Y1413172D01*
G01X10099662Y1412799D01*
G01X10096678Y1412575D01*
G01X10093688Y1412502D01*
G01X10013688Y1412502D01*
G01X10010699Y1412575D01*
G01X10007714Y1412799D01*
G01X10004745Y1413172D01*
G01X10001799Y1413690D01*
G01X9998883Y1414356D01*
G01X9996002Y1415166D01*
G01X9993168Y1416121D01*
G01X9990381Y1417213D01*
G01X9987656Y1418443D01*
G01X9984994Y1419809D01*
G01X9982403Y1421305D01*
G01X9979889Y1422928D01*
G01X9977460Y1424673D01*
G01X9975121Y1426538D01*
G01X9972878Y1428519D01*
G01X9970737Y1430607D01*
G01X9968702Y1432801D01*
G01X9966780Y1435092D01*
G01X9964971Y1437477D01*
G01X9963287Y1439949D01*
G01X9961728Y1442502D01*
G01X9960295Y1445128D01*
G01X9958997Y1447825D01*
G01X9957836Y1450581D01*
G01X9956813Y1453393D01*
G01X9955931Y1456251D01*
G01X9955192Y1459151D01*
G01X9954600Y1462082D01*
G01X9954153Y1465042D01*
G01X9953856Y1468018D01*
G01X9953706Y1471005D01*
G37*
G36*
G01X10398872Y1476985D02*
G01X10399169Y1479961D01*
G01X10399616Y1482921D01*
G01X10400208Y1485852D01*
G01X10400947Y1488752D01*
G01X10401828Y1491610D01*
G01X10402852Y1494422D01*
G01X10404013Y1497178D01*
G01X10405311Y1499875D01*
G01X10406743Y1502501D01*
G01X10408303Y1505054D01*
G01X10409987Y1507526D01*
G01X10411795Y1509911D01*
G01X10413718Y1512202D01*
G01X10415753Y1514396D01*
G01X10417894Y1516484D01*
G01X10420137Y1518465D01*
G01X10422476Y1520330D01*
G01X10424904Y1522075D01*
G01X10427419Y1523698D01*
G01X10430010Y1525194D01*
G01X10432672Y1526560D01*
G01X10435397Y1527790D01*
G01X10438183Y1528882D01*
G01X10441018Y1529837D01*
G01X10443898Y1530647D01*
G01X10446814Y1531313D01*
G01X10449761Y1531831D01*
G01X10452730Y1532204D01*
G01X10455714Y1532428D01*
G01X10458704Y1532501D01*
G01X10488704Y1532501D01*
G01X10491694Y1532428D01*
G01X10494678Y1532204D01*
G01X10497647Y1531831D01*
G01X10500594Y1531313D01*
G01X10503510Y1530647D01*
G01X10506390Y1529837D01*
G01X10509225Y1528882D01*
G01X10512011Y1527790D01*
G01X10514736Y1526560D01*
G01X10517398Y1525194D01*
G01X10519989Y1523698D01*
G01X10522504Y1522075D01*
G01X10524932Y1520330D01*
G01X10527271Y1518465D01*
G01X10529514Y1516484D01*
G01X10531655Y1514396D01*
G01X10533690Y1512202D01*
G01X10535613Y1509911D01*
G01X10537421Y1507526D01*
G01X10539105Y1505054D01*
G01X10540665Y1502501D01*
G01X10542097Y1499875D01*
G01X10543395Y1497178D01*
G01X10544556Y1494422D01*
G01X10545580Y1491610D01*
G01X10546461Y1488752D01*
G01X10547200Y1485852D01*
G01X10547792Y1482921D01*
G01X10548239Y1479961D01*
G01X10548536Y1476985D01*
G01X10548686Y1473998D01*
G01X10548686Y1471005D01*
G01X10548536Y1468018D01*
G01X10548239Y1465042D01*
G01X10547792Y1462082D01*
G01X10547200Y1459151D01*
G01X10546461Y1456251D01*
G01X10545580Y1453393D01*
G01X10544556Y1450581D01*
G01X10543395Y1447825D01*
G01X10542097Y1445128D01*
G01X10540665Y1442502D01*
G01X10539105Y1439949D01*
G01X10537421Y1437477D01*
G01X10535613Y1435092D01*
G01X10533690Y1432801D01*
G01X10531655Y1430607D01*
G01X10529514Y1428519D01*
G01X10527271Y1426538D01*
G01X10524932Y1424673D01*
G01X10522504Y1422928D01*
G01X10519989Y1421305D01*
G01X10517398Y1419809D01*
G01X10514736Y1418443D01*
G01X10512011Y1417213D01*
G01X10509225Y1416121D01*
G01X10506390Y1415166D01*
G01X10503510Y1414356D01*
G01X10500594Y1413690D01*
G01X10497647Y1413172D01*
G01X10494678Y1412799D01*
G01X10491694Y1412575D01*
G01X10488704Y1412502D01*
G01X10458704Y1412502D01*
G01X10455714Y1412575D01*
G01X10452730Y1412799D01*
G01X10449761Y1413172D01*
G01X10446814Y1413690D01*
G01X10443898Y1414356D01*
G01X10441018Y1415166D01*
G01X10438183Y1416121D01*
G01X10435397Y1417213D01*
G01X10432672Y1418443D01*
G01X10430010Y1419809D01*
G01X10427419Y1421305D01*
G01X10424904Y1422928D01*
G01X10422476Y1424673D01*
G01X10420137Y1426538D01*
G01X10417894Y1428519D01*
G01X10415753Y1430607D01*
G01X10413718Y1432801D01*
G01X10411795Y1435092D01*
G01X10409987Y1437477D01*
G01X10408303Y1439949D01*
G01X10406743Y1442502D01*
G01X10405311Y1445128D01*
G01X10404013Y1447825D01*
G01X10402852Y1450581D01*
G01X10401828Y1453393D01*
G01X10400947Y1456251D01*
G01X10400208Y1459151D01*
G01X10399616Y1462082D01*
G01X10399169Y1465042D01*
G01X10398872Y1468018D01*
G01X10398722Y1471005D01*
G01X10398722Y1473998D01*
G01X10398872Y1476985D01*
G37*
G36*
G01X10398722Y2336002D02*
G01X10398722Y2338995D01*
G01X10398872Y2341982D01*
G01X10399169Y2344958D01*
G01X10399616Y2347918D01*
G01X10400208Y2350849D01*
G01X10400947Y2353749D01*
G01X10401828Y2356607D01*
G01X10402852Y2359419D01*
G01X10404013Y2362175D01*
G01X10405311Y2364872D01*
G01X10406743Y2367498D01*
G01X10408303Y2370051D01*
G01X10409987Y2372523D01*
G01X10411795Y2374908D01*
G01X10413718Y2377199D01*
G01X10415753Y2379393D01*
G01X10417894Y2381481D01*
G01X10420137Y2383462D01*
G01X10422476Y2385327D01*
G01X10424904Y2387072D01*
G01X10427419Y2388695D01*
G01X10430010Y2390191D01*
G01X10432672Y2391557D01*
G01X10435397Y2392787D01*
G01X10438183Y2393879D01*
G01X10441018Y2394834D01*
G01X10443898Y2395644D01*
G01X10446814Y2396310D01*
G01X10449761Y2396828D01*
G01X10452730Y2397201D01*
G01X10455714Y2397425D01*
G01X10458704Y2397498D01*
G01X10488704Y2397498D01*
G01X10491694Y2397425D01*
G01X10494678Y2397201D01*
G01X10497647Y2396828D01*
G01X10500594Y2396310D01*
G01X10503510Y2395644D01*
G01X10506390Y2394834D01*
G01X10509225Y2393879D01*
G01X10512011Y2392787D01*
G01X10514736Y2391557D01*
G01X10517398Y2390191D01*
G01X10519989Y2388695D01*
G01X10522504Y2387072D01*
G01X10524932Y2385327D01*
G01X10527271Y2383462D01*
G01X10529514Y2381481D01*
G01X10531655Y2379393D01*
G01X10533690Y2377199D01*
G01X10535613Y2374908D01*
G01X10537421Y2372523D01*
G01X10539105Y2370051D01*
G01X10540665Y2367498D01*
G01X10542097Y2364872D01*
G01X10543395Y2362175D01*
G01X10544556Y2359419D01*
G01X10545580Y2356607D01*
G01X10546461Y2353749D01*
G01X10547200Y2350849D01*
G01X10547792Y2347918D01*
G01X10548239Y2344958D01*
G01X10548536Y2341982D01*
G01X10548686Y2338995D01*
G01X10548686Y2336002D01*
G01X10548536Y2333015D01*
G01X10548239Y2330039D01*
G01X10547792Y2327079D01*
G01X10547200Y2324148D01*
G01X10546461Y2321248D01*
G01X10545580Y2318390D01*
G01X10544556Y2315578D01*
G01X10543395Y2312822D01*
G01X10542097Y2310125D01*
G01X10540665Y2307499D01*
G01X10539105Y2304946D01*
G01X10537421Y2302474D01*
G01X10535613Y2300089D01*
G01X10533690Y2297798D01*
G01X10531655Y2295604D01*
G01X10529514Y2293516D01*
G01X10527271Y2291535D01*
G01X10524932Y2289670D01*
G01X10522504Y2287925D01*
G01X10519989Y2286302D01*
G01X10517398Y2284806D01*
G01X10514736Y2283440D01*
G01X10512011Y2282210D01*
G01X10509225Y2281118D01*
G01X10506390Y2280163D01*
G01X10503510Y2279353D01*
G01X10500594Y2278687D01*
G01X10497647Y2278169D01*
G01X10494678Y2277796D01*
G01X10491694Y2277572D01*
G01X10488704Y2277499D01*
G01X10458704Y2277499D01*
G01X10455714Y2277572D01*
G01X10452730Y2277796D01*
G01X10449761Y2278169D01*
G01X10446814Y2278687D01*
G01X10443898Y2279353D01*
G01X10441018Y2280163D01*
G01X10438183Y2281118D01*
G01X10435397Y2282210D01*
G01X10432672Y2283440D01*
G01X10430010Y2284806D01*
G01X10427419Y2286302D01*
G01X10424904Y2287925D01*
G01X10422476Y2289670D01*
G01X10420137Y2291535D01*
G01X10417894Y2293516D01*
G01X10415753Y2295604D01*
G01X10413718Y2297798D01*
G01X10411795Y2300089D01*
G01X10409987Y2302474D01*
G01X10408303Y2304946D01*
G01X10406743Y2307499D01*
G01X10405311Y2310125D01*
G01X10404013Y2312822D01*
G01X10402852Y2315578D01*
G01X10401828Y2318390D01*
G01X10400947Y2321248D01*
G01X10400208Y2324148D01*
G01X10399616Y2327079D01*
G01X10399169Y2330039D01*
G01X10398872Y2333015D01*
G01X10398722Y2336002D01*
G37*

G04 Pad Start*
G54D10*
G01X7036960Y4176455D03*
G01X7036960Y4316459D03*
G54D11*
G01X3614636Y5751756D03*
G01X3474631Y5751756D03*
G01X3156957Y3573357D03*
G01X3296962Y3573357D03*
G01X3156957Y3763857D03*
G01X3296962Y3763857D03*
G01X2923582Y3763849D03*
G01X2783577Y3763849D03*
G01X2923582Y3573349D03*
G01X2783577Y3573349D03*
G54D12*
G01X5537200Y3124799D03*
G01X5537200Y2564801D03*
G54D10*
G01X5537200Y2165198D03*
G01X5537200Y2305202D03*
G54D11*
G01X10039198Y4762500D03*
G01X10179202Y4762500D03*
G54D12*
G01X10223500Y5728299D03*
G01X10223500Y5168301D03*
G54D10*
G01X8161141Y5984833D03*
G01X8161141Y5844828D03*
G01X8416730Y5840456D03*
G01X8416730Y5980461D03*
G54D11*
G01X8238630Y865416D03*
G01X8378635Y865416D03*
G01X9535095Y1548754D03*
G01X9395090Y1548754D03*
G01X1353996Y4632206D03*
G01X1213991Y4632206D03*
G54D10*
G01X6994346Y6376082D03*
G01X6994346Y6516087D03*
G01X7190816Y6376082D03*
G01X7190816Y6516087D03*
G54D11*
G01X7182002Y5334000D03*
G01X7041998Y5334000D03*
G54D10*
G01X6759016Y6376082D03*
G01X6759016Y6516087D03*
G01X6543116Y6516077D03*
G01X6543116Y6376072D03*
G54D11*
G01X1657502Y2463800D03*
G01X1517498Y2463800D03*
G01X7677302Y5638800D03*
G01X7537298Y5638800D03*
G01X3168802Y6248400D03*
G01X3028798Y6248400D03*
G01X1222858Y6261100D03*
G01X1362862Y6261100D03*
G54D13*
G01X5014632Y1690846D03*
G01X4334623Y1690846D03*
G01X9306204Y5397500D03*
G01X8626196Y5397500D03*
G54D14*
G01X9017502Y5979998D03*
G01X9187502Y5979998D03*
G01X10376402Y4582998D03*
G01X10546402Y4582998D03*
G54D15*
G01X4455041Y2289648D03*
G01X4875042Y2289648D03*
G01X9474200Y4400100D03*
G01X9474200Y4820100D03*
G01X9664700Y5810700D03*
G01X9664700Y5390700D03*
G54D16*
G01X857098Y4633423D03*
G01X857098Y4383436D03*
G01X857098Y4183437D03*
G01X854558Y3933424D03*
G54D17*
G01X619558Y3517880D03*
G01X622098Y5042871D03*
G01X9551Y3517880D03*
G01X12091Y5043417D03*
G54D18*
G01X1266596Y1975007D03*
G01X1266596Y2084989D03*
G01X1266596Y2635000D03*
G01X1266596Y2194996D03*
G01X1266596Y2415011D03*
G01X1266596Y2854990D03*
G01X1266596Y2305004D03*
G01X1266596Y2524993D03*
G54D20*
G01X206604Y1425021D03*
G01X206604Y2974979D03*
G54D21*
G01X1161593Y1489994D03*
G54D22*
G01X1136599Y2974979D03*
G54D18*
G01X1266596Y2745008D03*
G54D23*
G01X1232584Y4371602D03*
G01X1232584Y4276606D03*
G01X1232584Y4181610D03*
G01X1462403Y4181610D03*
G01X1462403Y4276606D03*
G01X1462403Y4371602D03*
G54D24*
G01X2024966Y3928710D03*
G01X2074954Y3928710D03*
G01X2124966Y3928710D03*
G01X2174953Y3928710D03*
G01X2224966Y3928710D03*
G01X2274953Y3928710D03*
G54D25*
G01X1855955Y3671204D03*
G01X2443965Y3671204D03*
G54D26*
G01X2686948Y4020447D03*
G01X2916945Y4020447D03*
G01X3146942Y4020447D03*
G54D27*
G01X2916945Y4614439D03*
G54D28*
G01X4613783Y5473573D03*
G01X4473804Y5473573D03*
G01X4753788Y5473573D03*
G01X4753788Y5613578D03*
G01X4613783Y5613578D03*
G01X4473804Y5613578D03*
G01X4473804Y5333594D03*
G01X4613783Y5333568D03*
G01X4753788Y5333594D03*
G54D29*
G01X5624805Y6007608D03*
G01X5624805Y5880608D03*
G01X5624805Y5753608D03*
G01X5624805Y5626608D03*
G01X5624805Y5499608D03*
G01X5624805Y5372608D03*
G01X5624805Y5245608D03*
G01X5624805Y5118608D03*
G01X5624805Y4991608D03*
G01X5624805Y4864608D03*
G01X5624805Y4737608D03*
G01X5624805Y4610608D03*
G01X5624805Y4483608D03*
G01X5624805Y4356608D03*
G54D30*
G01X5448300Y4231589D03*
G01X5321300Y4228592D03*
G01X5194300Y4228592D03*
G01X5067300Y4228592D03*
G01X4940300Y4228592D03*
G01X4813300Y4228592D03*
G01X4686300Y4228592D03*
G01X4559300Y4228592D03*
G01X4432300Y4228592D03*
G01X4305300Y4228592D03*
G01X4178300Y4228592D03*
G01X4051300Y4228592D03*
G54D29*
G01X3874795Y4356608D03*
G01X3874795Y4483608D03*
G01X3874795Y4610608D03*
G01X3874795Y4737608D03*
G01X3874795Y4864608D03*
G01X3874795Y4991608D03*
G01X3874795Y5118608D03*
G01X3874795Y5245608D03*
G01X3874795Y5372608D03*
G01X3874795Y5499608D03*
G01X3874795Y5626608D03*
G01X3874795Y5753608D03*
G01X3874795Y5880608D03*
G01X3874795Y6007608D03*
G54D31*
G01X4014541Y2663937D03*
G01X4204533Y2663937D03*
G01X4109537Y2863936D03*
G54D32*
G01X7181069Y6147402D03*
G01X7054069Y6147402D03*
G01X6927069Y6147402D03*
G01X6800069Y6147402D03*
G01X6673069Y6147402D03*
G01X6546069Y6147402D03*
G01X6419069Y6147402D03*
G01X6292069Y6147402D03*
G01X7181069Y5600286D03*
G01X7054069Y5600286D03*
G01X6927069Y5600286D03*
G01X6800069Y5600286D03*
G01X6673069Y5600286D03*
G01X6546069Y5600286D03*
G01X6419069Y5600286D03*
G01X6292069Y5600286D03*
G54D33*
G01X6512754Y3931210D03*
G01X6562665Y3931210D03*
G01X6612576Y3931210D03*
G01X6662614Y3931210D03*
G01X6712652Y3931210D03*
G01X6762690Y3931210D03*
G01X6812728Y3931210D03*
G01X6862766Y3931210D03*
G01X6912550Y3931210D03*
G01X6962588Y3931210D03*
G01X7012626Y3931210D03*
G01X7062664Y3931210D03*
G01X7112702Y3931210D03*
G01X7162740Y3931210D03*
G01X7212651Y3931210D03*
G01X7262562Y3931210D03*
G01X7312600Y3931210D03*
G01X7362638Y3931210D03*
G01X7412676Y3931210D03*
G01X7462714Y3931210D03*
G01X7512752Y3931210D03*
G01X7562663Y3931210D03*
G01X7612574Y3931210D03*
G01X7662612Y3931210D03*
G01X7712650Y3931210D03*
G01X7762688Y3931210D03*
G01X7812726Y3931210D03*
G01X7862764Y3931210D03*
G01X7912548Y3931210D03*
G01X7962586Y3931210D03*
G01X8012624Y3931210D03*
G01X8062662Y3931210D03*
G01X8112700Y3931210D03*
G01X8162738Y3931210D03*
G01X8212649Y3931210D03*
G01X8262560Y3931210D03*
G01X8312598Y3931210D03*
G01X8362636Y3931210D03*
G01X8412674Y3931210D03*
G01X8462712Y3931210D03*
G54D34*
G01X6352861Y3667635D03*
G01X8622859Y3667635D03*
G54D35*
G01X8004152Y759915D03*
G01X8004152Y949907D03*
G01X7804153Y854911D03*
G01X8004152Y1090115D03*
G01X8004152Y1280107D03*
G01X7804153Y1185111D03*
G54D36*
G01X7975600Y6068060D03*
G01X7975600Y5844540D03*
G54D37*
G01X9168311Y893011D03*
G01X9168311Y1020011D03*
G01X9168311Y1147011D03*
G01X9168311Y1274011D03*
G01X9168311Y1401011D03*
G01X9168311Y1528011D03*
G01X9168311Y1655011D03*
G01X9168311Y1782011D03*
G01X8621195Y893011D03*
G01X8621195Y1020011D03*
G01X8621195Y1147011D03*
G01X8621195Y1274011D03*
G01X8621195Y1401011D03*
G01X8621195Y1528011D03*
G01X8621195Y1655011D03*
G01X8621195Y1782011D03*
G54D38*
G01X9017000Y4817110D03*
G01X8890000Y4817110D03*
G01X8763000Y4817110D03*
G01X9144000Y4817110D03*
G01X9144000Y4276090D03*
G01X9017000Y4276090D03*
G01X8890000Y4276090D03*
G01X8763000Y4276090D03*
G54D39*
G01X10344610Y1168400D03*
G01X10484310Y1168400D03*
G54D40*
G01X8272595Y5104003D03*
G01X8272595Y5334000D03*
G01X8272595Y5563997D03*
G54D41*
G01X7678603Y5334000D03*
G54D16*
G01X9698126Y3007224D03*
G01X9698126Y3257211D03*
G01X9698126Y3457211D03*
G01X9700666Y3707223D03*
G54D17*
G01X9935667Y4122767D03*
G01X9933127Y2597776D03*
G01X10545674Y4122767D03*
G01X10543134Y2597230D03*
G54D42*
G01X9351289Y1168400D03*
G01X9673311Y1168400D03*
G01X9686011Y952500D03*
G01X9363989Y952500D03*
G54D43*
G01X8986469Y3949700D03*
G01X9504731Y3949700D03*
G04 Pad End*

M02*

