G04 Layer: TopSolderMaskLayer*
G04 EasyEDA Pro v3.2.135, 2026-06-28 16:47:50*
G04 Gerber Generator version 0.3*
G04 Scale: 100 percent, Rotated: No, Reflected: No*
G04 Dimensions in millimeters*
G04 Leading zeros omitted, absolute positions, 4 integers and 5 decimals*
G04 Generated by one-click*
G04 Object Configs: Pad,Via,Track,Text,Image,Dimension,BoardOutline,BoardCutout,CopperFilled,SolidRegion,FPCStiffener,Line,PlaneZone,ComponentProperty,ComponentSilkscreen,TearDrop*
G04 Layer Configs: 1,2,3,4,5,6,7,8,9,10,11,13,14,71,72,56*
G04 Copper Areas: 0*
%FSLAX45Y45*%
%MOMM*%
%AMRoundRect*1,1,$1,$2,$3*1,1,$1,$4,$5*1,1,$1,0-$2,0-$3*1,1,$1,0-$4,0-$5*20,1,$1,$2,$3,$4,$5,0*20,1,$1,$4,$5,0-$2,0-$3,0*20,1,$1,0-$2,0-$3,0-$4,0-$5,0*20,1,$1,0-$4,0-$5,$2,$3,0*4,1,4,$2,$3,$4,$5,0-$2,0-$3,0-$4,0-$5,$2,$3,0*%
%ADD10RoundRect,0.1016X-0.45X-0.4X-0.45X0.4*%
%ADD11RoundRect,0.1016X-0.432X-0.40324X-0.432X0.40324*%
%ADD12RoundRect,0.1016X-0.4X0.45X0.4X0.45*%
%ADD13RoundRect,0.1016X-0.5X-1.5X-0.5X1.5*%
%ADD14RoundRect,0.1016X-1.0X-1.1X-1.0X1.1*%
%ADD15RoundRect,0.1016X-0.40324X0.432X0.40324X0.432*%
%ADD16RoundRect,0.1016X-0.44996X0.5X0.44996X0.5*%
%ADD17RoundRect,0.1016X-1.0X-1.0X-1.0X1.0*%
%ADD18RoundRect,0.1016X-1.0X1.0X1.0X1.0*%
%ADD19RoundRect,0.1026X-1.5X-0.6X-1.5X0.6*%
%ADD20RoundRect,0.1016X-1.5X-0.6X-1.5X0.6*%
%ADD21RoundRect,0.1016X-1.0X-1.75X-1.0X1.75*%
%ADD22RoundRect,0.1016X-0.8X-0.35X-0.8X0.35*%
%ADD23RoundRect,0.1016X-1.1X-0.6X-1.1X0.6*%
%ADD24RoundRect,0.1016X-0.75X-0.8X-0.75X0.8*%
%ADD25RoundRect,0.1016X-0.9X-0.6X-0.9X0.6*%
%ADD26RoundRect,0.1016X-0.536X-0.266X-0.536X0.266*%
%ADD27RoundRect,0.10003X-0.15X0.62501X0.15X0.62501*%
%ADD28RoundRect,0.10003X-1.0X1.25X1.0X1.25*%
%ADD29RoundRect,0.1016X-0.55X-1.25X-0.55X1.25*%
%ADD30RoundRect,0.1016X-1.8X-1.17X-1.8X1.17*%
%ADD31RoundRect,0.1016X-0.45X-0.45X-0.45X0.45*%
%ADD32RoundRect,0.10003X-0.75X0.45X0.75X0.45*%
%ADD33RoundRect,0.10003X-0.45X-0.75X-0.45X0.75*%
%ADD34RoundRect,0.1016X-0.32501X-0.5X-0.32501X0.5*%
%ADD35RoundRect,0.1016X-0.75X0.28699X0.75X0.28699*%
%ADD36RoundRect,0.1016X-1.10475X0.276X1.10475X0.276*%
%ADD37O,3.0416X1.86159*%
%ADD38O,0.70361X2.07259*%
%ADD39RoundRect,0.1016X-0.15X0.6X0.15X0.6*%
%ADD40RoundRect,0.1016X-1.1X1.65X1.1X1.65*%
%ADD41RoundRect,0.1016X-0.432X-0.4X-0.432X0.4*%
%ADD42RoundRect,0.1016X-0.5X0.32501X0.5X0.32501*%
%ADD43RoundRect,0.1016X-0.245X-0.49251X-0.245X0.49251*%
%ADD44O,2.07259X0.70361*%
%ADD45O,0.67X2.05181*%
%ADD46RoundRect,0.10003X-0.55X-0.27501X-0.55X0.27501*%
%ADD47RoundRect,0.10003X-0.55X-0.15X-0.55X0.15*%
%ADD48O,2.10002X1.20002*%
%ADD49O,1.90002X1.30002*%
%ADD50RoundRect,0.1016X-0.381X-0.381X-0.381X0.381*%
%ADD51RoundRect,0.1016X-0.85X0.85X0.85X0.85*%
%ADD52C,1.8016*%
%ADD53C,2.1016*%
%ADD54O,2.80159X3.50159*%
%ADD55C,3.4036*%
%ADD56RoundRect,0.1016X-1.25X0.55X1.25X0.55*%
%ADD57RoundRect,0.1016X-1.17X1.8X1.17X1.8*%
%ADD58RoundRect,0.1016X-0.44X0.48X0.44X0.48*%
%ADD59RoundRect,0.1016X-1.02375X1.1205X1.02375X1.1205*%
G75*


G04 Pad Start*
G54D10*
G01X7036960Y4176455D03*
G01X7036960Y4316459D03*
G54D11*
G01X6706760Y4174603D03*
G01X6706760Y4325276D03*
G01X6553483Y4174603D03*
G01X6553483Y4325276D03*
G54D12*
G01X3614636Y5751756D03*
G01X3474631Y5751756D03*
G01X3156957Y3573357D03*
G01X3296962Y3573357D03*
G01X3156957Y3763857D03*
G01X3296962Y3763857D03*
G01X2923582Y3763849D03*
G01X2783577Y3763849D03*
G01X2923582Y3573349D03*
G01X2783577Y3573349D03*
G54D13*
G01X5537200Y3124799D03*
G01X5537200Y2564801D03*
G54D10*
G01X5537200Y2165198D03*
G01X5537200Y2305202D03*
G54D12*
G01X10039198Y4762500D03*
G01X10179202Y4762500D03*
G54D13*
G01X10223500Y5728299D03*
G01X10223500Y5168301D03*
G54D10*
G01X8161141Y5984833D03*
G01X8161141Y5844828D03*
G01X8416730Y5840456D03*
G01X8416730Y5980461D03*
G54D12*
G01X8238630Y865416D03*
G01X8378635Y865416D03*
G01X9535095Y1548754D03*
G01X9395090Y1548754D03*
G01X1353996Y4632206D03*
G01X1213991Y4632206D03*
G54D10*
G01X6994346Y6376082D03*
G01X6994346Y6516087D03*
G01X7190816Y6376082D03*
G01X7190816Y6516087D03*
G54D12*
G01X7182002Y5334000D03*
G01X7041998Y5334000D03*
G54D10*
G01X6759016Y6376082D03*
G01X6759016Y6516087D03*
G01X6543116Y6516077D03*
G01X6543116Y6376072D03*
G54D12*
G01X1657502Y2463800D03*
G01X1517498Y2463800D03*
G01X7677302Y5638800D03*
G01X7537298Y5638800D03*
G01X3168802Y6248400D03*
G01X3028798Y6248400D03*
G01X1222858Y6261100D03*
G01X1362862Y6261100D03*
G54D14*
G01X5014632Y1690846D03*
G01X4334623Y1690846D03*
G01X9306204Y5397500D03*
G01X8626196Y5397500D03*
G54D11*
G01X2111793Y4140417D03*
G01X2111793Y4291090D03*
G01X1959393Y4140417D03*
G01X1959393Y4291090D03*
G01X2327693Y4140417D03*
G01X2327693Y4291090D03*
G54D15*
G01X3607270Y5916856D03*
G01X3456597Y5916856D03*
G01X5855564Y4292600D03*
G01X6006236Y4292600D03*
G01X1663996Y2087467D03*
G01X1513323Y2087467D03*
G01X1663996Y2239857D03*
G01X1513323Y2239857D03*
G01X1662836Y2628900D03*
G01X1512164Y2628900D03*
G01X1663996Y2862157D03*
G01X1513323Y2862157D03*
G01X4459591Y3049746D03*
G01X4610264Y3049746D03*
G01X4815191Y3049746D03*
G01X4965864Y3049746D03*
G54D11*
G01X3835400Y2818536D03*
G01X3835400Y2667864D03*
G54D15*
G01X9449664Y749300D03*
G01X9600336Y749300D03*
G01X8687664Y5981700D03*
G01X8838336Y5981700D03*
G01X10033864Y4584700D03*
G01X10184536Y4584700D03*
G54D11*
G01X8585200Y4661764D03*
G01X8585200Y4812436D03*
G54D15*
G01X9395329Y1360261D03*
G01X9546002Y1360261D03*
G01X8389531Y1106716D03*
G01X8238858Y1106716D03*
G01X8393836Y1295400D03*
G01X8243164Y1295400D03*
G01X10172296Y1168400D03*
G01X10021623Y1168400D03*
G54D11*
G01X6593916Y5340321D03*
G01X6593916Y5189648D03*
G01X6441516Y5340321D03*
G01X6441516Y5189648D03*
G01X6276416Y5340321D03*
G01X6276416Y5189648D03*
G54D15*
G01X3023464Y6083300D03*
G01X3174136Y6083300D03*
G01X1368196Y6096000D03*
G01X1217524Y6096000D03*
G01X2451964Y5308600D03*
G01X2602636Y5308600D03*
G54D16*
G01X9017502Y5979998D03*
G01X9187502Y5979998D03*
G01X10376402Y4582998D03*
G01X10546402Y4582998D03*
G54D17*
G01X4455041Y2289648D03*
G01X4875042Y2289648D03*
G54D18*
G01X9474200Y4400100D03*
G01X9474200Y4820100D03*
G01X9664700Y5810700D03*
G01X9664700Y5390700D03*
G54D20*
G01X857098Y4633423D03*
G01X857098Y4383436D03*
G01X857098Y4183437D03*
G01X854558Y3933424D03*
G54D21*
G01X619558Y3517880D03*
G01X622098Y5042871D03*
G01X9551Y3517880D03*
G01X12091Y5043417D03*
G54D22*
G01X1266596Y1975007D03*
G01X1266596Y2084989D03*
G01X1266596Y2635000D03*
G01X1266596Y2194996D03*
G01X1266596Y2415011D03*
G01X1266596Y2854990D03*
G01X1266596Y2305004D03*
G01X1266596Y2524993D03*
G54D23*
G01X206604Y1425021D03*
G01X206604Y2974979D03*
G54D24*
G01X1161593Y1489994D03*
G54D25*
G01X1136599Y2974979D03*
G54D22*
G01X1266596Y2745008D03*
G54D26*
G01X1232584Y4371602D03*
G01X1232584Y4276606D03*
G01X1232584Y4181610D03*
G01X1462403Y4181610D03*
G01X1462403Y4276606D03*
G01X1462403Y4371602D03*
G54D27*
G01X2024966Y3928710D03*
G01X2074954Y3928710D03*
G01X2124966Y3928710D03*
G01X2174953Y3928710D03*
G01X2224966Y3928710D03*
G01X2274953Y3928710D03*
G54D28*
G01X1855955Y3671204D03*
G01X2443965Y3671204D03*
G54D29*
G01X2686948Y4020447D03*
G01X2916945Y4020447D03*
G01X3146942Y4020447D03*
G54D30*
G01X2916945Y4614439D03*
G54D31*
G01X4613783Y5473573D03*
G01X4473804Y5473573D03*
G01X4753788Y5473573D03*
G01X4753788Y5613578D03*
G01X4613783Y5613578D03*
G01X4473804Y5613578D03*
G01X4473804Y5333594D03*
G01X4613783Y5333568D03*
G01X4753788Y5333594D03*
G54D32*
G01X5624805Y6007608D03*
G01X5624805Y5880608D03*
G01X5624805Y5753608D03*
G01X5624805Y5626608D03*
G01X5624805Y5499608D03*
G01X5624805Y5372608D03*
G01X5624805Y5245608D03*
G01X5624805Y5118608D03*
G01X5624805Y4991608D03*
G01X5624805Y4864608D03*
G01X5624805Y4737608D03*
G01X5624805Y4610608D03*
G01X5624805Y4483608D03*
G01X5624805Y4356608D03*
G54D33*
G01X5448300Y4231589D03*
G01X5321300Y4228592D03*
G01X5194300Y4228592D03*
G01X5067300Y4228592D03*
G01X4940300Y4228592D03*
G01X4813300Y4228592D03*
G01X4686300Y4228592D03*
G01X4559300Y4228592D03*
G01X4432300Y4228592D03*
G01X4305300Y4228592D03*
G01X4178300Y4228592D03*
G01X4051300Y4228592D03*
G54D32*
G01X3874795Y4356608D03*
G01X3874795Y4483608D03*
G01X3874795Y4610608D03*
G01X3874795Y4737608D03*
G01X3874795Y4864608D03*
G01X3874795Y4991608D03*
G01X3874795Y5118608D03*
G01X3874795Y5245608D03*
G01X3874795Y5372608D03*
G01X3874795Y5499608D03*
G01X3874795Y5626608D03*
G01X3874795Y5753608D03*
G01X3874795Y5880608D03*
G01X3874795Y6007608D03*
G54D34*
G01X4014541Y2663937D03*
G01X4204533Y2663937D03*
G01X4109537Y2863936D03*
G54D35*
G01X4818163Y2577527D03*
G54D36*
G01X4782679Y2727539D03*
G54D35*
G01X4818163Y2877526D03*
G54D37*
G01X4541659Y2727539D03*
G54D35*
G01X4478667Y2877526D03*
G01X4478667Y2577527D03*
G54D15*
G01X5855564Y4445000D03*
G01X6006236Y4445000D03*
G01X5855564Y4597400D03*
G01X6006236Y4597400D03*
G54D38*
G01X7181069Y6147402D03*
G01X7054069Y6147402D03*
G01X6927069Y6147402D03*
G01X6800069Y6147402D03*
G01X6673069Y6147402D03*
G01X6546069Y6147402D03*
G01X6419069Y6147402D03*
G01X6292069Y6147402D03*
G01X7181069Y5600286D03*
G01X7054069Y5600286D03*
G01X6927069Y5600286D03*
G01X6800069Y5600286D03*
G01X6673069Y5600286D03*
G01X6546069Y5600286D03*
G01X6419069Y5600286D03*
G01X6292069Y5600286D03*
G54D39*
G01X6512754Y3931210D03*
G01X6562665Y3931210D03*
G01X6612576Y3931210D03*
G01X6662614Y3931210D03*
G01X6712652Y3931210D03*
G01X6762690Y3931210D03*
G01X6812728Y3931210D03*
G01X6862766Y3931210D03*
G01X6912550Y3931210D03*
G01X6962588Y3931210D03*
G01X7012626Y3931210D03*
G01X7062664Y3931210D03*
G01X7112702Y3931210D03*
G01X7162740Y3931210D03*
G01X7212651Y3931210D03*
G01X7262562Y3931210D03*
G01X7312600Y3931210D03*
G01X7362638Y3931210D03*
G01X7412676Y3931210D03*
G01X7462714Y3931210D03*
G01X7512752Y3931210D03*
G01X7562663Y3931210D03*
G01X7612574Y3931210D03*
G01X7662612Y3931210D03*
G01X7712650Y3931210D03*
G01X7762688Y3931210D03*
G01X7812726Y3931210D03*
G01X7862764Y3931210D03*
G01X7912548Y3931210D03*
G01X7962586Y3931210D03*
G01X8012624Y3931210D03*
G01X8062662Y3931210D03*
G01X8112700Y3931210D03*
G01X8162738Y3931210D03*
G01X8212649Y3931210D03*
G01X8262560Y3931210D03*
G01X8312598Y3931210D03*
G01X8362636Y3931210D03*
G01X8412674Y3931210D03*
G01X8462712Y3931210D03*
G54D40*
G01X6352861Y3667635D03*
G01X8622859Y3667635D03*
G54D41*
G01X6859160Y4176043D03*
G01X6859160Y4316023D03*
G54D42*
G01X8004152Y759915D03*
G01X8004152Y949907D03*
G01X7804153Y854911D03*
G01X8004152Y1090115D03*
G01X8004152Y1280107D03*
G01X7804153Y1185111D03*
G54D43*
G01X7975600Y6068060D03*
G01X7975600Y5844540D03*
G54D44*
G01X9168311Y893011D03*
G01X9168311Y1020011D03*
G01X9168311Y1147011D03*
G01X9168311Y1274011D03*
G01X9168311Y1401011D03*
G01X9168311Y1528011D03*
G01X9168311Y1655011D03*
G01X9168311Y1782011D03*
G01X8621195Y893011D03*
G01X8621195Y1020011D03*
G01X8621195Y1147011D03*
G01X8621195Y1274011D03*
G01X8621195Y1401011D03*
G01X8621195Y1528011D03*
G01X8621195Y1655011D03*
G01X8621195Y1782011D03*
G54D45*
G01X9017000Y4817110D03*
G01X8890000Y4817110D03*
G01X8763000Y4817110D03*
G01X9144000Y4817110D03*
G01X9144000Y4276090D03*
G01X9017000Y4276090D03*
G01X8890000Y4276090D03*
G01X8763000Y4276090D03*
G54D46*
G01X9998697Y1584998D03*
G01X9998697Y1665008D03*
G54D47*
G01X9998697Y1730007D03*
G01X9998697Y1780019D03*
G01X9998697Y1830007D03*
G01X9998697Y1879994D03*
G01X9998697Y1930006D03*
G01X9998697Y1979994D03*
G01X9998697Y2030006D03*
G01X9998697Y2080019D03*
G54D46*
G01X9998697Y2145017D03*
G01X9998697Y2225002D03*
G54D48*
G01X10053688Y1472502D03*
G01X10053688Y2337499D03*
G54D49*
G01X10473703Y1472502D03*
G01X10473703Y2337499D03*
G54D50*
G01X10344610Y1168400D03*
G01X10484310Y1168400D03*
G54D51*
G01X7759700Y6451600D03*
G54D52*
G01X8013700Y6451600D03*
G01X8267700Y6451600D03*
G01X8521700Y6451600D03*
G01X8775700Y6451600D03*
G01X9029700Y6451600D03*
G54D53*
G01X2200025Y5825006D03*
G01X1950013Y5825006D03*
G01X2450012Y5825006D03*
G54D54*
G01X1659996Y5699987D03*
G01X2740004Y5699987D03*
G54D53*
G01X2450012Y5574994D03*
G01X1950013Y5574994D03*
G54D55*
G01X10903780Y6247977D03*
G01X-354440Y6247977D03*
G01X-354440Y474557D03*
G01X10903780Y474557D03*
G54D56*
G01X8272595Y5104003D03*
G01X8272595Y5334000D03*
G01X8272595Y5563997D03*
G54D57*
G01X7678603Y5334000D03*
G54D20*
G01X9698126Y3007224D03*
G01X9698126Y3257211D03*
G01X9698126Y3457211D03*
G01X9700666Y3707223D03*
G54D21*
G01X9935667Y4122767D03*
G01X9933127Y2597776D03*
G01X10545674Y4122767D03*
G01X10543134Y2597230D03*
G54D58*
G01X9351289Y1168400D03*
G01X9673311Y1168400D03*
G01X9686011Y952500D03*
G01X9363989Y952500D03*
G54D59*
G01X8986469Y3949700D03*
G01X9504731Y3949700D03*
G04 Pad End*

M02*

