;TYPE=PLATED
;Layer: PTH_Through_Via
;EasyEDA Pro Client v2.2.32.3, 2026-03-24 17:24:51
;Gerber Generator version 0.3
M48
METRIC,LZ,000.00000
;Hole size 1 = 0.30000 METRIC
T01C0.30000
%
G05
G90
T01
X51.10585Y28.10136
X51.15685Y38.9645
X51.56874Y39.59759
X51.56485Y38.32761
X51.10585Y28.79049
X50.44284Y28.28048
X51.76886Y28.28048
X108.9406Y55.53972
X111.79663Y92.9232
X30.42508Y58.85476
X39.9367Y60.53778
X48.60682Y70.83992
X126.79083Y88.69015
X126.84183Y87.16013
X125.92382Y81.19305
X125.87282Y79.15302
X127.14783Y78.54102
X126.89283Y81.04005
X126.07682Y74.40996
X126.07682Y72.21693
X108.9406Y69.71785
X124.8018Y81.10991
X121.79276Y81.10991
X124.9038Y74.22482
X121.84376Y74.20596
X121.99677Y89.32102
X125.15881Y89.32102
X123.11878Y28.10738
X128.62685Y26.52034
X128.72885Y61.5578
X140.255Y60.02778
X110.82762Y53.19369
X112.71465Y57.93675
X105.77856Y36.31247
X113.32665Y36.51647
X106.44157Y37.07748
X107.98033Y35.41217
X107.15557Y42.02454
X107.15557Y37.99549
X102.56551Y40.42447
X106.33956Y40.39252
X110.31762Y46.5126
X148.41511Y86.49712
X108.63459Y46.2576
X132.96191Y72.06393
X133.72692Y22.00579
X121.38476Y25.75533
X134.69593Y26.72435
X136.83796Y24.58232
X96.34343Y12.77817
X101.0865Y12.77817
X106.64557Y31.2124
X135.25694Y70.02391
X146.47708Y64.41383
X145.35507Y45.95159
X141.98903Y43.74257
X141.12201Y69.3099
X141.07101Y67.62688
X140.96901Y41.56554
X145.30407Y54.4177
X145.81407Y65.48485
X150.94803Y69.7179
X150.94803Y68.39189
X133.01291Y57.57975
X133.98192Y57.63075
X100.27049Y71.14592
X79.76822Y78.13301
X134.69593Y66.24986
X133.67592Y67.32087
X100.88249Y72.06393
X78.3912Y81.49905
X129.54486Y64.46483
X133.21691Y68.13688
X119.29373Y48.80763
X117.50871Y50.64366
X107.25758Y53.9077
X121.99677Y90.83218
X93.07939Y93.53521
X137.44997Y64.71984
X127.30084Y62.27181
X122.86378Y63.03682
X82.26725Y14.33119
X123.22078Y64.97484
X129.69787Y70.43191
X73.34214Y16.06521
X110.43129Y48.19562
X109.76828Y47.53262
X56.71592Y103.22534
X68.90508Y85.78311
X67.68106Y100.3183
X92.77339Y81.30474
X81.09424Y100.3183
X86.2453Y85.1201
X135.61394Y75.27697
X111.64363Y85.1201
X104.40154Y85.0691
X95.22142Y87.51713
X128.88186Y86.65012
X111.33763Y86.29312
X95.47642Y83.97313
X101.95351Y83.99809
X94.66041Y103.93935
X120.61975Y94.24922
X121.48676Y95.26923
X100.37249Y104.09235
X146.63009Y95.67724
X130.56488Y97.56426
X135.66494Y96.90125
X135.70803Y90.93418
X119.08973Y97.15128
X120.10974Y103.83734
X138.01097Y117.36858
X132.75791Y117.76052
X143.77405Y99.84489
X121.89477Y106.43838
X130.66688Y85.73211
X131.53389Y87.51713
X132.4009Y87.87414
X132.4009Y90.22017
X41.36472Y24.27631
X47.89281Y45.54359
X46.61779Y46.3086
X44.11876Y31.0084
X44.50126Y45.77309
X40.03871Y26.41834
X44.11876Y13.46417
X107.00257Y74.76697
X110.57262Y73.54295
X87.26532Y30.8554
X60.94898Y8.72111
X94.81023Y37.28148
X97.25826Y39.52551
X113.62947Y76.39899
X112.15045Y66.35186
X101.18531Y54.3667
X122.29958Y55.99872
X130.15368Y47.68562
X119.8186Y57.15913
X118.4894Y55.79472
X117.01038Y54.57071
X121.44744Y55.18271
X105.41836Y52.07167
X100.3183Y52.07167
X142.20299Y94.76156
X140.40339Y96.13857
X138.48391Y96.85258
X139.64235Y96.85258
X145.28105Y94.38208
X145.68905Y95.33652
X145.37043Y95.89194
X152.29194Y90.63888
X151.08052Y93.08691
X152.23896Y93.08691
X151.08052Y94.02611
X152.23896Y94.02611
X151.08052Y94.95482
X152.23896Y94.95482
X150.21869Y87.2768
X151.37713Y87.2768
X150.21869Y86.22601
X151.37713Y86.22601
X150.21869Y85.07418
X151.37713Y85.07418
X151.47913Y83.70675
X151.47913Y82.65596
X151.47913Y81.50413
X150.32069Y83.70675
X150.32069Y82.65596
X150.32069Y81.50413
X151.47913Y80.18771
X151.47913Y79.13691
X151.47913Y77.98509
X150.32069Y80.18771
X150.32069Y79.13691
X150.32069Y77.98509
X151.37713Y76.51566
X151.37713Y75.46487
X151.37713Y74.31304
X150.21869Y76.51566
X150.21869Y75.46487
X150.21869Y74.31304
X149.48303Y79.08036
X149.48303Y78.02957
X149.48303Y76.87774
X148.32458Y79.08036
X148.32458Y78.02957
X148.32458Y76.87774
X146.35723Y75.53915
X147.40802Y75.53915
X148.55985Y75.53915
X146.35723Y74.38071
X147.40802Y74.38071
X148.55985Y74.38071
X136.79094Y78.91269
X136.79094Y77.8619
X136.79094Y76.71007
X135.6325Y78.91269
X135.6325Y77.8619
X135.6325Y76.71007
X136.99495Y82.89074
X136.99495Y81.83995
X136.99495Y80.68812
X135.8365Y82.89074
X135.8365Y81.83995
X135.8365Y80.68812
X137.14795Y86.66479
X137.14795Y85.614
X137.14795Y84.46217
X135.9895Y86.66479
X135.9895Y85.614
X135.9895Y84.46217
X139.69798Y86.86879
X139.69798Y85.818
X139.69798Y84.66617
X138.53954Y86.86879
X138.53954Y85.818
X138.53954Y84.66617
X142.75802Y87.2258
X142.75802Y86.17501
X142.75802Y85.02318
X141.59958Y87.2258
X141.59958Y86.17501
X141.59958Y85.02318
X145.71606Y87.1238
X145.71606Y86.073
X145.71606Y84.92118
X144.55762Y87.1238
X144.55762Y86.073
X144.55762Y84.92118
X139.44999Y83.19674
X139.44999Y82.14595
X139.44999Y80.99413
X138.29155Y83.19674
X138.29155Y82.14595
X138.29155Y80.99413
X139.05595Y79.6267
X139.05595Y78.57591
X140.38197Y79.66811
X137.8975Y79.6267
X137.8975Y78.57591
X137.8975Y77.42408
X141.71617Y79.2622
X142.76696Y79.2622
X143.91879Y79.2622
X141.71617Y78.10376
X142.76696Y78.10376
X143.91879Y78.10376
X130.61986Y84.06376
X130.61986Y83.01297
X130.61986Y81.86114
X129.46142Y84.06376
X129.46142Y83.01297
X129.46142Y81.86114
X149.84711Y95.79391
X148.7761Y97.19115
X148.7761Y96.03932
X147.61765Y98.24194
X147.61765Y97.19115
X147.87266Y96.14132
X139.40605Y100.54457
X139.40605Y99.49378
X139.40605Y98.34195
X138.2476Y100.54457
X138.2476Y99.49378
X138.2476Y98.34195
X134.69992Y100.74097
X134.69992Y99.69018
X134.69992Y98.53835
X133.54147Y100.74097
X133.54147Y99.69018
X133.54147Y98.53835
X132.96589Y104.41302
X127.15182Y102.18921
X124.55078Y102.2614
X131.80745Y104.41302
X125.68737Y102.29121
X129.30842Y100.57838
X112.05562Y102.01599
X113.58564Y105.30025
X113.58564Y104.14842
X112.4272Y106.35104
X112.4272Y105.30025
X112.4272Y104.14842
X114.55466Y102.16899
X116.13568Y105.45326
X116.13568Y104.30143
X113.49821Y102.16899
X114.97723Y105.45326
X114.97723Y104.30143
X106.90456Y107.93206
X106.90456Y106.88127
X106.90456Y105.72945
X105.74611Y107.93206
X105.74611Y106.88127
X105.74611Y105.72945
X106.19373Y111.13692
X105.78573Y110.29013
X104.61271Y107.96529
X105.03529Y111.13692
X104.37228Y110.39214
X104.47428Y108.8833
X113.26105Y111.13693
X113.26105Y110.08614
X113.26105Y108.93431
X112.10261Y111.13693
X112.10261Y110.08614
X112.10261Y108.93431
X121.89875Y110.7881
X121.89875Y109.73731
X121.89875Y108.58548
X120.74031Y110.7881
X120.74031Y109.73731
X120.74031Y108.58548
X72.22411Y92.17286
X72.22411Y91.12207
X72.22411Y89.97024
X71.06566Y92.17286
X71.06566Y91.12207
X71.06566Y89.97024
X76.07832Y86.9123
X77.12911Y86.9123
X78.28094Y86.9123
X76.07832Y85.75385
X77.12911Y85.75385
X78.28094Y85.75385
X65.50942Y91.46168
X61.97297Y88.62304
X63.707Y88.03222
X65.50942Y90.30323
X66.56021Y90.30323
X63.77257Y88.74623
X69.15507Y83.08178
X69.15507Y82.03099
X69.15507Y80.87916
X67.99663Y83.08178
X67.99663Y82.03099
X67.99663Y80.87916
X58.10514Y81.19675
X58.10514Y80.14596
X58.10514Y78.99413
X56.94669Y81.19675
X56.94669Y80.14596
X56.94669Y78.99413
X58.04592Y84.52276
X58.04592Y83.47197
X58.04592Y82.32014
X56.88748Y84.52276
X56.88748Y83.47197
X56.88748Y82.32014
X63.962Y93.24387
X63.962Y92.19308
X63.962Y91.04126
X62.80356Y93.24387
X62.80356Y92.19308
X62.80356Y91.04126
X60.54496Y89.46983
X61.46297Y90.35706
X59.21894Y87.98122
X54.28645Y86.76679
X54.28645Y85.716
X54.28645Y84.56417
X57.17891Y87.5828
X57.17891Y86.53201
X57.17891Y85.38018
X58.87651Y85.79778
X58.3155Y87.75603
X56.02047Y85.38018
X83.59725Y83.80875
X83.59725Y82.75796
X83.59725Y81.60613
X82.43881Y83.80875
X82.43881Y82.75796
X82.43881Y81.60613
X86.14729Y80.0347
X86.14729Y78.98391
X86.14729Y77.83208
X84.98884Y80.0347
X84.98884Y78.98391
X84.98884Y77.83208
X93.13438Y87.2258
X93.13438Y86.17501
X93.13438Y85.02318
X91.97593Y87.2258
X91.97593Y86.17501
X91.97593Y85.02318
X89.87034Y98.80295
X89.87034Y97.75216
X89.87034Y96.60033
X88.71189Y98.80295
X88.71189Y97.75216
X88.71189Y96.60033
X84.05626Y94.67189
X84.05626Y93.6211
X84.05626Y92.46927
X82.89782Y94.67189
X82.89782Y93.6211
X82.89782Y92.46927
X79.4152Y99.00695
X79.4152Y97.95616
X79.4152Y96.80433
X78.25676Y99.00695
X78.25676Y97.95616
X78.25676Y96.80433
X71.8671Y106.24904
X71.8671Y105.19825
X71.8671Y104.04642
X70.70866Y106.24904
X70.70866Y105.19825
X70.70866Y104.04642
X60.44296Y105.38203
X60.44296Y104.33124
X60.44296Y103.17941
X59.28451Y105.38203
X59.28451Y104.33124
X59.28451Y103.17941
X51.21184Y105.68804
X51.21184Y104.63724
X51.21184Y103.48542
X50.05339Y105.68804
X50.05339Y104.63724
X50.05339Y103.48542
X54.37388Y113.84814
X54.37388Y112.79735
X54.37388Y111.64552
X53.21543Y113.84814
X53.21543Y112.79735
X53.21543Y111.64552
X50.65083Y116.75518
X50.65083Y115.70439
X50.65083Y114.55256
X49.49239Y116.75518
X49.49239Y115.70439
X49.49239Y114.55256
X70.59209Y119.81522
X70.59209Y118.76443
X70.59209Y117.6126
X69.43364Y119.81522
X69.43364Y118.76443
X69.43364Y117.6126
X52.56701Y127.20282
X53.6178Y127.20282
X54.76963Y127.20282
X52.56701Y126.04438
X53.6178Y126.04438
X54.76963Y126.04438
X42.16288Y127.10082
X43.21367Y127.10082
X44.3655Y127.10082
X42.16288Y125.94237
X43.21367Y125.94237
X44.3655Y125.94237
X38.33783Y127.10082
X39.38862Y127.10082
X40.54045Y127.10082
X38.33783Y125.94237
X39.38862Y125.94237
X40.54045Y125.94237
X34.81878Y127.10082
X35.86957Y127.10082
X37.0214Y127.10082
X34.81878Y125.94237
X35.86957Y125.94237
X37.0214Y125.94237
X30.99692Y127.10932
X32.04771Y127.10932
X33.19954Y127.10932
X30.99692Y125.95088
X32.04771Y125.95088
X33.19954Y125.95088
X26.70968Y127.10082
X27.76047Y127.10082
X28.9123Y127.10082
X26.70968Y125.94237
X27.76047Y125.94237
X28.9123Y125.94237
X22.57862Y126.99882
X23.62942Y126.99882
X24.78124Y126.99882
X22.57862Y125.84037
X23.62942Y125.84037
X24.78124Y125.84037
X21.61711Y121.92791
X21.61711Y122.9787
X21.61711Y124.13053
X22.77555Y121.92791
X22.77555Y122.9787
X22.77555Y124.13053
X24.06514Y122.64192
X21.51511Y119.15365
X21.51511Y120.30548
X28.02862Y122.89692
X22.67355Y119.15365
X22.67355Y120.30548
X21.71161Y116.74768
X22.7624Y116.74768
X23.91423Y116.74768
X21.71161Y115.58924
X22.7624Y115.58924
X23.91423Y115.58924
X21.76261Y113.73864
X22.8134Y113.73864
X23.96523Y113.73864
X21.76261Y112.5802
X22.8134Y112.5802
X23.96523Y112.5802
X26.19967Y112.56563
X27.25046Y112.56563
X28.40229Y112.56563
X26.19967Y111.40719
X27.25046Y111.40719
X28.40229Y111.40719
X30.99692Y122.90987
X32.04771Y122.90987
X33.19954Y122.90987
X30.99692Y121.75143
X32.04771Y121.75143
X33.19954Y121.75143
X57.82008Y126.99882
X58.87087Y126.99882
X60.0227Y126.99882
X57.82008Y125.84037
X58.87087Y125.84037
X60.0227Y125.84037
X64.29716Y126.89682
X65.34795Y126.89682
X66.49978Y126.89682
X64.29716Y125.73837
X65.34795Y125.73837
X66.49978Y125.73837
X70.31524Y126.89682
X71.36603Y126.89682
X72.51786Y126.89682
X70.31524Y125.73837
X71.36603Y125.73837
X72.51786Y125.73837
X76.07832Y126.84581
X77.12911Y126.84581
X78.28094Y126.84581
X76.07832Y125.68737
X77.12911Y125.68737
X78.28094Y125.68737
X133.76006Y126.79481
X134.81085Y126.79481
X135.96268Y126.79481
X133.76006Y125.63637
X134.81085Y125.63637
X135.96268Y125.63637
X138.47651Y126.83197
X139.5273Y126.83197
X140.67913Y126.83197
X138.47651Y125.67353
X139.5273Y125.67353
X140.67913Y125.67353
X143.96769Y118.81687
X143.96769Y119.86766
X143.96769Y121.01949
X145.12613Y118.81687
X145.12613Y119.86766
X145.12613Y121.01949
X146.35723Y126.99882
X147.40802Y126.99882
X148.55985Y126.99882
X144.0622Y127.31939
X147.40802Y125.84037
X148.55985Y125.84037
X149.51927Y120.16473
X150.57006Y120.16473
X151.72189Y120.16473
X149.51927Y119.00628
X150.57006Y119.00628
X151.72189Y119.00628
X148.97446Y117.62864
X150.02525Y117.62864
X151.17708Y117.62864
X148.97446Y116.47019
X150.02525Y116.47019
X151.17708Y116.47019
X132.53605Y103.28351
X133.58684Y103.28351
X134.73867Y103.28351
X132.53605Y102.12507
X133.58684Y102.12507
X134.73867Y102.12507
X141.30816Y105.27254
X142.35895Y105.27254
X143.51078Y105.27254
X141.30816Y104.11409
X142.35895Y104.11409
X142.94977Y104.6751
X145.44671Y104.17968
X145.44671Y105.23047
X145.44671Y106.3823
X146.60515Y104.17968
X146.60515Y105.23047
X146.60515Y106.3823
X148.19325Y106.34355
X149.24404Y106.34355
X150.39587Y106.34355
X148.19325Y105.18511
X149.24404Y105.18511
X150.39587Y105.18511
X145.59222Y102.7735
X146.64301Y102.7735
X147.79484Y102.7735
X145.59222Y101.61506
X146.64301Y101.61506
X147.79484Y101.61506
X137.22811Y104.15052
X137.97289Y104.96653
X138.92072Y105.73154
X136.6161Y103.04308
X137.66689Y103.04308
X138.81872Y103.04308
X66.43919Y47.69279
X67.48998Y47.69279
X68.64181Y47.69279
X66.43919Y46.53435
X67.48998Y46.53435
X68.64181Y46.53435
X74.03829Y48.4578
X75.08908Y48.4578
X76.24091Y48.4578
X74.03829Y47.29936
X75.08908Y47.29936
X76.24091Y47.29936
X64.04216Y45.60176
X65.09295Y45.60176
X66.24478Y45.60176
X64.04216Y44.44332
X65.09295Y44.44332
X66.24478Y44.44332
X64.14416Y43.45974
X65.19495Y43.45974
X66.34678Y43.45974
X67.51021Y40.05726
X69.53001Y38.11924
X69.45782Y39.29225
X70.84195Y37.15392
X70.84195Y38.20471
X70.84195Y39.35654
X72.00039Y37.15392
X72.00039Y38.20471
X72.00039Y39.35654
X60.62512Y44.17374
X61.67591Y44.17374
X62.82774Y44.17374
X60.62512Y43.0153
X61.67591Y43.0153
X62.82774Y43.0153
X63.78716Y42.38872
X64.83795Y42.38872
X65.98978Y42.38872
X63.78716Y41.23028
X64.83795Y41.23028
X65.98978Y41.23028
X85.18846Y39.80496
X86.23925Y39.80496
X87.39108Y39.80496
X85.18846Y38.64652
X86.23925Y38.64652
X87.39108Y38.64652
X89.49149Y41.26671
X90.54228Y41.26671
X91.69411Y41.26671
X89.49149Y40.10826
X90.54228Y40.10826
X91.69411Y40.10826
X78.52635Y31.06657
X79.57714Y31.06657
X80.72897Y31.06657
X78.52635Y29.90813
X79.57714Y29.90813
X80.72897Y29.90813
X77.91434Y35.86064
X78.96513Y35.86064
X80.11696Y35.86064
X77.91434Y34.70219
X78.96513Y34.70219
X80.11696Y34.70219
X77.14933Y29.12855
X78.20012Y29.12855
X79.35195Y29.12855
X77.14933Y27.97011
X78.20012Y27.97011
X79.35195Y27.97011
X78.88335Y17.9084
X79.93414Y17.9084
X81.08597Y17.9084
X78.88335Y16.74996
X79.93414Y16.74996
X81.08597Y16.74996
X66.43919Y18.01041
X67.48998Y18.01041
X68.64181Y18.01041
X66.43919Y16.85196
X67.48998Y16.85196
X68.64181Y16.85196
X62.95875Y17.13145
X64.00954Y17.13145
X65.16137Y17.13145
X62.95875Y15.973
X64.00954Y15.973
X65.16137Y15.973
X51.598Y11.78833
X52.64879Y11.78833
X53.80062Y11.78833
X51.598Y10.62988
X52.64879Y10.62988
X53.80062Y10.62988
X60.62512Y34.22862
X61.67591Y34.22862
X62.82774Y34.22862
X60.62512Y33.07017
X61.67591Y33.07017
X62.82774Y33.07017
X57.15677Y34.17556
X58.20756Y34.17556
X59.35939Y34.17556
X57.15677Y33.01712
X58.20756Y33.01712
X59.35939Y33.01712
X53.68155Y24.94435
X55.00757Y33.08423
X55.00757Y34.23606
X57.39003Y24.43434
X56.16601Y33.08423
X56.16601Y34.23606
X53.38302Y32.03559
X53.77081Y30.14856
X53.69862Y29.23055
X53.38302Y30.87714
X54.43381Y30.87714
X55.58564Y30.87714
X53.63803Y28.15954
X54.68882Y32.13759
X55.84065Y32.13759
X53.79103Y32.81517
X53.5668Y27.1031
X53.74962Y26.18508
X53.4385Y24.11097
X54.4893Y24.11097
X55.64112Y24.11097
X53.4385Y22.95253
X54.4893Y22.95253
X55.64112Y22.95253
X38.28683Y31.16858
X39.33762Y31.16858
X40.48945Y31.16858
X38.28683Y30.01013
X39.33762Y30.01013
X40.48945Y30.01013
X35.32879Y31.83158
X36.37958Y31.83158
X37.53141Y31.83158
X35.32879Y30.67314
X36.37958Y30.67314
X37.53141Y30.67314
X32.16675Y32.29059
X33.21754Y32.29059
X34.36937Y32.29059
X32.16675Y31.13215
X33.21754Y31.13215
X34.36937Y31.13215
X24.87365Y17.5514
X25.92444Y17.5514
X27.07627Y17.5514
X24.87365Y16.39296
X25.92444Y16.39296
X27.07627Y16.39296
X17.73356Y20.30544
X18.78435Y20.30544
X19.93618Y20.30544
X17.73356Y19.14699
X18.78435Y19.14699
X19.93618Y19.14699
X14.26552Y21.88646
X15.31631Y21.88646
X16.46814Y21.88646
X14.26552Y20.72801
X15.31631Y20.72801
X16.46814Y20.72801
X10.18546Y22.09046
X11.23625Y22.09046
X12.38808Y22.09046
X10.18546Y20.93202
X11.23625Y20.93202
X12.38808Y20.93202
X2.33136Y23.77348
X3.38215Y23.77348
X4.53398Y23.77348
X2.33136Y22.61504
X3.38215Y22.61504
X4.53398Y22.61504
X6.15641Y22.19246
X7.2072Y22.19246
X8.35903Y22.19246
X6.15641Y21.03402
X7.2072Y21.03402
X8.35903Y21.03402
X18.50607Y15.33653
X18.50607Y16.38732
X18.50607Y17.53915
X19.66451Y15.33653
X19.66451Y16.38732
X19.66451Y17.53915
X18.60807Y11.40948
X18.60807Y12.46027
X18.60807Y13.6121
X19.76651Y11.40948
X19.76651Y12.46027
X19.76651Y13.6121
X17.63156Y9.9013
X15.21431Y8.52428
X16.36613Y8.52428
X14.16352Y7.36584
X15.21431Y7.36584
X16.36613Y7.36584
X10.18546Y6.02525
X11.23625Y6.02525
X12.38808Y6.02525
X10.18546Y4.86681
X11.23625Y4.86681
X12.38808Y4.86681
X8.80845Y3.42422
X9.85924Y3.42422
X11.01107Y3.42422
X8.80845Y2.26577
X9.85924Y2.26577
X11.01107Y2.26577
X17.15069Y4.54093
X18.20148Y4.54093
X19.35331Y4.54093
X17.15069Y3.38248
X18.20148Y3.38248
X19.35331Y3.38248
X24.10864Y9.23829
X25.15943Y9.23829
X26.31126Y9.23829
X24.10864Y8.07985
X25.15943Y8.07985
X26.31126Y8.07985
X34.66578Y9.03429
X35.71657Y9.03429
X36.8684Y9.03429
X34.66578Y7.87585
X35.71657Y7.87585
X36.8684Y7.87585
X39.25584Y9.03429
X40.30663Y9.03429
X41.45846Y9.03429
X39.25584Y7.87585
X40.30663Y7.87585
X41.45846Y7.87585
X41.85687Y11.53332
X42.90766Y11.53332
X44.05949Y11.53332
X41.85687Y10.37488
X42.90766Y10.37488
X44.05949Y10.37488
X54.20653Y2.58637
X54.20653Y3.63716
X54.20653Y4.78898
X55.36497Y2.58637
X55.36497Y3.63716
X55.36497Y4.78898
X99.13061Y27.90453
X100.18141Y27.90453
X101.33323Y27.90453
X99.13061Y26.74609
X100.18141Y26.74609
X101.33323Y26.74609
X95.20356Y28.21054
X96.25435Y28.21054
X97.40618Y28.21054
X95.20356Y27.05209
X96.25435Y27.05209
X97.40618Y27.05209
X103.06516Y24.05764
X103.06516Y25.10843
X103.06516Y26.26026
X104.2236Y24.05764
X104.2236Y25.10843
X104.2236Y26.26026
X103.06516Y19.87559
X103.06516Y20.92638
X103.06516Y22.07821
X104.2236Y19.87559
X104.2236Y20.92638
X104.2236Y22.07821
X102.85366Y9.9523
X103.90445Y9.9523
X105.05628Y9.9523
X102.85366Y8.79386
X103.90445Y8.79386
X105.05628Y8.79386
X103.36367Y6.43326
X104.41446Y6.43326
X105.56629Y6.43326
X103.36367Y5.27481
X104.41446Y5.27481
X105.56629Y5.27481
X103.72067Y3.16921
X104.77147Y3.16921
X105.92329Y3.16921
X103.72067Y2.01077
X104.77147Y2.01077
X105.92329Y2.01077
X99.34644Y2.39316
X100.39723Y2.39316
X101.54906Y2.39316
X99.34644Y1.23471
X100.39723Y1.23471
X101.54906Y1.23471
X89.8995Y7.55527
X90.95029Y7.55527
X92.10211Y7.55527
X89.8995Y6.39683
X90.95029Y6.39683
X92.10211Y6.39683
X90.0525Y5.00524
X91.10329Y5.00524
X92.25512Y5.00524
X90.0525Y3.84679
X91.10329Y3.84679
X92.25512Y3.84679
X90.3075Y2.55721
X91.35829Y2.55721
X92.51012Y2.55721
X90.3075Y1.39876
X91.35829Y1.39876
X92.51012Y1.39876
X87.04346Y7.75927
X88.09425Y7.75927
X89.04208Y10.97231
X87.04346Y6.60083
X88.09425Y6.60083
X92.51012Y9.71187
X86.73745Y5.15824
X87.78825Y5.15824
X88.94007Y5.15824
X86.73745Y3.9998
X87.78825Y3.9998
X88.94007Y3.9998
X86.27845Y2.50621
X87.32924Y2.50621
X88.48107Y2.50621
X86.27845Y1.34776
X87.32924Y1.34776
X88.48107Y1.34776
X92.71203Y16.30554
X92.71203Y17.35633
X92.71203Y18.50816
X93.87047Y16.30554
X93.87047Y17.35633
X100.50056Y19.22217
X90.21299Y18.34557
X90.21299Y19.39636
X90.21299Y20.54819
X91.37144Y18.34557
X91.37144Y19.39636
X91.37144Y20.54819
X90.468Y22.06862
X90.468Y23.11941
X90.468Y24.27124
X91.62644Y22.06862
X91.62644Y23.11941
X91.62644Y24.27124
X91.78652Y26.83352
X92.83731Y26.83352
X93.98914Y26.83352
X91.78652Y25.67508
X92.83731Y25.67508
X93.98914Y25.67508
X106.27071Y12.60434
X107.3215Y12.60434
X108.47333Y12.60434
X106.27071Y11.44589
X107.3215Y11.44589
X108.47333Y11.44589
X107.29072Y14.69536
X108.34151Y14.69536
X109.49334Y14.69536
X107.29072Y13.53692
X108.34151Y13.53692
X109.49334Y13.53692
X107.44372Y17.5514
X108.49451Y17.5514
X109.64634Y17.5514
X107.44372Y16.39296
X108.49451Y16.39296
X109.64634Y16.39296
X107.64772Y20.61144
X108.69852Y20.61144
X109.85034Y20.61144
X107.64772Y19.453
X108.69852Y19.453
X109.85034Y19.453
X107.85173Y23.11047
X108.90252Y23.11047
X110.05435Y23.11047
X107.85173Y21.95203
X108.90252Y21.95203
X110.05435Y21.95203
X107.64772Y25.71151
X108.69852Y25.71151
X109.85034Y25.71151
X107.64772Y24.55306
X108.69852Y24.55306
X109.85034Y24.55306
X109.54351Y29.99252
X109.54351Y31.04331
X109.54351Y32.19514
X110.70195Y29.99252
X110.70195Y31.04331
X110.70195Y32.19514
X118.30686Y33.2596
X119.35765Y33.2596
X120.50948Y33.2596
X118.30686Y32.10116
X119.35765Y32.10116
X120.50948Y32.10116
X121.67291Y39.22668
X122.7237Y39.22668
X123.87553Y39.22668
X121.67291Y38.06824
X122.7237Y38.06824
X123.87553Y38.06824
X118.10286Y22.95747
X119.15365Y22.95747
X120.30548Y22.95747
X118.10286Y21.79903
X119.15365Y21.79903
X120.30548Y21.79903
X121.6294Y20.3346
X121.6294Y21.38539
X121.6294Y22.53721
X122.78784Y20.3346
X122.78784Y21.38539
X122.78784Y22.53721
X124.27394Y20.86644
X125.32473Y20.86644
X126.47656Y20.86644
X124.27394Y19.708
X125.32473Y19.708
X126.47656Y19.708
X128.20099Y20.91744
X129.25178Y20.91744
X130.40361Y20.91744
X128.20099Y19.759
X129.25178Y19.759
X123.72252Y21.79903
X137.07511Y22.14146
X138.1259Y22.14146
X139.27773Y22.14146
X137.07511Y20.98302
X138.1259Y20.98302
X139.27773Y20.98302
X139.67614Y25.0995
X140.72693Y25.0995
X141.87876Y25.0995
X139.67614Y23.94105
X140.72693Y23.94105
X141.87876Y23.94105
X144.2152Y27.75153
X145.26599Y27.75153
X146.41782Y27.75153
X144.2152Y26.59309
X145.26599Y26.59309
X146.41782Y26.59309
X139.42114Y33.66761
X140.47193Y33.66761
X141.62376Y33.66761
X139.42114Y32.50917
X140.47193Y32.50917
X141.62376Y32.50917
X135.64709Y34.94263
X136.69788Y34.94263
X137.84971Y34.94263
X135.64709Y33.78418
X136.69788Y33.78418
X137.84971Y33.78418
X135.39208Y37.84966
X136.44287Y37.84966
X137.5947Y37.84966
X135.39208Y36.69122
X136.44287Y36.69122
X137.5947Y36.69122
X129.52701Y42.28672
X130.5778Y42.28672
X131.72963Y42.28672
X129.52701Y41.12828
X130.5778Y41.12828
X131.72963Y41.12828
X126.41597Y45.70376
X127.46676Y45.70376
X128.61859Y45.70376
X126.41597Y44.54532
X127.46676Y44.54532
X128.61859Y44.54532
X126.31397Y43.05173
X127.36476Y43.05173
X128.51659Y43.05173
X126.31397Y41.89329
X127.36476Y41.89329
X128.51659Y41.89329
X142.68518Y40.9607
X143.73597Y40.9607
X144.8878Y40.9607
X142.68518Y39.80226
X143.73597Y39.80226
X144.8878Y39.80226
X146.86723Y41.16471
X147.91802Y41.16471
X149.06985Y41.16471
X146.86723Y40.00626
X147.91802Y40.00626
X149.06985Y40.00626
X144.3682Y44.02074
X145.41899Y44.02074
X146.57082Y44.02074
X144.3682Y42.8623
X145.41899Y42.8623
X146.57082Y42.8623
X143.86569Y48.43596
X143.86569Y49.48675
X143.86569Y50.63858
X145.02413Y48.43596
X145.02413Y49.48675
X145.02413Y50.63858
X149.13785Y51.19199
X150.18864Y51.19199
X151.34047Y51.19199
X149.13785Y50.03355
X150.18864Y50.03355
X151.34047Y50.03355
X148.81456Y48.04189
X149.86535Y48.04189
X151.01718Y48.04189
X148.81456Y46.88344
X149.86535Y46.88344
X151.01718Y46.88344
X148.80526Y44.47975
X149.85605Y44.47975
X151.00788Y44.47975
X148.80526Y43.32131
X149.85605Y43.32131
X151.00788Y43.32131
X146.51023Y32.23959
X147.56102Y32.23959
X148.71285Y32.23959
X146.51023Y31.08115
X147.56102Y31.08115
X148.71285Y31.08115
X132.38305Y21.17245
X133.43384Y21.17245
X134.58566Y21.17245
X131.41403Y20.72801
X140.62493Y21.90103
X135.91168Y21.34002
X118.10286Y20.20343
X119.15365Y20.20343
X120.30548Y20.20343
X118.10286Y19.04499
X119.15365Y19.04499
X120.30548Y19.04499
X112.05356Y23.17244
X112.05356Y24.22323
X112.05356Y25.37506
X113.212Y23.17244
X113.212Y24.22323
X113.212Y25.37506
X111.16677Y21.78445
X112.21756Y21.78445
X113.36939Y21.78445
X111.16677Y20.62601
X112.21756Y20.62601
X113.36939Y20.62601
X110.14676Y15.46037
X111.96256Y13.26734
X114.0324Y13.16534
X111.21777Y14.30193
X112.26856Y14.30193
X113.42039Y14.30193
X117.38885Y17.6534
X118.43964Y17.6534
X119.59147Y17.6534
X117.38885Y16.49496
X118.43964Y16.49496
X119.59147Y16.49496
X115.75683Y12.65534
X117.01162Y12.14533
X117.60244Y15.20537
X115.39983Y14.04693
X116.45062Y14.04693
X117.60244Y14.04693
X126.57064Y24.88957
X127.62143Y24.88957
X128.77326Y24.88957
X126.57064Y23.73113
X127.62143Y23.73113
X128.77326Y23.73113
X126.57064Y30.46407
X127.62143Y30.46407
X126.93724Y31.33108
X128.35567Y29.81563
X127.62143Y29.30562
X128.62026Y28.54061
X112.39079Y62.89099
X113.44158Y62.89099
X114.59341Y62.89099
X112.39079Y61.73254
X113.44158Y61.73254
X114.59341Y61.73254
X114.63482Y64.88001
X115.68561Y64.88001
X116.83743Y64.88001
X114.63482Y63.72157
X115.68561Y63.72157
X116.83743Y63.72157
X91.9937Y53.75287
X93.04449Y53.75287
X94.19632Y53.75287
X91.9937Y52.59443
X93.04449Y52.59443
X94.19632Y52.59443
X88.52248Y50.14082
X89.57327Y50.14082
X90.7251Y50.14082
X88.52248Y48.98238
X89.57327Y48.98238
X90.7251Y48.98238
X56.44306Y70.18408
X57.49385Y70.18408
X58.64568Y70.18408
X56.44306Y69.02564
X57.49385Y69.02564
X58.64568Y69.02564
X56.44306Y64.93101
X57.49385Y64.93101
X58.64568Y64.93101
X56.44306Y63.77257
X57.49385Y63.77257
X58.64568Y63.77257
X78.98535Y69.77608
X80.03615Y69.77608
X81.18797Y69.77608
X78.98535Y68.61763
X80.03615Y68.61763
X81.18797Y68.61763
X78.37335Y64.52301
X79.42414Y64.52301
X80.57597Y64.52301
X78.37335Y63.36456
X79.42414Y63.36456
X80.57597Y63.36456
X68.93822Y71.6631
X69.98901Y71.6631
X71.14084Y71.6631
X68.93822Y70.50466
X69.98901Y70.50466
X71.14084Y70.50466
X67.76521Y64.166
X68.816Y64.166
X69.96783Y64.166
X67.76521Y63.00756
X68.816Y63.00756
X69.96783Y63.00756
X56.23906Y56.3119
X57.28985Y56.3119
X58.44168Y56.3119
X56.23906Y55.15346
X57.28985Y55.15346
X58.44168Y55.15346
X45.98793Y56.0569
X47.03872Y56.0569
X48.19055Y56.0569
X45.98793Y54.89846
X47.03872Y54.89846
X48.19055Y54.89846
X74.7523Y56.5159
X75.80309Y56.5159
X76.95492Y56.5159
X74.7523Y55.35746
X75.80309Y55.35746
X76.95492Y55.35746
X54.60704Y46.87678
X55.65783Y46.87678
X56.80966Y46.87678
X54.60704Y45.71834
X55.65783Y45.71834
X56.80966Y45.71834
X54.09703Y43.45974
X55.14782Y43.45974
X56.29965Y43.45974
X54.09703Y42.30129
X55.14782Y42.30129
X56.29965Y42.30129
X45.68192Y63.707
X46.73271Y63.707
X47.88454Y63.707
X45.68192Y62.54855
X46.73271Y62.54855
X47.88454Y62.54855
X4.16739Y52.48685
X5.21818Y52.48685
X6.37001Y52.48685
X4.16739Y51.32841
X5.21818Y51.32841
X6.37001Y51.32841
X1.42085Y50.52699
X1.42085Y51.57778
X1.42085Y52.72961
X2.57929Y50.52699
X2.57929Y51.57778
X2.57929Y52.72961
X9.82846Y55.08789
X10.87925Y55.08789
X12.03108Y55.08789
X9.82846Y53.92944
X10.87925Y53.92944
X12.03108Y53.92944
X9.89557Y57.48904
X10.94636Y57.48904
X12.09819Y57.48904
X9.89557Y56.3306
X10.94636Y56.3306
X12.09819Y56.3306
X9.96268Y59.9524
X11.01347Y59.9524
X12.1653Y59.9524
X9.96268Y58.79396
X11.01347Y58.79396
X12.1653Y58.79396
X10.08346Y62.53398
X11.13425Y62.53398
X12.28608Y62.53398
X10.08346Y61.37554
X11.13425Y61.37554
X12.28608Y61.37554
X10.15057Y64.68318
X11.20136Y64.68318
X12.35319Y64.68318
X10.15057Y63.52474
X11.20136Y63.52474
X12.35319Y63.52474
X80.26037Y105.78254
X81.31116Y105.78254
X82.46299Y105.78254
X80.26037Y104.6241
X81.31116Y104.6241
X82.46299Y104.6241
X80.32748Y108.18369
X81.37827Y108.18369
X82.5301Y108.18369
X80.32748Y107.02525
X81.37827Y107.02525
X82.5301Y107.02525
X80.39459Y110.64706
X81.44538Y110.64706
X82.59721Y110.64706
X80.39459Y109.48861
X81.44538Y109.48861
X82.59721Y109.48861
X80.51537Y113.22864
X81.56616Y113.22864
X82.71799Y113.22864
X80.51537Y112.07019
X81.56616Y112.07019
X82.71799Y112.07019
X80.58248Y115.37784
X81.63327Y115.37784
X82.7851Y115.37784
X80.58248Y114.2194
X81.63327Y114.2194
X82.7851Y114.2194
X0.95018Y54.72505
X2.00097Y54.72505
X3.1528Y54.72505
X0.95018Y53.56661
X2.00097Y53.56661
X3.1528Y53.56661
X1.01729Y57.12621
X2.06808Y57.12621
X3.21991Y57.12621
X1.01729Y55.96776
X2.06808Y55.96776
X3.21991Y55.96776
X1.0844Y59.58957
X2.13519Y59.58957
X3.28702Y59.58957
X1.0844Y58.43112
X2.13519Y58.43112
X3.28702Y58.43112
X1.20518Y62.17115
X2.25598Y62.17115
X3.4078Y62.17115
X1.20518Y61.01271
X2.25598Y61.01271
X3.4078Y61.01271
X1.27229Y64.32035
X2.32309Y64.32035
X3.47491Y64.32035
X1.27229Y63.16191
X2.32309Y63.16191
X3.47491Y63.16191
X4.52167Y54.83835
X5.57246Y54.83835
X6.72429Y54.83835
X4.52167Y53.67991
X5.57246Y53.67991
X6.72429Y53.67991
X4.58878Y57.2395
X5.63957Y57.2395
X6.7914Y57.2395
X4.58878Y56.08106
X5.63957Y56.08106
X6.7914Y56.08106
X4.65589Y59.70286
X5.70668Y59.70286
X6.85851Y59.70286
X4.65589Y58.54442
X5.70668Y58.54442
X6.85851Y58.54442
X4.77667Y62.28445
X5.82746Y62.28445
X6.97929Y62.28445
X4.77667Y61.126
X5.82746Y61.126
X6.97929Y61.126
X4.84378Y64.43365
X5.89457Y64.43365
X7.0464Y64.43365
X4.84378Y63.2752
X5.89457Y63.2752
X7.0464Y63.2752
X7.83527Y54.77605
X8.88606Y54.77605
X1.16377Y66.71021
X7.83527Y53.61761
X8.88606Y53.61761
X1.16377Y65.55177
X7.90238Y57.17721
X8.95317Y57.17721
X1.23088Y69.11136
X7.90238Y56.01876
X8.95317Y56.01876
X1.23088Y67.95292
X7.96949Y59.64057
X9.02028Y59.64057
X1.298Y71.57472
X7.96949Y58.48213
X9.02028Y58.48213
X1.298Y70.41628
X8.09027Y62.22215
X9.14106Y62.22215
X1.41878Y74.1563
X8.09027Y61.06371
X9.14106Y61.06371
X1.41878Y72.99786
X8.15738Y64.37135
X9.20817Y64.37135
X1.48589Y76.30551
X8.15738Y63.21291
X9.20817Y63.21291
X1.48589Y75.14706
X2.99021Y66.50621
X4.041Y66.50621
X5.19283Y66.50621
X2.99021Y65.34776
X4.041Y65.34776
X5.19283Y65.34776
X3.05732Y68.90736
X4.10811Y68.90736
X5.25994Y68.90736
X3.05732Y67.74891
X4.10811Y67.74891
X5.25994Y67.74891
X3.12443Y71.37072
X4.17522Y71.37072
X5.32705Y71.37072
X3.12443Y70.21228
X4.17522Y70.21228
X5.32705Y70.21228
X3.24521Y73.9523
X4.296Y73.9523
X5.44783Y73.9523
X3.24521Y72.79386
X4.296Y72.79386
X5.44783Y72.79386
X3.31232Y76.1015
X4.36311Y76.1015
X5.51494Y76.1015
X3.31232Y74.94306
X4.36311Y74.94306
X5.51494Y74.94306
X6.16724Y49.31089
X5.11645Y49.31089
X3.96463Y49.31089
X6.16724Y50.46933
X5.11645Y50.46933
X3.96463Y50.46933
X8.10364Y46.05087
X8.10364Y47.10166
X8.10364Y48.25349
X9.26208Y46.05087
X9.26208Y47.10166
X9.26208Y48.25349
X5.64028Y46.11798
X5.64028Y47.16878
X5.64028Y48.3206
X6.79872Y46.11798
X6.79872Y47.16878
X6.79872Y48.3206
X3.05869Y46.23877
X3.05869Y47.28956
X3.05869Y48.44139
X4.21714Y46.23877
X4.21714Y47.28956
X4.21714Y48.44139
X0.90949Y46.30588
X0.90949Y47.35667
X0.90949Y48.5085
X2.06794Y46.30588
X2.06794Y47.35667
X2.06794Y48.5085
X46.85813Y66.49107
X47.90892Y66.49107
X49.06075Y66.49107
X46.85813Y65.33262
X47.90892Y65.33262
X49.06075Y65.33262
X37.41982Y72.0201
X38.47061Y72.0201
X39.62244Y72.0201
X37.41982Y70.86166
X38.47061Y70.86166
X39.62244Y70.86166
X37.41982Y69.41907
X38.47061Y69.41907
X39.62244Y69.41907
X37.41982Y68.26063
X38.47061Y68.26063
X39.62244Y68.26063
X34.46178Y65.84903
X35.51257Y65.84903
X36.6644Y65.84903
X34.46178Y64.69058
X35.51257Y64.69058
X36.6644Y64.69058
X41.24487Y73.14212
X42.29566Y73.14212
X43.44749Y73.14212
X41.24487Y71.98368
X42.29566Y71.98368
X43.44749Y71.98368
X45.57992Y76.86517
X46.63071Y76.86517
X47.78254Y76.86517
X45.57992Y75.70672
X46.63071Y75.70672
X47.78254Y75.70672
X38.18483Y87.3713
X39.23562Y87.3713
X40.38745Y87.3713
X38.18483Y86.21286
X39.23562Y86.21286
X40.38745Y86.21286
X35.12479Y82.98525
X36.17558Y82.98525
X37.32741Y82.98525
X35.12479Y81.8268
X36.17558Y81.8268
X37.32741Y81.8268
X38.74902Y83.38269
X39.79981Y83.38269
X40.95164Y83.38269
X38.74902Y82.22425
X39.79981Y82.22425
X40.95164Y82.22425
X37.58031Y100.55863
X37.58031Y101.60942
X37.58031Y102.76125
X38.73876Y100.55863
X38.73876Y101.60942
X38.73876Y102.76125
X37.36882Y105.52754
X38.41961Y105.52754
X39.57143Y105.52754
X37.36882Y104.3691
X38.41961Y104.3691
X39.57143Y104.3691
X21.76261Y111.08661
X22.8134Y111.08661
X23.96523Y111.08661
X21.76261Y109.92817
X22.8134Y109.92817
X23.96523Y109.92817
X34.31196Y56.65641
X35.36275Y56.65641
X34.31196Y55.49797
X35.36275Y55.49797
X21.23711Y59.50577
X22.2879Y59.50577
X21.23711Y58.34733
X22.2879Y58.34733
X14.67352Y59.42294
X15.72431Y59.42294
X14.67352Y58.2645
X15.72431Y58.2645
X17.7884Y59.50577
X18.83919Y59.50577
X17.7884Y58.34733
X18.83919Y58.34733
X147.24608Y69.26397
X146.48107Y68.34596
X145.71606Y67.37695
X144.74705Y66.30594
X143.82903Y65.13292
X143.93104Y70.38599
X143.26803Y69.67198
X137.14795Y68.29496
X136.58694Y67.22395
X139.25111Y65.33494
X135.05692Y59.87985
M30