G04 Layer: CustomLayer2*
G04 EasyEDA Pro v2.2.32.3, 2026-03-24 17:24:50*
G04 Gerber Generator version 0.3*
G04 Scale: 100 percent, Rotated: No, Reflected: No*
G04 Dimensions in millimeters*
G04 Leading zeros omitted, absolute positions, 3 integers and 5 decimals*
%FSLAX35Y35*%
%MOMM*%
%ADD10C,0.15*%
%ADD11C,0.0127*%
G75*


G04 PolygonModel Start*
G54D10*
G01X8257325Y2931744D02*
G01X8257325Y3031744D01*
G01X8207325Y2981744D02*
G01X8307325Y2981744D01*
G01X8207326Y3841744D02*
G01X8307326Y3841744D01*
G01X5107185Y1386424D02*
G01X5107185Y1486424D01*
G01X5057185Y1436424D02*
G01X5157185Y1436424D01*
G01X5057185Y2296424D02*
G01X5157185Y2296424D01*
G54D11*
G01X3795561Y2269747D02*
G01X3790481Y2264667D01*
G01X3765442Y2260816D02*
G01X3760362Y2255736D01*
G01X4112085Y2134357D02*
G01X4107005Y2139437D01*
G01X13501307Y6443913D02*
G01X13496227Y6448993D01*
G01X13302404Y6438813D02*
G01X13297324Y6443893D01*
G01X10452884Y3808636D02*
G01X10457964Y3813716D01*
G01X10442683Y4007539D02*
G01X10447763Y4012619D01*
G01X7637658Y3377064D02*
G01X7632578Y3371984D01*
G01X10858142Y4952957D02*
G01X10863222Y4947877D01*
G01X10867073Y4922838D02*
G01X10872153Y4917758D01*
G01X9579035Y3422361D02*
G01X9573955Y3417281D01*
G01X9548917Y3413431D02*
G01X9543837Y3408351D01*
G01X14073971Y10252246D02*
G01X14068891Y10247166D01*
G01X14299791Y9707996D02*
G01X14304871Y9702916D01*
G01X11045948Y5107737D02*
G01X11051028Y5102657D01*
G01X9912317Y3407957D02*
G01X9907237Y3402877D01*
G01X12900956Y8018417D02*
G01X12895876Y8013337D01*
G01X13927486Y11819423D02*
G01X13932566Y11814343D01*
G01X13543564Y11889367D02*
G01X13538484Y11884287D01*
G01X14832424Y9361151D02*
G01X14827344Y9366231D01*
G01X2305055Y10161184D02*
G01X2299975Y10166264D01*
G01X2305055Y8488363D02*
G01X2299975Y8493443D01*
G01X2305055Y6805341D02*
G01X2299975Y6810421D01*
G01X10433941Y3460415D02*
G01X10439021Y3455335D01*
G01X7607088Y8018417D02*
G01X7602008Y8013337D01*
G01X7607088Y7829715D02*
G01X7602008Y7824635D01*
G01X14174515Y11350176D02*
G01X14169435Y11355256D01*
G01X14279390Y10784110D02*
G01X14284470Y10779030D01*
G01X1165694Y4874842D02*
G01X1170774Y4879922D01*
G01X6136519Y1782483D02*
G01X6131439Y1787563D01*
G54D10*
G01X6303207Y2014526D02*
G01X6403207Y2014526D01*
G01X6353206Y2064526D02*
G01X6353206Y1964526D01*
G01X7213206Y2064526D02*
G01X7213206Y1964526D01*
G01X5442089Y1386424D02*
G01X5442089Y1486424D01*
G01X5392089Y1436424D02*
G01X5492089Y1436424D01*
G01X5392089Y2296424D02*
G01X5492089Y2296424D01*
G54D11*
G01X8420745Y2411538D02*
G01X8415665Y2416618D01*
G01X8411814Y2441657D02*
G01X8406734Y2446737D01*
G01X8416541Y2073156D02*
G01X8411461Y2078236D01*
G01X10714444Y2863708D02*
G01X10719524Y2858628D01*
G01X12095146Y6447597D02*
G01X12090066Y6442517D01*
G01X5934266Y1199629D02*
G01X5929186Y1194549D01*
G01X12090046Y6228294D02*
G01X12084966Y6223214D01*
G01X7118898Y895082D02*
G01X7123978Y890002D01*
G01X10315223Y1316930D02*
G01X10310143Y1311850D01*
G01X10352339Y1563191D02*
G01X10357419Y1558111D01*
G01X14327517Y5923706D02*
G01X14322437Y5928786D01*
G01X1373057Y3057500D02*
G01X1367977Y3062580D01*
G01X2622545Y2091244D02*
G01X2617465Y2086164D01*
G01X2592427Y2082314D02*
G01X2587347Y2077234D01*
G01X5550304Y5020995D02*
G01X5545224Y5026075D01*
G01X10763988Y5165254D02*
G01X10769068Y5170334D01*
G01X3001687Y1998113D02*
G01X3006767Y2003193D01*
G01X8611760Y5399857D02*
G01X8616840Y5404937D01*
G01X3851982Y2715765D02*
G01X3846902Y2720845D01*
G01X11008791Y6430070D02*
G01X11013871Y6435150D01*
G01X13150819Y5241755D02*
G01X13155899Y5246835D01*
G01X13488880Y5204638D02*
G01X13493960Y5199558D01*
G01X9451854Y8958245D02*
G01X9446774Y8963325D01*
G01X8882104Y9369935D02*
G01X8877024Y9364855D01*
G01X9258052Y11365477D02*
G01X9252972Y11370557D01*
G01X8703602Y10497049D02*
G01X8698522Y10491969D01*
G54D10*
G01X4772280Y1386424D02*
G01X4772280Y1486424D01*
G01X4722280Y1436424D02*
G01X4822280Y1436424D01*
G01X4722281Y2296424D02*
G01X4822280Y2296424D01*
G01X4437376Y1386424D02*
G01X4437376Y1486424D01*
G01X4387376Y1436424D02*
G01X4487376Y1436424D01*
G01X4387376Y2296424D02*
G01X4487376Y2296424D01*
G54D11*
G01X11405180Y11365477D02*
G01X11400100Y11370557D01*
G01X11930286Y10477906D02*
G01X11935366Y10482986D01*
G01X10344366Y11365416D02*
G01X10339286Y11370496D01*
G01X9795016Y10491949D02*
G01X9789936Y10486869D01*
G01X10640170Y11365477D02*
G01X10635090Y11370557D01*
G01X10988431Y10476649D02*
G01X10983351Y10471569D01*
G01X7607088Y8217320D02*
G01X7602008Y8212240D01*
G01X7612188Y8406022D02*
G01X7607108Y8400942D01*
G01X12190590Y11365477D02*
G01X12185510Y11370557D01*
G01X12600052Y10553150D02*
G01X12594972Y10548070D01*

M02*

