G04 Layer: CustomLayer1*
G04 EasyEDA Pro v2.2.32.3, 2026-03-24 17:24:50*
G04 Gerber Generator version 0.3*
G04 Scale: 100 percent, Rotated: No, Reflected: No*
G04 Dimensions in millimeters*
G04 Leading zeros omitted, absolute positions, 3 integers and 5 decimals*
%FSLAX35Y35*%
%MOMM*%
%ADD10C,0.15*%
G75*


G04 PolygonModel Start*
G54D10*
G01X8387326Y3185744D02*
G01X8387326Y3617744D01*
G01X8127326Y3185744D02*
G01X8127326Y3617744D01*
G01X8127326Y3185744D02*
G01X8387326Y3185744D01*
G01X8127326Y3617744D02*
G01X8387326Y3617744D01*
G01X5237185Y1640424D02*
G01X5237185Y2072424D01*
G01X4977185Y1640424D02*
G01X4977185Y2072424D01*
G01X4977185Y1640424D02*
G01X5237185Y1640424D01*
G01X4977185Y2072424D02*
G01X5237185Y2072424D01*
G01X13109487Y6320783D02*
G01X12799487Y6320783D01*
G01X13109487Y6500783D02*
G01X12799487Y6500783D01*
G01X12799487Y6320783D02*
G01X12799487Y6500783D01*
G01X13109487Y6320783D02*
G01X13109487Y6500783D01*
G01X8847456Y8242313D02*
G01X8847456Y8552313D01*
G01X9027456Y8242313D02*
G01X9027456Y8552313D01*
G01X8847456Y8552313D02*
G01X9027456Y8552313D01*
G01X8847456Y8242313D02*
G01X9027456Y8242313D01*
G01X8842356Y8882317D02*
G01X8842356Y9192317D01*
G01X9022356Y8882317D02*
G01X9022356Y9192317D01*
G01X8842356Y9192317D02*
G01X9022356Y9192317D01*
G01X8842356Y8882317D02*
G01X9022356Y8882317D01*
G01X6557207Y1884526D02*
G01X6989207Y1884526D01*
G01X6557207Y2144526D02*
G01X6989207Y2144526D01*
G01X6557207Y2144526D02*
G01X6557207Y1884526D01*
G01X6989207Y2144526D02*
G01X6989207Y1884526D01*
G01X5572089Y1640424D02*
G01X5572089Y2072424D01*
G01X5312089Y1640424D02*
G01X5312089Y2072424D01*
G01X5312089Y1640424D02*
G01X5572089Y1640424D01*
G01X5312089Y2072424D02*
G01X5572089Y2072424D01*
G01X4902281Y1640424D02*
G01X4902281Y2072424D01*
G01X4642281Y1640424D02*
G01X4642281Y2072424D01*
G01X4642281Y1640424D02*
G01X4902281Y1640424D01*
G01X4642281Y2072424D02*
G01X4902281Y2072424D01*
G01X4567376Y1640424D02*
G01X4567376Y2072424D01*
G01X4307376Y1640424D02*
G01X4307376Y2072424D01*
G01X4307376Y1640424D02*
G01X4567376Y1640424D01*
G01X4307376Y2072424D02*
G01X4567376Y2072424D01*

M02*

