;TYPE=PLATED
;Layer: PTH_Through
;EasyEDA Pro Client v2.2.32.3, 2025-07-09 10:41:46
;Gerber Generator version 0.3
M48
METRIC,LZ,000.00000
;Hole size 1 = 0.30000 METRIC
T01C0.30000
;Hole size 2 = 0.40000 METRIC
T02C0.40000
;Hole size 3 = 0.50000 METRIC
T03C0.50000
;Hole size 4 = 0.80000 METRIC
T04C0.80000
;Hole size 5 = 0.88000 METRIC
T05C0.88000
;Hole size 6 = 0.90000 METRIC
T06C0.90000
;Hole size 7 = 0.92000 METRIC
T07C0.92000
;Hole size 8 = 1.00000 METRIC
T08C1.00000
;Hole size 9 = 1.21920 METRIC
T09C1.21920
;Hole size 10 = 1.52400 METRIC
T10C1.52400
;Hole size 11 = 1.60000 METRIC
T11C1.60000
;Hole size 12 = 1.75001 METRIC
T12C1.75001
;Hole size 13 = 2.30000 METRIC
T13C2.30000
%
G05
G90
T01
X114.5Y18.6
X107.2Y20.50005
X104.9Y24.6
X95.65Y29.65
X111.9Y21.5
X63.0Y65.0
X60.6Y70.0
X61.4Y70.0
X58.3Y72.6
X58.3Y73.4
X91.1Y72.58156
X91.1Y73.38156
X91.1Y74.18155
X91.1Y74.98155
X78.4Y72.53156
X78.4Y73.33156
X78.4Y74.13155
X78.4Y74.93155
X24.99999Y29.93164
X29.79998Y29.93164
X28.99998Y29.93164
X28.19998Y29.93164
X27.39998Y29.93164
X26.59998Y29.93164
X25.79999Y29.93164
X24.19999Y29.93164
X23.39999Y29.93164
X22.59999Y29.93164
X24.99999Y29.13164
X29.79998Y29.13164
X28.99998Y29.13164
X28.19998Y29.13164
X27.39998Y29.13164
X26.59998Y29.13164
X25.79999Y29.13164
X24.19999Y29.13164
X23.39999Y29.13164
X22.59999Y29.13164
X24.99999Y28.33165
X29.79998Y28.33165
X28.99998Y28.33165
X28.19998Y28.33165
X27.39998Y28.33165
X26.59998Y28.33165
X25.79999Y28.33165
X24.19999Y28.33165
X23.39999Y28.33165
X22.59999Y28.33165
X24.99999Y32.33164
X29.79998Y32.33164
X28.99998Y32.33164
X28.19998Y32.33164
X27.39998Y32.33164
X26.59998Y32.33164
X25.79999Y32.33164
X24.19999Y32.33164
X23.39999Y32.33164
X22.59999Y32.33164
X24.99999Y31.53164
X29.79998Y31.53164
X28.99998Y31.53164
X28.19998Y31.53164
X27.39998Y31.53164
X26.59998Y31.53164
X25.79999Y31.53164
X24.19999Y31.53164
X23.39999Y31.53164
X22.59999Y31.53164
X24.99999Y30.73164
X29.79998Y30.73164
X28.99998Y30.73164
X28.19998Y30.73164
X27.39998Y30.73164
X26.59998Y30.73164
X25.79999Y30.73164
X24.19999Y30.73164
X23.39999Y30.73164
X22.59999Y30.73164
X24.99999Y34.73163
X29.79998Y34.73163
X28.99998Y34.73163
X28.19998Y34.73163
X27.39998Y34.73163
X26.59998Y34.73163
X25.79999Y34.73163
X24.19999Y34.73163
X23.39999Y34.73163
X22.59999Y34.73163
X24.99999Y33.93163
X29.79998Y33.93163
X28.99998Y33.93163
X28.19998Y33.93163
X27.39998Y33.93163
X26.59998Y33.93163
X25.79999Y33.93163
X24.19999Y33.93163
X23.39999Y33.93163
X22.59999Y33.93163
X24.99999Y33.13164
X29.79998Y33.13164
X28.99998Y33.13164
X28.19998Y33.13164
X27.39998Y33.13164
X26.59998Y33.13164
X25.79999Y33.13164
X24.19999Y33.13164
X23.39999Y33.13164
X22.59999Y33.13164
X22.59999Y35.53163
X23.39999Y35.53163
X24.19999Y35.53163
X25.79999Y35.53163
X26.59998Y35.53163
X27.39998Y35.53163
X28.19998Y35.53163
X28.99998Y35.53163
X29.79998Y35.53163
X24.99999Y35.53163
X22.59999Y36.33163
X23.39999Y36.33163
X24.19999Y36.33163
X25.79999Y36.33163
X26.59998Y36.33163
X27.39998Y36.33163
X28.19998Y36.33163
X28.99998Y36.33163
X29.79998Y36.33163
X24.99999Y36.33163
X22.59999Y37.13163
X23.39999Y37.13163
X24.19999Y37.13163
X25.79999Y37.13163
X26.59998Y37.13163
X27.39998Y37.13163
X28.19998Y37.13163
X28.99998Y37.13163
X29.79998Y37.13163
X24.99999Y37.13163
X31.2638Y24.6
X30.4638Y24.6
X31.2638Y23.8
X30.4638Y23.8
X32.8638Y23.8
X32.8638Y24.6
X32.0638Y23.8
X32.0638Y24.6
X47.8506Y40.8506
X43.4Y39.1
X43.4Y38.3
X45.0Y39.1
X44.2Y39.1
X45.0Y38.3
X44.2Y38.3
X46.6Y38.3
X46.6Y39.1
X45.8Y38.3
X45.8Y39.1
X40.79999Y48.6
X41.59999Y48.6
X40.79999Y47.8
X41.59999Y47.8
X62.71374Y49.8
X62.71374Y50.6
X62.71374Y51.4
X62.71374Y52.2
X62.71374Y53.0
X62.69998Y53.78159
X62.69998Y54.58159
X62.69998Y55.38159
X62.69998Y56.18158
X62.66374Y57.0
X62.66374Y57.8
X61.91374Y49.8
X61.91374Y50.6
X61.91374Y51.4
X61.91374Y52.2
X61.91374Y53.0
X61.89999Y53.78159
X61.89999Y54.58159
X61.89999Y55.38159
X61.89999Y56.18158
X61.86374Y57.0
X61.86374Y57.8
X61.11374Y49.8
X61.11374Y50.6
X61.11374Y51.4
X61.11374Y52.2
X61.11374Y53.0
X61.09999Y53.78159
X61.09999Y54.58159
X61.09999Y55.38159
X61.09999Y56.18158
X61.06374Y57.0
X61.06374Y57.8
X39.99999Y47.8
X39.19999Y47.8
X39.99999Y48.6
X39.19999Y48.6
X38.39999Y47.8
X38.39999Y48.6
X60.26375Y57.8
X60.26375Y57.0
X60.29999Y56.18158
X60.29999Y55.38159
X60.29999Y54.58159
X60.29999Y53.78159
X60.31375Y53.0
X60.31375Y52.2
X60.31375Y51.4
X60.31375Y50.6
X59.46375Y57.8
X59.46375Y57.0
X59.49999Y56.18158
X59.49999Y55.38159
X59.49999Y54.58159
X59.49999Y53.78159
X59.51375Y53.0
X59.51375Y52.2
X59.51375Y51.4
X59.51375Y50.6
X58.66375Y57.8
X58.66375Y57.0
X58.69999Y56.18158
X58.69999Y55.38159
X58.69999Y54.58159
X58.69999Y53.78159
X58.71375Y53.0
X58.71375Y52.2
X58.71375Y51.4
X58.71375Y50.6
X57.86375Y57.8
X57.86375Y57.0
X57.89999Y56.18158
X57.89999Y55.38159
X57.89999Y54.58159
X57.89999Y53.78159
X57.91375Y53.0
X57.91375Y52.2
X57.91375Y51.4
X57.91375Y50.6
X57.06375Y59.4
X57.06375Y58.6
X57.06375Y57.8
X57.06375Y57.0
X57.1Y56.18158
X57.1Y55.38159
X57.1Y54.58159
X57.1Y53.78159
X57.11375Y53.0
X57.11375Y52.2
X57.11375Y51.4
X57.11375Y50.6
X56.26375Y59.4
X56.26375Y58.6
X56.26375Y57.8
X56.26375Y57.0
X56.3Y56.18158
X56.3Y55.38159
X56.3Y54.58159
X56.3Y53.78159
X56.31375Y53.0
X56.31375Y52.2
X56.31375Y51.4
X56.31375Y50.6
X55.46375Y59.4
X55.46375Y58.6
X55.46375Y57.8
X55.46375Y57.0
X55.5Y56.18158
X55.5Y55.38159
X55.5Y54.58159
X55.5Y53.78159
X55.51375Y53.0
X55.51375Y52.2
X55.51375Y51.4
X55.51375Y50.6
X60.31375Y49.8
X59.51375Y49.8
X58.71375Y49.8
X57.91375Y49.8
X57.11375Y49.8
X56.31375Y49.8
X55.51375Y49.8
X54.71376Y49.8
X54.71376Y50.6
X54.71376Y51.4
X54.71376Y52.2
X54.71376Y53.0
X54.7Y53.78159
X54.7Y54.58159
X54.7Y55.38159
X54.7Y56.18159
X54.66376Y57.0
X54.66376Y57.8
X54.66376Y58.6
X54.66376Y59.4
X41.1Y39.8
X40.3Y39.8
X41.1Y39.0
X40.3Y39.0
X40.3Y34.6
X40.3Y40.6
X41.1Y34.6
X41.1Y40.6
X40.3Y35.4
X40.3Y36.2
X41.1Y35.4
X41.1Y36.2
X63.6Y38.9
X62.838Y38.735
X64.4Y38.9
X64.4Y38.1
X63.6Y39.7
X63.6Y40.5
X64.4Y39.7
X64.4Y40.5
X113.74038Y60.89962
X112.73962Y60.89962
X99.66038Y60.89962
X98.65962Y60.89962
X85.58038Y60.89962
X84.57962Y60.89962
X71.50039Y60.89962
X70.49963Y60.89962
X73.4Y50.6
X76.0Y50.80001
X87.5Y50.6
X102.6Y51.7
X100.3Y49.8
X115.7Y50.5
X114.4Y49.8
X90.0Y50.9
X104.1Y51.1
X119.6Y50.8
X74.0Y45.4
X116.6Y49.9
X102.7Y49.9
X88.2Y50.0
X74.1Y50.0
X93.8Y45.97
X79.7Y44.8
X79.3Y40.9
X107.8Y44.62
X107.5Y40.9
X61.4Y70.8
X61.4Y71.6
X60.6Y70.8
X60.6Y71.6
X59.1Y73.4
X59.9Y73.4
X60.7Y73.4
X59.1Y72.6
X59.9Y72.6
X60.7Y72.6
X45.7Y65.4
X45.7Y66.2
X44.1Y65.4
X44.9Y65.4
X44.1Y66.2
X44.9Y66.2
X31.4884Y50.2062
X31.5Y58.1
X30.6884Y50.2062
X30.7Y58.1
X31.5Y56.5
X31.5Y57.3
X30.7Y56.5
X30.7Y57.3
X76.9Y38.6
X76.9Y39.4
X75.3Y38.6
X76.1Y38.6
X75.3Y39.4
X76.1Y39.4
X108.86Y40.84
X66.5Y60.8
X67.4Y54.7
X81.58Y54.1
X80.58Y60.8
X95.55999Y54.7
X94.65999Y60.8
X108.73999Y60.8
X109.63999Y54.3
X75.0Y45.41161
X68.8Y49.79373
X81.9Y53.2
X90.39369Y47.1
X106.47365Y47.6
X119.4Y47.5
X90.67368Y65.3
X89.9Y65.29157
X90.7Y68.45156
X90.7Y67.65157
X90.7Y66.85157
X90.7Y66.05157
X76.62Y66.05157
X76.62Y66.85157
X76.62Y67.65157
X76.62Y68.45156
X76.59369Y65.3
X104.78Y66.05157
X104.78Y66.85157
X104.78Y67.65157
X104.78Y68.45156
X103.98Y65.29157
X104.75368Y65.3
X118.85999Y66.05157
X118.85999Y66.85157
X118.85999Y67.65157
X118.85999Y68.45156
X117.26Y65.29157
X118.06Y65.29157
X118.83368Y65.3
X99.2Y15.5
X78.8Y59.81158
X78.0Y59.81158
X77.2Y59.81158
X92.99368Y59.8
X92.19368Y59.8
X91.39368Y59.8
X107.09365Y59.8
X106.29365Y59.8
X105.49365Y59.8
X2.5Y69.6
X1.8Y69.6
X2.5Y70.3
X1.8Y70.3
X2.9923Y66.85688
X2.2923Y66.85688
X1.5923Y66.85688
X30.6884Y51.0062
X30.6884Y51.8062
X31.4884Y51.0062
X31.4884Y51.8062
X30.7Y52.6
X30.7Y53.4
X31.5Y52.6
X31.5Y53.4
X66.4Y40.5
X66.4Y39.7
X65.6Y40.5
X65.6Y39.7
X66.4Y38.1
X66.4Y38.9
X65.6Y38.1
X65.6Y38.9
X28.3Y42.7
X27.5Y42.7
X28.4Y41.9
X27.6Y41.9
X29.1Y42.7
X29.9Y42.7
X29.2Y41.9
X30.0Y41.9
X36.0Y48.6
X35.2Y48.6
X36.0Y47.8
X35.2Y47.8
X36.8Y48.6
X37.6Y48.6
X36.8Y47.8
X37.6Y47.8
X46.5Y66.2
X46.5Y65.4
X71.50039Y50.19962
X74.5Y51.90001
X85.95972Y50.04028
X88.6Y51.6
X101.1Y51.1
X100.9Y43.7
X117.4Y50.6
X70.1Y51.6
X69.4Y52.3
X70.8Y50.9
X84.88Y50.9
X83.48Y52.3
X84.18Y51.6
X98.96Y50.9
X97.56Y52.3
X98.25999Y51.6
X113.03999Y50.9
X111.63999Y52.3
X112.33999Y51.6
X85.4Y45.5
X95.8Y53.4
X110.1Y53.3
X118.5Y58.05159
X119.3Y58.05159
X118.5Y58.85158
X119.3Y58.85158
X120.1Y58.05159
X120.1Y58.85158
X118.5Y56.45159
X119.3Y56.45159
X118.5Y57.25159
X119.3Y57.25159
X120.1Y56.45159
X120.1Y57.25159
X98.2Y39.4
X95.9Y38.7
X93.2Y40.9
X85.6Y40.2
X81.3Y40.2
X93.8Y37.7
X78.10011Y31.4
X76.1Y30.4
X76.1Y24.3
X76.1Y26.3
X76.07475Y28.4
X81.3Y30.4
X81.3Y29.4
X90.5Y23.4
X94.2Y23.3
X96.2Y23.3
X97.8998Y26.29981
X71.9Y31.4
X68.9Y19.0
X81.1Y32.7
X81.3Y28.3
X72.3Y44.2
X93.65Y33.55
X79.4Y20.8
X78.5Y20.3
X92.9Y29.0
X102.4Y18.0
X91.35Y32.35
X96.1Y31.9
X82.0Y38.4
X79.7Y39.1
X71.2Y32.8
X99.4Y23.4
X100.4Y17.0
X10.1Y30.5
X10.1Y29.7
X11.7Y29.7
X12.5Y29.7
X11.7Y30.5
X12.5Y30.5
X10.9Y29.7
X10.9Y30.5
X107.9Y25.9
X107.1Y25.9
X107.1Y24.3
X107.1Y23.5
X107.9Y24.3
X107.9Y23.5
X107.1Y25.1
X107.9Y25.1
X82.4Y23.3
X87.8Y28.6
X89.5Y37.8
X74.81372Y16.3
X74.81372Y15.7
X108.5Y36.63163
X108.46365Y34.7
X95.0Y33.5
X68.0Y34.1
X37.1Y20.2
X46.6384Y28.0784
X45.3Y28.84
X81.71276Y27.41276
X81.7Y26.3
X69.5Y19.7
X68.9Y20.5
X50.6Y29.0
X50.6Y27.1
X51.9Y19.8
X52.5Y63.79995
X40.6Y68.5
X15.06578Y70.46578
X12.4Y74.98155
X27.46381Y20.34991
X27.41381Y21.8
X20.66382Y19.4
X17.03383Y20.4
X17.41383Y26.11381
X66.75205Y28.19583
X66.76048Y27.44368
X66.76648Y29.4925
X66.78148Y30.12244
X66.78148Y28.87755
X67.38899Y28.19583
X67.39743Y27.44368
X67.40343Y29.4925
X67.41843Y28.87755
X67.41843Y30.12244
X68.02594Y28.19583
X68.03437Y27.44368
X68.04037Y29.4925
X68.05537Y30.12244
X68.05537Y28.87755
X68.66288Y28.19583
X68.67132Y27.44368
X68.67732Y29.4925
X68.69232Y28.87755
X68.69232Y30.12244
X70.60946Y25.79507
X69.88952Y25.87006
X69.22958Y26.13104
X69.18458Y25.3631
X68.52118Y25.97763
X67.8797Y26.02305
X69.44256Y24.72116
X68.81562Y23.52426
X68.03268Y23.44627
X67.41774Y23.0623
X66.61318Y23.21673
X65.94786Y23.23329
X65.2766Y23.37425
X67.31275Y22.31237
X67.26475Y21.52944
X69.44256Y23.0773
X70.25549Y23.00231
X69.64354Y22.40236
X70.42648Y22.12638
X69.93452Y21.62243
X69.25958Y21.76042
X70.43889Y31.35625
X69.81158Y31.33326
X69.19058Y31.51857
X68.55464Y31.57857
X67.95469Y31.68056
X67.24675Y31.65956
X66.52981Y31.56957
X69.72617Y32.10955
X69.10517Y32.27316
X68.35066Y32.3135
X63.88704Y34.32033
X64.16302Y33.5224
X64.55096Y34.09815
X54.40486Y26.587
X54.65984Y25.92406
X54.05689Y25.92406
X53.16814Y34.36681
X54.58809Y31.88604
X55.41578Y31.78855
X54.0359Y34.93527
X54.83327Y35.25925
X55.07981Y35.94919
X55.76975Y35.11826
X56.81192Y35.35925
X57.4256Y35.64021
X58.34652Y35.51722
X54.31177Y35.67651
X56.96364Y36.13217
X44.09059Y30.77767
X43.12884Y30.90062
X44.46973Y30.13269
X34.4678Y24.1393
X34.71322Y24.7176
X33.76365Y24.40319
X42.18092Y30.94262
X54.63284Y24.2862
X81.06719Y22.00151
X90.77874Y59.15506
X91.57873Y59.15506
X92.37873Y59.15506
X91.10271Y58.55811
X91.90271Y58.55811
X92.70271Y58.55811
X90.66475Y57.93716
X91.46474Y57.93716
X92.26474Y57.93716
X90.91672Y57.29222
X91.71672Y57.29222
X92.51672Y57.29222
X90.64075Y56.69527
X91.44075Y56.69527
X92.24075Y56.69527
X91.00672Y56.08332
X91.80672Y56.08332
X92.60671Y56.08332
X90.66175Y55.52837
X91.46174Y55.52837
X92.26174Y55.52837
X90.93772Y54.93142
X91.73772Y54.93142
X92.53772Y54.93142
X90.96172Y54.21748
X91.76172Y54.21748
X92.56172Y54.21748
X118.96429Y55.80735
X119.76429Y55.80735
X120.56429Y55.80735
X119.05729Y55.07241
X119.85728Y55.07241
X120.65728Y55.07241
X119.16528Y54.30448
X119.96527Y54.30448
X120.76527Y54.30448
X119.28527Y53.58454
X120.08526Y53.58454
X120.88526Y53.58454
X125.97769Y64.4316
X126.77768Y64.4316
X127.57768Y64.4316
X126.29866Y63.69666
X127.09866Y63.69666
X127.89865Y63.69666
X125.65671Y62.38278
X126.45671Y62.38278
X127.25671Y62.38278
X126.9226Y61.78583
X127.7226Y61.78583
X128.5226Y61.78583
X126.75762Y48.278
X127.55762Y48.278
X128.35761Y48.278
X126.85061Y47.60906
X127.65061Y47.60906
X128.45061Y47.60906
X126.57463Y40.40968
X127.37463Y40.40968
X128.17463Y40.40968
X124.6278Y24.52906
X125.4278Y24.52906
X126.2278Y24.52906
X124.6878Y27.4898
X125.4878Y27.4898
X126.28779Y27.4898
X126.43665Y29.59262
X127.23664Y29.59262
X128.03664Y29.59262
X109.75209Y16.83472
X110.55209Y16.83472
X111.35209Y16.83472
X109.72209Y16.09979
X110.52209Y16.09979
X111.32209Y16.09979
X95.10136Y15.59283
X95.90136Y15.59283
X96.70136Y15.59283
X95.26935Y14.91789
X96.06935Y14.91789
X96.86934Y14.91789
X88.49293Y15.68282
X89.29293Y15.68282
X90.09293Y15.68282
X88.39994Y14.73191
X89.19994Y14.73191
X89.99994Y14.73191
X88.29195Y13.658
X89.09195Y13.658
X89.89195Y13.658
X78.63715Y12.18069
X79.43715Y12.18069
X80.23715Y12.18069
X75.47406Y59.09206
X76.27406Y59.09206
X77.07406Y59.09206
X77.95785Y59.04707
X78.75785Y59.04707
X79.55784Y59.04707
X75.61205Y58.38112
X76.41205Y58.38112
X77.21205Y58.38112
X67.76994Y51.34115
X67.76994Y52.14115
X67.76994Y52.94115
X78.07484Y58.19814
X78.87484Y58.19814
X79.67483Y58.19814
X77.3639Y60.75092
X78.1639Y60.75092
X78.9639Y60.75092
X93.6607Y57.38863
X93.6607Y58.18863
X93.6607Y58.98863
X89.79703Y56.91467
X89.79703Y57.71467
X89.79703Y58.51467
X103.54863Y59.90499
X104.39662Y60.00998
X105.91656Y59.13706
X103.61162Y58.53711
X104.41162Y58.53711
X105.21162Y58.53711
X106.01742Y58.47711
X106.81741Y58.47711
X107.61741Y58.47711
X103.50363Y59.18205
X104.30363Y59.18205
X105.10363Y59.18205
X107.70627Y60.17797
X107.26438Y59.18205
X108.06437Y59.18205
X103.42564Y57.31022
X103.73668Y56.56028
X104.07772Y57.82917
X108.33321Y56.96225
X105.96549Y53.43455
X106.67249Y52.94259
X108.27229Y68.55924
X100.84793Y67.64432
X100.38897Y68.24727
X101.29789Y68.39126
X100.83893Y68.88021
X94.2995Y68.55324
X96.72329Y68.59524
X85.89723Y68.96721
X85.91223Y68.16927
X79.44179Y68.56824
X81.11264Y68.50825
X76.39405Y69.0362
X71.81345Y68.59824
X71.81165Y67.83823
X67.22085Y68.56224
X103.80769Y47.17426
X103.60769Y46.34917
T02
X67.75Y58.3
X74.30707Y58.25707
X71.00001Y57.09987
X72.1Y57.09987
X69.90001Y57.09987
X71.00001Y55.99988
X72.1Y55.99988
X69.90001Y55.99988
X71.00001Y54.89988
X72.1Y54.89988
X69.90001Y54.89988
X83.98Y54.89988
X86.18Y54.89988
X85.08Y54.89988
X83.98Y55.99988
X86.18Y55.99988
X85.08Y55.99988
X83.98Y57.09987
X86.18Y57.09987
X85.08Y57.09987
X88.38707Y58.25707
X81.83Y58.3
X98.06Y54.89988
X100.26Y54.89988
X99.16Y54.89988
X98.06Y55.99988
X100.26Y55.99988
X99.16Y55.99988
X98.06Y57.09987
X100.26Y57.09987
X99.16Y57.09987
X102.46707Y58.25707
X95.90999Y58.3
X112.14Y54.89988
X114.33999Y54.89988
X113.24Y54.89988
X112.14Y55.99988
X114.33999Y55.99988
X113.24Y55.99988
X112.14Y57.09987
X114.33999Y57.09987
X113.24Y57.09987
X116.54706Y58.25707
X109.98999Y58.3
T03
X72.4Y34.1
X60.198Y21.717
X62.865Y24.384
T04
X17.2Y49.9716
X53.8Y40.8
X57.0Y37.8
X110.7Y28.4
X122.8Y33.6
X17.19383Y48.5
X82.72Y24.8
X85.26Y24.8
X87.8Y24.8
X90.34Y24.8
X116.48Y43.4
X113.94Y43.4
X111.4Y43.4
X108.86Y43.4
X88.14Y43.4
X85.6Y43.4
X83.06Y43.4
X80.52Y43.4
X102.23Y44.6
X99.69Y44.6
X97.15Y44.6
X94.61Y44.6
X78.50002Y16.3
X86.12002Y13.76
X102.23Y41.6
X99.69Y41.6
X97.15Y41.6
X94.61Y41.6
X119.34Y39.09999
X119.34Y36.55999
X116.8Y39.09999
X116.8Y36.55999
X114.26Y39.09999
X114.26Y36.55999
T05
X127.4Y60.4
X127.4Y57.76
X5.29Y27.77G85X10.11Y27.77
X5.29Y34.97G85X10.11Y34.97
T06
X127.39998Y52.4
X127.39998Y49.86
X127.39998Y44.5
X127.39998Y41.96
X40.30002Y12.66
X40.30002Y15.2
X40.30002Y17.74
X46.50002Y12.66
X46.50002Y15.2
X46.50002Y17.74
X15.9Y15.27
X15.9Y12.73
X22.0Y15.27
X22.0Y12.73
X52.60002Y12.66
X52.60002Y15.2
X52.60002Y17.74
X58.70002Y12.66
X58.70002Y15.2
X58.70002Y17.74
X28.1Y15.27
X28.1Y12.73
X64.80002Y12.66
X64.80002Y15.2
X64.80002Y17.74
X70.90002Y12.66
X70.90002Y15.2
X70.90002Y17.74
X34.2Y15.27
X34.2Y12.73
X127.39998Y31.52001
X127.39998Y34.06001
X127.39998Y36.60001
X127.4Y21.06
X127.4Y23.6
X127.4Y26.14
X67.47996Y73.5
X70.01996Y73.5
X72.55996Y73.5
X75.09996Y73.5
X80.25996Y73.5
X82.79996Y73.5
X85.33996Y73.5
X87.87996Y73.5
X93.01996Y73.5
X95.55996Y73.5
X98.09996Y73.5
X100.63996Y73.5
X105.79996Y73.5
X108.33996Y73.5
X110.87996Y73.5
X113.41996Y73.5
T07
X7.955Y15.35
X7.955Y17.85
X9.955Y17.85
X9.955Y15.35
T08
X65.73376Y70.74838
X78.50002Y13.76
X83.58002Y16.3
X86.12002Y16.3
X83.58002Y13.76
X81.04002Y16.3
X81.04002Y13.76
X7.618Y56.534G85X8.918Y56.534
X2.918Y56.534G85X4.218Y56.534
X7.618Y46.934G85X8.918Y46.934
X2.918Y46.934G85X4.218Y46.934
X4.068Y50.584G85X4.068Y52.884
T09
X41.19999Y71.8
X31.19999Y71.8
X26.19999Y71.8
X36.19999Y71.8
X110.6Y14.2
X115.6Y14.2
T10
X21.41321Y72.2
X17.40001Y72.2
T11
X10.068Y51.734
T12
X7.90023Y60.52147
X7.90023Y64.48166
T13
X5.245Y10.58
X5.245Y22.62
M30