;TYPE=PLATED
;Layer: PTH_Through
;EasyEDA Pro Client v2.2.32.3, 2025-12-26 18:00:11
;Gerber Generator version 0.3
M48
METRIC,LZ,000.00000
;Hole size 1 = 0.30000 METRIC
T01C0.30000
;Hole size 2 = 0.80000 METRIC
T02C0.80000
;Hole size 3 = 0.90000 METRIC
T03C0.90000
;Hole size 4 = 1.00000 METRIC
T04C1.00000
;Hole size 5 = 1.09982 METRIC
T05C1.09982
;Hole size 6 = 1.10002 METRIC
T06C1.10002
;Hole size 7 = 1.80000 METRIC
T07C1.80000
;Hole size 8 = 2.50002 METRIC
T08C2.50002
%
G05
G90
T01
X78.99227Y18.76117
X97.0975Y30.13432
X96.28149Y31.00133
X123.26084Y41.81347
X99.95354Y17.38415
X130.40093Y42.68048
X105.81861Y16.61914
X113.11171Y32.63335
X102.91157Y18.65917
X120.0478Y42.73148
X118.61978Y39.67144
X120.2008Y47.98455
X118.00777Y44.2105
X121.47581Y43.39449
X118.10977Y42.78248
X112.1172Y32.55685
X105.25761Y25.74826
X109.23566Y21.1582
X112.6527Y18.76117
X100.87155Y24.21824
X100.05554Y28.6043
X100.15754Y29.57331
X108.16464Y30.03232
X109.74566Y32.63335
X118.10977Y31.91934
X95.92448Y32.63335
X128.71791Y38.70243
X123.71984Y29.11431
X116.70286Y42.93548
X120.4048Y20.7502
X101.48356Y30.28732
X99.29053Y32.48035
X109.23566Y22.43322
X108.47065Y18.81217
X99.08653Y21.3112
X110.25567Y48.99842
X116.93676Y49.25957
X123.87285Y65.63078
X124.28085Y67.1608
X108.98065Y79.85996
X113.16271Y80.11497
X125.40287Y67.6198
X126.32088Y67.97681
X117.54876Y81.44098
X102.45257Y42.01747
X108.11364Y64.10076
X108.57265Y62.62174
X105.30861Y62.80437
X105.30861Y55.73665
X108.67465Y58.54169
X105.35961Y64.71277
X103.77859Y64.71277
X99.36703Y41.78797
X81.8483Y16.51714
X84.44934Y18.55717
X83.07232Y53.08462
X83.32731Y49.71858
X86.84637Y30.69533
X86.13236Y31.40934
X81.7973Y52.98261
X82.0523Y49.61657
X124.43385Y50.53458
X122.49583Y35.94839
X114.74373Y25.69726
X110.25567Y25.44226
X120.4558Y39.46744
X126.77988Y40.58945
X128.46291Y39.67144
X113.97872Y61.49972
X103.98259Y21.56621
X105.76761Y21.2602
X120.6088Y29.98132
X116.73275Y26.25827
X113.21371Y22.38222
X104.18659Y25.23826
X101.84056Y21.82121
X96.9445Y20.03619
X89.0904Y20.18919
X117.20955Y59.53646
X117.87256Y60.76047
X118.16156Y59.53646
X118.82457Y60.76047
X119.11357Y59.53646
X119.77658Y60.76047
X120.06558Y59.53646
X120.72859Y60.76047
X117.00554Y57.19043
X117.66855Y58.41444
X117.95756Y57.19043
X118.62057Y58.41444
X118.90957Y57.19043
X119.57258Y58.41444
X119.86158Y57.19043
X120.52459Y58.41444
X117.15855Y54.7934
X117.82156Y56.01741
X118.11056Y54.7934
X118.77357Y56.01741
X119.06257Y54.7934
X119.72558Y56.01741
X120.01458Y54.7934
X120.67759Y56.01741
X117.56655Y52.14136
X118.22956Y53.36538
X118.51856Y52.14136
X119.18157Y53.36538
X119.47058Y52.14136
X120.13358Y53.36538
X120.42259Y52.14136
X121.0856Y53.36538
X122.10561Y56.93542
X122.76862Y58.15944
X123.05762Y56.93542
X123.72063Y58.15944
X124.00964Y56.93542
X124.67264Y58.15944
X124.96165Y56.93542
X125.62466Y58.15944
X123.07462Y54.74239
X123.73763Y55.96641
X124.02664Y54.74239
X124.68964Y55.96641
X124.97865Y54.74239
X125.64166Y55.96641
X125.93066Y54.74239
X126.59367Y55.96641
X128.8377Y51.07035
X129.50071Y52.29436
X129.78971Y51.07035
X130.45272Y52.29436
X130.74172Y51.07035
X131.40473Y52.29436
X131.69373Y51.07035
X132.35674Y52.29436
X127.25668Y48.46931
X127.91969Y49.69333
X128.20869Y48.46931
X128.8717Y49.69333
X129.1607Y48.46931
X129.82371Y49.69333
X130.11271Y48.46931
X130.77572Y49.69333
X75.236Y35.51515
X75.74601Y34.75014
X76.18802Y35.51515
X76.69802Y34.75014
X77.14003Y35.51515
X77.65004Y34.75014
X78.09204Y35.51515
X78.60205Y34.75014
X68.04491Y34.29113
X71.51296Y34.95414
X68.63992Y34.90314
X69.30293Y36.12715
X69.59193Y34.90314
X70.25494Y36.12715
X70.54394Y34.90314
X71.20695Y36.12715
X65.34188Y1.3957
X66.00488Y2.61972
X66.29389Y1.3957
X66.9569Y2.61972
X67.2459Y1.3957
X67.90891Y2.61972
X68.19791Y1.3957
X68.86092Y2.61972
X60.54781Y1.3447
X66.8209Y7.36278
X61.49983Y1.3447
X70.27194Y7.15878
X62.45184Y1.3447
X68.36792Y7.51578
X63.40385Y1.3447
X70.13594Y5.11875
X107.00867Y35.83139
X101.22855Y32.37835
X103.52358Y32.48035
X108.59877Y32.55747
X108.11364Y38.03942
X104.28859Y36.86641
X114.02972Y30.08332
X109.74566Y23.60623
X110.35767Y24.11624
X110.86768Y26.56427
X110.76568Y28.09429
X68.97038Y40.14824
X68.97038Y41.10025
X69.58239Y40.53924
X68.97038Y42.05226
X69.58239Y41.49125
X68.97038Y43.00427
X69.58239Y42.44327
X91.82664Y37.96266
X90.72163Y37.91166
X89.56561Y37.75866
X92.03065Y37.09565
X103.85483Y60.6505
X111.45393Y58.81448
X103.85483Y61.60251
X102.63081Y62.26552
X103.85483Y62.55453
X102.63081Y63.21753
X103.85483Y63.50654
X102.63081Y64.16955
X103.70423Y54.92606
X102.48022Y55.58907
X103.70423Y55.87808
X102.48022Y56.54109
X103.70423Y56.83009
X102.48022Y57.4931
X103.70423Y57.7821
X102.48022Y58.44511
X107.58742Y79.32471
X119.87858Y82.58876
X119.98058Y83.45577
X118.39956Y83.65977
X111.97378Y80.25107
X107.57192Y80.13027
X64.53527Y29.82
X65.17221Y29.82
X65.80916Y29.82
X66.4461Y29.82
X64.53527Y29.19967
X65.17221Y29.19967
X65.80916Y29.19967
X66.4461Y29.19967
X64.53527Y28.57935
X65.17221Y28.57935
X65.80916Y28.57935
X66.4461Y28.57935
X64.53527Y27.95902
X65.17221Y27.95902
X65.80916Y27.95902
X66.4461Y27.95902
X64.53527Y27.3387
X65.17221Y27.3387
X65.80916Y27.3387
X66.4461Y27.3387
X61.51683Y31.18009
X62.46884Y31.18009
X63.42085Y31.18009
X62.33284Y32.2511
X65.88588Y31.38409
X64.74687Y31.43509
X62.28184Y34.64813
X63.38685Y35.46415
X69.03092Y33.98513
X61.42228Y28.21408
X61.42228Y29.16609
X61.42228Y30.11811
X61.32028Y25.40904
X61.32028Y26.36106
X61.32028Y27.31307
X62.15364Y25.67962
X63.10565Y25.67962
X64.05766Y25.67962
X60.85382Y24.091
X61.80583Y24.091
X62.75784Y24.091
X63.61457Y24.7098
X64.56658Y24.7098
X65.51859Y24.7098
X61.97583Y22.96898
X62.92784Y22.96898
X63.87986Y22.96898
X61.56783Y21.89797
X62.51984Y21.89797
X63.47185Y21.89797
X62.03171Y21.13129
X62.98372Y21.13129
X63.93574Y21.13129
X61.41661Y20.22067
X62.36863Y20.22067
X63.32064Y20.22067
X61.72083Y17.76692
X62.67284Y17.76692
X63.62485Y17.76692
X61.70462Y16.97666
X62.65663Y16.97666
X63.60864Y16.97666
X61.6884Y16.10774
X62.64042Y16.10774
X63.59243Y16.10774
X80.13952Y96.79297
X76.68285Y96.79297
X77.83508Y96.79297
X78.9873Y96.79297
X75.53063Y96.79297
X74.37841Y96.79297
X73.22619Y96.79297
X72.07396Y96.79297
X86.98499Y96.79297
X85.83276Y96.79297
X84.68054Y96.79297
X83.52832Y96.79297
X82.3761Y96.79297
X85.59659Y95.56895
X82.13992Y95.56895
X83.29215Y95.56895
X84.44437Y95.56895
X80.9877Y95.56895
X79.83548Y95.56895
X78.68326Y95.56895
X77.53103Y95.56895
X101.73555Y98.833
X100.58333Y98.833
X132.20027Y87.84149
X129.81462Y88.7595
X130.96684Y88.7595
X131.30305Y79.37538
X128.66239Y88.7595
X127.51017Y88.7595
X126.35795Y88.7595
X132.52551Y78.30436
X129.06884Y78.30436
X130.22106Y78.30436
X131.37329Y78.30436
X127.91662Y78.30436
X126.76439Y78.30436
X130.71224Y76.92734
X129.66202Y79.52838
X133.18021Y30.69611
X129.72354Y30.69611
X126.1837Y29.16609
X125.1429Y29.11509
X128.57132Y30.69611
X127.41909Y30.69611
X128.2049Y29.6251
X126.95067Y29.8291
X125.49049Y23.86202
X124.49126Y22.38301
X111.65989Y11.41786
X112.6497Y11.51987
X114.09851Y11.62187
X115.95336Y24.88204
X116.28016Y23.81102
X126.65409Y21.618
X125.50186Y21.618
X124.34964Y21.618
X133.28221Y20.44498
X129.46854Y11.77487
X130.97776Y20.44498
X132.12999Y20.44498
X116.84117Y22.281
X115.68894Y22.281
X126.36887Y20.44498
X127.00167Y19.62897
X127.37751Y10.14285
X126.59171Y9.73484
X132.44737Y10.29585
X131.29515Y10.29585
X130.14292Y10.29585
X128.9907Y10.29585
X123.49008Y8.30682
X122.33786Y8.30682
X124.64427Y9.22484
X124.29923Y10.39544
X125.51128Y10.85686
X100.22633Y10.88183
X100.88934Y12.10584
X101.17834Y10.88183
X101.84135Y12.10584
X102.13035Y10.88183
X102.79336Y12.10584
X103.08236Y10.88183
X103.74537Y12.10584
X99.66532Y8.22979
X100.32833Y9.45381
X100.61733Y8.22979
X101.28034Y9.45381
X101.56934Y8.22979
X102.23235Y9.45381
X102.52136Y8.22979
X103.18437Y9.45381
X107.26442Y10.77983
X107.92743Y12.00384
X108.21643Y10.77983
X108.87944Y12.00384
X109.16844Y10.77983
X109.83145Y12.00384
X110.12046Y10.77983
X110.78346Y12.00384
X106.70341Y8.12779
X107.36642Y9.35181
X107.65542Y8.12779
X108.31843Y9.35181
X108.60744Y8.12779
X109.27044Y9.35181
X109.55945Y8.12779
X110.22246Y9.35181
X103.89837Y4.91475
X104.56138Y6.13877
X104.85039Y4.91475
X105.5134Y6.13877
X105.8024Y4.91475
X106.46541Y6.13877
X106.75441Y4.91475
X107.41742Y6.13877
X103.33737Y2.26272
X104.00038Y3.48673
X104.28938Y2.26272
X104.95239Y3.48673
X105.24139Y2.26272
X105.9044Y3.48673
X106.1934Y2.26272
X106.85641Y3.48673
X110.98747Y8.6888
X111.65048Y9.91281
X111.93948Y8.6888
X112.60249Y9.91281
X112.89149Y8.6888
X113.5545Y9.91281
X113.8435Y8.6888
X114.50651Y9.91281
X110.42646Y6.03676
X111.08947Y7.26078
X111.37847Y6.03676
X112.04148Y7.26078
X112.33048Y6.03676
X112.99349Y7.26078
X113.2825Y6.03676
X113.9455Y7.26078
X70.78536Y19.33435
X71.44837Y20.55837
X71.73737Y19.33435
X72.40038Y20.55837
X72.68939Y19.33435
X73.3524Y20.55837
X73.6414Y19.33435
X74.30441Y20.55837
X70.22436Y16.68232
X70.88736Y17.90633
X71.17637Y16.68232
X71.83938Y17.90633
X72.12838Y16.68232
X72.79139Y17.90633
X76.54844Y15.86631
X77.56845Y17.19233
X70.39094Y10.42282
X73.43398Y13.17686
X77.31003Y15.06388
X74.38599Y13.17686
X75.049Y14.40087
X75.33801Y13.17686
X76.00101Y14.40087
X71.92096Y10.52482
X72.58397Y11.74884
X72.87297Y10.52482
X73.53598Y11.74884
X73.82499Y10.52482
X74.48799Y11.74884
X74.777Y10.52482
X75.44001Y11.74884
X59.63252Y1.59575
X59.63252Y2.54776
X59.63252Y3.49977
X74.067Y97.89369
X76.85504Y97.99569
X72.85998Y97.89369
X79.23144Y93.78235
X81.53589Y93.78235
X82.68811Y93.78235
X83.84033Y93.78235
X84.99256Y93.78235
X80.38366Y93.78235
X76.927Y93.78235
X78.07922Y93.78235
X133.15418Y84.87385
X133.15418Y82.56941
X133.15418Y81.41719
X133.15418Y80.26496
X133.15418Y79.11274
X133.15418Y83.72163
X133.15418Y87.1783
X133.15418Y86.02608
X133.20518Y74.67372
X133.20518Y72.36928
X133.20518Y71.21705
X133.20518Y70.06483
X133.20518Y68.91261
X133.20518Y73.5215
X132.28717Y76.97817
X133.20518Y75.82594
X78.27904Y26.02902
X79.23106Y26.02902
X80.18307Y26.02902
X78.03555Y27.31386
X78.98757Y27.31386
X79.93958Y27.31386
X78.17704Y28.42605
X79.12905Y28.42605
X80.08107Y28.42605
X82.50456Y27.14382
X82.48756Y29.43885
X83.43957Y29.43885
X81.64509Y26.59003
X83.20911Y28.32405
X84.16112Y28.32405
X79.04405Y25.26401
X79.99607Y25.26401
X80.94808Y25.26401
X86.74515Y25.97802
X87.54416Y26.59003
X86.79615Y24.80501
X87.54416Y25.41702
X88.39417Y25.77402
X88.40163Y35.28617
X88.40163Y36.23819
X88.60563Y37.1392
X97.50629Y38.01418
X98.4583Y38.01418
X99.41032Y38.01418
X108.08788Y39.36623
X108.08788Y40.31824
X108.08788Y41.27025
X113.64696Y41.66126
X113.64696Y42.61327
X113.64696Y43.56528
X119.84458Y50.66234
X120.79659Y50.66234
X121.74861Y50.66234
X122.24161Y52.24336
X123.19362Y52.24336
X124.14564Y52.24336
X122.08861Y59.12845
X123.04062Y59.12845
X123.99263Y59.12845
X122.70062Y60.19947
X123.65263Y60.19947
X124.60464Y60.19947
X125.76066Y59.48546
X126.71267Y59.48546
X127.66468Y59.48546
X133.35976Y67.84956
X131.55773Y67.90057
X132.50975Y67.90057
X131.72774Y64.89153
X132.67975Y64.89153
X133.27476Y66.42155
X108.72644Y55.3034
X101.92635Y60.70947
X102.87836Y60.70947
X107.39941Y60.77617
X109.01443Y53.68708
X109.96644Y53.68708
X113.18027Y61.10793
X114.9993Y61.10793
X111.41225Y57.99689
X108.93966Y59.52691
X108.42021Y54.17184
X108.96422Y60.59793
X106.43141Y60.76047
X110.23946Y64.78952
X111.29347Y64.78952
X111.42947Y61.05771
X109.62745Y57.33466
X111.39547Y59.98669
X117.03954Y60.45447
X109.83145Y62.5965
X113.02749Y60.25047
X112.5507Y49.92257
X110.23017Y44.236
X67.29114Y15.54491
X18.42127Y47.80631
X19.37328Y47.80631
X20.32529Y47.80631
X21.27731Y47.80631
X102.22659Y48.64434
X79.09427Y51.09237
X123.09391Y84.16944
X122.57555Y82.68923
X122.88155Y83.45424
X123.13655Y85.69827
X124.12916Y85.69163
X99.07031Y61.27048
X101.11034Y61.16848
X99.01931Y54.69139
X99.88632Y54.28339
X105.35961Y58.89869
X100.03932Y61.32148
X99.73332Y60.55647
X103.66037Y65.86054
X102.85839Y65.18754
X105.39439Y57.75143
X120.5578Y76.69792
X127.13689Y80.01296
X21.48819Y81.30284
X20.41718Y81.40484
X18.93816Y80.89483
X17.81615Y80.63983
X15.11311Y80.58883
X31.47147Y70.30553
X31.72647Y71.17254
X32.49148Y70.40753
X120.68156Y38.09249
X118.40451Y37.95251
X118.28453Y36.81748
X120.75921Y36.61198
X127.56665Y41.40754
X131.9527Y42.27455
X131.03469Y41.71354
X132.71867Y41.48751
X131.7487Y43.65157
X132.87071Y43.85557
X132.92172Y42.73355
X131.9017Y47.83362
X131.28969Y48.64963
X132.46271Y48.85363
X132.00957Y49.96035
X126.34263Y49.26164
X125.88362Y48.29263
X130.88169Y53.6477
X132.30971Y53.59669
X131.9527Y54.82071
X132.1057Y60.94079
X132.1057Y59.66577
X132.1057Y58.39076
X132.0547Y57.11574
X132.15671Y55.94273
X127.31164Y58.23776
X127.26064Y57.16674
X121.49072Y55.02149
X122.36458Y53.39269
X126.24063Y60.58379
X127.36264Y60.58379
X127.56665Y56.09573
X123.6396Y53.29069
X113.98648Y62.90752
X111.37847Y62.28172
X64.41383Y50.94966
X44.21757Y10.30213
X33.04843Y8.61911
X42.63655Y12.38814
X101.28731Y44.42157
X109.19241Y46.5636
X55.48872Y14.79019
X58.80376Y11.27115
X73.95096Y46.1556
X64.00583Y51.96967
X62.42481Y52.17368
X62.42481Y53.29569
X62.42481Y54.3667
X61.35379Y54.3667
X61.14979Y55.33572
X60.02778Y55.33572
X59.87477Y56.40673
X66.86187Y60.63978
X33.25243Y58.80376
X72.62494Y70.17691
X72.87994Y67.88188
X88.69015Y51.56167
X73.79796Y72.21693
X73.69595Y74.25696
X112.3467Y62.57781
X75.63398Y77.215
X82.46807Y77.92901
X70.68691Y78.44871
X77.623Y81.34605
X107.71339Y87.67013
X111.92175Y87.67013
X121.27181Y87.82314
X96.08524Y39.0155
X97.66626Y81.29505
X112.86446Y67.42287
X116.58751Y64.46483
X34.83345Y57.47774
X63.49582Y75.83798
X66.98937Y74.33346
X65.89285Y79.10202
X67.98388Y71.75793
X122.86059Y38.8115
X123.8806Y41.05553
X124.39061Y39.0155
X124.74761Y40.44352
X55.34575Y46.42929
X55.85575Y45.66428
X56.29776Y46.42929
X56.80777Y45.66428
X57.24977Y46.42929
X57.75978Y45.66428
X58.20178Y46.42929
X58.71179Y45.66428
X86.01415Y61.53502
X86.52415Y60.77001
X86.96616Y61.53502
X87.47617Y60.77001
X87.91817Y61.53502
X88.42818Y60.77001
X88.87019Y61.53502
X89.38019Y60.77001
X60.48019Y62.83499
X60.9902Y62.06998
X61.4322Y62.83499
X61.94221Y62.06998
X62.38421Y62.83499
X62.89422Y62.06998
X63.33623Y62.83499
X63.84623Y62.06998
X87.88417Y72.84763
X88.39417Y72.08262
X88.83618Y72.84763
X89.34619Y72.08262
X89.78819Y72.84763
X90.2982Y72.08262
X90.7402Y72.84763
X91.25021Y72.08262
X86.91516Y75.90767
X87.42516Y75.14266
X87.86717Y75.90767
X88.37717Y75.14266
X88.81918Y75.90767
X89.32919Y75.14266
X89.77119Y75.90767
X90.2812Y75.14266
X87.88417Y85.08779
X88.39417Y84.32278
X88.83618Y85.08779
X89.34619Y84.32278
X89.78819Y85.08779
X90.2982Y84.32278
X90.7402Y85.08779
X91.25021Y84.32278
X46.98164Y46.02128
X47.08364Y44.59326
X47.64465Y47.2453
X43.56459Y43.36925
X44.1256Y46.02128
X44.2276Y44.59326
X44.51661Y43.36925
X44.78861Y47.2453
X45.07761Y46.02128
X45.17961Y44.59326
X45.46862Y43.36925
X45.74062Y47.2453
X46.02963Y46.02128
X46.13163Y44.59326
X46.42063Y43.36925
X46.69263Y47.2453
X51.26569Y46.02128
X51.3677Y44.59326
X51.9287Y47.2453
X47.84865Y43.36925
X48.40966Y46.02128
X48.51166Y44.59326
X48.80066Y43.36925
X49.07267Y47.2453
X49.36167Y46.02128
X49.46367Y44.59326
X49.75267Y43.36925
X50.02468Y47.2453
X50.31368Y46.02128
X50.41568Y44.59326
X50.70469Y43.36925
X50.97669Y47.2453
X46.72664Y40.81921
X46.82864Y39.3912
X47.38964Y42.04323
X43.30959Y38.16718
X43.8706Y40.81921
X43.9726Y39.3912
X44.2616Y38.16718
X44.53361Y42.04323
X44.82261Y40.81921
X44.92461Y39.3912
X45.21362Y38.16718
X45.48562Y42.04323
X45.77462Y40.81921
X45.87662Y39.3912
X46.16563Y38.16718
X46.43763Y42.04323
X51.26569Y41.02322
X51.3677Y39.5952
X51.9287Y42.24723
X47.84865Y38.37118
X48.40966Y41.02322
X48.51166Y39.5952
X48.80066Y38.37118
X49.07267Y42.24723
X49.36167Y41.02322
X49.46367Y39.5952
X49.75267Y38.37118
X50.02468Y42.24723
X50.31368Y41.02322
X50.41568Y39.5952
X50.70469Y38.37118
X50.97669Y42.24723
X55.65175Y43.57325
X55.75375Y42.14523
X56.31476Y44.79727
X52.23471Y40.92122
X52.79571Y43.57325
X52.89771Y42.14523
X53.18672Y40.92122
X53.45872Y44.79727
X53.74773Y43.57325
X53.84973Y42.14523
X54.13873Y40.92122
X54.41073Y44.79727
X54.69974Y43.57325
X54.80174Y42.14523
X55.09074Y40.92122
X55.36275Y44.79727
X75.032Y61.67848
X75.54201Y60.91347
X75.98401Y61.67848
X76.49402Y60.91347
X76.93603Y61.67848
X77.44603Y60.91347
X77.88804Y61.67848
X78.39804Y60.91347
X31.90244Y51.68236
X32.34445Y52.44737
X32.85446Y51.68236
X30.27042Y50.05033
X30.71243Y50.81534
X31.22243Y50.05033
X28.4854Y48.11231
X28.9274Y48.87732
X29.43741Y48.11231
X28.2814Y41.27822
X28.7234Y42.04323
X29.23341Y41.27822
X22.14827Y36.12302
X22.59028Y36.88803
X23.10029Y36.12302
X1.74405Y85.44479
X2.25406Y84.67978
X2.69607Y85.44479
X3.20607Y84.67978
X3.64808Y85.44479
X4.94388Y84.44737
X5.45389Y83.68236
X5.89589Y84.44737
X6.4059Y83.68236
X6.8479Y84.44737
X21.53231Y98.24596
X22.04232Y97.48095
X22.48432Y98.24596
X22.99433Y97.48095
X23.43633Y98.24596
X16.99325Y97.02194
X17.50326Y96.25693
X17.94526Y97.02194
X18.45527Y96.25693
X18.89727Y97.02194
X40.57253Y97.61393
X41.08254Y96.84892
X41.52454Y97.61393
X42.03455Y96.84892
X42.47656Y97.61393
X33.77247Y90.64686
X34.28247Y89.88185
X34.72448Y90.64686
X35.23449Y89.88185
X35.67649Y90.64686
X32.14045Y88.04583
X32.65045Y87.28082
X33.09246Y88.04583
X33.60247Y87.28082
X34.04447Y88.04583
X41.62657Y90.44286
X42.13658Y89.67785
X42.57858Y90.44286
X43.08859Y89.67785
X43.53059Y90.44286
X11.58718Y2.26272
X12.09719Y1.49771
X12.53919Y2.26272
X13.0492Y1.49771
X13.4912Y2.26272
X1.64205Y10.57582
X2.15206Y9.81081
X2.59406Y10.57582
X3.10407Y9.81081
X3.54608Y10.57582
X12.70919Y11.13683
X13.2192Y10.37182
X13.66121Y11.13683
X14.17121Y10.37182
X14.61322Y11.13683
X11.99519Y25.06001
X12.50519Y24.295
X12.9472Y25.06001
X13.4572Y24.295
X13.89921Y25.06001
X8.88415Y30.05808
X9.39415Y29.29307
X9.83616Y30.05808
X10.34616Y29.29307
X10.78817Y30.05808
X11.74018Y37.04517
X12.25019Y36.28016
X12.69219Y37.04517
X13.2022Y36.28016
X13.64421Y37.04517
X51.9287Y23.01998
X52.43871Y22.25497
X52.88071Y23.01998
X53.39072Y22.25497
X53.83273Y23.01998
X50.90869Y18.83793
X51.4187Y18.07292
X51.8607Y18.83793
X52.37071Y18.07292
X52.81271Y18.83793
X52.89771Y25.41702
X53.40772Y24.65201
X53.84973Y25.41702
X54.35973Y24.65201
X54.80174Y25.41702
X53.15272Y33.88313
X53.66272Y33.11812
X54.10473Y33.88313
X54.61474Y33.11812
X55.05674Y33.88313
T02
X93.36587Y28.7657
X90.82587Y28.7657
X94.25424Y96.18724
X96.79424Y96.18724
T03
X56.24369Y2.49903
X53.70369Y2.49903
X51.16369Y2.49903
X51.78088Y95.90792
X54.32088Y95.90792
X56.86088Y95.90792
X131.2388Y86.04371
X131.2388Y83.50371
X131.2388Y80.96371
X131.50097Y27.62203
X131.50097Y25.08203
X131.50097Y22.54203
X2.79728Y80.11385
X2.79728Y77.57385
X2.79728Y75.03385
X2.79728Y72.49385
X131.2388Y71.50087
X131.2388Y74.04087
X2.79728Y66.93073
X2.79728Y64.39073
X2.79728Y61.85073
X2.79728Y59.31073
X2.79728Y53.74762
X2.79728Y51.20762
X2.79728Y48.66762
X2.79728Y46.12762
X131.50097Y17.06812
X131.50097Y14.52812
X131.50097Y11.98812
X63.46488Y96.79692
X66.00488Y96.79692
X68.54488Y96.79692
X34.97642Y2.49903
X32.43642Y2.49903
X29.89642Y2.49903
X45.61006Y2.49903
X43.07006Y2.49903
X40.53006Y2.49903
X2.60103Y23.01133
X2.60103Y25.55133
X2.60103Y28.09133
X37.17948Y97.36026
X34.63948Y97.36026
X32.09948Y97.36026
X29.55948Y97.36026
X2.60103Y12.14819
X2.60103Y14.68819
X2.60103Y17.22819
X110.41643Y71.50087
X110.41643Y74.04087
X120.36156Y71.50087
X120.36156Y74.04087
T04
X80.83223Y7.50573
X78.33224Y7.50573
X78.33224Y4.30574
X80.83223Y4.30574
X31.93454Y78.45251
X29.39454Y78.45251
X26.85454Y78.45251
X24.31454Y78.45251
X21.77454Y78.45251
X19.23454Y78.45251
X16.69454Y78.45251
X14.15454Y78.45251
X31.93454Y91.25251
X29.39454Y91.25251
X26.85454Y91.25251
X24.31454Y91.25251
X21.77454Y91.25251
X19.23454Y91.25251
X16.69454Y91.25251
X14.15454Y91.25251
X31.93454Y61.53551
X29.39454Y61.53551
X26.85454Y61.53551
X24.31454Y61.53551
X21.77454Y61.53551
X19.23454Y61.53551
X16.69454Y61.53551
X14.15454Y61.53551
X31.93454Y74.33551
X29.39454Y74.33551
X26.85454Y74.33551
X24.31454Y74.33551
X21.77454Y74.33551
X19.23454Y74.33551
X16.69454Y74.33551
X14.15454Y74.33551
X31.93454Y44.61851
X29.39454Y44.61851
X26.85454Y44.61851
X24.31454Y44.61851
X21.77454Y44.61851
X19.23454Y44.61851
X16.69454Y44.61851
X14.15454Y44.61851
X31.93454Y57.57351
X29.39454Y57.57351
X26.85454Y57.57351
X24.31454Y57.57351
X21.77454Y57.57351
X19.23454Y57.57351
X16.69454Y57.57351
X14.15454Y57.57351
T05
X18.31425Y33.55425
X20.85425Y33.55425
X18.31425Y31.01425
X20.85425Y31.01425
X18.31425Y28.47425
X20.85425Y28.47425
X18.31425Y25.93425
X20.85425Y25.93425
X18.31425Y23.39425
X20.85425Y23.39425
X18.31425Y20.85425
X20.85425Y20.85425
X18.31425Y18.31425
X20.85425Y18.31425
X18.31425Y15.77425
X20.85425Y15.77425
X18.31425Y13.23425
X20.85425Y13.23425
X18.31425Y10.69425
X20.85425Y10.69425
X18.31425Y8.15425
X20.85425Y8.15425
X18.31425Y5.61425
X20.85425Y5.61425
T06
X131.9018Y32.5691
X131.9018Y35.1091
X131.9018Y37.6491
X131.9018Y40.1891
X116.56352Y93.91722
X116.56352Y96.41724
X114.06352Y93.91722
X114.06352Y96.41724
X111.56353Y93.91722
X111.56353Y96.41724
X109.06353Y93.91722
X109.06353Y96.41724
X106.56354Y93.91722
X106.56354Y96.41724
X119.06351Y96.41717
X119.06351Y93.91717
X39.47451Y81.4121
X39.47451Y83.9521
X39.47451Y86.4921
X39.47451Y89.0321
X88.6542Y54.0097
X91.1942Y54.0097
X93.7342Y54.0097
X96.2742Y54.0097
T07
X67.68896Y4.93667
X62.60896Y4.93667
X4.89596Y34.23163
X4.89596Y39.31163
T08
X73.56224Y5.00574
X85.60225Y5.00574
M30