G04 Layer: TopPasteMaskLayer*
G04 EasyEDA Pro v2.2.32.3, 2025-12-26 18:00:11*
G04 Gerber Generator version 0.3*
G04 Scale: 100 percent, Rotated: No, Reflected: No*
G04 Dimensions in millimeters*
G04 Leading zeros omitted, absolute positions, 3 integers and 5 decimals*
%FSLAX35Y35*%
%MOMM*%
%ADD10R,0.889X0.889*%
%ADD11R,0.889X0.889*%
%ADD12R,0.889X0.889*%
%ADD13R,0.762X0.8128*%
%ADD14R,0.8128X0.762*%
%ADD15R,2.0X2.0*%
%ADD16R,0.4940X0.98552*%
%ADD17R,0.49022X0.98552*%
%ADD18R,2.0X2.0*%
%ADD19R,1.0X0.89992*%
%ADD20R,1.3X1.9*%
%ADD21R,2.2X2.0*%
%ADD22R,1.25001X0.7*%
%ADD23R,0.7X1.25001*%
%ADD24R,0.9652X1.016*%
%ADD25R,1.0X1.10002*%
%ADD26R,1.10002X1.0*%
%ADD27R,1.0X1.10002*%
%ADD28R,1.016X0.9652*%
%ADD29R,1.10002X1.0*%
%ADD30R,2.0X3.6*%
%ADD31R,1.6X1.1*%
%ADD32R,1.6X1.1*%
%ADD33R,1.2X0.6*%
%ADD34R,2.4X3.29999*%
%ADD35R,0.9X2.0*%
%ADD36R,2.0X0.9*%
%ADD37R,0.9X2.0*%
%ADD38R,3.69999X3.69999*%
%ADD39R,1.1X0.6*%
%ADD40O,1.97099X0.60201*%
%ADD41R,0.7X1.6*%
%ADD42R,1.2X2.2*%
%ADD43R,1.6X1.5*%
%ADD44R,1.2X1.8*%
%ADD45R,0.6X1.1*%
%ADD46R,2.50002X1.0*%
%ADD47R,2.49999X1.0*%
%ADD48R,2.99999X1.0*%
%ADD49R,0.762X0.8128*%
%ADD50R,0.89992X1.0*%
%ADD51R,0.889X0.889*%
%ADD52O,1.73149X0.343*%
%ADD53R,0.95001X1.15001*%
%ADD54R,0.6X1.1*%
%ADD55O,1.55001X0.7*%
%ADD56R,0.8128X0.762*%
%ADD57R,1.35999X1.23*%
%ADD58R,1.15001X0.95001*%
%ADD59R,1.15001X0.95001*%
%ADD60R,0.95001X1.15001*%
%ADD61R,1.1X0.6*%
%ADD62R,1.0X2.99999*%
%ADD63R,1.1X2.49999*%
%ADD64R,1.1X2.49999*%
%ADD65R,0.98552X0.49022*%
%ADD66R,0.49022X0.98552*%
%ADD67R,0.98552X0.49022*%
%ADD68R,1.50002X3.19999*%
%ADD69R,2.99999X1.0*%
%ADD70R,2.0X2.0*%
%ADD71R,2.99999X5.99999*%
%ADD72R,10.0X10.3*%
%ADD73R,1.05X2.7*%
G75*


G04 PolygonModel Start*
G36*
G01X10161956Y3911144D02*
G01X10161956Y3948169D01*
G01X10171956Y3958169D01*
G01X10202446Y3958169D01*
G01X10212446Y3968169D01*
G01X10212446Y4006920D01*
G01X10202446Y4016920D01*
G01X10171956Y4016920D01*
G01X10161956Y4026920D01*
G01X10161956Y4063945D01*
G01X10171956Y4073945D01*
G01X10300454Y4073945D01*
G01X10310454Y4063945D01*
G01X10310454Y3911144D01*
G01X10300454Y3901144D01*
G01X10171956Y3901144D01*
G01X10161956Y3911144D01*
G37*
G36*
G01X9991954Y3911144D02*
G01X9991954Y3948169D01*
G01X9981954Y3958169D01*
G01X9951463Y3958169D01*
G01X9941463Y3968169D01*
G01X9941463Y4006920D01*
G01X9951463Y4016920D01*
G01X9981954Y4016920D01*
G01X9991954Y4026920D01*
G01X9991954Y4063945D01*
G01X9981954Y4073945D01*
G01X9853455Y4073945D01*
G01X9843455Y4063945D01*
G01X9843455Y3911144D01*
G01X9853455Y3901144D01*
G01X9981954Y3901144D01*
G01X9991954Y3911144D01*
G37*
G36*
G01X11158068Y2001919D02*
G01X11121043Y2001919D01*
G01X11111043Y2011919D01*
G01X11111043Y2042409D01*
G01X11101043Y2052409D01*
G01X11062293Y2052409D01*
G01X11052293Y2042409D01*
G01X11052293Y2011919D01*
G01X11042293Y2001919D01*
G01X11005267Y2001919D01*
G01X10995267Y2011919D01*
G01X10995267Y2140417D01*
G01X11005267Y2150417D01*
G01X11158068Y2150417D01*
G01X11168068Y2140417D01*
G01X11168068Y2011919D01*
G01X11158068Y2001919D01*
G37*
G36*
G01X11158068Y1831917D02*
G01X11121043Y1831917D01*
G01X11111043Y1821917D01*
G01X11111043Y1791426D01*
G01X11101043Y1781426D01*
G01X11062293Y1781426D01*
G01X11052293Y1791426D01*
G01X11052293Y1821917D01*
G01X11042293Y1831917D01*
G01X11005267Y1831917D01*
G01X10995267Y1821917D01*
G01X10995267Y1693418D01*
G01X11005267Y1683418D01*
G01X11158068Y1683418D01*
G01X11168068Y1693418D01*
G01X11168068Y1821917D01*
G01X11158068Y1831917D01*
G37*
G36*
G01X9110744Y3541817D02*
G01X9073719Y3541817D01*
G01X9063719Y3551817D01*
G01X9063719Y3582307D01*
G01X9053719Y3592307D01*
G01X9014969Y3592307D01*
G01X9004969Y3582307D01*
G01X9004969Y3551817D01*
G01X8994969Y3541817D01*
G01X8957943Y3541817D01*
G01X8947943Y3551817D01*
G01X8947943Y3680315D01*
G01X8957943Y3690315D01*
G01X9110744Y3690315D01*
G01X9120744Y3680315D01*
G01X9120744Y3551817D01*
G01X9110744Y3541817D01*
G37*
G36*
G01X9110744Y3371814D02*
G01X9073719Y3371814D01*
G01X9063719Y3361814D01*
G01X9063719Y3331324D01*
G01X9053719Y3321324D01*
G01X9014969Y3321324D01*
G01X9004969Y3331324D01*
G01X9004969Y3361814D01*
G01X8994969Y3371814D01*
G01X8957943Y3371814D01*
G01X8947943Y3361814D01*
G01X8947943Y3233316D01*
G01X8957943Y3223316D01*
G01X9110744Y3223316D01*
G01X9120744Y3233316D01*
G01X9120744Y3361814D01*
G01X9110744Y3371814D01*
G37*
G36*
G01X10424661Y5382063D02*
G01X10424661Y5302063D01*
G01X10429662Y5297062D01*
G01X10452459Y5297062D01*
G01X10452459Y5334062D01*
G01X10485459Y5334062D01*
G01X10485459Y5297062D01*
G01X10509662Y5297062D01*
G01X10514661Y5302063D01*
G01X10514661Y5382063D01*
G01X10509662Y5387062D01*
G01X10429662Y5387062D01*
G01X10424661Y5382063D01*
G37*
G36*
G01X10429662Y5227062D02*
G01X10452459Y5227062D01*
G01X10452459Y5189064D01*
G01X10485459Y5189064D01*
G01X10485459Y5227062D01*
G01X10509662Y5227062D01*
G01X10514661Y5222063D01*
G01X10514661Y5143064D01*
G01X10509662Y5138063D01*
G01X10429662Y5138063D01*
G01X10424661Y5143064D01*
G01X10424661Y5222063D01*
G01X10429662Y5227062D01*
G37*

G04 Pad Start*
G54D10*
G01X10286057Y3313367D03*
G01X10286057Y3468307D03*
G54D11*
G01X6790567Y2408794D03*
G01X6635627Y2408794D03*
G01X8798772Y2186899D03*
G01X8953712Y2186899D03*
G54D12*
G01X9484118Y310075D03*
G01X9329178Y310075D03*
G54D11*
G01X8977274Y310075D03*
G01X9132214Y310075D03*
G01X9525179Y2151521D03*
G01X9680119Y2151521D03*
G54D13*
G01X10416899Y2248702D03*
G01X10417430Y2405336D03*
G54D14*
G01X10610866Y8117838D03*
G01X10767500Y8117307D03*
G01X11039244Y8117838D03*
G01X11195879Y8117307D03*
G01X11457477Y8117838D03*
G01X11614111Y8117307D03*
G54D15*
G01X7749307Y2306792D03*
G01X7329307Y2306792D03*
G54D17*
G01X12560687Y3008773D03*
G01X12560687Y3232293D03*
G54D18*
G01X6288894Y1353080D03*
G01X6708894Y1353080D03*
G54D19*
G01X2959740Y1436522D03*
G01X2959740Y1606522D03*
G54D20*
G01X12133647Y1139098D03*
G01X12133647Y299120D03*
G01X11683661Y1139098D03*
G01X11683661Y299120D03*
G54D21*
G01X7351322Y2617005D03*
G01X7351322Y3297013D03*
G54D22*
G01X10229761Y2812302D03*
G01X10229761Y2622310D03*
G01X10429760Y2717306D03*
G54D23*
G01X9770658Y2714207D03*
G01X9960650Y2714207D03*
G01X9865654Y2914207D03*
G54D24*
G01X10768870Y8308419D03*
G01X10610120Y8308419D03*
G54D25*
G01X6629889Y3265605D03*
G01X6469910Y3265605D03*
G54D26*
G01X2958038Y1077730D03*
G01X2958038Y1237710D03*
G54D27*
G01X12638271Y3778442D03*
G01X12478292Y3778442D03*
G01X12635571Y3487738D03*
G01X12475592Y3487738D03*
G54D28*
G01X10741425Y2024201D03*
G01X10741425Y1865451D03*
G01X10539620Y2019423D03*
G01X10539620Y1860673D03*
G01X10190618Y2024201D03*
G01X10190618Y1865451D03*
G01X9991715Y2024201D03*
G01X9991715Y1865451D03*
G54D26*
G01X11377472Y1877734D03*
G01X11377472Y2037713D03*
G54D24*
G01X10768870Y8507942D03*
G01X10610120Y8507942D03*
G01X11192175Y8507942D03*
G01X11033425Y8507942D03*
G01X11192175Y8308419D03*
G01X11033425Y8308419D03*
G01X11619951Y8507942D03*
G01X11461201Y8507942D03*
G01X11615481Y8308419D03*
G01X11456731Y8308419D03*
G54D29*
G01X9768753Y2511687D03*
G01X9768753Y2351708D03*
G01X9967656Y2511687D03*
G01X9967656Y2351708D03*
G54D30*
G01X9921252Y3502716D03*
G54D31*
G01X9371252Y3272716D03*
G54D32*
G01X9371252Y3502716D03*
G54D31*
G01X9371252Y3732716D03*
G54D33*
G01X6840724Y2656899D03*
G01X6840724Y2783899D03*
G01X6840724Y2910899D03*
G01X6840724Y3037899D03*
G01X6259064Y3037899D03*
G01X6259064Y2910899D03*
G01X6259064Y2783899D03*
G01X6259064Y2656899D03*
G54D34*
G01X6549894Y2847399D03*
G54D35*
G01X13194286Y4590730D03*
G01X13067286Y4590730D03*
G01X12940286Y4590730D03*
G01X12813286Y4590730D03*
G01X12686286Y4590730D03*
G01X12559286Y4590730D03*
G01X12432286Y4590730D03*
G01X12305286Y4590730D03*
G01X12178286Y4590730D03*
G01X12051286Y4590730D03*
G01X11924286Y4590730D03*
G01X11797286Y4590730D03*
G01X11670286Y4590730D03*
G01X11543286Y4590730D03*
G54D36*
G01X11443286Y4869241D03*
G01X11443286Y4996241D03*
G01X11443286Y5123241D03*
G01X11443286Y5250241D03*
G01X11443286Y5377241D03*
G01X11443286Y5504241D03*
G01X11443286Y5631241D03*
G01X11443286Y5758241D03*
G01X11443286Y5885241D03*
G01X11443286Y6012241D03*
G54D37*
G01X11543286Y6290752D03*
G01X11670286Y6290752D03*
G01X11797286Y6290752D03*
G01X11924286Y6290752D03*
G01X12051286Y6290752D03*
G01X12178286Y6290752D03*
G01X12305286Y6290752D03*
G01X12432286Y6290752D03*
G01X12559286Y6290752D03*
G01X12686286Y6290752D03*
G01X12813286Y6290752D03*
G01X12940286Y6290752D03*
G01X13067286Y6290752D03*
G01X13194286Y6290752D03*
G54D38*
G01X12444300Y5590728D03*
G54D39*
G01X8314777Y1747554D03*
G01X8314777Y1652554D03*
G01X8314777Y1557554D03*
G01X8594777Y1557554D03*
G01X8594777Y1652554D03*
G01X8594777Y1747554D03*
G54D40*
G01X8980088Y1922490D03*
G01X8980088Y1795490D03*
G01X8980088Y1668490D03*
G01X8980088Y1541490D03*
G01X8980088Y1414490D03*
G01X8980088Y1287490D03*
G01X8980088Y1160490D03*
G01X8980088Y1033490D03*
G01X9527204Y1922490D03*
G01X9527204Y1795490D03*
G01X9527204Y1668490D03*
G01X9527204Y1541490D03*
G01X9527204Y1414490D03*
G01X9527204Y1287490D03*
G01X9527204Y1160490D03*
G01X9527204Y1033490D03*
G54D41*
G01X10804657Y1457179D03*
G01X10694675Y1457179D03*
G01X10144663Y1457179D03*
G01X10584667Y1457179D03*
G01X10364653Y1457179D03*
G01X9924674Y1457179D03*
G01X10474660Y1457179D03*
G01X10254671Y1457179D03*
G54D42*
G01X11354643Y397186D03*
G01X9804684Y397186D03*
G54D43*
G01X11289670Y1352176D03*
G54D44*
G01X9804684Y1327182D03*
G54D41*
G01X10034656Y1457179D03*
G54D45*
G01X12155880Y2383826D03*
G01X11965880Y2383826D03*
G01X11965880Y2663826D03*
G01X12060880Y2663826D03*
G01X12155880Y2663826D03*
G54D46*
G01X9513266Y646679D03*
G54D47*
G01X8953228Y646679D03*
G54D48*
G01X6285195Y1908987D03*
G01X6845194Y1908987D03*
G54D14*
G01X11735854Y1417380D03*
G01X11892488Y1416850D03*
G54D26*
G01X10666365Y2377198D03*
G01X10666365Y2537197D03*
G54D49*
G01X12626550Y7148983D03*
G01X12626019Y6992349D03*
G54D19*
G01X10731465Y3287139D03*
G01X10731465Y3457139D03*
G54D50*
G01X8142812Y2288094D03*
G01X7972812Y2288094D03*
G54D26*
G01X12412785Y7390905D03*
G01X12412785Y7550884D03*
G54D29*
G01X12422985Y7163289D03*
G01X12422985Y7003290D03*
G01X10515560Y3460621D03*
G01X10515560Y3300642D03*
G54D27*
G01X8522004Y2291492D03*
G01X8362024Y2291492D03*
G54D11*
G01X13069724Y6639579D03*
G01X13224664Y6639579D03*
G54D12*
G01X10817433Y5191160D03*
G01X10662493Y5191160D03*
G01X10470629Y6838481D03*
G01X10315689Y6838481D03*
G54D51*
G01X10275857Y5334931D03*
G01X10275857Y5179991D03*
G54D26*
G01X11055811Y5479220D03*
G01X11055811Y5639200D03*
G54D52*
G01X10098569Y6670454D03*
G01X10098569Y6605455D03*
G01X10098569Y6540457D03*
G01X10098569Y6475433D03*
G01X10098569Y6410434D03*
G01X10098569Y6345435D03*
G01X10098569Y6280437D03*
G01X10098569Y6215438D03*
G01X10671720Y6670454D03*
G01X10671720Y6605455D03*
G01X10671720Y6540457D03*
G01X10671720Y6475433D03*
G01X10671720Y6410434D03*
G01X10671720Y6345435D03*
G01X10671720Y6280437D03*
G01X10671720Y6215438D03*
G01X10096027Y5965215D03*
G01X10096027Y5900217D03*
G01X10096027Y5835218D03*
G01X10096027Y5770194D03*
G01X10096027Y5705195D03*
G01X10096027Y5640197D03*
G01X10096027Y5575198D03*
G01X10096027Y5510200D03*
G01X10669178Y5965215D03*
G01X10669178Y5900217D03*
G01X10669178Y5835218D03*
G01X10669178Y5770194D03*
G01X10669178Y5705195D03*
G01X10669178Y5640197D03*
G01X10669178Y5575198D03*
G01X10669178Y5510200D03*
G54D53*
G01X7897932Y2009559D03*
G01X8236413Y2009559D03*
G54D10*
G01X7180893Y8375277D03*
G01X7180893Y8220337D03*
G54D25*
G01X7315091Y7915302D03*
G01X7475090Y7915302D03*
G54D54*
G01X7391746Y8396765D03*
G01X7581746Y8396765D03*
G01X7581746Y8116765D03*
G01X7486746Y8116765D03*
G01X7391746Y8116765D03*
G54D45*
G01X10228055Y4306551D03*
G01X10038055Y4306551D03*
G01X10038055Y4586551D03*
G01X10133055Y4586551D03*
G01X10228055Y4586551D03*
G54D10*
G01X6823888Y7689931D03*
G01X6823888Y7844871D03*
G54D51*
G01X5691674Y7074761D03*
G01X5691674Y6919821D03*
G01X5691674Y7839770D03*
G01X5691674Y7684830D03*
G54D12*
G01X6284250Y8058104D03*
G01X6129310Y8058104D03*
G54D10*
G01X5691674Y7292125D03*
G01X5691674Y7447065D03*
G54D26*
G01X12127181Y8518020D03*
G01X12127181Y8677999D03*
G54D25*
G01X12057397Y7822794D03*
G01X12217376Y7822794D03*
G54D55*
G01X11834878Y8019368D03*
G01X11834878Y8273368D03*
G01X12474856Y8273368D03*
G01X12474856Y8019368D03*
G54D40*
G01X5979166Y7811198D03*
G01X5979166Y7684198D03*
G01X5979166Y7557198D03*
G01X5979166Y7430198D03*
G01X5979166Y7303198D03*
G01X5979166Y7176198D03*
G01X5979166Y7049198D03*
G01X5979166Y6922198D03*
G01X6526282Y7811198D03*
G01X6526282Y7684198D03*
G01X6526282Y7557198D03*
G01X6526282Y7430198D03*
G01X6526282Y7303198D03*
G01X6526282Y7176198D03*
G01X6526282Y7049198D03*
G01X6526282Y6922198D03*
G54D25*
G01X11909475Y2860430D03*
G01X12069474Y2860430D03*
G54D56*
G01X10566735Y7140530D03*
G01X10410101Y7141061D03*
G54D26*
G01X10567337Y7371212D03*
G01X10567337Y7531191D03*
G54D25*
G01X10992238Y6742287D03*
G01X11152238Y6742287D03*
G54D27*
G01X8403313Y7981603D03*
G01X8243313Y7981603D03*
G54D45*
G01X12416759Y1481821D03*
G01X12226759Y1481821D03*
G01X12226759Y1761821D03*
G01X12321759Y1761821D03*
G01X12416759Y1761821D03*
G54D10*
G01X10877665Y2385155D03*
G01X10877665Y2540095D03*
G54D57*
G01X11326471Y2376736D03*
G01X11326471Y2813717D03*
G54D27*
G01X10483344Y3008332D03*
G01X10323364Y3008332D03*
G54D58*
G01X9271920Y2329792D03*
G01X9271920Y2668273D03*
G54D59*
G01X9073017Y2673373D03*
G01X9073017Y2334892D03*
G54D53*
G01X6894351Y7252294D03*
G01X7232832Y7252294D03*
G54D60*
G01X7237932Y7451196D03*
G01X6899451Y7451196D03*
G54D61*
G01X7396513Y5034637D03*
G01X7396513Y5224637D03*
G01X7676513Y5224637D03*
G01X7676513Y5129637D03*
G01X7676513Y5034637D03*
G54D62*
G01X1632834Y8190503D03*
G01X1632834Y8750502D03*
G54D26*
G01X2692324Y5394264D03*
G01X2692324Y5234284D03*
G01X2126728Y8688906D03*
G01X2126728Y8528927D03*
G01X2317130Y8688906D03*
G01X2317130Y8528927D03*
G54D63*
G01X8112830Y3289322D03*
G01X8112830Y2859300D03*
G54D64*
G01X11958869Y3231926D03*
G01X11958869Y3661948D03*
G54D12*
G01X7543967Y4855263D03*
G01X7389027Y4855263D03*
G54D65*
G01X12316325Y8485803D03*
G01X12539845Y8485803D03*
G54D17*
G01X12356684Y2299864D03*
G01X12356684Y2523384D03*
G54D66*
G01X12611688Y7546949D03*
G01X12611688Y7323429D03*
G54D62*
G01X1632834Y6517681D03*
G01X1632834Y7077680D03*
G01X1632834Y4834660D03*
G01X1632834Y5394659D03*
G54D26*
G01X2096127Y5394264D03*
G01X2096127Y5234284D03*
G01X2294860Y5394264D03*
G01X2294860Y5234284D03*
G01X2493592Y5394264D03*
G01X2493592Y5234284D03*
G01X2507532Y8688906D03*
G01X2507532Y8528927D03*
G01X2697935Y8688906D03*
G01X2697935Y8528927D03*
G54D67*
G01X3620605Y810910D03*
G01X3397085Y810910D03*
G54D29*
G01X8608911Y3619430D03*
G01X8608911Y3459451D03*
G01X3182441Y1237700D03*
G01X3182441Y1077720D03*
G54D26*
G01X9465722Y2419048D03*
G01X9465722Y2579027D03*
G54D55*
G01X4124638Y1238814D03*
G01X4124638Y984814D03*
G01X3484660Y984814D03*
G01X3484660Y1238814D03*
G54D25*
G01X6519501Y8078505D03*
G01X6679480Y8078505D03*
G54D10*
G01X7935703Y8261138D03*
G01X7935703Y8416078D03*
G54D54*
G01X8151807Y8468407D03*
G01X8341807Y8468407D03*
G01X8341807Y8188408D03*
G01X8246807Y8188408D03*
G01X8151807Y8188408D03*
G54D68*
G01X3611336Y3222347D03*
G01X3611336Y4122345D03*
G54D69*
G01X5436166Y1341317D03*
G01X4876167Y1341317D03*
G54D70*
G01X3116140Y2028929D03*
G01X3116140Y2448929D03*
G54D50*
G01X1062510Y4586661D03*
G01X892511Y4586661D03*
G54D71*
G01X4720852Y2259329D03*
G01X3520855Y2259329D03*
G54D25*
G01X894128Y4396257D03*
G01X1054107Y4396257D03*
G54D26*
G01X5049065Y2561850D03*
G01X5049065Y2721829D03*
G54D25*
G01X5050457Y2973624D03*
G01X5210436Y2973624D03*
G54D72*
G01X4829763Y4277600D03*
G54D73*
G01X5169763Y3372500D03*
G01X4489763Y3372500D03*
G01X4829763Y3372500D03*
G01X4999763Y3372500D03*
G01X4659763Y3372500D03*
G54D12*
G01X4565528Y1305617D03*
G01X4410588Y1305617D03*
G01X4565528Y1489219D03*
G01X4410588Y1489219D03*
G54D29*
G01X5880376Y1599804D03*
G01X5880376Y1439825D03*
G54D26*
G01X5661073Y1597937D03*
G01X5661073Y1757916D03*
G54D27*
G01X7118076Y7043191D03*
G01X6958096Y7043191D03*
G01X7118076Y6839189D03*
G01X6958096Y6839189D03*
G54D26*
G01X2116527Y7038293D03*
G01X2116527Y6878313D03*
G01X2303530Y7038293D03*
G01X2303530Y6878313D03*
G01X2490532Y7038293D03*
G01X2490532Y6878313D03*
G01X2677535Y7038293D03*
G01X2677535Y6878313D03*
G54D18*
G01X1320020Y4080053D03*
G01X1740020Y4080053D03*
G54D56*
G01X11540847Y7257832D03*
G01X11384213Y7258363D03*
G54D26*
G01X11388447Y7463013D03*
G01X11388447Y7622992D03*
G54D29*
G01X11526149Y7041595D03*
G01X11526149Y6881595D03*
G54D66*
G01X11566950Y7634357D03*
G01X11566950Y7410837D03*
G04 Pad End*

M02*

