G04 Layer: CustomLayer2*
G04 EasyEDA Pro v2.2.32.3, 2025-06-24 15:27:34*
G04 Gerber Generator version 0.3*
G04 Scale: 100 percent, Rotated: No, Reflected: No*
G04 Dimensions in millimeters*
G04 Leading zeros omitted, absolute positions, 3 integers and 5 decimals*
%FSLAX35Y35*%
%MOMM*%
%ADD10C,0.0127*%
%ADD11C,0.15*%
G75*


G04 PolygonModel Start*
G54D10*
G01X3033719Y3480785D02*
G01X3038799Y3475705D01*
G54D11*
G01X4442951Y2029826D02*
G01X4342951Y2029826D01*
G01X4392951Y1979826D02*
G01X4392951Y2079826D01*
G01X3532952Y1979826D02*
G01X3532952Y2079826D01*
G01X2666541Y2534733D02*
G01X2766541Y2534733D01*
G01X2716541Y2584733D02*
G01X2716541Y2484733D01*
G01X3576540Y2584733D02*
G01X3576540Y2484733D01*
G01X3742655Y204003D02*
G01X3842655Y204003D01*
G01X3792655Y254003D02*
G01X3792655Y154003D01*
G01X4652654Y254003D02*
G01X4652654Y154003D01*
G36*
G01X5707035Y161444D02*
G01X5707035Y496444D01*
G01X5880035Y496444D01*
G01X5880035Y161444D01*
G01X5707035Y161444D01*
G37*
G36*
G01X5394231Y161444D02*
G01X5394231Y496444D01*
G01X5567231Y496444D01*
G01X5567231Y161444D01*
G01X5394231Y161444D01*
G37*
G36*
G01X5081427Y161444D02*
G01X5081427Y496444D01*
G01X5254427Y496444D01*
G01X5254427Y161444D01*
G01X5081427Y161444D01*
G37*
G36*
G01X4768623Y161444D02*
G01X4768623Y496444D01*
G01X4941623Y496444D01*
G01X4941623Y161444D01*
G01X4768623Y161444D01*
G37*
G36*
G01X6971851Y171644D02*
G01X6971851Y506644D01*
G01X7144851Y506644D01*
G01X7144851Y171644D01*
G01X6971851Y171644D01*
G37*
G36*
G01X6677747Y171644D02*
G01X6677747Y506644D01*
G01X6850747Y506644D01*
G01X6850747Y171644D01*
G01X6677747Y171644D01*
G37*
G36*
G01X6383644Y171644D02*
G01X6383644Y506644D01*
G01X6556643Y506644D01*
G01X6556643Y171644D01*
G01X6383644Y171644D01*
G37*
G36*
G01X6089540Y171644D02*
G01X6089540Y506644D01*
G01X6262540Y506644D01*
G01X6262540Y171644D01*
G01X6089540Y171644D01*
G37*
G36*
G01X8328469Y171644D02*
G01X8328469Y506644D01*
G01X8501469Y506644D01*
G01X8501469Y171644D01*
G01X8328469Y171644D01*
G37*
G36*
G01X8029265Y171644D02*
G01X8029265Y506644D01*
G01X8202265Y506644D01*
G01X8202265Y171644D01*
G01X8029265Y171644D01*
G37*
G36*
G01X7730061Y171644D02*
G01X7730061Y506644D01*
G01X7903061Y506644D01*
G01X7903061Y171644D01*
G01X7730061Y171644D01*
G37*
G36*
G01X7430857Y171644D02*
G01X7430857Y506644D01*
G01X7603857Y506644D01*
G01X7603857Y171644D01*
G01X7430857Y171644D01*
G37*

M02*

