G04 Layer: CustomLayer3*
G04 EasyEDA Pro v2.2.32.3, 2025-06-24 15:27:34*
G04 Gerber Generator version 0.3*
G04 Scale: 100 percent, Rotated: No, Reflected: No*
G04 Dimensions in millimeters*
G04 Leading zeros omitted, absolute positions, 3 integers and 5 decimals*
%FSLAX35Y35*%
%MOMM*%
%ADD10C,0.0127*%
G75*


G04 PolygonModel Start*
G54D10*
G01X4947905Y1547860D02*
G01X4952985Y1542780D01*
G01X6595226Y1547860D02*
G01X6600306Y1542780D01*
G01X8079345Y1547860D02*
G01X8084425Y1542780D01*
G01X281316Y3042073D02*
G01X286396Y3047153D01*
G01X251198Y3033142D02*
G01X256278Y3038222D01*
G01X281316Y3396881D02*
G01X286396Y3401961D01*
G01X251198Y3387951D02*
G01X256278Y3393031D01*
G01X9777064Y2375818D02*
G01X9782144Y2370738D01*
G01X9768133Y2405937D02*
G01X9773213Y2400857D01*
G01X10699222Y1097321D02*
G01X10694142Y1102401D01*
G01X10218023Y2765369D02*
G01X10223103Y2770449D01*
G01X11736385Y2634144D02*
G01X11741465Y2629064D01*
G01X5937610Y3016709D02*
G01X5942690Y3011629D01*
G01X11039133Y3081573D02*
G01X11044213Y3086653D01*
G01X5743552Y3016709D02*
G01X5748632Y3011629D01*
G01X5476338Y3011629D02*
G01X5471258Y3016709D01*
G01X266037Y2851560D02*
G01X271117Y2856640D01*
G01X5932510Y3485855D02*
G01X5937590Y3480775D01*
G01X7319728Y3016709D02*
G01X7324808Y3011629D01*
G01X7129840Y3016709D02*
G01X7134920Y3011629D01*
G01X6868656Y3011629D02*
G01X6863576Y3016709D01*
G01X8499301Y3892484D02*
G01X8504381Y3897564D01*
G01X7171826Y3485855D02*
G01X7176906Y3480775D01*
G01X4118344Y1571954D02*
G01X4123424Y1577034D01*
G01X4118344Y1367951D02*
G01X4123424Y1373031D01*
G01X8839548Y3016709D02*
G01X8844628Y3011629D01*
G01X8648040Y3016709D02*
G01X8653120Y3011629D01*
G01X8383375Y3011629D02*
G01X8378295Y3016709D01*
G01X12738832Y3776639D02*
G01X12733752Y3781719D01*
G01X12958134Y3776639D02*
G01X12953054Y3781719D01*
G01X8900749Y3485855D02*
G01X8905829Y3480775D01*
G01X9997263Y1102401D02*
G01X10002343Y1097321D01*
G01X11032900Y1102401D02*
G01X11037980Y1097321D01*
G01X12609954Y1561754D02*
G01X12615034Y1566834D01*
G01X12609954Y1352651D02*
G01X12615034Y1357731D01*
G01X10438702Y1097321D02*
G01X10433622Y1102401D01*
G01X11479115Y1097321D02*
G01X11474035Y1102401D01*
G01X4721528Y3460435D02*
G01X4716448Y3465515D01*
G01X9704292Y2022217D02*
G01X9699212Y2027297D01*
G01X5596531Y2408827D02*
G01X5601611Y2403747D01*
G01X7066631Y2408827D02*
G01X7071711Y2403747D01*
G01X8536531Y2408827D02*
G01X8541611Y2403747D01*
G01X1784210Y168065D02*
G01X1779130Y162985D01*
G01X1814329Y176996D02*
G01X1809249Y171916D01*
G01X1435628Y177369D02*
G01X1430548Y172289D01*
G01X281316Y3219477D02*
G01X286396Y3224557D01*
G01X251198Y3210546D02*
G01X256278Y3215626D01*
G01X1365684Y3608337D02*
G01X1360604Y3613417D01*

M02*

