;TYPE=PLATED
;Layer: PTH_Through
;EasyEDA Pro Client v2.2.32.3, 2025-06-13 17:08:39
;Gerber Generator version 0.3
M48
METRIC,LZ,000.00000
;Hole size 1 = 0.30000 METRIC
T01C0.30000
;Hole size 2 = 0.80000 METRIC
T02C0.80000
;Hole size 3 = 0.80000 METRIC
T03C0.80000
;Hole size 4 = 0.86000 METRIC
T04C0.86000
;Hole size 5 = 1.00000 METRIC
T05C1.00000
;Hole size 6 = 1.00076 METRIC
T06C1.00076
;Hole size 7 = 1.09982 METRIC
T07C1.09982
;Hole size 8 = 1.40000 METRIC
T08C1.40000
;Hole size 9 = 2.00000 METRIC
T09C2.00000
%
G05
G90
T01
X46.2066Y31.72241
X58.95676Y32.23242
X88.63915Y32.33442
X71.34992Y32.28342
X54.72371Y28.10136
X56.30473Y28.15236
X83.70009Y28.2564
X85.52811Y28.25437
X68.49389Y28.25437
X70.48291Y28.30537
X52.53068Y25.06204
X93.0762Y32.94643
X109.75342Y26.57935
X109.80442Y29.27438
X104.14335Y31.80644
X101.69532Y27.03035
X106.38738Y27.08135
X82.06006Y25.14333
X83.18219Y32.13042
X67.06587Y32.18142
X67.06587Y25.24533
X93.68821Y34.39744
X52.53068Y23.5623
X51.05166Y24.78632
X51.71467Y29.73338
X65.99485Y24.27631
X94.35122Y32.99743
X64.66884Y21.67528
X93.12924Y31.87337
X94.96323Y35.61644
X80.32604Y27.13235
X79.61203Y27.64236
X45.69659Y10.20013
X45.33959Y10.76114
X46.0536Y10.76114
X95.52424Y31.77341
X53.65269Y21.87928
X55.69272Y19.83926
X58.95676Y21.31828
X73.59395Y21.57328
X68.28988Y21.36928
X70.22791Y19.83926
X71.34992Y19.99226
X88.28214Y21.57328
X82.72307Y21.52228
X107.56039Y33.00246
X100.5223Y25.60233
X103.22534Y25.19433
X104.57685Y27.82086
X109.29441Y20.29826
X123.8806Y15.1982
X108.3254Y20.29826
X124.23761Y11.93415
X110.57267Y14.33119
X106.33638Y22.03229
X108.5039Y13.33667
X106.18337Y13.20917
X105.36736Y38.25049
X95.21823Y38.15644
X122.65659Y23.61331
X115.8735Y28.30537
X110.51843Y20.04326
X116.1285Y16.01421
X122.75859Y6.47708
X105.92837Y14.73919
X116.94451Y8.97612
X123.6256Y5.76307
X110.72243Y23.2563
X126.12463Y35.34346
X94.60622Y12.64375
X98.73728Y19.44731
X41.71854Y31.82315
X46.1046Y33.71144
X99.04328Y16.01421
X92.98202Y28.65455
X114.54748Y18.87024
X93.73921Y29.17238
X48.09362Y38.5565
X8.51711Y38.5055
X6.32408Y37.63849
X87.46613Y37.43448
X26.92835Y36.57716
X87.61913Y36.57716
X91.69919Y37.28148
X85.01352Y33.35189
X84.30409Y33.35443
X91.00304Y37.53649
X26.62234Y33.91544
X32.79342Y15.69817
X39.37251Y15.5042
X32.79342Y14.42817
X39.37251Y13.31117
X101.84832Y21.52228
X101.89932Y20.40026
X89.45516Y23.0523
X94.70823Y27.28535
X89.25115Y30.8044
X95.57524Y26.97935
X89.81216Y31.62041
X48.90963Y20.80827
X47.48161Y19.94126
X84.9161Y19.89026
X86.08911Y20.09426
X29.22338Y21.77728
X28.50937Y27.64236
X15.5042Y6.57909
X18.76824Y5.04907
X38.14849Y2.19303
X79.20402Y21.98128
X79.61203Y25.70433
X95.08309Y30.19239
X107.66239Y15.1982
X112.04845Y14.38219
X116.38351Y24.22531
X117.86253Y24.48032
X103.65884Y27.92286
X104.32185Y28.53487
X104.32185Y24.40382
X115.797Y18.13073
X116.56201Y21.49678
X114.57298Y16.29471
X104.47485Y16.75372
X100.90481Y16.39671
X100.6498Y21.44578
X99.83379Y21.29278
X100.2418Y31.27169
X99.88479Y30.47289
X99.73179Y28.73887
X90.50067Y12.06166
X89.63366Y12.01066
X96.82475Y9.46062
X95.70274Y9.40962
X73.05845Y12.31666
X72.44644Y11.65365
X66.47936Y11.60265
X63.82733Y11.60265
X60.41028Y11.90865
X58.37026Y11.90865
X59.18627Y11.44965
X47.45611Y11.55165
X47.45611Y12.67366
X47.45611Y13.74468
X47.88962Y14.67869
X82.08556Y11.44965
X82.13656Y12.67366
X86.47162Y12.97967
X84.58459Y13.08167
X86.67562Y12.11266
X86.21662Y11.29665
X88.61365Y12.01066
X69.01381Y12.58072
X76.83249Y20.73177
X76.73049Y19.76276
X78.26051Y20.06876
X75.55748Y20.27276
X76.16949Y18.74274
X78.51552Y28.48387
X79.53553Y28.89187
X81.37155Y22.77179
X72.24331Y25.34034
X71.39664Y25.34034
X70.54998Y25.34034
X69.70331Y25.34034
X69.70331Y24.45134
X69.70331Y23.68934
X69.70331Y22.80034
X70.54998Y24.45134
X70.54998Y23.68934
X70.54998Y22.80034
X71.39664Y22.80034
X71.39664Y23.68934
X71.39664Y24.45134
X72.24331Y24.45134
X72.24331Y23.68934
X72.24331Y22.80034
X86.9825Y25.34034
X86.13583Y25.34034
X85.28917Y25.34034
X84.4425Y25.34034
X84.4425Y24.45134
X84.4425Y23.68934
X84.4425Y22.80034
X85.28917Y24.45134
X85.28917Y23.68934
X85.28917Y22.80034
X86.13583Y22.80034
X86.13583Y23.68934
X86.13583Y24.45134
X86.9825Y24.45134
X86.9825Y23.68934
X86.9825Y22.80034
X57.60612Y25.39134
X56.75945Y25.39134
X55.91279Y25.39134
X55.06612Y25.39134
X55.06612Y24.50234
X55.06612Y23.74034
X55.06612Y22.85134
X55.91279Y24.50234
X55.91279Y23.74034
X55.91279Y22.85134
X56.75945Y22.85134
X56.75945Y23.74034
X56.75945Y24.50234
X57.60612Y24.50234
X57.60612Y23.74034
X57.60612Y22.85134
X140.04265Y21.23221
X139.19598Y21.23221
X138.34931Y21.23221
X137.50265Y21.23221
X137.50265Y20.34321
X137.50265Y19.58121
X137.50265Y18.69221
X138.34931Y20.34321
X138.34931Y19.58121
X138.34931Y18.69221
X139.19598Y18.69221
X139.19598Y19.58121
X139.19598Y20.34321
X140.04265Y20.34321
X140.04265Y19.58121
X140.04265Y18.69221
X140.02319Y17.18023
X139.17652Y17.18023
X138.32985Y17.18023
X137.48319Y17.18023
X137.48319Y16.29123
X137.48319Y15.52923
X137.48319Y14.64023
X138.32985Y16.29123
X138.32985Y15.52923
X138.32985Y14.64023
X139.17652Y14.64023
X139.17652Y15.52923
X139.17652Y16.29123
X140.02319Y16.29123
X140.02319Y15.52923
X140.02319Y14.64023
X140.02319Y13.45719
X139.17652Y13.45719
X138.32985Y13.45719
X137.48319Y13.45719
X137.48319Y12.56819
X137.48319Y11.80619
X137.48319Y10.91719
X138.32985Y12.56819
X138.32985Y11.80619
X138.32985Y10.91719
X139.17652Y10.91719
X139.17652Y11.80619
X139.17652Y12.56819
X140.02319Y12.56819
X140.02319Y11.80619
X140.02319Y10.91719
X141.1962Y7.33711
X140.34954Y7.33711
X139.50287Y7.33711
X138.6562Y7.33711
X138.6562Y6.44811
X138.6562Y5.68611
X138.6562Y4.79711
X139.50287Y6.44811
X139.50287Y5.68611
X139.50287Y4.79711
X140.34954Y4.79711
X140.34954Y5.68611
X140.34954Y6.44811
X141.1962Y6.44811
X141.1962Y5.68611
X141.1962Y4.79711
X114.62486Y5.04208
X113.77819Y5.04208
X112.93152Y5.04208
X112.08486Y5.04208
X112.08486Y4.15308
X112.08486Y3.39108
X112.08486Y2.50208
X112.93152Y4.15308
X112.93152Y3.39108
X112.93152Y2.50208
X113.77819Y2.50208
X113.77819Y3.39108
X113.77819Y4.15308
X114.62486Y4.15308
X114.62486Y3.39108
X114.62486Y2.50208
X99.06966Y3.97106
X98.22299Y3.97106
X97.37632Y3.97106
X96.52966Y3.97106
X96.52966Y3.08206
X96.52966Y2.32006
X96.52966Y1.43106
X97.37632Y3.08206
X97.37632Y2.32006
X97.37632Y1.43106
X98.22299Y1.43106
X98.22299Y2.32006
X98.22299Y3.08206
X99.06966Y3.08206
X99.06966Y2.32006
X99.06966Y1.43106
X103.07825Y3.49164
X102.23158Y3.49164
X101.38491Y3.49164
X100.53825Y3.49164
X100.53825Y2.60264
X100.53825Y1.84064
X100.53825Y0.95164
X101.38491Y2.60264
X101.38491Y1.84064
X101.38491Y0.95164
X102.23158Y0.95164
X102.23158Y1.84064
X102.23158Y2.60264
X103.07825Y2.60264
X103.07825Y1.84064
X103.07825Y0.95164
X108.40278Y3.35906
X107.55611Y3.35906
X106.70944Y3.35906
X105.86278Y3.35906
X105.86278Y2.47006
X105.86278Y1.70806
X105.86278Y0.81906
X106.70944Y2.47006
X106.70944Y1.70806
X106.70944Y0.81906
X107.55611Y0.81906
X107.55611Y1.70806
X107.55611Y2.47006
X108.40278Y2.47006
X108.40278Y1.70806
X108.40278Y0.81906
X89.43053Y4.53207
X88.58387Y4.53207
X87.7372Y4.53207
X86.89053Y4.53207
X86.89053Y3.64307
X86.89053Y2.88107
X86.89053Y1.99207
X87.7372Y3.64307
X87.7372Y2.88107
X87.7372Y1.99207
X88.58387Y1.99207
X88.58387Y2.88107
X88.58387Y3.64307
X89.43053Y3.64307
X89.43053Y2.88107
X89.43053Y1.99207
X93.66359Y4.58307
X92.81692Y4.58307
X91.97025Y4.58307
X91.12359Y4.58307
X91.12359Y3.69407
X91.12359Y2.93207
X91.12359Y2.04307
X91.97025Y3.69407
X91.97025Y2.93207
X91.97025Y2.04307
X92.81692Y2.04307
X92.81692Y2.93207
X92.81692Y3.69407
X93.66359Y3.69407
X93.66359Y2.93207
X93.66359Y2.04307
X87.69651Y8.76513
X86.84984Y8.76513
X86.00318Y8.76513
X90.20558Y11.31516
X94.28563Y14.40421
X90.86858Y5.68611
X88.98156Y5.20511
X86.00318Y7.87613
X86.00318Y7.11413
X86.00318Y6.22513
X86.84984Y6.22513
X86.84984Y7.11413
X86.84984Y7.87613
X95.34661Y2.87806
X87.33951Y5.3291
X95.24461Y4.5421
X91.11355Y19.98527
X97.45798Y8.71413
X96.61131Y8.71413
X95.76465Y8.71413
X95.76465Y7.82513
X95.76465Y7.06313
X95.76465Y6.17413
X96.61131Y7.82513
X96.61131Y7.06313
X96.61131Y6.17413
X97.45798Y6.17413
X97.45798Y7.06313
X97.45798Y7.82513
X98.76365Y14.40421
X99.52866Y13.84621
X94.8366Y15.45625
X77.90438Y35.84648
X77.05772Y35.84648
X76.21105Y35.84648
X75.36438Y35.84648
X75.36438Y34.95748
X75.36438Y34.19548
X75.36438Y33.30648
X76.21105Y34.95748
X76.21105Y34.19548
X76.21105Y33.30648
X77.05772Y33.30648
X77.05772Y34.19548
X77.05772Y34.95748
X77.90438Y34.95748
X77.90438Y34.19548
X77.90438Y33.30648
X63.7262Y35.74448
X62.87953Y35.74448
X62.03287Y35.74448
X61.1862Y35.74448
X61.1862Y34.85548
X61.1862Y34.09348
X61.1862Y33.20448
X62.03287Y34.85548
X62.03287Y34.09348
X62.03287Y33.20448
X62.87953Y33.20448
X62.87953Y34.09348
X62.87953Y34.85548
X63.7262Y34.85548
X63.7262Y34.09348
X63.7262Y33.20448
X4.25943Y10.80515
X3.41276Y10.80515
X2.5661Y10.80515
X1.71943Y10.80515
X1.71943Y9.91615
X1.71943Y9.15415
X1.71943Y8.26515
X2.5661Y9.91615
X2.5661Y9.15415
X2.5661Y8.26515
X3.41276Y8.26515
X3.41276Y9.15415
X3.41276Y9.91615
X4.25943Y9.91615
X4.25943Y9.15415
X4.25943Y8.26515
X4.36143Y6.7251
X3.51477Y6.7251
X2.6681Y6.7251
X1.82143Y6.7251
X1.82143Y5.8361
X1.82143Y5.0741
X1.82143Y4.1851
X2.6681Y5.8361
X2.6681Y5.0741
X2.6681Y4.1851
X3.51477Y4.1851
X3.51477Y5.0741
X3.51477Y5.8361
X4.36143Y5.8361
X4.36143Y5.0741
X4.36143Y4.1851
X18.09064Y22.97533
X18.95358Y22.97533
X19.81653Y22.97533
X20.67947Y22.97533
X22.6807Y39.44854
X35.62484Y39.44854
X23.54364Y39.44854
X24.40659Y39.44854
X25.26953Y39.44854
X26.13247Y39.44854
X26.99541Y39.44854
X27.85836Y39.44854
X28.7213Y39.44854
X29.58424Y39.44854
X30.44718Y39.44854
X31.31012Y39.44854
X32.17307Y39.44854
X33.03601Y39.44854
X33.89895Y39.44854
X34.76189Y39.44854
X4.47347Y39.39754
X17.4176Y39.39754
X5.33641Y39.39754
X6.19935Y39.39754
X7.06229Y39.39754
X7.92524Y39.39754
X8.78818Y39.39754
X9.65112Y39.39754
X10.51406Y39.39754
X11.377Y39.39754
X12.23995Y39.39754
X13.10289Y39.39754
X13.96583Y39.39754
X14.82877Y39.39754
X15.69172Y39.39754
X3.39649Y38.78554
X2.63744Y38.02053
X19.86563Y39.39754
X1.71536Y37.10251
X0.99728Y36.0315
X0.675Y29.15862
X0.675Y30.02156
X0.675Y30.8845
X0.675Y31.74744
X0.675Y32.61039
X0.675Y33.47333
X0.675Y34.33627
X17.79495Y36.69451
X18.65789Y36.69451
X19.52083Y36.69451
X18.13975Y39.39754
X19.00269Y39.39754
X0.80444Y14.81548
X0.80444Y27.75961
X0.80444Y15.67842
X0.80444Y16.54136
X0.80444Y17.4043
X0.80444Y18.26725
X0.80444Y13.62212
X0.75344Y12.29203
X1.87546Y12.03296
X0.80444Y21.71902
X0.80444Y22.58196
X0.80444Y23.4449
X0.80444Y24.30784
X0.80444Y25.17079
X0.80444Y26.03373
X0.80444Y26.89667
X36.80788Y39.44854
X49.75202Y39.44854
X37.67083Y39.44854
X38.53377Y39.44854
X39.39671Y39.44854
X40.25965Y39.44854
X41.1226Y39.44854
X41.98554Y39.44854
X42.84848Y39.44854
X43.71142Y39.44854
X44.57437Y39.44854
X45.43731Y39.44854
X46.30025Y39.44854
X47.16319Y39.44854
X48.02613Y39.44854
X48.88908Y39.44854
X50.98607Y39.44854
X63.9302Y39.44854
X51.84901Y39.44854
X52.71195Y39.44854
X53.57489Y39.44854
X54.43784Y39.44854
X55.30078Y39.44854
X56.16372Y39.44854
X57.02666Y39.44854
X57.88961Y39.44854
X58.75255Y39.44854
X59.61549Y39.44854
X60.47843Y39.44854
X61.34138Y39.44854
X62.20432Y39.44854
X63.06726Y39.44854
X65.26625Y39.44854
X78.21039Y39.44854
X66.12919Y39.44854
X66.99214Y39.44854
X67.85508Y39.44854
X68.71802Y39.44854
X69.58096Y39.44854
X70.44391Y39.44854
X71.30685Y39.44854
X72.16979Y39.44854
X73.03273Y39.44854
X73.89568Y39.44854
X74.75862Y39.44854
X75.62156Y39.44854
X76.4845Y39.44854
X77.34744Y39.44854
X79.08563Y39.59566
X92.02976Y39.59566
X79.94857Y39.59566
X80.81151Y39.59566
X81.67445Y39.59566
X82.53739Y39.59566
X83.40034Y39.59566
X84.26328Y39.59566
X85.12622Y39.59566
X85.98916Y39.59566
X86.85211Y39.59566
X87.71505Y39.59566
X88.57799Y39.59566
X89.44093Y39.59566
X90.30388Y39.59566
X91.16682Y39.59566
X93.27866Y39.57858
X106.22279Y39.57858
X94.1416Y39.57858
X95.00454Y39.57858
X95.86748Y39.57858
X96.73042Y39.57858
X97.59337Y39.57858
X98.45631Y39.57858
X99.31925Y39.57858
X100.18219Y39.57858
X101.04514Y39.57858
X101.90808Y39.57858
X102.77102Y39.57858
X103.63396Y39.57858
X104.49691Y39.57858
X105.35985Y39.57858
X107.08679Y39.55055
X120.28593Y39.60155
X109.06768Y39.60155
X111.65651Y39.60155
X112.57045Y36.2355
X113.43339Y39.65255
X114.24534Y39.60155
X115.10828Y39.60155
X115.97122Y39.60155
X116.83416Y39.60155
X117.6971Y39.60155
X118.56005Y39.60155
X119.42299Y39.60155
X121.59376Y39.57512
X134.5379Y39.57512
X122.4567Y39.57512
X123.31965Y39.57512
X124.18259Y39.57512
X125.04553Y39.57512
X125.90847Y39.57512
X126.77142Y39.57512
X127.63436Y39.57512
X128.4973Y39.57512
X129.36024Y39.57512
X130.22318Y39.57512
X131.08613Y39.57512
X131.94907Y39.57512
X132.81201Y39.57512
X133.67495Y39.57512
X142.16481Y22.3237
X142.16481Y35.26783
X142.16481Y23.18664
X142.16481Y24.04958
X142.16481Y24.91252
X142.16481Y25.77547
X142.16481Y26.63841
X142.16481Y27.50135
X142.16481Y28.36429
X142.16481Y29.22724
X142.16481Y30.09018
X142.16481Y30.95312
X142.16481Y31.81606
X142.16481Y32.679
X142.16481Y33.54195
X142.16481Y34.40489
X142.11381Y8.24751
X142.11381Y21.19165
X142.11381Y9.11046
X142.11381Y9.9734
X142.11381Y10.83634
X142.11381Y11.69928
X142.11381Y12.56223
X142.11381Y13.42517
X142.11381Y14.28811
X142.11381Y15.15105
X142.11381Y16.014
X142.11381Y16.87694
X142.11381Y17.73988
X142.11381Y18.60282
X142.11381Y19.46576
X142.11381Y20.32871
X132.79113Y0.79004
X138.49317Y1.86106
X133.65407Y0.79004
X134.51701Y0.79004
X135.37995Y0.79004
X136.2429Y0.79004
X137.10584Y0.79004
X137.96878Y0.79004
X138.83172Y0.79004
X139.79667Y1.55505
X140.60861Y2.32006
X141.16555Y3.28908
X137.18343Y1.86106
X139.42339Y2.52407
X140.84734Y4.05409
X138.59924Y3.08507
X139.11521Y38.22453
X139.46218Y38.93854
X139.97815Y38.22453
X139.82108Y37.45952
X140.68402Y37.45952
X140.47595Y36.74551
X141.33889Y36.74551
X141.02882Y35.9805
X141.89176Y35.9805
X120.97742Y36.54151
X121.84036Y36.54151
X122.70331Y36.54151
X123.56625Y36.54151
X124.42919Y36.54151
X137.7363Y38.93854
X138.59924Y38.93854
X121.36698Y33.88947
X131.55708Y35.16449
X122.22992Y33.88947
X123.09286Y33.88947
X123.95581Y33.88947
X124.81875Y33.88947
X125.68169Y33.88947
X128.02365Y35.26649
X126.28556Y24.65835
X127.1485Y24.65835
X128.01144Y24.65835
X128.87439Y24.65835
X129.73733Y24.65835
X130.60027Y24.65835
X131.46321Y24.65835
X132.32616Y24.65835
X109.94283Y0.84104
X128.34404Y9.20515
X110.80577Y0.84104
X111.66872Y0.84104
X112.53166Y0.84104
X113.3946Y0.84104
X114.25754Y0.84104
X115.12048Y0.84104
X115.98343Y0.84104
X116.84637Y0.84104
X117.70931Y0.84104
X118.57225Y0.84104
X124.89227Y9.20515
X125.75521Y9.20515
X126.61815Y9.20515
X127.48109Y9.20515
X128.86408Y11.80619
X127.78303Y0.63704
X129.72702Y11.80619
X125.6429Y7.77713
X126.50584Y7.77713
X127.36878Y7.77713
X125.47769Y3.69708
X125.37162Y2.93207
X126.23456Y2.93207
X125.31248Y2.06506
X125.00241Y1.40205
X125.86535Y1.40205
X126.72829Y1.40205
X125.1942Y0.63704
X126.05714Y0.63704
X126.92009Y0.63704
X95.15264Y29.19741
X109.01479Y22.51633
X95.96458Y25.93337
X95.85851Y25.21936
X100.56997Y32.13198
X100.56997Y32.99493
X100.61283Y33.96801
X100.61283Y34.83095
X100.63223Y35.8785
X112.86832Y35.41949
X113.73126Y35.41949
X114.5942Y35.41949
X113.00911Y36.79651
X113.87206Y36.79651
X106.8809Y23.63834
X112.4869Y24.91336
X101.69104Y15.63124
X102.55398Y15.63124
X103.41692Y15.63124
X101.89504Y17.05925
X102.75798Y17.05925
X103.62092Y17.05925
X90.16489Y21.70031
X91.02783Y21.70031
X91.89077Y21.70031
X90.08926Y20.72431
X90.9522Y20.72431
X91.81514Y20.72431
X61.14551Y20.7823
X62.00845Y20.7823
X62.8714Y20.7823
X61.09451Y19.66029
X61.95745Y19.66029
X62.82039Y19.66029
X60.94151Y18.64028
X61.80445Y18.64028
X62.66739Y18.64028
X61.24751Y28.89141
X62.11045Y28.89141
X62.9734Y28.89141
X62.52253Y28.1774
X63.38547Y28.1774
X64.24841Y28.1774
X53.44341Y30.08576
X54.71436Y33.3498
X55.3733Y33.8088
X51.96539Y28.4834
X52.82833Y28.4834
X53.69128Y28.4834
X45.74331Y29.65642
X46.60625Y29.65642
X47.4692Y29.65642
X45.2333Y28.84041
X46.09625Y28.84041
X46.95919Y28.84041
X50.18037Y22.66933
X51.04331Y22.66933
X51.90625Y22.66933
X50.02737Y21.85332
X50.89031Y21.85332
X45.83717Y20.8333
X50.48637Y21.08831
X45.28024Y20.06829
X41.91012Y18.48727
X39.11323Y18.07927
X39.97617Y18.07927
X40.83911Y18.07927
X27.12807Y17.36526
X27.99101Y17.36526
X28.85395Y17.36526
X26.70917Y16.64325
X27.57211Y16.64325
X28.43506Y16.64325
X38.60322Y7.52213
X39.46616Y7.52213
X40.3291Y7.52213
X43.90729Y8.03214
X44.77023Y8.03214
X45.63317Y8.03214
X27.43407Y7.67513
X28.29702Y7.67513
X29.15996Y7.67513
X13.51089Y8.59315
X14.37384Y8.59315
X15.23678Y8.59315
X7.28881Y4.25809
X8.15176Y4.25809
X9.0147Y4.25809
X19.42697Y3.34008
X20.28991Y3.34008
X21.15286Y3.34008
X20.08998Y0.58604
X20.95292Y0.58604
X21.81586Y0.58604
X17.23394Y0.53504
X18.09688Y0.53504
X18.95983Y0.53504
X14.0719Y0.58604
X14.93484Y0.58604
X15.79779Y0.58604
X11.21586Y0.53504
X12.07881Y0.53504
X12.94175Y0.53504
X8.41083Y0.58604
X9.27377Y0.58604
X10.13671Y0.58604
X8.4472Y2.13976
X12.57418Y3.56778
X11.85611Y4.5368
X14.1756Y7.3273
X15.03854Y7.3273
X15.90149Y7.3273
X17.13194Y7.26713
X17.99488Y7.26713
X18.85783Y7.26713
X7.54382Y3.08507
X8.40676Y3.08507
X9.2697Y3.08507
X8.61483Y12.5202
X9.47777Y12.5202
X10.34072Y12.5202
X8.51283Y11.50018
X9.37577Y11.50018
X10.23871Y11.50018
X113.47421Y36.15854
X114.33716Y36.15854
X115.2001Y36.15854
X113.45143Y29.7291
X113.45143Y30.59205
X113.45143Y31.45499
X101.43603Y8.74615
X102.29897Y8.74615
X103.16192Y8.74615
X56.71273Y19.89466
X74.94547Y21.44578
X67.04037Y22.72079
X66.47936Y21.95578
X60.15528Y21.39478
X81.34605Y21.95606
X78.33701Y21.08905
X75.48098Y25.88311
X67.94255Y33.61423
X67.11687Y33.32921
X60.53778Y27.66814
X90.42417Y25.78111
X60.43578Y25.83211
T02
X3.7782Y19.14704G85X3.7782Y21.34703
X3.8781Y24.99714G85X2.6781Y24.99714
X8.57812Y24.99714G85X7.37812Y24.99714
X3.87798Y15.49728G85X2.67798Y15.49728
X8.57799Y15.49728G85X7.37799Y15.49728
T03
X130.24929Y14.36915
X43.75355Y5.50807
X41.21355Y5.50807
T04
X49.42967Y7.08909
X51.96967Y7.08909
X54.50967Y7.08909
X57.04967Y7.08909
X135.90535Y3.96
X135.90535Y6.5
X62.61443Y7.08909
X65.15443Y7.08909
X67.69443Y7.08909
X70.23443Y7.08909
X136.32476Y30.71243
X136.32476Y33.25243
X75.79919Y7.08909
X78.33919Y7.08909
X80.87919Y7.08909
X83.41919Y7.08909
X99.6287Y7.08909
X102.1687Y7.08909
X104.7087Y7.08909
X110.27346Y7.08909
X112.81346Y7.08909
X115.35346Y7.08909
X88.98394Y7.08909
X91.52394Y7.08909
X94.06394Y7.08909
X132.78929Y21.98915
T05
X20.282Y8.913G85X17.282Y8.913
X17.282Y28.213G85X20.282Y28.213
X130.24929Y19.44915
X132.78929Y19.44915
X130.24929Y16.90915
X132.78929Y14.36915
X132.78929Y16.90915
X130.24929Y21.98915
T06
X8.2926Y6.20132
X8.2926Y8.70068
X10.29158Y8.70068
X10.29158Y6.20132
T07
X130.51069Y9.21607
X130.51069Y6.67607
X130.51069Y4.13607
X130.51069Y1.59607
T08
X9.77804Y20.24708
T09
X5.58242Y1.4312
X5.58242Y13.4708
M30