G04 Layer: BottomSilkscreenLayer*
G04 EasyEDA Pro v2.2.32.3, 2025-06-13 17:08:39*
G04 Gerber Generator version 0.3*
G04 Scale: 100 percent, Rotated: No, Reflected: No*
G04 Dimensions in millimeters*
G04 Leading zeros omitted, absolute positions, 3 integers and 5 decimals*
%FSLAX35Y35*%
%MOMM*%
%ADD10C,0.11*%
%ADD11C,0.2*%
G75*


G04 Text Start*
G54D10*
G01X5524535Y973625D02*
G01X5595909Y973625D01*
G01X5524535Y973625D02*
G01X5524535Y943145D01*
G01X5527837Y932731D01*
G01X5531393Y929429D01*
G01X5537997Y926127D01*
G01X5544855Y926127D01*
G01X5551713Y929429D01*
G01X5555269Y932731D01*
G01X5558571Y943145D01*
G01X5558571Y973625D01*
G01X5558571Y949749D02*
G01X5595909Y926127D01*
G01X5541553Y895393D02*
G01X5537997Y895393D01*
G01X5531393Y892091D01*
G01X5527837Y888535D01*
G01X5524535Y881677D01*
G01X5524535Y868215D01*
G01X5527837Y861357D01*
G01X5531393Y857801D01*
G01X5537997Y854499D01*
G01X5544855Y854499D01*
G01X5551713Y857801D01*
G01X5561873Y864659D01*
G01X5595909Y898695D01*
G01X5595909Y851197D01*
G01X5537997Y823765D02*
G01X5534695Y817161D01*
G01X5524535Y806747D01*
G01X5595909Y806747D01*
G01X5295032Y958324D02*
G01X5366406Y958324D01*
G01X5295032Y958324D02*
G01X5295032Y927844D01*
G01X5298334Y917430D01*
G01X5301890Y914128D01*
G01X5308494Y910826D01*
G01X5315352Y910826D01*
G01X5322210Y914128D01*
G01X5325766Y917430D01*
G01X5329068Y927844D01*
G01X5329068Y958324D01*
G01X5329068Y934448D02*
G01X5366406Y910826D01*
G01X5312050Y880092D02*
G01X5308494Y880092D01*
G01X5301890Y876790D01*
G01X5298334Y873234D01*
G01X5295032Y866376D01*
G01X5295032Y852914D01*
G01X5298334Y846056D01*
G01X5301890Y842500D01*
G01X5308494Y839198D01*
G01X5315352Y839198D01*
G01X5322210Y842500D01*
G01X5332370Y849358D01*
G01X5366406Y883394D01*
G01X5366406Y835896D01*
G01X5312050Y805162D02*
G01X5308494Y805162D01*
G01X5301890Y801860D01*
G01X5298334Y798304D01*
G01X5295032Y791446D01*
G01X5295032Y777984D01*
G01X5298334Y771126D01*
G01X5301890Y767570D01*
G01X5308494Y764268D01*
G01X5315352Y764268D01*
G01X5322210Y767570D01*
G01X5332370Y774428D01*
G01X5366406Y808464D01*
G01X5366406Y760966D01*
G01X5014528Y958324D02*
G01X5085902Y958324D01*
G01X5014528Y958324D02*
G01X5014528Y927844D01*
G01X5017830Y917430D01*
G01X5021386Y914128D01*
G01X5027990Y910826D01*
G01X5034848Y910826D01*
G01X5041706Y914128D01*
G01X5045262Y917430D01*
G01X5048564Y927844D01*
G01X5048564Y958324D01*
G01X5048564Y934448D02*
G01X5085902Y910826D01*
G01X5031546Y880092D02*
G01X5027990Y880092D01*
G01X5021386Y876790D01*
G01X5017830Y873234D01*
G01X5014528Y866376D01*
G01X5014528Y852914D01*
G01X5017830Y846056D01*
G01X5021386Y842500D01*
G01X5027990Y839198D01*
G01X5034848Y839198D01*
G01X5041706Y842500D01*
G01X5051866Y849358D01*
G01X5085902Y883394D01*
G01X5085902Y835896D01*
G01X5014528Y791446D02*
G01X5017830Y801860D01*
G01X5024688Y805162D01*
G01X5031546Y805162D01*
G01X5038404Y801860D01*
G01X5041706Y795002D01*
G01X5045262Y781286D01*
G01X5048564Y771126D01*
G01X5055422Y764268D01*
G01X5062280Y760966D01*
G01X5072440Y760966D01*
G01X5079298Y764268D01*
G01X5082600Y767570D01*
G01X5085902Y777984D01*
G01X5085902Y791446D01*
G01X5082600Y801860D01*
G01X5079298Y805162D01*
G01X5072440Y808464D01*
G01X5062280Y808464D01*
G01X5055422Y805162D01*
G01X5048564Y798304D01*
G01X5045262Y788144D01*
G01X5041706Y774428D01*
G01X5038404Y767570D01*
G01X5031546Y764268D01*
G01X5024688Y764268D01*
G01X5017830Y767570D01*
G01X5014528Y777984D01*
G01X5014528Y791446D01*
G01X4734025Y958324D02*
G01X4805399Y958324D01*
G01X4734025Y958324D02*
G01X4734025Y927844D01*
G01X4737327Y917430D01*
G01X4740883Y914128D01*
G01X4747487Y910826D01*
G01X4754345Y910826D01*
G01X4761203Y914128D01*
G01X4764759Y917430D01*
G01X4768061Y927844D01*
G01X4768061Y958324D01*
G01X4768061Y934448D02*
G01X4805399Y910826D01*
G01X4734025Y876790D02*
G01X4734025Y839198D01*
G01X4761203Y859518D01*
G01X4761203Y849358D01*
G01X4764759Y842500D01*
G01X4768061Y839198D01*
G01X4778221Y835896D01*
G01X4785079Y835896D01*
G01X4795239Y839198D01*
G01X4802097Y846056D01*
G01X4805399Y856216D01*
G01X4805399Y866376D01*
G01X4802097Y876790D01*
G01X4798795Y880092D01*
G01X4791937Y883394D01*
G01X4734025Y788144D02*
G01X4737327Y798304D01*
G01X4747487Y805162D01*
G01X4764759Y808464D01*
G01X4774919Y808464D01*
G01X4791937Y805162D01*
G01X4802097Y798304D01*
G01X4805399Y788144D01*
G01X4805399Y781286D01*
G01X4802097Y771126D01*
G01X4791937Y764268D01*
G01X4774919Y760966D01*
G01X4764759Y760966D01*
G01X4747487Y764268D01*
G01X4737327Y771126D01*
G01X4734025Y781286D01*
G01X4734025Y788144D01*
G01X6865852Y963425D02*
G01X6937226Y963425D01*
G01X6865852Y963425D02*
G01X6865852Y932945D01*
G01X6869154Y922531D01*
G01X6872710Y919229D01*
G01X6879314Y915927D01*
G01X6886172Y915927D01*
G01X6893030Y919229D01*
G01X6896586Y922531D01*
G01X6899888Y932945D01*
G01X6899888Y963425D01*
G01X6899888Y939549D02*
G01X6937226Y915927D01*
G01X6882870Y885193D02*
G01X6879314Y885193D01*
G01X6872710Y881891D01*
G01X6869154Y878335D01*
G01X6865852Y871477D01*
G01X6865852Y858015D01*
G01X6869154Y851157D01*
G01X6872710Y847601D01*
G01X6879314Y844299D01*
G01X6886172Y844299D01*
G01X6893030Y847601D01*
G01X6903190Y854459D01*
G01X6937226Y888495D01*
G01X6937226Y840997D01*
G01X6865852Y806961D02*
G01X6865852Y769369D01*
G01X6893030Y789689D01*
G01X6893030Y779529D01*
G01X6896586Y772671D01*
G01X6899888Y769369D01*
G01X6910048Y766067D01*
G01X6916906Y766067D01*
G01X6927066Y769369D01*
G01X6933924Y776227D01*
G01X6937226Y786387D01*
G01X6937226Y796547D01*
G01X6933924Y806961D01*
G01X6930622Y810263D01*
G01X6923764Y813565D01*
G01X6631249Y963425D02*
G01X6702623Y963425D01*
G01X6631249Y963425D02*
G01X6631249Y932945D01*
G01X6634551Y922531D01*
G01X6638107Y919229D01*
G01X6644711Y915927D01*
G01X6651569Y915927D01*
G01X6658427Y919229D01*
G01X6661983Y922531D01*
G01X6665285Y932945D01*
G01X6665285Y963425D01*
G01X6665285Y939549D02*
G01X6702623Y915927D01*
G01X6648267Y885193D02*
G01X6644711Y885193D01*
G01X6638107Y881891D01*
G01X6634551Y878335D01*
G01X6631249Y871477D01*
G01X6631249Y858015D01*
G01X6634551Y851157D01*
G01X6638107Y847601D01*
G01X6644711Y844299D01*
G01X6651569Y844299D01*
G01X6658427Y847601D01*
G01X6668587Y854459D01*
G01X6702623Y888495D01*
G01X6702623Y840997D01*
G01X6655125Y769369D02*
G01X6665285Y772671D01*
G01X6672143Y779529D01*
G01X6675445Y789689D01*
G01X6675445Y793245D01*
G01X6672143Y803405D01*
G01X6665285Y810263D01*
G01X6655125Y813565D01*
G01X6651569Y813565D01*
G01X6641409Y810263D01*
G01X6634551Y803405D01*
G01X6631249Y793245D01*
G01X6631249Y789689D01*
G01X6634551Y779529D01*
G01X6641409Y772671D01*
G01X6655125Y769369D01*
G01X6672143Y769369D01*
G01X6689161Y772671D01*
G01X6699321Y779529D01*
G01X6702623Y789689D01*
G01X6702623Y796547D01*
G01X6699321Y806961D01*
G01X6692463Y810263D01*
G01X6360946Y958324D02*
G01X6432320Y958324D01*
G01X6360946Y958324D02*
G01X6360946Y927844D01*
G01X6364248Y917430D01*
G01X6367804Y914128D01*
G01X6374408Y910826D01*
G01X6381266Y910826D01*
G01X6388124Y914128D01*
G01X6391680Y917430D01*
G01X6394982Y927844D01*
G01X6394982Y958324D01*
G01X6394982Y934448D02*
G01X6432320Y910826D01*
G01X6360946Y876790D02*
G01X6360946Y839198D01*
G01X6388124Y859518D01*
G01X6388124Y849358D01*
G01X6391680Y842500D01*
G01X6394982Y839198D01*
G01X6405142Y835896D01*
G01X6412000Y835896D01*
G01X6422160Y839198D01*
G01X6429018Y846056D01*
G01X6432320Y856216D01*
G01X6432320Y866376D01*
G01X6429018Y876790D01*
G01X6425716Y880092D01*
G01X6418858Y883394D01*
G01X6374408Y808464D02*
G01X6371106Y801860D01*
G01X6360946Y791446D01*
G01X6432320Y791446D01*
G01X6090642Y937924D02*
G01X6162016Y937924D01*
G01X6090642Y937924D02*
G01X6090642Y907444D01*
G01X6093944Y897030D01*
G01X6097500Y893728D01*
G01X6104104Y890426D01*
G01X6110962Y890426D01*
G01X6117820Y893728D01*
G01X6121376Y897030D01*
G01X6124678Y907444D01*
G01X6124678Y937924D01*
G01X6124678Y914048D02*
G01X6162016Y890426D01*
G01X6090642Y856390D02*
G01X6090642Y818798D01*
G01X6117820Y839118D01*
G01X6117820Y828958D01*
G01X6121376Y822100D01*
G01X6124678Y818798D01*
G01X6134838Y815496D01*
G01X6141696Y815496D01*
G01X6151856Y818798D01*
G01X6158714Y825656D01*
G01X6162016Y835816D01*
G01X6162016Y845976D01*
G01X6158714Y856390D01*
G01X6155412Y859692D01*
G01X6148554Y862994D01*
G01X6107660Y784762D02*
G01X6104104Y784762D01*
G01X6097500Y781460D01*
G01X6093944Y777904D01*
G01X6090642Y771046D01*
G01X6090642Y757584D01*
G01X6093944Y750726D01*
G01X6097500Y747170D01*
G01X6104104Y743868D01*
G01X6110962Y743868D01*
G01X6117820Y747170D01*
G01X6127980Y754028D01*
G01X6162016Y788064D01*
G01X6162016Y740566D01*
G01X8181771Y979422D02*
G01X8253145Y979422D01*
G01X8181771Y979422D02*
G01X8181771Y948942D01*
G01X8185073Y938528D01*
G01X8188629Y935226D01*
G01X8195233Y931924D01*
G01X8202091Y931924D01*
G01X8208949Y935226D01*
G01X8212505Y938528D01*
G01X8215807Y948942D01*
G01X8215807Y979422D01*
G01X8215807Y955546D02*
G01X8253145Y931924D01*
G01X8195233Y904492D02*
G01X8191931Y897888D01*
G01X8181771Y887474D01*
G01X8253145Y887474D01*
G01X8181771Y843024D02*
G01X8185073Y853438D01*
G01X8191931Y856740D01*
G01X8198789Y856740D01*
G01X8205647Y853438D01*
G01X8208949Y846580D01*
G01X8212505Y832864D01*
G01X8215807Y822704D01*
G01X8222665Y815846D01*
G01X8229523Y812544D01*
G01X8239683Y812544D01*
G01X8246541Y815846D01*
G01X8249843Y819148D01*
G01X8253145Y829562D01*
G01X8253145Y843024D01*
G01X8249843Y853438D01*
G01X8246541Y856740D01*
G01X8239683Y860042D01*
G01X8229523Y860042D01*
G01X8222665Y856740D01*
G01X8215807Y849882D01*
G01X8212505Y839722D01*
G01X8208949Y826006D01*
G01X8205647Y819148D01*
G01X8198789Y815846D01*
G01X8191931Y815846D01*
G01X8185073Y819148D01*
G01X8181771Y829562D01*
G01X8181771Y843024D01*
G01X7921566Y973625D02*
G01X7992940Y973625D01*
G01X7921566Y973625D02*
G01X7921566Y943145D01*
G01X7924868Y932731D01*
G01X7928424Y929429D01*
G01X7935028Y926127D01*
G01X7941886Y926127D01*
G01X7948744Y929429D01*
G01X7952300Y932731D01*
G01X7955602Y943145D01*
G01X7955602Y973625D01*
G01X7955602Y949749D02*
G01X7992940Y926127D01*
G01X7935028Y898695D02*
G01X7931726Y892091D01*
G01X7921566Y881677D01*
G01X7992940Y881677D01*
G01X7945442Y810049D02*
G01X7955602Y813351D01*
G01X7962460Y820209D01*
G01X7965762Y830369D01*
G01X7965762Y833925D01*
G01X7962460Y844085D01*
G01X7955602Y850943D01*
G01X7945442Y854245D01*
G01X7941886Y854245D01*
G01X7931726Y850943D01*
G01X7924868Y844085D01*
G01X7921566Y833925D01*
G01X7921566Y830369D01*
G01X7924868Y820209D01*
G01X7931726Y813351D01*
G01X7945442Y810049D01*
G01X7962460Y810049D01*
G01X7979478Y813351D01*
G01X7989638Y820209D01*
G01X7992940Y830369D01*
G01X7992940Y837227D01*
G01X7989638Y847641D01*
G01X7982780Y850943D01*
G01X7666563Y978725D02*
G01X7737937Y978725D01*
G01X7666563Y978725D02*
G01X7666563Y948245D01*
G01X7669865Y937831D01*
G01X7673421Y934529D01*
G01X7680025Y931227D01*
G01X7686883Y931227D01*
G01X7693741Y934529D01*
G01X7697297Y937831D01*
G01X7700599Y948245D01*
G01X7700599Y978725D01*
G01X7700599Y954849D02*
G01X7737937Y931227D01*
G01X7683581Y900493D02*
G01X7680025Y900493D01*
G01X7673421Y897191D01*
G01X7669865Y893635D01*
G01X7666563Y886777D01*
G01X7666563Y873315D01*
G01X7669865Y866457D01*
G01X7673421Y862901D01*
G01X7680025Y859599D01*
G01X7686883Y859599D01*
G01X7693741Y862901D01*
G01X7703901Y869759D01*
G01X7737937Y903795D01*
G01X7737937Y856297D01*
G01X7666563Y794829D02*
G01X7714315Y828865D01*
G01X7714315Y777811D01*
G01X7666563Y794829D02*
G01X7737937Y794829D01*
G01X7391159Y963425D02*
G01X7462533Y963425D01*
G01X7391159Y963425D02*
G01X7391159Y932945D01*
G01X7394461Y922531D01*
G01X7398017Y919229D01*
G01X7404621Y915927D01*
G01X7411479Y915927D01*
G01X7418337Y919229D01*
G01X7421893Y922531D01*
G01X7425195Y932945D01*
G01X7425195Y963425D01*
G01X7425195Y939549D02*
G01X7462533Y915927D01*
G01X7408177Y885193D02*
G01X7404621Y885193D01*
G01X7398017Y881891D01*
G01X7394461Y878335D01*
G01X7391159Y871477D01*
G01X7391159Y858015D01*
G01X7394461Y851157D01*
G01X7398017Y847601D01*
G01X7404621Y844299D01*
G01X7411479Y844299D01*
G01X7418337Y847601D01*
G01X7428497Y854459D01*
G01X7462533Y888495D01*
G01X7462533Y840997D01*
G01X7401319Y772671D02*
G01X7394461Y776227D01*
G01X7391159Y786387D01*
G01X7391159Y793245D01*
G01X7394461Y803405D01*
G01X7404621Y810263D01*
G01X7421893Y813565D01*
G01X7438911Y813565D01*
G01X7452373Y810263D01*
G01X7459231Y803405D01*
G01X7462533Y793245D01*
G01X7462533Y789689D01*
G01X7459231Y779529D01*
G01X7452373Y772671D01*
G01X7442213Y769369D01*
G01X7438911Y769369D01*
G01X7428497Y772671D01*
G01X7421893Y779529D01*
G01X7418337Y789689D01*
G01X7418337Y793245D01*
G01X7421893Y803405D01*
G01X7428497Y810263D01*
G01X7438911Y813565D01*
G04 Text End*

G04 PolygonModel Start*
G54D11*
G01X5673675Y426404D02*
G01X5673675Y561904D01*
G01X5673675Y90904D02*
G01X5913675Y90904D01*
G01X5673675Y561904D02*
G01X5913675Y561904D01*
G01X5913675Y426404D02*
G01X5913675Y561904D01*
G01X5913675Y90904D02*
G01X5913675Y226404D01*
G01X5673675Y90904D02*
G01X5673675Y226404D01*
G01X5360871Y426404D02*
G01X5360871Y561904D01*
G01X5360871Y90904D02*
G01X5600871Y90904D01*
G01X5360871Y561904D02*
G01X5600871Y561904D01*
G01X5600871Y426404D02*
G01X5600871Y561904D01*
G01X5600871Y90904D02*
G01X5600871Y226404D01*
G01X5360871Y90904D02*
G01X5360871Y226404D01*
G01X5048067Y426404D02*
G01X5048067Y561904D01*
G01X5048067Y90904D02*
G01X5288067Y90904D01*
G01X5048067Y561904D02*
G01X5288067Y561904D01*
G01X5288067Y426404D02*
G01X5288067Y561904D01*
G01X5288067Y90904D02*
G01X5288067Y226404D01*
G01X5048067Y90904D02*
G01X5048067Y226404D01*
G01X4735263Y426404D02*
G01X4735263Y561904D01*
G01X4735263Y90904D02*
G01X4975263Y90904D01*
G01X4735263Y561904D02*
G01X4975263Y561904D01*
G01X4975263Y426404D02*
G01X4975263Y561904D01*
G01X4975263Y90904D02*
G01X4975263Y226404D01*
G01X4735263Y90904D02*
G01X4735263Y226404D01*
G01X6938491Y436604D02*
G01X6938491Y572105D01*
G01X6938491Y101104D02*
G01X7178491Y101104D01*
G01X6938491Y572105D02*
G01X7178491Y572105D01*
G01X7178491Y436604D02*
G01X7178491Y572105D01*
G01X7178491Y101104D02*
G01X7178491Y236605D01*
G01X6938491Y101104D02*
G01X6938491Y236605D01*
G01X6644387Y436604D02*
G01X6644387Y572105D01*
G01X6644387Y101104D02*
G01X6884387Y101104D01*
G01X6644387Y572105D02*
G01X6884387Y572105D01*
G01X6884387Y436604D02*
G01X6884387Y572105D01*
G01X6884387Y101104D02*
G01X6884387Y236605D01*
G01X6644387Y101104D02*
G01X6644387Y236605D01*
G01X6350283Y436604D02*
G01X6350283Y572105D01*
G01X6350283Y101104D02*
G01X6590283Y101104D01*
G01X6350283Y572105D02*
G01X6590283Y572105D01*
G01X6590283Y436604D02*
G01X6590283Y572105D01*
G01X6590283Y101104D02*
G01X6590283Y236605D01*
G01X6350283Y101104D02*
G01X6350283Y236605D01*
G01X6056180Y436604D02*
G01X6056180Y572105D01*
G01X6056180Y101104D02*
G01X6296180Y101104D01*
G01X6056180Y572105D02*
G01X6296180Y572105D01*
G01X6296180Y436604D02*
G01X6296180Y572105D01*
G01X6296180Y101104D02*
G01X6296180Y236605D01*
G01X6056180Y101104D02*
G01X6056180Y236605D01*
G01X8295109Y436604D02*
G01X8295109Y572105D01*
G01X8295109Y101104D02*
G01X8535109Y101104D01*
G01X8295109Y572105D02*
G01X8535109Y572105D01*
G01X8535109Y436604D02*
G01X8535109Y572105D01*
G01X8535109Y101104D02*
G01X8535109Y236605D01*
G01X8295109Y101104D02*
G01X8295109Y236605D01*
G01X7995905Y436604D02*
G01X7995905Y572105D01*
G01X7995905Y101104D02*
G01X8235905Y101104D01*
G01X7995905Y572105D02*
G01X8235905Y572105D01*
G01X8235905Y436604D02*
G01X8235905Y572105D01*
G01X8235905Y101104D02*
G01X8235905Y236605D01*
G01X7995905Y101104D02*
G01X7995905Y236605D01*
G01X7696701Y436604D02*
G01X7696701Y572105D01*
G01X7696701Y101104D02*
G01X7936701Y101104D01*
G01X7696701Y572105D02*
G01X7936701Y572105D01*
G01X7936701Y436604D02*
G01X7936701Y572105D01*
G01X7936701Y101104D02*
G01X7936701Y236605D01*
G01X7696701Y101104D02*
G01X7696701Y236605D01*
G01X7397497Y436604D02*
G01X7397497Y572105D01*
G01X7397497Y101104D02*
G01X7637497Y101104D01*
G01X7397497Y572105D02*
G01X7637497Y572105D01*
G01X7637497Y436604D02*
G01X7637497Y572105D01*
G01X7637497Y101104D02*
G01X7637497Y236605D01*
G01X7397497Y101104D02*
G01X7397497Y236605D01*

M02*

