G04 Layer: CustomLayer2*
G04 EasyEDA Pro v2.2.32.3, 2025-07-04 18:02:21*
G04 Gerber Generator version 0.3*
G04 Scale: 100 percent, Rotated: No, Reflected: No*
G04 Dimensions in millimeters*
G04 Leading zeros omitted, absolute positions, 3 integers and 5 decimals*
%FSLAX35Y35*%
%MOMM*%
%ADD10C,0.15*%
G75*


G04 PolygonModel Start*
G54D10*
G01X5864000Y6940000D02*
G01X5864000Y7200000D01*
G01X6296000Y6940000D02*
G01X6296000Y7200000D01*
G01X5864000Y6940000D02*
G01X6296000Y6940000D01*
G01X5864000Y7200000D02*
G01X6296000Y7200000D01*
G01X11350000Y2305000D02*
G01X11530000Y2305000D01*
G01X11350000Y1995000D02*
G01X11530000Y1995000D01*
G01X11350000Y1995000D02*
G01X11350000Y2305000D01*
G01X11530000Y1995000D02*
G01X11530000Y2305000D01*
G01X6300000Y6145000D02*
G01X6120000Y6145000D01*
G01X6300000Y6455000D02*
G01X6120000Y6455000D01*
G01X6300000Y6455000D02*
G01X6300000Y6145000D01*
G01X6120000Y6455000D02*
G01X6120000Y6145000D01*
G01X1841383Y3894000D02*
G01X1581383Y3894000D01*
G01X1841383Y4326000D02*
G01X1581383Y4326000D01*
G01X1841383Y3894000D02*
G01X1841383Y4326000D01*
G01X1581383Y3894000D02*
G01X1581383Y4326000D01*
G01X4726000Y3710000D02*
G01X4726000Y3450000D01*
G01X4294000Y3710000D02*
G01X4294000Y3450000D01*
G01X4726000Y3710000D02*
G01X4294000Y3710000D01*
G01X4726000Y3450000D02*
G01X4294000Y3450000D01*
G01X4294000Y3140000D02*
G01X4726000Y3140000D01*
G01X4294000Y3400000D02*
G01X4726000Y3400000D01*
G01X4294000Y3140000D02*
G01X4294000Y3400000D01*
G01X4726000Y3140000D02*
G01X4726000Y3400000D01*
G01X1230000Y2326000D02*
G01X1490000Y2326000D01*
G01X1230000Y1894000D02*
G01X1490000Y1894000D01*
G01X1230000Y2326000D02*
G01X1230000Y1894000D01*
G01X1490000Y2326000D02*
G01X1490000Y1894000D01*
G01X4050000Y6556000D02*
G01X4050000Y6124000D01*
G01X4310000Y6556000D02*
G01X4310000Y6124000D01*
G01X4050000Y6556000D02*
G01X4310000Y6556000D01*
G01X4050000Y6124000D02*
G01X4310000Y6124000D01*
G01X1640000Y5154000D02*
G01X1640000Y5586000D01*
G01X1380000Y5154000D02*
G01X1380000Y5586000D01*
G01X1640000Y5154000D02*
G01X1380000Y5154000D01*
G01X1640000Y5586000D02*
G01X1380000Y5586000D01*
G01X1930000Y5154000D02*
G01X1930000Y5586000D01*
G01X1670000Y5154000D02*
G01X1670000Y5586000D01*
G01X1930000Y5154000D02*
G01X1670000Y5154000D01*
G01X1930000Y5586000D02*
G01X1670000Y5586000D01*

M02*

