G04 Layer: BottomLayer*
G04 EasyEDA Pro v2.2.32.3, 2025-07-04 18:02:21*
G04 Gerber Generator version 0.3*
G04 Scale: 100 percent, Rotated: No, Reflected: No*
G04 Dimensions in millimeters*
G04 Leading zeros omitted, absolute positions, 3 integers and 5 decimals*
%FSLAX35Y35*%
%MOMM*%
%ADD10C,0.2032*%
%ADD11C,0.1*%
%ADD12C,1.2*%
%ADD13C,0.6*%
%ADD14C,1.6*%
%ADD15R,1.6X1.6*%
%ADD16R,1.2X1.2*%
%ADD17O,2.0X1.6*%
%ADD18R,2.0075X1.6*%
%ADD19R,2.0X1.6*%
%ADD20R,1.2X1.4*%
%ADD21O,1.2X1.4*%
%ADD22O,7.0X2.0*%
%ADD23C,2.1844*%
%ADD24R,2.1844X2.1844*%
%ADD25R,2.0X1.5*%
%ADD26O,2.0X1.5*%
%ADD27C,2.54*%
%ADD28R,2.54X2.54*%
%ADD29C,1.4*%
%ADD30R,1.4X1.4*%
%ADD31O,1.5X2.0*%
%ADD32R,1.5X2.0*%
%ADD33R,2.1844X2.1844*%
%ADD34O,3.0X2.0*%
%ADD35C,2.6*%
%ADD36O,2.0X4.0*%
%ADD37R,1.4X1.4*%
%ADD38C,3.0*%
%ADD39C,1.524*%
%ADD40C,0.5*%
%ADD41C,0.53*%
%ADD42C,2.0*%
%ADD43C,0.3*%
%ADD44C,0.8*%
%ADD45C,0.254*%
%ADD46C,0.381*%
%ADD47C,1.9812*%
G75*


G04 Copper Start*
G36*
G01X1270Y7873180D02*
G01X170219Y7873180D01*
G03X829781Y7873180I329781J226820D01*
G01X12170218Y7873180D01*
G03X12829782Y7873180I329782J226820D01*
G01X12998730Y7873180D01*
G01X12998730Y756920D01*
G01X12806913Y756920D01*
G03X12193087Y756920I-306913J-256920D01*
G01X738055Y756920D01*
G03X261945Y756920I-238055J-256920D01*
G01X1270Y756920D01*
G01X1270Y5130445D01*
G03X152146Y5115248I80530J42955D01*
G01X152146Y3594100D01*
G03X159660Y3575960I25654J0D01*
G01X426360Y3309260D01*
G03X444500Y3301746I18140J18140D01*
G01X1090053Y3301746D01*
G03X1108194Y3309260I0J25654D01*
G01X1248140Y3449207D01*
G03X1255654Y3467347I-18140J18140D01*
G01X1255654Y4586600D01*
G03X1248140Y4604740I-25654J0D01*
G01X851154Y5001726D01*
G01X851154Y5171809D01*
G03X1162454Y5173400I155646J1591D01*
G03X851154Y5174991I-155654J0D01*
G01X851154Y5374174D01*
G01X1003766Y5526786D01*
G01X1591498Y5526786D01*
G03X1679685Y5563314I0J124714D01*
G01X3171871Y7055500D01*
G03X3215369Y7275370I-51872J124500D01*
G03X2995498Y7231872I-95370J-95370D01*
G01X1539840Y5776214D01*
G01X1016466Y5776214D01*
G01X983340Y5809340D01*
G03X965200Y5816854I-18140J-18140D01*
G01X241300Y5816854D01*
G03X223160Y5809340I0J-25654D01*
G01X159660Y5745840D01*
G03X152146Y5727700I18140J-18140D01*
G01X152146Y5231552D01*
G03X1270Y5216355I-70346J-58152D01*
G01X1270Y7873180D01*
G37*
%LPC*%
G36*
G01X790010Y6207809D02*
G03X790010Y5896501I0J-155654D01*
G03X790010Y6207809I0J155654D01*
G37*
G36*
G01X4745707Y4045707D02*
G01X5050767Y3740647D01*
G03X5090120Y3724346I39353J39353D01*
G01X5610192Y3724346D01*
G03X5700000Y3674346I89808J55654D01*
G01X6076237Y3674346D01*
G01X6215291Y3535291D01*
G03X6290000Y3504346I74709J74709D01*
G01X10196237Y3504346D01*
G01X10935292Y2765291D01*
G03X11010000Y2734346I74709J74709D01*
G01X11070000Y2734346D01*
G03X11070000Y2945654I0J105654D01*
G01X11053764Y2945654D01*
G01X10314709Y3684709D01*
G03X10240000Y3715654I-74709J-74709D01*
G01X6333763Y3715654D01*
G01X6194709Y3854709D01*
G03X6120000Y3885654I-74709J-74709D01*
G01X5700000Y3885654D01*
G03X5610192Y3835654I0J-105654D01*
G01X5113172Y3835654D01*
G01X4315654Y4633172D01*
G01X4315654Y6236948D01*
G01X4413052Y6334346D01*
G01X4419456Y6334346D01*
G01X4330888Y6235438D01*
G03X4324346Y6218325I19112J-17114D01*
G01X4324346Y4755381D01*
G03X4330888Y4738267I25654J0D01*
G01X4890888Y4112887D01*
G03X4910000Y4104346I19112J17114D01*
G01X5275263Y4104346D01*
G03X5389707Y3926812I114444J-51880D01*
G01X6102466Y3926812D01*
G03X6191317Y3963616I0J125654D01*
G01X6578851Y4351149D01*
G03X6615654Y4440000I-88851J88851D01*
G01X6615654Y5778249D01*
G03X6621253Y5771254I34346J21751D01*
G01X6699346Y5693161D01*
G01X6699346Y5500217D01*
G03X6740000Y5419346I40654J-30217D01*
G03X6780654Y5500217I0J50654D01*
G01X6780654Y5710000D01*
G03X6768747Y5738747I-40654J0D01*
G01X6690654Y5816840D01*
G01X6690654Y6049783D01*
G03X6683871Y6117664I-40654J30217D01*
G03X6615654Y6117232I-33871J-37664D01*
G01X6615654Y6899414D01*
G01X6624497Y6908258D01*
G03X6699031Y7023043I-51121J114785D01*
G01X6699031Y7176623D01*
G03X6662227Y7265474I-125654J0D01*
G01X6338851Y7588851D01*
G03X6250000Y7625654I-88851J-88851D01*
G01X1960000Y7625654D01*
G03X1871149Y7588851I0J-125654D01*
G01X1654952Y7372654D01*
G01X1613001Y7372654D01*
G03X1587347Y7347000I0J-25654D01*
G01X1587347Y7305048D01*
G01X1449338Y7167039D01*
G01X1284704Y7331673D01*
G01X1284704Y7474336D01*
G03X1240000Y7548809I-44704J23820D01*
G03X1195296Y7474336I0J-50654D01*
G01X1195296Y7313156D01*
G03X1208390Y7281546I44704J0D01*
G01X1386117Y7103818D01*
G01X866198Y6583899D01*
G03X634636Y6438847I-76188J-135733D01*
G03X881875Y6322512I155375J9319D01*
G01X908166Y6322512D01*
G03X997017Y6359315I0J125654D01*
G01X1705048Y7067346D01*
G01X1867001Y7067346D01*
G03X1892655Y7093000I0J25654D01*
G01X1892655Y7254953D01*
G01X2012048Y7374346D01*
G01X6197952Y7374346D01*
G01X6447722Y7124576D01*
G01X6447722Y7086886D01*
G01X6401149Y7040313D01*
G03X6364346Y6951462I88851J-88851D01*
G01X6364346Y4492048D01*
G01X6355654Y4483356D01*
G01X6355654Y6296498D01*
G03X6349112Y6313611I-25654J0D01*
G01X6319112Y6347114D01*
G03X6300000Y6355654I-19112J-17114D01*
G01X5294422Y6355654D01*
G03X5298134Y6395774I-44422J24341D01*
G03X5242780Y6445654I-55354J-5774D01*
G01X4390000Y6445654D01*
G03X4350647Y6429353I0J-55654D01*
G01X4220647Y6299353D01*
G03X4204346Y6260000I39353J-39353D01*
G01X4204346Y4610120D01*
G03X4220647Y4570767I55654J0D01*
G01X4745707Y4045707D01*
G37*
G36*
G01X950918Y1683421D02*
G01X914580Y1719760D01*
G01X914220Y1719760D01*
G01X870486Y1676025D01*
G01X721385Y1676025D01*
G01X721257Y1675552D01*
G01X736385Y1666723D01*
G01X804604Y1666723D01*
G01X893826Y1577502D01*
G01X893826Y1559560D01*
G01X894080Y1559306D01*
G01X896590Y1559312D01*
G03X1022434Y1436772I98910J-24312D01*
G03X1068177Y1606361I-26934J98228D01*
G01X1106384Y1606361D01*
G01X1106638Y1606615D01*
G01X1106638Y1739807D01*
G01X1106205Y1739987D01*
G01X1049639Y1683421D01*
G01X1002977Y1683421D01*
G03X1071630Y1852664I-7477J101579D01*
G03X895500Y1804345I-76130J-67664D01*
G03X693646Y1785000I-100000J-19345D01*
G03X895500Y1765655I101854J-0D01*
G03X988023Y1683421I100000J19345D01*
G01X950918Y1683421D01*
G37*
G36*
G01X5120644Y1853150D02*
G01X5197380Y1929887D01*
G03X5225818Y2015818I-7380J50113D01*
G03X5139887Y1987380I-35818J-35818D01*
G01X5051243Y1898737D01*
G03X5039336Y1869990I28747J-28747D01*
G01X5039336Y1160654D01*
G01X1759839Y1160654D01*
G01X1715654Y1204839D01*
G01X1715654Y1353000D01*
G03X1690000Y1378654I-25654J0D01*
G01X1490000Y1378654D01*
G03X1464346Y1353000I0J-25654D01*
G01X1464346Y1193000D01*
G03X1490000Y1167346I25654J0D01*
G01X1638160Y1167346D01*
G01X1714253Y1091253D01*
G03X1743000Y1079346I28747J28747D01*
G01X8102002Y1079346D01*
G03X8130749Y1091253I0J40654D01*
G01X8325524Y1286029D01*
G03X8425640Y1443638I32478J89971D01*
G03X8268031Y1343522I-67638J-67638D01*
G01X8085163Y1160654D01*
G01X5120644Y1160654D01*
G01X5120644Y1853150D01*
G37*
G36*
G01X1631149Y5368852D02*
G03X1594346Y5280002I88851J-88851D01*
G01X1594346Y4858000D01*
G03X1845654Y4858000I125654J0D01*
G01X1845654Y5227954D01*
G01X3674194Y7056493D01*
G03X3682187Y7060319I-54195J123507D01*
G01X3921252Y6821253D01*
G03X3949999Y6809346I28747J28747D01*
G01X4029783Y6809346D01*
G03X4110654Y6850000I30217J40654D01*
G03X4029783Y6890654I-50654J0D01*
G01X3966838Y6890654D01*
G01X3739680Y7117812D01*
G03X3678222Y7301660I-119681J62188D01*
G03X3496492Y7234195I-58223J-121660D01*
G01X1631149Y5368852D01*
G37*
G36*
G01X2030000Y2604346D02*
G01X3610000Y2604346D01*
G03X3628140Y2611860I0J25654D01*
G01X3788140Y2771860D01*
G03X3795654Y2790000I-18140J18140D01*
G01X3795654Y3950000D01*
G03X3788140Y3968140I-25654J0D01*
G01X3628140Y4128140D01*
G03X3610000Y4135654I-18140J-18140D01*
G01X1860000Y4135654D01*
G03X1841860Y4128140I0J-25654D01*
G01X1701860Y3988140D01*
G03X1694346Y3970000I18140J-18140D01*
G01X1694346Y2940000D01*
G03X1701860Y2921860I25654J0D01*
G01X2011860Y2611860D01*
G03X2030000Y2604346I18140J18140D01*
G37*
G36*
G01X2141321Y7067346D02*
G03X2141321Y7372654I0J152654D01*
G03X2141321Y7067346I0J-152654D01*
G37*
G36*
G01X2325654Y1353000D02*
G03X2300000Y1378654I-25654J0D01*
G01X2100000Y1378654D01*
G03X2074346Y1353000I0J-25654D01*
G01X2074346Y1193000D01*
G03X2100000Y1167346I25654J0D01*
G01X2300000Y1167346D01*
G03X2325654Y1193000I0J25654D01*
G01X2325654Y1353000D01*
G37*
G36*
G01X2754873Y7289220D02*
G03X2729219Y7314874I-25654J0D01*
G01X2510779Y7314874D01*
G03X2485125Y7289220I0J-25654D01*
G01X2485125Y7070780D01*
G03X2510779Y7045126I25654J0D01*
G01X2729219Y7045126D01*
G03X2754873Y7070780I0J25654D01*
G01X2754873Y7289220D01*
G37*
G36*
G01X2935654Y1353000D02*
G03X2910000Y1378654I-25654J0D01*
G01X2710000Y1378654D01*
G03X2684346Y1353000I0J-25654D01*
G01X2684346Y1193000D01*
G03X2710000Y1167346I25654J0D01*
G01X2910000Y1167346D01*
G03X2935654Y1193000I0J25654D01*
G01X2935654Y1353000D01*
G37*
G36*
G01X3545654Y1353000D02*
G03X3520000Y1378654I-25654J0D01*
G01X3320000Y1378654D01*
G03X3294346Y1353000I0J-25654D01*
G01X3294346Y1193000D01*
G03X3320000Y1167346I25654J0D01*
G01X3520000Y1167346D01*
G03X3545654Y1193000I0J25654D01*
G01X3545654Y1353000D01*
G37*
G36*
G01X4005002Y1673346D02*
G01X4055002Y1673346D01*
G03X4055002Y1874654I0J100654D01*
G01X4005002Y1874654D01*
G03X3950248Y1858459I0J-100654D01*
G01X3749353Y2059353D01*
G03X3670647Y1980647I-39353J-39353D01*
G01X3909711Y1741582D01*
G03X4005002Y1673346I95291J32418D01*
G37*
G36*
G01X4155656Y1341000D02*
G03X4130002Y1366654I-25654J0D01*
G01X3930002Y1366654D01*
G03X3904348Y1341000I0J-25654D01*
G01X3904348Y1191000D01*
G03X3930002Y1165346I25654J0D01*
G01X4130002Y1165346D01*
G03X4155656Y1191000I0J25654D01*
G01X4155656Y1341000D01*
G37*
G36*
G01X4119999Y7045126D02*
G03X4119999Y7314874I0J134874D01*
G03X4119999Y7045126I0J-134874D01*
G37*
G36*
G01X5029783Y2669346D02*
G03X5110654Y2710000I30217J40654D01*
G03X5029783Y2750654I-50654J0D01*
G01X4606839Y2750654D01*
G01X4570654Y2786839D01*
G01X4570654Y2853783D01*
G03X4530000Y2934654I-40654J30217D01*
G03X4489346Y2853783I0J-50654D01*
G01X4489346Y2770000D01*
G03X4501253Y2741253I40654J0D01*
G01X4561253Y2681253D01*
G03X4590000Y2669346I28747J28747D01*
G01X5029783Y2669346D01*
G37*
G36*
G01X4775656Y1341000D02*
G03X4750002Y1366654I-25654J0D01*
G01X4550002Y1366654D01*
G03X4524348Y1341000I0J-25654D01*
G01X4524348Y1191000D01*
G03X4550002Y1165346I25654J0D01*
G01X4750002Y1165346D01*
G03X4775656Y1191000I0J25654D01*
G01X4775656Y1341000D01*
G37*
G36*
G01X4625002Y1673346D02*
G01X4675002Y1673346D01*
G03X4675002Y1874654I0J100654D01*
G01X4625002Y1874654D01*
G03X4625002Y1673346I0J-100654D01*
G37*
G36*
G01X4756000Y2940654D02*
G03X4727253Y2928747I0J-40654D01*
G01X4656460Y2857953D01*
G03X4628022Y2772022I7380J-50113D01*
G03X4713953Y2800460I35818J35818D01*
G01X4772839Y2859346D01*
G01X5029783Y2859346D01*
G03X5110654Y2900000I30217J40654D01*
G03X5029783Y2940654I-50654J0D01*
G01X4756000Y2940654D01*
G37*
G36*
G01X5385656Y1341000D02*
G03X5360002Y1366654I-25654J0D01*
G01X5160002Y1366654D01*
G03X5134348Y1341000I0J-25654D01*
G01X5134348Y1191000D01*
G03X5160002Y1165346I25654J0D01*
G01X5360002Y1165346D01*
G03X5385656Y1191000I0J25654D01*
G01X5385656Y1341000D01*
G37*
G36*
G01X5424346Y2017051D02*
G01X5281949Y1874654D01*
G01X5235002Y1874654D01*
G03X5235002Y1673346I0J-100654D01*
G01X5285002Y1673346D01*
G03X5377768Y1813060I0J100654D01*
G01X5519353Y1954645D01*
G03X5535654Y1993998I-39353J39353D01*
G01X5535654Y2164891D01*
G03X5535654Y2295110I-55654J65110D01*
G01X5535654Y2295366D01*
G01X6594634Y3354346D01*
G01X7240000Y3354346D01*
G03X7240000Y3465654I0J55654D01*
G01X6571581Y3465654D01*
G03X6532228Y3449353I0J-55654D01*
G01X5440647Y2357772D01*
G03X5424346Y2318419I39353J-39353D01*
G01X5424346Y2295110D01*
G03X5424346Y2164891I55654J-65110D01*
G01X5424346Y2017051D01*
G37*
G36*
G01X5995656Y1341000D02*
G03X5970002Y1366654I-25654J0D01*
G01X5770002Y1366654D01*
G03X5744348Y1341000I0J-25654D01*
G01X5744348Y1191000D01*
G03X5770002Y1165346I25654J0D01*
G01X5970002Y1165346D01*
G03X5995656Y1191000I0J25654D01*
G01X5995656Y1341000D01*
G37*
G36*
G01X5845002Y1673346D02*
G01X5895002Y1673346D01*
G03X5895002Y1874654I0J100654D01*
G01X5845002Y1874654D01*
G03X5845002Y1673346I0J-100654D01*
G37*
G36*
G01X6605656Y1341000D02*
G03X6580002Y1366654I-25654J0D01*
G01X6380002Y1366654D01*
G03X6354348Y1341000I0J-25654D01*
G01X6354348Y1191000D01*
G03X6380002Y1165346I25654J0D01*
G01X6580002Y1165346D01*
G03X6605656Y1191000I0J25654D01*
G01X6605656Y1341000D01*
G37*
G36*
G01X6455002Y1673346D02*
G01X6505002Y1673346D01*
G03X6505002Y1874654I0J100654D01*
G01X6455002Y1874654D01*
G03X6455002Y1673346I0J-100654D01*
G37*
G36*
G01X6923576Y5923576D02*
G03X6970000Y5904346I46424J46424D01*
G01X7100000Y5904346D01*
G03X7146424Y5923576I0J65654D01*
G01X7196463Y5973614D01*
G03X7212460Y5999692I-46424J46424D01*
G01X7212460Y5985309D01*
G01X7122805Y5895654D01*
G01X6775000Y5895654D01*
G03X6775000Y5764346I0J-65654D01*
G01X7150000Y5764346D01*
G03X7196424Y5783576I0J65654D01*
G01X7324539Y5911690D01*
G03X7343768Y5958114I-46424J46424D01*
G01X7343768Y6970919D01*
G01X7556421Y7183572D01*
G03X7575407Y7224346I-46424J46424D01*
G01X7584996Y7224346D01*
G03X7610650Y7250000I0J25654D01*
G01X7610650Y7450000D01*
G03X7606264Y7464346I-25654J0D01*
G01X7612805Y7464346D01*
G01X7614346Y7462805D01*
G01X7614346Y7167195D01*
G01X7384283Y6937132D01*
G03X7365053Y6890707I46424J-46424D01*
G01X7365053Y5825707D01*
G03X7496361Y5825707I65654J0D01*
G01X7496361Y6863513D01*
G01X7726424Y7093576D01*
G03X7745654Y7140000I-46424J46424D01*
G01X7745654Y7490000D01*
G03X7726424Y7536424I-65654J0D01*
G01X7686424Y7576424D01*
G03X7640000Y7595654I-46424J-46424D01*
G01X6830000Y7595654D01*
G03X6783575Y7576424I0J-65654D01*
G01X6701572Y7494421D01*
G03X6682429Y7451368I46424J-46424D01*
G03X6647342Y7375000I65567J-76368D01*
G01X6647342Y7325000D01*
G03X6848650Y7325000I100654J0D01*
G01X6848650Y7375000D01*
G03X6828400Y7435551I-100654J0D01*
G01X6857195Y7464346D01*
G01X6955644Y7464346D01*
G03X6901342Y7375000I46352J-89346D01*
G01X6901342Y7325000D01*
G03X6936342Y7248706I100654J0D01*
G01X6936342Y7179191D01*
G01X6853575Y7096424D01*
G03X6834346Y7050000I46424J-46424D01*
G01X6834346Y6040000D01*
G03X6853575Y5993576I65654J0D01*
G01X6923576Y5923576D01*
G37*
G36*
G01X6920217Y2090654D02*
G03X6839501Y2053961I-30217J-40654D01*
G03X6913509Y2005132I50499J-3961D01*
G03X6904059Y1948664I36491J-35132D01*
G03X6840515Y1889179I-14059J-48664D01*
G03X6923088Y1861646I49485J10821D01*
G01X7015511Y1861646D01*
G03X7065002Y1673346I49491J-87646D01*
G01X7115002Y1673346D01*
G03X7198870Y1718346I0J100654D01*
G01X7682949Y1718346D01*
G01X7755638Y1645657D01*
G03X7794348Y1552203I94364J-15657D01*
G01X7794348Y1471654D01*
G01X7780002Y1471654D01*
G03X7754348Y1446000I0J-25654D01*
G01X7754348Y1306000D01*
G03X7780002Y1280346I25654J0D01*
G01X7920002Y1280346D01*
G03X7945656Y1306000I0J25654D01*
G01X7945656Y1446000D01*
G03X7920002Y1471654I-25654J0D01*
G01X7905656Y1471654D01*
G01X7905656Y1552203D01*
G03X7938375Y1666605I-55654J77797D01*
G03X7834345Y1724364I-88373J-36605D01*
G01X7745355Y1813353D01*
G03X7706002Y1829654I-39353J-39353D01*
G01X7198870Y1829654D01*
G03X7164494Y1861646I-83868J-55654D01*
G01X7540000Y1861646D01*
G03X7567120Y1872880I0J38354D01*
G01X8187356Y2493115D01*
G03X8332566Y2419434I84644J-13115D01*
G03X8258885Y2564644I-60567J60567D01*
G01X8585887Y2891646D01*
G01X9210000Y2891646D01*
G03X9237120Y2902880I0J38354D01*
G01X9239634Y2905393D01*
G03X9264869Y2856020I50366J-5393D01*
G03X9320217Y2859346I25131J43980D01*
G01X9813160Y2859346D01*
G01X10199346Y2473160D01*
G01X10199346Y1830217D01*
G03X10240000Y1749346I40654J-30217D01*
G03X10280654Y1830217I0J50654D01*
G01X10280654Y2490000D01*
G03X10277964Y2504543I-40654J0D01*
G01X10351253Y2431253D01*
G03X10380000Y2419346I28747J28747D01*
G01X10459783Y2419346D01*
G03X10540654Y2460000I30217J40654D01*
G03X10459783Y2500654I-50654J0D01*
G01X10396839Y2500654D01*
G01X9903746Y2993747D01*
G03X9875000Y3005654I-28747J-28747D01*
G01X9595217Y3005654D01*
G03X9531733Y3003199I-30217J-40654D01*
G03X9520580Y2940654I33267J-38199D01*
G01X9320217Y2940654D01*
G03X9284607Y2950366I-30217J-40654D01*
G01X9392120Y3057879D01*
G03X9403354Y3085000I-27120J27120D01*
G01X9403354Y3321913D01*
G03X9363113Y3405619I-38354J33088D01*
G01X9376840Y3419346D01*
G01X10113140Y3419346D01*
G01X11149346Y2383140D01*
G01X11149346Y2180217D01*
G03X11190000Y2099346I40654J-30217D01*
G03X11230654Y2180217I0J50654D01*
G01X11230654Y2399980D01*
G03X11218747Y2428726I-40654J0D01*
G01X10158726Y3488747D01*
G03X10129980Y3500654I-28747J-28747D01*
G01X9360001Y3500654D01*
G03X9331254Y3488747I0J-40654D01*
G01X9127620Y3285113D01*
G03X9099183Y3199182I7380J-50113D01*
G03X9185114Y3227620I35818J35818D01*
G01X9314381Y3356887D01*
G03X9326646Y3321913I50619J-1887D01*
G01X9326646Y3100886D01*
G01X9194113Y2968354D01*
G01X8570000Y2968354D01*
G03X8542880Y2957120I0J-38354D01*
G01X8220437Y2634678D01*
G03X8168112Y2680619I-50437J-4678D01*
G01X8178656Y2691163D01*
G03X8221485Y2747975I-7380J50113D01*
G03X8165261Y2791572I-50209J-6698D01*
G03X8181847Y2824354I-35261J38428D01*
G01X8258747Y2901253D01*
G03X8270654Y2930000I-28747J28747D01*
G01X8270654Y3150000D01*
G03X8258747Y3178747I-40654J0D01*
G01X8160113Y3277380D01*
G03X8074182Y3305818I-50113J-7380D01*
G03X8102620Y3219887I35818J-35818D01*
G01X8189346Y3133161D01*
G01X8189346Y2946839D01*
G01X8180619Y2938112D01*
G03X8138113Y2990000I-50619J1888D01*
G03X8176655Y3059727I-8113J50000D01*
G03X8099783Y3080654I-46655J-19727D01*
G01X7640217Y3080654D01*
G03X7559346Y3040000I-30217J-40654D01*
G03X7640217Y2999346I50654J0D01*
G01X8099783Y2999346D01*
G03X8121887Y2990000I30217J40654D01*
G03X8099783Y2980654I8113J-50000D01*
G01X7880000Y2980654D01*
G03X7851253Y2968747I0J-40654D01*
G01X7731253Y2848747D01*
G03X7719346Y2820000I28747J-28747D01*
G01X7719346Y2596839D01*
G01X7602620Y2480113D01*
G03X7574182Y2394182I7380J-50113D01*
G03X7660113Y2422620I35818J35818D01*
G01X7788747Y2551253D01*
G03X7800654Y2580000I-28747J28747D01*
G01X7800654Y2803161D01*
G01X7896839Y2899346D01*
G01X8099783Y2899346D01*
G03X8131888Y2889381I30217J40654D01*
G01X8124354Y2881847D01*
G03X8078212Y2823837I5646J-51847D01*
G03X8136680Y2778276I51788J6163D01*
G03X8121163Y2748656I34596J-36999D01*
G01X7463160Y2090654D01*
G01X6920217Y2090654D01*
G37*
G36*
G01X7889346Y4120217D02*
G03X7930000Y4039346I40654J-30217D01*
G03X7970654Y4120217I0J50654D01*
G01X7970654Y4303178D01*
G03X8011346Y4254609I81346J26822D01*
G01X8011346Y4098000D01*
G03X8023253Y4069253I40654J0D01*
G01X8079887Y4012620D01*
G03X8165818Y3984182I50113J7380D01*
G03X8137380Y4070114I-35818J35818D01*
G01X8092654Y4114840D01*
G01X8092654Y4254609D01*
G03X8137654Y4330000I-40654J75391D01*
G01X8137654Y4350000D01*
G03X8092654Y4425392I-85654J0D01*
G01X8092654Y4738000D01*
G03X8089964Y4752543I-40654J0D01*
G01X8475959Y4366547D01*
G03X8474346Y4350000I84040J-16547D01*
G01X8474346Y4330000D01*
G03X8519346Y4254609I85654J0D01*
G01X8519346Y4050217D01*
G03X8560000Y3969346I40654J-30217D01*
G03X8600654Y4050217I0J50654D01*
G01X8600654Y4254609D01*
G03X8645654Y4330000I-40654J75391D01*
G01X8645654Y4350000D01*
G03X8528029Y4429464I-85654J0D01*
G01X7908147Y5049346D01*
G01X8457783Y5049346D01*
G03X8518217Y5049346I30217J40654D01*
G01X8573342Y5049346D01*
G03X8552819Y4977502I22630J-45318D01*
G03X8626189Y4963374I43153J26526D01*
G01X8694028Y4963374D01*
G03X8722775Y4975281I0J40654D01*
G01X8757380Y5009887D01*
G03X8771336Y5014059I-7380J50113D01*
G03X8777346Y4972679I48664J-14059D01*
G01X8777346Y4435654D01*
G01X8754000Y4435654D01*
G03X8728346Y4410000I0J-25654D01*
G01X8728346Y4270000D01*
G03X8754000Y4244346I25654J0D01*
G01X8874000Y4244346D01*
G03X8899654Y4270000I0J25654D01*
G01X8899654Y4410000D01*
G03X8874000Y4435654I-25654J0D01*
G01X8858654Y4435654D01*
G01X8858654Y4967263D01*
G03X8798664Y5045941I-38654J32737D01*
G03X8760744Y5109501I-48664J14059D01*
G03X8699887Y5067380I-10744J-49501D01*
G01X8677189Y5044682D01*
G01X8626189Y5044682D01*
G03X8618602Y5049346I-30217J-40654D01*
G01X8640000Y5049346D01*
G03X8668747Y5061253I0J40654D01*
G01X8796839Y5189346D01*
G01X8818713Y5189346D01*
G03X8824565Y5123804I41287J-29346D01*
G03X8890217Y5119346I35435J36197D01*
G01X8958713Y5119346D01*
G03X8964565Y5053804I41287J-29346D01*
G03X9030217Y5049346I35435J36196D01*
G01X9301160Y5049346D01*
G01X9420346Y4930161D01*
G01X9420346Y4627627D01*
G03X9367392Y4646060I-40346J-30627D01*
G03X9329887Y4604380I12608J-49060D01*
G01X9291253Y4565747D01*
G03X9279346Y4537000I28747J-28747D01*
G01X9279346Y4122669D01*
G03X9279346Y4057331I40654J-32669D01*
G01X9279346Y3830000D01*
G03X9291253Y3801254I40654J0D01*
G01X9329887Y3762620D01*
G03X9415818Y3734182I50113J7380D01*
G03X9387380Y3820114I-35818J35818D01*
G01X9360654Y3846840D01*
G01X9360654Y4057331D01*
G03X9360654Y4122669I-40654J32669D01*
G01X9360654Y4520160D01*
G01X9387380Y4546886D01*
G03X9420346Y4566373I-7380J50113D01*
G01X9420346Y4545391D01*
G03X9375346Y4470000I40654J-75391D01*
G01X9375346Y4450000D01*
G03X9420346Y4374609I85654J0D01*
G01X9420346Y4245391D01*
G03X9375346Y4170000I40654J-75391D01*
G01X9375346Y4150000D01*
G03X9492970Y4070536I85654J0D01*
G01X9549346Y4014160D01*
G01X9549346Y3900217D01*
G03X9590000Y3819346I40654J-30217D01*
G03X9630654Y3900217I0J50654D01*
G01X9630654Y4031000D01*
G03X9618747Y4059746I-40654J0D01*
G01X9545040Y4133453D01*
G03X9546654Y4150000I-84040J16547D01*
G01X9546654Y4170000D01*
G03X9501654Y4245391I-85654J0D01*
G01X9501654Y4374609D01*
G03X9546654Y4450000I-40654J75391D01*
G01X9546654Y4470000D01*
G03X9501654Y4545391I-85654J0D01*
G01X9501654Y4930853D01*
G01X9652253Y4780253D01*
G03X9681000Y4768346I28747J28747D01*
G01X9928346Y4768346D01*
G01X9928346Y4545391D01*
G03X9883346Y4470000I40654J-75391D01*
G01X9883346Y4450000D01*
G03X9928346Y4374609I85654J0D01*
G01X9928346Y4245391D01*
G03X9883346Y4170000I40654J-75391D01*
G01X9883346Y4150000D01*
G03X9910212Y4087705I85654J0D01*
G01X9812620Y3990113D01*
G03X9784182Y3904182I7380J-50113D01*
G03X9870113Y3932620I35818J35818D01*
G01X9997747Y4060253D01*
G03X10006335Y4072911I-28747J28747D01*
G03X10054654Y4150000I-37335J77089D01*
G01X10054654Y4170000D01*
G03X10009654Y4245391I-85654J0D01*
G01X10009654Y4374609D01*
G03X10054654Y4450000I-40654J75391D01*
G01X10054654Y4470000D01*
G03X10009654Y4545391I-85654J0D01*
G01X10009654Y4792161D01*
G01X10221250Y5003757D01*
G03X10219887Y4997380I48750J-13757D01*
G01X10194253Y4971746D01*
G03X10182346Y4943000I28747J-28747D01*
G01X10182346Y4555654D01*
G01X10163000Y4555654D01*
G03X10137346Y4530000I0J-25654D01*
G01X10137346Y4390000D01*
G01X10137446Y4387741D01*
G03X10050600Y4401835I-47446J-17741D01*
G03X10082620Y4319886I39400J-31835D01*
G01X10121253Y4281253D01*
G03X10150000Y4269346I28747J28747D01*
G01X10320000Y4269346D01*
G03X10348747Y4281253I0J40654D01*
G01X10558747Y4491253D01*
G03X10570654Y4520000I-28747J28747D01*
G01X10570654Y4990000D01*
G03X10558747Y5018747I-40654J0D01*
G01X10460113Y5117380D01*
G03X10458750Y5123756I-50113J-7380D01*
G01X10521253Y5061253D01*
G03X10550000Y5049346I28747J28747D01*
G01X11273782Y5049346D01*
G03X11334216Y5049346I30217J40654D01*
G01X11460000Y5049346D01*
G03X11488747Y5061253I0J40654D01*
G01X11546839Y5119346D01*
G01X11928098Y5119346D01*
G03X11909886Y5087380I31901J-39346D01*
G01X11821054Y4998548D01*
G01X11821054Y5019600D01*
G03X11809147Y5048346I-40654J0D01*
G01X11790113Y5067380D01*
G03X11704182Y5095818I-50113J-7380D01*
G03X11732620Y5009887I35818J-35818D01*
G01X11739746Y5002760D01*
G01X11739746Y4277240D01*
G01X11733654Y4271148D01*
G01X11733654Y4410000D01*
G03X11708000Y4435654I-25654J0D01*
G01X11700654Y4435654D01*
G01X11700654Y4959783D01*
G03X11660000Y5040654I-40654J30217D01*
G03X11619346Y4959783I0J-50654D01*
G01X11619346Y4435654D01*
G01X11588000Y4435654D01*
G03X11562346Y4410000I0J-25654D01*
G01X11562346Y4270000D01*
G03X11588000Y4244346I25654J0D01*
G01X11706853Y4244346D01*
G01X11690761Y4228254D01*
G01X11459239Y4228254D01*
G01X11434654Y4252839D01*
G01X11434654Y4254609D01*
G03X11479654Y4330000I-40654J75391D01*
G01X11479654Y4350000D01*
G03X11308346Y4350000I-85654J0D01*
G01X11308346Y4330000D01*
G03X11353346Y4254609I85654J0D01*
G01X11353346Y4236000D01*
G03X11365254Y4207253I40654J0D01*
G01X11401852Y4170654D01*
G01X10926654Y4170654D01*
G01X10926654Y4254609D01*
G03X10971654Y4330000I-40654J75391D01*
G01X10971654Y4350000D01*
G03X10800346Y4350000I-85654J0D01*
G01X10800346Y4330000D01*
G03X10845346Y4254609I85654J0D01*
G01X10845346Y4114217D01*
G03X10872650Y4035137I40654J-30217D01*
G03X10936371Y4089346I13351J48863D01*
G01X11471853Y4089346D01*
G01X11397253Y4014747D01*
G03X11386954Y3997321I28747J-28747D01*
G03X11415135Y3814964I39046J-87322D01*
G03X11483748Y3986255I10865J95035D01*
G01X11526839Y4029346D01*
G01X11741853Y4029346D01*
G01X11712478Y3999971D01*
G03X11612362Y3842362I-32478J-89971D01*
G03X11769971Y3942477I67638J67638D01*
G01X12129346Y4301852D01*
G01X12129346Y4162839D01*
G01X11972161Y4005653D01*
G01X11864000Y4005653D01*
G03X11838346Y3979999I0J-25654D01*
G01X11838346Y3839999D01*
G03X11864000Y3814345I25654J0D01*
G01X12004000Y3814345D01*
G03X12029654Y3839999I0J25654D01*
G01X12029654Y3948160D01*
G01X12198747Y4117253D01*
G03X12210654Y4145999I-28747J28747D01*
G01X12210654Y5170000D01*
G03X12198747Y5198747I-40654J0D01*
G01X12098747Y5298747D01*
G03X12070000Y5310654I-28747J-28747D01*
G01X11460000Y5310654D01*
G03X11431253Y5298747I0J-40654D01*
G01X11403161Y5270654D01*
G01X11194216Y5270654D01*
G03X11133782Y5270654I-30217J-40654D01*
G01X10586839Y5270654D01*
G01X10488747Y5368747D01*
G03X10460000Y5380654I-28747J-28747D01*
G01X10050000Y5380654D01*
G03X10021253Y5368747I0J-40654D01*
G01X9923161Y5270654D01*
G01X9786217Y5270654D01*
G03X9725782Y5270654I-30217J-40654D01*
G01X9536839Y5270654D01*
G01X9448747Y5358747D01*
G03X9420000Y5370654I-28747J-28747D01*
G01X8720000Y5370654D01*
G03X8691253Y5358747I0J-40654D01*
G01X8603161Y5270654D01*
G01X8378217Y5270654D01*
G03X8317783Y5270654I-30217J-40654D01*
G01X7936840Y5270654D01*
G01X7818747Y5388747D01*
G03X7790000Y5400654I-28747J-28747D01*
G01X7330000Y5400654D01*
G03X7301253Y5388747I0J-40654D01*
G01X7183160Y5270654D01*
G01X6970217Y5270654D01*
G03X6889375Y5231719I-30217J-40654D01*
G03X6967390Y5187390I50625J-1719D01*
G03X6974182Y5124182I42610J-27390D01*
G03X7037390Y5117390I35817J35818D01*
G03X7044228Y5054137I42610J-27390D01*
G03X7107498Y5047460I35772J35863D01*
G03X7115410Y4982993I42540J-27498D01*
G03X7180256Y4979308I34629J36969D01*
G01X7299962Y4979308D01*
G03X7328708Y4991215I0J40654D01*
G01X7347380Y5009887D01*
G03X7361336Y5014059I-7380J50113D01*
G03X7369346Y4969783I48664J-14059D01*
G01X7369346Y4580326D01*
G03X7349886Y4547380I30654J-40326D01*
G01X7263160Y4460654D01*
G01X7260217Y4460654D01*
G03X7179346Y4420000I-30217J-40654D01*
G03X7260217Y4379346I50654J0D01*
G01X7280000Y4379346D01*
G03X7308747Y4391253I0J40654D01*
G01X7407380Y4489887D01*
G03X7450378Y4545276I-7380J50113D01*
G03X7450654Y4550000I-40379J4725D01*
G01X7450654Y4969783D01*
G03X7388664Y5045941I-40654J30217D01*
G03X7350744Y5109501I-48664J14059D01*
G03X7289887Y5067380I-10744J-49501D01*
G01X7283122Y5060615D01*
G01X7258094Y5060615D01*
G01X7258747Y5061253D01*
G01X7401250Y5203756D01*
G03X7421260Y5148289I48750J-13756D01*
G03X7480217Y5149347I28740J41712D01*
G01X7693160Y5149347D01*
G01X7724542Y5117964D01*
G03X7709999Y5120655I-14543J-37964D01*
G01X7630217Y5120655D01*
G03X7549346Y5080001I-30217J-40654D01*
G03X7630217Y5039347I50654J0D01*
G01X7693160Y5039347D01*
G01X8011346Y4721160D01*
G01X8011346Y4509263D01*
G03X7958213Y4529263I-41346J-29263D01*
G03X7919887Y4487380I11787J-49263D01*
G01X7901253Y4468746D01*
G03X7889346Y4440000I28747J-28747D01*
G01X7889346Y4120217D01*
G37*
G36*
G01X7215656Y1341000D02*
G03X7190002Y1366654I-25654J0D01*
G01X6990002Y1366654D01*
G03X6964348Y1341000I0J-25654D01*
G01X6964348Y1191000D01*
G03X6990002Y1165346I25654J0D01*
G01X7190002Y1165346D01*
G03X7215656Y1191000I0J25654D01*
G01X7215656Y1341000D01*
G37*
G36*
G01X7079346Y3050000D02*
G03X7091253Y3021253I40654J0D01*
G01X7511253Y2601253D01*
G03X7540000Y2589346I28747J28747D01*
G01X7579783Y2589346D01*
G03X7660654Y2630000I30217J40654D01*
G03X7579783Y2670654I-50654J0D01*
G01X7556839Y2670654D01*
G01X7160654Y3066839D01*
G01X7160654Y3098713D01*
G03X7220217Y3099346I29346J41287D01*
G01X7777341Y3099346D01*
G03X7862164Y3140000I32669J40654D01*
G03X7777341Y3180654I-52154J0D01*
G01X7220217Y3180654D01*
G03X7160654Y3181287I-30217J-40654D01*
G01X7160654Y3249783D01*
G03X7120000Y3330654I-40654J30217D01*
G03X7079346Y3249783I0J-50654D01*
G01X7079346Y3050000D01*
G37*
G36*
G01X7643730Y5600000D02*
G03X7956270Y5600000I156270J0D01*
G03X7643730Y5600000I-156270J0D01*
G37*
G36*
G01X8358002Y1534346D02*
G03X8398656Y1716585I0J95654D01*
G01X8398656Y1801998D01*
G03X8386749Y1830745I-40654J0D01*
G01X8318747Y1898747D01*
G03X8300249Y1909341I-28747J-28747D01*
G01X8513166Y1909341D01*
G01X8571348Y1851159D01*
G01X8571348Y1716585D01*
G03X8612002Y1534346I40654J-86585D01*
G03X8652656Y1716585I0J95654D01*
G01X8652656Y1867998D01*
G03X8640749Y1896745I-40654J0D01*
G01X8558752Y1978742D01*
G03X8530005Y1990649I-28747J-28747D01*
G01X8086845Y1990649D01*
G01X7990114Y2087380D01*
G03X7904182Y2115818I-50113J-7380D01*
G03X7932620Y2029886I35818J-35818D01*
G01X8041258Y1921248D01*
G03X8059756Y1910654I28747J28747D01*
G01X8026839Y1910654D01*
G01X7900114Y2037380D01*
G03X7814182Y2065818I-50113J-7380D01*
G03X7842620Y1979887I35818J-35818D01*
G01X7981253Y1841253D01*
G03X8010000Y1829346I28747J28747D01*
G01X8273161Y1829346D01*
G01X8317348Y1785158D01*
G01X8317348Y1716585D01*
G03X8358002Y1534346I40654J-86585D01*
G37*
G36*
G01X8056840Y3880654D02*
G01X8020114Y3917380D01*
G03X7934182Y3945818I-50113J-7380D01*
G03X7962620Y3859887I35818J-35818D01*
G01X8011253Y3811253D01*
G03X8040000Y3799346I28747J28747D01*
G01X8169783Y3799346D01*
G03X8250654Y3840000I30217J40654D01*
G03X8169783Y3880654I-50654J0D01*
G01X8056840Y3880654D01*
G37*
G36*
G01X8353576Y5933576D02*
G03X8400000Y5914346I46424J46424D01*
G01X8510000Y5914346D01*
G03X8522746Y5915595I0J65654D01*
G01X8502805Y5895654D01*
G01X8183000Y5895654D01*
G03X8183000Y5764346I0J-65654D01*
G01X8530000Y5764346D01*
G03X8576424Y5783576I0J65654D01*
G01X8732538Y5939690D01*
G03X8751768Y5986114I-46424J46424D01*
G01X8751768Y7018919D01*
G01X8834421Y7101572D01*
G03X8853650Y7147996I-46424J46424D01*
G01X8853650Y7224346D01*
G01X8862996Y7224346D01*
G03X8888650Y7250000I0J25654D01*
G01X8888650Y7450000D01*
G03X8886191Y7460960I-25654J0D01*
G01X8904346Y7442805D01*
G01X8904346Y7157195D01*
G01X8792283Y7045132D01*
G03X8773053Y6998707I46424J-46424D01*
G01X8773053Y5825707D01*
G03X8904361Y5825707I65654J0D01*
G01X8904361Y6971512D01*
G01X9016425Y7083576D01*
G03X9035654Y7130000I-46424J46424D01*
G01X9035654Y7470000D01*
G03X9016425Y7516424I-65654J0D01*
G01X8956424Y7576424D01*
G03X8910000Y7595654I-46424J-46424D01*
G01X8090000Y7595654D01*
G03X8043575Y7576424I0J-65654D01*
G01X7979572Y7512421D01*
G03X7960342Y7465996I46424J-46424D01*
G01X7960342Y7451294D01*
G03X7925342Y7375000I65654J-76294D01*
G01X7925342Y7325000D01*
G03X8126650Y7325000I100654J0D01*
G01X8126650Y7375000D01*
G03X8098090Y7445241I-100654J0D01*
G01X8117195Y7464346D01*
G01X8233644Y7464346D01*
G03X8179342Y7375000I46352J-89346D01*
G01X8179342Y7325000D01*
G03X8214342Y7248706I100654J0D01*
G01X8214342Y6100004D01*
G03X8233572Y6053579I65654J0D01*
G01X8353576Y5933576D01*
G37*
G36*
G01X8107346Y5693161D02*
G01X8107346Y5420000D01*
G03X8107621Y5415276I40654J0D01*
G03X8178109Y5363509I50378J-5275D01*
G03X8188654Y5450326I-20110J46491D01*
G01X8188654Y5710000D01*
G03X8176746Y5738747I-40654J0D01*
G01X8098654Y5816840D01*
G01X8098654Y6049783D01*
G03X8058000Y6130654I-40654J30217D01*
G03X8017346Y6049783I0J-50654D01*
G01X8017346Y5800000D01*
G03X8029253Y5771254I40654J0D01*
G01X8107346Y5693161D01*
G37*
G36*
G01X8391654Y4330000D02*
G01X8391654Y4350000D01*
G03X8220346Y4350000I-85654J0D01*
G01X8220346Y4330000D01*
G03X8391654Y4330000I85654J0D01*
G37*
G36*
G01X8611654Y2480000D02*
G03X8440346Y2480000I-85654J0D01*
G03X8611654Y2480000I85654J0D01*
G37*
G36*
G01X8516348Y1376000D02*
G03X8707656Y1376000I95654J0D01*
G03X8516348Y1376000I-95654J0D01*
G37*
G36*
G01X8862056Y2455437D02*
G03X8719433Y2540567I-82056J24563D01*
G03X8804563Y2397944I60567J-60567D01*
G01X8891253Y2311253D01*
G03X8920000Y2299346I28747J28747D01*
G01X9019783Y2299346D01*
G03X9042620Y2289886I30217J40654D01*
G01X9121253Y2211253D01*
G03X9150000Y2199346I28747J28747D01*
G01X9530000Y2199346D01*
G03X9558747Y2211253I0J40654D01*
G01X9627380Y2279886D01*
G03X9655818Y2365818I-7380J50113D01*
G03X9569886Y2337380I-35818J-35818D01*
G01X9513161Y2280654D01*
G01X9166839Y2280654D01*
G01X9100113Y2347380D01*
G03X9019783Y2380654I-50113J-7380D01*
G01X8936840Y2380654D01*
G01X8862056Y2455437D01*
G37*
G36*
G01X9525345Y6131806D02*
G01X9525345Y5830000D01*
G03X9656653Y5830000I65654J0D01*
G01X9656653Y6159001D01*
G03X9637424Y6205425I-65654J0D01*
G01X9367650Y6475198D01*
G01X9367650Y7248706D01*
G03X9402650Y7325000I-65654J76294D01*
G01X9402650Y7375000D01*
G03X9201342Y7375000I-100654J0D01*
G01X9201342Y7325000D01*
G03X9236342Y7248706I100654J0D01*
G01X9236342Y6448004D01*
G03X9255572Y6401579I65654J0D01*
G01X9525345Y6131806D01*
G37*
G36*
G01X9515345Y5693161D02*
G01X9515345Y5500217D01*
G03X9555999Y5419346I40654J-30217D01*
G03X9596653Y5500217I0J50654D01*
G01X9596653Y5710000D01*
G03X9584746Y5738747I-40654J0D01*
G01X9506653Y5816840D01*
G01X9506653Y6049783D01*
G03X9465999Y6130654I-40654J30217D01*
G03X9425345Y6049783I0J-50654D01*
G01X9425345Y5800000D01*
G03X9437253Y5771254I40654J0D01*
G01X9515345Y5693161D01*
G37*
G36*
G01X9819538Y6043538D02*
G03X9916000Y6047458I46424J46424D01*
G03X10031692Y6089962I50038J42505D01*
G01X10031692Y6243962D01*
G03X10012462Y6290386I-65654J0D01*
G01X9875650Y6427198D01*
G01X9875650Y7248706D01*
G03X9910650Y7325000I-65654J76294D01*
G01X9910650Y7375000D01*
G03X9709342Y7375000I-100654J0D01*
G01X9709342Y7325000D01*
G03X9744342Y7248706I100654J0D01*
G01X9744342Y6400003D01*
G03X9763572Y6353579I65654J0D01*
G01X9900384Y6216767D01*
G01X9900384Y6148389D01*
G01X9621650Y6427123D01*
G01X9621650Y7248706D01*
G03X9656650Y7325000I-65654J76294D01*
G01X9656650Y7375000D01*
G03X9455342Y7375000I-100654J0D01*
G01X9455342Y7325000D01*
G03X9490342Y7248706I100654J0D01*
G01X9490342Y6399928D01*
G03X9509572Y6353504I65654J0D01*
G01X9819538Y6043538D01*
G37*
G36*
G01X9629346Y4170000D02*
G01X9629346Y4150000D01*
G03X9800654Y4150000I85654J0D01*
G01X9800654Y4170000D01*
G03X9755654Y4245391I-85654J0D01*
G01X9755654Y4374609D01*
G03X9800654Y4450000I-40654J75391D01*
G01X9800654Y4470000D01*
G03X9629346Y4470000I-85654J0D01*
G01X9629346Y4450000D01*
G03X9674346Y4374609I85654J0D01*
G01X9674346Y4245391D01*
G03X9629346Y4170000I40654J-75391D01*
G37*
G36*
G01X9999346Y1730217D02*
G03X10040000Y1649346I40654J-30217D01*
G03X10080654Y1730217I0J50654D01*
G01X10080654Y2240000D01*
G03X10068747Y2268747I-40654J0D01*
G01X9991847Y2345646D01*
G03X9903122Y2376878I-51847J-5646D01*
G03X9934354Y2288152I36878J-36878D01*
G01X9999346Y2223160D01*
G01X9999346Y1730217D01*
G37*
G36*
G01X10181053Y5825707D02*
G03X10312361Y5825707I65654J0D01*
G01X10312361Y7167289D01*
G03X10293131Y7213714I-65654J0D01*
G01X10164650Y7342195D01*
G01X10164650Y7450000D01*
G03X10138996Y7475654I-25654J0D01*
G01X9988996Y7475654D01*
G03X9963342Y7450000I0J-25654D01*
G01X9963342Y7250000D01*
G03X9988996Y7224346I25654J0D01*
G01X10096802Y7224346D01*
G01X10181053Y7140095D01*
G01X10181053Y5825707D01*
G37*
G36*
G01X10163000Y4255654D02*
G03X10137346Y4230000I0J-25654D01*
G01X10137346Y4090000D01*
G03X10163000Y4064346I25654J0D01*
G01X10283000Y4064346D01*
G03X10308654Y4090000I0J25654D01*
G01X10308654Y4230000D01*
G03X10283000Y4255654I-25654J0D01*
G01X10163000Y4255654D01*
G37*
G36*
G01X10443730Y5600000D02*
G03X10756270Y5600000I156270J0D01*
G03X10443730Y5600000I-156270J0D01*
G37*
G36*
G01X10933345Y5830000D02*
G03X11064653Y5830000I65654J0D01*
G01X11064653Y6881001D01*
G03X11045424Y6927425I-65654J0D01*
G01X10676490Y7296359D01*
G03X10680650Y7325000I-96493J28640D01*
G01X10680650Y7375000D01*
G03X10479342Y7375000I-100654J0D01*
G01X10479342Y7325000D01*
G03X10560996Y7226155I100654J0D01*
G01X10933345Y6853806D01*
G01X10933345Y5830000D01*
G37*
G36*
G01X10926845Y1900654D02*
G01X10770113Y2057385D01*
G03X10684182Y2085823I-50113J-7380D01*
G03X10712620Y1999892I35818J-35818D01*
G01X10881258Y1831253D01*
G03X10910005Y1819346I28747J28747D01*
G01X11419783Y1819346D01*
G03X11500654Y1860000I30217J40654D01*
G03X11419783Y1900654I-50654J0D01*
G01X10926845Y1900654D01*
G37*
G36*
G01X10709346Y4120217D02*
G03X10750000Y4039346I40654J-30217D01*
G03X10790654Y4120217I0J50654D01*
G01X10790654Y4412479D01*
G03X10814622Y4498975I-10654J49521D01*
G03X10729887Y4469380I-34622J-36975D01*
G01X10721253Y4460746D01*
G03X10709346Y4432000I28747J-28747D01*
G01X10709346Y4120217D01*
G37*
G36*
G01X11227537Y6043538D02*
G03X11324000Y6047458I46424J46424D01*
G03X11439692Y6089962I50038J42505D01*
G01X11439692Y6920801D01*
G03X11420462Y6967225I-65654J0D01*
G01X11153650Y7234037D01*
G01X11153650Y7248706D01*
G03X11188650Y7325000I-65654J76294D01*
G01X11188650Y7375000D01*
G03X10987342Y7375000I-100654J0D01*
G01X10987342Y7325000D01*
G03X11022342Y7248706I100654J0D01*
G01X11022342Y7206842D01*
G03X11041572Y7160418I65654J0D01*
G01X11308384Y6893606D01*
G01X11308384Y6148389D01*
G01X11305654Y6151119D01*
G01X11305654Y6844838D01*
G03X11286425Y6891263I-65654J0D01*
G01X10913899Y7263788D01*
G03X10934650Y7325000I-79902J61211D01*
G01X10934650Y7375000D01*
G03X10733342Y7375000I-100654J0D01*
G01X10733342Y7325000D01*
G03X10768378Y7248675I100654J0D01*
G03X10787572Y7204418I65618J2167D01*
G01X11174346Y6817643D01*
G01X11174346Y6123924D01*
G03X11193576Y6077500I65654J0D01*
G01X11227537Y6043538D01*
G37*
G36*
G01X10923345Y5693161D02*
G01X10923345Y5460217D01*
G03X10963999Y5379346I40654J-30217D01*
G03X11004653Y5460217I0J50654D01*
G01X11004653Y5710000D01*
G03X10992746Y5738747I-40654J0D01*
G01X10914653Y5816840D01*
G01X10914653Y6049783D01*
G03X10873999Y6130654I-40654J30217D01*
G03X10833345Y6049783I0J-50654D01*
G01X10833345Y5800000D01*
G03X10845252Y5771254I40654J0D01*
G01X10923345Y5693161D01*
G37*
G36*
G01X11225654Y4330000D02*
G01X11225654Y4350000D01*
G03X11054346Y4350000I-85654J0D01*
G01X11054346Y4330000D01*
G03X11225654Y4330000I85654J0D01*
G37*
G36*
G01X11608282Y5779283D02*
G03X11701131Y5872132I46424J46424D01*
G01X11595654Y5977608D01*
G01X11595654Y6971996D01*
G03X11576424Y7018421I-65654J0D01*
G01X11407650Y7187195D01*
G01X11407650Y7224346D01*
G01X11416996Y7224346D01*
G03X11442650Y7250000I0J25654D01*
G01X11442650Y7450000D01*
G03X11416996Y7475654I-25654J0D01*
G01X11266996Y7475654D01*
G03X11241342Y7450000I0J-25654D01*
G01X11241342Y7250000D01*
G03X11266996Y7224346I25654J0D01*
G01X11276342Y7224346D01*
G01X11276342Y7160000D01*
G03X11295572Y7113575I65654J0D01*
G01X11464346Y6944801D01*
G01X11464346Y5950414D01*
G03X11483576Y5903989I65654J0D01*
G01X11608282Y5779283D01*
G37*
G36*
G01X11593415Y3615345D02*
G03X11766585Y3615345I86585J40654D01*
G01X11847415Y3615345D01*
G03X12029654Y3655999I86585J40654D01*
G03X11847415Y3696653I-95654J0D01*
G01X11766585Y3696653D01*
G03X11593415Y3696653I-86585J-40654D01*
G01X11512585Y3696653D01*
G03X11330346Y3655999I-86585J-40654D01*
G03X11512585Y3615345I95654J0D01*
G01X11593415Y3615345D01*
G37*
G36*
G01X11605818Y5085818D02*
G03X11519887Y5057380I-35818J-35818D01*
G01X11483160Y5020654D01*
G01X11470217Y5020654D01*
G03X11389346Y4980000I-30217J-40654D01*
G03X11470217Y4939346I50654J0D01*
G01X11500000Y4939346D01*
G03X11528747Y4951253I0J40654D01*
G01X11577380Y4999887D01*
G03X11605818Y5085818I-7380J50113D01*
G37*
G36*
G01X11425126Y1310780D02*
G03X11450780Y1285126I25654J0D01*
G01X11669220Y1285126D01*
G03X11694874Y1310780I0J25654D01*
G01X11694874Y1529220D01*
G03X11669220Y1554874I-25654J0D01*
G01X11450780Y1554874D01*
G03X11425126Y1529220I0J-25654D01*
G01X11425126Y1310780D01*
G37*
G36*
G01X12404346Y3378083D02*
G03X12154346Y3360000I-124346J-18083D01*
G01X12154346Y2356000D01*
G03X12191149Y2267149I125654J0D01*
G01X12441149Y2017149D01*
G03X12530000Y1980346I88851J88851D01*
G01X12740000Y1980346D01*
G03X12815218Y2005346I0J125654D01*
G01X12840000Y2005346D01*
G03X12865654Y2031000I0J25654D01*
G01X12865654Y2181000D01*
G03X12840000Y2206654I-25654J0D01*
G01X12815218Y2206654D01*
G03X12740000Y2231654I-75218J-100654D01*
G01X12582048Y2231654D01*
G01X12405654Y2408048D01*
G01X12405654Y3133427D01*
G03X12510000Y3044346I104346J16573D01*
G01X12737998Y3044346D01*
G03X12775816Y3051347I0J105654D01*
G01X12839998Y3051347D01*
G03X12865652Y3077001I0J25654D01*
G01X12865652Y3227001D01*
G03X12839998Y3252655I-25654J0D01*
G01X12772116Y3252655D01*
G03X12719537Y3255654I-32118J-100654D01*
G01X12615654Y3255654D01*
G01X12615654Y3643814D01*
G03X12714998Y3559347I99344J16186D01*
G01X12764998Y3559347D01*
G03X12764998Y3760655I0J100654D01*
G01X12714998Y3760655D01*
G03X12615654Y3676187I0J-100654D01*
G01X12615654Y4433414D01*
G03X12719998Y4344347I104344J16586D01*
G01X12759998Y4344347D01*
G03X12759998Y4555654I0J105654D01*
G01X12719998Y4555654D01*
G03X12615654Y4466587I0J-105654D01*
G01X12615654Y5134346D01*
G01X12759998Y5134346D01*
G03X12759998Y5345654I0J105654D01*
G01X12510000Y5345654D01*
G03X12404346Y5240000I0J-105654D01*
G01X12404346Y3378083D01*
G37*
G36*
G01X12950254Y7200000D02*
G03X12249746Y7200000I-350254J0D01*
G03X12950254Y7200000I350254J0D01*
G37*
G36*
G01X12950254Y1400000D02*
G03X12249746Y1400000I-350254J0D01*
G03X12950254Y1400000I350254J0D01*
G37*
G36*
G01X12715000Y2513346D02*
G01X12765000Y2513346D01*
G03X12765000Y2714654I0J100654D01*
G01X12715000Y2714654D01*
G03X12715000Y2513346I0J-100654D01*
G37*
G36*
G01X12845654Y5856000D02*
G03X12820000Y5881654I-25654J0D01*
G01X12660000Y5881654D01*
G03X12634346Y5856000I0J-25654D01*
G01X12634346Y5696000D01*
G03X12660000Y5670346I25654J0D01*
G01X12820000Y5670346D01*
G03X12845654Y5696000I0J25654D01*
G01X12845654Y5856000D01*
G37*
%LPD*%
G36*
G01X960992Y5781040D02*
G01X1005840Y5736192D01*
G01X1005840Y5600700D01*
G03X1008816Y5593516I10160J0D01*
G01X1014332Y5588000D01*
G01X818316Y5391984D01*
G03X815340Y5384800I7184J-7184D01*
G01X815340Y4991100D01*
G03X818316Y4983916I10160J0D01*
G01X1219840Y4582392D01*
G01X1219840Y3471555D01*
G01X1085845Y3337560D01*
G01X448708Y3337560D01*
G01X187960Y3598308D01*
G01X187960Y5723492D01*
G01X245508Y5781040D01*
G01X960992Y5781040D01*
G37*
G36*
G01X11880654Y4943161D02*
G01X11967380Y5029887D01*
G03X11994328Y5042752I-7380J50113D01*
G03X12009346Y5068564I-34328J37248D01*
G01X12009346Y4386840D01*
G01X11880654Y4258147D01*
G01X11880654Y4943161D01*
G37*
G54D10*
G01X960992Y5781040D02*
G01X1005840Y5736192D01*
G01X1005840Y5600700D01*
G03X1008816Y5593516I10160J0D01*
G01X1014332Y5588000D01*
G01X818316Y5391984D01*
G03X815340Y5384800I7184J-7184D01*
G01X815340Y4991100D01*
G03X818316Y4983916I10160J0D01*
G01X1219840Y4582392D01*
G01X1219840Y3471555D01*
G01X1085845Y3337560D01*
G01X448708Y3337560D01*
G01X187960Y3598308D01*
G01X187960Y5723492D01*
G01X245508Y5781040D01*
G01X960992Y5781040D01*
G54D11*
G01X2908661Y4110000D02*
G03X2931339Y4110000I11339J80000D01*
G01X2748661Y4110000D02*
G03X2771339Y4110000I11339J80000D01*
G01X2828661Y4110000D02*
G03X2851339Y4110000I11339J80000D01*
G01X2988661Y4110000D02*
G03X3011339Y4110000I11339J80000D01*
G01X1771383Y2888617D02*
G01X1771383Y4021383D01*
G01X1776383Y2883617D02*
G01X1776383Y4026383D01*
G01X1781383Y2878617D02*
G01X1781383Y4031383D01*
G01X1791383Y2868617D02*
G01X1791383Y4041383D01*
G01X1786383Y2873617D02*
G01X1786383Y4036383D01*
G01X1896835Y2763165D02*
G01X3743165Y2763165D01*
G01X1906835Y2753165D02*
G01X3733165Y2753165D01*
G01X1901835Y2758165D02*
G01X3738165Y2758165D01*
G01X1720000Y2940000D02*
G01X2030000Y2630000D01*
G01X1801383Y2858617D02*
G01X1801383Y4051383D01*
G01X1796383Y2863617D02*
G01X1796383Y4046383D01*
G01X1720000Y2940000D02*
G01X1720000Y3970000D01*
G01X1721383Y2938617D02*
G01X1721383Y3971383D01*
G01X1726383Y2933617D02*
G01X1726383Y3976383D01*
G01X1736383Y2923617D02*
G01X1736383Y3986383D01*
G01X1731383Y2928617D02*
G01X1731383Y3981383D01*
G01X1741383Y2918617D02*
G01X1741383Y3991383D01*
G01X1751383Y2908617D02*
G01X1751383Y4001383D01*
G01X1746383Y2913617D02*
G01X1746383Y3996383D01*
G01X1756383Y2903617D02*
G01X1756383Y4006383D01*
G01X1766383Y2893617D02*
G01X1766383Y4016383D01*
G01X1761383Y2898617D02*
G01X1761383Y4011383D01*
G01X2016835Y2643165D02*
G01X3623165Y2643165D01*
G01X2021835Y2638165D02*
G01X3618165Y2638165D01*
G01X2001835Y2658165D02*
G01X3638165Y2658165D01*
G01X2011835Y2648165D02*
G01X3628165Y2648165D01*
G01X2006835Y2653165D02*
G01X3633165Y2653165D01*
G01X1986835Y2673165D02*
G01X3653165Y2673165D01*
G01X1996835Y2663165D02*
G01X3643165Y2663165D01*
G01X1991835Y2668165D02*
G01X3648165Y2668165D01*
G01X1971835Y2688165D02*
G01X3668165Y2688165D01*
G01X1981835Y2678165D02*
G01X3658165Y2678165D01*
G01X1976835Y2683165D02*
G01X3663165Y2683165D01*
G01X1956835Y2703165D02*
G01X3683165Y2703165D01*
G01X1966835Y2693165D02*
G01X3673165Y2693165D01*
G01X1961835Y2698165D02*
G01X3678165Y2698165D01*
G01X1941835Y2718165D02*
G01X3698165Y2718165D01*
G01X1951835Y2708165D02*
G01X3688165Y2708165D01*
G01X1946835Y2713165D02*
G01X3693165Y2713165D01*
G01X1926835Y2733165D02*
G01X3713165Y2733165D01*
G01X1936835Y2723165D02*
G01X3703165Y2723165D01*
G01X1931835Y2728165D02*
G01X3708165Y2728165D01*
G01X1911835Y2748165D02*
G01X3728165Y2748165D01*
G01X1921835Y2738165D02*
G01X3718165Y2738165D01*
G01X1916835Y2743165D02*
G01X3723165Y2743165D01*
G01X1876383Y2783617D02*
G01X1876383Y4110000D01*
G01X1881383Y2778617D02*
G01X1881383Y4110000D01*
G01X1861383Y2798617D02*
G01X1861383Y4110000D01*
G01X1871383Y2788617D02*
G01X1871383Y4110000D01*
G01X1866383Y2793617D02*
G01X1866383Y4110000D01*
G01X1901383Y2758617D02*
G01X1901383Y4110000D01*
G01X1911383Y2748617D02*
G01X1911383Y4110000D01*
G01X1906383Y2753617D02*
G01X1906383Y4110000D01*
G01X1886383Y2773617D02*
G01X1886383Y4110000D01*
G01X1896383Y2763617D02*
G01X1896383Y4110000D01*
G01X1891383Y2768617D02*
G01X1891383Y4110000D01*
G01X1806383Y2853617D02*
G01X1806383Y4056383D01*
G01X1811383Y2848617D02*
G01X1811383Y4061383D01*
G01X1816383Y2843617D02*
G01X1816383Y4066383D01*
G01X1826383Y2833617D02*
G01X1826383Y4076383D01*
G01X1821383Y2838617D02*
G01X1821383Y4071383D01*
G01X1831383Y2828617D02*
G01X1831383Y4081383D01*
G01X1841383Y2818617D02*
G01X1841383Y4091383D01*
G01X1836383Y2823617D02*
G01X1836383Y4086383D01*
G01X1846383Y2813617D02*
G01X1846383Y4096383D01*
G01X1856383Y2803617D02*
G01X1856383Y4106383D01*
G01X1851383Y2808617D02*
G01X1851383Y4101383D01*
G01X1991383Y2668617D02*
G01X1991383Y4110000D01*
G01X1996383Y2663617D02*
G01X1996383Y4110000D01*
G01X1976383Y2683617D02*
G01X1976383Y4110000D01*
G01X1986383Y2673617D02*
G01X1986383Y4110000D01*
G01X1981383Y2678617D02*
G01X1981383Y4110000D01*
G01X2016383Y2643618D02*
G01X2016383Y4110000D01*
G01X2026383Y2633618D02*
G01X2026383Y4110000D01*
G01X2021383Y2638618D02*
G01X2021383Y4110000D01*
G01X2001383Y2658617D02*
G01X2001383Y4110000D01*
G01X2011383Y2648618D02*
G01X2011383Y4110000D01*
G01X2006383Y2653618D02*
G01X2006383Y4110000D01*
G01X1931383Y2728617D02*
G01X1931383Y4110000D01*
G01X1941383Y2718617D02*
G01X1941383Y4110000D01*
G01X1936383Y2723617D02*
G01X1936383Y4110000D01*
G01X1916383Y2743617D02*
G01X1916383Y4110000D01*
G01X1926383Y2733617D02*
G01X1926383Y4110000D01*
G01X1921383Y2738617D02*
G01X1921383Y4110000D01*
G01X1961383Y2698617D02*
G01X1961383Y4110000D01*
G01X1971383Y2688617D02*
G01X1971383Y4110000D01*
G01X1966383Y2693617D02*
G01X1966383Y4110000D01*
G01X1946383Y2713617D02*
G01X1946383Y4110000D01*
G01X1956383Y2703617D02*
G01X1956383Y4110000D01*
G01X1951383Y2708617D02*
G01X1951383Y4110000D01*
G01X1741836Y2918164D02*
G01X3770000Y2918164D01*
G01X1746836Y2913164D02*
G01X3770000Y2913164D01*
G01X1726836Y2933164D02*
G01X3770000Y2933164D01*
G01X1736836Y2923164D02*
G01X3770000Y2923164D01*
G01X1731836Y2928164D02*
G01X3770000Y2928164D01*
G01X1766836Y2893164D02*
G01X3770000Y2893164D01*
G01X1776836Y2883164D02*
G01X3770000Y2883164D01*
G01X1771836Y2888164D02*
G01X3770000Y2888164D01*
G01X1751836Y2908164D02*
G01X3770000Y2908164D01*
G01X1761836Y2898164D02*
G01X3770000Y2898164D01*
G01X1756836Y2903164D02*
G01X3770000Y2903164D01*
G01X1720000Y2973164D02*
G01X3770000Y2973164D01*
G01X1720000Y2968164D02*
G01X3770000Y2968164D01*
G01X1720000Y2988164D02*
G01X3770000Y2988164D01*
G01X1720000Y2978164D02*
G01X3770000Y2978164D01*
G01X1720000Y2983164D02*
G01X3770000Y2983164D01*
G01X1720000Y2948164D02*
G01X3770000Y2948164D01*
G01X1721836Y2938164D02*
G01X3770000Y2938164D01*
G01X1720000Y2943164D02*
G01X3770000Y2943164D01*
G01X1720000Y2963164D02*
G01X3770000Y2963164D01*
G01X1720000Y2953164D02*
G01X3770000Y2953164D01*
G01X1720000Y2958164D02*
G01X3770000Y2958164D01*
G01X1886835Y2773165D02*
G01X3753165Y2773165D01*
G01X1891835Y2768165D02*
G01X3748165Y2768165D01*
G01X1871835Y2788165D02*
G01X3768165Y2788165D01*
G01X1881835Y2778165D02*
G01X3758165Y2778165D01*
G01X1876835Y2783165D02*
G01X3763165Y2783165D01*
G01X1856836Y2803165D02*
G01X3770000Y2803165D01*
G01X1866835Y2793165D02*
G01X3770000Y2793165D01*
G01X1861835Y2798165D02*
G01X3770000Y2798165D01*
G01X1841836Y2818165D02*
G01X3770000Y2818165D01*
G01X1851836Y2808165D02*
G01X3770000Y2808165D01*
G01X1846836Y2813165D02*
G01X3770000Y2813165D01*
G01X1796836Y2863164D02*
G01X3770000Y2863164D01*
G01X1806836Y2853164D02*
G01X3770000Y2853164D01*
G01X1801836Y2858164D02*
G01X3770000Y2858164D01*
G01X1781836Y2878164D02*
G01X3770000Y2878164D01*
G01X1791836Y2868164D02*
G01X3770000Y2868164D01*
G01X1786836Y2873164D02*
G01X3770000Y2873164D01*
G01X1826836Y2833165D02*
G01X3770000Y2833165D01*
G01X1836836Y2823165D02*
G01X3770000Y2823165D01*
G01X1831836Y2828165D02*
G01X3770000Y2828165D01*
G01X1811836Y2848164D02*
G01X3770000Y2848164D01*
G01X1821836Y2838165D02*
G01X3770000Y2838165D01*
G01X1816836Y2843164D02*
G01X3770000Y2843164D01*
G01X1720000Y3143164D02*
G01X3770000Y3143164D01*
G01X1720000Y3138164D02*
G01X3770000Y3138164D01*
G01X1720000Y3158164D02*
G01X3770000Y3158164D01*
G01X1720000Y3148164D02*
G01X3770000Y3148164D01*
G01X1720000Y3153164D02*
G01X3770000Y3153164D01*
G01X1720000Y3118164D02*
G01X3770000Y3118164D01*
G01X1720000Y3108164D02*
G01X3770000Y3108164D01*
G01X1720000Y3113164D02*
G01X3770000Y3113164D01*
G01X1720000Y3133164D02*
G01X3770000Y3133164D01*
G01X1720000Y3123164D02*
G01X3770000Y3123164D01*
G01X1720000Y3128164D02*
G01X3770000Y3128164D01*
G01X1720000Y3198164D02*
G01X3770000Y3198164D01*
G01X1720000Y3193164D02*
G01X3770000Y3193164D01*
G01X1720000Y3213164D02*
G01X3770000Y3213164D01*
G01X1720000Y3203164D02*
G01X3770000Y3203164D01*
G01X1720000Y3208164D02*
G01X3770000Y3208164D01*
G01X1720000Y3173164D02*
G01X3770000Y3173164D01*
G01X1720000Y3163164D02*
G01X3770000Y3163164D01*
G01X1720000Y3168164D02*
G01X3770000Y3168164D01*
G01X1720000Y3188164D02*
G01X3770000Y3188164D01*
G01X1720000Y3178164D02*
G01X3770000Y3178164D01*
G01X1720000Y3183164D02*
G01X3770000Y3183164D01*
G01X1720000Y3028164D02*
G01X3770000Y3028164D01*
G01X1720000Y3023164D02*
G01X3770000Y3023164D01*
G01X1720000Y3043164D02*
G01X3770000Y3043164D01*
G01X1720000Y3033164D02*
G01X3770000Y3033164D01*
G01X1720000Y3038164D02*
G01X3770000Y3038164D01*
G01X1720000Y3003164D02*
G01X3770000Y3003164D01*
G01X1720000Y2993164D02*
G01X3770000Y2993164D01*
G01X1720000Y2998164D02*
G01X3770000Y2998164D01*
G01X1720000Y3018164D02*
G01X3770000Y3018164D01*
G01X1720000Y3008164D02*
G01X3770000Y3008164D01*
G01X1720000Y3013164D02*
G01X3770000Y3013164D01*
G01X1720000Y3088164D02*
G01X3770000Y3088164D01*
G01X1720000Y3078164D02*
G01X3770000Y3078164D01*
G01X1720000Y3083164D02*
G01X3770000Y3083164D01*
G01X1720000Y3103164D02*
G01X3770000Y3103164D01*
G01X1720000Y3093164D02*
G01X3770000Y3093164D01*
G01X1720000Y3098164D02*
G01X3770000Y3098164D01*
G01X1720000Y3058164D02*
G01X3770000Y3058164D01*
G01X1720000Y3048164D02*
G01X3770000Y3048164D01*
G01X1720000Y3053164D02*
G01X3770000Y3053164D01*
G01X1720000Y3073164D02*
G01X3770000Y3073164D01*
G01X1720000Y3063164D02*
G01X3770000Y3063164D01*
G01X1720000Y3068164D02*
G01X3770000Y3068164D01*
G01X1720000Y3453163D02*
G01X3770000Y3453163D01*
G01X1720000Y3448163D02*
G01X3770000Y3448163D01*
G01X1720000Y3468163D02*
G01X3770000Y3468163D01*
G01X1720000Y3458163D02*
G01X3770000Y3458163D01*
G01X1720000Y3463163D02*
G01X3770000Y3463163D01*
G01X1720000Y3428163D02*
G01X3770000Y3428163D01*
G01X1720000Y3418163D02*
G01X3770000Y3418163D01*
G01X1720000Y3423163D02*
G01X3770000Y3423163D01*
G01X1720000Y3443163D02*
G01X3770000Y3443163D01*
G01X1720000Y3433163D02*
G01X3770000Y3433163D01*
G01X1720000Y3438163D02*
G01X3770000Y3438163D01*
G01X1720000Y3508163D02*
G01X3770000Y3508163D01*
G01X1720000Y3503163D02*
G01X3770000Y3503163D01*
G01X1720000Y3523163D02*
G01X3770000Y3523163D01*
G01X1720000Y3513163D02*
G01X3770000Y3513163D01*
G01X1720000Y3518163D02*
G01X3770000Y3518163D01*
G01X1720000Y3483163D02*
G01X3770000Y3483163D01*
G01X1720000Y3473163D02*
G01X3770000Y3473163D01*
G01X1720000Y3478163D02*
G01X3770000Y3478163D01*
G01X1720000Y3498163D02*
G01X3770000Y3498163D01*
G01X1720000Y3488163D02*
G01X3770000Y3488163D01*
G01X1720000Y3493163D02*
G01X3770000Y3493163D01*
G01X1720000Y3253164D02*
G01X3770000Y3253164D01*
G01X1720000Y3248164D02*
G01X3770000Y3248164D01*
G01X1720000Y3268164D02*
G01X3770000Y3268164D01*
G01X1720000Y3258164D02*
G01X3770000Y3258164D01*
G01X1720000Y3263164D02*
G01X3770000Y3263164D01*
G01X1720000Y3228164D02*
G01X3770000Y3228164D01*
G01X1720000Y3218164D02*
G01X3770000Y3218164D01*
G01X1720000Y3223164D02*
G01X3770000Y3223164D01*
G01X1720000Y3243164D02*
G01X3770000Y3243164D01*
G01X1720000Y3233164D02*
G01X3770000Y3233164D01*
G01X1720000Y3238164D02*
G01X3770000Y3238164D01*
G01X1720000Y3398163D02*
G01X3770000Y3398163D01*
G01X1720000Y3303164D02*
G01X3770000Y3303164D01*
G01X1720000Y3363163D02*
G01X3770000Y3363163D01*
G01X1720000Y3413163D02*
G01X3770000Y3413163D01*
G01X1720000Y3403163D02*
G01X3770000Y3403163D01*
G01X1720000Y3408163D02*
G01X3770000Y3408163D01*
G01X1720000Y3283164D02*
G01X3770000Y3283164D01*
G01X1720000Y3273164D02*
G01X3770000Y3273164D01*
G01X1720000Y3278164D02*
G01X3770000Y3278164D01*
G01X1720000Y3298164D02*
G01X3770000Y3298164D01*
G01X1720000Y3288164D02*
G01X3770000Y3288164D01*
G01X1720000Y3293164D02*
G01X3770000Y3293164D01*
G01X1720000Y3563163D02*
G01X3770000Y3563163D01*
G01X1720000Y3558163D02*
G01X3770000Y3558163D01*
G01X1720000Y3578163D02*
G01X3770000Y3578163D01*
G01X1720000Y3568163D02*
G01X3770000Y3568163D01*
G01X1720000Y3573163D02*
G01X3770000Y3573163D01*
G01X1720000Y3538163D02*
G01X3770000Y3538163D01*
G01X1720000Y3528163D02*
G01X3770000Y3528163D01*
G01X1720000Y3533163D02*
G01X3770000Y3533163D01*
G01X1720000Y3553163D02*
G01X3770000Y3553163D01*
G01X1720000Y3543163D02*
G01X3770000Y3543163D01*
G01X1720000Y3548163D02*
G01X3770000Y3548163D01*
G01X1733162Y3983162D02*
G01X3736838Y3983162D01*
G01X1738162Y3988162D02*
G01X3731838Y3988162D01*
G01X1720000Y3970000D02*
G01X1860000Y4110000D01*
G01X1743162Y3993162D02*
G01X3726838Y3993162D01*
G01X1748162Y3998162D02*
G01X3721838Y3998162D01*
G01X1720000Y3963162D02*
G01X3756838Y3963162D01*
G01X1720000Y3953162D02*
G01X3766838Y3953162D01*
G01X1720000Y3958162D02*
G01X3761838Y3958162D01*
G01X1720000Y3968162D02*
G01X3751838Y3968162D01*
G01X1723162Y3973162D02*
G01X3746838Y3973162D01*
G01X1728162Y3978162D02*
G01X3741838Y3978162D01*
G01X1783162Y4033162D02*
G01X3686838Y4033162D01*
G01X1788162Y4038162D02*
G01X3681838Y4038162D01*
G01X1793162Y4043162D02*
G01X3676838Y4043162D01*
G01X1798162Y4048162D02*
G01X3671838Y4048162D01*
G01X1803162Y4053162D02*
G01X3666838Y4053162D01*
G01X1753162Y4003162D02*
G01X3716838Y4003162D01*
G01X1758162Y4008162D02*
G01X3711838Y4008162D01*
G01X1763162Y4013162D02*
G01X3706838Y4013162D01*
G01X1768162Y4018162D02*
G01X3701838Y4018162D01*
G01X1773162Y4023162D02*
G01X3696838Y4023162D01*
G01X1778162Y4028162D02*
G01X3691838Y4028162D01*
G01X1838162Y4088162D02*
G01X3631838Y4088162D01*
G01X1843162Y4093162D02*
G01X3626838Y4093162D01*
G01X1848162Y4098162D02*
G01X3621838Y4098162D01*
G01X1853162Y4103162D02*
G01X3616838Y4103162D01*
G01X1858162Y4108162D02*
G01X3611838Y4108162D01*
G01X1860000Y4110000D02*
G01X2748661Y4110000D01*
G01X1808162Y4058162D02*
G01X3661838Y4058162D01*
G01X1813162Y4063162D02*
G01X3656838Y4063162D01*
G01X1818162Y4068162D02*
G01X3651838Y4068162D01*
G01X1823162Y4073162D02*
G01X3646838Y4073162D01*
G01X1828162Y4078162D02*
G01X3641838Y4078162D01*
G01X1833162Y4083162D02*
G01X3636838Y4083162D01*
G01X1720000Y3648163D02*
G01X3770000Y3648163D01*
G01X1720000Y3643163D02*
G01X3770000Y3643163D01*
G01X1720000Y3663163D02*
G01X3770000Y3663163D01*
G01X1720000Y3653163D02*
G01X3770000Y3653163D01*
G01X1720000Y3658163D02*
G01X3770000Y3658163D01*
G01X1720000Y3623163D02*
G01X3770000Y3623163D01*
G01X1720000Y3613163D02*
G01X3770000Y3613163D01*
G01X1720000Y3618163D02*
G01X3770000Y3618163D01*
G01X1720000Y3638163D02*
G01X3770000Y3638163D01*
G01X1720000Y3628163D02*
G01X3770000Y3628163D01*
G01X1720000Y3633163D02*
G01X3770000Y3633163D01*
G01X1720000Y3703163D02*
G01X3770000Y3703163D01*
G01X1720000Y3698163D02*
G01X3770000Y3698163D01*
G01X1720000Y3718163D02*
G01X3770000Y3718163D01*
G01X1720000Y3708163D02*
G01X3770000Y3708163D01*
G01X1720000Y3713163D02*
G01X3770000Y3713163D01*
G01X1720000Y3678163D02*
G01X3770000Y3678163D01*
G01X1720000Y3668163D02*
G01X3770000Y3668163D01*
G01X1720000Y3673163D02*
G01X3770000Y3673163D01*
G01X1720000Y3693163D02*
G01X3770000Y3693163D01*
G01X1720000Y3683163D02*
G01X3770000Y3683163D01*
G01X1720000Y3688163D02*
G01X3770000Y3688163D01*
G01X1720000Y3343163D02*
G01X3770000Y3343163D01*
G01X1720000Y3338164D02*
G01X3770000Y3338164D01*
G01X1720000Y3358163D02*
G01X3770000Y3358163D01*
G01X1720000Y3348163D02*
G01X3770000Y3348163D01*
G01X1720000Y3353163D02*
G01X3770000Y3353163D01*
G01X1720000Y3318164D02*
G01X3770000Y3318164D01*
G01X1720000Y3308164D02*
G01X3770000Y3308164D01*
G01X1720000Y3313164D02*
G01X3770000Y3313164D01*
G01X1720000Y3333164D02*
G01X3770000Y3333164D01*
G01X1720000Y3323164D02*
G01X3770000Y3323164D01*
G01X1720000Y3328164D02*
G01X3770000Y3328164D01*
G01X1720000Y3593163D02*
G01X3770000Y3593163D01*
G01X1720000Y3583163D02*
G01X3770000Y3583163D01*
G01X1720000Y3588163D02*
G01X3770000Y3588163D01*
G01X1720000Y3608163D02*
G01X3770000Y3608163D01*
G01X1720000Y3598163D02*
G01X3770000Y3598163D01*
G01X1720000Y3603163D02*
G01X3770000Y3603163D01*
G01X1720000Y3378163D02*
G01X3770000Y3378163D01*
G01X1720000Y3368163D02*
G01X3770000Y3368163D01*
G01X1720000Y3373163D02*
G01X3770000Y3373163D01*
G01X1720000Y3393163D02*
G01X3770000Y3393163D01*
G01X1720000Y3383163D02*
G01X3770000Y3383163D01*
G01X1720000Y3388163D02*
G01X3770000Y3388163D01*
G01X1720000Y3873162D02*
G01X3770000Y3873162D01*
G01X1720000Y3868162D02*
G01X3770000Y3868162D01*
G01X1720000Y3888162D02*
G01X3770000Y3888162D01*
G01X1720000Y3878162D02*
G01X3770000Y3878162D01*
G01X1720000Y3883162D02*
G01X3770000Y3883162D01*
G01X1720000Y3848162D02*
G01X3770000Y3848162D01*
G01X1720000Y3838163D02*
G01X3770000Y3838163D01*
G01X1720000Y3843162D02*
G01X3770000Y3843162D01*
G01X1720000Y3863162D02*
G01X3770000Y3863162D01*
G01X1720000Y3853162D02*
G01X3770000Y3853162D01*
G01X1720000Y3858162D02*
G01X3770000Y3858162D01*
G01X1720000Y3933162D02*
G01X3770000Y3933162D01*
G01X1720000Y3923162D02*
G01X3770000Y3923162D01*
G01X1720000Y3928162D02*
G01X3770000Y3928162D01*
G01X1720000Y3948162D02*
G01X3770000Y3948162D01*
G01X1720000Y3938162D02*
G01X3770000Y3938162D01*
G01X1720000Y3943162D02*
G01X3770000Y3943162D01*
G01X1720000Y3903162D02*
G01X3770000Y3903162D01*
G01X1720000Y3893162D02*
G01X3770000Y3893162D01*
G01X1720000Y3898162D02*
G01X3770000Y3898162D01*
G01X1720000Y3918162D02*
G01X3770000Y3918162D01*
G01X1720000Y3908162D02*
G01X3770000Y3908162D01*
G01X1720000Y3913162D02*
G01X3770000Y3913162D01*
G01X1720000Y3758163D02*
G01X3770000Y3758163D01*
G01X1720000Y3753163D02*
G01X3770000Y3753163D01*
G01X1720000Y3773163D02*
G01X3770000Y3773163D01*
G01X1720000Y3763163D02*
G01X3770000Y3763163D01*
G01X1720000Y3768163D02*
G01X3770000Y3768163D01*
G01X1720000Y3733163D02*
G01X3770000Y3733163D01*
G01X1720000Y3723163D02*
G01X3770000Y3723163D01*
G01X1720000Y3728163D02*
G01X3770000Y3728163D01*
G01X1720000Y3748163D02*
G01X3770000Y3748163D01*
G01X1720000Y3738163D02*
G01X3770000Y3738163D01*
G01X1720000Y3743163D02*
G01X3770000Y3743163D01*
G01X1720000Y3818163D02*
G01X3770000Y3818163D01*
G01X1720000Y3808163D02*
G01X3770000Y3808163D01*
G01X1720000Y3813163D02*
G01X3770000Y3813163D01*
G01X1720000Y3833163D02*
G01X3770000Y3833163D01*
G01X1720000Y3823163D02*
G01X3770000Y3823163D01*
G01X1720000Y3828163D02*
G01X3770000Y3828163D01*
G01X1720000Y3788163D02*
G01X3770000Y3788163D01*
G01X1720000Y3778163D02*
G01X3770000Y3778163D01*
G01X1720000Y3783163D02*
G01X3770000Y3783163D01*
G01X1720000Y3803163D02*
G01X3770000Y3803163D01*
G01X1720000Y3793163D02*
G01X3770000Y3793163D01*
G01X1720000Y3798163D02*
G01X3770000Y3798163D01*
G01X2326382Y2630000D02*
G01X2326382Y4110000D01*
G01X2331382Y2630000D02*
G01X2331382Y4110000D01*
G01X2311382Y2630000D02*
G01X2311382Y4110000D01*
G01X2321382Y2630000D02*
G01X2321382Y4110000D01*
G01X2316382Y2630000D02*
G01X2316382Y4110000D01*
G01X2351382Y2630000D02*
G01X2351382Y4110000D01*
G01X2361382Y2630000D02*
G01X2361382Y4110000D01*
G01X2356382Y2630000D02*
G01X2356382Y4110000D01*
G01X2336382Y2630000D02*
G01X2336382Y4110000D01*
G01X2346382Y2630000D02*
G01X2346382Y4110000D01*
G01X2341382Y2630000D02*
G01X2341382Y4110000D01*
G01X2271382Y2630000D02*
G01X2271382Y4110000D01*
G01X2276382Y2630000D02*
G01X2276382Y4110000D01*
G01X2256382Y2630000D02*
G01X2256382Y4110000D01*
G01X2266382Y2630000D02*
G01X2266382Y4110000D01*
G01X2261382Y2630000D02*
G01X2261382Y4110000D01*
G01X2296382Y2630000D02*
G01X2296382Y4110000D01*
G01X2306382Y2630000D02*
G01X2306382Y4110000D01*
G01X2301382Y2630000D02*
G01X2301382Y4110000D01*
G01X2281382Y2630000D02*
G01X2281382Y4110000D01*
G01X2291382Y2630000D02*
G01X2291382Y4110000D01*
G01X2286382Y2630000D02*
G01X2286382Y4110000D01*
G01X2441382Y2630000D02*
G01X2441382Y4110000D01*
G01X2446382Y2630000D02*
G01X2446382Y4110000D01*
G01X2426382Y2630000D02*
G01X2426382Y4110000D01*
G01X2436382Y2630000D02*
G01X2436382Y4110000D01*
G01X2431382Y2630000D02*
G01X2431382Y4110000D01*
G01X2466382Y2630000D02*
G01X2466382Y4110000D01*
G01X2476382Y2630000D02*
G01X2476382Y4110000D01*
G01X2471382Y2630000D02*
G01X2471382Y4110000D01*
G01X2451382Y2630000D02*
G01X2451382Y4110000D01*
G01X2461382Y2630000D02*
G01X2461382Y4110000D01*
G01X2456382Y2630000D02*
G01X2456382Y4110000D01*
G01X2381382Y2630000D02*
G01X2381382Y4110000D01*
G01X2391382Y2630000D02*
G01X2391382Y4110000D01*
G01X2386382Y2630000D02*
G01X2386382Y4110000D01*
G01X2366382Y2630000D02*
G01X2366382Y4110000D01*
G01X2376382Y2630000D02*
G01X2376382Y4110000D01*
G01X2371382Y2630000D02*
G01X2371382Y4110000D01*
G01X2411382Y2630000D02*
G01X2411382Y4110000D01*
G01X2421382Y2630000D02*
G01X2421382Y4110000D01*
G01X2416382Y2630000D02*
G01X2416382Y4110000D01*
G01X2396382Y2630000D02*
G01X2396382Y4110000D01*
G01X2406382Y2630000D02*
G01X2406382Y4110000D01*
G01X2401382Y2630000D02*
G01X2401382Y4110000D01*
G01X2101382Y2630000D02*
G01X2101382Y4110000D01*
G01X2106382Y2630000D02*
G01X2106382Y4110000D01*
G01X2086382Y2630000D02*
G01X2086382Y4110000D01*
G01X2096382Y2630000D02*
G01X2096382Y4110000D01*
G01X2091382Y2630000D02*
G01X2091382Y4110000D01*
G01X2126382Y2630000D02*
G01X2126382Y4110000D01*
G01X2136382Y2630000D02*
G01X2136382Y4110000D01*
G01X2131382Y2630000D02*
G01X2131382Y4110000D01*
G01X2111382Y2630000D02*
G01X2111382Y4110000D01*
G01X2121382Y2630000D02*
G01X2121382Y4110000D01*
G01X2116382Y2630000D02*
G01X2116382Y4110000D01*
G01X2046382Y2630000D02*
G01X2046382Y4110000D01*
G01X2051382Y2630000D02*
G01X2051382Y4110000D01*
G01X2031383Y2630000D02*
G01X2031383Y4110000D01*
G01X2041383Y2630000D02*
G01X2041383Y4110000D01*
G01X2036383Y2630000D02*
G01X2036383Y4110000D01*
G01X2071382Y2630000D02*
G01X2071382Y4110000D01*
G01X2081382Y2630000D02*
G01X2081382Y4110000D01*
G01X2076382Y2630000D02*
G01X2076382Y4110000D01*
G01X2056382Y2630000D02*
G01X2056382Y4110000D01*
G01X2066382Y2630000D02*
G01X2066382Y4110000D01*
G01X2061382Y2630000D02*
G01X2061382Y4110000D01*
G01X2216382Y2630000D02*
G01X2216382Y4110000D01*
G01X2221382Y2630000D02*
G01X2221382Y4110000D01*
G01X2201382Y2630000D02*
G01X2201382Y4110000D01*
G01X2211382Y2630000D02*
G01X2211382Y4110000D01*
G01X2206382Y2630000D02*
G01X2206382Y4110000D01*
G01X2241382Y2630000D02*
G01X2241382Y4110000D01*
G01X2251382Y2630000D02*
G01X2251382Y4110000D01*
G01X2246382Y2630000D02*
G01X2246382Y4110000D01*
G01X2226382Y2630000D02*
G01X2226382Y4110000D01*
G01X2236382Y2630000D02*
G01X2236382Y4110000D01*
G01X2231382Y2630000D02*
G01X2231382Y4110000D01*
G01X2156382Y2630000D02*
G01X2156382Y4110000D01*
G01X2166382Y2630000D02*
G01X2166382Y4110000D01*
G01X2161382Y2630000D02*
G01X2161382Y4110000D01*
G01X2141382Y2630000D02*
G01X2141382Y4110000D01*
G01X2151382Y2630000D02*
G01X2151382Y4110000D01*
G01X2146382Y2630000D02*
G01X2146382Y4110000D01*
G01X2186382Y2630000D02*
G01X2186382Y4110000D01*
G01X2196382Y2630000D02*
G01X2196382Y4110000D01*
G01X2191382Y2630000D02*
G01X2191382Y4110000D01*
G01X2171382Y2630000D02*
G01X2171382Y4110000D01*
G01X2181382Y2630000D02*
G01X2181382Y4110000D01*
G01X2176382Y2630000D02*
G01X2176382Y4110000D01*
G01X2571381Y2630000D02*
G01X2571381Y4110000D01*
G01X2576381Y2630000D02*
G01X2576381Y4110000D01*
G01X2531382Y2630000D02*
G01X2531382Y4110000D01*
G01X2566381Y2630000D02*
G01X2566381Y4110000D01*
G01X2561381Y2630000D02*
G01X2561381Y4110000D01*
G01X2596381Y2630000D02*
G01X2596381Y4110000D01*
G01X2606381Y2630000D02*
G01X2606381Y4110000D01*
G01X2601381Y2630000D02*
G01X2601381Y4110000D01*
G01X2581381Y2630000D02*
G01X2581381Y4110000D01*
G01X2591381Y2630000D02*
G01X2591381Y4110000D01*
G01X2586381Y2630000D02*
G01X2586381Y4110000D01*
G01X2496382Y2630000D02*
G01X2496382Y4110000D01*
G01X2501382Y2630000D02*
G01X2501382Y4110000D01*
G01X2481382Y2630000D02*
G01X2481382Y4110000D01*
G01X2491382Y2630000D02*
G01X2491382Y4110000D01*
G01X2486382Y2630000D02*
G01X2486382Y4110000D01*
G01X2030000Y2630000D02*
G01X3610000Y2630000D01*
G01X2526382Y2630000D02*
G01X2526382Y4110000D01*
G01X2521382Y2630000D02*
G01X2521382Y4110000D01*
G01X2506382Y2630000D02*
G01X2506382Y4110000D01*
G01X2516382Y2630000D02*
G01X2516382Y4110000D01*
G01X2511382Y2630000D02*
G01X2511382Y4110000D01*
G01X2756381Y2630000D02*
G01X2756381Y4109281D01*
G01X2761381Y2630000D02*
G01X2761381Y4109212D01*
G01X2671381Y2630000D02*
G01X2671381Y4110000D01*
G01X2751381Y2630000D02*
G01X2751381Y4109661D01*
G01X2676381Y2630000D02*
G01X2676381Y4110000D01*
G01X2766381Y2630000D02*
G01X2766381Y4109453D01*
G01X2841381Y2630000D02*
G01X2841381Y4109212D01*
G01X2836381Y2630000D02*
G01X2836381Y4109281D01*
G01X2831381Y2630000D02*
G01X2831381Y4109661D01*
G01X2911381Y2630000D02*
G01X2911381Y4109661D01*
G01X2846381Y2630000D02*
G01X2846381Y4109453D01*
G01X2626381Y2630000D02*
G01X2626381Y4110000D01*
G01X2636381Y2630000D02*
G01X2636381Y4110000D01*
G01X2631381Y2630000D02*
G01X2631381Y4110000D01*
G01X2611381Y2630000D02*
G01X2611381Y4110000D01*
G01X2621381Y2630000D02*
G01X2621381Y4110000D01*
G01X2616381Y2630000D02*
G01X2616381Y4110000D01*
G01X2656381Y2630000D02*
G01X2656381Y4110000D01*
G01X2666381Y2630000D02*
G01X2666381Y4110000D01*
G01X2661381Y2630000D02*
G01X2661381Y4110000D01*
G01X2641381Y2630000D02*
G01X2641381Y4110000D01*
G01X2651381Y2630000D02*
G01X2651381Y4110000D01*
G01X2646381Y2630000D02*
G01X2646381Y4110000D01*
G01X2726381Y2630000D02*
G01X2726381Y4110000D01*
G01X2731381Y2630000D02*
G01X2731381Y4110000D01*
G01X2711381Y2630000D02*
G01X2711381Y4110000D01*
G01X2721381Y2630000D02*
G01X2721381Y4110000D01*
G01X2716381Y2630000D02*
G01X2716381Y4110000D01*
G01X2771381Y2630000D02*
G01X2771381Y4110000D01*
G01X2781381Y2630000D02*
G01X2781381Y4110000D01*
G01X2776381Y2630000D02*
G01X2776381Y4110000D01*
G01X2736381Y2630000D02*
G01X2736381Y4110000D01*
G01X2746381Y2630000D02*
G01X2746381Y4110000D01*
G01X2741381Y2630000D02*
G01X2741381Y4110000D01*
G01X2551381Y2630000D02*
G01X2551381Y4110000D01*
G01X2556381Y2630000D02*
G01X2556381Y4110000D01*
G01X2536382Y2630000D02*
G01X2536382Y4110000D01*
G01X2546381Y2630000D02*
G01X2546381Y4110000D01*
G01X2541382Y2630000D02*
G01X2541382Y4110000D01*
G01X2696381Y2630000D02*
G01X2696381Y4110000D01*
G01X2706381Y2630000D02*
G01X2706381Y4110000D01*
G01X2701381Y2630000D02*
G01X2701381Y4110000D01*
G01X2681381Y2630000D02*
G01X2681381Y4110000D01*
G01X2691381Y2630000D02*
G01X2691381Y4110000D01*
G01X2686381Y2630000D02*
G01X2686381Y4110000D01*
G01X2881381Y2630000D02*
G01X2881381Y4110000D01*
G01X2886381Y2630000D02*
G01X2886381Y4110000D01*
G01X2866381Y2630000D02*
G01X2866381Y4110000D01*
G01X2876381Y2630000D02*
G01X2876381Y4110000D01*
G01X2871381Y2630000D02*
G01X2871381Y4110000D01*
G01X2906381Y2630000D02*
G01X2906381Y4110000D01*
G01X3371380Y2630000D02*
G01X3371380Y4110000D01*
G01X3366380Y2630000D02*
G01X3366380Y4110000D01*
G01X2891381Y2630000D02*
G01X2891381Y4110000D01*
G01X2901381Y2630000D02*
G01X2901381Y4110000D01*
G01X2896381Y2630000D02*
G01X2896381Y4110000D01*
G01X2801381Y2630000D02*
G01X2801381Y4110000D01*
G01X2811381Y2630000D02*
G01X2811381Y4110000D01*
G01X2806381Y2630000D02*
G01X2806381Y4110000D01*
G01X2786381Y2630000D02*
G01X2786381Y4110000D01*
G01X2796381Y2630000D02*
G01X2796381Y4110000D01*
G01X2791381Y2630000D02*
G01X2791381Y4110000D01*
G01X2851381Y2630000D02*
G01X2851381Y4110000D01*
G01X2861381Y2630000D02*
G01X2861381Y4110000D01*
G01X2856381Y2630000D02*
G01X2856381Y4110000D01*
G01X2816381Y2630000D02*
G01X2816381Y4110000D01*
G01X2826381Y2630000D02*
G01X2826381Y4110000D01*
G01X2821381Y2630000D02*
G01X2821381Y4110000D01*
G01X2916381Y2630000D02*
G01X2916381Y4109281D01*
G01X2921381Y2630000D02*
G01X2921381Y4109212D01*
G01X2926381Y2630000D02*
G01X2926381Y4109453D01*
G01X2936381Y2630000D02*
G01X2936381Y4110000D01*
G01X2931381Y2630000D02*
G01X2931381Y4110000D01*
G01X2976381Y2630000D02*
G01X2976381Y4110000D01*
G01X2986381Y2630000D02*
G01X2986381Y4110000D01*
G01X2981381Y2630000D02*
G01X2981381Y4110000D01*
G01X2941381Y2630000D02*
G01X2941381Y4110000D01*
G01X2951381Y2630000D02*
G01X2951381Y4110000D01*
G01X2946381Y2630000D02*
G01X2946381Y4110000D01*
G01X2851339Y4110000D02*
G01X2908661Y4110000D01*
G01X2771339Y4110000D02*
G01X2828661Y4110000D01*
G01X2931339Y4110000D02*
G01X2988661Y4110000D01*
G01X2971381Y2630000D02*
G01X2971381Y4110000D01*
G01X2956381Y2630000D02*
G01X2956381Y4110000D01*
G01X2966381Y2630000D02*
G01X2966381Y4110000D01*
G01X2961381Y2630000D02*
G01X2961381Y4110000D01*
G01X3066380Y2630000D02*
G01X3066380Y4110000D01*
G01X3071380Y2630000D02*
G01X3071380Y4110000D01*
G01X3051380Y2630000D02*
G01X3051380Y4110000D01*
G01X3061380Y2630000D02*
G01X3061380Y4110000D01*
G01X3056380Y2630000D02*
G01X3056380Y4110000D01*
G01X3091380Y2630000D02*
G01X3091380Y4110000D01*
G01X3101380Y2630000D02*
G01X3101380Y4110000D01*
G01X3096380Y2630000D02*
G01X3096380Y4110000D01*
G01X3076380Y2630000D02*
G01X3076380Y4110000D01*
G01X3086380Y2630000D02*
G01X3086380Y4110000D01*
G01X3081380Y2630000D02*
G01X3081380Y4110000D01*
G01X2996381Y2630000D02*
G01X2996381Y4109281D01*
G01X3006381Y2630000D02*
G01X3006381Y4109453D01*
G01X3001381Y2630000D02*
G01X3001381Y4109212D01*
G01X2991381Y2630000D02*
G01X2991381Y4109661D01*
G01X3016381Y2630000D02*
G01X3016381Y4110000D01*
G01X3011381Y2630000D02*
G01X3011381Y4110000D01*
G01X3036381Y2630000D02*
G01X3036381Y4110000D01*
G01X3046380Y2630000D02*
G01X3046380Y4110000D01*
G01X3041381Y2630000D02*
G01X3041381Y4110000D01*
G01X3021381Y2630000D02*
G01X3021381Y4110000D01*
G01X3031381Y2630000D02*
G01X3031381Y4110000D01*
G01X3026381Y2630000D02*
G01X3026381Y4110000D01*
G01X3176380Y2630000D02*
G01X3176380Y4110000D01*
G01X3181380Y2630000D02*
G01X3181380Y4110000D01*
G01X3161380Y2630000D02*
G01X3161380Y4110000D01*
G01X3171380Y2630000D02*
G01X3171380Y4110000D01*
G01X3166380Y2630000D02*
G01X3166380Y4110000D01*
G01X3201380Y2630000D02*
G01X3201380Y4110000D01*
G01X3211380Y2630000D02*
G01X3211380Y4110000D01*
G01X3206380Y2630000D02*
G01X3206380Y4110000D01*
G01X3186380Y2630000D02*
G01X3186380Y4110000D01*
G01X3196380Y2630000D02*
G01X3196380Y4110000D01*
G01X3191380Y2630000D02*
G01X3191380Y4110000D01*
G01X3121380Y2630000D02*
G01X3121380Y4110000D01*
G01X3126380Y2630000D02*
G01X3126380Y4110000D01*
G01X3106380Y2630000D02*
G01X3106380Y4110000D01*
G01X3116380Y2630000D02*
G01X3116380Y4110000D01*
G01X3111380Y2630000D02*
G01X3111380Y4110000D01*
G01X3146380Y2630000D02*
G01X3146380Y4110000D01*
G01X3156380Y2630000D02*
G01X3156380Y4110000D01*
G01X3151380Y2630000D02*
G01X3151380Y4110000D01*
G01X3131380Y2630000D02*
G01X3131380Y4110000D01*
G01X3141380Y2630000D02*
G01X3141380Y4110000D01*
G01X3136380Y2630000D02*
G01X3136380Y4110000D01*
G01X3291380Y2630000D02*
G01X3291380Y4110000D01*
G01X3296380Y2630000D02*
G01X3296380Y4110000D01*
G01X3276380Y2630000D02*
G01X3276380Y4110000D01*
G01X3286380Y2630000D02*
G01X3286380Y4110000D01*
G01X3281380Y2630000D02*
G01X3281380Y4110000D01*
G01X3316380Y2630000D02*
G01X3316380Y4110000D01*
G01X3326380Y2630000D02*
G01X3326380Y4110000D01*
G01X3321380Y2630000D02*
G01X3321380Y4110000D01*
G01X3301380Y2630000D02*
G01X3301380Y4110000D01*
G01X3311380Y2630000D02*
G01X3311380Y4110000D01*
G01X3306380Y2630000D02*
G01X3306380Y4110000D01*
G01X3231380Y2630000D02*
G01X3231380Y4110000D01*
G01X3241380Y2630000D02*
G01X3241380Y4110000D01*
G01X3236380Y2630000D02*
G01X3236380Y4110000D01*
G01X3216380Y2630000D02*
G01X3216380Y4110000D01*
G01X3226380Y2630000D02*
G01X3226380Y4110000D01*
G01X3221380Y2630000D02*
G01X3221380Y4110000D01*
G01X3261380Y2630000D02*
G01X3261380Y4110000D01*
G01X3271380Y2630000D02*
G01X3271380Y4110000D01*
G01X3266380Y2630000D02*
G01X3266380Y4110000D01*
G01X3246380Y2630000D02*
G01X3246380Y4110000D01*
G01X3256380Y2630000D02*
G01X3256380Y4110000D01*
G01X3251380Y2630000D02*
G01X3251380Y4110000D01*
G01X3426380Y2630000D02*
G01X3426380Y4110000D01*
G01X3431380Y2630000D02*
G01X3431380Y4110000D01*
G01X3411380Y2630000D02*
G01X3411380Y4110000D01*
G01X3421380Y2630000D02*
G01X3421380Y4110000D01*
G01X3416380Y2630000D02*
G01X3416380Y4110000D01*
G01X3471380Y2630000D02*
G01X3471380Y4110000D01*
G01X3610000Y2630000D02*
G01X3770000Y2790000D01*
G01X3476380Y2630000D02*
G01X3476380Y4110000D01*
G01X3436380Y2630000D02*
G01X3436380Y4110000D01*
G01X3466380Y2630000D02*
G01X3466380Y4110000D01*
G01X3441380Y2630000D02*
G01X3441380Y4110000D01*
G01X2026835Y2633165D02*
G01X3613165Y2633165D01*
G01X3626379Y2646379D02*
G01X3626379Y4093620D01*
G01X3611379Y2631379D02*
G01X3611379Y4108620D01*
G01X3616379Y2636379D02*
G01X3616379Y4103620D01*
G01X3621379Y2641379D02*
G01X3621379Y4098620D01*
G01X3646379Y2666379D02*
G01X3646379Y4073621D01*
G01X3651379Y2671379D02*
G01X3651379Y4068621D01*
G01X3656379Y2676379D02*
G01X3656379Y4063621D01*
G01X3631379Y2651379D02*
G01X3631379Y4088620D01*
G01X3636379Y2656379D02*
G01X3636379Y4083620D01*
G01X3641379Y2661379D02*
G01X3641379Y4078620D01*
G01X3676379Y2696379D02*
G01X3676379Y4043621D01*
G01X3681379Y2701379D02*
G01X3681379Y4038621D01*
G01X3661379Y2681379D02*
G01X3661379Y4058621D01*
G01X3666379Y2686379D02*
G01X3666379Y4053621D01*
G01X3671379Y2691379D02*
G01X3671379Y4048621D01*
G01X3701379Y2721379D02*
G01X3701379Y4018621D01*
G01X3706379Y2726379D02*
G01X3706379Y4013621D01*
G01X3711379Y2731379D02*
G01X3711379Y4008621D01*
G01X3686379Y2706379D02*
G01X3686379Y4033621D01*
G01X3691379Y2711379D02*
G01X3691379Y4028621D01*
G01X3696379Y2716379D02*
G01X3696379Y4023621D01*
G01X3731379Y2751379D02*
G01X3731379Y3988621D01*
G01X3736379Y2756379D02*
G01X3736379Y3983621D01*
G01X3741379Y2761379D02*
G01X3741379Y3978621D01*
G01X3716379Y2736379D02*
G01X3716379Y4003621D01*
G01X3721379Y2741379D02*
G01X3721379Y3998621D01*
G01X3726379Y2746379D02*
G01X3726379Y3993621D01*
G01X3761379Y2781379D02*
G01X3761379Y3958621D01*
G01X3766379Y2786379D02*
G01X3766379Y3953621D01*
G01X3770000Y2790000D02*
G01X3770000Y3950000D01*
G01X3746379Y2766379D02*
G01X3746379Y3973621D01*
G01X3751379Y2771379D02*
G01X3751379Y3968621D01*
G01X3756379Y2776379D02*
G01X3756379Y3963621D01*
G01X3446380Y2630000D02*
G01X3446380Y4110000D01*
G01X3451380Y2630000D02*
G01X3451380Y4110000D01*
G01X3396380Y2630000D02*
G01X3396380Y4110000D01*
G01X3406380Y2630000D02*
G01X3406380Y4110000D01*
G01X3401380Y2630000D02*
G01X3401380Y4110000D01*
G01X3486380Y2630000D02*
G01X3486380Y4110000D01*
G01X3496380Y2630000D02*
G01X3496380Y4110000D01*
G01X3491380Y2630000D02*
G01X3491380Y4110000D01*
G01X3456380Y2630000D02*
G01X3456380Y4110000D01*
G01X3481380Y2630000D02*
G01X3481380Y4110000D01*
G01X3461380Y2630000D02*
G01X3461380Y4110000D01*
G01X3346380Y2630000D02*
G01X3346380Y4110000D01*
G01X3356380Y2630000D02*
G01X3356380Y4110000D01*
G01X3351380Y2630000D02*
G01X3351380Y4110000D01*
G01X3331380Y2630000D02*
G01X3331380Y4110000D01*
G01X3341380Y2630000D02*
G01X3341380Y4110000D01*
G01X3336380Y2630000D02*
G01X3336380Y4110000D01*
G01X3011339Y4110000D02*
G01X3610000Y4110000D01*
G01X3391380Y2630000D02*
G01X3391380Y4110000D01*
G01X3386380Y2630000D02*
G01X3386380Y4110000D01*
G01X3361380Y2630000D02*
G01X3361380Y4110000D01*
G01X3381380Y2630000D02*
G01X3381380Y4110000D01*
G01X3376380Y2630000D02*
G01X3376380Y4110000D01*
G01X3516380Y2630000D02*
G01X3516380Y4110000D01*
G01X3521380Y2630000D02*
G01X3521380Y4110000D01*
G01X3501380Y2630000D02*
G01X3501380Y4110000D01*
G01X3511380Y2630000D02*
G01X3511380Y4110000D01*
G01X3506380Y2630000D02*
G01X3506380Y4110000D01*
G01X3541380Y2630000D02*
G01X3541380Y4110000D01*
G01X3551379Y2630000D02*
G01X3551379Y4110000D01*
G01X3546379Y2630000D02*
G01X3546379Y4110000D01*
G01X3526380Y2630000D02*
G01X3526380Y4110000D01*
G01X3536380Y2630000D02*
G01X3536380Y4110000D01*
G01X3531380Y2630000D02*
G01X3531380Y4110000D01*
G01X3571379Y2630000D02*
G01X3571379Y4110000D01*
G01X3581379Y2630000D02*
G01X3581379Y4110000D01*
G01X3576379Y2630000D02*
G01X3576379Y4110000D01*
G01X3556379Y2630000D02*
G01X3556379Y4110000D01*
G01X3566379Y2630000D02*
G01X3566379Y4110000D01*
G01X3561379Y2630000D02*
G01X3561379Y4110000D01*
G01X3601379Y2630000D02*
G01X3601379Y4110000D01*
G01X3606379Y2630000D02*
G01X3606379Y4110000D01*
G01X3610000Y4110000D02*
G01X3770000Y3950000D01*
G01X3586379Y2630000D02*
G01X3586379Y4110000D01*
G01X3596379Y2630000D02*
G01X3596379Y4110000D01*
G01X3591379Y2630000D02*
G01X3591379Y4110000D01*
G01X5389707Y4208266D02*
G03X5254570Y4130000I0J-155800D01*
G01X5222004Y6304200D02*
G03X5313476Y6330000I27996J75795D01*
G01X4468397Y4623161D02*
G01X6330000Y4623161D01*
G01X4477351Y4613161D02*
G01X6330000Y4613161D01*
G01X4472874Y4618161D02*
G01X6330000Y4618161D01*
G01X4350000Y4755381D02*
G01X4910000Y4130000D01*
G01X4463920Y4628161D02*
G01X6330000Y4628161D01*
G01X4459442Y4633161D02*
G01X6330000Y4633161D01*
G01X4446011Y4648161D02*
G01X6330000Y4648161D01*
G01X4454965Y4638161D02*
G01X6330000Y4638161D01*
G01X4450488Y4643161D02*
G01X6330000Y4643161D01*
G01X4432579Y4663161D02*
G01X6330000Y4663161D01*
G01X4428102Y4668161D02*
G01X6330000Y4668161D01*
G01X4441533Y4653161D02*
G01X6330000Y4653161D01*
G01X4437056Y4658161D02*
G01X6330000Y4658161D01*
G01X4383329Y4718161D02*
G01X6330000Y4718161D01*
G01X4392283Y4708161D02*
G01X6330000Y4708161D01*
G01X4387806Y4713161D02*
G01X6330000Y4713161D01*
G01X4369897Y4733161D02*
G01X6330000Y4733161D01*
G01X4378852Y4723161D02*
G01X6330000Y4723161D01*
G01X4374374Y4728161D02*
G01X6330000Y4728161D01*
G01X4414670Y4683161D02*
G01X6330000Y4683161D01*
G01X4423624Y4673161D02*
G01X6330000Y4673161D01*
G01X4419147Y4678161D02*
G01X6330000Y4678161D01*
G01X4401238Y4698161D02*
G01X6330000Y4698161D01*
G01X4396761Y4703161D02*
G01X6330000Y4703161D01*
G01X4410193Y4688161D02*
G01X6330000Y4688161D01*
G01X4405715Y4693161D02*
G01X6330000Y4693161D01*
G01X4598238Y4478161D02*
G01X6307827Y4478161D01*
G01X4607192Y4468161D02*
G01X6297827Y4468161D01*
G01X4602715Y4473161D02*
G01X6302827Y4473161D01*
G01X4584806Y4493161D02*
G01X6322827Y4493161D01*
G01X4593760Y4483161D02*
G01X6312827Y4483161D01*
G01X4589283Y4488161D02*
G01X6317827Y4488161D01*
G01X4571374Y4508161D02*
G01X6330000Y4508161D01*
G01X4580328Y4498161D02*
G01X6327827Y4498161D01*
G01X4575851Y4503161D02*
G01X6330000Y4503161D01*
G01X4557942Y4523161D02*
G01X6330000Y4523161D01*
G01X4553465Y4528161D02*
G01X6330000Y4528161D01*
G01X4566897Y4513161D02*
G01X6330000Y4513161D01*
G01X4562419Y4518161D02*
G01X6330000Y4518161D01*
G01X4508692Y4578161D02*
G01X6330000Y4578161D01*
G01X4517647Y4568161D02*
G01X6330000Y4568161D01*
G01X4513170Y4573161D02*
G01X6330000Y4573161D01*
G01X4495261Y4593161D02*
G01X6330000Y4593161D01*
G01X4490783Y4598161D02*
G01X6330000Y4598161D01*
G01X4504215Y4583161D02*
G01X6330000Y4583161D01*
G01X4499738Y4588161D02*
G01X6330000Y4588161D01*
G01X4540033Y4543161D02*
G01X6330000Y4543161D01*
G01X4548988Y4533161D02*
G01X6330000Y4533161D01*
G01X4544510Y4538161D02*
G01X6330000Y4538161D01*
G01X4526601Y4558161D02*
G01X6330000Y4558161D01*
G01X4522124Y4563161D02*
G01X6330000Y4563161D01*
G01X4535556Y4548161D02*
G01X6330000Y4548161D01*
G01X4531079Y4553161D02*
G01X6330000Y4553161D01*
G01X4411378Y4686837D02*
G01X4411378Y6286869D01*
G01X4421378Y4675670D02*
G01X4421378Y6298036D01*
G01X4416378Y4681253D02*
G01X4416378Y6292452D01*
G01X4426378Y4670086D02*
G01X4426378Y6303620D01*
G01X4436378Y4658918D02*
G01X4436378Y6304200D01*
G01X4431378Y4664502D02*
G01X4431378Y6304200D01*
G01X4461378Y4631000D02*
G01X4461378Y6304200D01*
G01X4471378Y4619832D02*
G01X4471378Y6304200D01*
G01X4466378Y4625416D02*
G01X4466378Y6304200D01*
G01X4446378Y4647751D02*
G01X4446378Y6304200D01*
G01X4441378Y4653335D02*
G01X4441378Y6304200D01*
G01X4456378Y4636583D02*
G01X4456378Y6304200D01*
G01X4451378Y4642167D02*
G01X4451378Y6304200D01*
G01X4350000Y4755381D02*
G01X4350000Y6218325D01*
G01X4356378Y4748258D02*
G01X4356378Y6225448D01*
G01X4351378Y4753842D02*
G01X4351378Y6219864D01*
G01X4361378Y4742675D02*
G01X4361378Y6231031D01*
G01X4371378Y4731507D02*
G01X4371378Y6242199D01*
G01X4366378Y4737091D02*
G01X4366378Y6236615D01*
G01X4376378Y4725923D02*
G01X4376378Y6247783D01*
G01X4386378Y4714756D02*
G01X4386378Y6258950D01*
G01X4381378Y4720340D02*
G01X4381378Y6253366D01*
G01X4396378Y4703588D02*
G01X4396378Y6270118D01*
G01X4391378Y4709172D02*
G01X4391378Y6264534D01*
G01X4406378Y4692421D02*
G01X4406378Y6281285D01*
G01X4401378Y4698005D02*
G01X4401378Y6275701D01*
G01X4561377Y4519325D02*
G01X4561377Y6304200D01*
G01X4571377Y4508157D02*
G01X4571377Y6304200D01*
G01X4566377Y4513741D02*
G01X4566377Y6304200D01*
G01X4546377Y4536076D02*
G01X4546377Y6304200D01*
G01X4556377Y4524909D02*
G01X4556377Y6304200D01*
G01X4551377Y4530492D02*
G01X4551377Y6304200D01*
G01X4596377Y4480239D02*
G01X4596377Y6304200D01*
G01X4606377Y4469071D02*
G01X4606377Y6304200D01*
G01X4601377Y4474655D02*
G01X4601377Y6304200D01*
G01X4581377Y4496990D02*
G01X4581377Y6304200D01*
G01X4576377Y4502574D02*
G01X4576377Y6304200D01*
G01X4591377Y4485822D02*
G01X4591377Y6304200D01*
G01X4586377Y4491406D02*
G01X4586377Y6304200D01*
G01X4496378Y4591914D02*
G01X4496378Y6304200D01*
G01X4506378Y4580746D02*
G01X4506378Y6304200D01*
G01X4501378Y4586330D02*
G01X4501378Y6304200D01*
G01X4481378Y4608665D02*
G01X4481378Y6304200D01*
G01X4476378Y4614249D02*
G01X4476378Y6304200D01*
G01X4491378Y4597497D02*
G01X4491378Y6304200D01*
G01X4486378Y4603081D02*
G01X4486378Y6304200D01*
G01X4531378Y4552827D02*
G01X4531378Y6304200D01*
G01X4541378Y4541660D02*
G01X4541378Y6304200D01*
G01X4536378Y4547244D02*
G01X4536378Y6304200D01*
G01X4516378Y4569579D02*
G01X4516378Y6304200D01*
G01X4511378Y4575162D02*
G01X4511378Y6304200D01*
G01X4526378Y4558411D02*
G01X4526378Y6304200D01*
G01X4521378Y4563995D02*
G01X4521378Y6304200D01*
G01X4350000Y4908160D02*
G01X6330000Y4908160D01*
G01X4350000Y4898160D02*
G01X6330000Y4898160D01*
G01X4350000Y4903160D02*
G01X6330000Y4903160D01*
G01X4350000Y4923160D02*
G01X6330000Y4923160D01*
G01X4350000Y4913160D02*
G01X6330000Y4913160D01*
G01X4350000Y4918160D02*
G01X6330000Y4918160D01*
G01X4350000Y4873160D02*
G01X6330000Y4873160D01*
G01X4350000Y4863160D02*
G01X6330000Y4863160D01*
G01X4350000Y4868160D02*
G01X6330000Y4868160D01*
G01X4350000Y4888160D02*
G01X6330000Y4888160D01*
G01X4350000Y4893160D02*
G01X6330000Y4893160D01*
G01X4350000Y4878160D02*
G01X6330000Y4878160D01*
G01X4350000Y4883160D02*
G01X6330000Y4883160D01*
G01X4350000Y4973160D02*
G01X6330000Y4973160D01*
G01X4350000Y4963160D02*
G01X6330000Y4963160D01*
G01X4350000Y4968160D02*
G01X6330000Y4968160D01*
G01X4350000Y4988160D02*
G01X6330000Y4988160D01*
G01X4350000Y4978160D02*
G01X6330000Y4978160D01*
G01X4350000Y4983160D02*
G01X6330000Y4983160D01*
G01X4350000Y4938160D02*
G01X6330000Y4938160D01*
G01X4350000Y4928160D02*
G01X6330000Y4928160D01*
G01X4350000Y4933160D02*
G01X6330000Y4933160D01*
G01X4350000Y4953160D02*
G01X6330000Y4953160D01*
G01X4350000Y4958160D02*
G01X6330000Y4958160D01*
G01X4350000Y4943160D02*
G01X6330000Y4943160D01*
G01X4350000Y4948160D02*
G01X6330000Y4948160D01*
G01X4350000Y4773161D02*
G01X6330000Y4773161D01*
G01X4350000Y4763161D02*
G01X6330000Y4763161D01*
G01X4350000Y4768161D02*
G01X6330000Y4768161D01*
G01X4350000Y4788161D02*
G01X6330000Y4788161D01*
G01X4350000Y4778161D02*
G01X6330000Y4778161D01*
G01X4350000Y4783161D02*
G01X6330000Y4783161D01*
G01X4365420Y4738161D02*
G01X6330000Y4738161D01*
G01X4486306Y4603161D02*
G01X6330000Y4603161D01*
G01X4481829Y4608161D02*
G01X6330000Y4608161D01*
G01X4351988Y4753161D02*
G01X6330000Y4753161D01*
G01X4350000Y4758161D02*
G01X6330000Y4758161D01*
G01X4360943Y4743161D02*
G01X6330000Y4743161D01*
G01X4356465Y4748161D02*
G01X6330000Y4748161D01*
G01X4350000Y4838161D02*
G01X6330000Y4838161D01*
G01X4350000Y4828161D02*
G01X6330000Y4828161D01*
G01X4350000Y4833161D02*
G01X6330000Y4833161D01*
G01X4350000Y4853160D02*
G01X6330000Y4853160D01*
G01X4350000Y4858160D02*
G01X6330000Y4858160D01*
G01X4350000Y4843160D02*
G01X6330000Y4843160D01*
G01X4350000Y4848160D02*
G01X6330000Y4848160D01*
G01X4350000Y4803161D02*
G01X6330000Y4803161D01*
G01X4350000Y4793161D02*
G01X6330000Y4793161D01*
G01X4350000Y4798161D02*
G01X6330000Y4798161D01*
G01X4350000Y4818161D02*
G01X6330000Y4818161D01*
G01X4350000Y4823161D02*
G01X6330000Y4823161D01*
G01X4350000Y4808161D02*
G01X6330000Y4808161D01*
G01X4350000Y4813161D02*
G01X6330000Y4813161D01*
G01X4350000Y5173160D02*
G01X6330000Y5173160D01*
G01X4350000Y5163160D02*
G01X6330000Y5163160D01*
G01X4350000Y5168160D02*
G01X6330000Y5168160D01*
G01X4350000Y5188160D02*
G01X6330000Y5188160D01*
G01X4350000Y5178160D02*
G01X6330000Y5178160D01*
G01X4350000Y5183160D02*
G01X6330000Y5183160D01*
G01X4350000Y5138160D02*
G01X6330000Y5138160D01*
G01X4350000Y5128160D02*
G01X6330000Y5128160D01*
G01X4350000Y5133160D02*
G01X6330000Y5133160D01*
G01X4350000Y5153160D02*
G01X6330000Y5153160D01*
G01X4350000Y5158160D02*
G01X6330000Y5158160D01*
G01X4350000Y5143160D02*
G01X6330000Y5143160D01*
G01X4350000Y5148160D02*
G01X6330000Y5148160D01*
G01X4350000Y5238160D02*
G01X6330000Y5238160D01*
G01X4350000Y5228160D02*
G01X6330000Y5228160D01*
G01X4350000Y5233160D02*
G01X6330000Y5233160D01*
G01X4350000Y5253160D02*
G01X6330000Y5253160D01*
G01X4350000Y5243160D02*
G01X6330000Y5243160D01*
G01X4350000Y5248160D02*
G01X6330000Y5248160D01*
G01X4350000Y5203160D02*
G01X6330000Y5203160D01*
G01X4350000Y5193160D02*
G01X6330000Y5193160D01*
G01X4350000Y5198160D02*
G01X6330000Y5198160D01*
G01X4350000Y5218160D02*
G01X6330000Y5218160D01*
G01X4350000Y5223160D02*
G01X6330000Y5223160D01*
G01X4350000Y5208160D02*
G01X6330000Y5208160D01*
G01X4350000Y5213160D02*
G01X6330000Y5213160D01*
G01X4350000Y5038160D02*
G01X6330000Y5038160D01*
G01X4350000Y5028160D02*
G01X6330000Y5028160D01*
G01X4350000Y5033160D02*
G01X6330000Y5033160D01*
G01X4350000Y5053160D02*
G01X6330000Y5053160D01*
G01X4350000Y5043160D02*
G01X6330000Y5043160D01*
G01X4350000Y5048160D02*
G01X6330000Y5048160D01*
G01X4350000Y5003160D02*
G01X6330000Y5003160D01*
G01X4350000Y4993160D02*
G01X6330000Y4993160D01*
G01X4350000Y4998160D02*
G01X6330000Y4998160D01*
G01X4350000Y5018160D02*
G01X6330000Y5018160D01*
G01X4350000Y5023160D02*
G01X6330000Y5023160D01*
G01X4350000Y5008160D02*
G01X6330000Y5008160D01*
G01X4350000Y5013160D02*
G01X6330000Y5013160D01*
G01X4350000Y5103160D02*
G01X6330000Y5103160D01*
G01X4350000Y5093160D02*
G01X6330000Y5093160D01*
G01X4350000Y5098160D02*
G01X6330000Y5098160D01*
G01X4350000Y5118160D02*
G01X6330000Y5118160D01*
G01X4350000Y5123160D02*
G01X6330000Y5123160D01*
G01X4350000Y5108160D02*
G01X6330000Y5108160D01*
G01X4350000Y5113160D02*
G01X6330000Y5113160D01*
G01X4350000Y5068160D02*
G01X6330000Y5068160D01*
G01X4350000Y5058160D02*
G01X6330000Y5058160D01*
G01X4350000Y5063160D02*
G01X6330000Y5063160D01*
G01X4350000Y5083160D02*
G01X6330000Y5083160D01*
G01X4350000Y5088160D02*
G01X6330000Y5088160D01*
G01X4350000Y5073160D02*
G01X6330000Y5073160D01*
G01X4350000Y5078160D02*
G01X6330000Y5078160D01*
G01X4350000Y5448159D02*
G01X6330000Y5448159D01*
G01X4350000Y5438159D02*
G01X6330000Y5438159D01*
G01X4350000Y5443159D02*
G01X6330000Y5443159D01*
G01X4350000Y5463159D02*
G01X6330000Y5463159D01*
G01X4350000Y5453159D02*
G01X6330000Y5453159D01*
G01X4350000Y5458159D02*
G01X6330000Y5458159D01*
G01X4350000Y5403159D02*
G01X6330000Y5403159D01*
G01X4350000Y5393159D02*
G01X6330000Y5393159D01*
G01X4350000Y5398159D02*
G01X6330000Y5398159D01*
G01X4350000Y5418159D02*
G01X6330000Y5418159D01*
G01X4350000Y5423159D02*
G01X6330000Y5423159D01*
G01X4350000Y5408159D02*
G01X6330000Y5408159D01*
G01X4350000Y5413159D02*
G01X6330000Y5413159D01*
G01X4350000Y5513159D02*
G01X6330000Y5513159D01*
G01X4350000Y5503159D02*
G01X6330000Y5503159D01*
G01X4350000Y5508159D02*
G01X6330000Y5508159D01*
G01X4350000Y5528159D02*
G01X6330000Y5528159D01*
G01X4350000Y5518159D02*
G01X6330000Y5518159D01*
G01X4350000Y5523159D02*
G01X6330000Y5523159D01*
G01X4350000Y5478159D02*
G01X6330000Y5478159D01*
G01X4350000Y5468159D02*
G01X6330000Y5468159D01*
G01X4350000Y5473159D02*
G01X6330000Y5473159D01*
G01X4350000Y5493159D02*
G01X6330000Y5493159D01*
G01X4350000Y5498159D02*
G01X6330000Y5498159D01*
G01X4350000Y5483159D02*
G01X6330000Y5483159D01*
G01X4350000Y5488159D02*
G01X6330000Y5488159D01*
G01X4350000Y5303160D02*
G01X6330000Y5303160D01*
G01X4350000Y5293160D02*
G01X6330000Y5293160D01*
G01X4350000Y5298160D02*
G01X6330000Y5298160D01*
G01X4350000Y5318160D02*
G01X6330000Y5318160D01*
G01X4350000Y5308160D02*
G01X6330000Y5308160D01*
G01X4350000Y5313160D02*
G01X6330000Y5313160D01*
G01X4350000Y5268160D02*
G01X6330000Y5268160D01*
G01X4350000Y5258160D02*
G01X6330000Y5258160D01*
G01X4350000Y5263160D02*
G01X6330000Y5263160D01*
G01X4350000Y5283160D02*
G01X6330000Y5283160D01*
G01X4350000Y5288160D02*
G01X6330000Y5288160D01*
G01X4350000Y5273160D02*
G01X6330000Y5273160D01*
G01X4350000Y5278160D02*
G01X6330000Y5278160D01*
G01X4350000Y5368159D02*
G01X6330000Y5368159D01*
G01X4350000Y5358159D02*
G01X6330000Y5358159D01*
G01X4350000Y5363159D02*
G01X6330000Y5363159D01*
G01X4350000Y5383159D02*
G01X6330000Y5383159D01*
G01X4350000Y5388159D02*
G01X6330000Y5388159D01*
G01X4350000Y5373159D02*
G01X6330000Y5373159D01*
G01X4350000Y5378159D02*
G01X6330000Y5378159D01*
G01X4350000Y5333160D02*
G01X6330000Y5333160D01*
G01X4350000Y5323160D02*
G01X6330000Y5323160D01*
G01X4350000Y5328160D02*
G01X6330000Y5328160D01*
G01X4350000Y5348159D02*
G01X6330000Y5348159D01*
G01X4350000Y5353159D02*
G01X6330000Y5353159D01*
G01X4350000Y5338160D02*
G01X6330000Y5338160D01*
G01X4350000Y5343159D02*
G01X6330000Y5343159D01*
G01X4350000Y5578159D02*
G01X6330000Y5578159D01*
G01X4350000Y5568159D02*
G01X6330000Y5568159D01*
G01X4350000Y5573159D02*
G01X6330000Y5573159D01*
G01X4350000Y5593159D02*
G01X6330000Y5593159D01*
G01X4350000Y5583159D02*
G01X6330000Y5583159D01*
G01X4350000Y5588159D02*
G01X6330000Y5588159D01*
G01X4350000Y5543159D02*
G01X6330000Y5543159D01*
G01X4350000Y5533159D02*
G01X6330000Y5533159D01*
G01X4350000Y5538159D02*
G01X6330000Y5538159D01*
G01X4350000Y5558159D02*
G01X6330000Y5558159D01*
G01X4350000Y5563159D02*
G01X6330000Y5563159D01*
G01X4350000Y5548159D02*
G01X6330000Y5548159D01*
G01X4350000Y5553159D02*
G01X6330000Y5553159D01*
G01X4350000Y5643159D02*
G01X6330000Y5643159D01*
G01X4350000Y5633159D02*
G01X6330000Y5633159D01*
G01X4350000Y5638159D02*
G01X6330000Y5638159D01*
G01X4350000Y5658159D02*
G01X6330000Y5658159D01*
G01X4350000Y5648159D02*
G01X6330000Y5648159D01*
G01X4350000Y5653159D02*
G01X6330000Y5653159D01*
G01X4350000Y5608159D02*
G01X6330000Y5608159D01*
G01X4350000Y5598159D02*
G01X6330000Y5598159D01*
G01X4350000Y5603159D02*
G01X6330000Y5603159D01*
G01X4350000Y5623159D02*
G01X6330000Y5623159D01*
G01X4350000Y5628159D02*
G01X6330000Y5628159D01*
G01X4350000Y5613159D02*
G01X6330000Y5613159D01*
G01X4350000Y5618159D02*
G01X6330000Y5618159D01*
G01X4350000Y5708159D02*
G01X6330000Y5708159D01*
G01X4350000Y5698159D02*
G01X6330000Y5698159D01*
G01X4350000Y5703159D02*
G01X6330000Y5703159D01*
G01X4350000Y5723159D02*
G01X6330000Y5723159D01*
G01X4350000Y5713159D02*
G01X6330000Y5713159D01*
G01X4350000Y5718159D02*
G01X6330000Y5718159D01*
G01X4350000Y5673159D02*
G01X6330000Y5673159D01*
G01X4350000Y5663159D02*
G01X6330000Y5663159D01*
G01X4350000Y5668159D02*
G01X6330000Y5668159D01*
G01X4350000Y5688159D02*
G01X6330000Y5688159D01*
G01X4350000Y5693159D02*
G01X6330000Y5693159D01*
G01X4350000Y5678159D02*
G01X6330000Y5678159D01*
G01X4350000Y5683159D02*
G01X6330000Y5683159D01*
G01X4350000Y5748159D02*
G01X6330000Y5748159D01*
G01X4350000Y5738159D02*
G01X6330000Y5738159D01*
G01X4350000Y5743159D02*
G01X6330000Y5743159D01*
G01X4350000Y6218325D02*
G01X4426897Y6304200D01*
G01X4421486Y6298158D02*
G01X6328514Y6298158D01*
G01X4425964Y6303158D02*
G01X5225007Y6303158D01*
G01X4426897Y6304200D02*
G01X5222004Y6304200D01*
G01X4350000Y5753159D02*
G01X6330000Y5753159D01*
G01X4350000Y5728159D02*
G01X6330000Y5728159D01*
G01X4350000Y5733159D02*
G01X6330000Y5733159D01*
G01X4350000Y5768159D02*
G01X6330000Y5768159D01*
G01X4350000Y5773159D02*
G01X6330000Y5773159D01*
G01X4350000Y5758159D02*
G01X6330000Y5758159D01*
G01X4350000Y5763159D02*
G01X6330000Y5763159D01*
G01X4350000Y5948158D02*
G01X6330000Y5948158D01*
G01X4350000Y5938158D02*
G01X6330000Y5938158D01*
G01X4350000Y5943158D02*
G01X6330000Y5943158D01*
G01X4350000Y5963158D02*
G01X6330000Y5963158D01*
G01X4350000Y5953158D02*
G01X6330000Y5953158D01*
G01X4350000Y5958158D02*
G01X6330000Y5958158D01*
G01X4350000Y5913158D02*
G01X6330000Y5913158D01*
G01X4350000Y5903158D02*
G01X6330000Y5903158D01*
G01X4350000Y5908158D02*
G01X6330000Y5908158D01*
G01X4350000Y5928158D02*
G01X6330000Y5928158D01*
G01X4350000Y5933158D02*
G01X6330000Y5933158D01*
G01X4350000Y5918158D02*
G01X6330000Y5918158D01*
G01X4350000Y5923158D02*
G01X6330000Y5923158D01*
G01X4350000Y6013158D02*
G01X6330000Y6013158D01*
G01X4350000Y6003158D02*
G01X6330000Y6003158D01*
G01X4350000Y6008158D02*
G01X6330000Y6008158D01*
G01X4350000Y6028158D02*
G01X6330000Y6028158D01*
G01X4350000Y6018158D02*
G01X6330000Y6018158D01*
G01X4350000Y6023158D02*
G01X6330000Y6023158D01*
G01X4350000Y5978158D02*
G01X6330000Y5978158D01*
G01X4350000Y5968158D02*
G01X6330000Y5968158D01*
G01X4350000Y5973158D02*
G01X6330000Y5973158D01*
G01X4350000Y5993158D02*
G01X6330000Y5993158D01*
G01X4350000Y5998158D02*
G01X6330000Y5998158D01*
G01X4350000Y5983158D02*
G01X6330000Y5983158D01*
G01X4350000Y5988158D02*
G01X6330000Y5988158D01*
G01X4350000Y5813159D02*
G01X6330000Y5813159D01*
G01X4350000Y5803159D02*
G01X6330000Y5803159D01*
G01X4350000Y5808159D02*
G01X6330000Y5808159D01*
G01X4350000Y5828159D02*
G01X6330000Y5828159D01*
G01X4350000Y5818159D02*
G01X6330000Y5818159D01*
G01X4350000Y5823159D02*
G01X6330000Y5823159D01*
G01X4350000Y5778159D02*
G01X6330000Y5778159D01*
G01X4350000Y5428159D02*
G01X6330000Y5428159D01*
G01X4350000Y5433159D02*
G01X6330000Y5433159D01*
G01X4350000Y5793159D02*
G01X6330000Y5793159D01*
G01X4350000Y5798159D02*
G01X6330000Y5798159D01*
G01X4350000Y5783159D02*
G01X6330000Y5783159D01*
G01X4350000Y5788159D02*
G01X6330000Y5788159D01*
G01X4350000Y5878158D02*
G01X6330000Y5878158D01*
G01X4350000Y5868158D02*
G01X6330000Y5868158D01*
G01X4350000Y5873158D02*
G01X6330000Y5873158D01*
G01X4350000Y5893158D02*
G01X6330000Y5893158D01*
G01X4350000Y5898158D02*
G01X6330000Y5898158D01*
G01X4350000Y5883158D02*
G01X6330000Y5883158D01*
G01X4350000Y5888158D02*
G01X6330000Y5888158D01*
G01X4350000Y5843158D02*
G01X6330000Y5843158D01*
G01X4350000Y5833159D02*
G01X6330000Y5833159D01*
G01X4350000Y5838159D02*
G01X6330000Y5838159D01*
G01X4350000Y5858158D02*
G01X6330000Y5858158D01*
G01X4350000Y5863158D02*
G01X6330000Y5863158D01*
G01X4350000Y5848158D02*
G01X6330000Y5848158D01*
G01X4350000Y5853158D02*
G01X6330000Y5853158D01*
G01X4350000Y6078158D02*
G01X6330000Y6078158D01*
G01X4350000Y6068158D02*
G01X6330000Y6068158D01*
G01X4350000Y6073158D02*
G01X6330000Y6073158D01*
G01X4350000Y6093158D02*
G01X6330000Y6093158D01*
G01X4350000Y6083158D02*
G01X6330000Y6083158D01*
G01X4350000Y6088158D02*
G01X6330000Y6088158D01*
G01X4350000Y6043158D02*
G01X6330000Y6043158D01*
G01X4350000Y6033158D02*
G01X6330000Y6033158D01*
G01X4350000Y6038158D02*
G01X6330000Y6038158D01*
G01X4350000Y6058158D02*
G01X6330000Y6058158D01*
G01X4350000Y6063158D02*
G01X6330000Y6063158D01*
G01X4350000Y6048158D02*
G01X6330000Y6048158D01*
G01X4350000Y6053158D02*
G01X6330000Y6053158D01*
G01X4350000Y6143158D02*
G01X6330000Y6143158D01*
G01X4350000Y6133158D02*
G01X6330000Y6133158D01*
G01X4350000Y6138158D02*
G01X6330000Y6138158D01*
G01X4350000Y6158158D02*
G01X6330000Y6158158D01*
G01X4350000Y6148158D02*
G01X6330000Y6148158D01*
G01X4350000Y6153158D02*
G01X6330000Y6153158D01*
G01X4350000Y6108158D02*
G01X6330000Y6108158D01*
G01X4350000Y6098158D02*
G01X6330000Y6098158D01*
G01X4350000Y6103158D02*
G01X6330000Y6103158D01*
G01X4350000Y6123158D02*
G01X6330000Y6123158D01*
G01X4350000Y6128158D02*
G01X6330000Y6128158D01*
G01X4350000Y6113158D02*
G01X6330000Y6113158D01*
G01X4350000Y6118158D02*
G01X6330000Y6118158D01*
G01X4350000Y6208158D02*
G01X6330000Y6208158D01*
G01X4350000Y6198158D02*
G01X6330000Y6198158D01*
G01X4350000Y6203158D02*
G01X6330000Y6203158D01*
G01X4350000Y6213158D02*
G01X6330000Y6213158D01*
G01X4350000Y6218158D02*
G01X6330000Y6218158D01*
G01X4354328Y6223158D02*
G01X6330000Y6223158D01*
G01X4350000Y6173158D02*
G01X6330000Y6173158D01*
G01X4350000Y6163158D02*
G01X6330000Y6163158D01*
G01X4350000Y6168158D02*
G01X6330000Y6168158D01*
G01X4350000Y6188158D02*
G01X6330000Y6188158D01*
G01X4350000Y6193158D02*
G01X6330000Y6193158D01*
G01X4350000Y6178158D02*
G01X6330000Y6178158D01*
G01X4350000Y6183158D02*
G01X6330000Y6183158D01*
G01X4390146Y6263158D02*
G01X6330000Y6263158D01*
G01X4394623Y6268158D02*
G01X6330000Y6268158D01*
G01X4399100Y6273158D02*
G01X6330000Y6273158D01*
G01X4403577Y6278158D02*
G01X6330000Y6278158D01*
G01X4408055Y6283158D02*
G01X6330000Y6283158D01*
G01X4412532Y6288158D02*
G01X6330000Y6288158D01*
G01X4417009Y6293158D02*
G01X6330000Y6293158D01*
G01X4358805Y6228158D02*
G01X6330000Y6228158D01*
G01X4363282Y6233158D02*
G01X6330000Y6233158D01*
G01X4367759Y6238158D02*
G01X6330000Y6238158D01*
G01X4372237Y6243158D02*
G01X6330000Y6243158D01*
G01X4376714Y6248158D02*
G01X6330000Y6248158D01*
G01X4381191Y6253158D02*
G01X6330000Y6253158D01*
G01X4385668Y6258158D02*
G01X6330000Y6258158D01*
G01X4951377Y4130000D02*
G01X4951377Y6304200D01*
G01X4961377Y4130000D02*
G01X4961377Y6304200D01*
G01X4956377Y4130000D02*
G01X4956377Y6304200D01*
G01X4886377Y4156381D02*
G01X4886377Y6304200D01*
G01X4946377Y4130000D02*
G01X4946377Y6304200D01*
G01X4941377Y4130000D02*
G01X4941377Y6304200D01*
G01X4902691Y4138162D02*
G01X5259592Y4138162D01*
G01X4910000Y4130000D02*
G01X5254570Y4130000D01*
G01X4907169Y4133162D02*
G01X5256433Y4133162D01*
G01X4889260Y4153162D02*
G01X5270821Y4153162D01*
G01X4884782Y4158162D02*
G01X5275243Y4158162D01*
G01X4898214Y4143162D02*
G01X5263027Y4143162D01*
G01X4893737Y4148162D02*
G01X5266760Y4148162D01*
G01X4861377Y4184300D02*
G01X4861377Y6304200D01*
G01X4871377Y4173133D02*
G01X4871377Y6304200D01*
G01X4866377Y4178716D02*
G01X4866377Y6304200D01*
G01X4841377Y4206635D02*
G01X4841377Y6304200D01*
G01X4851377Y4195468D02*
G01X4851377Y6304200D01*
G01X4846377Y4201051D02*
G01X4846377Y6304200D01*
G01X4871351Y4173162D02*
G01X5291187Y4173162D01*
G01X4880305Y4163162D02*
G01X5280071Y4163162D01*
G01X4875828Y4168162D02*
G01X5285361Y4168162D01*
G01X4866873Y4178162D02*
G01X5297651Y4178162D01*
G01X4862396Y4183162D02*
G01X5304899Y4183162D01*
G01X4881377Y4161965D02*
G01X4881377Y6304200D01*
G01X4876377Y4167549D02*
G01X4876377Y6304200D01*
G01X4981377Y4130000D02*
G01X4981377Y6304200D01*
G01X4991377Y4130000D02*
G01X4991377Y6304200D01*
G01X4986377Y4130000D02*
G01X4986377Y6304200D01*
G01X4966377Y4130000D02*
G01X4966377Y6304200D01*
G01X4976377Y4130000D02*
G01X4976377Y6304200D01*
G01X4971377Y4130000D02*
G01X4971377Y6304200D01*
G01X5016377Y4130000D02*
G01X5016377Y6304200D01*
G01X5026377Y4130000D02*
G01X5026377Y6304200D01*
G01X5021377Y4130000D02*
G01X5021377Y6304200D01*
G01X5001377Y4130000D02*
G01X5001377Y6304200D01*
G01X4996377Y4130000D02*
G01X4996377Y6304200D01*
G01X5011377Y4130000D02*
G01X5011377Y6304200D01*
G01X5006377Y4130000D02*
G01X5006377Y6304200D01*
G01X5231376Y4130000D02*
G01X5231376Y6301370D01*
G01X5241376Y4130000D02*
G01X5241376Y6299656D01*
G01X5236376Y4130000D02*
G01X5236376Y6300352D01*
G01X5036377Y4130000D02*
G01X5036377Y6304200D01*
G01X5031377Y4130000D02*
G01X5031377Y6304200D01*
G01X5226376Y4130000D02*
G01X5226376Y6302726D01*
G01X5041377Y4130000D02*
G01X5041377Y6304200D01*
G01X5246376Y4130000D02*
G01X5246376Y6299276D01*
G01X5251376Y4130000D02*
G01X5251376Y6299207D01*
G01X5256376Y4133067D02*
G01X5256376Y6299447D01*
G01X5261376Y4140811D02*
G01X5261376Y6300000D01*
G01X5266376Y4147667D02*
G01X5266376Y6300872D01*
G01X5271376Y4153814D02*
G01X5271376Y6302074D01*
G01X5276376Y4159376D02*
G01X5276376Y6303621D01*
G01X5071376Y4130000D02*
G01X5071376Y6304200D01*
G01X5081376Y4130000D02*
G01X5081376Y6304200D01*
G01X5076376Y4130000D02*
G01X5076376Y6304200D01*
G01X5056376Y4130000D02*
G01X5056376Y6304200D01*
G01X5066376Y4130000D02*
G01X5066376Y6304200D01*
G01X5061376Y4130000D02*
G01X5061376Y6304200D01*
G01X5106376Y4130000D02*
G01X5106376Y6304200D01*
G01X5116376Y4130000D02*
G01X5116376Y6304200D01*
G01X5111376Y4130000D02*
G01X5111376Y6304200D01*
G01X5091376Y4130000D02*
G01X5091376Y6304200D01*
G01X5086376Y4130000D02*
G01X5086376Y6304200D01*
G01X5101376Y4130000D02*
G01X5101376Y6304200D01*
G01X5096376Y4130000D02*
G01X5096376Y6304200D01*
G01X4901377Y4139630D02*
G01X4901377Y6304200D01*
G01X4911377Y4130000D02*
G01X4911377Y6304200D01*
G01X4906377Y4134046D02*
G01X4906377Y6304200D01*
G01X4856377Y4189884D02*
G01X4856377Y6304200D01*
G01X4896377Y4145214D02*
G01X4896377Y6304200D01*
G01X4891377Y4150798D02*
G01X4891377Y6304200D01*
G01X4936377Y4130000D02*
G01X4936377Y6304200D01*
G01X5051376Y4130000D02*
G01X5051376Y6304200D01*
G01X5046376Y4130000D02*
G01X5046376Y6304200D01*
G01X4921377Y4130000D02*
G01X4921377Y6304200D01*
G01X4916377Y4130000D02*
G01X4916377Y6304200D01*
G01X4931377Y4130000D02*
G01X4931377Y6304200D01*
G01X4926377Y4130000D02*
G01X4926377Y6304200D01*
G01X5136376Y4130000D02*
G01X5136376Y6304200D01*
G01X5146376Y4130000D02*
G01X5146376Y6304200D01*
G01X5141376Y4130000D02*
G01X5141376Y6304200D01*
G01X5121376Y4130000D02*
G01X5121376Y6304200D01*
G01X5131376Y4130000D02*
G01X5131376Y6304200D01*
G01X5126376Y4130000D02*
G01X5126376Y6304200D01*
G01X5171376Y4130000D02*
G01X5171376Y6304200D01*
G01X5181376Y4130000D02*
G01X5181376Y6304200D01*
G01X5176376Y4130000D02*
G01X5176376Y6304200D01*
G01X5156376Y4130000D02*
G01X5156376Y6304200D01*
G01X5151376Y4130000D02*
G01X5151376Y6304200D01*
G01X5166376Y4130000D02*
G01X5166376Y6304200D01*
G01X5161376Y4130000D02*
G01X5161376Y6304200D01*
G01X5206376Y4130000D02*
G01X5206376Y6304200D01*
G01X5216376Y4130000D02*
G01X5216376Y6304200D01*
G01X5211376Y4130000D02*
G01X5211376Y6304200D01*
G01X5191376Y4130000D02*
G01X5191376Y6304200D01*
G01X5186376Y4130000D02*
G01X5186376Y6304200D01*
G01X5201376Y4130000D02*
G01X5201376Y6304200D01*
G01X5196376Y4130000D02*
G01X5196376Y6304200D01*
G01X5221376Y4130000D02*
G01X5221376Y6304200D01*
G01X5281376Y4164439D02*
G01X5281376Y6305536D01*
G01X5286376Y4169070D02*
G01X5286376Y6307846D01*
G01X5291376Y4173316D02*
G01X5291376Y6310593D01*
G01X5296376Y4177218D02*
G01X5296376Y6313829D01*
G01X5301376Y4180807D02*
G01X5301376Y6317632D01*
G01X5306376Y4184108D02*
G01X5306376Y6322113D01*
G01X4853442Y4193162D02*
G01X5322786Y4193162D01*
G01X5311376Y4187143D02*
G01X5311376Y6327444D01*
G01X4857919Y4188162D02*
G01X5313154Y4188162D01*
G01X5316376Y4189930D02*
G01X5316376Y6330000D01*
G01X5321376Y4192482D02*
G01X5321376Y6330000D01*
G01X5326376Y4194814D02*
G01X5326376Y6330000D01*
G01X4844487Y4203162D02*
G01X5350153Y4203162D01*
G01X4848964Y4198162D02*
G01X5334512Y4198162D01*
G01X5331376Y4196935D02*
G01X5331376Y6330000D01*
G01X5336376Y4198854D02*
G01X5336376Y6330000D01*
G01X5341376Y4200580D02*
G01X5341376Y6330000D01*
G01X5346376Y4202119D02*
G01X5346376Y6330000D01*
G01X5366376Y4206509D02*
G01X5366376Y6330000D01*
G01X5371376Y4207184D02*
G01X5371376Y6330000D01*
G01X5376376Y4207695D02*
G01X5376376Y6330000D01*
G01X5351376Y4203477D02*
G01X5351376Y6330000D01*
G01X5356376Y4204659D02*
G01X5356376Y6330000D01*
G01X5361376Y4205669D02*
G01X5361376Y6330000D01*
G01X4840010Y4208162D02*
G01X5383998Y4208162D01*
G01X5391376Y4208266D02*
G01X5391376Y6330000D01*
G01X5389707Y4208266D02*
G01X6037932Y4208266D01*
G01X5381376Y4208043D02*
G01X5381376Y6330000D01*
G01X5396376Y4208266D02*
G01X5396376Y6330000D01*
G01X5406376Y4208266D02*
G01X5406376Y6330000D01*
G01X5401376Y4208266D02*
G01X5401376Y6330000D01*
G01X5661375Y4208266D02*
G01X5661375Y6330000D01*
G01X5671375Y4208266D02*
G01X5671375Y6330000D01*
G01X5666375Y4208266D02*
G01X5666375Y6330000D01*
G01X5646375Y4208266D02*
G01X5646375Y6330000D01*
G01X5656375Y4208266D02*
G01X5656375Y6330000D01*
G01X5651375Y4208266D02*
G01X5651375Y6330000D01*
G01X5771375Y4208266D02*
G01X5771375Y6330000D01*
G01X6037932Y4208266D02*
G01X6330000Y4500334D01*
G01X5776375Y4208266D02*
G01X5776375Y6330000D01*
G01X5731375Y4208266D02*
G01X5731375Y6330000D01*
G01X5726375Y4208266D02*
G01X5726375Y6330000D01*
G01X5741375Y4208266D02*
G01X5741375Y6330000D01*
G01X5736375Y4208266D02*
G01X5736375Y6330000D01*
G01X5596375Y4208266D02*
G01X5596375Y6330000D01*
G01X5606375Y4208266D02*
G01X5606375Y6330000D01*
G01X5601375Y4208266D02*
G01X5601375Y6330000D01*
G01X5581375Y4208266D02*
G01X5581375Y6330000D01*
G01X5576375Y4208266D02*
G01X5576375Y6330000D01*
G01X5591375Y4208266D02*
G01X5591375Y6330000D01*
G01X5586375Y4208266D02*
G01X5586375Y6330000D01*
G01X5631375Y4208266D02*
G01X5631375Y6330000D01*
G01X5641375Y4208266D02*
G01X5641375Y6330000D01*
G01X5636375Y4208266D02*
G01X5636375Y6330000D01*
G01X5616375Y4208266D02*
G01X5616375Y6330000D01*
G01X5611375Y4208266D02*
G01X5611375Y6330000D01*
G01X5626375Y4208266D02*
G01X5626375Y6330000D01*
G01X5621375Y4208266D02*
G01X5621375Y6330000D01*
G01X5791375Y4208266D02*
G01X5791375Y6330000D01*
G01X5801375Y4208266D02*
G01X5801375Y6330000D01*
G01X5796375Y4208266D02*
G01X5796375Y6330000D01*
G01X5386376Y4208231D02*
G01X5386376Y6330000D01*
G01X5786375Y4208266D02*
G01X5786375Y6330000D01*
G01X5781375Y4208266D02*
G01X5781375Y6330000D01*
G01X5826375Y4208266D02*
G01X5826375Y6330000D01*
G01X5836375Y4208266D02*
G01X5836375Y6330000D01*
G01X5831375Y4208266D02*
G01X5831375Y6330000D01*
G01X5811375Y4208266D02*
G01X5811375Y6330000D01*
G01X5806375Y4208266D02*
G01X5806375Y6330000D01*
G01X5821375Y4208266D02*
G01X5821375Y6330000D01*
G01X5816375Y4208266D02*
G01X5816375Y6330000D01*
G01X5856375Y4208266D02*
G01X5856375Y6330000D01*
G01X5866375Y4208266D02*
G01X5866375Y6330000D01*
G01X5861375Y4208266D02*
G01X5861375Y6330000D01*
G01X5841375Y4208266D02*
G01X5841375Y6330000D01*
G01X5851375Y4208266D02*
G01X5851375Y6330000D01*
G01X5846375Y4208266D02*
G01X5846375Y6330000D01*
G01X5891375Y4208266D02*
G01X5891375Y6330000D01*
G01X5901375Y4208266D02*
G01X5901375Y6330000D01*
G01X5896375Y4208266D02*
G01X5896375Y6330000D01*
G01X5876375Y4208266D02*
G01X5876375Y6330000D01*
G01X5871375Y4208266D02*
G01X5871375Y6330000D01*
G01X5886375Y4208266D02*
G01X5886375Y6330000D01*
G01X5881375Y4208266D02*
G01X5881375Y6330000D01*
G01X5991375Y4208266D02*
G01X5991375Y6330000D01*
G01X6001375Y4208266D02*
G01X6001375Y6330000D01*
G01X5996375Y4208266D02*
G01X5996375Y6330000D01*
G01X5976375Y4208266D02*
G01X5976375Y6330000D01*
G01X5986375Y4208266D02*
G01X5986375Y6330000D01*
G01X5981375Y4208266D02*
G01X5981375Y6330000D01*
G01X6026375Y4208266D02*
G01X6026375Y6330000D01*
G01X6036375Y4208266D02*
G01X6036375Y6330000D01*
G01X6031375Y4208266D02*
G01X6031375Y6330000D01*
G01X6011375Y4208266D02*
G01X6011375Y6330000D01*
G01X6006375Y4208266D02*
G01X6006375Y6330000D01*
G01X6021375Y4208266D02*
G01X6021375Y6330000D01*
G01X6016375Y4208266D02*
G01X6016375Y6330000D01*
G01X5926375Y4208266D02*
G01X5926375Y6330000D01*
G01X5936375Y4208266D02*
G01X5936375Y6330000D01*
G01X5931375Y4208266D02*
G01X5931375Y6330000D01*
G01X5911375Y4208266D02*
G01X5911375Y6330000D01*
G01X5906375Y4208266D02*
G01X5906375Y6330000D01*
G01X5921375Y4208266D02*
G01X5921375Y6330000D01*
G01X5916375Y4208266D02*
G01X5916375Y6330000D01*
G01X5961375Y4208266D02*
G01X5961375Y6330000D01*
G01X5971375Y4208266D02*
G01X5971375Y6330000D01*
G01X5966375Y4208266D02*
G01X5966375Y6330000D01*
G01X5946375Y4208266D02*
G01X5946375Y6330000D01*
G01X5941375Y4208266D02*
G01X5941375Y6330000D01*
G01X5956375Y4208266D02*
G01X5956375Y6330000D01*
G01X5951375Y4208266D02*
G01X5951375Y6330000D01*
G01X4691377Y4374147D02*
G01X4691377Y6304200D01*
G01X4701377Y4362980D02*
G01X4701377Y6304200D01*
G01X4696377Y4368564D02*
G01X4696377Y6304200D01*
G01X4676377Y4390899D02*
G01X4676377Y6304200D01*
G01X4686377Y4379731D02*
G01X4686377Y6304200D01*
G01X4681377Y4385315D02*
G01X4681377Y6304200D01*
G01X4726377Y4335061D02*
G01X4726377Y6304200D01*
G01X4736377Y4323894D02*
G01X4736377Y6304200D01*
G01X4731377Y4329477D02*
G01X4731377Y6304200D01*
G01X4711377Y4351812D02*
G01X4711377Y6304200D01*
G01X4706377Y4357396D02*
G01X4706377Y6304200D01*
G01X4721377Y4340645D02*
G01X4721377Y6304200D01*
G01X4716377Y4346229D02*
G01X4716377Y6304200D01*
G01X4626377Y4446736D02*
G01X4626377Y6304200D01*
G01X4636377Y4435569D02*
G01X4636377Y6304200D01*
G01X4631377Y4441152D02*
G01X4631377Y6304200D01*
G01X4611377Y4463487D02*
G01X4611377Y6304200D01*
G01X4621377Y4452320D02*
G01X4621377Y6304200D01*
G01X4616377Y4457904D02*
G01X4616377Y6304200D01*
G01X4661377Y4407650D02*
G01X4661377Y6304200D01*
G01X4671377Y4396482D02*
G01X4671377Y6304200D01*
G01X4666377Y4402066D02*
G01X4666377Y6304200D01*
G01X4646377Y4424401D02*
G01X4646377Y6304200D01*
G01X4641377Y4429985D02*
G01X4641377Y6304200D01*
G01X4656377Y4413234D02*
G01X4656377Y6304200D01*
G01X4651377Y4418817D02*
G01X4651377Y6304200D01*
G01X4826377Y4223386D02*
G01X4826377Y6304200D01*
G01X4836377Y4212219D02*
G01X4836377Y6304200D01*
G01X4831377Y4217803D02*
G01X4831377Y6304200D01*
G01X4811377Y4240138D02*
G01X4811377Y6304200D01*
G01X4821377Y4228970D02*
G01X4821377Y6304200D01*
G01X4816377Y4234554D02*
G01X4816377Y6304200D01*
G01X4826578Y4223162D02*
G01X6052827Y4223162D01*
G01X4835533Y4213162D02*
G01X6042827Y4213162D01*
G01X4831055Y4218162D02*
G01X6047827Y4218162D01*
G01X4822101Y4228162D02*
G01X6057827Y4228162D01*
G01X4817624Y4233162D02*
G01X6062827Y4233162D01*
G01X5421376Y4208266D02*
G01X5421376Y6330000D01*
G01X5416376Y4208266D02*
G01X5416376Y6330000D01*
G01X4761377Y4295975D02*
G01X4761377Y6304200D01*
G01X4771377Y4284808D02*
G01X4771377Y6304200D01*
G01X4766377Y4290391D02*
G01X4766377Y6304200D01*
G01X4746377Y4312726D02*
G01X4746377Y6304200D01*
G01X4741377Y4318310D02*
G01X4741377Y6304200D01*
G01X4756377Y4301559D02*
G01X4756377Y6304200D01*
G01X4751377Y4307143D02*
G01X4751377Y6304200D01*
G01X4796377Y4256889D02*
G01X4796377Y6304200D01*
G01X4806377Y4245721D02*
G01X4806377Y6304200D01*
G01X4801377Y4251305D02*
G01X4801377Y6304200D01*
G01X4781377Y4273640D02*
G01X4781377Y6304200D01*
G01X4776377Y4279224D02*
G01X4776377Y6304200D01*
G01X4791377Y4262473D02*
G01X4791377Y6304200D01*
G01X4786377Y4268056D02*
G01X4786377Y6304200D01*
G01X5496376Y4208266D02*
G01X5496376Y6330000D01*
G01X5506376Y4208266D02*
G01X5506376Y6330000D01*
G01X5501376Y4208266D02*
G01X5501376Y6330000D01*
G01X5481376Y4208266D02*
G01X5481376Y6330000D01*
G01X5491376Y4208266D02*
G01X5491376Y6330000D01*
G01X5486376Y4208266D02*
G01X5486376Y6330000D01*
G01X5531376Y4208266D02*
G01X5531376Y6330000D01*
G01X5541376Y4208266D02*
G01X5541376Y6330000D01*
G01X5536376Y4208266D02*
G01X5536376Y6330000D01*
G01X5516376Y4208266D02*
G01X5516376Y6330000D01*
G01X5511376Y4208266D02*
G01X5511376Y6330000D01*
G01X5526376Y4208266D02*
G01X5526376Y6330000D01*
G01X5521376Y4208266D02*
G01X5521376Y6330000D01*
G01X5431376Y4208266D02*
G01X5431376Y6330000D01*
G01X5441376Y4208266D02*
G01X5441376Y6330000D01*
G01X5436376Y4208266D02*
G01X5436376Y6330000D01*
G01X5426376Y4208266D02*
G01X5426376Y6330000D01*
G01X5411376Y4208266D02*
G01X5411376Y6330000D01*
G01X5466376Y4208266D02*
G01X5466376Y6330000D01*
G01X5476376Y4208266D02*
G01X5476376Y6330000D01*
G01X5471376Y4208266D02*
G01X5471376Y6330000D01*
G01X5451376Y4208266D02*
G01X5451376Y6330000D01*
G01X5446376Y4208266D02*
G01X5446376Y6330000D01*
G01X5461376Y4208266D02*
G01X5461376Y6330000D01*
G01X5456376Y4208266D02*
G01X5456376Y6330000D01*
G01X5561375Y4208266D02*
G01X5561375Y6330000D01*
G01X5571375Y4208266D02*
G01X5571375Y6330000D01*
G01X5566375Y4208266D02*
G01X5566375Y6330000D01*
G01X5546375Y4208266D02*
G01X5546375Y6330000D01*
G01X5556375Y4208266D02*
G01X5556375Y6330000D01*
G01X5551375Y4208266D02*
G01X5551375Y6330000D01*
G01X5696375Y4208266D02*
G01X5696375Y6330000D01*
G01X5706375Y4208266D02*
G01X5706375Y6330000D01*
G01X5701375Y4208266D02*
G01X5701375Y6330000D01*
G01X5681375Y4208266D02*
G01X5681375Y6330000D01*
G01X5676375Y4208266D02*
G01X5676375Y6330000D01*
G01X5691375Y4208266D02*
G01X5691375Y6330000D01*
G01X5686375Y4208266D02*
G01X5686375Y6330000D01*
G01X5751375Y4208266D02*
G01X5751375Y6330000D01*
G01X5761375Y4208266D02*
G01X5761375Y6330000D01*
G01X5756375Y4208266D02*
G01X5756375Y6330000D01*
G01X5716375Y4208266D02*
G01X5716375Y6330000D01*
G01X5711375Y4208266D02*
G01X5711375Y6330000D01*
G01X5746375Y4208266D02*
G01X5746375Y6330000D01*
G01X5721375Y4208266D02*
G01X5721375Y6330000D01*
G01X6056374Y4226709D02*
G01X6056374Y6330000D01*
G01X6061374Y4231709D02*
G01X6061374Y6330000D01*
G01X6066374Y4236709D02*
G01X6066374Y6330000D01*
G01X5766375Y4208266D02*
G01X5766375Y6330000D01*
G01X6041375Y4211709D02*
G01X6041375Y6330000D01*
G01X6046374Y4216709D02*
G01X6046374Y6330000D01*
G01X6051374Y4221709D02*
G01X6051374Y6330000D01*
G01X4714646Y4348161D02*
G01X6177827Y4348161D01*
G01X4723601Y4338162D02*
G01X6167827Y4338162D01*
G01X4719124Y4343161D02*
G01X6172827Y4343161D01*
G01X4701215Y4363161D02*
G01X6192827Y4363161D01*
G01X4710169Y4353161D02*
G01X6182827Y4353161D01*
G01X4705692Y4358161D02*
G01X6187827Y4358161D01*
G01X4687783Y4378161D02*
G01X6207827Y4378161D01*
G01X4696737Y4368161D02*
G01X6197827Y4368161D01*
G01X4692260Y4373161D02*
G01X6202827Y4373161D01*
G01X4674351Y4393161D02*
G01X6222827Y4393161D01*
G01X4669874Y4398161D02*
G01X6227827Y4398161D01*
G01X4683306Y4383161D02*
G01X6212827Y4383161D01*
G01X4678828Y4388161D02*
G01X6217827Y4388161D01*
G01X4656442Y4413161D02*
G01X6242827Y4413161D01*
G01X4665397Y4403161D02*
G01X6232827Y4403161D01*
G01X4660919Y4408161D02*
G01X6237827Y4408161D01*
G01X4643010Y4428161D02*
G01X6257827Y4428161D01*
G01X4651965Y4418161D02*
G01X6247827Y4418161D01*
G01X4647488Y4423161D02*
G01X6252827Y4423161D01*
G01X4629578Y4443161D02*
G01X6272827Y4443161D01*
G01X4638533Y4433161D02*
G01X6262827Y4433161D01*
G01X4634056Y4438161D02*
G01X6267827Y4438161D01*
G01X4616147Y4458161D02*
G01X6287827Y4458161D01*
G01X4611669Y4463161D02*
G01X6292827Y4463161D01*
G01X4625101Y4448161D02*
G01X6277827Y4448161D01*
G01X4620624Y4453161D02*
G01X6282827Y4453161D01*
G01X4804192Y4248162D02*
G01X6077827Y4248162D01*
G01X4813146Y4238162D02*
G01X6067827Y4238162D01*
G01X4808669Y4243162D02*
G01X6072827Y4243162D01*
G01X4790760Y4263162D02*
G01X6092827Y4263162D01*
G01X4799715Y4253162D02*
G01X6082827Y4253162D01*
G01X4795237Y4258162D02*
G01X6087827Y4258162D01*
G01X4777328Y4278162D02*
G01X6107827Y4278162D01*
G01X4786283Y4268162D02*
G01X6097827Y4268162D01*
G01X4781806Y4273162D02*
G01X6102827Y4273162D01*
G01X4763896Y4293162D02*
G01X6122827Y4293162D01*
G01X4759419Y4298162D02*
G01X6127827Y4298162D01*
G01X4772851Y4283162D02*
G01X6112827Y4283162D01*
G01X4768374Y4288162D02*
G01X6117827Y4288162D01*
G01X4745987Y4313162D02*
G01X6142827Y4313162D01*
G01X4754942Y4303162D02*
G01X6132827Y4303162D01*
G01X4750464Y4308162D02*
G01X6137827Y4308162D01*
G01X4732555Y4328162D02*
G01X6157827Y4328162D01*
G01X4728078Y4333162D02*
G01X6162827Y4333162D01*
G01X4741510Y4318162D02*
G01X6147827Y4318162D01*
G01X4737033Y4323162D02*
G01X6152827Y4323162D01*
G01X5274993Y6303158D02*
G01X6324036Y6303158D01*
G01X6326374Y4496708D02*
G01X6326374Y6300547D01*
G01X6330000Y4500334D02*
G01X6330000Y6296498D01*
G01X5286987Y6308158D02*
G01X6319559Y6308158D01*
G01X5295403Y6313158D02*
G01X6315082Y6313158D01*
G01X6316374Y4486708D02*
G01X6316374Y6311715D01*
G01X6321374Y4491708D02*
G01X6321374Y6306131D01*
G01X6086374Y4256709D02*
G01X6086374Y6330000D01*
G01X6091374Y4261709D02*
G01X6091374Y6330000D01*
G01X6096374Y4266709D02*
G01X6096374Y6330000D01*
G01X6071374Y4241709D02*
G01X6071374Y6330000D01*
G01X6076374Y4246709D02*
G01X6076374Y6330000D01*
G01X6081374Y4251709D02*
G01X6081374Y6330000D01*
G01X6121374Y4291709D02*
G01X6121374Y6330000D01*
G01X6126374Y4296709D02*
G01X6126374Y6330000D01*
G01X6131374Y4301709D02*
G01X6131374Y6330000D01*
G01X6101374Y4271709D02*
G01X6101374Y6330000D01*
G01X6106374Y4276709D02*
G01X6106374Y6330000D01*
G01X6111374Y4281709D02*
G01X6111374Y6330000D01*
G01X6116374Y4286709D02*
G01X6116374Y6330000D01*
G01X6156374Y4326709D02*
G01X6156374Y6330000D01*
G01X6161374Y4331709D02*
G01X6161374Y6330000D01*
G01X6166374Y4336709D02*
G01X6166374Y6330000D01*
G01X6136374Y4306709D02*
G01X6136374Y6330000D01*
G01X6141374Y4311709D02*
G01X6141374Y6330000D01*
G01X6146374Y4316709D02*
G01X6146374Y6330000D01*
G01X6151374Y4321709D02*
G01X6151374Y6330000D01*
G01X5302007Y6318158D02*
G01X6310605Y6318158D01*
G01X5307429Y6323158D02*
G01X6306127Y6323158D01*
G01X5311980Y6328158D02*
G01X6301650Y6328158D01*
G01X6171374Y4341709D02*
G01X6171374Y6330000D01*
G01X5313476Y6330000D02*
G01X6300000Y6330000D01*
G01X6176374Y4346709D02*
G01X6176374Y6330000D01*
G01X6181374Y4351709D02*
G01X6181374Y6330000D01*
G01X6201374Y4371709D02*
G01X6201374Y6330000D01*
G01X6206374Y4376709D02*
G01X6206374Y6330000D01*
G01X6211374Y4381709D02*
G01X6211374Y6330000D01*
G01X6186374Y4356709D02*
G01X6186374Y6330000D01*
G01X6191374Y4361709D02*
G01X6191374Y6330000D01*
G01X6196374Y4366709D02*
G01X6196374Y6330000D01*
G01X6236374Y4406708D02*
G01X6236374Y6330000D01*
G01X6241374Y4411708D02*
G01X6241374Y6330000D01*
G01X6246374Y4416708D02*
G01X6246374Y6330000D01*
G01X6216374Y4386709D02*
G01X6216374Y6330000D01*
G01X6221374Y4391709D02*
G01X6221374Y6330000D01*
G01X6226374Y4396709D02*
G01X6226374Y6330000D01*
G01X6231374Y4401708D02*
G01X6231374Y6330000D01*
G01X6271374Y4441708D02*
G01X6271374Y6330000D01*
G01X6276374Y4446708D02*
G01X6276374Y6330000D01*
G01X6281374Y4451708D02*
G01X6281374Y6330000D01*
G01X6251374Y4421708D02*
G01X6251374Y6330000D01*
G01X6256374Y4426708D02*
G01X6256374Y6330000D01*
G01X6261374Y4431708D02*
G01X6261374Y6330000D01*
G01X6266374Y4436708D02*
G01X6266374Y6330000D01*
G01X6301374Y4471708D02*
G01X6301374Y6328466D01*
G01X6306374Y4476708D02*
G01X6306374Y6322882D01*
G01X6311374Y4481708D02*
G01X6311374Y6317298D01*
G01X6286374Y4456708D02*
G01X6286374Y6330000D01*
G01X6291374Y4461708D02*
G01X6291374Y6330000D01*
G01X6296374Y4466708D02*
G01X6296374Y6330000D01*
G01X6300000Y6330000D02*
G01X6330000Y6296498D01*
G04 Copper End*

G04 Pad Start*
G54D12*
G01X1720000Y4997160D03*
G01X5380000Y4080000D03*
G54D13*
G01X6775000Y5830000D03*
G01X7430707Y5825707D03*
G01X7100001Y5709987D03*
G01X7210000Y5709987D03*
G01X6990001Y5709987D03*
G01X7100001Y5599988D03*
G01X7210000Y5599988D03*
G01X6990001Y5599988D03*
G01X7100001Y5489988D03*
G01X7210000Y5489988D03*
G01X6990001Y5489988D03*
G01X8398000Y5489988D03*
G01X8618000Y5489988D03*
G01X8508000Y5489988D03*
G01X8398000Y5599988D03*
G01X8618000Y5599988D03*
G01X8508000Y5599988D03*
G01X8398000Y5709987D03*
G01X8618000Y5709987D03*
G01X8508000Y5709987D03*
G01X8838707Y5825707D03*
G01X8183000Y5830000D03*
G01X9806000Y5489988D03*
G01X10026000Y5489988D03*
G01X9916000Y5489988D03*
G01X9806000Y5599988D03*
G01X10026000Y5599988D03*
G01X9916000Y5599988D03*
G01X9806000Y5709987D03*
G01X10026000Y5709987D03*
G01X9916000Y5709987D03*
G01X10246707Y5825707D03*
G01X9590999Y5830000D03*
G01X11214000Y5489988D03*
G01X11433999Y5489988D03*
G01X11324000Y5489988D03*
G01X11214000Y5599988D03*
G01X11433999Y5599988D03*
G01X11324000Y5599988D03*
G01X11214000Y5709987D03*
G01X11433999Y5709987D03*
G01X11324000Y5709987D03*
G01X11654706Y5825707D03*
G01X10998999Y5830000D03*
G54D14*
G01X6573376Y7074838D03*
G54D12*
G01X5700000Y3780000D03*
G01X5480000Y2230000D03*
G01X11070000Y2840000D03*
G01X12280000Y3360000D03*
G01X1719383Y4850000D03*
G54D14*
G01X12740000Y6040000D03*
G54D15*
G01X12740000Y5776000D03*
G54D12*
G01X8272000Y2480000D03*
G01X8526000Y2480000D03*
G01X8780000Y2480000D03*
G54D16*
G01X9034000Y2480000D03*
G54D17*
G01X12739998Y5240000D03*
G54D19*
G01X12739998Y4986000D03*
G54D17*
G01X12739998Y4450000D03*
G54D19*
G01X12739998Y4196000D03*
G54D20*
G01X11648000Y4340000D03*
G54D21*
G01X11394000Y4340000D03*
G01X11140000Y4340000D03*
G01X10886000Y4340000D03*
G54D20*
G01X8814000Y4340000D03*
G54D21*
G01X8560000Y4340000D03*
G01X8306000Y4340000D03*
G01X8052000Y4340000D03*
G54D20*
G01X10223000Y4460000D03*
G54D21*
G01X9969000Y4460000D03*
G01X9715000Y4460000D03*
G01X9461000Y4460000D03*
G54D22*
G01X770000Y2777000D03*
G01X770000Y3497000D03*
G54D23*
G01X4119999Y7180000D03*
G01X3119999Y7180000D03*
G54D24*
G01X2619999Y7180000D03*
G54D23*
G01X3619999Y7180000D03*
G54D25*
G01X4030002Y1266000D03*
G54D26*
G01X4030002Y1520000D03*
G01X4030002Y1774000D03*
G54D25*
G01X4650002Y1266000D03*
G54D26*
G01X4650002Y1520000D03*
G01X4650002Y1774000D03*
G54D17*
G01X1590000Y1527000D03*
G54D19*
G01X1590000Y1273000D03*
G54D17*
G01X2200000Y1527000D03*
G54D19*
G01X2200000Y1273000D03*
G54D25*
G01X5260002Y1266000D03*
G54D26*
G01X5260002Y1520000D03*
G01X5260002Y1774000D03*
G54D25*
G01X5870002Y1266000D03*
G54D26*
G01X5870002Y1520000D03*
G01X5870002Y1774000D03*
G54D17*
G01X2810000Y1527000D03*
G54D19*
G01X2810000Y1273000D03*
G54D25*
G01X6480002Y1266000D03*
G54D26*
G01X6480002Y1520000D03*
G01X6480002Y1774000D03*
G54D25*
G01X7090002Y1266000D03*
G54D26*
G01X7090002Y1520000D03*
G01X7090002Y1774000D03*
G54D17*
G01X3420000Y1527000D03*
G54D19*
G01X3420000Y1273000D03*
G54D25*
G01X12739998Y3152001D03*
G54D26*
G01X12739998Y3406001D03*
G01X12739998Y3660001D03*
G54D25*
G01X12740000Y2106000D03*
G54D26*
G01X12740000Y2360000D03*
G01X12740000Y2614000D03*
G54D27*
G01X2141321Y7220000D03*
G54D28*
G01X1740001Y7220000D03*
G54D29*
G01X7850002Y1630000D03*
G54D30*
G01X7850002Y1376000D03*
G54D29*
G01X8358002Y1630000D03*
G01X8612002Y1630000D03*
G01X8358002Y1376000D03*
G01X8104002Y1630000D03*
G01X8104002Y1376000D03*
G01X8612002Y1376000D03*
G54D31*
G01X6747996Y7350000D03*
G01X7001996Y7350000D03*
G01X7255996Y7350000D03*
G54D32*
G01X7509996Y7350000D03*
G54D31*
G01X8025996Y7350000D03*
G01X8279996Y7350000D03*
G01X8533996Y7350000D03*
G54D32*
G01X8787996Y7350000D03*
G54D31*
G01X9301996Y7350000D03*
G01X9555996Y7350000D03*
G01X9809996Y7350000D03*
G54D32*
G01X10063996Y7350000D03*
G54D31*
G01X10579996Y7350000D03*
G01X10833996Y7350000D03*
G01X11087996Y7350000D03*
G54D32*
G01X11341996Y7350000D03*
G54D20*
G01X10223000Y4160000D03*
G54D21*
G01X9969000Y4160000D03*
G01X9715000Y4160000D03*
G01X9461000Y4160000D03*
G54D23*
G01X11060000Y1420000D03*
G54D33*
G01X11560000Y1420000D03*
G54D34*
G01X826800Y5653400D03*
G01X356800Y5653400D03*
G01X826800Y4693400D03*
G01X356800Y4693400D03*
G54D35*
G01X1006800Y5173400D03*
G54D36*
G01X406800Y5173400D03*
G54D37*
G01X11934000Y3909999D03*
G54D29*
G01X11934000Y3655999D03*
G01X11680000Y3909999D03*
G01X11680000Y3655999D03*
G01X11426000Y3909999D03*
G01X11426000Y3655999D03*
G54D38*
G01X524500Y1058000D03*
G01X524500Y2262000D03*
G54D39*
G01X795500Y1535000D03*
G01X795500Y1785000D03*
G01X995500Y1785000D03*
G01X995500Y1535000D03*
G54D35*
G01X790010Y6052155D03*
G01X790010Y6448166D03*
G04 Pad End*

G04 Via Start*
G54D40*
G01X11450000Y1860000D03*
G01X10720000Y2050005D03*
G01X10490000Y2460000D03*
G01X9565000Y2965000D03*
G01X11190000Y2150000D03*
G01X6300000Y6500000D03*
G01X6060000Y7000000D03*
G01X6140000Y7000000D03*
G01X5830000Y7260000D03*
G01X5830000Y7340000D03*
G01X9110000Y7258156D03*
G01X9110000Y7338156D03*
G01X9110000Y7418155D03*
G01X9110000Y7498155D03*
G01X7840000Y7253156D03*
G01X7840000Y7333156D03*
G01X7840000Y7413155D03*
G01X7840000Y7493155D03*
G01X2499999Y2993164D03*
G01X2979998Y2993164D03*
G01X2899998Y2993164D03*
G01X2819998Y2993164D03*
G01X2739998Y2993164D03*
G01X2659998Y2993164D03*
G01X2579999Y2993164D03*
G01X2419999Y2993164D03*
G01X2339999Y2993164D03*
G01X2259999Y2993164D03*
G01X2499999Y2913164D03*
G01X2979998Y2913164D03*
G01X2899998Y2913164D03*
G01X2819998Y2913164D03*
G01X2739998Y2913164D03*
G01X2659998Y2913164D03*
G01X2579999Y2913164D03*
G01X2419999Y2913164D03*
G01X2339999Y2913164D03*
G01X2259999Y2913164D03*
G01X2499999Y2833165D03*
G01X2979998Y2833165D03*
G01X2899998Y2833165D03*
G01X2819998Y2833165D03*
G01X2739998Y2833165D03*
G01X2659998Y2833165D03*
G01X2579999Y2833165D03*
G01X2419999Y2833165D03*
G01X2339999Y2833165D03*
G01X2259999Y2833165D03*
G01X2499999Y3233164D03*
G01X2979998Y3233164D03*
G01X2899998Y3233164D03*
G01X2819998Y3233164D03*
G01X2739998Y3233164D03*
G01X2659998Y3233164D03*
G01X2579999Y3233164D03*
G01X2419999Y3233164D03*
G01X2339999Y3233164D03*
G01X2259999Y3233164D03*
G01X2499999Y3153164D03*
G01X2979998Y3153164D03*
G01X2899998Y3153164D03*
G01X2819998Y3153164D03*
G01X2739998Y3153164D03*
G01X2659998Y3153164D03*
G01X2579999Y3153164D03*
G01X2419999Y3153164D03*
G01X2339999Y3153164D03*
G01X2259999Y3153164D03*
G01X2499999Y3073164D03*
G01X2979998Y3073164D03*
G01X2899998Y3073164D03*
G01X2819998Y3073164D03*
G01X2739998Y3073164D03*
G01X2659998Y3073164D03*
G01X2579999Y3073164D03*
G01X2419999Y3073164D03*
G01X2339999Y3073164D03*
G01X2259999Y3073164D03*
G01X2499999Y3473163D03*
G01X2979998Y3473163D03*
G01X2899998Y3473163D03*
G01X2819998Y3473163D03*
G01X2739998Y3473163D03*
G01X2659998Y3473163D03*
G01X2579999Y3473163D03*
G01X2419999Y3473163D03*
G01X2339999Y3473163D03*
G01X2259999Y3473163D03*
G01X2499999Y3393163D03*
G01X2979998Y3393163D03*
G01X2899998Y3393163D03*
G01X2819998Y3393163D03*
G01X2739998Y3393163D03*
G01X2659998Y3393163D03*
G01X2579999Y3393163D03*
G01X2419999Y3393163D03*
G01X2339999Y3393163D03*
G01X2259999Y3393163D03*
G01X2499999Y3313164D03*
G01X2979998Y3313164D03*
G01X2899998Y3313164D03*
G01X2819998Y3313164D03*
G01X2739998Y3313164D03*
G01X2659998Y3313164D03*
G01X2579999Y3313164D03*
G01X2419999Y3313164D03*
G01X2339999Y3313164D03*
G01X2259999Y3313164D03*
G01X2259999Y3553163D03*
G01X2339999Y3553163D03*
G01X2419999Y3553163D03*
G01X2579999Y3553163D03*
G01X2659998Y3553163D03*
G01X2739998Y3553163D03*
G01X2819998Y3553163D03*
G01X2899998Y3553163D03*
G01X2979998Y3553163D03*
G01X2499999Y3553163D03*
G01X2259999Y3633163D03*
G01X2339999Y3633163D03*
G01X2419999Y3633163D03*
G01X2579999Y3633163D03*
G01X2659998Y3633163D03*
G01X2739998Y3633163D03*
G01X2819998Y3633163D03*
G01X2899998Y3633163D03*
G01X2979998Y3633163D03*
G01X2499999Y3633163D03*
G01X2259999Y3713163D03*
G01X2339999Y3713163D03*
G01X2419999Y3713163D03*
G01X2579999Y3713163D03*
G01X2659998Y3713163D03*
G01X2739998Y3713163D03*
G01X2819998Y3713163D03*
G01X2899998Y3713163D03*
G01X2979998Y3713163D03*
G01X2499999Y3713163D03*
G01X3126380Y2460000D03*
G01X3046380Y2460000D03*
G01X3126380Y2380000D03*
G01X3046380Y2380000D03*
G01X3286380Y2380000D03*
G01X3286380Y2460000D03*
G01X3206380Y2380000D03*
G01X3206380Y2460000D03*
G01X4785060Y4085060D03*
G01X4340000Y3910000D03*
G01X4340000Y3830000D03*
G01X4500000Y3910000D03*
G01X4420000Y3910000D03*
G01X4500000Y3830000D03*
G01X4420000Y3830000D03*
G01X4660000Y3830000D03*
G01X4660000Y3910000D03*
G01X4580000Y3830000D03*
G01X4580000Y3910000D03*
G01X4079999Y4860000D03*
G01X4159999Y4860000D03*
G01X4079999Y4780000D03*
G01X4159999Y4780000D03*
G01X6271374Y4980000D03*
G01X6271374Y5060000D03*
G01X6271374Y5140000D03*
G01X6271374Y5220000D03*
G01X6271374Y5300000D03*
G01X6269998Y5378159D03*
G01X6269998Y5458159D03*
G01X6269998Y5538159D03*
G01X6269998Y5618158D03*
G01X6266374Y5700000D03*
G01X6266374Y5780000D03*
G01X6191374Y4980000D03*
G01X6191374Y5060000D03*
G01X6191374Y5140000D03*
G01X6191374Y5220000D03*
G01X6191374Y5300000D03*
G01X6189999Y5378159D03*
G01X6189999Y5458159D03*
G01X6189999Y5538159D03*
G01X6189999Y5618158D03*
G01X6186374Y5700000D03*
G01X6186374Y5780000D03*
G01X6111374Y4980000D03*
G01X6111374Y5060000D03*
G01X6111374Y5140000D03*
G01X6111374Y5220000D03*
G01X6111374Y5300000D03*
G01X6109999Y5378159D03*
G01X6109999Y5458159D03*
G01X6109999Y5538159D03*
G01X6109999Y5618158D03*
G01X6106374Y5700000D03*
G01X6106374Y5780000D03*
G01X3999999Y4780000D03*
G01X3919999Y4780000D03*
G01X3999999Y4860000D03*
G01X3919999Y4860000D03*
G01X3839999Y4780000D03*
G01X3839999Y4860000D03*
G01X6026375Y5780000D03*
G01X6026375Y5700000D03*
G01X6029999Y5618158D03*
G01X6029999Y5538159D03*
G01X6029999Y5458159D03*
G01X6029999Y5378159D03*
G01X6031375Y5300000D03*
G01X6031375Y5220000D03*
G01X6031375Y5140000D03*
G01X6031375Y5060000D03*
G01X5946375Y5780000D03*
G01X5946375Y5700000D03*
G01X5949999Y5618158D03*
G01X5949999Y5538159D03*
G01X5949999Y5458159D03*
G01X5949999Y5378159D03*
G01X5951375Y5300000D03*
G01X5951375Y5220000D03*
G01X5951375Y5140000D03*
G01X5951375Y5060000D03*
G01X5866375Y5780000D03*
G01X5866375Y5700000D03*
G01X5869999Y5618158D03*
G01X5869999Y5538159D03*
G01X5869999Y5458159D03*
G01X5869999Y5378159D03*
G01X5871375Y5300000D03*
G01X5871375Y5220000D03*
G01X5871375Y5140000D03*
G01X5871375Y5060000D03*
G01X5786375Y5780000D03*
G01X5786375Y5700000D03*
G01X5789999Y5618158D03*
G01X5789999Y5538159D03*
G01X5789999Y5458159D03*
G01X5789999Y5378159D03*
G01X5791375Y5300000D03*
G01X5791375Y5220000D03*
G01X5791375Y5140000D03*
G01X5791375Y5060000D03*
G01X5706375Y5940000D03*
G01X5706375Y5860000D03*
G01X5706375Y5780000D03*
G01X5706375Y5700000D03*
G01X5710000Y5618158D03*
G01X5710000Y5538159D03*
G01X5710000Y5458159D03*
G01X5710000Y5378159D03*
G01X5711375Y5300000D03*
G01X5711375Y5220000D03*
G01X5711375Y5140000D03*
G01X5711375Y5060000D03*
G01X5626375Y5940000D03*
G01X5626375Y5860000D03*
G01X5626375Y5780000D03*
G01X5626375Y5700000D03*
G01X5630000Y5618158D03*
G01X5630000Y5538159D03*
G01X5630000Y5458159D03*
G01X5630000Y5378159D03*
G01X5631375Y5300000D03*
G01X5631375Y5220000D03*
G01X5631375Y5140000D03*
G01X5631375Y5060000D03*
G01X5546375Y5940000D03*
G01X5546375Y5860000D03*
G01X5546375Y5780000D03*
G01X5546375Y5700000D03*
G01X5550000Y5618158D03*
G01X5550000Y5538159D03*
G01X5550000Y5458159D03*
G01X5550000Y5378159D03*
G01X5551375Y5300000D03*
G01X5551375Y5220000D03*
G01X5551375Y5140000D03*
G01X5551375Y5060000D03*
G01X6031375Y4980000D03*
G01X5951375Y4980000D03*
G01X5871375Y4980000D03*
G01X5791375Y4980000D03*
G01X5711375Y4980000D03*
G01X5631375Y4980000D03*
G01X5551375Y4980000D03*
G01X5471376Y4980000D03*
G01X5471376Y5060000D03*
G01X5471376Y5140000D03*
G01X5471376Y5220000D03*
G01X5471376Y5300000D03*
G01X5470000Y5378159D03*
G01X5470000Y5458159D03*
G01X5470000Y5538159D03*
G01X5470000Y5618159D03*
G01X5466376Y5700000D03*
G01X5466376Y5780000D03*
G01X5466376Y5860000D03*
G01X5466376Y5940000D03*
G01X4110000Y3980000D03*
G01X4030000Y3980000D03*
G01X4110000Y3900000D03*
G01X4030000Y3900000D03*
G01X4030000Y3460000D03*
G01X4030000Y4060000D03*
G01X4110000Y3460000D03*
G01X4110000Y4060000D03*
G01X4030000Y3540000D03*
G01X4030000Y3620000D03*
G01X4110000Y3540000D03*
G01X4110000Y3620000D03*
G01X6090000Y3430000D03*
G01X6010000Y3430000D03*
G01X6090000Y3350000D03*
G01X6010000Y3350000D03*
G01X6170000Y3430000D03*
G01X6250000Y3430000D03*
G01X6170000Y3350000D03*
G01X6250000Y3350000D03*
G01X6360000Y3890000D03*
G01X6360000Y3810000D03*
G01X6440000Y3890000D03*
G01X6440000Y3810000D03*
G01X6360000Y3970000D03*
G01X6360000Y4050000D03*
G01X6440000Y3970000D03*
G01X6440000Y4050000D03*
G01X11374038Y6089962D03*
G01X11273962Y6089962D03*
G01X9966038Y6089962D03*
G01X9865962Y6089962D03*
G01X8558038Y6089962D03*
G01X8457962Y6089962D03*
G01X7150039Y6089962D03*
G01X7049963Y6089962D03*
G01X7340000Y5060000D03*
G01X7600000Y5080001D03*
G01X8750000Y5060000D03*
G01X10260000Y5170000D03*
G01X10030000Y4980000D03*
G01X11570000Y5050000D03*
G01X11440000Y4980000D03*
G01X9000000Y5090000D03*
G01X10410000Y5110000D03*
G01X11960000Y5080000D03*
G01X7400000Y4540000D03*
G01X11660000Y4990000D03*
G01X10270000Y4990000D03*
G01X8820000Y5000000D03*
G01X7410000Y5000000D03*
G01X9380000Y4597000D03*
G01X7970000Y4480000D03*
G01X7930000Y4090000D03*
G01X10780000Y4462000D03*
G01X10750000Y4090000D03*
G01X6140000Y7080000D03*
G01X6140000Y7160000D03*
G01X6060000Y7080000D03*
G01X6060000Y7160000D03*
G01X5910000Y7340000D03*
G01X5990000Y7340000D03*
G01X6070000Y7340000D03*
G01X5910000Y7260000D03*
G01X5990000Y7260000D03*
G01X6070000Y7260000D03*
G01X4570000Y6540000D03*
G01X4570000Y6620000D03*
G01X4410000Y6540000D03*
G01X4490000Y6540000D03*
G01X4410000Y6620000D03*
G01X4490000Y6620000D03*
G01X5930000Y3590000D03*
G01X5930000Y3510000D03*
G01X5850000Y3590000D03*
G01X5850000Y3510000D03*
G01X5930000Y3350000D03*
G01X5930000Y3430000D03*
G01X5850000Y3350000D03*
G01X5850000Y3430000D03*
G01X3148840Y5020620D03*
G01X3150000Y5810000D03*
G01X3068840Y5020620D03*
G01X3070000Y5810000D03*
G01X3150000Y5650000D03*
G01X3150000Y5730000D03*
G01X3070000Y5650000D03*
G01X3070000Y5730000D03*
G01X7690000Y3860000D03*
G01X7690000Y3940000D03*
G01X7530000Y3860000D03*
G01X7610000Y3860000D03*
G01X7530000Y3940000D03*
G01X7610000Y3940000D03*
G01X10886000Y4084000D03*
G01X6650000Y6080000D03*
G01X6740000Y5470000D03*
G01X8158000Y5410000D03*
G01X8058000Y6080000D03*
G01X9555999Y5470000D03*
G01X9465999Y6080000D03*
G01X10873999Y6080000D03*
G01X10963999Y5430000D03*
G01X7500000Y4541161D03*
G01X6880000Y4979373D03*
G01X8190000Y5320000D03*
G01X9039369Y4710000D03*
G01X10647365Y4760000D03*
G01X11940000Y4750000D03*
G01X9067368Y6530000D03*
G01X8990000Y6529157D03*
G01X9070000Y6845156D03*
G01X9070000Y6765157D03*
G01X9070000Y6685157D03*
G01X9070000Y6605157D03*
G01X7662000Y6605157D03*
G01X7662000Y6685157D03*
G01X7662000Y6765157D03*
G01X7662000Y6845156D03*
G01X7659369Y6530000D03*
G01X10478000Y6605157D03*
G01X10478000Y6685157D03*
G01X10478000Y6765157D03*
G01X10478000Y6845156D03*
G01X10398000Y6529157D03*
G01X10475368Y6530000D03*
G01X11885999Y6605157D03*
G01X11885999Y6685157D03*
G01X11885999Y6765157D03*
G01X11885999Y6845156D03*
G01X11726000Y6529157D03*
G01X11806000Y6529157D03*
G01X11883368Y6530000D03*
G01X9920000Y1550000D03*
G01X7880000Y5981158D03*
G01X7800000Y5981158D03*
G01X7720000Y5981158D03*
G01X9299368Y5980000D03*
G01X9219368Y5980000D03*
G01X9139368Y5980000D03*
G01X10709365Y5980000D03*
G01X10629365Y5980000D03*
G01X10549365Y5980000D03*
G01X250000Y6960000D03*
G01X180000Y6960000D03*
G01X250000Y7030000D03*
G01X180000Y7030000D03*
G01X299230Y6685688D03*
G01X229230Y6685688D03*
G01X159230Y6685688D03*
G01X3068840Y5100620D03*
G01X3068840Y5180620D03*
G01X3148840Y5100620D03*
G01X3148840Y5180620D03*
G01X3070000Y5260000D03*
G01X3070000Y5340000D03*
G01X3150000Y5260000D03*
G01X3150000Y5340000D03*
G01X6640000Y4050000D03*
G01X6640000Y3970000D03*
G01X6560000Y4050000D03*
G01X6560000Y3970000D03*
G01X6640000Y3810000D03*
G01X6640000Y3890000D03*
G01X6560000Y3810000D03*
G01X6560000Y3890000D03*
G01X2830000Y4270000D03*
G01X2750000Y4270000D03*
G01X2840000Y4190000D03*
G01X2760000Y4190000D03*
G01X2910000Y4270000D03*
G01X2990000Y4270000D03*
G01X2920000Y4190000D03*
G01X3000000Y4190000D03*
G01X3600000Y4860000D03*
G01X3520000Y4860000D03*
G01X3600000Y4780000D03*
G01X3520000Y4780000D03*
G01X3680000Y4860000D03*
G01X3760000Y4860000D03*
G01X3680000Y4780000D03*
G01X3760000Y4780000D03*
G01X4650000Y6620000D03*
G01X4650000Y6540000D03*
G01X7150039Y5019962D03*
G01X7450000Y5190001D03*
G01X8595972Y5004028D03*
G01X8860000Y5160000D03*
G01X10110000Y5110000D03*
G01X10090000Y4370000D03*
G01X11740000Y5060000D03*
G01X7010000Y5160000D03*
G01X6940000Y5230000D03*
G01X7080000Y5090000D03*
G01X8488000Y5090000D03*
G01X8348000Y5230000D03*
G01X8418000Y5160000D03*
G01X9896000Y5090000D03*
G01X9756000Y5230000D03*
G01X9825999Y5160000D03*
G01X11303999Y5090000D03*
G01X11163999Y5230000D03*
G01X11233999Y5160000D03*
G01X8540000Y4550000D03*
G01X9580000Y5340000D03*
G01X11010000Y5330000D03*
G01X11850000Y5805159D03*
G01X11930000Y5805159D03*
G01X11850000Y5885158D03*
G01X11930000Y5885158D03*
G01X12010000Y5805159D03*
G01X12010000Y5885158D03*
G01X11850000Y5645159D03*
G01X11930000Y5645159D03*
G01X11850000Y5725159D03*
G01X11930000Y5725159D03*
G01X12010000Y5645159D03*
G01X12010000Y5725159D03*
G01X9820000Y3940000D03*
G01X9590000Y3870000D03*
G54D41*
G01X9320000Y4090000D03*
G54D40*
G01X8560000Y4020000D03*
G01X8130000Y4020000D03*
G01X9380000Y3770000D03*
G54D41*
G01X7810011Y3140000D03*
G54D40*
G01X7610000Y3040000D03*
G01X7610000Y2430000D03*
G01X7610000Y2630000D03*
G01X7607475Y2840000D03*
G01X8130000Y3040000D03*
G01X8130000Y2940000D03*
G01X9050000Y2340000D03*
G01X9420000Y2330000D03*
G01X9620000Y2330000D03*
G01X9789980Y2629981D03*
G01X7190000Y3140000D03*
G01X6890000Y1900000D03*
G01X8110000Y3270000D03*
G54D41*
G01X8130000Y2830000D03*
G54D40*
G01X7230000Y4420000D03*
G01X9365000Y3355000D03*
G01X7940000Y2080000D03*
G01X7850000Y2030000D03*
G01X9290000Y2900000D03*
G01X10240000Y1800000D03*
G01X9135000Y3235000D03*
G01X9610000Y3190000D03*
G01X8200000Y3840000D03*
G01X7970000Y3910000D03*
G01X7240000Y3410000D03*
G01X7120000Y3280000D03*
G54D41*
G01X9940000Y2340000D03*
G54D40*
G01X10040000Y1700000D03*
G01X5930000Y2340000D03*
G01X6010000Y2340000D03*
G01X6010000Y2500000D03*
G01X6010000Y2580000D03*
G01X5930000Y2500000D03*
G01X5930000Y2580000D03*
G01X6010000Y2420000D03*
G01X5930000Y2420000D03*
G01X1010000Y3050000D03*
G01X1010000Y2970000D03*
G01X1170000Y2970000D03*
G01X1250000Y2970000D03*
G01X1170000Y3050000D03*
G01X1250000Y3050000D03*
G01X1090000Y2970000D03*
G01X1090000Y3050000D03*
G01X10790000Y2590000D03*
G01X10710000Y2590000D03*
G01X10710000Y2430000D03*
G01X10710000Y2350000D03*
G01X10790000Y2430000D03*
G01X10790000Y2350000D03*
G01X10710000Y2510000D03*
G01X10790000Y2510000D03*
G01X8240000Y2330000D03*
G01X8780000Y2860000D03*
G54D41*
G01X8950000Y3780000D03*
G01X7481372Y1630000D03*
G01X7481372Y1570000D03*
G01X10850000Y3663163D03*
G01X10846365Y3470000D03*
G54D40*
G01X9500000Y3350000D03*
G01X6800000Y3410000D03*
G01X3710000Y2020000D03*
G01X4663840Y2807840D03*
G01X4530000Y2884000D03*
G01X8171276Y2741276D03*
G01X8170000Y2630000D03*
G01X6950000Y1970000D03*
G01X6890000Y2050000D03*
G01X5060000Y2900000D03*
G01X5060000Y2710000D03*
G01X5190000Y1980000D03*
G01X5250000Y6379995D03*
G01X4060000Y6850000D03*
G01X5440000Y3418163D03*
G01X5440000Y3338164D03*
G01X5440000Y3258164D03*
G01X5440000Y3178164D03*
G01X5440000Y3098164D03*
G01X1506578Y7046578D03*
G01X1240000Y7498155D03*
G01X2746381Y2034991D03*
G01X2741381Y2180000D03*
G01X2066382Y1940000D03*
G01X1703383Y2040000D03*
G01X1741383Y2611381D03*
G04 Via End*

G04 Track Start*
G54D14*
G01X12510000Y5240000D02*
G01X12739998Y5240000D01*
G01X12510000Y3150000D02*
G01X12510000Y5240000D01*
G01X12510000Y3150000D02*
G01X12737998Y3150000D01*
G54D42*
G01X12530000Y2106000D02*
G01X12740000Y2106000D01*
G54D12*
G01X12474000Y2106000D02*
G01X12530000Y2106000D01*
G54D42*
G01X12530000Y2106000D02*
G01X12280000Y2356000D01*
G01X12280000Y3360000D01*
G01X6490000Y6951462D02*
G01X6573376Y7034838D01*
G01X6490000Y4440000D02*
G01X6490000Y6951462D01*
G01X6102466Y4052466D02*
G01X6490000Y4440000D01*
G01X5389707Y4052466D02*
G01X6102466Y4052466D01*
G01X6573376Y7023043D02*
G01X6573376Y7034838D01*
G01X1740001Y7220000D02*
G01X1740001Y7280000D01*
G54D43*
G01X10910005Y1860000D02*
G01X11450000Y1860000D01*
G01X10720000Y2050005D02*
G01X10910005Y1860000D01*
G01X10380000Y2460000D02*
G01X10490000Y2460000D01*
G01X9875000Y2965000D02*
G01X10380000Y2460000D01*
G01X9565000Y2965000D02*
G01X9875000Y2965000D01*
G54D44*
G01X9809996Y6400003D02*
G01X9809996Y7350000D01*
G01X9809996Y6400003D02*
G01X9966038Y6243962D01*
G01X9966038Y6089962D02*
G01X9966038Y6243962D01*
G01X10246707Y5825707D02*
G01X10246707Y7167289D01*
G01X10063996Y7350000D02*
G01X10246707Y7167289D01*
G54D43*
G01X11107021Y2482959D02*
G01X11190000Y2399980D01*
G01X11190000Y2150000D02*
G01X11190000Y2399980D01*
G54D13*
G01X5090120Y3780000D02*
G01X5700000Y3780000D01*
G01X4785060Y4085060D02*
G01X5090120Y3780000D01*
G54D43*
G01X3119999Y7110000D02*
G01X3119999Y7180000D01*
G01X8052000Y4340000D02*
G01X8052000Y4738000D01*
G01X11628000Y4340000D02*
G01X11633999Y4345999D01*
G01X8814000Y4340000D02*
G01X8818000Y4344000D01*
G01X7930000Y4440000D02*
G01X7970000Y4480000D01*
G01X7930000Y4090000D02*
G01X7930000Y4440000D01*
G01X10750000Y4432000D02*
G01X10780000Y4462000D01*
G01X10750000Y4090000D02*
G01X10750000Y4432000D01*
G01X11394000Y4236000D02*
G01X11442400Y4187600D01*
G01X11394000Y4236000D02*
G01X11394000Y4340000D01*
G54D14*
G01X12737998Y3150000D02*
G01X12739998Y3152001D01*
G54D43*
G01X6740000Y5470000D02*
G01X6740000Y5710000D01*
G01X6650000Y5800000D02*
G01X6740000Y5710000D01*
G01X6650000Y5800000D02*
G01X6650000Y6080000D01*
G01X8058000Y5800000D02*
G01X8058000Y6080000D01*
G01X8058000Y5800000D02*
G01X8148000Y5710000D01*
G01X8148000Y5489989D02*
G01X8148000Y5710000D01*
G01X9465999Y5800000D02*
G01X9465999Y6080000D01*
G01X9465999Y5800000D02*
G01X9555999Y5710000D01*
G01X9555999Y5470000D02*
G01X9555999Y5710000D01*
G01X10873999Y5800000D02*
G01X10873999Y6080000D01*
G01X10873999Y5800000D02*
G01X10963999Y5710000D01*
G01X10963999Y5430000D02*
G01X10963999Y5710000D01*
G01X10886000Y4084000D02*
G01X10886000Y4130000D01*
G01X10886000Y4340000D01*
G01X9715000Y4160000D02*
G01X9715000Y4460000D01*
G01X9969000Y4160000D02*
G01X9969000Y4460000D01*
G54D44*
G01X7049963Y6089962D02*
G01X7049963Y6999963D01*
G01X7255996Y7205997D01*
G01X7255996Y7350000D01*
G01X7150039Y6020039D02*
G01X7150039Y6089962D01*
G01X7100000Y5970000D02*
G01X7150039Y6020039D01*
G01X6970000Y5970000D02*
G01X7100000Y5970000D01*
G01X6900000Y6040000D02*
G01X6970000Y5970000D01*
G01X6900000Y6040000D02*
G01X6900000Y7050000D01*
G01X7001996Y7151996D01*
G01X7001996Y7350000D01*
G01X6775000Y5830000D02*
G01X7150000Y5830000D01*
G01X7278114Y5958114D01*
G01X7278114Y6998114D02*
G01X7509996Y7229996D01*
G01X7509996Y7350000D01*
G01X7278114Y5958114D02*
G01X7278114Y6998114D01*
G01X7430707Y5825707D02*
G01X7430707Y6890707D01*
G01X7680000Y7140000D01*
G01X7640000Y7530000D02*
G01X7680000Y7490000D01*
G01X6830000Y7530000D02*
G01X7640000Y7530000D01*
G01X6747996Y7447997D02*
G01X6830000Y7530000D01*
G01X6747996Y7350000D02*
G01X6747996Y7447997D01*
G01X7680000Y7140000D02*
G01X7680000Y7490000D01*
G01X8457962Y6089962D02*
G01X8457962Y7107962D01*
G01X8533996Y7183997D01*
G01X8533996Y7350000D01*
G01X8558038Y6028038D02*
G01X8558038Y6089962D01*
G01X8510000Y5980000D02*
G01X8558038Y6028038D01*
G01X8400000Y5980000D02*
G01X8510000Y5980000D01*
G01X8279996Y6100004D02*
G01X8279996Y7350000D01*
G01X8279996Y6100004D02*
G01X8400000Y5980000D01*
G01X8183000Y5830000D02*
G01X8530000Y5830000D01*
G01X8686114Y5986114D01*
G01X8686114Y7046114D01*
G01X8787996Y7147996D01*
G01X8787996Y7350000D01*
G01X8970000Y7130000D02*
G01X8970000Y7470000D01*
G01X8910000Y7530000D02*
G01X8970000Y7470000D01*
G01X8090000Y7530000D02*
G01X8910000Y7530000D01*
G01X8025996Y7465996D02*
G01X8090000Y7530000D01*
G01X8025996Y7350000D02*
G01X8025996Y7465996D01*
G01X8838707Y5825707D02*
G01X8838707Y6998707D01*
G01X8970000Y7130000D01*
G01X9555996Y6399928D02*
G01X9865962Y6089962D01*
G01X9555996Y6399928D02*
G01X9555996Y7350000D01*
G01X9590999Y5830000D02*
G01X9590999Y6159001D01*
G01X9301996Y6448004D02*
G01X9590999Y6159001D01*
G01X9301996Y6448004D02*
G01X9301996Y7350000D01*
G01X11530000Y5950414D02*
G01X11654706Y5825707D01*
G01X11341996Y7160000D02*
G01X11341996Y7350000D01*
G01X11341996Y7160000D02*
G01X11530000Y6971996D01*
G01X11530000Y5950414D02*
G01X11530000Y6971996D01*
G01X11374038Y6089962D02*
G01X11374038Y6139988D01*
G01X11374038Y6195962D01*
G01X11087996Y7206842D02*
G01X11087996Y7350000D01*
G01X11087996Y7206842D02*
G01X11374038Y6920801D01*
G01X11374038Y6195962D02*
G01X11374038Y6920801D01*
G01X11240000Y6123924D02*
G01X11273962Y6089962D01*
G01X10833996Y7250842D02*
G01X10833996Y7350000D01*
G01X10833996Y7250842D02*
G01X11240000Y6844838D01*
G01X11240000Y6123924D02*
G01X11240000Y6844838D01*
G01X10579996Y7300004D02*
G01X10579996Y7350000D01*
G01X10579996Y7300004D02*
G01X10998999Y6881001D01*
G01X10998999Y5830000D02*
G01X10998999Y6881001D01*
G54D14*
G01X1680000Y7220000D02*
G01X1740001Y7220000D01*
G54D43*
G01X7299962Y5019962D02*
G01X7340000Y5060000D01*
G01X7150039Y5019962D02*
G01X7299962Y5019962D01*
G01X7709999Y5080001D02*
G01X8052000Y4738000D01*
G01X7600000Y5080001D02*
G01X7709999Y5080001D01*
G01X7450000Y5190001D02*
G01X7710000Y5190001D01*
G01X8560000Y4340000D01*
G01X8694028Y5004028D02*
G01X8750000Y5060000D01*
G01X8595972Y5004028D02*
G01X8694028Y5004028D01*
G01X9000000Y5090000D02*
G01X9318000Y5090000D01*
G01X9461000Y4450000D02*
G01X9461000Y4460000D01*
G01X9461000Y4947000D01*
G01X9318000Y5090000D02*
G01X9461000Y4947000D01*
G01X10223000Y4460000D02*
G01X10223000Y4943000D01*
G01X10270000Y4990000D01*
G01X10110000Y5060000D02*
G01X10110000Y5110000D01*
G01X10030000Y4980000D02*
G01X10110000Y5060000D01*
G01X9969000Y4460000D02*
G01X9969000Y4809000D01*
G01X10260000Y5100000D01*
G01X10260000Y5170000D01*
G01X8860000Y5160000D02*
G01X9330000Y5160000D01*
G01X9681000Y4809000D02*
G01X9969000Y4809000D01*
G01X9330000Y5160000D02*
G01X9681000Y4809000D01*
G01X10090000Y4370000D02*
G01X10150000Y4310000D01*
G01X10320000Y4310000D01*
G01X10530000Y4520000D01*
G01X10530000Y4990000D01*
G01X10410000Y5110000D02*
G01X10530000Y4990000D01*
G01X11500000Y4980000D02*
G01X11570000Y5050000D01*
G01X11440000Y4980000D02*
G01X11500000Y4980000D01*
G01X11660000Y4352000D02*
G01X11660000Y4990000D01*
G01X11648000Y4340000D02*
G01X11660000Y4352000D01*
G01X11740000Y5060000D02*
G01X11780400Y5019600D01*
G01X7080000Y5090000D02*
G01X7230000Y5090000D01*
G01X7400000Y5260000D01*
G01X7720000Y5260000D01*
G01X7890000Y5090000D01*
G01X8488000Y5090000D01*
G01X8640000Y5090000D01*
G01X8780000Y5230000D01*
G01X9350000Y5230000D01*
G01X9490000Y5090000D01*
G01X9896000Y5090000D01*
G01X9970000Y5090000D01*
G01X10120000Y5240000D01*
G01X10400000Y5240000D01*
G01X10550000Y5090000D01*
G01X11303999Y5090000D01*
G01X10085426Y5290000D02*
G01X10430000Y5290000D01*
G01X9825999Y5160000D02*
G01X9955426Y5160000D01*
G01X10085426Y5290000D01*
G01X9510000Y5160000D02*
G01X9825999Y5160000D01*
G01X8750000Y5280000D02*
G01X9390000Y5280000D01*
G01X8630000Y5160000D02*
G01X8750000Y5280000D01*
G01X8418000Y5160000D02*
G01X8630000Y5160000D01*
G01X9390000Y5280000D02*
G01X9510000Y5160000D01*
G01X7910000Y5160000D02*
G01X8418000Y5160000D01*
G01X7220000Y5160000D02*
G01X7370000Y5310000D01*
G01X7010000Y5160000D02*
G01X7220000Y5160000D01*
G01X7370000Y5310000D02*
G01X7760000Y5310000D01*
G01X7910000Y5160000D01*
G01X6940000Y5230000D02*
G01X7200000Y5230000D01*
G01X7330000Y5360000D01*
G01X7790000Y5360000D01*
G01X7920000Y5230000D01*
G01X8348000Y5230000D01*
G01X8620000Y5230000D01*
G01X8720000Y5330000D01*
G01X9420000Y5330000D01*
G01X9520000Y5230000D01*
G01X9756000Y5230000D01*
G01X9940000Y5230000D01*
G01X10050000Y5340000D01*
G01X10460000Y5340000D01*
G01X10570000Y5230000D01*
G01X11163999Y5230000D01*
G01X10560000Y5160000D02*
G01X11233999Y5160000D01*
G01X10430000Y5290000D02*
G01X10560000Y5160000D01*
G01X8148000Y5470000D02*
G01X8148000Y5489989D01*
G01X8148000Y5420000D02*
G01X8158000Y5410000D01*
G01X8148000Y5420000D02*
G01X8148000Y5489989D01*
G01X11840000Y4960000D02*
G01X11960000Y5080000D01*
G01X11303999Y5090000D02*
G01X11460000Y5090000D01*
G01X11530000Y5160000D01*
G01X12010000Y5160000D01*
G01X12050000Y5120000D01*
G01X11233999Y5160000D02*
G01X11440000Y5160000D01*
G01X11490000Y5210000D01*
G01X12040000Y5210000D01*
G01X12110000Y5140000D01*
G01X11163999Y5230000D02*
G01X11420000Y5230000D01*
G01X11460000Y5270000D01*
G01X12070000Y5270000D01*
G01X12170000Y5170000D01*
G01X11426000Y3986000D02*
G01X11510000Y4070000D01*
G01X11426000Y3909999D02*
G01X11426000Y3986000D01*
G01X11442400Y4187600D02*
G01X11707600Y4187600D01*
G01X11780400Y4260400D01*
G01X11780400Y5019600D01*
G01X10886000Y4130000D02*
G01X11730000Y4130000D01*
G01X11840000Y4240000D01*
G01X11840000Y4960000D01*
G01X11510000Y4070000D02*
G01X11750000Y4070000D01*
G01X12050000Y4370000D01*
G01X12050000Y5120000D01*
G01X11680000Y3909999D02*
G01X12110000Y4339999D01*
G01X12110000Y5140000D01*
G01X12170000Y4145999D02*
G01X12170000Y5170000D01*
G01X11934000Y3909999D02*
G01X12170000Y4145999D01*
G01X11426000Y3655999D02*
G01X11680000Y3655999D01*
G01X11934000Y3655999D01*
G01X9969000Y4160000D02*
G01X9980000Y4149000D01*
G01X9461000Y4160000D02*
G01X9505000Y4116000D01*
G01X9461000Y4140000D02*
G01X9461000Y4160000D01*
G01X9461000Y4450000D01*
G01X9969000Y4089000D02*
G01X9969000Y4160000D01*
G01X9820000Y3940000D02*
G01X9969000Y4089000D01*
G01X9461000Y4160000D02*
G01X9590000Y4031000D01*
G01X9590000Y3870000D02*
G01X9590000Y4031000D01*
G01X9320000Y4537000D02*
G01X9380000Y4597000D01*
G01X8560000Y4010000D02*
G01X8560000Y4020000D01*
G01X8560000Y4340000D01*
G01X9320000Y3830000D02*
G01X9320000Y4090000D01*
G01X9320000Y4537000D01*
G01X9320000Y3830000D02*
G01X9380000Y3770000D01*
G01X7610000Y3040000D02*
G01X8130000Y3040000D01*
G01X7880000Y2940000D02*
G01X8130000Y2940000D01*
G01X7760000Y2820000D02*
G01X7880000Y2940000D01*
G01X8780000Y2480000D02*
G01X8920000Y2340000D01*
G01X9050000Y2340000D01*
G01X9150000Y2240000D01*
G01X9530000Y2240000D01*
G01X9620000Y2330000D01*
G01X7190000Y3140000D02*
G01X7810011Y3140000D01*
G01X7410000Y4550000D02*
G01X7410000Y5000000D01*
G01X8052000Y4098000D02*
G01X8052000Y4340000D01*
G01X8052000Y4098000D02*
G01X8130000Y4020000D01*
G01X8110000Y3270000D02*
G01X8230000Y3150000D01*
G01X8230000Y2930000D02*
G01X8230000Y3150000D01*
G01X8130000Y2830000D02*
G01X8230000Y2930000D01*
G01X7280000Y4420000D02*
G01X7400000Y4540000D01*
G01X7230000Y4420000D02*
G01X7280000Y4420000D01*
G54D45*
G01X9210000Y2930000D02*
G01X9365000Y3085000D01*
G01X9365000Y3355000D01*
G54D43*
G01X8530005Y1949995D02*
G01X8612002Y1867998D01*
G01X8612002Y1630000D02*
G01X8612002Y1867998D01*
G01X8290000Y1870000D02*
G01X8358002Y1801998D01*
G01X8358002Y1630000D02*
G01X8358002Y1801998D01*
G01X9290000Y2900000D02*
G01X9830000Y2900000D01*
G01X10240000Y2490000D01*
G01X10240000Y1800000D02*
G01X10240000Y2490000D01*
G01X7540000Y2630000D02*
G01X7610000Y2630000D01*
G01X7120000Y3050000D02*
G01X7540000Y2630000D01*
G54D13*
G01X7090002Y1774000D02*
G01X7706002Y1774000D01*
G01X7850002Y1630000D01*
G01X7850002Y1376000D02*
G01X7850002Y1630000D01*
G54D43*
G01X8040000Y3840000D02*
G01X8200000Y3840000D01*
G01X7970000Y3910000D02*
G01X8040000Y3840000D01*
G54D13*
G01X6800000Y3410000D02*
G01X7240000Y3410000D01*
G54D14*
G01X6120000Y3780000D02*
G01X6290000Y3610000D01*
G01X5700000Y3780000D02*
G01X6120000Y3780000D01*
G54D43*
G01X9360001Y3460000D02*
G01X10129980Y3460000D01*
G54D14*
G01X6290000Y3610000D02*
G01X10240000Y3610000D01*
G01X11010000Y2840000D02*
G01X11070000Y2840000D01*
G01X10240000Y3610000D02*
G01X11010000Y2840000D01*
G54D43*
G01X7120000Y3050000D02*
G01X7120000Y3280000D01*
G01X1590000Y1273000D02*
G01X1743000Y1120000D01*
G01X8102002Y1120000D02*
G01X8358002Y1376000D01*
G01X9940000Y2340000D02*
G01X10040000Y2240000D01*
G01X10040000Y1700000D02*
G01X10040000Y2240000D01*
G54D13*
G01X3956000Y1774000D02*
G01X4030002Y1774000D01*
G01X3710000Y2020000D02*
G01X3956000Y1774000D01*
G01X6571581Y3410000D02*
G01X6800000Y3410000D01*
G54D43*
G01X8010000Y1870000D02*
G01X8290000Y1870000D01*
G01X7850000Y2030000D02*
G01X8010000Y1870000D01*
G01X7940000Y2080000D02*
G01X8070005Y1949995D01*
G01X8530005Y1949995D01*
G54D45*
G01X6890000Y1900000D02*
G01X7540000Y1900000D01*
G01X8570000Y2930000D01*
G01X9210000Y2930000D01*
G54D43*
G01X7760000Y2580000D02*
G01X7760000Y2820000D01*
G01X7610000Y2430000D02*
G01X7760000Y2580000D01*
G01X7510000Y1970000D02*
G01X8170000Y2630000D01*
G01X6950000Y1970000D02*
G01X7510000Y1970000D01*
G01X7480000Y2050000D02*
G01X8171276Y2741276D01*
G01X6890000Y2050000D02*
G01X7480000Y2050000D01*
G54D13*
G01X5480000Y2318419D02*
G01X6571581Y3410000D01*
G01X5480000Y2230000D02*
G01X5480000Y2318419D01*
G01X5480000Y1993998D02*
G01X5480000Y2230000D01*
G01X5260002Y1774000D02*
G01X5480000Y1993998D01*
G54D43*
G01X4756000Y2900000D02*
G01X5060000Y2900000D01*
G01X4663840Y2807840D02*
G01X4756000Y2900000D01*
G01X4530000Y2770000D02*
G01X4530000Y2884000D01*
G01X4530000Y2770000D02*
G01X4590000Y2710000D01*
G01X5060000Y2710000D01*
G01X1743000Y1120000D02*
G01X5079990Y1120000D01*
G01X8102002Y1120000D01*
G01X5079990Y1120000D02*
G01X5079990Y1869990D01*
G01X5190000Y1980000D01*
G54D13*
G01X4260000Y4610120D02*
G01X4785060Y4085060D01*
G01X4260000Y4610120D02*
G01X4260000Y6260000D01*
G01X4390000Y6390000D01*
G01X5242780Y6390000D01*
G54D43*
G01X3949999Y6850000D02*
G01X4060000Y6850000D01*
G01X3619999Y7180000D02*
G01X3949999Y6850000D01*
G54D42*
G01X1506578Y7046578D02*
G01X1680000Y7220000D01*
G01X6250000Y7500000D02*
G01X6573376Y7176623D01*
G01X6573376Y7034838D02*
G01X6573376Y7074838D01*
G01X6573376Y7176623D02*
G01X6573376Y7074838D01*
G54D46*
G01X1240000Y7498155D02*
G01X1240000Y7313156D01*
G54D42*
G01X1740001Y7280000D02*
G01X1960000Y7500000D01*
G01X6250000Y7500000D01*
G54D14*
G01X1680000Y7220000D02*
G01X1740001Y7280000D01*
G54D43*
G01X8818000Y4344000D02*
G01X8818000Y5000000D01*
G54D46*
G01X1240000Y7313156D02*
G01X1506578Y7046578D01*
G54D42*
G01X1720000Y4858000D02*
G01X1720000Y4997160D01*
G01X1720000Y5280002D02*
G01X3619999Y7180000D01*
G01X1720000Y4997160D02*
G01X1720000Y5280002D01*
G54D43*
G01X10129980Y3460000D02*
G01X11107021Y2482959D01*
G01X9135000Y3235000D02*
G01X9360001Y3460000D01*
G54D47*
G01X1591498Y5651500D02*
G01X3119999Y7180000D01*
G54D42*
G01X790010Y6448166D02*
G01X908166Y6448166D01*
G01X1506578Y7046578D01*
G54D47*
G01X826800Y5653400D02*
G01X828700Y5651500D01*
G01X1591498Y5651500D01*
G04 Track End*

M02*

