G04 Layer: DrillDrawingLayer*
G04 EasyEDA Pro v2.2.32.3, 2025-07-04 18:02:21*
G04 Gerber Generator version 0.3*
G04 Scale: 100 percent, Rotated: No, Reflected: No*
G04 Dimensions in millimeters*
G04 Leading zeros omitted, absolute positions, 3 integers and 5 decimals*
%FSLAX35Y35*%
%MOMM*%
%AMIconRect*4,1,4,0.2,-0.2,-0.2,-0.2,-0.2,0.2,0.2,0.2,0.2,-0.2,0*4,0,4,0.166667,-0.166667,0.166667,0.166667,-0.166667,0.166667,-0.166667,-0.166667,0.166667,-0.166667,0*%
%AMIconTriangle*4,1,3,-0.242567,0.171767,0.242567,0.171767,0,-0.2706,-0.242567,0.171767,0*4,0,3,-0.189767,0.1386,0,-0.1953,0.190167,0.1386,-0.189767,0.1386,0*%
%AMIconStar6*4,1,12,0.0862,0.1492,0.213233,0.123367,0.172367,0,0.213233,-0.1229,0.0862,-0.148733,0,-0.245767,-0.085767,-0.148733,-0.213267,-0.1229,-0.171933,0,-0.213267,0.1229,-0.085767,0.1492,0,0.245767,0.0862,0.1492,0*4,0,12,-0.000333,0.195333,-0.064333,0.122667,-0.169667,0.097667,-0.138333,-0.005333,-0.169667,-0.098,-0.064333,-0.122667,-0.000333,-0.195667,0.064333,-0.122667,0.169667,-0.098,0.138667,0.005,0.169667,0.098,0.064333,0.122333,-0.000333,0.195333,0*%
%AMIconStar4*4,1,8,-0.222667,0.222667,0,0.144667,0.222667,0.222667,0.144667,0,0.222667,-0.222667,0,-0.144667,-0.217433,-0.222667,-0.144667,0,-0.222667,0.222667,0*4,0,8,0.166667,-0.166667,0.108,0,0.166667,0.166667,0,0.108,-0.166667,0.166667,-0.108,0,-0.166667,-0.166667,0,-0.108,0.166667,-0.166667,0*%
%AMIconPlus*4,1,12,0.124,-0.2,-0.124,-0.2,-0.124,-0.124,-0.2,-0.124,-0.2,0.124,-0.124,0.124,-0.124,0.2,0.124,0.2,0.124,0.124,0.2,0.124,0.2,-0.124,0.124,-0.124,0.124,-0.2,0*4,0,12,0.090667,-0.166667,0.090667,-0.090667,0.166667,-0.090667,0.166667,0.090667,0.090667,0.090667,0.090667,0.166667,-0.090667,0.166667,-0.090667,0.090667,-0.166667,0.090667,-0.166667,-0.090667,-0.090667,-0.090667,-0.090667,-0.166667,0.090667,-0.166667,0*%
%AMIconX*4,1,16,0.2,-0.2,0.054533,-0.2,0,-0.145467,-0.054533,-0.2,-0.2,-0.2,-0.2,-0.054533,-0.145467,0,-0.2,0.054533,-0.2,0.2,-0.054533,0.2,0,0.145467,0.054533,0.2,0.2,0.2,0.2,0.054533,0.145467,0,0.2,-0.054533,0.2,-0.2,0*4,0,16,0.1668,-0.1664,0.1668,-0.068467,0.097933,0.000067,0.1668,0.068467,0.1668,0.1665,0.068467,0.1665,0,0.097933,-0.068467,0.1665,-0.1668,0.1665,-0.1668,0.068467,-0.097933,0.000067,-0.1668,-0.068467,-0.1668,-0.1664,-0.068467,-0.1664,0,-0.097933,0.068467,-0.1664,0.1668,-0.1664,0*%
%AMIconDiamond*4,1,4,0,-0.26,-0.26,0,0,0.26,0.26,0,0,-0.26,0*4,0,4,0,-0.203433,0.203433,0,0,0.2036,-0.203433,0,0,-0.203433,0*%
%AMIconRect2*4,1,6,0.2,-0.2,-0.2,-0.2,-0.2,0.2,-0.1668,0.1665,-0.166667,-0.166667,0.1668,-0.166667,0.2,-0.2,0*4,1,6,0.2,-0.2,0.1668,-0.166667,0.1668,0.1665,-0.1668,0.1665,-0.2,0.2,0.2,0.2,0.2,-0.2,0*4,1,6,0.133467,-0.133333,-0.133333,-0.133333,-0.133333,0.133467,-0.1,0.100133,-0.1,-0.1,0.100133,-0.1,0.133467,-0.133333,0*4,1,6,0.133467,-0.133333,0.100133,-0.1,0.100133,0.100133,-0.1,0.100133,-0.133333,0.133467,0.133467,0.133467,0.133467,-0.133333,0*%
%AMCharA*4,1,8,-0.122067,-0.1864,-0.1532,-0.174533,-0.015133,0.1864,0.016,0.1864,0.1532,-0.174533,0.122067,-0.1864,0.0764,-0.0662,-0.076133,-0.0662,-0.122067,-0.1864,0*4,0,3,-0.063333,-0.032867,0.063667,-0.032867,0.000333,0.1338,-0.063333,-0.032867,0*%
%AMCharB*4,1,17,-0.131133,-0.1894,-0.131133,0.1894,0.033533,0.1894,0.088067,0.172467,0.1114,0.151733,0.131133,0.114133,0.131,0.066467,0.114333,0.0338,0.094733,0.0128,0.086467,0.0084,0.094733,0.003867,0.114333,-0.017133,0.131,-0.0498,0.131133,-0.114133,0.1114,-0.151733,0.088067,-0.1726,0.033533,-0.1894,-0.131133,-0.1894,0*4,0,10,-0.0978,-0.156067,0.030867,-0.156067,0.073867,-0.142,0.085867,-0.130133,0.099533,-0.1028,0.099533,-0.0614,0.085867,-0.034533,0.073867,-0.0226,0.030867,-0.008667,-0.0978,-0.008667,-0.0978,-0.156067,0*4,0,10,-0.0978,0.024667,0.0308,0.024667,0.073867,0.039267,0.085867,0.051267,0.099533,0.078067,0.099533,0.102667,0.085867,0.130133,0.073867,0.142,0.030867,0.156067,-0.0978,0.156067,-0.0978,0.024667,0*%
%AMCharC*4,1,36,-0.027533,-0.1894,-0.071933,-0.1684,-0.1084,-0.130667,-0.125333,-0.096,-0.1428,-0.041333,-0.1428,0.041333,-0.1244,0.098,-0.105267,0.135067,-0.067533,0.171667,-0.027533,0.1894,0.038533,0.1894,0.083067,0.1684,0.119467,0.130667,0.1428,0.083,0.112867,0.0684,0.090867,0.113467,0.0614,0.142933,0.034733,0.156067,-0.0236,0.156067,-0.050333,0.142933,-0.079733,0.113467,-0.094067,0.084333,-0.109467,0.0386,-0.109467,-0.0386,-0.094067,-0.084333,-0.079733,-0.113467,-0.050333,-0.142867,-0.0236,-0.156067,0.034733,-0.156067,0.0614,-0.142867,0.090867,-0.113467,0.112867,-0.0684,0.1428,-0.083,0.119467,-0.130667,0.083067,-0.1684,0.038533,-0.1894,-0.027533,-0.1894,0*%
%AMCharD*4,1,12,-0.132,-0.1894,-0.132,0.1894,-0.000067,0.1894,0.054533,0.172467,0.0968,0.130933,0.1144,0.096067,0.132,0.041333,0.132,-0.041333,0.113467,-0.098267,0.093933,-0.134933,0.054533,-0.1726,-0.000067,-0.1894,-0.132,-0.1894,0*4,0,12,-0.098667,-0.156067,-0.002667,-0.156067,0.040333,-0.142133,0.068333,-0.113467,0.083267,-0.0842,0.098667,-0.0386,0.098667,0.0386,0.083267,0.0842,0.068333,0.113467,0.040333,0.142133,-0.002667,0.156067,-0.098667,0.156067,-0.098667,-0.156067,0*%
%AMCharE*4,1,12,-0.123667,-0.1894,-0.123667,0.1894,0.123667,0.1894,0.123667,0.156067,-0.090333,0.156067,-0.090333,0.024667,0.0416,0.024667,0.0416,-0.008667,-0.090333,-0.008667,-0.090333,-0.156067,0.123667,-0.156067,0.123667,-0.1894,-0.123667,-0.1894,0*%
%AMCharF*4,1,11,-0.123667,-0.1894,-0.123667,0.1894,-0.090333,0.1894,0.123667,0.1894,0.123667,0.156067,-0.090333,0.156067,-0.090333,0.024667,0.0416,0.024667,0.0416,-0.008667,-0.090333,-0.008667,-0.090333,-0.1894,-0.123667,-0.1894,0*%
%ADD10IconRect*%
%ADD11C,0.44X0.373333*%
%ADD12IconTriangle*%
%ADD13IconStar6*%
%ADD14IconStar4*%
%ADD15IconPlus*%
%ADD16IconX*%
%ADD17IconDiamond*%
%ADD18IconRect2*%
%ADD19CharA*%
%ADD20CharB*%
%ADD21CharC*%
%ADD22CharD*%
%ADD23CharE*%
%ADD24CharF*%
G75*


G04 Drill Drawing Start*
G54D10*
G01X406800Y5173400D03*
G54D11*
G01X1006800Y5173400D03*
G54D12*
G01X770000Y2777000D03*
G01X770000Y3497000D03*
G54D13*
G01X12740000Y5776000D03*
G01X12740000Y6040000D03*
G54D14*
G01X1740001Y7220000D03*
G01X2141321Y7220000D03*
G54D15*
G01X790023Y6052147D03*
G01X790023Y6448166D03*
G54D16*
G01X524500Y1058000D03*
G01X524500Y2262000D03*
G54D17*
G01X795500Y1535000D03*
G01X795500Y1785000D03*
G01X995500Y1535000D03*
G01X995500Y1785000D03*
G54D18*
G01X356800Y4693400D03*
G01X356800Y5653400D03*
G01X826800Y4693400D03*
G01X826800Y5653400D03*
G54D19*
G01X2619999Y7180000D03*
G01X3119999Y7180000D03*
G01X3619999Y7180000D03*
G01X4119999Y7180000D03*
G01X11060000Y1420000D03*
G01X11560000Y1420000D03*
G54D20*
G01X6573376Y7074838D03*
G01X7850002Y1376000D03*
G01X8104002Y1376000D03*
G01X8104002Y1630000D03*
G01X8358002Y1376000D03*
G01X8358002Y1630000D03*
G01X8612002Y1630000D03*
G54D21*
G01X1719383Y4850000D03*
G01X1720000Y4997160D03*
G01X5380000Y4080000D03*
G01X5480000Y2230000D03*
G01X5700000Y3780000D03*
G01X7850002Y1630000D03*
G01X8052000Y4340000D03*
G01X8272000Y2480000D03*
G01X8306000Y4340000D03*
G01X8526000Y2480000D03*
G01X8560000Y4340000D03*
G01X8612002Y1376000D03*
G01X8780000Y2480000D03*
G01X8814000Y4340000D03*
G01X9034000Y2480000D03*
G01X9461000Y4160000D03*
G01X9461000Y4460000D03*
G01X9715000Y4160000D03*
G01X9715000Y4460000D03*
G01X9969000Y4160000D03*
G01X9969000Y4460000D03*
G01X10223000Y4160000D03*
G01X10223000Y4460000D03*
G01X10886000Y4340000D03*
G01X11070000Y2840000D03*
G01X11140000Y4340000D03*
G01X11394000Y4340000D03*
G01X11426000Y3655999D03*
G01X11426000Y3909999D03*
G01X11648000Y4340000D03*
G01X11680000Y3655999D03*
G01X11680000Y3909999D03*
G01X11934000Y3655999D03*
G01X11934000Y3909999D03*
G01X12280000Y3360000D03*
G54D22*
G01X6775000Y5830000D03*
G01X6990001Y5489988D03*
G01X6990001Y5599988D03*
G01X6990001Y5709987D03*
G01X7100001Y5489988D03*
G01X7100001Y5599988D03*
G01X7100001Y5709987D03*
G01X7210000Y5489988D03*
G01X7210000Y5599988D03*
G01X7210000Y5709987D03*
G01X7430707Y5825707D03*
G01X8183000Y5830000D03*
G01X8398000Y5489988D03*
G01X8398000Y5599988D03*
G01X8398000Y5709987D03*
G01X8508000Y5489988D03*
G01X8508000Y5599988D03*
G01X8508000Y5709987D03*
G01X8618000Y5489988D03*
G01X8618000Y5599988D03*
G01X8618000Y5709987D03*
G01X8838707Y5825707D03*
G01X9590999Y5830000D03*
G01X9806000Y5489988D03*
G01X9806000Y5599988D03*
G01X9806000Y5709987D03*
G01X9916000Y5489988D03*
G01X9916000Y5599988D03*
G01X9916000Y5709987D03*
G01X10026000Y5489988D03*
G01X10026000Y5599988D03*
G01X10026000Y5709987D03*
G01X10246707Y5825707D03*
G01X10998999Y5830000D03*
G01X11214000Y5489988D03*
G01X11214000Y5599988D03*
G01X11214000Y5709987D03*
G01X11324000Y5489988D03*
G01X11324000Y5599988D03*
G01X11324000Y5709987D03*
G01X11433999Y5489988D03*
G01X11433999Y5599988D03*
G01X11433999Y5709987D03*
G01X11654706Y5825707D03*
G54D23*
G01X1590000Y1273000D03*
G01X1590000Y1527000D03*
G01X2200000Y1273000D03*
G01X2200000Y1527000D03*
G01X2810000Y1273000D03*
G01X2810000Y1527000D03*
G01X3420000Y1273000D03*
G01X3420000Y1527000D03*
G01X4030002Y1266000D03*
G01X4030002Y1520000D03*
G01X4030002Y1774000D03*
G01X4650002Y1266000D03*
G01X4650002Y1520000D03*
G01X4650002Y1774000D03*
G01X5260002Y1266000D03*
G01X5260002Y1520000D03*
G01X5260002Y1774000D03*
G01X5870002Y1266000D03*
G01X5870002Y1520000D03*
G01X5870002Y1774000D03*
G01X6480002Y1266000D03*
G01X6480002Y1520000D03*
G01X6480002Y1774000D03*
G01X6747996Y7350000D03*
G01X7001996Y7350000D03*
G01X7090002Y1266000D03*
G01X7090002Y1520000D03*
G01X7090002Y1774000D03*
G01X7255996Y7350000D03*
G01X7509996Y7350000D03*
G01X8025996Y7350000D03*
G01X8279996Y7350000D03*
G01X8533996Y7350000D03*
G01X8787996Y7350000D03*
G01X9301996Y7350000D03*
G01X9555996Y7350000D03*
G01X9809996Y7350000D03*
G01X10063996Y7350000D03*
G01X10579996Y7350000D03*
G01X10833996Y7350000D03*
G01X11087996Y7350000D03*
G01X11341996Y7350000D03*
G01X12739998Y3152001D03*
G01X12739998Y3406001D03*
G01X12739998Y3660001D03*
G01X12739998Y4196000D03*
G01X12739998Y4450000D03*
G01X12739998Y4986000D03*
G01X12739998Y5240000D03*
G01X12740000Y2106000D03*
G01X12740000Y2360000D03*
G01X12740000Y2614000D03*
G54D24*
G01X159230Y6685688D03*
G01X180000Y6960000D03*
G01X180000Y7030000D03*
G01X229230Y6685688D03*
G01X250000Y6960000D03*
G01X250000Y7030000D03*
G01X299230Y6685688D03*
G01X1010000Y2970000D03*
G01X1010000Y3050000D03*
G01X1090000Y2970000D03*
G01X1090000Y3050000D03*
G01X1170000Y2970000D03*
G01X1170000Y3050000D03*
G01X1240000Y7498155D03*
G01X1250000Y2970000D03*
G01X1250000Y3050000D03*
G01X1506578Y7046578D03*
G01X1703383Y2040000D03*
G01X1741383Y2611381D03*
G01X2066382Y1940000D03*
G01X2259999Y2833165D03*
G01X2259999Y2913164D03*
G01X2259999Y2993164D03*
G01X2259999Y3073164D03*
G01X2259999Y3153164D03*
G01X2259999Y3233164D03*
G01X2259999Y3313164D03*
G01X2259999Y3393163D03*
G01X2259999Y3473163D03*
G01X2259999Y3553163D03*
G01X2259999Y3633163D03*
G01X2259999Y3713163D03*
G01X2339999Y2833165D03*
G01X2339999Y2913164D03*
G01X2339999Y2993164D03*
G01X2339999Y3073164D03*
G01X2339999Y3153164D03*
G01X2339999Y3233164D03*
G01X2339999Y3313164D03*
G01X2339999Y3393163D03*
G01X2339999Y3473163D03*
G01X2339999Y3553163D03*
G01X2339999Y3633163D03*
G01X2339999Y3713163D03*
G01X2419999Y2833165D03*
G01X2419999Y2913164D03*
G01X2419999Y2993164D03*
G01X2419999Y3073164D03*
G01X2419999Y3153164D03*
G01X2419999Y3233164D03*
G01X2419999Y3313164D03*
G01X2419999Y3393163D03*
G01X2419999Y3473163D03*
G01X2419999Y3553163D03*
G01X2419999Y3633163D03*
G01X2419999Y3713163D03*
G01X2499999Y2833165D03*
G01X2499999Y2913164D03*
G01X2499999Y2993164D03*
G01X2499999Y3073164D03*
G01X2499999Y3153164D03*
G01X2499999Y3233164D03*
G01X2499999Y3313164D03*
G01X2499999Y3393163D03*
G01X2499999Y3473163D03*
G01X2499999Y3553163D03*
G01X2499999Y3633163D03*
G01X2499999Y3713163D03*
G01X2579999Y2833165D03*
G01X2579999Y2913164D03*
G01X2579999Y2993164D03*
G01X2579999Y3073164D03*
G01X2579999Y3153164D03*
G01X2579999Y3233164D03*
G01X2579999Y3313164D03*
G01X2579999Y3393163D03*
G01X2579999Y3473163D03*
G01X2579999Y3553163D03*
G01X2579999Y3633163D03*
G01X2579999Y3713163D03*
G01X2659998Y2833165D03*
G01X2659998Y2913164D03*
G01X2659998Y2993164D03*
G01X2659998Y3073164D03*
G01X2659998Y3153164D03*
G01X2659998Y3233164D03*
G01X2659998Y3313164D03*
G01X2659998Y3393163D03*
G01X2659998Y3473163D03*
G01X2659998Y3553163D03*
G01X2659998Y3633163D03*
G01X2659998Y3713163D03*
G01X2739998Y2833165D03*
G01X2739998Y2913164D03*
G01X2739998Y2993164D03*
G01X2739998Y3073164D03*
G01X2739998Y3153164D03*
G01X2739998Y3233164D03*
G01X2739998Y3313164D03*
G01X2739998Y3393163D03*
G01X2739998Y3473163D03*
G01X2739998Y3553163D03*
G01X2739998Y3633163D03*
G01X2739998Y3713163D03*
G01X2741381Y2180000D03*
G01X2746381Y2034991D03*
G01X2750000Y4270000D03*
G01X2760000Y4190000D03*
G01X2819998Y2833165D03*
G01X2819998Y2913164D03*
G01X2819998Y2993164D03*
G01X2819998Y3073164D03*
G01X2819998Y3153164D03*
G01X2819998Y3233164D03*
G01X2819998Y3313164D03*
G01X2819998Y3393163D03*
G01X2819998Y3473163D03*
G01X2819998Y3553163D03*
G01X2819998Y3633163D03*
G01X2819998Y3713163D03*
G01X2830000Y4270000D03*
G01X2840000Y4190000D03*
G01X2899998Y2833165D03*
G01X2899998Y2913164D03*
G01X2899998Y2993164D03*
G01X2899998Y3073164D03*
G01X2899998Y3153164D03*
G01X2899998Y3233164D03*
G01X2899998Y3313164D03*
G01X2899998Y3393163D03*
G01X2899998Y3473163D03*
G01X2899998Y3553163D03*
G01X2899998Y3633163D03*
G01X2899998Y3713163D03*
G01X2910000Y4270000D03*
G01X2920000Y4190000D03*
G01X2979998Y2833165D03*
G01X2979998Y2913164D03*
G01X2979998Y2993164D03*
G01X2979998Y3073164D03*
G01X2979998Y3153164D03*
G01X2979998Y3233164D03*
G01X2979998Y3313164D03*
G01X2979998Y3393163D03*
G01X2979998Y3473163D03*
G01X2979998Y3553163D03*
G01X2979998Y3633163D03*
G01X2979998Y3713163D03*
G01X2990000Y4270000D03*
G01X3000000Y4190000D03*
G01X3046380Y2380000D03*
G01X3046380Y2460000D03*
G01X3068840Y5020620D03*
G01X3068840Y5100620D03*
G01X3068840Y5180620D03*
G01X3070000Y5260000D03*
G01X3070000Y5340000D03*
G01X3070000Y5650000D03*
G01X3070000Y5730000D03*
G01X3070000Y5810000D03*
G01X3126380Y2380000D03*
G01X3126380Y2460000D03*
G01X3148840Y5020620D03*
G01X3148840Y5100620D03*
G01X3148840Y5180620D03*
G01X3150000Y5260000D03*
G01X3150000Y5340000D03*
G01X3150000Y5650000D03*
G01X3150000Y5730000D03*
G01X3150000Y5810000D03*
G01X3206380Y2380000D03*
G01X3206380Y2460000D03*
G01X3286380Y2380000D03*
G01X3286380Y2460000D03*
G01X3520000Y4780000D03*
G01X3520000Y4860000D03*
G01X3600000Y4780000D03*
G01X3600000Y4860000D03*
G01X3680000Y4780000D03*
G01X3680000Y4860000D03*
G01X3710000Y2020000D03*
G01X3760000Y4780000D03*
G01X3760000Y4860000D03*
G01X3839999Y4780000D03*
G01X3839999Y4860000D03*
G01X3919999Y4780000D03*
G01X3919999Y4860000D03*
G01X3999999Y4780000D03*
G01X3999999Y4860000D03*
G01X4030000Y3460000D03*
G01X4030000Y3540000D03*
G01X4030000Y3620000D03*
G01X4030000Y3900000D03*
G01X4030000Y3980000D03*
G01X4030000Y4060000D03*
G01X4060000Y6850000D03*
G01X4079999Y4780000D03*
G01X4079999Y4860000D03*
G01X4110000Y3460000D03*
G01X4110000Y3540000D03*
G01X4110000Y3620000D03*
G01X4110000Y3900000D03*
G01X4110000Y3980000D03*
G01X4110000Y4060000D03*
G01X4159999Y4780000D03*
G01X4159999Y4860000D03*
G01X4340000Y3830000D03*
G01X4340000Y3910000D03*
G01X4410000Y6540000D03*
G01X4410000Y6620000D03*
G01X4420000Y3830000D03*
G01X4420000Y3910000D03*
G01X4490000Y6540000D03*
G01X4490000Y6620000D03*
G01X4500000Y3830000D03*
G01X4500000Y3910000D03*
G01X4530000Y2884000D03*
G01X4570000Y6540000D03*
G01X4570000Y6620000D03*
G01X4580000Y3830000D03*
G01X4580000Y3910000D03*
G01X4650000Y6540000D03*
G01X4650000Y6620000D03*
G01X4660000Y3830000D03*
G01X4660000Y3910000D03*
G01X4663840Y2807840D03*
G01X4785060Y4085060D03*
G01X5060000Y2710000D03*
G01X5060000Y2900000D03*
G01X5190000Y1980000D03*
G01X5250000Y6379995D03*
G01X5440000Y3098164D03*
G01X5440000Y3178164D03*
G01X5440000Y3258164D03*
G01X5440000Y3338164D03*
G01X5440000Y3418163D03*
G01X5466376Y5700000D03*
G01X5466376Y5780000D03*
G01X5466376Y5860000D03*
G01X5466376Y5940000D03*
G01X5470000Y5378159D03*
G01X5470000Y5458159D03*
G01X5470000Y5538159D03*
G01X5470000Y5618159D03*
G01X5471376Y4980000D03*
G01X5471376Y5060000D03*
G01X5471376Y5140000D03*
G01X5471376Y5220000D03*
G01X5471376Y5300000D03*
G01X5546375Y5700000D03*
G01X5546375Y5780000D03*
G01X5546375Y5860000D03*
G01X5546375Y5940000D03*
G01X5550000Y5378159D03*
G01X5550000Y5458159D03*
G01X5550000Y5538159D03*
G01X5550000Y5618158D03*
G01X5551375Y4980000D03*
G01X5551375Y5060000D03*
G01X5551375Y5140000D03*
G01X5551375Y5220000D03*
G01X5551375Y5300000D03*
G01X5626375Y5700000D03*
G01X5626375Y5780000D03*
G01X5626375Y5860000D03*
G01X5626375Y5940000D03*
G01X5630000Y5378159D03*
G01X5630000Y5458159D03*
G01X5630000Y5538159D03*
G01X5630000Y5618158D03*
G01X5631375Y4980000D03*
G01X5631375Y5060000D03*
G01X5631375Y5140000D03*
G01X5631375Y5220000D03*
G01X5631375Y5300000D03*
G01X5706375Y5700000D03*
G01X5706375Y5780000D03*
G01X5706375Y5860000D03*
G01X5706375Y5940000D03*
G01X5710000Y5378159D03*
G01X5710000Y5458159D03*
G01X5710000Y5538159D03*
G01X5710000Y5618158D03*
G01X5711375Y4980000D03*
G01X5711375Y5060000D03*
G01X5711375Y5140000D03*
G01X5711375Y5220000D03*
G01X5711375Y5300000D03*
G01X5786375Y5700000D03*
G01X5786375Y5780000D03*
G01X5789999Y5378159D03*
G01X5789999Y5458159D03*
G01X5789999Y5538159D03*
G01X5789999Y5618158D03*
G01X5791375Y4980000D03*
G01X5791375Y5060000D03*
G01X5791375Y5140000D03*
G01X5791375Y5220000D03*
G01X5791375Y5300000D03*
G01X5830000Y7260000D03*
G01X5830000Y7340000D03*
G01X5850000Y3350000D03*
G01X5850000Y3430000D03*
G01X5850000Y3510000D03*
G01X5850000Y3590000D03*
G01X5866375Y5700000D03*
G01X5866375Y5780000D03*
G01X5869999Y5378159D03*
G01X5869999Y5458159D03*
G01X5869999Y5538159D03*
G01X5869999Y5618158D03*
G01X5871375Y4980000D03*
G01X5871375Y5060000D03*
G01X5871375Y5140000D03*
G01X5871375Y5220000D03*
G01X5871375Y5300000D03*
G01X5910000Y7260000D03*
G01X5910000Y7340000D03*
G01X5930000Y2340000D03*
G01X5930000Y2420000D03*
G01X5930000Y2500000D03*
G01X5930000Y2580000D03*
G01X5930000Y3350000D03*
G01X5930000Y3430000D03*
G01X5930000Y3510000D03*
G01X5930000Y3590000D03*
G01X5946375Y5700000D03*
G01X5946375Y5780000D03*
G01X5949999Y5378159D03*
G01X5949999Y5458159D03*
G01X5949999Y5538159D03*
G01X5949999Y5618158D03*
G01X5951375Y4980000D03*
G01X5951375Y5060000D03*
G01X5951375Y5140000D03*
G01X5951375Y5220000D03*
G01X5951375Y5300000D03*
G01X5990000Y7260000D03*
G01X5990000Y7340000D03*
G01X6010000Y2340000D03*
G01X6010000Y2420000D03*
G01X6010000Y2500000D03*
G01X6010000Y2580000D03*
G01X6010000Y3350000D03*
G01X6010000Y3430000D03*
G01X6026375Y5700000D03*
G01X6026375Y5780000D03*
G01X6029999Y5378159D03*
G01X6029999Y5458159D03*
G01X6029999Y5538159D03*
G01X6029999Y5618158D03*
G01X6031375Y4980000D03*
G01X6031375Y5060000D03*
G01X6031375Y5140000D03*
G01X6031375Y5220000D03*
G01X6031375Y5300000D03*
G01X6060000Y7000000D03*
G01X6060000Y7080000D03*
G01X6060000Y7160000D03*
G01X6070000Y7260000D03*
G01X6070000Y7340000D03*
G01X6090000Y3350000D03*
G01X6090000Y3430000D03*
G01X6106374Y5700000D03*
G01X6106374Y5780000D03*
G01X6109999Y5378159D03*
G01X6109999Y5458159D03*
G01X6109999Y5538159D03*
G01X6109999Y5618158D03*
G01X6111374Y4980000D03*
G01X6111374Y5060000D03*
G01X6111374Y5140000D03*
G01X6111374Y5220000D03*
G01X6111374Y5300000D03*
G01X6140000Y7000000D03*
G01X6140000Y7080000D03*
G01X6140000Y7160000D03*
G01X6170000Y3350000D03*
G01X6170000Y3430000D03*
G01X6186374Y5700000D03*
G01X6186374Y5780000D03*
G01X6189999Y5378159D03*
G01X6189999Y5458159D03*
G01X6189999Y5538159D03*
G01X6189999Y5618158D03*
G01X6191374Y4980000D03*
G01X6191374Y5060000D03*
G01X6191374Y5140000D03*
G01X6191374Y5220000D03*
G01X6191374Y5300000D03*
G01X6250000Y3350000D03*
G01X6250000Y3430000D03*
G01X6266374Y5700000D03*
G01X6266374Y5780000D03*
G01X6269998Y5378159D03*
G01X6269998Y5458159D03*
G01X6269998Y5538159D03*
G01X6269998Y5618158D03*
G01X6271374Y4980000D03*
G01X6271374Y5060000D03*
G01X6271374Y5140000D03*
G01X6271374Y5220000D03*
G01X6271374Y5300000D03*
G01X6300000Y6500000D03*
G01X6360000Y3810000D03*
G01X6360000Y3890000D03*
G01X6360000Y3970000D03*
G01X6360000Y4050000D03*
G01X6440000Y3810000D03*
G01X6440000Y3890000D03*
G01X6440000Y3970000D03*
G01X6440000Y4050000D03*
G01X6560000Y3810000D03*
G01X6560000Y3890000D03*
G01X6560000Y3970000D03*
G01X6560000Y4050000D03*
G01X6640000Y3810000D03*
G01X6640000Y3890000D03*
G01X6640000Y3970000D03*
G01X6640000Y4050000D03*
G01X6650000Y6080000D03*
G01X6740000Y5470000D03*
G01X6800000Y3410000D03*
G01X6880000Y4979373D03*
G01X6890000Y1900000D03*
G01X6890000Y2050000D03*
G01X6940000Y5230000D03*
G01X6950000Y1970000D03*
G01X7010000Y5160000D03*
G01X7049963Y6089962D03*
G01X7080000Y5090000D03*
G01X7120000Y3280000D03*
G01X7150039Y5019962D03*
G01X7150039Y6089962D03*
G01X7190000Y3140000D03*
G01X7230000Y4420000D03*
G01X7240000Y3410000D03*
G01X7340000Y5060000D03*
G01X7400000Y4540000D03*
G01X7410000Y5000000D03*
G01X7450000Y5190001D03*
G01X7481372Y1570000D03*
G01X7481372Y1630000D03*
G01X7500000Y4541161D03*
G01X7530000Y3860000D03*
G01X7530000Y3940000D03*
G01X7600000Y5080001D03*
G01X7607475Y2840000D03*
G01X7610000Y2430000D03*
G01X7610000Y2630000D03*
G01X7610000Y3040000D03*
G01X7610000Y3860000D03*
G01X7610000Y3940000D03*
G01X7659369Y6530000D03*
G01X7662000Y6605157D03*
G01X7662000Y6685157D03*
G01X7662000Y6765157D03*
G01X7662000Y6845156D03*
G01X7690000Y3860000D03*
G01X7690000Y3940000D03*
G01X7720000Y5981158D03*
G01X7800000Y5981158D03*
G01X7810011Y3140000D03*
G01X7840000Y7253156D03*
G01X7840000Y7333156D03*
G01X7840000Y7413155D03*
G01X7840000Y7493155D03*
G01X7850000Y2030000D03*
G01X7880000Y5981158D03*
G01X7930000Y4090000D03*
G01X7940000Y2080000D03*
G01X7970000Y3910000D03*
G01X7970000Y4480000D03*
G01X8058000Y6080000D03*
G01X8110000Y3270000D03*
G01X8130000Y2830000D03*
G01X8130000Y2940000D03*
G01X8130000Y3040000D03*
G01X8130000Y4020000D03*
G01X8158000Y5410000D03*
G01X8170000Y2630000D03*
G01X8171276Y2741276D03*
G01X8190000Y5320000D03*
G01X8200000Y3840000D03*
G01X8240000Y2330000D03*
G01X8348000Y5230000D03*
G01X8418000Y5160000D03*
G01X8457962Y6089962D03*
G01X8488000Y5090000D03*
G01X8540000Y4550000D03*
G01X8558038Y6089962D03*
G01X8560000Y4020000D03*
G01X8595972Y5004028D03*
G01X8750000Y5060000D03*
G01X8780000Y2860000D03*
G01X8820000Y5000000D03*
G01X8860000Y5160000D03*
G01X8950000Y3780000D03*
G01X8990000Y6529157D03*
G01X9000000Y5090000D03*
G01X9039369Y4710000D03*
G01X9050000Y2340000D03*
G01X9067368Y6530000D03*
G01X9070000Y6605157D03*
G01X9070000Y6685157D03*
G01X9070000Y6765157D03*
G01X9070000Y6845156D03*
G01X9110000Y7258156D03*
G01X9110000Y7338156D03*
G01X9110000Y7418155D03*
G01X9110000Y7498155D03*
G01X9135000Y3235000D03*
G01X9139368Y5980000D03*
G01X9219368Y5980000D03*
G01X9290000Y2900000D03*
G01X9299368Y5980000D03*
G01X9320000Y4090000D03*
G01X9365000Y3355000D03*
G01X9380000Y3770000D03*
G01X9380000Y4597000D03*
G01X9420000Y2330000D03*
G01X9465999Y6080000D03*
G01X9500000Y3350000D03*
G01X9555999Y5470000D03*
G01X9565000Y2965000D03*
G01X9580000Y5340000D03*
G01X9590000Y3870000D03*
G01X9610000Y3190000D03*
G01X9620000Y2330000D03*
G01X9756000Y5230000D03*
G01X9789980Y2629981D03*
G01X9820000Y3940000D03*
G01X9825999Y5160000D03*
G01X9865962Y6089962D03*
G01X9896000Y5090000D03*
G01X9920000Y1550000D03*
G01X9940000Y2340000D03*
G01X9966038Y6089962D03*
G01X10030000Y4980000D03*
G01X10040000Y1700000D03*
G01X10090000Y4370000D03*
G01X10110000Y5110000D03*
G01X10240000Y1800000D03*
G01X10260000Y5170000D03*
G01X10270000Y4990000D03*
G01X10398000Y6529157D03*
G01X10410000Y5110000D03*
G01X10475368Y6530000D03*
G01X10478000Y6605157D03*
G01X10478000Y6685157D03*
G01X10478000Y6765157D03*
G01X10478000Y6845156D03*
G01X10490000Y2460000D03*
G01X10549365Y5980000D03*
G01X10629365Y5980000D03*
G01X10647365Y4760000D03*
G01X10709365Y5980000D03*
G01X10710000Y2350000D03*
G01X10710000Y2430000D03*
G01X10710000Y2510000D03*
G01X10710000Y2590000D03*
G01X10720000Y2050005D03*
G01X10750000Y4090000D03*
G01X10780000Y4462000D03*
G01X10790000Y2350000D03*
G01X10790000Y2430000D03*
G01X10790000Y2510000D03*
G01X10790000Y2590000D03*
G01X10846365Y3470000D03*
G01X10850000Y3663163D03*
G01X10873999Y6080000D03*
G01X10886000Y4084000D03*
G01X10963999Y5430000D03*
G01X11010000Y5330000D03*
G01X11163999Y5230000D03*
G01X11190000Y2150000D03*
G01X11233999Y5160000D03*
G01X11273962Y6089962D03*
G01X11303999Y5090000D03*
G01X11374038Y6089962D03*
G01X11440000Y4980000D03*
G01X11450000Y1860000D03*
G01X11570000Y5050000D03*
G01X11660000Y4990000D03*
G01X11726000Y6529157D03*
G01X11740000Y5060000D03*
G01X11806000Y6529157D03*
G01X11850000Y5645159D03*
G01X11850000Y5725159D03*
G01X11850000Y5805159D03*
G01X11850000Y5885158D03*
G01X11883368Y6530000D03*
G01X11885999Y6605157D03*
G01X11885999Y6685157D03*
G01X11885999Y6765157D03*
G01X11885999Y6845156D03*
G01X11930000Y5645159D03*
G01X11930000Y5725159D03*
G01X11930000Y5805159D03*
G01X11930000Y5885158D03*
G01X11940000Y4750000D03*
G01X11960000Y5080000D03*
G01X12010000Y5645159D03*
G01X12010000Y5725159D03*
G01X12010000Y5805159D03*
G01X12010000Y5885158D03*
G04 Drill Drawing End*

M02*

