G04 Layer: TopPasteMaskLayer*
G04 EasyEDA Pro v2.2.32.3, 2025-07-04 18:02:21*
G04 Gerber Generator version 0.3*
G04 Scale: 100 percent, Rotated: No, Reflected: No*
G04 Dimensions in millimeters*
G04 Leading zeros omitted, absolute positions, 3 integers and 5 decimals*
%FSLAX35Y35*%
%MOMM*%
%ADD10R,1.0X2.99999*%
%ADD11R,1.10002X1.0*%
%ADD12R,1.0X1.10002*%
%ADD13R,0.889X0.889*%
%ADD14R,1.10002X1.0*%
%ADD15R,2.0X2.0*%
%ADD16R,1.1X0.6*%
%ADD17R,1.1014X0.6*%
%ADD18R,1.1X0.6*%
%ADD19R,1.0X1.10002*%
%ADD20R,1.0X0.89992*%
%ADD21R,0.889X0.889*%
%ADD22R,0.889X0.889*%
%ADD23R,2.99999X1.0*%
%ADD24R,1.0X1.4*%
%ADD25R,1.5X3.0*%
%ADD26R,3.19999X1.50002*%
%ADD27R,1.4X1.0*%
%ADD28R,2.99999X1.0*%
%ADD29R,1.4X1.0*%
%ADD30R,0.889X0.889*%
%ADD31R,1.0X2.99999*%
%ADD32R,2.0X2.0*%
%ADD33R,2.0X2.0*%
%ADD34R,2.0X2.0*%
%ADD35R,0.89992X1.0*%
%ADD36R,0.89992X1.0*%
%ADD37R,3.03002X3.82001*%
%ADD38R,3.02999X3.82001*%
%ADD39R,1.5X0.8*%
%ADD40R,5.0X2.0*%
%ADD41R,2.0X5.0*%
%ADD42R,10.0X10.1*%
%ADD43R,3.0X1.5*%
%ADD44R,5.8X5.8*%
%ADD45R,2.0X1.2*%
%ADD46R,1.2X1.4*%
%ADD47R,1.6X1.4*%
%ADD48R,10.0X10.1*%
%ADD49R,3.0X1.5*%
%ADD50R,1.05X2.7*%
%ADD51R,10.0X10.3*%
%ADD52O,1.8X0.3*%
%ADD53O,0.3X1.8*%
%ADD54R,1.6X1.1*%
%ADD55R,1.6X1.1*%
%ADD56R,2.0X3.6*%
%ADD57O,0.89574X0.28001*%
%ADD58O,0.28001X0.89574*%
%ADD59O,0.89572X0.28001*%
%ADD60R,3.50002X3.50002*%
%ADD61R,1.0X0.8*%
%ADD62O,2.0X0.6*%
%ADD63R,1.0X2.49999*%
%ADD64R,1.0X2.50002*%
G75*


G04 Pad Start*
G54D10*
G01X10900000Y2900000D03*
G01X10900000Y2340001D03*
G54D11*
G01X10620000Y2050015D03*
G01X10620000Y2209995D03*
G54D12*
G01X10979979Y2050000D03*
G01X10820000Y2050000D03*
G54D13*
G01X12447470Y6410000D03*
G01X12292530Y6410000D03*
G54D14*
G01X5530000Y6379985D03*
G01X5530000Y6220005D03*
G01X5340000Y6379985D03*
G01X5340000Y6220005D03*
G54D15*
G01X5870000Y7070000D03*
G01X6290000Y7070000D03*
G54D14*
G01X11680000Y4839984D03*
G01X11680000Y4680005D03*
G01X10270000Y4839984D03*
G01X10270000Y4680005D03*
G01X8880000Y4839984D03*
G01X8880000Y4680005D03*
G01X7460000Y4839990D03*
G01X7460000Y4680010D03*
G54D16*
G01X11300000Y2245000D03*
G01X11300000Y2150000D03*
G01X11300000Y2055000D03*
G01X11580000Y2055000D03*
G01X11580000Y2245000D03*
G54D18*
G01X6350000Y6205000D03*
G01X6350000Y6300000D03*
G01X6350000Y6395000D03*
G01X6070000Y6395000D03*
G01X6070000Y6205000D03*
G54D12*
G01X10769985Y3790000D03*
G01X10610005Y3790000D03*
G54D19*
G01X9080015Y3840000D03*
G01X9239995Y3840000D03*
G54D14*
G01X10210000Y2209985D03*
G01X10210000Y2050005D03*
G54D12*
G01X2639131Y2029490D03*
G01X2479152Y2029490D03*
G01X2313636Y2029490D03*
G01X2153657Y2029490D03*
G54D19*
G01X1828233Y2207470D03*
G01X1988213Y2207470D03*
G54D14*
G01X10010000Y2209985D03*
G01X10010000Y2050005D03*
G01X10400000Y1669985D03*
G01X10400000Y1510005D03*
G54D12*
G01X7969985Y2630000D03*
G01X7810005Y2630000D03*
G54D20*
G01X10658298Y1338398D03*
G01X10658298Y1168398D03*
G54D13*
G01X8887470Y3840000D03*
G01X8732530Y3840000D03*
G54D21*
G01X10410000Y2217470D03*
G01X10410000Y2062530D03*
G01X8670000Y2877470D03*
G01X8670000Y2722530D03*
G54D22*
G01X10612530Y3160000D03*
G01X10767470Y3160000D03*
G01X10612530Y3370000D03*
G01X10767470Y3370000D03*
G54D13*
G01X10767470Y3580000D03*
G01X10612530Y3580000D03*
G01X7467470Y4110000D03*
G01X7312530Y4110000D03*
G54D23*
G01X7090000Y4260000D03*
G01X6530001Y4260000D03*
G54D24*
G01X5250000Y3300000D03*
G01X5050000Y3300000D03*
G54D25*
G01X10270000Y2619999D03*
G01X10270000Y3619999D03*
G54D13*
G01X5817470Y3090000D03*
G01X5662530Y3090000D03*
G54D26*
G01X3015798Y5489710D03*
G01X2115800Y5489710D03*
G01X3015798Y4429710D03*
G01X2115800Y4429710D03*
G54D27*
G01X5440000Y4420000D03*
G01X5440000Y4620000D03*
G54D28*
G01X6200000Y3560000D03*
G01X5640001Y3560000D03*
G54D23*
G01X6530364Y3555539D03*
G01X7090363Y3555539D03*
G54D13*
G01X5817470Y2220000D03*
G01X5662530Y2220000D03*
G54D28*
G01X4100000Y3780000D03*
G01X3540001Y3780000D03*
G54D29*
G01X12000000Y2210000D03*
G01X12000000Y2010000D03*
G54D23*
G01X4880001Y3940000D03*
G01X5440000Y3940000D03*
G54D30*
G01X3580000Y2922530D03*
G01X3580000Y3077470D03*
G54D28*
G01X6200000Y4260000D03*
G01X5640001Y4260000D03*
G54D13*
G01X5800000Y2650000D03*
G01X5645060Y2650000D03*
G01X7967475Y2840000D03*
G01X7812535Y2840000D03*
G54D21*
G01X1646383Y2597470D03*
G01X1646383Y2442530D03*
G01X1615000Y2037470D03*
G01X1615000Y1882530D03*
G54D13*
G01X7487476Y2840000D03*
G01X7332536Y2840000D03*
G01X7487476Y2230000D03*
G01X7332536Y2230000D03*
G54D29*
G01X6610002Y6760000D03*
G01X6610002Y6560000D03*
G01X8018001Y6760000D03*
G01X8018001Y6560000D03*
G01X9426001Y6760000D03*
G01X9426001Y6560000D03*
G01X10834001Y6760000D03*
G01X10834001Y6560000D03*
G54D31*
G01X7539341Y6789999D03*
G01X7539341Y6230000D03*
G01X8947341Y6789999D03*
G01X8947341Y6230000D03*
G01X10355340Y6789999D03*
G01X10355340Y6230000D03*
G01X11753340Y6789999D03*
G01X11753340Y6230000D03*
G54D30*
G01X6860000Y4682530D03*
G01X6860000Y4837470D03*
G01X8268000Y4682530D03*
G01X8268000Y4837470D03*
G01X9675999Y4682530D03*
G01X9675999Y4837470D03*
G01X11083999Y4682530D03*
G01X11083999Y4837470D03*
G01X6610002Y6202530D03*
G01X6610002Y6357470D03*
G01X8010000Y6202530D03*
G01X8010000Y6357470D03*
G01X9420000Y6202530D03*
G01X9420000Y6357470D03*
G01X10830000Y6202530D03*
G01X10830000Y6357470D03*
G54D21*
G01X7060000Y4837470D03*
G01X7060000Y4682530D03*
G01X8468000Y4837470D03*
G01X8468000Y4682530D03*
G01X9876000Y4837470D03*
G01X9876000Y4682530D03*
G01X11284000Y4837470D03*
G01X11284000Y4682530D03*
G54D32*
G01X1711383Y3900000D03*
G01X1711383Y4320000D03*
G54D33*
G01X4720000Y3580000D03*
G01X4300000Y3580000D03*
G01X4300000Y3270000D03*
G01X4720000Y3270000D03*
G54D34*
G01X1360000Y2320000D03*
G01X1360000Y1900000D03*
G54D35*
G01X1588398Y5821702D03*
G01X1418398Y5821702D03*
G54D20*
G01X10398298Y1338398D03*
G01X10398298Y1168398D03*
G54D36*
G01X2144820Y2208298D03*
G01X2314819Y2208298D03*
G54D35*
G01X4638398Y7041702D03*
G01X4468398Y7041702D03*
G54D37*
G01X1596500Y6360000D03*
G54D38*
G01X2283501Y6360000D03*
G01X3753501Y6350000D03*
G54D37*
G01X3066501Y6350000D03*
G54D39*
G01X9260000Y1550000D03*
G01X10060000Y1550000D03*
G01X9260000Y1110000D03*
G01X10060000Y1110000D03*
G54D40*
G01X6040000Y5950001D03*
G01X6040000Y4790001D03*
G54D41*
G01X2080000Y3250000D03*
G01X3240000Y3250000D03*
G54D42*
G01X5260000Y7064000D03*
G54D43*
G01X6260000Y7318000D03*
G01X6260000Y6810000D03*
G54D44*
G01X897386Y7061156D03*
G54D45*
G01X227386Y6831156D03*
G01X227386Y7291156D03*
G54D11*
G01X4480000Y4240000D03*
G01X4480000Y4080021D03*
G01X10660000Y1669995D03*
G01X10660000Y1510016D03*
G54D12*
G01X1780005Y5820000D03*
G01X1939985Y5820000D03*
G54D19*
G01X3929995Y4230000D03*
G01X3770015Y4230000D03*
G54D14*
G01X4310000Y4520011D03*
G01X4310000Y4679990D03*
G54D19*
G01X4279989Y4230000D03*
G01X4120010Y4230000D03*
G54D12*
G01X7810011Y3240000D03*
G01X7969990Y3240000D03*
G01X7330011Y3240000D03*
G01X7489990Y3240000D03*
G01X7330011Y2630000D03*
G01X7489990Y2630000D03*
G01X4470005Y6850000D03*
G01X4629985Y6850000D03*
G54D19*
G01X7969995Y2430000D03*
G01X7810015Y2430000D03*
G01X7969995Y2230000D03*
G01X7810015Y2230000D03*
G54D14*
G01X5150000Y6220005D03*
G01X5150000Y6379985D03*
G54D29*
G01X6840001Y6770000D03*
G01X6840001Y6550000D03*
G54D27*
G01X7071298Y6550000D03*
G01X7071298Y6770000D03*
G54D29*
G01X8248001Y6770000D03*
G01X8248001Y6550000D03*
G54D27*
G01X8479297Y6550000D03*
G01X8479297Y6770000D03*
G54D29*
G01X9656001Y6770000D03*
G01X9656001Y6550000D03*
G54D27*
G01X9887297Y6550000D03*
G01X9887297Y6770000D03*
G54D29*
G01X11064000Y6770000D03*
G01X11064000Y6550000D03*
G54D27*
G01X11295297Y6550000D03*
G01X11295297Y6770000D03*
G54D19*
G01X7820000Y4390000D03*
G01X7660021Y4390000D03*
G01X9226665Y4390000D03*
G01X9066685Y4390000D03*
G01X10633330Y4390000D03*
G01X10473350Y4390000D03*
G01X12059994Y4390000D03*
G01X11900015Y4390000D03*
G54D46*
G01X7840001Y4585000D03*
G01X7640001Y4585000D03*
G54D47*
G01X7740001Y4925000D03*
G54D46*
G01X9248001Y4585000D03*
G01X9048000Y4585000D03*
G54D47*
G01X9148001Y4925000D03*
G54D46*
G01X10656000Y4585000D03*
G01X10456000Y4585000D03*
G54D47*
G01X10556000Y4925000D03*
G54D46*
G01X12064000Y4585000D03*
G01X11864000Y4585000D03*
G54D47*
G01X11964000Y4925000D03*
G54D14*
G01X7260000Y4680005D03*
G01X7260000Y4839984D03*
G01X8670000Y4680005D03*
G01X8670000Y4839984D03*
G01X10070000Y4680005D03*
G01X10070000Y4839984D03*
G01X11480000Y4680005D03*
G01X11480000Y4839984D03*
G54D19*
G01X11109995Y3160000D03*
G01X10950015Y3160000D03*
G01X11110000Y3370000D03*
G01X10950021Y3370000D03*
G01X11109995Y3580000D03*
G01X10950015Y3580000D03*
G54D12*
G01X10950005Y3790000D03*
G01X11109985Y3790000D03*
G54D48*
G01X6580000Y2660000D03*
G54D49*
G01X5580000Y2406000D03*
G01X5580000Y2914000D03*
G54D50*
G01X3580000Y4534901D03*
G01X3920000Y4534901D03*
G01X3749999Y4534901D03*
G01X3410000Y4534901D03*
G01X4089999Y4534901D03*
G54D51*
G01X3749999Y5440001D03*
G54D50*
G01X4680000Y4534901D03*
G01X5020000Y4534901D03*
G01X4849999Y4534901D03*
G01X4510000Y4534901D03*
G01X5190000Y4534901D03*
G54D51*
G01X4849999Y5440001D03*
G54D52*
G01X9820000Y2885000D03*
G01X9820000Y2934999D03*
G01X9820000Y2985000D03*
G01X9820000Y3035000D03*
G01X9820000Y3085000D03*
G01X9820000Y3135000D03*
G01X9820000Y3184999D03*
G01X9820000Y3235000D03*
G01X9820000Y3285000D03*
G01X9820000Y3335000D03*
G01X9820000Y3385000D03*
G01X9820000Y3434999D03*
G54D53*
G01X9665000Y3589999D03*
G01X9615000Y3589999D03*
G01X9565000Y3589999D03*
G01X9515000Y3589999D03*
G01X9465000Y3589999D03*
G01X9415000Y3589999D03*
G01X9365000Y3589999D03*
G01X9315000Y3589999D03*
G01X9265000Y3589999D03*
G01X9215000Y3589999D03*
G01X9165000Y3589999D03*
G01X9115000Y3589999D03*
G54D52*
G01X8960000Y3434999D03*
G01X8960000Y3385000D03*
G01X8960000Y3335000D03*
G01X8960000Y3285000D03*
G01X8960000Y3235000D03*
G01X8960000Y3184999D03*
G01X8960000Y3135000D03*
G01X8960000Y3085000D03*
G01X8960000Y3035000D03*
G01X8960000Y2985000D03*
G01X8960000Y2934999D03*
G01X8960000Y2885000D03*
G54D53*
G01X9115000Y2730000D03*
G01X9165000Y2730000D03*
G01X9215000Y2730000D03*
G01X9265000Y2730000D03*
G01X9315000Y2730000D03*
G01X9365000Y2730000D03*
G01X9415000Y2730000D03*
G01X9465000Y2730000D03*
G01X9515000Y2730000D03*
G01X9565000Y2730000D03*
G01X9615000Y2730000D03*
G01X9665000Y2730000D03*
G54D54*
G01X7360000Y3910000D03*
G54D55*
G01X7360000Y3680000D03*
G54D54*
G01X7360000Y3450000D03*
G54D56*
G01X7910000Y3680000D03*
G54D57*
G01X6850005Y5750107D03*
G01X6850005Y5700069D03*
G01X6850005Y5650031D03*
G01X6850005Y5599993D03*
G01X6850005Y5549955D03*
G01X6850005Y5499917D03*
G01X6850005Y5449879D03*
G54D58*
G01X6949895Y5349980D03*
G01X6999933Y5349980D03*
G01X7049971Y5349980D03*
G01X7100009Y5349980D03*
G01X7150047Y5349980D03*
G01X7200085Y5349980D03*
G01X7250123Y5349980D03*
G54D59*
G01X7350005Y5449879D03*
G01X7350005Y5499917D03*
G01X7350005Y5549955D03*
G01X7350005Y5599993D03*
G01X7350005Y5650031D03*
G01X7350005Y5700069D03*
G01X7350005Y5750107D03*
G54D58*
G01X7250123Y5849979D03*
G01X7200085Y5849979D03*
G01X7150047Y5849979D03*
G01X7100009Y5849979D03*
G01X7049971Y5849979D03*
G01X6999933Y5849979D03*
G01X6949895Y5849979D03*
G54D60*
G01X7100000Y5600000D03*
G54D57*
G01X8258005Y5750107D03*
G01X8258005Y5700069D03*
G01X8258005Y5650031D03*
G01X8258005Y5599993D03*
G01X8258005Y5549955D03*
G01X8258005Y5499917D03*
G01X8258005Y5449879D03*
G54D58*
G01X8357895Y5349980D03*
G01X8407933Y5349980D03*
G01X8457971Y5349980D03*
G01X8508009Y5349980D03*
G01X8558047Y5349980D03*
G01X8608085Y5349980D03*
G01X8658123Y5349980D03*
G54D59*
G01X8758005Y5449879D03*
G01X8758005Y5499917D03*
G01X8758005Y5549955D03*
G01X8758005Y5599993D03*
G01X8758005Y5650031D03*
G01X8758005Y5700069D03*
G01X8758005Y5750107D03*
G54D58*
G01X8658123Y5849979D03*
G01X8608085Y5849979D03*
G01X8558047Y5849979D03*
G01X8508009Y5849979D03*
G01X8457971Y5849979D03*
G01X8407933Y5849979D03*
G01X8357895Y5849979D03*
G54D60*
G01X8508000Y5600000D03*
G54D57*
G01X9666004Y5750107D03*
G01X9666004Y5700069D03*
G01X9666004Y5650031D03*
G01X9666004Y5599993D03*
G01X9666004Y5549955D03*
G01X9666004Y5499917D03*
G01X9666004Y5449879D03*
G54D58*
G01X9765895Y5349980D03*
G01X9815933Y5349980D03*
G01X9865971Y5349980D03*
G01X9916009Y5349980D03*
G01X9966047Y5349980D03*
G01X10016085Y5349980D03*
G01X10066123Y5349980D03*
G54D59*
G01X10166005Y5449879D03*
G01X10166005Y5499917D03*
G01X10166005Y5549955D03*
G01X10166005Y5599993D03*
G01X10166005Y5650031D03*
G01X10166005Y5700069D03*
G01X10166005Y5750107D03*
G54D58*
G01X10066123Y5849979D03*
G01X10016085Y5849979D03*
G01X9966047Y5849979D03*
G01X9916009Y5849979D03*
G01X9865971Y5849979D03*
G01X9815933Y5849979D03*
G01X9765895Y5849979D03*
G54D60*
G01X9916000Y5600000D03*
G54D57*
G01X11074004Y5750107D03*
G01X11074004Y5700069D03*
G01X11074004Y5650031D03*
G01X11074004Y5599993D03*
G01X11074004Y5549955D03*
G01X11074004Y5499917D03*
G01X11074004Y5449879D03*
G54D58*
G01X11173895Y5349980D03*
G01X11223933Y5349980D03*
G01X11273971Y5349980D03*
G01X11324009Y5349980D03*
G01X11374047Y5349980D03*
G01X11424085Y5349980D03*
G01X11474123Y5349980D03*
G54D59*
G01X11574004Y5449879D03*
G01X11574004Y5499917D03*
G01X11574004Y5549955D03*
G01X11574004Y5599993D03*
G01X11574004Y5650031D03*
G01X11574004Y5700069D03*
G01X11574004Y5750107D03*
G54D58*
G01X11474123Y5849979D03*
G01X11424085Y5849979D03*
G01X11374047Y5849979D03*
G01X11324009Y5849979D03*
G01X11273971Y5849979D03*
G01X11223933Y5849979D03*
G01X11173895Y5849979D03*
G54D60*
G01X11324000Y5600000D03*
G54D35*
G01X778397Y7500851D03*
G01X608398Y7500851D03*
G54D32*
G01X4180000Y6550000D03*
G01X4180000Y6130000D03*
G54D14*
G01X4450000Y6220010D03*
G01X4450000Y6379990D03*
G54D19*
G01X1139995Y7493155D03*
G01X980015Y7493155D03*
G54D14*
G01X11770000Y2060005D03*
G01X11770000Y2219985D03*
G54D21*
G01X4670000Y4240000D03*
G01X4670000Y4085060D03*
G54D34*
G01X1510000Y5160000D03*
G01X1510000Y5580000D03*
G01X1800000Y5160000D03*
G01X1800000Y5580000D03*
G54D21*
G01X9410000Y2207470D03*
G01X9410000Y2052530D03*
G01X8800000Y2207470D03*
G01X8800000Y2052530D03*
G01X8200000Y2207470D03*
G01X8200000Y2052530D03*
G54D19*
G01X7969995Y3040000D03*
G01X7810015Y3040000D03*
G01X7490000Y3040000D03*
G01X7330021Y3040000D03*
G01X7490000Y2430000D03*
G01X7330021Y2430000D03*
G54D11*
G01X9810000Y2209995D03*
G01X9810000Y2050015D03*
G01X9210000Y2209995D03*
G01X9210000Y2050015D03*
G01X8600000Y2209995D03*
G01X8600000Y2050016D03*
G54D14*
G01X9610000Y2050005D03*
G01X9610000Y2209985D03*
G01X9000000Y2050005D03*
G01X9000000Y2209985D03*
G01X8400000Y2050006D03*
G01X8400000Y2209985D03*
G54D13*
G01X4037470Y2990000D03*
G01X3882530Y2990000D03*
G54D21*
G01X5190000Y2357470D03*
G01X5190000Y2202530D03*
G01X3580000Y2734940D03*
G01X3580000Y2580000D03*
G54D30*
G01X3580000Y2202530D03*
G01X3580000Y2357470D03*
G54D61*
G01X4910000Y6200000D03*
G01X4910000Y6400000D03*
G01X4670000Y6300000D03*
G54D11*
G01X5190000Y2550010D03*
G01X5190000Y2709990D03*
G54D14*
G01X5190000Y3059984D03*
G01X5190000Y2900005D03*
G54D11*
G01X5910000Y6220021D03*
G01X5910000Y6380000D03*
G54D14*
G01X5720000Y6379990D03*
G01X5720000Y6220010D03*
G54D62*
G01X4862100Y3011000D03*
G01X4862100Y2884000D03*
G01X4862100Y2757000D03*
G01X4862100Y2630000D03*
G01X4862100Y2503000D03*
G01X4862100Y2376000D03*
G01X4862100Y2249000D03*
G01X4277900Y2249000D03*
G01X4277900Y2376000D03*
G01X4277900Y2503000D03*
G01X4277900Y2630000D03*
G01X4277900Y2757000D03*
G01X4277900Y2884000D03*
G01X4277900Y3011000D03*
G01X4277900Y2119000D03*
G01X4862100Y2126000D03*
G54D63*
G01X3900000Y2189981D03*
G54D64*
G01X3900000Y2750020D03*
G54D19*
G01X1828233Y2030000D03*
G01X1988213Y2030000D03*
G01X2479223Y2207470D03*
G01X2639202Y2207470D03*
G04 Pad End*

M02*

