G04 Layer: BottomSolderMaskLayer*
G04 EasyEDA Pro v3.2.135, 2026-06-05 17:30:28*
G04 Gerber Generator version 0.3*
G04 Scale: 100 percent, Rotated: No, Reflected: No*
G04 Dimensions in millimeters*
G04 Leading zeros omitted, absolute positions, 4 integers and 5 decimals*
G04 Generated by one-click*
G04 Object Configs: Pad,Via,Track,Text,Image,Dimension,BoardOutline,BoardCutout,CopperFilled,SolidRegion,FPCStiffener,Line,PlaneZone,ComponentProperty,ComponentSilkscreen,TearDrop*
G04 Layer Configs: 1,2,3,4,5,6,7,8,9,10,11,13,14,71,72,73,74,56*
G04 Copper Areas: 0*
%FSLAX45Y45*%
%MOMM*%
%AMRoundRect*1,1,$1,$2,$3*1,1,$1,$4,$5*1,1,$1,0-$2,0-$3*1,1,$1,0-$4,0-$5*20,1,$1,$2,$3,$4,$5,0*20,1,$1,$4,$5,0-$2,0-$3,0*20,1,$1,0-$2,0-$3,0-$4,0-$5,0*20,1,$1,0-$4,0-$5,$2,$3,0*4,1,4,$2,$3,$4,$5,0-$2,0-$3,0-$4,0-$5,$2,$3,0*%
%ADD10C,7.102*%
%ADD11RoundRect,0.102X-1.0X-0.8X-1.0X0.8*%
%ADD12O,2.102X1.702*%
%ADD13C,2.402*%
%ADD14O,1.602X2.102*%
%ADD15RoundRect,0.1057X-0.75X1.0X0.75X1.0*%
%ADD16RoundRect,0.102X-0.75X1.0X0.75X1.0*%
%ADD17C,1.902*%
%ADD18RoundRect,0.102X-0.6X-0.6X-0.6X0.6*%
%ADD19C,1.302*%
%ADD20C,3.002*%
%ADD21O,3.70199X1.702*%
%ADD22O,1.702X3.70199*%
%ADD23C,2.302*%
%ADD24O,3.90199X1.502*%
%ADD25O,1.502X2.902*%
%ADD26C,3.60199*%
%ADD27C,1.702*%
%ADD28O,3.30199X1.902*%
%ADD29RoundRect,0.102X-0.75X0.75X0.75X0.75*%
%ADD30C,1.602*%
%ADD31RoundRect,0.102X-1.0X-0.75X-1.0X0.75*%
%ADD32O,2.102X1.602*%
%ADD33RoundRect,0.102X-0.85X0.85X0.85X0.85*%
%ADD34C,1.802*%
%ADD35RoundRect,0.10003X-0.762X0.762X0.762X0.762*%
%ADD36RoundRect,0.102X-0.762X-0.762X-0.762X0.762*%
%ADD37C,1.626*%
%ADD38RoundRect,0.102X-0.762X0.762X0.762X0.762*%
%ADD39C,2.702*%
%ADD40RoundRect,0.102X-0.4064X0.381X0.4064X0.381*%
%ADD41RoundRect,0.102X-0.4826X0.508X0.4826X0.508*%
%ADD42RoundRect,0.102X-0.508X-0.4826X-0.508X0.4826*%
%ADD43RoundRect,0.102X-0.8X-0.35X-0.8X0.35*%
%ADD44RoundRect,0.102X-1.1X-0.6X-1.1X0.6*%
%ADD45RoundRect,0.102X-0.75X-0.8X-0.75X0.8*%
%ADD46RoundRect,0.102X-0.9X-0.6X-0.9X0.6*%
G75*


G04 Pad Start*
G54D10*
G01X600000Y12000000D03*
G01X9600000Y12000000D03*
G01X9600000Y600000D03*
G01X600000Y600000D03*
G54D11*
G01X2024700Y1488700D03*
G54D12*
G01X2024700Y1234700D03*
G54D13*
G01X1000000Y9610358D03*
G01X1000000Y9102358D03*
G01X1000000Y10778273D03*
G01X1000000Y10270273D03*
G54D14*
G01X4997096Y7663150D03*
G01X4743096Y7663150D03*
G54D16*
G01X4489096Y7663150D03*
G54D17*
G01X749710Y7924243D03*
G01X749710Y8178370D03*
G01X749710Y8432243D03*
G54D18*
G01X6176100Y1412200D03*
G54D19*
G01X6176100Y1158200D03*
G54D20*
G01X3141048Y1063651D03*
G01X4101046Y1063651D03*
G01X3621047Y1063651D03*
G54D21*
G01X5079263Y774052D03*
G01X5079263Y1394050D03*
G54D22*
G01X5549275Y1094051D03*
G54D14*
G01X6059361Y7663150D03*
G01X5805361Y7663150D03*
G54D16*
G01X5551361Y7663150D03*
G54D14*
G01X6059361Y8361859D03*
G01X5805361Y8361859D03*
G54D16*
G01X5551361Y8361859D03*
G54D14*
G01X7121626Y7663150D03*
G01X6867626Y7663150D03*
G54D16*
G01X6613626Y7663150D03*
G54D14*
G01X7121626Y8361859D03*
G01X6867626Y8361859D03*
G54D16*
G01X6613626Y8361859D03*
G54D14*
G01X4997096Y8361859D03*
G01X4743096Y8361859D03*
G54D16*
G01X4489096Y8361859D03*
G54D23*
G01X2557912Y11399383D03*
G54D24*
G01X2557912Y11999382D03*
G54D25*
G01X3032918Y12049394D03*
G01X3032918Y11579393D03*
G01X2082932Y12049394D03*
G01X2082932Y11579393D03*
G54D26*
G01X1049721Y6265533D03*
G01X1049721Y7469518D03*
G54D27*
G01X1320713Y6742520D03*
G01X1320713Y6992532D03*
G01X1520713Y6992532D03*
G01X1520713Y6742520D03*
G01X1359512Y5585491D03*
G01X1359512Y5335504D03*
G01X1359512Y5135505D03*
G01X1359512Y4885493D03*
G54D28*
G01X1088520Y5892501D03*
G01X1088520Y4578508D03*
G54D29*
G01X7535795Y4522427D03*
G54D30*
G01X7789795Y4522427D03*
G01X8043795Y4522427D03*
G01X8297795Y4522427D03*
G01X8551795Y4522427D03*
G01X8805795Y4522427D03*
G01X9059795Y4522427D03*
G01X9313795Y4522427D03*
G54D29*
G01X7535795Y3242427D03*
G54D30*
G01X7789795Y3242427D03*
G01X8043795Y3242427D03*
G01X8297795Y3242427D03*
G01X8551795Y3242427D03*
G01X8805795Y3242427D03*
G01X9059795Y3242427D03*
G01X9313795Y3242427D03*
G54D31*
G01X9812527Y3494682D03*
G54D32*
G01X9812527Y3748682D03*
G01X9812527Y4002682D03*
G01X9812527Y4256682D03*
G54D29*
G01X7535795Y6198627D03*
G54D30*
G01X7789795Y6198627D03*
G01X8043795Y6198627D03*
G01X8297795Y6198627D03*
G01X8551795Y6198627D03*
G01X8805795Y6198627D03*
G01X9059795Y6198627D03*
G01X9313795Y6198627D03*
G54D29*
G01X7535795Y4918627D03*
G54D30*
G01X7789795Y4918627D03*
G01X8043795Y4918627D03*
G01X8297795Y4918627D03*
G01X8551795Y4918627D03*
G01X8805795Y4918627D03*
G01X9059795Y4918627D03*
G01X9313795Y4918627D03*
G54D31*
G01X9812527Y5196404D03*
G54D32*
G01X9812527Y5450404D03*
G01X9812527Y5704404D03*
G01X9812527Y5958404D03*
G54D29*
G01X7535795Y7890327D03*
G54D30*
G01X7789795Y7890327D03*
G01X8043795Y7890327D03*
G01X8297795Y7890327D03*
G01X8551795Y7890327D03*
G01X8805795Y7890327D03*
G01X9059795Y7890327D03*
G01X9313795Y7890327D03*
G54D29*
G01X7535795Y6610327D03*
G54D30*
G01X7789795Y6610327D03*
G01X8043795Y6610327D03*
G01X8297795Y6610327D03*
G01X8551795Y6610327D03*
G01X8805795Y6610327D03*
G01X9059795Y6610327D03*
G01X9313795Y6610327D03*
G54D31*
G01X9950229Y6898126D03*
G54D32*
G01X9950229Y7152126D03*
G01X9950229Y7406126D03*
G01X9950229Y7660126D03*
G54D33*
G01X3163500Y2891700D03*
G54D34*
G01X3417500Y2891700D03*
G01X3671500Y2891700D03*
G01X3925500Y2891700D03*
G54D29*
G01X7535795Y2846227D03*
G54D30*
G01X7789795Y2846227D03*
G01X8043795Y2846227D03*
G01X8297795Y2846227D03*
G01X8551795Y2846227D03*
G01X8805795Y2846227D03*
G01X9059795Y2846227D03*
G01X9313795Y2846227D03*
G54D29*
G01X7535795Y1550727D03*
G54D30*
G01X7789795Y1550727D03*
G01X8043795Y1550727D03*
G01X8297795Y1550727D03*
G01X8551795Y1550727D03*
G01X8805795Y1550727D03*
G01X9059795Y1550727D03*
G01X9313795Y1550727D03*
G54D31*
G01X9812527Y1792960D03*
G54D32*
G01X9812527Y2046960D03*
G01X9812527Y2300960D03*
G01X9812527Y2554960D03*
G54D35*
G01X3771506Y12204300D03*
G01X3521494Y12204300D03*
G01X4638506Y12204300D03*
G01X4388494Y12204300D03*
G54D36*
G01X4508400Y10513700D03*
G54D37*
G01X4508400Y10259700D03*
G01X4508400Y9751700D03*
G01X4508400Y9243700D03*
G54D36*
G01X3748500Y10513700D03*
G54D37*
G01X3748500Y10259700D03*
G01X3748500Y9751700D03*
G01X3748500Y9243700D03*
G54D38*
G01X5189200Y10449900D03*
G54D37*
G01X5443200Y10449900D03*
G01X5951200Y10449900D03*
G01X6459200Y10449900D03*
G54D39*
G01X9710400Y10497900D03*
G01X9710400Y9989900D03*
G01X9710400Y9481900D03*
G01X9710400Y8973900D03*
G54D40*
G01X2268900Y3901063D03*
G01X2112266Y3900532D03*
G54D41*
G01X2270006Y3716459D03*
G01X2111256Y3716459D03*
G54D42*
G01X2120159Y3360394D03*
G01X2120159Y3519144D03*
G01X2117941Y3193106D03*
G01X2117941Y3034356D03*
G54D41*
G01X2208806Y2834159D03*
G01X2050056Y2834159D03*
G54D43*
G01X1651996Y3718493D03*
G01X1651996Y3608511D03*
G01X1651996Y3058500D03*
G01X1651996Y3498504D03*
G01X1651996Y3278489D03*
G01X1651996Y2838510D03*
G01X1651996Y3388496D03*
G01X1651996Y3168507D03*
G54D44*
G01X592004Y4268479D03*
G01X592004Y2718521D03*
G54D45*
G01X1546993Y4203506D03*
G54D46*
G01X1521999Y2718521D03*
G54D43*
G01X1651996Y2948492D03*
G54D32*
G01X1545300Y8434400D03*
G01X1545300Y8180400D03*
G54D31*
G01X1545300Y7926400D03*
G04 Pad End*

M02*

