G04 Layer: BottomLayer*
G04 EasyEDA Pro v2.2.32.3, 2025-08-06 10:23:17*
G04 Gerber Generator version 0.3*
G04 Scale: 100 percent, Rotated: No, Reflected: No*
G04 Dimensions in millimeters*
G04 Leading zeros omitted, absolute positions, 4 integers and 2 decimals*
%FSLAX42Y42*%
%MOMM*%
%ADD10C,0.2*%
%ADD11C,3.5*%
%ADD12C,1.6*%
%ADD13C,1.4*%
%ADD14R,1.4X1.4*%
%ADD15C,1.5027*%
%ADD16C,1.5*%
%ADD17R,1.5X1.5*%
%ADD18O,1.6X1.6*%
%ADD19O,1.2X2.2*%
%ADD20O,1.2X2.6*%
%ADD21O,1.5X2.0*%
%ADD22R,1.5X2.0*%
%ADD23R,1.6X2.0*%
%ADD24O,1.6X2.0*%
%ADD25C,0.6*%
%ADD26C,2.0*%
G75*


G04 Copper Start*
G36*
G01X9788Y-464D02*
G01X212Y-464D01*
G03X361Y361I-212J464D01*
G03X-464Y212I-361J-361D01*
G01X-464Y2288D01*
G03X361Y2139I464J212D01*
G03X212Y2964I-361J361D01*
G01X9788Y2964D01*
G03X9639Y2139I212J-464D01*
G03X10464Y2288I361J361D01*
G01X10464Y212D01*
G03X9639Y361I-464J-212D01*
G03X9788Y-464I361J-361D01*
G37*
%LPC*%
G36*
G01X1249Y587D02*
G03X1308Y803I0J116D01*
G03X1249Y1019I-58J100D01*
G03X1191Y803I0J-116D01*
G03X1249Y587I58J-100D01*
G37*
G36*
G01X1633Y2390D02*
G03X1418Y2448I-116J0D01*
G03X1202Y2390I-100J-58D01*
G03X1418Y2331I116J0D01*
G03X1633Y2390I100J58D01*
G37*
G36*
G01X1383Y903D02*
G03X1615Y903I116J0D01*
G03X1383Y903I-116J0D01*
G37*
G36*
G01X1883Y2390D02*
G03X1652Y2390I-116J0D01*
G03X1883Y2390I116J0D01*
G37*
G36*
G01X3402Y636D02*
G03X3191Y636I-106J0D01*
G03X3402Y636I106J0D01*
G37*
G36*
G01X3402Y382D02*
G03X3191Y382I-106J0D01*
G03X3402Y382I106J0D01*
G37*
G36*
G01X3421Y2645D02*
G03X3210Y2645I-106J0D01*
G03X3421Y2645I106J0D01*
G37*
G36*
G01X3421Y2391D02*
G03X3210Y2391I-106J0D01*
G03X3421Y2391I106J0D01*
G37*
G36*
G01X3656Y636D02*
G03X3445Y636I-106J0D01*
G03X3656Y636I106J0D01*
G37*
G36*
G01X3656Y382D02*
G03X3445Y382I-106J0D01*
G03X3656Y382I106J0D01*
G37*
G36*
G01X3675Y2645D02*
G03X3464Y2645I-106J0D01*
G03X3675Y2645I106J0D01*
G37*
G36*
G01X3675Y2391D02*
G03X3464Y2391I-106J0D01*
G03X3675Y2391I106J0D01*
G37*
G36*
G01X3989Y742D02*
G03X3953Y706I0J-36D01*
G01X3953Y566D01*
G03X3989Y531I36J0D01*
G01X4129Y531D01*
G03X4164Y566I0J36D01*
G01X4164Y706D01*
G03X4129Y742I-36J0D01*
G01X3989Y742D01*
G37*
G36*
G01X4164Y382D02*
G03X3953Y382I-106J0D01*
G03X4164Y382I106J0D01*
G37*
G36*
G01X4007Y2751D02*
G03X3972Y2715I0J-36D01*
G01X3972Y2575D01*
G03X4007Y2539I36J0D01*
G01X4147Y2539D01*
G03X4183Y2575I0J36D01*
G01X4183Y2715D01*
G03X4147Y2751I-36J0D01*
G01X4007Y2751D01*
G37*
G36*
G01X4183Y2391D02*
G03X3972Y2391I-106J0D01*
G03X4183Y2391I106J0D01*
G37*
G36*
G01X5503Y48D02*
G03X5725Y48I111J0D01*
G03X5503Y48I-111J0D01*
G37*
G36*
G01X5729Y2734D02*
G01X5729Y2784D01*
G03X5507Y2784I-111J0D01*
G01X5507Y2734D01*
G03X5729Y2734I111J0D01*
G37*
G36*
G01X6233Y-31D02*
G03X6258Y48I-111J79D01*
G01X6258Y2727D01*
G03X6237Y2838I-132J32D01*
G01X6237Y2859D01*
G03X6201Y2895I-36J0D01*
G01X6051Y2895D01*
G03X6015Y2859I0J-36D01*
G01X6015Y2839D01*
G03X5986Y2756I107J-84D01*
G01X5986Y48D01*
G03X6011Y-31I136J0D01*
G03X6043Y-63I36J4D01*
G03X6201Y-63I79J111D01*
G03X6233Y-31I-4J36D01*
G37*
G36*
G01X8920Y-273D02*
G03X8704Y-215I-116J-0D01*
G03X8488Y-273I-100J-58D01*
G03X8704Y-332I116J0D01*
G03X8920Y-273I100J58D01*
G37*
G36*
G01X8769Y2739D02*
G01X8769Y2779D01*
G03X8537Y2779I-116J0D01*
G01X8537Y2739D01*
G03X8769Y2739I116J0D01*
G37*
%LPD*%
G54D10*
G01X9788Y-464D02*
G01X212Y-464D01*
G03X361Y361I-212J464D01*
G03X-464Y212I-361J-361D01*
G01X-464Y2288D01*
G03X361Y2139I464J212D01*
G03X212Y2964I-361J361D01*
G01X9788Y2964D01*
G03X9639Y2139I212J-464D01*
G03X10464Y2288I361J361D01*
G01X10464Y212D01*
G03X9639Y361I-464J-212D01*
G03X9788Y-464I361J-361D01*
G01X1249Y587D02*
G03X1308Y803I0J116D01*
G03X1249Y1019I-58J100D01*
G03X1191Y803I0J-116D01*
G03X1249Y587I58J-100D01*
G01X1633Y2390D02*
G03X1418Y2448I-116J0D01*
G03X1202Y2390I-100J-58D01*
G03X1418Y2331I116J0D01*
G03X1633Y2390I100J58D01*
G01X1383Y903D02*
G03X1615Y903I116J0D01*
G03X1383Y903I-116J0D01*
G01X1883Y2390D02*
G03X1652Y2390I-116J0D01*
G03X1883Y2390I116J0D01*
G01X3402Y636D02*
G03X3191Y636I-106J0D01*
G03X3402Y636I106J0D01*
G01X3402Y382D02*
G03X3191Y382I-106J0D01*
G03X3402Y382I106J0D01*
G01X3421Y2645D02*
G03X3210Y2645I-106J0D01*
G03X3421Y2645I106J0D01*
G01X3421Y2391D02*
G03X3210Y2391I-106J0D01*
G03X3421Y2391I106J0D01*
G01X3656Y636D02*
G03X3445Y636I-106J0D01*
G03X3656Y636I106J0D01*
G01X3656Y382D02*
G03X3445Y382I-106J0D01*
G03X3656Y382I106J0D01*
G01X3675Y2645D02*
G03X3464Y2645I-106J0D01*
G03X3675Y2645I106J0D01*
G01X3675Y2391D02*
G03X3464Y2391I-106J0D01*
G03X3675Y2391I106J0D01*
G01X3989Y742D02*
G03X3953Y706I0J-36D01*
G01X3953Y566D01*
G03X3989Y531I36J0D01*
G01X4129Y531D01*
G03X4164Y566I0J36D01*
G01X4164Y706D01*
G03X4129Y742I-36J0D01*
G01X3989Y742D01*
G01X4164Y382D02*
G03X3953Y382I-106J0D01*
G03X4164Y382I106J0D01*
G01X4007Y2751D02*
G03X3972Y2715I0J-36D01*
G01X3972Y2575D01*
G03X4007Y2539I36J0D01*
G01X4147Y2539D01*
G03X4183Y2575I0J36D01*
G01X4183Y2715D01*
G03X4147Y2751I-36J0D01*
G01X4007Y2751D01*
G01X4183Y2391D02*
G03X3972Y2391I-106J0D01*
G03X4183Y2391I106J0D01*
G01X5503Y48D02*
G03X5725Y48I111J0D01*
G03X5503Y48I-111J0D01*
G01X5729Y2734D02*
G01X5729Y2784D01*
G03X5507Y2784I-111J0D01*
G01X5507Y2734D01*
G03X5729Y2734I111J0D01*
G01X6233Y-31D02*
G03X6258Y48I-111J79D01*
G01X6258Y2727D01*
G03X6237Y2838I-132J32D01*
G01X6237Y2859D01*
G03X6201Y2895I-36J0D01*
G01X6051Y2895D01*
G03X6015Y2859I0J-36D01*
G01X6015Y2839D01*
G03X5986Y2756I107J-84D01*
G01X5986Y48D01*
G03X6011Y-31I136J0D01*
G03X6043Y-63I36J4D01*
G03X6201Y-63I79J111D01*
G03X6233Y-31I-4J36D01*
G01X8920Y-273D02*
G03X8704Y-215I-116J-0D01*
G03X8488Y-273I-100J-58D01*
G03X8704Y-332I116J0D01*
G03X8920Y-273I100J58D01*
G01X8769Y2739D02*
G01X8769Y2779D01*
G03X8537Y2779I-116J0D01*
G01X8537Y2739D01*
G03X8769Y2739I116J0D01*
G04 Copper End*

G04 Pad Start*
G54D11*
G01X1976Y432D03*
G01X772Y432D03*
G54D12*
G01X1499Y703D03*
G01X1249Y703D03*
G01X1249Y903D03*
G01X1499Y903D03*
G54D13*
G01X3315Y2645D03*
G01X3823Y2645D03*
G01X3823Y2391D03*
G01X3569Y2645D03*
G01X3315Y2391D03*
G01X3569Y2391D03*
G54D14*
G01X4077Y2645D03*
G54D13*
G01X4077Y2391D03*
G54D16*
G01X5614Y48D03*
G01X5868Y48D03*
G54D17*
G01X6122Y48D03*
G54D13*
G01X3297Y636D03*
G01X3805Y636D03*
G01X3805Y382D03*
G01X3551Y636D03*
G01X3297Y382D03*
G01X3551Y382D03*
G54D14*
G01X4059Y636D03*
G54D13*
G01X4059Y382D03*
G54D18*
G01X8604Y-273D03*
G01X9004Y-273D03*
G01X8804Y-273D03*
G54D19*
G01X9219Y-273D03*
G01X8389Y-273D03*
G54D12*
G01X1768Y2390D03*
G01X1518Y2390D03*
G01X1318Y2390D03*
G01X1068Y2390D03*
G54D20*
G01X763Y2630D03*
G01X2073Y2630D03*
G54D21*
G01X5618Y2759D03*
G01X5872Y2759D03*
G54D22*
G01X6126Y2759D03*
G54D23*
G01X8907Y2759D03*
G54D24*
G01X8653Y2759D03*
G04 Pad End*

G04 Via Start*
G54D25*
G01X8018Y-59D03*
G01X8018Y-250D03*
G01X8018Y-345D03*
G01X8018Y-155D03*
G01X7702Y-155D03*
G01X7702Y-250D03*
G01X7702Y-345D03*
G01X7702Y-59D03*
G01X7850Y-345D03*
G01X7850Y-155D03*
G01X7850Y-59D03*
G01X7850Y-250D03*
G01X7528Y-71D03*
G01X7528Y-261D03*
G01X7528Y-356D03*
G01X7528Y-166D03*
G01X7212Y-166D03*
G01X7212Y-261D03*
G01X7212Y-356D03*
G01X7212Y-71D03*
G01X7360Y-356D03*
G01X7360Y-166D03*
G01X7360Y-71D03*
G01X7360Y-261D03*
G01X6996Y-78D03*
G01X6996Y-269D03*
G01X6996Y-364D03*
G01X6996Y-173D03*
G01X6680Y-173D03*
G01X6680Y-269D03*
G01X6680Y-364D03*
G01X6680Y-78D03*
G01X6828Y-364D03*
G01X6828Y-173D03*
G01X6828Y-78D03*
G01X6828Y-269D03*
G01X6000Y-110D03*
G01X6000Y-301D03*
G01X6000Y-396D03*
G01X6000Y-206D03*
G01X5684Y-206D03*
G01X5684Y-301D03*
G01X5684Y-396D03*
G01X5684Y-110D03*
G01X5832Y-396D03*
G01X5832Y-206D03*
G01X5832Y-110D03*
G01X5832Y-301D03*
G01X5427Y606D03*
G01X5427Y416D03*
G01X5427Y320D03*
G01X5427Y511D03*
G01X5111Y511D03*
G01X5111Y416D03*
G01X5111Y320D03*
G01X5111Y606D03*
G01X5259Y320D03*
G01X5259Y511D03*
G01X5259Y606D03*
G01X5259Y416D03*
G01X6702Y589D03*
G01X6702Y398D03*
G01X6702Y303D03*
G01X6702Y494D03*
G01X6386Y494D03*
G01X6386Y398D03*
G01X6386Y303D03*
G01X6386Y589D03*
G01X6534Y303D03*
G01X6534Y494D03*
G01X6534Y589D03*
G01X6534Y398D03*
G01X5111Y-54D03*
G01X5111Y-245D03*
G01X5111Y-340D03*
G01X5111Y-149D03*
G01X4795Y-149D03*
G01X4795Y-245D03*
G01X4795Y-340D03*
G01X4795Y-54D03*
G01X4943Y-340D03*
G01X4943Y-149D03*
G01X4943Y-54D03*
G01X4943Y-245D03*
G01X5086Y2815D03*
G01X5086Y2624D03*
G01X5086Y2529D03*
G01X5086Y2719D03*
G01X4769Y2719D03*
G01X4769Y2624D03*
G01X4769Y2529D03*
G01X4769Y2815D03*
G01X4917Y2529D03*
G01X4917Y2719D03*
G01X4917Y2815D03*
G01X4917Y2624D03*
G01X7099Y2776D03*
G01X7099Y2586D03*
G01X7099Y2491D03*
G01X7099Y2681D03*
G01X6783Y2681D03*
G01X6783Y2586D03*
G01X6783Y2491D03*
G01X6783Y2776D03*
G01X6931Y2491D03*
G01X6931Y2681D03*
G01X6931Y2776D03*
G01X6931Y2586D03*
G01X7987Y2769D03*
G01X7987Y2578D03*
G01X7987Y2483D03*
G01X7987Y2673D03*
G01X7671Y2673D03*
G01X7671Y2578D03*
G01X7671Y2483D03*
G01X7671Y2769D03*
G01X7819Y2483D03*
G01X7819Y2673D03*
G01X7819Y2769D03*
G01X7819Y2578D03*
G01X9273Y2259D03*
G01X9273Y2069D03*
G01X9273Y1974D03*
G01X9273Y2164D03*
G01X8957Y2164D03*
G01X8957Y2069D03*
G01X8957Y1974D03*
G01X8957Y2259D03*
G01X9105Y1974D03*
G01X9105Y2164D03*
G01X9105Y2259D03*
G01X9105Y2069D03*
G01X8297Y2152D03*
G01X8297Y1962D03*
G01X8297Y1867D03*
G01X8297Y2057D03*
G01X7981Y2057D03*
G01X7981Y1962D03*
G01X7981Y1867D03*
G01X7981Y2152D03*
G01X8129Y1867D03*
G01X8129Y2057D03*
G01X8129Y2152D03*
G01X8129Y1962D03*
G01X6758Y2141D03*
G01X6758Y1951D03*
G01X6758Y1855D03*
G01X6758Y2046D03*
G01X6442Y2046D03*
G01X6442Y1951D03*
G01X6442Y1855D03*
G01X6442Y2141D03*
G01X6590Y1855D03*
G01X6590Y2046D03*
G01X6590Y2141D03*
G01X6590Y1951D03*
G01X5001Y2275D03*
G01X5001Y2084D03*
G01X5001Y1989D03*
G01X5001Y2180D03*
G01X4685Y2180D03*
G01X4685Y2084D03*
G01X4685Y1989D03*
G01X4685Y2275D03*
G01X4833Y1989D03*
G01X4833Y2180D03*
G01X4833Y2275D03*
G01X4833Y2084D03*
G01X4906Y1399D03*
G01X4906Y1208D03*
G01X4906Y1113D03*
G01X4906Y1303D03*
G01X3725Y1388D03*
G01X3725Y1292D03*
G01X3725Y1197D03*
G01X3725Y1483D03*
G01X3872Y1197D03*
G01X3872Y1388D03*
G01X3872Y1483D03*
G01X3872Y1292D03*
G01X4037Y2179D03*
G01X4037Y1989D03*
G01X4037Y1893D03*
G01X4037Y2084D03*
G01X3721Y2084D03*
G01X3721Y1989D03*
G01X3721Y1893D03*
G01X3721Y2179D03*
G01X3869Y1893D03*
G01X3869Y2084D03*
G01X3869Y2179D03*
G01X3869Y1989D03*
G01X2602Y1946D03*
G01X2602Y1755D03*
G01X2602Y1660D03*
G01X2602Y1850D03*
G01X2285Y1850D03*
G01X2285Y1755D03*
G01X2285Y1660D03*
G01X2285Y1946D03*
G01X2433Y1660D03*
G01X2433Y1850D03*
G01X2433Y1946D03*
G01X2433Y1755D03*
G01X2560Y1341D03*
G01X2560Y1151D03*
G01X2560Y1055D03*
G01X2560Y1246D03*
G01X2243Y1246D03*
G01X2243Y1151D03*
G01X2243Y1055D03*
G01X2243Y1341D03*
G01X2391Y1055D03*
G01X2391Y1246D03*
G01X2391Y1341D03*
G01X2391Y1151D03*
G01X2670Y527D03*
G01X2670Y336D03*
G01X2670Y241D03*
G01X2670Y431D03*
G01X2354Y431D03*
G01X2354Y336D03*
G01X2354Y241D03*
G01X2354Y527D03*
G01X2502Y241D03*
G01X2502Y431D03*
G01X2502Y527D03*
G01X2502Y336D03*
G01X2613Y1D03*
G01X2613Y-189D03*
G01X2613Y-284D03*
G01X2613Y-94D03*
G01X2297Y-94D03*
G01X2297Y-189D03*
G01X2297Y-284D03*
G01X2297Y1D03*
G01X2445Y-284D03*
G01X2445Y-94D03*
G01X2445Y1D03*
G01X2445Y-189D03*
G01X1534Y212D03*
G01X1534Y21D03*
G01X1534Y-74D03*
G01X1534Y117D03*
G01X1217Y117D03*
G01X1217Y21D03*
G01X1217Y-74D03*
G01X1217Y212D03*
G01X1365Y-74D03*
G01X1365Y117D03*
G01X1365Y212D03*
G01X1365Y21D03*
G01X868Y1050D03*
G01X868Y860D03*
G01X868Y764D03*
G01X868Y955D03*
G01X551Y955D03*
G01X551Y860D03*
G01X551Y764D03*
G01X551Y1050D03*
G01X699Y764D03*
G01X699Y955D03*
G01X699Y1050D03*
G01X699Y860D03*
G01X768Y1747D03*
G01X768Y1556D03*
G01X768Y1461D03*
G01X768Y1652D03*
G01X452Y1652D03*
G01X452Y1556D03*
G01X452Y1461D03*
G01X452Y1747D03*
G01X600Y1461D03*
G01X600Y1652D03*
G01X600Y1747D03*
G01X600Y1556D03*
G01X2789Y2708D03*
G01X2789Y2518D03*
G01X2789Y2423D03*
G01X2789Y2613D03*
G01X2473Y2613D03*
G01X2473Y2518D03*
G01X2473Y2423D03*
G01X2473Y2708D03*
G01X2621Y2423D03*
G01X2621Y2613D03*
G01X2621Y2708D03*
G01X2621Y2518D03*
G01X3846Y52D03*
G01X3846Y-139D03*
G01X3846Y-234D03*
G01X3846Y-44D03*
G01X3530Y-44D03*
G01X3530Y-139D03*
G01X3530Y-234D03*
G01X3530Y52D03*
G01X3678Y-234D03*
G01X3678Y-44D03*
G01X3678Y52D03*
G01X3678Y-139D03*
G01X7620Y613D03*
G01X7620Y422D03*
G01X7620Y327D03*
G01X7620Y518D03*
G01X7304Y518D03*
G01X7304Y422D03*
G01X7304Y327D03*
G01X7304Y613D03*
G01X7452Y327D03*
G01X7452Y518D03*
G01X7452Y613D03*
G01X7452Y422D03*
G01X8309Y1087D03*
G01X8309Y896D03*
G01X8309Y801D03*
G01X8309Y991D03*
G01X7993Y991D03*
G01X7993Y896D03*
G01X7993Y801D03*
G01X7993Y1087D03*
G01X8141Y801D03*
G01X8141Y991D03*
G01X8141Y1087D03*
G01X8141Y896D03*
G01X9515Y1638D03*
G01X9515Y1447D03*
G01X9515Y1352D03*
G01X9515Y1542D03*
G01X9199Y1542D03*
G01X9199Y1447D03*
G01X9199Y1352D03*
G01X9199Y1638D03*
G01X9347Y1352D03*
G01X9347Y1542D03*
G01X9347Y1638D03*
G01X9347Y1447D03*
G01X9678Y1104D03*
G01X9678Y913D03*
G01X9678Y818D03*
G01X9678Y1008D03*
G01X9362Y1008D03*
G01X9362Y913D03*
G01X9362Y818D03*
G01X9362Y1104D03*
G01X9510Y818D03*
G01X9510Y1008D03*
G01X9510Y1104D03*
G01X9510Y913D03*
G01X7264Y1949D03*
G01X7264Y2044D03*
G01X7412Y2044D03*
G01X7412Y1949D03*
G01X7580Y2044D03*
G01X7580Y1949D03*
G01X6883Y716D03*
G01X6883Y811D03*
G01X7031Y811D03*
G01X7031Y716D03*
G01X7199Y811D03*
G01X7199Y716D03*
G01X971Y2697D03*
G01X971Y2792D03*
G01X1119Y2792D03*
G01X1119Y2697D03*
G01X1287Y2792D03*
G01X1287Y2697D03*
G01X1515Y2685D03*
G01X1515Y2781D03*
G01X1663Y2781D03*
G01X1663Y2685D03*
G01X1831Y2781D03*
G01X1831Y2685D03*
G01X761Y2056D03*
G01X761Y2152D03*
G01X909Y2152D03*
G01X909Y2056D03*
G01X1078Y2152D03*
G01X1078Y2056D03*
G04 Via End*

G04 Track Start*
G54D26*
G01X6126Y2759D02*
G01X6122Y2756D01*
G01X6122Y48D01*
G04 Track End*

M02*

