;TYPE=PLATED
;Layer: PTH_Through_Via
;EasyEDA Pro Client v2.2.32.3, 2025-02-11 14:35:12
;Gerber Generator version 0.3
M48
METRIC,LZ,000.00000
;Hole size 1 = 0.30000 METRIC
T01C0.30000
;Hole size 2 = 0.50000 METRIC
T02C0.50000
%
G05
G90
T01
X-11.73015Y32.74242
X-43.96257Y32.84443
X-11.27115Y33.81344
X-43.19756Y33.71144
X-10.81214Y34.98645
X-42.53455Y34.98645
X4.59006Y32.74242
X4.94706Y33.76244
X5.25307Y34.93545
X-49.36864Y13.10717
X12.95417Y20.24726
X-48.89365Y13.58068
X-49.52674Y13.71194
X-48.74649Y12.9727
X-56.3356Y26.43164
X-55.11158Y26.43164
X-53.88757Y26.43164
X-52.66355Y26.43164
X-51.43954Y26.43164
X-50.21552Y26.43164
X-50.21552Y25.25862
X-50.21552Y24.18761
X-51.27633Y25.25862
X-52.64315Y25.25862
X-54.00997Y25.25862
X-55.37679Y25.25862
X-56.3356Y25.25862
X-56.3356Y24.18761
X-55.37679Y24.18761
X-54.00997Y24.18761
X-52.64315Y24.18761
X-51.27633Y24.18761
X-50.16452Y27.70666
X-56.2846Y27.70666
X-55.06058Y27.70666
X-53.83657Y27.70666
X-52.61255Y27.70666
X-51.38854Y27.70666
X-46.08447Y35.40775
X-56.2846Y28.82867
X-55.06058Y28.82867
X-53.83657Y28.82867
X-52.61255Y28.82867
X-51.38854Y28.82867
X-50.31752Y23.1676
X-56.4376Y23.1676
X-55.21359Y23.1676
X-53.98957Y23.1676
X-52.76555Y23.1676
X-51.54154Y23.1676
X-37.82236Y26.83964
X-43.94244Y26.83964
X-42.71842Y26.83964
X-41.49441Y26.83964
X-40.27039Y26.83964
X-39.04638Y26.83964
X-37.82236Y24.59562
X-43.94244Y24.59562
X-42.71842Y24.59562
X-41.49441Y24.59562
X-40.27039Y24.59562
X-39.04638Y24.59562
X-37.82236Y25.71763
X-43.94244Y25.71763
X-42.71842Y25.71763
X-41.49441Y25.71763
X-40.27039Y25.71763
X-39.04638Y25.71763
X-21.34915Y26.78864
X-27.46923Y26.78864
X-26.24521Y26.78864
X-25.0212Y26.78864
X-23.79718Y26.78864
X-22.57316Y26.78864
X-21.34915Y24.54461
X-27.46923Y24.54461
X-26.24521Y24.54461
X-25.0212Y24.54461
X-23.79718Y24.54461
X-22.57316Y24.54461
X-21.34915Y25.66663
X-27.46923Y25.66663
X-26.24521Y25.66663
X-25.0212Y25.66663
X-23.79718Y25.66663
X-22.57316Y25.66663
X-5.09789Y26.89064
X-11.21797Y26.89064
X-9.99395Y26.89064
X-8.76994Y26.89064
X-7.54592Y26.89064
X-6.3219Y26.89064
X-5.09789Y24.64662
X-11.21797Y24.64662
X-9.99395Y24.64662
X-8.76994Y24.64662
X-7.54592Y24.64662
X-6.3219Y24.64662
X-5.09789Y25.76863
X-11.21797Y25.76863
X-9.99395Y25.76863
X-8.76994Y25.76863
X-7.54592Y25.76863
X-6.3219Y25.76863
X11.29127Y26.78864
X5.1712Y26.78864
X6.39521Y26.78864
X7.61923Y26.78864
X8.84324Y26.78864
X10.06726Y26.78864
X11.29127Y24.54461
X5.1712Y24.54461
X6.39521Y24.54461
X7.61923Y24.54461
X8.84324Y24.54461
X10.06726Y24.54461
X11.29127Y25.66663
X5.1712Y25.66663
X6.39521Y25.66663
X7.61923Y25.66663
X8.84324Y25.66663
X10.06726Y25.66663
X-12.80312Y26.69153
X-18.9232Y26.69153
X-17.69919Y26.69153
X-15.25116Y26.69153
X-14.02714Y26.69153
X-17.69919Y24.4475
X-16.47517Y24.4475
X-15.25116Y24.4475
X-14.02714Y24.4475
X-12.80312Y25.56952
X-18.9232Y25.56952
X-16.47517Y25.56952
X-15.25116Y25.56952
X-14.02714Y25.56952
X-33.98926Y27.01104
X-35.21328Y27.01104
X-35.21328Y25.88902
X-32.76524Y25.88902
X-33.98926Y24.76701
X-32.76524Y24.76701
X-31.54123Y24.76701
X-31.54123Y25.88902
X-31.54123Y27.01104
X-30.31721Y27.01104
X-30.31721Y25.88902
X-30.31721Y24.76701
X-29.0932Y25.88902
X-29.0932Y27.01104
X-1.14483Y27.01104
X-2.36885Y27.01104
X-2.36885Y25.88902
X0.07918Y25.88902
X-1.14483Y24.76701
X0.07918Y24.76701
X1.3032Y24.76701
X1.3032Y25.88902
X1.3032Y27.01104
X2.52721Y27.01104
X2.52721Y25.88902
X2.52721Y24.76701
X3.75123Y25.88902
X3.75123Y27.01104
X-59.75346Y23.89649
X-59.75346Y22.67247
X-58.63144Y22.67247
X-58.63144Y25.12051
X-57.50943Y23.89649
X-57.50943Y25.12051
X-57.50943Y26.34452
X-58.63144Y26.34452
X-59.75346Y26.34452
X-59.75346Y27.56854
X-58.63144Y27.56854
X-57.50943Y27.56854
X-58.63144Y28.79255
X-59.75346Y28.79255
X-49.22893Y24.95945
X-46.8319Y31.02853
X-46.8319Y24.90845
X-46.8319Y26.13247
X-46.8319Y27.35648
X-46.8319Y28.5805
X-46.8319Y29.80451
X-42.29284Y40.66765
X-48.10692Y24.95945
X-48.10692Y26.18347
X-48.10692Y27.40748
X-48.10692Y28.6315
X-48.10692Y29.85551
X-44.74088Y39.64764
X-49.22893Y26.18347
X-49.22893Y27.40748
X-49.22893Y28.6315
X-49.22893Y29.85551
X-29.08367Y36.24768
X-26.68664Y42.31676
X-26.68664Y36.19668
X-26.68664Y37.4207
X-26.68664Y38.64472
X-26.68664Y39.86873
X-26.68664Y41.09275
X-27.96166Y42.36776
X-27.96166Y36.24768
X-27.96166Y37.4717
X-27.96166Y38.69572
X-27.96166Y39.91973
X-27.96166Y41.14375
X-27.14565Y43.38778
X-29.08367Y37.4717
X-29.08367Y38.69572
X-29.08367Y39.91973
X-29.08367Y41.14375
X-21.63148Y36.02941
X-19.23445Y42.09848
X-19.23445Y35.9784
X-19.23445Y37.20242
X-19.23445Y38.42644
X-19.23445Y39.65045
X-19.23445Y40.87447
X-20.50947Y42.14948
X-20.50947Y36.02941
X-20.50947Y37.25342
X-20.50947Y38.47744
X-20.50947Y39.70145
X-20.50947Y40.92547
X-18.26544Y39.08945
X-21.63148Y37.25342
X-21.63148Y38.47744
X-21.63148Y39.70145
X-21.63148Y40.92547
X-14.41306Y46.06689
X-8.34398Y43.66986
X-14.46406Y43.66986
X-13.24004Y43.66986
X-12.01603Y43.66986
X-10.79201Y43.66986
X-9.568Y43.66986
X-8.29298Y44.94488
X-14.41306Y44.94488
X-13.18904Y44.94488
X-11.96503Y44.94488
X-10.74101Y44.94488
X-9.51699Y44.94488
X-8.29298Y46.06689
X-13.18904Y46.06689
X-11.96503Y46.06689
X-10.74101Y46.06689
X-9.51699Y46.06689
X4.67876Y36.3326
X7.07579Y42.40168
X7.07579Y36.2816
X7.07579Y37.50561
X7.07579Y38.72963
X7.07579Y39.95365
X7.07579Y41.17766
X5.80078Y42.45268
X5.80078Y36.3326
X5.80078Y37.55661
X5.80078Y38.78063
X5.80078Y40.00465
X5.80078Y41.22866
X4.67876Y42.45268
X4.67876Y37.55661
X4.67876Y38.78063
X4.67876Y40.00465
X4.67876Y41.22866
X12.9743Y45.86289
X14.91232Y26.99265
X7.61923Y47.69891
X14.14731Y43.46586
X15.37133Y43.46586
X16.59534Y43.46586
X14.30031Y26.38064
X13.63731Y27.04365
X12.9743Y44.74088
X14.19831Y44.74088
X15.42233Y44.74088
X16.64634Y44.74088
X13.63731Y25.81963
X12.51529Y27.04365
X14.19831Y45.86289
X15.42233Y45.86289
X16.64634Y45.86289
X12.51529Y25.81963
X13.83413Y23.72507
X-0.14005Y29.08014
X13.78313Y21.32804
X15.00715Y21.32804
X16.23116Y21.32804
X17.04717Y21.83804
X-0.44605Y28.00912
X-1.41506Y29.13114
X13.83413Y22.60305
X15.05815Y22.60305
X16.28216Y22.60305
X17.09818Y23.06206
X-1.41506Y27.90712
X-2.53708Y29.13114
X15.05815Y23.72507
X16.28216Y23.72507
X17.09818Y24.28607
X-2.53708Y27.90712
X-56.6416Y4.63785
X-50.57253Y2.24082
X-56.69261Y2.24082
X-55.46859Y2.24082
X-54.24457Y2.24082
X-53.02056Y2.24082
X-51.79654Y2.24082
X-50.52153Y3.51584
X-56.6416Y3.51584
X-55.41759Y3.51584
X-54.19357Y3.51584
X-52.96956Y3.51584
X-51.74554Y3.51584
X-50.52153Y4.63785
X-55.41759Y4.63785
X-54.19357Y4.63785
X-52.96956Y4.63785
X-51.74554Y4.63785
X-56.5906Y0.3703
X-50.52153Y-2.02673
X-56.6416Y-2.02673
X-55.41759Y-2.02673
X-54.19357Y-2.02673
X-52.96956Y-2.02673
X-51.74554Y-2.02673
X-50.47052Y-0.75171
X-56.5906Y-0.75171
X-55.36659Y-0.75171
X-54.14257Y-0.75171
X-52.91856Y-0.75171
X-51.69454Y-0.75171
X-50.47052Y0.3703
X-55.36659Y0.3703
X-54.14257Y0.3703
X-52.91856Y0.3703
X-51.69454Y0.3703
X-56.6416Y-3.35275
X-50.57253Y-5.74978
X-56.69261Y-5.74978
X-55.46859Y-5.74978
X-54.24457Y-5.74978
X-53.02056Y-5.74978
X-51.79654Y-5.74978
X-50.52153Y-4.47476
X-56.6416Y-4.47476
X-55.41759Y-4.47476
X-54.19357Y-4.47476
X-52.96956Y-4.47476
X-51.74554Y-4.47476
X-50.52153Y-3.35275
X-55.41759Y-3.35275
X-54.19357Y-3.35275
X-52.96956Y-3.35275
X-51.74554Y-3.35275
X-45.99752Y-3.41663
X-39.92844Y-5.81366
X-46.04852Y-5.81366
X-44.8245Y-5.81366
X-43.60048Y-5.81366
X-42.37647Y-5.81366
X-41.15245Y-5.81366
X-39.87744Y-4.53864
X-45.99752Y-4.53864
X-44.7735Y-4.53864
X-43.54948Y-4.53864
X-42.32547Y-4.53864
X-41.10145Y-4.53864
X-39.87744Y-3.41663
X-44.7735Y-3.41663
X-43.54948Y-3.41663
X-42.32547Y-3.41663
X-41.10145Y-3.41663
X-104.78623Y2.20633
X-98.71715Y-0.19071
X-104.83723Y-0.19071
X-103.61321Y-0.19071
X-102.3892Y-0.19071
X-101.16518Y-0.19071
X-99.94116Y-0.19071
X-98.66615Y1.08431
X-104.78623Y1.08431
X-103.56221Y1.08431
X-102.3382Y1.08431
X-101.11418Y1.08431
X-99.89016Y1.08431
X-98.66615Y2.20633
X-103.56221Y2.20633
X-102.3382Y2.20633
X-101.11418Y2.20633
X-99.89016Y2.20633
X-104.63323Y6.13338
X-98.56415Y3.73635
X-104.68423Y3.73635
X-103.46021Y3.73635
X-102.23619Y3.73635
X-101.01218Y3.73635
X-99.78816Y3.73635
X-98.51315Y5.01136
X-104.63323Y5.01136
X-103.40921Y5.01136
X-102.18519Y5.01136
X-100.96118Y5.01136
X-99.73716Y5.01136
X-98.51315Y6.13338
X-103.40921Y6.13338
X-102.18519Y6.13338
X-100.96118Y6.13338
X-99.73716Y6.13338
X-104.68423Y10.16243
X-98.61515Y7.7654
X-104.73523Y7.7654
X-103.51121Y7.7654
X-102.2872Y7.7654
X-101.06318Y7.7654
X-99.83916Y7.7654
X-98.56415Y9.04041
X-104.68423Y9.04041
X-103.46021Y9.04041
X-102.23619Y9.04041
X-101.01218Y9.04041
X-99.78816Y9.04041
X-98.56415Y10.16243
X-103.46021Y10.16243
X-102.23619Y10.16243
X-101.01218Y10.16243
X-99.78816Y10.16243
X-105.94167Y13.68831
X-103.54464Y19.75738
X-103.54464Y13.63731
X-103.54464Y14.86132
X-103.54464Y16.08534
X-103.54464Y17.30935
X-103.54464Y18.53337
X-104.81965Y19.80838
X-104.81965Y13.68831
X-104.81965Y14.91232
X-104.81965Y16.13634
X-104.81965Y17.36035
X-104.81965Y18.58437
X-105.94167Y19.80838
X-105.94167Y14.91232
X-105.94167Y16.13634
X-105.94167Y17.36035
X-105.94167Y18.58437
X-100.91018Y27.34965
X-94.8411Y24.95262
X-100.96118Y24.95262
X-99.73716Y24.95262
X-98.51315Y24.95262
X-97.28913Y24.95262
X-96.06511Y24.95262
X-94.7901Y26.22764
X-100.91018Y26.22764
X-99.68616Y26.22764
X-98.46215Y26.22764
X-97.23813Y26.22764
X-96.01411Y26.22764
X-94.7901Y27.34965
X-99.68616Y27.34965
X-98.46215Y27.34965
X-97.23813Y27.34965
X-96.01411Y27.34965
X-96.76155Y34.24157
X-94.36452Y40.31065
X-94.36452Y34.19057
X-94.36452Y35.41459
X-94.36452Y36.6386
X-94.36452Y37.86262
X-94.36452Y39.08663
X-95.63953Y40.36165
X-95.63953Y34.24157
X-95.63953Y35.46559
X-95.63953Y36.6896
X-95.63953Y37.91362
X-95.63953Y39.13764
X-96.76155Y40.36165
X-96.76155Y35.46559
X-96.76155Y36.6896
X-96.76155Y37.91362
X-96.76155Y39.13764
X-100.9436Y34.24157
X-98.54657Y40.31065
X-98.54657Y34.19057
X-98.54657Y35.41459
X-98.54657Y36.6386
X-98.54657Y37.86262
X-98.54657Y39.08663
X-99.82159Y40.36165
X-99.82159Y34.24157
X-99.82159Y35.46559
X-99.82159Y36.6896
X-99.82159Y37.91362
X-99.82159Y39.13764
X-100.9436Y40.36165
X-100.9436Y35.46559
X-100.9436Y36.6896
X-100.9436Y37.91362
X-100.9436Y39.13764
X-98.76815Y31.2767
X-92.69907Y28.87967
X-98.81915Y28.87967
X-97.59513Y28.87967
X-96.37112Y28.87967
X-95.1471Y28.87967
X-93.92309Y28.87967
X-92.64807Y30.15469
X-98.76815Y30.15469
X-97.54413Y30.15469
X-96.32012Y30.15469
X-95.0961Y30.15469
X-93.87209Y30.15469
X-92.64807Y31.2767
X-97.54413Y31.2767
X-96.32012Y31.2767
X-95.0961Y31.2767
X-93.87209Y31.2767
X-106.14567Y32.76255
X-103.74864Y38.83163
X-103.74864Y32.71155
X-103.74864Y33.93557
X-103.74864Y35.15958
X-103.74864Y36.3836
X-103.74864Y37.60762
X-105.02366Y38.88263
X-105.02366Y32.76255
X-105.02366Y33.98657
X-105.02366Y35.21058
X-105.02366Y36.4346
X-105.02366Y37.65862
X-106.14567Y38.88263
X-106.14567Y33.98657
X-106.14567Y35.21058
X-106.14567Y36.4346
X-106.14567Y37.65862
X-103.56221Y41.62984
X-98.25814Y43.77186
X-104.37822Y43.77186
X-103.15421Y43.77186
X-101.93019Y43.77186
X-100.70617Y43.77186
X-99.48216Y43.77186
X-98.20714Y45.04688
X-104.32722Y45.04688
X-103.10321Y45.04688
X-101.87919Y45.04688
X-100.65517Y45.04688
X-99.43116Y45.04688
X-95.2491Y44.02687
X-94.33109Y44.84288
X-93.15808Y44.07787
X-96.01411Y43.51686
X-95.86111Y45.14888
X-107.87969Y40.15765
X-104.05464Y40.71866
X-105.48266Y40.10665
X-105.48266Y41.33066
X-105.48266Y42.55468
X-105.48266Y43.7787
X-105.48266Y45.00271
X-109.10371Y39.95365
X-106.75768Y40.15765
X-106.75768Y41.38166
X-106.75768Y42.60568
X-106.75768Y43.8297
X-109.05271Y41.02466
X-108.84871Y42.14667
X-107.87969Y41.38166
X-107.87969Y42.60568
X-107.87969Y43.8297
X-104.46265Y42.45268
X-108.81528Y4.60336
X-106.41825Y10.67243
X-106.41825Y4.55236
X-106.41825Y5.77637
X-106.41825Y7.00039
X-106.41825Y8.2244
X-106.41825Y9.44842
X-107.69327Y10.72344
X-107.69327Y4.60336
X-107.69327Y5.82737
X-107.69327Y7.05139
X-107.69327Y8.2754
X-107.69327Y9.49942
X-108.81528Y10.72344
X-108.81528Y5.82737
X-108.81528Y7.05139
X-108.81528Y8.2754
X-108.81528Y9.49942
X-72.91081Y22.60659
X-66.84174Y20.20956
X-72.96182Y20.20956
X-71.7378Y20.20956
X-70.51378Y20.20956
X-69.28977Y20.20956
X-68.06575Y20.20956
X-66.79074Y21.48457
X-72.91081Y21.48457
X-71.6868Y21.48457
X-70.46278Y21.48457
X-69.23877Y21.48457
X-68.01475Y21.48457
X-66.79074Y22.60659
X-71.6868Y22.60659
X-70.46278Y22.60659
X-69.23877Y22.60659
X-68.01475Y22.60659
X-64.3427Y-0.19071
X-58.27363Y-2.58774
X-64.3937Y-2.58774
X-63.16969Y-2.58774
X-61.94567Y-2.58774
X-60.72166Y-2.58774
X-59.49764Y-2.58774
X-58.22262Y-1.31272
X-64.3427Y-1.31272
X-63.11869Y-1.31272
X-61.89467Y-1.31272
X-60.67066Y-1.31272
X-59.44664Y-1.31272
X-58.22262Y-0.19071
X-63.11869Y-0.19071
X-61.89467Y-0.19071
X-60.67066Y-0.19071
X-59.44664Y-0.19071
X-76.56529Y43.62569
X-72.17923Y10.98527
X-76.66729Y44.79871
X-72.17923Y6.08921
X-72.17923Y7.31322
X-72.17923Y8.53724
X-72.17923Y9.76125
X-73.45425Y11.03627
X-77.02429Y42.55468
X-73.45425Y6.14021
X-73.45425Y7.36422
X-73.45425Y8.58824
X-73.45425Y9.81226
X-74.57626Y11.03627
X-74.57626Y6.14021
X-74.57626Y7.36422
X-74.57626Y8.58824
X-74.57626Y9.81226
X-68.32754Y-4.79046
X-59.45342Y-6.01448
X-65.5735Y-6.01448
X-64.34949Y-6.01448
X-63.12547Y-6.01448
X-61.90145Y-6.01448
X-60.67744Y-6.01448
X-59.40242Y-4.73946
X-65.5225Y-4.73946
X-64.29848Y-4.73946
X-63.07447Y-4.73946
X-61.85045Y-4.73946
X-60.62644Y-4.73946
X-59.40242Y-3.61745
X-66.28751Y-1.52642
X-63.07447Y-3.61745
X-61.85045Y-3.61745
X-60.62644Y-3.61745
X-54.32582Y41.22123
X-65.23996Y44.89328
X-52.9488Y42.08824
X-52.9488Y43.31225
X-52.9488Y44.53627
X-61.61891Y44.89328
X-65.18896Y43.97526
X-66.51497Y44.94428
X-54.22381Y42.13924
X-54.22381Y43.36326
X-54.22381Y44.58727
X-59.47688Y45.09728
X-66.46397Y43.97526
X-67.63699Y44.94428
X-55.34583Y43.36326
X-55.34583Y44.58727
X-57.33485Y45.09728
X-67.63699Y43.92426
X-55.09401Y34.08857
X-52.69698Y40.15765
X-52.69698Y34.03757
X-52.69698Y35.26158
X-52.69698Y36.4856
X-52.69698Y37.70962
X-52.69698Y38.93363
X-53.972Y40.20865
X-53.972Y34.08857
X-53.972Y35.31259
X-53.972Y36.5366
X-53.972Y37.76062
X-53.972Y38.98463
X-55.09401Y40.20865
X-55.09401Y35.31259
X-55.09401Y36.5366
X-55.09401Y37.76062
X-55.09401Y38.98463
X-54.80558Y32.85772
X-42.92243Y39.2328
X-54.85658Y30.46069
X-53.63257Y30.46069
X-52.40855Y30.46069
X-51.18453Y30.46069
X-49.09351Y36.42777
X-42.66742Y37.80479
X-54.80558Y31.73571
X-53.58156Y31.73571
X-52.35755Y31.73571
X-48.8895Y31.68471
X-46.13547Y36.37677
X-50.41952Y39.64081
X-53.58156Y32.85772
X-49.19551Y35.56076
X-51.13353Y32.85772
X-47.66549Y39.58981
X-83.05995Y-3.35275
X-76.99087Y-5.74978
X-83.11095Y-5.74978
X-81.88693Y-5.74978
X-80.66292Y-5.74978
X-79.4389Y-5.74978
X-78.21488Y-5.74978
X-76.93987Y-4.47476
X-83.05995Y-4.47476
X-81.83593Y-4.47476
X-80.61191Y-4.47476
X-79.3879Y-4.47476
X-78.16388Y-4.47476
X-76.93987Y-3.35275
X-81.83593Y-3.35275
X-80.61191Y-3.35275
X-79.3879Y-3.35275
X-78.16388Y-3.35275
X-75.05284Y-3.30175
X-36.54734Y50.24895
X-75.10384Y-5.69878
X-73.87983Y-5.69878
X-72.65581Y-5.69878
X-70.10578Y-4.78077
X-34.66032Y46.11789
X-36.49634Y51.52396
X-75.05284Y-4.42376
X-73.82883Y-4.42376
X-72.60481Y-4.42376
X-71.3808Y-4.42376
X-30.17226Y46.9849
X-36.64935Y48.46392
X-73.82883Y-3.30175
X-72.60481Y-3.30175
X-71.3808Y-3.30175
X-37.36335Y46.8829
X3.43717Y51.11596
X5.3242Y43.61886
X3.13117Y43.56786
X2.46816Y44.63887
X3.69218Y44.63887
X4.91619Y44.63887
X12.26029Y42.59885
X3.28417Y49.94294
X3.43717Y48.51492
X2.51916Y45.91389
X3.74318Y45.91389
X4.96719Y45.91389
X7.77223Y45.81189
X1.44815Y43.72086
X2.51916Y47.03591
X3.74318Y47.03591
X4.96719Y47.03591
X1.29515Y46.16889
X-71.17679Y11.28444
X-66.33173Y-3.45475
X-72.34981Y-7.07579
X-71.22779Y-6.41279
X-69.59577Y-5.59678
X-69.44277Y-3.50575
X-68.21875Y-3.45475
X-73.36982Y-7.8408
X-71.17679Y10.16243
X-78.26588Y-7.8408
X-77.04187Y-7.8408
X-75.81785Y-7.8408
X-74.59384Y-7.8408
X-73.36982Y-6.71879
X-78.26588Y-6.71879
X-77.04187Y-6.71879
X-75.81785Y-6.71879
X-74.59384Y-6.71879
X-61.53767Y9.70342
X-55.46859Y7.30639
X-61.58867Y7.30639
X-60.36465Y7.30639
X-59.14064Y7.30639
X-57.91662Y7.30639
X-56.69261Y7.30639
X-55.41759Y8.58141
X-61.53767Y8.58141
X-60.31365Y8.58141
X-59.08964Y8.58141
X-57.86562Y8.58141
X-56.6416Y8.58141
X-55.41759Y9.70342
X-60.31365Y9.70342
X-59.08964Y9.70342
X-57.86562Y9.70342
X-56.6416Y9.70342
X-22.21616Y31.78671
X-30.17226Y31.58271
X-28.94825Y31.58271
X-31.29428Y29.95068
X-22.26716Y30.71569
X-30.17226Y30.46069
X-28.94825Y30.46069
X-31.39628Y30.8177
X-52.25555Y21.84158
X-55.9276Y21.84158
X-54.70358Y21.84158
X-53.47956Y21.84158
X-52.25555Y20.71956
X-55.9276Y20.71956
X-54.70358Y20.71956
X-53.47956Y20.71956
X-11.81202Y31.5317
X-13.85205Y30.9707
X-13.03604Y31.5317
X-11.81202Y30.40969
X-16.04508Y31.88871
X-15.12707Y30.10369
X-13.03604Y30.40969
X-3.69643Y40.72778
X-5.58345Y36.69873
X-0.53439Y44.55283
X-0.84039Y43.12482
X-5.78746Y31.90467
X-4.61444Y37.15774
X-5.27745Y38.22875
X-4.05343Y38.22875
X4.10018Y31.2257
X0.42813Y31.2257
X1.34615Y31.2257
X2.87617Y31.2257
X4.10018Y30.10369
X0.42813Y30.10369
X1.39715Y30.10369
X2.87617Y30.10369
X-0.5743Y8.89424
X-0.5743Y5.2222
X-0.5743Y6.44621
X-0.5743Y7.67023
X0.54771Y8.89424
X0.54771Y5.2222
X0.54771Y6.44621
X0.54771Y7.67023
X-2.86933Y8.94524
X-2.86933Y5.2732
X-2.86933Y6.49721
X-2.86933Y7.72123
X-1.74732Y8.94524
X-1.74732Y5.2732
X-1.74732Y6.49721
X-1.74732Y7.72123
X-1.95132Y13.5863
X-1.95132Y9.91426
X-1.95132Y11.13827
X-1.95132Y12.36229
X-0.82931Y13.5863
X-0.82931Y9.91426
X-0.82931Y11.13827
X-0.82931Y12.36229
X-18.27153Y4.74981
X-18.27153Y1.07776
X-18.27153Y2.30178
X-18.27153Y3.52579
X-17.14952Y4.74981
X-17.14952Y1.07776
X-17.14952Y2.30178
X-17.14952Y3.52579
X-44.86045Y13.27347
X-45.26846Y8.0204
X-45.16646Y10.46843
X-45.06445Y12.45746
X-44.19744Y14.24248
X-45.26846Y9.24442
X-45.16646Y11.43744
X-45.06445Y14.24248
X-38.84237Y14.75249
X-39.55638Y14.59949
X-39.60738Y13.88548
X-39.86239Y12.66146
X-39.96439Y11.64145
X-39.96439Y10.67243
X-40.06639Y9.44842
X-40.06639Y8.2244
X-27.67323Y14.44648
X-28.54024Y14.44648
X-28.33624Y13.47747
X-28.54024Y12.66146
X-28.64224Y11.64145
X-28.64224Y10.67243
X-28.74424Y9.44842
X-28.74424Y8.2244
X-11.20002Y14.29348
X-12.06703Y14.29348
X-11.86302Y13.32447
X-12.06703Y12.50846
X-12.16903Y11.48845
X-12.16903Y10.51943
X-12.27103Y9.29542
X-12.27103Y8.0714
X-6.04895Y14.65049
X-5.99795Y13.83448
X-6.60996Y12.96746
X-7.17096Y11.99845
X-7.32397Y11.02944
X-5.02894Y14.65049
X-7.17096Y10.00943
X-7.29898Y8.80338
X-7.29898Y7.47869
X-12.56302Y6.89338
X14.04531Y14.08948
X14.91232Y13.98748
X14.86132Y13.01847
X14.96332Y11.74345
X10.16926Y14.59949
X10.93427Y14.54849
X11.24027Y13.57947
X11.95428Y12.76346
X12.36229Y11.59045
X12.36229Y10.36643
X12.2353Y8.98886
X12.2353Y7.88291
X15.06532Y10.92744
X5.6302Y14.65049
X6.24221Y14.59949
X5.93621Y13.78348
X6.39521Y12.96746
X7.05822Y12.20245
X7.41522Y11.2347
X7.41652Y10.04468
X7.41652Y8.99694
X7.41652Y8.14323
X9.71025Y11.23344
X4.21863Y11.39833
X3.13117Y10.26443
X3.05518Y8.81801
X-4.05992Y10.62143
X-3.70292Y11.94745
X-3.03991Y13.12047
X-15.12707Y10.6467
X-16.40208Y9.75442
X-18.44211Y6.28638
X-20.83914Y11.02944
X-19.36012Y10.41743
X-22.36916Y14.49748
X-21.50215Y14.44648
X-22.42016Y13.57947
X-23.49118Y12.04945
X-23.59318Y10.97844
X-23.69518Y9.44842
X-23.54218Y7.9184
X-19.91831Y12.65611
X-19.15612Y13.42647
X-26.04121Y11.13144
X-26.09221Y9.85642
X-31.14128Y11.02262
X-32.41626Y10.06043
X-18.85012Y22.65759
X-18.90112Y21.79058
X-18.85012Y23.4226
X-29.66226Y28.52267
X-18.79911Y28.52267
X-17.5751Y28.52267
X-15.38207Y28.62467
X-14.51506Y27.40065
X-13.22938Y29.16851
X-13.24004Y27.80866
X-45.01345Y26.83964
X-44.96245Y25.76863
X-45.42146Y30.05269
X-45.06445Y30.8687
X-38.74037Y31.68471
X-38.79137Y30.61369
X-35.32333Y28.62467
X-36.54734Y26.68664
X-36.70035Y25.76863
X-34.15031Y28.47167
X-31.09027Y27.85966
X-36.34334Y13.37547
X-37.31235Y11.79445
X-35.68033Y10.57043
X-35.37534Y7.56762
X-34.71132Y6.54138
X-42.51442Y11.69245
X-42.46342Y10.06043
X-49.14451Y10.36643
X-49.65451Y8.73441
X-53.02056Y7.56139
X-49.60351Y7.20439
X-53.12256Y6.13338
X-49.75652Y5.72537
X-70.36078Y10.00943
X-64.2407Y10.00943
X-69.13677Y10.00943
X-67.91275Y10.00943
X-66.68873Y10.00943
X-65.46472Y10.00943
X-64.2917Y7.6124
X-70.41178Y7.6124
X-69.18777Y7.6124
X-67.96375Y7.6124
X-66.73974Y7.6124
X-65.51572Y7.6124
X-64.2407Y8.88741
X-70.36078Y8.88741
X-69.13677Y8.88741
X-67.91275Y8.88741
X-66.68873Y8.88741
X-65.46472Y8.88741
X-82.39694Y10.77444
X-76.27686Y10.77444
X-81.17292Y10.77444
X-79.94891Y10.77444
X-78.72489Y10.77444
X-77.50087Y10.77444
X-76.32786Y8.37741
X-82.44794Y8.37741
X-81.22392Y8.37741
X-79.99991Y8.37741
X-78.77589Y8.37741
X-77.55188Y8.37741
X-76.27686Y9.65242
X-82.39694Y9.65242
X-81.17292Y9.65242
X-79.94891Y9.65242
X-78.72489Y9.65242
X-77.50087Y9.65242
X-82.49894Y6.74538
X-76.37886Y6.74538
X-81.27492Y6.74538
X-80.05091Y6.74538
X-78.82689Y6.74538
X-77.60288Y6.74538
X-76.42986Y4.34835
X-82.54994Y4.34835
X-81.32592Y4.34835
X-80.10191Y4.34835
X-78.87789Y4.34835
X-77.65388Y4.34835
X-76.37886Y5.62337
X-82.49894Y5.62337
X-81.27492Y5.62337
X-80.05091Y5.62337
X-78.82689Y5.62337
X-77.60288Y5.62337
X-82.80494Y1.64532
X-76.68486Y1.64532
X-81.58093Y1.64532
X-80.35691Y1.64532
X-79.1329Y1.64532
X-77.90888Y1.64532
X-76.73586Y-0.75171
X-82.85594Y-0.75171
X-81.63193Y-0.75171
X-80.40791Y-0.75171
X-79.1839Y-0.75171
X-77.95988Y-0.75171
X-76.68486Y0.5233
X-82.80494Y0.5233
X-81.58093Y0.5233
X-80.35691Y0.5233
X-79.1329Y0.5233
X-77.90888Y0.5233
X-94.8921Y-4.78077
X-88.77202Y-4.78077
X-93.66808Y-4.78077
X-92.44407Y-4.78077
X-91.22005Y-4.78077
X-89.99604Y-4.78077
X-88.82302Y-7.1778
X-94.9431Y-7.1778
X-93.71908Y-7.1778
X-92.49507Y-7.1778
X-91.27105Y-7.1778
X-90.04704Y-7.1778
X-88.77202Y-5.90278
X-94.8921Y-5.90278
X-93.66808Y-5.90278
X-92.44407Y-5.90278
X-91.22005Y-5.90278
X-89.99604Y-5.90278
X-30.70863Y-3.30772
X-24.58855Y-3.30772
X-29.48461Y-3.30772
X-28.2606Y-3.30772
X-27.03658Y-3.30772
X-25.81257Y-3.30772
X-24.63955Y-5.70475
X-30.75963Y-5.70475
X-29.53561Y-5.70475
X-28.3116Y-5.70475
X-27.08758Y-5.70475
X-25.86357Y-5.70475
X-24.58855Y-4.42973
X-30.70863Y-4.42973
X-29.48461Y-4.42973
X-28.2606Y-4.42973
X-27.03658Y-4.42973
X-25.81257Y-4.42973
X-22.19576Y-3.30772
X-16.07568Y-3.30772
X-20.97175Y-3.30772
X-19.74773Y-3.30772
X-18.52372Y-3.30772
X-17.2997Y-3.30772
X-16.12668Y-5.70475
X-22.24676Y-5.70475
X-21.02275Y-5.70475
X-19.79873Y-5.70475
X-18.57472Y-5.70475
X-17.3507Y-5.70475
X-16.07568Y-4.42973
X-22.19576Y-4.42973
X-20.97175Y-4.42973
X-19.74773Y-4.42973
X-18.52372Y-4.42973
X-17.2997Y-4.42973
X-13.71692Y-3.62484
X-7.59684Y-3.62484
X-12.49291Y-3.62484
X-11.26889Y-3.62484
X-10.04488Y-3.62484
X-8.82086Y-3.62484
X-7.64784Y-6.02187
X-13.76792Y-6.02187
X-12.54391Y-6.02187
X-11.31989Y-6.02187
X-10.09588Y-6.02187
X-8.87186Y-6.02187
X-7.59684Y-4.74686
X-13.71692Y-4.74686
X-12.49291Y-4.74686
X-11.26889Y-4.74686
X-10.04488Y-4.74686
X-8.82086Y-4.74686
X-3.44792Y-4.88277
X2.67216Y-4.88277
X-2.2239Y-4.88277
X-0.99988Y-4.88277
X0.22413Y-4.88277
X1.44815Y-4.88277
X2.62116Y-7.2798
X-3.49892Y-7.2798
X-2.2749Y-7.2798
X-1.05089Y-7.2798
X0.17313Y-7.2798
X1.39715Y-7.2798
X2.67216Y-6.00478
X-3.44792Y-6.00478
X-2.2239Y-6.00478
X-0.99988Y-6.00478
X0.22413Y-6.00478
X1.44815Y-6.00478
X6.54821Y-3.35275
X12.66829Y-3.35275
X7.77223Y-3.35275
X8.99624Y-3.35275
X10.22026Y-3.35275
X11.44428Y-3.35275
X12.61729Y-5.74978
X6.49721Y-5.74978
X7.72123Y-5.74978
X8.94524Y-5.74978
X10.16926Y-5.74978
X11.39328Y-5.74978
X12.66829Y-4.47476
X6.54821Y-4.47476
X7.77223Y-4.47476
X8.99624Y-4.47476
X10.22026Y-4.47476
X11.44428Y-4.47476
X-75.56285Y15.05849
X-74.33883Y15.05849
X-73.11482Y15.05849
X-71.8908Y15.05849
X-69.44277Y13.93648
X-75.56285Y13.93648
X-74.33883Y13.93648
X-73.11482Y13.93648
X-71.8908Y13.93648
X-70.66679Y13.93648
X-69.44277Y15.05849
X-70.66679Y15.05849
X-69.49377Y12.66146
X-75.61385Y12.66146
X-74.38983Y12.66146
X-73.16582Y12.66146
X-71.9418Y12.66146
X-70.71779Y12.66146
X-75.46085Y19.08754
X-69.34077Y19.08754
X-74.23683Y19.08754
X-73.01282Y19.08754
X-71.7888Y19.08754
X-70.56478Y19.08754
X-69.39177Y16.69051
X-75.51185Y16.69051
X-74.28783Y16.69051
X-73.06382Y16.69051
X-71.8398Y16.69051
X-70.61579Y16.69051
X-69.34077Y17.96553
X-75.46085Y17.96553
X-74.23683Y17.96553
X-73.01282Y17.96553
X-71.7888Y17.96553
X-70.56478Y17.96553
X-74.49184Y0.82931
X-73.26782Y0.82931
X-72.0438Y0.82931
X-70.81979Y0.82931
X-68.37176Y-0.29271
X-74.49184Y-0.29271
X-73.26782Y-0.29271
X-72.0438Y-0.29271
X-70.81979Y-0.29271
X-69.59577Y-0.29271
X-68.37176Y0.82931
X-69.59577Y0.82931
X-68.42276Y-1.56772
X-74.54284Y-1.56772
X-73.31882Y-1.56772
X-72.0948Y-1.56772
X-70.87079Y-1.56772
X-69.64677Y-1.56772
X-74.38983Y4.85836
X-68.26975Y4.85836
X-73.16582Y4.85836
X-71.9418Y4.85836
X-70.71779Y4.85836
X-69.49377Y4.85836
X-68.32076Y2.46133
X-74.44083Y2.46133
X-73.21682Y2.46133
X-71.9928Y2.46133
X-70.76879Y2.46133
X-69.54477Y2.46133
X-68.26975Y3.73635
X-74.38983Y3.73635
X-73.16582Y3.73635
X-71.9418Y3.73635
X-70.71779Y3.73635
X-69.49377Y3.73635
X-27.69336Y32.74242
X-27.28535Y33.81344
X-26.92835Y34.98645
X-20.48214Y48.20892
X-21.42Y47.4253
X-22.47116Y46.3729
X-23.44017Y45.30188
X-24.00118Y44.28187
X-27.72423Y48.15792
X-32.8243Y48.51492
X-2.0709Y36.12176
X-3.65192Y31.99071
X-5.84495Y47.29091
X-5.89595Y46.01589
X-5.99795Y44.74088
X-3.14191Y48.05592
X-3.29491Y46.9849
X-16.04508Y44.33287
X13.1783Y43.46586
X15.83033Y32.73022
X11.54628Y43.87386
X12.56629Y35.86676
X12.51529Y34.08174
X15.32033Y34.97425
X10.32226Y36.42777
X10.32226Y34.23474
X10.32226Y35.33125
X10.32226Y32.80672
X10.32226Y30.61369
X10.32226Y31.71021
X-36.56747Y41.61654
X-37.74049Y39.35645
X-39.98452Y41.92254
X-18.25824Y44.93158
X-19.17625Y43.65656
X-4.79406Y40.74953
X-4.38606Y39.62751
X9.58812Y42.68755
X10.35313Y40.85153
T02
X1.88702Y15.96321
X-16.93222Y16.01421
X-33.35443Y16.01421
M30