G04 Layer: BoardOutlineLayer*
G04 EasyEDA Pro v2.2.32.3, 2025-02-11 14:35:12*
G04 Gerber Generator version 0.3*
G04 Scale: 100 percent, Rotated: No, Reflected: No*
G04 Dimensions in millimeters*
G04 Leading zeros omitted, absolute positions, 3 integers and 5 decimals*
%FSLAX35Y35*%
%MOMM*%
%ADD10C,0.1*%
G75*


G04 PolygonModel Start*
G54D10*
G01X1803119Y-160918D02*
G02X1083664Y-898916I-716487J-21204D01*
G01X1122015Y5400970D02*
G02X1800323Y4681861I12095J-668057D01*
G01X-10659138Y-897612D02*
G02X-11097744Y-479406I-62476J373580D01*
G01X-11102844Y3881150D02*
G02X-10368434Y4610460I721904J7475D01*
G01X-3717948Y5089866D02*
G02X-3480168Y5401588I325283J-1575D01*
G01X-3720253Y5092150D02*
G02X-3886250Y4610460I-583924J-68219D01*
G01X-3886250Y4610460D02*
G01X-10380940Y4610460D01*
G01X-11102882Y3888625D02*
G01X-11102882Y-484468D01*
G01X-11097744Y-489606D01*
G01X-10659138Y-897612D02*
G01X1083664Y-897612D01*
G01X1803119Y-160918D02*
G01X1803119Y4681861D01*
G01X1122015Y5400970D02*
G01X-3480168Y5400970D01*

G04 Rect Start*
G01X1575920Y708264D02*
G01X1575920Y1999226D01*
G01X1800000Y1999226D01*
G01X1800000Y708264D01*
G01X1575920Y708264D01*
G01X-3595547Y-900000D02*
G01X-3595547Y581408D01*
G01X-3229984Y581408D01*
G01X-3229984Y-900000D01*
G01X-3595547Y-900000D01*
G04 Rect End*

G04 Circle Start*
G01X-10925000Y2650000D02*
G03X-10575000Y2650000I175000J0D01*
G03X-10925000Y2650000I-175000J0D01*
G01X-10925000Y-550000D02*
G03X-10575000Y-550000I175000J0D01*
G03X-10925000Y-550000I-175000J0D01*
G01X-175000Y0D02*
G03X175000Y0I175000J0D01*
G03X-175000Y0I-175000J0D01*
G04 Circle End*

M02*

