G04 Layer: CustomLayer1*
G04 EasyEDA Pro v2.2.32.3, 2025-02-11 14:35:12*
G04 Gerber Generator version 0.3*
G04 Scale: 100 percent, Rotated: No, Reflected: No*
G04 Dimensions in millimeters*
G04 Leading zeros omitted, absolute positions, 3 integers and 5 decimals*
%FSLAX35Y35*%
%MOMM*%
%ADD10C,0.15*%
G75*


G04 PolygonModel Start*
G54D10*
G01X-3940839Y975910D02*
G01X-3940839Y543910D01*
G01X-4200839Y975910D02*
G01X-4200839Y543910D01*
G01X-4200839Y975910D02*
G01X-3940839Y975910D01*
G01X-4200839Y543910D02*
G01X-3940839Y543910D01*
G01X-1976327Y950409D02*
G01X-1976327Y518409D01*
G01X-2236327Y950409D02*
G01X-2236327Y518409D01*
G01X-2236327Y950409D02*
G01X-1976327Y950409D01*
G01X-2236327Y518409D02*
G01X-1976327Y518409D01*
G01X-369806Y909609D02*
G01X-369806Y477609D01*
G01X-629806Y909609D02*
G01X-629806Y477609D01*
G01X-629806Y909609D02*
G01X-369806Y909609D01*
G01X-629806Y477609D02*
G01X-369806Y477609D01*
G01X1517218Y970810D02*
G01X1517218Y538809D01*
G01X1257218Y970810D02*
G01X1257218Y538809D01*
G01X1257218Y970810D02*
G01X1517218Y970810D01*
G01X1257218Y538809D02*
G01X1517218Y538809D01*
G01X-4274400Y975910D02*
G01X-4274400Y543910D01*
G01X-4534400Y975910D02*
G01X-4534400Y543910D01*
G01X-4534400Y975910D02*
G01X-4274400Y975910D01*
G01X-4534400Y543910D02*
G01X-4274400Y543910D01*
G01X-2301031Y950409D02*
G01X-2301031Y518409D01*
G01X-2561031Y950409D02*
G01X-2561031Y518409D01*
G01X-2561031Y950409D02*
G01X-2301031Y950409D01*
G01X-2561031Y518409D02*
G01X-2301031Y518409D01*
G01X-696211Y909609D02*
G01X-696211Y477609D01*
G01X-956211Y909609D02*
G01X-956211Y477609D01*
G01X-956211Y909609D02*
G01X-696211Y909609D01*
G01X-956211Y477609D02*
G01X-696211Y477609D01*
G01X1211214Y970810D02*
G01X1211214Y538809D01*
G01X951214Y970810D02*
G01X951214Y538809D01*
G01X951214Y970810D02*
G01X1211214Y970810D01*
G01X951214Y538809D02*
G01X1211214Y538809D01*
G01X-4607961Y975910D02*
G01X-4607961Y543910D01*
G01X-4867961Y975910D02*
G01X-4867961Y543910D01*
G01X-4867961Y975910D02*
G01X-4607961Y975910D01*
G01X-4867961Y543910D02*
G01X-4607961Y543910D01*
G01X-2625736Y950409D02*
G01X-2625736Y518409D01*
G01X-2885736Y950409D02*
G01X-2885736Y518409D01*
G01X-2885736Y950409D02*
G01X-2625736Y950409D01*
G01X-2885736Y518409D02*
G01X-2625736Y518409D01*
G01X-1022615Y909609D02*
G01X-1022615Y477609D01*
G01X-1282615Y909609D02*
G01X-1282615Y477609D01*
G01X-1282615Y909609D02*
G01X-1022615Y909609D01*
G01X-1282615Y477609D02*
G01X-1022615Y477609D01*
G01X905210Y970810D02*
G01X905210Y538809D01*
G01X645210Y970810D02*
G01X645210Y538809D01*
G01X645210Y970810D02*
G01X905210Y970810D01*
G01X645210Y538809D02*
G01X905210Y538809D01*
G01X-3607279Y975910D02*
G01X-3607279Y543910D01*
G01X-3867279Y975910D02*
G01X-3867279Y543910D01*
G01X-3867279Y975910D02*
G01X-3607279Y975910D01*
G01X-3867279Y543910D02*
G01X-3607279Y543910D01*
G01X-2950440Y950409D02*
G01X-2950440Y518409D01*
G01X-3210440Y950409D02*
G01X-3210440Y518409D01*
G01X-3210440Y950409D02*
G01X-2950440Y950409D01*
G01X-3210440Y518409D02*
G01X-2950440Y518409D01*
G01X-1349019Y909609D02*
G01X-1349019Y477609D01*
G01X-1609019Y909609D02*
G01X-1609019Y477609D01*
G01X-1609019Y909609D02*
G01X-1349019Y909609D01*
G01X-1609019Y477609D02*
G01X-1349019Y477609D01*
G01X599206Y970810D02*
G01X599206Y538809D01*
G01X339206Y970810D02*
G01X339206Y538809D01*
G01X339206Y970810D02*
G01X599206Y970810D01*
G01X339206Y538809D02*
G01X599206Y538809D01*
G01X-8677814Y656111D02*
G01X-8677814Y1088112D01*
G01X-8937814Y656111D02*
G01X-8937814Y1088112D01*
G01X-8937814Y656111D02*
G01X-8677814Y656111D01*
G01X-8937814Y1088112D02*
G01X-8677814Y1088112D01*
G01X-9055219Y651011D02*
G01X-9055219Y1083012D01*
G01X-9315219Y651011D02*
G01X-9315219Y1083012D01*
G01X-9315219Y651011D02*
G01X-9055219Y651011D01*
G01X-9315219Y1083012D02*
G01X-9055219Y1083012D01*
G01X-8310506Y4030849D02*
G01X-8310506Y3598849D01*
G01X-8050506Y4030849D02*
G01X-8050506Y3598849D01*
G01X-8050506Y4030849D02*
G01X-8310506Y4030849D01*
G01X-8050506Y3598849D02*
G01X-8310506Y3598849D01*

M02*

