G04 Layer: DrillDrawingLayer*
G04 EasyEDA Pro v2.2.32.3, 2025-02-11 14:35:12*
G04 Gerber Generator version 0.3*
G04 Scale: 100 percent, Rotated: No, Reflected: No*
G04 Dimensions in millimeters*
G04 Leading zeros omitted, absolute positions, 3 integers and 5 decimals*
%FSLAX35Y35*%
%MOMM*%
%AMIconRect*4,1,4,0.2,-0.2,-0.2,-0.2,-0.2,0.2,0.2,0.2,0.2,-0.2,0*4,0,4,0.166667,-0.166667,0.166667,0.166667,-0.166667,0.166667,-0.166667,-0.166667,0.166667,-0.166667,0*%
%AMIconTriangle*4,1,3,-0.242567,0.171767,0.242567,0.171767,0,-0.2706,-0.242567,0.171767,0*4,0,3,-0.189767,0.1386,0,-0.1953,0.190167,0.1386,-0.189767,0.1386,0*%
%AMIconStar6*4,1,12,0.0862,0.1492,0.213233,0.123367,0.172367,0,0.213233,-0.1229,0.0862,-0.148733,0,-0.245767,-0.085767,-0.148733,-0.213267,-0.1229,-0.171933,0,-0.213267,0.1229,-0.085767,0.1492,0,0.245767,0.0862,0.1492,0*4,0,12,-0.000333,0.195333,-0.064333,0.122667,-0.169667,0.097667,-0.138333,-0.005333,-0.169667,-0.098,-0.064333,-0.122667,-0.000333,-0.195667,0.064333,-0.122667,0.169667,-0.098,0.138667,0.005,0.169667,0.098,0.064333,0.122333,-0.000333,0.195333,0*%
%AMIconStar4*4,1,8,-0.222667,0.222667,0,0.144667,0.222667,0.222667,0.144667,0,0.222667,-0.222667,0,-0.144667,-0.217433,-0.222667,-0.144667,0,-0.222667,0.222667,0*4,0,8,0.166667,-0.166667,0.108,0,0.166667,0.166667,0,0.108,-0.166667,0.166667,-0.108,0,-0.166667,-0.166667,0,-0.108,0.166667,-0.166667,0*%
%AMIconPlus*4,1,12,0.124,-0.2,-0.124,-0.2,-0.124,-0.124,-0.2,-0.124,-0.2,0.124,-0.124,0.124,-0.124,0.2,0.124,0.2,0.124,0.124,0.2,0.124,0.2,-0.124,0.124,-0.124,0.124,-0.2,0*4,0,12,0.090667,-0.166667,0.090667,-0.090667,0.166667,-0.090667,0.166667,0.090667,0.090667,0.090667,0.090667,0.166667,-0.090667,0.166667,-0.090667,0.090667,-0.166667,0.090667,-0.166667,-0.090667,-0.090667,-0.090667,-0.090667,-0.166667,0.090667,-0.166667,0*%
%ADD10IconRect*%
%ADD11C,0.44X0.373333*%
%ADD12IconTriangle*%
%ADD13IconStar6*%
%ADD14IconStar4*%
%ADD15IconPlus*%
G75*


G04 Drill Drawing Start*
G54D10*
G01X-3335443Y1601421D03*
G01X-1693222Y1601421D03*
G01X188702Y1596321D03*
G54D11*
G01X-9419855Y-76501D03*
G01X-8919983Y-76501D03*
G01X-6211913Y4141254D03*
G01X-5712041Y4141254D03*
G54D12*
G01X-5028665Y4146354D03*
G01X-5028665Y4400354D03*
G01X-4774665Y4146354D03*
G01X-4774665Y4400354D03*
G01X-4520665Y4146354D03*
G01X-4520665Y4400354D03*
G54D13*
G01X-10847840Y3534847D03*
G01X-10847840Y3788847D03*
G01X-10832540Y1566222D03*
G01X-10832540Y1820222D03*
G01X-6527583Y408005D03*
G01X-6273583Y408005D03*
G54D14*
G01X-4646160Y0D03*
G01X-4392160Y0D03*
G01X-4138160Y0D03*
G01X-3884160Y0D03*
G01X-3396600Y5034985D03*
G01X-3142600Y5034985D03*
G01X-3000000Y0D03*
G01X-2888600Y5034985D03*
G01X-2746000Y0D03*
G01X-2634600Y5034985D03*
G01X-2492000Y0D03*
G01X-2238000Y0D03*
G01X-2053900Y5040100D03*
G01X-1799900Y5040100D03*
G01X-1545900Y5040100D03*
G01X-1362000Y0D03*
G01X-1291900Y5040100D03*
G01X-1108000Y0D03*
G01X-854000Y0D03*
G01X-711200Y5035000D03*
G01X-600000Y0D03*
G01X-457200Y5035000D03*
G01X-203200Y5035000D03*
G01X50800Y5035000D03*
G01X610200Y30600D03*
G01X631500Y5035000D03*
G01X864200Y30600D03*
G01X885500Y5035000D03*
G01X1118200Y30600D03*
G01X1139500Y5035000D03*
G01X1372200Y30600D03*
G01X1393500Y5035000D03*
G54D15*
G01X-10910371Y3995365D03*
G01X-10905271Y4102466D03*
G01X-10884871Y4214667D03*
G01X-10881528Y460336D03*
G01X-10881528Y582737D03*
G01X-10881528Y705139D03*
G01X-10881528Y827540D03*
G01X-10881528Y949942D03*
G01X-10881528Y1072344D03*
G01X-10787969Y4015765D03*
G01X-10787969Y4138166D03*
G01X-10787969Y4260568D03*
G01X-10787969Y4382970D03*
G01X-10769327Y460336D03*
G01X-10769327Y582737D03*
G01X-10769327Y705139D03*
G01X-10769327Y827540D03*
G01X-10769327Y949942D03*
G01X-10769327Y1072344D03*
G01X-10675768Y4015765D03*
G01X-10675768Y4138166D03*
G01X-10675768Y4260568D03*
G01X-10675768Y4382970D03*
G01X-10641825Y455236D03*
G01X-10641825Y577637D03*
G01X-10641825Y700039D03*
G01X-10641825Y822440D03*
G01X-10641825Y944842D03*
G01X-10641825Y1067243D03*
G01X-10614567Y3276255D03*
G01X-10614567Y3398657D03*
G01X-10614567Y3521058D03*
G01X-10614567Y3643460D03*
G01X-10614567Y3765862D03*
G01X-10614567Y3888263D03*
G01X-10594167Y1368831D03*
G01X-10594167Y1491232D03*
G01X-10594167Y1613634D03*
G01X-10594167Y1736035D03*
G01X-10594167Y1858437D03*
G01X-10594167Y1980838D03*
G01X-10548266Y4010665D03*
G01X-10548266Y4133066D03*
G01X-10548266Y4255468D03*
G01X-10548266Y4377870D03*
G01X-10548266Y4500271D03*
G01X-10502366Y3276255D03*
G01X-10502366Y3398657D03*
G01X-10502366Y3521058D03*
G01X-10502366Y3643460D03*
G01X-10502366Y3765862D03*
G01X-10502366Y3888263D03*
G01X-10483723Y-19071D03*
G01X-10481965Y1368831D03*
G01X-10481965Y1491232D03*
G01X-10481965Y1613634D03*
G01X-10481965Y1736035D03*
G01X-10481965Y1858437D03*
G01X-10481965Y1980838D03*
G01X-10478623Y220633D03*
G01X-10478623Y108431D03*
G01X-10473523Y776540D03*
G01X-10468423Y1016243D03*
G01X-10468423Y373635D03*
G01X-10468423Y904041D03*
G01X-10463323Y613338D03*
G01X-10463323Y501136D03*
G01X-10446265Y4245268D03*
G01X-10437822Y4377186D03*
G01X-10432722Y4504688D03*
G01X-10405464Y4071866D03*
G01X-10374864Y3271155D03*
G01X-10374864Y3393557D03*
G01X-10374864Y3515958D03*
G01X-10374864Y3638360D03*
G01X-10374864Y3760762D03*
G01X-10374864Y3883163D03*
G01X-10361321Y-19071D03*
G01X-10356221Y220633D03*
G01X-10356221Y4162984D03*
G01X-10356221Y108431D03*
G01X-10354464Y1363731D03*
G01X-10354464Y1486132D03*
G01X-10354464Y1608534D03*
G01X-10354464Y1730935D03*
G01X-10354464Y1853337D03*
G01X-10354464Y1975738D03*
G01X-10351121Y776540D03*
G01X-10346021Y1016243D03*
G01X-10346021Y373635D03*
G01X-10346021Y904041D03*
G01X-10340921Y613338D03*
G01X-10340921Y501136D03*
G01X-10315421Y4377186D03*
G01X-10310321Y4504688D03*
G01X-10238920Y-19071D03*
G01X-10233820Y220633D03*
G01X-10233820Y108431D03*
G01X-10228720Y776540D03*
G01X-10223619Y1016243D03*
G01X-10223619Y373635D03*
G01X-10223619Y904041D03*
G01X-10218519Y613338D03*
G01X-10218519Y501136D03*
G01X-10193019Y4377186D03*
G01X-10187919Y4504688D03*
G01X-10116518Y-19071D03*
G01X-10111418Y220633D03*
G01X-10111418Y108431D03*
G01X-10106318Y776540D03*
G01X-10101218Y1016243D03*
G01X-10101218Y373635D03*
G01X-10101218Y904041D03*
G01X-10096118Y613338D03*
G01X-10096118Y2495262D03*
G01X-10096118Y501136D03*
G01X-10094360Y3424157D03*
G01X-10094360Y3546559D03*
G01X-10094360Y3668960D03*
G01X-10094360Y3791362D03*
G01X-10094360Y3913764D03*
G01X-10094360Y4036165D03*
G01X-10091018Y2734965D03*
G01X-10091018Y2622764D03*
G01X-10070617Y4377186D03*
G01X-10065517Y4504688D03*
G01X-9994116Y-19071D03*
G01X-9989016Y220633D03*
G01X-9989016Y108431D03*
G01X-9983916Y776540D03*
G01X-9982159Y3424157D03*
G01X-9982159Y3546559D03*
G01X-9982159Y3668960D03*
G01X-9982159Y3791362D03*
G01X-9982159Y3913764D03*
G01X-9982159Y4036165D03*
G01X-9978816Y1016243D03*
G01X-9978816Y373635D03*
G01X-9978816Y904041D03*
G01X-9973716Y613338D03*
G01X-9973716Y2495262D03*
G01X-9973716Y501136D03*
G01X-9968616Y2734965D03*
G01X-9968616Y2622764D03*
G01X-9948216Y4377186D03*
G01X-9943116Y4504688D03*
G01X-9881915Y2887967D03*
G01X-9876815Y3127670D03*
G01X-9876815Y3015469D03*
G01X-9871715Y-19071D03*
G01X-9866615Y220633D03*
G01X-9866615Y108431D03*
G01X-9861515Y776540D03*
G01X-9856415Y1016243D03*
G01X-9856415Y373635D03*
G01X-9856415Y904041D03*
G01X-9854657Y3419057D03*
G01X-9854657Y3541459D03*
G01X-9854657Y3663860D03*
G01X-9854657Y3786262D03*
G01X-9854657Y3908663D03*
G01X-9854657Y4031065D03*
G01X-9851315Y613338D03*
G01X-9851315Y2495262D03*
G01X-9851315Y501136D03*
G01X-9846215Y2734965D03*
G01X-9846215Y2622764D03*
G01X-9825814Y4377186D03*
G01X-9820714Y4504688D03*
G01X-9759513Y2887967D03*
G01X-9754413Y3127670D03*
G01X-9754413Y3015469D03*
G01X-9728913Y2495262D03*
G01X-9723813Y2734965D03*
G01X-9723813Y2622764D03*
G01X-9676155Y3424157D03*
G01X-9676155Y3546559D03*
G01X-9676155Y3668960D03*
G01X-9676155Y3791362D03*
G01X-9676155Y3913764D03*
G01X-9676155Y4036165D03*
G01X-9637112Y2887967D03*
G01X-9632012Y3127670D03*
G01X-9632012Y3015469D03*
G01X-9606511Y2495262D03*
G01X-9601411Y4351686D03*
G01X-9601411Y2734965D03*
G01X-9601411Y2622764D03*
G01X-9586111Y4514888D03*
G01X-9563953Y3424157D03*
G01X-9563953Y3546559D03*
G01X-9563953Y3668960D03*
G01X-9563953Y3791362D03*
G01X-9563953Y3913764D03*
G01X-9563953Y4036165D03*
G01X-9524910Y4402687D03*
G01X-9514710Y2887967D03*
G01X-9509610Y3127670D03*
G01X-9509610Y3015469D03*
G01X-9494310Y-717780D03*
G01X-9489210Y-478077D03*
G01X-9489210Y-590278D03*
G01X-9484110Y2495262D03*
G01X-9479010Y2734965D03*
G01X-9479010Y2622764D03*
G01X-9436452Y3419057D03*
G01X-9436452Y3541459D03*
G01X-9436452Y3663860D03*
G01X-9436452Y3786262D03*
G01X-9436452Y3908663D03*
G01X-9436452Y4031065D03*
G01X-9433109Y4484288D03*
G01X-9392309Y2887967D03*
G01X-9387209Y3127670D03*
G01X-9387209Y3015469D03*
G01X-9371908Y-717780D03*
G01X-9366808Y-478077D03*
G01X-9366808Y-590278D03*
G01X-9315808Y4407787D03*
G01X-9269907Y2887967D03*
G01X-9264807Y3127670D03*
G01X-9264807Y3015469D03*
G01X-9249507Y-717780D03*
G01X-9244407Y-478077D03*
G01X-9244407Y-590278D03*
G01X-9127105Y-717780D03*
G01X-9122005Y-478077D03*
G01X-9122005Y-590278D03*
G01X-9004704Y-717780D03*
G01X-8999604Y-478077D03*
G01X-8999604Y-590278D03*
G01X-8882302Y-717780D03*
G01X-8877202Y-478077D03*
G01X-8877202Y-590278D03*
G01X-8311095Y-574978D03*
G01X-8305995Y-335275D03*
G01X-8305995Y-447476D03*
G01X-8285594Y-75171D03*
G01X-8280494Y164532D03*
G01X-8280494Y52330D03*
G01X-8254994Y434835D03*
G01X-8249894Y674538D03*
G01X-8249894Y562337D03*
G01X-8244794Y837741D03*
G01X-8239694Y1077444D03*
G01X-8239694Y965242D03*
G01X-8188693Y-574978D03*
G01X-8183593Y-335275D03*
G01X-8183593Y-447476D03*
G01X-8163193Y-75171D03*
G01X-8158093Y164532D03*
G01X-8158093Y52330D03*
G01X-8132592Y434835D03*
G01X-8127492Y674538D03*
G01X-8127492Y562337D03*
G01X-8122392Y837741D03*
G01X-8117292Y1077444D03*
G01X-8117292Y965242D03*
G01X-8066292Y-574978D03*
G01X-8061191Y-335275D03*
G01X-8061191Y-447476D03*
G01X-8040791Y-75171D03*
G01X-8035691Y164532D03*
G01X-8035691Y52330D03*
G01X-8010191Y434835D03*
G01X-8005091Y674538D03*
G01X-8005091Y562337D03*
G01X-7999991Y837741D03*
G01X-7994891Y1077444D03*
G01X-7994891Y965242D03*
G01X-7943890Y-574978D03*
G01X-7938790Y-335275D03*
G01X-7938790Y-447476D03*
G01X-7918390Y-75171D03*
G01X-7913290Y164532D03*
G01X-7913290Y52330D03*
G01X-7887789Y434835D03*
G01X-7882689Y674538D03*
G01X-7882689Y562337D03*
G01X-7877589Y837741D03*
G01X-7872489Y1077444D03*
G01X-7872489Y965242D03*
G01X-7826588Y-671879D03*
G01X-7826588Y-784080D03*
G01X-7821488Y-574978D03*
G01X-7816388Y-335275D03*
G01X-7816388Y-447476D03*
G01X-7795988Y-75171D03*
G01X-7790888Y164532D03*
G01X-7790888Y52330D03*
G01X-7765388Y434835D03*
G01X-7760288Y674538D03*
G01X-7760288Y562337D03*
G01X-7755188Y837741D03*
G01X-7750087Y1077444D03*
G01X-7750087Y965242D03*
G01X-7704187Y-671879D03*
G01X-7704187Y-784080D03*
G01X-7702429Y4255468D03*
G01X-7699087Y-574978D03*
G01X-7693987Y-335275D03*
G01X-7693987Y-447476D03*
G01X-7673586Y-75171D03*
G01X-7668486Y164532D03*
G01X-7668486Y52330D03*
G01X-7666729Y4479871D03*
G01X-7656529Y4362569D03*
G01X-7642986Y434835D03*
G01X-7637886Y674538D03*
G01X-7637886Y562337D03*
G01X-7632786Y837741D03*
G01X-7627686Y1077444D03*
G01X-7627686Y965242D03*
G01X-7581785Y-671879D03*
G01X-7581785Y-784080D03*
G01X-7561385Y1266146D03*
G01X-7556285Y1505849D03*
G01X-7556285Y1393648D03*
G01X-7551185Y1669051D03*
G01X-7546085Y1908754D03*
G01X-7546085Y1796553D03*
G01X-7510384Y-569878D03*
G01X-7505284Y-330175D03*
G01X-7505284Y-442376D03*
G01X-7459384Y-671879D03*
G01X-7459384Y-784080D03*
G01X-7457626Y614021D03*
G01X-7457626Y736422D03*
G01X-7457626Y858824D03*
G01X-7457626Y981226D03*
G01X-7457626Y1103627D03*
G01X-7454284Y-156772D03*
G01X-7449184Y82931D03*
G01X-7449184Y-29271D03*
G01X-7444083Y246133D03*
G01X-7438983Y485836D03*
G01X-7438983Y1266146D03*
G01X-7438983Y373635D03*
G01X-7433883Y1505849D03*
G01X-7433883Y1393648D03*
G01X-7428783Y1669051D03*
G01X-7423683Y1908754D03*
G01X-7423683Y1796553D03*
G01X-7387983Y-569878D03*
G01X-7382883Y-330175D03*
G01X-7382883Y-442376D03*
G01X-7345425Y614021D03*
G01X-7345425Y736422D03*
G01X-7345425Y858824D03*
G01X-7345425Y981226D03*
G01X-7345425Y1103627D03*
G01X-7336982Y-671879D03*
G01X-7336982Y-784080D03*
G01X-7331882Y-156772D03*
G01X-7326782Y82931D03*
G01X-7326782Y-29271D03*
G01X-7321682Y246133D03*
G01X-7316582Y485836D03*
G01X-7316582Y1266146D03*
G01X-7316582Y373635D03*
G01X-7311482Y1505849D03*
G01X-7311482Y1393648D03*
G01X-7306382Y1669051D03*
G01X-7301282Y1908754D03*
G01X-7301282Y1796553D03*
G01X-7296182Y2020956D03*
G01X-7291081Y2260659D03*
G01X-7291081Y2148457D03*
G01X-7265581Y-569878D03*
G01X-7260481Y-330175D03*
G01X-7260481Y-442376D03*
G01X-7234981Y-707579D03*
G01X-7217923Y608921D03*
G01X-7217923Y731322D03*
G01X-7217923Y853724D03*
G01X-7217923Y976125D03*
G01X-7217923Y1098527D03*
G01X-7209480Y-156772D03*
G01X-7204380Y82931D03*
G01X-7204380Y-29271D03*
G01X-7199280Y246133D03*
G01X-7194180Y485836D03*
G01X-7194180Y1266146D03*
G01X-7194180Y373635D03*
G01X-7189080Y1505849D03*
G01X-7189080Y1393648D03*
G01X-7183980Y1669051D03*
G01X-7178880Y1908754D03*
G01X-7178880Y1796553D03*
G01X-7173780Y2020956D03*
G01X-7168680Y2260659D03*
G01X-7168680Y2148457D03*
G01X-7138080Y-330175D03*
G01X-7138080Y-442376D03*
G01X-7122779Y-641279D03*
G01X-7117679Y1128444D03*
G01X-7117679Y1016243D03*
G01X-7087079Y-156772D03*
G01X-7081979Y82931D03*
G01X-7081979Y-29271D03*
G01X-7076879Y246133D03*
G01X-7071779Y485836D03*
G01X-7071779Y1266146D03*
G01X-7071779Y373635D03*
G01X-7066679Y1505849D03*
G01X-7066679Y1393648D03*
G01X-7061579Y1669051D03*
G01X-7056478Y1908754D03*
G01X-7056478Y1796553D03*
G01X-7051378Y2020956D03*
G01X-7046278Y2260659D03*
G01X-7046278Y2148457D03*
G01X-7041178Y761240D03*
G01X-7036078Y1000943D03*
G01X-7036078Y888741D03*
G01X-7010578Y-478077D03*
G01X-6964677Y-156772D03*
G01X-6959577Y-559678D03*
G01X-6959577Y82931D03*
G01X-6959577Y-29271D03*
G01X-6954477Y246133D03*
G01X-6949377Y485836D03*
G01X-6949377Y1266146D03*
G01X-6949377Y373635D03*
G01X-6944277Y-350575D03*
G01X-6944277Y1505849D03*
G01X-6944277Y1393648D03*
G01X-6939177Y1669051D03*
G01X-6934077Y1908754D03*
G01X-6934077Y1796553D03*
G01X-6928977Y2020956D03*
G01X-6923877Y2260659D03*
G01X-6923877Y2148457D03*
G01X-6918777Y761240D03*
G01X-6913677Y1000943D03*
G01X-6913677Y888741D03*
G01X-6842276Y-156772D03*
G01X-6837176Y82931D03*
G01X-6837176Y-29271D03*
G01X-6832754Y-479046D03*
G01X-6832076Y246133D03*
G01X-6826975Y485836D03*
G01X-6826975Y373635D03*
G01X-6821875Y-345475D03*
G01X-6806575Y2020956D03*
G01X-6801475Y2260659D03*
G01X-6801475Y2148457D03*
G01X-6796375Y761240D03*
G01X-6791275Y1000943D03*
G01X-6791275Y888741D03*
G01X-6763699Y4392426D03*
G01X-6763699Y4494428D03*
G01X-6684174Y2020956D03*
G01X-6679074Y2260659D03*
G01X-6679074Y2148457D03*
G01X-6673974Y761240D03*
G01X-6668873Y1000943D03*
G01X-6668873Y888741D03*
G01X-6651497Y4494428D03*
G01X-6646397Y4397526D03*
G01X-6633173Y-345475D03*
G01X-6628751Y-152642D03*
G01X-6557350Y-601448D03*
G01X-6552250Y-473946D03*
G01X-6551572Y761240D03*
G01X-6546472Y1000943D03*
G01X-6546472Y888741D03*
G01X-6523996Y4489328D03*
G01X-6518896Y4397526D03*
G01X-6439370Y-258774D03*
G01X-6434949Y-601448D03*
G01X-6434270Y-19071D03*
G01X-6434270Y-131272D03*
G01X-6429848Y-473946D03*
G01X-6429170Y761240D03*
G01X-6424070Y1000943D03*
G01X-6424070Y888741D03*
G01X-6316969Y-258774D03*
G01X-6312547Y-601448D03*
G01X-6311869Y-19071D03*
G01X-6311869Y-131272D03*
G01X-6307447Y-361745D03*
G01X-6307447Y-473946D03*
G01X-6194567Y-258774D03*
G01X-6190145Y-601448D03*
G01X-6189467Y-19071D03*
G01X-6189467Y-131272D03*
G01X-6185045Y-361745D03*
G01X-6185045Y-473946D03*
G01X-6161891Y4489328D03*
G01X-6158867Y730639D03*
G01X-6153767Y970342D03*
G01X-6153767Y858141D03*
G01X-6072166Y-258774D03*
G01X-6067744Y-601448D03*
G01X-6067066Y-19071D03*
G01X-6067066Y-131272D03*
G01X-6062644Y-361745D03*
G01X-6062644Y-473946D03*
G01X-6036465Y730639D03*
G01X-6031365Y970342D03*
G01X-6031365Y858141D03*
G01X-5975346Y2267247D03*
G01X-5975346Y2389649D03*
G01X-5975346Y2634452D03*
G01X-5975346Y2756854D03*
G01X-5975346Y2879255D03*
G01X-5949764Y-258774D03*
G01X-5947688Y4509728D03*
G01X-5945342Y-601448D03*
G01X-5944664Y-19071D03*
G01X-5944664Y-131272D03*
G01X-5940242Y-361745D03*
G01X-5940242Y-473946D03*
G01X-5914064Y730639D03*
G01X-5908964Y970342D03*
G01X-5908964Y858141D03*
G01X-5863144Y2267247D03*
G01X-5863144Y2512051D03*
G01X-5863144Y2634452D03*
G01X-5863144Y2756854D03*
G01X-5863144Y2879255D03*
G01X-5827363Y-258774D03*
G01X-5822262Y-19071D03*
G01X-5822262Y-131272D03*
G01X-5791662Y730639D03*
G01X-5786562Y970342D03*
G01X-5786562Y858141D03*
G01X-5750943Y2389649D03*
G01X-5750943Y2512051D03*
G01X-5750943Y2634452D03*
G01X-5750943Y2756854D03*
G01X-5733485Y4509728D03*
G01X-5669261Y224082D03*
G01X-5669261Y-574978D03*
G01X-5669261Y730639D03*
G01X-5664160Y463785D03*
G01X-5664160Y351584D03*
G01X-5664160Y-335275D03*
G01X-5664160Y-202673D03*
G01X-5664160Y970342D03*
G01X-5664160Y-447476D03*
G01X-5664160Y858141D03*
G01X-5659060Y37030D03*
G01X-5659060Y-75171D03*
G01X-5643760Y2316760D03*
G01X-5633560Y2418761D03*
G01X-5633560Y2525862D03*
G01X-5633560Y2643164D03*
G01X-5628460Y2882867D03*
G01X-5628460Y2770666D03*
G01X-5592760Y2184158D03*
G01X-5592760Y2071956D03*
G01X-5546859Y224082D03*
G01X-5546859Y-574978D03*
G01X-5546859Y730639D03*
G01X-5541759Y463785D03*
G01X-5541759Y351584D03*
G01X-5541759Y-335275D03*
G01X-5541759Y-202673D03*
G01X-5541759Y970342D03*
G01X-5541759Y-447476D03*
G01X-5541759Y858141D03*
G01X-5537679Y2418761D03*
G01X-5537679Y2525862D03*
G01X-5536659Y37030D03*
G01X-5536659Y-75171D03*
G01X-5534583Y4336326D03*
G01X-5534583Y4458727D03*
G01X-5521359Y2316760D03*
G01X-5511158Y2643164D03*
G01X-5509401Y3408857D03*
G01X-5509401Y3531259D03*
G01X-5509401Y3653660D03*
G01X-5509401Y3776062D03*
G01X-5509401Y3898463D03*
G01X-5509401Y4020865D03*
G01X-5506058Y2882867D03*
G01X-5506058Y2770666D03*
G01X-5485658Y3046069D03*
G01X-5480558Y3285772D03*
G01X-5480558Y3173571D03*
G01X-5470358Y2184158D03*
G01X-5470358Y2071956D03*
G01X-5432582Y4122123D03*
G01X-5424457Y224082D03*
G01X-5424457Y-574978D03*
G01X-5422381Y4213924D03*
G01X-5422381Y4336326D03*
G01X-5422381Y4458727D03*
G01X-5419357Y351584D03*
G01X-5419357Y463785D03*
G01X-5419357Y-335275D03*
G01X-5419357Y-202673D03*
G01X-5419357Y-447476D03*
G01X-5414257Y37030D03*
G01X-5414257Y-75171D03*
G01X-5400997Y2418761D03*
G01X-5400997Y2525862D03*
G01X-5398957Y2316760D03*
G01X-5397200Y3408857D03*
G01X-5397200Y3531259D03*
G01X-5397200Y3653660D03*
G01X-5397200Y3776062D03*
G01X-5397200Y3898463D03*
G01X-5397200Y4020865D03*
G01X-5388757Y2643164D03*
G01X-5383657Y2882867D03*
G01X-5383657Y2770666D03*
G01X-5363257Y3046069D03*
G01X-5358156Y3285772D03*
G01X-5358156Y3173571D03*
G01X-5347956Y2184158D03*
G01X-5347956Y2071956D03*
G01X-5312256Y613338D03*
G01X-5302056Y224082D03*
G01X-5302056Y-574978D03*
G01X-5302056Y756139D03*
G01X-5296956Y351584D03*
G01X-5296956Y463785D03*
G01X-5296956Y-335275D03*
G01X-5296956Y-202673D03*
G01X-5296956Y-447476D03*
G01X-5294880Y4208824D03*
G01X-5294880Y4331225D03*
G01X-5294880Y4453627D03*
G01X-5291856Y37030D03*
G01X-5291856Y-75171D03*
G01X-5276555Y2316760D03*
G01X-5269698Y3403757D03*
G01X-5269698Y3526158D03*
G01X-5269698Y3648560D03*
G01X-5269698Y3770962D03*
G01X-5269698Y3893363D03*
G01X-5269698Y4015765D03*
G01X-5266355Y2643164D03*
G01X-5264315Y2418761D03*
G01X-5264315Y2525862D03*
G01X-5261255Y2882867D03*
G01X-5261255Y2770666D03*
G01X-5240855Y3046069D03*
G01X-5235755Y3173571D03*
G01X-5225555Y2184158D03*
G01X-5225555Y2071956D03*
G01X-5179654Y224082D03*
G01X-5179654Y-574978D03*
G01X-5174554Y463785D03*
G01X-5174554Y351584D03*
G01X-5174554Y-335275D03*
G01X-5174554Y-202673D03*
G01X-5174554Y-447476D03*
G01X-5169454Y37030D03*
G01X-5169454Y-75171D03*
G01X-5154154Y2316760D03*
G01X-5143954Y2643164D03*
G01X-5138854Y2882867D03*
G01X-5138854Y2770666D03*
G01X-5127633Y2418761D03*
G01X-5127633Y2525862D03*
G01X-5118453Y3046069D03*
G01X-5113353Y3285772D03*
G01X-5057253Y224082D03*
G01X-5057253Y-574978D03*
G01X-5052153Y463785D03*
G01X-5052153Y351584D03*
G01X-5052153Y-335275D03*
G01X-5052153Y-202673D03*
G01X-5052153Y-447476D03*
G01X-5047052Y37030D03*
G01X-5047052Y-75171D03*
G01X-5041952Y3964081D03*
G01X-5031752Y2316760D03*
G01X-5021552Y2418761D03*
G01X-5021552Y2525862D03*
G01X-5021552Y2643164D03*
G01X-5016452Y2770666D03*
G01X-4975652Y572537D03*
G01X-4965451Y873441D03*
G01X-4960351Y720439D03*
G01X-4952674Y1371194D03*
G01X-4936864Y1310717D03*
G01X-4922893Y2495945D03*
G01X-4922893Y2618347D03*
G01X-4922893Y2740748D03*
G01X-4922893Y2863150D03*
G01X-4922893Y2985551D03*
G01X-4919551Y3556076D03*
G01X-4914451Y1036643D03*
G01X-4909351Y3642777D03*
G01X-4889365Y1358068D03*
G01X-4888950Y3168471D03*
G01X-4874649Y1297270D03*
G01X-4810692Y2495945D03*
G01X-4810692Y2618347D03*
G01X-4810692Y2740748D03*
G01X-4810692Y2863150D03*
G01X-4810692Y2985551D03*
G01X-4766549Y3958981D03*
G01X-4683190Y2490845D03*
G01X-4683190Y2613247D03*
G01X-4683190Y2735648D03*
G01X-4683190Y2858050D03*
G01X-4683190Y2980451D03*
G01X-4683190Y3102853D03*
G01X-4613547Y3637677D03*
G01X-4608447Y3540775D03*
G01X-4604852Y-581366D03*
G01X-4599752Y-341663D03*
G01X-4599752Y-453864D03*
G01X-4542146Y3005269D03*
G01X-4526846Y802040D03*
G01X-4526846Y924442D03*
G01X-4516646Y1143744D03*
G01X-4516646Y1046843D03*
G01X-4506445Y1245746D03*
G01X-4506445Y1424248D03*
G01X-4506445Y3086870D03*
G01X-4501345Y2683964D03*
G01X-4496245Y2576863D03*
G01X-4486045Y1327347D03*
G01X-4482450Y-581366D03*
G01X-4477350Y-341663D03*
G01X-4477350Y-453864D03*
G01X-4474088Y3964764D03*
G01X-4419744Y1424248D03*
G01X-4396257Y3284443D03*
G01X-4394244Y2571763D03*
G01X-4394244Y2459562D03*
G01X-4394244Y2683964D03*
G01X-4360048Y-581366D03*
G01X-4354948Y-341663D03*
G01X-4354948Y-453864D03*
G01X-4319756Y3371144D03*
G01X-4292243Y3923280D03*
G01X-4271842Y2571763D03*
G01X-4271842Y2459562D03*
G01X-4271842Y2683964D03*
G01X-4266742Y3780479D03*
G01X-4253455Y3498645D03*
G01X-4251442Y1169245D03*
G01X-4246342Y1006043D03*
G01X-4237647Y-581366D03*
G01X-4232547Y-341663D03*
G01X-4232547Y-453864D03*
G01X-4229284Y4066765D03*
G01X-4149441Y2571763D03*
G01X-4149441Y2459562D03*
G01X-4149441Y2683964D03*
G01X-4115245Y-581366D03*
G01X-4110145Y-341663D03*
G01X-4110145Y-453864D03*
G01X-4027039Y2571763D03*
G01X-4027039Y2459562D03*
G01X-4027039Y2683964D03*
G01X-4006639Y822440D03*
G01X-4006639Y944842D03*
G01X-3998452Y4192254D03*
G01X-3996439Y1164145D03*
G01X-3996439Y1067243D03*
G01X-3992844Y-581366D03*
G01X-3987744Y-341663D03*
G01X-3987744Y-453864D03*
G01X-3986239Y1266146D03*
G01X-3960738Y1388548D03*
G01X-3955638Y1459949D03*
G01X-3904638Y2571763D03*
G01X-3904638Y2459562D03*
G01X-3904638Y2683964D03*
G01X-3884237Y1475249D03*
G01X-3879137Y3061369D03*
G01X-3874037Y3168471D03*
G01X-3782236Y2571763D03*
G01X-3782236Y2459562D03*
G01X-3782236Y2683964D03*
G01X-3774049Y3935645D03*
G01X-3736335Y4688290D03*
G01X-3731235Y1179445D03*
G01X-3670035Y2576863D03*
G01X-3664935Y4846392D03*
G01X-3656747Y4161654D03*
G01X-3654734Y5024895D03*
G01X-3654734Y2668664D03*
G01X-3649634Y5152396D03*
G01X-3634334Y1337547D03*
G01X-3568033Y1057043D03*
G01X-3537534Y756762D03*
G01X-3532333Y2862467D03*
G01X-3521328Y2588902D03*
G01X-3521328Y2701104D03*
G01X-3471132Y654138D03*
G01X-3466032Y4611789D03*
G01X-3415031Y2847167D03*
G01X-3398926Y2476701D03*
G01X-3398926Y2701104D03*
G01X-3282430Y4851492D03*
G01X-3276524Y2588902D03*
G01X-3276524Y2476701D03*
G01X-3241626Y1006043D03*
G01X-3154123Y2588902D03*
G01X-3154123Y2476701D03*
G01X-3154123Y2701104D03*
G01X-3139628Y3081770D03*
G01X-3129428Y2995068D03*
G01X-3114128Y1102262D03*
G01X-3109027Y2785966D03*
G01X-3075963Y-570475D03*
G01X-3070863Y-330772D03*
G01X-3070863Y-442973D03*
G01X-3031721Y2588902D03*
G01X-3031721Y2476701D03*
G01X-3031721Y2701104D03*
G01X-3017226Y3158271D03*
G01X-3017226Y3046069D03*
G01X-3017226Y4698490D03*
G01X-2966226Y2852267D03*
G01X-2953561Y-570475D03*
G01X-2948461Y-330772D03*
G01X-2948461Y-442973D03*
G01X-2909320Y2588902D03*
G01X-2909320Y2701104D03*
G01X-2908367Y3624768D03*
G01X-2908367Y3747170D03*
G01X-2908367Y3869572D03*
G01X-2908367Y3991973D03*
G01X-2908367Y4114375D03*
G01X-2894825Y3158271D03*
G01X-2894825Y3046069D03*
G01X-2874424Y822440D03*
G01X-2874424Y944842D03*
G01X-2864224Y1164145D03*
G01X-2864224Y1067243D03*
G01X-2854024Y1266146D03*
G01X-2854024Y1444648D03*
G01X-2833624Y1347747D03*
G01X-2831160Y-570475D03*
G01X-2826060Y-330772D03*
G01X-2826060Y-442973D03*
G01X-2796166Y3624768D03*
G01X-2796166Y3747170D03*
G01X-2796166Y3869572D03*
G01X-2796166Y3991973D03*
G01X-2796166Y4114375D03*
G01X-2796166Y4236776D03*
G01X-2772423Y4815792D03*
G01X-2769336Y3274242D03*
G01X-2767323Y1444648D03*
G01X-2746923Y2566663D03*
G01X-2746923Y2454461D03*
G01X-2746923Y2678864D03*
G01X-2728535Y3381344D03*
G01X-2714565Y4338778D03*
G01X-2708758Y-570475D03*
G01X-2703658Y-330772D03*
G01X-2703658Y-442973D03*
G01X-2692835Y3498645D03*
G01X-2668664Y3619668D03*
G01X-2668664Y3742070D03*
G01X-2668664Y3864472D03*
G01X-2668664Y3986873D03*
G01X-2668664Y4109275D03*
G01X-2668664Y4231676D03*
G01X-2624521Y2566663D03*
G01X-2624521Y2454461D03*
G01X-2624521Y2678864D03*
G01X-2609221Y985642D03*
G01X-2604121Y1113144D03*
G01X-2586357Y-570475D03*
G01X-2581257Y-330772D03*
G01X-2581257Y-442973D03*
G01X-2502120Y2566663D03*
G01X-2502120Y2454461D03*
G01X-2502120Y2678864D03*
G01X-2463955Y-570475D03*
G01X-2458855Y-330772D03*
G01X-2458855Y-442973D03*
G01X-2400118Y4428187D03*
G01X-2379718Y2566663D03*
G01X-2379718Y2454461D03*
G01X-2379718Y2678864D03*
G01X-2369518Y944842D03*
G01X-2359318Y1097844D03*
G01X-2354218Y791840D03*
G01X-2349118Y1204945D03*
G01X-2344017Y4530188D03*
G01X-2257316Y2566663D03*
G01X-2257316Y2454461D03*
G01X-2257316Y2678864D03*
G01X-2247116Y4637290D03*
G01X-2242016Y1357947D03*
G01X-2236916Y1449748D03*
G01X-2226716Y3071569D03*
G01X-2224676Y-570475D03*
G01X-2221616Y3178671D03*
G01X-2219576Y-330772D03*
G01X-2219576Y-442973D03*
G01X-2163148Y3602941D03*
G01X-2163148Y3725342D03*
G01X-2163148Y3847744D03*
G01X-2163148Y3970145D03*
G01X-2163148Y4092547D03*
G01X-2150215Y1444648D03*
G01X-2142000Y4742530D03*
G01X-2134915Y2566663D03*
G01X-2134915Y2454461D03*
G01X-2134915Y2678864D03*
G01X-2102275Y-570475D03*
G01X-2097175Y-330772D03*
G01X-2097175Y-442973D03*
G01X-2083914Y1102944D03*
G01X-2050947Y3602941D03*
G01X-2050947Y3725342D03*
G01X-2050947Y3847744D03*
G01X-2050947Y3970145D03*
G01X-2050947Y4092547D03*
G01X-2050947Y4214948D03*
G01X-2048214Y4820892D03*
G01X-1991831Y1265611D03*
G01X-1979873Y-570475D03*
G01X-1974773Y-330772D03*
G01X-1974773Y-442973D03*
G01X-1936012Y1041743D03*
G01X-1923445Y3597840D03*
G01X-1923445Y3720242D03*
G01X-1923445Y3842644D03*
G01X-1923445Y3965045D03*
G01X-1923445Y4087447D03*
G01X-1923445Y4209848D03*
G01X-1917625Y4365656D03*
G01X-1915612Y1342647D03*
G01X-1892320Y2556952D03*
G01X-1892320Y2669153D03*
G01X-1890112Y2179058D03*
G01X-1885012Y2265759D03*
G01X-1885012Y2342260D03*
G01X-1879911Y2852267D03*
G01X-1857472Y-570475D03*
G01X-1852372Y-330772D03*
G01X-1852372Y-442973D03*
G01X-1844211Y628638D03*
G01X-1827153Y107776D03*
G01X-1827153Y230178D03*
G01X-1827153Y352579D03*
G01X-1827153Y474981D03*
G01X-1826544Y3908945D03*
G01X-1825824Y4493158D03*
G01X-1769919Y2444750D03*
G01X-1769919Y2669153D03*
G01X-1757510Y2852267D03*
G01X-1735070Y-570475D03*
G01X-1729970Y-330772D03*
G01X-1729970Y-442973D03*
G01X-1714952Y107776D03*
G01X-1714952Y230178D03*
G01X-1714952Y352579D03*
G01X-1714952Y474981D03*
G01X-1647517Y2556952D03*
G01X-1647517Y2444750D03*
G01X-1640208Y975442D03*
G01X-1612668Y-570475D03*
G01X-1607568Y-330772D03*
G01X-1607568Y-442973D03*
G01X-1604508Y3188871D03*
G01X-1604508Y4433287D03*
G01X-1538207Y2862467D03*
G01X-1525116Y2556952D03*
G01X-1525116Y2444750D03*
G01X-1525116Y2669153D03*
G01X-1512707Y1064670D03*
G01X-1512707Y3010369D03*
G01X-1451506Y2740065D03*
G01X-1446406Y4366986D03*
G01X-1441306Y4606689D03*
G01X-1441306Y4494488D03*
G01X-1402714Y2556952D03*
G01X-1402714Y2444750D03*
G01X-1402714Y2669153D03*
G01X-1385205Y3097070D03*
G01X-1376792Y-602187D03*
G01X-1371692Y-362484D03*
G01X-1371692Y-474686D03*
G01X-1324004Y2780866D03*
G01X-1324004Y4366986D03*
G01X-1322938Y2916851D03*
G01X-1318904Y4606689D03*
G01X-1318904Y4494488D03*
G01X-1303604Y3153170D03*
G01X-1303604Y3040969D03*
G01X-1280312Y2556952D03*
G01X-1280312Y2669153D03*
G01X-1256302Y689338D03*
G01X-1254391Y-602187D03*
G01X-1249291Y-362484D03*
G01X-1249291Y-474686D03*
G01X-1227103Y807140D03*
G01X-1227103Y929542D03*
G01X-1216903Y1148845D03*
G01X-1216903Y1051943D03*
G01X-1206703Y1250846D03*
G01X-1206703Y1429348D03*
G01X-1201603Y4366986D03*
G01X-1196503Y4606689D03*
G01X-1196503Y4494488D03*
G01X-1186302Y1332447D03*
G01X-1181202Y3153170D03*
G01X-1181202Y3040969D03*
G01X-1173015Y3274242D03*
G01X-1131989Y-602187D03*
G01X-1127115Y3381344D03*
G01X-1126889Y-362484D03*
G01X-1126889Y-474686D03*
G01X-1121797Y2464662D03*
G01X-1121797Y2576863D03*
G01X-1121797Y2689064D03*
G01X-1120002Y1429348D03*
G01X-1081214Y3498645D03*
G01X-1079201Y4366986D03*
G01X-1074101Y4606689D03*
G01X-1074101Y4494488D03*
G01X-1009588Y-602187D03*
G01X-1004488Y-362484D03*
G01X-1004488Y-474686D03*
G01X-999395Y2464662D03*
G01X-999395Y2576863D03*
G01X-999395Y2689064D03*
G01X-956800Y4366986D03*
G01X-951699Y4606689D03*
G01X-951699Y4494488D03*
G01X-887186Y-602187D03*
G01X-882086Y-362484D03*
G01X-882086Y-474686D03*
G01X-876994Y2576863D03*
G01X-876994Y2464662D03*
G01X-876994Y2689064D03*
G01X-834398Y4366986D03*
G01X-829298Y4606689D03*
G01X-829298Y4494488D03*
G01X-764784Y-602187D03*
G01X-759684Y-474686D03*
G01X-759684Y-362484D03*
G01X-754592Y2576863D03*
G01X-754592Y2464662D03*
G01X-754592Y2689064D03*
G01X-732397Y1102944D03*
G01X-729898Y747869D03*
G01X-729898Y880338D03*
G01X-717096Y1000943D03*
G01X-717096Y1199845D03*
G01X-660996Y1296746D03*
G01X-632190Y2464662D03*
G01X-632190Y2576863D03*
G01X-632190Y2689064D03*
G01X-604895Y1465049D03*
G01X-599795Y1383448D03*
G01X-599795Y4474088D03*
G01X-589595Y4601589D03*
G01X-584495Y4729091D03*
G01X-578746Y3190467D03*
G01X-558345Y3669873D03*
G01X-527745Y3822875D03*
G01X-509789Y2464662D03*
G01X-509789Y2576863D03*
G01X-509789Y2689064D03*
G01X-502894Y1465049D03*
G01X-479406Y4074953D03*
G01X-461444Y3715774D03*
G01X-438606Y3962751D03*
G01X-405992Y1062143D03*
G01X-405343Y3822875D03*
G01X-370292Y1194745D03*
G01X-369643Y4072778D03*
G01X-365192Y3199071D03*
G01X-349892Y-727980D03*
G01X-344792Y-488277D03*
G01X-344792Y-600478D03*
G01X-329491Y4698490D03*
G01X-314191Y4805592D03*
G01X-303991Y1312047D03*
G01X-286933Y527320D03*
G01X-286933Y649721D03*
G01X-286933Y772123D03*
G01X-286933Y894524D03*
G01X-253708Y2790712D03*
G01X-253708Y2913114D03*
G01X-236885Y2588902D03*
G01X-236885Y2701104D03*
G01X-227490Y-727980D03*
G01X-222390Y-600478D03*
G01X-222390Y-488277D03*
G01X-207090Y3612176D03*
G01X-195132Y991426D03*
G01X-195132Y1113827D03*
G01X-195132Y1236229D03*
G01X-195132Y1358630D03*
G01X-174732Y527320D03*
G01X-174732Y649721D03*
G01X-174732Y772123D03*
G01X-174732Y894524D03*
G01X-141506Y2790712D03*
G01X-141506Y2913114D03*
G01X-114483Y2476701D03*
G01X-114483Y2701104D03*
G01X-105089Y-727980D03*
G01X-99988Y-600478D03*
G01X-99988Y-488277D03*
G01X-84039Y4312482D03*
G01X-82931Y991426D03*
G01X-82931Y1113827D03*
G01X-82931Y1236229D03*
G01X-82931Y1358630D03*
G01X-57430Y522220D03*
G01X-57430Y644621D03*
G01X-57430Y767023D03*
G01X-57430Y889424D03*
G01X-53439Y4455283D03*
G01X-44605Y2800912D03*
G01X-14005Y2908014D03*
G01X7918Y2588902D03*
G01X7918Y2476701D03*
G01X17313Y-727980D03*
G01X22413Y-488277D03*
G01X22413Y-600478D03*
G01X42813Y3122570D03*
G01X42813Y3010369D03*
G01X54771Y522220D03*
G01X54771Y644621D03*
G01X54771Y767023D03*
G01X54771Y889424D03*
G01X129515Y4616889D03*
G01X130320Y2476701D03*
G01X130320Y2588902D03*
G01X130320Y2701104D03*
G01X134615Y3122570D03*
G01X139715Y-727980D03*
G01X139715Y3010369D03*
G01X144815Y-488277D03*
G01X144815Y-600478D03*
G01X144815Y4372086D03*
G01X246816Y4463887D03*
G01X251916Y4591389D03*
G01X251916Y4703591D03*
G01X252721Y2476701D03*
G01X252721Y2588902D03*
G01X252721Y2701104D03*
G01X262116Y-727980D03*
G01X267216Y-600478D03*
G01X267216Y-488277D03*
G01X287617Y3010369D03*
G01X287617Y3122570D03*
G01X305518Y881801D03*
G01X313117Y1026443D03*
G01X313117Y4356786D03*
G01X328417Y4994294D03*
G01X343717Y4851492D03*
G01X343717Y5111596D03*
G01X369218Y4463887D03*
G01X374318Y4703591D03*
G01X374318Y4591389D03*
G01X375123Y2588902D03*
G01X375123Y2701104D03*
G01X410018Y3010369D03*
G01X410018Y3122570D03*
G01X421863Y1139833D03*
G01X459006Y3274242D03*
G01X467876Y3633260D03*
G01X467876Y3755661D03*
G01X467876Y3878063D03*
G01X467876Y4000465D03*
G01X467876Y4122866D03*
G01X467876Y4245268D03*
G01X491619Y4463887D03*
G01X494706Y3376244D03*
G01X496719Y4703591D03*
G01X496719Y4591389D03*
G01X517120Y2566663D03*
G01X517120Y2454461D03*
G01X517120Y2678864D03*
G01X525307Y3493545D03*
G01X532420Y4361886D03*
G01X563020Y1465049D03*
G01X580078Y3633260D03*
G01X580078Y3755661D03*
G01X580078Y3878063D03*
G01X580078Y4000465D03*
G01X580078Y4122866D03*
G01X580078Y4245268D03*
G01X593621Y1378348D03*
G01X624221Y1459949D03*
G01X639521Y2566663D03*
G01X639521Y1296746D03*
G01X639521Y2454461D03*
G01X639521Y2678864D03*
G01X649721Y-574978D03*
G01X654821Y-447476D03*
G01X654821Y-335275D03*
G01X705822Y1220245D03*
G01X707579Y3628160D03*
G01X707579Y3750561D03*
G01X707579Y3872963D03*
G01X707579Y3995365D03*
G01X707579Y4117766D03*
G01X707579Y4240168D03*
G01X741522Y1123470D03*
G01X741652Y814323D03*
G01X741652Y899694D03*
G01X741652Y1004468D03*
G01X761923Y2454461D03*
G01X761923Y2566663D03*
G01X761923Y2678864D03*
G01X761923Y4769891D03*
G01X772123Y-574978D03*
G01X777223Y-335275D03*
G01X777223Y4581189D03*
G01X777223Y-447476D03*
G01X884324Y2454461D03*
G01X884324Y2566663D03*
G01X884324Y2678864D03*
G01X894524Y-574978D03*
G01X899624Y-335275D03*
G01X899624Y-447476D03*
G01X958812Y4268755D03*
G01X971025Y1123344D03*
G01X1006726Y2566663D03*
G01X1006726Y2454461D03*
G01X1006726Y2678864D03*
G01X1016926Y-574978D03*
G01X1016926Y1459949D03*
G01X1022026Y-447476D03*
G01X1022026Y-335275D03*
G01X1032226Y3061369D03*
G01X1032226Y3171021D03*
G01X1032226Y3280672D03*
G01X1032226Y3423474D03*
G01X1032226Y3533125D03*
G01X1032226Y3642777D03*
G01X1035313Y4085153D03*
G01X1093427Y1454849D03*
G01X1124027Y1357947D03*
G01X1129127Y2566663D03*
G01X1129127Y2454461D03*
G01X1129127Y2678864D03*
G01X1139328Y-574978D03*
G01X1144428Y-447476D03*
G01X1144428Y-335275D03*
G01X1154628Y4387386D03*
G01X1195428Y1276346D03*
G01X1223530Y788291D03*
G01X1223530Y898886D03*
G01X1226029Y4259885D03*
G01X1236229Y1036643D03*
G01X1236229Y1159045D03*
G01X1251529Y2581963D03*
G01X1251529Y2704365D03*
G01X1251529Y3408174D03*
G01X1256629Y3586676D03*
G01X1261729Y-574978D03*
G01X1266829Y-335275D03*
G01X1266829Y-447476D03*
G01X1295417Y2024726D03*
G01X1297430Y4586289D03*
G01X1297430Y4474088D03*
G01X1317830Y4346586D03*
G01X1363731Y2581963D03*
G01X1363731Y2704365D03*
G01X1378313Y2132804D03*
G01X1383413Y2372507D03*
G01X1383413Y2260305D03*
G01X1404531Y1408948D03*
G01X1414731Y4346586D03*
G01X1419831Y4586289D03*
G01X1419831Y4474088D03*
G01X1430031Y2638064D03*
G01X1486132Y1301847D03*
G01X1491232Y2699265D03*
G01X1491232Y1398748D03*
G01X1496332Y1174345D03*
G01X1500715Y2132804D03*
G01X1505815Y2372507D03*
G01X1505815Y2260305D03*
G01X1506532Y1092744D03*
G01X1532033Y3497425D03*
G01X1537133Y4346586D03*
G01X1542233Y4474088D03*
G01X1542233Y4586289D03*
G01X1583033Y3273022D03*
G01X1623116Y2132804D03*
G01X1628216Y2260305D03*
G01X1628216Y2372507D03*
G01X1659534Y4346586D03*
G01X1664634Y4474088D03*
G01X1664634Y4586289D03*
G01X1704717Y2183804D03*
G01X1709818Y2306206D03*
G01X1709818Y2428607D03*
G04 Drill Drawing End*

M02*

