G04 Layer: TopSilkscreenLayer*
G04 EasyEDA Pro v2.2.32.3, 2025-02-11 14:35:12*
G04 Gerber Generator version 0.3*
G04 Scale: 100 percent, Rotated: No, Reflected: No*
G04 Dimensions in millimeters*
G04 Leading zeros omitted, absolute positions, 3 integers and 5 decimals*
%FSLAX35Y35*%
%MOMM*%
%ADD10C,0.13*%
%ADD11C,0.12*%
%ADD12C,0.3*%
%ADD13C,0.2*%
%ADD14C,0.254*%
%ADD15C,0.2032*%
%ADD16C,0.2076*%
%ADD17C,0.203*%
%ADD18C,0.1524*%
G75*


G04 Text Start*
G54D10*
G01X-1253112Y4824963D02*
G01X-1253112Y4741651D01*
G01X-1253112Y4824963D02*
G01X-1217552Y4824963D01*
G01X-1205614Y4820899D01*
G01X-1201550Y4817089D01*
G01X-1197740Y4809215D01*
G01X-1197740Y4797277D01*
G01X-1201550Y4789149D01*
G01X-1205614Y4785339D01*
G01X-1217552Y4781275D01*
G01X-1253112Y4781275D01*
G01X-1145924Y4824963D02*
G01X-1157862Y4820899D01*
G01X-1161672Y4813025D01*
G01X-1161672Y4805151D01*
G01X-1157862Y4797277D01*
G01X-1149734Y4793213D01*
G01X-1133986Y4789149D01*
G01X-1122048Y4785339D01*
G01X-1114174Y4777465D01*
G01X-1110110Y4769337D01*
G01X-1110110Y4757399D01*
G01X-1114174Y4749525D01*
G01X-1117984Y4745715D01*
G01X-1129922Y4741651D01*
G01X-1145924Y4741651D01*
G01X-1157862Y4745715D01*
G01X-1161672Y4749525D01*
G01X-1165736Y4757399D01*
G01X-1165736Y4769337D01*
G01X-1161672Y4777465D01*
G01X-1153798Y4785339D01*
G01X-1141860Y4789149D01*
G01X-1126112Y4793213D01*
G01X-1117984Y4797277D01*
G01X-1114174Y4805151D01*
G01X-1114174Y4813025D01*
G01X-1117984Y4820899D01*
G01X-1129922Y4824963D01*
G01X-1145924Y4824963D01*
G01X-5090127Y1622710D02*
G01X-5094191Y1630584D01*
G01X-5102065Y1638458D01*
G01X-5109939Y1642522D01*
G01X-5125941Y1642522D01*
G01X-5133815Y1638458D01*
G01X-5141689Y1630584D01*
G01X-5145753Y1622710D01*
G01X-5149563Y1610772D01*
G01X-5149563Y1590960D01*
G01X-5145753Y1579022D01*
G01X-5141689Y1571148D01*
G01X-5133815Y1563274D01*
G01X-5125941Y1559210D01*
G01X-5109939Y1559210D01*
G01X-5102065Y1563274D01*
G01X-5094191Y1571148D01*
G01X-5090127Y1579022D01*
G01X-5054059Y1622710D02*
G01X-5054059Y1626774D01*
G01X-5050249Y1634648D01*
G01X-5046185Y1638458D01*
G01X-5038311Y1642522D01*
G01X-5022309Y1642522D01*
G01X-5014435Y1638458D01*
G01X-5010371Y1634648D01*
G01X-5006561Y1626774D01*
G01X-5006561Y1618646D01*
G01X-5010371Y1610772D01*
G01X-5018499Y1598834D01*
G01X-5058123Y1559210D01*
G01X-5002497Y1559210D01*
G01X-4988125Y2244918D02*
G01X-4992189Y2252792D01*
G01X-5000063Y2260666D01*
G01X-5007937Y2264730D01*
G01X-5023939Y2264730D01*
G01X-5031813Y2260666D01*
G01X-5039687Y2252792D01*
G01X-5043751Y2244918D01*
G01X-5047561Y2232980D01*
G01X-5047561Y2213168D01*
G01X-5043751Y2201230D01*
G01X-5039687Y2193356D01*
G01X-5031813Y2185482D01*
G01X-5023939Y2181418D01*
G01X-5007937Y2181418D01*
G01X-5000063Y2185482D01*
G01X-4992189Y2193356D01*
G01X-4988125Y2201230D01*
G01X-4904559Y2237044D02*
G01X-4908369Y2225106D01*
G01X-4916497Y2217232D01*
G01X-4928181Y2213168D01*
G01X-4932245Y2213168D01*
G01X-4944183Y2217232D01*
G01X-4952057Y2225106D01*
G01X-4956121Y2237044D01*
G01X-4956121Y2240854D01*
G01X-4952057Y2252792D01*
G01X-4944183Y2260666D01*
G01X-4932245Y2264730D01*
G01X-4928181Y2264730D01*
G01X-4916497Y2260666D01*
G01X-4908369Y2252792D01*
G01X-4904559Y2237044D01*
G01X-4904559Y2217232D01*
G01X-4908369Y2197166D01*
G01X-4916497Y2185482D01*
G01X-4928181Y2181418D01*
G01X-4936309Y2181418D01*
G01X-4948247Y2185482D01*
G01X-4952057Y2193356D01*
G01X-3141902Y1479908D02*
G01X-3145966Y1487782D01*
G01X-3153840Y1495656D01*
G01X-3161714Y1499720D01*
G01X-3177716Y1499720D01*
G01X-3185590Y1495656D01*
G01X-3193464Y1487782D01*
G01X-3197528Y1479908D01*
G01X-3201338Y1467970D01*
G01X-3201338Y1448158D01*
G01X-3197528Y1436220D01*
G01X-3193464Y1428346D01*
G01X-3185590Y1420472D01*
G01X-3177716Y1416408D01*
G01X-3161714Y1416408D01*
G01X-3153840Y1420472D01*
G01X-3145966Y1428346D01*
G01X-3141902Y1436220D01*
G01X-3109898Y1483972D02*
G01X-3102024Y1487782D01*
G01X-3090086Y1499720D01*
G01X-3090086Y1416408D01*
G01X-3010330Y1487782D02*
G01X-3014394Y1495656D01*
G01X-3026332Y1499720D01*
G01X-3034206Y1499720D01*
G01X-3046144Y1495656D01*
G01X-3054018Y1483972D01*
G01X-3058082Y1463906D01*
G01X-3058082Y1444094D01*
G01X-3054018Y1428346D01*
G01X-3046144Y1420472D01*
G01X-3034206Y1416408D01*
G01X-3030142Y1416408D01*
G01X-3018458Y1420472D01*
G01X-3010330Y1428346D01*
G01X-3006520Y1440284D01*
G01X-3006520Y1444094D01*
G01X-3010330Y1456032D01*
G01X-3018458Y1463906D01*
G01X-3030142Y1467970D01*
G01X-3034206Y1467970D01*
G01X-3046144Y1463906D01*
G01X-3054018Y1456032D01*
G01X-3058082Y1444094D01*
G01X-3162302Y2494821D02*
G01X-3166366Y2502695D01*
G01X-3174240Y2510569D01*
G01X-3182114Y2514633D01*
G01X-3198116Y2514633D01*
G01X-3205990Y2510569D01*
G01X-3213864Y2502695D01*
G01X-3217928Y2494821D01*
G01X-3221738Y2482883D01*
G01X-3221738Y2463071D01*
G01X-3217928Y2451133D01*
G01X-3213864Y2443259D01*
G01X-3205990Y2435385D01*
G01X-3198116Y2431321D01*
G01X-3182114Y2431321D01*
G01X-3174240Y2435385D01*
G01X-3166366Y2443259D01*
G01X-3162302Y2451133D01*
G01X-3130298Y2498885D02*
G01X-3122424Y2502695D01*
G01X-3110486Y2514633D01*
G01X-3110486Y2431321D01*
G01X-3026920Y2486947D02*
G01X-3030730Y2475009D01*
G01X-3038858Y2467135D01*
G01X-3050542Y2463071D01*
G01X-3054606Y2463071D01*
G01X-3066544Y2467135D01*
G01X-3074418Y2475009D01*
G01X-3078482Y2486947D01*
G01X-3078482Y2490757D01*
G01X-3074418Y2502695D01*
G01X-3066544Y2510569D01*
G01X-3054606Y2514633D01*
G01X-3050542Y2514633D01*
G01X-3038858Y2510569D01*
G01X-3030730Y2502695D01*
G01X-3026920Y2486947D01*
G01X-3026920Y2467135D01*
G01X-3030730Y2447069D01*
G01X-3038858Y2435385D01*
G01X-3050542Y2431321D01*
G01X-3058670Y2431321D01*
G01X-3070608Y2435385D01*
G01X-3074418Y2443259D01*
G01X-1489480Y1485008D02*
G01X-1493544Y1492882D01*
G01X-1501418Y1500756D01*
G01X-1509292Y1504820D01*
G01X-1525294Y1504820D01*
G01X-1533168Y1500756D01*
G01X-1541042Y1492882D01*
G01X-1545106Y1485008D01*
G01X-1548916Y1473070D01*
G01X-1548916Y1453258D01*
G01X-1545106Y1441320D01*
G01X-1541042Y1433446D01*
G01X-1533168Y1425572D01*
G01X-1525294Y1421508D01*
G01X-1509292Y1421508D01*
G01X-1501418Y1425572D01*
G01X-1493544Y1433446D01*
G01X-1489480Y1441320D01*
G01X-1453412Y1485008D02*
G01X-1453412Y1489072D01*
G01X-1449602Y1496946D01*
G01X-1445538Y1500756D01*
G01X-1437664Y1504820D01*
G01X-1421662Y1504820D01*
G01X-1413788Y1500756D01*
G01X-1409724Y1496946D01*
G01X-1405914Y1489072D01*
G01X-1405914Y1480944D01*
G01X-1409724Y1473070D01*
G01X-1417852Y1461132D01*
G01X-1457476Y1421508D01*
G01X-1401850Y1421508D01*
G01X-1369846Y1489072D02*
G01X-1361972Y1492882D01*
G01X-1350034Y1504820D01*
G01X-1350034Y1421508D01*
G01X-1560881Y2489721D02*
G01X-1564945Y2497595D01*
G01X-1572819Y2505469D01*
G01X-1580693Y2509533D01*
G01X-1596695Y2509533D01*
G01X-1604569Y2505469D01*
G01X-1612443Y2497595D01*
G01X-1616507Y2489721D01*
G01X-1620317Y2477783D01*
G01X-1620317Y2457971D01*
G01X-1616507Y2446033D01*
G01X-1612443Y2438159D01*
G01X-1604569Y2430285D01*
G01X-1596695Y2426221D01*
G01X-1580693Y2426221D01*
G01X-1572819Y2430285D01*
G01X-1564945Y2438159D01*
G01X-1560881Y2446033D01*
G01X-1524813Y2489721D02*
G01X-1524813Y2493785D01*
G01X-1521003Y2501659D01*
G01X-1516939Y2505469D01*
G01X-1509065Y2509533D01*
G01X-1493063Y2509533D01*
G01X-1485189Y2505469D01*
G01X-1481125Y2501659D01*
G01X-1477315Y2493785D01*
G01X-1477315Y2485657D01*
G01X-1481125Y2477783D01*
G01X-1489253Y2465845D01*
G01X-1528877Y2426221D01*
G01X-1473251Y2426221D01*
G01X-1401623Y2509533D02*
G01X-1441247Y2453907D01*
G01X-1381557Y2453907D01*
G01X-1401623Y2509533D02*
G01X-1401623Y2426221D01*
G01X-3242710Y3203351D02*
G01X-3234836Y3207415D01*
G01X-3226962Y3215289D01*
G01X-3222898Y3223163D01*
G01X-3222898Y3239165D01*
G01X-3226962Y3247039D01*
G01X-3234836Y3254913D01*
G01X-3242710Y3258977D01*
G01X-3254648Y3262787D01*
G01X-3274460Y3262787D01*
G01X-3286398Y3258977D01*
G01X-3294272Y3254913D01*
G01X-3302146Y3247039D01*
G01X-3306210Y3239165D01*
G01X-3306210Y3223163D01*
G01X-3302146Y3215289D01*
G01X-3294272Y3207415D01*
G01X-3286398Y3203351D01*
G01X-3238646Y3171347D02*
G01X-3234836Y3163473D01*
G01X-3222898Y3151535D01*
G01X-3306210Y3151535D01*
G01X-3238646Y3119531D02*
G01X-3234836Y3111657D01*
G01X-3222898Y3099719D01*
G01X-3306210Y3099719D01*
G01X-1713883Y3382233D02*
G01X-1717947Y3390107D01*
G01X-1725821Y3397981D01*
G01X-1733695Y3402045D01*
G01X-1749697Y3402045D01*
G01X-1757571Y3397981D01*
G01X-1765445Y3390107D01*
G01X-1769509Y3382233D01*
G01X-1773319Y3370295D01*
G01X-1773319Y3350483D01*
G01X-1769509Y3338545D01*
G01X-1765445Y3330671D01*
G01X-1757571Y3322797D01*
G01X-1749697Y3318733D01*
G01X-1733695Y3318733D01*
G01X-1725821Y3322797D01*
G01X-1717947Y3330671D01*
G01X-1713883Y3338545D01*
G01X-1677815Y3382233D02*
G01X-1677815Y3386297D01*
G01X-1674005Y3394171D01*
G01X-1669941Y3397981D01*
G01X-1662067Y3402045D01*
G01X-1646065Y3402045D01*
G01X-1638191Y3397981D01*
G01X-1634127Y3394171D01*
G01X-1630317Y3386297D01*
G01X-1630317Y3378169D01*
G01X-1634127Y3370295D01*
G01X-1642255Y3358357D01*
G01X-1681879Y3318733D01*
G01X-1626253Y3318733D01*
G01X-1570373Y3402045D02*
G01X-1582311Y3397981D01*
G01X-1590185Y3386297D01*
G01X-1594249Y3366231D01*
G01X-1594249Y3354547D01*
G01X-1590185Y3334481D01*
G01X-1582311Y3322797D01*
G01X-1570373Y3318733D01*
G01X-1562499Y3318733D01*
G01X-1550561Y3322797D01*
G01X-1542687Y3334481D01*
G01X-1538623Y3354547D01*
G01X-1538623Y3366231D01*
G01X-1542687Y3386297D01*
G01X-1550561Y3397981D01*
G01X-1562499Y3402045D01*
G01X-1570373Y3402045D01*
G01X-137963Y3387333D02*
G01X-142027Y3395207D01*
G01X-149901Y3403081D01*
G01X-157775Y3407145D01*
G01X-173777Y3407145D01*
G01X-181651Y3403081D01*
G01X-189525Y3395207D01*
G01X-193589Y3387333D01*
G01X-197399Y3375395D01*
G01X-197399Y3355583D01*
G01X-193589Y3343645D01*
G01X-189525Y3335771D01*
G01X-181651Y3327897D01*
G01X-173777Y3323833D01*
G01X-157775Y3323833D01*
G01X-149901Y3327897D01*
G01X-142027Y3335771D01*
G01X-137963Y3343645D01*
G01X-101895Y3387333D02*
G01X-101895Y3391397D01*
G01X-98085Y3399271D01*
G01X-94021Y3403081D01*
G01X-86147Y3407145D01*
G01X-70145Y3407145D01*
G01X-62271Y3403081D01*
G01X-58207Y3399271D01*
G01X-54397Y3391397D01*
G01X-54397Y3383269D01*
G01X-58207Y3375395D01*
G01X-66335Y3363457D01*
G01X-105959Y3323833D01*
G01X-50333Y3323833D01*
G01X29423Y3407145D02*
G01X-10455Y3407145D01*
G01X-14265Y3371331D01*
G01X-10455Y3375395D01*
G01X1483Y3379459D01*
G01X13421Y3379459D01*
G01X25359Y3375395D01*
G01X33233Y3367521D01*
G01X37297Y3355583D01*
G01X37297Y3347709D01*
G01X33233Y3335771D01*
G01X25359Y3327897D01*
G01X13421Y3323833D01*
G01X1483Y3323833D01*
G01X-10455Y3327897D01*
G01X-14265Y3331707D01*
G01X-18329Y3339581D01*
G01X-46161Y1500308D02*
G01X-50225Y1508182D01*
G01X-58099Y1516056D01*
G01X-65973Y1520120D01*
G01X-81975Y1520120D01*
G01X-89849Y1516056D01*
G01X-97723Y1508182D01*
G01X-101787Y1500308D01*
G01X-105597Y1488370D01*
G01X-105597Y1468558D01*
G01X-101787Y1456620D01*
G01X-97723Y1448746D01*
G01X-89849Y1440872D01*
G01X-81975Y1436808D01*
G01X-65973Y1436808D01*
G01X-58099Y1440872D01*
G01X-50225Y1448746D01*
G01X-46161Y1456620D01*
G01X-6283Y1520120D02*
G01X37405Y1520120D01*
G01X13783Y1488370D01*
G01X25467Y1488370D01*
G01X33595Y1484306D01*
G01X37405Y1480496D01*
G01X41469Y1468558D01*
G01X41469Y1460684D01*
G01X37405Y1448746D01*
G01X29531Y1440872D01*
G01X17593Y1436808D01*
G01X5655Y1436808D01*
G01X-6283Y1440872D01*
G01X-10093Y1444682D01*
G01X-14157Y1452556D01*
G01X106841Y2489721D02*
G01X102777Y2497595D01*
G01X94903Y2505469D01*
G01X87029Y2509533D01*
G01X71027Y2509533D01*
G01X63153Y2505469D01*
G01X55279Y2497595D01*
G01X51215Y2489721D01*
G01X47405Y2477783D01*
G01X47405Y2457971D01*
G01X51215Y2446033D01*
G01X55279Y2438159D01*
G01X63153Y2430285D01*
G01X71027Y2426221D01*
G01X87029Y2426221D01*
G01X94903Y2430285D01*
G01X102777Y2438159D01*
G01X106841Y2446033D01*
G01X138845Y2493785D02*
G01X146719Y2497595D01*
G01X158657Y2509533D01*
G01X158657Y2426221D01*
G01X214537Y2509533D02*
G01X202599Y2505469D01*
G01X194725Y2493785D01*
G01X190661Y2473719D01*
G01X190661Y2462035D01*
G01X194725Y2441969D01*
G01X202599Y2430285D01*
G01X214537Y2426221D01*
G01X222411Y2426221D01*
G01X234349Y2430285D01*
G01X242223Y2441969D01*
G01X246287Y2462035D01*
G01X246287Y2473719D01*
G01X242223Y2493785D01*
G01X234349Y2505469D01*
G01X222411Y2509533D01*
G01X214537Y2509533D01*
G01X1443058Y3412833D02*
G01X1438994Y3420707D01*
G01X1431120Y3428581D01*
G01X1423246Y3432645D01*
G01X1407244Y3432645D01*
G01X1399370Y3428581D01*
G01X1391496Y3420707D01*
G01X1387432Y3412833D01*
G01X1383622Y3400895D01*
G01X1383622Y3381083D01*
G01X1387432Y3369145D01*
G01X1391496Y3361271D01*
G01X1399370Y3353397D01*
G01X1407244Y3349333D01*
G01X1423246Y3349333D01*
G01X1431120Y3353397D01*
G01X1438994Y3361271D01*
G01X1443058Y3369145D01*
G01X1475062Y3416897D02*
G01X1482936Y3420707D01*
G01X1494874Y3432645D01*
G01X1494874Y3349333D01*
G01X1530942Y3412833D02*
G01X1530942Y3416897D01*
G01X1534752Y3424771D01*
G01X1538816Y3428581D01*
G01X1546690Y3432645D01*
G01X1562692Y3432645D01*
G01X1570566Y3428581D01*
G01X1574630Y3424771D01*
G01X1578440Y3416897D01*
G01X1578440Y3408769D01*
G01X1574630Y3400895D01*
G01X1566502Y3388957D01*
G01X1526878Y3349333D01*
G01X1582504Y3349333D01*
G01X-9950490Y1214704D02*
G01X-9954554Y1222578D01*
G01X-9962428Y1230452D01*
G01X-9970302Y1234516D01*
G01X-9986304Y1234516D01*
G01X-9994178Y1230452D01*
G01X-10002052Y1222578D01*
G01X-10006116Y1214704D01*
G01X-10009926Y1202766D01*
G01X-10009926Y1182954D01*
G01X-10006116Y1171016D01*
G01X-10002052Y1163142D01*
G01X-9994178Y1155268D01*
G01X-9986304Y1151204D01*
G01X-9970302Y1151204D01*
G01X-9962428Y1155268D01*
G01X-9954554Y1163142D01*
G01X-9950490Y1171016D01*
G01X-9918486Y1218768D02*
G01X-9910612Y1222578D01*
G01X-9898674Y1234516D01*
G01X-9898674Y1151204D01*
G01X-8165467Y1204504D02*
G01X-8169531Y1212378D01*
G01X-8177405Y1220252D01*
G01X-8185279Y1224316D01*
G01X-8201281Y1224316D01*
G01X-8209155Y1220252D01*
G01X-8217029Y1212378D01*
G01X-8221093Y1204504D01*
G01X-8224903Y1192566D01*
G01X-8224903Y1172754D01*
G01X-8221093Y1160816D01*
G01X-8217029Y1152942D01*
G01X-8209155Y1145068D01*
G01X-8201281Y1141004D01*
G01X-8185279Y1141004D01*
G01X-8177405Y1145068D01*
G01X-8169531Y1152942D01*
G01X-8165467Y1160816D01*
G01X-8085711Y1212378D02*
G01X-8089775Y1220252D01*
G01X-8101713Y1224316D01*
G01X-8109587Y1224316D01*
G01X-8121525Y1220252D01*
G01X-8129399Y1208568D01*
G01X-8133463Y1188502D01*
G01X-8133463Y1168690D01*
G01X-8129399Y1152942D01*
G01X-8121525Y1145068D01*
G01X-8109587Y1141004D01*
G01X-8105523Y1141004D01*
G01X-8093839Y1145068D01*
G01X-8085711Y1152942D01*
G01X-8081901Y1164880D01*
G01X-8081901Y1168690D01*
G01X-8085711Y1180628D01*
G01X-8093839Y1188502D01*
G01X-8105523Y1192566D01*
G01X-8109587Y1192566D01*
G01X-8121525Y1188502D01*
G01X-8129399Y1180628D01*
G01X-8133463Y1168690D01*
G01X-7543258Y4223743D02*
G01X-7547322Y4231617D01*
G01X-7555196Y4239491D01*
G01X-7563070Y4243555D01*
G01X-7579072Y4243555D01*
G01X-7586946Y4239491D01*
G01X-7594820Y4231617D01*
G01X-7598884Y4223743D01*
G01X-7602694Y4211805D01*
G01X-7602694Y4191993D01*
G01X-7598884Y4180055D01*
G01X-7594820Y4172181D01*
G01X-7586946Y4164307D01*
G01X-7579072Y4160243D01*
G01X-7563070Y4160243D01*
G01X-7555196Y4164307D01*
G01X-7547322Y4172181D01*
G01X-7543258Y4180055D01*
G01X-7511254Y4227807D02*
G01X-7503380Y4231617D01*
G01X-7491442Y4243555D01*
G01X-7491442Y4160243D01*
G01X-7451564Y4243555D02*
G01X-7407876Y4243555D01*
G01X-7431498Y4211805D01*
G01X-7419814Y4211805D01*
G01X-7411686Y4207741D01*
G01X-7407876Y4203931D01*
G01X-7403812Y4191993D01*
G01X-7403812Y4184119D01*
G01X-7407876Y4172181D01*
G01X-7415750Y4164307D01*
G01X-7427688Y4160243D01*
G01X-7439626Y4160243D01*
G01X-7451564Y4164307D01*
G01X-7455374Y4168117D01*
G01X-7459438Y4175991D01*
G01X-6023439Y2862026D02*
G01X-6027503Y2869900D01*
G01X-6035377Y2877774D01*
G01X-6043251Y2881838D01*
G01X-6059253Y2881838D01*
G01X-6067127Y2877774D01*
G01X-6075001Y2869900D01*
G01X-6079065Y2862026D01*
G01X-6082875Y2850088D01*
G01X-6082875Y2830276D01*
G01X-6079065Y2818338D01*
G01X-6075001Y2810464D01*
G01X-6067127Y2802590D01*
G01X-6059253Y2798526D01*
G01X-6043251Y2798526D01*
G01X-6035377Y2802590D01*
G01X-6027503Y2810464D01*
G01X-6023439Y2818338D01*
G01X-5991435Y2866090D02*
G01X-5983561Y2869900D01*
G01X-5971623Y2881838D01*
G01X-5971623Y2798526D01*
G01X-5899995Y2881838D02*
G01X-5939619Y2826212D01*
G01X-5879929Y2826212D01*
G01X-5899995Y2881838D02*
G01X-5899995Y2798526D01*
G01X-7558559Y4458346D02*
G01X-7562623Y4466220D01*
G01X-7570497Y4474094D01*
G01X-7578371Y4478158D01*
G01X-7594373Y4478158D01*
G01X-7602247Y4474094D01*
G01X-7610121Y4466220D01*
G01X-7614185Y4458346D01*
G01X-7617995Y4446408D01*
G01X-7617995Y4426596D01*
G01X-7614185Y4414658D01*
G01X-7610121Y4406784D01*
G01X-7602247Y4398910D01*
G01X-7594373Y4394846D01*
G01X-7578371Y4394846D01*
G01X-7570497Y4398910D01*
G01X-7562623Y4406784D01*
G01X-7558559Y4414658D01*
G01X-7526555Y4462410D02*
G01X-7518681Y4466220D01*
G01X-7506743Y4478158D01*
G01X-7506743Y4394846D01*
G01X-7426987Y4478158D02*
G01X-7466865Y4478158D01*
G01X-7470675Y4442344D01*
G01X-7466865Y4446408D01*
G01X-7454927Y4450472D01*
G01X-7442989Y4450472D01*
G01X-7431051Y4446408D01*
G01X-7423177Y4438534D01*
G01X-7419113Y4426596D01*
G01X-7419113Y4418722D01*
G01X-7423177Y4406784D01*
G01X-7431051Y4398910D01*
G01X-7442989Y4394846D01*
G01X-7454927Y4394846D01*
G01X-7466865Y4398910D01*
G01X-7470675Y4402720D01*
G01X-7474739Y4410594D01*
G01X-8581907Y903012D02*
G01X-8581907Y819700D01*
G01X-8581907Y903012D02*
G01X-8554221Y903012D01*
G01X-8542283Y898948D01*
G01X-8534409Y891074D01*
G01X-8530345Y883200D01*
G01X-8526535Y871262D01*
G01X-8526535Y851450D01*
G01X-8530345Y839512D01*
G01X-8534409Y831638D01*
G01X-8542283Y823764D01*
G01X-8554221Y819700D01*
G01X-8581907Y819700D01*
G01X-8442969Y875326D02*
G01X-8446779Y863388D01*
G01X-8454907Y855514D01*
G01X-8466591Y851450D01*
G01X-8470655Y851450D01*
G01X-8482593Y855514D01*
G01X-8490467Y863388D01*
G01X-8494531Y875326D01*
G01X-8494531Y879136D01*
G01X-8490467Y891074D01*
G01X-8482593Y898948D01*
G01X-8470655Y903012D01*
G01X-8466591Y903012D01*
G01X-8454907Y898948D01*
G01X-8446779Y891074D01*
G01X-8442969Y875326D01*
G01X-8442969Y855514D01*
G01X-8446779Y835448D01*
G01X-8454907Y823764D01*
G01X-8466591Y819700D01*
G01X-8474719Y819700D01*
G01X-8486657Y823764D01*
G01X-8490467Y831638D01*
G01X-9591720Y897912D02*
G01X-9591720Y814600D01*
G01X-9591720Y897912D02*
G01X-9564034Y897912D01*
G01X-9552096Y893848D01*
G01X-9544222Y885974D01*
G01X-9540158Y878100D01*
G01X-9536348Y866162D01*
G01X-9536348Y846350D01*
G01X-9540158Y834412D01*
G01X-9544222Y826538D01*
G01X-9552096Y818664D01*
G01X-9564034Y814600D01*
G01X-9591720Y814600D01*
G01X-9504344Y882164D02*
G01X-9496470Y885974D01*
G01X-9484532Y897912D01*
G01X-9484532Y814600D01*
G01X-9428652Y897912D02*
G01X-9440590Y893848D01*
G01X-9448464Y882164D01*
G01X-9452528Y862098D01*
G01X-9452528Y850414D01*
G01X-9448464Y830348D01*
G01X-9440590Y818664D01*
G01X-9428652Y814600D01*
G01X-9420778Y814600D01*
G01X-9408840Y818664D01*
G01X-9400966Y830348D01*
G01X-9396902Y850414D01*
G01X-9396902Y862098D01*
G01X-9400966Y882164D01*
G01X-9408840Y893848D01*
G01X-9420778Y897912D01*
G01X-9428652Y897912D01*
G01X-8464606Y3391844D02*
G01X-8464606Y3308532D01*
G01X-8464606Y3391844D02*
G01X-8436920Y3391844D01*
G01X-8424982Y3387780D01*
G01X-8417108Y3379906D01*
G01X-8413044Y3372032D01*
G01X-8409234Y3360094D01*
G01X-8409234Y3340282D01*
G01X-8413044Y3328344D01*
G01X-8417108Y3320470D01*
G01X-8424982Y3312596D01*
G01X-8436920Y3308532D01*
G01X-8464606Y3308532D01*
G01X-8377230Y3376096D02*
G01X-8369356Y3379906D01*
G01X-8357418Y3391844D01*
G01X-8357418Y3308532D01*
G01X-8325414Y3376096D02*
G01X-8317540Y3379906D01*
G01X-8305602Y3391844D01*
G01X-8305602Y3308532D01*
G01X-6664282Y1581321D02*
G01X-6664282Y1498009D01*
G01X-6664282Y1581321D02*
G01X-6636596Y1581321D01*
G01X-6624658Y1577257D01*
G01X-6616784Y1569383D01*
G01X-6612720Y1561509D01*
G01X-6608910Y1549571D01*
G01X-6608910Y1529759D01*
G01X-6612720Y1517821D01*
G01X-6616784Y1509947D01*
G01X-6624658Y1502073D01*
G01X-6636596Y1498009D01*
G01X-6664282Y1498009D01*
G01X-6576906Y1565573D02*
G01X-6569032Y1569383D01*
G01X-6557094Y1581321D01*
G01X-6557094Y1498009D01*
G01X-6477338Y1569383D02*
G01X-6481402Y1577257D01*
G01X-6493340Y1581321D01*
G01X-6501214Y1581321D01*
G01X-6513152Y1577257D01*
G01X-6521026Y1565573D01*
G01X-6525090Y1545507D01*
G01X-6525090Y1525695D01*
G01X-6521026Y1509947D01*
G01X-6513152Y1502073D01*
G01X-6501214Y1498009D01*
G01X-6497150Y1498009D01*
G01X-6485466Y1502073D01*
G01X-6477338Y1509947D01*
G01X-6473528Y1521885D01*
G01X-6473528Y1525695D01*
G01X-6477338Y1537633D01*
G01X-6485466Y1545507D01*
G01X-6497150Y1549571D01*
G01X-6501214Y1549571D01*
G01X-6513152Y1545507D01*
G01X-6521026Y1537633D01*
G01X-6525090Y1525695D01*
G01X-7500693Y2346331D02*
G01X-7500693Y2263019D01*
G01X-7500693Y2263019D02*
G01X-7453195Y2263019D01*
G01X-7421191Y2330583D02*
G01X-7413317Y2334393D01*
G01X-7401379Y2346331D01*
G01X-7401379Y2263019D01*
G01X-4619313Y234392D02*
G01X-4619313Y317704D01*
G01X-4619313Y234392D02*
G01X-4654873Y234392D01*
G01X-4666811Y238456D01*
G01X-4670875Y242266D01*
G01X-4674685Y250140D01*
G01X-4674685Y262078D01*
G01X-4670875Y270206D01*
G01X-4666811Y274016D01*
G01X-4654873Y278080D01*
G01X-4619313Y278080D01*
G01X-4714563Y234392D02*
G01X-4758251Y234392D01*
G01X-4734629Y266142D01*
G01X-4746313Y266142D01*
G01X-4754441Y270206D01*
G01X-4758251Y274016D01*
G01X-4762315Y285954D01*
G01X-4762315Y293828D01*
G01X-4758251Y305766D01*
G01X-4750377Y313640D01*
G01X-4738439Y317704D01*
G01X-4726501Y317704D01*
G01X-4714563Y313640D01*
G01X-4710753Y309830D01*
G01X-4706689Y301956D01*
G01X-2931034Y285904D02*
G01X-2931034Y202592D01*
G01X-2931034Y285904D02*
G01X-2895474Y285904D01*
G01X-2883536Y281840D01*
G01X-2879472Y278030D01*
G01X-2875662Y270156D01*
G01X-2875662Y258218D01*
G01X-2879472Y250090D01*
G01X-2883536Y246280D01*
G01X-2895474Y242216D01*
G01X-2931034Y242216D01*
G01X-2792096Y258218D02*
G01X-2795906Y246280D01*
G01X-2804034Y238406D01*
G01X-2815718Y234342D01*
G01X-2819782Y234342D01*
G01X-2831720Y238406D01*
G01X-2839594Y246280D01*
G01X-2843658Y258218D01*
G01X-2843658Y262028D01*
G01X-2839594Y273966D01*
G01X-2831720Y281840D01*
G01X-2819782Y285904D01*
G01X-2815718Y285904D01*
G01X-2804034Y281840D01*
G01X-2795906Y273966D01*
G01X-2792096Y258218D01*
G01X-2792096Y238406D01*
G01X-2795906Y218340D01*
G01X-2804034Y206656D01*
G01X-2815718Y202592D01*
G01X-2823846Y202592D01*
G01X-2835784Y206656D01*
G01X-2839594Y214530D01*
G01X-1324513Y280804D02*
G01X-1324513Y197492D01*
G01X-1324513Y280804D02*
G01X-1288953Y280804D01*
G01X-1277015Y276740D01*
G01X-1272951Y272930D01*
G01X-1269141Y265056D01*
G01X-1269141Y253118D01*
G01X-1272951Y244990D01*
G01X-1277015Y241180D01*
G01X-1288953Y237116D01*
G01X-1324513Y237116D01*
G01X-1237137Y265056D02*
G01X-1229263Y268866D01*
G01X-1217325Y280804D01*
G01X-1217325Y197492D01*
G01X-1185321Y265056D02*
G01X-1177447Y268866D01*
G01X-1165509Y280804D01*
G01X-1165509Y197492D01*
G01X-9265316Y-224102D02*
G01X-9265316Y-307414D01*
G01X-9265316Y-224102D02*
G01X-9229756Y-224102D01*
G01X-9217818Y-228166D01*
G01X-9213754Y-231976D01*
G01X-9209944Y-239850D01*
G01X-9209944Y-251788D01*
G01X-9213754Y-259916D01*
G01X-9217818Y-263726D01*
G01X-9229756Y-267790D01*
G01X-9265316Y-267790D01*
G01X-9177940Y-239850D02*
G01X-9170066Y-236040D01*
G01X-9158128Y-224102D01*
G01X-9158128Y-307414D01*
G01X57605Y4824963D02*
G01X57605Y4741651D01*
G01X57605Y4824963D02*
G01X93165Y4824963D01*
G01X105103Y4820899D01*
G01X109167Y4817089D01*
G01X112977Y4809215D01*
G01X112977Y4797277D01*
G01X109167Y4789149D01*
G01X105103Y4785339D01*
G01X93165Y4781275D01*
G01X57605Y4781275D01*
G01X144981Y4809215D02*
G01X152855Y4813025D01*
G01X164793Y4824963D01*
G01X164793Y4741651D01*
G01X220673Y4824963D02*
G01X208735Y4820899D01*
G01X200861Y4809215D01*
G01X196797Y4789149D01*
G01X196797Y4777465D01*
G01X200861Y4757399D01*
G01X208735Y4745715D01*
G01X220673Y4741651D01*
G01X228547Y4741651D01*
G01X240485Y4745715D01*
G01X248359Y4757399D01*
G01X252423Y4777465D01*
G01X252423Y4789149D01*
G01X248359Y4809215D01*
G01X240485Y4820899D01*
G01X228547Y4824963D01*
G01X220673Y4824963D01*
G01X756314Y275704D02*
G01X756314Y192392D01*
G01X756314Y275704D02*
G01X791874Y275704D01*
G01X803812Y271640D01*
G01X807876Y267830D01*
G01X811686Y259956D01*
G01X811686Y248018D01*
G01X807876Y239890D01*
G01X803812Y236080D01*
G01X791874Y232016D01*
G01X756314Y232016D01*
G01X891442Y275704D02*
G01X851564Y275704D01*
G01X847754Y239890D01*
G01X851564Y243954D01*
G01X863502Y248018D01*
G01X875440Y248018D01*
G01X887378Y243954D01*
G01X895252Y236080D01*
G01X899316Y224142D01*
G01X899316Y216268D01*
G01X895252Y204330D01*
G01X887378Y196456D01*
G01X875440Y192392D01*
G01X863502Y192392D01*
G01X851564Y196456D01*
G01X847754Y200266D01*
G01X843690Y208140D01*
G01X-5180163Y4314956D02*
G01X-5180163Y4231644D01*
G01X-5180163Y4314956D02*
G01X-5144603Y4314956D01*
G01X-5132665Y4310892D01*
G01X-5128601Y4307082D01*
G01X-5124791Y4299208D01*
G01X-5124791Y4287270D01*
G01X-5128601Y4279142D01*
G01X-5132665Y4275332D01*
G01X-5144603Y4271268D01*
G01X-5180163Y4271268D01*
G01X-5092787Y4299208D02*
G01X-5084913Y4303018D01*
G01X-5072975Y4314956D01*
G01X-5072975Y4231644D01*
G01X-5036907Y4295144D02*
G01X-5036907Y4299208D01*
G01X-5033097Y4307082D01*
G01X-5029033Y4310892D01*
G01X-5021159Y4314956D01*
G01X-5005157Y4314956D01*
G01X-4997283Y4310892D01*
G01X-4993219Y4307082D01*
G01X-4989409Y4299208D01*
G01X-4989409Y4291080D01*
G01X-4993219Y4283206D01*
G01X-5001347Y4271268D01*
G01X-5040971Y4231644D01*
G01X-4985345Y4231644D01*
G01X1414222Y4809663D02*
G01X1414222Y4726351D01*
G01X1414222Y4809663D02*
G01X1449782Y4809663D01*
G01X1461720Y4805599D01*
G01X1465784Y4801789D01*
G01X1469594Y4793915D01*
G01X1469594Y4781977D01*
G01X1465784Y4773849D01*
G01X1461720Y4770039D01*
G01X1449782Y4765975D01*
G01X1414222Y4765975D01*
G01X1505662Y4789851D02*
G01X1505662Y4793915D01*
G01X1509472Y4801789D01*
G01X1513536Y4805599D01*
G01X1521410Y4809663D01*
G01X1537412Y4809663D01*
G01X1545286Y4805599D01*
G01X1549350Y4801789D01*
G01X1553160Y4793915D01*
G01X1553160Y4785787D01*
G01X1549350Y4777913D01*
G01X1541222Y4765975D01*
G01X1501598Y4726351D01*
G01X1557224Y4726351D01*
G01X-6016574Y4365957D02*
G01X-6016574Y4282645D01*
G01X-6016574Y4365957D02*
G01X-5981014Y4365957D01*
G01X-5969076Y4361893D01*
G01X-5965012Y4358083D01*
G01X-5961202Y4350209D01*
G01X-5961202Y4338271D01*
G01X-5965012Y4330143D01*
G01X-5969076Y4326333D01*
G01X-5981014Y4322269D01*
G01X-6016574Y4322269D01*
G01X-5873572Y4365957D02*
G01X-5913196Y4282645D01*
G01X-5929198Y4365957D02*
G01X-5873572Y4365957D01*
G01X-4491654Y1474220D02*
G01X-4491654Y1390908D01*
G01X-4491654Y1474220D02*
G01X-4456094Y1474220D01*
G01X-4444156Y1470156D01*
G01X-4440092Y1466346D01*
G01X-4436282Y1458472D01*
G01X-4436282Y1450344D01*
G01X-4440092Y1442470D01*
G01X-4444156Y1438406D01*
G01X-4456094Y1434596D01*
G01X-4491654Y1434596D01*
G01X-4463968Y1434596D02*
G01X-4436282Y1390908D01*
G01X-4396404Y1474220D02*
G01X-4352716Y1474220D01*
G01X-4376338Y1442470D01*
G01X-4364654Y1442470D01*
G01X-4356526Y1438406D01*
G01X-4352716Y1434596D01*
G01X-4348652Y1422658D01*
G01X-4348652Y1414784D01*
G01X-4352716Y1402846D01*
G01X-4360590Y1394972D01*
G01X-4372528Y1390908D01*
G01X-4384466Y1390908D01*
G01X-4396404Y1394972D01*
G01X-4400214Y1398782D01*
G01X-4404278Y1406656D01*
G01X-2793332Y1479320D02*
G01X-2793332Y1396008D01*
G01X-2793332Y1479320D02*
G01X-2757772Y1479320D01*
G01X-2745834Y1475256D01*
G01X-2741770Y1471446D01*
G01X-2737960Y1463572D01*
G01X-2737960Y1455444D01*
G01X-2741770Y1447570D01*
G01X-2745834Y1443506D01*
G01X-2757772Y1439696D01*
G01X-2793332Y1439696D01*
G01X-2765646Y1439696D02*
G01X-2737960Y1396008D01*
G01X-2705956Y1463572D02*
G01X-2698082Y1467382D01*
G01X-2686144Y1479320D01*
G01X-2686144Y1396008D01*
G01X-2646266Y1479320D02*
G01X-2602578Y1479320D01*
G01X-2626200Y1447570D01*
G01X-2614516Y1447570D01*
G01X-2606388Y1443506D01*
G01X-2602578Y1439696D01*
G01X-2598514Y1427758D01*
G01X-2598514Y1419884D01*
G01X-2602578Y1407946D01*
G01X-2610452Y1400072D01*
G01X-2622390Y1396008D01*
G01X-2634328Y1396008D01*
G01X-2646266Y1400072D01*
G01X-2650076Y1403882D01*
G01X-2654140Y1411756D01*
G01X-1248012Y1479320D02*
G01X-1248012Y1396008D01*
G01X-1248012Y1479320D02*
G01X-1212452Y1479320D01*
G01X-1200514Y1475256D01*
G01X-1196450Y1471446D01*
G01X-1192640Y1463572D01*
G01X-1192640Y1455444D01*
G01X-1196450Y1447570D01*
G01X-1200514Y1443506D01*
G01X-1212452Y1439696D01*
G01X-1248012Y1439696D01*
G01X-1220326Y1439696D02*
G01X-1192640Y1396008D01*
G01X-1160636Y1463572D02*
G01X-1152762Y1467382D01*
G01X-1140824Y1479320D01*
G01X-1140824Y1396008D01*
G01X-1053194Y1479320D02*
G01X-1092818Y1396008D01*
G01X-1108820Y1479320D02*
G01X-1053194Y1479320D01*
G01X-4027548Y1458919D02*
G01X-4027548Y1375607D01*
G01X-4027548Y1458919D02*
G01X-3991988Y1458919D01*
G01X-3980050Y1454855D01*
G01X-3975986Y1451045D01*
G01X-3972176Y1443171D01*
G01X-3972176Y1435043D01*
G01X-3975986Y1427169D01*
G01X-3980050Y1423105D01*
G01X-3991988Y1419295D01*
G01X-4027548Y1419295D01*
G01X-3999862Y1419295D02*
G01X-3972176Y1375607D01*
G01X-3900548Y1458919D02*
G01X-3940172Y1403293D01*
G01X-3880482Y1403293D01*
G01X-3900548Y1458919D02*
G01X-3900548Y1375607D01*
G01X-2313926Y1433419D02*
G01X-2313926Y1350107D01*
G01X-2313926Y1433419D02*
G01X-2278366Y1433419D01*
G01X-2266428Y1429355D01*
G01X-2262364Y1425545D01*
G01X-2258554Y1417671D01*
G01X-2258554Y1409543D01*
G01X-2262364Y1401669D01*
G01X-2266428Y1397605D01*
G01X-2278366Y1393795D01*
G01X-2313926Y1393795D01*
G01X-2286240Y1393795D02*
G01X-2258554Y1350107D01*
G01X-2226550Y1417671D02*
G01X-2218676Y1421481D01*
G01X-2206738Y1433419D01*
G01X-2206738Y1350107D01*
G01X-2135110Y1433419D02*
G01X-2174734Y1377793D01*
G01X-2115044Y1377793D01*
G01X-2135110Y1433419D02*
G01X-2135110Y1350107D01*
G01X-676805Y1443619D02*
G01X-676805Y1360307D01*
G01X-676805Y1443619D02*
G01X-641245Y1443619D01*
G01X-629307Y1439555D01*
G01X-625243Y1435745D01*
G01X-621433Y1427871D01*
G01X-621433Y1419743D01*
G01X-625243Y1411869D01*
G01X-629307Y1407805D01*
G01X-641245Y1403995D01*
G01X-676805Y1403995D01*
G01X-649119Y1403995D02*
G01X-621433Y1360307D01*
G01X-589429Y1427871D02*
G01X-581555Y1431681D01*
G01X-569617Y1443619D01*
G01X-569617Y1360307D01*
G01X-517801Y1443619D02*
G01X-529739Y1439555D01*
G01X-533549Y1431681D01*
G01X-533549Y1423807D01*
G01X-529739Y1415933D01*
G01X-521611Y1411869D01*
G01X-505863Y1407805D01*
G01X-493925Y1403995D01*
G01X-486051Y1396121D01*
G01X-481987Y1387993D01*
G01X-481987Y1376055D01*
G01X-486051Y1368181D01*
G01X-489861Y1364371D01*
G01X-501799Y1360307D01*
G01X-517801Y1360307D01*
G01X-529739Y1364371D01*
G01X-533549Y1368181D01*
G01X-537613Y1376055D01*
G01X-537613Y1387993D01*
G01X-533549Y1396121D01*
G01X-525675Y1403995D01*
G01X-513737Y1407805D01*
G01X-497989Y1411869D01*
G01X-489861Y1415933D01*
G01X-486051Y1423807D01*
G01X-486051Y1431681D01*
G01X-489861Y1439555D01*
G01X-501799Y1443619D01*
G01X-517801Y1443619D01*
G01X-3696044Y4202755D02*
G01X-3696044Y4119443D01*
G01X-3696044Y4202755D02*
G01X-3660484Y4202755D01*
G01X-3648546Y4198691D01*
G01X-3644482Y4194881D01*
G01X-3640672Y4187007D01*
G01X-3640672Y4178879D01*
G01X-3644482Y4171005D01*
G01X-3648546Y4166941D01*
G01X-3660484Y4163131D01*
G01X-3696044Y4163131D01*
G01X-3668358Y4163131D02*
G01X-3640672Y4119443D01*
G01X-3553042Y4202755D02*
G01X-3592666Y4119443D01*
G01X-3608668Y4202755D02*
G01X-3553042Y4202755D01*
G01X-3308439Y4284356D02*
G01X-3308439Y4201044D01*
G01X-3308439Y4284356D02*
G01X-3272879Y4284356D01*
G01X-3260941Y4280292D01*
G01X-3256877Y4276482D01*
G01X-3253067Y4268608D01*
G01X-3253067Y4260480D01*
G01X-3256877Y4252606D01*
G01X-3260941Y4248542D01*
G01X-3272879Y4244732D01*
G01X-3308439Y4244732D01*
G01X-3280753Y4244732D02*
G01X-3253067Y4201044D01*
G01X-3221063Y4268608D02*
G01X-3213189Y4272418D01*
G01X-3201251Y4284356D01*
G01X-3201251Y4201044D01*
G01X-1783519Y4177255D02*
G01X-1783519Y4093943D01*
G01X-1783519Y4177255D02*
G01X-1747959Y4177255D01*
G01X-1736021Y4173191D01*
G01X-1731957Y4169381D01*
G01X-1728147Y4161507D01*
G01X-1728147Y4153379D01*
G01X-1731957Y4145505D01*
G01X-1736021Y4141441D01*
G01X-1747959Y4137631D01*
G01X-1783519Y4137631D01*
G01X-1755833Y4137631D02*
G01X-1728147Y4093943D01*
G01X-1696143Y4161507D02*
G01X-1688269Y4165317D01*
G01X-1676331Y4177255D01*
G01X-1676331Y4093943D01*
G01X-1596575Y4177255D02*
G01X-1636453Y4177255D01*
G01X-1640263Y4141441D01*
G01X-1636453Y4145505D01*
G01X-1624515Y4149569D01*
G01X-1612577Y4149569D01*
G01X-1600639Y4145505D01*
G01X-1592765Y4137631D01*
G01X-1588701Y4125693D01*
G01X-1588701Y4117819D01*
G01X-1592765Y4105881D01*
G01X-1600639Y4098007D01*
G01X-1612577Y4093943D01*
G01X-1624515Y4093943D01*
G01X-1636453Y4098007D01*
G01X-1640263Y4101817D01*
G01X-1644327Y4109691D01*
G01X-1304113Y4299656D02*
G01X-1304113Y4216344D01*
G01X-1304113Y4299656D02*
G01X-1268553Y4299656D01*
G01X-1256615Y4295592D01*
G01X-1252551Y4291782D01*
G01X-1248741Y4283908D01*
G01X-1248741Y4275780D01*
G01X-1252551Y4267906D01*
G01X-1256615Y4263842D01*
G01X-1268553Y4260032D01*
G01X-1304113Y4260032D01*
G01X-1276427Y4260032D02*
G01X-1248741Y4216344D01*
G01X-1216737Y4283908D02*
G01X-1208863Y4287718D01*
G01X-1196925Y4299656D01*
G01X-1196925Y4216344D01*
G01X-1160857Y4279844D02*
G01X-1160857Y4283908D01*
G01X-1157047Y4291782D01*
G01X-1152983Y4295592D01*
G01X-1145109Y4299656D01*
G01X-1129107Y4299656D01*
G01X-1121233Y4295592D01*
G01X-1117169Y4291782D01*
G01X-1113359Y4283908D01*
G01X-1113359Y4275780D01*
G01X-1117169Y4267906D01*
G01X-1125297Y4255968D01*
G01X-1164921Y4216344D01*
G01X-1109295Y4216344D01*
G01X-279000Y4177255D02*
G01X-279000Y4093943D01*
G01X-279000Y4177255D02*
G01X-243440Y4177255D01*
G01X-231502Y4173191D01*
G01X-227438Y4169381D01*
G01X-223628Y4161507D01*
G01X-223628Y4153379D01*
G01X-227438Y4145505D01*
G01X-231502Y4141441D01*
G01X-243440Y4137631D01*
G01X-279000Y4137631D01*
G01X-251314Y4137631D02*
G01X-223628Y4093943D01*
G01X-187560Y4157443D02*
G01X-187560Y4161507D01*
G01X-183750Y4169381D01*
G01X-179686Y4173191D01*
G01X-171812Y4177255D01*
G01X-155810Y4177255D01*
G01X-147936Y4173191D01*
G01X-143872Y4169381D01*
G01X-140062Y4161507D01*
G01X-140062Y4153379D01*
G01X-143872Y4145505D01*
G01X-152000Y4133567D01*
G01X-191624Y4093943D01*
G01X-135998Y4093943D01*
G01X-80118Y4177255D02*
G01X-92056Y4173191D01*
G01X-99930Y4161507D01*
G01X-103994Y4141441D01*
G01X-103994Y4129757D01*
G01X-99930Y4109691D01*
G01X-92056Y4098007D01*
G01X-80118Y4093943D01*
G01X-72244Y4093943D01*
G01X-60306Y4098007D01*
G01X-52432Y4109691D01*
G01X-48368Y4129757D01*
G01X-48368Y4141441D01*
G01X-52432Y4161507D01*
G01X-60306Y4173191D01*
G01X-72244Y4177255D01*
G01X-80118Y4177255D01*
G01X134106Y4299656D02*
G01X134106Y4216344D01*
G01X134106Y4299656D02*
G01X169666Y4299656D01*
G01X181604Y4295592D01*
G01X185668Y4291782D01*
G01X189478Y4283908D01*
G01X189478Y4275780D01*
G01X185668Y4267906D01*
G01X181604Y4263842D01*
G01X169666Y4260032D01*
G01X134106Y4260032D01*
G01X161792Y4260032D02*
G01X189478Y4216344D01*
G01X221482Y4283908D02*
G01X229356Y4287718D01*
G01X241294Y4299656D01*
G01X241294Y4216344D01*
G01X321050Y4287718D02*
G01X316986Y4295592D01*
G01X305048Y4299656D01*
G01X297174Y4299656D01*
G01X285236Y4295592D01*
G01X277362Y4283908D01*
G01X273298Y4263842D01*
G01X273298Y4244030D01*
G01X277362Y4228282D01*
G01X285236Y4220408D01*
G01X297174Y4216344D01*
G01X301238Y4216344D01*
G01X312922Y4220408D01*
G01X321050Y4228282D01*
G01X324860Y4240220D01*
G01X324860Y4244030D01*
G01X321050Y4255968D01*
G01X312922Y4263842D01*
G01X301238Y4267906D01*
G01X297174Y4267906D01*
G01X285236Y4263842D01*
G01X277362Y4255968D01*
G01X273298Y4244030D01*
G01X1041917Y1458919D02*
G01X1041917Y1375607D01*
G01X1041917Y1458919D02*
G01X1077477Y1458919D01*
G01X1089415Y1454855D01*
G01X1093479Y1451045D01*
G01X1097289Y1443171D01*
G01X1097289Y1435043D01*
G01X1093479Y1427169D01*
G01X1089415Y1423105D01*
G01X1077477Y1419295D01*
G01X1041917Y1419295D01*
G01X1069603Y1419295D02*
G01X1097289Y1375607D01*
G01X1177045Y1458919D02*
G01X1137167Y1458919D01*
G01X1133357Y1423105D01*
G01X1137167Y1427169D01*
G01X1149105Y1431233D01*
G01X1161043Y1431233D01*
G01X1172981Y1427169D01*
G01X1180855Y1419295D01*
G01X1184919Y1407357D01*
G01X1184919Y1399483D01*
G01X1180855Y1387545D01*
G01X1172981Y1379671D01*
G01X1161043Y1375607D01*
G01X1149105Y1375607D01*
G01X1137167Y1379671D01*
G01X1133357Y1383481D01*
G01X1129293Y1391355D01*
G01X547211Y1443619D02*
G01X547211Y1360307D01*
G01X547211Y1443619D02*
G01X582771Y1443619D01*
G01X594709Y1439555D01*
G01X598773Y1435745D01*
G01X602583Y1427871D01*
G01X602583Y1419743D01*
G01X598773Y1411869D01*
G01X594709Y1407805D01*
G01X582771Y1403995D01*
G01X547211Y1403995D01*
G01X574897Y1403995D02*
G01X602583Y1360307D01*
G01X682339Y1431681D02*
G01X678275Y1439555D01*
G01X666337Y1443619D01*
G01X658463Y1443619D01*
G01X646525Y1439555D01*
G01X638651Y1427871D01*
G01X634587Y1407805D01*
G01X634587Y1387993D01*
G01X638651Y1372245D01*
G01X646525Y1364371D01*
G01X658463Y1360307D01*
G01X662527Y1360307D01*
G01X674211Y1364371D01*
G01X682339Y1372245D01*
G01X686149Y1384183D01*
G01X686149Y1387993D01*
G01X682339Y1399931D01*
G01X674211Y1407805D01*
G01X662527Y1411869D01*
G01X658463Y1411869D01*
G01X646525Y1407805D01*
G01X638651Y1399931D01*
G01X634587Y1387993D01*
G01X-4200950Y4243555D02*
G01X-4200950Y4160243D01*
G01X-4200950Y4243555D02*
G01X-4165390Y4243555D01*
G01X-4153452Y4239491D01*
G01X-4149388Y4235681D01*
G01X-4145578Y4227807D01*
G01X-4145578Y4219679D01*
G01X-4149388Y4211805D01*
G01X-4153452Y4207741D01*
G01X-4165390Y4203931D01*
G01X-4200950Y4203931D01*
G01X-4173264Y4203931D02*
G01X-4145578Y4160243D01*
G01X-4113574Y4227807D02*
G01X-4105700Y4231617D01*
G01X-4093762Y4243555D01*
G01X-4093762Y4160243D01*
G01X-4010196Y4215869D02*
G01X-4014006Y4203931D01*
G01X-4022134Y4196057D01*
G01X-4033818Y4191993D01*
G01X-4037882Y4191993D01*
G01X-4049820Y4196057D01*
G01X-4057694Y4203931D01*
G01X-4061758Y4215869D01*
G01X-4061758Y4219679D01*
G01X-4057694Y4231617D01*
G01X-4049820Y4239491D01*
G01X-4037882Y4243555D01*
G01X-4033818Y4243555D01*
G01X-4022134Y4239491D01*
G01X-4014006Y4231617D01*
G01X-4010196Y4215869D01*
G01X-4010196Y4196057D01*
G01X-4014006Y4175991D01*
G01X-4022134Y4164307D01*
G01X-4033818Y4160243D01*
G01X-4041946Y4160243D01*
G01X-4053884Y4164307D01*
G01X-4057694Y4172181D01*
G01X1113318Y4187455D02*
G01X1113318Y4104143D01*
G01X1113318Y4187455D02*
G01X1148878Y4187455D01*
G01X1160816Y4183391D01*
G01X1164880Y4179581D01*
G01X1168690Y4171707D01*
G01X1168690Y4163579D01*
G01X1164880Y4155705D01*
G01X1160816Y4151641D01*
G01X1148878Y4147831D01*
G01X1113318Y4147831D01*
G01X1141004Y4147831D02*
G01X1168690Y4104143D01*
G01X1220506Y4187455D02*
G01X1208568Y4183391D01*
G01X1204758Y4175517D01*
G01X1204758Y4167643D01*
G01X1208568Y4159769D01*
G01X1216696Y4155705D01*
G01X1232444Y4151641D01*
G01X1244382Y4147831D01*
G01X1252256Y4139957D01*
G01X1256320Y4131829D01*
G01X1256320Y4119891D01*
G01X1252256Y4112017D01*
G01X1248446Y4108207D01*
G01X1236508Y4104143D01*
G01X1220506Y4104143D01*
G01X1208568Y4108207D01*
G01X1204758Y4112017D01*
G01X1200694Y4119891D01*
G01X1200694Y4131829D01*
G01X1204758Y4139957D01*
G01X1212632Y4147831D01*
G01X1224570Y4151641D01*
G01X1240318Y4155705D01*
G01X1248446Y4159769D01*
G01X1252256Y4167643D01*
G01X1252256Y4175517D01*
G01X1248446Y4183391D01*
G01X1236508Y4187455D01*
G01X1220506Y4187455D01*
G01X-5236264Y3565247D02*
G01X-5236264Y3481935D01*
G01X-5236264Y3565247D02*
G01X-5200704Y3565247D01*
G01X-5188766Y3561183D01*
G01X-5184702Y3557373D01*
G01X-5180892Y3549499D01*
G01X-5180892Y3541371D01*
G01X-5184702Y3533497D01*
G01X-5188766Y3529433D01*
G01X-5200704Y3525623D01*
G01X-5236264Y3525623D01*
G01X-5208578Y3525623D02*
G01X-5180892Y3481935D01*
G01X-5144824Y3545435D02*
G01X-5144824Y3549499D01*
G01X-5141014Y3557373D01*
G01X-5136950Y3561183D01*
G01X-5129076Y3565247D01*
G01X-5113074Y3565247D01*
G01X-5105200Y3561183D01*
G01X-5101136Y3557373D01*
G01X-5097326Y3549499D01*
G01X-5097326Y3541371D01*
G01X-5101136Y3533497D01*
G01X-5109264Y3521559D01*
G01X-5148888Y3481935D01*
G01X-5093262Y3481935D01*
G01X-5061258Y3549499D02*
G01X-5053384Y3553309D01*
G01X-5041446Y3565247D01*
G01X-5041446Y3481935D01*
G01X1419322Y4299656D02*
G01X1419322Y4216344D01*
G01X1419322Y4299656D02*
G01X1454882Y4299656D01*
G01X1466820Y4295592D01*
G01X1470884Y4291782D01*
G01X1474694Y4283908D01*
G01X1474694Y4275780D01*
G01X1470884Y4267906D01*
G01X1466820Y4263842D01*
G01X1454882Y4260032D01*
G01X1419322Y4260032D01*
G01X1447008Y4260032D02*
G01X1474694Y4216344D01*
G01X1510762Y4279844D02*
G01X1510762Y4283908D01*
G01X1514572Y4291782D01*
G01X1518636Y4295592D01*
G01X1526510Y4299656D01*
G01X1542512Y4299656D01*
G01X1550386Y4295592D01*
G01X1554450Y4291782D01*
G01X1558260Y4283908D01*
G01X1558260Y4275780D01*
G01X1554450Y4267906D01*
G01X1546322Y4255968D01*
G01X1506698Y4216344D01*
G01X1562324Y4216344D01*
G01X-4889459Y3570347D02*
G01X-4889459Y3487035D01*
G01X-4889459Y3570347D02*
G01X-4853899Y3570347D01*
G01X-4841961Y3566283D01*
G01X-4837897Y3562473D01*
G01X-4834087Y3554599D01*
G01X-4834087Y3546471D01*
G01X-4837897Y3538597D01*
G01X-4841961Y3534533D01*
G01X-4853899Y3530723D01*
G01X-4889459Y3530723D01*
G01X-4861773Y3530723D02*
G01X-4834087Y3487035D01*
G01X-4798019Y3550535D02*
G01X-4798019Y3554599D01*
G01X-4794209Y3562473D01*
G01X-4790145Y3566283D01*
G01X-4782271Y3570347D01*
G01X-4766269Y3570347D01*
G01X-4758395Y3566283D01*
G01X-4754331Y3562473D01*
G01X-4750521Y3554599D01*
G01X-4750521Y3546471D01*
G01X-4754331Y3538597D01*
G01X-4762459Y3526659D01*
G01X-4802083Y3487035D01*
G01X-4746457Y3487035D01*
G01X-4710389Y3550535D02*
G01X-4710389Y3554599D01*
G01X-4706579Y3562473D01*
G01X-4702515Y3566283D01*
G01X-4694641Y3570347D01*
G01X-4678639Y3570347D01*
G01X-4670765Y3566283D01*
G01X-4666701Y3562473D01*
G01X-4662891Y3554599D01*
G01X-4662891Y3546471D01*
G01X-4666701Y3538597D01*
G01X-4674829Y3526659D01*
G01X-4714453Y3487035D01*
G01X-4658827Y3487035D01*
G01X-4532455Y3575447D02*
G01X-4532455Y3492135D01*
G01X-4532455Y3575447D02*
G01X-4496895Y3575447D01*
G01X-4484957Y3571383D01*
G01X-4480893Y3567573D01*
G01X-4477083Y3559699D01*
G01X-4477083Y3551571D01*
G01X-4480893Y3543697D01*
G01X-4484957Y3539633D01*
G01X-4496895Y3535823D01*
G01X-4532455Y3535823D01*
G01X-4504769Y3535823D02*
G01X-4477083Y3492135D01*
G01X-4441015Y3555635D02*
G01X-4441015Y3559699D01*
G01X-4437205Y3567573D01*
G01X-4433141Y3571383D01*
G01X-4425267Y3575447D01*
G01X-4409265Y3575447D01*
G01X-4401391Y3571383D01*
G01X-4397327Y3567573D01*
G01X-4393517Y3559699D01*
G01X-4393517Y3551571D01*
G01X-4397327Y3543697D01*
G01X-4405455Y3531759D01*
G01X-4445079Y3492135D01*
G01X-4389453Y3492135D01*
G01X-4349575Y3575447D02*
G01X-4305887Y3575447D01*
G01X-4329509Y3543697D01*
G01X-4317825Y3543697D01*
G01X-4309697Y3539633D01*
G01X-4305887Y3535823D01*
G01X-4301823Y3523885D01*
G01X-4301823Y3516011D01*
G01X-4305887Y3504073D01*
G01X-4313761Y3496199D01*
G01X-4325699Y3492135D01*
G01X-4337637Y3492135D01*
G01X-4349575Y3496199D01*
G01X-4353385Y3500009D01*
G01X-4357449Y3507883D01*
G01X-8015800Y4427158D02*
G01X-8015800Y4343846D01*
G01X-8015800Y4427158D02*
G01X-7980240Y4427158D01*
G01X-7968302Y4423094D01*
G01X-7964238Y4419284D01*
G01X-7960428Y4411410D01*
G01X-7960428Y4403282D01*
G01X-7964238Y4395408D01*
G01X-7968302Y4391344D01*
G01X-7980240Y4387534D01*
G01X-8015800Y4387534D01*
G01X-7988114Y4387534D02*
G01X-7960428Y4343846D01*
G01X-7876862Y4399472D02*
G01X-7880672Y4387534D01*
G01X-7888800Y4379660D01*
G01X-7900484Y4375596D01*
G01X-7904548Y4375596D01*
G01X-7916486Y4379660D01*
G01X-7924360Y4387534D01*
G01X-7928424Y4399472D01*
G01X-7928424Y4403282D01*
G01X-7924360Y4415220D01*
G01X-7916486Y4423094D01*
G01X-7904548Y4427158D01*
G01X-7900484Y4427158D01*
G01X-7888800Y4423094D01*
G01X-7880672Y4415220D01*
G01X-7876862Y4399472D01*
G01X-7876862Y4379660D01*
G01X-7880672Y4359594D01*
G01X-7888800Y4347910D01*
G01X-7900484Y4343846D01*
G01X-7908612Y4343846D01*
G01X-7920550Y4347910D01*
G01X-7924360Y4355784D01*
G01X-6638782Y1917925D02*
G01X-6638782Y1834613D01*
G01X-6638782Y1917925D02*
G01X-6603222Y1917925D01*
G01X-6591284Y1913861D01*
G01X-6587220Y1910051D01*
G01X-6583410Y1902177D01*
G01X-6583410Y1894049D01*
G01X-6587220Y1886175D01*
G01X-6591284Y1882111D01*
G01X-6603222Y1878301D01*
G01X-6638782Y1878301D01*
G01X-6611096Y1878301D02*
G01X-6583410Y1834613D01*
G01X-6551406Y1902177D02*
G01X-6543532Y1905987D01*
G01X-6531594Y1917925D01*
G01X-6531594Y1834613D01*
G01X-6499590Y1902177D02*
G01X-6491716Y1905987D01*
G01X-6479778Y1917925D01*
G01X-6479778Y1834613D01*
G01X-9005213Y4432258D02*
G01X-9005213Y4348946D01*
G01X-9005213Y4432258D02*
G01X-8969653Y4432258D01*
G01X-8957715Y4428194D01*
G01X-8953651Y4424384D01*
G01X-8949841Y4416510D01*
G01X-8949841Y4408382D01*
G01X-8953651Y4400508D01*
G01X-8957715Y4396444D01*
G01X-8969653Y4392634D01*
G01X-9005213Y4392634D01*
G01X-8977527Y4392634D02*
G01X-8949841Y4348946D01*
G01X-8917837Y4416510D02*
G01X-8909963Y4420320D01*
G01X-8898025Y4432258D01*
G01X-8898025Y4348946D01*
G01X-8842145Y4432258D02*
G01X-8854083Y4428194D01*
G01X-8861957Y4416510D01*
G01X-8866021Y4396444D01*
G01X-8866021Y4384760D01*
G01X-8861957Y4364694D01*
G01X-8854083Y4353010D01*
G01X-8842145Y4348946D01*
G01X-8834271Y4348946D01*
G01X-8822333Y4353010D01*
G01X-8814459Y4364694D01*
G01X-8810395Y4384760D01*
G01X-8810395Y4396444D01*
G01X-8814459Y4416510D01*
G01X-8822333Y4428194D01*
G01X-8834271Y4432258D01*
G01X-8842145Y4432258D01*
G01X-4833359Y2713536D02*
G01X-4833359Y2654100D01*
G01X-4829549Y2642162D01*
G01X-4821675Y2634288D01*
G01X-4809737Y2630224D01*
G01X-4801609Y2630224D01*
G01X-4789925Y2634288D01*
G01X-4781797Y2642162D01*
G01X-4777987Y2654100D01*
G01X-4777987Y2713536D01*
G01X-4741919Y2693724D02*
G01X-4741919Y2697788D01*
G01X-4738109Y2705662D01*
G01X-4734045Y2709472D01*
G01X-4726171Y2713536D01*
G01X-4710169Y2713536D01*
G01X-4702295Y2709472D01*
G01X-4698231Y2705662D01*
G01X-4694421Y2697788D01*
G01X-4694421Y2689660D01*
G01X-4698231Y2681786D01*
G01X-4706359Y2669848D01*
G01X-4745983Y2630224D01*
G01X-4690357Y2630224D01*
G01X-1487715Y2886938D02*
G01X-1487715Y2827502D01*
G01X-1483905Y2815564D01*
G01X-1476031Y2807690D01*
G01X-1464093Y2803626D01*
G01X-1455965Y2803626D01*
G01X-1444281Y2807690D01*
G01X-1436153Y2815564D01*
G01X-1432343Y2827502D01*
G01X-1432343Y2886938D01*
G01X-1352587Y2886938D02*
G01X-1392465Y2886938D01*
G01X-1396275Y2851124D01*
G01X-1392465Y2855188D01*
G01X-1380527Y2859252D01*
G01X-1368589Y2859252D01*
G01X-1356651Y2855188D01*
G01X-1348777Y2847314D01*
G01X-1344713Y2835376D01*
G01X-1344713Y2827502D01*
G01X-1348777Y2815564D01*
G01X-1356651Y2807690D01*
G01X-1368589Y2803626D01*
G01X-1380527Y2803626D01*
G01X-1392465Y2807690D01*
G01X-1396275Y2811500D01*
G01X-1400339Y2819374D01*
G01X83105Y2892038D02*
G01X83105Y2832602D01*
G01X86915Y2820664D01*
G01X94789Y2812790D01*
G01X106727Y2808726D01*
G01X114855Y2808726D01*
G01X126539Y2812790D01*
G01X134667Y2820664D01*
G01X138477Y2832602D01*
G01X138477Y2892038D01*
G01X178355Y2892038D02*
G01X222043Y2892038D01*
G01X198421Y2860288D01*
G01X210105Y2860288D01*
G01X218233Y2856224D01*
G01X222043Y2852414D01*
G01X226107Y2840476D01*
G01X226107Y2832602D01*
G01X222043Y2820664D01*
G01X214169Y2812790D01*
G01X202231Y2808726D01*
G01X190293Y2808726D01*
G01X178355Y2812790D01*
G01X174545Y2816600D01*
G01X170481Y2824474D01*
G01X-9760022Y4488359D02*
G01X-9760022Y4428923D01*
G01X-9756212Y4416985D01*
G01X-9748338Y4409111D01*
G01X-9736400Y4405047D01*
G01X-9728272Y4405047D01*
G01X-9716588Y4409111D01*
G01X-9708460Y4416985D01*
G01X-9704650Y4428923D01*
G01X-9704650Y4488359D01*
G01X-9672646Y4472611D02*
G01X-9664772Y4476421D01*
G01X-9652834Y4488359D01*
G01X-9652834Y4405047D01*
G01X-3422405Y1760412D02*
G01X-3426469Y1768286D01*
G01X-3434343Y1776160D01*
G01X-3442217Y1780224D01*
G01X-3458219Y1780224D01*
G01X-3466093Y1776160D01*
G01X-3473967Y1768286D01*
G01X-3478031Y1760412D01*
G01X-3481841Y1748474D01*
G01X-3481841Y1728662D01*
G01X-3478031Y1716724D01*
G01X-3473967Y1708850D01*
G01X-3466093Y1700976D01*
G01X-3458219Y1696912D01*
G01X-3442217Y1696912D01*
G01X-3434343Y1700976D01*
G01X-3426469Y1708850D01*
G01X-3422405Y1716724D01*
G01X-3350777Y1780224D02*
G01X-3390401Y1724598D01*
G01X-3330711Y1724598D01*
G01X-3350777Y1780224D02*
G01X-3350777Y1696912D01*
G01X-1780184Y1775712D02*
G01X-1784248Y1783586D01*
G01X-1792122Y1791460D01*
G01X-1799996Y1795524D01*
G01X-1815998Y1795524D01*
G01X-1823872Y1791460D01*
G01X-1831746Y1783586D01*
G01X-1835810Y1775712D01*
G01X-1839620Y1763774D01*
G01X-1839620Y1743962D01*
G01X-1835810Y1732024D01*
G01X-1831746Y1724150D01*
G01X-1823872Y1716276D01*
G01X-1815998Y1712212D01*
G01X-1799996Y1712212D01*
G01X-1792122Y1716276D01*
G01X-1784248Y1724150D01*
G01X-1780184Y1732024D01*
G01X-1748180Y1779776D02*
G01X-1740306Y1783586D01*
G01X-1728368Y1795524D01*
G01X-1728368Y1712212D01*
G01X-1640738Y1795524D02*
G01X-1680362Y1712212D01*
G01X-1696364Y1795524D02*
G01X-1640738Y1795524D01*
G01X-214464Y1765512D02*
G01X-218528Y1773386D01*
G01X-226402Y1781260D01*
G01X-234276Y1785324D01*
G01X-250278Y1785324D01*
G01X-258152Y1781260D01*
G01X-266026Y1773386D01*
G01X-270090Y1765512D01*
G01X-273900Y1753574D01*
G01X-273900Y1733762D01*
G01X-270090Y1721824D01*
G01X-266026Y1713950D01*
G01X-258152Y1706076D01*
G01X-250278Y1702012D01*
G01X-234276Y1702012D01*
G01X-226402Y1706076D01*
G01X-218528Y1713950D01*
G01X-214464Y1721824D01*
G01X-178396Y1765512D02*
G01X-178396Y1769576D01*
G01X-174586Y1777450D01*
G01X-170522Y1781260D01*
G01X-162648Y1785324D01*
G01X-146646Y1785324D01*
G01X-138772Y1781260D01*
G01X-134708Y1777450D01*
G01X-130898Y1769576D01*
G01X-130898Y1761448D01*
G01X-134708Y1753574D01*
G01X-142836Y1741636D01*
G01X-182460Y1702012D01*
G01X-126834Y1702012D01*
G01X-90766Y1765512D02*
G01X-90766Y1769576D01*
G01X-86956Y1777450D01*
G01X-82892Y1781260D01*
G01X-75018Y1785324D01*
G01X-59016Y1785324D01*
G01X-51142Y1781260D01*
G01X-47078Y1777450D01*
G01X-43268Y1769576D01*
G01X-43268Y1761448D01*
G01X-47078Y1753574D01*
G01X-55206Y1741636D01*
G01X-94830Y1702012D01*
G01X-39204Y1702012D01*
G01X1483858Y2097016D02*
G01X1479794Y2104890D01*
G01X1471920Y2112764D01*
G01X1464046Y2116828D01*
G01X1448044Y2116828D01*
G01X1440170Y2112764D01*
G01X1432296Y2104890D01*
G01X1428232Y2097016D01*
G01X1424422Y2085078D01*
G01X1424422Y2065266D01*
G01X1428232Y2053328D01*
G01X1432296Y2045454D01*
G01X1440170Y2037580D01*
G01X1448044Y2033516D01*
G01X1464046Y2033516D01*
G01X1471920Y2037580D01*
G01X1479794Y2045454D01*
G01X1483858Y2053328D01*
G01X1563614Y2116828D02*
G01X1523736Y2116828D01*
G01X1519926Y2081014D01*
G01X1523736Y2085078D01*
G01X1535674Y2089142D01*
G01X1547612Y2089142D01*
G01X1559550Y2085078D01*
G01X1567424Y2077204D01*
G01X1571488Y2065266D01*
G01X1571488Y2057392D01*
G01X1567424Y2045454D01*
G01X1559550Y2037580D01*
G01X1547612Y2033516D01*
G01X1535674Y2033516D01*
G01X1523736Y2037580D01*
G01X1519926Y2041390D01*
G01X1515862Y2049264D01*
G01X-5013626Y1918514D02*
G01X-5017690Y1926388D01*
G01X-5025564Y1934262D01*
G01X-5033438Y1938326D01*
G01X-5049440Y1938326D01*
G01X-5057314Y1934262D01*
G01X-5065188Y1926388D01*
G01X-5069252Y1918514D01*
G01X-5073062Y1906576D01*
G01X-5073062Y1886764D01*
G01X-5069252Y1874826D01*
G01X-5065188Y1866952D01*
G01X-5057314Y1859078D01*
G01X-5049440Y1855014D01*
G01X-5033438Y1855014D01*
G01X-5025564Y1859078D01*
G01X-5017690Y1866952D01*
G01X-5013626Y1874826D01*
G01X-4925996Y1938326D02*
G01X-4965620Y1855014D01*
G01X-4981622Y1938326D02*
G01X-4925996Y1938326D01*
G01X-3172502Y1709411D02*
G01X-3176566Y1717285D01*
G01X-3184440Y1725159D01*
G01X-3192314Y1729223D01*
G01X-3208316Y1729223D01*
G01X-3216190Y1725159D01*
G01X-3224064Y1717285D01*
G01X-3228128Y1709411D01*
G01X-3231938Y1697473D01*
G01X-3231938Y1677661D01*
G01X-3228128Y1665723D01*
G01X-3224064Y1657849D01*
G01X-3216190Y1649975D01*
G01X-3208316Y1645911D01*
G01X-3192314Y1645911D01*
G01X-3184440Y1649975D01*
G01X-3176566Y1657849D01*
G01X-3172502Y1665723D01*
G01X-3140498Y1713475D02*
G01X-3132624Y1717285D01*
G01X-3120686Y1729223D01*
G01X-3120686Y1645911D01*
G01X-3068870Y1729223D02*
G01X-3080808Y1725159D01*
G01X-3084618Y1717285D01*
G01X-3084618Y1709411D01*
G01X-3080808Y1701537D01*
G01X-3072680Y1697473D01*
G01X-3056932Y1693409D01*
G01X-3044994Y1689599D01*
G01X-3037120Y1681725D01*
G01X-3033056Y1673597D01*
G01X-3033056Y1661659D01*
G01X-3037120Y1653785D01*
G01X-3040930Y1649975D01*
G01X-3052868Y1645911D01*
G01X-3068870Y1645911D01*
G01X-3080808Y1649975D01*
G01X-3084618Y1653785D01*
G01X-3088682Y1661659D01*
G01X-3088682Y1673597D01*
G01X-3084618Y1681725D01*
G01X-3076744Y1689599D01*
G01X-3064806Y1693409D01*
G01X-3049058Y1697473D01*
G01X-3040930Y1701537D01*
G01X-3037120Y1709411D01*
G01X-3037120Y1717285D01*
G01X-3040930Y1725159D01*
G01X-3052868Y1729223D01*
G01X-3068870Y1729223D01*
G01X-1509880Y1719611D02*
G01X-1513944Y1727485D01*
G01X-1521818Y1735359D01*
G01X-1529692Y1739423D01*
G01X-1545694Y1739423D01*
G01X-1553568Y1735359D01*
G01X-1561442Y1727485D01*
G01X-1565506Y1719611D01*
G01X-1569316Y1707673D01*
G01X-1569316Y1687861D01*
G01X-1565506Y1675923D01*
G01X-1561442Y1668049D01*
G01X-1553568Y1660175D01*
G01X-1545694Y1656111D01*
G01X-1529692Y1656111D01*
G01X-1521818Y1660175D01*
G01X-1513944Y1668049D01*
G01X-1509880Y1675923D01*
G01X-1473812Y1719611D02*
G01X-1473812Y1723675D01*
G01X-1470002Y1731549D01*
G01X-1465938Y1735359D01*
G01X-1458064Y1739423D01*
G01X-1442062Y1739423D01*
G01X-1434188Y1735359D01*
G01X-1430124Y1731549D01*
G01X-1426314Y1723675D01*
G01X-1426314Y1715547D01*
G01X-1430124Y1707673D01*
G01X-1438252Y1695735D01*
G01X-1477876Y1656111D01*
G01X-1422250Y1656111D01*
G01X-1382372Y1739423D02*
G01X-1338684Y1739423D01*
G01X-1362306Y1707673D01*
G01X-1350622Y1707673D01*
G01X-1342494Y1703609D01*
G01X-1338684Y1699799D01*
G01X-1334620Y1687861D01*
G01X-1334620Y1679987D01*
G01X-1338684Y1668049D01*
G01X-1346558Y1660175D01*
G01X-1358496Y1656111D01*
G01X-1370434Y1656111D01*
G01X-1382372Y1660175D01*
G01X-1386182Y1663985D01*
G01X-1390246Y1671859D01*
G01X81340Y1729811D02*
G01X77276Y1737685D01*
G01X69402Y1745559D01*
G01X61528Y1749623D01*
G01X45526Y1749623D01*
G01X37652Y1745559D01*
G01X29778Y1737685D01*
G01X25714Y1729811D01*
G01X21904Y1717873D01*
G01X21904Y1698061D01*
G01X25714Y1686123D01*
G01X29778Y1678249D01*
G01X37652Y1670375D01*
G01X45526Y1666311D01*
G01X61528Y1666311D01*
G01X69402Y1670375D01*
G01X77276Y1678249D01*
G01X81340Y1686123D01*
G01X133156Y1749623D02*
G01X121218Y1745559D01*
G01X117408Y1737685D01*
G01X117408Y1729811D01*
G01X121218Y1721937D01*
G01X129346Y1717873D01*
G01X145094Y1713809D01*
G01X157032Y1709999D01*
G01X164906Y1702125D01*
G01X168970Y1693997D01*
G01X168970Y1682059D01*
G01X164906Y1674185D01*
G01X161096Y1670375D01*
G01X149158Y1666311D01*
G01X133156Y1666311D01*
G01X121218Y1670375D01*
G01X117408Y1674185D01*
G01X113344Y1682059D01*
G01X113344Y1693997D01*
G01X117408Y1702125D01*
G01X125282Y1709999D01*
G01X137220Y1713809D01*
G01X152968Y1717873D01*
G01X161096Y1721937D01*
G01X164906Y1729811D01*
G01X164906Y1737685D01*
G01X161096Y1745559D01*
G01X149158Y1749623D01*
G01X133156Y1749623D01*
G54D11*
G01X-6466870Y198033D02*
G01X-6470426Y205399D01*
G01X-6477792Y212765D01*
G01X-6485158Y216321D01*
G01X-6499890Y216321D01*
G01X-6507256Y212765D01*
G01X-6514622Y205399D01*
G01X-6518432Y198033D01*
G01X-6521988Y186857D01*
G01X-6521988Y168315D01*
G01X-6518432Y157393D01*
G01X-6514622Y150027D01*
G01X-6507256Y142661D01*
G01X-6499890Y138851D01*
G01X-6485158Y138851D01*
G01X-6477792Y142661D01*
G01X-6470426Y150027D01*
G01X-6466870Y157393D01*
G01X-6466870Y168315D01*
G01X-6485158Y168315D02*
G01X-6466870Y168315D01*
G01X-6437152Y216321D02*
G01X-6437152Y138851D01*
G01X-6437152Y216321D02*
G01X-6385590Y138851D01*
G01X-6385590Y216321D02*
G01X-6385590Y138851D01*
G01X-6355872Y216321D02*
G01X-6355872Y138851D01*
G01X-6355872Y216321D02*
G01X-6329964Y216321D01*
G01X-6319042Y212765D01*
G01X-6311676Y205399D01*
G01X-6307866Y198033D01*
G01X-6304310Y186857D01*
G01X-6304310Y168315D01*
G01X-6307866Y157393D01*
G01X-6311676Y150027D01*
G01X-6319042Y142661D01*
G01X-6329964Y138851D01*
G01X-6355872Y138851D01*
G01X-10903928Y3334574D02*
G01X-10907484Y3341940D01*
G01X-10914850Y3349306D01*
G01X-10922216Y3352862D01*
G01X-10936948Y3352862D01*
G01X-10944314Y3349306D01*
G01X-10951680Y3341940D01*
G01X-10955490Y3334574D01*
G01X-10959046Y3323398D01*
G01X-10959046Y3304856D01*
G01X-10955490Y3293934D01*
G01X-10951680Y3286568D01*
G01X-10944314Y3279202D01*
G01X-10936948Y3275392D01*
G01X-10922216Y3275392D01*
G01X-10914850Y3279202D01*
G01X-10907484Y3286568D01*
G01X-10903928Y3293934D01*
G01X-10903928Y3304856D01*
G01X-10922216Y3304856D02*
G01X-10903928Y3304856D01*
G01X-10874210Y3352862D02*
G01X-10874210Y3275392D01*
G01X-10874210Y3352862D02*
G01X-10822648Y3275392D01*
G01X-10822648Y3352862D02*
G01X-10822648Y3275392D01*
G01X-10792930Y3352862D02*
G01X-10792930Y3275392D01*
G01X-10792930Y3352862D02*
G01X-10767022Y3352862D01*
G01X-10756100Y3349306D01*
G01X-10748734Y3341940D01*
G01X-10744924Y3334574D01*
G01X-10741368Y3323398D01*
G01X-10741368Y3304856D01*
G01X-10744924Y3293934D01*
G01X-10748734Y3286568D01*
G01X-10756100Y3279202D01*
G01X-10767022Y3275392D01*
G01X-10792930Y3275392D01*
G01X-6268529Y3691579D02*
G01X-6268529Y3695135D01*
G01X-6264719Y3702501D01*
G01X-6261163Y3706311D01*
G01X-6253797Y3709867D01*
G01X-6239065Y3709867D01*
G01X-6231699Y3706311D01*
G01X-6227889Y3702501D01*
G01X-6224333Y3695135D01*
G01X-6224333Y3687769D01*
G01X-6227889Y3680403D01*
G01X-6235255Y3669227D01*
G01X-6272085Y3632397D01*
G01X-6220523Y3632397D01*
G01X-6153975Y3709867D02*
G01X-6190805Y3658305D01*
G01X-6135433Y3658305D01*
G01X-6153975Y3709867D02*
G01X-6153975Y3632397D01*
G01X-6105715Y3709867D02*
G01X-6076251Y3632397D01*
G01X-6046787Y3709867D02*
G01X-6076251Y3632397D01*
G01X-6017069Y3606743D02*
G01X-5950775Y3606743D01*
G01X-5921057Y3606743D02*
G01X-5854763Y3606743D01*
G01X-5769673Y3691579D02*
G01X-5773483Y3698945D01*
G01X-5780849Y3706311D01*
G01X-5788215Y3709867D01*
G01X-5802947Y3709867D01*
G01X-5810313Y3706311D01*
G01X-5817679Y3698945D01*
G01X-5821489Y3691579D01*
G01X-5825045Y3680403D01*
G01X-5825045Y3661861D01*
G01X-5821489Y3650939D01*
G01X-5817679Y3643573D01*
G01X-5810313Y3636207D01*
G01X-5802947Y3632397D01*
G01X-5788215Y3632397D01*
G01X-5780849Y3636207D01*
G01X-5773483Y3643573D01*
G01X-5769673Y3650939D01*
G01X-5769673Y3661861D01*
G01X-5788215Y3661861D02*
G01X-5769673Y3661861D01*
G01X-5739955Y3709867D02*
G01X-5739955Y3632397D01*
G01X-5739955Y3709867D02*
G01X-5688393Y3632397D01*
G01X-5688393Y3709867D02*
G01X-5688393Y3632397D01*
G01X-5658675Y3709867D02*
G01X-5658675Y3632397D01*
G01X-5658675Y3709867D02*
G01X-5632767Y3709867D01*
G01X-5621845Y3706311D01*
G01X-5614479Y3698945D01*
G01X-5610669Y3691579D01*
G01X-5607113Y3680403D01*
G01X-5607113Y3661861D01*
G01X-5610669Y3650939D01*
G01X-5614479Y3643573D01*
G01X-5621845Y3636207D01*
G01X-5632767Y3632397D01*
G01X-5658675Y3632397D01*
G01X-9445309Y422436D02*
G01X-9448865Y429802D01*
G01X-9456231Y437168D01*
G01X-9463597Y440724D01*
G01X-9478329Y440724D01*
G01X-9485695Y437168D01*
G01X-9493061Y429802D01*
G01X-9496871Y422436D01*
G01X-9500427Y411260D01*
G01X-9500427Y392718D01*
G01X-9496871Y381796D01*
G01X-9493061Y374430D01*
G01X-9485695Y367064D01*
G01X-9478329Y363254D01*
G01X-9463597Y363254D01*
G01X-9456231Y367064D01*
G01X-9448865Y374430D01*
G01X-9445309Y381796D01*
G01X-9445309Y392718D01*
G01X-9463597Y392718D02*
G01X-9445309Y392718D01*
G01X-9415591Y440724D02*
G01X-9415591Y363254D01*
G01X-9415591Y440724D02*
G01X-9364029Y363254D01*
G01X-9364029Y440724D02*
G01X-9364029Y363254D01*
G01X-9334311Y440724D02*
G01X-9334311Y363254D01*
G01X-9334311Y440724D02*
G01X-9308403Y440724D01*
G01X-9297481Y437168D01*
G01X-9290115Y429802D01*
G01X-9286305Y422436D01*
G01X-9282749Y411260D01*
G01X-9282749Y392718D01*
G01X-9286305Y381796D01*
G01X-9290115Y374430D01*
G01X-9297481Y367064D01*
G01X-9308403Y363254D01*
G01X-9334311Y363254D01*
G01X-9253031Y337600D02*
G01X-9186737Y337600D01*
G01X-9157019Y337600D02*
G01X-9090725Y337600D01*
G01X-9024177Y440724D02*
G01X-9061007Y389162D01*
G01X-9005635Y389162D01*
G01X-9024177Y440724D02*
G01X-9024177Y363254D01*
G01X-8957375Y440724D02*
G01X-8968551Y437168D01*
G01X-8972361Y429802D01*
G01X-8972361Y422436D01*
G01X-8968551Y414816D01*
G01X-8961185Y411260D01*
G01X-8946453Y407450D01*
G01X-8935277Y403894D01*
G01X-8927911Y396528D01*
G01X-8924355Y389162D01*
G01X-8924355Y377986D01*
G01X-8927911Y370620D01*
G01X-8931721Y367064D01*
G01X-8942643Y363254D01*
G01X-8957375Y363254D01*
G01X-8968551Y367064D01*
G01X-8972361Y370620D01*
G01X-8975917Y377986D01*
G01X-8975917Y389162D01*
G01X-8972361Y396528D01*
G01X-8964995Y403894D01*
G01X-8953819Y407450D01*
G01X-8939087Y411260D01*
G01X-8931721Y414816D01*
G01X-8927911Y422436D01*
G01X-8927911Y429802D01*
G01X-8931721Y437168D01*
G01X-8942643Y440724D01*
G01X-8957375Y440724D01*
G01X-8894637Y440724D02*
G01X-8865173Y363254D01*
G01X-8835709Y440724D02*
G01X-8865173Y363254D01*
G01X-3448353Y5357188D02*
G01X-3485183Y5357188D01*
G01X-3488993Y5323914D01*
G01X-3485183Y5327724D01*
G01X-3474261Y5331280D01*
G01X-3463085Y5331280D01*
G01X-3452163Y5327724D01*
G01X-3444797Y5320358D01*
G01X-3440987Y5309182D01*
G01X-3440987Y5301816D01*
G01X-3444797Y5290894D01*
G01X-3452163Y5283528D01*
G01X-3463085Y5279718D01*
G01X-3474261Y5279718D01*
G01X-3485183Y5283528D01*
G01X-3488993Y5287084D01*
G01X-3492549Y5294450D01*
G01X-3411269Y5357188D02*
G01X-3381805Y5279718D01*
G01X-3352341Y5357188D02*
G01X-3381805Y5279718D01*
G01X-3322623Y5254064D02*
G01X-3256329Y5254064D01*
G01X-3226611Y5357188D02*
G01X-3226611Y5279718D01*
G01X-3226611Y5357188D02*
G01X-3200703Y5357188D01*
G01X-3189781Y5353632D01*
G01X-3182415Y5346266D01*
G01X-3178605Y5338900D01*
G01X-3175049Y5327724D01*
G01X-3175049Y5309182D01*
G01X-3178605Y5298260D01*
G01X-3182415Y5290894D01*
G01X-3189781Y5283528D01*
G01X-3200703Y5279718D01*
G01X-3226611Y5279718D01*
G01X-3145331Y5357188D02*
G01X-3145331Y5279718D01*
G01X-3115613Y5357188D02*
G01X-3115613Y5279718D01*
G01X-3115613Y5357188D02*
G01X-3082339Y5357188D01*
G01X-3071417Y5353632D01*
G01X-3067607Y5349822D01*
G01X-3064051Y5342456D01*
G01X-3064051Y5335090D01*
G01X-3067607Y5327724D01*
G01X-3071417Y5323914D01*
G01X-3082339Y5320358D01*
G01X-3115613Y5320358D01*
G01X-3089705Y5320358D02*
G01X-3064051Y5279718D01*
G01X-3034333Y5254064D02*
G01X-2968039Y5254064D01*
G01X-2886759Y5346266D02*
G01X-2894125Y5353632D01*
G01X-2905047Y5357188D01*
G01X-2919779Y5357188D01*
G01X-2930955Y5353632D01*
G01X-2938321Y5346266D01*
G01X-2938321Y5338900D01*
G01X-2934765Y5331280D01*
G01X-2930955Y5327724D01*
G01X-2923589Y5323914D01*
G01X-2901491Y5316548D01*
G01X-2894125Y5312992D01*
G01X-2890315Y5309182D01*
G01X-2886759Y5301816D01*
G01X-2886759Y5290894D01*
G01X-2894125Y5283528D01*
G01X-2905047Y5279718D01*
G01X-2919779Y5279718D01*
G01X-2930955Y5283528D01*
G01X-2938321Y5290894D01*
G01X-2831133Y5357188D02*
G01X-2831133Y5279718D01*
G01X-2857041Y5357188D02*
G01X-2805479Y5357188D01*
G01X-2775761Y5357188D02*
G01X-2775761Y5279718D01*
G01X-2775761Y5357188D02*
G01X-2727755Y5357188D01*
G01X-2775761Y5320358D02*
G01X-2746297Y5320358D01*
G01X-2775761Y5279718D02*
G01X-2727755Y5279718D01*
G01X-2698037Y5357188D02*
G01X-2698037Y5279718D01*
G01X-2698037Y5357188D02*
G01X-2664763Y5357188D01*
G01X-2653841Y5353632D01*
G01X-2650031Y5349822D01*
G01X-2646475Y5342456D01*
G01X-2646475Y5331280D01*
G01X-2650031Y5323914D01*
G01X-2653841Y5320358D01*
G01X-2664763Y5316548D01*
G01X-2698037Y5316548D01*
G01X-2616757Y5254064D02*
G01X-2550463Y5254064D01*
G01X-2520745Y5357188D02*
G01X-2520745Y5279718D01*
G01X-2520745Y5357188D02*
G01X-2472739Y5357188D01*
G01X-2520745Y5320358D02*
G01X-2491281Y5320358D01*
G01X-2520745Y5279718D02*
G01X-2472739Y5279718D01*
G01X-2443021Y5357188D02*
G01X-2443021Y5279718D01*
G01X-2443021Y5357188D02*
G01X-2391459Y5279718D01*
G01X-2391459Y5357188D02*
G01X-2391459Y5279718D01*
G54D10*
G01X-2579129Y4809663D02*
G01X-2579129Y4726351D01*
G01X-2579129Y4809663D02*
G01X-2543569Y4809663D01*
G01X-2531631Y4805599D01*
G01X-2527567Y4801789D01*
G01X-2523757Y4793915D01*
G01X-2523757Y4781977D01*
G01X-2527567Y4773849D01*
G01X-2531631Y4770039D01*
G01X-2543569Y4765975D01*
G01X-2579129Y4765975D01*
G01X-2452129Y4809663D02*
G01X-2491753Y4754037D01*
G01X-2432063Y4754037D01*
G01X-2452129Y4809663D02*
G01X-2452129Y4726351D01*
G01X-3165637Y2917538D02*
G01X-3165637Y2858102D01*
G01X-3161827Y2846164D01*
G01X-3153953Y2838290D01*
G01X-3142015Y2834226D01*
G01X-3133887Y2834226D01*
G01X-3122203Y2838290D01*
G01X-3114075Y2846164D01*
G01X-3110265Y2858102D01*
G01X-3110265Y2917538D01*
G01X-3038637Y2917538D02*
G01X-3078261Y2861912D01*
G01X-3018571Y2861912D01*
G01X-3038637Y2917538D02*
G01X-3038637Y2834226D01*
G54D11*
G01X-2147836Y5372488D02*
G01X-2184666Y5372488D01*
G01X-2188476Y5339214D01*
G01X-2184666Y5343024D01*
G01X-2173744Y5346580D01*
G01X-2162568Y5346580D01*
G01X-2151646Y5343024D01*
G01X-2144280Y5335658D01*
G01X-2140470Y5324482D01*
G01X-2140470Y5317116D01*
G01X-2144280Y5306194D01*
G01X-2151646Y5298828D01*
G01X-2162568Y5295018D01*
G01X-2173744Y5295018D01*
G01X-2184666Y5298828D01*
G01X-2188476Y5302384D01*
G01X-2192032Y5309750D01*
G01X-2110752Y5372488D02*
G01X-2081288Y5295018D01*
G01X-2051824Y5372488D02*
G01X-2081288Y5295018D01*
G01X-2022106Y5269364D02*
G01X-1955812Y5269364D01*
G01X-1926094Y5372488D02*
G01X-1926094Y5295018D01*
G01X-1926094Y5372488D02*
G01X-1900186Y5372488D01*
G01X-1889264Y5368932D01*
G01X-1881898Y5361566D01*
G01X-1878088Y5354200D01*
G01X-1874532Y5343024D01*
G01X-1874532Y5324482D01*
G01X-1878088Y5313560D01*
G01X-1881898Y5306194D01*
G01X-1889264Y5298828D01*
G01X-1900186Y5295018D01*
G01X-1926094Y5295018D01*
G01X-1844814Y5372488D02*
G01X-1844814Y5295018D01*
G01X-1815096Y5372488D02*
G01X-1815096Y5295018D01*
G01X-1815096Y5372488D02*
G01X-1781822Y5372488D01*
G01X-1770900Y5368932D01*
G01X-1767090Y5365122D01*
G01X-1763534Y5357756D01*
G01X-1763534Y5350390D01*
G01X-1767090Y5343024D01*
G01X-1770900Y5339214D01*
G01X-1781822Y5335658D01*
G01X-1815096Y5335658D01*
G01X-1789188Y5335658D02*
G01X-1763534Y5295018D01*
G01X-1733816Y5269364D02*
G01X-1667522Y5269364D01*
G01X-1586242Y5361566D02*
G01X-1593608Y5368932D01*
G01X-1604530Y5372488D01*
G01X-1619262Y5372488D01*
G01X-1630438Y5368932D01*
G01X-1637804Y5361566D01*
G01X-1637804Y5354200D01*
G01X-1634248Y5346580D01*
G01X-1630438Y5343024D01*
G01X-1623072Y5339214D01*
G01X-1600974Y5331848D01*
G01X-1593608Y5328292D01*
G01X-1589798Y5324482D01*
G01X-1586242Y5317116D01*
G01X-1586242Y5306194D01*
G01X-1593608Y5298828D01*
G01X-1604530Y5295018D01*
G01X-1619262Y5295018D01*
G01X-1630438Y5298828D01*
G01X-1637804Y5306194D01*
G01X-1530616Y5372488D02*
G01X-1530616Y5295018D01*
G01X-1556524Y5372488D02*
G01X-1504962Y5372488D01*
G01X-1475244Y5372488D02*
G01X-1475244Y5295018D01*
G01X-1475244Y5372488D02*
G01X-1427238Y5372488D01*
G01X-1475244Y5335658D02*
G01X-1445780Y5335658D01*
G01X-1475244Y5295018D02*
G01X-1427238Y5295018D01*
G01X-1397520Y5372488D02*
G01X-1397520Y5295018D01*
G01X-1397520Y5372488D02*
G01X-1364246Y5372488D01*
G01X-1353324Y5368932D01*
G01X-1349514Y5365122D01*
G01X-1345958Y5357756D01*
G01X-1345958Y5346580D01*
G01X-1349514Y5339214D01*
G01X-1353324Y5335658D01*
G01X-1364246Y5331848D01*
G01X-1397520Y5331848D01*
G01X-1316240Y5269364D02*
G01X-1249946Y5269364D01*
G01X-1220228Y5372488D02*
G01X-1220228Y5295018D01*
G01X-1220228Y5372488D02*
G01X-1172222Y5372488D01*
G01X-1220228Y5335658D02*
G01X-1190764Y5335658D01*
G01X-1220228Y5295018D02*
G01X-1172222Y5295018D01*
G01X-1142504Y5372488D02*
G01X-1142504Y5295018D01*
G01X-1142504Y5372488D02*
G01X-1090942Y5295018D01*
G01X-1090942Y5372488D02*
G01X-1090942Y5295018D01*
G01X-781019Y5367388D02*
G01X-817849Y5367388D01*
G01X-821659Y5334114D01*
G01X-817849Y5337924D01*
G01X-806927Y5341480D01*
G01X-795751Y5341480D01*
G01X-784829Y5337924D01*
G01X-777463Y5330558D01*
G01X-773653Y5319382D01*
G01X-773653Y5312016D01*
G01X-777463Y5301094D01*
G01X-784829Y5293728D01*
G01X-795751Y5289918D01*
G01X-806927Y5289918D01*
G01X-817849Y5293728D01*
G01X-821659Y5297284D01*
G01X-825215Y5304650D01*
G01X-743935Y5367388D02*
G01X-714471Y5289918D01*
G01X-685007Y5367388D02*
G01X-714471Y5289918D01*
G01X-655289Y5264264D02*
G01X-588995Y5264264D01*
G01X-559277Y5367388D02*
G01X-559277Y5289918D01*
G01X-559277Y5367388D02*
G01X-533369Y5367388D01*
G01X-522447Y5363832D01*
G01X-515081Y5356466D01*
G01X-511271Y5349100D01*
G01X-507715Y5337924D01*
G01X-507715Y5319382D01*
G01X-511271Y5308460D01*
G01X-515081Y5301094D01*
G01X-522447Y5293728D01*
G01X-533369Y5289918D01*
G01X-559277Y5289918D01*
G01X-477997Y5367388D02*
G01X-477997Y5289918D01*
G01X-448279Y5367388D02*
G01X-448279Y5289918D01*
G01X-448279Y5367388D02*
G01X-415005Y5367388D01*
G01X-404083Y5363832D01*
G01X-400273Y5360022D01*
G01X-396717Y5352656D01*
G01X-396717Y5345290D01*
G01X-400273Y5337924D01*
G01X-404083Y5334114D01*
G01X-415005Y5330558D01*
G01X-448279Y5330558D01*
G01X-422371Y5330558D02*
G01X-396717Y5289918D01*
G01X-366999Y5264264D02*
G01X-300705Y5264264D01*
G01X-219425Y5356466D02*
G01X-226791Y5363832D01*
G01X-237713Y5367388D01*
G01X-252445Y5367388D01*
G01X-263621Y5363832D01*
G01X-270987Y5356466D01*
G01X-270987Y5349100D01*
G01X-267431Y5341480D01*
G01X-263621Y5337924D01*
G01X-256255Y5334114D01*
G01X-234157Y5326748D01*
G01X-226791Y5323192D01*
G01X-222981Y5319382D01*
G01X-219425Y5312016D01*
G01X-219425Y5301094D01*
G01X-226791Y5293728D01*
G01X-237713Y5289918D01*
G01X-252445Y5289918D01*
G01X-263621Y5293728D01*
G01X-270987Y5301094D01*
G01X-163799Y5367388D02*
G01X-163799Y5289918D01*
G01X-189707Y5367388D02*
G01X-138145Y5367388D01*
G01X-108427Y5367388D02*
G01X-108427Y5289918D01*
G01X-108427Y5367388D02*
G01X-60421Y5367388D01*
G01X-108427Y5330558D02*
G01X-78963Y5330558D01*
G01X-108427Y5289918D02*
G01X-60421Y5289918D01*
G01X-30703Y5367388D02*
G01X-30703Y5289918D01*
G01X-30703Y5367388D02*
G01X2571Y5367388D01*
G01X13493Y5363832D01*
G01X17303Y5360022D01*
G01X20859Y5352656D01*
G01X20859Y5341480D01*
G01X17303Y5334114D01*
G01X13493Y5330558D01*
G01X2571Y5326748D01*
G01X-30703Y5326748D01*
G01X50577Y5264264D02*
G01X116871Y5264264D01*
G01X146589Y5367388D02*
G01X146589Y5289918D01*
G01X146589Y5367388D02*
G01X194595Y5367388D01*
G01X146589Y5330558D02*
G01X176053Y5330558D01*
G01X146589Y5289918D02*
G01X194595Y5289918D01*
G01X224313Y5367388D02*
G01X224313Y5289918D01*
G01X224313Y5367388D02*
G01X275875Y5289918D01*
G01X275875Y5367388D02*
G01X275875Y5289918D01*
G01X381796Y5357188D02*
G01X344966Y5357188D01*
G01X341156Y5323914D01*
G01X344966Y5327724D01*
G01X355888Y5331280D01*
G01X367064Y5331280D01*
G01X377986Y5327724D01*
G01X385352Y5320358D01*
G01X389162Y5309182D01*
G01X389162Y5301816D01*
G01X385352Y5290894D01*
G01X377986Y5283528D01*
G01X367064Y5279718D01*
G01X355888Y5279718D01*
G01X344966Y5283528D01*
G01X341156Y5287084D01*
G01X337600Y5294450D01*
G01X418880Y5357188D02*
G01X448344Y5279718D01*
G01X477808Y5357188D02*
G01X448344Y5279718D01*
G01X507526Y5254064D02*
G01X573820Y5254064D01*
G01X603538Y5357188D02*
G01X603538Y5279718D01*
G01X603538Y5357188D02*
G01X629446Y5357188D01*
G01X640368Y5353632D01*
G01X647734Y5346266D01*
G01X651544Y5338900D01*
G01X655100Y5327724D01*
G01X655100Y5309182D01*
G01X651544Y5298260D01*
G01X647734Y5290894D01*
G01X640368Y5283528D01*
G01X629446Y5279718D01*
G01X603538Y5279718D01*
G01X684818Y5357188D02*
G01X684818Y5279718D01*
G01X714536Y5357188D02*
G01X714536Y5279718D01*
G01X714536Y5357188D02*
G01X747810Y5357188D01*
G01X758732Y5353632D01*
G01X762542Y5349822D01*
G01X766098Y5342456D01*
G01X766098Y5335090D01*
G01X762542Y5327724D01*
G01X758732Y5323914D01*
G01X747810Y5320358D01*
G01X714536Y5320358D01*
G01X740444Y5320358D02*
G01X766098Y5279718D01*
G01X795816Y5254064D02*
G01X862110Y5254064D01*
G01X943390Y5346266D02*
G01X936024Y5353632D01*
G01X925102Y5357188D01*
G01X910370Y5357188D01*
G01X899194Y5353632D01*
G01X891828Y5346266D01*
G01X891828Y5338900D01*
G01X895384Y5331280D01*
G01X899194Y5327724D01*
G01X906560Y5323914D01*
G01X928658Y5316548D01*
G01X936024Y5312992D01*
G01X939834Y5309182D01*
G01X943390Y5301816D01*
G01X943390Y5290894D01*
G01X936024Y5283528D01*
G01X925102Y5279718D01*
G01X910370Y5279718D01*
G01X899194Y5283528D01*
G01X891828Y5290894D01*
G01X999016Y5357188D02*
G01X999016Y5279718D01*
G01X973108Y5357188D02*
G01X1024670Y5357188D01*
G01X1054388Y5357188D02*
G01X1054388Y5279718D01*
G01X1054388Y5357188D02*
G01X1102394Y5357188D01*
G01X1054388Y5320358D02*
G01X1083852Y5320358D01*
G01X1054388Y5279718D02*
G01X1102394Y5279718D01*
G01X1132112Y5357188D02*
G01X1132112Y5279718D01*
G01X1132112Y5357188D02*
G01X1165386Y5357188D01*
G01X1176308Y5353632D01*
G01X1180118Y5349822D01*
G01X1183674Y5342456D01*
G01X1183674Y5331280D01*
G01X1180118Y5323914D01*
G01X1176308Y5320358D01*
G01X1165386Y5316548D01*
G01X1132112Y5316548D01*
G01X1213392Y5254064D02*
G01X1279686Y5254064D01*
G01X1309404Y5357188D02*
G01X1309404Y5279718D01*
G01X1309404Y5357188D02*
G01X1357410Y5357188D01*
G01X1309404Y5320358D02*
G01X1338868Y5320358D01*
G01X1309404Y5279718D02*
G01X1357410Y5279718D01*
G01X1387128Y5357188D02*
G01X1387128Y5279718D01*
G01X1387128Y5357188D02*
G01X1438690Y5279718D01*
G01X1438690Y5357188D02*
G01X1438690Y5279718D01*
G01X-10903928Y1304748D02*
G01X-10907484Y1312114D01*
G01X-10914850Y1319480D01*
G01X-10922216Y1323036D01*
G01X-10936948Y1323036D01*
G01X-10944314Y1319480D01*
G01X-10951680Y1312114D01*
G01X-10955490Y1304748D01*
G01X-10959046Y1293572D01*
G01X-10959046Y1275030D01*
G01X-10955490Y1264108D01*
G01X-10951680Y1256742D01*
G01X-10944314Y1249376D01*
G01X-10936948Y1245566D01*
G01X-10922216Y1245566D01*
G01X-10914850Y1249376D01*
G01X-10907484Y1256742D01*
G01X-10903928Y1264108D01*
G01X-10903928Y1275030D01*
G01X-10922216Y1275030D02*
G01X-10903928Y1275030D01*
G01X-10874210Y1323036D02*
G01X-10874210Y1245566D01*
G01X-10874210Y1323036D02*
G01X-10822648Y1245566D01*
G01X-10822648Y1323036D02*
G01X-10822648Y1245566D01*
G01X-10792930Y1323036D02*
G01X-10792930Y1245566D01*
G01X-10792930Y1323036D02*
G01X-10767022Y1323036D01*
G01X-10756100Y1319480D01*
G01X-10748734Y1312114D01*
G01X-10744924Y1304748D01*
G01X-10741368Y1293572D01*
G01X-10741368Y1275030D01*
G01X-10744924Y1264108D01*
G01X-10748734Y1256742D01*
G01X-10756100Y1249376D01*
G01X-10767022Y1245566D01*
G01X-10792930Y1245566D01*
G04 Text End*

G04 PolygonModel Start*
G54D12*
G01X-1996700Y-225000D02*
G01X-1603300Y-225000D01*
G01X-3634700Y-225000D02*
G01X-3241300Y-225000D01*
G54D13*
G01X-3193400Y5187385D02*
G01X-3193400Y5259985D01*
G01X-3345800Y5187385D02*
G01X-3193400Y5187385D01*
G01X-3345800Y5187385D02*
G01X-3345800Y5259985D01*
G01X-2837800Y5187385D02*
G01X-2837800Y5259985D01*
G01X-2837800Y5187385D02*
G01X-2685400Y5187385D01*
G01X-2685400Y5187385D02*
G01X-2685400Y5259985D01*
G01X-3637900Y5259985D02*
G01X-2393300Y5259985D01*
G01X-3637900Y4679985D02*
G01X-2393300Y4679985D01*
G01X-2393300Y4679985D02*
G01X-2393300Y5259985D01*
G01X-3637900Y4679985D02*
G01X-3637900Y5259985D01*
G01X-1850700Y5192500D02*
G01X-1850700Y5265100D01*
G01X-2003100Y5192500D02*
G01X-1850700Y5192500D01*
G01X-2003100Y5192500D02*
G01X-2003100Y5265100D01*
G01X-1495100Y5192500D02*
G01X-1495100Y5265100D01*
G01X-1495100Y5192500D02*
G01X-1342700Y5192500D01*
G01X-1342700Y5192500D02*
G01X-1342700Y5265100D01*
G01X-2295200Y5265100D02*
G01X-1050600Y5265100D01*
G01X-2295200Y4685100D02*
G01X-1050600Y4685100D01*
G01X-1050600Y4685100D02*
G01X-1050600Y5265100D01*
G01X-2295200Y4685100D02*
G01X-2295200Y5265100D01*
G01X-5200466Y1320213D02*
G03X-5200466Y740214I79994J-289999D01*
G01X-5040467Y740214D02*
G03X-5040467Y1320213I-80003J289999D01*
G01X-5193618Y700013D02*
G01X-5450412Y700013D01*
G01X-4790520Y700013D02*
G01X-5047314Y700013D01*
G01X-5193618Y1359905D02*
G01X-5320364Y1359905D01*
G01X-4920568Y1359905D02*
G01X-5047314Y1359905D01*
G01X-4790520Y1229857D02*
G01X-4920568Y1359905D01*
G01X-5450412Y1229857D02*
G01X-5320364Y1359905D01*
G01X-4790520Y700013D02*
G01X-4790520Y1229857D01*
G01X-5450412Y700013D02*
G01X-5450412Y1229857D01*
G36*
G01X-5420466Y980213D02*
G01X-4830467Y980213D01*
G01X-4840467Y920214D01*
G01X-4860467Y870214D01*
G01X-4890467Y840214D01*
G01X-4910467Y810214D01*
G01X-4940467Y780214D01*
G01X-4980467Y760214D01*
G01X-5040466Y740214D01*
G01X-5040466Y920214D01*
G01X-5200466Y920214D01*
G01X-5200466Y740214D01*
G01X-5220466Y750214D01*
G01X-5260466Y760214D01*
G01X-5290466Y790214D01*
G01X-5330466Y810214D01*
G01X-5360466Y850214D01*
G01X-5400466Y930214D01*
G01X-5420466Y980213D01*
G37*
G54D14*
G01X-4713284Y2099927D02*
G01X-4793287Y2099927D01*
G01X-4682299Y2210903D02*
G01X-4682299Y2130905D01*
G01X-4824265Y2210903D02*
G01X-4824265Y2130905D01*
G01X-4681717Y2268492D02*
G01X-4681717Y2348492D01*
G01X-4712700Y2379475D02*
G01X-4792698Y2379475D01*
G01X-4823678Y2268492D02*
G01X-4823678Y2348492D01*
G01X-4712700Y2379480D02*
G02X-4681717Y2348497I0J-30983D01*
G01X-4823683Y2348497D02*
G02X-4792698Y2379480I30983J0D01*
G01X-4682299Y2130910D02*
G02X-4713284Y2099927I-30983J0D01*
G01X-4793282Y2099927D02*
G02X-4824265Y2130910I0J30983D01*
G54D13*
G01X-3415443Y1325313D02*
G03X-3415443Y745314I79994J-289999D01*
G01X-3255443Y745314D02*
G03X-3255443Y1325313I-80003J289999D01*
G01X-3408595Y705113D02*
G01X-3665389Y705113D01*
G01X-3005497Y705113D02*
G01X-3262291Y705113D01*
G01X-3408595Y1365005D02*
G01X-3535341Y1365005D01*
G01X-3135545Y1365005D02*
G01X-3262291Y1365005D01*
G01X-3005497Y1234957D02*
G01X-3135545Y1365005D01*
G01X-3665389Y1234957D02*
G01X-3535341Y1365005D01*
G01X-3005497Y705113D02*
G01X-3005497Y1234957D01*
G01X-3665389Y705113D02*
G01X-3665389Y1234957D01*
G36*
G01X-3635443Y985313D02*
G01X-3045444Y985313D01*
G01X-3055444Y925314D01*
G01X-3075444Y875314D01*
G01X-3105444Y845314D01*
G01X-3125444Y815314D01*
G01X-3155444Y785314D01*
G01X-3195443Y765314D01*
G01X-3255443Y745314D01*
G01X-3255443Y925314D01*
G01X-3415443Y925314D01*
G01X-3415443Y745314D01*
G01X-3435443Y755314D01*
G01X-3475443Y765314D01*
G01X-3505443Y795314D01*
G01X-3545443Y815314D01*
G01X-3575443Y855314D01*
G01X-3615443Y935314D01*
G01X-3635443Y985313D01*
G37*
G54D14*
G01X-3055763Y2099927D02*
G01X-3135765Y2099927D01*
G01X-3024778Y2210903D02*
G01X-3024778Y2130905D01*
G01X-3166743Y2210903D02*
G01X-3166743Y2130905D01*
G01X-3024196Y2268492D02*
G01X-3024196Y2348492D01*
G01X-3055179Y2379475D02*
G01X-3135176Y2379475D01*
G01X-3166156Y2268492D02*
G01X-3166156Y2348492D01*
G01X-3055179Y2379480D02*
G02X-3024196Y2348497I0J-30983D01*
G01X-3166162Y2348497D02*
G02X-3135176Y2379480I30983J0D01*
G01X-3024778Y2130910D02*
G02X-3055763Y2099927I-30983J0D01*
G01X-3135760Y2099927D02*
G02X-3166743Y2130910I0J30983D01*
G54D13*
G01X-1773222Y1320213D02*
G03X-1773222Y740214I79994J-289999D01*
G01X-1613222Y740214D02*
G03X-1613222Y1320213I-80003J289999D01*
G01X-1766374Y700013D02*
G01X-2023168Y700013D01*
G01X-1363276Y700013D02*
G01X-1620070Y700013D01*
G01X-1766374Y1359905D02*
G01X-1893120Y1359905D01*
G01X-1493324Y1359905D02*
G01X-1620070Y1359905D01*
G01X-1363276Y1229857D02*
G01X-1493324Y1359905D01*
G01X-2023168Y1229857D02*
G01X-1893120Y1359905D01*
G01X-1363276Y700013D02*
G01X-1363276Y1229857D01*
G01X-2023168Y700013D02*
G01X-2023168Y1229857D01*
G36*
G01X-1993221Y980213D02*
G01X-1403222Y980213D01*
G01X-1413222Y920214D01*
G01X-1433222Y870214D01*
G01X-1463222Y840214D01*
G01X-1483222Y810214D01*
G01X-1513222Y780214D01*
G01X-1553222Y760214D01*
G01X-1613222Y740214D01*
G01X-1613222Y920214D01*
G01X-1773222Y920214D01*
G01X-1773222Y740214D01*
G01X-1793222Y750214D01*
G01X-1833222Y760214D01*
G01X-1863222Y790214D01*
G01X-1903221Y810214D01*
G01X-1933221Y850214D01*
G01X-1973221Y930214D01*
G01X-1993221Y980213D01*
G37*
G54D14*
G01X-1403342Y2099927D02*
G01X-1483344Y2099927D01*
G01X-1372356Y2210903D02*
G01X-1372356Y2130905D01*
G01X-1514322Y2210903D02*
G01X-1514322Y2130905D01*
G01X-1371774Y2268492D02*
G01X-1371774Y2348492D01*
G01X-1402757Y2379475D02*
G01X-1482755Y2379475D01*
G01X-1513735Y2268492D02*
G01X-1513735Y2348492D01*
G01X-1402757Y2379480D02*
G02X-1371774Y2348497I0J-30983D01*
G01X-1513740Y2348497D02*
G02X-1482755Y2379480I30983J0D01*
G01X-1372356Y2130910D02*
G02X-1403342Y2099927I-30983J0D01*
G01X-1483339Y2099927D02*
G02X-1514322Y2130910I0J30983D01*
G01X-3397467Y2977139D02*
G01X-3477470Y2977139D01*
G01X-3366482Y3088114D02*
G01X-3366482Y3008117D01*
G01X-3508448Y3088114D02*
G01X-3508448Y3008117D01*
G01X-3365900Y3145703D02*
G01X-3365900Y3225703D01*
G01X-3396883Y3256686D02*
G01X-3476881Y3256686D01*
G01X-3507861Y3145703D02*
G01X-3507861Y3225703D01*
G01X-3396883Y3256691D02*
G02X-3365900Y3225708I0J-30983D01*
G01X-3507866Y3225708D02*
G02X-3476881Y3256691I30983J0D01*
G01X-3366482Y3008122D02*
G02X-3397467Y2977139I-30983J0D01*
G01X-3477465Y2977139D02*
G02X-3508448Y3008122I0J30983D01*
G01X-1739946Y2977139D02*
G01X-1819948Y2977139D01*
G01X-1708961Y3088114D02*
G01X-1708961Y3008117D01*
G01X-1850926Y3088114D02*
G01X-1850926Y3008117D01*
G01X-1708379Y3145703D02*
G01X-1708379Y3225703D01*
G01X-1739362Y3256686D02*
G01X-1819359Y3256686D01*
G01X-1850339Y3145703D02*
G01X-1850339Y3225703D01*
G01X-1739362Y3256691D02*
G02X-1708379Y3225708I0J-30983D01*
G01X-1850345Y3225708D02*
G02X-1819359Y3256691I30983J0D01*
G01X-1708961Y3008122D02*
G02X-1739946Y2977139I-30983J0D01*
G01X-1819943Y2977139D02*
G02X-1850926Y3008122I0J30983D01*
G01X-67124Y2977139D02*
G01X-147127Y2977139D01*
G01X-36139Y3088114D02*
G01X-36139Y3008117D01*
G01X-178105Y3088114D02*
G01X-178105Y3008117D01*
G01X-35557Y3145703D02*
G01X-35557Y3225703D01*
G01X-66540Y3256686D02*
G01X-146537Y3256686D01*
G01X-177518Y3145703D02*
G01X-177518Y3225703D01*
G01X-66540Y3256691D02*
G02X-35557Y3225708I0J-30983D01*
G01X-177523Y3225708D02*
G02X-146537Y3256691I30983J0D01*
G01X-36139Y3008122D02*
G02X-67124Y2977139I-30983J0D01*
G01X-147122Y2977139D02*
G02X-178105Y3008122I0J30983D01*
G54D13*
G01X108702Y1320213D02*
G03X108702Y740214I79994J-289999D01*
G01X268702Y740214D02*
G03X268702Y1320213I-80003J289999D01*
G01X115550Y700013D02*
G01X-141244Y700013D01*
G01X518648Y700013D02*
G01X261854Y700013D01*
G01X115550Y1359905D02*
G01X-11196Y1359905D01*
G01X388600Y1359905D02*
G01X261854Y1359905D01*
G01X518648Y1229857D02*
G01X388600Y1359905D01*
G01X-141244Y1229857D02*
G01X-11196Y1359905D01*
G01X518648Y700013D02*
G01X518648Y1229857D01*
G01X-141244Y700013D02*
G01X-141244Y1229857D01*
G36*
G01X-111297Y980213D02*
G01X478702Y980213D01*
G01X468702Y920214D01*
G01X448702Y870214D01*
G01X418702Y840214D01*
G01X398702Y810214D01*
G01X368702Y780214D01*
G01X328702Y760214D01*
G01X268702Y740214D01*
G01X268702Y920214D01*
G01X108703Y920214D01*
G01X108703Y740214D01*
G01X88703Y750214D01*
G01X48703Y760214D01*
G01X18703Y790214D01*
G01X-21297Y810214D01*
G01X-51297Y850214D01*
G01X-91297Y930214D01*
G01X-111297Y980213D01*
G37*
G54D14*
G01X223579Y2099927D02*
G01X143577Y2099927D01*
G01X254565Y2210903D02*
G01X254565Y2130905D01*
G01X112599Y2210903D02*
G01X112599Y2130905D01*
G01X255147Y2268492D02*
G01X255147Y2348492D01*
G01X224164Y2379475D02*
G01X144166Y2379475D01*
G01X113186Y2268492D02*
G01X113186Y2348492D01*
G01X224164Y2379480D02*
G02X255147Y2348497I0J-30983D01*
G01X113181Y2348497D02*
G02X144166Y2379480I30983J0D01*
G01X254565Y2130910D02*
G02X223579Y2099927I-30983J0D01*
G01X143582Y2099927D02*
G02X112599Y2130910I0J30983D01*
G01X1462895Y2977139D02*
G01X1382893Y2977139D01*
G01X1493881Y3088114D02*
G01X1493881Y3008117D01*
G01X1351915Y3088114D02*
G01X1351915Y3008117D01*
G01X1494463Y3145703D02*
G01X1494463Y3225703D01*
G01X1463480Y3256686D02*
G01X1383482Y3256686D01*
G01X1352502Y3145703D02*
G01X1352502Y3225703D01*
G01X1463480Y3256691D02*
G02X1494463Y3225708I0J-30983D01*
G01X1352497Y3225708D02*
G02X1383482Y3256691I30983J0D01*
G01X1493881Y3008122D02*
G02X1462895Y2977139I-30983J0D01*
G01X1382898Y2977139D02*
G02X1351915Y3008122I0J30983D01*
G01X-10099222Y1726714D02*
G03X-9167802Y1732119I465001J124997D01*
G01X-9164225Y1946713D02*
G03X-10102306Y1955733I-469997J-94996D01*
G01X-9229211Y2361724D02*
G01X-10144221Y2361724D01*
G01X-9229211Y1331703D02*
G01X-10144221Y1331703D01*
G01X-9114200Y2246713D02*
G01X-9229211Y2361724D01*
G01X-9114200Y1446714D02*
G01X-9229211Y1331703D01*
G01X-10144221Y1748598D02*
G01X-10144221Y1331703D01*
G01X-10144221Y2361724D02*
G01X-10144221Y1944829D01*
G01X-9114200Y1748598D02*
G01X-9114200Y1446714D01*
G01X-9114200Y2246713D02*
G01X-9114200Y1944829D01*
G36*
G01X-9764224Y2311714D02*
G01X-9809223Y2291714D01*
G01X-9869223Y2266713D01*
G01X-9919222Y2236713D01*
G01X-9954224Y2201714D01*
G01X-9984224Y2181714D01*
G01X-10014221Y2141714D01*
G01X-10049222Y2081714D01*
G01X-10074223Y2041714D01*
G01X-10089222Y2006713D01*
G01X-10104221Y1951715D01*
G01X-9889223Y1951715D01*
G01X-9889223Y1721715D01*
G01X-10094223Y1721715D01*
G01X-10079222Y1666714D01*
G01X-10049222Y1601715D01*
G01X-10024224Y1556714D01*
G01X-9969222Y1501716D01*
G01X-9909222Y1461716D01*
G01X-9849223Y1426714D01*
G01X-9809223Y1396715D01*
G01X-9764224Y1381716D01*
G01X-9764224Y2311714D01*
G37*
G01X-7771409Y1965734D02*
G03X-8702830Y1960328I-465001J-124997D01*
G01X-8706406Y1745735D02*
G03X-7768326Y1736715I469997J94996D01*
G01X-8641420Y1330724D02*
G01X-7726411Y1330724D01*
G01X-8641420Y2360745D02*
G01X-7726411Y2360745D01*
G01X-8756431Y1445735D02*
G01X-8641420Y1330724D01*
G01X-8756431Y2245733D02*
G01X-8641420Y2360745D01*
G01X-7726411Y1943849D02*
G01X-7726411Y2360745D01*
G01X-7726411Y1330724D02*
G01X-7726411Y1747619D01*
G01X-8756431Y1943849D02*
G01X-8756431Y2245733D01*
G01X-8756431Y1445735D02*
G01X-8756431Y1747619D01*
G36*
G01X-8106407Y1380734D02*
G01X-8061409Y1400734D01*
G01X-8001409Y1425735D01*
G01X-7951409Y1455735D01*
G01X-7916408Y1490734D01*
G01X-7886408Y1510734D01*
G01X-7856410Y1550734D01*
G01X-7821409Y1610733D01*
G01X-7796408Y1650733D01*
G01X-7781409Y1685735D01*
G01X-7766410Y1740733D01*
G01X-7981409Y1740733D01*
G01X-7981409Y1970733D01*
G01X-7776408Y1970733D01*
G01X-7791409Y2025734D01*
G01X-7821409Y2090732D01*
G01X-7846408Y2135734D01*
G01X-7901409Y2190732D01*
G01X-7961409Y2230732D01*
G01X-8021409Y2265733D01*
G01X-8061409Y2295733D01*
G01X-8106407Y2310732D01*
G01X-8106407Y1380734D01*
G37*
G01X-7281182Y4276094D02*
G03X-7323969Y4236273I3810J-46990D01*
G01X-7323093Y4150364D02*
G03X-7281268Y4117931I48260J19050D01*
G01X-7018293Y4244344D02*
G03X-7060117Y4276777I-48260J-19050D01*
G01X-7060203Y4118614D02*
G03X-7017417Y4158436I-3810J46990D01*
G01X-7216413Y4118614D02*
G01X-7281183Y4118614D01*
G01X-7216413Y4276094D02*
G01X-7281183Y4276094D01*
G01X-7323093Y4150364D02*
G01X-7323093Y4237994D01*
G01X-7018293Y4156714D02*
G01X-7018293Y4244344D01*
G01X-7060203Y4118614D02*
G01X-7124973Y4118614D01*
G01X-7060203Y4276094D02*
G01X-7124973Y4276094D01*
G01X-6308077Y3184042D02*
G03X-5728079Y3184042I289999J79994D01*
G01X-5728078Y3344042D02*
G03X-6308077Y3344042I-289999J-80003D01*
G01X-5687878Y3190890D02*
G01X-5687878Y2934096D01*
G01X-5687878Y3593988D02*
G01X-5687878Y3337194D01*
G01X-6347770Y3190890D02*
G01X-6347770Y3064144D01*
G01X-6347770Y3463940D02*
G01X-6347770Y3337194D01*
G01X-6217722Y3593988D02*
G01X-6347770Y3463940D01*
G01X-6347770Y3064144D02*
G01X-6217722Y2934096D01*
G01X-6217722Y3593988D02*
G01X-5687878Y3593988D01*
G01X-6217722Y2934096D02*
G01X-5687878Y2934096D01*
G36*
G01X-5968078Y2964043D02*
G01X-5968078Y3554042D01*
G01X-5908078Y3544042D01*
G01X-5858078Y3524042D01*
G01X-5828078Y3494042D01*
G01X-5798078Y3474042D01*
G01X-5768078Y3444042D01*
G01X-5748078Y3404042D01*
G01X-5728078Y3344042D01*
G01X-5908078Y3344042D01*
G01X-5908078Y3184042D01*
G01X-5728078Y3184042D01*
G01X-5738078Y3164042D01*
G01X-5748078Y3124043D01*
G01X-5778078Y3094043D01*
G01X-5798078Y3054043D01*
G01X-5838078Y3024043D01*
G01X-5918078Y2984043D01*
G01X-5968078Y2964043D01*
G37*
G54D13*
G01X-7325993Y4516657D02*
G03X-7375993Y4466657I0J-50000D01*
G01X-7375993Y4366657D02*
G03X-7325993Y4316657I50000J0D01*
G01X-6995993Y4466657D02*
G03X-7045993Y4516657I-50000J-0D01*
G01X-7045993Y4316657D02*
G03X-6995993Y4366657I-0J50000D01*
G01X-7235993Y4516657D02*
G01X-7325993Y4516657D01*
G01X-7235993Y4316657D02*
G01X-7325993Y4316657D01*
G01X-7375993Y4366657D02*
G01X-7375993Y4466657D01*
G01X-6995993Y4366657D02*
G01X-6995993Y4466657D01*
G01X-6995993Y4366657D02*
G01X-6995993Y4366657D01*
G01X-7045993Y4516657D02*
G01X-7135993Y4516657D01*
G01X-7045993Y4316657D02*
G01X-7135993Y4316657D01*
G01X-8667814Y642111D02*
G01X-8667814Y762111D01*
G01X-8947814Y762111D02*
G01X-8947814Y1102111D01*
G01X-8947814Y642111D02*
G01X-8947814Y762111D01*
G01X-8667814Y762111D02*
G01X-8667814Y1102111D01*
G01X-8687814Y642111D02*
G01X-8667814Y642111D01*
G01X-8947814Y642111D02*
G01X-8927814Y642111D01*
G01X-8947814Y932111D02*
G01X-8667814Y932111D01*
G01X-8867814Y812111D02*
G01X-8737814Y812111D01*
G01X-8807814Y882111D02*
G01X-8737814Y812111D01*
G01X-8867814Y882111D02*
G01X-8747814Y882111D01*
G01X-8877814Y812111D02*
G01X-8807814Y882111D01*
G01X-8877814Y812111D02*
G01X-8867814Y812111D01*
G01X-8807814Y792111D02*
G01X-8807814Y902111D01*
G36*
G01X-8697809Y1112116D02*
G01X-8697809Y1022115D01*
G01X-8657809Y1022115D01*
G01X-8657809Y1112116D01*
G01X-8697809Y1112116D01*
G37*
G36*
G01X-8947809Y1112116D02*
G01X-8947809Y1022115D01*
G01X-8907809Y1022115D01*
G01X-8907809Y1112116D01*
G01X-8947809Y1112116D01*
G37*
G01X-9045219Y637011D02*
G01X-9045219Y757011D01*
G01X-9325219Y757011D02*
G01X-9325219Y1097011D01*
G01X-9325219Y637011D02*
G01X-9325219Y757011D01*
G01X-9045219Y757011D02*
G01X-9045219Y1097011D01*
G01X-9065219Y637011D02*
G01X-9045219Y637011D01*
G01X-9325219Y637011D02*
G01X-9305219Y637011D01*
G01X-9325219Y927011D02*
G01X-9045219Y927011D01*
G01X-9245219Y807011D02*
G01X-9115219Y807011D01*
G01X-9185219Y877011D02*
G01X-9115219Y807011D01*
G01X-9245219Y877011D02*
G01X-9125219Y877011D01*
G01X-9255219Y807011D02*
G01X-9185219Y877011D01*
G01X-9255219Y807011D02*
G01X-9245219Y807011D01*
G01X-9185219Y787011D02*
G01X-9185219Y897011D01*
G36*
G01X-9075214Y1107015D02*
G01X-9075214Y1017015D01*
G01X-9035214Y1017015D01*
G01X-9035214Y1107015D01*
G01X-9075214Y1107015D01*
G37*
G36*
G01X-9325214Y1107015D02*
G01X-9325214Y1017015D01*
G01X-9285214Y1017015D01*
G01X-9285214Y1107015D01*
G01X-9325214Y1107015D01*
G37*
G01X-8320506Y4044849D02*
G01X-8320506Y3924849D01*
G01X-8040506Y3924849D02*
G01X-8040506Y3584849D01*
G01X-8040506Y4044849D02*
G01X-8040506Y3924849D01*
G01X-8320506Y3924849D02*
G01X-8320506Y3584849D01*
G01X-8300506Y4044849D02*
G01X-8320506Y4044849D01*
G01X-8040506Y4044849D02*
G01X-8060506Y4044849D01*
G01X-8040506Y3754849D02*
G01X-8320506Y3754849D01*
G01X-8120506Y3874849D02*
G01X-8250506Y3874849D01*
G01X-8180506Y3804849D02*
G01X-8250506Y3874849D01*
G01X-8120506Y3804849D02*
G01X-8240506Y3804849D01*
G01X-8110506Y3874849D02*
G01X-8180506Y3804849D01*
G01X-8110506Y3874849D02*
G01X-8120506Y3874849D01*
G01X-8180506Y3894849D02*
G01X-8180506Y3784849D01*
G36*
G01X-8290511Y3574845D02*
G01X-8290511Y3664845D01*
G01X-8330511Y3664845D01*
G01X-8330511Y3574845D01*
G01X-8290511Y3574845D01*
G37*
G36*
G01X-8040511Y3574845D02*
G01X-8040511Y3664845D01*
G01X-8080511Y3664845D01*
G01X-8080511Y3574845D01*
G01X-8040511Y3574845D01*
G37*
G01X-6396488Y1545327D02*
G01X-6328490Y1545327D01*
G01X-6436490Y1383315D02*
G01X-6406495Y1353320D01*
G01X-6406495Y1353320D02*
G01X-6316485Y1353320D01*
G01X-6436478Y1683322D02*
G01X-6288487Y1683322D01*
G01X-6286483Y1488321D02*
G01X-6286483Y1383315D01*
G01X-6436490Y1488321D02*
G01X-6436490Y1383315D01*
G01X-6286483Y1683322D02*
G01X-6286483Y1568321D01*
G01X-6436490Y1683322D02*
G01X-6436490Y1568321D01*
G01X-6286483Y1383315D02*
G01X-6316485Y1353320D01*
G01X-6329375Y1545327D02*
G01X-6328490Y1545327D01*
G01X-6329375Y1545327D02*
G01X-6359782Y1514920D01*
G01X-6366081Y1514920D02*
G01X-6359782Y1514920D01*
G01X-6396488Y1545327D02*
G01X-6366081Y1514920D01*
G54D14*
G01X-7641708Y3871839D02*
G01X-7946594Y3871839D01*
G01X-7946594Y3871839D02*
G01X-7946594Y2531842D01*
G01X-6995481Y2531842D02*
G01X-6685596Y2531842D01*
G01X-6685596Y2531842D02*
G01X-6685596Y3871839D01*
G01X-6685596Y3871839D02*
G01X-6995481Y3871839D01*
G01X-7943592Y2531842D02*
G01X-7641708Y2531842D01*
G54D13*
G01X-4087360Y-152400D02*
G01X-4087360Y-225000D01*
G01X-3934960Y-152400D02*
G01X-4087360Y-152400D01*
G01X-3934960Y-152400D02*
G01X-3934960Y-225000D01*
G01X-4442960Y-152400D02*
G01X-4442960Y-225000D01*
G01X-4442960Y-152400D02*
G01X-4595360Y-152400D01*
G01X-4595360Y-152400D02*
G01X-4595360Y-225000D01*
G01X-3642860Y-225000D02*
G01X-4887460Y-225000D01*
G01X-3642860Y355000D02*
G01X-4887460Y355000D01*
G01X-4887460Y355000D02*
G01X-4887460Y-225000D01*
G01X-3642860Y355000D02*
G01X-3642860Y-225000D01*
G01X-2441200Y-152400D02*
G01X-2441200Y-225000D01*
G01X-2288800Y-152400D02*
G01X-2441200Y-152400D01*
G01X-2288800Y-152400D02*
G01X-2288800Y-225000D01*
G01X-2796800Y-152400D02*
G01X-2796800Y-225000D01*
G01X-2796800Y-152400D02*
G01X-2949200Y-152400D01*
G01X-2949200Y-152400D02*
G01X-2949200Y-225000D01*
G01X-1996700Y-225000D02*
G01X-3241300Y-225000D01*
G01X-1996700Y355000D02*
G01X-3241300Y355000D01*
G01X-3241300Y355000D02*
G01X-3241300Y-225000D01*
G01X-1996700Y355000D02*
G01X-1996700Y-225000D01*
G01X-803200Y-152400D02*
G01X-803200Y-225000D01*
G01X-650800Y-152400D02*
G01X-803200Y-152400D01*
G01X-650800Y-152400D02*
G01X-650800Y-225000D01*
G01X-1158800Y-152400D02*
G01X-1158800Y-225000D01*
G01X-1158800Y-152400D02*
G01X-1311200Y-152400D01*
G01X-1311200Y-152400D02*
G01X-1311200Y-225000D01*
G01X-358700Y-225000D02*
G01X-1603300Y-225000D01*
G01X-358700Y355000D02*
G01X-1603300Y355000D01*
G01X-1603300Y355000D02*
G01X-1603300Y-225000D01*
G01X-358700Y355000D02*
G01X-358700Y-225000D01*
G54D14*
G01X-9593586Y207390D02*
G01X-9652519Y207390D01*
G01X-9652519Y207390D02*
G01X-9652519Y-355901D01*
G01X-9652519Y-355901D02*
G01X-8700019Y-355901D01*
G01X-8700019Y-355901D02*
G01X-8700019Y202899D01*
G01X-8700019Y202899D02*
G01X-8750819Y202899D01*
G01X-8750819Y202899D02*
G01X-8763514Y202899D01*
G01X-9093714Y207390D02*
G01X-9263386Y207390D01*
G01X-9093714Y207390D02*
G02X-8763514Y207390I165100J-140693D01*
G01X-9593586Y207390D02*
G02X-9263386Y207390I165100J-140693D01*
G54D13*
G01X-508000Y5187400D02*
G01X-508000Y5260000D01*
G01X-660400Y5187400D02*
G01X-508000Y5187400D01*
G01X-660400Y5187400D02*
G01X-660400Y5260000D01*
G01X-152400Y5187400D02*
G01X-152400Y5260000D01*
G01X-152400Y5187400D02*
G01X0Y5187400D01*
G01X0Y5187400D02*
G01X0Y5260000D01*
G01X-952500Y5260000D02*
G01X292100Y5260000D01*
G01X-952500Y4680000D02*
G01X292100Y4680000D01*
G01X292100Y4680000D02*
G01X292100Y5260000D01*
G01X-952500Y4680000D02*
G01X-952500Y5260000D01*
G01X1169000Y-121800D02*
G01X1169000Y-194400D01*
G01X1321400Y-121800D02*
G01X1169000Y-121800D01*
G01X1321400Y-121800D02*
G01X1321400Y-194400D01*
G01X813400Y-121800D02*
G01X813400Y-194400D01*
G01X813400Y-121800D02*
G01X661000Y-121800D01*
G01X661000Y-121800D02*
G01X661000Y-194400D01*
G01X1613500Y-194400D02*
G01X368900Y-194400D01*
G01X1613500Y385600D02*
G01X368900Y385600D01*
G01X368900Y385600D02*
G01X368900Y-194400D01*
G01X1613500Y385600D02*
G01X1613500Y-194400D01*
G01X-4328665Y4019354D02*
G01X-5208665Y4019354D01*
G01X-4328665Y4527354D02*
G01X-5208665Y4527354D01*
G01X-5208665Y4527354D02*
G01X-5208665Y4019354D01*
G01X-4328665Y4527354D02*
G01X-4328665Y4019354D01*
G01X834700Y5187400D02*
G01X834700Y5260000D01*
G01X682300Y5187400D02*
G01X834700Y5187400D01*
G01X682300Y5187400D02*
G01X682300Y5260000D01*
G01X1190300Y5187400D02*
G01X1190300Y5260000D01*
G01X1190300Y5187400D02*
G01X1342700Y5187400D01*
G01X1342700Y5187400D02*
G01X1342700Y5260000D01*
G01X390200Y5260000D02*
G01X1634800Y5260000D01*
G01X390200Y4680000D02*
G01X1634800Y4680000D01*
G01X1634800Y4680000D02*
G01X1634800Y5260000D01*
G01X390200Y4680000D02*
G01X390200Y5260000D01*
G54D14*
G01X-5538310Y3857363D02*
G01X-5479377Y3857363D01*
G01X-5479377Y3857363D02*
G01X-5479377Y4420654D01*
G01X-5479377Y4420654D02*
G01X-6431877Y4420654D01*
G01X-6431877Y4420654D02*
G01X-6431877Y3861854D01*
G01X-6431877Y3861854D02*
G01X-6381077Y3861854D01*
G01X-6381077Y3861854D02*
G01X-6368382Y3861854D01*
G01X-6038182Y3857363D02*
G01X-5868510Y3857363D01*
G01X-6038182Y3857363D02*
G02X-6368382Y3857363I-165100J140693D01*
G01X-5538310Y3857363D02*
G02X-5868510Y3857363I-165100J140693D01*
G54D15*
G01X-6146583Y535005D02*
G01X-6146583Y281005D01*
G01X-6146583Y281005D02*
G01X-6654583Y281005D01*
G01X-6654583Y281005D02*
G01X-6654583Y535005D01*
G01X-6654583Y535005D02*
G01X-6464083Y535005D01*
G54D17*
G01X-6146583Y535005D02*
G01X-6464083Y535005D01*
G54D13*
G01X-4250356Y1748322D02*
G01X-4250356Y1888322D01*
G01X-4450356Y1888322D02*
G01X-4250356Y1888322D01*
G01X-4450356Y1748322D02*
G01X-4450356Y1888322D01*
G01X-4450356Y1508322D02*
G01X-4450356Y1648322D01*
G01X-4450356Y1508322D02*
G01X-4250356Y1508322D01*
G01X-4250356Y1508322D02*
G01X-4250356Y1648322D01*
G01X-2541834Y1748322D02*
G01X-2541834Y1888322D01*
G01X-2741834Y1888322D02*
G01X-2541834Y1888322D01*
G01X-2741834Y1748322D02*
G01X-2741834Y1888322D01*
G01X-2741834Y1508322D02*
G01X-2741834Y1648322D01*
G01X-2741834Y1508322D02*
G01X-2541834Y1508322D01*
G01X-2541834Y1508322D02*
G01X-2541834Y1648322D01*
G01X-960814Y1748322D02*
G01X-960814Y1888322D01*
G01X-1160814Y1888322D02*
G01X-960814Y1888322D01*
G01X-1160814Y1748322D02*
G01X-1160814Y1888322D01*
G01X-1160814Y1508322D02*
G01X-1160814Y1648322D01*
G01X-1160814Y1508322D02*
G01X-960814Y1508322D01*
G01X-960814Y1508322D02*
G01X-960814Y1648322D01*
G01X-3821951Y1748322D02*
G01X-3821951Y1888322D01*
G01X-4021951Y1888322D02*
G01X-3821951Y1888322D01*
G01X-4021951Y1748322D02*
G01X-4021951Y1888322D01*
G01X-4021951Y1508322D02*
G01X-4021951Y1648322D01*
G01X-4021951Y1508322D02*
G01X-3821951Y1508322D01*
G01X-3821951Y1508322D02*
G01X-3821951Y1648322D01*
G01X-2077728Y1748322D02*
G01X-2077728Y1888322D01*
G01X-2277728Y1888322D02*
G01X-2077728Y1888322D01*
G01X-2277728Y1748322D02*
G01X-2277728Y1888322D01*
G01X-2277728Y1508322D02*
G01X-2277728Y1648322D01*
G01X-2277728Y1508322D02*
G01X-2077728Y1508322D01*
G01X-2077728Y1508322D02*
G01X-2077728Y1648322D01*
G01X-455907Y1748322D02*
G01X-455907Y1888322D01*
G01X-655907Y1888322D02*
G01X-455907Y1888322D01*
G01X-655907Y1748322D02*
G01X-655907Y1888322D01*
G01X-655907Y1508322D02*
G01X-655907Y1648322D01*
G01X-655907Y1508322D02*
G01X-455907Y1508322D01*
G01X-455907Y1508322D02*
G01X-455907Y1648322D01*
G54D14*
G01X-3571645Y4051449D02*
G01X-3731650Y4051449D01*
G01X-3731139Y3866387D02*
G01X-3731139Y3741391D01*
G01X-3571134Y3866387D02*
G01X-3571134Y3741391D01*
G01X-3731650Y4051449D02*
G01X-3731650Y3926445D01*
G01X-3571645Y4051449D02*
G01X-3571645Y3926445D01*
G01X-3571134Y3741391D02*
G01X-3731139Y3741391D01*
G54D13*
G01X-3119142Y3751551D02*
G01X-3169142Y3751551D01*
G01X-3119142Y3991551D02*
G01X-3119142Y3751551D01*
G01X-3369142Y3751551D02*
G01X-3419142Y3751551D01*
G01X-3419142Y3991551D02*
G01X-3419142Y3751551D01*
G01X-3239142Y4051550D02*
G01X-3299142Y4051550D01*
G54D14*
G01X-1470418Y4041249D02*
G01X-1630422Y4041249D01*
G01X-1629912Y3856187D02*
G01X-1629912Y3731191D01*
G01X-1469907Y3856187D02*
G01X-1469907Y3731191D01*
G01X-1630422Y4041249D02*
G01X-1630422Y3916245D01*
G01X-1470418Y4041249D02*
G01X-1470418Y3916245D01*
G01X-1469907Y3731191D02*
G01X-1629912Y3731191D01*
G54D13*
G01X-1043415Y3751551D02*
G01X-1093415Y3751551D01*
G01X-1043415Y3991551D02*
G01X-1043415Y3751551D01*
G01X-1293415Y3751551D02*
G01X-1343415Y3751551D01*
G01X-1343415Y3991551D02*
G01X-1343415Y3751551D01*
G01X-1163416Y4051550D02*
G01X-1223415Y4051550D01*
G54D14*
G01X-67900Y4036149D02*
G01X-227904Y4036149D01*
G01X-227394Y3851087D02*
G01X-227394Y3726091D01*
G01X-67389Y3851087D02*
G01X-67389Y3726091D01*
G01X-227904Y4036149D02*
G01X-227904Y3911145D01*
G01X-67900Y4036149D02*
G01X-67900Y3911145D01*
G01X-67389Y3726091D02*
G01X-227394Y3726091D01*
G54D13*
G01X369303Y3751551D02*
G01X319303Y3751551D01*
G01X369303Y3991551D02*
G01X369303Y3751551D01*
G01X119303Y3751551D02*
G01X69303Y3751551D01*
G01X69303Y3991551D02*
G01X69303Y3751551D01*
G01X249303Y4051550D02*
G01X189303Y4051550D01*
G01X696708Y1748322D02*
G01X696708Y1888322D01*
G01X496708Y1888322D02*
G01X696708Y1888322D01*
G01X496708Y1748322D02*
G01X496708Y1888322D01*
G01X496708Y1508322D02*
G01X496708Y1648322D01*
G01X496708Y1508322D02*
G01X696708Y1508322D01*
G01X696708Y1508322D02*
G01X696708Y1648322D01*
G01X1155714Y1748322D02*
G01X1155714Y1888322D01*
G01X955714Y1888322D02*
G01X1155714Y1888322D01*
G01X955714Y1748322D02*
G01X955714Y1888322D01*
G01X955714Y1508322D02*
G01X955714Y1648322D01*
G01X955714Y1508322D02*
G01X1155714Y1508322D01*
G01X1155714Y1508322D02*
G01X1155714Y1648322D01*
G54D14*
G01X-3925054Y4331555D02*
G01X-3925054Y4491559D01*
G01X-4110116Y4491049D02*
G01X-4235112Y4491049D01*
G01X-4110116Y4331044D02*
G01X-4235112Y4331044D01*
G01X-3925054Y4491559D02*
G01X-4050058Y4491559D01*
G01X-3925054Y4331555D02*
G01X-4050058Y4331555D01*
G01X-4235112Y4331044D02*
G01X-4235112Y4491049D01*
G01X1232617Y4041249D02*
G01X1072613Y4041249D01*
G01X1073123Y3856187D02*
G01X1073123Y3731191D01*
G01X1233128Y3856187D02*
G01X1233128Y3731191D01*
G01X1072613Y4041249D02*
G01X1072613Y3916245D01*
G01X1232617Y4041249D02*
G01X1232617Y3916245D01*
G01X1233128Y3731191D02*
G01X1073123Y3731191D01*
G01X-5132788Y3628398D02*
G01X-4972783Y3628398D01*
G01X-4973294Y3813460D02*
G01X-4973294Y3938456D01*
G01X-5133298Y3813460D02*
G01X-5133298Y3938456D01*
G01X-4972783Y3628398D02*
G01X-4972783Y3753401D01*
G01X-5132788Y3628398D02*
G01X-5132788Y3753401D01*
G01X-5133298Y3938456D02*
G01X-4973294Y3938456D01*
G54D13*
G01X1634119Y3751551D02*
G01X1584119Y3751551D01*
G01X1634119Y3991551D02*
G01X1634119Y3751551D01*
G01X1384119Y3751551D02*
G01X1334119Y3751551D01*
G01X1334119Y3991551D02*
G01X1334119Y3751551D01*
G01X1514119Y4051550D02*
G01X1454119Y4051550D01*
G54D14*
G01X-4848187Y3628398D02*
G01X-4688183Y3628398D01*
G01X-4688693Y3813460D02*
G01X-4688693Y3938456D01*
G01X-4848698Y3813460D02*
G01X-4848698Y3938456D01*
G01X-4688183Y3628398D02*
G01X-4688183Y3753401D01*
G01X-4848187Y3628398D02*
G01X-4848187Y3753401D01*
G01X-4848698Y3938456D02*
G01X-4688693Y3938456D01*
G01X-4553387Y3628398D02*
G01X-4393382Y3628398D01*
G01X-4393893Y3813460D02*
G01X-4393893Y3938456D01*
G01X-4553897Y3813460D02*
G01X-4553897Y3938456D01*
G01X-4393382Y3628398D02*
G01X-4393382Y3753401D01*
G01X-4553387Y3628398D02*
G01X-4553387Y3753401D01*
G01X-4553897Y3938456D02*
G01X-4393893Y3938456D01*
G54D13*
G01X-8406905Y4460959D02*
G01X-8406905Y4300954D01*
G01X-8221843Y4301465D02*
G01X-8096847Y4301465D01*
G01X-8221843Y4461470D02*
G01X-8096847Y4461470D01*
G01X-8406905Y4300954D02*
G01X-8281902Y4300954D01*
G01X-8406905Y4460959D02*
G01X-8281902Y4460959D01*
G01X-8096847Y4461470D02*
G01X-8096847Y4301465D01*
G01X-6439785Y1726926D02*
G01X-6279780Y1726926D01*
G01X-6280290Y1911988D02*
G01X-6280290Y2036984D01*
G01X-6440295Y1911988D02*
G01X-6440295Y2036984D01*
G01X-6279780Y1726926D02*
G01X-6279780Y1851929D01*
G01X-6439785Y1726926D02*
G01X-6439785Y1851929D01*
G01X-6440295Y2036984D02*
G01X-6280290Y2036984D01*
G01X-8753710Y4460959D02*
G01X-8753710Y4300954D01*
G01X-8568648Y4301465D02*
G01X-8443652Y4301465D01*
G01X-8568648Y4461470D02*
G01X-8443652Y4461470D01*
G01X-8753710Y4300954D02*
G01X-8628706Y4300954D01*
G01X-8753710Y4460959D02*
G01X-8628706Y4460959D01*
G01X-8443652Y4461470D02*
G01X-8443652Y4301465D01*
G54D18*
G01X-4582873Y2388206D02*
G01X-4582873Y2742485D01*
G01X-4582873Y2742485D02*
G01X-3597633Y2742485D01*
G01X-3597633Y2742485D02*
G01X-3597633Y2388206D01*
G01X-3597633Y2388206D02*
G01X-4582873Y2388206D01*
G01X-2940652Y2388206D02*
G01X-2940652Y2742485D01*
G01X-2940652Y2742485D02*
G01X-1955411Y2742485D01*
G01X-1955411Y2742485D02*
G01X-1955411Y2388206D01*
G01X-1955411Y2388206D02*
G01X-2940652Y2388206D01*
G01X-1298431Y2388206D02*
G01X-1298431Y2742485D01*
G01X-1298431Y2742485D02*
G01X-313190Y2742485D01*
G01X-313190Y2742485D02*
G01X-313190Y2388206D01*
G01X-313190Y2388206D02*
G01X-1298431Y2388206D01*
G01X343791Y2388206D02*
G01X343791Y2742485D01*
G01X343791Y2742485D02*
G01X1329031Y2742485D01*
G01X1329031Y2742485D02*
G01X1329031Y2388206D01*
G01X1329031Y2388206D02*
G01X343791Y2388206D01*
G54D13*
G01X-9028470Y4185348D02*
G01X-9079270Y4185348D01*
G01X-8622070Y4185348D02*
G01X-9028470Y4185348D01*
G01X-8622070Y3296348D02*
G01X-8622070Y4185348D01*
G01X-8622070Y3296348D02*
G01X-9079270Y3296348D01*
G01X-9079270Y3194748D02*
G01X-9231670Y3194748D01*
G01X-9079270Y3194748D02*
G01X-9079270Y4261548D01*
G01X-9079270Y4261548D02*
G01X-10273070Y4261548D01*
G01X-10273070Y3194748D02*
G01X-10273070Y4261548D01*
G01X-9231670Y3194748D02*
G01X-10273070Y3194748D01*
G54D18*
G01X-3277183Y1849907D02*
G01X-3277183Y1998406D01*
G01X-3495704Y1998406D02*
G01X-3495704Y1849907D01*
G01X-3480464Y1834667D02*
G01X-3292423Y1834667D01*
G01X-3277183Y2332147D02*
G01X-3277183Y2183648D01*
G01X-3495704Y2183648D02*
G01X-3495704Y2332147D01*
G01X-3480464Y2347387D02*
G01X-3292423Y2347387D01*
G01X-3495704Y1849907D02*
G03X-3480464Y1834667I15240J0D01*
G01X-3292423Y1834667D02*
G03X-3277183Y1849907I0J15240D01*
G01X-3495704Y2332147D02*
G02X-3480464Y2347387I15240J0D01*
G01X-3292423Y2347387D02*
G02X-3277183Y2332147I0J-15240D01*
G01X-1822883Y2332147D02*
G01X-1822883Y2183648D01*
G01X-1604362Y2183648D02*
G01X-1604362Y2332147D01*
G01X-1619602Y2347387D02*
G01X-1807643Y2347387D01*
G01X-1822883Y1849907D02*
G01X-1822883Y1998406D01*
G01X-1604362Y1998406D02*
G01X-1604362Y1849907D01*
G01X-1619602Y1834667D02*
G01X-1807643Y1834667D01*
G01X-1604362Y2332147D02*
G03X-1619602Y2347387I-15240J0D01*
G01X-1807643Y2347387D02*
G03X-1822883Y2332147I0J-15240D01*
G01X-1604362Y1849907D02*
G02X-1619602Y1834667I-15240J0D01*
G01X-1807643Y1834667D02*
G02X-1822883Y1849907I0J15240D01*
G01X-236762Y2332147D02*
G01X-236762Y2183648D01*
G01X-18241Y2183648D02*
G01X-18241Y2332147D01*
G01X-33481Y2347387D02*
G01X-221522Y2347387D01*
G01X-236762Y1849907D02*
G01X-236762Y1998406D01*
G01X-18241Y1998406D02*
G01X-18241Y1849907D01*
G01X-33481Y1834667D02*
G01X-221522Y1834667D01*
G01X-18241Y2332147D02*
G03X-33481Y2347387I-15240J0D01*
G01X-221522Y2347387D02*
G03X-236762Y2332147I0J-15240D01*
G01X-18241Y1849907D02*
G02X-33481Y1834667I-15240J0D01*
G01X-221522Y1834667D02*
G02X-236762Y1849907I0J15240D01*
G01X1547479Y1492903D02*
G01X1547479Y1641401D01*
G01X1328958Y1641401D02*
G01X1328958Y1492903D01*
G01X1344198Y1477663D02*
G01X1532239Y1477663D01*
G01X1547479Y1975142D02*
G01X1547479Y1826644D01*
G01X1328958Y1826644D02*
G01X1328958Y1975142D01*
G01X1344198Y1990382D02*
G01X1532239Y1990382D01*
G01X1328958Y1492903D02*
G03X1344198Y1477663I15240J0D01*
G01X1532239Y1477663D02*
G03X1547479Y1492903I0J15240D01*
G01X1328958Y1975142D02*
G02X1344198Y1990382I15240J0D01*
G01X1532239Y1990382D02*
G02X1547479Y1975142I0J-15240D01*
G54D14*
G01X-4798339Y2051526D02*
G01X-4718336Y2051526D01*
G01X-4829324Y1940551D02*
G01X-4829324Y2020548D01*
G01X-4687358Y1940551D02*
G01X-4687358Y2020548D01*
G01X-4829906Y1882962D02*
G01X-4829906Y1802962D01*
G01X-4798923Y1771979D02*
G01X-4718926Y1771979D01*
G01X-4687945Y1882962D02*
G01X-4687945Y1802962D01*
G01X-4798923Y1771974D02*
G02X-4829906Y1802957I0J30983D01*
G01X-4687940Y1802957D02*
G02X-4718926Y1771974I-30983J0D01*
G01X-4829324Y2020543D02*
G02X-4798339Y2051526I30983J0D01*
G01X-4718341Y2051526D02*
G02X-4687358Y2020543I0J-30983D01*
G01X-3130617Y2056626D02*
G01X-3050615Y2056626D01*
G01X-3161603Y1945651D02*
G01X-3161603Y2025648D01*
G01X-3019637Y1945651D02*
G01X-3019637Y2025648D01*
G01X-3162184Y1888062D02*
G01X-3162184Y1808062D01*
G01X-3131201Y1777079D02*
G01X-3051204Y1777079D01*
G01X-3020224Y1888062D02*
G01X-3020224Y1808062D01*
G01X-3131201Y1777074D02*
G02X-3162184Y1808057I0J30983D01*
G01X-3020218Y1808057D02*
G02X-3051204Y1777074I-30983J0D01*
G01X-3161603Y2025643D02*
G02X-3130617Y2056626I30983J0D01*
G01X-3050620Y2056626D02*
G02X-3019637Y2025643I0J-30983D01*
G01X-1478196Y2066826D02*
G01X-1398193Y2066826D01*
G01X-1509181Y1955851D02*
G01X-1509181Y2035849D01*
G01X-1367215Y1955851D02*
G01X-1367215Y2035849D01*
G01X-1509763Y1898262D02*
G01X-1509763Y1818262D01*
G01X-1478780Y1787279D02*
G01X-1398783Y1787279D01*
G01X-1367802Y1898262D02*
G01X-1367802Y1818262D01*
G01X-1478780Y1787274D02*
G02X-1509763Y1818257I0J30983D01*
G01X-1367797Y1818257D02*
G02X-1398783Y1787274I-30983J0D01*
G01X-1509181Y2035844D02*
G02X-1478196Y2066826I30983J0D01*
G01X-1398198Y2066826D02*
G02X-1367215Y2035844I0J-30983D01*
G01X143625Y2066826D02*
G01X223628Y2066826D01*
G01X112640Y1955851D02*
G01X112640Y2035849D01*
G01X254606Y1955851D02*
G01X254606Y2035849D01*
G01X112058Y1898262D02*
G01X112058Y1818262D01*
G01X143041Y1787279D02*
G01X223038Y1787279D01*
G01X254019Y1898262D02*
G01X254019Y1818262D01*
G01X143041Y1787274D02*
G02X112058Y1818257I0J30983D01*
G01X254024Y1818257D02*
G02X223038Y1787274I-30983J0D01*
G01X112640Y2035844D02*
G02X143625Y2066826I30983J0D01*
G01X223623Y2066826D02*
G02X254606Y2035844I0J-30983D01*
G54D15*
G01X-10974840Y3915847D02*
G01X-10720840Y3915847D01*
G01X-10720840Y3915847D02*
G01X-10720840Y3407847D01*
G01X-10720840Y3407847D02*
G01X-10974840Y3407847D01*
G01X-10974840Y3407847D02*
G01X-10974840Y3598347D01*
G54D17*
G01X-10974840Y3915847D02*
G01X-10974840Y3598347D01*
G54D15*
G01X-10959540Y1947222D02*
G01X-10705540Y1947222D01*
G01X-10705540Y1947222D02*
G01X-10705540Y1439222D01*
G01X-10705540Y1439222D02*
G01X-10959540Y1439222D01*
G01X-10959540Y1439222D02*
G01X-10959540Y1629722D01*
G54D17*
G01X-10959540Y1947222D02*
G01X-10959540Y1629722D01*

G04 Rect Start*
G54D12*
G01X-3484000Y-374006D02*
G01X-3484000Y584807D01*
G01X-3227000Y584807D01*
G01X-3227000Y-374006D01*
G01X-3484000Y-374006D01*
G54D14*
G01X-8566920Y313488D02*
G01X-8566920Y-495604D01*
G01X-9779516Y-495604D01*
G01X-9779516Y313488D01*
G01X-8566920Y313488D01*
G01X-6564976Y3751265D02*
G01X-6564976Y4560356D01*
G01X-5352380Y4560356D01*
G01X-5352380Y3751265D01*
G01X-6564976Y3751265D01*
G04 Rect End*

G04 Circle Start*
G54D13*
G01X-3329142Y3901550D02*
G03X-3209142Y3901550I60000J0D01*
G03X-3329142Y3901550I-60000J0D01*
G01X-1253415Y3901550D02*
G03X-1133416Y3901550I60000J0D01*
G03X-1253415Y3901550I-60000J0D01*
G01X159303Y3901550D02*
G03X279303Y3901550I60000J0D01*
G03X159303Y3901550I-60000J0D01*
G01X1424119Y3901550D02*
G03X1544119Y3901550I60000J0D01*
G03X1424119Y3901550I-60000J0D01*
G54D12*
G01X-4590150Y2278758D02*
G03X-4560128Y2278758I15011J0D01*
G03X-4590150Y2278758I-15011J0D01*
G01X-4549764Y2438320D02*
G03X-4519742Y2438320I15011J0D01*
G03X-4549764Y2438320I-15011J0D01*
G01X-2947929Y2278758D02*
G03X-2917906Y2278758I15011J0D01*
G03X-2947929Y2278758I-15011J0D01*
G01X-2907543Y2438320D02*
G03X-2877520Y2438320I15011J0D01*
G03X-2907543Y2438320I-15011J0D01*
G01X-1305708Y2278758D02*
G03X-1275685Y2278758I15011J0D01*
G03X-1305708Y2278758I-15011J0D01*
G01X-1265322Y2438320D02*
G03X-1235299Y2438320I15011J0D01*
G03X-1265322Y2438320I-15011J0D01*
G01X336513Y2278758D02*
G03X366536Y2278758I15011J0D01*
G03X336513Y2278758I-15011J0D01*
G01X376899Y2438320D02*
G03X406922Y2438320I15011J0D01*
G03X376899Y2438320I-15011J0D01*
G04 Circle End*

M02*

