;TYPE=PLATED
;Layer: PTH_Through_Via
;EasyEDA Pro Client v2.2.32.3, 2025-09-05 14:33:14
;Gerber Generator version 0.3
M48
METRIC,LZ,000.00000
;Hole size 1 = 0.30000 METRIC
T01C0.30000
%
G05
G90
T01
X73.83127Y43.22066
X76.94231Y48.47373
X20.89355Y45.6107
X22.1119Y45.6107
X23.33025Y45.6107
X24.5486Y45.6107
X25.76695Y45.6107
X20.84255Y44.23368
X22.0609Y44.23368
X23.27925Y44.23368
X24.4976Y44.23368
X25.71595Y44.23368
X20.7883Y42.64496
X22.00665Y42.64496
X23.225Y42.64496
X24.44335Y42.64496
X25.6617Y42.64496
X12.68245Y50.96577
X13.9008Y50.96577
X15.11915Y50.96577
X16.3375Y50.96577
X17.55585Y50.96577
X13.14145Y52.29178
X14.3598Y52.29178
X15.57815Y52.29178
X16.7965Y52.29178
X18.01485Y52.29178
X13.85546Y53.5158
X15.07381Y53.5158
X16.29216Y53.5158
X17.51051Y53.5158
X18.72886Y53.5158
X15.07948Y55.04582
X16.29783Y55.04582
X17.51618Y55.04582
X18.73453Y55.04582
X19.95288Y55.04582
X19.92454Y54.17881
X21.14289Y54.17881
X22.36124Y54.17881
X23.57959Y54.17881
X24.79794Y54.17881
X20.74055Y56.47384
X21.9589Y56.47384
X23.17725Y56.47384
X24.3956Y56.47384
X25.61395Y56.47384
X80.36032Y52.03678
X81.57867Y52.03678
X82.79702Y52.03678
X84.01537Y52.03678
X85.23372Y52.03678
X80.20732Y50.55776
X81.42567Y50.55776
X82.64402Y50.55776
X83.86237Y50.55776
X85.08072Y50.55776
X78.6539Y46.76808
X79.87225Y46.76808
X81.0906Y46.76808
X82.30895Y46.76808
X83.5273Y46.76808
X78.1673Y44.84569
X79.38565Y44.84569
X80.60399Y44.84569
X81.82234Y44.84569
X83.04069Y44.84569
X77.65729Y42.75466
X78.87564Y42.75466
X80.09399Y42.75466
X81.31234Y42.75466
X82.53069Y42.75466
X99.68957Y38.3686
X100.90792Y38.3686
X102.12627Y38.3686
X103.34462Y38.3686
X104.56297Y38.3686
X100.91359Y36.63458
X102.13194Y36.63458
X103.35029Y36.63458
X104.56864Y36.63458
X105.78699Y36.63458
X97.28785Y39.58963
X98.5062Y39.58963
X99.72455Y39.58963
X100.9429Y39.58963
X99.76422Y37.3456
X89.38744Y46.52871
X90.60579Y46.52871
X91.82414Y46.52871
X93.04249Y46.52871
X94.26084Y46.52871
X1.4113Y17.91734
X2.62965Y17.91734
X3.848Y17.91734
X5.06635Y17.91734
X1.3093Y16.38732
X2.52765Y16.38732
X3.746Y16.38732
X4.96435Y16.38732
X1.2583Y14.39829
X2.47665Y14.39829
X3.695Y14.39829
X4.91335Y14.39829
X12.1639Y6.04395
X13.38225Y6.04395
X14.6006Y6.04395
X15.81895Y6.04395
X17.0373Y6.04395
X12.1639Y4.54804
X13.38225Y4.54804
X14.6006Y4.54804
X15.81895Y4.54804
X17.0373Y4.54804
X30.22668Y45.15169
X30.22668Y43.16266
X31.17869Y43.16266
X31.17869Y45.15169
X32.1307Y43.16266
X32.1307Y45.15169
X33.08271Y43.16266
X33.08271Y45.15169
X40.98781Y45.25369
X40.98781Y43.26467
X41.93983Y43.26467
X41.93983Y45.25369
X42.89184Y43.26467
X42.89184Y45.25369
X43.84385Y43.26467
X43.84385Y45.25369
X13.09648Y33.83751
X15.0855Y33.83751
X15.0855Y34.78953
X13.09648Y34.78953
X15.0855Y35.74154
X13.09648Y35.74154
X15.0855Y36.69355
X13.09648Y36.69355
X7.58841Y25.88141
X9.57743Y25.88141
X9.57743Y26.83342
X7.58841Y26.83342
X9.57743Y27.78544
X7.58841Y27.78544
X9.57743Y28.73745
X7.58841Y28.73745
X19.82254Y59.27887
X21.04089Y59.27887
X22.25924Y59.27887
X23.47759Y59.27887
X24.69594Y59.27887
X25.91429Y59.27887
X27.13264Y59.27887
X28.35098Y59.27887
X29.56933Y59.27887
X30.78768Y59.27887
X32.00603Y59.27887
X33.22438Y59.27887
X34.44273Y59.27887
X35.66108Y59.27887
X36.87943Y59.27887
X38.09778Y59.27887
X39.31613Y59.27887
X40.53448Y59.27887
X41.75282Y59.27887
X42.97117Y59.27887
X44.18952Y59.27887
X45.40787Y59.27887
X80.66633Y58.10586
X81.88468Y58.10586
X83.10303Y58.10586
X84.32138Y58.10586
X85.53972Y58.10586
X86.75807Y58.10586
X87.97642Y58.10586
X89.19477Y58.10586
X90.41312Y58.10586
X91.63147Y58.10586
X92.84982Y58.10586
X94.06817Y58.10586
X95.28652Y58.10586
X96.50487Y58.10586
X97.72322Y58.10586
X98.94156Y58.10586
X100.15991Y58.10586
X101.37826Y58.10586
X102.59661Y58.10586
X103.81496Y58.10586
X105.03331Y58.10586
X106.25166Y58.10586
X98.01258Y5.94015
X98.01258Y7.1585
X98.01258Y8.37685
X98.01258Y9.5952
X98.01258Y10.81355
X98.01258Y12.0319
X98.01258Y13.25025
X98.01258Y14.4686
X98.01258Y15.68695
X98.01258Y16.9053
X98.01258Y18.12364
X98.01258Y19.34199
X98.01258Y20.56034
X98.01258Y21.77869
X98.01258Y22.99704
X98.01258Y24.21539
X98.01258Y25.43374
X98.01258Y26.65209
X98.01258Y27.87044
X98.01258Y29.08879
X98.01258Y30.30714
X98.01258Y31.52548
M30