G04 Layer: TopPasteMaskLayer*
G04 EasyEDA Pro v2.2.32.3, 2025-09-05 14:33:14*
G04 Gerber Generator version 0.3*
G04 Scale: 100 percent, Rotated: No, Reflected: No*
G04 Dimensions in millimeters*
G04 Leading zeros omitted, absolute positions, 3 integers and 5 decimals*
%FSLAX35Y35*%
%MOMM*%
%ADD10C,0.254*%
G75*


G04 PolygonModel Start*
G36*
G01X1629196Y4173753D02*
G01X1629196Y4209884D01*
G01X1639196Y4219884D01*
G01X1660252Y4219884D01*
G01X1670252Y4229884D01*
G01X1670252Y4267720D01*
G01X1660252Y4277720D01*
G01X1639196Y4277720D01*
G01X1629196Y4287720D01*
G01X1629196Y4323851D01*
G01X1639196Y4333851D01*
G01X1739947Y4333851D01*
G01X1749947Y4323851D01*
G01X1749947Y4173753D01*
G01X1739947Y4163753D01*
G01X1639196Y4163753D01*
G01X1629196Y4173753D01*
G37*
G36*
G01X1454195Y4173753D02*
G01X1454195Y4209884D01*
G01X1444195Y4219884D01*
G01X1423138Y4219884D01*
G01X1413138Y4229884D01*
G01X1413138Y4267720D01*
G01X1423138Y4277720D01*
G01X1444195Y4277720D01*
G01X1454195Y4287720D01*
G01X1454195Y4323851D01*
G01X1444195Y4333851D01*
G01X1343443Y4333851D01*
G01X1333443Y4323851D01*
G01X1333443Y4173753D01*
G01X1343443Y4163753D01*
G01X1444195Y4163753D01*
G01X1454195Y4173753D01*
G37*
G36*
G01X1629196Y4410906D02*
G01X1629196Y4447037D01*
G01X1639196Y4457037D01*
G01X1660252Y4457037D01*
G01X1670252Y4467037D01*
G01X1670252Y4504873D01*
G01X1660252Y4514873D01*
G01X1639196Y4514873D01*
G01X1629196Y4524873D01*
G01X1629196Y4561004D01*
G01X1639196Y4571004D01*
G01X1739947Y4571004D01*
G01X1749947Y4561004D01*
G01X1749947Y4410906D01*
G01X1739947Y4400906D01*
G01X1639196Y4400906D01*
G01X1629196Y4410906D01*
G37*
G36*
G01X1454195Y4410906D02*
G01X1454195Y4447037D01*
G01X1444195Y4457037D01*
G01X1423138Y4457037D01*
G01X1413138Y4467037D01*
G01X1413138Y4504873D01*
G01X1423138Y4514873D01*
G01X1444195Y4514873D01*
G01X1454195Y4524873D01*
G01X1454195Y4561004D01*
G01X1444195Y4571004D01*
G01X1343443Y4571004D01*
G01X1333443Y4561004D01*
G01X1333443Y4410906D01*
G01X1343443Y4400906D01*
G01X1444195Y4400906D01*
G01X1454195Y4410906D01*
G37*
G36*
G01X10479087Y5212239D02*
G01X10442955Y5212239D01*
G01X10432955Y5222239D01*
G01X10432955Y5243296D01*
G01X10422955Y5253296D01*
G01X10385119Y5253296D01*
G01X10375119Y5243296D01*
G01X10375119Y5222239D01*
G01X10365119Y5212239D01*
G01X10328988Y5212239D01*
G01X10318988Y5222239D01*
G01X10318988Y5322991D01*
G01X10328988Y5332991D01*
G01X10479087Y5332991D01*
G01X10489087Y5322991D01*
G01X10489087Y5222239D01*
G01X10479087Y5212239D01*
G37*
G36*
G01X10479087Y5037238D02*
G01X10442955Y5037238D01*
G01X10432955Y5027238D01*
G01X10432955Y5006182D01*
G01X10422955Y4996182D01*
G01X10385119Y4996182D01*
G01X10375119Y5006182D01*
G01X10375119Y5027238D01*
G01X10365119Y5037238D01*
G01X10328988Y5037238D01*
G01X10318988Y5027238D01*
G01X10318988Y4926486D01*
G01X10328988Y4916486D01*
G01X10479087Y4916486D01*
G01X10489087Y4926486D01*
G01X10489087Y5027238D01*
G01X10479087Y5037238D01*
G37*
G36*
G01X10242231Y5212239D02*
G01X10206100Y5212239D01*
G01X10196100Y5222239D01*
G01X10196100Y5243296D01*
G01X10186100Y5253296D01*
G01X10148264Y5253296D01*
G01X10138264Y5243296D01*
G01X10138264Y5222239D01*
G01X10128264Y5212239D01*
G01X10092133Y5212239D01*
G01X10082133Y5222239D01*
G01X10082133Y5322991D01*
G01X10092133Y5332991D01*
G01X10242231Y5332991D01*
G01X10252231Y5322991D01*
G01X10252231Y5222239D01*
G01X10242231Y5212239D01*
G37*
G36*
G01X10242231Y5037238D02*
G01X10206100Y5037238D01*
G01X10196100Y5027238D01*
G01X10196100Y5006182D01*
G01X10186100Y4996182D01*
G01X10148264Y4996182D01*
G01X10138264Y5006182D01*
G01X10138264Y5027238D01*
G01X10128264Y5037238D01*
G01X10092133Y5037238D01*
G01X10082133Y5027238D01*
G01X10082133Y4926486D01*
G01X10092133Y4916486D01*
G01X10242231Y4916486D01*
G01X10252231Y4926486D01*
G01X10252231Y5027238D01*
G01X10242231Y5037238D01*
G37*

G04 Pad Start*
G04 Pad End*
G54D10*

M02*

