G04 Layer: TopLayer*
G04 EasyEDA Pro v2.2.32.3, 2025-09-05 14:33:14*
G04 Gerber Generator version 0.3*
G04 Scale: 100 percent, Rotated: No, Reflected: No*
G04 Dimensions in millimeters*
G04 Leading zeros omitted, absolute positions, 3 integers and 5 decimals*
%FSLAX35Y35*%
%MOMM*%
%ADD10C,0.2032*%
%ADD11R,1.6002X1.80086*%
%ADD12C,1.80086*%
%ADD13C,1.8*%
%ADD14C,1.524*%
%ADD15R,1.20752X1.70101*%
%ADD16R,1.70101X1.20752*%
%ADD17C,2.79908*%
%ADD18R,1.6062X1.80086*%
%ADD19R,1.6002X1.80086*%
%ADD20C,0.6*%
%ADD21C,1.2*%
%ADD22C,0.8*%
G75*


G04 Copper Start*
G36*
G01X35814Y35814D02*
G01X35814Y482849D01*
G03X880392Y599999I414164J117150D01*
G03X35814Y717149I-430414J0D01*
G01X35814Y5964174D01*
G01X11264163Y5964174D01*
G01X11264163Y717075D01*
G03X10419564Y599999I-414185J-117076D01*
G03X11264163Y482923I430414J0D01*
G01X11264163Y35814D01*
G01X9215814Y35814D01*
G01X9215814Y4030000D01*
G03X9180000Y4065814I-35814J0D01*
G01X7219949Y4065814D01*
G01X7429664Y4275529D01*
G03X7429664Y4368604I-46537J46537D01*
G03X7336589Y4368604I-46537J-46537D01*
G01X7124052Y4156067D01*
G01X5908800Y4156067D01*
G03X5650025Y4930416I-258775J343936D01*
G03X5391250Y4156067I0J-430414D01*
G01X1850710Y4156067D01*
G01X1809009Y4197767D01*
G02X1785764Y4269817I100040J72050D01*
G01X1785764Y4333853D01*
G03X1778439Y4355556I-35814J0D01*
G01X1778439Y4355556D01*
G02X1770558Y4367378I89652J68297D01*
G02X1778439Y4379201I97533J-56474D01*
G01X1778439Y4379201D01*
G03X1785764Y4400904I-28489J21703D01*
G01X1785764Y4571006D01*
G03X1749950Y4606820I-35814J0D01*
G01X1738997Y4606820D01*
G02X1716575Y4661005I54264J54186D01*
G01X1716575Y4688732D01*
G02X1740324Y4744216I76686J0D01*
G03X1766585Y4778732I-9553J34516D01*
G01X1766585Y4958818D01*
G03X1730771Y4994632I-35814J0D01*
G01X1570751Y4994632D01*
G03X1534937Y4958818I0J-35814D01*
G01X1534937Y4778732D01*
G03X1561198Y4744216I35814J0D01*
G02X1584947Y4688732I-52937J-55483D01*
G01X1584947Y4524768D01*
G03X1593384Y4492529I65814J0D01*
G01X1593384Y4400904D01*
G03X1600709Y4379201I35814J0D01*
G02X1608590Y4367378I-89652J-68297D01*
G02X1600709Y4355556I-97533J56474D01*
G03X1593384Y4333853I28489J-21703D01*
G01X1593384Y4163751D01*
G03X1600709Y4142048I35814J0D01*
G02X1623760Y4073752I-89652J-68297D01*
G01X1623760Y1425902D01*
G01X1196883Y999025D01*
G02X1124833Y975780I-72050J100040D01*
G01X1070879Y975780D01*
G03X1035065Y939966I0J-35814D01*
G01X1035065Y759880D01*
G03X1070879Y724066I35814J0D01*
G01X1230899Y724066D01*
G03X1266713Y759880I0J35814D01*
G01X1266713Y833900D01*
G02X1289958Y905950I123285J0D01*
G01X1736112Y1352104D01*
G03X1755388Y1398641I-46537J46537D01*
G01X1755388Y4065238D01*
G01X1776911Y4043715D01*
G03X1823448Y4024439I46537J46537D01*
G01X2084186Y4024439D01*
G01X2084186Y35814D01*
G01X35814Y35814D01*
G37*
%LPC*%
G36*
G01X586215Y4214634D02*
G01X591383Y4213775D01*
G01X596201Y4212628D01*
G01X600169Y4211312D01*
G01X603190Y4209938D01*
G01X605289Y4208636D01*
G01X607837Y4206469D01*
G01X612042Y4202265D01*
G03X658579Y4182988I46537J46537D01*
G01X1243441Y4182988D01*
G02X1297783Y4160410I0J-76686D01*
G03X1333441Y4127937I35658J3341D01*
G01X1454192Y4127937D01*
G03X1490006Y4163751I0J35814D01*
G01X1490006Y4333853D01*
G03X1482681Y4355556I-35814J0D01*
G02X1474801Y4367378I89652J68297D01*
G02X1482681Y4379201I97533J-56474D01*
G01X1482681Y4379201D01*
G03X1490006Y4400904I-28489J21703D01*
G01X1490006Y4571006D01*
G03X1454192Y4606820I-35814J0D01*
G01X1333441Y4606820D01*
G03X1297627Y4571006I0J-35814D01*
G01X1297627Y4400904D01*
G03X1304952Y4379201I35814J0D01*
G02X1312833Y4367378I-89652J-68297D01*
G02X1304952Y4355556I-97533J56474D01*
G03X1297783Y4337194I28489J-21703D01*
G02X1243441Y4314616I-54342J54108D01*
G01X693935Y4314616D01*
G01X693606Y4315999D01*
G01X692747Y4321166D01*
G01X691514Y4334602D01*
G03X500509Y4406872I-111799J-6935D01*
G03X572780Y4215867I79206J-79206D01*
G01X586215Y4214634D01*
G37*
G36*
G01X737665Y1839263D02*
G01X742591Y1833890D01*
G01X745567Y1829919D01*
G01X747424Y1826748D01*
G01X748542Y1824146D01*
G01X749239Y1821718D01*
G01X749676Y1818999D01*
G01X749865Y1815596D01*
G01X749755Y1811589D01*
G01X748439Y1799104D01*
G01X746393Y1783988D01*
G01X746223Y1782497D01*
G01X744610Y1765122D01*
G01X744471Y1762842D01*
G01X744198Y1753353D01*
G01X744195Y1751379D01*
G01X744232Y1749984D01*
G03X1044287Y1625716I175768J18D01*
G03X920018Y1925771I-124287J124287D01*
G01X918623Y1925807D01*
G01X916650Y1925805D01*
G01X907160Y1925531D01*
G01X904880Y1925393D01*
G01X887506Y1923780D01*
G01X886014Y1923610D01*
G01X870898Y1921564D01*
G01X858414Y1920248D01*
G01X854406Y1920138D01*
G01X851003Y1920326D01*
G01X848285Y1920764D01*
G01X845856Y1921460D01*
G01X843254Y1922579D01*
G01X840084Y1924435D01*
G01X836113Y1927411D01*
G01X830740Y1932338D01*
G01X645529Y2117549D01*
G01X645529Y3968082D01*
G01X645798Y3971415D01*
G01X646362Y3973821D01*
G01X647526Y3976928D01*
G01X649401Y3980664D01*
G01X651998Y3984883D01*
G01X655044Y3989144D01*
G01X663672Y3999516D01*
G03X579715Y4185680I-83958J74150D01*
G03X495757Y3999516I0J-112014D01*
G01X504385Y3989144D01*
G01X507432Y3984883D01*
G01X510028Y3980664D01*
G01X511903Y3976928D01*
G01X513068Y3973821D01*
G01X513631Y3971415D01*
G01X513901Y3968082D01*
G01X513901Y2090288D01*
G03X533177Y2043750I65814J0D01*
G01X737665Y1839263D01*
G37*
G36*
G01X1025032Y4868775D02*
G03X1276746Y4868775I125857J0D01*
G03X1025032Y4868775I-125857J0D01*
G37*
G36*
G01X1776618Y849923D02*
G03X1524904Y849923I-125857J0D01*
G03X1776618Y849923I125857J0D01*
G37*
G36*
G01X3149878Y5693899D02*
G03X3082127Y5665835I0J-95814D01*
G01X2408019Y4991727D01*
G03X2327971Y4778548I10093J-125408D01*
G03X2543207Y4852889I90141J87771D01*
G03X2793270Y4851755I125095J13430D01*
G03X2918238Y4740505I124968J14564D01*
G03X3043206Y4851755I0J125814D01*
G03X3293583Y4856226I124968J14564D01*
G01X3419421Y4982064D01*
G01X6221501Y4982064D01*
G01X6676439Y4527126D01*
G03X6744189Y4499063I67751J67751D01*
G01X6873324Y4499063D01*
G01X6888265Y4498449D01*
G01X6902240Y4496872D01*
G01X6915640Y4494571D01*
G03X7077513Y4594877I49859J100305D01*
G03X6915640Y4695182I-112014J0D01*
G01X6902240Y4692881D01*
G01X6888265Y4691304D01*
G01X6873324Y4690691D01*
G01X6783877Y4690691D01*
G01X6328939Y5145629D01*
G03X6309592Y5160566I-67751J-67751D01*
G01X6318402Y5160566D01*
G01X6697842Y4781126D01*
G03X6765593Y4753063I67751J67751D01*
G01X6873324Y4753063D01*
G01X6888265Y4752449D01*
G01X6902240Y4750872D01*
G01X6915640Y4748571D01*
G03X7077513Y4848877I49859J100305D01*
G03X6915640Y4949182I-112014J0D01*
G01X6902240Y4946881D01*
G01X6888265Y4945304D01*
G01X6873324Y4944691D01*
G01X6805280Y4944691D01*
G01X6431303Y5318668D01*
G01X6435703Y5318668D01*
G01X6719246Y5035126D01*
G03X6786997Y5007063I67751J67751D01*
G01X6873324Y5007063D01*
G01X6888265Y5006449D01*
G01X6902240Y5004872D01*
G01X6915640Y5002571D01*
G03X7077513Y5102877I49859J100305D01*
G03X6915640Y5203182I-112014J0D01*
G01X6902240Y5200881D01*
G01X6888265Y5199304D01*
G01X6873324Y5198691D01*
G01X6826684Y5198691D01*
G01X6543142Y5482233D01*
G03X6513777Y5502271I-67751J-67751D01*
G01X6684603Y5502271D01*
G01X6832571Y5354303D01*
G01X6842702Y5343305D01*
G01X6851469Y5332308D01*
G01X6859316Y5321206D01*
G03X7044705Y5277671I106183J35671D01*
G03X7001170Y5463059I-79206J79206D01*
G01X6990068Y5470907D01*
G01X6979071Y5479674D01*
G01X6968072Y5489805D01*
G01X6792042Y5665835D01*
G03X6724291Y5693899I-67751J-67751D01*
G01X3149878Y5693899D01*
G37*
G36*
G01X7319477Y5432869D02*
G01X7314819Y5433366D01*
G01X7309984Y5434213D01*
G01X7305305Y5435376D01*
G01X7301106Y5436773D01*
G01X7297706Y5438253D01*
G01X7295403Y5439567D01*
G01X7293027Y5441380D01*
G03X7107485Y5356877I-73528J-84503D01*
G03X7293027Y5272373I112014J0D01*
G01X7295403Y5274186D01*
G01X7297706Y5275500D01*
G01X7301106Y5276980D01*
G01X7305305Y5278377D01*
G01X7309984Y5279540D01*
G01X7314819Y5280387D01*
G01X7319477Y5280884D01*
G01X7324302Y5281062D01*
G01X9906469Y5281062D01*
G01X9968523Y5219009D01*
G03X10022132Y5196803I53609J53609D01*
G02X10060322Y5183834I0J-62714D01*
G03X10082131Y5176428I21809J28408D01*
G01X10252233Y5176428D01*
G03X10273936Y5183753I0J35814D01*
G02X10285610Y5191547I68297J-89652D01*
G02X10297284Y5183753I-56623J-97446D01*
G03X10318987Y5176428I21703J28489D01*
G01X10489088Y5176428D01*
G03X10524902Y5212242I0J35814D01*
G01X10524902Y5332993D01*
G03X10489088Y5368807I-35814J0D01*
G01X10318987Y5368807D01*
G03X10297284Y5361482I0J-35814D01*
G02X10285610Y5353688I-68297J89652D01*
G02X10273936Y5361482I56623J97446D01*
G03X10252233Y5368807I-21703J-28489D01*
G01X10082131Y5368807D01*
G03X10060322Y5361401I0J-35814D01*
G02X10047966Y5354000I-38190J49744D01*
G01X9991481Y5410485D01*
G03X9937872Y5432691I-53609J-53609D01*
G01X7324302Y5432691D01*
G01X7319477Y5432869D01*
G37*
G36*
G01X7219499Y4482863D02*
G03X7219499Y4706891I0J112014D01*
G03X7219499Y4482863I0J-112014D01*
G37*
G36*
G01X9565088Y4895414D02*
G03X9518551Y4914690I-46537J-46537D01*
G01X7325084Y4914690D01*
G01X7321750Y4914960D01*
G01X7319345Y4915524D01*
G01X7316237Y4916688D01*
G01X7312501Y4918563D01*
G01X7308283Y4921160D01*
G01X7304021Y4924206D01*
G01X7293649Y4932834D01*
G03X7107485Y4848877I-74150J-83958D01*
G03X7293649Y4764919I112014J0D01*
G01X7304021Y4773547D01*
G01X7308283Y4776594D01*
G01X7312501Y4779190D01*
G01X7316237Y4781065D01*
G01X7319345Y4782229D01*
G01X7321750Y4782793D01*
G01X7325084Y4783063D01*
G01X7670279Y4783063D01*
G01X7679330Y4782559D01*
G01X7688180Y4781838D01*
G03X7700282Y4781838I6051J65535D01*
G01X7709132Y4782559D01*
G01X7718183Y4783063D01*
G01X9491290Y4783063D01*
G01X10247223Y4027129D01*
G03X10293761Y4007853I46537J46537D01*
G01X10614693Y4007853D01*
G01X10618026Y4007583D01*
G01X10620432Y4007019D01*
G01X10623539Y4005855D01*
G01X10627275Y4003980D01*
G01X10631494Y4001383D01*
G01X10635755Y3998337D01*
G01X10640774Y3994163D01*
G01X10644948Y3989144D01*
G01X10647995Y3984883D01*
G01X10650591Y3980664D01*
G01X10652466Y3976928D01*
G01X10653630Y3973821D01*
G01X10654194Y3971415D01*
G01X10654464Y3968082D01*
G01X10654464Y2117541D01*
G01X10469260Y1932338D01*
G01X10463887Y1927411D01*
G01X10459916Y1924435D01*
G01X10456746Y1922579D01*
G01X10454144Y1921460D01*
G01X10451715Y1920764D01*
G01X10448997Y1920326D01*
G01X10445594Y1920138D01*
G01X10441586Y1920248D01*
G01X10429102Y1921564D01*
G01X10413986Y1923610D01*
G01X10412494Y1923780D01*
G01X10395120Y1925393D01*
G01X10392840Y1925531D01*
G01X10383350Y1925805D01*
G01X10381377Y1925807D01*
G01X10379982Y1925771D01*
G03X10255713Y1625716I18J-175768D01*
G03X10555768Y1749984I124287J124287D01*
G01X10555805Y1751379D01*
G01X10555802Y1753353D01*
G01X10555529Y1762842D01*
G01X10555390Y1765122D01*
G01X10553777Y1782497D01*
G01X10553607Y1783988D01*
G01X10551561Y1799104D01*
G01X10550245Y1811589D01*
G01X10550135Y1815596D01*
G01X10550324Y1818999D01*
G01X10550761Y1821718D01*
G01X10551458Y1824146D01*
G01X10552576Y1826748D01*
G01X10554433Y1829919D01*
G01X10557409Y1833890D01*
G01X10562335Y1839263D01*
G01X10766815Y2043743D01*
G03X10786091Y2090280I-46537J46537D01*
G01X10786091Y3968082D01*
G01X10786361Y3971415D01*
G01X10786925Y3973821D01*
G01X10788089Y3976928D01*
G01X10789964Y3980664D01*
G01X10792561Y3984883D01*
G01X10795607Y3989144D01*
G01X10804235Y3999516D01*
G03X10799483Y4152872I-83958J74150D01*
G03X10646127Y4157624I-79206J-79206D01*
G01X10635755Y4148996D01*
G01X10631494Y4145949D01*
G01X10627275Y4143353D01*
G01X10623539Y4141478D01*
G01X10620432Y4140314D01*
G01X10618026Y4139750D01*
G01X10614693Y4139480D01*
G01X10321022Y4139480D01*
G01X9565088Y4895414D01*
G37*
G36*
G01X10654464Y4433251D02*
G01X10654194Y4429918D01*
G01X10653630Y4427512D01*
G01X10652466Y4424405D01*
G01X10650591Y4420669D01*
G01X10647995Y4416450D01*
G01X10644948Y4412189D01*
G01X10636320Y4401817D01*
G03X10720278Y4215652I83958J-74150D01*
G03X10804235Y4401817I0J112014D01*
G01X10795607Y4412189D01*
G01X10792561Y4416450D01*
G01X10789964Y4420669D01*
G01X10788089Y4424405D01*
G01X10786925Y4427512D01*
G01X10786361Y4429918D01*
G01X10786091Y4433251D01*
G01X10786091Y4685294D01*
G03X10766815Y4731832I-65814J0D01*
G01X10548147Y4950500D01*
G02X10524902Y5022550I100040J72050D01*
G01X10524902Y5037236D01*
G03X10489088Y5073050I-35814J0D01*
G01X10318987Y5073050D01*
G03X10297284Y5065725I0J-35814D01*
G02X10285610Y5057930I-68297J89652D01*
G02X10273936Y5065725I56623J97446D01*
G03X10252233Y5073050I-21703J-28489D01*
G01X10082131Y5073050D01*
G03X10046317Y5037236I0J-35814D01*
G01X10046317Y4916484D01*
G03X10082131Y4880670I35814J0D01*
G01X10252233Y4880670D01*
G03X10273936Y4887995I0J35814D01*
G02X10285610Y4895789I68297J-89652D01*
G02X10297284Y4887995I-56623J-97446D01*
G03X10318987Y4880670I21703J28489D01*
G01X10383022Y4880670D01*
G02X10455072Y4857425I0J-123284D01*
G01X10654464Y4658033D01*
G01X10654464Y4433251D01*
G37*
%LPD*%
G54D10*
G01X35814Y35814D02*
G01X35814Y482849D01*
G03X880392Y599999I414164J117150D01*
G03X35814Y717149I-430414J0D01*
G01X35814Y5964174D01*
G01X11264163Y5964174D01*
G01X11264163Y717075D01*
G03X10419564Y599999I-414185J-117076D01*
G03X11264163Y482923I430414J0D01*
G01X11264163Y35814D01*
G01X9215814Y35814D01*
G01X9215814Y4030000D01*
G03X9180000Y4065814I-35814J0D01*
G01X7219949Y4065814D01*
G01X7429664Y4275529D01*
G03X7429664Y4368604I-46537J46537D01*
G03X7336589Y4368604I-46537J-46537D01*
G01X7124052Y4156067D01*
G01X5908800Y4156067D01*
G03X5650025Y4930416I-258775J343936D01*
G03X5391250Y4156067I0J-430414D01*
G01X1850710Y4156067D01*
G01X1809009Y4197767D01*
G02X1785764Y4269817I100040J72050D01*
G01X1785764Y4333853D01*
G03X1778439Y4355556I-35814J0D01*
G01X1778439Y4355556D01*
G02X1770558Y4367378I89652J68297D01*
G02X1778439Y4379201I97533J-56474D01*
G01X1778439Y4379201D01*
G03X1785764Y4400904I-28489J21703D01*
G01X1785764Y4571006D01*
G03X1749950Y4606820I-35814J0D01*
G01X1738997Y4606820D01*
G02X1716575Y4661005I54264J54186D01*
G01X1716575Y4688732D01*
G02X1740324Y4744216I76686J0D01*
G03X1766585Y4778732I-9553J34516D01*
G01X1766585Y4958818D01*
G03X1730771Y4994632I-35814J0D01*
G01X1570751Y4994632D01*
G03X1534937Y4958818I0J-35814D01*
G01X1534937Y4778732D01*
G03X1561198Y4744216I35814J0D01*
G02X1584947Y4688732I-52937J-55483D01*
G01X1584947Y4524768D01*
G03X1593384Y4492529I65814J0D01*
G01X1593384Y4400904D01*
G03X1600709Y4379201I35814J0D01*
G02X1608590Y4367378I-89652J-68297D01*
G02X1600709Y4355556I-97533J56474D01*
G03X1593384Y4333853I28489J-21703D01*
G01X1593384Y4163751D01*
G03X1600709Y4142048I35814J0D01*
G02X1623760Y4073752I-89652J-68297D01*
G01X1623760Y1425902D01*
G01X1196883Y999025D01*
G02X1124833Y975780I-72050J100040D01*
G01X1070879Y975780D01*
G03X1035065Y939966I0J-35814D01*
G01X1035065Y759880D01*
G03X1070879Y724066I35814J0D01*
G01X1230899Y724066D01*
G03X1266713Y759880I0J35814D01*
G01X1266713Y833900D01*
G02X1289958Y905950I123285J0D01*
G01X1736112Y1352104D01*
G03X1755388Y1398641I-46537J46537D01*
G01X1755388Y4065238D01*
G01X1776911Y4043715D01*
G03X1823448Y4024439I46537J46537D01*
G01X2084186Y4024439D01*
G01X2084186Y35814D01*
G01X35814Y35814D01*
G01X586215Y4214634D02*
G01X591383Y4213775D01*
G01X596201Y4212628D01*
G01X600169Y4211312D01*
G01X603190Y4209938D01*
G01X605289Y4208636D01*
G01X607837Y4206469D01*
G01X612042Y4202265D01*
G03X658579Y4182988I46537J46537D01*
G01X1243441Y4182988D01*
G02X1297783Y4160410I0J-76686D01*
G03X1333441Y4127937I35658J3341D01*
G01X1454192Y4127937D01*
G03X1490006Y4163751I0J35814D01*
G01X1490006Y4333853D01*
G03X1482681Y4355556I-35814J0D01*
G02X1474801Y4367378I89652J68297D01*
G02X1482681Y4379201I97533J-56474D01*
G01X1482681Y4379201D01*
G03X1490006Y4400904I-28489J21703D01*
G01X1490006Y4571006D01*
G03X1454192Y4606820I-35814J0D01*
G01X1333441Y4606820D01*
G03X1297627Y4571006I0J-35814D01*
G01X1297627Y4400904D01*
G03X1304952Y4379201I35814J0D01*
G02X1312833Y4367378I-89652J-68297D01*
G02X1304952Y4355556I-97533J56474D01*
G03X1297783Y4337194I28489J-21703D01*
G02X1243441Y4314616I-54342J54108D01*
G01X693935Y4314616D01*
G01X693606Y4315999D01*
G01X692747Y4321166D01*
G01X691514Y4334602D01*
G03X500509Y4406872I-111799J-6935D01*
G03X572780Y4215867I79206J-79206D01*
G01X586215Y4214634D01*
G01X737665Y1839263D02*
G01X742591Y1833890D01*
G01X745567Y1829919D01*
G01X747424Y1826748D01*
G01X748542Y1824146D01*
G01X749239Y1821718D01*
G01X749676Y1818999D01*
G01X749865Y1815596D01*
G01X749755Y1811589D01*
G01X748439Y1799104D01*
G01X746393Y1783988D01*
G01X746223Y1782497D01*
G01X744610Y1765122D01*
G01X744471Y1762842D01*
G01X744198Y1753353D01*
G01X744195Y1751379D01*
G01X744232Y1749984D01*
G03X1044287Y1625716I175768J18D01*
G03X920018Y1925771I-124287J124287D01*
G01X918623Y1925807D01*
G01X916650Y1925805D01*
G01X907160Y1925531D01*
G01X904880Y1925393D01*
G01X887506Y1923780D01*
G01X886014Y1923610D01*
G01X870898Y1921564D01*
G01X858414Y1920248D01*
G01X854406Y1920138D01*
G01X851003Y1920326D01*
G01X848285Y1920764D01*
G01X845856Y1921460D01*
G01X843254Y1922579D01*
G01X840084Y1924435D01*
G01X836113Y1927411D01*
G01X830740Y1932338D01*
G01X645529Y2117549D01*
G01X645529Y3968082D01*
G01X645798Y3971415D01*
G01X646362Y3973821D01*
G01X647526Y3976928D01*
G01X649401Y3980664D01*
G01X651998Y3984883D01*
G01X655044Y3989144D01*
G01X663672Y3999516D01*
G03X579715Y4185680I-83958J74150D01*
G03X495757Y3999516I0J-112014D01*
G01X504385Y3989144D01*
G01X507432Y3984883D01*
G01X510028Y3980664D01*
G01X511903Y3976928D01*
G01X513068Y3973821D01*
G01X513631Y3971415D01*
G01X513901Y3968082D01*
G01X513901Y2090288D01*
G03X533177Y2043750I65814J0D01*
G01X737665Y1839263D01*
G01X1025032Y4868775D02*
G03X1276746Y4868775I125857J0D01*
G03X1025032Y4868775I-125857J0D01*
G01X1776618Y849923D02*
G03X1524904Y849923I-125857J0D01*
G03X1776618Y849923I125857J0D01*
G01X3149878Y5693899D02*
G03X3082127Y5665835I0J-95814D01*
G01X2408019Y4991727D01*
G03X2327971Y4778548I10093J-125408D01*
G03X2543207Y4852889I90141J87771D01*
G03X2793270Y4851755I125095J13430D01*
G03X2918238Y4740505I124968J14564D01*
G03X3043206Y4851755I0J125814D01*
G03X3293583Y4856226I124968J14564D01*
G01X3419421Y4982064D01*
G01X6221501Y4982064D01*
G01X6676439Y4527126D01*
G03X6744189Y4499063I67751J67751D01*
G01X6873324Y4499063D01*
G01X6888265Y4498449D01*
G01X6902240Y4496872D01*
G01X6915640Y4494571D01*
G03X7077513Y4594877I49859J100305D01*
G03X6915640Y4695182I-112014J0D01*
G01X6902240Y4692881D01*
G01X6888265Y4691304D01*
G01X6873324Y4690691D01*
G01X6783877Y4690691D01*
G01X6328939Y5145629D01*
G03X6309592Y5160566I-67751J-67751D01*
G01X6318402Y5160566D01*
G01X6697842Y4781126D01*
G03X6765593Y4753063I67751J67751D01*
G01X6873324Y4753063D01*
G01X6888265Y4752449D01*
G01X6902240Y4750872D01*
G01X6915640Y4748571D01*
G03X7077513Y4848877I49859J100305D01*
G03X6915640Y4949182I-112014J0D01*
G01X6902240Y4946881D01*
G01X6888265Y4945304D01*
G01X6873324Y4944691D01*
G01X6805280Y4944691D01*
G01X6431303Y5318668D01*
G01X6435703Y5318668D01*
G01X6719246Y5035126D01*
G03X6786997Y5007063I67751J67751D01*
G01X6873324Y5007063D01*
G01X6888265Y5006449D01*
G01X6902240Y5004872D01*
G01X6915640Y5002571D01*
G03X7077513Y5102877I49859J100305D01*
G03X6915640Y5203182I-112014J0D01*
G01X6902240Y5200881D01*
G01X6888265Y5199304D01*
G01X6873324Y5198691D01*
G01X6826684Y5198691D01*
G01X6543142Y5482233D01*
G03X6513777Y5502271I-67751J-67751D01*
G01X6684603Y5502271D01*
G01X6832571Y5354303D01*
G01X6842702Y5343305D01*
G01X6851469Y5332308D01*
G01X6859316Y5321206D01*
G03X7044705Y5277671I106183J35671D01*
G03X7001170Y5463059I-79206J79206D01*
G01X6990068Y5470907D01*
G01X6979071Y5479674D01*
G01X6968072Y5489805D01*
G01X6792042Y5665835D01*
G03X6724291Y5693899I-67751J-67751D01*
G01X3149878Y5693899D01*
G01X7319477Y5432869D02*
G01X7314819Y5433366D01*
G01X7309984Y5434213D01*
G01X7305305Y5435376D01*
G01X7301106Y5436773D01*
G01X7297706Y5438253D01*
G01X7295403Y5439567D01*
G01X7293027Y5441380D01*
G03X7107485Y5356877I-73528J-84503D01*
G03X7293027Y5272373I112014J0D01*
G01X7295403Y5274186D01*
G01X7297706Y5275500D01*
G01X7301106Y5276980D01*
G01X7305305Y5278377D01*
G01X7309984Y5279540D01*
G01X7314819Y5280387D01*
G01X7319477Y5280884D01*
G01X7324302Y5281062D01*
G01X9906469Y5281062D01*
G01X9968523Y5219009D01*
G03X10022132Y5196803I53609J53609D01*
G02X10060322Y5183834I0J-62714D01*
G03X10082131Y5176428I21809J28408D01*
G01X10252233Y5176428D01*
G03X10273936Y5183753I0J35814D01*
G02X10285610Y5191547I68297J-89652D01*
G02X10297284Y5183753I-56623J-97446D01*
G03X10318987Y5176428I21703J28489D01*
G01X10489088Y5176428D01*
G03X10524902Y5212242I0J35814D01*
G01X10524902Y5332993D01*
G03X10489088Y5368807I-35814J0D01*
G01X10318987Y5368807D01*
G03X10297284Y5361482I0J-35814D01*
G02X10285610Y5353688I-68297J89652D01*
G02X10273936Y5361482I56623J97446D01*
G03X10252233Y5368807I-21703J-28489D01*
G01X10082131Y5368807D01*
G03X10060322Y5361401I0J-35814D01*
G02X10047966Y5354000I-38190J49744D01*
G01X9991481Y5410485D01*
G03X9937872Y5432691I-53609J-53609D01*
G01X7324302Y5432691D01*
G01X7319477Y5432869D01*
G01X7219499Y4482863D02*
G03X7219499Y4706891I0J112014D01*
G03X7219499Y4482863I0J-112014D01*
G01X9565088Y4895414D02*
G03X9518551Y4914690I-46537J-46537D01*
G01X7325084Y4914690D01*
G01X7321750Y4914960D01*
G01X7319345Y4915524D01*
G01X7316237Y4916688D01*
G01X7312501Y4918563D01*
G01X7308283Y4921160D01*
G01X7304021Y4924206D01*
G01X7293649Y4932834D01*
G03X7107485Y4848877I-74150J-83958D01*
G03X7293649Y4764919I112014J0D01*
G01X7304021Y4773547D01*
G01X7308283Y4776594D01*
G01X7312501Y4779190D01*
G01X7316237Y4781065D01*
G01X7319345Y4782229D01*
G01X7321750Y4782793D01*
G01X7325084Y4783063D01*
G01X7670279Y4783063D01*
G01X7679330Y4782559D01*
G01X7688180Y4781838D01*
G03X7700282Y4781838I6051J65535D01*
G01X7709132Y4782559D01*
G01X7718183Y4783063D01*
G01X9491290Y4783063D01*
G01X10247223Y4027129D01*
G03X10293761Y4007853I46537J46537D01*
G01X10614693Y4007853D01*
G01X10618026Y4007583D01*
G01X10620432Y4007019D01*
G01X10623539Y4005855D01*
G01X10627275Y4003980D01*
G01X10631494Y4001383D01*
G01X10635755Y3998337D01*
G01X10640774Y3994163D01*
G01X10644948Y3989144D01*
G01X10647995Y3984883D01*
G01X10650591Y3980664D01*
G01X10652466Y3976928D01*
G01X10653630Y3973821D01*
G01X10654194Y3971415D01*
G01X10654464Y3968082D01*
G01X10654464Y2117541D01*
G01X10469260Y1932338D01*
G01X10463887Y1927411D01*
G01X10459916Y1924435D01*
G01X10456746Y1922579D01*
G01X10454144Y1921460D01*
G01X10451715Y1920764D01*
G01X10448997Y1920326D01*
G01X10445594Y1920138D01*
G01X10441586Y1920248D01*
G01X10429102Y1921564D01*
G01X10413986Y1923610D01*
G01X10412494Y1923780D01*
G01X10395120Y1925393D01*
G01X10392840Y1925531D01*
G01X10383350Y1925805D01*
G01X10381377Y1925807D01*
G01X10379982Y1925771D01*
G03X10255713Y1625716I18J-175768D01*
G03X10555768Y1749984I124287J124287D01*
G01X10555805Y1751379D01*
G01X10555802Y1753353D01*
G01X10555529Y1762842D01*
G01X10555390Y1765122D01*
G01X10553777Y1782497D01*
G01X10553607Y1783988D01*
G01X10551561Y1799104D01*
G01X10550245Y1811589D01*
G01X10550135Y1815596D01*
G01X10550324Y1818999D01*
G01X10550761Y1821718D01*
G01X10551458Y1824146D01*
G01X10552576Y1826748D01*
G01X10554433Y1829919D01*
G01X10557409Y1833890D01*
G01X10562335Y1839263D01*
G01X10766815Y2043743D01*
G03X10786091Y2090280I-46537J46537D01*
G01X10786091Y3968082D01*
G01X10786361Y3971415D01*
G01X10786925Y3973821D01*
G01X10788089Y3976928D01*
G01X10789964Y3980664D01*
G01X10792561Y3984883D01*
G01X10795607Y3989144D01*
G01X10804235Y3999516D01*
G03X10799483Y4152872I-83958J74150D01*
G03X10646127Y4157624I-79206J-79206D01*
G01X10635755Y4148996D01*
G01X10631494Y4145949D01*
G01X10627275Y4143353D01*
G01X10623539Y4141478D01*
G01X10620432Y4140314D01*
G01X10618026Y4139750D01*
G01X10614693Y4139480D01*
G01X10321022Y4139480D01*
G01X9565088Y4895414D01*
G01X10654464Y4433251D02*
G01X10654194Y4429918D01*
G01X10653630Y4427512D01*
G01X10652466Y4424405D01*
G01X10650591Y4420669D01*
G01X10647995Y4416450D01*
G01X10644948Y4412189D01*
G01X10636320Y4401817D01*
G03X10720278Y4215652I83958J-74150D01*
G03X10804235Y4401817I0J112014D01*
G01X10795607Y4412189D01*
G01X10792561Y4416450D01*
G01X10789964Y4420669D01*
G01X10788089Y4424405D01*
G01X10786925Y4427512D01*
G01X10786361Y4429918D01*
G01X10786091Y4433251D01*
G01X10786091Y4685294D01*
G03X10766815Y4731832I-65814J0D01*
G01X10548147Y4950500D01*
G02X10524902Y5022550I100040J72050D01*
G01X10524902Y5037236D01*
G03X10489088Y5073050I-35814J0D01*
G01X10318987Y5073050D01*
G03X10297284Y5065725I0J-35814D01*
G02X10285610Y5057930I-68297J89652D01*
G02X10273936Y5065725I56623J97446D01*
G03X10252233Y5073050I-21703J-28489D01*
G01X10082131Y5073050D01*
G03X10046317Y5037236I0J-35814D01*
G01X10046317Y4916484D01*
G03X10082131Y4880670I35814J0D01*
G01X10252233Y4880670D01*
G03X10273936Y4887995I0J35814D01*
G02X10285610Y4895789I68297J-89652D01*
G02X10297284Y4887995I-56623J-97446D01*
G03X10318987Y4880670I21703J28489D01*
G01X10383022Y4880670D01*
G02X10455072Y4857425I0J-123284D01*
G01X10654464Y4658033D01*
G01X10654464Y4433251D01*
G04 Copper End*

G04 TearDrop Start*
G36*
G01X1680761Y4688732D02*
G01X1620761Y4688732D01*
G03X1575761Y4778732I-112500J0D01*
G01X1575761Y4778732D01*
G01X1725761Y4778732D01*
G03X1680761Y4688732I67500J-90000D01*
G37*
G36*
G01X2462660Y4995719D02*
G01X2547513Y4910866D01*
G01X2540285Y4904274D01*
G01X2533334Y4898775D01*
G01X2526848Y4893879D01*
G01X2521014Y4889098D01*
G01X2516022Y4883940D01*
G01X2513900Y4881067D01*
G01X2512059Y4877916D01*
G01X2510522Y4874427D01*
G01X2509313Y4870537D01*
G01X2508455Y4866185D01*
G01X2507973Y4861311D01*
G01X2413105Y4956179D01*
G01X2417979Y4956662D01*
G01X2422330Y4957520D01*
G01X2426220Y4958729D01*
G01X2429710Y4960265D01*
G01X2432861Y4962107D01*
G01X2435733Y4964229D01*
G01X2440891Y4969221D01*
G01X2445673Y4975055D01*
G01X2450568Y4981541D01*
G01X2456067Y4988492D01*
G01X2462660Y4995719D01*
G37*
G36*
G01X2712850Y4995719D02*
G01X2797703Y4910866D01*
G01X2790475Y4904274D01*
G01X2783524Y4898775D01*
G01X2777038Y4893879D01*
G01X2771204Y4889098D01*
G01X2766212Y4883940D01*
G01X2764090Y4881067D01*
G01X2762249Y4877916D01*
G01X2760712Y4874427D01*
G01X2759503Y4870537D01*
G01X2758645Y4866185D01*
G01X2758163Y4861311D01*
G01X2663295Y4956179D01*
G01X2668169Y4956662D01*
G01X2672520Y4957520D01*
G01X2676410Y4958729D01*
G01X2679900Y4960265D01*
G01X2683051Y4962107D01*
G01X2685923Y4964229D01*
G01X2691081Y4969221D01*
G01X2695863Y4975055D01*
G01X2700758Y4981541D01*
G01X2706257Y4988492D01*
G01X2712850Y4995719D01*
G37*
G36*
G01X2962786Y4995719D02*
G01X3047639Y4910866D01*
G01X3040411Y4904274D01*
G01X3033460Y4898775D01*
G01X3026974Y4893879D01*
G01X3021140Y4889098D01*
G01X3016148Y4883940D01*
G01X3014026Y4881067D01*
G01X3012185Y4877916D01*
G01X3010648Y4874427D01*
G01X3009439Y4870537D01*
G01X3008581Y4866185D01*
G01X3008099Y4861311D01*
G01X2913231Y4956179D01*
G01X2918105Y4956662D01*
G01X2922456Y4957520D01*
G01X2926346Y4958729D01*
G01X2929836Y4960265D01*
G01X2932987Y4962107D01*
G01X2935859Y4964229D01*
G01X2941017Y4969221D01*
G01X2945799Y4975055D01*
G01X2950694Y4981541D01*
G01X2956193Y4988492D01*
G01X2962786Y4995719D01*
G37*
G36*
G01X3212722Y4995719D02*
G01X3297575Y4910866D01*
G01X3290347Y4904274D01*
G01X3283396Y4898775D01*
G01X3276910Y4893879D01*
G01X3271076Y4889098D01*
G01X3266084Y4883940D01*
G01X3263962Y4881067D01*
G01X3262121Y4877916D01*
G01X3260584Y4874427D01*
G01X3259375Y4870537D01*
G01X3258517Y4866185D01*
G01X3258035Y4861311D01*
G01X3163167Y4956179D01*
G01X3168041Y4956662D01*
G01X3172392Y4957520D01*
G01X3176282Y4958729D01*
G01X3179772Y4960265D01*
G01X3182923Y4962107D01*
G01X3185795Y4964229D01*
G01X3190953Y4969221D01*
G01X3195735Y4975055D01*
G01X3200630Y4981541D01*
G01X3206129Y4988492D01*
G01X3212722Y4995719D01*
G37*
G36*
G01X10616138Y4043667D02*
G01X10616138Y4103666D01*
G01X10623585Y4104268D01*
G01X10630844Y4105969D01*
G01X10637897Y4108612D01*
G01X10644727Y4112040D01*
G01X10651317Y4116096D01*
G01X10657650Y4120623D01*
G01X10669478Y4130463D01*
G01X10669478Y4016870D01*
G01X10657650Y4026710D01*
G01X10651317Y4031237D01*
G01X10644727Y4035293D01*
G01X10637897Y4038721D01*
G01X10630844Y4041364D01*
G01X10623585Y4043065D01*
G01X10616138Y4043667D01*
G37*
G36*
G01X10750277Y3969526D02*
G01X10690278Y3969526D01*
G01X10689676Y3976974D01*
G01X10687975Y3984233D01*
G01X10685332Y3991286D01*
G01X10681904Y3998116D01*
G01X10677848Y4004706D01*
G01X10673321Y4011039D01*
G01X10663481Y4022866D01*
G01X10777074Y4022866D01*
G01X10767234Y4011039D01*
G01X10762707Y4004706D01*
G01X10758651Y3998116D01*
G01X10755223Y3991286D01*
G01X10752580Y3984233D01*
G01X10750879Y3976974D01*
G01X10750277Y3969526D01*
G37*
G36*
G01X10690278Y4431806D02*
G01X10750277Y4431806D01*
G01X10750879Y4424359D01*
G01X10752580Y4417100D01*
G01X10755223Y4410047D01*
G01X10758651Y4403217D01*
G01X10762707Y4396627D01*
G01X10767234Y4390294D01*
G01X10777074Y4378466D01*
G01X10663481Y4378466D01*
G01X10673321Y4390294D01*
G01X10677848Y4396627D01*
G01X10681904Y4403217D01*
G01X10685332Y4410047D01*
G01X10687975Y4417100D01*
G01X10689676Y4424359D01*
G01X10690278Y4431806D01*
G37*
G36*
G01X609715Y3969526D02*
G01X549715Y3969526D01*
G01X549113Y3976974D01*
G01X547412Y3984233D01*
G01X544769Y3991286D01*
G01X541341Y3998116D01*
G01X537285Y4004706D01*
G01X532758Y4011039D01*
G01X522918Y4022866D01*
G01X636511Y4022866D01*
G01X626672Y4011039D01*
G01X622144Y4004706D01*
G01X618088Y3998116D01*
G01X614660Y3991286D01*
G01X612017Y3984233D01*
G01X610316Y3976974D01*
G01X609715Y3969526D01*
G37*
G36*
G01X674566Y4275242D02*
G01X632140Y4232815D01*
G01X626448Y4237656D01*
G01X620112Y4241586D01*
G01X613256Y4244704D01*
G01X606003Y4247110D01*
G01X598475Y4248901D01*
G01X590796Y4250178D01*
G01X575475Y4251585D01*
G01X655797Y4331906D01*
G01X657203Y4316586D01*
G01X658480Y4308906D01*
G01X660272Y4301378D01*
G01X662677Y4294125D01*
G01X665795Y4287269D01*
G01X669725Y4280933D01*
G01X674566Y4275242D01*
G37*
G36*
G01X1659574Y4423852D02*
G01X1719574Y4423852D01*
G03X1749950Y4333853I148517J0D01*
G01X1629198Y4333853D01*
G01X1629198Y4333853D01*
G03X1659574Y4423852I-118141J90000D01*
G37*
G36*
G01X1719574Y4073752D02*
G01X1659574Y4073752D01*
G03X1629198Y4163751I-148517J0D01*
G01X1749950Y4163751D01*
G01X1749950Y4163751D01*
G03X1719574Y4073752I118141J-90000D01*
G37*
G36*
G01X1781770Y4174358D02*
G01X1739343Y4131932D01*
G03X1643884Y4163751I-95459J-127279D01*
G01X1749950Y4269817D01*
G03X1781770Y4174358I159099J0D01*
G37*
G36*
G01X1243441Y4218802D02*
G01X1243441Y4278802D01*
G01X1243441Y4278802D01*
G03X1333441Y4323802I0J112500D01*
G01X1333441Y4323802D01*
G01X1333441Y4173802D01*
G01X1333441Y4173802D01*
G03X1243441Y4218802I-90000J-67500D01*
G37*
G36*
G01X1363817Y4423852D02*
G01X1423817Y4423852D01*
G03X1454192Y4333853I148517J0D01*
G01X1333441Y4333853D01*
G01X1333441Y4333853D01*
G03X1363817Y4423852I-118141J90000D01*
G37*
G36*
G01X1620761Y4661005D02*
G01X1680761Y4661005D01*
G03X1725761Y4571006I112500J0D01*
G01X1725761Y4571006D01*
G01X1629198Y4571006D01*
G01X1629198Y4571006D01*
G03X1620761Y4661005I-484238J0D01*
G37*
G36*
G01X1719574Y4310905D02*
G01X1659574Y4310905D01*
G03X1629198Y4400904I-148517J0D01*
G01X1749950Y4400904D01*
G01X1749950Y4400904D01*
G03X1719574Y4310905I118141J-90000D01*
G37*
G36*
G01X1423817Y4310905D02*
G01X1363817Y4310905D01*
G03X1333441Y4400904I-148517J0D01*
G01X1454192Y4400904D01*
G01X1454192Y4400904D01*
G03X1423817Y4310905I118141J-90000D01*
G37*
G36*
G01X10228987Y5242617D02*
G01X10228987Y5302617D01*
G03X10318987Y5332993I0J148517D01*
G01X10318987Y5212242D01*
G01X10318987Y5212242D01*
G03X10228987Y5242617I-90000J-118141D01*
G37*
G36*
G01X10228987Y4946860D02*
G01X10228987Y5006860D01*
G03X10318987Y5037236I0J148517D01*
G01X10318987Y4916484D01*
G03X10228987Y4946860I-90000J-118141D01*
G37*
G36*
G01X10520908Y4927091D02*
G01X10478481Y4884664D01*
G01X10478481Y4884664D01*
G03X10383022Y4916484I-95459J-127279D01*
G01X10489088Y5022550D01*
G01X10489088Y5022550D01*
G03X10520908Y4927091I159099J0D01*
G37*
G36*
G01X10022132Y5232617D02*
G01X10022132Y5312617D01*
G03X10082131Y5332993I0J98528D01*
G01X10082131Y5212242D01*
G01X10082131Y5212242D01*
G03X10022132Y5232617I-60000J-78152D01*
G37*
G36*
G01X10342233Y5302617D02*
G01X10342233Y5242617D01*
G01X10342233Y5242617D01*
G03X10252233Y5212242I0J-148517D01*
G01X10252233Y5332993D01*
G03X10342233Y5302617I90000J118141D01*
G37*
G36*
G01X10342233Y5006860D02*
G01X10342233Y4946860D01*
G03X10252233Y4916484I0J-148517D01*
G01X10252233Y5037236D01*
G03X10342233Y5006860I90000J118141D01*
G37*
G36*
G01X763538Y1864038D02*
G01X805964Y1906464D01*
G01X813216Y1899816D01*
G01X820232Y1894557D01*
G01X827073Y1890552D01*
G01X833800Y1887660D01*
G01X840474Y1885746D01*
G01X847156Y1884671D01*
G01X853907Y1884297D01*
G01X860786Y1884486D01*
G01X875178Y1886003D01*
G01X890817Y1888119D01*
G01X908191Y1889732D01*
G01X917681Y1890006D01*
G01X927787Y1889740D01*
G01X780263Y1742215D01*
G01X779997Y1752321D01*
G01X780270Y1761811D01*
G01X781883Y1779185D01*
G01X784000Y1794825D01*
G01X785517Y1809216D01*
G01X785706Y1816096D01*
G01X785332Y1822846D01*
G01X784256Y1829528D01*
G01X782342Y1836202D01*
G01X779451Y1842929D01*
G01X775445Y1849771D01*
G01X770187Y1856786D01*
G01X763538Y1864038D01*
G37*
G36*
G01X1220293Y971786D02*
G01X1262719Y929360D01*
G01X1262719Y929360D01*
G03X1230899Y833900I127279J-95459D01*
G01X1230899Y833900D01*
G01X1124833Y939966D01*
G03X1220293Y971786I0J159099D01*
G37*
G36*
G01X10494036Y1906464D02*
G01X10536462Y1864038D01*
G01X10529813Y1856786D01*
G01X10524555Y1849771D01*
G01X10520549Y1842929D01*
G01X10517658Y1836202D01*
G01X10515744Y1829528D01*
G01X10514668Y1822846D01*
G01X10514294Y1816096D01*
G01X10514483Y1809216D01*
G01X10516000Y1794825D01*
G01X10518117Y1779185D01*
G01X10519730Y1761811D01*
G01X10520003Y1752321D01*
G01X10519737Y1742215D01*
G01X10372213Y1889740D01*
G01X10382319Y1890006D01*
G01X10391809Y1889732D01*
G01X10409183Y1888119D01*
G01X10424822Y1886003D01*
G01X10439214Y1884486D01*
G01X10446093Y1884297D01*
G01X10452844Y1884671D01*
G01X10459526Y1885746D01*
G01X10466200Y1887660D01*
G01X10472927Y1890552D01*
G01X10479768Y1894557D01*
G01X10486784Y1899816D01*
G01X10494036Y1906464D01*
G37*
G36*
G01X6874059Y4534877D02*
G01X6874059Y4654877D01*
G01X6891010Y4655573D01*
G01X6907277Y4657408D01*
G01X6922413Y4660002D01*
G01X6935971Y4662977D01*
G01X6956569Y4668545D01*
G01X6965499Y4671077D01*
G01X6965499Y4518677D01*
G01X6956569Y4521208D01*
G01X6935971Y4526777D01*
G01X6922413Y4529751D01*
G01X6907277Y4532345D01*
G01X6891010Y4534180D01*
G01X6874059Y4534877D01*
G37*
G36*
G01X7323639Y4878876D02*
G01X7323639Y4818877D01*
G01X7316191Y4818275D01*
G01X7308933Y4816574D01*
G01X7301880Y4813931D01*
G01X7295050Y4810503D01*
G01X7288460Y4806447D01*
G01X7282127Y4801920D01*
G01X7270299Y4792080D01*
G01X7270299Y4905673D01*
G01X7282127Y4895833D01*
G01X7288460Y4891306D01*
G01X7295050Y4887250D01*
G01X7301880Y4883822D01*
G01X7308933Y4881179D01*
G01X7316191Y4879478D01*
G01X7323639Y4878876D01*
G37*
G36*
G01X6874059Y4788877D02*
G01X6874059Y4908877D01*
G01X6891010Y4909573D01*
G01X6907277Y4911408D01*
G01X6922413Y4914002D01*
G01X6935971Y4916977D01*
G01X6956569Y4922545D01*
G01X6965499Y4925077D01*
G01X6965499Y4772677D01*
G01X6956569Y4775208D01*
G01X6935971Y4780777D01*
G01X6922413Y4783751D01*
G01X6907277Y4786345D01*
G01X6891010Y4788180D01*
G01X6874059Y4788877D01*
G37*
G36*
G01X6874059Y5042877D02*
G01X6874059Y5162877D01*
G01X6891010Y5163573D01*
G01X6907277Y5165408D01*
G01X6922413Y5168002D01*
G01X6935971Y5170977D01*
G01X6956569Y5176545D01*
G01X6965499Y5179077D01*
G01X6965499Y5026677D01*
G01X6956569Y5029208D01*
G01X6935971Y5034777D01*
G01X6922413Y5037751D01*
G01X6907277Y5040345D01*
G01X6891010Y5042180D01*
G01X6874059Y5042877D01*
G37*
G36*
G01X7323639Y5396877D02*
G01X7323639Y5316876D01*
G01X7316914Y5316627D01*
G01X7309826Y5315872D01*
G01X7302564Y5314600D01*
G01X7295319Y5312799D01*
G01X7288280Y5310457D01*
G01X7281637Y5307565D01*
G01X7275580Y5304110D01*
G01X7270299Y5300080D01*
G01X7270299Y5413673D01*
G01X7275580Y5409643D01*
G01X7281637Y5406188D01*
G01X7288280Y5403296D01*
G01X7295319Y5400954D01*
G01X7302564Y5399153D01*
G01X7309826Y5397881D01*
G01X7316914Y5397126D01*
G01X7323639Y5396877D01*
G37*
G36*
G01X6858415Y5379108D02*
G01X6943267Y5463961D01*
G01X6955746Y5452466D01*
G01X6968546Y5442262D01*
G01X6981084Y5433394D01*
G01X6992774Y5425910D01*
G01X7011276Y5415282D01*
G01X7019380Y5410758D01*
G01X6911617Y5302995D01*
G01X6907093Y5311099D01*
G01X6896466Y5329602D01*
G01X6888982Y5341292D01*
G01X6880114Y5353829D01*
G01X6869909Y5366629D01*
G01X6858415Y5379108D01*
G37*
G36*
G01X7671275Y4818877D02*
G01X7644734Y4878876D01*
G01X7646111Y4878554D01*
G01X7647576Y4877650D01*
G01X7650687Y4874475D01*
G01X7653903Y4870105D01*
G01X7657057Y4865295D01*
G01X7662515Y4857375D01*
G01X7664487Y4855773D01*
G01X7665212Y4855893D01*
G01X7665734Y4856751D01*
G01X7692275Y4817437D01*
G01X7681779Y4818292D01*
G01X7671275Y4818877D01*
G37*
G36*
G01X7743727Y4878876D02*
G01X7717187Y4818877D01*
G01X7706682Y4818292D01*
G01X7696187Y4817437D01*
G01X7722727Y4856751D01*
G01X7723250Y4855893D01*
G01X7723974Y4855773D01*
G01X7725947Y4857375D01*
G01X7731405Y4865295D01*
G01X7734558Y4870105D01*
G01X7737774Y4874475D01*
G01X7740886Y4877650D01*
G01X7742351Y4878554D01*
G01X7743727Y4878876D01*
G37*
G04 TearDrop End*

G04 Pad Start*
G54D11*
G01X1650761Y4868775D03*
G54D12*
G01X1400825Y4868775D03*
G01X1150889Y4868775D03*
G54D13*
G01X2418112Y4866319D03*
G01X2668302Y4866319D03*
G01X2918238Y4866319D03*
G01X3168174Y4866319D03*
G54D14*
G01X10720278Y4073666D03*
G01X10720278Y4327666D03*
G01X579715Y4073666D03*
G01X579715Y4327666D03*
G54D15*
G01X1689574Y4248802D03*
G01X1393817Y4248802D03*
G01X1689574Y4485955D03*
G01X1393817Y4485955D03*
G54D16*
G01X10404037Y5272617D03*
G01X10404037Y4976860D03*
G01X10167182Y5272617D03*
G01X10167182Y4976860D03*
G54D17*
G01X920000Y1242003D03*
G01X920000Y1750003D03*
G01X920000Y2258003D03*
G54D19*
G01X1150889Y849923D03*
G54D12*
G01X1400825Y849923D03*
G01X1650761Y849923D03*
G54D17*
G01X10380000Y1242003D03*
G01X10380000Y1750003D03*
G01X10380000Y2258003D03*
G54D14*
G01X7219499Y4594877D03*
G01X6965499Y4594877D03*
G01X7219499Y4848877D03*
G01X6965499Y4848877D03*
G01X7219499Y5102877D03*
G01X6965499Y5102877D03*
G01X7219499Y5356877D03*
G01X6965499Y5356877D03*
G04 Pad End*

G04 Via Start*
G54D20*
G01X7383127Y4322066D03*
G01X7694231Y4847373D03*
G01X2089355Y4561070D03*
G01X2211190Y4561070D03*
G01X2333025Y4561070D03*
G01X2454860Y4561070D03*
G01X2576695Y4561070D03*
G01X2084255Y4423368D03*
G01X2206090Y4423368D03*
G01X2327925Y4423368D03*
G01X2449760Y4423368D03*
G01X2571595Y4423368D03*
G01X2078830Y4264496D03*
G01X2200665Y4264496D03*
G01X2322500Y4264496D03*
G01X2444335Y4264496D03*
G01X2566170Y4264496D03*
G01X1268245Y5096577D03*
G01X1390080Y5096577D03*
G01X1511915Y5096577D03*
G01X1633750Y5096577D03*
G01X1755585Y5096577D03*
G01X1314145Y5229178D03*
G01X1435980Y5229178D03*
G01X1557815Y5229178D03*
G01X1679650Y5229178D03*
G01X1801485Y5229178D03*
G01X1385546Y5351580D03*
G01X1507381Y5351580D03*
G01X1629216Y5351580D03*
G01X1751051Y5351580D03*
G01X1872886Y5351580D03*
G01X1507948Y5504582D03*
G01X1629783Y5504582D03*
G01X1751618Y5504582D03*
G01X1873453Y5504582D03*
G01X1995288Y5504582D03*
G01X1992454Y5417881D03*
G01X2114289Y5417881D03*
G01X2236124Y5417881D03*
G01X2357959Y5417881D03*
G01X2479794Y5417881D03*
G01X2074055Y5647384D03*
G01X2195890Y5647384D03*
G01X2317725Y5647384D03*
G01X2439560Y5647384D03*
G01X2561395Y5647384D03*
G01X8036032Y5203678D03*
G01X8157867Y5203678D03*
G01X8279702Y5203678D03*
G01X8401537Y5203678D03*
G01X8523372Y5203678D03*
G01X8020732Y5055776D03*
G01X8142567Y5055776D03*
G01X8264402Y5055776D03*
G01X8386237Y5055776D03*
G01X8508072Y5055776D03*
G01X7865390Y4676808D03*
G01X7987225Y4676808D03*
G01X8109060Y4676808D03*
G01X8230895Y4676808D03*
G01X8352730Y4676808D03*
G01X7816730Y4484569D03*
G01X7938565Y4484569D03*
G01X8060399Y4484569D03*
G01X8182234Y4484569D03*
G01X8304069Y4484569D03*
G01X7765729Y4275466D03*
G01X7887564Y4275466D03*
G01X8009399Y4275466D03*
G01X8131234Y4275466D03*
G01X8253069Y4275466D03*
G01X9968957Y3836860D03*
G01X10090792Y3836860D03*
G01X10212627Y3836860D03*
G01X10334462Y3836860D03*
G01X10456297Y3836860D03*
G01X10091359Y3663458D03*
G01X10213194Y3663458D03*
G01X10335029Y3663458D03*
G01X10456864Y3663458D03*
G01X10578699Y3663458D03*
G01X9728785Y3958963D03*
G01X9850620Y3958963D03*
G01X9972455Y3958963D03*
G01X10094290Y3958963D03*
G01X9976422Y3734560D03*
G01X8938744Y4652871D03*
G01X9060579Y4652871D03*
G01X9182414Y4652871D03*
G01X9304249Y4652871D03*
G01X9426084Y4652871D03*
G01X141130Y1791734D03*
G01X262965Y1791734D03*
G01X384800Y1791734D03*
G01X506635Y1791734D03*
G01X130930Y1638732D03*
G01X252765Y1638732D03*
G01X374600Y1638732D03*
G01X496435Y1638732D03*
G01X125830Y1439829D03*
G01X247665Y1439829D03*
G01X369500Y1439829D03*
G01X491335Y1439829D03*
G01X1216390Y604395D03*
G01X1338225Y604395D03*
G01X1460060Y604395D03*
G01X1581895Y604395D03*
G01X1703730Y604395D03*
G01X1216390Y454804D03*
G01X1338225Y454804D03*
G01X1460060Y454804D03*
G01X1581895Y454804D03*
G01X1703730Y454804D03*
G01X3022668Y4515169D03*
G01X3022668Y4316266D03*
G01X3117869Y4316266D03*
G01X3117869Y4515169D03*
G01X3213070Y4316266D03*
G01X3213070Y4515169D03*
G01X3308271Y4316266D03*
G01X3308271Y4515169D03*
G01X4098781Y4525369D03*
G01X4098781Y4326467D03*
G01X4193983Y4326467D03*
G01X4193983Y4525369D03*
G01X4289184Y4326467D03*
G01X4289184Y4525369D03*
G01X4384385Y4326467D03*
G01X4384385Y4525369D03*
G01X1309648Y3383751D03*
G01X1508550Y3383751D03*
G01X1508550Y3478953D03*
G01X1309648Y3478953D03*
G01X1508550Y3574154D03*
G01X1309648Y3574154D03*
G01X1508550Y3669355D03*
G01X1309648Y3669355D03*
G01X758841Y2588141D03*
G01X957743Y2588141D03*
G01X957743Y2683342D03*
G01X758841Y2683342D03*
G01X957743Y2778544D03*
G01X758841Y2778544D03*
G01X957743Y2873745D03*
G01X758841Y2873745D03*
G01X1982254Y5927887D03*
G01X2104089Y5927887D03*
G01X2225924Y5927887D03*
G01X2347759Y5927887D03*
G01X2469594Y5927887D03*
G01X2591429Y5927887D03*
G01X2713264Y5927887D03*
G01X2835098Y5927887D03*
G01X2956933Y5927887D03*
G01X3078768Y5927887D03*
G01X3200603Y5927887D03*
G01X3322438Y5927887D03*
G01X3444273Y5927887D03*
G01X3566108Y5927887D03*
G01X3687943Y5927887D03*
G01X3809778Y5927887D03*
G01X3931613Y5927887D03*
G01X4053448Y5927887D03*
G01X4175282Y5927887D03*
G01X4297117Y5927887D03*
G01X4418952Y5927887D03*
G01X4540787Y5927887D03*
G01X8066633Y5810586D03*
G01X8188468Y5810586D03*
G01X8310303Y5810586D03*
G01X8432138Y5810586D03*
G01X8553972Y5810586D03*
G01X8675807Y5810586D03*
G01X8797642Y5810586D03*
G01X8919477Y5810586D03*
G01X9041312Y5810586D03*
G01X9163147Y5810586D03*
G01X9284982Y5810586D03*
G01X9406817Y5810586D03*
G01X9528652Y5810586D03*
G01X9650487Y5810586D03*
G01X9772322Y5810586D03*
G01X9894156Y5810586D03*
G01X10015991Y5810586D03*
G01X10137826Y5810586D03*
G01X10259661Y5810586D03*
G01X10381496Y5810586D03*
G01X10503331Y5810586D03*
G01X10625166Y5810586D03*
G01X9801258Y594015D03*
G01X9801258Y715850D03*
G01X9801258Y837685D03*
G01X9801258Y959520D03*
G01X9801258Y1081355D03*
G01X9801258Y1203190D03*
G01X9801258Y1325025D03*
G01X9801258Y1446860D03*
G01X9801258Y1568695D03*
G01X9801258Y1690530D03*
G01X9801258Y1812364D03*
G01X9801258Y1934199D03*
G01X9801258Y2056034D03*
G01X9801258Y2177869D03*
G01X9801258Y2299704D03*
G01X9801258Y2421539D03*
G01X9801258Y2543374D03*
G01X9801258Y2665209D03*
G01X9801258Y2787044D03*
G01X9801258Y2908879D03*
G01X9801258Y3030714D03*
G01X9801258Y3152548D03*
G04 Via End*

G04 Track Start*
G54D21*
G01X6744189Y4594877D02*
G01X6965499Y4594877D01*
G01X6261188Y5077878D02*
G01X6744189Y4594877D01*
G01X6965499Y4848877D02*
G01X6765593Y4848877D01*
G01X6358089Y5256380D01*
G01X6965499Y5102877D02*
G01X6786997Y5102877D01*
G01X6475391Y5414482D01*
G01X2418112Y4866319D02*
G01X3149878Y5598085D01*
G01X6724291Y5598085D02*
G01X6965499Y5356877D01*
G01X3149878Y5598085D02*
G01X6724291Y5598085D01*
G54D20*
G01X1393817Y4485955D02*
G01X1393817Y4248802D01*
G01X658579Y4248802D01*
G01X579715Y4327666D01*
G54D22*
G01X7219499Y5356877D02*
G01X9937872Y5356877D01*
G01X10022132Y5272617D01*
G01X10167182Y5272617D01*
G54D20*
G01X10404037Y5272617D02*
G01X10167182Y5272617D01*
G01X10720278Y4327666D02*
G01X10720278Y4685294D01*
G01X10428712Y4976860D02*
G01X10404037Y4976860D01*
G01X10720278Y4685294D02*
G01X10428712Y4976860D01*
G01X10404037Y4976860D02*
G01X10167182Y4976860D01*
G01X9518551Y4848877D02*
G01X10293761Y4073666D01*
G01X10720278Y4073666D01*
G01X1689574Y4224127D02*
G01X1689574Y4248802D01*
G01X1650761Y4868775D02*
G01X1650761Y4524768D01*
G01X1689574Y4485955D01*
G01X1689574Y4248802D01*
G01X1689574Y1398641D02*
G01X1150889Y859956D01*
G01X1150889Y849923D01*
G01X1689574Y4224127D02*
G01X1689574Y1398641D01*
G54D21*
G01X3216466Y5414482D02*
G01X2668302Y4866319D01*
G01X3216466Y5414482D02*
G01X6475391Y5414482D01*
G01X3308299Y5256380D02*
G01X2918238Y4866319D01*
G01X3308299Y5256380D02*
G01X6358089Y5256380D01*
G01X3168174Y4866319D02*
G01X3379733Y5077878D01*
G01X6261188Y5077878D01*
G54D20*
G01X7383127Y4322066D02*
G01X7151313Y4090253D01*
G01X1823448Y4090253D01*
G01X1689574Y4224127D01*
G01X579715Y4073666D02*
G01X579715Y2090288D01*
G01X920000Y1750003D01*
G01X10720278Y4073666D02*
G01X10720278Y2090280D01*
G01X10380000Y1750003D01*
G01X7219499Y4848877D02*
G01X9518551Y4848877D01*
G04 Track End*

M02*

