G04 Layer: TopSilkscreenLayer*
G04 EasyEDA Pro v2.2.32.3, 2025-09-05 14:33:14*
G04 Gerber Generator version 0.3*
G04 Scale: 100 percent, Rotated: No, Reflected: No*
G04 Dimensions in millimeters*
G04 Leading zeros omitted, absolute positions, 3 integers and 5 decimals*
%FSLAX35Y35*%
%MOMM*%
%ADD10C,0.12*%
%ADD11C,0.1524*%
%ADD12C,0.1*%
%ADD13C,0.254*%
G75*


G04 Text Start*
G36*
G01X3489581Y4236989D02*
G01X3486247Y4238201D01*
G01X3483217Y4239716D01*
G01X3478975Y4242746D01*
G01X3476853Y4244565D01*
G01X3473217Y4248201D01*
G01X3471399Y4250625D01*
G01X3470187Y4252140D01*
G01X3467762Y4255777D01*
G01X3466550Y4257898D01*
G01X3463520Y4263959D01*
G01X3462308Y4266686D01*
G01X3461096Y4269716D01*
G01X3460187Y4272444D01*
G01X3459278Y4276080D01*
G01X3458368Y4279110D01*
G01X3457156Y4285777D01*
G01X3456550Y4290019D01*
G01X3456255Y4301837D01*
G01X3475035Y4301837D01*
G01X3475338Y4290019D01*
G01X3475641Y4286686D01*
G01X3475944Y4282141D01*
G01X3477156Y4273656D01*
G01X3477762Y4270625D01*
G01X3478975Y4265171D01*
G01X3479581Y4262747D01*
G01X3481399Y4257292D01*
G01X3482308Y4254868D01*
G01X3483520Y4252443D01*
G01X3485035Y4249716D01*
G01X3487156Y4246989D01*
G01X3489884Y4244262D01*
G01X3492914Y4242746D01*
G01X3494732Y4242140D01*
G01X3497156Y4241837D01*
G01X3497156Y4241837D01*
G01X3500793Y4242140D01*
G01X3503823Y4243049D01*
G01X3506247Y4244262D01*
G01X3508066Y4245474D01*
G01X3511096Y4247898D01*
G01X3512611Y4249716D01*
G01X3514126Y4252140D01*
G01X3515641Y4254868D01*
G01X3516853Y4258201D01*
G01X3518066Y4262140D01*
G01X3518975Y4265171D01*
G01X3520187Y4271838D01*
G01X3520793Y4276080D01*
G01X3521399Y4282141D01*
G01X3522005Y4290625D01*
G01X3522308Y4306080D01*
G01X3522005Y4321534D01*
G01X3521702Y4323959D01*
G01X3521399Y4328201D01*
G01X3520793Y4332443D01*
G01X3519581Y4339716D01*
G01X3518672Y4343353D01*
G01X3517763Y4346383D01*
G01X3517157Y4348807D01*
G01X3516247Y4351534D01*
G01X3515035Y4354262D01*
G01X3513520Y4357292D01*
G01X3512005Y4359413D01*
G01X3510793Y4361231D01*
G01X3509278Y4363050D01*
G01X3507762Y4364262D01*
G01X3505338Y4365474D01*
G01X3502611Y4366383D01*
G01X3499581Y4366686D01*
G01X3495338Y4366080D01*
G01X3491702Y4364565D01*
G01X3489581Y4363050D01*
G01X3488065Y4361837D01*
G01X3486550Y4360322D01*
G01X3485035Y4358201D01*
G01X3483520Y4355777D01*
G01X3482308Y4353352D01*
G01X3481096Y4350322D01*
G01X3478975Y4343959D01*
G01X3477762Y4337898D01*
G01X3477156Y4333050D01*
G01X3476550Y4328807D01*
G01X3475944Y4322140D01*
G01X3475338Y4313656D01*
G01X3475035Y4301837D01*
G01X3456255Y4301837D01*
G01X3456247Y4302140D01*
G01X3456550Y4314262D01*
G01X3456853Y4316383D01*
G01X3457156Y4319110D01*
G01X3457762Y4323353D01*
G01X3458672Y4328201D01*
G01X3459581Y4331231D01*
G01X3460187Y4333959D01*
G01X3461096Y4336989D01*
G01X3462308Y4340019D01*
G01X3463520Y4343353D01*
G01X3467459Y4351231D01*
G01X3469278Y4353959D01*
G01X3470490Y4356080D01*
G01X3471702Y4357595D01*
G01X3473823Y4359716D01*
G01X3475641Y4362140D01*
G01X3479278Y4365171D01*
G01X3481399Y4366989D01*
G01X3484429Y4368807D01*
G01X3487156Y4370322D01*
G01X3490187Y4371534D01*
G01X3492914Y4372444D01*
G01X3498065Y4372747D01*
G01X3503217Y4372444D01*
G01X3505944Y4371838D01*
G01X3508975Y4370928D01*
G01X3511702Y4369716D01*
G01X3513823Y4368504D01*
G01X3515641Y4367595D01*
G01X3517460Y4366383D01*
G01X3520490Y4363959D01*
G01X3523520Y4360928D01*
G01X3527157Y4356383D01*
G01X3528672Y4354262D01*
G01X3530490Y4351534D01*
G01X3532005Y4348807D01*
G01X3534429Y4343959D01*
G01X3535641Y4340928D01*
G01X3536853Y4337595D01*
G01X3538066Y4333656D01*
G01X3538975Y4330625D01*
G01X3540187Y4323959D01*
G01X3540793Y4319110D01*
G01X3541399Y4309413D01*
G01X3541702Y4306686D01*
G01X3541399Y4303959D01*
G01X3540793Y4293050D01*
G01X3540187Y4288201D01*
G01X3539581Y4283959D01*
G01X3538975Y4280928D01*
G01X3538066Y4276686D01*
G01X3536853Y4272747D01*
G01X3535641Y4269110D01*
G01X3534429Y4265777D01*
G01X3530490Y4257898D01*
G01X3528672Y4254868D01*
G01X3526550Y4251837D01*
G01X3524732Y4249413D01*
G01X3520187Y4244868D01*
G01X3518672Y4243655D01*
G01X3514429Y4240625D01*
G01X3512308Y4239413D01*
G01X3509581Y4238201D01*
G01X3506247Y4236989D01*
G01X3503217Y4236080D01*
G01X3497459Y4235777D01*
G01X3492005Y4236080D01*
G01X3489581Y4236989D01*
G37*
G36*
G01X3353444Y4241534D02*
G01X3354126Y4242443D01*
G01X3355641Y4243958D01*
G01X3359884Y4247595D01*
G01X3365944Y4253656D01*
G01X3370187Y4257292D01*
G01X3377762Y4264868D01*
G01X3380793Y4268504D01*
G01X3386853Y4274565D01*
G01X3390490Y4278807D01*
G01X3392005Y4280322D01*
G01X3395641Y4284868D01*
G01X3397459Y4286989D01*
G01X3399278Y4289413D01*
G01X3403823Y4295777D01*
G01X3405338Y4298201D01*
G01X3406550Y4300019D01*
G01X3407762Y4302140D01*
G01X3410187Y4306989D01*
G01X3411399Y4309716D01*
G01X3412611Y4312747D01*
G01X3414732Y4319110D01*
G01X3415338Y4323353D01*
G01X3415641Y4327595D01*
G01X3415338Y4331837D01*
G01X3414732Y4336080D01*
G01X3414126Y4338807D01*
G01X3413217Y4341534D01*
G01X3412005Y4343959D01*
G01X3410793Y4346080D01*
G01X3409581Y4347898D01*
G01X3408066Y4349716D01*
G01X3405035Y4352746D01*
G01X3403520Y4353959D01*
G01X3401399Y4355171D01*
G01X3398671Y4356383D01*
G01X3395641Y4357292D01*
G01X3392914Y4357898D01*
G01X3390187Y4358201D01*
G01X3386247Y4357898D01*
G01X3383217Y4357292D01*
G01X3380490Y4356686D01*
G01X3377762Y4355777D01*
G01X3375338Y4354565D01*
G01X3372611Y4353049D01*
G01X3370490Y4351534D01*
G01X3367459Y4348504D01*
G01X3365641Y4346383D01*
G01X3364126Y4344262D01*
G01X3362914Y4342140D01*
G01X3361702Y4339413D01*
G01X3360793Y4336989D01*
G01X3360111Y4336080D01*
G01X3358671Y4335777D01*
G01X3357384Y4336004D01*
G01X3357156Y4336686D01*
G01X3357762Y4339716D01*
G01X3358671Y4343656D01*
G01X3359581Y4346383D01*
G01X3360187Y4348504D01*
G01X3361096Y4350625D01*
G01X3363823Y4356080D01*
G01X3365338Y4358201D01*
G01X3366550Y4360019D01*
G01X3368065Y4361837D01*
G01X3371096Y4364868D01*
G01X3372611Y4366080D01*
G01X3374429Y4367292D01*
G01X3376853Y4368807D01*
G01X3379277Y4370019D01*
G01X3381702Y4370928D01*
G01X3384429Y4371838D01*
G01X3386853Y4372444D01*
G01X3392914Y4372747D01*
G01X3400187Y4372444D01*
G01X3403217Y4371838D01*
G01X3405944Y4371231D01*
G01X3408975Y4370322D01*
G01X3411702Y4369110D01*
G01X3414732Y4367595D01*
G01X3416853Y4366080D01*
G01X3418672Y4364868D01*
G01X3420490Y4363353D01*
G01X3424126Y4359716D01*
G01X3425944Y4357292D01*
G01X3427459Y4355171D01*
G01X3428975Y4352443D01*
G01X3430187Y4349716D01*
G01X3431096Y4346989D01*
G01X3431702Y4344565D01*
G01X3432005Y4338807D01*
G01X3431702Y4333050D01*
G01X3431399Y4330625D01*
G01X3430793Y4327898D01*
G01X3429884Y4324868D01*
G01X3428975Y4322140D01*
G01X3427156Y4317898D01*
G01X3425944Y4315474D01*
G01X3423520Y4311231D01*
G01X3422005Y4308504D01*
G01X3418975Y4303656D01*
G01X3417460Y4301534D01*
G01X3413823Y4296686D01*
G01X3412611Y4295171D01*
G01X3411399Y4293353D01*
G01X3409884Y4291534D01*
G01X3407762Y4289413D01*
G01X3405944Y4286989D01*
G01X3404429Y4285474D01*
G01X3402005Y4282444D01*
G01X3396853Y4277292D01*
G01X3395035Y4274868D01*
G01X3388368Y4268201D01*
G01X3386550Y4265777D01*
G01X3375944Y4255171D01*
G01X3374732Y4253656D01*
G01X3380035Y4252974D01*
G01X3396550Y4252746D01*
G01X3420187Y4253049D01*
G01X3423217Y4253656D01*
G01X3425641Y4254262D01*
G01X3428066Y4255171D01*
G01X3430490Y4256383D01*
G01X3432308Y4257595D01*
G01X3434429Y4259716D01*
G01X3435944Y4262140D01*
G01X3436702Y4262822D01*
G01X3438369Y4263050D01*
G01X3439808Y4262898D01*
G01X3439884Y4262443D01*
G01X3438975Y4260322D01*
G01X3438066Y4257595D01*
G01X3436853Y4254565D01*
G01X3435641Y4250928D01*
G01X3434429Y4247898D01*
G01X3433520Y4245171D01*
G01X3432611Y4242746D01*
G01X3431702Y4240019D01*
G01X3431399Y4238201D01*
G01X3353217Y4238201D01*
G01X3353217Y4240019D01*
G01X3353444Y4241534D01*
G37*
G36*
G01X3553444Y4241534D02*
G01X3554126Y4242443D01*
G01X3555641Y4243958D01*
G01X3559884Y4247595D01*
G01X3565944Y4253656D01*
G01X3570187Y4257292D01*
G01X3577762Y4264868D01*
G01X3580793Y4268504D01*
G01X3586853Y4274565D01*
G01X3590490Y4278807D01*
G01X3592005Y4280322D01*
G01X3595641Y4284868D01*
G01X3597459Y4286989D01*
G01X3599278Y4289413D01*
G01X3603823Y4295777D01*
G01X3605338Y4298201D01*
G01X3606550Y4300019D01*
G01X3607762Y4302140D01*
G01X3610187Y4306989D01*
G01X3611399Y4309716D01*
G01X3612611Y4312747D01*
G01X3614732Y4319110D01*
G01X3615338Y4323353D01*
G01X3615641Y4327595D01*
G01X3615338Y4331837D01*
G01X3614732Y4336080D01*
G01X3614126Y4338807D01*
G01X3613217Y4341534D01*
G01X3612005Y4343959D01*
G01X3610793Y4346080D01*
G01X3609581Y4347898D01*
G01X3608066Y4349716D01*
G01X3605035Y4352746D01*
G01X3603520Y4353959D01*
G01X3601399Y4355171D01*
G01X3598671Y4356383D01*
G01X3595641Y4357292D01*
G01X3592914Y4357898D01*
G01X3590187Y4358201D01*
G01X3586247Y4357898D01*
G01X3583217Y4357292D01*
G01X3580490Y4356686D01*
G01X3577762Y4355777D01*
G01X3575338Y4354565D01*
G01X3572611Y4353049D01*
G01X3570490Y4351534D01*
G01X3567459Y4348504D01*
G01X3565641Y4346383D01*
G01X3564126Y4344262D01*
G01X3562914Y4342140D01*
G01X3561702Y4339413D01*
G01X3560793Y4336989D01*
G01X3560111Y4336080D01*
G01X3558672Y4335777D01*
G01X3557384Y4336004D01*
G01X3557156Y4336686D01*
G01X3557763Y4339716D01*
G01X3558672Y4343656D01*
G01X3559581Y4346383D01*
G01X3560187Y4348504D01*
G01X3561096Y4350625D01*
G01X3563823Y4356080D01*
G01X3565338Y4358201D01*
G01X3566550Y4360019D01*
G01X3568066Y4361837D01*
G01X3571096Y4364868D01*
G01X3572611Y4366080D01*
G01X3574429Y4367292D01*
G01X3576853Y4368807D01*
G01X3579278Y4370019D01*
G01X3581702Y4370928D01*
G01X3584429Y4371838D01*
G01X3586853Y4372444D01*
G01X3592914Y4372747D01*
G01X3600187Y4372444D01*
G01X3603217Y4371838D01*
G01X3605944Y4371231D01*
G01X3608975Y4370322D01*
G01X3611702Y4369110D01*
G01X3614732Y4367595D01*
G01X3616853Y4366080D01*
G01X3618672Y4364868D01*
G01X3620490Y4363353D01*
G01X3624126Y4359716D01*
G01X3625944Y4357292D01*
G01X3627460Y4355171D01*
G01X3628975Y4352443D01*
G01X3630187Y4349716D01*
G01X3631096Y4346989D01*
G01X3631702Y4344565D01*
G01X3632005Y4338807D01*
G01X3631702Y4333050D01*
G01X3631399Y4330625D01*
G01X3630793Y4327898D01*
G01X3629884Y4324868D01*
G01X3628975Y4322140D01*
G01X3627157Y4317898D01*
G01X3625944Y4315474D01*
G01X3623520Y4311231D01*
G01X3622005Y4308504D01*
G01X3618975Y4303656D01*
G01X3617460Y4301534D01*
G01X3613823Y4296686D01*
G01X3612611Y4295171D01*
G01X3611399Y4293353D01*
G01X3609884Y4291534D01*
G01X3607762Y4289413D01*
G01X3605944Y4286989D01*
G01X3604429Y4285474D01*
G01X3602005Y4282444D01*
G01X3596853Y4277292D01*
G01X3595035Y4274868D01*
G01X3588368Y4268201D01*
G01X3586550Y4265777D01*
G01X3575944Y4255171D01*
G01X3574732Y4253656D01*
G01X3580035Y4252974D01*
G01X3596550Y4252746D01*
G01X3620187Y4253049D01*
G01X3623217Y4253656D01*
G01X3625641Y4254262D01*
G01X3628066Y4255171D01*
G01X3630490Y4256383D01*
G01X3632308Y4257595D01*
G01X3634429Y4259716D01*
G01X3635944Y4262140D01*
G01X3636702Y4262822D01*
G01X3638369Y4263050D01*
G01X3639808Y4262898D01*
G01X3639884Y4262443D01*
G01X3638975Y4260322D01*
G01X3638066Y4257595D01*
G01X3636854Y4254565D01*
G01X3635641Y4250928D01*
G01X3634429Y4247898D01*
G01X3633520Y4245171D01*
G01X3632611Y4242746D01*
G01X3631702Y4240019D01*
G01X3631399Y4238201D01*
G01X3553217Y4238201D01*
G01X3553217Y4240019D01*
G01X3553444Y4241534D01*
G37*
G36*
G01X4071096Y4236686D02*
G01X4067763Y4237595D01*
G01X4065339Y4238807D01*
G01X4063520Y4240019D01*
G01X4062005Y4241231D01*
G01X4060490Y4242746D01*
G01X4059278Y4244565D01*
G01X4058672Y4247595D01*
G01X4059278Y4251231D01*
G01X4060793Y4253352D01*
G01X4062308Y4254565D01*
G01X4065036Y4255171D01*
G01X4068672Y4254868D01*
G01X4071399Y4253959D01*
G01X4073520Y4252746D01*
G01X4075945Y4251231D01*
G01X4078066Y4249716D01*
G01X4080187Y4248504D01*
G01X4082914Y4247292D01*
G01X4085642Y4246383D01*
G01X4088066Y4245777D01*
G01X4090793Y4245474D01*
G01X4093520Y4245777D01*
G01X4097763Y4246383D01*
G01X4100187Y4246989D01*
G01X4102611Y4247898D01*
G01X4105035Y4249110D01*
G01X4108066Y4250928D01*
G01X4110490Y4252746D01*
G01X4113520Y4255777D01*
G01X4115338Y4257898D01*
G01X4116854Y4260322D01*
G01X4118066Y4262443D01*
G01X4119278Y4265474D01*
G01X4120187Y4268201D01*
G01X4120490Y4273959D01*
G01X4120187Y4280322D01*
G01X4119581Y4282747D01*
G01X4118975Y4285474D01*
G01X4118066Y4288201D01*
G01X4117157Y4290322D01*
G01X4115945Y4293050D01*
G01X4114126Y4295777D01*
G01X4112914Y4297898D01*
G01X4111702Y4299413D01*
G01X4105035Y4306080D01*
G01X4102005Y4308201D01*
G01X4099884Y4309716D01*
G01X4097763Y4310928D01*
G01X4092914Y4313353D01*
G01X4089581Y4314565D01*
G01X4085945Y4315777D01*
G01X4082611Y4316686D01*
G01X4080187Y4317292D01*
G01X4075339Y4317898D01*
G01X4069278Y4318504D01*
G01X4065642Y4318807D01*
G01X4062914Y4318807D01*
G01X4063520Y4320019D01*
G01X4064733Y4322140D01*
G01X4065945Y4324565D01*
G01X4068369Y4330019D01*
G01X4087763Y4368807D01*
G01X4088369Y4370322D01*
G01X4111702Y4370322D01*
G01X4129126Y4370095D01*
G01X4134732Y4369413D01*
G01X4133823Y4367292D01*
G01X4132611Y4364565D01*
G01X4131399Y4362140D01*
G01X4129581Y4357898D01*
G01X4128369Y4355474D01*
G01X4127763Y4353959D01*
G01X4108369Y4353959D01*
G01X4088066Y4353352D01*
G01X4086551Y4351231D01*
G01X4080490Y4339110D01*
G01X4079581Y4336989D01*
G01X4079808Y4336004D01*
G01X4081096Y4335474D01*
G01X4086551Y4334262D01*
G01X4090490Y4333353D01*
G01X4094429Y4332140D01*
G01X4097763Y4330928D01*
G01X4100793Y4329716D01*
G01X4105642Y4327292D01*
G01X4108369Y4325777D01*
G01X4111096Y4323959D01*
G01X4115338Y4320928D01*
G01X4117460Y4319110D01*
G01X4123520Y4313050D01*
G01X4124732Y4311534D01*
G01X4127157Y4307898D01*
G01X4128369Y4305777D01*
G01X4129581Y4303353D01*
G01X4130490Y4300928D01*
G01X4131399Y4298201D01*
G01X4132308Y4294868D01*
G01X4132914Y4291837D01*
G01X4133217Y4287292D01*
G01X4132914Y4280928D01*
G01X4132308Y4277292D01*
G01X4131702Y4274262D01*
G01X4130793Y4270928D01*
G01X4129581Y4267898D01*
G01X4128369Y4265171D01*
G01X4127157Y4263050D01*
G01X4125641Y4260322D01*
G01X4124126Y4258201D01*
G01X4122914Y4256383D01*
G01X4121399Y4254565D01*
G01X4114732Y4247898D01*
G01X4112308Y4246080D01*
G01X4110187Y4244565D01*
G01X4107763Y4243049D01*
G01X4105642Y4241837D01*
G01X4103217Y4240625D01*
G01X4100187Y4239413D01*
G01X4096854Y4238201D01*
G01X4094126Y4237292D01*
G01X4088066Y4236080D01*
G01X4080490Y4235777D01*
G01X4073520Y4236080D01*
G01X4071096Y4236686D01*
G37*
G36*
G01X3859581Y4238352D02*
G01X3860490Y4238807D01*
G01X3863823Y4239110D01*
G01X3867460Y4239716D01*
G01X3870490Y4240322D01*
G01X3875338Y4241534D01*
G01X3877763Y4242443D01*
G01X3880490Y4243655D01*
G01X3883823Y4245171D01*
G01X3886551Y4246989D01*
G01X3888975Y4248504D01*
G01X3894429Y4253049D01*
G01X3897460Y4256080D01*
G01X3898672Y4257595D01*
G01X3900490Y4259716D01*
G01X3904126Y4264565D01*
G01X3906247Y4267595D01*
G01X3907763Y4270019D01*
G01X3910187Y4274262D01*
G01X3912611Y4279110D01*
G01X3913823Y4281838D01*
G01X3915035Y4284868D01*
G01X3915944Y4287292D01*
G01X3916853Y4290322D01*
G01X3917763Y4293050D01*
G01X3917763Y4294868D01*
G01X3917384Y4295398D01*
G01X3916853Y4295171D01*
G01X3914732Y4293959D01*
G01X3912005Y4292444D01*
G01X3909581Y4291231D01*
G01X3907460Y4290322D01*
G01X3904732Y4289110D01*
G01X3898369Y4286989D01*
G01X3894126Y4286383D01*
G01X3890793Y4286080D01*
G01X3887460Y4286383D01*
G01X3884429Y4286989D01*
G01X3880490Y4287898D01*
G01X3877157Y4289110D01*
G01X3874429Y4290625D01*
G01X3872005Y4292141D01*
G01X3870187Y4293656D01*
G01X3865641Y4298201D01*
G01X3863823Y4300322D01*
G01X3862005Y4303050D01*
G01X3860490Y4305777D01*
G01X3859278Y4308807D01*
G01X3858369Y4311231D01*
G01X3857157Y4316686D01*
G01X3856854Y4323959D01*
G01X3857157Y4331837D01*
G01X3857763Y4335474D01*
G01X3857893Y4336080D01*
G01X3873823Y4336080D01*
G01X3874126Y4330625D01*
G01X3874732Y4324565D01*
G01X3875035Y4322443D01*
G01X3875641Y4319110D01*
G01X3876854Y4314868D01*
G01X3878066Y4311534D01*
G01X3879278Y4308807D01*
G01X3880793Y4306080D01*
G01X3882005Y4303959D01*
G01X3883217Y4302444D01*
G01X3886247Y4299413D01*
G01X3888672Y4297595D01*
G01X3892005Y4296080D01*
G01X3894126Y4295474D01*
G01X3897157Y4295171D01*
G01X3897157Y4295171D01*
G01X3902005Y4295474D01*
G01X3905035Y4296080D01*
G01X3907460Y4296686D01*
G01X3909884Y4297595D01*
G01X3912611Y4298807D01*
G01X3915641Y4300322D01*
G01X3917763Y4301534D01*
G01X3919278Y4302747D01*
G01X3920187Y4304565D01*
G01X3920793Y4310019D01*
G01X3921399Y4317292D01*
G01X3921702Y4321837D01*
G01X3921399Y4326383D01*
G01X3921096Y4328807D01*
G01X3920793Y4332443D01*
G01X3920187Y4335474D01*
G01X3919581Y4338807D01*
G01X3918672Y4342443D01*
G01X3916853Y4347898D01*
G01X3914429Y4353352D01*
G01X3913217Y4355474D01*
G01X3911702Y4357898D01*
G01X3909884Y4360019D01*
G01X3906854Y4363050D01*
G01X3905035Y4364262D01*
G01X3902914Y4365171D01*
G01X3900490Y4366080D01*
G01X3897157Y4366686D01*
G01X3892914Y4366383D01*
G01X3889278Y4365474D01*
G01X3886854Y4364262D01*
G01X3884732Y4363050D01*
G01X3882914Y4361534D01*
G01X3879884Y4358504D01*
G01X3878369Y4356383D01*
G01X3877157Y4353959D01*
G01X3876248Y4351534D01*
G01X3875338Y4348807D01*
G01X3874732Y4346383D01*
G01X3874126Y4341534D01*
G01X3873823Y4336080D01*
G01X3857893Y4336080D01*
G01X3858672Y4339716D01*
G01X3859884Y4343353D01*
G01X3861096Y4346383D01*
G01X3863520Y4351231D01*
G01X3865035Y4353959D01*
G01X3866551Y4356080D01*
G01X3871399Y4362140D01*
G01X3872914Y4363656D01*
G01X3875944Y4366080D01*
G01X3880793Y4369110D01*
G01X3882914Y4370019D01*
G01X3885338Y4370928D01*
G01X3888066Y4371838D01*
G01X3890490Y4372444D01*
G01X3895641Y4372747D01*
G01X3902611Y4372444D01*
G01X3907460Y4371534D01*
G01X3910793Y4370322D01*
G01X3913520Y4369110D01*
G01X3916247Y4367595D01*
G01X3918672Y4366080D01*
G01X3920490Y4364565D01*
G01X3926551Y4358504D01*
G01X3927763Y4356989D01*
G01X3930793Y4352746D01*
G01X3932005Y4350625D01*
G01X3934429Y4345777D01*
G01X3935642Y4343049D01*
G01X3937460Y4337595D01*
G01X3938369Y4334565D01*
G01X3938975Y4331837D01*
G01X3939581Y4326989D01*
G01X3939884Y4320019D01*
G01X3939581Y4311231D01*
G01X3938975Y4306383D01*
G01X3938369Y4302747D01*
G01X3937763Y4300322D01*
G01X3937157Y4297595D01*
G01X3936248Y4293959D01*
G01X3935035Y4290322D01*
G01X3933823Y4287292D01*
G01X3932611Y4284565D01*
G01X3928672Y4276686D01*
G01X3926854Y4273656D01*
G01X3924732Y4270625D01*
G01X3923217Y4268201D01*
G01X3922005Y4266686D01*
G01X3918369Y4262443D01*
G01X3909581Y4253656D01*
G01X3906550Y4251231D01*
G01X3904429Y4249413D01*
G01X3901399Y4247292D01*
G01X3896854Y4244262D01*
G01X3894732Y4243049D01*
G01X3889884Y4240625D01*
G01X3887157Y4239413D01*
G01X3881702Y4237595D01*
G01X3878369Y4236686D01*
G01X3875338Y4236080D01*
G01X3870490Y4235474D01*
G01X3864429Y4235171D01*
G01X3859278Y4235171D01*
G01X3859278Y4236989D01*
G01X3859581Y4238352D01*
G37*
G36*
G01X3989581Y4236989D02*
G01X3986248Y4238201D01*
G01X3983217Y4239716D01*
G01X3978975Y4242746D01*
G01X3976854Y4244565D01*
G01X3973217Y4248201D01*
G01X3971399Y4250625D01*
G01X3970187Y4252140D01*
G01X3967763Y4255777D01*
G01X3966551Y4257898D01*
G01X3963520Y4263959D01*
G01X3962308Y4266686D01*
G01X3961096Y4269716D01*
G01X3960187Y4272444D01*
G01X3959278Y4276080D01*
G01X3958369Y4279110D01*
G01X3957157Y4285777D01*
G01X3956551Y4290019D01*
G01X3956255Y4301837D01*
G01X3975035Y4301837D01*
G01X3975339Y4290019D01*
G01X3975642Y4286686D01*
G01X3975945Y4282141D01*
G01X3977157Y4273656D01*
G01X3977763Y4270625D01*
G01X3978975Y4265171D01*
G01X3979581Y4262747D01*
G01X3981399Y4257292D01*
G01X3982308Y4254868D01*
G01X3983520Y4252443D01*
G01X3985035Y4249716D01*
G01X3987157Y4246989D01*
G01X3989884Y4244262D01*
G01X3992914Y4242746D01*
G01X3994732Y4242140D01*
G01X3997157Y4241837D01*
G01X3997157Y4241837D01*
G01X4000793Y4242140D01*
G01X4003823Y4243049D01*
G01X4006248Y4244262D01*
G01X4008066Y4245474D01*
G01X4011096Y4247898D01*
G01X4012611Y4249716D01*
G01X4014126Y4252140D01*
G01X4015641Y4254868D01*
G01X4016854Y4258201D01*
G01X4018066Y4262140D01*
G01X4018975Y4265171D01*
G01X4020187Y4271838D01*
G01X4020793Y4276080D01*
G01X4021399Y4282141D01*
G01X4022005Y4290625D01*
G01X4022308Y4306080D01*
G01X4022005Y4321534D01*
G01X4021702Y4323959D01*
G01X4021399Y4328201D01*
G01X4020793Y4332443D01*
G01X4019581Y4339716D01*
G01X4018672Y4343353D01*
G01X4017763Y4346383D01*
G01X4017157Y4348807D01*
G01X4016247Y4351534D01*
G01X4015035Y4354262D01*
G01X4013520Y4357292D01*
G01X4012005Y4359413D01*
G01X4010793Y4361231D01*
G01X4009278Y4363050D01*
G01X4007763Y4364262D01*
G01X4005338Y4365474D01*
G01X4002611Y4366383D01*
G01X3999581Y4366686D01*
G01X3995338Y4366080D01*
G01X3991702Y4364565D01*
G01X3989581Y4363050D01*
G01X3988066Y4361837D01*
G01X3986551Y4360322D01*
G01X3985035Y4358201D01*
G01X3983520Y4355777D01*
G01X3982308Y4353352D01*
G01X3981096Y4350322D01*
G01X3978975Y4343959D01*
G01X3977763Y4337898D01*
G01X3977157Y4333050D01*
G01X3976551Y4328807D01*
G01X3975945Y4322140D01*
G01X3975339Y4313656D01*
G01X3975035Y4301837D01*
G01X3956255Y4301837D01*
G01X3956248Y4302140D01*
G01X3956551Y4314262D01*
G01X3956854Y4316383D01*
G01X3957157Y4319110D01*
G01X3957763Y4323353D01*
G01X3958672Y4328201D01*
G01X3959581Y4331231D01*
G01X3960187Y4333959D01*
G01X3961096Y4336989D01*
G01X3962308Y4340019D01*
G01X3963520Y4343353D01*
G01X3967460Y4351231D01*
G01X3969278Y4353959D01*
G01X3970490Y4356080D01*
G01X3971702Y4357595D01*
G01X3973823Y4359716D01*
G01X3975642Y4362140D01*
G01X3979278Y4365171D01*
G01X3981399Y4366989D01*
G01X3984429Y4368807D01*
G01X3987157Y4370322D01*
G01X3990187Y4371534D01*
G01X3992914Y4372444D01*
G01X3998066Y4372747D01*
G01X4003217Y4372444D01*
G01X4005944Y4371838D01*
G01X4008975Y4370928D01*
G01X4011702Y4369716D01*
G01X4013823Y4368504D01*
G01X4015641Y4367595D01*
G01X4017460Y4366383D01*
G01X4020490Y4363959D01*
G01X4023520Y4360928D01*
G01X4027157Y4356383D01*
G01X4028672Y4354262D01*
G01X4030490Y4351534D01*
G01X4032005Y4348807D01*
G01X4034429Y4343959D01*
G01X4035642Y4340928D01*
G01X4036854Y4337595D01*
G01X4038066Y4333656D01*
G01X4038975Y4330625D01*
G01X4040187Y4323959D01*
G01X4040793Y4319110D01*
G01X4041399Y4309413D01*
G01X4041702Y4306686D01*
G01X4041399Y4303959D01*
G01X4040793Y4293050D01*
G01X4040187Y4288201D01*
G01X4039581Y4283959D01*
G01X4038975Y4280928D01*
G01X4038066Y4276686D01*
G01X4036854Y4272747D01*
G01X4035642Y4269110D01*
G01X4034429Y4265777D01*
G01X4030490Y4257898D01*
G01X4028672Y4254868D01*
G01X4026551Y4251837D01*
G01X4024732Y4249413D01*
G01X4020187Y4244868D01*
G01X4018672Y4243655D01*
G01X4014429Y4240625D01*
G01X4012308Y4239413D01*
G01X4009581Y4238201D01*
G01X4006248Y4236989D01*
G01X4003217Y4236080D01*
G01X3997460Y4235777D01*
G01X3992005Y4236080D01*
G01X3989581Y4236989D01*
G37*
G36*
G01X3671096Y4236686D02*
G01X3667763Y4237595D01*
G01X3665338Y4238807D01*
G01X3663520Y4240019D01*
G01X3662005Y4241231D01*
G01X3660490Y4242746D01*
G01X3659278Y4244565D01*
G01X3658672Y4247595D01*
G01X3659278Y4251231D01*
G01X3660793Y4253352D01*
G01X3662308Y4254565D01*
G01X3665035Y4255171D01*
G01X3668672Y4254868D01*
G01X3671399Y4253959D01*
G01X3673520Y4252746D01*
G01X3675944Y4251231D01*
G01X3678066Y4249716D01*
G01X3680187Y4248504D01*
G01X3682914Y4247292D01*
G01X3685641Y4246383D01*
G01X3688066Y4245777D01*
G01X3690793Y4245474D01*
G01X3693520Y4245777D01*
G01X3697762Y4246383D01*
G01X3700187Y4246989D01*
G01X3702611Y4247898D01*
G01X3705035Y4249110D01*
G01X3708066Y4250928D01*
G01X3710490Y4252746D01*
G01X3713520Y4255777D01*
G01X3715338Y4257898D01*
G01X3716853Y4260322D01*
G01X3718066Y4262443D01*
G01X3719278Y4265474D01*
G01X3720187Y4268201D01*
G01X3720490Y4273959D01*
G01X3720187Y4280322D01*
G01X3719581Y4282747D01*
G01X3718975Y4285474D01*
G01X3718066Y4288201D01*
G01X3717157Y4290322D01*
G01X3715944Y4293050D01*
G01X3714126Y4295777D01*
G01X3712914Y4297898D01*
G01X3711702Y4299413D01*
G01X3705035Y4306080D01*
G01X3702005Y4308201D01*
G01X3699884Y4309716D01*
G01X3697762Y4310928D01*
G01X3692914Y4313353D01*
G01X3689581Y4314565D01*
G01X3685944Y4315777D01*
G01X3682611Y4316686D01*
G01X3680187Y4317292D01*
G01X3675338Y4317898D01*
G01X3669278Y4318504D01*
G01X3665641Y4318807D01*
G01X3662914Y4318807D01*
G01X3663520Y4320019D01*
G01X3664732Y4322140D01*
G01X3665944Y4324565D01*
G01X3668369Y4330019D01*
G01X3687763Y4368807D01*
G01X3688369Y4370322D01*
G01X3711702Y4370322D01*
G01X3729126Y4370095D01*
G01X3734732Y4369413D01*
G01X3733823Y4367292D01*
G01X3732611Y4364565D01*
G01X3731399Y4362140D01*
G01X3729581Y4357898D01*
G01X3728369Y4355474D01*
G01X3727763Y4353959D01*
G01X3708369Y4353959D01*
G01X3688066Y4353352D01*
G01X3686550Y4351231D01*
G01X3680490Y4339110D01*
G01X3679581Y4336989D01*
G01X3679808Y4336004D01*
G01X3681096Y4335474D01*
G01X3686550Y4334262D01*
G01X3690490Y4333353D01*
G01X3694429Y4332140D01*
G01X3697762Y4330928D01*
G01X3700793Y4329716D01*
G01X3705641Y4327292D01*
G01X3708369Y4325777D01*
G01X3711096Y4323959D01*
G01X3715338Y4320928D01*
G01X3717460Y4319110D01*
G01X3723520Y4313050D01*
G01X3724732Y4311534D01*
G01X3727157Y4307898D01*
G01X3728369Y4305777D01*
G01X3729581Y4303353D01*
G01X3730490Y4300928D01*
G01X3731399Y4298201D01*
G01X3732308Y4294868D01*
G01X3732914Y4291837D01*
G01X3733217Y4287292D01*
G01X3732914Y4280928D01*
G01X3732308Y4277292D01*
G01X3731702Y4274262D01*
G01X3730793Y4270928D01*
G01X3729581Y4267898D01*
G01X3728369Y4265171D01*
G01X3727157Y4263050D01*
G01X3725641Y4260322D01*
G01X3724126Y4258201D01*
G01X3722914Y4256383D01*
G01X3721399Y4254565D01*
G01X3714732Y4247898D01*
G01X3712308Y4246080D01*
G01X3710187Y4244565D01*
G01X3707762Y4243049D01*
G01X3705641Y4241837D01*
G01X3703217Y4240625D01*
G01X3700187Y4239413D01*
G01X3696853Y4238201D01*
G01X3694126Y4237292D01*
G01X3688066Y4236080D01*
G01X3680490Y4235777D01*
G01X3673520Y4236080D01*
G01X3671096Y4236686D01*
G37*
G36*
G01X3789581Y4236989D02*
G01X3786247Y4238201D01*
G01X3783217Y4239716D01*
G01X3778975Y4242746D01*
G01X3776854Y4244565D01*
G01X3773217Y4248201D01*
G01X3771399Y4250625D01*
G01X3770187Y4252140D01*
G01X3767763Y4255777D01*
G01X3766551Y4257898D01*
G01X3763520Y4263959D01*
G01X3762308Y4266686D01*
G01X3761096Y4269716D01*
G01X3760187Y4272444D01*
G01X3759278Y4276080D01*
G01X3758369Y4279110D01*
G01X3757157Y4285777D01*
G01X3756551Y4290019D01*
G01X3756255Y4301837D01*
G01X3775035Y4301837D01*
G01X3775338Y4290019D01*
G01X3775641Y4286686D01*
G01X3775944Y4282141D01*
G01X3777157Y4273656D01*
G01X3777763Y4270625D01*
G01X3778975Y4265171D01*
G01X3779581Y4262747D01*
G01X3781399Y4257292D01*
G01X3782308Y4254868D01*
G01X3783520Y4252443D01*
G01X3785035Y4249716D01*
G01X3787157Y4246989D01*
G01X3789884Y4244262D01*
G01X3792914Y4242746D01*
G01X3794732Y4242140D01*
G01X3797156Y4241837D01*
G01X3797156Y4241837D01*
G01X3800793Y4242140D01*
G01X3803823Y4243049D01*
G01X3806247Y4244262D01*
G01X3808066Y4245474D01*
G01X3811096Y4247898D01*
G01X3812611Y4249716D01*
G01X3814126Y4252140D01*
G01X3815641Y4254868D01*
G01X3816853Y4258201D01*
G01X3818066Y4262140D01*
G01X3818975Y4265171D01*
G01X3820187Y4271838D01*
G01X3820793Y4276080D01*
G01X3821399Y4282141D01*
G01X3822005Y4290625D01*
G01X3822308Y4306080D01*
G01X3822005Y4321534D01*
G01X3821702Y4323959D01*
G01X3821399Y4328201D01*
G01X3820793Y4332443D01*
G01X3819581Y4339716D01*
G01X3818672Y4343353D01*
G01X3817763Y4346383D01*
G01X3817157Y4348807D01*
G01X3816247Y4351534D01*
G01X3815035Y4354262D01*
G01X3813520Y4357292D01*
G01X3812005Y4359413D01*
G01X3810793Y4361231D01*
G01X3809278Y4363050D01*
G01X3807763Y4364262D01*
G01X3805338Y4365474D01*
G01X3802611Y4366383D01*
G01X3799581Y4366686D01*
G01X3795338Y4366080D01*
G01X3791702Y4364565D01*
G01X3789581Y4363050D01*
G01X3788066Y4361837D01*
G01X3786550Y4360322D01*
G01X3785035Y4358201D01*
G01X3783520Y4355777D01*
G01X3782308Y4353352D01*
G01X3781096Y4350322D01*
G01X3778975Y4343959D01*
G01X3777763Y4337898D01*
G01X3777157Y4333050D01*
G01X3776550Y4328807D01*
G01X3775944Y4322140D01*
G01X3775338Y4313656D01*
G01X3775035Y4301837D01*
G01X3756255Y4301837D01*
G01X3756248Y4302140D01*
G01X3756551Y4314262D01*
G01X3756854Y4316383D01*
G01X3757157Y4319110D01*
G01X3757763Y4323353D01*
G01X3758672Y4328201D01*
G01X3759581Y4331231D01*
G01X3760187Y4333959D01*
G01X3761096Y4336989D01*
G01X3762308Y4340019D01*
G01X3763520Y4343353D01*
G01X3767460Y4351231D01*
G01X3769278Y4353959D01*
G01X3770490Y4356080D01*
G01X3771702Y4357595D01*
G01X3773823Y4359716D01*
G01X3775641Y4362140D01*
G01X3779278Y4365171D01*
G01X3781399Y4366989D01*
G01X3784429Y4368807D01*
G01X3787157Y4370322D01*
G01X3790187Y4371534D01*
G01X3792914Y4372444D01*
G01X3798066Y4372747D01*
G01X3803217Y4372444D01*
G01X3805944Y4371838D01*
G01X3808975Y4370928D01*
G01X3811702Y4369716D01*
G01X3813823Y4368504D01*
G01X3815641Y4367595D01*
G01X3817460Y4366383D01*
G01X3820490Y4363959D01*
G01X3823520Y4360928D01*
G01X3827157Y4356383D01*
G01X3828672Y4354262D01*
G01X3830490Y4351534D01*
G01X3832005Y4348807D01*
G01X3834429Y4343959D01*
G01X3835642Y4340928D01*
G01X3836854Y4337595D01*
G01X3838066Y4333656D01*
G01X3838975Y4330625D01*
G01X3840187Y4323959D01*
G01X3840793Y4319110D01*
G01X3841399Y4309413D01*
G01X3841702Y4306686D01*
G01X3841399Y4303959D01*
G01X3840793Y4293050D01*
G01X3840187Y4288201D01*
G01X3839581Y4283959D01*
G01X3838975Y4280928D01*
G01X3838066Y4276686D01*
G01X3836854Y4272747D01*
G01X3835642Y4269110D01*
G01X3834429Y4265777D01*
G01X3830490Y4257898D01*
G01X3828672Y4254868D01*
G01X3826551Y4251837D01*
G01X3824732Y4249413D01*
G01X3820187Y4244868D01*
G01X3818672Y4243655D01*
G01X3814429Y4240625D01*
G01X3812308Y4239413D01*
G01X3809581Y4238201D01*
G01X3806247Y4236989D01*
G01X3803217Y4236080D01*
G01X3797460Y4235777D01*
G01X3792005Y4236080D01*
G01X3789581Y4236989D01*
G37*
G36*
G01X3290501Y4444931D02*
G01X3291410Y4447052D01*
G01X3292925Y4449173D01*
G01X3305653Y4467355D01*
G01X3308683Y4471598D01*
G01X3321410Y4489779D01*
G01X3324440Y4494022D01*
G01X3337168Y4512204D01*
G01X3340198Y4516446D01*
G01X3352925Y4534628D01*
G01X3355956Y4538870D01*
G01X3368683Y4557052D01*
G01X3373228Y4563416D01*
G01X3374138Y4565234D01*
G01X3374441Y4566446D01*
G01X3350804Y4566446D01*
G01X3326259Y4566143D01*
G01X3323834Y4565840D01*
G01X3320501Y4565234D01*
G01X3317168Y4564022D01*
G01X3315046Y4562810D01*
G01X3313228Y4561598D01*
G01X3311107Y4559477D01*
G01X3309592Y4557052D01*
G01X3308683Y4554931D01*
G01X3307774Y4551901D01*
G01X3306865Y4549174D01*
G01X3306259Y4545840D01*
G01X3305349Y4542204D01*
G01X3304516Y4541295D01*
G01X3303228Y4540992D01*
G01X3302168Y4541143D01*
G01X3302016Y4541598D01*
G01X3302319Y4545234D01*
G01X3302622Y4549174D01*
G01X3304440Y4570992D01*
G01X3304743Y4573113D01*
G01X3316865Y4574022D01*
G01X3353228Y4574325D01*
G01X3401713Y4574022D01*
G01X3401107Y4572810D01*
G01X3399592Y4570689D01*
G01X3397774Y4567961D01*
G01X3342622Y4489173D01*
G01X3339592Y4484931D01*
G01X3337774Y4482204D01*
G01X3334743Y4477961D01*
G01X3332925Y4475234D01*
G01X3318077Y4454022D01*
G01X3316562Y4451295D01*
G01X3316259Y4450083D01*
G01X3345046Y4450083D01*
G01X3375956Y4450386D01*
G01X3378986Y4450992D01*
G01X3381410Y4451598D01*
G01X3384138Y4452507D01*
G01X3386865Y4454022D01*
G01X3388986Y4455537D01*
G01X3390501Y4456749D01*
G01X3392016Y4458264D01*
G01X3393228Y4459779D01*
G01X3394441Y4461598D01*
G01X3395653Y4463719D01*
G01X3396865Y4466143D01*
G01X3398077Y4468870D01*
G01X3399289Y4471901D01*
G01X3400501Y4475537D01*
G01X3401259Y4476825D01*
G01X3402319Y4477052D01*
G01X3403228Y4476522D01*
G01X3403531Y4475537D01*
G01X3403228Y4473416D01*
G01X3402016Y4466749D01*
G01X3401410Y4463719D01*
G01X3400198Y4456446D01*
G01X3399592Y4453416D01*
G01X3398380Y4446143D01*
G01X3398077Y4443719D01*
G01X3398077Y4442204D01*
G01X3344137Y4442204D01*
G01X3290198Y4442810D01*
G01X3290501Y4444931D01*
G37*
G36*
G01X4042926Y4465840D02*
G01X4042320Y4515537D01*
G01X4041714Y4515764D01*
G01X4041107Y4515234D01*
G01X4040198Y4512810D01*
G01X4038380Y4507355D01*
G01X4037471Y4504931D01*
G01X4036259Y4502204D01*
G01X4032623Y4493113D01*
G01X4031411Y4490689D01*
G01X4030198Y4488567D01*
G01X4025047Y4478264D01*
G01X4019592Y4470083D01*
G01X4018759Y4469325D01*
G01X4018077Y4469476D01*
G01X4016865Y4472204D01*
G01X4015653Y4475537D01*
G01X4013229Y4481598D01*
G01X4012320Y4484022D01*
G01X4012926Y4486749D01*
G01X4014441Y4489173D01*
G01X4015653Y4491295D01*
G01X4017168Y4494022D01*
G01X4018683Y4496143D01*
G01X4019895Y4498264D01*
G01X4022926Y4503719D01*
G01X4024138Y4506143D01*
G01X4025047Y4508264D01*
G01X4026259Y4510991D01*
G01X4028986Y4516446D01*
G01X4030198Y4519173D01*
G01X4031411Y4522204D01*
G01X4032320Y4524628D01*
G01X4033229Y4527355D01*
G01X4034441Y4530386D01*
G01X4035350Y4532810D01*
G01X4035956Y4534931D01*
G01X4036865Y4537052D01*
G01X4037471Y4539173D01*
G01X4038683Y4544022D01*
G01X4039289Y4546143D01*
G01X4040501Y4550992D01*
G01X4041107Y4553719D01*
G01X4040880Y4555007D01*
G01X4040198Y4555234D01*
G01X4028986Y4554931D01*
G01X4015956Y4555234D01*
G01X4013229Y4555537D01*
G01X4013229Y4568264D01*
G01X4026562Y4568264D01*
G01X4041411Y4568567D01*
G01X4042926Y4568870D01*
G01X4042926Y4586446D01*
G01X4043229Y4605537D01*
G01X4043532Y4607052D01*
G01X4049289Y4607052D01*
G01X4055956Y4606446D01*
G01X4056638Y4601522D01*
G01X4056865Y4587961D01*
G01X4057471Y4569173D01*
G01X4060729Y4568491D01*
G01X4069289Y4568264D01*
G01X4082016Y4567961D01*
G01X4083532Y4567658D01*
G01X4083532Y4562507D01*
G01X4082926Y4556143D01*
G01X4079289Y4555234D01*
G01X4069592Y4554931D01*
G01X4056865Y4554931D01*
G01X4056865Y4540689D01*
G01X4057092Y4530082D01*
G01X4057774Y4526749D01*
G01X4059592Y4527961D01*
G01X4061107Y4529476D01*
G01X4062320Y4530992D01*
G01X4063077Y4531598D01*
G01X4064138Y4531598D01*
G01X4065956Y4530386D01*
G01X4076562Y4519779D01*
G01X4078380Y4518264D01*
G01X4079895Y4517052D01*
G01X4081107Y4515840D01*
G01X4082623Y4514022D01*
G01X4084441Y4512204D01*
G01X4085956Y4510991D01*
G01X4086562Y4509476D01*
G01X4085653Y4507658D01*
G01X4078077Y4500082D01*
G01X4076865Y4499173D01*
G01X4075653Y4499779D01*
G01X4074441Y4501295D01*
G01X4071410Y4504325D01*
G01X4068986Y4507355D01*
G01X4065350Y4510991D01*
G01X4063532Y4513113D01*
G01X4062320Y4514628D01*
G01X4059289Y4517658D01*
G01X4057774Y4518870D01*
G01X4057092Y4506598D01*
G01X4056865Y4469173D01*
G01X4056562Y4417658D01*
G01X4056259Y4416143D01*
G01X4049895Y4416143D01*
G01X4043229Y4416446D01*
G01X4042926Y4465840D01*
G37*
G36*
G01X4071713Y4417355D02*
G01X4070198Y4418870D01*
G01X4066562Y4423719D01*
G01X4065047Y4425234D01*
G01X4063835Y4426749D01*
G01X4064441Y4429173D01*
G01X4066259Y4431295D01*
G01X4068683Y4434325D01*
G01X4070501Y4436446D01*
G01X4072016Y4438567D01*
G01X4073229Y4440083D01*
G01X4074441Y4441901D01*
G01X4075653Y4444022D01*
G01X4078683Y4449476D01*
G01X4079895Y4451901D01*
G01X4081713Y4456143D01*
G01X4082926Y4458870D01*
G01X4084138Y4462507D01*
G01X4085350Y4466446D01*
G01X4086259Y4469173D01*
G01X4087471Y4474628D01*
G01X4088683Y4480689D01*
G01X4089289Y4487355D01*
G01X4089895Y4493416D01*
G01X4090198Y4541598D01*
G01X4090501Y4590386D01*
G01X4090804Y4591901D01*
G01X4100198Y4591901D01*
G01X4110501Y4592204D01*
G01X4126259Y4592810D01*
G01X4133532Y4593416D01*
G01X4138077Y4593719D01*
G01X4144441Y4594022D01*
G01X4148077Y4594628D01*
G01X4152017Y4594931D01*
G01X4157168Y4595234D01*
G01X4160198Y4595840D01*
G01X4163532Y4596143D01*
G01X4168077Y4596446D01*
G01X4171107Y4597052D01*
G01X4174441Y4597355D01*
G01X4179592Y4597658D01*
G01X4183229Y4598264D01*
G01X4185350Y4598567D01*
G01X4188683Y4598870D01*
G01X4191713Y4599476D01*
G01X4195956Y4599779D01*
G01X4199289Y4599779D01*
G01X4199895Y4597658D01*
G01X4201107Y4594325D01*
G01X4202017Y4591598D01*
G01X4202926Y4589173D01*
G01X4203532Y4586749D01*
G01X4203305Y4585537D01*
G01X4202623Y4584931D01*
G01X4200804Y4584325D01*
G01X4196562Y4584022D01*
G01X4191107Y4583719D01*
G01X4188077Y4583113D01*
G01X4183835Y4582810D01*
G01X4177774Y4582507D01*
G01X4174138Y4581901D01*
G01X4168986Y4581598D01*
G01X4162017Y4581295D01*
G01X4158380Y4580689D01*
G01X4145047Y4580083D01*
G01X4140198Y4579476D01*
G01X4124441Y4578870D01*
G01X4117168Y4578264D01*
G01X4110198Y4577961D01*
G01X4104138Y4577961D01*
G01X4104138Y4563719D01*
G01X4104441Y4547961D01*
G01X4104895Y4546901D01*
G01X4105653Y4546749D01*
G01X4148380Y4547052D01*
G01X4192320Y4546749D01*
G01X4194744Y4545840D01*
G01X4195350Y4544325D01*
G01X4195653Y4540992D01*
G01X4195350Y4537658D01*
G01X4194744Y4532810D01*
G01X4194138Y4530082D01*
G01X4193229Y4526143D01*
G01X4192320Y4523113D01*
G01X4191713Y4520385D01*
G01X4190804Y4516749D01*
G01X4189895Y4514022D01*
G01X4189289Y4511901D01*
G01X4188380Y4509173D01*
G01X4187471Y4506749D01*
G01X4186562Y4504022D01*
G01X4185350Y4500688D01*
G01X4184138Y4497961D01*
G01X4182926Y4494931D01*
G01X4181714Y4492204D01*
G01X4176562Y4481901D01*
G01X4175047Y4479476D01*
G01X4173835Y4477355D01*
G01X4172320Y4474931D01*
G01X4168683Y4469476D01*
G01X4167168Y4467355D01*
G01X4164744Y4464325D01*
G01X4164441Y4462507D01*
G01X4165350Y4460689D01*
G01X4168380Y4457658D01*
G01X4174441Y4452810D01*
G01X4176562Y4450992D01*
G01X4178683Y4449476D01*
G01X4181714Y4447052D01*
G01X4183835Y4445537D01*
G01X4186865Y4443719D01*
G01X4189592Y4441901D01*
G01X4192017Y4440386D01*
G01X4194744Y4438870D01*
G01X4197168Y4437355D01*
G01X4202623Y4434628D01*
G01X4205350Y4433416D01*
G01X4206183Y4432885D01*
G01X4206259Y4431901D01*
G01X4205047Y4430082D01*
G01X4202017Y4426446D01*
G01X4200501Y4424931D01*
G01X4195653Y4418870D01*
G01X4194971Y4418340D01*
G01X4194138Y4418567D01*
G01X4192320Y4419779D01*
G01X4190198Y4421295D01*
G01X4187471Y4423113D01*
G01X4185350Y4424628D01*
G01X4177774Y4430689D01*
G01X4172926Y4434325D01*
G01X4171411Y4435840D01*
G01X4167168Y4439477D01*
G01X4164138Y4441901D01*
G01X4155956Y4450083D01*
G01X4154517Y4450840D01*
G01X4153229Y4450689D01*
G01X4151411Y4449476D01*
G01X4149895Y4448264D01*
G01X4148380Y4446749D01*
G01X4144744Y4443719D01*
G01X4143229Y4442204D01*
G01X4140805Y4440386D01*
G01X4137774Y4437961D01*
G01X4135350Y4436143D01*
G01X4133835Y4434931D01*
G01X4131714Y4433416D01*
G01X4120805Y4426143D01*
G01X4118683Y4424628D01*
G01X4116562Y4423416D01*
G01X4113835Y4421901D01*
G01X4105350Y4417052D01*
G01X4103532Y4416143D01*
G01X4101714Y4417658D01*
G01X4100198Y4420082D01*
G01X4096562Y4424628D01*
G01X4095047Y4426143D01*
G01X4093835Y4427658D01*
G01X4093835Y4429173D01*
G01X4095956Y4430689D01*
G01X4101411Y4433113D01*
G01X4109289Y4437052D01*
G01X4112320Y4438870D01*
G01X4114744Y4440386D01*
G01X4121108Y4444022D01*
G01X4123835Y4445840D01*
G01X4129895Y4450083D01*
G01X4132320Y4451598D01*
G01X4133835Y4452810D01*
G01X4137471Y4455840D01*
G01X4139592Y4457961D01*
G01X4142017Y4459779D01*
G01X4143229Y4461598D01*
G01X4142926Y4464022D01*
G01X4141108Y4466749D01*
G01X4139289Y4469173D01*
G01X4138077Y4470992D01*
G01X4135047Y4475840D01*
G01X4132623Y4480082D01*
G01X4128986Y4487355D01*
G01X4127774Y4490082D01*
G01X4125350Y4496143D01*
G01X4124441Y4498567D01*
G01X4123532Y4501295D01*
G01X4122623Y4503719D01*
G01X4120199Y4512204D01*
G01X4118986Y4517658D01*
G01X4118380Y4520082D01*
G01X4117774Y4523113D01*
G01X4117168Y4525537D01*
G01X4116865Y4528567D01*
G01X4116360Y4531598D01*
G01X4129895Y4531598D01*
G01X4130502Y4526749D01*
G01X4131714Y4520688D01*
G01X4133532Y4513416D01*
G01X4134441Y4510385D01*
G01X4135350Y4507961D01*
G01X4136259Y4504931D01*
G01X4137471Y4501598D01*
G01X4138380Y4499173D01*
G01X4139592Y4496446D01*
G01X4144744Y4486143D01*
G01X4146259Y4483719D01*
G01X4149895Y4478264D01*
G01X4151411Y4476143D01*
G01X4152623Y4474628D01*
G01X4154138Y4473719D01*
G01X4155956Y4474931D01*
G01X4155956Y4474931D01*
G01X4158077Y4477658D01*
G01X4159895Y4480386D01*
G01X4162926Y4485234D01*
G01X4165956Y4490689D01*
G01X4167168Y4493113D01*
G01X4170804Y4501295D01*
G01X4172017Y4504325D01*
G01X4172926Y4506749D01*
G01X4173532Y4508870D01*
G01X4174441Y4511901D01*
G01X4175350Y4514628D01*
G01X4176562Y4518870D01*
G01X4177774Y4523719D01*
G01X4178986Y4529779D01*
G01X4179289Y4532204D01*
G01X4179289Y4533719D01*
G01X4155047Y4533719D01*
G01X4130198Y4533113D01*
G01X4129895Y4531598D01*
G01X4116360Y4531598D01*
G01X4116259Y4532204D01*
G01X4115653Y4533719D01*
G01X4111411Y4533719D01*
G01X4105653Y4533416D01*
G01X4104138Y4533113D01*
G01X4104138Y4513416D01*
G01X4103835Y4492810D01*
G01X4103532Y4489173D01*
G01X4103229Y4483719D01*
G01X4102623Y4480082D01*
G01X4102017Y4474628D01*
G01X4099592Y4463719D01*
G01X4098986Y4461295D01*
G01X4098077Y4458264D01*
G01X4097168Y4455840D01*
G01X4096562Y4453719D01*
G01X4095653Y4451295D01*
G01X4094441Y4448567D01*
G01X4093229Y4445537D01*
G01X4092016Y4442810D01*
G01X4090804Y4440386D01*
G01X4089592Y4438264D01*
G01X4088380Y4435840D01*
G01X4086865Y4433113D01*
G01X4085047Y4430386D01*
G01X4080804Y4424325D01*
G01X4078986Y4422204D01*
G01X4077471Y4420688D01*
G01X4075047Y4417658D01*
G01X4073532Y4416143D01*
G01X4072623Y4416143D01*
G01X4071713Y4417355D01*
G37*
G36*
G01X3452622Y4436446D02*
G01X3452319Y4451749D01*
G01X3451410Y4457052D01*
G01X3448683Y4457052D01*
G01X3446259Y4456446D01*
G01X3443228Y4456143D01*
G01X3439592Y4455840D01*
G01X3437168Y4455234D01*
G01X3434440Y4454931D01*
G01X3431107Y4454628D01*
G01X3428683Y4454022D01*
G01X3425956Y4453719D01*
G01X3422622Y4453416D01*
G01X3420198Y4452810D01*
G01X3417774Y4452507D01*
G01X3414743Y4452810D01*
G01X3413607Y4453643D01*
G01X3413228Y4455537D01*
G01X3412925Y4458870D01*
G01X3412319Y4461901D01*
G01X3412319Y4465537D01*
G01X3413077Y4466749D01*
G01X3414743Y4467355D01*
G01X3417774Y4467961D01*
G01X3420804Y4468264D01*
G01X3425653Y4468567D01*
G01X3429289Y4469173D01*
G01X3432925Y4469476D01*
G01X3437168Y4469779D01*
G01X3439592Y4470386D01*
G01X3447471Y4470992D01*
G01X3450501Y4471598D01*
G01X3452622Y4471901D01*
G01X3452622Y4487961D01*
G01X3452319Y4505537D01*
G01X3452016Y4507052D01*
G01X3435349Y4507052D01*
G01X3417774Y4507658D01*
G01X3417092Y4509476D01*
G01X3416865Y4513719D01*
G01X3417471Y4520688D01*
G01X3418380Y4523113D01*
G01X3418986Y4524931D01*
G01X3419895Y4527355D01*
G01X3421107Y4530386D01*
G01X3422016Y4532810D01*
G01X3422925Y4535537D01*
G01X3424137Y4538567D01*
G01X3426562Y4545234D01*
G01X3427471Y4547658D01*
G01X3428380Y4550386D01*
G01X3430804Y4557052D01*
G01X3432016Y4560083D01*
G01X3432925Y4562507D01*
G01X3432622Y4564325D01*
G01X3431410Y4564931D01*
G01X3425350Y4564628D01*
G01X3417168Y4564931D01*
G01X3414440Y4565234D01*
G01X3414440Y4570386D01*
G01X3414743Y4577052D01*
G01X3415047Y4578567D01*
G01X3438077Y4578567D01*
G01X3438683Y4580083D01*
G01X3439592Y4582507D01*
G01X3440198Y4584628D01*
G01X3441107Y4587658D01*
G01X3443228Y4594022D01*
G01X3443834Y4596749D01*
G01X3444743Y4599476D01*
G01X3445956Y4603719D01*
G01X3446865Y4606446D01*
G01X3447395Y4607886D01*
G01X3448380Y4608567D01*
G01X3450804Y4608264D01*
G01X3453834Y4607658D01*
G01X3456562Y4607052D01*
G01X3458683Y4606446D01*
G01X3461107Y4605840D01*
G01X3461865Y4605007D01*
G01X3461713Y4603719D01*
G01X3460804Y4601295D01*
G01X3460198Y4599173D01*
G01X3459289Y4596446D01*
G01X3458380Y4594022D01*
G01X3457471Y4590992D01*
G01X3456259Y4587658D01*
G01X3455349Y4584931D01*
G01X3454440Y4582507D01*
G01X3453834Y4580083D01*
G01X3453834Y4578567D01*
G01X3470198Y4578567D01*
G01X3486865Y4577961D01*
G01X3487168Y4571901D01*
G01X3486562Y4565537D01*
G01X3481486Y4564855D01*
G01X3467471Y4564628D01*
G01X3453380Y4564325D01*
G01X3448077Y4563416D01*
G01X3446562Y4560083D01*
G01X3445349Y4556749D01*
G01X3444440Y4554325D01*
G01X3443531Y4551598D01*
G01X3442319Y4548567D01*
G01X3441410Y4546143D01*
G01X3440804Y4544325D01*
G01X3439895Y4541901D01*
G01X3437471Y4535840D01*
G01X3436562Y4533416D01*
G01X3435653Y4530689D01*
G01X3434440Y4527658D01*
G01X3433531Y4525234D01*
G01X3432622Y4523113D01*
G01X3432319Y4521295D01*
G01X3434516Y4520613D01*
G01X3440501Y4520385D01*
G01X3450501Y4520688D01*
G01X3452622Y4520991D01*
G01X3452622Y4537658D01*
G01X3452850Y4550310D01*
G01X3453531Y4554931D01*
G01X3458077Y4555537D01*
G01X3463834Y4555234D01*
G01X3466259Y4554325D01*
G01X3466865Y4552810D01*
G01X3467168Y4538264D01*
G01X3466865Y4523719D01*
G01X3466865Y4521598D01*
G01X3468910Y4520688D01*
G01X3474441Y4520385D01*
G01X3483228Y4520082D01*
G01X3484744Y4519779D01*
G01X3484744Y4514931D01*
G01X3484441Y4508567D01*
G01X3484138Y4507052D01*
G01X3475956Y4507052D01*
G01X3467168Y4506446D01*
G01X3466865Y4504931D01*
G01X3467168Y4491901D01*
G01X3466865Y4477052D01*
G01X3466940Y4474931D01*
G01X3467774Y4474022D01*
G01X3469895Y4474022D01*
G01X3472319Y4474325D01*
G01X3476562Y4474628D01*
G01X3480198Y4475234D01*
G01X3484138Y4475537D01*
G01X3487168Y4475537D01*
G01X3487168Y4474022D01*
G01X3486865Y4469779D01*
G01X3486259Y4466143D01*
G01X3485956Y4464022D01*
G01X3485653Y4462961D01*
G01X3484744Y4462204D01*
G01X3482622Y4461295D01*
G01X3478986Y4460992D01*
G01X3474744Y4460689D01*
G01X3472319Y4460083D01*
G01X3468986Y4459779D01*
G01X3467244Y4459552D01*
G01X3466865Y4458870D01*
G01X3467168Y4438567D01*
G01X3466562Y4417355D01*
G01X3465956Y4415537D01*
G01X3459592Y4415537D01*
G01X3452925Y4415840D01*
G01X3452622Y4436446D01*
G37*
G36*
G01X3496486Y4435916D02*
G01X3496259Y4491901D01*
G01X3496264Y4493113D01*
G01X3510804Y4493113D01*
G01X3510804Y4468870D01*
G01X3511107Y4444325D01*
G01X3524137Y4444022D01*
G01X3524137Y4444022D01*
G01X3538380Y4444325D01*
G01X3539895Y4444628D01*
G01X3539895Y4493113D01*
G01X3553834Y4493113D01*
G01X3553834Y4468870D01*
G01X3554137Y4444325D01*
G01X3567168Y4444022D01*
G01X3567168Y4444022D01*
G01X3581410Y4444325D01*
G01X3582471Y4444704D01*
G01X3582622Y4445234D01*
G01X3582319Y4447658D01*
G01X3582622Y4450386D01*
G01X3582622Y4452204D01*
G01X3582319Y4454325D01*
G01X3582622Y4456446D01*
G01X3582622Y4458264D01*
G01X3582319Y4462507D01*
G01X3582622Y4466749D01*
G01X3582622Y4470992D01*
G01X3582925Y4473719D01*
G01X3582622Y4475840D01*
G01X3582319Y4482204D01*
G01X3582622Y4490385D01*
G01X3582925Y4493113D01*
G01X3553834Y4493113D01*
G01X3539895Y4493113D01*
G01X3510804Y4493113D01*
G01X3496264Y4493113D01*
G01X3496512Y4555537D01*
G01X3510804Y4555537D01*
G01X3510804Y4532507D01*
G01X3511107Y4508567D01*
G01X3511713Y4507355D01*
G01X3512622Y4507355D01*
G01X3512622Y4507355D01*
G01X3524441Y4507658D01*
G01X3536562Y4507355D01*
G01X3538683Y4507355D01*
G01X3539592Y4513567D01*
G01X3539895Y4531598D01*
G01X3539895Y4555537D01*
G01X3553834Y4555537D01*
G01X3553834Y4532507D01*
G01X3554137Y4508567D01*
G01X3554743Y4507355D01*
G01X3555653Y4507355D01*
G01X3555653Y4507355D01*
G01X3567471Y4507658D01*
G01X3579592Y4507355D01*
G01X3581713Y4507355D01*
G01X3582547Y4507810D01*
G01X3582622Y4508567D01*
G01X3582319Y4513416D01*
G01X3582622Y4518264D01*
G01X3582622Y4520082D01*
G01X3582319Y4536143D01*
G01X3582622Y4552204D01*
G01X3582622Y4554325D01*
G01X3578835Y4555234D01*
G01X3568077Y4555537D01*
G01X3553834Y4555537D01*
G01X3539895Y4555537D01*
G01X3510804Y4555537D01*
G01X3496512Y4555537D01*
G01X3496562Y4567961D01*
G01X3496865Y4569477D01*
G01X3539895Y4569477D01*
G01X3539895Y4586446D01*
G01X3540198Y4604931D01*
G01X3540501Y4606446D01*
G01X3545653Y4606446D01*
G01X3552319Y4606143D01*
G01X3553834Y4605840D01*
G01X3553834Y4569477D01*
G01X3574744Y4569477D01*
G01X3596562Y4568870D01*
G01X3597244Y4550007D01*
G01X3597471Y4494628D01*
G01X3597168Y4419476D01*
G01X3595956Y4417355D01*
G01X3591107Y4416749D01*
G01X3585653Y4417052D01*
G01X3583228Y4417961D01*
G01X3582547Y4419401D01*
G01X3582319Y4422507D01*
G01X3582622Y4427355D01*
G01X3582622Y4429173D01*
G01X3573456Y4429855D01*
G01X3546562Y4430082D01*
G01X3510804Y4430082D01*
G01X3510804Y4424022D01*
G01X3510577Y4419325D01*
G01X3509895Y4417355D01*
G01X3503531Y4416749D01*
G01X3497168Y4417052D01*
G01X3496486Y4435916D01*
G37*
G36*
G01X3656259Y4435537D02*
G01X3656562Y4455234D01*
G01X3656562Y4457052D01*
G01X3655653Y4457658D01*
G01X3653834Y4457355D01*
G01X3651107Y4457052D01*
G01X3648683Y4456446D01*
G01X3643228Y4455840D01*
G01X3639895Y4455234D01*
G01X3635350Y4454628D01*
G01X3632319Y4454022D01*
G01X3630198Y4453719D01*
G01X3627471Y4453416D01*
G01X3625047Y4452810D01*
G01X3620198Y4452204D01*
G01X3617168Y4451598D01*
G01X3615425Y4451598D01*
G01X3614441Y4452204D01*
G01X3613532Y4454022D01*
G01X3612925Y4460083D01*
G01X3612319Y4462810D01*
G01X3612622Y4465840D01*
G01X3613456Y4466749D01*
G01X3614744Y4467052D01*
G01X3617774Y4467355D01*
G01X3620198Y4467961D01*
G01X3623531Y4468264D01*
G01X3627471Y4468567D01*
G01X3629895Y4469173D01*
G01X3633228Y4469476D01*
G01X3637168Y4469779D01*
G01X3639592Y4470386D01*
G01X3642622Y4470689D01*
G01X3646259Y4470992D01*
G01X3648683Y4471598D01*
G01X3652925Y4471901D01*
G01X3656259Y4471901D01*
G01X3656259Y4484628D01*
G01X3656562Y4498264D01*
G01X3656562Y4500082D01*
G01X3655653Y4500688D01*
G01X3637471Y4500385D01*
G01X3618380Y4500688D01*
G01X3616865Y4500992D01*
G01X3616865Y4506749D01*
G01X3617168Y4514022D01*
G01X3618077Y4516749D01*
G01X3620501Y4522204D01*
G01X3623228Y4528567D01*
G01X3623835Y4530386D01*
G01X3625653Y4534628D01*
G01X3626259Y4536446D01*
G01X3627168Y4538870D01*
G01X3628380Y4541901D01*
G01X3629289Y4544325D01*
G01X3629895Y4546446D01*
G01X3630804Y4548871D01*
G01X3631713Y4550992D01*
G01X3632319Y4553416D01*
G01X3633228Y4555840D01*
G01X3634138Y4558567D01*
G01X3635047Y4561598D01*
G01X3635350Y4563719D01*
G01X3634895Y4564325D01*
G01X3634138Y4564325D01*
G01X3625350Y4564022D01*
G01X3615956Y4564628D01*
G01X3614441Y4565234D01*
G01X3614441Y4570083D01*
G01X3614744Y4576446D01*
G01X3615047Y4577961D01*
G01X3639895Y4577961D01*
G01X3641410Y4582507D01*
G01X3642016Y4584931D01*
G01X3642925Y4588264D01*
G01X3643834Y4590992D01*
G01X3644441Y4593719D01*
G01X3645350Y4597355D01*
G01X3646259Y4600082D01*
G01X3646865Y4602810D01*
G01X3647774Y4606446D01*
G01X3649289Y4608567D01*
G01X3652319Y4608264D01*
G01X3656562Y4607355D01*
G01X3659592Y4606749D01*
G01X3662319Y4606143D01*
G01X3663607Y4605613D01*
G01X3663834Y4604628D01*
G01X3662622Y4600386D01*
G01X3661713Y4597658D01*
G01X3660804Y4595234D01*
G01X3660198Y4592810D01*
G01X3659289Y4589779D01*
G01X3658380Y4587355D01*
G01X3657774Y4584931D01*
G01X3656865Y4582507D01*
G01X3656259Y4579780D01*
G01X3656259Y4577961D01*
G01X3675350Y4577961D01*
G01X3695956Y4577658D01*
G01X3697471Y4577355D01*
G01X3697471Y4571295D01*
G01X3697244Y4566598D01*
G01X3696562Y4564628D01*
G01X3675653Y4564022D01*
G01X3654137Y4564325D01*
G01X3651713Y4564022D01*
G01X3650198Y4562204D01*
G01X3649289Y4559780D01*
G01X3648380Y4557052D01*
G01X3647168Y4553719D01*
G01X3645956Y4550083D01*
G01X3644744Y4546749D01*
G01X3643834Y4544325D01*
G01X3643228Y4542204D01*
G01X3642319Y4539780D01*
G01X3641410Y4537658D01*
G01X3639289Y4531295D01*
G01X3638077Y4528264D01*
G01X3637168Y4525537D01*
G01X3634441Y4518264D01*
G01X3633531Y4515537D01*
G01X3633228Y4513719D01*
G01X3656259Y4513719D01*
G01X3656259Y4532204D01*
G01X3656486Y4546295D01*
G01X3657168Y4551598D01*
G01X3658986Y4552279D01*
G01X3662622Y4552507D01*
G01X3669289Y4552204D01*
G01X3671410Y4551901D01*
G01X3671410Y4534325D01*
G01X3671713Y4515234D01*
G01X3672016Y4513719D01*
G01X3697471Y4513719D01*
G01X3697471Y4507961D01*
G01X3696865Y4501295D01*
G01X3693304Y4500613D01*
G01X3683835Y4500385D01*
G01X3671410Y4500385D01*
G01X3671410Y4488870D01*
G01X3671713Y4475840D01*
G01X3672168Y4474779D01*
G01X3672925Y4474628D01*
G01X3674744Y4475234D01*
G01X3677774Y4475537D01*
G01X3681410Y4475840D01*
G01X3683835Y4476446D01*
G01X3686562Y4476749D01*
G01X3689895Y4477052D01*
G01X3692320Y4477658D01*
G01X3695350Y4477961D01*
G01X3698986Y4478264D01*
G01X3701107Y4477961D01*
G01X3701410Y4476446D01*
G01X3700804Y4469779D01*
G01X3700501Y4467052D01*
G01X3699895Y4464628D01*
G01X3698380Y4463719D01*
G01X3694744Y4463416D01*
G01X3690804Y4462810D01*
G01X3682319Y4461598D01*
G01X3678380Y4460992D01*
G01X3673531Y4460386D01*
G01X3671410Y4459779D01*
G01X3671410Y4439173D01*
G01X3671107Y4417052D01*
G01X3670804Y4415537D01*
G01X3663834Y4415537D01*
G01X3656562Y4416143D01*
G01X3656259Y4435537D01*
G37*
G36*
G01X3771410Y4416143D02*
G01X3769895Y4417355D01*
G01X3757168Y4426446D01*
G01X3755653Y4427658D01*
G01X3753531Y4429173D01*
G01X3750804Y4430992D01*
G01X3748077Y4433113D01*
G01X3745047Y4435234D01*
G01X3740804Y4438264D01*
G01X3735350Y4441901D01*
G01X3732925Y4443416D01*
G01X3729289Y4445840D01*
G01X3726865Y4447355D01*
G01X3715956Y4454628D01*
G01X3713532Y4456143D01*
G01X3711713Y4457355D01*
G01X3709289Y4458870D01*
G01X3708229Y4459779D01*
G01X3708077Y4460689D01*
G01X3709592Y4463113D01*
G01X3711410Y4465537D01*
G01X3712622Y4467052D01*
G01X3713835Y4468870D01*
G01X3715350Y4470689D01*
G01X3717168Y4470992D01*
G01X3719289Y4469779D01*
G01X3722016Y4467961D01*
G01X3725047Y4466143D01*
G01X3729895Y4463113D01*
G01X3735350Y4459476D01*
G01X3738380Y4457658D01*
G01X3743228Y4454628D01*
G01X3745956Y4452810D01*
G01X3748077Y4452204D01*
G01X3749592Y4453416D01*
G01X3751107Y4454931D01*
G01X3753531Y4457961D01*
G01X3755653Y4460083D01*
G01X3757471Y4462507D01*
G01X3760501Y4465537D01*
G01X3761713Y4467052D01*
G01X3763531Y4469173D01*
G01X3765350Y4471598D01*
G01X3766865Y4473113D01*
G01X3769895Y4476749D01*
G01X3773531Y4480992D01*
G01X3775653Y4483113D01*
G01X3777168Y4485537D01*
G01X3769441Y4486219D01*
G01X3745653Y4486446D01*
G01X3712319Y4486749D01*
G01X3710804Y4487052D01*
G01X3710804Y4492204D01*
G01X3711107Y4499476D01*
G01X3712016Y4503416D01*
G01X3712926Y4506143D01*
G01X3713532Y4508264D01*
G01X3714441Y4511295D01*
G01X3715350Y4514022D01*
G01X3715956Y4516446D01*
G01X3716865Y4519779D01*
G01X3717774Y4522507D01*
G01X3717774Y4524325D01*
G01X3716865Y4524931D01*
G01X3708986Y4524628D01*
G01X3698986Y4524931D01*
G01X3696259Y4525234D01*
G01X3696259Y4531598D01*
G01X3696486Y4536522D01*
G01X3697168Y4538567D01*
G01X3709895Y4539173D01*
G01X3718910Y4539401D01*
G01X3722319Y4540083D01*
G01X3723229Y4542507D01*
G01X3727471Y4559477D01*
G01X3728077Y4562204D01*
G01X3728380Y4564022D01*
G01X3718380Y4564022D01*
G01X3706865Y4564325D01*
G01X3705350Y4564628D01*
G01X3705350Y4577355D01*
G01X3718683Y4577355D01*
G01X3728683Y4577658D01*
G01X3732016Y4578567D01*
G01X3732622Y4580992D01*
G01X3733229Y4583719D01*
G01X3734441Y4588567D01*
G01X3737471Y4602204D01*
G01X3738077Y4604628D01*
G01X3738986Y4606749D01*
G01X3740880Y4607431D01*
G01X3744744Y4607658D01*
G01X3751713Y4607355D01*
G01X3753228Y4606977D01*
G01X3753531Y4606446D01*
G01X3752925Y4603719D01*
G01X3752016Y4599476D01*
G01X3750501Y4593416D01*
G01X3749895Y4590386D01*
G01X3748986Y4586143D01*
G01X3748077Y4583113D01*
G01X3747471Y4579780D01*
G01X3747168Y4577355D01*
G01X3799289Y4577355D01*
G01X3799289Y4572204D01*
G01X3798986Y4565537D01*
G01X3798683Y4564022D01*
G01X3771410Y4564022D01*
G01X3750804Y4563795D01*
G01X3743532Y4563113D01*
G01X3741107Y4553416D01*
G01X3740501Y4551295D01*
G01X3738683Y4544022D01*
G01X3738077Y4540689D01*
G01X3738304Y4539173D01*
G01X3738986Y4538870D01*
G01X3771713Y4539173D01*
G01X3805047Y4538567D01*
G01X3806562Y4537961D01*
G01X3806562Y4532204D01*
G01X3806335Y4527658D01*
G01X3805653Y4525537D01*
G01X3796259Y4524855D01*
G01X3769895Y4524628D01*
G01X3734138Y4524325D01*
G01X3732925Y4523113D01*
G01X3731713Y4518264D01*
G01X3729289Y4509779D01*
G01X3728683Y4507355D01*
G01X3727774Y4504325D01*
G01X3727471Y4501295D01*
G01X3727774Y4499779D01*
G01X3761107Y4499779D01*
G01X3795956Y4499476D01*
G01X3797471Y4499173D01*
G01X3797471Y4492810D01*
G01X3796865Y4485840D01*
G01X3795047Y4483719D01*
G01X3792623Y4480689D01*
G01X3790501Y4477961D01*
G01X3786562Y4474022D01*
G01X3784138Y4470992D01*
G01X3782016Y4468264D01*
G01X3780198Y4466446D01*
G01X3777168Y4462810D01*
G01X3775653Y4461295D01*
G01X3773228Y4458264D01*
G01X3771713Y4456749D01*
G01X3768077Y4452507D01*
G01X3765653Y4449476D01*
G01X3762622Y4446446D01*
G01X3761410Y4444628D01*
G01X3761486Y4443416D01*
G01X3762319Y4442204D01*
G01X3765047Y4440083D01*
G01X3775956Y4432810D01*
G01X3778986Y4430689D01*
G01X3781713Y4428870D01*
G01X3782622Y4427658D01*
G01X3781713Y4426143D01*
G01X3780198Y4424022D01*
G01X3778077Y4421295D01*
G01X3775653Y4418264D01*
G01X3773834Y4415840D01*
G01X3772622Y4415234D01*
G01X3771410Y4416143D01*
G37*
G36*
G01X3815956Y4422507D02*
G01X3815350Y4428567D01*
G01X3814744Y4431598D01*
G01X3814744Y4433340D01*
G01X3815350Y4434325D01*
G01X3817168Y4434628D01*
G01X3821410Y4434022D01*
G01X3826865Y4433719D01*
G01X3832926Y4434022D01*
G01X3835653Y4434931D01*
G01X3837471Y4436446D01*
G01X3838683Y4438264D01*
G01X3839289Y4464628D01*
G01X3839592Y4492204D01*
G01X3839516Y4493795D01*
G01X3838683Y4494325D01*
G01X3836259Y4493719D01*
G01X3817168Y4487355D01*
G01X3815047Y4487658D01*
G01X3814138Y4490385D01*
G01X3813532Y4493416D01*
G01X3813229Y4496446D01*
G01X3812926Y4500688D01*
G01X3812926Y4502431D01*
G01X3813532Y4503416D01*
G01X3815350Y4504325D01*
G01X3823835Y4506749D01*
G01X3826259Y4507355D01*
G01X3829289Y4508264D01*
G01X3831713Y4509173D01*
G01X3837774Y4510688D01*
G01X3839289Y4511295D01*
G01X3839592Y4511901D01*
G01X3839289Y4532204D01*
G01X3839592Y4552810D01*
G01X3839592Y4554628D01*
G01X3836335Y4555310D01*
G01X3827168Y4555537D01*
G01X3815047Y4555537D01*
G01X3815047Y4569477D01*
G01X3839289Y4569477D01*
G01X3839289Y4585840D01*
G01X3839592Y4604325D01*
G01X3839895Y4606446D01*
G01X3845653Y4606446D01*
G01X3852925Y4606143D01*
G01X3854441Y4605840D01*
G01X3854441Y4589173D01*
G01X3854744Y4570992D01*
G01X3855047Y4569477D01*
G01X3864441Y4569477D01*
G01X3875350Y4569173D01*
G01X3876865Y4568870D01*
G01X3876865Y4563719D01*
G01X3876562Y4557052D01*
G01X3876259Y4555537D01*
G01X3866865Y4555537D01*
G01X3855956Y4555234D01*
G01X3854441Y4554931D01*
G01X3854441Y4535840D01*
G01X3854668Y4521446D01*
G01X3855350Y4516446D01*
G01X3857471Y4516749D01*
G01X3868380Y4520385D01*
G01X3871107Y4520991D01*
G01X3872622Y4520991D01*
G01X3872622Y4517658D01*
G01X3872925Y4513416D01*
G01X3873228Y4510688D01*
G01X3872925Y4507355D01*
G01X3872395Y4506143D01*
G01X3871410Y4505537D01*
G01X3868683Y4504628D01*
G01X3866259Y4503719D01*
G01X3864138Y4503113D01*
G01X3861410Y4502204D01*
G01X3858986Y4501295D01*
G01X3854441Y4499779D01*
G01X3854441Y4469779D01*
G01X3854138Y4438870D01*
G01X3853835Y4436143D01*
G01X3853532Y4432810D01*
G01X3852622Y4429476D01*
G01X3851107Y4426143D01*
G01X3849289Y4423719D01*
G01X3847471Y4421901D01*
G01X3845653Y4420688D01*
G01X3844138Y4419779D01*
G01X3842319Y4419173D01*
G01X3839895Y4418567D01*
G01X3828380Y4417961D01*
G01X3818077Y4417961D01*
G01X3817168Y4419779D01*
G01X3815956Y4422507D01*
G37*
G36*
G01X3872016Y4418264D02*
G01X3867168Y4427961D01*
G01X3867168Y4430386D01*
G01X3868077Y4431067D01*
G01X3869592Y4431295D01*
G01X3872622Y4431901D01*
G01X3875350Y4432507D01*
G01X3877774Y4432810D01*
G01X3884441Y4434022D01*
G01X3887168Y4434628D01*
G01X3890804Y4435537D01*
G01X3893532Y4436446D01*
G01X3896259Y4437052D01*
G01X3900198Y4437961D01*
G01X3904138Y4439173D01*
G01X3907774Y4440386D01*
G01X3910804Y4441598D01*
G01X3914138Y4442810D01*
G01X3917168Y4444022D01*
G01X3919289Y4444931D01*
G01X3924744Y4447355D01*
G01X3925501Y4447885D01*
G01X3925350Y4448870D01*
G01X3923835Y4450689D01*
G01X3919592Y4452507D01*
G01X3917168Y4453719D01*
G01X3903532Y4459779D01*
G01X3901107Y4460689D01*
G01X3898380Y4461901D01*
G01X3895047Y4463416D01*
G01X3892016Y4464628D01*
G01X3889895Y4465840D01*
G01X3889441Y4466598D01*
G01X3889895Y4467658D01*
G01X3891410Y4469476D01*
G01X3892623Y4470992D01*
G01X3892839Y4471295D01*
G01X3910198Y4471295D01*
G01X3911107Y4469476D01*
G01X3913835Y4468264D01*
G01X3935047Y4459779D01*
G01X3937774Y4458870D01*
G01X3939895Y4458264D01*
G01X3942017Y4458567D01*
G01X3942017Y4458567D01*
G01X3944138Y4460083D01*
G01X3950804Y4466749D01*
G01X3953229Y4469779D01*
G01X3955047Y4472507D01*
G01X3958077Y4477355D01*
G01X3959289Y4479476D01*
G01X3961713Y4484931D01*
G01X3961713Y4486749D01*
G01X3960501Y4487355D01*
G01X3941410Y4487052D01*
G01X3921410Y4486749D01*
G01X3920047Y4486143D01*
G01X3918986Y4484931D01*
G01X3915350Y4479476D01*
G01X3910804Y4473113D01*
G01X3910198Y4471295D01*
G01X3892839Y4471295D01*
G01X3894138Y4473113D01*
G01X3896259Y4475840D01*
G01X3898380Y4478870D01*
G01X3900198Y4481598D01*
G01X3901411Y4483719D01*
G01X3902623Y4485234D01*
G01X3903229Y4485916D01*
G01X3903229Y4486749D01*
G01X3902774Y4487355D01*
G01X3902017Y4487355D01*
G01X3889289Y4487052D01*
G01X3874744Y4487355D01*
G01X3872016Y4487658D01*
G01X3872016Y4492810D01*
G01X3872319Y4499476D01*
G01X3872622Y4500992D01*
G01X3892320Y4500992D01*
G01X3912623Y4501598D01*
G01X3913835Y4503113D01*
G01X3915047Y4505234D01*
G01X3916562Y4507961D01*
G01X3918077Y4510385D01*
G01X3921410Y4517052D01*
G01X3922320Y4518567D01*
G01X3923229Y4520385D01*
G01X3923759Y4521219D01*
G01X3924744Y4521295D01*
G01X3927168Y4520385D01*
G01X3936259Y4516749D01*
G01X3937547Y4516067D01*
G01X3937774Y4515234D01*
G01X3936562Y4513113D01*
G01X3935047Y4510688D01*
G01X3933532Y4507961D01*
G01X3931713Y4505234D01*
G01X3930501Y4502507D01*
G01X3930198Y4500992D01*
G01X3965653Y4500992D01*
G01X4002623Y4500688D01*
G01X4004138Y4500385D01*
G01X4004138Y4494628D01*
G01X4003532Y4487961D01*
G01X4000123Y4487280D01*
G01X3991107Y4487052D01*
G01X3978380Y4486446D01*
G01X3976865Y4484022D01*
G01X3975653Y4480992D01*
G01X3974441Y4478264D01*
G01X3972319Y4474022D01*
G01X3971410Y4472507D01*
G01X3970198Y4470386D01*
G01X3968683Y4467658D01*
G01X3967471Y4465537D01*
G01X3966259Y4464022D01*
G01X3964441Y4461901D01*
G01X3962926Y4459779D01*
G01X3959289Y4455234D01*
G01X3957774Y4453719D01*
G01X3957168Y4452961D01*
G01X3957168Y4451901D01*
G01X3957774Y4450840D01*
G01X3958986Y4450083D01*
G01X3961713Y4448870D01*
G01X3964138Y4447961D01*
G01X3966865Y4446749D01*
G01X3970198Y4445234D01*
G01X3973229Y4444022D01*
G01X3978683Y4441598D01*
G01X3981107Y4440689D01*
G01X3991713Y4436143D01*
G01X3997168Y4433719D01*
G01X3999289Y4432810D01*
G01X4002017Y4431598D01*
G01X4003077Y4430689D01*
G01X4003229Y4429779D01*
G01X4002017Y4427658D01*
G01X4000501Y4425234D01*
G01X3998986Y4422507D01*
G01X3997471Y4420385D01*
G01X3995653Y4417204D01*
G01X3995047Y4417052D01*
G01X3992926Y4417961D01*
G01X3963835Y4432507D01*
G01X3961107Y4433719D01*
G01X3958986Y4434628D01*
G01X3951107Y4438567D01*
G01X3944744Y4441295D01*
G01X3942017Y4440689D01*
G01X3938986Y4438870D01*
G01X3936562Y4437355D01*
G01X3934744Y4436446D01*
G01X3933229Y4435537D01*
G01X3931107Y4434325D01*
G01X3926259Y4431901D01*
G01X3920804Y4429476D01*
G01X3911714Y4425840D01*
G01X3909289Y4424931D01*
G01X3907168Y4424325D01*
G01X3904441Y4423416D01*
G01X3902017Y4422507D01*
G01X3893532Y4420082D01*
G01X3888683Y4418870D01*
G01X3877774Y4416446D01*
G01X3875350Y4415840D01*
G01X3873228Y4416143D01*
G01X3872016Y4418264D01*
G37*
G36*
G01X3872622Y4530689D02*
G01X3873228Y4537355D01*
G01X3878228Y4538264D01*
G01X3892016Y4538567D01*
G01X3911107Y4538264D01*
G01X3912926Y4538264D01*
G01X3913532Y4538719D01*
G01X3913532Y4539477D01*
G01X3912320Y4541901D01*
G01X3910804Y4544325D01*
G01X3909592Y4546446D01*
G01X3908380Y4548264D01*
G01X3906865Y4550386D01*
G01X3904744Y4553416D01*
G01X3902320Y4556446D01*
G01X3900804Y4558870D01*
G01X3899592Y4560386D01*
G01X3898683Y4561901D01*
G01X3899895Y4563719D01*
G01X3902320Y4565537D01*
G01X3905047Y4567355D01*
G01X3907168Y4568870D01*
G01X3908683Y4569173D01*
G01X3910501Y4568264D01*
G01X3912926Y4565234D01*
G01X3914441Y4563719D01*
G01X3915653Y4562204D01*
G01X3917471Y4560083D01*
G01X3921107Y4555234D01*
G01X3922623Y4552810D01*
G01X3923835Y4551295D01*
G01X3925653Y4549174D01*
G01X3926032Y4547734D01*
G01X3925350Y4546446D01*
G01X3922623Y4544325D01*
G01X3917168Y4540689D01*
G01X3916183Y4539780D01*
G01X3916259Y4538870D01*
G01X3917471Y4538264D01*
G01X3932926Y4538567D01*
G01X3948683Y4538870D01*
G01X3950804Y4540689D01*
G01X3952926Y4543719D01*
G01X3955956Y4547961D01*
G01X3957774Y4550689D01*
G01X3960804Y4554931D01*
G01X3969895Y4568567D01*
G01X3970880Y4569552D01*
G01X3972016Y4569477D01*
G01X3974744Y4567961D01*
G01X3977168Y4566446D01*
G01X3979592Y4565234D01*
G01X3981713Y4564022D01*
G01X3984441Y4562658D01*
G01X3984744Y4561901D01*
G01X3983835Y4560386D01*
G01X3980804Y4556749D01*
G01X3978380Y4553719D01*
G01X3976259Y4551598D01*
G01X3973835Y4548567D01*
G01X3971713Y4545840D01*
G01X3969895Y4544022D01*
G01X3966865Y4540386D01*
G01X3966335Y4539704D01*
G01X3966562Y4538870D01*
G01X3967774Y4538264D01*
G01X3985350Y4538567D01*
G01X4003835Y4538264D01*
G01X4005350Y4537961D01*
G01X4005350Y4524628D01*
G01X3939289Y4524628D01*
G01X3872925Y4524931D01*
G01X3872622Y4530689D01*
G37*
G36*
G01X3879895Y4577355D02*
G01X3880198Y4583113D01*
G01X3880501Y4585234D01*
G01X3904744Y4585234D01*
G01X3931713Y4585537D01*
G01X3934441Y4585840D01*
G01X3934138Y4587355D01*
G01X3932926Y4590083D01*
G01X3931410Y4592810D01*
G01X3930198Y4595234D01*
G01X3926562Y4601598D01*
G01X3926486Y4602734D01*
G01X3927471Y4603719D01*
G01X3932926Y4606446D01*
G01X3935047Y4607355D01*
G01X3936865Y4608264D01*
G01X3938380Y4608567D01*
G01X3939895Y4607658D01*
G01X3945956Y4597052D01*
G01X3947168Y4594628D01*
G01X3949592Y4590386D01*
G01X3950198Y4588567D01*
G01X3950804Y4586446D01*
G01X3957092Y4585537D01*
G01X3974744Y4585234D01*
G01X3999592Y4584931D01*
G01X4001107Y4584628D01*
G01X4001107Y4579173D01*
G01X4000501Y4572810D01*
G01X3985198Y4572128D01*
G01X3940501Y4571901D01*
G01X3895804Y4572128D01*
G01X3880501Y4572810D01*
G01X3879895Y4577355D01*
G37*
G54D10*
G01X1023358Y5249409D02*
G01X1019802Y5256775D01*
G01X1012436Y5264141D01*
G01X1005070Y5267697D01*
G01X990338Y5267697D01*
G01X982972Y5264141D01*
G01X975606Y5256775D01*
G01X971796Y5249409D01*
G01X968240Y5238233D01*
G01X968240Y5219691D01*
G01X971796Y5208769D01*
G01X975606Y5201403D01*
G01X982972Y5194037D01*
G01X990338Y5190227D01*
G01X1005070Y5190227D01*
G01X1012436Y5194037D01*
G01X1019802Y5201403D01*
G01X1023358Y5208769D01*
G01X1053076Y5267697D02*
G01X1053076Y5190227D01*
G01X1053076Y5267697D02*
G01X1104638Y5190227D01*
G01X1104638Y5267697D02*
G01X1104638Y5190227D01*
G01X1141722Y5267697D02*
G01X1182362Y5267697D01*
G01X1160264Y5238233D01*
G01X1171186Y5238233D01*
G01X1178552Y5234423D01*
G01X1182362Y5230867D01*
G01X1185918Y5219691D01*
G01X1185918Y5212325D01*
G01X1182362Y5201403D01*
G01X1174996Y5194037D01*
G01X1163820Y5190227D01*
G01X1152898Y5190227D01*
G01X1141722Y5194037D01*
G01X1137912Y5197593D01*
G01X1134356Y5204959D01*
G01X2313674Y5300410D02*
G01X2310118Y5307776D01*
G01X2302752Y5315142D01*
G01X2295386Y5318698D01*
G01X2280654Y5318698D01*
G01X2273288Y5315142D01*
G01X2265922Y5307776D01*
G01X2262112Y5300410D01*
G01X2258556Y5289234D01*
G01X2258556Y5270692D01*
G01X2262112Y5259770D01*
G01X2265922Y5252404D01*
G01X2273288Y5245038D01*
G01X2280654Y5241228D01*
G01X2295386Y5241228D01*
G01X2302752Y5245038D01*
G01X2310118Y5252404D01*
G01X2313674Y5259770D01*
G01X2343392Y5318698D02*
G01X2343392Y5241228D01*
G01X2343392Y5318698D02*
G01X2394954Y5241228D01*
G01X2394954Y5318698D02*
G01X2394954Y5241228D01*
G01X2424672Y5303966D02*
G01X2432038Y5307776D01*
G01X2443214Y5318698D01*
G01X2443214Y5241228D01*
G01X10347775Y4283674D02*
G01X10347775Y4206204D01*
G01X10347775Y4283674D02*
G01X10373429Y4283674D01*
G01X10384605Y4280118D01*
G01X10391971Y4272752D01*
G01X10395527Y4265386D01*
G01X10399337Y4254210D01*
G01X10399337Y4235668D01*
G01X10395527Y4224746D01*
G01X10391971Y4217380D01*
G01X10384605Y4210014D01*
G01X10373429Y4206204D01*
G01X10347775Y4206204D01*
G01X10429055Y4268942D02*
G01X10436421Y4272752D01*
G01X10447597Y4283674D01*
G01X10447597Y4206204D01*
G01X864525Y4268374D02*
G01X864525Y4190904D01*
G01X864525Y4268374D02*
G01X890179Y4268374D01*
G01X901355Y4264818D01*
G01X908721Y4257452D01*
G01X912277Y4250086D01*
G01X916087Y4238910D01*
G01X916087Y4220368D01*
G01X912277Y4209446D01*
G01X908721Y4202080D01*
G01X901355Y4194714D01*
G01X890179Y4190904D01*
G01X864525Y4190904D01*
G01X949361Y4250086D02*
G01X949361Y4253642D01*
G01X953171Y4261008D01*
G01X956727Y4264818D01*
G01X964347Y4268374D01*
G01X979079Y4268374D01*
G01X986445Y4264818D01*
G01X990001Y4261008D01*
G01X993811Y4253642D01*
G01X993811Y4246276D01*
G01X990001Y4238910D01*
G01X982635Y4227734D01*
G01X945805Y4190904D01*
G01X997367Y4190904D01*
G01X1877157Y4310796D02*
G01X1799687Y4310796D01*
G01X1877157Y4310796D02*
G01X1877157Y4277776D01*
G01X1873601Y4266600D01*
G01X1869791Y4263044D01*
G01X1862425Y4259234D01*
G01X1855059Y4259234D01*
G01X1847693Y4263044D01*
G01X1843883Y4266600D01*
G01X1840327Y4277776D01*
G01X1840327Y4310796D01*
G01X1840327Y4285142D02*
G01X1799687Y4259234D01*
G01X1877157Y4192686D02*
G01X1825595Y4229516D01*
G01X1825595Y4174144D01*
G01X1877157Y4192686D02*
G01X1799687Y4192686D01*
G01X1872056Y4545399D02*
G01X1794586Y4545399D01*
G01X1872056Y4545399D02*
G01X1872056Y4512379D01*
G01X1868500Y4501203D01*
G01X1864690Y4497647D01*
G01X1857324Y4493837D01*
G01X1849958Y4493837D01*
G01X1842592Y4497647D01*
G01X1838782Y4501203D01*
G01X1835226Y4512379D01*
G01X1835226Y4545399D01*
G01X1835226Y4519745D02*
G01X1794586Y4493837D01*
G01X1872056Y4456753D02*
G01X1872056Y4416113D01*
G01X1842592Y4438211D01*
G01X1842592Y4427289D01*
G01X1838782Y4419923D01*
G01X1835226Y4416113D01*
G01X1824050Y4412557D01*
G01X1816684Y4412557D01*
G01X1805762Y4416113D01*
G01X1798396Y4423479D01*
G01X1794586Y4434655D01*
G01X1794586Y4445577D01*
G01X1798396Y4456753D01*
G01X1801952Y4460563D01*
G01X1809318Y4464119D01*
G01X10339791Y5478050D02*
G01X10339791Y5400580D01*
G01X10339791Y5478050D02*
G01X10372811Y5478050D01*
G01X10383987Y5474494D01*
G01X10387543Y5470684D01*
G01X10391353Y5463318D01*
G01X10391353Y5455952D01*
G01X10387543Y5448586D01*
G01X10383987Y5444776D01*
G01X10372811Y5441220D01*
G01X10339791Y5441220D01*
G01X10365445Y5441220D02*
G01X10391353Y5400580D01*
G01X10424627Y5459762D02*
G01X10424627Y5463318D01*
G01X10428437Y5470684D01*
G01X10431993Y5474494D01*
G01X10439613Y5478050D01*
G01X10454345Y5478050D01*
G01X10461711Y5474494D01*
G01X10465267Y5470684D01*
G01X10469077Y5463318D01*
G01X10469077Y5455952D01*
G01X10465267Y5448586D01*
G01X10457901Y5437410D01*
G01X10421071Y5400580D01*
G01X10472633Y5400580D01*
G01X10115388Y5472950D02*
G01X10115388Y5395480D01*
G01X10115388Y5472950D02*
G01X10148408Y5472950D01*
G01X10159584Y5469394D01*
G01X10163140Y5465584D01*
G01X10166950Y5458218D01*
G01X10166950Y5450852D01*
G01X10163140Y5443486D01*
G01X10159584Y5439676D01*
G01X10148408Y5436120D01*
G01X10115388Y5436120D01*
G01X10141042Y5436120D02*
G01X10166950Y5395480D01*
G01X10196668Y5458218D02*
G01X10204034Y5462028D01*
G01X10215210Y5472950D01*
G01X10215210Y5395480D01*
G01X1351956Y316993D02*
G01X1348400Y324359D01*
G01X1341034Y331725D01*
G01X1333668Y335281D01*
G01X1318936Y335281D01*
G01X1311570Y331725D01*
G01X1304204Y324359D01*
G01X1300394Y316993D01*
G01X1296838Y305817D01*
G01X1296838Y287275D01*
G01X1300394Y276353D01*
G01X1304204Y268987D01*
G01X1311570Y261621D01*
G01X1318936Y257811D01*
G01X1333668Y257811D01*
G01X1341034Y261621D01*
G01X1348400Y268987D01*
G01X1351956Y276353D01*
G01X1381674Y335281D02*
G01X1381674Y257811D01*
G01X1381674Y335281D02*
G01X1433236Y257811D01*
G01X1433236Y335281D02*
G01X1433236Y257811D01*
G01X1466510Y316993D02*
G01X1466510Y320549D01*
G01X1470320Y327915D01*
G01X1473876Y331725D01*
G01X1481496Y335281D01*
G01X1496228Y335281D01*
G01X1503594Y331725D01*
G01X1507150Y327915D01*
G01X1510960Y320549D01*
G01X1510960Y313183D01*
G01X1507150Y305817D01*
G01X1499784Y294641D01*
G01X1462954Y257811D01*
G01X1514516Y257811D01*
G54D11*
G01X7696974Y4498990D02*
G01X7761998Y4498990D01*
G01X7696974Y4498990D02*
G01X7696974Y4526930D01*
G01X7700022Y4536074D01*
G01X7703070Y4539122D01*
G01X7709420Y4542424D01*
G01X7718564Y4542424D01*
G01X7724660Y4539122D01*
G01X7727962Y4536074D01*
G01X7731010Y4526930D01*
G01X7731010Y4498990D01*
G01X7712468Y4575698D02*
G01X7709420Y4575698D01*
G01X7703070Y4578746D01*
G01X7700022Y4581794D01*
G01X7696974Y4587890D01*
G01X7696974Y4600336D01*
G01X7700022Y4606686D01*
G01X7703070Y4609734D01*
G01X7709420Y4612782D01*
G01X7715516Y4612782D01*
G01X7721612Y4609734D01*
G01X7731010Y4603384D01*
G01X7761998Y4572650D01*
G01X7761998Y4615830D01*
G04 Text End*

G04 PolygonModel Start*
G54D12*
G01X10279978Y1684994D02*
G01X10279978Y1814999D01*
G01X10344981Y1749997D02*
G01X10214979Y1749997D01*
G01X10279978Y2199996D02*
G01X10279978Y2329994D01*
G01X10344981Y2264998D02*
G01X10214979Y2264998D01*
G01X10279978Y1169999D02*
G01X10279978Y1299997D01*
G01X10344981Y1234995D02*
G01X10214979Y1234995D01*
G01X1019999Y1684994D02*
G01X1019999Y1814999D01*
G01X1084999Y1749997D02*
G01X954997Y1749997D01*
G01X1019999Y2199996D02*
G01X1019999Y2329994D01*
G01X1084999Y2264998D02*
G01X954997Y2264998D01*
G01X1019999Y1169999D02*
G01X1019999Y1299997D01*
G01X1084999Y1234995D02*
G01X954997Y1234995D01*
G01X1399997Y884996D02*
G01X1399997Y1015000D01*
G01X1464997Y949998D02*
G01X1334998Y949998D01*
G01X1653998Y884996D02*
G01X1653998Y1015000D01*
G01X1718997Y949998D02*
G01X1588998Y949998D01*
G01X1145997Y884996D02*
G01X1145997Y1015000D01*
G01X1210996Y949998D02*
G01X1080998Y949998D01*
G01X1399997Y4784991D02*
G01X1399997Y4914990D01*
G01X1464997Y4849990D02*
G01X1334998Y4849990D01*
G01X1653998Y4784991D02*
G01X1653998Y4914990D01*
G01X1718997Y4849990D02*
G01X1588998Y4849990D01*
G01X1145997Y4784991D02*
G01X1145997Y4914990D01*
G01X1210996Y4849990D02*
G01X1080998Y4849990D01*
G01X2919995Y4784991D02*
G01X2919995Y4914990D01*
G01X2984995Y4849990D02*
G01X2854993Y4849990D01*
G01X3169995Y4784991D02*
G01X3169995Y4914990D01*
G01X3234994Y4849990D02*
G01X3104993Y4849990D01*
G01X2419996Y4784991D02*
G01X2419996Y4914990D01*
G01X2484996Y4849990D02*
G01X2354994Y4849990D01*
G01X2669996Y4784991D02*
G01X2669996Y4914990D01*
G01X2734995Y4849990D02*
G01X2604994Y4849990D01*
G01X7216987Y4980691D02*
G01X7216987Y5113289D01*
G01X7283286Y5046990D02*
G01X7150685Y5046990D01*
G01X7216987Y5234688D02*
G01X7216987Y5367290D01*
G01X7283286Y5300990D02*
G01X7150685Y5300990D01*
G01X7216987Y4472690D02*
G01X7216987Y4605292D01*
G01X7283286Y4538992D02*
G01X7150685Y4538992D01*
G01X7216987Y4726690D02*
G01X7216987Y4859289D01*
G01X7283286Y4792990D02*
G01X7150685Y4792990D01*
G01X6962987Y4472690D02*
G01X6962987Y4605292D01*
G01X7029286Y4538992D02*
G01X6896687Y4538992D01*
G01X6962987Y4726690D02*
G01X6962987Y4859289D01*
G01X7029286Y4792990D02*
G01X6896687Y4792990D01*
G01X6962987Y4980691D02*
G01X6962987Y5113289D01*
G01X7029286Y5046990D02*
G01X6896687Y5046990D01*
G01X6962987Y5234688D02*
G01X6962987Y5367290D01*
G01X7029286Y5300990D02*
G01X6896687Y5300990D01*
G54D13*
G01X1200927Y5628743D02*
G01X1200927Y5378807D01*
G01X1600723Y5378807D02*
G01X1700799Y5378807D01*
G01X1100851Y5378807D02*
G01X1200673Y5378807D01*
G01X1700799Y5628743D02*
G01X1700799Y5378807D01*
G01X1600723Y5628743D02*
G01X1600723Y5378807D01*
G01X1100851Y5628743D02*
G01X1100851Y5378807D01*
G01X1900697Y5628743D02*
G01X900953Y5628743D01*
G01X1765823Y4928719D02*
G01X1900697Y4928719D01*
G01X1495821Y4928719D02*
G01X1535699Y4928719D01*
G01X1245885Y4928719D02*
G01X1305829Y4928719D01*
G01X900953Y4928719D02*
G01X1050813Y4928719D01*
G01X1900697Y4928719D02*
G01X1900697Y5628743D01*
G01X900953Y4928719D02*
G01X900953Y5628743D01*
G01X2169954Y4915620D02*
G01X2169954Y5615619D01*
G01X2169954Y5615619D02*
G01X3418872Y5615619D01*
G01X3418872Y4912039D02*
G01X3418872Y5612038D01*
G01X2169954Y4914579D02*
G01X2266474Y4914579D01*
G01X2266474Y4914579D02*
G01X2309654Y4914579D01*
G01X2309654Y4914579D02*
G01X2309654Y4972999D01*
G01X2309654Y4972999D02*
G01X2523014Y4972999D01*
G01X2523014Y4972999D02*
G01X2523014Y4919659D01*
G01X2523014Y4919659D02*
G01X2563654Y4919659D01*
G01X2563654Y4919659D02*
G01X2563654Y4965379D01*
G01X2525554Y4919659D02*
G01X2563654Y4919659D01*
G01X2563654Y4919659D02*
G01X2563654Y4972999D01*
G01X2563654Y4972999D02*
G01X2769394Y4972999D01*
G01X2769394Y4972999D02*
G01X2769394Y4920421D01*
G01X2769394Y4920421D02*
G01X2815368Y4920421D01*
G01X2815368Y4920421D02*
G01X2815368Y4966141D01*
G01X2769394Y4919659D02*
G01X2815114Y4919659D01*
G01X2815114Y4919659D02*
G01X2815114Y4972999D01*
G01X2815114Y4972999D02*
G01X3021108Y4972999D01*
G01X3021108Y4972999D02*
G01X3021108Y4924739D01*
G01X3021108Y4924739D02*
G01X3061748Y4924739D01*
G01X3061748Y4924739D02*
G01X3061748Y4970459D01*
G01X3060732Y4972999D02*
G01X3121184Y4972999D01*
G01X3121184Y4972999D02*
G01X3276632Y4972999D01*
G01X3276632Y4972999D02*
G01X3276632Y4912039D01*
G01X3276632Y4912039D02*
G01X3418872Y4912039D01*
G01X10820277Y4237519D02*
G01X10740344Y4236656D01*
G01X10740344Y4236656D02*
G01X10820277Y4237519D01*
G01X10820277Y4237519D02*
G01X10890277Y4237519D01*
G01X10820277Y4310664D02*
G01X10820277Y4170664D01*
G01X10626623Y4040664D02*
G01X10600278Y4040664D01*
G01X10840277Y4040664D02*
G01X10813932Y4040664D01*
G01X10840277Y4040664D02*
G03X10600278Y4040664I-120000J169341D01*
G01X679714Y4237519D02*
G01X599781Y4236656D01*
G01X599781Y4236656D02*
G01X679714Y4237519D01*
G01X679714Y4237519D02*
G01X749714Y4237519D01*
G01X679714Y4310664D02*
G01X679714Y4170664D01*
G01X486060Y4040664D02*
G01X459715Y4040664D01*
G01X699714Y4040664D02*
G01X673369Y4040664D01*
G01X699714Y4040664D02*
G03X459715Y4040664I-120000J169341D01*
G54D11*
G01X1636816Y4140893D02*
G01X1772807Y4140893D01*
G01X1772807Y4140893D02*
G01X1772807Y4356711D01*
G01X1772807Y4356711D02*
G01X1636816Y4356711D01*
G01X1446575Y4140893D02*
G01X1310583Y4140893D01*
G01X1310583Y4140893D02*
G01X1310583Y4356711D01*
G01X1310583Y4356711D02*
G01X1446575Y4356711D01*
G01X1636816Y4378046D02*
G01X1772807Y4378046D01*
G01X1772807Y4378046D02*
G01X1772807Y4593864D01*
G01X1772807Y4593864D02*
G01X1636816Y4593864D01*
G01X1446575Y4378046D02*
G01X1310583Y4378046D01*
G01X1310583Y4378046D02*
G01X1310583Y4593864D01*
G01X1310583Y4593864D02*
G01X1446575Y4593864D01*
G01X10511947Y5219859D02*
G01X10511947Y5355851D01*
G01X10511947Y5355851D02*
G01X10296128Y5355851D01*
G01X10296128Y5355851D02*
G01X10296128Y5219859D01*
G01X10511947Y5029618D02*
G01X10511947Y4893626D01*
G01X10511947Y4893626D02*
G01X10296128Y4893626D01*
G01X10296128Y4893626D02*
G01X10296128Y5029618D01*
G01X10275091Y5219859D02*
G01X10275091Y5355851D01*
G01X10275091Y5355851D02*
G01X10059273Y5355851D01*
G01X10059273Y5355851D02*
G01X10059273Y5219859D01*
G01X10275091Y5029618D02*
G01X10275091Y4893626D01*
G01X10275091Y4893626D02*
G01X10059273Y4893626D01*
G01X10059273Y4893626D02*
G01X10059273Y5029618D01*
G54D13*
G01X640092Y1115003D02*
G01X640092Y2385003D01*
G01X1199908Y1115003D02*
G01X1199908Y2385003D01*
G01X640092Y2385003D02*
G01X817892Y2385003D01*
G01X1022108Y2385003D02*
G01X1199908Y2385003D01*
G01X640092Y1115003D02*
G01X817892Y1115003D01*
G01X1022108Y1115003D02*
G01X1199908Y1115003D01*
G01X1600723Y89955D02*
G01X1600723Y339891D01*
G01X1200927Y339891D02*
G01X1100851Y339891D01*
G01X1700799Y339891D02*
G01X1600977Y339891D01*
G01X1100851Y89955D02*
G01X1100851Y339891D01*
G01X1200927Y89955D02*
G01X1200927Y339891D01*
G01X1700799Y89955D02*
G01X1700799Y339891D01*
G01X900953Y89955D02*
G01X1900697Y89955D01*
G01X1035827Y789979D02*
G01X900953Y789979D01*
G01X1305829Y789979D02*
G01X1265951Y789979D01*
G01X1555765Y789979D02*
G01X1495821Y789979D01*
G01X1900697Y789979D02*
G01X1750837Y789979D01*
G01X900953Y789979D02*
G01X900953Y89955D01*
G01X1900697Y789979D02*
G01X1900697Y89955D01*
G01X10100092Y1115003D02*
G01X10100092Y2385003D01*
G01X10659908Y1115003D02*
G01X10659908Y2385003D01*
G01X10100092Y2385003D02*
G01X10277892Y2385003D01*
G01X10482108Y2385003D02*
G01X10659908Y2385003D01*
G01X10100092Y1115003D02*
G01X10277892Y1115003D01*
G01X10482108Y1115003D02*
G01X10659908Y1115003D01*
G01X7469790Y5874884D02*
G01X8349799Y5874884D01*
G01X8349799Y5874884D02*
G01X8349799Y4098510D01*
G01X8349799Y4098510D02*
G01X7469790Y4098510D01*
G01X7470959Y4096503D02*
G01X7470959Y5872497D01*
G01X7465879Y4147837D02*
G01X7422699Y4147837D01*
G01X7422699Y4147837D02*
G01X7422699Y4206257D01*
G01X7422699Y4206257D02*
G01X7463339Y4206257D01*
G01X7458259Y4284997D02*
G01X7394759Y4348497D01*
G01X7394759Y4348497D02*
G01X7463339Y4417077D01*
G01X7463339Y4417077D02*
G01X7465879Y4417077D01*
G01X7473499Y5765817D02*
G01X7430319Y5765817D01*
G01X7430319Y5765817D02*
G01X7430319Y5824237D01*
G01X7430319Y5824237D02*
G01X7470959Y5824237D01*
G01X8161839Y4732037D02*
G01X8161839Y5240037D01*
G01X8161839Y5240037D02*
G01X8344719Y5240037D01*
G01X8344719Y5240037D02*
G01X8347259Y5242577D01*
G01X8161839Y4726957D02*
G01X8342179Y4726957D01*
G01X8342179Y4726957D02*
G01X8344719Y4724417D01*

G04 Circle Start*
G54D12*
G01X10080025Y1750003D02*
G03X10480025Y1750003I200000J0D01*
G03X10080025Y1750003I-200000J0D01*
G01X10229979Y2264998D02*
G03X10329978Y2264998I50000J0D01*
G03X10229979Y2264998I-50000J0D01*
G01X10229979Y1234995D02*
G03X10329978Y1234995I50000J0D01*
G03X10229979Y1234995I-50000J0D01*
G01X820025Y1750003D02*
G03X1220025Y1750003I200000J0D01*
G03X820025Y1750003I-200000J0D01*
G01X969999Y2264998D02*
G03X1069999Y2264998I50000J0D01*
G03X969999Y2264998I-50000J0D01*
G01X969999Y1234995D02*
G03X1069999Y1234995I50000J0D01*
G03X969999Y1234995I-50000J0D01*
G01X1349997Y949998D02*
G03X1449997Y949998I50000J0D01*
G03X1349997Y949998I-50000J0D01*
G01X1603998Y949998D02*
G03X1703998Y949998I50000J0D01*
G03X1603998Y949998I-50000J0D01*
G01X1095997Y949998D02*
G03X1195997Y949998I50000J0D01*
G03X1095997Y949998I-50000J0D01*
G01X1349997Y4849990D02*
G03X1449997Y4849990I50000J0D01*
G03X1349997Y4849990I-50000J0D01*
G01X1603998Y4849990D02*
G03X1703998Y4849990I50000J0D01*
G03X1603998Y4849990I-50000J0D01*
G01X1095997Y4849990D02*
G03X1195997Y4849990I50000J0D01*
G03X1095997Y4849990I-50000J0D01*
G01X2869996Y4849990D02*
G03X2969995Y4849990I50000J0D01*
G03X2869996Y4849990I-50000J0D01*
G01X3119995Y4849990D02*
G03X3219995Y4849990I50000J0D01*
G03X3119995Y4849990I-50000J0D01*
G01X2369997Y4849990D02*
G03X2469996Y4849990I50000J0D01*
G03X2369997Y4849990I-50000J0D01*
G01X2619996Y4849990D02*
G03X2719996Y4849990I50000J0D01*
G03X2619996Y4849990I-50000J0D01*
G01X7165987Y5046990D02*
G03X7267987Y5046990I51000J0D01*
G03X7165987Y5046990I-51000J0D01*
G01X7165987Y5300990D02*
G03X7267987Y5300990I51000J0D01*
G03X7165987Y5300990I-51000J0D01*
G01X7165987Y4538992D02*
G03X7267987Y4538992I51000J0D01*
G03X7165987Y4538992I-51000J0D01*
G01X7165987Y4792990D02*
G03X7267987Y4792990I51000J0D01*
G03X7165987Y4792990I-51000J0D01*
G01X6911987Y4538992D02*
G03X7013986Y4538992I51000J0D01*
G03X6911987Y4538992I-51000J0D01*
G01X6911987Y4792990D02*
G03X7013986Y4792990I51000J0D01*
G03X6911987Y4792990I-51000J0D01*
G01X6911987Y5046990D02*
G03X7013986Y5046990I51000J0D01*
G03X6911987Y5046990I-51000J0D01*
G01X6911987Y5300990D02*
G03X7013986Y5300990I51000J0D01*
G03X6911987Y5300990I-51000J0D01*
G04 Circle End*

M02*

