G04 Layer: BottomSolderMaskLayer*
G04 EasyEDA Pro v3.2.135, 2026-06-01 17:56:49*
G04 Gerber Generator version 0.3*
G04 Scale: 100 percent, Rotated: No, Reflected: No*
G04 Dimensions in millimeters*
G04 Leading zeros omitted, absolute positions, 4 integers and 5 decimals*
G04 Generated by one-click*
G04 Object Configs: Pad,Via,Track,Text,Image,Dimension,BoardOutline,BoardCutout,CopperFilled,SolidRegion,FPCStiffener,Line,PlaneZone,ComponentProperty,ComponentSilkscreen,TearDrop*
G04 Layer Configs: 1,2,3,4,5,6,7,8,9,10,11,13,14,71,72,73,56*
G04 Copper Areas: 0*
%FSLAX45Y45*%
%MOMM*%
%AMRoundRect*1,1,$1,$2,$3*1,1,$1,$4,$5*1,1,$1,0-$2,0-$3*1,1,$1,0-$4,0-$5*20,1,$1,$2,$3,$4,$5,0*20,1,$1,$4,$5,0-$2,0-$3,0*20,1,$1,0-$2,0-$3,0-$4,0-$5,0*20,1,$1,0-$4,0-$5,$2,$3,0*4,1,4,$2,$3,$4,$5,0-$2,0-$3,0-$4,0-$5,$2,$3,0*%
%ADD10RoundRect,0.102X-1.0X-0.8X-1.0X0.8*%
%ADD11O,2.102X1.702*%
%ADD12RoundRect,0.1X-0.85X-0.85X-0.85X0.85*%
%ADD13C,1.8*%
%ADD14RoundRect,0.102X-0.8X1.0X0.8X1.0*%
%ADD15O,1.702X2.102*%
%ADD16C,2.902*%
%ADD17O,2.102X1.602*%
%ADD18RoundRect,0.102X-1.0X-0.75X-1.0X0.75*%
%ADD19RoundRect,0.1076X-0.85X0.85X0.85X0.85*%
%ADD20RoundRect,0.102X-0.85X0.85X0.85X0.85*%
%ADD21C,1.802*%
%ADD22RoundRect,0.102X-0.6X0.6X0.6X0.6*%
%ADD23C,1.302*%
%ADD24O,3.30199X2.102*%
%ADD25C,1.626*%
%ADD26O,1.602X2.102*%
%ADD27RoundRect,0.102X-0.75X1.0X0.75X1.0*%
%ADD28RoundRect,0.102X-0.75X0.75X0.75X0.75*%
%ADD29C,1.602*%
%ADD30C,1.702*%
%ADD31C,3.60199*%
%ADD32RoundRect,0.102X-0.6X-0.6X-0.6X0.6*%
G75*


G04 Pad Start*
G54D10*
G01X-312046Y-554928D03*
G54D11*
G01X-312046Y-300928D03*
G54D12*
G01X-13208654Y-7304341D03*
G54D13*
G01X-13208654Y-7554353D03*
G01X-13208654Y-7804340D03*
G01X-13208654Y-8054352D03*
G01X-13208654Y-8304339D03*
G01X-13208654Y-8554351D03*
G01X-13208654Y-8804338D03*
G01X-13208654Y-9054350D03*
G54D14*
G01X-12224200Y-13117200D03*
G54D15*
G01X-11970200Y-13117200D03*
G54D16*
G01X-2912100Y-12547000D03*
G01X-2912100Y-13055000D03*
G01X-1035300Y-12552100D03*
G01X-1035300Y-13060100D03*
G54D17*
G01X-3315000Y-259941D03*
G01X-3315000Y-513941D03*
G54D18*
G01X-3315000Y-767941D03*
G54D12*
G01X-12257492Y-7304341D03*
G54D13*
G01X-12257492Y-7554353D03*
G01X-12257492Y-7804340D03*
G01X-12257492Y-8054352D03*
G01X-12257492Y-8304339D03*
G01X-12257492Y-8554351D03*
G01X-12257492Y-8804338D03*
G01X-12257492Y-9054350D03*
G54D12*
G01X-11306329Y-7304341D03*
G54D13*
G01X-11306329Y-7554353D03*
G01X-11306329Y-7804340D03*
G01X-11306329Y-8054352D03*
G01X-11306329Y-8304339D03*
G01X-11306329Y-8554351D03*
G01X-11306329Y-8804338D03*
G01X-11306329Y-9054350D03*
G54D10*
G01X-14866500Y-9658861D03*
G54D11*
G01X-14866500Y-9912861D03*
G54D17*
G01X-2611201Y-259941D03*
G01X-2611201Y-513941D03*
G54D18*
G01X-2611201Y-767941D03*
G54D14*
G01X-14794600Y-13117200D03*
G54D15*
G01X-14540600Y-13117200D03*
G54D14*
G01X-13937800Y-13117200D03*
G54D15*
G01X-13683800Y-13117200D03*
G54D17*
G01X-239186Y-6502422D03*
G01X-239186Y-6756422D03*
G54D18*
G01X-239186Y-7010422D03*
G54D16*
G01X-9905200Y-12918300D03*
G01X-10413200Y-12918300D03*
G54D20*
G01X-8099500Y-1427089D03*
G54D21*
G01X-8353500Y-1427089D03*
G01X-8607500Y-1427089D03*
G54D17*
G01X-8791997Y-259941D03*
G01X-8791997Y-513941D03*
G54D18*
G01X-8791997Y-767941D03*
G54D17*
G01X-8105188Y-259941D03*
G01X-8105188Y-513941D03*
G54D18*
G01X-8105188Y-767941D03*
G54D17*
G01X-7418379Y-259941D03*
G01X-7418379Y-513941D03*
G54D18*
G01X-7418379Y-767941D03*
G54D17*
G01X-6731570Y-259941D03*
G01X-6731570Y-513941D03*
G54D18*
G01X-6731570Y-767941D03*
G54D17*
G01X-6044761Y-259941D03*
G01X-6044761Y-513941D03*
G54D18*
G01X-6044761Y-767941D03*
G54D17*
G01X-5357952Y-259941D03*
G01X-5357952Y-513941D03*
G54D18*
G01X-5357952Y-767941D03*
G54D17*
G01X-4671144Y-259941D03*
G01X-4671144Y-513941D03*
G54D18*
G01X-4671144Y-767941D03*
G54D22*
G01X-14370967Y-10392769D03*
G54D23*
G01X-14116967Y-10392769D03*
G54D24*
G01X-4010740Y-11029365D03*
G01X-4010740Y-9715372D03*
G54D25*
G01X-3760727Y-10022357D03*
G01X-3760727Y-10272293D03*
G01X-3760727Y-10472445D03*
G01X-3760727Y-10722381D03*
G54D18*
G01X-10704900Y-2218500D03*
G54D17*
G01X-10704900Y-1964500D03*
G01X-10704900Y-1710500D03*
G01X-10704900Y-1456500D03*
G01X-10643321Y-259941D03*
G01X-10643321Y-513941D03*
G54D18*
G01X-10643321Y-767941D03*
G54D26*
G01X-9521912Y-1515986D03*
G01X-9267912Y-1515986D03*
G54D27*
G01X-9013912Y-1515986D03*
G54D14*
G01X-9521200Y-11821800D03*
G54D15*
G01X-9267200Y-11821800D03*
G54D14*
G01X-14703800Y-6793200D03*
G54D15*
G01X-14957800Y-6793200D03*
G54D28*
G01X-11506546Y-3261528D03*
G54D29*
G01X-11760546Y-3261528D03*
G01X-12014546Y-3261528D03*
G01X-12268546Y-3261528D03*
G01X-12522546Y-3261528D03*
G01X-12776546Y-3261528D03*
G01X-13030546Y-3261528D03*
G01X-13284546Y-3261528D03*
G54D28*
G01X-11506546Y-1981527D03*
G54D29*
G01X-11760546Y-1981527D03*
G01X-12014546Y-1981527D03*
G01X-12268546Y-1981527D03*
G01X-12522546Y-1981527D03*
G01X-12776546Y-1981527D03*
G01X-13030546Y-1981527D03*
G01X-13284546Y-1981527D03*
G54D18*
G01X-14292770Y-2595587D03*
G54D17*
G01X-14292770Y-2849587D03*
G01X-14292770Y-3103587D03*
G01X-14292770Y-3357587D03*
G54D14*
G01X-13081000Y-13117200D03*
G54D15*
G01X-12827000Y-13117200D03*
G54D28*
G01X-11506546Y-4953228D03*
G54D29*
G01X-11760546Y-4953228D03*
G01X-12014546Y-4953228D03*
G01X-12268546Y-4953228D03*
G01X-12522546Y-4953228D03*
G01X-12776546Y-4953228D03*
G01X-13030546Y-4953228D03*
G01X-13284546Y-4953228D03*
G54D28*
G01X-11506546Y-3673228D03*
G54D29*
G01X-11760546Y-3673228D03*
G01X-12014546Y-3673228D03*
G01X-12268546Y-3673228D03*
G01X-12522546Y-3673228D03*
G01X-12776546Y-3673228D03*
G01X-13030546Y-3673228D03*
G01X-13284546Y-3673228D03*
G54D28*
G01X-11506546Y-6644928D03*
G54D29*
G01X-11760546Y-6644928D03*
G01X-12014546Y-6644928D03*
G01X-12268546Y-6644928D03*
G01X-12522546Y-6644928D03*
G01X-12776546Y-6644928D03*
G01X-13030546Y-6644928D03*
G01X-13284546Y-6644928D03*
G54D28*
G01X-11506546Y-5349427D03*
G54D29*
G01X-11760546Y-5349427D03*
G01X-12014546Y-5349427D03*
G01X-12268546Y-5349427D03*
G01X-12522546Y-5349427D03*
G01X-12776546Y-5349427D03*
G01X-13030546Y-5349427D03*
G01X-13284546Y-5349427D03*
G54D18*
G01X-14292770Y-3913898D03*
G54D17*
G01X-14292770Y-4167898D03*
G01X-14292770Y-4421898D03*
G01X-14292770Y-4675898D03*
G54D18*
G01X-14292770Y-5232209D03*
G54D17*
G01X-14292770Y-5486209D03*
G01X-14292770Y-5740209D03*
G01X-14292770Y-5994209D03*
G01X-3992835Y-259941D03*
G01X-3992835Y-513941D03*
G54D18*
G01X-3992835Y-767941D03*
G54D14*
G01X-9067300Y-13096800D03*
G54D15*
G01X-8813300Y-13096800D03*
G54D10*
G01X-312046Y-1381128D03*
G54D11*
G01X-312046Y-1127128D03*
G54D30*
G01X-914795Y-9988307D03*
G01X-914795Y-10238293D03*
G01X-594806Y-10238293D03*
G01X-594806Y-9988307D03*
G54D31*
G01X-664783Y-10715305D03*
G01X-664783Y-9511295D03*
G54D17*
G01X-6043500Y-13106000D03*
G01X-6043500Y-12852000D03*
G54D18*
G01X-6043500Y-12598000D03*
G54D17*
G01X-5293800Y-13106000D03*
G01X-5293800Y-12852000D03*
G54D18*
G01X-5293800Y-12598000D03*
G54D17*
G01X-4656300Y-13116200D03*
G01X-4656300Y-12862200D03*
G54D18*
G01X-4656300Y-12608200D03*
G54D17*
G01X-3937200Y-13106000D03*
G01X-3937200Y-12852000D03*
G54D18*
G01X-3937200Y-12598000D03*
G54D14*
G01X-11367400Y-13117200D03*
G54D15*
G01X-11113400Y-13117200D03*
G54D14*
G01X-7897917Y-12504581D03*
G54D15*
G01X-7643917Y-12504581D03*
G54D14*
G01X-7897917Y-13154581D03*
G54D15*
G01X-7643917Y-13154581D03*
G54D14*
G01X-7067917Y-12504581D03*
G54D15*
G01X-6813917Y-12504581D03*
G54D14*
G01X-7067917Y-13154581D03*
G54D15*
G01X-6813917Y-13154581D03*
G54D18*
G01X-11918700Y-1017241D03*
G54D17*
G01X-11918700Y-763241D03*
G01X-11918700Y-509241D03*
G01X-11918700Y-255241D03*
G54D18*
G01X-12668400Y-1017241D03*
G54D17*
G01X-12668400Y-763241D03*
G01X-12668400Y-509241D03*
G01X-12668400Y-255241D03*
G54D32*
G01X-2983500Y-7828000D03*
G54D23*
G01X-2983500Y-7574000D03*
G54D32*
G01X-4059600Y-6318400D03*
G54D23*
G01X-4059600Y-6064400D03*
G54D10*
G01X-14866500Y-7563800D03*
G54D11*
G01X-14866500Y-7817800D03*
G04 Pad End*

M02*

